<?xml version="1.0" encoding="UTF-8" standalone="no"?>
<svg
   xmlns:dc="http://purl.org/dc/elements/1.1/"
   xmlns:cc="http://creativecommons.org/ns#"
   xmlns:rdf="http://www.w3.org/1999/02/22-rdf-syntax-ns#"
   xmlns:svg="http://www.w3.org/2000/svg"
   xmlns="http://www.w3.org/2000/svg"
   xmlns:xlink="http://www.w3.org/1999/xlink"
   xmlns:sodipodi="http://sodipodi.sourceforge.net/DTD/sodipodi-0.dtd"
   xmlns:inkscape="http://www.inkscape.org/namespaces/inkscape"
   width="512"
   height="512"
   id="svg2"
   version="1.1"
   inkscape:version="0.48.2 r9819"
   sodipodi:docname="SvgImport.svg">
  <metadata
     id="metadata63">
    <rdf:RDF>
      <cc:Work
         rdf:about="">
        <dc:format>image/svg+xml</dc:format>
        <dc:type
           rdf:resource="http://purl.org/dc/dcmitype/StillImage" />
      </cc:Work>
    </rdf:RDF>
  </metadata>
  <sodipodi:namedview
     pagecolor="#ffffff"
     bordercolor="#666666"
     borderopacity="1"
     objecttolerance="10"
     gridtolerance="10"
     guidetolerance="10"
     inkscape:pageopacity="0"
     inkscape:pageshadow="2"
     inkscape:window-width="1634"
     inkscape:window-height="1106"
     id="namedview61"
     showgrid="false"
     inkscape:zoom="0.921875"
     inkscape:cx="256"
     inkscape:cy="256"
     inkscape:window-x="0"
     inkscape:window-y="0"
     inkscape:window-maximized="0"
     inkscape:current-layer="g28" />
  <defs
     id="defs4">
    <g
       fill="#fff"
       id="SVG-4"
       transform="matrix(2 0 0 2 40 158)">
      <path
         d="m5.482,31.319c-3.319-3.318-5.373-7.9-5.373-12.961 0-10.126 8.213-18.334 18.334-18.334 10.126-0 18.339,8.208 18.339,18.334h-10.74c0-4.194-3.404-7.593-7.599-7.593-4.194,0-7.593,3.399-7.593,7.593 0,2.095 .851,3.993 2.22,5.363h.005c1.375,1.38 2.52,1.779 5.368,2.231 5.066,.527 9.648,2.054 12.966,5.372 3.319,3.319 5.373,7.901 5.373,12.962 0,10.126-8.213,18.339-18.339,18.339-10.121,0-18.334-8.213-18.334-18.339h10.741c0,4.194 3.399,7.598 7.593,7.598 4.195,0 7.599-3.404 7.599-7.598 0-2.095-.851-3.988-2.221-5.363h-.005c-1.375-1.375-3.348-1.849-5.373-2.226v-.005c-4.91-.753-9.643-2.054-12.961-5.373h0Z"
         id="path7" />
      <path
         d="m73.452,.024l-12.97,62.601h-10.74l-12.96-62.601 10.74-0 7.6,36.663 7.59-36.663 10.74-0Z"
         id="path9" />
      <path
         d="m91.792,25.952h18.334v18.334h.005c0,10.127-8.213,18.34-18.339,18.34-10.127,0-18.334-8.213-18.334-18.34v-25.927h-.005c0-10.126 8.212-18.334 18.339-18.334 10.121,0 18.334,8.208 18.334,18.334h-10.741c0-4.19-3.404-7.594-7.593-7.594-4.195,0-7.594,3.404-7.594,7.594v25.927c0,4.195 3.399,7.594 7.594,7.594 4.189,0 7.588-3.399 7.593-7.589v-.005-7.588h-7.593v-10.746Z"
         id="path11" />
    </g>
    <linearGradient
       id="linearGradient5048-7">
      <stop
         offset="0"
         stop-opacity="0"
         id="stop14" />
      <stop
         offset=".5"
         id="stop16" />
      <stop
         offset="1"
         stop-opacity="0"
         id="stop18" />
    </linearGradient>
    <linearGradient
       id="linearGradient5060-7">
      <stop
         offset="0"
         id="stop21" />
      <stop
         offset="1"
         stop-opacity="0"
         id="stop23" />
    </linearGradient>
    <linearGradient
       gradientTransform="matrix(2.77439 0 0 1.96971 -1892.179 -872.8854)"
       id="linearGradient3325-0"
       xlink:href="#linearGradient5048-7"
       y1="366.648"
       y2="609.505"
       x2="0"
       gradientUnits="userSpaceOnUse" />
    <radialGradient
       cx="605.714"
       cy="486.648"
       gradientTransform="matrix(2.77439 0 0 1.96971 -1891.633 -872.8854)"
       r="117.143"
       id="radialGradient3327-6"
       xlink:href="#linearGradient5060-7"
       gradientUnits="userSpaceOnUse" />
    <radialGradient
       cx="605.714"
       cy="486.648"
       gradientTransform="matrix(-2.77439 0 0 1.96971 112.7623 -872.8854)"
       r="117.143"
       id="radialGradient3329-1"
       xlink:href="#linearGradient5060-7"
       gradientUnits="userSpaceOnUse" />
  </defs>
  <g
     color="#000"
     transform="matrix(.19902 0 0 .20308 385.47043 418.63579)"
     id="g28" />
  <g
     transform="matrix(1.35181 0 0 1.35181 8.3785 50.34943)"
     id="g36">
    <path
       id="base-7"
       d="m8.5,150h283v100c0,23.5-18,41.5-41.5,41.5h-200c-23.5,0-41.5-18-41.5-41.5z" />
  </g>
  <g
     stroke="#000"
     stroke-width="38.009"
     transform="matrix(1.35181 0 0 1.35181 8.3785 50.34943)"
     id="g39">
    <g
       id="svgstar"
       transform="translate(150 150)">
      <path
         fill="#ffb13b"
         id="svgbar"
         d="m-84.1487-15.8513a22.4171,22.4171 0 1,0 0,31.7026h168.2974a22.4171,22.4171 0 1,0 0-31.7026z" />
      <use
         width="1"
         height="1"
         xlink:href="#svgbar"
         transform="rotate(45)"
         id="use43" />
      <use
         width="1"
         height="1"
         xlink:href="#svgbar"
         transform="rotate(90)"
         id="use45" />
      <use
         width="1"
         height="1"
         xlink:href="#svgbar"
         transform="rotate(135)"
         id="use47" />
    </g>
  </g>
  <g
     transform="matrix(1.35181 0 0 1.35181 8.3785 50.34943)"
     id="g49">
    <use
       width="1"
       height="1"
       xlink:href="#svgstar"
       id="use51" />
    <use
       width="1"
       opacity=".85"
       height="1"
       xlink:href="#base-7"
       id="use53" />
    <use
       width="1"
       height="1"
       xlink:href="#SVG-4"
       id="use55" />
  </g>
  <g
     transform="translate(0 464)"
     id="g57">
    <path
       fill="#56ef55"
       stroke="#000"
       stroke-width="16"
       d="m232-208 128-128 0,89.6 128,0 0,76.8-128,0 0,89.6-128-128z"
       id="path59" />
  </g>
</svg>
