<?xml version="1.0" encoding="UTF-8" standalone="no"?>
<svg
   viewBox="0 0 512 512"
   version="1.1"
   id="svg1091"
   sodipodi:docname="SvgImport-inverse.svg"
   inkscape:version="1.1.2 (b8e25be8, 2022-02-05)"
   xmlns:inkscape="http://www.inkscape.org/namespaces/inkscape"
   xmlns:sodipodi="http://sodipodi.sourceforge.net/DTD/sodipodi-0.dtd"
   xmlns:xlink="http://www.w3.org/1999/xlink"
   xmlns="http://www.w3.org/2000/svg"
   xmlns:svg="http://www.w3.org/2000/svg">
  <sodipodi:namedview
     id="namedview1093"
     pagecolor="#ffffff"
     bordercolor="#666666"
     borderopacity="1.0"
     inkscape:pageshadow="2"
     inkscape:pageopacity="0.0"
     inkscape:pagecheckerboard="0"
     showgrid="false"
     inkscape:zoom="0.74943068"
     inkscape:cx="328.91634"
     inkscape:cy="182.80543"
     inkscape:window-width="1277"
     inkscape:window-height="847"
     inkscape:window-x="1089"
     inkscape:window-y="156"
     inkscape:window-maximized="0"
     inkscape:current-layer="svg1091" />
  <defs
     id="defs1070">
    <g
       id="0"
       transform="matrix(2 0 0 2 40 158)"
       style="fill:#fff">
      <path
         d="m5.482 31.32c-3.319-3.318-5.373-7.9-5.373-12.961 0-10.126 8.213-18.334 18.334-18.334 10.126 0 18.339 8.208 18.339 18.334h-10.74c0-4.194-3.404-7.593-7.599-7.593-4.194 0-7.593 3.399-7.593 7.593 0 2.095.851 3.993 2.22 5.363h.005c1.375 1.38 2.52 1.779 5.368 2.231 5.066.527 9.648 2.054 12.966 5.372 3.319 3.319 5.373 7.901 5.373 12.962 0 10.126-8.213 18.339-18.339 18.339-10.121 0-18.334-8.213-18.334-18.339h10.741c0 4.194 3.399 7.598 7.593 7.598 4.195 0 7.599-3.404 7.599-7.598 0-2.095-.851-3.988-2.221-5.363h-.005c-1.375-1.375-3.348-1.849-5.373-2.226v-.005c-4.91-.753-9.643-2.054-12.961-5.373"
         id="path1063" />
      <path
         d="m73.45.024l-12.97 62.6h-10.74l-12.96-62.6h10.74l7.6 36.663 7.59-36.663h10.74"
         id="path1065" />
      <path
         d="m91.79 25.952h18.334v18.334h.005c0 10.127-8.213 18.34-18.339 18.34-10.127 0-18.334-8.213-18.334-18.34v-25.927h-.005c0-10.126 8.212-18.334 18.339-18.334 10.121 0 18.334 8.208 18.334 18.334h-10.741c0-4.19-3.404-7.594-7.593-7.594-4.195 0-7.594 3.404-7.594 7.594v25.927c0 4.195 3.399 7.594 7.594 7.594 4.189 0 7.588-3.399 7.593-7.589v-.005-7.588h-7.593v-10.746"
         id="path1067" />
    </g>
  </defs>
  <g
     transform="matrix(1.0971998,0,0,1.0971998,10.543187,124.56888)"
     id="g1089">
    <path
       id="1"
       d="m 8.5,150 h 283 v 100 c 0,23.5 -18,41.5 -41.5,41.5 H 50 C 26.5,291.5 8.5,273.5 8.5,250 Z" />
    <g
       style="stroke:#ffffff;stroke-width:38.01"
       id="g1081">
      <g
         id="2"
         transform="translate(150,150)"
         style="stroke:#ffffff">
        <path
           id="3"
           d="m -84.1487,-15.8513 a 22.4171,22.4171 0 1 0 0,31.7026 h 168.3 a 22.4171,22.4171 0 1 0 0,-31.7026 z"
           style="fill:#ffb13b;stroke:#ffffff" />
        <use
           width="1"
           height="1"
           xlink:href="#3"
           transform="matrix(0.70711,0.70711,-0.70711,0.70711,0,0)"
           id="use1074"
           x="0"
           y="0"
           style="stroke:#ffffff" />
        <use
           width="1"
           height="1"
           xlink:href="#3"
           transform="rotate(90)"
           id="use1076"
           x="0"
           y="0"
           style="stroke:#ffffff" />
        <use
           width="1"
           height="1"
           xlink:href="#3"
           transform="matrix(-0.70711,0.70711,-0.70711,-0.70711,0,0)"
           id="use1078"
           x="0"
           y="0"
           style="stroke:#ffffff" />
      </g>
    </g>
    <use
       width="1"
       height="1"
       xlink:href="#2"
       id="use1083"
       x="0"
       y="0" />
    <use
       width="1"
       height="1"
       xlink:href="#1"
       style="opacity:0.85;fill:#000000"
       id="use1085"
       x="0"
       y="0" />
    <use
       width="1"
       height="1"
       xlink:href="#0"
       id="use1087"
       x="0"
       y="0" />
  </g>
  <path
     d="m 230.67543,212.36842 128,-128 v 89.6 h 128 v 76.8 h -128 v 89.6 z"
     style="fill:#56ef55;stroke:#ffffff;stroke-width:16"
     id="path977" />
</svg>
