<svg xmlns="http://www.w3.org/2000/svg" viewBox="0 0 512 512"><g style="stroke:#000"><path d="m36.2 355.59l54-27 26 57.59 112-54.59-30-57 54-27 54-27 34 63 104.57-56.937-30.566-60.06 54-27" style="fill:none;stroke-width:18"/><g style="fill:#f00;stroke-width:.2"><path d="m72 368a24 24 0 1 1 -48 0 24 24 0 1 1 48 0z" transform="matrix(1.27342 0 0 1.27342-16.929-113.03)"/><path d="m496.8443 152.2162a25.0399 25.0399 0 1 1 -50.0798 0 25.0399 25.0399 0 1 1 50.0798 0z" transform="matrix(1.27015 0 0 1.27015-131.26-53.53)"/></g></g></svg>