<?xml version="1.0" encoding="UTF-8" standalone="no"?>
<svg
   xmlns:dc="http://purl.org/dc/elements/1.1/"
   xmlns:cc="http://creativecommons.org/ns#"
   xmlns:rdf="http://www.w3.org/1999/02/22-rdf-syntax-ns#"
   xmlns:svg="http://www.w3.org/2000/svg"
   xmlns="http://www.w3.org/2000/svg"
   xmlns:xlink="http://www.w3.org/1999/xlink"
   xmlns:sodipodi="http://sodipodi.sourceforge.net/DTD/sodipodi-0.dtd"
   xmlns:inkscape="http://www.inkscape.org/namespaces/inkscape"
   width="512"
   height="512"
   id="svg2"
   version="1.1"
   inkscape:version="0.48.2 r9819"
   sodipodi:docname="Modify.svg">
  <metadata
     id="metadata1499">
    <rdf:RDF>
      <cc:Work
         rdf:about="">
        <dc:format>image/svg+xml</dc:format>
        <dc:type
           rdf:resource="http://purl.org/dc/dcmitype/StillImage" />
      </cc:Work>
    </rdf:RDF>
  </metadata>
  <sodipodi:namedview
     pagecolor="#ffffff"
     bordercolor="#666666"
     borderopacity="1"
     objecttolerance="10"
     gridtolerance="10"
     guidetolerance="10"
     inkscape:pageopacity="0"
     inkscape:pageshadow="2"
     inkscape:window-width="1883"
     inkscape:window-height="1134"
     id="namedview1497"
     showgrid="false"
     inkscape:zoom="1.84375"
     inkscape:cx="256"
     inkscape:cy="256"
     inkscape:window-x="0"
     inkscape:window-y="0"
     inkscape:window-maximized="0"
     inkscape:current-layer="svg2" />
  <defs
     id="defs4">
    <linearGradient
       gradientTransform="matrix(18.88841 -3.15688 12.08567 21.33137 -1367.4249 -524.79041)"
       xlink:href="#linearGradient2994"
       id="linearGradient3628"
       y1="31.047"
       x1="25.719"
       y2="30.703"
       gradientUnits="userSpaceOnUse"
       x2="25.515" />
    <linearGradient
       gradientTransform="matrix(15.43669 -2.54761 9.8771 17.21451 -1223.9552 -401.07251)"
       xlink:href="#linearGradient2974"
       id="linearGradient3630"
       y1="19.812"
       x1="46"
       y2="22.625"
       gradientUnits="userSpaceOnUse"
       x2="47.688" />
    <linearGradient
       gradientTransform="matrix(15.4626 -2.57417 9.89368 17.39398 -1225.0737 -403.80445)"
       xlink:href="#linearGradient2966"
       id="linearGradient3624"
       y1="17.376"
       x1="48.906"
       y2="22.251"
       gradientUnits="userSpaceOnUse"
       x2="50.988" />
    <linearGradient
       id="linearGradient2994">
      <stop
         offset="0"
         stop-color="#000"
         id="stop10" />
      <stop
         offset="1"
         stop-color="#c9c9c9"
         id="stop12" />
    </linearGradient>
    <linearGradient
       id="linearGradient2966">
      <stop
         offset="0"
         stop-color="#ffd1d1"
         id="stop15" />
      <stop
         offset=".5"
         stop-color="#ff1d1d"
         id="stop17" />
      <stop
         offset="1"
         stop-color="#6f0000"
         id="stop19" />
    </linearGradient>
    <linearGradient
       id="linearGradient2974">
      <stop
         offset="0"
         stop-color="#c1c1c1"
         id="stop22" />
      <stop
         offset="1"
         stop-color="#acacac"
         id="stop24" />
    </linearGradient>
    <radialGradient
       cx="29.053"
       cy="27.641"
       gradientTransform="matrix(46.1688 -7.4794 20.50917 35.0875 -2394.5169 -749.69698)"
       id="radialGradient3626"
       r="3.241"
       gradientUnits="userSpaceOnUse">
      <stop
         offset="0"
         stop-color="#e7e2b8"
         id="stop27" />
      <stop
         offset="1"
         stop-color="#e7e2b8"
         stop-opacity="0"
         id="stop29" />
    </radialGradient>
  </defs>
  <path
     fill-rule="evenodd"
     stroke="#000"
     stroke-width="16"
     d="m424,488 64,0 0-64-64,64z"
     id="path31" />
  <g
     fill-rule="evenodd"
     transform="matrix(.00855 -.62827 .62827 .00855 249.43342 -100.84093)"
     id="g33">
    <path
       fill="#cb0422"
       stroke="#5c410c"
       stroke-width="15.181"
       d="m-532.9922,88.5942 29.5787-106.6292 202.2938-210.1012c35.7741-28.5828 107.2697,43.0531 80.4741,76.9117l-204.8846,203.7563-107.462,36.0624z"
       id="path35" />
    <path
       fill="url(#linearGradient3624)"
       d="m-346.8455-169.1884c0,0 23.155-2.0697 44.2198,18.2248 21.7012,20.9076 26.2801,46.2028 26.2801,46.2028l53.3712-55.8927c0,0 13.7322-19.0683-17.9878-51.1534-31.2868-31.6469-52.9953-13.1937-52.9953-13.1937l-52.888,55.8122z"
       id="path37" />
    <path
       fill="url(#radialGradient3626)"
       d="m-523.1641,76.2385 25.594-89.3033c31.8978,10.2081 57.8131,31.4386 67.1858,59.4887l-92.7798,29.8146z"
       id="path39" />
    <path
       fill="url(#linearGradient3628)"
       d="m-511.9151,38.6022-11.4321,39.1268 40.493-14.065c-4.5547-16.0225-16.3826-22.0727-29.0608-25.0618z"
       id="path41" />
    <g
       fill-opacity=".364"
       id="g43">
      <path
         fill="#fdb620"
         d="m-497.0859-13.5202 33.0767,15.7617 156.2915-158.4525c-14.4862-13.0494-28.2628-14.8749-38.6483-14.5406l-150.7199,157.2314z"
         id="path45" />
      <path
         d="m-431.5075,47.7913-4.269-12.8426 155.7765-154.9487c0,0 4.1242,10.4018 3.8485,12.9013l-155.356,154.8901z"
         id="path47" />
    </g>
    <path
       fill="url(#linearGradient3630)"
       d="m-347.1991-168.8772c0,0 23.1162-2.0483 44.1457,18.0368 21.6648,20.6918 26.2361,45.726 26.2361,45.726l20.9963-22.3097c0,0-.26-24.8106-23.1679-46.8213-23.5376-22.6156-47.2138-16.9415-47.2138-16.9415l-20.9963,22.3097z"
       id="path49" />
  </g>
  <g
     fill="#ccc"
     stroke="#000"
     stroke-width="12.557"
     transform="matrix(.2387 0 0 .2387 149.48458 67.30297)"
     id="g51">
    <path
       d="m1283.9194,701.756c-30.5961,26.3079-20.6791-67.8708-32.5485-4.2435-25.6331,33.1728-7.0544,91.0647-8.3137,139.4496 7.7204,137.009 17.9975,274.0262 22.9427,411.0879-2.109,54.9419-.2805,115.6061-2.2592,172.9708-4.2337,75.4565-17.8366-47.1395-18.9268-71.0157-25.1499-250.4157-52.1044-501.5554-75.7074-751.3558-18.5705-159.2327-32.786-319.2749-48.8607-478.9706-37.7138-59.807-30.3035,39.9572-37.6507,66.2395-39.1636,304.395-76.8304,608.9143-115.5286,913.2723-13.9774,115.1522-26.9686,231.4181-41.9056,346.0569-13.0852-33.5839-2.1507-90.9503-6.8348-133.2052 2.5439-47.2649 2.4956-94.6722 7.5993-144.5371 11.6-151.1196 23.8529-301.9605 37.2575-452.7122-18.9744-3.4845-18.4995-71.6038-29.1235-18.7878-29.6859,40.7433-18.3191-46.743-12.4605-65.5 11.0066-39.1821 30.6887,4.3541 22.9571,21.9689 15.7266-44.6656 26.7393-94.0815 42.4389-132.9689 21.4879-173.519 43.0387-347.0233 63.6518-520.5418-30.2237-27.1358-9.455-97.7813 18.3587-98.1698 6.6566,30.2972 79.9443-11.7674 83.9906,46.7882 6.8808,52.1573 1.3615-43.578 8.535,8.227-5.7273,47.2264 3.3847-4.5066 6.0381-4.2344-1.0565,26.0134-6.0355,39.8479-14.1359,36.4511 21.3897,11.1068 23.8848-95.3227-29.2333-94.0167-22.3356-6.2956-77.6088,9.8438-25.77-8.3894 54.908-6.5743 97.115,59.5968 65.7902,105.7501 15.3992,183.145 35.0865,365.7835 53.9023,548.7393 18.3903,24.5252 24.9466,97.4114 40.0376,107.473-10.4419-53.0231 36.0109-19.2232 23.2908,15.4234-.9462,12.6426 4.2206,26.5681 2.4687,38.7509zm-11.0586-10.0723c-11.7098,2.486 14.1086-.158 0,0zm2.5574-7.7856c-19.0503,2.8734 6.7988,5.0883 0,0zm-.1682-8.0079c-20.6276,4.4413 8.6946,8.6763 0,0zm-2.5-8.7736c-22.0503,7.3387 15.5069,7.4899 0,0zm-2-7.419c-15.9822,7.697 14.1617,4.0521 0,0zm1.783-7.8182c-18.0919,1.3873 4.2021,9.8461 0,0zm-.992-7.5376c-18.3605,.0294 6.7713,8.2804 0,0zm-1.3177-7.6495c-22.3669,3.8944 11.6776,4.3409 0,0zm-1.9525-5.7914c.9347,2.2533 3.9597-2.1015 0,0zm-3.7708,.6042c-5.247,2.3736 5.2821,.8654 0,0zm-5.107,26.5818c-15.0099-7.9458 4.34,14.6022 0,0zm-1.3014,737.1682c-6.5042-22.2118 3.4206,54.0501 0,0zm-.8665-19.75c-10.2418-20.7655 3.5334,27.6636 0,0zm-1.1874-43.197c-2.0858-53.2771 2.9444-104.756-1.1222-158.0717-6.7536-95.5216-9.1348-190.969-17.4057-285.7313-6.4595-54.4325-.4461-111.6493-12.1953-164.4347-1.3239,3.2889 .5285,21.3536-6.3175,2.7234-.6635-.3256-18.6435,4.4068-25.929-11.325 48.5328-11.3022-32.8566-15.2418-4.0615,20.9926 15.5454,170.2997 33.2721,340.6316 53.9719,510.311 6.8374,38.4382 4.4548,81.7044 11.7713,121.73-.023-11.888 3.5475-24.4119 1.288-36.1943zm-12.6055-687.5091c-11.9472-22.1195-12.5113-116.4258-44.9776-78.9415 9.2491,42.0313 5.3548,101.105 19.9471,134.4422 45.8162-3.0888-.6509-3.264-2.5544,10.9623 40.7863,9.0626 30.0868-42.8564 27.5849-66.463zm-1.0945,619.4561c-1.6231,5.5068 1.7503,.9994 0,0zm-34.4632-590.25c-6.4774-56.9317-20.6617-113.1963-1.6158-167.2009-10.5508-89.1569-16.7488-179.036-28.3348-267.914-19.5316-50.4399-33.8584-103.6449-37.0836-157.6006-42.0122,18.9721-4.7069,92.4115-4.1742,127.2155 59.7487,24.7086 37.2709,105.0016 50.3178,155.9242 3.5141,53.7426 14.9534,107.3054 13.5825,161.1227-30.1268,33.53-34.1357,65.3059-22.9637,111.3956 5.1315,24.1939-3.8796,93.5683 32.4361,58.1918l-.7144-8.2607-1.4499-12.8736zm2.3255-127.5c-9.0799,3.8428 3.6608,11.0935 0,0zm-13.4551-55.6347c-10.5198-83.4932-12.6699-168.8282-29.3957-251.0889-23.0573-26.5145-38.1026-15.9715-32.9785-12.3697 11.7298,106.7587 20.1126,214.56 34.6879,320.5571 4.9125,37.029 43.5302-44.285 27.6863-57.0985zm-22.1913-299.8653c-9.9811-29.5457 1.1421-119.5728-22.0273-113.5478 3.6886,48.8029 7.792,91.2258 17.9693,112.3908 4.1046,17.354-11.4047-16.9918 1.7681,13.8632 6.535,34.0569 4.0022,2.4499 2.2899-12.7062zm-8.5536-13c-3.5852-3.8442 3.7039-2.5632 0,0zm-6.5305-139.4561c-4.4547-57.8571-15.9767,73.9196 1.2695,13.9845l-.621-6.5632-.6485-7.4213zm-2.1526,108.7686c-1.4323,4.3835 1.9251,.4336 0,0zm-2.9239-18.8125c-4.5428-25.5403-8.1738-80.5322-4.8121-21.1216-.5301,12.5818 11.3636,57.0358 4.8121,21.1216zm.02-157.0715c-3.9556,15.7656 4.2943-10.4286 0,0zm-8.6932,53.1145c-19.8913,15.5924-21.4751,79.6838-3.8276,32.5665-1.3307-1.5463 13.2611-48.1792 3.8276-32.5665zm-1.6186-27.3481c-20.8598-15.3942 16.2421,19.5009 0,0zm1.3063-57.4449c-17.2194-40.592-61.9188-24.3225-78.1925-6.4196-30.3359,46.8586 46.5981,92.4229 70.6461,46.6696 12.7466-8.194 10.5411-27.6878 7.5464-40.25zm-28.2912,20.3286c-31.8567,33.0736-28.3043-44.5907 .7965-9.2229l.5235,4.4341-1.32,4.7888zm-4.6225-12.5201c-41.4116-8.2291 10.0483,39.6283 0,0zm31.0598,63.9415c-29.968,44.7037-109.4286-43.7671-82.9271,24.5 12.1381,73.5386-14.8481,144.5565-36.8398,213.1386-11.3191,91.8948-23.5828,183.8229-32.4841,275.9503 25.3312,47.6939-2.9697,103.2172-3.0026,154.6982-3.9775,50.6592 39.662,2.2357 27.8039-28.7872 7.6366-47.8376 18.2043-89.9748-19.082-124.8566 1.716-72.749 16.9101-145.727 23.2459-218.617-2.5179-45.3224 16.3707-93.1761 52.7029-109.0265 10.5936-45.2298-2.1067-109.4421 45.466-126.5 2.9598-22.2411 15.0138-41.4938 25.117-60.5zm-7.2718-1.1838c-34.795,17.327 19.4701-6.9382 0,0zm.7182-6.8162c-7.2338,4.8362 7.1081-2.5711 0,0zm-9.5,55c-5.5551,16.0584 5.2487-8.6037 0,0zm-1.175-49.1221c-4.5765,3.6433 7.378-2.7143 0,0zm-10.5014,2.4827c-25.2651,6.9849 25.3954-3.7355 0,0zm3.5014-6.4827c-4.4089,3.7025 7.1276-2.9657 0,0zm-1.4919,93.6221c-24.5119-35.2454 6.2466,38.8352 0,0zm-6.1057-80.4722c-27.596-1.3426-9.8148-17.7412-.074-11.3876-43.1424,.9663-66.9171-51.9623-45.8953-82.2861-38.5583-16.4357-29.9305,85.9641 15.6467,91.0242 3.1857,6.3152 54.8108,2.6311 30.3229,2.6495zm-22.6623-9.0278c-14.152-2.2717 2.3155-6.4705 0,0zm14.1259,3.0153c-4.3169,.8529 7.5437,2.8187 0,0zm-33.7639-91.5864c-30.9351-31.9105 15.9606,23.8845 0,0zm-.8637,299.8821c-7.2128,21.6498-10.0944,47.1958-6.0465,4.8008-5.6763-7.569-17.2112,101.3742-10.5289,33.8882 4.1207-75.2081-11.599,51.2571-14.2902,73.65-6.212,46.5413-11.5665,96.1092-19.8981,140.5497 8.0284-81.2353 22.9169-162.2895 29.2376-243.6134-17.7436,93.0306-24.0433,188.3636-39.6684,281.8941-.4685-38.5045 11.8335-92.6378 15.248-136.9405 4.2432-31.2555 17.9617-138.0582 13.0552-123.0767-11.2248,88.9293-22.8701,177.9888-32.3775,267.075-2.8547,26.9415 35.753,59.6141 28.2223,11.2646 11.3557-103.657 25.7637-207.0885 38.1915-310.5514l-1.1453,1.0597h.0003zm-19.659,74.189c-2.4824,26.9584-8.2176,44.1746-2.3882,5l2.5633-12.5-.1751,7.5zm-6.0287,44.5c-4.234,45.3015-5.1502,3.8528 .9754-8l-.9751,8h-.0003zm15.2561-298c-.2481-18.913-3.0322,18.8631-4.7612-12.5-8.319,11.4526-10.1551,81.1071-17.4073,122.3207-3.3079,24.6073-17.162,112.8512 3.3595,40.8428 16.2076-48.8815 24.4855-99.0977 18.809-150.6635zm-51.3821,664.1203c-31.7191-7.1569-18.7146,6.618-5.6123,10.7816-19.8229,6.0353-34.6386-9.5166-32.7142,19.8548-3.9836-70.8637-5.5819,113.4596-6.933,64.7432-11.584,169.6046-31.8466,339.1427-37.6302,508.6461 .8053,28.9017 5.6574,109.2092 1.0638,97.4342 3.9346-51.6816 11.8194-104.4617 10.7217-155.0566 15.971-51.7278 14.1601-108.757 24.412-162.5237 15.1789-127.2376 32.3395-254.0905 48.8646-381.1532l-2.1723-2.7265zm-30.485,18.1297c-5.3607,16.7456 1.6545-19.8909 0,0zm16.1562-168.7928c-38.8432,5.0888-30.9574,81.8629-42.088,116.6166-9.1593,42.0761 53.7781,32.5472 36.9056-8.687-1.9392-31.6161 21.9866-87.9429 5.1824-107.9296zm3.8289-7.4641c-8.5524-19.4102-9.6964,14.8905 0,0zm-15.0447,155.6338c-57.1586-19.5982-6.6545,24.0582 0,0zm-34.5887-45.6269c-3.7834,11.3136 2.5384,2.2321 0,0zm-7.0781,601c-7.1225,20.4302 2.3538,4.052 0,0zm-.2279-599.75c-1.5562,7.7455 1.6085,1.4871 0,0zm-3.0607-30.7859c-28.401-2.851 12.9664,6.3869 0,0zm.2585-7.6422c-17.5196-2.7352 9.3556,6.5374 0,0zm-.9346,22.2394c-29.2271-4.7477 6.6068,11.3585 0,0zm-.3556-7.9445c-17.5217-2.5392 1.8781,7.172 0,0zm-1.1526,15.9184c-22.8848-5.4111 2.7305,14.0006 0,0zm-5.8157,8.1626c-20.6299,5.033 19.2413,9.6626 0,0zm2.5,10.4325c-30.2018-3.3339 12.0067,14.4505 0,0zm-4.5,8.7079c-24.0221-1.5448 21.1374,12.7002 0,0zm.8318,9.6618c-21.7871-4.649 11.8074,6.6748 0,0zm-3.811,9.3958c.9347,2.2533 3.9596-2.1015 0,0z"
       id="path53" />
  </g>
  <g
     stroke-width="9"
     transform="matrix(.30276 .30276 -.30276 .30276 24.00454 118.85224)"
     id="g55">
    <g
       fill="none"
       stroke="#010101"
       id="g57">
      <path
         d="m583.2,7.2v18.008"
         id="path59" />
      <path
         d="m655.206,7.2v18.008"
         id="path61" />
      <path
         d="m727.197,7.2v18.008"
         id="path63" />
      <path
         d="m799.201,7.2v18.008"
         id="path65" />
      <path
         d="m871.207,7.2v18.008"
         id="path67" />
      <path
         d="m943.198,7.2v18.008"
         id="path69" />
      <path
         d="m1015.204,7.2v18.008"
         id="path71" />
      <path
         d="m1087.209,7.2v18.008"
         id="path73" />
      <path
         d="m511.195,7.2v18.008"
         id="path75" />
      <path
         d="m439.203,7.2v18.008"
         id="path77" />
      <path
         d="m367.199,7.2v18.008"
         id="path79" />
      <path
         d="m295.193,7.2v18.008"
         id="path81" />
      <path
         d="m223.201,7.2v18.008"
         id="path83" />
      <path
         d="m151.197,7.2v18.008"
         id="path85" />
      <path
         d="m79.191,7.2v18.008"
         id="path87" />
      <path
         d="m115.194,7.2v18.008"
         id="path89" />
      <path
         d="m187.2,7.2v18.008"
         id="path91" />
      <path
         d="m259.19,7.2v18.008"
         id="path93" />
      <path
         d="m331.196,7.2v18.008"
         id="path95" />
      <path
         d="m403.2,7.2v18.008"
         id="path97" />
      <path
         d="m475.192,7.2v18.008"
         id="path99" />
      <path
         d="m547.198,7.2v18.008"
         id="path101" />
      <path
         d="m691.208,7.2v18.008"
         id="path103" />
      <path
         d="m619.202,7.2v18.008"
         id="path105" />
      <path
         d="m979.2,7.2v18.008"
         id="path107" />
      <path
         d="m907.21,7.2v18.008"
         id="path109" />
      <path
         d="m835.205,7.2v18.008"
         id="path111" />
      <path
         d="m763.2,7.2v18.008"
         id="path113" />
      <path
         d="m1051.207,7.2v18.008"
         id="path115" />
      <path
         d="m590.397,7.2v10.812"
         id="path117" />
      <path
         d="m597.597,7.2v10.812"
         id="path119" />
      <path
         d="m604.808,7.2v10.812"
         id="path121" />
      <path
         d="m612.006,7.2v10.812"
         id="path123" />
      <path
         d="m683.995,7.2v10.812"
         id="path125" />
      <path
         d="m676.8,7.2v10.812"
         id="path127" />
      <path
         d="m669.601,7.2v10.812"
         id="path129" />
      <path
         d="m662.404,7.2v10.812"
         id="path131" />
      <path
         d="m756.002,7.2v10.812"
         id="path133" />
      <path
         d="m748.803,7.2v10.812"
         id="path135" />
      <path
         d="m741.606,7.2v10.812"
         id="path137" />
      <path
         d="m734.409,7.2v10.812"
         id="path139" />
      <path
         d="m828.007,7.2v10.812"
         id="path141" />
      <path
         d="m820.81,7.2v10.812"
         id="path143" />
      <path
         d="m813.598,7.2v10.812"
         id="path145" />
      <path
         d="m806.399,7.2v10.812"
         id="path147" />
      <path
         d="m899.998,7.2v10.812"
         id="path149" />
      <path
         d="m892.801,7.2v10.812"
         id="path151" />
      <path
         d="m885.603,7.2v10.812"
         id="path153" />
      <path
         d="m878.405,7.2v10.812"
         id="path155" />
      <path
         d="m972.005,7.2v10.812"
         id="path157" />
      <path
         d="m964.806,7.2v10.812"
         id="path159" />
      <path
         d="m957.608,7.2v10.812"
         id="path161" />
      <path
         d="m950.411,7.2v10.812"
         id="path163" />
      <path
         d="m1044.009,7.2v10.812"
         id="path165" />
      <path
         d="m1036.812,7.2v10.812"
         id="path167" />
      <path
         d="m1029.6,7.2v10.812"
         id="path169" />
      <path
         d="m1022.402,7.2v10.812"
         id="path171" />
      <path
         d="m540,7.2v10.812"
         id="path173" />
      <path
         d="m532.802,7.2v10.812"
         id="path175" />
      <path
         d="m525.604,7.2v10.812"
         id="path177" />
      <path
         d="m518.392,7.2v10.812"
         id="path179" />
      <path
         d="m467.995,7.2v10.812"
         id="path181" />
      <path
         d="m460.796,7.2v10.812"
         id="path183" />
      <path
         d="m453.599,7.2v10.812"
         id="path185" />
      <path
         d="m446.401,7.2v10.812"
         id="path187" />
      <path
         d="m396.004,7.2v10.812"
         id="path189" />
      <path
         d="m388.791,7.2v10.812"
         id="path191" />
      <path
         d="m381.594,7.2v10.812"
         id="path193" />
      <path
         d="m374.396,7.2v10.812"
         id="path195" />
      <path
         d="m323.997,7.2v10.812"
         id="path197" />
      <path
         d="m316.8,7.2v10.812"
         id="path199" />
      <path
         d="m309.603,7.2v10.812"
         id="path201" />
      <path
         d="m302.39,7.2v10.812"
         id="path203" />
      <path
         d="m251.991,7.2v10.812"
         id="path205" />
      <path
         d="m244.794,7.2v10.812"
         id="path207" />
      <path
         d="m237.597,7.2v10.812"
         id="path209" />
      <path
         d="m230.399,7.2v10.812"
         id="path211" />
      <path
         d="m180.001,7.2v10.812"
         id="path213" />
      <path
         d="m172.789,7.2v10.812"
         id="path215" />
      <path
         d="m165.592,7.2v10.812"
         id="path217" />
      <path
         d="m158.394,7.2v10.812"
         id="path219" />
      <path
         d="m86.389,7.2v10.812"
         id="path221" />
      <path
         d="m93.6,7.2v10.812"
         id="path223" />
      <path
         d="m100.798,7.2v10.812"
         id="path225" />
      <path
         d="m107.995,7.2v10.812"
         id="path227" />
      <path
         d="m143.999,7.2v10.812"
         id="path229" />
      <path
         d="m136.801,7.2v10.812"
         id="path231" />
      <path
         d="m129.588,7.2v10.812"
         id="path233" />
      <path
         d="m122.39,7.2v10.812"
         id="path235" />
      <path
         d="m194.396,7.2v10.812"
         id="path237" />
      <path
         d="m201.594,7.2v10.812"
         id="path239" />
      <path
         d="m208.792,7.2v10.812"
         id="path241" />
      <path
         d="m215.99,7.2v10.812"
         id="path243" />
      <path
         d="m266.402,7.2v10.812"
         id="path245" />
      <path
         d="m273.6,7.2v10.812"
         id="path247" />
      <path
         d="m280.797,7.2v10.812"
         id="path249" />
      <path
         d="m287.994,7.2v10.812"
         id="path251" />
      <path
         d="m338.393,7.2v10.812"
         id="path253" />
      <path
         d="m345.591,7.2v10.812"
         id="path255" />
      <path
         d="m352.802,7.2v10.812"
         id="path257" />
      <path
         d="m360,7.2v10.812"
         id="path259" />
      <path
         d="m410.398,7.2v10.812"
         id="path261" />
      <path
         d="m417.596,7.2v10.812"
         id="path263" />
      <path
         d="m424.794,7.2v10.812"
         id="path265" />
      <path
         d="m431.99,7.2v10.812"
         id="path267" />
      <path
         d="m482.405,7.2v10.812"
         id="path269" />
      <path
         d="m489.601,7.2v10.812"
         id="path271" />
      <path
         d="m496.8,7.2v10.812"
         id="path273" />
      <path
         d="m503.996,7.2v10.812"
         id="path275" />
      <path
         d="m554.395,7.2v10.812"
         id="path277" />
      <path
         d="m561.593,7.2v10.812"
         id="path279" />
      <path
         d="m568.806,7.2v10.812"
         id="path281" />
      <path
         d="m576.003,7.2v10.812"
         id="path283" />
      <path
         d="m626.4,7.2v10.812"
         id="path285" />
      <path
         d="m633.599,7.2v10.812"
         id="path287" />
      <path
         d="m640.796,7.2v10.812"
         id="path289" />
      <path
         d="m648.009,7.2v10.812"
         id="path291" />
      <path
         d="m698.407,7.2v10.812"
         id="path293" />
      <path
         d="m705.604,7.2v10.812"
         id="path295" />
      <path
         d="m712.802,7.2v10.812"
         id="path297" />
      <path
         d="m719.999,7.2v10.812"
         id="path299" />
      <path
         d="m770.396,7.2v10.812"
         id="path301" />
      <path
         d="m777.609,7.2v10.812"
         id="path303" />
      <path
         d="m784.807,7.2v10.812"
         id="path305" />
      <path
         d="m792.005,7.2v10.812"
         id="path307" />
      <path
         d="m842.403,7.2v10.812"
         id="path309" />
      <path
         d="m849.601,7.2v10.812"
         id="path311" />
      <path
         d="m856.798,7.2v10.812"
         id="path313" />
      <path
         d="m864.011,7.2v10.812"
         id="path315" />
      <path
         d="m914.407,7.2v10.812"
         id="path317" />
      <path
         d="m921.606,7.2v10.812"
         id="path319" />
      <path
         d="m928.802,7.2v10.812"
         id="path321" />
      <path
         d="m936.001,7.2v10.812"
         id="path323" />
      <path
         d="m986.399,7.2v10.812"
         id="path325" />
      <path
         d="m993.612,7.2v10.812"
         id="path327" />
      <path
         d="m1000.809,7.2v10.812"
         id="path329" />
      <path
         d="m1008.006,7.2v10.812"
         id="path331" />
      <path
         d="m1058.405,7.2v10.812"
         id="path333" />
      <path
         d="m1065.603,7.2v10.812"
         id="path335" />
      <path
         d="m1072.8,7.2v10.812"
         id="path337" />
      <path
         d="m1080.012,7.2v10.812"
         id="path339" />
      <path
         d="m93.6,43.202h115.192"
         id="path341" />
      <path
         d="m282.083,79.203h99.511"
         id="path343" />
      <path
         d="m293.039,115.206h88.555"
         id="path345" />
      <path
         d="m309.125,151.208h72.469"
         id="path347" />
      <path
         d="m331.296,187.195h50.298"
         id="path349" />
      <path
         d="m361.402,223.196h20.192"
         id="path351" />
      <path
         d="m396.004,259.198h21.592"
         id="path353" />
      <path
         d="m396.004,223.196h21.592"
         id="path355" />
      <path
         d="m396.004,187.195h21.592"
         id="path357" />
      <path
         d="m396.004,151.208h21.592"
         id="path359" />
      <path
         d="m396.004,115.206h21.592"
         id="path361" />
      <path
         d="m396.004,79.203h21.592"
         id="path363" />
      <path
         d="m396.004,43.202h21.592"
         id="path365" />
      <path
         d="m784.807,223.196h20.192"
         id="path367" />
      <path
         d="m784.807,187.195h50.298"
         id="path369" />
      <path
         d="m784.807,151.208h72.469"
         id="path371" />
      <path
         d="m784.807,115.206h88.556"
         id="path373" />
      <path
         d="m784.807,79.203h99.511"
         id="path375" />
      <path
         d="m784.807,43.202h105.899"
         id="path377" />
      <path
         d="m431.99,259.198h136.815"
         id="path379" />
      <path
         d="m439.203,223.196h129.603"
         id="path381" />
      <path
         d="m431.99,187.195h136.815"
         id="path383" />
      <path
         d="m439.203,151.208h129.603"
         id="path385" />
      <path
         d="m431.99,115.206h136.815"
         id="path387" />
      <path
         d="m439.203,79.203h129.603"
         id="path389" />
      <path
         d="m431.99,43.202h136.815"
         id="path391" />
      <path
         d="m748.803,259.198h21.594"
         id="path393" />
      <path
         d="m748.803,223.196h21.594"
         id="path395" />
      <path
         d="m748.803,187.195h21.594"
         id="path397" />
      <path
         d="m748.803,151.208h21.594"
         id="path399" />
      <path
         d="m748.803,115.206h21.594"
         id="path401" />
      <path
         d="m748.803,79.203h21.594"
         id="path403" />
      <path
         d="m748.803,43.202h21.594"
         id="path405" />
      <path
         d="m597.597,259.198h136.813"
         id="path407" />
      <path
         d="m597.597,223.196h129.601"
         id="path409" />
      <path
         d="m597.597,187.195h136.813"
         id="path411" />
      <path
         d="m597.597,151.208h129.601"
         id="path413" />
      <path
         d="m597.597,115.206h136.813"
         id="path415" />
      <path
         d="m597.597,79.203h129.601"
         id="path417" />
      <path
         d="m597.597,43.202h136.813"
         id="path419" />
      <path
         d="m275.695,43.202h105.899"
         id="path421" />
      <path
         d="m957.608,43.202h115.192"
         id="path423" />
      <path
         d="m583.2,57.596v43.2"
         id="path425" />
      <path
         d="m583.2,201.603v43.201"
         id="path427" />
      <path
         d="m583.2,129.601v43.198"
         id="path429" />
      <path
         d="m540,50.4-21.608,21.606"
         id="path431" />
      <path
         d="m467.995,122.403-21.593,21.593"
         id="path433" />
      <path
         d="m503.996,86.401-21.591,21.606"
         id="path435" />
      <path
         d="m626.4,50.4 21.608,21.606"
         id="path437" />
      <path
         d="m662.404,86.401 21.591,21.606"
         id="path439" />
      <path
         d="m698.407,122.403 21.592,21.593"
         id="path441" />
      <path
         d="m396.004,36.005h14.395"
         id="path443" />
      <path
         d="m396.004,28.806h14.395"
         id="path445" />
      <path
         d="m396.004,50.4h14.395"
         id="path447" />
      <path
         d="m396.004,57.596h14.395"
         id="path449" />
      <path
         d="m396.004,64.809h14.395"
         id="path451" />
      <path
         d="m396.004,72.006h14.395"
         id="path453" />
      <path
         d="m396.004,108.007h14.395"
         id="path455" />
      <path
         d="m396.004,100.796h14.395"
         id="path457" />
      <path
         d="m396.004,93.599h14.395"
         id="path459" />
      <path
         d="m396.004,86.401h14.395"
         id="path461" />
      <path
         d="m396.004,122.403h14.395"
         id="path463" />
      <path
         d="m396.004,129.601h14.395"
         id="path465" />
      <path
         d="m396.004,136.798h14.395"
         id="path467" />
      <path
         d="m396.004,143.996h14.395"
         id="path469" />
      <path
         d="m396.004,179.998h14.395"
         id="path471" />
      <path
         d="m396.004,172.799h14.395"
         id="path473" />
      <path
         d="m396.004,165.603h14.395"
         id="path475" />
      <path
         d="m396.004,158.404h14.395"
         id="path477" />
      <path
         d="m396.004,215.999h14.395"
         id="path479" />
      <path
         d="m396.004,208.801h14.395"
         id="path481" />
      <path
         d="m396.004,201.603h14.395"
         id="path483" />
      <path
         d="m396.004,194.406h14.395"
         id="path485" />
      <path
         d="m396.004,252h14.395"
         id="path487" />
      <path
         d="m396.004,244.804h14.395"
         id="path489" />
      <path
         d="m396.004,237.605h14.395"
         id="path491" />
      <path
         d="m396.004,230.395h14.395"
         id="path493" />
      <path
         d="m756.002,230.395h14.395"
         id="path495" />
      <path
         d="m756.002,237.605h14.395"
         id="path497" />
      <path
         d="m756.002,244.804h14.395"
         id="path499" />
      <path
         d="m756.002,252h14.395"
         id="path501" />
      <path
         d="m756.002,194.406h14.395"
         id="path503" />
      <path
         d="m756.002,201.603h14.395"
         id="path505" />
      <path
         d="m756.002,208.801h14.395"
         id="path507" />
      <path
         d="m756.002,215.999h14.395"
         id="path509" />
      <path
         d="m756.002,158.404h14.395"
         id="path511" />
      <path
         d="m756.002,165.603h14.395"
         id="path513" />
      <path
         d="m756.002,172.799h14.395"
         id="path515" />
      <path
         d="m756.002,179.998h14.395"
         id="path517" />
      <path
         d="m756.002,143.996h14.395"
         id="path519" />
      <path
         d="m756.002,136.798h14.395"
         id="path521" />
      <path
         d="m756.002,129.601h14.395"
         id="path523" />
      <path
         d="m756.002,122.403h14.395"
         id="path525" />
      <path
         d="m756.002,86.401h14.395"
         id="path527" />
      <path
         d="m756.002,93.599h14.395"
         id="path529" />
      <path
         d="m756.002,100.796h14.395"
         id="path531" />
      <path
         d="m756.002,108.007h14.395"
         id="path533" />
      <path
         d="m756.002,72.006h14.395"
         id="path535" />
      <path
         d="m756.002,64.809h14.395"
         id="path537" />
      <path
         d="m756.002,57.596h14.395"
         id="path539" />
      <path
         d="m756.002,50.4h14.395"
         id="path541" />
      <path
         d="m756.002,36.005h14.395"
         id="path543" />
      <path
         d="m756.002,28.806h14.395"
         id="path545" />
      <path
         d="m583.2,324.004v21.594"
         id="path547" />
      <path
         d="m583.2,388.795v50.397"
         id="path549" />
      <path
         d="m588.735,323.946 .246,14.41"
         id="path551" />
      <path
         d="m594.257,323.802 .506,14.395"
         id="path553" />
      <path
         d="m599.778,323.571 .751,14.381"
         id="path555" />
      <path
         d="m605.3,323.224 1.01,14.366"
         id="path557" />
      <path
         d="m577.666,323.946-.247,14.41"
         id="path559" />
      <path
         d="m572.144,323.802-.506,14.395"
         id="path561" />
      <path
         d="m566.622,323.571-.751,14.381"
         id="path563" />
      <path
         d="m561.103,323.224-1.013,14.366"
         id="path565" />
      <path
         d="m610.806,322.791 1.894,21.519"
         id="path567" />
      <path
         d="m616.312,322.269 1.504,14.31"
         id="path569" />
      <path
         d="m621.806,321.635 1.763,14.293"
         id="path571" />
      <path
         d="m627.297,320.912 1.995,14.266"
         id="path573" />
      <path
         d="m632.761,320.102 2.254,14.222"
         id="path575" />
      <path
         d="m638.208,319.191 3.758,21.261"
         id="path577" />
      <path
         d="m643.644,318.18 2.761,14.135"
         id="path579" />
      <path
         d="m649.063,317.082 2.992,14.077"
         id="path581" />
      <path
         d="m654.469,315.881 3.237,14.034"
         id="path583" />
      <path
         d="m659.845,314.596 3.483,13.961"
         id="path585" />
      <path
         d="m665.193,313.208 5.593,20.854"
         id="path587" />
      <path
         d="m670.526,311.734 3.959,13.831"
         id="path589" />
      <path
         d="m675.831,310.159 4.205,13.773"
         id="path591" />
      <path
         d="m681.092,308.496 4.451,13.688"
         id="path593" />
      <path
         d="m686.337,306.733 4.698,13.63"
         id="path595" />
      <path
         d="m691.556,304.898 7.385,20.292"
         id="path597" />
      <path
         d="m696.73,302.961 5.157,13.441"
         id="path599" />
      <path
         d="m701.875,300.938 5.392,13.339"
         id="path601" />
      <path
         d="m706.99,298.813 5.624,13.254"
         id="path603" />
      <path
         d="m712.05,296.616 5.869,13.152"
         id="path605" />
      <path
         d="m717.095,294.318 9.119,19.569"
         id="path607" />
      <path
         d="m722.081,291.933 6.315,12.949"
         id="path609" />
      <path
         d="m727.024,289.477 6.531,12.82"
         id="path611" />
      <path
         d="m731.937,286.918 6.75,12.719"
         id="path613" />
      <path
         d="m736.794,284.273 6.98,12.604"
         id="path615" />
      <path
         d="m741.606,281.556 10.797,18.702"
         id="path617" />
      <path
         d="m746.362,278.753 7.414,12.343"
         id="path619" />
      <path
         d="m751.073,275.863 7.632,12.211"
         id="path621" />
      <path
         d="m755.742,272.885 7.848,12.083"
         id="path623" />
      <path
         d="m760.353,269.835 8.051,11.939"
         id="path625" />
      <path
         d="m764.905,266.714 12.4,17.689"
         id="path627" />
      <path
         d="m769.415,263.49 8.454,11.65"
         id="path629" />
      <path
         d="m773.851,260.211 8.672,11.503"
         id="path631" />
      <path
         d="m778.245,256.843 8.859,11.345"
         id="path633" />
      <path
         d="m782.567,253.403 9.063,11.186"
         id="path635" />
      <path
         d="m786.831,249.89 13.888,16.535"
         id="path637" />
      <path
         d="m791.037,246.292 9.451,10.868"
         id="path639" />
      <path
         d="m795.183,242.636 9.643,10.694"
         id="path641" />
      <path
         d="m799.26,238.893 9.813,10.537"
         id="path643" />
      <path
         d="m803.264,235.091 10.016,10.348"
         id="path645" />
      <path
         d="m807.208,231.217 15.279,15.263"
         id="path647" />
      <path
         d="m811.081,227.273 10.365,10.001"
         id="path649" />
      <path
         d="m814.897,223.254 10.522,9.828"
         id="path651" />
      <path
         d="m818.628,219.178 10.709,9.64"
         id="path653" />
      <path
         d="m822.299,215.045 10.868,9.436"
         id="path655" />
      <path
         d="m825.882,210.84 16.549,13.874"
         id="path657" />
      <path
         d="m829.409,206.576 11.188,9.061"
         id="path659" />
      <path
         d="m832.85,202.24 11.345,8.874"
         id="path661" />
      <path
         d="m836.217,197.86 11.49,8.658"
         id="path663" />
      <path
         d="m839.497,193.409 11.649,8.47"
         id="path665" />
      <path
         d="m842.706,188.915 17.691,12.385"
         id="path667" />
      <path
         d="m845.843,184.348 11.938,8.064"
         id="path669" />
      <path
         d="m848.892,179.737 12.083,7.85"
         id="path671" />
      <path
         d="m851.869,175.083 12.213,7.633"
         id="path673" />
      <path
         d="m854.76,170.372 12.343,7.415"
         id="path675" />
      <path
         d="m857.563,165.603 18.703,10.796"
         id="path677" />
      <path
         d="m860.282,160.791 12.587,6.98"
         id="path679" />
      <path
         d="m862.927,155.934 12.703,6.763"
         id="path681" />
      <path
         d="m865.47,151.034 12.834,6.533"
         id="path683" />
      <path
         d="m867.942,146.076 12.936,6.316"
         id="path685" />
      <path
         d="m870.325,141.09 19.569,9.119"
         id="path687" />
      <path
         d="m872.608,136.06 13.168,5.854"
         id="path689" />
      <path
         d="m874.821,130.988 13.254,5.621"
         id="path691" />
      <path
         d="m876.931,125.872 13.355,5.405"
         id="path693" />
      <path
         d="m878.956,120.742 13.455,5.158"
         id="path695" />
      <path
         d="m880.892,115.551 20.307,7.387"
         id="path697" />
      <path
         d="m882.74,110.349 13.615,4.684"
         id="path699" />
      <path
         d="m884.505,105.103 13.688,4.451"
         id="path701" />
      <path
         d="m886.166,99.827 13.76,4.206"
         id="path703" />
      <path
         d="m887.728,94.524 13.846,3.974"
         id="path705" />
      <path
         d="m889.202,89.191 20.869,5.594"
         id="path707" />
      <path
         d="m890.589,83.843 13.977,3.483"
         id="path709" />
      <path
         d="m891.89,78.467 14.02,3.236"
         id="path711" />
      <path
         d="m893.075,73.075 14.092,2.993"
         id="path713" />
      <path
         d="m894.188,67.656 14.136,2.747"
         id="path715" />
      <path
         d="m895.185,62.222 21.274,3.744"
         id="path717" />
      <path
         d="m896.096,56.758 14.236,2.255"
         id="path719" />
      <path
         d="m896.919,51.294 14.266,2.011"
         id="path721" />
      <path
         d="m897.644,45.817 14.293,1.75"
         id="path723" />
      <path
         d="m898.263,40.325 14.324,1.503"
         id="path725" />
      <path
         d="m898.799,34.82 21.521,1.878"
         id="path727" />
      <path
         d="m555.594,322.791-1.893,21.519"
         id="path729" />
      <path
         d="m550.088,322.269-1.503,14.31"
         id="path731" />
      <path
         d="m544.597,321.635-1.765,14.293"
         id="path733" />
      <path
         d="m539.104,320.912-1.995,14.266"
         id="path735" />
      <path
         d="m533.641,320.102-2.255,14.222"
         id="path737" />
      <path
         d="m528.192,319.191-3.758,21.261"
         id="path739" />
      <path
         d="m522.757,318.18-2.761,14.135"
         id="path741" />
      <path
         d="m517.337,317.082-2.992,14.077"
         id="path743" />
      <path
         d="m511.932,315.881-3.238,14.034"
         id="path745" />
      <path
         d="m506.556,314.596-3.483,13.961"
         id="path747" />
      <path
         d="m501.207,313.208-5.593,20.854"
         id="path749" />
      <path
         d="m495.874,311.734-3.959,13.831"
         id="path751" />
      <path
         d="m490.569,310.159-4.206,13.773"
         id="path753" />
      <path
         d="m485.309,308.496-4.451,13.688"
         id="path755" />
      <path
         d="m480.063,306.733-4.698,13.63"
         id="path757" />
      <path
         d="m474.845,304.898-7.385,20.292"
         id="path759" />
      <path
         d="m469.67,302.961-5.158,13.441"
         id="path761" />
      <path
         d="m464.525,300.938-5.391,13.339"
         id="path763" />
      <path
         d="m459.41,298.813-5.623,13.254"
         id="path765" />
      <path
         d="m454.351,296.616-5.867,13.152"
         id="path767" />
      <path
         d="m449.306,294.318-9.119,19.569"
         id="path769" />
      <path
         d="m444.319,291.933-6.315,12.949"
         id="path771" />
      <path
         d="m439.377,289.477-6.533,12.82"
         id="path773" />
      <path
         d="m434.462,286.918-6.75,12.719"
         id="path775" />
      <path
         d="m429.607,284.273-6.981,12.604"
         id="path777" />
      <path
         d="m424.794,281.556-10.796,18.702"
         id="path779" />
      <path
         d="m420.039,278.753-7.414,12.343"
         id="path781" />
      <path
         d="m415.327,275.863-7.631,12.211"
         id="path783" />
      <path
         d="m410.659,272.885-7.848,12.083"
         id="path785" />
      <path
         d="m406.049,269.835-8.051,11.939"
         id="path787" />
      <path
         d="m401.495,266.714-12.4,17.689"
         id="path789" />
      <path
         d="m396.986,263.49-8.455,11.65"
         id="path791" />
      <path
         d="m392.548,260.211-8.672,11.503"
         id="path793" />
      <path
         d="m388.156,256.843-8.861,11.345"
         id="path795" />
      <path
         d="m383.833,253.403-9.063,11.186"
         id="path797" />
      <path
         d="m379.57,249.89-13.89,16.535"
         id="path799" />
      <path
         d="m375.363,246.292-9.451,10.868"
         id="path801" />
      <path
         d="m371.216,242.636-9.641,10.694"
         id="path803" />
      <path
         d="m367.141,238.893-9.813,10.537"
         id="path805" />
      <path
         d="m363.137,235.091-10.016,10.348"
         id="path807" />
      <path
         d="m359.192,231.217-15.278,15.263"
         id="path809" />
      <path
         d="m355.317,227.273-10.363,10.001"
         id="path811" />
      <path
         d="m351.502,223.254-10.522,9.828"
         id="path813" />
      <path
         d="m347.773,219.178-10.71,9.64"
         id="path815" />
      <path
         d="m344.102,215.045-10.869,9.436"
         id="path817" />
      <path
         d="m340.517,210.84-16.548,13.874"
         id="path819" />
      <path
         d="m336.991,206.576-11.187,9.061"
         id="path821" />
      <path
         d="m333.551,202.24-11.346,8.874"
         id="path823" />
      <path
         d="m330.184,197.86-11.49,8.658"
         id="path825" />
      <path
         d="m326.902,193.409-11.648,8.47"
         id="path827" />
      <path
         d="m323.694,188.915-17.69,12.385"
         id="path829" />
      <path
         d="m320.557,184.348-11.938,8.064"
         id="path831" />
      <path
         d="m317.507,179.737-12.082,7.85"
         id="path833" />
      <path
         d="m314.531,175.083-12.213,7.633"
         id="path835" />
      <path
         d="m311.64,170.372-12.343,7.415"
         id="path837" />
      <path
         d="m308.835,165.603-18.701,10.796"
         id="path839" />
      <path
         d="m306.119,160.791-12.588,6.98"
         id="path841" />
      <path
         d="m303.474,155.934-12.705,6.763"
         id="path843" />
      <path
         d="m300.931,151.034-12.834,6.533"
         id="path845" />
      <path
         d="m298.458,146.076-12.936,6.316"
         id="path847" />
      <path
         d="m296.074,141.09-19.568,9.119"
         id="path849" />
      <path
         d="m293.792,136.06-13.167,5.854"
         id="path851" />
      <path
         d="m291.58,130.988-13.254,5.621"
         id="path853" />
      <path
         d="m289.469,125.872-13.355,5.405"
         id="path855" />
      <path
         d="m287.445,120.742-13.455,5.158"
         id="path857" />
      <path
         d="m285.509,115.551-20.307,7.387"
         id="path859" />
      <path
         d="m283.659,110.349-13.615,4.684"
         id="path861" />
      <path
         d="m281.896,105.103-13.687,4.451"
         id="path863" />
      <path
         d="m280.232,99.827-13.758,4.206"
         id="path865" />
      <path
         d="m278.673,94.524-13.846,3.974"
         id="path867" />
      <path
         d="m277.198,89.191-20.871,5.594"
         id="path869" />
      <path
         d="m275.811,83.843-13.977,3.483"
         id="path871" />
      <path
         d="m274.51,78.467-14.019,3.236"
         id="path873" />
      <path
         d="m273.325,73.075-14.092,2.993"
         id="path875" />
      <path
         d="m272.212,67.656-14.135,2.747"
         id="path877" />
      <path
         d="m271.215,62.222-21.275,3.744"
         id="path879" />
      <path
         d="m270.305,56.758-14.236,2.255"
         id="path881" />
      <path
         d="m269.481,51.294-14.266,2.011"
         id="path883" />
      <path
         d="m268.757,45.817-14.293,1.75"
         id="path885" />
      <path
         d="m268.137,40.325-14.323,1.503"
         id="path887" />
      <path
         d="m267.602,34.82-21.521,1.878"
         id="path889" />
      <path
         d="m827.573,251.581 20.364,20.365"
         id="path891" />
      <path
         d="m592.726,552.618 .361,20.696"
         id="path893" />
      <path
         d="m601.932,543.411 .707,20.35"
         id="path895" />
      <path
         d="m610.834,534.494 1.056,20.019"
         id="path897" />
      <path
         d="m619.464,525.866 1.387,19.686"
         id="path899" />
      <path
         d="m627.021,508.131 2.516,28.719"
         id="path901" />
      <path
         d="m635.982,509.362 1.995,19.047"
         id="path903" />
      <path
         d="m643.888,501.44 2.299,18.761"
         id="path905" />
      <path
         d="m651.577,493.752 2.602,18.469"
         id="path907" />
      <path
         d="m659.078,486.265 2.878,18.181"
         id="path909" />
      <path
         d="m649.468,383 20.075,113.857"
         id="path911" />
      <path
         d="m673.519,471.826 3.425,17.634"
         id="path913" />
      <path
         d="m680.483,464.861 3.686,17.372"
         id="path915" />
      <path
         d="m687.292,458.053 3.945,17.112"
         id="path917" />
      <path
         d="m693.956,451.39 4.205,16.853"
         id="path919" />
      <path
         d="m698.319,436.837 6.605,24.642"
         id="path921" />
      <path
         d="m706.862,438.471 4.696,16.372"
         id="path923" />
      <path
         d="m713.134,432.199 4.929,16.128"
         id="path925" />
      <path
         d="m719.29,426.04 5.175,15.898"
         id="path927" />
      <path
         d="m725.347,420 5.391,15.667"
         id="path929" />
      <path
         d="m713.712,365.788 23.197,63.707"
         id="path931" />
      <path
         d="m737.141,408.206 5.84,15.219"
         id="path933" />
      <path
         d="m742.894,402.438 6.056,15.004"
         id="path935" />
      <path
         d="m748.572,396.773 6.274,14.786"
         id="path937" />
      <path
         d="m754.167,391.182 6.488,14.566"
         id="path939" />
      <path
         d="m756.435,378.708 9.944,21.317"
         id="path941" />
      <path
         d="m765.137,380.21 6.894,14.149"
         id="path943" />
      <path
         d="m770.513,374.821 7.111,13.961"
         id="path945" />
      <path
         d="m775.847,369.502 7.298,13.744"
         id="path947" />
      <path
         d="m781.106,364.227 7.516,13.556"
         id="path949" />
      <path
         d="m773.996,337.676 20.032,34.688"
         id="path951" />
      <path
         d="m791.483,353.849 7.906,13.152"
         id="path953" />
      <path
         d="m796.614,348.733 8.095,12.949"
         id="path955" />
      <path
         d="m801.688,343.646 8.296,12.775"
         id="path957" />
      <path
         d="m806.731,338.601 8.484,12.573"
         id="path959" />
      <path
         d="m807.556,327.603 12.863,18.384"
         id="path961" />
      <path
         d="m816.719,328.615 8.876,12.198"
         id="path963" />
      <path
         d="m821.676,323.657 9.05,12.025"
         id="path965" />
      <path
         d="m826.605,318.745 9.236,11.821"
         id="path967" />
      <path
         d="m831.506,313.831 9.422,11.633"
         id="path969" />
      <path
         d="m828.485,299.521 17.516,20.87"
         id="path971" />
      <path
         d="m841.275,304.075 9.784,11.259"
         id="path973" />
      <path
         d="m846.131,299.204 9.973,11.085"
         id="path975" />
      <path
         d="m850.987,294.362 10.16,10.897"
         id="path977" />
      <path
         d="m855.831,289.505 10.348,10.724"
         id="path979" />
      <path
         d="m855.584,279.576 15.623,15.625"
         id="path981" />
      <path
         d="m865.513,279.822 10.71,10.349"
         id="path983" />
      <path
         d="m870.355,274.98 10.911,10.161"
         id="path985" />
      <path
         d="m875.212,270.124 11.086,9.988"
         id="path987" />
      <path
         d="m880.067,265.269 11.273,9.798"
         id="path989" />
      <path
         d="m875.53,252.492 20.869,17.517"
         id="path991" />
      <path
         d="m889.837,255.513 11.637,9.423"
         id="path993" />
      <path
         d="m894.737,250.599 11.822,9.234"
         id="path995" />
      <path
         d="m899.666,245.67 12.01,9.047"
         id="path997" />
      <path
         d="m904.624,240.728 12.197,8.859"
         id="path999" />
      <path
         d="m903.612,231.551 18.369,12.862"
         id="path1001" />
      <path
         d="m914.61,230.74 12.573,8.484"
         id="path1003" />
      <path
         d="m919.655,225.698 12.761,8.28"
         id="path1005" />
      <path
         d="m924.728,220.609 12.965,8.108"
         id="path1007" />
      <path
         d="m929.858,215.493 13.152,7.906"
         id="path1009" />
      <path
         d="m913.685,198.005 34.688,20.031"
         id="path1011" />
      <path
         d="m940.235,205.102 13.558,7.515"
         id="path1013" />
      <path
         d="m945.495,199.84 13.761,7.313"
         id="path1015" />
      <path
         d="m950.83,194.522 13.948,7.097"
         id="path1017" />
      <path
         d="m956.206,189.131 14.165,6.908"
         id="path1019" />
      <path
         d="m954.718,180.445 21.305,9.93"
         id="path1021" />
      <path
         d="m967.175,178.162 14.585,6.489"
         id="path1023" />
      <path
         d="m972.785,172.568 14.784,6.272"
         id="path1025" />
      <path
         d="m978.45,166.889 15.002,6.07"
         id="path1027" />
      <path
         d="m984.218,161.136 15.217,5.839"
         id="path1029" />
      <path
         d="m941.796,137.723 63.71,23.183"
         id="path1031" />
      <path
         d="m996.01,149.343 15.668,5.391"
         id="path1033" />
      <path
         d="m1002.052,143.288 15.898,5.173"
         id="path1035" />
      <path
         d="m1008.208,137.146 16.131,4.928"
         id="path1037" />
      <path
         d="m1014.481,130.873 16.361,4.684"
         id="path1039" />
      <path
         d="m1012.834,122.316 24.642,6.604"
         id="path1041" />
      <path
         d="m1027.388,117.951 16.867,4.206"
         id="path1043" />
      <path
         d="m1034.051,111.29 17.112,3.944"
         id="path1045" />
      <path
         d="m1040.858,104.481 17.372,3.687"
         id="path1047" />
      <path
         d="m1047.825,97.515 17.631,3.426"
         id="path1049" />
      <path
         d="m959.011,73.466 113.848,20.074"
         id="path1051" />
      <path
         d="m1062.264,83.077 18.183,2.875"
         id="path1053" />
      <path
         d="m1069.765,75.591 18.455,2.587"
         id="path1055" />
      <path
         d="m1077.454,67.887 18.759,2.312"
         id="path1057" />
      <path
         d="m1085.359,59.982 19.065,2.008"
         id="path1059" />
      <path
         d="m1084.132,51.035 28.732,2.516"
         id="path1061" />
      <path
         d="m1101.879,43.477 19.685,1.372"
         id="path1063" />
      <path
         d="m1110.509,34.833 20.017,1.056"
         id="path1065" />
      <path
         d="m1119.411,25.93 20.365,.709"
         id="path1067" />
      <path
         d="m1128.618,16.724 20.711,.361"
         id="path1069" />
      <path
         d="m1159.2,7.2"
         id="path1071" />
      <path
         d="m964.806,7.2"
         id="path1073" />
      <path
         d="m583.2,467.997v50.396"
         id="path1075" />
      <path
         d="m583.2,540v43.2"
         id="path1077" />
      <path
         d="m338.826,251.581-20.364,20.365"
         id="path1079" />
      <path
         d="m573.675,552.618-.362,20.696"
         id="path1081" />
      <path
         d="m564.47,543.411-.708,20.35"
         id="path1083" />
      <path
         d="m555.567,534.494-1.056,20.019"
         id="path1085" />
      <path
         d="m546.937,525.866-1.387,19.686"
         id="path1087" />
      <path
         d="m539.379,508.131-2.516,28.719"
         id="path1089" />
      <path
         d="m530.418,509.362-1.995,19.047"
         id="path1091" />
      <path
         d="m522.512,501.44-2.298,18.761"
         id="path1093" />
      <path
         d="m514.823,493.752-2.602,18.469"
         id="path1095" />
      <path
         d="m507.32,486.265-2.875,18.181"
         id="path1097" />
      <path
         d="m516.932,383-20.075,113.857"
         id="path1099" />
      <path
         d="m492.882,471.826-3.425,17.634"
         id="path1101" />
      <path
         d="m485.917,464.861-3.686,17.372"
         id="path1103" />
      <path
         d="m479.108,458.053-3.946,17.112"
         id="path1105" />
      <path
         d="m472.445,451.39-4.205,16.853"
         id="path1107" />
      <path
         d="m468.081,436.837-6.605,24.642"
         id="path1109" />
      <path
         d="m459.539,438.471-4.696,16.372"
         id="path1111" />
      <path
         d="m453.267,432.199-4.929,16.128"
         id="path1113" />
      <path
         d="m447.108,426.04-5.173,15.898"
         id="path1115" />
      <path
         d="m441.053,420-5.391,15.667"
         id="path1117" />
      <path
         d="m452.688,365.788-23.197,63.707"
         id="path1119" />
      <path
         d="m429.26,408.206-5.84,15.219"
         id="path1121" />
      <path
         d="m423.507,402.438-6.056,15.004"
         id="path1123" />
      <path
         d="m417.827,396.773-6.273,14.786"
         id="path1125" />
      <path
         d="m412.233,391.182-6.489,14.566"
         id="path1127" />
      <path
         d="m409.965,378.708-9.944,21.317"
         id="path1129" />
      <path
         d="m401.264,380.21-6.894,14.149"
         id="path1131" />
      <path
         d="m395.888,374.821-7.111,13.961"
         id="path1133" />
      <path
         d="m390.553,369.502-7.298,13.744"
         id="path1135" />
      <path
         d="m385.293,364.227-7.516,13.556"
         id="path1137" />
      <path
         d="m392.404,337.676-20.033,34.688"
         id="path1139" />
      <path
         d="m374.917,353.849-7.907,13.152"
         id="path1141" />
      <path
         d="m369.785,348.733-8.094,12.949"
         id="path1143" />
      <path
         d="m364.712,343.646-8.296,12.775"
         id="path1145" />
      <path
         d="m359.668,338.601-8.484,12.573"
         id="path1147" />
      <path
         d="m358.844,327.603-12.863,18.384"
         id="path1149" />
      <path
         d="m349.681,328.615-8.875,12.198"
         id="path1151" />
      <path
         d="m344.723,323.657-9.048,12.025"
         id="path1153" />
      <path
         d="m339.794,318.745-9.235,11.821"
         id="path1155" />
      <path
         d="m334.895,313.831-9.422,11.633"
         id="path1157" />
      <path
         d="m337.916,299.521-17.518,20.87"
         id="path1159" />
      <path
         d="m325.125,304.075-9.786,11.259"
         id="path1161" />
      <path
         d="m320.269,299.204-9.972,11.085"
         id="path1163" />
      <path
         d="m315.413,294.362-10.161,10.897"
         id="path1165" />
      <path
         d="m310.57,289.505-10.348,10.724"
         id="path1167" />
      <path
         d="m310.816,279.576-15.623,15.625"
         id="path1169" />
      <path
         d="m300.887,279.822-10.709,10.349"
         id="path1171" />
      <path
         d="m296.045,274.98-10.911,10.161"
         id="path1173" />
      <path
         d="m291.188,270.124-11.085,9.988"
         id="path1175" />
      <path
         d="m286.333,265.269-11.273,9.798"
         id="path1177" />
      <path
         d="m290.871,252.492-20.869,17.517"
         id="path1179" />
      <path
         d="m276.562,255.513-11.635,9.423"
         id="path1181" />
      <path
         d="m271.663,250.599-11.822,9.234"
         id="path1183" />
      <path
         d="m266.734,245.67-12.009,9.047"
         id="path1185" />
      <path
         d="m261.777,240.728-12.199,8.859"
         id="path1187" />
      <path
         d="m262.789,231.551-18.37,12.862"
         id="path1189" />
      <path
         d="m251.79,230.74-12.575,8.484"
         id="path1191" />
      <path
         d="m246.745,225.698-12.762,8.28"
         id="path1193" />
      <path
         d="m241.672,220.609-12.964,8.108"
         id="path1195" />
      <path
         d="m236.542,215.493-13.152,7.906"
         id="path1197" />
      <path
         d="m252.714,198.005-34.688,20.031"
         id="path1199" />
      <path
         d="m226.165,205.102-13.559,7.515"
         id="path1201" />
      <path
         d="m220.904,199.84-13.759,7.313"
         id="path1203" />
      <path
         d="m215.571,194.522-13.948,7.097"
         id="path1205" />
      <path
         d="m210.193,189.131-14.164,6.908"
         id="path1207" />
      <path
         d="m211.682,180.445-21.304,9.93"
         id="path1209" />
      <path
         d="m199.224,178.162-14.583,6.489"
         id="path1211" />
      <path
         d="m193.615,172.568-14.784,6.272"
         id="path1213" />
      <path
         d="m187.95,166.889-15.002,6.07"
         id="path1215" />
      <path
         d="m182.183,161.136-15.218,5.839"
         id="path1217" />
      <path
         d="m224.604,137.723-63.71,23.183"
         id="path1219" />
      <path
         d="m170.389,149.343-15.666,5.391"
         id="path1221" />
      <path
         d="m164.349,143.288-15.898,5.173"
         id="path1223" />
      <path
         d="m158.192,137.146-16.13,4.928"
         id="path1225" />
      <path
         d="m151.919,130.873-16.362,4.684"
         id="path1227" />
      <path
         d="m153.566,122.316-24.642,6.604"
         id="path1229" />
      <path
         d="m139.012,117.951-16.867,4.206"
         id="path1231" />
      <path
         d="m132.35,111.29-17.112,3.944"
         id="path1233" />
      <path
         d="m125.542,104.481-17.374,3.687"
         id="path1235" />
      <path
         d="m118.575,97.515-17.633,3.426"
         id="path1237" />
      <path
         d="m207.39,73.466-113.848,20.075"
         id="path1239" />
      <path
         d="m104.137,83.077-18.182,2.875"
         id="path1241" />
      <path
         d="m96.636,75.591-18.458,2.587"
         id="path1243" />
      <path
         d="m88.947,67.887-18.76,2.312"
         id="path1245" />
      <path
         d="m81.042,59.982-19.066,2.008"
         id="path1247" />
      <path
         d="m82.269,51.035-28.732,2.515"
         id="path1249" />
      <path
         d="m64.52,43.477-19.684,1.372"
         id="path1251" />
      <path
         d="m55.892,34.833-20.017,1.057"
         id="path1253" />
      <path
         d="m46.988,25.93-20.363,.71"
         id="path1255" />
      <path
         d="m37.782,16.724-20.71,.361"
         id="path1257" />
    </g>
    <g
       fill="none"
       stroke="#010101"
       id="g1309">
      <path
         d="m583.2,7.2"
         id="path1311" />
      <path
         d="m649.464,383.002"
         id="path1313" />
    </g>
    <g
       fill="none"
       stroke="#010101"
       id="g1321">
      <path
         d="m583.2,7.2"
         id="path1323" />
      <path
         d="m713.716,365.787"
         id="path1325" />
    </g>
    <g
       fill="none"
       stroke="#010101"
       id="g1333">
      <path
         d="m583.2,7.2"
         id="path1335" />
      <path
         d="m774.001,337.675"
         id="path1337" />
    </g>
    <g
       fill="none"
       stroke="#010101"
       id="g1345">
      <path
         d="m583.2,7.2"
         id="path1347" />
      <path
         d="m828.488,299.522"
         id="path1349" />
    </g>
    <g
       fill="none"
       stroke="#010101"
       id="g1357">
      <path
         d="m583.2,7.2"
         id="path1359" />
      <path
         d="m875.522,252.487"
         id="path1361" />
    </g>
    <g
       fill="none"
       stroke="#010101"
       id="g1369">
      <path
         d="m583.2,7.2"
         id="path1371" />
      <path
         d="m913.675,198"
         id="path1373" />
    </g>
    <g
       fill="none"
       stroke="#010101"
       id="g1381">
      <path
         d="m583.2,7.2"
         id="path1383" />
      <path
         d="m941.786,137.714"
         id="path1385" />
    </g>
    <g
       fill="none"
       stroke="#010101"
       id="g1393">
      <path
         d="m583.2,7.2"
         id="path1395" />
      <path
         d="m959.003,73.463"
         id="path1397" />
    </g>
    <g
       fill="none"
       stroke="#010101"
       id="g1405">
      <path
         d="m583.2,7.2"
         id="path1407" />
      <path
         d="m516.936,383.002"
         id="path1409" />
    </g>
    <g
       fill="none"
       stroke="#010101"
       id="g1417">
      <path
         d="m583.2,7.2"
         id="path1419" />
      <path
         d="m452.685,365.787"
         id="path1421" />
    </g>
    <g
       fill="none"
       stroke="#010101"
       id="g1429">
      <path
         d="m583.2,7.2"
         id="path1431" />
      <path
         d="m392.4,337.675"
         id="path1433" />
    </g>
    <g
       fill="none"
       stroke="#010101"
       id="g1441">
      <path
         d="m583.2,7.2"
         id="path1443" />
      <path
         d="m337.912,299.523"
         id="path1445" />
    </g>
    <g
       fill="none"
       stroke="#010101"
       id="g1453">
      <path
         d="m583.2,7.2"
         id="path1455" />
      <path
         d="m290.877,252.488"
         id="path1457" />
    </g>
    <g
       fill="none"
       stroke="#010101"
       id="g1465">
      <path
         d="m583.2,7.2"
         id="path1467" />
      <path
         d="m252.724,198"
         id="path1469" />
    </g>
    <g
       fill="none"
       stroke="#010101"
       id="g1477">
      <path
         d="m583.2,7.2"
         id="path1479" />
      <path
         d="m224.613,137.714"
         id="path1481" />
    </g>
    <g
       fill="none"
       stroke="#010101"
       id="g1489">
      <path
         d="m583.2,7.2"
         id="path1491" />
      <path
         d="m207.397,73.463"
         id="path1493" />
      <path
         d="m7.2,7.2 1152,0-576,576z"
         id="path1495" />
    </g>
  </g>
</svg>
