<svg xmlns="http://www.w3.org/2000/svg" viewBox="0 0 512 512"><defs><linearGradient gradientTransform="matrix(15.43669 -2.54761 9.8771 17.21451 -1223.96 -401.07)" id="d" y1="19.812" x1="46" y2="22.625" gradientUnits="userSpaceOnUse" x2="47.688"><stop stop-color="#c1c1c1"/><stop offset="1" stop-color="#acacac"/></linearGradient><linearGradient gradientTransform="matrix(15.4626 -2.57417 9.89368 17.39398 -1225.07 -403.8)" id="a" y1="17.376" x1="48.906" y2="22.251" gradientUnits="userSpaceOnUse" x2="50.988"><stop stop-color="#ffd1d1"/><stop offset=".5" stop-color="#ff1d1d"/><stop offset="1" stop-color="#6f0000"/></linearGradient><linearGradient gradientTransform="matrix(18.88841 -3.15688 12.0857 21.33137 -1367.42 -524.79)" id="c" y1="31.05" x1="25.719" y2="30.703" gradientUnits="userSpaceOnUse" x2="25.515"><stop/><stop offset="1" stop-color="#c9c9c9"/></linearGradient><radialGradient cx="29.05" cy="27.641" gradientTransform="matrix(46.1688 -7.4794 20.50917 35.0875 -2394.52 -749.7)" id="b" r="3.241" gradientUnits="userSpaceOnUse"><stop stop-color="#e7e2b8"/><stop offset="1" stop-color="#e7e2b8" stop-opacity="0"/></radialGradient></defs><g fill-rule="evenodd"><path stroke="#fff" stroke-width="16" d="m424 488h64v-64l-64 64z" fill="#fff"/><path fill="#cb0422" stroke="#5c410c" stroke-width="15.181" d="m-532.99 88.59l29.579-106.63 202.29-210.1c35.774-28.583 107.27 43.05 80.47 76.912l-204.88 203.76-107.46 36.06z" transform="rotate(-89.22 73.605 -176.844) scale(.62833)"/><path fill="url(#a)" d="m-346.85-169.19c0 0 23.15-2.07 44.22 18.225 21.701 20.908 26.28 46.2 26.28 46.2l53.37-55.893c0 0 13.732-19.07-17.988-51.15-31.29-31.647-52.995-13.194-52.995-13.194l-52.888 55.812" transform="rotate(-89.22 73.605 -176.844) scale(.62833)"/><path fill="url(#b)" d="m-523.16 76.24l25.594-89.3c31.898 10.208 57.813 31.439 67.19 59.49l-92.78 29.815" transform="rotate(-89.22 73.605 -176.844) scale(.62833)"/><path fill="url(#c)" d="m-511.92 38.602l-11.432 39.13 40.493-14.06c-4.555-16.02-16.383-22.07-29.06-25.06" transform="rotate(-89.22 73.605 -176.844) scale(.62833)"/><g fill-opacity=".364"><path fill="#fdb620" d="m-497.09-13.52l33.08 15.762 156.29-158.45c-14.486-13.05-28.26-14.875-38.648-14.541l-150.72 157.23" transform="rotate(-89.22 73.605 -176.844) scale(.62833)"/><path d="m-431.51 47.791l-4.269-12.843 155.78-154.95c0 0 4.124 10.402 3.849 12.901l-155.36 154.89" transform="rotate(-89.22 73.605 -176.844) scale(.62833)"/></g><path fill="url(#d)" d="m-347.2-168.88c0 0 23.12-2.048 44.15 18.04 21.665 20.692 26.24 45.726 26.24 45.726l20.996-22.31c0 0-.26-24.811-23.17-46.821-23.538-22.616-47.21-16.941-47.21-16.941l-20.996 22.31" transform="rotate(-89.22 73.605 -176.844) scale(.62833)"/></g><path d="m 28.910754,131.35056 v 347.6791 H 376.58985 Z m 69.53583,167.87453 V 409.49383 H 208.71532 Z" fill="#fff" fill-rule="evenodd" stroke="#fff" stroke-width="2.897" stroke-linecap="round" stroke-linejoin="round"/><g fill="#fff" fill-rule="evenodd"><path d="m -218.57159,-130.37448 a 3.7795274,3.7795274 0 0 1 -3.77953,3.77953 3.7795274,3.7795274 0 0 1 -3.77953,-3.77953 3.7795274,3.7795274 0 0 1 3.77953,-3.77953 3.7795274,3.7795274 0 0 1 3.77953,3.77953 z m 7.55905,0 a 11.338582,11.338582 0 0 1 -11.33858,11.33858 11.338582,11.338582 0 0 1 -11.33858,-11.33858 11.338582,11.338582 0 0 1 11.33858,-11.33858 11.338582,11.338582 0 0 1 11.33858,11.33858 z" transform="matrix(2.9328 0 0 -2.9328 1058.23 -290.497)"/><path d="m -202.46778,203.69392 -2.48542,19.57228 -1.86406,0.31068 -13.17279,-79.03559 a 14.362204,14.362204 0 0 0 7.10287,-3.36378 z m -39.76668,0 2.48542,19.57228 1.86406,0.31068 13.17279,-79.03559 a 14.362204,14.362204 0 0 1 -7.10287,-3.36378 z m 16.10381,-92.21707 v 5.04151 a 14.362204,14.362204 0 0 1 7.55906,0 v -5.04151 a 3.77953,3.77953 0 0 0 -7.55906,0" transform="translate(1058.23 -290.497) scale(2.9328)"/></g></svg>