<svg xmlns="http://www.w3.org/2000/svg" viewBox="0 0 512 512"><defs><linearGradient gradientTransform="matrix(15.43669-2.54761 9.8771 17.21451-1223.96-401.07)" id="1" y1="19.812" x1="46" y2="22.625" gradientUnits="userSpaceOnUse" x2="47.688"><stop stop-color="#c1c1c1"/><stop offset="1" stop-color="#acacac"/></linearGradient><linearGradient gradientTransform="matrix(15.4626-2.57417 9.89368 17.39398-1225.07-403.8)" id="2" y1="17.376" x1="48.906" y2="22.251" gradientUnits="userSpaceOnUse" x2="50.988"><stop stop-color="#ffd1d1"/><stop offset=".5" stop-color="#ff1d1d"/><stop offset="1" stop-color="#6f0000"/></linearGradient><linearGradient gradientTransform="matrix(18.88841-3.15688 12.0857 21.33137-1367.42-524.79)" id="0" y1="31.05" x1="25.719" y2="30.703" gradientUnits="userSpaceOnUse" x2="25.515"><stop/><stop offset="1" stop-color="#c9c9c9"/></linearGradient><radialGradient cx="29.05" cy="27.641" gradientTransform="matrix(46.1688-7.4794 20.50917 35.0875-2394.52-749.7)" id="3" r="3.241" gradientUnits="userSpaceOnUse"><stop stop-color="#e7e2b8"/><stop offset="1" stop-color="#e7e2b8" stop-opacity="0"/></radialGradient></defs><g fill-rule="evenodd"><path stroke="#fff" stroke-width="16" d="m424 488h64v-64l-64 64z" fill="#fff"/><g transform="matrix(.00855-.62827.62827.00855 249.43-100.84)"><path fill="#cb0422" stroke="#5c410c" stroke-width="15.181" d="m-532.99 88.59l29.579-106.63 202.29-210.1c35.774-28.583 107.27 43.05 80.47 76.912l-204.88 203.76-107.46 36.06z"/><path fill="url(#2)" d="m-346.85-169.19c0 0 23.15-2.07 44.22 18.225 21.701 20.908 26.28 46.2 26.28 46.2l53.37-55.893c0 0 13.732-19.07-17.988-51.15-31.29-31.647-52.995-13.194-52.995-13.194l-52.888 55.812"/><path fill="url(#3)" d="m-523.16 76.24l25.594-89.3c31.898 10.208 57.813 31.439 67.19 59.49l-92.78 29.815"/><path fill="url(#0)" d="m-511.92 38.602l-11.432 39.13 40.493-14.06c-4.555-16.02-16.383-22.07-29.06-25.06"/><g fill-opacity=".364"><path fill="#fdb620" d="m-497.09-13.52l33.08 15.762 156.29-158.45c-14.486-13.05-28.26-14.875-38.648-14.541l-150.72 157.23"/><path d="m-431.51 47.791l-4.269-12.843 155.78-154.95c0 0 4.124 10.402 3.849 12.901l-155.36 154.89"/></g><path fill="url(#1)" d="m-347.2-168.88c0 0 23.12-2.048 44.15 18.04 21.665 20.692 26.24 45.726 26.24 45.726l20.996-22.31c0 0-.26-24.811-23.17-46.821-23.538-22.616-47.21-16.941-47.21-16.941l-20.996 22.31"/></g></g><g fill="#ccc" stroke="#fff" stroke-width="12.557"><path d="m1283.92 701.76c-30.596 26.308-20.679-67.871-32.549-4.244-25.633 33.17-7.05 91.06-8.314 139.45 7.72 137.01 17.997 274.03 22.943 411.09-2.109 54.942-.281 115.61-2.259 172.97-4.234 75.46-17.837-47.14-18.927-71.02-25.15-250.42-52.1-501.56-75.71-751.36-18.571-159.23-32.786-319.27-48.861-478.97-37.714-59.807-30.3 39.957-37.651 66.24-39.16 304.39-76.83 608.91-115.53 913.27-13.977 115.15-26.969 231.42-41.906 346.06-13.09-33.584-2.151-90.95-6.835-133.21 2.544-47.26 2.496-94.67 7.599-144.54 11.6-151.12 23.853-301.96 37.26-452.71-18.974-3.485-18.5-71.6-29.12-18.788-29.686 40.743-18.319-46.743-12.461-65.5 11.01-39.18 30.689 4.354 22.957 21.969 15.727-44.666 26.739-94.08 42.44-132.97 21.488-173.52 43.04-347.02 63.65-520.54-30.22-27.14-9.455-97.78 18.359-98.17 6.657 30.3 79.944-11.767 83.991 46.788 6.881 52.16 1.361-43.578 8.535 8.227-5.727 47.23 3.385-4.507 6.04-4.234-1.056 26.01-6.04 39.848-14.14 36.451 21.39 11.11 23.885-95.32-29.23-94.02-22.336-6.296-77.61 9.844-25.77-8.389 54.908-6.574 97.12 59.6 65.79 105.75 15.399 183.15 35.09 365.78 53.902 548.74 18.39 24.525 24.947 97.41 40.04 107.47-10.442-53.02 36.01-19.223 23.291 15.423-.946 12.643 4.221 26.568 2.469 38.751zm-11.06-10.07c-11.71 2.486 14.11-.158 0 0zm2.557-7.786c-19.05 2.873 6.799 5.088 0 0zm-.168-8.01c-20.628 4.441 8.695 8.676 0 0zm-2.5-8.774c-22.05 7.339 15.507 7.49 0 0zm-2-7.419c-15.982 7.697 14.162 4.052 0 0zm1.783-7.818c-18.09 1.387 4.202 9.846 0 0zm-.992-7.538c-18.361.029 6.771 8.28 0 0zm-1.318-7.649c-22.367 3.894 11.678 4.341 0 0zm-1.953-5.791c.935 2.253 3.96-2.101 0 0zm-3.771.604c-5.247 2.374 5.282.865 0 0zm-5.107 26.582c-15.01-7.946 4.34 14.602 0 0zm-1.301 737.17c-6.504-22.21 3.421 54.05 0 0zm-.867-19.75c-10.242-20.765 3.533 27.664 0 0zm-1.187-43.2c-2.086-53.28 2.944-104.76-1.122-158.07-6.754-95.52-9.135-190.97-17.406-285.73-6.459-54.43-.446-111.65-12.195-164.43-1.324 3.289.528 21.354-6.318 2.723-.664-.326-18.643 4.407-25.929-11.325 48.533-11.302-32.857-15.242-4.062 20.993 15.545 170.3 33.27 340.63 53.972 510.31 6.837 38.438 4.455 81.7 11.771 121.73-.023-11.888 3.547-24.412 1.288-36.19zm-12.605-687.51c-11.947-22.12-12.511-116.43-44.978-78.942 9.249 42.03 5.355 101.11 19.947 134.44 45.816-3.089-.651-3.264-2.554 10.962 40.786 9.06 30.09-42.856 27.585-66.46zm-1.094 619.46c-1.623 5.507 1.75.999 0 0zm-34.463-590.25c-6.477-56.932-20.662-113.2-1.616-167.2-10.551-89.16-16.749-179.04-28.335-267.91-19.532-50.44-33.858-103.64-37.08-157.6-42.01 18.972-4.707 92.41-4.174 127.22 59.749 24.709 37.27 105 50.32 155.92 3.514 53.743 14.953 107.31 13.582 161.12-30.13 33.53-34.14 65.31-22.964 111.4 5.131 24.19-3.88 93.57 32.436 58.19l-.714-8.261-1.45-12.874zm2.325-127.5c-9.08 3.843 3.661 11.09 0 0zm-13.455-55.635c-10.52-83.49-12.67-168.83-29.396-251.09-23.06-26.515-38.1-15.971-32.978-12.37 11.73 106.76 20.11 214.56 34.688 320.56 4.912 37.03 43.53-44.28 27.686-57.1zm-22.19-299.87c-9.981-29.546 1.142-119.57-22.03-113.55 3.689 48.803 7.792 91.23 17.969 112.39 4.105 17.354-11.405-16.992 1.768 13.863 6.535 34.06 4 2.45 2.29-12.706zm-8.554-13c-3.585-3.844 3.704-2.563 0 0zm-6.531-139.46c-4.455-57.857-15.977 73.92 1.27 13.984l-.621-6.563-.649-7.421zm-2.153 108.77c-1.432 4.383 1.925.434 0 0zm-2.924-18.813c-4.543-25.54-8.174-80.53-4.812-21.12-.53 12.582 11.364 57.04 4.812 21.12zm.02-157.07c-3.956 15.766 4.294-10.429 0 0zm-8.693 53.11c-19.891 15.592-21.475 79.68-3.828 32.566-1.331-1.546 13.261-48.18 3.828-32.566zm-1.619-27.348c-20.86-15.394 16.242 19.501 0 0zm1.306-57.44c-17.219-40.592-61.919-24.323-78.19-6.42-30.336 46.859 46.598 92.42 70.65 46.67 12.747-8.194 10.541-27.688 7.546-40.25zm-28.29 20.329c-31.857 33.07-28.3-44.591.796-9.223l.524 4.434-1.32 4.789zm-4.622-12.52c-41.41-8.229 10.05 39.628 0 0zm31.06 63.942c-29.968 44.704-109.43-43.767-82.927 24.5 12.138 73.54-14.848 144.56-36.84 213.14-11.319 91.89-23.583 183.82-32.484 275.95 25.331 47.694-2.97 103.22-3 154.7-3.977 50.659 39.662 2.236 27.804-28.787 7.637-47.838 18.204-89.97-19.08-124.86 1.716-72.75 16.91-145.73 23.25-218.62-2.518-45.32 16.371-93.18 52.703-109.03 10.594-45.23-2.107-109.44 45.47-126.5 2.96-22.24 15.01-41.494 25.12-60.5zm-7.272-1.184c-34.795 17.327 19.47-6.938 0 0zm.718-6.816c-7.234 4.836 7.108-2.571 0 0zm-9.5 55c-5.555 16.06 5.249-8.604 0 0zm-1.175-49.12c-4.576 3.643 7.378-2.714 0 0zm-10.501 2.483c-25.27 6.985 25.395-3.736 0 0zm3.501-6.483c-4.409 3.702 7.128-2.966 0 0zm-1.492 93.62c-24.512-35.25 6.247 38.835 0 0zm-6.106-80.47c-27.596-1.343-9.815-17.741-.074-11.388-43.14.966-66.917-51.962-45.895-82.29-38.558-16.436-29.93 85.964 15.647 91.02 3.186 6.315 54.811 2.631 30.32 2.649zm-22.662-9.03c-14.15-2.272 2.315-6.471 0 0zm14.13 3.02c-4.317.853 7.544 2.819 0 0zm-33.764-91.59c-30.935-31.911 15.961 23.885 0 0zm-.864 299.88c-7.213 21.65-10.09 47.2-6.05 4.801-5.676-7.569-17.211 101.37-10.529 33.888 4.121-75.21-11.599 51.26-14.29 73.65-6.212 46.541-11.566 96.11-19.898 140.55 8.03-81.24 22.917-162.29 29.24-243.61-17.744 93.03-24.04 188.36-39.668 281.89-.468-38.505 11.833-92.64 15.248-136.94 4.243-31.26 17.962-138.06 13.06-123.08-11.225 88.93-22.87 177.99-32.378 267.07-2.855 26.942 35.753 59.61 28.22 11.265 11.356-103.66 25.764-207.09 38.19-310.55l-1.145 1.06zm-19.659 74.19c-2.482 26.958-8.218 44.17-2.388 5l2.563-12.5-.175 7.5zm-6.03 44.5c-4.234 45.3-5.15 3.853.975-8l-.975 8zm15.256-298c-.248-18.913-3.03 18.863-4.761-12.5-8.319 11.453-10.155 81.11-17.407 122.32-3.308 24.607-17.16 112.85 3.36 40.843 16.208-48.882 24.486-99.1 18.809-150.66zm-51.38 664.12c-31.719-7.157-18.715 6.618-5.612 10.782-19.823 6.04-34.639-9.517-32.714 19.855-3.984-70.864-5.582 113.46-6.933 64.743-11.584 169.6-31.847 339.14-37.63 508.65.805 28.902 5.657 109.21 1.064 97.43 3.935-51.682 11.819-104.46 10.722-155.06 15.971-51.728 14.16-108.76 24.412-162.52 15.179-127.24 32.34-254.09 48.865-381.15l-2.172-2.726zm-30.485 18.13c-5.361 16.746 1.654-19.891 0 0zm16.16-168.79c-38.843 5.089-30.957 81.86-42.09 116.62-9.159 42.08 53.778 32.547 36.906-8.687-1.939-31.616 21.987-87.94 5.182-107.93zm3.829-7.464c-8.552-19.41-9.696 14.89 0 0zm-15.04 155.63c-57.16-19.598-6.654 24.06 0 0zm-34.589-45.627c-3.783 11.314 2.538 2.232 0 0zm-7.078 601c-7.122 20.43 2.354 4.052 0 0zm-.228-599.75c-1.556 7.745 1.609 1.487 0 0zm-3.061-30.786c-28.401-2.851 12.966 6.387 0 0zm.259-7.642c-17.52-2.735 9.356 6.537 0 0zm-.935 22.24c-29.23-4.748 6.607 11.359 0 0zm-.356-7.944c-17.522-2.539 1.878 7.172 0 0zm-1.153 15.918c-22.885-5.411 2.731 14 0 0zm-5.816 8.163c-20.63 5.03 19.241 9.663 0 0zm2.5 10.433c-30.2-3.334 12.01 14.451 0 0zm-4.5 8.708c-24.02-1.545 21.14 12.7 0 0zm.832 9.662c-21.787-4.649 11.807 6.675 0 0zm-3.811 9.396c.935 2.253 3.96-2.101 0 0z" transform="matrix(.2387 0 0 .2387 149.48 67.3)"/></g><g stroke-width="9" transform="matrix(.30276.30276-.30276.30276 24 118.85)"><g fill="none" stroke="#fff"><path d="m583.2 7.2v18.01"/><path d="m655.21 7.2v18.01"/><path d="m727.2 7.2v18.01"/><path d="m799.2 7.2v18.01"/><path d="m871.21 7.2v18.01"/><path d="m943.2 7.2v18.01"/><path d="m1015.2 7.2v18.01"/><path d="m1087.21 7.2v18.01"/><path d="m511.19 7.2v18.01"/><path d="m439.2 7.2v18.01"/><path d="m367.2 7.2v18.01"/><path d="m295.19 7.2v18.01"/><path d="m223.2 7.2v18.01"/><path d="m151.2 7.2v18.01"/><path d="m79.19 7.2v18.01"/><path d="m115.19 7.2v18.01"/><path d="m187.2 7.2v18.01"/><path d="m259.19 7.2v18.01"/><path d="m331.2 7.2v18.01"/><path d="m403.2 7.2v18.01"/><path d="m475.19 7.2v18.01"/><path d="m547.2 7.2v18.01"/><path d="m691.21 7.2v18.01"/><path d="m619.2 7.2v18.01"/><path d="m979.2 7.2v18.01"/><path d="m907.21 7.2v18.01"/><path d="m835.21 7.2v18.01"/><path d="m763.2 7.2v18.01"/><path d="m1051.21 7.2v18.01"/><path d="m590.4 7.2v10.812"/><path d="m597.6 7.2v10.812"/><path d="m604.81 7.2v10.812"/><path d="m612.01 7.2v10.812"/><path d="m684 7.2v10.812"/><path d="m676.8 7.2v10.812"/><path d="m669.6 7.2v10.812"/><path d="m662.4 7.2v10.812"/><path d="m756 7.2v10.812"/><path d="m748.8 7.2v10.812"/><path d="m741.61 7.2v10.812"/><path d="m734.41 7.2v10.812"/><path d="m828.01 7.2v10.812"/><path d="m820.81 7.2v10.812"/><path d="m813.6 7.2v10.812"/><path d="m806.4 7.2v10.812"/><path d="m900 7.2v10.812"/><path d="m892.8 7.2v10.812"/><path d="m885.6 7.2v10.812"/><path d="m878.4 7.2v10.812"/><path d="m972 7.2v10.812"/><path d="m964.81 7.2v10.812"/><path d="m957.61 7.2v10.812"/><path d="m950.41 7.2v10.812"/><path d="m1044.01 7.2v10.812"/><path d="m1036.81 7.2v10.812"/><path d="m1029.6 7.2v10.812"/><path d="m1022.4 7.2v10.812"/><path d="m540 7.2v10.812"/><path d="m532.8 7.2v10.812"/><path d="m525.6 7.2v10.812"/><path d="m518.39 7.2v10.812"/><path d="m468 7.2v10.812"/><path d="m460.8 7.2v10.812"/><path d="m453.6 7.2v10.812"/><path d="m446.4 7.2v10.812"/><path d="m396 7.2v10.812"/><path d="m388.79 7.2v10.812"/><path d="m381.59 7.2v10.812"/><path d="m374.4 7.2v10.812"/><path d="m324 7.2v10.812"/><path d="m316.8 7.2v10.812"/><path d="m309.6 7.2v10.812"/><path d="m302.39 7.2v10.812"/><path d="m251.99 7.2v10.812"/><path d="m244.79 7.2v10.812"/><path d="m237.6 7.2v10.812"/><path d="m230.4 7.2v10.812"/><path d="m180 7.2v10.812"/><path d="m172.79 7.2v10.812"/><path d="m165.59 7.2v10.812"/><path d="m158.39 7.2v10.812"/><path d="m86.39 7.2v10.812"/><path d="m93.6 7.2v10.812"/><path d="m100.8 7.2v10.812"/><path d="m108 7.2v10.812"/><path d="m144 7.2v10.812"/><path d="m136.8 7.2v10.812"/><path d="m129.59 7.2v10.812"/><path d="m122.39 7.2v10.812"/><path d="m194.4 7.2v10.812"/><path d="m201.59 7.2v10.812"/><path d="m208.79 7.2v10.812"/><path d="m215.99 7.2v10.812"/><path d="m266.4 7.2v10.812"/><path d="m273.6 7.2v10.812"/><path d="m280.8 7.2v10.812"/><path d="m287.99 7.2v10.812"/><path d="m338.39 7.2v10.812"/><path d="m345.59 7.2v10.812"/><path d="m352.8 7.2v10.812"/><path d="m360 7.2v10.812"/><path d="m410.4 7.2v10.812"/><path d="m417.6 7.2v10.812"/><path d="m424.79 7.2v10.812"/><path d="m431.99 7.2v10.812"/><path d="m482.4 7.2v10.812"/><path d="m489.6 7.2v10.812"/><path d="m496.8 7.2v10.812"/><path d="m504 7.2v10.812"/><path d="m554.39 7.2v10.812"/><path d="m561.59 7.2v10.812"/><path d="m568.81 7.2v10.812"/><path d="m576 7.2v10.812"/><path d="m626.4 7.2v10.812"/><path d="m633.6 7.2v10.812"/><path d="m640.8 7.2v10.812"/><path d="m648.01 7.2v10.812"/><path d="m698.41 7.2v10.812"/><path d="m705.6 7.2v10.812"/><path d="m712.8 7.2v10.812"/><path d="m720 7.2v10.812"/><path d="m770.4 7.2v10.812"/><path d="m777.61 7.2v10.812"/><path d="m784.81 7.2v10.812"/><path d="m792 7.2v10.812"/><path d="m842.4 7.2v10.812"/><path d="m849.6 7.2v10.812"/><path d="m856.8 7.2v10.812"/><path d="m864.01 7.2v10.812"/><path d="m914.41 7.2v10.812"/><path d="m921.61 7.2v10.812"/><path d="m928.8 7.2v10.812"/><path d="m936 7.2v10.812"/><path d="m986.4 7.2v10.812"/><path d="m993.61 7.2v10.812"/><path d="m1000.81 7.2v10.812"/><path d="m1008.01 7.2v10.812"/><path d="m1058.4 7.2v10.812"/><path d="m1065.6 7.2v10.812"/><path d="m1072.8 7.2v10.812"/><path d="m1080.01 7.2v10.812"/><path d="m93.6 43.2h115.19"/><path d="m282.08 79.2h99.51"/><path d="m293.04 115.21h88.56"/><path d="m309.13 151.21h72.47"/><path d="m331.3 187.19h50.3"/><path d="m361.4 223.2h20.19"/><path d="m396 259.2h21.592"/><path d="m396 223.2h21.592"/><path d="m396 187.19h21.592"/><path d="m396 151.21h21.592"/><path d="m396 115.21h21.592"/><path d="m396 79.2h21.592"/><path d="m396 43.2h21.592"/><path d="m784.81 223.2h20.19"/><path d="m784.81 187.19h50.3"/><path d="m784.81 151.21h72.47"/><path d="m784.81 115.21h88.56"/><path d="m784.81 79.2h99.51"/><path d="m784.81 43.2h105.9"/><path d="m431.99 259.2h136.82"/><path d="m439.2 223.2h129.6"/><path d="m431.99 187.19h136.82"/><path d="m439.2 151.21h129.6"/><path d="m431.99 115.21h136.82"/><path d="m439.2 79.2h129.6"/><path d="m431.99 43.2h136.82"/><path d="m748.8 259.2h21.594"/><path d="m748.8 223.2h21.594"/><path d="m748.8 187.19h21.594"/><path d="m748.8 151.21h21.594"/><path d="m748.8 115.21h21.594"/><path d="m748.8 79.2h21.594"/><path d="m748.8 43.2h21.594"/><path d="m597.6 259.2h136.81"/><path d="m597.6 223.2h129.6"/><path d="m597.6 187.19h136.81"/><path d="m597.6 151.21h129.6"/><path d="m597.6 115.21h136.81"/><path d="m597.6 79.2h129.6"/><path d="m597.6 43.2h136.81"/><path d="m275.69 43.2h105.9"/><path d="m957.61 43.2h115.19"/><path d="m583.2 57.6v43.2"/><path d="m583.2 201.6v43.2"/><path d="m583.2 129.6v43.2"/><path d="m540,50.4-21.608,21.606"/><path d="m468 122.4l-21.593 21.593"/><path d="m504 86.4l-21.591 21.606"/><path d="m626.4 50.4l21.608 21.606"/><path d="m662.4 86.4l21.591 21.606"/><path d="m698.41 122.4l21.592 21.593"/><path d="m396 36.01h14.395"/><path d="m396 28.806h14.395"/><path d="m396 50.4h14.395"/><path d="m396 57.6h14.395"/><path d="m396 64.809h14.395"/><path d="m396 72.01h14.395"/><path d="m396 108.01h14.395"/><path d="m396 100.8h14.395"/><path d="m396 93.6h14.395"/><path d="m396 86.4h14.395"/><path d="m396 122.4h14.395"/><path d="m396 129.6h14.395"/><path d="m396 136.8h14.395"/><path d="m396 144h14.395"/><path d="m396 180h14.395"/><path d="m396 172.8h14.395"/><path d="m396 165.6h14.395"/><path d="m396 158.4h14.395"/><path d="m396 216h14.395"/><path d="m396 208.8h14.395"/><path d="m396 201.6h14.395"/><path d="m396 194.41h14.395"/><path d="m396 252h14.395"/><path d="m396 244.8h14.395"/><path d="m396 237.6h14.395"/><path d="m396 230.4h14.395"/><path d="m756 230.4h14.395"/><path d="m756 237.6h14.395"/><path d="m756 244.8h14.395"/><path d="m756 252h14.395"/><path d="m756 194.41h14.395"/><path d="m756 201.6h14.395"/><path d="m756 208.8h14.395"/><path d="m756 216h14.395"/><path d="m756 158.4h14.395"/><path d="m756 165.6h14.395"/><path d="m756 172.8h14.395"/><path d="m756 180h14.395"/><path d="m756 144h14.395"/><path d="m756 136.8h14.395"/><path d="m756 129.6h14.395"/><path d="m756 122.4h14.395"/><path d="m756 86.4h14.395"/><path d="m756 93.6h14.395"/><path d="m756 100.8h14.395"/><path d="m756 108.01h14.395"/><path d="m756 72.01h14.395"/><path d="m756 64.809h14.395"/><path d="m756 57.6h14.395"/><path d="m756 50.4h14.395"/><path d="m756 36.01h14.395"/><path d="m756 28.806h14.395"/><path d="m583.2 324v21.594"/><path d="m583.2 388.8v50.4"/><path d="m588.74 323.95l.246 14.41"/><path d="m594.26 323.8l.506 14.395"/><path d="m599.78 323.57l.751 14.381"/><path d="m605.3 323.22l1.01 14.366"/><path d="m577.67 323.95l-.247 14.41"/><path d="m572.14 323.8l-.506 14.395"/><path d="m566.62 323.57l-.751 14.381"/><path d="m561.1 323.22l-1.013 14.366"/><path d="m610.81 322.79l1.894 21.519"/><path d="m616.31 322.27l1.504 14.31"/><path d="m621.81 321.63l1.763 14.293"/><path d="m627.3 320.91l1.995 14.266"/><path d="m632.76 320.1l2.254 14.222"/><path d="m638.21 319.19l3.758 21.261"/><path d="m643.64 318.18l2.761 14.13"/><path d="m649.06 317.08l2.992 14.08"/><path d="m654.47 315.88l3.237 14.03"/><path d="m659.85 314.6l3.483 13.961"/><path d="m665.19 313.21l5.593 20.854"/><path d="m670.53 311.73l3.959 13.831"/><path d="m675.83 310.16l4.205 13.773"/><path d="m681.09 308.5l4.451 13.688"/><path d="m686.34 306.73l4.698 13.63"/><path d="m691.56 304.9l7.385 20.292"/><path d="m696.73 302.96l5.157 13.441"/><path d="m701.88 300.94l5.392 13.339"/><path d="m706.99 298.81l5.624 13.254"/><path d="m712.05 296.62l5.869 13.152"/><path d="m717.1 294.32l9.119 19.569"/><path d="m722.08 291.93l6.315 12.949"/><path d="m727.02 289.48l6.531 12.82"/><path d="m731.94 286.92l6.75 12.719"/><path d="m736.79 284.27l6.98 12.604"/><path d="m741.61 281.56l10.797 18.702"/><path d="m746.36 278.75l7.414 12.343"/><path d="m751.07 275.86l7.632 12.211"/><path d="m755.74 272.88l7.848 12.08"/><path d="m760.35 269.83l8.05 11.939"/><path d="m764.9 266.71l12.4 17.689"/><path d="m769.41 263.49l8.454 11.65"/><path d="m773.85 260.21l8.672 11.503"/><path d="m778.25 256.84l8.859 11.345"/><path d="m782.57 253.4l9.06 11.186"/><path d="m786.83 249.89l13.888 16.535"/><path d="m791.04 246.29l9.451 10.868"/><path d="m795.18 242.64l9.643 10.694"/><path d="m799.26 238.89l9.813 10.537"/><path d="m803.26 235.09l10.02 10.348"/><path d="m807.21 231.22l15.279 15.263"/><path d="m811.08 227.27l10.365 10"/><path d="m814.9 223.25l10.522 9.828"/><path d="m818.63 219.18l10.709 9.64"/><path d="m822.3 215.04l10.868 9.436"/><path d="m825.88 210.84l16.549 13.874"/><path d="m829.41 206.58l11.188 9.06"/><path d="m832.85 202.24l11.345 8.874"/><path d="m836.22 197.86l11.49 8.658"/><path d="m839.5 193.41l11.649 8.47"/><path d="m842.71 188.91l17.691 12.385"/><path d="m845.84 184.35l11.938 8.06"/><path d="m848.89 179.74l12.08 7.85"/><path d="m851.87 175.08l12.213 7.633"/><path d="m854.76 170.37l12.343 7.415"/><path d="m857.56 165.6l18.703 10.796"/><path d="m860.28 160.79l12.587 6.98"/><path d="m862.93 155.93l12.703 6.763"/><path d="m865.47 151.03l12.834 6.533"/><path d="m867.94 146.08l12.936 6.316"/><path d="m870.33 141.09l19.569 9.119"/><path d="m872.61 136.06l13.168 5.854"/><path d="m874.82 130.99l13.254 5.621"/><path d="m876.93 125.87l13.355 5.405"/><path d="m878.96 120.74l13.455 5.158"/><path d="m880.89 115.55l20.307 7.387"/><path d="m882.74 110.35l13.615 4.684"/><path d="m884.5 105.1l13.688 4.451"/><path d="m886.17 99.83l13.76 4.206"/><path d="m887.73 94.52l13.846 3.974"/><path d="m889.2 89.19l20.869 5.594"/><path d="m890.59 83.84l13.977 3.483"/><path d="m891.89 78.47l14.02 3.236"/><path d="m893.08 73.08l14.09 2.993"/><path d="m894.19 67.66l14.14 2.747"/><path d="m895.18 62.22l21.274 3.744"/><path d="m896.1 56.758l14.236 2.255"/><path d="m896.92 51.29l14.266 2.01"/><path d="m897.64 45.817l14.293 1.75"/><path d="m898.26 40.33l14.324 1.503"/><path d="m898.8 34.82l21.521 1.878"/><path d="m555.59 322.79l-1.893 21.519"/><path d="m550.09 322.27l-1.503 14.31"/><path d="m544.6 321.63l-1.765 14.293"/><path d="m539.1 320.91l-1.995 14.266"/><path d="m533.64 320.1l-2.255 14.222"/><path d="m528.19 319.19l-3.758 21.261"/><path d="m522.76 318.18l-2.761 14.13"/><path d="m517.34 317.08l-2.992 14.08"/><path d="m511.93 315.88l-3.238 14.03"/><path d="m506.56 314.6l-3.483 13.961"/><path d="m501.21 313.21l-5.593 20.854"/><path d="m495.87 311.73l-3.959 13.831"/><path d="m490.57 310.16l-4.206 13.773"/><path d="m485.31 308.5l-4.451 13.688"/><path d="m480.06 306.73l-4.698 13.63"/><path d="m474.85 304.9l-7.385 20.292"/><path d="m469.67 302.96l-5.158 13.441"/><path d="m464.52 300.94l-5.391 13.339"/><path d="m459.41 298.81l-5.623 13.254"/><path d="m454.35 296.62l-5.867 13.152"/><path d="m449.31 294.32l-9.119 19.569"/><path d="m444.32 291.93l-6.315 12.949"/><path d="m439.38 289.48l-6.533 12.82"/><path d="m434.46 286.92l-6.75 12.719"/><path d="m429.61 284.27l-6.981 12.604"/><path d="m424.79 281.56l-10.796 18.702"/><path d="m420.04 278.75l-7.414 12.343"/><path d="m415.33 275.86l-7.631 12.211"/><path d="m410.66 272.88l-7.848 12.08"/><path d="m406.05 269.83l-8.05 11.939"/><path d="m401.5 266.71l-12.4 17.689"/><path d="m396.99 263.49l-8.455 11.65"/><path d="m392.55 260.21l-8.672 11.503"/><path d="m388.16 256.84l-8.861 11.345"/><path d="m383.83 253.4l-9.06 11.186"/><path d="m379.57,249.89-13.89,16.535"/><path d="m375.36 246.29l-9.451 10.868"/><path d="m371.22 242.64l-9.641 10.694"/><path d="m367.14 238.89l-9.813 10.537"/><path d="m363.14 235.09l-10.02 10.348"/><path d="m359.19 231.22l-15.278 15.263"/><path d="m355.32 227.27l-10.363 10"/><path d="m351.5 223.25l-10.522 9.828"/><path d="m347.77 219.18l-10.71 9.64"/><path d="m344.1 215.04l-10.869 9.436"/><path d="m340.52 210.84l-16.548 13.874"/><path d="m336.99 206.58l-11.187 9.06"/><path d="m333.55 202.24l-11.346 8.874"/><path d="m330.18 197.86l-11.49 8.658"/><path d="m326.9 193.41l-11.648 8.47"/><path d="m323.69 188.91l-17.69 12.385"/><path d="m320.56 184.35l-11.938 8.06"/><path d="m317.51 179.74l-12.08 7.85"/><path d="m314.53 175.08l-12.213 7.633"/><path d="m311.64 170.37l-12.343 7.415"/><path d="m308.83 165.6l-18.701 10.796"/><path d="m306.12 160.79l-12.588 6.98"/><path d="m303.47 155.93l-12.705 6.763"/><path d="m300.93 151.03l-12.834 6.533"/><path d="m298.46 146.08l-12.936 6.316"/><path d="m296.07 141.09l-19.568 9.119"/><path d="m293.79 136.06l-13.167 5.854"/><path d="m291.58 130.99l-13.254 5.621"/><path d="m289.47 125.87l-13.355 5.405"/><path d="m287.44 120.74l-13.455 5.158"/><path d="m285.51 115.55l-20.307 7.387"/><path d="m283.66 110.35l-13.615 4.684"/><path d="m281.9 105.1l-13.687 4.451"/><path d="m280.23 99.83l-13.758 4.206"/><path d="m278.67 94.52l-13.846 3.974"/><path d="m277.2 89.19l-20.871 5.594"/><path d="m275.81 83.84l-13.977 3.483"/><path d="m274.51 78.47l-14.02 3.236"/><path d="m273.32 73.08l-14.09 2.993"/><path d="m272.21 67.66l-14.13 2.747"/><path d="m271.21 62.22l-21.275 3.744"/><path d="m270.31 56.758l-14.236 2.255"/><path d="m269.48 51.29l-14.266 2.01"/><path d="m268.76 45.817l-14.293 1.75"/><path d="m268.14 40.33l-14.323 1.503"/><path d="m267.6 34.82l-21.521 1.878"/><path d="m827.57 251.58l20.364 20.365"/><path d="m592.73 552.62l.361 20.696"/><path d="m601.93 543.41l.707 20.35"/><path d="m610.83 534.49l1.056 20.02"/><path d="m619.46 525.87l1.387 19.686"/><path d="m627.02 508.13l2.516 28.719"/><path d="m635.98 509.36l1.995 19.05"/><path d="m643.89 501.44l2.299 18.761"/><path d="m651.58 493.75l2.602 18.469"/><path d="m659.08 486.26l2.878 18.18"/><path d="m649.47 383l20.08 113.86"/><path d="m673.52 471.83l3.425 17.634"/><path d="m680.48 464.86l3.686 17.372"/><path d="m687.29 458.05l3.945 17.11"/><path d="m693.96 451.39l4.205 16.853"/><path d="m698.32 436.84l6.605 24.642"/><path d="m706.86 438.47l4.696 16.372"/><path d="m713.13 432.2l4.929 16.13"/><path d="m719.29 426.04l5.175 15.898"/><path d="m725.35 420l5.391 15.667"/><path d="m713.71 365.79l23.2 63.707"/><path d="m737.14 408.21l5.84 15.219"/><path d="m742.89 402.44l6.06 15"/><path d="m748.57 396.77l6.274 14.786"/><path d="m754.17 391.18l6.488 14.566"/><path d="m756.43 378.71l9.944 21.317"/><path d="m765.14 380.21l6.894 14.15"/><path d="m770.51 374.82l7.111 13.961"/><path d="m775.85 369.5l7.298 13.744"/><path d="m781.11 364.23l7.516 13.556"/><path d="m774 337.68l20.03 34.688"/><path d="m791.48 353.85l7.906 13.152"/><path d="m796.61 348.73l8.095 12.949"/><path d="m801.69 343.65l8.296 12.775"/><path d="m806.73 338.6l8.484 12.573"/><path d="m807.56 327.6l12.863 18.384"/><path d="m816.72 328.62l8.876 12.198"/><path d="m821.68 323.66l9.05 12.02"/><path d="m826.61 318.75l9.236 11.821"/><path d="m831.51 313.83l9.422 11.633"/><path d="m828.49 299.52l17.516 20.87"/><path d="m841.27 304.07l9.784 11.259"/><path d="m846.13 299.2l9.973 11.08"/><path d="m850.99 294.36l10.16 10.897"/><path d="m855.83 289.5l10.348 10.724"/><path d="m855.58 279.58l15.623 15.625"/><path d="m865.51 279.82l10.71 10.349"/><path d="m870.36 274.98l10.911 10.161"/><path d="m875.21 270.12l11.09 9.988"/><path d="m880.07 265.27l11.273 9.798"/><path d="m875.53 252.49l20.869 17.517"/><path d="m889.84 255.51l11.637 9.423"/><path d="m894.74 250.6l11.822 9.234"/><path d="m899.67 245.67l12.01 9.05"/><path d="m904.62 240.73l12.197 8.859"/><path d="m903.61 231.55l18.369 12.862"/><path d="m914.61 230.74l12.573 8.484"/><path d="m919.65 225.7l12.761 8.28"/><path d="m924.73 220.61l12.965 8.108"/><path d="m929.86 215.49l13.152 7.906"/><path d="m913.68 198l34.688 20.03"/><path d="m940.24 205.1l13.558 7.515"/><path d="m945.5 199.84l13.761 7.313"/><path d="m950.83 194.52l13.948 7.097"/><path d="m956.21 189.13l14.165 6.908"/><path d="m954.72 180.44l21.305 9.93"/><path d="m967.17 178.16l14.585 6.489"/><path d="m972.78 172.57l14.784 6.272"/><path d="m978.45 166.89l15 6.07"/><path d="m984.22 161.14l15.217 5.839"/><path d="m941.8 137.72l63.71 23.18"/><path d="m996.01 149.34l15.668 5.391"/><path d="m1002.05 143.29l15.898 5.173"/><path d="m1008.21 137.15l16.13 4.928"/><path d="m1014.48 130.87l16.361 4.684"/><path d="m1012.83 122.32l24.642 6.604"/><path d="m1027.39 117.95l16.867 4.206"/><path d="m1034.05 111.29l17.11 3.944"/><path d="m1040.86 104.48l17.372 3.687"/><path d="m1047.83 97.52l17.631 3.426"/><path d="m959.01 73.47l113.85 20.07"/><path d="m1062.26 83.08l18.18 2.875"/><path d="m1069.77 75.59l18.455 2.587"/><path d="m1077.45 67.887l18.759 2.312"/><path d="m1085.36 59.982l19.07 2.01"/><path d="m1084.13 51.03l28.732 2.516"/><path d="m1101.88 43.477l19.685 1.372"/><path d="m1110.51 34.833l20.02 1.056"/><path d="m1119.41 25.93l20.365.709"/><path d="m1128.62 16.724l20.711.361"/><path d="m583.2 468v50.4"/><path d="m583.2 540v43.2"/><path d="m338.83 251.58l-20.364 20.365"/><path d="m573.67 552.62l-.362 20.696"/><path d="m564.47 543.41l-.708 20.35"/><path d="m555.57 534.49l-1.056 20.02"/><path d="m546.94 525.87l-1.387 19.686"/><path d="m539.38 508.13l-2.516 28.719"/><path d="m530.42 509.36l-1.995 19.05"/><path d="m522.51 501.44l-2.298 18.761"/><path d="m514.82 493.75l-2.602 18.469"/><path d="m507.32 486.26l-2.875 18.18"/><path d="m516.93 383l-20.07 113.86"/><path d="m492.88 471.83l-3.425 17.634"/><path d="m485.92 464.86l-3.686 17.372"/><path d="m479.11 458.05l-3.946 17.11"/><path d="m472.44 451.39l-4.205 16.853"/><path d="m468.08 436.84l-6.605 24.642"/><path d="m459.54 438.47l-4.696 16.372"/><path d="m453.27 432.2l-4.929 16.13"/><path d="m447.11 426.04l-5.173 15.898"/><path d="m441.05 420l-5.391 15.667"/><path d="m452.69 365.79l-23.2 63.707"/><path d="m429.26 408.21l-5.84 15.219"/><path d="m423.51 402.44l-6.06 15"/><path d="m417.83 396.77l-6.273 14.786"/><path d="m412.23 391.18l-6.489 14.566"/><path d="m409.96 378.71l-9.944 21.317"/><path d="m401.26 380.21l-6.894 14.15"/><path d="m395.89 374.82l-7.111 13.961"/><path d="m390.55 369.5l-7.298 13.744"/><path d="m385.29 364.23l-7.516 13.556"/><path d="m392.4 337.68l-20.03 34.688"/><path d="m374.92 353.85l-7.907 13.152"/><path d="m369.79 348.73l-8.094 12.949"/><path d="m364.71 343.65l-8.296 12.775"/><path d="m359.67 338.6l-8.484 12.573"/><path d="m358.84 327.6l-12.863 18.384"/><path d="m349.68 328.62l-8.875 12.198"/><path d="m344.72 323.66l-9.05 12.02"/><path d="m339.79 318.75l-9.235 11.821"/><path d="m334.89 313.83l-9.422 11.633"/><path d="m337.92 299.52l-17.518 20.87"/><path d="m325.13 304.07l-9.786 11.259"/><path d="m320.27 299.2l-9.972 11.08"/><path d="m315.41 294.36l-10.161 10.897"/><path d="m310.57 289.5l-10.348 10.724"/><path d="m310.82 279.58l-15.623 15.625"/><path d="m300.89 279.82l-10.709 10.349"/><path d="m296.05 274.98l-10.911 10.161"/><path d="m291.19 270.12l-11.08 9.988"/><path d="m286.33 265.27l-11.273 9.798"/><path d="m290.87 252.49l-20.869 17.517"/><path d="m276.56 255.51l-11.635 9.423"/><path d="m271.66 250.6l-11.822 9.234"/><path d="m266.73 245.67l-12.01 9.05"/><path d="m261.78 240.73l-12.199 8.859"/><path d="m262.79 231.55l-18.37 12.862"/><path d="m251.79,230.74-12.575,8.484"/><path d="m246.75 225.7l-12.762 8.28"/><path d="m241.67 220.61l-12.964 8.108"/><path d="m236.54 215.49l-13.152 7.906"/><path d="m252.71 198l-34.688 20.03"/><path d="m226.16 205.1l-13.559 7.515"/><path d="m220.9 199.84l-13.759 7.313"/><path d="m215.57 194.52l-13.948 7.097"/><path d="m210.19 189.13l-14.164 6.908"/><path d="m211.68 180.44l-21.304 9.93"/><path d="m199.22 178.16l-14.583 6.489"/><path d="m193.62 172.57l-14.784 6.272"/><path d="m187.95 166.89l-15 6.07"/><path d="m182.18 161.14l-15.218 5.839"/><path d="m224.6 137.72l-63.71 23.18"/><path d="m170.39 149.34l-15.666 5.391"/><path d="m164.35 143.29l-15.898 5.173"/><path d="m158.19 137.15l-16.13 4.928"/><path d="m151.92 130.87l-16.362 4.684"/><path d="m153.57 122.32l-24.642 6.604"/><path d="m139.01 117.95l-16.867 4.206"/><path d="m132.35 111.29l-17.11 3.944"/><path d="m125.54 104.48l-17.374 3.687"/><path d="m118.58 97.52l-17.633 3.426"/><path d="m207.39 73.47l-113.85 20.08"/><path d="m104.14 83.08l-18.18 2.875"/><path d="m96.64 75.59l-18.458 2.587"/><path d="m88.95 67.887l-18.76 2.312"/><path d="m81.04 59.982l-19.07 2.01"/><path d="m82.27 51.03l-28.732 2.515"/><path d="m64.52,43.477-19.684,1.372"/><path d="m55.892 34.833l-20.02 1.057"/><path d="m46.988 25.93l-20.363.71"/><path d="m37.782 16.724l-20.71.361"/></g><g font-family="BitstreamVeraSans-Roman" fill="#010101" font-size="19.728"><text transform="translate(576.92 39.6)">0</text><text transform="translate(504.92 39.6)">1</text><text transform="translate(432.92 39.6)">2</text><text transform="translate(360.92 39.6)">3</text><text transform="translate(288.92 39.6)">4</text><text transform="translate(216.92 39.6)">5</text><text transform="translate(144.92 39.6)">6</text><text transform="translate(72.924 39.6)">7</text><text transform="translate(648.92 39.6)">1</text><text transform="translate(720.92 39.6)">2</text><text transform="translate(792.92 39.6)">3</text><text transform="translate(864.92 39.6)">4</text><text transform="translate(936.92 39.6)">5</text><text transform="translate(1008.92 39.6)">6</text><text transform="translate(1080.92 39.6)">7</text><text transform="translate(418.52 86.4)">1</text><text transform="translate(418.52 158.4)">2</text><text transform="translate(418.52 230.4)">3</text><text transform="translate(735.32 86.4)">1</text><text transform="translate(735.32 158.4)">2</text><text transform="translate(735.32 230.4)">3</text><text transform="translate(570.65 374.4)">90</text><text transform="matrix(.9848-.1736.1736.9848 633.35 363.91)">80</text><text transform="matrix(.9848-.1736.1736.9848 630.92 386.27)">100</text></g><g fill="none" stroke="#010101"/><g font-family="BitstreamVeraSans-Roman" fill="#010101" font-size="19.728"><text transform="matrix(.9397-.342.342.9397 694.53 349.78)">70</text><text transform="matrix(.9397-.342.342.9397 696.02 372.23)">110</text></g><g fill="none" stroke="#010101"/><g font-family="BitstreamVeraSans-Roman" fill="#010101" font-size="19.728"><text transform="matrix(.866-.5.5.866 752.33 325.25)">60</text><text transform="matrix(.866-.5.5.866 757.7 347.09)">120</text></g><g fill="none" stroke="#010101"/><g font-family="BitstreamVeraSans-Roman" fill="#010101" font-size="19.728"><text transform="matrix(.766-.6428.6428.766 804.99 291.04)">50</text><text transform="matrix(.766-.6428.6428.766 814.07 311.62)">130</text></g><g fill="none" stroke="#010101"/><g font-family="BitstreamVeraSans-Roman" fill="#010101" font-size="19.728"><text transform="matrix(.6428-.766.766.6428 850.91 248.22)">40</text><text transform="matrix(.6428-.766.766.6428 863.42 266.91)">140</text></g><g fill="none" stroke="#010101"/><g font-family="BitstreamVeraSans-Roman" fill="#010101" font-size="19.728"><text transform="matrix(.5-.866.866.5 888.69 198.07)">30</text><text transform="matrix(.5-.866.866.5 904.26 214.3)">150</text></g><g fill="none" stroke="#010101"/><g font-family="BitstreamVeraSans-Roman" fill="#010101" font-size="19.728"><text transform="matrix(.342-.9397.9397.342 917.2 142.12)">20</text><text transform="matrix(.342-.9397.9397.342 935.35 155.41)">160</text></g><g fill="none" stroke="#010101"/><g font-family="BitstreamVeraSans-Roman" fill="#010101" font-size="19.728"><text transform="matrix(.1736-.9848.9848.1736 935.55 82.08)">10</text><text transform="matrix(.1736-.9848.9848.1736 955.73 92.01)">170</text></g><g fill="none" stroke="#010101"/><g font-family="BitstreamVeraSans-Roman" fill="#010101" font-size="19.728"><text transform="matrix(.9848.1736-.1736.9848 502.15 358.46)">100</text><text transform="matrix(.9848.1736-.1736.9848 504.57 380.82)">80</text></g><g fill="none" stroke="#010101"/><g font-family="BitstreamVeraSans-Roman" fill="#010101" font-size="19.728"><text transform="matrix(.9397.342-.342.9397 442.38 339.05)">110</text><text transform="matrix(.9397.342-.342.9397 440.89 361.49)">70</text></g><g fill="none" stroke="#010101"/><g font-family="BitstreamVeraSans-Roman" fill="#010101" font-size="19.728"><text transform="matrix(.866.5-.5.866 386.9 309.56)">120</text><text transform="matrix(.866.5-.5.866 381.53 331.4)">60</text></g><g fill="none" stroke="#010101"/><g font-family="BitstreamVeraSans-Roman" fill="#010101" font-size="19.728"><text transform="matrix(.766.6428-.6428.766 337.38 270.88)">130</text><text transform="matrix(.766.6428-.6428.766 328.3 291.45)">50</text></g><g fill="none" stroke="#010101"/><g font-family="BitstreamVeraSans-Roman" fill="#010101" font-size="19.728"><text transform="matrix(.6428.766-.766.6428 295.32 224.18)">140</text><text transform="matrix(.6428.766-.766.6428 282.81 242.87)">40</text></g><g fill="none" stroke="#010101"/><g font-family="BitstreamVeraSans-Roman" fill="#010101" font-size="19.728"><text transform="matrix(.5.866-.866.5 262.02 170.9)">150</text><text transform="matrix(.5.866-.866.5 246.45 187.13)">30</text></g><g fill="none" stroke="#010101"/><g font-family="BitstreamVeraSans-Roman" fill="#010101" font-size="19.728"><text transform="matrix(.342.9397-.9397.342 238.47 112.64)">160</text><text transform="matrix(.342.9397-.9397.342 220.32 125.92)">20</text></g><g fill="none" stroke="#010101"/><g font-family="BitstreamVeraSans-Roman" fill="#010101" font-size="19.728"><text transform="matrix(.1736.9848-.9848.1736 225.4 51.17)">170</text><text transform="matrix(.1736.9848-.9848.1736 205.22 61.1)">10</text></g><g fill="none" stroke="#010101"><path d="m7.2 7.2h1152l-576 576z"/></g></g></svg>