<svg xmlns="http://www.w3.org/2000/svg" viewBox="0 0 512 512"><defs><linearGradient gradientTransform="matrix(-1.46855 -9.72023 10.89987 -6.05826 -13.02 664.71)" id="d" y1="19.812" x1="46" y2="22.625" gradientUnits="userSpaceOnUse" x2="47.688"><stop stop-color="#c1c1c1"/><stop offset="1" stop-color="#acacac"/></linearGradient><linearGradient gradientTransform="matrix(-1.48502 -9.73673 11.01277 -6.06714 -14.744 665.385)" id="a" y1="17.376" x1="48.906" y2="22.251" gradientUnits="userSpaceOnUse" x2="50.988"><stop stop-color="#ffd1d1"/><stop offset=".5" stop-color="#ff1d1d"/><stop offset="1" stop-color="#6f0000"/></linearGradient><linearGradient gradientTransform="matrix(-1.82182 -11.89406 13.50527 -7.41065 -91.976 753.784)" id="c" y1="31.05" x1="25.719" y2="30.703" gradientUnits="userSpaceOnUse" x2="25.515"><stop/><stop offset="1" stop-color="#c9c9c9"/></linearGradient><radialGradient cx="29.05" cy="27.641" gradientTransform="matrix(-4.30419 -29.07053 22.21991 -12.58521 -242.066 1397.158)" id="b" r="3.241" gradientUnits="userSpaceOnUse"><stop stop-color="#e7e2b8"/><stop offset="1" stop-color="#e7e2b8" stop-opacity="0"/></radialGradient></defs><path d="m 424,488 h 64 v -64 z" fill-rule="evenodd" stroke="#000" stroke-width="16"/><path d="M 300.53026,234.78192 233.79065,215.2862 103.52104,86.396 C 85.869145,63.675719 131.48568,19.369516 152.53099,36.49684 l 126.2642,130.46319 21.73632,67.82253 z" fill="#cb0422" fill-rule="evenodd" stroke="#5c410c" stroke-width="9.539"/><path d="m 140.16652,115.63047 c 0,0 -1.10251,-14.5622 11.82849,-27.626288 13.32153,-13.455288 29.25094,-16.115808 29.25094,-16.115808 L 146.58646,37.879425 c 0,0 -11.86368,-8.790544 -32.28996,10.863839 -20.150559,19.38793 -8.74271,33.182407 -8.74271,33.182407 l 34.61272,33.705429" fill="url(#a)" fill-rule="evenodd"/><path d="m 292.85519,228.50037 -55.88576,-16.84382 c 6.68624,-19.9533 20.24675,-36.05336 37.95061,-41.70473 l 17.93832,58.54608" fill="url(#b)" fill-rule="evenodd"/><path d="m 269.30443,221.11665 24.48649,7.51711 -8.48714,-25.56087 c -10.10387,2.72475 -14.00609,10.10419 -15.99305,18.04322" fill="url(#c)" fill-rule="evenodd"/><g fill-opacity=".364" fill-rule="evenodd"><path transform="rotate(-89.22 73.605 -176.844) scale(.62833)" d="m -497.09,-13.52 33.08,15.762 156.29,-158.45 c -14.486,-13.05 -28.26,-14.875 -38.648,-14.541 l -150.72,157.23" fill="#fdb620"/><path transform="rotate(-89.22 73.605 -176.844) scale(.62833)" d="m -431.51,47.791 -4.269,-12.843 155.78,-154.95 c 0,0 4.124,10.402 3.849,12.901 l -155.36,154.89"/></g><path d="m 140.35829,115.85302 c 0,0 -1.08894,-14.54316 11.71166,-27.583895 13.18551,-13.434518 28.9528,-16.094731 28.9528,-16.094731 L 167.1856,58.79237 c 0,0 -15.59028,-0.04887 -29.6145,14.156571 -14.41033,14.594814 -11.04737,29.515809 -11.04737,29.515809 l 13.83716,13.38202" fill="url(#d)" fill-rule="evenodd"/><path d="m 28.91075,131.35056 v 347.6791 h 347.6791 z m 69.53583,167.87453 v 110.26874 h 110.26874 z" fill="#fff" fill-rule="evenodd" stroke="#000" stroke-width="16" stroke-linecap="round" stroke-linejoin="round"/><g fill-rule="evenodd"><path d="m -218.57159,-130.37448 a 3.7795274,3.7795274 0 0 1 -3.77953,3.77953 3.7795274,3.7795274 0 0 1 -3.77953,-3.77953 3.7795274,3.7795274 0 0 1 3.77953,-3.77953 3.7795274,3.7795274 0 0 1 3.77953,3.77953 z m 7.55905,0 a 11.338582,11.338582 0 0 1 -11.33858,11.33858 11.338582,11.338582 0 0 1 -11.33858,-11.33858 11.338582,11.338582 0 0 1 11.33858,-11.33858 11.338582,11.338582 0 0 1 11.33858,11.33858 z" transform="matrix(2.9328 0 0 -2.9328 1058.23 -290.497)"/><path d="m -202.46778,203.69392 -2.48542,19.57228 -1.86406,0.31068 -13.17279,-79.03559 a 14.362204,14.362204 0 0 0 7.10287,-3.36378 z m -39.76668,0 2.48542,19.57228 1.86406,0.31068 13.17279,-79.03559 a 14.362204,14.362204 0 0 1 -7.10287,-3.36378 z m 16.10381,-92.21707 v 5.04151 a 14.362204,14.362204 0 0 1 7.55906,0 v -5.04151 a 3.77953,3.77953 0 0 0 -7.55906,0" transform="translate(1058.23 -290.497) scale(2.9328)"/></g></svg>