<svg width="512" xmlns="http://www.w3.org/2000/svg" height="512" xmlns:xlink="http://www.w3.org/1999/xlink">
<defs>
<filter width="1.1" x="-.05" y="-.262" height="1.525" id="filter3976">
<feGaussianBlur stdDeviation="1.63716"/>
</filter>
<linearGradient id="linearGradient3834">
<stop offset="0" stop-color="#fff3de"/>
<stop offset="1" stop-color="#fff3de" stop-opacity="0"/>
</linearGradient>
<linearGradient gradientTransform="matrix(9.57041 0 0 9.57041 -3709.3217 -2839.0333)" xlink:href="#linearGradient3444" id="linearGradient2978" y1="306.628" x1="356.018" y2="326.997" gradientUnits="userSpaceOnUse" x2="469.722"/>
<linearGradient gradientTransform="matrix(9.57041 0 0 9.57041 -3709.9252 -2837.7917)" xlink:href="#linearGradient2662" id="linearGradient2981" y1="329.361" x1="448.656" y2="313.401" gradientUnits="userSpaceOnUse" x2="368.346"/>
<linearGradient id="linearGradient4081" xlink:href="#linearGradient3834" y1="422.163" y2="420.471" x1="315.891" x2="318.204" gradientUnits="userSpaceOnUse"/>
<linearGradient gradientTransform="matrix(9.57041 0 0 9.57041 -3709.9252 -2837.7917)" xlink:href="#linearGradient3458" id="linearGradient2983" x1="391.584" gradientUnits="userSpaceOnUse" x2="469.93"/>
<linearGradient id="linearGradient2662">
<stop offset="0" stop-color="#fbc594"/>
<stop offset="1" stop-color="#c9884e"/>
</linearGradient>
<linearGradient id="linearGradient3444">
<stop offset="0" stop-color="#ffbd75" stop-opacity=".584"/>
<stop offset="1" stop-color="#f9dbba"/>
</linearGradient>
<linearGradient id="linearGradient3458">
<stop offset="0" stop-color="#5f411c"/>
<stop offset="1" stop-color="#454545"/>
</linearGradient>
</defs>
<g stroke="#000">
<path fill-rule="evenodd" stroke-width="16" d="m424,488 64,0 0-64-64,64z"/>
<path filter="url(#filter3976)" stroke-width=".8" d="m319.577,409.633h41.821a.7601,.7601 0 0,1 .76,.76v12.433a.7601,.7601 0 0,1 -.76,.76h-41.821a.7601,.7601 0 0,1 -.76-.76v-12.433a.7601,.7601 0 0,1 .76-.76" transform="matrix(9.39192 .00911 -.0134 8.42113 -2933.774 -3246.3082)"/>
</g>
<path fill="url(#linearGradient2981)" stroke="url(#linearGradient2983)" stroke-width="7.656" d="m47.8291,191.108h413.7079a7.2746,7.2746 0 0,1 7.274,7.274v118.994a7.2746,7.2746 0 0,1 -7.274,7.275h-413.7079a7.2746,7.2746 0 0,1 -7.2746-7.275v-118.994a7.2746,7.2746 0 0,1 7.2746-7.274" transform="matrix(1 -.00098 .00098 1 0 0)"/>
<g fill="none">
<path stroke="url(#linearGradient2978)" stroke-width="4.785" d="m51.7062,194.428h406.9968a7.2746,7.2746 0 0,1 7.274,7.275v111.089a7.2746,7.2746 0 0,1 -7.274,7.275h-406.9968a7.2746,7.2746 0 0,1 -7.2746-7.275v-111.089a7.2746,7.2746 0 0,1 7.2746-7.275" transform="matrix(1 -.00098 .00098 1 0 0)"/>
<g stroke="#573006">
<path stroke-dasharray="4.78519958,4.78519958" stroke-width="19.141" d="m60.8448,200.7182 384.7289,.6174"/>
<g stroke-width="4.785" transform="matrix(1 0 0 1.23672 0 23.63501)" stroke-miterlimit="0">
<path d="m63.2298,136.8848 .1048,35.6898"/>
<path d="m139.7574,136.1196 .1047,35.6897"/>
<path d="m216.3396,135.8307 .1047,35.6897"/>
<path d="m292.8051,136.0605 .1047,35.6898"/>
<path d="m369.3304,135.5409 .1047,35.6897"/>
<path d="m445.9726,136.1342 .1047,35.6897"/>
</g>
</g>
</g>
<g fill="#fff3de">
<path opacity=".439" d="m467.3604,305.8697c.4575,2.0598 .3234,4.105-.0709,6.1553-.4278,1.7932-1.3941,3.3679-2.7351,4.6166-1.0102,1.0228-2.2434,1.4949-3.5972,1.8608-.985,.3193-1.9968,.5246-3.0165,.6929l-7.8231-1.098c1.0131-.1223 2.0253-.2678 3.0014-.5789 1.2644-.4056 2.6061-.4958 3.5641-1.5456 1.3649-.974 2.2594-2.47 2.7077-4.0734 .3904-1.9581 .5233-3.9 .0716-5.8692l7.8981-.1605z"/>
<path opacity=".439" d="m54.773,195.9145c-1.5272,1.2703-2.9624,2.6539-4.3609,4.0642-.9767,1.0633-1.3765,2.3905-1.314,3.812 .1275,.9752 .0262,.4936 .306,1.4444l-7.8961,.2388c-.2799-1.0879-.1785-.5459-.3093-1.6249-.0574-1.6089 .3157-3.1642 1.3347-4.4463 1.367-1.4739 2.8742-2.8242 4.369-4.165l7.8707,.6768z"/>
<path opacity=".439" d="m459.4654,193.5525c1.9419,.516 3.7543,1.3177 5.508,2.2887 1.5383,.6705 2.7607,1.6232 3.7515,2.957 .8192,1.3002 1.395,2.7181 2.0385,4.1072 .5992,1.3823 .7376,2.8812 .8295,4.367 .1462,1.2568-.2187,2.4281-.641,3.5907l-7.8957-.2507c.395-1.0622 .793-2.1028 .6367-3.2634-.0888-1.3907-.2208-2.7916-.8211-4.0712-.6297-1.3341-1.1616-2.7219-2.0282-3.929-.993-1.2037-2.3293-1.9484-3.7215-2.6276-1.7429-.8878-3.5413-1.6658-5.475-2.0322l7.8175-1.1367z"/>
<path opacity=".439" d="m463.4337,193.1967c1.894,1.3615 3.603,3.0318 4.7947,5.0468 .505,.9913 .6496,2.0408 .7361,3.1301l-7.8991,.0935c-.086-.9693-.2269-1.896-.7229-2.758-1.2292-1.8836-2.9114-3.4456-4.7671-4.7072l7.8585-.8051z"/>
<path opacity=".439" d="m466.5819,191.4613c1.9805,.7408 3.6294,1.962 4.7932,3.7212 .7282,1.5198 1.0543,3.2128 1.3977,4.8572 .1793,1.0781 .1005,.5384 .2368,1.6191l-7.8987,.1279c-.1355-1.0384-.0573-.5199-.2353-1.5551-.3305-1.5392-.6081-3.1507-1.3833-4.5344-1.2258-1.5958-2.9125-2.5731-4.7583-3.333l7.848-.9028z"/>
<path opacity=".439" d="m472.9234,314.5382c.3966,1.8774 .1619,3.6728-.5302,5.4354-.6467,1.6067-1.8351,2.5243-3.4339,3.0527-1.3738,.2642-2.7118,.6655-4.0917,.8979-.2404,.0295-.4808,.0593-.7212,.0891l-7.8185-1.1294c.2389-.0193 .4778-.0386 .7167-.0579 1.3917-.163 2.7096-.5687 4.0795-.8074 1.4989-.2919 2.7262-.837 3.3743-2.3221 .6816-1.6259 .9242-3.2448 .527-4.9977l7.8981-.1605z"/>
</g>
<g fill="url(#linearGradient4081)" transform="matrix(9.57034 -.03658 .03658 9.57034 -3000.2813 -3707.6523)">
<path opacity=".439" d="m317.0583,420.7113c.0268,.2045 .0635,.4106 .0536,.6174-.0254,.1246-.0337,.2026 .0193,.3169 .0717,.1025 .1433,.1769 .2611,.2237 .1424,.0777 .3011,.1034 .4603,.119 .1683,.0122 .3372,.011 .5059,.0108-1.3201,.0393-.7709,.0289-.4721-.0462l.8185,.1066c-.4038,.1269-.6359,.1201-1.1617,.0686-.1693-.0007-.3391-.0006-.5074-.0208-.1623-.0244-.3195-.0657-.4639-.1466-.1152-.0685-.2013-.163-.2655-.281-.0492-.1185-.0495-.2303-.02-.3552 .011-.2006-.0284-.4011-.0535-.5995l.8253-.0136z"/>
<path opacity=".439" d="m316.7183,420.4705c0,.226 0,.4519 0,.6779 0,.1892 0,.3785 0,.5677-.004,.095-.007,.1774 .0793,.2286l-.8227,.0667c-.0695-.0904-.092-.1801-.082-.2953 0-.1893 0-.3785 0-.5677 0-.226 0-.4519 0-.6779h.8254z"/>
</g>
</svg>
