<svg width="512" xmlns="http://www.w3.org/2000/svg" height="512" xmlns:xlink="http://www.w3.org/1999/xlink">
<defs>
<linearGradient id="linearGradient4218">
<stop offset="0" stop-color="#ffb193"/>
<stop offset=".292" stop-color="#ffe8df"/>
<stop offset="1" stop-color="#be3600"/>
</linearGradient>
<linearGradient xlink:href="#linearGradient4218" id="linearGradient4224" x1="95" x2="257" gradientUnits="userSpaceOnUse"/>
</defs>
<g stroke="#000" transform="translate(0 464)">
<path fill="url(#linearGradient4224)" stroke-width="18" d="m104,40 0,272 48,96 48,0 48-96 0-272z" transform="translate(0 -464)"/>
<path fill="#56ef55" stroke-width="16" d="m232-208 128-128 0,89.6 128,0 0,76.8-128,0 0,89.6-128-128z"/>
</g>
<g fill="none" stroke="#fc7400" stroke-linejoin="round" stroke-linecap="round" stroke-width="15" transform="translate(0 464)">
<path d="m152,472-112,0" transform="translate(0 -464)"/>
<path d="m152,440-96-48" transform="translate(0 -464)"/>
<path d="m200,440 80-48" transform="translate(0 -464)"/>
<path d="m200,472 96,0" transform="translate(0 -464)"/>
<path d="m168,472 0-16 16,0 0,16z" transform="translate(0 -464)"/>
</g>
</svg>
