<?xml version="1.0" encoding="UTF-8" standalone="no"?>
<svg
   viewBox="0 0 512 512"
   version="1.1"
   id="svg834"
   sodipodi:docname="CircleCD-inverse.svg"
   inkscape:version="1.1.2 (b8e25be8, 2022-02-05)"
   xmlns:inkscape="http://www.inkscape.org/namespaces/inkscape"
   xmlns:sodipodi="http://sodipodi.sourceforge.net/DTD/sodipodi-0.dtd"
   xmlns="http://www.w3.org/2000/svg"
   xmlns:svg="http://www.w3.org/2000/svg">
  <defs
     id="defs838" />
  <sodipodi:namedview
     id="namedview836"
     pagecolor="#ffffff"
     bordercolor="#666666"
     borderopacity="1.0"
     inkscape:pageshadow="2"
     inkscape:pageopacity="0.0"
     inkscape:pagecheckerboard="0"
     showgrid="false"
     inkscape:zoom="1.2617188"
     inkscape:cx="39.232198"
     inkscape:cy="265.51084"
     inkscape:window-width="1293"
     inkscape:window-height="847"
     inkscape:window-x="0"
     inkscape:window-y="25"
     inkscape:window-maximized="0"
     inkscape:current-layer="g832" />
  <path
     d="m72 88h352v352h-352z"
     style="fill:none;opacity:.25;stroke:#00ccff;stroke-linecap:round;stroke-linejoin:round;stroke-width:16;stroke-dashoffset:152"
     id="path824" />
  <path
     d="m216 264c0-17.674 14.326-32 32-32 17.674 0 32 14.326 32 32 0 17.674-14.326 32-32 32-17.674 0-32-14.326-32-32"
     style="fill:#f00"
     id="path826" />
  <g
     style="fill:none"
     id="g832">
    <path
       d="m424 264c0 97.2-78.8 176-176 176-97.2 0-176-78.8-176-176 0-97.2 78.8-176 176-176 97.2 0 176 78.8 176 176z"
       style="stroke:#fff;stroke-linecap:square;stroke-linejoin:round;stroke-width:16"
       id="path828" />
    <path
       d="m136 400l224-272"
       style="stroke:#f00;stroke-width:16;stroke-miterlimit:4;stroke-dasharray:none"
       id="path830" />
  </g>
</svg>
