<svg width="223.813" fill="none" xmlns="http://www.w3.org/2000/svg" height="91" viewBox="16.6872 -105.5 223.813 91" stroke-linejoin="round" stroke-linecap="round">
<g transform="scale(1 -1)">
<path stroke="#fff" d="m30,90v-60"/>
<path stroke="#f00" stroke-width=".35" d="m60,105v-7.2m0-4.1825v-.035m0-4.1825v-8.4m0-4.1825v-.035m0-4.1825v-8.4m0-4.1825v-.035m0-4.1825v-8.4m0-4.1825v-.035m0-4.1825v-8.4m0-4.1825v-.035m0-4.1825v-7.2"/>
<g stroke="#fff">
<path d="M90,81.9615 L90,30 "/>
<path d="M90,81.9615 A60,60 0 0,1 30,81.9615 "/>
</g>
<path stroke="#f00" stroke-width=".35" d="m210,105v-7.2m0-4.1825v-.035m0-4.1825v-8.4m0-4.1825v-.035m0-4.1825v-8.4m0-4.1825v-.035m0-4.1825v-8.4m0-4.1825v-.035m0-4.1825v-8.4m0-4.1825v-.035m0-4.1825v-7.2"/>
<g stroke="#fff">
<path d="m240,81.9615v-51.9615"/>
<path d="M240,81.9615 A60,60 0 0,1 180,81.9615 "/>
<path d="m180,81.9615v-51.9615"/>
</g>
<g fill="#000" fill-rule="evenodd">
<path d="m23.7981,52.283v-1.1801h-6.6098c-.0091,.2956 .0386,.5798 .1432,.8527 .1683,.4502 .4377,.8936 .8083,1.3301 .3707,.4366 .9061,.9414 1.6064,1.5144 1.0869,.8913 1.8213,1.5973 2.2033,2.118 .382,.5207 .573,1.0129 .573,1.4768 0,.4866-.1739,.897-.5218,1.2312-.3479,.3343-.8015,.5014-1.3609,.5014-.5911,0-1.0641-.1774-1.4188-.5321-.3547-.3547-.5343-.8458-.5389-1.4734l-1.2619,.1296c.0864,.9414 .4115,1.6587 .9754,2.1521 .5639,.4934 1.3211,.7401 2.2715,.7401 .9595,0 1.719-.266 2.2783-.798 .5594-.5321 .839-1.1915 .839-1.9782 0-.4002-.0818-.7936-.2455-1.1801-.1637-.3865-.4354-.7935-.8152-1.221-.3797-.4275-1.0106-1.0141-1.8929-1.7599-.7367-.6185-1.2096-1.038-1.4188-1.2585-.2092-.2206-.382-.4423-.5184-.6651h4.9045m2.0046-1.1801v1.3984h1.3984v-1.3984h-1.3984"/>
<path d="m46.0353,91.9001h-1.2278v7.8241c-.2956-.282-.6833-.5639-1.163-.8459-.4798-.2819-.9107-.4934-1.2927-.6344v1.1869c.6867,.3229 1.287,.7142 1.8008,1.1732 .5139,.459 .8777,.905 1.0914,1.337h.7913v-10.0409m3.8328,0v1.3984h1.3983v-1.3984h-1.3983"/>
</g>
</g>
</svg>
