<?xml version="1.0" encoding="UTF-8"?>
<!-- 2011-11-22 14:53:12 Generated by QCAD SVG Exporter -->
<svg width="223.813" height="91" viewBox="16.6872 -105.5 223.813 91" version="1.1" xmlns="http://www.w3.org/2000/svg" style="stroke-linecap:round;stroke-linejoin:round;fill:none">
    <g transform="scale(1,-1)">
        <!-- Line -->
        <path d="M30,90 L30,30 " style="stroke:#000000;stroke-width:1;"/>
        <!-- Line -->
        <path d="M60,105 L60,97.8 M60,93.6175 L60,93.5825 M60,89.4 L60,81 M60,76.8175 L60,76.7825 M60,72.6 L60,64.2 M60,60.0175 L60,59.9825 M60,55.8 L60,47.4 M60,43.2175 L60,43.1825 M60,39 L60,30.6 M60,26.4175 L60,26.3825 M60,22.2 L60,15 " style="stroke:#ff0000;stroke-width:0.35;"/>
        <!-- Line -->
        <path d="M90,81.9615 L90,30 " style="stroke:#000000;stroke-width:1;"/>
        <!-- Arc -->
        <path d="M90,81.9615 A60,60 0 0,1 30,81.9615 " style="stroke:#000000;stroke-width:1;"/>
        <!-- Line -->
        <path d="M210,105 L210,97.8 M210,93.6175 L210,93.5825 M210,89.4 L210,81 M210,76.8175 L210,76.7825 M210,72.6 L210,64.2 M210,60.0175 L210,59.9825 M210,55.8 L210,47.4 M210,43.2175 L210,43.1825 M210,39 L210,30.6 M210,26.4175 L210,26.3825 M210,22.2 L210,15 " style="stroke:#ff0000;stroke-width:0.35;"/>
        <!-- Line -->
        <path d="M240,81.9615 L240,30 " style="stroke:#000000;stroke-width:1;"/>
        <!-- Arc -->
        <path d="M240,81.9615 A60,60 0 0,1 180,81.9615 " style="stroke:#000000;stroke-width:1;"/>
        <!-- Line -->
        <path d="M180,81.9615 L180,30 " style="stroke:#000000;stroke-width:1;"/>
        <!-- Text: 2. -->
        <path d="M23.7981,52.283 L23.7981,51.1029 L17.1883,51.1029 C17.1792,51.3985 17.2269,51.6827 17.3315,51.9556 C17.4998,52.4058 17.7692,52.8492 18.1398,53.2857 C18.5105,53.7223 19.0459,54.2271 19.7462,54.8001 C20.8331,55.6914 21.5675,56.3974 21.9495,56.9181 C22.3315,57.4388 22.5225,57.931 22.5225,58.3949 C22.5225,58.8815 22.3486,59.2919 22.0007,59.6261 C21.6528,59.9604 21.1992,60.1275 20.6398,60.1275 C20.0487,60.1275 19.5757,59.9501 19.221,59.5954 C18.8663,59.2407 18.6867,58.7496 18.6821,58.122 L17.4202,58.2516 C17.5066,59.193 17.8317,59.9103 18.3956,60.4037 C18.9595,60.8971 19.7167,61.1438 20.6671,61.1438 C21.6266,61.1438 22.3861,60.8778 22.9454,60.3458 C23.5048,59.8137 23.7844,59.1543 23.7844,58.3676 C23.7844,57.9674 23.7026,57.574 23.5389,57.1875 C23.3752,56.801 23.1035,56.394 22.7237,55.9665 C22.344,55.539 21.7131,54.9524 20.8308,54.2066 C20.0941,53.5881 19.6212,53.1686 19.412,52.9481 C19.2028,52.7275 19.03,52.5058 18.8936,52.283 L23.7981,52.283 M25.8027,51.1029 L25.8027,52.5013 L27.2011,52.5013 L27.2011,51.1029 L25.8027,51.1029 " style="fill:#000000;fill-rule:evenodd;"/>
        <!-- Text: 1. -->
        <path d="M46.0353,91.9001 L44.8075,91.9001 L44.8075,99.7242 C44.5119,99.4422 44.1242,99.1603 43.6445,98.8783 C43.1647,98.5964 42.7338,98.3849 42.3518,98.2439 L42.3518,99.4308 C43.0385,99.7537 43.6388,100.145 44.1526,100.604 C44.6665,101.063 45.0303,101.509 45.244,101.941 L46.0353,101.941 L46.0353,91.9001 M49.8681,91.9001 L49.8681,93.2985 L51.2664,93.2985 L51.2664,91.9001 L49.8681,91.9001 " style="fill:#000000;fill-rule:evenodd;"/>
    </g>
</svg>
