<?xml version="1.0" encoding="UTF-8"?>
<!-- 2016-05-25 09:59:20 Generated by QCAD SVG Exporter -->
<svg width="222.81282495667244" height="90" viewBox="17.18717504332756 -105 222.81282495667244 90" version="1.1" xmlns="http://www.w3.org/2000/svg" style="stroke-linecap:round;stroke-linejoin:round;fill:none">
    <g transform="scale(1,-1)">
        <!-- Line -->
        <path d="M30,90 L30,30 " style="stroke:#000000;stroke-width:1;"/>
        <!-- Line -->
        <path d="M60,105 L60,97.79999999999998 M60,93.61749999999998 L60,93.58249999999998 M60,89.39999999999998 L60,80.99999999999997 M60,76.81749999999997 L60,76.78249999999997 M60,72.59999999999997 L60,64.19999999999996 M60,60.01749999999996 L60,59.982499999999966 M60,55.79999999999997 L60,47.39999999999997 M60,43.21749999999997 L60,43.182499999999976 M60,38.99999999999998 L60,30.59999999999998 M60,26.417499999999983 L60,26.382499999999983 M60,22.19999999999998 L60,15 " style="stroke:#ff0000;stroke-width:0.35;"/>
        <!-- Line -->
        <path d="M90,81.96152422706632 L90,30 " style="stroke:#000000;stroke-width:1;"/>
        <!-- Arc -->
        <path d="M90,81.96152422706632 A60,60 0 0,1 30.000000000000014,81.96152422706632 " style="stroke:#000000;stroke-width:1;"/>
        <!-- Line -->
        <path d="M210,105 L210,97.79999999999998 M210,93.61749999999998 L210,93.58249999999998 M210,89.39999999999998 L210,80.99999999999997 M210,76.81749999999997 L210,76.78249999999997 M210,72.59999999999997 L210,64.19999999999996 M210,60.01749999999996 L210,59.982499999999966 M210,55.79999999999997 L210,47.39999999999997 M210,43.21749999999997 L210,43.182499999999976 M210,38.99999999999998 L210,30.59999999999998 M210,26.417499999999983 L210,26.382499999999983 M210,22.19999999999998 L210,15 " style="stroke:#ff0000;stroke-width:0.35;"/>
        <!-- Line -->
        <path d="M240,81.96152422706632 L240,30 " style="stroke:#000000;stroke-width:1;"/>
        <!-- Arc -->
        <path d="M240,81.96152422706632 A60,60 0 0,1 180,81.96152422706632 " style="stroke:#000000;stroke-width:1;"/>
        <!-- Line -->
        <path d="M180,81.96152422706632 L180,30 " style="stroke:#000000;stroke-width:1;"/>
        <!-- Text: 2. -->
        <g>
            <path d="M23.798089095169306,52.28300164798402 L23.798089095169306,51.10291979259521 L17.188266448511733,51.10291979259521 C17.179171405310278,51.3985086966425 17.22692038211792,51.682728796687975 17.331513378934655,51.95558009273164 C17.499771678161576,52.40578473120367 17.769212333004685,52.849168087274606 18.139835343463986,53.28573016094446 C18.510458353923287,53.72229223461431 19.045929022408963,54.22706713229507 19.74624734892101,54.80005485398675 C20.833105011494908,55.69136908772936 21.56752975001242,56.39737181624232 21.949521564473535,56.918063039525634 C22.331513378934652,57.43875426280894 22.522509286165214,57.9310234760877 22.522509286165214,58.39487067936192 C22.522509286165214,58.88145549063977 22.34856658493738,59.291869315105444 22.00068118248172,59.62611215275892 C21.65279578002606,59.9603549904124 21.19918050035348,60.12747640923914 20.639835343463986,60.12747640923914 C20.048657535369397,60.12747640923914 19.575715288893726,59.95012306681076 19.221008604036975,59.59541638195401 C18.86630191918022,59.24070969709726 18.68667481595148,58.74957736421867 18.682127294350753,58.12201938331827 L17.420190050148843,58.251623748939004 C17.506592960562667,59.19296072028962 17.83174075501469,59.910332252804395 18.395633433504912,60.40373834648334 C18.959526111995135,60.897144440162286 19.71668845851628,61.14384748700176 20.66712047306835,61.14384748700176 C21.626647530821877,61.14384748700176 22.386083638143386,60.877817473359194 22.945428795032882,60.34575744607406 C23.504773951922374,59.813697418788934 23.784446530367124,59.15430678668343 23.784446530367124,58.36758554975756 C23.784446530367124,57.96740364889352 23.702591141554027,57.57404303043059 23.53888036392783,57.18750369436874 C23.375169586301638,56.8009643583069 23.103455170658165,56.393961175041774 22.72373711699741,55.96649414457338 C22.344019063336656,55.53902711410499 21.7130504412357,54.952396827611125 20.830831250694544,54.2066032850918 C20.094132751376673,53.588140347392844 19.621190504901,53.168631479725725 19.412004511267533,52.94807668209043 C19.202818517634064,52.72752188445514 19.030012696806413,52.505830206419674 18.893587048784585,52.28300164798402 Z M25.802727567202048,51.10291979259521 L25.802727567202048,52.501282684818946 L27.20109045942579,52.501282684818946 L27.20109045942579,51.10291979259521 Z" style="fill:#000000;fill-rule:evenodd;"/>
        </g>
        <!-- Text: 1. -->
        <g>
            <path d="M46.03531225395505,91.90014682899036 L44.807481421758595,91.90014682899036 L44.807481421758595,99.7241577430422 C44.5118925177113,99.44221140379709 44.12421630124927,99.16026506455198 43.64445277237251,98.87831872530687 C43.16468924349575,98.59637238606176 42.733811571826806,98.38491263162793 42.35181975736569,98.24393946200536 L42.35181975736569,99.43084259979527 C43.03849551907556,99.75371663344693 43.6387683703716,100.1448034911095 44.15263831125382,100.604103172783 C44.66650825213604,101.06340285445648 45.03030998019425,101.50905997132779 45.24404349542844,101.9410745233969 L46.03531225395505,101.9410745233969 Z M49.86805440948029,91.90014682899036 L49.86805440948029,93.29850972121409 L51.266417301704024,93.29850972121409 L51.266417301704024,91.90014682899036 Z" style="fill:#000000;fill-rule:evenodd;"/>
        </g>
    </g>
</svg>
