<svg width="85.39" height="85.39" viewBox="2.95012437887911 -26.04987562112089 24.09975124224178 24.09975124224178" xmlns="http://www.w3.org/2000/svg" style="fill:none;stroke-linecap:round;stroke-linejoin:round"><g transform="scale(1-1)" style="stroke-width:.25"><circle cx="15" cy="14" r="10.05" style="stroke:#000"/><g style="stroke:#0f0"><path d="m2.95 14h1.55m1.487 0h.025m1.487 0h3m1.488 0h.025m1.488 0h3m1.488 0h.025m1.488 0h3m1.488 0h.025m1.488 0h1.55"/><path d="m15 1.95v1.55m0 1.487v.025m0 1.487v3m0 1.488v.025m0 1.488v3m0 1.487v.025m0 1.488v3m0 1.488v.025m0 1.488v1.55"/></g></g></svg>