<?xml version="1.0" encoding="UTF-8"?>
<!-- 2013-12-12 22:49:47 Generated by QCAD SVG Exporter -->
<svg width="24.09975124224178mm" height="24.09975124224178mm" viewBox="2.95012437887911 -26.04987562112089 24.09975124224178 24.09975124224178" version="1.1" xmlns="http://www.w3.org/2000/svg" style="stroke-linecap:round;stroke-linejoin:round;fill:none">
    <g transform="scale(1,-1)">
        <!-- Circle -->
        <circle cx="15" cy="14" r="10.04987562112089" style="stroke:#ffffff;stroke-width:0.25;"/>
        <!-- Line -->
        <path d="M2.95012437887911,14.000000000000002 L4.5,14.000000000000002 M5.9875,14.000000000000002 L6.0125,14.000000000000002 M7.5,14.000000000000002 L10.5,14.000000000000002 M11.9875,14.000000000000002 L12.012500000000001,14.000000000000002 M13.500000000000002,14.000000000000002 L16.5,14.000000000000002 M17.9875,14.000000000000002 L18.0125,14.000000000000002 M19.5,14.000000000000002 L22.5,14.000000000000002 M23.9875,14.000000000000002 L24.0125,14.000000000000002 M25.5,14.000000000000002 L27.04987562112089,14 " style="stroke:#00ff00;stroke-width:0.25;"/>
        <!-- Line -->
        <path d="M15,1.95012437887911 L15,3.5 M15,4.9875 L15,5.0125 M15,6.5 L15,9.5 M15,10.9875 L15,11.012500000000001 M15,12.500000000000002 L15,15.500000000000002 M15,16.9875 L15,17.0125 M15,18.5 L15,21.5 M15,22.9875 L15,23.0125 M15,24.5 L15,26.04987562112089 " style="stroke:#00ff00;stroke-width:0.25;"/>
    </g>
</svg>
