<?xml version="1.0" encoding="UTF-8" standalone="no"?>
<svg
   xmlns:dc="http://purl.org/dc/elements/1.1/"
   xmlns:cc="http://creativecommons.org/ns#"
   xmlns:rdf="http://www.w3.org/1999/02/22-rdf-syntax-ns#"
   xmlns:svg="http://www.w3.org/2000/svg"
   xmlns="http://www.w3.org/2000/svg"
   xmlns:sodipodi="http://sodipodi.sourceforge.net/DTD/sodipodi-0.dtd"
   xmlns:inkscape="http://www.inkscape.org/namespaces/inkscape"
   width="512"
   height="512"
   id="svg2"
   version="1.1"
   inkscape:version="0.48.2 r9819"
   sodipodi:docname="UnlockAllLayers.svg">
  <metadata
     id="metadata10">
    <rdf:RDF>
      <cc:Work
         rdf:about="">
        <dc:format>image/svg+xml</dc:format>
        <dc:type
           rdf:resource="http://purl.org/dc/dcmitype/StillImage" />
      </cc:Work>
    </rdf:RDF>
  </metadata>
  <sodipodi:namedview
     pagecolor="#ffffff"
     bordercolor="#666666"
     borderopacity="1"
     objecttolerance="10"
     gridtolerance="10"
     guidetolerance="10"
     inkscape:pageopacity="0"
     inkscape:pageshadow="2"
     inkscape:window-width="1935"
     inkscape:window-height="1200"
     id="namedview8"
     showgrid="false"
     inkscape:zoom="0.4609375"
     inkscape:cx="-16.271186"
     inkscape:cy="256"
     inkscape:window-x="574"
     inkscape:window-y="59"
     inkscape:window-maximized="0"
     inkscape:current-layer="svg2" />
  <defs
     id="defs4" />
  <g
     style="fill-rule:evenodd;fill:#999999;fill-opacity:1"
     transform="matrix(3.0948533,0,0,3.0948533,56.818646,61.615359)"
     id="g3147">
    <path
       inkscape:connector-curvature="0"
       d="M 64.3591,2 C 44.2872,2 28.1282,18.159 28.1282,38.2309 V 78.4874 H 38.1923 V 38.2309 C 38.1923,23.7345 49.8627,12.0642 64.359,12.0642 78.8554,12.0642 90.5257,23.7346 90.5257,38.2309 V 78.4874 H 100.5898 V 38.2309 C 100.5898,18.159 84.4308,2 64.3589,2 z"
       id="path3149"
       style="fill:#999999;fill-opacity:1" />
    <path
       inkscape:connector-curvature="0"
       d="M 22.0578,57.3591 H 106.66 A 0.5,0.5 0 0 1 107.16,57.8591 V 123.118 A 0.5,0.5 0 0 1 106.66,123.618 H 22.0578 A 0.5,0.5 0 0 1 21.5578,123.118 V 57.8591 A 0.5,0.5 0 0 1 22.0578,57.3591"
       id="path3151"
       style="fill:#999999;fill-opacity:1" />
  </g>
</svg>
