<svg width="512" xmlns="http://www.w3.org/2000/svg" height="512">
<defs/>
<g fill="none" stroke="#000" transform="translate(0 464)">
<g stroke-width="13.714">
<path d="m360-192c0,30.928-25.072,56-56,56-30.928,0-56-25.072-56-56 0-30.928 25.072-56 56-56 30.928,0 56,25.0721 56,56z"/>
<path d="m440-328-256,0-112,112v144h368v-256z"/>
</g>
<g stroke-width="8">
<path d="m72-88 240-240"/>
<path d="m296-248 80-80"/>
<path d="m120-72 128-128"/>
<path d="m344-232 96-96"/>
<path d="m184-72 80-80"/>
<path d="m360-184 80-80"/>
<path d="m248-72 64-64"/>
<path d="m312-72 128-128"/>
<path d="m376-72 64-64"/>
<path d="m72-152 176-176"/>
</g>
</g>
</svg>
