<svg width="512" xmlns="http://www.w3.org/2000/svg" height="512">
<defs/>
<path d="m350.7778,87.2893c41.2152,16.6218 78.9291,48.1031 117.4241,75.4724 7.2655,42.2255-45.9239-10.6623-32.556,26.4633 17.5567,25.6202 45.8004,33.8728 58.0618,66.9884 5.4349,41.9023-24.6911,48.3935-43.606,54.2918-19.0099,12.1898-33.7871,36.4651-53.4066,46.7323-9.4365,31.1768-33.1047,34.8668-50.4179,54.2515-15.1061,3.3615-28.6147,8.9911-42.803,16.1142-1.3633-19.8299-14.1295-42.7934-26.8685-20.8004-5.6262,19.8605-31.9347,45.8847-37.5452,15.9227 3.2375-.5323 17.7055,4.1306 16.6167-15.8131-5.0477-38.993-23.6624,19.2844-36.5093,21.4733-9.4657-3.5865 17.7172-25.5513-.5717-31.7449-8.0499,6.6245-20.0613,39.5368-28.9918,22.9363 19.2261-37.4858-22.1494-46.1247-37.3637-30.7117-12.2866-17.2441-39.2509,27.4655-40.0734-.7211 3.678-8.2702 30.4337-11.8787 18.9578-17.6524-12.3813,12.271-31.4754-.4512-34.2687-11.2684-17.416,6.8354 14.0037-33.2462-5.8632-19.9869-22.0214,6.4639-38.0288-25.8578-30.6751-55.5227-11.5131-18.3073-37.5364,38.1985-33.7556-4.3046-9.0605-7.5473-14.0631-17.4837-.8309-21.3789 19.7715-13.3435 23.3278-58.9838 1.5437-63.2473 .9056-34.8012 24.8855-49.4463 41.9169-63.1474 59.602-46.5423 127.9671-49.4562 193.2403-55.7699 29.5867-.9973 59.3533,1.8365 88.345,11.4235zm16.1594,97.3997c-23.5086,6.4516-21.5754,50.8256-32.2516,75.7031-25.0676,60.9962-82.6748,83.8188-122.4321,44.1457-19.9401-17.2132-41.2401-45.0517-40.9498-83.6521-8.282-40.8285-39.2155-18.7174-53.9183-.3243-21.6918,18.919-17.4888,63.0318 3.4332,78.7287 22.6404,26.8022 49.5938,44.1764 76.7403,56.4588 60.1722,20.0632 123.8632-8.0739 174.1796-60.3441 13.6472-17.0306 34.7949-37.1491 29.4445-68.9592-5.5715-22.1274-20.8166-33.7328-34.2457-41.7566zm-147.5267,3.5295c-23.7404,16.8662-10.9073,80.3041 13.7876,78.9153 20.6135-7.9099 13.044-49.3798 .7413-65.1804-4.0541-6.2235-8.9067-11.6092-14.5287-13.7348zm163.0335,161.2498c-9.4007,2.7698 7.7441,8.7247 0,0zm-60.0449,38.3591c-11.8223-.56 5.3238,16.6774 0,0zm-41.1336,18.5276c13.3213,20.056-14.512,7.7968 0,0zm-194.7006-66.1528c-1.7989,24.047-16.3668-.1952 0,0zm81.9843,48.7114c1.2128,21.6038-16.6385-4.874 0,0zm36.2586,13.0886c-16.469,4.5654 .432,26.8142 0,0zm-18.1378,2.3354c-5.4799,6.3882-29.5937,39.4838-18.3727,11.1807 5.2148-6.5076 11.7607-10.1123 18.3727-11.1807zm-34.7734-.2357c-4.758,22.3338-15.589-3.6378 0,0z"/>
<path fill="#999" d="m273.5503,75.6682c-3.7021-.0008-7.4267,.0629-11.125,.1875-65.2732,6.3136-133.6168,9.239-193.2188,55.7813-17.0314,13.7011-41.032,28.3551-41.9375,63.1562 21.7841,4.2634 18.2403,49.9066-1.5312,63.25-13.2319,3.8951-8.248,13.8277 .8125,21.375-3.7808,42.5032 22.2682-14.0261 33.7812,4.2812-7.3537,29.6649 8.6348,61.9952 30.6562,55.5312 19.8669-13.2593-11.5409,26.8354 5.875,20 1.469,5.6886 7.4556,11.8884 14.5938,14.7188l43.125-43.125c-11.9032-8.7892-23.2833-19.1405-33.75-31.5312-20.922-15.6968-25.1293-59.7997-3.4375-78.7188 14.7028-18.3931 45.6242-40.516 53.9062,.3125-.214,28.4619 11.3129,51.0604 25.375,67.875l25.5625-25.5938c-16.9332-13.9836-22.7085-60.8025-2.8125-74.9375 5.6221,2.1257 10.4459,7.4953 14.5,13.7188 6.4483,8.2815 11.5911,23.6121 12.0625,37.4688l136.4375-136.4063c-10.3587-6.0273-20.8965-11.3794-31.6562-15.7188-25.3678-8.3886-51.3041-11.6195-77.2188-11.625zm-186.9688,264.5313c-16.3667-.1957-1.7989,24.047-0,0z"/>
</svg>
