<?xml version="1.0" encoding="UTF-8" standalone="no"?>
<svg
   xmlns:svg="http://www.w3.org/2000/svg"
   xmlns="http://www.w3.org/2000/svg"
   viewBox="0 0 512 512"
   height="512"
   width="512"
   id="svg2"
   version="1.1">
  <defs
     id="defs6" />
  <path
     id="path853"
     d="M 168,248 264,104 V 392 L 360,248"
     style="fill:none;stroke:#000000;stroke-width:16;stroke-linecap:butt;stroke-linejoin:round;stroke-miterlimit:4;stroke-dasharray:none;stroke-opacity:1" />
  <path
     d="m 136,248 c 0,-17.664 14.336,-32 32,-32 17.664,0 32,14.336 32,32 0,17.664 -14.336,32 -32,32 -17.664,0 -32,-14.336 -32,-32"
     id="0"
     style="fill:#ff0000;stroke-width:32" />
  <path
     style="fill:#ff0000;stroke-width:32"
     id="path1002"
     d="m 328,248 c 0,-17.664 14.336,-32 32,-32 17.664,0 32,14.336 32,32 0,17.664 -14.336,32 -32,32 -17.664,0 -32,-14.336 -32,-32" />
</svg>
