<svg xmlns="http://www.w3.org/2000/svg" xmlns:xlink="http://www.w3.org/1999/xlink" viewBox="0 0 512 512"><defs><linearGradient id="0"><stop/><stop offset="1" style="stop-opacity:0"/></linearGradient><linearGradient gradientTransform="matrix(2.77439 0 0 1.96971-1892.18-872.89)" id="1" y1="366.65" y2="609.5" gradientUnits="userSpaceOnUse" x2="0"><stop style="stop-opacity:0"/><stop offset=".5"/><stop offset="1" style="stop-opacity:0"/></linearGradient><radialGradient cx="55" cy="125" id="8" r="14.375" gradientUnits="userSpaceOnUse"><stop style="stop-color:#fff"/><stop offset=".5" style="stop-color:#f4e900;stop-opacity:.89"/><stop offset="1" style="stop-color:#d9cf00;stop-opacity:0"/></radialGradient><radialGradient cx="605.71" cy="486.65" gradientTransform="matrix(2.77439 0 0 1.96971-1891.63-872.89)" xlink:href="#0" id="9" r="117.14" gradientUnits="userSpaceOnUse"/><radialGradient cx="9.412" cy="18.811" xlink:href="#B" id="A" r="1.208" gradientUnits="userSpaceOnUse"/><radialGradient cx="605.71" cy="486.65" gradientTransform="matrix(-2.77439 0 0 1.96971 112.76-872.89)" xlink:href="#0" id="7" r="117.14" gradientUnits="userSpaceOnUse"/><radialGradient cx="20.892" cy="114.57" r="5.256" id="6" gradientUnits="userSpaceOnUse"><stop style="stop-color:#f0f0f0"/><stop offset="1" style="stop-color:#9a9a9a"/></radialGradient><radialGradient cx="33.967" cy="35.737" gradientTransform="matrix(10.24525 0 0 11.1054-9.434-461.62)" r="86.71" id="2" gradientUnits="userSpaceOnUse"><stop style="stop-color:#fafafa"/><stop offset="1" style="stop-color:#dcdcdc"/></radialGradient><radialGradient cx="20.892" cy="64.57" r="5.257" id="B" gradientUnits="userSpaceOnUse" xlink:href="#6"/><radialGradient cx="9.412" cy="30.3" xlink:href="#6" id="3" r="1.207" gradientUnits="userSpaceOnUse"/><radialGradient cx="8.824" cy="3.756" gradientTransform="matrix(10.32824 0 0 11.0162 26.337-454.72)" r="37.752" id="5" gradientUnits="userSpaceOnUse"><stop style="stop-color:#a3a3a3"/><stop offset="1" style="stop-color:#4c4c4c"/></radialGradient><radialGradient cx="8.144" cy="7.268" gradientTransform="matrix(10.32824 0 0 11.0162 26.337-454.72)" r="38.16" id="4" gradientUnits="userSpaceOnUse"><stop style="stop-color:#fff"/><stop offset="1" style="stop-color:#f8f8f8"/></radialGradient></defs><g style="color:#000"><g transform="matrix(.23095 0 0 .15848 449.31 457.69)"><path d="m-1559.25-150.7h1339.63v478.36h-1339.63z" style="fill:url(#1);opacity:.402"/><path d="m-219.62-150.68c0 0 0 478.33 0 478.33 142.87.9 345.4-107.17 345.4-239.2 0-132.03-159.44-239.13-345.4-239.13" style="fill:url(#9);opacity:.402"/><path d="m-1559.25-150.68c0 0 0 478.33 0 478.33-142.87.9-345.4-107.17-345.4-239.2 0-132.03 159.44-239.13 345.4-239.13" style="fill:url(#7);opacity:.402"/></g><g transform="translate(0 464)" style="display:block;stroke-linecap:round;stroke-linejoin:round;stroke-width:10.667"><path d="m73.26-422.72h347.49a12.2565 12.2565 0 0 1 12.256 12.257v411.97a12.2565 12.2565 0 0 1 -12.256 12.2565h-347.49a12.2565 12.2565 0 0 1 -12.2565 -12.2565v-411.97a12.2565 12.2565 0 0 1 12.2565 -12.257" style="fill:url(#2);stroke:url(#5)"/><path d="m73.927-412.72h346.43a1.5898 1.5898 0 0 1 1.59 1.59v412.25a1.5898 1.5898 0 0 1 -1.59 1.5898h-346.43a1.5898 1.5898 0 0 1 -1.5899 -1.5898v-412.25a1.5898 1.5898 0 0 1 1.5899 -1.59" style="fill:none;stroke:url(#4)"/></g></g><g transform="matrix(2.45016 0 0 2.45016 50.44 47.26)" style="fill:#fff"><path d="m23.428 113.07c0 1.973-1.6 3.572-3.573 3.572-1.974 0-3.573-1.6-3.573-3.572 0-1.974 1.6-3.573 3.573-3.573 1.973 0 3.573 1.6 3.573 3.573"/><path d="m23.428 63.07c0 1.973-1.6 3.573-3.573 3.573-1.974 0-3.573-1.6-3.573-3.573 0-1.974 1.6-3.573 3.573-3.573 1.973 0 3.573 1.6 3.573 3.573"/></g><g transform="matrix(10.66666 0 0 10.66666-2.539 1.976)"><path d="m9.995 29.952c0 .453-.367.82-.821.82-.453 0-.821-.367-.821-.82 0-.453.367-.821.821-.821.453 0 .821.367.821.821" style="fill:url(#3)"/><path d="m9.995 18.467c0 .453-.367.821-.821.821-.453 0-.821-.367-.821-.821 0-.453.367-.821.821-.821.453 0 .821.367.821.821" style="fill:url(#A)"/></g><g transform="translate(0 464)" style="fill:none"><path d="m113.29-403.01v404.34" style="stroke-opacity:.018;stroke:#000;stroke-width:10.545"/><path d="m123.9-408.07v405.52" style="stroke-opacity:.205;stroke:#fff;stroke-width:10.667"/></g><path d="m69.375 125a14.375 14.375 0 1 1 -28.75 0 14.375 14.375 0 1 1 28.75 0" transform="matrix(8.35511 0 0 8.35511-77.07-921.9)" style="fill:url(#8);display:block;color:#000"/></svg>