<?xml version="1.0" encoding="UTF-8" standalone="no"?>
<svg
   xmlns:dc="http://purl.org/dc/elements/1.1/"
   xmlns:cc="http://creativecommons.org/ns#"
   xmlns:rdf="http://www.w3.org/1999/02/22-rdf-syntax-ns#"
   xmlns:svg="http://www.w3.org/2000/svg"
   xmlns="http://www.w3.org/2000/svg"
   xmlns:sodipodi="http://sodipodi.sourceforge.net/DTD/sodipodi-0.dtd"
   xmlns:inkscape="http://www.inkscape.org/namespaces/inkscape"
   width="512"
   height="512"
   id="svg2"
   version="1.1"
   inkscape:version="0.48.2 r9819"
   sodipodi:docname="SelectBlockReferences.svg">
  <metadata
     id="metadata12">
    <rdf:RDF>
      <cc:Work
         rdf:about="">
        <dc:format>image/svg+xml</dc:format>
        <dc:type
           rdf:resource="http://purl.org/dc/dcmitype/StillImage" />
        <dc:title></dc:title>
      </cc:Work>
    </rdf:RDF>
  </metadata>
  <sodipodi:namedview
     pagecolor="#ffffff"
     bordercolor="#666666"
     borderopacity="1"
     objecttolerance="10"
     gridtolerance="10"
     guidetolerance="10"
     inkscape:pageopacity="0"
     inkscape:pageshadow="2"
     inkscape:window-width="1658"
     inkscape:window-height="1144"
     id="namedview10"
     showgrid="false"
     inkscape:zoom="0.4609375"
     inkscape:cx="114.98305"
     inkscape:cy="295.05085"
     inkscape:window-x="648"
     inkscape:window-y="76"
     inkscape:window-maximized="0"
     inkscape:current-layer="svg2" />
  <defs
     id="defs4" />
  <g
     id="g3291"
     transform="matrix(0.40489862,0,0,0.40489862,41.716601,28.684576)"
     style="stroke-width:19.75803227000000106;stroke-miterlimit:4;stroke-dasharray:none;stroke:#000000">
    <g
       id="g3271"
       style="fill:#fff6d5;stroke:#ffffff;stroke-width:19.75803227000000106;stroke-miterlimit:4;stroke-dasharray:none">
      <path
         id="path3273"
         d="m 376,312 -304,0 0,-224 304,0 0,224 z"
         inkscape:connector-curvature="0"
         style="stroke:#ffffff;stroke-width:19.75803227000000106;stroke-miterlimit:4;stroke-dasharray:none" />
      <path
         id="path3275"
         transform="matrix(1.06667,0,0,1.06667,-64.53333,-130.66665)"
         d="m 488,400 a 120,120 0 1 1 -240,0 120,120 0 1 1 240,0 z"
         inkscape:connector-curvature="0"
         style="stroke:#ffffff;stroke-width:18.52309736999999856;stroke-miterlimit:4;stroke-dasharray:none" />
    </g>
    <g
       id="g3277"
       style="fill:none;stroke:#ffffff;stroke-width:19.75803227000000106;stroke-miterlimit:4;stroke-dasharray:none">
      <path
         id="path3279"
         d="m 376,312 -304,0 0,-224 304,0 0,224 z"
         inkscape:connector-curvature="0"
         style="stroke:#ffffff;stroke-linecap:square;stroke-width:19.75803227000000106;stroke-miterlimit:4;stroke-dasharray:none" />
    </g>
  </g>
  <g
     transform="matrix(0.40489862,0,0,0.40489862,256.49626,139.32864)"
     id="g3301"
     style="stroke-width:19.75803227000000106;stroke-miterlimit:4;stroke-dasharray:none;stroke:#000000">
    <g
       style="fill:#fff6d5;stroke:#ffffff;stroke-width:19.75803227000000106;stroke-miterlimit:4;stroke-dasharray:none"
       id="g3303">
      <path
         style="stroke:#ffffff;stroke-width:19.75803227000000106;stroke-miterlimit:4;stroke-dasharray:none"
         inkscape:connector-curvature="0"
         d="m 376,312 -304,0 0,-224 304,0 0,224 z"
         id="path3305" />
      <path
         style="stroke:#ffffff;stroke-width:18.52309736999999856;stroke-miterlimit:4;stroke-dasharray:none"
         inkscape:connector-curvature="0"
         d="m 488,400 a 120,120 0 1 1 -240,0 120,120 0 1 1 240,0 z"
         transform="matrix(1.06667,0,0,1.06667,-64.53333,-130.66665)"
         id="path3307" />
    </g>
    <g
       style="fill:none;stroke:#ffffff;stroke-width:19.75803227000000106;stroke-miterlimit:4;stroke-dasharray:none"
       id="g3309">
      <path
         style="stroke:#ffffff;stroke-linecap:square;stroke-width:19.75803227000000106;stroke-miterlimit:4;stroke-dasharray:none"
         inkscape:connector-curvature="0"
         d="m 376,312 -304,0 0,-224 304,0 0,224 z"
         id="path3311" />
    </g>
  </g>
  <g
     id="g3313"
     transform="matrix(0.40489862,0,0,0.40489862,82.936936,276.00661)"
     style="stroke-width:19.75803227000000106;stroke-miterlimit:4;stroke-dasharray:none;stroke:#000000">
    <g
       id="g3315"
       style="fill:#fff6d5;stroke:#ffffff;stroke-width:19.75803227000000106;stroke-miterlimit:4;stroke-dasharray:none">
      <path
         id="path3317"
         d="m 376,312 -304,0 0,-224 304,0 0,224 z"
         inkscape:connector-curvature="0"
         style="stroke:#ffffff;stroke-width:19.75803227000000106;stroke-miterlimit:4;stroke-dasharray:none" />
      <path
         id="path3319"
         transform="matrix(1.06667,0,0,1.06667,-64.53333,-130.66665)"
         d="m 488,400 a 120,120 0 1 1 -240,0 120,120 0 1 1 240,0 z"
         inkscape:connector-curvature="0"
         style="stroke:#ffffff;stroke-width:18.52309736999999856;stroke-miterlimit:4;stroke-dasharray:none" />
    </g>
    <g
       id="g3321"
       style="fill:none;stroke:#ffffff;stroke-width:19.75803227000000106;stroke-miterlimit:4;stroke-dasharray:none">
      <path
         id="path3323"
         d="m 376,312 -304,0 0,-224 304,0 0,224 z"
         inkscape:connector-curvature="0"
         style="stroke:#ffffff;stroke-linecap:square;stroke-width:19.75803227000000106;stroke-miterlimit:4;stroke-dasharray:none" />
    </g>
  </g>
</svg>
