<svg xmlns="http://www.w3.org/2000/svg" viewBox="0 0 512 512"><defs><clipPath><path d="m-1232.69 355.15c29.24 0 52.96 23.682 52.96 52.923 0 29.24-23.72 52.96-52.96 52.96-29.24 0-52.96-23.72-52.96-52.96 0-29.24 23.72-52.923 52.96-52.923"/></clipPath><clipPath><path d="m141.13 537.57c-33.698-14.731-74.19-1.934-90.46 28.587-16.265 30.521-2.136 67.2 31.562 81.928 33.698 14.731 74.19 1.934 90.46-28.587 16.265-30.521 2.136-67.2-31.562-81.928m-8.957 16.809c23.446 10.25 33.3 35.764 21.984 57-11.316 21.236-39.516 30.15-62.962 19.898-23.446-10.25-33.29-35.791-21.969-57.03 11.317-21.236 39.502-30.12 62.948-19.871m8.957-16.809c-33.698-14.731-74.19-1.934-90.46 28.587-16.265 30.521-2.136 67.2 31.562 81.928 33.698 14.731 74.19 1.934 90.46-28.587 16.265-30.521 2.136-67.2-31.562-81.928m-8.964 16.822c23.446 10.25 33.3 35.764 21.984 57-11.316 21.236-39.516 30.15-62.962 19.898-23.446-10.25-33.29-35.791-21.969-57.03 11.317-21.236 39.501-30.12 62.948-19.871"/></clipPath><clipPath><path d="m141.13 537.57c-33.698-14.731-74.19-1.934-90.46 28.587-16.265 30.521-2.136 67.2 31.562 81.928 33.698 14.731 74.19 1.934 90.46-28.587 16.265-30.521 2.136-67.2-31.562-81.928m-8.957 16.809c23.446 10.25 33.3 35.764 21.984 57-11.316 21.236-39.516 30.15-62.962 19.898-23.446-10.25-33.29-35.791-21.969-57.03 11.317-21.236 39.502-30.12 62.948-19.871m8.957-16.809c-33.698-14.731-74.19-1.934-90.46 28.587-16.265 30.521-2.136 67.2 31.562 81.928 33.698 14.731 74.19 1.934 90.46-28.587 16.265-30.521 2.136-67.2-31.562-81.928m-8.964 16.822c23.446 10.25 33.3 35.764 21.984 57-11.316 21.236-39.516 30.15-62.962 19.898-23.446-10.25-33.29-35.791-21.969-57.03 11.317-21.236 39.501-30.12 62.948-19.871"/></clipPath><clipPath><path d="m-1232.69 355.15c29.24 0 52.96 23.682 52.96 52.923 0 29.24-23.72 52.96-52.96 52.96-29.24 0-52.96-23.72-52.96-52.96 0-29.24 23.72-52.923 52.96-52.923"/></clipPath></defs><g transform="translate(0-540.36)" style="stroke:#000;stroke-linecap:square;stroke-width:8;stroke-dashoffset:354.33"><path d="m40.03 644.36h431.95a.0271 .0097 0 0 1 .027 .01v367.98a.0271 .0097 0 0 1 -.027 .01h-431.95a.0271 .0097 0 0 1 -.0271 -.01v-367.98a.0271 .0097 0 0 1 .0271 -.01" style="fill:#fff"/><path d="m40.03 580.36h431.95a.0271 .0114 0 0 1 .027 .012v63.977a.0271 .0114 0 0 1 -.027 .011h-431.95a.0271 .0114 0 0 1 -.0271 -.011v-63.977a.0271 .0114 0 0 1 .0271 -.012"/><path d="m40 580.36h63.992a.004 .0017 0 0 1 .004 .002v63.996a.004 .0017 0 0 1 -.004 .002h-63.992a.004 .0017 0 0 1 -.004 -.002v-63.996a.004 .0017 0 0 1 .004 -.002" style="fill:#fff"/></g><g transform="matrix(.54167 0 0 .54167 113 149.33)"><g style="fill:#fff6d5"><path d="m376 312h-304v-224h304v224"/><path d="m456 296c0 70.69-57.31 128-128 128-70.69 0-128-57.31-128-128 0-70.69 57.31-128 128-128 70.69 0 128 57.31 128 128z" style="stroke:#000;stroke-width:16"/></g><path d="m376 312h-304v-224h304v224z" style="fill:none;stroke:#000;stroke-linecap:square;stroke-width:16"/></g></svg>