<svg width="512" xmlns="http://www.w3.org/2000/svg" height="512" xmlns:xlink="http://www.w3.org/1999/xlink">
<defs>
<clipPath clipPathUnits="userSpaceOnUse">
<path fill="#0f0" stroke="#0f0" color="#000" stroke-width="2.033" d="m141.1284,537.5701c-33.6977-14.7314-74.1905-1.9343-90.4551,28.587-16.2646,30.5213-2.1355,67.1971 31.5621,81.9285 33.6977,14.7314 74.1905,1.9343 90.4551-28.587 16.2646-30.5213 2.1355-67.1971-31.5621-81.9285zm-8.9572,16.8087c23.4461,10.2498 33.3001,35.7639 21.9836,56.9999-11.3165,21.236-39.516,30.148-62.962,19.8982-23.4461-10.2498-33.2856-35.7911-21.9691-57.0271 11.3165-21.236 39.5015-30.1208 62.9476-19.871zm8.9572-16.8087c-33.6977-14.7314-74.1905-1.9343-90.4551,28.587-16.2646,30.5213-2.1355,67.1971 31.5621,81.9285 33.6977,14.7314 74.1905,1.9343 90.4551-28.587 16.2646-30.5213 2.1355-67.1971-31.5621-81.9285zm-8.9645,16.8223c23.4461,10.2498 33.3001,35.7639 21.9836,56.9999-11.3165,21.236-39.516,30.1481-62.9621,19.8983-23.4461-10.2498-33.2856-35.7912-21.9691-57.0272 11.3165-21.236 39.5015-30.1208 62.9476-19.871z"/>
</clipPath>
<clipPath clipPathUnits="userSpaceOnUse">
<path fill="none" stroke="#0f0" color="#000" stroke-width="2.399" d="m-1232.6874,355.1505c29.2402,0 52.96,23.6823 52.96,52.9226 0,29.2402-23.7198,52.9599-52.96,52.9599-29.2403,0-52.96-23.7197-52.96-52.9599 0-29.2403 23.7197-52.9226 52.96-52.9226z"/>
</clipPath>
<clipPath clipPathUnits="userSpaceOnUse">
<path fill="#0f0" stroke="#0f0" color="#000" stroke-width="2.033" d="m141.1284,537.5701c-33.6977-14.7314-74.1905-1.9343-90.4551,28.587-16.2646,30.5213-2.1355,67.1971 31.5621,81.9285 33.6977,14.7314 74.1905,1.9343 90.4551-28.587 16.2646-30.5213 2.1355-67.1971-31.5621-81.9285zm-8.9572,16.8087c23.4461,10.2498 33.3001,35.7639 21.9836,56.9999-11.3165,21.236-39.516,30.148-62.962,19.8982-23.4461-10.2498-33.2856-35.7911-21.9691-57.0271 11.3165-21.236 39.5015-30.1208 62.9476-19.871zm8.9572-16.8087c-33.6977-14.7314-74.1905-1.9343-90.4551,28.587-16.2646,30.5213-2.1355,67.1971 31.5621,81.9285 33.6977,14.7314 74.1905,1.9343 90.4551-28.587 16.2646-30.5213 2.1355-67.1971-31.5621-81.9285zm-8.9645,16.8223c23.4461,10.2498 33.3001,35.7639 21.9836,56.9999-11.3165,21.236-39.516,30.1481-62.9621,19.8983-23.4461-10.2498-33.2856-35.7912-21.9691-57.0272 11.3165-21.236 39.5015-30.1208 62.9476-19.871z"/>
</clipPath>
<clipPath clipPathUnits="userSpaceOnUse">
<path fill="none" stroke="#0f0" color="#000" stroke-width="2.399" d="m-1232.6874,355.1505c29.2402,0 52.96,23.6823 52.96,52.9226 0,29.2402-23.7198,52.9599-52.96,52.9599-29.2403,0-52.96-23.7197-52.96-52.9599 0-29.2403 23.7197-52.9226 52.96-52.9226z"/>
</clipPath>
</defs>
<g stroke="#fff" stroke-linecap="square" stroke-width="8" stroke-dashoffset="354.331" transform="translate(0 -540.3622)">
<path fill="#fff" d="m40.0271,644.362h431.9459a.0271,.0097 0 0,1 .027,.01v367.978a.0271,.0097 0 0,1 -.027,.01h-431.9459a.0271,.0097 0 0,1 -.0271-.01v-367.978a.0271,.0097 0 0,1 .0271-.01"/>
<path d="m40.0271,580.362h431.9459a.0271,.0114 0 0,1 .027,.012v63.977a.0271,.0114 0 0,1 -.027,.011h-431.9459a.0271,.0114 0 0,1 -.0271-.011v-63.977a.0271,.0114 0 0,1 .0271-.012"/>
<path fill="#fff" d="m40.004,580.362h63.992a.004,.0017 0 0,1 .004,.002v63.996a.004,.0017 0 0,1 -.004,.002h-63.992a.004,.0017 0 0,1 -.004-.002v-63.996a.004,.0017 0 0,1 .004-.002"/>
</g>
<g transform="matrix(.54167 0 0 .54167 113 149.33333)">
<g fill="#fff6d5">
<path d="m376,312-304,0 0-224 304,0 0,224z"/>
<path stroke="#fff" stroke-width="15" d="m488,400c0,66.2742-53.7258,120-120,120-66.2742,0-120-53.7258-120-120 0-66.2742 53.7258-120 120-120 66.2742,0 120,53.7258 120,120z" transform="matrix(1.06667 0 0 1.06667 -64.53333 -130.66665)"/>
</g>
<path fill="none" stroke="#fff" stroke-linecap="square" stroke-width="16" d="m376,312-304,0 0-224 304,0 0,224z"/>
</g>
</svg>
