<svg xmlns="http://www.w3.org/2000/svg" viewBox="0 0 96 48" xmlns:xlink="http://www.w3.org/1999/xlink">
<defs>
<linearGradient id="linearGradient2974">
<stop offset="0" stop-color="#c1c1c1"/>
<stop offset="1" stop-color="#acacac"/>
</linearGradient>
<linearGradient id="linearGradient2994">
<stop offset="0" stop-color="#000"/>
<stop offset="1" stop-color="#c9c9c9"/>
</linearGradient>
<linearGradient id="linearGradient2966">
<stop offset="0" stop-color="#ffd1d1"/>
<stop offset=".5" stop-color="#ff1d1d"/>
<stop offset="1" stop-color="#6f0000"/>
</linearGradient>
<linearGradient gradientTransform="translate(-5.66929)" id="linearGradient2554" xlink:href="#linearGradient2966" y1="17.376" y2="22.251" x1="48.906" x2="50.988" gradientUnits="userSpaceOnUse"/>
<linearGradient gradientTransform="translate(-5.66929)" id="linearGradient2556" xlink:href="#linearGradient2974" y1="19.812" y2="22.625" x1="46" x2="47.688" gradientUnits="userSpaceOnUse"/>
<linearGradient gradientTransform="translate(-5.82554 .125)" id="linearGradient2560" xlink:href="#linearGradient2994" y1="31.047" y2="30.703" x1="25.719" x2="25.515" gradientUnits="userSpaceOnUse"/>
<radialGradient cx="29.053" cy="27.641" gradientTransform="matrix(2.92356 0 0 2.02972 -61.5553 -27.8842)" r="3.241" id="radialGradient2558" gradientUnits="userSpaceOnUse">
<stop offset="0" stop-color="#e7e2b8"/>
<stop offset="1" stop-color="#e7e2b8" stop-opacity="0"/>
</radialGradient>
</defs>
<path d="m32.3047,8.1829c3.8639,1.5583 7.3996,4.5097 11.0085,7.0755 .6811,3.9586-4.3054-.9996-3.0521,2.4809 1.6459,2.4019 4.2938,3.1756 5.4433,6.2802 .5095,3.9283-2.3148,4.5369-4.0881,5.0899-1.7822,1.1428-3.1675,3.4186-5.0069,4.3812-.8847,2.9228-3.1036,3.2688-4.7267,5.0861-1.4162,.3151-2.6826,.8429-4.0128,1.5107-.1278-1.859-1.3246-4.0119-2.5189-1.95-.5275,1.8619-2.9939,4.3017-3.5199,1.4927 .3035-.0499 1.6599,.3872 1.5578-1.4825-.4732-3.6556-2.2184,1.8079-3.4228,2.0131-.8874-.3362 1.661-2.3954-.0536-2.9761-.7547,.6211-1.8808,3.7066-2.718,2.1503 1.8025-3.5143-2.0765-4.3242-3.5029-2.8792-1.1519-1.6166-3.6798,2.5749-3.7569-.0676 .3448-.7753 2.8532-1.1136 1.7773-1.6549-1.1607,1.1504-2.9508-.0423-3.2127-1.0564-1.6327,.6408 1.3129-3.1168-.5497-1.8738-2.0645,.606-3.5652-2.4242-2.8758-5.2053-1.0793-1.7163-3.519,3.5811-3.1646-.4036-.8494-.7076-1.3184-1.6391-.0779-2.0043 1.8536-1.2509 2.187-5.5297 .1447-5.9294 .0849-3.2626 2.333-4.6356 3.9297-5.9201 5.5877-4.3633 11.9969-4.6365 18.1163-5.2284 2.7738-.0935 5.5644,.1722 8.2824,1.0709zm1.5149,9.1312c-2.2039,.6048-2.0227,4.7649-3.0236,7.0972-2.3501,5.7184-7.7508,7.858-11.478,4.1387-1.8694-1.6137-3.8663-4.2236-3.839-7.8424-.7764-3.8277-3.6765-1.7548-5.0548-.0304-2.0336,1.7737-1.6396,5.9092 .3219,7.3808 2.1225,2.5127 4.6494,4.1415 7.1944,5.293 5.6411,1.8809 11.6122-.7569 16.3294-5.6573 1.2794-1.5966 3.262-3.4827 2.7604-6.4649-.5223-2.0744-1.9516-3.1624-3.2105-3.9147zm-13.8306,.3309c-2.2257,1.5812-1.0226,7.5285 1.2926,7.3983 1.9325-.7416 1.2229-4.6294 .0695-6.1107-.3801-.5834-.835-1.0884-1.3621-1.2876zm15.2844,15.1172c-.8813,.2597 .726,.8179 0,0zm-5.6292,3.5962c-1.1083-.0525 .4991,1.5635 0,0zm-3.8563,1.737c1.2489,1.8803-1.3605,.7309 0,0zm-18.2532-6.2018c-.1687,2.2544-1.5344-.0184 0,0zm7.686,4.5667c.1137,2.0254-1.5599-.4569 0,0zm3.3993,1.2271c-1.544,.428 .0405,2.5138 0,0zm-1.7004,.2189c-.5137,.5989-2.7744,3.7016-1.7224,1.0482 .4889-.6101 1.1026-.948 1.7224-1.0482zm-3.26-.0221c-.4461,2.0938-1.4615-.341 0,0z"/>
<g fill-rule="evenodd" transform="matrix(1.59144 -.56621 .5901 1.52702 41.97298 -42.16378)">
<path fill="#cb9022" stroke="#5c410c" stroke-width=".934" d="m17.3412,32.5 5.625-5.625 20.0937-9.75c3.25-1.25 5.1875,3.375 2.3125,5l-20.0312,9.375-8,1z" transform="translate(-29.7555 19)"/>
<path fill="url(#linearGradient2554)" d="m38.3307,20c0,0 1.4375,.0938 2,1.3438 .5795,1.2878 0,2.6562 0,2.6562l5.0312-2.4688c0,0 1.452-.8814 .6562-2.8438-.7849-1.9356-2.6875-1.1562-2.6875-1.1562l-5,2.4688z" transform="translate(-29.7555 19)"/>
<path fill="url(#linearGradient2556)" d="m38.3307,20c0,0 1.4375,.0938 2,1.3438 .5795,1.2878 0,2.6562 0,2.6562l2-1c0,0 .827-1.3189 .2188-2.6875-.625-1.4062-2.2188-1.3125-2.2188-1.3125l-2,1z" transform="translate(-29.7555 19)"/>
<path fill="url(#radialGradient2558)" d="m18.7682,31.7812 4.5-4.5c1.5,.8125 2.2812,2.1562 1.875,3.7188l-6.375,.7812z" transform="translate(-29.7555 19)"/>
<path fill="url(#linearGradient2560)" d="m20.112,30.375-1.625,1.5938 2.3438-.3125c.2188-.7188-.1875-1.0625-.7188-1.2812z" transform="translate(-29.7555 19)"/>
<g fill-opacity=".364">
<path fill="#fff" d="m23.2682,27.25 1.5625,1.25 15.3873-7.3187c-.4444-.856-1.2418-1.0846-1.9034-1.1623l-15.0465,7.2309z" transform="translate(-29.7555 19)"/>
<path d="m25.1432,31.0625 .1875-.75 15.2311-7.1296c0,0-.1102,.6136-.2159,.7493l-15.2027,7.1303z" transform="translate(-29.7555 19)"/>
</g>
</g>
</svg>
