<?xml version="1.0" encoding="UTF-8" standalone="no"?>
<svg
   xmlns:dc="http://purl.org/dc/elements/1.1/"
   xmlns:cc="http://creativecommons.org/ns#"
   xmlns:rdf="http://www.w3.org/1999/02/22-rdf-syntax-ns#"
   xmlns:svg="http://www.w3.org/2000/svg"
   xmlns="http://www.w3.org/2000/svg"
   xmlns:xlink="http://www.w3.org/1999/xlink"
   xmlns:sodipodi="http://sodipodi.sourceforge.net/DTD/sodipodi-0.dtd"
   xmlns:inkscape="http://www.inkscape.org/namespaces/inkscape"
   width="48"
   height="48"
   id="svg2"
   version="1.1"
   inkscape:version="0.91 r13725"
   sodipodi:docname="blockstatus_01.svg">
  <metadata
     id="metadata53">
    <rdf:RDF>
      <cc:Work
         rdf:about="">
        <dc:format>image/svg+xml</dc:format>
        <dc:type
           rdf:resource="http://purl.org/dc/dcmitype/StillImage" />
        <dc:title></dc:title>
      </cc:Work>
    </rdf:RDF>
  </metadata>
  <sodipodi:namedview
     pagecolor="#ffffff"
     bordercolor="#666666"
     borderopacity="1"
     objecttolerance="10"
     gridtolerance="10"
     guidetolerance="10"
     inkscape:pageopacity="0"
     inkscape:pageshadow="2"
     inkscape:window-width="1607"
     inkscape:window-height="939"
     id="namedview51"
     showgrid="false"
     inkscape:zoom="2.8541667"
     inkscape:cx="48"
     inkscape:cy="24"
     inkscape:window-x="0"
     inkscape:window-y="0"
     inkscape:window-maximized="0"
     inkscape:current-layer="svg2" />
  <defs
     id="defs4">
    <linearGradient
       id="linearGradient2974">
      <stop
         offset="0"
         stop-color="#c1c1c1"
         id="stop7" />
      <stop
         offset="1"
         stop-color="#acacac"
         id="stop9" />
    </linearGradient>
    <linearGradient
       id="linearGradient2994">
      <stop
         offset="0"
         stop-color="#000"
         id="stop12" />
      <stop
         offset="1"
         stop-color="#c9c9c9"
         id="stop14" />
    </linearGradient>
    <linearGradient
       id="linearGradient2966">
      <stop
         offset="0"
         stop-color="#ffd1d1"
         id="stop17" />
      <stop
         offset=".5"
         stop-color="#ff1d1d"
         id="stop19" />
      <stop
         offset="1"
         stop-color="#6f0000"
         id="stop21" />
    </linearGradient>
    <linearGradient
       gradientTransform="translate(-5.66929,0)"
       id="linearGradient2554"
       xlink:href="#linearGradient2966"
       y1="17.375999"
       y2="22.250999"
       x1="48.905998"
       x2="50.987999"
       gradientUnits="userSpaceOnUse" />
    <linearGradient
       gradientTransform="translate(-5.66929,0)"
       id="linearGradient2556"
       xlink:href="#linearGradient2974"
       y1="19.812"
       y2="22.625"
       x1="46"
       x2="47.688"
       gradientUnits="userSpaceOnUse" />
    <linearGradient
       gradientTransform="translate(-5.82554,0.125)"
       id="linearGradient2560"
       xlink:href="#linearGradient2994"
       y1="31.047001"
       y2="30.702999"
       x1="25.719"
       x2="25.514999"
       gradientUnits="userSpaceOnUse" />
    <radialGradient
       cx="29.052999"
       cy="27.641001"
       gradientTransform="matrix(2.92356,0,0,2.02972,-61.5553,-27.8842)"
       r="3.2409999"
       id="radialGradient2558"
       gradientUnits="userSpaceOnUse">
      <stop
         offset="0"
         stop-color="#e7e2b8"
         id="stop27" />
      <stop
         offset="1"
         stop-color="#e7e2b8"
         stop-opacity="0"
         id="stop29" />
    </radialGradient>
  </defs>
  <g
     transform="matrix(1.59144,-0.56621,0.5901,1.52702,-6.02702,-42.16378)"
     id="g33"
     style="fill-rule:evenodd">
    <path
       d="m 17.3412,32.5 5.625,-5.625 20.0937,-9.75 c 3.25,-1.25 5.1875,3.375 2.3125,5 l -20.0312,9.375 -8,1 z"
       transform="translate(-29.7555,19)"
       id="path35"
       inkscape:connector-curvature="0"
       style="fill:#cb9022;stroke:#5c410c;stroke-width:0.93400002" />
    <path
       d="m 38.3307,20 c 0,0 1.4375,0.0938 2,1.3438 0.5795,1.2878 0,2.6562 0,2.6562 l 5.0312,-2.4688 c 0,0 1.452,-0.8814 0.6562,-2.8438 -0.7849,-1.9356 -2.6875,-1.1562 -2.6875,-1.1562 l -5,2.4688 z"
       transform="translate(-29.7555,19)"
       id="path37"
       inkscape:connector-curvature="0"
       style="fill:url(#linearGradient2554)" />
    <path
       d="m 38.3307,20 c 0,0 1.4375,0.0938 2,1.3438 0.5795,1.2878 0,2.6562 0,2.6562 l 2,-1 c 0,0 0.827,-1.3189 0.2188,-2.6875 C 41.9245,18.9063 40.3307,19 40.3307,19 l -2,1 z"
       transform="translate(-29.7555,19)"
       id="path39"
       inkscape:connector-curvature="0"
       style="fill:url(#linearGradient2556)" />
    <path
       d="m 18.7682,31.7812 4.5,-4.5 c 1.5,0.8125 2.2812,2.1562 1.875,3.7188 l -6.375,0.7812 z"
       transform="translate(-29.7555,19)"
       id="path41"
       inkscape:connector-curvature="0"
       style="fill:url(#radialGradient2558)" />
    <path
       d="m 20.112,30.375 -1.625,1.5938 2.3438,-0.3125 c 0.2188,-0.7188 -0.1875,-1.0625 -0.7188,-1.2812 z"
       transform="translate(-29.7555,19)"
       id="path43"
       inkscape:connector-curvature="0"
       style="fill:url(#linearGradient2560)" />
    <g
       id="g45"
       style="fill-opacity:0.36400003">
      <path
         d="M 23.2682,27.25 24.8307,28.5 40.218,21.1813 C 39.7736,20.3253 38.9762,20.0967 38.3146,20.019 L 23.2681,27.2499 Z"
         transform="translate(-29.7555,19)"
         id="path47"
         inkscape:connector-curvature="0"
         style="fill:#ffffff" />
      <path
         d="m 25.1432,31.0625 0.1875,-0.75 15.2311,-7.1296 c 0,0 -0.1102,0.6136 -0.2159,0.7493 l -15.2027,7.1303 z"
         transform="translate(-29.7555,19)"
         id="path49"
         inkscape:connector-curvature="0" />
    </g>
  </g>
</svg>
