<?xml version="1.0" encoding="UTF-8" standalone="no"?>
<svg
   xmlns:dc="http://purl.org/dc/elements/1.1/"
   xmlns:cc="http://creativecommons.org/ns#"
   xmlns:rdf="http://www.w3.org/1999/02/22-rdf-syntax-ns#"
   xmlns:svg="http://www.w3.org/2000/svg"
   xmlns="http://www.w3.org/2000/svg"
   xmlns:sodipodi="http://sodipodi.sourceforge.net/DTD/sodipodi-0.dtd"
   xmlns:inkscape="http://www.inkscape.org/namespaces/inkscape"
   width="512"
   height="512"
   id="svg3009"
   version="1.1"
   inkscape:version="0.48.2 r9819"
   sodipodi:docname="Visible0.svg">
  <metadata
     id="metadata3023">
    <rdf:RDF>
      <cc:Work
         rdf:about="">
        <dc:format>image/svg+xml</dc:format>
        <dc:type
           rdf:resource="http://purl.org/dc/dcmitype/StillImage" />
      </cc:Work>
    </rdf:RDF>
  </metadata>
  <sodipodi:namedview
     pagecolor="#ffffff"
     bordercolor="#666666"
     borderopacity="1"
     objecttolerance="10"
     gridtolerance="10"
     guidetolerance="10"
     inkscape:pageopacity="0"
     inkscape:pageshadow="2"
     inkscape:window-width="1035"
     inkscape:window-height="860"
     id="namedview3021"
     showgrid="false"
     inkscape:zoom="0.45572917"
     inkscape:cx="264.13714"
     inkscape:cy="142.49143"
     inkscape:window-x="994"
     inkscape:window-y="257"
     inkscape:window-maximized="0"
     inkscape:current-layer="svg3009" />
  <defs
     id="defs3011" />
  <path
     d="m 350.71947,87.390107 c 41.18918,16.611483 78.87974,48.073403 117.35061,75.424833 7.26053,42.19867 -45.89556,-10.65574 -32.53538,26.44639 17.54529,25.60426 45.7719,33.8519 58.02557,66.94693 5.43127,41.87568 -24.67576,48.36336 -43.57914,54.25834 -18.99825,12.18225 -33.76555,36.44227 -53.37356,46.70359 -9.4309,31.15705 -33.08437,34.84541 -50.38662,54.21783 -15.09669,3.35896 -28.59651,8.98531 -42.77644,16.10406 -1.36235,-19.81694 -14.12024,-42.76686 -26.85148,-20.787 -5.62315,19.84785 -31.91497,45.85612 -37.52213,15.91218 3.23531,-0.53193 17.69453,4.12755 16.60615,-15.80345 -5.04431,-38.9687 -23.64815,19.27221 -36.48705,21.45965 -9.45968,-3.5839 17.70626,-25.53497 -0.57138,-31.72523 -8.0451,6.62093 -20.04932,39.51236 -28.97388,22.9222 19.21465,-37.46244 -22.13549,-46.09597 -37.34091,-30.69227 -12.27925,-17.23296 -39.22667,27.44843 -40.04856,-0.72062 3.67557,-8.2647 30.41512,-11.87098 18.94602,-17.64123 -12.37306,12.26326 -31.455525,-0.45092 -34.247375,-11.26123 -17.40458,6.83093 13.995505,-33.22509 -5.8598,-19.97471 -22.00757,6.45996 -38.00504,-25.84197 -30.65603,-55.48849 -11.50534,-18.29576 -37.51254,38.17452 -33.73464,-4.30238 -9.0546,-7.54302 -14.05414,-17.47281 -0.83041,-21.36584 19.75937,-13.33459 23.31342,-58.9466 1.5425,-63.2074 0.90503,-34.77932 24.86978,-49.4155 41.8906,-63.10827 C 128.87101,85.195207 197.19309,82.282897 262.42589,75.973247 c 29.56871,-0.99671 59.31651,1.83565 88.29038,11.41579 z m 16.14884,97.338593 c -23.49358,6.44717 -21.56199,50.79383 -32.23158,75.65615 -25.05206,60.95815 -82.62352,83.76628 -122.35548,44.11854 -19.9278,-17.20204 -41.21475,-45.02357 -40.92374,-83.59998 -8.27642,-40.80328 -39.19149,-18.70617 -53.88417,-0.32406 -21.678165,18.90764 -17.478125,62.99207 3.43146,78.67932 22.62585,26.78539 49.5626,44.14839 76.6923,56.42338 60.13413,20.0504 123.78606,-8.06855 174.0714,-60.30681 13.63841,-17.01976 34.77292,-37.12559 29.42587,-68.91584 -5.56772,-22.1131 -20.80406,-33.71118 -34.22393,-41.7307 z m -147.4342,3.52739 c -23.72596,16.8556 -10.90091,80.25381 13.77912,78.86588 20.60045,-7.90545 13.03611,-49.3494 0.74087,-65.14006 -4.05187,-6.21904 -8.9011,-11.60234 -14.51999,-13.72582 z m 162.9317,161.14936 c -9.39465,2.7684 7.73916,8.71881 0,0 z m -60.00726,38.33549 c -11.81448,-0.55965 5.3204,16.66691 0,0 z m -41.10816,18.51642 c 13.31327,20.044 -14.50293,7.79139 0,0 z M 86.671275,340.14617 c -1.79834,24.0319 -16.3567,-0.19508 0,0 z m 81.932765,48.68102 c 1.21204,21.59077 -16.62854,-4.87055 0,0 z m 36.23653,13.08089 c -16.45904,4.56248 0.43173,26.79711 0,0 z m -18.12626,2.33347 c -5.47604,6.38428 -29.5751,39.45906 -18.36078,11.17381 5.21167,-6.50366 11.75371,-10.10568 18.36078,-11.17381 z m -34.7516,-0.23558 c -4.75543,22.3199 -15.57959,-3.63506 0,0 z"
     id="path3013"
     inkscape:connector-curvature="0" />
</svg>
