<?xml version="1.0" encoding="UTF-8" standalone="no"?>
<svg
   xmlns:dc="http://purl.org/dc/elements/1.1/"
   xmlns:cc="http://creativecommons.org/ns#"
   xmlns:rdf="http://www.w3.org/1999/02/22-rdf-syntax-ns#"
   xmlns:svg="http://www.w3.org/2000/svg"
   xmlns="http://www.w3.org/2000/svg"
   xmlns:sodipodi="http://sodipodi.sourceforge.net/DTD/sodipodi-0.dtd"
   xmlns:inkscape="http://www.inkscape.org/namespaces/inkscape"
   viewBox="0 0 512 512"
   id="svg2"
   version="1.1"
   inkscape:version="0.91 r13725"
   sodipodi:docname="VisibleOn.svg">
  <metadata
     id="metadata10">
    <rdf:RDF>
      <cc:Work
         rdf:about="">
        <dc:format>image/svg+xml</dc:format>
        <dc:type
           rdf:resource="http://purl.org/dc/dcmitype/StillImage" />
      </cc:Work>
    </rdf:RDF>
  </metadata>
  <defs
     id="defs8" />
  <sodipodi:namedview
     pagecolor="#ffffff"
     bordercolor="#666666"
     borderopacity="1"
     objecttolerance="10"
     gridtolerance="10"
     guidetolerance="10"
     inkscape:pageopacity="0"
     inkscape:pageshadow="2"
     inkscape:window-width="756"
     inkscape:window-height="480"
     id="namedview6"
     showgrid="false"
     inkscape:zoom="0.4609375"
     inkscape:cx="256"
     inkscape:cy="256"
     inkscape:window-x="0"
     inkscape:window-y="23"
     inkscape:window-maximized="0"
     inkscape:current-layer="svg2" />
  <path
     d="m 350.72,87.39 c 41.19,16.611 78.88,48.07 117.35,75.42 7.261,42.2 -45.896,-10.656 -32.535,26.446 17.545,25.604 45.772,33.852 58.03,66.947 5.431,41.876 -24.676,48.36 -43.579,54.26 -18.998,12.182 -33.766,36.442 -53.37,46.704 -9.431,31.16 -33.08,34.845 -50.39,54.22 -15.1,3.359 -28.597,8.985 -42.776,16.1 -1.362,-19.817 -14.12,-42.767 -26.851,-20.787 -5.623,19.848 -31.915,45.856 -37.522,15.912 3.235,-0.532 17.695,4.128 16.606,-15.803 -5.04,-38.969 -23.648,19.272 -36.487,21.46 -9.46,-3.584 17.706,-25.535 -0.571,-31.725 -8.05,6.621 -20.05,39.512 -28.974,22.922 19.215,-37.462 -22.14,-46.1 -37.34,-30.692 -12.279,-17.233 -39.23,27.448 -40.05,-0.721 3.676,-8.265 30.415,-11.871 18.946,-17.641 -12.373,12.263 -31.456,-0.451 -34.25,-11.261 -17.405,6.831 13.996,-33.23 -5.86,-19.975 -22.01,6.46 -38.01,-25.842 -30.656,-55.49 -11.505,-18.296 -37.513,38.17 -33.735,-4.302 -9.05,-7.543 -14.05,-17.473 -0.83,-21.366 19.759,-13.335 23.313,-58.947 1.543,-63.21 0.905,-34.779 24.87,-49.42 41.891,-63.11 59.56,-46.513 127.89,-49.43 193.12,-55.735 29.569,-0.997 59.32,1.836 88.29,11.416 z m 16.15,97.34 c -23.494,6.447 -21.562,50.794 -32.23,75.66 -25.05,60.958 -82.62,83.77 -122.36,44.12 -19.928,-17.202 -41.21,-45.02 -40.924,-83.6 -8.276,-40.803 -39.19,-18.706 -53.884,-0.324 -21.678,18.908 -17.478,62.992 3.431,78.68 22.626,26.785 49.563,44.15 76.69,56.42 60.13,20.05 123.79,-8.07 174.07,-60.31 13.638,-17.02 34.773,-37.13 29.426,-68.916 -5.568,-22.11 -20.804,-33.711 -34.22,-41.731 z m -147.43,3.527 c -23.726,16.856 -10.901,80.25 13.779,78.866 20.6,-7.905 13.04,-49.35 0.741,-65.14 -4.052,-6.219 -8.901,-11.602 -14.52,-13.726 m 162.93,161.15 c -9.395,2.768 7.739,8.719 0,0 m -60.01,38.34 c -11.814,-0.56 5.32,16.667 0,0 m -41.11,18.516 c 13.313,20.04 -14.503,7.791 0,0 M 86.67,340.153 c -1.798,24.03 -16.357,-0.195 0,0 m 81.933,48.681 c 1.212,21.591 -16.629,-4.871 0,0 m 36.24,13.08 c -16.459,4.562 0.432,26.797 0,0 m -18.13,2.333 c -5.476,6.384 -29.575,39.459 -18.361,11.174 5.212,-6.504 11.754,-10.11 18.361,-11.174 m -34.752,-0.236 c -4.755,22.32 -15.58,-3.635 0,0"
     id="path4"
     inkscape:connector-curvature="0" />
</svg>
