  0
SECTION
  2
HEADER
  9
$ACADVER
  1
AC1024
  9
$ACADMAINTVER
 70
     6
  9
$DWGCODEPAGE
  3
ASCII
  9
$INSBASE
 10
0.0
 20
0.0
 30
0.0
  9
$EXTMIN
 10
1.000000000000000E+20
 20
1.000000000000000E+20
 30
1.000000000000000E+20
  9
$EXTMAX
 10
-1.000000000000000E+20
 20
-1.000000000000000E+20
 30
-1.000000000000000E+20
  9
$LIMMIN
 10
0.0
 20
0.0
  9
$LIMMAX
 10
12.0
 20
9.0
  9
$ORTHOMODE
 70
     0
  9
$REGENMODE
 70
     1
  9
$FILLMODE
 70
     1
  9
$QTEXTMODE
 70
     0
  9
$MIRRTEXT
 70
     1
  9
$LTSCALE
 40
1.0
  9
$ATTMODE
 70
     1
  9
$TEXTSIZE
 40
0.2
  9
$TRACEWID
 40
0.05
  9
$TEXTSTYLE
  7
Standard
  9
$CLAYER
  8
0
  9
$CELTYPE
  6
ByLayer
  9
$CECOLOR
 62
    18
  9
$CELTSCALE
 40
1.0
  9
$DISPSILH
 70
     0
  9
$DIMSCALE
 40
1.0
  9
$DIMASZ
 40
2.5
  9
$DIMEXO
 40
0.625
  9
$DIMDLI
 40
0.38
  9
$DIMRND
 40
0.0
  9
$DIMDLE
 40
0.0
  9
$DIMEXE
 40
1.25
  9
$DIMTP
 40
0.0
  9
$DIMTM
 40
0.0
  9
$DIMTXT
 40
2.5
  9
$DIMCEN
 40
0.09
  9
$DIMTSZ
 40
0.0
  9
$DIMTOL
 70
     0
  9
$DIMLIM
 70
     0
  9
$DIMTIH
 70
     1
  9
$DIMTOH
 70
     1
  9
$DIMSE1
 70
     0
  9
$DIMSE2
 70
     0
  9
$DIMTAD
 70
     0
  9
$DIMZIN
 70
     8
  9
$DIMBLK
  1

  9
$DIMASO
 70
     1
  9
$DIMSHO
 70
     1
  9
$DIMPOST
  1

  9
$DIMAPOST
  1

  9
$DIMALT
 70
     0
  9
$DIMALTD
 70
     2
  9
$DIMALTF
 40
25.4
  9
$DIMLFAC
 40
1.0
  9
$DIMTOFL
 70
     0
  9
$DIMTVP
 40
0.0
  9
$DIMTIX
 70
     0
  9
$DIMSOXD
 70
     0
  9
$DIMSAH
 70
     0
  9
$DIMBLK1
  1

  9
$DIMBLK2
  1

  9
$DIMSTYLE
  2
Standard
  9
$DIMCLRD
 70
    18
  9
$DIMCLRE
 70
    18
  9
$DIMCLRT
 70
    18
  9
$DIMTFAC
 40
1.0
  9
$DIMGAP
 40
0.625
  9
$DIMJUST
 70
     0
  9
$DIMSD1
 70
     0
  9
$DIMSD2
 70
     0
  9
$DIMTOLJ
 70
     1
  9
$DIMTZIN
 70
     0
  9
$DIMALTZ
 70
     0
  9
$DIMALTTZ
 70
     0
  9
$DIMUPT
 70
     0
  9
$DIMDEC
 70
     4
  9
$DIMTDEC
 70
     4
  9
$DIMALTU
 70
     2
  9
$DIMALTTD
 70
     2
  9
$DIMTXSTY
  7
Standard
  9
$DIMAUNIT
 70
     0
  9
$DIMADEC
 70
     0
  9
$DIMALTRND
 40
0.0
  9
$DIMAZIN
 70
     3
  9
$DIMDSEP
 70
    46
  9
$DIMATFIT
 70
     3
  9
$DIMFRAC
 70
     0
  9
$DIMLDRBLK
  1

  9
$DIMLUNIT
 70
     2
  9
$DIMLWD
 70
    -2
  9
$DIMLWE
 70
    -2
  9
$DIMTMOVE
 70
     0
  9
$DIMFXL
 40
1.0
  9
$DIMFXLON
 70
     0
  9
$DIMJOGANG
 40
0.7853981633974483
  9
$DIMTFILL
 70
     0
  9
$DIMTFILLCLR
 70
     0
  9
$DIMARCSYM
 70
     0
  9
$DIMLTYPE
  6

  9
$DIMLTEX1
  6

  9
$DIMLTEX2
  6

  9
$DIMTXTDIRECTION
 70
     0
  9
$LUNITS
 70
     2
  9
$LUPREC
 70
     4
  9
$SKETCHINC
 40
0.1
  9
$FILLETRAD
 40
0.5
  9
$AUNITS
 70
     0
  9
$AUPREC
 70
     0
  9
$MENU
  1
.
  9
$ELEVATION
 40
0.0
  9
$PELEVATION
 40
0.0
  9
$THICKNESS
 40
0.0
  9
$LIMCHECK
 70
     0
  9
$CHAMFERA
 40
0.5
  9
$CHAMFERB
 40
0.5
  9
$CHAMFERC
 40
1.0
  9
$CHAMFERD
 40
0.0
  9
$SKPOLY
 70
     0
  9
$TDCREATE
 40
2456313.767655255
  9
$TDUCREATE
 40
2456313.725988588
  9
$TDUPDATE
 40
2456313.767655799
  9
$TDUUPDATE
 40
2456313.725989132
  9
$TDINDWG
 40
0.0000000116
  9
$TDUSRTIMER
 40
0.0000000116
  9
$USRTIMER
 70
     1
  9
$ANGBASE
 50
0.0
  9
$ANGDIR
 70
     0
  9
$PDMODE
 70
     0
  9
$PDSIZE
 40
0.0
  9
$PLINEWID
 40
0.0
  9
$SPLFRAME
 70
     0
  9
$SPLINETYPE
 70
     6
  9
$SPLINESEGS
 70
     8
  9
$HANDSEED
  5
18E
  9
$SURFTAB1
 70
     6
  9
$SURFTAB2
 70
     6
  9
$SURFTYPE
 70
     6
  9
$SURFU
 70
     6
  9
$SURFV
 70
     6
  9
$UCSBASE
  2

  9
$UCSNAME
  2

  9
$UCSORG
 10
0.0
 20
0.0
 30
0.0
  9
$UCSXDIR
 10
1.0
 20
0.0
 30
0.0
  9
$UCSYDIR
 10
0.0
 20
1.0
 30
0.0
  9
$UCSORTHOREF
  2

  9
$UCSORTHOVIEW
 70
     0
  9
$UCSORGTOP
 10
0.0
 20
0.0
 30
0.0
  9
$UCSORGBOTTOM
 10
0.0
 20
0.0
 30
0.0
  9
$UCSORGLEFT
 10
0.0
 20
0.0
 30
0.0
  9
$UCSORGRIGHT
 10
0.0
 20
0.0
 30
0.0
  9
$UCSORGFRONT
 10
0.0
 20
0.0
 30
0.0
  9
$UCSORGBACK
 10
0.0
 20
0.0
 30
0.0
  9
$PUCSBASE
  2

  9
$PUCSNAME
  2

  9
$PUCSORG
 10
0.0
 20
0.0
 30
0.0
  9
$PUCSXDIR
 10
1.0
 20
0.0
 30
0.0
  9
$PUCSYDIR
 10
0.0
 20
1.0
 30
0.0
  9
$PUCSORTHOREF
  2

  9
$PUCSORTHOVIEW
 70
     0
  9
$PUCSORGTOP
 10
0.0
 20
0.0
 30
0.0
  9
$PUCSORGBOTTOM
 10
0.0
 20
0.0
 30
0.0
  9
$PUCSORGLEFT
 10
0.0
 20
0.0
 30
0.0
  9
$PUCSORGRIGHT
 10
0.0
 20
0.0
 30
0.0
  9
$PUCSORGFRONT
 10
0.0
 20
0.0
 30
0.0
  9
$PUCSORGBACK
 10
0.0
 20
0.0
 30
0.0
  9
$USERI1
 70
     0
  9
$USERI2
 70
     0
  9
$USERI3
 70
     0
  9
$USERI4
 70
     0
  9
$USERI5
 70
     0
  9
$USERR1
 40
0.0
  9
$USERR2
 40
0.0
  9
$USERR3
 40
0.0
  9
$USERR4
 40
0.0
  9
$USERR5
 40
0.0
  9
$WORLDVIEW
 70
     1
  9
$SHADEDGE
 70
     3
  9
$SHADEDIF
 70
    70
  9
$TILEMODE
 70
     1
  9
$MAXACTVP
 70
    64
  9
$PINSBASE
 10
0.0
 20
0.0
 30
0.0
  9
$PLIMCHECK
 70
     0
  9
$PEXTMIN
 10
1.000000000000000E+20
 20
1.000000000000000E+20
 30
1.000000000000000E+20
  9
$PEXTMAX
 10
-1.000000000000000E+20
 20
-1.000000000000000E+20
 30
-1.000000000000000E+20
  9
$PLIMMIN
 10
0.0
 20
0.0
  9
$PLIMMAX
 10
12.0
 20
9.0
  9
$UNITMODE
 70
     0
  9
$VISRETAIN
 70
     1
  9
$PLINEGEN
 70
     0
  9
$PSLTSCALE
 70
     1
  9
$TREEDEPTH
 70
  3020
  9
$CMLSTYLE
  2
Standard
  9
$CMLJUST
 70
     0
  9
$CMLSCALE
 40
1.0
  9
$PROXYGRAPHICS
 70
     1
  9
$MEASUREMENT
 70
     1
  9
$CELWEIGHT
370
    -1
  9
$ENDCAPS
280
     0
  9
$JOINSTYLE
280
     0
  9
$LWDISPLAY
290
     0
  9
$INSUNITS
 70
     4
  9
$HYPERLINKBASE
  1

  9
$STYLESHEET
  1

  9
$XEDIT
290
     1
  9
$CEPSNTYPE
380
     0
  9
$PSTYLEMODE
290
     1
  9
$FINGERPRINTGUID
  2
{11F80488-47B6-4144-AB04-F5FADC16BB69}
  9
$VERSIONGUID
  2
{FAEB1C32-E019-11D5-929B-00C0DF256EC4}
  9
$EXTNAMES
290
     1
  9
$PSVPSCALE
 40
0.0
  9
$OLESTARTUP
290
     0
  9
$SORTENTS
280
   127
  9
$INDEXCTL
280
     0
  9
$HIDETEXT
280
     1
  9
$XCLIPFRAME
280
     2
  9
$HALOGAP
280
     0
  9
$OBSCOLOR
 70
   257
  9
$OBSLTYPE
280
     0
  9
$INTERSECTIONDISPLAY
280
     0
  9
$INTERSECTIONCOLOR
 70
   257
  9
$DIMASSOC
280
     2
  9
$PROJECTNAME
  1

  9
$CAMERADISPLAY
290
     0
  9
$LENSLENGTH
 40
50.0
  9
$CAMERAHEIGHT
 40
0.0
  9
$STEPSPERSEC
 40
2.0
  9
$STEPSIZE
 40
6.0
  9
$3DDWFPREC
 40
2.0
  9
$PSOLWIDTH
 40
0.25
  9
$PSOLHEIGHT
 40
4.0
  9
$LOFTANG1
 40
1.570796326794897
  9
$LOFTANG2
 40
1.570796326794897
  9
$LOFTMAG1
 40
0.0
  9
$LOFTMAG2
 40
0.0
  9
$LOFTPARAM
 70
     7
  9
$LOFTNORMALS
280
     1
  9
$LATITUDE
 40
37.795
  9
$LONGITUDE
 40
-122.394
  9
$NORTHDIRECTION
 40
0.0
  9
$TIMEZONE
 70
 -8000
  9
$LIGHTGLYPHDISPLAY
280
     1
  9
$TILEMODELIGHTSYNCH
280
     1
  9
$CMATERIAL
347
121
  9
$SOLIDHIST
280
     1
  9
$SHOWHIST
280
     1
  9
$DWFFRAME
280
     2
  9
$DGNFRAME
280
     2
  9
$REALWORLDSCALE
290
     1
  9
$INTERFERECOLOR
 62
   256
  9
$CSHADOW
280
     0
  9
$SHADOWPLANELOCATION
 40
0.0
  0
ENDSEC
  0
SECTION
  2
CLASSES
  0
CLASS
  1
ACDBDICTIONARYWDFLT
  2
AcDbDictionaryWithDefault
  3
ObjectDBX Classes
 90
        0
 91
        4
280
     0
281
     0
  0
CLASS
  1
VISUALSTYLE
  2
AcDbVisualStyle
  3
ObjectDBX Classes
 90
     4095
 91
        4
280
     0
281
     0
  0
CLASS
  1
MATERIAL
  2
AcDbMaterial
  3
ObjectDBX Classes
 90
     1153
 91
        4
280
     0
281
     0
  0
CLASS
  1
SCALE
  2
AcDbScale
  3
ObjectDBX Classes
 90
     1153
 91
        4
280
     0
281
     0
  0
CLASS
  1
SUN
  2
AcDbSun
  3
SCENEOE
 90
     1153
 91
        4
280
     0
281
     0
  0
CLASS
  1
DICTIONARYVAR
  2
AcDbDictionaryVar
  3
ObjectDBX Classes
 90
        0
 91
        4
280
     0
281
     0
  0
ENDSEC
  0
SECTION
  2
TABLES
  0
TABLE
  2
VPORT
  5
EE
330
0
100
AcDbSymbolTable
 70
     1
  0
VPORT
  5
10E
330
EE
100
AcDbSymbolTableRecord
100
AcDbViewportTableRecord
  2
*Active
 70
     0
 10
0.0
 20
0.0
 11
1.0
 21
1.0
 12
10.42990654205607
 22
4.5
 13
0.0
 23
0.0
 14
0.5
 24
0.5
 15
0.5
 25
0.5
 16
0.0
 26
0.0
 36
1.0
 17
0.0
 27
0.0
 37
0.0
 40
9.0
 41
1.972972972850329
 42
50.0
 43
0.0
 44
0.0
 50
0.0
 51
0.0
 71
     0
 72
   100
 73
     1
 74
     3
 75
     0
 76
     0
 77
     0
 78
     0
281
     0
 65
     1
110
0.0
120
0.0
130
0.0
111
1.0
121
0.0
131
0.0
112
0.0
122
1.0
132
0.0
 79
     0
146
0.0
 60
     3
 61
     5
292
     1
282
     1
141
0.0
142
0.0
 63
   250
361
146
  0
ENDTAB
  0
TABLE
  2
LTYPE
  5
EB
330
0
100
AcDbSymbolTable
 70
    19
  0
LTYPE
  5
F9
330
EB
100
AcDbSymbolTableRecord
100
AcDbLinetypeTableRecord
  2
ByBlock
 70
     0
  3

 72
    65
 73
     0
 40
0.0
  0
LTYPE
  5
FA
330
EB
100
AcDbSymbolTableRecord
100
AcDbLinetypeTableRecord
  2
ByLayer
 70
     0
  3

 72
    65
 73
     0
 40
0.0
  0
LTYPE
  5
FB
330
EB
100
AcDbSymbolTableRecord
100
AcDbLinetypeTableRecord
  2
Continuous
 70
     0
  3
Solid line
 72
    65
 73
     0
 40
0.0
  0
LTYPE
  5
175
330
EB
100
AcDbSymbolTableRecord
100
AcDbLinetypeTableRecord
  2
BORDER
 70
     0
  3

 72
    65
 73
     6
 40
42.00000000000001
 49
12.0
 74
     0
 49
-6.0
 74
     0
 49
12.0
 74
     0
 49
-5.95
 74
     0
 49
0.1
 74
     0
 49
-5.95
 74
     0
  0
LTYPE
  5
176
330
EB
100
AcDbSymbolTableRecord
100
AcDbLinetypeTableRecord
  2
BORDER2
 70
     0
  3

 72
    65
 73
     6
 40
21.0
 49
6.0
 74
     0
 49
-3.0
 74
     0
 49
6.0
 74
     0
 49
-2.95
 74
     0
 49
0.1
 74
     0
 49
-2.95
 74
     0
  0
LTYPE
  5
177
330
EB
100
AcDbSymbolTableRecord
100
AcDbLinetypeTableRecord
  2
BORDERX2
 70
     0
  3

 72
    65
 73
     6
 40
84.0
 49
24.0
 74
     0
 49
-12.0
 74
     0
 49
24.0
 74
     0
 49
-11.95
 74
     0
 49
0.1
 74
     0
 49
-11.95
 74
     0
  0
LTYPE
  5
178
330
EB
100
AcDbSymbolTableRecord
100
AcDbLinetypeTableRecord
  2
CENTER
 70
     0
  3

 72
    65
 73
     4
 40
50.0
 49
32.0
 74
     0
 49
-6.0
 74
     0
 49
6.0
 74
     0
 49
-6.0
 74
     0
  0
LTYPE
  5
179
330
EB
100
AcDbSymbolTableRecord
100
AcDbLinetypeTableRecord
  2
CENTER2
 70
     0
  3

 72
    65
 73
     4
 40
25.0
 49
16.0
 74
     0
 49
-3.0
 74
     0
 49
3.0
 74
     0
 49
-3.0
 74
     0
  0
LTYPE
  5
17A
330
EB
100
AcDbSymbolTableRecord
100
AcDbLinetypeTableRecord
  2
CENTERX2
 70
     0
  3

 72
    65
 73
     4
 40
100.0
 49
64.0
 74
     0
 49
-12.0
 74
     0
 49
12.0
 74
     0
 49
-12.0
 74
     0
  0
LTYPE
  5
17B
330
EB
100
AcDbSymbolTableRecord
100
AcDbLinetypeTableRecord
  2
DASHDOT
 70
     0
  3

 72
    65
 73
     4
 40
24.0
 49
12.0
 74
     0
 49
-5.95
 74
     0
 49
0.1
 74
     0
 49
-5.95
 74
     0
  0
LTYPE
  5
17C
330
EB
100
AcDbSymbolTableRecord
100
AcDbLinetypeTableRecord
  2
DASHDOT2
 70
     0
  3

 72
    65
 73
     4
 40
12.0
 49
6.0
 74
     0
 49
-2.95
 74
     0
 49
0.1
 74
     0
 49
-2.95
 74
     0
  0
LTYPE
  5
17D
330
EB
100
AcDbSymbolTableRecord
100
AcDbLinetypeTableRecord
  2
DASHDOTX2
 70
     0
  3

 72
    65
 73
     4
 40
48.0
 49
24.0
 74
     0
 49
-11.95
 74
     0
 49
0.1
 74
     0
 49
-11.95
 74
     0
  0
LTYPE
  5
17E
330
EB
100
AcDbSymbolTableRecord
100
AcDbLinetypeTableRecord
  2
DASHED
 70
     0
  3

 72
    65
 73
     2
 40
18.0
 49
12.0
 74
     0
 49
-6.0
 74
     0
  0
LTYPE
  5
17F
330
EB
100
AcDbSymbolTableRecord
100
AcDbLinetypeTableRecord
  2
DASHED2
 70
     0
  3

 72
    65
 73
     2
 40
9.0
 49
6.0
 74
     0
 49
-3.0
 74
     0
  0
LTYPE
  5
180
330
EB
100
AcDbSymbolTableRecord
100
AcDbLinetypeTableRecord
  2
DASHEDX2
 70
     0
  3

 72
    65
 73
     2
 40
36.0
 49
24.0
 74
     0
 49
-12.0
 74
     0
  0
LTYPE
  5
181
330
EB
100
AcDbSymbolTableRecord
100
AcDbLinetypeTableRecord
  2
DIVIDE
 70
     0
  3

 72
    65
 73
     6
 40
29.99999999999999
 49
12.0
 74
     0
 49
-5.9
 74
     0
 49
0.15
 74
     0
 49
-5.9
 74
     0
 49
0.15
 74
     0
 49
-5.9
 74
     0
  0
LTYPE
  5
182
330
EB
100
AcDbSymbolTableRecord
100
AcDbLinetypeTableRecord
  2
DIVIDE2
 70
     0
  3

 72
    65
 73
     6
 40
15.0
 49
6.0
 74
     0
 49
-2.9
 74
     0
 49
0.15
 74
     0
 49
-2.9
 74
     0
 49
0.15
 74
     0
 49
-2.9
 74
     0
  0
LTYPE
  5
183
330
EB
100
AcDbSymbolTableRecord
100
AcDbLinetypeTableRecord
  2
DIVIDEX2
 70
     0
  3

 72
    65
 73
     6
 40
59.99999999999999
 49
24.0
 74
     0
 49
-11.9
 74
     0
 49
0.15
 74
     0
 49
-11.9
 74
     0
 49
0.15
 74
     0
 49
-11.9
 74
     0
  0
LTYPE
  5
184
330
EB
100
AcDbSymbolTableRecord
100
AcDbLinetypeTableRecord
  2
DOT
 70
     0
  3

 72
    65
 73
     2
 40
6.3
 49
0.1
 74
     0
 49
-6.2
 74
     0
  0
LTYPE
  5
185
330
EB
100
AcDbSymbolTableRecord
100
AcDbLinetypeTableRecord
  2
DOT2
 70
     0
  3

 72
    65
 73
     2
 40
3.2
 49
0.1
 74
     0
 49
-3.1
 74
     0
  0
LTYPE
  5
186
330
EB
100
AcDbSymbolTableRecord
100
AcDbLinetypeTableRecord
  2
DOTX2
 70
     0
  3

 72
    65
 73
     2
 40
12.5
 49
0.1
 74
     0
 49
-12.4
 74
     0
  0
ENDTAB
  0
TABLE
  2
LAYER
  5
E8
330
0
100
AcDbSymbolTable
 70
     2
  0
LAYER
  5
F6
330
E8
100
AcDbSymbolTableRecord
100
AcDbLayerTableRecord
  2
0
 70
     0
 62
     7
420
 16777215
  6
Continuous
370
    25
390
F5
347
123
  0
LAYER
  5
187
330
E8
100
AcDbSymbolTableRecord
100
AcDbLayerTableRecord
  2
Defpoints
 70
     0
 62
     7
420
 16777215
  6
Continuous
290
     0
370
    -3
390
F5
347
123
  0
ENDTAB
  0
TABLE
  2
STYLE
  5
E9
330
0
100
AcDbSymbolTable
 70
     2
  0
STYLE
  5
F7
330
E9
100
AcDbSymbolTableRecord
100
AcDbTextStyleTableRecord
  2
Standard
 70
     0
 40
0.0
 41
1.0
 50
0.0
 71
     0
 42
0.2
  3
txt
  4

  0
STYLE
  5
188
330
E9
100
AcDbSymbolTableRecord
100
AcDbTextStyleTableRecord
  2
textstyle0
 70
     0
 40
0.0
 41
1.0
 50
0.0
 71
     0
 42
0.2
  3
Standard
  4

1001
ACAD
1000
Standard
1071
        0
  0
ENDTAB
  0
TABLE
  2
VIEW
  5
EC
330
0
100
AcDbSymbolTable
 70
     0
  0
ENDTAB
  0
TABLE
  2
UCS
  5
ED
330
0
100
AcDbSymbolTable
 70
     0
  0
ENDTAB
  0
TABLE
  2
APPID
  5
EF
330
0
100
AcDbSymbolTable
 70
     2
  0
APPID
  5
F8
330
EF
100
AcDbSymbolTableRecord
100
AcDbRegAppTableRecord
  2
ACAD
 70
     0
  0
APPID
  5
147
330
EF
100
AcDbSymbolTableRecord
100
AcDbRegAppTableRecord
  2
QCAD
 70
     0
  0
ENDTAB
  0
TABLE
  2
DIMSTYLE
  5
F0
330
0
100
AcDbSymbolTable
 70
     2
100
AcDbDimStyleTable
  0
DIMSTYLE
105
10C
330
F0
100
AcDbSymbolTableRecord
100
AcDbDimStyleTableRecord
  2
Standard
 70
     0
178
     0
340
F7
  0
DIMSTYLE
105
174
330
F0
100
AcDbSymbolTableRecord
100
AcDbDimStyleTableRecord
  2
QCADDimStyle
 70
     0
 41
2.5
 42
0.625
 44
1.25
 73
     0
 77
     1
140
2.5
147
0.625
178
     0
340
F7
  0
ENDTAB
  0
TABLE
  2
BLOCK_RECORD
  5
E7
330
0
100
AcDbSymbolTable
 70
     1
  0
BLOCK_RECORD
  5
104
330
E7
100
AcDbSymbolTableRecord
100
AcDbBlockTableRecord
  2
*Model_Space
340
107
 70
     0
280
     1
281
     0
  0
BLOCK_RECORD
  5
100
330
E7
100
AcDbSymbolTableRecord
100
AcDbBlockTableRecord
  2
*Paper_Space
340
103
 70
     0
280
     1
281
     0
  0
BLOCK_RECORD
  5
108
330
E7
100
AcDbSymbolTableRecord
100
AcDbBlockTableRecord
  2
*Paper_Space0
340
10B
 70
     0
280
     1
281
     0
  0
ENDTAB
  0
ENDSEC
  0
SECTION
  2
BLOCKS
  0
BLOCK
  5
105
330
104
100
AcDbEntity
  8
0
100
AcDbBlockBegin
  2
*Model_Space
 70
     0
 10
0.0
 20
0.0
 30
0.0
  3
*Model_Space
  1

  0
ENDBLK
  5
106
330
104
100
AcDbEntity
  8
0
100
AcDbBlockEnd
  0
BLOCK
  5
101
330
100
100
AcDbEntity
 67
     1
  8
0
100
AcDbBlockBegin
  2
*Paper_Space
 70
     0
 10
0.0
 20
0.0
 30
0.0
  3
*Paper_Space
  1

  0
ENDBLK
  5
102
330
100
100
AcDbEntity
 67
     1
  8
0
100
AcDbBlockEnd
  0
BLOCK
  5
109
330
108
100
AcDbEntity
  8
0
100
AcDbBlockBegin
  2
*Paper_Space0
 70
     0
 10
0.0
 20
0.0
 30
0.0
  3
*Paper_Space0
  1

  0
ENDBLK
  5
10A
330
108
100
AcDbEntity
  8
0
100
AcDbBlockEnd
  0
ENDSEC
  0
SECTION
  2
ENTITIES
  0
CIRCLE
  5
1C
330
104
100
AcDbEntity
  8
0
100
AcDbCircle
 10
8.0
 20
3.900980486407216
 30
0.0
 40
5.099019513592784
  0
LWPOLYLINE
  5
20
330
104
100
AcDbEntity
  8
0
100
AcDbPolyline
 90
       32
 70
     1
 43
0.0
 10
36.0
 20
35.0
 42
0.078029221665817
 10
35.92495117305002
 20
35.17715069405256
 42
0.0383989113406233
 10
35.86495265895973
 20
35.26100436464485
 42
0.0322233184023157
 10
35.79448504366658
 20
35.33668822695883
 42
0.0311214781517497
 10
35.70303457420597
 20
35.41454587272978
 42
0.0327356985030712
 10
35.57162200145395
 20
35.50256322021266
 42
0.0379282821220846
 10
35.35202243604148
 20
35.61288961602665
 42
0.0522286939515207
 10
34.85380813583294
 20
35.77373562400454
 42
0.081901043869783
 10
27.45767385545336
 20
35.16930457818656
 42
0.081901043869783
 10
20.64723488061586
 20
32.22209231020028
 42
0.0522286939515207
 10
20.2833262665391
 20
31.84571557365105
 42
0.0379282821220846
 10
20.1414802480288
 20
31.64502778185637
 42
0.0327356985030712
 10
20.06694790618073
 20
31.50552420572346
 42
0.0311214781517497
 10
20.02289520760768
 20
31.3937907679441
 42
0.0322233184023158
 10
19.99633383520266
 20
31.29384965870559
 42
0.0383989113406233
 10
19.98285452069584
 20
31.19162653096401
 42
0.078029221665817
 10
20.0
 20
31.0
 42
0.078029221665817
 10
20.07504882694998
 20
30.82284930594744
 42
0.0383989113406233
 10
20.13504734104027
 20
30.73899563535515
 42
0.0322233184023158
 10
20.20551495633341
 20
30.66331177304117
 42
0.0311214781517497
 10
20.29696542579403
 20
30.58545412727023
 42
0.0327356985030712
 10
20.42837799854605
 20
30.49743677978734
 42
0.0379282821220846
 10
20.64797756395852
 20
30.38711038397335
 42
0.0522286939515206
 10
21.14619186416707
 20
30.22626437599546
 42
0.0819010438697829
 10
28.54232614454663
 20
30.83069542181343
 42
0.0819010438697829
 10
35.35276511938414
 20
33.77790768979972
 42
0.0522286939515206
 10
35.71667373346091
 20
34.15428442634895
 42
0.0379282821220846
 10
35.8585197519712
 20
34.35497221814363
 42
0.0327356985030714
 10
35.93305209381927
 20
34.49447579427653
 42
0.0311214781517498
 10
35.97710479239232
 20
34.60620923205589
 42
0.0322233184023159
 10
36.00366616479734
 20
34.70615034129442
 42
0.0383989113406232
 10
36.01714547930416
 20
34.80837346903598
 42
0.078029221665817
  0
LWPOLYLINE
  5
21
330
104
100
AcDbEntity
  8
0
100
AcDbPolyline
 90
      385
 70
     0
 43
0.0
 10
2.0
 20
13.0
 10
2.140259663263957
 20
13.16205549240112
 10
2.279792149861654
 20
13.32012557983398
 10
2.418602705001831
 20
13.47425317764282
 10
2.556696573893229
 20
13.62448120117188
 10
2.694079001744588
 20
13.77085256576538
 10
2.830755233764648
 20
13.91341018676758
 10
2.96673051516215
 20
14.05219697952271
 10
3.102010091145833
 20
14.187255859375
 10
3.236599206924438
 20
14.3186297416687
 10
3.370503107706706
 20
14.44636154174805
 10
3.503727038701375
 20
14.57049417495728
 10
3.636276245117188
 20
14.69107055664062
 10
3.768155972162882
 20
14.80813360214233
 10
3.899371465047201
 20
14.92172622680664
 10
4.029927968978882
 20
15.03189134597778
 10
4.159830729166667
 20
15.138671875
 10
4.289084990819295
 20
15.24211072921753
 10
4.417695999145508
 20
15.34225082397461
 10
4.545668999354045
 20
15.43913507461548
 10
4.673009236653646
 20
15.53280639648438
 10
4.799721956253052
 20
15.62330770492554
 10
4.925812403361003
 20
15.7106819152832
 10
5.051285823186238
 20
15.79497194290161
 10
5.1761474609375
 20
15.876220703125
 10
5.300402561823527
 20
15.95447111129761
 10
5.42405637105306
 20
16.02976608276367
 10
5.547114133834839
 20
16.10214853286743
 10
5.669581095377604
 20
16.17166137695312
 10
5.791462500890096
 20
16.23834753036499
 10
5.912763595581055
 20
16.30224990844727
 10
6.03348962465922
 20
16.36341142654419
 10
6.153645833333333
 20
16.421875
 10
6.273237466812134
 20
16.47768354415894
 10
6.392269770304361
 20
16.53087997436523
 10
6.510747989018758
 20
16.58150720596313
 10
6.628677368164062
 20
16.62960815429688
 10
6.746063152949015
 20
16.67522573471069
 10
6.862910588582356
 20
16.71840286254883
 10
6.979224920272827
 20
16.75918245315552
 10
7.095011393229167
 20
16.797607421875
 10
7.210275252660116
 20
16.83372068405151
 10
7.325021743774414
 20
16.8675651550293
 10
7.439256111780803
 20
16.89918375015259
 10
7.552983601888021
 20
16.92861938476562
 10
7.66620945930481
 20
16.95591497421265
 10
7.778938929239909
 20
16.98111343383789
 10
7.89117725690206
 20
17.0042576789856
 10
8.0029296875
 20
17.025390625
 10
8.114201466242474
 20
17.04455518722534
 10
8.224997838338217
 20
17.06179428100586
 10
8.335324048995972
 20
17.07715082168579
 10
8.44518534342448
 20
17.09066772460938
 10
8.55458696683248
 20
17.10238790512085
 10
8.663534164428711
 20
17.11235427856445
 10
8.772032181421917
 20
17.12060976028442
 10
8.880086263020832
 20
17.127197265625
 10
8.987701654434204
 20
17.13215970993042
 10
9.094883600870768
 20
17.13554000854492
 10
9.201637347539265
 20
17.13738107681274
 10
9.307968139648438
 20
17.13772583007812
 10
9.413881222407023
 20
17.1366171836853
 10
9.519381841023762
 20
17.13409805297852
 10
9.624475240707397
 20
17.130211353302
 10
9.729166666666666
 20
17.125
 10
9.83346136411031
 20
17.11850690841675
 10
9.93736457824707
 20
17.11077499389648
 10
10.04088155428568
 20
17.10184717178345
 10
10.14401753743489
 20
17.09176635742188
 10
10.24677777290344
 20
17.08057546615601
 10
10.34916750590006
 20
17.06831741333008
 10
10.4511919816335
 20
17.05503511428833
 10
10.5528564453125
 20
17.040771484375
 10
10.65416614214579
 20
17.02556943893433
 10
10.75512631734212
 20
17.00947189331055
 10
10.85574221611023
 20
16.9925217628479
 10
10.95601908365885
 20
16.97476196289062
 10
11.05596216519674
 20
16.95623540878296
 10
11.15557670593262
 20
16.93698501586914
 10
11.25486795107524
 20
16.91705369949341
 10
11.35384114583333
 20
16.896484375
 10
11.45250153541565
 20
16.87531995773315
 10
11.55085436503093
 20
16.85360336303711
 10
11.6489048798879
 20
16.8313775062561
 10
11.74665832519531
 20
16.80868530273438
 10
11.84411994616191
 20
16.78556966781616
 10
11.94129498799642
 20
16.7620735168457
 10
12.03818869590759
 20
16.73823976516724
 10
12.13480631510417
 20
16.714111328125
 10
12.23115309079488
 20
16.68973112106323
 10
12.32723426818848
 20
16.66514205932617
 10
12.42305509249369
 20
16.64038705825806
 10
12.51862080891927
 20
16.61550903320312
 10
12.61393666267395
 20
16.59055089950562
 10
12.70900789896647
 20
16.56555557250977
 10
12.80383976300558
 20
16.54056596755981
 10
12.8984375
 20
16.515625
 10
12.99280635515849
 20
16.49077558517456
 10
13.08695157368978
 20
16.46606063842773
 10
13.18087840080261
 20
16.44152307510376
 10
13.27459208170573
 20
16.41720581054688
 10
13.36809786160787
 20
16.39315176010132
 10
13.46140098571777
 20
16.36940383911133
 10
13.55450669924418
 20
16.34600496292114
 10
13.64742024739583
 20
16.322998046875
 10
13.74014687538147
 20
16.30042600631714
 10
13.83269182840983
 20
16.2783317565918
 10
13.92506035168966
 20
16.25675821304321
 10
14.01725769042969
 20
16.23574829101562
 10
14.10928908983866
 20
16.21534490585327
 10
14.20115979512533
 20
16.19559097290039
 10
14.29287505149841
 20
16.17652940750122
 10
14.38444010416667
 20
16.158203125
 10
14.47586019833883
 20
16.14065504074097
 10
14.56714057922363
 20
16.12392807006836
 10
14.65828649202983
 20
16.10806512832642
 10
14.74930318196614
 20
16.09310913085938
 10
14.84019589424133
 20
16.07910299301147
 10
14.93096987406413
 20
16.06608963012695
 10
15.02163036664327
 20
16.05411195755005
 10
15.1121826171875
 20
16.043212890625
 10
15.20263187090556
 20
16.03343534469604
 10
15.29298337300618
 20
16.02482223510742
 10
15.38324236869812
 20
16.01741647720337
 10
15.4734141031901
 20
16.01126098632812
 10
15.56350382169088
 20
16.00639867782593
 10
15.65351676940918
 20
16.00287246704102
 10
15.74345819155375
 20
16.00072526931763
 10
15.83333333333333
 20
16.0
 10
15.92314696311951
 20
16.00072956085205
 10
16.01290194193522
 20
16.00290679931641
 10
16.10260065396627
 20
16.00651454925537
 10
16.19224548339844
 20
16.01153564453125
 10
16.28183881441752
 20
16.01795291900635
 10
16.37138303120931
 20
16.02574920654297
 10
16.46088051795959
 20
16.03490734100342
 10
16.55033365885416
 20
16.04541015625
 10
16.63974483807882
 20
16.05724048614502
 10
16.72911643981934
 20
16.07038116455078
 10
16.81845084826151
 20
16.08481502532959
 10
16.90775044759114
 20
16.10052490234375
 10
16.99701762199402
 20
16.11749362945557
 10
17.08625475565592
 20
16.13570404052734
 10
17.17546423276265
 20
16.15513896942139
 10
17.2646484375
 20
16.17578125
 10
17.35380975405375
 20
16.19761371612549
 10
17.4429505666097
 20
16.22061920166016
 10
17.53207325935364
 20
16.24478054046631
 10
17.62118021647135
 20
16.27008056640625
 10
17.71027382214864
 20
16.29650211334229
 10
17.79935646057129
 20
16.32402801513672
 10
17.88843051592509
 20
16.35264110565186
 10
17.97749837239583
 20
16.38232421875
 10
18.06656241416931
 20
16.41306018829346
 10
18.15562502543131
 20
16.44483184814453
 10
18.24468859036763
 20
16.47762203216553
 10
18.33375549316406
 20
16.51141357421875
 10
18.42282811800639
 20
16.5461893081665
 10
18.5119088490804
 20
16.58193206787109
 10
18.6010000705719
 20
16.61862468719482
 10
18.69010416666666
 20
16.65625
 10
18.77922352155049
 20
16.69479084014893
 10
18.86836051940918
 20
16.73423004150391
 10
18.95751754442851
 20
16.77455043792725
 10
19.04669698079427
 20
16.81573486328125
 10
19.13590121269226
 20
16.85776615142822
 10
19.22513262430827
 20
16.90062713623047
 10
19.31439359982808
 20
16.94430065155029
 10
19.4036865234375
 20
16.98876953125
 10
19.4930137793223
 20
17.03401660919189
 10
19.58237775166829
 20
17.08002471923828
 10
19.67178082466125
 20
17.12677669525146
 10
19.76122538248698
 20
17.17425537109375
 10
19.85071380933125
 20
17.22244358062744
 10
19.94024848937988
 20
17.27132415771484
 10
20.02983180681864
 20
17.32087993621826
 10
20.11946614583333
 20
17.37109375
 10
20.20915389060974
 20
17.42194843292236
 10
20.29889742533366
 20
17.47342681884766
 10
20.38869913419087
 20
17.52551174163818
 10
20.47856140136719
 20
17.57818603515625
 10
20.56848661104838
 20
17.63143253326416
 10
20.65847714742024
 20
17.68523406982422
 10
20.74853539466858
 20
17.73957347869873
 10
20.83866373697916
 20
17.79443359375
 10
20.9288645585378
 20
17.84979724884033
 10
21.01914024353027
 20
17.90564727783203
 10
21.10949317614237
 20
17.9619665145874
 10
21.19992574055989
 20
18.01873779296875
 10
21.29044032096863
 20
18.07594394683838
 10
21.38103930155436
 20
18.13356781005859
 10
21.47172506650289
 20
18.1915922164917
 10
21.5625
 20
18.25
 10
21.65336648623148
 20
18.3087739944458
 10
21.74432690938314
 20
18.36789703369141
 10
21.83538365364075
 20
18.42735195159912
 10
21.9265391031901
 20
18.48712158203125
 10
22.017795642217
 20
18.5471887588501
 10
22.10915565490723
 20
18.60753631591797
 10
22.20062152544657
 20
18.66814708709717
 10
22.29219563802083
 20
18.72900390625
 10
22.3838803768158
 20
18.79008960723877
 10
22.47567812601725
 20
18.85138702392578
 10
22.56759126981099
 20
18.91287899017334
 10
22.65962219238281
 20
18.97454833984375
 10
22.7517732779185
 20
19.03637790679932
 10
22.84404691060384
 20
19.09835052490234
 10
22.93644547462463
 20
19.16044902801514
 10
23.02897135416666
 20
19.22265625
 10
23.12162693341573
 20
19.28495502471924
 10
23.21441459655762
 20
19.34732818603516
 10
23.30733672777811
 20
19.40975856781006
 10
23.40039571126302
 20
19.47222900390625
 10
23.49359393119812
 20
19.53472232818604
 10
23.5869337717692
 20
19.59722137451172
 10
23.68041761716207
 20
19.65970897674561
 10
23.7740478515625
 20
19.72216796875
 10
23.86782685915629
 20
19.78458118438721
 10
23.96175702412923
 20
19.84693145751953
 10
24.05584073066711
 20
19.90920162200928
 10
24.15008036295573
 20
19.97137451171875
 10
24.24447830518087
 20
20.03343296051025
 10
24.33903694152832
 20
20.09535980224609
 10
24.43375865618388
 20
20.15713787078857
 10
24.52864583333333
 20
20.21875
 10
24.62370085716248
 20
20.28017902374268
 10
24.71892611185709
 20
20.3414077758789
 10
24.81432398160299
 20
20.402419090271
 10
24.90989685058594
 20
20.46319580078125
 10
25.00564710299174
 20
20.52372074127197
 10
25.10157712300618
 20
20.58397674560547
 10
25.19768929481506
 20
20.64394664764404
 10
25.29398600260416
 20
20.70361328125
 10
25.39046963055928
 20
20.76295948028564
 10
25.48714256286621
 20
20.82196807861328
 10
25.58400718371073
 20
20.88062191009521
 10
25.68106587727864
 20
20.93890380859375
 10
25.77832102775574
 20
20.99679660797119
 10
25.8757750193278
 20
21.05428314208984
 10
25.97343023618062
 20
21.11134624481201
 10
26.0712890625
 20
21.16796875
 10
26.16935388247172
 20
21.22413349151611
 10
26.26762708028157
 20
21.27982330322266
 10
26.36611104011536
 20
21.33502101898193
 10
26.46480814615885
 20
21.38970947265625
 10
26.56372078259786
 20
21.44387149810791
 10
26.66285133361816
 20
21.49748992919922
 10
26.76220218340556
 20
21.55054759979248
 10
26.86177571614583
 20
21.60302734375
 10
26.96157431602478
 20
21.65491199493408
 10
27.06160036722819
 20
21.70618438720703
 10
27.16185625394185
 20
21.75682735443115
 10
27.26234436035156
 20
21.80682373046875
 10
27.3630670706431
 20
21.85615634918213
 10
27.46402676900228
 20
21.90480804443359
 10
27.56522583961487
 20
21.95276165008545
 10
27.66666666666666
 20
22.0
 10
27.76834567387899
 20
22.04650449752808
 10
27.87023544311523
 20
22.09225082397461
 10
27.97230259577433
 20
22.13721323013306
 10
28.07451375325521
 20
22.18136596679688
 10
28.17683553695679
 20
22.22468328475952
 10
28.27923456827799
 20
22.26713943481445
 10
28.38167746861776
 20
22.30870866775513
 10
28.484130859375
 20
22.349365234375
 10
28.58656136194865
 20
22.38908338546753
 10
28.68893559773763
 20
22.42783737182617
 10
28.79122018814087
 20
22.46560144424438
 10
28.89338175455729
 20
22.50234985351562
 10
28.99538691838582
 20
22.53805685043335
 10
29.09720230102539
 20
22.57269668579102
 10
29.19879452387492
 20
22.60624361038208
 10
29.30013020833333
 20
22.638671875
 10
29.40117597579956
 20
22.66995573043823
 10
29.50189844767253
 20
22.70006942749023
 10
29.60226424535116
 20
22.72898721694946
 10
29.70223999023438
 20
22.75668334960938
 10
29.80179230372111
 20
22.78313207626343
 10
29.90088780721029
 20
22.80830764770508
 10
29.99949312210083
 20
22.83218431472778
 10
30.09757486979167
 20
22.854736328125
 10
30.19509967168172
 20
22.87593793869019
 10
30.29203414916992
 20
22.8957633972168
 10
30.38834492365519
 20
22.91418695449829
 10
30.48399861653646
 20
22.93118286132812
 10
30.57896184921265
 20
22.94672536849976
 10
30.67320124308268
 20
22.96078872680664
 10
30.76668341954549
 20
22.97334718704224
 10
30.859375
 20
22.984375
 10
30.95124260584513
 20
22.99384641647339
 10
31.04225285847982
 20
23.00173568725586
 10
31.13237237930298
 20
23.00801706314087
 10
31.22156778971354
 20
23.01266479492188
 10
31.30980571111044
 20
23.01565313339233
 10
31.39705276489258
 20
23.0169563293457
 10
31.4832755724589
 20
23.01654863357544
 10
31.56844075520834
 20
23.014404296875
 10
31.65251493453979
 20
23.01049757003784
 10
31.73546473185221
 20
23.00480270385742
 10
31.81725676854452
 20
22.9972939491272
 10
31.89785766601562
 20
22.98794555664062
 10
31.97723404566447
 20
22.97673177719116
 10
32.05535252888998
 20
22.96362686157227
 10
32.13217973709106
 20
22.94860506057739
 10
32.20768229166667
 20
22.931640625
 10
32.28182681401571
 20
22.91270780563354
 10
32.35457992553711
 20
22.89178085327148
 10
32.4259082476298
 20
22.86883401870728
 10
32.4957784016927
 20
22.84384155273438
 10
32.56415700912476
 20
22.81677770614624
 10
32.63101069132487
 20
22.78761672973633
 10
32.69630606969197
 20
22.7563328742981
 10
32.760009765625
 20
22.722900390625
 10
32.82208840052287
 20
22.6872935295105
 10
32.8825085957845
 20
22.64948654174805
 10
32.94123697280884
 20
22.6094536781311
 10
32.99824015299479
 20
22.56716918945312
 10
33.05348475774129
 20
22.52260732650757
 10
33.10693740844727
 20
22.47574234008789
 10
33.15856472651164
 20
22.42654848098755
 10
33.20833333333333
 20
22.375
 10
33.25620985031128
 20
22.3210711479187
 10
33.3021608988444
 20
22.26473617553711
 10
33.34615310033162
 20
22.20596933364868
 10
33.38815307617188
 20
22.14474487304688
 10
33.42812744776408
 20
22.08103704452515
 10
33.46604283650716
 20
22.01482009887695
 10
33.50186586380005
 20
21.94606828689575
 10
33.53556315104166
 20
21.874755859375
 10
33.56710131963094
 20
21.80085706710815
 10
33.5964469909668
 20
21.72434616088867
 10
33.62356678644817
 20
21.64519739151001
 10
33.64842732747396
 20
21.56338500976562
 10
33.67099523544312
 20
21.47888326644897
 10
33.69123713175456
 20
21.39166641235352
 10
33.70911963780721
 20
21.30170869827271
 10
33.724609375
 20
21.208984375
 10
33.73767296473186
 20
21.11346769332886
 10
33.7482770284017
 20
21.01513290405273
 10
33.75638818740845
 20
20.91395425796509
 10
33.76197306315105
 20
20.80990600585938
 10
33.7649982770284
 20
20.70296239852905
 10
33.76543045043945
 20
20.59309768676758
 10
33.76323620478313
 20
20.48028612136841
 10
33.75838216145833
 20
20.364501953125
 10
33.75083494186401
 20
20.24571943283081
 10
33.74056116739909
 20
20.1239128112793
 10
33.72752745946248
 20
19.99905633926392
 10
33.71170043945312
 20
19.87112426757812
 10
33.69304672876994
 20
19.74009084701538
 10
33.67153294881184
 20
19.60593032836914
 10
33.64712572097778
 20
19.46861696243286
 10
33.61979166666667
 20
19.328125
 10
33.58949740727742
 20
19.18442869186401
 10
33.55620956420898
 20
19.03750228881836
 10
33.51989475886027
 20
18.88732004165649
 10
33.4805196126302
 20
18.73385620117188
 10
33.43805074691772
 20
18.57708501815796
 10
33.39245478312175
 20
18.4169807434082
 10
33.34369834264119
 20
18.25351762771606
 10
33.291748046875
 20
18.086669921875
 10
33.23657051722209
 20
17.91641187667847
 10
33.17813237508138
 20
17.74271774291992
 10
33.11640024185181
 20
17.56556177139282
 10
33.05134073893229
 20
17.38491821289062
 10
32.98292048772176
 20
17.20076131820679
 10
32.91110610961914
 20
17.01306533813477
 10
32.83586422602335
 20
16.82180452346802
 10
32.75716145833334
 20
16.626953125
 10
32.674964427948
 20
16.42848539352417
 10
32.58923975626627
 20
16.22637557983398
 10
32.4999540646871
 20
16.0205979347229
 10
32.40707397460938
 20
15.81112670898438
 10
32.31056610743205
 20
15.59793615341187
 10
32.21039708455404
 20
15.38100051879883
 10
32.10653352737427
 20
15.16029405593872
 10
31.99894205729167
 20
14.935791015625
 10
31.88758929570516
 20
14.70746564865112
 10
31.77244186401367
 20
14.47529220581055
 10
31.65346638361613
 20
14.23924493789673
 10
31.53062947591146
 20
13.99929809570312
 10
31.40389776229858
 20
13.75542593002319
 10
31.27323786417643
 20
13.50760269165039
 10
31.13861640294393
 20
13.25580263137817
 10
31.0
 20
13.0
  0
LINE
  5
22
330
104
100
AcDbEntity
  8
0
100
AcDbLine
 10
11.01182482052847
 20
-0.2134953308079777
 30
0.0
 11
12.11447581721519
 21
0.8891556658787412
 31
0.0
  0
LINE
  5
23
330
104
100
AcDbEntity
  8
0
100
AcDbLine
 10
7.786681172708489
 20
-1.193574948360666
 30
0.0
 11
13.09455543476788
 21
4.114299313698725
 31
0.0
  0
LINE
  5
24
330
104
100
AcDbEntity
  8
0
100
AcDbLine
 10
5.962099319649998
 20
-0.7730927711518683
 30
0.0
 11
12.67407325755908
 21
5.938881166757213
 31
0.0
  0
LINE
  5
25
330
104
100
AcDbEntity
  8
0
100
AcDbLine
 10
4.595310042015584
 20
0.1051819814810075
 30
0.0
 11
11.79579850492621
 21
7.305670444391632
 31
0.0
  0
LINE
  5
26
330
104
100
AcDbEntity
  8
0
100
AcDbLine
 10
3.588669769500649
 20
1.34360573923336
 30
0.0
 11
10.55737474717386
 21
8.312310716906568
 31
0.0
  0
LINE
  5
27
330
104
100
AcDbEntity
  8
0
100
AcDbLine
 10
2.984093479991312
 20
2.984093479991312
 30
0.0
 11
8.916887006415905
 21
8.916887006415903
 31
0.0
  0
LINE
  5
28
330
104
100
AcDbEntity
  8
0
100
AcDbLine
 10
3.113854673108668
 20
5.358918703375956
 30
0.0
 11
6.542061783031262
 21
8.787125813298548
 31
0.0
  0
LINE
  5
29
330
104
100
AcDbEntity
  8
0
100
AcDbLine
 10
2.0
 20
25.0
 30
0.0
 11
31.0
 21
25.0
 31
0.0
  0
SOLID
  5
2A
330
104
100
AcDbEntity
  8
0
100
AcDbTrace
 10
2.0
 20
25.0
 30
0.0
 11
4.5
 21
25.41628465777284
 31
0.0
 12
4.5
 22
24.58371534222716
 32
0.0
 13
4.5
 23
24.58371534222716
 33
0.0
  0
SOLID
  5
2B
330
104
100
AcDbEntity
  8
0
100
AcDbTrace
 10
31.0
 20
25.0
 30
0.0
 11
28.5
 21
24.58371534222716
 31
0.0
 12
28.5
 22
25.41628465777284
 32
0.0
 13
28.5
 23
25.41628465777284
 33
0.0
  0
LINE
  5
2C
330
104
100
AcDbEntity
  8
0
100
AcDbLine
 10
2.0
 20
13.625
 30
0.0
 11
2.0
 21
26.25
 31
0.0
  0
LINE
  5
2D
330
104
100
AcDbEntity
  8
0
100
AcDbLine
 10
31.0
 20
13.625
 30
0.0
 11
31.0
 21
26.25
 31
0.0
  0
MTEXT
  5
2E
330
104
100
AcDbEntity
  8
0
100
AcDbMText
 10
16.5
 20
26.875
 30
0.0
 40
2.5
 41
0.0
 46
0.0
 71
     5
 72
     1
  1
29
  7
textstyle0
 73
     1
 44
1.0
  0
LINE
  5
2F
330
104
100
AcDbEntity
  8
0
100
AcDbLine
 10
19.61050477489768
 20
1.699863574351978
 30
0.0
 11
19.99113233287858
 21
1.652796725784448
 31
0.0
  0
ARC
  5
30
330
104
100
AcDbEntity
  8
0
100
AcDbCircle
 10
19.08784856280259
 20
1.868435211647997
 30
0.0
 40
0.9286665310369618
100
AcDbArc
 50
307.8419257589464
 51
346.5732360700008
  0
ARC
  5
31
330
104
100
AcDbEntity
  8
0
100
AcDbCircle
 10
19.07716713985474
 20
1.952792055356839
 30
0.0
 40
1.002772558030407
100
AcDbArc
 50
267.6168865168701
 51
305.3661660949571
  0
ARC
  5
32
330
104
100
AcDbEntity
  8
0
100
AcDbCircle
 10
18.98597840390774
 20
1.943772828372605
 30
0.0
 40
0.9941188136700136
100
AcDbArc
 50
224.697725367625
 51
272.8536534592226
  0
ARC
  5
33
330
104
100
AcDbEntity
  8
0
100
AcDbCircle
 10
19.14524363571518
 20
1.997399962206412
 30
0.0
 40
1.147430802507522
100
AcDbArc
 50
176.4617840205416
 51
221.0049392652919
  0
ARC
  5
34
330
104
100
AcDbEntity
  8
0
100
AcDbCircle
 10
19.19852454909152
 20
2.143113940868651
 30
0.0
 40
1.200862719914968
100
AcDbArc
 50
139.7194411489883
 51
183.5760168754276
  0
ARC
  5
35
330
104
100
AcDbEntity
  8
0
100
AcDbCircle
 10
18.98103450948778
 20
2.267060674636563
 30
0.0
 40
0.9559169929709465
100
AcDbArc
 50
87.96333774629194
 51
136.9578302567012
  0
ARC
  5
36
330
104
100
AcDbEntity
  8
0
100
AcDbCircle
 10
19.04598180831235
 20
2.293780623714996
 30
0.0
 40
0.92910965365747
100
AcDbArc
 50
42.84976907890201
 51
91.91050102501686
  0
ARC
  5
37
330
104
100
AcDbEntity
  8
0
100
AcDbCircle
 10
18.82675723669763
 20
2.164556791714867
 30
0.0
 40
1.178967622484851
100
AcDbArc
 50
356.4094590108919
 51
40.20747754689724
  0
ARC
  5
38
330
104
100
AcDbEntity
  8
0
100
AcDbCircle
 10
16.56331002731079
 20
2.113257268928499
 30
0.0
 40
3.440174417735229
100
AcDbArc
 50
357.988329021782
 51
359.6246921302557
  0
LINE
  5
39
330
104
100
AcDbEntity
  8
0
100
AcDbLine
 10
20.00136425648022
 20
1.992496589358799
 30
0.0
 11
18.3806275579809
 21
1.992496589358799
 31
0.0
  0
ARC
  5
3A
330
104
100
AcDbEntity
  8
0
100
AcDbCircle
 10
19.21575915353688
 20
1.989362080260585
 30
0.0
 40
0.8351374779299248
100
AcDbArc
 50
179.7849520964122
 51
220.7638087110348
  0
ARC
  5
3B
330
104
100
AcDbEntity
  8
0
100
AcDbCircle
 10
19.02303368841612
 20
1.856561339922867
 30
0.0
 40
0.6029836012902465
100
AcDbArc
 50
223.1641874812335
 51
271.3763483588768
  0
ARC
  5
3C
330
104
100
AcDbEntity
  8
0
100
AcDbCircle
 10
19.05345017363264
 20
1.817163470482448
 30
0.0
 40
0.5636370121357556
100
AcDbArc
 50
268.3801237985213
 51
305.8253341395846
  0
ARC
  5
3D
330
104
100
AcDbEntity
  8
0
100
AcDbCircle
 10
18.93484347034839
 20
1.905866966271991
 30
0.0
 40
0.7063678899467292
100
AcDbArc
 50
309.4167285650997
 51
343.0439815421864
  0
LINE
  5
3E
330
104
100
AcDbEntity
  8
0
100
AcDbLine
 10
18.40109140518418
 20
2.295361527967258
 30
0.0
 11
19.61459754433833
 21
2.295361527967258
 31
0.0
  0
ARC
  5
3F
330
104
100
AcDbEntity
  8
0
100
AcDbCircle
 10
18.87863446452934
 20
2.275579172690447
 30
0.0
 40
0.7362289021915874
100
AcDbArc
 50
1.539713934405126
 51
35.84251215629881
  0
ARC
  5
40
330
104
100
AcDbEntity
  8
0
100
AcDbCircle
 10
19.03370528823652
 20
2.355161647468957
 30
0.0
 40
0.5645361913511399
100
AcDbArc
 50
38.51182390707745
 51
91.48252357245158
  0
ARC
  5
41
330
104
100
AcDbEntity
  8
0
100
AcDbCircle
 10
19.00482827490319
 20
2.334524808632766
 30
0.0
 40
0.5851581151958357
100
AcDbArc
 50
88.60248499169542
 51
134.8106915243925
  0
ARC
  5
42
330
104
100
AcDbEntity
  8
0
100
AcDbCircle
 10
19.07314766187888
 20
2.279752319354624
 30
0.0
 40
0.6722375023427423
100
AcDbArc
 50
135.6516691506804
 51
178.669484881862
  0
LINE
  5
43
330
104
100
AcDbEntity
  8
0
100
AcDbLine
 10
20.20327779681531
 20
1.0
 30
0.0
 11
20.99727506830235
 21
2.129604365620737
 31
0.0
  0
LINE
  5
44
330
104
100
AcDbEntity
  8
0
100
AcDbLine
 10
20.99727506830235
 20
2.129604365620737
 30
0.0
 11
20.26262295370481
 21
3.173260572987722
 31
0.0
  0
LINE
  5
45
330
104
100
AcDbEntity
  8
0
100
AcDbLine
 10
20.26262295370481
 20
3.173260572987722
 30
0.0
 11
20.72305951577848
 21
3.173260572987722
 31
0.0
  0
LINE
  5
46
330
104
100
AcDbEntity
  8
0
100
AcDbLine
 10
20.72305951577848
 20
3.173260572987722
 30
0.0
 11
21.05662022519185
 21
2.663710777626194
 31
0.0
  0
ARC
  5
47
330
104
100
AcDbEntity
  8
0
100
AcDbCircle
 10
15.75725991420403
 20
-0.8005336878329206
 30
0.0
 40
6.331209159563208
100
AcDbArc
 50
30.5776817080729
 51
33.17304379510529
  0
ARC
  5
48
330
104
100
AcDbEntity
  8
0
100
AcDbCircle
 10
27.39193663968262
 20
-1.683868442270523
 30
0.0
 40
7.42184104650805
100
AcDbArc
 50
144.1807368914021
 51
146.4289560461296
  0
LINE
  5
49
330
104
100
AcDbEntity
  8
0
100
AcDbLine
 10
21.3738098568426
 20
2.659618008185539
 30
0.0
 11
21.74011272178121
 21
3.173260572987722
 31
0.0
  0
LINE
  5
4A
330
104
100
AcDbEntity
  8
0
100
AcDbLine
 10
21.74011272178121
 20
3.173260572987722
 30
0.0
 11
22.18008543665161
 21
3.173260572987722
 31
0.0
  0
LINE
  5
4B
330
104
100
AcDbEntity
  8
0
100
AcDbLine
 10
22.18008543665161
 20
3.173260572987722
 30
0.0
 11
21.42906224429144
 21
2.150068212824011
 31
0.0
  0
LINE
  5
4C
330
104
100
AcDbEntity
  8
0
100
AcDbLine
 10
21.42906224429144
 20
2.150068212824011
 30
0.0
 11
22.23738420882077
 21
1.0
 31
0.0
  0
LINE
  5
4D
330
104
100
AcDbEntity
  8
0
100
AcDbLine
 10
22.23738420882077
 20
1.0
 30
0.0
 11
21.78513318562841
 21
1.0
 31
0.0
  0
LINE
  5
4E
330
104
100
AcDbEntity
  8
0
100
AcDbLine
 10
21.78513318562841
 20
1.0
 30
0.0
 11
21.33902131659703
 21
1.675306957708049
 31
0.0
  0
LINE
  5
4F
330
104
100
AcDbEntity
  8
0
100
AcDbLine
 10
21.33902131659703
 20
1.675306957708049
 30
0.0
 11
21.22033100281804
 21
1.85743519781719
 31
0.0
  0
LINE
  5
50
330
104
100
AcDbEntity
  8
0
100
AcDbLine
 10
21.22033100281804
 20
1.85743519781719
 30
0.0
 11
20.64938966584669
 21
1.0
 31
0.0
  0
LINE
  5
51
330
104
100
AcDbEntity
  8
0
100
AcDbLine
 10
20.64938966584669
 20
1.0
 30
0.0
 11
20.20327779681531
 21
1.0
 31
0.0
  0
LINE
  5
52
330
104
100
AcDbEntity
  8
0
100
AcDbLine
 10
22.52343880220471
 20
0.1671214188267394
 30
0.0
 11
22.52343880220471
 21
3.173260572987722
 31
0.0
  0
LINE
  5
53
330
104
100
AcDbEntity
  8
0
100
AcDbLine
 10
22.52343880220471
 20
3.173260572987722
 30
0.0
 11
22.8590458963384
 21
3.173260572987722
 31
0.0
  0
LINE
  5
54
330
104
100
AcDbEntity
  8
0
100
AcDbLine
 10
22.8590458963384
 20
3.173260572987722
 30
0.0
 11
22.8590458963384
 21
2.890859481582538
 31
0.0
  0
ARC
  5
55
330
104
100
AcDbEntity
  8
0
100
AcDbCircle
 10
23.54171758627238
 20
2.423646593765638
 30
0.0
 40
0.8272415117603267
100
AcDbArc
 50
120.077970120567
 51
145.6126968805075
  0
ARC
  5
56
330
104
100
AcDbEntity
  8
0
100
AcDbCircle
 10
23.46721046715512
 20
2.486119378089975
 30
0.0
 40
0.7365866972068407
100
AcDbArc
 50
88.27897591687278
 51
117.4973943346579
  0
ARC
  5
57
330
104
100
AcDbEntity
  8
0
100
AcDbCircle
 10
23.50536114992961
 20
2.363764946633515
 30
0.0
 40
0.8587584613815112
100
AcDbArc
 50
56.41010054883922
 51
91.06949003453684
  0
ARC
  5
58
330
104
100
AcDbEntity
  8
0
100
AcDbCircle
 10
23.48324994520254
 20
2.354092518329961
 30
0.0
 40
0.8791458098210627
100
AcDbArc
 50
21.406543509576
 51
55.55841130522047
  0
ARC
  5
59
330
104
100
AcDbEntity
  8
0
100
AcDbCircle
 10
22.93463918335001
 20
2.119463528016631
 30
0.0
 40
1.475658158248847
100
AcDbArc
 50
359.3608058444527
 51
22.11357667583491
  0
ARC
  5
5A
330
104
100
AcDbEntity
  8
0
100
AcDbCircle
 10
22.95762623303431
 20
2.080289867884718
 30
0.0
 40
1.452756820863407
100
AcDbArc
 50
336.559464742673
 51
0.8957630632983357
  0
ARC
  5
5B
330
104
100
AcDbEntity
  8
0
100
AcDbCircle
 10
23.46011066046254
 20
1.855721826347148
 30
0.0
 40
0.9024291468091711
100
AcDbArc
 50
302.3210951301409
 51
336.9498317236644
  0
ARC
  5
5C
330
104
100
AcDbEntity
  8
0
100
AcDbCircle
 10
23.45901563729604
 20
1.844106238899999
 30
0.0
 40
0.8932271925137786
100
AcDbArc
 50
270.2382181198313
 51
302.7788234501273
  0
ARC
  5
5D
330
104
100
AcDbEntity
  8
0
100
AcDbCircle
 10
23.45141565247756
 20
1.643978353086641
 30
0.0
 40
0.6931839205676106
100
AcDbArc
 50
242.5837709534025
 51
270.9351892162235
  0
ARC
  5
5E
330
104
100
AcDbEntity
  8
0
100
AcDbCircle
 10
23.47795806529008
 20
1.697173009484228
 30
0.0
 40
0.7526260832789252
100
AcDbArc
 50
218.8461522282332
 51
242.6547406597128
  0
LINE
  5
5F
330
104
100
AcDbEntity
  8
0
100
AcDbLine
 10
22.89178805186364
 20
1.225102319236016
 30
0.0
 11
22.89178805186364
 21
0.1671214188267394
 31
0.0
  0
LINE
  5
60
330
104
100
AcDbEntity
  8
0
100
AcDbLine
 10
22.89178805186364
 20
0.1671214188267394
 30
0.0
 11
22.52343880220471
 21
0.1671214188267394
 31
0.0
  0
ARC
  5
61
330
104
100
AcDbEntity
  8
0
100
AcDbCircle
 10
23.79933713984037
 20
1.999193508135635
 30
0.0
 40
0.9453301017008875
100
AcDbArc
 50
175.4398862854843
 51
215.1983148407811
  0
ARC
  5
62
330
104
100
AcDbEntity
  8
0
100
AcDbCircle
 10
23.43757338090382
 20
1.774611463700684
 30
0.0
 40
0.5208601032615905
100
AcDbArc
 50
217.9498406407806
 51
270.065934400429
  0
ARC
  5
63
330
104
100
AcDbEntity
  8
0
100
AcDbCircle
 10
23.43672591424427
 20
1.786246108949828
 30
0.0
 40
0.532496369278106
100
AcDbArc
 50
270.1556798519069
 51
322.4154437211592
  0
ARC
  5
64
330
104
100
AcDbEntity
  8
0
100
AcDbCircle
 10
23.05134482842089
 20
2.026525841611744
 30
0.0
 40
0.9854592120480647
100
AcDbArc
 50
325.0120720524773
 51
4.570202544203439
  0
ARC
  5
65
330
104
100
AcDbEntity
  8
0
100
AcDbCircle
 10
23.07617906493026
 20
2.176569934525777
 30
0.0
 40
0.9601592074614241
100
AcDbArc
 50
355.7280849296016
 51
34.98937025973508
  0
ARC
  5
66
330
104
100
AcDbEntity
  8
0
100
AcDbCircle
 10
23.45056161395496
 20
2.419424124269984
 30
0.0
 40
0.514424850198239
100
AcDbArc
 50
36.74048384105283
 51
89.55646078423823
  0
ARC
  5
67
330
104
100
AcDbEntity
  8
0
100
AcDbCircle
 10
23.46832969875847
 20
2.40357881874563
 30
0.0
 40
0.5304339176583099
100
AcDbArc
 50
91.48927109727715
 51
144.2017321999078
  0
ARC
  5
68
330
104
100
AcDbEntity
  8
0
100
AcDbCircle
 10
23.83893166981937
 20
2.141660878281707
 30
0.0
 40
0.9842363798111883
100
AcDbArc
 50
144.4544132579428
 51
183.9213428099349
  0
LINE
  5
69
330
104
100
AcDbEntity
  8
0
100
AcDbLine
 10
24.84131414335836
 20
1.0
 30
0.0
 11
24.84131414335836
 21
4.0
 31
0.0
  0
LINE
  5
6A
330
104
100
AcDbEntity
  8
0
100
AcDbLine
 10
24.84131414335836
 20
4.0
 30
0.0
 11
25.20966339301729
 21
4.0
 31
0.0
  0
LINE
  5
6B
330
104
100
AcDbEntity
  8
0
100
AcDbLine
 10
25.20966339301729
 20
4.0
 30
0.0
 11
25.20966339301729
 21
1.0
 31
0.0
  0
LINE
  5
6C
330
104
100
AcDbEntity
  8
0
100
AcDbLine
 10
25.20966339301729
 20
1.0
 30
0.0
 11
24.84131414335836
 21
1.0
 31
0.0
  0
ARC
  5
6D
330
104
100
AcDbEntity
  8
0
100
AcDbCircle
 10
26.77184748737577
 20
2.177748601059028
 30
0.0
 40
1.12017000975154
100
AcDbArc
 50
134.1933931791888
 51
184.6657822902137
  0
ARC
  5
6E
330
104
100
AcDbEntity
  8
0
100
AcDbCircle
 10
26.64722912486892
 20
2.211481190150915
 30
0.0
 40
1.011260100244958
100
AcDbArc
 50
88.45531960286895
 51
130.4606384203111
  0
ARC
  5
6F
330
104
100
AcDbEntity
  8
0
100
AcDbCircle
 10
26.70905299166494
 20
2.247931970137179
 30
0.0
 40
0.9750546400660116
100
AcDbArc
 50
44.28297103741657
 51
92.03145249895246
  0
ARC
  5
70
330
104
100
AcDbEntity
  8
0
100
AcDbCircle
 10
26.57620344673607
 20
2.181879308799176
 30
0.0
 40
1.117205445081096
100
AcDbArc
 50
356.6875474452671
 51
41.95046501688977
  0
ARC
  5
71
330
104
100
AcDbEntity
  8
0
100
AcDbCircle
 10
26.2554499944371
 20
2.049206090074204
 30
0.0
 40
1.437707064422571
100
AcDbArc
 50
335.6911668008178
 51
2.715746855532912
  0
ARC
  5
72
330
104
100
AcDbEntity
  8
0
100
AcDbCircle
 10
26.77454063582573
 20
1.866971778954299
 30
0.0
 40
0.8908944513222581
100
AcDbArc
 50
298.4815676129073
 51
332.6278595664537
  0
ARC
  5
73
330
104
100
AcDbEntity
  8
0
100
AcDbCircle
 10
26.68354904984838
 20
2.017306015416974
 30
0.0
 40
1.066457732767458
100
AcDbArc
 50
269.5132481971013
 51
298.9268547613939
  0
ARC
  5
74
330
104
100
AcDbEntity
  8
0
100
AcDbCircle
 10
26.63476918467659
 20
1.926960527003301
 30
0.0
 40
0.9768816004180307
100
AcDbArc
 50
224.3961009306535
 51
272.3302864469541
  0
ARC
  5
75
330
104
100
AcDbEntity
  8
0
100
AcDbCircle
 10
26.82157149648793
 20
2.007320873187545
 30
0.0
 40
1.168875652891501
100
AcDbArc
 50
176.109433415839
 51
220.8021793934433
  0
ARC
  5
76
330
104
100
AcDbEntity
  8
0
100
AcDbCircle
 10
26.95698096501174
 20
2.01641230012639
 30
0.0
 40
0.925677294440137
100
AcDbArc
 50
175.6496042139347
 51
216.8347927717482
  0
ARC
  5
77
330
104
100
AcDbEntity
  8
0
100
AcDbCircle
 10
26.66271746477539
 20
1.837436687522552
 30
0.0
 40
0.5838036750819787
100
AcDbArc
 50
220.0916852548389
 51
271.1553775118111
  0
ARC
  5
78
330
104
100
AcDbEntity
  8
0
100
AcDbCircle
 10
26.6849434659937
 20
1.834107723934512
 30
0.0
 40
0.5804501710295296
100
AcDbArc
 50
268.9680069736668
 51
320.1906212577256
  0
ARC
  5
79
330
104
100
AcDbEntity
  8
0
100
AcDbCircle
 10
26.36824724006327
 20
2.024987842451234
 30
0.0
 40
0.9476015579213828
100
AcDbArc
 50
323.5864595419195
 51
4.474089823054912
  0
ARC
  5
7A
330
104
100
AcDbEntity
  8
0
100
AcDbCircle
 10
26.417359393484
 20
2.163258369921246
 30
0.0
 40
0.8979106079426755
100
AcDbArc
 50
355.8903103742128
 51
37.49056758845288
  0
ARC
  5
7B
330
104
100
AcDbEntity
  8
0
100
AcDbCircle
 10
26.68381760705639
 20
2.334999244041264
 30
0.0
 40
0.5825379341922943
100
AcDbArc
 50
40.03943134143939
 51
90.9175437149383
  0
ARC
  5
7C
330
104
100
AcDbEntity
  8
0
100
AcDbCircle
 10
26.66242969192409
 20
2.332551925042433
 30
0.0
 40
0.5850348633163862
100
AcDbArc
 50
88.81886520012694
 51
139.721681318492
  0
ARC
  5
7D
330
104
100
AcDbEntity
  8
0
100
AcDbCircle
 10
26.95277519818075
 20
2.157166609822652
 30
0.0
 40
0.9215080127603523
100
AcDbArc
 50
143.0751959799844
 51
184.3899678681002
  0
LINE
  5
7E
330
104
100
AcDbEntity
  8
0
100
AcDbLine
 10
29.52851728864845
 20
1.0
 30
0.0
 11
29.52851728864845
 21
1.274215552523875
 31
0.0
  0
ARC
  5
7F
330
104
100
AcDbEntity
  8
0
100
AcDbCircle
 10
28.95140612784715
 20
1.626141285316136
 30
0.0
 40
0.6759504518252718
100
AcDbArc
 50
267.3998329448933
 51
328.6249190170564
  0
ARC
  5
80
330
104
100
AcDbEntity
  8
0
100
AcDbCircle
 10
28.91583932098778
 20
1.803113108673815
 30
0.0
 40
0.8522404382874439
100
AcDbArc
 50
236.2944831006231
 51
270.3295415075295
  0
ARC
  5
81
330
104
100
AcDbEntity
  8
0
100
AcDbCircle
 10
28.96561454444391
 20
1.87781296847683
 30
0.0
 40
0.9420047971032988
100
AcDbArc
 50
204.0308425449412
 51
236.2972044443631
  0
ARC
  5
82
330
104
100
AcDbEntity
  8
0
100
AcDbCircle
 10
29.36799949716771
 20
2.057580333154795
 30
0.0
 40
1.382719993335774
100
AcDbArc
 50
178.8809817705839
 51
204.044256362706
  0
ARC
  5
83
330
104
100
AcDbEntity
  8
0
100
AcDbCircle
 10
29.53063996772177
 20
2.10588934882492
 30
0.0
 40
1.545243642366734
100
AcDbArc
 50
158.3906511963732
 51
180.7900054355327
  0
ARC
  5
84
330
104
100
AcDbEntity
  8
0
100
AcDbCircle
 10
28.89268343566794
 20
2.368633376265511
 30
0.0
 40
0.8554135177070553
100
AcDbArc
 50
123.5942145531258
 51
159.0158026232978
  0
ARC
  5
85
330
104
100
AcDbEntity
  8
0
100
AcDbCircle
 10
28.89456565726847
 20
2.352526076180101
 30
0.0
 40
0.8699029817672805
100
AcDbArc
 50
89.35423094358377
 51
123.1104703787284
  0
ARC
  5
86
330
104
100
AcDbEntity
  8
0
100
AcDbCircle
 10
28.91753855452925
 20
2.497790410769122
 30
0.0
 40
0.7247030489908296
100
AcDbArc
 50
62.30975647065933
 51
91.04118100555927
  0
ARC
  5
87
330
104
100
AcDbEntity
  8
0
100
AcDbCircle
 10
28.91290227114417
 20
2.492402176922246
 30
0.0
 40
0.7316303764141318
100
AcDbArc
 50
36.11216545040751
 51
62.18434385428968
  0
LINE
  5
88
330
104
100
AcDbEntity
  8
0
100
AcDbLine
 10
29.50396067200452
 20
2.923601637107776
 30
0.0
 11
29.50396067200452
 21
4.0
 31
0.0
  0
LINE
  5
89
330
104
100
AcDbEntity
  8
0
100
AcDbLine
 10
29.50396067200452
 20
4.0
 30
0.0
 11
29.87026353694313
 21
4.0
 31
0.0
  0
LINE
  5
8A
330
104
100
AcDbEntity
  8
0
100
AcDbLine
 10
29.87026353694313
 20
4.0
 30
0.0
 11
29.87026353694313
 21
1.0
 31
0.0
  0
LINE
  5
8B
330
104
100
AcDbEntity
  8
0
100
AcDbLine
 10
29.87026353694313
 20
1.0
 30
0.0
 11
29.52851728864845
 21
1.0
 31
0.0
  0
ARC
  5
8C
330
104
100
AcDbEntity
  8
0
100
AcDbCircle
 10
29.3052319100696
 20
2.013060122582459
 30
0.0
 40
0.9438215026724495
100
AcDbArc
 50
175.653899427219
 51
215.8395240184637
  0
ARC
  5
8D
330
104
100
AcDbEntity
  8
0
100
AcDbCircle
 10
28.9604159663691
 20
1.784387926278205
 30
0.0
 40
0.5306587188498687
100
AcDbArc
 50
217.6235133422832
 51
269.472402864562
  0
ARC
  5
8E
330
104
100
AcDbEntity
  8
0
100
AcDbCircle
 10
28.95747460794228
 20
1.774692959362171
 30
0.0
 40
0.5209448851335825
100
AcDbArc
 50
269.7860754533611
 51
321.6166468115961
  0
ARC
  5
8F
330
104
100
AcDbEntity
  8
0
100
AcDbCircle
 10
28.62696358537801
 20
1.983188058104917
 30
0.0
 40
0.9104421034502729
100
AcDbArc
 50
324.2473066753993
 51
4.453768223984482
  0
ARC
  5
90
330
104
100
AcDbEntity
  8
0
100
AcDbCircle
 10
28.51600743220829
 20
2.136475712479822
 30
0.0
 40
1.021991445863685
100
AcDbArc
 50
355.3648484650965
 51
34.05175933426886
  0
ARC
  5
91
330
104
100
AcDbEntity
  8
0
100
AcDbCircle
 10
28.941863086073
 20
2.388754529987208
 30
0.0
 40
0.528714870574862
100
AcDbArc
 50
37.2430270680255
 51
90.29309306566142
  0
ARC
  5
92
330
104
100
AcDbEntity
  8
0
100
AcDbCircle
 10
28.93443981380193
 20
2.407123363686154
 30
0.0
 40
0.5103609336001141
100
AcDbArc
 50
89.47024934878122
 51
142.62649020464
  0
ARC
  5
93
330
104
100
AcDbEntity
  8
0
100
AcDbCircle
 10
29.35065178843526
 20
2.165200458011937
 30
0.0
 40
0.9898158168287685
100
AcDbArc
 50
146.1243085769744
 51
184.671687699676
  0
ARC
  5
94
330
104
100
AcDbEntity
  8
0
100
AcDbCircle
 10
30.95067127430181
 20
2.292477661033181
 30
0.0
 40
1.371608746609588
100
AcDbArc
 50
292.1961040296057
 51
311.6807938037383
  0
ARC
  5
95
330
104
100
AcDbEntity
  8
0
100
AcDbCircle
 10
31.07134643733255
 20
2.089136465695444
 30
0.0
 40
1.138283093481909
100
AcDbArc
 50
269.5611147221913
 51
290.4383782104456
  0
ARC
  5
96
330
104
100
AcDbEntity
  8
0
100
AcDbCircle
 10
31.01016218008469
 20
1.739259888722471
 30
0.0
 40
0.7901169321173642
100
AcDbArc
 50
230.927583091845
 51
273.8073381315889
  0
ARC
  5
97
330
104
100
AcDbEntity
  8
0
100
AcDbCircle
 10
30.89705645273436
 20
1.556386569895063
 30
0.0
 40
0.5775054845405004
100
AcDbArc
 50
178.3527308259981
 51
228.2025946758713
  0
ARC
  5
98
330
104
100
AcDbEntity
  8
0
100
AcDbCircle
 10
30.91442294709524
 20
1.579704881152265
 30
0.0
 40
0.5946712569888754
100
AcDbArc
 50
151.3749355225504
 51
180.6472030849332
  0
ARC
  5
99
330
104
100
AcDbEntity
  8
0
100
AcDbCircle
 10
30.92221400250428
 20
1.57996909457218
 30
0.0
 40
0.6013965275180239
100
AcDbArc
 50
124.3647611634459
 51
151.7526339847464
  0
ARC
  5
9A
330
104
100
AcDbEntity
  8
0
100
AcDbCircle
 10
31.0813310322952
 20
1.333257498807916
 30
0.0
 40
0.8948973822852935
100
AcDbArc
 50
105.1298001227139
 51
123.8580729710862
  0
ARC
  5
9B
330
104
100
AcDbEntity
  8
0
100
AcDbCircle
 10
31.44856510074207
 20
-0.3654457779717616
 30
0.0
 40
2.632069730997689
100
AcDbArc
 50
95.96192574421914
 51
103.1949200947025
  0
ARC
  5
9C
330
104
100
AcDbEntity
  8
0
100
AcDbCircle
 10
30.86830063946536
 20
5.605156640459071
 30
0.0
 40
3.366784109156741
100
AcDbArc
 50
275.2296911030064
 51
286.6340317607384
  0
ARC
  5
9D
330
104
100
AcDbEntity
  8
0
100
AcDbCircle
 10
26.95796323013263
 20
2.53107946793871
 30
0.0
 40
4.876468480320278
100
AcDbArc
 50
358.2159566147301
 51
359.3462929150076
  0
ARC
  5
9E
330
104
100
AcDbEntity
  8
0
100
AcDbCircle
 10
31.42969412136489
 20
2.518140735458276
 30
0.0
 40
0.406667876943573
100
AcDbArc
 50
353.9732265817555
 51
42.45251995870098
  0
ARC
  5
9F
330
104
100
AcDbEntity
  8
0
100
AcDbCircle
 10
31.35563082798042
 20
2.302678814869619
 30
0.0
 40
0.6164570552380849
100
AcDbArc
 50
52.63547063385076
 51
94.22262703232187
  0
ARC
  5
A0
330
104
100
AcDbEntity
  8
0
100
AcDbCircle
 10
31.26154101283591
 20
2.268771375348063
 30
0.0
 40
0.6505165087609022
100
AcDbArc
 50
85.70671975571774
 51
120.9956376225813
  0
ARC
  5
A1
330
104
100
AcDbEntity
  8
0
100
AcDbCircle
 10
31.29110225815103
 20
2.406044885308138
 30
0.0
 40
0.5564177558306912
100
AcDbArc
 50
130.9340870490368
 51
169.8507615784564
  0
LINE
  5
A2
330
104
100
AcDbEntity
  8
0
100
AcDbLine
 10
30.74339126554562
 20
2.504092769440655
 30
0.0
 11
30.38322755476799
 21
2.553206002728513
 31
0.0
  0
ARC
  5
A3
330
104
100
AcDbEntity
  8
0
100
AcDbCircle
 10
31.26146049238285
 20
2.394762397215695
 30
0.0
 40
0.8924110425356264
100
AcDbArc
 50
143.4135018043327
 51
169.773172695594
  0
ARC
  5
A4
330
104
100
AcDbEntity
  8
0
100
AcDbCircle
 10
31.08774746649475
 20
2.471230353405963
 30
0.0
 40
0.7086031978367111
100
AcDbArc
 50
107.8733608943094
 51
140.0042741825079
  0
ARC
  5
A5
330
104
100
AcDbEntity
  8
0
100
AcDbCircle
 10
31.33666895708922
 20
1.771342554097284
 30
0.0
 40
1.451278297237254
100
AcDbArc
 50
88.94280152786699
 51
108.7459858891156
  0
ARC
  5
A6
330
104
100
AcDbEntity
  8
0
100
AcDbCircle
 10
31.40540142474232
 20
1.917708122388714
 30
0.0
 40
1.305340115891284
100
AcDbArc
 50
71.68018934077008
 51
91.84188950795982
  0
ARC
  5
A7
330
104
100
AcDbEntity
  8
0
100
AcDbCircle
 10
31.63164543683179
 20
2.590127374850142
 30
0.0
 40
0.5958978327641581
100
AcDbArc
 50
42.42771615190207
 51
72.0092133737373
  0
ARC
  5
A8
330
104
100
AcDbEntity
  8
0
100
AcDbCircle
 10
31.61699334333108
 20
2.632848574089565
 30
0.0
 40
0.5793731049456705
100
AcDbArc
 50
10.80615427081316
 51
38.32818837039051
  0
ARC
  5
A9
330
104
100
AcDbEntity
  8
0
100
AcDbCircle
 10
30.13132967505094
 20
2.45972139324696
 30
0.0
 40
2.073989978565727
100
AcDbArc
 50
358.3989315414246
 51
7.80778710206356
  0
LINE
  5
AA
330
104
100
AcDbEntity
  8
0
100
AcDbLine
 10
32.2045099558594
 20
2.401773533424283
 30
0.0
 11
32.2045099558594
 21
1.910641200545703
 31
0.0
  0
ARC
  5
AB
330
104
100
AcDbEntity
  8
0
100
AcDbCircle
 10
37.4156343288517
 20
1.774100817059149
 30
0.0
 40
5.212912862029921
100
AcDbArc
 50
178.4990958571607
 51
185.6496509045472
  0
ARC
  5
AC
330
104
100
AcDbEntity
  8
0
100
AcDbCircle
 10
33.03552301115761
 20
1.402002588489725
 30
0.0
 40
0.819712955659902
100
AcDbArc
 50
189.9110708215669
 51
209.3681073425727
  0
LINE
  5
AD
330
104
100
AcDbEntity
  8
0
100
AcDbLine
 10
32.32115388491806
 20
1.0
 30
0.0
 11
31.93643355749651
 21
1.0
 31
0.0
  0
ARC
  5
AE
330
104
100
AcDbEntity
  8
0
100
AcDbCircle
 10
32.6406525898239
 20
1.337686614926173
 30
0.0
 40
0.7809972441644232
100
AcDbArc
 50
185.1135536206667
 51
205.618616804981
  0
ARC
  5
AF
330
104
100
AcDbEntity
  8
0
100
AcDbCircle
 10
30.92625236517492
 20
4.636868375485242
 30
0.0
 40
2.702472541580343
100
AcDbArc
 50
276.4626567542629
 51
289.5835025869469
  0
ARC
  5
B0
330
104
100
AcDbEntity
  8
0
100
AcDbCircle
 10
31.37862652164707
 20
0.567861963490532
 30
0.0
 40
1.391620219563954
100
AcDbArc
 50
96.11310374065947
 51
109.7161603439823
  0
ARC
  5
B1
330
104
100
AcDbEntity
  8
0
100
AcDbCircle
 10
31.03117602876099
 20
1.581770969741089
 30
0.0
 40
0.3202851422443351
100
AcDbArc
 50
112.3954378207566
 51
146.5777621219091
  0
ARC
  5
B2
330
104
100
AcDbEntity
  8
0
100
AcDbCircle
 10
31.0271900622061
 20
1.586224592537227
 30
0.0
 40
0.3145089230422252
100
AcDbArc
 50
146.8549715309264
 51
180.5474357059991
  0
ARC
  5
B3
330
104
100
AcDbEntity
  8
0
100
AcDbCircle
 10
31.02634912848164
 20
1.577561444832877
 30
0.0
 40
0.3137046655555845
100
AcDbArc
 50
178.966516529751
 51
229.8854145207974
  0
ARC
  5
B4
330
104
100
AcDbEntity
  8
0
100
AcDbCircle
 10
31.11668929468224
 20
1.718082555407684
 30
0.0
 40
0.479856796945538
100
AcDbArc
 50
232.4476784690271
 51
274.0549904546423
  0
ARC
  5
B5
330
104
100
AcDbEntity
  8
0
100
AcDbCircle
 10
31.16456558784465
 20
1.998930888405008
 30
0.0
 40
0.7596318624023082
100
AcDbArc
 50
268.9482225814097
 51
298.686615715861
  0
ARC
  5
B6
330
104
100
AcDbEntity
  8
0
100
AcDbCircle
 10
31.25654683145462
 20
1.836917020907147
 30
0.0
 40
0.5733585868771018
100
AcDbArc
 50
298.3946542720287
 51
334.1932160586783
  0
ARC
  5
B7
330
104
100
AcDbEntity
  8
0
100
AcDbCircle
 10
30.94343634214525
 20
1.909874881057464
 30
0.0
 40
0.8898103958009369
100
AcDbArc
 50
338.74576260327
 51
2.949559297925874
  0
LINE
  5
B8
330
104
100
AcDbEntity
  8
0
100
AcDbLine
 10
31.83206793675981
 20
1.955661664392906
 30
0.0
 11
31.83206793675981
 21
2.090723055934516
 31
0.0
  0
LINE
  5
B9
330
104
100
AcDbEntity
  8
0
100
AcDbLine
 10
33.11037983998713
 20
1.0
 30
0.0
 11
32.76863359169245
 21
1.0
 31
0.0
  0
LINE
  5
BA
330
104
100
AcDbEntity
  8
0
100
AcDbLine
 10
32.76863359169245
 20
1.0
 30
0.0
 11
32.76863359169245
 21
4.0
 31
0.0
  0
LINE
  5
BB
330
104
100
AcDbEntity
  8
0
100
AcDbLine
 10
32.76863359169245
 20
4.0
 30
0.0
 11
33.13698284135138
 21
4.0
 31
0.0
  0
LINE
  5
BC
330
104
100
AcDbEntity
  8
0
100
AcDbLine
 10
33.13698284135138
 20
4.0
 30
0.0
 11
33.13698284135138
 21
2.929740791268759
 31
0.0
  0
ARC
  5
BD
330
104
100
AcDbEntity
  8
0
100
AcDbCircle
 10
33.72095253867143
 20
2.49360814024691
 30
0.0
 40
0.7288568423740145
100
AcDbArc
 50
89.09372055465714
 51
143.2461077144831
  0
ARC
  5
BE
330
104
100
AcDbEntity
  8
0
100
AcDbCircle
 10
33.73668384470633
 20
2.310346589451279
 30
0.0
 40
0.9120369015864419
100
AcDbArc
 50
65.69413849798738
 51
90.26404399114682
  0
ARC
  5
BF
330
104
100
AcDbEntity
  8
0
100
AcDbCircle
 10
33.79998069581269
 20
2.431931584800197
 30
0.0
 40
0.7752132510120483
100
AcDbArc
 50
38.48864217085119
 51
66.25889055181037
  0
ARC
  5
C0
330
104
100
AcDbEntity
  8
0
100
AcDbCircle
 10
33.5364409942505
 20
2.2449210123783
 30
0.0
 40
1.098023554308766
100
AcDbArc
 50
16.75132083352824
 51
37.56827055106393
  0
ARC
  5
C1
330
104
100
AcDbEntity
  8
0
100
AcDbCircle
 10
33.19801292913814
 20
2.129626608932894
 30
0.0
 40
1.4553771143738
100
AcDbArc
 50
359.5963071413975
 51
17.2576309015625
  0
ARC
  5
C2
330
104
100
AcDbEntity
  8
0
100
AcDbCircle
 10
33.41446879900445
 20
2.039722257619589
 30
0.0
 40
1.241442907549011
100
AcDbArc
 50
320.8419224945349
 51
3.678587355846461
  0
ARC
  5
C3
330
104
100
AcDbEntity
  8
0
100
AcDbCircle
 10
33.71832460384083
 20
1.814953094690908
 30
0.0
 40
0.8640768354609952
100
AcDbArc
 50
269.7174396491502
 51
319.6757438757741
  0
ARC
  5
C4
330
104
100
AcDbEntity
  8
0
100
AcDbCircle
 10
33.69488255761506
 20
1.642642531315136
 30
0.0
 40
0.6920216325997494
100
AcDbArc
 50
212.3676097381109
 51
271.5882714592194
  0
LINE
  5
C5
330
104
100
AcDbEntity
  8
0
100
AcDbLine
 10
33.11037983998713
 20
1.272169167803547
 30
0.0
 11
33.11037983998713
 21
1.0
 31
0.0
  0
ARC
  5
C6
330
104
100
AcDbEntity
  8
0
100
AcDbCircle
 10
34.23136330517678
 20
2.022546838282078
 30
0.0
 40
1.127949229566506
100
AcDbArc
 50
175.9097249780218
 51
205.4298406309725
  0
ARC
  5
C7
330
104
100
AcDbEntity
  8
0
100
AcDbCircle
 10
33.68262927546721
 20
1.784155803268197
 30
0.0
 40
0.5304046117692927
100
AcDbArc
 50
207.6270964777695
 51
270.0797517531299
  0
ARC
  5
C8
330
104
100
AcDbEntity
  8
0
100
AcDbCircle
 10
33.67861714185199
 20
1.783509496922681
 30
0.0
 40
0.5297790900475823
100
AcDbArc
 50
270.5137663218298
 51
322.8408050087377
  0
ARC
  5
C9
330
104
100
AcDbEntity
  8
0
100
AcDbCircle
 10
33.32623224706063
 20
2.018916090245895
 30
0.0
 40
0.9531432010795806
100
AcDbArc
 50
324.358337054587
 51
4.197232890017408
  0
ARC
  5
CA
330
104
100
AcDbEntity
  8
0
100
AcDbCircle
 10
33.31023878396134
 20
2.165732310168301
 30
0.0
 40
0.9696469140630558
100
AcDbArc
 50
355.4420285077829
 51
34.64139722965467
  0
ARC
  5
CB
330
104
100
AcDbEntity
  8
0
100
AcDbCircle
 10
33.6989933815445
 20
2.405364433273092
 30
0.0
 40
0.5141449745234212
100
AcDbArc
 50
37.29810269185296
 51
89.9169492084694
  0
ARC
  5
CC
330
104
100
AcDbEntity
  8
0
100
AcDbCircle
 10
33.70448905926825
 20
2.389751076065005
 30
0.0
 40
0.5297790900476155
100
AcDbArc
 50
90.51376632183131
 51
142.8408050087355
  0
ARC
  5
CD
330
104
100
AcDbEntity
  8
0
100
AcDbCircle
 10
34.02496842005951
 20
2.16543670052107
 30
0.0
 40
0.92080051757021
100
AcDbArc
 50
143.7623826871853
 51
183.8879518652955
  0
LINE
  5
CE
330
104
100
AcDbEntity
  8
0
100
AcDbLine
 10
35.08855531756643
 20
1.0
 30
0.0
 11
35.08855531756643
 21
4.0
 31
0.0
  0
LINE
  5
CF
330
104
100
AcDbEntity
  8
0
100
AcDbLine
 10
35.08855531756643
 20
4.0
 30
0.0
 11
35.45690456722537
 21
4.0
 31
0.0
  0
LINE
  5
D0
330
104
100
AcDbEntity
  8
0
100
AcDbLine
 10
35.45690456722537
 20
4.0
 30
0.0
 11
35.45690456722537
 21
1.0
 31
0.0
  0
LINE
  5
D1
330
104
100
AcDbEntity
  8
0
100
AcDbLine
 10
35.45690456722537
 20
1.0
 30
0.0
 11
35.08855531756643
 21
1.0
 31
0.0
  0
LINE
  5
D2
330
104
100
AcDbEntity
  8
0
100
AcDbLine
 10
37.52746020219401
 20
1.699863574351978
 30
0.0
 11
37.90808776017491
 21
1.652796725784448
 31
0.0
  0
ARC
  5
D3
330
104
100
AcDbEntity
  8
0
100
AcDbCircle
 10
37.00480399009895
 20
1.868435211647982
 30
0.0
 40
0.928666531036924
100
AcDbArc
 50
307.8419257589449
 51
346.5732360700011
  0
ARC
  5
D4
330
104
100
AcDbEntity
  8
0
100
AcDbCircle
 10
36.99412256715105
 20
1.952792055356837
 30
0.0
 40
1.002772558030404
100
AcDbArc
 50
267.6168865168707
 51
305.3661660949574
  0
ARC
  5
D5
330
104
100
AcDbEntity
  8
0
100
AcDbCircle
 10
36.90293383120407
 20
1.943772828372636
 30
0.0
 40
0.9941188136700453
100
AcDbArc
 50
224.6977253676257
 51
272.8536534592221
  0
ARC
  5
D6
330
104
100
AcDbEntity
  8
0
100
AcDbCircle
 10
37.06219906301151
 20
1.997399962206413
 30
0.0
 40
1.147430802507537
100
AcDbArc
 50
176.4617840205417
 51
221.0049392652914
  0
ARC
  5
D7
330
104
100
AcDbEntity
  8
0
100
AcDbCircle
 10
37.11547997638785
 20
2.143113940868652
 30
0.0
 40
1.200862719914973
100
AcDbArc
 50
139.7194411489885
 51
183.5760168754276
  0
ARC
  5
D8
330
104
100
AcDbEntity
  8
0
100
AcDbCircle
 10
36.89798993678409
 20
2.267060674636584
 30
0.0
 40
0.9559169929709261
100
AcDbArc
 50
87.96333774629105
 51
136.9578302567016
  0
ARC
  5
D9
330
104
100
AcDbEntity
  8
0
100
AcDbCircle
 10
36.96293723560868
 20
2.293780623715007
 30
0.0
 40
0.9291096536574602
100
AcDbArc
 50
42.84976907890168
 51
91.91050102501688
  0
ARC
  5
DA
330
104
100
AcDbEntity
  8
0
100
AcDbCircle
 10
36.7437126639939
 20
2.16455679171485
 30
0.0
 40
1.1789676224849
100
AcDbArc
 50
356.4094590108928
 51
40.20747754689631
  0
ARC
  5
DB
330
104
100
AcDbEntity
  8
0
100
AcDbCircle
 10
34.4802654545563
 20
2.113257268929433
 30
0.0
 40
3.440174417786052
100
AcDbArc
 50
357.9883290217961
 51
359.624692130245
  0
LINE
  5
DC
330
104
100
AcDbEntity
  8
0
100
AcDbLine
 10
37.91831968377655
 20
1.992496589358799
 30
0.0
 11
36.29758298527722
 21
1.992496589358799
 31
0.0
  0
ARC
  5
DD
330
104
100
AcDbEntity
  8
0
100
AcDbCircle
 10
37.13271458083316
 20
1.989362080260569
 30
0.0
 40
0.8351374779298875
100
AcDbArc
 50
179.7849520964105
 51
220.7638087110355
  0
ARC
  5
DE
330
104
100
AcDbEntity
  8
0
100
AcDbCircle
 10
36.93998911571246
 20
1.856561339922905
 30
0.0
 40
0.6029836012902836
100
AcDbArc
 50
223.1641874812347
 51
271.3763483588751
  0
ARC
  5
DF
330
104
100
AcDbEntity
  8
0
100
AcDbCircle
 10
36.97040560092897
 20
1.817163470482452
 30
0.0
 40
0.563637012135755
100
AcDbArc
 50
268.3801237985202
 51
305.8253341395838
  0
ARC
  5
E0
330
104
100
AcDbEntity
  8
0
100
AcDbCircle
 10
36.85179889764472
 20
1.905866966271993
 30
0.0
 40
0.7063678899467298
100
AcDbArc
 50
309.4167285650996
 51
343.0439815421861
  0
LINE
  5
E1
330
104
100
AcDbEntity
  8
0
100
AcDbLine
 10
36.3180468324805
 20
2.295361527967258
 30
0.0
 11
37.53155297163466
 21
2.295361527967258
 31
0.0
  0
ARC
  5
E2
330
104
100
AcDbEntity
  8
0
100
AcDbCircle
 10
36.79558989182563
 20
2.275579172690429
 30
0.0
 40
0.7362289021916297
100
AcDbArc
 50
1.53971393440631
 51
35.84251215629818
  0
ARC
  5
E3
330
104
100
AcDbEntity
  8
0
100
AcDbCircle
 10
36.95066071553284
 20
2.355161647468937
 30
0.0
 40
0.5645361913511596
100
AcDbArc
 50
38.51182390707883
 51
91.48252357245082
  0
ARC
  5
E4
330
104
100
AcDbEntity
  8
0
100
AcDbCircle
 10
36.9217837021995
 20
2.33452480863278
 30
0.0
 40
0.5851581151958158
100
AcDbArc
 50
88.602484991694
 51
134.8106915243924
  0
ARC
  5
E5
330
104
100
AcDbEntity
  8
0
100
AcDbCircle
 10
36.99010308917515
 20
2.279752319354645
 30
0.0
 40
0.6722375023426921
100
AcDbArc
 50
135.6516691506785
 51
178.6694848818636
  0
ENDSEC
  0
SECTION
  2
OBJECTS
  0
DICTIONARY
  5
F2
330
0
100
AcDbDictionary
281
     1
  3
ACAD_GROUP
350
F3
  3
ACAD_LAYOUT
350
FF
  3
ACAD_MATERIAL
350
120
  3
ACAD_MLEADERSTYLE
350
18D
  3
ACAD_MLINESTYLE
350
FC
  3
ACAD_PLOTSETTINGS
350
FE
  3
ACAD_PLOTSTYLENAME
350
F4
  3
ACAD_SCALELIST
350
124
  3
ACAD_TABLESTYLE
350
18C
  3
ACAD_VISUALSTYLE
350
10F
  3
ACDB_RECOMPOSE_DATA
350
18B
  3
AcDbVariableDictionary
350
189
  3
QCAD_OBJECTS
350
148
  0
SUN
  5
146
330
10E
100
AcDbSun
 90
        1
290
     0
 63
     7
421
 16777215
 40
1.0
291
     1
 91
  2455826
 92
 54000000
292
     0
 70
     2
 71
   256
280
     1
  0
DICTIONARY
  5
F3
102
{ACAD_REACTORS
330
F2
102
}
330
F2
100
AcDbDictionary
281
     1
  0
DICTIONARY
  5
FF
102
{ACAD_REACTORS
330
F2
102
}
330
F2
100
AcDbDictionary
281
     1
  3
Layout1
350
103
  3
Layout2
350
10B
  3
Model
350
107
  0
DICTIONARY
  5
120
102
{ACAD_REACTORS
330
F2
102
}
330
F2
100
AcDbDictionary
281
     1
  3
ByBlock
350
122
  3
ByLayer
350
121
  3
Global
350
123
  0
DICTIONARY
  5
18D
102
{ACAD_REACTORS
330
F2
102
}
330
F2
100
AcDbDictionary
281
     1
  0
DICTIONARY
  5
FC
102
{ACAD_REACTORS
330
F2
102
}
330
F2
100
AcDbDictionary
281
     1
  3
Standard
350
FD
  0
DICTIONARY
  5
FE
102
{ACAD_REACTORS
330
F2
102
}
330
F2
100
AcDbDictionary
281
     1
  0
ACDBDICTIONARYWDFLT
  5
F4
102
{ACAD_REACTORS
330
F2
102
}
330
F2
100
AcDbDictionary
281
     1
  3
Normal
350
F5
100
AcDbDictionaryWithDefault
340
F5
  0
DICTIONARY
  5
124
102
{ACAD_REACTORS
330
F2
102
}
330
F2
100
AcDbDictionary
281
     1
  3
A0
350
125
  3
A1
350
126
  3
A2
350
127
  3
A3
350
128
  3
A4
350
129
  3
A5
350
12A
  3
A6
350
12B
  3
A7
350
12C
  3
A8
350
12D
  3
A9
350
12E
  3
B0
350
12F
  3
B1
350
130
  3
B2
350
131
  3
B3
350
132
  3
B4
350
133
  3
B5
350
134
  3
B6
350
135
  3
B7
350
136
  3
B8
350
137
  3
B9
350
138
  3
C0
350
139
  3
C1
350
13A
  3
C2
350
13B
  3
C3
350
13C
  3
C4
350
13D
  3
C5
350
13E
  3
C6
350
13F
  3
C7
350
140
  3
C8
350
141
  3
C9
350
142
  3
D0
350
143
  3
D1
350
144
  3
D2
350
145
  0
DICTIONARY
  5
18C
102
{ACAD_REACTORS
330
F2
102
}
330
F2
100
AcDbDictionary
281
     1
  0
DICTIONARY
  5
10F
102
{ACAD_REACTORS
330
F2
102
}
330
F2
100
AcDbDictionary
281
     1
  3
2dWireframe
350
114
  3
3D Hidden
350
116
  3
3dWireframe
350
115
  3
Basic
350
117
  3
Brighten
350
11B
  3
ColorChange
350
11F
  3
Conceptual
350
119
  3
Dim
350
11A
  3
Facepattern
350
11E
  3
Flat
350
110
  3
FlatWithEdges
350
111
  3
Gouraud
350
112
  3
GouraudWithEdges
350
113
  3
Linepattern
350
11D
  3
Realistic
350
118
  3
Thicken
350
11C
  0
XRECORD
  5
18B
102
{ACAD_REACTORS
330
F2
102
}
330
F2
100
AcDbXrecord
280
     1
  0
DICTIONARY
  5
189
102
{ACAD_REACTORS
330
F2
102
}
330
F2
100
AcDbDictionary
281
     1
  3
CANNOSCALE
350
18A
  0
DICTIONARY
  5
148
102
{ACAD_REACTORS
330
F2
102
}
330
F2
100
AcDbDictionary
281
     1
  3
Grid/DisplayGrid00
350
15E
  3
Grid/DisplayGrid01
350
15F
  3
Grid/DisplayGrid02
350
160
  3
Grid/DisplayGrid03
350
163
  3
Grid/GridSpacingX00
350
155
  3
Grid/GridSpacingX01
350
156
  3
Grid/GridSpacingX02
350
159
  3
Grid/GridSpacingX03
350
15B
  3
Grid/GridSpacingY00
350
170
  3
Grid/GridSpacingY01
350
171
  3
Grid/GridSpacingY02
350
172
  3
Grid/GridSpacingY03
350
173
  3
Grid/IsometricGrid00
350
149
  3
Grid/IsometricGrid01
350
14B
  3
Grid/IsometricGrid02
350
14C
  3
Grid/IsometricGrid03
350
14D
  3
Grid/IsometricProjection00
350
166
  3
Grid/IsometricProjection01
350
167
  3
Grid/IsometricProjection02
350
169
  3
Grid/IsometricProjection03
350
16C
  3
Grid/MetaGridSpacingX00
350
154
  3
Grid/MetaGridSpacingX01
350
158
  3
Grid/MetaGridSpacingX02
350
15A
  3
Grid/MetaGridSpacingX03
350
15C
  3
Grid/MetaGridSpacingY00
350
14E
  3
Grid/MetaGridSpacingY01
350
14F
  3
Grid/MetaGridSpacingY02
350
150
  3
Grid/MetaGridSpacingY03
350
151
  3
MultiPageSettings/Columns
350
153
  3
MultiPageSettings/GlueMarginsBottom
350
15D
  3
MultiPageSettings/GlueMarginsLeft
350
152
  3
MultiPageSettings/GlueMarginsRight
350
165
  3
MultiPageSettings/GlueMarginsTop
350
168
  3
MultiPageSettings/PrintCropMarks
350
162
  3
MultiPageSettings/Rows
350
157
  3
PageSettings/OffsetX
350
16A
  3
PageSettings/OffsetY
350
16B
  3
PageSettings/PageOrientation
350
16E
  3
PageSettings/PaperHeight
350
16D
  3
PageSettings/PaperWidth
350
16F
  3
PageSettings/Scale
350
161
  3
PageSettings/ShowPaperBorders
350
164
  3
UnitSettings/PaperUnit
350
14A
  0
LAYOUT
  5
103
102
{ACAD_REACTORS
330
FF
102
}
330
FF
100
AcDbPlotSettings
  1

  2
none_device
  4

  6

 40
0.0
 41
0.0
 42
0.0
 43
0.0
 44
0.0
 45
0.0
 46
0.0
 47
0.0
 48
0.0
 49
0.0
140
0.0
141
0.0
142
1.0
143
1.0
 70
   688
 72
     0
 73
     0
 74
     5
  7

 75
    16
 76
     0
 77
     2
 78
   300
147
1.0
148
0.0
149
0.0
100
AcDbLayout
  1
Layout1
 70
     1
 71
     1
 10
0.0
 20
0.0
 11
12.0
 21
9.0
 12
0.0
 22
0.0
 32
0.0
 14
1.000000000000000E+20
 24
1.000000000000000E+20
 34
1.000000000000000E+20
 15
-1.000000000000000E+20
 25
-1.000000000000000E+20
 35
-1.000000000000000E+20
146
0.0
 13
0.0
 23
0.0
 33
0.0
 16
1.0
 26
0.0
 36
0.0
 17
0.0
 27
1.0
 37
0.0
 76
     0
330
100
  0
LAYOUT
  5
10B
102
{ACAD_REACTORS
330
FF
102
}
330
FF
100
AcDbPlotSettings
  1

  2
none_device
  4

  6

 40
0.0
 41
0.0
 42
0.0
 43
0.0
 44
0.0
 45
0.0
 46
0.0
 47
0.0
 48
0.0
 49
0.0
140
0.0
141
0.0
142
1.0
143
1.0
 70
   688
 72
     0
 73
     0
 74
     5
  7

 75
    16
 76
     0
 77
     2
 78
   300
147
1.0
148
0.0
149
0.0
100
AcDbLayout
  1
Layout2
 70
     1
 71
     2
 10
0.0
 20
0.0
 11
0.0
 21
0.0
 12
0.0
 22
0.0
 32
0.0
 14
0.0
 24
0.0
 34
0.0
 15
0.0
 25
0.0
 35
0.0
146
0.0
 13
0.0
 23
0.0
 33
0.0
 16
1.0
 26
0.0
 36
0.0
 17
0.0
 27
1.0
 37
0.0
 76
     0
330
108
  0
LAYOUT
  5
107
102
{ACAD_REACTORS
330
FF
102
}
330
FF
100
AcDbPlotSettings
  1

  2
none_device
  4

  6

 40
0.0
 41
0.0
 42
0.0
 43
0.0
 44
0.0
 45
0.0
 46
0.0
 47
0.0
 48
0.0
 49
0.0
140
0.0
141
0.0
142
1.0
143
1.0
 70
  1712
 72
     0
 73
     0
 74
     0
  7

 75
     0
 76
     0
 77
     2
 78
   300
147
1.0
148
0.0
149
0.0
100
AcDbLayout
  1
Model
 70
     1
 71
     0
 10
0.0
 20
0.0
 11
12.0
 21
9.0
 12
0.0
 22
0.0
 32
0.0
 14
1.000000000000000E+20
 24
1.000000000000000E+20
 34
1.000000000000000E+20
 15
-1.000000000000000E+20
 25
-1.000000000000000E+20
 35
-1.000000000000000E+20
146
0.0
 13
0.0
 23
0.0
 33
0.0
 16
1.0
 26
0.0
 36
0.0
 17
0.0
 27
1.0
 37
0.0
 76
     0
330
104
331
10E
  0
MATERIAL
  5
122
102
{ACAD_REACTORS
330
120
102
}
330
120
100
AcDbMaterial
  1
ByBlock
 72
     1
 94
      127
  0
MATERIAL
  5
121
102
{ACAD_REACTORS
330
120
102
}
330
120
100
AcDbMaterial
  1
ByLayer
 72
     1
 94
      127
  0
MATERIAL
  5
123
102
{ACAD_REACTORS
330
120
102
}
330
120
100
AcDbMaterial
  1
Global
 72
     1
 94
      127
  0
MLINESTYLE
  5
FD
102
{ACAD_REACTORS
330
FC
102
}
330
FC
100
AcDbMlineStyle
  2
Standard
 70
     0
  3

 62
   256
 51
90.0
 52
90.0
 71
     2
 49
0.5
 62
   256
  6
BYLAYER
 49
-0.5
 62
   256
  6
BYLAYER
  0
ACDBPLACEHOLDER
  5
F5
102
{ACAD_REACTORS
330
F4
102
}
330
F4
  0
SCALE
  5
125
102
{ACAD_REACTORS
330
124
102
}
330
124
100
AcDbScale
 70
     0
300
1:1
140
1.0
141
1.0
290
     1
  0
SCALE
  5
126
102
{ACAD_REACTORS
330
124
102
}
330
124
100
AcDbScale
 70
     0
300
1:2
140
1.0
141
2.0
290
     0
  0
SCALE
  5
127
102
{ACAD_REACTORS
330
124
102
}
330
124
100
AcDbScale
 70
     0
300
1:4
140
1.0
141
4.0
290
     0
  0
SCALE
  5
128
102
{ACAD_REACTORS
330
124
102
}
330
124
100
AcDbScale
 70
     0
300
1:5
140
1.0
141
5.0
290
     0
  0
SCALE
  5
129
102
{ACAD_REACTORS
330
124
102
}
330
124
100
AcDbScale
 70
     0
300
1:8
140
1.0
141
8.0
290
     0
  0
SCALE
  5
12A
102
{ACAD_REACTORS
330
124
102
}
330
124
100
AcDbScale
 70
     0
300
1:10
140
1.0
141
10.0
290
     0
  0
SCALE
  5
12B
102
{ACAD_REACTORS
330
124
102
}
330
124
100
AcDbScale
 70
     0
300
1:16
140
1.0
141
16.0
290
     0
  0
SCALE
  5
12C
102
{ACAD_REACTORS
330
124
102
}
330
124
100
AcDbScale
 70
     0
300
1:20
140
1.0
141
20.0
290
     0
  0
SCALE
  5
12D
102
{ACAD_REACTORS
330
124
102
}
330
124
100
AcDbScale
 70
     0
300
1:30
140
1.0
141
30.0
290
     0
  0
SCALE
  5
12E
102
{ACAD_REACTORS
330
124
102
}
330
124
100
AcDbScale
 70
     0
300
1:40
140
1.0
141
40.0
290
     0
  0
SCALE
  5
12F
102
{ACAD_REACTORS
330
124
102
}
330
124
100
AcDbScale
 70
     0
300
1:50
140
1.0
141
50.0
290
     0
  0
SCALE
  5
130
102
{ACAD_REACTORS
330
124
102
}
330
124
100
AcDbScale
 70
     0
300
1:100
140
1.0
141
100.0
290
     0
  0
SCALE
  5
131
102
{ACAD_REACTORS
330
124
102
}
330
124
100
AcDbScale
 70
     0
300
2:1
140
2.0
141
1.0
290
     0
  0
SCALE
  5
132
102
{ACAD_REACTORS
330
124
102
}
330
124
100
AcDbScale
 70
     0
300
4:1
140
4.0
141
1.0
290
     0
  0
SCALE
  5
133
102
{ACAD_REACTORS
330
124
102
}
330
124
100
AcDbScale
 70
     0
300
8:1
140
8.0
141
1.0
290
     0
  0
SCALE
  5
134
102
{ACAD_REACTORS
330
124
102
}
330
124
100
AcDbScale
 70
     0
300
10:1
140
10.0
141
1.0
290
     0
  0
SCALE
  5
135
102
{ACAD_REACTORS
330
124
102
}
330
124
100
AcDbScale
 70
     0
300
100:1
140
100.0
141
1.0
290
     0
  0
SCALE
  5
136
102
{ACAD_REACTORS
330
124
102
}
330
124
100
AcDbScale
 70
     0
300
1/128" = 1'-0"
140
0.0078125
141
12.0
290
     0
  0
SCALE
  5
137
102
{ACAD_REACTORS
330
124
102
}
330
124
100
AcDbScale
 70
     0
300
1/64" = 1'-0"
140
0.015625
141
12.0
290
     0
  0
SCALE
  5
138
102
{ACAD_REACTORS
330
124
102
}
330
124
100
AcDbScale
 70
     0
300
1/32" = 1'-0"
140
0.03125
141
12.0
290
     0
  0
SCALE
  5
139
102
{ACAD_REACTORS
330
124
102
}
330
124
100
AcDbScale
 70
     0
300
1/16" = 1'-0"
140
0.0625
141
12.0
290
     0
  0
SCALE
  5
13A
102
{ACAD_REACTORS
330
124
102
}
330
124
100
AcDbScale
 70
     0
300
3/32" = 1'-0"
140
0.09375
141
12.0
290
     0
  0
SCALE
  5
13B
102
{ACAD_REACTORS
330
124
102
}
330
124
100
AcDbScale
 70
     0
300
1/8" = 1'-0"
140
0.125
141
12.0
290
     0
  0
SCALE
  5
13C
102
{ACAD_REACTORS
330
124
102
}
330
124
100
AcDbScale
 70
     0
300
3/16" = 1'-0"
140
0.1875
141
12.0
290
     0
  0
SCALE
  5
13D
102
{ACAD_REACTORS
330
124
102
}
330
124
100
AcDbScale
 70
     0
300
1/4" = 1'-0"
140
0.25
141
12.0
290
     0
  0
SCALE
  5
13E
102
{ACAD_REACTORS
330
124
102
}
330
124
100
AcDbScale
 70
     0
300
3/8" = 1'-0"
140
0.375
141
12.0
290
     0
  0
SCALE
  5
13F
102
{ACAD_REACTORS
330
124
102
}
330
124
100
AcDbScale
 70
     0
300
1/2" = 1'-0"
140
0.5
141
12.0
290
     0
  0
SCALE
  5
140
102
{ACAD_REACTORS
330
124
102
}
330
124
100
AcDbScale
 70
     0
300
3/4" = 1'-0"
140
0.75
141
12.0
290
     0
  0
SCALE
  5
141
102
{ACAD_REACTORS
330
124
102
}
330
124
100
AcDbScale
 70
     0
300
1" = 1'-0"
140
1.0
141
12.0
290
     0
  0
SCALE
  5
142
102
{ACAD_REACTORS
330
124
102
}
330
124
100
AcDbScale
 70
     0
300
1-1/2" = 1'-0"
140
1.5
141
12.0
290
     0
  0
SCALE
  5
143
102
{ACAD_REACTORS
330
124
102
}
330
124
100
AcDbScale
 70
     0
300
3" = 1'-0"
140
3.0
141
12.0
290
     0
  0
SCALE
  5
144
102
{ACAD_REACTORS
330
124
102
}
330
124
100
AcDbScale
 70
     0
300
6" = 1'-0"
140
6.0
141
12.0
290
     0
  0
SCALE
  5
145
102
{ACAD_REACTORS
330
124
102
}
330
124
100
AcDbScale
 70
     0
300
1'-0" = 1'-0"
140
12.0
141
12.0
290
     0
  0
VISUALSTYLE
  5
114
102
{ACAD_REACTORS
330
10F
102
}
330
10F
100
AcDbVisualStyle
  2
2dWireframe
 70
     4
177
     2
291
     0
 71
     0
176
     1
 72
     2
176
     1
 73
     0
176
     1
 90
        0
176
     1
 40
-0.6
176
     1
 41
-30.0
176
     1
 62
     5
 63
     7
421
 16777215
176
     1
 74
     1
176
     1
 91
        4
176
     1
 64
     7
176
     1
 65
   257
176
     1
 75
     1
176
     1
175
     1
176
     1
 42
1.0
176
     1
 92
        0
176
     1
 66
   257
176
     1
 43
1.0
176
     1
 76
     1
176
     1
 77
     6
176
     1
 78
     2
176
     1
 67
     7
176
     1
 79
     5
176
     1
170
     0
176
     1
171
     0
176
     1
290
     0
176
     1
 93
        1
176
     1
 44
0.0
176
     1
173
     0
176
     1
  0
VISUALSTYLE
  5
116
102
{ACAD_REACTORS
330
10F
102
}
330
10F
100
AcDbVisualStyle
  2
3D Hidden
 70
     6
177
     2
291
     0
 71
     1
176
     1
 72
     2
176
     1
 73
     2
176
     1
 90
        0
176
     1
 40
-0.6
176
     1
 41
-30.0
176
     1
 62
     5
 63
     7
421
 16777215
176
     1
 74
     2
176
     1
 91
        2
176
     1
 64
     7
176
     1
 65
   257
176
     1
 75
     2
176
     1
175
     1
176
     1
 42
40.0
176
     1
 92
        0
176
     1
 66
   257
176
     1
 43
1.0
176
     1
 76
     1
176
     1
 77
     6
176
     1
 78
     2
176
     1
 67
     7
176
     1
 79
     3
176
     1
170
     0
176
     1
171
     0
176
     1
290
     0
176
     1
 93
        1
176
     1
 44
0.0
176
     1
173
     0
176
     1
  0
VISUALSTYLE
  5
115
102
{ACAD_REACTORS
330
10F
102
}
330
10F
100
AcDbVisualStyle
  2
3dWireframe
 70
     5
177
     2
291
     0
 71
     0
176
     1
 72
     2
176
     1
 73
     0
176
     1
 90
        0
176
     1
 40
-0.6
176
     1
 41
-30.0
176
     1
 62
     5
 63
     7
421
 16777215
176
     1
 74
     1
176
     1
 91
        4
176
     1
 64
     7
176
     1
 65
   257
176
     1
 75
     1
176
     1
175
     1
176
     1
 42
1.0
176
     1
 92
        0
176
     1
 66
   257
176
     1
 43
1.0
176
     1
 76
     1
176
     1
 77
     6
176
     1
 78
     2
176
     1
 67
     7
176
     1
 79
     5
176
     1
170
     0
176
     1
171
     0
176
     1
290
     0
176
     1
 93
        1
176
     1
 44
0.0
176
     1
173
     0
176
     1
  0
VISUALSTYLE
  5
117
102
{ACAD_REACTORS
330
10F
102
}
330
10F
100
AcDbVisualStyle
  2
Basic
 70
     7
177
     2
291
     1
 71
     1
176
     1
 72
     0
176
     1
 73
     1
176
     1
 90
        0
176
     1
 40
-0.6
176
     1
 41
-30.0
176
     1
 62
     5
 63
     7
421
 16777215
176
     1
 74
     0
176
     1
 91
        4
176
     1
 64
     7
176
     1
 65
   257
176
     1
 75
     1
176
     1
175
     1
176
     1
 42
1.0
176
     1
 92
        8
176
     1
 66
     7
176
     1
 43
1.0
176
     1
 76
     1
176
     1
 77
     6
176
     1
 78
     2
176
     1
 67
     7
176
     1
 79
     5
176
     1
170
     0
176
     1
171
     0
176
     1
290
     0
176
     1
 93
        1
176
     1
 44
0.0
176
     1
173
     0
176
     1
  0
VISUALSTYLE
  5
11B
102
{ACAD_REACTORS
330
10F
102
}
330
10F
100
AcDbVisualStyle
  2
Brighten
 70
    12
177
     2
291
     1
 71
     2
176
     1
 72
     2
176
     1
 73
     0
176
     1
 90
        0
176
     1
 40
-0.6
176
     1
 41
-30.0
176
     1
 62
     5
 63
     7
421
 16777215
176
     1
 74
     1
176
     1
 91
        4
176
     1
 64
     7
176
     1
 65
   257
176
     1
 75
     1
176
     1
175
     1
176
     1
 42
1.0
176
     1
 92
        8
176
     1
 66
     7
176
     1
 43
1.0
176
     1
 76
     1
176
     1
 77
     6
176
     1
 78
     2
176
     1
 67
     7
176
     1
 79
     5
176
     1
170
     0
176
     1
171
     0
176
     1
290
     0
176
     1
 93
        1
176
     1
 44
50.0
176
     1
173
     0
176
     1
  0
VISUALSTYLE
  5
11F
102
{ACAD_REACTORS
330
10F
102
}
330
10F
100
AcDbVisualStyle
  2
ColorChange
 70
    16
177
     2
291
     1
 71
     2
176
     1
 72
     2
176
     1
 73
     3
176
     1
 90
        0
176
     1
 40
-0.6
176
     1
 41
-30.0
176
     1
 62
     5
 63
     8
421
  8421504
176
     1
 74
     1
176
     1
 91
        4
176
     1
 64
     7
176
     1
 65
   257
176
     1
 75
     1
176
     1
175
     1
176
     1
 42
1.0
176
     1
 92
        8
176
     1
 66
     8
424
  8421504
176
     1
 43
1.0
176
     1
 76
     1
176
     1
 77
     6
176
     1
 78
     2
176
     1
 67
     7
176
     1
 79
     5
176
     1
170
     0
176
     1
171
     0
176
     1
290
     0
176
     1
 93
        1
176
     1
 44
0.0
176
     1
173
     0
176
     1
  0
VISUALSTYLE
  5
119
102
{ACAD_REACTORS
330
10F
102
}
330
10F
100
AcDbVisualStyle
  2
Conceptual
 70
     9
177
     2
291
     0
 71
     3
176
     1
 72
     2
176
     1
 73
     0
176
     1
 90
        0
176
     1
 40
-0.6
176
     1
 41
-30.0
176
     1
 62
     5
 63
     7
421
 16777215
176
     1
 74
     2
176
     1
 91
        2
176
     1
 64
     7
176
     1
 65
   257
176
     1
 75
     1
176
     1
175
     1
176
     1
 42
40.0
176
     1
 92
        8
176
     1
 66
     7
176
     1
 43
1.0
176
     1
 76
     1
176
     1
 77
     6
176
     1
 78
     2
176
     1
 67
     7
176
     1
 79
     3
176
     1
170
     0
176
     1
171
     0
176
     1
290
     0
176
     1
 93
        1
176
     1
 44
0.0
176
     1
173
     0
176
     1
  0
VISUALSTYLE
  5
11A
102
{ACAD_REACTORS
330
10F
102
}
330
10F
100
AcDbVisualStyle
  2
Dim
 70
    11
177
     2
291
     1
 71
     2
176
     1
 72
     2
176
     1
 73
     0
176
     1
 90
        0
176
     1
 40
-0.6
176
     1
 41
-30.0
176
     1
 62
     5
 63
     7
421
 16777215
176
     1
 74
     1
176
     1
 91
        4
176
     1
 64
     7
176
     1
 65
   257
176
     1
 75
     1
176
     1
175
     1
176
     1
 42
1.0
176
     1
 92
        8
176
     1
 66
     7
176
     1
 43
1.0
176
     1
 76
     1
176
     1
 77
     6
176
     1
 78
     2
176
     1
 67
     7
176
     1
 79
     5
176
     1
170
     0
176
     1
171
     0
176
     1
290
     0
176
     1
 93
        1
176
     1
 44
-50.0
176
     1
173
     0
176
     1
  0
VISUALSTYLE
  5
11E
102
{ACAD_REACTORS
330
10F
102
}
330
10F
100
AcDbVisualStyle
  2
Facepattern
 70
    15
177
     2
291
     1
 71
     2
176
     1
 72
     2
176
     1
 73
     0
176
     1
 90
        0
176
     1
 40
-0.6
176
     1
 41
-30.0
176
     1
 62
     5
 63
     7
421
 16777215
176
     1
 74
     1
176
     1
 91
        4
176
     1
 64
     7
176
     1
 65
   257
176
     1
 75
     1
176
     1
175
     1
176
     1
 42
1.0
176
     1
 92
        8
176
     1
 66
     7
176
     1
 43
1.0
176
     1
 76
     1
176
     1
 77
     6
176
     1
 78
     2
176
     1
 67
     7
176
     1
 79
     5
176
     1
170
     0
176
     1
171
     0
176
     1
290
     0
176
     1
 93
        1
176
     1
 44
0.0
176
     1
173
     0
176
     1
  0
VISUALSTYLE
  5
110
102
{ACAD_REACTORS
330
10F
102
}
330
10F
100
AcDbVisualStyle
  2
Flat
 70
     0
177
     2
291
     1
 71
     2
176
     1
 72
     1
176
     1
 73
     1
176
     1
 90
        2
176
     1
 40
-0.6
176
     1
 41
30.0
176
     1
 62
     5
 63
     7
421
 16777215
176
     1
 74
     0
176
     1
 91
        4
176
     1
 64
     7
176
     1
 65
   257
176
     1
 75
     1
176
     1
175
     1
176
     1
 42
1.0
176
     1
 92
        8
176
     1
 66
     7
176
     1
 43
1.0
176
     1
 76
     1
176
     1
 77
     6
176
     1
 78
     2
176
     1
 67
     7
176
     1
 79
     5
176
     1
170
     0
176
     1
171
     0
176
     1
290
     0
176
     1
 93
       13
176
     1
 44
0.0
176
     1
173
     0
176
     1
  0
VISUALSTYLE
  5
111
102
{ACAD_REACTORS
330
10F
102
}
330
10F
100
AcDbVisualStyle
  2
FlatWithEdges
 70
     1
177
     2
291
     1
 71
     2
176
     1
 72
     1
176
     1
 73
     1
176
     1
 90
        2
176
     1
 40
-0.6
176
     1
 41
30.0
176
     1
 62
     5
 63
     7
421
 16777215
176
     1
 74
     1
176
     1
 91
        4
176
     1
 64
     7
176
     1
 65
   257
176
     1
 75
     1
176
     1
175
     1
176
     1
 42
1.0
176
     1
 92
        0
176
     1
 66
   257
176
     1
 43
1.0
176
     1
 76
     1
176
     1
 77
     6
176
     1
 78
     2
176
     1
 67
     7
176
     1
 79
     5
176
     1
170
     0
176
     1
171
     0
176
     1
290
     0
176
     1
 93
       13
176
     1
 44
0.0
176
     1
173
     0
176
     1
  0
VISUALSTYLE
  5
112
102
{ACAD_REACTORS
330
10F
102
}
330
10F
100
AcDbVisualStyle
  2
Gouraud
 70
     2
177
     2
291
     1
 71
     2
176
     1
 72
     2
176
     1
 73
     1
176
     1
 90
        2
176
     1
 40
-0.6
176
     1
 41
30.0
176
     1
 62
     5
 63
     7
421
 16777215
176
     1
 74
     0
176
     1
 91
        4
176
     1
 64
     7
176
     1
 65
   257
176
     1
 75
     1
176
     1
175
     1
176
     1
 42
1.0
176
     1
 92
        0
176
     1
 66
     7
176
     1
 43
1.0
176
     1
 76
     1
176
     1
 77
     6
176
     1
 78
     2
176
     1
 67
     7
176
     1
 79
     5
176
     1
170
     0
176
     1
171
     0
176
     1
290
     0
176
     1
 93
       13
176
     1
 44
0.0
176
     1
173
     0
176
     1
  0
VISUALSTYLE
  5
113
102
{ACAD_REACTORS
330
10F
102
}
330
10F
100
AcDbVisualStyle
  2
GouraudWithEdges
 70
     3
177
     2
291
     1
 71
     2
176
     1
 72
     2
176
     1
 73
     1
176
     1
 90
        2
176
     1
 40
-0.6
176
     1
 41
30.0
176
     1
 62
     5
 63
     7
421
 16777215
176
     1
 74
     1
176
     1
 91
        4
176
     1
 64
     7
176
     1
 65
   257
176
     1
 75
     1
176
     1
175
     1
176
     1
 42
1.0
176
     1
 92
        0
176
     1
 66
   257
176
     1
 43
1.0
176
     1
 76
     1
176
     1
 77
     6
176
     1
 78
     2
176
     1
 67
     7
176
     1
 79
     5
176
     1
170
     0
176
     1
171
     0
176
     1
290
     0
176
     1
 93
       13
176
     1
 44
0.0
176
     1
173
     0
176
     1
  0
VISUALSTYLE
  5
11D
102
{ACAD_REACTORS
330
10F
102
}
330
10F
100
AcDbVisualStyle
  2
Linepattern
 70
    14
177
     2
291
     1
 71
     2
176
     1
 72
     2
176
     1
 73
     0
176
     1
 90
        0
176
     1
 40
-0.6
176
     1
 41
-30.0
176
     1
 62
     5
 63
     7
421
 16777215
176
     1
 74
     1
176
     1
 91
        4
176
     1
 64
     7
176
     1
 65
   257
176
     1
 75
     7
176
     1
175
     7
176
     1
 42
1.0
176
     1
 92
        8
176
     1
 66
     7
176
     1
 43
1.0
176
     1
 76
     1
176
     1
 77
     6
176
     1
 78
     2
176
     1
 67
     7
176
     1
 79
     5
176
     1
170
     0
176
     1
171
     0
176
     1
290
     0
176
     1
 93
        1
176
     1
 44
0.0
176
     1
173
     0
176
     1
  0
VISUALSTYLE
  5
118
102
{ACAD_REACTORS
330
10F
102
}
330
10F
100
AcDbVisualStyle
  2
Realistic
 70
     8
177
     2
291
     0
 71
     2
176
     1
 72
     2
176
     1
 73
     0
176
     1
 90
        0
176
     1
 40
-0.6
176
     1
 41
-30.0
176
     1
 62
     5
 63
     7
421
 16777215
176
     1
 74
     1
176
     1
 91
        0
176
     1
 64
     7
176
     1
 65
   257
176
     1
 75
     1
176
     1
175
     1
176
     1
 42
1.0
176
     1
 92
        8
176
     1
 66
     8
424
  7895160
176
     1
 43
1.0
176
     1
 76
     1
176
     1
 77
     6
176
     1
 78
     2
176
     1
 67
     7
176
     1
 79
     5
176
     1
170
     0
176
     1
171
     0
176
     1
290
     0
176
     1
 93
       13
176
     1
 44
0.0
176
     1
173
     0
176
     1
  0
VISUALSTYLE
  5
11C
102
{ACAD_REACTORS
330
10F
102
}
330
10F
100
AcDbVisualStyle
  2
Thicken
 70
    13
177
     2
291
     1
 71
     2
176
     1
 72
     2
176
     1
 73
     0
176
     1
 90
        0
176
     1
 40
-0.6
176
     1
 41
-30.0
176
     1
 62
     5
 63
     7
421
 16777215
176
     1
 74
     1
176
     1
 91
        4
176
     1
 64
     7
176
     1
 65
   257
176
     1
 75
     1
176
     1
175
     1
176
     1
 42
1.0
176
     1
 92
       12
176
     1
 66
     7
176
     1
 43
1.0
176
     1
 76
     1
176
     1
 77
     6
176
     1
 78
     2
176
     1
 67
     7
176
     1
 79
     5
176
     1
170
     0
176
     1
171
     0
176
     1
290
     0
176
     1
 93
        1
176
     1
 44
0.0
176
     1
173
     0
176
     1
  0
DICTIONARYVAR
  5
18A
102
{ACAD_REACTORS
330
189
102
}
330
189
100
DictionaryVariables
280
     0
  1
1:1
  0
XRECORD
  5
15E
102
{ACAD_REACTORS
330
148
102
}
330
148
100
AcDbXrecord
280
     1
290
     1
  0
XRECORD
  5
15F
102
{ACAD_REACTORS
330
148
102
}
330
148
100
AcDbXrecord
280
     1
290
     1
  0
XRECORD
  5
160
102
{ACAD_REACTORS
330
148
102
}
330
148
100
AcDbXrecord
280
     1
290
     1
  0
XRECORD
  5
163
102
{ACAD_REACTORS
330
148
102
}
330
148
100
AcDbXrecord
280
     1
290
     1
  0
XRECORD
  5
155
102
{ACAD_REACTORS
330
148
102
}
330
148
100
AcDbXrecord
280
     1
1000
auto
  0
XRECORD
  5
156
102
{ACAD_REACTORS
330
148
102
}
330
148
100
AcDbXrecord
280
     1
1000
auto
  0
XRECORD
  5
159
102
{ACAD_REACTORS
330
148
102
}
330
148
100
AcDbXrecord
280
     1
1000
auto
  0
XRECORD
  5
15B
102
{ACAD_REACTORS
330
148
102
}
330
148
100
AcDbXrecord
280
     1
1000
auto
  0
XRECORD
  5
170
102
{ACAD_REACTORS
330
148
102
}
330
148
100
AcDbXrecord
280
     1
1000
auto
  0
XRECORD
  5
171
102
{ACAD_REACTORS
330
148
102
}
330
148
100
AcDbXrecord
280
     1
1000
auto
  0
XRECORD
  5
172
102
{ACAD_REACTORS
330
148
102
}
330
148
100
AcDbXrecord
280
     1
1000
auto
  0
XRECORD
  5
173
102
{ACAD_REACTORS
330
148
102
}
330
148
100
AcDbXrecord
280
     1
1000
auto
  0
XRECORD
  5
149
102
{ACAD_REACTORS
330
148
102
}
330
148
100
AcDbXrecord
280
     1
290
     0
  0
XRECORD
  5
14B
102
{ACAD_REACTORS
330
148
102
}
330
148
100
AcDbXrecord
280
     1
290
     0
  0
XRECORD
  5
14C
102
{ACAD_REACTORS
330
148
102
}
330
148
100
AcDbXrecord
280
     1
290
     0
  0
XRECORD
  5
14D
102
{ACAD_REACTORS
330
148
102
}
330
148
100
AcDbXrecord
280
     1
290
     0
  0
XRECORD
  5
166
102
{ACAD_REACTORS
330
148
102
}
330
148
100
AcDbXrecord
280
     1
 90
        0
  0
XRECORD
  5
167
102
{ACAD_REACTORS
330
148
102
}
330
148
100
AcDbXrecord
280
     1
 90
        0
  0
XRECORD
  5
169
102
{ACAD_REACTORS
330
148
102
}
330
148
100
AcDbXrecord
280
     1
 90
        0
  0
XRECORD
  5
16C
102
{ACAD_REACTORS
330
148
102
}
330
148
100
AcDbXrecord
280
     1
 90
        0
  0
XRECORD
  5
154
102
{ACAD_REACTORS
330
148
102
}
330
148
100
AcDbXrecord
280
     1
1000
auto
  0
XRECORD
  5
158
102
{ACAD_REACTORS
330
148
102
}
330
148
100
AcDbXrecord
280
     1
1000
auto
  0
XRECORD
  5
15A
102
{ACAD_REACTORS
330
148
102
}
330
148
100
AcDbXrecord
280
     1
1000
auto
  0
XRECORD
  5
15C
102
{ACAD_REACTORS
330
148
102
}
330
148
100
AcDbXrecord
280
     1
1000
auto
  0
XRECORD
  5
14E
102
{ACAD_REACTORS
330
148
102
}
330
148
100
AcDbXrecord
280
     1
1000
auto
  0
XRECORD
  5
14F
102
{ACAD_REACTORS
330
148
102
}
330
148
100
AcDbXrecord
280
     1
1000
auto
  0
XRECORD
  5
150
102
{ACAD_REACTORS
330
148
102
}
330
148
100
AcDbXrecord
280
     1
1000
auto
  0
XRECORD
  5
151
102
{ACAD_REACTORS
330
148
102
}
330
148
100
AcDbXrecord
280
     1
1000
auto
  0
XRECORD
  5
153
102
{ACAD_REACTORS
330
148
102
}
330
148
100
AcDbXrecord
280
     1
 90
        1
  0
XRECORD
  5
15D
102
{ACAD_REACTORS
330
148
102
}
330
148
100
AcDbXrecord
280
     1
 40
10.0
  0
XRECORD
  5
152
102
{ACAD_REACTORS
330
148
102
}
330
148
100
AcDbXrecord
280
     1
 40
10.0
  0
XRECORD
  5
165
102
{ACAD_REACTORS
330
148
102
}
330
148
100
AcDbXrecord
280
     1
 40
10.0
  0
XRECORD
  5
168
102
{ACAD_REACTORS
330
148
102
}
330
148
100
AcDbXrecord
280
     1
 40
10.0
  0
XRECORD
  5
162
102
{ACAD_REACTORS
330
148
102
}
330
148
100
AcDbXrecord
280
     1
290
     0
  0
XRECORD
  5
157
102
{ACAD_REACTORS
330
148
102
}
330
148
100
AcDbXrecord
280
     1
 90
        1
  0
XRECORD
  5
16A
102
{ACAD_REACTORS
330
148
102
}
330
148
100
AcDbXrecord
280
     1
 40
0.0
  0
XRECORD
  5
16B
102
{ACAD_REACTORS
330
148
102
}
330
148
100
AcDbXrecord
280
     1
 40
0.0
  0
XRECORD
  5
16E
102
{ACAD_REACTORS
330
148
102
}
330
148
100
AcDbXrecord
280
     1
1000
Portrait
  0
XRECORD
  5
16D
102
{ACAD_REACTORS
330
148
102
}
330
148
100
AcDbXrecord
280
     1
 40
297.0
  0
XRECORD
  5
16F
102
{ACAD_REACTORS
330
148
102
}
330
148
100
AcDbXrecord
280
     1
 40
210.0
  0
XRECORD
  5
161
102
{ACAD_REACTORS
330
148
102
}
330
148
100
AcDbXrecord
280
     1
1000
1:1
  0
XRECORD
  5
164
102
{ACAD_REACTORS
330
148
102
}
330
148
100
AcDbXrecord
280
     1
290
     1
  0
XRECORD
  5
14A
102
{ACAD_REACTORS
330
148
102
}
330
148
100
AcDbXrecord
280
     1
 90
        4
  0
ENDSEC
  0
EOF
