<svg xmlns="http://www.w3.org/2000/svg" viewBox="0 0 512 512" xmlns:xlink="http://www.w3.org/1999/xlink"><defs><path id="0" d="m376 312h-304v-224h304v224z" style="fill:#fff6d5;stroke:#fff;stroke-width:17.282"/></defs><g transform="matrix(1 0 0 .8-152 273.6)" style="stroke:#fff;stroke-width:8.944"><use transform="matrix(.5 0 0 .53571 188 40.857)" xlink:href="#0"/></g><g transform="translate(0 128)" style="fill:none;stroke:#f00;stroke-width:16"><path d="m72 280v64"/><path d="m40 312h64"/></g><g style="stroke:#fff;stroke-width:8.944"><g transform="matrix(1 0 0 .8 64 273.6)"><use transform="matrix(.5 0 0 .53571 188 40.857)" xlink:href="#0"/></g><g transform="matrix(1 0 0 .8-152 129.6)"><use transform="matrix(.5 0 0 .53571 188 40.857)" xlink:href="#0"/></g><g transform="matrix(1 0 0 .8 64 129.6)"><use transform="matrix(.5 0 0 .53571 188 40.857)" xlink:href="#0"/></g><g transform="matrix(1 0 0 .8-152-14.4)"><use transform="matrix(.5 0 0 .53571 188 40.857)" xlink:href="#0"/></g><g transform="matrix(1 0 0 .8 64-14.4)"><use transform="matrix(.5 0 0 .53571 188 40.857)" xlink:href="#0"/></g></g></svg>
