<?xml version="1.0" encoding="UTF-8" standalone="no"?>
<svg
   viewBox="0 0 512 512"
   version="1.1"
   id="svg1814"
   sodipodi:docname="Arc2PH-inverse.svg"
   inkscape:version="1.1.2 (b8e25be8, 2022-02-05)"
   xmlns:inkscape="http://www.inkscape.org/namespaces/inkscape"
   xmlns:sodipodi="http://sodipodi.sourceforge.net/DTD/sodipodi-0.dtd"
   xmlns="http://www.w3.org/2000/svg"
   xmlns:svg="http://www.w3.org/2000/svg">
  <defs
     id="defs1818" />
  <sodipodi:namedview
     id="namedview1816"
     pagecolor="#ffffff"
     bordercolor="#666666"
     borderopacity="1.0"
     inkscape:pageshadow="2"
     inkscape:pageopacity="0.0"
     inkscape:pagecheckerboard="0"
     showgrid="false"
     inkscape:zoom="1.2617188"
     inkscape:cx="203.29412"
     inkscape:cy="263.13313"
     inkscape:window-width="1277"
     inkscape:window-height="847"
     inkscape:window-x="0"
     inkscape:window-y="25"
     inkscape:window-maximized="0"
     inkscape:current-layer="svg1814" />
  <g
     style="fill:none;stroke-linecap:round"
     id="g1804">
    <path
       d="m448.36 379.75c101.14-387.66-484.57-386.94-391 0"
       style="stroke:#fff;stroke-width:15.982"
       id="path1800" />
    <path
       d="m411.69 381.74l-316.58-.998"
       style="stroke-dasharray:23.9734 23.9734;opacity:.25;stroke:#00ccff;stroke-width:7.991"
       id="path1802" />
  </g>
  <g
     style="fill:#f00"
     id="g1810">
    <path
       d="m414.19 380.75c0-17.634 14.326-31.929 32-31.929 17.674 0 32 14.295 32 31.929 0 17.634-14.326 31.929-32 31.929-17.674 0-32-14.295-32-31.929"
       id="path1806" />
    <path
       d="m25.19 378.75c0-17.634 14.326-31.929 32-31.929 17.674 0 32 14.295 32 31.929 0 17.634-14.326 31.929-32 31.929-17.674 0-32-14.295-32-31.929"
       id="path1808" />
  </g>
  <path
     d="m256 380.33l-2.05-284.43"
     style="fill:none;stroke:#f00;fill-rule:evenodd;stroke-width:16;stroke-miterlimit:4;stroke-dasharray:none"
     id="path1812" />
</svg>
