999
dxflib 2.2.0.0
  0
SECTION
  2
HEADER
  9
$ACADVER
  1
AC1015
  9
$HANDSEED
  5
FFFF
  9
$SPLINESEGS
 70
4
  9
$DIMEXE
 40
1.25
  9
$DIMAZIN
 70
8
  9
$DIMZIN
 70
8
  9
$DIMLUNIT
 70
2
  9
$GRIDMODE
 70
1
  9
$INSUNITS
 70
4
  9
$DIMADEC
 70
2
  9
$DIMASZ
 40
2.5
  9
$DIMGAP
 40
0.625
  9
$DIMTXT
 40
2.5
  9
$GRIDUNIT
 10
0.0
 20
0.0
  9
$DIMEXO
 40
0.625
  9
$LUPREC
 70
4
  9
$CLAYER
  8
0
  9
$DIMAUNIT
 70
0
  9
$AUPREC
 70
2
  9
$PLIMMIN
 10
0.0
 20
0.0
  9
$LUNITS
 70
2
  9
$PLIMMAX
 10
210.0
 20
297.0
  9
$DIMSTYLE
  2
Standard
  9
$AUNITS
 70
0
  9
$CLAYER
  8
0
  0
ENDSEC
  0
SECTION
  2
TABLES
  0
TABLE
  2
VPORT
  5
8
100
AcDbSymbolTable
 70
1
  0
VPORT
  5
30
100
AcDbSymbolTableRecord
100
AcDbViewportTableRecord
  2
*Active
 70
0
 10
0.0
 20
0.0
 11
1.0
 21
1.0
 12
286.3055555555554861
 22
148.5
 13
0.0
 23
0.0
 14
10.0
 24
10.0
 15
10.0
 25
10.0
 16
0.0
 26
0.0
 36
1.0
 17
0.0
 27
0.0
 37
0.0
 40
297.0
 41
1.92798353909465
 42
50.0
 43
0.0
 44
0.0
 50
0.0
 51
0.0
 71
0
 72
100
 73
1
 74
3
 75
1
 76
1
 77
0
 78
0
281
0
 65
1
110
0.0
120
0.0
130
0.0
111
1.0
121
0.0
131
0.0
112
0.0
122
1.0
132
0.0
 79
0
146
0.0
  0
ENDTAB
  0
TABLE
  2
LTYPE
  5
5
100
AcDbSymbolTable
 70
21
  0
LTYPE
  5
14
100
AcDbSymbolTableRecord
100
AcDbLinetypeTableRecord
  2
ByBlock
 70
0
  3

 72
65
 73
0
 40
0.0
  0
LTYPE
  5
15
100
AcDbSymbolTableRecord
100
AcDbLinetypeTableRecord
  2
ByLayer
 70
0
  3

 72
65
 73
0
 40
0.0
  0
LTYPE
  5
16
100
AcDbSymbolTableRecord
100
AcDbLinetypeTableRecord
  2
CONTINUOUS
 70
0
  3
Solid line
 72
65
 73
0
 40
0.0
  0
LTYPE
  5
31
100
AcDbSymbolTableRecord
100
AcDbLinetypeTableRecord
  2
DOT
 70
0
  3
Dot . . . . . . . . . . . . . . . . . . . . . .
 72
65
 73
2
 40
6.3499999999999996
 49
0.0
 74
0
 49
-6.3499999999999996
 74
0
  0
LTYPE
  5
32
100
AcDbSymbolTableRecord
100
AcDbLinetypeTableRecord
  2
DOT2
 70
0
  3
Dot (.5x) .....................................
 72
65
 73
2
 40
3.1749999999999998
 49
0.0
 74
0
 49
-3.1749999999999998
 74
0
  0
LTYPE
  5
33
100
AcDbSymbolTableRecord
100
AcDbLinetypeTableRecord
  2
DOTX2
 70
0
  3
Dot (2x) .  .  .  .  .  .  .  .  .  .  .  .  .
 72
65
 73
2
 40
12.6999999999999993
 49
0.0
 74
0
 49
-12.6999999999999993
 74
0
  0
LTYPE
  5
34
100
AcDbSymbolTableRecord
100
AcDbLinetypeTableRecord
  2
DASHED
 70
0
  3
Dashed __ __ __ __ __ __ __ __ __ __ __ __ __ _
 72
65
 73
2
 40
19.0500000000000007
 49
12.6999999999999993
 74
0
 49
-6.3499999999999996
 74
0
  0
LTYPE
  5
35
100
AcDbSymbolTableRecord
100
AcDbLinetypeTableRecord
  2
DASHED2
 70
0
  3
Dashed (.5x) _ _ _ _ _ _ _ _ _ _ _ _ _ _ _ _ _
 72
65
 73
2
 40
9.5250000000000004
 49
6.3499999999999996
 74
0
 49
-3.1749999999999998
 74
0
  0
LTYPE
  5
36
100
AcDbSymbolTableRecord
100
AcDbLinetypeTableRecord
  2
DASHEDX2
 70
0
  3
Dashed (2x) ____  ____  ____  ____  ____  ___
 72
65
 73
2
 40
38.1000000000000014
 49
25.3999999999999986
 74
0
 49
-12.6999999999999993
 74
0
  0
LTYPE
  5
37
100
AcDbSymbolTableRecord
100
AcDbLinetypeTableRecord
  2
DASHDOT
 70
0
  3
Dash dot __ . __ . __ . __ . __ . __ . __ . __
 72
65
 73
4
 40
25.3999999999999986
 49
12.6999999999999993
 74
0
 49
-6.3499999999999996
 74
0
 49
0.0
 74
0
 49
-6.3499999999999996
 74
0
  0
LTYPE
  5
38
100
AcDbSymbolTableRecord
100
AcDbLinetypeTableRecord
  2
DASHDOT2
 70
0
  3
Dash dot (.5x) _._._._._._._._._._._._._._._.
 72
65
 73
4
 40
12.6999999999999993
 49
6.3499999999999996
 74
0
 49
-3.1749999999999998
 74
0
 49
0.0
 74
0
 49
-3.1749999999999998
 74
0
  0
LTYPE
  5
39
100
AcDbSymbolTableRecord
100
AcDbLinetypeTableRecord
  2
DASHDOTX2
 70
0
  3
Dash dot (2x) ____  .  ____  .  ____  .  ___
 72
65
 73
4
 40
50.7999999999999972
 49
25.3999999999999986
 74
0
 49
-12.6999999999999993
 74
0
 49
0.0
 74
0
 49
-12.6999999999999993
 74
0
  0
LTYPE
  5
3A
100
AcDbSymbolTableRecord
100
AcDbLinetypeTableRecord
  2
DIVIDE
 70
0
  3
Divide ____ . . ____ . . ____ . . ____ . . ____
 72
65
 73
6
 40
31.75
 49
12.6999999999999993
 74
0
 49
-6.3499999999999996
 74
0
 49
0.0
 74
0
 49
-6.3499999999999996
 74
0
 49
0.0
 74
0
 49
-6.3499999999999996
 74
0
  0
LTYPE
  5
3B
100
AcDbSymbolTableRecord
100
AcDbLinetypeTableRecord
  2
DIVIDE2
 70
0
  3
Divide (.5x) __..__..__..__..__..__..__..__.._
 72
65
 73
6
 40
15.875
 49
6.3499999999999996
 74
0
 49
-3.1749999999999998
 74
0
 49
0.0
 74
0
 49
-3.1749999999999998
 74
0
 49
0.0
 74
0
 49
-3.1749999999999998
 74
0
  0
LTYPE
  5
3C
100
AcDbSymbolTableRecord
100
AcDbLinetypeTableRecord
  2
DIVIDEX2
 70
0
  3
Divide (2x) ________  .  .  ________  .  .  _
 72
65
 73
6
 40
63.5
 49
25.3999999999999986
 74
0
 49
-12.6999999999999993
 74
0
 49
0.0
 74
0
 49
-12.6999999999999993
 74
0
 49
0.0
 74
0
 49
-12.6999999999999993
 74
0
  0
LTYPE
  5
3D
100
AcDbSymbolTableRecord
100
AcDbLinetypeTableRecord
  2
CENTER
 70
0
  3
Center ____ _ ____ _ ____ _ ____ _ ____ _ ____
 72
65
 73
4
 40
50.7999999999999972
 49
31.75
 74
0
 49
-6.3499999999999996
 74
0
 49
6.3499999999999996
 74
0
 49
-6.3499999999999996
 74
0
  0
LTYPE
  5
3E
100
AcDbSymbolTableRecord
100
AcDbLinetypeTableRecord
  2
CENTER2
 70
0
  3
Center (.5x) ___ _ ___ _ ___ _ ___ _ ___ _ ___
 72
65
 73
4
 40
28.5749999999999993
 49
19.0500000000000007
 74
0
 49
-3.1749999999999998
 74
0
 49
3.1749999999999998
 74
0
 49
-3.1749999999999998
 74
0
  0
LTYPE
  5
3F
100
AcDbSymbolTableRecord
100
AcDbLinetypeTableRecord
  2
CENTERX2
 70
0
  3
Center (2x) ________  __  ________  __  _____
 72
65
 73
4
 40
101.5999999999999943
 49
63.5
 74
0
 49
-12.6999999999999993
 74
0
 49
12.6999999999999993
 74
0
 49
-12.6999999999999993
 74
0
  0
LTYPE
  5
40
100
AcDbSymbolTableRecord
100
AcDbLinetypeTableRecord
  2
BORDER
 70
0
  3
Border __ __ . __ __ . __ __ . __ __ . __ __ .
 72
65
 73
6
 40
44.4500000000000028
 49
12.6999999999999993
 74
0
 49
-6.3499999999999996
 74
0
 49
12.6999999999999993
 74
0
 49
-6.3499999999999996
 74
0
 49
0.0
 74
0
 49
-6.3499999999999996
 74
0
  0
LTYPE
  5
41
100
AcDbSymbolTableRecord
100
AcDbLinetypeTableRecord
  2
BORDER2
 70
0
  3
Border (.5x) __.__.__.__.__.__.__.__.__.__.__.
 72
65
 73
6
 40
22.2250000000000014
 49
6.3499999999999996
 74
0
 49
-3.1749999999999998
 74
0
 49
6.3499999999999996
 74
0
 49
-3.1749999999999998
 74
0
 49
0.0
 74
0
 49
-3.1749999999999998
 74
0
  0
LTYPE
  5
42
100
AcDbSymbolTableRecord
100
AcDbLinetypeTableRecord
  2
BORDERX2
 70
0
  3
Border (2x) ____  ____  .  ____  ____  .  ___
 72
65
 73
6
 40
88.9000000000000057
 49
25.3999999999999986
 74
0
 49
-12.6999999999999993
 74
0
 49
25.3999999999999986
 74
0
 49
-12.6999999999999993
 74
0
 49
0.0
 74
0
 49
-12.6999999999999993
 74
0
  0
ENDTAB
  0
TABLE
  2
LAYER
  5
2
100
AcDbSymbolTable
 70
1
  0
LAYER
  5
10
100
AcDbSymbolTableRecord
100
AcDbLayerTableRecord
  2
0
 70
0
 62
7
420
0
  6
CONTINUOUS
370
13
390
F
  0
ENDTAB
  0
TABLE
  2
STYLE
  5
3
100
AcDbSymbolTable
 70
1
  0
STYLE
  5
11
100
AcDbSymbolTableRecord
100
AcDbTextStyleTableRecord
  2
Standard
 70
0
 40
0.0
 41
0.75
 50
0.0
 71
0
 42
2.5
  3
txt
  4

  0
ENDTAB
  0
TABLE
  2
VIEW
  5
6
100
AcDbSymbolTable
 70
0
  0
ENDTAB
  0
TABLE
  2
UCS
  5
7
100
AcDbSymbolTable
 70
0
  0
ENDTAB
  0
TABLE
  2
APPID
  5
9
100
AcDbSymbolTable
 70
1
  0
APPID
  5
12
100
AcDbSymbolTableRecord
100
AcDbRegAppTableRecord
  2
ACAD
 70
0
  0
ENDTAB
  0
TABLE
  2
DIMSTYLE
  5
A
100
AcDbSymbolTable
 70
1
100
AcDbDimStyleTable
 71
0
  0
DIMSTYLE
105
27
100
AcDbSymbolTableRecord
100
AcDbDimStyleTableRecord
  2
Standard
 41
2.5
 42
0.625
 43
3.75
 44
1.25
 70
0
 73
0
 74
0
 77
1
 78
8
140
2.5
141
2.5
143
0.03937007874016
147
0.625
171
3
172
1
271
2
272
2
274
3
278
44
283
0
284
8
340
11
  0
ENDTAB
  0
TABLE
  2
BLOCK_RECORD
  5
1
100
AcDbSymbolTable
 70
1
  0
BLOCK_RECORD
  5
1F
100
AcDbSymbolTableRecord
100
AcDbBlockTableRecord
  2
*Model_Space
340
22
  0
BLOCK_RECORD
  5
1B
100
AcDbSymbolTableRecord
100
AcDbBlockTableRecord
  2
*Paper_Space
340
1E
  0
BLOCK_RECORD
  5
23
100
AcDbSymbolTableRecord
100
AcDbBlockTableRecord
  2
*Paper_Space0
340
26
  0
BLOCK_RECORD
  5
43
100
AcDbSymbolTableRecord
100
AcDbBlockTableRecord
  2
Workstation
340
0
  0
ENDTAB
  0
ENDSEC
  0
SECTION
  2
BLOCKS
  0
BLOCK
  5
20
100
AcDbEntity
  8
0
100
AcDbBlockBegin
  2
*Model_Space
 70
0
 10
0.0
 20
0.0
 30
0.0
  3
*Model_Space
  1

  0
ENDBLK
  5
21
100
AcDbEntity
  8
0
100
AcDbBlockEnd
  0
BLOCK
  5
1C
100
AcDbEntity
 67
1
  8
0
100
AcDbBlockBegin
  2
*Paper_Space
 70
0
 10
0.0
 20
0.0
 30
0.0
  3
*Paper_Space
  1

  0
ENDBLK
  5
1D
100
AcDbEntity
 67
1
  8
0
100
AcDbBlockEnd
  0
BLOCK
  5
24
100
AcDbEntity
  8
0
100
AcDbBlockBegin
  2
*Paper_Space0
 70
0
 10
0.0
 20
0.0
 30
0.0
  3
*Paper_Space0
  1

  0
ENDBLK
  5
25
100
AcDbEntity
  8
0
100
AcDbBlockEnd
  0
BLOCK
  5
44
100
AcDbEntity
  8
0
100
AcDbBlockBegin
  2
Workstation
 70
0
 10
0.0
 20
0.0
 30
0.0
  3
Workstation
  1

  0
LINE
  5
45
100
AcDbEntity
100
AcDbLine
  8
0
 62
256
370
-1
  6
ByLayer
 10
82.0363670000000127
 20
-60.1506439999999856
 30
0.0
 11
82.0363670000000269
 21
-59.6506439999999714
 31
0.0
  0
LINE
  5
46
100
AcDbEntity
100
AcDbLine
  8
0
 62
256
370
-1
  6
ByLayer
 10
82.0363670000000269
 20
-59.6506439999999714
 30
0.0
 11
82.5031969999999859
 21
-53.1150200000000012
 31
0.0
  0
ARC
  5
47
100
AcDbEntity
  8
0
 62
256
370
-1
  6
ByLayer
100
AcDbCircle
 10
83.0019269999999807
 20
-53.1506440000000353
 30
0.0
 40
0.5
100
AcDbArc
 50
90.0
 51
175.9143830000000435
  0
ARC
  5
48
100
AcDbEntity
  8
0
 62
256
370
-1
  6
ByLayer
100
AcDbCircle
 10
88.0708069999999736
 20
-53.1506440000000495
 30
0.0
 40
0.5
100
AcDbArc
 50
4.0856169999999974
 51
90.0
  0
LINE
  5
49
100
AcDbEntity
100
AcDbLine
  8
0
 62
256
370
-1
  6
ByLayer
 10
83.0019269999999807
 20
-52.6506440000000353
 30
0.0
 11
88.0708069999999879
 21
-52.6506439999999998
 31
0.0
  0
LINE
  5
4A
100
AcDbEntity
100
AcDbLine
  8
0
 62
256
370
-1
  6
ByLayer
 10
88.5695369999999684
 20
-53.115020000000051
 30
0.0
 11
89.0363670000000127
 21
-59.6506440000000069
 31
0.0
  0
LINE
  5
4B
100
AcDbEntity
100
AcDbLine
  8
0
 62
256
370
-1
  6
ByLayer
 10
89.0363670000000127
 20
-59.6506440000000069
 30
0.0
 11
89.0363669999999985
 21
-60.1506439999999927
 31
0.0
  0
ARC
  5
4C
100
AcDbEntity
  8
0
 62
256
370
-1
  6
ByLayer
100
AcDbCircle
 10
85.5363669999999559
 20
-60.1506440000000566
 30
0.0
 40
3.5
100
AcDbArc
 50
180.0
 51
360.0
  0
LINE
  5
4D
100
AcDbEntity
100
AcDbLine
  8
0
 62
256
370
-1
  6
ByLayer
 10
82.3042240000000049
 20
-55.9006439999999998
 30
0.0
 11
88.7685100000000062
 21
-55.9006439999999714
 31
0.0
  0
LINE
  5
4E
100
AcDbEntity
100
AcDbLine
  8
0
 62
256
370
-1
  6
ByLayer
 10
86.0363670000000269
 20
-55.90064399999995
 30
0.0
 11
86.0363669999999843
 21
-52.6506439999999856
 31
0.0
  0
LINE
  5
4F
100
AcDbEntity
100
AcDbLine
  8
0
 62
256
370
-1
  6
ByLayer
 10
100.0
 20
-0.0000000000000245
 30
0.0
 11
99.9999999999999574
 21
-70.0000000000000568
 31
0.0
  0
LINE
  5
50
100
AcDbEntity
100
AcDbLine
  8
0
 62
256
370
-1
  6
ByLayer
 10
99.9999999999999574
 20
-70.0000000000000568
 30
0.0
 11
-0.0000000000000129
 21
-70.0000000000000142
 31
0.0
  0
LINE
  5
51
100
AcDbEntity
100
AcDbLine
  8
0
 62
256
370
-1
  6
ByLayer
 10
-0.0000000000000129
 20
-70.0000000000000142
 30
0.0
 11
0.0
 21
0.0
 31
0.0
  0
LINE
  5
52
100
AcDbEntity
100
AcDbLine
  8
0
 62
256
370
-1
  6
ByLayer
 10
47.0874428451204068
 20
-13.2041575543732517
 30
0.0
 11
57.0813511153113637
 21
-13.5531525213982622
 31
0.0
  0
LINE
  5
53
100
AcDbEntity
100
AcDbLine
  8
0
 62
256
370
-1
  6
ByLayer
 10
32.8865742866380657
 20
-18.71190956265281
 30
0.0
 11
70.8634257133636964
 21
-20.0380904373478472
 31
0.0
  0
LINE
  5
54
100
AcDbEntity
100
AcDbLine
  8
0
 62
256
370
-1
  6
ByLayer
 10
70.8634257133636964
 20
-20.0380904373478472
 30
0.0
 11
70.7587272232562015
 21
-23.0362629184051286
 31
0.0
  0
LINE
  5
55
100
AcDbEntity
100
AcDbLine
  8
0
 62
256
370
-1
  6
ByLayer
 10
70.7587272232562015
 20
-23.0362629184051286
 30
0.0
 11
32.7818757965305565
 21
-21.7100820437100843
 31
0.0
  0
LINE
  5
56
100
AcDbEntity
100
AcDbLine
  8
0
 62
256
370
-1
  6
ByLayer
 10
32.7818757965305565
 20
-21.7100820437100843
 30
0.0
 11
32.8865742866380657
 21
-18.71190956265281
 31
0.0
  0
ARC
  5
57
100
AcDbEntity
  8
0
 62
256
370
-1
  6
ByLayer
100
AcDbCircle
 10
47.0837788172528775
 20
-31.6883847019054521
 30
0.0
 40
18.4842275106823557
100
AcDbArc
 50
89.9886425692347274
 51
135.5616385684290037
  0
ARC
  5
58
100
AcDbEntity
  8
0
 62
256
370
-1
  6
ByLayer
100
AcDbCircle
 10
55.7956117120938657
 20
-31.9926086102768217
 30
0.0
 40
18.4842275106823557
100
AcDbArc
 50
40.4383614315709323
 51
86.0113574307652726
  0
LINE
  5
59
100
AcDbEntity
100
AcDbLine
  8
0
 62
256
370
-1
  6
ByLayer
 10
47.0874428451205844
 20
-13.2041575543732588
 30
0.0
 11
47.2619403286329174
 21
-8.2072034192777714
 31
0.0
  0
LINE
  5
5A
100
AcDbEntity
100
AcDbLine
  8
0
 62
256
370
-1
  6
ByLayer
 10
57.2558485988238743
 20
-8.556198386302782
 30
0.0
 11
57.0813511153110724
 21
-13.5531525213982516
 31
0.0
  0
LINE
  5
5B
100
AcDbEntity
100
AcDbLine
  8
0
 62
256
370
-1
  6
ByLayer
 10
37.2680320584419604
 20
-7.8582084522527573
 30
0.0
 11
67.2497568690148313
 21
-8.9051933533277907
 31
0.0
  0
ARC
  5
5C
100
AcDbEntity
  8
0
 62
256
370
-1
  6
ByLayer
100
AcDbCircle
 10
52.2588944637283959
 20
-8.3817009027902767
 30
0.0
 40
12.0
100
AcDbArc
 50
327.9936440803024311
 51
343.5224878140700753
  0
ARC
  5
5D
100
AcDbEntity
  8
0
 62
256
370
-1
  6
ByLayer
100
AcDbCircle
 10
52.2588944637283959
 20
-8.3817009027902767
 30
0.0
 40
15.0
100
AcDbArc
 50
329.2531489562475144
 51
358.0
  0
ARC
  5
5E
100
AcDbEntity
  8
0
 62
256
370
-1
  6
ByLayer
100
AcDbCircle
 10
52.2588944637283959
 20
-8.3817009027902767
 30
0.0
 40
15.0
100
AcDbArc
 50
246.9605302186825782
 51
289.0394697813173934
  0
LINE
  5
5F
100
AcDbEntity
100
AcDbLine
  8
0
 62
256
370
-1
  6
ByLayer
 10
57.1511501087161946
 20
-11.5543708673600634
 30
0.0
 11
65.3086243478892783
 21
-11.839236144901097
 31
0.0
  0
ARC
  5
60
100
AcDbEntity
  8
0
 62
256
370
-1
  6
ByLayer
100
AcDbCircle
 10
52.2588944637283959
 20
-8.3817009027902767
 30
0.0
 40
13.5
100
AcDbArc
 50
329.2531489562475144
 51
345.1604115930958869
  0
ARC
  5
61
100
AcDbEntity
  8
0
 62
256
370
-1
  6
ByLayer
100
AcDbCircle
 10
52.2588944637283959
 20
-8.3817009027902767
 30
0.0
 40
12.0
100
AcDbArc
 50
192.4775121859298963
 51
208.0063559196975405
  0
ARC
  5
62
100
AcDbEntity
  8
0
 62
256
370
-1
  6
ByLayer
100
AcDbCircle
 10
52.2588944637283959
 20
-8.3817009027902767
 30
0.0
 40
15.0
100
AcDbArc
 50
178.0
 51
206.7468510437524856
  0
LINE
  5
63
100
AcDbEntity
100
AcDbLine
  8
0
 62
256
370
-1
  6
ByLayer
 10
47.1572418385255858
 20
-11.205375900335067
 30
0.0
 11
38.9997675993525021
 21
-10.9205106227940298
 31
0.0
  0
ARC
  5
64
100
AcDbEntity
  8
0
 62
256
370
-1
  6
ByLayer
100
AcDbCircle
 10
52.2588944637283959
 20
-8.3817009027902767
 30
0.0
 40
13.5
100
AcDbArc
 50
190.8395884069041983
 51
206.7468510437524856
  0
LINE
  5
65
100
AcDbEntity
100
AcDbLine
  8
0
 62
256
370
-1
  6
ByLayer
 10
0.0
 20
0.0
 30
0.0
 11
100.0
 21
-0.0000000000000245
 31
0.0
  0
LINE
  5
66
100
AcDbEntity
100
AcDbLine
  8
0
 62
256
370
-1
  6
ByLayer
 10
73.8653779999999784
 20
-61.9578239999998317
 30
0.0
 11
25.9311610000000172
 21
-59.4456979999997799
 31
0.0
  0
LINE
  5
67
100
AcDbEntity
100
AcDbLine
  8
0
 62
256
370
-1
  6
ByLayer
 10
25.9311610000000172
 20
-59.4456979999997799
 30
0.0
 11
26.6228806637975879
 21
-46.2468924506170538
 31
0.0
  0
LINE
  5
68
100
AcDbEntity
100
AcDbLine
  8
0
 62
256
370
-1
  6
ByLayer
 10
26.6228806637975879
 20
-46.2468924506170538
 30
0.0
 11
74.5570986637975892
 21
-48.759018450617063
 31
0.0
  0
LINE
  5
69
100
AcDbEntity
100
AcDbLine
  8
0
 62
256
370
-1
  6
ByLayer
 10
74.5570986637975892
 20
-48.759018450617063
 30
0.0
 11
73.8653779999999784
 21
-61.9578239999998317
 31
0.0
  0
SPLINE
  5
6A
  8
0
 62
256
370
-1
  6
ByLayer
100
AcDbEntity
100
AcDbSpline
 70
8
 71
2
 72
10
 73
7
 74
0
 40
0.0
 40
0.0
 40
0.0
 40
0.2
 40
0.4
 40
0.6
 40
0.8
 40
1.0
 40
1.0
 40
1.0
 10
85.5363669999999843
 20
-52.650644000000014
 30
0.0
 10
89.355452416003061
 20
-41.4397235200014151
 30
0.0
 10
92.160000000003194
 20
-24.8320000000008605
 30
0.0
 10
87.1680000000030191
 20
-9.8560000000003409
 30
0.0
 10
79.6160000000027566
 20
-1.0240000000000355
 30
0.0
 10
75.9040000000026254
 20
2.8160000000000975
 30
0.0
 10
74.5358932469376896
 20
0.0439804651110416
 30
0.0
  0
SPLINE
  5
6B
  8
0
 62
256
370
-1
  6
ByLayer
100
AcDbEntity
100
AcDbSpline
 70
8
 71
2
 72
12
 73
9
 74
0
 40
0.0
 40
0.0
 40
0.0
 40
0.1428571428571428
 40
0.2857142857142857
 40
0.4285714285714285
 40
0.5714285714285714
 40
0.7142857142857143
 40
0.8571428571428571
 40
1.0
 40
1.0
 40
1.0
 10
69.7267801657833246
 20
-48.5058721765474061
 30
0.0
 10
71.1773388800026794
 20
-40.6428057600015293
 30
0.0
 10
79.7900800000031154
 20
-30.3104000000011808
 30
0.0
 10
82.6880000000027451
 20
-24.5760000000008141
 30
0.0
 10
81.7920000000027159
 20
-14.0800000000004673
 30
0.0
 10
80.1280000000026575
 20
-9.8560000000003267
 30
0.0
 10
76.8000000000025551
 20
-3.9680000000001319
 30
0.0
 10
71.8080000000023801
 20
3.5840000000001191
 30
0.0
 10
69.2480000000022926
 20
0.1280000000000042
 30
0.0
  0
SPLINE
  5
6C
  8
0
 62
256
370
-1
  6
ByLayer
100
AcDbEntity
100
AcDbSpline
 70
11
 71
2
 72
9
 73
6
 74
0
 40
0.0
 40
0.0
 40
0.0
 40
0.25
 40
0.5
 40
0.75
 40
1.0
 40
1.0
 40
1.0
 10
28.4937642201804806
 20
-104.8835562935028634
 30
0.0
 10
30.872258115222099
 20
-112.1183864083880337
 30
0.0
 10
65.7390725484331853
 20
-115.1688374045560863
 30
0.0
 10
69.3377468419420353
 20
-108.4569417461568435
 30
0.0
 10
58.2924494201851928
 20
-108.4944232740243422
 30
0.0
 10
39.3647501564420139
 20
-106.838464161818834
 30
0.0
  0
LINE
  5
6D
100
AcDbEntity
100
AcDbLine
  8
0
 62
256
370
-1
  6
ByLayer
 10
29.352677227229627
 20
-77.8555658309042258
 30
0.0
 11
29.4979015017510768
 21
-85.4289288095118451
 31
0.0
  0
LINE
  5
6E
100
AcDbEntity
100
AcDbLine
  8
0
 62
256
370
-1
  6
ByLayer
 10
29.4979015017510768
 20
-85.4289288095118451
 30
0.0
 11
30.1377366291640811
 21
-91.693938708652496
 31
0.0
  0
LINE
  5
6F
100
AcDbEntity
100
AcDbLine
  8
0
 62
256
370
-1
  6
ByLayer
 10
30.1377366291640811
 20
-91.693938708652496
 30
0.0
 11
31.2721826094686328
 21
-96.6505955283261926
 31
0.0
  0
LINE
  5
70
100
AcDbEntity
100
AcDbLine
  8
0
 62
256
370
-1
  6
ByLayer
 10
31.2721826094686328
 20
-96.6505955283261926
 30
0.0
 11
32.901239442664739
 21
-100.2988992685329208
 31
0.0
  0
LINE
  5
71
100
AcDbEntity
100
AcDbLine
  8
0
 62
256
370
-1
  6
ByLayer
 10
32.901239442664739
 20
-100.2988992685329208
 30
0.0
 11
35.02290958877267
 21
-102.6465948503059593
 31
0.0
  0
LINE
  5
72
100
AcDbEntity
100
AcDbLine
  8
0
 62
256
370
-1
  6
ByLayer
 10
35.02290958877267
 20
-102.6465948503059593
 30
0.0
 11
37.4813849293742081
 21
-104.2977861142404805
 31
0.0
  0
LINE
  5
73
100
AcDbEntity
100
AcDbLine
  8
0
 62
256
370
-1
  6
ByLayer
 10
37.4813849293742081
 20
-104.2977861142404805
 30
0.0
 11
40.1787860054630386
 21
-105.6319741909667584
 31
0.0
  0
LINE
  5
74
100
AcDbEntity
100
AcDbLine
  8
0
 62
256
370
-1
  6
ByLayer
 10
40.1787860054630386
 20
-105.6319741909667584
 30
0.0
 11
43.1151128170391544
 21
-106.6491590804848215
 31
0.0
  0
LINE
  5
75
100
AcDbEntity
100
AcDbLine
  8
0
 62
256
370
-1
  6
ByLayer
 10
43.1151128170391544
 20
-106.6491590804848215
 30
0.0
 11
46.2903653641025485
 21
-107.3493407827946271
 31
0.0
  0
LINE
  5
76
100
AcDbEntity
100
AcDbLine
  8
0
 62
256
370
-1
  6
ByLayer
 10
46.2903653641025485
 20
-107.3493407827946271
 30
0.0
 11
49.6914444395777295
 21
-107.7313732657759289
 31
0.0
  0
LINE
  5
77
100
AcDbEntity
100
AcDbLine
  8
0
 62
256
370
-1
  6
ByLayer
 10
49.6914444395777295
 20
-107.7313732657759289
 30
0.0
 11
53.0301674878037019
 21
-107.7700438227824407
 31
0.0
  0
LINE
  5
78
100
AcDbEntity
100
AcDbLine
  8
0
 62
256
370
-1
  6
ByLayer
 10
53.0301674878037019
 20
-107.7700438227824407
 30
0.0
 11
56.1886416451009723
 21
-107.4550381647316186
 31
0.0
  0
LINE
  5
79
100
AcDbEntity
100
AcDbLine
  8
0
 62
256
370
-1
  6
ByLayer
 10
56.1886416451009723
 20
-107.4550381647316186
 30
0.0
 11
59.1668669114695334
 21
-106.7863562916234343
 31
0.0
  0
LINE
  5
7A
100
AcDbEntity
100
AcDbLine
  8
0
 62
256
370
-1
  6
ByLayer
 10
59.1668669114695334
 20
-106.7863562916234343
 30
0.0
 11
61.9648432869093924
 21
-105.763998203457902
 31
0.0
  0
LINE
  5
7B
100
AcDbEntity
100
AcDbLine
  8
0
 62
256
370
-1
  6
ByLayer
 10
61.9648432869093924
 20
-105.763998203457902
 30
0.0
 11
64.5769700585021411
 21
-104.3161967531190726
 31
0.0
  0
LINE
  5
7C
100
AcDbEntity
100
AcDbLine
  8
0
 62
256
370
-1
  6
ByLayer
 10
64.5769700585021411
 20
-104.3161967531190726
 30
0.0
 11
66.9447508913221299
 21
-101.6933839596180746
 31
0.0
  0
LINE
  5
7D
100
AcDbEntity
100
AcDbLine
  8
0
 62
256
370
-1
  6
ByLayer
 10
66.9447508913221299
 20
-101.6933839596180746
 30
0.0
 11
69.0526282494848971
 21
-97.6962066365216941
 31
0.0
  0
LINE
  5
7E
100
AcDbEntity
100
AcDbLine
  8
0
 62
256
370
-1
  6
ByLayer
 10
69.0526282494848971
 20
-97.6962066365216941
 30
0.0
 11
70.9006021329904428
 21
-92.3246647838299737
 31
0.0
  0
LINE
  5
7F
100
AcDbEntity
100
AcDbLine
  8
0
 62
256
370
-1
  6
ByLayer
 10
70.9006021329904428
 20
-92.3246647838299737
 30
0.0
 11
72.4886725418387527
 21
-85.5787584015428848
 31
0.0
  0
LINE
  5
80
100
AcDbEntity
100
AcDbLine
  8
0
 62
256
370
-1
  6
ByLayer
 10
72.4886725418387527
 20
-85.5787584015428848
 30
0.0
 11
73.7271140655296762
 21
-77.8202227464451823
 31
0.0
  0
LINE
  5
81
100
AcDbEntity
100
AcDbLine
  8
0
 62
256
370
-1
  6
ByLayer
 10
73.7271140655296762
 20
-77.8202227464451823
 30
0.0
 11
74.0775742410621376
 21
-71.219469359245295
 31
0.0
  0
LINE
  5
82
100
AcDbEntity
100
AcDbLine
  8
0
 62
256
370
-1
  6
ByLayer
 10
29.8042542526566301
 20
-70.4611311306026096
 30
0.0
 11
29.352677227229627
 21
-77.8555658309041547
 31
0.0
  0
LINE
  5
83
100
AcDbEntity
100
AcDbLine
  8
0
 62
256
370
-1
  6
ByLayer
 10
29.8968768491711323
 20
-70.0000000000000284
 30
0.0
 11
29.8042542526566301
 21
-70.4611311306026096
 31
0.0
  0
LINE
  5
84
100
AcDbEntity
100
AcDbLine
  8
0
 62
256
370
-1
  6
ByLayer
 10
74.0775742410621376
 20
-71.219469359245295
 30
0.0
 11
73.9270384246761836
 21
-70.0000000000000426
 31
0.0
  0
ENDBLK
  5
85
100
AcDbEntity
  8
0
100
AcDbBlockEnd
  0
ENDSEC
  0
SECTION
  2
ENTITIES
  0
INSERT
  5
86
100
AcDbEntity
100
AcDbBlockReference
  8
0
 62
256
370
-1
  6
ByLayer
  2
Workstation
 10
-5.0000000000000009
 20
5.6187879489704207
 30
0.0
 41
0.1
 42
0.1
 43
1.0
  0
ENDSEC
  0
SECTION
  2
OBJECTS
  0
DICTIONARY
  5
C
100
AcDbDictionary
280
0
281
1
  3
ACAD_GROUP
350
D
  3
ACAD_LAYOUT
350
1A
  3
ACAD_MLINESTYLE
350
17
  3
ACAD_PLOTSETTINGS
350
19
  3
ACAD_PLOTSTYLENAME
350
E
  3
AcDbVariableDictionary
350
87
  0
DICTIONARY
  5
D
100
AcDbDictionary
280
0
281
1
  0
ACDBDICTIONARYWDFLT
  5
E
100
AcDbDictionary
281
1
  3
Normal
350
F
100
AcDbDictionaryWithDefault
340
F
  0
ACDBPLACEHOLDER
  5
F
  0
DICTIONARY
  5
17
100
AcDbDictionary
280
0
281
1
  3
Standard
350
18
  0
MLINESTYLE
  5
18
100
AcDbMlineStyle
  2
STANDARD
 70
0
  3

 62
256
 51
90.0
 52
90.0
 71
2
 49
0.5
 62
256
  6
BYLAYER
 49
-0.5
 62
256
  6
BYLAYER
  0
DICTIONARY
  5
19
100
AcDbDictionary
280
0
281
1
  0
DICTIONARY
  5
1A
100
AcDbDictionary
281
1
  3
Layout1
350
1E
  3
Layout2
350
26
  3
Model
350
22
  0
LAYOUT
  5
1E
100
AcDbPlotSettings
  1

  2
C:\Program Files\AutoCAD 2002\plotters\DWF ePlot (optimized for plotting).pc3
  4

  6

 40
0.0
 41
0.0
 42
0.0
 43
0.0
 44
0.0
 45
0.0
 46
0.0
 47
0.0
 48
0.0
 49
0.0
140
0.0
141
0.0
142
1.0
143
1.0
 70
688
 72
0
 73
0
 74
5
  7

 75
16
147
1.0
148
0.0
149
0.0
100
AcDbLayout
  1
Layout1
 70
1
 71
1
 10
0.0
 20
0.0
 11
420.0
 21
297.0
 12
0.0
 22
0.0
 32
0.0
 14
100000000000000000000.0
 24
100000000000000000000.0
 34
100000000000000000000.0
 15
-100000000000000000000.0
 25
-100000000000000000000.0
 35
-100000000000000000000.0
146
0.0
 13
0.0
 23
0.0
 33
0.0
 16
1.0
 26
0.0
 36
0.0
 17
0.0
 27
1.0
 37
0.0
 76
0
330
1B
  0
LAYOUT
  5
22
100
AcDbPlotSettings
  1

  2
C:\Program Files\AutoCAD 2002\plotters\DWF ePlot (optimized for plotting).pc3
  4

  6

 40
0.0
 41
0.0
 42
0.0
 43
0.0
 44
0.0
 45
0.0
 46
0.0
 47
0.0
 48
0.0
 49
0.0
140
0.0
141
0.0
142
1.0
143
1.0
 70
1712
 72
0
 73
0
 74
0
  7

 75
0
147
1.0
148
0.0
149
0.0
100
AcDbLayout
  1
Model
 70
1
 71
0
 10
0.0
 20
0.0
 11
12.0
 21
9.0
 12
0.0
 22
0.0
 32
0.0
 14
0.0
 24
0.0
 34
0.0
 15
0.0
 25
0.0
 35
0.0
146
0.0
 13
0.0
 23
0.0
 33
0.0
 16
1.0
 26
0.0
 36
0.0
 17
0.0
 27
1.0
 37
0.0
 76
0
330
1F
  0
LAYOUT
  5
26
100
AcDbPlotSettings
  1

  2
C:\Program Files\AutoCAD 2002\plotters\DWF ePlot (optimized for plotting).pc3
  4

  6

 40
0.0
 41
0.0
 42
0.0
 43
0.0
 44
0.0
 45
0.0
 46
0.0
 47
0.0
 48
0.0
 49
0.0
140
0.0
141
0.0
142
1.0
143
1.0
 70
688
 72
0
 73
0
 74
5
  7

 75
16
147
1.0
148
0.0
149
0.0
100
AcDbLayout
  1
Layout2
 70
1
 71
2
 10
0.0
 20
0.0
 11
12.0
 21
9.0
 12
0.0
 22
0.0
 32
0.0
 14
0.0
 24
0.0
 34
0.0
 15
0.0
 25
0.0
 35
0.0
146
0.0
 13
0.0
 23
0.0
 33
0.0
 16
1.0
 26
0.0
 36
0.0
 17
0.0
 27
1.0
 37
0.0
 76
0
330
23
  0
DICTIONARY
  5
87
100
AcDbDictionary
281
1
  3
DIMASSOC
350
89
  3
HIDETEXT
350
88
  0
DICTIONARYVAR
  5
88
100
DictionaryVariables
280
0
  1
2
  0
DICTIONARYVAR
  5
89
100
DictionaryVariables
280
0
  1
1
  0
ENDSEC
  0
EOF
