<svg width="512" xmlns="http://www.w3.org/2000/svg" height="512" xmlns:xlink="http://www.w3.org/1999/xlink">
<defs>
<filter width="1.177" x="-.089" y="-.384" height="1.767" id="filter3268">
<feGaussianBlur stdDeviation="1.59836"/>
</filter>
<linearGradient xlink:href="#linearGradient2698" id="linearGradient1421" y1="55.107" x1="81.332" y2="53.511" gradientUnits="userSpaceOnUse" x2="82.92"/>
<linearGradient xlink:href="#linearGradient4931" id="linearGradient4937" y1="12.847" x1="54.113" y2="-3.881" x2="50.08" gradientUnits="userSpaceOnUse"/>
<linearGradient id="linearGradient3244">
<stop offset="0" stop-opacity="0"/>
<stop offset=".081" stop-opacity="0"/>
<stop offset=".615" stop-opacity=".247"/>
<stop offset=".749" stop-opacity=".498"/>
<stop offset="1"/>
</linearGradient>
<linearGradient gradientTransform="matrix(8.92935 0 0 8.92935 35.34927 57.62555)" xlink:href="#linearGradient19900" id="linearGradient19906" y1="41" x1="40.25" y2="38.435" x2="43.062" gradientUnits="userSpaceOnUse"/>
<linearGradient xlink:href="#linearGradient23434" id="linearGradient23440" y1="12.472" x1="55.878" y2="-4.621" x2="52.5" gradientUnits="userSpaceOnUse"/>
<linearGradient xlink:href="#linearGradient3244" id="linearGradient3250" y1="35.743" x1="3.5" y2="45.743" x2="46.779" gradientUnits="userSpaceOnUse"/>
<linearGradient gradientTransform="matrix(8.92935 0 0 8.92935 35.34927 57.62554)" xlink:href="#linearGradient19914" id="linearGradient19920" y1="32.046" x1="33.985" y2="35.272" x2="37.211" gradientUnits="userSpaceOnUse"/>
<linearGradient xlink:href="#linearGradient2690" id="linearGradient1423" y1="57.148" x1="81.096" y2="54.615" gradientUnits="userSpaceOnUse" x2="83.629"/>
<linearGradient id="linearGradient19900">
<stop offset="0" stop-color="#888a85"/>
<stop offset="1" stop-color="#d3d7cf"/>
</linearGradient>
<linearGradient id="linearGradient4931">
<stop offset="0" stop-color="#babdb6"/>
<stop offset="1" stop-color="#888a85"/>
</linearGradient>
<linearGradient id="linearGradient2690">
<stop offset="0" stop-color="#2e3436"/>
<stop offset="1" stop-color="#555753"/>
</linearGradient>
<linearGradient id="linearGradient2698">
<stop offset="0" stop-color="#555753"/>
<stop offset=".702" stop-color="#a3a5a2"/>
<stop offset="1" stop-color="#888a85"/>
</linearGradient>
<linearGradient id="linearGradient23434">
<stop offset="0" stop-color="#888a85"/>
<stop offset="1" stop-color="#babdb6"/>
</linearGradient>
<linearGradient id="linearGradient19914">
<stop offset="0"/>
<stop offset="1" stop-opacity="0"/>
</linearGradient>
<radialGradient cx="8.04" cy="9.528" gradientTransform="matrix(.94683 0 0 .94683 .46935 .49926)" id="radialGradient11108" r="9.812" gradientUnits="userSpaceOnUse">
<stop offset="0" stop-color="#fff"/>
<stop offset="1" stop-color="#fff" stop-opacity="0"/>
</radialGradient>
<radialGradient cx="59.787" cy="10.902" gradientTransform="matrix(0 -1.68661 1.66336 0 41.65431 111.7396)" id="radialGradient1411" r="10.556" gradientUnits="userSpaceOnUse">
<stop offset="0" stop-color="#fbfbfa"/>
<stop offset="1" stop-color="#d3d7cf"/>
</radialGradient>
<radialGradient cx="45.095" cy="-2.694" gradientTransform="matrix(0 1.14344 -1.24722 -0 41.735 -54.25682)" id="radialGradient1409" r="10.498" gradientUnits="userSpaceOnUse">
<stop offset="0" stop-color="#fff"/>
<stop offset="1" stop-color="#eeeeec"/>
</radialGradient>
<radialGradient cx="16.83" cy="24.744" gradientTransform="matrix(19.92396 -5.33861 4.73481 17.6713 -230.28613 -89.68765)" id="radialGradient4960" r="16.925" gradientUnits="userSpaceOnUse">
<stop offset="0" stop-color="#fff"/>
<stop offset="1" stop-color="#fff" stop-opacity="0"/>
</radialGradient>
<radialGradient cx="17.062" cy="28.851" gradientTransform="matrix(1.45955 0 0 1.34534 -7.40314 -10.82184)" id="radialGradient4925" r="13.5" gradientUnits="userSpaceOnUse">
<stop offset="0" stop-color="#429eff"/>
<stop offset="1" stop-color="#0044a7"/>
</radialGradient>
</defs>
<path fill="#fff" stroke="#3465a4" stroke-linecap="round" stroke-width="11.215" d="m22.9943,13.9389h399.3397a15.0162,15.0162 0 0,1 15.017,15.0162v244.7199a15.0162,15.0162 0 0,1 -15.017,15.016h-399.3397a15.0162,15.0162 0 0,1 -15.0162-15.016v-244.7199a15.0162,15.0162 0 0,1 15.0162-15.0162"/>
<path opacity=".6" fill="url(#linearGradient3250)" filter="url(#filter3268)" d="m21,35.7429c-9.66,0-17.5,1.813-17.5,4.0469 0,2.2339 7.84,4.0469 17.5,4.0469 4.4964,0 8.5868-.3954 11.6875-1.0406l.8125,.9467c.0253,.0212 .0868,.0427 .1562,.0578l7.9688,1.8572c.3568,.0826 .8827,.1013 1.5312,.0723 .6486-.029 1.4116-.1241 2.2188-.3107 .8005-.1851 1.2058-.3499 1.3438-.4986 .1379-.1488 .0393-.28-.3125-.3613l-8.0312-1.8428c-.0787-.0179-.1719-.0324-.2812-.0361l-4.0938-.1879c2.7901-.717 4.5-1.6629 4.5-2.7028 0-2.2339-7.84-4.0469-17.5-4.0469z" transform="matrix(8.92935 0 0 8.03641 57.67265 105.23106)"/>
<path opacity=".6" fill="url(#radialGradient4925)" d="m31,18.25a13.5,13.75 0 1,1 -27,0 13.5,13.75 0 1,1 27,0z" transform="matrix(10.58293 0 0 10.39052 46.59365 46.58558)"/>
<path opacity=".5" fill="url(#radialGradient4960)" d="m226.7124,88.8783c-76.0438,2.8935-136.8769,65.625-136.8769,142.3729 0,21.5815 12.5289,42.1625 22.2458,59.9327-4.2153-48.4702 16.6677-59.0514 30.5344-54.7465 42.0707,13.0608 115.0756,24.9326 190.0802-14.2286 26.2939-13.7285 41.6274,19.9077 40.5768-10.3245-8.3886-69.6006-69.0237-123.006-141.0643-123.006-1.8419,0-3.671-.0694-5.496,0z"/>
<path fill="none" stroke="url(#radialGradient1411)" stroke-linecap="round" stroke-width="1.875" d="m62.5,4.5a10,10 0 1,1 -20,0 10,10 0 1,1 20,0z" transform="matrix(14.28696 0 0 14.28696 -518.27044 171.92123)"/>
<g transform="matrix(13.78738 0 0 13.71562 -719.87337 -339.24076)">
<path fill="url(#linearGradient1421)" stroke="url(#linearGradient1423)" stroke-linejoin="round" stroke-linecap="round" stroke-width=".677" d="m76.7964,49.7685 .6476,3.2552 5.1812,5.2135c.1925,.1937 .9715,.3203 1.9429-.6562 .9715-.9766 .8956-1.7039 .6476-1.9531l-5.1812-5.2083-3.2382-.651z"/>
<path opacity=".192" fill="#fff" d="m79.5673,51.32c-.003,.0112 .2941,.3243-.2453,.865-.5394,.5407-1.0071,.374-.9935,.3603l-.2691-1.5216 1.5079,.2963z"/>
</g>
<path fill="none" stroke="url(#linearGradient19906)" stroke-linecap="round" stroke-width="8.929" d="m350.4182,354.7818 5.5591,28.5848 66.9665,67.4056c3.2935,3.315 8.3387,1.9458 16.6773-6.3929 8.3387-8.3387 10.4887-12.5127 6.3484-16.6773l-66.9665-67.3611-28.5848-5.5591z"/>
<path opacity=".153" fill="url(#linearGradient19920)" d="m337.4464,338.8254c-2.3201,.7814-3.6373,3.215-3.016,5.572l9.048,44.5758c.2257,.8185 .6728,1.5598 1.2926,2.1431l71.0912,71.5784c3.1861,3.1892 7.9959,4.1214 13.7874,3.0003 5.7915-1.1211 12.6117-4.7935 19.8194-12.0012 7.1481-7.1481 10.8323-13.5433 12.064-19.2876 1.2317-5.7443 .1251-11.0031-3.016-14.1442l-71.522-71.1498c-.7031-.6901-1.6083-1.1403-2.5851-1.2858l-44.3781-9.0009c-.8445-.2423-1.7406-.2423-2.5851,0z"/>
<g fill="none" stroke-linecap="round">
<path stroke="url(#radialGradient1409)" stroke-width=".606" d="m62.5,4.5a10,10 0 1,1 -20,0 10,10 0 1,1 20,0z" transform="matrix(14.73343 0 0 14.73343 -541.70999 169.91213)"/>
<path stroke="url(#linearGradient23440)" stroke-width=".571" d="m62.5,4.5a10,10 0 1,1 -20,0 10,10 0 1,1 20,0z" transform="matrix(15.62636 0 0 15.62636 -588.58907 165.89392)"/>
<path stroke="url(#linearGradient4937)" stroke-width=".688" d="m62.5,4.5a10,10 0 1,1 -20,0 10,10 0 1,1 20,0z" transform="matrix(12.97588 0 0 12.97591 -449.4389 177.82094)"/>
</g>
<path opacity=".161" fill="url(#radialGradient11108)" d="m22.1875,12.9375a9.8125,9.8125 0 1,1 -19.625,0 9.8125,9.8125 0 1,1 19.625,0z" transform="matrix(11.82998 0 0 11.82998 85.39902 83.16224)"/>
</svg>
