<svg width="512" xmlns="http://www.w3.org/2000/svg" height="512">
<defs/>
<g transform="translate(0 492)">
<g fill="none" stroke="#fff" stroke-width="16">
<path d="m77.3255-223.2 384-204.8"/>
<path d="m230.9255-44c0-153.6 76.8-230.4 230.4-230.4"/>
</g>
<g fill="#f00">
<path d="m16.5,4.5a1,1 0 1,1 -2,0 1,1 0 1,1 2,0z" transform="matrix(32 0 0 -32 -220.27452 -53.6)"/>
<path d="m16.5,4.5a1,1 0 1,1 -2,0 1,1 0 1,1 2,0z" transform="matrix(32 0 0 -32 -290.67452 -149.6)"/>
</g>
</g>
<g fill-rule="evenodd" transform="matrix(25.6 0 0 25.6 13.32549 0)">
<path d="m11.9688,13.6875c-.7638,1.6045-.9688,2.4391-.9688,3.8125h1c0-1.2933 .1362-1.8229 .875-3.375l-.9062-.4375z"/>
<path stroke-linejoin="round" stroke-width=".625" d="m10.0851,15.4756 2.9034-2.8009-.1174,3.9307c-.4175-.7787-1.9072-1.2882-2.786-1.1299z"/>
</g>
<g fill-rule="evenodd" transform="matrix(25.6 0 0 25.6 4.27451 -20.93036)">
<path d="m5.3438,5.9375-4.0312,2.125 .4688,.9062 4.0312-2.1562-.4688-.875z"/>
<path stroke-linejoin="round" stroke-width=".625" d="m2.4478,6.2146 4.3187-.479-2.7937,3.1529c.1272-.8743-.7243-2.2789-1.525-2.6739z"/>
</g>
</svg>
