<svg xmlns="http://www.w3.org/2000/svg" xmlns:xlink="http://www.w3.org/1999/xlink" viewBox="0 0 512 512"><g transform="translate(0 492)"><g fill="none" stroke="#fff" stroke-width="16"><path d="m77.33-223.2l384-204.8"/><path d="m230.93-44c0-153.6 76.8-230.4 230.4-230.4"/></g><g fill="#f00"><path d="m16.5 4.5a1 1 0 1 1 -2 0 1 1 0 1 1 2 0" transform="matrix(32 0 0-32-220.27-53.6)" id="0"/><use transform="translate(-70.4-96)" xlink:href="#0"/></g></g><g transform="matrix(25.6 0 0 25.6 13.325 0)" fill="#fff" fill-rule="evenodd"><path d="m11.969 13.688c-.764 1.604-.969 2.439-.969 3.813h1c0-1.293.136-1.823.875-3.375l-.906-.438"/><path d="m10.09 15.476l2.903-2.801-.117 3.931c-.418-.779-1.907-1.288-2.786-1.13" stroke-linejoin="round" stroke-width=".625"/></g><g transform="matrix(25.6 0 0 25.6 4.275-20.93)" fill="#fff" fill-rule="evenodd"><path d="m5.344 5.938l-4.03 2.125.469.906 4.03-2.156-.469-.875"/><path d="m2.448 6.215l4.319-.479-2.794 3.153c.127-.874-.724-2.279-1.525-2.674" stroke-linejoin="round" stroke-width=".625"/></g></svg>