<svg width="512" xmlns="http://www.w3.org/2000/svg" height="512">
<defs/>
<g transform="translate(0 464)">
<path fill="#fdffff" d="m56-328h416v256h-416z"/>
<path d="m203.8844-174.7746-72.8324,0-12.763,29.6878c-3.1445,7.3064-4.7168,12.763-4.7168,16.3699-0,2.8671 1.341,5.4104 4.0231,7.63 2.7745,2.1272 8.6936,3.5145 17.7572,4.1619v5.1329h-59.237v-5.1329c7.8613-1.3873 12.948-3.1907 15.2601-5.4104 4.7167-4.4393 9.9422-13.4566 15.6763-27.052l66.1734-154.8208h4.8555l65.4798,156.4855c5.2715,12.578 10.0345,20.763 14.289,24.5549 4.3466,3.6994 10.3582,5.7803 18.0347,6.2428v5.1329h-74.2197v-5.1329c7.4912-.3699 12.5317-1.6185 15.1214-3.7457 2.6819-2.1272 4.023-4.7168 4.0231-7.7688-.0001-4.0693-1.8499-10.4971-5.5491-19.2832l-11.3757-27.052m-3.8844-10.2659l-31.9075-76.0231-32.7399,76.0231h64.6474"/>
<g fill="none" stroke="#000" stroke-width="16">
<path d="m312-296 0,192"/>
<path d="m328-104-32,0"/>
<path d="m296-296 32,0"/>
<path d="m472,136-416,0 0,256 416,0" transform="translate(0 -464)"/>
</g>
</g>
</svg>
