<?xml version="1.0" encoding="UTF-8" standalone="no"?>
<svg
   xmlns:dc="http://purl.org/dc/elements/1.1/"
   xmlns:cc="http://creativecommons.org/ns#"
   xmlns:rdf="http://www.w3.org/1999/02/22-rdf-syntax-ns#"
   xmlns:svg="http://www.w3.org/2000/svg"
   xmlns="http://www.w3.org/2000/svg"
   xmlns:xlink="http://www.w3.org/1999/xlink"
   xmlns:sodipodi="http://sodipodi.sourceforge.net/DTD/sodipodi-0.dtd"
   xmlns:inkscape="http://www.inkscape.org/namespaces/inkscape"
   width="512"
   height="512"
   id="svg2"
   version="1.1"
   inkscape:version="0.48.5 r10040"
   sodipodi:docname="EditHatch.svg">
  <metadata
     id="metadata24">
    <rdf:RDF>
      <cc:Work
         rdf:about="">
        <dc:format>image/svg+xml</dc:format>
        <dc:type
           rdf:resource="http://purl.org/dc/dcmitype/StillImage" />
      </cc:Work>
    </rdf:RDF>
  </metadata>
  <sodipodi:namedview
     pagecolor="#ffffff"
     bordercolor="#666666"
     borderopacity="1"
     objecttolerance="10"
     gridtolerance="10"
     guidetolerance="10"
     inkscape:pageopacity="0"
     inkscape:pageshadow="2"
     inkscape:window-width="1639"
     inkscape:window-height="1082"
     id="namedview22"
     showgrid="true"
     inkscape:zoom="0.921875"
     inkscape:cx="256"
     inkscape:cy="246.23729"
     inkscape:window-x="0"
     inkscape:window-y="0"
     inkscape:window-maximized="0"
     inkscape:current-layer="svg2">
    <inkscape:grid
       type="xygrid"
       id="grid3318"
       empspacing="2"
       visible="true"
       enabled="true"
       snapvisiblegridlinesonly="true"
       spacingx="8px"
       spacingy="8px" />
  </sodipodi:namedview>
  <defs
     id="defs4">
    <radialGradient
       gradientUnits="userSpaceOnUse"
       r="3.241"
       id="radialGradient2558"
       gradientTransform="matrix(2.92356,0,0,2.02972,-61.5553,-27.8842)"
       cy="27.641"
       cx="29.053">
      <stop
         id="stop3267"
         stop-color="#e7e2b8"
         offset="0" />
      <stop
         id="stop3269"
         stop-opacity="0"
         stop-color="#e7e2b8"
         offset="1" />
    </radialGradient>
    <linearGradient
       id="linearGradient2974">
      <stop
         id="stop3262"
         stop-color="#c1c1c1"
         offset="0" />
      <stop
         id="stop3264"
         stop-color="#acacac"
         offset="1" />
    </linearGradient>
    <linearGradient
       id="linearGradient2994">
      <stop
         id="stop3257"
         stop-color="#000"
         offset="0" />
      <stop
         id="stop3259"
         stop-color="#c9c9c9"
         offset="1" />
    </linearGradient>
    <linearGradient
       id="linearGradient2966">
      <stop
         id="stop3250"
         stop-color="#ffd1d1"
         offset="0" />
      <stop
         id="stop3252"
         stop-color="#ff1d1d"
         offset=".5" />
      <stop
         id="stop3254"
         stop-color="#6f0000"
         offset="1" />
    </linearGradient>
    <linearGradient
       x2="50.988"
       gradientUnits="userSpaceOnUse"
       y2="22.251"
       x1="48.906"
       y1="17.376"
       id="linearGradient2554"
       xlink:href="#linearGradient2966"
       gradientTransform="translate(-5.66929,0)" />
    <linearGradient
       x2="25.515"
       gradientUnits="userSpaceOnUse"
       y2="30.703"
       x1="25.719"
       y1="31.047"
       id="linearGradient2560"
       xlink:href="#linearGradient2994"
       gradientTransform="translate(-5.82554,0.125)" />
    <linearGradient
       x2="47.688"
       gradientUnits="userSpaceOnUse"
       y2="22.625"
       x1="46"
       y1="19.812"
       id="linearGradient2556"
       xlink:href="#linearGradient2974"
       gradientTransform="translate(-5.66929,0)" />
  </defs>
  <g
     id="g3104"
     transform="translate(-16,528)"
     style="fill:none;stroke:#000000">
    <g
       id="g3106"
       style="stroke-width:13.71399975">
      <path
         id="path3108"
         d="m 360,-192 c 0,30.928 -25.072,56 -56,56 -30.928,0 -56,-25.072 -56,-56 0,-30.928 25.072,-56 56,-56 30.928,0 56,25.0721 56,56 z"
         inkscape:connector-curvature="0" />
      <path
         id="path3110"
         d="m 440,-328 -256,0 -112,112 v 144 h 368 v -256 z"
         inkscape:connector-curvature="0" />
    </g>
    <g
       id="g3112"
       style="stroke-width:8">
      <path
         id="path3114"
         d="M 72,-88 312,-328"
         inkscape:connector-curvature="0" />
      <path
         id="path3116"
         d="m 296,-248 80,-80"
         inkscape:connector-curvature="0" />
      <path
         id="path3118"
         d="M 120,-72 248,-200"
         inkscape:connector-curvature="0" />
      <path
         id="path3120"
         d="m 344,-232 96,-96"
         inkscape:connector-curvature="0" />
      <path
         id="path3122"
         d="m 184,-72 80,-80"
         inkscape:connector-curvature="0" />
      <path
         id="path3124"
         d="m 360,-184 80,-80"
         inkscape:connector-curvature="0" />
      <path
         id="path3126"
         d="m 248,-72 64,-64"
         inkscape:connector-curvature="0" />
      <path
         id="path3128"
         d="M 312,-72 440,-200"
         inkscape:connector-curvature="0" />
      <path
         id="path3130"
         d="m 376,-72 64,-64"
         inkscape:connector-curvature="0" />
      <path
         id="path3132"
         d="M 72,-152 248,-328"
         inkscape:connector-curvature="0" />
    </g>
  </g>
  <g
     id="g3271"
     transform="matrix(9.261995,-3.29527,3.434295,8.88706,171.04358,-227.27229)"
     style="fill-rule:evenodd">
    <path
       id="path3273"
       transform="translate(-29.7555,19)"
       d="m 17.3412,32.5 5.625,-5.625 20.0937,-9.75 c 3.25,-1.25 5.1875,3.375 2.3125,5 l -20.0312,9.375 -8,1 z"
       inkscape:connector-curvature="0"
       style="fill:#cb9022;stroke:#5c410c;stroke-width:0.93400002" />
    <path
       id="path3275"
       transform="translate(-29.7555,19)"
       d="m 38.3307,20 c 0,0 1.4375,0.0938 2,1.3438 0.5795,1.2878 0,2.6562 0,2.6562 l 5.0312,-2.4688 c 0,0 1.452,-0.8814 0.6562,-2.8438 -0.7849,-1.9356 -2.6875,-1.1562 -2.6875,-1.1562 l -5,2.4688 z"
       inkscape:connector-curvature="0"
       style="fill:url(#linearGradient2554)" />
    <path
       id="path3277"
       transform="translate(-29.7555,19)"
       d="m 38.3307,20 c 0,0 1.4375,0.0938 2,1.3438 0.5795,1.2878 0,2.6562 0,2.6562 l 2,-1 c 0,0 0.827,-1.3189 0.2188,-2.6875 C 41.9245,18.9063 40.3307,19 40.3307,19 l -2,1 z"
       inkscape:connector-curvature="0"
       style="fill:url(#linearGradient2556)" />
    <path
       id="path3279"
       transform="translate(-29.7555,19)"
       d="m 18.7682,31.7812 4.5,-4.5 c 1.5,0.8125 2.2812,2.1562 1.875,3.7188 l -6.375,0.7812 z"
       inkscape:connector-curvature="0"
       style="fill:url(#radialGradient2558)" />
    <path
       id="path3281"
       transform="translate(-29.7555,19)"
       d="m 20.112,30.375 -1.625,1.5938 2.3438,-0.3125 c 0.2188,-0.7188 -0.1875,-1.0625 -0.7188,-1.2812 z"
       inkscape:connector-curvature="0"
       style="fill:url(#linearGradient2560)" />
    <g
       id="g3283"
       style="fill-opacity:0.36400003">
      <path
         id="path3285"
         transform="translate(-29.7555,19)"
         d="M 23.2682,27.25 24.8307,28.5 40.218,21.1813 C 39.7736,20.3253 38.9762,20.0967 38.3146,20.019 L 23.2681,27.2499 z"
         inkscape:connector-curvature="0"
         style="fill:#ffffff" />
      <path
         id="path3287"
         transform="translate(-29.7555,19)"
         d="m 25.1432,31.0625 0.1875,-0.75 15.2311,-7.1296 c 0,0 -0.1102,0.6136 -0.2159,0.7493 l -15.2027,7.1303 z"
         inkscape:connector-curvature="0" />
    </g>
  </g>
</svg>
