<?xml version="1.0" encoding="UTF-8" standalone="no"?>
<!-- 2016-05-25 09:57:19 Generated by QCAD SVG Exporter -->

<svg
   xmlns:dc="http://purl.org/dc/elements/1.1/"
   xmlns:cc="http://creativecommons.org/ns#"
   xmlns:rdf="http://www.w3.org/1999/02/22-rdf-syntax-ns#"
   xmlns:svg="http://www.w3.org/2000/svg"
   xmlns="http://www.w3.org/2000/svg"
   xmlns:sodipodi="http://sodipodi.sourceforge.net/DTD/sodipodi-0.dtd"
   xmlns:inkscape="http://www.inkscape.org/namespaces/inkscape"
   width="305"
   height="162.4999999999999"
   viewBox="0 -162.4999999999999 305 162.4999999999999"
   version="1.1"
   style="stroke-linecap:round;stroke-linejoin:round;fill:none"
   id="svg2"
   inkscape:version="0.91 r13725"
   sodipodi:docname="BevelFigure.svg"
   inkscape:export-filename="BevelFigure.png"
   inkscape:export-xdpi="90"
   inkscape:export-ydpi="90">
  <metadata
     id="metadata48">
    <rdf:RDF>
      <cc:Work
         rdf:about="">
        <dc:format>image/svg+xml</dc:format>
        <dc:type
           rdf:resource="http://purl.org/dc/dcmitype/StillImage" />
      </cc:Work>
    </rdf:RDF>
  </metadata>
  <defs
     id="defs46" />
  <sodipodi:namedview
     pagecolor="#ffffff"
     bordercolor="#666666"
     borderopacity="1"
     objecttolerance="10"
     gridtolerance="10"
     guidetolerance="10"
     inkscape:pageopacity="0"
     inkscape:pageshadow="2"
     inkscape:window-width="756"
     inkscape:window-height="480"
     id="namedview44"
     showgrid="false"
     inkscape:zoom="0.77377049"
     inkscape:cx="152.5"
     inkscape:cy="81.25"
     inkscape:window-x="0"
     inkscape:window-y="23"
     inkscape:window-maximized="0"
     inkscape:current-layer="svg2" />
  <g
     transform="scale(1,-1)"
     id="g4">
    <!-- Rotated Dimension -->
    <g
       id="g6">
      <path
         d="M240,149.9999999999999 L250,151.66513863109125 L250,148.33486136890852 Z"
         style="stroke:#0000ff;stroke-width:0.25;fill:#0000ff;fill-rule:evenodd;"
         id="path8" />
      <path
         d="M270,149.9999999999999 L260,148.33486136890852 L260,151.66513863109125 Z"
         style="stroke:#0000ff;stroke-width:0.25;fill:#0000ff;fill-rule:evenodd;"
         id="path10" />
      <g
         id="g12">
        <path
           d="M250,160.27777777777766 L252.22222222222223,162.4999999999999 L252.22222222222223,152.4999999999999"
           style="stroke:#0000ff;stroke-width:0.25;"
           id="path14" />
        <path
           d="M258.7962551052278,161.944246849798 L258.7963631482143,161.94434960689705 C258.5807630439419,162.27867101113654 258.20511748844103,162.4999999999999 257.77777777777777,162.4999999999999 C257.35072312933517,162.4999999999999 256.9752936926109,162.2789661931108 256.75967733446424,161.94510102018864 M256.7607611458004,161.947674904962 L256.76057969891866,161.9479625658838 C256.2776582971403,161.30347106015907 255.93705524396017,160.54630891915608 255.7856086023308,159.72464160646516 M255.78608546027516,155.27797340498293 L255.78530404397958,155.27700929698324 C255.93751658820435,154.4526467302815 256.2780076953164,153.69603900222586 256.76052307114804,153.05211300634613 M256.75975822465523,153.05504227865745 L256.7596507567311,153.0549401315409 C256.9753245392441,152.7210156463805 257.3507406734588,152.4999999999999 257.77777777777777,152.4999999999999 C258.2048324262204,152.4999999999999 258.5802618629447,152.72103380688898 258.79587822109136,153.05489897981116 M258.7943499653107,153.05232509503776 L258.79453141219244,153.05203743411596 C259.27745281397085,153.6965289398407 259.61805586715093,154.4536910808437 259.7695025087803,155.2753583935346 M259.7678348241274,155.2750415732105 L259.7689293933759,155.269834730656 C259.9205504068426,155.9799448960984 260,156.71347200245148 260,157.46555555555545 C260,157.47708161987697 259.9999813395732,157.4886033258223 259.99994464032824,157.4999370010258 M259.9999363350239,157.49796713715523 L259.99993701144916,157.49777075587923 C259.99997921489495,157.51012018131726 260,157.5222798855701 260,157.53444444444432 C260,158.28698579665013 259.9204536542353,159.02094810432283 259.76996727631075,159.72530588676136 M259.76885572629544,159.7229429794874 L259.76963791739774,159.72390796475906 C259.61751754963643,160.54696299386808 259.2777124006985,161.30244836434386 258.79626391272177,161.94564921142052 M255.55561922053164,157.50203286284454 L255.55561854410638,157.5022292441205 C255.55557634066062,157.48987981868248 255.55555555555554,157.47772011442967 255.55555555555554,157.46555555555545 C255.55555555555554,156.71238175827295 255.63523566097243,155.97781824676431 255.7859691845883,155.27290938693557 M255.78772073142812,159.72495842678927 L255.78662616217966,159.73016526934376 C255.63500514871293,159.02005510390137 255.55555555555554,158.2865279975483 255.55555555555554,157.53444444444432 C255.55555555555554,157.52221496363904 255.55557656311177,157.50999038941143 255.55561787729343,157.49796536526316"
           style="stroke:#0000ff;stroke-width:0.25;"
           id="path16" />
      </g>
      <path
         d="M240,149.9999999999999 L270,149.9999999999999 M240,122.5 L240,154.9999999999999 M270,62.50000000000004 L270,154.9999999999999 "
         style="stroke:#0000ff;stroke-width:0.25;"
         id="path18" />
    </g>
    <!-- Rotated Dimension -->
    <g
       id="g20">
      <path
         d="M300,120 L301.66513863109134,110 L298.33486136890866,110 Z"
         style="stroke:#0000ff;stroke-width:0.25;fill:#0000ff;fill-rule:evenodd;"
         id="path22" />
      <path
         d="M300,60.00000000000004 L298.33486136890866,70.00000000000004 L301.66513863109134,70.00000000000004 Z"
         style="stroke:#0000ff;stroke-width:0.25;fill:#0000ff;fill-rule:evenodd;"
         id="path24" />
      <g
         id="g26">
        <path
           d="M297.5,88.33333333333336 L297.5,83.88888888888891 L290.1144444444444,88.18333333333337 M290.11557771847805,88.18252755772636 L290.11576790464306,88.18262663307847 C289.95149411940275,88.27845209073307 289.760489493544,88.33333333333336 289.5566666666667,88.33333333333336 C289.4193952075458,88.33333333333336 289.2879378409225,88.30844024417074 289.1667488421487,88.26299184744734 M289.16657324104915,88.26274440111658 L289.1660671051827,88.26316921317324 C288.20762418292674,88.01591686563673 287.5,87.14615123010341 287.5,86.11111111111114 C287.5,85.07613130052691 288.20754172342805,84.2064067139538 289.1647325124699,83.95939735357678"
           style="stroke:#0000ff;stroke-width:0.25;"
           id="path28" />
        <path
           d="M288.0557531502019,94.90736621633891 L288.05565039310284,94.90747425932544 C287.7213289888633,94.69187415505301 287.5,94.31622859955216 287.5,93.88888888888891 C287.5,93.46183424044631 287.72103380688907,93.08640480372199 288.05489897981124,92.87078844557537 M288.0523250950379,92.87187225691157 L288.0520374341161,92.87169081002983 C288.6965289398408,92.38876940825142 289.4536910808438,92.04816635507132 290.2753583935347,91.89671971344193 M294.722026595017,91.89719657138629 L294.72299070301665,91.89641515509072 C295.5473532697184,92.04862769931549 296.303960997774,92.38911880642753 296.94788699365375,92.87163418225919 M296.9449577213424,92.87086933576637 L296.945059868459,92.87076186784223 C297.27898435361936,93.08643565035524 297.5,93.46185178456996 297.5,93.88888888888891 C297.5,94.31594353733152 297.27896619311093,94.69137297405584 296.94510102018876,94.90698933220247 M296.9476749049621,94.90546107642182 L296.9479625658839,94.90564252330357 C296.3034710601592,95.38856392508197 295.5463089191562,95.72916697826207 294.7246416064653,95.88061361989146 M294.7249584267894,95.87894593523858 L294.7301652693439,95.88004050448704 C294.0200551039015,96.03166151795376 293.28652799754843,96.11111111111114 292.53444444444443,96.11111111111114 C292.5229183801229,96.11111111111114 292.5113966741776,96.11109245068435 292.5000629989741,96.11105575143938 M292.50203286284466,96.11104744613505 L292.50222924412066,96.1110481225603 C292.4898798186826,96.11109032600608 292.4777201144298,96.11111111111114 292.46555555555557,96.11111111111114 C291.71301420334976,96.11111111111114 290.97905189567706,96.03156476534647 290.2746941132385,95.88107838742187 M290.2770570205125,95.87996683740657 L290.2760920352408,95.8807490285089 C289.4530370061318,95.72862866074755 288.69755163565605,95.38882351180963 288.05435078857937,94.90737502383293 M292.49796713715534,91.66673033164278 L292.49777075587934,91.66672965521752 C292.5101201813174,91.66668745177175 292.52227988557024,91.6666666666667 292.53444444444443,91.6666666666667 C293.28761824172693,91.6666666666667 294.0221817532356,91.74634677208357 294.7270906130643,91.89708029569945 M290.2750415732106,91.89883184253927 L290.2698347306561,91.89773727329079 C290.9799448960985,91.74611625982406 291.7134720024516,91.6666666666667 292.46555555555557,91.6666666666667 C292.47778503636084,91.6666666666667 292.49000961058846,91.6666876742229 292.50203463473673,91.66672898840456"
           style="stroke:#0000ff;stroke-width:0.25;"
           id="path30" />
      </g>
      <path
         d="M300,120 L300,60.00000000000004 M242.5,120 L305,120 M272.5,60.00000000000004 L305,60.00000000000004 "
         style="stroke:#0000ff;stroke-width:0.25;"
         id="path32" />
    </g>
    <!-- Line -->
    <path
       d="M0,120 L90,120 "
       style="stroke:#000000;stroke-width:1;"
       id="path34" />
    <!-- Line -->
    <path
       d="M90,120 L90,0 "
       style="stroke:#000000;stroke-width:1;"
       id="path36" />
    <!-- Line -->
    <path
       d="M180,120 L240,120 "
       style="stroke:#000000;stroke-width:1;"
       id="path38" />
    <!-- Line -->
    <path
       d="M270,60 L270,0 "
       style="stroke:#000000;stroke-width:1;"
       id="path40" />
    <!-- Line -->
    <path
       d="M240,120 L270,60 "
       style="stroke:#000000;stroke-width:1;"
       id="path42" />
  </g>
</svg>
