<svg width="306" fill="none" xmlns="http://www.w3.org/2000/svg" height="163.5" viewBox="-0.5 -163 306 163.5" stroke-linejoin="round" stroke-linecap="round">
<g fill="#00f" fill-rule="evenodd" stroke="#00f" stroke-width=".25" transform="scale(1 -1)">
<path d="m240,150l10,1.665v-3.33Z"/>
<path d="m270,150l-10-1.665v3.33Z"/>
</g>
<g stroke="#00f" stroke-width=".25" transform="scale(1 -1)">
<path d="m250,160.278l2.222,2.222v-10"/>
<path d="m258.796,161.944c-.215,.335-.591,.556-1.018,.556-.427,0-.803-.221-1.018-.555m.001,.003c-.483-.645-.824-1.402-.975-2.223m0-4.447l-.001-.001c.153-.824 .493-1.581 .976-2.225m-.001,.003c.215-.334 .591-.555 1.018-.555 .427,0 .802,.221 1.018,.555m-.002-.003h.001c.482,.645 .823,1.402 .975,2.223m-.002,0l.001-.005c.152,.71 .231,1.443 .231,2.196 0,.011 0,.023 0,.034m0-.002c0,.012 0,.024 0,.036 0,.753-.08,1.487-.23,2.191m-.001-.002l.001,.001c-.152,.823-.492,1.578-.974,2.222m-3.24-4.444c0-.012 0-.024 0-.036 0-.754 .079-1.488 .23-2.193m.002,4.452l-.001,.005c-.152-.71-.231-1.443-.231-2.196 0-.012 0-.024 0-.036"/>
</g>
<g transform="scale(1 -1)">
<path stroke="#00f" stroke-width=".25" d="m240,150h30m-30-27.5v32.5m30-92.5v92.5"/>
</g>
<g fill="#00f" fill-rule="evenodd" stroke="#00f" stroke-width=".25" transform="scale(1 -1)">
<path d="m300,120l1.665-10h-3.33Z"/>
<path d="m300,60l-1.665,10h3.33Z"/>
</g>
<g stroke="#00f" stroke-width=".25" transform="scale(1 -1)">
<path d="m297.5,88.3333v-4.4444l-7.386,4.2944m.002-.0008v.0001c-.165,.0959-.356,.1507-.559,.1507-.138,0-.269-.0249-.39-.0703m0-.0003l-.001,.0005c-.958-.2473-1.666-1.117-1.666-2.1521 0-1.035 .708-1.9047 1.665-2.1517"/>
<path d="m288.056,94.9074v.0001c-.335-.2156-.556-.5913-.556-1.0186 0-.4271 .221-.8025 .555-1.0181m-.003,.0011v-.0002c.645-.4829 1.402-.8235 2.223-.975m4.447,.0005l.001-.0008c.824,.1522 1.581,.4927 2.225,.9752m-.003-.0007v-.0001c.334,.2156 .555,.5911 .555,1.0181 0,.427-.221,.8025-.555,1.0181m.003-.0015v.0001c-.645,.483-1.402,.8236-2.223,.975m0-.0017l.005,.0011c-.71,.1517-1.443,.2311-2.196,.2311-.011,0-.023,0-.034,0m.002-.0001c-.012,.0001-.024,.0001-.036,.0001-.753,0-1.487-.0795-2.191-.23m.002-.0011l-.001,.0007c-.823-.1521-1.578-.4919-2.222-.9733m4.444-3.2407c.012,0 .024,0 .036,0 .754,0 1.488,.0796 2.193,.2304m-4.452,.0017l-.005-.0011c.71-.1516 1.443-.231 2.196-.231 .012,0 .024,0 .036,0"/>
</g>
<g transform="scale(1 -1)">
<path stroke="#00f" stroke-width=".25" d="m300,120v-60m-57.5,60h62.5m-32.5-60h32.5"/>
</g>
<g stroke="#000" transform="scale(1 -1)">
<path d="m0,120h90"/>
<path d="m90,120v-120"/>
<path d="m180,120h60"/>
<path d="m270,60v-60"/>
<path d="m240,120l30-60"/>
</g>
</svg>
