<?xml version="1.0" encoding="UTF-8"?>
<!-- 2011-11-20 20:43:57 Generated by QCAD SVG Exporter -->
<svg width="306" height="163.5" viewBox="-0.5 -163 306 163.5" version="1.1" xmlns="http://www.w3.org/2000/svg" style="stroke-linecap:round;stroke-linejoin:round;fill:none">
    <g transform="scale(1,-1)">
        <!-- Rotated Dimension -->
        <g>
            <path d="M240,150 L250,151.665 L250,148.335 Z" style="stroke:#0000ff;stroke-width:0.25;fill:#0000ff;fill-rule:evenodd;"/>
            <path d="M270,150 L260,148.335 L260,151.665 Z" style="stroke:#0000ff;stroke-width:0.25;fill:#0000ff;fill-rule:evenodd;"/>
            <g>
                <path d="M250,160.278 L252.222,162.5 L252.222,152.5 " style="stroke:#0000ff;stroke-width:0.25;"/>
                <path d="M258.796,161.944 L258.796,161.944 C258.581,162.279 258.205,162.5 257.778,162.5 C257.351,162.5 256.975,162.279 256.76,161.945 M256.761,161.948 L256.761,161.948 C256.278,161.303 255.937,160.546 255.786,159.725 M255.786,155.278 L255.785,155.277 C255.938,154.453 256.278,153.696 256.761,153.052 M256.76,153.055 L256.76,153.055 C256.975,152.721 257.351,152.5 257.778,152.5 C258.205,152.5 258.58,152.721 258.796,153.055 M258.794,153.052 L258.795,153.052 C259.277,153.697 259.618,154.454 259.77,155.275 M259.768,155.275 L259.769,155.27 C259.921,155.98 260,156.713 260,157.466 C260,157.477 260,157.489 260,157.5 M260,157.498 L260,157.498 C260,157.51 260,157.522 260,157.534 C260,158.287 259.92,159.021 259.77,159.725 M259.769,159.723 L259.77,159.724 C259.618,160.547 259.278,161.302 258.796,161.946 M255.556,157.502 L255.556,157.502 C255.556,157.49 255.556,157.478 255.556,157.466 C255.556,156.712 255.635,155.978 255.786,155.273 M255.788,159.725 L255.787,159.73 C255.635,159.02 255.556,158.287 255.556,157.534 C255.556,157.522 255.556,157.51 255.556,157.498 " style="stroke:#0000ff;stroke-width:0.25;"/>
            </g>
            <path d="M240,150 L270,150 M240,122.5 L240,155 M270,62.5 L270,155 " style="stroke:#0000ff;stroke-width:0.25;"/>
        </g>
        <!-- Rotated Dimension -->
        <g>
            <path d="M300,120 L301.665,110 L298.335,110 Z" style="stroke:#0000ff;stroke-width:0.25;fill:#0000ff;fill-rule:evenodd;"/>
            <path d="M300,60 L298.335,70 L301.665,70 Z" style="stroke:#0000ff;stroke-width:0.25;fill:#0000ff;fill-rule:evenodd;"/>
            <g>
                <path d="M297.5,88.3333 L297.5,83.8889 L290.114,88.1833 M290.116,88.1825 L290.116,88.1826 C289.951,88.2785 289.76,88.3333 289.557,88.3333 C289.419,88.3333 289.288,88.3084 289.167,88.263 M289.167,88.2627 L289.166,88.2632 C288.208,88.0159 287.5,87.1462 287.5,86.1111 C287.5,85.0761 288.208,84.2064 289.165,83.9594 " style="stroke:#0000ff;stroke-width:0.25;"/>
                <path d="M288.056,94.9074 L288.056,94.9075 C287.721,94.6919 287.5,94.3162 287.5,93.8889 C287.5,93.4618 287.721,93.0864 288.055,92.8708 M288.052,92.8719 L288.052,92.8717 C288.697,92.3888 289.454,92.0482 290.275,91.8967 M294.722,91.8972 L294.723,91.8964 C295.547,92.0486 296.304,92.3891 296.948,92.8716 M296.945,92.8709 L296.945,92.8708 C297.279,93.0864 297.5,93.4619 297.5,93.8889 C297.5,94.3159 297.279,94.6914 296.945,94.907 M296.948,94.9055 L296.948,94.9056 C296.303,95.3886 295.546,95.7292 294.725,95.8806 M294.725,95.8789 L294.73,95.88 C294.02,96.0317 293.287,96.1111 292.534,96.1111 C292.523,96.1111 292.511,96.1111 292.5,96.1111 M292.502,96.111 L292.502,96.111 C292.49,96.1111 292.478,96.1111 292.466,96.1111 C291.713,96.1111 290.979,96.0316 290.275,95.8811 M290.277,95.88 L290.276,95.8807 C289.453,95.7286 288.698,95.3888 288.054,94.9074 M292.498,91.6667 L292.498,91.6667 C292.51,91.6667 292.522,91.6667 292.534,91.6667 C293.288,91.6667 294.022,91.7463 294.727,91.8971 M290.275,91.8988 L290.27,91.8977 C290.98,91.7461 291.713,91.6667 292.466,91.6667 C292.478,91.6667 292.49,91.6667 292.502,91.6667 " style="stroke:#0000ff;stroke-width:0.25;"/>
            </g>
            <path d="M300,120 L300,60 M242.5,120 L305,120 M272.5,60 L305,60 " style="stroke:#0000ff;stroke-width:0.25;"/>
        </g>
        <!-- Line -->
        <path d="M0,120 L90,120 " style="stroke:#000000;stroke-width:1;"/>
        <!-- Line -->
        <path d="M90,120 L90,0 " style="stroke:#000000;stroke-width:1;"/>
        <!-- Line -->
        <path d="M180,120 L240,120 " style="stroke:#000000;stroke-width:1;"/>
        <!-- Line -->
        <path d="M270,60 L270,0 " style="stroke:#000000;stroke-width:1;"/>
        <!-- Line -->
        <path d="M240,120 L270,60 " style="stroke:#000000;stroke-width:1;"/>
    </g>
</svg>
