<svg xmlns="http://www.w3.org/2000/svg" viewBox="-0.5 -163 306 163.5" style="fill:none;stroke-linecap:round;stroke-linejoin:round"><g transform="scale(1-1)"><g style="stroke:#00f;stroke-width:.25"><g style="fill:#00f;fill-rule:evenodd"><path d="m240 150l10 1.665v-3.33"/><path d="m270 150l-10-1.665v3.33"/></g><path d="m250 160.28l2.222 2.222v-10"/><path d="m258.8 161.94c-.215.335-.591.556-1.018.556-.427 0-.803-.221-1.018-.555m.001.003c-.483-.645-.824-1.402-.975-2.223m0-4.447l-.001-.001c.153-.824.493-1.581.976-2.225m-.001.003c.215-.334.591-.555 1.018-.555.427 0 .802.221 1.018.555m-.002-.003c.483.645.824 1.402.976 2.223m-.002 0v-.005c.152.71.231 1.443.231 2.196 0 .011 0 .023 0 .034m0-.002c0 .012 0 .024 0 .036 0 .753-.08 1.487-.23 2.191m-.001-.002v.001c-.152.823-.492 1.578-.974 2.222m-3.24-4.444c0-.012 0-.024 0-.036 0-.754.079-1.488.23-2.193m.002 4.452l-.001.005c-.152-.71-.231-1.443-.231-2.196 0-.012 0-.024 0-.036"/><g style="fill:#00f;fill-rule:evenodd"><path d="m300 120l1.665-10h-3.33"/><path d="m300 60l-1.665 10h3.33"/></g><path d="m297.5 88.33v-4.444l-7.386 4.294m.002-.001c-.165.096-.356.151-.559.151-.138 0-.269-.025-.39-.07m0 0c-.959-.247-1.667-1.117-1.667-2.152 0-1.035.708-1.905 1.665-2.152"/><path d="m288.06 94.91c-.335-.215-.556-.591-.556-1.019 0-.427.221-.802.555-1.018m-.003.001c.645-.483 1.402-.824 2.223-.975m4.447.001c.825.151 1.582.492 2.226.974m-.003-.001c.334.215.555.591.555 1.018 0 .427-.221.802-.555 1.018m.003-.001c-.645.483-1.402.824-2.223.975m0-.002l.005.001c-.71.152-1.443.231-2.196.231-.011 0-.023 0-.034 0m.002 0c-.012 0-.024 0-.036 0-.753 0-1.487-.079-2.191-.23m.002-.001c-.824-.151-1.579-.491-2.223-.973m4.444-3.241c.012 0 .024 0 .036 0 .754 0 1.488.08 2.193.23m-4.452.002l-.005-.001c.71-.152 1.443-.231 2.196-.231.012 0 .024 0 .036 0"/></g><g style="stroke:#fff"><path d="m0 120h90"/><path d="m90 120v-120"/><path d="m180 120h60"/><path d="m270 60v-60"/><path d="m240 120l30-60"/></g></g></svg>
