<svg width="512" xmlns="http://www.w3.org/2000/svg" height="512">
<defs/>
<g fill="none" stroke-linejoin="round" stroke-linecap="round" transform="translate(0 464)">
<g stroke="#f00" stroke-width="14.242">
<path d="m389.0846-432.0713c-9.9907,14.5123-22.2146,27.8472-36.6168,39.4857-67.3075,54.3915-160.855,54.4919-227.6662,5.9234"/>
<path d="m73.2852-334.1531 333.1819-32.8524"/>
<path d="m179.049,16.7784c5.008-16.892 7.6965-34.7811 7.6965-53.298 0-86.5375-58.7195-159.3603-138.4883-180.7982"/>
<path d="m460.2066-187.7596c-80.0895,38.4521-139.1343,113.7502-155.165,203.9249"/>
<path d="m56.7183-290.39 183.8633,279.7923"/>
<path d="m269.5064-7.9026 186.7093-206.714"/>
</g>
<circle cx="40" cy="40" stroke="#fff" r="10" stroke-width="1.035" d="m 50,40 c 0,5.522847 -4.477153,10 -10,10 -5.522847,0 -10,-4.477153 -10,-10 0,-5.522847 4.477153,-10 10,-10 5.522847,0 10,4.477153 10,10 z" transform="matrix(13.76372 0 0 -13.76372 -279.53492 335.63682)"/>
</g>
</svg>
