<?xml version="1.0" encoding="UTF-8" standalone="no"?>
<svg
   xmlns:dc="http://purl.org/dc/elements/1.1/"
   xmlns:cc="http://creativecommons.org/ns#"
   xmlns:rdf="http://www.w3.org/1999/02/22-rdf-syntax-ns#"
   xmlns:svg="http://www.w3.org/2000/svg"
   xmlns="http://www.w3.org/2000/svg"
   xmlns:sodipodi="http://sodipodi.sourceforge.net/DTD/sodipodi-0.dtd"
   xmlns:inkscape="http://www.inkscape.org/namespaces/inkscape"
   viewBox="0 0 512 512"
   id="svg2"
   version="1.1"
   inkscape:version="0.48.2 r9819"
   width="100%"
   height="100%"
   sodipodi:docname="Circle3T.svg">
  <metadata
     id="metadata26">
    <rdf:RDF>
      <cc:Work
         rdf:about="">
        <dc:format>image/svg+xml</dc:format>
        <dc:type
           rdf:resource="http://purl.org/dc/dcmitype/StillImage" />
      </cc:Work>
    </rdf:RDF>
  </metadata>
  <sodipodi:namedview
     pagecolor="#ffffff"
     bordercolor="#666666"
     borderopacity="1"
     objecttolerance="10"
     gridtolerance="10"
     guidetolerance="10"
     inkscape:pageopacity="0"
     inkscape:pageshadow="2"
     inkscape:window-width="2001"
     inkscape:window-height="1079"
     id="namedview24"
     showgrid="false"
     inkscape:zoom="1.3037281"
     inkscape:cx="120.2355"
     inkscape:cy="256"
     inkscape:window-x="0"
     inkscape:window-y="0"
     inkscape:window-maximized="0"
     inkscape:current-layer="svg2" />
  <defs
     id="defs4" />
  <g
     fill="none"
     stroke-linejoin="round"
     stroke-linecap="round"
     transform="translate(0 464)"
     id="g6"
     style="stroke-width:16;stroke-miterlimit:4;stroke-dasharray:none">
    <g
       stroke="#f00"
       stroke-width="14.242"
       id="g8"
       style="stroke-width:16;stroke-miterlimit:4;stroke-dasharray:none">
      <path
         d="m389.0846-432.0713c-9.9907,14.5123-22.2146,27.8472-36.6168,39.4857-67.3075,54.3915-160.855,54.4919-227.6662,5.9234"
         id="path10"
         style="stroke-width:16;stroke-miterlimit:4;stroke-dasharray:none" />
      <path
         d="m73.2852-334.1531 333.1819-32.8524"
         id="path12"
         style="stroke-width:16;stroke-miterlimit:4;stroke-dasharray:none" />
      <path
         d="m179.049,16.7784c5.008-16.892 7.6965-34.7811 7.6965-53.298 0-86.5375-58.7195-159.3603-138.4883-180.7982"
         id="path14"
         style="stroke-width:16;stroke-miterlimit:4;stroke-dasharray:none" />
      <path
         d="m460.2066-187.7596c-80.0895,38.4521-139.1343,113.7502-155.165,203.9249"
         id="path16"
         style="stroke-width:16;stroke-miterlimit:4;stroke-dasharray:none" />
      <path
         d="m56.7183-290.39 183.8633,279.7923"
         id="path18"
         style="stroke-width:16;stroke-miterlimit:4;stroke-dasharray:none" />
      <path
         d="m269.5064-7.9026 186.7093-206.714"
         id="path20"
         style="stroke-width:16;stroke-miterlimit:4;stroke-dasharray:none" />
    </g>
    <circle
       cx="40"
       cy="40"
       stroke="#000"
       r="10"
       stroke-width="1.035"
       d="m 50,40 c 0,5.522847 -4.477153,10 -10,10 -5.522847,0 -10,-4.477153 -10,-10 0,-5.522847 4.477153,-10 10,-10 5.522847,0 10,4.477153 10,10 z"
       transform="matrix(13.76372 0 0 -13.76372 -279.53492 335.63682)"
       id="circle22"
       style="stroke-width:1.16247642;stroke-miterlimit:4;stroke-dasharray:none" />
  </g>
</svg>
