<svg xmlns="http://www.w3.org/2000/svg" xmlns:xlink="http://www.w3.org/1999/xlink" viewBox="0 0 512 512"><defs><linearGradient xlink:href="#3" id="4" y1="23.22" x1="33.938" y2="26.09" gradientUnits="userSpaceOnUse" x2="42.562"/><linearGradient id="3"><stop style="stop-color:#fff"/><stop offset="1" style="stop-color:#fff;stop-opacity:0"/></linearGradient><linearGradient xlink:href="#3" id="5" y1="22.75" x1="31.25" y2="44.582" gradientUnits="userSpaceOnUse" x2="49.09"/><linearGradient gradientTransform="matrix(.69315 0 0-.68479 11.47 38.638)" id="0" y1="20.91" y2="24.18" gradientUnits="userSpaceOnUse" x2="0"><stop style="stop-color:#edd400"/><stop offset="1" style="stop-color:#fff492"/></linearGradient><linearGradient id="2"><stop/><stop offset="1" style="stop-opacity:0"/></linearGradient><linearGradient gradientTransform="matrix(2.77439 0 0 1.96971-1892.18-872.89)" id="1" y1="366.65" y2="609.5" gradientUnits="userSpaceOnUse" x2="0"><stop style="stop-opacity:0"/><stop offset=".5"/><stop offset="1" style="stop-opacity:0"/></linearGradient><radialGradient cx="605.71" cy="486.65" gradientTransform="matrix(-2.77439 0 0 1.96971 112.76-872.89)" xlink:href="#2" id="B" r="117.14" gradientUnits="userSpaceOnUse"/><radialGradient cx="20.892" cy="64.57" r="5.257" id="C" gradientUnits="userSpaceOnUse" xlink:href="#A"/><radialGradient cx="605.71" cy="486.65" gradientTransform="matrix(2.77439 0 0 1.96971-1891.63-872.89)" xlink:href="#2" id="D" r="117.14" gradientUnits="userSpaceOnUse"/><radialGradient cx="20.892" cy="114.57" r="5.256" id="A" gradientUnits="userSpaceOnUse"><stop style="stop-color:#f0f0f0"/><stop offset="1" style="stop-color:#9a9a9a"/></radialGradient><radialGradient cx="9.412" cy="30.3" xlink:href="#A" id="7" r="1.207" gradientUnits="userSpaceOnUse"/><radialGradient cx="33.967" cy="35.737" gradientTransform="scale(.96049 1.04113)" id="9" r="86.71" gradientUnits="userSpaceOnUse"><stop style="stop-color:#fafafa"/><stop offset="1" style="stop-color:#bbb"/></radialGradient><radialGradient cx="8.824" cy="3.756" gradientTransform="matrix(.96827 0 0 1.03277 3.354.646)" id="6" r="37.752" gradientUnits="userSpaceOnUse"><stop style="stop-color:#a3a3a3"/><stop offset="1" style="stop-color:#4c4c4c"/></radialGradient><radialGradient cx="8.144" cy="7.268" gradientTransform="matrix(.96827 0 0 1.03277 3.354.646)" id="8" r="38.16" gradientUnits="userSpaceOnUse"><stop style="stop-color:#fff"/><stop offset="1" style="stop-color:#f8f8f8"/></radialGradient><radialGradient cx="9.412" cy="18.811" xlink:href="#C" id="E" r="1.208" gradientUnits="userSpaceOnUse"/></defs><g transform="matrix(.21187 0 0 .14539 458.32 443.84)"><path d="m-1559.25-150.7h1339.63v478.36h-1339.63z" style="fill:url(#1);opacity:.402"/><path d="m-219.62-150.68c0 0 0 478.33 0 478.33 142.87.9 345.4-107.17 345.4-239.2 0-132.03-159.44-239.13-345.4-239.13" style="fill:url(#D);opacity:.402"/><path d="m-1559.25-150.68c0 0 0 478.33 0 478.33-142.87.9-345.4-107.17-345.4-239.2 0-132.03 159.44-239.13 345.4-239.13" style="fill:url(#B);opacity:.402"/></g><g transform="matrix(9.7856 0 0 9.7856 37.469 26.14)" style="display:block;stroke-linecap:round;stroke-linejoin:round"><path d="m7.753 3.647h32.577a1.149 1.149 0 0 1 1.1491 1.149v38.622a1.149 1.149 0 0 1 -1.1491 1.149h-32.577a1.149 1.149 0 0 1 -1.1491 -1.149v-38.622a1.149 1.149 0 0 1 1.149 -1.149" style="fill:url(#9);stroke:url(#6)"/><path d="m7.815 4.584h32.478a.149 .149 0 0 1 .149 .149v38.648a.149 .149 0 0 1 -.149 .149h-32.478a.149 .149 0 0 1 -.1491 -.149v-38.648a.149 .149 0 0 1 .149 -.149" style="fill:none;stroke:url(#8)"/></g><g transform="matrix(2.24778 0 0 2.24778 92.4 67.31)" style="fill:#fff"><path d="m23.428 113.07c0 1.973-1.6 3.572-3.573 3.572-1.974 0-3.573-1.6-3.573-3.572 0-1.974 1.6-3.573 3.573-3.573 1.973 0 3.573 1.6 3.573 3.573"/><path d="m23.428 63.07c0 1.973-1.6 3.573-3.573 3.573-1.974 0-3.573-1.6-3.573-3.573 0-1.974 1.6-3.573 3.573-3.573 1.973 0 3.573 1.6 3.573 3.573"/></g><g transform="matrix(9.7856 0 0 9.7856 43.795 25.766)"><path d="m9.995 29.952c0 .453-.367.82-.821.82-.453 0-.821-.367-.821-.82 0-.453.367-.821.821-.821.453 0 .821.367.821.821" style="fill:url(#7)"/><path d="m9.995 18.467c0 .453-.367.821-.821.821-.453 0-.821-.367-.821-.821 0-.453.367-.821.821-.821.453 0 .821.367.821.821" style="fill:url(#E)"/></g><g transform="matrix(9.7856 0 0 9.7856 37.469 26.14)" style="fill:none"><path d="m11.506 5.494v37.907" style="stroke-opacity:.018;stroke:#fff;stroke-width:.989"/><path d="m12.5 5.02v38.02" style="stroke-opacity:.205;stroke:#fff"/></g><g transform="matrix(0-10.66666-10.66666 0 453.03 522.35)"><g style="display:block"><path d="m24.5 13.5l-11 10 11 10.469.031-6.469h9.375c4.645-.191 7.692 2.156 7.563 5v.125 6.813c10.22-7.05 3.633-20.08-7.563-19.969l-9.406.063v-6.03z" style="fill:url(#0);stroke:#c4a000"/><path d="m23.469 15.813l-8.469 7.688 8.469 8.06.031-4.063c0-.569.462-1.031 1.031-1.031h9.375c2.505-.103 4.602.455 6.156 1.531 1.545 1.07 2.507 2.71 2.438 4.5 0 .011.001.021 0 .031v.094 4.438c3.125-3.062 3.651-6.682 2.281-9.875-1.599-3.728-5.679-6.738-10.875-6.688l-9.406.063c-.569 0-1.031-.462-1.031-1.031v-3.719z" style="fill:#edd400;opacity:.61;stroke:url(#5)"/></g><path d="m14.06 23.625c7.333-.938 27.1.156 29.875 3.344h2c-3.208-3.104-8.354-7.24-11.938-6.969l-10.03.125.031-5.625-9.938 9.125" style="fill:url(#4);opacity:.45;fill-rule:evenodd"/></g></svg>
