<svg xmlns="http://www.w3.org/2000/svg" viewBox="0 0 512 512"><g transform="translate(-5-10)"><path d="m70.65 279.58l384-204.8" stroke-dasharray="48 48" fill="none" stroke="#fff" stroke-width="16"/><path d="M236.15599 205.17966A32 32 0 1 0 172.15599 205.17966 32 32 0 0 0 236.15599 205.17966" fill="#f00"/><g transform="matrix(25.6 0 0 25.6 4.105-1.473)" fill="#fff" fill-rule="evenodd"><path d="m5.344 5.938l-4.03 2.125.469.906 4.03-2.156-.469-.875"/><path d="m2.448 6.215l4.319-.479-2.794 3.153c.127-.874-.724-2.279-1.525-2.674" stroke-linejoin="round" stroke-width=".625"/></g><g fill="#fff"><path d="M93 280.5A26 25.5 0 1 0 41 280.5 26 25.5 0 0 0 93 280.5"/><path d="M483 71A26 26 0 1 0 431 71 26 26 0 0 0 483 71"/><path d="m97.02 496h-18.556v-118.25c-4.467 4.261-10.344 8.522-17.629 12.783-7.216 4.261-13.711 7.457-19.484 9.587v-17.938c10.378-4.88 19.45-10.79 27.22-17.732 7.766-6.941 13.264-13.677 16.495-20.21h11.959v151.75"/><path d="m506.65 298.17v17.835h-99.9c-.137-4.467.584-8.763 2.165-12.886 2.543-6.804 6.598-13.505 12.165-20.1 5.636-6.598 13.745-14.227 24.329-22.886 16.426-13.47 27.525-24.12 33.3-31.958 5.773-7.904 8.66-15.36 8.66-22.371 0-7.354-2.646-13.539-7.938-18.556-5.223-5.086-12.06-7.629-20.515-7.629-8.935 0-16.08 2.68-21.443 8.04-5.361 5.361-8.08 12.783-8.144 22.268l-19.07-1.959c1.306-14.226 6.22-25.05 14.742-32.474 8.522-7.491 19.965-11.237 34.33-11.237 14.501 0 25.979 4.02 34.432 12.06 8.453 8.04 12.68 18.01 12.68 29.896 0 6.05-1.237 11.993-3.711 17.835-2.474 5.842-6.598 11.993-12.371 18.453-5.704 6.46-15.223 15.326-28.556 26.597-11.134 9.347-18.282 15.704-21.443 19.07-3.161 3.299-5.773 6.632-7.835 10h74.12"/></g></g></svg>