<?xml version="1.0" encoding="UTF-8" standalone="no"?>
<svg
   xmlns:dc="http://purl.org/dc/elements/1.1/"
   xmlns:cc="http://creativecommons.org/ns#"
   xmlns:rdf="http://www.w3.org/1999/02/22-rdf-syntax-ns#"
   xmlns:svg="http://www.w3.org/2000/svg"
   xmlns="http://www.w3.org/2000/svg"
   xmlns:sodipodi="http://sodipodi.sourceforge.net/DTD/sodipodi-0.dtd"
   xmlns:inkscape="http://www.inkscape.org/namespaces/inkscape"
   width="512"
   height="512"
   id="svg2"
   version="1.1"
   inkscape:version="0.48.2 r9819"
   sodipodi:docname="SnapDistanceManual.svg">
  <metadata
     id="metadata34">
    <rdf:RDF>
      <cc:Work
         rdf:about="">
        <dc:format>image/svg+xml</dc:format>
        <dc:type
           rdf:resource="http://purl.org/dc/dcmitype/StillImage" />
        <dc:title />
      </cc:Work>
    </rdf:RDF>
  </metadata>
  <sodipodi:namedview
     pagecolor="#ffffff"
     bordercolor="#666666"
     borderopacity="1"
     objecttolerance="10"
     gridtolerance="10"
     guidetolerance="10"
     inkscape:pageopacity="0"
     inkscape:pageshadow="2"
     inkscape:window-width="2560"
     inkscape:window-height="1341"
     id="namedview32"
     showgrid="false"
     inkscape:zoom="1"
     inkscape:cx="320.23134"
     inkscape:cy="260.72533"
     inkscape:window-x="0"
     inkscape:window-y="0"
     inkscape:window-maximized="1"
     inkscape:current-layer="g3000" />
  <defs
     id="defs4" />
  <g
     id="g3000"
     transform="translate(-5,-10)">
    <path
       style="fill:none;stroke:#000000;stroke-width:16;stroke-miterlimit:4;stroke-dasharray:48, 48;stroke-dashoffset:0"
       inkscape:connector-curvature="0"
       id="path10"
       d="M 70.647533,279.57966 454.64754,74.77966" />
    <path
       inkscape:connector-curvature="0"
       id="path18"
       d="M 236.15599,205.17966 A 32,32 0 1 0 172.15599,205.17966 32,32 0 0 0 236.15599,205.17966 z"
       style="fill:#ff0000" />
    <g
       style="fill-rule:evenodd"
       id="g26"
       transform="matrix(25.6,0,0,25.6,4.1050185,-1.472733)">
      <path
         inkscape:connector-curvature="0"
         id="path28"
         d="M 5.3438,5.9375 1.3126,8.0625 1.7814,8.9687 5.8126,6.8125 5.3438,5.9375 z" />
      <path
         style="stroke-width:0.625;stroke-linejoin:round"
         inkscape:connector-curvature="0"
         id="path30"
         d="M 2.4478,6.2146 6.7665,5.7356 3.9728,8.8885 C 4.1,8.0142 3.2485,6.6096 2.4478,6.2146 z" />
    </g>
    <path
       inkscape:connector-curvature="0"
       id="path18-3"
       d="M 93,280.5 A 26,25.5 0 1 0 41,280.5 26,25.5 0 0 0 93,280.5 z"
       style="fill:#000000;fill-opacity:1" />
    <path
       inkscape:connector-curvature="0"
       id="path18-0"
       d="M 483,71 A 26,26 0 1 0 431,71 26,26 0 0 0 483,71 z"
       style="fill:#000000;fill-opacity:1" />
    <g
       style="font-size:211.13043213px;font-style:normal;font-variant:normal;font-weight:normal;font-stretch:normal;line-height:125%;letter-spacing:0px;word-spacing:0px;fill:#000000;fill-opacity:1;stroke:none;font-family:Arial;-inkscape-font-specification:Arial"
       id="text3096">
      <path
         d="M 97.024637,496 78.468252,496 78.468252,377.75459 C 74.000918,382.0158 68.124735,386.27689 60.839685,390.53787 53.623278,394.79907 47.128549,397.99489 41.35548,400.12534 L 41.35548,382.1875 C 51.733278,377.30798 60.805279,371.39743 68.571513,364.45584 76.337646,357.51452 81.835829,350.77925 85.066078,344.25 L 97.024637,344.25 97.024637,496"
         style=""
         id="path4946" />
    </g>
    <g
       style="font-size:211.13043213px;font-style:normal;font-variant:normal;font-weight:normal;font-stretch:normal;line-height:125%;letter-spacing:0px;word-spacing:0px;fill:#000000;fill-opacity:1;stroke:none;font-family:Arial;-inkscape-font-specification:Arial"
       id="text3100">
      <path
         d="M 506.65303,298.16525 506.65303,316 406.75782,316 C 406.62036,311.53273 407.342,307.23727 408.92274,303.11362 411.46564,296.30963 415.52055,289.60872 421.08748,283.01087 426.72309,276.41308 434.83291,268.78435 445.41696,260.12466 461.84274,246.65417 472.94219,236.00144 478.71536,228.16644 484.48838,220.26289 487.37492,212.80598 487.37501,205.79569 487.37492,198.44198 484.72892,192.25652 479.437,187.2393 474.21365,182.15361 467.37528,179.6107 458.92189,179.61057 449.98728,179.6107 442.83964,182.29107 437.47895,187.65167 432.11819,193.01252 429.40346,200.43507 429.33476,209.91933 L 410.26292,207.9606 C 411.56873,193.73416 416.48273,182.90961 425.00494,175.48692 433.5271,167.99579 444.97019,164.25015 459.33425,164.25 473.83565,164.25015 485.31311,168.2707 493.76665,176.31165 502.22002,184.35288 506.44675,194.31834 506.44685,206.20805 506.44675,212.25616 505.20965,218.20107 502.73557,224.0428 500.26129,229.88471 496.13765,236.0358 490.36465,242.49609 484.6602,248.95653 475.14147,257.82235 461.80844,269.09358 450.67455,278.44054 443.52692,284.79781 440.3655,288.16542 437.20401,291.46436 434.59237,294.79763 432.53058,298.16525 L 506.65303,298.16525"
         style=""
         id="path4943" />
    </g>
  </g>
</svg>
