<?xml version="1.0" encoding="UTF-8" standalone="no"?>
<svg
   xmlns:dc="http://purl.org/dc/elements/1.1/"
   xmlns:cc="http://creativecommons.org/ns#"
   xmlns:rdf="http://www.w3.org/1999/02/22-rdf-syntax-ns#"
   xmlns:svg="http://www.w3.org/2000/svg"
   xmlns="http://www.w3.org/2000/svg"
   xmlns:sodipodi="http://sodipodi.sourceforge.net/DTD/sodipodi-0.dtd"
   xmlns:inkscape="http://www.inkscape.org/namespaces/inkscape"
   width="512"
   height="512"
   id="svg2"
   version="1.1"
   inkscape:version="0.48.3.1 r9886"
   sodipodi:docname="SnapDistanceManual.svg">
  <metadata
     id="metadata34">
    <rdf:RDF>
      <cc:Work
         rdf:about="">
        <dc:format>image/svg+xml</dc:format>
        <dc:type
           rdf:resource="http://purl.org/dc/dcmitype/StillImage" />
        <dc:title></dc:title>
      </cc:Work>
    </rdf:RDF>
  </metadata>
  <sodipodi:namedview
     pagecolor="#ffffff"
     bordercolor="#666666"
     borderopacity="1"
     objecttolerance="10"
     gridtolerance="10"
     guidetolerance="10"
     inkscape:pageopacity="0"
     inkscape:pageshadow="2"
     inkscape:window-width="1024"
     inkscape:window-height="744"
     id="namedview32"
     showgrid="false"
     inkscape:zoom="1"
     inkscape:cx="366.23134"
     inkscape:cy="256"
     inkscape:window-x="0"
     inkscape:window-y="24"
     inkscape:window-maximized="1"
     inkscape:current-layer="svg2" />
  <defs
     id="defs4" />
  <g
     id="g3000"
     transform="translate(-5,-10)">
    <path
       style="fill:none;stroke:#000000;stroke-width:16;stroke-miterlimit:4;stroke-dasharray:48, 48;stroke-dashoffset:0"
       inkscape:connector-curvature="0"
       id="path10"
       d="m 67.647533,330.57966 384.000007,-204.8" />
    <path
       inkscape:connector-curvature="0"
       id="path18"
       d="m 233.15599,256.17966 a 32,32 0 1 0 -64,0 32,32 0 0 0 64,0 z"
       style="fill:#ff0000" />
    <g
       style="fill-rule:evenodd"
       id="g26"
       transform="matrix(25.6,0,0,25.6,1.1050185,49.527267)">
      <path
         inkscape:connector-curvature="0"
         id="path28"
         d="M 5.3438,5.9375 1.3126,8.0625 1.7814,8.9687 5.8126,6.8125 5.3438,5.9375 z" />
      <path
         style="stroke-width:0.625;stroke-linejoin:round"
         inkscape:connector-curvature="0"
         id="path30"
         d="M 2.4478,6.2146 6.7665,5.7356 3.9728,8.8885 C 4.1,8.0142 3.2485,6.6096 2.4478,6.2146 z" />
    </g>
    <path
       d="m 64.84571,418.80941 12.89062,0 0,-44.49218 -14.02344,2.8125 0,-7.1875 13.94532,-2.8125 7.89062,0 0,51.67968 12.89062,0 0,6.64064 -33.59374,0 0,-6.64064"
       style="font-size:40px;font-style:normal;font-weight:normal;line-height:125%;letter-spacing:0px;word-spacing:0px;fill:#000000;fill-opacity:1;stroke:none;font-family:Sans"
       id="path2997"
       inkscape:connector-curvature="0" />
    <path
       inkscape:connector-curvature="0"
       id="path18-3"
       d="m 90,331.5 a 26,25.5 0 1 0 -52,0 26,25.5 0 0 0 52,0 z"
       style="fill:#000000;fill-opacity:1" />
    <path
       inkscape:connector-curvature="0"
       id="path18-0"
       d="m 480,122 a 26,26 0 1 0 -52,0 26,26 0 0 0 52,0 z"
       style="fill:#000000;fill-opacity:1" />
    <path
       d="m 463.16406,206.07308 27.53906,0 0,6.64064 -37.03124,0 0,-6.64064 c 2.99478,-3.09894 7.0703,-7.25258 12.22656,-12.46092 5.18226,-5.23436 8.43748,-8.60676 9.76562,-10.1172 2.52602,-2.8385 4.28382,-5.23434 5.27344,-7.1875 1.0156,-1.97912 1.5234,-3.91922 1.52344,-5.8203 -4e-5,-3.09892 -1.09378,-5.62496 -3.28126,-7.57814 -2.16148,-1.95306 -4.987,-2.92962 -8.47656,-2.92968 -2.47398,6e-5 -5.09116,0.42974 -7.85156,1.28906 -2.73438,0.85942 -5.66406,2.1615 -8.78906,3.90626 l 0,-7.96876 c 3.17708,-1.27598 6.14582,-2.23952 8.90624,-2.89062 2.7604,-0.65098 5.28644,-0.9765 7.57814,-0.97656 6.04164,6e-5 10.85934,1.51046 14.45312,4.53124 3.5937,3.02088 5.39058,7.05734 5.39062,12.10938 -4e-5,2.39588 -0.45576,4.67452 -1.36718,6.83594 -0.88546,2.13544 -2.51306,4.66148 -4.88282,7.57812 -0.65108,0.75524 -2.72138,2.94274 -6.21094,6.5625 -3.4896,3.59376 -8.41148,8.63282 -14.76562,15.11718"
       style="font-size:40px;font-style:normal;font-weight:normal;line-height:125%;letter-spacing:0px;word-spacing:0px;fill:#000000;fill-opacity:1;stroke:none;font-family:Sans"
       id="path3000"
       inkscape:connector-curvature="0" />
  </g>
</svg>
