999
dxflib 2.0.4.8
  0
SECTION
  2
HEADER
  9
$ACADVER
  1
AC1015
  9
$HANDSEED
  5
FFFF
  9
$DIMEXE
 40
1.25
  9
$PSVPSCALE
 40
0.5
  9
$DIMLUNIT
 70
2
  9
$INSUNITS
 70
4
  9
$DIMADEC
 70
2
  9
$DIMASZ
 40
2.5
  9
$DIMGAP
 40
1.0
  9
$DIMTXT
 40
2.5
  9
$DIMEXO
 40
0.625
  9
$LUPREC
 70
4
  9
$PINSBASE
 10
30.366865529309969
 20
149.3826855141044518
 30
0.0
  9
$DIMAUNIT
 70
0
  9
$AUPREC
 70
2
  9
$PLIMMIN
 10
0.0
 20
0.0
  9
$LUNITS
 70
2
  9
$PLIMMAX
 10
297.0
 20
210.0
  9
$DIMSTYLE
  2
Standard
  9
$AUNITS
 70
0
  0
ENDSEC
  0
SECTION
  2
TABLES
  0
TABLE
  2
VPORT
  5
8
100
AcDbSymbolTable
 70
1
  0
VPORT
  5
30
100
AcDbSymbolTableRecord
100
AcDbViewportTableRecord
  2
*Active
 70
0
 10
0.0
 20
0.0
 11
1.0
 21
1.0
 12
286.3055555555554861
 22
148.5
 13
0.0
 23
0.0
 14
10.0
 24
10.0
 15
10.0
 25
10.0
 16
0.0
 26
0.0
 36
1.0
 17
0.0
 27
0.0
 37
0.0
 40
297.0
 41
1.92798353909465
 42
50.0
 43
0.0
 44
0.0
 50
0.0
 51
0.0
 71
0
 72
100
 73
1
 74
3
 75
1
 76
1
 77
0
 78
0
281
0
 65
1
110
0.0
120
0.0
130
0.0
111
1.0
121
0.0
131
0.0
112
0.0
122
1.0
132
0.0
 79
0
146
0.0
  0
ENDTAB
  0
TABLE
  2
LTYPE
  5
5
100
AcDbSymbolTable
 70
21
  0
LTYPE
  5
14
100
AcDbSymbolTableRecord
100
AcDbLinetypeTableRecord
  2
ByBlock
 70
0
  3

 72
65
 73
0
 40
0.0
  0
LTYPE
  5
15
100
AcDbSymbolTableRecord
100
AcDbLinetypeTableRecord
  2
ByLayer
 70
0
  3

 72
65
 73
0
 40
0.0
  0
LTYPE
  5
16
100
AcDbSymbolTableRecord
100
AcDbLinetypeTableRecord
  2
CONTINUOUS
 70
0
  3
Solid line
 72
65
 73
0
 40
0.0
  0
LTYPE
  5
31
100
AcDbSymbolTableRecord
100
AcDbLinetypeTableRecord
  2
DOT
 70
0
  3
Dot . . . . . . . . . . . . . . . . . . . . . .
 72
65
 73
2
 40
6.3499999999999996
 49
0.0
 74
0
 49
-6.3499999999999996
 74
0
  0
LTYPE
  5
32
100
AcDbSymbolTableRecord
100
AcDbLinetypeTableRecord
  2
DOT2
 70
0
  3
Dot (.5x) .....................................
 72
65
 73
2
 40
3.1749999999999998
 49
0.0
 74
0
 49
-3.1749999999999998
 74
0
  0
LTYPE
  5
33
100
AcDbSymbolTableRecord
100
AcDbLinetypeTableRecord
  2
DOTX2
 70
0
  3
Dot (2x) .  .  .  .  .  .  .  .  .  .  .  .  .
 72
65
 73
2
 40
12.6999999999999993
 49
0.0
 74
0
 49
-12.6999999999999993
 74
0
  0
LTYPE
  5
34
100
AcDbSymbolTableRecord
100
AcDbLinetypeTableRecord
  2
DASHED
 70
0
  3
Dashed __ __ __ __ __ __ __ __ __ __ __ __ __ _
 72
65
 73
2
 40
19.0500000000000007
 49
12.6999999999999993
 74
0
 49
-6.3499999999999996
 74
0
  0
LTYPE
  5
35
100
AcDbSymbolTableRecord
100
AcDbLinetypeTableRecord
  2
DASHED2
 70
0
  3
Dashed (.5x) _ _ _ _ _ _ _ _ _ _ _ _ _ _ _ _ _
 72
65
 73
2
 40
9.5250000000000004
 49
6.3499999999999996
 74
0
 49
-3.1749999999999998
 74
0
  0
LTYPE
  5
36
100
AcDbSymbolTableRecord
100
AcDbLinetypeTableRecord
  2
DASHEDX2
 70
0
  3
Dashed (2x) ____  ____  ____  ____  ____  ___
 72
65
 73
2
 40
38.1000000000000014
 49
25.3999999999999986
 74
0
 49
-12.6999999999999993
 74
0
  0
LTYPE
  5
37
100
AcDbSymbolTableRecord
100
AcDbLinetypeTableRecord
  2
DASHDOT
 70
0
  3
Dash dot __ . __ . __ . __ . __ . __ . __ . __
 72
65
 73
4
 40
25.3999999999999986
 49
12.6999999999999993
 74
0
 49
-6.3499999999999996
 74
0
 49
0.0
 74
0
 49
-6.3499999999999996
 74
0
  0
LTYPE
  5
38
100
AcDbSymbolTableRecord
100
AcDbLinetypeTableRecord
  2
DASHDOT2
 70
0
  3
Dash dot (.5x) _._._._._._._._._._._._._._._.
 72
65
 73
4
 40
12.6999999999999993
 49
6.3499999999999996
 74
0
 49
-3.1749999999999998
 74
0
 49
0.0
 74
0
 49
-3.1749999999999998
 74
0
  0
LTYPE
  5
39
100
AcDbSymbolTableRecord
100
AcDbLinetypeTableRecord
  2
DASHDOTX2
 70
0
  3
Dash dot (2x) ____  .  ____  .  ____  .  ___
 72
65
 73
4
 40
50.7999999999999972
 49
25.3999999999999986
 74
0
 49
-12.6999999999999993
 74
0
 49
0.0
 74
0
 49
-12.6999999999999993
 74
0
  0
LTYPE
  5
3A
100
AcDbSymbolTableRecord
100
AcDbLinetypeTableRecord
  2
DIVIDE
 70
0
  3
Divide ____ . . ____ . . ____ . . ____ . . ____
 72
65
 73
6
 40
31.75
 49
12.6999999999999993
 74
0
 49
-6.3499999999999996
 74
0
 49
0.0
 74
0
 49
-6.3499999999999996
 74
0
 49
0.0
 74
0
 49
-6.3499999999999996
 74
0
  0
LTYPE
  5
3B
100
AcDbSymbolTableRecord
100
AcDbLinetypeTableRecord
  2
DIVIDE2
 70
0
  3
Divide (.5x) __..__..__..__..__..__..__..__.._
 72
65
 73
6
 40
15.875
 49
6.3499999999999996
 74
0
 49
-3.1749999999999998
 74
0
 49
0.0
 74
0
 49
-3.1749999999999998
 74
0
 49
0.0
 74
0
 49
-3.1749999999999998
 74
0
  0
LTYPE
  5
3C
100
AcDbSymbolTableRecord
100
AcDbLinetypeTableRecord
  2
DIVIDEX2
 70
0
  3
Divide (2x) ________  .  .  ________  .  .  _
 72
65
 73
6
 40
63.5
 49
25.3999999999999986
 74
0
 49
-12.6999999999999993
 74
0
 49
0.0
 74
0
 49
-12.6999999999999993
 74
0
 49
0.0
 74
0
 49
-12.6999999999999993
 74
0
  0
LTYPE
  5
3D
100
AcDbSymbolTableRecord
100
AcDbLinetypeTableRecord
  2
CENTER
 70
0
  3
Center ____ _ ____ _ ____ _ ____ _ ____ _ ____
 72
65
 73
4
 40
50.7999999999999972
 49
31.75
 74
0
 49
-6.3499999999999996
 74
0
 49
6.3499999999999996
 74
0
 49
-6.3499999999999996
 74
0
  0
LTYPE
  5
3E
100
AcDbSymbolTableRecord
100
AcDbLinetypeTableRecord
  2
CENTER2
 70
0
  3
Center (.5x) ___ _ ___ _ ___ _ ___ _ ___ _ ___
 72
65
 73
4
 40
28.5749999999999993
 49
19.0500000000000007
 74
0
 49
-3.1749999999999998
 74
0
 49
3.1749999999999998
 74
0
 49
-3.1749999999999998
 74
0
  0
LTYPE
  5
3F
100
AcDbSymbolTableRecord
100
AcDbLinetypeTableRecord
  2
CENTERX2
 70
0
  3
Center (2x) ________  __  ________  __  _____
 72
65
 73
4
 40
101.5999999999999943
 49
63.5
 74
0
 49
-12.6999999999999993
 74
0
 49
12.6999999999999993
 74
0
 49
-12.6999999999999993
 74
0
  0
LTYPE
  5
40
100
AcDbSymbolTableRecord
100
AcDbLinetypeTableRecord
  2
BORDER
 70
0
  3
Border __ __ . __ __ . __ __ . __ __ . __ __ .
 72
65
 73
6
 40
44.4500000000000028
 49
12.6999999999999993
 74
0
 49
-6.3499999999999996
 74
0
 49
12.6999999999999993
 74
0
 49
-6.3499999999999996
 74
0
 49
0.0
 74
0
 49
-6.3499999999999996
 74
0
  0
LTYPE
  5
41
100
AcDbSymbolTableRecord
100
AcDbLinetypeTableRecord
  2
BORDER2
 70
0
  3
Border (.5x) __.__.__.__.__.__.__.__.__.__.__.
 72
65
 73
6
 40
22.2250000000000014
 49
6.3499999999999996
 74
0
 49
-3.1749999999999998
 74
0
 49
6.3499999999999996
 74
0
 49
-3.1749999999999998
 74
0
 49
0.0
 74
0
 49
-3.1749999999999998
 74
0
  0
LTYPE
  5
42
100
AcDbSymbolTableRecord
100
AcDbLinetypeTableRecord
  2
BORDERX2
 70
0
  3
Border (2x) ____  ____  .  ____  ____  .  ___
 72
65
 73
6
 40
88.9000000000000057
 49
25.3999999999999986
 74
0
 49
-12.6999999999999993
 74
0
 49
25.3999999999999986
 74
0
 49
-12.6999999999999993
 74
0
 49
0.0
 74
0
 49
-12.6999999999999993
 74
0
  0
ENDTAB
  0
TABLE
  2
LAYER
  5
2
100
AcDbSymbolTable
 70
7
  0
LAYER
  5
10
100
AcDbSymbolTableRecord
100
AcDbLayerTableRecord
  2
0
 70
0
 62
7
  6
CONTINUOUS
370
0
390
F
  0
LAYER
  5
43
100
AcDbSymbolTableRecord
100
AcDbLayerTableRecord
  2
contour
 70
0
 62
7
  6
CONTINUOUS
370
35
390
F
  0
LAYER
  5
44
100
AcDbSymbolTableRecord
100
AcDbLayerTableRecord
  2
construction
 70
1
 62
2
  6
CONTINUOUS
370
0
390
F
  0
LAYER
  5
45
100
AcDbSymbolTableRecord
100
AcDbLayerTableRecord
  2
hatch
 70
0
 62
3
  6
CONTINUOUS
370
13
390
F
  0
LAYER
  5
46
100
AcDbSymbolTableRecord
100
AcDbLayerTableRecord
  2
hatch_border
 70
0
 62
7
  6
CONTINUOUS
370
0
390
F
  0
LAYER
  5
47
100
AcDbSymbolTableRecord
100
AcDbLayerTableRecord
  2
axes
 70
0
 62
1
  6
DASHDOT
370
18
390
F
  0
LAYER
  5
48
100
AcDbSymbolTableRecord
100
AcDbLayerTableRecord
  2
dim
 70
0
 62
7
  6
CONTINUOUS
370
13
390
F
  0
ENDTAB
  0
TABLE
  2
STYLE
  5
3
100
AcDbSymbolTable
 70
1
  0
STYLE
  5
11
100
AcDbSymbolTableRecord
100
AcDbTextStyleTableRecord
  2
Standard
 70
0
 40
0.0
 41
0.75
 50
0.0
 71
0
 42
2.5
  3
txt
  4

  0
ENDTAB
  0
TABLE
  2
VIEW
  5
6
100
AcDbSymbolTable
 70
0
  0
ENDTAB
  0
TABLE
  2
UCS
  5
7
100
AcDbSymbolTable
 70
0
  0
ENDTAB
  0
TABLE
  2
APPID
  5
9
100
AcDbSymbolTable
 70
1
  0
APPID
  5
12
100
AcDbSymbolTableRecord
100
AcDbRegAppTableRecord
  2
ACAD
 70
0
  0
ENDTAB
  0
TABLE
  2
DIMSTYLE
  5
A
100
AcDbSymbolTable
 70
1
100
AcDbDimStyleTable
 71
0
  0
DIMSTYLE
105
27
100
AcDbSymbolTableRecord
100
AcDbDimStyleTableRecord
  2
Standard
 41
2.5
 42
0.625
 43
3.75
 44
1.25
 70
0
 73
0
 74
0
 77
1
 78
8
140
2.5
141
2.5
143
0.03937007874016
147
1.0
171
3
172
1
271
2
272
2
274
3
278
44
283
0
284
8
340
11
  0
ENDTAB
  0
TABLE
  2
BLOCK_RECORD
  5
1
100
AcDbSymbolTable
 70
1
  0
BLOCK_RECORD
  5
1F
100
AcDbSymbolTableRecord
100
AcDbBlockTableRecord
  2
*Model_Space
340
22
  0
BLOCK_RECORD
  5
1B
100
AcDbSymbolTableRecord
100
AcDbBlockTableRecord
  2
*Paper_Space
340
1E
  0
BLOCK_RECORD
  5
23
100
AcDbSymbolTableRecord
100
AcDbBlockTableRecord
  2
*Paper_Space0
340
26
  0
BLOCK_RECORD
  5
49
100
AcDbSymbolTableRecord
100
AcDbBlockTableRecord
  2
dim_a_label
340
0
  0
BLOCK_RECORD
  5
4A
100
AcDbSymbolTableRecord
100
AcDbBlockTableRecord
  2
dim_a_ref
340
0
  0
BLOCK_RECORD
  5
4B
100
AcDbSymbolTableRecord
100
AcDbBlockTableRecord
  2
dim_sur_N6
340
0
  0
ENDTAB
  0
ENDSEC
  0
SECTION
  2
BLOCKS
  0
BLOCK
  5
20
100
AcDbEntity
  8
0
100
AcDbBlockBegin
  2
*Model_Space
 70
0
 10
0.0
 20
0.0
 30
0.0
  3
*Model_Space
  1

  0
ENDBLK
  5
21
100
AcDbEntity
  8
0
100
AcDbBlockEnd
  0
BLOCK
  5
1C
100
AcDbEntity
 67
1
  8
0
100
AcDbBlockBegin
  2
*Paper_Space
 70
0
 10
0.0
 20
0.0
 30
0.0
  3
*Paper_Space
  1

  0
ENDBLK
  5
1D
100
AcDbEntity
 67
1
  8
0
100
AcDbBlockEnd
  0
BLOCK
  5
24
100
AcDbEntity
  8
0
100
AcDbBlockBegin
  2
*Paper_Space0
 70
0
 10
0.0
 20
0.0
 30
0.0
  3
*Paper_Space0
  1

  0
ENDBLK
  5
25
100
AcDbEntity
  8
0
100
AcDbBlockEnd
  0
BLOCK
  5
4C
100
AcDbEntity
  8
0
100
AcDbBlockBegin
  2
dim_a_label
 70
0
 10
0.0
 20
0.0
 30
0.0
  3
dim_a_label
  1

  0
HATCH
  5
4D
  8
dim
 62
256
370
-1
  6
ByLayer
100
AcDbEntity
100
AcDbHatch
 10
0.0
 20
0.0
 30
0.0
210
0.0
220
0.0
230
1.0
  2
SOLID
 70
1
 71
0
 91
1
 92
1
 93
3
 72
1
 10
-2.0
 20
0.0
 11
0.0
 21
-2.0
 72
1
 10
0.0
 20
-2.0
 11
2.0
 21
0.0
 72
1
 10
2.0
 20
0.0
 11
-2.0
 21
0.0
 97
0
 75
0
 76
1
 98
0
  0
LINE
  5
4E
100
AcDbEntity
100
AcDbLine
  8
dim
 62
256
370
-1
  6
ByLayer
 10
0.0
 20
-2.0
 30
0.0
 11
0.0
 21
-7.0
 31
0.0
  0
LINE
  5
4F
100
AcDbEntity
100
AcDbLine
  8
dim
 62
256
370
-1
  6
ByLayer
 10
-3.5
 20
-7.0
 30
0.0
 11
3.5
 21
-7.0
 31
0.0
  0
LINE
  5
50
100
AcDbEntity
100
AcDbLine
  8
dim
 62
256
370
-1
  6
ByLayer
 10
3.5
 20
-7.0
 30
0.0
 11
3.5
 21
-14.0
 31
0.0
  0
LINE
  5
51
100
AcDbEntity
100
AcDbLine
  8
dim
 62
256
370
-1
  6
ByLayer
 10
-3.5
 20
-14.0
 30
0.0
 11
-3.5
 21
-7.0
 31
0.0
  0
LINE
  5
52
100
AcDbEntity
100
AcDbLine
  8
dim
 62
256
370
-1
  6
ByLayer
 10
3.5
 20
-14.0
 30
0.0
 11
-3.5
 21
-14.0
 31
0.0
  0
LINE
  5
53
100
AcDbEntity
100
AcDbLine
  8
dim
 62
256
370
-1
  6
ByLayer
 10
-2.0
 20
0.0
 30
0.0
 11
0.0
 21
-2.0
 31
0.0
  0
LINE
  5
54
100
AcDbEntity
100
AcDbLine
  8
dim
 62
256
370
-1
  6
ByLayer
 10
0.0
 20
-2.0
 30
0.0
 11
2.0
 21
0.0
 31
0.0
  0
LINE
  5
55
100
AcDbEntity
100
AcDbLine
  8
dim
 62
256
370
-1
  6
ByLayer
 10
2.0
 20
0.0
 30
0.0
 11
-2.0
 21
0.0
 31
0.0
  0
MTEXT
  5
56
100
AcDbEntity
100
AcDbMText
  8
dim
 62
256
370
-1
  6
ByLayer
 10
0.0
 20
-10.5
 30
0.0
 40
3.0
 41
100.0
 71
5
 72
2
  1
A
  7
standard
 50
0.0
 73
1
 44
1.0
  0
ENDBLK
  5
57
100
AcDbEntity
  8
0
100
AcDbBlockEnd
  0
BLOCK
  5
58
100
AcDbEntity
  8
0
100
AcDbBlockBegin
  2
dim_a_ref
 70
0
 10
0.0
 20
0.0
 30
0.0
  3
dim_a_ref
  1

  0
LINE
  5
59
100
AcDbEntity
100
AcDbLine
  8
dim
 62
256
370
-1
  6
ByLayer
 10
0.0
 20
0.0
 30
0.0
 11
0.0
 21
7.0
 31
0.0
  0
LINE
  5
5A
100
AcDbEntity
100
AcDbLine
  8
dim
 62
256
370
-1
  6
ByLayer
 10
7.0
 20
0.0
 30
0.0
 11
7.0
 21
7.0
 31
0.0
  0
LINE
  5
5B
100
AcDbEntity
100
AcDbLine
  8
dim
 62
256
370
-1
  6
ByLayer
 10
1.0
 20
3.5
 30
0.0
 11
6.0
 21
3.5
 31
0.0
  0
LINE
  5
5C
100
AcDbEntity
100
AcDbLine
  8
dim
 62
256
370
-1
  6
ByLayer
 10
5.0
 20
4.5
 30
0.0
 11
2.0
 21
4.5
 31
0.0
  0
LINE
  5
5D
100
AcDbEntity
100
AcDbLine
  8
dim
 62
256
370
-1
  6
ByLayer
 10
5.0
 20
2.5
 30
0.0
 11
2.0
 21
2.5
 31
0.0
  0
LINE
  5
5E
100
AcDbEntity
100
AcDbLine
  8
dim
 62
256
370
-1
  6
ByLayer
 10
0.0
 20
7.0
 30
0.0
 11
27.0
 21
7.0
 31
0.0
  0
LINE
  5
5F
100
AcDbEntity
100
AcDbLine
  8
dim
 62
256
370
-1
  6
ByLayer
 10
27.0
 20
7.0
 30
0.0
 11
27.0
 21
0.0
 31
0.0
  0
LINE
  5
60
100
AcDbEntity
100
AcDbLine
  8
dim
 62
256
370
-1
  6
ByLayer
 10
27.0
 20
0.0
 30
0.0
 11
0.0
 21
0.0
 31
0.0
  0
LINE
  5
61
100
AcDbEntity
100
AcDbLine
  8
dim
 62
256
370
-1
  6
ByLayer
 10
20.0
 20
0.0
 30
0.0
 11
20.0
 21
7.0
 31
0.0
  0
MTEXT
  5
62
100
AcDbEntity
100
AcDbMText
  8
dim
 62
256
370
-1
  6
ByLayer
 10
9.0
 20
3.5
 30
0.0
 40
3.0
 41
100.0
 71
4
 72
2
  1
0.05
  7
standard
 50
0.0
 73
0
 44
1.0
  0
MTEXT
  5
63
100
AcDbEntity
100
AcDbMText
  8
dim
 62
256
370
-1
  6
ByLayer
 10
23.5
 20
3.5
 30
0.0
 40
3.0
 41
100.0
 71
5
 72
2
  1
A
  7
standard
 50
0.0
 73
0
 44
1.0
  0
ENDBLK
  5
64
100
AcDbEntity
  8
0
100
AcDbBlockEnd
  0
BLOCK
  5
65
100
AcDbEntity
  8
0
100
AcDbBlockBegin
  2
dim_sur_N6
 70
0
 10
0.0
 20
0.0
 30
0.0
  3
dim_sur_N6
  1

  0
LINE
  5
66
100
AcDbEntity
100
AcDbLine
  8
dim
 62
256
370
-1
  6
ByLayer
 10
1.5000000000000018
 20
2.5980762113533178
 30
0.0
 11
-1.4999999999999982
 21
2.5980762113533178
 31
0.0
  0
LINE
  5
67
100
AcDbEntity
100
AcDbLine
  8
dim
 62
256
370
-1
  6
ByLayer
 10
-1.4999999999999982
 20
2.5980762113533178
 30
0.0
 11
0.0
 21
0.0
 31
0.0
  0
LINE
  5
68
100
AcDbEntity
100
AcDbLine
  8
dim
 62
256
370
-1
  6
ByLayer
 10
0.0
 20
0.0
 30
0.0
 11
3.2320508075688839
 21
5.5980762113533178
 31
0.0
  0
MTEXT
  5
69
100
AcDbEntity
100
AcDbMText
  8
dim
 62
256
370
-1
  6
ByLayer
 10
-1.8993504070086065
 20
3.0553248459497944
 30
0.0
 40
2.5
 41
100.0
 71
7
 72
2
  1
N6
  7
standard
 50
0.0
 73
0
 44
1.0
  0
ENDBLK
  5
6A
100
AcDbEntity
  8
0
100
AcDbBlockEnd
  0
ENDSEC
  0
SECTION
  2
ENTITIES
  0
HATCH
  5
6B
  8
hatch
 62
256
370
-1
  6
ByLayer
100
AcDbEntity
100
AcDbHatch
 10
0.0
 20
0.0
 30
0.0
210
0.0
220
0.0
230
1.0
  2
ANSI31
 70
0
 71
0
 91
1
 92
1
 93
15
 72
1
 10
0.0
 20
20.7999999999999972
 11
0.0
 21
35.0
 72
1
 10
0.0
 20
35.0
 11
17.9977241156702874
 21
35.0
 72
1
 10
17.9977241156702874
 20
35.0
 11
25.8113451636454094
 21
42.8136210479751185
 72
1
 10
25.8113451636454094
 20
42.8136210479751185
 11
37.8911273449548247
 21
32.2994238540639671
 72
1
 10
37.8911273449548247
 20
32.2994238540639671
 11
37.0
 21
31.4082965091091459
 72
1
 10
37.0
 20
31.4082965091091459
 11
37.0
 21
20.7999999999999972
 72
1
 10
37.0
 20
20.7999999999999972
 11
0.0
 21
20.7999999999999972
 72
1
 10
0.0
 20
-19.0
 11
1.5
 21
-17.5
 72
1
 10
1.5
 20
-17.5
 11
37.0
 21
-17.5
 72
1
 10
37.0
 20
-17.5
 11
37.0
 21
-31.4082965091091424
 72
1
 10
37.0
 20
-31.4082965091091424
 11
37.8911273449548318
 21
-32.2994238540639742
 72
1
 10
37.8911273449548318
 20
-32.2994238540639742
 11
25.811345163645413
 21
-42.8136210479751185
 72
1
 10
25.811345163645413
 20
-42.8136210479751185
 11
17.9977241156702874
 21
-35.0
 72
1
 10
17.9977241156702874
 20
-35.0
 11
-0.0
 21
-35.0
 72
1
 10
-0.0
 20
-35.0
 11
0.0
 21
-19.0
 97
0
 75
0
 76
1
 52
0.0
 41
1.0
 77
0
 78
1
 53
45.0
 43
0.0
 44
0.0
 45
-0.0883883476483184
 46
0.0883883476483185
 79
0
 98
0
  0
LINE
  5
6C
100
AcDbEntity
100
AcDbLine
  8
contour
 62
256
370
-1
  6
ByLayer
 10
0.0
 20
35.0
 30
0.0
 11
0.0
 21
-35.0
 31
0.0
  0
LINE
  5
6D
100
AcDbEntity
100
AcDbLine
  8
construction
 62
256
370
-1
  6
ByLayer
 10
75.0
 20
34.9999999999999787
 30
0.0
 11
75.0
 21
-35.0000000000000213
 31
0.0
  0
LINE
  5
6E
100
AcDbEntity
100
AcDbLine
  8
construction
 62
256
370
-1
  6
ByLayer
 10
75.0
 20
0.0
 30
0.0
 11
8.7628351335151677
 21
74.9175412733900856
 31
0.0
  0
LINE
  5
6F
100
AcDbEntity
100
AcDbLine
  8
construction
 62
256
370
-1
  6
ByLayer
 10
0.000000000000003
 20
48.8299999999999983
 30
0.0
 11
120.0
 21
48.8299999999999983
 31
0.0
  0
LINE
  5
70
100
AcDbEntity
100
AcDbLine
  8
construction
 62
256
370
-1
  6
ByLayer
 10
0.0000000000000023
 20
36.8200000000000003
 30
0.0
 11
120.0
 21
36.8200000000000003
 31
0.0
  0
LINE
  5
71
100
AcDbEntity
100
AcDbLine
  8
construction
 62
256
370
-1
  6
ByLayer
 10
0.0
 20
0.0
 30
0.0
 11
0.0000000000000061
 21
100.0
 31
0.0
  0
LINE
  5
72
100
AcDbEntity
100
AcDbLine
  8
construction
 62
256
370
-1
  6
ByLayer
 10
31.8299999999999983
 20
-0.0000000000000078
 30
0.0
 11
31.8300000000000054
 21
99.9999999999999858
 31
0.0
  0
LINE
  5
73
100
AcDbEntity
100
AcDbLine
  8
construction
 62
256
370
-1
  6
ByLayer
 10
42.4299999999999997
 20
-0.0000000000000104
 30
0.0
 11
42.4300000000000068
 21
99.9999999999999858
 31
0.0
  0
LINE
  5
74
100
AcDbEntity
100
AcDbLine
  8
contour
 62
256
370
-1
  6
ByLayer
 10
31.8277241156702928
 20
48.8299999999999983
 30
0.0
 11
42.4299999999999997
 21
36.8382965091091421
 31
0.0
  0
LINE
  5
75
100
AcDbEntity
100
AcDbLine
  8
contour
 62
256
370
-1
  6
ByLayer
 10
31.8277241156702928
 20
48.8299999999999983
 30
0.0
 11
17.9977241156702874
 21
35.0
 31
0.0
  0
LINE
  5
76
100
AcDbEntity
100
AcDbLine
  8
contour
 62
256
370
-1
  6
ByLayer
 10
42.4299999999999997
 20
36.8382965091091421
 30
0.0
 11
37.0
 21
31.4082965091091459
 31
0.0
  0
LINE
  5
77
100
AcDbEntity
100
AcDbLine
  8
contour
 62
256
370
-1
  6
ByLayer
 10
0.0000000000000021
 20
35.0
 30
0.0
 11
17.9977241156702874
 21
35.0
 31
0.0
  0
LINE
  5
78
100
AcDbEntity
100
AcDbLine
  8
contour
 62
256
370
-1
  6
ByLayer
 10
0.0
 20
20.7999999999999972
 30
0.0
 11
37.0
 21
20.7999999999999972
 31
0.0
  0
LINE
  5
79
100
AcDbEntity
100
AcDbLine
  8
contour
 62
256
370
-1
  6
ByLayer
 10
37.0
 20
16.7705098312484431
 30
0.0
 11
1.5
 21
16.7705098312484466
 31
0.0
  0
LINE
  5
7A
100
AcDbEntity
100
AcDbLine
  8
contour
 62
256
370
-1
  6
ByLayer
 10
-0.0000000000000003
 20
-19.0
 30
0.0
 11
1.5
 21
-17.5
 31
0.0
  0
LINE
  5
7B
100
AcDbEntity
100
AcDbLine
  8
contour
 62
256
370
-1
  6
ByLayer
 10
0.0000000000000003
 20
18.2705098312484466
 30
0.0
 11
1.5
 21
16.7705098312484466
 31
0.0
  0
LINE
  5
7C
100
AcDbEntity
100
AcDbLine
  8
contour
 62
256
370
-1
  6
ByLayer
 10
1.5
 20
16.7705098312484466
 30
0.0
 11
1.5
 21
-17.5
 31
0.0
  0
LINE
  5
7D
100
AcDbEntity
100
AcDbLine
  8
contour
 62
256
370
-1
  6
ByLayer
 10
1.5
 20
-17.5
 30
0.0
 11
37.0
 21
-17.5
 31
0.0
  0
LINE
  5
7E
100
AcDbEntity
100
AcDbLine
  8
contour
 62
256
370
-1
  6
ByLayer
 10
37.8911273449548247
 20
32.2994238540639671
 30
0.0
 11
25.8113451636454094
 21
42.8136210479751185
 31
0.0
  0
LINE
  5
7F
100
AcDbEntity
100
AcDbLine
  8
contour
 62
256
370
-1
  6
ByLayer
 10
31.8277241156702928
 20
-48.8299999999999912
 30
0.0
 11
42.4299999999999997
 21
-36.8382965091091421
 31
0.0
  0
LINE
  5
80
100
AcDbEntity
100
AcDbLine
  8
contour
 62
256
370
-1
  6
ByLayer
 10
31.8277241156702928
 20
-48.8299999999999912
 30
0.0
 11
17.9977241156702874
 21
-35.0
 31
0.0
  0
LINE
  5
81
100
AcDbEntity
100
AcDbLine
  8
contour
 62
256
370
-1
  6
ByLayer
 10
42.4299999999999997
 20
-36.8382965091091421
 30
0.0
 11
37.0
 21
-31.4082965091091424
 31
0.0
  0
LINE
  5
82
100
AcDbEntity
100
AcDbLine
  8
contour
 62
256
370
-1
  6
ByLayer
 10
0.0000000000000021
 20
-35.0
 30
0.0
 11
17.9977241156702874
 21
-35.0
 31
0.0
  0
LINE
  5
83
100
AcDbEntity
100
AcDbLine
  8
contour
 62
256
370
-1
  6
ByLayer
 10
37.8911273449548247
 20
-32.2994238540639813
 30
0.0
 11
25.8113451636454094
 21
-42.8136210479751185
 31
0.0
  0
LINE
  5
84
100
AcDbEntity
100
AcDbLine
  8
contour
 62
256
370
-1
  6
ByLayer
 10
37.0
 20
31.4082965091091459
 30
0.0
 11
37.0
 21
-31.4082965091091388
 31
0.0
  0
LINE
  5
85
100
AcDbEntity
100
AcDbLine
  8
contour
 62
256
370
-1
  6
ByLayer
 10
42.4299999999999997
 20
36.8382965091091421
 30
0.0
 11
42.4299999999999997
 21
-36.838296509109135
 31
0.0
  0
LINE
  5
86
100
AcDbEntity
100
AcDbLine
  8
hatch_border
 62
256
370
-1
  6
ByLayer
 10
0.0
 20
20.7999999999999972
 30
0.0
 11
0.0
 21
35.0
 31
0.0
  0
LINE
  5
87
100
AcDbEntity
100
AcDbLine
  8
hatch_border
 62
256
370
-1
  6
ByLayer
 10
0.0
 20
35.0
 30
0.0
 11
17.9977241156702874
 21
35.0
 31
0.0
  0
LINE
  5
88
100
AcDbEntity
100
AcDbLine
  8
hatch_border
 62
256
370
-1
  6
ByLayer
 10
17.9977241156702874
 20
35.0
 30
0.0
 11
25.8113451636454094
 21
42.8136210479751185
 31
0.0
  0
LINE
  5
89
100
AcDbEntity
100
AcDbLine
  8
hatch_border
 62
256
370
-1
  6
ByLayer
 10
25.8113451636454094
 20
42.8136210479751185
 30
0.0
 11
37.8911273449548247
 21
32.2994238540639671
 31
0.0
  0
LINE
  5
8A
100
AcDbEntity
100
AcDbLine
  8
hatch_border
 62
256
370
-1
  6
ByLayer
 10
37.8911273449548247
 20
32.2994238540639671
 30
0.0
 11
37.0
 21
31.4082965091091459
 31
0.0
  0
LINE
  5
8B
100
AcDbEntity
100
AcDbLine
  8
hatch_border
 62
256
370
-1
  6
ByLayer
 10
37.0
 20
31.4082965091091459
 30
0.0
 11
37.0
 21
20.7999999999999972
 31
0.0
  0
LINE
  5
8C
100
AcDbEntity
100
AcDbLine
  8
hatch_border
 62
256
370
-1
  6
ByLayer
 10
37.0
 20
20.7999999999999972
 30
0.0
 11
0.0
 21
20.7999999999999972
 31
0.0
  0
LINE
  5
8D
100
AcDbEntity
100
AcDbLine
  8
hatch_border
 62
256
370
-1
  6
ByLayer
 10
0.0
 20
-19.0
 30
0.0
 11
1.5
 21
-17.5
 31
0.0
  0
LINE
  5
8E
100
AcDbEntity
100
AcDbLine
  8
hatch_border
 62
256
370
-1
  6
ByLayer
 10
1.5
 20
-17.5
 30
0.0
 11
37.0
 21
-17.5
 31
0.0
  0
LINE
  5
8F
100
AcDbEntity
100
AcDbLine
  8
hatch_border
 62
256
370
-1
  6
ByLayer
 10
37.0
 20
-17.5
 30
0.0
 11
37.0
 21
-31.4082965091091424
 31
0.0
  0
LINE
  5
90
100
AcDbEntity
100
AcDbLine
  8
hatch_border
 62
256
370
-1
  6
ByLayer
 10
37.0
 20
-31.4082965091091424
 30
0.0
 11
37.8911273449548318
 21
-32.2994238540639742
 31
0.0
  0
LINE
  5
91
100
AcDbEntity
100
AcDbLine
  8
hatch_border
 62
256
370
-1
  6
ByLayer
 10
37.8911273449548318
 20
-32.2994238540639742
 30
0.0
 11
25.811345163645413
 21
-42.8136210479751185
 31
0.0
  0
LINE
  5
92
100
AcDbEntity
100
AcDbLine
  8
hatch_border
 62
256
370
-1
  6
ByLayer
 10
25.811345163645413
 20
-42.8136210479751185
 30
0.0
 11
17.9977241156702874
 21
-35.0
 31
0.0
  0
LINE
  5
93
100
AcDbEntity
100
AcDbLine
  8
hatch_border
 62
256
370
-1
  6
ByLayer
 10
17.9977241156702874
 20
-35.0
 30
0.0
 11
-0.0
 21
-35.0
 31
0.0
  0
LINE
  5
94
100
AcDbEntity
100
AcDbLine
  8
hatch_border
 62
256
370
-1
  6
ByLayer
 10
-0.0
 20
-35.0
 30
0.0
 11
0.0
 21
-19.0
 31
0.0
  0
DIMENSION
  5
95
100
AcDbEntity
  8
dim
 62
256
370
-1
  6
ByLayer
100
AcDbDimension
 10
-30.0
 20
35.0000000000000071
 30
0.0
 11
-32.25
 21
0.0000000000000038
 31
0.0
 70
0
 71
5
 72
0
 41
1.0
 42
0.0
  1
%%c<>
  3
Standard
100
AcDbAlignedDimension
 13
0.0
 23
-35.0
 33
0.0
 14
0.0
 24
35.0
 34
0.0
 50
90.0
100
AcDbRotatedDimension
  0
LINE
  5
96
100
AcDbEntity
100
AcDbLine
  8
dim
 62
256
370
-1
  6
ByLayer
 10
1.5
 20
-17.5
 30
0.0
 11
-20.0
 21
-17.5
 31
0.0
  0
LEADER
  5
97
  8
dim
 62
256
370
-1
  6
ByLayer
100
AcDbEntity
100
AcDbLeader
  3
Standard
 71
1
 72
0
 73
3
 74
0
 75
0
 40
1.0
 41
10.0
 76
2
 10
-17.0616113744075797
 20
-17.5
 10
-17.0616113744075797
 20
2.1327014218009475
  0
DIMENSION
  5
98
100
AcDbEntity
  8
dim
 62
256
370
-1
  6
ByLayer
100
AcDbDimension
 10
17.9977241156702874
 20
-60.0
 30
0.0
 11
8.9988620578351437
 21
-57.75
 31
0.0
 70
0
 71
5
 72
0
 41
1.0
 42
0.0
  1
(18)
  3
Standard
100
AcDbAlignedDimension
 13
0.0
 23
-35.0
 33
0.0
 14
17.9977241156702874
 24
-35.0
 34
0.0
 50
0.0
100
AcDbRotatedDimension
  0
DIMENSION
  5
99
100
AcDbEntity
  8
dim
 62
256
370
-1
  6
ByLayer
100
AcDbDimension
 10
31.8277241156702928
 20
-48.8299999999999912
 30
0.0
 11
0.0
 21
0.0
 31
0.0
 70
2
 71
5
 72
0
 41
1.0
 42
0.0
  1

  3
Standard
100
AcDb2LineAngularDimension
 13
17.9977241156702874
 23
-35.625
 33
0.0
 14
17.9977241156702874
 24
-61.25
 34
0.0
 15
17.9977241156702874
 25
-35.0
 35
0.0
 16
17.9977241156702874
 26
-60.0
 36
0.0
  0
LINE
  5
9A
100
AcDbEntity
100
AcDbLine
  8
axes
 62
256
370
-1
  6
ByLayer
 10
74.9999999999998863
 20
-0.0000000000001357
 30
0.0
 11
26.7304564751419278
 21
-47.8962542157719895
 31
0.0
  0
DIMENSION
  5
9B
100
AcDbEntity
  8
dim
 62
256
370
-1
  6
ByLayer
100
AcDbDimension
 10
58.8274545235369075
 20
-53.3812307964195298
 30
0.0
 11
51.5722312393762436
 21
-57.4106457153773491
 31
0.0
 70
1
 71
5
 72
0
 41
1.0
 42
0.0
  1
16
  3
Standard
100
AcDbAlignedDimension
 13
28.8202982294986114
 23
-45.8225741138283098
 33
0.0
 14
40.1611397394232483
 24
-34.5694362485323907
 34
0.0
  0
DIMENSION
  5
9C
100
AcDbEntity
  8
dim
 62
256
370
-1
  6
ByLayer
100
AcDbDimension
 10
37.0
 20
-70.0
 30
0.0
 11
18.5
 21
-67.75
 31
0.0
 70
0
 71
5
 72
0
 41
1.0
 42
0.0
  1

  3
Standard
100
AcDbAlignedDimension
 13
0.0
 23
-35.0
 33
0.0
 14
37.0
 24
-31.4082965091091388
 34
0.0
 50
0.0
100
AcDbRotatedDimension
  0
DIMENSION
  5
9D
100
AcDbEntity
  8
dim
 62
256
370
-1
  6
ByLayer
100
AcDbDimension
 10
90.0
 20
-48.8299999999999983
 30
0.0
 11
87.75
 21
0.0000000000000038
 31
0.0
 70
0
 71
5
 72
0
 41
1.0
 42
0.0
  1
%%c<>\~h11
  3
Standard
100
AcDbAlignedDimension
 13
31.8277241156702928
 23
48.8299999999999983
 33
0.0
 14
31.8277241156702928
 24
-48.8299999999999912
 34
0.0
 50
90.0
100
AcDbRotatedDimension
  0
DIMENSION
  5
9E
100
AcDbEntity
  8
dim
 62
256
370
-1
  6
ByLayer
100
AcDbDimension
 10
1.5000000000000002
 20
7.6074464454976312
 30
0.0
 11
0.75
 21
9.8574464454976312
 31
0.0
 70
0
 71
5
 72
0
 41
1.0
 42
0.0
  1
1.5x45%%d
  3
Standard
100
AcDbAlignedDimension
 13
0.0
 23
5.6167127962085317
 33
0.0
 14
1.5
 24
5.5456151658767787
 34
0.0
 50
0.0
100
AcDbRotatedDimension
  0
DIMENSION
  5
9F
100
AcDbEntity
  8
dim
 62
256
370
-1
  6
ByLayer
100
AcDbDimension
 10
79.9999999999999858
 20
-36.8382965091091421
 30
0.0
 11
77.7499999999999858
 21
0.0000000000000038
 31
0.0
 70
0
 71
5
 72
0
 41
1.0
 42
0.0
  1
%%c73.64
  3
Standard
100
AcDbAlignedDimension
 13
42.4299999999999997
 23
36.8382965091091421
 33
0.0
 14
42.4299999999999997
 24
-36.838296509109135
 34
0.0
 50
90.0
100
AcDbRotatedDimension
  0
MTEXT
  5
A0
100
AcDbEntity
100
AcDbMText
  8
dim
 62
256
370
-1
  6
ByLayer
 10
-21.0900473933649266
 20
-10.6635071090047369
 30
0.0
 40
2.5
 41
100.0
 71
1
 72
2
  1
\U+00f835\~H6
  7
normal
 50
90.0
 73
0
 44
1.0
  0
DIMENSION
  5
A1
100
AcDbEntity
  8
dim
 62
256
370
-1
  6
ByLayer
100
AcDbDimension
 10
42.4299999999999997
 20
80.0
 30
0.0
 11
21.2149999999999999
 21
82.25
 31
0.0
 70
0
 71
5
 72
0
 41
1.0
 42
0.0
  1

  3
Standard
100
AcDbAlignedDimension
 13
0.0
 23
35.0
 33
0.0
 14
42.4299999999999997
 24
36.8382965091091421
 34
0.0
 50
0.0
100
AcDbRotatedDimension
  0
INSERT
  5
A2
100
AcDbEntity
100
AcDbBlockReference
  8
dim
 62
256
370
-1
  6
ByLayer
  2
dim_a_label
 10
-17.0616113744075797
 20
-17.5
 30
0.0
 44
20.0
 45
20.0
  0
LINE
  5
A3
100
AcDbEntity
100
AcDbLine
  8
contour
 62
256
370
-1
  6
ByLayer
 10
135.0
 20
20.7999999999999972
 30
0.0
 11
135.0
 21
16.7705098312484253
 31
0.0
  0
LINE
  5
A4
100
AcDbEntity
100
AcDbLine
  8
contour
 62
256
370
-1
  6
ByLayer
 10
145.0
 20
20.7999999999999972
 30
0.0
 11
145.0
 21
16.7705098312484253
 31
0.0
  0
LINE
  5
A5
100
AcDbEntity
100
AcDbLine
  8
contour
 62
256
370
-1
  6
ByLayer
 10
135.0
 20
20.7999999999999972
 30
0.0
 11
145.0
 21
20.7999999999999972
 31
0.0
  0
LINE
  5
A6
100
AcDbEntity
100
AcDbLine
  8
axes
 62
256
370
-1
  6
ByLayer
 10
-10.0
 20
0.0
 30
0.0
 11
170.0
 21
0.0
 31
0.0
  0
LINE
  5
A7
100
AcDbEntity
100
AcDbLine
  8
axes
 62
256
370
-1
  6
ByLayer
 10
140.0
 20
30.0
 30
0.0
 11
140.0
 21
-30.0
 31
0.0
  0
LINE
  5
A8
100
AcDbEntity
100
AcDbLine
  8
dim
 62
256
370
-1
  6
ByLayer
 10
145.0
 20
40.0
 30
0.0
 11
150.0
 21
40.0
 31
0.0
  0
INSERT
  5
A9
100
AcDbEntity
100
AcDbBlockReference
  8
0
 62
256
370
-1
  6
ByLayer
  2
dim_a_ref
 10
150.0
 20
36.5
 30
0.0
 44
20.0
 45
20.0
  0
INSERT
  5
AA
100
AcDbEntity
100
AcDbBlockReference
  8
dim
 62
256
370
-1
  6
ByLayer
  2
dim_sur_N6
 10
17.7318238993710686
 20
-17.5
 30
0.0
 44
20.0
 45
20.0
  0
INSERT
  5
AB
100
AcDbEntity
100
AcDbBlockReference
  8
dim
 62
256
370
-1
  6
ByLayer
  2
dim_sur_N6
 10
0.0
 20
26.4654088050314478
 30
0.0
 50
90.0
 44
20.0
 45
20.0
  0
LINE
  5
AC
100
AcDbEntity
100
AcDbLine
  8
axes
 62
256
370
-1
  6
ByLayer
 10
74.9999999999998863
 20
0.0000000000000135
 30
0.0
 11
24.6103147154217723
 21
50.0
 31
0.0
  0
INSERT
  5
AD
100
AcDbEntity
100
AcDbBlockReference
  8
axes
 62
256
370
-1
  6
ByLayer
  2
dim_sur_N6
 10
20.6430188679245283
 20
50.0
 30
0.0
 44
20.0
 45
20.0
  0
LINE
  5
AE
100
AcDbEntity
100
AcDbLine
  8
axes
 62
256
370
-1
  6
ByLayer
 10
24.6103147154217723
 20
50.0
 30
0.0
 11
18.0
 21
50.0
 31
0.0
  0
DIMENSION
  5
AF
100
AcDbEntity
  8
dim
 62
256
370
-1
  6
ByLayer
100
AcDbDimension
 10
110.0
 20
-17.4999999999999964
 30
0.0
 11
107.75
 21
1.6500000000000006
 31
0.0
 70
0
 71
5
 72
0
 41
1.0
 42
0.0
  1
<>\S+0.2^0;
  3
Standard
100
AcDbAlignedDimension
 13
135.0
 23
20.7999999999999972
 33
0.0
 14
140.0
 24
-17.5
 34
0.0
 50
90.0
100
AcDbRotatedDimension
  0
DIMENSION
  5
B0
100
AcDbEntity
  8
dim
 62
256
370
-1
  6
ByLayer
100
AcDbDimension
 10
31.8277241156702928
 20
70.0
 30
0.0
 11
15.9138620578351464
 21
72.25
 31
0.0
 70
0
 71
5
 72
0
 41
1.0
 42
0.0
  1
31.83%%p0.1
  3
Standard
100
AcDbAlignedDimension
 13
0.0000000000000021
 23
35.0
 33
0.0
 14
31.8277241156702928
 24
48.8299999999999983
 34
0.0
 50
0.0
100
AcDbRotatedDimension
  0
ARC
  5
B1
100
AcDbEntity
  8
contour
 62
256
370
-1
  6
ByLayer
100
AcDbCircle
 10
140.0
 20
0.0
 30
0.0
 40
17.5
100
AcDbArc
 50
106.6015495990202453
 51
73.3984504009797689
  0
DIMENSION
  5
B2
100
AcDbEntity
  8
dim
 62
256
370
-1
  6
ByLayer
100
AcDbDimension
 10
150.0
 20
40.0
 30
0.0
 11
140.0
 21
42.25
 31
0.0
 70
0
 71
5
 72
0
 41
1.0
 42
0.0
  1
<>\~P9
  3
Standard
100
AcDbAlignedDimension
 13
135.0
 23
20.7999999999999972
 33
0.0
 14
145.0
 24
20.7999999999999972
 34
0.0
 50
0.0
100
AcDbRotatedDimension
  0
DIMENSION
  5
B3
100
AcDbEntity
  8
dim
 62
256
370
-1
  6
ByLayer
100
AcDbDimension
 10
75.0
 20
90.0
 30
0.0
 11
37.4999999999999432
 21
92.25
 31
0.0
 70
0
 71
5
 72
0
 41
1.0
 42
0.0
  1
<>\S0^-0.05;
  3
Standard
100
AcDbAlignedDimension
 13
0.0000000000000021
 23
35.0
 33
0.0
 14
74.9999999999998863
 24
0.0000000000000135
 34
0.0
 50
0.0
100
AcDbRotatedDimension
  0
ENDSEC
  0
SECTION
  2
OBJECTS
  0
DICTIONARY
  5
C
100
AcDbDictionary
280
0
281
1
  3
ACAD_GROUP
350
D
  3
ACAD_LAYOUT
350
1A
  3
ACAD_MLINESTYLE
350
17
  3
ACAD_PLOTSETTINGS
350
19
  3
ACAD_PLOTSTYLENAME
350
E
  3
AcDbVariableDictionary
350
B4
  0
DICTIONARY
  5
D
100
AcDbDictionary
280
0
281
1
  0
ACDBDICTIONARYWDFLT
  5
E
100
AcDbDictionary
281
1
  3
Normal
350
F
100
AcDbDictionaryWithDefault
340
F
  0
ACDBPLACEHOLDER
  5
F
  0
DICTIONARY
  5
17
100
AcDbDictionary
280
0
281
1
  3
Standard
350
18
  0
MLINESTYLE
  5
18
100
AcDbMlineStyle
  2
STANDARD
 70
0
  3

 62
256
 51
90.0
 52
90.0
 71
2
 49
0.5
 62
256
  6
BYLAYER
 49
-0.5
 62
256
  6
BYLAYER
  0
DICTIONARY
  5
19
100
AcDbDictionary
280
0
281
1
  0
DICTIONARY
  5
1A
100
AcDbDictionary
281
1
  3
Layout1
350
1E
  3
Layout2
350
26
  3
Model
350
22
  0
LAYOUT
  5
1E
100
AcDbPlotSettings
  1

  2
C:\Program Files\AutoCAD 2002\plotters\DWF ePlot (optimized for plotting).pc3
  4

  6

 40
0.0
 41
0.0
 42
0.0
 43
0.0
 44
0.0
 45
0.0
 46
0.0
 47
0.0
 48
0.0
 49
0.0
140
0.0
141
0.0
142
1.0
143
1.0
 70
688
 72
0
 73
0
 74
5
  7

 75
16
147
1.0
148
0.0
149
0.0
100
AcDbLayout
  1
Layout1
 70
1
 71
1
 10
0.0
 20
0.0
 11
420.0
 21
297.0
 12
0.0
 22
0.0
 32
0.0
 14
100000000000000000000.0
 24
100000000000000000000.0
 34
100000000000000000000.0
 15
-100000000000000000000.0
 25
-100000000000000000000.0
 35
-100000000000000000000.0
146
0.0
 13
0.0
 23
0.0
 33
0.0
 16
1.0
 26
0.0
 36
0.0
 17
0.0
 27
1.0
 37
0.0
 76
0
330
1B
  0
LAYOUT
  5
22
100
AcDbPlotSettings
  1

  2
C:\Program Files\AutoCAD 2002\plotters\DWF ePlot (optimized for plotting).pc3
  4

  6

 40
0.0
 41
0.0
 42
0.0
 43
0.0
 44
0.0
 45
0.0
 46
0.0
 47
0.0
 48
0.0
 49
0.0
140
0.0
141
0.0
142
1.0
143
1.0
 70
1712
 72
0
 73
0
 74
0
  7

 75
0
147
1.0
148
0.0
149
0.0
100
AcDbLayout
  1
Model
 70
1
 71
0
 10
0.0
 20
0.0
 11
12.0
 21
9.0
 12
0.0
 22
0.0
 32
0.0
 14
0.0
 24
0.0
 34
0.0
 15
0.0
 25
0.0
 35
0.0
146
0.0
 13
0.0
 23
0.0
 33
0.0
 16
1.0
 26
0.0
 36
0.0
 17
0.0
 27
1.0
 37
0.0
 76
0
330
1F
  0
LAYOUT
  5
26
100
AcDbPlotSettings
  1

  2
C:\Program Files\AutoCAD 2002\plotters\DWF ePlot (optimized for plotting).pc3
  4

  6

 40
0.0
 41
0.0
 42
0.0
 43
0.0
 44
0.0
 45
0.0
 46
0.0
 47
0.0
 48
0.0
 49
0.0
140
0.0
141
0.0
142
1.0
143
1.0
 70
688
 72
0
 73
0
 74
5
  7

 75
16
147
1.0
148
0.0
149
0.0
100
AcDbLayout
  1
Layout2
 70
1
 71
2
 10
0.0
 20
0.0
 11
12.0
 21
9.0
 12
0.0
 22
0.0
 32
0.0
 14
0.0
 24
0.0
 34
0.0
 15
0.0
 25
0.0
 35
0.0
146
0.0
 13
0.0
 23
0.0
 33
0.0
 16
1.0
 26
0.0
 36
0.0
 17
0.0
 27
1.0
 37
0.0
 76
0
330
23
  0
DICTIONARY
  5
B4
100
AcDbDictionary
281
1
  3
DIMASSOC
350
B6
  3
HIDETEXT
350
B5
  0
DICTIONARYVAR
  5
B5
100
DictionaryVariables
280
0
  1
2
  0
DICTIONARYVAR
  5
B6
100
DictionaryVariables
280
0
  1
1
  0
ENDSEC
  0
EOF
