999
dxflib 2.0.1.4
  0
SECTION
  2
HEADER
  9
$ACADVER
  1
AC1015
  9
$HANDSEED
  5
FFFF
  0
ENDSEC
  9
$DIMASZ
 40
2.5
  9
$DIMADEC
 70
2
  9
$DIMGAP
 40
0.625
  9
$AUPREC
 70
2
  9
$LUNITS
 70
2
  9
$DIMEXO
 40
0.625
  9
$INSUNITS
 70
4
  9
$DIMLUNIT
 70
2
  9
$DIMTXT
 40
2.5
  9
$LUPREC
 70
4
  9
$PSVPSCALE
 10
1.0
 20
0.0
 30
0.0
  9
$DIMSTYLE
  2
Standard
  9
$PLIMMAX
 10
297.0
 20
210.0
 30
0.0
  9
$PLIMMIN
 10
0.0
 20
0.0
 30
0.0
  9
$PINSBASE
 10
261.2665837479269157
 20
52.0
 30
0.0
  9
$DIMEXE
 40
1.25
  9
$DIMAUNIT
 70
0
  9
$AUNITS
 70
0
  0
ENDSEC
  0
SECTION
  2
TABLES
  0
TABLE
  2
VPORT
  5
8
100
AcDbSymbolTable
 70
1
  0
VPORT
  5
30
100
AcDbSymbolTableRecord
100
AcDbViewportTableRecord
  2
*Active
 70
0
 10
0.0
 20
0.0
 11
1.0
 21
1.0
 12
286.3055555555554861
 22
148.5
 13
0.0
 23
0.0
 14
10.0
 24
10.0
 15
10.0
 25
10.0
 16
0.0
 26
0.0
 36
1.0
 17
0.0
 27
0.0
 37
0.0
 40
297.0
 41
1.92798353909465
 42
50.0
 43
0.0
 44
0.0
 50
0.0
 51
0.0
 71
0
 72
100
 73
1
 74
3
 75
1
 76
1
 77
0
 78
0
281
0
 65
1
110
0.0
120
0.0
130
0.0
111
1.0
121
0.0
131
0.0
112
0.0
122
1.0
132
0.0
 79
0
146
0.0
  0
ENDTAB
  0
TABLE
  2
LTYPE
  5
5
100
AcDbSymbolTable
 70
3
  0
LTYPE
  5
14
100
AcDbSymbolTableRecord
100
AcDbLinetypeTableRecord
  2
ByBlock
 70
0
  3

 72
65
 73
0
 40
0.0
  0
LTYPE
  5
15
100
AcDbSymbolTableRecord
100
AcDbLinetypeTableRecord
  2
ByLayer
 70
0
  3

 72
65
 73
0
 40
0.0
  0
LTYPE
  5
16
100
AcDbSymbolTableRecord
100
AcDbLinetypeTableRecord
  2
CONTINUOUS
 70
0
  3
Solid line
 72
65
 73
0
 40
0.0
  0
LTYPE
  5
31
100
AcDbSymbolTableRecord
100
AcDbLinetypeTableRecord
  2
DOT
 70
0
  0
LTYPE
  5
32
100
AcDbSymbolTableRecord
100
AcDbLinetypeTableRecord
  2
DOT2
 70
0
  0
LTYPE
  5
33
100
AcDbSymbolTableRecord
100
AcDbLinetypeTableRecord
  2
DOTX2
 70
0
  0
LTYPE
  5
34
100
AcDbSymbolTableRecord
100
AcDbLinetypeTableRecord
  2
DASHED
 70
0
  0
LTYPE
  5
35
100
AcDbSymbolTableRecord
100
AcDbLinetypeTableRecord
  2
DASHED2
 70
0
  0
LTYPE
  5
36
100
AcDbSymbolTableRecord
100
AcDbLinetypeTableRecord
  2
DASHEDX2
 70
0
  0
LTYPE
  5
37
100
AcDbSymbolTableRecord
100
AcDbLinetypeTableRecord
  2
DASHDOT
 70
0
  0
LTYPE
  5
38
100
AcDbSymbolTableRecord
100
AcDbLinetypeTableRecord
  2
DASHDOT2
 70
0
  0
LTYPE
  5
39
100
AcDbSymbolTableRecord
100
AcDbLinetypeTableRecord
  2
DASHDOTX2
 70
0
  0
LTYPE
  5
3A
100
AcDbSymbolTableRecord
100
AcDbLinetypeTableRecord
  2
DIVIDE
 70
0
  0
LTYPE
  5
3B
100
AcDbSymbolTableRecord
100
AcDbLinetypeTableRecord
  2
DIVIDE2
 70
0
  0
LTYPE
  5
3C
100
AcDbSymbolTableRecord
100
AcDbLinetypeTableRecord
  2
DIVIDEX2
 70
0
  0
LTYPE
  5
3D
100
AcDbSymbolTableRecord
100
AcDbLinetypeTableRecord
  2
CENTER
 70
0
  0
LTYPE
  5
3E
100
AcDbSymbolTableRecord
100
AcDbLinetypeTableRecord
  2
CENTER2
 70
0
  0
LTYPE
  5
3F
100
AcDbSymbolTableRecord
100
AcDbLinetypeTableRecord
  2
CENTERX2
 70
0
  0
LTYPE
  5
40
100
AcDbSymbolTableRecord
100
AcDbLinetypeTableRecord
  2
BORDER
 70
0
  0
LTYPE
  5
41
100
AcDbSymbolTableRecord
100
AcDbLinetypeTableRecord
  2
BORDER2
 70
0
  0
LTYPE
  5
42
100
AcDbSymbolTableRecord
100
AcDbLinetypeTableRecord
  2
BORDERX2
 70
0
  0
ENDTAB
  0
TABLE
  2
LAYER
  5
2
100
AcDbSymbolTable
 70
11
  0
LAYER
  5
10
100
AcDbSymbolTableRecord
100
AcDbLayerTableRecord
  2
0
 70
0
 62
7
  6
CONTINUOUS
370
0
390
F
  0
LAYER
  5
43
100
AcDbSymbolTableRecord
100
AcDbLayerTableRecord
  2
contour
 70
0
 62
7
  6
CONTINUOUS
370
50
390
F
  0
LAYER
  5
44
100
AcDbSymbolTableRecord
100
AcDbLayerTableRecord
  2
aux
 70
1
 62
1
  6
CONTINUOUS
370
0
390
F
  0
LAYER
  5
45
100
AcDbSymbolTableRecord
100
AcDbLayerTableRecord
  2
hatch
 70
0
 62
8
  6
CONTINUOUS
370
13
390
F
  0
LAYER
  5
46
100
AcDbSymbolTableRecord
100
AcDbLayerTableRecord
  2
hatch_border
 70
1
 62
7
  6
CONTINUOUS
370
0
390
F
  0
LAYER
  5
47
100
AcDbSymbolTableRecord
100
AcDbLayerTableRecord
  2
axes
 70
0
 62
1
  6
DASHDOT
370
18
390
F
  0
LAYER
  5
48
100
AcDbSymbolTableRecord
100
AcDbLayerTableRecord
  2
dim
 70
0
 62
7
  6
CONTINUOUS
370
18
390
F
  0
LAYER
  5
49
100
AcDbSymbolTableRecord
100
AcDbLayerTableRecord
  2
hidden
 70
0
 62
7
  6
DASHED2
370
50
390
F
  0
LAYER
  5
4A
100
AcDbSymbolTableRecord
100
AcDbLayerTableRecord
  2
thin
 70
0
 62
7
  6
CONTINUOUS
370
13
390
F
  0
LAYER
  5
4B
100
AcDbSymbolTableRecord
100
AcDbLayerTableRecord
  2
thin_hidden
 70
0
 62
7
  6
DASHED2
370
13
390
F
  0
LAYER
  5
4C
100
AcDbSymbolTableRecord
100
AcDbLayerTableRecord
  2
num
 70
0
 62
7
  6
CONTINUOUS
370
50
390
F
  0
ENDTAB
  0
TABLE
  2
STYLE
  5
3
100
AcDbSymbolTable
 70
1
  0
STYLE
  5
11
100
AcDbSymbolTableRecord
100
AcDbTextStyleTableRecord
  2
Standard
 70
0
 40
0.0
 41
1.0
 50
0.0
 71
0
 42
2.5
  3
txt
  4

  0
ENDTAB
  0
TABLE
  2
VIEW
  5
6
100
AcDbSymbolTable
 70
0
  0
ENDTAB
  0
TABLE
  2
UCS
  5
7
100
AcDbSymbolTable
 70
0
  0
ENDTAB
  0
TABLE
  2
APPID
  5
9
100
AcDbSymbolTable
 70
1
  0
APPID
  5
12
100
AcDbSymbolTableRecord
100
AcDbRegAppTableRecord
  2
ACAD
 70
0
  0
ENDTAB
  0
TABLE
  2
DIMSTYLE
  5
A
100
AcDbSymbolTable
 70
1
100
AcDbDimStyleTable
 71
0
  0
DIMSTYLE
105
27
100
AcDbSymbolTableRecord
100
AcDbDimStyleTableRecord
  2
Standard
 70
0
 41
2.5
 42
0.625
 43
3.75
 44
1.25
 73
0
 74
0
 77
1
 78
8
140
2.5
141
2.5
143
0.03937007874016
147
0.625
171
3
172
1
271
2
272
2
274
3
278
44
283
0
284
8
340
11
  0
ENDTAB
  0
TABLE
  2
BLOCK_RECORD
  5
1
100
AcDbSymbolTable
 70
1
  0
BLOCK_RECORD
  5
1F
100
AcDbSymbolTableRecord
100
AcDbBlockTableRecord
  2
*Model_Space
340
22
  0
BLOCK_RECORD
  5
1B
100
AcDbSymbolTableRecord
100
AcDbBlockTableRecord
  2
*Paper_Space
340
1E
  0
BLOCK_RECORD
  5
23
100
AcDbSymbolTableRecord
100
AcDbBlockTableRecord
  2
*Paper_Space0
340
26
  0
BLOCK_RECORD
  5
4D
330
1
100
AcDbSymbolTableRecord
100
AcDbBlockTableRecord
  2
M8x12
340
0
  0
BLOCK_RECORD
  5
4E
330
1
100
AcDbSymbolTableRecord
100
AcDbBlockTableRecord
  2
dim_sur_N6
340
0
  0
ENDTAB
  0
ENDSEC
  0
SECTION
  2
BLOCKS
  0
BLOCK
  5
20
100
AcDbEntity
  8
0
100
AcDbBlockBegin
  2
*Model_Space
 70
0
 10
0.0
 20
0.0
 30
0.0
  3
*Model_Space
  1

  0
ENDBLK
  5
21
100
AcDbEntity
  8
0
100
AcDbBlockEnd
  0
BLOCK
  5
1C
100
AcDbEntity
 67
1
  8
0
100
AcDbBlockBegin
  2
*Paper_Space
 70
0
 10
0.0
 20
0.0
 30
0.0
  3
*Paper_Space
  1

  0
ENDBLK
  5
1D
100
AcDbEntity
 67
1
  8
0
100
AcDbBlockEnd
  0
BLOCK
  5
24
100
AcDbEntity
  8
0
100
AcDbBlockBegin
  2
*Paper_Space0
 70
0
 10
0.0
 20
0.0
 30
0.0
  3
*Paper_Space0
  1

  0
ENDBLK
  5
25
100
AcDbEntity
  8
0
100
AcDbBlockEnd
  0
BLOCK
  5
4F
100
AcDbEntity
  8
0
100
AcDbBlockBegin
  2
M8x12
 70
0
 10
0.0
 20
0.0
 30
0.0
  3
M8x12
  1

  0
LINE
  5
50
100
AcDbEntity
100
AcDbLine
  8
thin_hidden
 62
256
370
-1
  6
ByLayer
 10
0.0
 20
-22.3612632160174201
 30
0.0
 11
3.25
 21
-20.0
 31
0.0
  0
LINE
  5
51
100
AcDbEntity
100
AcDbLine
  8
thin_hidden
 62
256
370
-1
  6
ByLayer
 10
-3.25
 20
-20.0
 30
0.0
 11
0.0
 21
-22.3612632160174201
 31
0.0
  0
LINE
  5
52
100
AcDbEntity
100
AcDbLine
  8
thin_hidden
 62
256
370
-1
  6
ByLayer
 10
-3.25
 20
-20.0
 30
0.0
 11
-3.25
 21
0.0
 31
0.0
  0
LINE
  5
53
100
AcDbEntity
100
AcDbLine
  8
thin_hidden
 62
256
370
-1
  6
ByLayer
 10
3.25
 20
-20.0
 30
0.0
 11
3.25
 21
0.0
 31
0.0
  0
LINE
  5
54
100
AcDbEntity
100
AcDbLine
  8
thin_hidden
 62
256
370
-1
  6
ByLayer
 10
4.0
 20
-12.0
 30
0.0
 11
4.0
 21
0.0
 31
0.0
  0
LINE
  5
55
100
AcDbEntity
100
AcDbLine
  8
thin_hidden
 62
256
370
-1
  6
ByLayer
 10
-4.0
 20
-12.0
 30
0.0
 11
-4.0
 21
0.0
 31
0.0
  0
LINE
  5
56
100
AcDbEntity
100
AcDbLine
  8
thin_hidden
 62
256
370
-1
  6
ByLayer
 10
4.0
 20
-12.0
 30
0.0
 11
-4.0
 21
-12.0
 31
0.0
  0
LINE
  5
57
100
AcDbEntity
100
AcDbLine
  8
thin_hidden
 62
256
370
-1
  6
ByLayer
 10
3.25
 20
-20.0
 30
0.0
 11
-3.25
 21
-20.0
 31
0.0
  0
LINE
  5
58
100
AcDbEntity
100
AcDbLine
  8
axes
 62
256
370
-1
  6
ByLayer
 10
0.0
 20
-24.3612632160174201
 30
0.0
 11
0.0
 21
1.9999999999999929
 31
0.0
  0
ENDBLK
  5
59
100
AcDbEntity
  8
0
100
AcDbBlockEnd
  0
BLOCK
  5
5A
100
AcDbEntity
  8
0
100
AcDbBlockBegin
  2
dim_sur_N6
 70
0
 10
0.0
 20
0.0
 30
0.0
  3
dim_sur_N6
  1

  0
LINE
  5
5B
100
AcDbEntity
100
AcDbLine
  8
dim
 62
256
370
-1
  6
ByLayer
 10
1.5000000000000018
 20
2.5980762113533178
 30
0.0
 11
-1.4999999999999982
 21
2.5980762113533178
 31
0.0
  0
LINE
  5
5C
100
AcDbEntity
100
AcDbLine
  8
dim
 62
256
370
-1
  6
ByLayer
 10
-1.4999999999999982
 20
2.5980762113533178
 30
0.0
 11
0.0
 21
0.0
 31
0.0
  0
MTEXT
  5
5D
100
AcDbEntity
100
AcDbMText
  8
dim
 62
256
370
-1
  6
ByLayer
 10
-1.8993504070086065
 20
3.0553248459497944
 30
0.0
 40
2.5
 41
100.0
 71
7
 72
2
  1
N6
  7
normal
 50
0.0
 73
1
 44
1.0
  0
LINE
  5
5E
100
AcDbEntity
100
AcDbLine
  8
dim
 62
256
370
-1
  6
ByLayer
 10
0.0
 20
0.0
 30
0.0
 11
3.2320508075688839
 21
5.5980762113533178
 31
0.0
  0
ENDBLK
  5
5F
100
AcDbEntity
  8
0
100
AcDbBlockEnd
  0
ENDSEC
  0
SECTION
  2
ENTITIES
  0
HATCH
  5
60
  8
hatch
 62
256
370
-1
  6
ByLayer
100
AcDbEntity
100
AcDbHatch
 10
0.0
 20
0.0
 30
0.0
210
0.0
220
0.0
230
1.0
  2
ANSI31
 70
0
 71
0
 91
1
 92
1
 93
12
 72
1
 10
-87.0
 20
89.0
 11
-82.5
 21
89.0
 72
1
 10
-82.5
 20
89.0
 11
-82.5
 21
73.0
 72
1
 10
-82.5
 20
73.0
 11
-85.0
 21
73.0
 72
1
 10
-85.0
 20
73.0
 11
-85.0
 21
85.0
 72
1
 10
-85.0
 20
85.0
 11
-87.0
 21
85.0
 72
1
 10
-87.0
 20
85.0
 11
-87.0
 21
89.0
 72
1
 10
-77.5
 20
89.0
 11
-77.5
 21
73.0
 72
1
 10
-77.5
 20
73.0
 11
-75.0
 21
73.0
 72
1
 10
-75.0
 20
73.0
 11
-75.0
 21
85.0
 72
1
 10
-75.0
 20
85.0
 11
-73.0
 21
85.0
 72
1
 10
-73.0
 20
85.0
 11
-73.0
 21
89.0
 72
1
 10
-73.0
 20
89.0
 11
-77.5
 21
89.0
 97
0
 75
0
 76
1
 52
1.5707963267948966
 41
1.0
 77
0
 78
1
 53
45.0
 43
0.0
 44
0.0
 45
-0.0883883476483184
 46
0.0883883476483185
 79
0
 98
0
  0
HATCH
  5
61
  8
hatch
 62
256
370
-1
  6
ByLayer
100
AcDbEntity
100
AcDbHatch
 10
0.0
 20
0.0
 30
0.0
210
0.0
220
0.0
230
1.0
  2
ANSI31
 70
0
 71
0
 91
1
 92
1
 93
12
 72
1
 10
-85.0
 20
85.0
 11
-89.0
 21
85.0
 72
1
 10
-89.0
 20
85.0
 11
-91.0
 21
83.0
 72
1
 10
-91.0
 20
83.0
 11
-91.0
 21
71.0
 72
1
 10
-88.0
 20
68.0
 11
-85.0
 21
68.0
 72
1
 10
-74.9999880000000019
 20
85.0
 11
-69.0
 21
85.0
 72
1
 10
-63.0535213560899308
 20
84.0112348442997074
 11
-68.0
 21
84.0
 72
1
 10
-66.3829988660483536
 20
67.8671404064780575
 11
-75.0
 21
68.0
 72
1
 10
-75.0
 20
68.0
 11
-75.0
 21
85.0000119999999981
 72
2
 10
-88.0
 20
71.0
 40
3.0
 50
180.0
 51
270.0
 73
1
 72
2
 10
-68.0
 20
85.0
 40
1.0
 50
180.0
 51
270.0
 73
1
 72
1
 10
-85.0
 20
68.0
 11
-85.0
 21
85.0
 72
1
 10
-63.0535213560899308
 20
84.0112348442997074
 11
-66.3829988660483536
 21
67.8671404064780575
 97
0
 75
0
 76
1
 52
0.0
 41
2.0
 77
0
 78
1
 53
45.0
 43
0.0
 44
0.0
 45
-0.0883883476483184
 46
0.0883883476483185
 79
0
 98
0
  0
LINE
  5
62
100
AcDbEntity
100
AcDbLine
  8
contour
 62
256
370
-1
  6
ByLayer
 10
0.0
 20
0.0
 30
0.0
 11
0.0
 21
22.0
 31
0.0
  0
LINE
  5
63
100
AcDbEntity
100
AcDbLine
  8
contour
 62
256
370
-1
  6
ByLayer
 10
-258.0
 20
0.0000000000000316
 30
0.0
 11
-258.0
 21
22.000000000000032
 31
0.0
  0
LINE
  5
64
100
AcDbEntity
100
AcDbLine
  8
contour
 62
256
370
-1
  6
ByLayer
 10
-212.0
 20
0.000000000000026
 30
0.0
 11
-212.0
 21
0.0000000000000255
 31
0.0
  0
ARC
  5
65
100
AcDbEntity
  8
contour
 62
256
370
-1
  6
ByLayer
100
AcDbCircle
 10
-209.0
 20
0.0000000000000255
 30
0.0
 40
3.0
100
AcDbArc
 50
90.0
 51
180.0
  0
LINE
  5
66
100
AcDbEntity
100
AcDbLine
  8
contour
 62
256
370
-1
  6
ByLayer
 10
-55.0
 20
3.0000000000000067
 30
0.0
 11
-209.0
 21
3.0000000000000258
 31
0.0
  0
LINE
  5
67
100
AcDbEntity
100
AcDbLine
  8
contour
 62
256
370
-1
  6
ByLayer
 10
-52.0
 20
0.0000000000000064
 30
0.0
 11
-52.0
 21
0.0000000000000068
 31
0.0
  0
ARC
  5
68
100
AcDbEntity
  8
contour
 62
256
370
-1
  6
ByLayer
100
AcDbCircle
 10
-55.0
 20
0.0000000000000068
 30
0.0
 40
3.0
100
AcDbArc
 50
0.0
 51
90.0
  0
LINE
  5
69
100
AcDbEntity
100
AcDbLine
  8
contour
 62
256
370
-1
  6
ByLayer
 10
-212.0
 20
0.000000000000026
 30
0.0
 11
-258.0
 21
0.0000000000000316
 31
0.0
  0
LINE
  5
6A
100
AcDbEntity
100
AcDbLine
  8
contour
 62
256
370
-1
  6
ByLayer
 10
-36.0
 20
0.0000000000000064
 30
0.0
 11
-36.0
 21
62.0000000000000071
 31
0.0
  0
ARC
  5
6B
100
AcDbEntity
  8
contour
 62
256
370
-1
  6
ByLayer
100
AcDbCircle
 10
-33.0
 20
22.0000000000000036
 30
0.0
 40
3.0
100
AcDbArc
 50
180.0
 51
270.0
  0
LINE
  5
6C
100
AcDbEntity
100
AcDbLine
  8
contour
 62
256
370
-1
  6
ByLayer
 10
-18.0
 20
19.0000000000000036
 30
0.0
 11
-33.0
 21
19.0000000000000036
 31
0.0
  0
ARC
  5
6D
100
AcDbEntity
  8
contour
 62
256
370
-1
  6
ByLayer
100
AcDbCircle
 10
-32.75
 20
22.0000000000000036
 30
0.0
 40
3.0
100
AcDbArc
 50
270.0
 51
0.0
  0
LINE
  5
6E
100
AcDbEntity
100
AcDbLine
  8
contour
 62
256
370
-1
  6
ByLayer
 10
0.0
 20
22.0
 30
0.0
 11
-29.75
 21
22.0000000000000036
 31
0.0
  0
LINE
  5
6F
100
AcDbEntity
100
AcDbLine
  8
contour
 62
256
370
-1
  6
ByLayer
 10
-36.0
 20
62.0000000000000071
 30
0.0
 11
-61.0
 21
62.0000000000000071
 31
0.0
  0
LINE
  5
70
100
AcDbEntity
100
AcDbLine
  8
contour
 62
256
370
-1
  6
ByLayer
 10
-61.0
 20
52.0000000000000071
 30
0.0
 11
-61.0
 21
62.0000000000000071
 31
0.0
  0
LINE
  5
71
100
AcDbEntity
100
AcDbLine
  8
contour
 62
256
370
-1
  6
ByLayer
 10
-64.0
 20
49.0000000000000071
 30
0.0
 11
-64.0
 21
49.0000000000000071
 31
0.0
  0
ARC
  5
72
100
AcDbEntity
  8
contour
 62
256
370
-1
  6
ByLayer
100
AcDbCircle
 10
-64.0
 20
52.0000000000000071
 30
0.0
 40
3.0
100
AcDbArc
 50
270.0
 51
0.0
  0
LINE
  5
73
100
AcDbEntity
100
AcDbLine
  8
contour
 62
256
370
-1
  6
ByLayer
 10
-94.0
 20
22.0000000000000036
 30
0.0
 11
-94.0
 21
34.0000000000000142
 31
0.0
  0
ARC
  5
74
100
AcDbEntity
  8
contour
 62
256
370
-1
  6
ByLayer
100
AcDbCircle
 10
-97.0
 20
22.0000000000000036
 30
0.0
 40
3.0
100
AcDbArc
 50
270.0
 51
0.0
  0
LINE
  5
75
100
AcDbEntity
100
AcDbLine
  8
contour
 62
256
370
-1
  6
ByLayer
 10
0.0
 20
0.0
 30
0.0
 11
-94.0
 21
0.0000000000000116
 31
0.0
  0
LINE
  5
76
100
AcDbEntity
100
AcDbLine
  8
thin
 62
256
370
-1
  6
ByLayer
 10
-94.0
 20
18.0000000000000036
 30
0.0
 11
-94.0
 21
4.0000000000000107
 31
0.0
  0
ARC
  5
77
100
AcDbEntity
  8
contour
 62
256
370
-1
  6
ByLayer
100
AcDbCircle
 10
-97.0
 20
0.0000000000000119
 30
0.0
 40
3.0
100
AcDbArc
 50
0.0
 51
90.0
  0
ARC
  5
78
100
AcDbEntity
  8
contour
 62
256
370
-1
  6
ByLayer
100
AcDbCircle
 10
-240.0
 20
22.000000000000032
 30
0.0
 40
3.0
100
AcDbArc
 50
180.0
 51
270.0
  0
LINE
  5
79
100
AcDbEntity
100
AcDbLine
  8
axes
 62
256
370
-1
  6
ByLayer
 10
-243.0
 20
-3.999999999999972
 30
0.0
 11
-243.0
 21
26.0000000000000284
 31
0.0
  0
LINE
  5
7A
100
AcDbEntity
100
AcDbLine
  8
axes
 62
256
370
-1
  6
ByLayer
 10
-15.0
 20
-3.9999999999999982
 30
0.0
 11
-15.0
 21
26.0000000000000036
 31
0.0
  0
LINE
  5
7B
100
AcDbEntity
100
AcDbLine
  8
contour
 62
256
370
-1
  6
ByLayer
 10
-258.0
 20
22.000000000000032
 30
0.0
 11
-228.0
 21
22.000000000000032
 31
0.0
  0
CIRCLE
  5
7C
100
AcDbEntity
100
AcDbCircle
  8
contour
 62
256
370
-1
  6
ByLayer
 10
-215.0
 20
40.0000000000000284
 30
0.0
 40
6.0
  0
ARC
  5
7D
100
AcDbEntity
  8
contour
 62
256
370
-1
  6
ByLayer
100
AcDbCircle
 10
-215.0
 20
40.0000000000000284
 30
0.0
 40
11.0000000000000124
100
AcDbArc
 50
359.9999973001307012
 51
180.0000026998692988
  0
LINE
  5
7E
100
AcDbEntity
100
AcDbLine
  8
axes
 62
256
370
-1
  6
ByLayer
 10
-200.0
 20
40.0000000000000284
 30
0.0
 11
-230.0
 21
40.0000000000000284
 31
0.0
  0
LINE
  5
7F
100
AcDbEntity
100
AcDbLine
  8
axes
 62
256
370
-1
  6
ByLayer
 10
-215.0
 20
0.0000000000000211
 30
0.0
 11
-215.0
 21
55.0000000000000284
 31
0.0
  0
ARC
  5
80
100
AcDbEntity
  8
contour
 62
256
370
-1
  6
ByLayer
100
AcDbCircle
 10
-229.0
 20
22.000000000000032
 30
0.0
 40
3.0
100
AcDbArc
 50
270.0
 51
0.0
  0
ARC
  5
81
100
AcDbEntity
  8
contour
 62
256
370
-1
  6
ByLayer
100
AcDbCircle
 10
-201.0
 20
22.0000000000000178
 30
0.0
 40
3.0
100
AcDbArc
 50
180.0
 51
270.0
  0
LINE
  5
82
100
AcDbEntity
100
AcDbLine
  8
contour
 62
256
370
-1
  6
ByLayer
 10
-240.0
 20
19.000000000000032
 30
0.0
 11
-229.0
 21
19.000000000000032
 31
0.0
  0
LINE
  5
83
100
AcDbEntity
100
AcDbLine
  8
contour
 62
256
370
-1
  6
ByLayer
 10
-204.0
 20
22.0000000657730652
 30
0.0
 11
-204.0
 21
39.9999994963321015
 31
0.0
  0
LINE
  5
84
100
AcDbEntity
100
AcDbLine
  8
contour
 62
256
370
-1
  6
ByLayer
 10
-226.0
 20
22.000000000000032
 30
0.0
 11
-226.0
 21
39.9999994963321086
 31
0.0
  0
LINE
  5
85
100
AcDbEntity
100
AcDbLine
  8
contour
 62
256
370
-1
  6
ByLayer
 10
-97.0
 20
19.0000000000000036
 30
0.0
 11
-201.0
 21
19.0000000000000178
 31
0.0
  0
ARC
  5
86
100
AcDbEntity
  8
contour
 62
256
370
-1
  6
ByLayer
100
AcDbCircle
 10
-225.0
 20
22.0000000000000178
 30
0.0
 40
3.0
100
AcDbArc
 50
180.0
 51
228.189685104221212
  0
LINE
  5
87
100
AcDbEntity
100
AcDbLine
  8
hidden
 62
256
370
-1
  6
ByLayer
 10
-229.0
 20
19.000000000000032
 30
0.0
 11
-201.0
 21
19.0000000000000178
 31
0.0
  0
LINE
  5
88
100
AcDbEntity
100
AcDbLine
  8
thin
 62
256
370
-1
  6
ByLayer
 10
-226.0
 20
18.000000000000032
 30
0.0
 11
-226.0
 21
1.0000000000000391
 31
0.0
  0
ARC
  5
89
100
AcDbEntity
  8
contour
 62
256
370
-1
  6
ByLayer
100
AcDbCircle
 10
-170.0
 20
22.0000000000000142
 30
0.0
 40
3.0
100
AcDbArc
 50
270.0
 51
0.0
  0
ARC
  5
8A
100
AcDbEntity
  8
contour
 62
256
370
-1
  6
ByLayer
100
AcDbCircle
 10
-151.0
 20
22.0000000000000107
 30
0.0
 40
3.0
100
AcDbArc
 50
180.0
 51
270.0
  0
LINE
  5
8B
100
AcDbEntity
100
AcDbLine
  8
axes
 62
256
370
-1
  6
ByLayer
 10
-151.0
 20
40.0000000000000284
 30
0.0
 11
-170.0
 21
40.0000000000000284
 31
0.0
  0
ARC
  5
8C
100
AcDbEntity
  8
contour
 62
256
370
-1
  6
ByLayer
100
AcDbCircle
 10
-139.0
 20
22.0000000000000071
 30
0.0
 40
3.0
100
AcDbArc
 50
270.0
 51
0.0
  0
ARC
  5
8D
100
AcDbEntity
  8
contour
 62
256
370
-1
  6
ByLayer
100
AcDbCircle
 10
-120.0
 20
22.0000000000000036
 30
0.0
 40
3.0
100
AcDbArc
 50
180.0
 51
270.0
  0
LINE
  5
8E
100
AcDbEntity
100
AcDbLine
  8
axes
 62
256
370
-1
  6
ByLayer
 10
-120.0
 20
40.0000000000000213
 30
0.0
 11
-139.0
 21
40.0000000000000213
 31
0.0
  0
LINE
  5
8F
100
AcDbEntity
100
AcDbLine
  8
contour
 62
256
370
-1
  6
ByLayer
 10
-139.0
 20
29.0000000000000071
 30
0.0
 11
-151.0
 21
29.0000000000000107
 31
0.0
  0
LINE
  5
90
100
AcDbEntity
100
AcDbLine
  8
thin_hidden
 62
256
370
-1
  6
ByLayer
 10
-192.5
 20
3.000000000000024
 30
0.0
 11
-192.5
 21
19.0000000000000178
 31
0.0
  0
LINE
  5
91
100
AcDbEntity
100
AcDbLine
  8
thin_hidden
 62
256
370
-1
  6
ByLayer
 10
-197.5
 20
3.000000000000024
 30
0.0
 11
-197.5
 21
19.0000000000000178
 31
0.0
  0
LINE
  5
92
100
AcDbEntity
100
AcDbLine
  8
axes
 62
256
370
-1
  6
ByLayer
 10
-195.0
 20
1.000000000000024
 30
0.0
 11
-195.0
 21
21.0000000000000178
 31
0.0
  0
LINE
  5
93
100
AcDbEntity
100
AcDbLine
  8
axes
 62
256
370
-1
  6
ByLayer
 10
-79.0
 20
1.0000000000000098
 30
0.0
 11
-79.0
 21
36.0000000000000142
 31
0.0
  0
LINE
  5
94
100
AcDbEntity
100
AcDbLine
  8
thin_hidden
 62
256
370
-1
  6
ByLayer
 10
-81.5
 20
3.0000000000000102
 30
0.0
 11
-81.5
 21
34.0000000000000142
 31
0.0
  0
LINE
  5
95
100
AcDbEntity
100
AcDbLine
  8
thin_hidden
 62
256
370
-1
  6
ByLayer
 10
-76.5
 20
3.0000000000000093
 30
0.0
 11
-76.5
 21
34.0000000000000142
 31
0.0
  0
LINE
  5
96
100
AcDbEntity
100
AcDbLine
  8
thin_hidden
 62
256
370
-1
  6
ByLayer
 10
-236.0
 20
0.0000000000000262
 30
0.0
 11
-236.0
 21
22.0
 31
0.0
  0
LINE
  5
97
100
AcDbEntity
100
AcDbLine
  8
thin_hidden
 62
256
370
-1
  6
ByLayer
 10
-21.75
 20
0.0000000000000027
 30
0.0
 11
-21.75
 21
22.0
 31
0.0
  0
LINE
  5
98
100
AcDbEntity
100
AcDbLine
  8
thin_hidden
 62
256
370
-1
  6
ByLayer
 10
-123.0
 20
32.5
 30
0.0
 11
-136.0
 21
32.5
 31
0.0
  0
LINE
  5
99
100
AcDbEntity
100
AcDbLine
  8
thin_hidden
 62
256
370
-1
  6
ByLayer
 10
-154.0
 20
32.5
 30
0.0
 11
-167.0
 21
32.5
 31
0.0
  0
LINE
  5
9A
100
AcDbEntity
100
AcDbLine
  8
thin_hidden
 62
256
370
-1
  6
ByLayer
 10
-123.0
 20
47.5
 30
0.0
 11
-136.0
 21
47.5
 31
0.0
  0
LINE
  5
9B
100
AcDbEntity
100
AcDbLine
  8
thin_hidden
 62
256
370
-1
  6
ByLayer
 10
-154.0
 20
47.5
 30
0.0
 11
-167.0
 21
47.5
 31
0.0
  0
LINE
  5
9C
100
AcDbEntity
100
AcDbLine
  8
contour
 62
256
370
-1
  6
ByLayer
 10
-64.0000000000000284
 20
31.8786796564403652
 30
0.0
 11
-61.8786796564403687
 21
34.0000000000000142
 31
0.0
  0
LINE
  5
9D
100
AcDbEntity
100
AcDbLine
  8
contour
 62
256
370
-1
  6
ByLayer
 10
-66.1213203435596597
 20
34.0000000000000071
 30
0.0
 11
-64.0000000000000284
 21
31.8786796564403723
 31
0.0
  0
LINE
  5
9E
100
AcDbEntity
100
AcDbLine
  8
contour
 62
256
370
-1
  6
ByLayer
 10
-64.0
 20
36.1213203435596597
 30
0.0
 11
-61.8786796564403687
 21
34.0000000000000213
 31
0.0
  0
LINE
  5
9F
100
AcDbEntity
100
AcDbLine
  8
contour
 62
256
370
-1
  6
ByLayer
 10
-66.1213203435596597
 20
34.0000000000000071
 30
0.0
 11
-94.0
 21
34.0000000000000142
 31
0.0
  0
LINE
  5
A0
100
AcDbEntity
100
AcDbLine
  8
contour
 62
256
370
-1
  6
ByLayer
 10
-64.0
 20
36.1213203435596597
 30
0.0
 11
-64.0
 21
49.0000000000000071
 31
0.0
  0
INSERT
  5
A1
100
AcDbEntity
100
AcDbBlockReference
  8
contour
 62
256
370
-1
  6
ByLayer
  2
M8x12
 10
-48.5
 20
62.0000000000000071
 30
0.0
 44
20.0
 45
20.0
  0
LINE
  5
A2
100
AcDbEntity
100
AcDbLine
  8
contour
 62
256
370
-1
  6
ByLayer
 10
-167.0
 20
22.0000000000000142
 30
0.0
 11
-167.0
 21
51.0000000000000284
 31
0.0
  0
ARC
  5
A3
100
AcDbEntity
  8
contour
 62
256
370
-1
  6
ByLayer
100
AcDbCircle
 10
-164.0
 20
51.0000000000000284
 30
0.0
 40
3.0
100
AcDbArc
 50
90.0
 51
180.0
  0
LINE
  5
A4
100
AcDbEntity
100
AcDbLine
  8
contour
 62
256
370
-1
  6
ByLayer
 10
-154.0
 20
22.0000000000000107
 30
0.0
 11
-154.0
 21
51.0000000000000284
 31
0.0
  0
LINE
  5
A5
100
AcDbEntity
100
AcDbLine
  8
contour
 62
256
370
-1
  6
ByLayer
 10
-157.0
 20
54.0000000000000284
 30
0.0
 11
-164.0
 21
54.0000000000000284
 31
0.0
  0
ARC
  5
A6
100
AcDbEntity
  8
contour
 62
256
370
-1
  6
ByLayer
100
AcDbCircle
 10
-157.0
 20
51.0000000000000284
 30
0.0
 40
3.0
100
AcDbArc
 50
0.0
 51
90.0
  0
LINE
  5
A7
100
AcDbEntity
100
AcDbLine
  8
contour
 62
256
370
-1
  6
ByLayer
 10
-136.0
 20
22.0000000000000071
 30
0.0
 11
-136.0
 21
51.0000000000000213
 31
0.0
  0
ARC
  5
A8
100
AcDbEntity
  8
contour
 62
256
370
-1
  6
ByLayer
100
AcDbCircle
 10
-133.0
 20
51.0000000000000213
 30
0.0
 40
3.0
100
AcDbArc
 50
90.0
 51
180.0
  0
LINE
  5
A9
100
AcDbEntity
100
AcDbLine
  8
contour
 62
256
370
-1
  6
ByLayer
 10
-126.0
 20
54.0000000000000213
 30
0.0
 11
-133.0
 21
54.0000000000000213
 31
0.0
  0
LINE
  5
AA
100
AcDbEntity
100
AcDbLine
  8
contour
 62
256
370
-1
  6
ByLayer
 10
-123.0
 20
22.0000000000000036
 30
0.0
 11
-123.0
 21
51.0000000000000213
 31
0.0
  0
ARC
  5
AB
100
AcDbEntity
  8
contour
 62
256
370
-1
  6
ByLayer
100
AcDbCircle
 10
-126.0
 20
51.0000000000000213
 30
0.0
 40
3.0
100
AcDbArc
 50
0.0
 51
90.0
  0
ARC
  5
AC
100
AcDbEntity
  8
contour
 62
256
370
-1
  6
ByLayer
100
AcDbCircle
 10
-139.0
 20
32.0000000000000071
 30
0.0
 40
3.0
100
AcDbArc
 50
270.0
 51
0.0
  0
ARC
  5
AD
100
AcDbEntity
  8
contour
 62
256
370
-1
  6
ByLayer
100
AcDbCircle
 10
-151.0
 20
32.0000000000000142
 30
0.0
 40
3.0
100
AcDbArc
 50
180.0
 51
270.0
  0
ARC
  5
AE
100
AcDbEntity
  8
contour
 62
256
370
-1
  6
ByLayer
100
AcDbCircle
 10
-18.0
 20
22.0000000000000036
 30
0.0
 40
3.0
100
AcDbArc
 50
270.0
 51
360.0
  0
LINE
  5
AF
100
AcDbEntity
100
AcDbLine
  8
contour
 62
256
370
-1
  6
ByLayer
 10
-61.0
 20
62.0
 30
0.0
 11
-36.0
 21
62.0
 31
0.0
  0
LINE
  5
B0
100
AcDbEntity
100
AcDbLine
  8
contour
 62
256
370
-1
  6
ByLayer
 10
-69.0
 20
85.0
 30
0.0
 11
-69.0
 21
85.0
 31
0.0
  0
LINE
  5
B1
100
AcDbEntity
100
AcDbLine
  8
contour
 62
256
370
-1
  6
ByLayer
 10
-91.0
 20
83.0
 30
0.0
 11
-89.0
 21
85.0
 31
0.0
  0
ARC
  5
B2
100
AcDbEntity
  8
contour
 62
256
370
-1
  6
ByLayer
100
AcDbCircle
 10
-66.0
 20
63.0
 30
0.0
 40
5.0
100
AcDbArc
 50
0.0
 51
90.0
  0
LINE
  5
B3
100
AcDbEntity
100
AcDbLine
  8
contour
 62
256
370
-1
  6
ByLayer
 10
-36.0
 20
62.0
 30
0.0
 11
-36.0
 21
81.0
 31
0.0
  0
ARC
  5
B4
100
AcDbEntity
  8
contour
 62
256
370
-1
  6
ByLayer
100
AcDbCircle
 10
-39.0
 20
81.0
 30
0.0
 40
3.0
100
AcDbArc
 50
0.0
 51
90.0
  0
LINE
  5
B5
100
AcDbEntity
100
AcDbLine
  8
contour
 62
256
370
-1
  6
ByLayer
 10
-91.0
 20
83.0
 30
0.0
 11
-91.0
 21
71.0
 31
0.0
  0
ARC
  5
B6
100
AcDbEntity
  8
contour
 62
256
370
-1
  6
ByLayer
100
AcDbCircle
 10
-88.0
 20
71.0
 30
0.0
 40
3.0
100
AcDbArc
 50
180.0
 51
270.0
  0
LINE
  5
B7
100
AcDbEntity
100
AcDbLine
  8
contour
 62
256
370
-1
  6
ByLayer
 10
-39.0
 20
84.0
 30
0.0
 11
-68.0
 21
84.0
 31
0.0
  0
ARC
  5
B8
100
AcDbEntity
  8
contour
 62
256
370
-1
  6
ByLayer
100
AcDbCircle
 10
-68.0
 20
85.0
 30
0.0
 40
1.0
100
AcDbArc
 50
180.0
 51
270.0
  0
LINE
  5
B9
100
AcDbEntity
100
AcDbLine
  8
contour
 62
256
370
-1
  6
ByLayer
 10
-61.0
 20
63.0
 30
0.0
 11
-61.0
 21
62.0
 31
0.0
  0
LINE
  5
BA
100
AcDbEntity
100
AcDbLine
  8
contour
 62
256
370
-1
  6
ByLayer
 10
-88.0
 20
68.0
 30
0.0
 11
-66.0
 21
68.0
 31
0.0
  0
LINE
  5
BB
100
AcDbEntity
100
AcDbLine
  8
contour
 62
256
370
-1
  6
ByLayer
 10
-73.0
 20
89.0
 30
0.0
 11
-87.0
 21
89.0
 31
0.0
  0
LINE
  5
BC
100
AcDbEntity
100
AcDbLine
  8
contour
 62
256
370
-1
  6
ByLayer
 10
-87.0
 20
85.0
 30
0.0
 11
-87.0
 21
89.0
 31
0.0
  0
LINE
  5
BD
100
AcDbEntity
100
AcDbLine
  8
contour
 62
256
370
-1
  6
ByLayer
 10
-73.0
 20
85.0
 30
0.0
 11
-73.0
 21
89.0
 31
0.0
  0
LINE
  5
BE
100
AcDbEntity
100
AcDbLine
  8
contour
 62
256
370
-1
  6
ByLayer
 10
-77.5
 20
73.0
 30
0.0
 11
-77.5
 21
89.0
 31
0.0
  0
LINE
  5
BF
100
AcDbEntity
100
AcDbLine
  8
contour
 62
256
370
-1
  6
ByLayer
 10
-82.5
 20
73.0
 30
0.0
 11
-82.5
 21
89.0
 31
0.0
  0
LINE
  5
C0
100
AcDbEntity
100
AcDbLine
  8
contour
 62
256
370
-1
  6
ByLayer
 10
-75.0
 20
73.0
 30
0.0
 11
-85.0
 21
73.0
 31
0.0
  0
LINE
  5
C1
100
AcDbEntity
100
AcDbLine
  8
axes
 62
256
370
-1
  6
ByLayer
 10
-80.0
 20
66.0
 30
0.0
 11
-80.0
 21
91.0
 31
0.0
  0
LINE
  5
C2
100
AcDbEntity
100
AcDbLine
  8
hatch_border
 62
256
370
-1
  6
ByLayer
 10
-85.0
 20
85.0
 30
0.0
 11
-89.0
 21
85.0
 31
0.0
  0
LINE
  5
C3
100
AcDbEntity
100
AcDbLine
  8
hatch_border
 62
256
370
-1
  6
ByLayer
 10
-89.0
 20
85.0
 30
0.0
 11
-91.0
 21
83.0
 31
0.0
  0
LINE
  5
C4
100
AcDbEntity
100
AcDbLine
  8
hatch_border
 62
256
370
-1
  6
ByLayer
 10
-91.0
 20
83.0
 30
0.0
 11
-91.0
 21
71.0
 31
0.0
  0
LINE
  5
C5
100
AcDbEntity
100
AcDbLine
  8
hatch_border
 62
256
370
-1
  6
ByLayer
 10
-88.0
 20
68.0
 30
0.0
 11
-85.0
 21
68.0
 31
0.0
  0
LINE
  5
C6
100
AcDbEntity
100
AcDbLine
  8
hatch_border
 62
256
370
-1
  6
ByLayer
 10
-74.9999880000000019
 20
85.0
 30
0.0
 11
-69.0
 21
85.0
 31
0.0
  0
LINE
  5
C7
100
AcDbEntity
100
AcDbLine
  8
hatch_border
 62
256
370
-1
  6
ByLayer
 10
-63.0535213560899308
 20
84.0112348442997074
 30
0.0
 11
-68.0
 21
84.0
 31
0.0
  0
LINE
  5
C8
100
AcDbEntity
100
AcDbLine
  8
hatch_border
 62
256
370
-1
  6
ByLayer
 10
-66.3829988660483536
 20
67.8671404064780575
 30
0.0
 11
-75.0
 21
68.0
 31
0.0
  0
LINE
  5
C9
100
AcDbEntity
100
AcDbLine
  8
hatch_border
 62
256
370
-1
  6
ByLayer
 10
-75.0
 20
68.0
 30
0.0
 11
-75.0
 21
85.0000119999999981
 31
0.0
  0
ARC
  5
CA
100
AcDbEntity
  8
hatch_border
 62
256
370
-1
  6
ByLayer
100
AcDbCircle
 10
-88.0
 20
71.0
 30
0.0
 40
3.0
100
AcDbArc
 50
180.0
 51
270.0
  0
ARC
  5
CB
100
AcDbEntity
  8
hatch_border
 62
256
370
-1
  6
ByLayer
100
AcDbCircle
 10
-68.0
 20
85.0
 30
0.0
 40
1.0
100
AcDbArc
 50
180.0
 51
270.0
  0
LINE
  5
CC
100
AcDbEntity
100
AcDbLine
  8
hatch_border
 62
256
370
-1
  6
ByLayer
 10
-85.0
 20
68.0
 30
0.0
 11
-85.0
 21
85.0
 31
0.0
  0
LINE
  5
CD
100
AcDbEntity
100
AcDbLine
  8
hatch_border
 62
256
370
-1
  6
ByLayer
 10
-63.0535213560899308
 20
84.0112348442997074
 30
0.0
 11
-66.3829988660483536
 21
67.8671404064780575
 31
0.0
  0
LINE
  5
CE
100
AcDbEntity
100
AcDbLine
  8
hatch_border
 62
256
370
-1
  6
ByLayer
 10
-87.0
 20
89.0
 30
0.0
 11
-82.5
 21
89.0
 31
0.0
  0
LINE
  5
CF
100
AcDbEntity
100
AcDbLine
  8
hatch_border
 62
256
370
-1
  6
ByLayer
 10
-82.5
 20
89.0
 30
0.0
 11
-82.5
 21
73.0
 31
0.0
  0
LINE
  5
D0
100
AcDbEntity
100
AcDbLine
  8
hatch_border
 62
256
370
-1
  6
ByLayer
 10
-82.5
 20
73.0
 30
0.0
 11
-85.0
 21
73.0
 31
0.0
  0
LINE
  5
D1
100
AcDbEntity
100
AcDbLine
  8
hatch_border
 62
256
370
-1
  6
ByLayer
 10
-85.0
 20
73.0
 30
0.0
 11
-85.0
 21
85.0
 31
0.0
  0
LINE
  5
D2
100
AcDbEntity
100
AcDbLine
  8
hatch_border
 62
256
370
-1
  6
ByLayer
 10
-85.0
 20
85.0
 30
0.0
 11
-87.0
 21
85.0
 31
0.0
  0
LINE
  5
D3
100
AcDbEntity
100
AcDbLine
  8
hatch_border
 62
256
370
-1
  6
ByLayer
 10
-87.0
 20
85.0
 30
0.0
 11
-87.0
 21
89.0
 31
0.0
  0
LINE
  5
D4
100
AcDbEntity
100
AcDbLine
  8
hatch_border
 62
256
370
-1
  6
ByLayer
 10
-77.5
 20
89.0
 30
0.0
 11
-77.5
 21
73.0
 31
0.0
  0
LINE
  5
D5
100
AcDbEntity
100
AcDbLine
  8
hatch_border
 62
256
370
-1
  6
ByLayer
 10
-77.5
 20
73.0
 30
0.0
 11
-75.0
 21
73.0
 31
0.0
  0
LINE
  5
D6
100
AcDbEntity
100
AcDbLine
  8
hatch_border
 62
256
370
-1
  6
ByLayer
 10
-75.0
 20
73.0
 30
0.0
 11
-75.0
 21
85.0
 31
0.0
  0
LINE
  5
D7
100
AcDbEntity
100
AcDbLine
  8
hatch_border
 62
256
370
-1
  6
ByLayer
 10
-75.0
 20
85.0
 30
0.0
 11
-73.0
 21
85.0
 31
0.0
  0
LINE
  5
D8
100
AcDbEntity
100
AcDbLine
  8
hatch_border
 62
256
370
-1
  6
ByLayer
 10
-73.0
 20
85.0
 30
0.0
 11
-73.0
 21
89.0
 31
0.0
  0
LINE
  5
D9
100
AcDbEntity
100
AcDbLine
  8
hatch_border
 62
256
370
-1
  6
ByLayer
 10
-73.0
 20
89.0
 30
0.0
 11
-77.5
 21
89.0
 31
0.0
  0
MTEXT
  5
DA
100
AcDbEntity
100
AcDbMText
  8
num
 62
256
370
-1
  6
ByLayer
 10
10.0
 20
50.0
 30
0.0
 40
10.0
 41
100.0
 71
7
 72
2
  1
1
  7
normal
 50
0.0
 73
0
 44
1.0
  0
MTEXT
  5
DB
100
AcDbEntity
100
AcDbMText
  8
num
 62
256
370
-1
  6
ByLayer
 10
10.0
 20
80.0
 30
0.0
 40
10.0
 41
100.0
 71
7
 72
2
  1
2
  7
normal
 50
0.0
 73
0
 44
1.0
  0
LINE
  5
DC
100
AcDbEntity
100
AcDbLine
  8
thin
 62
256
370
-1
  6
ByLayer
 10
6.6767269241914278
 20
85.1900898290350597
 30
0.0
 11
-45.3770144662639581
 21
72.7021376189733246
 31
0.0
  0
LINE
  5
DD
100
AcDbEntity
100
AcDbLine
  8
thin
 62
256
370
-1
  6
ByLayer
 10
6.9240131065688875
 20
54.5266032142299935
 30
0.0
 11
-39.9367184539598341
 21
52.4246706640215763
 31
0.0
  0
CIRCLE
  5
DE
100
AcDbEntity
100
AcDbCircle
  8
num
 62
256
370
-1
  6
ByLayer
 10
-45.3770144662639581
 20
72.7021376189733246
 30
0.0
 40
0.5
  0
CIRCLE
  5
DF
100
AcDbEntity
100
AcDbCircle
  8
num
 62
256
370
-1
  6
ByLayer
 10
-39.9367184539598341
 20
52.4246706640215763
 30
0.0
 40
0.5
  0
LINE
  5
E0
100
AcDbEntity
100
AcDbLine
  8
contour
 62
256
370
-1
  6
ByLayer
 10
-86.0
 20
85.0
 30
0.0
 11
-89.0
 21
85.0
 31
0.0
  0
LINE
  5
E1
100
AcDbEntity
100
AcDbLine
  8
contour
 62
256
370
-1
  6
ByLayer
 10
-85.0
 20
68.0
 30
0.0
 11
-85.0
 21
84.0
 31
0.0
  0
LINE
  5
E2
100
AcDbEntity
100
AcDbLine
  8
contour
 62
256
370
-1
  6
ByLayer
 10
-86.0
 20
85.0
 30
0.0
 11
-85.0
 21
84.0
 31
0.0
  0
LINE
  5
E3
100
AcDbEntity
100
AcDbLine
  8
contour
 62
256
370
-1
  6
ByLayer
 10
-75.0
 20
68.0
 30
0.0
 11
-75.0
 21
84.0
 31
0.0
  0
LINE
  5
E4
100
AcDbEntity
100
AcDbLine
  8
contour
 62
256
370
-1
  6
ByLayer
 10
-69.0
 20
85.0
 30
0.0
 11
-74.0
 21
85.0
 31
0.0
  0
LINE
  5
E5
100
AcDbEntity
100
AcDbLine
  8
contour
 62
256
370
-1
  6
ByLayer
 10
-75.0
 20
84.0
 30
0.0
 11
-74.0
 21
85.0
 31
0.0
  0
LINE
  5
E6
100
AcDbEntity
100
AcDbLine
  8
contour
 62
256
370
-1
  6
ByLayer
 10
-87.0000200470055489
 20
85.0
 30
0.0
 11
-85.0
 21
85.0
 31
0.0
  0
LINE
  5
E7
100
AcDbEntity
100
AcDbLine
  8
contour
 62
256
370
-1
  6
ByLayer
 10
-85.0
 20
85.0
 30
0.0
 11
-85.0
 21
73.0
 31
0.0
  0
LINE
  5
E8
100
AcDbEntity
100
AcDbLine
  8
contour
 62
256
370
-1
  6
ByLayer
 10
-75.0
 20
73.0000129340775743
 30
0.0
 11
-75.0
 21
85.0
 31
0.0
  0
LINE
  5
E9
100
AcDbEntity
100
AcDbLine
  8
contour
 62
256
370
-1
  6
ByLayer
 10
-75.0
 20
85.0
 30
0.0
 11
-73.0000003428734487
 21
85.0
 31
0.0
  0
DIMENSION
  5
EA
100
AcDbEntity
  8
dim
 62
256
370
-1
  6
ByLayer
100
AcDbDimension
 10
-110.0
 20
84.0
 30
0.0
 11
-111.875
 21
84.5
 31
0.0
 70
0
 71
5
 72
0
 41
1.0
 42
0.0
  1
1x45%%d
  3
Standard
100
AcDbAlignedDimension
 13
-86.0
 23
85.0
 33
0.0
 14
-85.0
 24
84.0
 34
0.0
 50
90.0
100
AcDbRotatedDimension
  0
DIMENSION
  5
EB
100
AcDbEntity
  8
dim
 62
256
370
-1
  6
ByLayer
100
AcDbDimension
 10
-75.0
 20
106.0
 30
0.0
 11
-80.0
 21
107.875
 31
0.0
 70
0
 71
5
 72
0
 41
1.0
 42
0.0
  1
%%c<>H7
  3
Standard
100
AcDbAlignedDimension
 13
-85.0
 23
84.0
 33
0.0
 14
-75.0
 24
84.0
 34
0.0
 50
0.0
100
AcDbRotatedDimension
  0
MTEXT
  5
EC
100
AcDbEntity
100
AcDbMText
  8
num
 62
256
370
-1
  6
ByLayer
 10
10.0
 20
100.0
 30
0.0
 40
10.0
 41
100.0
 71
7
 72
2
  1
3
  7
normal
 50
0.0
 73
1
 44
1.0
  0
LINE
  5
ED
100
AcDbEntity
100
AcDbLine
  8
thin
 62
256
370
-1
  6
ByLayer
 10
6.8285216385404715
 20
104.6339623382509245
 30
0.0
 11
-78.8956884699060623
 21
79.1057968280150021
 31
0.0
  0
CIRCLE
  5
EE
100
AcDbEntity
100
AcDbCircle
  8
num
 62
256
370
-1
  6
ByLayer
 10
-78.8956884699060623
 20
79.1057968280150021
 30
0.0
 40
0.5
  0
INSERT
  5
EF
100
AcDbEntity
100
AcDbBlockReference
  8
0
 62
256
370
-1
  6
ByLayer
  2
dim_sur_N6
 10
-75.0
 20
97.0
 30
0.0
 50
90.0
 44
20.0
 45
20.0
  0
LWPOLYLINE
  5
F0
  8
thin
 62
256
370
-1
  6
ByLayer
100
AcDbEntity
100
AcDbPolyline
 90
435
 70
0
 10
-62.7984658584447502
 20
83.8981781912934963
 10
-62.7984658584447502
 20
83.8981781912934963
 10
-62.7984658584447502
 20
83.862415967000544
 10
-62.7984658584447502
 20
83.862415967000544
 10
-62.7984658584447502
 20
83.862415967000544
 10
-62.8342280827377166
 20
83.8266537427075775
 10
-62.8342280827377166
 20
83.8266537427075775
 10
-62.8699903070306831
 20
83.790891518414611
 10
-62.9057525313236425
 20
83.7551292941216445
 10
-62.941514755616609
 20
83.719367069828678
 10
-62.9772769799095755
 20
83.719367069828678
 10
-63.0130392042025349
 20
83.6836048455357115
 10
-63.0130392042025349
 20
83.6478426212427593
 10
-63.0488014284955014
 20
83.6120803969497928
 10
-63.0845636527884608
 20
83.5763181726568263
 10
-63.0845636527884608
 20
83.5405559483638598
 10
-63.1203258770814273
 20
83.5047937240708933
 10
-63.1560881013743938
 20
83.469031499777941
 10
-63.1918503256673532
 20
83.4332692754849745
 10
-63.2276125499603197
 20
83.397507051192008
 10
-63.2276125499603197
 20
83.397507051192008
 10
-63.2633747742532861
 20
83.3617448268990415
 10
-63.2633747742532861
 20
83.325982602606075
 10
-63.2991369985462455
 20
83.2902203783131085
 10
-63.2991369985462455
 20
83.2544581540201563
 10
-63.334899222839212
 20
83.2186959297271898
 10
-63.334899222839212
 20
83.1829337054342233
 10
-63.3706614471321785
 20
83.1471714811412568
 10
-63.4064236714251379
 20
83.1114092568482903
 10
-63.4064236714251379
 20
83.0756470325553238
 10
-63.4421858957181044
 20
83.0398848082623715
 10
-63.4779481200110709
 20
83.0398848082623715
 10
-63.4779481200110709
 20
83.004122583969405
 10
-63.5137103443040303
 20
82.9683603596764385
 10
-63.5494725685969968
 20
82.932598135383472
 10
-63.5494725685969968
 20
82.8968359110905055
 10
-63.5852347928899633
 20
82.8610736867975533
 10
-63.5852347928899633
 20
82.8253114625045868
 10
-63.6209970171829227
 20
82.7895492382116203
 10
-63.6209970171829227
 20
82.7537870139186538
 10
-63.6567592414758892
 20
82.7537870139186538
 10
-63.6567592414758892
 20
82.7180247896256873
 10
-63.6925214657688485
 20
82.6822625653327208
 10
-63.6925214657688485
 20
82.6465003410397685
 10
-63.6925214657688485
 20
82.610738116746802
 10
-63.6925214657688485
 20
82.5749758924538355
 10
-63.6925214657688485
 20
82.5749758924538355
 10
-63.6925214657688485
 20
82.539213668160869
 10
-63.6925214657688485
 20
82.5034514438679025
 10
-63.6925214657688485
 20
82.467689219574936
 10
-63.6925214657688485
 20
82.4319269952819837
 10
-63.6925214657688485
 20
82.4319269952819837
 10
-63.6925214657688485
 20
82.3961647709890173
 10
-63.728283690061815
 20
82.3604025466960508
 10
-63.728283690061815
 20
82.3246403224030843
 10
-63.728283690061815
 20
82.2888780981101178
 10
-63.728283690061815
 20
82.2531158738171655
 10
-63.728283690061815
 20
82.217353649524199
 10
-63.728283690061815
 20
82.1815914252312325
 10
-63.7640459143547815
 20
82.145829200938266
 10
-63.7640459143547815
 20
82.1100669766452995
 10
-63.7640459143547815
 20
82.074304752352333
 10
-63.7640459143547815
 20
82.0385425280593807
 10
-63.7640459143547815
 20
82.0385425280593807
 10
-63.7640459143547815
 20
82.0027803037664142
 10
-63.7998081386477409
 20
81.9670180794734478
 10
-63.7998081386477409
 20
81.9312558551804813
 10
-63.7998081386477409
 20
81.8954936308875148
 10
-63.7998081386477409
 20
81.8597314065945483
 10
-63.7998081386477409
 20
81.823969182301596
 10
-63.8355703629407074
 20
81.7882069580086295
 10
-63.8355703629407074
 20
81.752444733715663
 10
-63.8355703629407074
 20
81.7166825094226965
 10
-63.8355703629407074
 20
81.68092028512973
 10
-63.8713325872336739
 20
81.6451580608367777
 10
-63.8713325872336739
 20
81.5736336122508447
 10
-63.8713325872336739
 20
81.5378713879578783
 10
-63.8713325872336739
 20
81.4663469393719453
 10
-63.8713325872336739
 20
81.4663469393719453
 10
-63.8713325872336739
 20
81.430584715078993
 10
-63.8713325872336739
 20
81.3948224907860265
 10
-63.9070948115266333
 20
81.35906026649306
 10
-63.9070948115266333
 20
81.287535817907127
 10
-63.9070948115266333
 20
81.2517735936141605
 10
-63.9070948115266333
 20
81.2160113693212082
 10
-63.9070948115266333
 20
81.1802491450282417
 10
-63.9070948115266333
 20
81.1087246964423088
 10
-63.9070948115266333
 20
81.0729624721493423
 10
-63.9070948115266333
 20
81.03720024785639
 10
-63.9070948115266333
 20
81.0014380235634235
 10
-63.9428570358195998
 20
80.965675799270457
 10
-63.9428570358195998
 20
80.9299135749774905
 10
-63.9428570358195998
 20
80.9299135749774905
 10
-63.9428570358195998
 20
80.8583891263915575
 10
-63.9428570358195998
 20
80.8226269020986052
 10
-63.9428570358195998
 20
80.7868646778056387
 10
-63.9428570358195998
 20
80.7868646778056387
 10
-63.9428570358195998
 20
80.7511024535126722
 10
-63.9428570358195998
 20
80.7153402292197057
 10
-63.9070948115266333
 20
80.6795780049267393
 10
-63.9070948115266333
 20
80.6438157806337728
 10
-63.9070948115266333
 20
80.6080535563408205
 10
-63.9070948115266333
 20
80.572291332047854
 10
-63.8713325872336739
 20
80.572291332047854
 10
-63.8713325872336739
 20
80.5365291077548875
 10
-63.8355703629407074
 20
80.500766883461921
 10
-63.8355703629407074
 20
80.4650046591689545
 10
-63.8355703629407074
 20
80.4292424348760022
 10
-63.8355703629407074
 20
80.3577179862900692
 10
-63.8355703629407074
 20
80.3219557619971027
 10
-63.7998081386477409
 20
80.2504313134111698
 10
-63.7998081386477409
 20
80.2146690891182175
 10
-63.7998081386477409
 20
80.178906864825251
 10
-63.7998081386477409
 20
80.1431446405322845
 10
-63.7640459143547815
 20
80.107382416239318
 10
-63.7640459143547815
 20
80.035857967653385
 10
-63.728283690061815
 20
80.0000957433604327
 10
-63.6925214657688485
 20
79.9643335190674662
 10
-63.6925214657688485
 20
79.9285712947744997
 10
-63.6925214657688485
 20
79.8570468461885667
 10
-63.6925214657688485
 20
79.8212846218956145
 10
-63.6925214657688485
 20
79.785522397602648
 10
-63.728283690061815
 20
79.7497601733096815
 10
-63.728283690061815
 20
79.713997949016715
 10
-63.7640459143547815
 20
79.6782357247237485
 10
-63.7998081386477409
 20
79.642473500430782
 10
-63.8355703629407074
 20
79.6067112761378297
 10
-63.8355703629407074
 20
79.5709490518448632
 10
-63.8713325872336739
 20
79.5351868275518967
 10
-63.8713325872336739
 20
79.4994246032589302
 10
-63.9070948115266333
 20
79.4636623789659637
 10
-63.9070948115266333
 20
79.4279001546729972
 10
-63.9428570358195998
 20
79.392137930380045
 10
-63.9428570358195998
 20
79.320613481794112
 10
-63.9428570358195998
 20
79.2848512575011455
 10
-63.9428570358195998
 20
79.249089033208179
 10
-63.9428570358195998
 20
79.2133268089152267
 10
-63.9428570358195998
 20
79.1775645846222602
 10
-63.9428570358195998
 20
79.1775645846222602
 10
-63.9786192601125663
 20
79.1418023603292937
 10
-63.9786192601125663
 20
79.1060401360363272
 10
-63.9786192601125663
 20
79.0702779117433607
 10
-63.9786192601125663
 20
79.0345156874503942
 10
-63.9786192601125663
 20
78.998753463157442
 10
-63.9786192601125663
 20
78.9629912388644755
 10
-63.9786192601125663
 20
78.927229014571509
 10
-64.0143814844055328
 20
78.8914667902785425
 10
-64.0143814844055328
 20
78.855704565985576
 10
-64.0143814844055328
 20
78.8199423416926095
 10
-64.0501437086984851
 20
78.7484178931066907
 10
-64.0501437086984851
 20
78.7126556688137242
 10
-64.0501437086984851
 20
78.6768934445207577
 10
-64.0859059329914516
 20
78.6411312202277912
 10
-64.0859059329914516
 20
78.6053689959348389
 10
-64.0859059329914516
 20
78.5696067716418725
 10
-64.0859059329914516
 20
78.533844547348906
 10
-64.121668157284418
 20
78.4980823230559395
 10
-64.121668157284418
 20
78.462320098762973
 10
-64.121668157284418
 20
78.4265578744700065
 10
-64.121668157284418
 20
78.3907956501770542
 10
-64.121668157284418
 20
78.3550334258840877
 10
-64.121668157284418
 20
78.3192712015911212
 10
-64.121668157284418
 20
78.2835089772981547
 10
-64.121668157284418
 20
78.2477467530051882
 10
-64.121668157284418
 20
78.1762223044192694
 10
-64.121668157284418
 20
78.140460080126303
 10
-64.121668157284418
 20
78.1046978558333365
 10
-64.121668157284418
 20
78.06893563154037
 10
-64.121668157284418
 20
78.0331734072474035
 10
-64.121668157284418
 20
77.9974111829544512
 10
-64.121668157284418
 20
77.9258867343685182
 10
-64.0859059329914516
 20
77.8901245100755517
 10
-64.0859059329914516
 20
77.8543622857825852
 10
-64.0859059329914516
 20
77.8186000614896187
 10
-64.0859059329914516
 20
77.7828378371966664
 10
-64.0859059329914516
 20
77.7470756129036999
 10
-64.0859059329914516
 20
77.7113133886107335
 10
-64.0859059329914516
 20
77.675551164317767
 10
-64.0859059329914516
 20
77.6397889400248005
 10
-64.0859059329914516
 20
77.604026715731834
 10
-64.0859059329914516
 20
77.5682644914388817
 10
-64.121668157284418
 20
77.4967400428529487
 10
-64.121668157284418
 20
77.4609778185599822
 10
-64.121668157284418
 20
77.4609778185599822
 10
-64.1574303815773845
 20
77.4252155942670157
 10
-64.1574303815773845
 20
77.3894533699740634
 10
-64.193192605870351
 20
77.3536911456810969
 10
-64.2289548301633175
 20
77.3179289213881304
 10
-64.2289548301633175
 20
77.3179289213881304
 10
-64.2647170544562698
 20
77.282166697095164
 10
-64.3004792787492363
 20
77.2464044728021975
 10
-64.3362415030422028
 20
77.210642248509231
 10
-64.3720037273351693
 20
77.1748800242162787
 10
-64.4077659516281358
 20
77.1391177999233122
 10
-64.4435281759211023
 20
77.1391177999233122
 10
-64.4792904002140546
 20
77.1033555756303457
 10
-64.5150526245070211
 20
77.0675933513373792
 10
-64.5508148487999875
 20
76.9960689027514462
 10
-64.586577073092954
 20
76.9603066784584939
 10
-64.6223392973859205
 20
76.9245444541655274
 10
-64.6223392973859205
 20
76.8887822298725609
 10
-64.6581015216788728
 20
76.8530200055795945
 10
-64.6938637459718393
 20
76.817257781286628
 10
-64.6938637459718393
 20
76.7457333327007092
 10
-64.7296259702648058
 20
76.7099711084077427
 10
-64.7653881945577723
 20
76.6742088841147762
 10
-64.7653881945577723
 20
76.6026844355288432
 10
-64.8011504188507388
 20
76.5669222112358909
 10
-64.8011504188507388
 20
76.5311599869429244
 10
-64.8011504188507388
 20
76.4953977626499579
 10
-64.8011504188507388
 20
76.4596355383569914
 10
-64.8011504188507388
 20
76.423873314064025
 10
-64.8011504188507388
 20
76.3881110897710585
 10
-64.8369126431437053
 20
76.3523488654781062
 10
-64.8369126431437053
 20
76.3165866411851397
 10
-64.8369126431437053
 20
76.2808244168921732
 10
-64.8369126431437053
 20
76.2450621925992067
 10
-64.8369126431437053
 20
76.2092999683062402
 10
-64.8369126431437053
 20
76.1735377440132879
 10
-64.8011504188507388
 20
76.1377755197203214
 10
-64.8011504188507388
 20
76.1020132954273549
 10
-64.8011504188507388
 20
76.0662510711343884
 10
-64.8011504188507388
 20
76.0304888468414219
 10
-64.8011504188507388
 20
75.9947266225484555
 10
-64.8011504188507388
 20
75.9589643982555032
 10
-64.7653881945577723
 20
75.9232021739625367
 10
-64.7653881945577723
 20
75.8874399496695702
 10
-64.8011504188507388
 20
75.8516777253766037
 10
-64.8011504188507388
 20
75.8159155010836372
 10
-64.8011504188507388
 20
75.7801532767906849
 10
-64.8011504188507388
 20
75.7443910524977184
 10
-64.8011504188507388
 20
75.7086288282047519
 10
-64.8011504188507388
 20
75.6728666039117854
 10
-64.8369126431437053
 20
75.6371043796188189
 10
-64.8369126431437053
 20
75.5655799310329002
 10
-64.8369126431437053
 20
75.5298177067399337
 10
-64.8011504188507388
 20
75.4940554824469672
 10
-64.8011504188507388
 20
75.4582932581540007
 10
-64.8011504188507388
 20
75.4225310338610342
 10
-64.8011504188507388
 20
75.3867688095680677
 10
-64.8011504188507388
 20
75.3152443609821489
 10
-64.7653881945577723
 20
75.2794821366891824
 10
-64.7653881945577723
 20
75.2437199123962159
 10
-64.7653881945577723
 20
75.2079576881032494
 10
-64.7653881945577723
 20
75.1721954638102972
 10
-64.7653881945577723
 20
75.1364332395173307
 10
-64.7653881945577723
 20
75.1006710152243642
 10
-64.7296259702648058
 20
75.0649087909313977
 10
-64.7296259702648058
 20
75.0291465666384312
 10
-64.7296259702648058
 20
74.9933843423454647
 10
-64.7296259702648058
 20
74.9218598937595459
 10
-64.6938637459718393
 20
74.9218598937595459
 10
-64.6938637459718393
 20
74.8860976694665794
 10
-64.6938637459718393
 20
74.8503354451736129
 10
-64.6938637459718393
 20
74.8145732208806464
 10
-64.6938637459718393
 20
74.7788109965876799
 10
-64.6938637459718393
 20
74.7430487722947277
 10
-64.6938637459718393
 20
74.7072865480017612
 10
-64.6581015216788728
 20
74.7072865480017612
 10
-64.6581015216788728
 20
74.6715243237087947
 10
-64.6581015216788728
 20
74.6357620994158282
 10
-64.6581015216788728
 20
74.5999998751228617
 10
-64.6581015216788728
 20
74.5642376508299094
 10
-64.6581015216788728
 20
74.5284754265369429
 10
-64.6581015216788728
 20
74.4927132022439764
 10
-64.6581015216788728
 20
74.4569509779510099
 10
-64.6581015216788728
 20
74.4211887536580434
 10
-64.6581015216788728
 20
74.3854265293650769
 10
-64.6581015216788728
 20
74.3496643050721246
 10
-64.6581015216788728
 20
74.3139020807791582
 10
-64.6938637459718393
 20
74.2781398564861917
 10
-64.6938637459718393
 20
74.2423776321932252
 10
-64.6938637459718393
 20
74.2066154079002587
 10
-64.6938637459718393
 20
74.1708531836072922
 10
-64.6938637459718393
 20
74.1350909593143399
 10
-64.7296259702648058
 20
74.0993287350213734
 10
-64.7296259702648058
 20
74.0635665107284069
 10
-64.7296259702648058
 20
74.0278042864354404
 10
-64.7653881945577723
 20
73.9920420621424739
 10
-64.7653881945577723
 20
73.9562798378495216
 10
-64.8011504188507388
 20
73.9205176135565551
 10
-64.8011504188507388
 20
73.8489931649706222
 10
-64.8369126431437053
 20
73.8132309406776557
 10
-64.8369126431437053
 20
73.7417064920917369
 10
-64.8369126431437053
 20
73.7059442677987704
 10
-64.8726748674366576
 20
73.6701820435058039
 10
-64.8726748674366576
 20
73.6344198192128374
 10
-64.9084370917296241
 20
73.5628953706269044
 10
-64.9084370917296241
 20
73.5271331463339521
 10
-64.9441993160225906
 20
73.4913709220409856
 10
-64.9441993160225906
 20
73.4556086977480192
 10
-64.9441993160225906
 20
73.4198464734550527
 10
-64.979961540315557
 20
73.3483220248691339
 10
-64.979961540315557
 20
73.3125598005761674
 10
-65.0157237646085235
 20
73.2767975762832009
 10
-65.05148598890149
 20
73.2410353519902344
 10
-65.05148598890149
 20
73.1695109034043014
 10
-65.0872482131944423
 20
73.0979864548183826
 10
-65.1230104374874088
 20
73.0264620062324497
 10
-65.1587726617803753
 20
72.9906997819394832
 10
-65.1587726617803753
 20
72.9191753333535644
 10
-65.1945348860733418
 20
72.8834131090605979
 10
-65.1945348860733418
 20
72.8476508847676314
 10
-65.2302971103663083
 20
72.8118886604746649
 10
-65.2660593346592606
 20
72.7403642118887461
 10
-65.2660593346592606
 20
72.7046019875957796
 10
-65.3018215589522271
 20
72.6688397633028131
 10
-65.3018215589522271
 20
72.6330775390098466
 10
-65.3375837832451936
 20
72.5615530904239137
 10
-65.3733460075381601
 20
72.5257908661309614
 10
-65.3733460075381601
 20
72.4900286418379949
 10
-65.4091082318311265
 20
72.4542664175450284
 10
-65.4091082318311265
 20
72.3827419689590954
 10
-65.444870456124093
 20
72.3469797446661289
 10
-65.444870456124093
 20
72.2754552960802101
 10
-65.4806326804170453
 20
72.2039308474942771
 10
-65.4806326804170453
 20
72.1681686232013107
 10
-65.5163949047100118
 20
72.1324063989083584
 10
-65.5163949047100118
 20
72.0608819503224254
 10
-65.5521571290029783
 20
72.0251197260294589
 10
-65.5521571290029783
 20
71.9893575017364924
 10
-65.5521571290029783
 20
71.9178330531505736
 10
-65.5879193532959448
 20
71.8820708288576071
 10
-65.5879193532959448
 20
71.8463086045646406
 10
-65.5879193532959448
 20
71.8105463802716741
 10
-65.5879193532959448
 20
71.7747841559787076
 10
-65.6236815775889113
 20
71.7390219316857412
 10
-65.6236815775889113
 20
71.7032597073927889
 10
-65.6236815775889113
 20
71.6674974830998224
 10
-65.6236815775889113
 20
71.6317352588068559
 10
-65.6594438018818778
 20
71.5959730345138894
 10
-65.6594438018818778
 20
71.5602108102209229
 10
-65.6594438018818778
 20
71.5244485859279706
 10
-65.6594438018818778
 20
71.4886863616350041
 10
-65.6594438018818778
 20
71.4529241373420376
 10
-65.6952060261748301
 20
71.4171619130490711
 10
-65.6952060261748301
 20
71.3813996887561046
 10
-65.6952060261748301
 20
71.3456374644631381
 10
-65.6952060261748301
 20
71.3098752401701859
 10
-65.6952060261748301
 20
71.2741130158772194
 10
-65.7309682504677966
 20
71.2383507915842529
 10
-65.7309682504677966
 20
71.2025885672912864
 10
-65.7309682504677966
 20
71.1668263429983199
 10
-65.7309682504677966
 20
71.1310641187053534
 10
-65.7309682504677966
 20
71.0953018944124011
 10
-65.7309682504677966
 20
71.0595396701194346
 10
-65.7309682504677966
 20
71.0237774458264681
 10
-65.7309682504677966
 20
70.9880152215335016
 10
-65.7309682504677966
 20
70.9522529972405351
 10
-65.7309682504677966
 20
70.9164907729475829
 10
-65.7309682504677966
 20
70.8807285486546164
 10
-65.7309682504677966
 20
70.8449663243616499
 10
-65.7309682504677966
 20
70.8092041000686834
 10
-65.7309682504677966
 20
70.7734418757757169
 10
-65.7309682504677966
 20
70.7019174271897981
 10
-65.7309682504677966
 20
70.6661552028968316
 10
-65.7309682504677966
 20
70.5946307543108986
 10
-65.7309682504677966
 20
70.5588685300179321
 10
-65.7309682504677966
 20
70.5231063057249656
 10
-65.7309682504677966
 20
70.4873440814320134
 10
-65.7309682504677966
 20
70.4515818571390469
 10
-65.7309682504677966
 20
70.4515818571390469
 10
-65.7667304747607631
 20
70.4158196328460804
 10
-65.7667304747607631
 20
70.3800574085531139
 10
-65.8024926990537296
 20
70.3442951842601474
 10
-65.8740171476396483
 20
70.3085329599671951
 10
-65.9097793719326148
 20
70.2727707356742286
 10
-65.9455415962255813
 20
70.2370085113812621
 10
-65.9455415962255813
 20
70.2012462870882956
 10
-65.9813038205185478
 20
70.1654840627953291
 10
-65.9813038205185478
 20
70.1297218385023626
 10
-66.0170660448115143
 20
70.0939596142094103
 10
-66.0528282691044808
 20
70.0581973899164439
 10
-66.0528282691044808
 20
70.0224351656234774
 10
-66.0528282691044808
 20
69.9866729413305109
 10
-66.0885904933974331
 20
69.9509107170375444
 10
-66.0885904933974331
 20
69.9151484927445779
 10
-66.0885904933974331
 20
69.8793862684516256
 10
-66.1243527176903996
 20
69.8436240441586591
 10
-66.1243527176903996
 20
69.8078618198656926
 10
-66.1243527176903996
 20
69.7363373712797596
 10
-66.1243527176903996
 20
69.7005751469868073
 10
-66.1243527176903996
 20
69.6648129226938408
 10
-66.1243527176903996
 20
69.6290506984008744
 10
-66.1243527176903996
 20
69.5575262498149414
 10
-66.0885904933974331
 20
69.5217640255219749
 10
-66.0885904933974331
 20
69.4860018012290226
 10
-66.0528282691044808
 20
69.4144773526430896
 10
-66.0528282691044808
 20
69.3787151283501231
 10
-66.0170660448115143
 20
69.3429529040571566
 10
-66.0170660448115143
 20
69.3071906797641901
 10
-66.0170660448115143
 20
69.2714284554712378
 10
-65.9813038205185478
 20
69.2356662311782713
 10
-65.9813038205185478
 20
69.1999040068853049
 10
-65.9813038205185478
 20
69.1641417825923384
 10
-65.9813038205185478
 20
69.1283795582993719
 10
-65.9813038205185478
 20
69.0926173340064196
 10
-65.9813038205185478
 20
69.0568551097134531
 10
-65.9813038205185478
 20
69.0568551097134531
 10
-65.9813038205185478
 20
69.0210928854204866
 10
-65.9813038205185478
 20
68.9853306611275201
 10
-65.9813038205185478
 20
68.9495684368345536
 10
-65.9813038205185478
 20
68.9138062125415871
 10
-65.9813038205185478
 20
68.8422817639556683
 10
-66.0170660448115143
 20
68.8065195396627018
 10
-66.0170660448115143
 20
68.7707573153697354
 10
-66.0170660448115143
 20
68.7349950910767689
 10
-66.0528282691044808
 20
68.6992328667838024
 10
-66.0528282691044808
 20
68.6634706424908501
 10
-66.0528282691044808
 20
68.6277084181978836
 10
-66.0885904933974331
 20
68.5919461939049171
 10
-66.0885904933974331
 20
68.5204217453189841
 10
-66.0885904933974331
 20
68.4846595210260318
 10
-66.1243527176903996
 20
68.4846595210260318
 10
-66.1243527176903996
 20
68.4488972967330653
 10
-66.1243527176903996
 20
68.4131350724400988
 10
-66.1601149419833661
 20
68.3773728481471323
 10
-66.1601149419833661
 20
68.3416106238541659
 10
-66.1601149419833661
 20
68.3058483995611994
 10
-66.1958771662763326
 20
68.2700861752682471
 10
-66.1958771662763326
 20
68.2343239509752806
 10
-66.1958771662763326
 20
68.1985617266823141
 10
-66.1958771662763326
 20
68.1627995023893476
 10
-66.1958771662763326
 20
68.1270372780963811
 10
-66.2316393905692991
 20
68.0912750538034288
 10
-66.2316393905692991
 20
68.0555128295104623
 10
-66.2316393905692991
 20
68.0197506052174958
 10
-66.2316393905692991
 20
68.0197506052174958
 10
-66.2674016148622655
 20
67.9839883809245293
 10
-66.2674016148622655
 20
67.9482261566315628
 10
-66.2674016148622655
 20
67.9124639323385964
 10
-66.2674016148622655
 20
67.9124639323385964
 10
-66.2674016148622655
 20
67.9124639323385964
 10
-66.2674016148622655
 20
67.9125639323385964
 10
-66.2674016148622655
 20
67.9126639323385964
  0
ENDSEC
  0
SECTION
  2
OBJECTS
  0
DICTIONARY
  5
C
100
AcDbDictionary
280
0
281
1
  3
ACAD_GROUP
350
D
  3
ACAD_LAYOUT
350
1A
  3
ACAD_MLINESTYLE
350
17
  3
ACAD_PLOTSETTINGS
350
19
  3
ACAD_PLOTSTYLENAME
350
E
  3
AcDbVariableDictionary
350
F1
  0
DICTIONARY
  5
D
100
AcDbDictionary
280
0
281
1
  0
ACDBDICTIONARYWDFLT
  5
E
100
AcDbDictionary
281
1
  3
Normal
350
F
100
AcDbDictionaryWithDefault
340
F
  0
ACDBPLACEHOLDER
  5
F
  0
DICTIONARY
  5
17
100
AcDbDictionary
280
0
281
1
  3
Standard
350
18
  0
MLINESTYLE
  5
18
100
AcDbMlineStyle
  2
STANDARD
 70
0
  3

 62
256
 51
90.0
 52
90.0
 71
2
 49
0.5
 62
256
  6
BYLAYER
 49
-0.5
 62
256
  6
BYLAYER
  0
DICTIONARY
  5
19
100
AcDbDictionary
280
0
281
1
  0
DICTIONARY
  5
1A
100
AcDbDictionary
281
1
  3
Layout1
350
1E
  3
Layout2
350
26
  3
Model
350
22
  0
LAYOUT
  5
1E
100
AcDbPlotSettings
  1

  2
C:\Program Files\AutoCAD 2002\plotters\DWF ePlot (optimized for plotting).pc3
  4

  6

 40
0.0
 41
0.0
 42
0.0
 43
0.0
 44
0.0
 45
0.0
 46
0.0
 47
0.0
 48
0.0
 49
0.0
140
0.0
141
0.0
142
1.0
143
1.0
 70
688
 72
0
 73
0
 74
5
  7

 75
16
147
1.0
148
0.0
149
0.0
100
AcDbLayout
  1
Layout1
 70
1
 71
1
 10
0.0
 20
0.0
 11
420.0
 21
297.0
 12
0.0
 22
0.0
 32
0.0
 14
100000000000000000000.0
 24
100000000000000000000.0
 34
100000000000000000000.0
 15
-100000000000000000000.0
 25
-100000000000000000000.0
 35
-100000000000000000000.0
146
0.0
 13
0.0
 23
0.0
 33
0.0
 16
1.0
 26
0.0
 36
0.0
 17
0.0
 27
1.0
 37
0.0
 76
0
330
1B
  0
LAYOUT
  5
22
100
AcDbPlotSettings
  1

  2
C:\Program Files\AutoCAD 2002\plotters\DWF ePlot (optimized for plotting).pc3
  4

  6

 40
0.0
 41
0.0
 42
0.0
 43
0.0
 44
0.0
 45
0.0
 46
0.0
 47
0.0
 48
0.0
 49
0.0
140
0.0
141
0.0
142
1.0
143
1.0
 70
1712
 72
0
 73
0
 74
0
  7

 75
0
147
1.0
148
0.0
149
0.0
100
AcDbLayout
  1
Model
 70
1
 71
0
 10
0.0
 20
0.0
 11
12.0
 21
9.0
 12
0.0
 22
0.0
 32
0.0
 14
0.0
 24
0.0
 34
0.0
 15
0.0
 25
0.0
 35
0.0
146
0.0
 13
0.0
 23
0.0
 33
0.0
 16
1.0
 26
0.0
 36
0.0
 17
0.0
 27
1.0
 37
0.0
 76
0
330
1F
  0
LAYOUT
  5
26
100
AcDbPlotSettings
  1

  2
C:\Program Files\AutoCAD 2002\plotters\DWF ePlot (optimized for plotting).pc3
  4

  6

 40
0.0
 41
0.0
 42
0.0
 43
0.0
 44
0.0
 45
0.0
 46
0.0
 47
0.0
 48
0.0
 49
0.0
140
0.0
141
0.0
142
1.0
143
1.0
 70
688
 72
0
 73
0
 74
5
  7

 75
16
147
1.0
148
0.0
149
0.0
100
AcDbLayout
  1
Layout2
 70
1
 71
2
 10
0.0
 20
0.0
 11
12.0
 21
9.0
 12
0.0
 22
0.0
 32
0.0
 14
0.0
 24
0.0
 34
0.0
 15
0.0
 25
0.0
 35
0.0
146
0.0
 13
0.0
 23
0.0
 33
0.0
 16
1.0
 26
0.0
 36
0.0
 17
0.0
 27
1.0
 37
0.0
 76
0
330
23
  0
DICTIONARY
  5
F1
100
AcDbDictionary
281
1
  3
DIMASSOC
350
F3
  3
HIDETEXT
350
F2
  0
DICTIONARYVAR
  5
F2
100
DictionaryVariables
280
0
  1
2
  0
DICTIONARYVAR
  5
F3
100
DictionaryVariables
280
0
  1
1
  0
ENDSEC
  0
EOF
