999
dxflib 2.1.2.0
  0
SECTION
  2
HEADER
  9
$ACADVER
  1
AC1015
  9
$HANDSEED
  5
FFFF
  9
$SPLINESEGS
 70
8
  9
$DIMEXE
 40
0.075
  9
$PSVPSCALE
 40
0.0341065830721003
  9
$DIMLUNIT
 70
2
  9
$GRIDMODE
 70
1
  9
$INSUNITS
 70
6
  9
$DIMADEC
 70
2
  9
$DIMASZ
 40
0.15
  9
$DIMGAP
 40
0.0375
  9
$DIMTXT
 40
0.15
  9
$GRIDUNIT
 10
0.0
 20
0.0
  9
$DIMEXO
 40
0.0375
  9
$LUPREC
 70
4
  9
$CLAYER
  8
windows
  9
$PINSBASE
 10
0.0184545454545455
 20
0.2640360501567398
 30
0.0
  9
$DIMAUNIT
 70
0
  9
$AUPREC
 70
2
  9
$PLIMMIN
 10
0.0
 20
0.0
  9
$LUNITS
 70
2
  9
$PLIMMAX
 10
0.21
 20
0.297
  9
$DIMSTYLE
  2
Standard
  9
$AUNITS
 70
0
  9
$CLAYER
  8
labels_bg
  0
ENDSEC
  0
SECTION
  2
TABLES
  0
TABLE
  2
VPORT
  5
8
100
AcDbSymbolTable
 70
1
  0
VPORT
  5
30
100
AcDbSymbolTableRecord
100
AcDbViewportTableRecord
  2
*Active
 70
0
 10
0.0
 20
0.0
 11
1.0
 21
1.0
 12
286.3055555555554861
 22
148.5
 13
0.0
 23
0.0
 14
10.0
 24
10.0
 15
10.0
 25
10.0
 16
0.0
 26
0.0
 36
1.0
 17
0.0
 27
0.0
 37
0.0
 40
297.0
 41
1.92798353909465
 42
50.0
 43
0.0
 44
0.0
 50
0.0
 51
0.0
 71
0
 72
100
 73
1
 74
3
 75
1
 76
1
 77
0
 78
0
281
0
 65
1
110
0.0
120
0.0
130
0.0
111
1.0
121
0.0
131
0.0
112
0.0
122
1.0
132
0.0
 79
0
146
0.0
  0
ENDTAB
  0
TABLE
  2
LTYPE
  5
5
100
AcDbSymbolTable
 70
21
  0
LTYPE
  5
14
100
AcDbSymbolTableRecord
100
AcDbLinetypeTableRecord
  2
ByBlock
 70
0
  3

 72
65
 73
0
 40
0.0
  0
LTYPE
  5
15
100
AcDbSymbolTableRecord
100
AcDbLinetypeTableRecord
  2
ByLayer
 70
0
  3

 72
65
 73
0
 40
0.0
  0
LTYPE
  5
16
100
AcDbSymbolTableRecord
100
AcDbLinetypeTableRecord
  2
CONTINUOUS
 70
0
  3
Solid line
 72
65
 73
0
 40
0.0
  0
LTYPE
  5
31
100
AcDbSymbolTableRecord
100
AcDbLinetypeTableRecord
  2
DOT
 70
0
  3
Dot . . . . . . . . . . . . . . . . . . . . . .
 72
65
 73
2
 40
6.3499999999999996
 49
0.0
 74
0
 49
-6.3499999999999996
 74
0
  0
LTYPE
  5
32
100
AcDbSymbolTableRecord
100
AcDbLinetypeTableRecord
  2
DOT2
 70
0
  3
Dot (.5x) .....................................
 72
65
 73
2
 40
3.1749999999999998
 49
0.0
 74
0
 49
-3.1749999999999998
 74
0
  0
LTYPE
  5
33
100
AcDbSymbolTableRecord
100
AcDbLinetypeTableRecord
  2
DOTX2
 70
0
  3
Dot (2x) .  .  .  .  .  .  .  .  .  .  .  .  .
 72
65
 73
2
 40
12.6999999999999993
 49
0.0
 74
0
 49
-12.6999999999999993
 74
0
  0
LTYPE
  5
34
100
AcDbSymbolTableRecord
100
AcDbLinetypeTableRecord
  2
DASHED
 70
0
  3
Dashed __ __ __ __ __ __ __ __ __ __ __ __ __ _
 72
65
 73
2
 40
19.0500000000000007
 49
12.6999999999999993
 74
0
 49
-6.3499999999999996
 74
0
  0
LTYPE
  5
35
100
AcDbSymbolTableRecord
100
AcDbLinetypeTableRecord
  2
DASHED2
 70
0
  3
Dashed (.5x) _ _ _ _ _ _ _ _ _ _ _ _ _ _ _ _ _
 72
65
 73
2
 40
9.5250000000000004
 49
6.3499999999999996
 74
0
 49
-3.1749999999999998
 74
0
  0
LTYPE
  5
36
100
AcDbSymbolTableRecord
100
AcDbLinetypeTableRecord
  2
DASHEDX2
 70
0
  3
Dashed (2x) ____  ____  ____  ____  ____  ___
 72
65
 73
2
 40
38.1000000000000014
 49
25.3999999999999986
 74
0
 49
-12.6999999999999993
 74
0
  0
LTYPE
  5
37
100
AcDbSymbolTableRecord
100
AcDbLinetypeTableRecord
  2
DASHDOT
 70
0
  3
Dash dot __ . __ . __ . __ . __ . __ . __ . __
 72
65
 73
4
 40
25.3999999999999986
 49
12.6999999999999993
 74
0
 49
-6.3499999999999996
 74
0
 49
0.0
 74
0
 49
-6.3499999999999996
 74
0
  0
LTYPE
  5
38
100
AcDbSymbolTableRecord
100
AcDbLinetypeTableRecord
  2
DASHDOT2
 70
0
  3
Dash dot (.5x) _._._._._._._._._._._._._._._.
 72
65
 73
4
 40
12.6999999999999993
 49
6.3499999999999996
 74
0
 49
-3.1749999999999998
 74
0
 49
0.0
 74
0
 49
-3.1749999999999998
 74
0
  0
LTYPE
  5
39
100
AcDbSymbolTableRecord
100
AcDbLinetypeTableRecord
  2
DASHDOTX2
 70
0
  3
Dash dot (2x) ____  .  ____  .  ____  .  ___
 72
65
 73
4
 40
50.7999999999999972
 49
25.3999999999999986
 74
0
 49
-12.6999999999999993
 74
0
 49
0.0
 74
0
 49
-12.6999999999999993
 74
0
  0
LTYPE
  5
3A
100
AcDbSymbolTableRecord
100
AcDbLinetypeTableRecord
  2
DIVIDE
 70
0
  3
Divide ____ . . ____ . . ____ . . ____ . . ____
 72
65
 73
6
 40
31.75
 49
12.6999999999999993
 74
0
 49
-6.3499999999999996
 74
0
 49
0.0
 74
0
 49
-6.3499999999999996
 74
0
 49
0.0
 74
0
 49
-6.3499999999999996
 74
0
  0
LTYPE
  5
3B
100
AcDbSymbolTableRecord
100
AcDbLinetypeTableRecord
  2
DIVIDE2
 70
0
  3
Divide (.5x) __..__..__..__..__..__..__..__.._
 72
65
 73
6
 40
15.875
 49
6.3499999999999996
 74
0
 49
-3.1749999999999998
 74
0
 49
0.0
 74
0
 49
-3.1749999999999998
 74
0
 49
0.0
 74
0
 49
-3.1749999999999998
 74
0
  0
LTYPE
  5
3C
100
AcDbSymbolTableRecord
100
AcDbLinetypeTableRecord
  2
DIVIDEX2
 70
0
  3
Divide (2x) ________  .  .  ________  .  .  _
 72
65
 73
6
 40
63.5
 49
25.3999999999999986
 74
0
 49
-12.6999999999999993
 74
0
 49
0.0
 74
0
 49
-12.6999999999999993
 74
0
 49
0.0
 74
0
 49
-12.6999999999999993
 74
0
  0
LTYPE
  5
3D
100
AcDbSymbolTableRecord
100
AcDbLinetypeTableRecord
  2
CENTER
 70
0
  3
Center ____ _ ____ _ ____ _ ____ _ ____ _ ____
 72
65
 73
4
 40
50.7999999999999972
 49
31.75
 74
0
 49
-6.3499999999999996
 74
0
 49
6.3499999999999996
 74
0
 49
-6.3499999999999996
 74
0
  0
LTYPE
  5
3E
100
AcDbSymbolTableRecord
100
AcDbLinetypeTableRecord
  2
CENTER2
 70
0
  3
Center (.5x) ___ _ ___ _ ___ _ ___ _ ___ _ ___
 72
65
 73
4
 40
28.5749999999999993
 49
19.0500000000000007
 74
0
 49
-3.1749999999999998
 74
0
 49
3.1749999999999998
 74
0
 49
-3.1749999999999998
 74
0
  0
LTYPE
  5
3F
100
AcDbSymbolTableRecord
100
AcDbLinetypeTableRecord
  2
CENTERX2
 70
0
  3
Center (2x) ________  __  ________  __  _____
 72
65
 73
4
 40
101.5999999999999943
 49
63.5
 74
0
 49
-12.6999999999999993
 74
0
 49
12.6999999999999993
 74
0
 49
-12.6999999999999993
 74
0
  0
LTYPE
  5
40
100
AcDbSymbolTableRecord
100
AcDbLinetypeTableRecord
  2
BORDER
 70
0
  3
Border __ __ . __ __ . __ __ . __ __ . __ __ .
 72
65
 73
6
 40
44.4500000000000028
 49
12.6999999999999993
 74
0
 49
-6.3499999999999996
 74
0
 49
12.6999999999999993
 74
0
 49
-6.3499999999999996
 74
0
 49
0.0
 74
0
 49
-6.3499999999999996
 74
0
  0
LTYPE
  5
41
100
AcDbSymbolTableRecord
100
AcDbLinetypeTableRecord
  2
BORDER2
 70
0
  3
Border (.5x) __.__.__.__.__.__.__.__.__.__.__.
 72
65
 73
6
 40
22.2250000000000014
 49
6.3499999999999996
 74
0
 49
-3.1749999999999998
 74
0
 49
6.3499999999999996
 74
0
 49
-3.1749999999999998
 74
0
 49
0.0
 74
0
 49
-3.1749999999999998
 74
0
  0
LTYPE
  5
42
100
AcDbSymbolTableRecord
100
AcDbLinetypeTableRecord
  2
BORDERX2
 70
0
  3
Border (2x) ____  ____  .  ____  ____  .  ___
 72
65
 73
6
 40
88.9000000000000057
 49
25.3999999999999986
 74
0
 49
-12.6999999999999993
 74
0
 49
25.3999999999999986
 74
0
 49
-12.6999999999999993
 74
0
 49
0.0
 74
0
 49
-12.6999999999999993
 74
0
  0
ENDTAB
  0
TABLE
  2
LAYER
  5
2
100
AcDbSymbolTable
 70
11
  0
LAYER
  5
10
100
AcDbSymbolTableRecord
100
AcDbLayerTableRecord
  2
0
 70
0
 62
7
  6
CONTINUOUS
370
0
390
F
  0
LAYER
  5
43
100
AcDbSymbolTableRecord
100
AcDbLayerTableRecord
  2
doors
 70
0
 62
7
  6
CONTINUOUS
370
25
390
F
  0
LAYER
  5
44
100
AcDbSymbolTableRecord
100
AcDbLayerTableRecord
  2
walls
 70
1
 62
-7
  6
CONTINUOUS
370
0
390
F
  0
LAYER
  5
45
100
AcDbSymbolTableRecord
100
AcDbLayerTableRecord
  2
staircases
 70
0
 62
7
  6
CONTINUOUS
370
25
390
F
  0
LAYER
  5
46
100
AcDbSymbolTableRecord
100
AcDbLayerTableRecord
  2
interiors
 70
0
 62
7
  6
CONTINUOUS
370
25
390
F
  0
LAYER
  5
47
100
AcDbSymbolTableRecord
100
AcDbLayerTableRecord
  2
background
 70
1
 62
-7
  6
CONTINUOUS
370
0
390
F
  0
LAYER
  5
48
100
AcDbSymbolTableRecord
100
AcDbLayerTableRecord
  2
filling
 70
0
 62
8
  6
CONTINUOUS
370
0
390
F
  0
LAYER
  5
49
100
AcDbSymbolTableRecord
100
AcDbLayerTableRecord
  2
windows
 70
0
 62
7
  6
CONTINUOUS
370
25
390
F
  0
LAYER
  5
4A
100
AcDbSymbolTableRecord
100
AcDbLayerTableRecord
  2
labels_sm
 70
0
 62
7
  6
CONTINUOUS
370
25
390
F
  0
LAYER
  5
4B
100
AcDbSymbolTableRecord
100
AcDbLayerTableRecord
  2
labels_bg
 70
0
 62
7
  6
CONTINUOUS
370
70
390
F
  0
LAYER
  5
4C
100
AcDbSymbolTableRecord
100
AcDbLayerTableRecord
  2
dimensions
 70
0
 62
7
  6
CONTINUOUS
370
20
390
F
  0
ENDTAB
  0
TABLE
  2
STYLE
  5
3
100
AcDbSymbolTable
 70
1
  0
STYLE
  5
11
100
AcDbSymbolTableRecord
100
AcDbTextStyleTableRecord
  2
Standard
 70
0
 40
0.0
 41
0.75
 50
0.0
 71
0
 42
2.5
  3
txt
  4

  0
ENDTAB
  0
TABLE
  2
VIEW
  5
6
100
AcDbSymbolTable
 70
0
  0
ENDTAB
  0
TABLE
  2
UCS
  5
7
100
AcDbSymbolTable
 70
0
  0
ENDTAB
  0
TABLE
  2
APPID
  5
9
100
AcDbSymbolTable
 70
1
  0
APPID
  5
12
100
AcDbSymbolTableRecord
100
AcDbRegAppTableRecord
  2
ACAD
 70
0
  0
ENDTAB
  0
TABLE
  2
DIMSTYLE
  5
A
100
AcDbSymbolTable
 70
1
100
AcDbDimStyleTable
 71
0
  0
DIMSTYLE
105
27
100
AcDbSymbolTableRecord
100
AcDbDimStyleTableRecord
  2
Standard
 41
0.15
 42
0.0375
 43
3.75
 44
0.075
 70
0
 73
0
 74
0
 77
1
 78
8
140
0.15
141
2.5
143
0.03937007874016
147
0.0375
171
3
172
1
271
2
272
2
274
3
278
44
283
0
284
8
340
11
  0
ENDTAB
  0
TABLE
  2
BLOCK_RECORD
  5
1
100
AcDbSymbolTable
 70
1
  0
BLOCK_RECORD
  5
1F
100
AcDbSymbolTableRecord
100
AcDbBlockTableRecord
  2
*Model_Space
340
22
  0
BLOCK_RECORD
  5
1B
100
AcDbSymbolTableRecord
100
AcDbBlockTableRecord
  2
*Paper_Space
340
1E
  0
BLOCK_RECORD
  5
23
100
AcDbSymbolTableRecord
100
AcDbBlockTableRecord
  2
*Paper_Space0
340
26
  0
BLOCK_RECORD
  5
4D
100
AcDbSymbolTableRecord
100
AcDbBlockTableRecord
  2
door_70-1
340
0
  0
BLOCK_RECORD
  5
4E
100
AcDbSymbolTableRecord
100
AcDbBlockTableRecord
  2
toilet-0
340
0
  0
BLOCK_RECORD
  5
4F
100
AcDbSymbolTableRecord
100
AcDbBlockTableRecord
  2
bed_single_90_200-0
340
0
  0
BLOCK_RECORD
  5
50
100
AcDbSymbolTableRecord
100
AcDbBlockTableRecord
  2
bed_double_180_200-0
340
0
  0
BLOCK_RECORD
  5
51
100
AcDbSymbolTableRecord
100
AcDbBlockTableRecord
  2
sink-0
340
0
  0
BLOCK_RECORD
  5
52
100
AcDbSymbolTableRecord
100
AcDbBlockTableRecord
  2
shower-0
340
0
  0
BLOCK_RECORD
  5
53
100
AcDbSymbolTableRecord
100
AcDbBlockTableRecord
  2
bath-0
340
0
  0
BLOCK_RECORD
  5
54
100
AcDbSymbolTableRecord
100
AcDbBlockTableRecord
  2
window_70-0
340
0
  0
ENDTAB
  0
ENDSEC
  0
SECTION
  2
BLOCKS
  0
BLOCK
  5
20
100
AcDbEntity
  8
0
100
AcDbBlockBegin
  2
*Model_Space
 70
0
 10
0.0
 20
0.0
 30
0.0
  3
*Model_Space
  1

  0
ENDBLK
  5
21
100
AcDbEntity
  8
0
100
AcDbBlockEnd
  0
BLOCK
  5
1C
100
AcDbEntity
 67
1
  8
0
100
AcDbBlockBegin
  2
*Paper_Space
 70
0
 10
0.0
 20
0.0
 30
0.0
  3
*Paper_Space
  1

  0
ENDBLK
  5
1D
100
AcDbEntity
 67
1
  8
0
100
AcDbBlockEnd
  0
BLOCK
  5
24
100
AcDbEntity
  8
0
100
AcDbBlockBegin
  2
*Paper_Space0
 70
0
 10
0.0
 20
0.0
 30
0.0
  3
*Paper_Space0
  1

  0
ENDBLK
  5
25
100
AcDbEntity
  8
0
100
AcDbBlockEnd
  0
BLOCK
  5
55
100
AcDbEntity
  8
0
100
AcDbBlockBegin
  2
door_70-1
 70
0
 10
0.0
 20
0.0
 30
0.0
  3
door_70-1
  1

  0
LINE
  5
56
100
AcDbEntity
100
AcDbLine
  8
0
 62
0
370
-2
  6
ByLayer
 10
0.6599999999999997
 20
-0.0500000000000003
 30
0.0
 11
0.6599999999999997
 21
0.0499999999999998
 31
0.0
  0
LINE
  5
57
100
AcDbEntity
100
AcDbLine
  8
0
 62
0
370
-2
  6
ByLayer
 10
0.6599999999999997
 20
0.0499999999999998
 30
0.0
 11
0.6999999999999997
 21
0.0499999999999998
 31
0.0
  0
LINE
  5
58
100
AcDbEntity
100
AcDbLine
  8
0
 62
0
370
-2
  6
ByLayer
 10
0.6999999999999997
 20
0.0499999999999998
 30
0.0
 11
0.6999999999999997
 21
-0.0500000000000003
 31
0.0
  0
LINE
  5
59
100
AcDbEntity
100
AcDbLine
  8
0
 62
0
370
-2
  6
ByLayer
 10
0.6999999999999997
 20
-0.0500000000000003
 30
0.0
 11
0.6599999999999997
 21
-0.0500000000000003
 31
0.0
  0
LINE
  5
5A
100
AcDbEntity
100
AcDbLine
  8
0
 62
0
370
-2
  6
ByLayer
 10
0.6599999999999997
 20
-0.02
 30
0.0
 11
0.6599999999999997
 21
0.02
 31
0.0
  0
LINE
  5
5B
100
AcDbEntity
100
AcDbLine
  8
0
 62
0
370
-2
  6
ByLayer
 10
0.6599999999999997
 20
0.02
 30
0.0
 11
0.6299999999999999
 21
0.0200000000000005
 31
0.0
  0
LINE
  5
5C
100
AcDbEntity
100
AcDbLine
  8
0
 62
0
370
-2
  6
ByLayer
 10
0.6299999999999999
 20
0.0200000000000005
 30
0.0
 11
0.6299999999999999
 21
-0.0199999999999991
 31
0.0
  0
LINE
  5
5D
100
AcDbEntity
100
AcDbLine
  8
0
 62
0
370
-2
  6
ByLayer
 10
0.6299999999999999
 20
-0.0199999999999991
 30
0.0
 11
0.6599999999999997
 21
-0.02
 31
0.0
  0
LINE
  5
5E
100
AcDbEntity
100
AcDbLine
  8
0
 62
0
370
-2
  6
ByLayer
 10
0.04
 20
-0.0499999999999998
 30
0.0
 11
0.04
 21
0.0499999999999998
 31
0.0
  0
LINE
  5
5F
100
AcDbEntity
100
AcDbLine
  8
0
 62
0
370
-2
  6
ByLayer
 10
0.04
 20
0.0499999999999998
 30
0.0
 11
0.0
 21
0.0500000000000003
 31
0.0
  0
LINE
  5
60
100
AcDbEntity
100
AcDbLine
  8
0
 62
0
370
-2
  6
ByLayer
 10
0.0
 20
0.0500000000000003
 30
0.0
 11
0.0
 21
-0.0499999999999998
 31
0.0
  0
LINE
  5
61
100
AcDbEntity
100
AcDbLine
  8
0
 62
0
370
-2
  6
ByLayer
 10
0.0
 20
-0.0499999999999998
 30
0.0
 11
0.04
 21
-0.0499999999999998
 31
0.0
  0
LINE
  5
62
100
AcDbEntity
100
AcDbLine
  8
0
 62
0
370
-2
  6
ByLayer
 10
0.04
 20
-0.02
 30
0.0
 11
0.04
 21
0.02
 31
0.0
  0
LINE
  5
63
100
AcDbEntity
100
AcDbLine
  8
0
 62
0
370
-2
  6
ByLayer
 10
0.04
 20
0.02
 30
0.0
 11
0.0699999999999998
 21
0.02
 31
0.0
  0
LINE
  5
64
100
AcDbEntity
100
AcDbLine
  8
0
 62
0
370
-2
  6
ByLayer
 10
0.0699999999999998
 20
0.02
 30
0.0
 11
0.0699999999999998
 21
-0.02
 31
0.0
  0
LINE
  5
65
100
AcDbEntity
100
AcDbLine
  8
0
 62
0
370
-2
  6
ByLayer
 10
0.0699999999999998
 20
-0.02
 30
0.0
 11
0.04
 21
-0.02
 31
0.0
  0
LINE
  5
66
100
AcDbEntity
100
AcDbLine
  8
0
 62
0
370
-2
  6
ByLayer
 10
0.6599999999999997
 20
0.0499999999999998
 30
0.0
 11
0.04
 21
0.0499999999999998
 31
0.0
  0
LINE
  5
67
100
AcDbEntity
100
AcDbLine
  8
0
 62
0
370
-2
  6
ByLayer
 10
0.04
 20
-0.0499999999999998
 30
0.0
 11
0.6599999999999997
 21
-0.0500000000000003
 31
0.0
  0
LINE
  5
68
100
AcDbEntity
100
AcDbLine
  8
0
 62
0
370
-2
  6
ByLayer
 10
0.04
 20
0.0499999999999998
 30
0.0
 11
0.0699999999999998
 21
0.0499999999999998
 31
0.0
  0
LINE
  5
69
100
AcDbEntity
100
AcDbLine
  8
0
 62
0
370
-2
  6
ByLayer
 10
0.0699999999999998
 20
0.0499999999999998
 30
0.0
 11
0.0699999999999998
 21
0.6400000000000001
 31
0.0
  0
LINE
  5
6A
100
AcDbEntity
100
AcDbLine
  8
0
 62
0
370
-2
  6
ByLayer
 10
0.0699999999999998
 20
0.6400000000000001
 30
0.0
 11
0.04
 21
0.6400000000000001
 31
0.0
  0
LINE
  5
6B
100
AcDbEntity
100
AcDbLine
  8
0
 62
0
370
-2
  6
ByLayer
 10
0.04
 20
0.6400000000000001
 30
0.0
 11
0.04
 21
0.0499999999999998
 31
0.0
  0
ARC
  5
6C
100
AcDbEntity
  8
0
 62
0
370
-2
  6
ByLayer
100
AcDbCircle
 10
0.0715322268259504
 20
0.0515322268259508
 30
0.0
 40
0.5884697679434948
100
AcDbArc
 50
359.8508160752485878
 51
90.149183924751739
  0
ENDBLK
  5
6D
100
AcDbEntity
  8
0
100
AcDbBlockEnd
  0
BLOCK
  5
6E
100
AcDbEntity
  8
0
100
AcDbBlockBegin
  2
toilet-0
 70
0
 10
0.0
 20
0.0
 30
0.0
  3
toilet-0
  1

  0
LINE
  5
6F
100
AcDbEntity
100
AcDbLine
  8
0
 62
0
370
-2
  6
ByLayer
 10
0.0
 20
0.0
 30
0.0
 11
0.2800000000000002
 21
0.0
 31
0.0
  0
ELLIPSE
  5
70
100
AcDbEntity
100
AcDbEllipse
  8
0
 62
0
370
-2
  6
ByLayer
 10
0.1399999999999997
 20
0.2999999999999998
 30
0.0
 11
0.0
 21
0.2000000000000002
 31
0.0
 40
0.7499999999999994
 41
4.0688878715914054
 42
2.2142974355881808
  0
LINE
  5
71
100
AcDbEntity
100
AcDbLine
  8
0
 62
0
370
-2
  6
ByLayer
 10
0.0
 20
0.0999999999999996
 30
0.0
 11
0.2800000000000002
 21
0.0999999999999996
 31
0.0
  0
LINE
  5
72
100
AcDbEntity
100
AcDbLine
  8
0
 62
0
370
-2
  6
ByLayer
 10
0.0199999999999996
 20
0.0999999999999996
 30
0.0
 11
0.0199999999999996
 21
0.1799999999999997
 31
0.0
  0
LINE
  5
73
100
AcDbEntity
100
AcDbLine
  8
0
 62
0
370
-2
  6
ByLayer
 10
0.2599999999999998
 20
0.0999999999999996
 30
0.0
 11
0.2599999999999998
 21
0.1799999999999997
 31
0.0
  0
LINE
  5
74
100
AcDbEntity
100
AcDbLine
  8
0
 62
0
370
-2
  6
ByLayer
 10
0.2800000000000002
 20
0.0
 30
0.0
 11
0.2800000000000002
 21
0.0999999999999996
 31
0.0
  0
LINE
  5
75
100
AcDbEntity
100
AcDbLine
  8
0
 62
0
370
-2
  6
ByLayer
 10
0.0
 20
0.0
 30
0.0
 11
0.0
 21
0.0999999999999996
 31
0.0
  0
ELLIPSE
  5
76
100
AcDbEntity
100
AcDbEllipse
  8
0
 62
0
370
-2
  6
ByLayer
 10
0.1399999999999997
 20
0.2999999999999998
 30
0.0
 11
0.0000000000000001
 21
0.1499999999999995
 31
0.0
 40
0.6666666666666704
 41
0.0
 42
6.2831853071795862
  0
ENDBLK
  5
77
100
AcDbEntity
  8
0
100
AcDbBlockEnd
  0
BLOCK
  5
78
100
AcDbEntity
  8
0
100
AcDbBlockBegin
  2
bed_single_90_200-0
 70
0
 10
0.0
 20
0.0
 30
0.0
  3
bed_single_90_200-0
  1

  0
LINE
  5
79
100
AcDbEntity
100
AcDbLine
  8
0
 62
0
370
-2
  6
ByLayer
 10
0.4732050807568877
 20
1.3999999999999999
 30
0.0
 11
0.8999999999999999
 21
1.3999999999999999
 31
0.0
  0
LINE
  5
7A
100
AcDbEntity
100
AcDbLine
  8
0
 62
0
370
-2
  6
ByLayer
 10
0.2393950216991268
 20
0.913779310791393
 30
0.0
 11
0.3725625646878168
 21
1.4107673471442972
 31
0.0
  0
LINE
  5
7B
100
AcDbEntity
100
AcDbLine
  8
0
 62
0
370
-2
  6
ByLayer
 10
0.2876913130135825
 20
0.9008383585362663
 30
0.0
 11
-0.000000000000002
 21
0.9779250135277056
 31
0.0
  0
ARC
  5
7C
100
AcDbEntity
  8
0
 62
0
370
-2
  6
ByLayer
100
AcDbCircle
 10
0.3006322652687086
 20
0.9491346498507198
 30
0.0
 40
0.05
100
AcDbArc
 50
255.0000000000000284
 51
345.0
  0
ARC
  5
7D
100
AcDbEntity
  8
0
 62
0
370
-2
  6
ByLayer
100
AcDbCircle
 10
0.8500000000000001
 20
1.9500000000000006
 30
0.0
 40
0.05
100
AcDbArc
 50
0.0
 51
90.0
  0
LINE
  5
7E
100
AcDbEntity
100
AcDbLine
  8
0
 62
0
370
-2
  6
ByLayer
 10
0.8500000000000001
 20
2.0000000000000004
 30
0.0
 11
0.05
 21
2.0000000000000004
 31
0.0
  0
ARC
  5
7F
100
AcDbEntity
  8
0
 62
0
370
-2
  6
ByLayer
100
AcDbCircle
 10
0.05
 20
1.9500000000000006
 30
0.0
 40
0.05
100
AcDbArc
 50
89.9999999999999574
 51
180.0
  0
LINE
  5
80
100
AcDbEntity
100
AcDbLine
  8
0
 62
0
370
-2
  6
ByLayer
 10
0.0
 20
1.9500000000000006
 30
0.0
 11
0.0
 21
0.0500000000000003
 31
0.0
  0
ARC
  5
81
100
AcDbEntity
  8
0
 62
0
370
-2
  6
ByLayer
100
AcDbCircle
 10
0.05
 20
0.0499999999999998
 30
0.0
 40
0.05
100
AcDbArc
 50
180.0
 51
270.0
  0
LINE
  5
82
100
AcDbEntity
100
AcDbLine
  8
0
 62
0
370
-2
  6
ByLayer
 10
0.9000000000000001
 20
0.0499999999999998
 30
0.0
 11
0.9000000000000001
 21
1.9500000000000006
 31
0.0
  0
LINE
  5
83
100
AcDbEntity
100
AcDbLine
  8
0
 62
0
370
-2
  6
ByLayer
 10
0.05
 20
0.0
 30
0.0
 11
0.8500000000000001
 21
0.0
 31
0.0
  0
ARC
  5
84
100
AcDbEntity
  8
0
 62
0
370
-2
  6
ByLayer
100
AcDbCircle
 10
0.8500000000000001
 20
0.0499999999999998
 30
0.0
 40
0.05
100
AcDbArc
 50
270.0
 51
0.0
  0
ARC
  5
85
100
AcDbEntity
  8
0
 62
0
370
-2
  6
ByLayer
100
AcDbCircle
 10
0.5383663493989481
 20
1.4500000000000002
 30
0.0
 40
0.05
100
AcDbArc
 50
90.0
 51
165.0000000000002558
  0
ARC
  5
86
100
AcDbEntity
  8
0
 62
0
370
-2
  6
ByLayer
100
AcDbCircle
 10
0.5315298788878985
 20
1.3999999999999999
 30
0.0
 40
0.1
100
AcDbArc
 50
90.0
 51
125.0000000000000426
  0
ARC
  5
87
100
AcDbEntity
  8
0
 62
0
370
-2
  6
ByLayer
100
AcDbCircle
 10
0.8500000000000001
 20
1.4500000000000002
 30
0.0
 40
0.05
100
AcDbArc
 50
0.0
 51
90.0
  0
LINE
  5
88
100
AcDbEntity
100
AcDbLine
  8
0
 62
0
370
-2
  6
ByLayer
 10
0.348928556583162
 20
0.9361936975955936
 30
0.0
 11
0.4900700580844946
 21
1.462940952255126
 31
0.0
  0
LINE
  5
89
100
AcDbEntity
100
AcDbLine
  8
0
 62
0
370
-2
  6
ByLayer
 10
-0.000000000000002
 20
1.1498962308951435
 30
0.0
 11
0.4741722352527938
 21
1.481915204428899
 31
0.0
  0
LINE
  5
8A
100
AcDbEntity
100
AcDbLine
  8
0
 62
0
370
-2
  6
ByLayer
 10
0.5315298788878985
 20
1.5000000000000004
 30
0.0
 11
0.8500000000000001
 21
1.5000000000000004
 31
0.0
  0
ARC
  5
8B
100
AcDbEntity
  8
0
 62
0
370
-2
  6
ByLayer
100
AcDbCircle
 10
0.2000000000000001
 20
1.8500000000000001
 30
0.0
 40
0.05
100
AcDbArc
 50
90.0
 51
180.0
  0
LINE
  5
8C
100
AcDbEntity
100
AcDbLine
  8
0
 62
0
370
-2
  6
ByLayer
 10
0.1500000000000001
 20
1.6500000000000004
 30
0.0
 11
0.1500000000000001
 21
1.8500000000000001
 31
0.0
  0
ARC
  5
8D
100
AcDbEntity
  8
0
 62
0
370
-2
  6
ByLayer
100
AcDbCircle
 10
0.2000000000000001
 20
1.6500000000000004
 30
0.0
 40
0.05
100
AcDbArc
 50
180.0
 51
270.0
  0
ARC
  5
8E
100
AcDbEntity
  8
0
 62
0
370
-2
  6
ByLayer
100
AcDbCircle
 10
0.7000000000000001
 20
1.6500000000000004
 30
0.0
 40
0.05
100
AcDbArc
 50
270.0
 51
0.0
  0
LINE
  5
8F
100
AcDbEntity
100
AcDbLine
  8
0
 62
0
370
-2
  6
ByLayer
 10
0.7500000000000001
 20
1.8500000000000001
 30
0.0
 11
0.7500000000000001
 21
1.6500000000000004
 31
0.0
  0
ARC
  5
90
100
AcDbEntity
  8
0
 62
0
370
-2
  6
ByLayer
100
AcDbCircle
 10
0.7000000000000001
 20
1.8500000000000001
 30
0.0
 40
0.05
100
AcDbArc
 50
0.0
 51
90.0
  0
LINE
  5
91
100
AcDbEntity
100
AcDbLine
  8
0
 62
0
370
-2
  6
ByLayer
 10
0.7000000000000001
 20
1.6000000000000001
 30
0.0
 11
0.2000000000000001
 21
1.6000000000000001
 31
0.0
  0
LINE
  5
92
100
AcDbEntity
100
AcDbLine
  8
0
 62
0
370
-2
  6
ByLayer
 10
0.2000000000000001
 20
1.8999999999999999
 30
0.0
 11
0.7000000000000001
 21
1.8999999999999999
 31
0.0
  0
ENDBLK
  5
93
100
AcDbEntity
  8
0
100
AcDbBlockEnd
  0
BLOCK
  5
94
100
AcDbEntity
  8
0
100
AcDbBlockBegin
  2
bed_double_180_200-0
 70
0
 10
0.0
 20
0.0
 30
0.0
  3
bed_double_180_200-0
  1

  0
ARC
  5
95
100
AcDbEntity
  8
0
 62
0
370
-2
  6
ByLayer
100
AcDbCircle
 10
0.05
 20
1.9500000000000002
 30
0.0
 40
0.05
100
AcDbArc
 50
89.9999999999999574
 51
180.0
  0
LINE
  5
96
100
AcDbEntity
100
AcDbLine
  8
0
 62
0
370
-2
  6
ByLayer
 10
0.0
 20
1.9500000000000002
 30
0.0
 11
0.0
 21
0.0500000000000007
 31
0.0
  0
ARC
  5
97
100
AcDbEntity
  8
0
 62
0
370
-2
  6
ByLayer
100
AcDbCircle
 10
0.05
 20
0.0499999999999998
 30
0.0
 40
0.05
100
AcDbArc
 50
180.0
 51
270.0
  0
ARC
  5
98
100
AcDbEntity
  8
0
 62
0
370
-2
  6
ByLayer
100
AcDbCircle
 10
0.2000000000000001
 20
1.8500000000000005
 30
0.0
 40
0.05
100
AcDbArc
 50
90.0
 51
180.0
  0
LINE
  5
99
100
AcDbEntity
100
AcDbLine
  8
0
 62
0
370
-2
  6
ByLayer
 10
0.1500000000000001
 20
1.6500000000000004
 30
0.0
 11
0.1500000000000001
 21
1.8500000000000005
 31
0.0
  0
ARC
  5
9A
100
AcDbEntity
  8
0
 62
0
370
-2
  6
ByLayer
100
AcDbCircle
 10
0.2000000000000001
 20
1.6500000000000004
 30
0.0
 40
0.05
100
AcDbArc
 50
180.0
 51
270.0
  0
ARC
  5
9B
100
AcDbEntity
  8
0
 62
0
370
-2
  6
ByLayer
100
AcDbCircle
 10
0.7000000000000001
 20
1.6500000000000004
 30
0.0
 40
0.05
100
AcDbArc
 50
270.0
 51
0.0
  0
LINE
  5
9C
100
AcDbEntity
100
AcDbLine
  8
0
 62
0
370
-2
  6
ByLayer
 10
0.7500000000000001
 20
1.8500000000000005
 30
0.0
 11
0.7500000000000001
 21
1.6500000000000004
 31
0.0
  0
ARC
  5
9D
100
AcDbEntity
  8
0
 62
0
370
-2
  6
ByLayer
100
AcDbCircle
 10
0.7000000000000001
 20
1.8500000000000005
 30
0.0
 40
0.05
100
AcDbArc
 50
0.0
 51
90.0
  0
LINE
  5
9E
100
AcDbEntity
100
AcDbLine
  8
0
 62
0
370
-2
  6
ByLayer
 10
0.7000000000000001
 20
1.6000000000000005
 30
0.0
 11
0.2000000000000001
 21
1.6000000000000005
 31
0.0
  0
LINE
  5
9F
100
AcDbEntity
100
AcDbLine
  8
0
 62
0
370
-2
  6
ByLayer
 10
0.2000000000000001
 20
1.9000000000000004
 30
0.0
 11
0.7000000000000001
 21
1.9000000000000004
 31
0.0
  0
ARC
  5
A0
100
AcDbEntity
  8
0
 62
0
370
-2
  6
ByLayer
100
AcDbCircle
 10
1.75
 20
1.9500000000000002
 30
0.0
 40
0.05
100
AcDbArc
 50
0.0
 51
90.0
  0
LINE
  5
A1
100
AcDbEntity
100
AcDbLine
  8
0
 62
0
370
-2
  6
ByLayer
 10
1.75
 20
2.0
 30
0.0
 11
0.05
 21
2.0
 31
0.0
  0
LINE
  5
A2
100
AcDbEntity
100
AcDbLine
  8
0
 62
0
370
-2
  6
ByLayer
 10
1.7999999999999998
 20
0.0499999999999998
 30
0.0
 11
1.7999999999999998
 21
1.9500000000000002
 31
0.0
  0
LINE
  5
A3
100
AcDbEntity
100
AcDbLine
  8
0
 62
0
370
-2
  6
ByLayer
 10
0.05
 20
0.0
 30
0.0
 11
1.75
 21
0.0
 31
0.0
  0
ARC
  5
A4
100
AcDbEntity
  8
0
 62
0
370
-2
  6
ByLayer
100
AcDbCircle
 10
1.75
 20
0.0499999999999998
 30
0.0
 40
0.05
100
AcDbArc
 50
270.0
 51
0.0
  0
ARC
  5
A5
100
AcDbEntity
  8
0
 62
0
370
-2
  6
ByLayer
100
AcDbCircle
 10
1.75
 20
1.4500000000000002
 30
0.0
 40
0.05
100
AcDbArc
 50
0.0
 51
90.0
  0
ARC
  5
A6
100
AcDbEntity
  8
0
 62
0
370
-2
  6
ByLayer
100
AcDbCircle
 10
1.1000000000000001
 20
1.8500000000000005
 30
0.0
 40
0.05
100
AcDbArc
 50
90.0
 51
180.0
  0
LINE
  5
A7
100
AcDbEntity
100
AcDbLine
  8
0
 62
0
370
-2
  6
ByLayer
 10
1.05
 20
1.6500000000000004
 30
0.0
 11
1.05
 21
1.8500000000000005
 31
0.0
  0
ARC
  5
A8
100
AcDbEntity
  8
0
 62
0
370
-2
  6
ByLayer
100
AcDbCircle
 10
1.1000000000000001
 20
1.6500000000000004
 30
0.0
 40
0.05
100
AcDbArc
 50
180.0
 51
270.0
  0
ARC
  5
A9
100
AcDbEntity
  8
0
 62
0
370
-2
  6
ByLayer
100
AcDbCircle
 10
1.6000000000000001
 20
1.6500000000000004
 30
0.0
 40
0.05
100
AcDbArc
 50
270.0
 51
0.0
  0
LINE
  5
AA
100
AcDbEntity
100
AcDbLine
  8
0
 62
0
370
-2
  6
ByLayer
 10
1.6500000000000001
 20
1.8500000000000005
 30
0.0
 11
1.6500000000000001
 21
1.6500000000000004
 31
0.0
  0
ARC
  5
AB
100
AcDbEntity
  8
0
 62
0
370
-2
  6
ByLayer
100
AcDbCircle
 10
1.6000000000000001
 20
1.8500000000000014
 30
0.0
 40
0.05
100
AcDbArc
 50
0.0
 51
90.0
  0
LINE
  5
AC
100
AcDbEntity
100
AcDbLine
  8
0
 62
0
370
-2
  6
ByLayer
 10
1.6000000000000001
 20
1.6000000000000005
 30
0.0
 11
1.1000000000000001
 21
1.6000000000000005
 31
0.0
  0
LINE
  5
AD
100
AcDbEntity
100
AcDbLine
  8
0
 62
0
370
-2
  6
ByLayer
 10
1.1000000000000001
 20
1.9000000000000004
 30
0.0
 11
1.6000000000000001
 21
1.9000000000000004
 31
0.0
  0
ARC
  5
AE
100
AcDbEntity
  8
0
 62
0
370
-2
  6
ByLayer
100
AcDbCircle
 10
1.0
 20
1.4500000000000002
 30
0.0
 40
0.05
100
AcDbArc
 50
90.0
 51
165.0000000000002558
  0
ARC
  5
AF
100
AcDbEntity
  8
0
 62
0
370
-2
  6
ByLayer
100
AcDbCircle
 10
0.9931635294889504
 20
1.4000000000000004
 30
0.0
 40
0.1
100
AcDbArc
 50
90.0
 51
125.0000000000000426
  0
ARC
  5
B0
100
AcDbEntity
  8
0
 62
0
370
-2
  6
ByLayer
100
AcDbCircle
 10
0.6594918303783812
 20
0.5655765410954645
 30
0.0
 40
0.05
100
AcDbArc
 50
255.0000000000000284
 51
345.0
  0
LINE
  5
B1
100
AcDbEntity
100
AcDbLine
  8
0
 62
0
370
-2
  6
ByLayer
 10
0.7077881216928347
 20
0.5526355888403387
 30
0.0
 11
0.9517037086855464
 21
1.462940952255126
 31
0.0
  0
LINE
  5
B2
100
AcDbEntity
100
AcDbLine
  8
0
 62
0
370
-2
  6
ByLayer
 10
0.6465508781232552
 20
0.5172802497810114
 30
0.0
 11
0.0
 21
0.6905230354397709
 31
0.0
  0
LINE
  5
B3
100
AcDbEntity
100
AcDbLine
  8
0
 62
0
370
-2
  6
ByLayer
 10
0.0
 20
0.8266568688530214
 30
0.0
 11
0.9358058858538456
 21
1.4819152044288995
 31
0.0
  0
LINE
  5
B4
100
AcDbEntity
100
AcDbLine
  8
0
 62
0
370
-2
  6
ByLayer
 10
0.5982545868087994
 20
0.5302212020361381
 30
0.0
 11
0.8341962152888687
 21
1.4107673471442972
 31
0.0
  0
LINE
  5
B5
100
AcDbEntity
100
AcDbLine
  8
0
 62
0
370
-2
  6
ByLayer
 10
0.9348387313579396
 20
1.4000000000000004
 30
0.0
 11
1.7999999999999998
 21
1.4000000000000004
 31
0.0
  0
LINE
  5
B6
100
AcDbEntity
100
AcDbLine
  8
0
 62
0
370
-2
  6
ByLayer
 10
1.0
 20
1.5
 30
0.0
 11
1.75
 21
1.5
 31
0.0
  0
LINE
  5
B7
100
AcDbEntity
100
AcDbLine
  8
0
 62
0
370
-2
  6
ByLayer
 10
0.5016620041798926
 20
0.5561031065463897
 30
0.0
 11
0.7067587799766887
 21
1.3215346942885962
 31
0.0
  0
LINE
  5
B8
100
AcDbEntity
100
AcDbLine
  8
windows
 62
0
370
-2
  6
ByBlock
 10
0.9080438121148274
 20
1.3000000000000003
 30
0.0
 11
1.7999999999999998
 21
1.3000000000000003
 31
0.0
  0
ENDBLK
  5
B9
100
AcDbEntity
  8
0
100
AcDbBlockEnd
  0
BLOCK
  5
BA
100
AcDbEntity
  8
0
100
AcDbBlockBegin
  2
sink-0
 70
0
 10
0.0
 20
0.0
 30
0.0
  3
sink-0
  1

  0
ELLIPSE
  5
BB
100
AcDbEntity
100
AcDbEllipse
  8
0
 62
0
370
-2
  6
ByLayer
 10
0.0
 20
0.1400000000000006
 30
0.0
 11
0.0
 21
0.1399999999999997
 31
0.0
 40
1.1428571428571466
 41
4.7123889803846897
 42
1.5707963267948966
  0
ARC
  5
BC
100
AcDbEntity
  8
0
 62
0
370
-2
  6
ByLayer
100
AcDbCircle
 10
0.0
 20
0.1000000000000005
 30
0.0
 40
0.1999999999999993
100
AcDbArc
 50
329.9999999999997158
 51
210.0000000000002842
  0
ARC
  5
BD
100
AcDbEntity
  8
0
 62
0
370
-2
  6
ByLayer
100
AcDbCircle
 10
-0.126491106406735
 20
0.0700000000000003
 30
0.0
 40
0.05
100
AcDbArc
 50
193.3423637970882396
 51
270.0
  0
ARC
  5
BE
100
AcDbEntity
  8
0
 62
0
370
-2
  6
ByLayer
100
AcDbCircle
 10
0.1264911064067347
 20
0.0700000000000003
 30
0.0
 40
0.05
100
AcDbArc
 50
270.0
 51
346.6576362029117604
  0
ARC
  5
BF
100
AcDbEntity
  8
0
 62
0
370
-2
  6
ByLayer
100
AcDbCircle
 10
0.0
 20
0.1000000000000005
 30
0.0
 40
0.1799999999999997
100
AcDbArc
 50
346.6576362029116467
 51
193.3423637970883533
  0
LINE
  5
C0
100
AcDbEntity
100
AcDbLine
  8
0
 62
0
370
-2
  6
ByLayer
 10
0.1264911064067347
 20
0.0200000000000005
 30
0.0
 11
-0.126491106406735
 21
0.0200000000000005
 31
0.0
  0
LINE
  5
C1
100
AcDbEntity
100
AcDbLine
  8
0
 62
0
370
-2
  6
ByLayer
 10
0.1732050807568868
 20
0.0
 30
0.0
 11
-0.1732050807568867
 21
0.0
 31
0.0
  0
LINE
  5
C2
100
AcDbEntity
100
AcDbLine
  8
0
 62
0
370
-2
  6
ByLayer
 10
0.0150000000000001
 20
0.120000000000001
 30
0.0
 11
0.0150000000000001
 21
0.0500000000000007
 31
0.0
  0
LINE
  5
C3
100
AcDbEntity
100
AcDbLine
  8
0
 62
0
370
-2
  6
ByLayer
 10
-0.0149999999999999
 20
0.0500000000000007
 30
0.0
 11
-0.0149999999999999
 21
0.120000000000001
 31
0.0
  0
ARC
  5
C4
100
AcDbEntity
  8
0
 62
0
370
-2
  6
ByLayer
100
AcDbCircle
 10
0.0
 20
0.1200000000000001
 30
0.0
 40
0.0150000000000001
100
AcDbArc
 50
0.0
 51
180.0
  0
ARC
  5
C5
100
AcDbEntity
  8
0
 62
0
370
-2
  6
ByLayer
100
AcDbCircle
 10
0.0
 20
0.0499999999999998
 30
0.0
 40
0.0149999999999999
100
AcDbArc
 50
180.0
 51
0.0
  0
ELLIPSE
  5
C6
100
AcDbEntity
100
AcDbEllipse
  8
0
 62
0
370
-2
  6
ByLayer
 10
0.0
 20
0.1399999999999997
 30
0.0
 11
-0.1600000000000001
 21
0.0
 31
0.0
 40
0.3749999999999972
 41
0.0
 42
1.4769084516873812
  0
ELLIPSE
  5
C7
100
AcDbEntity
100
AcDbEllipse
  8
0
 62
0
370
-2
  6
ByLayer
 10
0.0
 20
0.1399999999999997
 30
0.0
 11
0.1600000000000001
 21
0.0
 31
0.0
 40
0.3749999999999972
 41
4.8062768554922055
 42
0.0
  0
CIRCLE
  5
C8
100
AcDbEntity
100
AcDbCircle
  8
0
 62
0
370
-2
  6
ByLayer
 10
0.0
 20
0.1699999999999999
 30
0.0
 40
0.0100000000000002
  0
CIRCLE
  5
C9
100
AcDbEntity
100
AcDbCircle
  8
0
 62
0
370
-2
  6
ByLayer
 10
0.0
 20
0.1699999999999999
 30
0.0
 40
0.012
  0
LINE
  5
CA
100
AcDbEntity
100
AcDbLine
  8
0
 62
0
370
-2
  6
ByLayer
 10
-0.0499999999999998
 20
0.0600000000000005
 30
0.0
 11
-0.0599999999999998
 21
0.0499999999999998
 31
0.0
  0
LINE
  5
CB
100
AcDbEntity
100
AcDbLine
  8
0
 62
0
370
-2
  6
ByLayer
 10
-0.0599999999999998
 20
0.0499999999999998
 30
0.0
 11
-0.0499999999999998
 21
0.04
 31
0.0
  0
LINE
  5
CC
100
AcDbEntity
100
AcDbLine
  8
0
 62
0
370
-2
  6
ByLayer
 10
-0.0499999999999998
 20
0.04
 30
0.0
 11
-0.0399999999999998
 21
0.0499999999999998
 31
0.0
  0
LINE
  5
CD
100
AcDbEntity
100
AcDbLine
  8
0
 62
0
370
-2
  6
ByLayer
 10
-0.0399999999999998
 20
0.0499999999999998
 30
0.0
 11
-0.0499999999999998
 21
0.0600000000000005
 31
0.0
  0
LINE
  5
CE
100
AcDbEntity
100
AcDbLine
  8
0
 62
0
370
-2
  6
ByLayer
 10
0.0500000000000003
 20
0.0600000000000005
 30
0.0
 11
0.04
 21
0.0500000000000007
 31
0.0
  0
LINE
  5
CF
100
AcDbEntity
100
AcDbLine
  8
0
 62
0
370
-2
  6
ByLayer
 10
0.04
 20
0.0500000000000007
 30
0.0
 11
0.0500000000000003
 21
0.04
 31
0.0
  0
LINE
  5
D0
100
AcDbEntity
100
AcDbLine
  8
0
 62
0
370
-2
  6
ByLayer
 10
0.0500000000000003
 20
0.04
 30
0.0
 11
0.0600000000000005
 21
0.0500000000000007
 31
0.0
  0
LINE
  5
D1
100
AcDbEntity
100
AcDbLine
  8
0
 62
0
370
-2
  6
ByLayer
 10
0.0600000000000005
 20
0.0500000000000007
 30
0.0
 11
0.0500000000000003
 21
0.0600000000000005
 31
0.0
  0
ENDBLK
  5
D2
100
AcDbEntity
  8
0
100
AcDbBlockEnd
  0
BLOCK
  5
D3
100
AcDbEntity
  8
0
100
AcDbBlockBegin
  2
shower-0
 70
0
 10
0.0
 20
0.0
 30
0.0
  3
shower-0
  1

  0
LINE
  5
D4
100
AcDbEntity
100
AcDbLine
  8
0
 62
0
370
-2
  6
ByLayer
 10
-0.3499999999999999
 20
0.0
 30
0.0
 11
0.3500000000000001
 21
0.0
 31
0.0
  0
LINE
  5
D5
100
AcDbEntity
100
AcDbLine
  8
0
 62
0
370
-2
  6
ByLayer
 10
0.3500000000000001
 20
0.0
 30
0.0
 11
0.3500000000000001
 21
0.6999999999999993
 31
0.0
  0
LINE
  5
D6
100
AcDbEntity
100
AcDbLine
  8
0
 62
0
370
-2
  6
ByLayer
 10
0.3500000000000001
 20
0.6999999999999993
 30
0.0
 11
-0.3499999999999999
 21
0.6999999999999993
 31
0.0
  0
LINE
  5
D7
100
AcDbEntity
100
AcDbLine
  8
0
 62
0
370
-2
  6
ByLayer
 10
-0.3499999999999999
 20
0.6999999999999993
 30
0.0
 11
-0.3499999999999999
 21
0.0
 31
0.0
  0
LINE
  5
D8
100
AcDbEntity
100
AcDbLine
  8
0
 62
0
370
-2
  6
ByLayer
 10
0.3200000000000003
 20
0.0300000000000002
 30
0.0
 11
0.3200000000000003
 21
0.669999999999999
 31
0.0
  0
LINE
  5
D9
100
AcDbEntity
100
AcDbLine
  8
0
 62
0
370
-2
  6
ByLayer
 10
0.3200000000000003
 20
0.669999999999999
 30
0.0
 11
-0.3200000000000005
 21
0.669999999999999
 31
0.0
  0
LINE
  5
DA
100
AcDbEntity
100
AcDbLine
  8
0
 62
0
370
-2
  6
ByLayer
 10
-0.3200000000000005
 20
0.0300000000000002
 30
0.0
 11
0.3200000000000003
 21
0.0300000000000002
 31
0.0
  0
LINE
  5
DB
100
AcDbEntity
100
AcDbLine
  8
0
 62
0
370
-2
  6
ByLayer
 10
-0.3200000000000005
 20
0.669999999999999
 30
0.0
 11
-0.3200000000000005
 21
0.0300000000000002
 31
0.0
  0
CIRCLE
  5
DC
100
AcDbEntity
100
AcDbCircle
  8
0
 62
0
370
-2
  6
ByLayer
 10
0.25
 20
0.6000000000000005
 30
0.0
 40
0.02
  0
CIRCLE
  5
DD
100
AcDbEntity
100
AcDbCircle
  8
0
 62
0
370
-2
  6
ByLayer
 10
0.25
 20
0.6000000000000005
 30
0.0
 40
0.016
  0
LINE
  5
DE
100
AcDbEntity
100
AcDbLine
  8
0
 62
0
370
-2
  6
ByLayer
 10
0.25
 20
0.0999999999999996
 30
0.0
 11
0.25
 21
0.4999999999999991
 31
0.0
  0
LINE
  5
DF
100
AcDbEntity
100
AcDbLine
  8
0
 62
0
370
-2
  6
ByLayer
 10
0.1499999999999999
 20
0.5999999999999996
 30
0.0
 11
-0.2500000000000002
 21
0.5999999999999996
 31
0.0
  0
LINE
  5
E0
100
AcDbEntity
100
AcDbLine
  8
0
 62
0
370
-2
  6
ByLayer
 10
0.1499999999999999
 20
0.4999999999999991
 30
0.0
 11
-0.2500000000000002
 21
0.0999999999999996
 31
0.0
  0
LINE
  5
E1
100
AcDbEntity
100
AcDbLine
  8
0
 62
0
370
-2
  6
ByLayer
 10
0.0100000000000002
 20
0.1317157287525372
 30
0.0
 11
0.0099999999999998
 21
0.0300000000000002
 31
0.0
  0
LINE
  5
E2
100
AcDbEntity
100
AcDbLine
  8
0
 62
0
370
-2
  6
ByLayer
 10
-0.0099999999999993
 20
0.1317157287525372
 30
0.0
 11
-0.0099999999999998
 21
0.0300000000000002
 31
0.0
  0
ARC
  5
E3
100
AcDbEntity
  8
0
 62
0
370
-2
  6
ByLayer
100
AcDbCircle
 10
0.0000000000000004
 20
0.1599999999999993
 30
0.0
 40
0.0299999999999998
100
AcDbArc
 50
289.471220634490237
 51
250.528779365509763
  0
ENDBLK
  5
E4
100
AcDbEntity
  8
0
100
AcDbBlockEnd
  0
BLOCK
  5
E5
100
AcDbEntity
  8
0
100
AcDbBlockBegin
  2
bath-0
 70
0
 10
0.0
 20
0.0
 30
0.0
  3
bath-0
  1

  0
LINE
  5
E6
100
AcDbEntity
100
AcDbLine
  8
0
 62
0
370
-2
  6
ByLayer
 10
0.0
 20
0.5500000000000007
 30
0.0
 11
0.0
 21
0.0
 31
0.0
  0
ELLIPSE
  5
E7
100
AcDbEntity
100
AcDbEllipse
  8
0
 62
0
370
-2
  6
ByLayer
 10
0.2000000000000011
 20
0.2750000000000012
 30
0.0
 11
0.0
 21
0.2150000000000007
 31
0.0
 40
0.6976744186046462
 41
0.0
 42
3.1415926535897931
  0
LINE
  5
E8
100
AcDbEntity
100
AcDbLine
  8
0
 62
0
370
-2
  6
ByLayer
 10
0.0
 20
0.0
 30
0.0
 11
1.1800000000000002
 21
0.0
 31
0.0
  0
LINE
  5
E9
100
AcDbEntity
100
AcDbLine
  8
0
 62
0
370
-2
  6
ByLayer
 10
1.1800000000000002
 20
0.0
 30
0.0
 11
1.1800000000000002
 21
0.5500000000000007
 31
0.0
  0
LINE
  5
EA
100
AcDbEntity
100
AcDbLine
  8
0
 62
0
370
-2
  6
ByLayer
 10
1.1800000000000002
 20
0.5500000000000007
 30
0.0
 11
0.0
 21
0.5500000000000007
 31
0.0
  0
ARC
  5
EB
100
AcDbEntity
  8
0
 62
0
370
-2
  6
ByLayer
100
AcDbCircle
 10
1.0200000000000009
 20
0.3900000000000015
 30
0.0
 40
0.1
100
AcDbArc
 50
0.0
 51
90.0
  0
LINE
  5
EC
100
AcDbEntity
100
AcDbLine
  8
0
 62
0
370
-2
  6
ByLayer
 10
0.2000000000000011
 20
0.0600000000000005
 30
0.0
 11
1.0200000000000009
 21
0.0599999999999996
 31
0.0
  0
ARC
  5
ED
100
AcDbEntity
  8
0
 62
0
370
-2
  6
ByLayer
100
AcDbCircle
 10
1.0200000000000009
 20
0.1599999999999993
 30
0.0
 40
0.1
100
AcDbArc
 50
270.0
 51
0.0
  0
LINE
  5
EE
100
AcDbEntity
100
AcDbLine
  8
0
 62
0
370
-2
  6
ByLayer
 10
1.0200000000000009
 20
0.4900000000000011
 30
0.0
 11
0.2000000000000011
 21
0.490000000000002
 31
0.0
  0
LINE
  5
EF
100
AcDbEntity
100
AcDbLine
  8
0
 62
0
370
-2
  6
ByLayer
 10
1.0799999999999987
 20
0.29
 30
0.0
 11
1.1499999999999999
 21
0.29
 31
0.0
  0
LINE
  5
F0
100
AcDbEntity
100
AcDbLine
  8
0
 62
0
370
-2
  6
ByLayer
 10
1.1499999999999999
 20
0.2600000000000007
 30
0.0
 11
1.0799999999999987
 21
0.2600000000000007
 31
0.0
  0
ARC
  5
F1
100
AcDbEntity
  8
0
 62
0
370
-2
  6
ByLayer
100
AcDbCircle
 10
1.0799999999999996
 20
0.2750000000000004
 30
0.0
 40
0.0150000000000001
100
AcDbArc
 50
90.0
 51
270.0
  0
ARC
  5
F2
100
AcDbEntity
  8
0
 62
0
370
-2
  6
ByLayer
100
AcDbCircle
 10
1.1499999999999999
 20
0.2750000000000004
 30
0.0
 40
0.0149999999999999
100
AcDbArc
 50
270.0
 51
90.0
  0
LINE
  5
F3
100
AcDbEntity
100
AcDbLine
  8
0
 62
0
370
-2
  6
ByLayer
 10
1.1399999999999992
 20
0.2250000000000005
 30
0.0
 11
1.1499999999999999
 21
0.2150000000000007
 31
0.0
  0
LINE
  5
F4
100
AcDbEntity
100
AcDbLine
  8
0
 62
0
370
-2
  6
ByLayer
 10
1.1499999999999999
 20
0.2150000000000007
 30
0.0
 11
1.1599999999999997
 21
0.2250000000000005
 31
0.0
  0
LINE
  5
F5
100
AcDbEntity
100
AcDbLine
  8
0
 62
0
370
-2
  6
ByLayer
 10
1.1599999999999997
 20
0.2250000000000005
 30
0.0
 11
1.1499999999999999
 21
0.2350000000000003
 31
0.0
  0
LINE
  5
F6
100
AcDbEntity
100
AcDbLine
  8
0
 62
0
370
-2
  6
ByLayer
 10
1.1499999999999999
 20
0.2350000000000003
 30
0.0
 11
1.1399999999999992
 21
0.2250000000000005
 31
0.0
  0
LINE
  5
F7
100
AcDbEntity
100
AcDbLine
  8
0
 62
0
370
-2
  6
ByLayer
 10
1.1399999999999992
 20
0.3250000000000011
 30
0.0
 11
1.1499999999999999
 21
0.3150000000000004
 31
0.0
  0
LINE
  5
F8
100
AcDbEntity
100
AcDbLine
  8
0
 62
0
370
-2
  6
ByLayer
 10
1.1499999999999999
 20
0.3150000000000004
 30
0.0
 11
1.1599999999999997
 21
0.3250000000000011
 31
0.0
  0
LINE
  5
F9
100
AcDbEntity
100
AcDbLine
  8
0
 62
0
370
-2
  6
ByLayer
 10
1.1599999999999997
 20
0.3250000000000011
 30
0.0
 11
1.1499999999999999
 21
0.3350000000000009
 31
0.0
  0
LINE
  5
FA
100
AcDbEntity
100
AcDbLine
  8
0
 62
0
370
-2
  6
ByLayer
 10
1.1499999999999999
 20
0.3350000000000009
 30
0.0
 11
1.1399999999999992
 21
0.3250000000000011
 31
0.0
  0
CIRCLE
  5
FB
100
AcDbEntity
100
AcDbCircle
  8
0
 62
0
370
-2
  6
ByLayer
 10
1.02
 20
0.2750000000000004
 30
0.0
 40
0.0129999999999999
  0
CIRCLE
  5
FC
100
AcDbEntity
100
AcDbCircle
  8
0
 62
0
370
-2
  6
ByLayer
 10
1.02
 20
0.2750000000000004
 30
0.0
 40
0.0149999999999997
  0
LINE
  5
FD
100
AcDbEntity
100
AcDbLine
  8
0
 62
0
370
-2
  6
ByLayer
 10
1.1200000000000006
 20
0.1599999999999993
 30
0.0
 11
1.1200000000000006
 21
0.2600000000000007
 31
0.0
  0
LINE
  5
FE
100
AcDbEntity
100
AcDbLine
  8
0
 62
0
370
-2
  6
ByLayer
 10
1.1200000000000006
 20
0.29
 30
0.0
 11
1.1200000000000006
 21
0.3900000000000015
 31
0.0
  0
ENDBLK
  5
FF
100
AcDbEntity
  8
0
100
AcDbBlockEnd
  0
BLOCK
  5
100
100
AcDbEntity
  8
0
100
AcDbBlockBegin
  2
window_70-0
 70
0
 10
0.0
 20
0.0
 30
0.0
  3
window_70-0
  1

  0
LINE
  5
101
100
AcDbEntity
100
AcDbLine
  8
0
 62
0
370
-2
  6
ByLayer
 10
0.6599999999999997
 20
-0.0500000000000002
 30
0.0
 11
0.6599999999999997
 21
0.0499999999999999
 31
0.0
  0
LINE
  5
102
100
AcDbEntity
100
AcDbLine
  8
0
 62
0
370
-2
  6
ByLayer
 10
0.6599999999999997
 20
0.0499999999999999
 30
0.0
 11
0.6999999999999997
 21
0.0499999999999998
 31
0.0
  0
LINE
  5
103
100
AcDbEntity
100
AcDbLine
  8
0
 62
0
370
-2
  6
ByLayer
 10
0.6999999999999997
 20
0.0499999999999998
 30
0.0
 11
0.6999999999999997
 21
-0.0500000000000002
 31
0.0
  0
LINE
  5
104
100
AcDbEntity
100
AcDbLine
  8
0
 62
0
370
-2
  6
ByLayer
 10
0.6999999999999997
 20
-0.0500000000000002
 30
0.0
 11
0.6599999999999997
 21
-0.0500000000000002
 31
0.0
  0
LINE
  5
105
100
AcDbEntity
100
AcDbLine
  8
0
 62
0
370
-2
  6
ByLayer
 10
0.6599999999999997
 20
-0.02
 30
0.0
 11
0.6599999999999997
 21
0.0200000000000002
 31
0.0
  0
LINE
  5
106
100
AcDbEntity
100
AcDbLine
  8
0
 62
0
370
-2
  6
ByLayer
 10
0.6599999999999997
 20
0.0200000000000002
 30
0.0
 11
0.6299999999999999
 21
0.0200000000000006
 31
0.0
  0
LINE
  5
107
100
AcDbEntity
100
AcDbLine
  8
0
 62
0
370
-2
  6
ByLayer
 10
0.6299999999999999
 20
-0.0199999999999991
 30
0.0
 11
0.6599999999999997
 21
-0.02
 31
0.0
  0
LINE
  5
108
100
AcDbEntity
100
AcDbLine
  8
0
 62
0
370
-2
  6
ByLayer
 10
0.04
 20
-0.05
 30
0.0
 11
0.04
 21
0.0499999999999999
 31
0.0
  0
LINE
  5
109
100
AcDbEntity
100
AcDbLine
  8
0
 62
0
370
-2
  6
ByLayer
 10
0.04
 20
0.0499999999999999
 30
0.0
 11
0.0
 21
0.05
 31
0.0
  0
LINE
  5
10A
100
AcDbEntity
100
AcDbLine
  8
0
 62
0
370
-2
  6
ByLayer
 10
0.0
 20
0.05
 30
0.0
 11
0.0
 21
-0.05
 31
0.0
  0
LINE
  5
10B
100
AcDbEntity
100
AcDbLine
  8
0
 62
0
370
-2
  6
ByLayer
 10
0.0
 20
-0.05
 30
0.0
 11
0.04
 21
-0.05
 31
0.0
  0
LINE
  5
10C
100
AcDbEntity
100
AcDbLine
  8
0
 62
0
370
-2
  6
ByLayer
 10
0.04
 20
-0.02
 30
0.0
 11
0.04
 21
0.0199999999999998
 31
0.0
  0
LINE
  5
10D
100
AcDbEntity
100
AcDbLine
  8
0
 62
0
370
-2
  6
ByLayer
 10
0.04
 20
0.0199999999999998
 30
0.0
 11
0.0700000000000003
 21
0.0200000000000001
 31
0.0
  0
LINE
  5
10E
100
AcDbEntity
100
AcDbLine
  8
0
 62
0
370
-2
  6
ByLayer
 10
0.0700000000000003
 20
-0.0200000000000001
 30
0.0
 11
0.04
 21
-0.02
 31
0.0
  0
LINE
  5
10F
100
AcDbEntity
100
AcDbLine
  8
0
 62
0
370
-2
  6
ByLayer
 10
0.6599999999999997
 20
0.0499999999999999
 30
0.0
 11
0.04
 21
0.0499999999999999
 31
0.0
  0
LINE
  5
110
100
AcDbEntity
100
AcDbLine
  8
0
 62
0
370
-2
  6
ByLayer
 10
0.04
 20
-0.05
 30
0.0
 11
0.6599999999999997
 21
-0.0500000000000002
 31
0.0
  0
LINE
  5
111
100
AcDbEntity
100
AcDbLine
  8
0
 62
0
370
-2
  6
ByLayer
 10
0.0700000000000003
 20
0.0
 30
0.0
 11
0.6299999999999999
 21
0.0
 31
0.0
  0
LINE
  5
112
100
AcDbEntity
100
AcDbLine
  8
0
 62
0
370
-2
  6
ByLayer
 10
0.0700000000000003
 20
0.0200000000000001
 30
0.0
 11
0.0700000000000003
 21
-0.0200000000000001
 31
0.0
  0
LINE
  5
113
100
AcDbEntity
100
AcDbLine
  8
0
 62
0
370
-2
  6
ByLayer
 10
0.6299999999999999
 20
0.0200000000000006
 30
0.0
 11
0.6299999999999999
 21
-0.0199999999999991
 31
0.0
  0
ENDBLK
  5
114
100
AcDbEntity
  8
0
100
AcDbBlockEnd
  0
ENDSEC
  0
SECTION
  2
ENTITIES
  0
HATCH
  5
190
  8
filling
 62
256
370
-1
  6
ByLayer
100
AcDbEntity
100
AcDbHatch
 10
0.0
 20
0.0
 30
0.0
210
0.0
220
0.0
230
1.0
  2
SOLID
 70
1
 71
0
 91
1
 92
1
 93
66
 72
1
 10
0.0
 20
0.0
 11
4.6000000000000005
 21
0.0
 72
1
 10
4.6000000000000005
 20
0.0
 11
4.6000000000000005
 21
-1.2
 72
1
 10
4.6000000000000005
 20
-1.2
 11
4.4800000000000004
 21
-1.2
 72
1
 10
4.4800000000000004
 20
-1.2
 11
4.4800000000000004
 21
-0.12
 72
1
 10
4.4800000000000004
 20
-0.12
 11
2.4200000000000004
 21
-0.12
 72
1
 10
2.4200000000000004
 20
-0.12
 11
2.4200000000000004
 21
-2.3000000000000003
 72
1
 10
2.4200000000000004
 20
-2.3000000000000003
 11
2.4300000000000006
 21
-2.3000000000000003
 72
1
 10
2.4300000000000006
 20
-2.3000000000000003
 11
2.4300000000000006
 21
-2.4200000000000004
 72
1
 10
2.4300000000000006
 20
-2.4200000000000004
 11
2.3000000000000003
 21
-2.4200000000000004
 72
1
 10
2.3000000000000003
 20
-2.4200000000000004
 11
2.3000000000000003
 21
-0.12
 72
1
 10
2.3000000000000003
 20
-0.12
 11
0.12
 21
-0.12
 72
1
 10
0.12
 20
-0.12
 11
0.12
 21
-1.2
 72
1
 10
0.12
 20
-1.2
 11
0.0
 21
-1.2
 72
1
 10
0.0
 20
-1.2
 11
0.0
 21
0.0
 72
1
 10
4.6000000000000005
 20
-6.9000000000000004
 11
0.0
 21
-6.9000000000000004
 72
1
 10
0.0
 20
-6.9000000000000004
 11
0.0
 21
-5.0
 72
1
 10
0.0
 20
-5.0
 11
0.12
 21
-5.0
 72
1
 10
0.12
 20
-5.0
 11
0.12
 21
-5.8000000000000007
 72
1
 10
0.12
 20
-5.8000000000000007
 11
0.6
 21
-5.8000000000000007
 72
1
 10
0.6
 20
-5.7999999999999998
 11
0.6
 21
-5.9199999999999999
 72
1
 10
0.6
 20
-5.9200000000000008
 11
0.12
 21
-5.9200000000000008
 72
1
 10
0.12
 20
-5.9200000000000008
 11
0.12
 21
-6.7800000000000002
 72
1
 10
0.12
 20
-6.7800000000000002
 11
2.2999999999999998
 21
-6.7800000000000002
 72
1
 10
2.2999999999999998
 20
-6.7800000000000002
 11
2.2999999999999998
 21
-5.9199999999999999
 72
1
 10
2.2999999999999998
 20
-5.9199999999999999
 11
1.3
 21
-5.9199999999999999
 72
1
 10
1.3
 20
-5.9199999999999999
 11
1.3
 21
-5.7999999999999998
 72
1
 10
1.3
 20
-5.7999999999999998
 11
2.4199999999999999
 21
-5.7999999999999998
 72
1
 10
2.4199999999999999
 20
-5.7999999999999998
 11
2.4199999999999999
 21
-6.7800000000000002
 72
1
 10
2.4199999999999999
 20
-6.7800000000000002
 11
3.1800000000000002
 21
-6.7800000000000002
 72
1
 10
3.1800000000000002
 20
-6.7800000000000002
 11
3.1800000000000002
 21
-6.04
 72
1
 10
3.1800000000000002
 20
-6.04
 11
3.8600000000000003
 21
-6.04
 72
1
 10
3.8600000000000003
 20
-6.04
 11
3.8600000000000003
 21
-6.1599999999999993
 72
1
 10
3.8600000000000003
 20
-6.1599999999999993
 11
3.3000000000000003
 21
-6.1599999999999993
 72
1
 10
3.3000000000000003
 20
-6.1599999999999993
 11
3.3000000000000003
 21
-6.7800000000000002
 72
1
 10
3.3000000000000003
 20
-6.7800000000000002
 11
4.4800000000000004
 21
-6.7800000000000002
 72
1
 10
4.4800000000000004
 20
-6.7800000000000002
 11
4.4800000000000004
 21
-5.4199999999999999
 72
1
 10
4.4800000000000004
 20
-5.4199999999999999
 11
3.1800000000000002
 21
-5.4200000000000008
 72
1
 10
3.1800000000000002
 20
-5.4200000000000008
 11
3.1800000000000002
 21
-4.7000000000000002
 72
1
 10
3.1800000000000006
 20
-4.7000000000000002
 11
3.3000000000000003
 21
-4.7000000000000002
 72
1
 10
3.3000000000000003
 20
-4.7000000000000002
 11
3.3000000000000003
 21
-5.3000000000000007
 72
1
 10
3.3000000000000003
 20
-5.3000000000000007
 11
4.4800000000000004
 21
-5.2999999999999998
 72
1
 10
4.4800000000000004
 20
-5.2999999999999998
 11
4.4800000000000004
 21
-3.7200000000000006
 72
1
 10
4.4800000000000004
 20
-3.7200000000000006
 11
3.3000000000000003
 21
-3.7200000000000006
 72
1
 10
3.3000000000000003
 20
-3.7200000000000006
 11
3.3000000000000003
 21
-3.9999999999999996
 72
1
 10
3.3000000000000003
 20
-3.9999999999999996
 11
3.1800000000000006
 21
-4.0
 72
1
 10
3.1800000000000002
 20
-4.0
 11
3.1800000000000002
 21
-2.4200000000000004
 72
1
 10
3.1800000000000002
 20
-2.4200000000000004
 11
3.1300000000000003
 21
-2.4200000000000004
 72
1
 10
3.1300000000000003
 20
-2.4200000000000004
 11
3.1300000000000003
 21
-2.3000000000000003
 72
1
 10
3.1300000000000003
 20
-2.3000000000000003
 11
3.3000000000000003
 21
-2.3000000000000003
 72
1
 10
3.3000000000000003
 20
-2.3000000000000003
 11
3.3000000000000003
 21
-3.6000000000000005
 72
1
 10
3.3000000000000003
 20
-3.6000000000000005
 11
4.4800000000000004
 21
-3.6000000000000005
 72
1
 10
4.4800000000000004
 20
-3.6000000000000005
 11
4.4800000000000013
 21
-1.8999999999999992
 72
1
 10
4.4800000000000013
 20
-1.8999999999999992
 11
4.6000000000000014
 21
-1.8999999999999992
 72
1
 10
4.6000000000000014
 20
-1.8999999999999992
 11
4.6000000000000005
 21
-6.9000000000000004
 72
1
 10
2.2999999999999998
 20
-3.1200000000000001
 11
2.4199999999999999
 21
-3.1200000000000001
 72
1
 10
2.4199999999999999
 20
-3.1200000000000001
 11
2.4199999999999999
 21
-5.0999999999999996
 72
1
 10
2.4199999999999999
 20
-5.0999999999999996
 11
2.2999999999999998
 21
-5.0999999999999996
 72
1
 10
2.2999999999999998
 20
-5.0999999999999996
 11
2.2999999999999998
 21
-3.4199999999999999
 72
1
 10
2.2999999999999998
 20
-3.4199999999999999
 11
0.12
 21
-3.4199999999999999
 72
1
 10
0.12
 20
-3.4199999999999999
 11
0.12
 21
-4.3000000000000007
 72
1
 10
0.12
 20
-4.3000000000000007
 11
-0.0
 21
-4.3000000000000007
 72
1
 10
0.0
 20
-4.3000000000000007
 11
0.0
 21
-1.8999999999999999
 72
1
 10
0.0
 20
-1.8999999999999999
 11
0.12
 21
-1.8999999999999999
 72
1
 10
0.12
 20
-1.8999999999999999
 11
0.12
 21
-3.2999999999999998
 72
1
 10
0.12
 20
-3.2999999999999998
 11
2.2999999999999998
 21
-3.2999999999999998
 72
1
 10
2.2999999999999998
 20
-3.2999999999999998
 11
2.2999999999999998
 21
-3.1200000000000001
 97
0
 75
0
 76
1
 98
0
  0
ENDSEC
  0
SECTION
  2
OBJECTS
  0
DICTIONARY
  5
C
100
AcDbDictionary
280
0
281
1
  3
ACAD_GROUP
350
D
  3
ACAD_LAYOUT
350
1A
  3
ACAD_MLINESTYLE
350
17
  3
ACAD_PLOTSETTINGS
350
19
  3
ACAD_PLOTSTYLENAME
350
E
  3
AcDbVariableDictionary
350
19F
  0
DICTIONARY
  5
D
100
AcDbDictionary
280
0
281
1
  0
ACDBDICTIONARYWDFLT
  5
E
100
AcDbDictionary
281
1
  3
Normal
350
F
100
AcDbDictionaryWithDefault
340
F
  0
ACDBPLACEHOLDER
  5
F
  0
DICTIONARY
  5
17
100
AcDbDictionary
280
0
281
1
  3
Standard
350
18
  0
MLINESTYLE
  5
18
100
AcDbMlineStyle
  2
STANDARD
 70
0
  3

 62
256
 51
90.0
 52
90.0
 71
2
 49
0.5
 62
256
  6
BYLAYER
 49
-0.5
 62
256
  6
BYLAYER
  0
DICTIONARY
  5
19
100
AcDbDictionary
280
0
281
1
  0
DICTIONARY
  5
1A
100
AcDbDictionary
281
1
  3
Layout1
350
1E
  3
Layout2
350
26
  3
Model
350
22
  0
LAYOUT
  5
1E
100
AcDbPlotSettings
  1

  2
C:\Program Files\AutoCAD 2002\plotters\DWF ePlot (optimized for plotting).pc3
  4

  6

 40
0.0
 41
0.0
 42
0.0
 43
0.0
 44
0.0
 45
0.0
 46
0.0
 47
0.0
 48
0.0
 49
0.0
140
0.0
141
0.0
142
1.0
143
1.0
 70
688
 72
0
 73
0
 74
5
  7

 75
16
147
1.0
148
0.0
149
0.0
100
AcDbLayout
  1
Layout1
 70
1
 71
1
 10
0.0
 20
0.0
 11
420.0
 21
297.0
 12
0.0
 22
0.0
 32
0.0
 14
100000000000000000000.0
 24
100000000000000000000.0
 34
100000000000000000000.0
 15
-100000000000000000000.0
 25
-100000000000000000000.0
 35
-100000000000000000000.0
146
0.0
 13
0.0
 23
0.0
 33
0.0
 16
1.0
 26
0.0
 36
0.0
 17
0.0
 27
1.0
 37
0.0
 76
0
330
1B
  0
LAYOUT
  5
22
100
AcDbPlotSettings
  1

  2
C:\Program Files\AutoCAD 2002\plotters\DWF ePlot (optimized for plotting).pc3
  4

  6

 40
0.0
 41
0.0
 42
0.0
 43
0.0
 44
0.0
 45
0.0
 46
0.0
 47
0.0
 48
0.0
 49
0.0
140
0.0
141
0.0
142
1.0
143
1.0
 70
1712
 72
0
 73
0
 74
0
  7

 75
0
147
1.0
148
0.0
149
0.0
100
AcDbLayout
  1
Model
 70
1
 71
0
 10
0.0
 20
0.0
 11
12.0
 21
9.0
 12
0.0
 22
0.0
 32
0.0
 14
0.0
 24
0.0
 34
0.0
 15
0.0
 25
0.0
 35
0.0
146
0.0
 13
0.0
 23
0.0
 33
0.0
 16
1.0
 26
0.0
 36
0.0
 17
0.0
 27
1.0
 37
0.0
 76
0
330
1F
  0
LAYOUT
  5
26
100
AcDbPlotSettings
  1

  2
C:\Program Files\AutoCAD 2002\plotters\DWF ePlot (optimized for plotting).pc3
  4

  6

 40
0.0
 41
0.0
 42
0.0
 43
0.0
 44
0.0
 45
0.0
 46
0.0
 47
0.0
 48
0.0
 49
0.0
140
0.0
141
0.0
142
1.0
143
1.0
 70
688
 72
0
 73
0
 74
5
  7

 75
16
147
1.0
148
0.0
149
0.0
100
AcDbLayout
  1
Layout2
 70
1
 71
2
 10
0.0
 20
0.0
 11
12.0
 21
9.0
 12
0.0
 22
0.0
 32
0.0
 14
0.0
 24
0.0
 34
0.0
 15
0.0
 25
0.0
 35
0.0
146
0.0
 13
0.0
 23
0.0
 33
0.0
 16
1.0
 26
0.0
 36
0.0
 17
0.0
 27
1.0
 37
0.0
 76
0
330
23
  0
DICTIONARY
  5
19F
100
AcDbDictionary
281
1
  3
DIMASSOC
350
1A1
  3
HIDETEXT
350
1A0
  0
DICTIONARYVAR
  5
1A0
100
DictionaryVariables
280
0
  1
2
  0
DICTIONARYVAR
  5
1A1
100
DictionaryVariables
280
0
  1
1
  0
ENDSEC
  0
EOF
