<?xml version="1.0" encoding="UTF-8"?>
<!-- 2011-10-19 12:14:22 Generated by QCAD SVG Exporter -->
<svg width="321.198" height="216.952" viewBox="-20.7479 -216.502 321.198 216.952" version="1.1" xmlns="http://www.w3.org/2000/svg" style="stroke-linecap:round;stroke-linejoin:round;fill:none">
    <g transform="scale(1,-1)">
        <!-- Line -->
        <path d="M0,75 L225,150 " style="stroke:#000000;stroke-width:0.9;"/>
        <!-- Line -->
        <path d="M225,150 L300,150 " style="stroke:#000000;stroke-width:0.9;"/>
        <!-- Line -->
        <path d="M0,0 L0,75 " style="stroke:#000000;stroke-width:0.9;"/>
        <!-- Line -->
        <path d="M300,0 L0,0 " style="stroke:#000000;stroke-width:0.9;"/>
        <!-- Line -->
        <path d="M300,150 L300,0 " style="stroke:#000000;stroke-width:0.9;"/>
        <!-- Text: 1. -->
        <path d="M-16.5062,76.2795 L-20.2979,76.2795 L-20.2979,77.1545 C-19.7423,77.1962 -19.2388,77.2518 -18.7874,77.3212 C-18.3361,77.3907 -17.9402,77.5226 -17.5999,77.717 C-17.2597,77.9115 -16.9749,78.1927 -16.7458,78.5608 C-16.5166,78.9289 -16.3465,79.4254 -16.2354,80.0504 L-15.1729,80.0504 L-15.1729,65.3629 L-16.5062,65.3629 L-16.5062,76.2795 M-9.09083,65.3629 L-9.09083,67.1962 L-7.57,67.1962 L-7.57,65.3629 L-9.09083,65.3629 " style="fill:#000000;fill-rule:evenodd;"/>
        <!-- Text: 2. -->
        <path d="M234.181,167.617 C234.181,168.339 234.292,168.995 234.514,169.585 C234.737,170.176 235.056,170.683 235.473,171.106 C235.889,171.53 236.393,171.856 236.983,172.085 C237.573,172.314 238.23,172.429 238.952,172.429 C239.688,172.429 240.337,172.321 240.9,172.106 C241.462,171.891 241.934,171.603 242.316,171.242 C242.698,170.88 242.987,170.45 243.181,169.95 C243.375,169.45 243.473,168.922 243.473,168.367 C243.473,167.714 243.365,167.137 243.15,166.637 C242.934,166.137 242.65,165.693 242.296,165.304 C241.941,164.915 241.539,164.568 241.087,164.262 C240.636,163.957 240.174,163.669 239.702,163.398 C239.23,163.127 238.764,162.867 238.306,162.617 C237.848,162.367 237.438,162.103 237.077,161.825 C236.841,161.644 236.612,161.453 236.389,161.252 C236.167,161.051 235.966,160.832 235.785,160.596 C235.605,160.36 235.459,160.099 235.348,159.814 C235.237,159.53 235.174,159.214 235.16,158.867 L243.348,158.867 L243.348,157.742 L233.744,157.742 C233.757,158.45 233.834,159.089 233.973,159.658 C234.112,160.228 234.417,160.783 234.889,161.325 C235.403,161.908 235.934,162.408 236.483,162.825 C237.032,163.242 237.57,163.613 238.098,163.939 C238.625,164.266 239.125,164.564 239.598,164.835 C240.07,165.106 240.487,165.401 240.848,165.721 C241.209,166.04 241.494,166.401 241.702,166.804 C241.91,167.207 242.014,167.7 242.014,168.283 C242.014,168.755 241.931,169.179 241.764,169.554 C241.598,169.929 241.369,170.249 241.077,170.512 C240.785,170.776 240.445,170.974 240.056,171.106 C239.667,171.238 239.244,171.304 238.785,171.304 C238.299,171.304 237.858,171.203 237.462,171.002 C237.066,170.801 236.726,170.533 236.441,170.2 C236.157,169.867 235.938,169.478 235.785,169.033 C235.632,168.589 235.57,168.117 235.598,167.617 L234.181,167.617 M246.451,157.742 L246.451,159.575 L247.971,159.575 L247.971,157.742 L246.451,157.742 " style="fill:#000000;fill-rule:evenodd;"/>
        <!-- Text: 3. -->
        <path d="M166.645,209.532 C167.27,209.532 167.839,209.57 168.353,209.646 C168.867,209.722 169.308,209.868 169.676,210.084 C170.044,210.299 170.332,210.587 170.54,210.948 C170.749,211.309 170.853,211.775 170.853,212.344 C170.853,212.802 170.77,213.195 170.603,213.521 C170.436,213.847 170.211,214.115 169.926,214.323 C169.641,214.532 169.308,214.684 168.926,214.782 C168.544,214.879 168.145,214.927 167.728,214.927 C167.256,214.927 166.829,214.851 166.447,214.698 C166.065,214.545 165.735,214.327 165.457,214.042 C165.179,213.757 164.964,213.424 164.811,213.042 C164.659,212.66 164.582,212.24 164.582,211.782 L163.249,211.782 C163.249,212.448 163.363,213.049 163.593,213.584 C163.822,214.118 164.179,214.615 164.665,215.073 C165.124,215.49 165.641,215.757 166.218,215.875 C166.794,215.993 167.388,216.052 167.999,216.052 C168.582,216.052 169.127,215.979 169.634,215.834 C170.141,215.688 170.582,215.466 170.957,215.167 C171.332,214.868 171.631,214.49 171.853,214.032 C172.075,213.573 172.186,213.038 172.186,212.427 C172.186,211.663 172.016,211.004 171.676,210.448 C171.336,209.893 170.811,209.462 170.103,209.157 C170.631,208.99 171.065,208.771 171.405,208.5 C171.745,208.229 172.013,207.931 172.207,207.604 C172.402,207.278 172.534,206.934 172.603,206.573 C172.672,206.212 172.707,205.865 172.707,205.532 C172.707,204.92 172.603,204.351 172.395,203.823 C172.186,203.295 171.881,202.83 171.478,202.427 C171.075,202.025 170.579,201.702 169.988,201.459 C169.398,201.216 168.728,201.087 167.978,201.073 C167.131,201.073 166.395,201.15 165.77,201.302 C165.145,201.455 164.624,201.709 164.207,202.063 C163.79,202.417 163.464,202.882 163.228,203.459 C162.992,204.035 162.832,204.754 162.749,205.615 L164.082,205.615 C164.082,204.49 164.419,203.639 165.093,203.063 C165.766,202.486 166.645,202.198 167.728,202.198 C168.256,202.198 168.749,202.288 169.207,202.469 C169.665,202.65 170.058,202.893 170.384,203.198 C170.711,203.504 170.961,203.858 171.134,204.261 C171.308,204.663 171.388,205.08 171.374,205.511 C171.346,206.108 171.207,206.604 170.957,207 C170.707,207.396 170.37,207.709 169.947,207.938 C169.523,208.167 169.027,208.32 168.457,208.396 C167.888,208.472 167.284,208.49 166.645,208.448 L166.645,209.532 M175.747,201.365 L175.747,203.198 L177.268,203.198 L177.268,201.365 L175.747,201.365 " style="fill:#000000;fill-rule:evenodd;"/>
        <!-- Aligned Dimension -->
        <g>
            <path d="M-17.2655,126.797 L-8.30527,131.539 L-7.25214,128.379 Z" style="stroke:#0000ff;stroke-width:0.5;fill:#0000ff;fill-rule:evenodd;"/>
            <path d="M207.734,201.797 L198.774,197.055 L197.721,200.214 Z" style="stroke:#0000ff;stroke-width:0.5;fill:#0000ff;fill-rule:evenodd;"/>
            <g>
                <path d="M73.8891,159.817 L69.6727,158.411 L71.4113,166.776 M71.4109,166.775 L71.411,166.774 C71.45,166.96 71.4416,167.159 71.3772,167.352 C71.3338,167.483 71.2686,167.599 71.1872,167.7 M71.1869,167.7 L71.1871,167.701 C70.6495,168.532 69.6006,168.928 68.6186,168.601 C67.6368,168.274 67.0354,167.327 67.1038,166.341 " style="stroke:#0000ff;stroke-width:0.5;"/>
                <path d="M73.8891,170.358 L75.9973,171.06 M77.4027,166.844 C78.5671,167.232 79.1963,168.491 78.8082,169.655 C78.4201,170.819 77.1616,171.448 75.9973,171.06 M77.4027,166.844 L76.3486,166.493 M80.2136,165.439 C79.8255,166.603 78.5671,167.232 77.4027,166.844 M80.2136,165.439 L80.565,164.384 M79.1596,161.574 C80.3239,161.962 80.9531,163.22 80.565,164.384 M79.1596,161.574 L77.0514,160.871 " style="stroke:#0000ff;stroke-width:0.5;"/>
                <path d="M81.2677,172.817 L85.4841,174.223 L86.0112,163.857 M84.7814,169.304 L86.8896,170.006 " style="stroke:#0000ff;stroke-width:0.5;"/>
                <path d="M91.8087,165.79 L91.633,166.317 " style="stroke:#0000ff;stroke-width:0.5;"/>
                <path d="M92.5114,174.223 L93.9168,177.034 L97.0791,167.547 " style="stroke:#0000ff;stroke-width:0.5;"/>
                <path d="M97.0791,178.088 L101.295,179.493 L101.823,169.128 M100.593,174.574 L102.701,175.277 " style="stroke:#0000ff;stroke-width:0.5;"/>
                <path d="M107.708,181.045 L107.708,181.045 C107.398,181.294 106.971,181.385 106.566,181.25 C106.161,181.115 105.875,180.786 105.776,180.402 M105.776,180.404 L105.776,180.405 C105.521,179.64 105.438,178.814 105.554,177.987 M106.96,173.769 L106.96,173.768 C107.365,173.034 107.927,172.423 108.589,171.965 M108.587,171.968 L108.587,171.968 C108.897,171.719 109.323,171.628 109.728,171.763 C110.133,171.898 110.42,172.227 110.519,172.611 M110.518,172.609 L110.518,172.608 C110.773,173.372 110.856,174.198 110.74,175.026 M110.739,175.025 L110.741,175.02 C110.661,175.742 110.504,176.463 110.266,177.177 C110.263,177.187 110.259,177.198 110.255,177.209 M110.256,177.207 L110.256,177.207 C110.252,177.219 110.248,177.23 110.244,177.242 C110.006,177.956 109.699,178.627 109.333,179.248 M109.333,179.245 L109.333,179.246 C108.929,179.979 108.368,180.588 107.707,181.046 M106.038,175.806 L106.038,175.806 C106.042,175.794 106.046,175.783 106.05,175.771 C106.288,175.057 106.596,174.385 106.962,173.764 M105.556,177.988 L105.553,177.993 C105.634,177.271 105.79,176.55 106.028,175.836 C106.032,175.825 106.036,175.813 106.04,175.802 " style="stroke:#0000ff;stroke-width:0.5;"/>
                <path d="M113.945,176.682 L114.296,175.628 C114.684,174.464 115.943,173.835 117.107,174.223 C118.271,174.611 118.9,175.869 118.512,177.034 L118.161,178.088 C117.773,179.252 116.514,179.881 115.35,179.493 C114.186,179.105 113.557,177.847 113.945,176.682 M112.715,181.25 L112.891,180.723 C113.23,179.704 114.331,179.154 115.35,179.493 C116.369,179.833 116.919,180.934 116.58,181.953 L116.404,182.48 C116.065,183.498 114.963,184.049 113.945,183.709 C112.926,183.37 112.375,182.269 112.715,181.25 " style="stroke:#0000ff;stroke-width:0.5;"/>
            </g>
            <path d="M-0.790569,77.3717 L-18.8467,131.54 M224.209,152.372 L206.153,206.54 M-17.2655,126.797 L207.734,201.797 " style="stroke:#0000ff;stroke-width:0.5;"/>
        </g>
    </g>
</svg>
