<svg width="321.198" fill="none" xmlns="http://www.w3.org/2000/svg" height="216.952" viewBox="-20.7479 -216.502 321.198 216.952" stroke-linejoin="round" stroke-linecap="round">
<g transform="scale(1 -1)">
<g stroke="#fff" stroke-width=".9">
<path d="m0,75l225,75"/>
<path d="m225,150h75"/>
<path d="m0,0v75"/>
<path d="m300,0h-300"/>
<path d="m300,150v-150"/>
</g>
<g fill="#000" fill-rule="evenodd">
<path d="m-16.5062,76.2795h-3.7917v.875c.5556,.0417 1.0591,.0973 1.5105,.1667 .4513,.0695 .8472,.2014 1.1875,.3958 .3402,.1945 .625,.4757 .8541,.8438 .2292,.3681 .3993,.8646 .5104,1.4896h1.0625v-14.6875h-1.3333v10.9166m7.4154-10.9166v1.8333h1.5208v-1.8333h-1.5208"/>
<path d="m234.181,167.617c0,.722 .111,1.378 .333,1.968 .223,.591 .542,1.098 .959,1.521 .416,.424 .92,.75 1.51,.979 .59,.229 1.247,.344 1.969,.344 .736,0 1.385-.108 1.948-.323 .562-.215 1.034-.503 1.416-.864 .382-.362 .671-.792 .865-1.292 .194-.5 .292-1.028 .292-1.583 0-.653-.108-1.23-.323-1.73-.216-.5-.5-.944-.854-1.333-.355-.389-.757-.736-1.209-1.042-.451-.305-.913-.593-1.385-.864-.472-.271-.938-.531-1.396-.781-.458-.25-.868-.514-1.229-.792-.236-.181-.465-.372-.688-.573-.222-.201-.423-.42-.604-.656-.18-.236-.326-.497-.437-.782-.111-.284-.174-.6-.188-.947h8.188v-1.125h-9.604c.013,.708 .09,1.347 .229,1.916 .139,.57 .444,1.125 .916,1.667 .514,.583 1.045,1.083 1.594,1.5 .549,.417 1.087,.788 1.615,1.114 .527,.327 1.027,.625 1.5,.896 .472,.271 .889,.566 1.25,.886 .361,.319 .646,.68 .854,1.083 .208,.403 .312,.896 .312,1.479 0,.472-.083,.896-.25,1.271-.166,.375-.395,.695-.687,.958-.292,.264-.632,.462-1.021,.594-.389,.132-.812,.198-1.271,.198-.486,0-.927-.101-1.323-.302-.396-.201-.736-.469-1.021-.802-.284-.333-.503-.722-.656-1.167-.153-.444-.215-.916-.187-1.416h-1.417m12.27-9.875v1.833h1.52v-1.833h-1.52"/>
<path d="m166.645,209.532c.625,0 1.194,.038 1.708,.114 .514,.076 .955,.222 1.323,.438 .368,.215 .656,.503 .864,.864 .209,.361 .313,.827 .313,1.396 0,.458-.083,.851-.25,1.177-.167,.326-.392,.594-.677,.802-.285,.209-.618,.361-1,.459-.382,.097-.781,.145-1.198,.145-.472,0-.899-.076-1.281-.229-.382-.153-.712-.371-.99-.656-.278-.285-.493-.618-.646-1-.152-.382-.229-.802-.229-1.26h-1.333c0,.666 .114,1.267 .344,1.802 .229,.534 .586,1.031 1.072,1.489 .459,.417 .976,.684 1.553,.802 .576,.118 1.17,.177 1.781,.177 .583,0 1.128-.073 1.635-.218 .507-.146 .948-.368 1.323-.667 .375-.299 .674-.677 .896-1.135 .222-.459 .333-.994 .333-1.605 0-.764-.17-1.423-.51-1.979-.34-.555-.865-.986-1.573-1.291 .528-.167 .962-.386 1.302-.657 .34-.271 .608-.569 .802-.896 .195-.326 .327-.67 .396-1.031 .069-.361 .104-.708 .104-1.041 0-.612-.104-1.181-.312-1.709-.209-.528-.514-.993-.917-1.396-.403-.402-.899-.725-1.49-.968-.59-.243-1.26-.372-2.01-.386-.847,0-1.583,.077-2.208,.229-.625,.153-1.146,.407-1.563,.761-.417,.354-.743,.819-.979,1.396-.236,.576-.396,1.295-.479,2.156h1.333c0-1.125 .337-1.976 1.011-2.552 .673-.577 1.552-.865 2.635-.865 .528,0 1.021,.09 1.479,.271 .458,.181 .851,.424 1.177,.729 .327,.306 .577,.66 .75,1.063 .174,.402 .254,.819 .24,1.25-.028,.597-.167,1.093-.417,1.489-.25,.396-.587,.709-1.01,.938-.424,.229-.92,.382-1.49,.458-.569,.076-1.173,.094-1.812,.052v1.084m9.102-8.167v1.833h1.521v-1.833h-1.521"/>
</g>
</g>
<g fill="#00f" fill-rule="evenodd" stroke="#00f" stroke-width=".5" transform="scale(1 -1)">
<path d="m-17.2655,126.797l8.9602,4.742 1.0531-3.16Z"/>
<path d="m207.734,201.797l-8.96-4.742-1.053,3.159Z"/>
</g>
<g stroke="#00f" stroke-width=".5" transform="scale(1 -1)">
<path d="m73.8891,159.817l-4.2164-1.406 1.7386,8.365m-.0004-.001l.0001-.001c.039,.186 .0306,.385-.0338,.578-.0434,.131-.1086,.247-.19,.348m-.0003,0l.0002,.001c-.5376,.831-1.5865,1.227-2.5685,.9-.9818-.327-1.5832-1.274-1.5148-2.26"/>
<path d="m73.8891,170.358l2.1082,.702m1.4054-4.216c1.1644,.388 1.7936,1.647 1.4055,2.811-.3881,1.164-1.6466,1.793-2.8109,1.405m1.4054-4.216l-1.0541-.351m3.865-1.054c-.3881,1.164-1.6465,1.793-2.8109,1.405m2.8109-1.405l.3514-1.055m-1.4054-2.81c1.1643,.388 1.7935,1.646 1.4054,2.81m-1.4054-2.81l-2.1082-.703"/>
<path d="m81.2677,172.817l4.2164,1.406 .5271-10.366m-1.2298,5.447l2.1082,.702"/>
<path d="m91.8087,165.79l-.1757,.527"/>
<path d="m92.5114,174.223l1.4054,2.811 3.1623-9.487"/>
<path d="m97.0791,178.088l4.2159,1.405 .528-10.365m-1.23,5.446l2.108,.703"/>
<path d="m107.708,181.045c-.31,.249-.737,.34-1.142,.205-.405-.135-.691-.464-.79-.848m0,.002v.001c-.255-.765-.338-1.591-.222-2.418m1.406-4.218v-.001c.405-.734 .967-1.345 1.629-1.803m-.002,.003c.31-.249 .736-.34 1.141-.205 .405,.135 .692,.464 .791,.848m-.001-.002v-.001c.255,.764 .338,1.59 .222,2.418m-.001-.001l.002-.005c-.08,.722-.237,1.443-.475,2.157-.003,.01-.007,.021-.011,.032m.001-.002c-.004,.012-.008,.023-.012,.035-.238,.714-.545,1.385-.911,2.006m0-.003v.001c-.404,.733-.965,1.342-1.626,1.8m-1.669-5.24c.004-.012 .008-.023 .012-.035 .238-.714 .546-1.386 .912-2.007m-1.406,4.224l-.003,.005c.081-.722 .237-1.443 .475-2.157 .004-.011 .008-.023 .012-.034"/>
<path d="m113.945,176.682l.351-1.054c.388-1.164 1.647-1.793 2.811-1.405 1.164,.388 1.793,1.646 1.405,2.811l-.351,1.054c-.388,1.164-1.647,1.793-2.811,1.405-1.164-.388-1.793-1.646-1.405-2.811m-1.23,4.568l.176-.527c.339-1.019 1.44-1.569 2.459-1.23 1.019,.34 1.569,1.441 1.23,2.46l-.176,.527c-.339,1.018-1.441,1.569-2.459,1.229-1.019-.339-1.57-1.44-1.23-2.459"/>
</g>
<g transform="scale(1 -1)">
<path stroke="#00f" stroke-width=".5" d="m-.7906,77.3717l-18.0561,54.1683m243.0557,20.832l-18.056,54.168m-223.4185-79.743l224.9995,75"/>
</g>
</svg>
