<svg xmlns="http://www.w3.org/2000/svg" viewBox="0 0 512 512" xmlns:xlink="http://www.w3.org/1999/xlink"><defs><path id="0" d="M16.5 4.5A1 1 0 1 1 14.5 4.5 1 1 0 1 1 16.5 4.5"/></defs><g style="fill:none;stroke:#fff;stroke-width:16"><path d="M435.04887 255.8623A179.27127 179.43936 0 0 1 76.50633 255.8623 179.27127 179.43936 0 1 1 435.04887 255.8623z" style="stroke-linecap:square"/><path d="m256.96 74.03l-.955 365.97"/><path d="m72 256h368"/></g><g transform="translate(0 492)" style="fill:#f00"><use transform="matrix(32 0 0 32-240-559.2)" xlink:href="#0"/><use transform="matrix(32 0 0 32-240-200.8)" xlink:href="#0"/><use transform="matrix(32 0 0 32-419.2-380)" xlink:href="#0"/><use transform="matrix(32 0 0 32-60.8-380)" xlink:href="#0"/><use transform="matrix(32 0 0 32-240-380)" xlink:href="#0"/></g></svg>
