<?xml version="1.0" encoding="UTF-8" standalone="no"?>
<svg
   xmlns:dc="http://purl.org/dc/elements/1.1/"
   xmlns:cc="http://creativecommons.org/ns#"
   xmlns:rdf="http://www.w3.org/1999/02/22-rdf-syntax-ns#"
   xmlns:svg="http://www.w3.org/2000/svg"
   xmlns="http://www.w3.org/2000/svg"
   xmlns:sodipodi="http://sodipodi.sourceforge.net/DTD/sodipodi-0.dtd"
   xmlns:inkscape="http://www.inkscape.org/namespaces/inkscape"
   width="512"
   height="512"
   id="svg2"
   version="1.1"
   inkscape:version="0.48.2 r9819"
   sodipodi:docname="Snap.svg">
  <metadata
     id="metadata24">
    <rdf:RDF>
      <cc:Work
         rdf:about="">
        <dc:format>image/svg+xml</dc:format>
        <dc:type
           rdf:resource="http://purl.org/dc/dcmitype/StillImage" />
      </cc:Work>
    </rdf:RDF>
  </metadata>
  <sodipodi:namedview
     pagecolor="#ffffff"
     bordercolor="#666666"
     borderopacity="1"
     objecttolerance="10"
     gridtolerance="10"
     guidetolerance="10"
     inkscape:pageopacity="0"
     inkscape:pageshadow="2"
     inkscape:window-width="1786"
     inkscape:window-height="1104"
     id="namedview22"
     showgrid="true"
     inkscape:zoom="1.3037281"
     inkscape:cx="120.2355"
     inkscape:cy="256"
     inkscape:window-x="0"
     inkscape:window-y="0"
     inkscape:window-maximized="0"
     inkscape:current-layer="svg2">
    <inkscape:grid
       type="xygrid"
       id="grid3001"
       empspacing="8"
       visible="true"
       enabled="true"
       snapvisiblegridlinesonly="true"
       spacingx="8px"
       spacingy="8px" />
  </sodipodi:namedview>
  <defs
     id="defs4" />
  <path
     style="fill:none;stroke:#000000;stroke-width:16;stroke-linecap:square;stroke-miterlimit:4;stroke-dasharray:none"
     inkscape:connector-curvature="0"
     id="path8"
     d="M 435.04887,255.8623 A 179.27127,179.43936 0 0 1 76.506325,255.8623 179.27127,179.43936 0 1 1 435.04887,255.8623 z" />
  <path
     style="fill:none;stroke:#000000;stroke-width:16;stroke-linecap:butt;stroke-linejoin:miter;stroke-opacity:1;stroke-miterlimit:4;stroke-dasharray:none"
     d="M 256.95541,74.02525 256,440"
     id="path3003"
     inkscape:connector-curvature="0" />
  <path
     style="fill:none;stroke:#000000;stroke-width:16;stroke-linecap:butt;stroke-linejoin:miter;stroke-opacity:1;stroke-miterlimit:4;stroke-dasharray:none"
     d="M 72,256 440,256"
     id="path3005"
     inkscape:connector-curvature="0" />
  <g
     style="fill:#ff0000"
     id="g10"
     transform="translate(0,492)">
    <path
       inkscape:connector-curvature="0"
       id="path12"
       transform="matrix(32,0,0,32,-240,-559.2)"
       d="M 16.5,4.5 A 1,1 0 1 1 14.5,4.5 1,1 0 1 1 16.5,4.5 z" />
    <path
       inkscape:connector-curvature="0"
       id="path14"
       transform="matrix(32,0,0,32,-240,-200.8)"
       d="M 16.5,4.5 A 1,1 0 1 1 14.5,4.5 1,1 0 1 1 16.5,4.5 z" />
    <path
       inkscape:connector-curvature="0"
       id="path16"
       transform="matrix(32,0,0,32,-419.2,-380)"
       d="M 16.5,4.5 A 1,1 0 1 1 14.5,4.5 1,1 0 1 1 16.5,4.5 z" />
    <path
       inkscape:connector-curvature="0"
       id="path18"
       transform="matrix(32,0,0,32,-60.8,-380)"
       d="M 16.5,4.5 A 1,1 0 1 1 14.5,4.5 1,1 0 1 1 16.5,4.5 z" />
    <path
       inkscape:connector-curvature="0"
       id="path20"
       transform="matrix(32,0,0,32,-240,-380)"
       d="M 16.5,4.5 A 1,1 0 1 1 14.5,4.5 1,1 0 1 1 16.5,4.5 z" />
  </g>
</svg>
