<svg xmlns="http://www.w3.org/2000/svg" viewBox="0 0 512 512" xmlns:xlink="http://www.w3.org/1999/xlink">
<defs/>
<g transform="translate(0 492)">
<path fill="#f00" d="m255.4615-296.5307 108.5596,62.0307-106.5211,61.5-108.5596-62.0307 106.5211-61.5"/>
<g fill="none" stroke="#000" stroke-width="3.5">
<path d="m256-50-186-107.387"/>
<path d="m256-50 186-107.387"/>
<path d="M 442,-314.61285 256,-422"/>
<path d="m442-190.6128-372-214.7743"/>
<path d="m442-66.6127-372-214.7744"/>
<path d="m70-190.6128 372-214.7743"/>
<path d="M 70,-314.61285 256,-422"/>
<path d="m70-66.6127 372-214.7744"/>
<path d="m256-50-186-107.387"/>
<path d="m256-50 186-107.387"/>
<path d="M 442,-314.61285 256,-422"/>
<path d="m442-190.6128-372-214.7743"/>
<path d="m442-66.6127-372-214.7744"/>
<path d="m70-190.6128 372-214.7743"/>
<path d="M 70,-314.61285 256,-422"/>
<path d="m70-66.6127 372-214.7744"/>
</g>
</g>
</svg>
