<svg xmlns="http://www.w3.org/2000/svg" viewBox="0 0 512 512"><defs><linearGradient gradientTransform="matrix(22.90654-3.81342 14.65666 25.76771-999.43-234.31)" id="1" y1="17.376" x1="48.906" y2="22.251" gradientUnits="userSpaceOnUse" x2="50.988"><stop style="stop-color:#ffd1d1"/><stop offset=".5" style="stop-color:#ff1d1d"/><stop offset="1" style="stop-color:#6f0000"/></linearGradient><linearGradient gradientTransform="matrix(27.98159-4.67664 17.90391 31.60063-1210.31-413.54)" id="2" y1="31.05" x1="25.719" y2="30.703" gradientUnits="userSpaceOnUse" x2="25.515"><stop/><stop offset="1" style="stop-color:#c9c9c9"/></linearGradient><linearGradient gradientTransform="matrix(22.86815-3.77407 14.63209 25.50184-997.77-230.26)" id="0" y1="19.812" x1="46" y2="22.625" gradientUnits="userSpaceOnUse" x2="47.688"><stop style="stop-color:#c1c1c1"/><stop offset="1" style="stop-color:#acacac"/></linearGradient><radialGradient cx="29.05" cy="27.641" gradientTransform="matrix(68.3952-11.0801 30.38261 51.97917-2731.86-746.72)" id="3" r="3.241" gradientUnits="userSpaceOnUse"><stop style="stop-color:#e7e2b8"/><stop offset="1" style="stop-color:#e7e2b8;stop-opacity:0"/></radialGradient></defs><g transform="matrix(.67503 0 0 .67503 81.55 76.63)"><path d="m10.465 514.67h495.93" style="fill:none;stroke:#f00;stroke-linecap:round;stroke-width:23.703"/><g style="fill-rule:evenodd"><path d="m25.834 495.14l43.818-157.96 299.68-311.25c52.996-42.34 158.91 63.78 119.22 113.94l-303.52 301.85-159.2 53.42z" style="fill:#cb0422;stroke:#5c410c;stroke-width:22.489"/><path d="m301.59 113.25c0 0 34.3-3.066 65.51 26.999 32.15 30.973 38.932 68.45 38.932 68.45l79.06-82.8c0 0 20.343-28.25-26.647-75.78-46.35-46.882-78.51-19.545-78.51-19.545l-78.35 82.68" style="fill:url(#1)"/><path d="m40.39 476.83l37.915-132.3c47.25 15.12 85.65 46.574 99.53 88.13l-137.45 44.17" style="fill:url(#3)"/><path d="m57.06 421.08l-16.936 57.963 59.987-20.836c-6.748-23.736-24.269-32.699-43.05-37.13" style="fill:url(#2)"/><g style="fill-opacity:.364"><path d="m79.03 343.86l49 23.35 231.53-234.73c-21.46-19.332-41.869-22.04-57.25-21.541l-223.28 232.93" style="fill:#fdb620"/><path d="m176.18 434.69l-6.324-19.03 230.77-229.54c0 0 6.11 15.409 5.701 19.11l-230.15 229.46"/></g><path d="m301.07 113.71c0 0 34.24-3.034 65.4 26.72 32.09 30.653 38.866 67.739 38.866 67.739l31.1-33.05c0 0-.385-36.755-34.32-69.36-34.869-33.503-69.943-25.1-69.943-25.1l-31.1 33.05" style="fill:url(#0)"/></g></g></svg>