<svg width="512" xmlns="http://www.w3.org/2000/svg" height="512" xmlns:xlink="http://www.w3.org/1999/xlink">
<defs>
<radialGradient cx="25.125" cy="36.75" gradientTransform="matrix(1 0 0 .59524 0 14.875)" id="radialGradient21650" r="15.75" gradientUnits="userSpaceOnUse">
<stop offset="0"/>
<stop offset="1" stop-opacity="0"/>
</radialGradient>
<radialGradient cx="26.544" cy="28.459" gradientTransform="matrix(1.23834 .00595 -.00651 1.35127 -6.99251 -9.74484)" id="radialGradient2207" r="22.376" gradientUnits="userSpaceOnUse">
<stop offset="0" stop-color="#9cbcde"/>
<stop offset="1" stop-color="#204a87"/>
</radialGradient>
<radialGradient cx="-19.516" cy="16.856" gradientTransform="matrix(4.44599 0 0 6.8665 67.25071 -104.6679)" id="radialGradient2437" r="8.754" gradientUnits="userSpaceOnUse">
<stop offset="0" stop-color="#fff"/>
<stop offset="1" stop-color="#b8b8b8"/>
</radialGradient>
</defs>
<path opacity=".631" fill="url(#radialGradient21650)" fill-rule="evenodd" color="#000" d="m40.875,36.75a15.75,9.375 0 1,1 -31.5,0 15.75,9.375 0 1,1 31.5,0z" transform="matrix(12.52056 0 0 6.4 -53.39429 200.82808)"/>
<path fill="url(#radialGradient2207)" stroke="#204a87" d="m45.7852,23.8258a21.8761,21.8761 0 1,1 -43.7522,0 21.8761,21.8761 0 1,1 43.7522,0z" transform="matrix(10.01004 0 0 10.01258 16.66943 1.45653)"/>
<g stroke="#fff">
<path opacity=".96" fill="none" stroke-width="3.031" d="m45.7852,23.8258a21.8761,21.8761 0 1,1 -43.7522,0 21.8761,21.8761 0 1,1 43.7522,0z" transform="matrix(9.12109 0 0 9.12227 37.90901 22.69506)"/>
<path stroke-opacity=".786" fill="url(#radialGradient2437)" line-height="125%" stroke-width="1.099" d="m-20.25,5.875c-1.059,0-2.1476,.1232-3.2812,.3438-1.1329,.2204-2.3802,.5375-3.75,1a.135,.135 0 0,0 -.0312,0 .135,.135 0 0,0 -.0312,.0312 .135,.135 0 0,0 -.0312,.0312 .135,.135 0 0,0 0,.0312 .135,.135 0 0,0 0,.0312v5.1562a.135,.135 0 0,0 0,.0312 .135,.135 0 0,0 0,.0312 .135,.135 0 0,0 .0312,.0312 .135,.135 0 0,0 .0312,.0312 .135,.135 0 0,0 .0312,0 .135,.135 0 0,0 .0312,0 .135,.135 0 0,0 .0312,0 .135,.135 0 0,0 .0312,0c1.1424-.719 2.2334-1.2671 3.2812-1.625 1.0481-.3688 2.0431-.5625 2.9375-.5625 .9492,0 1.6449,.2105 2.1562,.625 .5087,.4021 .7812,.983 .7812,1.7188-0,.4807-.1442,.9514-.4375,1.4375-.283,.487-.7403,1.0305-1.375,1.5938l-1.0938,.9375c-1.2015,1.0805-1.9892,1.991-2.375,2.7188-.3831,.7114-.5625,1.5193-.5625,2.4375v.8125a.135,.135 0 0,0 0,.0312 .135,.135 0 0,0 0,.0312 .135,.135 0 0,0 .0312,.0312 .135,.135 0 0,0 .0312,.0312 .135,.135 0 0,0 .0312,0 .135,.135 0 0,0 .0312,0h6.0938a.135,.135 0 0,0 .0312,0 .135,.135 0 0,0 .0312,0 .135,.135 0 0,0 .0312-.0312 .135,.135 0 0,0 .0312-.0312 .135,.135 0 0,0 0-.0312 .135,.135 0 0,0 0-.0312v-.75c-0-.4682 .1484-.8928 .375-1.2812 .2223-.3913 .7081-.9504 1.4688-1.625l1.0625-.9375c1.0666-.9823 1.8307-1.8847 2.2812-2.75 .4493-.874 .6875-1.8734 .6875-2.9688-0-2.1263-.7438-3.734-2.2188-4.8438-1.4752-1.121-3.6062-1.6875-6.375-1.6875zm-3.5625,19.1562a.135,.135 0 0,0 -.0312,.0312 .135,.135 0 0,0 -.0312,.0312 .135,.135 0 0,0 0,.0312 .135,.135 0 0,0 0,.0312v5.8438a.135,.135 0 0,0 0,.0312 .135,.135 0 0,0 0,.0312 .135,.135 0 0,0 .0312,.0312 .135,.135 0 0,0 .0312,.0312 .135,.135 0 0,0 .0312,0 .135,.135 0 0,0 .0312,0h6.0938a.135,.135 0 0,0 .0312,0 .135,.135 0 0,0 .0312,0 .135,.135 0 0,0 .0312-.0312 .135,.135 0 0,0 .0312-.0312 .135,.135 0 0,0 0-.0312 .135,.135 0 0,0 0-.0312v-5.8438a.135,.135 0 0,0 0-.0312 .135,.135 0 0,0 0-.0312 .135,.135 0 0,0 -.0312-.0312 .135,.135 0 0,0 -.0312-.0312 .135,.135 0 0,0 -.0312,0 .135,.135 0 0,0 -.0312,0h-6.0938a.135,.135 0 0,0 -.0312,0 .135,.135 0 0,0 -.0312,0z" transform="matrix(9.06554 0 0 8.90885 445.10366 75.21031)"/>
</g>
</svg>
