<svg xmlns="http://www.w3.org/2000/svg" viewBox="0 0 512 512"><defs><radialGradient cx="25.13" cy="36.75" gradientTransform="matrix(1 0 0 .59524 0 14.875)" id="0" r="15.75" gradientUnits="userSpaceOnUse"><stop/><stop offset="1" style="stop-opacity:0"/></radialGradient><radialGradient cx="26.544" cy="28.459" gradientTransform="matrix(1.23834.00595-.00651 1.35127-6.993-9.745)" id="1" r="22.376" gradientUnits="userSpaceOnUse"><stop style="stop-color:#9cbcde"/><stop offset="1" style="stop-color:#204a87"/></radialGradient><radialGradient cx="-19.516" cy="16.856" gradientTransform="matrix(4.44599 0 0 6.8665 67.25-104.67)" id="2" r="8.754" gradientUnits="userSpaceOnUse"><stop style="stop-color:#fff"/><stop offset="1" style="stop-color:#b8b8b8"/></radialGradient></defs><path d="m40.875 36.75a15.75 9.375 0 1 1 -31.5 0 15.75 9.375 0 1 1 31.5 0" transform="matrix(12.52056 0 0 6.4-53.39 200.83)" style="fill:url(#0);opacity:.631;color:#000;fill-rule:evenodd"/><path d="m45.7852 23.8258a21.8761 21.8761 0 1 1 -43.7522 0 21.8761 21.8761 0 1 1 43.7522 0z" transform="matrix(10.01 0 0 10.0126 16.669 1.457)" style="fill:url(#1);stroke:#204a87"/><g style="stroke:#fff"><path d="m45.7852 23.8258a21.8761 21.8761 0 1 1 -43.7522 0 21.8761 21.8761 0 1 1 43.7522 0z" transform="matrix(9.12109 0 0 9.12227 37.909 22.695)" style="fill:none;opacity:.96;stroke-width:3.03"/><path d="m-20.25 5.875c-1.059 0-2.148.123-3.281.344-1.133.22-2.38.537-3.75 1a.135 .135 0 0 0 -.0312 0 .135 .135 0 0 0 -.0312 .0312 .135 .135 0 0 0 -.0312 .0312 .135 .135 0 0 0 0 .0312 .135 .135 0 0 0 0 .0312v5.156a.135 .135 0 0 0 0 .0312 .135 .135 0 0 0 0 .0312 .135 .135 0 0 0 .0312 .0312 .135 .135 0 0 0 .0312 .0312 .135 .135 0 0 0 .0312 0 .135 .135 0 0 0 .0312 0 .135 .135 0 0 0 .0312 0 .135 .135 0 0 0 .0312 0c1.142-.719 2.233-1.267 3.281-1.625 1.048-.369 2.043-.563 2.938-.563.949 0 1.645.21 2.156.625.509.402.781.983.781 1.719 0 .481-.144.951-.438 1.438-.283.487-.74 1.031-1.375 1.594l-1.094.938c-1.201 1.081-1.989 1.991-2.375 2.719-.383.711-.563 1.519-.563 2.438v.813a.135 .135 0 0 0 0 .0312 .135 .135 0 0 0 0 .0312 .135 .135 0 0 0 .0312 .0312 .135 .135 0 0 0 .0312 .0312 .135 .135 0 0 0 .0312 0 .135 .135 0 0 0 .0312 0h6.094a.135 .135 0 0 0 .0312 0 .135 .135 0 0 0 .0312 0 .135 .135 0 0 0 .0312 -.0312 .135 .135 0 0 0 .0312 -.0312 .135 .135 0 0 0 0 -.0312 .135 .135 0 0 0 0 -.0312v-.75c0-.468.148-.893.375-1.281.222-.391.708-.95 1.469-1.625l1.063-.938c1.067-.982 1.831-1.885 2.281-2.75.449-.874.688-1.873.688-2.969 0-2.126-.744-3.734-2.219-4.844-1.475-1.121-3.606-1.688-6.375-1.688zm-3.5625 19.1562a.135 .135 0 0 0 -.0312 .0312 .135 .135 0 0 0 -.0312 .0312 .135 .135 0 0 0 0 .0312 .135 .135 0 0 0 0 .0312v5.844a.135 .135 0 0 0 0 .0312 .135 .135 0 0 0 0 .0312 .135 .135 0 0 0 .0312 .0312 .135 .135 0 0 0 .0312 .0312 .135 .135 0 0 0 .0312 0 .135 .135 0 0 0 .0312 0h6.094a.135 .135 0 0 0 .0312 0 .135 .135 0 0 0 .0312 0 .135 .135 0 0 0 .0312 -.0312 .135 .135 0 0 0 .0312 -.0312 .135 .135 0 0 0 0 -.0312 .135 .135 0 0 0 0 -.0312v-5.844a.135 .135 0 0 0 0 -.0312 .135 .135 0 0 0 0 -.0312 .135 .135 0 0 0 -.0312 -.0312 .135 .135 0 0 0 -.0312 -.0312 .135 .135 0 0 0 -.0312 0 .135 .135 0 0 0 -.0312 0h-6.094a.135 .135 0 0 0 -.0312 0 .135 .135 0 0 0 -.0312 0z" transform="matrix(9.0655 0 0 8.90885 445.1 75.21)" style="stroke-opacity:.786;fill:url(#2);stroke-width:1.099"/></g></svg>