<svg xmlns="http://www.w3.org/2000/svg" viewBox="0 0 512 512" xmlns:xlink="http://www.w3.org/1999/xlink"><defs><path id="0" d="m16.5 4.5a1 1 0 1 1 -2 0 1 1 0 1 1 2 0"/></defs><g transform="translate(0 464)"><path d="m328.3-8l127.7-319.25m-239.44-79.81l111.74 399.06m-271.36-399.06h159.62m-159.62 399.06v-399.06" style="fill:none;stroke:#00f;stroke-linecap:round;stroke-width:8"/><g style="fill:#f00"><use transform="matrix(-32 0 0-32 552-264)" xlink:href="#0"/><use transform="matrix(-32 0 0-32 712-264)" xlink:href="#0"/><use transform="matrix(-32 0 0-32 824 136)" xlink:href="#0"/></g><path d="m436.91-282.14l19.09-45.11m-37.12 82.53l18.02-37.42m-35.05 67.66l17.03-30.24m-33.12 53.786l16.1-23.551m-31.33 40.919l15.234-17.368m-29.675 29.05l14.441-11.684m-28.16 18.19l13.715-6.502m-26.77 8.32l13.06-1.819m-25.519-.544l12.464 2.362m-24.406-8.406l11.942 6.04m-23.428-15.268l11.486 9.224m-22.585-21.13l11.1 11.905m-21.877-25.99l10.779 14.08m-21.306-29.848l10.527 15.763m-20.87-32.705l10.343 16.942m-20.57-34.563l10.227 17.62m-20.405-35.419l10.178 17.798m-20.375-35.27l10.197 17.475m-20.482-34.13l10.285 16.652m-20.722-31.985l10.437 15.333m-21.02-28.976l10.585 13.643m-21.249-25.348l10.664 11.705m-21.33-21.232l10.666 9.527m-21.261-16.631l10.595 7.104m-21.05-11.544l10.45 4.44m-20.681-5.974l10.231 1.534m-20.17.081l9.937-1.615m-19.505 6.62l9.569-5.01m-18.694 13.643l9.126-8.638m-17.735 21.15l8.609-12.512m-16.628 29.14l8.02-16.631m-15.372 37.619l7.353-20.989m-13.967 46.58l6.614-25.592m-12.414 56.03l5.8-30.434m-10.712 65.955l4.912-35.52m-8.862 76.37l3.95-40.849m-6.863 87.27l2.913-46.42m-4.716 98.65l1.802-52.23m-2.42 110.52l.617-58.29" style="fill:none;stroke:#000;stroke-linecap:round;stroke-width:16"/><g style="fill:#f00"><use transform="matrix(-32 0 0-32 952-184)" xlink:href="#0"/><use transform="matrix(-32 0 0-32 552 136)" xlink:href="#0"/></g></g></svg>