<svg xmlns="http://www.w3.org/2000/svg" viewBox="0 0 512 512" xmlns:xlink="http://www.w3.org/1999/xlink"><defs><path id="0" d="m384-60h80" style="stroke:#808080;stroke-linecap:square;stroke-width:16"/><path id="1" d="m384-76h80" style="stroke:#fff;stroke-linecap:square;stroke-width:16"/></defs><g transform="translate(8 500)" style="fill:none"><g style="stroke-width:16"><path d="m80-76l332.55-192" style="stroke:#fff;stroke-linecap:square"/><g transform="translate(-168 168)" style="stroke:#f00"><path d="m184-244h128"/><path d="m248-308v128"/></g></g><path d="m144-76c0 35.35-28.654 64-64 64-35.35 0-64-28.654-64-64 0-35.35 28.654-64 64-64 35.35 0 64 28.654 64 64z" style="stroke:#f00;stroke-width:12"/><g><use xlink:href="#0"/><path d="m384-76h80" style="stroke:#fff;stroke-linecap:square;stroke-width:16"/></g><g transform="matrix(.96593-.25882.25882.96593 22.396 18.12)"><use xlink:href="#0"/><use xlink:href="#1"/></g><g transform="matrix(.70711-.70711.70711.70711 77.17 34.31)"><use xlink:href="#0"/><use xlink:href="#1"/></g><g transform="matrix(.5-.86603.86603.5 105.82 31.28)"><use xlink:href="#0"/><use xlink:href="#1"/></g><g transform="matrix(.25882-.96593.96593.25882 132.7 20.944)"><use xlink:href="#0"/><use xlink:href="#1"/></g><g transform="matrix(0-1 1 0 156 4)"><use xlink:href="#0"/><use xlink:href="#1"/></g></g></svg>
