<svg xmlns="http://www.w3.org/2000/svg" viewBox="0 0 512 512" xmlns:xlink="http://www.w3.org/1999/xlink">
<defs>
<clipPath id="clipoutline1-6" clipPathUnits="userSpaceOnUse">
<path id="outline1-3" d="m22.42,17.2 12.96,12.95-2.5,8.78-8.78,2.5-12.96-12.96-5.86,5.86 14.89,21.46 17.56-3.34 61.63,65.62c9.44,9.51 22.17-4.75 13.34-12.87l-65.85-62.28 4.01-17.76-22.14-14.27-6.3,6.31zm81.06,91.97c1.68-1.68 4.4-1.68 6.08,0 1.68,1.68 1.68,4.4 0,6.08-1.68,1.67-4.4,1.67-6.08,0-1.68-1.68-1.68-4.4 0-6.08z"/>
</clipPath>
<clipPath clipPathUnits="userSpaceOnUse">
<path d="m55.8,12 .76,.16c8.84-2.94 28.68,8.64 24.26,18.96-1.12,1.62-.93,4.5 .42,6.31l-24.81,24.82c-1.39-1.39-4.48-1.36-5.9,0l-41.03,39.38c-3.74,3.59-.8,6.64 .78,8.25l7.36,7.36c1.61,1.6 5.86,3.76 8.88,.56l38.72-40.81c1.35-1.42 1.36-4.47 0-5.87 0,0 .01-.02 0-.02l24.91-24.9c2.63,2.37 5.1138,2.5749 7.47,1.93 4.5506-1.2454 7.0872,3.2066 9.81,6.46l-1.23,1.21c-1.82,1.84-1.65,4.94 .39,6.98 2.04,2.04 5.15,2.21 6.97,.39l8.14-8.13c1.82-1.84 1.65-4.94-.4-6.97-1.84-1.85-4.51-2.09-6.37-.77-5.58-6.26-2.65-7.2-10.01-15.35l-13.79-14.09c-9.93-9.74-22.83-9.73-35.33-5.86z"/>
</clipPath>
<clipPath id="clipoutline2-5" clipPathUnits="userSpaceOnUse">
<path id="outline2-2" d="m55.8,12 .76,.16c8.84-2.94 28.68,8.64 24.26,18.96-1.12,1.62-.93,4.5 .42,6.31l-24.81,24.82c-1.39-1.39-4.48-1.36-5.9,0l-41.03,39.38c-3.74,3.59-.8,6.64 .78,8.25l7.36,7.36c1.61,1.6 5.86,3.76 8.88,.56l38.72-40.81c1.35-1.42 1.36-4.47 0-5.87 0,0 .01-.02 0-.02l24.91-24.9c2.63,2.37 5.1138,2.5749 7.47,1.93 4.5506-1.2454 7.0872,3.2066 9.81,6.46l-1.23,1.21c-1.82,1.84-1.65,4.94 .39,6.98 2.04,2.04 5.15,2.21 6.97,.39l8.14-8.13c1.82-1.84 1.65-4.94-.4-6.97-1.84-1.85-4.51-2.09-6.37-.77-5.58-6.26-2.65-7.2-10.01-15.35l-13.79-14.09c-9.93-9.74-22.83-9.73-35.33-5.86z"/>
</clipPath>
<clipPath clipPathUnits="userSpaceOnUse">
<path d="m22.42,17.2 12.96,12.95-2.5,8.78-8.78,2.5-12.96-12.96-5.86,5.86 14.89,21.46 17.56-3.34 61.63,65.62c9.44,9.51 22.17-4.75 13.34-12.87l-65.85-62.28 4.01-17.76-22.14-14.27-6.3,6.31zm81.06,91.97c1.68-1.68 4.4-1.68 6.08,0 1.68,1.68 1.68,4.4 0,6.08-1.68,1.67-4.4,1.67-6.08,0-1.68-1.68-1.68-4.4 0-6.08z"/>
</clipPath>
<clipPath clipPathUnits="userSpaceOnUse">
<path d="m22.42,17.2 12.96,12.95-2.5,8.78-8.78,2.5-12.96-12.96-5.86,5.86 14.89,21.46 17.56-3.34 61.63,65.62c9.44,9.51 22.17-4.75 13.34-12.87l-65.85-62.28 4.01-17.76-22.14-14.27-6.3,6.31zm81.06,91.97c1.68-1.68 4.4-1.68 6.08,0 1.68,1.68 1.68,4.4 0,6.08-1.68,1.67-4.4,1.67-6.08,0-1.68-1.68-1.68-4.4 0-6.08z"/>
</clipPath>
<clipPath clipPathUnits="userSpaceOnUse">
<path d="m55.8,12 .76,.16c8.84-2.94 28.68,8.64 24.26,18.96-1.12,1.62-.93,4.5 .42,6.31l-24.81,24.82c-1.39-1.39-4.48-1.36-5.9,0l-41.03,39.38c-3.74,3.59-.8,6.64 .78,8.25l7.36,7.36c1.61,1.6 5.86,3.76 8.88,.56l38.72-40.81c1.35-1.42 1.36-4.47 0-5.87 0,0 .01-.02 0-.02l24.91-24.9c2.63,2.37 5.1138,2.5749 7.47,1.93 4.5506-1.2454 7.0872,3.2066 9.81,6.46l-1.23,1.21c-1.82,1.84-1.65,4.94 .39,6.98 2.04,2.04 5.15,2.21 6.97,.39l8.14-8.13c1.82-1.84 1.65-4.94-.4-6.97-1.84-1.85-4.51-2.09-6.37-.77-5.58-6.26-2.65-7.2-10.01-15.35l-13.79-14.09c-9.93-9.74-22.83-9.73-35.33-5.86z"/>
</clipPath>
<linearGradient gradientTransform="matrix(.3 .3 -.09 .09 78.84 -44.8)" xlink:href="#WhiteTransparent-0" id="lg12-9" y1="288.57" y2="368.27" x2="0" gradientUnits="userSpaceOnUse"/>
<linearGradient gradientTransform="matrix(.0775 .0775 -.36 .36 78.84 -44.8)" xlink:href="#WhiteTransparent-0" id="lg16-6" x1="577.03" x2="626.1" gradientUnits="userSpaceOnUse"/>
<linearGradient gradientTransform="matrix(.33 .33 -.0944 .0944 9.03 -48.1)" xlink:href="#WhiteTransparent-0" id="lg09-3" y1="62.74" y2="-1.72" x2="0" gradientUnits="userSpaceOnUse"/>
<linearGradient gradientTransform="matrix(.0807 .0775 -.35 .36 77.14 -45.89)" xlink:href="#WhiteTransparent-0" id="lg02-4" y1="254.36" x1="512.7" y2="254.83" x2="615.59" gradientUnits="userSpaceOnUse"/>
<linearGradient gradientTransform="matrix(.0998 .0998 -.28 .28 78.84 -44.8)" xlink:href="#BlackTransparent-4" id="lg05-7" x1="543.1" x2="419.88" gradientUnits="userSpaceOnUse"/>
<linearGradient id="BlackTransparent-4">
<stop offset="0"/>
<stop offset="1" stop-opacity="0"/>
</linearGradient>
<linearGradient gradientTransform="matrix(.26 0 0 .26 -106.57 101.57)" xlink:href="#WhiteTransparent-0" id="lg55-2" y1="-137.5" x1="550.96" y2="-241.2" x2="655.42" gradientUnits="userSpaceOnUse"/>
<linearGradient xlink:href="#BlackTransparent-4" id="lg19-5" y1="6145.308" x1="2482.957" y2="6037.526" x2="2375.498" gradientUnits="userSpaceOnUse"/>
<linearGradient id="WhiteTransparent-0">
<stop offset="0" stop-color="#fff"/>
<stop offset="1" stop-color="#fff" stop-opacity="0"/>
</linearGradient>
<linearGradient gradientTransform="translate(-.30267 -3.20138)" xlink:href="#BlackTransparent-4" id="lgdg-5" y1="66.2" x1="73.88" y2="86.68" x2="84.3" gradientUnits="userSpaceOnUse"/>
<linearGradient gradientTransform="matrix(.1 .1 -.22 .2 75.6 -33.53)" xlink:href="#WhiteTransparent-0" id="lg1999-5" y1="69.99" x1="637.03" y2="118.3" x2="638.3" gradientUnits="userSpaceOnUse"/>
<linearGradient gradientTransform="matrix(.2 0 0 .2 -80.94 88.3)" xlink:href="#WhiteTransparent-0" id="lg51-5" y1="-252.6" x1="646.24" y2="-186.26" x2="607.66" gradientUnits="userSpaceOnUse"/>
</defs>
<g transform="matrix(3.47443 0 0 3.47443 33.22118 28.75974)">
<use width="128" opacity=".25" class="outline-big" height="128" stroke="#000" stroke-linejoin="round" xlink:href="#outline1-3" stroke-width="8"/>
<use width="128" opacity=".5" class="outline-small" height="128" stroke="#000" stroke-linejoin="round" xlink:href="#outline1-3" stroke-width="4"/>
<use width="128" class="aluminium4" fill="#888a85" height="128" xlink:href="#outline1-3"/>
<use width="128" stroke-opacity=".2" class="stroke-highlight" fill="none" height="128" stroke="#fff" xlink:href="#outline1-3" stroke-width="4" clip-path="url(#clipoutline1-6)"/>
<path opacity=".75" class="high-specularity" fill="url(#lg55-2)" d="m24.33,15.4 13.45,13.38-3.33,11.69-10.95,3.27-13.5681-13.74-4.7319,4.54 14.2,19.94 18.9-4.14 62.5,66.36c7.5,8.3 20.2-2.67 11.14-11.6l-66.9-63.1 3.86-17.17-19.96-14.03-4.61,4.6zm79.97,93.3c1.67-1.67 4.63-2 6.3-.3 1.7,1.67 3.06,4.63 .65,7.84-2,2-5.2,1.92-7.2-.24-1.68-1.68-1.45-5.6 .25-7.3z"/>
<path opacity=".5" class="specularity" fill="url(#lg51-5)" d="m24.2,15.42 23.47,23.65 3.22-13.87-22.1-14.4-4.59,4.62z"/>
</g>
<g transform="matrix(3.47443 0 0 3.47443 33.22118 28.75974)">
<path opacity=".5" class="low-shade" fill="url(#lgdg-5)" d="m70.739,65.52 4.631,4.28c.38,4.32-.73,5.62-7.83,11.64l-8.6-9.22 11.79-6.7h.009z"/>
</g>
<g transform="matrix(3.47443 0 0 3.47443 33.22118 28.75974)">
<use width="128" opacity=".25" class="outline-big" height="128" stroke="#000" stroke-linejoin="round" xlink:href="#outline2-2" stroke-width="8"/>
<use width="128" opacity=".5" class="outline-small stroke-aluminium5" height="128" stroke="#000" stroke-linejoin="round" xlink:href="#outline2-2" stroke-width="4"/>
<path class="aluminium2" fill="#d3d7cf" d="m82.92,35.75-29.45,29.45 8.83,8.83 29.45-29.44-8.83-8.84z"/>
<path opacity=".5" class="specularity" fill="url(#lg19-5)" d="m88.93,41.76-29.45,29.44 2.82,2.83 29.45-29.44-2.82-2.83z"/>
<path fill="url(#lg16-6)" d="m86.46,37.04-29.33,29.33 3.79,3.79 28.58-30.08-3.04-3.04z"/>
<path class="aluminium6" fill="#2e3436" d="m55.8,12 .76,.16c8.84-2.94 28.68,8.64 24.26,18.96-1.12,1.62-.93,4.5 .42,6.31l8.91,8.77c2.63,2.37 5.11,2.57 7.47,1.93 4.55-1.23 7.08,3.2 9.81,6.46l-1.23,1.21c-1.82,1.84-1.65,4.94 .39,6.98 2.04,2.04 5.15,2.21 6.97,.39l8.14-8.13c1.82-1.84 1.65-4.94-.4-6.97-1.84-1.85-4.51-2.09-6.37-.77-5.58-6.26-2.65-7.2-10.01-15.35l-13.79-14.09c-9.93-9.74-22.83-9.73-35.33-5.86z"/>
<path opacity=".5" class="specularity" fill="url(#lg12-9)" d="m114.93,47.3c-5.58-6.26-2.65-7.2-10.01-15.35l-13.79-14.09c-5.69-5.58-12.36-7.96-19.36-8.26l41.13,41.53 2.9753-2.73-.9453-1.1z"/>
<path opacity=".5" class="low-specularity" fill="url(#lg09-3)" d="m81.45,28c.05,1-.1793,2-.65,3.12-1.1,1.62-.91,4.5 .44,6.31l8.91,8.77c2.63,2.37 5.11,2.57 7.47,1.93 1.08-.33 2.06-.27 2.98,0 2.8,.77-19.16-20.55-19.15-20.23v.1z"/>
<path fill="#3465a4" d="m56.43,62.25c-1.39-1.39-4.48-1.36-5.9,0l-41.03,39.38c-3.74,3.59-.82,6.64 .78,8.25l7.36,7.36c1.61,1.6 5.86,3.76 8.88,.56l38.72-40.81c1.35-1.42 1.36-4.47 0-5.87 0,0 .01-.02 0-.02l-8.81-8.85z"/>
<path opacity=".5" class="low-shade" fill="url(#lg05-7)" d="m10.27,109.87 7.36,7.37c1.61,1.6 5.73,3.89 8.75,.71l38.87-40.97c1.35-1.43 1.39-4.5 0-5.88l-8.83-8.84-46.15,47.61z"/>
<path opacity=".5" class="specularity" fill="url(#lg02-4)" d="m51.2,65.7-38.88,38.04c-1.62,1.56-1.07,3.75 .1,4.89l4.13,3.97 42.37-43.6-3.92-3.68c-.84-.8-2.8-.57-3.8,.38z"/>
<use width="128" stroke-opacity=".2" class="stroke-highlight" fill="none" height="128" stroke="#fff" stroke-linejoin="round" xlink:href="#outline2-2" stroke-width="4" clip-path="url(#clipoutline2-5)"/>
<path fill="url(#lg1999-5)" d="m120.45,49.26c1.51,1.44 1.8,3.44-.28,5.36l-3.87,3.63c-2.08,1.95-7.52-3.25-5.45-5.19l3.88-3.63c2.07-1.95 4.21-1.61 5.72-.17z"/>
</g>
</svg>
