<?xml version="1.0" encoding="UTF-8" standalone="no"?>
<svg
   xmlns:dc="http://purl.org/dc/elements/1.1/"
   xmlns:cc="http://creativecommons.org/ns#"
   xmlns:rdf="http://www.w3.org/1999/02/22-rdf-syntax-ns#"
   xmlns:svg="http://www.w3.org/2000/svg"
   xmlns="http://www.w3.org/2000/svg"
   xmlns:xlink="http://www.w3.org/1999/xlink"
   xmlns:sodipodi="http://sodipodi.sourceforge.net/DTD/sodipodi-0.dtd"
   xmlns:inkscape="http://www.inkscape.org/namespaces/inkscape"
   viewBox="0 0 512 512"
   version="1.1"
   id="svg72"
   sodipodi:docname="DrawingPreferences.svg"
   inkscape:version="0.92.2 5c3e80d, 2017-08-06">
  <metadata
     id="metadata76">
    <rdf:RDF>
      <cc:Work
         rdf:about="">
        <dc:format>image/svg+xml</dc:format>
        <dc:type
           rdf:resource="http://purl.org/dc/dcmitype/StillImage" />
      </cc:Work>
    </rdf:RDF>
  </metadata>
  <sodipodi:namedview
     pagecolor="#ffffff"
     bordercolor="#666666"
     borderopacity="1"
     objecttolerance="10"
     gridtolerance="10"
     guidetolerance="10"
     inkscape:pageopacity="0"
     inkscape:pageshadow="2"
     inkscape:window-width="2022"
     inkscape:window-height="1262"
     id="namedview74"
     showgrid="false"
     inkscape:zoom="0.921875"
     inkscape:cx="256"
     inkscape:cy="252.74576"
     inkscape:window-x="0"
     inkscape:window-y="0"
     inkscape:window-maximized="0"
     inkscape:current-layer="svg72" />
  <defs
     id="defs32">
    <clipPath
       id="clipPath4">
      <path
         d="m55.8 12l.76.16c8.84-2.94 28.68 8.64 24.26 18.96-1.12 1.62-.93 4.5.42 6.31l-24.81 24.82c-1.39-1.39-4.48-1.36-5.9 0l-41.03 39.38c-3.74 3.59-.8 6.64.78 8.25l7.36 7.36c1.61 1.6 5.86 3.76 8.88.56l38.72-40.81c1.35-1.42 1.36-4.47 0-5.87 0 0 .01-.02 0-.02l24.91-24.9c2.63 2.37 5.114 2.575 7.47 1.93 4.551-1.245 7.087 3.207 9.81 6.46l-1.23 1.21c-1.82 1.84-1.65 4.94.39 6.98 2.04 2.04 5.15 2.21 6.97.39l8.14-8.13c1.82-1.84 1.65-4.94-.4-6.97-1.84-1.85-4.51-2.09-6.37-.77-5.58-6.26-2.65-7.2-10.01-15.35l-13.79-14.09c-9.93-9.74-22.83-9.73-35.33-5.86"
         id="path2" />
    </clipPath>
    <clipPath
       id="clipPath8">
      <path
         d="m55.8 12l.76.16c8.84-2.94 28.68 8.64 24.26 18.96-1.12 1.62-.93 4.5.42 6.31l-24.81 24.82c-1.39-1.39-4.48-1.36-5.9 0l-41.03 39.38c-3.74 3.59-.8 6.64.78 8.25l7.36 7.36c1.61 1.6 5.86 3.76 8.88.56l38.72-40.81c1.35-1.42 1.36-4.47 0-5.87 0 0 .01-.02 0-.02l24.91-24.9c2.63 2.37 5.114 2.575 7.47 1.93 4.551-1.245 7.087 3.207 9.81 6.46l-1.23 1.21c-1.82 1.84-1.65 4.94.39 6.98 2.04 2.04 5.15 2.21 6.97.39l8.14-8.13c1.82-1.84 1.65-4.94-.4-6.97-1.84-1.85-4.51-2.09-6.37-.77-5.58-6.26-2.65-7.2-10.01-15.35l-13.79-14.09c-9.93-9.74-22.83-9.73-35.33-5.86"
         id="path6" />
    </clipPath>
    <clipPath
       id="0">
      <path
         id="D"
         d="m22.42 17.2l12.96 12.95-2.5 8.78-8.78 2.5-12.96-12.96-5.86 5.86 14.89 21.46 17.56-3.34 61.63 65.62c9.44 9.51 22.17-4.75 13.34-12.87l-65.85-62.28 4.01-17.76-22.14-14.27-6.3 6.31m81.06 91.97c1.68-1.68 4.4-1.68 6.08 0 1.68 1.68 1.68 4.4 0 6.08-1.68 1.67-4.4 1.67-6.08 0-1.68-1.68-1.68-4.4 0-6.08" />
    </clipPath>
    <linearGradient
       xlink:href="#6"
       id="8"
       y1="6145.31"
       x1="2482.96"
       y2="6037.53"
       x2="2375.5"
       gradientUnits="userSpaceOnUse" />
    <linearGradient
       id="9">
      <stop
         style="stop-color:#fff"
         id="stop13" />
      <stop
         offset="1"
         style="stop-color:#fff;stop-opacity:0"
         id="stop15" />
    </linearGradient>
    <linearGradient
       xlink:href="#6"
       id="A"
       y1="62.999"
       x1="73.58"
       y2="83.48"
       x2="83.997"
       gradientUnits="userSpaceOnUse" />
    <linearGradient
       gradientTransform="matrix(0.1,0.1,-0.22,0.2,75.6,-33.53)"
       xlink:href="#9"
       id="B"
       y1="69.99"
       x1="637.03"
       y2="118.3"
       x2="638.3"
       gradientUnits="userSpaceOnUse" />
    <linearGradient
       xlink:href="#9"
       id="7"
       y1="65.82"
       x1="36.68"
       y2="38.858"
       x2="63.839"
       gradientUnits="userSpaceOnUse" />
    <linearGradient
       xlink:href="#6"
       id="5"
       x1="133.04"
       x2="120.74"
       gradientUnits="userSpaceOnUse"
       y1="9.401"
       y2="-2.896" />
    <linearGradient
       xlink:href="#9"
       id="1"
       y1="-18.829"
       y2="-11.656"
       x2="45.696"
       gradientUnits="userSpaceOnUse"
       x1="52.869" />
    <linearGradient
       id="6">
      <stop
         id="stop23" />
      <stop
         offset="1"
         style="stop-opacity:0"
         id="stop25" />
    </linearGradient>
    <linearGradient
       xlink:href="#9"
       id="2"
       x1="123.56"
       x2="127.36"
       gradientUnits="userSpaceOnUse"
       y1="-.08"
       y2="3.723" />
    <linearGradient
       gradientTransform="matrix(0.0807,0.0775,-0.35,0.36,77.14,-45.89)"
       xlink:href="#9"
       id="4"
       y1="254.36"
       x1="512.7"
       y2="254.83"
       x2="615.59"
       gradientUnits="userSpaceOnUse" />
    <linearGradient
       xlink:href="#9"
       id="C"
       y1="37.78"
       x1="48.31"
       y2="51.05"
       x2="40.592"
       gradientUnits="userSpaceOnUse" />
    <linearGradient
       xlink:href="#9"
       id="3"
       y1="-42.18"
       y2="-48.26"
       x2="9.192"
       gradientUnits="userSpaceOnUse"
       x1="3.107" />
    <linearGradient
       x2="0"
       gradientUnits="userSpaceOnUse"
       y2="609.5"
       y1="366.65"
       id="1-9"
       gradientTransform="matrix(2.77439 0 0 1.96971-1892.18-872.89)">
      <stop
         id="stop1096"
         style="stop-opacity:0" />
      <stop
         id="stop1098"
         offset=".5" />
      <stop
         id="stop1100"
         style="stop-opacity:0"
         offset="1" />
    </linearGradient>
    <radialGradient
       gradientUnits="userSpaceOnUse"
       r="1.208"
       id="7-3"
       xlink:href="#9-0"
       cy="18.811"
       cx="9.412" />
    <radialGradient
       gradientUnits="userSpaceOnUse"
       r="117.14"
       id="8-8"
       xlink:href="#6"
       gradientTransform="matrix(-2.77439 0 0 1.96971 112.76-872.89)"
       cy="486.65"
       cx="605.71" />
    <radialGradient
       xlink:href="#6-2"
       gradientUnits="userSpaceOnUse"
       id="9-0"
       r="5.257"
       cy="64.57"
       cx="20.892" />
    <radialGradient
       gradientUnits="userSpaceOnUse"
       id="6-2"
       r="5.256"
       cy="114.57"
       cx="20.892">
      <stop
         id="stop1106"
         style="stop-color:#f0f0f0" />
      <stop
         id="stop1108"
         style="stop-color:#9a9a9a"
         offset="1" />
    </radialGradient>
    <radialGradient
       gradientUnits="userSpaceOnUse"
       id="5-4"
       r="37.752"
       gradientTransform="matrix(10.32824 0 0 11.0162 38.438-471.5)"
       cy="3.756"
       cx="8.824">
      <stop
         id="stop1111"
         style="stop-color:#a3a3a3" />
      <stop
         id="stop1113"
         style="stop-color:#4c4c4c"
         offset="1" />
    </radialGradient>
    <radialGradient
       gradientUnits="userSpaceOnUse"
       r="117.14"
       id="A-8"
       xlink:href="#6"
       gradientTransform="matrix(2.77439 0 0 1.96971-1891.63-872.89)"
       cy="486.65"
       cx="605.71" />
    <radialGradient
       gradientUnits="userSpaceOnUse"
       id="2-3"
       r="86.71"
       gradientTransform="matrix(10.24525 0 0 11.1054 2.667-478.4)"
       cy="35.737"
       cx="33.967">
      <stop
         id="stop1117"
         style="stop-color:#fafafa" />
      <stop
         id="stop1119"
         style="stop-color:#bbb"
         offset="1" />
    </radialGradient>
    <radialGradient
       gradientUnits="userSpaceOnUse"
       id="4-9"
       r="38.16"
       gradientTransform="matrix(10.32824 0 0 11.0162 38.438-471.5)"
       cy="7.268"
       cx="8.144">
      <stop
         id="stop1122"
         style="stop-color:#fff" />
      <stop
         id="stop1124"
         style="stop-color:#f8f8f8"
         offset="1" />
    </radialGradient>
    <radialGradient
       gradientUnits="userSpaceOnUse"
       r="1.207"
       id="3-0"
       xlink:href="#6-2"
       cy="30.3"
       cx="9.412" />
  </defs>
  <g
     id="g1208"
     transform="translate(0.00501325,-0.00176177)">
    <g
       id="g1144"
       style="color:#000000">
      <g
         id="g1136"
         transform="matrix(0.23095,0,0,0.15848,461.41,440.91)">
        <path
           id="path1130"
           style="opacity:0.40200004;fill:url(#1-9)"
           d="M -1559.25,-150.7 H -219.62 V 327.66 H -1559.25 Z"
           inkscape:connector-curvature="0" />
        <path
           id="path1132"
           style="opacity:0.40200004;fill:url(#A-8)"
           d="m -219.62,-150.68 c 0,0 0,478.33 0,478.33 142.87,0.9 345.4,-107.17 345.4,-239.2 0,-132.03 -159.44,-239.13 -345.4,-239.13"
           inkscape:connector-curvature="0" />
        <path
           id="path1134"
           style="opacity:0.40200004;fill:url(#8-8)"
           d="m -1559.25,-150.68 c 0,0 0,478.33 0,478.33 -142.87,0.9 -345.4,-107.17 -345.4,-239.2 0,-132.03 159.44,-239.13 345.4,-239.13"
           inkscape:connector-curvature="0" />
      </g>
      <g
         id="g1142"
         style="display:block;stroke-width:10.66699982;stroke-linecap:round;stroke-linejoin:round"
         transform="translate(0,464)">
        <path
           id="path1138"
           style="fill:url(#2-3);stroke:url(#5-4)"
           d="m 85.36,-439.5 h 347.49 a 12.2565,12.2565 0 0 1 12.257,12.257 v 411.97 A 12.2565,12.2565 0 0 1 432.85,-3.0165 H 85.36 A 12.2565,12.2565 0 0 1 73.1035,-15.273 v -411.97 A 12.2565,12.2565 0 0 1 85.36,-439.5"
           inkscape:connector-curvature="0" />
        <path
           id="path1140"
           style="fill:none;stroke:url(#4-9)"
           d="m 86.03,-429.5 h 346.43 a 1.5898,1.5898 0 0 1 1.59,1.59 v 412.25 a 1.5898,1.5898 0 0 1 -1.59,1.5898 H 86.03 A 1.5898,1.5898 0 0 1 84.4402,-15.66 v -412.25 a 1.5898,1.5898 0 0 1 1.5898,-1.59"
           inkscape:connector-curvature="0" />
      </g>
    </g>
    <g
       id="g1150"
       style="fill:#ffffff"
       transform="matrix(2.45016,0,0,2.45016,62.54,30.474)">
      <path
         id="path1146"
         d="m 23.428,113.07 c 0,1.973 -1.6,3.572 -3.573,3.572 -1.974,0 -3.573,-1.6 -3.573,-3.572 0,-1.974 1.6,-3.573 3.573,-3.573 1.973,0 3.573,1.6 3.573,3.573"
         inkscape:connector-curvature="0" />
      <path
         id="path1148"
         d="m 23.428,63.07 c 0,1.973 -1.6,3.573 -3.573,3.573 -1.974,0 -3.573,-1.6 -3.573,-3.573 0,-1.974 1.6,-3.573 3.573,-3.573 1.973,0 3.573,1.6 3.573,3.573"
         inkscape:connector-curvature="0" />
    </g>
    <g
       id="g1156"
       transform="matrix(10.66666,0,0,10.66666,9.563,-14.805)">
      <path
         id="path1152"
         style="fill:url(#3-0)"
         d="m 9.995,29.952 c 0,0.453 -0.367,0.82 -0.821,0.82 -0.453,0 -0.821,-0.367 -0.821,-0.82 0,-0.453 0.367,-0.821 0.821,-0.821 0.453,0 0.821,0.367 0.821,0.821"
         inkscape:connector-curvature="0" />
      <path
         id="path1154"
         style="fill:url(#7-3)"
         d="m 9.995,18.467 c 0,0.453 -0.367,0.821 -0.821,0.821 -0.453,0 -0.821,-0.367 -0.821,-0.821 0,-0.453 0.367,-0.821 0.821,-0.821 0.453,0 0.821,0.367 0.821,0.821"
         inkscape:connector-curvature="0" />
    </g>
    <g
       id="g1162"
       style="fill:none"
       transform="translate(0,464)">
      <path
         id="path1158"
         style="stroke:#000000;stroke-width:10.54500008;stroke-opacity:0.01799999"
         d="M 125.39,-419.79 V -15.45"
         inkscape:connector-curvature="0" />
      <path
         id="path1160"
         style="stroke:#ffffff;stroke-width:10.66699982;stroke-opacity:0.20499998"
         d="M 136,-424.85 V -19.33"
         inkscape:connector-curvature="0" />
    </g>
  </g>
  <g
     transform="matrix(2.2236352,0,0,2.2236352,139.12228,94.027488)"
     id="g70">
    <g
       style="stroke:#000000;stroke-linejoin:round"
       id="g38">
      <use
         width="128"
         height="128"
         xlink:href="#D"
         style="opacity:0.25;stroke-width:8"
         id="use34"
         x="0"
         y="0" />
      <use
         width="128"
         height="128"
         xlink:href="#D"
         style="opacity:0.5;stroke-width:4"
         id="use36"
         x="0"
         y="0" />
    </g>
    <use
       width="128"
       height="128"
       xlink:href="#D"
       style="fill:#888a85"
       id="use40"
       x="0"
       y="0" />
    <use
       width="128"
       height="128"
       xlink:href="#D"
       style="fill:none;stroke:#ffffff;stroke-width:4;stroke-opacity:0.2"
       clip-path="url(#0)"
       id="use42"
       x="0"
       y="0" />
    <path
       d="M 24.33,15.4 37.78,28.78 34.45,40.47 23.5,43.74 9.932,30 5.2,34.54 19.4,54.48 38.3,50.34 100.8,116.7 c 7.5,8.3 20.2,-2.67 11.14,-11.6 L 45.04,42 48.9,24.83 28.94,10.8 24.33,15.4 m 79.97,93.3 c 1.67,-1.67 4.63,-2 6.3,-0.3 1.7,1.67 3.06,4.63 0.65,7.84 -2,2 -5.2,1.92 -7.2,-0.24 -1.68,-1.68 -1.45,-5.6 0.25,-7.3"
       style="opacity:0.75;fill:url(#7)"
       id="path44"
       inkscape:connector-curvature="0" />
    <path
       d="M 24.2,15.42 47.67,39.07 50.89,25.2 28.79,10.8 24.2,15.42"
       style="opacity:0.5;fill:url(#C)"
       id="path46"
       inkscape:connector-curvature="0" />
    <path
       d="m 70.74,65.52 4.631,4.28 c 0.38,4.32 -0.73,5.62 -7.83,11.64 l -8.6,-9.22 11.79,-6.7 h 0.009"
       style="opacity:0.5;fill:url(#A)"
       id="path48"
       inkscape:connector-curvature="0" />
    <path
       d="M 82.92,35.75 53.47,65.2 62.3,74.03 91.75,44.59 82.92,35.75"
       style="fill:#d3d7cf"
       id="path50"
       inkscape:connector-curvature="0" />
    <path
       d="M 88.93,41.76 59.48,71.2 62.3,74.03 91.75,44.59 88.93,41.76"
       style="opacity:0.5;fill:url(#8)"
       id="path52"
       inkscape:connector-curvature="0" />
    <path
       d="M 86.46,37.04 57.13,66.37 60.92,70.16 89.5,40.08 86.46,37.04"
       style="fill:url(#2)"
       id="path54"
       inkscape:connector-curvature="0" />
    <path
       d="m 55.8,12 0.76,0.16 c 8.84,-2.94 28.68,8.64 24.26,18.96 -1.12,1.62 -0.93,4.5 0.42,6.31 l 8.91,8.77 c 2.63,2.37 5.11,2.57 7.47,1.93 4.55,-1.23 7.08,3.2 9.81,6.46 l -1.23,1.21 c -1.82,1.84 -1.65,4.94 0.39,6.98 2.04,2.04 5.15,2.21 6.97,0.39 l 8.14,-8.13 c 1.82,-1.84 1.65,-4.94 -0.4,-6.97 -1.84,-1.85 -4.51,-2.09 -6.37,-0.77 -5.58,-6.26 -2.65,-7.2 -10.01,-15.35 L 91.13,17.86 C 81.2,8.12 68.3,8.13 55.8,12"
       style="fill:#2e3436"
       id="path56"
       inkscape:connector-curvature="0" />
    <path
       d="m 114.93,47.3 c -5.58,-6.26 -2.65,-7.2 -10.01,-15.35 L 91.13,17.86 C 85.44,12.28 78.77,9.9 71.77,9.6 l 41.13,41.53 2.975,-2.73 -0.945,-1.1"
       style="opacity:0.5;fill:url(#1)"
       id="path58"
       inkscape:connector-curvature="0" />
    <path
       d="m 81.45,28 c 0.05,1 -0.179,2 -0.65,3.12 -1.1,1.62 -0.91,4.5 0.44,6.31 l 8.91,8.77 c 2.63,2.37 5.11,2.57 7.47,1.93 1.08,-0.33 2.06,-0.27 2.98,0 C 103.4,48.9 81.44,27.58 81.45,27.9 V 28"
       style="opacity:0.5;fill:url(#3)"
       id="path60"
       inkscape:connector-curvature="0" />
    <path
       d="m 56.43,62.25 c -1.39,-1.39 -4.48,-1.36 -5.9,0 L 9.5,101.63 c -3.74,3.59 -0.82,6.64 0.78,8.25 l 7.36,7.36 c 1.61,1.6 5.86,3.76 8.88,0.56 L 65.24,76.99 c 1.35,-1.42 1.36,-4.47 0,-5.87 0,0 0.01,-0.02 0,-0.02 l -8.81,-8.85"
       style="fill:#3465a4"
       id="path62"
       inkscape:connector-curvature="0" />
    <path
       d="m 10.27,109.87 7.36,7.37 c 1.61,1.6 5.73,3.89 8.75,0.71 L 65.25,76.98 c 1.35,-1.43 1.39,-4.5 0,-5.88 l -8.83,-8.84 -46.15,47.61"
       style="opacity:0.5;fill:url(#5)"
       id="path64"
       inkscape:connector-curvature="0" />
    <path
       d="m 51.2,65.7 -38.88,38.04 c -1.62,1.56 -1.07,3.75 0.1,4.89 L 16.55,112.6 58.92,69 55,65.32 c -0.84,-0.8 -2.8,-0.57 -3.8,0.38"
       style="opacity:0.5;fill:url(#4)"
       id="path66"
       inkscape:connector-curvature="0" />
    <path
       d="m 120.45,49.26 c 1.51,1.44 1.8,3.44 -0.28,5.36 l -3.87,3.63 c -2.08,1.95 -7.52,-3.25 -5.45,-5.19 l 3.88,-3.63 c 2.07,-1.95 4.21,-1.61 5.72,-0.17"
       style="fill:url(#B)"
       id="path68"
       inkscape:connector-curvature="0" />
  </g>
</svg>
