<?xml version="1.0" encoding="UTF-8" standalone="no"?>
<!-- Created with Inkscape (http://www.inkscape.org/) -->

<svg
   xmlns:dc="http://purl.org/dc/elements/1.1/"
   xmlns:cc="http://creativecommons.org/ns#"
   xmlns:rdf="http://www.w3.org/1999/02/22-rdf-syntax-ns#"
   xmlns:svg="http://www.w3.org/2000/svg"
   xmlns="http://www.w3.org/2000/svg"
   xmlns:sodipodi="http://sodipodi.sourceforge.net/DTD/sodipodi-0.dtd"
   xmlns:inkscape="http://www.inkscape.org/namespaces/inkscape"
   width="512"
   height="512"
   id="svg2"
   sodipodi:version="0.32"
   inkscape:version="0.47 r22583"
   version="1.0"
   sodipodi:docname="ToggleGrid.svg"
   inkscape:output_extension="org.inkscape.output.svg.inkscape">
  <defs
     id="defs4">
    <inkscape:perspective
       sodipodi:type="inkscape:persp3d"
       inkscape:vp_x="0 : 526.18109 : 1"
       inkscape:vp_y="0 : 1000 : 0"
       inkscape:vp_z="744.09448 : 526.18109 : 1"
       inkscape:persp3d-origin="372.04724 : 350.78739 : 1"
       id="perspective10" />
    <inkscape:perspective
       id="perspective2477"
       inkscape:persp3d-origin="372.04724 : 350.78739 : 1"
       inkscape:vp_z="744.09448 : 526.18109 : 1"
       inkscape:vp_y="0 : 1000 : 0"
       inkscape:vp_x="0 : 526.18109 : 1"
       sodipodi:type="inkscape:persp3d" />
  </defs>
  <sodipodi:namedview
     id="base"
     pagecolor="#ffffff"
     bordercolor="#666666"
     borderopacity="1.0"
     gridtolerance="10000"
     guidetolerance="10"
     objecttolerance="10"
     inkscape:pageopacity="0.0"
     inkscape:pageshadow="2"
     inkscape:zoom="1"
     inkscape:cx="167.858"
     inkscape:cy="247.89052"
     inkscape:document-units="px"
     inkscape:current-layer="layer1"
     showgrid="true"
     inkscape:snap-global="true"
     inkscape:window-width="1442"
     inkscape:window-height="931"
     inkscape:window-x="931"
     inkscape:window-y="248"
     inkscape:window-maximized="0">
    <inkscape:grid
       type="xygrid"
       id="grid2485"
       visible="true"
       enabled="true"
       dotted="false"
       empspacing="10"
       originx="-8px"
       originy="-8px"
       snapvisiblegridlinesonly="true"
       spacingx="16px"
       spacingy="16px" />
  </sodipodi:namedview>
  <metadata
     id="metadata7">
    <rdf:RDF>
      <cc:Work
         rdf:about="">
        <dc:format>image/svg+xml</dc:format>
        <dc:type
           rdf:resource="http://purl.org/dc/dcmitype/StillImage" />
      </cc:Work>
    </rdf:RDF>
  </metadata>
  <g
     inkscape:label="Layer 1"
     inkscape:groupmode="layer"
     id="layer1"
     transform="translate(0,492)">
    <path
       sodipodi:type="arc"
       style="fill:#000000;fill-opacity:1;fill-rule:nonzero;stroke:none;stroke-width:1;marker:none;visibility:visible;display:inline;overflow:visible;enable-background:accumulate"
       id="path3682"
       sodipodi:cx="15.5"
       sodipodi:cy="4.5"
       sodipodi:rx="1"
       sodipodi:ry="1"
       d="m 16.5,4.5 a 1,1 0 1 1 -2,0 1,1 0 1 1 2,0 z"
       transform="matrix(16,0,0,16,-184,-500)" />
    <path
       sodipodi:type="arc"
       style="fill:#000000;fill-opacity:1;fill-rule:nonzero;stroke:none;stroke-width:1;marker:none;visibility:visible;display:inline;overflow:visible;enable-background:accumulate"
       id="path3684"
       sodipodi:cx="15.5"
       sodipodi:cy="4.5"
       sodipodi:rx="1"
       sodipodi:ry="1"
       d="m 16.5,4.5 a 1,1 0 1 1 -2,0 1,1 0 1 1 2,0 z"
       transform="matrix(16,0,0,16,-56,-500)" />
    <path
       sodipodi:type="arc"
       style="fill:#000000;fill-opacity:1;fill-rule:nonzero;stroke:none;stroke-width:1;marker:none;visibility:visible;display:inline;overflow:visible;enable-background:accumulate"
       id="path3686"
       sodipodi:cx="15.5"
       sodipodi:cy="4.5"
       sodipodi:rx="1"
       sodipodi:ry="1"
       d="m 16.5,4.5 a 1,1 0 1 1 -2,0 1,1 0 1 1 2,0 z"
       transform="matrix(16,0,0,16,72,-500)" />
    <path
       sodipodi:type="arc"
       style="fill:#000000;fill-opacity:1;fill-rule:nonzero;stroke:none;stroke-width:1;marker:none;visibility:visible;display:inline;overflow:visible;enable-background:accumulate"
       id="path3688"
       sodipodi:cx="15.5"
       sodipodi:cy="4.5"
       sodipodi:rx="1"
       sodipodi:ry="1"
       d="m 16.5,4.5 a 1,1 0 1 1 -2,0 1,1 0 1 1 2,0 z"
       transform="matrix(16,0,0,16,200,-500)" />
    <path
       sodipodi:type="arc"
       style="fill:#000000;fill-opacity:1;fill-rule:nonzero;stroke:none;stroke-width:1;marker:none;visibility:visible;display:inline;overflow:visible;enable-background:accumulate"
       id="path3690"
       sodipodi:cx="15.5"
       sodipodi:cy="4.5"
       sodipodi:rx="1"
       sodipodi:ry="1"
       d="m 16.5,4.5 a 1,1 0 1 1 -2,0 1,1 0 1 1 2,0 z"
       transform="matrix(16,0,0,16,-184,-372)" />
    <path
       sodipodi:type="arc"
       style="fill:#000000;fill-opacity:1;fill-rule:nonzero;stroke:none;stroke-width:1;marker:none;visibility:visible;display:inline;overflow:visible;enable-background:accumulate"
       id="path3692"
       sodipodi:cx="15.5"
       sodipodi:cy="4.5"
       sodipodi:rx="1"
       sodipodi:ry="1"
       d="m 16.5,4.5 a 1,1 0 1 1 -2,0 1,1 0 1 1 2,0 z"
       transform="matrix(16,0,0,16,-56,-372)" />
    <path
       sodipodi:type="arc"
       style="fill:#000000;fill-opacity:1;fill-rule:nonzero;stroke:none;stroke-width:1;marker:none;visibility:visible;display:inline;overflow:visible;enable-background:accumulate"
       id="path3694"
       sodipodi:cx="15.5"
       sodipodi:cy="4.5"
       sodipodi:rx="1"
       sodipodi:ry="1"
       d="m 16.5,4.5 a 1,1 0 1 1 -2,0 1,1 0 1 1 2,0 z"
       transform="matrix(16,0,0,16,72,-372)" />
    <path
       sodipodi:type="arc"
       style="fill:#000000;fill-opacity:1;fill-rule:nonzero;stroke:none;stroke-width:1;marker:none;visibility:visible;display:inline;overflow:visible;enable-background:accumulate"
       id="path3696"
       sodipodi:cx="15.5"
       sodipodi:cy="4.5"
       sodipodi:rx="1"
       sodipodi:ry="1"
       d="m 16.5,4.5 a 1,1 0 1 1 -2,0 1,1 0 1 1 2,0 z"
       transform="matrix(16,0,0,16,200,-372)" />
    <path
       sodipodi:type="arc"
       style="fill:#000000;fill-opacity:1;fill-rule:nonzero;stroke:none;stroke-width:1;marker:none;visibility:visible;display:inline;overflow:visible;enable-background:accumulate"
       id="path3698"
       sodipodi:cx="15.5"
       sodipodi:cy="4.5"
       sodipodi:rx="1"
       sodipodi:ry="1"
       d="m 16.5,4.5 a 1,1 0 1 1 -2,0 1,1 0 1 1 2,0 z"
       transform="matrix(16,0,0,16,-184,-244)" />
    <path
       sodipodi:type="arc"
       style="fill:#000000;fill-opacity:1;fill-rule:nonzero;stroke:none;stroke-width:1;marker:none;visibility:visible;display:inline;overflow:visible;enable-background:accumulate"
       id="path3700"
       sodipodi:cx="15.5"
       sodipodi:cy="4.5"
       sodipodi:rx="1"
       sodipodi:ry="1"
       d="m 16.5,4.5 a 1,1 0 1 1 -2,0 1,1 0 1 1 2,0 z"
       transform="matrix(16,0,0,16,-56,-244)" />
    <path
       sodipodi:type="arc"
       style="fill:#000000;fill-opacity:1;fill-rule:nonzero;stroke:none;stroke-width:1;marker:none;visibility:visible;display:inline;overflow:visible;enable-background:accumulate"
       id="path3702"
       sodipodi:cx="15.5"
       sodipodi:cy="4.5"
       sodipodi:rx="1"
       sodipodi:ry="1"
       d="m 16.5,4.5 a 1,1 0 1 1 -2,0 1,1 0 1 1 2,0 z"
       transform="matrix(16,0,0,16,72,-244)" />
    <path
       sodipodi:type="arc"
       style="fill:#000000;fill-opacity:1;fill-rule:nonzero;stroke:none;stroke-width:1;marker:none;visibility:visible;display:inline;overflow:visible;enable-background:accumulate"
       id="path3704"
       sodipodi:cx="15.5"
       sodipodi:cy="4.5"
       sodipodi:rx="1"
       sodipodi:ry="1"
       d="m 16.5,4.5 a 1,1 0 1 1 -2,0 1,1 0 1 1 2,0 z"
       transform="matrix(16,0,0,16,200,-244)" />
    <path
       sodipodi:type="arc"
       style="fill:#000000;fill-opacity:1;fill-rule:nonzero;stroke:none;stroke-width:1;marker:none;visibility:visible;display:inline;overflow:visible;enable-background:accumulate"
       id="path3706"
       sodipodi:cx="15.5"
       sodipodi:cy="4.5"
       sodipodi:rx="1"
       sodipodi:ry="1"
       d="m 16.5,4.5 a 1,1 0 1 1 -2,0 1,1 0 1 1 2,0 z"
       transform="matrix(16,0,0,16,-184,-116)" />
    <path
       sodipodi:type="arc"
       style="fill:#000000;fill-opacity:1;fill-rule:nonzero;stroke:none;stroke-width:1;marker:none;visibility:visible;display:inline;overflow:visible;enable-background:accumulate"
       id="path3708"
       sodipodi:cx="15.5"
       sodipodi:cy="4.5"
       sodipodi:rx="1"
       sodipodi:ry="1"
       d="m 16.5,4.5 a 1,1 0 1 1 -2,0 1,1 0 1 1 2,0 z"
       transform="matrix(16,0,0,16,-56,-116)" />
    <path
       sodipodi:type="arc"
       style="fill:#000000;fill-opacity:1;fill-rule:nonzero;stroke:none;stroke-width:1;marker:none;visibility:visible;display:inline;overflow:visible;enable-background:accumulate"
       id="path3710"
       sodipodi:cx="15.5"
       sodipodi:cy="4.5"
       sodipodi:rx="1"
       sodipodi:ry="1"
       d="m 16.5,4.5 a 1,1 0 1 1 -2,0 1,1 0 1 1 2,0 z"
       transform="matrix(16,0,0,16,72,-116)" />
    <path
       sodipodi:type="arc"
       style="fill:#000000;fill-opacity:1;fill-rule:nonzero;stroke:none;stroke-width:1;marker:none;visibility:visible;display:inline;overflow:visible;enable-background:accumulate"
       id="path3712"
       sodipodi:cx="15.5"
       sodipodi:cy="4.5"
       sodipodi:rx="1"
       sodipodi:ry="1"
       d="m 16.5,4.5 a 1,1 0 1 1 -2,0 1,1 0 1 1 2,0 z"
       transform="matrix(16,0,0,16,200,-116)" />
  </g>
</svg>
