<svg xmlns="http://www.w3.org/2000/svg" xmlns:xlink="http://www.w3.org/1999/xlink" viewBox="0 0 512 512"><defs><path id="0" d="m16.5 4.5a1 1 0 1 1 -2 0 1 1 0 1 1 2 0" fill="#fff"/></defs><use transform="matrix(16 0 0 16-184-8)" xlink:href="#0"/><use transform="matrix(16 0 0 16-56-8)" xlink:href="#0"/><use transform="matrix(16 0 0 16 72-8)" xlink:href="#0"/><use transform="matrix(16 0 0 16 200-8)" xlink:href="#0"/><use transform="matrix(16 0 0 16-184 120)" xlink:href="#0"/><use transform="matrix(16 0 0 16-56 120)" xlink:href="#0"/><use transform="matrix(16 0 0 16 72 120)" xlink:href="#0"/><use transform="matrix(16 0 0 16 200 120)" xlink:href="#0"/><use transform="matrix(16 0 0 16-184 248)" xlink:href="#0"/><use transform="matrix(16 0 0 16-56 248)" xlink:href="#0"/><use transform="matrix(16 0 0 16 72 248)" xlink:href="#0"/><use transform="matrix(16 0 0 16 200 248)" xlink:href="#0"/><use transform="matrix(16 0 0 16-184 376)" xlink:href="#0"/><use transform="matrix(16 0 0 16-56 376)" xlink:href="#0"/><use transform="matrix(16 0 0 16 72 376)" xlink:href="#0"/><use transform="matrix(16 0 0 16 200 376)" xlink:href="#0"/></svg>