<svg width="512" xmlns="http://www.w3.org/2000/svg" height="512" xmlns:xlink="http://www.w3.org/1999/xlink">
<defs>
<linearGradient id="id0" y1="84" x1="159" y2="-2" x2="7">
<stop offset="0" stop-color="#009240"/>
<stop offset="1" stop-color="#b9db7d"/>
</linearGradient>
<linearGradient gradientTransform="matrix(3.05627 0 0 2.65474 116.54927 -463.69704)" id="linearGradient2833" xlink:href="#id0" y1="113.713" y2="23.318" x1="123.088" x2="2.677" gradientUnits="userSpaceOnUse"/>
</defs>
<g transform="translate(0 464)">
<path fill="none" stroke="#000" stroke-linecap="square" stroke-width="16" d="m200-136-64,80 128,48 192-80"/>
<g fill="#f00">
<path d="m16.5,4.5a1,1 0 1,1 -2,0 1,1 0 1,1 2,0z" transform="matrix(-32 0 0 -32 568 -136)"/>
<path d="m16.5,4.5a1,1 0 1,1 -2,0 1,1 0 1,1 2,0z" transform="matrix(-32 0 0 -32 696 8)"/>
</g>
<path fill="none" stroke="#f00" stroke-width="16" d="m72-280 128,144"/>
<path fill="url(#linearGradient2833)" stroke="#037340" stroke-width="11.394" d="m241.1947-275.7291 49.3087,54.9445-134.6742,0 0-144.5907 39.28,46.269c2.8057,2.8918 30.8628-28.9181 42.0857-40.4854 11.2228-11.5672 58.92-49.1608 95.3943-49.1608 36.4743,0 46.8624,3.3953 71.2791,18.0417 23.2229,14.6464 40.7698,34.3268 49.3665,60.0372 8.5967,25.7104 5.6114,40.4854 2.8057,63.6199-8.7763,48.2129-30.1446,71.4171-58.92,92.538-16.8343,11.5673-51.5104,23.6377-92.5885,26.0263-11.2228,0-22.4457-8.6754-14.0286-8.6754 8.4171,0 33.6686-2.8918 58.92-17.3509 46.7471-32.3721 61.7257-61.3599 61.7257-95.4298 0-17.3509-1.1938-35.2052-11.2229-49.1608-10.029-13.9556-25.2514-23.1345-56.1143-23.1345-30.8628,0-44.172,15.7818-63.812,30.2409-16.0574,15.6534-19.5825,19.4234-38.8053,36.2709z"/>
</g>
</svg>
