<svg xmlns="http://www.w3.org/2000/svg" viewBox="0 0 512 512"><g transform="translate(0 492)"><path d="M288-236A32 32 0 1 0 224 -236 32 32 0 0 0 288 -236" style="fill:#f00"/><g transform="translate(0-476)" style="fill:none;opacity:.25;stroke:#f00;color:#000;stroke-linecap:square"><path transform="matrix(.8 0 0 .8 113.6 91.2)" d="M168 136A80 80 0 1 1 8 136 80 80 0 1 1 168 136z" style="stroke-width:20"/><g style="stroke-width:16"><path d="m376 184l-128 144h128v-144z"/><path d="m56 184c0-62.05 25.952-112 96-112h304v336h-272v-80h-128v-144z"/></g></g></g></svg>