<svg xmlns="http://www.w3.org/2000/svg" viewBox="0 0 512 512" xmlns:xlink="http://www.w3.org/1999/xlink">
<defs>
<filter width="1.177" x="-.089" y="-.384" height="1.767" color-interpolation-filters="sRGB" id="filter3268">
<feGaussianBlur stdDeviation="1.59836"/>
</filter>
<linearGradient gradientTransform="matrix(10.66666 0 0 10.66666 -22.60403 -6.80961)" xlink:href="#linearGradient19900-3" id="linearGradient19906-6" y1="41" x1="40.25" y2="38.435" x2="43.062" gradientUnits="userSpaceOnUse"/>
<linearGradient id="linearGradient2698-1">
<stop offset="0" stop-color="#555753"/>
<stop offset=".702" stop-color="#a3a5a2"/>
<stop offset="1" stop-color="#888a85"/>
</linearGradient>
<linearGradient id="linearGradient19900-3">
<stop offset="0" stop-color="#888a85"/>
<stop offset="1" stop-color="#d3d7cf"/>
</linearGradient>
<linearGradient xlink:href="#linearGradient2690-6" id="linearGradient1423-7" y1="57.148" x1="81.096" y2="54.615" gradientUnits="userSpaceOnUse" x2="83.629"/>
<linearGradient xlink:href="#linearGradient3244-7" id="linearGradient3250-0" y1="35.743" x1="3.5" y2="45.743" x2="46.779" gradientUnits="userSpaceOnUse"/>
<linearGradient id="linearGradient3244-7">
<stop offset="0" stop-opacity="0"/>
<stop offset=".081" stop-opacity="0"/>
<stop offset=".615" stop-opacity=".247"/>
<stop offset=".749" stop-opacity=".498"/>
<stop offset="1"/>
</linearGradient>
<linearGradient id="linearGradient2690-6">
<stop offset="0" stop-color="#2e3436"/>
<stop offset="1" stop-color="#555753"/>
</linearGradient>
<linearGradient xlink:href="#linearGradient2698-1" id="linearGradient1421-6" y1="55.107" x1="81.332" y2="53.511" gradientUnits="userSpaceOnUse" x2="82.92"/>
<linearGradient xlink:href="#linearGradient4931-2" id="linearGradient4937-1" y1="12.847" x1="54.113" y2="-3.881" x2="50.08" gradientUnits="userSpaceOnUse"/>
<linearGradient id="linearGradient4931-2">
<stop offset="0" stop-color="#babdb6"/>
<stop offset="1" stop-color="#888a85"/>
</linearGradient>
<linearGradient xlink:href="#linearGradient23434-9" id="linearGradient23440-1" y1="12.472" x1="55.878" y2="-4.621" x2="52.5" gradientUnits="userSpaceOnUse"/>
<linearGradient id="linearGradient19914-6">
<stop offset="0"/>
<stop offset="1" stop-opacity="0"/>
</linearGradient>
<linearGradient id="linearGradient23434-9">
<stop offset="0" stop-color="#888a85"/>
<stop offset="1" stop-color="#babdb6"/>
</linearGradient>
<linearGradient gradientTransform="matrix(10.66666 0 0 10.66666 -22.60403 -6.80961)" xlink:href="#linearGradient19914-6" id="linearGradient19920-3" y1="32.046" x1="33.985" y2="35.272" x2="37.211" gradientUnits="userSpaceOnUse"/>
<radialGradient cx="8.04" cy="9.528" gradientTransform="matrix(.94683 0 0 .94683 .46935 .49926)" id="radialGradient11108-9" r="9.812" gradientUnits="userSpaceOnUse">
<stop offset="0" stop-color="#fff"/>
<stop offset="1" stop-color="#fff" stop-opacity="0"/>
</radialGradient>
<radialGradient cx="17.062" cy="28.851" gradientTransform="matrix(1.45955 0 0 1.34534 -7.40314 -10.82184)" id="radialGradient4925-7" r="13.5" gradientUnits="userSpaceOnUse">
<stop offset="0" stop-color="#429eff"/>
<stop offset="1" stop-color="#0044a7"/>
</radialGradient>
<radialGradient cx="16.83" cy="24.744" gradientTransform="matrix(23.8004 -6.3773 5.65603 21.10946 -339.92191 -182.78433)" id="radialGradient4960-5" r="16.925" gradientUnits="userSpaceOnUse">
<stop offset="0" stop-color="#fff"/>
<stop offset="1" stop-color="#fff" stop-opacity="0"/>
</radialGradient>
<radialGradient cx="59.787" cy="10.902" gradientTransform="matrix(0 -1.68661 1.66336 0 41.65431 111.7396)" id="radialGradient1411-9" r="10.556" gradientUnits="userSpaceOnUse">
<stop offset="0" stop-color="#fbfbfa"/>
<stop offset="1" stop-color="#d3d7cf"/>
</radialGradient>
<radialGradient cx="45.095" cy="-2.694" gradientTransform="matrix(0 1.14344 -1.24722 -0 41.735 -54.25682)" id="radialGradient1409-8" r="10.498" gradientUnits="userSpaceOnUse">
<stop offset="0" stop-color="#fff"/>
<stop offset="1" stop-color="#eeeeec"/>
</radialGradient>
</defs>
<path opacity=".6" fill="url(#linearGradient3250-0)" filter="url(#filter3268)" d="m21,35.7429c-9.66,0-17.5,1.813-17.5,4.0469 0,2.2339 7.84,4.0469 17.5,4.0469 4.4964,0 8.5868-.3954 11.6875-1.0406l.8125,.9467c.0253,.0212 .0868,.0427 .1562,.0578l7.9688,1.8572c.3568,.0826 .8827,.1013 1.5312,.0723 .6486-.029 1.4116-.1241 2.2188-.3107 .8005-.1851 1.2058-.3499 1.3438-.4986 .1379-.1488 .0393-.28-.3125-.3613l-8.0312-1.8428c-.0787-.0179-.1719-.0324-.2812-.0361l-4.0938-.1879c2.7901-.717 4.5-1.6629 4.5-2.7028 0-2.2339-7.84-4.0469-17.5-4.0469z" transform="matrix(10.66666 0 0 9.59999 4.06262 44.05811)"/>
<g color="#000">
<path opacity=".6" fill="url(#radialGradient4925-7)" d="m31,18.25a13.5,13.75 0 1,1 -27,0 13.5,13.75 0 1,1 27,0z" transform="matrix(12.64197 0 0 12.41212 -9.17192 -19.99753)"/>
<path opacity=".5" fill="url(#radialGradient4960-5)" d="m205.991,30.5237c-90.839,3.4564-163.5079,78.3931-163.5079,170.0732 0,25.7804 14.9666,50.3657 26.5739,71.5933-5.0354-57.9006 19.9106-70.5406 36.4752-65.3981 50.256,15.6019 137.4649,29.7835 227.0626-16.997 31.4097-16.3996 49.7265,23.781 48.4715-12.3332-10.0207-83.1422-82.453-146.9382-168.51-146.9382-2.2003-0-4.3852-.083-6.5653-0z"/>
<path fill="none" stroke="url(#radialGradient1411-9)" stroke-linecap="round" stroke-width="1.875" d="m62.5,4.5a10,10 0 1,1 -20,0 10,10 0 1,1 20,0z" transform="matrix(17.06666 0 0 17.06666 -683.93695 129.72364)"/>
<g transform="matrix(16.46988 0 0 16.38416 -924.76412 -480.89091)">
<path fill="url(#linearGradient1421-6)" stroke="url(#linearGradient1423-7)" stroke-linejoin="round" stroke-linecap="round" stroke-width=".677" d="m76.7964,49.7685 .6476,3.2552 5.1812,5.2135c.1925,.1937 .9715,.3203 1.9429-.6562 .9715-.9766 .8956-1.7039 .6476-1.9531l-5.1812-5.2083-3.2382-.651z"/>
<path opacity=".192" fill="#fff" d="m79.5673,51.32c-.003,.0112 .2941,.3243-.2453,.865-.5394,.5407-1.0071,.374-.9935,.3603l-.2691-1.5216 1.5079,.2963z"/>
</g>
<path fill="none" stroke="url(#linearGradient19906-6)" stroke-linecap="round" stroke-width="10.667" d="m353.7653,348.1619 6.6407,34.1463 79.9956,80.5202c3.9342,3.96 9.9611,2.3243 19.9221-7.6367 9.9611-9.961 12.5293-14.9471 7.5835-19.9221l-79.9956-80.467-34.1463-6.6407z"/>
<path opacity=".153" fill="url(#linearGradient19920-3)" d="m338.2697,329.101c-2.7715,.9334-4.345,3.8405-3.6028,6.6561l10.8084,53.2485c.2696,.9778 .8037,1.8632 1.5441,2.56l84.9228,85.5048c3.806,3.8097 9.5515,4.9232 16.4699,3.584 6.9183-1.3392 15.0654-5.7262 23.6754-14.3361 8.5389-8.5389 12.9398-16.1784 14.4112-23.0402 1.4713-6.8619 .1494-13.1439-3.6028-16.8962l-85.4375-84.9928c-.8399-.8244-1.9212-1.3622-3.0881-1.536l-53.0125-10.7521c-1.0088-.2894-2.0793-.2894-3.0881,0z"/>
<g fill="none" stroke-linecap="round">
<path stroke="url(#radialGradient1409-8)" stroke-width=".606" d="m62.5,4.5a10,10 0 1,1 -20,0 10,10 0 1,1 20,0z" transform="matrix(17.59999 0 0 17.59999 -711.93693 127.32364)"/>
<path stroke="url(#linearGradient23440-1)" stroke-width=".571" d="m62.5,4.5a10,10 0 1,1 -20,0 10,10 0 1,1 20,0z" transform="matrix(18.66665 0 0 18.66665 -767.93692 122.52364)"/>
<path stroke="url(#linearGradient4937-1)" stroke-width=".688" d="m62.5,4.5a10,10 0 1,1 -20,0 10,10 0 1,1 20,0z" transform="matrix(15.50049 0 0 15.50052 -601.71343 136.77121)"/>
</g>
<path opacity=".161" fill="url(#radialGradient11108-9)" d="m22.1875,12.9375a9.8125,9.8125 0 1,1 -19.625,0 9.8125,9.8125 0 1,1 19.625,0z" transform="matrix(14.13164 0 0 14.13164 37.1835 23.69555)"/>
</g>
<g fill="#fff" stroke="#1e62ba" stroke-linecap="round" stroke-width="10.582" transform="matrix(.89754 0 0 .89754 -19.1616 -19.16162)">
<path d="m201.6161,105.6018 51.0769-75.4276c3.2007-4.7126 3.3324-4.7126 6.5331,0l51.077,75.4276c1.8826,2.2041 .9602,4.7513 0,4.7514h-31.8736v98.3079c0,0 .0328,4.7513-3.1676,4.7513h-38.4067c-3.2007,0-3.3655-4.7513-3.3655-4.7513v-98.3079h-31.8736c-.6402,0-1.9154-2.7476 0-4.7514z"/>
<path d="m310.3839,406.3982-51.0769,75.4276c-3.2007,4.7126-3.3324,4.7126-6.5331,0l-51.077-75.4276c-1.8826-2.2041-.9602-4.7513 0-4.7513h31.8736v-98.3079c0,0-.0328-4.7513 3.1676-4.7513h38.4067c3.2007,0 3.3655,4.7513 3.3655,4.7513v98.3079h31.8736c.6402,0 1.9154,2.7476 0,4.7513z"/>
<path d="m105.6018,310.3839-75.4276-51.0769c-4.7126-3.2007-4.7126-3.3324 0-6.5331l75.4276-51.077c2.2041-1.8826 4.7513-.9602 4.7513,0v31.8736h98.3079c0,0 4.7513-.0328 4.7513,3.1676v38.4067c0,3.2007-4.7513,3.3655-4.7513,3.3655h-98.3079v31.8736c0,.6402-2.7476,1.9154-4.7513,0z"/>
<path d="m406.3982,201.6162 75.4276,51.0769c4.7126,3.2007 4.7125,3.3324 0,6.5331l-75.4276,51.077c-2.2041,1.8826-4.7513,.9602-4.7513,0v-31.8736h-98.3079c0,0-4.7513,.0328-4.7513-3.1676v-38.4067c0-3.2007 4.7513-3.3655 4.7513-3.3655h98.3079v-31.8736c0-.6402 2.7476-1.9154 4.7513,0z"/>
</g>
</svg>
