<svg width="48" xmlns="http://www.w3.org/2000/svg" height="48">
<defs/>
<path fill="#d73727" d="m8.6061,3.1696h30.7878a5.4365,5.4365 0 0,1 5.4365,5.4365v30.7878a5.4365,5.4365 0 0,1 -5.4365,5.4365h-30.7878a5.4365,5.4365 0 0,1 -5.4365-5.4365v-30.7878a5.4365,5.4365 0 0,1 5.4365-5.4365"/>
<path fill="#e6987a" d="m10.5232,6.3743h26.9536a4.1489,4.1489 0 0,1 4.1489,4.1489v26.9536a4.1489,4.1489 0 0,1 -4.1489,4.1489h-26.9536a4.1489,4.1489 0 0,1 -4.1489-4.1489v-26.9536a4.1489,4.1489 0 0,1 4.1489-4.1489"/>
<path fill="#df8453" d="m9.579,9.579h28.842v28.842h-28.842z"/>
<path fill="#fff" fill-rule="evenodd" stroke="#fff" stroke-width="5.443" d="m14.3931,14.3931l19.2137,19.2137m0-19.2137l-19.2137,19.2137"/>
</svg>
