<svg xmlns="http://www.w3.org/2000/svg" viewBox="0 0 512 512" xmlns:xlink="http://www.w3.org/1999/xlink">
<defs>
<linearGradient gradientTransform="matrix(0 -10.66666 -10.66666 0 1034.6665 117.6665)" xlink:href="#linearGradient3261-2" id="linearGradient3749" y1="21.75" x1="31.247" y2="43.582" gradientUnits="userSpaceOnUse" x2="49.087"/>
<linearGradient gradientTransform="matrix(0 -10.66666 -10.66666 0 917.33327 10.99989)" xlink:href="#linearGradient5891-9" id="linearGradient3751" y1="11.219" x1="23.938" y2="14.094" gradientUnits="userSpaceOnUse" x2="32.562"/>
<linearGradient gradientTransform="matrix(0 -7.39358 7.3044 0 633.19405 -4.68098)" xlink:href="#linearGradient2308-7" id="linearGradient3747" y1="20.91" y2="24.185" gradientUnits="userSpaceOnUse" x2="0"/>
<linearGradient id="linearGradient3261-2">
<stop offset="0" stop-color="#fff"/>
<stop offset="1" stop-color="#fff" stop-opacity="0"/>
</linearGradient>
<linearGradient id="linearGradient2308-7">
<stop offset="0" stop-color="#0043ed"/>
<stop offset="1" stop-color="#92acff"/>
</linearGradient>
<linearGradient id="linearGradient5891-9">
<stop offset="0" stop-color="#fff"/>
<stop offset="1" stop-color="#fff" stop-opacity="0"/>
</linearGradient>
</defs>
<g transform="matrix(-1.22595 0 0 -1.22595 1191.3982 10.42309)">
<g display="block" stroke-width="10.667">
<path fill="url(#linearGradient3747)" stroke="#002cc4" d="m901.3333-143.6667-106.6666,117.3333-111.6666-117.3333 69-.3333v-99.9999c2.0395-49.5459-23-82.0461-53.3333-80.6666h-1.3333-72.6666c75.2287-109.0167 214.1564-38.7525 212.9999,80.6666l-.6667,100.3333h64.3333z"/>
<path opacity=".61" fill="#000ded" stroke="url(#linearGradient3749)" d="m876.6666-132.6667-82,90.3333-86-90.3333 43.3333-.3333c6.0737-.004 10.9965-4.9263 11-11v-99.9999c1.1-26.721-4.8493-49.0842-16.3333-65.6666-11.4168-16.4854-28.9086-26.7397-48-26-.1123,.004-.2209-.005-.3333,0h-1-47.3333c32.6646-33.3296 71.2732-38.9406 105.3333-24.3333 39.764,17.0535 71.87,60.5784 71.3333,115.9999l-.6667,100.3333c.004,6.0737 4.9263,10.9965 11,11h39.6666z"/>
</g>
<path opacity=".45" fill="url(#linearGradient3751)" fill-rule="evenodd" d="m793.3333-32.3334c10-78.2222-1.6667-289.1109-35.6667-318.6665v-21.3333c33.1111,34.2222 77.2222,89.111 74.3333,127.3333l-1.3333,106.9999 60-.3333-97.3333,105.9999z"/>
</g>
</svg>
