<svg width="512" xmlns="http://www.w3.org/2000/svg" height="512" xmlns:xlink="http://www.w3.org/1999/xlink">
<defs>
<linearGradient id="linearGradient3983">
<stop offset="0" stop-color="#fff" stop-opacity=".876"/>
<stop offset="1" stop-color="#fffffe" stop-opacity="0"/>
</linearGradient>
<linearGradient id="linearGradient3096">
<stop offset="0" stop-color="#424242"/>
<stop offset="1" stop-color="#777"/>
</linearGradient>
<linearGradient gradientTransform="matrix(16.67518 0 0 7.79404 -9.38542 -487.96687)" xlink:href="#linearGradient3983" id="linearGradient491" y1="13.773" x1="6.23" y2="66.834" gradientUnits="userSpaceOnUse" x2="9.898"/>
<linearGradient gradientTransform="matrix(10.99334 0 0 10.99334 .28402 -473.47582)" id="linearGradient3104" xlink:href="#linearGradient3096" y1="31.368" y2="6.18" x1="18.113" gradientUnits="userSpaceOnUse" x2="15.515"/>
<linearGradient gradientTransform="matrix(14.4836 0 0 8.97338 -9.38542 -487.96687)" id="linearGradient322" xlink:href="#linearGradient319" y1="32.567" y2="46.689" x1="13.036" gradientUnits="userSpaceOnUse" x2="12.854"/>
<linearGradient id="linearGradient319">
<stop offset="0" stop-color="#fff"/>
<stop offset="1" stop-color="#fff" stop-opacity="0"/>
</linearGradient>
<linearGradient gradientTransform="matrix(10.99334 0 0 10.99334 .28402 -473.47582)" xlink:href="#linearGradient9766" id="linearGradient9772" y1="36.988" x1="22.176" y2="32.05" x2="22.065" gradientUnits="userSpaceOnUse"/>
<linearGradient id="linearGradient5060">
<stop offset="0"/>
<stop offset="1" stop-opacity="0"/>
</linearGradient>
<linearGradient id="linearGradient5048">
<stop offset="0" stop-opacity="0"/>
<stop offset=".5"/>
<stop offset="1" stop-opacity="0"/>
</linearGradient>
<linearGradient id="linearGradient9766">
<stop offset="0" stop-color="#6194cb"/>
<stop offset="1" stop-color="#729fcf"/>
</linearGradient>
<linearGradient gradientTransform="matrix(2.77439 0 0 1.96971 -1892.179 -872.8854)" xlink:href="#linearGradient5048" id="linearGradient6715" y1="366.648" y2="609.505" gradientUnits="userSpaceOnUse" x2="0"/>
<radialGradient cx="20.706" cy="37.518" gradientTransform="matrix(11.59821 -.30061 1.95355 13.09229 -38.98613 -551.80667)" id="radialGradient238" r="30.905" gradientUnits="userSpaceOnUse">
<stop offset="0" stop-color="#202020"/>
<stop offset="1" stop-color="#b9b9b9"/>
</radialGradient>
<radialGradient cx="605.714" cy="486.648" gradientTransform="matrix(2.77439 0 0 1.96971 -1891.633 -872.8854)" xlink:href="#linearGradient5060" id="radialGradient6717" r="117.143" gradientUnits="userSpaceOnUse"/>
<radialGradient cx="605.714" cy="486.648" gradientTransform="matrix(-2.77439 0 0 1.96971 112.7623 -872.8854)" xlink:href="#linearGradient5060" id="radialGradient6719" r="117.143" gradientUnits="userSpaceOnUse"/>
</defs>
<g color="#000" transform="matrix(.24871 0 0 .2294 477.2128 390.34776)">
<path opacity=".402" fill="url(#linearGradient6715)" d="m-1559.25-150.697h1339.631v478.357h-1339.631z"/>
<path opacity=".402" fill="url(#radialGradient6717)" d="m-219.6188-150.6804c0,0 0,478.3308 0,478.3308 142.8742,.9004 345.4002-107.1697 345.4001-239.1962 0-132.0265-159.4368-239.1346-345.4001-239.1346z"/>
<path opacity=".402" fill="url(#radialGradient6719)" d="m-1559.2523-150.6804c0,0 0,478.3308 0,478.3308-142.8742,.9004-345.4002-107.1697-345.4002-239.1962 0-132.0265 159.4368-239.1346 345.4002-239.1346z"/>
</g>
<g transform="translate(0 464)">
<path fill="url(#radialGradient238)" stroke="url(#linearGradient3104)" stroke-linejoin="round" stroke-linecap="round" stroke-width="10.993" d="m49.9935-48.1719c.2396,4.5766 5.0559,9.1532 9.6325,9.1532h344.3886c4.5765,0 8.9135-4.5766 8.6739-9.1532l-10.2946-299.3127c-.2396-4.5766-5.0558-9.1532-9.6324-9.1532h-145.8912c-5.3324,0-13.571-3.4694-15.4087-12.1656l-6.7212-31.8045c-1.7091-8.0875-9.6985-11.4098-14.275-11.4098h-162.469c-4.5767,0-8.9136,4.5766-8.674,9.1531z"/>
<g color="#000">
<g fill="#729fcf" stroke="#000" stroke-linejoin="round" stroke-linecap="round" stroke-width="10.993">
<path opacity=".114" d="m57.7417-225.4386 332.7198,0"/>
<path opacity=".114" d="m55.7143-269.412 334.7134,0"/>
<path opacity=".114" d="m55.0385-335.372 335.3778,0"/>
<path opacity=".114" d="m59.4959-115.5052 330.9954,0"/>
<path opacity=".114" d="m60.8479-93.5185 329.6656,0"/>
<path opacity=".114" d="m55.7143-291.3986 334.7134,0"/>
<path opacity=".114" d="m55.3764-313.3853 335.0456,0"/>
<path opacity=".114" d="m54.3943-357.3587 167.9872,0"/>
<path opacity=".114" d="m53.8628-379.3453 162.5226,0"/>
<path opacity=".114" d="m58.8199-159.4786 331.6604,0"/>
<path opacity=".114" d="m58.4175-181.4652 332.0551,0"/>
<path opacity=".114" d="m57.7417-203.4519 332.7198,0"/>
<path opacity=".114" d="m57.4038-247.4253 333.052,0"/>
<path opacity=".114" d="m58.8199-137.4919 331.6604,0"/>
<path opacity=".114" d="m60.8479-71.5318 329.6656,0"/>
</g>
<path opacity=".451" fill="url(#linearGradient491)" display="block" d="m66.9954-46.2304c.1797,3.4324-1.9888,5.7207-5.4811,4.5766-3.4924-1.1441-5.9005-3.4324-6.0802-6.8649l-10.4186-352.4958c-.1797-3.4324 1.8159-5.5051 5.2484-5.5051l158.5465-.5243c3.4324,0 10.2452,3.3032 12.4547,14.5352l6.3046,30.9521c-4.6947-5.1147-4.6083-5.2726-7.0089-12.7161l-4.4643-13.8426c-2.4081-7.9993-7.6756-9.1454-11.108-9.1454h-141.6797c-3.4324,0-5.6009,2.2883-5.4212,5.7208l10.3118,346.4536z"/>
</g>
</g>
<g fill="#fff" fill-opacity=".757" transform="matrix(11.44147 0 .59905 11.44147 -95.03042 19.88293)">
<path fill-opacity=".508" d="m42.4172,8.5152c.0051-.0971-.1282-.247-.2351-.247l-13.0314-.0021c0,0 .9117,.588 2.2018,.5962l11.0535,.071c.0111-.2117 .0027-.256 .0112-.4181z"/>
</g>
<g transform="translate(0 464)">
<g stroke-width="10.993">
<path fill="url(#linearGradient9772)" display="block" stroke="#3465a4" stroke-linejoin="round" color="#000" d="m437.6379-39.1222c12.5752-.4844 21.5808-12.052 22.5038-25.5156 8.7044-126.9586 5.2419-302.41 5.2419-302.41 .7932-2.7207-1.8459-5.4413-5.2783-5.4413h-377.8538l-7.3412,309.3902c-.2578,10.8663-5.123,19.8399-17.0379,24.0063l379.7655-.0297z"/>
<path opacity=".466" fill="none" stroke="url(#linearGradient322)" stroke-linecap="round" d="m93.0426-361.4823 360.4837,.7125-4.304,288.8885c-.176,11.8146-4.9545,15.7009-20.5867,15.7009-20.5741,0-315.2666-.3563-345.1331-.3563 2.568-3.5268 3.6691-10.8683 3.6838-11.044z"/>
</g>
<path fill="#fff" fill-rule="evenodd" fill-opacity=".089" d="m93.0427-364.1289 .1747,240.9718c0,0 91.2024-45.6012 205.2055-45.6012 114.003,0 158.0046-195.3706 158.0046-195.3706z"/>
</g>
</svg>
