<svg xmlns="http://www.w3.org/2000/svg" xmlns:xlink="http://www.w3.org/1999/xlink" viewBox="0 0 512 512"><defs><linearGradient gradientTransform="matrix(2.77439 0 0 1.96971-1892.18-872.89)" id="5" y1="366.65" y2="609.5" gradientUnits="userSpaceOnUse" x2="0"><stop style="stop-opacity:0"/><stop offset=".5"/><stop offset="1" style="stop-opacity:0"/></linearGradient><linearGradient id="3" y1="-66.854" x1="244.07" y2="-121.14" x2="242.85" gradientUnits="userSpaceOnUse"><stop style="stop-color:#6194cb"/><stop offset="1" style="stop-color:#729fcf"/></linearGradient><linearGradient id="4"><stop/><stop offset="1" style="stop-opacity:0"/></linearGradient><linearGradient gradientTransform="matrix(16.67518 0 0 7.79404-9.385-487.97)" id="0" y1="13.773" x1="6.23" y2="66.834" gradientUnits="userSpaceOnUse" x2="9.898"><stop style="stop-color:#fff;stop-opacity:.876"/><stop offset="1" style="stop-color:#fffffe;stop-opacity:0"/></linearGradient><linearGradient gradientTransform="matrix(14.4836 0 0 8.97338-9.385-487.97)" id="2" y1="32.567" y2="46.689" x1="13.04" gradientUnits="userSpaceOnUse" x2="12.854"><stop style="stop-color:#fff"/><stop offset="1" style="stop-color:#fff;stop-opacity:0"/></linearGradient><linearGradient id="1" y1="-128.64" y2="-405.54" x1="199.41" gradientUnits="userSpaceOnUse" x2="170.85"><stop style="stop-color:#424242"/><stop offset="1" style="stop-color:#777"/></linearGradient><radialGradient cx="605.71" cy="486.65" gradientTransform="matrix(-2.77439 0 0 1.96971 112.76-872.89)" xlink:href="#4" id="8" r="117.14" gradientUnits="userSpaceOnUse"/><radialGradient cx="605.71" cy="486.65" gradientTransform="matrix(2.77439 0 0 1.96971-1891.63-872.89)" xlink:href="#4" id="7" r="117.14" gradientUnits="userSpaceOnUse"/><radialGradient cx="20.706" cy="37.518" gradientTransform="matrix(11.59821-.30061 1.95355 13.0923-38.986-551.81)" id="6" r="30.905" gradientUnits="userSpaceOnUse"><stop style="stop-color:#202020"/><stop offset="1" style="stop-color:#b9b9b9"/></radialGradient></defs><g transform="matrix(.24871 0 0 .2294 477.21 390.35)" style="color:#000"><path d="m-1559.25-150.7h1339.63v478.36h-1339.63z" style="fill:url(#5);opacity:.402"/><path d="m-219.62-150.68c0 0 0 478.33 0 478.33 142.87.9 345.4-107.17 345.4-239.2 0-132.03-159.44-239.13-345.4-239.13" style="fill:url(#7);opacity:.402"/><path d="m-1559.25-150.68c0 0 0 478.33 0 478.33-142.87.9-345.4-107.17-345.4-239.2 0-132.03 159.44-239.13 345.4-239.13" style="fill:url(#8);opacity:.402"/></g><g transform="translate(0 464)"><path d="m49.994-48.17c.24 4.577 5.056 9.153 9.633 9.153h344.39c4.577 0 8.914-4.577 8.674-9.153l-10.295-299.31c-.24-4.577-5.056-9.153-9.632-9.153h-145.89c-5.332 0-13.571-3.469-15.409-12.166l-6.721-31.805c-1.709-8.09-9.698-11.41-14.275-11.41h-162.47c-4.577 0-8.914 4.577-8.674 9.153z" style="fill:url(#6);stroke:url(#1);stroke-linecap:round;stroke-linejoin:round;stroke-width:10.993"/><g style="color:#000"><g style="fill:#729fcf;stroke:#000;stroke-linecap:round;stroke-linejoin:round;stroke-width:10.993"><path d="m57.742-225.44h332.72" style="opacity:.114"/><path d="m55.714-269.41h334.71" style="opacity:.114"/><path d="m55.04-335.37h335.38" style="opacity:.114"/><path d="m59.5-115.51h331" style="opacity:.114"/><path d="m60.848-93.52h329.67" style="opacity:.114"/><path d="m55.714-291.4h334.71" style="opacity:.114"/><path d="m55.38-313.39h335.05" style="opacity:.114"/><path d="m54.39-357.36h167.99" style="opacity:.114"/><path d="m53.863-379.35h162.52" style="opacity:.114"/><path d="m58.82-159.48h331.66" style="opacity:.114"/><path d="m58.42-181.47h332.06" style="opacity:.114"/><path d="m57.742-203.45h332.72" style="opacity:.114"/><path d="m57.4-247.43h333.05" style="opacity:.114"/><path d="m58.82-137.49h331.66" style="opacity:.114"/><path d="m60.848-71.53h329.67" style="opacity:.114"/></g><path d="m66.995-46.23c.18 3.432-1.989 5.721-5.481 4.577-3.492-1.144-5.901-3.432-6.08-6.865l-10.419-352.5c-.18-3.432 1.816-5.505 5.248-5.505l158.55-.524c3.432 0 10.245 3.303 12.455 14.535l6.305 30.952c-4.695-5.115-4.608-5.273-7.01-12.716l-4.464-13.843c-2.408-7.999-7.676-9.145-11.11-9.145h-141.68c-3.432 0-5.601 2.288-5.421 5.721l10.312 346.45z" style="fill:url(#0);opacity:.451;display:block"/></g></g><g style="fill:#fff;fill-opacity:.757"><path d="m395.39 117.31c0-1.111-1.615-2.826-2.838-2.826 0 0-149.1-.024-149.1-.024 0 0 10.783 6.728 25.549 6.821 0 0 126.51.812 126.51.812 0-2.422-.122-2.929-.122-4.784" style="fill-opacity:.508;stroke-width:11.457"/></g><g transform="translate(0 464)"><g style="stroke-width:10.993"><path d="m437.64-39.12c12.575-.484 21.581-12.05 22.504-25.516 8.704-126.96 5.242-302.41 5.242-302.41.793-2.721-1.846-5.441-5.278-5.441h-377.85l-7.341 309.39c-.258 10.866-5.123 19.84-17.04 24.01l379.77-.03z" style="fill:url(#3);stroke:#3465a4;display:block;color:#000;stroke-linejoin:round"/><path d="m93.04-361.48l360.48.712-4.304 288.89c-.176 11.815-4.954 15.701-20.587 15.701-20.574 0-315.27-.356-345.13-.356 2.568-3.527 3.669-10.868 3.684-11.04z" style="fill:none;opacity:.466;stroke:url(#2);stroke-linecap:round"/></g><path d="m93.04-364.13l.175 240.97c0 0 91.2-45.601 205.21-45.601 114 0 158-195.37 158-195.37z" style="fill:#fff;fill-opacity:.089;fill-rule:evenodd"/></g></svg>