<svg width="512" xmlns="http://www.w3.org/2000/svg" height="512">
<defs/>
<g stroke="#000" transform="matrix(3.2322 0 0 3.2322 3.40129 22.62456)">
<path fill="#fff" stroke-width="2" d="m12.473,121.082c-.914,1.7613-1.9912,3.408-1.9913,5.341l.009,.8079c0,4.172 3.2659,6.6941 7.0206,6.6941h121.3197c3.755,0 6.9889-3.1265 6.9889-7.2985l-.0398-.8115c0-1.933-.9503-3.6115-1.991-5.341l-60.0834-107.7802c-2.6546-2.9496-6.9583-2.9496-9.6133,.0004l-61.6193,108.3878z"/>
<path fill="#fc0" stroke-linejoin="round" stroke-linecap="round" stroke-width="4.852" d="m78.703,16.2915-63.4233,111.8365 61.187,0 2.8521,0 60.5072,0-60.3105-111.8365-.8125,0z"/>
</g>
<g transform="translate(5.68421 -528.36657)">
<path word-spacing="0" line-height="125%" d="m232.8603,836.6709c-1.9012-38.4513-6.6873-76.8722-6.0657-115.3787 2.2308-17.3763 25.2896-27.4407 38.8346-15.8097 9.9601,9.7205 7.9349,25.3832 8.6206,38.1424-2.0528,28.7624-4.9955,57.4685-7.2538,86.2254-2.2871,11.5062 .3958,26.6931-10.8597,34.0898-11.6296,7.8087-22.4007-6.6566-22.0453-17.6735-.4436-3.1943-.7171-6.4109-1.2308-9.5958zm17.6141,104.4154c-17.6776,1.5379-30.7012-20.177-21.3975-35.1327 8.1015-15.2482 32.6781-16.9819 41.3978-1.3478 9.4977,13.5502 .7984,34.3577-15.839,36.1772l-2.0729,.2456-2.0884,.0577z" letter-spacing="0"/>
</g>
</svg>
