<?xml version="1.0" encoding="UTF-8" standalone="no"?>
<!-- Created with Inkscape (http://www.inkscape.org/) -->

<svg
   xmlns:dc="http://purl.org/dc/elements/1.1/"
   xmlns:cc="http://creativecommons.org/ns#"
   xmlns:rdf="http://www.w3.org/1999/02/22-rdf-syntax-ns#"
   xmlns:svg="http://www.w3.org/2000/svg"
   xmlns="http://www.w3.org/2000/svg"
   xmlns:sodipodi="http://sodipodi.sourceforge.net/DTD/sodipodi-0.dtd"
   xmlns:inkscape="http://www.inkscape.org/namespaces/inkscape"
   width="512"
   height="512"
   id="svg2"
   version="1.1"
   inkscape:version="0.48.2 r9819"
   sodipodi:docname="Error.svg">
  <defs
     id="defs4">
    <linearGradient
       id="linearGradient3758">
      <stop
         style="stop-color:#483a00;stop-opacity:1;"
         offset="0"
         id="stop3760" />
      <stop
         id="stop3766"
         offset="0.45868683"
         style="stop-color:#856b00;stop-opacity:1;" />
      <stop
         style="stop-color:#c69f00;stop-opacity:1;"
         offset="1"
         id="stop3762" />
    </linearGradient>
    <marker
       viewBox="0 0 10 10"
       refY="5"
       refX="10"
       orient="auto"
       markerWidth="4"
       markerUnits="strokeWidth"
       markerHeight="3"
       id="ArrowStart">
      <path
         id="path1614"
         d="M 10 0 L 0 5 L 10 10 z" />
    </marker>
    <marker
       viewBox="0 0 10 10"
       refY="5"
       refX="0"
       orient="auto"
       markerWidth="4"
       markerUnits="strokeWidth"
       markerHeight="3"
       id="ArrowEnd">
      <path
         id="path1612"
         d="M 0 0 L 10 5 L 0 10 z" />
    </marker>
  </defs>
  <sodipodi:namedview
     id="base"
     pagecolor="#ffffff"
     bordercolor="#666666"
     borderopacity="1.0"
     inkscape:pageopacity="0.0"
     inkscape:pageshadow="2"
     inkscape:zoom="1.4142136"
     inkscape:cx="122.74658"
     inkscape:cy="172.55014"
     inkscape:document-units="px"
     inkscape:current-layer="layer1"
     showgrid="false"
     inkscape:window-width="2560"
     inkscape:window-height="1335"
     inkscape:window-x="0"
     inkscape:window-y="0"
     inkscape:window-maximized="0">
    <inkscape:grid
       type="xygrid"
       id="grid2985"
       empspacing="5"
       visible="true"
       enabled="true"
       snapvisiblegridlinesonly="true" />
  </sodipodi:namedview>
  <metadata
     id="metadata7">
    <rdf:RDF>
      <cc:Work
         rdf:about="">
        <dc:format>image/svg+xml</dc:format>
        <dc:type
           rdf:resource="http://purl.org/dc/dcmitype/StillImage" />
        <dc:title />
      </cc:Work>
    </rdf:RDF>
  </metadata>
  <g
     inkscape:label="Layer 1"
     inkscape:groupmode="layer"
     id="layer1"
     transform="translate(0,-540.36)">
    <g
       id="g3190"
       transform="translate(5.6842124,11.993427)">
      <g
         transform="matrix(3.2321975,0,0,3.2321975,-2.2829197,550.99113)"
         id="g1615">
        <path
           style="fill:#ffffff;stroke:#000000;stroke-width:2"
           sodipodi:nodetypes="ccccccccccc"
           id="path1616"
           d="m 12.473,121.082 c -0.913967,1.76129 -1.9912,3.408 -1.9913,5.341 l 0.009,0.80788 c 0,4.172 3.265872,6.69412 7.020572,6.69412 l 121.319698,0 c 3.755,0 6.98886,-3.12652 6.98886,-7.29852 L 145.78,125.815 c 0,-1.933 -0.95029,-3.61152 -1.991,-5.341 L 83.7056,12.6938 C 81.051,9.74423 76.7473,9.74423 74.0923,12.6942 L 12.473,121.082 z"
           inkscape:connector-curvature="0" />
        <path
           style="fill:#ffcc00;stroke:#000000;stroke-width:4.85160017;stroke-linecap:round;stroke-linejoin:round"
           id="path1617"
           d="m 78.703,16.2915 -63.4233,111.8365 61.187,0 2.8521,0 60.5072,0 -60.3105,-111.8365 -0.8125,0 z"
           inkscape:connector-curvature="0" />
      </g>
      <path
         inkscape:connector-curvature="0"
         id="path3180"
         d="m 232.86032,836.67089 c -1.90116,-38.45126 -6.68729,-76.87221 -6.06571,-115.37868 2.23079,-17.37625 25.28965,-27.44065 38.83461,-15.80966 9.96009,9.72053 7.93491,25.38317 8.62064,38.14237 -2.05278,28.76245 -4.99546,57.46847 -7.25375,86.22543 -2.28706,11.50616 0.39577,26.6931 -10.85969,34.08979 -11.62964,7.80871 -22.40073,-6.65655 -22.0453,-17.67348 -0.44363,-3.19434 -0.71708,-6.41095 -1.2308,-9.59577 z m 17.61415,104.41541 c -17.67758,1.53788 -30.70123,-20.17695 -21.39753,-35.13273 8.10152,-15.2482 32.67807,-16.98193 41.39782,-1.34775 9.49771,13.55023 0.79837,34.3577 -15.83899,36.17716 l -2.07288,0.24563 -2.08842,0.0577 0,0 z"
         style="font-size:324.98901367px;font-style:normal;font-variant:normal;font-weight:normal;font-stretch:normal;line-height:125%;letter-spacing:0px;word-spacing:0px;fill:#000000;fill-opacity:1;stroke:none;font-family:Arial Rounded MT Bold;-inkscape-font-specification:Arial Rounded MT Bold" />
    </g>
  </g>
</svg>
