<svg xmlns="http://www.w3.org/2000/svg" viewBox="0 0 512 512"><g transform="matrix(3.2322 0 0 3.2322 3.401 22.625)" style="stroke:#000"><path d="m12.473 121.08c-.914 1.761-1.991 3.408-1.991 5.341l.009.808c0 4.172 3.266 6.694 7.02 6.694h121.32c3.755 0 6.989-3.126 6.989-7.299l-.04-.811c0-1.933-.95-3.612-1.991-5.341l-60.08-107.78c-2.655-2.95-6.958-2.95-9.613 0l-61.62 108.39z" style="fill:#fff;stroke-width:2"/><path d="m78.7 16.292l-63.42 111.84h61.19 2.852 60.51l-60.31-111.84h-.813z" style="fill:#fc0;stroke-linecap:round;stroke-linejoin:round;stroke-width:4.852"/></g><path d="m232.86 836.67c-1.901-38.451-6.687-76.872-6.07-115.38 2.231-17.376 25.29-27.441 38.835-15.81 9.96 9.721 7.935 25.383 8.621 38.14-2.053 28.762-4.995 57.47-7.254 86.23-2.287 11.506.396 26.693-10.86 34.09-11.63 7.809-22.401-6.657-22.05-17.673-.444-3.194-.717-6.411-1.231-9.596m17.614 104.42c-17.678 1.538-30.701-20.18-21.398-35.13 8.101-15.248 32.678-16.982 41.4-1.348 9.498 13.55.798 34.36-15.839 36.18l-2.073.246-2.088.058" transform="translate(5.684-528.37)"/></svg>