<svg width="48" xmlns="http://www.w3.org/2000/svg" height="48" xmlns:xlink="http://www.w3.org/1999/xlink">
<defs>
<linearGradient gradientTransform="translate(-4.63506 -54.33199)" xlink:href="#linearGradient7769" id="linearGradient3518" y1="76.483" x1="23.909" y2="67.291" gradientUnits="userSpaceOnUse" x2="21.059"/>
<linearGradient gradientTransform="translate(-4.63506 -94.33199)" xlink:href="#linearGradient6985" id="linearGradient3533" x1="32.433" gradientUnits="userSpaceOnUse" x2="42.549"/>
<linearGradient gradientTransform="translate(-4.63506 -54.33199)" xlink:href="#linearGradient7469" id="linearGradient3525" y1="69.688" y2="80.973" gradientUnits="userSpaceOnUse" x2="0"/>
<linearGradient gradientTransform="translate(-34.63506 -94.33199)" xlink:href="#linearGradient6985" id="linearGradient3529" x1="32.433" gradientUnits="userSpaceOnUse" x2="42.549"/>
<linearGradient gradientTransform="translate(-4.63506 -1.33199)" xlink:href="#linearGradient6985" id="linearGradient3536" x1="21.812" gradientUnits="userSpaceOnUse" x2="26"/>
<linearGradient gradientTransform="translate(-4.63506 -54.33199)" xlink:href="#linearGradient7469" id="linearGradient3553" y1="76.232" y2="83.312" gradientUnits="userSpaceOnUse" x2="0"/>
<linearGradient gradientTransform="matrix(-1 0 0 1 43.42744 -54.33199)" xlink:href="#linearGradient7428" id="linearGradient3540" y1="75.604" x1="14.508" y2="73.966" gradientUnits="userSpaceOnUse" x2="14.288"/>
<linearGradient gradientTransform="translate(-4.63506 -54.33199)" xlink:href="#linearGradient7428" id="linearGradient3550" y1="75.604" x1="14.508" y2="73.966" gradientUnits="userSpaceOnUse" x2="14.288"/>
<linearGradient gradientTransform="matrix(-1 0 0 1 43.42744 -54.33199)" xlink:href="#linearGradient7469" id="linearGradient3543" y1="76.232" y2="83.312" gradientUnits="userSpaceOnUse" x2="0"/>
<linearGradient gradientTransform="matrix(-1 0 0 1 43.42744 -54.33199)" xlink:href="#linearGradient6985" id="linearGradient3546" y1="70.804" x1="20.241" y2="70.23" gradientUnits="userSpaceOnUse" x2="15.424"/>
<linearGradient xlink:href="#linearGradient2631" id="linearGradient3493" y1="18.849" x1="12.836" y2="27.073" gradientUnits="userSpaceOnUse" x2="18.422"/>
<linearGradient id="linearGradient7428">
<stop offset="0" stop-color="#888a85" stop-opacity="0"/>
<stop offset="1" stop-color="#babdb6"/>
</linearGradient>
<linearGradient id="linearGradient7469">
<stop offset="0" stop-color="#555753"/>
<stop offset="1" stop-color="#888a85"/>
</linearGradient>
<linearGradient id="linearGradient6949">
<stop offset="0" stop-color="#888a85"/>
<stop offset="1" stop-color="#555753"/>
</linearGradient>
<linearGradient id="linearGradient7743">
<stop offset="0" stop-color="#fff"/>
<stop offset="1" stop-color="#fff" stop-opacity="0"/>
</linearGradient>
<linearGradient id="linearGradient7798">
<stop offset="0" stop-color="#f9f9f9"/>
<stop offset="1" stop-color="#f9f9f9" stop-opacity="0"/>
</linearGradient>
<linearGradient gradientTransform="translate(-4.63506 -54.33199)" xlink:href="#linearGradient6985" id="linearGradient3556" y1="68.506" x1="14.938" y2="70.893" gradientUnits="userSpaceOnUse" x2="19.445"/>
<linearGradient id="linearGradient7769">
<stop offset="0" stop-color="#fff"/>
<stop offset="1" stop-color="#fff" stop-opacity="0"/>
</linearGradient>
<linearGradient id="linearGradient6985">
<stop offset="0" stop-color="#888a85"/>
<stop offset=".34" stop-color="#babdb6"/>
<stop offset="1" stop-color="#555753"/>
</linearGradient>
<linearGradient gradientTransform="matrix(-.5 .86603 .86603 .5 22.1208 -12.7715)" xlink:href="#linearGradient6949" id="linearGradient3463" y1="5.515" x1="15.911" y2="4.448" gradientUnits="userSpaceOnUse" x2="17.823"/>
<linearGradient xlink:href="#linearGradient6949" id="linearGradient3459" y1="5.515" x1="15.911" y2="4.448" gradientUnits="userSpaceOnUse" x2="17.823"/>
<linearGradient id="linearGradient2631">
<stop offset="0" stop-color="#010101"/>
<stop offset="1" stop-color="#959595"/>
</linearGradient>
<radialGradient cx="16.875" cy="23.672" gradientTransform="matrix(1 0 0 1.01351 0 -.3049)" id="radialGradient3491" r="4.625" gradientUnits="userSpaceOnUse">
<stop offset="0" stop-color="#7a7a7a"/>
<stop offset="1"/>
</radialGradient>
<radialGradient cx="17.344" cy="5.004" gradientTransform="matrix(2.03765 0 0 2.85271 -17.9968 -9.87006)" r="2.5" id="radialGradient5637" xlink:href="#linearGradient7798" gradientUnits="userSpaceOnUse"/>
<radialGradient cx="14.75" cy="22.688" gradientTransform="matrix(1 0 0 1.03571 0 -.81027)" id="radialGradient3495" r="1.75" gradientUnits="userSpaceOnUse">
<stop offset="0" stop-color="#fff"/>
<stop offset="1" stop-color="#fff" stop-opacity="0"/>
</radialGradient>
<radialGradient cx="22.958" cy="22.99" gradientTransform="matrix(.88153 0 0 .71013 -1.67028 .1544)" xlink:href="#linearGradient7743" id="radialGradient3522" r="3.938" gradientUnits="userSpaceOnUse"/>
<radialGradient cx="17.344" cy="5.004" gradientTransform="matrix(-1.01883 1.76466 2.47052 1.42636 22.5715 -33.2922)" xlink:href="#linearGradient7798" id="radialGradient3465" r="2.5" gradientUnits="userSpaceOnUse"/>
</defs>
<g stroke-dashoffset=".7" transform="matrix(.8923 .51517 -.51517 .8923 3.62846 .30484)">
<path fill="url(#linearGradient3459)" fill-rule="evenodd" stroke="#2e3436" d="m18.5,2.5c-1.656,0-3,1.344-3,3v2c0,1.656 1.344,3 3,3 1.656,0 3-1.344 3-3v-2c0-1.656-1.344-3-3-3z"/>
<path opacity=".25" fill="none" stroke="url(#radialGradient5637)" d="m18.5,3.5c-1.112,0-2,.888-2,2v2c0,1.112 .888,2 2,2 1.112,0 2-.888 2-2v-2c0-1.112-.888-2-2-2z"/>
</g>
<g stroke-dashoffset=".7" transform="matrix(-.8923 .51517 .51517 .8923 44.37121 .30484)">
<path fill="url(#linearGradient3463)" fill-rule="evenodd" stroke="#2e3436" d="m18.5,2.5c-1.656,0-3,1.344-3,3v2c0,1.656 1.344,3 3,3 1.656,0 3-1.344 3-3v-2c0-1.656-1.344-3-3-3z"/>
<path opacity=".25" fill="none" stroke="url(#radialGradient3465)" d="m18.5,3.5c-1.112,0-2,.888-2,2v2c0,1.112 .888,2 2,2 1.112,0 2-.888 2-2v-2c0-1.112-.888-2-2-2z"/>
</g>
<g transform="matrix(1.03034 0 0 1.03034 4.04748 -.88523)">
<g fill-rule="evenodd">
<path fill="url(#linearGradient3556)" stroke="#2e3436" d="m14.4274,14.168c1.3824,0 2.5,1.1521 2.5,2.5938v3.8125c0,.1518-.0077,.2933-.0312,.4375-.3802,1.801-.7504,3.6041-1.125,5.4062-.441,1.0296-1.4711,1.75-2.6562,1.75h-10.3125c-1.5928,0-2.875-1.304-2.875-2.9062v-2.2188c0-.5224 .1361-1.0178 .375-1.4375l3-4.2812c.1102-.2083 .2473-.3945 .4062-.5625 .4535-.4793 1.0808-.7812 1.7812-.7812h3.1562c1.3019,.001 2.6044-1.8108 3.9063-1.8125h1.875z" stroke-dashoffset=".7"/>
<path fill="url(#linearGradient3553)" d="m10.8649,18.668c-.5303,.0007-1.2187,.4063-1.9688,.9062-.7501,.5-1.5612,1.0945-2.5312,1.0938h-3.625c-1.3291,0-2.375,1.0368-2.375,2.375v2.2188c0,1.3382 1.0524,2.4062 2.375,2.4062h10.3125c1.3226,0 2.375-1.0681 2.375-2.4062v-4.2188c0-1.3382-1.0459-2.375-2.375-2.375h-2.1875z"/>
</g>
<g stroke-dashoffset=".7">
<g fill="none">
<path stroke="url(#linearGradient3550)" d="m2.7399,20.1653 3.625,.0027c1.5,.0011 3-1.9981 4.5-2l2.1875-.0027c1.5928,0 2.875,1.2899 2.875,2.8921v4.2184c0,1.6022-1.2822,2.8921-2.875,2.8921h-10.3125c-1.5928,0-2.875-1.2899-2.875-2.8921v-2.2184c0-1.6023 1.2823-2.8921 2.875-2.8921z"/>
<path opacity=".178" stroke="#fff" d="m12.5524,15.168c-.1875,.0002-.7237,.2656-1.375,.7188-.6513,.4532-1.4161,1.0946-2.5313,1.0938h-3.1562c-.413,0-.7813,.1715-1.0625,.4688-.1026,.1085-.1848,.2205-.25,.3438-.0191,.0324-.0399,.0637-.0625,.0938l-2.9375,4.2188c-.1523,.2674-.25,.5888-.25,.9375v2.2188c0,1.0687 .8281,1.9062 1.875,1.9062h10.3125c.7641,0 1.4238-.4794 1.7188-1.125 .3587-1.7268 .6974-3.4571 1.0625-5.1875 .0123-.0755 .0312-.1631 .0312-.2812v-3.8125c0-.9248-.6732-1.5938-1.5-1.5938h-1.875z"/>
</g>
<path fill="url(#linearGradient3546)" fill-rule="evenodd" stroke="#2e3436" d="m24.3649,14.168c-1.3824,0-2.5,1.1521-2.5,2.5938v3.8125c0,.1518 .0077,.2933 .0312,.4375 .3802,1.801 .7504,3.6041 1.125,5.4062 .441,1.0296 1.4711,1.75 2.6562,1.75h10.3125c1.5928,0 2.875-1.304 2.875-2.9062v-2.2188c0-.5224-.1361-1.0178-.375-1.4375l-3-4.2812c-.1102-.2083-.2473-.3945-.4062-.5625-.4535-.4793-1.0808-.7812-1.7812-.7812h-3.1562c-1.3019,.001-2.6044-1.8108-3.9062-1.8125h-1.875z"/>
</g>
<path fill="url(#linearGradient3543)" fill-rule="evenodd" d="m27.9274,18.668c.5303,.0007 1.2187,.4063 1.9688,.9062 .7501,.5 1.5612,1.0945 2.5312,1.0938h3.625c1.3291,0 2.375,1.0368 2.375,2.375v2.2188c0,1.3382-1.0524,2.4062-2.375,2.4062h-10.3125c-1.3226,0-2.375-1.0681-2.375-2.4062v-4.2188c0-1.3382 1.0459-2.375 2.375-2.375h2.1875z"/>
<g stroke-dashoffset=".7">
<g fill="none">
<path stroke="url(#linearGradient3540)" d="m36.0524,20.1653-3.625,.0027c-1.5,.0011-3-1.9981-4.5-2l-2.1875-.0027c-1.5927,0-2.875,1.2899-2.875,2.8921v4.2184c0,1.6022 1.2823,2.8921 2.875,2.8921h10.3125c1.5928,0 2.875-1.2899 2.875-2.8921v-2.2184c0-1.6023-1.2822-2.8921-2.875-2.8921z"/>
<path opacity=".178" stroke="#fff" d="m26.2399,15.168c.1875,.0002 .7237,.2656 1.375,.7188 .6513,.4532 1.4161,1.0946 2.5312,1.0938h3.1562c.413,0 .7813,.1715 1.0625,.4688 .1026,.1085 .1848,.2205 .25,.3438 .0191,.0324 .0399,.0637 .0625,.0938l2.9375,4.2188c.1523,.2674 .25,.5888 .25,.9375v2.2188c0,1.0687-.8281,1.9062-1.875,1.9062h-10.3125c-.7641,0-1.4238-.4794-1.7188-1.125-.3587-1.7268-.6974-3.4571-1.0625-5.1875-.0124-.0755-.0312-.1631-.0312-.2812v-3.8125c0-.9248 .6732-1.5938 1.5-1.5938h1.875z"/>
</g>
<g fill-rule="evenodd">
<g stroke="#2e3436">
<path fill="url(#linearGradient3536)" d="m19.4274,13.168c-1.3835,0-2.5569,.8027-3.125,1.9688-.2817,.9877-.4986,1.991-.6875,3 .8048,.7107 1.3125,1.7523 1.3125,2.9062v1.2188c.6861,.5528 1.5511,.9062 2.5,.9062 .9286,0 1.7584-.3434 2.4375-.875v-1.25c0-1.1695 .5201-2.2263 1.3438-2.9375-.1992-1.0057-.4204-2.0025-.6562-3-.5729-1.1524-1.7514-1.9375-3.125-1.9375z"/>
<path fill="url(#linearGradient3533)" d="m33.8649,19.1993c-3.8593,0-7,3.1095-7,6.9688l.0312,2.5c0,4.1353 3.3335,7.4688 7.4688,7.4688 4.1353,0 7.5-3.3335 7.5-7.4688 0-4.5-2.9999-9.4688-8-9.4688z"/>
</g>
<path opacity=".8" fill="#babdb6" stroke="#babdb6" d="m40.8821,28.6594c0,3.5946-2.914,6.5086-6.5086,6.5086-3.5946,0-6.5086-2.914-6.5086-6.5086 0-3.5946 2.914-6.5086 6.5086-6.5086 3.5946,0 6.5086,2.914 6.5086,6.5086z"/>
<path fill="url(#linearGradient3529)" stroke="#2e3436" d="m4.8649,19.1993c3.8593,0 7,3.1095 7,6.9688l-.0312,2.5c0,4.1353-3.3335,7.4688-7.4688,7.4688-4.1353,0-7.5-3.3335-7.5-7.4688 0-4.5 2.9999-9.4688 8-9.4688z"/>
<path opacity=".8" fill="#babdb6" stroke="#babdb6" d="m10.8821,28.6594c0,3.5946-2.914,6.5086-6.5086,6.5086-3.5946,0-6.5086-2.914-6.5086-6.5086 0-3.5946 2.914-6.5086 6.5086-6.5086 3.5946,0 6.5086,2.914 6.5086,6.5086z"/>
</g>
</g>
<path fill="url(#linearGradient3525)" fill-rule="evenodd" d="m19.3649,15.668c-1.3991,0-2.621,.7952-3.1875,1.9688-.0038,.008 .0038,.0233 0,.0312-.0205,.1096-.0422,.2282-.0625,.3438 .7747,.7884 1.3125,1.845 1.3125,3.0312v.9375c.2594,.1844 .5078,.3547 .8125,.4688 .1443,.054 .3342,.116 .5312,.1562 .2389,.0488 .4492,.0625 .6562,.0625 .2073-.0032 .4306-.0163 .6562-.0625 .1782-.0364 .3477-.0995 .5-.1562-.0778,.0285-.0837,.013 .0312-.0312 .1673-.0659 .2208-.0414 .125,0-.004,.0017 .0162-.0265 .0938-.0625 .1448-.0673 .2946-.157 .4375-.25 .1195-.0783 .1471-.0886 .0625-.0312-.0595,.0402 .0231-.0214 .0312-.0312v-1c0-1.1719 .5226-2.2131 1.2812-3-.4708-1.383-1.7346-2.375-3.2812-2.375z"/>
<g fill="none" stroke-dashoffset=".7">
<path opacity=".909" stroke="url(#radialGradient3522)" d="m15.8452,20.168c0-2.208 1.5768-4 3.5197-4 1.9429,0 3.5197,1.792 3.5197,4"/>
<path opacity=".58" stroke="#2e3436" d="m19.865,19.668c0,.2761-.2239,.5-.5,.5-.2761,0-.5-.2239-.5-.5 0-.2761 .2239-.5 .5-.5 .2761,0 .5,.2239 .5,.5z"/>
<path opacity=".155" stroke="url(#linearGradient3518)" stroke-linejoin="round" d="m19.4274,14.168c-.9817,0-1.7709,.5556-2.1875,1.375-.2165,.7752-.4046,1.5695-.5625,2.375 .7362,.8553 1.25,1.9167 1.25,3.125v.5625c.4591,.2861 .9374,.5625 1.5,.5625 .5429,0 .9896-.2579 1.4375-.5312v-.5938c0-1.2239 .5272-2.2954 1.2812-3.1562-.1594-.7798-.3176-1.5649-.5-2.3438-.0028-.0121-.0284-.0191-.0312-.0312-.4174-.8036-1.2103-1.3438-2.1875-1.3438z"/>
</g>
</g>
<g color="#000" transform="matrix(.8199 0 0 .80924 80.22754 -29.28331)">
<path fill="url(#radialGradient3491)" stroke="url(#linearGradient3493)" stroke-width=".754" d="m19.875,22.5625c0,2.3127-1.8468,4.1875-4.125,4.1875-2.2782,0-4.125-1.8748-4.125-4.1875 0-2.3127 1.8468-4.1875 4.125-4.1875 2.2782,0 4.125,1.8748 4.125,4.1875z" transform="matrix(1.67698 0 0 1.67698 -113.846 33.7561)"/>
<g fill="#fff">
<path opacity=".608" fill-opacity=".529" d="m16.5,22.6875c0,1.001-.7835,1.8125-1.75,1.8125-.9665,0-1.75-.8115-1.75-1.8125 0-1.001 .7835-1.8125 1.75-1.8125 .9665,0 1.75,.8115 1.75,1.8125z" transform="matrix(1.67698 0 0 1.67698 -111.835 33.6115)"/>
<path opacity=".373" d="m16.5,22.6875c0,1.001-.7835,1.8125-1.75,1.8125-.9665,0-1.75-.8115-1.75-1.8125 0-1.001 .7835-1.8125 1.75-1.8125 .9665,0 1.75,.8115 1.75,1.8125z" transform="matrix(1.67324 0 0 1.67324 -114.001 31.8061)"/>
</g>
<path fill="url(#radialGradient3495)" d="m16.5,22.6875c0,1.001-.7835,1.8125-1.75,1.8125-.9665,0-1.75-.8115-1.75-1.8125 0-1.001 .7835-1.8125 1.75-1.8125 .9665,0 1.75,.8115 1.75,1.8125z" transform="matrix(.41273 0 0 .41273 -89.8832 65.7887)"/>
<path fill="#fff" d="m16.5,22.6875c0,1.001-.7835,1.8125-1.75,1.8125-.9665,0-1.75-.8115-1.75-1.8125 0-1.001 .7835-1.8125 1.75-1.8125 .9665,0 1.75,.8115 1.75,1.8125z" transform="matrix(.45611 0 0 .45611 -97.0318 58.1999)"/>
</g>
<g transform="matrix(1.03034 0 0 1.03034 4.04748 -.88523)">
<path opacity=".7" fill="#fff" color="#000" d="m4.6149,26.3243c-1.2891,0-2.3125,1.0885-2.3125,2.4062 0,.3048 .0542,.5756 .1562,.8438 .1327,.024 .2668,.0312 .4062,.0312 1.2862,0 2.3125-1.0602 2.3125-2.375 0-.2953-.0288-.5827-.125-.8438-.1427-.0279-.2869-.0625-.4375-.0625z"/>
</g>
<g color="#000" transform="matrix(.8199 0 0 .80924 111.13813 -29.28331)">
<path fill="url(#radialGradient3491)" stroke="url(#linearGradient3493)" stroke-width=".754" d="m19.875,22.5625c0,2.3127-1.8468,4.1875-4.125,4.1875-2.2782,0-4.125-1.8748-4.125-4.1875 0-2.3127 1.8468-4.1875 4.125-4.1875 2.2782,0 4.125,1.8748 4.125,4.1875z" transform="matrix(1.67698 0 0 1.67698 -113.846 33.7561)"/>
<g fill="#fff">
<path opacity=".608" fill-opacity=".529" d="m16.5,22.6875c0,1.001-.7835,1.8125-1.75,1.8125-.9665,0-1.75-.8115-1.75-1.8125 0-1.001 .7835-1.8125 1.75-1.8125 .9665,0 1.75,.8115 1.75,1.8125z" transform="matrix(1.67698 0 0 1.67698 -111.835 33.6115)"/>
<path opacity=".373" d="m16.5,22.6875c0,1.001-.7835,1.8125-1.75,1.8125-.9665,0-1.75-.8115-1.75-1.8125 0-1.001 .7835-1.8125 1.75-1.8125 .9665,0 1.75,.8115 1.75,1.8125z" transform="matrix(1.67324 0 0 1.67324 -114.001 31.8061)"/>
</g>
<path fill="url(#radialGradient3495)" d="m16.5,22.6875c0,1.001-.7835,1.8125-1.75,1.8125-.9665,0-1.75-.8115-1.75-1.8125 0-1.001 .7835-1.8125 1.75-1.8125 .9665,0 1.75,.8115 1.75,1.8125z" transform="matrix(.41273 0 0 .41273 -89.8832 65.7887)"/>
<path fill="#fff" d="m16.5,22.6875c0,1.001-.7835,1.8125-1.75,1.8125-.9665,0-1.75-.8115-1.75-1.8125 0-1.001 .7835-1.8125 1.75-1.8125 .9665,0 1.75,.8115 1.75,1.8125z" transform="matrix(.45611 0 0 .45611 -97.0318 58.1999)"/>
</g>
<g transform="matrix(1.03034 0 0 1.03034 4.04748 -.88523)">
<path opacity=".7" fill="#fff" color="#000" d="m34.6149,26.3243c-1.2891,0-2.3125,1.0885-2.3125,2.4062 0,.3048 .0542,.5756 .1562,.8438 .1327,.024 .2668,.0312 .4062,.0312 1.2862,0 2.3125-1.0602 2.3125-2.375 0-.2953-.0288-.5827-.125-.8438-.1427-.0279-.2869-.0625-.4375-.0625z"/>
</g>
</svg>
