<svg xmlns="http://www.w3.org/2000/svg" xmlns:xlink="http://www.w3.org/1999/xlink" viewBox="0 0 48 48"><defs><linearGradient id="A" y1="18.849" x1="12.836" y2="27.07" gradientUnits="userSpaceOnUse" x2="18.422"><stop style="stop-color:#010101"/><stop offset="1" style="stop-color:#959595"/></linearGradient><linearGradient id="E"><stop style="stop-color:#fff"/><stop offset="1" style="stop-color:#fff;stop-opacity:0"/></linearGradient><linearGradient id="B"><stop style="stop-color:#888a85;stop-opacity:0"/><stop offset="1" style="stop-color:#babdb6"/></linearGradient><linearGradient id="D"><stop style="stop-color:#888a85"/><stop offset="1" style="stop-color:#555753"/></linearGradient><linearGradient id="F"><stop style="stop-color:#f9f9f9"/><stop offset="1" style="stop-color:#f9f9f9;stop-opacity:0"/></linearGradient><linearGradient xlink:href="#H" id="G" y1="14.174" x1="10.303" y2="16.561" gradientUnits="userSpaceOnUse" x2="14.81"/><linearGradient xlink:href="#D" id="J" y1="5.515" x1="15.911" y2="4.448" gradientUnits="userSpaceOnUse" x2="17.823"/><linearGradient id="H"><stop style="stop-color:#888a85"/><stop offset=".34" style="stop-color:#babdb6"/><stop offset="1" style="stop-color:#555753"/></linearGradient><linearGradient xlink:href="#D" id="I" y1="3.765" x1="18.941" y2="4.888" gradientUnits="userSpaceOnUse" x2="17.06"/><linearGradient id="C"><stop style="stop-color:#555753"/><stop offset="1" style="stop-color:#888a85"/></linearGradient><linearGradient xlink:href="#H" id="3" x1="-2.202" gradientUnits="userSpaceOnUse" x2="7.914"/><linearGradient xlink:href="#H" id="4" x1="17.18" gradientUnits="userSpaceOnUse" x2="21.365"/><linearGradient xlink:href="#H" id="9" y1="16.472" x1="23.19" y2="15.898" gradientUnits="userSpaceOnUse" x2="28"/><linearGradient xlink:href="#E" id="0" y1="22.15" x1="19.274" y2="12.959" gradientUnits="userSpaceOnUse" x2="16.424"/><linearGradient xlink:href="#H" id="1" x1="27.798" gradientUnits="userSpaceOnUse" x2="37.914"/><linearGradient xlink:href="#C" id="2" y1="15.356" y2="26.641" gradientUnits="userSpaceOnUse" x2="0"/><linearGradient xlink:href="#C" id="8" y1="21.9" y2="28.98" gradientUnits="userSpaceOnUse" x2="0"/><linearGradient xlink:href="#B" id="7" y1="21.272" x1="9.873" y2="19.634" gradientUnits="userSpaceOnUse" x2="9.653"/><linearGradient xlink:href="#C" id="5" y1="21.9" y2="28.98" gradientUnits="userSpaceOnUse" x2="0"/><linearGradient xlink:href="#B" id="6" y1="21.272" x1="28.919" y2="19.634" gradientUnits="userSpaceOnUse" x2="29.14"/><radialGradient cx="22.958" cy="22.99" gradientTransform="matrix(.88153 0 0 .71013-1.67.154)" xlink:href="#E" id="N" r="3.938" gradientUnits="userSpaceOnUse"/><radialGradient cx="17.344" cy="5" gradientTransform="matrix(-1.01883 1.76466 2.47052 1.42636 22.572-33.29)" xlink:href="#F" id="O" r="2.5" gradientUnits="userSpaceOnUse"/><radialGradient cx="14.75" cy="22.688" gradientTransform="matrix(1 0 0 1.03571 0-.81)" id="M" r="1.75" gradientUnits="userSpaceOnUse" xlink:href="#E"/><radialGradient cx="16.875" cy="23.672" gradientTransform="matrix(1 0 0 1.01351 0-.305)" id="K" r="4.625" gradientUnits="userSpaceOnUse"><stop style="stop-color:#7a7a7a"/><stop offset="1"/></radialGradient><radialGradient cx="17.344" cy="5" gradientTransform="matrix(2.03765 0 0 2.85271-17.997-9.87)" r="2.5" id="L" xlink:href="#F" gradientUnits="userSpaceOnUse"/></defs><g style="stroke-dashoffset:.7"><g transform="matrix(.8923.51517-.51517.8923 3.628.305)"><path d="m18.5 2.5c-1.656 0-3 1.344-3 3v2c0 1.656 1.344 3 3 3 1.656 0 3-1.344 3-3v-2c0-1.656-1.344-3-3-3z" style="fill:url(#J);stroke:#2e3436;fill-rule:evenodd"/><path d="m18.5 3.5c-1.112 0-2 .888-2 2v2c0 1.112.888 2 2 2 1.112 0 2-.888 2-2v-2c0-1.112-.888-2-2-2z" style="fill:none;opacity:.25;stroke:url(#L)"/></g><g transform="matrix(-.8923.51517.51517.8923 44.37.305)"><path d="m18.5 2.5c-1.656 0-3 1.344-3 3v2c0 1.656 1.344 3 3 3 1.656 0 3-1.344 3-3v-2c0-1.656-1.344-3-3-3z" style="fill:url(#I);stroke:#2e3436;fill-rule:evenodd"/><path d="m18.5 3.5c-1.112 0-2 .888-2 2v2c0 1.112.888 2 2 2 1.112 0 2-.888 2-2v-2c0-1.112-.888-2-2-2z" style="fill:none;opacity:.25;stroke:url(#O)"/></g></g><g transform="matrix(1.03034 0 0 1.03034 4.047-.885)"><g style="fill-rule:evenodd"><path d="m14.427 14.168c1.382 0 2.5 1.152 2.5 2.594v3.813c0 .152-.008.293-.031.438-.38 1.801-.75 3.604-1.125 5.406-.441 1.03-1.471 1.75-2.656 1.75h-10.313c-1.593 0-2.875-1.304-2.875-2.906v-2.219c0-.522.136-1.018.375-1.438l3-4.281c.11-.208.247-.395.406-.563.454-.479 1.081-.781 1.781-.781h3.156c1.302.001 2.604-1.811 3.906-1.813h1.875z" style="fill:url(#G);stroke:#2e3436;stroke-dashoffset:.7"/><path d="m10.865 18.668c-.53.001-1.219.406-1.969.906-.75.5-1.561 1.095-2.531 1.094h-3.625c-1.329 0-2.375 1.037-2.375 2.375v2.219c0 1.338 1.052 2.406 2.375 2.406h10.313c1.323 0 2.375-1.068 2.375-2.406v-4.219c0-1.338-1.046-2.375-2.375-2.375h-2.188" style="fill:url(#5)"/></g><g style="stroke-dashoffset:.7"><g style="fill:none"><path d="m2.74 20.17l3.625.003c1.5.001 3-1.998 4.5-2l2.188-.003c1.593 0 2.875 1.29 2.875 2.892v4.218c0 1.602-1.282 2.892-2.875 2.892h-10.313c-1.593 0-2.875-1.29-2.875-2.892v-2.218c0-1.602 1.282-2.892 2.875-2.892z" style="stroke:url(#7)"/><path d="m12.552 15.168c-.188 0-.724.266-1.375.719-.651.453-1.416 1.095-2.531 1.094h-3.156c-.413 0-.781.172-1.063.469-.103.108-.185.221-.25.344-.019.032-.04.064-.063.094l-2.938 4.219c-.152.267-.25.589-.25.938v2.219c0 1.069.828 1.906 1.875 1.906h10.313c.764 0 1.424-.479 1.719-1.125.359-1.727.697-3.457 1.063-5.188.012-.076.031-.163.031-.281v-3.813c0-.925-.673-1.594-1.5-1.594h-1.875z" style="opacity:.178;stroke:#fff"/></g><path d="m24.365 14.168c-1.382 0-2.5 1.152-2.5 2.594v3.813c0 .152.008.293.031.438.38 1.801.75 3.604 1.125 5.406.441 1.03 1.471 1.75 2.656 1.75h10.313c1.593 0 2.875-1.304 2.875-2.906v-2.219c0-.522-.136-1.018-.375-1.438l-3-4.281c-.11-.208-.247-.395-.406-.563-.453-.479-1.081-.781-1.781-.781h-3.156c-1.302.001-2.604-1.811-3.906-1.813h-1.875z" style="fill:url(#9);stroke:#2e3436;fill-rule:evenodd"/></g><path d="m27.927 18.668c.53.001 1.219.406 1.969.906.75.5 1.561 1.095 2.531 1.094h3.625c1.329 0 2.375 1.037 2.375 2.375v2.219c0 1.338-1.052 2.406-2.375 2.406h-10.313c-1.323 0-2.375-1.068-2.375-2.406v-4.219c0-1.338 1.046-2.375 2.375-2.375h2.188" style="fill:url(#8);fill-rule:evenodd"/><g style="stroke-dashoffset:.7"><g style="fill:none"><path d="m36.05 20.17l-3.625.003c-1.5.001-3-1.998-4.5-2l-2.188-.003c-1.593 0-2.875 1.29-2.875 2.892v4.218c0 1.602 1.282 2.892 2.875 2.892h10.313c1.593 0 2.875-1.29 2.875-2.892v-2.218c0-1.602-1.282-2.892-2.875-2.892z" style="stroke:url(#6)"/><path d="m26.24 15.168c.188 0 .724.266 1.375.719.651.453 1.416 1.095 2.531 1.094h3.156c.413 0 .781.172 1.063.469.103.108.185.221.25.344.019.032.04.064.063.094l2.938 4.219c.152.267.25.589.25.938v2.219c0 1.069-.828 1.906-1.875 1.906h-10.313c-.764 0-1.424-.479-1.719-1.125-.359-1.727-.697-3.457-1.063-5.188-.012-.076-.031-.163-.031-.281v-3.813c0-.925.673-1.594 1.5-1.594h1.875z" style="opacity:.178;stroke:#fff"/></g><g style="fill-rule:evenodd"><g style="stroke:#2e3436"><path d="m19.427 13.168c-1.384 0-2.557.803-3.125 1.969-.282.988-.499 1.991-.688 3 .805.711 1.313 1.752 1.313 2.906v1.219c.686.553 1.551.906 2.5.906.929 0 1.758-.343 2.438-.875v-1.25c0-1.169.52-2.226 1.344-2.938-.199-1.01-.42-2-.656-3-.573-1.152-1.751-1.938-3.125-1.938z" style="fill:url(#4)"/><path d="m33.865 19.2c-3.859 0-7 3.11-7 6.969l.031 2.5c0 4.135 3.334 7.469 7.469 7.469 4.135 0 7.5-3.334 7.5-7.469 0-4.5-3-9.469-8-9.469z" style="fill:url(#1)"/></g><path d="m40.882 28.659c0 3.595-2.914 6.509-6.509 6.509-3.595 0-6.509-2.914-6.509-6.509 0-3.595 2.914-6.509 6.509-6.509 3.595 0 6.509 2.914 6.509 6.509z" style="fill:#babdb6;opacity:.8;stroke:#babdb6"/><path d="m4.865 19.2c3.859 0 7 3.11 7 6.969l-.031 2.5c0 4.135-3.333 7.469-7.469 7.469-4.135 0-7.5-3.334-7.5-7.469 0-4.5 3-9.469 8-9.469z" style="fill:url(#3);stroke:#2e3436"/><path d="m10.882 28.659c0 3.595-2.914 6.509-6.509 6.509-3.595 0-6.509-2.914-6.509-6.509 0-3.595 2.914-6.509 6.509-6.509 3.595 0 6.509 2.914 6.509 6.509z" style="fill:#babdb6;opacity:.8;stroke:#babdb6"/></g></g><path d="m19.365 15.668c-1.399 0-2.621.795-3.188 1.969-.004.008.004.023 0 .031-.02.11-.042.228-.063.344.775.788 1.313 1.845 1.313 3.03v.938c.259.184.508.355.813.469.144.054.334.116.531.156.239.049.449.063.656.063.207-.003.431-.016.656-.063.178-.036.348-.099.5-.156-.078.029-.084.013.031-.031.167-.066.221-.041.125 0-.004.002.016-.026.094-.063.145-.067.295-.157.438-.25.119-.078.147-.089.063-.031-.059.04.023-.021.031-.031v-1c0-1.172.523-2.213 1.281-3-.471-1.383-1.735-2.375-3.281-2.375" style="fill:url(#2);fill-rule:evenodd"/><g style="fill:none;stroke-dashoffset:.7"><path d="m15.845 20.17c0-2.208 1.577-4 3.52-4 1.943 0 3.52 1.792 3.52 4" style="opacity:.909;stroke:url(#N)"/><path d="m19.865 19.668c0 .276-.224.5-.5.5-.276 0-.5-.224-.5-.5 0-.276.224-.5.5-.5.276 0 .5.224.5.5z" style="opacity:.58;stroke:#2e3436"/><path d="m19.427 14.168c-.982 0-1.771.556-2.188 1.375-.216.775-.405 1.57-.563 2.375.736.855 1.25 1.917 1.25 3.125v.563c.459.286.937.563 1.5.563.543 0 .99-.258 1.438-.531v-.594c0-1.224.527-2.295 1.281-3.156-.159-.78-.318-1.565-.5-2.344-.003-.012-.028-.019-.031-.031-.417-.804-1.21-1.344-2.188-1.344z" style="opacity:.155;stroke:url(#0);stroke-linejoin:round"/></g></g><g style="color:#000"><g transform="matrix(.8199 0 0 .80924 80.23-29.28)"><path d="m19.875 22.563c0 2.313-1.847 4.188-4.125 4.188-2.278 0-4.125-1.875-4.125-4.188 0-2.313 1.847-4.188 4.125-4.188 2.278 0 4.125 1.875 4.125 4.188z" transform="matrix(1.67698 0 0 1.67698-113.85 33.756)" id="P" style="fill:url(#K);stroke:url(#A);stroke-width:.754"/><g style="fill:#fff"><path d="m-84.16 71.66c0 1.679-1.314 3.04-2.935 3.04-1.621 0-2.935-1.361-2.935-3.04 0-1.679 1.314-3.04 2.935-3.04 1.621 0 2.935 1.361 2.935 3.04" id="S" style="opacity:.608;fill-opacity:.529;stroke-width:1.677"/><path d="m-86.39 69.768c0 1.675-1.311 3.03-2.928 3.03-1.617 0-2.928-1.358-2.928-3.03 0-1.675 1.311-3.03 2.928-3.03 1.617 0 2.928 1.358 2.928 3.03" id="T" style="opacity:.373;stroke-width:1.673"/></g><path d="m16.5 22.688c0 1-.784 1.813-1.75 1.813-.966 0-1.75-.811-1.75-1.813 0-1 .784-1.813 1.75-1.813.966 0 1.75.811 1.75 1.813" transform="matrix(.41273 0 0 .41273-89.88 65.789)" id="Q" style="fill:url(#M)"/><path d="m-89.51 68.55c0 .457-.357.827-.798.827-.441 0-.798-.37-.798-.827 0-.457.357-.827.798-.827.441 0 .798.37.798.827" id="R" style="fill:#fff;stroke-width:.456"/></g><path d="m8.802 26.24c-1.328 0-2.383 1.122-2.383 2.479 0 .314.056.593.161.869.137.025.275.032.419.032 1.325 0 2.383-1.092 2.383-2.447 0-.304-.03-.6-.129-.869-.147-.029-.296-.064-.451-.064" style="fill:#fff;opacity:.7;stroke-width:1.03"/><g transform="matrix(.8199 0 0 .80924 111.14-29.28)"><use xlink:href="#P"/><g style="fill:#fff"><use xlink:href="#S"/><use xlink:href="#T"/></g><use xlink:href="#Q"/><use xlink:href="#R"/></g><path d="m39.713 26.24c-1.328 0-2.383 1.122-2.383 2.479 0 .314.056.593.161.869.137.025.275.032.419.032 1.325 0 2.383-1.092 2.383-2.447 0-.304-.03-.6-.129-.869-.147-.029-.296-.064-.451-.064" style="fill:#fff;opacity:.7;stroke-width:1.03"/></g></svg>