<svg xmlns="http://www.w3.org/2000/svg" viewBox="0 0 512 512">
<g stroke="#000" stroke-linecap="square" stroke-width="8" stroke-dashoffset="354.331" transform="translate(0 -540.3622)">
<path fill="#fff" d="m40.0271,644.362h431.9459a.0271,.0097 0 0,1 .027,.01v367.978a.0271,.0097 0 0,1 -.027,.01h-431.9459a.0271,.0097 0 0,1 -.0271-.01v-367.978a.0271,.0097 0 0,1 .0271-.01"/>
<path d="m40.0271,40h431.9459a.0271,.0114 0 0,1 .027,.0114v63.9776a.0271,.0114 0 0,1 -.027,.011h-431.9459a.0271,.0114 0 0,1 -.0271-.011v-63.9776a.0271,.0114 0 0,1 .0271-.0114" transform="translate(0 540.3622)"/>
<path fill="#fff" d="m40.004,580.362h63.992a.004,.0017 0 0,1 .004,.002v63.996a.004,.0017 0 0,1 -.004,.002h-63.992a.004,.0017 0 0,1 -.004-.002v-63.996a.004,.0017 0 0,1 .004-.002"/>
</g>
<g stroke-linejoin="round" stroke-linecap="round" transform="matrix(.66969 0 0 .66969 84.55826 -245.31924)">
<path fill="#fff" stroke="#000" stroke-width="12" d="m78.6652,956.3948 0-320.0651 92.4573,80.3719 248.9452,0 14.2251,14.2251 0,130.871-14.2251,14.2251-248.9452,0-92.4573,80.3719z"/>
<g fill="none">
<g stroke-width="8">
<path stroke-dasharray="32,16,8,16" stroke="#f00" d="m27.536,796.3622 456.9281,0"/>
<g stroke="#808080">
<path d="m156.9033,745.0309 0,102.6612"/>
<path d="m182.9833,796.3622-26.08,51.3299"/>
<path d="m182.9833,796.3622-26.08-51.3313"/>
<path d="m182.9833,796.3622-26.08,25.6649"/>
<path d="m78.6652,847.6921 78.2381,0"/>
<path d="m182.9833,796.3622-26.08-25.6664"/>
<path d="m78.6652,822.0272 78.2381,0"/>
<path d="m78.6652,770.6958 78.2381,0"/>
<path d="m78.6652,745.0309 78.2381,0"/>
</g>
</g>
<g stroke="#000">
<path stroke-width="8" d="m171.1224,876.0229 0-159.3213"/>
<g stroke-width="4">
<path d="m290.2635,716.7016-.1505,.0501-.1505,.1469-.1505,.2437-.1505,.3404-.1505,.4353-.1505,.5307-.1505,.626-.1505,.7184-.1505,.8137-.1505,.9062-.1505,.9986-.1505,1.0896-.1505,1.1792-.1505,1.2673-.1505,1.3555-.1505,1.4411-.1505,1.5235-.301,3.2831"/>
<path d="m263.2358,716.7016-.1494,.0466-.148,.1433-.1494,.2401-.1494,.3332-.1508,.431-.1494,.5263-.1494,.6217-.1508,.7155-.1494,.808-.1494,.9018-.1509,.9914-.1494,1.0824-.1508,1.1706-.1494,1.2577-.1508,1.3429-.1494,1.4253-.1494,1.5077-.1508,1.5877-.2988,3.4071"/>
<path d="m303.7773,876.0229-.1397-.043-.1433-.129-.1433-.215-.1433-.3045-.1397-.3884-.1433-.4737-.1433-.5589-.1433-.6446-.1433-.727-.1397-.8108-.1433-.8932-.1433-.976-.1433-1.0556-.1433-1.1351-.1433-1.215-.1433-1.2917-.1433-1.3684-.1433-1.4397"/>
<path d="m276.7496,876.0229-.1422-.043-.1437-.1326-.1437-.2222-.1422-.3081-.1437-.3941-.1422-.4823-.1437-.569-.1437-.6543-.1422-.7395-.1437-.8223-.1422-.9062-.1437-.9886-.1422-1.0685-.1437-1.1494-.1422-1.2261-.1422-1.3017-.1437-1.3784-.1422-1.4508"/>
<path d="m317.2912,716.7016-.1505,.0501-.1505,.1433-.1505,.2437-.1505,.3368-.1505,.4339-.1505,.5292-.1505,.6231-.1505,.717-.1505,.8108-.1505,.9019-.1505,.9928-.1505,1.081-.1505,1.172-.1505,1.2577-.1505,1.3444-.1505,1.4296-.1505,1.5121-.1505,1.5919-.301,3.4111"/>
<path d="m344.3189,716.7016-.1433,.043-.1433,.1326-.1433,.2186-.1433,.3081-.1433,.3927-.1433,.4808-.1433,.5633-.1433,.6485-.1433,.7299-.1397,.8123-.1433,.8904-.1397,.9688-.1397,1.0498-.1397,1.1265-.1397,1.2064-.1433,1.2831-.1433,1.3612-.1397,1.4368-.1433,1.512-.2831,3.2405"/>
<path d="m330.8051,876.0229-.1505-.0501-.1505-.1469-.1505-.2437-.1505-.3404-.1505-.4411-.1505-.5364-.1505-.6331-.1505-.727-.1505-.8194-.1505-.909-.1505-.9957-.1505-1.0839-.1505-1.1691-.1505-1.2548-.1469-1.3372-.1505-1.421-.1505-1.5024"/>
<path d="m398.3744,716.7016-.1505,.0501-.1469,.1433-.1505,.2401-.1505,.3332-.1505,.4267-.1469,.5221-.1505,.6131-.1505,.7084-.1505,.8022-.1505,.8976-.1505,.9929-.1505,1.0853-.1505,1.1777-.1505,1.2659-.1505,1.3529-.1505,1.4382-.1505,1.5207-.1505,1.6016-.1505,1.6801-.301,3.5904"/>
<path d="m371.3466,716.7016-.1433,.043-.1433,.1326-.1433,.2186-.1433,.3046-.1433,.3927-.1433,.478-.1433,.5633-.1433,.6471-.1433,.7327-.1433,.8137-.1433,.8976-.1433,.9771-.1433,1.0584-.1433,1.1365-.1397,1.2136-.1433,1.2903-.1433,1.3655-.1433,1.4382-.1433,1.5106-.2831,3.2291"/>
<path d="m357.8328,876.0229-.1505-.0466-.1505-.1433-.1505-.2436-.1505-.3368-.1505-.4325-.1505-.5278-.1505-.6231-.1505-.717-.1505-.8137-.1505-.9076-.1505-1.0015-.1505-1.0939-.1505-1.1835-.1505-1.2702-.1505-1.3558-.1505-1.4382-.1505-1.5207-.1505-1.5987"/>
<path d="m384.8605,876.0229-.1505-.0501-.1505-.1469-.1505-.2437-.1505-.3404-.1505-.4325-.1505-.5278-.1505-.6202-.1505-.7141-.1505-.808-.1505-.9004-.1505-.9943-.1505-1.0867-.1505-1.1749-.1505-1.263-.1505-1.3487-.1505-1.4325-.1505-1.5135-.1505-1.593"/>
<path d="m411.8882,876.0229-.1505-.0466-.1505-.1433-.1505-.2436-.1505-.3368-.1505-.4339-.1505-.5306-.1505-.6274-.1505-.7213-.1505-.8151-.1505-.9104-.1505-1.0015-.1505-1.0939-.1505-1.1835-.1505-1.2702-.1505-1.3558-.1505-1.4382-.1505-1.5221-.1505-1.6031"/>
<path d="m256.4788,716.7016 0,159.3213"/>
<path d="m258.1332,766.4881-1.6544,29.8742"/>
<path d="m258.7364,756.4494-.6031,10.0387"/>
<path d="m259.1901,749.4236-.4538,7.0258"/>
<path d="m259.6411,742.9355-.4509,6.4881"/>
<path d="m259.9412,738.9468-.3003,3.9887"/>
<path d="m260.2414,735.244-.3003,3.7028"/>
<path d="m265.7949,730.3804-.1437-1.4479-.1422-1.3712-.1437-1.296-.1422-1.2189-.1437-1.1394-.1422-1.0599-.1437-.9785-.1422-.8947-.1422-.8108-.1422-.7256-.1422-.6414-.1408-.5561-.1422-.4694-.1408-.3855-.1422-.2974-.1408-.215-.1408-.129-.1408-.043"/>
<path d="m266.0808,733.4943-.2859-3.114"/>
<path d="m274.1763,862.1861-.2845-3.1155"/>
<path d="m266.3681,736.8941-.2874-3.3999"/>
<path d="m273.8918,859.0708-.2859-3.3871"/>
<path d="m266.654,740.5528-.2859-3.6587"/>
<path d="m273.6059,855.6838-.2845-3.6445"/>
<path d="m273.3214,852.0393-.4253-5.9105"/>
<path d="m267.0822,746.4719-.4282-5.9191"/>
<path d="m267.5061,752.8405-.4239-6.3686"/>
<path d="m272.896,846.1288-.4267-6.3942"/>
<path d="m272.4693,839.7346-.5676-9.1667"/>
<path d="m268.0709,761.936-.5647-9.0955"/>
<path d="m271.9017,830.5679-.7084-12.2649"/>
<path d="m269.206,781.8668-1.1352-19.9308"/>
<path d="m271.1933,818.303-1.9873-36.4362"/>
<path d="m285.1552,766.5848-2.6999,49.0681"/>
<path d="m282.4553,815.6529-.7497,13.1056"/>
<path d="m285.9063,754.1876-.7511,12.3972"/>
<path d="m281.7056,828.7585-.6003,9.8096"/>
<path d="m286.3558,747.3667-.4495,6.8209"/>
<path d="m281.1053,838.5681-.4538,6.865"/>
<path d="m280.6516,845.4332-.3017,4.2818"/>
<path d="m286.8054,741.0891-.4495,6.2775"/>
<path d="m280.35,849.715-.3017,4.0157"/>
<path d="m287.1055,737.2312-.3003,3.8579"/>
<path d="m280.0484,853.7307-.3017,3.7298"/>
<path d="m287.4056,733.6508-.301,3.5806"/>
<path d="m279.7468,857.4605-.3017,3.4268-.1508,1.5959-.1509,1.5149-.1508,1.4325-.1508,1.3487-.1508,1.2619-.1508,1.1735-.1494,1.0824-.1508,.99-.1494,.8947-.1494,.8008-.148,.7084-.148,.6131-.1494,.5206-.1494,.4282-.1494,.3368-.1494,.2401-.1494,.1433-.1494,.0466"/>
<path d="m292.834,730.4956-.1433-1.444-.1433-1.3698-.1433-1.2945-.1433-1.219-.1433-1.1408-.1433-1.0642-.1433-.9843-.1433-.9047-.1433-.8237-.1433-.7395-.1433-.6571-.1433-.5704-.1433-.4851-.1433-.3956-.1433-.3081-.1433-.2186-.1433-.1326-.1433-.043"/>
<path d="m301.2197,862.3525-.2831-3.0868"/>
<path d="m293.1171,733.5967-.2831-3.1011"/>
<path d="m300.9366,859.2657-.2831-3.3502"/>
<path d="m293.4015,736.9723-.2831-3.3756"/>
<path d="m300.6535,855.9157-.2831-3.599"/>
<path d="m293.6861,740.6097-.2831-3.6374"/>
<path d="m300.3704,852.3167-.4239-5.8508"/>
<path d="m294.1128,746.5188-.4267-5.9091"/>
<path d="m299.9465,846.4659-.4253-6.3643"/>
<path d="m294.5396,752.9173-.4268-6.3985"/>
<path d="m299.5212,840.1016-.5718-9.2008"/>
<path d="m295.1071,762.0839-.5676-9.1667"/>
<path d="m298.9493,830.9008-.7155-12.3701"/>
<path d="m296.238,781.9479-1.1308-19.864"/>
<path d="m298.2338,818.5307-1.9958-36.5828"/>
<path d="m328.2531,862.4108-.2974-3.2405-.1505-1.7367"/>
<path d="m312.1858,766.5307-2.697,49.0069"/>
<path d="m309.4887,815.5377-.751,13.1454"/>
<path d="m312.789,756.5006-.603,10.0301"/>
<path d="m308.7376,828.6831-.6045,9.8794"/>
<path d="m313.2428,749.462-.4536,7.0386"/>
<path d="m308.1331,838.5625-.4522,6.8636"/>
<path d="m313.6951,742.9654-.4522,6.4967"/>
<path d="m307.6807,845.4261-.4522,6.316"/>
<path d="m313.9938,738.9823-.2974,3.983"/>
<path d="m307.2284,851.742-.301,3.872"/>
<path d="m314.2926,735.2838-.2974,3.6985"/>
<path d="m306.9268,855.6141-.301,3.5791-.1505,1.6729-.1505,1.5945-.1505,1.512-.1505,1.4296-.1505,1.3444-.1505,1.2573-.1505,1.1706-.1505,1.0824-.1505,.9914-.1505,.9004-.1505,.808-.1505,.7155-.1505,.6217-.1505,.5263-.1505,.4325-.1505,.3368-.1505,.2401-.1505,.1433-.1505,.0466"/>
<path d="m319.9926,731.8997-.1505-1.5988-.1505-1.5178-.1505-1.4311-.1505-1.3443-.1505-1.2577-.1505-1.1681-.1505-1.081-.1505-.9914-.1505-.9019-.1505-.8137-.1505-.7198-.1505-.6274-.1505-.5321-.1505-.4368-.1505-.3404-.1505-.2437-.1505-.1433-.1505-.0501"/>
<path d="m320.2941,735.3365-.301-3.4369"/>
<path d="m327.8064,857.4335-.2974-3.6971"/>
<path d="m320.5957,739.0734-.301-3.7369"/>
<path d="m327.5077,853.7364-.2974-3.9802"/>
<path d="m320.8973,743.0863-.301-4.0129"/>
<path d="m327.209,849.7562-.4511-6.4596"/>
<path d="m321.3468,749.5616-.4497-6.4753"/>
<path d="m326.758,843.2966-.5987-9.4057"/>
<path d="m321.9471,758.98-.6001-9.4184"/>
<path d="m326.1591,833.8909-.6002-10.1254"/>
<path d="m322.8504,774.4683-.9033-15.4883"/>
<path d="m325.5588,823.7655-.899-16.11"/>
<path d="m324.6598,807.6555-1.8094-33.1872"/>
<path d="m339.1907,766.929-2.7027,49.1094"/>
<path d="m336.488,816.0384-.7084,12.4015"/>
<path d="m339.9049,755.0966-.7141,11.8324"/>
<path d="m335.7796,828.4398-.5676,9.3132"/>
<path d="m340.3345,748.5146-.4296,6.5819"/>
<path d="m335.212,837.7531-.4253,6.5251"/>
<path d="m340.7626,742.4049-.4282,6.1097"/>
<path d="m334.7867,844.2781-.4267,6.0627"/>
<path d="m341.05,738.6253-.2866,3.7796"/>
<path d="m334.3599,850.3408-.2831,3.754"/>
<path d="m341.3359,735.106-.2867,3.5193"/>
<path d="m346.8766,730.3634-.1505-1.5135-.1505-1.4325-.1505-1.3472-.1505-1.2619-.1505-1.1763-.1505-1.0882-.1505-1-.1505-.9119-.1505-.8194-.1505-.7256-.1505-.6331-.1505-.5364-.1505-.4382-.1505-.3404-.1505-.2437-.1505-.1433-.1505-.0501"/>
<path d="m347.1753,733.6295-.2974-3.266"/>
<path d="m355.1271,860.7679-.301-3.434"/>
<path d="m347.4755,737.1985-.301-3.5691"/>
<path d="m354.8256,857.3339-.301-3.7369"/>
<path d="m347.7756,741.055-.301-3.8564"/>
<path d="m354.524,853.597-.301-4.0129"/>
<path d="m348.2237,747.3325-.4481-6.2775"/>
<path d="m354.2239,849.5841-.4495-6.4753"/>
<path d="m348.6732,754.1435-.4493-6.811"/>
<path d="m353.7744,843.1088-.6002-9.4099"/>
<path d="m349.4229,766.4866-.7497-12.3431"/>
<path d="m353.1741,833.6989-.6016-10.1866"/>
<path d="m352.5723,823.5123-.9019-16.1754"/>
<path d="m351.6705,807.3369-.5959-11.0159-1.6514-29.8344"/>
<path d="m334.0754,854.0948-.2831,3.501"/>
<path d="m333.7909,857.5956-.2831,3.2305-.1433,1.5077-.1397,1.4354-.1433,1.3612-.1397,1.2845-.1433,1.2079-.1397,1.1294-.1397,1.0527-.1397,.9732-.1433,.8947-.1433,.8137-.1433,.7342-.1433,.6514-.1433,.5676-.1433,.4823-.1433,.3956-.1433,.3081-.1433,.2222-.1433,.1326-.1433,.0466"/>
<path d="m366.227,766.7725-2.5576,46.5147"/>
<path d="m363.6694,813.2872-.717,12.6732"/>
<path d="m362.9524,825.9604-.5733,9.5607"/>
<path d="m366.9397,754.987-.7127,11.7855"/>
<path d="m367.3664,748.4463-.4267,6.5407"/>
<path d="m362.3791,835.5211-.5718,8.8537"/>
<path d="m367.7918,742.3879-.4253,6.0585"/>
<path d="m361.8073,844.3748-.4267,6.0628"/>
<path d="m368.0763,738.641-.2831,3.7469"/>
<path d="m361.3805,850.4376-.2831,3.727"/>
<path d="m368.3608,735.1444-.2831,3.4967"/>
<path d="m361.0974,854.1646-.2831,3.4652"/>
<path d="m360.8158,857.6298-.2831,3.205-.1397,1.5034-.1397,1.4325-.1433,1.3626-.1433,1.2888-.1433,1.2132-.1433,1.1351-.1397,1.057-.1433,.9785-.1433,.8961-.1433,.8151-.1433,.7313-.1433,.6471-.1433,.5633-.1433,.4765-.1433,.3913-.1433,.3046-.1433,.2186-.1433,.1326-.1433,.043"/>
<path d="m373.91,730.4274-.1505-1.5264-.1505-1.4454-.1505-1.3601-.1505-1.2731-.1505-1.1849-.1505-1.0953-.1505-1.0058-.1505-.9119-.1505-.8194-.1505-.7241-.1505-.6303-.1505-.5335-.1505-.4382-.1505-.3404-.1505-.2437-.1505-.1469-.1505-.0501"/>
<path d="m374.2102,733.7105-.301-3.2831"/>
<path d="m382.1606,860.8333-.301-3.4182"/>
<path d="m374.5103,737.2782-.301-3.5676"/>
<path d="m381.8604,857.415-.301-3.7128"/>
<path d="m374.8076,741.1133-.2974-3.8351"/>
<path d="m381.5603,853.7022-.301-3.9887"/>
<path d="m375.2528,747.3539-.4454-6.2406"/>
<path d="m381.2601,849.7135-.4495-6.4596"/>
<path d="m375.7009,754.1492-.4482-6.7953"/>
<path d="m380.8106,843.2539-.5987-9.3957"/>
<path d="m376.4534,766.5435-.7524-12.3943"/>
<path d="m380.2117,833.8582-.5987-10.1283"/>
<path d="m379.6129,823.7299-.9004-16.1242"/>
<path d="m378.7124,807.6057-.6002-11.097-1.6586-29.9652"/>
<path d="m393.2718,766.4753-2.6941,48.9543"/>
<path d="m390.5776,815.4295-.7481,13.1127"/>
<path d="m389.8293,828.5423-.6002,9.8252"/>
<path d="m394.0172,754.1919-.7453,12.2834"/>
<path d="m389.229,838.3675-.4525,6.8679"/>
<path d="m394.4682,747.3467-.451,6.8451"/>
<path d="m388.7767,845.2355-.4536,6.343"/>
<path d="m394.9219,741.0236-.4536,6.3231"/>
<path d="m388.3229,851.5784-.301,3.8948"/>
<path d="m395.2235,737.1431-.301,3.8806"/>
<path d="m388.0213,855.4733-.301,3.6004-.1505,1.6815-.1505,1.6016-.1505,1.5207-.1505,1.4368-.1505,1.3526-.1505,1.2659-.1505,1.1777-.1505,1.0896-.1505,1-.1505,.9076-.1505,.8137-.1505,.7213-.1505,.6274-.1505,.5335-.1505,.4368-.1505,.3404-.1505,.2436-.1505,.1469-.1505,.0501"/>
<path d="m401.0715,731.8556-.1505-1.5862-.1505-1.5063-.1505-1.4239-.1505-1.3415-.1505-1.2562-.1505-1.1691-.1505-1.0824-.1505-.9929-.1505-.9018-.1505-.8108-.1505-.717-.1505-.6245-.1505-.5307-.1505-.4353-.1505-.3368-.1505-.2437-.1505-.1433-.1505-.0501"/>
<path d="m401.3716,735.2596-.301-3.4043"/>
<path d="m409.1798,860.7437-.301-3.4426"/>
<path d="m401.6703,738.961-.2974-3.7014"/>
<path d="m408.8782,857.3012-.301-3.7455"/>
<path d="m401.9705,742.9398-.301-3.9788"/>
<path d="m408.5766,853.5557-.301-4.02"/>
<path d="m402.4186,749.3923-.4482-6.4525"/>
<path d="m408.2751,849.5357-.4482-6.4696"/>
<path d="m403.0188,758.788-.6001-9.3957"/>
<path d="m407.827,843.0661-.5959-9.343"/>
<path d="m407.231,833.7231-.5962-10.0785"/>
<path d="m403.9207,774.2222-.9019-15.4343"/>
<path d="m406.6349,823.6445-.9047-16.2422"/>
<path d="m405.7302,807.4023-1.8094-33.1801"/>
</g>
<path stroke-width="8" d="m420.0677,876.0229 0-159.3213"/>
</g>
</g>
</g>
</svg>
