<?xml version="1.0" encoding="UTF-8" standalone="no"?>
<!-- Created with Inkscape (http://www.inkscape.org/) -->
<svg
   xmlns:dc="http://purl.org/dc/elements/1.1/"
   xmlns:cc="http://creativecommons.org/ns#"
   xmlns:rdf="http://www.w3.org/1999/02/22-rdf-syntax-ns#"
   xmlns:svg="http://www.w3.org/2000/svg"
   xmlns="http://www.w3.org/2000/svg"
   xmlns:xlink="http://www.w3.org/1999/xlink"
   xmlns:sodipodi="http://sodipodi.sourceforge.net/DTD/sodipodi-0.dtd"
   xmlns:inkscape="http://www.inkscape.org/namespaces/inkscape"
   width="48"
   height="48"
   id="svg2"
   sodipodi:version="0.32"
   inkscape:version="0.46"
   version="1.0"
   sodipodi:docname="Next.svg"
   inkscape:output_extension="org.inkscape.output.svg.inkscape">
  <defs
     id="defs4">
    <radialGradient
       cx="42.7856"
       cy="42.189"
       gradientUnits="userSpaceOnUse"
       id="XMLID_2_"
       r="69.8333">
      <stop
         id="stop6"
         offset="0"
         style="stop-color:#93aef5;stop-opacity:1;" />
      <stop
         id="stop8"
         offset="1"
         style="stop-color:#094ece;stop-opacity:1;" />
    </radialGradient>
    <inkscape:perspective
       sodipodi:type="inkscape:persp3d"
       inkscape:vp_x="0 : 526.18109 : 1"
       inkscape:vp_y="0 : 1000 : 0"
       inkscape:vp_z="744.09448 : 526.18109 : 1"
       inkscape:persp3d-origin="372.04724 : 350.78739 : 1"
       id="perspective10" />
    <inkscape:perspective
       id="perspective2390"
       inkscape:persp3d-origin="372.04724 : 350.78739 : 1"
       inkscape:vp_z="744.09448 : 526.18109 : 1"
       inkscape:vp_y="0 : 1000 : 0"
       inkscape:vp_x="0 : 526.18109 : 1"
       sodipodi:type="inkscape:persp3d" />
    <radialGradient
       r="69.833298"
       id="radialGradient2459"
       gradientUnits="userSpaceOnUse"
       cy="42.188999"
       cx="42.785599">
      <stop
         style="stop-color: rgb(209, 245, 147);"
         offset="0"
         id="stop2461" />
      <stop
         style="stop-color: rgb(129, 206, 9);"
         offset="1"
         id="stop2463" />
    </radialGradient>
    <radialGradient
       inkscape:collect="always"
       xlink:href="#XMLID_2_"
       id="radialGradient2476"
       gradientUnits="userSpaceOnUse"
       cx="42.7856"
       cy="42.189"
       r="69.8333"
       gradientTransform="matrix(0.3198379,0,0,0.3198379,2.5032746,2.0302347)" />
  </defs>
  <sodipodi:namedview
     id="base"
     pagecolor="#ffffff"
     bordercolor="#666666"
     borderopacity="1.0"
     gridtolerance="10000"
     guidetolerance="10"
     objecttolerance="10"
     inkscape:pageopacity="0.0"
     inkscape:pageshadow="2"
     inkscape:zoom="3.959798"
     inkscape:cx="0.069466138"
     inkscape:cy="22.57075"
     inkscape:document-units="px"
     inkscape:current-layer="layer1"
     showgrid="false"
     inkscape:window-width="1112"
     inkscape:window-height="776"
     inkscape:window-x="481"
     inkscape:window-y="79">
    <inkscape:grid
       type="xygrid"
       id="grid2436"
       visible="true"
       enabled="true" />
  </sodipodi:namedview>
  <metadata
     id="metadata7">
    <rdf:RDF>
      <cc:Work
         rdf:about="">
        <dc:format>image/svg+xml</dc:format>
        <dc:type
           rdf:resource="http://purl.org/dc/dcmitype/StillImage" />
      </cc:Work>
    </rdf:RDF>
  </metadata>
  <g
     inkscape:label="Layer 1"
     inkscape:groupmode="layer"
     id="layer1">
    <path
       style="fill:url(#radialGradient2476)"
       id="path10"
       d="M 20.695974,4.7421403 C 20.695974,5.9751154 20.695974,7.2077706 20.695974,8.4407457 C 20.695974,8.9975835 21.110804,12.251294 20.695974,12.611112 C 20.36974,12.894488 18.53323,12.611112 18.121279,12.611112 C 16.151397,12.611112 14.181516,12.611112 12.211314,12.611112 C 9.6663642,12.611112 5.0533422,11.740513 3.5059664,14.381735 C 2.2493233,16.528167 3.0178938,20.592347 3.0178938,22.924925 C 3.0178938,25.605806 2.7703392,28.415582 3.0178938,31.086868 C 3.0178938,35.358303 7.9987294,34.662016 10.830574,34.662016 C 14.056459,34.662016 17.282344,34.662016 20.508229,34.662016 C 20.903229,34.662016 20.695974,41.503669 20.695974,42.376506 C 20.695974,45.404732 23.851815,46.756367 26.035988,44.57859 C 27.948299,42.673636 29.85997,40.768042 31.771961,38.861808 C 35.841258,34.805943 40.466434,30.933026 44.151287,26.522142 C 46.751249,23.913224 44.116424,21.430642 42.281194,19.593173 C 39.780702,17.090762 37.279889,14.58771 34.779077,12.084979 C 32.322402,9.6254253 29.865087,7.1658719 27.407773,4.7069581 C 25.81498,3.1125662 23.796163,1.0748789 21.45367,3.1077686 C 20.975193,3.5229182 20.695974,4.1056628 20.695974,4.7421403" />
    <path
       style="fill:#5f8dd3"
       id="path12"
       d="M 3.0178938,16.18722 C 3.0178938,18.908081 3.0178938,21.628942 3.0178938,24.349163 C 3.0178938,26.681421 2.2490035,30.745921 3.5059664,32.891074 C 5.053662,35.532935 9.6654047,34.662016 12.210035,34.662016 C 14.050062,34.662016 15.89009,34.662016 17.729478,34.662016 C 18.199639,34.662016 20.327521,34.337061 20.695654,34.662016 C 21.06027,34.983773 20.695654,37.822654 20.695654,38.306889 C 20.695654,39.826439 20.695654,41.345989 20.695654,42.865219 C 20.695654,46.336739 24.577207,46.032893 26.379494,44.236364 C 31.191455,39.440075 36.003416,34.643466 40.815697,29.846537 C 42.560733,28.107258 45.889925,25.820098 45.029881,22.97418 C 44.928493,23.165443 43.838165,23.878042 43.623874,24.092013 C 42.643251,25.070398 41.661349,26.048462 40.681045,27.026206 C 37.956026,29.74227 35.231967,32.458653 32.507588,35.174716 C 30.693467,36.98308 28.879986,38.791443 27.066505,40.599487 C 26.283862,41.379572 24.984361,42.056988 23.897552,41.456972 C 22.615641,40.750131 22.950192,38.674703 22.950192,37.445246 C 22.950192,35.784327 22.950192,34.123409 22.950192,32.462491 C 22.950192,31.549034 22.260621,31.908852 21.418168,31.908852 C 17.836943,31.908852 14.256038,31.908852 10.674813,31.908852 C 8.0361504,31.908852 5.3952489,31.745414 5.3952489,28.437651 C 5.3952489,24.961333 5.3952489,21.484375 5.3952489,18.008057 C 5.3952489,16.417823 5.0488644,14.303694 5.6117792,12.764954 C 4.0995856,13.198015 3.0178938,14.610419 3.0178938,16.18722" />
    <path
       style="fill:#80b3ff"
       id="path14"
       d="M 5.6124188,34.424057 C 4.726148,31.994248 5.3958886,28.427736 5.3958886,25.912531 C 5.3958886,23.242204 4.9302046,20.123785 5.4512205,17.485762 C 6.0406818,14.495597 11.339116,15.353402 13.516573,15.353402 C 16.632754,15.353402 19.749254,15.353402 22.865435,15.353402 C 23.11107,15.353402 22.763406,8.4429846 23.123864,7.4380539 C 24.213551,4.4024724 27.269922,7.4809122 28.454922,8.6716687 C 33.338527,13.578302 38.222132,18.484615 43.105097,23.391249 C 43.496578,23.784969 44.782966,24.643734 45.030201,25.111657 C 45.948776,22.069678 41.817429,19.216404 39.976123,17.367422 C 36.530189,13.906775 33.084256,10.44581 29.638322,6.9851634 C 27.971967,5.3117716 25.665296,1.8226599 22.919167,2.3507123 C 19.368327,3.0329265 20.695974,9.9586964 20.695974,12.527634 C 17.710927,12.527634 14.726839,12.526995 11.741792,12.526995 C 8.8120772,12.526675 3.0178938,11.581874 3.0178938,16.102782 C 2.7418737,19.081433 3.0178938,22.214885 3.0178938,25.204729 C 3.0178938,28.018983 1.9998497,33.389701 5.6124188,34.424057" />
    <path
       style="fill:#000000"
       id="path16"
       d="M 22.158593,2.3462345 C 19.216084,3.5635376 20.407161,9.5090043 20.407161,12.024849 C 20.407161,12.648853 12.977646,12.322298 12.063549,12.322298 C 9.3206194,12.322298 4.7034395,11.440505 3.1608613,14.412439 C 2.0008093,16.648106 2.7290802,20.536056 2.7290802,22.925245 C 2.7290802,25.611883 2.5023151,28.408226 2.7290802,31.087188 C 2.7290802,35.527817 7.6529846,34.95115 10.645068,34.95115 C 13.87831,34.95115 17.111231,34.95115 20.344472,34.95115 C 20.541492,34.95115 20.281784,42.515636 20.460573,43.526004 C 20.890436,45.957092 24.258009,46.767241 25.95251,45.070821 C 26.34751,44.760578 26.689417,44.336153 27.044437,43.982093 C 29.238525,41.795361 31.432613,39.60799 33.626381,37.420938 C 36.091052,34.964263 38.555083,32.508228 41.019754,30.051233 C 42.302624,28.772841 44.357582,27.307344 45.133829,25.603567 C 46.372881,22.882067 44.175594,21.082659 42.485251,19.390396 C 40.098621,17.001207 37.71135,14.611698 35.3244,12.222509 C 32.974231,9.870741 30.625022,7.5183332 28.274853,5.1665651 C 26.568198,3.4570316 24.956215,1.189061 22.158593,2.3462345 M 3.3067074,31.086868 C 3.3067074,28.366007 3.3067074,25.645146 3.3067074,22.924925 C 3.3067074,20.659513 2.4952787,16.382321 3.8686626,14.350391 C 5.4480221,12.014295 10.218724,12.899606 12.5948,12.899606 C 14.422034,12.899606 16.248308,12.899606 18.075542,12.899606 C 18.538668,12.899606 20.619853,13.219124 20.984788,12.899606 C 21.344286,12.584885 20.984788,9.7667937 20.984788,9.2899154 C 20.984788,7.7857177 20.984788,6.2812002 20.984788,4.7770026 C 20.984788,2.6734287 24.218349,1.923089 25.552393,3.2580924 C 26.035988,3.742327 26.519583,4.2262417 27.003178,4.7098366 C 31.953948,9.6650852 36.904719,14.620334 41.85581,19.575582 C 43.49434,21.216351 46.07735,23.200945 44.365578,25.802187 C 43.282287,27.448712 41.437462,28.818898 40.057361,30.194201 C 35.387408,34.848802 30.717775,39.503722 26.047822,44.158004 C 25.224239,44.979347 24.335729,45.532667 23.070771,45.330529 C 21.13863,45.021246 20.984788,43.398389 20.984788,41.824466 C 20.984788,40.855677 21.359958,34.372243 20.663671,34.372243 C 17.510069,34.372243 14.355827,34.372243 11.202226,34.372243 C 8.5251826,34.373203 3.3067074,35.208299 3.3067074,31.086868" />
  </g>
</svg>
