<svg xmlns="http://www.w3.org/2000/svg" viewBox="0 0 48 48" xmlns:xlink="http://www.w3.org/1999/xlink">
<defs>
<radialGradient cx="42.786" cy="42.189" id="XMLID_2_" r="69.833" gradientUnits="userSpaceOnUse">
<stop offset="0" stop-color="#93aef5"/>
<stop offset="1" stop-color="#094ece"/>
</radialGradient>
<radialGradient cx="42.786" cy="42.189" gradientTransform="matrix(-.31984 0 0 .31984 45.49673 2.03023)" xlink:href="#XMLID_2_" id="radialGradient2476" r="69.833" gradientUnits="userSpaceOnUse"/>
</defs>
<path fill="url(#radialGradient2476)" d="m27.304,4.7421c0,1.233 0,2.4656 0,3.6986 0,.5568-.4148,3.8105 0,4.1704 .3262,.2834 2.1627,0 2.5747,0 1.9699,0 3.9398,0 5.91,0 2.545,0 7.158-.8706 8.7053,1.7706 1.2566,2.1464 .4881,6.2106 .4881,8.5432 0,2.6809 .2476,5.4907 0,8.1619 0,4.2714-4.9808,3.5751-7.8127,3.5751-3.2259,0-6.4518,0-9.6777,0-.395,0-.1877,6.8417-.1877,7.7145 0,3.0282-3.1558,4.3799-5.34,2.2021-1.9123-1.905-3.824-3.8105-5.736-5.7168-4.0693-4.0559-8.6945-7.9288-12.3793-12.3397-2.6-2.6089 .0349-5.0915 1.8701-6.929 2.5005-2.5024 5.0013-5.0055 7.5021-7.5082 2.4567-2.4596 4.914-4.9191 7.3713-7.378 1.5928-1.5944 3.6116-3.6321 5.9541-1.5992 .4785,.4151 .7577,.9979 .7577,1.6344"/>
<path fill="#5f8dd3" d="m44.9821,16.1872c0,2.7209 0,5.4417 0,8.1619 0,2.3323 .7689,6.3968-.4881,8.5419-1.5477,2.6419-6.1594,1.7709-8.7041,1.7709-1.84,0-3.6801,0-5.5194,0-.4702,0-2.598-.325-2.9662,0-.3646,.3218 0,3.1606 0,3.6449 0,1.5196 0,3.0391 0,4.5583 0,3.4715-3.8816,3.1677-5.6838,1.3711-4.812-4.7963-9.6239-9.5929-14.4362-14.3898-1.745-1.7393-5.0742-4.0264-4.2142-6.8724 .1014,.1913 1.1917,.9039 1.406,1.1178 .9806,.9784 1.9625,1.9564 2.9428,2.9342 2.725,2.7161 5.4491,5.4324 8.1735,8.1485 1.8141,1.8084 3.6276,3.6167 5.4411,5.4248 .7826,.7801 2.0821,1.4575 3.169,.8575 1.2819-.7068 .9474-2.7823 .9474-4.0117 0-1.6609 0-3.3218 0-4.9828 0-.9135 .6896-.5536 1.532-.5536 3.5812,0 7.1621,0 10.7434,0 2.6387,0 5.2796-.1634 5.2796-3.4712 0-3.4763 0-6.9533 0-10.4296 0-1.5902 .3464-3.7044-.2165-5.2431 1.5122,.4331 2.5939,1.8455 2.5939,3.4223"/>
<path fill="#80b3ff" d="m42.3876,34.4241c.8863-2.4298 .2165-5.9963 .2165-8.5115 0-2.6703 .4657-5.7887-.0553-8.4268-.5895-2.9902-5.8879-2.1324-8.0654-2.1324-3.1162,0-6.2327,0-9.3489,0-.2456,0 .102-6.9104-.2584-7.9153-1.0897-3.0356-4.1461,.0429-5.3311,1.2336-4.8836,4.9066-9.7672,9.8129-14.6502,14.7196-.3915,.3937-1.6779,1.2525-1.9251,1.7204-.9186-3.042 3.2128-5.8953 5.0541-7.7442 3.4459-3.4606 6.8919-6.9216 10.3378-10.3823 1.6664-1.6734 3.973-5.1625 6.7192-4.6345 3.5508,.6822 2.2232,7.608 2.2232,10.1769 2.985,0 5.9691-.0006 8.9542-.0006 2.9297-.0003 8.7239-.9451 8.7239,3.5758 .276,2.9787 0,6.1121 0,9.1019 0,2.8143 1.018,8.185-2.5945,9.2193"/>
<path d="m25.8414,2.3462c2.9425,1.2173 1.7514,7.1628 1.7514,9.6786 0,.624 7.4295,.2974 8.3436,.2974 2.7429,0 7.3601-.8818 8.9027,2.0901 1.1601,2.2357 .4318,6.1236 .4318,8.5128 0,2.6866 .2268,5.483 0,8.1619 0,4.4406-4.9239,3.864-7.916,3.864-3.2332,0-6.4662,0-9.6994,0-.197,0 .0627,7.5645-.1161,8.5749-.4299,2.4311-3.7974,3.2412-5.4919,1.5448-.395-.3102-.7369-.7347-1.0919-1.0887-2.1941-2.1867-4.3882-4.3741-6.5819-6.5612-2.4647-2.4567-4.9287-4.9127-7.3934-7.3697-1.2829-1.2784-3.3378-2.7439-4.1141-4.4477-1.2391-2.7215 .9582-4.5209 2.6486-6.2132 2.3866-2.3892 4.7739-4.7787 7.1609-7.1679 2.3502-2.3518 4.6994-4.7042 7.0495-7.0559 1.7067-1.7095 3.3186-3.9775 6.1163-2.8203m18.8519,28.7406c0-2.7209 0-5.4417 0-8.1619 0-2.2654 .8114-6.5426-.562-8.5745-1.5794-2.3361-6.3501-1.4508-8.7261-1.4508-1.8272,0-3.6535,0-5.4807,0-.4631,0-2.5443,.3195-2.9092,0-.3595-.3147 0-3.1328 0-3.6097 0-1.5042 0-3.0087 0-4.5129 0-2.1036-3.2336-2.8539-4.5676-1.5189-.4836,.4842-.9672,.9681-1.4508,1.4517-4.9508,4.9552-9.9015,9.9105-14.8526,14.8657-1.6385,1.6408-4.2215,3.6254-2.5098,6.2266 1.0833,1.6465 2.9281,3.0167 4.3082,4.392 4.67,4.6546 9.3396,9.3095 14.0095,13.9638 .8236,.8213 1.7121,1.3747 2.9771,1.1725 1.9321-.3093 2.086-1.9321 2.086-3.5061 0-.9688-.3752-7.4522 .3211-7.4522 3.1536,0 6.3078,0 9.4614,0 2.677,.001 7.8955,.8361 7.8955-3.2854"/>
</svg>
