<?xml version="1.0" encoding="UTF-8" standalone="no"?>
<!-- Created with Inkscape (http://www.inkscape.org/) -->
<svg
   xmlns:dc="http://purl.org/dc/elements/1.1/"
   xmlns:cc="http://creativecommons.org/ns#"
   xmlns:rdf="http://www.w3.org/1999/02/22-rdf-syntax-ns#"
   xmlns:svg="http://www.w3.org/2000/svg"
   xmlns="http://www.w3.org/2000/svg"
   xmlns:xlink="http://www.w3.org/1999/xlink"
   xmlns:sodipodi="http://sodipodi.sourceforge.net/DTD/sodipodi-0.dtd"
   xmlns:inkscape="http://www.inkscape.org/namespaces/inkscape"
   width="48"
   height="48"
   id="svg2"
   sodipodi:version="0.32"
   inkscape:version="0.46"
   version="1.0"
   sodipodi:docname="Previous.svg"
   inkscape:output_extension="org.inkscape.output.svg.inkscape">
  <defs
     id="defs4">
    <radialGradient
       cx="42.7856"
       cy="42.189"
       gradientUnits="userSpaceOnUse"
       id="XMLID_2_"
       r="69.8333">
      <stop
         id="stop6"
         offset="0"
         style="stop-color:#93aef5;stop-opacity:1;" />
      <stop
         id="stop8"
         offset="1"
         style="stop-color:#094ece;stop-opacity:1;" />
    </radialGradient>
    <inkscape:perspective
       sodipodi:type="inkscape:persp3d"
       inkscape:vp_x="0 : 526.18109 : 1"
       inkscape:vp_y="0 : 1000 : 0"
       inkscape:vp_z="744.09448 : 526.18109 : 1"
       inkscape:persp3d-origin="372.04724 : 350.78739 : 1"
       id="perspective10" />
    <inkscape:perspective
       id="perspective2390"
       inkscape:persp3d-origin="372.04724 : 350.78739 : 1"
       inkscape:vp_z="744.09448 : 526.18109 : 1"
       inkscape:vp_y="0 : 1000 : 0"
       inkscape:vp_x="0 : 526.18109 : 1"
       sodipodi:type="inkscape:persp3d" />
    <radialGradient
       r="69.833298"
       id="radialGradient2459"
       gradientUnits="userSpaceOnUse"
       cy="42.188999"
       cx="42.785599">
      <stop
         style="stop-color: rgb(209, 245, 147);"
         offset="0"
         id="stop2461" />
      <stop
         style="stop-color: rgb(129, 206, 9);"
         offset="1"
         id="stop2463" />
    </radialGradient>
    <radialGradient
       inkscape:collect="always"
       xlink:href="#XMLID_2_"
       id="radialGradient2476"
       gradientUnits="userSpaceOnUse"
       cx="42.7856"
       cy="42.189"
       r="69.8333"
       gradientTransform="matrix(-0.3198379,0,0,0.3198379,45.496726,2.0302347)" />
  </defs>
  <sodipodi:namedview
     id="base"
     pagecolor="#ffffff"
     bordercolor="#666666"
     borderopacity="1.0"
     gridtolerance="10000"
     guidetolerance="10"
     objecttolerance="10"
     inkscape:pageopacity="0.0"
     inkscape:pageshadow="2"
     inkscape:zoom="3.959798"
     inkscape:cx="0.069466138"
     inkscape:cy="22.57075"
     inkscape:document-units="px"
     inkscape:current-layer="layer1"
     showgrid="false"
     inkscape:window-width="1112"
     inkscape:window-height="776"
     inkscape:window-x="481"
     inkscape:window-y="79">
    <inkscape:grid
       type="xygrid"
       id="grid2436"
       visible="true"
       enabled="true" />
  </sodipodi:namedview>
  <metadata
     id="metadata7">
    <rdf:RDF>
      <cc:Work
         rdf:about="">
        <dc:format>image/svg+xml</dc:format>
        <dc:type
           rdf:resource="http://purl.org/dc/dcmitype/StillImage" />
      </cc:Work>
    </rdf:RDF>
  </metadata>
  <g
     inkscape:label="Layer 1"
     inkscape:groupmode="layer"
     id="layer1">
    <path
       style="fill:url(#radialGradient2476)"
       id="path10"
       d="M 27.304026,4.7421403 C 27.304026,5.9751154 27.304026,7.2077706 27.304026,8.4407457 C 27.304026,8.9975835 26.889196,12.251294 27.304026,12.611112 C 27.63026,12.894488 29.46677,12.611112 29.878721,12.611112 C 31.848603,12.611112 33.818484,12.611112 35.788686,12.611112 C 38.333636,12.611112 42.946658,11.740513 44.494034,14.381735 C 45.750677,16.528167 44.982107,20.592347 44.982107,22.924925 C 44.982107,25.605806 45.229661,28.415582 44.982107,31.086868 C 44.982107,35.358303 40.001271,34.662016 37.169426,34.662016 C 33.943541,34.662016 30.717656,34.662016 27.491771,34.662016 C 27.096771,34.662016 27.304026,41.503669 27.304026,42.376506 C 27.304026,45.404732 24.148185,46.756367 21.964012,44.57859 C 20.051701,42.673636 18.14003,40.768042 16.228039,38.861808 C 12.158742,34.805943 7.5335664,30.933026 3.8487134,26.522142 C 1.2487514,23.913224 3.8835764,21.430642 5.7188064,19.593173 C 8.2192984,17.090762 10.720111,14.58771 13.220923,12.084979 C 15.677598,9.6254253 18.134913,7.1658719 20.592227,4.7069581 C 22.18502,3.1125662 24.203837,1.0748789 26.54633,3.1077686 C 27.024807,3.5229182 27.304026,4.1056628 27.304026,4.7421403" />
    <path
       style="fill:#5f8dd3"
       id="path12"
       d="M 44.982107,16.18722 C 44.982107,18.908081 44.982107,21.628942 44.982107,24.349163 C 44.982107,26.681421 45.750997,30.745921 44.494034,32.891074 C 42.946338,35.532935 38.334596,34.662016 35.789965,34.662016 C 33.949938,34.662016 32.10991,34.662016 30.270522,34.662016 C 29.800361,34.662016 27.672479,34.337061 27.304346,34.662016 C 26.93973,34.983773 27.304346,37.822654 27.304346,38.306889 C 27.304346,39.826439 27.304346,41.345989 27.304346,42.865219 C 27.304346,46.336739 23.422793,46.032893 21.620506,44.236364 C 16.808545,39.440075 11.996584,34.643466 7.1843034,29.846537 C 5.4392674,28.107258 2.1100754,25.820098 2.9701194,22.97418 C 3.0715074,23.165443 4.1618354,23.878042 4.3761264,24.092013 C 5.3567494,25.070398 6.3386514,26.048462 7.3189554,27.026206 C 10.043974,29.74227 12.768033,32.458653 15.492412,35.174716 C 17.306533,36.98308 19.120014,38.791443 20.933495,40.599487 C 21.716138,41.379572 23.015639,42.056988 24.102448,41.456972 C 25.384359,40.750131 25.049808,38.674703 25.049808,37.445246 C 25.049808,35.784327 25.049808,34.123409 25.049808,32.462491 C 25.049808,31.549034 25.739379,31.908852 26.581832,31.908852 C 30.163057,31.908852 33.743962,31.908852 37.325187,31.908852 C 39.96385,31.908852 42.604752,31.745414 42.604752,28.437651 C 42.604752,24.961333 42.604752,21.484375 42.604752,18.008057 C 42.604752,16.417823 42.951136,14.303694 42.388221,12.764954 C 43.900415,13.198015 44.982107,14.610419 44.982107,16.18722" />
    <path
       style="fill:#80b3ff"
       id="path14"
       d="M 42.387582,34.424057 C 43.273852,31.994248 42.604112,28.427736 42.604112,25.912531 C 42.604112,23.242204 43.069796,20.123785 42.54878,17.485762 C 41.959319,14.495597 36.660884,15.353402 34.483427,15.353402 C 31.367246,15.353402 28.250746,15.353402 25.134565,15.353402 C 24.88893,15.353402 25.236594,8.4429846 24.876136,7.4380539 C 23.786449,4.4024724 20.730078,7.4809122 19.545078,8.6716687 C 14.661473,13.578302 9.7778684,18.484615 4.8949034,23.391249 C 4.5034224,23.784969 3.2170344,24.643734 2.9697994,25.111657 C 2.0512244,22.069678 6.1825714,19.216404 8.0238774,17.367422 C 11.469811,13.906775 14.915744,10.44581 18.361678,6.9851634 C 20.028033,5.3117716 22.334704,1.8226599 25.080833,2.3507123 C 28.631673,3.0329265 27.304026,9.9586964 27.304026,12.527634 C 30.289073,12.527634 33.273161,12.526995 36.258208,12.526995 C 39.187923,12.526675 44.982107,11.581874 44.982107,16.102782 C 45.258127,19.081433 44.982107,22.214885 44.982107,25.204729 C 44.982107,28.018983 46.000151,33.389701 42.387582,34.424057" />
    <path
       style="fill:#000000"
       id="path16"
       d="M 25.841407,2.3462345 C 28.783916,3.5635376 27.592839,9.5090043 27.592839,12.024849 C 27.592839,12.648853 35.022354,12.322298 35.936451,12.322298 C 38.679381,12.322298 43.296561,11.440505 44.839139,14.412439 C 45.999191,16.648106 45.27092,20.536056 45.27092,22.925245 C 45.27092,25.611883 45.497685,28.408226 45.27092,31.087188 C 45.27092,35.527817 40.347016,34.95115 37.354932,34.95115 C 34.12169,34.95115 30.888769,34.95115 27.655528,34.95115 C 27.458508,34.95115 27.718216,42.515636 27.539427,43.526004 C 27.109564,45.957092 23.741991,46.767241 22.04749,45.070821 C 21.65249,44.760578 21.310583,44.336153 20.955563,43.982093 C 18.761475,41.795361 16.567387,39.60799 14.373619,37.420938 C 11.908948,34.964263 9.4449174,32.508228 6.9802464,30.051233 C 5.6973764,28.772841 3.6424184,27.307344 2.8661714,25.603567 C 1.6271194,22.882067 3.8244064,21.082659 5.5147494,19.390396 C 7.9013794,17.001207 10.28865,14.611698 12.6756,12.222509 C 15.025769,9.870741 17.374978,7.5183332 19.725147,5.1665651 C 21.431802,3.4570316 23.043785,1.189061 25.841407,2.3462345 M 44.693293,31.086868 C 44.693293,28.366007 44.693293,25.645146 44.693293,22.924925 C 44.693293,20.659513 45.504722,16.382321 44.131338,14.350391 C 42.551978,12.014295 37.781276,12.899606 35.4052,12.899606 C 33.577966,12.899606 31.751692,12.899606 29.924458,12.899606 C 29.461332,12.899606 27.380147,13.219124 27.015212,12.899606 C 26.655714,12.584885 27.015212,9.7667937 27.015212,9.2899154 C 27.015212,7.7857177 27.015212,6.2812002 27.015212,4.7770026 C 27.015212,2.6734287 23.781651,1.923089 22.447607,3.2580924 C 21.964012,3.742327 21.480417,4.2262417 20.996822,4.7098366 C 16.046052,9.6650852 11.095281,14.620334 6.1441904,19.575582 C 4.5056604,21.216351 1.9226504,23.200945 3.6344224,25.802187 C 4.7177134,27.448712 6.5625384,28.818898 7.9426394,30.194201 C 12.612592,34.848802 17.282225,39.503722 21.952178,44.158004 C 22.775761,44.979347 23.664271,45.532667 24.929229,45.330529 C 26.86137,45.021246 27.015212,43.398389 27.015212,41.824466 C 27.015212,40.855677 26.640042,34.372243 27.336329,34.372243 C 30.489931,34.372243 33.644173,34.372243 36.797774,34.372243 C 39.474818,34.373203 44.693293,35.208299 44.693293,31.086868" />
  </g>
</svg>
