<svg width="512" xmlns="http://www.w3.org/2000/svg" height="512" xmlns:xlink="http://www.w3.org/1999/xlink">
<defs>
<linearGradient id="linearGradient4072">
<stop offset="0" stop-color="#fff"/>
<stop offset="1" stop-color="#606060"/>
</linearGradient>
<linearGradient xlink:href="#linearGradient4072" id="linearGradient4078" x1="-313.833" x2="-155.224" gradientUnits="userSpaceOnUse"/>
</defs>
<g transform="translate(0 464)">
<path fill="#c6cfff" stroke="#161a61" stroke-linejoin="round" stroke-linecap="round" stroke-width="12.786" d="m288.3875-325.6189 45.6125,45.6125-136.8377,0 0-136.8376 45.2562,46.6816c23.5633-30.984 60.7671-46.6816 101.5592-46.6816 70.0628,0 126.8599,56.7971 126.8599,126.8599 0,70.0628-56.7971,126.8599-127.3944,125.4345l.3563-68.4188c4.4494,1.4254 8.6136,.9672 12.6243,.0972 26.2968-5.7039 45.995-29.108 45.995-57.1129 0-32.2761-26.1649-58.441-58.4411-58.441-21.1086,0-45.319,6.0335-55.5903,22.8063"/>
</g>
<g stroke="#000" stroke-linejoin="round" stroke-linecap="round" transform="matrix(1.41885 0 0 1.41885 499.25238 468.27386)">
<g stroke-width="4">
<path fill="url(#linearGradient4078)" d="m-155.691-158.8661 0,141.7323c-.005,5.565-8.5033,11.0953-23.0973,15.0299-14.594,3.9346-35.1037,6.2252-55.7403,6.2252-20.6367,0-41.1463-2.2905-55.7403-6.2252-14.594-3.9346-23.0926-9.4649-23.0973-15.0299v-141.7323"/>
<g fill="none">
<path d="m-313.3662-52.5669a78.8376,21.2598 0 0,0 157.6752,0"/>
<path d="m-313.3662-88a78.8376,21.2598 0 0,0 157.6752,0"/>
<path d="m-313.3662-123.4331a78.8376,21.2598 0 0,0 157.6752,0"/>
</g>
</g>
<ellipse fill="#ccc" cx="0" cy="0" rx="20" ry="6" stroke-width="1.07" d="M 20,0 C 20,3.3137085 11.045695,6 0,6 -11.045695,6 -20,3.3137085 -20,0 c 0,-3.3137085 8.954305,-6 20,-6 11.045695,0 20,2.6862915 20,6 z" transform="matrix(3.94188 0 0 -3.54331 -234.52855 -158.86614)"/>
</g>
</svg>
