<svg xmlns="http://www.w3.org/2000/svg" viewBox="0 0 24 24"><defs><linearGradient id="0" x1="2.625" x2="21.785" gradientUnits="userSpaceOnUse"><stop style="stop-color:#e2e2e2"/><stop offset="1" style="stop-color:#fff"/></linearGradient></defs><g transform="matrix(.88404.17849-.17849.88404 186.62-909.86)" style="fill-rule:evenodd"><path d="m14.357 1030.43l7.328 6.833-11.632 12.475-7.328-6.833z" style="fill:url(#0)"/><path d="m22.332 1029.28l-8.444-.042-12.851 13.782 9.07 8.461 12.851-13.782-.631-8.418zm-.895.96c.337.314.356.843.041 1.18-.314.337-.843.356-1.18.041-.337-.314-.356-.843-.041-1.18.314-.337.843-.356 1.18-.041zm-7.081.248l7.328 6.833-11.632 12.475-7.328-6.833 11.632-12.475z" style="fill:#2eb8d4;stroke:#000;stroke-linecap:round;stroke-linejoin:round;stroke-width:.2"/></g></svg>