<?xml version="1.0" encoding="UTF-8" standalone="no"?>
<svg
   xmlns:dc="http://purl.org/dc/elements/1.1/"
   xmlns:cc="http://creativecommons.org/ns#"
   xmlns:rdf="http://www.w3.org/1999/02/22-rdf-syntax-ns#"
   xmlns:svg="http://www.w3.org/2000/svg"
   xmlns="http://www.w3.org/2000/svg"
   xmlns:sodipodi="http://sodipodi.sourceforge.net/DTD/sodipodi-0.dtd"
   xmlns:inkscape="http://www.inkscape.org/namespaces/inkscape"
   width="512"
   height="512"
   id="svg2"
   version="1.1"
   inkscape:version="0.48.2 r9819"
   sodipodi:docname="PointMarkDraw.svg">
  <metadata
     id="metadata26">
    <rdf:RDF>
      <cc:Work
         rdf:about="">
        <dc:format>image/svg+xml</dc:format>
        <dc:type
           rdf:resource="http://purl.org/dc/dcmitype/StillImage" />
        <dc:title></dc:title>
      </cc:Work>
    </rdf:RDF>
  </metadata>
  <sodipodi:namedview
     pagecolor="#ffffff"
     bordercolor="#666666"
     borderopacity="1"
     objecttolerance="10"
     gridtolerance="10"
     guidetolerance="10"
     inkscape:pageopacity="0"
     inkscape:pageshadow="2"
     inkscape:window-width="1797"
     inkscape:window-height="1187"
     id="namedview24"
     showgrid="true"
     inkscape:zoom="0.921875"
     inkscape:cx="348.20339"
     inkscape:cy="181.15254"
     inkscape:window-x="0"
     inkscape:window-y="0"
     inkscape:window-maximized="0"
     inkscape:current-layer="svg2"
     inkscape:snap-global="true">
    <inkscape:grid
       type="xygrid"
       id="grid3005"
       empspacing="8"
       visible="true"
       enabled="true"
       snapvisiblegridlinesonly="true"
       spacingx="8px"
       spacingy="8px" />
  </sodipodi:namedview>
  <defs
     id="defs4">
    <marker
       id="DistanceX"
       orient="auto"
       refX="0.0"
       refY="0.0"
       style="overflow:visible">
      <path
         d="M 3,-3 L -3,3 M 0,-5 L  0,5"
         style="stroke:#000000; stroke-width:0.5"
         id="path3090" />
    </marker>
    <pattern
       height="8"
       id="Hatch"
       patternUnits="userSpaceOnUse"
       width="8"
       x="0"
       y="0">
      <path
         d="M8 4 l-4,4"
         linecap="square"
         stroke="#000000"
         stroke-width="0.25"
         id="path3093" />
      <path
         d="M6 2 l-4,4"
         linecap="square"
         stroke="#000000"
         stroke-width="0.25"
         id="path3095" />
      <path
         d="M4 0 l-4,4"
         linecap="square"
         stroke="#000000"
         stroke-width="0.25"
         id="path3097" />
    </pattern>
    <symbol
       id="*Model_Space" />
    <symbol
       id="*Paper_Space" />
    <symbol
       id="*Paper_Space0" />
    <symbol
       id="_benchmark">
      <text
         style="font-size: 42.5px; fill: #000000; font-family: Arial"
         x="-44.549956"
         y="938.976378"
         sodipodi:linespacing="125%"
         id="text3103">
        <tspan
           sodipodi:role="line"
           id="tspan3105">Labellabel</tspan>
      </text>
      <path
         d="M 0.000000,1009.842520 L 0.000000,1052.362205 L 42.519685,1052.362205 A 42.519685,42.519685 0.0 0 0 0.000000,1094.881890 z M -0.000000,1052.362205 L -42.519685,1052.362205 A 42.519685,42.519685 0.0 0 0 0.000000,1009.842520 L -0.000000,1052.362205 z "
         style="fill:#000000"
         id="path3107" />
      <path
         d="M 42.519685,1052.362205 A 42.519685,42.519685 -0.000000 1 0 -42.519685,1052.362205 42.519685,42.519685 -0.000000 1 0 42.519685,1052.362205 z"
         style="stroke:#000000;fill:none"
         id="path3109" />
    </symbol>
  </defs>
  <text
     sodipodi:linespacing="125%"
     id="text3978"
     y="200"
     x="23.987167"
     style="font-size:233.49264526px;font-style:normal;font-variant:normal;font-weight:normal;font-stretch:normal;line-height:125%;letter-spacing:0px;word-spacing:0px;fill:#000000;fill-opacity:1;stroke:none;font-family:Arial;-inkscape-font-specification:Arial"
     xml:space="preserve"><tspan
       style="font-style:normal;font-variant:normal;font-weight:normal;font-stretch:normal;font-family:Planer;-inkscape-font-specification:Planer"
       y="200"
       x="23.987167"
       id="tspan3980"
       sodipodi:role="line">BM</tspan></text>
  <g
     id="g3200"
     transform="matrix(0.66666666,0,0,0.66666666,5.333338,189.33334)">
    <path
       inkscape:connector-curvature="0"
       id="path3162"
       d="M 256,64 C 362.03868,64 448,149.96132 448,256 L 256,256 256,64 z M 256,256 256,448 C 149.96133,448 64,362.03867 64,256 L 256,256 z"
       style="fill:#000000;stroke:#000000;stroke-width:0.0075;stroke-linecap:round;stroke-linejoin:round;stroke-miterlimit:4;stroke-opacity:1;stroke-dasharray:none;stroke-dashoffset:0" />
    <path
       transform="matrix(-0.75,0,0,0.75,448,64)"
       sodipodi:type="arc"
       style="fill:none;stroke:#000000;stroke-width:16.00000016;stroke-linecap:round;stroke-linejoin:round;stroke-miterlimit:4;stroke-opacity:1;stroke-dasharray:none;stroke-dashoffset:0"
       id="path3171"
       sodipodi:cx="256"
       sodipodi:cy="256"
       sodipodi:rx="256"
       sodipodi:ry="256"
       d="M 512,256 C 512,397.3849 397.3849,512 256,512 114.6151,512 0,397.3849 0,256 0,114.6151 114.6151,0 256,0 397.3849,0 512,114.6151 512,256 z" />
  </g>
  <path
     style="fill:#ff0000;stroke:#000000;stroke-width:11.98999977"
     inkscape:connector-curvature="0"
     d="M 498.98305,256 403.06315,160.08 403.06315,227.224 307.1431,227.224 307.1431,284.776 403.06315,284.776 403.06315,351.92 498.98305,256 z"
     id="path3336" />
</svg>
