<?xml version="1.0" encoding="UTF-8" standalone="no"?>
<svg
   xmlns:dc="http://purl.org/dc/elements/1.1/"
   xmlns:cc="http://creativecommons.org/ns#"
   xmlns:rdf="http://www.w3.org/1999/02/22-rdf-syntax-ns#"
   xmlns:svg="http://www.w3.org/2000/svg"
   xmlns="http://www.w3.org/2000/svg"
   xmlns:sodipodi="http://sodipodi.sourceforge.net/DTD/sodipodi-0.dtd"
   xmlns:inkscape="http://www.inkscape.org/namespaces/inkscape"
   width="512"
   height="512"
   id="svg2"
   version="1.1"
   inkscape:version="0.48.2 r9819"
   sodipodi:docname="PointMarkExport.svg">
  <metadata
     id="metadata26">
    <rdf:RDF>
      <cc:Work
         rdf:about="">
        <dc:format>image/svg+xml</dc:format>
        <dc:type
           rdf:resource="http://purl.org/dc/dcmitype/StillImage" />
        <dc:title />
      </cc:Work>
    </rdf:RDF>
  </metadata>
  <sodipodi:namedview
     pagecolor="#ffffff"
     bordercolor="#666666"
     borderopacity="1"
     objecttolerance="10"
     gridtolerance="10"
     guidetolerance="10"
     inkscape:pageopacity="0"
     inkscape:pageshadow="2"
     inkscape:window-width="1797"
     inkscape:window-height="1187"
     id="namedview24"
     showgrid="true"
     inkscape:zoom="0.921875"
     inkscape:cx="154.0339"
     inkscape:cy="181.15254"
     inkscape:window-x="573"
     inkscape:window-y="32"
     inkscape:window-maximized="0"
     inkscape:current-layer="g3200"
     inkscape:snap-global="true">
    <inkscape:grid
       type="xygrid"
       id="grid3005"
       empspacing="8"
       visible="true"
       enabled="true"
       snapvisiblegridlinesonly="true"
       spacingx="8px"
       spacingy="8px" />
  </sodipodi:namedview>
  <defs
     id="defs4">
    <marker
       id="DistanceX"
       orient="auto"
       refX="0.0"
       refY="0.0"
       style="overflow:visible">
      <path
         d="M 3,-3 L -3,3 M 0,-5 L  0,5"
         style="stroke:#000000; stroke-width:0.5"
         id="path3090" />
    </marker>
    <pattern
       height="8"
       id="Hatch"
       patternUnits="userSpaceOnUse"
       width="8"
       x="0"
       y="0">
      <path
         d="M8 4 l-4,4"
         linecap="square"
         stroke="#000000"
         stroke-width="0.25"
         id="path3093" />
      <path
         d="M6 2 l-4,4"
         linecap="square"
         stroke="#000000"
         stroke-width="0.25"
         id="path3095" />
      <path
         d="M4 0 l-4,4"
         linecap="square"
         stroke="#000000"
         stroke-width="0.25"
         id="path3097" />
    </pattern>
    <symbol
       id="*Model_Space" />
    <symbol
       id="*Paper_Space" />
    <symbol
       id="*Paper_Space0" />
    <symbol
       id="_benchmark">
      <text
         style="font-size: 42.5px; fill: #000000; font-family: Arial"
         x="-44.549956"
         y="938.976378"
         sodipodi:linespacing="125%"
         id="text3103">
        <tspan
           sodipodi:role="line"
           id="tspan3105">Labellabel</tspan>
      </text>
      <path
         d="M 0.000000,1009.842520 L 0.000000,1052.362205 L 42.519685,1052.362205 A 42.519685,42.519685 0.0 0 0 0.000000,1094.881890 z M -0.000000,1052.362205 L -42.519685,1052.362205 A 42.519685,42.519685 0.0 0 0 0.000000,1009.842520 L -0.000000,1052.362205 z "
         style="fill:#000000"
         id="path3107" />
      <path
         d="M 42.519685,1052.362205 A 42.519685,42.519685 -0.000000 1 0 -42.519685,1052.362205 42.519685,42.519685 -0.000000 1 0 42.519685,1052.362205 z"
         style="stroke:#000000;fill:none"
         id="path3109" />
    </symbol>
  </defs>
  <g
     style="font-size:233.49264526px;font-style:normal;font-variant:normal;font-weight:normal;font-stretch:normal;line-height:125%;letter-spacing:0px;word-spacing:0px;fill:#000000;fill-opacity:1;stroke:none;font-family:Arial;-inkscape-font-specification:Arial"
     id="text3978">
    <path
       d="M 147.73827,154.93592 C 147.73827,137.1905 137.46458,122.01345 122.75456,114.3082 134.66267,106.60295 141.43397,94.461309 141.43397,79.284302 141.43397,55.701569 122.28755,36.555148 98.704814,36.555148 L 46.168969,36.555148 C 40.098166,36.555148 35.6618,40.991515 35.6618,47.062317 L 35.6618,189.49283 C 35.6618,195.56363 40.098166,200 46.168969,200 L 102.4407,200 C 127.65788,200 147.73827,179.91961 147.73827,154.93592 M 102.4407,121.77996 C 120.41961,121.77996 135.59665,136.72351 135.59665,154.93592 135.59665,172.91484 120.41961,187.85838 102.4407,187.85838 L 48.270402,187.85838 48.270402,121.77996 102.4407,121.77996 M 48.270402,109.40485 48.270402,48.930259 98.704814,48.930259 C 115.51627,48.930259 129.05886,62.472849 129.05886,79.284302 129.05886,95.862264 115.51627,109.40485 98.704814,109.40485 L 48.270402,109.40485"
       style="font-family:Planer;-inkscape-font-specification:Planer"
       id="path3032" />
    <path
       d="M 171.10577,193.6957 C 171.10577,197.19808 173.90768,200 177.41007,200 181.14595,200 183.71437,197.19808 183.71437,193.6957 L 183.71437,53.366619 C 183.71437,51.031695 185.58232,49.163751 187.91724,49.163751 189.55169,49.163751 191.18614,50.564709 191.65312,52.199156 L 233.91529,193.92919 C 235.08275,197.43158 237.88467,200 242.32103,200 246.52389,200 249.32581,197.43158 250.49327,193.92919 265.43678,146.76372 280.84733,99.13113 296.02433,51.965663 296.25783,50.331216 297.65878,49.163751 299.52672,49.163751 301.86165,49.163751 303.72959,51.031695 303.72959,53.366619 L 303.72959,193.6957 C 303.72959,197.19808 306.29801,200 310.03389,200 313.53628,200 316.33819,197.19808 316.33819,193.6957 L 316.33819,53.366619 C 316.33819,44.260415 308.63293,36.555148 299.52672,36.555148 292.28846,36.555148 285.51716,41.225008 283.41573,47.762795 269.87317,90.725399 255.86359,133.92162 242.32103,177.35121 L 204.02823,48.229781 C 201.9268,41.225008 195.389,36.555148 187.91724,36.555148 178.81104,36.555148 171.10577,44.260415 171.10577,53.366619 L 171.10577,193.6957"
       style="font-family:Planer;-inkscape-font-specification:Planer"
       id="path3034" />
  </g>
  <g
     id="g3200"
     transform="matrix(0.66666666,0,0,0.66666666,5.333338,189.33334)">
    <path
       transform="matrix(-0.75,0,0,0.75,448,64)"
       sodipodi:type="arc"
       style="fill:#ffffff;stroke:#000000;stroke-width:16.00000015999999903;stroke-linecap:round;stroke-linejoin:round;stroke-miterlimit:4;stroke-opacity:1;stroke-dasharray:none;stroke-dashoffset:0"
       id="path3171"
       sodipodi:cx="256"
       sodipodi:cy="256"
       sodipodi:rx="256"
       sodipodi:ry="256"
       d="M 512,256 C 512,397.3849 397.3849,512 256,512 114.6151,512 0,397.3849 0,256 0,114.6151 114.6151,0 256,0 397.3849,0 512,114.6151 512,256 z" />
    <path
       inkscape:connector-curvature="0"
       id="path3162"
       d="M 256,64 C 362.03868,64 448,149.96132 448,256 L 256,256 256,64 z M 256,256 256,448 C 149.96133,448 64,362.03867 64,256 L 256,256 z"
       style="fill:#000000;stroke:#000000;stroke-width:0.0075;stroke-linecap:round;stroke-linejoin:round;stroke-miterlimit:4;stroke-opacity:1;stroke-dasharray:none;stroke-dashoffset:0" />
  </g>
  <path
     style="fill:#ff0000;stroke:#000000;stroke-width:11.98999977"
     inkscape:connector-curvature="0"
     d="M 498.98305,256 403.06315,160.08 403.06315,227.224 307.1431,227.224 307.1431,284.776 403.06315,284.776 403.06315,351.92 498.98305,256 z"
     id="path3336" />
</svg>
