<?xml version="1.0" encoding="UTF-8" standalone="no"?>
<svg
   xmlns:dc="http://purl.org/dc/elements/1.1/"
   xmlns:cc="http://creativecommons.org/ns#"
   xmlns:rdf="http://www.w3.org/1999/02/22-rdf-syntax-ns#"
   xmlns:svg="http://www.w3.org/2000/svg"
   xmlns="http://www.w3.org/2000/svg"
   xmlns:sodipodi="http://sodipodi.sourceforge.net/DTD/sodipodi-0.dtd"
   xmlns:inkscape="http://www.inkscape.org/namespaces/inkscape"
   width="512"
   height="512"
   viewBox="2.9501244 -26.049876 144.49779 144.49778"
   style="fill:none;stroke-linecap:round;stroke-linejoin:round"
   version="1.1"
   id="svg10"
   sodipodi:docname="Cross.svg"
   inkscape:version="0.92.2 5c3e80d, 2017-08-06">
  <metadata
     id="metadata16">
    <rdf:RDF>
      <cc:Work
         rdf:about="">
        <dc:format>image/svg+xml</dc:format>
        <dc:type
           rdf:resource="http://purl.org/dc/dcmitype/StillImage" />
      </cc:Work>
    </rdf:RDF>
  </metadata>
  <defs
     id="defs14" />
  <sodipodi:namedview
     pagecolor="#ffffff"
     bordercolor="#666666"
     borderopacity="1"
     objecttolerance="10"
     gridtolerance="10"
     guidetolerance="10"
     inkscape:pageopacity="0"
     inkscape:pageshadow="2"
     inkscape:window-width="1842"
     inkscape:window-height="1135"
     id="namedview12"
     showgrid="false"
     inkscape:zoom="0.4609375"
     inkscape:cx="256"
     inkscape:cy="256"
     inkscape:window-x="0"
     inkscape:window-y="0"
     inkscape:window-maximized="0"
     inkscape:current-layer="g8" />
  <circle
     r="10.05"
     cy="14"
     cx="15"
     transform="matrix(5.57961 0 0-5.57961-8.495 124.31)"
     style="stroke:#000;stroke-width:.809"
     id="circle2" />
  <g
     style="stroke:#f00;stroke-width:2.258"
     id="g8">
    <path
       d="m7.965 46.2h8.648m8.3 0h.139m8.3 0h16.739m8.3 0h.139m8.3 0h16.739m8.3 0h.139m8.3 0h16.739m8.3 0h.139m8.3 0h8.648"
       id="path4"
       style="stroke-width:4.51555578;stroke-miterlimit:4;stroke-dasharray:none" />
    <path
       d="m75.2 113.43v-8.648m0-8.3v-.139m0-8.3v-16.739m0-8.3v-.139m0-8.3v-16.739m0-8.3v-.139m0-8.3v-16.739m0-8.3v-.139m0-8.3v-8.648"
       id="path6"
       style="stroke-width:4.51555578;stroke-miterlimit:4;stroke-dasharray:none" />
  </g>
</svg>
