<svg xmlns="http://www.w3.org/2000/svg" width="512" height="512" viewBox="2.9501244 -26.049876 144.49779 144.49778" style="fill:none;stroke-linecap:round;stroke-linejoin:round"><circle r="10.05" cy="14" cx="15" transform="matrix(5.57961 0 0-5.57961-8.495 124.31)" style="stroke:#000;stroke-width:.809"/><g style="stroke:#f00;stroke-width:2.258"><path d="m7.965 46.2h8.648m8.3 0h.139m8.3 0h16.739m8.3 0h.139m8.3 0h16.739m8.3 0h.139m8.3 0h16.739m8.3 0h.139m8.3 0h8.648"/><path d="m75.2 113.43v-8.648m0-8.3v-.139m0-8.3v-16.739m0-8.3v-.139m0-8.3v-16.739m0-8.3v-.139m0-8.3v-16.739m0-8.3v-.139m0-8.3v-8.648"/></g></svg>