<?xml version="1.0" encoding="UTF-8" standalone="no"?>
<!-- 2013-12-12 22:49:47 Generated by QCAD SVG Exporter -->

<svg
   xmlns:dc="http://purl.org/dc/elements/1.1/"
   xmlns:cc="http://creativecommons.org/ns#"
   xmlns:rdf="http://www.w3.org/1999/02/22-rdf-syntax-ns#"
   xmlns:svg="http://www.w3.org/2000/svg"
   xmlns="http://www.w3.org/2000/svg"
   xmlns:sodipodi="http://sodipodi.sourceforge.net/DTD/sodipodi-0.dtd"
   xmlns:inkscape="http://www.inkscape.org/namespaces/inkscape"
   width="512"
   height="512"
   viewBox="2.9501244 -26.049876 144.49779 144.49778"
   version="1.1"
   style="fill:none;stroke-linecap:round;stroke-linejoin:round"
   id="svg2"
   inkscape:version="0.48.2 r9819"
   sodipodi:docname="Cross.svg">
  <metadata
     id="metadata16">
    <rdf:RDF>
      <cc:Work
         rdf:about="">
        <dc:format>image/svg+xml</dc:format>
        <dc:type
           rdf:resource="http://purl.org/dc/dcmitype/StillImage" />
      </cc:Work>
    </rdf:RDF>
  </metadata>
  <defs
     id="defs14" />
  <sodipodi:namedview
     pagecolor="#ffffff"
     bordercolor="#666666"
     borderopacity="1"
     objecttolerance="10"
     gridtolerance="10"
     guidetolerance="10"
     inkscape:pageopacity="0"
     inkscape:pageshadow="2"
     inkscape:window-width="1600"
     inkscape:window-height="1093"
     id="namedview12"
     showgrid="false"
     inkscape:zoom="0.69092464"
     inkscape:cx="-26.413879"
     inkscape:cy="177.66047"
     inkscape:window-x="510"
     inkscape:window-y="91"
     inkscape:window-maximized="0"
     inkscape:current-layer="svg2" />
  <circle
     sodipodi:ry="10.049875"
     sodipodi:rx="10.049875"
     sodipodi:cy="14"
     sodipodi:cx="15"
     d="M 25.049875,14 C 25.049875,19.550393 20.550393,24.049875 15,24.049875 9.4496072,24.049875 4.9501247,19.550393 4.9501247,14 4.9501247,8.4496072 9.4496072,3.9501247 15,3.9501247 20.550393,3.9501247 25.049875,8.4496072 25.049875,14 z"
     id="circle6"
     style="stroke:#000000;stroke-width:0.8092957;stroke-miterlimit:4;stroke-dasharray:none"
     r="10.049875"
     cy="14"
     cx="15"
     transform="matrix(5.5796119,0,0,-5.5796119,-8.4951602,124.31358)" />
  <path
     inkscape:connector-curvature="0"
     id="path8"
     style="stroke:#ff0000;stroke-width:2.25777797;stroke-miterlimit:4;stroke-dasharray:none"
     d="M 7.965389,46.199013 16.613093,46.199013 M 24.912766,46.199013 25.052256,46.199013 M 33.351929,46.199013 50.090765,46.199013 M 58.390437,46.199013 58.529928,46.199013 M 66.8296,46.199013 83.568436,46.199013 M 91.868109,46.199013 92.007599,46.199013 M 100.30727,46.199013 117.04611,46.199013 M 125.34578,46.199013 125.48527,46.199013 M 133.78494,46.199013 142.43265,46.199013" />
  <path
     inkscape:connector-curvature="0"
     id="path10"
     style="stroke:#ff0000;stroke-width:2.25777797;stroke-miterlimit:4;stroke-dasharray:none"
     d="M 75.199018,113.43264 75.199018,104.78494 M 75.199018,96.485266 75.199018,96.345775 M 75.199018,88.046103 75.199018,71.307267 M 75.199018,63.007594 75.199018,62.868104 M 75.199018,54.568431 75.199018,37.829596 M 75.199018,29.529923 75.199018,29.390433 M 75.199018,21.09076 75.199018,4.3519242 M 75.199018,-3.9477486 75.199018,-4.0872388 M 75.199018,-12.386912 75.199018,-21.034618" />
</svg>
