999
dxflib 3.12.2.0
  0
SECTION
  2
HEADER
  9
$ACADVER
  1
AC1015
  9
$HANDSEED
  5
FFFF
  9
$DIMADEC
 70
0
  9
$DIMASZ
 40
2.5
  9
$DIMAUNIT
 70
0
  9
$DIMAZIN
 70
2
  9
$DIMDEC
 70
4
  9
$DIMEXE
 40
1.25
  9
$DIMEXO
 40
0.625
  9
$DIMGAP
 40
0.625
  9
$DIMLUNIT
 70
2
  9
$DIMSCALE
 40
1.0
  9
$DIMTSZ
 40
0.0
  9
$DIMTXT
 40
2.5
  9
$DIMZIN
 70
8
  9
$DWGCODEPAGE
  3
ANSI_1252
  9
$INSUNITS
 70
4
  9
$LTSCALE
 40
1.0
  9
$MEASUREMENT
 70
1
  9
$PDMODE
 70
0
  9
$PDSIZE
 40
0
  0
ENDSEC
  0
SECTION
  2
TABLES
  0
TABLE
  2
VPORT
  5
8
100
AcDbSymbolTable
 70
1
  0
VPORT
  5
30
100
AcDbSymbolTableRecord
100
AcDbViewportTableRecord
  2
*Active
 70
0
 10
0.0
 20
0.0
 11
1.0
 21
1.0
 12
286.3055555555554861
 22
148.5
 13
0.0
 23
0.0
 14
10.0
 24
10.0
 15
10.0
 25
10.0
 16
0.0
 26
0.0
 36
1.0
 17
0.0
 27
0.0
 37
0.0
 40
297.0
 41
1.92798353909465
 42
50.0
 43
0.0
 44
0.0
 50
0.0
 51
0.0
 71
0
 72
100
 73
1
 74
3
 75
1
 76
1
 77
0
 78
0
281
0
 65
1
110
0.0
120
0.0
130
0.0
111
1.0
121
0.0
131
0.0
112
0.0
122
1.0
132
0.0
 79
0
146
0.0
  0
ENDTAB
  0
TABLE
  2
LTYPE
  5
5
100
AcDbSymbolTable
 70
41
  0
LTYPE
  5
16
100
AcDbSymbolTableRecord
100
AcDbLinetypeTableRecord
  2
Continuous
 70
0
  3
Solid line
 72
65
 73
0
 40
0.0
  0
LTYPE
  5
31
100
AcDbSymbolTableRecord
100
AcDbLinetypeTableRecord
  2
ACAD_ISO15W100
 70
0
  3
ISO double-dash triple-dot __ __ . . . __ __ . .
 72
65
 73
10
 40
39.0000000000000071
 49
12.0
 74
0
 49
-3.0
 74
0
 49
12.0
 74
0
 49
-2.9500000000000002
 74
0
 49
0.1
 74
0
 49
-2.9000000000000004
 74
0
 49
0.1
 74
0
 49
-2.9000000000000004
 74
0
 49
0.1
 74
0
 49
-2.9500000000000002
 74
0
  0
LTYPE
  5
32
100
AcDbSymbolTableRecord
100
AcDbLinetypeTableRecord
  2
DIVIDE
 70
0
  3
Divide ____ . . ____ . . ____ . . ____ . . ____
 72
65
 73
6
 40
31.7500000000000036
 49
12.6999999999999993
 74
0
 49
-6.2999999999999998
 74
0
 49
0.1
 74
0
 49
-6.25
 74
0
 49
0.1
 74
0
 49
-6.2999999999999998
 74
0
  0
LTYPE
  5
33
100
AcDbSymbolTableRecord
100
AcDbLinetypeTableRecord
  2
ACAD_ISO10W100
 70
0
  3
ISO dash dot __ . __ . __ . __ . __ . __ . __ . 
 72
65
 73
4
 40
18.0
 49
12.0
 74
0
 49
-2.9500000000000002
 74
0
 49
0.1
 74
0
 49
-2.9500000000000002
 74
0
  0
LTYPE
  5
34
100
AcDbSymbolTableRecord
100
AcDbLinetypeTableRecord
  2
ACAD_ISO04W100
 70
0
  3
ISO long-dash dot ____ . ____ . ____ . ____ . _
 72
65
 73
4
 40
30.0
 49
24.0
 74
0
 49
-2.9500000000000002
 74
0
 49
0.1
 74
0
 49
-2.9500000000000002
 74
0
  0
LTYPE
  5
35
100
AcDbSymbolTableRecord
100
AcDbLinetypeTableRecord
  2
CENTER2
 70
0
  3
Center (.5x) ___ _ ___ _ ___ _ ___ _ ___ _ ___
 72
65
 73
4
 40
28.5750000000000028
 49
19.0500000000000007
 74
0
 49
-3.1749999999999998
 74
0
 49
3.1749999999999998
 74
0
 49
-3.1749999999999998
 74
0
  0
LTYPE
  5
36
100
AcDbSymbolTableRecord
100
AcDbLinetypeTableRecord
  2
ACAD_ISO11W100
 70
0
  3
ISO double-dash dot __ __ . __ __ . __ __ . __ _
 72
65
 73
6
 40
33.0
 49
12.0
 74
0
 49
-3.0
 74
0
 49
12.0
 74
0
 49
-2.9500000000000002
 74
0
 49
0.1
 74
0
 49
-2.9500000000000002
 74
0
  0
LTYPE
  5
37
100
AcDbSymbolTableRecord
100
AcDbLinetypeTableRecord
  2
HIDDEN2
 70
0
  3
Hidden (.5x) _ _ _ _ _ _ _ _ _ _ _ _ _ _ _ _ _ 
 72
65
 73
2
 40
4.7624999999999993
 49
3.1749999999999998
 74
0
 49
-1.5874999999999999
 74
0
  0
LTYPE
  5
38
100
AcDbSymbolTableRecord
100
AcDbLinetypeTableRecord
  2
BORDERX2
 70
0
  3
Border (2x) ____  ____  .  ____  ____  .  ___
 72
65
 73
6
 40
88.8999999999999773
 49
25.3999999999999986
 74
0
 49
-12.6999999999999993
 74
0
 49
25.3999999999999986
 74
0
 49
-12.6499999999999986
 74
0
 49
0.1
 74
0
 49
-12.6499999999999986
 74
0
  0
LTYPE
  5
39
100
AcDbSymbolTableRecord
100
AcDbLinetypeTableRecord
  2
ACAD_ISO05W100
 70
0
  3
ISO long-dash double-dot ____ .. ____ .. ____ . 
 72
65
 73
6
 40
33.0000000000000071
 49
24.0
 74
0
 49
-2.9500000000000002
 74
0
 49
0.1
 74
0
 49
-2.9000000000000004
 74
0
 49
0.1
 74
0
 49
-2.9500000000000002
 74
0
  0
LTYPE
  5
3A
100
AcDbSymbolTableRecord
100
AcDbLinetypeTableRecord
  2
DASHDOTX2
 70
0
  3
Dash dot (2x) ____  .  ____  .  ____  .  ___
 72
65
 73
4
 40
50.7999999999999972
 49
25.3999999999999986
 74
0
 49
-12.6499999999999986
 74
0
 49
0.1
 74
0
 49
-12.6499999999999986
 74
0
  0
LTYPE
  5
3B
100
AcDbSymbolTableRecord
100
AcDbLinetypeTableRecord
  2
HIDDENX2
 70
0
  3
Hidden (2x) ____ ____ ____ ____ ____ ____ ____ 
 72
65
 73
2
 40
19.0499999999999972
 49
12.6999999999999993
 74
0
 49
-6.3499999999999996
 74
0
  0
LTYPE
  5
3C
100
AcDbSymbolTableRecord
100
AcDbLinetypeTableRecord
  2
CENTERX2
 70
0
  3
Center (2x) ________  __  ________  __  _____
 72
65
 73
4
 40
101.6000000000000085
 49
63.5
 74
0
 49
-12.6999999999999993
 74
0
 49
12.6999999999999993
 74
0
 49
-12.6999999999999993
 74
0
  0
LTYPE
  5
3D
100
AcDbSymbolTableRecord
100
AcDbLinetypeTableRecord
  2
BORDER2
 70
0
  3
Border (.5x) __.__.__.__.__.__.__.__.__.__.__.
 72
65
 73
6
 40
22.2250000000000014
 49
6.3499999999999996
 74
0
 49
-3.1749999999999998
 74
0
 49
6.3499999999999996
 74
0
 49
-3.125
 74
0
 49
0.1
 74
0
 49
-3.125
 74
0
  0
LTYPE
  5
3E
100
AcDbSymbolTableRecord
100
AcDbLinetypeTableRecord
  2
DASHDOT2
 70
0
  3
Dash dot (.5x) _._._._._._._._._._._._._._._.
 72
65
 73
4
 40
12.6999999999999993
 49
6.3499999999999996
 74
0
 49
-3.125
 74
0
 49
0.1
 74
0
 49
-3.125
 74
0
  0
LTYPE
  5
3F
100
AcDbSymbolTableRecord
100
AcDbLinetypeTableRecord
  2
ACAD_ISO12W100
 70
0
  3
ISO dash double-dot __ . . __ . . __ . . __ . . 
 72
65
 73
6
 40
21.0
 49
12.0
 74
0
 49
-2.9500000000000002
 74
0
 49
0.1
 74
0
 49
-2.9000000000000004
 74
0
 49
0.1
 74
0
 49
-2.9500000000000002
 74
0
  0
LTYPE
  5
40
100
AcDbSymbolTableRecord
100
AcDbLinetypeTableRecord
  2
ACAD_ISO07W100
 70
0
  3
ISO dot . . . . . . . . . . . . . . . . . . . . 
 72
65
 73
2
 40
3.0
 49
0.1
 74
0
 49
-2.8999999999999999
 74
0
  0
LTYPE
  5
41
100
AcDbSymbolTableRecord
100
AcDbLinetypeTableRecord
  2
HIDDEN
 70
0
  3
Hidden __ __ __ __ __ __ __ __ __ __ __ __ __ __
 72
65
 73
2
 40
9.5249999999999986
 49
6.3499999999999996
 74
0
 49
-3.1749999999999998
 74
0
  0
LTYPE
  5
42
100
AcDbSymbolTableRecord
100
AcDbLinetypeTableRecord
  2
ACAD_ISO06W100
 70
0
  3
ISO long-dash triple-dot ____ ... ____ ... ____
 72
65
 73
8
 40
36.0000000000000071
 49
24.0
 74
0
 49
-2.9500000000000002
 74
0
 49
0.1
 74
0
 49
-2.9000000000000004
 74
0
 49
0.1
 74
0
 49
-2.9000000000000004
 74
0
 49
0.1
 74
0
 49
-2.9500000000000002
 74
0
  0
LTYPE
  5
43
100
AcDbSymbolTableRecord
100
AcDbLinetypeTableRecord
  2
CENTER
 70
0
  3
Center ____ _ ____ _ ____ _ ____ _ ____ _ ____
 72
65
 73
4
 40
50.8000000000000043
 49
31.75
 74
0
 49
-6.3499999999999996
 74
0
 49
6.3499999999999996
 74
0
 49
-6.3499999999999996
 74
0
  0
LTYPE
  5
44
100
AcDbSymbolTableRecord
100
AcDbLinetypeTableRecord
  2
DOTX2
 70
0
  3
Dot (2x) .  .  .  .  .  .  .  .  .  .  .  .  .  .
 72
65
 73
2
 40
12.6999999999999993
 49
0.1
 74
0
 49
-12.5999999999999996
 74
0
  0
LTYPE
  5
45
100
AcDbSymbolTableRecord
100
AcDbLinetypeTableRecord
  2
PHANTOM
 70
0
  3
Phantom ______  __  __  ______  __  __  ______ 
 72
65
 73
6
 40
63.5000000000000071
 49
31.75
 74
0
 49
-6.3499999999999996
 74
0
 49
6.3499999999999996
 74
0
 49
-6.3499999999999996
 74
0
 49
6.3499999999999996
 74
0
 49
-6.3499999999999996
 74
0
  0
LTYPE
  5
46
100
AcDbSymbolTableRecord
100
AcDbLinetypeTableRecord
  2
ACAD_ISO08W100
 70
0
  3
ISO long-dash short-dash ____ __ ____ __ ____ _
 72
65
 73
4
 40
36.0
 49
24.0
 74
0
 49
-3.0
 74
0
 49
6.0
 74
0
 49
-3.0
 74
0
  0
LTYPE
  5
47
100
AcDbSymbolTableRecord
100
AcDbLinetypeTableRecord
  2
DASHEDX2
 70
0
  3
Dashed (2x) ____  ____  ____  ____  ____  ___
 72
65
 73
2
 40
38.0999999999999943
 49
25.3999999999999986
 74
0
 49
-12.6999999999999993
 74
0
  0
LTYPE
  5
48
100
AcDbSymbolTableRecord
100
AcDbLinetypeTableRecord
  2
ACAD_ISO02W100
 70
0
  3
ISO dash __ __ __ __ __ __ __ __ __ __ __ __ __
 72
65
 73
2
 40
15.0
 49
12.0
 74
0
 49
-3.0
 74
0
  0
LTYPE
  5
49
100
AcDbSymbolTableRecord
100
AcDbLinetypeTableRecord
  2
PHANTOM2
 70
0
  3
Phantom (.5x) ___ _ _ ___ _ _ ___ _ _ ___ _ _
 72
65
 73
6
 40
31.7500000000000036
 49
15.875
 74
0
 49
-3.1749999999999998
 74
0
 49
3.1749999999999998
 74
0
 49
-3.1749999999999998
 74
0
 49
3.1749999999999998
 74
0
 49
-3.1749999999999998
 74
0
  0
LTYPE
  5
4A
100
AcDbSymbolTableRecord
100
AcDbLinetypeTableRecord
  2
DASHED2
 70
0
  3
Dashed (.5x) _ _ _ _ _ _ _ _ _ _ _ _ _ _ _ _ _ 
 72
65
 73
2
 40
9.5249999999999986
 49
6.3499999999999996
 74
0
 49
-3.1749999999999998
 74
0
  0
LTYPE
  5
4B
100
AcDbSymbolTableRecord
100
AcDbLinetypeTableRecord
  2
ACAD_ISO09W100
 70
0
  3
ISO long-dash double-short-dash ____ __ __ ____
 72
65
 73
6
 40
45.0
 49
24.0
 74
0
 49
-3.0
 74
0
 49
6.0
 74
0
 49
-3.0
 74
0
 49
6.0
 74
0
 49
-3.0
 74
0
  0
LTYPE
  5
4C
100
AcDbSymbolTableRecord
100
AcDbLinetypeTableRecord
  2
ACAD_ISO13W100
 70
0
  3
ISO double-dash double-dot __ __ . . __ __ . . _
 72
65
 73
8
 40
36.0000000000000071
 49
12.0
 74
0
 49
-3.0
 74
0
 49
12.0
 74
0
 49
-2.9500000000000002
 74
0
 49
0.1
 74
0
 49
-2.9000000000000004
 74
0
 49
0.1
 74
0
 49
-2.9500000000000002
 74
0
  0
LTYPE
  5
4D
100
AcDbSymbolTableRecord
100
AcDbLinetypeTableRecord
  2
DOT2
 70
0
  3
Dot (.5x) ........................................
 72
65
 73
2
 40
3.1749999999999998
 49
0.1
 74
0
 49
-3.0749999999999997
 74
0
  0
LTYPE
  5
4E
100
AcDbSymbolTableRecord
100
AcDbLinetypeTableRecord
  2
DASHED
 70
0
  3
Dashed __ __ __ __ __ __ __ __ __ __ __ __ __ _
 72
65
 73
2
 40
19.0499999999999972
 49
12.6999999999999993
 74
0
 49
-6.3499999999999996
 74
0
  0
LTYPE
  5
4F
100
AcDbSymbolTableRecord
100
AcDbLinetypeTableRecord
  2
ACAD_ISO14W100
 70
0
  3
ISO dash triple-dot __ . . . __ . . . __ . . . _
 72
65
 73
8
 40
24.0000000000000036
 49
12.0
 74
0
 49
-2.9500000000000002
 74
0
 49
0.1
 74
0
 49
-2.9000000000000004
 74
0
 49
0.1
 74
0
 49
-2.9000000000000004
 74
0
 49
0.1
 74
0
 49
-2.9500000000000002
 74
0
  0
LTYPE
  5
15
100
AcDbSymbolTableRecord
100
AcDbLinetypeTableRecord
  2
BYLAYER
 70
0
  3

 72
65
 73
0
 40
0.0
  0
LTYPE
  5
50
100
AcDbSymbolTableRecord
100
AcDbLinetypeTableRecord
  2
PHANTOMX2
 70
0
  3
Phantom (2x) ____________    ____    ____   _
 72
65
 73
6
 40
127.0000000000000142
 49
63.5
 74
0
 49
-12.6999999999999993
 74
0
 49
12.6999999999999993
 74
0
 49
-12.6999999999999993
 74
0
 49
12.6999999999999993
 74
0
 49
-12.6999999999999993
 74
0
  0
LTYPE
  5
14
100
AcDbSymbolTableRecord
100
AcDbLinetypeTableRecord
  2
BYBLOCK
 70
0
  3

 72
65
 73
0
 40
0.0
  0
LTYPE
  5
51
100
AcDbSymbolTableRecord
100
AcDbLinetypeTableRecord
  2
DIVIDEX2
 70
0
  3
Divide (2x) ________  .  .  ________  .  .  _
 72
65
 73
6
 40
63.5
 49
25.3999999999999986
 74
0
 49
-12.6499999999999986
 74
0
 49
0.1
 74
0
 49
-12.5999999999999979
 74
0
 49
0.1
 74
0
 49
-12.6499999999999986
 74
0
  0
LTYPE
  5
52
100
AcDbSymbolTableRecord
100
AcDbLinetypeTableRecord
  2
BORDER
 70
0
  3
Border __ __ . __ __ . __ __ . __ __ . __ __ .
 72
65
 73
6
 40
44.4499999999999957
 49
12.6999999999999993
 74
0
 49
-6.3499999999999996
 74
0
 49
12.6999999999999993
 74
0
 49
-6.2999999999999998
 74
0
 49
0.1
 74
0
 49
-6.2999999999999998
 74
0
  0
LTYPE
  5
53
100
AcDbSymbolTableRecord
100
AcDbLinetypeTableRecord
  2
DIVIDE2
 70
0
  3
Divide (.5x) __..__..__..__..__..__..__..__.._
 72
65
 73
6
 40
15.8749999999999982
 49
6.3499999999999996
 74
0
 49
-3.125
 74
0
 49
0.1
 74
0
 49
-3.0750000000000002
 74
0
 49
0.1
 74
0
 49
-3.125
 74
0
  0
LTYPE
  5
54
100
AcDbSymbolTableRecord
100
AcDbLinetypeTableRecord
  2
DOT
 70
0
  3
Dot . . . . . . . . . . . . . . . . . . . . . . . .
 72
65
 73
2
 40
6.3499999999999996
 49
0.1
 74
0
 49
-6.25
 74
0
  0
LTYPE
  5
55
100
AcDbSymbolTableRecord
100
AcDbLinetypeTableRecord
  2
DASHDOT
 70
0
  3
Dash dot __ . __ . __ . __ . __ . __ . __ . __
 72
65
 73
4
 40
25.4000000000000021
 49
12.6999999999999993
 74
0
 49
-6.2999999999999998
 74
0
 49
0.1
 74
0
 49
-6.2999999999999998
 74
0
  0
LTYPE
  5
56
100
AcDbSymbolTableRecord
100
AcDbLinetypeTableRecord
  2
ACAD_ISO03W100
 70
0
  3
ISO dash space __    __    __    __    __    __
 72
65
 73
2
 40
30.0
 49
12.0
 74
0
 49
-18.0
 74
0
  0
ENDTAB
  0
TABLE
  2
LAYER
  5
2
100
AcDbSymbolTable
 70
4
  0
LAYER
  5
57
100
AcDbSymbolTableRecord
100
AcDbLayerTableRecord
  2
Obroba_risbe
 70
0
 62
7
420
0
  6
Continuous
370
40
390
F
  0
LAYER
  5
58
100
AcDbSymbolTableRecord
100
AcDbLayerTableRecord
  2
Opis_noge
 70
0
 62
252
420
10526884
  6
Continuous
370
25
390
F
  0
LAYER
  5
59
100
AcDbSymbolTableRecord
100
AcDbLayerTableRecord
  2
0. Besedilo_noge
 70
0
 62
174
420
128
  6
Continuous
370
25
390
F
  0
LAYER
  5
10
100
AcDbSymbolTableRecord
100
AcDbLayerTableRecord
  2
0
 70
0
 62
7
420
16777215
  6
Continuous
370
25
390
F
  0
ENDTAB
  0
TABLE
  2
STYLE
  5
3
100
AcDbSymbolTable
 70
18
  0
STYLE
  5
5A
100
AcDbSymbolTableRecord
100
AcDbTextStyleTableRecord
  2
Standard
 70
0
 40
0.0
 41
1.0
 50
0.0
 71
0
 42
2.5
  3

  4

1001
ACAD
1000
txt
1071
0
  0
STYLE
  5
5B
100
AcDbSymbolTableRecord
100
AcDbTextStyleTableRecord
  2
textstyle0
 70
0
 40
0.0
 41
1.0
 50
0.0
 71
0
 42
1.0
  3

  4

1001
ACAD
1000
Arial
1071
16777216
  0
STYLE
  5
5C
100
AcDbSymbolTableRecord
100
AcDbTextStyleTableRecord
  2
textstyle1
 70
0
 40
0.0
 41
1.0
 50
0.0
 71
0
 42
1.0
  3

  4

1001
ACAD
1000
Arial
1071
16777216
  0
STYLE
  5
5D
100
AcDbSymbolTableRecord
100
AcDbTextStyleTableRecord
  2
textstyle2
 70
0
 40
0.0
 41
1.0
 50
0.0
 71
0
 42
1.0
  3

  4

1001
ACAD
1000
Arial
1071
16777216
  0
STYLE
  5
5E
100
AcDbSymbolTableRecord
100
AcDbTextStyleTableRecord
  2
textstyle3
 70
0
 40
0.0
 41
1.0
 50
0.0
 71
0
 42
1.0
  3

  4

1001
ACAD
1000
Arial
1071
16777216
  0
STYLE
  5
5F
100
AcDbSymbolTableRecord
100
AcDbTextStyleTableRecord
  2
textstyle4
 70
0
 40
0.0
 41
1.0
 50
0.0
 71
0
 42
1.0
  3

  4

1001
ACAD
1000
Arial
1071
16777216
  0
STYLE
  5
60
100
AcDbSymbolTableRecord
100
AcDbTextStyleTableRecord
  2
textstyle5
 70
0
 40
0.0
 41
1.0
 50
0.0
 71
0
 42
1.0
  3

  4

1001
ACAD
1000
Arial
1071
16777216
  0
STYLE
  5
61
100
AcDbSymbolTableRecord
100
AcDbTextStyleTableRecord
  2
textstyle6
 70
0
 40
0.0
 41
1.0
 50
0.0
 71
0
 42
1.0
  3

  4

1001
ACAD
1000
Arial
1071
16777216
  0
STYLE
  5
62
100
AcDbSymbolTableRecord
100
AcDbTextStyleTableRecord
  2
textstyle7
 70
0
 40
0.0
 41
1.0
 50
0.0
 71
0
 42
1.0
  3

  4

1001
ACAD
1000
Arial
1071
16777216
  0
STYLE
  5
63
100
AcDbSymbolTableRecord
100
AcDbTextStyleTableRecord
  2
textstyle8
 70
0
 40
0.0
 41
1.0
 50
0.0
 71
0
 42
1.0
  3

  4

1001
ACAD
1000
Arial
1071
16777216
  0
STYLE
  5
64
100
AcDbSymbolTableRecord
100
AcDbTextStyleTableRecord
  2
textstyle9
 70
0
 40
0.0
 41
1.0
 50
0.0
 71
0
 42
1.0
  3

  4

1001
ACAD
1000
Arial
1071
16777216
  0
STYLE
  5
65
100
AcDbSymbolTableRecord
100
AcDbTextStyleTableRecord
  2
textstyle10
 70
0
 40
0.0
 41
1.0
 50
0.0
 71
0
 42
5.0
  3

  4

1001
ACAD
1000
osifont
1071
16777216
  0
STYLE
  5
66
100
AcDbSymbolTableRecord
100
AcDbTextStyleTableRecord
  2
textstyle11
 70
0
 40
0.0
 41
1.0
 50
0.0
 71
0
 42
5.0
  3

  4

1001
ACAD
1000
osifont
1071
16777216
  0
STYLE
  5
67
100
AcDbSymbolTableRecord
100
AcDbTextStyleTableRecord
  2
textstyle12
 70
0
 40
0.0
 41
1.0
 50
0.0
 71
0
 42
5.0
  3

  4

1001
ACAD
1000
osifont
1071
16777216
  0
STYLE
  5
68
100
AcDbSymbolTableRecord
100
AcDbTextStyleTableRecord
  2
textstyle13
 70
0
 40
0.0
 41
1.0
 50
0.0
 71
0
 42
5.0
  3

  4

1001
ACAD
1000
osifont
1071
16777216
  0
STYLE
  5
69
100
AcDbSymbolTableRecord
100
AcDbTextStyleTableRecord
  2
textstyle14
 70
0
 40
0.0
 41
1.0
 50
0.0
 71
0
 42
5.0
  3

  4

1001
ACAD
1000
osifont
1071
16777216
  0
STYLE
  5
6A
100
AcDbSymbolTableRecord
100
AcDbTextStyleTableRecord
  2
textstyle15
 70
0
 40
0.0
 41
1.0
 50
0.0
 71
0
 42
5.0
  3

  4

1001
ACAD
1000
osifont
1071
16777216
  0
STYLE
  5
6B
100
AcDbSymbolTableRecord
100
AcDbTextStyleTableRecord
  2
textstyle16
 70
0
 40
0.0
 41
1.0
 50
0.0
 71
0
 42
5.0
  3

  4

1001
ACAD
1000
osifont
1071
16777216
  0
ENDTAB
  0
TABLE
  2
VIEW
  5
6
100
AcDbSymbolTable
 70
0
  0
ENDTAB
  0
TABLE
  2
UCS
  5
7
100
AcDbSymbolTable
 70
0
  0
ENDTAB
  0
TABLE
  2
APPID
  5
9
100
AcDbSymbolTable
 70
1
  0
APPID
  5
12
100
AcDbSymbolTableRecord
100
AcDbRegAppTableRecord
  2
ACAD
 70
0
  0
APPID
  5
6C
100
AcDbSymbolTableRecord
100
AcDbRegAppTableRecord
  2
QCAD
 70
0
  0
ENDTAB
  0
TABLE
  2
DIMSTYLE
  5
A
100
AcDbSymbolTable
 70
1
100
AcDbDimStyleTable
 71
0
  0
DIMSTYLE
105
27
100
AcDbSymbolTableRecord
100
AcDbDimStyleTableRecord
  2
Standard
 41
2.5
 42
0.625
 43
3.75
 44
1.25
 70
0
 73
0
 74
0
 77
1
 78
8
140
2.5
141
2.5
143
0.03937007874016
147
0.625
171
3
172
1
271
2
272
2
274
3
278
44
283
0
284
8
340
5A
  0
ENDTAB
  0
TABLE
  2
BLOCK_RECORD
  5
1
100
AcDbSymbolTable
 70
1
  0
BLOCK_RECORD
  5
1F
100
AcDbSymbolTableRecord
100
AcDbBlockTableRecord
  2
*Model_Space
340
22
  0
BLOCK_RECORD
  5
1B
100
AcDbSymbolTableRecord
100
AcDbBlockTableRecord
  2
*Paper_Space
340
1E
  0
BLOCK_RECORD
  5
23
100
AcDbSymbolTableRecord
100
AcDbBlockTableRecord
  2
*Paper_Space0
340
26
  0
ENDTAB
  0
ENDSEC
  0
SECTION
  2
BLOCKS
  0
BLOCK
  5
20
100
AcDbEntity
  8
0
100
AcDbBlockBegin
  2
*Model_Space
 70
0
 10
0.0
 20
0.0
 30
0.0
  3
*Model_Space
  1

  0
ENDBLK
  5
21
100
AcDbEntity
  8
0
100
AcDbBlockEnd
  0
BLOCK
  5
1C
100
AcDbEntity
 67
1
  8
0
100
AcDbBlockBegin
  2
*Paper_Space
 70
0
 10
0.0
 20
0.0
 30
0.0
  3
*Paper_Space
  1

  0
ENDBLK
  5
1D
100
AcDbEntity
 67
1
  8
0
100
AcDbBlockEnd
  0
BLOCK
  5
24
100
AcDbEntity
  8
0
100
AcDbBlockBegin
  2
*Paper_Space0
 70
0
 10
0.0
 20
0.0
 30
0.0
  3
*Paper_Space0
  1

  0
ENDBLK
  5
25
100
AcDbEntity
  8
0
100
AcDbBlockEnd
  0
ENDSEC
  0
SECTION
  2
ENTITIES
  0
LINE
  5
6D
100
AcDbEntity
100
AcDbLine
  8
Obroba_risbe
 62
256
370
-1
 48
1.0
  6
BYLAYER
 10
55.0
 20
277.0
 30
0.0
 11
55.0
 21
262.0
 31
0.0
  0
LINE
  5
6E
100
AcDbEntity
100
AcDbLine
  8
Obroba_risbe
 62
256
370
-1
 48
1.0
  6
BYLAYER
 10
35.0
 20
287.0
 30
0.0
 11
35.0
 21
262.0
 31
0.0
  0
LINE
  5
6F
100
AcDbEntity
100
AcDbLine
  8
Obroba_risbe
 62
256
370
-1
 48
1.0
  6
BYLAYER
 10
145.0
 20
262.0
 30
0.0
 11
145.0
 21
287.0
 31
0.0
  0
LINE
  5
70
100
AcDbEntity
100
AcDbLine
  8
Obroba_risbe
 62
256
370
-1
 48
1.0
  6
BYLAYER
 10
110.0
 20
277.0
 30
0.0
 11
110.0
 21
262.0
 31
0.0
  0
LINE
  5
71
100
AcDbEntity
100
AcDbLine
  8
Obroba_risbe
 62
256
370
-1
 48
1.0
  6
BYLAYER
 10
130.0
 20
277.0
 30
0.0
 11
130.0
 21
262.0
 31
0.0
  0
LINE
  5
72
100
AcDbEntity
100
AcDbLine
  8
Obroba_risbe
 62
256
370
-1
 48
1.0
  6
BYLAYER
 10
20.0
 20
287.0
 30
0.0
 11
20.0
 21
10.0
 31
0.0
  0
LINE
  5
73
100
AcDbEntity
100
AcDbLine
  8
Obroba_risbe
 62
256
370
-1
 48
1.0
  6
BYLAYER
 10
200.0
 20
10.0
 30
0.0
 11
200.0
 21
287.0
 31
0.0
  0
LINE
  5
74
100
AcDbEntity
100
AcDbLine
  8
Obroba_risbe
 62
256
370
-1
 48
1.0
  6
BYLAYER
 10
20.0
 20
10.0
 30
0.0
 11
200.0
 21
10.0
 31
0.0
  0
LINE
  5
75
100
AcDbEntity
100
AcDbLine
  8
Obroba_risbe
 62
256
370
-1
 48
1.0
  6
BYLAYER
 10
20.0
 20
277.0
 30
0.0
 11
200.0
 21
277.0
 31
0.0
  0
LINE
  5
76
100
AcDbEntity
100
AcDbLine
  8
Obroba_risbe
 62
256
370
-1
 48
1.0
  6
BYLAYER
 10
20.0
 20
267.0
 30
0.0
 11
130.0
 21
267.0
 31
0.0
  0
LINE
  5
77
100
AcDbEntity
100
AcDbLine
  8
Obroba_risbe
 62
256
370
-1
 48
1.0
  6
BYLAYER
 10
20.0
 20
272.0
 30
0.0
 11
130.0
 21
272.0
 31
0.0
  0
LINE
  5
78
100
AcDbEntity
100
AcDbLine
  8
Obroba_risbe
 62
256
370
-1
 48
1.0
  6
BYLAYER
 10
200.0
 20
287.0
 30
0.0
 11
20.0
 21
287.0
 31
0.0
  0
LINE
  5
79
100
AcDbEntity
100
AcDbLine
  8
Obroba_risbe
 62
256
370
-1
 48
1.0
  6
BYLAYER
 10
145.0
 20
277.0
 30
0.0
 11
200.0
 21
277.0
 31
0.0
  0
MTEXT
  5
7A
100
AcDbEntity
100
AcDbMText
  8
Opis_noge
 62
256
370
-1
 48
1.0
  6
BYLAYER
 10
20.9999999999999716
 20
266.0
 30
0.0
 40
1.0
 41
0.0
 71
1
 72
1
  1
\H2;Pregledal
  7
textstyle0
 50
0.0
 73
2
 44
1.0
  0
MTEXT
  5
7B
100
AcDbEntity
100
AcDbMText
  8
Opis_noge
 62
256
370
-1
 48
1.0
  6
BYLAYER
 10
21.0000000000000107
 20
270.9999999999999432
 30
0.0
 40
1.0
 41
0.0
 71
1
 72
1
  1
\H2;Izdelal
  7
textstyle1
 50
0.0
 73
2
 44
1.0
  0
MTEXT
  5
7C
100
AcDbEntity
100
AcDbMText
  8
Opis_noge
 62
256
370
-1
 48
1.0
  6
BYLAYER
 10
35.9999999999999929
 20
286.0
 30
0.0
 40
1.0
 41
0.0
 71
1
 72
1
  1
\H2;Tehnolo\U+0161ki list za izdelek
  7
textstyle2
 50
0.0
 73
2
 44
1.0
  0
MTEXT
  5
7D
100
AcDbEntity
100
AcDbMText
  8
Opis_noge
 62
256
370
-1
 48
1.0
  6
BYLAYER
 10
146.0
 20
285.9999999999998863
 30
0.0
 40
1.0
 41
0.0
 71
1
 72
1
  1
\H2;\U+0160ola
  7
textstyle3
 50
0.0
 73
2
 44
1.0
  0
MTEXT
  5
7E
100
AcDbEntity
100
AcDbMText
  8
Opis_noge
 62
256
370
-1
 48
1.0
  6
BYLAYER
 10
20.9999999999999822
 20
286.0
 30
0.0
 40
1.0
 41
0.0
 71
1
 72
1
  1
\H2;Razred
  7
textstyle4
 50
0.0
 73
2
 44
1.0
  0
MTEXT
  5
7F
100
AcDbEntity
100
AcDbMText
  8
Opis_noge
 62
256
370
-1
 48
1.0
  6
BYLAYER
 10
146.0000000000000284
 20
276.0
 30
0.0
 40
1.0
 41
0.0
 71
1
 72
1
  1
\H2;\U+0160tevilka tehnolo\U+0161kega lista
  7
textstyle5
 50
0.0
 73
2
 44
1.0
  0
MTEXT
  5
80
100
AcDbEntity
100
AcDbMText
  8
Opis_noge
 62
256
370
-1
 48
1.0
  6
BYLAYER
 10
35.9999999999999787
 20
273.0
 30
0.0
 40
1.0
 41
0.0
 71
7
 72
1
  1
\H2;Datum
  7
textstyle6
 50
0.0
 73
2
 44
1.0
  0
MTEXT
  5
81
100
AcDbEntity
100
AcDbMText
  8
Opis_noge
 62
256
370
-1
 48
1.0
  6
BYLAYER
 10
55.9999999999999716
 20
273.0
 30
0.0
 40
1.0
 41
0.0
 71
7
 72
1
  1
\H2;Ime in Priimek
  7
textstyle7
 50
0.0
 73
2
 44
1.0
  0
MTEXT
  5
82
100
AcDbEntity
100
AcDbMText
  8
Opis_noge
 62
256
370
-1
 48
1.0
  6
BYLAYER
 10
111.0000000000000142
 20
273.0
 30
0.0
 40
1.0
 41
0.0
 71
7
 72
1
  1
\H2;Podpis
  7
textstyle8
 50
0.0
 73
2
 44
1.0
  0
MTEXT
  5
83
100
AcDbEntity
100
AcDbMText
  8
Opis_noge
 62
256
370
-1
 48
1.0
  6
BYLAYER
 10
130.9999999999999716
 20
275.9999999999998295
 30
0.0
 40
1.0
 41
0.0
 71
1
 72
1
  1
\H2;Ocena
  7
textstyle9
 50
0.0
 73
2
 44
1.0
  0
LINE
  5
84
100
AcDbEntity
100
AcDbLine
  8
Obroba_risbe
 62
256
370
-1
 48
1.0
  6
BYLAYER
 10
20.0
 20
262.0
 30
0.0
 11
200.0
 21
262.0
 31
0.0
  0
LINE
  5
85
100
AcDbEntity
100
AcDbLine
  8
Opis_noge
 62
256
370
-1
 48
1.0
  6
BYLAYER
 10
20.0
 20
260.0
 30
0.0
 11
200.0
 21
260.0
 31
0.0
  0
LINE
  5
86
100
AcDbEntity
100
AcDbLine
  8
Opis_noge
 62
256
370
-1
 48
1.0
  6
BYLAYER
 10
20.0
 20
255.0
 30
0.0
 11
200.0
 21
255.0
 31
0.0
  0
MTEXT
  5
87
100
AcDbEntity
100
AcDbMText
  8
0. Besedilo_noge
 62
256
370
-1
 48
1.0
  6
BYLAYER
 10
22.0000000000000142
 20
255.0
 30
0.0
 40
5.0
 41
0.0
 71
7
 72
1
  1
Poz.
  7
textstyle10
 50
0.0
 73
2
 44
1.0
  0
MTEXT
  5
88
100
AcDbEntity
100
AcDbMText
  8
0. Besedilo_noge
 62
256
370
-1
 48
1.0
  6
BYLAYER
 10
37.0000000000000071
 20
254.9999999999999716
 30
0.0
 40
5.0
 41
0.0
 71
7
 72
1
  1
Kos.
  7
textstyle11
 50
0.0
 73
2
 44
1.0
  0
MTEXT
  5
89
100
AcDbEntity
100
AcDbMText
  8
0. Besedilo_noge
 62
256
370
-1
 48
1.0
  6
BYLAYER
 10
51.9999999999999858
 20
260.0
 30
0.0
 40
5.0
 41
0.0
 71
1
 72
1
  1
Del. operacija
  7
textstyle12
 50
0.0
 73
2
 44
1.0
  0
MTEXT
  5
8A
100
AcDbEntity
100
AcDbMText
  8
0. Besedilo_noge
 62
256
370
-1
 48
1.0
  6
BYLAYER
 10
133.9999999999999432
 20
260.0000000000001137
 30
0.0
 40
5.0
 41
0.0
 71
1
 72
1
  1
Gradivo
  7
textstyle13
 50
0.0
 73
2
 44
1.0
  0
MTEXT
  5
8B
100
AcDbEntity
100
AcDbMText
  8
0. Besedilo_noge
 62
256
370
-1
 48
1.0
  6
BYLAYER
 10
189.0
 20
255.0
 30
0.0
 40
5.0
 41
0.0
 71
7
 72
1
  1
\U+010cas
  7
textstyle14
 50
0.0
 73
2
 44
1.0
  0
MTEXT
  5
8C
100
AcDbEntity
100
AcDbMText
  8
0. Besedilo_noge
 62
256
370
-1
 48
1.0
  6
BYLAYER
 10
165.0
 20
255.0
 30
0.0
 40
5.0
 41
0.0
 71
7
 72
1
  1
Za\U+0161\U+010dita
  7
textstyle15
 50
0.0
 73
2
 44
1.0
  0
MTEXT
  5
8D
100
AcDbEntity
100
AcDbMText
  8
0. Besedilo_noge
 62
256
370
-1
 48
1.0
  6
BYLAYER
 10
94.0
 20
260.0
 30
0.0
 40
5.0
 41
0.0
 71
1
 72
1
  1
Pripomo\U+010dki
  7
textstyle16
 50
0.0
 73
2
 44
1.0
  0
LINE
  5
8E
100
AcDbEntity
100
AcDbLine
  8
Obroba_risbe
 62
256
370
-1
 48
1.0
  6
BYLAYER
 10
35.0
 20
287.0
 30
0.0
 11
35.0
 21
9.9999999999999964
 31
0.0
  0
LINE
  5
8F
100
AcDbEntity
100
AcDbLine
  8
Obroba_risbe
 62
256
370
-1
 48
1.0
  6
BYLAYER
 10
132.0
 20
262.0
 30
0.0
 11
132.0
 21
10.0
 31
0.0
  0
LINE
  5
90
100
AcDbEntity
100
AcDbLine
  8
Obroba_risbe
 62
256
370
-1
 48
1.0
  6
BYLAYER
 10
92.0
 20
262.0
 30
0.0
 11
92.0
 21
10.0
 31
0.0
  0
LINE
  5
91
100
AcDbEntity
100
AcDbLine
  8
Obroba_risbe
 62
256
370
-1
 48
1.0
  6
BYLAYER
 10
50.0
 20
262.0
 30
0.0
 11
50.0
 21
9.9999999999999929
 31
0.0
  0
LINE
  5
92
100
AcDbEntity
100
AcDbLine
  8
Obroba_risbe
 62
256
370
-1
 48
1.0
  6
BYLAYER
 10
187.0
 20
10.0000000000000018
 30
0.0
 11
187.0
 21
262.0
 31
0.0
  0
LINE
  5
93
100
AcDbEntity
100
AcDbLine
  8
Obroba_risbe
 62
256
370
-1
 48
1.0
  6
BYLAYER
 10
163.0
 20
10.0000000000000053
 30
0.0
 11
163.0
 21
262.0
 31
0.0
  0
LINE
  5
94
100
AcDbEntity
100
AcDbLine
  8
Obroba_risbe
 62
256
370
-1
 48
1.0
  6
BYLAYER
 10
20.0
 20
253.0
 30
0.0
 11
200.0
 21
253.0
 31
0.0
  0
LINE
  5
95
100
AcDbEntity
100
AcDbLine
  8
Opis_noge
 62
256
370
-1
 48
1.0
  6
BYLAYER
 10
20.0
 20
17.5
 30
0.0
 11
200.0
 21
17.5
 31
0.0
  0
LINE
  5
96
100
AcDbEntity
100
AcDbLine
  8
Opis_noge
 62
256
370
-1
 48
1.0
  6
BYLAYER
 10
20.0
 20
25.0
 30
0.0
 11
200.0
 21
25.0
 31
0.0
  0
LINE
  5
97
100
AcDbEntity
100
AcDbLine
  8
Opis_noge
 62
256
370
-1
 48
1.0
  6
BYLAYER
 10
20.0
 20
32.5
 30
0.0
 11
200.0
 21
32.5
 31
0.0
  0
LINE
  5
98
100
AcDbEntity
100
AcDbLine
  8
Opis_noge
 62
256
370
-1
 48
1.0
  6
BYLAYER
 10
20.0
 20
40.0
 30
0.0
 11
200.0
 21
40.0
 31
0.0
  0
LINE
  5
99
100
AcDbEntity
100
AcDbLine
  8
Opis_noge
 62
256
370
-1
 48
1.0
  6
BYLAYER
 10
20.0
 20
47.5
 30
0.0
 11
200.0
 21
47.5
 31
0.0
  0
LINE
  5
9A
100
AcDbEntity
100
AcDbLine
  8
Opis_noge
 62
256
370
-1
 48
1.0
  6
BYLAYER
 10
20.0
 20
55.0
 30
0.0
 11
200.0
 21
55.0
 31
0.0
  0
LINE
  5
9B
100
AcDbEntity
100
AcDbLine
  8
Opis_noge
 62
256
370
-1
 48
1.0
  6
BYLAYER
 10
20.0
 20
62.5
 30
0.0
 11
200.0
 21
62.5
 31
0.0
  0
LINE
  5
9C
100
AcDbEntity
100
AcDbLine
  8
Opis_noge
 62
256
370
-1
 48
1.0
  6
BYLAYER
 10
20.0
 20
70.0
 30
0.0
 11
200.0
 21
70.0
 31
0.0
  0
LINE
  5
9D
100
AcDbEntity
100
AcDbLine
  8
Opis_noge
 62
256
370
-1
 48
1.0
  6
BYLAYER
 10
20.0
 20
77.5
 30
0.0
 11
200.0
 21
77.5
 31
0.0
  0
LINE
  5
9E
100
AcDbEntity
100
AcDbLine
  8
Opis_noge
 62
256
370
-1
 48
1.0
  6
BYLAYER
 10
20.0
 20
85.0
 30
0.0
 11
200.0
 21
85.0
 31
0.0
  0
LINE
  5
9F
100
AcDbEntity
100
AcDbLine
  8
Opis_noge
 62
256
370
-1
 48
1.0
  6
BYLAYER
 10
20.0
 20
92.5
 30
0.0
 11
200.0
 21
92.5
 31
0.0
  0
LINE
  5
A0
100
AcDbEntity
100
AcDbLine
  8
Opis_noge
 62
256
370
-1
 48
1.0
  6
BYLAYER
 10
20.0
 20
100.0
 30
0.0
 11
200.0
 21
100.0
 31
0.0
  0
LINE
  5
A1
100
AcDbEntity
100
AcDbLine
  8
Opis_noge
 62
256
370
-1
 48
1.0
  6
BYLAYER
 10
20.0
 20
107.5
 30
0.0
 11
200.0
 21
107.5
 31
0.0
  0
LINE
  5
A2
100
AcDbEntity
100
AcDbLine
  8
Opis_noge
 62
256
370
-1
 48
1.0
  6
BYLAYER
 10
20.0
 20
115.0
 30
0.0
 11
200.0
 21
115.0
 31
0.0
  0
LINE
  5
A3
100
AcDbEntity
100
AcDbLine
  8
Opis_noge
 62
256
370
-1
 48
1.0
  6
BYLAYER
 10
20.0
 20
122.5
 30
0.0
 11
200.0
 21
122.5
 31
0.0
  0
LINE
  5
A4
100
AcDbEntity
100
AcDbLine
  8
Opis_noge
 62
256
370
-1
 48
1.0
  6
BYLAYER
 10
20.0
 20
130.0
 30
0.0
 11
200.0
 21
130.0
 31
0.0
  0
LINE
  5
A5
100
AcDbEntity
100
AcDbLine
  8
Opis_noge
 62
256
370
-1
 48
1.0
  6
BYLAYER
 10
20.0
 20
137.5
 30
0.0
 11
200.0
 21
137.5
 31
0.0
  0
LINE
  5
A6
100
AcDbEntity
100
AcDbLine
  8
Opis_noge
 62
256
370
-1
 48
1.0
  6
BYLAYER
 10
20.0
 20
145.0
 30
0.0
 11
200.0
 21
145.0
 31
0.0
  0
LINE
  5
A7
100
AcDbEntity
100
AcDbLine
  8
Opis_noge
 62
256
370
-1
 48
1.0
  6
BYLAYER
 10
20.0
 20
152.5
 30
0.0
 11
200.0
 21
152.5
 31
0.0
  0
LINE
  5
A8
100
AcDbEntity
100
AcDbLine
  8
Opis_noge
 62
256
370
-1
 48
1.0
  6
BYLAYER
 10
20.0
 20
160.0
 30
0.0
 11
200.0
 21
160.0
 31
0.0
  0
LINE
  5
A9
100
AcDbEntity
100
AcDbLine
  8
Opis_noge
 62
256
370
-1
 48
1.0
  6
BYLAYER
 10
20.0
 20
167.5
 30
0.0
 11
200.0
 21
167.5
 31
0.0
  0
LINE
  5
AA
100
AcDbEntity
100
AcDbLine
  8
Opis_noge
 62
256
370
-1
 48
1.0
  6
BYLAYER
 10
20.0
 20
175.0
 30
0.0
 11
200.0
 21
175.0
 31
0.0
  0
LINE
  5
AB
100
AcDbEntity
100
AcDbLine
  8
Opis_noge
 62
256
370
-1
 48
1.0
  6
BYLAYER
 10
20.0
 20
182.5
 30
0.0
 11
200.0
 21
182.5
 31
0.0
  0
LINE
  5
AC
100
AcDbEntity
100
AcDbLine
  8
Opis_noge
 62
256
370
-1
 48
1.0
  6
BYLAYER
 10
20.0
 20
190.0
 30
0.0
 11
200.0
 21
190.0
 31
0.0
  0
LINE
  5
AD
100
AcDbEntity
100
AcDbLine
  8
Opis_noge
 62
256
370
-1
 48
1.0
  6
BYLAYER
 10
20.0
 20
197.5
 30
0.0
 11
200.0
 21
197.5
 31
0.0
  0
LINE
  5
AE
100
AcDbEntity
100
AcDbLine
  8
Opis_noge
 62
256
370
-1
 48
1.0
  6
BYLAYER
 10
20.0
 20
205.0
 30
0.0
 11
200.0
 21
205.0
 31
0.0
  0
LINE
  5
AF
100
AcDbEntity
100
AcDbLine
  8
Opis_noge
 62
256
370
-1
 48
1.0
  6
BYLAYER
 10
20.0
 20
212.5
 30
0.0
 11
200.0
 21
212.5
 31
0.0
  0
LINE
  5
B0
100
AcDbEntity
100
AcDbLine
  8
Opis_noge
 62
256
370
-1
 48
1.0
  6
BYLAYER
 10
20.0
 20
220.0
 30
0.0
 11
200.0
 21
220.0
 31
0.0
  0
LINE
  5
B1
100
AcDbEntity
100
AcDbLine
  8
Opis_noge
 62
256
370
-1
 48
1.0
  6
BYLAYER
 10
20.0
 20
227.5
 30
0.0
 11
200.0
 21
227.5
 31
0.0
  0
LINE
  5
B2
100
AcDbEntity
100
AcDbLine
  8
Opis_noge
 62
256
370
-1
 48
1.0
  6
BYLAYER
 10
20.0
 20
235.5
 30
0.0
 11
200.0
 21
235.5
 31
0.0
  0
LINE
  5
B3
100
AcDbEntity
100
AcDbLine
  8
Opis_noge
 62
256
370
-1
 48
1.0
  6
BYLAYER
 10
20.0
 20
243.0
 30
0.0
 11
200.0
 21
243.0
 31
0.0
  0
LINE
  5
B4
100
AcDbEntity
100
AcDbLine
  8
Opis_noge
 62
256
370
-1
 48
1.0
  6
BYLAYER
 10
20.0
 20
250.5
 30
0.0
 11
200.0
 21
250.5
 31
0.0
  0
LINE
  5
B5
100
AcDbEntity
100
AcDbLine
  8
Opis_noge
 62
256
370
-1
 48
1.0
  6
BYLAYER
 10
20.0
 20
12.5
 30
0.0
 11
200.0
 21
12.5
 31
0.0
  0
LINE
  5
B6
100
AcDbEntity
100
AcDbLine
  8
Opis_noge
 62
256
370
-1
 48
1.0
  6
BYLAYER
 10
20.0
 20
20.0
 30
0.0
 11
200.0
 21
20.0
 31
0.0
  0
LINE
  5
B7
100
AcDbEntity
100
AcDbLine
  8
Opis_noge
 62
256
370
-1
 48
1.0
  6
BYLAYER
 10
20.0
 20
27.5
 30
0.0
 11
200.0
 21
27.5
 31
0.0
  0
LINE
  5
B8
100
AcDbEntity
100
AcDbLine
  8
Opis_noge
 62
256
370
-1
 48
1.0
  6
BYLAYER
 10
20.0
 20
35.0
 30
0.0
 11
200.0
 21
35.0
 31
0.0
  0
LINE
  5
B9
100
AcDbEntity
100
AcDbLine
  8
Opis_noge
 62
256
370
-1
 48
1.0
  6
BYLAYER
 10
20.0
 20
42.5
 30
0.0
 11
200.0
 21
42.5
 31
0.0
  0
LINE
  5
BA
100
AcDbEntity
100
AcDbLine
  8
Opis_noge
 62
256
370
-1
 48
1.0
  6
BYLAYER
 10
20.0
 20
50.0
 30
0.0
 11
200.0
 21
50.0
 31
0.0
  0
LINE
  5
BB
100
AcDbEntity
100
AcDbLine
  8
Opis_noge
 62
256
370
-1
 48
1.0
  6
BYLAYER
 10
20.0
 20
57.5
 30
0.0
 11
200.0
 21
57.5
 31
0.0
  0
LINE
  5
BC
100
AcDbEntity
100
AcDbLine
  8
Opis_noge
 62
256
370
-1
 48
1.0
  6
BYLAYER
 10
20.0
 20
65.0
 30
0.0
 11
200.0
 21
65.0
 31
0.0
  0
LINE
  5
BD
100
AcDbEntity
100
AcDbLine
  8
Opis_noge
 62
256
370
-1
 48
1.0
  6
BYLAYER
 10
20.0
 20
72.5
 30
0.0
 11
200.0
 21
72.5
 31
0.0
  0
LINE
  5
BE
100
AcDbEntity
100
AcDbLine
  8
Opis_noge
 62
256
370
-1
 48
1.0
  6
BYLAYER
 10
20.0
 20
80.0
 30
0.0
 11
200.0
 21
80.0
 31
0.0
  0
LINE
  5
BF
100
AcDbEntity
100
AcDbLine
  8
Opis_noge
 62
256
370
-1
 48
1.0
  6
BYLAYER
 10
20.0
 20
87.5
 30
0.0
 11
200.0
 21
87.5
 31
0.0
  0
LINE
  5
C0
100
AcDbEntity
100
AcDbLine
  8
Opis_noge
 62
256
370
-1
 48
1.0
  6
BYLAYER
 10
20.0
 20
95.0
 30
0.0
 11
200.0
 21
95.0
 31
0.0
  0
LINE
  5
C1
100
AcDbEntity
100
AcDbLine
  8
Opis_noge
 62
256
370
-1
 48
1.0
  6
BYLAYER
 10
20.0
 20
102.5
 30
0.0
 11
200.0
 21
102.5
 31
0.0
  0
LINE
  5
C2
100
AcDbEntity
100
AcDbLine
  8
Opis_noge
 62
256
370
-1
 48
1.0
  6
BYLAYER
 10
20.0
 20
110.0
 30
0.0
 11
200.0
 21
110.0
 31
0.0
  0
LINE
  5
C3
100
AcDbEntity
100
AcDbLine
  8
Opis_noge
 62
256
370
-1
 48
1.0
  6
BYLAYER
 10
20.0
 20
117.5
 30
0.0
 11
200.0
 21
117.5
 31
0.0
  0
LINE
  5
C4
100
AcDbEntity
100
AcDbLine
  8
Opis_noge
 62
256
370
-1
 48
1.0
  6
BYLAYER
 10
20.0
 20
125.0
 30
0.0
 11
200.0
 21
125.0
 31
0.0
  0
LINE
  5
C5
100
AcDbEntity
100
AcDbLine
  8
Opis_noge
 62
256
370
-1
 48
1.0
  6
BYLAYER
 10
20.0
 20
132.5
 30
0.0
 11
200.0
 21
132.5
 31
0.0
  0
LINE
  5
C6
100
AcDbEntity
100
AcDbLine
  8
Opis_noge
 62
256
370
-1
 48
1.0
  6
BYLAYER
 10
20.0
 20
140.0
 30
0.0
 11
200.0
 21
140.0
 31
0.0
  0
LINE
  5
C7
100
AcDbEntity
100
AcDbLine
  8
Opis_noge
 62
256
370
-1
 48
1.0
  6
BYLAYER
 10
20.0
 20
147.5
 30
0.0
 11
200.0
 21
147.5
 31
0.0
  0
LINE
  5
C8
100
AcDbEntity
100
AcDbLine
  8
Opis_noge
 62
256
370
-1
 48
1.0
  6
BYLAYER
 10
20.0
 20
155.0
 30
0.0
 11
200.0
 21
155.0
 31
0.0
  0
LINE
  5
C9
100
AcDbEntity
100
AcDbLine
  8
Opis_noge
 62
256
370
-1
 48
1.0
  6
BYLAYER
 10
20.0
 20
162.5
 30
0.0
 11
200.0
 21
162.5
 31
0.0
  0
LINE
  5
CA
100
AcDbEntity
100
AcDbLine
  8
Opis_noge
 62
256
370
-1
 48
1.0
  6
BYLAYER
 10
20.0
 20
170.0
 30
0.0
 11
200.0
 21
170.0
 31
0.0
  0
LINE
  5
CB
100
AcDbEntity
100
AcDbLine
  8
Opis_noge
 62
256
370
-1
 48
1.0
  6
BYLAYER
 10
20.0
 20
177.5
 30
0.0
 11
200.0
 21
177.5
 31
0.0
  0
LINE
  5
CC
100
AcDbEntity
100
AcDbLine
  8
Opis_noge
 62
256
370
-1
 48
1.0
  6
BYLAYER
 10
20.0
 20
185.0
 30
0.0
 11
200.0
 21
185.0
 31
0.0
  0
LINE
  5
CD
100
AcDbEntity
100
AcDbLine
  8
Opis_noge
 62
256
370
-1
 48
1.0
  6
BYLAYER
 10
20.0
 20
192.5
 30
0.0
 11
200.0
 21
192.5
 31
0.0
  0
LINE
  5
CE
100
AcDbEntity
100
AcDbLine
  8
Opis_noge
 62
256
370
-1
 48
1.0
  6
BYLAYER
 10
20.0
 20
200.0
 30
0.0
 11
200.0
 21
200.0
 31
0.0
  0
LINE
  5
CF
100
AcDbEntity
100
AcDbLine
  8
Opis_noge
 62
256
370
-1
 48
1.0
  6
BYLAYER
 10
20.0
 20
207.5
 30
0.0
 11
200.0
 21
207.5
 31
0.0
  0
LINE
  5
D0
100
AcDbEntity
100
AcDbLine
  8
Opis_noge
 62
256
370
-1
 48
1.0
  6
BYLAYER
 10
20.0
 20
215.0
 30
0.0
 11
200.0
 21
215.0
 31
0.0
  0
LINE
  5
D1
100
AcDbEntity
100
AcDbLine
  8
Opis_noge
 62
256
370
-1
 48
1.0
  6
BYLAYER
 10
20.0
 20
222.5
 30
0.0
 11
200.0
 21
222.5
 31
0.0
  0
LINE
  5
D2
100
AcDbEntity
100
AcDbLine
  8
Opis_noge
 62
256
370
-1
 48
1.0
  6
BYLAYER
 10
20.0
 20
230.5
 30
0.0
 11
200.0
 21
230.5
 31
0.0
  0
LINE
  5
D3
100
AcDbEntity
100
AcDbLine
  8
Opis_noge
 62
256
370
-1
 48
1.0
  6
BYLAYER
 10
20.0
 20
238.0
 30
0.0
 11
200.0
 21
238.0
 31
0.0
  0
LINE
  5
D4
100
AcDbEntity
100
AcDbLine
  8
Opis_noge
 62
256
370
-1
 48
1.0
  6
BYLAYER
 10
20.0
 20
245.5
 30
0.0
 11
200.0
 21
245.5
 31
0.0
  0
ENDSEC
  0
SECTION
  2
OBJECTS
  0
DICTIONARY
  5
C
100
AcDbDictionary
280
0
281
1
  3
ACAD_GROUP
350
D
  3
ACAD_LAYOUT
350
1A
  3
ACAD_MLINESTYLE
350
17
  3
ACAD_PLOTSETTINGS
350
19
  3
ACAD_PLOTSTYLENAME
350
E
  3
AcDbVariableDictionary
350
D5
  3
QCAD_OBJECTS
350
D6
  0
DICTIONARY
  5
D
100
AcDbDictionary
280
0
281
1
  0
ACDBDICTIONARYWDFLT
  5
E
100
AcDbDictionary
281
1
  3
Normal
350
F
100
AcDbDictionaryWithDefault
340
F
  0
ACDBPLACEHOLDER
  5
F
  0
DICTIONARY
  5
17
100
AcDbDictionary
280
0
281
1
  3
Standard
350
18
  0
MLINESTYLE
  5
18
100
AcDbMlineStyle
  2
STANDARD
 70
0
  3

 62
256
 51
90.0
 52
90.0
 71
2
 49
0.5
 62
256
  6
BYLAYER
 49
-0.5
 62
256
  6
BYLAYER
  0
DICTIONARY
  5
19
100
AcDbDictionary
280
0
281
1
  0
DICTIONARY
  5
1A
100
AcDbDictionary
281
1
  3
Layout1
350
1E
  3
Layout2
350
26
  3
Model
350
22
  0
LAYOUT
  5
1E
100
AcDbPlotSettings
  1

  2
none_device
  4

  6

 40
0.0
 41
0.0
 42
0.0
 43
0.0
 44
0.0
 45
0.0
 46
0.0
 47
0.0
 48
0.0
 49
0.0
140
0.0
141
0.0
142
1.0
143
1.0
 70
688
 72
0
 73
0
 74
5
  7

 75
16
147
1.0
148
0.0
149
0.0
100
AcDbLayout
  1
Layout1
 70
1
 71
1
 10
0.0
 20
0.0
 11
420.0
 21
297.0
 12
0.0
 22
0.0
 32
0.0
 14
100000000000000000000.0
 24
100000000000000000000.0
 34
100000000000000000000.0
 15
-100000000000000000000.0
 25
-100000000000000000000.0
 35
-100000000000000000000.0
146
0.0
 13
0.0
 23
0.0
 33
0.0
 16
1.0
 26
0.0
 36
0.0
 17
0.0
 27
1.0
 37
0.0
 76
0
330
1B
  0
LAYOUT
  5
22
100
AcDbPlotSettings
  1

  2
none_device
  4

  6

 40
0.0
 41
0.0
 42
0.0
 43
0.0
 44
0.0
 45
0.0
 46
0.0
 47
0.0
 48
0.0
 49
0.0
140
0.0
141
0.0
142
1.0
143
1.0
 70
1712
 72
0
 73
0
 74
0
  7

 75
0
147
1.0
148
0.0
149
0.0
100
AcDbLayout
  1
Model
 70
1
 71
0
 10
0.0
 20
0.0
 11
12.0
 21
9.0
 12
0.0
 22
0.0
 32
0.0
 14
0.0
 24
0.0
 34
0.0
 15
0.0
 25
0.0
 35
0.0
146
0.0
 13
0.0
 23
0.0
 33
0.0
 16
1.0
 26
0.0
 36
0.0
 17
0.0
 27
1.0
 37
0.0
 76
0
330
1F
  0
LAYOUT
  5
26
100
AcDbPlotSettings
  1

  2
none_device
  4

  6

 40
0.0
 41
0.0
 42
0.0
 43
0.0
 44
0.0
 45
0.0
 46
0.0
 47
0.0
 48
0.0
 49
0.0
140
0.0
141
0.0
142
1.0
143
1.0
 70
688
 72
0
 73
0
 74
5
  7

 75
16
147
1.0
148
0.0
149
0.0
100
AcDbLayout
  1
Layout2
 70
1
 71
2
 10
0.0
 20
0.0
 11
12.0
 21
9.0
 12
0.0
 22
0.0
 32
0.0
 14
0.0
 24
0.0
 34
0.0
 15
0.0
 25
0.0
 35
0.0
146
0.0
 13
0.0
 23
0.0
 33
0.0
 16
1.0
 26
0.0
 36
0.0
 17
0.0
 27
1.0
 37
0.0
 76
0
330
23
  0
DICTIONARY
  5
D5
100
AcDbDictionary
281
1
  3
DIMASSOC
350
D8
  3
HIDETEXT
350
D7
  0
DICTIONARYVAR
  5
D7
100
DictionaryVariables
280
0
  1
2
  0
DICTIONARYVAR
  5
D8
100
DictionaryVariables
280
0
  1
1
  0
DICTIONARY
  5
D6
100
AcDbDictionary
281
1
  3
ColorSettings/BackgroundColor
350
D9
  3
ColorSettings/ColorMode
350
DA
  3
Grid/DisplayGrid00
350
DB
  3
Grid/DisplayGrid01
350
DC
  3
Grid/DisplayGrid02
350
DD
  3
Grid/DisplayGrid03
350
DE
  3
Grid/GridSpacingX00
350
DF
  3
Grid/GridSpacingX01
350
E0
  3
Grid/GridSpacingX02
350
E1
  3
Grid/GridSpacingX03
350
E2
  3
Grid/GridSpacingY00
350
E3
  3
Grid/GridSpacingY01
350
E4
  3
Grid/GridSpacingY02
350
E5
  3
Grid/GridSpacingY03
350
E6
  3
Grid/IsometricGrid00
350
E7
  3
Grid/IsometricGrid01
350
E8
  3
Grid/IsometricGrid02
350
E9
  3
Grid/IsometricGrid03
350
EA
  3
Grid/IsometricProjection00
350
EB
  3
Grid/IsometricProjection01
350
EC
  3
Grid/IsometricProjection02
350
ED
  3
Grid/IsometricProjection03
350
EE
  3
Grid/MetaGridSpacingX00
350
EF
  3
Grid/MetaGridSpacingX01
350
F0
  3
Grid/MetaGridSpacingX02
350
F1
  3
Grid/MetaGridSpacingX03
350
F2
  3
Grid/MetaGridSpacingY00
350
F3
  3
Grid/MetaGridSpacingY01
350
F4
  3
Grid/MetaGridSpacingY02
350
F5
  3
Grid/MetaGridSpacingY03
350
F6
  3
MultiPageSettings/Columns
350
F7
  3
MultiPageSettings/GlueMarginsBottom
350
F8
  3
MultiPageSettings/GlueMarginsLeft
350
F9
  3
MultiPageSettings/GlueMarginsRight
350
FA
  3
MultiPageSettings/GlueMarginsTop
350
FB
  3
MultiPageSettings/PrintCropMarks
350
FC
  3
MultiPageSettings/Rows
350
FD
  3
PageSettings/OffsetX
350
FE
  3
PageSettings/OffsetY
350
FF
  3
PageSettings/PageOrientation
350
100
  3
PageSettings/PaperHeight
350
101
  3
PageSettings/PaperWidth
350
102
  3
PageSettings/Scale
350
103
  3
PageSettings/ShowPaperBorders
350
104
  3
QCADVersion
350
105
  3
UnitSettings/PaperUnit
350
106
  3
ViewportCenter
350
107
  3
ViewportHeight
350
108
  3
ViewportWidth
350
109
  0
XRECORD
  5
D9
330
D6
100
AcDbXrecord
280
1
1000
Bela
  0
XRECORD
  5
DA
330
D6
100
AcDbXrecord
280
1
1000
FullColor
  0
XRECORD
  5
DB
330
D6
100
AcDbXrecord
280
1
290
1
  0
XRECORD
  5
DC
330
D6
100
AcDbXrecord
280
1
290
1
  0
XRECORD
  5
DD
330
D6
100
AcDbXrecord
280
1
290
1
  0
XRECORD
  5
DE
330
D6
100
AcDbXrecord
280
1
290
1
  0
XRECORD
  5
DF
330
D6
100
AcDbXrecord
280
1
1000
auto
  0
XRECORD
  5
E0
330
D6
100
AcDbXrecord
280
1
1000
auto
  0
XRECORD
  5
E1
330
D6
100
AcDbXrecord
280
1
1000
auto
  0
XRECORD
  5
E2
330
D6
100
AcDbXrecord
280
1
1000
auto
  0
XRECORD
  5
E3
330
D6
100
AcDbXrecord
280
1
1000
auto
  0
XRECORD
  5
E4
330
D6
100
AcDbXrecord
280
1
1000
auto
  0
XRECORD
  5
E5
330
D6
100
AcDbXrecord
280
1
1000
auto
  0
XRECORD
  5
E6
330
D6
100
AcDbXrecord
280
1
1000
auto
  0
XRECORD
  5
E7
330
D6
100
AcDbXrecord
280
1
290
0
  0
XRECORD
  5
E8
330
D6
100
AcDbXrecord
280
1
290
0
  0
XRECORD
  5
E9
330
D6
100
AcDbXrecord
280
1
290
0
  0
XRECORD
  5
EA
330
D6
100
AcDbXrecord
280
1
290
0
  0
XRECORD
  5
EB
330
D6
100
AcDbXrecord
280
1
 90
0
  0
XRECORD
  5
EC
330
D6
100
AcDbXrecord
280
1
 90
0
  0
XRECORD
  5
ED
330
D6
100
AcDbXrecord
280
1
 90
0
  0
XRECORD
  5
EE
330
D6
100
AcDbXrecord
280
1
 90
0
  0
XRECORD
  5
EF
330
D6
100
AcDbXrecord
280
1
1000
auto
  0
XRECORD
  5
F0
330
D6
100
AcDbXrecord
280
1
1000
auto
  0
XRECORD
  5
F1
330
D6
100
AcDbXrecord
280
1
1000
auto
  0
XRECORD
  5
F2
330
D6
100
AcDbXrecord
280
1
1000
auto
  0
XRECORD
  5
F3
330
D6
100
AcDbXrecord
280
1
1000
auto
  0
XRECORD
  5
F4
330
D6
100
AcDbXrecord
280
1
1000
auto
  0
XRECORD
  5
F5
330
D6
100
AcDbXrecord
280
1
1000
auto
  0
XRECORD
  5
F6
330
D6
100
AcDbXrecord
280
1
1000
auto
  0
XRECORD
  5
F7
330
D6
100
AcDbXrecord
280
1
 90
1
  0
XRECORD
  5
F8
330
D6
100
AcDbXrecord
280
1
 40
10.0
  0
XRECORD
  5
F9
330
D6
100
AcDbXrecord
280
1
 40
10.0
  0
XRECORD
  5
FA
330
D6
100
AcDbXrecord
280
1
 40
10.0
  0
XRECORD
  5
FB
330
D6
100
AcDbXrecord
280
1
 40
10.0
  0
XRECORD
  5
FC
330
D6
100
AcDbXrecord
280
1
290
0
  0
XRECORD
  5
FD
330
D6
100
AcDbXrecord
280
1
 90
1
  0
XRECORD
  5
FE
330
D6
100
AcDbXrecord
280
1
 40
0.0
  0
XRECORD
  5
FF
330
D6
100
AcDbXrecord
280
1
 40
0.0
  0
XRECORD
  5
100
330
D6
100
AcDbXrecord
280
1
1000
Portrait
  0
XRECORD
  5
101
330
D6
100
AcDbXrecord
280
1
 40
297.0
  0
XRECORD
  5
102
330
D6
100
AcDbXrecord
280
1
 40
210.0
  0
XRECORD
  5
103
330
D6
100
AcDbXrecord
280
1
1000
1:1
  0
XRECORD
  5
104
330
D6
100
AcDbXrecord
280
1
290
1
  0
XRECORD
  5
105
330
D6
100
AcDbXrecord
280
1
1000
3.15.5
  0
XRECORD
  5
106
330
D6
100
AcDbXrecord
280
1
 90
4
  0
XRECORD
  5
108
330
D6
100
AcDbXrecord
280
1
 40
171.4678575032798449
  0
XRECORD
  5
109
330
D6
100
AcDbXrecord
280
1
 40
231.8315420324956904
  0
ENDSEC
  0
EOF
