<svg xmlns="http://www.w3.org/2000/svg" xmlns:xlink="http://www.w3.org/1999/xlink" viewBox="0 0 512 512"><defs><clipPath><path d="m55.8 12l.76.16c8.84-2.94 28.68 8.64 24.26 18.96-1.12 1.62-.93 4.5.42 6.31l-24.81 24.82c-1.39-1.39-4.48-1.36-5.9 0l-41.03 39.38c-3.74 3.59-.8 6.64.78 8.25l7.36 7.36c1.61 1.6 5.86 3.76 8.88.56l38.72-40.81c1.35-1.42 1.36-4.47 0-5.87 0 0 .01-.02 0-.02l24.91-24.9c2.63 2.37 5.114 2.575 7.47 1.93 4.551-1.245 7.087 3.207 9.81 6.46l-1.23 1.21c-1.82 1.84-1.65 4.94.39 6.98 2.04 2.04 5.15 2.21 6.97.39l8.14-8.13c1.82-1.84 1.65-4.94-.4-6.97-1.84-1.85-4.51-2.09-6.37-.77-5.58-6.26-2.65-7.2-10.01-15.35l-13.79-14.09c-9.93-9.74-22.83-9.73-35.33-5.86"/></clipPath><clipPath><path d="m55.8 12l.76.16c8.84-2.94 28.68 8.64 24.26 18.96-1.12 1.62-.93 4.5.42 6.31l-24.81 24.82c-1.39-1.39-4.48-1.36-5.9 0l-41.03 39.38c-3.74 3.59-.8 6.64.78 8.25l7.36 7.36c1.61 1.6 5.86 3.76 8.88.56l38.72-40.81c1.35-1.42 1.36-4.47 0-5.87 0 0 .01-.02 0-.02l24.91-24.9c2.63 2.37 5.114 2.575 7.47 1.93 4.551-1.245 7.087 3.207 9.81 6.46l-1.23 1.21c-1.82 1.84-1.65 4.94.39 6.98 2.04 2.04 5.15 2.21 6.97.39l8.14-8.13c1.82-1.84 1.65-4.94-.4-6.97-1.84-1.85-4.51-2.09-6.37-.77-5.58-6.26-2.65-7.2-10.01-15.35l-13.79-14.09c-9.93-9.74-22.83-9.73-35.33-5.86"/></clipPath><clipPath id="0"><path id="D" d="m22.42 17.2l12.96 12.95-2.5 8.78-8.78 2.5-12.96-12.96-5.86 5.86 14.89 21.46 17.56-3.34 61.63 65.62c9.44 9.51 22.17-4.75 13.34-12.87l-65.85-62.28 4.01-17.76-22.14-14.27-6.3 6.31m81.06 91.97c1.68-1.68 4.4-1.68 6.08 0 1.68 1.68 1.68 4.4 0 6.08-1.68 1.67-4.4 1.67-6.08 0-1.68-1.68-1.68-4.4 0-6.08"/></clipPath><linearGradient xlink:href="#6" id="8" y1="6145.31" x1="2482.96" y2="6037.53" x2="2375.5" gradientUnits="userSpaceOnUse"/><linearGradient id="9"><stop style="stop-color:#fff"/><stop offset="1" style="stop-color:#fff;stop-opacity:0"/></linearGradient><linearGradient xlink:href="#6" id="A" y1="62.999" x1="73.58" y2="83.48" x2="83.997" gradientUnits="userSpaceOnUse"/><linearGradient gradientTransform="matrix(.1.1-.22.2 75.6-33.53)" xlink:href="#9" id="B" y1="69.99" x1="637.03" y2="118.3" x2="638.3" gradientUnits="userSpaceOnUse"/><linearGradient xlink:href="#9" id="7" y1="65.82" x1="36.68" y2="38.858" x2="63.839" gradientUnits="userSpaceOnUse"/><linearGradient xlink:href="#6" id="5" x1="133.04" x2="120.74" gradientUnits="userSpaceOnUse" y1="9.401" y2="-2.896"/><linearGradient xlink:href="#9" id="1" y1="-18.829" y2="-11.656" x2="45.696" gradientUnits="userSpaceOnUse" x1="52.869"/><linearGradient id="6"><stop/><stop offset="1" style="stop-opacity:0"/></linearGradient><linearGradient xlink:href="#9" id="2" x1="123.56" x2="127.36" gradientUnits="userSpaceOnUse" y1="-.08" y2="3.723"/><linearGradient gradientTransform="matrix(.0807.0775-.35.36 77.14-45.89)" xlink:href="#9" id="4" y1="254.36" x1="512.7" y2="254.83" x2="615.59" gradientUnits="userSpaceOnUse"/><linearGradient xlink:href="#9" id="C" y1="37.78" x1="48.31" y2="51.05" x2="40.592" gradientUnits="userSpaceOnUse"/><linearGradient xlink:href="#9" id="3" y1="-42.18" y2="-48.26" x2="9.192" gradientUnits="userSpaceOnUse" x1="3.107"/></defs><g transform="matrix(3.47443 0 0 3.47443 33.22 28.76)"><g style="stroke:#fff;stroke-linejoin:round"><use width="128" height="128" xlink:href="#D" style="opacity:.25;stroke-width:8"/><use width="128" height="128" xlink:href="#D" style="opacity:.5;stroke-width:4"/></g><use width="128" height="128" xlink:href="#D" style="fill:#888a85"/><use width="128" height="128" xlink:href="#D" style="clip-path:url(#0);stroke-opacity:.2;fill:none;stroke:#fff;stroke-width:4"/><path d="m24.33 15.4l13.45 13.38-3.33 11.69-10.95 3.27-13.568-13.74-4.732 4.54 14.2 19.94 18.9-4.14 62.5 66.36c7.5 8.3 20.2-2.67 11.14-11.6l-66.9-63.1 3.86-17.17-19.96-14.03-4.61 4.6m79.97 93.3c1.67-1.67 4.63-2 6.3-.3 1.7 1.67 3.06 4.63.65 7.84-2 2-5.2 1.92-7.2-.24-1.68-1.68-1.45-5.6.25-7.3" style="fill:url(#7);opacity:.75"/><path d="m24.2 15.42l23.47 23.65 3.22-13.87-22.1-14.4-4.59 4.62" style="fill:url(#C);opacity:.5"/><path d="m70.74 65.52l4.631 4.28c.38 4.32-.73 5.62-7.83 11.64l-8.6-9.22 11.79-6.7h.009" style="fill:url(#A);opacity:.5"/><path d="m82.92 35.75l-29.45 29.45 8.83 8.83 29.45-29.44-8.83-8.84" style="fill:#d3d7cf"/><path d="m88.93 41.76l-29.45 29.44 2.82 2.83 29.45-29.44-2.82-2.83" style="fill:url(#8);opacity:.5"/><path d="m86.46 37.04l-29.33 29.33 3.79 3.79 28.58-30.08-3.04-3.04" style="fill:url(#2)"/><path d="m55.8 12l.76.16c8.84-2.94 28.68 8.64 24.26 18.96-1.12 1.62-.93 4.5.42 6.31l8.91 8.77c2.63 2.37 5.11 2.57 7.47 1.93 4.55-1.23 7.08 3.2 9.81 6.46l-1.23 1.21c-1.82 1.84-1.65 4.94.39 6.98 2.04 2.04 5.15 2.21 6.97.39l8.14-8.13c1.82-1.84 1.65-4.94-.4-6.97-1.84-1.85-4.51-2.09-6.37-.77-5.58-6.26-2.65-7.2-10.01-15.35l-13.79-14.09c-9.93-9.74-22.83-9.73-35.33-5.86" style="fill:#2e3436"/><path d="m114.93 47.3c-5.58-6.26-2.65-7.2-10.01-15.35l-13.79-14.09c-5.69-5.58-12.36-7.96-19.36-8.26l41.13 41.53 2.975-2.73-.945-1.1" style="fill:url(#1);opacity:.5"/><path d="m81.45 28c.05 1-.179 2-.65 3.12-1.1 1.62-.91 4.5.44 6.31l8.91 8.77c2.63 2.37 5.11 2.57 7.47 1.93 1.08-.33 2.06-.27 2.98 0 2.8.77-19.16-20.55-19.15-20.23v.1" style="fill:url(#3);opacity:.5"/><path d="m56.43 62.25c-1.39-1.39-4.48-1.36-5.9 0l-41.03 39.38c-3.74 3.59-.82 6.64.78 8.25l7.36 7.36c1.61 1.6 5.86 3.76 8.88.56l38.72-40.81c1.35-1.42 1.36-4.47 0-5.87 0 0 .01-.02 0-.02l-8.81-8.85" style="fill:#3465a4"/><path d="m10.27 109.87l7.36 7.37c1.61 1.6 5.73 3.89 8.75.71l38.87-40.97c1.35-1.43 1.39-4.5 0-5.88l-8.83-8.84-46.15 47.61" style="fill:url(#5);opacity:.5"/><path d="m51.2 65.7l-38.88 38.04c-1.62 1.56-1.07 3.75.1 4.89l4.13 3.97 42.37-43.6-3.92-3.68c-.84-.8-2.8-.57-3.8.38" style="fill:url(#4);opacity:.5"/><path d="m120.45 49.26c1.51 1.44 1.8 3.44-.28 5.36l-3.87 3.63c-2.08 1.95-7.52-3.25-5.45-5.19l3.88-3.63c2.07-1.95 4.21-1.61 5.72-.17" style="fill:url(#B)"/></g></svg>
