<?xml version="1.0" encoding="UTF-8"?>
<!-- 2016-05-25 09:57:46 Generated by QCAD SVG Exporter -->
<svg width="268.5" height="67.5" viewBox="31.5 -157.5 268.5 67.5" version="1.1" xmlns="http://www.w3.org/2000/svg" style="stroke-linecap:round;stroke-linejoin:round;fill:none">
    <g transform="scale(1,-1)">
        <!-- Line -->
        <path d="M45,135 L45,90 " style="stroke:#000000;stroke-width:1;"/>
        <!-- Line -->
        <path d="M45,90 L135,90 " style="stroke:#000000;stroke-width:1;"/>
        <!-- Line -->
        <path d="M135,90 L135,135 " style="stroke:#000000;stroke-width:1;"/>
        <!-- Line -->
        <path d="M135,135 L45,135 " style="stroke:#000000;stroke-width:1;"/>
        <!-- Line -->
        <path d="M210,90 L300,90 " style="stroke:#000000;stroke-width:1;"/>
        <!-- Line -->
        <path d="M300,90 L300,135 " style="stroke:#000000;stroke-width:1;"/>
        <!-- Line -->
        <path d="M300,135 L210,135 " style="stroke:#000000;stroke-width:1;"/>
        <!-- Line -->
        <path d="M210,157.5 L210,90 " style="stroke:#000000;stroke-width:1;"/>
        <!-- Text: 2. -->
        <g>
            <path d="M37.44982264665757,122.52523874488405 L37.44982264665757,121.46316507503411 L31.50098226466576,121.46316507503411 C31.492796725784448,121.72919508867668 31.535770804911323,121.9849931787176 31.629904502046386,122.23055934515689 C31.781336971350616,122.63574351978173 32.02383356070941,123.03478854024557 32.35739427012278,123.42769440654844 C32.69095497953615,123.8206002728513 33.17287858117326,124.27489768076398 33.80316507503411,124.7905866302865 C34.78133697135061,125.59276944065485 35.442319236016374,126.22817189631651 35.78611186903138,126.6967939972715 C36.12990450204639,127.16541609822647 36.301800818553886,127.60845839017736 36.301800818553886,128.02592087312416 C36.301800818553886,128.4638472032742 36.14525238744884,128.83321964529333 35.83215552523875,129.13403819918145 C35.51905866302865,129.4348567530696 35.11080491132333,129.58526603001366 34.60739427012278,129.58526603001366 C34.075334242837656,129.58526603001366 33.64968622100955,129.4256480218281 33.330450204638474,129.10641200545703 C33.011214188267395,128.78717598908597 32.849549795361526,128.34515688949523 32.84545702592087,127.78035470668486 L31.709713506139153,127.89699863574353 C31.787476125511596,128.7442019099591 32.08010914051842,129.3898362892224 32.587612551159616,129.83390177353343 C33.09511596180082,130.27796725784447 33.77656207366985,130.5 34.63195088676671,130.5 C35.49552523874488,130.5 36.17901773533424,130.2605729877217 36.68242837653479,129.78171896316508 C37.18583901773533,129.30286493860845 37.437544338335606,128.7094133697135 37.437544338335606,128.00136425648023 C37.437544338335606,127.6412005457026 37.36387448840382,127.28717598908595 37.216534788540244,126.93929058663029 C37.06919508867667,126.59140518417463 36.82465211459755,126.22510231923602 36.482905866302865,125.84038199181447 C36.14115961800819,125.4556616643929 35.573287858117325,124.92769440654844 34.77929058663029,124.25648021828104 C34.116261937244204,123.69986357435198 33.6906139154161,123.32230559345157 33.502346521145974,123.12380627557981 C33.31407912687585,122.92530695770806 33.15855388813097,122.72578444747613 33.03577080491132,122.52523874488405 Z M39.25399727148704,121.46316507503411 L39.25399727148704,122.72169167803547 L40.51252387448841,122.72169167803547 L40.51252387448841,121.46316507503411 Z" style="fill:#000000;fill-rule:evenodd;"/>
        </g>
    </g>
</svg>
