<?xml version="1.0" encoding="UTF-8" standalone="no"?>
<svg
   xmlns:dc="http://purl.org/dc/elements/1.1/"
   xmlns:cc="http://creativecommons.org/ns#"
   xmlns:rdf="http://www.w3.org/1999/02/22-rdf-syntax-ns#"
   xmlns:svg="http://www.w3.org/2000/svg"
   xmlns="http://www.w3.org/2000/svg"
   xmlns:xlink="http://www.w3.org/1999/xlink"
   xmlns:sodipodi="http://sodipodi.sourceforge.net/DTD/sodipodi-0.dtd"
   xmlns:inkscape="http://www.inkscape.org/namespaces/inkscape"
   width="512"
   height="512"
   id="svg2"
   version="1.1"
   inkscape:version="0.48.2 r9819"
   sodipodi:docname="Edit.svg">
  <metadata
     id="metadata173">
    <rdf:RDF>
      <cc:Work
         rdf:about="">
        <dc:format>image/svg+xml</dc:format>
        <dc:type
           rdf:resource="http://purl.org/dc/dcmitype/StillImage" />
      </cc:Work>
    </rdf:RDF>
  </metadata>
  <sodipodi:namedview
     pagecolor="#ffffff"
     bordercolor="#666666"
     borderopacity="1"
     objecttolerance="10"
     gridtolerance="10"
     guidetolerance="10"
     inkscape:pageopacity="0"
     inkscape:pageshadow="2"
     inkscape:window-width="2090"
     inkscape:window-height="1195"
     id="namedview171"
     showgrid="false"
     inkscape:zoom="0.92187498"
     inkscape:cx="161.29891"
     inkscape:cy="221.43159"
     inkscape:window-x="585"
     inkscape:window-y="55"
     inkscape:window-maximized="0"
     inkscape:current-layer="svg2" />
  <defs
     id="defs4">
    <linearGradient
       gradientUnits="userSpaceOnUse"
       x2="137.602"
       y2="160.182"
       x1="65.095"
       y1="-.795"
       id="XMLID_13_">
      <stop
         id="stop3372"
         stop-color="#ffa700"
         offset="0" />
      <stop
         id="stop3374"
         stop-color="#ffd700"
         offset=".775" />
      <stop
         id="stop3376"
         stop-color="#ff794b"
         offset="1" />
    </linearGradient>
    <linearGradient
       gradientUnits="userSpaceOnUse"
       x2="-360.246"
       y2="-164.221"
       x1="-481.701"
       y1="-94.419"
       id="XMLID_11_"
       gradientTransform="matrix(.1991 .98 -.98 .1991 91.6944 573.565)">
      <stop
         id="stop3367"
         stop-color="#900"
         offset="0" />
      <stop
         id="stop3369"
         stop-color="#7c0000"
         offset="1" />
    </linearGradient>
    <linearGradient
       gradientUnits="userSpaceOnUse"
       x2="-1355.045"
       y2="706.322"
       x1="-1375.984"
       y1="685.381"
       id="XMLID_12_"
       gradientTransform="matrix(-.999 .0435 .0435 .999 -1277.01 -496.517)">
      <stop
         id="stop3362"
         stop-color="#f8f1dc"
         offset="0" />
      <stop
         id="stop3364"
         stop-color="#d6a84a"
         offset="1" />
    </linearGradient>
    <linearGradient
       gradientUnits="userSpaceOnUse"
       x2="-1325.322"
       y2="622.533"
       x1="-1336.45"
       y1="635.795"
       id="XMLID_14_"
       gradientTransform="matrix(-.999 .0435 .0435 .999 -1277.01 -496.517)">
      <stop
         id="stop3357"
         stop-color="#ffc957"
         offset="0" />
      <stop
         id="stop3359"
         stop-color="#ff6d00"
         offset="1" />
    </linearGradient>
    <linearGradient
       gradientUnits="userSpaceOnUse"
       x2="-1354.685"
       y2="699.476"
       x1="-1401.459"
       y1="595.631"
       id="XMLID_15_"
       gradientTransform="matrix(-.999 .0435 .0435 .999 -1277.01 -496.517)">
      <stop
         id="stop3341"
         stop-color="#ffa700"
         offset="0" />
      <stop
         id="stop3343"
         stop-color="#ffd700"
         offset=".775" />
      <stop
         id="stop3345"
         stop-color="#ff9200"
         offset="1" />
    </linearGradient>
    <linearGradient
       gradientUnits="userSpaceOnUse"
       x2="144.59"
       x1="67.845"
       id="XMLID_16_">
      <stop
         id="stop3330"
         stop-color="#7d7d99"
         offset="0" />
      <stop
         id="stop3332"
         stop-color="#b1b1c5"
         offset=".18" />
      <stop
         id="stop3334"
         stop-color="#bcbcc8"
         offset=".373" />
      <stop
         id="stop3336"
         stop-color="#c8c8cb"
         offset=".682" />
      <stop
         id="stop3338"
         stop-color="#ccc"
         offset="1" />
    </linearGradient>
    <linearGradient
       inkscape:collect="always"
       xlink:href="#XMLID_11_"
       id="linearGradient3132"
       gradientUnits="userSpaceOnUse"
       gradientTransform="matrix(0.1991,0.98,-0.98,0.1991,91.6944,573.565)"
       x1="-481.701"
       y1="-94.419"
       x2="-360.246"
       y2="-164.221" />
    <linearGradient
       inkscape:collect="always"
       xlink:href="#XMLID_12_"
       id="linearGradient3134"
       gradientUnits="userSpaceOnUse"
       gradientTransform="matrix(-0.999,0.0435,0.0435,0.999,-1277.01,-496.517)"
       x1="-1375.984"
       y1="685.381"
       x2="-1355.045"
       y2="706.322" />
    <linearGradient
       inkscape:collect="always"
       xlink:href="#XMLID_13_"
       id="linearGradient3136"
       gradientUnits="userSpaceOnUse"
       x1="65.095"
       y1="-.795"
       x2="137.602"
       y2="160.182" />
    <linearGradient
       inkscape:collect="always"
       xlink:href="#XMLID_14_"
       id="linearGradient3138"
       gradientUnits="userSpaceOnUse"
       gradientTransform="matrix(-0.999,0.0435,0.0435,0.999,-1277.01,-496.517)"
       x1="-1336.45"
       y1="635.795"
       x2="-1325.322"
       y2="622.533" />
    <linearGradient
       inkscape:collect="always"
       xlink:href="#XMLID_15_"
       id="linearGradient3140"
       gradientUnits="userSpaceOnUse"
       gradientTransform="matrix(-0.999,0.0435,0.0435,0.999,-1277.01,-496.517)"
       x1="-1401.459"
       y1="595.631"
       x2="-1354.685"
       y2="699.476" />
    <linearGradient
       inkscape:collect="always"
       xlink:href="#XMLID_16_"
       id="linearGradient3142"
       gradientUnits="userSpaceOnUse"
       x1="67.845"
       x2="144.59" />
    <linearGradient
       gradientUnits="userSpaceOnUse"
       x2="607.66"
       y2="-186.26"
       x1="646.24"
       y1="-252.6"
       id="lg51-5"
       xlink:href="#WhiteTransparent-0"
       gradientTransform="matrix(0.2,0,0,0.2,-80.94,88.3)" />
    <linearGradient
       gradientUnits="userSpaceOnUse"
       x2="638.3"
       y2="118.3"
       x1="637.03"
       y1="69.99"
       id="lg1999-5"
       xlink:href="#WhiteTransparent-0"
       gradientTransform="matrix(0.1,0.1,-0.22,0.2,75.6,-33.53)" />
    <linearGradient
       gradientUnits="userSpaceOnUse"
       x2="84.3"
       y2="86.68"
       x1="73.88"
       y1="66.2"
       id="lgdg-5"
       xlink:href="#BlackTransparent-4"
       gradientTransform="translate(-0.30267,-3.20138)" />
    <linearGradient
       id="WhiteTransparent-0">
      <stop
         id="stop4385"
         stop-color="#fff"
         offset="0" />
      <stop
         id="stop4387"
         stop-opacity="0"
         stop-color="#fff"
         offset="1" />
    </linearGradient>
    <linearGradient
       gradientUnits="userSpaceOnUse"
       x2="2375.498"
       y2="6037.526"
       x1="2482.957"
       y1="6145.308"
       id="lg19-5"
       xlink:href="#BlackTransparent-4" />
    <linearGradient
       gradientUnits="userSpaceOnUse"
       x2="655.42"
       y2="-241.2"
       x1="550.96"
       y1="-137.5"
       id="lg55-2"
       xlink:href="#WhiteTransparent-0"
       gradientTransform="matrix(0.26,0,0,0.26,-106.57,101.57)" />
    <linearGradient
       id="BlackTransparent-4">
      <stop
         id="stop4378"
         offset="0" />
      <stop
         id="stop4380"
         stop-opacity="0"
         offset="1" />
    </linearGradient>
    <linearGradient
       gradientUnits="userSpaceOnUse"
       x2="419.88"
       x1="543.1"
       id="lg05-7"
       xlink:href="#BlackTransparent-4"
       gradientTransform="matrix(0.0998,0.0998,-0.28,0.28,78.84,-44.8)" />
    <linearGradient
       gradientUnits="userSpaceOnUse"
       x2="615.59"
       y2="254.83"
       x1="512.7"
       y1="254.36"
       id="lg02-4"
       xlink:href="#WhiteTransparent-0"
       gradientTransform="matrix(0.0807,0.0775,-0.35,0.36,77.14,-45.89)" />
    <linearGradient
       gradientUnits="userSpaceOnUse"
       x2="0"
       y2="-1.72"
       y1="62.74"
       id="lg09-3"
       xlink:href="#WhiteTransparent-0"
       gradientTransform="matrix(0.33,0.33,-0.0944,0.0944,9.03,-48.1)" />
    <linearGradient
       gradientUnits="userSpaceOnUse"
       x2="626.1"
       x1="577.03"
       id="lg16-6"
       xlink:href="#WhiteTransparent-0"
       gradientTransform="matrix(0.0775,0.0775,-0.36,0.36,78.84,-44.8)" />
    <linearGradient
       gradientUnits="userSpaceOnUse"
       x2="0"
       y2="368.27"
       y1="288.57"
       id="lg12-9"
       xlink:href="#WhiteTransparent-0"
       gradientTransform="matrix(0.3,0.3,-0.09,0.09,78.84,-44.8)" />
    <clipPath
       id="clipPath4368"
       clipPathUnits="userSpaceOnUse">
      <path
         id="path4370"
         d="m55.8,12 .76,.16c8.84-2.94 28.68,8.64 24.26,18.96-1.12,1.62-.93,4.5 .42,6.31l-24.81,24.82c-1.39-1.39-4.48-1.36-5.9,0l-41.03,39.38c-3.74,3.59-.8,6.64 .78,8.25l7.36,7.36c1.61,1.6 5.86,3.76 8.88,.56l38.72-40.81c1.35-1.42 1.36-4.47 0-5.87 0,0 .01-.02 0-.02l24.91-24.9c2.63,2.37 5.1138,2.5749 7.47,1.93 4.5506-1.2454 7.0872,3.2066 9.81,6.46l-1.23,1.21c-1.82,1.84-1.65,4.94 .39,6.98 2.04,2.04 5.15,2.21 6.97,.39l8.14-8.13c1.82-1.84 1.65-4.94-.4-6.97-1.84-1.85-4.51-2.09-6.37-.77-5.58-6.26-2.65-7.2-10.01-15.35l-13.79-14.09c-9.93-9.74-22.83-9.73-35.33-5.86z" />
    </clipPath>
    <clipPath
       id="clipPath4364"
       clipPathUnits="userSpaceOnUse">
      <path
         id="path4366"
         d="m22.42,17.2 12.96,12.95-2.5,8.78-8.78,2.5-12.96-12.96-5.86,5.86 14.89,21.46 17.56-3.34 61.63,65.62c9.44,9.51 22.17-4.75 13.34-12.87l-65.85-62.28 4.01-17.76-22.14-14.27-6.3,6.31zm81.06,91.97c1.68-1.68 4.4-1.68 6.08,0 1.68,1.68 1.68,4.4 0,6.08-1.68,1.67-4.4,1.67-6.08,0-1.68-1.68-1.68-4.4 0-6.08z" />
    </clipPath>
    <clipPath
       id="clipPath4360"
       clipPathUnits="userSpaceOnUse">
      <path
         id="path4362"
         d="m22.42,17.2 12.96,12.95-2.5,8.78-8.78,2.5-12.96-12.96-5.86,5.86 14.89,21.46 17.56-3.34 61.63,65.62c9.44,9.51 22.17-4.75 13.34-12.87l-65.85-62.28 4.01-17.76-22.14-14.27-6.3,6.31zm81.06,91.97c1.68-1.68 4.4-1.68 6.08,0 1.68,1.68 1.68,4.4 0,6.08-1.68,1.67-4.4,1.67-6.08,0-1.68-1.68-1.68-4.4 0-6.08z" />
    </clipPath>
    <clipPath
       clipPathUnits="userSpaceOnUse"
       id="clipoutline2-5">
      <path
         d="m55.8,12 .76,.16c8.84-2.94 28.68,8.64 24.26,18.96-1.12,1.62-.93,4.5 .42,6.31l-24.81,24.82c-1.39-1.39-4.48-1.36-5.9,0l-41.03,39.38c-3.74,3.59-.8,6.64 .78,8.25l7.36,7.36c1.61,1.6 5.86,3.76 8.88,.56l38.72-40.81c1.35-1.42 1.36-4.47 0-5.87 0,0 .01-.02 0-.02l24.91-24.9c2.63,2.37 5.1138,2.5749 7.47,1.93 4.5506-1.2454 7.0872,3.2066 9.81,6.46l-1.23,1.21c-1.82,1.84-1.65,4.94 .39,6.98 2.04,2.04 5.15,2.21 6.97,.39l8.14-8.13c1.82-1.84 1.65-4.94-.4-6.97-1.84-1.85-4.51-2.09-6.37-.77-5.58-6.26-2.65-7.2-10.01-15.35l-13.79-14.09c-9.93-9.74-22.83-9.73-35.33-5.86z"
         id="outline2-2" />
    </clipPath>
    <clipPath
       id="clipPath4354"
       clipPathUnits="userSpaceOnUse">
      <path
         id="path4356"
         d="m55.8,12 .76,.16c8.84-2.94 28.68,8.64 24.26,18.96-1.12,1.62-.93,4.5 .42,6.31l-24.81,24.82c-1.39-1.39-4.48-1.36-5.9,0l-41.03,39.38c-3.74,3.59-.8,6.64 .78,8.25l7.36,7.36c1.61,1.6 5.86,3.76 8.88,.56l38.72-40.81c1.35-1.42 1.36-4.47 0-5.87 0,0 .01-.02 0-.02l24.91-24.9c2.63,2.37 5.1138,2.5749 7.47,1.93 4.5506-1.2454 7.0872,3.2066 9.81,6.46l-1.23,1.21c-1.82,1.84-1.65,4.94 .39,6.98 2.04,2.04 5.15,2.21 6.97,.39l8.14-8.13c1.82-1.84 1.65-4.94-.4-6.97-1.84-1.85-4.51-2.09-6.37-.77-5.58-6.26-2.65-7.2-10.01-15.35l-13.79-14.09c-9.93-9.74-22.83-9.73-35.33-5.86z" />
    </clipPath>
    <clipPath
       clipPathUnits="userSpaceOnUse"
       id="clipoutline1-6">
      <path
         d="m22.42,17.2 12.96,12.95-2.5,8.78-8.78,2.5-12.96-12.96-5.86,5.86 14.89,21.46 17.56-3.34 61.63,65.62c9.44,9.51 22.17-4.75 13.34-12.87l-65.85-62.28 4.01-17.76-22.14-14.27-6.3,6.31zm81.06,91.97c1.68-1.68 4.4-1.68 6.08,0 1.68,1.68 1.68,4.4 0,6.08-1.68,1.67-4.4,1.67-6.08,0-1.68-1.68-1.68-4.4 0-6.08z"
         id="outline1-3" />
    </clipPath>
    <linearGradient
       inkscape:collect="always"
       xlink:href="#BlackTransparent-4"
       id="linearGradient4518"
       gradientUnits="userSpaceOnUse"
       x1="2482.957"
       y1="6145.308"
       x2="2375.498"
       y2="6037.526" />
    <linearGradient
       inkscape:collect="always"
       xlink:href="#WhiteTransparent-0"
       id="linearGradient4520"
       gradientUnits="userSpaceOnUse"
       gradientTransform="matrix(0.0775,0.0775,-0.36,0.36,78.84,-44.8)"
       x1="577.03"
       x2="626.1" />
    <linearGradient
       inkscape:collect="always"
       xlink:href="#WhiteTransparent-0"
       id="linearGradient4522"
       gradientUnits="userSpaceOnUse"
       gradientTransform="matrix(0.3,0.3,-0.09,0.09,78.84,-44.8)"
       y1="288.57"
       x2="0"
       y2="368.27" />
    <linearGradient
       inkscape:collect="always"
       xlink:href="#WhiteTransparent-0"
       id="linearGradient4524"
       gradientUnits="userSpaceOnUse"
       gradientTransform="matrix(0.33,0.33,-0.0944,0.0944,9.03,-48.1)"
       y1="62.74"
       x2="0"
       y2="-1.72" />
    <linearGradient
       inkscape:collect="always"
       xlink:href="#BlackTransparent-4"
       id="linearGradient4526"
       gradientUnits="userSpaceOnUse"
       gradientTransform="matrix(0.0998,0.0998,-0.28,0.28,78.84,-44.8)"
       x1="543.1"
       x2="419.88" />
    <linearGradient
       inkscape:collect="always"
       xlink:href="#WhiteTransparent-0"
       id="linearGradient4528"
       gradientUnits="userSpaceOnUse"
       gradientTransform="matrix(0.0807,0.0775,-0.35,0.36,77.14,-45.89)"
       x1="512.7"
       y1="254.36"
       x2="615.59"
       y2="254.83" />
    <linearGradient
       inkscape:collect="always"
       xlink:href="#WhiteTransparent-0"
       id="linearGradient4530"
       gradientUnits="userSpaceOnUse"
       gradientTransform="matrix(0.1,0.1,-0.22,0.2,75.6,-33.53)"
       x1="637.03"
       y1="69.99"
       x2="638.3"
       y2="118.3" />
    <linearGradient
       inkscape:collect="always"
       xlink:href="#WhiteTransparent-0"
       id="linearGradient4536"
       gradientUnits="userSpaceOnUse"
       gradientTransform="matrix(0.26,0,0,0.26,-106.57,101.57)"
       x1="550.96"
       y1="-137.5"
       x2="655.42"
       y2="-241.2" />
    <linearGradient
       inkscape:collect="always"
       xlink:href="#WhiteTransparent-0"
       id="linearGradient4538"
       gradientUnits="userSpaceOnUse"
       gradientTransform="matrix(0.2,0,0,0.2,-80.94,88.3)"
       x1="646.24"
       y1="-252.6"
       x2="607.66"
       y2="-186.26" />
  </defs>
  <g
     transform="matrix(2.2101334,18.040214,-18.040214,2.2101334,245.58083,695.30288)"
     id="g3458">
    <path
       style="fill:#ffffff"
       inkscape:connector-curvature="0"
       d="M 186.43,189.355 C 174.817,153.23 172.717,146.689 171.567,145.294 171.69,145.366 171.86,145.474 171.86,145.474 L 93.314,58.016 C 89.115,53.365 79.299,58.373 71.955,64.993 64.672,71.536 58.633,80.767 62.585,85.559 L 141.526,173.1 142.061,173.198 179.832,190.796 187.518,193.159 186.43,189.355 z"
       transform="matrix(0.125,0,0,0.125,-41.5177,12.7588)"
       id="path3466" />
    <path
       style="fill:url(#linearGradient3132)"
       inkscape:connector-curvature="0"
       d="M 186.43,189.355 C 174.817,153.23 172.717,146.689 171.567,145.294 171.69,145.366 171.86,145.474 171.86,145.474 L 93.314,58.016 C 89.115,53.365 79.299,58.373 71.955,64.993 64.672,71.536 58.633,80.767 62.585,85.559 L 141.526,173.1 142.061,173.198 179.832,190.796 187.518,193.159 186.43,189.355 z"
       transform="matrix(0.125,0,0,0.125,-41.5177,12.7588)"
       id="path3468" />
    <path
       style="fill:url(#linearGradient3134)"
       inkscape:connector-curvature="0"
       d="M 166.969,147.762 180.692,185.891 144.321,167.989 144.489,167.837 C 144.239,167.757 143.993,167.659 143.788,167.521 L 143.663,167.642 68.36,84.072 68.483,83.968 C 66.237,81.478 69.515,74.874 75.791,69.216 82.071,63.564 88.971,60.997 91.216,63.483 L 166.508,147.048 166.969,147.762 z"
       transform="matrix(0.125,0,0,0.125,-41.5177,12.7588)"
       id="path3470" />
    <path
       style="fill:url(#linearGradient3136)"
       inkscape:connector-curvature="0"
       d="M 148.652,170.121 C 150.728,169.752 153.287,168.642 155.904,166.982 157.521,165.964 159.183,164.699 160.802,163.238 162.257,161.935 163.538,160.572 164.642,159.228 166.718,156.697 167.964,154.015 168.423,151.804 L 166.968,147.761 166.505,147.046 91.707,64.028 C 92.315,66.268 90.745,69.966 87.644,73.768 86.51,75.157 85.203,76.557 83.699,77.909 82.125,79.328 80.504,80.561 78.932,81.563 74.439,84.434 70.304,85.491 68.384,84.049 L 68.359,84.07 143.662,167.64 143.787,167.519 C 143.992,167.658 144.238,167.755 144.488,167.835 L 144.32,167.987 148.652,170.121 z"
       transform="matrix(0.125,0,0,0.125,-41.5177,12.7588)"
       id="path3472" />
    <g
       style="fill:#ffffff"
       id="g3474">
      <path
         inkscape:connector-curvature="0"
         d="M 68.083,83.41 C 69.815,85.182 74.077,84.186 78.726,81.216 80.267,80.234 81.858,79.023 83.403,77.63 84.879,76.305 86.162,74.929 87.275,73.567 90.853,69.179 92.366,64.925 90.752,62.983 L 90.775,62.959 166.592,147.078 C 167.227,149.34 166.004,153.576 162.838,157.435 161.756,158.753 160.498,160.091 159.068,161.369 157.48,162.803 155.849,164.045 154.261,165.045 149.521,168.051 144.958,169.244 143.245,167.346 142.852,166.907 141.147,165.01 141.1,164.94 L 67.845,83.626 68.083,83.41 z"
         transform="matrix(0.125,0,0,0.125,-41.5177,12.7588)"
         id="path3476" />
      <path
         inkscape:connector-curvature="0"
         d="M 75.79,69.215 C 82.07,63.563 88.97,60.996 91.215,63.482 L 108.176,82.31 109.328,108.8 91.355,109.584 68.359,84.071 68.482,83.967 C 66.236,81.477 69.514,74.874 75.79,69.215 z"
         transform="matrix(0.125,0,0,0.125,-41.5177,12.7588)"
         id="path3478" />
      <path
         inkscape:connector-curvature="0"
         d="M 68.083,83.41 C 69.815,85.182 74.077,84.186 78.726,81.216 80.267,80.234 81.858,79.023 83.403,77.63 84.879,76.305 86.162,74.929 87.275,73.567 90.853,69.179 92.366,64.925 90.752,62.983 L 90.775,62.959 166.592,147.078 C 167.227,149.34 166.004,153.576 162.838,157.435 161.756,158.753 160.498,160.091 159.068,161.369 157.48,162.803 155.849,164.045 154.261,165.045 149.521,168.051 144.958,169.244 143.245,167.346 142.852,166.907 141.147,165.01 141.1,164.94 L 67.845,83.626 68.083,83.41 z"
         transform="matrix(0.125,0,0,0.125,-41.5177,12.7588)"
         id="path3480" />
    </g>
    <path
       style="fill:url(#linearGradient3138)"
       inkscape:connector-curvature="0"
       d="M 75.79,69.215 C 82.07,63.563 88.97,60.996 91.215,63.482 L 108.176,82.31 109.328,108.8 91.355,109.584 68.359,84.071 68.482,83.967 C 66.236,81.477 69.514,74.874 75.79,69.215 z"
       transform="matrix(0.125,0,0,0.125,-41.5177,12.7588)"
       id="path3482" />
    <path
       style="fill:url(#linearGradient3140)"
       inkscape:connector-curvature="0"
       d="M 68.083,83.41 C 69.815,85.182 74.077,84.186 78.726,81.216 80.267,80.234 81.858,79.023 83.403,77.63 84.879,76.305 86.162,74.929 87.275,73.567 90.853,69.179 92.366,64.925 90.752,62.983 L 90.775,62.959 166.592,147.078 C 167.227,149.34 166.004,153.576 162.838,157.435 161.756,158.753 160.498,160.091 159.068,161.369 157.48,162.803 155.849,164.045 154.261,165.045 149.521,168.051 144.958,169.244 143.245,167.346 142.852,166.907 141.147,165.01 141.1,164.94 L 67.845,83.626 68.083,83.41 z"
       transform="matrix(0.125,0,0,0.125,-41.5177,12.7588)"
       id="path3484" />
    <path
       style="fill:url(#linearGradient3142)"
       inkscape:connector-curvature="0"
       d="M 74.357,90.713 C 74.357,90.713 80.393,90.501 85.042,87.531 86.584,86.548 88.174,85.338 89.719,83.945 91.196,82.619 92.479,81.244 93.592,79.881 96.52,76.292 98.061,72.793 97.641,70.574 L 90.776,62.957 90.753,62.981 C 92.367,64.923 90.855,69.177 87.276,73.565 86.163,74.927 84.88,76.303 83.404,77.628 81.859,79.021 80.268,80.232 78.727,81.214 74.079,84.185 69.817,85.181 68.084,83.408 L 67.846,83.625 141.102,164.936 C 141.149,165.006 142.854,166.903 143.247,167.342 143.589,167.719 144.046,167.969 144.591,168.113 L 74.357,90.713 z"
       transform="matrix(0.125,0,0,0.125,-41.5177,12.7588)"
       id="path3486" />
    <path
       style="fill:#003333"
       inkscape:connector-curvature="0"
       d="M 172.035,175.354 C 170.4,176.831 168.728,178.118 167.086,179.194 L 180.691,185.891 175.595,171.735 C 174.537,172.953 173.352,174.176 172.035,175.354 z"
       transform="matrix(0.125,0,0,0.125,-41.5177,12.7588)"
       id="path3488" />
    <g
       style="fill:#ffffff"
       id="g3490">
      <path
         style="opacity:0.5"
         inkscape:connector-curvature="0"
         d="M 163.121,157.053 86.968,73.93 C 87.068,73.81 87.181,73.688 87.275,73.566 88.703,71.814 89.795,70.076 90.5,68.508 L 166.268,151.215 C 165.715,153.039 164.668,155.082 163.121,157.053 z"
         transform="matrix(0.125,0,0,0.125,-41.5177,12.7588)"
         id="path3492" />
      <path
         style="opacity:0.5"
         inkscape:connector-curvature="0"
         d="M 87.275,73.566 C 87.909,72.792 88.464,72.018 88.969,71.266 L 164.984,154.24 C 164.406,155.303 163.701,156.386 162.838,157.433 162.094,158.329 161.272,159.238 160.373,160.13 L 84.152,76.932 C 85.316,75.824 86.361,74.692 87.275,73.566 z"
         transform="matrix(0.125,0,0,0.125,-41.5177,12.7588)"
         id="path3494" />
    </g>
  </g>
  <g
     transform="matrix(-1.1099442,2.8819813,-2.8819813,-1.1099442,522.14169,161.85455)"
     id="g4392">
    <use
       y="0"
       x="0"
       style="opacity:0.25;stroke:#000000;stroke-width:8;stroke-linejoin:round"
       width="128"
       class="outline-big"
       height="128"
       xlink:href="#outline1-3"
       id="use4394" />
    <use
       y="0"
       x="0"
       style="opacity:0.5;stroke:#000000;stroke-width:4;stroke-linejoin:round"
       width="128"
       class="outline-small"
       height="128"
       xlink:href="#outline1-3"
       id="use4396" />
    <use
       y="0"
       x="0"
       style="fill:#888a85"
       width="128"
       class="aluminium4"
       height="128"
       xlink:href="#outline1-3"
       id="use4398" />
    <use
       y="0"
       x="0"
       style="fill:none;stroke:#ffffff;stroke-width:4;stroke-opacity:0.2"
       width="128"
       class="stroke-highlight"
       height="128"
       xlink:href="#outline1-3"
       clip-path="url(#clipoutline1-6)"
       id="use4400" />
    <path
       style="opacity:0.75;fill:url(#linearGradient4536)"
       inkscape:connector-curvature="0"
       class="high-specularity"
       d="M 24.33,15.4 37.78,28.78 34.45,40.47 23.5,43.74 9.9319,30 5.2,34.54 19.4,54.48 38.3,50.34 100.8,116.7 C 108.3,125 121,114.03 111.94,105.1 L 45.04,42 48.9,24.83 28.94,10.8 24.33,15.4 z M 104.3,108.7 C 105.97,107.03 108.93,106.7 110.6,108.4 112.3,110.07 113.66,113.03 111.25,116.24 109.25,118.24 106.05,118.16 104.05,116 102.37,114.32 102.6,110.4 104.3,108.7 z"
       id="path4402" />
    <path
       style="opacity:0.5;fill:url(#linearGradient4538)"
       inkscape:connector-curvature="0"
       class="specularity"
       d="M 24.2,15.42 47.67,39.07 50.89,25.2 28.79,10.8 24.2,15.42 z"
       id="path4404" />
  </g>
  <g
     id="g3678"
     transform="matrix(6.6223525,-4.4340509e-8,4.4340509e-8,6.6223525,-544.71864,-67.598112)">
    <path
       id="path3680"
       transform="matrix(0.70711,-0.70711,0.70711,0.70711,0,0)"
       d="M -20.0747,26.068 H 18.5571 V 41.0132 H -20.0747 z"
       inkscape:connector-curvature="0"
       style="opacity:0.8;color:#000000;fill:#ffffff;fill-rule:evenodd" />
    <path
       id="path3682"
       d="M 14.491286,42.906161 3.985,32.5442 C 3.985,32.3956 5.0528,31.2041 6.3579,29.8963 7.663,28.5885 8.8173,27.2748 8.9231,26.977 9.0444,26.6355 13.15,22.4441 20.0417,15.6264 L 30.968,4.8173 32.8226,4.8253 34.6772,4.8333 38.4125,8.476 42.1478,12.1187 42.1478,14.1781 42.1478,16.2375 32.1121,26.3134 22.0764,36.3893 19.5562,38.3527 18.0298,39.845 C 17.1903,40.6658 16.5692,41.4032 16.6497,41.4836 z M 9.5352,32.386 11.9221,31.3324 11.2158,30.4508 C 10.8273,29.9659 10.2358,29.3092 9.9014,28.9914 L 9.2933,28.4136 7.2692,30.4154 C 6.1559,31.5163 5.2481,32.4649 5.2517,32.5233 5.2676,32.7805 6.5968,33.6147 6.8584,33.5317 7.0178,33.4811 8.2224,32.9656 9.5352,32.3861 z M 34.0472,15.8127 37.7375,12.2221 36.2566,10.7305 34.7757,9.2389 34.1201,9.8634 C 17.8572,21.7082 24.5326,24.1595 34.0472,15.8128 z"
       inkscape:connector-curvature="0"
       style="fill:#f0f0f0"
       sodipodi:nodetypes="ccscscccccccccccccccccccccccccccccc" />
    <path
       id="path3686"
       d="M 14.2015,43.0558 10.1055,39.117 C 10.1055,38.7211 9.4615,37.9748 6.8031,35.29 L 4.0904,32.5503 6.6479,29.9545 C 8.0545,28.5268 9.2054,27.2353 9.2054,27.0843 9.2054,26.9334 13.0734,23.0081 17.801,18.3613 27.5228,8.8058 30.4009,6.0773 30.7584,6.0773 30.8949,6.0773 31.5739,6.5656 32.2673,7.1623 32.9607,7.7591 33.6853,8.3456 33.8776,8.4657 34.0699,8.5858 34.2272,8.7933 34.2272,8.9268 34.2272,9.0603 29.4506,14.0024 23.6126,19.9093 L 12.998,30.6491 14.6416,32.3023 16.2852,33.9555 27.2303,23.1435 C 36.0607,14.4204 38.1434,12.2751 38.0096,12.0396 37.9184,11.8791 36.382,10.2955 34.5954,8.5206 32.8088,6.7457 31.347,5.2268 31.347,5.1454 31.347,5.0639 32.0805,4.9973 32.9769,4.9973 L 34.6068,4.9973 38.2899,8.6426 41.973,12.2879 41.9704,13.7292 C 41.969,14.5219 41.8894,15.4438 41.7936,15.7777 41.6623,16.2354 39.2341,18.7848 31.9361,26.1273 26.6102,31.4856 21.8161,36.3759 21.2825,36.9947 20.6993,37.671 20.1697,38.1198 19.955,38.1198 19.6217,38.1198 16.226,41.2527 16.226,41.5603 L 14.2016,43.0559 z M 18.7461,37.6547 C 18.7461,37.5444 16.6529,35.3164 14.0945,32.7036 L 9.4428,27.9531 7.1639,30.0929 C 5.9105,31.2698 4.885,32.324 4.885,32.4355 4.885,32.5471 7.0328,34.7806 9.6579,37.3988 L 14.4308,42.1593 16.5884,40.0073 C 17.7751,38.8237 18.746,37.765 18.746,37.6547 z M 41.2477,14.178 C 41.2477,13.683 41.2033,13.2779 41.1491,13.2779 41.0948,13.2779 40.8578,13.5007 40.6224,13.7729 L 40.1943,14.2679 40.5724,14.6729 C 41.1273,15.2673 41.2477,15.179 41.2477,14.1779 z"
       inkscape:connector-curvature="0"
       style="fill:#656364"
       sodipodi:nodetypes="ccscsssscssscccscssscccccscsccccscssccscccsccccc" />
    <path
       id="path3688"
       d="M 13.9133,42.436 C 12.547232,40.956415 12.235699,40.50616 11.1843,39.6204 L 10.396,38.5696 11.9018,39.9797 C 12.73,40.7553 13.5616,41.5856 13.7498,41.8248 13.938,42.064 14.2293,42.2598 14.3971,42.2598 14.6577,42.2598 17.3834,39.6321 18.7339,38.079 L 19.1604,37.5885 17.6032,35.9971 C 16.7467,35.1219 16.0549,34.33 16.0658,34.2374 16.089,34.0408 37.9445,12.4998 38.2212,12.4009 38.3237,12.3642 39.1723,13.1178 40.1069,14.0755 41.2942,15.2921 41.7767,15.9088 41.7082,16.1223 41.544,16.6345 20.1501,37.8265 19.4303,38.1901 18.6581,38.5801 15.8661,41.3718 15.8661,41.7539 15.8661,42.0463 14.9219,42.8029 14.5683,42.7938 14.4405,42.7905 14.1459,42.6294 13.9135,42.4358 z M 11.1907,29.405 C 10.3587,28.5547 9.5451,27.8589 9.3828,27.8589 9.1567,27.8589 9.1064,27.7314 9.1678,27.3135 9.2322,26.8746 10.9224,25.1223 17.8223,18.3404 27.5234,8.8053 30.4011,6.0773 30.7585,6.0773 30.895,6.0773 31.574,6.5656 32.2674,7.1623 32.9608,7.7591 33.6854,8.3456 33.8777,8.4657 34.07,8.5858 34.2231,8.8063 34.2179,8.9558 34.2127,9.1052 29.3699,14.1153 23.456,20.0893 L 12.7036,30.9511 11.1908,29.405 z M 37.8275,8.8675 C 35.9394,7.0359 34.2825,5.5373 34.1455,5.5373 34.0085,5.5373 33.6603,5.6728 33.3718,5.8384 32.875,6.1235 32.8221,6.1212 32.3728,5.7934 32.1119,5.6031 31.8958,5.3866 31.8927,5.3123 31.8896,5.238 32.463,5.1773 33.1671,5.1773 L 34.4471,5.1773 37.9824,8.684 C 39.9268,10.6127 41.4598,12.1923 41.3891,12.1943 41.3183,12.1963 39.7156,10.6992 37.8275,8.8676 z"
       inkscape:connector-curvature="0"
       style="fill:#dc5755"
       sodipodi:nodetypes="ccccssccccccccsccccscsscscsccccsccsscsccc" />
    <path
       id="path3690"
       d="M 13.9133,42.436 C 11.095785,40.66009 11.710651,40.126124 11.1843,39.6204 L 10.396,38.5696 11.9018,39.9797 C 12.73,40.7553 13.5616,41.5856 13.7498,41.8248 13.938,42.064 14.2293,42.2598 14.3971,42.2598 14.6577,42.2598 17.3834,39.6321 18.7339,38.079 L 19.1604,37.5885 17.6032,35.9971 C 16.1763,34.5389 15.6969,33.8297 16.271,34.0261 16.3948,34.0684 21.3426,29.2958 27.2661,23.4203 33.1897,17.5448 38.0905,12.7395 38.1569,12.7419 38.2233,12.7443 39.0455,13.4746 39.9841,14.3648 L 41.6906,15.9833 34.4037,23.2941 C 30.3959,27.315 27.2383,30.5435 27.3868,30.4684 27.5353,30.3933 25.9962,32.0049 23.9666,34.0498 21.7113,36.322 19.9908,37.9065 19.5421,38.1246 18.7289,38.52 15.866,41.3463 15.866,41.7537 15.866,42.0461 14.9218,42.8027 14.5682,42.7936 14.4404,42.7903 14.1458,42.6292 13.9134,42.4356 z M 38.9211,17.7939 C 39.921,16.8053 40.4664,16.1415 40.3418,16.0645 40.1159,15.9249 37.1156,18.8115 37.1106,19.1733 37.1089,19.2971 37.1504,19.3983 37.2028,19.3983 37.2553,19.3983 38.0285,18.6763 38.9211,17.7938 z M 11.3594,29.5749 C 10.6202,28.8153 10.015,28.0982 10.0146,27.9814 10.0141,27.8559 9.8118,27.7926 9.5203,27.8267 9.1334,27.872 9.0503,27.8234 9.1354,27.6017 9.1951,27.4462 9.3163,27.3189 9.4047,27.3189 9.4931,27.3189 9.5661,27.2176 9.567,27.0939 9.5685,26.8766 18.0089,19.0378 19.1397,18.2035 19.4459,17.9776 20.1509,17.6995 20.7064,17.5855 21.8551,17.3498 25.2956,16.2646 26.4417,15.7766 26.8625,15.5974 27.2068,15.5169 27.2068,15.5977 27.2068,15.8088 23.038,20.1785 17.5702,25.6988 14.9714,28.3225 12.8133,30.5787 12.7743,30.7126 12.7309,30.8617 12.1829,30.4211 11.3595,29.575 z M 37.8275,8.8676 C 35.9394,7.036 34.2825,5.5374 34.1455,5.5374 34.0085,5.5374 33.6603,5.6729 33.3718,5.8385 32.875,6.1236 32.8221,6.1213 32.3728,5.7935 32.1119,5.6032 31.8958,5.3867 31.8927,5.3124 31.8896,5.2381 32.463,5.1774 33.1671,5.1774 L 34.4471,5.1774 37.9824,8.6841 C 39.9268,10.6128 41.4598,12.1924 41.3891,12.1944 41.3183,12.1964 39.7156,10.6993 37.8275,8.8677 z"
       inkscape:connector-curvature="0"
       style="fill:#716566"
       sodipodi:nodetypes="ccccssccscssscssccsccccscsccccccsccccssccccsccsscsccc" />
    <path
       id="path3692"
       d="M 18.0225,36.0357 16.3159,34.3117 27.1754,23.5248 C 33.1481,17.592 38.0895,12.7398 38.1562,12.7423 38.2229,12.7447 39.0455,13.4751 39.9841,14.3654 L 41.6907,15.9841 30.804,26.872 C 24.8163,32.8603 19.8749,37.7599 19.8231,37.7599 19.7713,37.7599 18.961,36.9841 18.0224,36.0359 z M 38.9211,17.7939 C 39.921,16.8053 40.4664,16.1415 40.3418,16.0645 40.1159,15.9249 37.1156,18.8115 37.1106,19.1733 37.1089,19.2971 37.1504,19.3983 37.2028,19.3983 37.2553,19.3983 38.0285,18.6763 38.9211,17.7938 z M 10.9757,28.9807 C 9.8932,27.867 9.4729,27.3133 9.5484,27.1001 9.6559,26.7967 17.1917,19.7777 18.7908,18.4916 19.3902,18.0096 19.955,17.7405 20.6809,17.5912 21.8518,17.3504 25.2865,16.2684 26.4416,15.7766 26.8624,15.5974 27.2067,15.5169 27.2067,15.5977 27.2067,15.908 12.9167,30.5591 12.6141,30.5591 12.5569,30.5591 11.8196,29.8488 10.9758,28.9806 z"
       inkscape:connector-curvature="0"
       style="fill:#cd1816" />
    <path
       id="path3694"
       d="M 18.0644,36.088 16.3997,34.4163 20.2281,30.6257 C 22.3337,28.5409 24.9169,26.0326 25.9685,25.0519 27.9519,23.202 27.9923,23.1785 31.3471,21.9251 32.7424,21.4038 33.8775,20.9293 34.4899,20.6115 34.8555,20.4217 36.6599,19.956 37.0732,19.9448 37.2028,19.9413 37.258,20.0207 37.1958,20.1213 37.1336,20.2219 36.9948,20.2499 36.8873,20.1835 36.7783,20.1161 36.7431,20.1456 36.8077,20.2501 36.8714,20.3531 35.3728,22.0465 33.4775,24.0132 29.2461,28.4039 19.9536,37.7597 19.8239,37.7597 19.7718,37.7597 18.98,37.0075 18.0644,36.088 z M 11.5546,29.4052 C 11.114,28.8814 10.7264,28.3715 10.6933,28.2722 10.6602,28.1729 11.4257,27.8676 12.3945,27.5938 13.3632,27.32 14.666,26.9118 15.2895,26.6866 15.913,26.4614 16.3991,26.3453 16.3696,26.4286 16.2501,26.766 12.7641,30.3783 12.5676,30.3683 12.4511,30.3624 11.9953,29.929 11.5547,29.4051 z"
       inkscape:connector-curvature="0"
       style="fill:#b80808" />
  </g>
</svg>
