<svg xmlns="http://www.w3.org/2000/svg" xmlns:xlink="http://www.w3.org/1999/xlink" viewBox="0 0 512 512"><defs><path id="9" d="m-33.01 23.19c.216.222.749.097 1.33-.274.193-.123.392-.274.585-.448.184-.166.345-.338.484-.508.447-.549.636-1.08.435-1.323 0 0 .003-.003.003-.003 0 0 9.477 10.515 9.477 10.515.079.283-.074.812-.469 1.295-.135.165-.293.332-.471.492-.199.179-.402.335-.601.46-.593.376-1.163.525-1.377.288-.049-.055-.262-.292-.268-.301 0 0-9.157-10.164-9.157-10.164 0 0 .03-.027.03-.027"/><clipPath><path d="m55.8 12l.76.16c8.84-2.94 28.68 8.64 24.26 18.96-1.12 1.62-.93 4.5.42 6.31l-24.81 24.82c-1.39-1.39-4.48-1.36-5.9 0l-41.03 39.38c-3.74 3.59-.8 6.64.78 8.25l7.36 7.36c1.61 1.6 5.86 3.76 8.88.56l38.72-40.81c1.35-1.42 1.36-4.47 0-5.87 0 0 .01-.02 0-.02l24.91-24.9c2.63 2.37 5.114 2.575 7.47 1.93 4.551-1.245 7.087 3.207 9.81 6.46l-1.23 1.21c-1.82 1.84-1.65 4.94.39 6.98 2.04 2.04 5.15 2.21 6.97.39l8.14-8.13c1.82-1.84 1.65-4.94-.4-6.97-1.84-1.85-4.51-2.09-6.37-.77-5.58-6.26-2.65-7.2-10.01-15.35l-13.79-14.09c-9.93-9.74-22.83-9.73-35.33-5.86"/></clipPath><clipPath><path d="m22.42 17.2l12.96 12.95-2.5 8.78-8.78 2.5-12.96-12.96-5.86 5.86 14.89 21.46 17.56-3.34 61.63 65.62c9.44 9.51 22.17-4.75 13.34-12.87l-65.85-62.28 4.01-17.76-22.14-14.27-6.3 6.31m81.06 91.97c1.68-1.68 4.4-1.68 6.08 0 1.68 1.68 1.68 4.4 0 6.08-1.68 1.67-4.4 1.67-6.08 0-1.68-1.68-1.68-4.4 0-6.08"/></clipPath><linearGradient id="6"><stop style="stop-color:#fff"/><stop offset="1" style="stop-color:#fff;stop-opacity:0"/></linearGradient><linearGradient xlink:href="#6" id="7" gradientUnits="userSpaceOnUse" x1="36.68" y1="65.82" x2="63.839" y2="38.858"/><linearGradient xlink:href="#6" id="8" gradientUnits="userSpaceOnUse" x1="48.31" y1="37.78" x2="40.592" y2="51.05"/><linearGradient id="5" gradientUnits="userSpaceOnUse" x1="-33.04" x2="-23.444"><stop style="stop-color:#7d7d99"/><stop offset=".18" style="stop-color:#b1b1c5"/><stop offset=".373" style="stop-color:#bcbcc8"/><stop offset=".682" style="stop-color:#c8c8cb"/><stop offset="1" style="stop-color:#ccc"/></linearGradient><linearGradient id="0" gradientUnits="userSpaceOnUse" x1="88.32" y1="82.7" x2="180.91" y2="187.83"><stop style="stop-color:#900"/><stop offset="1" style="stop-color:#7c0000"/></linearGradient><linearGradient id="4" gradientUnits="userSpaceOnUse" x1="-22.886" y1="17.448" x2="-28.16" y2="30.671"><stop style="stop-color:#ffa700"/><stop offset=".775" style="stop-color:#ffd700"/><stop offset="1" style="stop-color:#ff9200"/></linearGradient><linearGradient id="1" gradientUnits="userSpaceOnUse" x1="127.41" y1="128.32" x2="107.4" y2="150.15"><stop style="stop-color:#f8f1dc"/><stop offset="1" style="stop-color:#d6a84a"/></linearGradient><linearGradient id="3" gradientUnits="userSpaceOnUse" x1="85.76" y1="80.51" x2="74.07" y2="67.742"><stop style="stop-color:#ffc957"/><stop offset="1" style="stop-color:#ff6d00"/></linearGradient><linearGradient id="2" gradientUnits="userSpaceOnUse" x1="65.09" y1="-.795" x2="137.6" y2="160.18"><stop style="stop-color:#ffa700"/><stop offset=".775" style="stop-color:#ffd700"/><stop offset="1" style="stop-color:#ff794b"/></linearGradient></defs><g transform="matrix(2.21013 18.0402-18.0402 2.21013 245.58 695.3)"><g style="stroke-width:.125"><g style="fill:#fff"><use xlink:href="#9"/><use xlink:href="#9"/></g><use xlink:href="#9" style="fill:url(#4)"/></g><g style="fill:#fff"/></g><g transform="matrix(-1.10994 2.88198-2.88198-1.10994 522.14 161.85)"><path d="m24.33 15.4l13.45 13.38-3.33 11.69-10.95 3.27-13.568-13.74-4.732 4.54 14.2 19.94 18.9-4.14 62.5 66.36c7.5 8.3 20.2-2.67 11.14-11.6l-66.9-63.1 3.86-17.17-19.96-14.03-4.61 4.6m79.97 93.3c1.67-1.67 4.63-2 6.3-.3 1.7 1.67 3.06 4.63.65 7.84-2 2-5.2 1.92-7.2-.24-1.68-1.68-1.45-5.6.25-7.3" style="fill:url(#7);opacity:.75"/><path d="m24.2 15.42l23.47 23.65 3.22-13.87-22.1-14.4-4.59 4.62" style="fill:url(#8);opacity:.5"/></g><g transform="matrix(6.62235 0 0 6.62235-544.72-67.6)"/></svg>