<svg xmlns="http://www.w3.org/2000/svg" xmlns:xlink="http://www.w3.org/1999/xlink" viewBox="0 0 512 512"><defs><linearGradient xlink:href="#B" id="8" y1="-561.6" x1="486.62" y2="-468.98" gradientUnits="userSpaceOnUse" x2="579.59"/><linearGradient xlink:href="#B" id="A" y1="-261.6" x1="786.62" y2="-168.98" gradientUnits="userSpaceOnUse" x2="879.59"/><linearGradient gradientTransform="matrix(7.19821-4.51627 3.85788 6.14884 321.79-491.66)" xlink:href="#H" id="7" y1="31.06" x1="7.185" y2="50.775" gradientUnits="userSpaceOnUse" x2="25.15"/><linearGradient id="B"><stop style="stop-color:#e2e2e2"/><stop offset="1" style="stop-color:#d8d8d8"/></linearGradient><linearGradient gradientTransform="matrix(7.19821-4.51627 3.85788 6.14884 604.4-202.49)" xlink:href="#F" id="D" y1="44.541" x1="39.62" y2="-11.889" gradientUnits="userSpaceOnUse" x2="-3.533"/><linearGradient xlink:href="#H" id="E" y1="-144.54" x1="878.44" y2="-183.05" gradientUnits="userSpaceOnUse" x2="886.7"/><linearGradient id="C" y1="4.759" y2="10.711" x1="292.97" x2="296.94" gradientUnits="userSpaceOnUse"><stop style="stop-color:#eeeeec"/><stop offset="1" style="stop-color:#fff"/></linearGradient><linearGradient xlink:href="#H" id="9" y1="12.188" x1="294.6" y2="13.34" gradientUnits="userSpaceOnUse" x2="297.19"/><linearGradient gradientTransform="matrix(7.19821-4.51627 3.85788 6.14884 319.54-492)" xlink:href="#H" id="0" y1="40.07" x1="13.825" y2="2.326" gradientUnits="userSpaceOnUse" x2="7.67"/><linearGradient gradientTransform="matrix(-25.5728 16.0448 16.0791 25.62757 7999.4-5433.8)" xlink:href="#C" id="6" y1="4.759" x1="292.97" y2="10.711" gradientUnits="userSpaceOnUse" x2="296.94"/><linearGradient gradientTransform="matrix(25.1123-15.75583 16.0791 25.62757-6693.27 4272.84)" xlink:href="#C" id="2" y1="4.759" x1="292.97" y2="10.711" gradientUnits="userSpaceOnUse" x2="296.94"/><linearGradient id="1" y1="-133.07" x1="939.36" y2="-134.01" gradientUnits="userSpaceOnUse" x2="950.98"><stop style="stop-color:#9a0c00"/><stop offset="1" style="stop-color:#9a0c00;stop-opacity:0"/></linearGradient><linearGradient gradientTransform="matrix(22.53791-14.1406 13.48949 21.50009-6269.38 3491.24)" xlink:href="#H" id="5" y1="15.507" x1="296.49" y2="9.877" gradientUnits="userSpaceOnUse" x2="296.53"/><linearGradient id="3" y1="-133.07" x1="939.36" y2="-134.01" gradientUnits="userSpaceOnUse" x2="950.98"><stop style="stop-color:#df2a2a"/><stop offset="1" style="stop-color:#df2a2a;stop-opacity:0"/></linearGradient><linearGradient id="4" y1="23.843" x1="22.23" y2="22.861" gradientUnits="userSpaceOnUse" x2="24.19" gradientTransform="matrix(6.07075-3.80888 3.88704 6.19532 638.42-222.89)"><stop style="stop-color:#babdb6"/><stop offset="1" style="stop-color:#eeeeec"/></linearGradient><radialGradient cx="165.06" cy="23.333" gradientTransform="matrix(1 0 0 1.0103 0-.16)" r="7.285" id="H" gradientUnits="userSpaceOnUse"><stop style="stop-color:#ef3535"/><stop style="stop-color:#c91a1a"/><stop offset="1" style="stop-color:#ff4c4c"/></radialGradient><radialGradient cx="34.376" cy="37.5" gradientTransform="matrix(6.19532-3.88704 4.12174 6.5694 626.88-237)" xlink:href="#H" id="G" r="8.389" gradientUnits="userSpaceOnUse"/><radialGradient cx="165.06" cy="23.333" gradientTransform="matrix(1 0 0 1.0103 0-.16)" id="F" r="7.285" gradientUnits="userSpaceOnUse"><stop style="stop-color:#ef3535"/><stop offset="1" style="stop-color:#a40000;stop-opacity:0"/></radialGradient></defs><g transform="matrix(1.05597-.34559.34559 1.05597-177.01 940.62)"><path d="m553.86-645.53c1.58-.399 3.147-.726 4.711-1.078 12.576 11.08 39.922 13.1 41.31 31.12 1.098 54.4 2.696 109.22 4.167 163.82-4.049 3.809-8.399 7.229-12.999 10.269-9.672 6.416-20.673 11.292-32.1 13.801-1.947-72.61-3.955-145.35-5.091-217.93z" style="fill:url(#6);stroke:#282828;stroke-linecap:round;stroke-linejoin:round;stroke-width:7.314"/><path d="m564.77-629.71c-.237 2.803.6 7.143.244 9.83 1.177 57.57 1.886 115.33 2.861 172.78.609 1.803-1.108 9.435 3.591 5.889 7.656-3.095 15.437-6.658 21.16-12.784-.878-53.13-2.39-106.27-3.33-159.38.616-3.731-1.062-7.322-4.794-8.32-6.458-2.999-13.12-6.228-19.517-8.951l-.162.712-.053.232" style="fill:url(#8)"/><path d="m295.13 14.719l-.4-1.046 1.014-1.713 1.298.34-.645 1.085z" transform="matrix(22.53791-14.1406 13.48949 21.50009-6269.38 3491.24)" style="fill:url(#9);stroke:#9a0c00;stroke-linecap:round;stroke-linejoin:round;stroke-width:.281"/><path d="m563.21-383.92c26.754-1.877 47.36 27.381 46.01 65.37-1.347 38.01-24.11 70.35-50.846 72.28-26.763 1.883-47.35-27.365-45.995-65.36 1.348-37.985 24.12-70.33 50.836-72.29zm-.834 24.2c-11.868.853-25.824 20.869-26.713 46.41-.914 25.556 11.693 43.722 23.543 42.86 11.877-.819 25.832-20.875 26.721-46.42.922-25.561-11.684-43.707-23.552-42.855z" style="fill:url(#7);stroke:#a40000;stroke-width:7.314"/><path d="m567.07-427c-5.681 7.767.39 17.327-.405 25.846.662 5.765-.614 12.01.722 17.665 1.943 3.231 8.06 6.686 9.912 1.606 4.125-12.485 6.02-25.696 5.297-38.955-.465-3.939 1.454-8.633-.08-12.08-5.555-1.443-11.444 2.578-15.447 5.914" style="fill:url(#5)"/><path d="m543.45-368.97c-10.422 9.882-16.865 23.14-21.622 34.99-1.956 7.227-2.068 13.817-3.106 21.412-1.441 21.21 6.14 43.15 24.721 54.16 9.486 6.595 24.331 2.412 33.589-6.577 8.03-7.183 12.1-17.616 16.627-25.964 2.631-8.479 3.305-16.12 4.381-25.12 1.591-22.363-5.05-46.47-25.05-57.782-8.923-4.263-20.634-2.136-29.543 4.878m6.662 4.122c13.466-6.287 28.699-.455 33.812 10.921 9.02 14.09 10.174 31.987 7.361 49.21-3.331 14.194-10.141 29.919-24.844 38.35-8.43 5.264-18.617 3.803-25.07-1.2-13.662-13.289-19.26-33.377-16.342-53.1 2.494-14.717 8.571-30.31 21.272-41.34 1.277-.933 2.504-1.938 3.805-2.837" style="fill:url(#0)"/></g><g transform="translate(0 464)"><path d="m296-440-272,384" style="fill:none;stroke:#000;stroke-linecap:square;stroke-width:16"/><path d="m16.5 4.5a1 1 0 1 1 -2 0 1 1 0 1 1 2 0" transform="matrix(-32 0 0-32 680-142)" style="fill:#f00"/></g><g transform="matrix(1.05597-.34559.34559 1.05597-595.42 730.9)"><path d="m722.43-263.07c-1.023 1.234-1.976 2.489-2.951 3.729 4.577 16.1-5.161 41.39 10.331 50.561 48.08 24.925 96.32 50.48 144.41 75.825 5.108-1.936 9.996-4.312 14.65-7.079 9.808-5.806 18.803-13.476 25.865-22.566-63.967-33.698-128.02-67.51-192.31-100.47z" style="fill:url(#2);stroke:#282828;stroke-linecap:round;stroke-linejoin:round;stroke-width:7.314"/><path d="m731.14-245.87c2.01 8.469-1.378 17.753 1.645 26.22 47.83 25.2 95.92 50.07 143.71 75.23 8.428-3.058 15.407-8.862 21.779-15.01-4.048-3.853-9.747-5.376-14.27-8.57-49.668-25.568-99.52-50.957-149-76.78-.68-.882-3.224-2.157-3.856-1.089" style="fill:url(#A)"/><path d="m941.46-153.02c-13.33 23.272 4.047 54.56 38.844 69.864 34.807 15.323 73.829 8.895 87.2-14.335 13.34-23.278-4.04-54.54-38.834-69.849-34.788-15.313-73.819-8.88-87.21 14.32zm22.15 9.778c5.932-10.315 30.03-14.172 53.41-3.86 23.408 10.296 34.28 29.55 28.348 39.846-5.905 10.338-30.03 14.177-53.42 3.865-23.416-10.291-34.27-29.536-28.339-39.851z" style="fill:url(#G);stroke:#a40000;stroke-width:7.314"/><path d="m906.46-151.35c-1.871 2.891-5.516 5.201-6.381 8.321 11.333 4.989 23.04 10.711 34.04 15.02 7.07 2.076 14.231 4.02 21.526 5.165-.853-11.478-11.06-19.491-21.311-22.785-7.23-3.232-13.354-9.865-21.505-8.902-2.344.448-4.722 1.427-6.366 3.185" style="fill:url(#E)"/><path d="m954.16-159.59c-8.526 7.333-13.715 17.979-10.793 27.39 2.303 19.237 18.545 32.515 36.02 39.798 12.06 4.051 23.408 10.611 37.22 9.234 12.701.006 28.05-1.274 37.38-12.222 7.691-8.568 8.155-19.626 5.05-28.829-5.235-16.661-20.01-27.82-36.37-34.48-7.632-3.1-15.578-6.486-23.567-8.48-10.913-.954-22.762.022-34.01 2.063-3.738 1.392-7.814 2.893-10.931 5.526m7.401 5.8c10.628-7.244 22.913-7.992 33.989-6.05 10.163 1.992 19.542 3.326 28.15 8.23 13.75 7.092 24.07 19.262 28.385 33.68 1.875 10.26-6.126 20.87-17.204 24.751-13.168 6.286-26.428 2.153-38.96.196-14.893-3.02-28.642-12.06-36.864-24.21-3.868-6.36-8.632-13.393-7.466-21.508.443-4.968 4.451-11.896 9.968-15.09" style="fill:url(#D)"/></g></svg>