<svg xmlns="http://www.w3.org/2000/svg" viewBox="0 0 512 512"><g transform="translate(-5-10)"><path d="m82.905 332.61h30.556v-105.46l-33.24 6.667v-17.04l33.06-6.667h18.704v122.5h30.556v15.741h-79.63v-15.741"/><path d="m83.30055 414.6263a26 25.500002 0 1 0 52 0 26 25.500002 0 0 0 -52 0"/><path d="m293.32 192.76h65.28v15.741h-87.78v-15.741c7.099-7.346 16.759-17.191 28.981-29.537 12.284-12.407 20-20.401 23.15-23.981 5.988-6.728 10.154-12.407 12.5-17.04 2.407-4.691 3.611-9.29 3.611-13.796 0-7.346-2.593-13.333-7.778-17.963-5.124-4.63-11.821-6.944-20.09-6.944-5.864 0-12.07 1.019-18.611 3.056-6.482 2.037-13.426 5.124-20.833 9.259v-18.889c7.531-3.02 14.568-5.309 21.11-6.852 6.543-1.543 12.531-2.315 17.963-2.315 14.321 0 25.741 3.58 34.26 10.741 8.518 7.161 12.778 16.729 12.778 28.704 0 5.679-1.08 11.08-3.241 16.204-2.099 5.062-5.957 11.05-11.574 17.963-1.543 1.79-6.451 6.975-14.722 15.556-8.272 8.519-19.938 20.463-35 35.833"/><path d="m409.77 415.16l-308.24-1.053" style="stroke-dasharray:8.71648 8.71648;fill:none;stroke:#000;stroke-width:8.716"/><path d="m406.03934 93.45a25.500002 26 0 1 0 0 52 25.500002 26 0 0 0 0 -52"/><path d="m405.5 419.92l1.053-308.24" style="stroke-dasharray:8.71648 8.71648;fill:none;stroke:#000;stroke-width:8.716"/><path d="m372.53 414.64c0-18.502 14.998-33.5 33.5-33.5 18.502 0 33.5 14.998 33.5 33.5 0 18.502-14.998 33.5-33.5 33.5-18.502 0-33.5-14.998-33.5-33.5z" style="fill:#f00;stroke:#f00;stroke-width:20"/></g></svg>