<svg width="512" xmlns="http://www.w3.org/2000/svg" height="512" xmlns:xlink="http://www.w3.org/1999/xlink">
<defs>
<linearGradient id="linearGradient14484">
<stop offset="0" stop-color="#c68827"/>
<stop offset="1" stop-color="#89601f"/>
</linearGradient>
<linearGradient gradientTransform="matrix(11.22807 0 0 10.66666 -20.42059 .38106)" xlink:href="#linearGradient15234" id="linearGradient15240" y1="3.818" x1="25.405" y2="9.323" x2="25.464" gradientUnits="userSpaceOnUse"/>
<linearGradient gradientTransform="matrix(10.66666 0 0 10.66666 -1.33288 .38106)" xlink:href="#linearGradient14484" id="linearGradient14490" y1="10.451" x1="6.107" y2="37.88" x2="33.857" gradientUnits="userSpaceOnUse"/>
<linearGradient gradientTransform="matrix(11.36744 0 0 10.53434 -18.02022 1.17971)" xlink:href="#linearGradient15218" id="linearGradient15224" y1="18.992" x1="22.308" y2="39.498" x2="35.785" gradientUnits="userSpaceOnUse"/>
<linearGradient gradientTransform="matrix(10.66666 0 0 10.66666 -1.33288 .38106)" xlink:href="#linearGradient2216" id="linearGradient2222" y1="39.156" x1="36.812" y2="42.062" x2="39.062" gradientUnits="userSpaceOnUse"/>
<linearGradient gradientTransform="matrix(5.74659 0 0 5.45926 113.87558 -5.83376)" xlink:href="#linearGradient15234" id="linearGradient2283" y1="3.818" y2="6.481" gradientUnits="userSpaceOnUse" x2="0"/>
<linearGradient gradientTransform="matrix(10.66666 0 0 10.66666 -1.33288 .38106)" xlink:href="#linearGradient2224" id="linearGradient2230" y1="40.458" x1="35.997" y2="37.771" x2="33.665" gradientUnits="userSpaceOnUse"/>
<linearGradient gradientTransform="matrix(10.66666 0 0 10.66666 -1.33288 .38106)" xlink:href="#linearGradient2259" id="linearGradient2265" y1="26.697" x1="26.076" y2="42.007" x2="30.811" gradientUnits="userSpaceOnUse"/>
<linearGradient gradientTransform="matrix(10.66666 0 0 10.66666 -1.33288 .38106)" xlink:href="#linearGradient2239" id="linearGradient2245" y1="12.172" x1="25.683" y2="-.203" x2="25.692" gradientUnits="userSpaceOnUse"/>
<linearGradient gradientTransform="matrix(10.66666 0 0 10.66666 -1.33288 .38106)" xlink:href="#linearGradient2251" id="linearGradient2257" y1="36.921" x1="33.396" y2="38.07" x2="34.17" gradientUnits="userSpaceOnUse"/>
<linearGradient id="linearGradient15218">
<stop offset="0" stop-color="#f0f0ef"/>
<stop offset=".599" stop-color="#e8e8e8"/>
<stop offset=".828" stop-color="#fff"/>
<stop offset="1" stop-color="#d8d8d3"/>
</linearGradient>
<linearGradient id="linearGradient2259">
<stop offset="0" stop-color="#fff"/>
<stop offset="1" stop-color="#fff" stop-opacity="0"/>
</linearGradient>
<linearGradient id="linearGradient5048">
<stop offset="0" stop-opacity="0"/>
<stop offset=".5"/>
<stop offset="1" stop-opacity="0"/>
</linearGradient>
<linearGradient gradientTransform="matrix(10.72236 0 0 9.42856 -8.03072 9.38106)" xlink:href="#linearGradient15234" id="linearGradient2287" y1="3.818" x1="25.405" y2="9.323" gradientUnits="userSpaceOnUse" x2="25.464"/>
<linearGradient id="linearGradient5060">
<stop offset="0"/>
<stop offset="1" stop-opacity="0"/>
</linearGradient>
<linearGradient gradientTransform="matrix(2.77439 0 0 1.96971 -1892.179 -872.8854)" xlink:href="#linearGradient5048" id="linearGradient5027" y1="366.648" y2="609.505" gradientUnits="userSpaceOnUse" x2="0"/>
<linearGradient id="linearGradient15234">
<stop offset="0" stop-color="#97978a"/>
<stop offset=".5" stop-color="#c2c2b9"/>
<stop offset="1" stop-color="#7d7d6f"/>
</linearGradient>
<linearGradient id="linearGradient2216">
<stop offset="0"/>
<stop offset="1" stop-opacity="0"/>
</linearGradient>
<linearGradient id="linearGradient2251">
<stop offset="0" stop-color="#fff"/>
<stop offset="1" stop-color="#fff" stop-opacity="0"/>
</linearGradient>
<linearGradient id="linearGradient2239">
<stop offset="0" stop-color="#fff"/>
<stop offset="1" stop-color="#fff" stop-opacity="0"/>
</linearGradient>
<linearGradient id="linearGradient2224">
<stop offset="0" stop-color="#7c7c7c"/>
<stop offset="1" stop-color="#b8b8b8"/>
</linearGradient>
<radialGradient cx="605.714" cy="486.648" gradientTransform="matrix(2.77439 0 0 1.96971 -1891.633 -872.8854)" xlink:href="#linearGradient5060" id="radialGradient5029" r="117.143" gradientUnits="userSpaceOnUse"/>
<radialGradient cx="605.714" cy="486.648" gradientTransform="matrix(-2.77439 0 0 1.96971 112.7623 -872.8854)" xlink:href="#linearGradient5060" id="radialGradient5031" r="117.143" gradientUnits="userSpaceOnUse"/>
</defs>
<g color="#000" transform="matrix(.24802 0 0 .15848 476.60037 459.6916)">
<path opacity=".402" fill="url(#linearGradient5027)" d="m-1559.25-150.697h1339.631v478.357h-1339.631z"/>
<path opacity=".402" fill="url(#radialGradient5029)" d="m-219.6188-150.6804c0,0 0,478.3308 0,478.3308 142.8742,.9004 345.4002-107.1697 345.4001-239.1962 0-132.0265-159.4368-239.1346-345.4001-239.1346z"/>
<path opacity=".402" fill="url(#radialGradient5031)" d="m-1559.2523-150.6804c0,0 0,478.3308 0,478.3308-142.8742,.9004-345.4002-107.1697-345.4002-239.1962 0-132.0265 159.4368-239.1346 345.4002-239.1346z"/>
</g>
<g fill-rule="evenodd">
<g stroke-width="10.667">
<path fill="url(#linearGradient14490)" stroke="#714c16" d="m61.0911,48.381h386.7709a14.8047,14.8046 0 0,1 14.805,14.8047v408.2083a14.8047,14.8046 0 0,1 -14.805,14.805h-386.7709a14.8047,14.8046 0 0,1 -14.8046-14.805v-408.2083a14.8047,14.8046 0 0,1 14.8046-14.8047"/>
<path fill="url(#linearGradient15224)" stroke="#888a85" d="m95.7213,70.0292h318.0647a6.0427,6.0427 0 0,1 6.042,6.0427v371.6661a6.0427,6.0427 0 0,1 -6.042,6.042h-318.0647a6.0427,6.0427 0 0,1 -6.0428-6.042v-371.6661a6.0427,6.0427 0 0,1 6.0428-6.0427"/>
</g>
<path fill="#5c5c5c" d="m201.162,.3811h107.01a10.4947,10.4947 0 0,1 10.495,10.4946v21.6773a10.4947,10.4947 0 0,1 -10.495,10.4947h-107.01a10.4947,10.4947 0 0,1 -10.495-10.4947v-21.6773a10.4947,10.4947 0 0,1 10.495-10.4946"/>
</g>
<g fill="none" stroke-width="10.667">
<path stroke="url(#linearGradient2265)" d="m100.183,80.0246h309.484v363.1014h-309.484z"/>
<path stroke="#c68827" d="m61.7939,58.3093h385.3661a5.1072,5.1072 0 0,1 5.107,5.1072v406.7775a5.1072,5.1072 0 0,1 -5.107,5.107h-385.3661a5.1072,5.1072 0 0,1 -5.1072-5.107v-406.7775a5.1072,5.1072 0 0,1 5.1072-5.1072"/>
</g>
<g fill-rule="evenodd" color="#000">
<g stroke-width="10.667">
<path opacity=".108" stroke="#000" d="m171.248,48.0853h172.495a14.8047,14.8046 0 0,1 14.805,14.8046v45.0571a14.8047,14.8046 0 0,1 -14.805,14.805h-172.495a14.8047,14.8046 0 0,1 -14.805-14.805v-45.0571a14.8047,14.8046 0 0,1 14.805-14.8046"/>
<path fill="url(#linearGradient15240)" stroke="#5c5c5c" d="m168.419,37.7144h172.496a14.8047,14.8046 0 0,1 14.805,14.8046v45.0574a14.8047,14.8046 0 0,1 -14.805,14.8046h-172.496a14.8047,14.8046 0 0,1 -14.805-14.8046v-45.0574a14.8047,14.8046 0 0,1 14.805-14.8046"/>
</g>
<path fill="url(#linearGradient2283)" d="m206.419,13.2736h96.496a3.4713,3.4713 0 0,1 3.471,3.4714v31.2721a3.4713,3.4713 0 0,1 -3.471,3.4714h-96.496a3.4713,3.4713 0 0,1 -3.471-3.4714v-31.2721a3.4713,3.4713 0 0,1 3.471-3.4714"/>
<path fill="url(#linearGradient2287)" d="m168.97,42.381h171.394a10.8046,10.8046 0 0,1 10.804,10.8047v44.3906a10.8046,10.8046 0 0,1 -10.804,10.8047h-171.394a10.8046,10.8046 0 0,1 -10.804-10.8047v-44.3906a10.8046,10.8046 0 0,1 10.804-10.8047"/>
<path opacity=".489" fill="url(#linearGradient2222)" d="m414.8621,387.0475 .4714,62-90.6666-.4714 90.1952-61.5286z"/>
<path fill="url(#linearGradient2230)" stroke="#868a84" stroke-width="10.667" d="m319.2971,449.3073c19.1055,1.7883 95.8904-46.6089 101.1289-89.472-16.6748,25.8464-52.8528,20.9983-96.6795,22.6944 0,0 4.2173,61.4443-4.4494,66.7776z"/>
</g>
<g fill="none" stroke-width="10.667">
<path opacity=".317" stroke="url(#linearGradient2245)" d="m206.3337,16.0477c-.0224,.0223 .0178,.307 0,.3333-.0125,.0296-.3268-.0323-.3333,0v30.6666c0,.0685 .3084,.2741 .3333,.3333 .0263,.0177-.0296,.3209 0,.3333h-37.6666c-.1894,0-.4823-.0186-.6667,0-.363,.0552-.9978,.2109-1.3333,.3333-1.4738,.6213-2.8552,2.1229-3.3333,3.6667-.1121,.4377 0,1.193 0,1.6667v44.3333c0,.1894-.0186,.4823 0,.6667 .0552,.363 .2109,.9978 .3333,1.3333 .1036,.2456 .1966,.7744 .3333,1 .0491,.0727 .2809,.2631 .3333,.3333 .2227,.27 .73,.7773 1,1 .1404,.1048 .5163,.2421 .6667,.3333 .1551,.084 .5029,.2643 .6667,.3333 .3355,.1224 .9703,.2782 1.3333,.3333 .1844,.0186 .4772,0 .6667,0h171.9999c.1894,0 .4823,.0186 .6667,0 .363-.0552 .9978-.2109 1.3333-.3333 .1638-.069 .5116-.2493 .6667-.3333 .1504-.0912 .5263-.2285 .6667-.3333 .27-.2227 .7773-.73 1-1 .0524-.0702 .2843-.2606 .3333-.3333 .1368-.2256 .2298-.7544 .3333-1 .1224-.3355 .2782-.9703 .3333-1.3333 .0186-.1844 0-.4772 0-.6667v-44.3333c0-.4736 .1121-1.229 0-1.6667-.4782-1.5438-1.8595-3.0454-3.3333-3.6667-.3355-.1224-.9703-.2782-1.3333-.3333-.1844-.0186-.4772,0-.6667,0h-37.6666c.0296-.0125-.0263-.3156 0-.3333 .025-.0592 .3333-.2648 .3333-.3333v-30.6667c-.007-.0323-.3209,.0296-.3333,0-.0178-.0263 .0224-.311 0-.3333-.0296-.0125-.3011,.007-.3333,0h-95.9999c-.0323,.007-.3037-.0125-.3333,0z"/>
<path opacity=".369" stroke="url(#linearGradient2257)" color="#000" d="m334.7684,434.376c14.611-7.2942 48.3121-27.7443 62.1722-47.8084-19.1202,4.0158-31.9031,6.2888-61.0942,7.4185 0,0 .9233,32.1236-1.0779,40.3899z"/>
</g>
<g fill-rule="evenodd" color="#000">
<path opacity=".17" d="m148,160.381h224v21.333h-224z"/>
<path opacity=".17" d="m148,203.048h213.334v21.333h-213.334z"/>
<path opacity=".17" d="m148,245.714h192v21.334h-192z"/>
<path opacity=".17" d="m148,288.381h224v21.333h-224z"/>
<path opacity=".17" d="m148,331.048h138.667v21.333h-138.667z"/>
</g>
</svg>
