<svg xmlns="http://www.w3.org/2000/svg" viewBox="0 0 512 512"><g style="fill:none"><path d="m176 208l-24-56" style="stroke:#00f;stroke-linecap:square;stroke-width:8"/><g style="stroke-linecap:round;stroke-linejoin:round;stroke-width:16"><path d="m374.5 256l-.148-2.961m0 0l-.444-2.954m0 0l-.739-2.939m0 0l-1.032-2.917m0 0l-1.322-2.888m0 0l-1.609-2.851m0 0l-1.892-2.807m0 0l-2.17-2.756m0 0l-2.443-2.699m0 0l-2.71-2.634m0 0l-2.969-2.563m0 0l-3.222-2.486m0 0l-3.466-2.402m0 0l-3.702-2.313m0 0l-3.929-2.217m0 0l-4.145-2.116m0 0l-4.352-2.01m0 0l-4.547-1.899m0 0l-4.731-1.783m0 0l-4.904-1.662m0 0l-5.064-1.538m0 0l-5.211-1.409m0 0l-5.346-1.277m0 0l-5.466-1.142m0 0l-5.574-1m0 0l-5.667-.864m0 0l-5.746-.721m0 0l-5.811-.576m0 0l-5.862-.43m0 0l-5.897-.283m0 0l-5.918-.136m0 0l-5.924.012m0 0l-5.916.16m0 0l-5.892.308m0 0l-5.854.455m0 0l-5.801.601m0 0l-5.734.745m0 0l-5.652.887m0 0l-5.557 1.027m0 0l-5.447 1.165m0 0l-5.324 1.3m0 0l-5.187 1.431m0 0l-5.04 1.559m0 0l-4.876 1.683m0 0l-4.701 1.803m0 0l-4.515 1.918m0 0l-4.318 2.028m0 0l-4.11 2.134m0 0l-3.891 2.234m0 0l-3.663 2.328m0 0l-3.426 2.417m0 0l-3.18 2.499m0 0l-2.926 2.576m0 0l-2.665 2.646m0 0l-2.397 2.709m0 0l-2.124 2.765m0 0l-1.844 2.815m0 0l-1.561 2.858m0 0l-1.273 2.893m0 0l-.982 2.921m0 0l-.689 2.942m0 0l-.394 2.956m0 0l-.098 2.962m0 0l.198 2.961m0 0l.494 2.952m0 0l.788 2.936m0 0l1.081 2.913m0 0l1.37 2.882m0 0l1.657 2.844m0 0l1.939 2.799m0 0l2.216 2.747m0 0l2.488 2.688m0 0l2.754 2.623m0 0l3.01 2.551m0 0l3.264 2.472m0 0l3.507 2.388m0 0l3.741 2.297m0 0l3.966 2.201m0 0l4.181 2.099m0 0l4.385 1.992m0 0l4.579 1.88m0 0l4.761 1.763m0 0l4.932 1.642m0 0l5.089 1.516m0 0l5.235 1.387m0 0l5.367 1.255m0 0l5.485 1.119m0 0l5.591.981m0 0l5.682.84m0 0l5.758.697m0 0l5.821.552m0 0l5.869.406m0 0l5.902.259m0 0l5.92.111m0 0l5.924-.037m0 0l5.913-.185m0 0l5.887-.333m0 0l5.846-.48m0 0l5.791-.625m0 0l5.721-.769m0 0l5.637-.911m0 0l5.539-1.051m0 0l5.427-1.188m0 0l5.302-1.322m0 0l5.163-1.453m0 0l5.01-1.58m0 0l4.847-1.703m0 0l4.671-1.822m0 0l4.483-1.937m0 0l4.284-2.046m0 0l4.074-2.151m0 0l3.854-2.25m0 0l3.624-2.343m0 0l3.385-2.431m0 0l3.138-2.513m0 0l2.883-2.588m0 0l2.621-2.657m0 0l2.352-2.719m0 0l2.077-2.774m0 0l1.797-2.823m0 0l1.513-2.864m0 0l1.225-2.898m0 0l.933-2.925m0 0l.64-2.945m0 0l.345-2.957m0 0l.065-1.966" style="stroke:#f00"/><path d="m445.6 256c-.385-6.678-.769-13.357-1.982-19.904-1.176-6.351-3.131-12.579-5.59-18.581-2.336-5.703-5.127-11.201-8.358-16.433-3.048-4.936-6.486-9.634-10.234-14.06-3.553-4.2-7.385-8.16-11.441-11.873-3.889-3.56-7.985-6.893-12.242-10-4.136-3.02-8.424-5.836-12.828-8.451-4.332-2.572-8.778-4.952-13.309-7.152-4.5-2.185-9.09-4.194-13.736-6.04-4.649-1.844-9.362-3.525-14.12-5.05-4.78-1.535-9.609-2.916-14.474-4.154-4.893-1.245-9.823-2.346-14.78-3.309-4.987-.969-10-1.8-15.03-2.499-5.059-.702-10.136-1.271-15.224-1.709-5.107-.44-10.226-.75-15.349-.932-5.131-.182-10.267-.235-15.401-.16-5.13.075-10.259.278-15.379.611-5.106.332-10.203.792-15.285 1.385-5.058.59-10.1 1.311-15.12 2.169-4.99.852-9.957 1.84-14.892 2.969-4.905 1.122-9.778 2.385-14.607 3.797-4.806 1.405-9.569 2.959-14.274 4.671-4.697 1.71-9.337 3.578-13.901 5.617-4.582 2.047-9.09 4.266-13.492 6.67-4.459 2.434-8.815 5.058-13.04 7.884-4.322 2.893-8.504 5.998-12.504 9.322-4.149 3.448-8.103 7.134-11.81 11.05-3.894 4.119-7.516 8.498-10.801 13.12-3.479 4.894-6.582 10.06-9.237 15.445-2.807 5.696-5.114 11.642-6.855 17.751-1.814 6.362-3.01 12.9-3.563 19.494-.556 6.682-.443 13.42.336 20.08.764 6.537 2.17 12.999 4.173 19.268 1.916 5.998 4.379 11.82 7.321 17.385 2.779 5.258 5.986 10.286 9.551 15.04 3.369 4.497 7.06 8.751 11 12.749 3.763 3.813 7.761 7.393 11.944 10.741 4.04 3.235 8.255 6.252 12.602 9.06 4.255 2.75 8.638 5.301 13.12 7.666 4.433 2.34 8.962 4.496 13.563 6.484 4.589 1.982 9.25 3.795 13.967 5.451 4.727 1.66 9.51 3.164 14.333 4.52 4.848 1.364 9.738 2.579 14.659 3.655 4.951 1.083 9.932 2.025 14.935 2.833 5.03.813 10.09 1.489 15.15 2.036 5.09.549 10.194.966 15.305 1.254 5.124.289 10.256.449 15.388.481 5.134.032 10.268-.065 15.397-.29 5.119-.225 10.232-.578 15.333-1.062 5.08-.482 10.148-1.094 15.197-1.841 5.02-.743 10.02-1.618 14.994-2.633 4.942-1.01 9.856-2.155 14.732-3.448 4.848-1.286 9.659-2.716 14.418-4.301 4.743-1.58 9.436-3.313 14.06-5.213 4.63-1.902 9.193-3.969 13.667-6.216 4.511-2.266 8.932-4.713 13.233-7.356 4.382-2.692 8.64-5.586 12.739-8.692 4.228-3.204 8.286-6.635 12.13-10.295 4.01-3.826 7.79-7.903 11.273-12.221 3.679-4.562 7.03-9.393 9.973-14.458 3.118-5.368 5.777-10.999 7.958-16.824 2.289-6.116 4.052-12.446 5.03-18.879.838-5.49 1.108-11.05 1.378-16.618" style="stroke:#000"/></g></g></svg>