<svg xmlns="http://www.w3.org/2000/svg" viewBox="0 0 48 48"><defs><linearGradient id="1" y1="38.812" y2="41.625" x1="10.575" x2="12.263" gradientUnits="userSpaceOnUse"><stop style="stop-color:#c1c1c1"/><stop offset="1" style="stop-color:#acacac"/></linearGradient><linearGradient id="2" y1="31.17" y2="30.828" x1="19.893" x2="19.689" gradientUnits="userSpaceOnUse"><stop/><stop offset="1" style="stop-color:#c9c9c9"/></linearGradient><linearGradient id="0" y1="17.376" y2="22.251" x1="43.24" x2="45.32" gradientUnits="userSpaceOnUse"><stop style="stop-color:#ffd1d1"/><stop offset=".5" style="stop-color:#ff1d1d"/><stop offset="1" style="stop-color:#6f0000"/></linearGradient><radialGradient cx="29.05" cy="27.641" gradientTransform="matrix(2.92356 0 0 2.02972-61.56-27.884)" r="3.241" id="3" gradientUnits="userSpaceOnUse"><stop style="stop-color:#e7e2b8"/><stop offset="1" style="stop-color:#e7e2b8;stop-opacity:0"/></radialGradient></defs><g transform="matrix(1.59144-.56621.5901 1.52702-42.17 3.697)" style="fill-rule:evenodd"><path d="m17.341 32.5l5.625-5.625 20.09-9.75c3.25-1.25 5.188 3.375 2.313 5l-20.03 9.375-8 1z" style="fill:#cb9022;stroke:#5c410c;stroke-width:.934"/><path d="m38.33 20c0 0 1.438.094 2 1.344.58 1.288 0 2.656 0 2.656l5.03-2.469c0 0 1.452-.881.656-2.844-.785-1.936-2.688-1.156-2.688-1.156l-5 2.469" style="fill:url(#0)"/><path d="m18.768 31.781l4.5-4.5c1.5.813 2.281 2.156 1.875 3.719l-6.375.781" style="fill:url(#3)"/><path d="m20.11 30.375l-1.625 1.594 2.344-.313c.219-.719-.188-1.063-.719-1.281" style="fill:url(#2)"/><g style="fill-opacity:.364"><path d="m23.268 27.25l1.563 1.25 15.387-7.319c-.444-.856-1.242-1.085-1.903-1.162l-15.05 7.231" style="fill:#fff"/><path d="m25.14 31.06l.188-.75 15.231-7.13c0 0-.11.614-.216.749l-15.203 7.13"/></g></g></svg>