<?xml version="1.0" encoding="UTF-8"?>
<!-- 2011-10-19 12:38:58 Generated by QCAD SVG Exporter -->
<svg width="199.304" height="111" viewBox="-1.5 -110.5 199.304 111" version="1.1" xmlns="http://www.w3.org/2000/svg" style="stroke-linecap:round;stroke-linejoin:round;fill:none">
    <g transform="scale(1,-1)">
        <!-- Text: 2. -->
        <path d="M134.72,84.6028 L134.72,83.4227 L128.11,83.4227 C128.101,83.7183 128.149,84.0026 128.253,84.2754 C128.422,84.7256 128.691,85.169 129.062,85.6056 C129.432,86.0421 129.968,86.5469 130.668,87.1199 C131.755,88.0112 132.489,88.7172 132.871,89.2379 C133.253,89.7586 133.444,90.2509 133.444,90.7147 C133.444,91.2013 133.27,91.6117 132.923,91.9459 C132.575,92.2802 132.121,92.4473 131.562,92.4473 C130.97,92.4473 130.498,92.2699 130.143,91.9152 C129.788,91.5605 129.609,91.0694 129.604,90.4418 L128.342,90.5715 C128.428,91.5128 128.754,92.2302 129.317,92.7236 C129.881,93.217 130.639,93.4637 131.589,93.4637 C132.548,93.4637 133.308,93.1976 133.867,92.6656 C134.427,92.1335 134.706,91.4741 134.706,90.6874 C134.706,90.2872 134.624,89.8939 134.461,89.5073 C134.297,89.1208 134.025,88.7138 133.646,88.2863 C133.266,87.8589 132.635,87.2722 131.753,86.5264 C131.016,85.908 130.543,85.4885 130.334,85.2679 C130.125,85.0473 129.952,84.8257 129.815,84.6028 L134.72,84.6028 M136.725,83.4227 L136.725,84.8211 L138.123,84.8211 L138.123,83.4227 L136.725,83.4227 " style="fill:#000000;fill-rule:evenodd;"/>
        <!-- Text: 3. -->
        <path d="M187.454,65.1939 L188.682,65.3576 C188.823,64.6618 189.063,64.1605 189.402,63.8535 C189.741,63.5465 190.153,63.3931 190.64,63.3931 C191.217,63.3931 191.705,63.5932 192.103,63.9933 C192.501,64.3935 192.7,64.8892 192.7,65.4804 C192.7,66.0443 192.516,66.5092 192.147,66.8753 C191.779,67.2414 191.311,67.4244 190.742,67.4244 C190.51,67.4244 190.222,67.379 189.876,67.288 L190.012,68.3658 C190.094,68.3567 190.16,68.3521 190.21,68.3521 C190.733,68.3521 191.204,68.4886 191.622,68.7614 C192.041,69.0343 192.25,69.4549 192.25,70.0233 C192.25,70.4736 192.097,70.8464 191.793,71.142 C191.488,71.4376 191.095,71.5854 190.613,71.5854 C190.135,71.5854 189.737,71.4354 189.419,71.1352 C189.101,70.8351 188.896,70.3849 188.805,69.7846 L187.577,70.0029 C187.727,70.826 188.068,71.4638 188.6,71.9163 C189.132,72.3687 189.794,72.595 190.585,72.595 C191.131,72.595 191.634,72.4779 192.093,72.2437 C192.552,72.0095 192.903,71.69 193.147,71.2853 C193.39,70.8806 193.512,70.4508 193.512,69.9961 C193.512,69.564 193.396,69.1707 193.164,68.816 C192.932,68.4613 192.589,68.1793 192.134,67.9701 C192.725,67.8337 193.184,67.5506 193.512,67.1209 C193.839,66.6912 194.003,66.1534 194.003,65.5077 C194.003,64.6345 193.684,63.8944 193.048,63.2873 C192.411,62.6802 191.606,62.3767 190.633,62.3767 C189.755,62.3767 189.027,62.6382 188.447,63.1611 C187.867,63.6841 187.536,64.3617 187.454,65.1939 M195.905,62.554 L195.905,63.9524 L197.304,63.9524 L197.304,62.554 L195.905,62.554 " style="fill:#000000;fill-rule:evenodd;"/>
        <!-- Line -->
        <path d="M-1,40 L129,40 " style="stroke:#000000;stroke-width:1;"/>
        <!-- Line -->
        <path d="M129,40 L129,0 " style="stroke:#000000;stroke-width:1;"/>
        <!-- Leader -->
        <path d="M99,40 L104.894,48.2485 L107.248,45.8936 Z" style="stroke:#0000ff;stroke-width:0.5;fill:#0000ff;fill-rule:evenodd;"/>
        <path d="M99,40 L139,80 M139,80 L189,80 " style="stroke:#0000ff;stroke-width:0.5;"/>
        <!-- Text: N7 -->
        <g>
            <path d="M169,90 L169,110 L180.111,90 L180.111,110 " style="stroke:#0000ff;stroke-width:0.5;"/>
            <path d="M186.778,110 L195.667,110 L190.111,90 M191.222,101.111 L195.667,101.111 " style="stroke:#0000ff;stroke-width:0.5;"/>
        </g>
        <!-- Text: 1. -->
        <path d="M97.2287,22.1209 L96.0009,22.1209 L96.0009,29.9449 C95.7053,29.663 95.3176,29.381 94.8379,29.0991 C94.3581,28.8172 93.9272,28.6057 93.5452,28.4647 L93.5452,29.6516 C94.2319,29.9745 94.8322,30.3656 95.346,30.8249 C95.8599,31.2842 96.2237,31.7298 96.4374,32.1619 L97.2287,32.1619 L97.2287,22.1209 M101.061,22.1209 L101.061,23.5193 L102.46,23.5193 L102.46,22.1209 L101.061,22.1209 " style="fill:#000000;fill-rule:evenodd;"/>
    </g>
</svg>
