<svg width="199.304" fill="none" xmlns="http://www.w3.org/2000/svg" height="111" viewBox="-1.5 -110.5 199.304 111" stroke-linejoin="round" stroke-linecap="round">
<g transform="scale(1 -1)">
<g fill="#000" fill-rule="evenodd">
<path d="m134.72,84.6028v-1.1801h-6.61c-.009,.2956 .039,.5799 .143,.8527 .169,.4502 .438,.8936 .809,1.3302 .37,.4365 .906,.9413 1.606,1.5143 1.087,.8913 1.821,1.5973 2.203,2.118 .382,.5207 .573,1.013 .573,1.4768 0,.4866-.174,.897-.521,1.2312-.348,.3343-.802,.5014-1.361,.5014-.592,0-1.064-.1774-1.419-.5321-.355-.3547-.534-.8458-.539-1.4734l-1.262,.1297c.086,.9413 .412,1.6587 .975,2.1521 .564,.4934 1.322,.7401 2.272,.7401 .959,0 1.719-.2661 2.278-.7981 .56-.5321 .839-1.1915 .839-1.9782 0-.4002-.082-.7935-.245-1.1801-.164-.3865-.436-.7935-.815-1.221-.38-.4274-1.011-1.0141-1.893-1.7599-.737-.6184-1.21-1.0379-1.419-1.2585-.209-.2206-.382-.4422-.519-.6651h4.905m2.005-1.1801v1.3984h1.398v-1.3984h-1.398"/>
<path d="m187.454,65.1939l1.228,.1637c.141-.6958 .381-1.1971 .72-1.5041 .339-.307 .751-.4604 1.238-.4604 .577,0 1.065,.2001 1.463,.6002 .398,.4002 .597,.8959 .597,1.4871 0,.5639-.184,1.0288-.553,1.3949-.368,.3661-.836,.5491-1.405,.5491-.232,0-.52-.0454-.866-.1364l.136,1.0778c.082-.0091 .148-.0137 .198-.0137 .523,0 .994,.1365 1.412,.4093 .419,.2729 .628,.6935 .628,1.2619 0,.4503-.153,.8231-.457,1.1187-.305,.2956-.698,.4434-1.18,.4434-.478,0-.876-.15-1.194-.4502-.318-.3001-.523-.7503-.614-1.3506l-1.228,.2183c.15,.8231 .491,1.4609 1.023,1.9134 .532,.4524 1.194,.6787 1.985,.6787 .546,0 1.049-.1171 1.508-.3513 .459-.2342 .81-.5537 1.054-.9584 .243-.4047 .365-.8345 .365-1.2892 0-.4321-.116-.8254-.348-1.1801-.232-.3547-.575-.6367-1.03-.8459 .591-.1364 1.05-.4195 1.378-.8492 .327-.4297 .491-.9675 .491-1.6132 0-.8732-.319-1.6133-.955-2.2204-.637-.6071-1.442-.9106-2.415-.9106-.878,0-1.606,.2615-2.186,.7844-.58,.523-.911,1.2006-.993,2.0328m8.451-2.6399v1.3984h1.399v-1.3984h-1.399"/>
</g>
<g stroke="#fff">
<path d="m-1,40h130"/>
<path d="m129,40v-40"/>
</g>
<g stroke="#00f" stroke-width=".5">
<path fill="#00f" fill-rule="evenodd" d="m99,40l5.894,8.2485 2.354-2.3549Z"/>
<path d="m99,40l40,40h50"/>
</g>
</g>
<g stroke="#00f" stroke-width=".5" transform="scale(1 -1)">
<path d="m169,90v20l11.111-20v20"/>
<path d="m186.778,110h8.889l-5.556-20m1.111,11.111h4.445"/>
</g>
<g transform="scale(1 -1)">
<path fill="#000" fill-rule="evenodd" d="m97.2287,22.1209h-1.2278v7.824c-.2956-.2819-.6833-.5639-1.163-.8458-.4798-.2819-.9107-.4934-1.2927-.6344v1.1869c.6867,.3229 1.287,.714 1.8008,1.1733 .5139,.4593 .8777,.9049 1.0914,1.337h.7913v-10.041m3.8323,0v1.3984h1.399v-1.3984h-1.399"/>
</g>
</svg>
