<svg width="199.3" xmlns="http://www.w3.org/2000/svg" viewBox="-1.5 -110.5 199.304 111" style="fill:none;stroke-linecap:round;stroke-linejoin:round"><g transform="scale(1-1)"><g style="fill:#000;fill-rule:evenodd"><path d="m134.72 84.6v-1.18h-6.61c-.009.296.039.58.143.853.169.45.438.894.809 1.33.37.436.906.941 1.606 1.514 1.087.891 1.821 1.597 2.203 2.118.382.521.573 1.013.573 1.477 0 .487-.174.897-.521 1.231-.348.334-.802.501-1.361.501-.592 0-1.064-.177-1.419-.532-.355-.355-.534-.846-.539-1.473l-1.262.13c.086.941.412 1.659.975 2.152.564.493 1.322.74 2.272.74.959 0 1.719-.266 2.278-.798.56-.532.839-1.192.839-1.978 0-.4-.082-.793-.245-1.18-.164-.386-.436-.793-.815-1.221-.38-.427-1.01-1.014-1.893-1.76-.737-.618-1.21-1.038-1.419-1.258-.209-.221-.382-.442-.519-.665h4.905m2-1.18v1.398h1.398v-1.398h-1.398"/><path d="m187.45 65.19l1.228.164c.141-.696.381-1.197.72-1.504.339-.307.751-.46 1.238-.46.577 0 1.065.2 1.463.6.398.4.597.896.597 1.487 0 .564-.184 1.029-.553 1.395-.368.366-.836.549-1.405.549-.232 0-.52-.045-.866-.136l.136 1.078c.082-.009.148-.014.198-.014.523 0 .994.136 1.412.409.419.273.628.694.628 1.262 0 .45-.153.823-.457 1.119-.305.296-.698.443-1.18.443-.478 0-.876-.15-1.194-.45-.318-.3-.523-.75-.614-1.351l-1.228.218c.15.823.491 1.461 1.023 1.913.532.452 1.194.679 1.985.679.546 0 1.049-.117 1.508-.351.459-.234.81-.554 1.054-.958.243-.405.365-.835.365-1.289 0-.432-.116-.825-.348-1.18-.232-.355-.575-.637-1.03-.846.591-.136 1.05-.419 1.378-.849.327-.43.491-.968.491-1.613 0-.873-.319-1.613-.955-2.22-.637-.607-1.442-.911-2.415-.911-.878 0-1.606.261-2.186.784-.58.523-.911 1.201-.993 2.033m8.451-2.64v1.398h1.399v-1.398h-1.399"/></g><g style="stroke:#000"><path d="m-1 40h130"/><path d="m129 40v-40"/></g><g style="stroke:#00f;stroke-width:.5"><path d="m99 40l5.894 8.249 2.354-2.355" style="fill:#00f;fill-rule:evenodd"/><path d="m99 40l40 40h50"/><path d="m169 90v20l11.11-20v20"/><path d="m186.78 110h8.889l-5.556-20m1.111 11.11h4.445"/></g><path d="m97.23 22.12h-1.228v7.824c-.296-.282-.683-.564-1.163-.846-.48-.282-.911-.493-1.293-.634v1.187c.687.323 1.287.714 1.801 1.173.514.459.878.905 1.091 1.337h.791v-10.04m3.832 0v1.398h1.399v-1.398h-1.399" style="fill:#000;fill-rule:evenodd"/></g></svg>