<?xml version="1.0" encoding="UTF-8" standalone="no"?>
<svg
   xmlns:dc="http://purl.org/dc/elements/1.1/"
   xmlns:cc="http://creativecommons.org/ns#"
   xmlns:rdf="http://www.w3.org/1999/02/22-rdf-syntax-ns#"
   xmlns:svg="http://www.w3.org/2000/svg"
   xmlns="http://www.w3.org/2000/svg"
   xmlns:sodipodi="http://sodipodi.sourceforge.net/DTD/sodipodi-0.dtd"
   xmlns:inkscape="http://www.inkscape.org/namespaces/inkscape"
   width="512"
   height="512"
   id="svg2"
   version="1.1"
   inkscape:version="0.48.2 r9819"
   sodipodi:docname="InfoPositionPol.svg">
  <metadata
     id="metadata16">
    <rdf:RDF>
      <cc:Work
         rdf:about="">
        <dc:format>image/svg+xml</dc:format>
        <dc:type
           rdf:resource="http://purl.org/dc/dcmitype/StillImage" />
        <dc:title />
      </cc:Work>
    </rdf:RDF>
  </metadata>
  <sodipodi:namedview
     pagecolor="#ffffff"
     bordercolor="#666666"
     borderopacity="1"
     objecttolerance="10"
     gridtolerance="10"
     guidetolerance="10"
     inkscape:pageopacity="0"
     inkscape:pageshadow="2"
     inkscape:window-width="1864"
     inkscape:window-height="1013"
     id="namedview14"
     showgrid="true"
     inkscape:zoom="1.5683594"
     inkscape:cx="121.46451"
     inkscape:cy="249.62391"
     inkscape:window-x="-38"
     inkscape:window-y="227"
     inkscape:window-maximized="0"
     inkscape:current-layer="g6">
    <inkscape:grid
       type="xygrid"
       id="grid2993"
       empspacing="8"
       visible="true"
       enabled="true"
       snapvisiblegridlinesonly="true"
       spacingx="16px"
       spacingy="16px"
       originx="8px"
       originy="8px" />
  </sodipodi:namedview>
  <defs
     id="defs4" />
  <g
     transform="translate(0 492)"
     id="g6">
    <g
       style="font-size:134.77600098px;line-height:125%;letter-spacing:0;word-spacing:0;font-family:Al-seana"
       id="text10"
       transform="matrix(1.5,0,0,1.5,-206.15625,224.46875)">
      <path
         d="m 285.3125,-388 0,-66.375 10.125,0 0,10.0625 c 2.58331,-4.70827 4.95831,-7.81244 7.125,-9.3125 2.20831,-1.49993 4.62497,-2.24993 7.25,-2.25 3.79163,7e-5 7.64579,1.2084 11.5625,3.625 l -3.875,10.4375 c -2.75004,-1.62494 -5.50004,-2.43744 -8.25,-2.4375 -2.45836,6e-5 -4.66669,0.75006 -6.625,2.25 -1.95836,1.45839 -3.35419,3.50005 -4.1875,6.125 -1.25002,4.00004 -1.87502,8.37504 -1.875,13.125 l 0,34.75 -11.25,0"
         style="font-size:128px;text-align:end;text-anchor:end;font-family:Arial"
         id="path3035"
         inkscape:connector-curvature="0" />
      <path
         d="m 326.75,-428.0625 0,-10.5 60.6875,-25.625 0,11.1875 -48.125,19.75 48.125,19.9375 0,11.1875 -60.6875,-25.9375"
         style="font-size:128px;text-align:end;text-anchor:end;font-family:Arial"
         id="path3037"
         inkscape:connector-curvature="0" />
      <path
         d="m 452.1875,-454.375 11.5,0 c -2.91673,9.16672 -5.60423,20.22921 -8.0625,33.1875 2.9166,16.08335 5.6041,27.14584 8.0625,33.1875 l -11.1875,0 c -1.79172,-4.16666 -3.14589,-8.20833 -4.0625,-12.125 -3.45838,9.08334 -10.68754,13.625 -21.6875,13.625 -8.33336,0 -15.04168,-3.125 -20.125,-9.375 -5.08334,-6.24999 -7.625,-14.72914 -7.625,-25.4375 0,-10.99996 2.54166,-19.49995 7.625,-25.5 5.12498,-6.0416 11.89581,-9.06243 20.3125,-9.0625 5.2083,7e-5 9.45829,1.06257 12.75,3.1875 3.29162,2.0834 6.35412,5.27089 9.1875,9.5625 0.29161,-1.45828 1.39578,-5.20827 3.3125,-11.25 m -23.375,7.8125 c -5.37503,6e-5 -9.62502,2.16672 -12.75,6.5 -3.12502,4.33338 -4.68752,10.58337 -4.6875,18.75 -2e-5,7.95836 1.47915,14.20835 4.4375,18.75 2.95831,4.54168 7.0833,6.81251 12.375,6.8125 5.16663,10e-6 9.47912,-2.22916 12.9375,-6.6875 3.45828,-4.49998 5.18745,-10.95831 5.1875,-19.375 -5e-5,-8.16662 -1.62505,-14.33329 -4.875,-18.5 -3.20838,-4.16661 -7.41671,-6.24994 -12.625,-6.25"
         style="font-size:128px;text-align:end;text-anchor:end;font-family:Arial"
         id="path3039"
         inkscape:connector-curvature="0" />
    </g>
    <path
       style="fill:none;stroke:#000000;stroke-width:8;stroke-linecap:butt;stroke-linejoin:miter;stroke-miterlimit:4;stroke-opacity:1;stroke-dasharray:none"
       d="M 40,472 440,232"
       id="path2995"
       inkscape:connector-curvature="0"
       transform="translate(0,-492)"
       sodipodi:nodetypes="cc" />
    <path
       d="m 408,-260 a 32,32 0 1 1 64,0 32,32 0 0 1 -64,0 z"
       id="path8"
       inkscape:connector-curvature="0"
       style="fill:#ff0000" />
    <path
       style="fill:none;stroke:#000000;stroke-width:8;stroke-linecap:round;stroke-linejoin:round;stroke-miterlimit:4;stroke-opacity:1;stroke-dashoffset:0"
       d="M 342.01055,-200.1258 C 373.49831,-147.44489 391.59323,-85.835594 391.59323,-20"
       id="path3831"
       inkscape:connector-curvature="0"
       sodipodi:nodetypes="cc" />
  </g>
</svg>
