<svg xmlns="http://www.w3.org/2000/svg" viewBox="0 0 512 512"><g transform="translate(0 492)"><g transform="matrix(1.5 0 0 1.5-206.16 224.47)"><path d="m285.31-388v-66.37h10.125v10.06c2.583-4.708 4.958-7.812 7.125-9.313 2.208-1.5 4.625-2.25 7.25-2.25 3.792 0 7.646 1.208 11.563 3.625l-3.875 10.438c-2.75-1.625-5.5-2.437-8.25-2.438-2.458 0-4.667.75-6.625 2.25-1.958 1.458-3.354 3.5-4.188 6.125-1.25 4-1.875 8.375-1.875 13.13v34.75h-11.25"/><path d="m326.75-428.06v-10.5l60.688-25.625v11.188l-48.12 19.75 48.13 19.938v11.188l-60.688-25.938"/><path d="m452.19-454.37h11.5c-2.917 9.167-5.604 20.229-8.06 33.19 2.917 16.08 5.604 27.15 8.06 33.19h-11.188c-1.792-4.167-3.146-8.208-4.063-12.12-3.458 9.08-10.688 13.625-21.688 13.625-8.333 0-15.04-3.125-20.12-9.375-5.083-6.25-7.625-14.729-7.625-25.438 0-11 2.542-19.5 7.625-25.5 5.125-6.04 11.896-9.06 20.313-9.06 5.208 0 9.458 1.063 12.75 3.188 3.292 2.083 6.354 5.271 9.188 9.563.292-1.458 1.396-5.208 3.313-11.25m-23.375 7.813c-5.375 0-9.625 2.167-12.75 6.5-3.125 4.333-4.688 10.583-4.688 18.75 0 7.958 1.479 14.208 4.438 18.75 2.958 4.542 7.083 6.813 12.375 6.813 5.167 0 9.479-2.229 12.938-6.688 3.458-4.5 5.187-10.958 5.188-19.375 0-8.167-1.625-14.333-4.875-18.5-3.208-4.167-7.417-6.25-12.625-6.25"/></g><path d="m40 472l400-240" transform="translate(0-492)" fill="none" stroke="#000" stroke-width="8"/><path d="m408-260a32 32 0 1 1 64 0 32 32 0 0 1 -64 0" fill="#f00"/><path d="m342.01-200.13c31.488 52.681 49.583 114.29 49.583 180.13" fill="none" stroke="#000" stroke-linejoin="round" stroke-linecap="round" stroke-width="8"/></g></svg>