<?xml version="1.0" encoding="UTF-8"?>
<!-- 2011-11-22 14:15:38 Generated by QCAD SVG Exporter -->
<svg width="279.445" height="218.585" viewBox="59.65 -243.235 279.445 218.585" version="1.1" xmlns="http://www.w3.org/2000/svg" style="stroke-linecap:round;stroke-linejoin:round;fill:none">
    <g transform="scale(1,-1)">
        <!-- Line -->
        <path d="M60,60 L60,90 " style="stroke:#000000;stroke-width:0.7;"/>
        <!-- Line -->
        <path d="M60,90 L66,96 " style="stroke:#000000;stroke-width:0.7;"/>
        <!-- Line -->
        <path d="M60,210 L270,210 " style="stroke:#000000;stroke-width:0.7;"/>
        <!-- Line -->
        <path d="M270,180 L60,180 " style="stroke:#000000;stroke-width:0.7;"/>
        <!-- Line -->
        <path d="M60,180 L60,210 " style="stroke:#000000;stroke-width:0.7;"/>
        <!-- Line -->
        <path d="M60,210 L66,216 " style="stroke:#000000;stroke-width:0.7;"/>
        <!-- Line -->
        <path d="M66,216 L264,216 " style="stroke:#000000;stroke-width:0.7;"/>
        <!-- Line -->
        <path d="M270,210 L270,180 " style="stroke:#000000;stroke-width:0.7;"/>
        <!-- Line -->
        <path d="M264,216 L270,210 " style="stroke:#000000;stroke-width:0.7;"/>
        <!-- Rotated Dimension -->
        <g>
            <path d="M60,150 L70,151.665 L70,148.335 Z" style="stroke:#0000ff;stroke-width:0.18;fill:#0000ff;fill-rule:evenodd;"/>
            <path d="M270,150 L260,148.335 L260,151.665 Z" style="stroke:#0000ff;stroke-width:0.18;fill:#0000ff;fill-rule:evenodd;"/>
            <g>
                <path d="M160.556,152.5 L156.111,152.5 L160.406,159.886 M160.405,159.884 L160.405,159.884 C160.501,160.049 160.556,160.24 160.556,160.443 C160.556,160.581 160.531,160.712 160.485,160.833 M160.485,160.833 L160.485,160.834 C160.238,161.792 159.368,162.5 158.333,162.5 C157.298,162.5 156.429,161.792 156.182,160.835 " style="stroke:#0000ff;stroke-width:0.18;"/>
                <path d="M163.889,160.278 L166.111,162.5 L166.111,152.5 " style="stroke:#0000ff;stroke-width:0.18;"/>
                <path d="M172.685,161.944 L172.685,161.944 C172.47,162.279 172.094,162.5 171.667,162.5 C171.24,162.5 170.864,162.279 170.649,161.945 M170.65,161.948 L170.649,161.948 C170.167,161.303 169.826,160.546 169.674,159.725 M169.675,155.278 L169.674,155.277 C169.826,154.453 170.167,153.696 170.649,153.052 M170.649,153.055 L170.649,153.055 C170.864,152.721 171.24,152.5 171.667,152.5 C172.094,152.5 172.469,152.721 172.685,153.055 M172.683,153.052 L172.683,153.052 C173.166,153.697 173.507,154.454 173.658,155.275 M173.657,155.275 L173.658,155.27 C173.809,155.98 173.889,156.713 173.889,157.466 C173.889,157.477 173.889,157.489 173.889,157.5 M173.889,157.498 L173.889,157.498 C173.889,157.51 173.889,157.522 173.889,157.534 C173.889,158.287 173.809,159.021 173.659,159.725 M173.658,159.723 L173.659,159.724 C173.506,160.547 173.167,161.302 172.685,161.946 M169.445,157.502 L169.445,157.502 C169.444,157.49 169.444,157.478 169.444,157.466 C169.444,156.712 169.524,155.978 169.675,155.273 M169.677,159.725 L169.676,159.73 C169.524,159.02 169.444,158.287 169.444,157.534 C169.444,157.522 169.444,157.51 169.445,157.498 " style="stroke:#0000ff;stroke-width:0.18;"/>
            </g>
            <path d="M60,150 L270,150 M60,177.5 L60,145 M270,177.5 L270,145 " style="stroke:#0000ff;stroke-width:0.18;"/>
        </g>
        <!-- Circle -->
        <circle cx="252" cy="195" r="9" style="stroke:#000000;stroke-width:0.7;"/>
        <!-- Line -->
        <path d="M252,207 L252,183 " style="stroke:#ff0000;stroke-width:0.18;"/>
        <!-- Line -->
        <path d="M240,195 L264,195 " style="stroke:#ff0000;stroke-width:0.18;"/>
        <!-- Rotated Dimension -->
        <g>
            <path d="M270,162 L280,163.665 L280,160.335 Z" style="stroke:#0000ff;stroke-width:0.18;fill:#0000ff;fill-rule:evenodd;"/>
            <path d="M252,162 L242,160.335 L242,163.665 Z" style="stroke:#0000ff;stroke-width:0.18;fill:#0000ff;fill-rule:evenodd;"/>
            <g>
                <path d="M256,172.278 L258.222,174.5 L258.222,164.5 " style="stroke:#0000ff;stroke-width:0.18;"/>
                <path d="M261.556,167.833 L261.556,166.722 C261.556,165.495 262.55,164.5 263.778,164.5 C265.005,164.5 266,165.495 266,166.722 L266,167.833 C266,169.061 265.005,170.056 263.778,170.056 C262.55,170.056 261.556,169.061 261.556,167.833 M261.833,172.556 L261.833,172 C261.833,170.926 262.704,170.056 263.778,170.056 C264.852,170.056 265.722,170.926 265.722,172 L265.722,172.556 C265.722,173.629 264.852,174.5 263.778,174.5 C262.704,174.5 261.833,173.629 261.833,172.556 " style="stroke:#0000ff;stroke-width:0.18;"/>
            </g>
            <path d="M290,162 L232,162 M270,177.5 L270,157 M252,180.5 L252,157 " style="stroke:#0000ff;stroke-width:0.18;"/>
        </g>
        <!-- Line -->
        <path d="M219.447,230.246 L287.371,230.246 " style="stroke:#ff0000;stroke-width:0.18;"/>
        <!-- Line -->
        <path d="M287.371,230.246 L287.371,135.675 " style="stroke:#ff0000;stroke-width:0.18;"/>
        <!-- Line -->
        <path d="M287.371,135.675 L219.447,135.675 " style="stroke:#ff0000;stroke-width:0.18;"/>
        <!-- Line -->
        <path d="M219.447,135.675 L219.447,230.246 " style="stroke:#ff0000;stroke-width:0.18;"/>
        <!-- Line -->
        <path d="M60,90 L300,90 " style="stroke:#000000;stroke-width:0.7;"/>
        <!-- Line -->
        <path d="M300,60 L60,60 " style="stroke:#000000;stroke-width:0.7;"/>
        <!-- Line -->
        <path d="M66,96 L294,96 " style="stroke:#000000;stroke-width:0.7;"/>
        <!-- Line -->
        <path d="M300,90 L300,60 " style="stroke:#000000;stroke-width:0.7;"/>
        <!-- Line -->
        <path d="M294,96 L300,90 " style="stroke:#000000;stroke-width:0.7;"/>
        <!-- Rotated Dimension -->
        <g>
            <path d="M60,30 L70,31.6651 L70,28.3349 Z" style="stroke:#0000ff;stroke-width:0.18;fill:#0000ff;fill-rule:evenodd;"/>
            <path d="M300,30 L290,28.3349 L290,31.6651 Z" style="stroke:#0000ff;stroke-width:0.18;fill:#0000ff;fill-rule:evenodd;"/>
            <g>
                <path d="M173.889,32.5 L169.444,32.5 L173.739,39.8856 M173.738,39.8844 L173.738,39.8842 C173.834,40.0485 173.889,40.2395 173.889,40.4433 C173.889,40.5806 173.864,40.7121 173.819,40.8333 M173.818,40.8334 L173.819,40.8339 C173.571,41.7924 172.702,42.5 171.667,42.5 C170.632,42.5 169.762,41.7925 169.515,40.8353 " style="stroke:#0000ff;stroke-width:0.18;"/>
                <path d="M181.111,32.5 L181.111,36.9444 M182.778,34.7222 L177.222,34.7222 L179.444,42.5 " style="stroke:#0000ff;stroke-width:0.18;"/>
                <path d="M189.352,41.9442 L189.352,41.9443 C189.136,42.2787 188.761,42.5 188.333,42.5 C187.906,42.5 187.531,42.279 187.315,41.9451 M187.316,41.9477 L187.316,41.948 C186.833,41.3035 186.493,40.5463 186.341,39.7246 M186.342,35.278 L186.341,35.277 C186.493,34.4526 186.834,33.696 187.316,33.0521 M187.315,33.055 L187.315,33.0549 C187.531,32.721 187.906,32.5 188.333,32.5 C188.76,32.5 189.136,32.721 189.351,33.0549 M189.35,33.0523 L189.35,33.052 C189.833,33.6965 190.174,34.4537 190.325,35.2754 M190.323,35.275 L190.324,35.2698 C190.476,35.9799 190.556,36.7135 190.556,37.4656 C190.556,37.4771 190.556,37.4886 190.556,37.4999 M190.555,37.498 L190.555,37.4978 C190.556,37.5101 190.556,37.5223 190.556,37.5344 C190.556,38.287 190.476,39.0209 190.326,39.7253 M190.324,39.7229 L190.325,39.7239 C190.173,40.547 189.833,41.3024 189.352,41.9456 M186.111,37.502 L186.111,37.5022 C186.111,37.4899 186.111,37.4777 186.111,37.4656 C186.111,36.7124 186.191,35.9778 186.342,35.2729 M186.343,39.725 L186.342,39.7302 C186.191,39.0201 186.111,38.2865 186.111,37.5344 C186.111,37.5222 186.111,37.51 186.111,37.498 " style="stroke:#0000ff;stroke-width:0.18;"/>
            </g>
            <path d="M60,30 L300,30 M60,57.5 L60,25 M300,57.5 L300,25 " style="stroke:#0000ff;stroke-width:0.18;"/>
        </g>
        <!-- Circle -->
        <circle cx="282" cy="75" r="9" style="stroke:#000000;stroke-width:0.7;"/>
        <!-- Line -->
        <path d="M282,87 L282,63 " style="stroke:#ff0000;stroke-width:0.18;"/>
        <!-- Line -->
        <path d="M270,75 L294,75 " style="stroke:#ff0000;stroke-width:0.18;"/>
        <!-- Rotated Dimension -->
        <g>
            <path d="M300,42 L310,43.6651 L310,40.3349 Z" style="stroke:#0000ff;stroke-width:0.18;fill:#0000ff;fill-rule:evenodd;"/>
            <path d="M282,42 L272,40.3349 L272,43.6651 Z" style="stroke:#0000ff;stroke-width:0.18;fill:#0000ff;fill-rule:evenodd;"/>
            <g>
                <path d="M286,52.2778 L288.222,54.5 L288.222,44.5 " style="stroke:#0000ff;stroke-width:0.18;"/>
                <path d="M291.556,47.8333 L291.556,46.7222 C291.556,45.4949 292.55,44.5 293.778,44.5 C295.005,44.5 296,45.4949 296,46.7222 L296,47.8333 C296,49.0606 295.005,50.0556 293.778,50.0556 C292.55,50.0556 291.556,49.0606 291.556,47.8333 M291.833,52.5556 L291.833,52 C291.833,50.9261 292.704,50.0556 293.778,50.0556 C294.852,50.0556 295.722,50.9261 295.722,52 L295.722,52.5556 C295.722,53.6294 294.852,54.5 293.778,54.5 C292.704,54.5 291.833,53.6294 291.833,52.5556 " style="stroke:#0000ff;stroke-width:0.18;"/>
            </g>
            <path d="M320,42 L262,42 M300,57.5 L300,37 M282,60.5 L282,37 " style="stroke:#0000ff;stroke-width:0.18;"/>
        </g>
        <!-- Leader -->
        <path d="M330,180 L320,178.335 L320,181.665 Z" style="stroke:#ff0000;stroke-width:0.18;fill:#ff0000;fill-rule:evenodd;"/>
        <path d="M330,180 L300,180 " style="stroke:#ff0000;stroke-width:0.18;"/>
        <!-- Text: 1. -->
        <path d="M221.515,232.844 L220.287,232.844 L220.287,240.668 C219.991,240.386 219.604,240.104 219.124,239.823 C218.644,239.541 218.213,239.329 217.831,239.188 L217.831,240.375 C218.518,240.698 219.118,241.089 219.632,241.548 C220.146,242.008 220.51,242.453 220.723,242.885 L221.515,242.885 L221.515,232.844 M225.347,232.844 L225.347,234.243 L226.746,234.243 L226.746,232.844 L225.347,232.844 " style="fill:#000000;fill-rule:evenodd;"/>
        <!-- Text: 2. -->
        <path d="M298.212,124.065 L298.212,122.885 L291.603,122.885 C291.594,123.18 291.641,123.465 291.746,123.738 C291.914,124.188 292.184,124.631 292.554,125.068 C292.925,125.504 293.46,126.009 294.161,126.582 C295.247,127.473 295.982,128.179 296.364,128.7 C296.746,129.221 296.937,129.713 296.937,130.177 C296.937,130.663 296.763,131.074 296.415,131.408 C296.067,131.742 295.614,131.909 295.054,131.909 C294.463,131.909 293.99,131.732 293.635,131.377 C293.281,131.023 293.101,130.531 293.097,129.904 L291.835,130.034 C291.921,130.975 292.246,131.692 292.81,132.186 C293.374,132.679 294.131,132.926 295.082,132.926 C296.041,132.926 296.8,132.66 297.36,132.128 C297.919,131.596 298.199,130.936 298.199,130.15 C298.199,129.749 298.117,129.356 297.953,128.969 C297.79,128.583 297.518,128.176 297.138,127.748 C296.758,127.321 296.127,126.734 295.245,125.989 C294.509,125.37 294.036,124.951 293.826,124.73 C293.617,124.509 293.444,124.288 293.308,124.065 L298.212,124.065 M300.217,122.885 L300.217,124.283 L301.615,124.283 L301.615,122.885 L300.217,122.885 " style="fill:#000000;fill-rule:evenodd;"/>
        <!-- Text: 3. -->
        <path d="M298.561,185.376 L299.789,185.54 C299.93,184.844 300.17,184.343 300.508,184.036 C300.847,183.729 301.26,183.575 301.747,183.575 C302.324,183.575 302.812,183.775 303.21,184.176 C303.608,184.576 303.807,185.071 303.807,185.663 C303.807,186.226 303.622,186.691 303.254,187.058 C302.886,187.424 302.417,187.607 301.849,187.607 C301.617,187.607 301.328,187.561 300.983,187.47 L301.119,188.548 C301.201,188.539 301.267,188.534 301.317,188.534 C301.84,188.534 302.31,188.671 302.729,188.944 C303.147,189.216 303.356,189.637 303.356,190.206 C303.356,190.656 303.204,191.029 302.899,191.324 C302.595,191.62 302.201,191.768 301.719,191.768 C301.242,191.768 300.844,191.618 300.526,191.317 C300.207,191.017 300.003,190.567 299.912,189.967 L298.684,190.185 C298.834,191.008 299.175,191.646 299.707,192.098 C300.239,192.551 300.901,192.777 301.692,192.777 C302.238,192.777 302.74,192.66 303.199,192.426 C303.659,192.192 304.01,191.872 304.253,191.467 C304.497,191.063 304.618,190.633 304.618,190.178 C304.618,189.746 304.502,189.353 304.27,188.998 C304.039,188.643 303.695,188.362 303.24,188.152 C303.832,188.016 304.291,187.733 304.618,187.303 C304.946,186.873 305.109,186.336 305.109,185.69 C305.109,184.817 304.791,184.077 304.154,183.47 C303.518,182.862 302.713,182.559 301.74,182.559 C300.862,182.559 300.133,182.82 299.554,183.343 C298.974,183.866 298.643,184.544 298.561,185.376 M307.012,182.736 L307.012,184.135 L308.41,184.135 L308.41,182.736 L307.012,182.736 " style="fill:#000000;fill-rule:evenodd;"/>
        <!-- Text: 4. -->
        <path d="M332.825,182.777 L332.825,185.171 L328.487,185.171 L328.487,186.297 L333.05,192.777 L334.053,192.777 L334.053,186.297 L335.403,186.297 L335.403,185.171 L334.053,185.171 L334.053,182.777 L332.825,182.777 M332.825,186.297 L332.825,190.806 L329.694,186.297 L332.825,186.297 M337.347,182.777 L337.347,184.176 L338.745,184.176 L338.745,182.777 L337.347,182.777 " style="fill:#000000;fill-rule:evenodd;"/>
    </g>
</svg>
