<?xml version="1.0" encoding="UTF-8"?>
<!-- 2016-05-25 09:58:53 Generated by QCAD SVG Exporter -->
<svg width="278.74510916638064" height="217.88530704909" viewBox="60 -242.88530704909 278.74510916638064 217.88530704909" version="1.1" xmlns="http://www.w3.org/2000/svg" style="stroke-linecap:round;stroke-linejoin:round;fill:none">
    <g transform="scale(1,-1)">
        <!-- Line -->
        <path d="M60,60 L60,90 " style="stroke:#000000;stroke-width:0.7;"/>
        <!-- Line -->
        <path d="M60,90 L66,96 " style="stroke:#000000;stroke-width:0.7;"/>
        <!-- Line -->
        <path d="M60,210 L270,210 " style="stroke:#000000;stroke-width:0.7;"/>
        <!-- Line -->
        <path d="M270,180 L60,180 " style="stroke:#000000;stroke-width:0.7;"/>
        <!-- Line -->
        <path d="M60,180 L60,210 " style="stroke:#000000;stroke-width:0.7;"/>
        <!-- Line -->
        <path d="M60,210 L66,216 " style="stroke:#000000;stroke-width:0.7;"/>
        <!-- Line -->
        <path d="M66,216 L264,216 " style="stroke:#000000;stroke-width:0.7;"/>
        <!-- Line -->
        <path d="M270,210 L270,180 " style="stroke:#000000;stroke-width:0.7;"/>
        <!-- Line -->
        <path d="M264,216 L270,210 " style="stroke:#000000;stroke-width:0.7;"/>
        <!-- Rotated Dimension -->
        <g>
            <path d="M60,150 L70,151.66513863109137 L70,148.33486136890863 Z" style="stroke:#0000ff;stroke-width:0.18;fill:#0000ff;fill-rule:evenodd;"/>
            <path d="M270,150 L260,148.33486136890863 L260,151.66513863109137 Z" style="stroke:#0000ff;stroke-width:0.18;fill:#0000ff;fill-rule:evenodd;"/>
            <g>
                <path d="M160.55555555555554,152.5 L156.11111111111111,152.5 L160.40555555555557,159.88555555555556 M160.40474977994856,159.88442228152195 L160.40484885530066,159.8842320953569 C160.50067431295525,160.04850588059725 160.55555555555554,160.239510506456 160.55555555555554,160.44333333333333 C160.55555555555554,160.5806047924542 160.53066246639293,160.71206215907753 160.48521406966952,160.8332511578513 M160.48496662333878,160.83342675895085 L160.48539143539543,160.8339328948173 C160.2381390878589,161.79237581707324 159.3683734523256,162.5 158.33333333333334,162.5 C157.2983535227491,162.5 156.42862893617598,161.79245827657198 156.18161957579898,160.83526748753007" style="stroke:#0000ff;stroke-width:0.18;"/>
                <path d="M163.88888888888889,160.27777777777777 L166.11111111111111,162.5 L166.11111111111111,152.5" style="stroke:#0000ff;stroke-width:0.18;"/>
                <path d="M172.6851439941167,161.9442468497981 L172.68525203710317,161.94434960689716 C172.46965193283077,162.27867101113665 172.09400637732992,162.5 171.66666666666666,162.5 C171.23961201822405,162.5 170.86418258149973,162.2789661931109 170.64856622335313,161.94510102018876 M170.64965003468933,161.94767490496213 L170.64946858780758,161.94796256588393 C170.16654718602916,161.30347106015918 169.8259441328491,160.5463089191562 169.67449749121968,159.72464160646527 M169.67497434916405,155.27797340498304 L169.67419293286846,155.27700929698335 C169.82640547709323,154.4526467302816 170.1668965842053,153.69603900222597 170.64941196003693,153.05211300634625 M170.64864711354411,153.05504227865757 L170.64853964562,153.054940131541 C170.86421342813298,152.7210156463806 171.23962956234772,152.5 171.66666666666666,152.5 C172.09372131510926,152.5 172.46915075183358,152.7210338068891 172.6847671099802,153.05489897981127 M172.68323885419957,153.05232509503787 L172.68342030108133,153.05203743411607 C173.1663417028597,153.69652893984082 173.50694475603981,154.4536910808438 173.65839139766922,155.2753583935347 M173.65672371301633,155.27504157321061 L173.6578182822648,155.2698347306561 C173.80943929573152,155.97994489609852 173.88888888888889,156.7134720024516 173.88888888888889,157.46555555555557 C173.88888888888889,157.47708161987708 173.8888702284621,157.48860332582242 173.88883352921712,157.49993700102593 M173.8888252239128,157.49796713715534 L173.88882590033805,157.49777075587934 C173.88886810378384,157.51012018131738 173.88888888888889,157.5222798855702 173.88888888888889,157.53444444444443 C173.88888888888889,158.28698579665024 173.80934254312422,159.02094810432294 173.6588561651996,159.72530588676148 M173.6577446151843,159.72294297948753 L173.65852680628666,159.72390796475918 C173.5064064385253,160.5469629938682 173.1666012895874,161.30244836434397 172.68515280161068,161.94564921142063 M169.44450810942052,157.50203286284466 L169.44450743299527,157.50222924412063 C169.4444652295495,157.4898798186826 169.44444444444446,157.4777201144298 169.44444444444446,157.46555555555557 C169.44444444444446,156.71238175827307 169.5241245498613,155.97781824676443 169.6748580734772,155.27290938693568 M169.676609620317,159.72495842678939 L169.67551505106854,159.73016526934387 C169.52389403760182,159.02005510390148 169.44444444444446,158.2865279975484 169.44444444444446,157.53444444444443 C169.44444444444446,157.52221496363916 169.44446545200066,157.50999038941154 169.44450676618231,157.49796536526327" style="stroke:#0000ff;stroke-width:0.18;"/>
            </g>
            <path d="M60,150 L270,150 M60,177.5 L60,145 M270,177.5 L270,145 " style="stroke:#0000ff;stroke-width:0.18;"/>
        </g>
        <!-- Circle -->
        <circle cx="252" cy="195" r="9" style="stroke:#000000;stroke-width:0.7;"/>
        <!-- Line -->
        <path d="M252,207 L252,183 " style="stroke:#ff0000;stroke-width:0.18;"/>
        <!-- Line -->
        <path d="M240,195 L264,195 " style="stroke:#ff0000;stroke-width:0.18;"/>
        <!-- Rotated Dimension -->
        <g>
            <path d="M270,162 L280,163.66513863109137 L280,160.33486136890863 Z" style="stroke:#0000ff;stroke-width:0.18;fill:#0000ff;fill-rule:evenodd;"/>
            <path d="M252,162 L242,160.33486136890863 L242,163.66513863109137 Z" style="stroke:#0000ff;stroke-width:0.18;fill:#0000ff;fill-rule:evenodd;"/>
            <g>
                <path d="M256,172.27777777777777 L258.22222222222223,174.5 L258.22222222222223,164.5" style="stroke:#0000ff;stroke-width:0.18;"/>
                <path d="M261.55555555555554,167.83333333333334 L261.55555555555554,166.72222222222223 C261.55555555555554,165.49492277822222 262.5504783337778,164.5 263.77777777777777,164.5 C265.00507722177775,164.5 266,165.49492277822222 266,166.72222222222223 L266,167.83333333333334 C266,169.06063277733332 265.00507722177775,170.05555555555554 263.77777777777777,170.05555555555554 C262.5504783337778,170.05555555555554 261.55555555555554,169.06063277733332 261.55555555555554,167.83333333333334 M261.8333333333333,172.55555555555554 L261.8333333333333,172 C261.8333333333333,170.9261129865 262.7038907642778,170.05555555555554 263.77777777777777,170.05555555555554 C264.85166479127776,170.05555555555554 265.72222222222223,170.9261129865 265.72222222222223,172 L265.72222222222223,172.55555555555554 C265.72222222222223,173.62944256905556 264.85166479127776,174.5 263.77777777777777,174.5 C262.7038907642778,174.5 261.8333333333333,173.62944256905556 261.8333333333333,172.55555555555554" style="stroke:#0000ff;stroke-width:0.18;"/>
            </g>
            <path d="M290,162 L232,162 M270,177.5 L270,157 M252,180.5 L252,157 " style="stroke:#0000ff;stroke-width:0.18;"/>
        </g>
        <!-- Line -->
        <path d="M219.4466560509554,230.2458200636942 L287.3706210191082,230.2458200636942 " style="stroke:#ff0000;stroke-width:0.18;"/>
        <!-- Line -->
        <path d="M287.3706210191082,230.2458200636942 L287.3706210191082,135.6747611464968 " style="stroke:#ff0000;stroke-width:0.18;"/>
        <!-- Line -->
        <path d="M287.3706210191082,135.6747611464968 L219.4466560509554,135.6747611464968 " style="stroke:#ff0000;stroke-width:0.18;"/>
        <!-- Line -->
        <path d="M219.4466560509554,135.6747611464968 L219.4466560509554,230.2458200636942 " style="stroke:#ff0000;stroke-width:0.18;"/>
        <!-- Line -->
        <path d="M60,90 L300,90 " style="stroke:#000000;stroke-width:0.7;"/>
        <!-- Line -->
        <path d="M300,60 L60,60 " style="stroke:#000000;stroke-width:0.7;"/>
        <!-- Line -->
        <path d="M66,96 L294,96 " style="stroke:#000000;stroke-width:0.7;"/>
        <!-- Line -->
        <path d="M300,90 L300,60 " style="stroke:#000000;stroke-width:0.7;"/>
        <!-- Line -->
        <path d="M294,96 L300,90 " style="stroke:#000000;stroke-width:0.7;"/>
        <!-- Rotated Dimension -->
        <g>
            <path d="M60,30 L70,31.66513863109136 L70,28.334861368908637 Z" style="stroke:#0000ff;stroke-width:0.18;fill:#0000ff;fill-rule:evenodd;"/>
            <path d="M300,30 L290,28.334861368908637 L290,31.665138631091363 Z" style="stroke:#0000ff;stroke-width:0.18;fill:#0000ff;fill-rule:evenodd;"/>
            <g>
                <path d="M173.88888888888889,32.5 L169.44444444444446,32.5 L173.73888888888888,39.885555555555555 M173.7380831132819,39.88442228152196 L173.738182188634,39.884232095356914 C173.8340076462886,40.04850588059724 173.88888888888889,40.23951050645601 173.88888888888889,40.443333333333335 C173.88888888888889,40.58060479245422 173.86399579972627,40.71206215907753 173.81854740300287,40.83325115785128 M173.8182999566721,40.83342675895085 L173.81872476872877,40.8339328948173 C173.57147242119225,41.79237581707324 172.70170678565896,42.5 171.66666666666666,42.5 C170.63168685608244,42.5 169.76196226950933,41.79245827657196 169.51495290913232,40.83526748753007" style="stroke:#0000ff;stroke-width:0.18;"/>
                <path d="M181.11111111111111,32.5 L181.11111111111111,36.94444444444444 M182.77777777777777,34.72222222222222 L177.22222222222223,34.72222222222222 L179.44444444444446,42.5" style="stroke:#0000ff;stroke-width:0.18;"/>
                <path d="M189.35181066078334,41.944246849798105 L189.35191870376985,41.944349606897156 C189.13631859949743,42.27867101113666 188.76067304399658,42.5 188.33333333333334,42.5 C187.90627868489074,42.5 187.53084924816642,42.278966193110904 187.3152328900198,41.945101020188744 M187.316316701356,41.94767490496212 L187.31613525447423,41.94796256588391 C186.83321385269585,41.30347106015919 186.49261079951575,40.546308919156196 186.34116415788634,39.72464160646528 M186.3416410158307,35.277973404983044 L186.34085959953515,35.277009296983366 C186.49307214375992,34.4526467302816 186.83356325087195,33.69603900222597 187.3160786267036,33.05211300634624 M187.31531378021077,33.055042278657574 L187.31520631228665,33.05494013154099 C187.53088009479967,32.721015646380614 187.90629622901437,32.5 188.33333333333334,32.5 C188.76038798177595,32.5 189.13581741850027,32.721033806889096 189.3514337766469,33.054898979811256 M189.34990552086623,33.05232509503788 L189.35008696774798,33.05203743411609 C189.8330083695264,33.69652893984081 190.17361142270647,34.4536910808438 190.32505806433588,35.27535839353472 M190.323390379683,35.275041573210615 L190.32448494893146,35.26983473065611 C190.47610596239818,35.97994489609851 190.55555555555554,36.713472002451596 190.55555555555554,37.465555555555554 C190.55555555555554,37.47708161987708 190.55553689512877,37.48860332582241 190.55550019588378,37.49993700102591 M190.55549189057948,37.49796713715536 L190.55549256700473,37.49777075587936 C190.5555347704505,37.51012018131738 190.55555555555554,37.522279885570214 190.55555555555554,37.534444444444446 C190.55555555555554,38.28698579665024 190.47600920979087,39.02094810432293 190.3255228318663,39.725305886761475 M190.32441128185098,39.72294297948752 L190.32519347295332,39.72390796475917 C190.17307310519197,40.54696299386818 189.83326795625405,41.302448364343974 189.35181946827734,41.94564921142063 M186.1111747760872,37.50203286284464 L186.11117409966195,37.50222924412064 C186.11113189621616,37.48987981868261 186.11111111111111,37.477720114429786 186.11111111111111,37.465555555555554 C186.11111111111111,36.71238175827308 186.190791216528,35.97781824676442 186.34152474014385,35.272909386935666 M186.34327628698367,39.72495842678938 L186.3421817177352,39.730165269343885 C186.19056070426848,39.020055103901484 186.11111111111111,38.286527997548404 186.11111111111111,37.534444444444446 C186.11111111111111,37.522214963639165 186.1111321186673,37.509990389411534 186.11117343284897,37.49796536526327" style="stroke:#0000ff;stroke-width:0.18;"/>
            </g>
            <path d="M60,30 L300,30 M60,57.5 L60,25 M300,57.5 L300,25 " style="stroke:#0000ff;stroke-width:0.18;"/>
        </g>
        <!-- Circle -->
        <circle cx="282" cy="75" r="9" style="stroke:#000000;stroke-width:0.7;"/>
        <!-- Line -->
        <path d="M282,87 L282,63 " style="stroke:#ff0000;stroke-width:0.18;"/>
        <!-- Line -->
        <path d="M270,75 L294,75 " style="stroke:#ff0000;stroke-width:0.18;"/>
        <!-- Rotated Dimension -->
        <g>
            <path d="M300,42 L310,43.66513863109136 L310,40.33486136890863 Z" style="stroke:#0000ff;stroke-width:0.18;fill:#0000ff;fill-rule:evenodd;"/>
            <path d="M282,42 L272,40.33486136890864 L272,43.66513863109136 Z" style="stroke:#0000ff;stroke-width:0.18;fill:#0000ff;fill-rule:evenodd;"/>
            <g>
                <path d="M286,52.27777777777778 L288.22222222222223,54.5 L288.22222222222223,44.5" style="stroke:#0000ff;stroke-width:0.18;"/>
                <path d="M291.55555555555554,47.833333333333336 L291.55555555555554,46.72222222222222 C291.55555555555554,45.494922778222225 292.5504783337778,44.5 293.77777777777777,44.5 C295.00507722177775,44.5 296,45.494922778222225 296,46.72222222222222 L296,47.833333333333336 C296,49.06063277733333 295.00507722177775,50.05555555555556 293.77777777777777,50.05555555555556 C292.5504783337778,50.05555555555556 291.55555555555554,49.06063277733333 291.55555555555554,47.833333333333336 M291.8333333333333,52.55555555555556 L291.8333333333333,52 C291.8333333333333,50.9261129865 292.7038907642778,50.05555555555556 293.77777777777777,50.05555555555556 C294.85166479127776,50.05555555555556 295.72222222222223,50.9261129865 295.72222222222223,52 L295.72222222222223,52.55555555555556 C295.72222222222223,53.629442569055556 294.85166479127776,54.5 293.77777777777777,54.5 C292.7038907642778,54.5 291.8333333333333,53.629442569055556 291.8333333333333,52.55555555555556" style="stroke:#0000ff;stroke-width:0.18;"/>
            </g>
            <path d="M320,42 L262,42 M300,57.5 L300,37 M282,60.5 L282,37 " style="stroke:#0000ff;stroke-width:0.18;"/>
        </g>
        <!-- Leader -->
        <path d="M330,180 L320,178.33486136890863 L320,181.66513863109137 Z" style="stroke:#ff0000;stroke-width:0.18;fill:#ff0000;fill-rule:evenodd;"/>
        <path d="M330,180 L300,180" style="stroke:#ff0000;stroke-width:0.18;"/>
        <!-- Text: 1. -->
        <g>
            <path d="M221.51472775838067,232.84437935468344 L220.28689692618423,232.84437935468344 L220.28689692618423,240.6683902687353 C219.9913080221369,240.38644392949016 219.6036318056749,240.10449759024505 219.12386827679813,239.82255125099994 C218.64410474792138,239.54060491175483 218.21322707625242,239.329145157321 217.8312352617913,239.18817198769844 L217.8312352617913,240.37507512548834 C218.51791102350117,240.69794915914002 219.1181838747972,241.0890360168026 219.63205381567943,241.54833569847608 C220.14592375656164,242.00763538014957 220.50972548461988,242.45329249702087 220.72345899985407,242.88530704909 L221.51472775838067,242.88530704909 Z M225.3474699139059,232.84437935468344 L225.3474699139059,234.24274224690717 L226.74583280612964,234.24274224690717 L226.74583280612964,232.84437935468344 Z" style="fill:#000000;fill-rule:evenodd;"/>
        </g>
        <!-- Text: 2. -->
        <g>
            <path d="M298.21247179845705,124.06492392137255 L298.21247179845705,122.88484206598375 L291.6026491517995,122.88484206598375 C291.593554108598,123.18043097003104 291.64130308540564,123.46465107007651 291.7458960822224,123.73750236612017 C291.9141543814493,124.18770700459221 292.18359503629245,124.63109036066315 292.5542180467517,125.067652434333 C292.92484105721104,125.50421450800285 293.4603117256967,126.00898940568361 294.1606300522088,126.58197712737528 C295.24748771478266,127.4732913611179 295.98191245330014,128.17929408963087 296.36390426776126,128.69998531291418 C296.7458960822224,129.2206765361975 296.93689198945293,129.71294574947623 296.93689198945293,130.17679295275045 C296.93689198945293,130.66337776402833 296.7629492882251,131.07379158849398 296.4150638857695,131.40803442614745 C296.0671784833138,131.74227726380093 295.6135632036412,131.90939868262768 295.0542180467517,131.90939868262768 C294.46304023865713,131.90939868262768 293.99009799218146,131.7320453401993 293.6353913073247,131.37733865534256 C293.28068462246796,131.0226319704858 293.1010575192392,130.53149963760723 293.09650999763846,129.9039416567068 L291.8345727534366,130.03354602232753 C291.9209756638504,130.97488299367816 292.2461234583024,131.69225452619293 292.8100161367926,132.18566061987187 C293.3739088152829,132.6790667135508 294.131071161804,132.9257697603903 295.0815031763561,132.9257697603903 C296.0410302341096,132.9257697603903 296.8004663414311,132.65973974674773 297.3598114983206,132.1276797194626 C297.9191566552101,131.59561969217748 298.19882923365486,130.93622906007198 298.19882923365486,130.14950782314608 C298.19882923365486,129.74932592228205 298.11697384484177,129.35596530381912 297.9532630672156,128.96942596775727 C297.7895522895894,128.58288663169543 297.5178378739459,128.1758834484303 297.13811982028517,127.74841641796192 C296.7584017666244,127.32094938749353 296.1274331445234,126.73431910099967 295.2452139539823,125.98852555848033 C294.5085154546644,125.37006262078138 294.03557320818874,124.95055375311426 293.82638721455527,124.72999895547898 C293.6172012209218,124.50944415784369 293.44439540009415,124.28775247980822 293.3079697520723,124.06492392137255 Z M300.2171102704898,122.88484206598375 L300.2171102704898,124.28320495820748 L301.61547316271356,124.28320495820748 L301.61547316271356,122.88484206598375 Z" style="fill:#000000;fill-rule:evenodd;"/>
        </g>
        <!-- Text: 3. -->
        <g>
            <path d="M298.561022131976,185.37607206930852 L299.78885296417246,185.53978284693474 C299.929826133795,184.8440120420234 300.1697078982334,184.3426477855432 300.5084982574876,184.03569007749408 C300.8472886167418,183.72873236944497 301.25997620200786,183.5752535154204 301.7465610132857,183.5752535154204 C302.3240962565781,183.5752535154204 302.81181794825613,183.7753444658524 303.2097260883198,184.17552636671644 C303.60763422838346,184.57570826758047 303.8065882984153,185.07138812205977 303.8065882984153,185.6625659301544 C303.8065882984153,186.2264586086446 303.6224136735858,186.691442692319 303.2540644239269,187.05751818117756 C302.88571517426794,187.42359367003613 302.417320449393,187.60663141446543 301.84888024930206,187.60663141446543 C301.61695664766495,187.60663141446543 301.3281890260188,187.56115619845815 300.9825773843635,187.4702057664436 L301.1190030323853,188.54796838581603 C301.2008584211984,188.53887334261458 301.2667974844089,188.53432582101385 301.31682022201693,188.53432582101385 C301.8397852061006,188.53432582101385 302.31045369177593,188.67075146903568 302.72882567904287,188.94360276507933 C303.1471976663098,189.216454061123 303.3563836599433,189.6370998091903 303.3563836599433,190.20554000928126 C303.3563836599433,190.6557446477533 303.2040416863189,191.02864141901296 302.8993577390701,191.32423032306025 C302.5946737918214,191.61981922710754 302.20131317335847,191.7676136791312 301.71927588368135,191.7676136791312 C301.24178611560495,191.7676136791312 300.84387797554126,191.61754546630718 300.52555146349033,191.31740904065916 C300.2072249514394,191.01727261501114 300.00258647940666,190.5670679765391 299.9116360473921,189.96679512524304 L298.68380521519566,190.18507616207796 C298.8338734280197,191.00817757180968 299.17493754807424,191.6459674763117 299.70699757535937,192.0984458755841 C300.2390576026445,192.55092427485653 300.9007219955504,192.7771634744927 301.691990754077,192.7771634744927 C302.2376933461643,192.7771634744927 302.74019448304466,192.660064793274 303.19949416471815,192.4258674308365 C303.65879384639163,192.19167006839902 304.0100898900479,191.87220667594792 304.2533822956868,191.46747725348317 C304.49667470132573,191.0627478310184 304.6183209041452,190.63300703974966 304.6183209041452,190.1782548796769 C304.6183209041452,189.74624032760775 304.5023591033266,189.35287970914482 304.2704355016895,188.99817302428806 C304.0385119000524,188.6434663394313 303.6951740191975,188.3615200001862 303.2404218591247,188.15233400655273 C303.83159966721934,188.0159083585309 304.2908993488928,187.7328251388856 304.6183209041452,187.30308434761685 C304.9457424593976,186.8733435563481 305.1094532370238,186.33559912706207 305.1094532370238,185.68985105975875 C305.1094532370238,184.81672691241903 304.79112672497286,184.07661777190063 304.154473700871,183.4695236382035 C303.51782067676913,182.86242950450637 302.7129093534403,182.5588824376578 301.7397397308846,182.5588824376578 C300.86206806194417,182.5588824376578 300.1333277254276,182.82036492969962 299.5535187213348,183.3433299137833 C298.97370971724206,183.86629489786696 298.6428775207891,184.54387561637537 298.561022131976,185.37607206930852 M307.01177247304014,182.73623578008616 L307.01177247304014,184.1345986723099 L308.4101353652639,184.1345986723099 L308.4101353652639,182.73623578008616 Z" style="fill:#000000;fill-rule:evenodd;"/>
        </g>
        <!-- Text: 4. -->
        <g>
            <path d="M332.8250545961214,182.7771634744927 L332.8250545961214,185.17143359727578 L328.4867189890273,185.17143359727578 L328.4867189890273,186.29694519345588 L333.05015691535743,192.7771634744927 L334.0528854283179,192.7771634744927 L334.0528854283179,186.29694519345588 L335.403499343734,186.29694519345588 L335.403499343734,185.17143359727578 L334.0528854283179,185.17143359727578 L334.0528854283179,182.7771634744927 Z M332.8250545961214,186.29694519345588 L332.8250545961214,190.8058128605773 L329.6940859740205,186.29694519345588 Z M337.3467462741569,182.7771634744927 L337.3467462741569,184.17552636671644 L338.74510916638064,184.17552636671644 L338.74510916638064,182.7771634744927 Z" style="fill:#000000;fill-rule:evenodd;"/>
        </g>
    </g>
</svg>
