<svg xmlns="http://www.w3.org/2000/svg" viewBox="0 0 512 512"><g transform="translate(0 492)" style="stroke:#fff;stroke-linecap:round;stroke-linejoin:round"><path d="m79.999-337.61v353.53c57.07-150.3 233.07-251.92 233.07-251.92v264.17c226-467.39 49.999-365.78 49.999-365.78" style="fill:#f00;fill-opacity:.251;stroke-width:4.01"/><g transform="matrix(24.89016 0 0-24.89016-490.7 261.8)" style="fill:none"><g style="stroke-width:.161"><path d="m30 28.16v-8.165l7.07-4.082v8.165l-7.07 4.082" style="fill-opacity:.251"/><path d="m30 20l-7.07-4.082 7.07-4.082 7.07 4.082-7.07 4.082"/></g><g style="stroke-width:.643"><path d="m30 20v-8.165l7.07 4.082v8.165l-7.07-4.082"/><path d="m30 28.16l-7.07-4.082 7.07-4.082 7.07 4.082-7.07 4.082"/><path d="m22.929 24.08v-8.165l7.07-4.082v8.165l-7.07 4.082"/></g></g></g></svg>
