<svg xmlns="http://www.w3.org/2000/svg" viewBox="0 0 512 512"><g transform="translate(0 492)" style="stroke:#fff;stroke-linecap:round;stroke-linejoin:round"><g style="fill:none"><g transform="matrix(24.89016 0 0-24.89016-490.7 261.8)" style="fill-opacity:.251;stroke-width:.161"><path d="m30 20l-7.07-4.082 7.07-4.082 7.07 4.082-7.07 4.082"/><path d="m22.929 24.08v-8.165l7.07 4.082v8.165l-7.07-4.082"/><path d="m30 28.16v-8.165l7.07-4.082v8.165l-7.07 4.082"/></g><path d="m256-236v247.84c226-44.607 402-146.22 402-146.22v158.47c394.93-361.7 218.93-260.08 218.93-260.08" style="stroke-width:16"/></g><g transform="matrix(24.89016 0 0-24.89016-490.7 261.8)" style="stroke-width:.643"><path d="m30 28.16l-7.07-4.082 7.07-4.082 7.07 4.082-7.07 4.082" style="fill:#f00;fill-opacity:.753"/><path d="m22.929 24.08v-8.165l7.07-4.082v8.165l-7.07 4.082" style="fill:none"/></g></g></svg>
