<?xml version="1.0" encoding="UTF-8" standalone="no"?>
<svg
   xmlns:dc="http://purl.org/dc/elements/1.1/"
   xmlns:cc="http://creativecommons.org/ns#"
   xmlns:rdf="http://www.w3.org/1999/02/22-rdf-syntax-ns#"
   xmlns:svg="http://www.w3.org/2000/svg"
   xmlns="http://www.w3.org/2000/svg"
   xmlns:xlink="http://www.w3.org/1999/xlink"
   xmlns:sodipodi="http://sodipodi.sourceforge.net/DTD/sodipodi-0.dtd"
   xmlns:inkscape="http://www.inkscape.org/namespaces/inkscape"
   width="512"
   height="512"
   id="svg2"
   version="1.1"
   inkscape:version="0.91 r13725"
   sodipodi:docname="RunScript.svg">
  <metadata
     id="metadata30">
    <rdf:RDF>
      <cc:Work
         rdf:about="">
        <dc:format>image/svg+xml</dc:format>
        <dc:type
           rdf:resource="http://purl.org/dc/dcmitype/StillImage" />
        <dc:title></dc:title>
      </cc:Work>
    </rdf:RDF>
  </metadata>
  <sodipodi:namedview
     pagecolor="#ffffff"
     bordercolor="#666666"
     borderopacity="1"
     objecttolerance="10"
     gridtolerance="10"
     guidetolerance="10"
     inkscape:pageopacity="0"
     inkscape:pageshadow="2"
     inkscape:window-width="2560"
     inkscape:window-height="1338"
     id="namedview28"
     showgrid="false"
     showguides="true"
     inkscape:guide-bbox="true"
     inkscape:zoom="0.86915206"
     inkscape:cx="180.98464"
     inkscape:cy="139.4375"
     inkscape:window-x="0"
     inkscape:window-y="1"
     inkscape:window-maximized="1"
     inkscape:current-layer="svg2">
    <sodipodi:guide
       orientation="1,0"
       position="-65.898305,32.338983"
       id="guide3797" />
  </sodipodi:namedview>
  <defs
     id="defs4">
    <linearGradient
       id="linearGradient3801">
      <stop
         style="stop-color:#00ff00;stop-opacity:1;"
         offset="0"
         id="stop3803" />
      <stop
         style="stop-color:#00ff00;stop-opacity:0;"
         offset="1"
         id="stop3805" />
    </linearGradient>
    <linearGradient
       id="linearGradient3703">
      <stop
         offset="0"
         stop-color="#fff"
         id="stop7" />
      <stop
         offset="1"
         stop-opacity="0"
         id="stop9" />
    </linearGradient>
    <linearGradient
       gradientTransform="matrix(0,-0.42135,-0.42135,0,97.38667,162.08589)"
       xlink:href="#linearGradient3703"
       id="linearGradient2941"
       y1="125.688"
       x1="222.856"
       y2="225.151"
       gradientUnits="userSpaceOnUse"
       x2="323.32999" />
    <linearGradient
       id="linearGradient3693">
      <stop
         offset="0"
         id="stop13" />
      <stop
         offset="1"
         stop-color="#c6d5e2"
         id="stop15" />
    </linearGradient>
    <radialGradient
       cx="257.436"
       cy="151.10201"
       gradientTransform="matrix(0.53828,-0.62177,-0.31266,-0.27067,-63.04393,247.48989)"
       xlink:href="#linearGradient3693"
       id="radialGradient2944"
       r="70.871002"
       gradientUnits="userSpaceOnUse" />
  </defs>
  <g
     transform="matrix(5.75,0,0,5.75,97.874753,-13.766458)"
     id="g18"
     style="stroke-linecap:round;stroke-linejoin:round">
    <g
       id="g20"
       style="stroke:#000000;stroke-width:1.26900005;stroke-opacity:0.26700003">
      <path
         d="m 56.3151,50.1853 c -0.1312,1.3946 -0.3539,2.7632 -0.6715,4.095 -2.622,-0.1731 -4.9991,-0.3279 -7.084,-0.4477 -0.3677,1.2399 -0.8318,2.4399 -1.3957,3.5815 1.6239,1.3053 3.4838,2.7889 5.5434,4.411 -0.6786,1.2144 -1.4413,2.3744 -2.2779,3.4761 -2.3274,-1.2259 -4.4395,-2.3246 -6.2939,-3.2786 -0.8224,0.9734 -1.7264,1.8763 -2.6993,2.6993 0.9541,1.8523 2.0545,3.9567 3.2786,6.2808 -1.1067,0.8416 -2.2687,1.6091 -3.4893,2.2911 -1.6221,-2.0596 -3.0949,-3.9195 -4.3978,-5.5434 -1.1425,0.5648 -2.3404,1.0275 -3.5815,1.3957 0.1174,2.0865 0.2614,4.4613 0.4345,7.084 -1.3357,0.3187 -2.6962,0.5537 -4.095,0.6847 -0.6422,-2.5338 -1.2329,-4.8304 -1.7644,-6.847 -0.344,0.0155 -0.6924,0.0263 -1.0402,0.0263 -0.9658,0 -1.9099,-0.0672 -2.8441,-0.1843 -0.7411,1.9602 -1.5817,4.1871 -2.4886,6.6494 -1.3697,-0.2491 -2.7054,-0.5835 -4.0028,-1.0139 0.4431,-2.5702 0.8363,-4.9102 1.1719,-6.9786 -1.2547,-0.4842 -2.4587,-1.062 -3.5946,-1.7512 -1.4815,1.4971 -3.1411,3.1959 -4.964,5.0694 C 8.9265,71.1107 7.8585,70.2632 6.8461,69.3436 8.2912,67.1837 9.6041,65.2158 10.7568,63.4579 9.7914,62.4956 8.9173,61.4463 8.1365,60.3241 6.164,61.0953 3.9522,61.9748 1.5266,62.9444 0.8119,61.788 0.1836,60.578 -0.3695,59.3234 1.8228,57.9422 3.8171,56.6713 5.5952,55.5312 5.0999,54.2456 4.7054,52.9011 4.4497,51.5152 c -2.1196,-0.0984 -4.4904,-0.1896 -7.084,-0.2897 -0.1635,-1.2605 -0.2502,-2.54 -0.2502,-3.8448 0,-0.0662 -4e-4,-0.1314 0,-0.1975 2.553,-0.3683 4.8865,-0.709 6.9786,-1.027 0.0767,-1.4458 0.297,-2.8516 0.632,-4.2135 -1.901,-0.9544 -4.0235,-2.0035 -6.3466,-3.147 0.391,-1.294 0.8657,-2.5529 1.4221,-3.7658 2.4877,0.7036 4.77,1.3347 6.8206,1.8961 0.663,-1.275 1.4472,-2.4754 2.3306,-3.5947 -1.3489,-1.6467 -2.8597,-3.4756 -4.5163,-5.4644 0.8814,-1.0084 1.8356,-1.9498 2.8441,-2.8309 1.9836,1.6523 3.8067,3.156 5.4512,4.5032 1.1229,-0.8859 2.3283,-1.6665 3.6078,-2.3306 -0.5634,-2.0518 -1.2057,-4.3333 -1.9092,-6.8206 1.2131,-0.5565 2.4716,-1.031 3.7658,-1.4221 1.1455,2.3272 2.2026,4.4571 3.1601,6.3598 1.3628,-0.3346 2.7668,-0.5561 4.2135,-0.632 0.3186,-2.0949 0.658,-4.4333 1.027,-6.9918 0.0617,-4e-4 0.1226,0 0.1843,0 1.3073,0 2.5952,0.0992 3.858,0.2633 0.1002,2.597 0.191,4.9637 0.2897,7.084 1.3938,0.2573 2.7368,0.6329 4.0292,1.1324 1.1415,-1.777 2.4107,-3.7719 3.7922,-5.9647 1.2445,0.5497 2.4468,1.1873 3.5946,1.8961 -0.9681,2.422 -1.839,4.6373 -2.6071,6.6099 1.1137,0.7757 2.1645,1.6495 3.1206,2.6071 1.7554,-1.1548 3.7271,-2.4532 5.8857,-3.8975 0.9221,1.0145 1.7783,2.0908 2.5544,3.226 -1.876,1.8254 -3.5717,3.4951 -5.0694,4.9772 0.6815,1.1264 1.2711,2.3253 1.7512,3.5683 2.0646,-0.3377 4.398,-0.7293 6.9655,-1.1719 0.4303,1.2961 0.7777,2.6345 1.027,4.0028 -2.4649,0.9079 -4.6987,1.7446 -6.6626,2.4886 0.1172,0.9342 0.1843,1.8914 0.1843,2.8573 0,0.3518 -0.0105,0.6923 -0.0263,1.0402 2.0165,0.5315 4.313,1.1222 6.8469,1.7644 z M 31.7188,47.3807 c 0,-2.7214 -2.2163,-4.9377 -4.9377,-4.9377 -2.7214,0 -4.9245,2.2163 -4.9245,4.9377 0,2.7214 2.2031,4.9245 4.9245,4.9245 2.7214,0 4.9377,-2.2031 4.9377,-4.9245 z"
         id="path22"
         inkscape:connector-curvature="0" />
      <path
         d="m 57.8848,49.4005 c -0.1312,1.3946 -0.3539,2.7632 -0.6715,4.095 -2.622,-0.1731 -4.9991,-0.3279 -7.084,-0.4477 -0.3677,1.2399 -0.8318,2.4399 -1.3957,3.5815 1.6239,1.3053 3.4838,2.7889 5.5434,4.411 -0.6786,1.2144 -1.4413,2.3744 -2.2779,3.4761 -2.3274,-1.2259 -4.4395,-2.3247 -6.2939,-3.2786 -0.8224,0.9734 -1.7264,1.8763 -2.6993,2.6993 0.9541,1.8523 2.0545,3.9567 3.2786,6.2808 -1.1067,0.8416 -2.2687,1.6091 -3.4893,2.2911 -1.6221,-2.0596 -3.0949,-3.9195 -4.3978,-5.5434 -1.1425,0.5648 -2.3404,1.0275 -3.5815,1.3957 0.1174,2.0865 0.2614,4.4613 0.4345,7.084 -1.3357,0.3187 -2.6962,0.5537 -4.095,0.6847 -0.6422,-2.5338 -1.2329,-4.8304 -1.7644,-6.847 -0.344,0.0155 -0.6924,0.0263 -1.0402,0.0263 -0.9658,0 -1.9099,-0.0671 -2.8441,-0.1843 -0.7411,1.9602 -1.5817,4.1871 -2.4886,6.6494 -1.3697,-0.2491 -2.7054,-0.5835 -4.0028,-1.0139 0.4431,-2.5702 0.8363,-4.9102 1.1719,-6.9786 -1.2547,-0.4842 -2.4587,-1.062 -3.5946,-1.7512 -1.4815,1.4971 -3.1411,3.1959 -4.964,5.0694 C 10.4962,70.3259 9.4282,69.4784 8.4158,68.5588 9.8609,66.3989 11.1738,64.431 12.3265,62.6731 11.3611,61.7108 10.487,60.6615 9.7062,59.5393 7.7337,60.3105 5.5219,61.19 3.0963,62.1596 2.3816,61.0032 1.7533,59.7932 1.2002,58.5386 3.3925,57.1574 5.3868,55.8865 7.1649,54.7465 6.6696,53.4609 6.2751,52.1164 6.0194,50.7305 3.8998,50.6321 1.529,50.5409 -1.0646,50.4408 c -0.1635,-1.2605 -0.2502,-2.54 -0.2502,-3.8448 0,-0.0662 -4e-4,-0.1314 0,-0.1975 2.553,-0.3683 4.8865,-0.709 6.9786,-1.027 0.0767,-1.4458 0.297,-2.8516 0.632,-4.2135 -1.901,-0.9544 -4.0235,-2.0035 -6.3466,-3.147 0.391,-1.294 0.8657,-2.5529 1.4221,-3.7658 2.4877,0.7036 4.77,1.3347 6.8206,1.8961 0.663,-1.275 1.4472,-2.4754 2.3306,-3.5947 -1.3489,-1.6467 -2.8597,-3.4756 -4.5163,-5.4644 0.8814,-1.0084 1.8356,-1.9498 2.8441,-2.8309 1.9836,1.6523 3.8067,3.156 5.4512,4.5032 1.1229,-0.8859 2.3283,-1.6665 3.6078,-2.3306 -0.5634,-2.0518 -1.2057,-4.3333 -1.9092,-6.8206 1.2131,-0.5565 2.4716,-1.031 3.7658,-1.4221 1.1455,2.3272 2.2026,4.4571 3.1601,6.3598 1.3628,-0.3346 2.7668,-0.5561 4.2135,-0.632 0.3186,-2.0949 0.658,-4.4333 1.027,-6.9918 0.0617,-4e-4 0.1226,0 0.1843,0 1.3073,0 2.5952,0.0992 3.858,0.2633 0.1002,2.597 0.191,4.9637 0.2897,7.084 1.3938,0.2573 2.7368,0.6329 4.0292,1.1324 1.1415,-1.777 2.4107,-3.7719 3.7922,-5.9647 1.2445,0.5497 2.4468,1.1873 3.5946,1.8961 -0.9681,2.422 -1.839,4.6373 -2.6071,6.6099 1.1137,0.7757 2.1645,1.6495 3.1206,2.6071 1.7554,-1.1548 3.7271,-2.4532 5.8857,-3.8975 0.9221,1.0145 1.7783,2.0908 2.5544,3.226 -1.876,1.8254 -3.5717,3.4951 -5.0694,4.9772 0.6815,1.1264 1.2711,2.3254 1.7512,3.5683 2.0646,-0.3377 4.398,-0.7293 6.9655,-1.1719 0.4303,1.2961 0.7777,2.6345 1.027,4.0028 -2.4649,0.9079 -4.6987,1.7446 -6.6626,2.4886 0.1172,0.9342 0.1843,1.8914 0.1843,2.8573 0,0.3518 -0.0105,0.6923 -0.0263,1.0402 2.0165,0.5315 4.313,1.1222 6.8469,1.7644 z M 33.2885,46.5959 c 0,-2.7214 -2.2163,-4.9377 -4.9377,-4.9377 -2.7214,0 -4.9245,2.2163 -4.9245,4.9377 0,2.7214 2.2031,4.9245 4.9245,4.9245 2.7214,0 4.9377,-2.2031 4.9377,-4.9245 z"
         id="path24"
         inkscape:connector-curvature="0"
         style="fill:url(#radialGradient2944)" />
    </g>
    <path
       d="m 44.4279,46.5958 c 0,8.8714 -7.2058,16.064 -16.0772,16.064 -8.8714,0 -16.064,-7.1926 -16.064,-16.064 0,-8.8714 7.1926,-16.0771 16.064,-16.0771 8.8714,0 16.0771,7.2058 16.0771,16.0772 z m -7.2815,0 c 0,-4.8549 -3.9408,-8.7957 -8.7957,-8.7957 -4.8549,0 -8.7957,3.9408 -8.7957,8.7957 0,4.8549 3.9408,8.7957 8.7957,8.7957 4.8549,0 8.7957,-3.9408 8.7957,-8.7957 z"
       id="path26"
       inkscape:connector-curvature="0"
       style="fill:url(#linearGradient2941);stroke:#ffffff;stroke-width:1.47899997;stroke-opacity:0.18300003" />
  </g>
  <path
     sodipodi:type="star"
     style="opacity:1;fill:#00ff00;fill-opacity:1;stroke:#000000;stroke-width:0.21789502;stroke-linecap:round;stroke-miterlimit:4;stroke-dasharray:none;stroke-opacity:1"
     id="path3799"
     sodipodi:sides="3"
     sodipodi:cx="-60.203388"
     sodipodi:cy="-6.9152541"
     sodipodi:r1="11.186441"
     sodipodi:r2="5.5932202"
     sodipodi:arg1="0"
     sodipodi:arg2="1.0471976"
     inkscape:flatsided="true"
     inkscape:rounded="0"
     inkscape:randomized="0"
     d="m -49.016947,-6.9152541 -16.779662,9.6877424 0,-19.3754853 z"
     inkscape:transform-center-x="-20.196579"
     transform="matrix(7.274407,0.0306224,-0.03036992,7.4120826,698.86632,307.45682)"
     inkscape:transform-center-y="-0.17126895" />
</svg>
