<?xml version="1.0" encoding="UTF-8" standalone="no"?>
<svg
   xmlns:dc="http://purl.org/dc/elements/1.1/"
   xmlns:cc="http://creativecommons.org/ns#"
   xmlns:rdf="http://www.w3.org/1999/02/22-rdf-syntax-ns#"
   xmlns:svg="http://www.w3.org/2000/svg"
   xmlns="http://www.w3.org/2000/svg"
   xmlns:xlink="http://www.w3.org/1999/xlink"
   xmlns:sodipodi="http://sodipodi.sourceforge.net/DTD/sodipodi-0.dtd"
   xmlns:inkscape="http://www.inkscape.org/namespaces/inkscape"
   width="48.000000"
   height="48.000000"
   id="svg2"
   version="1.1"
   inkscape:version="0.48.4 r9939"
   sodipodi:docname="JsFile.svg">
  <metadata
     id="metadata30">
    <rdf:RDF>
      <cc:Work
         rdf:about="">
        <dc:format>image/svg+xml</dc:format>
        <dc:type
           rdf:resource="http://purl.org/dc/dcmitype/StillImage" />
        <dc:title></dc:title>
      </cc:Work>
    </rdf:RDF>
  </metadata>
  <sodipodi:namedview
     pagecolor="#ffffff"
     bordercolor="#666666"
     borderopacity="1"
     objecttolerance="10"
     gridtolerance="10"
     guidetolerance="10"
     inkscape:pageopacity="0"
     inkscape:pageshadow="2"
     inkscape:window-width="1280"
     inkscape:window-height="734"
     id="namedview28"
     showgrid="false"
     showguides="true"
     inkscape:guide-bbox="true"
     inkscape:zoom="13.906433"
     inkscape:cx="30.047298"
     inkscape:cy="26.791796"
     inkscape:window-x="0"
     inkscape:window-y="27"
     inkscape:window-maximized="1"
     inkscape:current-layer="svg2">
    <sodipodi:guide
       orientation="1,0"
       position="-65.898305,32.338983"
       id="guide3797" />
  </sodipodi:namedview>
  <defs
     id="defs4">
    <linearGradient
       id="linearGradient3801">
      <stop
         style="stop-color:#00ff00;stop-opacity:1;"
         offset="0"
         id="stop3803" />
      <stop
         style="stop-color:#00ff00;stop-opacity:0;"
         offset="1"
         id="stop3805" />
    </linearGradient>
    <linearGradient
       id="linearGradient3703">
      <stop
         offset="0"
         stop-color="#fff"
         id="stop7" />
      <stop
         offset="1"
         stop-opacity="0"
         id="stop9" />
    </linearGradient>
    <linearGradient
       gradientTransform="matrix(0 -.42135 -.42135 -0 97.38667 162.08589)"
       xlink:href="#linearGradient3703"
       id="linearGradient2941"
       y1="125.688"
       x1="222.856"
       y2="225.151"
       gradientUnits="userSpaceOnUse"
       x2="323.33" />
    <linearGradient
       id="linearGradient3693">
      <stop
         offset="0"
         id="stop13" />
      <stop
         offset="1"
         stop-color="#c6d5e2"
         id="stop15" />
    </linearGradient>
    <radialGradient
       cx="257.436"
       cy="151.102"
       gradientTransform="matrix(.53828 -.62177 -.31266 -.27067 -63.04393 247.48989)"
       xlink:href="#linearGradient3693"
       id="radialGradient2944"
       r="70.871"
       gradientUnits="userSpaceOnUse" />
  </defs>
  <g
     stroke-linejoin="round"
     stroke-linecap="round"
     transform="matrix(.71875 0 0 .71875 4.23442 -9.72062)"
     id="g18">
    <g
       stroke-opacity=".267"
       stroke="#000"
       stroke-width="1.269"
       id="g20">
      <path
         d="m56.3151,50.1853c-.1312,1.3946-.3539,2.7632-.6715,4.095-2.622-.1731-4.9991-.3279-7.084-.4477-.3677,1.2399-.8318,2.4399-1.3957,3.5815 1.6239,1.3053 3.4838,2.7889 5.5434,4.411-.6786,1.2144-1.4413,2.3744-2.2779,3.4761-2.3274-1.2259-4.4395-2.3246-6.2939-3.2786-.8224,.9734-1.7264,1.8763-2.6993,2.6993 .9541,1.8523 2.0545,3.9567 3.2786,6.2808-1.1067,.8416-2.2687,1.6091-3.4893,2.2911-1.6221-2.0596-3.0949-3.9195-4.3978-5.5434-1.1425,.5648-2.3404,1.0275-3.5815,1.3957 .1174,2.0865 .2614,4.4613 .4345,7.084-1.3357,.3187-2.6962,.5537-4.095,.6847-.6422-2.5338-1.2329-4.8304-1.7644-6.847-.344,.0155-.6924,.0263-1.0402,.0263-.9658,0-1.9099-.0672-2.8441-.1843-.7411,1.9602-1.5817,4.1871-2.4886,6.6494-1.3697-.2491-2.7054-.5835-4.0028-1.0139 .4431-2.5702 .8363-4.9102 1.1719-6.9786-1.2547-.4842-2.4587-1.062-3.5946-1.7512-1.4815,1.4971-3.1411,3.1959-4.964,5.0694-1.1324-.7742-2.2004-1.6217-3.2128-2.5413 1.4451-2.1599 2.758-4.1278 3.9107-5.8857-.9654-.9623-1.8395-2.0116-2.6203-3.1338-1.9725,.7712-4.1843,1.6507-6.6099,2.6203-.7147-1.1564-1.343-2.3664-1.8961-3.621 2.1923-1.3812 4.1866-2.6521 5.9647-3.7922-.4953-1.2856-.8898-2.6301-1.1455-4.016-2.1196-.0984-4.4904-.1896-7.084-.2897-.1635-1.2605-.2502-2.54-.2502-3.8448 0-.0662-.0004-.1314 0-.1975 2.553-.3683 4.8865-.709 6.9786-1.027 .0767-1.4458 .297-2.8516 .632-4.2135-1.901-.9544-4.0235-2.0035-6.3466-3.147 .391-1.294 .8657-2.5529 1.4221-3.7658 2.4877,.7036 4.77,1.3347 6.8206,1.8961 .663-1.275 1.4472-2.4754 2.3306-3.5947-1.3489-1.6467-2.8597-3.4756-4.5163-5.4644 .8814-1.0084 1.8356-1.9498 2.8441-2.8309 1.9836,1.6523 3.8067,3.156 5.4512,4.5032 1.1229-.8859 2.3283-1.6665 3.6078-2.3306-.5634-2.0518-1.2057-4.3333-1.9092-6.8206 1.2131-.5565 2.4716-1.031 3.7658-1.4221 1.1455,2.3272 2.2026,4.4571 3.1601,6.3598 1.3628-.3346 2.7668-.5561 4.2135-.632 .3186-2.0949 .658-4.4333 1.027-6.9918 .0617-.0004 .1226,0 .1843,0 1.3073,0 2.5952,.0992 3.858,.2633 .1002,2.597 .191,4.9637 .2897,7.084 1.3938,.2573 2.7368,.6329 4.0292,1.1324 1.1415-1.777 2.4107-3.7719 3.7922-5.9647 1.2445,.5497 2.4468,1.1873 3.5946,1.8961-.9681,2.422-1.839,4.6373-2.6071,6.6099 1.1137,.7757 2.1645,1.6495 3.1206,2.6071 1.7554-1.1548 3.7271-2.4532 5.8857-3.8975 .9221,1.0145 1.7783,2.0908 2.5544,3.226-1.876,1.8254-3.5717,3.4951-5.0694,4.9772 .6815,1.1264 1.2711,2.3253 1.7512,3.5683 2.0646-.3377 4.398-.7293 6.9655-1.1719 .4303,1.2961 .7777,2.6345 1.027,4.0028-2.4649,.9079-4.6987,1.7446-6.6626,2.4886 .1172,.9342 .1843,1.8914 .1843,2.8573 0,.3518-.0105,.6923-.0263,1.0402 2.0165,.5315 4.313,1.1222 6.8469,1.7644zm-24.5963-2.8046c0-2.7214-2.2163-4.9377-4.9377-4.9377-2.7214,0-4.9245,2.2163-4.9245,4.9377-0,2.7214 2.2031,4.9245 4.9245,4.9245 2.7214,0 4.9377-2.2031 4.9377-4.9245z"
         id="path22" />
      <path
         fill="url(#radialGradient2944)"
         d="m57.8848,49.4005c-.1312,1.3946-.3539,2.7632-.6715,4.095-2.622-.1731-4.9991-.3279-7.084-.4477-.3677,1.2399-.8318,2.4399-1.3957,3.5815 1.6239,1.3053 3.4838,2.7889 5.5434,4.411-.6786,1.2144-1.4413,2.3744-2.2779,3.4761-2.3274-1.2259-4.4395-2.3247-6.2939-3.2786-.8224,.9734-1.7264,1.8763-2.6993,2.6993 .9541,1.8523 2.0545,3.9567 3.2786,6.2808-1.1067,.8416-2.2687,1.6091-3.4893,2.2911-1.6221-2.0596-3.0949-3.9195-4.3978-5.5434-1.1425,.5648-2.3404,1.0275-3.5815,1.3957 .1174,2.0865 .2614,4.4613 .4345,7.084-1.3357,.3187-2.6962,.5537-4.095,.6847-.6422-2.5338-1.2329-4.8304-1.7644-6.847-.344,.0155-.6924,.0263-1.0402,.0263-.9658,0-1.9099-.0671-2.8441-.1843-.7411,1.9602-1.5817,4.1871-2.4886,6.6494-1.3697-.2491-2.7054-.5835-4.0028-1.0139 .4431-2.5702 .8363-4.9102 1.1719-6.9786-1.2547-.4842-2.4587-1.062-3.5946-1.7512-1.4815,1.4971-3.1411,3.1959-4.964,5.0694-1.1324-.7742-2.2004-1.6217-3.2128-2.5413 1.4451-2.1599 2.758-4.1278 3.9107-5.8857-.9654-.9623-1.8395-2.0116-2.6203-3.1338-1.9725,.7712-4.1843,1.6507-6.6099,2.6203-.7147-1.1564-1.343-2.3664-1.8961-3.621 2.1923-1.3812 4.1866-2.6521 5.9647-3.7921-.4953-1.2856-.8898-2.6301-1.1455-4.016-2.1196-.0984-4.4904-.1896-7.084-.2897-.1635-1.2605-.2502-2.54-.2502-3.8448 0-.0662-.0004-.1314 0-.1975 2.553-.3683 4.8865-.709 6.9786-1.027 .0767-1.4458 .297-2.8516 .632-4.2135-1.901-.9544-4.0235-2.0035-6.3466-3.147 .391-1.294 .8657-2.5529 1.4221-3.7658 2.4877,.7036 4.77,1.3347 6.8206,1.8961 .663-1.275 1.4472-2.4754 2.3306-3.5947-1.3489-1.6467-2.8597-3.4756-4.5163-5.4644 .8814-1.0084 1.8356-1.9498 2.8441-2.8309 1.9836,1.6523 3.8067,3.156 5.4512,4.5032 1.1229-.8859 2.3283-1.6665 3.6078-2.3306-.5634-2.0518-1.2057-4.3333-1.9092-6.8206 1.2131-.5565 2.4716-1.031 3.7658-1.4221 1.1455,2.3272 2.2026,4.4571 3.1601,6.3598 1.3628-.3346 2.7668-.5561 4.2135-.632 .3186-2.0949 .658-4.4333 1.027-6.9918 .0617-.0004 .1226,0 .1843,0 1.3073,0 2.5952,.0992 3.858,.2633 .1002,2.597 .191,4.9637 .2897,7.084 1.3938,.2573 2.7368,.6329 4.0292,1.1324 1.1415-1.777 2.4107-3.7719 3.7922-5.9647 1.2445,.5497 2.4468,1.1873 3.5946,1.8961-.9681,2.422-1.839,4.6373-2.6071,6.6099 1.1137,.7757 2.1645,1.6495 3.1206,2.6071 1.7554-1.1548 3.7271-2.4532 5.8857-3.8975 .9221,1.0145 1.7783,2.0908 2.5544,3.226-1.876,1.8254-3.5717,3.4951-5.0694,4.9772 .6815,1.1264 1.2711,2.3254 1.7512,3.5683 2.0646-.3377 4.398-.7293 6.9655-1.1719 .4303,1.2961 .7777,2.6345 1.027,4.0028-2.4649,.9079-4.6987,1.7446-6.6626,2.4886 .1172,.9342 .1843,1.8914 .1843,2.8573 0,.3518-.0105,.6923-.0263,1.0402 2.0165,.5315 4.313,1.1222 6.8469,1.7644zm-24.5963-2.8046c0-2.7214-2.2163-4.9377-4.9377-4.9377-2.7214,0-4.9245,2.2163-4.9245,4.9377-0,2.7214 2.2031,4.9245 4.9245,4.9245 2.7214,0 4.9377-2.2031 4.9377-4.9245z"
         id="path24" />
    </g>
    <path
       stroke-opacity=".183"
       fill="url(#linearGradient2941)"
       stroke="#fff"
       stroke-width="1.479"
       d="m44.4279,46.5958c-0,8.8714-7.2058,16.064-16.0772,16.064-8.8714-0-16.064-7.1926-16.064-16.064 0-8.8714 7.1926-16.0771 16.064-16.0771 8.8714,0 16.0771,7.2058 16.0771,16.0772zm-7.2815-0c-0-4.8549-3.9408-8.7957-8.7957-8.7957-4.8549,0-8.7957,3.9408-8.7957,8.7957-0,4.8549 3.9408,8.7957 8.7957,8.7957 4.8549,0 8.7957-3.9408 8.7957-8.7957z"
       id="path26" />
  </g>
  <path
     sodipodi:type="star"
     style="fill:#00ff00;fill-opacity:1;stroke:#000000;opacity:1;stroke-opacity:1;stroke-width:0.21789501999999999;stroke-miterlimit:4;stroke-dasharray:none;stroke-linecap:round"
     id="path3799"
     sodipodi:sides="3"
     sodipodi:cx="-60.203388"
     sodipodi:cy="-6.9152541"
     sodipodi:r1="11.186441"
     sodipodi:r2="5.5932202"
     sodipodi:arg1="0"
     sodipodi:arg2="1.0471976"
     inkscape:flatsided="true"
     inkscape:rounded="0"
     inkscape:randomized="0"
     d="m -49.016947,-6.9152541 -16.779662,9.6877424 0,-19.3754853 z"
     inkscape:transform-center-x="-2.5245717"
     transform="matrix(0.90930088,0.0038278,-0.00379624,0.92651032,79.358366,30.432294)"
     inkscape:transform-center-y="-0.021408701" />
</svg>
