<svg width="512" xmlns="http://www.w3.org/2000/svg" height="512" xmlns:xlink="http://www.w3.org/1999/xlink">
<defs>
<linearGradient id="linearGradient259-6">
<stop offset="0" stop-color="#e0e0e0"/>
<stop offset=".405" stop-color="#fff"/>
<stop offset=".534" stop-color="#cdcdcd"/>
<stop offset="1" stop-color="#494949"/>
</linearGradient>
<linearGradient gradientTransform="matrix(16.3045 0 0 7.29159 .12388 -444.32418)" id="linearGradient1464" xlink:href="#linearGradient4762" y1="32.539" y2="58.831" x1="15.388" x2="15.488" gradientUnits="userSpaceOnUse"/>
<linearGradient id="linearGradient15662-9">
<stop offset="0" stop-color="#fff" stop-opacity="0"/>
<stop offset="1" stop-color="#f8f8f8"/>
</linearGradient>
<linearGradient id="linearGradient4762">
<stop offset="0" stop-color="#fff" stop-opacity=".124"/>
<stop offset=".103" stop-color="#fff"/>
<stop offset="1" stop-color="#fff" stop-opacity="0"/>
</linearGradient>
<linearGradient gradientTransform="matrix(25.10763 0 0 4.73504 .12388 -444.32418)" id="linearGradient1468" xlink:href="#linearGradient4741" x1="1.846" x2="18.972" gradientUnits="userSpaceOnUse"/>
<linearGradient id="linearGradient4668">
<stop offset="0" stop-color="#8e8d87"/>
<stop offset=".276" stop-color="#cbc9c1"/>
<stop offset="1" stop-color="#8e8d87"/>
</linearGradient>
<linearGradient id="linearGradient4741">
<stop offset="0" stop-color="#dcdcda"/>
<stop offset="1" stop-color="#bab9b7"/>
</linearGradient>
<linearGradient gradientTransform="matrix(25.10763 0 0 4.73504 .12388 -456.59058)" id="linearGradient1471" xlink:href="#linearGradient4668" x1="1.846" x2="18.972" gradientUnits="userSpaceOnUse"/>
<linearGradient gradientTransform="matrix(10.34684 0 0 11.78643 -.88316 -422.51725)" id="linearGradient1459" xlink:href="#linearGradient259-6" y1="3.679" y2="25.247" x1="25.057" x2="24.79" gradientUnits="userSpaceOnUse"/>
<linearGradient gradientTransform="matrix(30.22539 0 0 3.93331 6.87012 -434.68679)" id="linearGradient1447" xlink:href="#linearGradient4733" y1="57.228" y2="72.064" x1="9.87" x2="9.913" gradientUnits="userSpaceOnUse"/>
<linearGradient id="linearGradient4733">
<stop offset="0" stop-color="#000" stop-opacity=".237"/>
<stop offset="1" stop-color="#000" stop-opacity="0"/>
</linearGradient>
<linearGradient id="linearGradient4680">
<stop offset="0" stop-color="#f7f6f5"/>
<stop offset="1" stop-color="#f7f6f5" stop-opacity="0"/>
</linearGradient>
<linearGradient gradientTransform="matrix(25.83947 0 0 4.60092 .12388 -444.32418)" id="linearGradient1451" xlink:href="#linearGradient4680" y1="64.652" y2="54.136" x2="0" gradientUnits="userSpaceOnUse"/>
<linearGradient gradientTransform="matrix(13.10989 0 0 9.3209 -3.17311 -444.32418)" id="linearGradient1456" xlink:href="#linearGradient15662-9" y1="25.14" y2="19.337" x1="20.771" x2="20.718" gradientUnits="userSpaceOnUse"/>
<linearGradient id="linearGradient4688">
<stop offset="0" stop-color="#666"/>
<stop offset="1" stop-color="#000" stop-opacity="0"/>
</linearGradient>
<linearGradient gradientTransform="matrix(25.83947 0 0 4.60092 .12388 -444.32418)" id="linearGradient1453" xlink:href="#linearGradient4688" y1="70.725" y2="62.282" x1="9.732" x2="9.705" gradientUnits="userSpaceOnUse"/>
<radialGradient cx="24" cy="41.875" gradientTransform="matrix(1 0 0 .33333 0 27.9167)" id="radialGradient7618" r="19.125" gradientUnits="userSpaceOnUse">
<stop offset="0" stop-color="#000"/>
<stop offset="1" stop-color="#000" stop-opacity="0"/>
</radialGradient>
<radialGradient cx="9.13" cy="26.926" r="2.123" id="radialGradient1433" gradientUnits="userSpaceOnUse">
<stop offset="0" stop-color="#fffffd"/>
<stop offset=".5" stop-color="#bbbbb9"/>
<stop offset="1" stop-color="#000"/>
</radialGradient>
</defs>
<g transform="matrix(.91287 0 0 .91287 25.29608 440.59983)">
<path fill="url(#radialGradient7618)" color="#000" d="m43.125,41.875c0,3.5208-8.5626,6.375-19.125,6.375-10.5624,0-19.125-2.8542-19.125-6.375 0-3.5208 8.5626-6.375 19.125-6.375 10.5624,0 19.125,2.8542 19.125,6.375z" transform="matrix(10.90347 0 0 10.90347 -3.27708 -488.01149)"/>
<g stroke-width="10.903">
<path fill="url(#linearGradient1471)" stroke="#595959" d="m70.5772-73.6064h381.7788a18.6618,18.6618 0 0,1 18.661,18.6618v32.8674a18.6618,18.6618 0 0,1 -18.661,18.6618h-381.7788a18.6618,18.6618 0 0,1 -18.6618-18.6618v-32.8674a18.6618,18.6618 0 0,1 18.6618-18.6618"/>
<path fill="url(#linearGradient1468)" stroke="#676767" color="#000" d="m77.275-231.7067 369.6288,0c4.2183,0 9.6081,3.1418 12.9321,7.8931 3.3238,4.7514 19.0235,28.4584 22.5503,33.5178 3.5268,5.0594 4.3049,9.8555 4.3049,16.0945v131.6802c0,9.9611-8.0193,17.9803-17.9804,17.9803h-413.2426c-9.9612,0-17.9804-8.0192-17.9804-17.9803v-131.6802c0-5.3864 1.1082-13.1103 4.8905-18.027 4.7726-6.2041 17.5761-27.7815 20.9532-32.3571 3.377-4.5756 9.5784-7.1213 13.9436-7.1213z"/>
</g>
<path fill="#fbfbfb" fill-rule="evenodd" d="m81.078-226.5217c-5.4815,0-12.5296,1.4368-15.4198,5.8409l-20.2386,30.8398c-3.258,4.9644 .3707,16.6657 10.1736,16.6657h410.4444c13.2607,0 13.2994-11.0133 10.1735-15.7022l-19.2747-28.9122c-3.495-5.2424-4.7635-8.732-13.4924-8.732h-362.366z"/>
<g color="#000">
<path fill="none" stroke="url(#linearGradient1464)" stroke-width="10.325" d="m82.3086-221.3946 358.5977,0c3.9946,0 9.0986,2.9752 12.2462,7.4746 3.1476,4.4992 14.1597,22.1302 17.4995,26.9215 3.3398,4.7911 4.7581,9.3328 4.7581,15.2409v123.0031c0,9.4328-1.4607,13.6194-10.8937,13.6194h-404.8543c-9.4328,0-11.575-4.1866-11.575-13.6194v-123.0031c0-5.1009 2.4124-12.4151 5.9941-17.071 4.5195-5.8751 11.8252-21.4894 15.0232-25.8225 3.198-4.3329 9.0705-6.7436 13.2041-6.7436z"/>
<g stroke-width="10.903">
<g display="block" stroke-linecap="round">
<path fill="url(#linearGradient1459)" stroke="#898989" d="m126.2798-418.0861 269.715,0c7.1198,0 12.8518,5.5878 12.8518,12.5286v204.8808h-295.4185v-204.8808c0-6.9408 5.7318-12.5286 12.8517-12.5286z"/>
<path fill="none" stroke="url(#linearGradient1456)" stroke-linejoin="round" d="m126.068-406.49h269.554a1.9275,1.9275 0 0,1 1.927,1.928v201.838a1.9275,1.9275 0 0,1 -1.927,1.927h-269.554a1.9275,1.9275 0 0,1 -1.927-1.927v-201.838a1.9275,1.9275 0 0,1 1.927-1.928"/>
</g>
<path fill="url(#linearGradient1451)" stroke="url(#linearGradient1453)" d="m93.7471-167.649h330.6679a18.6618,18.6618 0 0,1 18.662,18.662v19.238a18.6618,18.6618 0 0,1 -18.662,18.662h-330.6679a18.6618,18.6618 0 0,1 -18.6618-18.662v-19.238a18.6618,18.6618 0 0,1 18.6618-18.662"/>
</g>
</g>
<path fill="url(#radialGradient1433)" d="m10.8718,27.6265c0,.7078-.5738,1.2816-1.2816,1.2816-.7078,0-1.2816-.5738-1.2816-1.2816 0-.7078 .5738-1.2816 1.2816-1.2816 .7078,0 1.2816,.5738 1.2816,1.2816z" transform="matrix(10.90347 0 0 10.90347 .12393 -444.32425)"/>
<path opacity=".366" fill="url(#linearGradient1447)" fill-rule="evenodd" d="m128.1712-189.0081 278.7198,.6815c7.4961,.0218 10.7707-4.0452 10.222-10.9035l-1.3629-17.0367h20.3471c8.8591,0 10.7966,2.0996 12.9479,6.1332l5.4517,10.222c5.7439,10.7698 19.7481,21.5246 5.4317,21.5246-49.0951,0-307.2244-3.8065-331.7572-10.6212z"/>
<path fill="none" stroke="#fff" stroke-linejoin="round" stroke-linecap="round" stroke-width="10.903" d="m468.2915-174.4635-415.6946,0"/>
<g color="#000">
<g opacity=".436" fill-opacity=".292" transform="matrix(10.90347 0 0 10.90347 .12393 -444.32425)">
<path d="m14,5h19v1h-19z"/>
<path d="m14,7h19v1h-19z"/>
<path d="m14,9h19v1h-19z"/>
<path d="m14,11h19v1h-19z"/>
<path d="m14,13h11v1h-11z"/>
</g>
<path fill="#a7a7a7" fill-rule="evenodd" d="m229.3321-237.2736 75.9732,0 0-53.6936 32.8261,0-70.2864-87.9362-77.6124,87.0845 39.1223,0-.0219,54.5453z"/>
</g>
</g>
</svg>
