<?xml version="1.0" encoding="UTF-8" standalone="no"?>
<!-- 2019-04-18 22:04:14 Generated by QCAD SVG Exporter -->

<svg
   xmlns:dc="http://purl.org/dc/elements/1.1/"
   xmlns:cc="http://creativecommons.org/ns#"
   xmlns:rdf="http://www.w3.org/1999/02/22-rdf-syntax-ns#"
   xmlns:svg="http://www.w3.org/2000/svg"
   xmlns="http://www.w3.org/2000/svg"
   xmlns:sodipodi="http://sodipodi.sourceforge.net/DTD/sodipodi-0.dtd"
   xmlns:inkscape="http://www.inkscape.org/namespaces/inkscape"
   width="512"
   height="512"
   viewBox="8.6324 -40.125 135.46666 135.46666"
   version="1.1"
   style="fill:none;stroke-linecap:round;stroke-linejoin:round"
   id="svg70"
   sodipodi:docname="misc_paint_swatch.svg"
   inkscape:version="0.92.2 5c3e80d, 2017-08-06">
  <metadata
     id="metadata76">
    <rdf:RDF>
      <cc:Work
         rdf:about="">
        <dc:format>image/svg+xml</dc:format>
        <dc:type
           rdf:resource="http://purl.org/dc/dcmitype/StillImage" />
        <dc:title></dc:title>
      </cc:Work>
    </rdf:RDF>
  </metadata>
  <defs
     id="defs74" />
  <sodipodi:namedview
     pagecolor="#ffffff"
     bordercolor="#666666"
     borderopacity="1"
     objecttolerance="10"
     gridtolerance="10"
     guidetolerance="10"
     inkscape:pageopacity="0"
     inkscape:pageshadow="2"
     inkscape:window-width="1506"
     inkscape:window-height="1123"
     id="namedview72"
     showgrid="false"
     units="px"
     inkscape:zoom="0.49568524"
     inkscape:cx="238.51029"
     inkscape:cy="234.46062"
     inkscape:window-x="549"
     inkscape:window-y="118"
     inkscape:window-maximized="0"
     inkscape:current-layer="g68" />
  <g
     transform="matrix(3.406833,0,0,-3.406833,-6.6896653,110.66373)"
     id="g68"
     style="stroke-width:0.62130036;stroke-miterlimit:4;stroke-dasharray:none">
    <!-- Line -->
    <path
       d="M 20,27.0711 V 38"
       style="stroke:#000000;stroke-width:0.62130036;stroke-miterlimit:4;stroke-dasharray:none"
       id="path2"
       inkscape:connector-curvature="0" />
    <!-- Arc -->
    <path
       d="m 20,38 a 2,2 0 0 1 -2,2"
       style="stroke:#000000;stroke-width:0.62130036;stroke-miterlimit:4;stroke-dasharray:none"
       id="path4"
       inkscape:connector-curvature="0" />
    <!-- Line -->
    <path
       d="M 18,40 H 12"
       style="stroke:#000000;stroke-width:0.62130036;stroke-miterlimit:4;stroke-dasharray:none"
       id="path6"
       inkscape:connector-curvature="0" />
    <!-- Arc -->
    <path
       d="M 12,40 A 2,2 0 0 1 10,38"
       style="stroke:#000000;stroke-width:0.62130036;stroke-miterlimit:4;stroke-dasharray:none"
       id="path8"
       inkscape:connector-curvature="0" />
    <!-- Line -->
    <path
       d="M 10,38 V 17.0711"
       style="stroke:#000000;stroke-width:0.62130036;stroke-miterlimit:4;stroke-dasharray:none"
       id="path10"
       inkscape:connector-curvature="0" />
    <!-- Arc -->
    <path
       d="m 9.3431,16.4142 a 2,2 0 0 1 0,-2.8284"
       style="stroke:#000000;stroke-width:0.62130036;stroke-miterlimit:4;stroke-dasharray:none"
       id="path12"
       inkscape:connector-curvature="0" />
    <!-- Line -->
    <path
       d="M 9.3431,13.5858 10,12.9289"
       style="stroke:#000000;stroke-width:0.62130036;stroke-miterlimit:4;stroke-dasharray:none"
       id="path14"
       inkscape:connector-curvature="0" />
    <!-- Arc -->
    <path
       d="m 10,12 a 2,2 0 0 1 2,-2"
       style="stroke:#000000;stroke-width:0.62130036;stroke-miterlimit:4;stroke-dasharray:none"
       id="path16"
       inkscape:connector-curvature="0" />
    <!-- Line -->
    <path
       d="M 12,10 H 38"
       style="stroke:#000000;stroke-width:0.62130036;stroke-miterlimit:4;stroke-dasharray:none"
       id="path18"
       inkscape:connector-curvature="0" />
    <!-- Arc -->
    <path
       d="m 38,10 a 2,2 0 0 1 2,2"
       style="stroke:#000000;stroke-width:0.62130036;stroke-miterlimit:4;stroke-dasharray:none"
       id="path20"
       inkscape:connector-curvature="0" />
    <!-- Line -->
    <path
       d="m 40,12 v 6"
       style="stroke:#000000;stroke-width:0.62130036;stroke-miterlimit:4;stroke-dasharray:none"
       id="path22"
       inkscape:connector-curvature="0" />
    <!-- Arc -->
    <path
       d="m 40,18 a 2,2 0 0 1 -2,2"
       style="stroke:#000000;stroke-width:0.62130036;stroke-miterlimit:4;stroke-dasharray:none"
       id="path24"
       inkscape:connector-curvature="0" />
    <!-- Line -->
    <path
       d="M 38,20 H 12"
       style="stroke:#000000;stroke-width:0.62130036;stroke-miterlimit:4;stroke-dasharray:none"
       id="path26"
       inkscape:connector-curvature="0" />
    <!-- Line -->
    <path
       d="m 12.9289,20 14.799,14.799"
       style="stroke:#000000;stroke-width:0.62130036;stroke-miterlimit:4;stroke-dasharray:none"
       id="path28"
       inkscape:connector-curvature="0" />
    <!-- Arc -->
    <path
       d="m 27.7279,34.799 a 2,2 0 0 0 2.8284,0"
       style="stroke:#000000;stroke-width:0.62130036;stroke-miterlimit:4;stroke-dasharray:none"
       id="path30"
       inkscape:connector-curvature="0" />
    <!-- Line -->
    <path
       d="M 30.5563,34.799 34.799,30.5563"
       style="stroke:#000000;stroke-width:0.62130036;stroke-miterlimit:4;stroke-dasharray:none"
       id="path32"
       inkscape:connector-curvature="0" />
    <!-- Arc -->
    <path
       d="m 34.799,30.5563 a 2,2 0 0 0 0,-2.8284"
       style="stroke:#000000;stroke-width:0.62130036;stroke-miterlimit:4;stroke-dasharray:none"
       id="path34"
       inkscape:connector-curvature="0" />
    <!-- Line -->
    <path
       d="M 34.799,27.7279 27.0711,20"
       style="stroke:#000000;stroke-width:0.62130036;stroke-miterlimit:4;stroke-dasharray:none"
       id="path36"
       inkscape:connector-curvature="0" />
    <!-- Line -->
    <path
       d="M 13.5858,9.3431 12.9289,10"
       style="stroke:#000000;stroke-width:0.62130036;stroke-miterlimit:4;stroke-dasharray:none"
       id="path38"
       inkscape:connector-curvature="0" />
    <!-- Arc -->
    <path
       d="m 13.5858,9.3431 a 2,2 0 0 1 2.8284,0"
       style="stroke:#000000;stroke-width:0.62130036;stroke-miterlimit:4;stroke-dasharray:none"
       id="path40"
       inkscape:connector-curvature="0" />
    <!-- Line -->
    <path
       d="M 16.4142,9.3431 17.0711,10"
       style="stroke:#000000;stroke-width:0.62130036;stroke-miterlimit:4;stroke-dasharray:none"
       id="path42"
       inkscape:connector-curvature="0" />
    <!-- Line -->
    <path
       d="M 18,10 H 12"
       style="stroke:#000000;stroke-width:0.62130036;stroke-miterlimit:4;stroke-dasharray:none"
       id="path44"
       inkscape:connector-curvature="0" />
    <!-- Arc -->
    <path
       d="m 12,10 a 2,2 0 0 0 -2,2"
       style="stroke:#000000;stroke-width:0.62130036;stroke-miterlimit:4;stroke-dasharray:none"
       id="path46"
       inkscape:connector-curvature="0" />
    <!-- Line -->
    <path
       d="m 10,12 v 6"
       style="stroke:#000000;stroke-width:0.62130036;stroke-miterlimit:4;stroke-dasharray:none"
       id="path48"
       inkscape:connector-curvature="0" />
    <!-- Line -->
    <path
       d="M 10,17.0711 9.3431,16.4142"
       style="stroke:#000000;stroke-width:0.62130036;stroke-miterlimit:4;stroke-dasharray:none"
       id="path50"
       inkscape:connector-curvature="0" />
    <!-- Arc -->
    <path
       d="M 12,20 A 2,2 0 0 1 10,18"
       style="stroke:#000000;stroke-width:0.62130036;stroke-miterlimit:4;stroke-dasharray:none"
       id="path52"
       inkscape:connector-curvature="0" />
    <!-- Circle -->
    <circle
       cx="15"
       cy="15"
       r="1.5"
       style="stroke:#000000;stroke-width:0.62130036;stroke-miterlimit:4;stroke-dasharray:none;fill:#000000"
       id="circle54" />
    <!-- Line -->
    <path
       d="M 10,20 H 20"
       style="stroke:#000000;stroke-width:0.62130036;stroke-miterlimit:4;stroke-dasharray:none"
       id="path56"
       inkscape:connector-curvature="0" />
    <!-- Line -->
    <path
       d="M 20,20 V 10"
       style="stroke:#000000;stroke-width:0.62130036;stroke-miterlimit:4;stroke-dasharray:none"
       id="path58"
       inkscape:connector-curvature="0" />
    <!-- Line -->
    <path
       d="M 15,22.0711 17.0711,20"
       style="stroke:#000000;stroke-width:0.62130036;stroke-miterlimit:4;stroke-dasharray:none"
       id="path60"
       inkscape:connector-curvature="0" />
    <!-- Line -->
    <path
       d="M 30,20 V 10"
       style="stroke:#000000;stroke-width:0.62130036;stroke-miterlimit:4;stroke-dasharray:none"
       id="path62"
       inkscape:connector-curvature="0" />
    <!-- Line -->
    <path
       d="m 22.0711,29.1421 7.071,-7.071"
       style="stroke:#000000;stroke-width:0.62130036;stroke-miterlimit:4;stroke-dasharray:none"
       id="path64"
       inkscape:connector-curvature="0" />
    <!-- Line -->
    <path
       d="M 10,30 H 20"
       style="stroke:#000000;stroke-width:0.62130036;stroke-miterlimit:4;stroke-dasharray:none"
       id="path66"
       inkscape:connector-curvature="0" />
    <g
       id="g934"
       transform="translate(-37.278023)"
       style="fill:#ffffff">
      <path
         inkscape:connector-curvature="0"
         id="path904"
         d="m 46.811135,13.860812 c -0.07466,0.0786 -0.167868,0.195782 -0.207125,0.260406 -0.395579,0.651193 -0.30792,1.484805 0.212792,2.023591 l 0.143496,0.148476 5.98e-4,-1.28769 c 3.26e-4,-0.70823 -0.0027,-1.28769 -0.0067,-1.28769 -0.004,0 -0.06839,0.06431 -0.143051,0.142907 z"
         style="opacity:0.75;fill:#ffffff;fill-opacity:1;fill-rule:evenodd;stroke:none;stroke-width:0.15667713;stroke-linecap:butt;stroke-linejoin:miter;stroke-miterlimit:4;stroke-dasharray:none;stroke-dashoffset:0;stroke-opacity:1" />
      <path
         inkscape:connector-curvature="0"
         id="path906"
         d="m 51.966639,9.1065665 c -0.318813,0.060327 -0.637566,0.2296544 -0.862386,0.4581142 l -0.116895,0.118788 h 1.291237 1.291237 l -0.09719,-0.099949 C 53.266746,9.3717685 52.9844,9.2059715 52.706378,9.1335581 52.50105,9.0800781 52.170382,9.0680133 51.966639,9.1065665 Z"
         style="opacity:0.75;fill:#ffffff;fill-opacity:1;fill-rule:evenodd;stroke:none;stroke-width:0.15667713;stroke-linecap:butt;stroke-linejoin:miter;stroke-miterlimit:4;stroke-dasharray:none;stroke-dashoffset:0;stroke-opacity:1" />
      <path
         inkscape:connector-curvature="0"
         id="path908"
         d="m 49.114555,10.330596 c -0.292946,0.02613 -0.617087,0.155023 -0.860481,0.342173 -0.301978,0.232198 -0.492062,0.526252 -0.613833,0.949579 l -0.04225,0.146885 0.0016,3.221673 0.0016,3.221674 0.04317,0.176261 c 0.151622,0.619013 0.6173,1.082797 1.249592,1.24451 0.146111,0.03737 0.244249,0.03828 4.102656,0.03828 h 3.952965 v -4.68073 -4.680729 l -3.833693,0.0027 c -2.108532,0.0015 -3.909165,0.0095 -4.001407,0.01769 z m 3.520302,2.886924 c 0.749837,0.15955 1.31739,0.74721 1.436853,1.487758 0.03688,0.22863 0.01486,0.588634 -0.04922,0.804621 -0.196783,0.663297 -0.752814,1.162007 -1.429123,1.281796 -0.149323,0.02645 -0.479983,0.02645 -0.629306,0 -0.547102,-0.0969 -1.039612,-0.455796 -1.288683,-0.939064 -0.168381,-0.326706 -0.217589,-0.55347 -0.202902,-0.935003 0.01179,-0.306362 0.04549,-0.445559 0.171429,-0.708223 0.246396,-0.513882 0.731835,-0.88881 1.293423,-0.99897 0.143352,-0.02812 0.551558,-0.02397 0.697525,0.0071 z"
         style="opacity:0.75;fill:#ffffff;fill-opacity:1;fill-rule:evenodd;stroke:none;stroke-width:0.15667713;stroke-linecap:butt;stroke-linejoin:miter;stroke-miterlimit:4;stroke-dasharray:none;stroke-dashoffset:0;stroke-opacity:1" />
      <path
         inkscape:connector-curvature="0"
         id="path910"
         d="m 57.588276,15.001665 v 4.680729 h 4.680729 4.680729 v -4.680729 -4.680729 h -4.680729 -4.680729 z"
         style="opacity:0.75;fill:#ffffff;fill-opacity:1;fill-rule:evenodd;stroke:none;stroke-width:0.31335425;stroke-linecap:butt;stroke-linejoin:miter;stroke-miterlimit:4;stroke-dasharray:none;stroke-dashoffset:0;stroke-opacity:1" />
      <path
         inkscape:connector-curvature="0"
         id="path912"
         d="m 67.615612,15.001665 v 4.680729 h 3.872412 c 2.437407,0 3.949536,-0.01463 4.080532,-0.03947 0.597739,-0.113358 1.092553,-0.54651 1.288385,-1.127829 0.07926,-0.23529 0.08096,-0.308723 0.08096,-3.505086 0,-3.552515 0.0049,-3.466292 -0.220585,-3.851877 -0.120593,-0.206183 -0.462357,-0.53016 -0.672195,-0.637212 -0.398894,-0.2035 -0.319441,-0.199985 -4.52081,-0.199985 h -3.908699 z"
         style="opacity:0.75;fill:#ffffff;fill-opacity:1;fill-rule:evenodd;stroke:none;stroke-width:0.31335425;stroke-linecap:butt;stroke-linejoin:miter;stroke-miterlimit:4;stroke-dasharray:none;stroke-dashoffset:0;stroke-opacity:1" />
      <path
         inkscape:connector-curvature="0"
         id="path914"
         d="m 63.120571,25.842129 -3.300188,3.300361 2.830252,2.823102 c 3.279447,3.271164 3.007987,3.051577 3.77245,3.051577 0.420654,0 0.441311,-0.0041 0.724631,-0.144929 0.275873,-0.137095 0.416694,-0.270451 2.605799,-2.467664 2.694613,-2.704593 2.542826,-2.509708 2.542826,-3.264831 0,-0.420744 -0.0041,-0.441083 -0.145181,-0.724632 -0.137845,-0.276996 -0.286298,-0.432764 -2.937791,-3.082542 l -2.79261,-2.790804 z"
         style="opacity:0.75;fill:#ffffff;fill-opacity:1;fill-rule:evenodd;stroke:none;stroke-width:0.31335425;stroke-linecap:butt;stroke-linejoin:miter;stroke-miterlimit:4;stroke-dasharray:none;stroke-dashoffset:0;stroke-opacity:1" />
      <path
         inkscape:connector-curvature="0"
         id="path916"
         d="m 53.612441,21.210148 -0.861209,0.861877 3.29983,3.299831 3.299831,3.29983 3.299831,-3.29983 3.29983,-3.299831 -0.861209,-0.861877 -0.861209,-0.861876 H 59.350893 54.47365 Z"
         style="opacity:0.75;fill:#ffffff;fill-opacity:1;fill-rule:evenodd;stroke:none;stroke-width:0.31335425;stroke-linecap:butt;stroke-linejoin:miter;stroke-miterlimit:4;stroke-dasharray:none;stroke-dashoffset:0;stroke-opacity:1" />
      <path
         inkscape:connector-curvature="0"
         id="path918"
         d="m 51.654136,20.974988 0.625797,0.626715 0.617368,-0.616464 c 0.339553,-0.339055 0.617369,-0.621077 0.617369,-0.626716 0,-0.0056 -0.559425,-0.01025 -1.243166,-0.01025 h -1.243165 z"
         style="opacity:0.75;fill:#ffffff;fill-opacity:1;fill-rule:evenodd;stroke:none;stroke-width:0.31335425;stroke-linecap:butt;stroke-linejoin:miter;stroke-miterlimit:4;stroke-dasharray:none;stroke-dashoffset:0;stroke-opacity:1" />
      <path
         inkscape:connector-curvature="0"
         id="path920"
         d="m 47.600108,25.009417 v 4.661144 h 4.68073 4.680729 V 28.446438 27.222314 L 53.524379,23.785293 50.087192,20.348272 H 48.84365 47.600108 Z"
         style="opacity:0.75;fill:#ffffff;fill-opacity:1;fill-rule:evenodd;stroke:none;stroke-width:0.31335425;stroke-linecap:butt;stroke-linejoin:miter;stroke-miterlimit:4;stroke-dasharray:none;stroke-dashoffset:0;stroke-opacity:1" />
      <path
         inkscape:connector-curvature="0"
         id="path922"
         d="m 47.609007,34.341498 0.01069,4.005059 0.0908,0.22485 c 0.194853,0.482488 0.596846,0.867682 1.052352,1.008373 0.247585,0.07647 0.357871,0.07895 3.515004,0.07895 3.546632,0 3.460974,0.0049 3.846516,-0.220585 0.208194,-0.121769 0.53049,-0.463003 0.639939,-0.677543 0.194347,-0.38095 0.19585,-0.415778 0.196578,-4.556195 l 6.99e-4,-3.867966 h -4.681641 -4.681622 z"
         style="opacity:0.75;fill:#ffffff;fill-opacity:1;fill-rule:evenodd;stroke:none;stroke-width:0.31335425;stroke-linecap:butt;stroke-linejoin:miter;stroke-miterlimit:4;stroke-dasharray:none;stroke-dashoffset:0;stroke-opacity:1" />
    </g>
  </g>
</svg>
