<svg xmlns="http://www.w3.org/2000/svg" viewBox="0 0 512 512"><defs><clipPath><path d="m141.13 537.57c-33.698-14.731-74.19-1.934-90.46 28.587-16.265 30.521-2.136 67.2 31.562 81.928 33.698 14.731 74.19 1.934 90.46-28.587 16.265-30.521 2.136-67.2-31.562-81.928m-8.957 16.809c23.446 10.25 33.3 35.764 21.984 57-11.316 21.236-39.516 30.15-62.962 19.898-23.446-10.25-33.29-35.791-21.969-57.03 11.317-21.236 39.502-30.12 62.948-19.871m8.957-16.809c-33.698-14.731-74.19-1.934-90.46 28.587-16.265 30.521-2.136 67.2 31.562 81.928 33.698 14.731 74.19 1.934 90.46-28.587 16.265-30.521 2.136-67.2-31.562-81.928m-8.964 16.822c23.446 10.25 33.3 35.764 21.984 57-11.316 21.236-39.516 30.15-62.962 19.898-23.446-10.25-33.29-35.791-21.969-57.03 11.317-21.236 39.501-30.12 62.948-19.871"/></clipPath><clipPath><path d="m-1232.69 355.15c29.24 0 52.96 23.682 52.96 52.923 0 29.24-23.72 52.96-52.96 52.96-29.24 0-52.96-23.72-52.96-52.96 0-29.24 23.72-52.923 52.96-52.923"/></clipPath></defs><g style="stroke:#000;stroke-width:8;stroke-dashoffset:354.33"><g style="stroke-linecap:square"><path d="m40.03 104h431.95a.0271 .0097 0 0 1 .027 .01v367.98a.0271 .0097 0 0 1 -.027 .01h-431.95a.0271 .0097 0 0 1 -.0271 -.01v-367.98a.0271 .0097 0 0 1 .0271 -.01" style="fill:#fff"/><path d="m40.03 40h431.95a.0271 .0114 0 0 1 .027 .0114v63.978a.0271 .0114 0 0 1 -.027 .011h-431.95a.0271 .0114 0 0 1 -.0271 -.011v-63.978a.0271 .0114 0 0 1 .0271 -.0114"/><path d="m40 40h63.992a.002236 0 206.56505 0 0 .004 .002v63.996a.002236 0 333.43495 0 0 -.004 .002h-63.992a.002236 0 26.565051 0 0 -.004 -.002v-63.996a.002236 0 153.43495 0 0 .004 -.002" style="fill:#fff"/></g><g style="stroke-linecap:round;stroke-linejoin:round"><path d="m200.02 168h223.95c.013 0 .025.005.024.01v47.98c0 .005-.011.01-.024.01h-223.95c-.013 0-.025-.005-.024-.01v-47.98c0-.005.011-.01.024-.01" style="fill:#fff"/><path d="m88.01 168h63.994c.003 0 .006.004.006.007v47.986c0 .004-.003.007-.006.007h-63.994c-.003 0-.006-.004-.006-.007v-47.986c0-.004.003-.007.006-.007"/><path d="m200.02 264h223.95c.013 0 .025.005.024.01v47.98c0 .005-.011.01-.024.01h-223.95c-.013 0-.025-.005-.024-.01v-47.98c0-.005.011-.01.024-.01" style="fill:#fff"/><path d="m88.01 264h63.994c.003 0 .006.004.006.007v47.986c0 .004-.003.007-.006.007h-63.994c-.003 0-.006-.004-.006-.007v-47.986c0-.004.003-.007.006-.007"/><path d="m200.02 360h223.95c.013 0 .025.005.024.01v47.98c0 .005-.011.01-.024.01h-223.95c-.013 0-.025-.005-.024-.01v-47.98c0-.005.011-.01.024-.01" style="fill:#fff"/><path d="m88.01 360h63.994c.003 0 .006.004.006.007v47.986c0 .004-.003.007-.006.007h-63.994c-.003 0-.006-.004-.006-.007v-47.986c0-.004.003-.007.006-.007"/></g></g></svg>