<svg xmlns="http://www.w3.org/2000/svg" xmlns:xlink="http://www.w3.org/1999/xlink" viewBox="0 0 512 512"><defs><path id="D" d="m62.5 4.5a10 10 0 1 1 -20 0 10 10 0 1 1 20 0z"/><filter width="1.177" x="-.089" y="-.384" height="1.767" id="0" style="color-interpolation-filters:sRGB"><feGaussianBlur stdDeviation="1.59836"/></filter><linearGradient id="4" y1="55.11" x1="81.33" y2="53.51" gradientUnits="userSpaceOnUse" x2="82.92"><stop style="stop-color:#555753"/><stop offset=".702" style="stop-color:#a3a5a2"/><stop offset="1" style="stop-color:#888a85"/></linearGradient><linearGradient id="5" y1="12.847" x1="54.11" y2="-3.881" x2="50.08" gradientUnits="userSpaceOnUse"><stop style="stop-color:#babdb6"/><stop offset="1" style="stop-color:#888a85"/></linearGradient><linearGradient id="7" y1="335.01" x1="339.9" y2="369.42" x2="374.31" gradientUnits="userSpaceOnUse"><stop/><stop offset="1" style="stop-opacity:0"/></linearGradient><linearGradient id="6" y1="12.472" x1="55.878" y2="-4.621" x2="52.5" gradientUnits="userSpaceOnUse"><stop style="stop-color:#888a85"/><stop offset="1" style="stop-color:#babdb6"/></linearGradient><linearGradient id="1" y1="430.52" x1="406.73" y2="403.16" x2="436.72" gradientUnits="userSpaceOnUse"><stop style="stop-color:#888a85"/><stop offset="1" style="stop-color:#d3d7cf"/></linearGradient><linearGradient id="3" y1="35.743" x1="3.5" y2="45.743" x2="46.779" gradientUnits="userSpaceOnUse"><stop style="stop-opacity:0"/><stop offset=".081" style="stop-opacity:0"/><stop offset=".615" style="stop-opacity:.247"/><stop offset=".749" style="stop-opacity:.498"/><stop offset="1"/></linearGradient><linearGradient id="2" y1="57.15" x1="81.1" y2="54.615" gradientUnits="userSpaceOnUse" x2="83.63"><stop style="stop-color:#2e3436"/><stop offset="1" style="stop-color:#555753"/></linearGradient><radialGradient cx="59.787" cy="10.902" gradientTransform="matrix(0-1.68661 1.66336 0 41.654 111.74)" id="B" r="10.556" gradientUnits="userSpaceOnUse"><stop style="stop-color:#fbfbfa"/><stop offset="1" style="stop-color:#d3d7cf"/></radialGradient><radialGradient cx="45.09" cy="-2.694" gradientTransform="matrix(0 1.14344-1.24722 0 41.735-54.26)" id="C" r="10.498" gradientUnits="userSpaceOnUse"><stop style="stop-color:#fff"/><stop offset="1" style="stop-color:#eeeeec"/></radialGradient><radialGradient cx="16.83" cy="24.744" gradientTransform="matrix(23.8004-6.3773 5.65603 21.1095-339.92-182.78)" id="A" r="16.925" gradientUnits="userSpaceOnUse" xlink:href="#8"/><radialGradient cx="8.08" cy="9.521" id="8" r="9.29" gradientUnits="userSpaceOnUse"><stop style="stop-color:#fff"/><stop offset="1" style="stop-color:#fff;stop-opacity:0"/></radialGradient><radialGradient cx="17.06" cy="28.851" gradientTransform="matrix(1.45955 0 0 1.34534-7.403-10.822)" id="9" r="13.5" gradientUnits="userSpaceOnUse"><stop style="stop-color:#429eff"/><stop offset="1" style="stop-color:#0044a7"/></radialGradient></defs><path d="m21 35.743c-9.66 0-17.5 1.813-17.5 4.047 0 2.234 7.84 4.047 17.5 4.047 4.496 0 8.587-.395 11.688-1.041l.813.947c.025.021.087.043.156.058l7.969 1.857c.357.083.883.101 1.531.072.649-.029 1.412-.124 2.219-.311.8-.185 1.206-.35 1.344-.499.138-.149.039-.28-.313-.361l-8.03-1.843c-.079-.018-.172-.032-.281-.036l-4.094-.188c2.79-.717 4.5-1.663 4.5-2.703 0-2.234-7.84-4.047-17.5-4.047" transform="matrix(10.66666 0 0 9.59999 4.063 44.06)" style="fill:url(#3);opacity:.6;filter:url(#0)"/><g style="color:#000"><path d="m31 18.25a13.5 13.75 0 1 1 -27 0 13.5 13.75 0 1 1 27 0" transform="matrix(12.64197 0 0 12.41212-9.172-19.998)" style="fill:url(#9);opacity:.6"/><path d="m205.99 30.524c-90.84 3.456-163.51 78.39-163.51 170.07 0 25.78 14.967 50.37 26.574 71.59-5.04-57.901 19.911-70.54 36.475-65.4 50.26 15.602 137.46 29.784 227.06-16.997 31.41-16.4 49.726 23.781 48.47-12.333-10.02-83.14-82.45-146.94-168.51-146.94-2.2 0-4.385-.083-6.565 0" style="fill:url(#A);opacity:.5"/><use transform="matrix(17.0667 0 0 17.0667-683.94 129.72)" xlink:href="#D" style="fill:none;stroke:url(#B);stroke-linecap:round;stroke-width:1.875"/><g transform="matrix(16.46988 0 0 16.38416-924.76-480.89)"><path d="m76.8 49.769l.648 3.255 5.181 5.213c.192.194.972.32 1.943-.656.972-.977.896-1.704.648-1.953l-5.181-5.208-3.238-.651z" style="fill:url(#4);stroke:url(#2);stroke-linecap:round;stroke-linejoin:round;stroke-width:.677"/><path d="m79.57 51.32c-.003.011.294.324-.245.865-.539.541-1.01.374-.993.36l-.269-1.522 1.508.296" style="fill:#fff;opacity:.192"/></g><path d="m353.77 348.16l6.641 34.15 79.996 80.52c3.934 3.96 9.961 2.324 19.922-7.637 9.961-9.961 12.529-14.947 7.584-19.922l-79.996-80.47-34.15-6.641z" style="fill:none;stroke:url(#1);stroke-linecap:round;stroke-width:10.667"/><path d="m338.27 329.1c-2.772.933-4.345 3.841-3.603 6.656l10.808 53.25c.27.978.804 1.863 1.544 2.56l84.92 85.5c3.806 3.81 9.551 4.923 16.47 3.584 6.918-1.339 15.07-5.726 23.675-14.336 8.539-8.539 12.94-16.178 14.411-23.04 1.471-6.862.149-13.144-3.603-16.896l-85.44-84.993c-.84-.824-1.921-1.362-3.088-1.536l-53.01-10.752c-1.01-.289-2.079-.289-3.088 0" style="fill:url(#7);opacity:.153"/><g style="fill:none;stroke-linecap:round"><use transform="matrix(17.59999 0 0 17.59999-711.94 127.32)" xlink:href="#D" style="stroke:url(#C);stroke-width:.606"/><use transform="matrix(18.66665 0 0 18.66665-767.94 122.52)" xlink:href="#D" style="stroke:url(#6);stroke-width:.571"/><use transform="matrix(15.50049 0 0 15.50052-601.71 136.77)" xlink:href="#D" style="stroke:url(#5);stroke-width:.688"/></g><path d="m22.1875 12.9375a9.8125 9.8125 0 1 1 -19.625 0 9.8125 9.8125 0 1 1 19.625 0" transform="matrix(14.1316 0 0 14.1316 37.18 23.696)" style="fill:url(#8);opacity:.161"/></g><g transform="matrix(.89754 0 0 .89754-19.16-19.16)" style="fill:#fff;stroke:#1e62ba;stroke-linecap:round;stroke-width:10.582"><path d="m201.62 105.6l51.08-75.43c3.201-4.713 3.332-4.713 6.533 0l51.08 75.43c1.883 2.204.96 4.751 0 4.751h-31.874v98.31c0 0 .033 4.751-3.168 4.751h-38.41c-3.201 0-3.365-4.751-3.365-4.751v-98.31h-31.874c-.64 0-1.915-2.748 0-4.751z"/><path d="m310.38 406.4l-51.08 75.43c-3.201 4.713-3.332 4.713-6.533 0l-51.08-75.43c-1.883-2.204-.96-4.751 0-4.751h31.874v-98.31c0 0-.033-4.751 3.168-4.751h38.41c3.201 0 3.365 4.751 3.365 4.751v98.31h31.874c.64 0 1.915 2.748 0 4.751z"/><path d="m105.6 310.38l-75.43-51.08c-4.713-3.201-4.713-3.332 0-6.533l75.43-51.08c2.204-1.883 4.751-.96 4.751 0v31.874h98.31c0 0 4.751-.033 4.751 3.168v38.41c0 3.201-4.751 3.365-4.751 3.365h-98.31v31.874c0 .64-2.748 1.915-4.751 0z"/><path d="m406.4 201.62l75.43 51.08c4.713 3.201 4.712 3.332 0 6.533l-75.43 51.08c-2.204 1.883-4.751.96-4.751 0v-31.874h-98.31c0 0-4.751.033-4.751-3.168v-38.41c0-3.201 4.751-3.365 4.751-3.365h98.31v-31.874c0-.64 2.748-1.915 4.751 0z"/></g></svg>
