<svg width="512" xmlns="http://www.w3.org/2000/svg" height="512">
<defs/>
<g fill="none" transform="translate(0 492)">
<g stroke="#f00">
<g stroke-width="16">
<path d="m184-100 128,0"/>
<path d="m248-164 0,128"/>
</g>
<path stroke-width="12" d="m312,248a64,64 0 1,1 -128,0 64,64 0 1,1 128,0z" transform="translate(0 -348)"/>
</g>
<g stroke="#000">
<g stroke-width="37.22">
<path d="m184-324 229.6545,0"/>
<path d="m343.4212-332.7791 0,85.0671"/>
<path d="m395.1017-337.7469 0,105.7323"/>
</g>
<path stroke-width="21.905" d="m137.1114-395.2488c23.2402,0 42.1018,31.9197 42.1018,71.249 0,39.3296-18.8616,71.2493-42.1018,71.2493-23.2402,0-42.1018-31.9197-42.1018-71.2493 0-39.3293 18.8616-71.249 42.1018-71.249z"/>
</g>
</g>
</svg>
