<svg xmlns="http://www.w3.org/2000/svg" viewBox="0 0 512 512"><g transform="translate(0 492)" style="fill:none"><g style="stroke:#f00"><g style="stroke-width:16"><path d="m184-100h128"/><path d="m248-164v128"/></g><path d="m312 248a64 64 0 1 1 -128 0 64 64 0 1 1 128 0z" transform="translate(0-348)" style="stroke-width:12"/></g><g style="stroke:#000"><g style="stroke-width:37.22"><path d="m184-324h229.65"/><path d="m343.42-332.78v85.07"/><path d="m395.1-337.75v105.73"/></g><path d="m137.11-395.25c23.24 0 42.1 31.92 42.1 71.25 0 39.33-18.862 71.25-42.1 71.25-23.24 0-42.1-31.92-42.1-71.25 0-39.33 18.862-71.25 42.1-71.25z" style="stroke-width:21.905"/></g></g></svg>