<?xml version="1.0" encoding="UTF-8" standalone="no"?>
<svg
   xmlns:dc="http://purl.org/dc/elements/1.1/"
   xmlns:cc="http://creativecommons.org/ns#"
   xmlns:rdf="http://www.w3.org/1999/02/22-rdf-syntax-ns#"
   xmlns:svg="http://www.w3.org/2000/svg"
   xmlns="http://www.w3.org/2000/svg"
   xmlns:sodipodi="http://sodipodi.sourceforge.net/DTD/sodipodi-0.dtd"
   xmlns:inkscape="http://www.inkscape.org/namespaces/inkscape"
   width="512"
   height="512"
   id="svg4660"
   version="1.1"
   inkscape:version="0.48.2 r9819"
   sodipodi:docname="SnapCoordinate.svg">
  <metadata
     id="metadata4682">
    <rdf:RDF>
      <cc:Work
         rdf:about="">
        <dc:format>image/svg+xml</dc:format>
        <dc:type
           rdf:resource="http://purl.org/dc/dcmitype/StillImage" />
      </cc:Work>
    </rdf:RDF>
  </metadata>
  <sodipodi:namedview
     pagecolor="#ffffff"
     bordercolor="#666666"
     borderopacity="1"
     objecttolerance="10"
     gridtolerance="10"
     guidetolerance="10"
     inkscape:pageopacity="0"
     inkscape:pageshadow="2"
     inkscape:window-width="640"
     inkscape:window-height="480"
     id="namedview4680"
     showgrid="false"
     inkscape:zoom="0.4609375"
     inkscape:cx="256"
     inkscape:cy="256"
     inkscape:window-x="0"
     inkscape:window-y="0"
     inkscape:window-maximized="0"
     inkscape:current-layer="g4670" />
  <defs
     id="defs4662" />
  <g
     transform="translate(0 492)"
     id="g4664">
    <path
       fill="#f00"
       d="m16.5,4.5a1,1 0 1,1 -2,0 1,1 0 1,1 2,0z"
       transform="matrix(32 0 0 -32 -56 -276)"
       id="path4666" />
    <path
       fill="none"
       stroke="#000"
       stroke-width="16"
       d="m488-164-288,0 0-288"
       id="path4668" />
    <g
       font-family="Bitstream Vera Sans"
       line-height="125%"
       font-size="1318.03881836px"
       id="g4670">
      <g
         transform="scale(1.02107 .97936)"
         style=""
         id="text4672">
        <path
           d="M 468.46601,-127.827 427.96601,-73.327001 470.56601,-15.827 448.86601,-15.827 416.26601,-59.827 383.66601,-15.827 361.96601,-15.827 405.46601,-74.427001 365.66601,-127.827 387.36601,-127.827 417.06601,-87.927001 446.76601,-127.827 468.46601,-127.827"
           style="font-size:204.80000305px;text-align:start;font-family:DejaVu Sans"
           id="path4958" />
      </g>
      <g
         transform="scale(1.02107 .97936)"
         style=""
         id="text4676">
        <path
           d="M 109.286,-319.1 C 104.08594,-305.76669 99.01928,-297.0667 94.086002,-293 89.152623,-288.93337 82.55263,-286.90004 74.286002,-286.9 L 59.586002,-286.9 59.586002,-302.3 70.386002,-302.3 C 75.452637,-302.30003 79.385966,-303.50003 82.186002,-305.9 84.985961,-308.30002 88.085958,-313.96668 91.486002,-322.9 L 94.786002,-331.3 49.486002,-441.5 68.986002,-441.5 103.986,-353.9 138.986,-441.5 158.486,-441.5 109.286,-319.1"
           style="font-size:204.80000305px;text-align:start;font-family:DejaVu Sans"
           id="path4955" />
      </g>
    </g>
  </g>
</svg>
