<svg width="512" xmlns="http://www.w3.org/2000/svg" height="512">
<defs/>
<g transform="translate(0 464)">
<g fill="none" stroke="#000" stroke-linecap="round">
<g stroke-width=".25">
<ellipse cx="110.1" cy="42.978" rx=".01" ry=".01" d="m 110.11,42.977798 c 0,0.0055 -0.004,0.01 -0.01,0.01 -0.006,0 -0.01,-0.0045 -0.01,-0.01 0,-0.0055 0.004,-0.01 0.01,-0.01 0.006,0 0.01,0.0045 0.01,0.01 z" transform="matrix(8.66582 0 0 8.66582 -784.86019 -537.06021)"/>
<ellipse cx="130.122" cy="32.967" rx=".01" ry=".01" d="m 130.13199,32.966599 c 0,0.0055 -0.004,0.01 -0.01,0.01 -0.006,0 -0.01,-0.0045 -0.01,-0.01 0,-0.0055 0.004,-0.01 0.01,-0.01 0.006,0 0.01,0.0045 0.01,0.01 z" transform="matrix(8.66582 0 0 8.66582 -784.86019 -537.06021)"/>
</g>
<g stroke-width="1.846">
<ellipse opacity=".25" cx="124.588" cy="46.926" rx="15.017" ry="15.017" d="m 139.6047,46.926399 c 0,8.293495 -6.72321,15.0167 -15.0167,15.0167 -8.2935,0 -15.0167,-6.723205 -15.0167,-15.0167 0,-8.293494 6.7232,-15.0167 15.0167,-15.0167 8.29349,0 15.0167,6.723206 15.0167,15.0167 z" transform="matrix(8.66063 .29989 -.29989 8.66063 -772.84935 -572.88297)"/>
<ellipse cx="115.634" cy="29.018" rx="15.017" ry="15.017" d="m 130.6507,29.018 c 0,8.293494 -6.7232,15.016699 -15.0167,15.016699 -8.29349,0 -15.0167,-6.723205 -15.0167,-15.016699 0,-8.293495 6.72321,-15.0167 15.0167,-15.0167 8.2935,0 15.0167,6.723205 15.0167,15.0167 z" transform="matrix(8.66063 .29989 -.29989 8.66063 -772.84935 -572.88297)"/>
</g>
</g>
<g fill="#f00">
<path d="m16.5,4.5c0,.5523-.4477,1-1,1-.5523,0-1-.4477-1-1 0-.5523 .4477-1 1-1 .5523,0 1,.4477 1,1z" transform="matrix(-32 0 0 -32 664 -24)"/>
<path d="m16.5,4.5c0,.5523-.4477,1-1,1-.5523,0-1-.4477-1-1 0-.5523 .4477-1 1-1 .5523,0 1,.4477 1,1z" transform="matrix(-32 0 0 -32 840 -104)"/>
</g>
</g>
<g transform="translate(0 464)">
<path d="m109.6484-40-12.6563,0 0-80.6484c-3.0469,2.9063-7.0547,5.8126-12.0234,8.7188-4.9219,2.9063-9.3516,5.086-13.2891,6.5391v-12.2344c7.0781-3.328 13.2656-7.3593 18.5625-12.0938 5.2968-4.7343 9.0468-9.328 11.25-13.7812h8.1562v103.5"/>
</g>
<g transform="translate(0 464)">
<path d="m464.4922-260.1641 0,12.1641-68.1328,0c-.0937-3.0469 .3984-5.9766 1.4766-8.7891 1.7344-4.6406 4.5-9.2109 8.2969-13.7109 3.8437-4.5 9.375-9.7031 16.5938-15.6094 11.2031-9.1875 18.7734-16.4531 22.7109-21.7969 3.9374-5.3906 5.9062-10.4765 5.9062-15.2578-.0001-5.0156-1.8048-9.2343-5.4141-12.6562-3.5625-3.4687-8.2266-5.203-13.9922-5.2031-6.0938,.0001-10.9688,1.8282-14.625,5.4844-3.6563,3.6563-5.5078,8.7188-5.5547,15.1875l-13.0078-1.3359c.8906-9.703 4.2422-17.0858 10.0547-22.1484 5.8125-5.1093 13.6171-7.664 23.4141-7.6641 9.8906,.0001 17.7187,2.7423 23.4844,8.2266 5.7656,5.4845 8.6484,12.2813 8.6484,20.3906-.0001,4.1251-.8438,8.1798-2.5312,12.1641-1.6876,3.9844-4.5001,8.1797-8.4375,12.5859-3.8907,4.4063-10.3829,10.4532-19.4766,18.1406-7.5938,6.375-12.4688,10.711-14.625,13.0078-2.1563,2.25-3.9375,4.5235-5.3438,6.8203h50.5547"/>
</g>
</svg>
