<?xml version="1.0" encoding="UTF-8" standalone="no"?>
<svg
   viewBox="0 0 512 512"
   version="1.1"
   id="svg1042"
   sodipodi:docname="Solution2.svg"
   inkscape:version="1.1.2 (b8e25be8, 2022-02-05)"
   xmlns:inkscape="http://www.inkscape.org/namespaces/inkscape"
   xmlns:sodipodi="http://sodipodi.sourceforge.net/DTD/sodipodi-0.dtd"
   xmlns:xlink="http://www.w3.org/1999/xlink"
   xmlns="http://www.w3.org/2000/svg"
   xmlns:svg="http://www.w3.org/2000/svg">
  <defs
     id="defs1046" />
  <sodipodi:namedview
     id="namedview1044"
     pagecolor="#ffffff"
     bordercolor="#666666"
     borderopacity="1.0"
     inkscape:pageshadow="2"
     inkscape:pageopacity="0.0"
     inkscape:pagecheckerboard="0"
     showgrid="false"
     inkscape:zoom="1.2617188"
     inkscape:cx="332.48297"
     inkscape:cy="237.7709"
     inkscape:window-width="1277"
     inkscape:window-height="847"
     inkscape:window-x="1225"
     inkscape:window-y="168"
     inkscape:window-maximized="0"
     inkscape:current-layer="g1040" />
  <g
     transform="translate(0 464)"
     id="g1040">
    <g
       style="fill:none;stroke:#000;stroke-linecap:round"
       id="g1031">
      <g
         transform="matrix(8.66582 0 0 8.66582-784.86-537.06)"
         style="stroke-width:.25"
         id="g1023">
        <ellipse
           cx="110.1"
           cy="42.978"
           rx=".01"
           ry=".01"
           id="ellipse1019" />
        <ellipse
           cx="130.12"
           cy="32.967"
           rx=".01"
           ry=".01"
           id="ellipse1021" />
      </g>
      <g
         transform="matrix(8.66063.29989-.29989 8.66063-772.85-572.88)"
         style="stroke-width:1.846"
         id="g1029">
        <ellipse
           cx="124.59"
           cy="46.926"
           rx="15.02"
           ry="15.02"
           id="ellipse1025" />
        <ellipse
           cx="115.63"
           cy="29.02"
           rx="15.02"
           ry="15.02"
           style="opacity:.25"
           id="ellipse1027" />
      </g>
    </g>
    <g
       style="fill:#f00"
       id="g1036">
      <path
         d="m16.5 4.5c0 .552-.448 1-1 1-.552 0-1-.448-1-1 0-.552.448-1 1-1 .552 0 1 .448 1 1"
         transform="matrix(-32 0 0-32 664-24)"
         id="0" />
      <use
         transform="translate(176-80)"
         xlink:href="#0"
         id="use1034" />
    </g>
  </g>
</svg>
