<?xml version="1.0" encoding="UTF-8" standalone="no"?>
<!-- Created with Inkscape (http://www.inkscape.org/) -->

<svg
   xmlns:dc="http://purl.org/dc/elements/1.1/"
   xmlns:cc="http://creativecommons.org/ns#"
   xmlns:rdf="http://www.w3.org/1999/02/22-rdf-syntax-ns#"
   xmlns:svg="http://www.w3.org/2000/svg"
   xmlns="http://www.w3.org/2000/svg"
   xmlns:sodipodi="http://sodipodi.sourceforge.net/DTD/sodipodi-0.dtd"
   xmlns:inkscape="http://www.inkscape.org/namespaces/inkscape"
   width="512"
   height="512"
   id="svg2"
   sodipodi:version="0.32"
   inkscape:version="0.47 r22583"
   version="1.0"
   sodipodi:docname="Solution2.svg"
   inkscape:output_extension="org.inkscape.output.svg.inkscape">
  <defs
     id="defs4">
    <marker
       inkscape:stockid="Arrow1Mend"
       orient="auto"
       refY="0"
       refX="0"
       id="Arrow1Mend"
       style="overflow:visible">
      <path
         id="path3720"
         d="M 0,0 5,-5 -12.5,0 5,5 0,0 z"
         style="fill-rule:evenodd;stroke:#000000;stroke-width:1pt;marker-start:none"
         transform="matrix(-0.4,0,0,-0.4,-4,0)" />
    </marker>
    <marker
       inkscape:stockid="TriangleOutL"
       orient="auto"
       refY="0"
       refX="0"
       id="TriangleOutL"
       style="overflow:visible">
      <path
         id="path3854"
         d="m 5.77,0 -8.65,5 0,-10 8.65,5 z"
         style="fill-rule:evenodd;stroke:#000000;stroke-width:1pt;marker-start:none"
         transform="scale(0.8,0.8)" />
    </marker>
    <marker
       inkscape:stockid="Arrow2Send"
       orient="auto"
       refY="0"
       refX="0"
       id="Arrow2Send"
       style="overflow:visible">
      <path
         id="path3295"
         style="font-size:12px;fill-rule:evenodd;stroke-width:0.625;stroke-linejoin:round"
         d="M 8.7185878,4.0337352 -2.2072895,0.01601326 8.7185884,-4.0017078 c -1.7454984,2.3720609 -1.7354408,5.6174519 -6e-7,8.035443 z"
         transform="matrix(-0.3,0,0,-0.3,0.69,0)" />
    </marker>
    <marker
       inkscape:stockid="Arrow1Lend"
       orient="auto"
       refY="0"
       refX="0"
       id="Arrow1Lend"
       style="overflow:visible">
      <path
         id="path3265"
         d="M 0,0 5,-5 -12.5,0 5,5 0,0 z"
         style="fill-rule:evenodd;stroke:#000000;stroke-width:1pt;marker-start:none"
         transform="matrix(-0.8,0,0,-0.8,-10,0)" />
    </marker>
    <marker
       inkscape:stockid="Arrow1Lstart"
       orient="auto"
       refY="0"
       refX="0"
       id="Arrow1Lstart"
       style="overflow:visible">
      <path
         id="path3262"
         d="M 0,0 5,-5 -12.5,0 5,5 0,0 z"
         style="fill-rule:evenodd;stroke:#000000;stroke-width:1pt;marker-start:none"
         transform="matrix(0.8,0,0,0.8,10,0)" />
    </marker>
    <inkscape:perspective
       sodipodi:type="inkscape:persp3d"
       inkscape:vp_x="0 : 526.18109 : 1"
       inkscape:vp_y="0 : 1000 : 0"
       inkscape:vp_z="744.09448 : 526.18109 : 1"
       inkscape:persp3d-origin="372.04724 : 350.78739 : 1"
       id="perspective10" />
    <inkscape:perspective
       id="perspective2477"
       inkscape:persp3d-origin="372.04724 : 350.78739 : 1"
       inkscape:vp_z="744.09448 : 526.18109 : 1"
       inkscape:vp_y="0 : 1000 : 0"
       inkscape:vp_x="0 : 526.18109 : 1"
       sodipodi:type="inkscape:persp3d" />
    <inkscape:perspective
       id="perspective3704"
       inkscape:persp3d-origin="85.039368 : 37.795275 : 1"
       inkscape:vp_z="170.07874 : 56.692913 : 1"
       inkscape:vp_y="0 : 1000 : 0"
       inkscape:vp_x="0 : 56.692913 : 1"
       sodipodi:type="inkscape:persp3d" />
    <inkscape:perspective
       id="perspective3701"
       inkscape:persp3d-origin="44.29134 : 29.52756 : 1"
       inkscape:vp_z="88.58268 : 44.29134 : 1"
       inkscape:vp_y="0 : 1000 : 0"
       inkscape:vp_x="0 : 44.29134 : 1"
       sodipodi:type="inkscape:persp3d" />
    <inkscape:perspective
       id="perspective3802"
       inkscape:persp3d-origin="44.29134 : 30.708661 : 1"
       inkscape:vp_z="88.58268 : 46.062992 : 1"
       inkscape:vp_y="0 : 1000 : 0"
       inkscape:vp_x="0 : 46.062992 : 1"
       sodipodi:type="inkscape:persp3d" />
    <inkscape:perspective
       id="perspective2921"
       inkscape:persp3d-origin="44.29134 : 30.708661 : 1"
       inkscape:vp_z="88.58268 : 46.062992 : 1"
       inkscape:vp_y="0 : 1000 : 0"
       inkscape:vp_x="0 : 46.062992 : 1"
       sodipodi:type="inkscape:persp3d" />
    <inkscape:perspective
       id="perspective2978"
       inkscape:persp3d-origin="233.85826 : 99.212596 : 1"
       inkscape:vp_z="467.71652 : 148.81889 : 1"
       inkscape:vp_y="0 : 1000 : 0"
       inkscape:vp_x="0 : 148.81889 : 1"
       sodipodi:type="inkscape:persp3d" />
    <inkscape:perspective
       sodipodi:type="inkscape:persp3d"
       inkscape:vp_x="0 : 526.18109 : 1"
       inkscape:vp_y="0 : 1000 : 0"
       inkscape:vp_z="744.09448 : 526.18109 : 1"
       inkscape:persp3d-origin="372.04724 : 350.78739 : 1"
       id="perspective2477-2" />
    <inkscape:perspective
       id="perspective10-2"
       inkscape:persp3d-origin="372.04724 : 350.78739 : 1"
       inkscape:vp_z="744.09448 : 526.18109 : 1"
       inkscape:vp_y="0 : 1000 : 0"
       inkscape:vp_x="0 : 526.18109 : 1"
       sodipodi:type="inkscape:persp3d" />
    <marker
       style="overflow:visible"
       id="Arrow1Lstart-0"
       refX="0"
       refY="0"
       orient="auto"
       inkscape:stockid="Arrow1Lstart">
      <path
         transform="matrix(0.8,0,0,0.8,10,0)"
         style="fill-rule:evenodd;stroke:#000000;stroke-width:1pt;marker-start:none"
         d="M 0,0 5,-5 -12.5,0 5,5 0,0 z"
         id="path3262-5" />
    </marker>
    <marker
       style="overflow:visible"
       id="Arrow1Lend-3"
       refX="0"
       refY="0"
       orient="auto"
       inkscape:stockid="Arrow1Lend">
      <path
         transform="matrix(-0.8,0,0,-0.8,-10,0)"
         style="fill-rule:evenodd;stroke:#000000;stroke-width:1pt;marker-start:none"
         d="M 0,0 5,-5 -12.5,0 5,5 0,0 z"
         id="path3265-9" />
    </marker>
    <marker
       style="overflow:visible"
       id="Arrow2Send-4"
       refX="0"
       refY="0"
       orient="auto"
       inkscape:stockid="Arrow2Send">
      <path
         transform="matrix(-0.3,0,0,-0.3,0.69,0)"
         d="M 8.7185878,4.0337352 -2.2072895,0.01601326 8.7185884,-4.0017078 c -1.7454984,2.3720609 -1.7354408,5.6174519 -6e-7,8.035443 z"
         style="font-size:12px;fill-rule:evenodd;stroke-width:0.625;stroke-linejoin:round"
         id="path3295-8" />
    </marker>
    <marker
       style="overflow:visible"
       id="TriangleOutL-0"
       refX="0"
       refY="0"
       orient="auto"
       inkscape:stockid="TriangleOutL">
      <path
         transform="scale(0.8,0.8)"
         style="fill-rule:evenodd;stroke:#000000;stroke-width:1pt;marker-start:none"
         d="m 5.77,0 -8.65,5 0,-10 8.65,5 z"
         id="path3854-2" />
    </marker>
    <marker
       style="overflow:visible"
       id="Arrow1Mend-3"
       refX="0"
       refY="0"
       orient="auto"
       inkscape:stockid="Arrow1Mend">
      <path
         transform="matrix(-0.4,0,0,-0.4,-4,0)"
         style="fill-rule:evenodd;stroke:#000000;stroke-width:1pt;marker-start:none"
         d="M 0,0 5,-5 -12.5,0 5,5 0,0 z"
         id="path3720-8" />
    </marker>
    <inkscape:perspective
       id="perspective3005"
       inkscape:persp3d-origin="364.96063 : 113.38582 : 1"
       inkscape:vp_z="729.92126 : 170.07874 : 1"
       inkscape:vp_y="0 : 1000 : 0"
       inkscape:vp_x="0 : 170.07874 : 1"
       sodipodi:type="inkscape:persp3d" />
  </defs>
  <sodipodi:namedview
     id="base"
     pagecolor="#ffffff"
     bordercolor="#666666"
     borderopacity="1.0"
     gridtolerance="10000"
     guidetolerance="10"
     objecttolerance="10"
     inkscape:pageopacity="0.0"
     inkscape:pageshadow="2"
     inkscape:zoom="0.64"
     inkscape:cx="-358.36526"
     inkscape:cy="275.51167"
     inkscape:document-units="px"
     inkscape:current-layer="layer1"
     showgrid="true"
     inkscape:snap-global="true"
     inkscape:window-width="1353"
     inkscape:window-height="968"
     inkscape:window-x="484"
     inkscape:window-y="144"
     inkscape:window-maximized="0">
    <inkscape:grid
       type="xygrid"
       id="grid2485"
       visible="true"
       enabled="true"
       dotted="false"
       empspacing="10"
       originx="-8px"
       originy="-8px"
       spacingx="16px"
       spacingy="16px"
       snapvisiblegridlinesonly="true" />
  </sodipodi:namedview>
  <metadata
     id="metadata7">
    <rdf:RDF>
      <cc:Work
         rdf:about="">
        <dc:format>image/svg+xml</dc:format>
        <dc:type
           rdf:resource="http://purl.org/dc/dcmitype/StillImage" />
        <dc:title />
      </cc:Work>
    </rdf:RDF>
  </metadata>
  <g
     inkscape:label="Layer 1"
     inkscape:groupmode="layer"
     id="layer1"
     transform="translate(0,464)">
    <ellipse
       d="m 110.11,42.977798 c 0,0.0055 -0.004,0.01 -0.01,0.01 -0.006,0 -0.01,-0.0045 -0.01,-0.01 0,-0.0055 0.004,-0.01 0.01,-0.01 0.006,0 0.01,0.0045 0.01,0.01 z"
       sodipodi:ry="0.0099999998"
       sodipodi:rx="0.0099999998"
       sodipodi:cy="42.977798"
       sodipodi:cx="110.1"
       cx="110.1"
       cy="42.977798"
       rx="0.0099999998"
       ry="0.0099999998"
       style="fill:none;stroke:#000000;stroke-width:0.25;stroke-linecap:round"
       id="ellipse2985"
       transform="matrix(8.665819,0,0,8.665819,-784.86019,-537.06021)" />
    <ellipse
       d="m 130.13199,32.966599 c 0,0.0055 -0.004,0.01 -0.01,0.01 -0.006,0 -0.01,-0.0045 -0.01,-0.01 0,-0.0055 0.004,-0.01 0.01,-0.01 0.006,0 0.01,0.0045 0.01,0.01 z"
       sodipodi:ry="0.0099999998"
       sodipodi:rx="0.0099999998"
       sodipodi:cy="32.966599"
       sodipodi:cx="130.12199"
       cx="130.12199"
       cy="32.966599"
       rx="0.0099999998"
       ry="0.0099999998"
       style="fill:none;stroke:#000000;stroke-width:0.25;stroke-linecap:round"
       id="ellipse2987"
       transform="matrix(8.665819,0,0,8.665819,-784.86019,-537.06021)" />
    <ellipse
       d="m 139.6047,46.926399 c 0,8.293495 -6.72321,15.0167 -15.0167,15.0167 -8.2935,0 -15.0167,-6.723205 -15.0167,-15.0167 0,-8.293494 6.7232,-15.0167 15.0167,-15.0167 8.29349,0 15.0167,6.723206 15.0167,15.0167 z"
       sodipodi:ry="15.0167"
       sodipodi:rx="15.0167"
       sodipodi:cy="46.926399"
       sodipodi:cx="124.588"
       cx="124.588"
       cy="46.926399"
       rx="15.0167"
       ry="15.0167"
       style="fill:none;stroke:#000000;stroke-width:1.84633446000000001;stroke-linecap:round;stroke-miterlimit:4;stroke-dasharray:none;opacity:1"
       id="ellipse2995"
       transform="matrix(8.6606285,0.29988805,-0.29988805,8.6606285,-772.84935,-572.88297)" />
    <ellipse
       d="m 130.6507,29.018 c 0,8.293494 -6.7232,15.016699 -15.0167,15.016699 -8.29349,0 -15.0167,-6.723205 -15.0167,-15.016699 0,-8.293495 6.72321,-15.0167 15.0167,-15.0167 8.2935,0 15.0167,6.723205 15.0167,15.0167 z"
       sodipodi:ry="15.0167"
       sodipodi:rx="15.0167"
       sodipodi:cy="29.018"
       sodipodi:cx="115.634"
       cx="115.634"
       cy="29.018"
       rx="15.0167"
       ry="15.0167"
       style="opacity:0.25;fill:none;stroke:#000000;stroke-width:1.84633446000000001;stroke-linecap:round;stroke-miterlimit:4;stroke-dasharray:none"
       id="ellipse2997"
       transform="matrix(8.6606285,0.29988805,-0.29988805,8.6606285,-772.84935,-572.88297)" />
    <path
       sodipodi:type="arc"
       style="fill:#ff0000;fill-opacity:1;fill-rule:nonzero;stroke:none;stroke-width:0;marker:none;visibility:visible;display:inline;overflow:visible;enable-background:accumulate"
       id="path3277"
       sodipodi:cx="15.5"
       sodipodi:cy="4.5"
       sodipodi:rx="1"
       sodipodi:ry="1"
       d="m 16.5,4.5 c 0,0.5522847 -0.447715,1 -1,1 -0.552285,0 -1,-0.4477153 -1,-1 0,-0.5522847 0.447715,-1 1,-1 0.552285,0 1,0.4477153 1,1 z"
       transform="matrix(-32,0,0,-32,664,-24)" />
    <path
       sodipodi:type="arc"
       style="fill:#ff0000;fill-opacity:1;fill-rule:nonzero;stroke:none;stroke-width:1;marker:none;visibility:visible;display:inline;overflow:visible;enable-background:accumulate"
       id="path2394"
       sodipodi:cx="15.5"
       sodipodi:cy="4.5"
       sodipodi:rx="1"
       sodipodi:ry="1"
       d="m 16.5,4.5 c 0,0.5522847 -0.447715,1 -1,1 -0.552285,0 -1,-0.4477153 -1,-1 0,-0.5522847 0.447715,-1 1,-1 0.552285,0 1,0.4477153 1,1 z"
       transform="matrix(-32,0,0,-32,840,-104)" />
    <g
       style="font-size:144px;font-style:normal;font-variant:normal;font-weight:normal;font-stretch:normal;fill:#000000;fill-opacity:1;stroke:none;font-family:Arial;-inkscape-font-specification:Arial"
       id="text3892">
      <path
         d="m 109.64844,-40 -12.656253,0 0,-80.64844 c -3.046912,2.90633 -7.054721,5.81258 -12.023437,8.71875 -4.921899,2.90632 -9.351582,5.08601 -13.289063,6.53906 l 0,-12.23437 c 7.078103,-3.32804 13.265597,-7.35929 18.5625,-12.09375 5.296836,-4.73428 9.046832,-9.32803 11.250003,-13.78125 l 8.15625,0 0,103.5"
         style=""
         id="path3904" />
    </g>
    <g
       style="font-size:144px;font-style:normal;font-variant:normal;font-weight:normal;font-stretch:normal;fill:#000000;fill-opacity:1;stroke:none;font-family:Arial;-inkscape-font-specification:Arial"
       id="text3896">
      <path
         d="m 464.49219,-260.16406 0,12.16406 -68.13282,0 c -0.0937,-3.04687 0.39844,-5.97656 1.47657,-8.78906 1.73436,-4.64061 4.49999,-9.21092 8.29687,-13.71094 3.84373,-4.49997 9.37498,-9.70309 16.59375,-15.60937 11.20309,-9.18746 18.77339,-16.45308 22.71094,-21.79688 3.93744,-5.39056 5.90619,-10.47649 5.90625,-15.25781 -6e-5,-5.01555 -1.80475,-9.23429 -5.41406,-12.65625 -3.56255,-3.46866 -8.22661,-5.20303 -13.99219,-5.20313 -6.09378,10e-5 -10.96878,1.82822 -14.625,5.48438 -3.65627,3.65633 -5.50783,8.71883 -5.55469,15.1875 L 398.75,-321.6875 c 0.89062,-9.70304 4.24218,-17.08585 10.05469,-22.14844 5.81247,-5.10927 13.61715,-7.66396 23.41406,-7.66406 9.89057,10e-5 17.71869,2.74229 23.48437,8.22656 5.76556,5.48447 8.64837,12.28134 8.64844,20.39063 -7e-5,4.12507 -0.84382,8.17975 -2.53125,12.16406 -1.68757,3.98443 -4.50006,8.17974 -8.4375,12.58594 -3.89068,4.40629 -10.38286,10.45316 -19.47656,18.14062 -7.59378,6.37503 -12.46878,10.71096 -14.625,13.00782 -2.15628,2.25001 -3.93752,4.52345 -5.34375,6.82031 l 50.55469,0"
         style=""
         id="path3901" />
    </g>
  </g>
</svg>
