<svg xmlns="http://www.w3.org/2000/svg" viewBox="0 0 512 512" xmlns:xlink="http://www.w3.org/1999/xlink"><g transform="translate(0 464)"><g style="fill:none;stroke:#000;stroke-linecap:round"><g transform="matrix(8.66582 0 0 8.66582-784.86-537.06)" style="stroke-width:.25"><ellipse cx="110.1" cy="42.978" rx=".01" ry=".01"/><ellipse cx="130.12" cy="32.967" rx=".01" ry=".01"/></g><g transform="matrix(8.66063.29989-.29989 8.66063-772.85-572.88)" style="stroke-width:1.846"><ellipse cx="124.59" cy="46.926" rx="15.02" ry="15.02"/><ellipse cx="115.63" cy="29.02" rx="15.02" ry="15.02" style="opacity:.25"/></g></g><g style="fill:#f00"><path d="m16.5 4.5c0 .552-.448 1-1 1-.552 0-1-.448-1-1 0-.552.448-1 1-1 .552 0 1 .448 1 1" transform="matrix(-32 0 0-32 664-24)" id="0"/><use transform="translate(176-80)" xlink:href="#0"/></g><path d="m464.49-260.16v12.164h-68.13c-.094-3.047.398-5.977 1.477-8.789 1.734-4.641 4.5-9.211 8.297-13.711 3.844-4.5 9.375-9.703 16.594-15.609 11.203-9.188 18.773-16.453 22.711-21.797 3.937-5.391 5.906-10.476 5.906-15.258 0-5.02-1.805-9.234-5.414-12.656-3.563-3.469-8.227-5.203-13.992-5.203-6.094 0-10.969 1.828-14.625 5.484-3.656 3.656-5.508 8.719-5.555 15.188l-13.01-1.336c.891-9.703 4.242-17.09 10.05-22.15 5.813-5.109 13.617-7.664 23.414-7.664 9.891 0 17.719 2.742 23.484 8.227 5.766 5.485 8.648 12.281 8.648 20.391 0 4.125-.844 8.18-2.531 12.164-1.688 3.984-4.5 8.18-8.438 12.586-3.891 4.406-10.383 10.453-19.477 18.14-7.594 6.375-12.469 10.711-14.625 13.01-2.156 2.25-3.938 4.524-5.344 6.82h50.555"/></g></svg>