<?xml version="1.0" encoding="UTF-8" standalone="no"?>
<svg
   xmlns:dc="http://purl.org/dc/elements/1.1/"
   xmlns:cc="http://creativecommons.org/ns#"
   xmlns:rdf="http://www.w3.org/1999/02/22-rdf-syntax-ns#"
   xmlns:svg="http://www.w3.org/2000/svg"
   xmlns="http://www.w3.org/2000/svg"
   xmlns:sodipodi="http://sodipodi.sourceforge.net/DTD/sodipodi-0.dtd"
   xmlns:inkscape="http://www.inkscape.org/namespaces/inkscape"
   viewBox="0 0 96 48"
   version="1.1"
   id="svg12"
   sodipodi:docname="layerstatus_10-inverse.svg"
   inkscape:version="0.92.2 5c3e80d, 2017-08-06">
  <metadata
     id="metadata18">
    <rdf:RDF>
      <cc:Work
         rdf:about="">
        <dc:format>image/svg+xml</dc:format>
        <dc:type
           rdf:resource="http://purl.org/dc/dcmitype/StillImage" />
      </cc:Work>
    </rdf:RDF>
  </metadata>
  <defs
     id="defs16" />
  <sodipodi:namedview
     pagecolor="#ffffff"
     bordercolor="#666666"
     borderopacity="1"
     objecttolerance="10"
     gridtolerance="10"
     guidetolerance="10"
     inkscape:pageopacity="0"
     inkscape:pageshadow="2"
     inkscape:window-width="1236"
     inkscape:window-height="780"
     id="namedview14"
     showgrid="false"
     inkscape:zoom="3.1875"
     inkscape:cx="48"
     inkscape:cy="24"
     inkscape:window-x="0"
     inkscape:window-y="0"
     inkscape:window-maximized="0"
     inkscape:current-layer="svg12" />
  <g
     style="fill:#323232;stroke-width:1;stroke-miterlimit:4;stroke-dasharray:none;stroke:#ffffff;stroke-opacity:1;fill-opacity:1"
     id="g10">
    <path
       d="m32.3 8.183c3.864 1.558 7.4 4.51 11.01 7.08.681 3.959-4.305-1-3.052 2.481 1.646 2.402 4.294 3.176 5.443 6.28.51 3.928-2.315 4.537-4.088 5.09-1.782 1.143-3.167 3.419-5.01 4.381-.885 2.923-3.104 3.269-4.727 5.086-1.416.315-2.683.843-4.01 1.511-.128-1.859-1.325-4.01-2.519-1.95-.527 1.862-2.994 4.302-3.52 1.493.303-.05 1.66.387 1.558-1.483-.473-3.656-2.218 1.808-3.423 2.01-.887-.336 1.661-2.395-.054-2.976-.755.621-1.881 3.707-2.718 2.15 1.802-3.514-2.076-4.324-3.503-2.879-1.152-1.617-3.68 2.575-3.757-.068.345-.775 2.853-1.114 1.777-1.655-1.161 1.15-2.951-.042-3.213-1.056-1.633.641 1.313-3.117-.55-1.874-2.065.606-3.565-2.424-2.876-5.205-1.079-1.716-3.519 3.581-3.165-.404-.849-.708-1.318-1.639-.078-2 1.854-1.251 2.187-5.53.145-5.929.085-3.263 2.333-4.636 3.93-5.92 5.588-4.363 11.997-4.637 18.12-5.228 2.774-.093 5.564.172 8.282 1.071m1.515 9.131c-2.204.605-2.023 4.765-3.02 7.097-2.35 5.718-7.751 7.858-11.478 4.139-1.869-1.614-3.866-4.224-3.839-7.842-.776-3.828-3.676-1.755-5.05-.03-2.034 1.774-1.64 5.909.322 7.381 2.123 2.513 4.649 4.142 7.194 5.293 5.641 1.881 11.612-.757 16.329-5.657 1.279-1.597 3.262-3.483 2.76-6.465-.522-2.074-1.952-3.162-3.211-3.915m-13.831.331c-2.226 1.581-1.023 7.529 1.293 7.398 1.933-.742 1.223-4.629.07-6.111-.38-.583-.835-1.088-1.362-1.288m15.284 15.12c-.881.26.726.818 0 0m-5.629 3.596c-1.108-.053.499 1.563 0 0m-3.856 1.737c1.249 1.88-1.361.731 0 0m-18.253-6.202c-.169 2.254-1.534-.018 0 0m7.686 4.567c.114 2.025-1.56-.457 0 0m3.399 1.227c-1.544.428.041 2.514 0 0m-1.7.219c-.514.599-2.774 3.702-1.722 1.048.489-.61 1.103-.948 1.722-1.048m-3.26-.022c-.446 2.094-1.461-.341 0 0"
       id="path2"
       style="stroke-width:1;stroke-miterlimit:4;stroke-dasharray:none;stroke:#ffffff;stroke-opacity:1;fill:#323232;fill-opacity:1" />
    <g
       transform="matrix(.33382 0 0 .33382 53.55 3.03)"
       style="fill-rule:evenodd;stroke-width:2.99562639;stroke-miterlimit:4;stroke-dasharray:none;stroke:#ffffff;stroke-opacity:1;fill:#323232;fill-opacity:1"
       id="g8">
      <path
         d="m64.36 2c-20.07 0-36.23 16.16-36.23 36.23v40.26h10.06v-40.26c0-14.496 11.67-26.17 26.17-26.17 14.496 0 26.17 11.67 26.17 26.17v40.26h10.06v-40.26c0-20.07-16.16-36.23-36.23-36.23"
         id="path4"
         style="stroke-width:2.99562639;stroke-miterlimit:4;stroke-dasharray:none;stroke:#ffffff;stroke-opacity:1;fill:#323232;fill-opacity:1" />
      <path
         d="m22.06 57.36h84.6a.5 .5 0 0 1 .5 .5v65.26a.5 .5 0 0 1 -.5 .5h-84.6a.5 .5 0 0 1 -.5 -.5v-65.26a.5 .5 0 0 1 .5 -.5"
         id="path6"
         style="stroke-width:2.99562639;stroke-miterlimit:4;stroke-dasharray:none;stroke:#ffffff;stroke-opacity:1;fill:#323232;fill-opacity:1" />
    </g>
  </g>
</svg>
