<?xml version="1.0" encoding="UTF-8" standalone="no"?>
<!-- Created with Inkscape (http://www.inkscape.org/) -->
<svg
   xmlns:dc="http://purl.org/dc/elements/1.1/"
   xmlns:cc="http://creativecommons.org/ns#"
   xmlns:rdf="http://www.w3.org/1999/02/22-rdf-syntax-ns#"
   xmlns:svg="http://www.w3.org/2000/svg"
   xmlns="http://www.w3.org/2000/svg"
   xmlns:sodipodi="http://sodipodi.sourceforge.net/DTD/sodipodi-0.dtd"
   xmlns:inkscape="http://www.inkscape.org/namespaces/inkscape"
   width="96"
   height="48"
   id="svg2"
   sodipodi:version="0.32"
   inkscape:version="0.46"
   sodipodi:docbase="C:\Documents and Settings\Molumen\Desktop"
   sodipodi:docname="layerstatus_01.svg"
   inkscape:output_extension="org.inkscape.output.svg.inkscape"
   version="1.0"
   sodipodi:modified="true">
  <defs
     id="defs3">
    <inkscape:perspective
       sodipodi:type="inkscape:persp3d"
       inkscape:vp_x="0 : 130 : 1"
       inkscape:vp_y="0 : 1000 : 0"
       inkscape:vp_z="744.09448 : 130 : 1"
       inkscape:persp3d-origin="372.04724 : 86.666667 : 1"
       id="perspective2612" />
    <inkscape:perspective
       id="perspective11"
       inkscape:persp3d-origin="75 : 50 : 1"
       inkscape:vp_z="150 : 75 : 1"
       inkscape:vp_y="0 : 1000 : 0"
       inkscape:vp_x="0 : 75 : 1"
       sodipodi:type="inkscape:persp3d" />
  </defs>
  <sodipodi:namedview
     fill="#800000"
     id="base"
     pagecolor="#ffffff"
     bordercolor="#666666"
     borderopacity="1.0"
     inkscape:pageopacity="0.0"
     inkscape:pageshadow="2"
     inkscape:zoom="8.477748"
     inkscape:cx="55.182111"
     inkscape:cy="19.128002"
     inkscape:document-units="px"
     inkscape:current-layer="layer1"
     showguides="true"
     inkscape:guide-bbox="true"
     inkscape:window-width="1600"
     inkscape:window-height="980"
     inkscape:window-x="36"
     inkscape:window-y="0"
     height="260px"
     width="744.09448px"
     showgrid="false" />
  <metadata
     id="metadata4">
    <rdf:RDF>
      <cc:Work
         rdf:about="">
        <dc:format>image/svg+xml</dc:format>
        <dc:type
           rdf:resource="http://purl.org/dc/dcmitype/StillImage" />
        <dc:title>eyes</dc:title>
        <dc:date>19 06 2005</dc:date>
        <dc:creator>
          <cc:Agent>
            <dc:title>Lumen Design Studio</dc:title>
          </cc:Agent>
        </dc:creator>
        <dc:description>eyes</dc:description>
        <cc:license
           rdf:resource="http://web.resource.org/cc/PublicDomain" />
      </cc:Work>
      <cc:License
         rdf:about="http://web.resource.org/cc/PublicDomain">
        <cc:permits
           rdf:resource="http://web.resource.org/cc/Reproduction" />
        <cc:permits
           rdf:resource="http://web.resource.org/cc/Distribution" />
        <cc:permits
           rdf:resource="http://web.resource.org/cc/DerivativeWorks" />
      </cc:License>
    </rdf:RDF>
  </metadata>
  <g
     inkscape:label="Layer 1"
     inkscape:groupmode="layer"
     id="layer1">
    <path
       style="fill:#999999;fill-opacity:1"
       d="M 32.304715,8.1829359 C 36.168646,9.741228 39.704327,12.692607 43.313235,15.258479 C 43.994378,19.217115 39.007864,14.258886 40.261104,17.73942 C 41.907042,20.141321 44.554891,20.914999 45.704401,24.019593 C 46.213927,27.947925 43.38962,28.556477 41.616339,29.109448 C 39.834153,30.252236 38.4488,32.528057 36.609468,33.490609 C 35.724793,36.413444 33.505896,36.759372 31.882786,38.576685 C 30.466587,38.891828 29.200156,39.419612 27.870009,40.087395 C 27.742195,38.228349 26.545361,36.075518 25.351083,38.137359 C 24.823621,39.99928 22.357209,42.43905 21.831228,39.630106 C 22.134744,39.58022 23.49112,40.017353 23.389049,38.147628 C 22.915822,34.492031 21.170692,39.955544 19.966297,40.160752 C 19.078882,39.824522 21.627282,37.765313 19.912736,37.18466 C 19.158051,37.805711 18.031984,40.891244 17.194754,39.334941 C 18.997207,35.820639 15.118248,35.010749 13.691901,36.455715 C 12.540031,34.839075 10.012139,39.030612 9.9350282,36.388105 C 10.279832,35.61278 12.788183,35.27448 11.712313,34.733202 C 10.55157,35.883607 8.7614982,34.690891 8.4996216,33.676785 C 6.8668766,34.317609 9.8124798,30.559957 7.9499564,31.803017 C 5.8854432,32.409014 4.3847544,29.378845 5.0741629,26.597758 C 3.9948136,24.881446 1.5551281,30.178874 1.9095757,26.194196 C 1.0601537,25.486637 0.59115055,24.555096 1.8316465,24.18993 C 3.685229,22.938984 4.018622,18.660187 1.9763636,18.260492 C 2.0612598,14.997879 4.3093823,13.624899 5.9060774,12.340419 C 11.493763,7.9770776 17.902999,7.7038957 24.022364,7.1119912 C 26.79612,7.0185243 29.586732,7.2841608 32.304715,8.1829359 z M 33.81966,17.314174 C 31.615725,17.91901 31.796953,22.079071 30.79607,24.411342 C 28.445976,30.129742 23.045299,32.26936 19.318042,28.549998 C 17.448656,26.936262 15.451786,24.326397 15.478999,20.707609 C 14.702558,16.879937 11.802543,18.952851 10.424151,20.677206 C 8.3905412,22.450867 8.7845749,26.58645 10.746015,28.058023 C 12.86856,30.570735 15.395431,32.199571 17.940427,33.351051 C 23.581577,35.231975 29.552607,32.594119 34.26978,27.693783 C 35.549207,26.097166 37.531794,24.211057 37.030193,21.228853 C 36.507866,19.154418 35.07864,18.066409 33.81966,17.314174 z M 19.98902,17.64506 C 17.763355,19.226274 18.966456,25.173565 21.281605,25.043373 C 23.214128,24.30182 22.504488,20.414007 21.351087,18.932698 C 20.971012,18.349249 20.516089,17.84434 19.98902,17.64506 z M 35.273418,32.762236 C 34.392096,33.021911 35.999428,33.580184 35.273418,32.762236 z M 29.644212,36.358426 C 28.535873,36.305927 30.143324,37.921939 29.644212,36.358426 z M 25.787936,38.095388 C 27.03681,39.975641 24.427435,38.826336 25.787936,38.095388 z M 7.5347408,31.893563 C 7.3660906,34.147974 6.0003587,31.875216 7.5347408,31.893563 z M 15.220772,36.46026 C 15.334478,38.485621 13.660911,36.003323 15.220772,36.46026 z M 18.620024,37.687324 C 17.076053,38.115331 18.660562,40.201152 18.620024,37.687324 z M 16.919607,37.906256 C 16.405861,38.50515 14.145192,41.607868 15.197168,38.954454 C 15.686056,38.344364 16.29974,38.006424 16.919607,37.906256 z M 13.659598,37.88415 C 13.213538,39.977949 12.198125,37.54311 13.659598,37.88415 z"
       id="path1640" />
    <g
       transform="matrix(0.3338236,0,0,0.3338236,49.994994,-1.0367715)"
       id="g2682"
       style="fill:#000000;fill-opacity:1">
      <g
         transform="translate(10.64087,12.19088)"
         id="g2061"
         style="fill:#000000;fill-opacity:1">
        <path
           style="fill:#000000;fill-opacity:1;fill-rule:evenodd;stroke:none;stroke-width:0.62500000000000000;stroke-linecap:round;stroke-linejoin:round;stroke-miterlimit:4;stroke-dashoffset:0;stroke-opacity:1"
           id="rect2723"
           d="M 64.359126,2 C 44.287226,2 28.128259,18.158966 28.128259,38.230867 L 28.128259,78.487385 L 38.192389,78.487385 L 38.192389,38.230867 C 38.192389,23.734494 49.862754,12.06413 64.359126,12.06413 C 78.855498,12.06413 90.525863,23.734494 90.525863,38.230867 L 90.525863,78.487385 L 100.58999,78.487385 L 100.58999,38.230867 C 100.58999,18.158966 84.431026,2 64.359126,2 z" />
        <rect
           y="57.359127"
           x="21.557789"
           width="85.602676"
           style="fill:#000000;fill-opacity:1;fill-rule:evenodd;stroke:none;stroke-width:0.62500000000000000;stroke-linecap:round;stroke-linejoin:round;stroke-miterlimit:4;stroke-dashoffset:0;stroke-opacity:1"
           ry="0.5"
           rx="0.49999997"
           id="rect1941"
           height="66.259109" />
      </g>
    </g>
  </g>
</svg>
