<?xml version="1.0" encoding="UTF-8"?>
<!-- 2011-11-21 21:45:42 Generated by QCAD SVG Exporter -->
<svg width="271" height="139.724" viewBox="-0.5 -139.224 271 139.724" version="1.1" xmlns="http://www.w3.org/2000/svg" style="stroke-linecap:round;stroke-linejoin:round;fill:none">
    <g transform="scale(1,-1)">
        <!-- Radial Dimension -->
        <g>
            <path d="M263.587,98.1523 L255.869,91.5795 L254.156,94.4352 Z" style="stroke:#0000ff;stroke-width:0.35;fill:#0000ff;fill-rule:evenodd;"/>
            <path d="M239.768,98.4381 L235.957,96.1515 L238.244,92.3404 L240.149,93.4837 M243.198,92.7215 C242.566,93.7739 241.201,94.1152 240.149,93.4837 M243.198,92.7215 L243.77,91.7688 M243.007,88.7199 C244.06,89.3513 244.401,90.7163 243.77,91.7688 M243.007,88.7199 L241.102,87.5766 " style="stroke:#0000ff;stroke-width:0.35;"/>
            <path d="M225,75 L263.587,98.1523 " style="stroke:#0000ff;stroke-width:0.35;"/>
        </g>
        <!-- Text: 3. -->
        <path d="M45.6918,129.843 L47.1652,130.04 C47.3344,129.205 47.6223,128.603 48.0288,128.235 C48.4354,127.866 48.9306,127.682 49.5145,127.682 C50.2075,127.682 50.7928,127.922 51.2703,128.402 C51.7478,128.883 51.9865,129.477 51.9865,130.187 C51.9865,130.864 51.7655,131.422 51.3235,131.861 C50.8815,132.3 50.3194,132.52 49.6373,132.52 C49.359,132.52 49.0124,132.465 48.5977,132.356 L48.7614,133.649 C48.8596,133.638 48.9388,133.633 48.9988,133.633 C49.6264,133.633 50.1912,133.797 50.6932,134.124 C51.1952,134.452 51.4463,134.956 51.4463,135.638 C51.4463,136.179 51.2635,136.626 50.8978,136.981 C50.5322,137.336 50.0602,137.513 49.4817,137.513 C48.9088,137.513 48.4313,137.333 48.0493,136.973 C47.6673,136.613 47.4217,136.072 47.3126,135.352 L45.8392,135.614 C46.0193,136.602 46.4285,137.367 47.067,137.91 C47.7055,138.453 48.4995,138.724 49.449,138.724 C50.1038,138.724 50.7068,138.584 51.258,138.303 C51.8092,138.022 52.2307,137.638 52.5227,137.153 C52.8146,136.667 52.9606,136.151 52.9606,135.606 C52.9606,135.087 52.8214,134.615 52.5431,134.19 C52.2648,133.764 51.8528,133.426 51.3071,133.175 C52.0165,133.011 52.5677,132.671 52.9606,132.155 C53.3535,131.64 53.55,130.994 53.55,130.22 C53.55,129.172 53.168,128.284 52.404,127.555 C51.64,126.827 50.6741,126.462 49.5063,126.462 C48.4531,126.462 47.5786,126.776 46.8828,127.404 C46.1871,128.031 45.7901,128.844 45.6918,129.843 M55.8327,126.675 L55.8327,128.353 L57.5108,128.353 L57.5108,126.675 L55.8327,126.675 " style="fill:#000000;fill-rule:evenodd;"/>
        <!-- Text: 4. -->
        <path d="M101.794,47.1808 L101.794,50.054 L96.5879,50.054 L96.5879,51.4046 L102.064,59.1808 L103.267,59.1808 L103.267,51.4046 L104.888,51.4046 L104.888,50.054 L103.267,50.054 L103.267,47.1808 L101.794,47.1808 M101.794,51.4046 L101.794,56.8152 L98.0368,51.4046 L101.794,51.4046 M107.22,47.1808 L107.22,48.8589 L108.898,48.8589 L108.898,47.1808 L107.22,47.1808 " style="fill:#000000;fill-rule:evenodd;"/>
        <!-- Line -->
        <path d="M0,120 L90,120 " style="stroke:#000000;stroke-width:1;"/>
        <!-- Line -->
        <path d="M90,120 L90,0 " style="stroke:#000000;stroke-width:1;"/>
        <!-- Line -->
        <path d="M180,120 L225,120 " style="stroke:#000000;stroke-width:1;"/>
        <!-- Line -->
        <path d="M270,75 L270,0 " style="stroke:#000000;stroke-width:1;"/>
        <!-- Arc -->
        <path d="M270,75 A45,45 0 0,1 225,120 " style="stroke:#000000;stroke-width:1;"/>
    </g>
</svg>
