<?xml version="1.0" encoding="UTF-8"?>
<!-- 2016-05-25 09:58:35 Generated by QCAD SVG Exporter -->
<svg width="270" height="138.7243691049882" viewBox="0 -138.7243691049882 270 138.7243691049882" version="1.1" xmlns="http://www.w3.org/2000/svg" style="stroke-linecap:round;stroke-linejoin:round;fill:none">
    <g transform="scale(1,-1)">
        <!-- Radial Dimension -->
        <g>
            <path d="M263.5871816570645,98.1523089942387 L255.86895915783396,91.57950684347192 L254.15554564204413,94.43519603645494 Z" style="stroke:#0000ff;stroke-width:0.35;fill:#0000ff;fill-rule:evenodd;"/>
            <g>
                <path d="M239.76793372060493,98.43813996947623 L235.9568540507714,96.15149216757611 L238.24350185267153,92.34041249774258 L240.1490416875883,93.48373639869264 M243.1979054234551,92.72152046472593 C242.56646506887856,93.77392105568687 241.20144227854922,94.1151767532692 240.1490416875883,93.48373639869264 M243.1979054234551,92.72152046472593 L243.76956737393013,91.76875054726754 M243.00735143996343,88.71988681140073 C244.05975203092436,89.3513271659773 244.4010077285067,90.71634995630662 243.76956737393013,91.76875054726754 M243.00735143996343,88.71988681140073 L241.10181160504666,87.57656291045066" style="stroke:#0000ff;stroke-width:0.35;"/>
            </g>
            <path d="M225,75.00000000000003 L263.5871816570645,98.1523089942387 " style="stroke:#0000ff;stroke-width:0.35;"/>
        </g>
        <!-- Text: 3. -->
        <g>
            <path d="M45.6918351343138,129.84305941876718 L47.16523213294954,130.03951235191863 C47.33439993649661,129.20458738602503 47.62225805382267,128.60295027824878 48.02880648492771,128.23460102858985 C48.435354916032765,127.8662517789309 48.930580018351996,127.68207715410144 49.51448179188542,127.68207715410144 C50.207524083836304,127.68207715410144 50.792790113849954,127.92218629461985 51.27027988192635,128.40240457565667 C51.74776965000275,128.88262285669353 51.98651453404095,129.47743868206868 51.98651453404095,130.1868520517822 C51.98651453404095,130.86352326597046 51.76550498424558,131.42150416637975 51.323485884654865,131.86079475301003 C50.88146678506414,132.3000853396403 50.31939311521421,132.51973063295546 49.63726487510507,132.51973063295546 C49.35895655314054,132.51973063295546 49.01243540716509,132.46516037374673 48.597701437178735,132.35601985532927 L48.761412214804935,133.6493349985762 C48.859638681380645,133.63842094673444 48.93876555723331,133.63296392081358 48.99879284236291,133.63296392081358 C49.62635082326332,133.63296392081358 50.19115300607369,133.79667469843977 50.693199390794014,134.12409625369216 C51.195245775514344,134.45151780894454 51.44626896787451,134.9562927066253 51.44626896787451,135.63842094673444 C51.44626896787451,136.1786665129009 51.26345859952526,136.6261426384125 50.89783786282676,136.98084932326924 C50.53221712612826,137.335556008126 50.06018438397273,137.51290935055437 49.48173963636018,137.51290935055437 C48.90875191466851,137.51290935055437 48.431262146592104,137.33282749516556 48.04927033213099,136.97266378438792 C47.66727851766987,136.6125000736103 47.42171235123058,136.07225450744386 47.31257183281312,135.3519270858886 L45.83917483417737,135.6138643300905 C46.019256689566184,136.60158602176855 46.42853363363167,137.36693390717102 47.067005666373824,137.9099079862979 C47.70547769911598,138.45288206542477 48.49947497060302,138.7243691049882 49.44899748083495,138.7243691049882 C50.10384059133972,138.7243691049882 50.706841955596204,138.5838506875257 51.25800157360439,138.30281385260076 C51.809161191612574,138.0217770176758 52.23071644400002,137.63842094673444 52.52266733076673,137.15274563977675 C52.81461821753344,136.66707033281904 52.9605936609168,136.15138138329652 52.9605936609168,135.60567879120921 C52.9605936609168,135.08726132872627 52.821439499934534,134.61522858657074 52.543131177970004,134.18958056474264 C52.26482285600547,133.76393254291452 51.85281739897955,133.4255969358204 51.307114806892244,133.17457374346023 C52.016528176605746,133.01086296583404 52.56768779461393,132.6711631022597 52.9605936609168,132.15547415273718 C53.35349952721967,131.63978520321467 53.549952460371095,130.99449188807142 53.549952460371095,130.21959420730744 C53.549952460371095,129.1718452304998 53.16796064590998,128.2837142618777 52.40397701698774,127.55520130144113 C51.639993388065506,126.82668834100457 50.67409980007096,126.4624318607863 49.50629625300411,126.4624318607863 C48.4530902502756,126.4624318607863 47.57860184645568,126.7762108512365 46.88283104154436,127.4037688321369 C46.18706023663304,128.0313268130373 45.790061600889516,128.8444236752474 45.6918351343138,129.84305941876718 M55.83273554359074,126.67525587170034 L55.83273554359074,128.35329134236883 L57.51077101425923,128.35329134236883 L57.51077101425923,126.67525587170034 Z" style="fill:#000000;fill-rule:evenodd;"/>
        </g>
        <!-- Text: 4. -->
        <g>
            <path d="M101.79395139912975,47.18082759930273 L101.79395139912975,50.053951746642426 L96.5879486706168,50.053951746642426 L96.5879486706168,51.40456566205853 L102.06407418221298,59.18082759930273 L103.2673483977655,59.18082759930273 L103.2673483977655,51.40456566205853 L104.88808509626482,51.40456566205853 L104.88808509626482,50.053951746642426 L103.2673483977655,50.053951746642426 L103.2673483977655,47.18082759930273 Z M101.79395139912975,51.40456566205853 L101.79395139912975,56.81520686260423 L98.03678905260861,51.40456566205853 Z M107.21998141277233,47.18082759930273 L107.21998141277233,48.858863069971214 L108.8980168834408,48.858863069971214 L108.8980168834408,47.18082759930273 Z" style="fill:#000000;fill-rule:evenodd;"/>
        </g>
        <!-- Line -->
        <path d="M0,120 L90,120 " style="stroke:#000000;stroke-width:1;"/>
        <!-- Line -->
        <path d="M90,120 L90,0 " style="stroke:#000000;stroke-width:1;"/>
        <!-- Line -->
        <path d="M180,120 L225,120 " style="stroke:#000000;stroke-width:1;"/>
        <!-- Line -->
        <path d="M270,75 L270,0 " style="stroke:#000000;stroke-width:1;"/>
        <!-- Arc -->
        <path d="M270,75 A45,45 0 0,1 225,120 " style="stroke:#000000;stroke-width:1;"/>
    </g>
</svg>
