<svg width="271" fill="none" xmlns="http://www.w3.org/2000/svg" height="139.724" viewBox="-0.5 -139.224 271 139.724" stroke-linejoin="round" stroke-linecap="round">
<g stroke="#00f" stroke-width=".35" transform="scale(1 -1)">
<path fill="#00f" fill-rule="evenodd" d="m263.587,98.1523l-7.718-6.5728-1.713,2.8557Z"/>
<path d="m239.768,98.4381l-3.811-2.2866 2.287-3.8111 1.905,1.1433m3.049-.7622c-.632,1.0524-1.997,1.3937-3.049,.7622m3.049-.7622l.572-.9527m-.763-3.0489c1.053,.6314 1.394,1.9964 .763,3.0489m-.763-3.0489l-1.905-1.1433"/>
<path d="m225,75l38.587,23.1523"/>
</g>
<g transform="scale(1 -1)">
<g fill="#000" fill-rule="evenodd">
<path d="m45.6918,129.843l1.4734,.197c.1692-.835 .4571-1.437 .8636-1.805 .4066-.369 .9018-.553 1.4857-.553 .693,0 1.2783,.24 1.7558,.72 .4775,.481 .7162,1.075 .7162,1.785 0,.677-.221,1.235-.663,1.674-.442,.439-1.0041,.659-1.6862,.659-.2783,0-.6249-.055-1.0396-.164l.1637,1.293c.0982-.011 .1774-.016 .2374-.016 .6276,0 1.1924,.164 1.6944,.491 .502,.328 .7531,.832 .7531,1.514 0,.541-.1828,.988-.5485,1.343-.3656,.355-.8376,.532-1.4161,.532-.5729,0-1.0504-.18-1.4324-.54-.382-.36-.6276-.901-.7367-1.621l-1.4734,.262c.1801,.988 .5893,1.753 1.2278,2.296 .6385,.543 1.4325,.814 2.382,.814 .6548,0 1.2578-.14 1.809-.421 .5512-.281 .9727-.665 1.2647-1.15 .2919-.486 .4379-1.002 .4379-1.547 0-.519-.1392-.991-.4175-1.416-.2783-.426-.6903-.764-1.236-1.015 .7094-.164 1.2606-.504 1.6535-1.02 .3929-.515 .5894-1.161 .5894-1.935 0-1.048-.382-1.936-1.146-2.665-.764-.728-1.7299-1.093-2.8977-1.093-1.0532,0-1.9277,.314-2.6235,.942-.6957,.627-1.0927,1.44-1.191,2.439m10.1409-3.168v1.678h1.6781v-1.678h-1.6781"/>
<path d="m101.794,47.1808v2.8732h-5.2061v1.3506l5.4761,7.7762h1.203v-7.7762h1.621v-1.3506h-1.621v-2.8732h-1.473m0,4.2238v5.4106l-3.7572-5.4106h3.7572m5.426-4.2238v1.6781h1.678v-1.6781h-1.678"/>
</g>
<g stroke="#000">
<path d="m0,120h90"/>
<path d="m90,120v-120"/>
<path d="m180,120h45"/>
<path d="m270,75v-75"/>
<path d="M270,75 A45,45 0 0,1 225,120 "/>
</g>
</g>
</svg>
