<svg xmlns="http://www.w3.org/2000/svg" height="139.72" viewBox="-0.5 -139.224 271 139.724" style="fill:none;stroke-linecap:round;stroke-linejoin:round"><g transform="scale(1-1)"><g style="stroke:#00ccff;stroke-width:.35"><path d="m263.59 98.15l-7.718-6.573-1.713 2.856" style="fill:#00ccff;fill-rule:evenodd"/><path d="m239.77 98.44l-3.811-2.287 2.287-3.811 1.905 1.143m3.049-.762c-.632 1.052-1.997 1.394-3.049.762m3.049-.762l.572-.953m-.763-3.049c1.053.631 1.394 1.996.763 3.049m-.763-3.049l-1.905-1.143"/><path d="m225 75l38.587 23.15"/></g><g style="fill:#000;fill-rule:evenodd"><path d="m45.692 129.84l1.473.197c.169-.835.457-1.437.864-1.805.407-.369.902-.553 1.486-.553.693 0 1.278.24 1.756.72.477.481.716 1.075.716 1.785 0 .677-.221 1.235-.663 1.674-.442.439-1 .659-1.686.659-.278 0-.625-.055-1.04-.164l.164 1.293c.098-.011.177-.016.237-.016.628 0 1.192.164 1.694.491.502.328.753.832.753 1.514 0 .541-.183.988-.548 1.343-.366.355-.838.532-1.416.532-.573 0-1.05-.18-1.432-.54-.382-.36-.628-.901-.737-1.621l-1.473.262c.18.988.589 1.753 1.228 2.296.639.543 1.432.814 2.382.814.655 0 1.258-.14 1.809-.421.551-.281.973-.665 1.265-1.15.292-.486.438-1 .438-1.547 0-.519-.139-.991-.417-1.416-.278-.426-.69-.764-1.236-1.015.709-.164 1.261-.504 1.654-1.02.393-.515.589-1.161.589-1.935 0-1.048-.382-1.936-1.146-2.665-.764-.728-1.73-1.093-2.898-1.093-1.053 0-1.928.314-2.624.942-.696.627-1.093 1.44-1.191 2.439m10.141-3.168v1.678h1.678v-1.678h-1.678"/><path d="m101.79 47.18v2.873h-5.206v1.351l5.476 7.776h1.203v-7.776h1.621v-1.351h-1.621v-2.873h-1.473m0 4.224v5.411l-3.757-5.411h3.757m5.426-4.224v1.678h1.678v-1.678h-1.678"/></g><g style="stroke:#fff"><path d="m0 120h90"/><path d="m90 120v-120"/><path d="m180 120h45"/><path d="m270 75v-75"/><path d="M270 75A45 45 0 0 1 225 120"/></g></g></svg>
