<svg width="279.44" xmlns="http://www.w3.org/2000/svg" height="218.59" viewBox="59.65 -243.235 279.445 218.585" style="fill:none;stroke-linecap:round;stroke-linejoin:round"><g transform="scale(1-1)"><g style="stroke:#000;stroke-width:.7"><path d="m60 60v30"/><path d="m60 90l6 6"/><path d="m60 210h210"/><path d="m270 180h-210"/><path d="m60 180v30"/><path d="m60 210l6 6"/><path d="m66 216h198"/><path d="m270 210v-30"/><path d="m264 216l6-6"/></g><g style="fill:#00f;stroke:#00f;fill-rule:evenodd;stroke-width:.18"><path d="m60 150l10 1.665v-3.33"/><path d="m270 150l-10-1.665v3.33"/></g><g style="stroke:#00f;stroke-width:.18"><path d="m160.56 152.5h-4.445l4.295 7.386m-.001-.002c.096.165.151.356.151.559 0 .138-.025.269-.071.39v.001c-.247.958-1.117 1.666-2.152 1.666-1.035 0-1.904-.708-2.151-1.665"/><path d="m163.89 160.28l2.222 2.222v-10"/><path d="m172.69 161.94c-.215.335-.591.556-1.018.556-.427 0-.803-.221-1.018-.555m.001.003h-.001c-.482-.645-.823-1.402-.975-2.223m.001-4.447l-.001-.001c.152-.824.493-1.581.975-2.225m0 .003c.215-.334.591-.555 1.018-.555.427 0 .802.221 1.018.555m-.002-.003c.483.645.824 1.402.975 2.223m-.001 0l.001-.005c.151.71.231 1.443.231 2.196 0 .011 0 .023 0 .034m0-.002c0 .012 0 .024 0 .036 0 .753-.08 1.487-.23 2.191m-.001-.002l.001.001c-.153.823-.492 1.578-.974 2.222m-3.24-4.444c-.001-.012-.001-.024-.001-.036 0-.754.08-1.488.231-2.193m.002 4.452l-.001.005c-.152-.71-.232-1.443-.232-2.196 0-.012 0-.024.001-.036"/></g><circle cx="252" cy="195" r="9" style="stroke:#000;stroke-width:.7"/><g style="stroke:#f00;stroke-width:.18"><path d="m252 207v-24"/><path d="m240 195h24"/></g><g style="stroke-width:.18"><g style="stroke:#00f"><g style="fill:#00f;fill-rule:evenodd"><path d="m270 162l10 1.665v-3.33"/><path d="m252 162l-10-1.665v3.33"/></g><path d="m256 172.28l2.222 2.222v-10"/><path d="m261.56 167.83v-1.111c0-1.227.994-2.222 2.222-2.222 1.227 0 2.222.995 2.222 2.222v1.111c0 1.228-.995 2.223-2.222 2.223-1.228 0-2.222-.995-2.222-2.223m.277 4.723v-.556c0-1.074.871-1.944 1.945-1.944 1.074 0 1.944.87 1.944 1.944v.556c0 1.073-.87 1.944-1.944 1.944-1.074 0-1.945-.871-1.945-1.944"/></g><g style="stroke:#f00"><path d="m219.45 230.25h67.924"/><path d="m287.37 230.25v-94.57"/><path d="m287.37 135.68h-67.924"/><path d="m219.45 135.68v94.57"/></g></g><g style="stroke:#000;stroke-width:.7"><path d="m60 90h240"/><path d="m300 60h-240"/><path d="m66 96h228"/><path d="m300 90v-30"/><path d="m294 96l6-6"/></g><g style="stroke:#00f;stroke-width:.18"><g style="fill:#00f;fill-rule:evenodd"><path d="m60 30l10 1.665v-3.33"/><path d="m300 30l-10-1.665v3.33"/></g><path d="m173.89 32.5h-4.445l4.295 7.386m-.001-.001c.096.164.151.355.151.559 0 .137-.025.269-.07.39m-.001 0h.001c-.248.959-1.117 1.666-2.152 1.666-1.035 0-1.905-.708-2.152-1.665"/><path d="m181.11 32.5v4.444m1.667-2.222h-5.556l2.222 7.778"/><path d="m189.35 41.944c-.216.335-.591.556-1.019.556-.427 0-.802-.221-1.018-.555m.001.003c-.483-.644-.823-1.401-.975-2.223m.001-4.447h-.001c.152-.824.493-1.581.975-2.225m-.001.003c.216-.334.591-.555 1.018-.555.427 0 .803.221 1.018.555m-.001-.003c.483.644.824 1.401.975 2.223m-.002 0l.001-.005c.152.71.232 1.444.232 2.196 0 .011 0 .023 0 .034m-.001-.002c.001.012.001.024.001.036 0 .753-.08 1.486-.23 2.191m-.002-.002h.001c-.152.823-.492 1.578-.973 2.222m-3.241-4.444c0-.012 0-.024 0-.036 0-.753.08-1.488.231-2.193m.001 4.452l-.001.005c-.151-.71-.231-1.444-.231-2.196 0-.012 0-.024 0-.036"/></g><circle cx="282" cy="75" r="9" style="stroke:#000;stroke-width:.7"/><g style="stroke:#f00;stroke-width:.18"><path d="m282 87v-24"/><path d="m270 75h24"/></g><g style="stroke-width:.18"><g style="stroke:#00f"><g style="fill:#00f;fill-rule:evenodd"><path d="m300 42l10 1.665v-3.33"/><path d="m282 42l-10-1.665v3.33"/></g><path d="m286 52.28l2.222 2.222v-10"/><path d="m291.56 47.833v-1.111c0-1.227.994-2.222 2.222-2.222 1.227 0 2.222.995 2.222 2.222v1.111c0 1.227-.995 2.222-2.222 2.222-1.228 0-2.222-.995-2.222-2.222m.277 4.722v-.556c0-1.074.871-1.944 1.945-1.944 1.074 0 1.944.87 1.944 1.944v.556c0 1.074-.87 1.944-1.944 1.944-1.074 0-1.945-.871-1.945-1.944"/></g><g style="stroke:#f00"><path d="m330 180l-10-1.665v3.33" style="fill:#f00;fill-rule:evenodd"/><path d="m330 180h-30"/></g></g><g style="fill:#000;fill-rule:evenodd"><path d="m221.51 232.84h-1.228v7.824c-.296-.282-.683-.564-1.163-.845-.48-.282-.911-.494-1.293-.635v1.187c.687.323 1.287.714 1.801 1.173.514.46.878.905 1.091 1.337h.792v-10.04m3.832 0v1.399h1.399v-1.399h-1.399"/><path d="m298.21 124.06v-1.18h-6.609c-.009.295.038.58.143.853.168.45.438.893.808 1.33.371.436.906.941 1.607 1.514 1.086.891 1.821 1.597 2.203 2.118.382.521.573 1.013.573 1.477 0 .486-.174.897-.522 1.231-.348.334-.801.501-1.361.501-.591 0-1.064-.177-1.419-.532-.354-.354-.534-.846-.538-1.473l-1.262.13c.086.941.411 1.658.975 2.152.564.493 1.321.74 2.272.74.959 0 1.718-.266 2.278-.798.559-.532.839-1.192.839-1.978 0-.401-.082-.794-.246-1.181-.163-.386-.435-.793-.815-1.221-.38-.427-1.01-1.014-1.893-1.759-.736-.619-1.209-1.038-1.419-1.259-.209-.221-.382-.442-.518-.665h4.904m2-1.18v1.398h1.398v-1.398h-1.398"/><path d="m298.56 185.38l1.228.164c.141-.696.381-1.197.719-1.504.339-.307.752-.461 1.239-.461.577 0 1.065.2 1.463.601.398.4.597.895.597 1.487 0 .563-.185 1.028-.553 1.395-.368.366-.837.549-1.405.549-.232 0-.521-.046-.866-.137l.136 1.078c.082-.009.148-.014.198-.014.523 0 .993.137 1.412.41.418.272.627.693.627 1.262 0 .45-.152.823-.457 1.118-.304.296-.698.444-1.18.444-.477 0-.875-.15-1.193-.451-.319-.3-.523-.75-.614-1.35l-1.228.218c.15.823.491 1.461 1.023 1.913.532.453 1.194.679 1.985.679.546 0 1.048-.117 1.507-.351.46-.234.811-.554 1.054-.959.244-.404.365-.834.365-1.289 0-.432-.116-.825-.348-1.18-.231-.355-.575-.636-1.03-.846.592-.136 1.051-.419 1.378-.849.328-.43.491-.967.491-1.613 0-.873-.318-1.613-.955-2.22-.636-.608-1.441-.911-2.414-.911-.878 0-1.607.261-2.186.784-.58.523-.911 1.201-.993 2.033m8.451-2.64v1.399h1.398v-1.399h-1.398"/><path d="m332.82 182.78v2.394h-4.338v1.126l4.563 6.48h1v-6.48h1.35v-1.126h-1.35v-2.394h-1.228m0 3.52v4.509l-3.131-4.509h3.131m4.522-3.52v1.399h1.398v-1.399h-1.398"/></g></g></svg>