<?xml version="1.0" encoding="UTF-8"?>
<!-- 2016-05-25 09:59:07 Generated by QCAD SVG Exporter -->
<svg width="100mm" height="23.094010767585036mm" viewBox="10 -31.54700538379252 100 23.094010767585036" version="1.1" xmlns="http://www.w3.org/2000/svg" style="stroke-linecap:round;stroke-linejoin:round;fill:none">
    <g transform="scale(1,-1)">
        <!-- Line -->
        <path d="M10,14.22649730810374 L30,14.22649730810374 " style="stroke:#000000;stroke-width:0.5;"/>
        <!-- Line -->
        <path d="M30,14.22649730810374 L20,31.54700538379252 " style="stroke:#000000;stroke-width:0.5;"/>
        <!-- Line -->
        <path d="M20,31.54700538379252 L10,14.22649730810374 " style="stroke:#000000;stroke-width:0.5;"/>
        <!-- Arc -->
        <path d="M14.999999999999996,22.886751345948134 A10,10 0 0,1 25,22.886751345948134 " style="stroke:#000000;stroke-width:0.5;"/>
        <!-- Line -->
        <path d="M31.83503419072274,11.83503419072274 L51.1535507165041,17.01141509277315 " style="stroke:#000000;stroke-width:0.5;"/>
        <!-- Line -->
        <path d="M51.1535507165041,17.01141509277315 L37.01141509277316,31.15355071650411 " style="stroke:#000000;stroke-width:0.5;"/>
        <!-- Line -->
        <path d="M37.01141509277316,31.15355071650411 L31.83503419072274,11.83503419072274 " style="stroke:#000000;stroke-width:0.5;"/>
        <!-- Arc -->
        <path d="M34.42322464174796,21.494292453613426 A10,10 0 0,1 44.0824829046386,24.082482904638603 " style="stroke:#000000;stroke-width:0.5;"/>
        <!-- Line -->
        <path d="M54.22649730810374,10 L71.54700538379251,20 " style="stroke:#000000;stroke-width:0.5;"/>
        <!-- Line -->
        <path d="M71.54700538379251,20 L54.22649730810375,30 " style="stroke:#000000;stroke-width:0.5;"/>
        <!-- Line -->
        <path d="M54.22649730810375,30 L54.22649730810374,10 " style="stroke:#000000;stroke-width:0.5;"/>
        <!-- Arc -->
        <path d="M54.22649730810375,20 A10,10 0 0,1 62.886751345948134,24.999999999999996 " style="stroke:#000000;stroke-width:0.5;"/>
        <!-- Line -->
        <path d="M77.01141509277316,8.846449283495893 L91.15355071650411,22.98858490722684 " style="stroke:#000000;stroke-width:0.5;"/>
        <!-- Line -->
        <path d="M91.15355071650411,22.98858490722684 L71.83503419072274,28.16496580927726 " style="stroke:#000000;stroke-width:0.5;"/>
        <!-- Line -->
        <path d="M71.83503419072274,28.16496580927726 L77.01141509277316,8.846449283495893 " style="stroke:#000000;stroke-width:0.5;"/>
        <!-- Arc -->
        <path d="M74.42322464174795,18.505707546386578 A10,10 0 0,1 81.49429245361343,25.576775358252053 " style="stroke:#000000;stroke-width:0.5;"/>
        <!-- Line -->
        <path d="M100,8.452994616207484 L110,25.77350269189625 " style="stroke:#000000;stroke-width:0.5;"/>
        <!-- Line -->
        <path d="M110,25.77350269189625 L90,25.77350269189626 " style="stroke:#000000;stroke-width:0.5;"/>
        <!-- Line -->
        <path d="M90,25.77350269189626 L100,8.452994616207484 " style="stroke:#000000;stroke-width:0.5;"/>
        <!-- Arc -->
        <path d="M95,17.113248654051876 A10,10 0 0,1 100,25.77350269189626 " style="stroke:#000000;stroke-width:0.5;"/>
        <!-- Text: 4. -->
        <g>
            <path d="M21.432675715492095,17.54630852723049 L21.432675715492095,18.025162551787105 L20.56500859407327,18.025162551787105 L20.56500859407327,18.250264871023123 L21.4776961793393,19.54630852723049 L21.67824188193139,19.54630852723049 L21.67824188193139,18.250264871023123 L21.948364665014605,18.250264871023123 L21.948364665014605,18.025162551787105 L21.67824188193139,18.025162551787105 L21.67824188193139,17.54630852723049 Z M21.432675715492095,18.250264871023123 L21.432675715492095,19.152038404447406 L20.806481991071905,18.250264871023123 Z M22.33701405109919,17.54630852723049 L22.33701405109919,17.825981105675236 L22.61668662954394,17.825981105675236 L22.61668662954394,17.54630852723049 Z" style="fill:#000000;fill-rule:evenodd;"/>
        </g>
        <!-- Text: 5. -->
        <g>
            <path d="M40.63941629266533,18.03508789728012 L40.89726076742659,18.056916000963614 C40.91636035814964,17.93140440478353 40.96069869375673,17.837043331568434 41.03027577424787,17.77383278131832 C41.099852854739,17.710622231068207 41.183754628272425,17.67901695594315 41.28198109484814,17.67901695594315 C41.40021665646706,17.67901695594315 41.500262131683066,17.723582667630282 41.58211752049616,17.81271409100454 C41.66397290930926,17.901845514378802 41.70490060371581,18.02008107599772 41.70490060371581,18.167420775861295 C41.70490060371581,18.307484441163705 41.665564541869514,18.417989216061386 41.58689241817693,18.498935100554338 C41.50822029448434,18.57988098504729 41.40521893022786,18.620353927293763 41.27788832540749,18.620353927293763 C41.19876144955482,18.620353927293763 41.127365360423404,18.60239121697089 41.06370005801322,18.56646579632514 C41.00003475560303,18.530540375679394 40.95001201799503,18.483928279271936 40.91363184518921,18.426629507102767 L40.68307250003232,18.45664314966757 L40.87679692022331,19.483928279271936 L41.87133989430244,19.483928279271936 L41.87133989430244,19.24927616467439 L41.07324985337475,19.24927616467439 L40.9654735914375,18.71175911146839 C41.08552816169671,18.795433508921775 41.211494510036864,18.83727070764847 41.343372636457964,18.83727070764847 C41.5179974659259,18.83727070764847 41.66533716578948,18.776788670358794 41.78539173604869,18.65582459577944 C41.905446306307894,18.534860521200084 41.9654735914375,18.3793352824552 41.9654735914375,18.189248879544788 C41.9654735914375,18.00825751983583 41.91272234086906,17.8518227767708 41.80721983973218,17.7199446503497 C41.678979730591664,17.558052881363796 41.50390014896365,17.477106996870845 41.28198109484814,17.477106996870845 C41.10008023081904,17.477106996870845 40.95160365055528,17.528039238798993 40.83655135405687,17.629903722655293 C40.72149905755846,17.73176820651159 40.65578737042795,17.8668295980532 40.63941629266533,18.03508789728012 M42.330930617358376,17.5112134088763 L42.330930617358376,17.790885987321047 L42.61060319580312,17.790885987321047 L42.61060319580312,17.5112134088763 Z" style="fill:#000000;fill-rule:evenodd;"/>
        </g>
        <!-- Line -->
        <path d="M20,20.3 L20,19.7 " style="stroke:#ff0000;stroke-width:0.13;"/>
        <!-- Line -->
        <path d="M19.7,20 L20.3,20 " style="stroke:#ff0000;stroke-width:0.13;"/>
        <!-- Line -->
        <path d="M40,20.3 L40,19.7 " style="stroke:#ff0000;stroke-width:0.13;"/>
        <!-- Line -->
        <path d="M39.7,20 L40.3,20 " style="stroke:#ff0000;stroke-width:0.13;"/>
        <!-- Line -->
        <path d="M60,20.3 L60,19.7 " style="stroke:#ff0000;stroke-width:0.13;"/>
        <!-- Line -->
        <path d="M59.7,20 L60.3,20 " style="stroke:#ff0000;stroke-width:0.13;"/>
        <!-- Line -->
        <path d="M80,20.3 L80,19.7 " style="stroke:#ff0000;stroke-width:0.13;"/>
        <!-- Line -->
        <path d="M79.7,20 L80.3,20 " style="stroke:#ff0000;stroke-width:0.13;"/>
        <!-- Line -->
        <path d="M100,20.3 L100,19.7 " style="stroke:#ff0000;stroke-width:0.13;"/>
        <!-- Line -->
        <path d="M99.7,20 L100.3,20 " style="stroke:#ff0000;stroke-width:0.13;"/>
    </g>
</svg>
