<svg width="356.1" xmlns="http://www.w3.org/2000/svg" height="83.6" viewBox="9.75 -31.797 100.5 23.594" style="fill:none;stroke-linecap:round;stroke-linejoin:round"><g transform="scale(1-1)"><g style="stroke:#000;stroke-width:.5"><path d="m10 14.227h20"/><path d="m30 14.227l-10 17.32"/><path d="m20 31.547l-10-17.321"/><path d="M15 22.8868A10 10 0 0 1 25 22.8868"/><path d="m31.835 11.835l19.319 5.176"/><path d="m51.15 17.01l-14.14 14.14"/><path d="m37.01 31.15l-5.176-19.319"/><path d="M34.4232 21.4943A10 10 0 0 1 44.0825 24.0825"/><path d="m54.23 10l17.32 10"/><path d="m71.55 20l-17.32 10"/><path d="m54.23 30v-20"/><path d="M54.2265 20A10 10 0 0 1 62.8868 25"/><path d="m77.01 8.846l14.14 14.14"/><path d="m91.15 22.989l-19.319 5.176"/><path d="m71.835 28.16l5.176-19.319"/><path d="M74.4232 18.5057A10 10 0 0 1 81.4943 25.5768"/><path d="m100 8.453l10 17.321"/><path d="m110 25.774h-20"/><path d="m90 25.774l10-17.321"/><path d="M95 17.1132A10 10 0 0 1 100 25.7735"/></g><g line-height="1.1" style="font-size:2.8;font-family:Arial;fill:#000"><text x="20.565" y="-19.546" dx="0" dy="2" transform="matrix(.94237-.33457.33457.94237 13.866 121.63)">4.</text><text x="40.639" y="-19.511" dx="0" dy="2" transform="matrix(.94258-.33399.33399.94258 7.099 122.57)">5.</text></g><g style="stroke:#f00;stroke-width:.13"><path d="m20 20.3v-.6"/><path d="m19.7 20h.6"/><path d="m40 20.3v-.6"/><path d="m39.7 20h.6"/><path d="m60 20.3v-.6"/><path d="m59.7 20h.6"/><path d="m80 20.3v-.6"/><path d="m79.7 20h.6"/><path d="m100 20.3v-.6"/><path d="m99.7 20h.6"/></g></g></svg>