<?xml version="1.0" encoding="UTF-8"?>
<!-- 2012-03-02 13:11:10 Generated by QCAD SVG Exporter PG -->
<svg width="100.5mm" height="23.594mm" viewBox="9.75 -31.797 100.5 23.594" version="1.1" xmlns="http://www.w3.org/2000/svg" style="stroke-linecap:round;stroke-linejoin:round;fill:none" xmlns:sodipodi="http://sodipodi.sourceforge.net/DTD/sodipodi-0.dtd" xmlns:inkscape="http://www.inkscape.org/namespaces/inkscape">
    <sodipodi:namedview inkscape:document-units="mm" unitToSymbol="mm" units="mm"/>
    <g transform="scale(1,-1)">
        <!-- Line -->
        <line x1="10" y1="14.22649730810374" x2="30" y2="14.22649730810374" style="stroke:#000000;stroke-width:0.5;"/>
        <!-- Line -->
        <line x1="30" y1="14.22649730810374" x2="20" y2="31.54700538379252" style="stroke:#000000;stroke-width:0.5;"/>
        <!-- Line -->
        <line x1="20" y1="31.54700538379252" x2="10" y2="14.22649730810374" style="stroke:#000000;stroke-width:0.5;"/>
        <!-- Arc -->
        <path d="M15,22.8868 A10,10 0 0,1 25,22.8868" style="stroke:#000000;stroke-width:0.5;"/>
        <!-- Line -->
        <line x1="31.83503419072274" y1="11.83503419072274" x2="51.1535507165041" y2="17.01141509277315" style="stroke:#000000;stroke-width:0.5;"/>
        <!-- Line -->
        <line x1="51.1535507165041" y1="17.01141509277315" x2="37.01141509277316" y2="31.15355071650411" style="stroke:#000000;stroke-width:0.5;"/>
        <!-- Line -->
        <line x1="37.01141509277316" y1="31.15355071650411" x2="31.83503419072274" y2="11.83503419072274" style="stroke:#000000;stroke-width:0.5;"/>
        <!-- Arc -->
        <path d="M34.4232,21.4943 A10,10 0 0,1 44.0825,24.0825" style="stroke:#000000;stroke-width:0.5;"/>
        <!-- Line -->
        <line x1="54.22649730810374" y1="10" x2="71.54700538379251" y2="20" style="stroke:#000000;stroke-width:0.5;"/>
        <!-- Line -->
        <line x1="71.54700538379251" y1="20" x2="54.22649730810375" y2="30" style="stroke:#000000;stroke-width:0.5;"/>
        <!-- Line -->
        <line x1="54.22649730810375" y1="30" x2="54.22649730810374" y2="10" style="stroke:#000000;stroke-width:0.5;"/>
        <!-- Arc -->
        <path d="M54.2265,20 A10,10 0 0,1 62.8868,25" style="stroke:#000000;stroke-width:0.5;"/>
        <!-- Line -->
        <line x1="77.01141509277316" y1="8.846449283495893" x2="91.15355071650411" y2="22.98858490722684" style="stroke:#000000;stroke-width:0.5;"/>
        <!-- Line -->
        <line x1="91.15355071650411" y1="22.98858490722684" x2="71.83503419072274" y2="28.16496580927726" style="stroke:#000000;stroke-width:0.5;"/>
        <!-- Line -->
        <line x1="71.83503419072274" y1="28.16496580927726" x2="77.01141509277316" y2="8.846449283495893" style="stroke:#000000;stroke-width:0.5;"/>
        <!-- Arc -->
        <path d="M74.4232,18.5057 A10,10 0 0,1 81.4943,25.5768" style="stroke:#000000;stroke-width:0.5;"/>
        <!-- Line -->
        <line x1="100" y1="8.452994616207484" x2="110" y2="25.77350269189625" style="stroke:#000000;stroke-width:0.5;"/>
        <!-- Line -->
        <line x1="110" y1="25.77350269189625" x2="90" y2="25.77350269189626" style="stroke:#000000;stroke-width:0.5;"/>
        <!-- Line -->
        <line x1="90" y1="25.77350269189626" x2="100" y2="8.452994616207484" style="stroke:#000000;stroke-width:0.5;"/>
        <!-- Arc -->
        <path d="M95,17.1132 A10,10 0 0,1 100,25.7735" style="stroke:#000000;stroke-width:0.5;"/>
        <!-- Text: 4. -->
        <text x="20.565008594073273" dx="0" y="-19.546308527230487" dy="2" font-family="Arial" font-size="2.8" line-height="1.1" fill="#000000" transform="scale(1,-1) rotate(360 20.565008594073273,-19.546308527230487)" text-anchor="start">4.</text>
        <!-- Text: 5. -->
        <text x="40.63941629266533" dx="0" y="-19.5112134088763" dy="2" font-family="Arial" font-size="2.8" line-height="1.1" fill="#000000" transform="scale(1,-1) rotate(360 40.63941629266533,-19.5112134088763)" text-anchor="start">5.</text>
        <!-- Line -->
        <line x1="20" y1="20.3" x2="20" y2="19.7" style="stroke:#ff0000;stroke-width:0.13;"/>
        <!-- Line -->
        <line x1="19.7" y1="20" x2="20.3" y2="20" style="stroke:#ff0000;stroke-width:0.13;"/>
        <!-- Line -->
        <line x1="40" y1="20.3" x2="40" y2="19.7" style="stroke:#ff0000;stroke-width:0.13;"/>
        <!-- Line -->
        <line x1="39.7" y1="20" x2="40.3" y2="20" style="stroke:#ff0000;stroke-width:0.13;"/>
        <!-- Line -->
        <line x1="60" y1="20.3" x2="60" y2="19.7" style="stroke:#ff0000;stroke-width:0.13;"/>
        <!-- Line -->
        <line x1="59.7" y1="20" x2="60.3" y2="20" style="stroke:#ff0000;stroke-width:0.13;"/>
        <!-- Line -->
        <line x1="80" y1="20.3" x2="80" y2="19.7" style="stroke:#ff0000;stroke-width:0.13;"/>
        <!-- Line -->
        <line x1="79.7" y1="20" x2="80.3" y2="20" style="stroke:#ff0000;stroke-width:0.13;"/>
        <!-- Line -->
        <line x1="100" y1="20.3" x2="100" y2="19.7" style="stroke:#ff0000;stroke-width:0.13;"/>
        <!-- Line -->
        <line x1="99.7" y1="20" x2="100.3" y2="20" style="stroke:#ff0000;stroke-width:0.13;"/>
    </g>
</svg>
