<svg width="356.1024" fill="none" xmlns="http://www.w3.org/2000/svg" height="83.6008" viewBox="9.75 -31.797 100.5 23.594" stroke-linejoin="round" stroke-linecap="round">
<g transform="scale(1 -1)">
<g stroke="#000" stroke-width=".5">
<path d="m10,14.2265 20,0"/>
<path d="m30,14.2265-10,17.3205"/>
<path d="m20,31.547-10-17.3205"/>
<path d="M15,22.8868 A10,10 0 0,1 25,22.8868"/>
<path d="m31.835,11.835 19.3185,5.1764"/>
<path d="m51.1536,17.0114-14.1421,14.1421"/>
<path d="m37.0114,31.1536-5.1764-19.3185"/>
<path d="M34.4232,21.4943 A10,10 0 0,1 44.0825,24.0825"/>
<path d="m54.2265,10 17.3205,10"/>
<path d="m71.547,20-17.3205,10"/>
<path d="m54.2265,30-0-20"/>
<path d="M54.2265,20 A10,10 0 0,1 62.8868,25"/>
<path d="m77.0114,8.8464 14.1421,14.1421"/>
<path d="m91.1536,22.9886-19.3185,5.1764"/>
<path d="m71.835,28.165 5.1764-19.3185"/>
<path d="M74.4232,18.5057 A10,10 0 0,1 81.4943,25.5768"/>
<path d="m100,8.453 10,17.3205"/>
<path d="m110,25.7735-20,0"/>
<path d="m90,25.7735 10-17.3205"/>
<path d="M95,17.1132 A10,10 0 0,1 100,25.7735"/>
</g>
<g font-family="Arial" fill="#000" font-size="2.8">
<text x="20.565" y="-19.546" dx="0" dy="2" line-height="1.1" transform="matrix(.94237 -.33457 .33457 .94237 13.86588 121.62979)">4.</text>
<text x="40.639" y="-19.511" dx="0" dy="2" line-height="1.1" transform="matrix(.94258 -.33399 .33399 .94258 7.09936 122.57047)">5.</text>
</g>
<g stroke="#f00" stroke-width=".13">
<path d="m20,20.3 0-.6"/>
<path d="m19.7,20 .6,0"/>
<path d="m40,20.3 0-.6"/>
<path d="m39.7,20 .6,0"/>
<path d="m60,20.3 0-.6"/>
<path d="m59.7,20 .6,0"/>
<path d="m80,20.3 0-.6"/>
<path d="m79.7,20 .6,0"/>
<path d="m100,20.3 0-.6"/>
<path d="m99.7,20 .6,0"/>
</g>
</g>
</svg>
