<?xml version="1.0" encoding="UTF-8" standalone="no"?>
<!-- 2019-08-30 11:23:15 Generated by QCAD 3.23.0 SVG Exporter -->

<svg
   xmlns:dc="http://purl.org/dc/elements/1.1/"
   xmlns:cc="http://creativecommons.org/ns#"
   xmlns:rdf="http://www.w3.org/1999/02/22-rdf-syntax-ns#"
   xmlns:svg="http://www.w3.org/2000/svg"
   xmlns="http://www.w3.org/2000/svg"
   xmlns:sodipodi="http://sodipodi.sourceforge.net/DTD/sodipodi-0.dtd"
   xmlns:inkscape="http://www.inkscape.org/namespaces/inkscape"
   width="1200"
   height="640"
   viewBox="-53.9875 -30.073 338.66667 180.62222"
   version="1.1"
   style="fill:none;stroke-linecap:round;stroke-linejoin:round"
   id="svg2"
   inkscape:version="0.48.5 r10040"
   sodipodi:docname="SinusoidWaveGlobal.svg">
  <metadata
     id="metadata138">
    <rdf:RDF>
      <cc:Work
         rdf:about="">
        <dc:format>image/svg+xml</dc:format>
        <dc:type
           rdf:resource="http://purl.org/dc/dcmitype/StillImage" />
        <dc:title></dc:title>
      </cc:Work>
    </rdf:RDF>
  </metadata>
  <defs
     id="defs136" />
  <sodipodi:namedview
     pagecolor="#ffffff"
     bordercolor="#666666"
     borderopacity="1"
     objecttolerance="10"
     gridtolerance="10"
     guidetolerance="10"
     inkscape:pageopacity="0"
     inkscape:pageshadow="2"
     inkscape:window-width="1920"
     inkscape:window-height="1018"
     id="namedview134"
     showgrid="false"
     inkscape:zoom="1.2066667"
     inkscape:cx="600"
     inkscape:cy="320"
     inkscape:window-x="-8"
     inkscape:window-y="-8"
     inkscape:window-maximized="1"
     inkscape:current-layer="layer2"
     fit-margin-top="10"
     fit-margin-left="10"
     fit-margin-right="10"
     fit-margin-bottom="10"
     borderlayer="false" />
  <g
     inkscape:groupmode="layer"
     id="layer1"
     inkscape:label="BaseLine"
     style="display:inline"
     sodipodi:insensitive="true">
    <path
       inkscape:connector-curvature="0"
       style="fill:none;stroke:#ff0000;stroke-width:1.41111112;stroke-linecap:round;stroke-linejoin:round;stroke-miterlimit:4;stroke-dasharray:none;display:inline"
       d="m -40.890271,70.837285 93.80381,0"
       id="path18133" />
    <path
       inkscape:connector-curvature="0"
       style="fill:none;stroke:#ff0000;stroke-width:1.41111112;stroke-linecap:round;stroke-linejoin:round;stroke-miterlimit:4;stroke-dasharray:none;display:inline"
       d="M 52.913539,70.837285 A 81.228289,81.228289 0 0 0 94.705151,59.261686"
       id="path18135" />
    <path
       inkscape:connector-curvature="0"
       style="fill:none;stroke:#ff0000;stroke-width:1.41111112;stroke-linecap:round;stroke-linejoin:round;stroke-miterlimit:4;stroke-dasharray:none;display:inline"
       d="M 94.705151,59.261686 137.34809,33.675918"
       id="path18137" />
    <path
       inkscape:connector-curvature="0"
       style="fill:none;stroke:#ff0000;stroke-width:1.41111112;stroke-linecap:round;stroke-linejoin:round;stroke-miterlimit:4;stroke-dasharray:none;display:inline"
       d="M 259.1097,89.086592 A 81.228289,81.228289 0 0 0 137.34809,33.675918"
       id="path18139" />
  </g>
  <g
     inkscape:groupmode="layer"
     id="layer5"
     inkscape:label="Constructors"
     style="display:inline"
     sodipodi:insensitive="true">
    <path
       inkscape:connector-curvature="0"
       style="fill:none;stroke:#0000ff;stroke-width:0.56444442;stroke-linecap:round;stroke-linejoin:round;stroke-miterlimit:4;stroke-dasharray:none;display:inline"
       d="m -40.873636,36.095872 0,69.230748"
       id="path18371" />
    <path
       inkscape:connector-curvature="0"
       style="fill:none;stroke:#0000ff;stroke-width:0.56444442;stroke-linecap:round;stroke-linejoin:round;stroke-miterlimit:4;stroke-dasharray:none;display:inline"
       d="M 278.12252,56.69956 221.23707,83.361148"
       id="path18523" />
  </g>
  <g
     inkscape:groupmode="layer"
     id="layer2"
     inkscape:label="Painters"
     style="display:inline">
    <path
       style="fill:none;stroke:#000000;stroke-width:1.41111112;stroke-linecap:round;stroke-miterlimit:4;stroke-dasharray:none;display:inline"
       d="m -40.893382,70.839044 c 0,0 0,0 0,0 0.838,-2.637141 1.67599,-5.274282 2.5641,-7.892824 0.79182,-2.334599 1.62347,-4.654437 2.56411,-6.940522 0.73158,-1.778028 1.52908,-3.535623 2.5641,-5.151797 0.38296,-0.597973 0.79844,-1.176613 1.28205,-1.699994 0.3751,-0.405948 0.79119,-0.778679 1.28205,-1.041033 0.39506,-0.211131 0.83856,-0.350774 1.28205,-0.350774 0.4435,0 0.88699,0.139643 1.28205,0.350774 0.49086,0.262354 0.90695,0.635085 1.28206,1.041033 0.48361,0.523381 0.89909,1.102021 1.28205,1.699994 1.03501,1.616174 1.83252,3.373769 2.5641,5.151797 0.94063,2.286085 1.77229,4.605923 2.5641,6.940522 0.88811,2.618542 1.72611,5.255683 2.5641,7.892824 0.838,2.637141 1.67599,5.274282 2.56411,7.892796 0.79181,2.334627 1.62346,4.654438 2.5641,6.940522 0.73158,1.778028 1.52908,3.535652 2.564099,5.151798 0.3829603,0.597972 0.7984403,1.176612 1.2820503,1.699993 0.3751,0.405949 0.79119,0.77868 1.28205,1.041034 0.39506,0.21113 0.83856,0.350774 1.28205,0.350774 0.4435,0 0.88699,-0.139644 1.28205,-0.350774 0.49086,-0.262354 0.90696,-0.635085 1.28205,-1.041034 0.48362,-0.523381 0.8991,-1.102021 1.28206,-1.699993 1.0350099,-1.616146 1.83251992,-3.37377 2.56409996,-5.151798 0.94063004,-2.286084 1.77229004,-4.605895 2.56410004,-6.940522 0.88812,-2.618514 1.72611,-5.255655 2.5641,-7.892796 0.838,-2.637141 1.67599,-5.274282 2.5641,-7.892824 0.79182,-2.334599 1.6234704,-4.654437 2.5641107,-6.940522 0.73158,-1.778028 1.52909,-3.535623 2.5641,-5.151797 0.38296,-0.597973 0.79844,-1.176613 1.28205,-1.699994 0.3751,-0.405948 0.79119,-0.778679 1.28205,-1.041033 0.39506,-0.211131 0.83856,-0.350774 1.28205,-0.350774 0.4435,0 0.88699,0.139643 1.28206,0.350774 0.49085,0.262354 0.90694,0.635085 1.28205,1.041033 0.48361,0.523381 0.89909,1.102021 1.28205,1.699994 1.03501,1.616174 1.83252,3.373769 2.5641,5.151797 0.94063,2.286085 1.77229,4.605923 2.5641,6.940522 0.88811,2.618542 1.72611,5.255683 2.5641,7.892824 0.838,2.637141 1.67599,5.274282 2.5641,7.892796 0.79182,2.334627 1.62347,4.654438 2.56411,6.940522 0.73158,1.778028 1.52908,3.535652 2.5641,5.151798 0.38296,0.597972 0.79844,1.176612 1.28205,1.699993 0.3751,0.405949 0.79119,0.77868 1.28205,1.041034 0.39506,0.21113 0.83856,0.350774 1.28205,0.350774 0.4435,0 0.88699,-0.139644 1.28205,-0.350774 0.49087,-0.262354 0.90695,-0.635085 1.28206,-1.041034 0.48361,-0.523381 0.89909,-1.101993 1.28205,-1.699993 1.035,-1.616174 1.83246,-3.373798 2.5641,-5.151798 0.9407,-2.286056 1.7726,-4.605782 2.5641,-6.940522 0.88777,-2.618655 1.72473,-5.256191 2.5641,-7.892796 0.8368,-2.628533 1.67601,-5.256163 2.4603,-7.899174 0.690283,-2.32616 1.338031,-4.664287 2.003655,-7.000522 0.505599,-1.774585 1.021509,-3.548098 1.699339,-5.263529 0.238842,-0.604464 0.497789,-1.201703 0.806899,-1.774078 0.221559,-0.410238 0.46889,-0.80772 0.823033,-1.128747 0.249742,-0.226399 0.552603,-0.414811 0.873913,-0.454717 0.321313,-0.03993 0.661074,0.06861 0.95863,0.226991 0.421944,0.224593 0.759022,0.549459 1.074264,0.89298 0.43981,0.479298 0.837114,0.994974 1.216562,1.522645 1.076861,1.497471 2.009913,3.091547 2.935904,4.687514 1.21907,2.101088 2.425906,4.205506 3.656096,6.297224 1.395521,2.372868 2.821099,4.729424 4.315338,7.04342 1.508165,2.335587 3.086281,4.627796 4.774825,6.83452 1.525053,1.993025 3.140188,3.916313 4.917666,5.702384 1.420805,1.427678 2.945339,2.767697 4.670634,3.796538 0.671302,0.400304 1.373,0.753505 2.11486,1.006038 0.613323,0.20876 1.2541,0.348742 1.903634,0.353483 0.563765,0.004 1.134124,-0.09367 1.650402,-0.316681 0.516278,-0.222984 0.97847,-0.571218 1.361956,-0.984476 0.441828,-0.476137 0.779179,-1.038578 1.047652,-1.628253 0.324736,-0.713232 0.548693,-1.466229 0.717363,-2.229386 0.433494,-1.961304 0.501786,-3.98955 0.437848,-6.003036 -0.07999,-2.518975 -0.366934,-5.014864 -0.780361,-7.489444 -0.457564,-2.738798 -1.07006,-5.451461 -1.700668,-8.158509 -0.627956,-2.695674 -1.273872,-5.385759 -1.862122,-8.087275 -0.524465,-2.408569 -1.003091,-4.826226 -1.372165,-7.270637 -0.287048,-1.901162 -0.507828,-3.818523 -0.451877,-5.736845 0.02072,-0.709817 0.07929,-1.419747 0.224708,-2.117372 0.112787,-0.541077 0.277811,-1.074759 0.563748,-1.552279 0.230132,-0.384302 0.538587,-0.732197 0.918878,-0.960374 0.380295,-0.228176 0.832426,-0.336634 1.279819,-0.358845 0.555882,-0.02766 1.104446,0.07795 1.634956,0.233059 0.683976,0.200011 1.337942,0.482402 1.973992,0.798152 1.719023,0.853328 3.307161,1.950156 4.849271,3.098405 1.98277,1.476333 3.88944,3.0377 5.76956,4.632199 2.10878,1.78847 4.18416,3.618653 6.25953,5.448836 2.07537,1.830183 4.15074,3.660366 6.25952,5.448808 1.88012,1.594528 3.78679,3.155866 5.76957,4.632226 1.54211,1.14825 3.13025,2.245078 4.84927,3.098405 0.63605,0.315751 1.29001,0.598142 1.97399,0.798125 0.53051,0.155109 1.07907,0.26066 1.63496,0.233059 0.44739,-0.0223 0.89952,-0.130641 1.27981,-0.358817 0.3803,-0.228177 0.68875,-0.576101 0.91889,-0.960403 0.28594,-0.477491 0.45097,-1.011174 0.56374,-1.552278 0.1454,-0.697625 0.20395,-1.407527 0.22471,-2.117344 0.0561,-1.918378 -0.16385,-3.835937 -0.45188,-5.736844 -0.37033,-2.444101 -0.85322,-4.860686 -1.37216,-7.270666 -0.58205,-2.703068 -1.20946,-5.397811 -1.86212,-8.087247 -0.65267,-2.689465 -1.33058,-5.373624 -1.86213,-8.087277 -0.48165,-2.458918 -0.84312,-4.942022 -0.99032,-7.454364 -0.11781,-2.010889 -0.0983,-4.04049 0.28584,-6.012208 0.14949,-0.767164 0.35419,-1.525608 0.66073,-2.246827 0.25344,-0.596251 0.57648,-1.167074 1.00613,-1.6542181 0.37291,-0.4228248 0.82614,-0.7826298 1.33661,-1.0186238 0.51047,-0.235966 1.07817,-0.34815 1.64186,-0.35831 0.64945,-0.01185 1.29356,0.112014 1.91197,0.305196 0.74801,0.233708 1.45842,0.569016 2.13963,0.952217 1.75078,0.9848709 3.30872,2.2858869 4.76519,3.6771579 1.8221,1.740521 3.48537,3.622323 5.06036,5.576147 1.74383,2.163289 3.37943,4.414858 4.9462,6.711526 1.55231,2.275475 3.03704,4.5952 4.49215,6.932 1.28272,2.05994 2.5424,4.133116 3.81424,6.202709 0.96607,1.572034 1.93915,3.14198 3.05355,4.611765 0.39268,0.517878 0.8029,1.023338 1.2547,1.491347 0.32383,0.335449 0.66902,0.651679 1.09651,0.865519 0.30147,0.15082 0.64387,0.250726 0.96406,0.202692 0.3202,-0.04806 0.6182,-0.244037 0.86213,-0.476701 0.34591,-0.32989 0.5831,-0.733496 0.79422,-1.149209 0.29455,-0.579995 0.53836,-1.183584 0.76176,-1.793918 0.63398,-1.73211 1.10346,-3.518493 1.56563,-5.304818 0.60845,-2.35173 1.20423,-4.703318 1.8259,-7.049008 0.70523,-2.660933 1.44379,-5.314246 2.25994,-7.945093 0.82375,-2.655345 1.72653,-5.2878 2.7587,-7.867594 0.93222,-2.329998 1.96998,-4.6170711 3.20103,-6.8157229 0.98402,-1.757454 2.09154,-3.458407 3.47618,-4.913715 0.53876,-0.56625 1.11947,-1.095304 1.76596,-1.53822395 0.53448,-0.366183 1.11392,-0.67349502 1.7382,-0.85290302 0.54185,-0.155702 1.11748,-0.215082 1.67473,-0.139305 0.55725,0.07578 1.09611,0.286738 1.57669,0.58149 0.5537,0.33962702 1.03003,0.79050497 1.44731,1.28611497 0.50473,0.599497 0.92306,1.264412 1.29103,1.953966 0.94572,1.772214 1.55877,3.707158 2.03772,5.663579 0.59918,2.4475439 0.98849,4.9287009 1.26462,7.4230369 0.30573,2.761742 0.47273,5.539683 0.55744,8.318585 0.0839,2.753248 0.0871,5.507426 0.0561,8.260053 -0.0273,2.426518 -0.0812,4.851823 -0.12287,7.2806 -0.0317,1.844886 -0.0563,3.691777 0.0921,5.530285 0.0523,0.647813 0.12606,1.29461 0.25502,1.932178 0.0924,0.457003 0.21322,0.909292 0.45846,1.319587 0.17295,0.289334 0.40778,0.557784 0.70353,0.68961 0.29573,0.131798 0.65238,0.126972 0.98317,0.06215 0.46908,-0.09195 0.88617,-0.304489 1.28783,-0.541274 0.56037,-0.330369 1.09068,-0.707898 1.6074,-1.102134 1.46643,-1.118757 2.82343,-2.371852 4.17424,-3.628785 1.77833,-1.654782 3.54592,-3.316281 5.33216,-4.958842 2.02631,-1.863345 4.07661,-3.702333 6.18021,-5.480587 2.1232,-1.794849 4.30069,-3.527863 6.5589,-5.146887 2.03956,-1.46225 4.14497,-2.831537 6.36571,-4.02226 1.77511,-0.951795 3.62392,-1.789515 5.57411,-2.271043 0.75882,-0.187367 1.53295,-0.320802 2.31623,-0.34623 0.64754,-0.02117 1.3013,0.03175 1.92403,0.216465 0.54051,0.16033 1.05762,0.420031 1.48655,0.783787 0.42889,0.363728 0.76959,0.831512 1.01602,1.338552 0.28395,0.5842 0.44281,1.220555 0.52782,1.862836 0.10284,0.776903 0.0976,1.562468 0.0367,2.341684 -0.15655,2.002649 -0.68106,3.963444 -1.33014,5.870194 -0.81201,2.385398 -1.81904,4.686159 -2.92854,6.937164 -1.22845,2.492332 -2.58253,4.92362 -4.00649,7.311474 -1.41082,2.365785 -2.89023,4.688925 -4.39759,6.992366 -1.32877,2.030533 -2.67925,4.045741 -4.02135,6.070488 -1.01945,1.537941 -2.03405,3.081386 -2.8983,4.710853 -0.30453,0.574181 -0.59039,1.15903 -0.82479,1.765836 -0.16801,0.434933 -0.30958,0.881154 -0.32365,1.358928 -0.01,0.336946 0.0435,0.689582 0.22189,0.959838 0.17834,0.270228 0.48155,0.458075 0.79525,0.581434 0.44484,0.17495 0.91077,0.220247 1.37674,0.236785 0.65008,0.02314 1.30022,-0.0099 1.94789,-0.06398 1.83809,-0.153642 3.65639,-0.478113 5.47106,-0.812405 2.38902,-0.440069 4.77176,-0.897071 7.16277,-1.310329 2.71233,-0.4688 5.43532,-0.881296 8.15831,-1.293792"
       id="path16899"
       inkscape:connector-curvature="0" />
    <path
       style="fill:none;stroke:#000000;stroke-width:1.41111112;stroke-linecap:round;stroke-miterlimit:4;stroke-dasharray:none;display:inline"
       d="m -40.893382,50.853901 c 1.03502,1.616174 1.83252,3.373769 2.5641,5.151797 0.94064,2.286085 1.77229,4.605923 2.56411,6.940522 0.88811,2.618542 1.72611,5.255683 2.5641,7.892824 0.83799,2.637141 1.67599,5.274282 2.5641,7.892796 0.79182,2.334627 1.62347,4.654438 2.5641,6.940522 0.73159,1.778028 1.52909,3.535652 2.56411,5.151798 0.38296,0.597972 0.79843,1.176612 1.28205,1.699993 0.3751,0.405949 0.79119,0.77868 1.28205,1.041034 0.39506,0.21113 0.83855,0.350774 1.28205,0.350774 0.44349,0 0.88699,-0.139644 1.28205,-0.350774 0.49086,-0.262354 0.90695,-0.635085 1.28205,-1.041034 0.48362,-0.523381 0.89909,-1.102021 1.28205,-1.699993 1.03502,-1.616146 1.83252,-3.37377 2.56411,-5.151798 0.94063,-2.286084 1.77228,-4.605895 2.5641,-6.940522 0.88811,-2.618514 1.726109,-5.255655 2.564099,-7.892796 0.8379903,-2.637141 1.6759903,-5.274282 2.5641003,-7.892824 0.79182,-2.334599 1.62347,-4.654437 2.5641,-6.940522 0.73159,-1.778028 1.52909,-3.535623 2.56411,-5.151797 0.38296,-0.597973 0.7984299,-1.176613 1.2820499,-1.699994 0.37510002,-0.405948 0.79119002,-0.778679 1.28205006,-1.041033 0.39506,-0.211131 0.83856,-0.350774 1.28205004,-0.350774 0.44349,0 0.88699,0.139643 1.28205,0.350774 0.49086,0.262354 0.90695,0.635085 1.28205,1.041033 0.48362,0.523381 0.89909,1.102021 1.28205,1.699994 1.03502,1.616174 1.83252,3.373769 2.5641,5.151797 0.94064,2.286085 1.7722904,4.605923 2.5641107,6.940522 0.88811,2.618542 1.7261,5.255683 2.5641,7.892824 0.83799,2.637141 1.67599,5.274282 2.5641,7.892796 0.79182,2.334627 1.62347,4.654438 2.56411,6.940522 0.73158,1.778028 1.52908,3.535652 2.5641,5.151798 0.38296,0.597972 0.79843,1.176612 1.28205,1.699993 0.3751,0.405949 0.79119,0.77868 1.28205,1.041034 0.39506,0.21113 0.83855,0.350774 1.28205,0.350774 0.4435,0 0.88699,-0.139644 1.28205,-0.350774 0.49086,-0.262354 0.90695,-0.635085 1.28205,-1.041034 0.48361,-0.523381 0.89909,-1.102021 1.28205,-1.699993 1.03502,-1.616146 1.83252,-3.37377 2.5641,-5.151798 0.94064,-2.286084 1.77229,-4.605895 2.56411,-6.940522 0.88811,-2.618514 1.72611,-5.255655 2.5641,-7.892796 0.83799,-2.637141 1.67599,-5.274282 2.5641,-7.892824 0.79182,-2.334599 1.62347,-4.654437 2.5641,-6.940522 0.73159,-1.778028 1.5291,-3.535652 2.56411,-5.151797 0.38295,-0.597973 0.79843,-1.176585 1.28205,-1.699994 0.3751,-0.405948 0.79121,-0.778708 1.28205,-1.041033 0.39504,-0.211131 0.83851,-0.350746 1.28205,-0.350774 0.44355,0 0.88718,0.139559 1.28205,0.350774 0.49063,0.262467 0.90598,0.635564 1.28205,1.041033 0.48487,0.52276 0.90443,1.099284 1.28205,1.699994 1.00474,1.598337 1.71258,3.367955 2.36905,5.146068 0.843786,2.285436 1.602693,4.584869 2.405141,6.872958 0.910296,2.595598 1.87662,5.176605 2.912113,7.729897 1.045139,2.577084 2.160741,5.125918 3.402708,7.611251 1.121718,2.244655 2.346517,4.437522 3.756141,6.526248 1.126763,1.669627 2.371617,3.272734 3.872343,4.607984 0.58392,0.519543 1.206579,0.99853 1.887634,1.386219 0.563051,0.320491 1.166013,0.578612 1.803039,0.705555 0.55291,0.110152 1.131483,0.121525 1.680509,0 0.549027,-0.121807 1.068511,-0.376766 1.522948,-0.710438 0.52357,-0.384443 0.9608,-0.873336 1.335464,-1.401882 0.45319,-0.639346 0.814843,-1.336717 1.124263,-2.054465 0.795229,-1.844661 1.24543,-3.823829 1.560209,-5.81327 0.393799,-2.488861 0.575652,-4.993781 0.643625,-7.502426 0.07526,-2.777603 0.01092,-5.559806 -0.135492,-8.336139 -0.145065,-2.750707 -0.370696,-5.495657 -0.630245,-8.236176 -0.2288,-2.41585 -0.483957,-4.828258 -0.727224,-7.245237 -0.184785,-1.835912 -0.362709,-3.674449 -0.367609,-5.518799 -0.0017,-0.649902 0.01803,-1.300509 0.09364,-1.946713 0.0542,-0.463183 0.137081,-0.924108 0.347269,-1.353086 0.148223,-0.302542 0.359754,-0.589195 0.643802,-0.745688 0.284048,-0.156464 0.640614,-0.182795 0.974618,-0.143594 0.473625,0.0556 0.901886,0.242908 1.328341,0.432421 0.625636,0.278045 1.247385,0.56086 1.855196,0.870853 1.706688,0.87043 3.303468,1.955292 4.849275,3.098405 1.987528,1.469757 3.890786,3.035836 5.769565,4.632198 2.107274,1.790559 4.183751,3.619189 6.259519,5.448836 2.07577,1.829618 4.15085,3.660225 6.25952,5.448808 1.88003,1.59464 3.78677,3.155894 5.76957,4.632226 1.54213,1.148221 3.13025,2.245078 4.84927,3.098405 0.63605,0.31575 1.29002,0.598142 1.97399,0.798125 0.53051,0.155109 1.07908,0.26066 1.63496,0.233059 0.44739,-0.0223 0.89952,-0.130641 1.27982,-0.358818 0.38029,-0.228176 0.68875,-0.5761 0.91888,-0.960402 0.28594,-0.477492 0.45096,-1.011174 0.56375,-1.552278 0.14541,-0.697626 0.20398,-1.407556 0.2247,-2.117344 0.056,-1.91835 -0.16442,-3.835824 -0.45187,-5.736845 -0.3696,-2.44427 -0.85,-4.861362 -1.37217,-7.270665 -0.58567,-2.702306 -1.2239,-5.394791 -1.86212,-8.087247 -0.63823,-2.692485 -1.27645,-5.38497 -1.86213,-8.087276 -0.52216,-2.409275 -1.00256,-4.826395 -1.37216,-7.270637 -0.28745,-1.90105 -0.50789,-3.818496 -0.45187,-5.736845 0.0207,-0.709817 0.0793,-1.419747 0.2247,-2.117373 0.11279,-0.541076 0.27782,-1.074786 0.56375,-1.552278 0.23013,-0.384302 0.53857,-0.732197 0.91888,-0.960374 0.3803,-0.228205 0.83246,-0.336663 1.27982,-0.358845 0.55584,-0.02738 1.10426,0.07817 1.63495,0.233059 0.68422,0.1997 1.33897,0.481104 1.97399,0.798152 1.71626,0.856827 3.28844,1.973919 4.84928,3.098405 2.03784,1.46812 4.05636,2.948883 5.98054,4.547729 2.1352,1.774219 4.15424,3.69381 6.12133,5.660306 1.94893,1.948321 3.84687,3.942673 5.7169,5.962284 1.64848,1.780342 3.27528,3.580271 4.91381,5.373709 1.24461,1.362258 2.49599,2.720735 3.8672,3.954385 0.48317,0.434678 0.98121,0.853891 1.51303,1.228457 0.3812,0.268506 0.77975,0.514067 1.23986,0.643607 0.32447,0.09136 0.67956,0.125025 0.98498,0.0175 0.30543,-0.10747 0.5612,-0.356051 0.75697,-0.630484 0.27761,-0.3891 0.43457,-0.830157 0.56365,-1.278185 0.18008,-0.625066 0.3059,-1.263763 0.41039,-1.905254 0.29655,-1.820474 0.42131,-3.663329 0.53891,-5.504716 0.15481,-2.424205 0.29719,-4.845926 0.46614,-7.266715 0.19164,-2.746107 0.41746,-5.49103 0.7237,-8.228472 0.3091,-2.762956 0.70013,-5.518291 1.22814,-8.246279 0.47688,-2.463857 1.0655,-4.905418 1.8606,-7.2965169 0.63554,-1.911294 1.40302,-3.790329 2.48892,-5.480304 0.42251,-0.65755 0.89323,-1.286482 1.44478,-1.84319395 0.45598,-0.46024802 0.9672,-0.87116302 1.54654,-1.16487202 0.50284,-0.254959 1.05699,-0.42164 1.61855,-0.45212 0.56155,-0.03051 1.13049,0.07521 1.65798,0.274236 0.60773,0.229305 1.16043,0.58245 1.66355,0.990628 0.60857,0.49374802 1.14461,1.06801297 1.63582,1.67597597 1.26246,1.562467 2.22884,3.347382 3.06756,5.178637 1.04926,2.2909668 1.89873,4.6544659 2.63953,7.0522259 0.82022,2.654779 1.50723,5.35161 2.11361,8.064866 0.60078,2.688195 1.12241,5.392562 1.61021,8.101783 0.43,2.388277 0.83371,4.780336 1.25005,7.173524 0.31623,1.817851 0.63976,3.636378 1.13163,5.414067 0.17332,0.626393 0.36754,1.247705 0.61424,1.8496 0.17682,0.431433 0.3806,0.852904 0.6987,1.209689 0.22433,0.251601 0.50551,0.471029 0.82077,0.544802 0.31527,0.07377 0.66462,0.0028 0.9773,-0.124065 0.44338,-0.17859 0.813,-0.465864 1.16289,-0.774051 0.48815,-0.429937 0.9379,-0.900571 1.37116,-1.385034 1.22958,-1.374845 2.3264,-2.860999 3.4164,-4.349778 1.43499,-1.960005 2.85816,-3.924554 4.30321,-5.874061 1.63927,-2.211493 3.30669,-4.403598 5.03787,-6.546116 1.74732,-2.162501 3.55959,-4.274454 5.47261,-6.28969 1.72779,-1.82008 3.53775,-3.561249 5.4946,-5.148777 1.56418,-1.268985 3.22221,-2.439783 5.04687,-3.279874 0.70996,-0.32687 1.44516,-0.603674 2.20961,-0.776111 0.63201,-0.142579 1.28401,-0.213812 1.93039,-0.149635 0.56102,0.05568 1.1178,0.213389 1.60751,0.489882 0.48972,0.276465 0.91238,0.671745 1.24989,1.123329 0.38886,0.520305 0.66468,1.11537 0.8691,1.730163 0.24725,0.743628 0.39004,1.516126 0.47692,2.292886 0.2233,1.996299 0.0773,4.020792 -0.20116,6.015623 -0.34841,2.495635 -0.90425,4.944845 -1.57011,7.364477 -0.73725,2.679051 -1.60939,5.32178 -2.55833,7.935017 -0.94018,2.589107 -1.95576,5.149229 -3.00249,7.695269 -0.92273,2.244372 -1.86966,4.477823 -2.80656,6.719006 -0.71166,1.702392 -1.41754,3.409272 -1.95955,5.172315 -0.19099,0.621227 -0.36163,1.249426 -0.47759,1.889506 -0.0831,0.458808 -0.13815,0.923685 -0.062,1.395589 0.0537,0.332768 0.17259,0.669064 0.39862,0.900881 0.22603,0.231817 0.55918,0.359213 0.8905,0.42133 0.46982,0.08805 0.93595,0.04482 1.3967,-0.02681 0.64281,-0.09971 1.27514,-0.254367 1.90102,-0.429571 1.7762,-0.497163 3.5004,-1.159566 5.22027,-1.827897 2.26421,-0.879828 4.52093,-1.769872 6.78797,-2.635419 2.57173,-0.981908 5.15676,-1.932319 7.76884,-2.806616 2.63644,-0.882424 5.30042,-1.68735 7.99728,-2.35647 2.43572,-0.604379 4.89825,-1.097986 7.4019,-1.383059 2.00123,-0.227894 4.02875,-0.322523 6.01878,-0.04871 0.77433,0.106539 1.54297,0.268873 2.28007,0.534867 0.60938,0.219908 1.19719,0.510653 1.70759,0.912622 0.443,0.348912 0.82764,0.781558 1.09132,1.277959 0.26366,0.496401 0.40632,1.056499 0.44899,1.619419 0.0492,0.648547 -0.0343,1.300791 -0.19848,1.925969 -0.19858,0.756187 -0.5152,1.472721 -0.83185,2.189227"
       id="path16901"
       inkscape:connector-curvature="0" />
    <path
       style="fill:none;stroke:#000000;stroke-width:1.41111112;stroke-linecap:round;stroke-miterlimit:4;stroke-dasharray:none;display:inline"
       d="m -40.893382,90.82416 c 0.38296,0.597972 0.79844,1.176612 1.28205,1.699993 0.3751,0.405949 0.79119,0.77868 1.28205,1.041034 0.39507,0.21113 0.83856,0.350774 1.28206,0.350774 0.44349,0 0.88699,-0.139644 1.28205,-0.350774 0.49086,-0.262354 0.90695,-0.635085 1.28205,-1.041034 0.48361,-0.523381 0.89909,-1.102021 1.28205,-1.699993 1.03501,-1.616146 1.83252,-3.37377 2.5641,-5.151798 0.94064,-2.286084 1.77229,-4.605895 2.5641,-6.940522 0.88812,-2.618514 1.72611,-5.255655 2.56411,-7.892796 0.83799,-2.637141 1.67598,-5.274282 2.5641,-7.892824 0.79181,-2.334599 1.62347,-4.654437 2.5641,-6.940522 0.73158,-1.778028 1.52909,-3.535623 2.5641,-5.151797 0.38296,-0.597973 0.79844,-1.176613 1.28205,-1.699994 0.3751,-0.405948 0.79119,-0.778679 1.28206,-1.041033 0.39506,-0.211131 0.83855,-0.350774 1.28205,-0.350774 0.44349,0 0.88699,0.139643 1.28205,0.350774 0.49086,0.262354 0.90695,0.635085 1.28205,1.041033 0.483609,0.523381 0.899089,1.102021 1.282049,1.699994 1.0350103,1.616174 1.8325203,3.373769 2.5641003,5.151797 0.94063,2.286085 1.77229,4.605923 2.5641,6.940522 0.88812,2.618542 1.72611,5.255683 2.56411,7.892824 0.8379899,2.637141 1.67597992,5.274282 2.56409996,7.892796 0.79181,2.334627 1.62347004,4.654438 2.56410004,6.940522 0.73158,1.778028 1.52909,3.535652 2.5641,5.151798 0.38296,0.597972 0.79844,1.176612 1.28205,1.699993 0.37511,0.405949 0.79119,0.77868 1.28205,1.041034 0.39507,0.21113 0.83856,0.350774 1.2820604,0.350774 0.44349,0 0.88699,-0.139644 1.2820503,-0.350774 0.49086,-0.262354 0.90695,-0.635085 1.28205,-1.041034 0.48361,-0.523381 0.89909,-1.102021 1.28205,-1.699993 1.03501,-1.616146 1.83252,-3.37377 2.5641,-5.151798 0.94064,-2.286084 1.77229,-4.605895 2.56411,-6.940522 0.88811,-2.618514 1.7261,-5.255655 2.5641,-7.892796 0.83799,-2.637141 1.67598,-5.274282 2.5641,-7.892824 0.79181,-2.334599 1.62347,-4.654437 2.5641,-6.940522 0.73158,-1.778028 1.52909,-3.535623 2.5641,-5.151797 0.38296,-0.597973 0.79844,-1.176613 1.28205,-1.699994 0.37511,-0.405948 0.7912,-0.778679 1.28205,-1.041033 0.39507,-0.211131 0.83856,-0.350774 1.28206,-0.350774 0.44349,0 0.88699,0.139643 1.28205,0.350774 0.49086,0.262354 0.90695,0.635085 1.28205,1.041033 0.48361,0.523381 0.89909,1.102021 1.28205,1.699994 1.03501,1.616174 1.83248,3.373825 2.5641,5.151797 0.94068,2.286057 1.77249,4.605698 2.5641,6.940522 0.8879,2.618796 1.72523,5.256671 2.56411,7.892824 0.83887,2.636125 1.67929,5.2705 2.5641,7.892796 0.78887,2.337986 1.61303,4.666319 2.5641,6.940522 0.7397,1.768772 1.55618,3.504777 2.5641,5.151798 0.37294,0.609402 0.77209,1.206641 1.28206,1.699993 0.45215,0.437445 0.99142,0.793242 1.58081,1.032059 0.524642,0.21257 1.089001,0.332429 1.650508,0.316089 0.561504,-0.01637 1.120154,-0.16891 1.629469,-0.411029 0.586797,-0.278948 1.108101,-0.676797 1.575517,-1.125389 0.565373,-0.542601 1.051904,-1.159397 1.490946,-1.806053 1.128376,-1.66195 1.943092,-3.520976 2.62677,-5.415562 0.855308,-2.370215 1.505525,-4.796113 2.044595,-7.2471 0.596863,-2.713764 1.057473,-5.458319 1.43637,-8.212582 0.375398,-2.728807 0.670586,-5.467153 0.931647,-8.207559 0.230129,-2.415709 0.433739,-4.833055 0.649831,-7.252575 0.164143,-1.837831 0.335486,-3.676932 0.67799,-5.489335 0.120687,-0.638612 0.262628,-1.273923 0.458468,-1.894247 0.140374,-0.444613 0.308443,-0.88155 0.595805,-1.263509 0.202649,-0.269381 0.464628,-0.511415 0.772676,-0.611124 0.308048,-0.09971 0.66217,-0.05709 0.984225,0.04245 0.456683,0.141139 0.848893,0.39672 1.223176,0.674765 0.522179,0.387915 1.009464,0.819574 1.481469,1.26636 1.339537,1.267968 2.556019,2.657912 3.76592,4.050961 1.592837,1.833965 3.174264,3.67332 4.77629,5.496306 1.817333,2.067955 3.661172,4.114857 5.564231,6.105003 1.92079,2.008688 3.901911,3.95955 5.976165,5.813326 1.87342,1.674284 3.822805,3.269375 5.903314,4.674588 1.63824,1.106509 3.35779,2.095274 5.14375,2.949335 0.64135,0.306691 1.29126,0.596025 1.974,0.798125 0.52954,0.156774 1.07884,0.261055 1.63495,0.233059 0.44758,-0.02258 0.89957,-0.130726 1.27982,-0.358818 0.38024,-0.228092 0.68873,-0.576072 0.91888,-0.960402 0.28595,-0.47752 0.45097,-1.011202 0.56374,-1.552278 0.14541,-0.697597 0.20399,-1.407527 0.22471,-2.117344 0.056,-1.918378 -0.16442,-3.835824 -0.45188,-5.736845 -0.3696,-2.44427 -0.84999,-4.861362 -1.37216,-7.270665 -0.58567,-2.702306 -1.2239,-5.394791 -1.86212,-8.087247 -0.63823,-2.692485 -1.27645,-5.384941 -1.86212,-8.087276 -0.52217,-2.409274 -1.00257,-4.826395 -1.37217,-7.270637 -0.28746,-1.901049 -0.50789,-3.818495 -0.45188,-5.736844 0.0207,-0.709817 0.0793,-1.419747 0.22471,-2.117372 0.11278,-0.541078 0.27781,-1.07476 0.56375,-1.55228 0.23013,-0.384302 0.53858,-0.732198 0.91888,-0.960374 0.38029,-0.228177 0.83242,-0.336635 1.27982,-0.358846 0.55588,-0.02766 1.10444,0.07795 1.63495,0.233059 0.68398,0.200011 1.33794,0.482403 1.97399,0.798153 1.71903,0.853327 3.30718,1.950157 4.84928,3.098406 1.98276,1.476333 3.88941,3.037586 5.76957,4.632198 2.10882,1.788555 4.18432,3.619049 6.25952,5.448836 2.07519,1.82976 4.15009,3.658843 6.25952,5.448809 1.8807,1.595882 3.78885,3.160691 5.76956,4.632226 1.54051,1.144496 3.12492,2.232547 4.84928,3.098405 0.63802,0.320379 1.2952,0.610334 1.97399,0.798124 0.52648,0.145655 1.06596,0.22987 1.63495,0.23306 0.36217,0.0028 0.73629,-0.02876 1.03115,-0.20416 0.27634,-0.164394 0.48306,-0.455761 0.62473,-0.761718 0.2009,-0.433832 0.27099,-0.89693 0.31293,-1.36144 0.0585,-0.648067 0.0623,-1.298871 0.0444,-1.948462 -0.0508,-1.843476 -0.2757,-3.677045 -0.50711,-5.507736 -0.30465,-2.410121 -0.62053,-4.815248 -0.91029,-7.224523 -0.3287,-2.73304 -0.62378,-5.471442 -0.83841,-8.217577 -0.21664,-2.771762 -0.35132,-5.551425 -0.34635,-8.330044 0.004,-2.509576 0.12291,-5.018306 0.45362,-7.516311 0.26434,-1.996779 0.66433,-3.9866999 1.41264,-5.8508899 0.29116,-0.72534 0.63506,-1.431657 1.07192,-2.082236 0.36118,-0.537887 0.7859,-1.037675 1.29958,-1.435241 0.44584,-0.345045 0.95871,-0.6131 1.50448,-0.748764 0.54577,-0.135636 1.12444,-0.138938 1.67996,-0.04278 0.64004,0.110772 1.24934,0.35354 1.82032,0.659723 0.69064,0.370332 1.32521,0.833402 1.9221,1.338015 1.53405,1.29684 2.81919,2.867915 3.98768,4.508501 1.46182,2.0524609 2.74107,4.2137469 3.92004,6.4291629 1.30537,2.452906 2.48782,4.972162 3.59418,7.522718 1.09615,2.527017 2.1176,5.084827 3.10674,7.653755 0.87195,2.264607 1.71879,4.537879 2.57825,6.809909 0.65283,1.725817 1.31293,3.450901 2.13069,5.104187 0.28816,0.582563 0.59588,1.156208 0.95148,1.700897 0.25489,0.390426 0.53437,0.765979 0.91396,1.056499 0.26768,0.204865 0.58515,0.367453 0.90866,0.380548 0.32352,0.01298 0.65309,-0.123275 0.93646,-0.305844 0.40183,-0.258883 0.71076,-0.610616 0.99637,-0.979142 0.39848,-0.514181 0.75157,-1.061071 1.08588,-1.618431 0.94875,-1.581743 1.74616,-3.247814 2.53637,-4.915211 1.04033,-2.195097 2.06818,-4.392479 3.12036,-6.579165 1.19359,-2.480564 2.41849,-4.947413 3.71534,-7.377544 1.30894,-2.452765 2.69119,-4.868164 4.1906,-7.207504 1.35422,-2.112856 2.80401,-4.163652 4.42698,-6.091202 1.2973,-1.5407639 2.70525,-3.0027879 4.33912,-4.1713849 0.63573,-0.454689 1.30566,-0.864955 2.02398,-1.17825 0.59386,-0.258995 1.22079,-0.451697 1.86769,-0.510371 0.56148,-0.05094 1.13799,0 1.671,0.178478 0.53302,0.179324 1.02254,0.487962 1.43903,0.867918 0.47986,0.437783 0.86278,0.970308 1.17929,1.535599 0.38284,0.683796 0.66851,1.415598 0.90007,2.162104 0.59515,1.9185749 0.83295,3.9343189 0.935,5.9459149 0.12767,2.516604 0.0429,5.026659 -0.15553,7.52839 -0.21969,2.769926 -0.57867,5.529609 -1.01866,8.274785 -0.43592,2.719804 -0.95135,5.425327 -1.50002,8.12292 -0.48367,2.377977 -0.99318,4.749744 -1.49138,7.127269 -0.37843,1.805912 -0.75034,3.615154 -0.95073,5.448723 -0.0706,0.646063 -0.11992,1.295174 -0.11331,1.94564 0.005,0.466231 0.0382,0.933168 0.20184,1.382296 0.11538,0.31671 0.29547,0.624586 0.5611,0.809724 0.26564,0.185138 0.61681,0.247509 0.9539,0.246126 0.47799,-0.0028 0.92765,-0.132193 1.3667,-0.289108 0.61255,-0.218976 1.20445,-0.48991 1.78615,-0.779808 1.65084,-0.822678 3.21949,-1.797869 4.78278,-2.778027 2.05808,-1.290376 4.10687,-2.589389 6.17042,-3.866275 2.34088,-1.448534 4.70074,-2.868619 7.10152,-4.219053 2.42315,-1.36302 4.88797,-2.655062 7.41059,-3.81999 2.27841,-1.052125 4.60395,-2.000533 7.00916,-2.751865 1.92255,-0.600569 3.89602,-1.075239 5.902,-1.180987 0.78051,-0.04115 1.56594,-0.02653 2.33999,0.09604 0.63991,0.101233 1.27203,0.276182 1.84886,0.57483 0.50067,0.259221 0.95964,0.611632 1.31239,1.049613 0.35278,0.43798 0.5993,0.961531 0.74589,1.505938 0.16888,0.627211 0.20506,1.282079 0.16764,1.928904 -0.0453,0.782349 -0.19826,1.552872 -0.40479,2.306687 -0.53081,1.937371 -1.41518,3.76428 -2.41153,5.514792 -1.24644,2.189988 -2.66816,4.260427 -4.18223,6.261777 -1.67637,2.215896 -3.466,4.347069 -5.31136,6.426398 -1.82835,2.060166 -3.71139,4.069475 -5.63539,6.039414 -1.69604,1.736542 -3.42391,3.442491 -5.09233,5.204827 -1.26732,1.338637 -2.50035,2.709813 -3.73338,4.080962"
       id="path16903"
       inkscape:connector-curvature="0" />
  </g>
</svg>
