<?xml version="1.0" encoding="UTF-8" standalone="no"?>
<!-- 2019-08-30 11:23:15 Generated by QCAD 3.23.0 SVG Exporter -->

<svg
   xmlns:dc="http://purl.org/dc/elements/1.1/"
   xmlns:cc="http://creativecommons.org/ns#"
   xmlns:rdf="http://www.w3.org/1999/02/22-rdf-syntax-ns#"
   xmlns:svg="http://www.w3.org/2000/svg"
   xmlns="http://www.w3.org/2000/svg"
   xmlns:sodipodi="http://sodipodi.sourceforge.net/DTD/sodipodi-0.dtd"
   xmlns:inkscape="http://www.inkscape.org/namespaces/inkscape"
   width="1200"
   height="640"
   viewBox="-53.9875 -30.073 338.66667 180.62222"
   version="1.1"
   style="fill:none;stroke-linecap:round;stroke-linejoin:round"
   id="svg2"
   inkscape:version="0.48.5 r10040"
   sodipodi:docname="GreekMeander15Flexing.svg">
  <metadata
     id="metadata138">
    <rdf:RDF>
      <cc:Work
         rdf:about="">
        <dc:format>image/svg+xml</dc:format>
        <dc:type
           rdf:resource="http://purl.org/dc/dcmitype/StillImage" />
        <dc:title></dc:title>
      </cc:Work>
    </rdf:RDF>
  </metadata>
  <defs
     id="defs136" />
  <sodipodi:namedview
     pagecolor="#ffffff"
     bordercolor="#666666"
     borderopacity="1"
     objecttolerance="10"
     gridtolerance="10"
     guidetolerance="10"
     inkscape:pageopacity="0"
     inkscape:pageshadow="2"
     inkscape:window-width="1920"
     inkscape:window-height="1018"
     id="namedview134"
     showgrid="false"
     inkscape:zoom="0.85324218"
     inkscape:cx="600"
     inkscape:cy="320"
     inkscape:window-x="-8"
     inkscape:window-y="-8"
     inkscape:window-maximized="1"
     inkscape:current-layer="layer2"
     fit-margin-top="10"
     fit-margin-left="10"
     fit-margin-right="10"
     fit-margin-bottom="10"
     borderlayer="false" />
  <g
     inkscape:groupmode="layer"
     id="layer1"
     inkscape:label="BaseLine"
     style="display:inline">
    <path
       inkscape:connector-curvature="0"
       style="fill:none;stroke:#ff0000;stroke-width:1.41111112;stroke-linecap:round;stroke-linejoin:round;stroke-miterlimit:4;stroke-dasharray:none;display:inline"
       d="m -25.569754,70.662541 70.72689,0"
       id="path34871" />
    <path
       inkscape:connector-curvature="0"
       style="fill:none;stroke:#ff0000;stroke-width:1.41111112;stroke-linecap:round;stroke-linejoin:round;stroke-miterlimit:4;stroke-dasharray:none;display:inline"
       d="M 45.157136,70.662541 A 81.228289,81.228289 0 0 0 86.948746,59.086915"
       id="path34873" />
    <path
       inkscape:connector-curvature="0"
       style="fill:none;stroke:#ff0000;stroke-width:1.41111112;stroke-linecap:round;stroke-linejoin:round;stroke-miterlimit:4;stroke-dasharray:none;display:inline"
       d="M 86.948746,59.086915 129.59169,33.501212"
       id="path34875" />
    <path
       inkscape:connector-curvature="0"
       style="fill:none;stroke:#ff0000;stroke-width:1.41111112;stroke-linecap:round;stroke-linejoin:round;stroke-miterlimit:4;stroke-dasharray:none;display:inline"
       d="M 251.35329,88.911877 A 81.228289,81.228289 0 0 0 129.59169,33.501212"
       id="path34877" />
  </g>
  <g
     inkscape:groupmode="layer"
     id="layer2"
     inkscape:label="Painters"
     style="display:inline">
    <path
       inkscape:connector-curvature="0"
       style="fill:none;stroke:#000000;stroke-width:1.41111112;stroke-linecap:round;stroke-linejoin:round;stroke-miterlimit:4;stroke-dasharray:none;display:inline"
       d="m -25.569754,50.662581 8.88889,39.999921"
       id="path34531" />
    <path
       inkscape:connector-curvature="0"
       style="fill:none;stroke:#000000;stroke-width:1.41111112;stroke-linecap:round;stroke-linejoin:round;stroke-miterlimit:4;stroke-dasharray:none;display:inline"
       d="m -25.569754,48.884863 2.22222,0.4445"
       id="path34533" />
    <path
       inkscape:connector-curvature="0"
       style="fill:none;stroke:#000000;stroke-width:1.41111112;stroke-linecap:round;stroke-linejoin:round;stroke-miterlimit:4;stroke-dasharray:none;display:inline"
       d="m -23.347534,49.329363 a 4.3122709,4.3122709 0 0 0 6.66667,-1.778"
       id="path34535" />
    <path
       inkscape:connector-curvature="0"
       style="fill:none;stroke:#000000;stroke-width:1.41111112;stroke-linecap:round;stroke-linejoin:round;stroke-miterlimit:4;stroke-dasharray:none;display:inline"
       d="m -16.680864,47.551363 -8.88889,-0.444217"
       id="path34537" />
    <path
       inkscape:connector-curvature="0"
       style="fill:none;stroke:#000000;stroke-width:1.41111112;stroke-linecap:round;stroke-linejoin:round;stroke-miterlimit:4;stroke-dasharray:none;display:inline"
       d="m -18.838644,85.957293 c -0.36856,-0.822114 -0.73712,-1.644227 -1.31822,-2.294749 -0.53157,-0.594925 -1.24099,-1.046198 -1.84133,-1.571414 -2.96938,-2.598984 -3.27047,-7.013786 -3.57156,-11.428589"
       id="path34539" />
    <path
       inkscape:connector-curvature="0"
       style="fill:none;stroke:#000000;stroke-width:1.41111112;stroke-linecap:round;stroke-linejoin:round;stroke-miterlimit:4;stroke-dasharray:none;display:inline"
       d="m -25.569754,41.32921 a 9.3333712,9.3333712 0 1 0 0,18.666742"
       id="path34541" />
    <path
       inkscape:connector-curvature="0"
       style="fill:none;stroke:#000000;stroke-width:1.41111112;stroke-linecap:round;stroke-linejoin:round;stroke-miterlimit:4;stroke-dasharray:none;display:inline"
       d="m -11.347534,90.662502 a 5.3333335,5.3333335 0 1 0 -10.66666,0 5.3333335,5.3333335 0 0 0 10.66666,0 z"
       id="path34543" />
    <path
       inkscape:connector-curvature="0"
       style="fill:none;stroke:#000000;stroke-width:1.41111112;stroke-linecap:round;stroke-linejoin:round;stroke-miterlimit:4;stroke-dasharray:none;display:inline"
       d="m 14.430246,50.662581 8.88889,39.999921"
       id="path34545" />
    <path
       inkscape:connector-curvature="0"
       style="fill:none;stroke:#000000;stroke-width:1.41111112;stroke-linecap:round;stroke-linejoin:round;stroke-miterlimit:4;stroke-dasharray:none;display:inline"
       d="m 14.430246,48.884863 2.22222,0.4445"
       id="path34547" />
    <path
       inkscape:connector-curvature="0"
       style="fill:none;stroke:#000000;stroke-width:1.41111112;stroke-linecap:round;stroke-linejoin:round;stroke-miterlimit:4;stroke-dasharray:none;display:inline"
       d="m 16.652466,49.329363 a 4.3122709,4.3122709 0 0 0 6.66667,-1.778"
       id="path34549" />
    <path
       inkscape:connector-curvature="0"
       style="fill:none;stroke:#000000;stroke-width:1.41111112;stroke-linecap:round;stroke-linejoin:round;stroke-miterlimit:4;stroke-dasharray:none;display:inline"
       d="m 23.319136,47.551363 -8.88889,-0.444217"
       id="path34551" />
    <path
       inkscape:connector-curvature="0"
       style="fill:none;stroke:#000000;stroke-width:1.41111112;stroke-linecap:round;stroke-linejoin:round;stroke-miterlimit:4;stroke-dasharray:none;display:inline"
       d="m 21.161356,85.957293 c -0.36856,-0.822114 -0.73712,-1.644227 -1.31822,-2.294749 -0.53157,-0.594925 -1.24099,-1.046198 -1.84133,-1.571414 -2.96938,-2.598984 -3.27047,-7.013786 -3.57156,-11.428589"
       id="path34553" />
    <path
       inkscape:connector-curvature="0"
       style="fill:none;stroke:#000000;stroke-width:1.41111112;stroke-linecap:round;stroke-linejoin:round;stroke-miterlimit:4;stroke-dasharray:none;display:inline"
       d="m 14.430246,41.32921 a 9.3333712,9.3333712 0 1 0 0,18.666742"
       id="path34555" />
    <path
       inkscape:connector-curvature="0"
       style="fill:none;stroke:#000000;stroke-width:1.41111112;stroke-linecap:round;stroke-linejoin:round;stroke-miterlimit:4;stroke-dasharray:none;display:inline"
       d="m 28.652466,90.662502 a 5.3333334,5.3333334 0 1 0 -10.66666,0 5.3333334,5.3333334 0 1 0 10.66666,0 z"
       id="path34557" />
    <path
       inkscape:connector-curvature="0"
       style="fill:none;stroke:#000000;stroke-width:1.41111112;stroke-linecap:round;stroke-linejoin:round;stroke-miterlimit:4;stroke-dasharray:none;display:inline"
       d="m 52.131856,50.264083 15.471,37.878739"
       id="path34559" />
    <path
       inkscape:connector-curvature="0"
       style="fill:none;stroke:#000000;stroke-width:1.41111112;stroke-linecap:round;stroke-linejoin:round;stroke-miterlimit:4;stroke-dasharray:none;display:inline"
       d="m 51.929336,48.497937 1.6758,0.232551"
       id="path34561" />
    <path
       inkscape:connector-curvature="0"
       style="fill:none;stroke:#000000;stroke-width:1.41111112;stroke-linecap:round;stroke-linejoin:round;stroke-miterlimit:4;stroke-dasharray:none;display:inline"
       d="m 53.605136,48.730488 a 3.2231398,3.2231398 0 0 0 4.43854,-2.625796"
       id="path34563" />
    <path
       inkscape:connector-curvature="0"
       style="fill:none;stroke:#000000;stroke-width:1.41111112;stroke-linecap:round;stroke-linejoin:round;stroke-miterlimit:4;stroke-dasharray:none;display:inline"
       d="m 58.043676,46.104692 -6.31685,0.626816"
       id="path34565" />
    <path
       inkscape:connector-curvature="0"
       style="fill:none;stroke:#000000;stroke-width:1.41111112;stroke-linecap:round;stroke-linejoin:round;stroke-miterlimit:4;stroke-dasharray:none;display:inline"
       d="m 64.052026,84.089828 c -0.59545,-0.726158 -1.1909,-1.452315 -1.95116,-1.963138 -0.72445,-0.486551 -1.59855,-0.777804 -2.35286,-1.191824 -3.44578,-1.890889 -4.39183,-6.346049 -5.33789,-10.800927"
       id="path34567" />
    <path
       inkscape:connector-curvature="0"
       style="fill:none;stroke:#000000;stroke-width:1.41111112;stroke-linecap:round;stroke-linejoin:round;stroke-miterlimit:4;stroke-dasharray:none;display:inline"
       d="m 51.068666,40.99139 a 9.3333334,9.3333334 0 0 0 2.12638,18.545105"
       id="path34569" />
    <path
       inkscape:connector-curvature="0"
       style="fill:none;stroke:#000000;stroke-width:1.41111112;stroke-linecap:round;stroke-linejoin:round;stroke-miterlimit:4;stroke-dasharray:none;display:inline"
       d="m 72.936196,88.142822 a 5.333335,5.333335 0 1 0 -10.66667,0 5.333335,5.333335 0 0 0 10.66667,0 z"
       id="path34571" />
    <path
       inkscape:connector-curvature="0"
       style="fill:none;stroke:#000000;stroke-width:1.41111112;stroke-linecap:round;stroke-linejoin:round;stroke-miterlimit:4;stroke-dasharray:none;display:inline"
       d="M 81.268506,39.171339 109.4705,68.897806"
       id="path34573" />
    <path
       inkscape:connector-curvature="0"
       style="fill:none;stroke:#000000;stroke-width:1.41111112;stroke-linecap:round;stroke-linejoin:round;stroke-miterlimit:4;stroke-dasharray:none;display:inline"
       d="m 80.353846,37.646774 2.13421,-0.762"
       id="path34575" />
    <path
       inkscape:connector-curvature="0"
       style="fill:none;stroke:#000000;stroke-width:1.41111112;stroke-linecap:round;stroke-linejoin:round;stroke-miterlimit:4;stroke-dasharray:none;display:inline"
       d="m 82.488056,36.884774 a 4.3122709,4.3122709 0 0 0 4.80196,-4.954411"
       id="path34577" />
    <path
       inkscape:connector-curvature="0"
       style="fill:none;stroke:#000000;stroke-width:1.41111112;stroke-linecap:round;stroke-linejoin:round;stroke-miterlimit:4;stroke-dasharray:none;display:inline"
       d="m 87.290016,31.930363 -7.85082,4.192129"
       id="path34579" />
    <path
       inkscape:connector-curvature="0"
       style="fill:none;stroke:#000000;stroke-width:1.41111112;stroke-linecap:round;stroke-linejoin:round;stroke-miterlimit:4;stroke-dasharray:none;display:inline"
       d="m 105.19935,65.973137 c -0.73903,-0.515338 -1.47806,-1.030676 -2.31096,-1.289473 -0.76191,-0.236785 -1.60237,-0.258516 -2.38749,-0.400192 -3.883294,-0.700757 -6.412884,-4.331546 -8.942474,-7.962335"
       id="path34581" />
    <path
       inkscape:connector-curvature="0"
       style="fill:none;stroke:#000000;stroke-width:1.41111112;stroke-linecap:round;stroke-linejoin:round;stroke-miterlimit:4;stroke-dasharray:none;display:inline"
       d="m 76.466546,31.168081 a 9.3333334,9.3333334 0 0 0 9.60392,16.006516"
       id="path34583" />
    <path
       inkscape:connector-curvature="0"
       style="fill:none;stroke:#000000;stroke-width:1.41111112;stroke-linecap:round;stroke-linejoin:round;stroke-miterlimit:4;stroke-dasharray:none;display:inline"
       d="m 114.80384,68.897806 a 5.333335,5.333335 0 1 0 -10.66667,0 5.333335,5.333335 0 0 0 10.66667,0 z"
       id="path34585" />
    <path
       inkscape:connector-curvature="0"
       style="fill:none;stroke:#000000;stroke-width:1.41111112;stroke-linecap:round;stroke-linejoin:round;stroke-miterlimit:4;stroke-dasharray:none;display:inline"
       d="m 115.56823,18.591411 27.2921,30.383763"
       id="path34587" />
    <path
       inkscape:connector-curvature="0"
       style="fill:none;stroke:#000000;stroke-width:1.41111112;stroke-linecap:round;stroke-linejoin:round;stroke-miterlimit:4;stroke-dasharray:none;display:inline"
       d="m 114.65357,17.067129 2.13421,-0.762282"
       id="path34589" />
    <path
       inkscape:connector-curvature="0"
       style="fill:none;stroke:#000000;stroke-width:1.41111112;stroke-linecap:round;stroke-linejoin:round;stroke-miterlimit:4;stroke-dasharray:none;display:inline"
       d="m 116.78778,16.304847 a 5.0726561,5.0726561 0 0 0 5.98939,-5.477369"
       id="path34591" />
    <path
       inkscape:connector-curvature="0"
       style="fill:none;stroke:#000000;stroke-width:1.41111112;stroke-linecap:round;stroke-linejoin:round;stroke-miterlimit:4;stroke-dasharray:none;display:inline"
       d="m 122.77717,10.827478 -9.03826,4.715086"
       id="path34593" />
    <path
       inkscape:connector-curvature="0"
       style="fill:none;stroke:#000000;stroke-width:1.41111112;stroke-linecap:round;stroke-linejoin:round;stroke-miterlimit:4;stroke-dasharray:none;display:inline"
       d="m 139.12956,45.647774 c -0.655,-0.572911 -1.31,-1.146104 -2.08381,-1.451751 -0.7003,-0.276577 -1.49791,-0.333869 -2.24513,-0.492477 -3.89247,-0.8255 -6.41747,-4.393918 -8.94247,-7.962336"
       id="path34595" />
    <path
       inkscape:connector-curvature="0"
       style="fill:none;stroke:#000000;stroke-width:1.41111112;stroke-linecap:round;stroke-linejoin:round;stroke-miterlimit:4;stroke-dasharray:none;display:inline"
       d="m 110.76627,10.588153 a 9.3333334,9.3333334 0 0 0 9.60392,16.006517"
       id="path34597" />
    <path
       inkscape:connector-curvature="0"
       style="fill:none;stroke:#000000;stroke-width:1.41111112;stroke-linecap:round;stroke-linejoin:round;stroke-miterlimit:4;stroke-dasharray:none;display:inline"
       d="m 148.19366,48.975174 a 5.333335,5.333335 0 1 0 -10.66667,0 5.333335,5.333335 0 0 0 10.66667,0 z"
       id="path34599" />
    <path
       inkscape:connector-curvature="0"
       style="fill:none;stroke:#000000;stroke-width:1.41111112;stroke-linecap:round;stroke-linejoin:round;stroke-miterlimit:4;stroke-dasharray:none;display:inline"
       d="M 161.11795,2.4474531 171.86384,41.927521"
       id="path34601" />
    <path
       inkscape:connector-curvature="0"
       style="fill:none;stroke:#000000;stroke-width:1.41111112;stroke-linecap:round;stroke-linejoin:round;stroke-miterlimit:4;stroke-dasharray:none;display:inline"
       d="m 160.93767,0.67876614 2.84001,0.195863"
       id="path34603" />
    <path
       inkscape:connector-curvature="0"
       style="fill:none;stroke:#000000;stroke-width:1.41111112;stroke-linecap:round;stroke-linejoin:round;stroke-miterlimit:4;stroke-dasharray:none;display:inline"
       d="M 163.77768,0.87462914 A 5.4199997,5.4199997 0 0 0 172.2022,-1.1822069"
       id="path34605" />
    <path
       inkscape:connector-curvature="0"
       style="fill:none;stroke:#000000;stroke-width:1.41111112;stroke-linecap:round;stroke-linejoin:round;stroke-miterlimit:4;stroke-dasharray:none;display:inline"
       d="m 172.2022,-1.1822069 -11.44481,0.09229"
       id="path34607" />
    <path
       inkscape:connector-curvature="0"
       style="fill:none;stroke:#000000;stroke-width:1.41111112;stroke-linecap:round;stroke-linejoin:round;stroke-miterlimit:4;stroke-dasharray:none;display:inline"
       d="m 170.14936,37.231908 c -0.31076,-0.809414 -0.62153,-1.618827 -1.14978,-2.264551 -0.4612,-0.56388 -1.08819,-1.0033 -1.63544,-1.497472 -2.93648,-2.652324 -3.57726,-6.888762 -4.21803,-11.125482"
       id="path34609" />
    <path
       inkscape:connector-curvature="0"
       style="fill:none;stroke:#000000;stroke-width:1.41111112;stroke-linecap:round;stroke-linejoin:round;stroke-miterlimit:4;stroke-dasharray:none;display:inline"
       d="m 160.17148,-6.8376579 a 9.3333337,9.3333337 0 0 0 1.89295,18.5702219"
       id="path34611" />
    <path
       inkscape:connector-curvature="0"
       style="fill:none;stroke:#000000;stroke-width:1.41111112;stroke-linecap:round;stroke-linejoin:round;stroke-miterlimit:4;stroke-dasharray:none;display:inline"
       d="m 177.19718,41.927521 a 5.333335,5.333335 0 1 0 -10.66667,0 5.333335,5.333335 0 0 0 10.66667,0 z"
       id="path34613" />
    <path
       inkscape:connector-curvature="0"
       style="fill:none;stroke:#000000;stroke-width:1.41111112;stroke-linecap:round;stroke-linejoin:round;stroke-miterlimit:4;stroke-dasharray:none;display:inline"
       d="M 209.94933,9.5600181 200.75317,49.429552"
       id="path34615" />
    <path
       inkscape:connector-curvature="0"
       style="fill:none;stroke:#000000;stroke-width:1.41111112;stroke-linecap:round;stroke-linejoin:round;stroke-miterlimit:4;stroke-dasharray:none;display:inline"
       d="m 210.62663,7.9163551 2.40997,1.515252"
       id="path34617" />
    <path
       inkscape:connector-curvature="0"
       style="fill:none;stroke:#000000;stroke-width:1.41111112;stroke-linecap:round;stroke-linejoin:round;stroke-miterlimit:4;stroke-dasharray:none;display:inline"
       d="m 213.0366,9.4316071 a 5.4199997,5.4199997 0 0 0 8.39602,2.1702879"
       id="path34619" />
    <path
       inkscape:connector-curvature="0"
       style="fill:none;stroke:#000000;stroke-width:1.41111112;stroke-linecap:round;stroke-linejoin:round;stroke-miterlimit:4;stroke-dasharray:none;display:inline"
       d="M 221.43262,11.601895 211.30393,6.2724111"
       id="path34621" />
    <path
       inkscape:connector-curvature="0"
       style="fill:none;stroke:#000000;stroke-width:1.41111112;stroke-linecap:round;stroke-linejoin:round;stroke-miterlimit:4;stroke-dasharray:none;display:inline"
       d="m 201.4624,44.481068 c 0.10881,-0.859931 0.21761,-1.720145 0.0575,-2.538871 -0.13982,-0.715151 -0.48465,-1.398411 -0.73319,-2.092678 -1.33368,-3.725616 0.10468,-7.761676 1.54303,-11.798018"
       id="path34623" />
    <path
       inkscape:connector-curvature="0"
       style="fill:none;stroke:#000000;stroke-width:1.41111112;stroke-linecap:round;stroke-linejoin:round;stroke-miterlimit:4;stroke-dasharray:none;display:inline"
       d="M 213.50515,0.93050914 A 9.3333334,9.3333334 0 1 0 206.39351,18.189244"
       id="path34625" />
    <path
       inkscape:connector-curvature="0"
       style="fill:none;stroke:#000000;stroke-width:1.41111112;stroke-linecap:round;stroke-linejoin:round;stroke-miterlimit:4;stroke-dasharray:none;display:inline"
       d="m 206.0865,49.429552 a 5.333335,5.333335 0 1 0 -10.66667,0 5.333335,5.333335 0 0 0 10.66667,0 z"
       id="path34627" />
    <path
       inkscape:connector-curvature="0"
       style="fill:none;stroke:#000000;stroke-width:1.41111112;stroke-linecap:round;stroke-linejoin:round;stroke-miterlimit:4;stroke-dasharray:none;display:inline"
       d="M 249.61604,38.91367 222.66317,69.698188"
       id="path34629" />
    <path
       inkscape:connector-curvature="0"
       style="fill:none;stroke:#000000;stroke-width:1.41111112;stroke-linecap:round;stroke-linejoin:round;stroke-miterlimit:4;stroke-dasharray:none;display:inline"
       d="m 250.98998,37.785628 1.40725,2.474524"
       id="path34631" />
    <path
       inkscape:connector-curvature="0"
       style="fill:none;stroke:#000000;stroke-width:1.41111112;stroke-linecap:round;stroke-linejoin:round;stroke-miterlimit:4;stroke-dasharray:none;display:inline"
       d="m 252.39723,40.260152 a 5.4199997,5.4199997 0 0 0 6.37232,5.881794"
       id="path34633" />
    <path
       inkscape:connector-curvature="0"
       style="fill:none;stroke:#000000;stroke-width:1.41111112;stroke-linecap:round;stroke-linejoin:round;stroke-miterlimit:4;stroke-dasharray:none;display:inline"
       d="M 258.76955,46.141946 252.3639,36.657303"
       id="path34635" />
    <path
       inkscape:connector-curvature="0"
       style="fill:none;stroke:#000000;stroke-width:1.41111112;stroke-linecap:round;stroke-linejoin:round;stroke-miterlimit:4;stroke-dasharray:none;display:inline"
       d="m 225.62758,65.673135 c 0.50251,-0.706403 1.00503,-1.412805 1.25105,-2.210083 0.2148,-0.696242 0.23408,-1.461346 0.3433,-2.190609 0.58606,-3.913293 3.76174,-6.789984 6.93742,-9.666675"
       id="path34637" />
    <path
       inkscape:connector-curvature="0"
       style="fill:none;stroke:#000000;stroke-width:1.41111112;stroke-linecap:round;stroke-linejoin:round;stroke-miterlimit:4;stroke-dasharray:none;display:inline"
       d="M 256.82919,32.990672 A 9.3333393,9.3333393 0 0 0 242.40292,44.836668"
       id="path34639" />
    <path
       inkscape:connector-curvature="0"
       style="fill:none;stroke:#000000;stroke-width:1.41111112;stroke-linecap:round;stroke-linejoin:round;stroke-miterlimit:4;stroke-dasharray:none;display:inline"
       d="m 227.9965,69.698188 a 5.333335,5.333335 0 1 0 -10.66667,0 5.333335,5.333335 0 0 0 10.66667,0 z"
       id="path34641" />
    <path
       inkscape:connector-curvature="0"
       style="fill:none;stroke:#000000;stroke-width:1.41111112;stroke-linecap:round;stroke-linejoin:round;stroke-miterlimit:4;stroke-dasharray:none;display:inline"
       d="m -25.569754,52.884799 c 1.4869,1.124656 2.97379,2.249029 4.44445,2.222218 1.47065,-0.0254 2.92506,-1.204807 4.44444,-2.222218 9.5128201,-6.369473 21.5723701,-6.435231 31.11111,0 1.52352,1.027853 2.98273,2.221371 4.44445,2.222218 1.46171,0 2.92592,-1.191542 4.44444,-2.222218 8.88334,-6.029678 19.62543,-6.533727 29.06586,-0.412891 1.35508,0.878558 2.68334,1.893429 3.81009,1.700953 1.12674,-0.192758 2.05196,-1.593144 3.03117,-2.867378 5.94712,-7.739662 13.88579,-10.826891 23.18558,-10.22858 1.82352,0.117123 3.69939,0.376203 4.9544,-0.381282 1.25501,-0.757202 1.88918,-2.531251 2.66776,-4.192129 4.87463,-10.398478 15.409924,-16.365503 26.677554,-16.006516 1.80528,0.05757 3.62936,0.277424 4.96929,-0.390031 1.55862,-0.776112 2.46215,-2.753078 3.58085,-4.560147 7.27171,-11.7452429 23.63451,-16.30397786 36.08162,-10.8886979 1.91488,0.83312 3.73709,1.90246 5.50568,1.818358 1.76859,-0.08438 3.48356,-1.321929 5.31135,-2.325511 11.88097,-6.524132 28.52903,-3.16455796 36.94236,7.4636479 1.29433,1.634914 2.39376,3.442265 3.99196,4.205112 1.59819,0.762846 3.69516,0.481471 5.77968,0.461715 13.54972,-0.127282 26.57323,10.802903 29.02429,24.042512 0.37708,2.036798 0.50394,4.128347 1.52959,5.592798 1.02565,1.464451 2.9501,2.301805 4.87457,3.13944"
       id="path34643" />
    <path
       inkscape:connector-curvature="0"
       style="fill:none;stroke:#000000;stroke-width:1.41111112;stroke-linecap:round;stroke-linejoin:round;stroke-miterlimit:4;stroke-dasharray:none;display:inline"
       d="m -25.569754,90.662502 c 13.30551,-0.185138 26.6110201,-0.370558 40,0 14.14656,0.391724 28.3863,1.404055 42.25814,-0.658707 15.78466,-2.347525 31.09298,-8.677205 45.159954,-16.53286 11.70029,-6.533727 22.5418,-14.123529 34.29972,-20.579645 9.08838,-4.990536 18.72427,-9.303456 29.02621,-10.649938 9.94514,-1.299915 20.51098,0.1651 29.53583,4.301914 9.02485,4.136813 16.5087,10.945706 23.99255,17.7546"
       id="path34645" />
    <path
       inkscape:connector-curvature="0"
       style="fill:none;stroke:#000000;stroke-width:1.41111112;stroke-linecap:round;stroke-linejoin:round;stroke-miterlimit:4;stroke-dasharray:none;display:inline"
       d="m -25.569754,60.88467 4.44445,19.555743"
       id="path34647" />
    <path
       inkscape:connector-curvature="0"
       style="fill:none;stroke:#000000;stroke-width:1.41111112;stroke-linecap:round;stroke-linejoin:round;stroke-miterlimit:4;stroke-dasharray:none;display:inline"
       d="m -21.125304,80.440413 4.44444,-19.555743"
       id="path34649" />
    <path
       inkscape:connector-curvature="0"
       style="fill:none;stroke:#000000;stroke-width:1.41111112;stroke-linecap:round;stroke-linejoin:round;stroke-miterlimit:4;stroke-dasharray:none;display:inline"
       d="m -16.680864,60.88467 31.11111,0"
       id="path34651" />
    <path
       inkscape:connector-curvature="0"
       style="fill:none;stroke:#000000;stroke-width:1.41111112;stroke-linecap:round;stroke-linejoin:round;stroke-miterlimit:4;stroke-dasharray:none;display:inline"
       d="m 14.430246,60.88467 4.44445,19.555743"
       id="path34653" />
    <path
       inkscape:connector-curvature="0"
       style="fill:none;stroke:#000000;stroke-width:1.41111112;stroke-linecap:round;stroke-linejoin:round;stroke-miterlimit:4;stroke-dasharray:none;display:inline"
       d="M 18.874696,80.440413 23.319136,60.88467"
       id="path34655" />
    <path
       inkscape:connector-curvature="0"
       style="fill:none;stroke:#000000;stroke-width:1.41111112;stroke-linecap:round;stroke-linejoin:round;stroke-miterlimit:4;stroke-dasharray:none;display:inline"
       d="m 23.319136,60.88467 29.97716,-0.46482"
       id="path34657" />
    <path
       inkscape:connector-curvature="0"
       style="fill:none;stroke:#000000;stroke-width:1.41111112;stroke-linecap:round;stroke-linejoin:round;stroke-miterlimit:4;stroke-dasharray:none;display:inline"
       d="m 53.296296,60.41985 7.15669,18.726009"
       id="path34659" />
    <path
       inkscape:connector-curvature="0"
       style="fill:none;stroke:#000000;stroke-width:1.41111112;stroke-linecap:round;stroke-linejoin:round;stroke-miterlimit:4;stroke-dasharray:none;display:inline"
       d="m 60.452986,79.145859 0.54714,-20.039753"
       id="path34661" />
    <path
       inkscape:connector-curvature="0"
       style="fill:none;stroke:#000000;stroke-width:1.41111112;stroke-linecap:round;stroke-linejoin:round;stroke-miterlimit:4;stroke-dasharray:none;display:inline"
       d="M 61.000126,59.106106 86.527796,47.936879"
       id="path34663" />
    <path
       inkscape:connector-curvature="0"
       style="fill:none;stroke:#000000;stroke-width:1.41111112;stroke-linecap:round;stroke-linejoin:round;stroke-miterlimit:4;stroke-dasharray:none;display:inline"
       d="M 86.527796,47.936879 100.40013,62.41883"
       id="path34665" />
    <path
       inkscape:connector-curvature="0"
       style="fill:none;stroke:#000000;stroke-width:1.41111112;stroke-linecap:round;stroke-linejoin:round;stroke-miterlimit:4;stroke-dasharray:none;display:inline"
       d="M 100.40013,62.41883 94.149956,43.363468"
       id="path34667" />
    <path
       inkscape:connector-curvature="0"
       style="fill:none;stroke:#000000;stroke-width:1.41111112;stroke-linecap:round;stroke-linejoin:round;stroke-miterlimit:4;stroke-dasharray:none;display:inline"
       d="M 94.149956,43.363468 120.82752,27.356952"
       id="path34669" />
    <path
       inkscape:connector-curvature="0"
       style="fill:none;stroke:#000000;stroke-width:1.41111112;stroke-linecap:round;stroke-linejoin:round;stroke-miterlimit:4;stroke-dasharray:none;display:inline"
       d="M 120.82752,27.356952 134.69054,41.84483"
       id="path34671" />
    <path
       inkscape:connector-curvature="0"
       style="fill:none;stroke:#000000;stroke-width:1.41111112;stroke-linecap:round;stroke-linejoin:round;stroke-miterlimit:4;stroke-dasharray:none;display:inline"
       d="M 134.69054,41.84483 128.98846,22.625779"
       id="path34673" />
    <path
       inkscape:connector-curvature="0"
       style="fill:none;stroke:#000000;stroke-width:1.41111112;stroke-linecap:round;stroke-linejoin:round;stroke-miterlimit:4;stroke-dasharray:none;display:inline"
       d="m 128.98846,22.625779 33.16611,-10.00873"
       id="path34675" />
    <path
       inkscape:connector-curvature="0"
       style="fill:none;stroke:#000000;stroke-width:1.41111112;stroke-linecap:round;stroke-linejoin:round;stroke-miterlimit:4;stroke-dasharray:none;display:inline"
       d="m 162.15457,12.617049 5.88128,19.164865"
       id="path34677" />
    <path
       inkscape:connector-curvature="0"
       style="fill:none;stroke:#000000;stroke-width:1.41111112;stroke-linecap:round;stroke-linejoin:round;stroke-miterlimit:4;stroke-dasharray:none;display:inline"
       d="m 168.03585,31.781914 4.0617,-19.631379"
       id="path34679" />
    <path
       inkscape:connector-curvature="0"
       style="fill:none;stroke:#000000;stroke-width:1.41111112;stroke-linecap:round;stroke-linejoin:round;stroke-miterlimit:4;stroke-dasharray:none;display:inline"
       d="m 172.09755,12.150535 33.95731,6.860823"
       id="path34681" />
    <path
       inkscape:connector-curvature="0"
       style="fill:none;stroke:#000000;stroke-width:1.41111112;stroke-linecap:round;stroke-linejoin:round;stroke-miterlimit:4;stroke-dasharray:none;display:inline"
       d="m 206.05486,19.011358 -3.87822,19.668067"
       id="path34683" />
    <path
       inkscape:connector-curvature="0"
       style="fill:none;stroke:#000000;stroke-width:1.41111112;stroke-linecap:round;stroke-linejoin:round;stroke-miterlimit:4;stroke-dasharray:none;display:inline"
       d="M 202.17664,38.679425 215.03691,23.301137"
       id="path34685" />
    <path
       inkscape:connector-curvature="0"
       style="fill:none;stroke:#000000;stroke-width:1.41111112;stroke-linecap:round;stroke-linejoin:round;stroke-miterlimit:4;stroke-dasharray:none;display:inline"
       d="M 215.03691,23.301137 241.71595,45.40083"
       id="path34687" />
    <path
       inkscape:connector-curvature="0"
       style="fill:none;stroke:#000000;stroke-width:1.41111112;stroke-linecap:round;stroke-linejoin:round;stroke-miterlimit:4;stroke-dasharray:none;display:inline"
       d="M 241.71595,45.40083 228.99983,60.898499"
       id="path34689" />
    <path
       inkscape:connector-curvature="0"
       style="fill:none;stroke:#000000;stroke-width:1.41111112;stroke-linecap:round;stroke-linejoin:round;stroke-miterlimit:4;stroke-dasharray:none;display:inline"
       d="m 228.99983,60.898499 18.60281,-7.470987"
       id="path34691" />
    <path
       inkscape:connector-curvature="0"
       style="fill:none;stroke:#000000;stroke-width:1.41111112;stroke-linecap:round;stroke-linejoin:round;stroke-miterlimit:4;stroke-dasharray:none;display:inline"
       d="m -20.925304,52.884799 a 0.20000003,0.20000003 0 1 0 -0.4,0 0.20000003,0.20000003 0 0 0 0.4,0 z"
       id="path34693" />
    <path
       inkscape:connector-curvature="0"
       style="fill:none;stroke:#000000;stroke-width:1.41111112;stroke-linecap:round;stroke-linejoin:round;stroke-miterlimit:4;stroke-dasharray:none;display:inline"
       d="m 19.074696,52.884799 a 0.20000101,0.20000101 0 1 0 -0.4,0 0.20000101,0.20000101 0 0 0 0.4,0 z"
       id="path34695" />
    <path
       inkscape:connector-curvature="0"
       style="fill:none;stroke:#000000;stroke-width:1.41111112;stroke-linecap:round;stroke-linejoin:round;stroke-miterlimit:4;stroke-dasharray:none;display:inline"
       d="m 56.021586,51.982252 a 0.20000003,0.20000003 0 1 0 -0.4,0 0.20000003,0.20000003 0 1 0 0.4,0 z"
       id="path34697" />
    <path
       inkscape:connector-curvature="0"
       style="fill:none;stroke:#000000;stroke-width:1.41111112;stroke-linecap:round;stroke-linejoin:round;stroke-miterlimit:4;stroke-dasharray:none;display:inline"
       d="m 86.422916,38.790339 a 0.20000101,0.20000101 0 1 0 -0.4,0 0.20000101,0.20000101 0 1 0 0.4,0 z"
       id="path34699" />
    <path
       inkscape:connector-curvature="0"
       style="fill:none;stroke:#000000;stroke-width:1.41111112;stroke-linecap:round;stroke-linejoin:round;stroke-miterlimit:4;stroke-dasharray:none;display:inline"
       d="m 120.73964,18.200251 a 0.20000003,0.20000003 0 1 0 -0.4,0 0.20000003,0.20000003 0 1 0 0.4,0 z"
       id="path34701" />
    <path
       inkscape:connector-curvature="0"
       style="fill:none;stroke:#000000;stroke-width:1.41111112;stroke-linecap:round;stroke-linejoin:round;stroke-miterlimit:4;stroke-dasharray:none;display:inline"
       d="m 166.94488,4.2564981 a 0.20000101,0.20000101 0 1 0 -0.4,0 0.20000101,0.20000101 0 1 0 0.4,0 z"
       id="path34703" />
    <path
       inkscape:connector-curvature="0"
       style="fill:none;stroke:#000000;stroke-width:1.41111112;stroke-linecap:round;stroke-linejoin:round;stroke-miterlimit:4;stroke-dasharray:none;display:inline"
       d="m 214.25238,13.814236 a 0.20000003,0.20000003 0 1 0 -0.4,0 0.20000003,0.20000003 0 1 0 0.4,0 z"
       id="path34705" />
    <path
       inkscape:connector-curvature="0"
       style="fill:none;stroke:#000000;stroke-width:1.41111112;stroke-linecap:round;stroke-linejoin:round;stroke-miterlimit:4;stroke-dasharray:none;display:inline"
       d="m 251.42017,44.602423 a 0.20000101,0.20000101 0 1 0 -0.39999,0 0.20000101,0.20000101 0 1 0 0.39999,0 z"
       id="path34707" />
  </g>
</svg>
