<?xml version="1.0" encoding="UTF-8" standalone="no"?>
<!-- 2019-08-30 11:23:15 Generated by QCAD 3.23.0 SVG Exporter -->

<svg
   xmlns:qs="http://qcad.org/namespaces/svg"
   xmlns:dc="http://purl.org/dc/elements/1.1/"
   xmlns:cc="http://creativecommons.org/ns#"
   xmlns:rdf="http://www.w3.org/1999/02/22-rdf-syntax-ns#"
   xmlns:svg="http://www.w3.org/2000/svg"
   xmlns="http://www.w3.org/2000/svg"
   xmlns:sodipodi="http://sodipodi.sourceforge.net/DTD/sodipodi-0.dtd"
   xmlns:inkscape="http://www.inkscape.org/namespaces/inkscape"
   width="1200"
   height="640"
   viewBox="-53.9875 -30.073 338.66667 180.62222"
   version="1.1"
   style="fill:none;stroke-linecap:round;stroke-linejoin:round"
   id="svg2"
   inkscape:version="0.48.5 r10040"
   sodipodi:docname="CelticMeanderHardBend.svg">
  <metadata
     id="metadata138">
    <rdf:RDF>
      <cc:Work
         rdf:about="">
        <dc:format>image/svg+xml</dc:format>
        <dc:type
           rdf:resource="http://purl.org/dc/dcmitype/StillImage" />
        <dc:title></dc:title>
      </cc:Work>
    </rdf:RDF>
  </metadata>
  <defs
     id="defs136" />
  <sodipodi:namedview
     pagecolor="#ffffff"
     bordercolor="#666666"
     borderopacity="1"
     objecttolerance="10"
     gridtolerance="10"
     guidetolerance="10"
     inkscape:pageopacity="0"
     inkscape:pageshadow="2"
     inkscape:window-width="1920"
     inkscape:window-height="1018"
     id="namedview134"
     showgrid="false"
     inkscape:zoom="1"
     inkscape:cx="600"
     inkscape:cy="320"
     inkscape:window-x="-8"
     inkscape:window-y="-8"
     inkscape:window-maximized="1"
     inkscape:current-layer="layer9"
     fit-margin-top="10"
     fit-margin-left="10"
     fit-margin-right="10"
     fit-margin-bottom="10"
     borderlayer="false" />
  <g
     inkscape:groupmode="layer"
     id="layer9"
     inkscape:label="REF"
     style="display:none">
    <path
       style="fill:none;stroke:#ff00ff;stroke-width:0.28222221px;stroke-linecap:butt;stroke-linejoin:miter;stroke-opacity:1"
       d="M -53.994232,-29.327488 -33.168223,71.425354 -53.994232,151.07076"
       id="path28085"
       inkscape:connector-curvature="0"
       sodipodi:nodetypes="ccc" />
  </g>
  <g
     inkscape:groupmode="layer"
     id="layer8"
     inkscape:label="Layer"
     style="display:inline" />
  <g
     inkscape:groupmode="layer"
     id="layer1"
     inkscape:label="BaseLine"
     style="display:inline" />
  <g
     inkscape:groupmode="layer"
     id="layer5"
     inkscape:label="Constructors"
     style="display:inline" />
  <g
     inkscape:groupmode="layer"
     id="layer2"
     inkscape:label="Painters"
     style="display:inline">
    <line
       id="line444"
       qs:layer="layer 1"
       style="fill:none;stroke:#0000ff;stroke-width:0.56444448;stroke-linecap:round;stroke-linejoin:round;stroke-miterlimit:4;stroke-dasharray:none;display:inline"
       y2="106.20538"
       x2="-33.959492"
       y1="36.974407"
       x1="-33.959492" />
    <line
       id="line582"
       qs:layer="layer 1"
       style="fill:none;stroke:#0000ff;stroke-width:0.56444448;stroke-linecap:round;stroke-linejoin:round;stroke-miterlimit:4;stroke-dasharray:none;display:inline"
       y2="106.20538"
       x2="-16.429905"
       y1="36.974407"
       x1="-16.429905" />
    <line
       id="line584"
       qs:layer="layer 1"
       style="fill:none;stroke:#0000ff;stroke-width:0.56444448;stroke-linecap:round;stroke-linejoin:round;stroke-miterlimit:4;stroke-dasharray:none;display:inline"
       y2="106.20538"
       x2="4.7832069"
       y1="36.974407"
       x1="4.7832069" />
    <line
       id="line586"
       qs:layer="layer 1"
       style="fill:none;stroke:#0000ff;stroke-width:0.56444448;stroke-linecap:round;stroke-linejoin:round;stroke-miterlimit:4;stroke-dasharray:none;display:inline"
       y2="106.20538"
       x2="25.996304"
       y1="36.974407"
       x1="25.996304" />
    <line
       id="line588"
       qs:layer="layer 1"
       style="fill:none;stroke:#0000ff;stroke-width:0.56444448;stroke-linecap:round;stroke-linejoin:round;stroke-miterlimit:4;stroke-dasharray:none;display:inline"
       y2="105.99883"
       x2="49.272198"
       y1="36.891399"
       x1="45.140728" />
    <line
       id="line590"
       qs:layer="layer 1"
       style="fill:none;stroke:#0000ff;stroke-width:0.56444448;stroke-linecap:round;stroke-linejoin:round;stroke-miterlimit:4;stroke-dasharray:none;display:inline"
       y2="100.29278"
       x2="78.894821"
       y1="34.595501"
       x1="57.060223" />
    <line
       id="line682"
       qs:layer="layer 1"
       style="fill:none;stroke:#0000ff;stroke-width:0.56444448;stroke-linecap:round;stroke-linejoin:round;stroke-miterlimit:4;stroke-dasharray:none;display:inline"
       y2="78.046677"
       x2="207.24985"
       y1="39.379192"
       x1="264.67609" />
    <line
       id="line688"
       qs:layer="layer 1"
       style="fill:none;stroke:#0000ff;stroke-width:0.56444448;stroke-linecap:round;stroke-linejoin:round;stroke-miterlimit:4;stroke-dasharray:none;display:inline"
       y2="86.929977"
       x2="211.92795"
       y1="61.456833"
       x1="276.30212" />
    <line
       id="line54"
       qs:layer="layer 2"
       style="fill:none;stroke:#ff0000;stroke-width:1.41111124;stroke-linecap:round;stroke-linejoin:round;stroke-miterlimit:4;stroke-dasharray:none;display:inline"
       y2="71.589645"
       x2="42.358929"
       y1="71.589645"
       x1="-33.959492" />
    <path
       inkscape:connector-curvature="0"
       id="path120"
       qs:layer="layer 2"
       style="fill:none;stroke:#ff0000;stroke-width:1.41111124;stroke-linecap:round;stroke-linejoin:round;stroke-miterlimit:4;stroke-dasharray:none;display:inline"
       d="m 42.358906,71.589748 a 81.2283,81.2283 0 0 0 41.7917,-11.5756" />
    <line
       id="line122"
       qs:layer="layer 2"
       style="fill:none;stroke:#ff0000;stroke-width:1.41111124;stroke-linecap:round;stroke-linejoin:round;stroke-miterlimit:4;stroke-dasharray:none;display:inline"
       y2="34.428509"
       x2="126.79349"
       y1="60.013962"
       x1="84.15062" />
    <path
       inkscape:connector-curvature="0"
       id="path124"
       qs:layer="layer 2"
       style="fill:none;stroke:#ff0000;stroke-width:1.41111124;stroke-linecap:round;stroke-linejoin:round;stroke-miterlimit:4;stroke-dasharray:none;display:inline"
       d="m 126.79347,34.428348 a 81.2283,81.2283 0 0 1 121.7616,55.4107" />
    <line
       id="line3640"
       qs:layer="0"
       style="fill:none;stroke:#000000;stroke-width:1.41111124;stroke-linecap:round;stroke-linejoin:round;stroke-miterlimit:4;stroke-dasharray:none"
       y2="58.89716"
       x2="-29.344072"
       y1="84.281921"
       x1="-29.344072" />
    <line
       id="line3646"
       qs:layer="0"
       style="fill:none;stroke:#000000;stroke-width:1.41111124;stroke-linecap:round;stroke-linejoin:round;stroke-miterlimit:4;stroke-dasharray:none"
       y2="54.281925"
       x2="-33.95948"
       y1="88.897156"
       x1="-33.95948" />
    <path
       inkscape:connector-curvature="0"
       id="path3652"
       qs:layer="0"
       style="fill:none;stroke:#000000;stroke-width:1.41111124;stroke-linecap:round;stroke-linejoin:round;stroke-miterlimit:4;stroke-dasharray:none"
       d="m -16.429884,78.932748 c -0.193,-0.2946 -0.3861,-0.5892 -0.5653,-0.8927 m 0,0 c -0.7603,-1.2868 -1.2732,-2.733 -1.5324,-4.2104 m 0,0 c -0.13,-0.7414 -0.1961,-1.4907 -0.1961,-2.24 m 0,0 c 0,-0.7493 0.0661,-1.4986 0.1961,-2.24 m 0,0 c 0.2592,-1.4774 0.7721,-2.9236 1.5324,-4.2104 m 0,0 c 0.1792,-0.3035 0.3723,-0.5981 0.5653,-0.8927" />
    <path
       inkscape:connector-curvature="0"
       id="path3658"
       qs:layer="0"
       style="fill:none;stroke:#000000;stroke-width:1.41111124;stroke-linecap:round;stroke-linejoin:round;stroke-miterlimit:4;stroke-dasharray:none"
       d="m -19.693284,81.942348 c -0.386,-0.5579 -0.7719,-1.1158 -1.1189,-1.6989 m 0,0 c -1.0251,-1.7229 -1.7094,-3.666 -2.0557,-5.6484 m 0,0 c -0.1739,-0.995 -0.2626,-1.9999 -0.2631,-3.0054 m 0,0 c -6e-4,-1.0055 0.0871,-2.0116 0.2631,-3.0054 m 0,0 c 0.3506,-1.98 1.0519,-3.9108 2.0557,-5.6484 m 0,0 c 0.3397,-0.5881 0.7141,-1.154 1.1189,-1.6989 m 0,0 c 0.4963,-0.668 1.0383,-1.3042 1.6319,-1.8858 m 0,0 c 0.5177,-0.5072 1.0746,-0.9728 1.6315,-1.4384" />
    <path
       inkscape:connector-curvature="0"
       id="path3664"
       qs:layer="0"
       style="fill:none;stroke:#000000;stroke-width:1.41111124;stroke-linecap:round;stroke-linejoin:round;stroke-miterlimit:4;stroke-dasharray:none"
       d="m -16.429884,85.266548 c -0.5594,0.404 -1.1188,0.8079 -1.7065,1.1673 m 0,0 c -0.5481,0.3352 -1.1207,0.6318 -1.7065,0.8977 m 0,0 c -0.5574,0.253 -1.1267,0.4784 -1.7066,0.6731 m 0,0 c -0.6193,0.208 -1.2506,0.381 -1.8904,0.515 m 0,0 c -1.1808,0.2473 -2.3905,0.3614 -3.5965,0.3777 m 0,0 c -0.3108,0 -0.6214,0 -0.9319,0 m 0,0 c -1.9966,-0.012 -3.9939,-0.01 -5.9912,0" />
    <path
       inkscape:connector-curvature="0"
       id="path3670"
       qs:layer="0"
       style="fill:none;stroke:#000000;stroke-width:1.41111124;stroke-linecap:round;stroke-linejoin:round;stroke-miterlimit:4;stroke-dasharray:none"
       d="m -29.344084,58.897348 c 0.7688,-0.014 1.5375,-0.028 2.3077,0 m 0,0 c 1.2128,0.043 2.429,0.1895 3.5965,0.5204 m 0,0 c 0.6507,0.1844 1.2863,0.4262 1.8904,0.7269 m 0,0 c 0.6424,0.3197 1.2493,0.706 1.8562,1.0923" />
    <path
       inkscape:connector-curvature="0"
       id="path3676"
       qs:layer="0"
       style="fill:none;stroke:#000000;stroke-width:1.41111124;stroke-linecap:round;stroke-linejoin:round;stroke-miterlimit:4;stroke-dasharray:none"
       d="m -33.959484,54.281948 c 1.9973,0.01 3.9946,0.012 5.9912,0 m 0,0 c 0.3105,0 0.6211,0 0.9319,0 m 0,0 c 1.206,0.016 2.4157,0.1304 3.5965,0.3777 m 0,0 c 0.6398,0.134 1.2711,0.307 1.8904,0.515 m 0,0 c 0.5799,0.1947 1.1492,0.4201 1.7066,0.6731 m 0,0 c 0.5858,0.2659 1.1584,0.5625 1.7065,0.8977 m 0,0 c 0.5877,0.3594 1.1471,0.7633 1.7065,1.1673" />
    <path
       inkscape:connector-curvature="0"
       id="path3682"
       qs:layer="0"
       style="fill:none;stroke:#000000;stroke-width:1.41111124;stroke-linecap:round;stroke-linejoin:round;stroke-miterlimit:4;stroke-dasharray:none"
       d="m -16.429884,78.932748 c -0.5598,0.5773 -1.1196,1.1547 -1.7065,1.7057 m 0,0 c -0.494,0.4638 -1.0071,0.909 -1.5569,1.3039 m 0,0 c -0.5831,0.4188 -1.2075,0.7812 -1.8562,1.0923 m 0,0 c -0.61,0.2926 -1.2417,0.5398 -1.8904,0.7269 m 0,0 c -1.1639,0.3358 -2.3829,0.4781 -3.5965,0.5204 m 0,0 c -0.7707,0.027 -1.5392,0.013 -2.3077,0" />
    <path
       inkscape:connector-curvature="0"
       id="path3808"
       qs:layer="0"
       style="fill:none;stroke:#000000;stroke-width:1.41111124;stroke-linecap:round;stroke-linejoin:round;stroke-miterlimit:4;stroke-dasharray:none"
       d="m -16.429884,64.246548 c 0.5361,-0.5516 1.0721,-1.1033 1.632,-1.6319 m 0,0 c 0.562,-0.5307 1.1482,-1.0381 1.7811,-1.4819 m 0,0 c 1.0886,-0.7633 2.3156,-1.3386 3.5969011,-1.715 m 0,0 c 1.168501,-0.3433 2.382202,-0.5213 3.596603,-0.5204 m 0,0 c 1.2145005,9e-4 2.4297005,0.1809 3.5969005,0.5204 m 0,0 c 0.6503,0.1891 1.28569985,0.4279 1.8899998,0.7269 m 0,0 c 0.58849995,0.2912 1.14749995,0.6396 1.7065,0.9881" />
    <path
       inkscape:connector-curvature="0"
       id="path3814"
       qs:layer="0"
       style="fill:none;stroke:#000000;stroke-width:1.41111124;stroke-linecap:round;stroke-linejoin:round;stroke-miterlimit:4;stroke-dasharray:none"
       d="m -5.8232799,68.326148 c 1.1971005,-1.2009 2.3942005,-2.4019 3.5969005,-3.5969 m 0,0 c 1.2025999,-1.1948 2.41079975,-2.3837 3.5964998,-3.5965 m 0,0 c 0.5874,-0.6008 1.1692,-1.2074 1.7816,-1.7816 m 0,0 c 0.5286,-0.4956 1.0801,-0.967 1.6315001,-1.4384" />
    <path
       inkscape:connector-curvature="0"
       id="path3820"
       qs:layer="0"
       style="fill:none;stroke:#000000;stroke-width:1.41111124;stroke-linecap:round;stroke-linejoin:round;stroke-miterlimit:4;stroke-dasharray:none"
       d="m -16.429884,85.266548 c 0.5768,-0.496 1.1536,-0.9921 1.7066,-1.5134 m 0,0 c 0.585,-0.5517 1.1434,-1.1316 1.7065,-1.7066 m 0,0 c 1.1868,-1.2118 2.3945,-2.4013 3.5969011,-3.5965 m 0,0 c 1.202401,-1.1952 2.3995019,-2.3961 3.5966029,-3.5969" />
    <path
       inkscape:connector-curvature="0"
       id="path3826"
       qs:layer="0"
       style="fill:none;stroke:#000000;stroke-width:1.41111124;stroke-linecap:round;stroke-linejoin:round;stroke-miterlimit:4;stroke-dasharray:none"
       d="m -16.429884,78.932748 c 1.1377,-1.1377 2.2754,-2.2754 3.4131,-3.4131 m 0,0 c 1.31,-1.31 2.62,-2.62 3.9300011,-3.93" />
    <path
       inkscape:connector-curvature="0"
       id="path3832"
       qs:layer="0"
       style="fill:none;stroke:#000000;stroke-width:1.41111124;stroke-linecap:round;stroke-linejoin:round;stroke-miterlimit:4;stroke-dasharray:none"
       d="m -16.429884,64.246548 c 1.1377,1.1377 2.2754,2.2754 3.4131,3.4131 m 0,0 c 1.31,1.31 2.62,2.62 3.9300011,3.93 m 0,0 c 0.5440005,0.544 1.088001,1.0879 1.6319015,1.6319 m 0,0 c 0.5439005,0.5439 1.087701,1.0877 1.6316015,1.6316 m 0,0 c 1.1989005,1.1989 2.3979005,2.3979 3.5969005,3.5969 m 0,0 c 1.1987999,1.1988 2.39769975,2.3977 3.5964998,3.5965" />
    <path
       inkscape:connector-curvature="0"
       id="path3838"
       qs:layer="0"
       style="fill:none;stroke:#000000;stroke-width:1.41111124;stroke-linecap:round;stroke-linejoin:round;stroke-miterlimit:4;stroke-dasharray:none"
       d="m -16.429884,57.912748 c 0.5596,-0.4039 1.1191,-0.8078 1.7066,-1.1673 m 0,0 c 0.5478,-0.3353 1.12,-0.632 1.7065,-0.8977 m 0,0 c 1.1522,-0.522 2.3599,-0.9242 3.5969011,-1.1881 m 0,0 c 1.181001,-0.2519 2.3888019,-0.3777 3.5966029,-0.3777 m 0,0 c 1.2079005,0 2.4158005,0.1257 3.5969005,0.3777 m 0,0 c 1.23689985,0.2639 2.44439975,0.6662 3.5964998,1.1881 m 0,0 c 0.5865001,0.2657 1.1587001,0.5624 1.7066001,0.8977 m 0,0 c 0.5874,0.3595 1.147,0.7634 1.7065,1.1673" />
    <path
       inkscape:connector-curvature="0"
       id="path3844"
       qs:layer="0"
       style="fill:none;stroke:#000000;stroke-width:1.41111124;stroke-linecap:round;stroke-linejoin:round;stroke-miterlimit:4;stroke-dasharray:none"
       d="m -13.016784,61.132748 c 1.199,1.1988 2.398,2.3976 3.5969011,3.5965 m 0,0 c 1.198901,1.1989 2.397702,2.398 3.596603,3.5969 m 0,0 c 1.0878005,1.0879 2.1756005,2.1757 3.2634005,3.2635 m 0,0 c 1.3099999,1.31 2.6199998,2.62 3.9299998,3.93 m 0,0 c 1.1377,1.1377 2.2754,2.2754 3.4131001,3.4131" />
    <path
       inkscape:connector-curvature="0"
       id="path3850"
       qs:layer="0"
       style="fill:none;stroke:#000000;stroke-width:1.41111124;stroke-linecap:round;stroke-linejoin:round;stroke-miterlimit:4;stroke-dasharray:none"
       d="m -2.5598794,71.589648 c 1.3099999,-1.31 2.6199998,-2.62 3.9299998,-3.93 m 0,0 c 1.1377,-1.1377 2.2754,-2.2754 3.4131001,-3.4131" />
    <path
       inkscape:connector-curvature="0"
       id="path3856"
       qs:layer="0"
       style="fill:none;stroke:#000000;stroke-width:1.41111124;stroke-linecap:round;stroke-linejoin:round;stroke-miterlimit:4;stroke-dasharray:none"
       d="m -16.429884,85.266548 c 0.5596,0.4039 1.1191,0.8078 1.7066,1.1673 m 0,0 c 0.5478,0.3353 1.12,0.632 1.7065,0.8977 m 0,0 c 1.1522,0.522 2.3599,0.9242 3.5969011,1.1881 m 0,0 c 1.181001,0.2519 2.3888019,0.3777 3.5966029,0.3777 m 0,0 c 1.2079005,0 2.4158005,-0.1257 3.5969005,-0.3777 m 0,0 c 1.23689985,-0.2639 2.44439975,-0.6662 3.5964998,-1.1881 m 0,0 c 0.5865001,-0.2657 1.1587001,-0.5624 1.7066001,-0.8977 m 0,0 c 0.5874,-0.3595 1.147,-0.7634 1.7065,-1.1673" />
    <path
       inkscape:connector-curvature="0"
       id="path3862"
       qs:layer="0"
       style="fill:none;stroke:#000000;stroke-width:1.41111124;stroke-linecap:round;stroke-linejoin:round;stroke-miterlimit:4;stroke-dasharray:none"
       d="m -13.016784,82.046548 c 0.559,0.3485 1.1181,0.6969 1.7066,0.9881 m 0,0 c 0.6044,0.2991 1.2399,0.5378 1.8903011,0.7269 m 0,0 c 1.167101,0.3394 2.382202,0.5194 3.596603,0.5204 m 0,0 c 1.2145005,0 2.4283005,-0.177 3.5969005,-0.5204 m 0,0 c 1.28119985,-0.3765 2.50799975,-0.9518 3.5964998,-1.715 m 0,0 c 0.6331,-0.4438 1.2194,-0.9512 1.7816,-1.4819 m 0,0 c 0.5598,-0.5285 1.0956,-1.0802 1.6315001,-1.6319" />
    <path
       inkscape:connector-curvature="0"
       id="path3868"
       qs:layer="0"
       style="fill:none;stroke:#000000;stroke-width:1.41111124;stroke-linecap:round;stroke-linejoin:round;stroke-miterlimit:4;stroke-dasharray:none"
       d="m 4.7832205,64.246548 c 0.536,-0.5516 1.0721001,-1.1033 1.6319001,-1.6319 m 0,0 c 0.5621,-0.5307 1.1482,-1.0381 1.7812,-1.4819 m 0,0 c 1.0885,-0.7633 2.3155994,-1.3386 3.5968984,-1.715 m 0,0 c 1.168499,-0.3433 2.382198,-0.5213 3.596497,-0.5204 m 0,0 c 1.2146,9e-4 2.4298,0.1809 3.597,0.5204 m 0,0 c 0.6503,0.1891 1.2857,0.4279 1.89,0.7269 m 0,0 c 0.5885,0.2912 1.1475,0.6396 1.7065,0.9881" />
    <path
       inkscape:connector-curvature="0"
       id="path3874"
       qs:layer="0"
       style="fill:none;stroke:#000000;stroke-width:1.41111124;stroke-linecap:round;stroke-linejoin:round;stroke-miterlimit:4;stroke-dasharray:none"
       d="m 15.389716,68.326148 c 1.1971,-1.2009 2.3942,-2.4019 3.597,-3.5969 m 0,0 c 1.2026,-1.1948 2.4108,-2.3837 3.5965,-3.5965 m 0,0 c 0.5874,-0.6008 1.1692,-1.2074 1.7815,-1.7816 m 0,0 c 0.5287,-0.4956 1.0801,-0.967 1.6316,-1.4384" />
    <path
       inkscape:connector-curvature="0"
       id="path3880"
       qs:layer="0"
       style="fill:none;stroke:#000000;stroke-width:1.41111124;stroke-linecap:round;stroke-linejoin:round;stroke-miterlimit:4;stroke-dasharray:none"
       d="m 4.7832205,85.266548 c 0.5768,-0.496 1.1536001,-0.9921 1.7065001,-1.5134 m 0,0 c 0.5851,-0.5517 1.1435,-1.1316 1.7066,-1.7066 m 0,0 c 1.1868,-1.2118 2.3944994,-2.4013 3.5968984,-3.5965 m 0,0 c 1.202399,-1.1952 2.399498,-2.3961 3.596497,-3.5969" />
    <path
       inkscape:connector-curvature="0"
       id="path3886"
       qs:layer="0"
       style="fill:none;stroke:#000000;stroke-width:1.41111124;stroke-linecap:round;stroke-linejoin:round;stroke-miterlimit:4;stroke-dasharray:none"
       d="m 4.7832205,78.932748 c 1.1377001,-1.1377 2.2754001,-2.2754 3.4131001,-3.4131 m 0,0 c 1.31,-1.31 2.6199994,-2.62 3.9299984,-3.93" />
    <path
       inkscape:connector-curvature="0"
       id="path3892"
       qs:layer="0"
       style="fill:none;stroke:#000000;stroke-width:1.41111124;stroke-linecap:round;stroke-linejoin:round;stroke-miterlimit:4;stroke-dasharray:none"
       d="m 4.7832205,64.246548 c 1.1377001,1.1377 2.2754001,2.2754 3.4131001,3.4131 m 0,0 c 1.31,1.31 2.6199994,2.62 3.9299984,3.93 m 0,0 c 0.543999,0.544 1.087899,1.0879 1.631898,1.6319 m 0,0 c 0.5439,0.5439 1.087699,1.0877 1.631499,1.6316 m 0,0 c 1.199,1.1989 2.398,2.3979 3.597,3.5969 m 0,0 c 1.1988,1.1988 2.3977,2.3977 3.5965,3.5965" />
    <path
       inkscape:connector-curvature="0"
       id="path3898"
       qs:layer="0"
       style="fill:none;stroke:#000000;stroke-width:1.41111124;stroke-linecap:round;stroke-linejoin:round;stroke-miterlimit:4;stroke-dasharray:none"
       d="m 4.7832205,57.912748 c 0.5595,-0.4039 1.1191001,-0.8078 1.7065001,-1.1673 m 0,0 c 0.5479,-0.3353 1.1201,-0.632 1.7066,-0.8977 m 0,0 c 1.1522,-0.522 2.3597994,-0.9242 3.5968984,-1.1881 m 0,0 c 1.180999,-0.2519 2.388798,-0.3777 3.596497,-0.3777 m 0,0 c 1.208,0 2.4159,0.1257 3.597,0.3777 m 0,0 c 1.2369,0.2639 2.4444,0.6662 3.5965,1.1881 m 0,0 c 0.5865,0.2657 1.1587,0.5624 1.7065,0.8977 m 0,0 c 0.5875,0.3595 1.147,0.7634 1.7066,1.1673" />
    <path
       inkscape:connector-curvature="0"
       id="path3904"
       qs:layer="0"
       style="fill:none;stroke:#000000;stroke-width:1.41111124;stroke-linecap:round;stroke-linejoin:round;stroke-miterlimit:4;stroke-dasharray:none"
       d="m 8.1963206,61.132748 c 1.199,1.1988 2.3979994,2.3976 3.5968984,3.5965 m 0,0 c 1.198899,1.1989 2.397698,2.398 3.596497,3.5969 m 0,0 c 1.0878,1.0879 2.1757,2.1757 3.2635,3.2635 m 0,0 c 1.31,1.31 2.62,2.62 3.93,3.93 m 0,0 c 1.1377,1.1377 2.2754,2.2754 3.4131,3.4131" />
    <path
       inkscape:connector-curvature="0"
       id="path3910"
       qs:layer="0"
       style="fill:none;stroke:#000000;stroke-width:1.41111124;stroke-linecap:round;stroke-linejoin:round;stroke-miterlimit:4;stroke-dasharray:none"
       d="m 18.653216,71.589648 c 1.31,-1.31 2.62,-2.62 3.93,-3.93 m 0,0 c 1.1377,-1.1377 2.2754,-2.2754 3.4131,-3.4131" />
    <path
       inkscape:connector-curvature="0"
       id="path3916"
       qs:layer="0"
       style="fill:none;stroke:#000000;stroke-width:1.41111124;stroke-linecap:round;stroke-linejoin:round;stroke-miterlimit:4;stroke-dasharray:none"
       d="m 4.7832205,85.266548 c 0.5595,0.4039 1.1191001,0.8078 1.7065001,1.1673 m 0,0 c 0.5479,0.3353 1.1201,0.632 1.7066,0.8977 m 0,0 c 1.1522,0.522 2.3597994,0.9242 3.5968984,1.1881 m 0,0 c 1.180999,0.2519 2.388798,0.3777 3.596497,0.3777 m 0,0 c 1.208,0 2.4159,-0.1257 3.597,-0.3777 m 0,0 c 1.2369,-0.2639 2.4444,-0.6662 3.5965,-1.1881 m 0,0 c 0.5865,-0.2657 1.1587,-0.5624 1.7065,-0.8977 m 0,0 c 0.5875,-0.3595 1.147,-0.7634 1.7066,-1.1673" />
    <path
       inkscape:connector-curvature="0"
       id="path3922"
       qs:layer="0"
       style="fill:none;stroke:#000000;stroke-width:1.41111124;stroke-linecap:round;stroke-linejoin:round;stroke-miterlimit:4;stroke-dasharray:none"
       d="m 8.1963206,82.046548 c 0.559,0.3485 1.118,0.6969 1.7065,0.9881 m 0,0 c 0.6044994,0.2991 1.2399984,0.5378 1.8903984,0.7269 m 0,0 c 1.167099,0.3394 2.382198,0.5194 3.596497,0.5204 m 0,0 c 1.2146,0 2.4284,-0.177 3.597,-0.5204 m 0,0 c 1.2811,-0.3765 2.508,-0.9518 3.5965,-1.715 m 0,0 c 0.6331,-0.4438 1.2194,-0.9512 1.7815,-1.4819 m 0,0 c 0.5599,-0.5285 1.0957,-1.0802 1.6316,-1.6319" />
    <path
       inkscape:connector-curvature="0"
       id="path3928"
       qs:layer="0"
       style="fill:none;stroke:#000000;stroke-width:1.41111124;stroke-linecap:round;stroke-linejoin:round;stroke-miterlimit:4;stroke-dasharray:none"
       d="m 25.996316,64.246548 c 0.536,-0.5516 1.072,-1.1033 1.6319,-1.6319 m 0,0 c 0.5621,-0.5307 1.1483,-1.0382 1.7812,-1.4819 m 0,0 c 1.0884,-0.7632 2.3151,-1.3378 3.5969,-1.715 m 0,0 c 1.1689,-0.344 2.3836,-0.5238 3.5965,-0.5204 m 0,0 c 1.2131,0 2.4244,0.1899 3.5969,0.5204 m 0,0 c 0.6534,0.1841 1.2947,0.4129 1.89,0.7269 m 0,0 c 0.5316,0.2804 1.0266,0.6287 1.5215,0.977" />
    <path
       inkscape:connector-curvature="0"
       id="path3934"
       qs:layer="0"
       style="fill:none;stroke:#000000;stroke-width:1.41111124;stroke-linecap:round;stroke-linejoin:round;stroke-miterlimit:4;stroke-dasharray:none"
       d="m 36.602816,68.326148 c 1.1979,-1.199 2.3957,-2.398 3.5969,-3.5969 m 0,0 c 1.1725,-1.1702 2.3482,-2.3404 3.4115,-3.6076 m 0,0 c 0.5032,-0.5998 0.9813,-1.2213 1.4809,-1.8246 m 0,0 c 0.4225,-0.5102 0.8603,-1.0075 1.2982,-1.5047" />
    <path
       inkscape:connector-curvature="0"
       id="path3940"
       qs:layer="0"
       style="fill:none;stroke:#000000;stroke-width:1.41111124;stroke-linecap:round;stroke-linejoin:round;stroke-miterlimit:4;stroke-dasharray:none"
       d="m 25.996316,85.266548 c 0.5768,-0.496 1.1536,-0.9921 1.7065,-1.5134 m 0,0 c 0.5851,-0.5517 1.1435,-1.1316 1.7066,-1.7066 m 0,0 c 1.1867,-1.2118 2.3945,-2.4013 3.5969,-3.5965 m 0,0 c 1.2024,-1.1952 2.3995,-2.3961 3.5965,-3.5969" />
    <path
       inkscape:connector-curvature="0"
       id="path3946"
       qs:layer="0"
       style="fill:none;stroke:#000000;stroke-width:1.41111124;stroke-linecap:round;stroke-linejoin:round;stroke-miterlimit:4;stroke-dasharray:none"
       d="m 25.996316,78.932748 c 1.1377,-1.1377 2.2754,-2.2754 3.4131,-3.4131 m 0,0 c 1.31,-1.31 2.62,-2.62 3.93,-3.93" />
    <path
       inkscape:connector-curvature="0"
       id="path3952"
       qs:layer="0"
       style="fill:none;stroke:#000000;stroke-width:1.41111124;stroke-linecap:round;stroke-linejoin:round;stroke-miterlimit:4;stroke-dasharray:none"
       d="m 25.996316,64.246548 c 1.1376,1.1377 2.2753,2.2755 3.4131,3.4131 m 0,0 c 1.31,1.3099 2.6202,2.6197 3.93,3.93 m 0,0 c 0.5438,0.5441 1.0876,1.0883 1.6319,1.6319 m 0,0 c 0.5441,0.5436 1.0888,1.0866 1.6315,1.6316 m 0,0 c 1.1965,1.2015 2.3837,2.4125 3.5969,3.5969 m 0,0 c 1.2424,1.2127 2.5119,2.3975 3.7815,3.5822" />
    <path
       inkscape:connector-curvature="0"
       id="path3958"
       qs:layer="0"
       style="fill:none;stroke:#000000;stroke-width:1.41111124;stroke-linecap:round;stroke-linejoin:round;stroke-miterlimit:4;stroke-dasharray:none"
       d="m 25.996316,57.912748 c 0.5595,-0.4039 1.1191,-0.8078 1.7065,-1.1673 m 0,0 c 0.5479,-0.3353 1.12,-0.632 1.7066,-0.8977 m 0,0 c 1.1522,-0.5221 2.3598,-0.9247 3.5969,-1.1881 m 0,0 c 1.181,-0.2514 2.3889,-0.3759 3.5965,-0.3777 m 0,0 c 1.2077,0 2.4151,0.119 3.5969,0.3777 m 0,0 c 1.1506,0.2518 2.2769,0.6343 3.318,1.1778 m 0,0 c 0.488,0.2549 0.9574,0.5451 1.4099,0.8583 m 0,0 c 0.5013,0.3468 0.982,0.7217 1.4627,1.0966" />
    <path
       inkscape:connector-curvature="0"
       id="path3964"
       qs:layer="0"
       style="fill:none;stroke:#000000;stroke-width:1.41111124;stroke-linecap:round;stroke-linejoin:round;stroke-miterlimit:4;stroke-dasharray:none"
       d="m 29.409416,61.132748 c 1.1991,1.1986 2.3982,2.3973 3.5969,3.5965 m 0,0 c 1.1986,1.1992 2.3969,2.399 3.5965,3.5969 m 0,0 c 1.0885,1.087 2.1782,2.1725 3.2635,3.2635 m 0,0 c 1.3163,1.3233 2.626,2.6547 3.9994,3.9167 m 0,0 c 1.2259,1.1264 2.5024,2.1974 3.779,3.2685" />
    <path
       inkscape:connector-curvature="0"
       id="path3970"
       qs:layer="0"
       style="fill:none;stroke:#000000;stroke-width:1.41111124;stroke-linecap:round;stroke-linejoin:round;stroke-miterlimit:4;stroke-dasharray:none"
       d="m 39.866316,71.589648 c 1.3103,-1.2924 2.6206,-2.5849 3.8604,-3.9421 m 0,0 c 1.0474,-1.1467 2.0445,-2.3397 3.0416,-3.5327" />
    <path
       inkscape:connector-curvature="0"
       id="path3976"
       qs:layer="0"
       style="fill:none;stroke:#000000;stroke-width:1.41111124;stroke-linecap:round;stroke-linejoin:round;stroke-miterlimit:4;stroke-dasharray:none"
       d="m 25.996316,85.266548 c 0.5595,0.4039 1.1191,0.8078 1.7065,1.1673 m 0,0 c 0.5479,0.3353 1.1201,0.6321 1.7066,0.8977 m 0,0 c 1.1522,0.5219 2.3598,0.9237 3.5969,1.1881 m 0,0 c 1.181,0.2525 2.389,0.3797 3.5965,0.3777 m 0,0 c 1.2077,0 2.4149,-0.1335 3.5969,-0.3777 m 0,0 c 1.3261,-0.274 2.6204,-0.69 3.875,-1.2033 m 0,0 c 0.6858,-0.2805 1.3597,-0.59 2.0017,-0.9544 m 0,0 c 0.672,-0.3814 1.3092,-0.823 1.9463,-1.2645" />
    <path
       inkscape:connector-curvature="0"
       id="path3982"
       qs:layer="0"
       style="fill:none;stroke:#000000;stroke-width:1.41111124;stroke-linecap:round;stroke-linejoin:round;stroke-miterlimit:4;stroke-dasharray:none"
       d="m 29.409416,82.046548 c 0.559,0.3485 1.118,0.697 1.7065,0.9881 m 0,0 c 0.6044,0.299 1.2399,0.5375 1.8904,0.7269 m 0,0 c 1.1671,0.3398 2.3825,0.5215 3.5965,0.5204 m 0,0 c 1.2141,0 2.4268,-0.185 3.5969,-0.5204 m 0,0 c 1.3389,-0.3837 2.6221,-0.9657 3.7815,-1.7293 m 0,0 c 0.6929,-0.4563 1.3415,-0.9775 1.9513,-1.5384 m 0,0 c 0.5955,-0.5477 1.1538,-1.1334 1.7122,-1.719" />
    <path
       inkscape:connector-curvature="0"
       id="path3988"
       qs:layer="0"
       style="fill:none;stroke:#000000;stroke-width:1.41111124;stroke-linecap:round;stroke-linejoin:round;stroke-miterlimit:4;stroke-dasharray:none"
       d="m 46.768316,64.114848 c 0.4457,-0.5799 0.8915,-1.1599 1.3506,-1.7302 m 0,0 c 0.4513,-0.5605 0.9154,-1.1118 1.4273,-1.6178 m 0,0 c 0.8397,-0.8301 1.8078,-1.5386 2.8601,-2.084 m 0,0 c 0.9189,-0.4761 1.9019,-0.8278 2.9158,-1.0226 m 0,0 c 1.014,-0.1949 2.0588,-0.2328 3.0874,-0.1337 m 0,0 c 0.5896,0.057 1.1738,0.1587 1.7436,0.3113 m 0,0 c 0.5716,0.153 1.1286,0.3571 1.6856,0.5612" />
    <path
       inkscape:connector-curvature="0"
       id="path3994"
       qs:layer="0"
       style="fill:none;stroke:#000000;stroke-width:1.41111124;stroke-linecap:round;stroke-linejoin:round;stroke-miterlimit:4;stroke-dasharray:none"
       d="m 57.105516,66.918848 c 0.8647,-1.3978 1.7294,-2.7956 2.5385,-4.2262 m 0,0 c 0.7914,-1.3993 1.5296,-2.8301 2.1947,-4.2936 m 0,0 c 0.3241,-0.7133 0.6308,-1.4343 0.9596,-2.1451 m 0,0 c 0.2781,-0.6012 0.5718,-1.195 0.8656,-1.7889" />
    <path
       inkscape:connector-curvature="0"
       id="path4000"
       qs:layer="0"
       style="fill:none;stroke:#000000;stroke-width:1.41111124;stroke-linecap:round;stroke-linejoin:round;stroke-miterlimit:4;stroke-dasharray:none"
       d="m 48.022716,85.097448 c 0.6345,-0.5368 1.269,-1.0735 1.8669,-1.6485 m 0,0 c 0.6209,-0.5971 1.2023,-1.2356 1.7806,-1.8764 m 0,0 c 1.1989,-1.3288 2.3845,-2.6681 3.5052,-4.0599 m 0,0 c 1.0962,-1.3614 2.1304,-2.773 3.1646,-4.1847" />
    <path
       inkscape:connector-curvature="0"
       id="path4006"
       qs:layer="0"
       style="fill:none;stroke:#000000;stroke-width:1.41111124;stroke-linecap:round;stroke-linejoin:round;stroke-miterlimit:4;stroke-dasharray:none"
       d="m 47.644716,78.774848 c 1.1408,-1.2149 2.2816,-2.4298 3.3626,-3.6955 m 0,0 c 1.2169,-1.4248 2.3582,-2.914 3.4994,-4.4032" />
    <path
       inkscape:connector-curvature="0"
       id="path4012"
       qs:layer="0"
       style="fill:none;stroke:#000000;stroke-width:1.41111124;stroke-linecap:round;stroke-linejoin:round;stroke-miterlimit:4;stroke-dasharray:none"
       d="m 46.768316,64.114848 c 1.1331,1.064 2.2663,2.1279 3.4408,3.1452 m 0,0 c 1.3831,1.1979 2.8234,2.3311 4.2976,3.4161 m 0,0 c 0.6228,0.4584 1.2517,0.9082 1.8874,1.3481 m 0,0 c 0.642,0.4442 1.2911,0.8783 1.9459,1.3037 m 0,0 c 1.467,0.953 2.9632,1.8626 4.4931,2.7097 m 0,0 c 1.5639,0.8659 3.163,1.6667 4.7621,2.4674" />
    <path
       inkscape:connector-curvature="0"
       id="path4018"
       qs:layer="0"
       style="fill:none;stroke:#000000;stroke-width:1.41111124;stroke-linecap:round;stroke-linejoin:round;stroke-miterlimit:4;stroke-dasharray:none"
       d="m 46.390316,57.792348 c 0.4319,-0.4306 0.8638,-0.8613 1.3215,-1.2631 m 0,0 c 0.4133,-0.3628 0.8476,-0.7022 1.2977,-1.0201 m 0,0 c 0.8478,-0.5988 1.7518,-1.1212 2.7045,-1.5337 m 0,0 c 0.8774,-0.3799 1.7961,-0.6664 2.7351,-0.8473 m 0,0 c 0.9392,-0.1809 1.8987,-0.2562 2.8545,-0.2294 m 0,0 c 1.0376,0.029 2.0709,0.1785 3.0804,0.4194 m 0,0 c 0.536,0.128 1.0653,0.2818 1.5838,0.4651 m 0,0 c 0.5742,0.2031 1.1352,0.4424 1.6961,0.6818" />
    <path
       inkscape:connector-curvature="0"
       id="path4024"
       qs:layer="0"
       style="fill:none;stroke:#000000;stroke-width:1.41111124;stroke-linecap:round;stroke-linejoin:round;stroke-miterlimit:4;stroke-dasharray:none"
       d="m 49.546216,60.766848 c 1.1962,1.0746 2.3924,2.1492 3.6329,3.1711 m 0,0 c 1.2682,1.0446 2.5828,2.034 3.9264,2.9809 m 0,0 c 1.2451,0.8775 2.5152,1.7185 3.8086,2.5231 m 0,0 c 1.5923,0.9906 3.2199,1.9261 4.8846,2.7883 m 0,0 c 1.4788,0.7659 2.9867,1.4739 4.4947,2.182" />
    <path
       inkscape:connector-curvature="0"
       id="path4030"
       qs:layer="0"
       style="fill:none;stroke:#000000;stroke-width:1.41111124;stroke-linecap:round;stroke-linejoin:round;stroke-miterlimit:4;stroke-dasharray:none"
       d="m 60.914116,69.441948 c 0.9372,-1.5735 1.8744,-3.147 2.7211,-4.7681 m 0,0 c 0.719,-1.3765 1.3727,-2.7874 2.0264,-4.1982" />
    <path
       inkscape:connector-curvature="0"
       id="path4036"
       qs:layer="0"
       style="fill:none;stroke:#000000;stroke-width:1.41111124;stroke-linecap:round;stroke-linejoin:round;stroke-miterlimit:4;stroke-dasharray:none"
       d="m 48.022716,85.097448 c 0.6854,0.3615 1.3709,0.723 2.083,1.0236 m 0,0 c 0.6805,0.2872 1.3853,0.5187 2.1012,0.7092 m 0,0 c 1.4463,0.3847 2.9378,0.6015 4.4336,0.6449 m 0,0 c 1.4591,0.042 2.9223,-0.08 4.3559,-0.3564 m 0,0 c 1.4338,-0.2762 2.838,-0.7059 4.1771,-1.2873 m 0,0 c 1.3725,-0.5959 2.6766,-1.3512 3.8764,-2.2456 m 0,0 c 0.5939,-0.4427 1.1623,-0.9195 1.6874,-1.4389 m 0,0 c 0.5495,-0.5436 1.0516,-1.1339 1.5538,-1.7241" />
    <path
       inkscape:connector-curvature="0"
       id="path4042"
       qs:layer="0"
       style="fill:none;stroke:#000000;stroke-width:1.41111124;stroke-linecap:round;stroke-linejoin:round;stroke-miterlimit:4;stroke-dasharray:none"
       d="m 51.670216,81.572548 c 0.6707,0.2792 1.3414,0.5585 2.035,0.7649 m 0,0 c 0.7287,0.2169 1.4827,0.3534 2.243,0.4302 m 0,0 c 1.3912,0.1407 2.8033,0.082 4.1753,-0.181 m 0,0 c 1.372,-0.2628 2.7039,-0.7293 3.9441,-1.3829 m 0,0 c 1.3179,-0.6946 2.5323,-1.6004 3.5276,-2.6987 m 0,0 c 0.5569,-0.6145 1.0452,-1.2892 1.488,-1.99 m 0,0 c 0.4323,-0.6844 0.8213,-1.3936 1.2102,-2.1028" />
    <path
       inkscape:connector-curvature="0"
       id="path4048"
       qs:layer="0"
       style="fill:none;stroke:#000000;stroke-width:1.41111124;stroke-linecap:round;stroke-linejoin:round;stroke-miterlimit:4;stroke-dasharray:none"
       d="m 65.661616,60.475648 c 0.2809,-0.6754 0.5618,-1.3508 0.8581,-2.0203 m 0,0 c 0.2912,-0.658 0.5973,-1.3104 0.9612,-1.9315 m 0,0 c 0.5968,-1.0187 1.3492,-1.9532 2.225,-2.7517 m 0,0 c 0.7648,-0.6973 1.6237,-1.2909 2.5529,-1.7409 m 0,0 c 0.9293,-0.45 1.9288,-0.7565 2.9482,-0.9263 m 0,0 c 0.5842,-0.097 1.175,-0.1497 1.7649,-0.1494 m 0,0 c 0.5917,3e-4 1.1825,0.054 1.7733,0.1069" />
    <path
       inkscape:connector-curvature="0"
       id="path4054"
       qs:layer="0"
       style="fill:none;stroke:#000000;stroke-width:1.41111124;stroke-linecap:round;stroke-linejoin:round;stroke-miterlimit:4;stroke-dasharray:none"
       d="m 76.372316,60.515548 c 0.4862,-1.5715 0.9724,-3.143 1.3612,-4.7384 m 0,0 c 0.3803,-1.5604 0.6675,-3.1437 1.0117,-4.7147 m 0,0 c 0.1796,-0.8198 0.3748,-1.6363 0.6073,-2.442 m 0,0 c 0.2011,-0.6963 0.43,-1.3846 0.659,-2.0729" />
    <path
       inkscape:connector-curvature="0"
       id="path4060"
       qs:layer="0"
       style="fill:none;stroke:#000000;stroke-width:1.41111124;stroke-linecap:round;stroke-linejoin:round;stroke-miterlimit:4;stroke-dasharray:none"
       d="m 72.291116,80.422848 c 0.4744,-0.6824 0.9488,-1.3648 1.3779,-2.0746 m 0,0 c 0.4457,-0.7372 0.8426,-1.5041 1.2357,-2.2725 m 0,0 c 0.8153,-1.5934 1.6148,-3.1933 2.3382,-4.8273 m 0,0 c 0.7076,-1.5983 1.3422,-3.2291 1.9769,-4.8599" />
    <path
       inkscape:connector-curvature="0"
       id="path4066"
       qs:layer="0"
       style="fill:none;stroke:#000000;stroke-width:1.41111124;stroke-linecap:round;stroke-linejoin:round;stroke-miterlimit:4;stroke-dasharray:none"
       d="m 70.293416,74.412248 c 0.7884,-1.4682 1.5769,-2.9365 2.2945,-4.4384 m 0,0 c 0.8077,-1.6907 1.5258,-3.4241 2.2438,-5.1574" />
    <path
       inkscape:connector-curvature="0"
       id="path4072"
       qs:layer="0"
       style="fill:none;stroke:#000000;stroke-width:1.41111124;stroke-linecap:round;stroke-linejoin:round;stroke-miterlimit:4;stroke-dasharray:none"
       d="m 65.661616,60.475648 c 1.3694,0.7353 2.7389,1.4706 4.1362,2.1501 m 0,0 c 1.6455,0.8002 3.3296,1.5231 5.0339,2.1907 m 0,0 c 0.7201,0.282 1.4437,0.5542 2.1715,0.815 m 0,0 c 0.7349,0.2634 1.4741,0.5152 2.2166,0.7571 m 0,0 c 1.6632,0.5419 3.3435,1.0343 5.0403,1.4577 m 0,0 c 1.7344,0.4328 3.4861,0.7935 5.2377,1.1542" />
    <path
       inkscape:connector-curvature="0"
       id="path4078"
       qs:layer="0"
       style="fill:none;stroke:#000000;stroke-width:1.41111124;stroke-linecap:round;stroke-linejoin:round;stroke-miterlimit:4;stroke-dasharray:none"
       d="m 63.663916,54.465048 c 0.3061,-0.5275 0.6122,-1.0551 0.9507,-1.5615 m 0,0 c 0.3055,-0.4572 0.6375,-0.8971 0.9903,-1.3205 m 0,0 c 0.6644,-0.7976 1.4029,-1.5366 2.2168,-2.18 m 0,0 c 0.7496,-0.5926 1.5632,-1.104 2.4236,-1.5248 m 0,0 c 0.8605,-0.4208 1.7677,-0.751 2.6984,-0.9586 m 0,0 c 1.0105,-0.2254 2.0486,-0.3062 3.0843,-0.3901 m 0,0 c 0.6404,-0.052 1.28,-0.105 1.9196,-0.1049 m 0,0 c 0.6879,0 1.3759,0.061 2.0639,0.1229" />
    <path
       inkscape:connector-curvature="0"
       id="path4084"
       qs:layer="0"
       style="fill:none;stroke:#000000;stroke-width:1.41111124;stroke-linecap:round;stroke-linejoin:round;stroke-miterlimit:4;stroke-dasharray:none"
       d="m 67.480916,56.523848 c 1.433,0.7297 2.866,1.4595 4.3285,2.1256 m 0,0 c 1.4951,0.6809 3.021,1.2953 4.5629,1.8661 m 0,0 c 1.4289,0.5289 2.8715,1.0203 4.3309,1.4542 m 0,0 c 1.7967,0.5341 3.6188,0.9809 5.4389,1.4325 m 0,0 c 1.5623,0.3876 3.1232,0.7787 4.6841,1.1698" />
    <path
       inkscape:connector-curvature="0"
       id="path4090"
       qs:layer="0"
       style="fill:none;stroke:#000000;stroke-width:1.41111124;stroke-linecap:round;stroke-linejoin:round;stroke-miterlimit:4;stroke-dasharray:none"
       d="m 80.703216,61.969748 c 0.4719,-1.7682 0.9438,-3.5363 1.3977,-5.3091 m 0,0 c 0.3991,-1.5582 0.7842,-3.12 1.1693,-4.6818" />
    <path
       inkscape:connector-curvature="0"
       id="path4096"
       qs:layer="0"
       style="fill:none;stroke:#000000;stroke-width:1.41111124;stroke-linecap:round;stroke-linejoin:round;stroke-miterlimit:4;stroke-dasharray:none"
       d="m 72.291116,80.422848 c 0.7555,0.1722 1.511,0.3445 2.2767,0.4511 m 0,0 c 0.7315,0.1017 1.4723,0.1435 2.213,0.1426 m 0,0 c 1.4964,0 2.9925,-0.1781 4.4498,-0.5217 m 0,0 c 1.4216,-0.3351 2.8062,-0.8295 4.1162,-1.469 m 0,0 c 1.3101,-0.6396 2.5454,-1.4244 3.7031,-2.3221 m 0,0 c 1.1866,-0.9202 2.2916,-1.959 3.1651,-3.1703 m 0,0 c 0.3771,-0.523 0.7111,-1.0781 1.0072,-1.6512 m 0,0 c 0.3164,-0.6126 0.5896,-1.2458 0.8627,-1.8789" />
    <path
       inkscape:connector-curvature="0"
       id="path4102"
       qs:layer="0"
       style="fill:none;stroke:#000000;stroke-width:1.41111124;stroke-linecap:round;stroke-linejoin:round;stroke-miterlimit:4;stroke-dasharray:none"
       d="m 74.904716,76.075748 c 0.7201,0.097 1.4402,0.1932 2.1636,0.2135 m 0,0 c 0.7599,0.021 1.5233,-0.042 2.278,-0.1635 m 0,0 c 1.381,-0.223 2.7325,-0.6436 3.9869,-1.2529 m 0,0 c 1.2546,-0.6094 2.4121,-1.4075 3.4534,-2.3544 m 0,0 c 1.1066,-1.0063 2.0821,-2.1807 2.7112,-3.518 m 0,0 c 0.3287,-0.6988 0.5629,-1.442 0.769,-2.1896 m 0,0 c 0.2049,-0.7434 0.3822,-1.4911 0.5594,-2.2388" />
    <path
       inkscape:connector-curvature="0"
       id="path4108"
       qs:layer="0"
       style="fill:none;stroke:#000000;stroke-width:1.41111124;stroke-linecap:round;stroke-linejoin:round;stroke-miterlimit:4;stroke-dasharray:none"
       d="m 83.270216,51.978848 c 0.1758,-0.7489 0.3516,-1.4977 0.5598,-2.239 m 0,0 c 0.2089,-0.7443 0.4505,-1.4809 0.7649,-2.1871 m 0,0 c 0.5407,-1.2146 1.2969,-2.3392 2.2019,-3.3212 m 0,0 c 0.8254,-0.8956 1.7745,-1.6727 2.8163,-2.2967 m 0,0 c 1.0419,-0.624 2.1766,-1.095 3.3521,-1.4044 m 0,0 c 0.6549,-0.1723 1.3226,-0.2945 1.9946,-0.349 m 0,0 c 0.6545,-0.053 1.3131,-0.042 1.9717,-0.031" />
    <path
       inkscape:connector-curvature="0"
       id="path4114"
       qs:layer="0"
       style="fill:none;stroke:#000000;stroke-width:1.41111124;stroke-linecap:round;stroke-linejoin:round;stroke-miterlimit:4;stroke-dasharray:none"
       d="m 94.464216,50.020048 c 0.4086,-1.6457 0.8172,-3.2915 1.2337,-4.9349 m 0,0 c 0.4165,-1.6434 0.8409,-3.2844 1.2336,-4.9345 m 0,0 c 0.1946,-0.8173 0.3814,-1.6368 0.6111,-2.4442 m 0,0 c 0.1983,-0.697 0.4286,-1.385 0.6589,-2.0729" />
    <path
       inkscape:connector-curvature="0"
       id="path4120"
       qs:layer="0"
       style="fill:none;stroke:#000000;stroke-width:1.41111124;stroke-linecap:round;stroke-linejoin:round;stroke-miterlimit:4;stroke-dasharray:none"
       d="m 94.084916,70.003348 c 0.2394,-0.7221 0.4788,-1.4443 0.6847,-2.1758 m 0,0 c 0.2179,-0.774 0.3983,-1.5586 0.5853,-2.3414 m 0,0 c 0.3942,-1.6497 0.8178,-3.2911 1.234,-4.9346 m 0,0 c 0.4161,-1.6435 0.8247,-3.2891 1.2334,-4.9347" />
    <path
       inkscape:connector-curvature="0"
       id="path4126"
       qs:layer="0"
       style="fill:none;stroke:#000000;stroke-width:1.41111124;stroke-linecap:round;stroke-linejoin:round;stroke-miterlimit:4;stroke-dasharray:none"
       d="m 90.826216,64.572048 c 0.3902,-1.5609 0.7804,-3.1218 1.1707,-4.6827 m 0,0 c 0.4493,-1.7973 0.8986,-3.5946 1.3479,-5.3919" />
    <path
       inkscape:connector-curvature="0"
       id="path4132"
       qs:layer="0"
       style="fill:none;stroke:#000000;stroke-width:1.41111124;stroke-linecap:round;stroke-linejoin:round;stroke-miterlimit:4;stroke-dasharray:none"
       d="m 83.270216,51.978848 c 1.5609,0.3902 3.1218,0.7804 4.6827,1.1706 m 0,0 c 1.7973,0.4494 3.5946,0.8987 5.3919,1.348 m 0,0 c 0.7464,0.1866 1.4927,0.3732 2.239,0.5598 m 0,0 c 0.7462,0.1865 1.4923,0.373 2.2385,0.5596 m 0,0 c 1.6449,0.4112 3.289894,0.8225 4.934884,1.2337 m 0,0 c 1.64479,0.4112 3.28958,0.8224 4.93438,1.2336" />
    <path
       inkscape:connector-curvature="0"
       id="path4138"
       qs:layer="0"
       style="fill:none;stroke:#000000;stroke-width:1.41111124;stroke-linecap:round;stroke-linejoin:round;stroke-miterlimit:4;stroke-dasharray:none"
       d="m 80.011516,46.547548 c 0.272,-0.6342 0.544,-1.2684 0.8628,-1.8789 m 0,0 c 0.2972,-0.5694 0.6352,-1.1182 1.0014,-1.6478 m 0,0 c 0.7195,-1.0404 1.5481,-2.0066 2.4731,-2.8694 m 0,0 c 0.8831,-0.8236 1.854,-1.5528 2.8897,-2.1742 m 0,0 c 1.0358,-0.6215 2.1362,-1.1352 3.2787,-1.5268 m 0,0 c 1.1964,-0.4101 2.4388,-0.6864 3.6952,-0.8316 m 0,0 c 0.6397,-0.074 1.2829,-0.1139 1.9252,-0.1082 m 0,0 c 0.6887,0.01 1.3763,0.064 2.0639,0.1229" />
    <path
       inkscape:connector-curvature="0"
       id="path4144"
       qs:layer="0"
       style="fill:none;stroke:#000000;stroke-width:1.41111124;stroke-linecap:round;stroke-linejoin:round;stroke-miterlimit:4;stroke-dasharray:none"
       d="m 84.594916,47.552748 c 1.6449,0.411 3.2898,0.8221 4.9347,1.2334 m 0,0 c 1.6449,0.4112 3.2897,0.8226 4.9346,1.2339 m 0,0 c 1.4925,0.3732 2.9849,0.7462 4.4774,1.1194 m 0,0 c 1.797294,0.4493 3.594584,0.8986 5.391874,1.3479 m 0,0 c 1.56089,0.3903 3.12179,0.7805 4.68269,1.1707" />
    <path
       inkscape:connector-curvature="0"
       id="path4150"
       qs:layer="0"
       style="fill:none;stroke:#000000;stroke-width:1.41111124;stroke-linecap:round;stroke-linejoin:round;stroke-miterlimit:4;stroke-dasharray:none"
       d="m 98.941616,51.139448 c 0.4494,-1.7974 0.8987,-3.5947 1.348004,-5.392 m 0,0 c 0.39019,-1.5609 0.78049,-3.1218 1.17069,-4.6827" />
    <path
       inkscape:connector-curvature="0"
       id="path4156"
       qs:layer="0"
       style="fill:none;stroke:#000000;stroke-width:1.41111124;stroke-linecap:round;stroke-linejoin:round;stroke-miterlimit:4;stroke-dasharray:none"
       d="m 94.084916,70.003348 c 0.6876,0.058 1.3752,0.1169 2.0639,0.1229 m 0,0 c 0.6423,0.01 1.2856,-0.034 1.9252,-0.1082 m 0,0 c 1.2566,-0.1453 2.499094,-0.4217 3.695584,-0.8319 m 0,0 c 1.1423,-0.3916 2.24269,-0.9051 3.27838,-1.5265 m 0,0 c 1.0358,-0.6214 2.0068,-1.3507 2.89,-2.1745 m 0,0 c 0.9249,-0.8626 1.7533,-1.8288 2.4727,-2.8691 m 0,0 c 0.3663,-0.5296 0.7042,-1.0784 1.0015,-1.6478 m 0,0 c 0.3188,-0.6105 0.5908,-1.2448 0.8628,-1.879" />
    <path
       inkscape:connector-curvature="0"
       id="path4162"
       qs:layer="0"
       style="fill:none;stroke:#000000;stroke-width:1.41111124;stroke-linecap:round;stroke-linejoin:round;stroke-miterlimit:4;stroke-dasharray:none"
       d="m 95.354916,65.486148 c 0.6587,0.011 1.3173,0.022 1.9717,-0.031 m 0,0 c 0.6722,-0.055 1.34,-0.1768 1.995,-0.3493 m 0,0 c 1.175404,-0.3094 2.309894,-0.7802 3.351784,-1.4041 m 0,0 c 1.04189,-0.624 1.99118,-1.4012 2.81658,-2.2969 m 0,0 c 0.9049,-0.982 1.6608,-2.1065 2.2016,-3.321 m 0,0 c 0.3145,-0.7063 0.5562,-1.443 0.7652,-2.1873 m 0,0 c 0.2081,-0.7412 0.3838,-1.49 0.5594,-2.2388" />
    <path
       inkscape:connector-curvature="0"
       id="path4168"
       qs:layer="0"
       style="fill:none;stroke:#000000;stroke-width:1.41111124;stroke-linecap:round;stroke-linejoin:round;stroke-miterlimit:4;stroke-dasharray:none"
       d="m 101.46031,41.064748 c 0.1758,-0.7488 0.35159,-1.4976 0.55969,-2.2389 m 0,0 c 0.209,-0.7443 0.4505,-1.481 0.7649,-2.1872 m 0,0 c 0.5407,-1.2146 1.29689,-2.3391 2.20198,-3.3212 m 0,0 c 0.8253,-0.8956 1.7744,-1.6726 2.8163,-2.2966 m 0,0 c 1.0419,-0.6241 2.1765,-1.095 3.352,-1.4044 m 0,0 c 0.655,-0.1724 1.3226,-0.2946 1.9947,-0.3491 m 0,0 c 0.6544,-0.053 1.3131,-0.042 1.9717,-0.031" />
    <path
       inkscape:connector-curvature="0"
       id="path4174"
       qs:layer="0"
       style="fill:none;stroke:#000000;stroke-width:1.41111124;stroke-linecap:round;stroke-linejoin:round;stroke-miterlimit:4;stroke-dasharray:none"
       d="m 112.65428,39.106048 c 0.4086,-1.6458 0.8172,-3.2915 1.2337,-4.935 m 0,0 c 0.4165,-1.6433 0.8408,-3.2844 1.2336,-4.9344 m 0,0 c 0.1945,-0.8173 0.3813,-1.6369 0.6111,-2.4442 m 0,0 c 0.1983,-0.6971 0.4286,-1.385 0.6589,-2.0729" />
    <path
       inkscape:connector-curvature="0"
       id="path4180"
       qs:layer="0"
       style="fill:none;stroke:#000000;stroke-width:1.41111124;stroke-linecap:round;stroke-linejoin:round;stroke-miterlimit:4;stroke-dasharray:none"
       d="m 112.27498,59.089248 c 0.2394,-0.7221 0.4787,-1.4442 0.6847,-2.1758 m 0,0 c 0.2178,-0.774 0.3983,-1.5586 0.5853,-2.3413 m 0,0 c 0.3942,-1.6497 0.8178,-3.2911 1.2339,-4.9346 m 0,0 c 0.4161,-1.6435 0.8248,-3.2891 1.2334,-4.9348" />
    <path
       inkscape:connector-curvature="0"
       id="path4186"
       qs:layer="0"
       style="fill:none;stroke:#000000;stroke-width:1.41111124;stroke-linecap:round;stroke-linejoin:round;stroke-miterlimit:4;stroke-dasharray:none"
       d="m 109.01618,53.658048 c 0.3903,-1.5609 0.7805,-3.1218 1.1707,-4.6827 m 0,0 c 0.4493,-1.7973 0.8987,-3.5946 1.348,-5.3919" />
    <path
       inkscape:connector-curvature="0"
       id="path4192"
       qs:layer="0"
       style="fill:none;stroke:#000000;stroke-width:1.41111124;stroke-linecap:round;stroke-linejoin:round;stroke-miterlimit:4;stroke-dasharray:none"
       d="m 101.46031,41.064748 c 1.56089,0.3903 3.12177,0.7805 4.68267,1.1707 m 0,0 c 1.7973,0.4493 3.5946,0.8987 5.3919,1.348 m 0,0 c 0.7463,0.1866 1.4927,0.3732 2.239,0.5597 m 0,0 c 0.7461,0.1866 1.4923,0.3731 2.2384,0.5596 m 0,0 c 1.645,0.4113 3.29,0.8225 4.935,1.2338 m 0,0 c 1.6448,0.4112 3.2896,0.8224 4.9344,1.2336" />
    <path
       inkscape:connector-curvature="0"
       id="path4198"
       qs:layer="0"
       style="fill:none;stroke:#000000;stroke-width:1.41111124;stroke-linecap:round;stroke-linejoin:round;stroke-miterlimit:4;stroke-dasharray:none"
       d="m 98.201516,35.633548 c 0.272,-0.6342 0.544,-1.2684 0.8628,-1.879 m 0,0 c 0.2973,-0.5693 0.6353,-1.1181 1.001504,-1.6477 m 0,0 c 0.71949,-1.0404 1.54809,-2.0067 2.47308,-2.8694 m 0,0 c 0.88309,-0.8236 1.85399,-1.5529 2.88968,-2.1743 m 0,0 c 1.0357,-0.6215 2.1362,-1.1351 3.2786,-1.5267 m 0,0 c 1.1964,-0.4101 2.4388,-0.6864 3.6953,-0.8316 m 0,0 c 0.6396,-0.074 1.2829,-0.1139 1.9252,-0.1083 m 0,0 c 0.6887,0.01 1.3763,0.064 2.0639,0.123" />
    <path
       inkscape:connector-curvature="0"
       id="path4204"
       qs:layer="0"
       style="fill:none;stroke:#000000;stroke-width:1.41111124;stroke-linecap:round;stroke-linejoin:round;stroke-miterlimit:4;stroke-dasharray:none"
       d="m 102.7849,36.638648 c 1.64489,0.4111 3.28988,0.8222 4.93478,1.2334 m 0,0 c 1.6448,0.4113 3.2897,0.8227 4.9346,1.234 m 0,0 c 1.4924,0.3731 2.9849,0.7462 4.4774,1.1193 m 0,0 c 1.7973,0.4493 3.5946,0.8987 5.3919,1.348 m 0,0 c 1.5609,0.3902 3.1218,0.7804 4.6827,1.1707" />
    <path
       inkscape:connector-curvature="0"
       id="path4210"
       qs:layer="0"
       style="fill:none;stroke:#000000;stroke-width:1.41111124;stroke-linecap:round;stroke-linejoin:round;stroke-miterlimit:4;stroke-dasharray:none"
       d="m 117.13168,40.225348 c 0.4493,-1.7973 0.8986,-3.5946 1.348,-5.3919 m 0,0 c 0.3902,-1.5609 0.7804,-3.1218 1.1706,-4.6827" />
    <path
       inkscape:connector-curvature="0"
       id="path4216"
       qs:layer="0"
       style="fill:none;stroke:#000000;stroke-width:1.41111124;stroke-linecap:round;stroke-linejoin:round;stroke-miterlimit:4;stroke-dasharray:none"
       d="m 112.27498,59.089248 c 0.6876,0.059 1.3752,0.1169 2.0639,0.123 m 0,0 c 0.6423,0.01 1.2856,-0.034 1.9252,-0.1083 m 0,0 c 1.2566,-0.1452 2.4991,-0.4216 3.6956,-0.8318 m 0,0 c 1.1423,-0.3916 2.2426,-0.9051 3.2783,-1.5265 m 0,0 c 1.0358,-0.6215 2.0069,-1.3508 2.89,-2.1745 m 0,0 c 0.9249,-0.8627 1.7534,-1.8289 2.4728,-2.8692 m 0,0 c 0.3662,-0.5296 0.7042,-1.0784 1.0015,-1.6477 m 0,0 c 0.3187,-0.6106 0.5907,-1.2448 0.8627,-1.879" />
    <path
       inkscape:connector-curvature="0"
       id="path4222"
       qs:layer="0"
       style="fill:none;stroke:#000000;stroke-width:1.41111124;stroke-linecap:round;stroke-linejoin:round;stroke-miterlimit:4;stroke-dasharray:none"
       d="m 113.54498,54.572148 c 0.6586,0.011 1.3173,0.022 1.9717,-0.031 m 0,0 c 0.6722,-0.055 1.3399,-0.1769 1.995,-0.3493 m 0,0 c 1.1754,-0.3094 2.3099,-0.7803 3.3517,-1.4042 m 0,0 c 1.042,-0.624 1.9913,-1.4011 2.8166,-2.2968 m 0,0 c 0.9049,-0.982 1.6609,-2.1066 2.2017,-3.321 m 0,0 c 0.3145,-0.7063 0.5562,-1.443 0.7652,-2.1873 m 0,0 c 0.2081,-0.7413 0.3838,-1.49 0.5594,-2.2388" />
    <path
       inkscape:connector-curvature="0"
       id="path4228"
       qs:layer="0"
       style="fill:none;stroke:#000000;stroke-width:1.41111124;stroke-linecap:round;stroke-linejoin:round;stroke-miterlimit:4;stroke-dasharray:none"
       d="m 119.65028,30.150748 c 0.1774,-0.7479 0.3547,-1.4958 0.5598,-2.239 m 0,0 c 0.2059,-0.7461 0.4399,-1.4874 0.7649,-2.1871 m 0,0 c 0.6143,-1.3228 1.5536,-2.497 2.6324,-3.5009 m 0,0 c 1.0292,-0.9578 2.1853,-1.7606 3.4371,-2.3773 m 0,0 c 1.2519,-0.6168 2.5995,-1.0474 3.9788,-1.2799 m 0,0 c 0.7536,-0.127 1.5166,-0.1948 2.2765,-0.1786 m 0,0 c 0.7235,0.015 1.4442,0.1073 2.1649,0.1991" />
    <path
       inkscape:connector-curvature="0"
       id="path4234"
       qs:layer="0"
       style="fill:none;stroke:#000000;stroke-width:1.41111124;stroke-linecap:round;stroke-linejoin:round;stroke-miterlimit:4;stroke-dasharray:none"
       d="m 131.21478,28.302848 c 0.6237,-1.6351 1.2474,-3.2703 1.9446,-4.8732 m 0,0 c 0.7126,-1.6385 1.502,-3.2432 2.3053,-4.8426 m 0,0 c 0.4046,-0.8056 0.8126,-1.6098 1.276,-2.3808 m 0,0 c 0.4076,-0.6784 0.858,-1.3311 1.3085,-1.9838" />
    <path
       inkscape:connector-curvature="0"
       id="path4240"
       qs:layer="0"
       style="fill:none;stroke:#000000;stroke-width:1.41111124;stroke-linecap:round;stroke-linejoin:round;stroke-miterlimit:4;stroke-dasharray:none"
       d="m 130.46498,48.175248 c 0.2379,-0.7225 0.4758,-1.445 0.6847,-2.1758 m 0,0 c 0.2211,-0.7733 0.4097,-1.5559 0.5854,-2.3413 m 0,0 c 0.354,-1.5837 0.6551,-3.1789 1.0374,-4.7542 m 0,0 c 0.3874,-1.596 0.8583,-3.1716 1.3291,-4.7473" />
    <path
       inkscape:connector-curvature="0"
       id="path4246"
       qs:layer="0"
       style="fill:none;stroke:#000000;stroke-width:1.41111124;stroke-linecap:round;stroke-linejoin:round;stroke-miterlimit:4;stroke-dasharray:none"
       d="m 127.20628,42.744048 c 0.3869,-1.5618 0.7738,-3.1235 1.1707,-4.6827 m 0,0 c 0.4527,-1.7788 0.9184,-3.5543 1.3841,-5.3298" />
    <path
       inkscape:connector-curvature="0"
       id="path4252"
       qs:layer="0"
       style="fill:none;stroke:#000000;stroke-width:1.41111124;stroke-linecap:round;stroke-linejoin:round;stroke-miterlimit:4;stroke-dasharray:none"
       d="m 119.65028,30.150748 c 1.5602,0.3926 3.1203,0.7852 4.6827,1.1707 m 0,0 c 1.8154,0.4478 3.6338,0.8859 5.4281,1.4101 m 0,0 c 0.7346,0.2147 1.4652,0.4438 2.1922,0.6833 m 0,0 c 0.7196,0.2371 1.4357,0.4845 2.1483,0.7418 m 0,0 c 1.546,0.5583 3.076,1.1638 4.5757,1.8353 m 0,0 c 1.4668,0.6568 2.9046,1.3767 4.3423,2.0966" />
    <path
       inkscape:connector-curvature="0"
       id="path4258"
       qs:layer="0"
       style="fill:none;stroke:#000000;stroke-width:1.41111124;stroke-linecap:round;stroke-linejoin:round;stroke-miterlimit:4;stroke-dasharray:none"
       d="m 116.39158,24.719548 c 0.2732,-0.6333 0.5464,-1.2665 0.8628,-1.879 m 0,0 c 0.2951,-0.5712 0.6278,-1.1244 1.0015,-1.6478 m 0,0 c 0.8495,-1.1898 1.9106,-2.2256 3.0602,-3.139 m 0,0 c 1.146,-0.9107 2.3799,-1.6998 3.687,-2.3467 m 0,0 c 1.3072,-0.647 2.6876,-1.1518 4.1067,-1.4968 m 0,0 c 1.4544,-0.3537 2.9495,-0.5395 4.4458,-0.5514 m 0,0 c 0.7407,-0.01 1.4817,0.031 2.2139,0.1278 m 0,0 c 0.7663,0.1014 1.523,0.2686 2.2797,0.4358" />
    <path
       inkscape:connector-curvature="0"
       id="path4264"
       qs:layer="0"
       style="fill:none;stroke:#000000;stroke-width:1.41111124;stroke-linecap:round;stroke-linejoin:round;stroke-miterlimit:4;stroke-dasharray:none"
       d="m 120.97498,25.724648 c 1.7346,0.3652 3.4692,0.7304 5.1902,1.1542 m 0,0 c 1.6981,0.4182 3.3829,0.8935 5.0496,1.424 m 0,0 c 1.4807,0.4714 2.9472,0.9865 4.3985,1.5427 m 0,0 c 1.7094,0.6551 3.3978,1.3674 5.0486,2.1569 m 0,0 c 1.4016,0.6703 2.776,1.3963 4.1505,2.1222" />
    <path
       inkscape:connector-curvature="0"
       id="path4270"
       qs:layer="0"
       style="fill:none;stroke:#000000;stroke-width:1.41111124;stroke-linecap:round;stroke-linejoin:round;stroke-miterlimit:4;stroke-dasharray:none"
       d="m 135.61328,29.845548 c 0.7064,-1.7381 1.4128,-3.4763 2.2092,-5.1724 m 0,0 c 0.7075,-1.5067 1.486,-2.9802 2.2646,-4.4537" />
    <path
       inkscape:connector-curvature="0"
       id="path4276"
       qs:layer="0"
       style="fill:none;stroke:#000000;stroke-width:1.41111124;stroke-linecap:round;stroke-linejoin:round;stroke-miterlimit:4;stroke-dasharray:none"
       d="m 130.46498,48.175248 c 0.688,0.061 1.3759,0.1219 2.064,0.1229 m 0,0 c 0.6417,0 1.2835,-0.05 1.9252,-0.1082 m 0,0 c 1.0652,-0.096 2.1301,-0.2118 3.1675,-0.4609 m 0,0 c 0.9279,-0.2227 1.8337,-0.5524 2.6916,-0.9765 m 0,0 c 0.858,-0.4242 1.6681,-0.9429 2.4136,-1.5411 m 0,0 c 0.8094,-0.6496 1.5428,-1.3929 2.2019,-2.1947 m 0,0 c 0.3499,-0.4258 0.6789,-0.868 0.9814,-1.3272 m 0,0 c 0.335,-0.5087 0.6376,-1.0383 0.9401,-1.5678" />
    <path
       inkscape:connector-curvature="0"
       id="path4282"
       qs:layer="0"
       style="fill:none;stroke:#000000;stroke-width:1.41111124;stroke-linecap:round;stroke-linejoin:round;stroke-miterlimit:4;stroke-dasharray:none"
       d="m 131.73508,43.658148 c 0.6103,0.036 1.2207,0.072 1.8311,0.062 m 0,0 c 0.5902,-0.01 1.1806,-0.062 1.7642,-0.1615 m 0,0 c 1.0179,-0.1733 2.0154,-0.4888 2.9416,-0.9459 m 0,0 c 0.9263,-0.4572 1.7813,-1.0559 2.5414,-1.7581 m 0,0 c 0.8703,-0.8041 1.6162,-1.7438 2.2062,-2.7665 m 0,0 c 0.3598,-0.6236 0.6617,-1.278 0.9486,-1.938 m 0,0 c 0.2917,-0.6714 0.568,-1.3486 0.8442,-2.0259" />
    <path
       inkscape:connector-curvature="0"
       id="path4288"
       qs:layer="0"
       style="fill:none;stroke:#000000;stroke-width:1.41111124;stroke-linecap:round;stroke-linejoin:round;stroke-miterlimit:4;stroke-dasharray:none"
       d="m 140.08708,20.219448 c 0.3844,-0.7118 0.7687,-1.4236 1.1965,-2.1109 m 0,0 c 0.438,-0.7038 0.9216,-1.3817 1.4742,-1.9999 m 0,0 c 0.9879,-1.1051 2.1964,-2.019 3.5098,-2.7224 m 0,0 c 1.2357,-0.6618 2.5642,-1.1372 3.9344,-1.4092 m 0,0 c 1.3702,-0.2721 2.7821,-0.3406 4.1743,-0.2092 m 0,0 c 0.7607,0.072 1.5154,0.2033 2.2454,0.4153 m 0,0 c 0.6951,0.2017 1.3676,0.4765 2.0402,0.7512" />
    <path
       inkscape:connector-curvature="0"
       id="path4294"
       qs:layer="0"
       style="fill:none;stroke:#000000;stroke-width:1.41111124;stroke-linecap:round;stroke-linejoin:round;stroke-miterlimit:4;stroke-dasharray:none"
       d="m 152.04748,21.223448 c 1.0247,-1.4187 2.0495,-2.8374 3.1369,-4.2059 m 0,0 c 1.1115,-1.3989 2.2885,-2.7454 3.4775,-4.0832 m 0,0 c 0.5988,-0.6738 1.2007,-1.3453 1.8474,-1.9706 m 0,0 c 0.5689,-0.5501 1.1726,-1.0644004 1.7763,-1.5787008" />
    <path
       inkscape:connector-curvature="0"
       id="path4300"
       qs:layer="0"
       style="fill:none;stroke:#000000;stroke-width:1.41111124;stroke-linecap:round;stroke-linejoin:round;stroke-miterlimit:4;stroke-dasharray:none"
       d="m 146.85028,40.121748 c 0.3025,-0.6261 0.605,-1.2522 0.8917,-1.8854 m 0,0 c 0.3095,-0.6836 0.6005,-1.3756 0.9071,-2.0608 m 0,0 c 0.6566,-1.4674 1.3845,-2.9035 2.1662,-4.3083 m 0,0 c 0.7991,-1.4361 1.6544,-2.8396 2.5097,-4.2431" />
    <path
       inkscape:connector-curvature="0"
       id="path4306"
       qs:layer="0"
       style="fill:none;stroke:#000000;stroke-width:1.41111124;stroke-linecap:round;stroke-linejoin:round;stroke-miterlimit:4;stroke-dasharray:none"
       d="m 144.81238,34.124648 c 0.6442,-1.4152 1.2884,-2.8304 1.9981,-4.2117 m 0,0 c 0.8358,-1.6267 1.7625,-3.2065 2.6891,-4.7863" />
    <path
       inkscape:connector-curvature="0"
       id="path4312"
       qs:layer="0"
       style="fill:none;stroke:#000000;stroke-width:1.41111124;stroke-linecap:round;stroke-linejoin:round;stroke-miterlimit:4;stroke-dasharray:none"
       d="m 140.08708,20.219448 c 1.5128,0.6978 3.0256,1.3955 4.5093,2.1518 m 0,0 c 1.6702,0.8514 3.3034,1.7771 4.9032,2.7554 m 0,0 c 0.6531,0.3995 1.3006,0.8077 1.9415,1.2262 m 0,0 c 0.6342,0.4142 1.262,0.8384 1.8839,1.2713 m 0,0 c 1.3491,0.939 2.6712,1.9187 3.9467,2.9545 m 0,0 c 1.2476,1.0131 2.4506,2.0799 3.6537,3.1467" />
    <path
       inkscape:connector-curvature="0"
       id="path4318"
       qs:layer="0"
       style="fill:none;stroke:#000000;stroke-width:1.41111124;stroke-linecap:round;stroke-linejoin:round;stroke-miterlimit:4;stroke-dasharray:none"
       d="m 138.04918,14.222448 c 0.4981,-0.5936 0.9962,-1.1873 1.5421,-1.7346 m 0,0 c 0.5216,-0.5229 1.0868,-1.0035 1.6777,-1.4502 m 0,0 c 1.1939,-0.9024 2.4931,-1.6665008 3.8617,-2.2716012 m 0,0 c 1.335,-0.5903004 2.7362,-1.0294008 4.1679,-1.3152008 m 0,0 c 1.4319,-0.2858004 2.8944,-0.4183004 4.3539,-0.3857004 m 0,0 c 1.4959,0.033 2.9887,0.2403004 4.4374,0.6152004 m 0,0 c 0.7171,0.1857004 1.4235,0.4125004 2.1058,0.6951008 m 0,0 c 0.7142,0.2958 1.4021,0.6527004 2.0899,1.0096004" />
    <path
       inkscape:connector-curvature="0"
       id="path4324"
       qs:layer="0"
       style="fill:none;stroke:#000000;stroke-width:1.41111124;stroke-linecap:round;stroke-linejoin:round;stroke-miterlimit:4;stroke-dasharray:none"
       d="m 142.75778,16.108648 c 1.6045,0.7901 3.209,1.5802 4.7789,2.4353 m 0,0 c 1.5357,0.8364 3.0384,1.7351 4.5108,2.6795 m 0,0 c 1.3081,0.8391 2.5923,1.7143 3.8511,2.6261 m 0,0 c 1.4825,1.0738 2.9296,2.1982 4.3204,3.3872 m 0,0 c 1.181,1.0096 2.3214,2.0658 3.4618,3.1219" />
    <path
       inkscape:connector-curvature="0"
       id="path4330"
       qs:layer="0"
       style="fill:none;stroke:#000000;stroke-width:1.41111124;stroke-linecap:round;stroke-linejoin:round;stroke-miterlimit:4;stroke-dasharray:none"
       d="m 155.89858,23.849548 c 1.1312,-1.4969 2.2624,-2.9937 3.4697,-4.4266 m 0,0 c 1.0725,-1.273 2.2051,-2.4955 3.3377,-3.718" />
    <path
       inkscape:connector-curvature="0"
       id="path4336"
       qs:layer="0"
       style="fill:none;stroke:#000000;stroke-width:1.41111124;stroke-linecap:round;stroke-linejoin:round;stroke-miterlimit:4;stroke-dasharray:none"
       d="m 146.85028,40.121748 c 0.5626,0.2356 1.1252,0.4711 1.7007,0.6704 m 0,0 c 0.5197,0.1798 1.05,0.3301 1.5869,0.4544 m 0,0 c 1.0112,0.2342 2.0455,0.3766 3.0834,0.3986 m 0,0 c 0.9559,0.02 1.9148,-0.061 2.8526,-0.2484 m 0,0 c 0.9379,-0.1872 1.8548,-0.4799 2.7296,-0.8657 m 0,0 c 0.9499,-0.4188 1.8502,-0.9474 2.6939,-1.5518 m 0,0 c 0.448,-0.3209 0.88,-0.6632 1.2908,-1.0288 m 0,0 c 0.455,-0.4049 0.884,-0.8384 1.3131,-1.2719" />
    <path
       inkscape:connector-curvature="0"
       id="path4342"
       qs:layer="0"
       style="fill:none;stroke:#000000;stroke-width:1.41111124;stroke-linecap:round;stroke-linejoin:round;stroke-miterlimit:4;stroke-dasharray:none"
       d="m 148.64908,36.175548 c 0.5584,0.2004 1.1167,0.4007 1.6893,0.5499 m 0,0 c 0.5709,0.1488 1.156,0.2467 1.746,0.2995 m 0,0 c 1.0292,0.092 2.0736,0.047 3.0861,-0.1543 m 0,0 c 1.0127,-0.2016 1.9935,-0.5599 2.9092,-1.0423 m 0,0 c 1.0485,-0.5524 2.0117,-1.2675 2.8457,-2.103 m 0,0 c 0.5086,-0.5095 0.9692,-1.0638 1.4168,-1.6275 m 0,0 c 0.4552,-0.5733 0.8969,-1.1562 1.3386,-1.7392" />
    <path
       inkscape:connector-curvature="0"
       id="path4348"
       qs:layer="0"
       style="fill:none;stroke:#000000;stroke-width:1.41111124;stroke-linecap:round;stroke-linejoin:round;stroke-miterlimit:4;stroke-dasharray:none"
       d="m 162.70598,15.704948 c 0.5552,-0.5885 1.1103,-1.1769 1.701,-1.7305 m 0,0 c 0.6049,-0.5667 1.2471,-1.0969 1.9405,-1.5514 m 0,0 c 1.2398,-0.8126 2.6433,-1.3834 4.0938,-1.7238 m 0,0 c 1.3646,-0.3203 2.7709,-0.4367 4.1648,-0.3457 m 0,0 c 1.3941,0.091 2.7757,0.3893 4.0868,0.8758 m 0,0 c 0.7163,0.2657 1.4116,0.5876 2.0621,0.9809 m 0,0 c 0.6193,0.3744 1.1982,0.8134 1.777,1.2525" />
    <path
       inkscape:connector-curvature="0"
       id="path4354"
       qs:layer="0"
       style="fill:none;stroke:#000000;stroke-width:1.41111124;stroke-linecap:round;stroke-linejoin:round;stroke-miterlimit:4;stroke-dasharray:none"
       d="m 174.00158,19.763048 c 1.3564,-1.106 2.7127,-2.212 4.1165,-3.2534 m 0,0 c 1.4351,-1.0645 2.9198,-2.0614 4.4139,-3.0469 m 0,0 c 0.7525,-0.4963 1.5073,-0.9897 2.2935,-1.4268 m 0,0 c 0.6917,-0.3845 1.4077,-0.7255 2.1238,-1.0665" />
    <path
       inkscape:connector-curvature="0"
       id="path4360"
       qs:layer="0"
       style="fill:none;stroke:#000000;stroke-width:1.41111124;stroke-linecap:round;stroke-linejoin:round;stroke-miterlimit:4;stroke-dasharray:none"
       d="m 164.10128,36.678548 c 0.4539,-0.5267 0.9078,-1.0535 1.3482,-1.5912 m 0,0 c 0.4755,-0.5805 0.9354,-1.1739 1.4084,-1.7567 m 0,0 c 1.0133,-1.2481 2.0873,-2.4475 3.2051,-3.6029 m 0,0 c 1.1428,-1.1811 2.3315,-2.3162 3.5202,-3.4512" />
    <path
       inkscape:connector-curvature="0"
       id="path4366"
       qs:layer="0"
       style="fill:none;stroke:#000000;stroke-width:1.41111124;stroke-linecap:round;stroke-linejoin:round;stroke-miterlimit:4;stroke-dasharray:none"
       d="m 163.68078,30.358648 c 0.9878,-1.2008 1.9756,-2.4017 3.0179,-3.553 m 0,0 c 1.2274,-1.3557 2.5306,-2.6427 3.8337,-3.9296" />
    <path
       inkscape:connector-curvature="0"
       id="path4372"
       qs:layer="0"
       style="fill:none;stroke:#000000;stroke-width:1.41111124;stroke-linecap:round;stroke-linejoin:round;stroke-miterlimit:4;stroke-dasharray:none"
       d="m 162.70598,15.704948 c 1.2814,1.0647 2.5627,2.1293 3.8008,3.2431 m 0,0 c 1.3938,1.2537 2.7327,2.5697 4.0256,3.928 m 0,0 c 0.5278,0.5545 1.048,1.1161 1.559,1.6858 m 0,0 c 0.5058,0.5639 1.0027,1.1359 1.4918,1.7147 m 0,0 c 1.061,1.2555 2.0852,2.5433 3.05,3.8733 m 0,0 c 0.9437,1.3008 1.8306,2.6421 2.7174,3.9834" />
    <path
       inkscape:connector-curvature="0"
       id="path4378"
       qs:layer="0"
       style="fill:none;stroke:#000000;stroke-width:1.41111124;stroke-linecap:round;stroke-linejoin:round;stroke-miterlimit:4;stroke-dasharray:none"
       d="m 162.28558,9.3850472 c 0.6345,-0.4449 1.2691,-0.8898004 1.9377,-1.2775008 m 0,0 c 0.6389,-0.3706004 1.309,-0.6889004 1.9953,-0.9679008 m 0,0 c 1.3864,-0.5636004 2.8388,-0.9663004 4.3172,-1.1976008 m 0,0 c 1.4422,-0.2256 2.9092,-0.288 4.3662,-0.1944 m 0,0 c 1.4571,0.094 2.9042,0.3432004 4.3059,0.7515004 m 0,0 c 1.4365,0.4185004 2.8252,1.0038008 4.128,1.7401012 m 0,0 c 0.6449,0.3645004 1.2688,0.7660008 1.855,1.2152012 m 0,0 c 0.6136,0.4702 1.186,0.9926004 1.7584,1.5150004" />
    <path
       inkscape:connector-curvature="0"
       id="path4384"
       qs:layer="0"
       style="fill:none;stroke:#000000;stroke-width:1.41111124;stroke-linecap:round;stroke-linejoin:round;stroke-miterlimit:4;stroke-dasharray:none"
       d="m 166.34748,12.423048 c 1.3461,1.1776 2.6923,2.3552 3.9882,3.5866 m 0,0 c 1.2677,1.2046 2.4873,2.4608 3.6659,3.7534 m 0,0 c 1.0472,1.1483 2.0619,2.3255 3.0425,3.5313 m 0,0 c 1.155,1.4202 2.2627,2.8801 3.2994,4.3879 m 0,0 c 0.8803,1.2803 1.7093,2.5951 2.5384,3.9099" />
    <path
       inkscape:connector-curvature="0"
       id="path4390"
       qs:layer="0"
       style="fill:none;stroke:#000000;stroke-width:1.41111124;stroke-linecap:round;stroke-linejoin:round;stroke-miterlimit:4;stroke-dasharray:none"
       d="m 177.04408,23.294348 c 1.4793,-1.154 2.9587,-2.308 4.495,-3.3806 m 0,0 c 1.3649,-0.9529 2.7747,-1.8415 4.1846,-2.7302" />
    <path
       inkscape:connector-curvature="0"
       id="path4396"
       qs:layer="0"
       style="fill:none;stroke:#000000;stroke-width:1.41111124;stroke-linecap:round;stroke-linejoin:round;stroke-miterlimit:4;stroke-dasharray:none"
       d="m 164.10128,36.678548 c 0.4826,0.3729 0.9653,0.7457 1.4699,1.0868 m 0,0 c 0.4557,0.308 0.9292,0.59 1.4157,0.8488 m 0,0 c 0.9165,0.4873 1.879,0.8919 2.876,1.1812 m 0,0 c 0.9182,0.2665 1.8656,0.4352 2.82,0.4965 m 0,0 c 0.9544,0.061 1.9158,0.015 2.8606,-0.1315 m 0,0 c 1.0257,-0.1594 2.032,-0.4376 3.0032,-0.8037 m 0,0 c 0.5156,-0.1943 1.0214,-0.4134 1.5127,-0.6606 m 0,0 c 0.5441,-0.2737 1.0705,-0.5817 1.5969,-0.8898" />
    <path
       inkscape:connector-curvature="0"
       id="path4402"
       qs:layer="0"
       style="fill:none;stroke:#000000;stroke-width:1.41111124;stroke-linecap:round;stroke-linejoin:round;stroke-miterlimit:4;stroke-dasharray:none"
       d="m 166.85788,33.330648 c 0.4878,0.3377 0.9755,0.6755 1.4901,0.9674 m 0,0 c 0.5131,0.2912 1.0531,0.5368 1.6095,0.7402 m 0,0 c 0.9704,0.3547 1.991,0.581 3.0213,0.6477 m 0,0 c 1.0303,0.067 2.0704,-0.026 3.0796,-0.2558 m 0,0 c 1.1556,-0.2629 2.2707,-0.7051 3.2922,-1.2969 m 0,0 c 0.6229,-0.361 1.211,-0.7775 1.7889,-1.2065 m 0,0 c 0.5879,-0.4363 1.1651,-0.8855 1.7424,-1.3346" />
    <path
       inkscape:connector-curvature="0"
       id="path4408"
       qs:layer="0"
       style="fill:none;stroke:#000000;stroke-width:1.41111124;stroke-linecap:round;stroke-linejoin:round;stroke-miterlimit:4;stroke-dasharray:none"
       d="m 185.72368,17.183548 c 0.6882,-0.4251 1.3764,-0.8503 2.0901,-1.2326 m 0,0 c 0.7307,-0.3913 1.488,-0.7377 2.2753,-0.9977 m 0,0 c 1.4075,-0.465 2.9108,-0.6541 4.4,-0.6085 m 0,0 c 1.4011,0.043 2.7897,0.2937 4.1128,0.7415 m 0,0 c 1.3233,0.4478 2.5811,1.0927 3.7222,1.9012 m 0,0 c 0.6234,0.4417 1.2119,0.9322 1.7388,1.4801 m 0,0 c 0.5017,0.5216 0.9476,1.0952 1.3934,1.6688" />
    <path
       inkscape:connector-curvature="0"
       id="path4414"
       qs:layer="0"
       style="fill:none;stroke:#000000;stroke-width:1.41111124;stroke-linecap:round;stroke-linejoin:round;stroke-miterlimit:4;stroke-dasharray:none"
       d="m 195.58848,24.020548 c 1.5959,-0.7183 3.1918,-1.4366 4.8169,-2.0802 m 0,0 c 1.6612,-0.6579 3.353,-1.2377 5.0509,-1.804 m 0,0 c 0.8551,-0.2852 1.7117,-0.5669 2.5841,-0.7862 m 0,0 c 0.7676,-0.1929 1.5474,-0.3375 2.3271,-0.482" />
    <path
       inkscape:connector-curvature="0"
       id="path4420"
       qs:layer="0"
       style="fill:none;stroke:#000000;stroke-width:1.41111124;stroke-linecap:round;stroke-linejoin:round;stroke-miterlimit:4;stroke-dasharray:none"
       d="m 181.65628,37.806248 c 0.5745,-0.3916 1.149,-0.7833 1.7134,-1.1891 m 0,0 c 0.6092,-0.4381 1.2067,-0.8926 1.8142,-1.3335 m 0,0 c 1.3011,-0.9441 2.6484,-1.8256 4.0267,-2.6532 m 0,0 c 1.409,-0.846 2.8505,-1.6357 4.2919,-2.4253" />
    <path
       inkscape:connector-curvature="0"
       id="path4426"
       qs:layer="0"
       style="fill:none;stroke:#000000;stroke-width:1.41111124;stroke-linecap:round;stroke-linejoin:round;stroke-miterlimit:4;stroke-dasharray:none"
       d="m 182.88188,31.592148 c 1.2643,-0.9051 2.5286,-1.8102 3.8328,-2.6533 m 0,0 c 1.536,-0.9929 3.1272,-1.8998 4.7184,-2.8066" />
    <path
       inkscape:connector-curvature="0"
       id="path4432"
       qs:layer="0"
       style="fill:none;stroke:#000000;stroke-width:1.41111124;stroke-linecap:round;stroke-linejoin:round;stroke-miterlimit:4;stroke-dasharray:none"
       d="m 185.72368,17.183548 c 0.963,1.3594 1.926,2.7188 2.8345,4.1145 m 0,0 c 1.0228,1.5711 1.9765,3.1882 2.8749,4.8342 m 0,0 c 0.3667,0.672 0.7243,1.3488 1.0709,2.0312 m 0,0 c 0.3431,0.6754 0.6754,1.3562 0.9985,2.0417 m 0,0 c 0.7008,1.4869 1.3578,2.9954 1.9465,4.5295 m 0,0 c 0.5759,1.5004 1.0863,3.0251 1.5968,4.5499" />
    <path
       inkscape:connector-curvature="0"
       id="path4438"
       qs:layer="0"
       style="fill:none;stroke:#000000;stroke-width:1.41111124;stroke-linecap:round;stroke-linejoin:round;stroke-miterlimit:4;stroke-dasharray:none"
       d="m 186.94928,10.969448 c 0.7278,-0.266 1.4557,-0.5319 2.2018,-0.7339 m 0,0 c 0.7129,-0.193 1.4425,-0.3276004 2.1775,-0.4199004 m 0,0 c 1.485,-0.1866 2.9921,-0.2006 4.4801,-0.042 m 0,0 c 1.4515,0.1544 2.8849,0.4729004 4.2683,0.9395004 m 0,0 c 1.3836,0.4667 2.7172,1.0814 3.9658,1.8378 m 0,0 c 1.2798,0.7752 2.4704,1.6992 3.5389,2.7469 m 0,0 c 0.5289,0.5187 1.0279,1.0676 1.4783,1.653 m 0,0 c 0.4714,0.6126 0.8895,1.2651 1.3075,1.9176" />
    <path
       inkscape:connector-curvature="0"
       id="path4444"
       qs:layer="0"
       style="fill:none;stroke:#000000;stroke-width:1.41111124;stroke-linecap:round;stroke-linejoin:round;stroke-miterlimit:4;stroke-dasharray:none"
       d="m 190.08908,14.953248 c 0.9964,1.4852 1.9928,2.9704 2.9268,4.4947 m 0,0 c 0.9137,1.491 1.7677,3.0195 2.5726,4.5726 m 0,0 c 0.7151,1.3798 1.3915,2.779 2.0275,4.1971 m 0,0 c 0.7492,1.6703 1.4424,3.3667 2.0546,5.091 m 0,0 c 0.5199,1.4642 0.9813,2.9485 1.4428,4.4328" />
    <path
       inkscape:connector-curvature="0"
       id="path4450"
       qs:layer="0"
       style="fill:none;stroke:#000000;stroke-width:1.41111124;stroke-linecap:round;stroke-linejoin:round;stroke-miterlimit:4;stroke-dasharray:none"
       d="m 197.61598,28.217648 c 1.7271,-0.7329 3.4543,-1.4658 5.2155,-2.1054 m 0,0 c 1.5646,-0.5681 3.1561,-1.0626 4.7475,-1.5571" />
    <path
       inkscape:connector-curvature="0"
       id="path4456"
       qs:layer="0"
       style="fill:none;stroke:#000000;stroke-width:1.41111124;stroke-linecap:round;stroke-linejoin:round;stroke-miterlimit:4;stroke-dasharray:none"
       d="m 181.65628,37.806248 c 0.37,0.4849 0.74,0.9697 1.1395,1.4295 m 0,0 c 0.3607,0.4152 0.7453,0.8099 1.1486,1.1855 m 0,0 c 0.7595,0.7074 1.5849,1.3469 2.4734,1.8838 m 0,0 c 0.8183,0.4945 1.6901,0.9021 2.5962,1.2077 m 0,0 c 0.9062,0.3057 1.8469,0.5094 2.7976,0.6116 m 0,0 c 1.0321,0.1108 2.0761,0.1019 3.1088,0 m 0,0 c 0.5484,-0.055 1.0935,-0.1358 1.632,-0.2477 m 0,0 c 0.5963,-0.1239 1.1844,-0.2856 1.7725,-0.4472" />
    <path
       inkscape:connector-curvature="0"
       id="path4462"
       qs:layer="0"
       style="fill:none;stroke:#000000;stroke-width:1.41111124;stroke-linecap:round;stroke-linejoin:round;stroke-miterlimit:4;stroke-dasharray:none"
       d="m 185.18388,35.283648 c 0.384,0.4522 0.7679,0.9044 1.1897,1.3194 m 0,0 c 0.4206,0.4137 0.8788,0.7904 1.3639,1.1306 m 0,0 c 0.8459,0.5933 1.7735,1.0754 2.7516,1.4058 m 0,0 c 0.9782,0.3305 2.007,0.5093 3.0412,0.5481 m 0,0 c 1.1843,0.044 2.3758,-0.095 3.5155,-0.403 m 0,0 c 0.695,-0.1878 1.3707,-0.4385 2.0398,-0.7037 m 0,0 c 0.6805,-0.2697 1.3541,-0.5546 2.0278,-0.8394" />
    <path
       inkscape:connector-curvature="0"
       id="path4468"
       qs:layer="0"
       style="fill:none;stroke:#000000;stroke-width:1.41111124;stroke-linecap:round;stroke-linejoin:round;stroke-miterlimit:4;stroke-dasharray:none"
       d="m 207.57898,24.555148 c 0.7747,-0.2331 1.5494,-0.4661 2.3375,-0.6512 m 0,0 c 0.807,-0.1894 1.6281,-0.3285 2.4558,-0.3764 m 0,0 c 1.4799,-0.086 2.981,0.1196 4.4079,0.5482 m 0,0 c 1.3425,0.4032 2.6193,1.004 3.782,1.7782 m 0,0 c 1.1628,0.7743 2.2114,1.7222 3.105,2.7978 m 0,0 c 0.4882,0.5877 0.9302,1.2136 1.2978,1.8789 m 0,0 c 0.35,0.6335 0.6326,1.3028 0.9152,1.972" />
    <path
       inkscape:connector-curvature="0"
       id="path4474"
       qs:layer="0"
       style="fill:none;stroke:#000000;stroke-width:1.41111124;stroke-linecap:round;stroke-linejoin:round;stroke-miterlimit:4;stroke-dasharray:none"
       d="m 215.34408,33.707348 c 1.7272,-0.2819 3.4545,-0.5638 5.1907,-0.766 m 0,0 c 1.7747,-0.2067 3.5589,-0.33 5.3454,-0.4387 m 0,0 c 0.8997,-0.055 1.8001,-0.1057 2.6995,-0.092 m 0,0 c 0.7914,0.012 1.582,0.073 2.3727,0.1352" />
    <path
       inkscape:connector-curvature="0"
       id="path4480"
       qs:layer="0"
       style="fill:none;stroke:#000000;stroke-width:1.41111124;stroke-linecap:round;stroke-linejoin:round;stroke-miterlimit:4;stroke-dasharray:none"
       d="m 198.32488,43.428448 c 0.6561,-0.2301 1.3123,-0.4602 1.9623,-0.7065 m 0,0 c 0.7017,-0.2659 1.3963,-0.5508 2.097,-0.8198 m 0,0 c 1.5008,-0.5762 3.03,-1.08 4.5752,-1.5236 m 0,0 c 1.5797,-0.4535 3.1762,-0.8442 4.7726,-1.2349" />
    <path
       inkscape:connector-curvature="0"
       id="path4486"
       qs:layer="0"
       style="fill:none;stroke:#000000;stroke-width:1.41111124;stroke-linecap:round;stroke-linejoin:round;stroke-miterlimit:4;stroke-dasharray:none"
       d="m 201.11338,37.741448 c 1.4552,-0.548 2.9103,-1.096 4.388,-1.5738 m 0,0 c 1.7402,-0.5626 3.5116,-1.0279 5.283,-1.4931" />
    <path
       inkscape:connector-curvature="0"
       id="path4492"
       qs:layer="0"
       style="fill:none;stroke:#000000;stroke-width:1.41111124;stroke-linecap:round;stroke-linejoin:round;stroke-miterlimit:4;stroke-dasharray:none"
       d="m 207.57898,24.555148 c 0.5794,1.5619 1.1588,3.1239 1.6762,4.7068 m 0,0 c 0.5824,1.7819 1.0863,3.5904 1.5292,5.4126 m 0,0 c 0.1808,0.7439 0.3515,1.4901 0.5101,2.2388 m 0,0 c 0.1571,0.7411 0.3024,1.4847 0.4375,2.2303 m 0,0 c 0.2931,1.6174 0.5384,3.2444 0.7111,4.8785 m 0,0 c 0.1688,1.5982 0.2683,3.203 0.3678,4.8079" />
    <path
       inkscape:connector-curvature="0"
       id="path4498"
       qs:layer="0"
       style="fill:none;stroke:#000000;stroke-width:1.41111124;stroke-linecap:round;stroke-linejoin:round;stroke-miterlimit:4;stroke-dasharray:none"
       d="m 210.36748,18.868148 c 0.7719,-0.069 1.5438,-0.138 2.3168,-0.1405 m 0,0 c 0.7385,0 1.4781,0.056 2.212,0.1565 m 0,0 c 1.4828,0.2032 2.9424,0.5788 4.3391,1.1159 m 0,0 c 1.3624,0.524 2.665,1.2018 3.881,2.0097 m 0,0 c 1.2162,0.8081 2.3458,1.7463 3.3569,2.7995 m 0,0 c 1.0362,1.0793 1.9478,2.2794 2.7096,3.5675 m 0,0 c 0.377,0.6376 0.7174,1.2968 1.0014,1.9786 m 0,0 c 0.2972,0.7135 0.5326,1.4518 0.7681,2.1902" />
    <path
       inkscape:connector-curvature="0"
       id="path4504"
       qs:layer="0"
       style="fill:none;stroke:#000000;stroke-width:1.41111124;stroke-linecap:round;stroke-linejoin:round;stroke-miterlimit:4;stroke-dasharray:none"
       d="m 212.37228,23.527548 c 0.5792,1.6921 1.1583,3.3842 1.6671,5.098 m 0,0 c 0.4977,1.6764 0.9281,3.3735 1.3047,5.0818 m 0,0 c 0.3346,1.5176 0.6268,3.044 0.8751,4.5783 m 0,0 c 0.2925,1.807 0.5242,3.6249 0.6705,5.4488 m 0,0 c 0.1241,1.5488 0.1867,3.1019 0.2493,4.655" />
    <path
       inkscape:connector-curvature="0"
       id="path4510"
       qs:layer="0"
       style="fill:none;stroke:#000000;stroke-width:1.41111124;stroke-linecap:round;stroke-linejoin:round;stroke-miterlimit:4;stroke-dasharray:none"
       d="m 216.21918,38.285648 c 1.8578,-0.2622 3.7156,-0.5243 5.5823,-0.6874 m 0,0 c 1.6582,-0.1449 3.3234,-0.2118 4.9886,-0.2786" />
    <path
       inkscape:connector-curvature="0"
       id="path4516"
       qs:layer="0"
       style="fill:none;stroke:#000000;stroke-width:1.41111124;stroke-linecap:round;stroke-linejoin:round;stroke-miterlimit:4;stroke-dasharray:none"
       d="m 198.32488,43.428448 c 0.2323,0.5639 0.4646,1.1278 0.7318,1.6752 m 0,0 c 0.2412,0.4942 0.5109,0.9749 0.8035,1.4418 m 0,0 c 0.5511,0.8796 1.1835,1.7104 1.9032,2.4586 m 0,0 c 0.6629,0.689 1.3998,1.3078 2.1963,1.8371 m 0,0 c 0.7966,0.5293 1.6528,0.969 2.5449,1.3131 m 0,0 c 0.9685,0.3736 1.9794,0.6345 3.0037,0.8018 m 0,0 c 0.5438,0.089 1.0914,0.1511 1.6405,0.1821 m 0,0 c 0.6081,0.034 1.218,0.03 1.8279,0.026" />
    <path
       inkscape:connector-curvature="0"
       id="path4522"
       qs:layer="0"
       style="fill:none;stroke:#000000;stroke-width:1.41111124;stroke-linecap:round;stroke-linejoin:round;stroke-miterlimit:4;stroke-dasharray:none"
       d="m 202.38418,41.902148 c 0.2542,0.536 0.5084,1.072 0.8088,1.5818 m 0,0 c 0.2995,0.5083 0.6449,0.9905 1.0256,1.4444 m 0,0 c 0.6641,0.7916 1.4357,1.4968 2.2954,2.0686 m 0,0 c 0.8597,0.5719 1.8074,1.0102 2.7966,1.3147 m 0,0 c 1.1327,0.3487 2.3197,0.5217 3.5003,0.5184 m 0,0 c 0.7199,0 1.4374,-0.07 2.1523,-0.1532 m 0,0 c 0.7271,-0.085 1.4515,-0.1861 2.1758,-0.2874" />
    <path
       inkscape:connector-curvature="0"
       id="path4528"
       qs:layer="0"
       style="fill:none;stroke:#000000;stroke-width:1.41111124;stroke-linecap:round;stroke-linejoin:round;stroke-miterlimit:4;stroke-dasharray:none"
       d="m 226.79008,37.319648 c 0.8086,-0.025 1.6171,-0.05 2.4263,-0.026 m 0,0 c 0.8285,0.025 1.6577,0.103 2.4697,0.2704 m 0,0 c 1.4519,0.2992 2.849,0.8853 4.1169,1.6677 m 0,0 c 1.1929,0.7362 2.2713,1.6463 3.1946,2.6944 m 0,0 c 0.9235,1.0483 1.6918,2.2348 2.2774,3.5047 m 0,0 c 0.3199,0.6938 0.5853,1.4125 0.7686,2.1502 m 0,0 c 0.1746,0.7024 0.2748,1.4219 0.3751,2.1415" />
    <path
       inkscape:connector-curvature="0"
       id="path4534"
       qs:layer="0"
       style="fill:none;stroke:#000000;stroke-width:1.41111124;stroke-linecap:round;stroke-linejoin:round;stroke-miterlimit:4;stroke-dasharray:none"
       d="m 231.92878,48.166448 c 1.7414,0.1736 3.4829,0.3472 5.2124,0.6002 m 0,0 c 1.768,0.2586 3.5234,0.6001 5.2775,0.9564 m 0,0 c 0.8833,0.1794 1.7663,0.3626 2.6318,0.6078 m 0,0 c 0.7615,0.2157 1.5094,0.4794 2.2573,0.7432" />
    <path
       inkscape:connector-curvature="0"
       id="path4540"
       qs:layer="0"
       style="fill:none;stroke:#000000;stroke-width:1.41111124;stroke-linecap:round;stroke-linejoin:round;stroke-miterlimit:4;stroke-dasharray:none"
       d="m 212.97668,53.163648 c 0.6933,-0.053 1.3866,-0.1057 2.0782,-0.1758 m 0,0 c 0.7466,-0.076 1.4911,-0.1716 2.2376,-0.2506 m 0,0 c 1.5986,-0.1692 3.206,-0.261 4.8134,-0.2907 m 0,0 c 1.6432,-0.03 3.2864,0 4.9296,0.039" />
    <path
       inkscape:connector-curvature="0"
       id="path4546"
       qs:layer="0"
       style="fill:none;stroke:#000000;stroke-width:1.41111124;stroke-linecap:round;stroke-linejoin:round;stroke-miterlimit:4;stroke-dasharray:none"
       d="m 217.13898,48.389448 c 1.5473,-0.1537 3.0946,-0.3074 4.6455,-0.3874 m 0,0 c 1.8265,-0.094 3.658,-0.086 5.4894,-0.078" />
    <path
       inkscape:connector-curvature="0"
       id="path4552"
       qs:layer="0"
       style="fill:none;stroke:#000000;stroke-width:1.41111124;stroke-linecap:round;stroke-linejoin:round;stroke-miterlimit:4;stroke-dasharray:none"
       d="m 226.79008,37.319648 c 0.1564,1.6586 0.3128,3.3172 0.404,4.9801 m 0,0 c 0.1026,1.8718 0.1224,3.7491 0.0798,5.6238 m 0,0 c -0.0174,0.7654 -0.0451,1.5303 -0.0852,2.2947 m 0,0 c -0.0396,0.7565 -0.0912,1.5123 -0.1532,2.2676 m 0,0 c -0.1344,1.6382 -0.3176,3.2734 -0.5726,4.8966 m 0,0 c -0.2495,1.5876 -0.5678,3.1638 -0.886,4.7399" />
    <path
       inkscape:connector-curvature="0"
       id="path4558"
       qs:layer="0"
       style="fill:none;stroke:#000000;stroke-width:1.41111124;stroke-linecap:round;stroke-linejoin:round;stroke-miterlimit:4;stroke-dasharray:none"
       d="m 230.95238,32.545548 c 0.7635,0.1326 1.527,0.2652 2.2744,0.4624 m 0,0 c 0.7141,0.1884 1.4136,0.4357 2.0966,0.7224 m 0,0 c 1.3801,0.5791 2.6933,1.3188 3.9039,2.1983 m 0,0 c 1.1809,0.858 2.2643,1.8492 3.2305,2.9437 m 0,0 c 0.9663,1.0946 1.8154,2.2927 2.5202,3.5712 m 0,0 c 0.7224,1.3103 1.2933,2.7051 1.6966,4.1461 m 0,0 c 0.1997,0.7134 0.3583,1.4381 0.4566,2.1701 m 0,0 c 0.1029,0.7661 0.1398,1.5402 0.1766,2.3143" />
    <path
       inkscape:connector-curvature="0"
       id="path4564"
       qs:layer="0"
       style="fill:none;stroke:#000000;stroke-width:1.41111124;stroke-linecap:round;stroke-linejoin:round;stroke-miterlimit:4;stroke-dasharray:none"
       d="m 231.68608,37.564548 c 0.1226,1.7842 0.2453,3.5685 0.2943,5.3556 m 0,0 c 0.048,1.748 0.0256,3.4987 -0.0516,5.2463 m 0,0 c -0.0686,1.5526 -0.1805,3.1027 -0.3367,4.649 m 0,0 c -0.184,1.8213 -0.4295,3.6374 -0.7591,5.4372 m 0,0 c -0.2799,1.5283 -0.6205,3.045 -0.961,4.5616" />
    <path
       inkscape:connector-curvature="0"
       id="path4570"
       qs:layer="0"
       style="fill:none;stroke:#000000;stroke-width:1.41111124;stroke-linecap:round;stroke-linejoin:round;stroke-miterlimit:4;stroke-dasharray:none"
       d="m 231.59208,52.815448 c 1.8625,0.2265 3.725,0.4529 5.5705,0.7772 m 0,0 c 1.6394,0.2882 3.2654,0.6536 4.8913,1.019" />
    <path
       inkscape:connector-curvature="0"
       id="path4576"
       qs:layer="0"
       style="fill:none;stroke:#000000;stroke-width:1.41111124;stroke-linecap:round;stroke-linejoin:round;stroke-miterlimit:4;stroke-dasharray:none"
       d="m 212.97668,53.163648 c 0.0788,0.6048 0.1576,1.2096 0.2744,1.8074 m 0,0 c 0.1055,0.5397 0.2419,1.0737 0.404,1.6004 m 0,0 c 0.3054,0.992 0.7018,1.958 1.204,2.8666 m 0,0 c 0.4624,0.8368 1.0146,1.6249 1.6474,2.3419 m 0,0 c 0.633,0.717 1.3466,1.3628 2.1196,1.9256 m 0,0 c 0.8392,0.611 1.7484,1.1241 2.6948,1.5501 m 0,0 c 0.5025,0.2262 1.0154,0.4279 1.5379,0.5995 m 0,0 c 0.5786,0.1901 1.169,0.3434 1.7593,0.4967" />
    <path
       inkscape:connector-curvature="0"
       id="path4582"
       qs:layer="0"
       style="fill:none;stroke:#000000;stroke-width:1.41111124;stroke-linecap:round;stroke-linejoin:round;stroke-miterlimit:4;stroke-dasharray:none"
       d="m 217.29248,52.737248 c 0.1072,0.5834 0.2143,1.1669 0.3729,1.7369 m 0,0 c 0.1581,0.5685 0.3673,1.1235 0.6179,1.6603 m 0,0 c 0.4372,0.9362 1.0006,1.8168 1.6834,2.5911 m 0,0 c 0.6829,0.7745 1.4854,1.4427 2.3624,1.9922 m 0,0 c 1.0042,0.6293 2.1063,1.103 3.2478,1.4046 m 0,0 c 0.696,0.1839 1.4066,0.3038 2.1188,0.4077 m 0,0 c 0.7244,0.1058 1.4503,0.195 2.1763,0.2842" />
    <line
       id="line4588"
       qs:layer="0"
       style="fill:none;stroke:#000000;stroke-width:1.41111124;stroke-linecap:round;stroke-linejoin:round;stroke-miterlimit:4;stroke-dasharray:none"
       y2="75.284851"
       x2="230.77806"
       y1="64.619324"
       x1="253.81334" />
    <line
       id="line4594"
       qs:layer="0"
       style="fill:none;stroke:#000000;stroke-width:1.41111124;stroke-linecap:round;stroke-linejoin:round;stroke-miterlimit:4;stroke-dasharray:none"
       y2="80.561707"
       x2="228.02147"
       y1="67.82489"
       x1="260.20859" />
    <path
       inkscape:connector-curvature="0"
       id="path4600"
       qs:layer="0"
       style="fill:none;stroke:#000000;stroke-width:1.41111124;stroke-linecap:round;stroke-linejoin:round;stroke-miterlimit:4;stroke-dasharray:none"
       d="m 246.54358,56.023148 c -0.2494,0.6581 -0.4987,1.3161 -0.8038,1.9498 m 0,0 c -0.8771,1.8216 -2.2152,3.4415 -3.7783,4.7412 m 0,0 c -0.778,0.6468 -1.6117,1.2143 -2.4892,1.7053 m 0,0 c -0.8772,0.4909 -1.7983,0.9053 -2.7468,1.2465 m 0,0 c -1.8747,0.6745 -3.8568,1.0631 -5.8426,1.1856 m 0,0 c -0.6546,0.04 -1.3096,0.052 -1.9648,0.037 m 0,0 c -0.784,-0.018 -1.5683,-0.073 -2.3443,-0.1826 m 0,0 c -0.6558,-0.092 -1.3058,-0.2232 -1.9557,-0.354" />
    <path
       inkscape:connector-curvature="0"
       id="path4606"
       qs:layer="0"
       style="fill:none;stroke:#000000;stroke-width:1.41111124;stroke-linecap:round;stroke-linejoin:round;stroke-miterlimit:4;stroke-dasharray:none"
       d="m 247.30778,51.074048 c 0.7034,0.3251 1.4067,0.6502 2.0779,1.034 m 0,0 c 0.6413,0.3666 1.2532,0.7868 1.839,1.2392 m 0,0 c 0.5686,0.439 1.1126,0.9084 1.6285,1.4072 m 0,0 c 0.5599,0.5414 1.0866,1.1175 1.5754,1.7246 m 0,0 c 0.9145,1.136 1.6959,2.3807 2.3609,3.6779 m 0,0 c 0.1721,0.3356 0.3363,0.6746 0.4982,1.0148 m 0,0 c 1.0401,2.1867 1.9805,4.4199 2.9208,6.6532" />
    <path
       inkscape:connector-curvature="0"
       id="path4612"
       qs:layer="0"
       style="fill:none;stroke:#000000;stroke-width:1.41111124;stroke-linecap:round;stroke-linejoin:round;stroke-miterlimit:4;stroke-dasharray:none"
       d="m 230.77808,75.284948 c -0.2899,-0.5801 -0.5798,-1.1603 -0.843,-1.755 m 0,0 c -0.4178,-0.9438 -0.7682,-1.9244 -0.9573,-2.9379 m 0,0 c -0.1085,-0.5811 -0.164,-1.173 -0.1683,-1.7635 m 0,0 c -0.005,-0.6478 0.0519,-1.2939 0.1086,-1.9401" />
    <path
       inkscape:connector-curvature="0"
       id="path4618"
       qs:layer="0"
       style="fill:none;stroke:#000000;stroke-width:1.41111124;stroke-linecap:round;stroke-linejoin:round;stroke-miterlimit:4;stroke-dasharray:none"
       d="m 228.02148,80.561548 c -0.6011,-1.4531 -1.2021,-2.9063 -1.8948,-4.3159 m 0,0 c -0.1077,-0.2193 -0.2177,-0.4376 -0.3231,-0.6583 m 0,0 c -0.4115,-0.8619 -0.7527,-1.7619 -0.987,-2.6879 m 0,0 c -0.1299,-0.5136 -0.227,-1.0352 -0.2963,-1.5602 m 0,0 c -0.0667,-0.5043 -0.1078,-1.0116 -0.1266,-1.52 m 0,0 c -0.0203,-0.5502 -0.0145,-1.1017 0.0229,-1.6505 m 0,0 c 0.0414,-0.6078 0.1215,-1.2124 0.2015,-1.8169" />
    <path
       inkscape:connector-curvature="0"
       id="path4624"
       qs:layer="0"
       style="fill:none;stroke:#000000;stroke-width:1.41111124;stroke-linecap:round;stroke-linejoin:round;stroke-miterlimit:4;stroke-dasharray:none"
       d="m 242.05388,54.611648 c 0.824,0.1923 1.6479,0.3847 2.4577,0.6315 m 0,0 c 0.6946,0.2117 1.3788,0.4635 2.032,0.78 m 0,0 c 0.7117,0.3449 1.3866,0.7666 2.0204,1.242 m 0,0 c 0.6103,0.4579 1.1826,0.9655 1.7035,1.5213 m 0,0 c 0.9531,1.0171 1.7342,2.1953 2.3906,3.4279 m 0,0 c 0.419,0.7869 0.7872,1.596 1.1553,2.4051" />
    <path
       inkscape:connector-curvature="0"
       id="path4630"
       qs:layer="0"
       style="fill:none;stroke:#000000;stroke-width:1.41111124;stroke-linecap:round;stroke-linejoin:round;stroke-miterlimit:4;stroke-dasharray:none"
       d="m 242.05388,54.611648 c -0.1275,0.3378 -0.2551,0.6756 -0.4013,1.006 m 0,0 c -0.6088,1.3754 -1.541,2.6222 -2.6509,3.6475 m 0,0 c -0.5535,0.5114 -1.1513,0.9677 -1.7846,1.3683 m 0,0 c -0.6332,0.4006 -1.3018,0.7455 -1.9949,1.0371 m 0,0 c -1.3726,0.5777 -2.841,0.9464 -4.3206,1.0778 m 0,0 c -0.3428,0.03 -0.6862,0.048 -1.0296,0.066" />
  </g>
</svg>
