<?xml version="1.0" encoding="UTF-8" standalone="no"?>
<!-- 2019-08-30 11:23:15 Generated by QCAD 3.23.0 SVG Exporter -->

<svg
   xmlns:qs="http://qcad.org/namespaces/svg"
   xmlns:dc="http://purl.org/dc/elements/1.1/"
   xmlns:cc="http://creativecommons.org/ns#"
   xmlns:rdf="http://www.w3.org/1999/02/22-rdf-syntax-ns#"
   xmlns:svg="http://www.w3.org/2000/svg"
   xmlns="http://www.w3.org/2000/svg"
   xmlns:sodipodi="http://sodipodi.sourceforge.net/DTD/sodipodi-0.dtd"
   xmlns:inkscape="http://www.inkscape.org/namespaces/inkscape"
   width="1200"
   height="640"
   viewBox="-53.9875 -30.073 338.66667 180.62222"
   version="1.1"
   style="fill:none;stroke-linecap:round;stroke-linejoin:round"
   id="svg2"
   inkscape:version="0.48.5 r10040"
   sodipodi:docname="Empty.svg">
  <metadata
     id="metadata138">
    <rdf:RDF>
      <cc:Work
         rdf:about="">
        <dc:format>image/svg+xml</dc:format>
        <dc:type
           rdf:resource="http://purl.org/dc/dcmitype/StillImage" />
        <dc:title></dc:title>
      </cc:Work>
    </rdf:RDF>
  </metadata>
  <defs
     id="defs136" />
  <sodipodi:namedview
     pagecolor="#ffffff"
     bordercolor="#666666"
     borderopacity="1"
     objecttolerance="10"
     gridtolerance="10"
     guidetolerance="10"
     inkscape:pageopacity="0"
     inkscape:pageshadow="2"
     inkscape:window-width="1920"
     inkscape:window-height="1018"
     id="namedview134"
     showgrid="false"
     inkscape:zoom="1.275"
     inkscape:cx="600"
     inkscape:cy="288.62745"
     inkscape:window-x="-8"
     inkscape:window-y="-8"
     inkscape:window-maximized="1"
     inkscape:current-layer="layer2"
     fit-margin-top="10"
     fit-margin-left="10"
     fit-margin-right="10"
     fit-margin-bottom="10"
     borderlayer="false" />
  <g
     inkscape:groupmode="layer"
     id="layer9"
     inkscape:label="REF"
     style="display:none">
    <path
       style="fill:none;stroke:#ff00ff;stroke-width:0.28222221px;stroke-linecap:butt;stroke-linejoin:miter;stroke-opacity:1"
       d="M -53.994232,-29.327488 -33.168223,71.425354 -53.994232,151.07076"
       id="path28085"
       inkscape:connector-curvature="0"
       sodipodi:nodetypes="ccc" />
  </g>
  <g
     inkscape:groupmode="layer"
     id="layer1"
     inkscape:label="BaseLine"
     style="display:inline" />
  <g
     inkscape:groupmode="layer"
     id="layer5"
     inkscape:label="Constructors"
     style="display:inline" />
  <g
     inkscape:groupmode="layer"
     id="layer2"
     inkscape:label="Painters"
     style="display:inline">
    <line
       id="line456"
       qs:layer="layer 1"
       style="fill:none;stroke:#0000ff;stroke-width:0.56444442;stroke-linecap:round;stroke-linejoin:round;stroke-miterlimit:4;stroke-dasharray:none;display:inline"
       y2="106.19824"
       x2="-33.833675"
       y1="36.967289"
       x1="-33.833675" />
    <line
       id="line634"
       qs:layer="layer 1"
       style="fill:none;stroke:#0000ff;stroke-width:0.56444442;stroke-linecap:round;stroke-linejoin:round;stroke-miterlimit:4;stroke-dasharray:none;display:inline"
       y2="106.19824"
       x2="-16.789061"
       y1="36.967289"
       x1="-16.789061" />
    <line
       id="line636"
       qs:layer="layer 1"
       style="fill:none;stroke:#0000ff;stroke-width:0.56444442;stroke-linecap:round;stroke-linejoin:round;stroke-miterlimit:4;stroke-dasharray:none;display:inline"
       y2="106.19824"
       x2="4.4240441"
       y1="36.967289"
       x1="4.4240441" />
    <line
       id="line638"
       qs:layer="layer 1"
       style="fill:none;stroke:#0000ff;stroke-width:0.56444442;stroke-linecap:round;stroke-linejoin:round;stroke-miterlimit:4;stroke-dasharray:none;display:inline"
       y2="106.19824"
       x2="25.637148"
       y1="36.967289"
       x1="25.637148" />
    <line
       id="line640"
       qs:layer="layer 1"
       style="fill:none;stroke:#0000ff;stroke-width:0.56444442;stroke-linecap:round;stroke-linejoin:round;stroke-miterlimit:4;stroke-dasharray:none;display:inline"
       y2="106.03076"
       x2="48.707508"
       y1="36.899906"
       x1="44.988651" />
    <line
       id="line642"
       qs:layer="layer 1"
       style="fill:none;stroke:#0000ff;stroke-width:0.56444442;stroke-linecap:round;stroke-linejoin:round;stroke-miterlimit:4;stroke-dasharray:none;display:inline"
       y2="100.50195"
       x2="78.363647"
       y1="34.675301"
       x1="56.921635" />
    <line
       id="line644"
       qs:layer="layer 1"
       style="fill:none;stroke:#0000ff;stroke-width:0.56444442;stroke-linecap:round;stroke-linejoin:round;stroke-miterlimit:4;stroke-dasharray:none;display:inline"
       y2="88.200195"
       x2="104.56761"
       y1="28.835453"
       x1="68.948715" />
    <line
       id="line706"
       qs:layer="layer 1"
       style="fill:none;stroke:#0000ff;stroke-width:0.56444442;stroke-linecap:round;stroke-linejoin:round;stroke-miterlimit:4;stroke-dasharray:none;display:inline"
       y2="77.80909"
       x2="207.21959"
       y1="38.799809"
       x1="264.41379" />
    <line
       id="line712"
       qs:layer="layer 1"
       style="fill:none;stroke:#0000ff;stroke-width:0.56444442;stroke-linecap:round;stroke-linejoin:round;stroke-miterlimit:4;stroke-dasharray:none;display:inline"
       y2="86.406738"
       x2="211.84593"
       y1="60.166512"
       x1="275.9111" />
    <line
       id="line136"
       qs:layer="layer 2"
       style="fill:none;stroke:#ff0000;stroke-width:1.41111112;stroke-linecap:round;stroke-linejoin:round;stroke-miterlimit:4;stroke-dasharray:none;display:inline"
       y2="71.582527"
       x2="42.484745"
       y1="71.582527"
       x1="-33.833675" />
    <path
       inkscape:connector-curvature="0"
       id="path138"
       qs:layer="layer 2"
       style="fill:none;stroke:#ff0000;stroke-width:1.41111112;stroke-linecap:round;stroke-linejoin:round;stroke-miterlimit:4;stroke-dasharray:none;display:inline"
       d="M 42.484731,71.582606 A 81.228295,81.228295 0 0 0 84.276421,60.007007" />
    <line
       id="line140"
       qs:layer="layer 2"
       style="fill:none;stroke:#ff0000;stroke-width:1.41111112;stroke-linecap:round;stroke-linejoin:round;stroke-miterlimit:4;stroke-dasharray:none;display:inline"
       y2="34.421391"
       x2="126.9193"
       y1="60.006844"
       x1="84.276428" />
    <path
       inkscape:connector-curvature="0"
       id="path142"
       qs:layer="layer 2"
       style="fill:none;stroke:#ff0000;stroke-width:1.41111112;stroke-linecap:round;stroke-linejoin:round;stroke-miterlimit:4;stroke-dasharray:none;display:inline"
       d="M 126.91932,34.421208 A 81.228295,81.228295 0 0 1 248.68091,89.831905" />
    <path
       inkscape:connector-curvature="0"
       id="path5548"
       qs:layer="0"
       style="fill:none;stroke:#000000;stroke-width:1.41111112;stroke-linecap:round;stroke-linejoin:round;stroke-miterlimit:4;stroke-dasharray:none;display:inline"
       d="m -16.789069,78.925703 c -1.2255,-1.222098 -2.451,-2.444199 -3.6715,-3.671598 m 0,0 c -1.2205,-1.227401 -2.4359,-2.4601 -3.6715,-3.671499 m 0,0 c -0.5492,-0.5385 -1.1024,-1.072702 -1.632,-1.6319 m 0,0 c -0.5316,-0.561402 -1.0394,-1.148001 -1.4819,-1.7812 m 0,0 c -0.423,-0.605302 -0.7863,-1.253301 -1.0915,-1.927301 m 0,0 c -0.4419,-0.975801 -0.762,-2.0062 -0.9512,-3.062301 m 0,0 c -0.1892,-1.055999 -0.2475,-2.137799 -0.1534,-3.202697 m 0,0 c 0.0277,-0.313701 0.0686,-0.625901 0.1096,-0.938101" />
    <path
       inkscape:connector-curvature="0"
       id="path5554"
       qs:layer="0"
       style="fill:none;stroke:#000000;stroke-width:1.41111112;stroke-linecap:round;stroke-linejoin:round;stroke-miterlimit:4;stroke-dasharray:none;display:inline"
       d="m -29.332469,84.126105 c -0.0411,-0.312301 -0.0821,-0.6246 -0.1096,-0.938101 m 0,0 c -0.0936,-1.0645 -0.0316,-2.143701 0.1534,-3.2027 m 0,0 c 0.1851,-1.059098 0.4933,-2.097899 0.9512,-3.0623 m 0,0 c 0.3162,-0.666098 0.7039,-1.296699 1.0915,-1.927299" />
    <path
       inkscape:connector-curvature="0"
       id="path5560"
       qs:layer="0"
       style="fill:none;stroke:#000000;stroke-width:1.41111112;stroke-linecap:round;stroke-linejoin:round;stroke-miterlimit:4;stroke-dasharray:none;display:inline"
       d="m -16.789069,78.925703 c -0.536,0.551502 -1.072,1.103001 -1.6319,1.631902 m 0,0 c -0.562,0.530999 -1.1481,1.039301 -1.7811,1.481898 m 0,0 c -0.6052,0.423201 -1.2533,0.786401 -1.9273,1.091602 m 0,0 c -0.9759,0.441799 -2.0063,0.761899 -3.0624,0.9511 m 0,0 c -1.056,0.189199 -2.1378,0.2476 -3.2026,0.153498 m 0,0 c -0.3137,-0.028 -0.6259,-0.069 -0.9381,-0.109598" />
    <path
       inkscape:connector-curvature="0"
       id="path5566"
       qs:layer="0"
       style="fill:none;stroke:#000000;stroke-width:1.41111112;stroke-linecap:round;stroke-linejoin:round;stroke-miterlimit:4;stroke-dasharray:none;display:inline"
       d="m -20.202069,82.039503 c -1.1752,-1.172698 -2.3503,-2.345498 -3.522,-3.521899 m 0,0 c -1.1716,-1.176401 -2.3398,-2.356499 -3.5219,-3.521899 m 0,0 c -0.5979,-0.5895 -1.1993,-1.175201 -1.7815,-1.7812 m 0,0 c -0.5027,-0.523201 -0.9911,-1.061599 -1.4385,-1.631899 m 0,0 c -0.4838,-0.6168 -0.9197,-1.270901 -1.3119,-1.952702 m 0,0 c -1.002,-1.741999 -1.7182,-3.664099 -2.0558,-5.6485 m 0,0 c -0.3375,-1.984197 -0.2965,-4.030599 0,-6.010698 m 0,0 c 0.0547,-0.364899 0.118,-0.7276 0.2269,-1.084301 m 0,0 c 0.1533,-0.501599 0.3969,-0.991398 0.7635,-1.357999 m 0,0 c 0.3667,-0.3667 0.8564,-0.610199 1.3581,-0.763499 m 0,0 c 0.3567,-0.109 0.7194,-0.172401 1.0842,-0.226901 m 0,0 c 1.9796,-0.295899 4.0209,-0.3304 6.0108,0 m 0,0 c 1.9899,0.3304 3.9283,1.0257 5.6484,2.0558 m 0,0 c 0.6732,0.403101 1.313,0.857501 1.9527,1.311901" />
    <path
       inkscape:connector-curvature="0"
       id="path5572"
       qs:layer="0"
       style="fill:none;stroke:#000000;stroke-width:1.41111112;stroke-linecap:round;stroke-linejoin:round;stroke-miterlimit:4;stroke-dasharray:none;display:inline"
       d="m -24.132069,71.582606 c 1.2238,-1.223801 2.4477,-2.4477 3.6715,-3.6715 m 0,0 c 1.2238,-1.223902 2.4477,-2.447699 3.6715,-3.671601" />
    <path
       inkscape:connector-curvature="0"
       id="path5578"
       qs:layer="0"
       style="fill:none;stroke:#000000;stroke-width:1.41111112;stroke-linecap:round;stroke-linejoin:round;stroke-miterlimit:4;stroke-dasharray:none;display:inline"
       d="m -16.789069,85.259504 c -0.6397,0.4544 -1.2795,0.908801 -1.9527,1.311901 m 0,0 c -1.7201,1.0301 -3.6585,1.7254 -5.6484,2.0558 m 0,0 c -1.9899,0.330398 -4.0312,0.295899 -6.0108,0 m 0,0 c -0.3648,-0.055 -0.7275,-0.117901 -1.0842,-0.226901 m 0,0 c -0.5017,-0.1533 -0.9915,-0.396801 -1.3581,-0.763501 m 0,0 c -0.3666,-0.366599 -0.6101,-0.856398 -0.7635,-1.358 m 0,0 c -0.109,-0.356698 -0.1724,-0.7195 -0.2269,-1.084298 m 0,0 c -0.2958,-1.9796 -0.3304,-4.020902 0,-6.010701 m 0,0 c 0.3304,-1.99 1.0257,-3.928398 2.0558,-5.6485 m 0,0 c 0.4031,-0.673199 0.8575,-1.312898 1.3119,-1.952698" />
    <path
       inkscape:connector-curvature="0"
       id="path5584"
       qs:layer="0"
       style="fill:none;stroke:#000000;stroke-width:1.41111112;stroke-linecap:round;stroke-linejoin:round;stroke-miterlimit:4;stroke-dasharray:none;display:inline"
       d="m -29.332469,59.039106 c 0.3122,-0.041 0.6245,-0.082 0.9381,-0.109601 m 0,0 c 1.0644,-0.094 2.1436,-0.032 3.2026,0.153501 m 0,0 c 1.0591,0.185101 2.098,0.493299 3.0624,0.9511 m 0,0 c 0.6661,0.316301 1.2967,0.703899 1.9273,1.091599" />
    <path
       inkscape:connector-curvature="0"
       id="path5590"
       qs:layer="0"
       style="fill:none;stroke:#000000;stroke-width:1.41111112;stroke-linecap:round;stroke-linejoin:round;stroke-miterlimit:4;stroke-dasharray:none;display:inline"
       d="m -27.245969,68.169506 c 1.1721,-1.175902 2.3443,-2.3518 3.5219,-3.521899 m 0,0 c 1.1777,-1.170102 2.3609,-2.334201 3.522,-3.521902 m 0,0 c 0.5872,-0.600699 1.1688,-1.207499 1.7811,-1.781599 m 0,0 c 0.5287,-0.4957 1.0803,-0.967099 1.6319,-1.438399" />
    <path
       inkscape:connector-curvature="0"
       id="path5716"
       qs:layer="0"
       style="fill:none;stroke:#000000;stroke-width:1.41111112;stroke-linecap:round;stroke-linejoin:round;stroke-miterlimit:4;stroke-dasharray:none;display:inline"
       d="m -16.789069,64.239505 c 0.5361,-0.551601 1.0721,-1.1033 1.632,-1.631899 m 0,0 c 0.562,-0.530699 1.1482,-1.038101 1.7811,-1.481901 m 0,0 c 1.0886,-0.763298 2.3156,-1.3386 3.5969,-1.715 m 0,0 c 1.1685,-0.3433 2.3822,-0.521298 3.5966,-0.520398 m 0,0 c 1.2145,8.47e-4 2.4297,0.180899 3.5969002,0.520398 m 0,0 c 0.6503,0.1891 1.2857001,0.4279 1.89000015,0.7269 m 0,0 c 0.58849985,0.2912 1.1474998,0.639601 1.70649965,0.9881" />
    <path
       inkscape:connector-curvature="0"
       id="path5722"
       qs:layer="0"
       style="fill:none;stroke:#000000;stroke-width:1.41111112;stroke-linecap:round;stroke-linejoin:round;stroke-miterlimit:4;stroke-dasharray:none;display:inline"
       d="m -6.182469,68.319106 c 1.1971001,-1.2009 2.3942001,-2.4019 3.5969002,-3.596899 m 0,0 c 1.2026001,-1.194802 2.41080015,-2.3837 3.5964998,-3.596502 m 0,0 c 0.5874,-0.6008 1.1692,-1.2074 1.7816,-1.781599 m 0,0 c 0.5286001,-0.495599 1.0801,-0.967 1.6315,-1.438399" />
    <path
       inkscape:connector-curvature="0"
       id="path5728"
       qs:layer="0"
       style="fill:none;stroke:#000000;stroke-width:1.41111112;stroke-linecap:round;stroke-linejoin:round;stroke-miterlimit:4;stroke-dasharray:none;display:inline"
       d="m -16.789069,85.259504 c 0.5768,-0.496 1.1536,-0.992099 1.7066,-1.5134 m 0,0 c 0.585,-0.551699 1.1434,-1.131601 1.7065,-1.706601 m 0,0 c 1.1868,-1.2118 2.3945,-2.401299 3.5969,-3.596498 m 0,0 c 1.2024,-1.1952 2.3995,-2.396101 3.5966,-3.5969" />
    <path
       inkscape:connector-curvature="0"
       id="path5734"
       qs:layer="0"
       style="fill:none;stroke:#000000;stroke-width:1.41111112;stroke-linecap:round;stroke-linejoin:round;stroke-miterlimit:4;stroke-dasharray:none;display:inline"
       d="m -16.789069,78.925703 c 1.1377,-1.1377 2.2754,-2.275399 3.4131,-3.413099 m 0,0 c 1.31,-1.31 2.62,-2.619999 3.93,-3.929998" />
    <path
       inkscape:connector-curvature="0"
       id="path5740"
       qs:layer="0"
       style="fill:none;stroke:#000000;stroke-width:1.41111112;stroke-linecap:round;stroke-linejoin:round;stroke-miterlimit:4;stroke-dasharray:none;display:inline"
       d="m -16.789069,64.239505 c 1.1377,1.1377 2.2754,2.2754 3.4131,3.4131 m 0,0 c 1.31,1.309999 2.62,2.620001 3.93,3.930001 m 0,0 c 0.544,0.544 1.088,1.087898 1.6319,1.631899 m 0,0 c 0.5439,0.543901 1.0877,1.087701 1.6316,1.6316 m 0,0 c 1.1989,1.1989 2.3979,2.397901 3.5969001,3.5969 m 0,0 c 1.1988002,1.1988 2.39770025,2.3977 3.5964999,3.596498" />
    <path
       inkscape:connector-curvature="0"
       id="path5746"
       qs:layer="0"
       style="fill:none;stroke:#000000;stroke-width:1.41111112;stroke-linecap:round;stroke-linejoin:round;stroke-miterlimit:4;stroke-dasharray:none;display:inline"
       d="m -16.789069,57.905707 c 0.5596,-0.403902 1.1191,-0.807802 1.7066,-1.167302 m 0,0 c 0.5478,-0.3353 1.12,-0.632 1.7065,-0.897698 m 0,0 c 1.1522,-0.522001 2.3599,-0.924202 3.5969,-1.188102 m 0,0 c 1.181,-0.251897 2.3888,-0.377698 3.5966,-0.377698 m 0,0 c 1.2079,0 2.4158,0.125699 3.5969002,0.377698 m 0,0 c 1.2369001,0.2639 2.44440015,0.666203 3.5964998,1.188102 m 0,0 c 0.5865,0.265698 1.1587001,0.562398 1.7066001,0.897698 m 0,0 c 0.5874,0.3595 1.1469999,0.7634 1.7065,1.167302" />
    <path
       inkscape:connector-curvature="0"
       id="path5752"
       qs:layer="0"
       style="fill:none;stroke:#000000;stroke-width:1.41111112;stroke-linecap:round;stroke-linejoin:round;stroke-miterlimit:4;stroke-dasharray:none;display:inline"
       d="m -13.375969,61.125705 c 1.199,1.198801 2.398,2.397602 3.5969,3.596502 m 0,0 c 1.1989,1.198899 2.3977,2.398 3.5966,3.596899 m 0,0 c 1.0878,1.087899 2.1756,2.175699 3.2634,3.2635 m 0,0 c 1.3100002,1.309999 2.62000035,2.619998 3.93,3.929998 m 0,0 c 1.1377,1.1377 2.2754,2.275399 3.4131,3.413099" />
    <path
       inkscape:connector-curvature="0"
       id="path5758"
       qs:layer="0"
       style="fill:none;stroke:#000000;stroke-width:1.41111112;stroke-linecap:round;stroke-linejoin:round;stroke-miterlimit:4;stroke-dasharray:none;display:inline"
       d="m -2.919069,71.582606 c 1.3100002,-1.31 2.62000035,-2.620002 3.93,-3.930001 m 0,0 c 1.1377,-1.1377 2.2754,-2.2754 3.4131,-3.4131" />
    <path
       inkscape:connector-curvature="0"
       id="path5764"
       qs:layer="0"
       style="fill:none;stroke:#000000;stroke-width:1.41111112;stroke-linecap:round;stroke-linejoin:round;stroke-miterlimit:4;stroke-dasharray:none;display:inline"
       d="m -16.789069,85.259504 c 0.5596,0.403899 1.1191,0.807799 1.7066,1.167299 m 0,0 c 0.5478,0.3353 1.12,0.632 1.7065,0.897701 m 0,0 c 1.1522,0.522001 2.3599,0.924199 3.5969,1.188099 m 0,0 c 1.181,0.2519 2.3888,0.377701 3.5966,0.377701 m 0,0 c 1.2079,0 2.4158,-0.125699 3.5969002,-0.377701 m 0,0 c 1.2369001,-0.2639 2.44440015,-0.666199 3.5964998,-1.188099 m 0,0 c 0.5865,-0.265701 1.1587001,-0.562401 1.7066001,-0.897701 m 0,0 c 0.5874,-0.3595 1.1469999,-0.7634 1.7065,-1.167299" />
    <path
       inkscape:connector-curvature="0"
       id="path5770"
       qs:layer="0"
       style="fill:none;stroke:#000000;stroke-width:1.41111112;stroke-linecap:round;stroke-linejoin:round;stroke-miterlimit:4;stroke-dasharray:none;display:inline"
       d="m -13.375969,82.039503 c 0.559,0.348503 1.1181,0.6969 1.7066,0.9881 m 0,0 c 0.6044,0.299102 1.2399,0.5378 1.8903,0.7269 m 0,0 c 1.1671,0.3394 2.3822,0.519402 3.5966,0.520401 m 0,0 c 1.2145,0 2.4283001,-0.176999 3.5969002,-0.520401 m 0,0 c 1.2812002,-0.376499 2.508,-0.9518 3.5964998,-1.715 m 0,0 c 0.6331001,-0.4438 1.2194,-0.951199 1.7816,-1.481898 m 0,0 c 0.5598,-0.5285 1.0956,-1.0802 1.6315,-1.631902" />
    <path
       inkscape:connector-curvature="0"
       id="path5776"
       qs:layer="0"
       style="fill:none;stroke:#000000;stroke-width:1.41111112;stroke-linecap:round;stroke-linejoin:round;stroke-miterlimit:4;stroke-dasharray:none;display:inline"
       d="m 4.424031,64.239505 c 0.536,-0.551601 1.0721,-1.1033 1.6319,-1.631899 m 0,0 c 0.5621,-0.530699 1.1482,-1.038101 1.7812,-1.481901 m 0,0 c 1.0885,-0.763298 2.3156,-1.3386 3.5969,-1.715 m 0,0 c 1.1685,-0.3433 2.3822,-0.521298 3.5965,-0.520398 m 0,0 c 1.2146,8.47e-4 2.4298,0.180899 3.597,0.520398 m 0,0 c 0.6503,0.1891 1.2857,0.4279 1.89,0.7269 m 0,0 c 0.5885,0.2912 1.1475,0.639601 1.7065,0.9881" />
    <path
       inkscape:connector-curvature="0"
       id="path5782"
       qs:layer="0"
       style="fill:none;stroke:#000000;stroke-width:1.41111112;stroke-linecap:round;stroke-linejoin:round;stroke-miterlimit:4;stroke-dasharray:none;display:inline"
       d="m 15.030531,68.319106 c 1.1971,-1.2009 2.3942,-2.4019 3.597,-3.596899 m 0,0 c 1.2026,-1.194802 2.4108,-2.3837 3.5965,-3.596502 m 0,0 c 0.5874,-0.6008 1.16919,-1.2074 1.7815,-1.781599 m 0,0 c 0.5287,-0.495599 1.0801,-0.967 1.6316,-1.438399" />
    <path
       inkscape:connector-curvature="0"
       id="path5788"
       qs:layer="0"
       style="fill:none;stroke:#000000;stroke-width:1.41111112;stroke-linecap:round;stroke-linejoin:round;stroke-miterlimit:4;stroke-dasharray:none;display:inline"
       d="m 4.424031,85.259504 c 0.5768,-0.496 1.1536,-0.992099 1.7065,-1.5134 m 0,0 c 0.5851,-0.551699 1.1435,-1.131601 1.7066,-1.706601 m 0,0 c 1.1868,-1.2118 2.3945,-2.401299 3.5969,-3.596498 m 0,0 c 1.2024,-1.1952 2.3995,-2.396101 3.5965,-3.5969" />
    <path
       inkscape:connector-curvature="0"
       id="path5794"
       qs:layer="0"
       style="fill:none;stroke:#000000;stroke-width:1.41111112;stroke-linecap:round;stroke-linejoin:round;stroke-miterlimit:4;stroke-dasharray:none;display:inline"
       d="m 4.424031,78.925703 c 1.1377,-1.1377 2.2754,-2.275399 3.4131,-3.413099 m 0,0 c 1.31,-1.31 2.62,-2.619999 3.93,-3.929998" />
    <path
       inkscape:connector-curvature="0"
       id="path5800"
       qs:layer="0"
       style="fill:none;stroke:#000000;stroke-width:1.41111112;stroke-linecap:round;stroke-linejoin:round;stroke-miterlimit:4;stroke-dasharray:none;display:inline"
       d="m 4.424031,64.239505 c 1.1377,1.1377 2.2754,2.2754 3.4131,3.4131 m 0,0 c 1.31,1.309999 2.62,2.620001 3.93,3.930001 m 0,0 c 0.544,0.544 1.0879,1.087898 1.6319,1.631899 m 0,0 c 0.5439,0.543901 1.0877,1.087701 1.6315,1.6316 m 0,0 c 1.199,1.1989 2.398,2.397901 3.597,3.5969 m 0,0 c 1.1988,1.1988 2.3977,2.3977 3.5965,3.596498" />
    <path
       inkscape:connector-curvature="0"
       id="path5806"
       qs:layer="0"
       style="fill:none;stroke:#000000;stroke-width:1.41111112;stroke-linecap:round;stroke-linejoin:round;stroke-miterlimit:4;stroke-dasharray:none;display:inline"
       d="m 4.424031,57.905707 c 0.5595,-0.403902 1.1191,-0.807802 1.7065,-1.167302 m 0,0 c 0.5479,-0.3353 1.1201,-0.632 1.7066,-0.897698 m 0,0 c 1.1522,-0.522001 2.3598,-0.924202 3.5969,-1.188102 m 0,0 c 1.181,-0.251897 2.3888,-0.377698 3.5965,-0.377698 m 0,0 c 1.208,0 2.4159,0.125699 3.597,0.377698 m 0,0 c 1.2369,0.2639 2.4444,0.666203 3.5965,1.188102 m 0,0 c 0.5865,0.265698 1.1587,0.562398 1.7065,0.897698 m 0,0 c 0.5875,0.3595 1.147,0.7634 1.7066,1.167302" />
    <path
       inkscape:connector-curvature="0"
       id="path5812"
       qs:layer="0"
       style="fill:none;stroke:#000000;stroke-width:1.41111112;stroke-linecap:round;stroke-linejoin:round;stroke-miterlimit:4;stroke-dasharray:none;display:inline"
       d="m 7.837131,61.125705 c 1.199,1.198801 2.398,2.397602 3.5969,3.596502 m 0,0 c 1.1989,1.198899 2.3977,2.398 3.5965,3.596899 m 0,0 c 1.0878,1.087899 2.1757,2.175699 3.2635,3.2635 m 0,0 c 1.31,1.309999 2.62,2.619998 3.93,3.929998 m 0,0 c 1.1377,1.1377 2.2754,2.275399 3.4131,3.413099" />
    <path
       inkscape:connector-curvature="0"
       id="path5818"
       qs:layer="0"
       style="fill:none;stroke:#000000;stroke-width:1.41111112;stroke-linecap:round;stroke-linejoin:round;stroke-miterlimit:4;stroke-dasharray:none;display:inline"
       d="m 18.294031,71.582606 c 1.31,-1.31 2.62,-2.620002 3.93,-3.930001 m 0,0 c 1.1377,-1.1377 2.2754,-2.2754 3.4131,-3.4131" />
    <path
       inkscape:connector-curvature="0"
       id="path5824"
       qs:layer="0"
       style="fill:none;stroke:#000000;stroke-width:1.41111112;stroke-linecap:round;stroke-linejoin:round;stroke-miterlimit:4;stroke-dasharray:none;display:inline"
       d="m 4.424031,85.259504 c 0.5595,0.403899 1.1191,0.807799 1.7065,1.167299 m 0,0 c 0.5479,0.3353 1.1201,0.632 1.7066,0.897701 m 0,0 c 1.1522,0.522001 2.3598,0.924199 3.5969,1.188099 m 0,0 c 1.181,0.2519 2.3888,0.377701 3.5965,0.377701 m 0,0 c 1.208,0 2.4159,-0.125699 3.597,-0.377701 m 0,0 c 1.2369,-0.2639 2.4444,-0.666199 3.5965,-1.188099 m 0,0 c 0.5865,-0.265701 1.1587,-0.562401 1.7065,-0.897701 m 0,0 c 0.5875,-0.3595 1.147,-0.7634 1.7066,-1.167299" />
    <path
       inkscape:connector-curvature="0"
       id="path5830"
       qs:layer="0"
       style="fill:none;stroke:#000000;stroke-width:1.41111112;stroke-linecap:round;stroke-linejoin:round;stroke-miterlimit:4;stroke-dasharray:none;display:inline"
       d="m 7.837131,82.039503 c 0.5590005,0.348503 1.118,0.6969 1.7065005,0.9881 m 0,0 c 0.6044995,0.299102 1.2399995,0.5378 1.8903995,0.7269 m 0,0 c 1.1671,0.3394 2.3822,0.519402 3.5965,0.520401 m 0,0 c 1.2146,0 2.4284,-0.176999 3.597,-0.520401 m 0,0 c 1.2811,-0.376499 2.508,-0.9518 3.5965,-1.715 m 0,0 c 0.6331,-0.4438 1.2194,-0.951199 1.7815,-1.481898 m 0,0 c 0.5599,-0.5285 1.0957,-1.0802 1.6316,-1.631902" />
    <path
       inkscape:connector-curvature="0"
       id="path5836"
       qs:layer="0"
       style="fill:none;stroke:#000000;stroke-width:1.41111112;stroke-linecap:round;stroke-linejoin:round;stroke-miterlimit:4;stroke-dasharray:none;display:inline"
       d="m 25.637131,64.239505 c 0.536,-0.551601 1.072,-1.1033 1.6319,-1.631899 m 0,0 c 0.5621,-0.530699 1.1482,-1.038101 1.7812,-1.481901 m 0,0 c 1.0885,-0.7632 2.3153,-1.3381 3.5969,-1.715 m 0,0 c 1.16869,-0.3438 2.3831,-0.522898 3.59649,-0.520398 m 0,0 c 1.2136,0 2.42631,0.186798 3.5969,0.520398 m 0,0 c 0.6523,0.185801 1.29161,0.418 1.89,0.7269 m 0,0 c 0.55101,0.284401 1.0675,0.633801 1.584,0.9832" />
    <path
       inkscape:connector-curvature="0"
       id="path5842"
       qs:layer="0"
       style="fill:none;stroke:#000000;stroke-width:1.41111112;stroke-linecap:round;stroke-linejoin:round;stroke-miterlimit:4;stroke-dasharray:none;display:inline"
       d="m 36.243621,68.319106 c 1.19411,-1.202701 2.3881,-2.405501 3.5969,-3.596899 m 0,0 c 1.1891,-1.172002 2.39251,-2.3329 3.474,-3.601402 m 0,0 c 0.50791,-0.5957 0.98891,-1.215099 1.49181,-1.815699 m 0,0 c 0.42519,-0.508 0.86619,-1.002501 1.30709,-1.497" />
    <path
       inkscape:connector-curvature="0"
       id="path5848"
       qs:layer="0"
       style="fill:none;stroke:#000000;stroke-width:1.41111112;stroke-linecap:round;stroke-linejoin:round;stroke-miterlimit:4;stroke-dasharray:none;display:inline"
       d="m 25.637131,85.259504 c 0.5768,-0.496 1.1536,-0.992099 1.70649,-1.5134 m 0,0 c 0.58511,-0.551699 1.1435,-1.131601 1.70661,-1.706601 m 0,0 c 1.18669,-1.2118 2.3945,-2.401299 3.5969,-3.596498 m 0,0 c 1.20239,-1.1952 2.3995,-2.396101 3.59649,-3.5969" />
    <path
       inkscape:connector-curvature="0"
       id="path5854"
       qs:layer="0"
       style="fill:none;stroke:#000000;stroke-width:1.41111112;stroke-linecap:round;stroke-linejoin:round;stroke-miterlimit:4;stroke-dasharray:none;display:inline"
       d="m 25.637131,78.925703 c 1.1377,-1.1377 2.2754,-2.275399 3.4131,-3.413099 m 0,0 c 1.30999,-1.31 2.61999,-2.619999 3.93,-3.929998" />
    <path
       inkscape:connector-curvature="0"
       id="path5860"
       qs:layer="0"
       style="fill:none;stroke:#000000;stroke-width:1.41111112;stroke-linecap:round;stroke-linejoin:round;stroke-miterlimit:4;stroke-dasharray:none;display:inline"
       d="m 25.637131,64.239505 c 1.1377,1.1377 2.2753,2.275501 3.4131,3.4131 m 0,0 c 1.30999,1.309999 2.6201,2.619801 3.93,3.930001 m 0,0 c 0.5439,0.544 1.08769,1.088198 1.6319,1.631899 m 0,0 c 0.544,0.543701 1.08839,1.087001 1.63149,1.6316 m 0,0 c 1.19741,1.200599 2.38861,2.407401 3.5969,3.5969 m 0,0 c 1.228,1.208701 2.47361,2.399498 3.7192,3.590199" />
    <path
       inkscape:connector-curvature="0"
       id="path5866"
       qs:layer="0"
       style="fill:none;stroke:#000000;stroke-width:1.41111112;stroke-linecap:round;stroke-linejoin:round;stroke-miterlimit:4;stroke-dasharray:none;display:inline"
       d="m 25.637131,57.905707 c 0.5595,-0.403902 1.11909,-0.807802 1.70649,-1.167302 m 0,0 c 0.54791,-0.3353 1.12011,-0.632 1.70661,-0.897698 m 0,0 c 1.15209,-0.522001 2.35949,-0.9241 3.5969,-1.188102 m 0,0 c 1.18119,-0.251999 2.38969,-0.378 3.59649,-0.377698 m 0,0 c 1.2069,2.82e-4 2.4121,0.127099 3.5969,0.377698 m 0,0 c 1.1831,0.2503 2.34591,0.624101 3.41201,1.183601 m 0,0 c 0.48729,0.255701 0.95429,0.5502 1.40479,0.8666 m 0,0 c 0.4989,0.3505 0.97751,0.727899 1.4561,1.1053" />
    <path
       inkscape:connector-curvature="0"
       id="path5872"
       qs:layer="0"
       style="fill:none;stroke:#000000;stroke-width:1.41111112;stroke-linecap:round;stroke-linejoin:round;stroke-miterlimit:4;stroke-dasharray:none;display:inline"
       d="m 29.050231,61.125705 c 1.19919,1.1986 2.3984,2.397201 3.5969,3.596502 m 0,0 c 1.19849,1.199399 2.3963,2.399498 3.59649,3.596899 m 0,0 c 1.089,1.086499 2.17991,2.170899 3.26351,3.2635 m 0,0 c 1.3116,1.322499 2.61239,2.657198 3.97599,3.924099 m 0,0 c 1.2197,1.133199 2.48951,2.2121 3.7594,3.291101" />
    <path
       inkscape:connector-curvature="0"
       id="path5878"
       qs:layer="0"
       style="fill:none;stroke:#000000;stroke-width:1.41111112;stroke-linecap:round;stroke-linejoin:round;stroke-miterlimit:4;stroke-dasharray:none;display:inline"
       d="m 39.507131,71.582606 c 1.31729,-1.290701 2.6347,-2.5814 3.88389,-3.935302 m 0,0 c 1.05321,-1.141498 2.05791,-2.328 3.06261,-3.514499" />
    <path
       inkscape:connector-curvature="0"
       id="path5884"
       qs:layer="0"
       style="fill:none;stroke:#000000;stroke-width:1.41111112;stroke-linecap:round;stroke-linejoin:round;stroke-miterlimit:4;stroke-dasharray:none;display:inline"
       d="m 25.637131,85.259504 c 0.5595,0.403899 1.11909,0.807799 1.70649,1.167299 m 0,0 c 0.54791,0.3353 1.12001,0.632 1.70661,0.897701 m 0,0 c 1.1522,0.5219 2.3599,0.9241 3.5969,1.188099 m 0,0 c 1.18089,0.252002 2.3885,0.378201 3.59649,0.377701 m 0,0 c 1.20821,-5.64e-4 2.41681,-0.127802 3.5969,-0.377701 m 0,0 c 1.294,-0.273998 2.5536,-0.6955 3.7811,-1.1947 m 0,0 c 0.6865,-0.2792 1.3629,-0.5828 2.00741,-0.942498 m 0,0 c 0.6745,-0.3766 1.31409,-0.814702 1.95369,-1.2529" />
    <path
       inkscape:connector-curvature="0"
       id="path5890"
       qs:layer="0"
       style="fill:none;stroke:#000000;stroke-width:1.41111112;stroke-linecap:round;stroke-linejoin:round;stroke-miterlimit:4;stroke-dasharray:none;display:inline"
       d="m 29.050231,82.039503 c 0.559,0.348503 1.118,0.6969 1.70649,0.9881 m 0,0 c 0.60441,0.299 1.24,0.537701 1.89041,0.7269 m 0,0 c 1.167,0.339601 2.38189,0.5202 3.59649,0.520401 m 0,0 c 1.2148,2e-4 2.4292,-0.1801 3.5969,-0.520401 m 0,0 c 1.3168,-0.383698 2.57431,-0.970698 3.7192,-1.721299 m 0,0 c 0.6941,-0.4551 1.3469,-0.970201 1.9604,-1.526701 m 0,0 c 0.5991,-0.543297 1.16071,-1.125999 1.7224,-1.708697" />
    <path
       inkscape:connector-curvature="0"
       id="path5896"
       qs:layer="0"
       style="fill:none;stroke:#000000;stroke-width:1.41111112;stroke-linecap:round;stroke-linejoin:round;stroke-miterlimit:4;stroke-dasharray:none;display:inline"
       d="m 46.453631,64.132805 c 0.44919,-0.577201 0.8985,-1.1545 1.361,-1.721998 m 0,0 c 0.45459,-0.5579 0.922,-1.106402 1.43689,-1.609401 m 0,0 c 0.8446,-0.825 1.8169,-1.527801 2.8725,-2.066801 m 0,0 c 0.9217,-0.4706 1.9068,-0.816398 2.9218,-1.005199 m 0,0 c 1.0152,-0.188801 2.0602,-0.2205 3.0882,-0.115299 m 0,0 c 0.5892,0.06 1.1728,0.165698 1.7417,0.321699 m 0,0 c 0.5706,0.156501 1.1264,0.3639 1.6822,0.5713" />
    <path
       inkscape:connector-curvature="0"
       id="path5902"
       qs:layer="0"
       style="fill:none;stroke:#000000;stroke-width:1.41111112;stroke-linecap:round;stroke-linejoin:round;stroke-miterlimit:4;stroke-dasharray:none;display:inline"
       d="m 56.773921,66.998507 c 0.8731,-1.392601 1.7461,-2.785201 2.5637,-4.211001 m 0,0 c 0.7998,-1.394602 1.5465,-2.820899 2.2203,-4.2804 m 0,0 c 0.3284,-0.711299 0.6394,-1.4305 0.9724,-2.1394 m 0,0 c 0.2816,-0.5994 0.579,-1.1915 0.8763,-1.783599" />
    <path
       inkscape:connector-curvature="0"
       id="path5908"
       qs:layer="0"
       style="fill:none;stroke:#000000;stroke-width:1.41111112;stroke-linecap:round;stroke-linejoin:round;stroke-miterlimit:4;stroke-dasharray:none;display:inline"
       d="m 47.582721,85.122505 c 0.6378,-0.532901 1.2755,-1.0659 1.8767,-1.6372 m 0,0 c 0.6245,-0.593502 1.20971,-1.228502 1.7918,-1.865802 m 0,0 c 1.2069,-1.321697 2.4004,-2.653798 3.5294,-4.038899 m 0,0 c 1.1044,-1.354799 2.147,-2.7603 3.1896,-4.165699" />
    <path
       inkscape:connector-curvature="0"
       id="path5914"
       qs:layer="0"
       style="fill:none;stroke:#000000;stroke-width:1.41111112;stroke-linecap:round;stroke-linejoin:round;stroke-miterlimit:4;stroke-dasharray:none;display:inline"
       d="m 47.242521,78.797806 c 1.14801,-1.2081 2.296,-2.416102 3.3846,-3.6754 m 0,0 c 1.22541,-1.417501 2.3755,-2.899802 3.5256,-4.3822" />
    <path
       inkscape:connector-curvature="0"
       id="path5920"
       qs:layer="0"
       style="fill:none;stroke:#000000;stroke-width:1.41111112;stroke-linecap:round;stroke-linejoin:round;stroke-miterlimit:4;stroke-dasharray:none;display:inline"
       d="m 46.453631,64.132805 c 1.12679,1.070701 2.25359,2.141401 3.42199,3.165701 m 0,0 c 1.3759,1.206198 2.8095,2.3479 4.2771,3.4417 m 0,0 c 0.6201,0.462099 1.2463,0.915698 1.8794,1.3594 m 0,0 c 0.6393,0.447999 1.2858,0.885898 1.9381,1.315299 m 0,0 c 1.4612,0.961701 2.9519,1.880198 4.4768,2.736399 m 0,0 c 1.5587,0.875301 3.153,1.685501 4.7473,2.495801" />
    <path
       inkscape:connector-curvature="0"
       id="path5926"
       qs:layer="0"
       style="fill:none;stroke:#000000;stroke-width:1.41111112;stroke-linecap:round;stroke-linejoin:round;stroke-miterlimit:4;stroke-dasharray:none;display:inline"
       d="m 46.113421,57.808106 c 0.4345,-0.428001 0.86901,-0.855999 1.329,-1.255101 m 0,0 c 0.4155,-0.360398 0.85181,-0.697199 1.3038,-1.012399 m 0,0 c 0.8514,-0.593601 1.75851,-1.1107 2.7136,-1.5175 m 0,0 c 0.87971,-0.3746 1.8,-0.6556 2.7402,-0.830899 m 0,0 c 0.94021,-0.1753 1.90011,-0.244901 2.8557,-0.212401 m 0,0 c 1.0375,0.035 2.0698,0.190799 3.0779,0.4378 m 0,0 c 0.5352,0.1312 1.0636,0.288101 1.5809,0.474599 m 0,0 c 0.573,0.206502 1.1326,0.449202 1.6921,0.691902" />
    <path
       inkscape:connector-curvature="0"
       id="path5932"
       qs:layer="0"
       style="fill:none;stroke:#000000;stroke-width:1.41111112;stroke-linecap:round;stroke-linejoin:round;stroke-miterlimit:4;stroke-dasharray:none;display:inline"
       d="m 49.251521,60.801406 c 1.1898,1.0818 2.3795,2.163499 3.6139,3.1928 m 0,0 c 1.262,1.052099 2.57061,2.049399 3.9085,3.004301 m 0,0 c 1.2399,0.884899 2.5049,1.733499 3.7935,2.545799 m 0,0 c 1.5863,1.0001 3.2084,1.945299 4.8678,2.817399 m 0,0 c 1.4742,0.7747 2.978,1.4917 4.4817,2.208799" />
    <path
       inkscape:connector-curvature="0"
       id="path5938"
       qs:layer="0"
       style="fill:none;stroke:#000000;stroke-width:1.41111112;stroke-linecap:round;stroke-linejoin:round;stroke-miterlimit:4;stroke-dasharray:none;display:inline"
       d="m 60.567421,69.544306 c 0.9466,-1.567899 1.8932,-3.135802 2.7495,-4.751801 m 0,0 c 0.7272,-1.372198 1.3893,-2.779098 2.0514,-4.185999" />
    <path
       inkscape:connector-curvature="0"
       id="path5944"
       qs:layer="0"
       style="fill:none;stroke:#000000;stroke-width:1.41111112;stroke-linecap:round;stroke-linejoin:round;stroke-miterlimit:4;stroke-dasharray:none;display:inline"
       d="m 47.582721,85.122505 c 0.68331,0.365599 1.36661,0.731198 2.0769,1.035998 m 0,0 c 0.6787,0.291301 1.38221,0.527101 2.0969,0.721701 m 0,0 c 1.444,0.393401 2.9342,0.6191 4.4297,0.671399 m 0,0 c 1.4588,0.051 2.9227,-0.063 4.358,-0.330398 m 0,0 c 1.4354,-0.2676 2.8421,-0.6888 4.1847,-1.262301 m 0,0 c 1.376,-0.587601 2.6846,-1.335199 3.8897,-2.2223 m 0,0 c 0.5966,-0.439199 1.1678,-0.912599 1.6959,-1.428899 m 0,0 c 0.5528,-0.5403 1.0585,-1.127501 1.5641,-1.714799" />
    <path
       inkscape:connector-curvature="0"
       id="path5950"
       qs:layer="0"
       style="fill:none;stroke:#000000;stroke-width:1.41111112;stroke-linecap:round;stroke-linejoin:round;stroke-miterlimit:4;stroke-dasharray:none;display:inline"
       d="m 51.251221,81.619503 c 0.669,0.283202 1.338,0.5664 2.03041,0.777 m 0,0 c 0.72739,0.2212 1.4806,0.362201 2.24039,0.4436 m 0,0 c 1.3904,0.149002 2.8028,0.098 4.1763,-0.1561 m 0,0 c 1.3736,-0.254598 2.7083,-0.713198 3.9524,-1.359298 m 0,0 c 1.322,-0.6867 2.5417,-1.5852 3.5436,-2.6776 m 0,0 c 0.5605,-0.611102 1.0528,-1.282901 1.4998,-1.981101 m 0,0 c 0.4364,-0.6817 0.8296,-1.388599 1.2228,-2.0955" />
    <path
       inkscape:connector-curvature="0"
       id="path5956"
       qs:layer="0"
       style="fill:none;stroke:#000000;stroke-width:1.41111112;stroke-linecap:round;stroke-linejoin:round;stroke-miterlimit:4;stroke-dasharray:none;display:inline"
       d="m 65.368321,60.606506 c 0.285,-0.673701 0.5699,-1.347399 0.8702,-2.0151 m 0,0 c 0.2952,-0.6563 0.6051,-1.306901 0.9727,-1.9258 m 0,0 c 0.6029,-1.0151 1.3608,-1.945101 2.2414,-2.7384 m 0,0 c 0.769,-0.692598 1.6314,-1.281099 2.5633,-1.725501 m 0,0 c 0.9319,-0.4445 1.9333,-0.744998 2.9536,-0.908699 m 0,0 c 0.5848,-0.094 1.1759,-0.142798 1.7658,-0.139 m 0,0 c 0.5916,0 1.1821,0.061 1.7726,0.117599" />
    <path
       inkscape:connector-curvature="0"
       id="path5962"
       qs:layer="0"
       style="fill:none;stroke:#000000;stroke-width:1.41111112;stroke-linecap:round;stroke-linejoin:round;stroke-miterlimit:4;stroke-dasharray:none;display:inline"
       d="m 76.078621,60.710305 c 0.4913,-1.569599 0.9827,-3.1392 1.3895,-4.7302 m 0,0 c 0.398,-1.5561 0.7151,-3.132698 1.0398,-4.7085 m 0,0 c 0.1665,-0.8077 0.335,-1.6152 0.5546,-2.408597 m 0,0 c 0.1932,-0.698302 0.4261,-1.385601 0.6589,-2.072902" />
    <path
       inkscape:connector-curvature="0"
       id="path5968"
       qs:layer="0"
       style="fill:none;stroke:#000000;stroke-width:1.41111112;stroke-linecap:round;stroke-linejoin:round;stroke-miterlimit:4;stroke-dasharray:none;display:inline"
       d="m 71.878621,80.592906 c 0.4785,-0.679501 0.957,-1.359101 1.3903,-2.066302 m 0,0 c 0.4501,-0.734599 0.8515,-1.499099 1.2493,-2.265098 m 0,0 c 0.8247,-1.588502 1.6338,-3.183602 2.3669,-4.813202 m 0,0 c 0.7171,-1.594098 1.3615,-3.221098 2.0059,-4.848098" />
    <path
       inkscape:connector-curvature="0"
       id="path5974"
       qs:layer="0"
       style="fill:none;stroke:#000000;stroke-width:1.41111112;stroke-linecap:round;stroke-linejoin:round;stroke-miterlimit:4;stroke-dasharray:none;display:inline"
       d="m 69.916921,74.570504 c 0.7972,-1.463498 1.5943,-2.926998 2.3209,-4.424599 m 0,0 c 0.8178,-1.685899 1.5462,-3.4149 2.2746,-5.143999" />
    <path
       inkscape:connector-curvature="0"
       id="path5980"
       qs:layer="0"
       style="fill:none;stroke:#000000;stroke-width:1.41111112;stroke-linecap:round;stroke-linejoin:round;stroke-miterlimit:4;stroke-dasharray:none;display:inline"
       d="m 65.368321,60.606506 c 1.3651,0.743399 2.7301,1.486899 4.1233,2.1747 m 0,0 c 1.6407,0.810099 3.3204,1.543 5.0208,2.2207 m 0,0 c 0.7183,0.286399 1.4404,0.5629 2.1666,0.828 m 0,0 c 0.7333,0.267798 1.4709,0.523999 2.212,0.7703 m 0,0 c 1.66,0.5519 3.3373,1.054298 5.0315,1.4878 m 0,0 c 1.7318,0.4431 3.4813,0.814298 5.2307,1.185398" />
    <path
       inkscape:connector-curvature="0"
       id="path5986"
       qs:layer="0"
       style="fill:none;stroke:#000000;stroke-width:1.41111112;stroke-linecap:round;stroke-linejoin:round;stroke-miterlimit:4;stroke-dasharray:none;display:inline"
       d="m 63.406621,54.584107 c 0.3093,-0.525701 0.6185,-1.051402 0.9599,-1.555801 m 0,0 c 0.3083,-0.455399 0.6429,-0.893301 0.9982,-1.314599 m 0,0 c 0.6692,-0.793601 1.4121,-1.527901 2.2298,-2.1667 m 0,0 c 0.7531,-0.588399 1.5698,-1.095699 2.4327,-1.5103 m 0,0 c 0.863,-0.414701 1.7722,-0.7366 2.7041,-0.942501 m 0,0 c 1.0116,-0.223399 2.0498,-0.309999 3.0865,-0.371698 m 0,0 c 0.6138,-0.037 1.2269,-0.064 1.8397,-0.055 m 0,0 c 0.6883,0.01 1.3761,0.066 2.0639,0.123001" />
    <path
       inkscape:connector-curvature="0"
       id="path5992"
       qs:layer="0"
       style="fill:none;stroke:#000000;stroke-width:1.41111112;stroke-linecap:round;stroke-linejoin:round;stroke-miterlimit:4;stroke-dasharray:none;display:inline"
       d="m 67.211221,56.665606 c 1.4286,0.7382 2.8572,1.476499 4.3157,2.1514 m 0,0 c 1.491,0.689999 3.0131,1.313899 4.5517,1.893299 m 0,0 c 1.4258,0.537001 2.8658,1.0358 4.3221,1.480001 m 0,0 c 1.793,0.546899 3.6108,1.010901 5.4303,1.464999 m 0,0 c 1.5676,0.391301 3.1363,0.775301 4.7051,1.159301" />
    <path
       inkscape:connector-curvature="0"
       id="path5998"
       qs:layer="0"
       style="fill:none;stroke:#000000;stroke-width:1.41111112;stroke-linecap:round;stroke-linejoin:round;stroke-miterlimit:4;stroke-dasharray:none;display:inline"
       d="m 80.400721,62.190306 c 0.4869,-1.764199 0.9737,-3.528401 1.4295,-5.300599 m 0,0 c 0.3992,-1.552002 0.7746,-3.110202 1.1499,-4.668401" />
    <path
       inkscape:connector-curvature="0"
       id="path6004"
       qs:layer="0"
       style="fill:none;stroke:#000000;stroke-width:1.41111112;stroke-linecap:round;stroke-linejoin:round;stroke-miterlimit:4;stroke-dasharray:none;display:inline"
       d="m 71.878621,80.592906 c 0.7545,0.176798 1.509,0.353599 2.274,0.464698 m 0,0 c 0.7309,0.106099 1.4714,0.152302 2.2121,0.155801 m 0,0 c 1.4965,0.01 2.9939,-0.16 4.4528,-0.4951 m 0,0 c 1.4232,-0.3269 2.8097,-0.8137 4.1249,-1.444402 m 0,0 c 1.3154,-0.630899 2.5594,-1.405698 3.7169,-2.299998 m 0,0 c 1.1864,-0.916601 2.2819,-1.958599 3.184,-3.151299 m 0,0 c 0.4062,-0.537001 0.7731,-1.104502 1.0888,-1.697801 m 0,0 c 0.3235,-0.608299 0.5931,-1.243601 0.8627,-1.878999" />
    <path
       inkscape:connector-curvature="0"
       id="path6010"
       qs:layer="0"
       style="fill:none;stroke:#000000;stroke-width:1.41111112;stroke-linecap:round;stroke-linejoin:round;stroke-miterlimit:4;stroke-dasharray:none;display:inline"
       d="m 74.518221,76.261506 c 0.7195,0.1009 1.439,0.2018 2.1622,0.226398 m 0,0 c 0.7598,0.02599 1.5237,-0.032 2.279,-0.149899 m 0,0 c 1.382,-0.214799 2.7352,-0.627699 3.9943,-1.2291 m 0,0 c 1.2592,-0.601501 2.4243,-1.391599 3.4674,-2.333699 m 0,0 c 1.1084,-1.0012 2.0792,-2.174 2.7321,-3.501802 m 0,0 c 0.3482,-0.707799 0.606,-1.459698 0.8235,-2.22 m 0,0 c 0.212,-0.740999 0.3857,-1.489899 0.5594,-2.238798" />
    <path
       inkscape:connector-curvature="0"
       id="path6016"
       qs:layer="0"
       style="fill:none;stroke:#000000;stroke-width:1.41111112;stroke-linecap:round;stroke-linejoin:round;stroke-miterlimit:4;stroke-dasharray:none;display:inline"
       d="m 82.980121,52.221306 c 0.1758,-0.748801 0.3517,-1.4977 0.5598,-2.238999 m 0,0 c 0.2089,-0.7442 0.4505,-1.480899 0.7649,-2.187101 m 0,0 c 0.5407,-1.2146 1.2969,-2.339199 2.2019,-3.3212 m 0,0 c 0.8254,-0.895598 1.7745,-1.6727 2.8163,-2.2966 m 0,0 c 1.0419,-0.624098 2.1766,-1.095098 3.3521,-1.4044 m 0,0 c 0.6549,-0.172398 1.3226,-0.2946 1.9946,-0.3491 m 0,0 c 0.6545,-0.053 1.3131,-0.042 1.9717,-0.031" />
    <path
       inkscape:connector-curvature="0"
       id="path6022"
       qs:layer="0"
       style="fill:none;stroke:#000000;stroke-width:1.41111112;stroke-linecap:round;stroke-linejoin:round;stroke-miterlimit:4;stroke-dasharray:none;display:inline"
       d="m 94.174121,50.262506 c 0.4086,-1.6457 0.8172,-3.2914 1.2337,-4.934899 m 0,0 c 0.4165,-1.643301 0.8409,-3.2844 1.2336,-4.934399 m 0,0 c 0.1946,-0.8174 0.3814,-1.6369 0.6111,-2.444301 m 0,0 c 0.1983,-0.696998 0.4286,-1.384901 0.659,-2.072899" />
    <path
       inkscape:connector-curvature="0"
       id="path6028"
       qs:layer="0"
       style="fill:none;stroke:#000000;stroke-width:1.41111112;stroke-linecap:round;stroke-linejoin:round;stroke-miterlimit:4;stroke-dasharray:none;display:inline"
       d="m 93.794821,70.245806 c 0.2394,-0.722102 0.4788,-1.444201 0.6847,-2.1758 m 0,0 c 0.2179,-0.774 0.3983,-1.558601 0.5854,-2.341302 m 0,0 c 0.3942,-1.649699 0.8178,-3.291098 1.2339,-4.934599 m 0,0 c 0.4161,-1.6436 0.8247,-3.289198 1.2334,-4.9348" />
    <path
       inkscape:connector-curvature="0"
       id="path6034"
       qs:layer="0"
       style="fill:none;stroke:#000000;stroke-width:1.41111112;stroke-linecap:round;stroke-linejoin:round;stroke-miterlimit:4;stroke-dasharray:none;display:inline"
       d="m 90.536121,64.814606 c 0.3902,-1.5609 0.7805,-3.121801 1.1707,-4.682699 m 0,0 c 0.4493,-1.797301 0.8986,-3.594602 1.348,-5.391901" />
    <path
       inkscape:connector-curvature="0"
       id="path6040"
       qs:layer="0"
       style="fill:none;stroke:#000000;stroke-width:1.41111112;stroke-linecap:round;stroke-linejoin:round;stroke-miterlimit:4;stroke-dasharray:none;display:inline"
       d="m 82.980121,52.221306 c 1.5609,0.3902 3.1218,0.780499 4.6827,1.1707 m 0,0 c 1.7973,0.449301 3.5947,0.898601 5.392,1.348 m 0,0 c 0.7463,0.186501 1.4926,0.373101 2.2389,0.559701 m 0,0 c 0.7462,0.186498 1.4923,0.3731 2.2385,0.559598 m 0,0 c 1.645001,0.4113 3.289899,0.8225 4.934899,1.233701 m 0,0 c 1.6448,0.411201 3.2896,0.822401 4.9344,1.233599" />
    <path
       inkscape:connector-curvature="0"
       id="path6046"
       qs:layer="0"
       style="fill:none;stroke:#000000;stroke-width:1.41111112;stroke-linecap:round;stroke-linejoin:round;stroke-miterlimit:4;stroke-dasharray:none;display:inline"
       d="m 79.721421,46.790106 c 0.272,-0.634199 0.544,-1.268499 0.8628,-1.878999 m 0,0 c 0.2973,-0.569401 0.6352,-1.118199 1.0015,-1.6478 m 0,0 c 0.7194,-1.040299 1.548,-2.0066 2.473,-2.8693 m 0,0 c 0.8831,-0.8236 1.8541,-1.552899 2.8897,-2.174299 m 0,0 c 1.0358,-0.621501 2.1363,-1.135101 3.2787,-1.526701 m 0,0 c 1.1964,-0.410199 2.4388,-0.6865 3.6952,-0.8317 m 0,0 c 0.6397,-0.074 1.2829,-0.113801 1.9252,-0.108199 m 0,0 c 0.6888,0.01 1.3764,0.064 2.064,0.1229" />
    <path
       inkscape:connector-curvature="0"
       id="path6052"
       qs:layer="0"
       style="fill:none;stroke:#000000;stroke-width:1.41111112;stroke-linecap:round;stroke-linejoin:round;stroke-miterlimit:4;stroke-dasharray:none;display:inline"
       d="m 84.304821,47.795206 c 1.6449,0.411102 3.2898,0.822099 4.9347,1.233402 m 0,0 c 1.6449,0.411197 3.2897,0.822598 4.9346,1.233898 m 0,0 c 1.4925,0.373199 2.985,0.7463 4.477397,1.1194 m 0,0 c 1.797402,0.449301 3.594702,0.898602 5.392002,1.348001 m 0,0 c 1.5609,0.3902 3.1218,0.780398 4.6827,1.170598" />
    <path
       inkscape:connector-curvature="0"
       id="path6058"
       qs:layer="0"
       style="fill:none;stroke:#000000;stroke-width:1.41111112;stroke-linecap:round;stroke-linejoin:round;stroke-miterlimit:4;stroke-dasharray:none;display:inline"
       d="m 98.651518,51.381906 c 0.449404,-1.797298 0.898708,-3.594599 1.348008,-5.3919 m 0,0 c 0.390194,-1.560898 0.780494,-3.121799 1.170694,-4.682699" />
    <path
       inkscape:connector-curvature="0"
       id="path6064"
       qs:layer="0"
       style="fill:none;stroke:#000000;stroke-width:1.41111112;stroke-linecap:round;stroke-linejoin:round;stroke-miterlimit:4;stroke-dasharray:none;display:inline"
       d="m 93.794821,70.245806 c 0.6876,0.059 1.3752,0.1169 2.064,0.122998 m 0,0 c 0.6423,0.01 1.2855,-0.034 1.9252,-0.1083 m 0,0 c 1.256501,-0.1452 2.498999,-0.4216 3.695599,-0.831799 m 0,0 c 1.1422,-0.3916 2.2426,-0.905199 3.2783,-1.526599 m 0,0 c 1.0358,-0.6214 2.0069,-1.350701 2.89,-2.174401 m 0,0 c 0.9249,-0.8627 1.7533,-1.828899 2.4727,-2.869198 m 0,0 c 0.3663,-0.529601 0.7042,-1.078402 1.0015,-1.647802 m 0,0 c 0.3188,-0.610498 0.5908,-1.244699 0.8628,-1.878898" />
    <path
       inkscape:connector-curvature="0"
       id="path6070"
       qs:layer="0"
       style="fill:none;stroke:#000000;stroke-width:1.41111112;stroke-linecap:round;stroke-linejoin:round;stroke-miterlimit:4;stroke-dasharray:none;display:inline"
       d="m 95.064921,65.728704 c 0.6586,0.01101 1.3172,0.02201 1.9717,-0.031 m 0,0 c 0.6721,-0.055 1.339897,-0.176798 1.994901,-0.349199 m 0,0 c 1.175398,-0.309499 2.309898,-0.7803 3.351798,-1.4042 m 0,0 c 1.0419,-0.624002 1.9912,-1.401101 2.8166,-2.2968 m 0,0 c 0.9049,-0.9821 1.6609,-2.1066 2.2016,-3.321101 m 0,0 c 0.3145,-0.706199 0.5563,-1.443 0.7652,-2.187299 m 0,0 c 0.2082,-0.7412 0.3838,-1.49 0.5595,-2.238801" />
    <path
       inkscape:connector-curvature="0"
       id="path6076"
       qs:layer="0"
       style="fill:none;stroke:#000000;stroke-width:1.41111112;stroke-linecap:round;stroke-linejoin:round;stroke-miterlimit:4;stroke-dasharray:none;display:inline"
       d="m 101.17022,41.307307 c 0.1758,-0.7489 0.3516,-1.4977 0.5597,-2.238999 m 0,0 c 0.209,-0.744302 0.4505,-1.480902 0.7649,-2.1872 m 0,0 c 0.5407,-1.214501 1.297,-2.3391 2.202,-3.321199 m 0,0 c 0.8254,-0.895501 1.7745,-1.672601 2.8163,-2.296601 m 0,0 c 1.0419,-0.624 2.1765,-1.095 3.352,-1.4044 m 0,0 c 0.655,-0.1723 1.3227,-0.2945 1.9947,-0.349 m 0,0 c 0.6545,-0.053 1.3131,-0.042 1.9717,-0.031" />
    <path
       inkscape:connector-curvature="0"
       id="path6082"
       qs:layer="0"
       style="fill:none;stroke:#000000;stroke-width:1.41111112;stroke-linecap:round;stroke-linejoin:round;stroke-miterlimit:4;stroke-dasharray:none;display:inline"
       d="m 112.36422,39.348506 c 0.4086,-1.645699 0.8172,-3.291498 1.2337,-4.934999 m 0,0 c 0.4165,-1.643299 0.8409,-3.284299 1.2336,-4.934399 m 0,0 c 0.1946,-0.8173 0.3814,-1.6368 0.6111,-2.4442 m 0,0 c 0.1983,-0.697 0.4286,-1.385 0.6589,-2.0729" />
    <path
       inkscape:connector-curvature="0"
       id="path6088"
       qs:layer="0"
       style="fill:none;stroke:#000000;stroke-width:1.41111112;stroke-linecap:round;stroke-linejoin:round;stroke-miterlimit:4;stroke-dasharray:none;display:inline"
       d="m 111.98492,59.331807 c 0.2394,-0.722201 0.4788,-1.4443 0.6847,-2.1758 m 0,0 c 0.2178,-0.774102 0.3983,-1.558601 0.5853,-2.341401 m 0,0 c 0.3942,-1.649699 0.8178,-3.2911 1.2339,-4.934599 m 0,0 c 0.4162,-1.643501 0.8248,-3.2891 1.2334,-4.934701" />
    <path
       inkscape:connector-curvature="0"
       id="path6094"
       qs:layer="0"
       style="fill:none;stroke:#000000;stroke-width:1.41111112;stroke-linecap:round;stroke-linejoin:round;stroke-miterlimit:4;stroke-dasharray:none;display:inline"
       d="m 108.72622,53.900505 c 0.3902,-1.560897 0.7804,-3.121798 1.1706,-4.682698 m 0,0 c 0.4494,-1.797302 0.8987,-3.5946 1.348,-5.391901" />
    <path
       inkscape:connector-curvature="0"
       id="path6100"
       qs:layer="0"
       style="fill:none;stroke:#000000;stroke-width:1.41111112;stroke-linecap:round;stroke-linejoin:round;stroke-miterlimit:4;stroke-dasharray:none;display:inline"
       d="m 101.17022,41.307307 c 1.5609,0.3902 3.1218,0.7804 4.6827,1.170601 m 0,0 c 1.7973,0.449399 3.5946,0.8987 5.3919,1.347998 m 0,0 c 0.7463,0.186602 1.4927,0.373202 2.239,0.559802 m 0,0 c 0.7461,0.186498 1.4923,0.372999 2.2384,0.559598 m 0,0 c 1.645,0.411201 3.29,0.8225 4.935,1.233701 m 0,0 c 1.6448,0.411201 3.2896,0.822401 4.9344,1.233599" />
    <path
       inkscape:connector-curvature="0"
       id="path6106"
       qs:layer="0"
       style="fill:none;stroke:#000000;stroke-width:1.41111112;stroke-linecap:round;stroke-linejoin:round;stroke-miterlimit:4;stroke-dasharray:none;display:inline"
       d="m 97.911521,35.876008 c 0.272,-0.634202 0.543997,-1.2684 0.862697,-1.878901 m 0,0 c 0.297304,-0.5694 0.635304,-1.118199 1.001508,-1.647799 m 0,0 c 0.719494,-1.0404 1.548094,-2.0066 2.473094,-2.8694 m 0,0 c 0.8831,-0.8236 1.854,-1.5528 2.8897,-2.1742 m 0,0 c 1.0357,-0.6215 2.1362,-1.1352 3.2786,-1.5268 m 0,0 c 1.1965,-0.4101 2.4389,-0.6864 3.6953,-0.8316 m 0,0 c 0.6396,-0.074 1.2829,-0.1139 1.9252,-0.1083 m 0,0 c 0.6887,0.01 1.3763,0.064 2.0639,0.123" />
    <path
       inkscape:connector-curvature="0"
       id="path6112"
       qs:layer="0"
       style="fill:none;stroke:#000000;stroke-width:1.41111112;stroke-linecap:round;stroke-linejoin:round;stroke-miterlimit:4;stroke-dasharray:none;display:inline"
       d="m 102.49482,36.881108 c 1.645,0.411099 3.2899,0.822198 4.9348,1.2335 m 0,0 c 1.6449,0.411198 3.2897,0.822599 4.9346,1.233898 m 0,0 c 1.4924,0.3732 2.9849,0.746202 4.4774,1.119302 m 0,0 c 1.7973,0.4494 3.5946,0.8987 5.3919,1.347998 m 0,0 c 1.5609,0.390302 3.1218,0.7805 4.6827,1.1707" />
    <path
       inkscape:connector-curvature="0"
       id="path6118"
       qs:layer="0"
       style="fill:none;stroke:#000000;stroke-width:1.41111112;stroke-linecap:round;stroke-linejoin:round;stroke-miterlimit:4;stroke-dasharray:none;display:inline"
       d="m 116.84162,40.467808 c 0.4493,-1.797301 0.8987,-3.594599 1.348,-5.3919 m 0,0 c 0.3902,-1.560901 0.7804,-3.1218 1.1707,-4.6827" />
    <path
       inkscape:connector-curvature="0"
       id="path6124"
       qs:layer="0"
       style="fill:none;stroke:#000000;stroke-width:1.41111112;stroke-linecap:round;stroke-linejoin:round;stroke-miterlimit:4;stroke-dasharray:none;display:inline"
       d="m 111.98492,59.331807 c 0.6876,0.058 1.3752,0.1169 2.0639,0.1229 m 0,0 c 0.6423,0.01 1.2856,-0.034 1.9252,-0.108202 m 0,0 c 1.2566,-0.145299 2.4991,-0.421699 3.6956,-0.8319 m 0,0 c 1.1423,-0.391598 2.2427,-0.905098 3.2783,-1.526498 m 0,0 c 1.0358,-0.6214 2.0069,-1.350702 2.8901,-2.1745 m 0,0 c 0.9249,-0.862601 1.7533,-1.8288 2.4727,-2.869102 m 0,0 c 0.3662,-0.529598 0.7042,-1.078399 1.0015,-1.6478 m 0,0 c 0.3188,-0.610497 0.5908,-1.244797 0.8628,-1.878998" />
    <path
       inkscape:connector-curvature="0"
       id="path6130"
       qs:layer="0"
       style="fill:none;stroke:#000000;stroke-width:1.41111112;stroke-linecap:round;stroke-linejoin:round;stroke-miterlimit:4;stroke-dasharray:none;display:inline"
       d="m 113.25492,54.814606 c 0.6586,0.01101 1.3173,0.02198 1.9717,-0.031 m 0,0 c 0.6722,-0.054 1.3399,-0.176801 1.995,-0.349301 m 0,0 c 1.1754,-0.3094 2.3099,-0.7802 3.3517,-1.404199 m 0,0 c 1.042,-0.623999 1.9913,-1.401101 2.8166,-2.296801 m 0,0 c 0.9049,-0.982001 1.6609,-2.106498 2.2017,-3.320999 m 0,0 c 0.3145,-0.706301 0.5562,-1.443 0.7652,-2.187301 m 0,0 c 0.2081,-0.741198 0.3838,-1.489999 0.5594,-2.238799" />
    <path
       inkscape:connector-curvature="0"
       id="path6136"
       qs:layer="0"
       style="fill:none;stroke:#000000;stroke-width:1.41111112;stroke-linecap:round;stroke-linejoin:round;stroke-miterlimit:4;stroke-dasharray:none;display:inline"
       d="m 119.36032,30.393208 c 0.177,-0.7481 0.354,-1.4962 0.5597,-2.239 m 0,0 c 0.2065,-0.7456 0.442,-1.4858 0.7649,-2.1871 m 0,0 c 0.602,-1.3077 1.5078,-2.4799 2.5603,-3.480399 m 0,0 c 1.018,-0.9677 2.1734,-1.7746 3.4229,-2.3978 m 0,0 c 1.2496,-0.6232 2.5935,-1.0627 3.9711,-1.3036 m 0,0 c 0.7526,-0.1316 1.5153,-0.2039 2.2754,-0.1921 m 0,0 c 0.7236,0.011 1.4448,0.099 2.166,0.186" />
    <path
       inkscape:connector-curvature="0"
       id="path6142"
       qs:layer="0"
       style="fill:none;stroke:#000000;stroke-width:1.41111112;stroke-linecap:round;stroke-linejoin:round;stroke-miterlimit:4;stroke-dasharray:none;display:inline"
       d="m 130.88882,28.520308 c 0.614,-1.6389 1.2279,-3.2777 1.9155,-4.8847 m 0,0 c 0.7028,-1.642699 1.4826,-3.252099 2.2763,-4.856399 m 0,0 c 0.3998,-0.8079 0.803,-1.6145 1.2617,-2.3883 m 0,0 c 0.4036,-0.6808 0.8502,-1.3362 1.2967,-1.9916" />
    <path
       inkscape:connector-curvature="0"
       id="path6148"
       qs:layer="0"
       style="fill:none;stroke:#000000;stroke-width:1.41111112;stroke-linecap:round;stroke-linejoin:round;stroke-miterlimit:4;stroke-dasharray:none;display:inline"
       d="m 130.17502,48.417707 c 0.2381,-0.722399 0.4761,-1.4448 0.6846,-2.175801 m 0,0 c 0.2206,-0.7733 0.4081,-1.556298 0.5854,-2.341299 m 0,0 c 0.3603,-1.5958 0.6787,-3.200499 1.0648,-4.788699 m 0,0 c 0.388,-1.596102 0.8444,-3.175601 1.3007,-4.7551" />
    <path
       inkscape:connector-curvature="0"
       id="path6154"
       qs:layer="0"
       style="fill:none;stroke:#000000;stroke-width:1.41111112;stroke-linecap:round;stroke-linejoin:round;stroke-miterlimit:4;stroke-dasharray:none;display:inline"
       d="m 126.91622,42.986506 c 0.3878,-1.561499 0.7756,-3.122998 1.1707,-4.682699 m 0,0 c 0.4518,-1.783701 0.9133,-3.564898 1.3747,-5.346199" />
    <path
       inkscape:connector-curvature="0"
       id="path6160"
       qs:layer="0"
       style="fill:none;stroke:#000000;stroke-width:1.41111112;stroke-linecap:round;stroke-linejoin:round;stroke-miterlimit:4;stroke-dasharray:none;display:inline"
       d="m 119.36032,30.393208 c 1.56,0.3931 3.1201,0.7862 4.6827,1.1707 m 0,0 c 1.8112,0.4457 3.6259,0.8799 5.4186,1.3937 m 0,0 c 0.7357,0.210899 1.4678,0.4352 2.1963,0.6702 m 0,0 c 0.721,0.232599 1.4385,0.475799 2.1526,0.729 m 0,0 c 1.5493,0.5491 3.0829,1.145399 4.5866,1.807899 m 0,0 c 1.4707,0.648002 2.9128,1.359301 4.3548,2.070701" />
    <path
       inkscape:connector-curvature="0"
       id="path6166"
       qs:layer="0"
       style="fill:none;stroke:#000000;stroke-width:1.41111112;stroke-linecap:round;stroke-linejoin:round;stroke-miterlimit:4;stroke-dasharray:none;display:inline"
       d="m 116.10152,24.962008 c 0.273,-0.6334 0.5459,-1.2669 0.8628,-1.878999 m 0,0 c 0.2955,-0.570801 0.6292,-1.1231 1.0015,-1.6477 m 0,0 c 0.8286,-1.1679 1.8486,-2.1989 2.9633,-3.1049 m 0,0 c 1.135,-0.9225 2.3683,-1.7152 3.6729,-2.3686 m 0,0 c 1.3048,-0.6534 2.6811,-1.1674 4.0977,-1.5213 m 0,0 c 1.4519,-0.3627 2.9461,-0.5572 4.4424,-0.5779 m 0,0 c 0.7407,-0.01 1.4819,0.022 2.2146,0.1145 m 0,0 c 0.7669,0.097 1.5246,0.2595 2.2823,0.4222" />
    <path
       inkscape:connector-curvature="0"
       id="path6172"
       qs:layer="0"
       style="fill:none;stroke:#000000;stroke-width:1.41111112;stroke-linecap:round;stroke-linejoin:round;stroke-miterlimit:4;stroke-dasharray:none;display:inline"
       d="m 120.68492,25.967108 c 1.7188,0.3712 3.4376,0.7423 5.1459,1.1594 m 0,0 c 1.6991,0.4148 3.3878,0.8749 5.058,1.3938 m 0,0 c 1.4839,0.461 2.9531,0.9684 4.4077,1.5164 m 0,0 c 1.7131,0.6454 3.4059,1.3472 5.0613,2.1267 m 0,0 c 1.4056,0.6618 2.7844,1.379598 4.1631,2.097399" />
    <path
       inkscape:connector-curvature="0"
       id="path6178"
       qs:layer="0"
       style="fill:none;stroke:#000000;stroke-width:1.41111112;stroke-linecap:round;stroke-linejoin:round;stroke-miterlimit:4;stroke-dasharray:none;display:inline"
       d="m 135.29652,30.036708 c 0.696,-1.7423 1.3919,-3.4847 2.1782,-5.1855 m 0,0 c 0.6985,-1.510899 1.4682,-2.988999 2.238,-4.467099" />
    <path
       inkscape:connector-curvature="0"
       id="path6184"
       qs:layer="0"
       style="fill:none;stroke:#000000;stroke-width:1.41111112;stroke-linecap:round;stroke-linejoin:round;stroke-miterlimit:4;stroke-dasharray:none;display:inline"
       d="m 130.17502,48.417707 c 0.6878,0.06 1.3756,0.120599 2.0639,0.123 m 0,0 c 0.6418,0 1.2841,-0.046 1.9252,-0.1083 m 0,0 c 1.0937,-0.1062 2.1843,-0.2535 3.2474,-0.524501 m 0,0 c 0.9255,-0.2358 1.8302,-0.565398 2.6858,-0.992598 m 0,0 c 0.8558,-0.427302 1.6625,-0.952201 2.4044,-1.555502 m 0,0 c 0.8054,-0.654899 1.5344,-1.402199 2.1887,-2.207799 m 0,0 c 0.3474,-0.427699 0.6737,-0.8719 0.9735,-1.333001 m 0,0 c 0.332,-0.510698 0.6313,-1.042099 0.9307,-1.5734" />
    <path
       inkscape:connector-curvature="0"
       id="path6190"
       qs:layer="0"
       style="fill:none;stroke:#000000;stroke-width:1.41111112;stroke-linecap:round;stroke-linejoin:round;stroke-miterlimit:4;stroke-dasharray:none;display:inline"
       d="m 131.44502,43.900607 c 0.6292,0.021 1.2584,0.042 1.8872,0.023 m 0,0 c 0.5903,-0.01801 1.1802,-0.071 1.7632,-0.172 m 0,0 c 1.0168,-0.176601 2.0124,-0.500101 2.9359,-0.963403 m 0,0 c 0.9236,-0.463397 1.775,-1.066698 2.5309,-1.773199 m 0,0 c 0.8655,-0.8091 1.6057,-1.753399 2.1897,-2.779598 m 0,0 c 0.356,-0.6258 0.654,-1.282 0.9369,-1.943701 m 0,0 c 0.2877,-0.6731 0.5599,-1.352 0.8321,-2.0309" />
    <path
       inkscape:connector-curvature="0"
       id="path6196"
       qs:layer="0"
       style="fill:none;stroke:#000000;stroke-width:1.41111112;stroke-linecap:round;stroke-linejoin:round;stroke-miterlimit:4;stroke-dasharray:none;display:inline"
       d="m 139.71272,20.384109 c 0.3801,-0.7141 0.7602,-1.4283 1.1839,-2.1181 m 0,0 c 0.4338,-0.7063 0.9133,-1.3872 1.4622,-2.0086 m 0,0 c 0.9813,-1.1111 2.1843,-2.0321 3.4935,-2.7433 m 0,0 c 1.2317,-0.6692 2.5574,-1.1525 3.9259,-1.4327 m 0,0 c 1.3686,-0.2803 2.78,-0.3572 4.173,-0.2341 m 0,0 c 0.7611,0.067 1.5166,0.1942 2.2479,0.4018 m 0,0 c 0.6962,0.1977 1.3704,0.4684 2.0445,0.7391" />
    <path
       inkscape:connector-curvature="0"
       id="path6202"
       qs:layer="0"
       style="fill:none;stroke:#000000;stroke-width:1.41111112;stroke-linecap:round;stroke-linejoin:round;stroke-miterlimit:4;stroke-dasharray:none;display:inline"
       d="m 151.67892,21.316609 c 1.0162,-1.4247 2.0325,-2.8495 3.1117,-4.2245 m 0,0 c 1.1031,-1.4055 2.272,-2.759 3.453,-4.1039 m 0,0 c 0.5948,-0.6774 1.1927,-1.3525 1.8356,-1.9816 m 0,0 c 0.5657,-0.553499 1.1663,-1.071398 1.7669,-1.589299" />
    <path
       inkscape:connector-curvature="0"
       id="path6208"
       qs:layer="0"
       style="fill:none;stroke:#000000;stroke-width:1.41111112;stroke-linecap:round;stroke-linejoin:round;stroke-miterlimit:4;stroke-dasharray:none;display:inline"
       d="m 146.59462,40.245606 c 0.2988,-0.627899 0.5975,-1.255798 0.8804,-1.8907 m 0,0 c 0.3054,-0.685498 0.5923,-1.3792 0.8948,-2.066098 m 0,0 c 0.6479,-1.4713 1.3671,-2.9117 2.1404,-4.3212 m 0,0 c 0.7905,-1.4409 1.6374,-2.8495 2.4844,-4.258" />
    <path
       inkscape:connector-curvature="0"
       id="path6214"
       qs:layer="0"
       style="fill:none;stroke:#000000;stroke-width:1.41111112;stroke-linecap:round;stroke-linejoin:round;stroke-miterlimit:4;stroke-dasharray:none;display:inline"
       d="m 144.52092,34.260807 c 0.6358,-1.418999 1.2715,-2.837999 1.973,-4.223599 m 0,0 c 0.826,-1.6317 1.7432,-3.2169 2.6604,-4.8022" />
    <path
       inkscape:connector-curvature="0"
       id="path6222"
       qs:layer="0"
       style="fill:none;stroke:#000000;stroke-width:1.41111112;stroke-linecap:round;stroke-linejoin:round;stroke-miterlimit:4;stroke-dasharray:none;display:inline"
       d="m 139.71272,20.384109 c 1.5169,0.6887 3.0339,1.377299 4.522,2.124799 m 0,0 c 1.6753,0.841401 3.3141,1.7573 4.9196,2.7261 m 0,0 c 0.6555,0.3955 1.3055,0.7999 1.9488,1.2145 m 0,0 c 0.6367,0.4104 1.2669,0.8309 1.8915,1.2601 m 0,0 c 1.3547,0.9309 2.6825,1.9027 3.9642,2.9309 m 0,0 c 1.2536,1.0056 2.463,2.0652 3.6725,3.124799" />
    <path
       inkscape:connector-curvature="0"
       id="path6230"
       qs:layer="0"
       style="fill:none;stroke:#000000;stroke-width:1.41111112;stroke-linecap:round;stroke-linejoin:round;stroke-miterlimit:4;stroke-dasharray:none;display:inline"
       d="m 137.63902,14.399309 c 0.4946,-0.5966 0.9892,-1.1932 1.5318,-1.7437 m 0,0 c 0.5184,-0.526 1.0807,-1.01 1.669,-1.4602 m 0,0 c 1.1884,-0.909599 2.483,-1.681398 3.848,-2.294698 m 0,0 c 1.3315,-0.5982 2.73,-1.0456 4.16,-1.34 m 0,0 c 1.4301,-0.2943 2.8918,-0.4356 4.3515,-0.4117 m 0,0 c 1.4961,0.025 2.99,0.2224 4.441,0.5887 m 0,0 c 0.7182,0.1814 1.4259,0.404 2.1099,0.6825 m 0,0 c 0.716,0.2915 1.4059,0.644299 2.0959,0.997099" />
    <path
       inkscape:connector-curvature="0"
       id="path6238"
       qs:layer="0"
       style="fill:none;stroke:#000000;stroke-width:1.41111112;stroke-linecap:round;stroke-linejoin:round;stroke-miterlimit:4;stroke-dasharray:none;display:inline"
       d="m 142.35882,16.257409 c 1.6092,0.7805 3.2184,1.561 4.7934,2.4067 m 0,0 c 1.5407,0.8272 3.0486,1.7169 4.5267,2.6525 m 0,0 c 1.3131,0.8313 2.6025,1.698899 3.8666,2.602999 m 0,0 c 1.4889,1.065 2.9427,2.1807 4.3406,3.3614 m 0,0 c 1.187,1.0026 2.3337,2.0519 3.4805,3.1012" />
    <path
       inkscape:connector-curvature="0"
       id="path6246"
       qs:layer="0"
       style="fill:none;stroke:#000000;stroke-width:1.41111112;stroke-linecap:round;stroke-linejoin:round;stroke-miterlimit:4;stroke-dasharray:none;display:inline"
       d="m 155.54552,23.919608 c 1.1223,-1.5035 2.2445,-3.007099 3.4433,-4.447199 m 0,0 c 1.0649,-1.2793 2.1902,-2.5086 3.3155,-3.7378" />
    <path
       inkscape:connector-curvature="0"
       id="path6254"
       qs:layer="0"
       style="fill:none;stroke:#000000;stroke-width:1.41111112;stroke-linecap:round;stroke-linejoin:round;stroke-miterlimit:4;stroke-dasharray:none;display:inline"
       d="m 146.59462,40.245606 c 0.564,0.232201 1.128,0.4644 1.7047,0.6602 m 0,0 c 0.5208,0.176801 1.052,0.323802 1.5895,0.445002 m 0,0 c 1.0126,0.228098 2.0478,0.364298 3.0858,0.380199 m 0,0 c 0.956,0.01501 1.9144,-0.073 2.851,-0.265501 m 0,0 c 0.9368,-0.1928 1.8519,-0.4909 2.7245,-0.881998 m 0,0 c 0.9473,-0.424502 1.8444,-0.958401 2.6845,-1.567801 m 0,0 c 0.4461,-0.323599 0.876,-0.668401 1.2847,-1.0365 m 0,0 c 0.4525,-0.4076 0.879,-0.843599 1.3054,-1.2797" />
    <path
       inkscape:connector-curvature="0"
       id="path6262"
       qs:layer="0"
       style="fill:none;stroke:#000000;stroke-width:1.41111112;stroke-linecap:round;stroke-linejoin:round;stroke-miterlimit:4;stroke-dasharray:none;display:inline"
       d="m 148.36982,36.288808 c 0.5596,0.197 1.1191,0.393999 1.6926,0.5397 m 0,0 c 0.5718,0.1454 1.1574,0.239798 1.7477,0.2891 m 0,0 c 1.0297,0.086 2.0738,0.035 3.0852,-0.172701 m 0,0 c 1.0114,-0.207698 1.9901,-0.571799 2.9029,-1.059699 m 0,0 c 1.0452,-0.5586 2.004,-1.279401 2.8331,-2.119901 m 0,0 c 0.5055,-0.5126 0.9628,-1.069599 1.407,-1.635899 m 0,0 c 0.4518,-0.576 0.89,-1.1616 1.3283,-1.7472" />
    <path
       inkscape:connector-curvature="0"
       id="path6270"
       qs:layer="0"
       style="fill:none;stroke:#000000;stroke-width:1.41111112;stroke-linecap:round;stroke-linejoin:round;stroke-miterlimit:4;stroke-dasharray:none;display:inline"
       d="m 162.30432,15.734609 c 0.5516,-0.5918 1.1032,-1.1836 1.6906,-1.7406 m 0,0 c 0.6015,-0.5704 1.2405,-1.1043 1.9312,-1.563 m 0,0 c 1.2349,-0.82 2.635,-1.3992 4.0834,-1.7483 m 0,0 c 1.3627,-0.328399 2.7683,-0.453099 4.1627,-0.370499 m 0,0 c 1.3945,0.083 2.778,0.372799 4.092,0.851399 m 0,0 c 0.7178,0.2614 1.415,0.5792 2.0678,0.9686 m 0,0 c 0.6216,0.3706 1.203,0.8062 1.7845,1.2418" />
    <path
       inkscape:connector-curvature="0"
       id="path6278"
       qs:layer="0"
       style="fill:none;stroke:#000000;stroke-width:1.41111112;stroke-linecap:round;stroke-linejoin:round;stroke-miterlimit:4;stroke-dasharray:none;display:inline"
       d="m 173.62392,19.725109 c 1.3497,-1.1141 2.6994,-2.2281 4.097,-3.2779 m 0,0 c 1.4286,-1.073 2.9074,-2.0788 4.3956,-3.0732 m 0,0 c 0.7495,-0.5007 1.5014,-0.9986 2.2849,-1.4404 m 0,0 c 0.6895,-0.3887 1.4034,-0.734 2.1174,-1.0792" />
    <path
       inkscape:connector-curvature="0"
       id="path6286"
       qs:layer="0"
       style="fill:none;stroke:#000000;stroke-width:1.41111112;stroke-linecap:round;stroke-linejoin:round;stroke-miterlimit:4;stroke-dasharray:none;display:inline"
       d="m 163.82472,36.699507 c 0.4507,-0.529399 0.9015,-1.058898 1.3387,-1.599199 m 0,0 c 0.472,-0.583401 0.9283,-1.179499 1.3979,-1.765099 m 0,0 c 1.0058,-1.254101 2.0726,-2.460001 3.1836,-3.622001 m 0,0 c 1.1357,-1.1879 2.3176,-2.3301 3.4995,-3.4722" />
    <path
       inkscape:connector-curvature="0"
       id="path6294"
       qs:layer="0"
       style="fill:none;stroke:#000000;stroke-width:1.41111112;stroke-linecap:round;stroke-linejoin:round;stroke-miterlimit:4;stroke-dasharray:none;display:inline"
       d="m 163.36662,30.382208 c 0.9805,-1.2067 1.9611,-2.4135 2.9965,-3.5709 m 0,0 c 1.2194,-1.3631 2.5148,-2.657799 3.8102,-3.9525" />
    <path
       inkscape:connector-curvature="0"
       id="path6302"
       qs:layer="0"
       style="fill:none;stroke:#000000;stroke-width:1.41111112;stroke-linecap:round;stroke-linejoin:round;stroke-miterlimit:4;stroke-dasharray:none;display:inline"
       d="m 162.30432,15.734609 c 1.2876,1.057 2.5753,2.114 3.8201,3.2203 m 0,0 c 1.4011,1.2454 2.7479,2.553399 4.0489,3.903899 m 0,0 c 0.5311,0.551401 1.0546,1.1098 1.5691,1.6765 m 0,0 c 0.5092,0.5609 1.0094,1.1298 1.502,1.7057 m 0,0 c 1.0684,1.2492 2.1003,2.5308 3.0731,3.855 m 0,0 c 0.9514,1.2953 1.8463,2.6312 2.7411,3.9671" />
    <path
       inkscape:connector-curvature="0"
       id="path6310"
       qs:layer="0"
       style="fill:none;stroke:#000000;stroke-width:1.41111112;stroke-linecap:round;stroke-linejoin:round;stroke-miterlimit:4;stroke-dasharray:none;display:inline"
       d="m 161.84612,9.41731 c 0.6319,-0.4487 1.2637,-0.897299 1.9301,-1.2891 m 0,0 c 0.6367,-0.374299 1.3048,-0.696699 1.9894,-0.979799 m 0,0 c 1.383,-0.5718 2.833,-0.9832 4.31,-1.2233 m 0,0 c 1.4408,-0.2342 2.9074,-0.3053 4.3649,-0.2204 m 0,0 c 1.4577,0.085 2.9063,0.3258 4.3103,0.7257 m 0,0 c 1.439,0.41 2.8313,0.9869 4.1384,1.715399 m 0,0 c 0.6471,0.3607 1.2733,0.7584 1.8622,1.2041 m 0,0 c 0.6164,0.466501 1.1919,0.9855 1.7674,1.504499" />
    <path
       inkscape:connector-curvature="0"
       id="path6318"
       qs:layer="0"
       style="fill:none;stroke:#000000;stroke-width:1.41111112;stroke-linecap:round;stroke-linejoin:round;stroke-miterlimit:4;stroke-dasharray:none;display:inline"
       d="m 165.92612,12.431009 c 1.3531,1.1695 2.7062,2.339 4.0095,3.5628 m 0,0 c 1.2748,1.1969 2.502,2.4458 3.6883,3.7313 m 0,0 c 1.054,1.142099 2.0757,2.3132 3.0635,3.513099 m 0,0 c 1.1634,1.4133 2.2799,2.8666 3.3255,4.3681 m 0,0 c 0.8879,1.2751 1.7248,2.5849 2.5617,3.8947" />
    <path
       inkscape:connector-curvature="0"
       id="path6326"
       qs:layer="0"
       style="fill:none;stroke:#000000;stroke-width:1.41111112;stroke-linecap:round;stroke-linejoin:round;stroke-miterlimit:4;stroke-dasharray:none;display:inline"
       d="m 176.68742,23.238208 c 1.4724,-1.162799 2.9448,-2.325599 4.4748,-3.407399 m 0,0 c 1.3591,-0.961 2.7636,-1.858 4.1681,-2.7551" />
    <path
       inkscape:connector-curvature="0"
       id="path6334"
       qs:layer="0"
       style="fill:none;stroke:#000000;stroke-width:1.41111112;stroke-linecap:round;stroke-linejoin:round;stroke-miterlimit:4;stroke-dasharray:none;display:inline"
       d="m 163.82472,36.699507 c 0.4849,0.370001 0.9698,0.739902 1.4764,1.078001 m 0,0 c 0.4575,0.305198 0.9327,0.5844 1.4208,0.8403 m 0,0 c 0.9193,0.481798 1.8842,0.8807 2.883,1.164 m 0,0 c 0.9197,0.260999 1.8682,0.423999 2.8228,0.479699 m 0,0 c 0.9548,0.056 1.9159,0 2.8598,-0.1487 m 0,0 c 1.0248,-0.165501 2.0294,-0.4496 2.9984,-0.821499 m 0,0 c 0.5144,-0.1974 1.0188,-0.419602 1.5087,-0.6696 m 0,0 c 0.5424,-0.277001 1.067,-0.5881 1.5915,-0.899301" />
    <path
       inkscape:connector-curvature="0"
       id="path6342"
       qs:layer="0"
       style="fill:none;stroke:#000000;stroke-width:1.41111112;stroke-linecap:round;stroke-linejoin:round;stroke-miterlimit:4;stroke-dasharray:none;display:inline"
       d="m 166.56132,33.335209 c 0.4898,0.334797 0.9795,0.669597 1.4958,0.9585 m 0,0 c 0.5149,0.288098 1.0563,0.530499 1.6139,0.730498 m 0,0 c 0.9726,0.348999 1.9945,0.569101 3.0251,0.6297 m 0,0 c 1.0308,0.061 2.0703,-0.038 3.0781,-0.274199 m 0,0 c 1.154,-0.269801 2.2664,-0.718599 3.2844,-1.3166 m 0,0 c 0.6207,-0.3646 1.2063,-0.784699 1.7817,-1.2171 m 0,0 c 0.5852,-0.4398 1.1597,-0.8924 1.7343,-1.345" />
    <path
       inkscape:connector-curvature="0"
       id="path6350"
       qs:layer="0"
       style="fill:none;stroke:#000000;stroke-width:1.41111112;stroke-linecap:round;stroke-linejoin:round;stroke-miterlimit:4;stroke-dasharray:none;display:inline"
       d="m 185.33032,17.075709 c 0.6857,-0.4292 1.3714,-0.8585 2.0827,-1.245 m 0,0 c 0.7284,-0.3957 1.4836,-0.7466 2.2693,-1.0114 m 0,0 c 1.4048,-0.4733 2.9069,-0.6714 4.3963,-0.6346 m 0,0 c 1.4013,0.034 2.7914,0.2769 4.1172,0.7168 m 0,0 c 1.326,0.4399 2.5876,1.0774 3.7335,1.879 m 0,0 c 0.626,0.438 1.2174,0.925 1.7476,1.4697 m 0,0 c 0.5048,0.5186 0.9541,1.0895 1.4033,1.6605" />
    <path
       inkscape:connector-curvature="0"
       id="path6358"
       qs:layer="0"
       style="fill:none;stroke:#000000;stroke-width:1.41111112;stroke-linecap:round;stroke-linejoin:round;stroke-miterlimit:4;stroke-dasharray:none;display:inline"
       d="m 195.23582,23.853708 c 1.5916,-0.727799 3.1831,-1.455699 4.8044,-2.108899 m 0,0 c 1.6572,-0.6678 3.3455,-1.2577 5.04,-1.8341 m 0,0 c 0.8534,-0.2903 1.7083,-0.5772 2.5794,-0.8017 m 0,0 c 0.7664,-0.1975 1.5453,-0.3467 2.3242,-0.4959" />
    <path
       inkscape:connector-curvature="0"
       id="path6366"
       qs:layer="0"
       style="fill:none;stroke:#000000;stroke-width:1.41111112;stroke-linecap:round;stroke-linejoin:round;stroke-miterlimit:4;stroke-dasharray:none;display:inline"
       d="m 181.38612,37.722407 c 0.5722,-0.3951 1.1444,-0.7902 1.7063,-1.199399 m 0,0 c 0.6066,-0.441701 1.2014,-0.899801 1.8062,-1.344199 m 0,0 c 1.2955,-0.952001 2.6375,-1.8415 4.0108,-2.677301 m 0,0 c 1.4039,-0.8544 2.8407,-1.6526 4.2774,-2.4509" />
    <path
       inkscape:connector-curvature="0"
       id="path6374"
       qs:layer="0"
       style="fill:none;stroke:#000000;stroke-width:1.41111112;stroke-linecap:round;stroke-linejoin:round;stroke-miterlimit:4;stroke-dasharray:none;display:inline"
       d="m 182.57462,31.501008 c 1.2589,-0.9126 2.5178,-1.8253 3.817,-2.6761 m 0,0 c 1.5299,-1.0021 3.1157,-1.9184 4.7015,-2.8347" />
    <path
       inkscape:connector-curvature="0"
       id="path6382"
       qs:layer="0"
       style="fill:none;stroke:#000000;stroke-width:1.41111112;stroke-linecap:round;stroke-linejoin:round;stroke-miterlimit:4;stroke-dasharray:none;display:inline"
       d="m 185.33032,17.075709 c 0.9711,1.3537 1.9422,2.7073 2.8591,4.0975 m 0,0 c 1.0321,1.565 1.9955,3.176299 2.9037,4.816999 m 0,0 c 0.3707,0.6698 0.7323,1.3444 1.083,2.0247 m 0,0 c 0.3471,0.6734 0.6835,1.3522 1.0107,2.0357 m 0,0 c 0.7096,1.4827 1.3756,2.9873 1.9735,4.517799 m 0,0 c 0.5848,1.497 1.1043,3.018601 1.6239,4.540301" />
    <path
       inkscape:connector-curvature="0"
       id="path6390"
       qs:layer="0"
       style="fill:none;stroke:#000000;stroke-width:1.41111112;stroke-linecap:round;stroke-linejoin:round;stroke-miterlimit:4;stroke-dasharray:none;display:inline"
       d="m 186.51882,10.854409 c 0.7263,-0.2703 1.4525,-0.540598 2.1974,-0.746999 m 0,0 c 0.7118,-0.197299 1.4405,-0.3362 2.175,-0.4329 m 0,0 c 1.4838,-0.1954 2.9908,-0.2185 4.4797,-0.069 m 0,0 c 1.4525,0.1458 2.8877,0.4557 4.2739,0.9141 m 0,0 c 1.3863,0.458299 2.7235,1.065099 3.9767,1.813999 m 0,0 c 1.2844,0.7676 2.4804,1.6844 3.5552,2.7258 m 0,0 c 0.532,0.5154 1.0343,1.0614 1.4881,1.6441 m 0,0 c 0.4751,0.6098 0.897,1.2598 1.319,1.9097" />
    <path
       inkscape:connector-curvature="0"
       id="path6398"
       qs:layer="0"
       style="fill:none;stroke:#000000;stroke-width:1.41111112;stroke-linecap:round;stroke-linejoin:round;stroke-miterlimit:4;stroke-dasharray:none;display:inline"
       d="m 189.68232,14.819309 c 1.0053,1.4793 2.0105,2.9585 2.9537,4.4772 m 0,0 c 0.9225,1.4856 1.7856,3.008899 2.5998,4.557199 m 0,0 c 0.7233,1.3755 1.408,2.7706 2.0525,4.1849 m 0,0 c 0.7591,1.6658 1.4625,3.358 2.085,5.0787 m 0,0 c 0.5286,1.460999 0.9989,2.9425 1.4692,4.424" />
    <path
       inkscape:connector-curvature="0"
       id="path6406"
       qs:layer="0"
       style="fill:none;stroke:#000000;stroke-width:1.41111112;stroke-linecap:round;stroke-linejoin:round;stroke-miterlimit:4;stroke-dasharray:none;display:inline"
       d="m 197.28832,28.038608 c 1.7228,-0.7432 3.4455,-1.4864 5.2029,-2.1365 m 0,0 c 1.5611,-0.5775 3.1496,-1.0814 4.7381,-1.5854" />
    <path
       inkscape:connector-curvature="0"
       id="path6414"
       qs:layer="0"
       style="fill:none;stroke:#000000;stroke-width:1.41111112;stroke-linecap:round;stroke-linejoin:round;stroke-miterlimit:4;stroke-dasharray:none;display:inline"
       d="m 181.38612,37.722407 c 0.373,0.4826 0.7459,0.9652 1.1481,1.4226 m 0,0 c 0.3631,0.413002 0.7501,0.805499 1.1556,1.1786 m 0,0 c 0.7637,0.7029 1.593,1.3374 2.4847,1.869 m 0,0 c 0.8212,0.489599 1.6953,0.892 2.6033,1.192199 m 0,0 c 0.908,0.300302 1.8499,0.498402 2.8012,0.594801 m 0,0 c 1.0327,0.104698 2.0767,0.09 3.1088,-0.02001 m 0,0 c 0.548,-0.058 1.0926,-0.1423 1.6304,-0.257398 m 0,0 c 0.5956,-0.1275 1.1827,-0.2926 1.7698,-0.457801" />
    <path
       inkscape:connector-curvature="0"
       id="path6422"
       qs:layer="0"
       style="fill:none;stroke:#000000;stroke-width:1.41111112;stroke-linecap:round;stroke-linejoin:round;stroke-miterlimit:4;stroke-dasharray:none;display:inline"
       d="m 184.89862,35.178809 c 0.3867,0.4498 0.7734,0.899699 1.1976,1.312099 m 0,0 c 0.4231,0.411299 0.8835,0.7853 1.3706,1.122499 m 0,0 c 0.8495,0.588199 1.7799,1.064799 2.7599,1.3894 m 0,0 c 0.9802,0.324601 2.01,0.497301 3.0445,0.5299 m 0,0 c 1.1846,0.037 2.3752,-0.109101 3.513,-0.423999 m 0,0 c 0.6938,-0.192002 1.3681,-0.4466 2.0355,-0.7158 m 0,0 c 0.6789,-0.273801 1.3509,-0.562701 2.0228,-0.8516" />
    <path
       inkscape:connector-curvature="0"
       id="path6430"
       qs:layer="0"
       style="fill:none;stroke:#000000;stroke-width:1.41111112;stroke-linecap:round;stroke-linejoin:round;stroke-miterlimit:4;stroke-dasharray:none;display:inline"
       d="m 207.22932,24.316708 c 0.7733,-0.2377 1.5466,-0.4754 2.3336,-0.6651 m 0,0 c 0.80579,-0.1943 1.62599,-0.338199 2.4535,-0.391099 m 0,0 c 1.47929,-0.095 2.98159,0.101799 4.411,0.521899 m 0,0 c 1.3449,0.3952 2.6253,0.9883 3.79259,1.7556 m 0,0 c 1.16741,0.7673 2.22171,1.7089 3.1217,2.7792 m 0,0 c 0.49171,0.5848 0.93741,1.2079 1.30891,1.8711 m 0,0 c 0.3538,0.6314 0.64039,1.2989 0.92699,1.9665" />
    <path
       inkscape:connector-curvature="0"
       id="path6438"
       qs:layer="0"
       style="fill:none;stroke:#000000;stroke-width:1.41111112;stroke-linecap:round;stroke-linejoin:round;stroke-miterlimit:4;stroke-dasharray:none;display:inline"
       d="m 215.04892,33.422308 c 1.7255,-0.292201 3.451,-0.5844 5.186,-0.7969 m 0,0 c 1.77349,-0.2173 3.55679,-0.3512 5.34269,-0.4706 m 0,0 c 0.8994,-0.06 1.79941,-0.1165 2.6989,-0.1085 m 0,0 c 0.79141,0.01 1.5824,0.064 2.37341,0.121" />
    <path
       inkscape:connector-curvature="0"
       id="path6446"
       qs:layer="0"
       style="fill:none;stroke:#000000;stroke-width:1.41111112;stroke-linecap:round;stroke-linejoin:round;stroke-miterlimit:4;stroke-dasharray:none;display:inline"
       d="m 198.08802,43.244906 c 0.6548,-0.233999 1.3096,-0.467998 1.9581,-0.718199 m 0,0 c 0.7001,-0.270101 1.3929,-0.559099 2.0921,-0.832299 m 0,0 c 1.4973,-0.585202 3.0234,-1.098 4.566,-1.550901 m 0,0 c 1.5769,-0.462901 3.171,-0.8632 4.7651,-1.263399" />
    <path
       inkscape:connector-curvature="0"
       id="path6454"
       qs:layer="0"
       style="fill:none;stroke:#000000;stroke-width:1.41111112;stroke-linecap:round;stroke-linejoin:round;stroke-miterlimit:4;stroke-dasharray:none;display:inline"
       d="m 200.84252,37.541308 c 1.4519,-0.556602 2.9037,-1.113302 4.3785,-1.599901 m 0,0 c 1.7368,-0.572999 3.5054,-1.0488 5.274,-1.5247" />
    <path
       inkscape:connector-curvature="0"
       id="path6462"
       qs:layer="0"
       style="fill:none;stroke:#000000;stroke-width:1.41111112;stroke-linecap:round;stroke-linejoin:round;stroke-miterlimit:4;stroke-dasharray:none;display:inline"
       d="m 207.22932,24.316708 c 0.5887,1.5584 1.1774,3.1169 1.7042,4.6967 m 0,0 c 0.5931,1.7784 1.1077,3.5839 1.5615,5.403299 m 0,0 c 0.1853,0.742899 0.3604,1.488 0.5235,2.235801 m 0,0 c 0.1615,0.7401 0.3112,1.482799 0.4508,2.2276 m 0,0 c 0.3028,1.615598 0.5577,3.241198 0.7402,4.874198 m 0,0 c 0.1784,1.597101 0.28749,3.201402 0.39649,4.805601" />
    <path
       inkscape:connector-curvature="0"
       id="path6470"
       qs:layer="0"
       style="fill:none;stroke:#000000;stroke-width:1.41111112;stroke-linecap:round;stroke-linejoin:round;stroke-miterlimit:4;stroke-dasharray:none;display:inline"
       d="m 209.98382,18.613109 c 0.7714,-0.074 1.5429,-0.1472 2.3158,-0.1543 m 0,0 c 0.7386,-0.01 1.47849,0.047 2.21299,0.1433 m 0,0 c 1.48391,0.1944 2.94581,0.5612 4.34571,1.09 m 0,0 c 1.3655,0.5158 2.67209,1.1858 3.8929,1.9865 m 0,0 c 1.221,0.8008 2.3562,1.732299 3.3735,2.779299 m 0,0 c 1.04269,1.0732 1.9614,2.2678 2.73089,3.5513 m 0,0 c 0.3808,0.6354 0.7251,1.2925 1.0132,1.9726 m 0,0 c 0.3014,0.7118 0.5413,1.4487 0.78111,2.1855" />
    <path
       inkscape:connector-curvature="0"
       id="path6478"
       qs:layer="0"
       style="fill:none;stroke:#000000;stroke-width:1.41111112;stroke-linecap:round;stroke-linejoin:round;stroke-miterlimit:4;stroke-dasharray:none;display:inline"
       d="m 212.01642,23.260509 c 0.5892,1.688599 1.17839,3.377199 1.69749,5.087899 m 0,0 c 0.50771,1.6734 0.94821,3.368 1.33501,5.0739 m 0,0 c 0.34369,1.5157 0.6449,3.040298 0.9024,4.572999 m 0,0 c 0.30329,1.8053 0.5458,3.6218 0.70299,5.444801 m 0,0 c 0.13341,1.548 0.2053,3.100699 0.2771,4.653399" />
    <path
       inkscape:connector-curvature="0"
       id="path6486"
       qs:layer="0"
       style="fill:none;stroke:#000000;stroke-width:1.41111112;stroke-linecap:round;stroke-linejoin:round;stroke-miterlimit:4;stroke-dasharray:none;display:inline"
       d="m 215.95132,37.995307 c 1.8562,-0.273199 3.7124,-0.546399 5.57799,-0.720699 m 0,0 c 1.65741,-0.154802 3.3221,-0.2316 4.9869,-0.3083" />
    <path
       inkscape:connector-curvature="0"
       id="path6494"
       qs:layer="0"
       style="fill:none;stroke:#000000;stroke-width:1.41111112;stroke-linecap:round;stroke-linejoin:round;stroke-miterlimit:4;stroke-dasharray:none;display:inline"
       d="m 198.08802,43.244906 c 0.2357,0.5625 0.4713,1.125102 0.7418,1.670801 m 0,0 c 0.2442,0.492799 0.5167,0.971801 0.8121,1.436999 m 0,0 c 0.5564,0.8763 1.1937,1.703302 1.9179,2.4472 m 0,0 c 0.6669,0.685001 1.4076,1.299402 2.2072,1.823901 m 0,0 c 0.7997,0.5246 1.6585,0.959101 2.5527,1.2979 m 0,0 c 0.9707,0.367801 1.9831,0.622698 3.0084,0.783799 m 0,0 c 0.5443,0.086 1.0923,0.144701 1.6416,0.172299 m 0,0 c 0.6083,0.031 1.21809,0.023 1.828,0.01499" />
    <path
       inkscape:connector-curvature="0"
       id="path6502"
       qs:layer="0"
       style="fill:none;stroke:#000000;stroke-width:1.41111112;stroke-linecap:round;stroke-linejoin:round;stroke-miterlimit:4;stroke-dasharray:none;display:inline"
       d="m 202.13822,41.694408 c 0.2574,0.534498 0.5148,1.0689 0.8181,1.5769 m 0,0 c 0.3026,0.506498 0.6509,0.9867 1.0343,1.438298 m 0,0 c 0.6688,0.7876 1.4446,1.4882 2.3076,2.054902 m 0,0 c 0.8632,0.566699 1.8135,0.9994 2.8045,1.297898 m 0,0 c 1.1347,0.341901 2.3228,0.507901 3.50329,0.497501 m 0,0 c 0.71991,-0.01 1.43701,-0.078 2.15141,-0.166 m 0,0 c 0.7265,-0.089 1.45029,-0.194801 2.17399,-0.3004" />
    <path
       inkscape:connector-curvature="0"
       id="path6510"
       qs:layer="0"
       style="fill:none;stroke:#000000;stroke-width:1.41111112;stroke-linecap:round;stroke-linejoin:round;stroke-miterlimit:4;stroke-dasharray:none;display:inline"
       d="m 226.51621,36.966308 c 0.8084,-0.03 1.6169,-0.06 2.4262,-0.04 m 0,0 c 0.82861,0.02001 1.6582,0.093 2.4712,0.2556 m 0,0 c 1.4536,0.2905 2.8543,0.868302 4.1268,1.643101 m 0,0 c 1.1973,0.729101 2.2811,1.632701 3.21071,2.6753 m 0,0 c 0.92959,1.0428 1.70509,2.2246 2.29819,3.490999 m 0,0 c 0.3241,0.691901 0.5937,1.409 0.7815,2.1456 m 0,0 c 0.17871,0.7013 0.28331,1.4203 0.3878,2.139202" />
    <path
       inkscape:connector-curvature="0"
       id="path6518"
       qs:layer="0"
       style="fill:none;stroke:#000000;stroke-width:1.41111112;stroke-linecap:round;stroke-linejoin:round;stroke-miterlimit:4;stroke-dasharray:none;display:inline"
       d="m 231.71961,47.782207 c 1.74251,0.163201 3.4849,0.326398 5.21591,0.569098 m 0,0 c 1.76949,0.248003 3.52699,0.579002 5.28309,0.924803 m 0,0 c 0.8844,0.174199 1.7685,0.352098 2.6354,0.592099 m 0,0 c 0.7627,0.2111 1.5122,0.4704 2.2617,0.7297" />
    <path
       inkscape:connector-curvature="0"
       id="path6526"
       qs:layer="0"
       style="fill:none;stroke:#000000;stroke-width:1.41111112;stroke-linecap:round;stroke-linejoin:round;stroke-miterlimit:4;stroke-dasharray:none;display:inline"
       d="m 212.79772,52.892506 c 0.693,-0.057 1.386,-0.114 2.0771,-0.188298 m 0,0 c 0.7461,-0.08 1.4901,-0.180501 2.23599,-0.263901 m 0,0 c 1.5977,-0.178801 3.20451,-0.280201 4.8117,-0.319402 m 0,0 c 1.64301,-0.04 3.28641,-0.01501 4.9297,0.01" />
    <path
       inkscape:connector-curvature="0"
       id="path6534"
       qs:layer="0"
       style="fill:none;stroke:#000000;stroke-width:1.41111112;stroke-linecap:round;stroke-linejoin:round;stroke-miterlimit:4;stroke-dasharray:none;display:inline"
       d="m 216.93141,48.093507 c 1.5464,-0.162899 3.0928,-0.325899 4.6431,-0.4152 m 0,0 c 1.82591,-0.1051 3.6574,-0.108201 5.48891,-0.111201" />
    <path
       inkscape:connector-curvature="0"
       id="path6542"
       qs:layer="0"
       style="fill:none;stroke:#000000;stroke-width:1.41111112;stroke-linecap:round;stroke-linejoin:round;stroke-miterlimit:4;stroke-dasharray:none;display:inline"
       d="m 226.51621,36.966308 c 0.1663,1.657599 0.33271,3.3152 0.4337,4.9775 m 0,0 c 0.1138,1.871198 0.14491,3.748298 0.11351,5.623298 m 0,0 c -0.0128,0.7654 -0.0361,1.530601 -0.0715,2.295101 m 0,0 c -0.0351,0.7567 -0.0822,1.512901 -0.1397,2.2685 m 0,0 c -0.12459,1.639 -0.29799,3.275299 -0.54339,4.899999 m 0,0 c -0.24,1.5891 -0.54881,3.1671 -0.8577,4.745101" />
    <path
       inkscape:connector-curvature="0"
       id="path6550"
       qs:layer="0"
       style="fill:none;stroke:#000000;stroke-width:1.41111112;stroke-linecap:round;stroke-linejoin:round;stroke-miterlimit:4;stroke-dasharray:none;display:inline"
       d="m 230.64992,32.167308 c 0.7643,0.1281 1.5286,0.2562 2.2772,0.4489 m 0,0 c 0.71519,0.1841 1.41609,0.4273 2.10089,0.7098 m 0,0 c 1.3835,0.570899 2.701,1.3028 3.9169,2.175098 m 0,0 c 1.1861,0.8509 2.2753,1.8355 3.248,2.924302 m 0,0 c 0.9728,1.0888 1.8291,2.281798 2.5415,3.556099 m 0,0 c 0.7303,1.306 1.3094,2.6973 1.7214,4.135899 m 0,0 c 0.2039,0.712199 0.3668,1.435902 0.4695,2.1673 m 0,0 c 0.1075,0.7655 0.1489,1.5393 0.1904,2.313201" />
    <path
       inkscape:connector-curvature="0"
       id="path6558"
       qs:layer="0"
       style="fill:none;stroke:#000000;stroke-width:1.41111112;stroke-linecap:round;stroke-linejoin:round;stroke-miterlimit:4;stroke-dasharray:none;display:inline"
       d="m 231.41361,37.181906 c 0.1333,1.783501 0.26661,3.567001 0.3263,5.353702 m 0,0 c 0.0584,1.7478 0.0465,3.498599 -0.0203,5.246599 m 0,0 c -0.0593,1.552998 -0.1619,3.103699 -0.3089,4.650898 m 0,0 c -0.1731,1.822402 -0.4078,3.639902 -0.7267,5.441702 m 0,0 c -0.2708,1.529898 -0.6022,3.048598 -0.9337,4.567199" />
    <path
       inkscape:connector-curvature="0"
       id="path6566"
       qs:layer="0"
       style="fill:none;stroke:#000000;stroke-width:1.41111112;stroke-linecap:round;stroke-linejoin:round;stroke-miterlimit:4;stroke-dasharray:none;display:inline"
       d="m 231.41072,52.433105 c 1.86379,0.215302 3.7276,0.430702 5.57499,0.744 m 0,0 c 1.6411,0.278302 3.2692,0.634001 4.8974,0.989703" />
    <path
       inkscape:connector-curvature="0"
       id="path6574"
       qs:layer="0"
       style="fill:none;stroke:#000000;stroke-width:1.41111112;stroke-linecap:round;stroke-linejoin:round;stroke-miterlimit:4;stroke-dasharray:none;display:inline"
       d="m 212.79772,52.892506 c 0.0824,0.6043 0.1649,1.2086 0.2852,1.805599 m 0,0 c 0.1087,0.539101 0.2483,1.0723 0.4136,1.598001 m 0,0 c 0.3112,0.9902 0.71339,1.9538 1.221,2.8594 m 0,0 c 0.4674,0.834 1.0243,1.618801 1.6614,2.331999 m 0,0 c 0.6372,0.713201 1.3546,1.3548 2.13099,1.913001 m 0,0 c 0.8428,0.6059 1.75511,1.113598 2.70401,1.533999 m 0,0 c 0.50379,0.223202 1.01799,0.421801 1.54149,0.590299 m 0,0 c 0.5798,0.186603 1.17101,0.336302 1.7623,0.486103" />
    <path
       inkscape:connector-curvature="0"
       id="path6582"
       qs:layer="0"
       style="fill:none;stroke:#000000;stroke-width:1.41111112;stroke-linecap:round;stroke-linejoin:round;stroke-miterlimit:4;stroke-dasharray:none;display:inline"
       d="m 217.11081,52.440307 c 0.11071,0.582801 0.22141,1.165598 0.3833,1.734699 m 0,0 c 0.16151,0.567399 0.37401,1.1213 0.62791,1.656501 m 0,0 c 0.4427,0.933599 1.0113,1.810799 1.69879,2.580998 m 0,0 c 0.68751,0.770402 1.49391,1.433802 2.3742,1.978101 m 0,0 c 1.00801,0.623299 2.11291,1.0904 3.25611,1.385201 m 0,0 c 0.69709,0.179699 1.40849,0.295399 2.12129,0.394998 m 0,0 c 0.72501,0.101399 1.45141,0.1863 2.1779,0.271201" />
    <path
       inkscape:connector-curvature="0"
       id="path6590"
       qs:layer="0"
       style="fill:none;stroke:#000000;stroke-width:1.41111112;stroke-linecap:round;stroke-linejoin:round;stroke-miterlimit:4;stroke-dasharray:none;display:inline"
       d="m 239.67461,64.549405 c -1.6545,-0.4413 -3.3089,-0.882599 -4.982,-1.2365 m 0,0 c -1.6356,-0.345999 -3.28899,-0.6085 -4.9423,-0.870899" />
    <path
       inkscape:connector-curvature="0"
       id="path6598"
       qs:layer="0"
       style="fill:none;stroke:#000000;stroke-width:1.41111112;stroke-linecap:round;stroke-linejoin:round;stroke-miterlimit:4;stroke-dasharray:none;display:inline"
       d="m 241.88311,54.166808 c 0.7886,0.179899 1.57721,0.359799 2.35421,0.587798 m 0,0 c 0.79549,0.2334 1.57889,0.517401 2.32149,0.885001 m 0,0 c 0.7309,0.3618 1.42219,0.8047 2.06741,1.306099 m 0,0 c 0.9608,0.746599 1.81909,1.622899 2.5564,2.593599 m 0,0 c 0.74949,0.986601 1.37399,2.070902 1.82919,3.217901 m 0,0 c 0.134,0.337498 0.25329,0.6805 0.37259,1.0234" />
    <path
       inkscape:connector-curvature="0"
       id="path6606"
       qs:layer="0"
       style="fill:none;stroke:#000000;stroke-width:1.41111112;stroke-linecap:round;stroke-linejoin:round;stroke-miterlimit:4;stroke-dasharray:none;display:inline"
       d="m 246.55881,55.639607 c -0.2466,1.341199 -0.4932,2.682499 -0.7833,4.014498 m 0,0 c -0.4472,2.0528 -0.9978,4.0836 -1.59499,6.0988 m 0,0 c -0.24241,0.817899 -0.49251,1.6332 -0.78321,2.435699 m 0,0 c -0.2483,0.6853 -0.5262,1.3612 -0.85949,2.008801 m 0,0 c -0.35741,0.6946 -0.77851,1.3566 -1.25021,1.982301 m 0,0 c -1.2015,1.593799 -2.7315,2.9515 -4.44309,3.987698 m 0,0 c -1.7233,1.043401 -3.63071,1.760901 -5.56231,2.278301 m 0,0 c -0.35359,0.095 -0.708,0.1827 -1.074,0.239 m 0,0 c -0.49649,0.076 -1.01439,0.095 -1.49169,-0.047 m 0,0 c -0.42391,-0.1256 -0.8159,-0.3771 -1.1315,-0.69 m 0,0 c -0.21141,-0.2096 -0.3886,-0.446898 -0.5602,-0.688701 m 0,0 c -0.91771,-1.293599 -1.6755,-2.719499 -2.14201,-4.237798 m 0,0 c -0.4889,-1.591601 -0.65759,-3.2847 -0.5676,-4.945101 m 0,0 c 0.0375,-0.692299 0.12001,-1.378799 0.2025,-2.065398" />
    <path
       inkscape:connector-curvature="0"
       id="path6614"
       qs:layer="0"
       style="fill:none;stroke:#000000;stroke-width:1.41111112;stroke-linecap:round;stroke-linejoin:round;stroke-miterlimit:4;stroke-dasharray:none;display:inline"
       d="m 247.11571,50.597907 c 0.8003,0.373101 1.60059,0.7463 2.364,1.1871 m 0,0 c 2.03931,1.1774 3.81551,2.8374 5.23709,4.7438 m 0,0 c 1.46281,1.961498 2.5503,4.183798 3.2797,6.4886 m 0,0 c 0.13341,0.421498 0.25491,0.8458 0.33272,1.287399 m 0,0 c 0.10541,0.5987 0.13058,1.229199 -0.0506,1.801799 m 0,0 c -0.16431,0.519001 -0.49809,0.9904 -0.9024,1.361802 m 0,0 c -0.2763,0.253799 -0.58559,0.460998 -0.90139,0.658799 m 0,0 c -1.70042,1.064698 -3.5923,1.857 -5.56232,2.2782 m 0,0 c -1.9838,0.4242 -4.04689,0.472 -6.04949,0.203098 m 0,0 c -0.7812,-0.104899 -1.5532,-0.257999 -2.32519,-0.411099" />
    <path
       inkscape:connector-curvature="0"
       id="path6622"
       qs:layer="0"
       style="fill:none;stroke:#000000;stroke-width:1.41111112;stroke-linecap:round;stroke-linejoin:round;stroke-miterlimit:4;stroke-dasharray:none;display:inline"
       d="m 230.73151,74.560406 c -0.15109,-0.219902 -0.30219,-0.439801 -0.4434,-0.666101 m 0,0 c -0.4782,-0.766601 -0.8419,-1.606401 -1.10239,-2.476701 m 0,0 c -0.26681,-0.891399 -0.42531,-1.814799 -0.45461,-2.739299 m 0,0 c -0.0209,-0.6632 0.0246,-1.326899 0.0702,-1.990598" />
    <path
       inkscape:connector-curvature="0"
       id="path6630"
       qs:layer="0"
       style="fill:none;stroke:#000000;stroke-width:1.41111112;stroke-linecap:round;stroke-linejoin:round;stroke-miterlimit:4;stroke-dasharray:none;display:inline"
       d="m 241.88311,54.166808 c -0.2869,1.767899 -0.5738,3.535798 -0.9433,5.286897 m 0,0 c -0.3613,1.7119 -0.80159,3.4077 -1.2652,5.0957 m 0,0 c -0.2027,0.7382 -0.4099,1.475 -0.6617,2.1989 m 0,0 c -0.2508,0.721199 -0.54579,1.4296 -0.9189,2.0951 m 0,0 c -0.3565,0.636002 -0.7843,1.232902 -1.26289,1.7849 m 0,0 c -0.69681,0.8038 -1.50121,1.512499 -2.37751,2.117299 m 0,0 c -0.8822,0.6089 -1.8372,1.112401 -2.8347,1.4965 m 0,0 c -0.29339,0.113002 -0.5904,0.215601 -0.8874,0.318302" />
    <path
       inkscape:connector-curvature="0"
       id="path6638"
       qs:layer="0"
       style="fill:none;stroke:#000000;stroke-width:1.41111112;stroke-linecap:round;stroke-linejoin:round;stroke-miterlimit:4;stroke-dasharray:none;display:inline"
       d="m 253.3844,63.780606 c -0.26168,0.176601 -0.52338,0.353198 -0.79338,0.5163 m 0,0 c -0.9148,0.552498 -1.9251,0.9495 -2.9665,1.219299 m 0,0 c -1.0491,0.271901 -2.1297,0.414802 -3.20581,0.404901 m 0,0 c -0.7475,-0.01 -1.4929,-0.088 -2.23819,-0.168201" />
    <path
       inkscape:connector-curvature="0"
       id="path6646"
       qs:layer="0"
       style="fill:none;stroke:#000000;stroke-width:1.41111112;stroke-linecap:round;stroke-linejoin:round;stroke-miterlimit:4;stroke-dasharray:none;display:inline"
       d="m 238.09401,68.843405 c -1.54829,-0.434899 -3.0966,-0.8699 -4.66049,-1.2451 m 0,0 c -1.53041,-0.367301 -3.07581,-0.677299 -4.63221,-0.910598 m 0,0 c -0.7747,-0.116101 -1.5522,-0.213202 -2.32579,-0.334501 m 0,0 c -0.6544,-0.1026 -1.3061,-0.2224 -1.95781,-0.342299" />
  </g>
</svg>
