<?xml version="1.0" encoding="UTF-8" standalone="no"?>
<!-- 2019-08-30 11:23:15 Generated by QCAD 3.23.0 SVG Exporter -->

<svg
   xmlns:qs="http://qcad.org/namespaces/svg"
   xmlns:dc="http://purl.org/dc/elements/1.1/"
   xmlns:cc="http://creativecommons.org/ns#"
   xmlns:rdf="http://www.w3.org/1999/02/22-rdf-syntax-ns#"
   xmlns:svg="http://www.w3.org/2000/svg"
   xmlns="http://www.w3.org/2000/svg"
   xmlns:sodipodi="http://sodipodi.sourceforge.net/DTD/sodipodi-0.dtd"
   xmlns:inkscape="http://www.inkscape.org/namespaces/inkscape"
   width="1200"
   height="640"
   viewBox="-53.9875 -30.073 338.66667 180.62222"
   version="1.1"
   style="fill:none;stroke-linecap:round;stroke-linejoin:round"
   id="svg2"
   inkscape:version="0.48.5 r10040"
   sodipodi:docname="Empty.svg">
  <metadata
     id="metadata138">
    <rdf:RDF>
      <cc:Work
         rdf:about="">
        <dc:format>image/svg+xml</dc:format>
        <dc:type
           rdf:resource="http://purl.org/dc/dcmitype/StillImage" />
        <dc:title></dc:title>
      </cc:Work>
    </rdf:RDF>
  </metadata>
  <defs
     id="defs136" />
  <sodipodi:namedview
     pagecolor="#ffffff"
     bordercolor="#666666"
     borderopacity="1"
     objecttolerance="10"
     gridtolerance="10"
     guidetolerance="10"
     inkscape:pageopacity="0"
     inkscape:pageshadow="2"
     inkscape:window-width="1920"
     inkscape:window-height="1018"
     id="namedview134"
     showgrid="false"
     inkscape:zoom="1"
     inkscape:cx="600"
     inkscape:cy="320"
     inkscape:window-x="-8"
     inkscape:window-y="-8"
     inkscape:window-maximized="1"
     inkscape:current-layer="layer2"
     fit-margin-top="10"
     fit-margin-left="10"
     fit-margin-right="10"
     fit-margin-bottom="10"
     borderlayer="false" />
  <g
     inkscape:groupmode="layer"
     id="layer9"
     inkscape:label="REF"
     style="display:none">
    <path
       style="fill:none;stroke:#ff00ff;stroke-width:0.28222221px;stroke-linecap:butt;stroke-linejoin:miter;stroke-opacity:1"
       d="M -53.994232,-29.327488 -33.168223,71.425354 -53.994232,151.07076"
       id="path28085"
       inkscape:connector-curvature="0"
       sodipodi:nodetypes="ccc" />
  </g>
  <g
     inkscape:groupmode="layer"
     id="layer1"
     inkscape:label="BaseLine"
     style="display:inline" />
  <g
     inkscape:groupmode="layer"
     id="layer5"
     inkscape:label="Constructors"
     style="display:inline" />
  <g
     inkscape:groupmode="layer"
     id="layer2"
     inkscape:label="Painters"
     style="display:inline">
    <line
       id="line450"
       qs:layer="layer 1"
       style="fill:none;stroke:#0000ff;stroke-width:0.56444442;stroke-linecap:round;stroke-linejoin:round;stroke-miterlimit:4;stroke-dasharray:none;display:inline"
       y2="105.32417"
       x2="-32.682663"
       y1="36.09322"
       x1="-32.682663" />
    <line
       id="line604"
       qs:layer="layer 1"
       style="fill:none;stroke:#0000ff;stroke-width:0.56444442;stroke-linecap:round;stroke-linejoin:round;stroke-miterlimit:4;stroke-dasharray:none;display:inline"
       y2="105.32417"
       x2="-4.7684469"
       y1="36.09322"
       x1="-4.7684469" />
    <line
       id="line610"
       qs:layer="layer 1"
       style="fill:none;stroke:#0000ff;stroke-width:0.56444442;stroke-linecap:round;stroke-linejoin:round;stroke-miterlimit:4;stroke-dasharray:none;display:inline"
       y2="105.32417"
       x2="16.444656"
       y1="36.09322"
       x1="16.444656" />
    <line
       id="line612"
       qs:layer="layer 1"
       style="fill:none;stroke:#0000ff;stroke-width:0.56444442;stroke-linecap:round;stroke-linejoin:round;stroke-miterlimit:4;stroke-dasharray:none;display:inline"
       y2="105.32417"
       x2="37.65773"
       y1="36.09322"
       x1="37.65773" />
    <line
       id="line614"
       qs:layer="layer 1"
       style="fill:none;stroke:#0000ff;stroke-width:0.56444442;stroke-linecap:round;stroke-linejoin:round;stroke-miterlimit:4;stroke-dasharray:none;display:inline"
       y2="103.29244"
       x2="65.236031"
       y1="35.275833"
       x1="52.327217" />
    <line
       id="line616"
       qs:layer="layer 1"
       style="fill:none;stroke:#0000ff;stroke-width:0.56444442;stroke-linecap:round;stroke-linejoin:round;stroke-miterlimit:4;stroke-dasharray:none;display:inline"
       y2="93.856392"
       x2="93.889343"
       y1="31.478958"
       x1="63.856758" />
    <line
       id="line694"
       qs:layer="layer 1"
       style="fill:none;stroke:#0000ff;stroke-width:0.56444442;stroke-linecap:round;stroke-linejoin:round;stroke-miterlimit:4;stroke-dasharray:none;display:inline"
       y2="72.257278"
       x2="204.72333"
       y1="26.300739"
       x1="256.5004" />
    <line
       id="line700"
       qs:layer="layer 1"
       style="fill:none;stroke:#0000ff;stroke-width:0.56444442;stroke-linecap:round;stroke-linejoin:round;stroke-miterlimit:4;stroke-dasharray:none;display:inline"
       y2="85.812447"
       x2="213.11041"
       y1="59.987747"
       x1="277.34433" />
    <line
       id="line66"
       qs:layer="layer 2"
       style="fill:none;stroke:#ff0000;stroke-width:1.41111112;stroke-linecap:round;stroke-linejoin:round;stroke-miterlimit:4;stroke-dasharray:none;display:inline"
       y2="70.708939"
       x2="43.635757"
       y1="70.708939"
       x1="-32.682663" />
    <path
       inkscape:connector-curvature="0"
       id="path68"
       qs:layer="layer 2"
       style="fill:none;stroke:#ff0000;stroke-width:1.41111112;stroke-linecap:round;stroke-linejoin:round;stroke-miterlimit:4;stroke-dasharray:none;display:inline"
       d="M 43.635738,70.708784 A 81.228295,81.228295 0 0 0 85.427435,59.133185" />
    <line
       id="line70"
       qs:layer="layer 2"
       style="fill:none;stroke:#ff0000;stroke-width:1.41111112;stroke-linecap:round;stroke-linejoin:round;stroke-miterlimit:4;stroke-dasharray:none;display:inline"
       y2="33.547318"
       x2="128.07031"
       y1="59.133255"
       x1="85.427429" />
    <path
       inkscape:connector-curvature="0"
       id="path72"
       qs:layer="layer 2"
       style="fill:none;stroke:#ff0000;stroke-width:1.41111112;stroke-linecap:round;stroke-linejoin:round;stroke-miterlimit:4;stroke-dasharray:none;display:inline"
       d="M 128.07033,33.547387 A 81.228295,81.228295 0 0 1 249.83191,88.958083" />
    <path
       inkscape:connector-curvature="0"
       id="path4636"
       qs:layer="0"
       style="fill:none;stroke:#000000;stroke-width:1.41111112;stroke-linecap:round;stroke-linejoin:round;stroke-miterlimit:4;stroke-dasharray:none;display:inline"
       d="m -12.111462,70.708784 c 1.2238,-1.223801 2.4477004,-2.4477 3.6715004,-3.6715 m 0,0 c 1.2239,-1.223902 2.4477,-2.447699 3.6715,-3.671601" />
    <path
       inkscape:connector-curvature="0"
       id="path4642"
       qs:layer="0"
       style="fill:none;stroke:#000000;stroke-width:1.41111112;stroke-linecap:round;stroke-linejoin:round;stroke-miterlimit:4;stroke-dasharray:none;display:inline"
       d="m -4.7684616,78.051881 c -1.2238,-1.223899 -2.4476,-2.447699 -3.6715,-3.671598 m 0,0 c -1.2238,-1.2238 -2.4477004,-2.447699 -3.6715004,-3.671499" />
    <path
       inkscape:connector-curvature="0"
       id="path4648"
       qs:layer="0"
       style="fill:none;stroke:#000000;stroke-width:1.41111112;stroke-linecap:round;stroke-linejoin:round;stroke-miterlimit:4;stroke-dasharray:none;display:inline"
       d="m -4.7684616,84.385682 c -0.6397,0.4549 -1.2794,0.909701 -1.9526,1.311901 m 0,0 c -1.7202,1.027699 -3.6592004,1.711599 -5.6485004,2.0558 m 0,0 c -1.9893,0.344199 -4.029,0.348598 -6.0108,0 m 0,0 c -1.9818,-0.348601 -3.9058,-1.050301 -5.6484,-2.0558 m 0,0 c -1.30989,-0.7557 -2.5172,-1.683099 -3.58459,-2.7503 m 0,0 c -1.0675,-1.067201 -1.995,-2.274201 -2.7504,-3.584699 m 0,0 c -1.0051,-1.743301 -1.7057,-3.669801 -2.0558,-5.648402 m 0,0 c -0.1757,-0.9931 -0.2631,-1.9992 -0.2631,-3.005398 m 0,0 c 0,-1.006202 0.0874,-2.012301 0.2631,-3.005402 m 0,0 c 0.3501,-1.978598 1.0507,-3.905097 2.0558,-5.648398 m 0,0 c 0.7554,-1.310499 1.6829,-2.517499 2.7504,-3.584699 m 0,0 c 1.06739,-1.067201 2.2747,-1.9946 3.58459,-2.750301 m 0,0 c 1.7426,-1.005499 3.6666,-1.707199 5.6484,-2.0558 m 0,0 c 1.9818,-0.348601 4.0215,-0.344198 6.0108,0 m 0,0 c 1.9893,0.344201 3.9283004,1.028102 5.6485004,2.0558 m 0,0 c 0.6732,0.4022 1.3129,0.857002 1.9526,1.311901" />
    <path
       inkscape:connector-curvature="0"
       id="path4654"
       qs:layer="0"
       style="fill:none;stroke:#000000;stroke-width:1.41111112;stroke-linecap:round;stroke-linejoin:round;stroke-miterlimit:4;stroke-dasharray:none;display:inline"
       d="m -4.7684616,78.051881 c -0.5359,0.551801 -1.0718,1.103501 -1.6315,1.631902 m 0,0 c -0.562,0.530601 -1.148,1.0375 -1.7815,1.481899 m 0,0 c -1.4739,1.034 -3.2047004,1.7295 -4.9896004,2.042701 m 0,0 c -1.4592,0.2561 -2.9546,0.2566 -4.4077,0 m 0,0 c -1.4533,-0.256602 -2.8643,-0.770602 -4.1423,-1.507701 m 0,0 c -0.9607,-0.554 -1.8461,-1.2342 -2.6289,-2.016899 m 0,0 c -0.78279,-0.782701 -1.46289,-1.6678 -2.01689,-2.628801 m 0,0 c -0.7371,-1.278599 -1.2511,-2.691299 -1.5077,-4.142398 m 0,0 c -0.1288,-0.7281 -0.1927,-1.466001 -0.1927,-2.2038 m 0,0 c 0,-0.7378 0.0639,-1.475701 0.1927,-2.2038 m 0,0 c 0.2566,-1.451099 0.7706,-2.8638 1.5077,-4.142402 m 0,0 c 0.554,-0.960997 1.2341,-1.846199 2.01689,-2.628798 m 0,0 c 0.7828,-0.782599 1.6683,-1.4628 2.6289,-2.016901 m 0,0 c 1.2779,-0.7373 2.6886,-1.251599 4.1423,-1.507699 m 0,0 c 1.4535,-0.2561 2.95,-0.254 4.4077,0 m 0,0 c 1.4577,0.254 2.8766,0.7599 4.1423004,1.507699 m 0,0 c 0.2877,0.170002 0.5675,0.352501 0.8473,0.535" />
    <path
       inkscape:connector-curvature="0"
       id="path4660"
       qs:layer="0"
       style="fill:none;stroke:#000000;stroke-width:1.41111112;stroke-linecap:round;stroke-linejoin:round;stroke-miterlimit:4;stroke-dasharray:none;display:inline"
       d="m -8.1814616,81.165682 c -0.9118,-0.911798 -1.8236004,-1.823599 -2.7354004,-2.7354 m 0,0 c -1.2532,-1.2531 -2.5065,-2.506099 -3.7596,-3.7592 m 0,0 c -1.3208,-1.320698 -2.6413,-2.641498 -3.9619,-3.962298" />
    <path
       inkscape:connector-curvature="0"
       id="path4666"
       qs:layer="0"
       style="fill:none;stroke:#000000;stroke-width:1.41111112;stroke-linecap:round;stroke-linejoin:round;stroke-miterlimit:4;stroke-dasharray:none;display:inline"
       d="m -18.638362,70.708784 c 1.3211,-1.320202 2.6423,-2.640401 3.9619,-3.962302 m 0,0 c 1.252,-1.2543 2.5026,-2.510197 3.7596,-3.7592 m 0,0 c 0.9146,-0.908797 1.8327004,-1.813898 2.7354004,-2.735399 m 0,0 c 0.5879,-0.600199 1.1693,-1.207299 1.7815,-1.781598 m 0,0 c 0.5285,-0.4958 1.08,-0.9671 1.6315,-1.4384" />
    <path
       inkscape:connector-curvature="0"
       id="path4752"
       qs:layer="0"
       style="fill:none;stroke:#000000;stroke-width:1.41111112;stroke-linecap:round;stroke-linejoin:round;stroke-miterlimit:4;stroke-dasharray:none;display:inline"
       d="m -4.7684616,63.365683 c 0.5361,-0.5516 1.0721,-1.1033 1.632,-1.631899 m 0,0 c 0.5621,-0.530699 1.1482,-1.038101 1.7811,-1.481901 m 0,0 c 1.08860003,-0.763298 2.31560003,-1.3386 3.5969,-1.715 m 0,0 c 1.1686,-0.343297 2.3822,-0.521298 3.5966,-0.520398 m 0,0 c 1.2145,8.47e-4 2.4298,0.180899 3.5969,0.520398 m 0,0 c 0.6502996,0.189101 1.2856996,0.4279 1.8899996,0.7269 m 0,0 c 0.5885,0.2912 1.1475,0.639601 1.7065,0.9881" />
    <path
       inkscape:connector-curvature="0"
       id="path4758"
       qs:layer="0"
       style="fill:none;stroke:#000000;stroke-width:1.41111112;stroke-linecap:round;stroke-linejoin:round;stroke-miterlimit:4;stroke-dasharray:none;display:inline"
       d="m 5.8381384,67.445284 c 1.1971,-1.2009 2.3942,-2.4019 3.5969,-3.596899 m 0,0 c 1.2025996,-1.194802 2.4107996,-2.3837 3.5964996,-3.596502 m 0,0 c 0.5874,-0.6008 1.1692,-1.2074 1.7816,-1.781598 m 0,0 c 0.5287,-0.4956 1.0801,-0.967001 1.6315,-1.4384" />
    <path
       inkscape:connector-curvature="0"
       id="path4764"
       qs:layer="0"
       style="fill:none;stroke:#000000;stroke-width:1.41111112;stroke-linecap:round;stroke-linejoin:round;stroke-miterlimit:4;stroke-dasharray:none;display:inline"
       d="m -4.7684616,84.385682 c 0.5768,-0.496 1.1536,-0.992099 1.7066,-1.5134 m 0,0 c 0.585,-0.551699 1.1434,-1.131601 1.7065,-1.7066 m 0,0 c 1.18680003,-1.211801 2.3945,-2.4013 3.5969,-3.596499 m 0,0 c 1.2024,-1.1952 2.3995,-2.396101 3.5966,-3.5969" />
    <path
       inkscape:connector-curvature="0"
       id="path4770"
       qs:layer="0"
       style="fill:none;stroke:#000000;stroke-width:1.41111112;stroke-linecap:round;stroke-linejoin:round;stroke-miterlimit:4;stroke-dasharray:none;display:inline"
       d="m -4.7684616,78.051881 c 1.1377,-1.137699 2.2754,-2.275399 3.4131,-3.413099 m 0,0 c 1.31000003,-1.31 2.62,-2.619999 3.93,-3.929998" />
    <path
       inkscape:connector-curvature="0"
       id="path4776"
       qs:layer="0"
       style="fill:none;stroke:#000000;stroke-width:1.41111112;stroke-linecap:round;stroke-linejoin:round;stroke-miterlimit:4;stroke-dasharray:none;display:inline"
       d="m -4.7684616,63.365683 c 1.1377,1.1377 2.2754,2.2754 3.4131,3.4131 m 0,0 c 1.31000003,1.309999 2.62,2.620001 3.93,3.930001 m 0,0 c 0.544,0.544 1.088,1.087899 1.6319,1.631899 m 0,0 c 0.5439,0.543901 1.0877,1.087701 1.6316,1.6316 m 0,0 c 1.199,1.1989 2.3979,2.397901 3.5969,3.5969 m 0,0 c 1.1988996,1.198801 2.3976996,2.3977 3.5964996,3.596499" />
    <path
       inkscape:connector-curvature="0"
       id="path4782"
       qs:layer="0"
       style="fill:none;stroke:#000000;stroke-width:1.41111112;stroke-linecap:round;stroke-linejoin:round;stroke-miterlimit:4;stroke-dasharray:none;display:inline"
       d="m -4.7684616,57.031885 c 0.5596,-0.403902 1.1191,-0.807801 1.7066,-1.167302 m 0,0 c 0.5479,-0.335299 1.12,-0.632 1.7065,-0.897698 m 0,0 c 1.15220003,-0.522001 2.3599,-0.924201 3.5969,-1.188102 m 0,0 c 1.181,-0.251897 2.3888,-0.377698 3.5966,-0.377698 m 0,0 c 1.2079,0 2.4158,0.125699 3.5969,0.377698 m 0,0 c 1.2368996,0.263901 2.4443996,0.666203 3.5964996,1.188102 m 0,0 c 0.5866,0.265698 1.1587,0.562399 1.7066,0.897698 m 0,0 c 0.5874,0.359501 1.147,0.7634 1.7065,1.167302" />
    <path
       inkscape:connector-curvature="0"
       id="path4788"
       qs:layer="0"
       style="fill:none;stroke:#000000;stroke-width:1.41111112;stroke-linecap:round;stroke-linejoin:round;stroke-miterlimit:4;stroke-dasharray:none;display:inline"
       d="m -1.3553616,60.251883 c 1.19900003,1.198801 2.3981,2.397602 3.5969,3.596502 m 0,0 c 1.1989,1.1989 2.3977,2.398 3.5966,3.596899 m 0,0 c 1.0878,1.087899 2.1756,2.1757 3.2634,3.2635 m 0,0 c 1.3100996,1.309999 2.6200996,2.619998 3.9299996,3.929998 m 0,0 c 1.1377,1.1377 2.2754,2.2754 3.4131,3.413099" />
    <path
       inkscape:connector-curvature="0"
       id="path4794"
       qs:layer="0"
       style="fill:none;stroke:#000000;stroke-width:1.41111112;stroke-linecap:round;stroke-linejoin:round;stroke-miterlimit:4;stroke-dasharray:none;display:inline"
       d="m 9.1015384,70.708784 c 1.3099996,-1.31 2.6199996,-2.620002 3.9299996,-3.930001 m 0,0 c 1.1377,-1.1377 2.2754,-2.2754 3.4131,-3.4131" />
    <path
       inkscape:connector-curvature="0"
       id="path4800"
       qs:layer="0"
       style="fill:none;stroke:#000000;stroke-width:1.41111112;stroke-linecap:round;stroke-linejoin:round;stroke-miterlimit:4;stroke-dasharray:none;display:inline"
       d="m -4.7684616,84.385682 c 0.5596,0.403899 1.1191,0.807799 1.7066,1.167299 m 0,0 c 0.5479,0.3353 1.12,0.632 1.7065,0.897701 m 0,0 c 1.15220003,0.522001 2.3599,0.924199 3.5969,1.188099 m 0,0 c 1.181,0.251901 2.3888,0.377701 3.5966,0.377701 m 0,0 c 1.2079,0 2.4158,-0.125699 3.5969,-0.377701 m 0,0 c 1.2368996,-0.2639 2.4443996,-0.666199 3.5964996,-1.188099 m 0,0 c 0.5866,-0.265701 1.1587,-0.562401 1.7066,-0.897701 m 0,0 c 0.5874,-0.3595 1.147,-0.7634 1.7065,-1.167299" />
    <path
       inkscape:connector-curvature="0"
       id="path4806"
       qs:layer="0"
       style="fill:none;stroke:#000000;stroke-width:1.41111112;stroke-linecap:round;stroke-linejoin:round;stroke-miterlimit:4;stroke-dasharray:none;display:inline"
       d="m -1.3553616,81.165682 c 0.55900003,0.348502 1.11810003,0.696899 1.70660003,0.988099 m 0,0 c 0.6044,0.299102 1.23989997,0.537803 1.89029997,0.7269 m 0,0 c 1.1671,0.339401 2.3822,0.519402 3.5966,0.520401 m 0,0 c 1.2145,0 2.4283,-0.176999 3.5969,-0.520401 m 0,0 c 1.2811996,-0.376498 2.5079996,-0.951797 3.5964996,-1.714999 m 0,0 c 0.6331,-0.443801 1.2194,-0.951199 1.7816,-1.481899 m 0,0 c 0.5598,-0.5285 1.0957,-1.080199 1.6315,-1.631902" />
    <path
       inkscape:connector-curvature="0"
       id="path4852"
       qs:layer="0"
       style="fill:none;stroke:#000000;stroke-width:1.41111112;stroke-linecap:round;stroke-linejoin:round;stroke-miterlimit:4;stroke-dasharray:none;display:inline"
       d="m 16.444638,63.365683 c 0.536,-0.5516 1.0721,-1.1033 1.6319,-1.631899 m 0,0 c 0.5621,-0.530699 1.1483,-1.038101 1.7812,-1.481901 m 0,0 c 1.0885,-0.763298 2.3156,-1.3386 3.5969,-1.715 m 0,0 c 1.1685,-0.343297 2.3822,-0.521298 3.5966,-0.520398 m 0,0 c 1.2145,8.47e-4 2.4297,0.180899 3.5969,0.520398 m 0,0 c 0.6503,0.189101 1.2857,0.4279 1.89,0.7269 m 0,0 c 0.5885,0.2912 1.1475,0.639601 1.7065,0.9881" />
    <path
       inkscape:connector-curvature="0"
       id="path4858"
       qs:layer="0"
       style="fill:none;stroke:#000000;stroke-width:1.41111112;stroke-linecap:round;stroke-linejoin:round;stroke-miterlimit:4;stroke-dasharray:none;display:inline"
       d="m 27.051238,67.445284 c 1.1971,-1.2009 2.3942,-2.4019 3.5969,-3.596899 m 0,0 c 1.2026,-1.194802 2.4108,-2.3837 3.5965,-3.596502 m 0,0 c 0.5874,-0.6008 1.1692,-1.2074 1.7816,-1.781598 m 0,0 c 0.5286,-0.4956 1.0801,-0.967001 1.6315,-1.4384" />
    <path
       inkscape:connector-curvature="0"
       id="path4864"
       qs:layer="0"
       style="fill:none;stroke:#000000;stroke-width:1.41111112;stroke-linecap:round;stroke-linejoin:round;stroke-miterlimit:4;stroke-dasharray:none;display:inline"
       d="m 16.444638,84.385682 c 0.5768,-0.496 1.1536,-0.992099 1.7066,-1.5134 m 0,0 c 0.585,-0.551699 1.1434,-1.131601 1.7065,-1.7066 m 0,0 c 1.1868,-1.211801 2.3945,-2.4013 3.5969,-3.596499 m 0,0 c 1.2024,-1.1952 2.3995,-2.396101 3.5966,-3.5969" />
    <path
       inkscape:connector-curvature="0"
       id="path4870"
       qs:layer="0"
       style="fill:none;stroke:#000000;stroke-width:1.41111112;stroke-linecap:round;stroke-linejoin:round;stroke-miterlimit:4;stroke-dasharray:none;display:inline"
       d="m 16.444638,78.051881 c 1.1377,-1.137699 2.2754,-2.275399 3.4131,-3.413099 m 0,0 c 1.31,-1.31 2.62,-2.619999 3.93,-3.929998" />
    <path
       inkscape:connector-curvature="0"
       id="path4876"
       qs:layer="0"
       style="fill:none;stroke:#000000;stroke-width:1.41111112;stroke-linecap:round;stroke-linejoin:round;stroke-miterlimit:4;stroke-dasharray:none;display:inline"
       d="m 16.444638,63.365683 c 1.1377,1.1377 2.2754,2.2754 3.4131,3.4131 m 0,0 c 1.31,1.309999 2.62,2.620001 3.93,3.930001 m 0,0 c 0.544,0.544 1.0879,1.087899 1.6319,1.631899 m 0,0 c 0.5439,0.543901 1.0877,1.087701 1.6316,1.6316 m 0,0 c 1.1989,1.1989 2.3979,2.397901 3.5969,3.5969 m 0,0 c 1.1988,1.198801 2.3977,2.3977 3.5965,3.596499" />
    <path
       inkscape:connector-curvature="0"
       id="path4882"
       qs:layer="0"
       style="fill:none;stroke:#000000;stroke-width:1.41111112;stroke-linecap:round;stroke-linejoin:round;stroke-miterlimit:4;stroke-dasharray:none;display:inline"
       d="m 16.444638,57.031885 c 0.5596,-0.403902 1.1191,-0.807801 1.7066,-1.167302 m 0,0 c 0.5478,-0.335299 1.12,-0.632 1.7065,-0.897698 m 0,0 c 1.1522,-0.522001 2.3599,-0.924201 3.5969,-1.188102 m 0,0 c 1.181,-0.251897 2.3888,-0.377698 3.5966,-0.377698 m 0,0 c 1.2079,0 2.4158,0.125699 3.5969,0.377698 m 0,0 c 1.2369,0.263901 2.4444,0.666203 3.5965,1.188102 m 0,0 c 0.5865,0.265698 1.1587,0.562399 1.7066,0.897698 m 0,0 c 0.5874,0.359501 1.147,0.7634 1.7065,1.167302" />
    <path
       inkscape:connector-curvature="0"
       id="path4888"
       qs:layer="0"
       style="fill:none;stroke:#000000;stroke-width:1.41111112;stroke-linecap:round;stroke-linejoin:round;stroke-miterlimit:4;stroke-dasharray:none;display:inline"
       d="m 19.857738,60.251883 c 1.199,1.198801 2.398,2.397602 3.5969,3.596502 m 0,0 c 1.1989,1.1989 2.3977,2.398 3.5966,3.596899 m 0,0 c 1.0877,1.087899 2.1756,2.1757 3.2634,3.2635 m 0,0 c 1.31,1.309999 2.62,2.619998 3.93,3.929998 m 0,0 c 1.1377,1.1377 2.2754,2.2754 3.4131,3.413099" />
    <path
       inkscape:connector-curvature="0"
       id="path4894"
       qs:layer="0"
       style="fill:none;stroke:#000000;stroke-width:1.41111112;stroke-linecap:round;stroke-linejoin:round;stroke-miterlimit:4;stroke-dasharray:none;display:inline"
       d="m 30.314638,70.708784 c 1.31,-1.31 2.62,-2.620002 3.93,-3.930001 m 0,0 c 1.1377,-1.1377 2.2754,-2.2754 3.4131,-3.4131" />
    <path
       inkscape:connector-curvature="0"
       id="path4900"
       qs:layer="0"
       style="fill:none;stroke:#000000;stroke-width:1.41111112;stroke-linecap:round;stroke-linejoin:round;stroke-miterlimit:4;stroke-dasharray:none;display:inline"
       d="m 16.444638,84.385682 c 0.5596,0.403899 1.1191,0.807799 1.7066,1.167299 m 0,0 c 0.5478,0.3353 1.12,0.632 1.7065,0.897701 m 0,0 c 1.1522,0.522001 2.3599,0.924199 3.5969,1.188099 m 0,0 c 1.181,0.251901 2.3888,0.377701 3.5966,0.377701 m 0,0 c 1.2079,0 2.4158,-0.125699 3.5969,-0.377701 m 0,0 c 1.2369,-0.2639 2.4444,-0.666199 3.5965,-1.188099 m 0,0 c 0.5865,-0.265701 1.1587,-0.562401 1.7066,-0.897701 m 0,0 c 0.5874,-0.3595 1.147,-0.7634 1.7065,-1.167299" />
    <path
       inkscape:connector-curvature="0"
       id="path4906"
       qs:layer="0"
       style="fill:none;stroke:#000000;stroke-width:1.41111112;stroke-linecap:round;stroke-linejoin:round;stroke-miterlimit:4;stroke-dasharray:none;display:inline"
       d="m 19.857738,81.165682 c 0.559,0.348502 1.118,0.696899 1.7065,0.988099 m 0,0 c 0.6045,0.299102 1.24,0.537803 1.8904,0.7269 m 0,0 c 1.1671,0.339401 2.3822,0.519402 3.5966,0.520401 m 0,0 c 1.2145,0 2.4283,-0.176999 3.5969,-0.520401 m 0,0 c 1.2812,-0.376498 2.508,-0.951797 3.5965,-1.714999 m 0,0 c 0.6331,-0.443801 1.2194,-0.951199 1.7816,-1.481899 m 0,0 c 0.5598,-0.5285 1.0956,-1.080199 1.6315,-1.631902" />
    <path
       inkscape:connector-curvature="0"
       id="path4912"
       qs:layer="0"
       style="fill:none;stroke:#000000;stroke-width:1.41111112;stroke-linecap:round;stroke-linejoin:round;stroke-miterlimit:4;stroke-dasharray:none;display:inline"
       d="m 37.657738,63.365683 c 0.5358,-0.551798 1.0716,-1.103599 1.6319,-1.631899 m 0,0 c 0.5625,-0.5304 1.1497,-1.037 1.7812,-1.481901 m 0,0 c 1.0487,-0.738999 2.2195,-1.307598 3.4422,-1.720599 m 0,0 c 0.9818,-0.3316 1.9972,-0.562901 3.0259,-0.626 m 0,0 c 1.0288,-0.063 2.071,0.042 3.0777,0.2778 m 0,0 c 0.5771,0.1353 1.1424,0.313501 1.6869,0.5403 m 0,0 c 0.546,0.2275 1.071,0.5039 1.596,0.7803" />
    <path
       inkscape:connector-curvature="0"
       id="path4918"
       qs:layer="0"
       style="fill:none;stroke:#000000;stroke-width:1.41111112;stroke-linecap:round;stroke-linejoin:round;stroke-miterlimit:4;stroke-dasharray:none;display:inline"
       d="m 48.075938,67.318784 c 1.0428,-1.2705 2.0856,-2.5409 3.0777,-3.8513 m 0,0 c 0.9703,-1.2818 1.8922,-2.6017 2.7459,-3.9638 m 0,0 c 0.416,-0.6639 0.8159,-1.3377 1.2362,-1.998599 m 0,0 c 0.3555,-0.5588 0.7256,-1.1084 1.0957,-1.657901" />
    <path
       inkscape:connector-curvature="0"
       id="path4924"
       qs:layer="0"
       style="fill:none;stroke:#000000;stroke-width:1.41111112;stroke-linecap:round;stroke-linejoin:round;stroke-miterlimit:4;stroke-dasharray:none;display:inline"
       d="m 37.657738,84.385682 c 0.5771,-0.495701 1.1543,-0.991399 1.7065,-1.5134 m 0,0 c 0.5844,-0.552399 1.1408,-1.134299 1.7066,-1.7066 m 0,0 c 1.208,-1.222 2.4583,-2.4003 3.684,-3.6036 m 0,0 c 1.2479,-1.225099 2.4703,-2.475998 3.6928,-3.726999" />
    <path
       inkscape:connector-curvature="0"
       id="path4930"
       qs:layer="0"
       style="fill:none;stroke:#000000;stroke-width:1.41111112;stroke-linecap:round;stroke-linejoin:round;stroke-miterlimit:4;stroke-dasharray:none;display:inline"
       d="m 37.657738,78.051881 c 1.1381,-1.137299 2.2762,-2.274598 3.4131,-3.413099 m 0,0 c 1.311,-1.312799 2.6204,-2.6271 3.9299,-3.941499" />
    <path
       inkscape:connector-curvature="0"
       id="path4936"
       qs:layer="0"
       style="fill:none;stroke:#000000;stroke-width:1.41111112;stroke-linecap:round;stroke-linejoin:round;stroke-miterlimit:4;stroke-dasharray:none;display:inline"
       d="m 37.657738,63.365683 c 1.1398,1.135502 2.2797,2.271 3.4131,3.4131 m 0,0 c 1.3031,1.313101 2.5979,2.634801 3.9299,3.9185 m 0,0 c 0.5567,0.536499 1.12,1.066399 1.6915,1.587001 m 0,0 c 0.5772,0.525799 1.1628,1.042198 1.7554,1.550799 m 0,0 c 1.3273,1.139399 2.6893,2.239801 4.093,3.282801 m 0,0 c 1.4349,1.066199 2.9134,2.072298 4.3919,3.0785" />
    <path
       inkscape:connector-curvature="0"
       id="path4942"
       qs:layer="0"
       style="fill:none;stroke:#000000;stroke-width:1.41111112;stroke-linecap:round;stroke-linejoin:round;stroke-miterlimit:4;stroke-dasharray:none;display:inline"
       d="m 37.657738,57.031885 c 0.5594,-0.404099 1.1188,-0.808199 1.7065,-1.167302 m 0,0 c 0.5482,-0.334899 1.1211,-0.630699 1.7066,-0.897698 m 0,0 c 1.0889,-0.496601 2.2215,-0.893702 3.3818,-1.1933 m 0,0 c 0.9264,-0.239201 1.8704,-0.416202 2.8235,-0.476199 m 0,0 c 0.9531,-0.06 1.9153,0 2.8596,0.151999 m 0,0 c 1.025,0.168399 2.0289,0.452399 2.9973,0.825099 m 0,0 c 0.5142,0.1979 1.0184,0.420799 1.5079,0.6715 m 0,0 c 0.5422,0.277599 1.0663,0.589401 1.5905,0.9012" />
    <path
       inkscape:connector-curvature="0"
       id="path4948"
       qs:layer="0"
       style="fill:none;stroke:#000000;stroke-width:1.41111112;stroke-linecap:round;stroke-linejoin:round;stroke-miterlimit:4;stroke-dasharray:none;display:inline"
       d="m 41.070838,60.251883 c 1.1699,1.1966 2.3398,2.393202 3.5097,3.590502 m 0,0 c 1.1487,1.175599 2.2975,2.351899 3.4954,3.476399 m 0,0 c 1.11,1.041998 2.2623,2.039499 3.4394,3.0069 m 0,0 c 1.4492,1.191 2.9361,2.3363 4.4707,3.4128 m 0,0 c 1.3632,0.9562 2.764,1.858098 4.1648,2.7601" />
    <path
       inkscape:connector-curvature="0"
       id="path4954"
       qs:layer="0"
       style="fill:none;stroke:#000000;stroke-width:1.41111112;stroke-linecap:round;stroke-linejoin:round;stroke-miterlimit:4;stroke-dasharray:none;display:inline"
       d="m 51.515338,70.325684 c 1.138,-1.435001 2.2761,-2.869901 3.3307,-4.364101 m 0,0 c 0.8956,-1.268801 1.731,-2.5802 2.5664,-3.891599" />
    <path
       inkscape:connector-curvature="0"
       id="path4960"
       qs:layer="0"
       style="fill:none;stroke:#000000;stroke-width:1.41111112;stroke-linecap:round;stroke-linejoin:round;stroke-miterlimit:4;stroke-dasharray:none;display:inline"
       d="m 37.657738,84.385682 c 0.5597,0.4036 1.1194,0.807201 1.7065,1.167299 m 0,0 c 0.5476,0.335901 1.1191,0.633902 1.7066,0.897701 m 0,0 c 1.2158,0.5461 2.5002,0.946001 3.8119,1.1802 m 0,0 c 1.4367,0.2565 2.9061,0.3143 4.3647,0.225699 m 0,0 c 1.4588,-0.089 2.9069,-0.3238 4.3112,-0.720598 m 0,0 c 1.4392,-0.406699 2.8323,-0.9832 4.1404,-1.710501 m 0,0 c 0.6475,-0.36 1.2742,-0.7569 1.8637,-1.2019 m 0,0 c 0.6169,-0.465701 1.193,-0.983999 1.7691,-1.5023" />
    <path
       inkscape:connector-curvature="0"
       id="path4966"
       qs:layer="0"
       style="fill:none;stroke:#000000;stroke-width:1.41111112;stroke-linecap:round;stroke-linejoin:round;stroke-miterlimit:4;stroke-dasharray:none;display:inline"
       d="m 41.070838,81.165682 c 0.5576,0.351699 1.1153,0.703402 1.7065,0.988099 m 0,0 c 0.65,0.313001 1.3406,0.545101 2.045,0.719401 m 0,0 c 1.3579,0.335901 2.767,0.456599 4.1623,0.3755 m 0,0 c 1.3954,-0.081 2.7771,-0.364301 4.093,-0.846399 m 0,0 c 1.3983,-0.512399 2.7224,-1.2494 3.8549,-2.205899 m 0,0 c 0.6336,-0.535102 1.2073,-1.138902 1.7393,-1.774602 m 0,0 c 0.5194,-0.620799 0.9992,-1.271999 1.479,-1.923198" />
    <path
       inkscape:connector-curvature="0"
       id="path4972"
       qs:layer="0"
       style="fill:none;stroke:#000000;stroke-width:1.41111112;stroke-linecap:round;stroke-linejoin:round;stroke-miterlimit:4;stroke-dasharray:none;display:inline"
       d="m 57.412438,62.069984 c 0.3682,-0.632099 0.7364,-1.264099 1.1191,-1.888301 m 0,0 c 0.3761,-0.6135 0.7661,-1.219499 1.2093,-1.786698 m 0,0 c 0.727,-0.9303 1.5969,-1.7565 2.5711,-2.4315 m 0,0 c 0.8506,-0.589401 1.7809,-1.063599 2.7616,-1.3861 m 0,0 c 0.9809,-0.3226 2.0123,-0.493401 3.0451,-0.526201 m 0,0 c 0.592,-0.01899 1.1845,0.01 1.7692,0.086 m 0,0 c 0.5863,0.079 1.1648,0.210298 1.7433,0.341697" />
    <path
       inkscape:connector-curvature="0"
       id="path4978"
       qs:layer="0"
       style="fill:none;stroke:#000000;stroke-width:1.41111112;stroke-linecap:round;stroke-linejoin:round;stroke-miterlimit:4;stroke-dasharray:none;display:inline"
       d="m 68.022838,63.533083 c 0.6794,-1.496599 1.3589,-2.993299 1.979,-4.5154 m 0,0 c 0.6065,-1.488799 1.1563,-3.001998 1.6293,-4.538399 m 0,0 c 0.2305,-0.748699 0.4428,-1.503 0.6783,-2.249901 m 0,0 c 0.1991,-0.631698 0.4148,-1.258197 0.6305,-1.8847" />
    <path
       inkscape:connector-curvature="0"
       id="path4984"
       qs:layer="0"
       style="fill:none;stroke:#000000;stroke-width:1.41111112;stroke-linecap:round;stroke-linejoin:round;stroke-miterlimit:4;stroke-dasharray:none;display:inline"
       d="m 61.331838,82.721282 c 0.5609,-0.613198 1.1218,-1.226498 1.6415,-1.872999 m 0,0 c 0.5397,-0.6715 1.035,-1.378799 1.5268,-2.0881 m 0,0 c 1.0198,-1.4709 2.0249,-2.950399 2.959,-4.473699 m 0,0 c 0.9137,-1.490001 1.7595,-3.022002 2.6053,-4.554" />
    <path
       inkscape:connector-curvature="0"
       id="path4990"
       qs:layer="0"
       style="fill:none;stroke:#000000;stroke-width:1.41111112;stroke-linecap:round;stroke-linejoin:round;stroke-miterlimit:4;stroke-dasharray:none;display:inline"
       d="m 60.150838,76.498584 c 0.9766,-1.350501 1.9532,-2.700901 2.864,-4.094102 m 0,0 c 1.0253,-1.568298 1.9674,-3.190898 2.9094,-4.813399" />
    <path
       inkscape:connector-curvature="0"
       id="path4996"
       qs:layer="0"
       style="fill:none;stroke:#000000;stroke-width:1.41111112;stroke-linecap:round;stroke-linejoin:round;stroke-miterlimit:4;stroke-dasharray:none;display:inline"
       d="m 57.412438,62.069984 c 1.2596,0.9107 2.5192,1.821499 3.8137,2.680699 m 0,0 c 1.5246,1.011899 3.0977,1.952202 4.6981,2.8404 m 0,0 c 0.6762,0.375201 1.3573,0.7412 2.0439,1.0964 m 0,0 c 0.6935,0.358701 1.3925,0.706501 2.0963,1.045001 m 0,0 c 1.5765,0.758198 3.1764,1.4695 4.8019,2.114699 m 0,0 c 1.6615,0.6595 3.3496,1.249799 5.037799,1.840101" />
    <path
       inkscape:connector-curvature="0"
       id="path5002"
       qs:layer="0"
       style="fill:none;stroke:#000000;stroke-width:1.41111112;stroke-linecap:round;stroke-linejoin:round;stroke-miterlimit:4;stroke-dasharray:none;display:inline"
       d="m 56.231438,55.847184 c 0.3735,-0.482199 0.747,-0.964299 1.1497,-1.421299 m 0,0 c 0.3637,-0.412502 0.7511,-0.8045 1.1571,-1.1772 m 0,0 c 0.7645,-0.701999 1.5945,-1.335399 2.4869,-1.865999 m 0,0 c 0.8218,-0.488601 1.6964,-0.889901 2.6047,-1.189102 m 0,0 c 0.9084,-0.2992 1.8505,-0.496098 2.8019,-0.591399 m 0,0 c 1.0329,-0.103499 2.0768,-0.087 3.1088,0.023 m 0,0 c 0.5479,0.059 1.0925,0.143598 1.6301,0.259399 m 0,0 c 0.5955,0.128199 1.1824,0.294101 1.7693,0.459901" />
    <path
       inkscape:connector-curvature="0"
       id="path5008"
       qs:layer="0"
       style="fill:none;stroke:#000000;stroke-width:1.41111112;stroke-linecap:round;stroke-linejoin:round;stroke-miterlimit:4;stroke-dasharray:none;display:inline"
       d="m 59.740838,58.394985 c 1.3235,0.913398 2.6469,1.8267 4.0076,2.682099 m 0,0 c 1.391,0.874401 2.821,1.688101 4.2744,2.455999 m 0,0 c 1.3469,0.711601 2.7138,1.383801 4.0992,2.016901 m 0,0 c 1.7056,0.779498 3.4392,1.499899 5.2002,2.142801 m 0,0 c 1.564397,0.571099 3.150297,1.081097 4.736299,1.591098" />
    <path
       inkscape:connector-curvature="0"
       id="path5014"
       qs:layer="0"
       style="fill:none;stroke:#000000;stroke-width:1.41111112;stroke-linecap:round;stroke-linejoin:round;stroke-miterlimit:4;stroke-dasharray:none;display:inline"
       d="m 72.122038,65.549984 c 0.7289,-1.6801 1.4579,-3.360301 2.091,-5.076099 m 0,0 c 0.5376,-1.457001 1.0061,-2.9397 1.4745,-4.422301" />
    <path
       inkscape:connector-curvature="0"
       id="path5020"
       qs:layer="0"
       style="fill:none;stroke:#000000;stroke-width:1.41111112;stroke-linecap:round;stroke-linejoin:round;stroke-miterlimit:4;stroke-dasharray:none;display:inline"
       d="m 61.331838,82.721282 c 0.726,0.271201 1.4519,0.5424 2.1966,0.749701 m 0,0 c 0.7115,0.1981 1.4401,0.337899 2.1744,0.4355 m 0,0 c 1.4836,0.1972 2.9905,0.221999 4.4796,0.074 m 0,0 c 1.4526,-0.143998 2.8883,-0.452199 4.275,-0.908899 m 0,0 c 1.3868,-0.456701 2.7248,-1.061901 3.9789,-1.809299 m 0,0 c 1.285297,-0.766001 2.482399,-1.681401 3.558397,-2.7215 m 0,0 c 0.532601,-0.514801 1.0356,-1.060201 1.490201,-1.642301 m 0,0 c 0.475699,-0.6092 0.898499,-1.2587 1.3212,-1.908198" />
    <path
       inkscape:connector-curvature="0"
       id="path5026"
       qs:layer="0"
       style="fill:none;stroke:#000000;stroke-width:1.41111112;stroke-linecap:round;stroke-linejoin:round;stroke-miterlimit:4;stroke-dasharray:none;display:inline"
       d="m 64.500138,78.760183 c 0.7008,0.1914 1.4017,0.382899 2.116,0.4992 m 0,0 c 0.7504,0.1222 1.5156,0.1614 2.2795,0.140699 m 0,0 c 1.3978,-0.038 2.7909,-0.2764 4.1181,-0.7119 m 0,0 c 1.3274,-0.435499 2.5889,-1.068101 3.7357,-1.8745 m 0,0 c 1.2186,-0.8569 2.307499,-1.9101 3.154699,-3.126398 m 0,0 c 0.474,-0.680401 0.872298,-1.411902 1.222098,-2.163502 m 0,0 c 0.3415,-0.733899 0.6369,-1.486899 0.932302,-2.239899" />
    <path
       inkscape:connector-curvature="0"
       id="path5032"
       qs:layer="0"
       style="fill:none;stroke:#000000;stroke-width:1.41111112;stroke-linecap:round;stroke-linejoin:round;stroke-miterlimit:4;stroke-dasharray:none;display:inline"
       d="m 75.687538,56.051584 c 0.1924,-0.7059 0.3847,-1.411899 0.5936,-2.113198 m 0,0 c 0.2054,-0.689402 0.4268,-1.374301 0.7071,-2.038302 m 0,0 c 0.4597,-1.0892 1.0779,-2.1223 1.855999,-3.012999 m 0,0 c 0.784798,-0.898201 1.7323,-1.651601 2.760399,-2.261901 m 0,0 c 1.046999,-0.621499 2.177499,-1.094498 3.352001,-1.4044 m 0,0 c 0.6544,-0.172599 1.322499,-0.294598 1.994699,-0.348999 m 0,0 c 0.6546,-0.053 1.3132,-0.042 1.9717,-0.031" />
    <path
       inkscape:connector-curvature="0"
       id="path5038"
       qs:layer="0"
       style="fill:none;stroke:#000000;stroke-width:1.41111112;stroke-linecap:round;stroke-linejoin:round;stroke-miterlimit:4;stroke-dasharray:none;display:inline"
       d="m 86.455737,54.710385 c 0.408598,-1.6457 0.817199,-3.291502 1.233697,-4.934901 m 0,0 c 0.416501,-1.6434 0.840802,-3.284398 1.233602,-4.934498 m 0,0 c 0.194598,-0.817302 0.381299,-1.636802 0.611099,-2.4442 m 0,0 c 0.1983,-0.697001 0.428599,-1.385 0.658901,-2.0729" />
    <path
       inkscape:connector-curvature="0"
       id="path5044"
       qs:layer="0"
       style="fill:none;stroke:#000000;stroke-width:1.41111112;stroke-linecap:round;stroke-linejoin:round;stroke-miterlimit:4;stroke-dasharray:none;display:inline"
       d="m 84.806136,74.990682 c 0.383698,-0.737198 0.767301,-1.474498 1.102298,-2.233298 m 0,0 c 0.347901,-0.7881 0.643202,-1.599401 0.935801,-2.411501 m 0,0 c 0.606801,-1.684001 1.201801,-3.371198 1.7037,-5.086 m 0,0 c 0.478301,-1.634299 0.8721,-3.2935 1.2658,-4.952699" />
    <path
       inkscape:connector-curvature="0"
       id="path5050"
       qs:layer="0"
       style="fill:none;stroke:#000000;stroke-width:1.41111112;stroke-linecap:round;stroke-linejoin:round;stroke-miterlimit:4;stroke-dasharray:none;display:inline"
       d="m 82.058537,69.283883 c 0.5948,-1.5568 1.1896,-3.1136 1.709798,-4.694699 m 0,0 c 0.5856,-1.779899 1.076802,-3.590699 1.568001,-5.4014" />
    <path
       inkscape:connector-curvature="0"
       id="path5056"
       qs:layer="0"
       style="fill:none;stroke:#000000;stroke-width:1.41111112;stroke-linecap:round;stroke-linejoin:round;stroke-miterlimit:4;stroke-dasharray:none;display:inline"
       d="m 75.687538,56.051584 c 1.4518,0.555701 2.9036,1.111399 4.376599,1.605099 m 0,0 c 1.7348,0.581502 3.499,1.077101 5.272199,1.531101 m 0,0 c 0.7454,0.190799 1.4924,0.3743 2.238999,0.559799 m 0,0 c 0.746401,0.185301 1.492399,0.372601 2.2384,0.559601 m 0,0 c 1.6448,0.412101 3.289901,0.822701 4.935,1.233701 m 0,0 c 1.6448,0.411 3.289599,0.8223 4.934399,1.233599" />
    <path
       inkscape:connector-curvature="0"
       id="path5062"
       qs:layer="0"
       style="fill:none;stroke:#000000;stroke-width:1.41111112;stroke-linecap:round;stroke-linejoin:round;stroke-miterlimit:4;stroke-dasharray:none;display:inline"
       d="m 72.939938,50.344683 c 0.2362,-0.562398 0.4724,-1.124898 0.7438,-1.669897 m 0,0 c 0.245,-0.4921 0.5188,-0.970001 0.8138,-1.436 m 0,0 c 0.5557,-0.877802 1.1869,-1.713301 1.9208,-2.4449 m 0,0 c 0.8321,-0.829401 1.7962,-1.5252 2.811697,-2.126302 m 0,0 c 1.041801,-0.616799 2.137901,-1.133898 3.278601,-1.5268 m 0,0 c 1.1947,-0.411398 2.438499,-0.686598 3.695299,-0.831598 m 0,0 c 0.639801,-0.074 1.2829,-0.113801 1.925202,-0.108202 m 0,0 c 0.688698,0.01 1.376299,0.064 2.063899,0.122902" />
    <path
       inkscape:connector-curvature="0"
       id="path5068"
       qs:layer="0"
       style="fill:none;stroke:#000000;stroke-width:1.41111112;stroke-linecap:round;stroke-linejoin:round;stroke-miterlimit:4;stroke-dasharray:none;display:inline"
       d="m 76.988238,51.900084 c 1.5121,0.549799 3.024199,1.099599 4.564099,1.5563 m 0,0 c 1.616298,0.479399 3.263099,0.856101 4.9034,1.254001 m 0,0 c 1.495698,0.362799 2.985899,0.743198 4.477399,1.119299 m 0,0 c 1.7962,0.453 3.5943,0.899702 5.391898,1.348 m 0,0 c 1.561199,0.389399 3.1219,0.780099 4.682706,1.1707" />
    <path
       inkscape:connector-curvature="0"
       id="path5074"
       qs:layer="0"
       style="fill:none;stroke:#000000;stroke-width:1.41111112;stroke-linecap:round;stroke-linejoin:round;stroke-miterlimit:4;stroke-dasharray:none;display:inline"
       d="m 90.933136,55.829684 c 0.4493,-1.797299 0.8987,-3.5946 1.348,-5.391898 m 0,0 c 0.390198,-1.560901 0.780398,-3.121801 1.1707,-4.682702" />
    <path
       inkscape:connector-curvature="0"
       id="path5080"
       qs:layer="0"
       style="fill:none;stroke:#000000;stroke-width:1.41111112;stroke-linecap:round;stroke-linejoin:round;stroke-miterlimit:4;stroke-dasharray:none;display:inline"
       d="m 84.806136,74.990682 c 0.7713,0.074 1.5425,0.1487 2.315699,0.1572 m 0,0 c 0.738699,0.01 1.479101,-0.044 2.213102,-0.140699 m 0,0 c 1.4829,-0.195399 2.939598,-0.573201 4.346998,-1.0848 m 0,0 c 1.164601,-0.423401 2.295401,-0.938499 3.357499,-1.572401 m 0,0 c 1.036202,-0.6184 2.007001,-1.3499 2.8901,-2.1745 m 0,0 c 0.924796,-0.863498 1.753296,-1.829 2.472706,-2.869099 m 0,0 c 0.3662,-0.5295 0.70419,-1.078399 1.00149,-1.6478 m 0,0 c 0.31881,-0.610599 0.59081,-1.2448 0.86281,-1.878998" />
    <path
       inkscape:connector-curvature="0"
       id="path5086"
       qs:layer="0"
       style="fill:none;stroke:#000000;stroke-width:1.41111112;stroke-linecap:round;stroke-linejoin:round;stroke-miterlimit:4;stroke-dasharray:none;display:inline"
       d="m 86.844235,70.345883 c 0.7269,0 1.453702,0.01 2.1731,-0.064 m 0,0 c 0.755901,-0.078 1.503601,-0.241599 2.2387,-0.4526 m 0,0 c 1.190599,-0.3417 2.348001,-0.8061 3.408801,-1.4369 m 0,0 c 1.042298,-0.619599 1.991298,-1.399899 2.816598,-2.296798 m 0,0 c 0.9049,-0.983302 1.6609,-2.1068 2.2017,-3.321002 m 0,0 c 0.3145,-0.7061 0.556206,-1.442898 0.765196,-2.187299 m 0,0 c 0.2081,-0.741299 0.3838,-1.49 0.55941,-2.238801" />
    <path
       inkscape:connector-curvature="0"
       id="path5092"
       qs:layer="0"
       style="fill:none;stroke:#000000;stroke-width:1.41111112;stroke-linecap:round;stroke-linejoin:round;stroke-miterlimit:4;stroke-dasharray:none;display:inline"
       d="m 93.451836,45.755084 c 0.175799,-0.748798 0.351599,-1.497598 0.559698,-2.2389 m 0,0 c 0.209002,-0.744299 0.4505,-1.480998 0.764901,-2.1872 m 0,0 c 0.540701,-1.2146 1.296899,-2.3391 2.202,-3.321199 m 0,0 c 0.825299,-0.895599 1.774398,-1.672599 2.816199,-2.296601 m 0,0 c 1.041896,-0.624097 2.176596,-1.094999 3.352096,-1.4044 m 0,0 c 0.65501,-0.172398 1.32261,-0.294597 1.9947,-0.349097 m 0,0 c 0.6544,-0.053 1.31301,-0.042 1.9717,-0.031" />
    <path
       inkscape:connector-curvature="0"
       id="path5098"
       qs:layer="0"
       style="fill:none;stroke:#000000;stroke-width:1.41111112;stroke-linecap:round;stroke-linejoin:round;stroke-miterlimit:4;stroke-dasharray:none;display:inline"
       d="m 104.64574,43.796385 c 0.40859,-1.645801 0.8172,-3.291501 1.23379,-4.934999 m 0,0 c 0.4164,-1.643301 0.8408,-3.284401 1.2336,-4.934399 m 0,0 c 0.19451,-0.817302 0.38131,-1.636901 0.611,-2.444201 m 0,0 c 0.1983,-0.6971 0.4287,-1.385 0.659,-2.0729" />
    <path
       inkscape:connector-curvature="0"
       id="path5104"
       qs:layer="0"
       style="fill:none;stroke:#000000;stroke-width:1.41111112;stroke-linecap:round;stroke-linejoin:round;stroke-miterlimit:4;stroke-dasharray:none;display:inline"
       d="m 104.26654,63.779585 c 0.2393,-0.7221 0.4787,-1.444202 0.68459,-2.175801 m 0,0 c 0.2179,-0.774 0.3983,-1.558601 0.5854,-2.341299 m 0,0 c 0.39421,-1.649702 0.8178,-3.2911 1.2339,-4.934602 m 0,0 c 0.4161,-1.643498 0.8248,-3.289099 1.23341,-4.934799" />
    <path
       inkscape:connector-curvature="0"
       id="path5110"
       qs:layer="0"
       style="fill:none;stroke:#000000;stroke-width:1.41111112;stroke-linecap:round;stroke-linejoin:round;stroke-miterlimit:4;stroke-dasharray:none;display:inline"
       d="m 101.00774,58.348384 c 0.3902,-1.5609 0.7805,-3.121801 1.1707,-4.682698 m 0,0 c 0.44929,-1.797302 0.89859,-3.5946 1.34799,-5.391901" />
    <path
       inkscape:connector-curvature="0"
       id="path5116"
       qs:layer="0"
       style="fill:none;stroke:#000000;stroke-width:1.41111112;stroke-linecap:round;stroke-linejoin:round;stroke-miterlimit:4;stroke-dasharray:none;display:inline"
       d="m 93.451836,45.755084 c 1.560898,0.390302 3.121799,0.7805 4.682699,1.1707 m 0,0 c 1.797299,0.449301 3.594605,0.8987 5.391895,1.348001 m 0,0 c 0.7463,0.186599 1.4926,0.3731 2.23901,0.5597 m 0,0 c 0.74609,0.1866 1.49229,0.373101 2.2384,0.559599 m 0,0 c 1.645,0.411302 3.29,0.8225 4.93489,1.233802 m 0,0 c 1.6448,0.411198 3.2896,0.822398 4.9345,1.233599" />
    <path
       inkscape:connector-curvature="0"
       id="path5122"
       qs:layer="0"
       style="fill:none;stroke:#000000;stroke-width:1.41111112;stroke-linecap:round;stroke-linejoin:round;stroke-miterlimit:4;stroke-dasharray:none;display:inline"
       d="m 90.193036,40.323886 c 0.272,-0.634201 0.544,-1.268399 0.862799,-1.879001 m 0,0 c 0.297301,-0.5694 0.6352,-1.1181 1.001499,-1.647698 m 0,0 c 0.719401,-1.040401 1.548,-2.006702 2.473001,-2.869402 m 0,0 c 0.883101,-0.8236 1.854101,-1.552899 2.889701,-2.174299 m 0,0 c 1.035798,-0.6215 2.136298,-1.1351 3.278704,-1.5267 m 0,0 c 1.1964,-0.4101 2.43879,-0.6864 3.6953,-0.8316 m 0,0 c 0.6396,-0.074 1.2829,-0.1139 1.92519,-0.1083 m 0,0 c 0.68871,0.01 1.3763,0.065 2.0639,0.123" />
    <path
       inkscape:connector-curvature="0"
       id="path5128"
       qs:layer="0"
       style="fill:none;stroke:#000000;stroke-width:1.41111112;stroke-linecap:round;stroke-linejoin:round;stroke-miterlimit:4;stroke-dasharray:none;display:inline"
       d="m 94.776435,41.328984 c 1.644899,0.411102 3.2898,0.822201 4.934701,1.233402 m 0,0 c 1.644894,0.411299 3.289804,0.8227 4.934604,1.233999 m 0,0 c 1.49249,0.373101 2.985,0.746199 4.47749,1.1193 m 0,0 c 1.7973,0.4493 3.5946,0.8987 5.3919,1.348 m 0,0 c 1.5609,0.390201 3.1218,0.780401 4.6827,1.1707" />
    <path
       inkscape:connector-curvature="0"
       id="path5134"
       qs:layer="0"
       style="fill:none;stroke:#000000;stroke-width:1.41111112;stroke-linecap:round;stroke-linejoin:round;stroke-miterlimit:4;stroke-dasharray:none;display:inline"
       d="m 109.12323,44.915685 c 0.4493,-1.797299 0.8986,-3.5946 1.34791,-5.391899 m 0,0 c 0.39029,-1.5609 0.7805,-3.121801 1.1707,-4.682701" />
    <path
       inkscape:connector-curvature="0"
       id="path5140"
       qs:layer="0"
       style="fill:none;stroke:#000000;stroke-width:1.41111112;stroke-linecap:round;stroke-linejoin:round;stroke-miterlimit:4;stroke-dasharray:none;display:inline"
       d="m 104.26654,63.779585 c 0.68759,0.059 1.37519,0.116899 2.0639,0.122998 m 0,0 c 0.64229,0.01 1.2855,-0.034 1.92519,-0.1083 m 0,0 c 1.25651,-0.145198 2.499,-0.421598 3.6956,-0.831799 m 0,0 c 1.1423,-0.391601 2.2426,-0.905101 3.2783,-1.526501 m 0,0 c 1.0358,-0.621498 2.0069,-1.3508 2.89,-2.1745 m 0,0 c 0.9249,-0.862699 1.7534,-1.828898 2.4728,-2.869198 m 0,0 c 0.3662,-0.529601 0.7042,-1.078402 1.0014,-1.647701 m 0,0 c 0.3188,-0.610599 0.59081,-1.2448 0.86281,-1.878998" />
    <path
       inkscape:connector-curvature="0"
       id="path5146"
       qs:layer="0"
       style="fill:none;stroke:#000000;stroke-width:1.41111112;stroke-linecap:round;stroke-linejoin:round;stroke-miterlimit:4;stroke-dasharray:none;display:inline"
       d="m 105.53653,59.262485 c 0.65861,0.01101 1.31721,0.02201 1.9717,-0.031 m 0,0 c 0.6721,-0.055 1.3399,-0.1769 1.995,-0.349298 m 0,0 c 1.1753,-0.3094 2.3099,-0.780302 3.3517,-1.404202 m 0,0 c 1.042,-0.623999 1.9912,-1.401098 2.8166,-2.296798 m 0,0 c 0.9049,-0.982001 1.6609,-2.1066 2.2017,-3.320999 m 0,0 c 0.3145,-0.706301 0.55621,-1.443002 0.7652,-2.1874 m 0,0 c 0.2081,-0.741201 0.3837,-1.490001 0.5594,-2.2387" />
    <path
       inkscape:connector-curvature="0"
       id="path5152"
       qs:layer="0"
       style="fill:none;stroke:#000000;stroke-width:1.41111112;stroke-linecap:round;stroke-linejoin:round;stroke-miterlimit:4;stroke-dasharray:none;display:inline"
       d="m 111.64184,34.841085 c 0.17579,-0.748801 0.35159,-1.497598 0.55979,-2.238999 m 0,0 c 0.20891,-0.7443 0.4504,-1.4811 0.7648,-2.1871 m 0,0 c 0.5408,-1.2143 1.29741,-2.3374 2.202,-3.3212 m 0,0 c 0.825,-0.8972 1.7731,-1.6784 2.8163,-2.2967 m 0,0 c 1.0433,-0.618299 2.1816,-1.073699 3.35211,-1.404299 m 0,0 c 0.71059,-0.2008 1.43309,-0.3556 2.16299,-0.4354 m 0,0 c 0.7193,-0.079 1.4457,-0.085 2.1722,-0.091" />
    <path
       inkscape:connector-curvature="0"
       id="path5158"
       qs:layer="0"
       style="fill:none;stroke:#000000;stroke-width:1.41111112;stroke-linecap:round;stroke-linejoin:round;stroke-miterlimit:4;stroke-dasharray:none;display:inline"
       d="m 122.83583,32.882285 c 0.3892,-1.651199 0.7783,-3.302399 1.2337,-4.934899 m 0,0 c 0.4769,-1.7097 1.0265,-3.3987 1.6025,-5.080499 m 0,0 c 0.2921,-0.8528 0.5909,-1.7036 0.9482,-2.5292 m 0,0 c 0.3143,-0.7264 0.6737,-1.4333 1.0332,-2.1402" />
    <path
       inkscape:connector-curvature="0"
       id="path5164"
       qs:layer="0"
       style="fill:none;stroke:#000000;stroke-width:1.41111112;stroke-linecap:round;stroke-linejoin:round;stroke-miterlimit:4;stroke-dasharray:none;display:inline"
       d="m 122.45654,52.865586 c 0.23939,-0.722103 0.47879,-1.444202 0.68469,-2.175801 m 0,0 c 0.2179,-0.774 0.3983,-1.558601 0.58531,-2.341299 m 0,0 c 0.39419,-1.649702 0.81779,-3.2911 1.23399,-4.934701 m 0,0 c 0.4161,-1.643501 0.8247,-3.289099 1.2334,-4.934701" />
    <path
       inkscape:connector-curvature="0"
       id="path5170"
       qs:layer="0"
       style="fill:none;stroke:#000000;stroke-width:1.41111112;stroke-linecap:round;stroke-linejoin:round;stroke-miterlimit:4;stroke-dasharray:none;display:inline"
       d="m 119.19783,47.434385 c 0.3902,-1.5609 0.7804,-3.121801 1.1707,-4.682699 m 0,0 c 0.4493,-1.797301 0.89861,-3.594599 1.3479,-5.391999" />
    <path
       inkscape:connector-curvature="0"
       id="path5176"
       qs:layer="0"
       style="fill:none;stroke:#000000;stroke-width:1.41111112;stroke-linecap:round;stroke-linejoin:round;stroke-miterlimit:4;stroke-dasharray:none;display:inline"
       d="m 111.64184,34.841085 c 1.56089,0.390101 3.1219,0.7802 4.68269,1.1707 m 0,0 c 1.7973,0.449501 3.5944,0.899501 5.3919,1.347902 m 0,0 c 0.7465,0.186199 1.493,0.372197 2.239,0.559799 m 0,0 c 0.7459,0.187599 1.4912,0.376899 2.2385,0.559598 m 0,0 c 1.6473,0.402901 3.3038,0.7738 4.9349,1.233701 m 0,0 c 1.5564,0.438901 3.0898,0.9587 4.6231,1.4785" />
    <path
       inkscape:connector-curvature="0"
       id="path5182"
       qs:layer="0"
       style="fill:none;stroke:#000000;stroke-width:1.41111112;stroke-linecap:round;stroke-linejoin:round;stroke-miterlimit:4;stroke-dasharray:none;display:inline"
       d="m 108.38313,29.409886 c 0.272,-0.6342 0.544,-1.2684 0.8627,-1.879 m 0,0 c 0.29731,-0.5694 0.63531,-1.1183 1.0015,-1.6478 m 0,0 c 0.7196,-1.0401 1.5486,-2.0051 2.47311,-2.869299 m 0,0 c 0.88259,-0.8251 1.85239,-1.5584 2.88969,-2.1743 m 0,0 c 1.0374,-0.616 2.14251,-1.1145 3.2787,-1.5267 m 0,0 c 1.373,-0.4982 2.7914,-0.8704 4.236,-1.0766 m 0,0 c 0.7329,-0.1045 1.4725,-0.1664 2.2112,-0.1676 m 0,0 c 0.7731,0 1.5453,0.064 2.3174,0.1289" />
    <path
       inkscape:connector-curvature="0"
       id="path5188"
       qs:layer="0"
       style="fill:none;stroke:#000000;stroke-width:1.41111112;stroke-linecap:round;stroke-linejoin:round;stroke-miterlimit:4;stroke-dasharray:none;display:inline"
       d="m 112.96643,30.414986 c 1.645,0.4108 3.29,0.8217 4.9348,1.2334 m 0,0 c 1.6448,0.4117 3.2895,0.824301 4.9346,1.233899 m 0,0 c 1.4927,0.3717 2.9857,0.740901 4.4774,1.1194 m 0,0 c 1.7756,0.450402 3.5492,0.914 5.2929,1.470801 m 0,0 c 1.4797,0.4725 2.9377,1.0121 4.3958,1.551701" />
    <path
       inkscape:connector-curvature="0"
       id="path5194"
       qs:layer="0"
       style="fill:none;stroke:#000000;stroke-width:1.41111112;stroke-linecap:round;stroke-linejoin:round;stroke-miterlimit:4;stroke-dasharray:none;display:inline"
       d="m 127.31323,34.001685 c 0.4703,-1.815199 0.9405,-3.630299 1.5046,-5.415999 m 0,0 c 0.5014,-1.5873 1.077,-3.1512 1.6525,-4.715199" />
    <path
       inkscape:connector-curvature="0"
       id="path5200"
       qs:layer="0"
       style="fill:none;stroke:#000000;stroke-width:1.41111112;stroke-linecap:round;stroke-linejoin:round;stroke-miterlimit:4;stroke-dasharray:none;display:inline"
       d="m 122.45654,52.865586 c 0.68759,0.059 1.3753,0.116998 2.06389,0.122899 m 0,0 c 0.6423,0.01 1.2854,-0.034 1.9252,-0.108201 m 0,0 c 1.2569,-0.144899 2.501,-0.419899 3.6956,-0.8318 m 0,0 c 1.1405,-0.393299 2.236,-0.911498 3.2784,-1.526599 m 0,0 c 1.0424,-0.6151 2.0316,-1.327099 2.89,-2.174401 m 0,0 c 0.763,-0.753299 1.4226,-1.613399 1.9896,-2.525598 m 0,0 c 0.2911,-0.4683 0.5577,-0.9504 0.7963,-1.445802 m 0,0 c 0.2641,-0.548699 0.4937,-1.113798 0.7233,-1.678898" />
    <path
       inkscape:connector-curvature="0"
       id="path5206"
       qs:layer="0"
       style="fill:none;stroke:#000000;stroke-width:1.41111112;stroke-linecap:round;stroke-linejoin:round;stroke-miterlimit:4;stroke-dasharray:none;display:inline"
       d="m 123.72654,48.348486 c 0.65859,0.01101 1.31709,0.02201 1.97169,-0.031 m 0,0 c 0.6724,-0.054 1.3406,-0.176299 1.995,-0.349199 m 0,0 c 1.1742,-0.310399 2.3038,-0.7849 3.3518,-1.4042 m 0,0 c 1.0481,-0.6195 2.0145,-1.3838 2.8166,-2.296899 m 0,0 c 0.7967,-0.907 1.4312,-1.9609 1.8903,-3.076101 m 0,0 c 0.2744,-0.666499 0.4861,-1.354799 0.6825,-2.047 m 0,0 c 0.1998,-0.704001 0.3836,-1.412 0.5675,-2.120099" />
    <path
       inkscape:connector-curvature="0"
       id="path5212"
       qs:layer="0"
       style="fill:none;stroke:#000000;stroke-width:1.41111112;stroke-linecap:round;stroke-linejoin:round;stroke-miterlimit:4;stroke-dasharray:none;display:inline"
       d="m 130.47033,23.870487 c 0.2864,-0.7566 0.5727,-1.5132 0.9054,-2.2513 m 0,0 c 0.3406,-0.7557 0.7297,-1.4919 1.1952,-2.178 m 0,0 c 0.8323,-1.2267 1.9086,-2.2931 3.1169,-3.1648 m 0,0 c 1.1367,-0.8201 2.3903,-1.468 3.7121,-1.9197 m 0,0 c 1.322,-0.4517 2.7122,-0.7073 4.1096,-0.7621 m 0,0 c 0.7634,-0.03 1.5289,10e-5 2.2806,0.1131 m 0,0 c 0.7157,0.1076 1.4188,0.2905 2.1219,0.4734" />
    <path
       inkscape:connector-curvature="0"
       id="path5218"
       qs:layer="0"
       style="fill:none;stroke:#000000;stroke-width:1.41111112;stroke-linecap:round;stroke-linejoin:round;stroke-miterlimit:4;stroke-dasharray:none;display:inline"
       d="m 142.45813,23.275887 c 0.827,-1.5423 1.6541,-3.0846 2.55,-4.5856 m 0,0 c 0.9157,-1.5342 1.9033,-3.0252 2.9039,-4.5092 m 0,0 c 0.504,-0.7473 1.0112,-1.4929 1.5691,-2.1986 m 0,0 c 0.4908,-0.6209 1.0208,-1.2108 1.5507,-1.8008" />
    <path
       inkscape:connector-curvature="0"
       id="path5224"
       qs:layer="0"
       style="fill:none;stroke:#000000;stroke-width:1.41111112;stroke-linecap:round;stroke-linejoin:round;stroke-miterlimit:4;stroke-dasharray:none;display:inline"
       d="m 139.81883,42.697186 c 0.2167,-0.660702 0.4333,-1.321401 0.6332,-1.9872 m 0,0 c 0.2159,-0.718701 0.4124,-1.4432 0.6252,-2.163002 m 0,0 c 0.4557,-1.541698 0.9863,-3.061699 1.5743,-4.557999 m 0,0 c 0.6011,-1.529599 1.2623,-3.034299 1.9235,-4.538999" />
    <path
       inkscape:connector-curvature="0"
       id="path5230"
       qs:layer="0"
       style="fill:none;stroke:#000000;stroke-width:1.41111112;stroke-linecap:round;stroke-linejoin:round;stroke-miterlimit:4;stroke-dasharray:none;display:inline"
       d="m 137.00193,37.024187 c 0.4504,-1.488201 0.9008,-2.976502 1.4206,-4.439901 m 0,0 c 0.6122,-1.7234 1.3206,-3.4123 2.0291,-5.1012" />
    <path
       inkscape:connector-curvature="0"
       id="path5236"
       qs:layer="0"
       style="fill:none;stroke:#000000;stroke-width:1.41111112;stroke-linecap:round;stroke-linejoin:round;stroke-miterlimit:4;stroke-dasharray:none;display:inline"
       d="m 130.47033,23.870487 c 1.5921,0.490399 3.1843,0.980899 4.7553,1.533299 m 0,0 c 1.7685,0.6219 3.5104,1.3222 5.226,2.0793 m 0,0 c 0.7004,0.3091 1.3964,0.6276 2.0872,0.9572 m 0,0 c 0.6837,0.3262 1.3622,0.6633 2.0362,1.0097 m 0,0 c 1.4619,0.7513 2.9025,1.5466 4.3043,2.4037 m 0,0 c 1.3712,0.8382 2.7054,1.735701 4.0396,2.6331" />
    <path
       inkscape:connector-curvature="0"
       id="path5242"
       qs:layer="0"
       style="fill:none;stroke:#000000;stroke-width:1.41111112;stroke-linecap:round;stroke-linejoin:round;stroke-miterlimit:4;stroke-dasharray:none;display:inline"
       d="m 127.65343,18.197487 c 0.4148,-0.6545 0.8296,-1.3091 1.2979,-1.9241 m 0,0 c 0.4475,-0.5876 0.9437,-1.1391 1.4701,-1.6603 m 0,0 c 1.0633,-1.0532 2.2494,-1.9832 3.5254,-2.764799 m 0,0 c 1.2448,-0.762501 2.5751,-1.383901 3.9562,-1.857401 m 0,0 c 1.3812,-0.4736 2.8131,-0.799399 4.264,-0.961099 m 0,0 c 1.487,-0.1657 2.9941,-0.1591 4.4798,0.02 m 0,0 c 0.7354,0.089 1.4657,0.2196 2.1795,0.409 m 0,0 c 0.7472,0.1983 1.4764,0.4606 2.2055,0.7229" />
    <path
       inkscape:connector-curvature="0"
       id="path5248"
       qs:layer="0"
       style="fill:none;stroke:#000000;stroke-width:1.41111112;stroke-linecap:round;stroke-linejoin:round;stroke-miterlimit:4;stroke-dasharray:none;display:inline"
       d="m 132.57093,19.441187 c 1.6953,0.5698 3.3906,1.1396 5.0603,1.7785 m 0,0 c 1.6332,0.6249 3.242,1.3158 4.8269,2.0562 m 0,0 c 1.408,0.6577 2.7972,1.354499 4.1659,2.090799 m 0,0 c 1.6121,0.8673 3.1958,1.7894 4.7323,2.783 m 0,0 c 1.3047,0.8437 2.5754,1.7389 3.8461,2.6341" />
    <path
       inkscape:connector-curvature="0"
       id="path5254"
       qs:layer="0"
       style="fill:none;stroke:#000000;stroke-width:1.41111112;stroke-linecap:round;stroke-linejoin:round;stroke-miterlimit:4;stroke-dasharray:none;display:inline"
       d="m 146.62403,25.366686 c 0.9222,-1.633899 1.8444,-3.267799 2.8506,-4.848499 m 0,0 c 0.8938,-1.4042 1.8539,-2.7664 2.8139,-4.1286" />
    <path
       inkscape:connector-curvature="0"
       id="path5260"
       qs:layer="0"
       style="fill:none;stroke:#000000;stroke-width:1.41111112;stroke-linecap:round;stroke-linejoin:round;stroke-miterlimit:4;stroke-dasharray:none;display:inline"
       d="m 139.81883,42.697186 c 0.5889,0.1587 1.1778,0.3175 1.7748,0.438399 m 0,0 c 0.539,0.1092 1.0845,0.187601 1.6331,0.239499 m 0,0 c 1.0334,0.098 2.0775,0.101301 3.1091,-0.01499 m 0,0 c 0.9501,-0.1069 1.8896,-0.315299 2.7943,-0.625399 m 0,0 c 0.9047,-0.310199 1.7745,-0.722201 2.5903,-1.2208 m 0,0 c 0.8857,-0.541401 1.7079,-1.184899 2.4638,-1.896099 m 0,0 c 0.4013,-0.377602 0.784,-0.774302 1.1426,-1.1912 m 0,0 c 0.3971,-0.461801 0.7647,-0.948501 1.1323,-1.435199" />
    <path
       inkscape:connector-curvature="0"
       id="path5266"
       qs:layer="0"
       style="fill:none;stroke:#000000;stroke-width:1.41111112;stroke-linecap:round;stroke-linejoin:round;stroke-miterlimit:4;stroke-dasharray:none;display:inline"
       d="m 141.07723,38.546984 c 0.58,0.124302 1.1601,0.2487 1.7474,0.3205 m 0,0 c 0.5856,0.072 1.1785,0.091 1.7703,0.065 m 0,0 c 1.0323,-0.045 2.0614,-0.228701 3.0382,-0.563101 m 0,0 c 0.9769,-0.334399 1.9014,-0.819898 2.7449,-1.419699 m 0,0 c 0.9658,-0.686799 1.8253,-1.523599 2.5409,-2.4626 m 0,0 c 0.4364,-0.572598 0.8192,-1.1832 1.1879,-1.801301 m 0,0 c 0.375,-0.628699 0.7353,-1.265199 1.0956,-1.901699" />
    <path
       inkscape:connector-curvature="0"
       id="path5272"
       qs:layer="0"
       style="fill:none;stroke:#000000;stroke-width:1.41111112;stroke-linecap:round;stroke-linejoin:round;stroke-miterlimit:4;stroke-dasharray:none;display:inline"
       d="m 152.28853,16.389587 c 0.472,-0.657 0.944,-1.314 1.456,-1.9412 m 0,0 c 0.5241,-0.6421 1.0902,-1.2529 1.717,-1.7956 m 0,0 c 1.1208,-0.9701 2.436,-1.7224 3.8283,-2.252599 m 0,0 c 1.31,-0.4989 2.6883,-0.8011 4.082,-0.896201 m 0,0 c 1.3937,-0.095 2.8028,0.017 4.1669,0.3248 m 0,0 c 0.7453,0.168201 1.4771,0.3949 2.1742,0.698101 m 0,0 c 0.6636,0.2888 1.2956,0.646999 1.9277,1.005299" />
    <path
       inkscape:connector-curvature="0"
       id="path5278"
       qs:layer="0"
       style="fill:none;stroke:#000000;stroke-width:1.41111112;stroke-linecap:round;stroke-linejoin:round;stroke-miterlimit:4;stroke-dasharray:none;display:inline"
       d="m 164.02333,18.910287 c 1.1973,-1.2764 2.3945,-2.5529 3.6475,-3.7716 m 0,0 c 1.2809,-1.2458 2.6199,-2.4312 3.9698,-3.6065 m 0,0 c 0.6798,-0.591999 1.3624,-1.181299 2.0835,-1.718999 m 0,0 c 0.6345,-0.4731 1.2988,-0.9062 1.9632,-1.3393" />
    <path
       inkscape:connector-curvature="0"
       id="path5284"
       qs:layer="0"
       style="fill:none;stroke:#000000;stroke-width:1.41111112;stroke-linecap:round;stroke-linejoin:round;stroke-miterlimit:4;stroke-dasharray:none;display:inline"
       d="m 156.45913,36.991686 c 0.3799,-0.5824 0.7597,-1.164802 1.1248,-1.7563 m 0,0 c 0.3941,-0.638601 0.771,-1.2878 1.1624,-1.9283 m 0,0 c 0.8384,-1.3717 1.7434,-2.7032 2.6978,-3.9969 m 0,0 c 0.9757,-1.3226 2.003,-2.6056 3.0302,-3.8885" />
    <path
       inkscape:connector-curvature="0"
       id="path5290"
       qs:layer="0"
       style="fill:none;stroke:#000000;stroke-width:1.41111112;stroke-linecap:round;stroke-linejoin:round;stroke-miterlimit:4;stroke-dasharray:none;display:inline"
       d="m 155.20243,30.783786 c 0.8194,-1.3215 1.6388,-2.643 2.5188,-3.9226 m 0,0 c 1.0364,-1.5069 2.1569,-2.955599 3.2774,-4.404399" />
    <path
       inkscape:connector-curvature="0"
       id="path5296"
       qs:layer="0"
       style="fill:none;stroke:#000000;stroke-width:1.41111112;stroke-linecap:round;stroke-linejoin:round;stroke-miterlimit:4;stroke-dasharray:none;display:inline"
       d="m 152.28853,16.389587 c 1.4115,0.8849 2.823,1.7698 4.1982,2.7092 m 0,0 c 1.548,1.0574 3.0499,2.1837 4.5119,3.358 m 0,0 c 0.5968,0.4795 1.187,0.9669 1.7693,1.4637 m 0,0 c 0.5763,0.491699 1.1448,0.992499 1.7064,1.501199 m 0,0 c 1.2184,1.1033 2.4048,2.2435 3.5378,3.4335 m 0,0 c 1.1082,1.1639 2.1655,2.3754 3.2228,3.5869" />
    <path
       inkscape:connector-curvature="0"
       id="path5302"
       qs:layer="0"
       style="fill:none;stroke:#000000;stroke-width:1.41111112;stroke-linecap:round;stroke-linejoin:round;stroke-miterlimit:4;stroke-dasharray:none;display:inline"
       d="m 151.03183,10.181687 c 0.5698,-0.5253 1.1396,-1.050599 1.7508,-1.523799 m 0,0 c 0.584,-0.4521 1.2058,-0.8567 1.8489,-1.2245 m 0,0 c 1.2992,-0.7428 2.6852,-1.335 4.1197,-1.7607 m 0,0 c 1.3995,-0.4153 2.8451,-0.6721 4.3016,-0.773 m 0,0 c 1.4567,-0.1009 2.9241,-0.046 4.3676,0.1725 m 0,0 c 1.4794,0.2238 2.9336,0.6193 4.3227,1.176 m 0,0 c 0.6876,0.2755 1.3593,0.5905 2,0.9578 m 0,0 c 0.6707,0.3845 1.3074,0.8262 1.9442,1.2679" />
    <path
       inkscape:connector-curvature="0"
       id="path5308"
       qs:layer="0"
       style="fill:none;stroke:#000000;stroke-width:1.41111112;stroke-linecap:round;stroke-linejoin:round;stroke-miterlimit:4;stroke-dasharray:none;display:inline"
       d="m 155.46153,12.652787 c 1.4907,0.9883 2.9814,1.9765 4.4295,3.0248 m 0,0 c 1.4165,1.0254 2.7923,2.1083 4.1323,3.2327 m 0,0 c 1.1905,0.999 2.3526,2.0309 3.4848,3.0956 m 0,0 c 1.3335,1.2541 2.6255,2.5538 3.8534,3.910499 m 0,0 c 1.0426,1.1519 2.0391,2.3449 3.0355,3.5378" />
    <path
       inkscape:connector-curvature="0"
       id="path5314"
       qs:layer="0"
       style="fill:none;stroke:#000000;stroke-width:1.41111112;stroke-linecap:round;stroke-linejoin:round;stroke-miterlimit:4;stroke-dasharray:none;display:inline"
       d="m 167.50813,22.005887 c 1.3129,-1.3403 2.6257,-2.6807 4.0059,-3.948 m 0,0 c 1.226,-1.1259 2.5052,-2.194 3.7845,-3.2621" />
    <path
       inkscape:connector-curvature="0"
       id="path5320"
       qs:layer="0"
       style="fill:none;stroke:#000000;stroke-width:1.41111112;stroke-linecap:round;stroke-linejoin:round;stroke-miterlimit:4;stroke-dasharray:none;display:inline"
       d="m 156.45913,36.991686 c 0.5279,0.305398 1.0559,0.610799 1.6014,0.8818 m 0,0 c 0.4925,0.244698 0.9993,0.461298 1.5159,0.653001 m 0,0 c 0.9731,0.361199 1.9809,0.6343 3.0075,0.788599 m 0,0 c 0.9455,0.142 1.9069,0.1833 2.8609,0.117198 m 0,0 c 0.9542,-0.066 1.9008,-0.239499 2.8178,-0.510599 m 0,0 c 0.9954,-0.294298 1.9558,-0.703698 2.8697,-1.1956 m 0,0 c 0.4853,-0.2612 0.9574,-0.545598 1.4115,-0.855899 m 0,0 c 0.5029,-0.343501 0.9837,-0.7188 1.4645,-1.094102" />
    <path
       inkscape:connector-curvature="0"
       id="path5326"
       qs:layer="0"
       style="fill:none;stroke:#000000;stroke-width:1.41111112;stroke-linecap:round;stroke-linejoin:round;stroke-miterlimit:4;stroke-dasharray:none;display:inline"
       d="m 158.74633,33.307086 c 0.5283,0.2699 1.0566,0.5398 1.6054,0.7608 m 0,0 c 0.5473,0.2203 1.1151,0.391998 1.6936,0.519698 m 0,0 c 1.009,0.2226 2.0506,0.311201 3.0806,0.240403 m 0,0 c 1.0301,-0.071 2.0486,-0.301202 3.0183,-0.662901 m 0,0 c 1.1104,-0.4142 2.1569,-1.000602 3.0907,-1.723 m 0,0 c 0.5694,-0.4405 1.0969,-0.9316 1.6126,-1.4336 m 0,0 c 0.5246,-0.5105 1.0371,-1.0324 1.5495,-1.5543" />
    <path
       inkscape:connector-curvature="0"
       id="path5332"
       qs:layer="0"
       style="fill:none;stroke:#000000;stroke-width:1.41111112;stroke-linecap:round;stroke-linejoin:round;stroke-miterlimit:4;stroke-dasharray:none;display:inline"
       d="m 175.29853,14.795787 c 0.6256,-0.5129 1.2512,-1.0258 1.9077,-1.4995 m 0,0 c 0.6722,-0.485 1.3768,-0.929 2.1225,-1.291299 m 0,0 c 1.3333,-0.648 2.7981,-1.0352 4.2801,-1.1879 m 0,0 c 1.3944,-0.143701 2.804,-0.08 4.1749,0.1882 m 0,0 c 1.3711,0.267999 2.7035,0.739999 3.9418,1.389599 m 0,0 c 0.6766,0.355 1.3251,0.7629 1.9202,1.2359 m 0,0 c 0.5666,0.4503 1.0847,0.9595 1.6028,1.4688" />
    <path
       inkscape:connector-curvature="0"
       id="path5338"
       qs:layer="0"
       style="fill:none;stroke:#000000;stroke-width:1.41111112;stroke-linecap:round;stroke-linejoin:round;stroke-miterlimit:4;stroke-dasharray:none;display:inline"
       d="m 185.98453,20.260887 c 1.4863,-0.9241 2.9725,-1.8481 4.4977,-2.702 m 0,0 c 1.559,-0.8728 3.1587,-1.6724 4.7663,-2.4593 m 0,0 c 0.8096,-0.3963 1.6212,-0.7894 2.4567,-1.1227 m 0,0 c 0.7351,-0.2932 1.4888,-0.5401 2.2424,-0.7871" />
    <path
       inkscape:connector-curvature="0"
       id="path5344"
       qs:layer="0"
       style="fill:none;stroke:#000000;stroke-width:1.41111112;stroke-linecap:round;stroke-linejoin:round;stroke-miterlimit:4;stroke-dasharray:none;display:inline"
       d="m 174.00833,35.776084 c 0.5173,-0.464498 1.0346,-0.929098 1.5401,-1.406299 m 0,0 c 0.5456,-0.5152 1.0773,-1.0451 1.6209,-1.5628 m 0,0 c 1.1641,-1.108699 2.3822,-2.161499 3.6383,-3.164899 m 0,0 c 1.284,-1.0258 2.6078,-2 3.9315,-2.9742" />
    <path
       inkscape:connector-curvature="0"
       id="path5350"
       qs:layer="0"
       style="fill:none;stroke:#000000;stroke-width:1.41111112;stroke-linecap:round;stroke-linejoin:round;stroke-miterlimit:4;stroke-dasharray:none;display:inline"
       d="m 174.39703,29.454186 c 1.1328,-1.0651 2.2656,-2.1303 3.4462,-3.1392 m 0,0 c 1.3903,-1.1883 2.8469,-2.2985 4.3034,-3.408799" />
    <path
       inkscape:connector-curvature="0"
       id="path5356"
       qs:layer="0"
       style="fill:none;stroke:#000000;stroke-width:1.41111112;stroke-linecap:round;stroke-linejoin:round;stroke-miterlimit:4;stroke-dasharray:none;display:inline"
       d="m 175.29853,14.795787 c 1.1351,1.2193 2.2703,2.4387 3.3563,3.7012 m 0,0 c 1.2225,1.4212 2.3827,2.8972 3.4918,4.4092 m 0,0 c 0.4529,0.6173 0.8972,1.2406 1.3314,1.870799 m 0,0 c 0.4298,0.6238 0.8498,1.2544 1.2611,1.8909 m 0,0 c 0.8922,1.3805 1.7439,2.7884 2.5313,4.2305 m 0,0 c 0.7701,1.4106 1.4787,2.854001 2.1873,4.297398" />
    <path
       inkscape:connector-curvature="0"
       id="path5362"
       qs:layer="0"
       style="fill:none;stroke:#000000;stroke-width:1.41111112;stroke-linecap:round;stroke-linejoin:round;stroke-miterlimit:4;stroke-dasharray:none;display:inline"
       d="m 175.68733,8.473888 c 0.686,-0.3604 1.3721,-0.7207 2.0847,-1.0201 m 0,0 c 0.681,-0.286 1.3862,-0.5164 2.1024,-0.7056 m 0,0 c 1.447,-0.3822 2.9389,-0.5965 4.4347,-0.6374 m 0,0 c 1.4592,-0.04 2.9222,0.085 4.3553,0.3639 m 0,0 c 1.4333,0.2786 2.8368,0.7107 4.1749,1.2944 m 0,0 c 1.3715,0.5982 2.6743,1.3557 3.8726,2.2521 m 0,0 c 0.5931,0.443799 1.1607,0.921599 1.6849,1.441799 m 0,0 c 0.5486,0.5446 1.0497,1.1357 1.5508,1.7268" />
    <path
       inkscape:connector-curvature="0"
       id="path5368"
       qs:layer="0"
       style="fill:none;stroke:#000000;stroke-width:1.41111112;stroke-linecap:round;stroke-linejoin:round;stroke-miterlimit:4;stroke-dasharray:none;display:inline"
       d="m 179.32873,12.004988 c 1.185,1.339499 2.37,2.679099 3.4983,4.065799 m 0,0 c 1.1038,1.3564 2.1533,2.7578 3.1575,4.1901 m 0,0 c 0.8922,1.2725 1.7485,2.5694 2.5674,3.8904 m 0,0 c 0.9645,1.555799 1.877,3.145099 2.713,4.772699 m 0,0 c 0.7099,1.3821 1.3645,2.7919 2.0192,4.201698" />
    <path
       inkscape:connector-curvature="0"
       id="path5374"
       qs:layer="0"
       style="fill:none;stroke:#000000;stroke-width:1.41111112;stroke-linecap:round;stroke-linejoin:round;stroke-miterlimit:4;stroke-dasharray:none;display:inline"
       d="m 188.55193,24.151287 c 1.6144,-0.956 3.2288,-1.912 4.8894,-2.78 m 0,0 c 1.4751,-0.771 2.9868,-1.4727 4.4984,-2.1743" />
    <path
       inkscape:connector-curvature="0"
       id="path5380"
       qs:layer="0"
       style="fill:none;stroke:#000000;stroke-width:1.41111112;stroke-linecap:round;stroke-linejoin:round;stroke-miterlimit:4;stroke-dasharray:none;display:inline"
       d="m 174.00833,35.776084 c 0.4311,0.431402 0.8623,0.862703 1.3193,1.265301 m 0,0 c 0.4127,0.363601 0.8464,0.703702 1.296,1.022401 m 0,0 c 0.8468,0.600199 1.7499,1.124198 2.7019,1.5383 m 0,0 c 0.8767,0.381299 1.7949,0.6694 2.7337,0.851899 m 0,0 c 0.9388,0.182601 1.8982,0.259399 2.854,0.234301 m 0,0 c 1.0377,-0.02701 2.0712,-0.174901 3.0811,-0.4142 m 0,0 c 0.5362,-0.127 1.0658,-0.2799 1.5846,-0.4623 m 0,0 c 0.5746,-0.2021 1.1359,-0.440501 1.6973,-0.6789" />
    <path
       inkscape:connector-curvature="0"
       id="path5386"
       qs:layer="0"
       style="fill:none;stroke:#000000;stroke-width:1.41111112;stroke-linecap:round;stroke-linejoin:round;stroke-miterlimit:4;stroke-dasharray:none;display:inline"
       d="m 177.16933,32.806985 c 0.4406,0.3972 0.8813,0.7943 1.3545,1.1495 m 0,0 c 0.4719,0.3542 0.9761,0.6666 1.502,0.9393 m 0,0 c 0.9173,0.475601 1.9007,0.8301 2.9141,1.027701 m 0,0 c 1.0134,0.197499 2.0568,0.238001 3.0871,0.138899 m 0,0 c 1.1797,-0.1134 2.3421,-0.409798 3.4307,-0.866601 m 0,0 c 0.6638,-0.278598 1.3003,-0.616799 1.9281,-0.968598 m 0,0 c 0.6387,-0.357801 1.2685,-0.7296 1.8983,-1.101502" />
    <path
       inkscape:connector-curvature="0"
       id="path5392"
       qs:layer="0"
       style="fill:none;stroke:#000000;stroke-width:1.41111112;stroke-linecap:round;stroke-linejoin:round;stroke-miterlimit:4;stroke-dasharray:none;display:inline"
       d="m 197.93973,19.196987 c 0.7369,-0.3339 1.4737,-0.6679 2.2302,-0.956 m 0,0 c 0.7747,-0.295 1.57,-0.542 2.384,-0.6996 m 0,0 c 1.4553,-0.2817 2.9704,-0.2776 4.4416,-0.042 m 0,0 c 1.3842,0.2212 2.7296,0.647 3.9848,1.2598 m 0,0 c 1.2554,0.6129 2.4207,1.4129 3.4494,2.3603 m 0,0 c 0.562,0.5176 1.0832,1.0791 1.536,1.6897 m 0,0 c 0.431,0.5813 0.8001,1.2071 1.1692,1.832899" />
    <path
       inkscape:connector-curvature="0"
       id="path5398"
       qs:layer="0"
       style="fill:none;stroke:#000000;stroke-width:1.41111112;stroke-linecap:round;stroke-linejoin:round;stroke-miterlimit:4;stroke-dasharray:none;display:inline"
       d="m 206.85243,27.235886 c 1.6744,-0.509 3.3488,-1.0179 5.0428,-1.4491 m 0,0 c 1.7315,-0.4407 3.4834,-0.8001 5.2397,-1.1452 m 0,0 c 0.8844,-0.1739 1.77,-0.344099 2.6633,-0.450399 m 0,0 c 0.7859,-0.093 1.5777,-0.1374 2.3695,-0.1814" />
    <path
       inkscape:connector-curvature="0"
       id="path5404"
       qs:layer="0"
       style="fill:none;stroke:#000000;stroke-width:1.41111112;stroke-linecap:round;stroke-linejoin:round;stroke-miterlimit:4;stroke-dasharray:none;display:inline"
       d="m 191.27623,39.132886 c 0.6198,-0.315301 1.2395,-0.630501 1.851,-0.961099 m 0,0 c 0.6602,-0.356802 1.3107,-0.731402 1.9695,-1.091201 m 0,0 c 1.4109,-0.770599 2.8595,-1.473101 4.3321,-2.118199 m 0,0 c 1.5054,-0.6595 3.0357,-1.258901 4.5661,-1.858301" />
    <path
       inkscape:connector-curvature="0"
       id="path5410"
       qs:layer="0"
       style="fill:none;stroke:#000000;stroke-width:1.41111112;stroke-linecap:round;stroke-linejoin:round;stroke-miterlimit:4;stroke-dasharray:none;display:inline"
       d="m 193.28413,33.125684 c 1.3694,-0.7366 2.7388,-1.473098 4.1399,-2.142998 m 0,0 c 1.6499,-0.789 3.3438,-1.4856 5.0376,-2.1821" />
    <path
       inkscape:connector-curvature="0"
       id="path5416"
       qs:layer="0"
       style="fill:none;stroke:#000000;stroke-width:1.41111112;stroke-linecap:round;stroke-linejoin:round;stroke-miterlimit:4;stroke-dasharray:none;display:inline"
       d="m 197.93973,19.196987 c 0.7819,1.4711 1.5637,2.9422 2.2869,4.4423 m 0,0 c 0.8141,1.688699 1.5539,3.414099 2.235,5.161299 m 0,0 c 0.2781,0.7133 0.5465,1.4302 0.8032,2.1512 m 0,0 c 0.2542,0.7136 0.497,1.4312 0.7301,2.1523 m 0,0 c 0.5055,1.564101 0.9648,3.1441 1.3531,4.740698 m 0,0 c 0.3799,1.561601 0.6918,3.139 1.0037,4.716402" />
    <path
       inkscape:connector-curvature="0"
       id="path5422"
       qs:layer="0"
       style="fill:none;stroke:#000000;stroke-width:1.41111112;stroke-linecap:round;stroke-linejoin:round;stroke-miterlimit:4;stroke-dasharray:none;display:inline"
       d="m 199.94763,13.189787 c 0.7559,-0.1709 1.5117,-0.3419 2.2775,-0.4471 m 0,0 c 0.7317,-0.1006 1.4725,-0.141 2.2132,-0.1389 m 0,0 c 1.4966,0 2.9933,0.1825 4.4489,0.5293 m 0,0 c 1.42,0.3382 2.8011,0.8369 4.1137,1.476 m 0,0 c 1.3128,0.6393 2.5571,1.419 3.6992,2.3284 m 0,0 c 1.1705,0.9321 2.2335,2.0003 3.1597,3.1757 m 0,0 c 0.4585,0.5819 0.8834,1.19 1.2555,1.828 m 0,0 c 0.3894,0.6677 0.7209,1.3682 1.0524,2.0686" />
    <path
       inkscape:connector-curvature="0"
       id="path5428"
       qs:layer="0"
       style="fill:none;stroke:#000000;stroke-width:1.41111112;stroke-linecap:round;stroke-linejoin:round;stroke-miterlimit:4;stroke-dasharray:none;display:inline"
       d="m 202.55393,17.541387 c 0.7989,1.6001 1.5978,3.2003 2.3299,4.8312 m 0,0 c 0.7161,1.5954 1.3682,3.220299 1.9686,4.863299 m 0,0 c 0.5333,1.4597 1.0258,2.9338 1.4758,4.4214 m 0,0 c 0.5301,1.752099 1.0014,3.5231 1.3888,5.311399 m 0,0 c 0.3289,1.518499 0.5974,3.049501 0.8658,4.5805" />
    <path
       inkscape:connector-curvature="0"
       id="path5434"
       qs:layer="0"
       style="fill:none;stroke:#000000;stroke-width:1.41111112;stroke-linecap:round;stroke-linejoin:round;stroke-miterlimit:4;stroke-dasharray:none;display:inline"
       d="m 208.32823,31.657286 c 1.8065,-0.5067 3.613,-1.0135 5.4414,-1.4233 m 0,0 c 1.6242,-0.364 3.2658,-0.6516 4.9073,-0.9391" />
    <path
       inkscape:connector-curvature="0"
       id="path5440"
       qs:layer="0"
       style="fill:none;stroke:#000000;stroke-width:1.41111112;stroke-linecap:round;stroke-linejoin:round;stroke-miterlimit:4;stroke-dasharray:none;display:inline"
       d="m 191.27623,39.132886 c 0.3052,0.527998 0.6104,1.056098 0.948,1.563 m 0,0 c 0.3048,0.457799 0.636,0.898398 0.988,1.322299 m 0,0 c 0.6632,0.7985 1.4003,1.5379 2.2131,2.183799 m 0,0 c 0.7486,0.5948 1.5612,1.1102 2.421,1.528902 m 0,0 c 0.8599,0.4187 1.7669,0.740698 2.6968,0.963199 m 0,0 c 1.0096,0.241501 2.0462,0.3658 3.0836,0.395399 m 0,0 c 0.5508,0.016 1.1019,0 1.6502,-0.038 m 0,0 c 0.6073,-0.047 1.2112,-0.132201 1.8151,-0.217602" />
    <path
       inkscape:connector-curvature="0"
       id="path5446"
       qs:layer="0"
       style="fill:none;stroke:#000000;stroke-width:1.41111112;stroke-linecap:round;stroke-linejoin:round;stroke-miterlimit:4;stroke-dasharray:none;display:inline"
       d="m 195.09673,37.080586 c 0.3232,0.4974 0.6463,0.994898 1.0118,1.460201 m 0,0 c 0.3644,0.463998 0.7708,0.896098 1.2085,1.295298 m 0,0 c 0.7634,0.696302 1.6219,1.292699 2.5499,1.7452 m 0,0 c 0.9281,0.452501 1.9257,0.761001 2.9466,0.9313 m 0,0 c 1.169,0.195001 2.3685,0.208799 3.5382,0.049 m 0,0 c 0.7132,-0.098 1.4154,-0.260201 2.1128,-0.437899 m 0,0 c 0.7094,-0.1808 1.4138,-0.377399 2.1183,-0.574099" />
    <path
       inkscape:connector-curvature="0"
       id="path5452"
       qs:layer="0"
       style="fill:none;stroke:#000000;stroke-width:1.41111112;stroke-linecap:round;stroke-linejoin:round;stroke-miterlimit:4;stroke-dasharray:none;display:inline"
       d="m 218.67693,29.294886 c 0.7981,-0.1324 1.5961,-0.2648 2.4014,-0.3478 m 0,0 c 0.8246,-0.085 1.6567,-0.1183 2.4838,-0.06 m 0,0 c 1.4787,0.1036 2.9414,0.4988 4.302,1.1058 m 0,0 c 1.2801,0.5711 2.4699,1.3297 3.5244,2.2459 m 0,0 c 1.0546,0.916199 1.9738,1.990001 2.723,3.170799 m 0,0 c 0.4093,0.645199 0.7678,1.3222 1.04759,2.029 m 0,0 c 0.26641,0.6729 0.46131,1.372799 0.65631,2.0726" />
    <path
       inkscape:connector-curvature="0"
       id="path5458"
       qs:layer="0"
       style="fill:none;stroke:#000000;stroke-width:1.41111112;stroke-linecap:round;stroke-linejoin:round;stroke-miterlimit:4;stroke-dasharray:none;display:inline"
       d="m 225.21173,39.362386 c 1.7491,-0.059 3.4982,-0.118801 5.246,-0.098 m 0,0 c 1.7866,0.021 3.5719,0.126501 5.3577,0.2464 m 0,0 c 0.8994,0.061 1.7989,0.124601 2.6893,0.2526 m 0,0 c 0.7834,0.112601 1.5597,0.2746 2.336,0.436601" />
    <path
       inkscape:connector-curvature="0"
       id="path5464"
       qs:layer="0"
       style="fill:none;stroke:#000000;stroke-width:1.41111112;stroke-linecap:round;stroke-linejoin:round;stroke-miterlimit:4;stroke-dasharray:none;display:inline"
       d="m 207.09203,46.834285 c 0.6801,-0.144599 1.3603,-0.2891 2.0364,-0.4505 m 0,0 c 0.7299,-0.174301 1.4551,-0.3683 2.1844,-0.545801 m 0,0 c 1.562,-0.380199 3.1429,-0.684798 4.7321,-0.9278 m 0,0 c 1.6246,-0.248398 3.2579,-0.432398 4.8911,-0.616399" />
    <path
       inkscape:connector-curvature="0"
       id="path5470"
       qs:layer="0"
       style="fill:none;stroke:#000000;stroke-width:1.41111112;stroke-linecap:round;stroke-linejoin:round;stroke-miterlimit:4;stroke-dasharray:none;display:inline"
       d="m 210.58283,41.549185 c 1.5132,-0.357999 3.0263,-0.716 4.5528,-1.0014 m 0,0 c 1.7978,-0.3362 3.614,-0.571799 5.4303,-0.807399" />
    <path
       inkscape:connector-curvature="0"
       id="path5476"
       qs:layer="0"
       style="fill:none;stroke:#000000;stroke-width:1.41111112;stroke-linecap:round;stroke-linejoin:round;stroke-miterlimit:4;stroke-dasharray:none;display:inline"
       d="m 218.67693,29.294886 c 0.3755,1.6231 0.751,3.246201 1.0623,4.882099 m 0,0 c 0.3505,1.841601 0.6197,3.6996 0.8267,5.563401 m 0,0 c 0.0845,0.7609 0.1586,1.522699 0.2205,2.2856 m 0,0 c 0.0613,0.754998 0.1106,1.511099 0.1496,2.267799 m 0,0 c 0.0845,1.6416 0.1203,3.286599 0.0832,4.929401 m 0,0 c -0.0362,1.6067 -0.1422,3.211099 -0.2481,4.815499" />
    <path
       inkscape:connector-curvature="0"
       id="path5482"
       qs:layer="0"
       style="fill:none;stroke:#000000;stroke-width:1.41111112;stroke-linecap:round;stroke-linejoin:round;stroke-miterlimit:4;stroke-dasharray:none;display:inline"
       d="m 222.16773,24.009787 c 0.7744,0.03 1.5487,0.06 2.3157,0.156 m 0,0 c 0.7329,0.092 1.459,0.243999 2.1741,0.437399 m 0,0 c 1.4447,0.3905 2.8446,0.9491 4.1614,1.66 m 0,0 c 1.2845,0.6934 2.49,1.5317 3.5931,2.4881 m 0,0 c 1.1032,0.9565 2.104,2.0311 2.9725,3.2046 m 0,0 c 0.8902,1.202601 1.64139,2.509101 2.2327,3.8838 m 0,0 c 0.2927,0.6805 0.5462,1.377699 0.7409,2.090098 m 0,0 c 0.2039,0.745702 0.3432,1.508001 0.4826,2.2703" />
    <path
       inkscape:connector-curvature="0"
       id="path5488"
       qs:layer="0"
       style="fill:none;stroke:#000000;stroke-width:1.41111112;stroke-linecap:round;stroke-linejoin:round;stroke-miterlimit:4;stroke-dasharray:none;display:inline"
       d="m 223.56213,28.886786 c 0.3586,1.7521 0.7173,3.504299 1.0035,5.268998 m 0,0 c 0.2799,1.726102 0.4904,3.464301 0.6461,5.206602 m 0,0 c 0.1384,1.547899 0.2336,3.0991 0.2843,4.652499 m 0,0 c 0.0597,1.829601 0.0577,3.6622 -0.0298,5.489899 m 0,0 c -0.0743,1.552 -0.2102,3.100401 -0.3461,4.648802" />
    <path
       inkscape:connector-curvature="0"
       id="path5494"
       qs:layer="0"
       style="fill:none;stroke:#000000;stroke-width:1.41111112;stroke-linecap:round;stroke-linejoin:round;stroke-miterlimit:4;stroke-dasharray:none;display:inline"
       d="m 225.49603,44.014885 c 1.876,-0.023 3.7521,-0.046 5.6243,0.03 m 0,0 c 1.6632,0.068 3.3233,0.213699 4.9834,0.359701" />
    <path
       inkscape:connector-curvature="0"
       id="path5500"
       qs:layer="0"
       style="fill:none;stroke:#000000;stroke-width:1.41111112;stroke-linecap:round;stroke-linejoin:round;stroke-miterlimit:4;stroke-dasharray:none;display:inline"
       d="m 207.09203,46.834285 c 0.1585,0.588899 0.317,1.177899 0.5122,1.754801 m 0,0 c 0.1763,0.520999 0.3825,1.032098 0.6132,1.5326 m 0,0 c 0.4344,0.942599 0.9557,1.847299 1.5742,2.681099 m 0,0 c 0.5696,0.767899 1.2216,1.475698 1.9441,2.102099 m 0,0 c 0.7226,0.626601 1.5157,1.171801 2.3567,1.626901 m 0,0 c 0.913,0.493999 1.8823,0.881699 2.8769,1.178199 m 0,0 c 0.5281,0.157401 1.0633,0.2891 1.604,0.389701 m 0,0 c 0.5988,0.1115 1.2043,0.184999 1.8097,0.258399" />
    <path
       inkscape:connector-curvature="0"
       id="path5506"
       qs:layer="0"
       style="fill:none;stroke:#000000;stroke-width:1.41111112;stroke-linecap:round;stroke-linejoin:round;stroke-miterlimit:4;stroke-dasharray:none;display:inline"
       d="m 211.31283,45.837984 c 0.1838,0.5641 0.3676,1.128101 0.6005,1.672 m 0,0 c 0.2322,0.5424 0.5133,1.0647 0.8331,1.563401 m 0,0 c 0.5577,0.869801 1.2331,1.667699 2.0128,2.3444 m 0,0 c 0.7798,0.6768 1.6639,1.2324 2.6063,1.6605 m 0,0 c 1.0789,0.4902 2.2342,0.813198 3.4056,0.9604 m 0,0 c 0.7143,0.09 1.4346,0.114201 2.1542,0.1226 m 0,0 c 0.732,0.01 1.4634,2.82e-4 2.1948,-0.01" />
    <path
       inkscape:connector-curvature="0"
       id="path5512"
       qs:layer="0"
       style="fill:none;stroke:#000000;stroke-width:1.41111112;stroke-linecap:round;stroke-linejoin:round;stroke-miterlimit:4;stroke-dasharray:none;display:inline"
       d="m 240.92862,45.271685 c -0.0763,1.361299 -0.1526,2.7227 -0.26709,4.081501 m 0,0 c -0.15431,1.830499 -0.378,3.656299 -0.67871,5.4682 m 0,0 c -0.30949,1.864797 -0.70069,3.714798 -1.09189,5.564798" />
    <path
       inkscape:connector-curvature="0"
       id="path5518"
       qs:layer="0"
       style="fill:none;stroke:#000000;stroke-width:1.41111112;stroke-linecap:round;stroke-linejoin:round;stroke-miterlimit:4;stroke-dasharray:none;display:inline"
       d="m 238.89093,60.386184 c -1.8052,-0.384499 -3.6105,-0.769101 -5.4309,-1.0645 m 0,0 c -1.6868,-0.273699 -3.3867,-0.471 -5.0904,-0.619901 m 0,0 c -1.2154,-0.1062 -2.4327,-0.187799 -3.6517,-0.216399 m 0,0 c -0.783,-0.01801 -1.5666,-0.01499 -2.3495,-0.036 m 0,0 c -0.6621,-0.01801 -1.3238,-0.055 -1.9854,-0.091" />
    <path
       inkscape:connector-curvature="0"
       id="path5524"
       qs:layer="0"
       style="fill:none;stroke:#000000;stroke-width:1.41111112;stroke-linecap:round;stroke-linejoin:round;stroke-miterlimit:4;stroke-dasharray:none;display:inline"
       d="m 235.23173,54.983584 c -1.6972,-0.227601 -3.3943,-0.455199 -5.0987,-0.593801 m 0,0 c -1.6663,-0.135399 -3.3396,-0.185798 -5.0129,-0.236197" />
    <path
       inkscape:connector-curvature="0"
       id="path5530"
       qs:layer="0"
       style="fill:none;stroke:#000000;stroke-width:1.41111112;stroke-linecap:round;stroke-linejoin:round;stroke-miterlimit:4;stroke-dasharray:none;display:inline"
       d="m 236.10373,44.404586 c -0.0579,1.790499 -0.1159,3.5809 -0.2642,5.363898 m 0,0 c -0.145,1.743101 -0.3764,3.479101 -0.6078,5.2151" />
    <path
       inkscape:connector-curvature="0"
       id="path5536"
       qs:layer="0"
       style="fill:none;stroke:#000000;stroke-width:1.41111112;stroke-linecap:round;stroke-linejoin:round;stroke-miterlimit:4;stroke-dasharray:none;display:inline"
       d="m 240.84073,40.200084 c 0.8415,0.268201 1.68299,0.5364 2.4957,0.877302 m 0,0 c 2.17069,0.910398 4.13569,2.3391 5.7971,4.0402 m 0,0 c 1.7095,1.7503 3.0977,3.789099 4.07721,6.0196 m 0,0 c 0.95187,2.167899 1.51767,4.516998 1.60099,6.882398 m 0,0 c 0.0589,1.676299 -0.12449,3.360801 -0.57249,4.9747 m 0,0 c -0.42421,1.5282 -1.08551,2.993198 -1.97361,4.3111 m 0,0 c -1.13561,1.685098 -2.6418,3.129799 -4.3518,4.221099 m 0,0 c -0.85111,0.5431 -1.7526,0.998801 -2.6865,1.3737 m 0,0 c -0.9336,0.374799 -1.8996,0.6689 -2.88321,0.886499 m 0,0 c -1.94399,0.43 -3.9569,0.560801 -5.9462,0.430601 m 0,0 c -1.43859,-0.094 -2.86489,-0.324999 -4.25529,-0.6939 m 0,0 c -1.3084,-0.347201 -2.5851,-0.8167 -3.7981,-1.4272 m 0,0 c -1.4882,-0.748999 -2.8806,-1.710101 -4.0461,-2.899199 m 0,0 c -1.1119,-1.134401 -2.0174,-2.476099 -2.6629,-3.931499 m 0,0 c -0.6766,-1.525702 -1.0675,-3.1762 -1.191,-4.833002 m 0,0 c -0.0515,-0.6907 -0.0565,-1.382599 -0.0615,-2.074399" />
    <path
       inkscape:connector-curvature="0"
       id="path5542"
       qs:layer="0"
       style="fill:none;stroke:#000000;stroke-width:1.41111112;stroke-linecap:round;stroke-linejoin:round;stroke-miterlimit:4;stroke-dasharray:none;display:inline"
       d="m 236.10373,44.404586 c 0.8053,0.078 1.6105,0.1563 2.40979,0.284099 m 0,0 c 0.81841,0.130801 1.63041,0.313599 2.4151,0.583 m 0,0 c 1.91041,0.6558 3.65841,1.824601 5.08171,3.280899 m 0,0 c 1.1966,1.2245 2.16379,2.652302 2.85198,4.2108 m 0,0 c 0.6731,1.524401 1.07942,3.1739 1.15751,4.837701 m 0,0 c 0.0562,1.1957 -0.0572,2.398898 -0.35089,3.557598 m 0,0 c -0.282,1.112602 -0.73011,2.184199 -1.33641,3.161501 m 0,0 c -0.7835,1.263001 -1.8311,2.368499 -3.03709,3.233 m 0,0 c -0.6015,0.431198 -1.2424,0.802499 -1.91041,1.115901 m 0,0 c -0.66789,0.313399 -1.36289,0.568999 -2.0747,0.767297 m 0,0 c -1.40989,0.392803 -2.8857,0.5611 -4.35069,0.518801 m 0,0 c -1.0702,-0.031 -2.1347,-0.174301 -3.1719,-0.430401 m 0,0 c -0.9926,-0.2452 -1.9602,-0.593699 -2.87621,-1.053597 m 0,0 c -1.15139,-0.5782 -2.22129,-1.332402 -3.12029,-2.255201 m 0,0 c -0.8709,-0.8939 -1.5814,-1.945801 -2.0913,-3.087701 m 0,0 c -0.5265,-1.178898 -0.839,-2.453699 -0.9367,-3.7345 m 0,0 c -0.0231,-0.302598 -0.0342,-0.605499 -0.0453,-0.908399" />
  </g>
</svg>
