<?xml version="1.0" encoding="UTF-8" standalone="no"?>
<!-- 2019-08-30 11:23:15 Generated by QCAD 3.23.0 SVG Exporter -->

<svg
   xmlns:qs="http://qcad.org/namespaces/svg"
   xmlns:dc="http://purl.org/dc/elements/1.1/"
   xmlns:cc="http://creativecommons.org/ns#"
   xmlns:rdf="http://www.w3.org/1999/02/22-rdf-syntax-ns#"
   xmlns:svg="http://www.w3.org/2000/svg"
   xmlns="http://www.w3.org/2000/svg"
   xmlns:sodipodi="http://sodipodi.sourceforge.net/DTD/sodipodi-0.dtd"
   xmlns:inkscape="http://www.inkscape.org/namespaces/inkscape"
   width="1200"
   height="640"
   viewBox="-53.9875 -30.073 338.66667 180.62222"
   version="1.1"
   style="fill:none;stroke-linecap:round;stroke-linejoin:round"
   id="svg2"
   inkscape:version="0.48.5 r10040"
   sodipodi:docname="CelticMeanderRounded.svg">
  <metadata
     id="metadata138">
    <rdf:RDF>
      <cc:Work
         rdf:about="">
        <dc:format>image/svg+xml</dc:format>
        <dc:type
           rdf:resource="http://purl.org/dc/dcmitype/StillImage" />
        <dc:title></dc:title>
      </cc:Work>
    </rdf:RDF>
  </metadata>
  <defs
     id="defs136" />
  <sodipodi:namedview
     pagecolor="#ffffff"
     bordercolor="#666666"
     borderopacity="1"
     objecttolerance="10"
     gridtolerance="10"
     guidetolerance="10"
     inkscape:pageopacity="0"
     inkscape:pageshadow="2"
     inkscape:window-width="1920"
     inkscape:window-height="1018"
     id="namedview134"
     showgrid="false"
     inkscape:zoom="1"
     inkscape:cx="600"
     inkscape:cy="320"
     inkscape:window-x="-8"
     inkscape:window-y="-8"
     inkscape:window-maximized="1"
     inkscape:current-layer="layer11"
     fit-margin-top="10"
     fit-margin-left="10"
     fit-margin-right="10"
     fit-margin-bottom="10"
     borderlayer="false" />
  <g
     inkscape:groupmode="layer"
     id="layer11"
     inkscape:label="REF"
     style="display:none">
    <path
       style="fill:none;stroke:#ff00ff;stroke-width:0.28222221px;stroke-linecap:butt;stroke-linejoin:miter;stroke-opacity:1"
       d="M -53.53274,-30.06969 -32.706733,70.683153 -53.53274,150.32856"
       id="path28085"
       inkscape:connector-curvature="0"
       sodipodi:nodetypes="ccc" />
  </g>
  <g
     inkscape:groupmode="layer"
     id="layer1"
     inkscape:label="BaseLine"
     style="display:inline">
    <line
       id="line46"
       qs:layer="layer 2"
       style="fill:none;stroke:#ff0000;stroke-width:1.41111112;stroke-linecap:round;stroke-linejoin:round;stroke-miterlimit:4;stroke-dasharray:none;display:inline"
       y2="71.154953"
       x2="40.747795"
       y1="71.154953"
       x1="-35.570625" />
    <path
       inkscape:connector-curvature="0"
       id="path48"
       qs:layer="layer 2"
       style="fill:none;stroke:#ff0000;stroke-width:1.41111112;stroke-linecap:round;stroke-linejoin:round;stroke-miterlimit:4;stroke-dasharray:none;display:inline"
       d="m 40.747789,71.154812 a 81.228298,81.228298 0 0 0 41.7917,-11.575598" />
    <path
       inkscape:connector-curvature="0"
       id="path52"
       qs:layer="layer 2"
       style="fill:none;stroke:#ff0000;stroke-width:1.41111112;stroke-linecap:round;stroke-linejoin:round;stroke-miterlimit:4;stroke-dasharray:none;display:inline"
       d="M 125.18239,33.993415 A 81.228298,81.228298 0 0 1 246.94398,89.404111" />
    <line
       id="line50"
       qs:layer="layer 2"
       style="fill:none;stroke:#ff0000;stroke-width:1.41111112;stroke-linecap:round;stroke-linejoin:round;stroke-miterlimit:4;stroke-dasharray:none;display:inline"
       y2="33.993336"
       x2="125.18237"
       y1="59.579273"
       x1="82.539474" />
  </g>
  <g
     inkscape:groupmode="layer"
     id="layer5"
     inkscape:label="Constructors"
     style="display:inline">
    <line
       id="line438"
       qs:layer="layer 1"
       style="fill:none;stroke:#0000ff;stroke-width:0.56444442;stroke-linecap:round;stroke-linejoin:round;stroke-miterlimit:4;stroke-dasharray:none;display:inline"
       y2="105.77019"
       x2="-35.570625"
       y1="36.539234"
       x1="-35.570625" />
    <line
       id="line544"
       qs:layer="layer 1"
       style="fill:none;stroke:#0000ff;stroke-width:0.56444442;stroke-linecap:round;stroke-linejoin:round;stroke-miterlimit:4;stroke-dasharray:none;display:inline"
       y2="105.77019"
       x2="-15.873327"
       y1="36.539234"
       x1="-15.873327" />
    <line
       id="line546"
       qs:layer="layer 1"
       style="fill:none;stroke:#0000ff;stroke-width:0.56444442;stroke-linecap:round;stroke-linejoin:round;stroke-miterlimit:4;stroke-dasharray:none;display:inline"
       y2="105.77019"
       x2="5.339777"
       y1="36.539234"
       x1="5.339777" />
    <line
       id="line548"
       qs:layer="layer 1"
       style="fill:none;stroke:#0000ff;stroke-width:0.56444442;stroke-linecap:round;stroke-linejoin:round;stroke-miterlimit:4;stroke-dasharray:none;display:inline"
       y2="105.77019"
       x2="26.552914"
       y1="36.539234"
       x1="26.552914" />
    <line
       id="line550"
       qs:layer="layer 1"
       style="fill:none;stroke:#0000ff;stroke-width:0.56444442;stroke-linecap:round;stroke-linejoin:round;stroke-miterlimit:4;stroke-dasharray:none;display:inline"
       y2="105.33805"
       x2="50.744255"
       y1="36.365406"
       x1="44.770195" />
    <line
       id="line552"
       qs:layer="layer 1"
       style="fill:none;stroke:#0000ff;stroke-width:0.56444442;stroke-linecap:round;stroke-linejoin:round;stroke-miterlimit:4;stroke-dasharray:none;display:inline"
       y2="98.843925"
       x2="80.203972"
       y1="33.752613"
       x1="56.624077" />
    <line
       id="line558"
       qs:layer="layer 1"
       style="fill:none;stroke:#0000ff;stroke-width:0.56444442;stroke-linecap:round;stroke-linejoin:round;stroke-miterlimit:4;stroke-dasharray:none;display:inline"
       y2="88.831703"
       x2="211.1701"
       y1="66.828773"
       x1="276.81137" />
    <line
       id="line564"
       qs:layer="layer 1"
       style="fill:none;stroke:#0000ff;stroke-width:0.56444442;stroke-linecap:round;stroke-linejoin:round;stroke-miterlimit:4;stroke-dasharray:none;display:inline"
       y2="78.652512"
       x2="206.3197"
       y1="41.531422"
       x1="264.75705" />
  </g>
  <g
     inkscape:groupmode="layer"
     id="layer2"
     inkscape:label="Painters"
     style="display:inline">
    <path
       inkscape:connector-curvature="0"
       id="path2656"
       qs:layer="0"
       style="fill:none;stroke:#000000;stroke-width:1.41111112;stroke-linecap:round;stroke-linejoin:round;stroke-miterlimit:4;stroke-dasharray:none;display:inline"
       d="m -15.873311,78.497913 c -0.193,-0.294601 -0.3861,-0.589201 -0.5654,-0.8927 m 0,0 c -0.7602,-1.286801 -1.2731,-2.733001 -1.5323,-4.2104 m 0,0 c -0.13,-0.741401 -0.1961,-1.490701 -0.1961,-2.240001 m 0,0 c 0,-0.7493 0.0661,-1.4986 0.1961,-2.24 m 0,0 c 0.2592,-1.4774 0.7721,-2.9236 1.5323,-4.210397 m 0,0 c 0.1793,-0.303502 0.3724,-0.598103 0.5654,-0.8927" />
    <path
       inkscape:connector-curvature="0"
       id="path2662"
       qs:layer="0"
       style="fill:none;stroke:#000000;stroke-width:1.41111112;stroke-linecap:round;stroke-linejoin:round;stroke-miterlimit:4;stroke-dasharray:none;display:inline"
       d="m -19.136711,81.507514 c -0.3895,-0.5558 -0.7789,-1.111501 -1.1296,-1.692701 m 0,0 c -1.038,-1.719899 -1.737,-3.662099 -2.0977,-5.645399 m 0,0 c -0.1814,-0.997201 -0.2773,-2.004802 -0.2858,-3.014602 m 0,0 c -0.009,-1.0111 0.0704,-2.024498 0.2423,-3.022298 m 0,0 c 0.3431,-1.9918 1.0562,-3.921701 2.0312,-5.701202 m 0,0 c 0.3631,-0.662799 0.7626,-1.304798 1.2396,-1.882998 m 0,0 c 0.4882,-0.591902 1.0578,-1.1169 1.6319,-1.632001 m 0,0 c 0.5411,-0.485399 1.0863,-0.961901 1.6315,-1.438399" />
    <path
       inkscape:connector-curvature="0"
       id="path2668"
       qs:layer="0"
       style="fill:none;stroke:#000000;stroke-width:1.41111112;stroke-linecap:round;stroke-linejoin:round;stroke-miterlimit:4;stroke-dasharray:none;display:inline"
       d="m -15.873311,78.497913 c -0.5259,0.563499 -1.0519,1.126899 -1.6315,1.631899 m 0,0 c -0.5365,0.467301 -1.1189,0.8846 -1.6319,1.377702 m 0,0 c -0.2514,0.241599 -0.4861,0.501497 -0.7454,0.734599 m 0,0 c -0.5787,0.5202 -1.2799,0.907401 -2.0196,1.172698 m 0,0 c -0.7402,0.265501 -1.5189,0.408802 -2.3004,0.412301 m 0,0 c -0.7824,0 -1.5676,-0.1332 -2.3054,-0.399601 m 0,0 c -0.7384,-0.266598 -1.4293,-0.663098 -2.0308,-1.165798 m 0,0 c -0.602,-0.503002 -1.1145,-1.112401 -1.51,-1.7923 m 0,0 c -0.3957,-0.680201 -0.6743,-1.430999 -0.8038,-2.202699 m 0,0 c -0.0651,-0.387401 -0.0925,-0.780102 -0.1031,-1.172701 m 0,0 c -0.0106,-0.392399 -0.004,-0.784601 0,-1.176901 m 0,0 c 0.0172,-1.587198 10e-5,-3.1748 0,-4.7623 m 0,0 c -10e-5,-1.587398 0.0169,-3.174799 0,-4.761899 m 0,0 c -0.004,-0.392399 -0.0104,-0.7848 0,-1.177301 m 0,0 c 0.0104,-0.392498 0.0374,-0.785199 0.1015,-1.172698 m 0,0 c 0.1279,-0.772801 0.4031,-1.5252 0.7943,-2.2089 m 0,0 c 0.3919,-0.685001 0.9002,-1.301101 1.4988,-1.812702 m 0,0 c 0.6004,-0.512998 1.2915,-0.920798 2.0316,-1.199199 m 0,0 c 0.7426,-0.2794 1.5346,-0.4283 2.3269,-0.4369 m 0,0 c 0.7955,-0.01 1.5914,0.124201 2.3454,0.386902 m 0,0 c 0.7566,0.263598 1.471,0.657998 2.0773,1.172698 m 0,0 c 0.224,0.190201 0.4334,0.396802 0.6427,0.603501" />
    <path
       inkscape:connector-curvature="0"
       id="path2674"
       qs:layer="0"
       style="fill:none;stroke:#000000;stroke-width:1.41111112;stroke-linecap:round;stroke-linejoin:round;stroke-miterlimit:4;stroke-dasharray:none;display:inline"
       d="m -15.873311,84.831713 c -0.3329,0.3321 -0.6658,0.6641 -1.0215,0.9712 m 0,0 c -0.9964,0.860098 -2.1719,1.524099 -3.4192,1.973801 m 0,0 c -1.2474,0.449698 -2.5668,0.685097 -3.8881,0.6858 m 0,0 c -1.3213,5.64e-4 -2.6446,-0.233201 -3.8881,-0.6858 m 0,0 c -1.2436,-0.452603 -2.4073,-1.123902 -3.4196,-1.973801 m 0,0 c -1.0123,-0.849901 -1.8732,-1.878301 -2.5377,-3.024601 m 0,0 c -0.6645,-1.1464 -1.1327,-2.410601 -1.3504,-3.71 m 0,0 c -0.1092,-0.6523 -0.1554,-1.313499 -0.1727,-1.974299 m 0,0 c -0.0173,-0.6607 -0.006,-1.3211 0,-1.9815 m 0,0 c 0.0115,-1.319101 0,-2.638399 0,-3.957701 m 0,0 c 0,-1.319298 0.0115,-2.6386 0,-3.957698 m 0,0 c -0.006,-0.6604 -0.0173,-1.3208 0,-1.981502 m 0,0 c 0.0173,-0.660798 0.0635,-1.321999 0.1727,-1.9743 m 0,0 c 0.2177,-1.299399 0.6859,-2.563599 1.3504,-3.71 m 0,0 c 0.6645,-1.146299 1.5254,-2.1747 2.5377,-3.024598 m 0,0 c 1.0123,-0.849901 2.176,-1.5212 3.4196,-1.9738 m 0,0 c 1.2435,-0.4526 2.5668,-0.6865 3.8881,-0.6858 m 0,0 c 1.3213,5.64e-4 2.6407,0.236098 3.8881,0.6858 m 0,0 c 1.2473,0.449698 2.4228,1.1137 3.4192,1.9738 m 0,0 c 0.3557,0.3071 0.6886,0.639101 1.0215,0.9712" />
    <path
       inkscape:connector-curvature="0"
       id="path2800"
       qs:layer="0"
       style="fill:none;stroke:#000000;stroke-width:1.41111112;stroke-linecap:round;stroke-linejoin:round;stroke-miterlimit:4;stroke-dasharray:none;display:inline"
       d="m -15.873311,63.811715 c 0.5361,-0.551601 1.0721,-1.103303 1.632,-1.631902 m 0,0 c 0.562,-0.5307 1.1482,-1.038098 1.7811,-1.481899 m 0,0 c 1.0886,-0.763301 2.315599,-1.338599 3.5968985,-1.715002 m 0,0 c 1.1685,-0.343298 2.3822,-0.521298 3.5966,-0.520398 m 0,0 c 1.2145001,8.47e-4 2.4297003,0.180899 3.5969004,0.520398 m 0,0 c 0.6502999,0.1891 1.28569985,0.427903 1.8899997,0.7269 m 0,0 c 0.58849995,0.291203 1.1474999,0.6396 1.7064999,0.988102" />
    <path
       inkscape:connector-curvature="0"
       id="path2806"
       qs:layer="0"
       style="fill:none;stroke:#000000;stroke-width:1.41111112;stroke-linecap:round;stroke-linejoin:round;stroke-miterlimit:4;stroke-dasharray:none;display:inline"
       d="m -5.2667125,67.891313 c 1.1971001,-1.200901 2.3942003,-2.4019 3.5969004,-3.5969 m 0,0 c 1.20259985,-1.194799 2.41079965,-2.383699 3.5964996,-3.596499 m 0,0 c 0.5874,-0.6008 1.1692,-1.2074 1.7816,-1.781601 m 0,0 c 0.5286,-0.495599 1.0801,-0.967 1.6315,-1.438399" />
    <path
       inkscape:connector-curvature="0"
       id="path2812"
       qs:layer="0"
       style="fill:none;stroke:#000000;stroke-width:1.41111112;stroke-linecap:round;stroke-linejoin:round;stroke-miterlimit:4;stroke-dasharray:none;display:inline"
       d="m -15.873311,84.831713 c 0.5768,-0.496 1.1536,-0.992101 1.7066,-1.513399 m 0,0 c 0.585,-0.551702 1.1434,-1.131601 1.7065,-1.706601 m 0,0 c 1.1868,-1.2118 2.394499,-2.401299 3.5968985,-3.596502 m 0,0 c 1.2024,-1.1952 2.3995,-2.396097 3.5966,-3.596899" />
    <path
       inkscape:connector-curvature="0"
       id="path2818"
       qs:layer="0"
       style="fill:none;stroke:#000000;stroke-width:1.41111112;stroke-linecap:round;stroke-linejoin:round;stroke-miterlimit:4;stroke-dasharray:none;display:inline"
       d="m -15.873311,78.497913 c 1.1377,-1.1377 2.2754,-2.2754 3.4131,-3.4131 m 0,0 c 1.31,-1.309999 2.6199985,-2.620001 3.9299985,-3.930001" />
    <path
       inkscape:connector-curvature="0"
       id="path2824"
       qs:layer="0"
       style="fill:none;stroke:#000000;stroke-width:1.41111112;stroke-linecap:round;stroke-linejoin:round;stroke-miterlimit:4;stroke-dasharray:none;display:inline"
       d="m -15.873311,63.811715 c 1.1377,1.137699 2.2754,2.275399 3.4131,3.413099 m 0,0 c 1.31,1.31 2.6199985,2.619999 3.9299985,3.929998 m 0,0 c 0.544,0.544001 1.088,1.087902 1.6319,1.6319 m 0,0 c 0.5439,0.543901 1.0877,1.087701 1.6316,1.6316 m 0,0 c 1.1989001,1.198899 2.3979003,2.397901 3.5969004,3.596899 m 0,0 c 1.19879985,1.198801 2.39769965,2.397701 3.5964996,3.596502" />
    <path
       inkscape:connector-curvature="0"
       id="path2830"
       qs:layer="0"
       style="fill:none;stroke:#000000;stroke-width:1.41111112;stroke-linecap:round;stroke-linejoin:round;stroke-miterlimit:4;stroke-dasharray:none;display:inline"
       d="m -15.873311,57.477914 c 0.5596,-0.403899 1.1191,-0.807802 1.7066,-1.167299 m 0,0 c 0.5478,-0.3353 1.12,-0.632 1.7065,-0.897701 m 0,0 c 1.1522,-0.522001 2.359899,-0.924199 3.5968985,-1.188099 m 0,0 c 1.181,-0.251901 2.3888,-0.377701 3.5966,-0.377701 m 0,0 c 1.2079001,0 2.4158003,0.125699 3.5969004,0.377701 m 0,0 c 1.23689985,0.2639 2.44439965,0.666199 3.5964996,1.188099 m 0,0 c 0.5865,0.265701 1.1587,0.562401 1.7066,0.897701 m 0,0 c 0.5874,0.359497 1.147,0.7634 1.7065,1.167299" />
    <path
       inkscape:connector-curvature="0"
       id="path2836"
       qs:layer="0"
       style="fill:none;stroke:#000000;stroke-width:1.41111112;stroke-linecap:round;stroke-linejoin:round;stroke-miterlimit:4;stroke-dasharray:none;display:inline"
       d="m -12.460211,60.697914 c 1.199,1.198799 2.397999,2.3976 3.5968985,3.596499 m 0,0 c 1.1989,1.1989 2.3977,2.398 3.5966,3.5969 m 0,0 c 1.0877001,1.087899 2.1756003,2.175699 3.2634004,3.263499 m 0,0 c 1.30999985,1.31 2.61999965,2.620002 3.9299996,3.930001 m 0,0 c 1.1377,1.1377 2.2754,2.2754 3.4131,3.4131" />
    <path
       inkscape:connector-curvature="0"
       id="path2842"
       qs:layer="0"
       style="fill:none;stroke:#000000;stroke-width:1.41111112;stroke-linecap:round;stroke-linejoin:round;stroke-miterlimit:4;stroke-dasharray:none;display:inline"
       d="m -2.0033121,71.154812 c 1.30999985,-1.309999 2.61999965,-2.619998 3.9299996,-3.929998 m 0,0 c 1.1377,-1.1377 2.2754,-2.2754 3.4131,-3.413099" />
    <path
       inkscape:connector-curvature="0"
       id="path2848"
       qs:layer="0"
       style="fill:none;stroke:#000000;stroke-width:1.41111112;stroke-linecap:round;stroke-linejoin:round;stroke-miterlimit:4;stroke-dasharray:none;display:inline"
       d="m -15.873311,84.831713 c 0.5596,0.4039 1.1191,0.807799 1.7066,1.1673 m 0,0 c 0.5478,0.335299 1.12,0.632 1.7065,0.897701 m 0,0 c 1.1522,0.521998 2.359899,0.924198 3.5968985,1.188099 m 0,0 c 1.181,0.2519 2.3888,0.377701 3.5966,0.377701 m 0,0 c 1.2079001,0 2.4158003,-0.125702 3.5969004,-0.377701 m 0,0 c 1.23689985,-0.263901 2.44439965,-0.6662 3.5964996,-1.188099 m 0,0 c 0.5865,-0.265701 1.1587,-0.562402 1.7066,-0.897701 m 0,0 c 0.5874,-0.359501 1.147,-0.7634 1.7065,-1.1673" />
    <path
       inkscape:connector-curvature="0"
       id="path2854"
       qs:layer="0"
       style="fill:none;stroke:#000000;stroke-width:1.41111112;stroke-linecap:round;stroke-linejoin:round;stroke-miterlimit:4;stroke-dasharray:none;display:inline"
       d="m -12.460211,81.611713 c 0.559,0.348499 1.118,0.6969 1.706499,0.9881 m 0,0 c 0.6045,0.299099 1.2399995,0.537799 1.8903995,0.7269 m 0,0 c 1.1671,0.3394 2.3822,0.519399 3.5966,0.5204 m 0,0 c 1.2145001,0 2.4283003,-0.177001 3.5969004,-0.5204 m 0,0 c 1.28119985,-0.376502 2.50799965,-0.951801 3.5964996,-1.715 m 0,0 c 0.6331,-0.4438 1.2194,-0.951202 1.7816,-1.481901 m 0,0 c 0.5598,-0.528501 1.0956,-1.0802 1.6315,-1.631899" />
    <path
       inkscape:connector-curvature="0"
       id="path2860"
       qs:layer="0"
       style="fill:none;stroke:#000000;stroke-width:1.41111112;stroke-linecap:round;stroke-linejoin:round;stroke-miterlimit:4;stroke-dasharray:none;display:inline"
       d="m 5.3397875,63.811715 c 0.536,-0.551601 1.0721,-1.103303 1.6319005,-1.631902 m 0,0 c 0.5620995,-0.5307 1.1482,-1.038098 1.7811995,-1.481899 m 0,0 c 1.088501,-0.763301 2.3156015,-1.338599 3.5969015,-1.715002 m 0,0 c 1.1685,-0.343298 2.3822,-0.521298 3.5965,-0.520398 m 0,0 c 1.2146,8.47e-4 2.4298,0.180899 3.597,0.520398 m 0,0 c 0.6503,0.1891 1.2856,0.427903 1.89,0.7269 m 0,0 c 0.5884,0.291203 1.1475,0.6396 1.7065,0.988102" />
    <path
       inkscape:connector-curvature="0"
       id="path2866"
       qs:layer="0"
       style="fill:none;stroke:#000000;stroke-width:1.41111112;stroke-linecap:round;stroke-linejoin:round;stroke-miterlimit:4;stroke-dasharray:none;display:inline"
       d="m 15.946289,67.891313 c 1.1971,-1.200901 2.3942,-2.4019 3.597,-3.5969 m 0,0 c 1.2026,-1.194799 2.4108,-2.383699 3.5965,-3.596499 m 0,0 c 0.5873,-0.6008 1.1692,-1.2074 1.7815,-1.781601 m 0,0 c 0.5287,-0.495599 1.0801,-0.967 1.6316,-1.438399" />
    <path
       inkscape:connector-curvature="0"
       id="path2872"
       qs:layer="0"
       style="fill:none;stroke:#000000;stroke-width:1.41111112;stroke-linecap:round;stroke-linejoin:round;stroke-miterlimit:4;stroke-dasharray:none;display:inline"
       d="m 5.3397875,84.831713 c 0.5768,-0.496 1.1536,-0.992101 1.7065005,-1.513399 m 0,0 c 0.5850995,-0.551702 1.1435,-1.131601 1.7065995,-1.706601 m 0,0 c 1.186801,-1.2118 2.3945015,-2.401299 3.5969015,-3.596502 m 0,0 c 1.2024,-1.1952 2.3995,-2.396097 3.5965,-3.596899" />
    <path
       inkscape:connector-curvature="0"
       id="path2878"
       qs:layer="0"
       style="fill:none;stroke:#000000;stroke-width:1.41111112;stroke-linecap:round;stroke-linejoin:round;stroke-miterlimit:4;stroke-dasharray:none;display:inline"
       d="m 5.3397875,78.497913 c 1.1377,-1.1377 2.2754,-2.2754 3.4131,-3.4131 m 0,0 c 1.3100015,-1.309999 2.6200015,-2.620001 3.9300015,-3.930001" />
    <path
       inkscape:connector-curvature="0"
       id="path2884"
       qs:layer="0"
       style="fill:none;stroke:#000000;stroke-width:1.41111112;stroke-linecap:round;stroke-linejoin:round;stroke-miterlimit:4;stroke-dasharray:none;display:inline"
       d="m 5.3397875,63.811715 c 1.1377,1.137699 2.2754,2.275399 3.4131,3.413099 m 0,0 c 1.3100015,1.31 2.6200015,2.619999 3.9300015,3.929998 m 0,0 c 0.544,0.544001 1.0879,1.087902 1.6319,1.6319 m 0,0 c 0.5438,0.543901 1.0877,1.087701 1.6315,1.6316 m 0,0 c 1.199,1.198899 2.398,2.397901 3.597,3.596899 m 0,0 c 1.1988,1.198801 2.3977,2.397701 3.5965,3.596502" />
    <path
       inkscape:connector-curvature="0"
       id="path2890"
       qs:layer="0"
       style="fill:none;stroke:#000000;stroke-width:1.41111112;stroke-linecap:round;stroke-linejoin:round;stroke-miterlimit:4;stroke-dasharray:none;display:inline"
       d="m 5.3397875,57.477914 c 0.5595,-0.403899 1.1191,-0.807802 1.7065005,-1.167299 m 0,0 c 0.5478995,-0.3353 1.1201,-0.632 1.7065995,-0.897701 m 0,0 c 1.152201,-0.522001 2.3598015,-0.924199 3.5969015,-1.188099 m 0,0 c 1.181,-0.251901 2.3888,-0.377701 3.5965,-0.377701 m 0,0 c 1.208,0 2.4159,0.125699 3.597,0.377701 m 0,0 c 1.2369,0.2639 2.4444,0.666199 3.5965,1.188099 m 0,0 c 0.5865,0.265701 1.1587,0.562401 1.7065,0.897701 m 0,0 c 0.5875,0.359497 1.147,0.7634 1.7066,1.167299" />
    <path
       inkscape:connector-curvature="0"
       id="path2896"
       qs:layer="0"
       style="fill:none;stroke:#000000;stroke-width:1.41111112;stroke-linecap:round;stroke-linejoin:round;stroke-miterlimit:4;stroke-dasharray:none;display:inline"
       d="m 8.7528875,60.697914 c 1.199001,1.198799 2.3980015,2.3976 3.5969015,3.596499 m 0,0 c 1.1989,1.1989 2.3977,2.398 3.5965,3.5969 m 0,0 c 1.0878,1.087899 2.1757,2.175699 3.2635,3.263499 m 0,0 c 1.31,1.31 2.62,2.620002 3.93,3.930001 m 0,0 c 1.1377,1.1377 2.2754,2.2754 3.4131,3.4131" />
    <path
       inkscape:connector-curvature="0"
       id="path2902"
       qs:layer="0"
       style="fill:none;stroke:#000000;stroke-width:1.41111112;stroke-linecap:round;stroke-linejoin:round;stroke-miterlimit:4;stroke-dasharray:none;display:inline"
       d="m 19.209789,71.154812 c 1.31,-1.309999 2.62,-2.619998 3.93,-3.929998 m 0,0 c 1.1377,-1.1377 2.2754,-2.2754 3.4131,-3.413099" />
    <path
       inkscape:connector-curvature="0"
       id="path2908"
       qs:layer="0"
       style="fill:none;stroke:#000000;stroke-width:1.41111112;stroke-linecap:round;stroke-linejoin:round;stroke-miterlimit:4;stroke-dasharray:none;display:inline"
       d="m 5.3397875,84.831713 c 0.5595,0.4039 1.1191,0.807799 1.7065005,1.1673 m 0,0 c 0.5478995,0.335299 1.1201,0.632 1.7065995,0.897701 m 0,0 c 1.152201,0.521998 2.3598015,0.924198 3.5969015,1.188099 m 0,0 c 1.181,0.2519 2.3888,0.377701 3.5965,0.377701 m 0,0 c 1.208,0 2.4159,-0.125702 3.597,-0.377701 m 0,0 c 1.2369,-0.263901 2.4444,-0.6662 3.5965,-1.188099 m 0,0 c 0.5865,-0.265701 1.1587,-0.562402 1.7065,-0.897701 m 0,0 c 0.5875,-0.359501 1.147,-0.7634 1.7066,-1.1673" />
    <path
       inkscape:connector-curvature="0"
       id="path2914"
       qs:layer="0"
       style="fill:none;stroke:#000000;stroke-width:1.41111112;stroke-linecap:round;stroke-linejoin:round;stroke-miterlimit:4;stroke-dasharray:none;display:inline"
       d="m 8.7528875,81.611713 c 0.5590005,0.348499 1.118001,0.6969 1.7065015,0.9881 m 0,0 c 0.6044,0.299099 1.24,0.537799 1.8904,0.7269 m 0,0 c 1.1671,0.3394 2.3822,0.519399 3.5965,0.5204 m 0,0 c 1.2146,0 2.4284,-0.177001 3.597,-0.5204 m 0,0 c 1.2811,-0.376502 2.508,-0.951801 3.5965,-1.715 m 0,0 c 0.6331,-0.4438 1.2194,-0.951202 1.7815,-1.481901 m 0,0 c 0.5598,-0.528501 1.0957,-1.0802 1.6316,-1.631899" />
    <path
       inkscape:connector-curvature="0"
       id="path2920"
       qs:layer="0"
       style="fill:none;stroke:#000000;stroke-width:1.41111112;stroke-linecap:round;stroke-linejoin:round;stroke-miterlimit:4;stroke-dasharray:none;display:inline"
       d="m 26.552889,63.811715 c 0.536,-0.551703 1.0721,-1.103402 1.6319,-1.631902 m 0,0 c 0.562,-0.530601 1.1481,-1.037701 1.7812,-1.481899 m 0,0 c 1.0887,-0.764001 2.3168,-1.3418 3.5969,-1.715002 m 0,0 c 1.1674,-0.340399 2.3781,-0.510498 3.5965,-0.520398 m 0,0 c 1.2182,-0.01 2.4441,0.1404 3.5957,0.520398 m 0,0 c 0.5614,0.185203 1.1051,0.425001 1.6236,0.707802 m 0,0 c 0.52,0.283698 1.0145,0.610599 1.509,0.9375" />
    <path
       inkscape:connector-curvature="0"
       id="path2926"
       qs:layer="0"
       style="fill:none;stroke:#000000;stroke-width:1.41111112;stroke-linecap:round;stroke-linejoin:round;stroke-miterlimit:4;stroke-dasharray:none;display:inline"
       d="m 37.159389,67.891313 c 1.2183,-1.179999 2.4366,-2.359999 3.5962,-3.5969 m 0,0 c 1.0994,-1.172599 2.1461,-2.396399 3.1321,-3.666199 m 0,0 c 0.4806,-0.6188 0.9467,-1.248602 1.4318,-1.863499 m 0,0 c 0.4102,-0.52 0.8338,-1.0294 1.2575,-1.538803" />
    <path
       inkscape:connector-curvature="0"
       id="path2932"
       qs:layer="0"
       style="fill:none;stroke:#000000;stroke-width:1.41111112;stroke-linecap:round;stroke-linejoin:round;stroke-miterlimit:4;stroke-dasharray:none;display:inline"
       d="m 26.552889,84.831713 c 0.5768,-0.496 1.1536,-0.992101 1.7065,-1.513399 m 0,0 c 0.5851,-0.551702 1.1435,-1.131601 1.7066,-1.706601 m 0,0 c 1.1867,-1.2118 2.3945,-2.401299 3.5969,-3.596502 m 0,0 c 1.2024,-1.1952 2.3994,-2.396097 3.5965,-3.596899" />
    <path
       inkscape:connector-curvature="0"
       id="path2938"
       qs:layer="0"
       style="fill:none;stroke:#000000;stroke-width:1.41111112;stroke-linecap:round;stroke-linejoin:round;stroke-miterlimit:4;stroke-dasharray:none;display:inline"
       d="m 26.552889,78.497913 c 1.1377,-1.1377 2.2754,-2.2754 3.4131,-3.4131 m 0,0 c 1.31,-1.309999 2.62,-2.620001 3.93,-3.930001" />
    <path
       inkscape:connector-curvature="0"
       id="path2944"
       qs:layer="0"
       style="fill:none;stroke:#000000;stroke-width:1.41111112;stroke-linecap:round;stroke-linejoin:round;stroke-miterlimit:4;stroke-dasharray:none;display:inline"
       d="m 26.552889,63.811715 c 1.1376,1.137798 2.2752,2.275597 3.4131,3.413099 m 0,0 c 1.3101,1.309799 2.6206,2.619299 3.93,3.929998 m 0,0 c 0.5436,0.5443 1.0871,1.0888 1.6319,1.6319 m 0,0 c 0.5446,0.543001 1.0905,1.084602 1.6315,1.6316 m 0,0 c 1.1928,1.2058 2.3616,2.437499 3.5977,3.596899 m 0,0 c 1.303,1.222302 2.6808,2.364303 4.0585,3.506202" />
    <path
       inkscape:connector-curvature="0"
       id="path2950"
       qs:layer="0"
       style="fill:none;stroke:#000000;stroke-width:1.41111112;stroke-linecap:round;stroke-linejoin:round;stroke-miterlimit:4;stroke-dasharray:none;display:inline"
       d="m 26.552889,57.477914 c 0.5595,-0.404001 1.1191,-0.807901 1.7065,-1.167299 m 0,0 c 0.5479,-0.335201 1.1199,-0.631701 1.7066,-0.897701 m 0,0 c 1.1523,-0.5226 2.3608,-0.927399 3.5969,-1.188099 m 0,0 c 1.1801,-0.248901 2.3854,-0.366601 3.5965,-0.377701 m 0,0 c 1.2107,-0.01101 2.4271,0.084 3.5952,0.377701 m 0,0 c 1.0045,0.252399 1.9732,0.6514 2.8987,1.1236 m 0,0 c 0.4914,0.250698 0.9706,0.521998 1.4323,0.820298 m 0,0 c 0.5114,0.330299 1.0014,0.693801 1.4914,1.057199" />
    <path
       inkscape:connector-curvature="0"
       id="path2956"
       qs:layer="0"
       style="fill:none;stroke:#000000;stroke-width:1.41111112;stroke-linecap:round;stroke-linejoin:round;stroke-miterlimit:4;stroke-dasharray:none;display:inline"
       d="m 29.965989,60.697914 c 1.1986,1.199101 2.3973,2.398198 3.5969,3.596499 m 0,0 c 1.1995,1.198299 2.4,2.395799 3.5965,3.5969 m 0,0 c 1.0857,1.089801 2.1681,2.182599 3.2635,3.263499 m 0,0 c 1.3348,1.3171 2.6888,2.616601 4.1032,3.846099 m 0,0 c 1.2565,1.092401 2.5606,2.129503 3.8648,3.166601" />
    <path
       inkscape:connector-curvature="0"
       id="path2962"
       qs:layer="0"
       style="fill:none;stroke:#000000;stroke-width:1.41111112;stroke-linecap:round;stroke-linejoin:round;stroke-miterlimit:4;stroke-dasharray:none;display:inline"
       d="m 40.422889,71.154812 c 1.2771,-1.312999 2.5542,-2.6259 3.7544,-4.006099 m 0,0 c 1.0191,-1.1719 1.9827,-2.3922 2.9463,-3.6126" />
    <path
       inkscape:connector-curvature="0"
       id="path2968"
       qs:layer="0"
       style="fill:none;stroke:#000000;stroke-width:1.41111112;stroke-linecap:round;stroke-linejoin:round;stroke-miterlimit:4;stroke-dasharray:none;display:inline"
       d="m 26.552889,84.730404 c 0.5595,0.4039 1.119,0.807799 1.7065,1.1673 m 0,0 c 0.5479,0.335398 1.1201,0.6322 1.7066,0.897701 m 0,0 c 1.1521,0.521597 2.3593,0.922499 3.5969,1.188099 m 0,0 c 1.1814,0.253599 2.3904,0.383898 3.5965,0.377701 m 0,0 c 1.2068,-0.01 2.4108,-0.149302 3.5987,-0.377701 m 0,0 c 1.4707,-0.282801 2.9168,-0.696502 4.292,-1.283601 m 0,0 c 0.6808,-0.290601 1.3442,-0.623699 1.9755,-1.007499 m 0,0 c 0.6607,-0.401701 1.2863,-0.858799 1.9118,-1.315999" />
    <path
       inkscape:connector-curvature="0"
       id="path2974"
       qs:layer="0"
       style="fill:none;stroke:#000000;stroke-width:1.41111112;stroke-linecap:round;stroke-linejoin:round;stroke-miterlimit:4;stroke-dasharray:none;display:inline"
       d="m 29.965989,81.611713 c 0.559,0.348598 1.1181,0.6971 1.7065,0.9881 m 0,0 c 0.6043,0.298898 1.2397,0.537099 1.8904,0.7269 m 0,0 c 1.1675,0.340599 2.3845,0.5253 3.5965,0.5204 m 0,0 c 1.2126,0 2.4202,-0.199401 3.5982,-0.5204 m 0,0 c 1.4391,-0.3921 2.8339,-0.972702 4.058,-1.8053 m 0,0 c 0.6849,-0.4657 1.3162,-1.010401 1.9096,-1.589902 m 0,0 c 0.5794,-0.565799 1.1225,-1.164897 1.6657,-1.763999" />
    <path
       inkscape:connector-curvature="0"
       id="path2980"
       qs:layer="0"
       style="fill:none;stroke:#000000;stroke-width:1.41111112;stroke-linecap:round;stroke-linejoin:round;stroke-miterlimit:4;stroke-dasharray:none;display:inline"
       d="m 47.123589,63.536113 c 0.4301,-0.5916 0.8603,-1.183199 1.304,-1.765599 m 0,0 c 0.4361,-0.5724 0.8854,-1.1358 1.3836,-1.6554 m 0,0 c 0.8172,-0.852201 1.7661,-1.5863 2.8035,-2.159499 m 0,0 c 0.9058,-0.500502 1.8791,-0.878301 2.8874,-1.100103 m 0,0 c 1.0085,-0.221798 2.0519,-0.2877 3.0828,-0.215998 m 0,0 c 0.5908,0.041 1.1776,0.127299 1.7513,0.264699 m 0,0 c 0.5754,0.137702 1.1377,0.326802 1.6999,0.516001" />
    <path
       inkscape:connector-curvature="0"
       id="path2986"
       qs:layer="0"
       style="fill:none;stroke:#000000;stroke-width:1.41111112;stroke-linecap:round;stroke-linejoin:round;stroke-miterlimit:4;stroke-dasharray:none;display:inline"
       d="m 57.531989,66.063315 c 0.8271,-1.420402 1.6541,-2.840801 2.4248,-4.292502 m 0,0 c 0.7538,-1.419899 1.4536,-2.869901 2.0793,-4.350599 m 0,0 c 0.305,-0.721702 0.5924,-1.4506 0.9021,-2.170001 m 0,0 c 0.2619,-0.608299 0.5397,-1.2098 0.8175,-1.8113" />
    <path
       inkscape:connector-curvature="0"
       id="path2992"
       qs:layer="0"
       style="fill:none;stroke:#000000;stroke-width:1.41111112;stroke-linecap:round;stroke-linejoin:round;stroke-miterlimit:4;stroke-dasharray:none;display:inline"
       d="m 48.937389,84.477714 c 0.62,-0.5535 1.24,-1.106901 1.8223,-1.697601 m 0,0 c 0.6048,-0.613602 1.1689,-1.267299 1.7298,-1.923299 m 0,0 c 1.1632,-1.360402 2.3126,-2.730802 3.3957,-4.152 m 0,0 c 1.0595,-1.390201 2.0557,-2.828902 3.0519,-4.267601" />
    <path
       inkscape:connector-curvature="0"
       id="path2998"
       qs:layer="0"
       style="fill:none;stroke:#000000;stroke-width:1.41111112;stroke-linecap:round;stroke-linejoin:round;stroke-miterlimit:4;stroke-dasharray:none;display:inline"
       d="m 48.390889,78.167512 c 1.1079,-1.244899 2.2159,-2.489801 3.2628,-3.7839 m 0,0 c 1.1785,-1.4568 2.2795,-2.9759 3.3806,-4.494998" />
    <path
       inkscape:connector-curvature="0"
       id="path3004"
       qs:layer="0"
       style="fill:none;stroke:#000000;stroke-width:1.41111112;stroke-linecap:round;stroke-linejoin:round;stroke-miterlimit:4;stroke-dasharray:none;display:inline"
       d="m 47.123589,63.536113 c 1.1611,1.033399 2.3223,2.0667 3.5235,3.0522 m 0,0 c 1.4146,1.160599 2.8846,2.255 4.3872,3.300301 m 0,0 c 0.6349,0.441599 1.2755,0.874499 1.9228,1.297198 m 0,0 c 0.6536,0.427002 1.314,0.843601 1.98,1.251401 m 0,0 c 1.4918,0.9135 3.0118,1.782801 4.5637,2.588799 m 0,0 c 1.5865,0.8239 3.2064,1.581602 4.8263,2.3394" />
    <path
       inkscape:connector-curvature="0"
       id="path3010"
       qs:layer="0"
       style="fill:none;stroke:#000000;stroke-width:1.41111112;stroke-linecap:round;stroke-linejoin:round;stroke-miterlimit:4;stroke-dasharray:none;display:inline"
       d="m 46.576989,57.225912 c 0.4203,-0.441999 0.8406,-0.883999 1.2874,-1.297897 m 0,0 c 0.4034,-0.373702 0.8285,-0.7246 1.27,-1.054402 m 0,0 c 0.8315,-0.621098 1.7213,-1.1675 2.6626,-1.6053 m 0,0 c 0.867,-0.403098 1.7777,-0.714099 2.7116,-0.92 m 0,0 c 0.9339,-0.2059 1.8911,-0.306699 2.8473,-0.305398 m 0,0 c 1.038,0 2.0749,0.1231 3.0905,0.336999 m 0,0 c 0.5392,0.1136 1.0724,0.253198 1.5956,0.422701 m 0,0 c 0.5794,0.187698 1.1466,0.411999 1.7137,0.636298" />
    <path
       inkscape:connector-curvature="0"
       id="path3016"
       qs:layer="0"
       style="fill:none;stroke:#000000;stroke-width:1.41111112;stroke-linecap:round;stroke-linejoin:round;stroke-miterlimit:4;stroke-dasharray:none;display:inline"
       d="m 49.811189,60.115114 c 1.2244,1.042399 2.4489,2.0847 3.7162,3.073098 m 0,0 c 1.2957,1.010401 2.6362,1.964402 4.0046,2.875103 m 0,0 c 1.2681,0.843898 2.5601,1.650698 3.8745,2.420498 m 0,0 c 1.6182,0.947801 3.2702,1.839499 4.9573,2.657001 m 0,0 c 1.4987,0.7262 3.025,1.393698 4.5513,2.061298" />
    <path
       inkscape:connector-curvature="0"
       id="path3022"
       qs:layer="0"
       style="fill:none;stroke:#000000;stroke-width:1.41111112;stroke-linecap:round;stroke-linejoin:round;stroke-miterlimit:4;stroke-dasharray:none;display:inline"
       d="m 61.406489,68.483813 c 0.8949,-1.5979 1.7898,-3.195901 2.593,-4.838999 m 0,0 c 0.6819,-1.395199 1.2977,-2.823001 1.9135,-4.2508" />
    <path
       inkscape:connector-curvature="0"
       id="path3028"
       qs:layer="0"
       style="fill:none;stroke:#000000;stroke-width:1.41111112;stroke-linecap:round;stroke-linejoin:round;stroke-miterlimit:4;stroke-dasharray:none;display:inline"
       d="m 48.937389,84.477714 c 0.6949,0.343097 1.3897,0.686198 2.1097,0.967697 m 0,0 c 0.6878,0.268902 1.3986,0.481601 2.1193,0.6528 m 0,0 c 1.4561,0.346002 2.9528,0.523 4.4492,0.526401 m 0,0 c 1.4597,0 2.9191,-0.1582 4.3449,-0.472499 m 0,0 c 1.4259,-0.3143 2.8181,-0.781302 4.1413,-1.3982 m 0,0 c 1.3561,-0.632302 2.6395,-1.422199 3.815,-2.348202 m 0,0 c 0.5819,-0.458498 1.1374,-0.950298 1.6484,-1.483498 m 0,0 c 0.5349,-0.5581 1.021,-1.1615 1.5072,-1.765001" />
    <path
       inkscape:connector-curvature="0"
       id="path3034"
       qs:layer="0"
       style="fill:none;stroke:#000000;stroke-width:1.41111112;stroke-linecap:round;stroke-linejoin:round;stroke-miterlimit:4;stroke-dasharray:none;display:inline"
       d="m 52.489489,80.856814 c 0.678,0.261199 1.3559,0.522399 2.0548,0.710299 m 0,0 c 0.7342,0.197299 1.4916,0.313699 2.2537,0.3702 m 0,0 c 1.3944,0.103499 2.8045,0.01 4.1689,-0.292399 m 0,0 c 1.3646,-0.299303 2.6836,-0.801201 3.9059,-1.487602 m 0,0 c 1.2989,-0.729499 2.4886,-1.6674 3.4543,-2.7919 m 0,0 c 0.5402,-0.629099 1.0104,-1.316598 1.4343,-2.029 m 0,0 c 0.4139,-0.695599 0.7838,-1.414998 1.1537,-2.1343" />
    <path
       inkscape:connector-curvature="0"
       id="path3040"
       qs:layer="0"
       style="fill:none;stroke:#000000;stroke-width:1.41111112;stroke-linecap:round;stroke-linejoin:round;stroke-miterlimit:4;stroke-dasharray:none;display:inline"
       d="m 65.912989,59.394014 c 0.2629,-0.6826 0.5257,-1.365199 0.804,-2.0424 m 0,0 c 0.2735,-0.665601 0.5621,-1.326001 0.9093,-1.9565 m 0,0 c 0.5694,-1.0342 1.2967,-1.988199 2.1508,-2.810101 m 0,0 c 0.7458,-0.717699 1.5883,-1.334499 2.5055,-1.808398 m 0,0 c 0.9174,-0.4738 1.9094,-0.804601 2.9224,-1.004601 m 0,0 c 0.5988,-0.1182 1.2048,-0.190799 1.8124,-0.226599 m 0,0 c 0.6561,-0.039 1.3139,-0.035 1.9718,-0.031" />
    <path
       inkscape:connector-curvature="0"
       id="path3046"
       qs:layer="0"
       style="fill:none;stroke:#000000;stroke-width:1.41111112;stroke-linecap:round;stroke-linejoin:round;stroke-miterlimit:4;stroke-dasharray:none;display:inline"
       d="m 76.620989,59.148114 c 0.4217,-1.588601 0.8434,-3.177202 1.2343,-4.772999 m 0,0 c 0.3958,-1.615601 0.7601,-3.2385 1.1339,-4.860502 m 0,0 c 0.1886,-0.8188 0.3797,-1.637298 0.611,-2.444199 m 0,0 c 0.1997,-0.6967 0.4293,-1.3848 0.659,-2.0729" />
    <path
       inkscape:connector-curvature="0"
       id="path3052"
       qs:layer="0"
       style="fill:none;stroke:#000000;stroke-width:1.41111112;stroke-linecap:round;stroke-linejoin:round;stroke-miterlimit:4;stroke-dasharray:none;display:inline"
       d="m 73.072389,79.157212 c 0.4561,-0.6948 0.9121,-1.389498 1.3222,-2.110599 m 0,0 c 0.4258,-0.748899 0.8021,-1.526001 1.1746,-2.3047 m 0,0 c 0.7724,-1.6145 1.529,-3.235201 2.2085,-4.8879 m 0,0 c 0.6647,-1.6166 1.2556,-3.263801 1.8465,-4.910901" />
    <path
       inkscape:connector-curvature="0"
       id="path3058"
       qs:layer="0"
       style="fill:none;stroke:#000000;stroke-width:1.41111112;stroke-linecap:round;stroke-linejoin:round;stroke-miterlimit:4;stroke-dasharray:none;display:inline"
       d="m 70.915089,73.202112 c 0.749,-1.488799 1.498,-2.977499 2.1752,-4.498098 m 0,0 c 0.7624,-1.711601 1.4339,-3.463501 2.1054,-5.215402" />
    <path
       inkscape:connector-curvature="0"
       id="path3064"
       qs:layer="0"
       style="fill:none;stroke:#000000;stroke-width:1.41111112;stroke-linecap:round;stroke-linejoin:round;stroke-miterlimit:4;stroke-dasharray:none;display:inline"
       d="m 65.912989,59.394014 c 1.3887,0.6985 2.7773,1.396898 4.1921,2.038999 m 0,0 c 1.6663,0.7562 3.369,1.4342 5.0906,2.055599 m 0,0 c 0.7274,0.262501 1.4582,0.514901 2.1925,0.756802 m 0,0 c 0.7416,0.2443 1.4868,0.478 2.236,0.697698 m 0,0 c 1.6782,0.492202 3.3764,0.914502 5.0774,1.3227 m 0,0 c 1.6807,0.403301 3.3642,0.792802 5.047597,1.182302" />
    <path
       inkscape:connector-curvature="0"
       id="path3070"
       qs:layer="0"
       style="fill:none;stroke:#000000;stroke-width:1.41111112;stroke-linecap:round;stroke-linejoin:round;stroke-miterlimit:4;stroke-dasharray:none;display:inline"
       d="m 63.755689,53.438913 c 0.292,-0.535499 0.5839,-1.070999 0.9087,-1.5863 m 0,0 c 0.2932,-0.465198 0.6133,-0.914098 0.9547,-1.346499 m 0,0 c 0.643,-0.814601 1.3618,-1.571101 2.1578,-2.238401 m 0,0 c 0.7332,-0.614499 1.5319,-1.1534 2.3821,-1.5889 m 0,0 c 0.8503,-0.4355 1.7522,-0.767599 2.6719,-1.030198 m 0,0 c 1.125,-0.321302 2.2767,-0.538602 3.4391,-0.665802 m 0,0 c 0.6399,-0.07 1.283,-0.112799 1.9252,-0.1083 m 0,0 c 0.6887,0 1.3763,0.064 2.064,0.123001" />
    <path
       inkscape:connector-curvature="0"
       id="path3076"
       qs:layer="0"
       style="fill:none;stroke:#000000;stroke-width:1.41111112;stroke-linecap:round;stroke-linejoin:round;stroke-miterlimit:4;stroke-dasharray:none;display:inline"
       d="m 67.626289,55.395114 c 1.452,0.6909 2.9041,1.381701 4.3836,2.009298 m 0,0 c 1.5126,0.641601 3.0539,1.217002 4.6111,1.743702 m 0,0 c 1.4432,0.4881 2.9,0.9342 4.3682,1.3381 m 0,0 c 1.7906,0.492599 3.5981,0.922299 5.402,1.3651 m 0,0 c 1.5627,0.3836 3.122697,0.777198 4.682697,1.1707" />
    <path
       inkscape:connector-curvature="0"
       id="path3082"
       qs:layer="0"
       style="fill:none;stroke:#000000;stroke-width:1.41111112;stroke-linecap:round;stroke-linejoin:round;stroke-miterlimit:4;stroke-dasharray:none;display:inline"
       d="m 80.989189,60.486214 c 0.4539,-1.791301 0.9077,-3.5826 1.358,-5.374801 m 0,0 c 0.3921,-1.560398 0.7814,-3.121598 1.1707,-4.682699" />
    <path
       inkscape:connector-curvature="0"
       id="path3088"
       qs:layer="0"
       style="fill:none;stroke:#000000;stroke-width:1.41111112;stroke-linecap:round;stroke-linejoin:round;stroke-miterlimit:4;stroke-dasharray:none;display:inline"
       d="m 73.072389,79.157212 c 0.7599,0.152101 1.5198,0.304202 2.288,0.390201 m 0,0 c 0.7339,0.082 1.4754,0.1041 2.216,0.083 m 0,0 c 1.4962,-0.041 2.9884,-0.256399 4.4343,-0.640198 m 0,0 c 1.4104,-0.374501 2.7767,-0.9098 4.0755,-1.578401 m 0,0 c 1.2989,-0.668599 2.530298,-1.470598 3.639897,-2.419999 m 0,0 c 1.034099,-0.8849 1.962401,-1.8979 2.742201,-3.012401 m 0,0 c 0.3692,-0.527499 0.705098,-1.077699 1.001499,-1.647698 m 0,0 c 0.317901,-0.6112 0.590299,-1.245102 0.862799,-1.879002" />
    <path
       inkscape:connector-curvature="0"
       id="path3094"
       qs:layer="0"
       style="fill:none;stroke:#000000;stroke-width:1.41111112;stroke-linecap:round;stroke-linejoin:round;stroke-miterlimit:4;stroke-dasharray:none;display:inline"
       d="m 75.569189,74.741913 c 0.7223,0.077 1.4447,0.154599 2.1685,0.155699 m 0,0 c 0.7603,0 1.5223,-0.082 2.2728,-0.2242 m 0,0 c 1.3733,-0.260598 2.7082,-0.7204 3.9521,-1.3589 m 0,0 c 1.244,-0.638499 2.3969,-1.4559 3.3893,-2.445698 m 0,0 c 0.991898,-0.9892 1.823497,-2.1507 2.397297,-3.4207 m 0,0 c 0.3184,-0.704602 0.5574,-1.4425 0.765299,-2.187301 m 0,0 c 0.207002,-0.741799 0.383201,-1.4903 0.559401,-2.238799" />
    <path
       inkscape:connector-curvature="0"
       id="path3100"
       qs:layer="0"
       style="fill:none;stroke:#000000;stroke-width:1.41111112;stroke-linecap:round;stroke-linejoin:round;stroke-miterlimit:4;stroke-dasharray:none;display:inline"
       d="m 83.517889,50.428714 c 0.1758,-0.7488 0.3516,-1.4977 0.5597,-2.239001 m 0,0 c 0.209,-0.744198 0.4505,-1.4809 0.7649,-2.187099 m 0,0 c 0.5407,-1.214599 1.297,-2.339201 2.202,-3.321199 m 0,0 c 0.8254,-0.895601 1.774498,-1.6727 2.816296,-2.296601 m 0,0 c 1.041902,-0.6241 2.176501,-1.095101 3.352001,-1.404399 m 0,0 c 0.654999,-0.172402 1.3227,-0.294601 1.994699,-0.349101 m 0,0 c 0.654502,-0.053 1.313101,-0.042 1.971705,-0.031" />
    <path
       inkscape:connector-curvature="0"
       id="path3106"
       qs:layer="0"
       style="fill:none;stroke:#000000;stroke-width:1.41111112;stroke-linecap:round;stroke-linejoin:round;stroke-miterlimit:4;stroke-dasharray:none;display:inline"
       d="m 94.711886,48.469914 c 0.408598,-1.6457 0.8172,-3.2914 1.233701,-4.934901 m 0,0 c 0.416497,-1.643298 0.840899,-3.284398 1.233603,-4.934399 m 0,0 c 0.1946,-0.8174 0.3814,-1.6369 0.611094,-2.444299 m 0,0 c 0.1983,-0.697001 0.4286,-1.384901 0.658904,-2.072902" />
    <path
       inkscape:connector-curvature="0"
       id="path3112"
       qs:layer="0"
       style="fill:none;stroke:#000000;stroke-width:1.41111112;stroke-linecap:round;stroke-linejoin:round;stroke-miterlimit:4;stroke-dasharray:none;display:inline"
       d="m 94.332585,68.453212 c 0.239401,-0.7221 0.478801,-1.444199 0.684702,-2.175798 m 0,0 c 0.217898,-0.774 0.398297,-1.558601 0.585298,-2.341302 m 0,0 c 0.394199,-1.649699 0.817801,-3.291097 1.233901,-4.934599 m 0,0 c 0.416204,-1.6436 0.824804,-3.289198 1.233498,-4.934799" />
    <path
       inkscape:connector-curvature="0"
       id="path3118"
       qs:layer="0"
       style="fill:none;stroke:#000000;stroke-width:1.41111112;stroke-linecap:round;stroke-linejoin:round;stroke-miterlimit:4;stroke-dasharray:none;display:inline"
       d="m 91.073886,63.022014 c 0.390201,-1.5609 0.780401,-3.121801 1.170599,-4.682701 m 0,0 c 0.449402,-1.797299 0.8987,-3.5946 1.348,-5.391898" />
    <path
       inkscape:connector-curvature="0"
       id="path3124"
       qs:layer="0"
       style="fill:none;stroke:#000000;stroke-width:1.41111112;stroke-linecap:round;stroke-linejoin:round;stroke-miterlimit:4;stroke-dasharray:none;display:inline"
       d="m 83.517889,50.428714 c 1.5609,0.390201 3.1218,0.7805 4.6827,1.1707 m 0,0 c 1.797297,0.449301 3.594598,0.898599 5.391896,1.348001 m 0,0 c 0.7463,0.186498 1.492702,0.373098 2.239002,0.559697 m 0,0 c 0.746099,0.186501 1.492303,0.373101 2.238497,0.559602 m 0,0 c 1.644902,0.411299 3.289906,0.8225 4.934906,1.2337 m 0,0 c 1.6448,0.411201 3.2896,0.822399 4.9344,1.233698" />
    <path
       inkscape:connector-curvature="0"
       id="path3130"
       qs:layer="0"
       style="fill:none;stroke:#000000;stroke-width:1.41111112;stroke-linecap:round;stroke-linejoin:round;stroke-miterlimit:4;stroke-dasharray:none;display:inline"
       d="m 80.259189,44.997514 c 0.272,-0.634199 0.544,-1.268499 0.8627,-1.878999 m 0,0 c 0.2973,-0.5694 0.6353,-1.118201 1.0015,-1.6478 m 0,0 c 0.7195,-1.040302 1.5481,-2.0066 2.4731,-2.8693 m 0,0 c 0.8831,-0.8236 1.854,-1.552902 2.8897,-2.174302 m 0,0 c 1.035697,-0.621498 2.136197,-1.135097 3.278596,-1.526698 m 0,0 c 1.196501,-0.410201 2.4389,-0.6865 3.695299,-0.8317 m 0,0 c 0.639601,-0.074 1.282901,-0.113801 1.925202,-0.108201 m 0,0 c 0.6887,0.01 1.376298,0.065 2.063902,0.122899" />
    <path
       inkscape:connector-curvature="0"
       id="path3136"
       qs:layer="0"
       style="fill:none;stroke:#000000;stroke-width:1.41111112;stroke-linecap:round;stroke-linejoin:round;stroke-miterlimit:4;stroke-dasharray:none;display:inline"
       d="m 84.842489,46.002614 c 1.645,0.411099 3.2899,0.8221 4.934798,1.233399 m 0,0 c 1.644898,0.411201 3.289698,0.822602 4.934599,1.233901 m 0,0 c 1.4924,0.373199 2.984904,0.7463 4.477396,1.119401 m 0,0 c 1.797308,0.4493 3.594608,0.898598 5.391908,1.347997 m 0,0 c 1.5609,0.390201 3.1218,0.780401 4.6827,1.170602" />
    <path
       inkscape:connector-curvature="0"
       id="path3142"
       qs:layer="0"
       style="fill:none;stroke:#000000;stroke-width:1.41111112;stroke-linecap:round;stroke-linejoin:round;stroke-miterlimit:4;stroke-dasharray:none;display:inline"
       d="m 99.189282,49.589315 c 0.449304,-1.797302 0.898708,-3.5946 1.348008,-5.391901 m 0,0 c 0.3902,-1.560901 0.7804,-3.121799 1.1707,-4.682699" />
    <path
       inkscape:connector-curvature="0"
       id="path3148"
       qs:layer="0"
       style="fill:none;stroke:#000000;stroke-width:1.41111112;stroke-linecap:round;stroke-linejoin:round;stroke-miterlimit:4;stroke-dasharray:none;display:inline"
       d="m 94.332585,68.453212 c 0.6876,0.059 1.375201,0.116902 2.063899,0.123001 m 0,0 c 0.642302,0.01 1.285606,-0.034 1.925204,-0.1083 m 0,0 c 1.256598,-0.145201 2.499102,-0.421601 3.695602,-0.831799 m 0,0 c 1.1423,-0.391601 2.2427,-0.9052 3.2783,-1.5266 m 0,0 c 1.0358,-0.621402 2.0069,-1.350701 2.8901,-2.174401 m 0,0 c 0.9249,-0.862699 1.7533,-1.828898 2.4727,-2.869201 m 0,0 c 0.3662,-0.529598 0.7042,-1.078399 1.0015,-1.647799 m 0,0 c 0.3188,-0.6105 0.5908,-1.244699 0.8628,-1.8789" />
    <path
       inkscape:connector-curvature="0"
       id="path3154"
       qs:layer="0"
       style="fill:none;stroke:#000000;stroke-width:1.41111112;stroke-linecap:round;stroke-linejoin:round;stroke-miterlimit:4;stroke-dasharray:none;display:inline"
       d="m 95.602585,63.936112 c 0.658602,0.01101 1.317301,0.02201 1.971705,-0.031 m 0,0 c 0.672194,-0.055 1.339892,-0.176801 1.994996,-0.349199 m 0,0 c 1.175404,-0.309502 2.309904,-0.780302 3.351804,-1.4042 m 0,0 c 1.0419,-0.624001 1.9912,-1.4011 2.8166,-2.2968 m 0,0 c 0.9048,-0.9821 1.6608,-2.1066 2.2016,-3.320999 m 0,0 c 0.3145,-0.706301 0.5562,-1.443003 0.7652,-2.1874 m 0,0 c 0.2081,-0.741201 0.3838,-1.490001 0.5594,-2.238802" />
    <path
       inkscape:connector-curvature="0"
       id="path3160"
       qs:layer="0"
       style="fill:none;stroke:#000000;stroke-width:1.41111112;stroke-linecap:round;stroke-linejoin:round;stroke-miterlimit:4;stroke-dasharray:none;display:inline"
       d="m 101.70799,39.514715 c 0.1758,-0.748902 0.3516,-1.4977 0.5597,-2.239002 m 0,0 c 0.209,-0.744299 0.4505,-1.480899 0.7649,-2.187098 m 0,0 c 0.5407,-1.2146 1.2969,-2.3392 2.202,-3.3213 m 0,0 c 0.8253,-0.8955 1.7744,-1.6726 2.8162,-2.2966 m 0,0 c 1.042,-0.624 2.1766,-1.095 3.3521,-1.4044 m 0,0 c 0.655,-0.1723 1.3226,-0.2945 1.9947,-0.349 m 0,0 c 0.6544,-0.053 1.313,-0.042 1.9717,-0.031" />
    <path
       inkscape:connector-curvature="0"
       id="path3166"
       qs:layer="0"
       style="fill:none;stroke:#000000;stroke-width:1.41111112;stroke-linecap:round;stroke-linejoin:round;stroke-miterlimit:4;stroke-dasharray:none;display:inline"
       d="m 112.90189,37.555915 c 0.4086,-1.6457 0.8173,-3.291502 1.2338,-4.9349 m 0,0 c 0.4164,-1.6434 0.8408,-3.2844 1.2336,-4.9345 m 0,0 c 0.1945,-0.8173 0.3813,-1.6368 0.611,-2.4442 m 0,0 c 0.1984,-0.697 0.4287,-1.385 0.659,-2.0729" />
    <path
       inkscape:connector-curvature="0"
       id="path3172"
       qs:layer="0"
       style="fill:none;stroke:#000000;stroke-width:1.41111112;stroke-linecap:round;stroke-linejoin:round;stroke-miterlimit:4;stroke-dasharray:none;display:inline"
       d="m 112.52269,57.539213 c 0.2393,-0.722198 0.4787,-1.444301 0.6846,-2.175798 m 0,0 c 0.2179,-0.774102 0.3983,-1.558601 0.5854,-2.3414 m 0,0 c 0.3942,-1.649702 0.8178,-3.291101 1.2339,-4.934602 m 0,0 c 0.4161,-1.643499 0.8248,-3.2891 1.2334,-4.934698" />
    <path
       inkscape:connector-curvature="0"
       id="path3178"
       qs:layer="0"
       style="fill:none;stroke:#000000;stroke-width:1.41111112;stroke-linecap:round;stroke-linejoin:round;stroke-miterlimit:4;stroke-dasharray:none;display:inline"
       d="m 109.26389,52.107914 c 0.3903,-1.560901 0.7805,-3.121801 1.1707,-4.682699 m 0,0 c 0.4493,-1.797301 0.8987,-3.5946 1.348,-5.391901" />
    <path
       inkscape:connector-curvature="0"
       id="path3184"
       qs:layer="0"
       style="fill:none;stroke:#000000;stroke-width:1.41111112;stroke-linecap:round;stroke-linejoin:round;stroke-miterlimit:4;stroke-dasharray:none;display:inline"
       d="m 101.70799,39.514715 c 1.5609,0.3902 3.1218,0.780398 4.6827,1.170598 m 0,0 c 1.7973,0.4494 3.5946,0.8987 5.3919,1.348001 m 0,0 c 0.7463,0.1866 1.4926,0.373199 2.239,0.559799 m 0,0 c 0.7461,0.186501 1.4923,0.373002 2.2384,0.559602 m 0,0 c 1.645,0.4112 3.29,0.8225 4.9349,1.2337 m 0,0 c 1.6449,0.411198 3.2897,0.822399 4.9345,1.233599" />
    <path
       inkscape:connector-curvature="0"
       id="path3190"
       qs:layer="0"
       style="fill:none;stroke:#000000;stroke-width:1.41111112;stroke-linecap:round;stroke-linejoin:round;stroke-miterlimit:4;stroke-dasharray:none;display:inline"
       d="m 98.449188,34.083413 c 0.272,-0.634198 0.543994,-1.268398 0.862794,-1.878898 m 0,0 c 0.297304,-0.5694 0.635204,-1.1182 1.001508,-1.6478 m 0,0 c 0.7195,-1.0404 1.548,-2.0066 2.4731,-2.8694 m 0,0 c 0.883,-0.8236 1.854,-1.5528 2.8896,-2.1742 m 0,0 c 1.0358,-0.6215 2.1363,-1.1352 3.2787,-1.5268 m 0,0 c 1.1964,-0.4101 2.4388,-0.6864 3.6953,-0.8316 m 0,0 c 0.6396,-0.074 1.2829,-0.1139 1.9252,-0.1083 m 0,0 c 0.6887,0.01 1.3763,0.065 2.0639,0.123" />
    <path
       inkscape:connector-curvature="0"
       id="path3196"
       qs:layer="0"
       style="fill:none;stroke:#000000;stroke-width:1.41111112;stroke-linecap:round;stroke-linejoin:round;stroke-miterlimit:4;stroke-dasharray:none;display:inline"
       d="m 103.03259,35.088615 c 1.6449,0.411 3.2898,0.822099 4.9347,1.233399 m 0,0 c 1.6449,0.4112 3.2898,0.822601 4.9346,1.233901 m 0,0 c 1.4925,0.373199 2.985,0.746198 4.4775,1.119299 m 0,0 c 1.7973,0.449399 3.5946,0.8987 5.3919,1.348 m 0,0 c 1.5609,0.3903 3.1218,0.7805 4.6827,1.1707" />
    <path
       inkscape:connector-curvature="0"
       id="path3202"
       qs:layer="0"
       style="fill:none;stroke:#000000;stroke-width:1.41111112;stroke-linecap:round;stroke-linejoin:round;stroke-miterlimit:4;stroke-dasharray:none;display:inline"
       d="m 117.37939,38.675214 c 0.4493,-1.797299 0.8986,-3.5946 1.3479,-5.391899 m 0,0 c 0.3903,-1.5609 0.7805,-3.1218 1.1707,-4.6827" />
    <path
       inkscape:connector-curvature="0"
       id="path3208"
       qs:layer="0"
       style="fill:none;stroke:#000000;stroke-width:1.41111112;stroke-linecap:round;stroke-linejoin:round;stroke-miterlimit:4;stroke-dasharray:none;display:inline"
       d="m 112.52269,57.539213 c 0.6876,0.058 1.3752,0.116902 2.0639,0.122902 m 0,0 c 0.6423,0.01 1.2856,-0.034 1.9252,-0.108201 m 0,0 c 1.2565,-0.1453 2.4991,-0.4217 3.6956,-0.831901 m 0,0 c 1.1423,-0.3916 2.2426,-0.905098 3.2783,-1.526501 m 0,0 c 1.0358,-0.621399 2.0069,-1.350698 2.89,-2.174499 m 0,0 c 0.9249,-0.862598 1.7534,-1.8288 2.4728,-2.8691 m 0,0 c 0.3662,-0.529598 0.7042,-1.078399 1.0015,-1.647799 m 0,0 c 0.3187,-0.610501 0.5907,-1.244801 0.8627,-1.878999" />
    <path
       inkscape:connector-curvature="0"
       id="path3214"
       qs:layer="0"
       style="fill:none;stroke:#000000;stroke-width:1.41111112;stroke-linecap:round;stroke-linejoin:round;stroke-miterlimit:4;stroke-dasharray:none;display:inline"
       d="m 113.79269,53.022015 c 0.6586,0.01101 1.3172,0.02201 1.9717,-0.031 m 0,0 c 0.6721,-0.055 1.3399,-0.176798 1.995,-0.349298 m 0,0 c 1.1753,-0.3094 2.3099,-0.7802 3.3517,-1.404199 m 0,0 c 1.042,-0.6239 1.9912,-1.401101 2.8166,-2.296801 m 0,0 c 0.9049,-0.982 1.6609,-2.106501 2.2017,-3.320999 m 0,0 c 0.3145,-0.706301 0.5562,-1.443002 0.7652,-2.187301 m 0,0 c 0.2081,-0.741201 0.3837,-1.490001 0.5594,-2.238799" />
    <path
       inkscape:connector-curvature="0"
       id="path3220"
       qs:layer="0"
       style="fill:none;stroke:#000000;stroke-width:1.41111112;stroke-linecap:round;stroke-linejoin:round;stroke-miterlimit:4;stroke-dasharray:none;display:inline"
       d="m 119.89799,28.600615 c 0.1656,-0.7521 0.3311,-1.5043 0.5598,-2.239 m 0,0 c 0.245,-0.7873 0.5624,-1.5545 0.9574,-2.2804 m 0,0 c 0.7093,-1.3036 1.6686,-2.4738 2.7813,-3.4633 m 0,0 c 1.0469,-0.9309 2.2295,-1.7019 3.4993,-2.2848 m 0,0 c 1.2699,-0.5828 2.627,-0.9776 4.0116,-1.1732 m 0,0 c 0.7564,-0.1069 1.5211,-0.1543 2.2804,-0.1178 m 0,0 c 0.7229,0.035 1.4409,0.1458 2.1589,0.2567" />
    <path
       inkscape:connector-curvature="0"
       id="path3226"
       qs:layer="0"
       style="fill:none;stroke:#000000;stroke-width:1.41111112;stroke-linecap:round;stroke-linejoin:round;stroke-miterlimit:4;stroke-dasharray:none;display:inline"
       d="m 131.63899,26.897915 c 0.6671,-1.618 1.3343,-3.2359 2.0739,-4.8196 m 0,0 c 0.7562,-1.6189 1.5881,-3.202 2.4338,-4.7795 m 0,0 c 0.4259,-0.7944 0.8552,-1.5874 1.339,-2.3458 m 0,0 c 0.4256,-0.6673 0.8933,-1.3077 1.361,-1.9482" />
    <path
       inkscape:connector-curvature="0"
       id="path3232"
       qs:layer="0"
       style="fill:none;stroke:#000000;stroke-width:1.41111112;stroke-linecap:round;stroke-linejoin:round;stroke-miterlimit:4;stroke-dasharray:none;display:inline"
       d="m 130.71269,46.625115 c 0.253,-0.719201 0.506,-1.438301 0.6847,-2.175801 m 0,0 c 0.1768,-0.729499 0.2809,-1.4769 0.41,-2.218899 m 0,0 c 0.2758,-1.5859 0.6657,-3.1475 1.1059,-4.6937 m 0,0 c 0.4501,-1.580701 0.9527,-3.1454 1.4553,-4.7101" />
    <path
       inkscape:connector-curvature="0"
       id="path3238"
       qs:layer="0"
       style="fill:none;stroke:#000000;stroke-width:1.41111112;stroke-linecap:round;stroke-linejoin:round;stroke-miterlimit:4;stroke-dasharray:none;display:inline"
       d="m 127.45399,41.193914 c 0.3551,-1.546501 0.7102,-3.092901 1.1101,-4.6276 m 0,0 c 0.4614,-1.770499 0.9825,-3.525299 1.5036,-5.280099" />
    <path
       inkscape:connector-curvature="0"
       id="path3244"
       qs:layer="0"
       style="fill:none;stroke:#000000;stroke-width:1.41111112;stroke-linecap:round;stroke-linejoin:round;stroke-miterlimit:4;stroke-dasharray:none;display:inline"
       d="m 119.89799,28.600615 c 1.5892,0.3713 3.1784,0.7426 4.7604,1.1447 m 0,0 c 1.8174,0.4619 3.6252,0.9645 5.4093,1.5409 m 0,0 c 0.7283,0.2353 1.4528,0.483 2.1732,0.7415 m 0,0 c 0.713,0.2559 1.4222,0.5225 2.1277,0.7989 m 0,0 c 1.5304,0.599598 3.0439,1.245501 4.5251,1.956701 m 0,0 c 1.4488,0.695697 2.8668,1.453698 4.2848,2.211798" />
    <path
       inkscape:connector-curvature="0"
       id="path3250"
       qs:layer="0"
       style="fill:none;stroke:#000000;stroke-width:1.41111112;stroke-linecap:round;stroke-linejoin:round;stroke-miterlimit:4;stroke-dasharray:none;display:inline"
       d="m 116.63929,23.169415 c 0.2621,-0.6405 0.5241,-1.281 0.8628,-1.879 m 0,0 c 0.3618,-0.6389 0.8109,-1.2292 1.287,-1.7955 m 0,0 c 0.9654,-1.1486 2.0413,-2.1984 3.2282,-3.1067 m 0,0 c 1.1578,-0.886 2.4212,-1.6373 3.7483,-2.2474 m 0,0 c 1.3273,-0.6102 2.7183,-1.0792 4.1452,-1.3868 m 0,0 c 1.4624,-0.3151 2.9626,-0.4606 4.4589,-0.4325 m 0,0 c 0.7407,0.014 1.4804,0.071 2.2097,0.1868 m 0,0 c 0.7633,0.1218 1.5153,0.3091 2.2673,0.4965" />
    <path
       inkscape:connector-curvature="0"
       id="path3256"
       qs:layer="0"
       style="fill:none;stroke:#000000;stroke-width:1.41111112;stroke-linecap:round;stroke-linejoin:round;stroke-miterlimit:4;stroke-dasharray:none;display:inline"
       d="m 121.41519,24.081215 c 1.7442,0.3957 3.4883,0.7914 5.214,1.2584 m 0,0 c 1.688,0.4568 3.3583,0.9817 5.0098,1.5583 m 0,0 c 1.4673,0.5122 2.9197,1.0651 4.3558,1.6594 m 0,0 c 1.6914,0.7001 3.3602,1.4575 4.9892,2.2908 m 0,0 c 1.3832,0.7077 2.7378,1.47 4.0924,2.2323" />
    <path
       inkscape:connector-curvature="0"
       id="path3262"
       qs:layer="0"
       style="fill:none;stroke:#000000;stroke-width:1.41111112;stroke-linecap:round;stroke-linejoin:round;stroke-miterlimit:4;stroke-dasharray:none;display:inline"
       d="m 135.99479,28.557315 c 0.7525,-1.7186 1.505,-3.4373 2.3464,-5.1115 m 0,0 c 0.7475,-1.4873 1.565,-2.9395 2.3826,-4.3917" />
    <path
       inkscape:connector-curvature="0"
       id="path3268"
       qs:layer="0"
       style="fill:none;stroke:#000000;stroke-width:1.41111112;stroke-linecap:round;stroke-linejoin:round;stroke-miterlimit:4;stroke-dasharray:none;display:inline"
       d="m 130.71269,46.625115 c 0.6879,0.041 1.3758,0.082 2.0639,0.122998 m 0,0 c 0.5519,0.033 1.104,0.067 1.6569,0.069 m 0,0 c 1.0368,0 2.0768,-0.106299 3.0917,-0.328599 m 0,0 c 0.9348,-0.204699 1.8482,-0.505099 2.7168,-0.904401 m 0,0 c 0.8687,-0.3993 1.6925,-0.897498 2.4539,-1.4762 m 0,0 c 0.8265,-0.628199 1.5794,-1.3513 2.2596,-2.135099 m 0,0 c 0.3612,-0.416199 0.7018,-0.8495 1.0165,-1.300599 m 0,0 c 0.3485,-0.499502 0.665,-1.0208 0.9816,-1.542101" />
    <path
       inkscape:connector-curvature="0"
       id="path3274"
       qs:layer="0"
       style="fill:none;stroke:#000000;stroke-width:1.41111112;stroke-linecap:round;stroke-linejoin:round;stroke-miterlimit:4;stroke-dasharray:none;display:inline"
       d="m 131.80739,42.230415 c 0.5896,0.065 1.1792,0.130198 1.7708,0.142299 m 0,0 c 0.5899,0.01199 1.1817,-0.029 1.7678,-0.1143 m 0,0 c 1.0224,-0.149501 2.0278,-0.435799 2.9658,-0.867099 m 0,0 c 0.9381,-0.431301 1.8089,-1.0077 2.5875,-1.6896 m 0,0 c 0.8915,-0.7809 1.6621,-1.7002 2.2792,-2.706601 m 0,0 c 0.3763,-0.6138 0.6956,-1.2599 0.9999,-1.912101 m 0,0 c 0.3096,-0.6634 0.6038,-1.332998 0.898,-2.002598" />
    <path
       inkscape:connector-curvature="0"
       id="path3280"
       qs:layer="0"
       style="fill:none;stroke:#000000;stroke-width:1.41111112;stroke-linecap:round;stroke-linejoin:round;stroke-miterlimit:4;stroke-dasharray:none;display:inline"
       d="m 140.72379,19.054115 c 0.4033,-0.7014 0.8065,-1.4027 1.2525,-2.0783 m 0,0 c 0.4566,-0.6918 0.9581,-1.3566 1.527,-1.9598 m 0,0 c 1.017,-1.0784 2.2495,-1.9597 3.5812,-2.6278 m 0,0 c 1.2529,-0.6286 2.5937,-1.0684 3.9705,-1.3038 m 0,0 c 1.3771,-0.2353 2.7903,-0.2662 4.1785,-0.098 m 0,0 c 0.7585,0.092 1.5095,0.2437 2.2335,0.4751 m 0,0 c 0.6894,0.2202 1.3544,0.5128 2.0194,0.8054" />
    <path
       inkscape:connector-curvature="0"
       id="path3286"
       qs:layer="0"
       style="fill:none;stroke:#000000;stroke-width:1.41111112;stroke-linecap:round;stroke-linejoin:round;stroke-miterlimit:4;stroke-dasharray:none;display:inline"
       d="m 152.65319,20.376915 c 1.0622,-1.3909 2.1245,-2.7817 3.248,-4.1208 m 0,0 c 1.1484,-1.3687 2.3609,-2.6833 3.5852,-3.9889 m 0,0 c 0.6166,-0.6576 1.2361,-1.3128 1.8993,-1.9206 m 0,0 c 0.5835,-0.5348004 1.2007,-1.0328008 1.8178,-1.5308012" />
    <path
       inkscape:connector-curvature="0"
       id="path3292"
       qs:layer="0"
       style="fill:none;stroke:#000000;stroke-width:1.41111112;stroke-linecap:round;stroke-linejoin:round;stroke-miterlimit:4;stroke-dasharray:none;display:inline"
       d="m 146.95359,39.129713 c 0.3191,-0.617799 0.6382,-1.2356 0.9417,-1.8609 m 0,0 c 0.3276,-0.6752 0.637,-1.359098 0.9617,-2.035898 m 0,0 c 0.6956,-1.449301 1.4615,-2.8655 2.2804,-4.2489 m 0,0 c 0.8371,-1.4144 1.7296,-2.7945 2.6221,-4.1747" />
    <path
       inkscape:connector-curvature="0"
       id="path3298"
       qs:layer="0"
       style="fill:none;stroke:#000000;stroke-width:1.41111112;stroke-linecap:round;stroke-linejoin:round;stroke-miterlimit:4;stroke-dasharray:none;display:inline"
       d="m 145.07639,33.080415 c 0.6818,-1.3975 1.3635,-2.795 2.1098,-4.1569 m 0,0 c 0.8789,-1.6039 1.8474,-3.1583 2.8158,-4.7128" />
    <path
       inkscape:connector-curvature="0"
       id="path3304"
       qs:layer="0"
       style="fill:none;stroke:#000000;stroke-width:1.41111112;stroke-linecap:round;stroke-linejoin:round;stroke-miterlimit:4;stroke-dasharray:none;display:inline"
       d="m 140.72379,19.054115 c 1.4937,0.7378 2.9873,1.4757 4.4503,2.2713 m 0,0 c 1.6469,0.8957 3.2549,1.8646 4.8279,2.8853 m 0,0 c 0.6423,0.4167 1.2787,0.8421 1.9081,1.2775 m 0,0 c 0.623,0.431 1.2392,0.8718 1.8494,1.3211 m 0,0 c 1.3235,0.9747 2.619,1.9893 3.8664,3.0588 m 0,0 c 1.2201,1.046 2.3943,2.1445 3.5685,3.243" />
    <path
       inkscape:connector-curvature="0"
       id="path3310"
       qs:layer="0"
       style="fill:none;stroke:#000000;stroke-width:1.41111112;stroke-linecap:round;stroke-linejoin:round;stroke-miterlimit:4;stroke-dasharray:none;display:inline"
       d="m 138.84669,13.004815 c 0.5138,-0.5801 1.0276,-1.1603 1.5879,-1.6928 m 0,0 c 0.5353,-0.5088 1.1131,-0.9742 1.7157,-1.4049004 m 0,0 c 1.2176,-0.8703004 2.5367,-1.5994008 3.9209,-2.1678016 m 0,0 c 1.3504,-0.5545 2.7627,-0.9560001 4.2016,-1.2035001 m 0,0 c 1.439,-0.2475 2.9045,-0.3409 4.3626,-0.2694 m 0,0 c 1.4945,0.073 2.9812,0.3199 4.4194,0.7334 m 0,0 c 0.7119,0.2047001 1.412,0.4503001 2.0866,0.7510005 m 0,0 c 0.706,0.3148 1.3841,0.6899004 2.0621,1.0650004" />
    <path
       inkscape:connector-curvature="0"
       id="path3316"
       qs:layer="0"
       style="fill:none;stroke:#000000;stroke-width:1.41111112;stroke-linecap:round;stroke-linejoin:round;stroke-miterlimit:4;stroke-dasharray:none;display:inline"
       d="m 143.50329,15.016015 c 1.5828,0.8326 3.1657,1.6652 4.7122,2.5619 m 0,0 c 1.5129,0.8771 2.991,1.8155 4.4377,2.799 m 0,0 c 1.2852,0.8736 2.5457,1.7828 3.7796,2.7278 m 0,0 c 1.4533,1.113 2.8699,2.2756 4.2285,3.5013 m 0,0 c 1.1537,1.0408 2.2655,2.127 3.3773,3.2132" />
    <path
       inkscape:connector-curvature="0"
       id="path3322"
       qs:layer="0"
       style="fill:none;stroke:#000000;stroke-width:1.41111112;stroke-linecap:round;stroke-linejoin:round;stroke-miterlimit:4;stroke-dasharray:none;display:inline"
       d="m 156.43279,23.104715 c 1.1707,-1.4661 2.3415,-2.9322 3.5866,-4.3324 m 0,0 c 1.1061,-1.2439 2.271,-2.4358 3.4358,-3.6276" />
    <path
       inkscape:connector-curvature="0"
       id="path3328"
       qs:layer="0"
       style="fill:none;stroke:#000000;stroke-width:1.41111112;stroke-linecap:round;stroke-linejoin:round;stroke-miterlimit:4;stroke-dasharray:none;display:inline"
       d="m 146.95359,39.129713 c 0.5561,0.2505 1.1122,0.501001 1.6822,0.715501 m 0,0 c 0.5147,0.1937 1.0408,0.357999 1.5742,0.496601 m 0,0 c 1.0045,0.261098 2.0347,0.430999 3.0717,0.480799 m 0,0 c 0.955,0.046 1.9157,-0.01 2.8582,-0.1722 m 0,0 c 0.9425,-0.1621 1.8669,-0.430299 2.7517,-0.792599 m 0,0 c 0.9607,-0.393302 1.8748,-0.897602 2.7344,-1.479301 m 0,0 c 0.4563,-0.3088 0.8973,-0.639499 1.3178,-0.993998 m 0,0 c 0.4656,-0.392603 0.906,-0.814502 1.3465,-1.236402" />
    <path
       inkscape:connector-curvature="0"
       id="path3334"
       qs:layer="0"
       style="fill:none;stroke:#000000;stroke-width:1.41111112;stroke-linecap:round;stroke-linejoin:round;stroke-miterlimit:4;stroke-dasharray:none;display:inline"
       d="m 148.85699,35.232915 c 0.5529,0.2152 1.1057,0.430401 1.6741,0.594798 m 0,0 c 0.5667,0.1639 1.149,0.277402 1.7374,0.346001 m 0,0 c 1.0263,0.119601 2.0715,0.102501 3.0891,-0.072 m 0,0 c 1.0177,-0.1745 2.0077,-0.506498 2.936,-0.964299 m 0,0 c 1.0628,-0.5242 2.0447,-1.213401 2.9008,-2.0264 m 0,0 c 0.522,-0.4957 0.9972,-1.0375 1.4596,-1.589 m 0,0 c 0.4704,-0.561 0.9275,-1.1319 1.3846,-1.7029" />
    <path
       inkscape:connector-curvature="0"
       id="path3340"
       qs:layer="0"
       style="fill:none;stroke:#000000;stroke-width:1.41111112;stroke-linecap:round;stroke-linejoin:round;stroke-miterlimit:4;stroke-dasharray:none;display:inline"
       d="m 163.45519,15.144715 c 0.5706,-0.5735 1.1412,-1.1469 1.7466,-1.6845 m 0,0 c 0.6197,-0.5504 1.2759,-1.0632 1.9812,-1.4991 m 0,0 c 1.261,-0.7792 2.6792,-1.3124 4.1382,-1.614 m 0,0 c 1.3728,-0.2837 2.7816,-0.3625004 4.1726,-0.2344 m 0,0 c 1.3911,0.1282 2.7644,0.4633 4.062,0.9845 m 0,0 c 0.709,0.2848 1.3954,0.6252 2.0352,1.0356 m 0,0 c 0.6091,0.3908 1.176,0.8452 1.7429,1.2995" />
    <path
       inkscape:connector-curvature="0"
       id="path3346"
       qs:layer="0"
       style="fill:none;stroke:#000000;stroke-width:1.41111112;stroke-linecap:round;stroke-linejoin:round;stroke-miterlimit:4;stroke-dasharray:none;display:inline"
       d="m 174.63849,19.502715 c 1.3853,-1.0694 2.7707,-2.1388 4.2018,-3.1424 m 0,0 c 1.4629,-1.0258 2.9737,-1.9827 4.4936,-2.928 m 0,0 c 0.7655,-0.476 1.5332,-0.9491 2.3308,-1.3651 m 0,0 c 0.7017,-0.3659 1.4266,-0.6877 2.1514,-1.0094" />
    <path
       inkscape:connector-curvature="0"
       id="path3352"
       qs:layer="0"
       style="fill:none;stroke:#000000;stroke-width:1.41111112;stroke-linecap:round;stroke-linejoin:round;stroke-miterlimit:4;stroke-dasharray:none;display:inline"
       d="m 164.29029,36.148114 c 0.4678,-0.5145 0.9356,-1.0289 1.3902,-1.5547 m 0,0 c 0.4908,-0.5676 0.9663,-1.148501 1.4548,-1.718499 m 0,0 c 1.0462,-1.2206 2.1518,-2.391 3.3001,-3.5161 m 0,0 c 1.1739,-1.1502 2.3925,-2.2531 3.611,-3.3561" />
    <path
       inkscape:connector-curvature="0"
       id="path3358"
       qs:layer="0"
       style="fill:none;stroke:#000000;stroke-width:1.41111112;stroke-linecap:round;stroke-linejoin:round;stroke-miterlimit:4;stroke-dasharray:none;display:inline"
       d="m 164.03859,29.819215 c 1.0195,-1.1741 2.039,-2.3482 3.1116,-3.4712 m 0,0 c 1.2632,-1.3225 2.6002,-2.5742 3.9372,-3.826" />
    <path
       inkscape:connector-curvature="0"
       id="path3364"
       qs:layer="0"
       style="fill:none;stroke:#000000;stroke-width:1.41111112;stroke-linecap:round;stroke-linejoin:round;stroke-miterlimit:4;stroke-dasharray:none;display:inline"
       d="m 163.45519,15.144715 c 1.2525,1.0985 2.505,2.1969 3.7129,3.3433 m 0,0 c 1.3598,1.2905 2.6631,2.6418 3.9193,4.034 m 0,0 c 0.5128,0.5685 1.0178,1.1437 1.5135,1.7269 m 0,0 c 0.4906,0.5772 0.972,1.1622 1.4455,1.7538 m 0,0 c 1.0271,1.2834 2.0166,2.5981 2.9456,3.9534 m 0,0 c 0.9086,1.3255 1.7594,2.69 2.6101,4.0544" />
    <path
       inkscape:connector-curvature="0"
       id="path3370"
       qs:layer="0"
       style="fill:none;stroke:#000000;stroke-width:1.41111112;stroke-linecap:round;stroke-linejoin:round;stroke-miterlimit:4;stroke-dasharray:none;display:inline"
       d="m 163.20349,8.8158138 c 0.6462,-0.4278 1.2924,-0.8555004 1.9712,-1.2254008 m 0,0 c 0.6485,-0.3533 1.3269,-0.6537001 2.0203,-0.9142001 m 0,0 c 1.401,-0.5265 2.8636,-0.8903 4.3477,-1.082 m 0,0 c 1.4477,-0.187 2.9158,-0.2102 4.3698,-0.078 m 0,0 c 1.4541,0.1324 2.894,0.4205 4.2843,0.8661 m 0,0 c 1.4248,0.4567 2.7975,1.0788001 4.0801,1.8496005 m 0,0 c 0.635,0.3816004 1.2479,0.7996008 1.8219,1.2643012 m 0,0 c 0.6009,0.4864 1.1591,1.0239004 1.7173,1.5614004" />
    <path
       inkscape:connector-curvature="0"
       id="path3376"
       qs:layer="0"
       style="fill:none;stroke:#000000;stroke-width:1.41111112;stroke-linecap:round;stroke-linejoin:round;stroke-miterlimit:4;stroke-dasharray:none;display:inline"
       d="m 167.18299,11.961115 c 1.3142,1.2131 2.6284,2.4262 3.891,3.6918 m 0,0 c 1.2351,1.238 2.4208,2.5262 3.5645,3.8498 m 0,0 c 1.0161,1.1759 1.999,2.3797 2.9471,3.6113 m 0,0 c 1.1167,1.4505 2.1851,2.9394 3.1812,4.4743 m 0,0 c 0.8458,1.3034 1.6395,2.6398 2.4331,3.9763" />
    <path
       inkscape:connector-curvature="0"
       id="path3382"
       qs:layer="0"
       style="fill:none;stroke:#000000;stroke-width:1.41111112;stroke-linecap:round;stroke-linejoin:round;stroke-miterlimit:4;stroke-dasharray:none;display:inline"
       d="m 177.58559,23.114015 c 1.5096,-1.1142 3.0192,-2.2283 4.5837,-3.2595 m 0,0 c 1.3897,-0.9161 2.8228,-1.7668 4.2559,-2.6175" />
    <path
       inkscape:connector-curvature="0"
       id="path3388"
       qs:layer="0"
       style="fill:none;stroke:#000000;stroke-width:1.41111112;stroke-linecap:round;stroke-linejoin:round;stroke-miterlimit:4;stroke-dasharray:none;display:inline"
       d="m 164.29029,36.148114 c 0.4725,0.3856 0.9451,0.771201 1.4404,1.125601 m 0,0 c 0.4473,0.319998 0.9131,0.614598 1.3926,0.8862 m 0,0 c 0.9031,0.511599 1.8545,0.941799 2.8434,1.2576 m 0,0 c 0.9108,0.2909 1.8534,0.484798 2.8057,0.571598 m 0,0 c 0.9525,0.087 1.9147,0.066 2.8631,-0.055 m 0,0 c 1.0297,-0.132001 2.043,-0.383198 3.0236,-0.7232 m 0,0 c 0.5206,-0.1805 1.032,-0.386099 1.5298,-0.62 m 0,0 c 0.5512,-0.259099 1.0856,-0.553 1.6201,-0.8469" />
    <path
       inkscape:connector-curvature="0"
       id="path3394"
       qs:layer="0"
       style="fill:none;stroke:#000000;stroke-width:1.41111112;stroke-linecap:round;stroke-linejoin:round;stroke-miterlimit:4;stroke-dasharray:none;display:inline"
       d="m 167.13529,32.874915 c 0.4785,0.3506 0.9571,0.7013 1.4637,1.006799 m 0,0 c 0.5052,0.3048 1.0384,0.564702 1.5892,0.782899 m 0,0 c 0.9606,0.3805 1.9748,0.633902 3.0029,0.728102 m 0,0 c 1.0282,0.094 2.0704,0.029 3.0854,-0.173502 m 0,0 c 1.1622,-0.231997 2.2887,-0.644299 3.3256,-1.208698 m 0,0 c 0.6324,-0.344201 1.2314,-0.7449 1.8205,-1.1583 m 0,0 c 0.5993,-0.4205 1.1883,-0.854 1.7773,-1.2876" />
    <path
       inkscape:connector-curvature="0"
       id="path3400"
       qs:layer="0"
       style="fill:none;stroke:#000000;stroke-width:1.41111112;stroke-linecap:round;stroke-linejoin:round;stroke-miterlimit:4;stroke-dasharray:none;display:inline"
       d="m 186.42519,17.237015 c 0.6993,-0.4067 1.3986,-0.8133 2.1222,-1.1764 m 0,0 c 0.7409,-0.3717 1.5072,-0.6978 2.3011,-0.9367 m 0,0 c 1.4195,-0.4272 2.9273,-0.5762 4.4147,-0.4908 m 0,0 c 1.3995,0.08 2.7809,0.368 4.0916,0.8509 m 0,0 c 1.3109,0.483 2.551,1.1612 3.6701,1.9999 m 0,0 c 0.6114,0.4581 1.1866,0.9642 1.6988,1.5259 m 0,0 c 0.4875,0.5348 0.9179,1.1202 1.3483,1.7055" />
    <path
       inkscape:connector-curvature="0"
       id="path3406"
       qs:layer="0"
       style="fill:none;stroke:#000000;stroke-width:1.41111112;stroke-linecap:round;stroke-linejoin:round;stroke-miterlimit:4;stroke-dasharray:none;display:inline"
       d="m 196.10409,24.334715 c 1.6144,-0.6754 3.2289,-1.3509 4.8706,-1.9509 m 0,0 c 1.6782,-0.6133 3.3849,-1.1478 5.0973,-1.6685 m 0,0 c 0.8624,-0.2623 1.7262,-0.5211 2.6042,-0.717 m 0,0 c 0.7724,-0.1724 1.5558,-0.2961 2.3391,-0.4198" />
    <path
       inkscape:connector-curvature="0"
       id="path3412"
       qs:layer="0"
       style="fill:none;stroke:#000000;stroke-width:1.41111112;stroke-linecap:round;stroke-linejoin:round;stroke-miterlimit:4;stroke-dasharray:none;display:inline"
       d="m 181.80899,37.743816 c 0.5847,-0.376203 1.1695,-0.752402 1.7445,-1.143001 m 0,0 c 0.6207,-0.421702 1.2301,-0.8601 1.8491,-1.284602 m 0,0 c 1.3259,-0.9091 2.6962,-1.754299 4.0961,-2.544798 m 0,0 c 1.4311,-0.8081 2.8931,-1.559 4.3551,-2.3099" />
    <path
       inkscape:connector-curvature="0"
       id="path3418"
       qs:layer="0"
       style="fill:none;stroke:#000000;stroke-width:1.41111112;stroke-linecap:round;stroke-linejoin:round;stroke-miterlimit:4;stroke-dasharray:none;display:inline"
       d="m 183.19989,31.564615 c 1.2881,-0.8711 2.5761,-1.7421 3.9023,-2.5501 m 0,0 c 1.5619,-0.9516 3.1767,-1.8156 4.7916,-2.6797" />
    <path
       inkscape:connector-curvature="0"
       id="path3424"
       qs:layer="0"
       style="fill:none;stroke:#000000;stroke-width:1.41111112;stroke-linecap:round;stroke-linejoin:round;stroke-miterlimit:4;stroke-dasharray:none;display:inline"
       d="m 186.42519,17.237015 c 0.9264,1.3846 1.8528,2.7692 2.7237,4.1886 m 0,0 c 0.9805,1.5979 1.8907,3.2398 2.7449,4.9092 m 0,0 c 0.3487,0.6816 0.688,1.3677 1.0163,2.0591 m 0,0 c 0.3249,0.6843 0.639,1.3737 0.9437,2.0676 m 0,0 c 0.6608,1.505 1.2774,3.0306 1.825,4.5798 m 0,0 c 0.5355,1.5152 1.0051,3.0531 1.4747,4.5909" />
    <path
       inkscape:connector-curvature="0"
       id="path3430"
       qs:layer="0"
       style="fill:none;stroke:#000000;stroke-width:1.41111112;stroke-linecap:round;stroke-linejoin:round;stroke-miterlimit:4;stroke-dasharray:none;display:inline"
       d="m 187.81609,11.057815 c 0.7347,-0.2465 1.4695,-0.4929 2.2207,-0.6749 m 0,0 c 0.7178,-0.1739 1.4507,-0.289 2.1879,-0.3617 m 0,0 c 1.4894,-0.1468004 2.9964,-0.1207004 4.4796,0.077 m 0,0 c 1.4469,0.1931 2.8713,0.5497 4.2418,1.0531 m 0,0 c 1.3706,0.5034 2.6873,1.1535 3.9153,1.9429 m 0,0 c 1.2587,0.8091 2.4241,1.7645 3.4643,2.8404 m 0,0 c 0.5149,0.5326 0.9991,1.0947 1.4337,1.6918 m 0,0 c 0.4549,0.625 0.8554,1.2884 1.2559,1.9518" />
    <path
       inkscape:connector-curvature="0"
       id="path3436"
       qs:layer="0"
       style="fill:none;stroke:#000000;stroke-width:1.41111112;stroke-linecap:round;stroke-linejoin:round;stroke-miterlimit:4;stroke-dasharray:none;display:inline"
       d="m 190.84849,15.123915 c 0.9565,1.5113 1.9129,3.0225 2.8059,4.5712 m 0,0 c 0.8736,1.5149 1.6865,3.0656 2.4497,4.6396 m 0,0 c 0.678,1.3984 1.3168,2.8152 1.9148,4.2498 m 0,0 c 0.7043,1.6896 1.352,3.4039 1.918,5.144001 m 0,0 c 0.4806,1.477498 0.9023,2.973598 1.324,4.469697" />
    <path
       inkscape:connector-curvature="0"
       id="path3442"
       qs:layer="0"
       style="fill:none;stroke:#000000;stroke-width:1.41111112;stroke-linecap:round;stroke-linejoin:round;stroke-miterlimit:4;stroke-dasharray:none;display:inline"
       d="m 198.01889,28.584515 c 1.746,-0.6866 3.4921,-1.3732 5.2698,-1.9655 m 0,0 c 1.5791,-0.5262 3.1832,-0.9781 4.7874,-1.4299" />
    <path
       inkscape:connector-curvature="0"
       id="path3448"
       qs:layer="0"
       style="fill:none;stroke:#000000;stroke-width:1.41111112;stroke-linecap:round;stroke-linejoin:round;stroke-miterlimit:4;stroke-dasharray:none;display:inline"
       d="m 181.80899,37.743816 c 0.3569,0.494597 0.7139,0.989098 1.1009,1.459399 m 0,0 c 0.3495,0.4246 0.7235,0.829499 1.1165,1.2157 m 0,0 c 0.7404,0.727499 1.5485,1.3887 2.4224,1.9491 m 0,0 c 0.8047,0.516199 1.6653,0.946898 2.563,1.276599 m 0,0 c 0.8977,0.329799 1.8326,0.558501 2.7803,0.686 m 0,0 c 1.0287,0.1383 2.0726,0.1573 3.1077,0.082 m 0,0 c 0.5496,-0.04 1.0968,-0.106601 1.638,-0.2041 m 0,0 c 0.5994,-0.107899 1.1916,-0.253898 1.7838,-0.399799" />
    <path
       inkscape:connector-curvature="0"
       id="path3454"
       qs:layer="0"
       style="fill:none;stroke:#000000;stroke-width:1.41111112;stroke-linecap:round;stroke-linejoin:round;stroke-miterlimit:4;stroke-dasharray:none;display:inline"
       d="m 185.40259,35.316213 c 0.3718,0.4623 0.7436,0.924603 1.1541,1.3506 m 0,0 c 0.4094,0.4249 0.8574,0.8137 1.3332,1.166602 m 0,0 c 0.8298,0.615699 1.7442,1.122398 2.7131,1.4788 m 0,0 c 0.9691,0.3565 1.9927,0.5627 3.0256,0.629 m 0,0 c 1.1827,0.076 2.3774,-0.032 3.5249,-0.309 m 0,0 c 0.6998,-0.1692 1.3819,-0.401701 2.0578,-0.649001 m 0,0 c 0.6875,-0.251499 1.3686,-0.518301 2.0496,-0.785001" />
    <path
       inkscape:connector-curvature="0"
       id="path3460"
       qs:layer="0"
       style="fill:none;stroke:#000000;stroke-width:1.41111112;stroke-linecap:round;stroke-linejoin:round;stroke-miterlimit:4;stroke-dasharray:none;display:inline"
       d="m 208.07609,25.189115 c 0.7806,-0.2123 1.5612,-0.4246 2.354,-0.5885 m 0,0 c 0.8117,-0.1679 1.6362,-0.285 2.4649,-0.3109 m 0,0 c 1.4817,-0.046 2.9768,0.1992 4.3917,0.6657 m 0,0 c 1.3313,0.4389 2.5916,1.0735 3.7332,1.8785 m 0,0 c 1.1417,0.8051 2.1647,1.7805 3.0293,2.8797 m 0,0 c 0.4724,0.6005 0.8974,1.2379 1.2472,1.9128 m 0,0 c 0.3329,0.6426 0.5976,1.3192 0.8622,1.9957" />
    <path
       inkscape:connector-curvature="0"
       id="path3466"
       qs:layer="0"
       style="fill:none;stroke:#000000;stroke-width:1.41111112;stroke-linecap:round;stroke-linejoin:round;stroke-miterlimit:4;stroke-dasharray:none;display:inline"
       d="m 215.59419,34.545213 c 1.7341,-0.235698 3.4682,-0.471398 5.2092,-0.627199 m 0,0 c 1.7797,-0.159199 3.5664,-0.234899 5.3552,-0.295899 m 0,0 c 0.9009,-0.031 1.8023,-0.058 2.7011,-0.02001 m 0,0 c 0.7907,0.033 1.5794,0.115601 2.3682,0.1984" />
    <path
       inkscape:connector-curvature="0"
       id="path3472"
       qs:layer="0"
       style="fill:none;stroke:#000000;stroke-width:1.41111112;stroke-linecap:round;stroke-linejoin:round;stroke-miterlimit:4;stroke-dasharray:none;display:inline"
       d="m 198.32159,43.808715 c 0.6621,-0.212502 1.3241,-0.4249 1.9805,-0.653802 m 0,0 c 0.7085,-0.2471 1.4105,-0.5133 2.1181,-0.7636 m 0,0 c 1.5156,-0.535999 3.0577,-0.9987 4.6142,-1.400999 m 0,0 c 1.5913,-0.411201 3.1976,-0.759099 4.8039,-1.107099" />
    <path
       inkscape:connector-curvature="0"
       id="path3478"
       qs:layer="0"
       style="fill:none;stroke:#000000;stroke-width:1.41111112;stroke-linecap:round;stroke-linejoin:round;stroke-miterlimit:4;stroke-dasharray:none;display:inline"
       d="m 201.26089,38.198213 c 1.4692,-0.508999 2.9385,-1.017998 4.4284,-1.4561 m 0,0 c 1.7546,-0.5161 3.5378,-0.933899 5.3209,-1.351698" />
    <path
       inkscape:connector-curvature="0"
       id="path3484"
       qs:layer="0"
       style="fill:none;stroke:#000000;stroke-width:1.41111112;stroke-linecap:round;stroke-linejoin:round;stroke-miterlimit:4;stroke-dasharray:none;display:inline"
       d="m 208.07609,25.189115 c 0.5374,1.5768 1.0749,3.1537 1.5499,4.7499 m 0,0 c 0.5347,1.7968 0.9901,3.618099 1.3842,5.4514 m 0,0 c 0.1609,0.748499 0.3116,1.498998 0.4503,2.251699 m 0,0 c 0.1372,0.744999 0.2626,1.4921 0.3778,2.241101 m 0,0 c 0.2499,1.624598 0.4516,3.2577 0.5806,4.895698 m 0,0 c 0.1262,1.602201 0.1828,3.209101 0.2394,4.8161" />
    <path
       inkscape:connector-curvature="0"
       id="path3490"
       qs:layer="0"
       style="fill:none;stroke:#000000;stroke-width:1.41111112;stroke-linecap:round;stroke-linejoin:round;stroke-miterlimit:4;stroke-dasharray:none;display:inline"
       d="m 211.01529,19.578515 c 0.7735,-0.048 1.5469,-0.097 2.3197,-0.079 m 0,0 c 0.7383,0.017 1.4761,0.095 2.2071,0.2155 m 0,0 c 1.4768,0.2427 2.9259,0.657 4.3077,1.2313 m 0,0 c 1.348,0.5601 2.632,1.2724 3.826,2.1125 m 0,0 c 1.1942,0.8402 2.2984,1.8083 3.281,2.888 m 0,0 c 1.007,1.1067 1.8863,2.3306 2.6134,3.6386 m 0,0 c 0.3599,0.6474 0.6826,1.3155 0.9483,2.0046 m 0,0 c 0.278,0.7212 0.4937,1.4656 0.7094,2.2099" />
    <path
       inkscape:connector-curvature="0"
       id="path3496"
       qs:layer="0"
       style="fill:none;stroke:#000000;stroke-width:1.41111112;stroke-linecap:round;stroke-linejoin:round;stroke-miterlimit:4;stroke-dasharray:none;display:inline"
       d="m 212.89499,24.289715 c 0.5338,1.707 1.0676,3.414 1.5305,5.1407 m 0,0 c 0.4528,1.6891 0.8378,3.3971 1.1687,5.114798 m 0,0 c 0.2939,1.526001 0.5453,3.059701 0.7526,4.600002 m 0,0 c 0.2442,1.814198 0.4273,3.637698 0.5248,5.464898 m 0,0 c 0.0828,1.5515 0.1039,3.1057 0.1251,4.659901" />
    <path
       inkscape:connector-curvature="0"
       id="path3502"
       qs:layer="0"
       style="fill:none;stroke:#000000;stroke-width:1.41111112;stroke-linecap:round;stroke-linejoin:round;stroke-miterlimit:4;stroke-dasharray:none;display:inline"
       d="m 216.34679,39.145215 c 1.8641,-0.2124 3.7282,-0.424902 5.5986,-0.5382 m 0,0 c 1.6615,-0.100601 3.3279,-0.1229 4.9943,-0.1453" />
    <path
       inkscape:connector-curvature="0"
       id="path3508"
       qs:layer="0"
       style="fill:none;stroke:#000000;stroke-width:1.41111112;stroke-linecap:round;stroke-linejoin:round;stroke-miterlimit:4;stroke-dasharray:none;display:inline"
       d="m 198.32159,43.808715 c 0.2172,0.569899 0.4344,1.139898 0.6868,1.6942 m 0,0 c 0.228,0.500399 0.4848,0.988099 0.7648,1.462698 m 0,0 c 0.5275,0.894001 1.1374,1.741402 1.8369,2.508501 m 0,0 c 0.6443,0.7064 1.3644,1.344699 2.1465,1.8951 m 0,0 c 0.7822,0.550299 1.6263,1.012701 2.5089,1.380498 m 0,0 c 0.9582,0.399303 1.9618,0.687102 2.9813,0.881601 m 0,0 c 0.5412,0.103301 1.087,0.1803 1.6351,0.2258 m 0,0 c 0.607,0.051 1.2167,0.062 1.8265,0.074" />
    <path
       inkscape:connector-curvature="0"
       id="path3514"
       qs:layer="0"
       style="fill:none;stroke:#000000;stroke-width:1.41111112;stroke-linecap:round;stroke-linejoin:round;stroke-miterlimit:4;stroke-dasharray:none;display:inline"
       d="m 202.42019,42.391313 c 0.2398,0.5426 0.4796,1.085201 0.7663,1.602802 m 0,0 c 0.2858,0.5161 0.6182,1.007398 0.9867,1.471298 m 0,0 c 0.6428,0.809001 1.3953,1.5346 2.2393,2.129101 m 0,0 c 0.8442,0.5946 1.7799,1.058099 2.7606,1.388901 m 0,0 c 1.123,0.378699 2.305,0.583398 3.4852,0.611598 m 0,0 c 0.7197,0.01699 1.4388,-0.031 2.1556,-0.096 m 0,0 c 0.7292,-0.065 1.456,-0.147402 2.1828,-0.2293" />
    <path
       inkscape:connector-curvature="0"
       id="path3520"
       qs:layer="0"
       style="fill:none;stroke:#000000;stroke-width:1.41111112;stroke-linecap:round;stroke-linejoin:round;stroke-miterlimit:4;stroke-dasharray:none;display:inline"
       d="m 226.93969,38.461715 c 0.8089,0 1.6179,-0.01 2.4261,0.039 m 0,0 c 0.8276,0.048 1.6543,0.147202 2.4616,0.3362 m 0,0 c 1.4434,0.337801 2.8244,0.961001 4.0709,1.777001 m 0,0 c 1.1729,0.7678 2.2266,1.706302 3.1216,2.778701 m 0,0 c 0.8952,1.0726 1.6316,2.279101 2.1831,3.564199 m 0,0 c 0.3013,0.702102 0.5474,1.427602 0.711,2.17 m 0,0 c 0.1557,0.7067 0.2367,1.4287 0.3177,2.1507" />
    <path
       inkscape:connector-curvature="0"
       id="path3526"
       qs:layer="0"
       style="fill:none;stroke:#000000;stroke-width:1.41111112;stroke-linecap:round;stroke-linejoin:round;stroke-miterlimit:4;stroke-dasharray:none;display:inline"
       d="m 231.78709,49.441715 c 1.7362,0.2201 3.4724,0.440098 5.1946,0.739098 m 0,0 c 1.7604,0.3057 3.5061,0.6939 5.25,1.096902 m 0,0 c 0.8783,0.202898 1.7561,0.4096 2.6147,0.677799 m 0,0 c 0.7554,0.235901 1.49608,0.5195 2.23669,0.8031" />
    <path
       inkscape:connector-curvature="0"
       id="path3532"
       qs:layer="0"
       style="fill:none;stroke:#000000;stroke-width:1.41111112;stroke-linecap:round;stroke-linejoin:round;stroke-miterlimit:4;stroke-dasharray:none;display:inline"
       d="m 212.70839,53.931414 c 0.6945,-0.034 1.389,-0.069 2.0822,-0.1203 m 0,0 c 0.7483,-0.056 1.4952,-0.131699 2.2434,-0.1908 m 0,0 c 1.6027,-0.126401 3.2119,-0.175299 4.8195,-0.1621 m 0,0 c 1.6435,0.014 3.2852,0.092 4.9269,0.170799" />
    <path
       inkscape:connector-curvature="0"
       id="path3538"
       qs:layer="0"
       style="fill:none;stroke:#000000;stroke-width:1.41111112;stroke-linecap:round;stroke-linejoin:round;stroke-miterlimit:4;stroke-dasharray:none;display:inline"
       d="m 216.99669,49.270014 c 1.5508,-0.112299 3.1017,-0.2247 4.6542,-0.263299 m 0,0 c 1.8283,-0.046 3.6589,0.01101 5.4895,0.068" />
    <path
       inkscape:connector-curvature="0"
       id="path3544"
       qs:layer="0"
       style="fill:none;stroke:#000000;stroke-width:1.41111112;stroke-linecap:round;stroke-linejoin:round;stroke-miterlimit:4;stroke-dasharray:none;display:inline"
       d="m 226.93969,38.461715 c 0.1121,1.662199 0.2242,3.324299 0.2709,4.988998 m 0,0 c 0.0526,1.874001 0.0224,3.7511 -0.0702,5.624 m 0,0 c -0.0378,0.7646 -0.086,1.528601 -0.1464,2.2916 m 0,0 c -0.0598,0.755099 -0.1315,1.5094 -0.2136,2.2627 m 0,0 c -0.1781,1.634001 -0.4049,3.263801 -0.7032,4.879599 m 0,0 c -0.2917,1.580402 -0.6519,3.1475 -1.0121,4.714601" />
    <path
       inkscape:connector-curvature="0"
       id="path3550"
       qs:layer="0"
       style="fill:none;stroke:#000000;stroke-width:1.41111112;stroke-linecap:round;stroke-linejoin:round;stroke-miterlimit:4;stroke-dasharray:none;display:inline"
       d="m 231.22789,33.800313 c 0.7597,0.152902 1.5194,0.305901 2.2613,0.522901 m 0,0 c 0.7088,0.2074 1.4014,0.473301 2.0766,0.778101 m 0,0 c 1.364,0.615801 2.657,1.390199 3.8438,2.301799 m 0,0 c 1.1576,0.8892 2.2141,1.908799 3.1508,3.0288 m 0,0 c 0.9367,1.119999 1.7535,2.340399 2.424,3.637199 m 0,0 c 0.6872,1.3291 1.22059,2.7386 1.58539,4.189902 m 0,0 c 0.18051,0.7184 0.31981,1.4471 0.39849,2.181499 m 0,0 c 0.0824,0.768601 0.0986,1.543301 0.11481,2.3181" />
    <path
       inkscape:connector-curvature="0"
       id="path3556"
       qs:layer="0"
       style="fill:none;stroke:#000000;stroke-width:1.41111112;stroke-linecap:round;stroke-linejoin:round;stroke-miterlimit:4;stroke-dasharray:none;display:inline"
       d="m 231.82739,38.837113 c 0.075,1.786902 0.15,3.5738 0.1513,5.3615 m 0,0 c 0.001,1.748802 -0.0678,3.498201 -0.1916,5.243102 m 0,0 c -0.11,1.550199 -0.2632,3.096799 -0.4606,4.638399 m 0,0 c -0.2325,1.815699 -0.5264,3.624599 -0.904,5.415 m 0,0 c -0.3205,1.5203 -0.7014,3.027299 -1.0823,4.534298" />
    <path
       inkscape:connector-curvature="0"
       id="path3562"
       qs:layer="0"
       style="fill:none;stroke:#000000;stroke-width:1.41111112;stroke-linecap:round;stroke-linejoin:round;stroke-miterlimit:4;stroke-dasharray:none;display:inline"
       d="m 231.32649,54.080114 c 1.8558,0.276101 3.7116,0.5521 5.5477,0.925598 m 0,0 c 1.6312,0.3318 3.2468,0.740402 4.8625,1.149102" />
    <path
       inkscape:connector-curvature="0"
       id="path3568"
       qs:layer="0"
       style="fill:none;stroke:#000000;stroke-width:1.41111112;stroke-linecap:round;stroke-linejoin:round;stroke-miterlimit:4;stroke-dasharray:none;display:inline"
       d="m 212.70839,53.931414 c 0.0627,0.606698 0.1253,1.2134 0.2262,1.814099 m 0,0 c 0.091,0.542301 0.2131,1.079802 0.3611,1.6106 m 0,0 c 0.2788,0.9998 0.6492,1.976001 1.127,2.897699 m 0,0 c 0.44,0.848801 0.9709,1.651401 1.5844,2.385001 m 0,0 c 0.6136,0.733699 1.3097,1.398301 2.0674,1.981601 m 0,0 c 0.8226,0.633101 1.7178,1.170299 2.6525,1.6214 m 0,0 c 0.4963,0.239599 1.0036,0.454799 1.5214,0.640399 m 0,0 c 0.5733,0.205399 1.1594,0.374399 1.7454,0.543399" />
    <path
       inkscape:connector-curvature="0"
       id="path3574"
       qs:layer="0"
       style="fill:none;stroke:#000000;stroke-width:1.41111112;stroke-linecap:round;stroke-linejoin:round;stroke-miterlimit:4;stroke-dasharray:none;display:inline"
       d="m 217.03399,53.620314 c 0.0916,0.586199 0.1832,1.172301 0.3265,1.746298 m 0,0 c 0.1429,0.572502 0.3372,1.132903 0.5734,1.676203 m 0,0 c 0.412,0.947598 0.9517,1.842798 1.6136,2.635097 m 0,0 c 0.6621,0.792401 1.4464,1.481803 2.3084,2.054502 m 0,0 c 0.9871,0.655899 2.0762,1.158799 3.2092,1.490799 m 0,0 c 0.6908,0.202399 1.398,0.341202 2.1072,0.464101 m 0,0 c 0.7213,0.124999 1.4446,0.233598 2.1679,0.342098" />
    <path
       inkscape:connector-curvature="0"
       id="path3580"
       qs:layer="0"
       style="fill:none;stroke:#000000;stroke-width:1.41111112;stroke-linecap:round;stroke-linejoin:round;stroke-miterlimit:4;stroke-dasharray:none;display:inline"
       d="m 241.73669,56.154814 c -0.1366,0.334301 -0.2731,0.6685 -0.4281,0.994898 m 0,0 c -0.6453,1.358703 -1.6103,2.580101 -2.7472,3.575502 m 0,0 c -0.567,0.4964 -1.1768,0.936599 -1.8205,1.320199 m 0,0 c -0.6436,0.3835 -1.3213,0.7105 -2.0218,0.983499 m 0,0 c -1.3876,0.540803 -2.8653,0.8703 -4.3479,0.962101 m 0,0 c -0.3435,0.021 -0.6872,0.03 -1.031,0.038" />
    <path
       inkscape:connector-curvature="0"
       id="path3586"
       qs:layer="0"
       style="fill:none;stroke:#000000;stroke-width:1.41111112;stroke-linecap:round;stroke-linejoin:round;stroke-miterlimit:4;stroke-dasharray:none;display:inline"
       d="m 246.187,57.685613 c -0.26301,0.653499 -0.52601,1.306999 -0.84421,1.935 m 0,0 c -0.9159,1.8078 -2.2886,3.405101 -3.8808,4.6757 m 0,0 c -0.7936,0.633301 -1.6417,1.185401 -2.5325,1.660999 m 0,0 c -0.8917,0.4761 -1.8262,0.875702 -2.786,1.195502 m 0,0 c -1.9009,0.633399 -3.9013,0.954199 -5.9084,1.0675 m 0,0 c -0.7277,0.041 -1.4563,0.055 -2.1768,-0.016 m 0,0 c -0.712,-0.07 -1.4161,-0.223402 -2.1189,-0.372503 m 0,0 c -0.6493,-0.137699 -1.2974,-0.271898 -1.9456,-0.405999" />
    <path
       inkscape:connector-curvature="0"
       id="path3592"
       qs:layer="0"
       style="fill:none;stroke:#000000;stroke-width:1.41111112;stroke-linecap:round;stroke-linejoin:round;stroke-miterlimit:4;stroke-dasharray:none;display:inline"
       d="m 241.73669,56.154814 c 0.7886,0.1912 1.5773,0.3824 2.3338,0.6643 m 0,0 c 0.713,0.2658 1.3975,0.612101 2.11651,0.866499 m 0,0 c 0.35187,0.124499 0.71199,0.226901 1.05737,0.3664 m 0,0 c 0.79962,0.3228 1.52093,0.843901 2.14232,1.455601 m 0,0 c 0.6442,0.634198 1.18119,1.365699 1.58558,2.166998 m 0,0 c 0.40502,0.802502 0.67722,1.675102 0.79483,2.569001 m 0,0 c 0.11368,0.864001 0.0831,1.748 -0.11061,2.596699 m 0,0 c -0.18409,0.806602 -0.51562,1.581302 -0.98721,2.264201 m 0,0 c -0.45331,0.656401 -1.03609,1.227901 -1.70648,1.6505 m 0,0 c -0.3326,0.2097 -0.68682,0.382699 -1.04742,0.538901 m 0,0 c -0.36028,0.1561 -0.727,0.295399 -1.0929,0.436798 m 0,0 c -1.48049,0.572101 -2.94819,1.177702 -4.42209,1.767501 m 0,0 c -1.4738,0.5898 -2.9538,1.163899 -4.4218,1.7674 m 0,0 c -0.3629,0.1492 -0.7251,0.300299 -1.0932,0.436999 m 0,0 c -0.3678,0.136601 -0.7415,0.258902 -1.1234,0.349202 m 0,0 c -0.7536,0.178198 -1.5394,0.231399 -2.315,0.1711 m 0,0 c -0.7473,-0.058 -1.4851,-0.221601 -2.1799,-0.4997 m 0,0 c -0.656,-0.262602 -1.2737,-0.627301 -1.806,-1.093701 m 0,0 c -0.5081,-0.445299 -0.9384,-0.983299 -1.2477,-1.5829 m 0,0 c -0.3099,-0.600699 -0.4984,-1.2633 -0.5678,-1.9378 m 0,0 c -0.0732,-0.710901 -0.0142,-1.4351 0.1669,-2.1216 m 0,0 c 0.0699,-0.264699 0.1579,-0.5239 0.2458,-0.783099" />
    <path
       inkscape:connector-curvature="0"
       id="path3598"
       qs:layer="0"
       style="fill:none;stroke:#000000;stroke-width:1.41111112;stroke-linecap:round;stroke-linejoin:round;stroke-miterlimit:4;stroke-dasharray:none;display:inline"
       d="m 247.08308,52.758614 c 0.49141,0.154499 0.98281,0.308999 1.4598,0.501099 m 0,0 c 1.39982,0.563801 2.67541,1.451901 3.76961,2.5114 m 0,0 c 1.14729,1.111002 2.09519,2.4105 2.80639,3.831601 m 0,0 c 0.7112,1.4213 1.1855,2.964299 1.37919,4.545201 m 0,0 c 0.18472,1.507698 0.1141,3.049899 -0.25499,4.522399 m 0,0 c -0.34419,1.373 -0.94798,2.685398 -1.80029,3.8204 m 0,0 c -0.8086,1.076698 -1.84071,1.9939 -3.00931,2.644899 m 0,0 c -0.57838,0.322301 -1.1903,0.5794 -1.8115,0.807099 m 0,0 c -0.6206,0.227601 -1.25058,0.4258 -1.87878,0.629802 m 0,0 c -1.25451,0.407498 -2.50171,0.838098 -3.75241,1.257799 m 0,0 c -1.2508,0.419699 -2.5052,0.8285 -3.7525,1.2578 m 0,0 c -0.6246,0.215 -1.2473,0.435099 -1.8788,0.629799 m 0,0 c -0.6313,0.1946 -1.2712,0.364001 -1.9216,0.479701 m 0,0 c -1.2792,0.2277 -2.5986,0.248099 -3.8943,0.093 m 0,0 c -1.2299,-0.146902 -2.4383,-0.451601 -3.5777,-0.933402 m 0,0 c -1.0459,-0.4422 -2.0336,-1.0336 -2.8829,-1.7905 m 0,0 c -0.7888,-0.7029 -1.4583,-1.5485 -1.9291,-2.492098 m 0,0 c -0.4709,-0.943401 -0.7432,-1.9847 -0.8345,-3.038701 m 0,0 c -0.0984,-1.135101 0.0132,-2.284801 0.2992,-3.380399 m 0,0 c 0.1084,-0.415301 0.2418,-0.822802 0.3752,-1.230302" />
  </g>
</svg>
