<?xml version="1.0" encoding="UTF-8" standalone="no"?>
<!-- 2019-08-30 11:23:15 Generated by QCAD 3.23.0 SVG Exporter -->

<svg
   xmlns:dc="http://purl.org/dc/elements/1.1/"
   xmlns:cc="http://creativecommons.org/ns#"
   xmlns:rdf="http://www.w3.org/1999/02/22-rdf-syntax-ns#"
   xmlns:svg="http://www.w3.org/2000/svg"
   xmlns="http://www.w3.org/2000/svg"
   xmlns:sodipodi="http://sodipodi.sourceforge.net/DTD/sodipodi-0.dtd"
   xmlns:inkscape="http://www.inkscape.org/namespaces/inkscape"
   width="1200"
   height="640"
   viewBox="-53.9875 -30.073 338.66667 180.62222"
   version="1.1"
   style="fill:none;stroke-linecap:round;stroke-linejoin:round"
   id="svg2"
   inkscape:version="0.48.5 r10040"
   sodipodi:docname="CurtainRope.svg">
  <metadata
     id="metadata138">
    <rdf:RDF>
      <cc:Work
         rdf:about="">
        <dc:format>image/svg+xml</dc:format>
        <dc:type
           rdf:resource="http://purl.org/dc/dcmitype/StillImage" />
        <dc:title></dc:title>
      </cc:Work>
    </rdf:RDF>
  </metadata>
  <defs
     id="defs136" />
  <sodipodi:namedview
     pagecolor="#ffffff"
     bordercolor="#666666"
     borderopacity="1"
     objecttolerance="10"
     gridtolerance="10"
     guidetolerance="10"
     inkscape:pageopacity="0"
     inkscape:pageshadow="2"
     inkscape:window-width="1920"
     inkscape:window-height="1018"
     id="namedview134"
     showgrid="false"
     inkscape:zoom="1.2066667"
     inkscape:cx="594.83506"
     inkscape:cy="320"
     inkscape:window-x="-8"
     inkscape:window-y="-8"
     inkscape:window-maximized="1"
     inkscape:current-layer="layer2"
     fit-margin-top="10"
     fit-margin-left="10"
     fit-margin-right="10"
     fit-margin-bottom="10"
     borderlayer="false" />
  <g
     inkscape:groupmode="layer"
     id="layer2"
     inkscape:label="BaseLine">
    <path
       style="fill:#ff0000;stroke-linecap:round;stroke-linejoin:miter;stroke:#ff0000;stroke-width:1.41111111999999990;stroke-miterlimit:4;stroke-opacity:1;stroke-dasharray:none"
       d="m -29.207096,56.998362 287.785236,1.02193"
       id="path3790"
       inkscape:connector-curvature="0" />
  </g>
  <g
     inkscape:groupmode="layer"
     id="layer1"
     inkscape:label="Painters">
    <path
       inkscape:connector-curvature="0"
       id="path6"
       style="fill:none;stroke:#000000;stroke-width:1.41111112;stroke-linecap:round;stroke-linejoin:round;stroke-miterlimit:4;stroke-opacity:1;stroke-dasharray:none"
       d="m 51.649027,33.674332 c 4.476266,4.098479 8.952374,8.196776 13.4313,12.292326 4.478763,4.09572 8.960185,8.18834 13.431304,12.2925 4.470952,4.104163 8.931434,8.219869 13.431134,12.292502 3.452501,3.124725 6.927932,6.223952 10.305325,9.431373 1.02444,0.972893 2.0399,1.955775 3.12598,2.860958 2.80062,2.334112 6.0705,4.15137 9.62769,4.962828 3.55718,0.811633 7.40151,0.617297 10.73121,-0.692926 3.32954,-1.310396 6.14445,-3.736852 8.95919,-6.163309" />
    <path
       inkscape:connector-curvature="0"
       id="path8"
       style="fill:none;stroke:#000000;stroke-width:1.41111112;stroke-linecap:round;stroke-linejoin:round;stroke-miterlimit:4;stroke-opacity:1;stroke-dasharray:none"
       d="m 134.69216,80.950584 c -4.46431,-4.11243 -8.92861,-8.224863 -13.41053,-12.316793 -4.48192,-4.09193 -8.98146,-8.16336 -13.45208,-12.268037 C 103.80527,52.670764 99.804404,48.948901 95.755521,45.28114 91.851372,41.744823 87.902523,38.258825 84.081458,34.631198 83.060684,33.662102 82.049043,32.682834 80.967115,31.780925 78.166994,29.446296 74.896616,27.629383 71.339427,26.818097 67.782073,26.006634 63.937748,26.2008 60.608211,27.511025 c -3.329533,1.310398 -6.144279,3.736851 -8.959184,6.163307" />
    <path
       inkscape:connector-curvature="0"
       id="path10"
       style="fill:none;stroke:#000000;stroke-width:1.41111112;stroke-linecap:round;stroke-linejoin:round;stroke-miterlimit:4;stroke-opacity:1;stroke-dasharray:none"
       d="m 175.66693,42.581056 c -3.05519,-2.744839 -6.11021,-5.489667 -9.08913,-8.318411 -1.02061,-0.969274 -2.03242,-1.948365 -3.11435,-2.850274 -2.80028,-2.334455 -6.0705,-4.151541 -9.62768,-4.962827 -3.55736,-0.811464 -7.40169,-0.617297 -10.73123,0.692927 -3.32954,1.310398 -6.14428,3.736851 -8.95919,6.163307" />
    <path
       inkscape:connector-curvature="0"
       id="path12"
       style="fill:none;stroke:#000000;stroke-width:1.41111112;stroke-linecap:round;stroke-linejoin:round;stroke-miterlimit:4;stroke-opacity:1;stroke-dasharray:none"
       d="m 134.14535,33.305778 c 3.46014,3.166762 6.92029,6.333524 10.38044,9.500283 3.46015,3.166592 6.9203,6.333354 10.38044,9.500112 3.45998,3.166762 6.92012,6.333524 10.38027,9.50029 3.46014,3.166762 6.92028,6.333525 10.38043,9.500285" />
    <path
       inkscape:connector-curvature="0"
       id="path14"
       style="fill:none;stroke:#000000;stroke-width:1.41111112;stroke-linecap:round;stroke-linejoin:round;stroke-miterlimit:4;stroke-opacity:1;stroke-dasharray:none"
       d="m 175.27228,33.305778 c 1.51629,1.254577 3.03259,2.509323 4.54888,3.7639" />
    <path
       inkscape:connector-curvature="0"
       id="path16"
       style="fill:none;stroke:#000000;stroke-width:1.41111112;stroke-linecap:round;stroke-linejoin:round;stroke-miterlimit:4;stroke-opacity:1;stroke-dasharray:none"
       d="M 52.043675,80.950584 C 50.52738,79.69601 49.011086,78.44126 47.494791,77.186683" />
    <path
       inkscape:connector-curvature="0"
       id="path18"
       style="fill:none;stroke:#000000;stroke-width:1.41111112;stroke-linecap:round;stroke-linejoin:round;stroke-miterlimit:4;stroke-opacity:1;stroke-dasharray:none"
       d="m 14.240148,31.469777 c -0.695083,0.0063 -1.390169,0.01219 -2.077112,0 C 4.1229292,31.329863 -2.7961958,28.732178 -10.685256,22.855551 -16.119322,18.807727 -22.013349,13.204 -25.22507,14.241325 c -3.781516,1.221496 -3.844162,11.649709 -4.017311,20.014295 -0.195429,9.436711 -0.531576,16.246772 -0.531576,23.056836 0,6.810061 0.336158,13.620126 0.531576,23.056841 0.173153,8.364585 0.235774,18.792797 4.017311,20.014293 3.211721,1.03733 9.105748,-4.566402 14.539814,-8.614224 7.8890602,-5.876628 14.8081852,-8.474332 22.848292,-8.614228 0.686943,-0.01204 1.382029,-0.006 2.077112,0" />
    <path
       inkscape:connector-curvature="0"
       id="path20"
       style="fill:none;stroke:#000000;stroke-width:1.41111112;stroke-linecap:round;stroke-linejoin:round;stroke-miterlimit:4;stroke-opacity:1;stroke-dasharray:none"
       d="m 213.07578,82.786586 c 0.69359,-0.0098 1.38718,-0.01932 2.07712,0 8.07516,0.22674 15.64434,4.43357 22.84828,8.614228 4.96215,2.879733 9.75098,5.746894 14.53981,8.614226" />
    <path
       inkscape:connector-curvature="0"
       id="path22"
       style="fill:none;stroke:#000000;stroke-width:1.41111112;stroke-linecap:round;stroke-linejoin:round;stroke-miterlimit:4;stroke-opacity:1;stroke-dasharray:none"
       d="m 213.07578,31.101224 c 0.69359,0.0096 1.38718,0.01921 2.07712,0 8.07516,-0.226752 15.64434,-4.433568 22.84828,-8.614226 4.96215,-2.879735 9.75098,-5.746896 14.53981,-8.614227" />
    <path
       inkscape:connector-curvature="0"
       id="path24"
       style="fill:none;stroke:#000000;stroke-width:1.41111112;stroke-linecap:round;stroke-linejoin:round;stroke-miterlimit:4;stroke-opacity:1;stroke-dasharray:none"
       d="m 252.54099,13.872771 c 3.10521,14.356989 6.21058,28.714143 6.21058,43.071132 0,14.356987 -3.10537,28.71415 -6.21058,43.071137" />
    <path
       inkscape:connector-curvature="0"
       id="path26"
       style="fill:none;stroke:#000000;stroke-width:1.41111112;stroke-linecap:round;stroke-linejoin:round;stroke-miterlimit:4;stroke-opacity:1;stroke-dasharray:none"
       d="m 14.240148,83.155138 c 0,-17.228456 0,-34.456912 0,-51.685361" />
    <path
       inkscape:connector-curvature="0"
       id="path28"
       style="fill:none;stroke:#000000;stroke-width:1.41111112;stroke-linecap:round;stroke-linejoin:round;stroke-miterlimit:4;stroke-opacity:1;stroke-dasharray:none"
       d="m 208.90078,28.947667 c 0,18.664102 0,37.32837 0,55.992476" />
    <path
       inkscape:connector-curvature="0"
       id="path30"
       style="fill:none;stroke:#000000;stroke-width:1.41111112;stroke-linecap:round;stroke-linejoin:round;stroke-miterlimit:4;stroke-opacity:1;stroke-dasharray:none"
       d="m 18.415153,85.308695 c 0,-18.664105 0,-37.328373 0,-55.992474" />
    <path
       inkscape:connector-curvature="0"
       id="path32"
       style="fill:none;stroke:#000000;stroke-width:1.41111112;stroke-linecap:round;stroke-linejoin:round;stroke-miterlimit:4;stroke-opacity:1;stroke-dasharray:none"
       d="m 200.59232,28.947667 c 0,18.664102 0,37.32837 0,55.992476" />
    <path
       inkscape:connector-curvature="0"
       id="path34"
       style="fill:none;stroke:#000000;stroke-width:1.41111112;stroke-linecap:round;stroke-linejoin:round;stroke-miterlimit:4;stroke-opacity:1;stroke-dasharray:none"
       d="M 43.34056,29.316221 C 41.955868,47.980322 40.571013,66.64459 39.186325,85.308695" />
    <path
       inkscape:connector-curvature="0"
       id="path36"
       style="fill:none;stroke:#000000;stroke-width:1.41111112;stroke-linecap:round;stroke-linejoin:round;stroke-miterlimit:4;stroke-opacity:1;stroke-dasharray:none"
       d="m 192.28386,28.947667 c 0,18.664102 0,37.32837 0,55.992476" />
    <path
       inkscape:connector-curvature="0"
       id="path38"
       style="fill:none;stroke:#000000;stroke-width:1.41111112;stroke-linecap:round;stroke-linejoin:round;stroke-miterlimit:4;stroke-opacity:1;stroke-dasharray:none"
       d="M 35.03209,29.316221 C 33.647401,47.980322 32.262543,66.64459 30.877858,85.308695" />
    <path
       inkscape:connector-curvature="0"
       id="path40"
       style="fill:none;stroke:#000000;stroke-width:1.41111112;stroke-linecap:round;stroke-linejoin:round;stroke-miterlimit:4;stroke-opacity:1;stroke-dasharray:none"
       d="m 204.74655,28.947667 c 0,18.664102 0,37.32837 0,55.992476" />
    <path
       inkscape:connector-curvature="0"
       id="path42"
       style="fill:none;stroke:#000000;stroke-width:1.41111112;stroke-linecap:round;stroke-linejoin:round;stroke-miterlimit:4;stroke-opacity:1;stroke-dasharray:none"
       d="M 46.850884,38.145804 C 45.680721,53.866766 44.510722,69.58773 43.34056,85.308695" />
    <path
       inkscape:connector-curvature="0"
       id="path44"
       style="fill:none;stroke:#000000;stroke-width:1.41111112;stroke-linecap:round;stroke-linejoin:round;stroke-miterlimit:4;stroke-opacity:1;stroke-dasharray:none"
       d="m 196.43809,28.947667 c 0,18.664102 0,37.32837 0,55.992476" />
    <path
       inkscape:connector-curvature="0"
       id="path46"
       style="fill:none;stroke:#000000;stroke-width:1.41111112;stroke-linecap:round;stroke-linejoin:round;stroke-miterlimit:4;stroke-opacity:1;stroke-dasharray:none"
       d="M 39.186325,29.316221 C 37.801633,47.980322 36.416778,66.64459 35.03209,85.308695" />
    <path
       inkscape:connector-curvature="0"
       id="path48"
       style="fill:none;stroke:#000000;stroke-width:1.41111112;stroke-linecap:round;stroke-linejoin:round;stroke-miterlimit:4;stroke-opacity:1;stroke-dasharray:none"
       d="m 188.12963,28.947667 c 0,18.664102 0,37.32837 0,55.992476" />
    <path
       inkscape:connector-curvature="0"
       id="path50"
       style="fill:none;stroke:#000000;stroke-width:1.41111112;stroke-linecap:round;stroke-linejoin:round;stroke-miterlimit:4;stroke-opacity:1;stroke-dasharray:none"
       d="M 30.877858,29.316221 C 29.493166,47.980322 28.108311,66.64459 26.723623,85.308695" />
    <path
       inkscape:connector-curvature="0"
       id="path52"
       style="fill:none;stroke:#000000;stroke-width:1.41111112;stroke-linecap:round;stroke-linejoin:round;stroke-miterlimit:4;stroke-opacity:1;stroke-dasharray:none"
       d="m 213.07578,82.786586 c 0,-17.228457 0,-34.456913 0,-51.685362" />
    <path
       inkscape:connector-curvature="0"
       id="path54"
       style="fill:none;stroke:#000000;stroke-width:1.41111112;stroke-linecap:round;stroke-linejoin:round;stroke-miterlimit:4;stroke-opacity:1;stroke-dasharray:none"
       d="m 183.9754,84.940143 c 0,-18.664106 0,-37.328374 0,-55.992476" />
    <path
       inkscape:connector-curvature="0"
       id="path56"
       style="fill:none;stroke:#000000;stroke-width:1.41111112;stroke-linecap:round;stroke-linejoin:round;stroke-miterlimit:4;stroke-opacity:1;stroke-dasharray:none"
       d="M 26.723623,29.316221 C 25.338931,47.980322 23.954076,66.64459 22.569388,85.308695" />
    <path
       inkscape:connector-curvature="0"
       id="path58"
       style="fill:none;stroke:#000000;stroke-width:1.41111112;stroke-linecap:round;stroke-linejoin:round;stroke-miterlimit:4;stroke-opacity:1;stroke-dasharray:none"
       d="m 179.82116,84.940143 c 0,-15.956823 0,-31.913647 0,-47.870465" />
    <path
       inkscape:connector-curvature="0"
       id="path60"
       style="fill:none;stroke:#000000;stroke-width:1.41111112;stroke-linecap:round;stroke-linejoin:round;stroke-miterlimit:4;stroke-opacity:1;stroke-dasharray:none"
       d="m 47.494791,29.316221 c 0,15.956819 0,31.913638 0,47.870462" />
    <path
       inkscape:connector-curvature="0"
       id="path62"
       style="fill:none;stroke:#000000;stroke-width:1.41111112;stroke-linecap:round;stroke-linejoin:round;stroke-miterlimit:4;stroke-opacity:1;stroke-dasharray:none"
       d="m 183.9754,28.947667 c -0.0558,-0.375578 -0.11184,-0.751331 -0.27817,-1.076776 -0.16651,-0.32563 -0.44351,-0.601101 -0.76039,-0.788375 -0.31689,-0.187082 -0.67365,-0.286182 -1.03856,-0.288435 -0.36491,-0.0022 -0.73779,0.09219 -1.03856,0.288435 -0.3006,0.19639 -0.52908,0.494628 -0.76022,0.788375 -1.53175,1.946126 -3.17949,3.690507 -4.82722,5.434887" />
    <path
       inkscape:connector-curvature="0"
       id="path64"
       style="fill:none;stroke:#000000;stroke-width:1.41111112;stroke-linecap:round;stroke-linejoin:round;stroke-miterlimit:4;stroke-opacity:1;stroke-dasharray:none"
       d="m 43.34056,85.308695 c 0.05583,0.37558 0.11184,0.751331 0.278169,1.076779 0.166505,0.325618 0.443507,0.601099 0.760391,0.788372 0.316886,0.18709 0.673651,0.286171 1.038559,0.288421 0.364912,0.0022 0.737793,-0.09219 1.03856,-0.288421 0.300622,-0.196393 0.529083,-0.494628 0.760224,-0.788372 1.531747,-1.946126 3.179485,-3.690508 4.827219,-5.43489" />
    <path
       inkscape:connector-curvature="0"
       id="path66"
       style="fill:none;stroke:#000000;stroke-width:1.41111112;stroke-linecap:round;stroke-linejoin:round;stroke-miterlimit:4;stroke-opacity:1;stroke-dasharray:none"
       d="M 93.14982,80.950584 C 89.691336,77.785546 86.232856,74.620505 82.774538,71.455122 79.316386,68.289739 75.858238,65.124183 72.399422,61.95966 68.940605,58.795136 65.480795,55.631477 62.024305,52.464198 58.563661,49.293299 55.106344,46.118614 51.649027,42.944095" />
    <path
       inkscape:connector-curvature="0"
       id="path68"
       style="fill:none;stroke:#000000;stroke-width:1.41111112;stroke-linecap:round;stroke-linejoin:round;stroke-miterlimit:4;stroke-opacity:1;stroke-dasharray:none"
       d="m 51.649027,71.718373 c 3.045714,2.725369 6.091265,5.450567 9.056725,8.26466 1.024766,0.972548 2.04006,1.955604 3.125979,2.860958 2.800285,2.334457 6.0705,4.151541 9.627685,4.962828 3.557355,0.811462 7.401683,0.617297 10.73122,-0.692926 3.329533,-1.310396 6.144276,-3.736852 8.959184,-6.163309" />
    <path
       inkscape:connector-curvature="0"
       id="path70"
       style="fill:none;stroke:#000000;stroke-width:1.41111112;stroke-linecap:round;stroke-linejoin:round;stroke-miterlimit:4;stroke-opacity:1;stroke-dasharray:none"
       d="m -23.147954,92.846145 c 2.724344,-1.929243 5.448857,-3.858487 8.30847,-5.599248 3.9196,-2.386143 8.0932722,-4.418238 12.4626984,-5.599248 3.3835407,-0.914487 6.8845616,-1.318665 10.385586,-1.722847" />
    <path
       inkscape:connector-curvature="0"
       id="path72"
       style="fill:none;stroke:#000000;stroke-width:1.41111112;stroke-linecap:round;stroke-linejoin:round;stroke-miterlimit:4;stroke-opacity:1;stroke-dasharray:none"
       d="m -23.563379,85.52405 c 2.176485,-1.370694 4.352973,-2.74122 6.646776,-3.876401 2.647742,-1.310225 5.451848,-2.306545 8.3084665,-3.01498 2.7373064,-0.6788 5.5228034,-1.093146 8.30847023,-1.507489" />
    <path
       inkscape:connector-curvature="0"
       id="path74"
       style="fill:none;stroke:#000000;stroke-width:1.41111112;stroke-linecap:round;stroke-linejoin:round;stroke-miterlimit:4;stroke-opacity:1;stroke-dasharray:none"
       d="m -23.147954,78.417314 c 2.185127,-1.029918 4.370254,-2.059836 6.646776,-2.799626 1.630451,-0.529947 3.307763,-0.91104 4.985075,-1.292133" />
    <path
       inkscape:connector-curvature="0"
       id="path76"
       style="fill:none;stroke:#000000;stroke-width:1.41111112;stroke-linecap:round;stroke-linejoin:round;stroke-miterlimit:4;stroke-opacity:1;stroke-dasharray:none"
       d="m 256.55831,80.000745 c -2.7629,-1.250269 -5.5258,-2.500539 -8.37926,-3.459472 -2.98058,-1.001494 -6.05986,-1.68529 -9.13932,-2.368915" />
    <path
       inkscape:connector-curvature="0"
       id="path78"
       style="fill:none;stroke:#000000;stroke-width:1.41111112;stroke-linecap:round;stroke-linejoin:round;stroke-miterlimit:4;stroke-opacity:1;stroke-dasharray:none"
       d="m 255.31619,86.766876 c -2.99088,-1.485267 -5.9816,-2.970531 -9.00655,-4.411 -2.71753,-1.294029 -5.46281,-2.551881 -8.30846,-3.445691 -3.36809,-1.057829 -6.87676,-1.605695 -10.38559,-2.153557" />
    <path
       inkscape:connector-curvature="0"
       id="path80"
       style="fill:none;stroke:#000000;stroke-width:1.41111112;stroke-linecap:round;stroke-linejoin:round;stroke-miterlimit:4;stroke-opacity:1;stroke-dasharray:none"
       d="m 253.94147,93.490108 c -3.91429,-2.13719 -7.8284,-4.27438 -11.78606,-6.396408 -4.04074,-2.166652 -8.12701,-4.317279 -12.4627,-5.599248 -2.70474,-0.799746 -5.50652,-1.261295 -8.30847,-1.722847" />
    <path
       inkscape:connector-curvature="0"
       id="path82"
       style="fill:none;stroke:#000000;stroke-width:1.41111112;stroke-linecap:round;stroke-linejoin:round;stroke-miterlimit:4;stroke-opacity:1;stroke-dasharray:none"
       d="m 204.74655,84.940143 c 0.0562,0.375751 0.11216,0.751331 0.27835,1.076779 0.16601,0.325445 0.44201,0.60041 0.76022,0.788201 0.31823,0.187976 0.6783,0.288576 1.03856,0.288576 0.36026,0 0.72034,-0.100604 1.03856,-0.288576 0.31823,-0.187784 0.59422,-0.462758 0.76022,-0.788201 0.16619,-0.325446 0.22216,-0.701028 0.27834,-1.076779" />
    <path
       inkscape:connector-curvature="0"
       id="path84"
       style="fill:none;stroke:#000000;stroke-width:1.41111112;stroke-linecap:round;stroke-linejoin:round;stroke-miterlimit:4;stroke-opacity:1;stroke-dasharray:none"
       d="m 196.43809,84.940143 c 0.0562,0.375751 0.11216,0.751331 0.27834,1.076779 0.16601,0.325445 0.44202,0.60041 0.76023,0.788201 0.31823,0.187976 0.6783,0.288576 1.03856,0.288576 0.36025,0 0.72034,-0.100604 1.03855,-0.288576 0.31823,-0.187784 0.59423,-0.462758 0.76023,-0.788201 0.16619,-0.325446 0.22216,-0.701028 0.27834,-1.076779" />
    <path
       inkscape:connector-curvature="0"
       id="path86"
       style="fill:none;stroke:#000000;stroke-width:1.41111112;stroke-linecap:round;stroke-linejoin:round;stroke-miterlimit:4;stroke-opacity:1;stroke-dasharray:none"
       d="m 188.12963,84.940143 c 0.0562,0.375751 0.11216,0.751331 0.27834,1.076779 0.16601,0.325445 0.44201,0.60041 0.76023,0.788201 0.31823,0.187976 0.6783,0.288576 1.03855,0.288576 0.36026,0 0.72035,-0.100604 1.03856,-0.288576 0.31823,-0.187784 0.59423,-0.462758 0.76023,-0.788201 0.16618,-0.325446 0.22216,-0.701028 0.27834,-1.076779" />
    <path
       inkscape:connector-curvature="0"
       id="path88"
       style="fill:none;stroke:#000000;stroke-width:1.41111112;stroke-linecap:round;stroke-linejoin:round;stroke-miterlimit:4;stroke-opacity:1;stroke-dasharray:none"
       d="m 179.82116,84.940143 c 0.0562,0.375751 0.11216,0.751331 0.27834,1.076779 0.166,0.325445 0.44201,0.60041 0.76022,0.788201 0.31822,0.187976 0.67831,0.288576 1.03856,0.288576 0.36026,0 0.72034,-0.100604 1.03856,-0.288576 0.31823,-0.187784 0.59422,-0.462758 0.76022,-0.788201 0.16619,-0.325446 0.22217,-0.701028 0.27835,-1.076779" />
    <path
       inkscape:connector-curvature="0"
       id="path90"
       style="fill:none;stroke:#000000;stroke-width:1.41111112;stroke-linecap:round;stroke-linejoin:round;stroke-miterlimit:4;stroke-opacity:1;stroke-dasharray:none"
       d="m 188.12963,28.947667 c 0.0562,-0.375752 0.11216,-0.751331 0.27834,-1.076776 0.16601,-0.325445 0.44201,-0.600414 0.76023,-0.788201 0.31823,-0.187969 0.6783,-0.288583 1.03855,-0.288583 0.36026,0 0.72035,0.100614 1.03856,0.288583 0.31823,0.187784 0.59423,0.462756 0.76023,0.788201 0.16618,0.325445 0.22216,0.701024 0.27834,1.076776" />
    <path
       inkscape:connector-curvature="0"
       id="path92"
       style="fill:none;stroke:#000000;stroke-width:1.41111112;stroke-linecap:round;stroke-linejoin:round;stroke-miterlimit:4;stroke-opacity:1;stroke-dasharray:none"
       d="m 196.43809,28.947667 c 0.0562,-0.375752 0.11216,-0.751331 0.27834,-1.076776 0.16601,-0.325445 0.44202,-0.600414 0.76023,-0.788201 0.31823,-0.187969 0.6783,-0.288583 1.03856,-0.288583 0.36025,0 0.72034,0.100614 1.03855,0.288583 0.31823,0.187784 0.59423,0.462756 0.76023,0.788201 0.16619,0.325445 0.22216,0.701024 0.27834,1.076776" />
    <path
       inkscape:connector-curvature="0"
       id="path94"
       style="fill:none;stroke:#000000;stroke-width:1.41111112;stroke-linecap:round;stroke-linejoin:round;stroke-miterlimit:4;stroke-opacity:1;stroke-dasharray:none"
       d="m 204.74655,28.947667 c 0.0562,-0.375752 0.11216,-0.751331 0.27835,-1.076776 0.16601,-0.325445 0.44201,-0.600414 0.76022,-0.788201 0.31823,-0.187969 0.6783,-0.288583 1.03856,-0.288583 0.36026,0 0.72034,0.100614 1.03856,0.288583 0.31823,0.187784 0.59422,0.462756 0.76022,0.788201 0.16619,0.325445 0.22216,0.701024 0.27834,1.076776" />
    <path
       inkscape:connector-curvature="0"
       id="path96"
       style="fill:none;stroke:#000000;stroke-width:1.41111112;stroke-linecap:round;stroke-linejoin:round;stroke-miterlimit:4;stroke-opacity:1;stroke-dasharray:none"
       d="m 22.569388,85.308695 c -0.05619,0.375751 -0.112159,0.751331 -0.278346,1.076779 -0.16601,0.325445 -0.442012,0.60041 -0.760228,0.788201 -0.318231,0.187976 -0.678301,0.288576 -1.03856,0.288576 -0.360251,0 -0.720343,-0.100604 -1.038556,-0.288576 -0.31823,-0.187784 -0.594221,-0.462758 -0.760224,-0.788201 -0.166187,-0.325446 -0.222161,-0.701028 -0.278346,-1.076779" />
    <path
       inkscape:connector-curvature="0"
       id="path98"
       style="fill:none;stroke:#000000;stroke-width:1.41111112;stroke-linecap:round;stroke-linejoin:round;stroke-miterlimit:4;stroke-opacity:1;stroke-dasharray:none"
       d="m 39.186325,85.308695 c -0.05619,0.375751 -0.112159,0.751331 -0.278346,1.076779 -0.16601,0.325445 -0.442008,0.60041 -0.760225,0.788201 -0.31823,0.187976 -0.678304,0.288576 -1.038559,0.288576 -0.360255,0 -0.720343,-0.100604 -1.038556,-0.288576 -0.318231,-0.187784 -0.594225,-0.462758 -0.760225,-0.788201 -0.166187,-0.325446 -0.22216,-0.701028 -0.278346,-1.076779" />
    <path
       inkscape:connector-curvature="0"
       id="path100"
       style="fill:none;stroke:#000000;stroke-width:1.41111112;stroke-linecap:round;stroke-linejoin:round;stroke-miterlimit:4;stroke-opacity:1;stroke-dasharray:none"
       d="m 30.877858,85.308695 c -0.05618,0.375751 -0.112159,0.751331 -0.278346,1.076779 -0.16601,0.325445 -0.442011,0.60041 -0.760224,0.788201 -0.318231,0.187976 -0.678305,0.288576 -1.03856,0.288576 -0.360255,0 -0.720343,-0.100604 -1.038556,-0.288576 -0.318231,-0.187784 -0.594225,-0.462758 -0.760228,-0.788201 -0.166187,-0.325446 -0.22216,-0.701028 -0.278346,-1.076779" />
    <path
       inkscape:connector-curvature="0"
       id="path102"
       style="fill:none;stroke:#000000;stroke-width:1.41111112;stroke-linecap:round;stroke-linejoin:round;stroke-miterlimit:4;stroke-opacity:1;stroke-dasharray:none"
       d="m 47.494791,29.316221 c -0.05618,-0.375753 -0.112158,-0.751331 -0.278345,-1.076777 -0.166011,-0.325445 -0.442015,-0.600413 -0.760228,-0.788201 -0.318231,-0.187968 -0.678302,-0.288582 -1.03856,-0.288582 -0.360255,0 -0.720343,0.100614 -1.038556,0.288582 -0.318231,0.187784 -0.594222,0.462756 -0.760225,0.788201 -0.166187,0.325446 -0.22216,0.701024 -0.278345,1.076777" />
    <path
       inkscape:connector-curvature="0"
       id="path104"
       style="fill:none;stroke:#000000;stroke-width:1.41111112;stroke-linecap:round;stroke-linejoin:round;stroke-miterlimit:4;stroke-opacity:1;stroke-dasharray:none"
       d="m 39.186325,29.316221 c -0.05619,-0.375753 -0.112159,-0.751331 -0.278346,-1.076777 -0.16601,-0.325445 -0.442008,-0.600413 -0.760225,-0.788201 -0.31823,-0.187968 -0.678304,-0.288582 -1.038559,-0.288582 -0.360255,0 -0.720343,0.100614 -1.038556,0.288582 -0.318231,0.187784 -0.594225,0.462756 -0.760225,0.788201 -0.166187,0.325446 -0.22216,0.701024 -0.278346,1.076777" />
    <path
       inkscape:connector-curvature="0"
       id="path106"
       style="fill:none;stroke:#000000;stroke-width:1.41111112;stroke-linecap:round;stroke-linejoin:round;stroke-miterlimit:4;stroke-opacity:1;stroke-dasharray:none"
       d="m 30.877858,29.316221 c -0.05618,-0.375753 -0.112159,-0.751331 -0.278346,-1.076777 -0.16601,-0.325445 -0.442011,-0.600413 -0.760224,-0.788201 -0.318231,-0.187968 -0.678305,-0.288582 -1.03856,-0.288582 -0.360255,0 -0.720343,0.100614 -1.038556,0.288582 -0.318231,0.187784 -0.594225,0.462756 -0.760228,0.788201 -0.166187,0.325446 -0.22216,0.701024 -0.278346,1.076777" />
    <path
       inkscape:connector-curvature="0"
       id="path108"
       style="fill:none;stroke:#000000;stroke-width:1.41111112;stroke-linecap:round;stroke-linejoin:round;stroke-miterlimit:4;stroke-opacity:1;stroke-dasharray:none"
       d="m 22.569388,29.316221 c -0.05619,-0.375753 -0.112159,-0.751331 -0.278346,-1.076777 -0.16601,-0.325445 -0.442012,-0.600413 -0.760228,-0.788201 -0.318231,-0.187968 -0.678301,-0.288582 -1.03856,-0.288582 -0.360251,0 -0.720343,0.100614 -1.038556,0.288582 -0.31823,0.187784 -0.594221,0.462756 -0.760224,0.788201 -0.166187,0.325446 -0.222161,0.701024 -0.278346,1.076777" />
    <path
       inkscape:connector-curvature="0"
       id="path110"
       style="fill:none;stroke:#000000;stroke-width:1.41111112;stroke-linecap:round;stroke-linejoin:round;stroke-miterlimit:4;stroke-opacity:1;stroke-dasharray:none"
       d="m 26.723623,85.308695 c -0.05618,0.375751 -0.112159,0.751331 -0.278346,1.076779 -0.16601,0.325445 -0.442008,0.60041 -0.760224,0.788201 -0.318231,0.187976 -0.678305,0.288576 -1.03856,0.288576 -0.360251,0 -0.720343,-0.100604 -1.038556,-0.288576 -0.318231,-0.187784 -0.594225,-0.462758 -0.760225,-0.788201 -0.166187,-0.325446 -0.22216,-0.701028 -0.278345,-1.076779" />
    <path
       inkscape:connector-curvature="0"
       id="path112"
       style="fill:none;stroke:#000000;stroke-width:1.41111112;stroke-linecap:round;stroke-linejoin:round;stroke-miterlimit:4;stroke-opacity:1;stroke-dasharray:none"
       d="m 43.34056,85.308695 c -0.05619,0.375751 -0.112159,0.751331 -0.278346,1.076779 -0.16601,0.325445 -0.442012,0.60041 -0.760224,0.788201 -0.318231,0.187976 -0.678305,0.288576 -1.03856,0.288576 -0.360258,0 -0.720343,-0.100604 -1.03856,-0.288576 -0.31823,-0.187784 -0.594221,-0.462758 -0.760224,-0.788201 -0.166187,-0.325446 -0.222161,-0.701028 -0.278346,-1.076779" />
    <path
       inkscape:connector-curvature="0"
       id="path114"
       style="fill:none;stroke:#000000;stroke-width:1.41111112;stroke-linecap:round;stroke-linejoin:round;stroke-miterlimit:4;stroke-opacity:1;stroke-dasharray:none"
       d="m 35.03209,85.308695 c -0.05619,0.375751 -0.112159,0.751331 -0.278346,1.076779 -0.16601,0.325445 -0.442012,0.60041 -0.760228,0.788201 -0.318195,0.187976 -0.678302,0.288576 -1.03856,0.288576 -0.360255,0 -0.720343,-0.100604 -1.038556,-0.288576 -0.318231,-0.187784 -0.594221,-0.462758 -0.760225,-0.788201 -0.166187,-0.325446 -0.22216,-0.701028 -0.278345,-1.076779" />
    <path
       inkscape:connector-curvature="0"
       id="path116"
       style="fill:none;stroke:#000000;stroke-width:1.41111112;stroke-linecap:round;stroke-linejoin:round;stroke-miterlimit:4;stroke-opacity:1;stroke-dasharray:none"
       d="m 43.34056,29.316221 c -0.05619,-0.375753 -0.112159,-0.751331 -0.278346,-1.076777 -0.16601,-0.325445 -0.442012,-0.600413 -0.760224,-0.788201 -0.318231,-0.187968 -0.678305,-0.288582 -1.03856,-0.288582 -0.360258,0 -0.720343,0.100614 -1.03856,0.288582 -0.31823,0.187784 -0.594221,0.462756 -0.760224,0.788201 -0.166187,0.325446 -0.222161,0.701024 -0.278346,1.076777" />
    <path
       inkscape:connector-curvature="0"
       id="path118"
       style="fill:none;stroke:#000000;stroke-width:1.41111112;stroke-linecap:round;stroke-linejoin:round;stroke-miterlimit:4;stroke-opacity:1;stroke-dasharray:none"
       d="m 35.03209,29.316221 c -0.05619,-0.375753 -0.112159,-0.751331 -0.278346,-1.076777 -0.16601,-0.325445 -0.442012,-0.600413 -0.760228,-0.788201 -0.318195,-0.187968 -0.678302,-0.288582 -1.03856,-0.288582 -0.360255,0 -0.720343,0.100614 -1.038556,0.288582 -0.318231,0.187784 -0.594221,0.462756 -0.760225,0.788201 -0.166187,0.325446 -0.22216,0.701024 -0.278345,1.076777" />
    <path
       inkscape:connector-curvature="0"
       id="path120"
       style="fill:none;stroke:#000000;stroke-width:1.41111112;stroke-linecap:round;stroke-linejoin:round;stroke-miterlimit:4;stroke-opacity:1;stroke-dasharray:none"
       d="m 26.723623,29.316221 c -0.05618,-0.375753 -0.112159,-0.751331 -0.278346,-1.076777 -0.16601,-0.325445 -0.442008,-0.600413 -0.760224,-0.788201 -0.318231,-0.187968 -0.678305,-0.288582 -1.03856,-0.288582 -0.360251,0 -0.720343,0.100614 -1.038556,0.288582 -0.318231,0.187784 -0.594225,0.462756 -0.760225,0.788201 -0.166187,0.325446 -0.22216,0.701024 -0.278345,1.076777" />
    <path
       inkscape:connector-curvature="0"
       id="path122"
       style="fill:none;stroke:#000000;stroke-width:1.41111112;stroke-linecap:round;stroke-linejoin:round;stroke-miterlimit:4;stroke-opacity:1;stroke-dasharray:none"
       d="m 51.649027,42.944095 c 0,4.795717 0,9.59143 0,14.38714 0,4.795713 0,9.591422 0,14.387138" />
    <path
       inkscape:connector-curvature="0"
       id="path124"
       style="fill:none;stroke:#000000;stroke-width:1.41111112;stroke-linecap:round;stroke-linejoin:round;stroke-miterlimit:4;stroke-opacity:1;stroke-dasharray:none"
       d="m 175.66693,71.306748 c 0,-4.787616 0,-9.575229 0,-14.362845 0,-4.787617 0,-9.57523 0,-14.362847" />
    <path
       inkscape:connector-curvature="0"
       id="path126"
       style="fill:none;stroke:#000000;stroke-width:1.41111112;stroke-linecap:round;stroke-linejoin:round;stroke-miterlimit:4;stroke-opacity:1;stroke-dasharray:none"
       d="M 22.569388,29.316221 C 21.399226,45.037183 20.229226,60.758146 19.05906,76.479112" />
    <path
       inkscape:connector-curvature="0"
       id="path128"
       style="fill:none;stroke:#000000;stroke-width:1.41111112;stroke-linecap:round;stroke-linejoin:round;stroke-miterlimit:4;stroke-opacity:1;stroke-dasharray:none"
       d="m 69.283746,74.54091 c 2.502675,2.07224 5.005354,4.144307 7.489918,6.239803 2.484398,2.095497 4.950681,4.214424 7.416972,6.33318" />
    <path
       inkscape:connector-curvature="0"
       id="path130"
       style="fill:none;stroke:#000000;stroke-width:1.41111112;stroke-linecap:round;stroke-linejoin:round;stroke-miterlimit:4;stroke-opacity:1;stroke-dasharray:none"
       d="m 110.82609,74.54091 c 2.50267,2.07224 5.00535,4.144307 7.48991,6.239803 2.4844,2.095497 4.95069,4.214424 7.41697,6.33318" />
    <path
       inkscape:connector-curvature="0"
       id="path6-1"
       style="fill:none;stroke:#000000;stroke-width:1.41111112;stroke-linecap:round;stroke-linejoin:round;stroke-miterlimit:4;stroke-opacity:1;stroke-dasharray:none"
       d="m 93.438653,33.846872 c 4.476267,4.098479 8.952377,8.196777 13.431297,12.292326 4.47877,4.09572 8.96019,8.188341 13.43131,12.2925 4.47096,4.104163 8.93144,8.219869 13.43115,12.292504 3.4525,3.124728 6.92794,6.223957 10.30533,9.431381 1.02444,0.97289 2.0399,1.955776 3.12598,2.860958 2.80062,2.334113 6.07051,4.151374 9.6277,4.962832 3.55719,0.811633 7.40152,0.617297 10.73122,-0.692926 3.32954,-1.310398 6.14445,-3.736856 8.95919,-6.163315" />
    <path
       inkscape:connector-curvature="0"
       id="path8-7"
       style="fill:none;stroke:#000000;stroke-width:1.41111112;stroke-linecap:round;stroke-linejoin:round;stroke-miterlimit:4;stroke-opacity:1;stroke-dasharray:none"
       d="m 176.48183,81.123132 c -4.4643,-4.112433 -8.92862,-8.224869 -13.41054,-12.3168 -4.48192,-4.09193 -8.98146,-8.163361 -13.45208,-12.268037 -4.02429,-3.694991 -8.02516,-7.416853 -12.07404,-11.084615 -3.90416,-3.536316 -7.85301,-7.022315 -11.67408,-10.649941 -1.02077,-0.969096 -2.03241,-1.948365 -3.11434,-2.850274 -2.80012,-2.334629 -6.0705,-4.151541 -9.62769,-4.962828 -3.55736,-0.811463 -7.40169,-0.617297 -10.73122,0.692928 -3.329536,1.310398 -6.144282,3.736851 -8.959187,6.163307" />
    <path
       inkscape:connector-curvature="0"
       id="path130-4"
       style="fill:none;stroke:#000000;stroke-width:1.41111112;stroke-linecap:round;stroke-linejoin:round;stroke-miterlimit:4;stroke-opacity:1;stroke-dasharray:none"
       d="m 152.73823,74.54091 c 2.50268,2.072242 5.00536,4.144306 7.48992,6.239802 2.4844,2.095497 4.95068,4.214426 7.41697,6.333181" />
  </g>
</svg>
