<?xml version="1.0" encoding="UTF-8" standalone="no"?>
<!-- 2019-08-30 11:23:15 Generated by QCAD 3.23.0 SVG Exporter -->

<svg
   xmlns:dc="http://purl.org/dc/elements/1.1/"
   xmlns:cc="http://creativecommons.org/ns#"
   xmlns:rdf="http://www.w3.org/1999/02/22-rdf-syntax-ns#"
   xmlns:svg="http://www.w3.org/2000/svg"
   xmlns="http://www.w3.org/2000/svg"
   xmlns:sodipodi="http://sodipodi.sourceforge.net/DTD/sodipodi-0.dtd"
   xmlns:inkscape="http://www.inkscape.org/namespaces/inkscape"
   width="1200"
   height="640"
   viewBox="-53.9875 -30.073 338.66667 180.62222"
   version="1.1"
   style="fill:none;stroke-linecap:round;stroke-linejoin:round"
   id="svg2"
   inkscape:version="0.48.5 r10040"
   sodipodi:docname="RailwayTrackLineArt.svg">
  <metadata
     id="metadata138">
    <rdf:RDF>
      <cc:Work
         rdf:about="">
        <dc:format>image/svg+xml</dc:format>
        <dc:type
           rdf:resource="http://purl.org/dc/dcmitype/StillImage" />
        <dc:title></dc:title>
      </cc:Work>
    </rdf:RDF>
  </metadata>
  <defs
     id="defs136" />
  <sodipodi:namedview
     pagecolor="#ffffff"
     bordercolor="#666666"
     borderopacity="1"
     objecttolerance="10"
     gridtolerance="10"
     guidetolerance="10"
     inkscape:pageopacity="0"
     inkscape:pageshadow="2"
     inkscape:window-width="1920"
     inkscape:window-height="1018"
     id="namedview134"
     showgrid="false"
     inkscape:zoom="1.2066667"
     inkscape:cx="600"
     inkscape:cy="353.14917"
     inkscape:window-x="-8"
     inkscape:window-y="-8"
     inkscape:window-maximized="1"
     inkscape:current-layer="layer2"
     fit-margin-top="10"
     fit-margin-left="10"
     fit-margin-right="10"
     fit-margin-bottom="10"
     borderlayer="false" />
  <g
     inkscape:groupmode="layer"
     id="layer2"
     inkscape:label="BaseLine"
     style="display:inline">
    <path
       inkscape:connector-curvature="0"
       style="fill:none;stroke:#ff0000;stroke-width:1.41111112;stroke-linecap:round;stroke-linejoin:round;stroke-miterlimit:4;stroke-dasharray:none;display:inline"
       d="m -17.608832,57.538515 267.377662,0"
       id="path21605" />
  </g>
  <g
     inkscape:groupmode="layer"
     id="layer4"
     inkscape:label="Constructors"
     style="display:inline">
    <path
       inkscape:connector-curvature="0"
       style="fill:none;stroke:#0000ff;stroke-width:0.56444442;stroke-linecap:round;stroke-linejoin:round;stroke-miterlimit:4;stroke-dasharray:none;display:inline"
       d="m -10.429341,109.46176 0,-103.8462064"
       id="path21325" />
    <path
       inkscape:connector-curvature="0"
       style="fill:none;stroke:#0000ff;stroke-width:0.56444442;stroke-linecap:round;stroke-linejoin:round;stroke-miterlimit:4;stroke-dasharray:none;display:inline"
       d="m 12.134758,109.46176 0,-103.8462064"
       id="path21329" />
    <path
       inkscape:connector-curvature="0"
       style="fill:none;stroke:#0000ff;stroke-width:0.56444442;stroke-linecap:round;stroke-linejoin:round;stroke-miterlimit:4;stroke-dasharray:none;display:inline"
       d="m 34.698858,109.46176 0,-103.8462064"
       id="path21333" />
    <path
       inkscape:connector-curvature="0"
       style="fill:none;stroke:#0000ff;stroke-width:0.56444442;stroke-linecap:round;stroke-linejoin:round;stroke-miterlimit:4;stroke-dasharray:none;display:inline"
       d="m 57.262958,109.46176 0,-103.8462064"
       id="path21337" />
    <path
       inkscape:connector-curvature="0"
       style="fill:none;stroke:#0000ff;stroke-width:0.56444442;stroke-linecap:round;stroke-linejoin:round;stroke-miterlimit:4;stroke-dasharray:none;display:inline"
       d="m 79.827056,109.46176 0,-103.8462064"
       id="path21341" />
    <path
       inkscape:connector-curvature="0"
       style="fill:none;stroke:#0000ff;stroke-width:0.56444442;stroke-linecap:round;stroke-linejoin:round;stroke-miterlimit:4;stroke-dasharray:none;display:inline"
       d="m 102.39115,109.46176 0,-103.8462064"
       id="path21345" />
    <path
       inkscape:connector-curvature="0"
       style="fill:none;stroke:#0000ff;stroke-width:0.56444442;stroke-linecap:round;stroke-linejoin:round;stroke-miterlimit:4;stroke-dasharray:none;display:inline"
       d="m 124.95525,109.46176 0,-103.8462064"
       id="path21349" />
    <path
       inkscape:connector-curvature="0"
       style="fill:none;stroke:#0000ff;stroke-width:0.56444442;stroke-linecap:round;stroke-linejoin:round;stroke-miterlimit:4;stroke-dasharray:none;display:inline"
       d="m 147.51936,109.46176 0,-103.8462064"
       id="path21353" />
    <path
       inkscape:connector-curvature="0"
       style="fill:none;stroke:#0000ff;stroke-width:0.56444442;stroke-linecap:round;stroke-linejoin:round;stroke-miterlimit:4;stroke-dasharray:none;display:inline"
       d="m 170.08345,109.46176 0,-103.8462064"
       id="path21357" />
    <path
       inkscape:connector-curvature="0"
       style="fill:none;stroke:#0000ff;stroke-width:0.56444442;stroke-linecap:round;stroke-linejoin:round;stroke-miterlimit:4;stroke-dasharray:none;display:inline"
       d="m 192.64756,109.46176 0,-103.8462064"
       id="path21361" />
    <path
       inkscape:connector-curvature="0"
       style="fill:none;stroke:#0000ff;stroke-width:0.56444442;stroke-linecap:round;stroke-linejoin:round;stroke-miterlimit:4;stroke-dasharray:none;display:inline"
       d="m 215.21165,109.46176 0,-103.8462064"
       id="path21365" />
  </g>
  <g
     inkscape:groupmode="layer"
     id="layer1"
     inkscape:label="Painters">
    <path
       inkscape:connector-curvature="0"
       style="fill:none;stroke:#000000;stroke-width:1.41111112;stroke-linecap:round;stroke-miterlimit:4;stroke-dasharray:none"
       d="m -10.428521,21.12216 8.2051198,0"
       id="path23032" />
    <path
       inkscape:connector-curvature="0"
       style="fill:none;stroke:#000000;stroke-width:1.41111112;stroke-linecap:round;stroke-miterlimit:4;stroke-dasharray:none"
       d="m -2.2234012,21.12216 0,72.82039"
       id="path23034" />
    <path
       inkscape:connector-curvature="0"
       style="fill:none;stroke:#000000;stroke-width:1.41111112;stroke-linecap:round;stroke-miterlimit:4;stroke-dasharray:none"
       d="m -2.2234012,93.94255 -8.2051198,0"
       id="path23036" />
    <path
       inkscape:connector-curvature="0"
       style="fill:none;stroke:#000000;stroke-width:1.41111112;stroke-linecap:round;stroke-miterlimit:4;stroke-dasharray:none"
       d="m -10.428521,93.94255 0,-72.82039"
       id="path23038" />
    <path
       inkscape:connector-curvature="0"
       style="fill:none;stroke:#000000;stroke-width:1.41111112;stroke-linecap:round;stroke-miterlimit:4;stroke-dasharray:none"
       d="m 12.135579,21.12216 8.20512,0"
       id="path23042" />
    <path
       inkscape:connector-curvature="0"
       style="fill:none;stroke:#000000;stroke-width:1.41111112;stroke-linecap:round;stroke-miterlimit:4;stroke-dasharray:none"
       d="m 20.340699,21.12216 0,72.82039"
       id="path23044" />
    <path
       inkscape:connector-curvature="0"
       style="fill:none;stroke:#000000;stroke-width:1.41111112;stroke-linecap:round;stroke-miterlimit:4;stroke-dasharray:none"
       d="m 20.340699,93.94255 -8.20512,0"
       id="path23046" />
    <path
       inkscape:connector-curvature="0"
       style="fill:none;stroke:#000000;stroke-width:1.41111112;stroke-linecap:round;stroke-miterlimit:4;stroke-dasharray:none"
       d="m 12.135579,93.94255 0,-72.82039"
       id="path23048" />
    <path
       inkscape:connector-curvature="0"
       style="fill:none;stroke:#000000;stroke-width:1.41111112;stroke-linecap:round;stroke-miterlimit:4;stroke-dasharray:none"
       d="m 34.699679,21.12216 8.20513,0"
       id="path23052" />
    <path
       inkscape:connector-curvature="0"
       style="fill:none;stroke:#000000;stroke-width:1.41111112;stroke-linecap:round;stroke-miterlimit:4;stroke-dasharray:none"
       d="m 42.904809,21.12216 0,72.82039"
       id="path23054" />
    <path
       inkscape:connector-curvature="0"
       style="fill:none;stroke:#000000;stroke-width:1.41111112;stroke-linecap:round;stroke-miterlimit:4;stroke-dasharray:none"
       d="m 42.904809,93.94255 -8.20513,0"
       id="path23056" />
    <path
       inkscape:connector-curvature="0"
       style="fill:none;stroke:#000000;stroke-width:1.41111112;stroke-linecap:round;stroke-miterlimit:4;stroke-dasharray:none"
       d="m 34.699679,93.94255 0,-72.82039"
       id="path23058" />
    <path
       inkscape:connector-curvature="0"
       style="fill:none;stroke:#000000;stroke-width:1.41111112;stroke-linecap:round;stroke-miterlimit:4;stroke-dasharray:none"
       d="m 57.263778,21.12216 8.205126,0"
       id="path23062" />
    <path
       inkscape:connector-curvature="0"
       style="fill:none;stroke:#000000;stroke-width:1.41111112;stroke-linecap:round;stroke-miterlimit:4;stroke-dasharray:none"
       d="m 65.468904,21.12216 0,72.82039"
       id="path23064" />
    <path
       inkscape:connector-curvature="0"
       style="fill:none;stroke:#000000;stroke-width:1.41111112;stroke-linecap:round;stroke-miterlimit:4;stroke-dasharray:none"
       d="m 65.468904,93.94255 -8.205126,0"
       id="path23066" />
    <path
       inkscape:connector-curvature="0"
       style="fill:none;stroke:#000000;stroke-width:1.41111112;stroke-linecap:round;stroke-miterlimit:4;stroke-dasharray:none"
       d="m 57.263778,93.94255 0,-72.82039"
       id="path23068" />
    <path
       inkscape:connector-curvature="0"
       style="fill:none;stroke:#000000;stroke-width:1.41111112;stroke-linecap:round;stroke-miterlimit:4;stroke-dasharray:none"
       d="m 79.827877,21.12216 8.205125,0"
       id="path23072" />
    <path
       inkscape:connector-curvature="0"
       style="fill:none;stroke:#000000;stroke-width:1.41111112;stroke-linecap:round;stroke-miterlimit:4;stroke-dasharray:none"
       d="m 88.033002,21.12216 0,72.82039"
       id="path23074" />
    <path
       inkscape:connector-curvature="0"
       style="fill:none;stroke:#000000;stroke-width:1.41111112;stroke-linecap:round;stroke-miterlimit:4;stroke-dasharray:none"
       d="m 88.033002,93.94255 -8.205125,0"
       id="path23076" />
    <path
       inkscape:connector-curvature="0"
       style="fill:none;stroke:#000000;stroke-width:1.41111112;stroke-linecap:round;stroke-miterlimit:4;stroke-dasharray:none"
       d="m 79.827877,93.94255 0,-72.82039"
       id="path23078" />
    <path
       inkscape:connector-curvature="0"
       style="fill:none;stroke:#000000;stroke-width:1.41111112;stroke-linecap:round;stroke-miterlimit:4;stroke-dasharray:none"
       d="m 102.39198,21.12216 8.20512,0"
       id="path23082" />
    <path
       inkscape:connector-curvature="0"
       style="fill:none;stroke:#000000;stroke-width:1.41111112;stroke-linecap:round;stroke-miterlimit:4;stroke-dasharray:none"
       d="m 110.5971,21.12216 0,72.82039"
       id="path23084" />
    <path
       inkscape:connector-curvature="0"
       style="fill:none;stroke:#000000;stroke-width:1.41111112;stroke-linecap:round;stroke-miterlimit:4;stroke-dasharray:none"
       d="m 110.5971,93.94255 -8.20512,0"
       id="path23086" />
    <path
       inkscape:connector-curvature="0"
       style="fill:none;stroke:#000000;stroke-width:1.41111112;stroke-linecap:round;stroke-miterlimit:4;stroke-dasharray:none"
       d="m 102.39198,93.94255 0,-72.82039"
       id="path23088" />
    <path
       inkscape:connector-curvature="0"
       style="fill:none;stroke:#000000;stroke-width:1.41111112;stroke-linecap:round;stroke-miterlimit:4;stroke-dasharray:none"
       d="m 124.95608,21.12216 8.20512,0"
       id="path23092" />
    <path
       inkscape:connector-curvature="0"
       style="fill:none;stroke:#000000;stroke-width:1.41111112;stroke-linecap:round;stroke-miterlimit:4;stroke-dasharray:none"
       d="m 133.1612,21.12216 0,72.82039"
       id="path23094" />
    <path
       inkscape:connector-curvature="0"
       style="fill:none;stroke:#000000;stroke-width:1.41111112;stroke-linecap:round;stroke-miterlimit:4;stroke-dasharray:none"
       d="m 133.1612,93.94255 -8.20512,0"
       id="path23096" />
    <path
       inkscape:connector-curvature="0"
       style="fill:none;stroke:#000000;stroke-width:1.41111112;stroke-linecap:round;stroke-miterlimit:4;stroke-dasharray:none"
       d="m 124.95608,93.94255 0,-72.82039"
       id="path23098" />
    <path
       inkscape:connector-curvature="0"
       style="fill:none;stroke:#000000;stroke-width:1.41111112;stroke-linecap:round;stroke-miterlimit:4;stroke-dasharray:none"
       d="m 147.52018,21.12216 8.20512,0"
       id="path23102" />
    <path
       inkscape:connector-curvature="0"
       style="fill:none;stroke:#000000;stroke-width:1.41111112;stroke-linecap:round;stroke-miterlimit:4;stroke-dasharray:none"
       d="m 155.7253,21.12216 0,72.82039"
       id="path23104" />
    <path
       inkscape:connector-curvature="0"
       style="fill:none;stroke:#000000;stroke-width:1.41111112;stroke-linecap:round;stroke-miterlimit:4;stroke-dasharray:none"
       d="m 155.7253,93.94255 -8.20512,0"
       id="path23106" />
    <path
       inkscape:connector-curvature="0"
       style="fill:none;stroke:#000000;stroke-width:1.41111112;stroke-linecap:round;stroke-miterlimit:4;stroke-dasharray:none"
       d="m 147.52018,93.94255 0,-72.82039"
       id="path23108" />
    <path
       inkscape:connector-curvature="0"
       style="fill:none;stroke:#000000;stroke-width:1.41111112;stroke-linecap:round;stroke-miterlimit:4;stroke-dasharray:none"
       d="m 170.08427,21.12216 8.20513,0"
       id="path23112" />
    <path
       inkscape:connector-curvature="0"
       style="fill:none;stroke:#000000;stroke-width:1.41111112;stroke-linecap:round;stroke-miterlimit:4;stroke-dasharray:none"
       d="m 178.2894,21.12216 0,72.82039"
       id="path23114" />
    <path
       inkscape:connector-curvature="0"
       style="fill:none;stroke:#000000;stroke-width:1.41111112;stroke-linecap:round;stroke-miterlimit:4;stroke-dasharray:none"
       d="m 178.2894,93.94255 -8.20513,0"
       id="path23116" />
    <path
       inkscape:connector-curvature="0"
       style="fill:none;stroke:#000000;stroke-width:1.41111112;stroke-linecap:round;stroke-miterlimit:4;stroke-dasharray:none"
       d="m 170.08427,93.94255 0,-72.82039"
       id="path23118" />
    <path
       inkscape:connector-curvature="0"
       style="fill:none;stroke:#000000;stroke-width:1.41111112;stroke-linecap:round;stroke-miterlimit:4;stroke-dasharray:none"
       d="m 192.64838,21.12216 8.20512,0"
       id="path23122" />
    <path
       inkscape:connector-curvature="0"
       style="fill:none;stroke:#000000;stroke-width:1.41111112;stroke-linecap:round;stroke-miterlimit:4;stroke-dasharray:none"
       d="m 200.8535,21.12216 0,72.82039"
       id="path23124" />
    <path
       inkscape:connector-curvature="0"
       style="fill:none;stroke:#000000;stroke-width:1.41111112;stroke-linecap:round;stroke-miterlimit:4;stroke-dasharray:none"
       d="m 200.8535,93.94255 -8.20512,0"
       id="path23126" />
    <path
       inkscape:connector-curvature="0"
       style="fill:none;stroke:#000000;stroke-width:1.41111112;stroke-linecap:round;stroke-miterlimit:4;stroke-dasharray:none"
       d="m 192.64838,93.94255 0,-72.82039"
       id="path23128" />
    <path
       inkscape:connector-curvature="0"
       style="fill:none;stroke:#000000;stroke-width:1.41111112;stroke-linecap:round;stroke-miterlimit:4;stroke-dasharray:none"
       d="m 215.21247,21.12216 8.20513,0"
       id="path23132" />
    <path
       inkscape:connector-curvature="0"
       style="fill:none;stroke:#000000;stroke-width:1.41111112;stroke-linecap:round;stroke-miterlimit:4;stroke-dasharray:none"
       d="m 223.4176,21.12216 0,72.82039"
       id="path23134" />
    <path
       inkscape:connector-curvature="0"
       style="fill:none;stroke:#000000;stroke-width:1.41111112;stroke-linecap:round;stroke-miterlimit:4;stroke-dasharray:none"
       d="m 223.4176,93.94255 -8.20513,0"
       id="path23136" />
    <path
       inkscape:connector-curvature="0"
       style="fill:none;stroke:#000000;stroke-width:1.41111112;stroke-linecap:round;stroke-miterlimit:4;stroke-dasharray:none"
       d="m 215.21247,93.94255 0,-72.82039"
       id="path23138" />
    <path
       inkscape:connector-curvature="0"
       style="fill:none;stroke:#000000;stroke-width:1.41111112;stroke-linecap:round;stroke-miterlimit:4;stroke-dasharray:none"
       d="m -17.608011,34.455467 c 1.19658,0 2.39316,0 3.58974,0 1.19659,0 2.39317,0 3.58975,0 1.5042698,0 3.0085398,0 4.5128198,0 1.50427,0 3.00854,0 4.51282,0 1.50427002,0 3.00854,0 4.51282,0 1.50427,0 3.00854,0 4.51282,0 1.50427,0 3.0085502,0 4.5128202,0 1.50427,0 3.00854,0 4.51282,0 1.50427,0 3.00854,0 4.51282,0 1.50427,0 3.00855,0 4.51282,0 1.50427,0 3.00854,0 4.51282,0 1.50427,0 3.00854,0 4.51282,0 1.50427,0 3.00855,0 4.51282,0 1.50427,0 3.00854,0 4.51282,0 1.50427,0 3.00854,0 4.51282,0 1.50427,0 3.00854,0 4.51282,0 1.50427,0 3.008543,0 4.512819,0 1.504273,0 3.008545,0 4.512818,0 1.504273,0 3.008548,0 4.512821,0 1.504272,0 3.008545,0 4.512821,0 1.504272,0 3.008545,0 4.512818,0 1.504272,0 3.008548,0 4.512821,0 1.504272,0 3.008545,0 4.51282,0 1.504273,0 3.008546,0 4.512818,0 1.504276,0 3.008549,0 4.512821,0 1.504273,0 3.008549,0 4.512821,0 1.504272,0 3.008543,0 4.512823,0 1.50427,0 3.00854,0 4.51282,0 1.50427,0 3.00854,0 4.51282,0 1.50427,0 3.00854,0 4.51282,0 1.50427,0 3.00854,0 4.51282,0 1.50427,0 3.00854,0 4.51282,0 1.50427,0 3.00854,0 4.51282,0 1.50427,0 3.00854,0 4.51282,0 1.50427,0 3.00854,0 4.51282,0 1.50427,0 3.00854,0 4.51281,0 1.50428,0 3.00855,0 4.51283,0 1.50427,0 3.00854,0 4.51282,0 1.50427,0 3.00854,0 4.51281,0 1.50428,0 3.00855,0 4.51283,0 1.50427,0 3.00854,0 4.51282,0 1.50427,0 3.00854,0 4.51281,0 1.50428,0 3.00855,0 4.51283,0 1.50427,0 3.00854,0 4.51282,0 1.50427,0 3.00854,0 4.51282,0 1.50427,0 3.00854,0 4.51281,0 1.50428,0 3.00855,0 4.51283,0 1.50427,0 3.00854,0 4.51282,0 1.50427,0 3.00854,0 4.51281,0 1.50428,0 3.00855,0 4.51283,0 1.50427,0 3.00854,0 4.51282,0 1.50427,0 3.00854,0 4.51281,0 1.70941,0 3.41881,0 5.12821,0 1.7094,0 3.4188,0 5.1282,0 1.7094,0 3.41881,0 5.12821,0"
       id="path23142" />
    <path
       inkscape:connector-curvature="0"
       style="fill:none;stroke:#000000;stroke-width:1.41111112;stroke-linecap:round;stroke-miterlimit:4;stroke-dasharray:none"
       d="m -17.608011,80.609243 c 1.19658,0 2.39316,0 3.58974,0 1.19659,0 2.39317,0 3.58975,0 1.5042698,0 3.0085398,0 4.5128198,0 1.50427,0 3.00854,0 4.51282,0 1.50427002,0 3.00854,0 4.51282,0 1.50427,0 3.00854,0 4.51282,0 1.50427,0 3.0085502,0 4.5128202,0 1.50427,0 3.00854,0 4.51282,0 1.50427,0 3.00854,0 4.51282,0 1.50427,0 3.00855,0 4.51282,0 1.50427,0 3.00854,0 4.51282,0 1.50427,0 3.00854,0 4.51282,0 1.50427,0 3.00855,0 4.51282,0 1.50427,0 3.00854,0 4.51282,0 1.50427,0 3.00854,0 4.51282,0 1.50427,0 3.00854,0 4.51282,0 1.50427,0 3.008543,0 4.512819,0 1.504273,0 3.008545,0 4.512818,0 1.504273,0 3.008548,0 4.512821,0 1.504272,0 3.008545,0 4.512821,0 1.504272,0 3.008545,0 4.512818,0 1.504272,0 3.008548,0 4.512821,0 1.504272,0 3.008545,0 4.51282,0 1.504273,0 3.008546,0 4.512818,0 1.504276,0 3.008549,0 4.512821,0 1.504273,0 3.008549,0 4.512821,0 1.504272,0 3.008543,0 4.512823,0 1.50427,0 3.00854,0 4.51282,0 1.50427,0 3.00854,0 4.51282,0 1.50427,0 3.00854,0 4.51282,0 1.50427,0 3.00854,0 4.51282,0 1.50427,0 3.00854,0 4.51282,0 1.50427,0 3.00854,0 4.51282,0 1.50427,0 3.00854,0 4.51282,0 1.50427,0 3.00854,0 4.51282,0 1.50427,0 3.00854,0 4.51281,0 1.50428,0 3.00855,0 4.51283,0 1.50427,0 3.00854,0 4.51282,0 1.50427,0 3.00854,0 4.51281,0 1.50428,0 3.00855,0 4.51283,0 1.50427,0 3.00854,0 4.51282,0 1.50427,0 3.00854,0 4.51281,0 1.50428,0 3.00855,0 4.51283,0 1.50427,0 3.00854,0 4.51282,0 1.50427,0 3.00854,0 4.51282,0 1.50427,0 3.00854,0 4.51281,0 1.50428,0 3.00855,0 4.51283,0 1.50427,0 3.00854,0 4.51282,0 1.50427,0 3.00854,0 4.51281,0 1.50428,0 3.00855,0 4.51283,0 1.50427,0 3.00854,0 4.51282,0 1.50427,0 3.00854,0 4.51281,0 1.70941,0 3.41881,0 5.12821,0 1.7094,0 3.4188,0 5.1282,0 1.7094,0 3.41881,0 5.12821,0"
       id="path23146" />
  </g>
</svg>
