<?xml version="1.0" encoding="UTF-8" standalone="no"?>
<!-- 2019-08-30 11:23:15 Generated by QCAD 3.23.0 SVG Exporter -->

<svg
   xmlns:qs="http://qcad.org/namespaces/svg"
   xmlns:dc="http://purl.org/dc/elements/1.1/"
   xmlns:cc="http://creativecommons.org/ns#"
   xmlns:rdf="http://www.w3.org/1999/02/22-rdf-syntax-ns#"
   xmlns:svg="http://www.w3.org/2000/svg"
   xmlns="http://www.w3.org/2000/svg"
   xmlns:sodipodi="http://sodipodi.sourceforge.net/DTD/sodipodi-0.dtd"
   xmlns:inkscape="http://www.inkscape.org/namespaces/inkscape"
   width="1200"
   height="640"
   viewBox="-53.9875 -30.073 338.66667 180.62222"
   version="1.1"
   style="fill:none;stroke-linecap:round;stroke-linejoin:round"
   id="svg2"
   inkscape:version="0.48.5 r10040"
   sodipodi:docname="Empty.svg">
  <metadata
     id="metadata138">
    <rdf:RDF>
      <cc:Work
         rdf:about="">
        <dc:format>image/svg+xml</dc:format>
        <dc:type
           rdf:resource="http://purl.org/dc/dcmitype/StillImage" />
        <dc:title></dc:title>
      </cc:Work>
    </rdf:RDF>
  </metadata>
  <defs
     id="defs136" />
  <sodipodi:namedview
     pagecolor="#ffffff"
     bordercolor="#666666"
     borderopacity="1"
     objecttolerance="10"
     gridtolerance="10"
     guidetolerance="10"
     inkscape:pageopacity="0"
     inkscape:pageshadow="2"
     inkscape:window-width="1920"
     inkscape:window-height="1018"
     id="namedview134"
     showgrid="false"
     inkscape:zoom="1.2984375"
     inkscape:cx="511.43201"
     inkscape:cy="320"
     inkscape:window-x="-8"
     inkscape:window-y="-8"
     inkscape:window-maximized="1"
     inkscape:current-layer="layer1"
     fit-margin-top="10"
     fit-margin-left="10"
     fit-margin-right="10"
     fit-margin-bottom="10"
     borderlayer="false" />
  <g
     inkscape:groupmode="layer"
     id="layer9"
     inkscape:label="REF"
     style="display:none">
    <path
       style="fill:none;stroke:#ff00ff;stroke-width:0.28222221px;stroke-linecap:butt;stroke-linejoin:miter;stroke-opacity:1"
       d="M -53.994232,-29.327488 -33.168223,71.425354 -53.994232,151.07076"
       id="path28085"
       inkscape:connector-curvature="0"
       sodipodi:nodetypes="ccc" />
  </g>
  <g
     inkscape:groupmode="layer"
     id="layer1"
     inkscape:label="BaseLine"
     style="display:inline">
    <g
       transform="translate(-505.4832,-8228.7926)"
       style="fill:none;stroke-linecap:round;stroke-linejoin:round;display:inline"
       id="g25344">
      <line
         x1="473.0769"
         y1="8307.6914"
         x2="473.0769"
         y2="8336.5371"
         style="fill:none;stroke:#0000ff;stroke-width:0.56444448;stroke-linecap:round;stroke-linejoin:round;stroke-miterlimit:4;stroke-dasharray:none;display:inline"
         qs:layer="layer 1"
         id="line752"
         transform="translate(-7.8986665e-6,1.3886214e-4)" />
      <line
         x1="542.30762"
         y1="8307.6914"
         x2="542.30762"
         y2="8336.5371"
         style="fill:none;stroke:#0000ff;stroke-width:0.56444448;stroke-linecap:round;stroke-linejoin:round;stroke-miterlimit:4;stroke-dasharray:none;display:inline"
         qs:layer="layer 1"
         id="line762"
         transform="translate(-7.8986665e-6,1.3886214e-4)" />
      <line
         x1="606.03571"
         y1="8283.8516"
         x2="620.87689"
         y2="8308.5869"
         style="fill:none;stroke:#0000ff;stroke-width:0.56444448;stroke-linecap:round;stroke-linejoin:round;stroke-miterlimit:4;stroke-dasharray:none;display:inline"
         qs:layer="layer 1"
         id="line772"
         transform="translate(-7.8986665e-6,1.3886214e-4)" />
      <line
         x1="669.47083"
         y1="8258.9561"
         x2="669.66937"
         y2="8287.8018"
         style="fill:none;stroke:#0000ff;stroke-width:0.56444448;stroke-linecap:round;stroke-linejoin:round;stroke-miterlimit:4;stroke-dasharray:none;display:inline"
         qs:layer="layer 1"
         id="line782"
         transform="translate(-7.8986665e-6,1.3886214e-4)" />
      <line
         x1="730.80872"
         y1="8286.2939"
         x2="709.22467"
         y2="8305.4307"
         style="fill:none;stroke:#0000ff;stroke-width:0.56444448;stroke-linecap:round;stroke-linejoin:round;stroke-miterlimit:4;stroke-dasharray:none;display:inline"
         qs:layer="layer 1"
         id="line792"
         transform="translate(-7.8986665e-6,1.3886214e-4)" />
      <line
         x1="473.0769"
         y1="8307.6914"
         x2="543.80371"
         y2="8307.6914"
         style="fill:none;stroke:#ff0000;stroke-width:1.41111124;stroke-linecap:round;stroke-linejoin:round;stroke-miterlimit:4;stroke-dasharray:none;display:inline"
         qs:layer="layer 2"
         id="line280"
         transform="translate(-7.8986665e-6,1.3886214e-4)" />
      <path
         d="m 543.8037,8307.6912 a 81.2283,81.2283 0 0 0 41.7917,-11.5756"
         style="fill:none;stroke:#ff0000;stroke-width:1.41111124;stroke-linecap:round;stroke-linejoin:round;stroke-miterlimit:4;stroke-dasharray:none;display:inline"
         qs:layer="layer 2"
         id="path282"
         inkscape:connector-curvature="0"
         transform="translate(-7.8986665e-6,1.3886214e-4)" />
      <line
         x1="585.5954"
         y1="8296.1152"
         x2="628.23828"
         y2="8270.5303"
         style="fill:none;stroke:#ff0000;stroke-width:1.41111124;stroke-linecap:round;stroke-linejoin:round;stroke-miterlimit:4;stroke-dasharray:none;display:inline"
         qs:layer="layer 2"
         id="line284"
         transform="translate(-7.8986665e-6,1.3886214e-4)" />
      <path
         d="m 628.2383,8270.5298 a 81.2283,81.2283 0 0 1 121.7616,55.4107"
         style="fill:none;stroke:#ff0000;stroke-width:1.41111124;stroke-linecap:round;stroke-linejoin:round;stroke-miterlimit:4;stroke-dasharray:none;display:inline"
         qs:layer="layer 2"
         id="path286"
         inkscape:connector-curvature="0"
         transform="translate(-7.8986665e-6,1.3886214e-4)" />
      <line
         x1="473.0769"
         y1="8273.0762"
         x2="473.0769"
         y2="8307.6914"
         style="fill:none;stroke:#000000;stroke-width:1.41111124;stroke-linecap:round;stroke-linejoin:round;stroke-miterlimit:4;stroke-dasharray:none"
         qs:layer="0"
         id="line9308"
         transform="translate(5.8142213e-8,-1.0983198e-6)" />
      <path
         d="m 473.0769,8307.6912 c 1.282,0 2.5641,0 3.8461,0 m 0,0 c 1.2821,0 2.5641,0 3.8462,0 m 0,0 c 1.282,0 2.5641,0 3.8461,0 m 0,0 c 1.2821,0 2.5641,0 3.8462,0 m 0,0 c 1.282,0 2.5641,0 3.8461,0 m 0,0 c 1.2821,0 2.5641,0 3.8462,0 m 0,0 c 1.282,0 2.5641,0 3.8461,0 m 0,0 c 1.2821,0 2.5641,0 3.8462,0 m 0,0 c 1.282,0 2.5641,0 3.8461,0"
         style="fill:none;stroke:#000000;stroke-width:1.41111124;stroke-linecap:round;stroke-linejoin:round;stroke-miterlimit:4;stroke-dasharray:none"
         qs:layer="0"
         id="path9312"
         inkscape:connector-curvature="0"
         transform="translate(5.8142213e-8,-1.0983198e-6)" />
      <line
         x1="507.6922"
         y1="8307.6914"
         x2="507.6922"
         y2="8273.0762"
         style="fill:none;stroke:#000000;stroke-width:1.41111124;stroke-linecap:round;stroke-linejoin:round;stroke-miterlimit:4;stroke-dasharray:none"
         qs:layer="0"
         id="line9316"
         transform="translate(5.8142213e-8,-1.0983198e-6)" />
      <path
         d="m 507.6922,8273.0758 c -1.282,0 -2.5641,0 -3.8461,0 m 0,0 c -1.2821,0 -2.5641,0 -3.8462,0 m 0,0 c -1.282,0 -2.5641,0 -3.8461,0 m 0,0 c -1.2821,0 -2.5641,0 -3.8462,0 m 0,0 c -1.282,0 -2.5641,0 -3.8461,0 m 0,0 c -1.2821,0 -2.5641,0 -3.8462,0 m 0,0 c -1.282,0 -2.5641,0 -3.8461,0 m 0,0 c -1.2821,0 -2.5641,0 -3.8462,0 m 0,0 c -1.282,0 -2.5641,0 -3.8461,0"
         style="fill:none;stroke:#000000;stroke-width:1.41111124;stroke-linecap:round;stroke-linejoin:round;stroke-miterlimit:4;stroke-dasharray:none"
         qs:layer="0"
         id="path9320"
         inkscape:connector-curvature="0"
         transform="translate(5.8142213e-8,-1.0983198e-6)" />
      <line
         x1="542.30762"
         y1="8273.0762"
         x2="542.30762"
         y2="8307.6914"
         style="fill:none;stroke:#000000;stroke-width:1.41111124;stroke-linecap:round;stroke-linejoin:round;stroke-miterlimit:4;stroke-dasharray:none"
         qs:layer="0"
         id="line9324"
         transform="translate(5.8142213e-8,-1.0983198e-6)" />
      <path
         d="m 542.3076,8307.6912 c 1.2822,3e-4 2.5644,5e-4 3.8458,-0.034 m 0,0 c 1.2815,-0.034 2.5622,-0.1038 3.8405,-0.2022 m 0,0 c 1.2784,-0.098 2.5544,-0.2259 3.8266,-0.3838 m 0,0 c 1.2723,-0.1579 2.5408,-0.3462 3.8042,-0.5644 m 0,0 c 1.2633,-0.2183 2.5215,-0.4663 3.7731,-0.7439 m 0,0 c 1.2517,-0.2776 2.4968,-0.5847 3.7337,-0.9217 m 0,0 c 1.237,-0.3369 2.4657,-0.7037 3.686,-1.0973 m 0,0 c 1.2202,-0.3937 2.432,-0.8142 3.6298,-1.2706 m 0,0 c 1.1978,-0.4564 2.3817,-0.9487 3.5657,-1.4409"
         style="fill:none;stroke:#000000;stroke-width:1.41111124;stroke-linecap:round;stroke-linejoin:round;stroke-miterlimit:4;stroke-dasharray:none"
         qs:layer="0"
         id="path9328"
         inkscape:connector-curvature="0"
         transform="translate(5.8142213e-8,-1.0983198e-6)" />
      <line
         x1="576.013"
         y1="8301.0322"
         x2="562.28699"
         y2="8269.2549"
         style="fill:none;stroke:#000000;stroke-width:1.41111124;stroke-linecap:round;stroke-linejoin:round;stroke-miterlimit:4;stroke-dasharray:none"
         qs:layer="0"
         id="line9332"
         transform="translate(5.8142213e-8,-1.0983198e-6)" />
      <path
         d="m 562.287,8269.2546 c -0.6794,0.2825 -1.3587,0.565 -2.0461,0.8269 m 0,0 c -0.6874,0.2619 -1.3828,0.5033 -2.083,0.7291 m 0,0 c -0.7003,0.2259 -1.4054,0.4364 -2.1152,0.6298 m 0,0 c -0.7098,0.1933 -1.4243,0.3695 -2.1426,0.5288 m 0,0 c -0.7182,0.1593 -1.4402,0.3017 -2.1652,0.4269 m 0,0 c -0.725,0.1252 -1.4529,0.2333 -2.183,0.3239 m 0,0 c -0.7301,0.091 -1.4623,0.1641 -2.1959,0.2203 m 0,0 c -0.7336,0.056 -1.4686,0.095 -2.2039,0.116 m 0,0 c -0.9477,0.027 -1.8961,0.023 -2.8445,0.02"
         style="fill:none;stroke:#000000;stroke-width:1.41111124;stroke-linecap:round;stroke-linejoin:round;stroke-miterlimit:4;stroke-dasharray:none"
         qs:layer="0"
         id="path9336"
         inkscape:connector-curvature="0"
         transform="translate(5.8142213e-8,-1.0983198e-6)" />
      <line
         x1="588.2262"
         y1="8254.1689"
         x2="606.03571"
         y2="8283.8516"
         style="fill:none;stroke:#000000;stroke-width:1.41111124;stroke-linecap:round;stroke-linejoin:round;stroke-miterlimit:4;stroke-dasharray:none"
         qs:layer="0"
         id="line9340"
         transform="translate(5.8142213e-8,-1.0983198e-6)" />
      <path
         d="m 606.0357,8283.8514 c 1.0993,-0.6596 2.1987,-1.3192 3.298,-1.9788 m 0,0 c 1.0994,-0.6596 2.1987,-1.3192 3.2981,-1.9788 m 0,0 c 1.0993,-0.6597 2.1986,-1.3193 3.298,-1.9789 m 0,0 c 1.0994,-0.6595 2.1988,-1.319 3.2981,-1.9788 m 0,0 c 1.0992,-0.6598 2.1983,-1.3199 3.298,-1.9788 m 0,0 c 1.0997,-0.659 2.2002,-1.3168 3.2981,-1.9789 m 0,0 c 1.0978,-0.662 2.1932,-1.3282 3.3013,-1.9732 m 0,0 c 1.1081,-0.6449 2.2289,-1.2687 3.3675,-1.8574 m 0,0 c 1.1387,-0.5887 2.2952,-1.1424 3.4517,-1.696"
         style="fill:none;stroke:#000000;stroke-width:1.41111124;stroke-linecap:round;stroke-linejoin:round;stroke-miterlimit:4;stroke-dasharray:none"
         qs:layer="0"
         id="path9344"
         inkscape:connector-curvature="0"
         transform="translate(5.8142213e-8,-1.0983198e-6)" />
      <line
         x1="635.94452"
         y1="8266.4521"
         x2="621.41901"
         y2="8235.0312"
         style="fill:none;stroke:#000000;stroke-width:1.41111124;stroke-linecap:round;stroke-linejoin:round;stroke-miterlimit:4;stroke-dasharray:none"
         qs:layer="0"
         id="line9348"
         transform="translate(5.8142213e-8,-1.0983198e-6)" />
      <path
         d="m 621.419,8235.0315 c -1.6492,0.7898 -3.2984,1.5796 -4.9226,2.4187 m 0,0 c -1.6241,0.8391 -3.2233,1.7276 -4.8025,2.649 m 0,0 c -1.2339,0.72 -2.4556,1.4601 -3.6794,2.1968 m 0,0 c -1.0984,0.6612 -2.1985,1.3196 -3.2981,1.9788 m 0,0 c -1.0996,0.6592 -2.1987,1.3191 -3.298,1.9789 m 0,0 c -1.0993,0.6597 -2.1987,1.3192 -3.2981,1.9788 m 0,0 c -1.0993,0.6596 -2.1987,1.3192 -3.298,1.9788 m 0,0 c -1.0994,0.6596 -2.1987,1.3192 -3.2981,1.9788 m 0,0 c -1.0993,0.6596 -2.1987,1.3193 -3.298,1.9789"
         style="fill:none;stroke:#000000;stroke-width:1.41111124;stroke-linecap:round;stroke-linejoin:round;stroke-miterlimit:4;stroke-dasharray:none"
         qs:layer="0"
         id="path9352"
         inkscape:connector-curvature="0"
         transform="translate(5.8142213e-8,-1.0983198e-6)" />
      <line
         x1="669.2326"
         y1="8224.3418"
         x2="669.47083"
         y2="8258.9561"
         style="fill:none;stroke:#000000;stroke-width:1.41111124;stroke-linecap:round;stroke-linejoin:round;stroke-miterlimit:4;stroke-dasharray:none"
         qs:layer="0"
         id="line9356"
         transform="translate(5.8142213e-8,-1.0983198e-6)" />
      <path
         d="m 669.4708,8258.9562 c 1.2822,0.01 2.5643,0.017 3.8453,0.064 m 0,0 c 1.2809,0.047 2.5607,0.1328 3.8379,0.2465 m 0,0 c 1.2771,0.1137 2.5515,0.2555 3.8219,0.4279 m 0,0 c 1.2703,0.1724 2.5366,0.3755 3.7973,0.6083 m 0,0 c 1.2608,0.2328 2.516,0.4954 3.7644,0.7874 m 0,0 c 1.2483,0.292 2.4899,0.6135 3.7228,0.9646 m 0,0 c 1.233,0.3512 2.4574,0.7321 3.673,1.1398 m 0,0 c 1.2157,0.4077 2.4225,0.8422 3.615,1.3124 m 0,0 c 1.1925,0.4702 2.3706,0.9761 3.5488,1.482"
         style="fill:none;stroke:#000000;stroke-width:1.41111124;stroke-linecap:round;stroke-linejoin:round;stroke-miterlimit:4;stroke-dasharray:none"
         qs:layer="0"
         id="path9360"
         inkscape:connector-curvature="0"
         transform="translate(5.8142213e-8,-1.0983198e-6)" />
      <line
         x1="703.09723"
         y1="8265.9893"
         x2="717.18878"
         y2="8234.3721"
         style="fill:none;stroke:#000000;stroke-width:1.41111124;stroke-linecap:round;stroke-linejoin:round;stroke-miterlimit:4;stroke-dasharray:none"
         qs:layer="0"
         id="line9364"
         transform="translate(5.8142213e-8,-1.0983198e-6)" />
      <path
         d="m 717.1888,8234.3723 c -1.6803,-0.7215 -3.3605,-1.443 -5.0611,-2.1135 m 0,0 c -1.7007,-0.6706 -3.4218,-1.2902 -5.1555,-1.8716 m 0,0 c -1.7337,-0.5815 -3.4799,-1.1247 -5.2383,-1.6256 m 0,0 c -1.7583,-0.5008 -3.5289,-0.9592 -5.3093,-1.3757 m 0,0 c -1.7803,-0.4164 -3.5705,-0.7909 -5.3685,-1.1229 m 0,0 c -1.798,-0.332 -3.6039,-0.6216 -5.4156,-0.8675 m 0,0 c -1.8117,-0.2459 -3.6293,-0.4481 -5.4506,-0.6103 m 0,0 c -1.8214,-0.1621 -3.6466,-0.2842 -5.4734,-0.3515 m 0,0 c -1.8269,-0.067 -3.6554,-0.08 -5.4839,-0.092"
         style="fill:none;stroke:#000000;stroke-width:1.41111124;stroke-linecap:round;stroke-linejoin:round;stroke-miterlimit:4;stroke-dasharray:none"
         qs:layer="0"
         id="path9368"
         inkscape:connector-curvature="0"
         transform="translate(5.8142213e-8,-1.0983198e-6)" />
      <line
         x1="756.70959"
         y1="8263.3291"
         x2="730.80872"
         y2="8286.2939"
         style="fill:none;stroke:#000000;stroke-width:1.41111124;stroke-linecap:round;stroke-linejoin:round;stroke-miterlimit:4;stroke-dasharray:none"
         qs:layer="0"
         id="line9372"
         transform="translate(5.8142213e-8,-1.0983198e-6)" />
      <path
         d="m 730.8087,8286.294 c 0.8374,0.9709 1.6749,1.9419 2.4826,2.9372 m 0,0 c 0.8077,0.9954 1.5856,2.0152 2.3407,3.0514 m 0,0 c 0.7551,1.0363 1.4873,2.089 2.1937,3.1588 m 0,0 c 0.7064,1.0698 1.3871,2.1567 2.0417,3.2591 m 0,0 c 0.6546,1.1023 1.2832,2.2201 1.8852,3.352 m 0,0 c 0.6019,1.132 1.1771,2.2782 1.7243,3.4376 m 0,0 c 0.5473,1.1593 1.0665,2.3318 1.5598,3.5153 m 0,0 c 0.4933,1.1834 0.9606,2.3779 1.3916,3.5851 m 0,0 c 0.431,1.2072 0.8257,2.4272 1.2204,3.6471"
         style="fill:none;stroke:#000000;stroke-width:1.41111124;stroke-linecap:round;stroke-linejoin:round;stroke-miterlimit:4;stroke-dasharray:none"
         qs:layer="0"
         id="path9376"
         inkscape:connector-curvature="0"
         transform="translate(5.8142213e-8,-1.0983198e-6)" />
      <line
         x1="747.64868"
         y1="8316.2373"
         x2="780.72589"
         y2="8306.0332"
         style="fill:none;stroke:#000000;stroke-width:1.41111124;stroke-linecap:round;stroke-linejoin:round;stroke-miterlimit:4;stroke-dasharray:none"
         qs:layer="0"
         id="line9380"
         transform="translate(5.8142213e-8,-1.0983198e-6)" />
      <path
         d="m 780.7259,8306.0334 c -0.5629,-1.7397 -1.1258,-3.4795 -1.7405,-5.2012 m 0,0 c -0.6146,-1.7216 -1.2811,-3.4251 -1.9846,-5.113 m 0,0 c -0.7035,-1.6878 -1.444,-3.3599 -2.2244,-5.0133 m 0,0 c -0.7805,-1.6534 -1.6009,-3.2881 -2.4593,-4.9024 m 0,0 c -0.8584,-1.6144 -1.7549,-3.2085 -2.6885,-4.7806 m 0,0 c -0.9336,-1.5721 -1.9043,-3.1222 -2.9118,-4.6479 m 0,0 c -1.0075,-1.5257 -2.0517,-3.027 -3.1285,-4.5049 m 0,0 c -1.0769,-1.4778 -2.1864,-2.9322 -3.3383,-4.3518 m 0,0 c -1.1518,-1.4195 -2.3461,-2.8042 -3.5404,-4.1888"
         style="fill:none;stroke:#000000;stroke-width:1.41111124;stroke-linecap:round;stroke-linejoin:round;stroke-miterlimit:4;stroke-dasharray:none"
         qs:layer="0"
         id="path9384"
         inkscape:connector-curvature="0"
         transform="translate(5.8142213e-8,-1.0983198e-6)" />
    </g>
  </g>
  <g
     inkscape:groupmode="layer"
     id="layer5"
     inkscape:label="Constructors"
     style="display:inline" />
  <g
     inkscape:groupmode="layer"
     id="layer2"
     inkscape:label="Painters"
     style="display:inline" />
</svg>
