<?xml version="1.0" encoding="UTF-8" standalone="no"?>
<!-- 2019-08-30 11:23:15 Generated by QCAD 3.23.0 SVG Exporter -->

<svg
   xmlns:dc="http://purl.org/dc/elements/1.1/"
   xmlns:cc="http://creativecommons.org/ns#"
   xmlns:rdf="http://www.w3.org/1999/02/22-rdf-syntax-ns#"
   xmlns:svg="http://www.w3.org/2000/svg"
   xmlns="http://www.w3.org/2000/svg"
   xmlns:sodipodi="http://sodipodi.sourceforge.net/DTD/sodipodi-0.dtd"
   xmlns:inkscape="http://www.inkscape.org/namespaces/inkscape"
   width="1200"
   height="640"
   viewBox="-53.9875 -30.073 338.66667 180.62222"
   version="1.1"
   style="fill:none;stroke-linecap:round;stroke-linejoin:round"
   id="svg2"
   inkscape:version="0.48.5 r10040"
   sodipodi:docname="2OrthoPointsGlobalFlex.svg">
  <metadata
     id="metadata138">
    <rdf:RDF>
      <cc:Work
         rdf:about="">
        <dc:format>image/svg+xml</dc:format>
        <dc:type
           rdf:resource="http://purl.org/dc/dcmitype/StillImage" />
        <dc:title></dc:title>
      </cc:Work>
    </rdf:RDF>
  </metadata>
  <defs
     id="defs136" />
  <sodipodi:namedview
     pagecolor="#ffffff"
     bordercolor="#666666"
     borderopacity="1"
     objecttolerance="10"
     gridtolerance="10"
     guidetolerance="10"
     inkscape:pageopacity="0"
     inkscape:pageshadow="2"
     inkscape:window-width="1920"
     inkscape:window-height="1018"
     id="namedview134"
     showgrid="false"
     inkscape:zoom="1.2066667"
     inkscape:cx="600"
     inkscape:cy="286.85083"
     inkscape:window-x="-8"
     inkscape:window-y="-8"
     inkscape:window-maximized="1"
     inkscape:current-layer="layer2"
     fit-margin-top="10"
     fit-margin-left="10"
     fit-margin-right="10"
     fit-margin-bottom="10"
     borderlayer="false" />
  <g
     inkscape:groupmode="layer"
     id="layer1"
     inkscape:label="BaseLine"
     style="display:inline"
     sodipodi:insensitive="true">
    <path
       inkscape:connector-curvature="0"
       style="fill:none;stroke:#ff0000;stroke-width:1.41111112;stroke-linecap:round;stroke-linejoin:round;stroke-miterlimit:4;stroke-dasharray:none;display:inline"
       d="m -40.890271,70.837285 93.80381,0"
       id="path18133" />
    <path
       inkscape:connector-curvature="0"
       style="fill:none;stroke:#ff0000;stroke-width:1.41111112;stroke-linecap:round;stroke-linejoin:round;stroke-miterlimit:4;stroke-dasharray:none;display:inline"
       d="M 52.913539,70.837285 A 81.228289,81.228289 0 0 0 94.705151,59.261686"
       id="path18135" />
    <path
       inkscape:connector-curvature="0"
       style="fill:none;stroke:#ff0000;stroke-width:1.41111112;stroke-linecap:round;stroke-linejoin:round;stroke-miterlimit:4;stroke-dasharray:none;display:inline"
       d="M 94.705151,59.261686 137.34809,33.675918"
       id="path18137" />
    <path
       inkscape:connector-curvature="0"
       style="fill:none;stroke:#ff0000;stroke-width:1.41111112;stroke-linecap:round;stroke-linejoin:round;stroke-miterlimit:4;stroke-dasharray:none;display:inline"
       d="M 259.1097,89.086592 A 81.228289,81.228289 0 0 0 137.34809,33.675918"
       id="path18139" />
  </g>
  <g
     inkscape:groupmode="layer"
     id="layer5"
     inkscape:label="Constructors"
     style="display:inline"
     sodipodi:insensitive="true">
    <path
       inkscape:connector-curvature="0"
       style="fill:none;stroke:#0000ff;stroke-width:0.56444442;stroke-linecap:round;stroke-linejoin:round;stroke-miterlimit:4;stroke-dasharray:none;display:inline"
       d="m -40.873636,36.095872 0,69.230748"
       id="path18371" />
    <path
       inkscape:connector-curvature="0"
       style="fill:none;stroke:#0000ff;stroke-width:0.56444442;stroke-linecap:round;stroke-linejoin:round;stroke-miterlimit:4;stroke-dasharray:none;display:inline"
       d="m 5.2802038,36.095872 0,69.230748"
       id="path18403" />
    <path
       inkscape:connector-curvature="0"
       style="fill:none;stroke:#0000ff;stroke-width:0.56444442;stroke-linecap:round;stroke-linejoin:round;stroke-miterlimit:4;stroke-dasharray:none;display:inline"
       d="m 51.434044,36.095872 0,69.230748"
       id="path18423" />
    <path
       inkscape:connector-curvature="0"
       style="fill:none;stroke:#0000ff;stroke-width:0.56444442;stroke-linecap:round;stroke-linejoin:round;stroke-miterlimit:4;stroke-dasharray:none;display:inline"
       d="m 77.564317,29.061991 35.618923,59.36488"
       id="path18443" />
    <path
       inkscape:connector-curvature="0"
       style="fill:none;stroke:#0000ff;stroke-width:0.56444442;stroke-linecap:round;stroke-linejoin:round;stroke-miterlimit:4;stroke-dasharray:none;display:inline"
       d="M 117.1409,5.3160392 152.75983,64.680919"
       id="path18463" />
    <path
       inkscape:connector-curvature="0"
       style="fill:none;stroke:#0000ff;stroke-width:0.56444442;stroke-linecap:round;stroke-linejoin:round;stroke-miterlimit:4;stroke-dasharray:none;display:inline"
       d="m 178.35897,-12.638374 0.47651,69.229139"
       id="path18483" />
    <path
       inkscape:connector-curvature="0"
       style="fill:none;stroke:#0000ff;stroke-width:0.56444442;stroke-linecap:round;stroke-linejoin:round;stroke-miterlimit:4;stroke-dasharray:none;display:inline"
       d="M 240.82,5.1344862 203.96841,63.742163"
       id="path18503" />
    <path
       inkscape:connector-curvature="0"
       style="fill:none;stroke:#0000ff;stroke-width:0.56444442;stroke-linecap:round;stroke-linejoin:round;stroke-miterlimit:4;stroke-dasharray:none;display:inline"
       d="M 278.12252,56.69956 221.23707,83.361148"
       id="path18523" />
  </g>
  <g
     inkscape:groupmode="layer"
     id="layer2"
     inkscape:label="Painters"
     style="display:inline">
    <path
       style="fill:none;stroke:#000000;stroke-width:1.41111112;stroke-linecap:round;stroke-miterlimit:4;stroke-dasharray:none;display:inline"
       d="m -40.884064,70.825735 c 0.83799,-2.637141 1.67599,-5.274282 2.5641,-7.892796 0.79182,-2.334627 1.62347,-4.654438 2.56411,-6.940522 0.73158,-1.778028 1.52908,-3.535652 2.5641,-5.151798 0.38296,-0.597972 0.79844,-1.176612 1.28205,-1.699993 0.3751,-0.405949 0.79119,-0.77868 1.28205,-1.041034 0.39506,-0.21113 0.83856,-0.350774 1.28205,-0.350774 0.4435,0 0.88699,0.139644 1.28205,0.350774 0.49086,0.262354 0.90695,0.635085 1.28205,1.041034 0.48362,0.523381 0.89909,1.102021 1.28205,1.699993 1.03502,1.616146 1.83252,3.37377 2.56411,5.151798 0.94063,2.286084 1.77228,4.605895 2.5641,6.940522 0.88811,2.618514 1.72611,5.255655 2.5641,7.892796"
       id="path16869"
       inkscape:connector-curvature="0" />
    <path
       style="fill:none;stroke:#000000;stroke-width:1.41111112;stroke-linecap:round;stroke-miterlimit:4;stroke-dasharray:none;display:inline"
       d="m -17.807144,70.825735 c 0.838,2.637141 1.67599,5.27431 2.5641,7.892824 0.79182,2.334627 1.62347,4.654437 2.56411,6.940522 0.73158,1.778028 1.52908,3.535623 2.564099,5.151797 0.3829604,0.597973 0.7984404,1.176613 1.2820504,1.699994 0.3751,0.405948 0.79119,0.778679 1.28205,1.041033 0.39506,0.211131 0.83856,0.350774 1.28205,0.350774 0.4435,0 0.88699,-0.139643 1.28205,-0.350774 0.49086,-0.262354 0.90695,-0.635085 1.28205,-1.041033 0.48362,-0.523381 0.89909,-1.102021 1.28205,-1.699994 1.03502,-1.616174 1.83252001,-3.373769 2.56411002,-5.151797 0.94062998,-2.286085 1.77228998,-4.605895 2.56409998,-6.940522 0.88811,-2.618514 1.72611,-5.255683 2.5641,-7.892824"
       id="path16871"
       inkscape:connector-curvature="0" />
    <path
       style="fill:none;stroke:#000000;stroke-width:1.41111112;stroke-linecap:round;stroke-miterlimit:4;stroke-dasharray:none;display:inline"
       d="m 5.2697754,70.825735 c 0.838,-2.637141 1.67599,-5.274282 2.5641,-7.892796 0.79182,-2.334627 1.6234702,-4.654438 2.5641006,-6.940522 0.73159,-1.778028 1.52909,-3.535652 2.56411,-5.151798 0.38296,-0.597972 0.79843,-1.176612 1.28205,-1.699993 0.3751,-0.405949 0.79119,-0.77868 1.28205,-1.041034 0.39506,-0.21113 0.83856,-0.350774 1.28205,-0.350774 0.44349,0 0.88699,0.139644 1.28205,0.350774 0.49086,0.262354 0.90695,0.635085 1.28205,1.041034 0.48362,0.523381 0.89909,1.102021 1.28205,1.699993 1.03502,1.616146 1.83252,3.37377 2.56411,5.151798 0.94063,2.286084 1.77228,4.605895 2.5641,6.940522 0.88811,2.618514 1.72611,5.255655 2.5641,7.892796"
       id="path16873"
       inkscape:connector-curvature="0" />
    <path
       style="fill:none;stroke:#000000;stroke-width:1.41111112;stroke-linecap:round;stroke-miterlimit:4;stroke-dasharray:none;display:inline"
       d="m 28.346696,70.825735 c 0.83799,2.637141 1.67599,5.27431 2.5641,7.892824 0.79182,2.334627 1.62347,4.654437 2.56411,6.940522 0.73158,1.778028 1.52908,3.535623 2.5641,5.151797 0.38296,0.597973 0.79844,1.176613 1.28205,1.699994 0.3751,0.405948 0.79119,0.778679 1.28205,1.041033 0.39506,0.211131 0.83856,0.350774 1.28205,0.350774 0.4435,0 0.88699,-0.139643 1.28205,-0.350774 0.49086,-0.262354 0.90695,-0.635085 1.28205,-1.041033 0.48362,-0.523381 0.89909,-1.102021 1.28205,-1.699994 1.03502,-1.616174 1.83252,-3.373769 2.56411,-5.151797 0.94063,-2.286085 1.77228,-4.605895 2.5641,-6.940522 0.88811,-2.618514 1.72611,-5.255683 2.5641,-7.892824"
       id="path16875"
       inkscape:connector-curvature="0" />
    <path
       style="fill:none;stroke:#000000;stroke-width:1.41111112;stroke-linecap:round;stroke-miterlimit:4;stroke-dasharray:none;display:inline"
       d="m 51.423616,70.825735 c 0.83817,-2.627997 1.67635,-5.255994 2.4603,-7.899146 0.68998,-2.326302 1.33796,-4.664315 2.00365,-7.000523 0.50565,-1.774585 1.02152,-3.548097 1.69934,-5.263529 0.23884,-0.604463 0.49779,-1.20173 0.8069,-1.774077 0.22156,-0.410238 0.46889,-0.80772 0.82303,-1.128748 0.24975,-0.226398 0.55261,-0.41481 0.87392,-0.454716 0.32131,-0.03993 0.66107,0.06861 0.95863,0.226991 0.42194,0.224593 0.75903,0.54943 1.07426,0.89298 0.43979,0.479298 0.83704,0.995002 1.21656,1.522617 1.07707,1.497358 2.01139,3.090643 2.93591,4.687541 1.21713,2.102302 2.41729,4.210841 3.65609,6.297225 1.40529,2.3668 2.86032,4.705124 4.31534,7.04342"
       id="path16877"
       inkscape:connector-curvature="0" />
    <path
       style="fill:none;stroke:#000000;stroke-width:1.41111112;stroke-linecap:round;stroke-miterlimit:4;stroke-dasharray:none;display:inline"
       d="m 74.247546,67.97577 c 1.5482,2.310779 3.0964,4.62153 4.77483,6.834519 1.51591,1.998698 3.13806,3.917612 4.91766,5.702385 1.4225,1.426633 2.9456,2.767528 4.67064,3.79651 0.6712,0.400388 1.37297,0.753533 2.11486,1.006066 0.61334,0.208759 1.2541,0.348742 1.90363,0.353483 0.56376,0.004 1.13412,-0.0937 1.6504,-0.316682 0.51628,-0.223012 0.97847,-0.571217 1.36196,-0.984475 0.44182,-0.476138 0.77917,-1.038606 1.04765,-1.628253 0.32474,-0.713232 0.54872,-1.466258 0.71736,-2.229387 0.43343,-1.961303 0.50135,-3.989408 0.43785,-6.003036 -0.0794,-2.519143 -0.36456,-5.015597 -0.78036,-7.489444 -0.46018,-2.737979 -1.08043,-5.448243 -1.70067,-8.158508"
       id="path16879"
       inkscape:connector-curvature="0" />
    <path
       style="fill:none;stroke:#000000;stroke-width:1.41111112;stroke-linecap:round;stroke-miterlimit:4;stroke-dasharray:none;display:inline"
       d="m 95.363356,58.858948 c -0.63822,-2.692485 -1.27644,-5.384969 -1.86212,-8.087275 -0.52217,-2.409275 -1.00257,-4.826396 -1.37216,-7.270638 -0.28746,-1.901049 -0.50789,-3.818495 -0.45188,-5.736872 0.0207,-0.709789 0.0793,-1.419719 0.22471,-2.117344 0.11278,-0.541077 0.2778,-1.074787 0.56374,-1.552279 0.23014,-0.384302 0.53859,-0.732197 0.91888,-0.960374 0.3803,-0.228177 0.83243,-0.336635 1.27982,-0.358846 0.55588,-0.02766 1.10445,0.07795 1.63496,0.23306 0.68397,0.20001 1.33794,0.482402 1.97399,0.798124 1.719022,0.853355 3.307164,1.950184 4.849274,3.098433 1.98278,1.476333 3.88945,3.037699 5.76957,4.632199 2.10877,1.788442 4.18415,3.618653 6.25952,5.448836"
       id="path16881"
       inkscape:connector-curvature="0" />
    <path
       style="fill:none;stroke:#000000;stroke-width:1.41111112;stroke-linecap:round;stroke-miterlimit:4;stroke-dasharray:none;display:inline"
       d="m 115.15166,46.985972 c 2.07537,1.830183 4.15074,3.660366 6.25952,5.448808 1.88012,1.594527 3.78679,3.155865 5.76957,4.632226 1.54211,1.148249 3.13025,2.245078 4.84927,3.098405 0.63605,0.315722 1.29001,0.598142 1.97399,0.798125 0.53051,0.155109 1.07907,0.26066 1.63496,0.233059 0.44739,-0.0223 0.89952,-0.130641 1.27981,-0.358818 0.3803,-0.228176 0.68875,-0.5761 0.91889,-0.960402 0.28593,-0.477492 0.45096,-1.011202 0.56374,-1.552279 0.14541,-0.697625 0.20399,-1.407555 0.22471,-2.117344 0.056,-1.918349 -0.16442,-3.835823 -0.45188,-5.736844 -0.36959,-2.44427 -0.84999,-4.861362 -1.37216,-7.270665 -0.58568,-2.702306 -1.2239,-5.394791 -1.86212,-8.087248"
       id="path16883"
       inkscape:connector-curvature="0" />
    <path
       style="fill:none;stroke:#000000;stroke-width:1.41111112;stroke-linecap:round;stroke-miterlimit:4;stroke-dasharray:none;display:inline"
       d="m 134.93996,35.112995 c -0.66712,-2.686445 -1.33424,-5.372862 -1.86213,-8.087274 -0.47833,-2.459595 -0.84235,-4.942191 -0.99032,-7.454363 -0.11843,-2.010777 -0.0984,-4.040463 0.28584,-6.012209 0.14952,-0.767193 0.35419,-1.525608 0.66073,-2.246827 0.25343,-0.596251 0.57648,-1.167074 1.00613,-1.6542176 0.37291,-0.422825 0.82614,-0.78263 1.33661,-1.018624 0.51047,-0.235995 1.07818,-0.34815 1.64186,-0.35831 0.64944,-0.01185 1.29354,0.112014 1.91197,0.305195 0.74804,0.23368 1.45852,0.56896 2.13963,0.952218 1.75052,0.9850116 3.30705,2.2869596 4.76519,3.6771576 1.82418,1.739167 3.49436,3.616424 5.06036,5.576147 1.73388,2.169809 3.34004,4.440653 4.9462,6.711526"
       id="path16885"
       inkscape:connector-curvature="0" />
    <path
       style="fill:none;stroke:#000000;stroke-width:1.41111112;stroke-linecap:round;stroke-miterlimit:4;stroke-dasharray:none;display:inline"
       d="m 155.84203,25.503414 c 1.51372,2.300761 3.02743,4.601492 4.49215,6.931998 1.29119,2.05438 2.54431,4.131874 3.81424,6.202708 0.96462,1.572994 1.93895,3.142122 3.05355,4.611738 0.39275,0.517849 0.80292,1.023366 1.2547,1.491375 0.32382,0.335449 0.66902,0.651679 1.09651,0.865519 0.30147,0.150819 0.64387,0.250726 0.96406,0.202664 0.3202,-0.04803 0.6182,-0.244038 0.86213,-0.476674 0.34591,-0.329889 0.58311,-0.733495 0.79422,-1.149209 0.29453,-0.579995 0.53828,-1.183611 0.76176,-1.793917 0.63422,-1.732026 1.10512,-3.518013 1.56563,-5.304847 0.60626,-2.352322 1.19449,-4.706112 1.8259,-7.04898 0.71627,-2.657713 1.48811,-5.301402 2.25994,-7.94509"
       id="path16887"
       inkscape:connector-curvature="0" />
    <path
       style="fill:none;stroke:#000000;stroke-width:1.41111112;stroke-linecap:round;stroke-miterlimit:4;stroke-dasharray:none;display:inline"
       d="m 178.58682,22.090699 c 0.86898,-2.642249 1.73796,-5.28447 2.7587,-7.867594 0.9219,-2.333018 1.96759,-4.6177756 3.20103,-6.8157226 0.98594,-1.756918 2.09183,-3.458323 3.47618,-4.913715 0.53864,-0.566279 1.11944,-1.095304 1.76596,-1.53822401 0.5345,-0.36618295 1.11393,-0.67349495 1.7382,-0.85290395 0.54184,-0.155702 1.11747,-0.215081 1.67473,-0.139304 0.55725,0.07578 1.09612,0.286737 1.57669,0.58149 0.5537,0.339626 1.03001,0.79050496 1.44731,1.28611496 0.50476,0.599468 0.92318,1.264412 1.29103,1.953966 0.94541,1.772214 1.55678,3.707186 2.03772,5.663579 0.60168,2.4475156 0.99923,4.9285596 1.26462,7.4230366 0.29383,2.761883 0.42563,5.54022 0.55744,8.318585"
       id="path16889"
       inkscape:connector-curvature="0" />
    <path
       style="fill:none;stroke:#000000;stroke-width:1.41111112;stroke-linecap:round;stroke-miterlimit:4;stroke-dasharray:none;display:inline"
       d="m 201.37643,25.190007 c 0.0378,2.753783 0.0756,5.507565 0.0561,8.26005 -0.0172,2.426406 -0.0789,4.851795 -0.12287,7.2806 -0.0334,1.844887 -0.0565,3.691777 0.0921,5.530286 0.0524,0.647813 0.12608,1.294581 0.25502,1.932178 0.0924,0.457002 0.21322,0.909292 0.45846,1.319586 0.17295,0.289335 0.40779,0.557784 0.70353,0.68961 0.29573,0.131798 0.65237,0.126972 0.98317,0.06215 0.46908,-0.09195 0.88619,-0.304462 1.28783,-0.541274 0.56036,-0.33037 1.09062,-0.707983 1.6074,-1.102134 1.46659,-1.118588 2.82457,-2.370554 4.17424,-3.628786 1.77682,-1.656503 3.53924,-3.3239 5.33216,-4.958842 2.03389,-1.854708 4.10705,-3.667647 6.18021,-5.480615"
       id="path16891"
       inkscape:connector-curvature="0" />
    <path
       style="fill:none;stroke:#000000;stroke-width:1.41111112;stroke-linecap:round;stroke-miterlimit:4;stroke-dasharray:none;display:inline"
       d="m 222.38379,34.552812 c 2.15427,-1.759429 4.30854,-3.518887 6.5589,-5.146858 2.03247,-1.470348 4.14332,-2.833397 6.36571,-4.022258 1.77643,-0.950299 3.62412,-1.789289 5.57411,-2.271043 0.75873,-0.187452 1.53295,-0.32083 2.31623,-0.34623 0.64756,-0.02117 1.3013,0.03175 1.92403,0.216465 0.54051,0.16033 1.05762,0.420031 1.48655,0.783787 0.42889,0.363728 0.76959,0.831512 1.01602,1.338552 0.28395,0.5842 0.44278,1.220555 0.52782,1.862836 0.10287,0.776901 0.0977,1.562522 0.0367,2.341681 -0.1568,2.00248 -0.68275,3.9624 -1.33014,5.870194 -0.80989,2.386697 -1.80992,4.691832 -2.92854,6.937164 -1.23856,2.486039 -2.62252,4.898757 -4.00649,7.311475"
       id="path16893"
       inkscape:connector-curvature="0" />
    <path
       style="fill:none;stroke:#000000;stroke-width:1.41111112;stroke-linecap:round;stroke-miterlimit:4;stroke-dasharray:none;display:inline"
       d="m 239.92473,49.428577 c -1.45,2.341428 -2.89999,4.682857 -4.39759,6.992338 -1.32017,2.035894 -2.67732,4.046982 -4.02135,6.070515 -1.02092,1.537039 -2.03426,3.081246 -2.8983,4.710854 -0.30445,0.574237 -0.59037,1.15903 -0.82479,1.765836 -0.16802,0.434932 -0.30958,0.881154 -0.32365,1.358928 -0.01,0.336945 0.0435,0.689582 0.22189,0.959838 0.17834,0.270228 0.48155,0.458075 0.79525,0.581434 0.44484,0.17495 0.91077,0.220246 1.37674,0.236785 0.65008,0.02314 1.30022,-0.0099 1.94789,-0.06398 1.83809,-0.153642 3.65639,-0.478141 5.47106,-0.812405 2.38902,-0.440069 4.77176,-0.897072 7.16277,-1.310358 2.71233,-0.468799 5.43532,-0.881267 8.15831,-1.293763"
       id="path16895"
       inkscape:connector-curvature="0" />
  </g>
</svg>
