<?xml version="1.0" encoding="UTF-8" standalone="no"?>
<!-- 2019-08-30 11:23:15 Generated by QCAD 3.23.0 SVG Exporter -->

<svg
   xmlns:dc="http://purl.org/dc/elements/1.1/"
   xmlns:cc="http://creativecommons.org/ns#"
   xmlns:rdf="http://www.w3.org/1999/02/22-rdf-syntax-ns#"
   xmlns:svg="http://www.w3.org/2000/svg"
   xmlns="http://www.w3.org/2000/svg"
   xmlns:sodipodi="http://sodipodi.sourceforge.net/DTD/sodipodi-0.dtd"
   xmlns:inkscape="http://www.inkscape.org/namespaces/inkscape"
   width="1200"
   height="640"
   viewBox="-53.9875 -30.073 338.66667 180.62222"
   version="1.1"
   style="fill:none;stroke-linecap:round;stroke-linejoin:round"
   id="svg2"
   inkscape:version="0.48.5 r10040"
   sodipodi:docname="SqauredShape.svg">
  <metadata
     id="metadata138">
    <rdf:RDF>
      <cc:Work
         rdf:about="">
        <dc:format>image/svg+xml</dc:format>
        <dc:type
           rdf:resource="http://purl.org/dc/dcmitype/StillImage" />
        <dc:title></dc:title>
      </cc:Work>
    </rdf:RDF>
  </metadata>
  <defs
     id="defs136" />
  <sodipodi:namedview
     pagecolor="#ffffff"
     bordercolor="#666666"
     borderopacity="1"
     objecttolerance="10"
     gridtolerance="10"
     guidetolerance="10"
     inkscape:pageopacity="0"
     inkscape:pageshadow="2"
     inkscape:window-width="1920"
     inkscape:window-height="1018"
     id="namedview134"
     showgrid="false"
     inkscape:zoom="1.2066667"
     inkscape:cx="600"
     inkscape:cy="320"
     inkscape:window-x="-8"
     inkscape:window-y="-8"
     inkscape:window-maximized="1"
     inkscape:current-layer="layer2"
     fit-margin-top="10"
     fit-margin-left="10"
     fit-margin-right="10"
     fit-margin-bottom="10"
     borderlayer="false" />
  <g
     inkscape:groupmode="layer"
     id="layer1"
     inkscape:label="BaseLine"
     style="display:inline"
     sodipodi:insensitive="true">
    <path
       style="fill:none;stroke:#ff0000;stroke-width:1.41111112;stroke-linecap:round;stroke-linejoin:round;stroke-miterlimit:4;stroke-dasharray:none;display:inline"
       d="m -33.16817,70.725613 70.72689,0"
       id="path18293"
       inkscape:connector-curvature="0" />
    <path
       style="fill:none;stroke:#ff0000;stroke-width:1.41111112;stroke-linecap:round;stroke-linejoin:round;stroke-miterlimit:4;stroke-dasharray:none;display:inline"
       d="M 37.55872,70.725613 A 81.228289,81.228289 0 0 0 79.35033,59.149986"
       id="path18295"
       inkscape:connector-curvature="0" />
    <path
       style="fill:none;stroke:#ff0000;stroke-width:1.41111112;stroke-linecap:round;stroke-linejoin:round;stroke-miterlimit:4;stroke-dasharray:none;display:inline"
       d="M 79.35033,59.149986 121.99327,33.564283"
       id="path18297"
       inkscape:connector-curvature="0" />
    <path
       style="fill:none;stroke:#ff0000;stroke-width:1.41111112;stroke-linecap:round;stroke-linejoin:round;stroke-miterlimit:4;stroke-dasharray:none;display:inline"
       d="M 243.75487,88.974948 A 81.228289,81.228289 0 0 0 121.99327,33.564283"
       id="path18299"
       inkscape:connector-curvature="0" />
  </g>
  <g
     inkscape:groupmode="layer"
     id="layer5"
     inkscape:label="Constructors"
     style="display:inline"
     sodipodi:insensitive="true">
    <path
       style="fill:none;stroke:#0000ff;stroke-width:0.56444442;stroke-linecap:round;stroke-linejoin:round;stroke-miterlimit:4;stroke-dasharray:none;display:inline"
       d="m -33.16817,36.11021 0,69.2308"
       id="path18319"
       inkscape:connector-curvature="0" />
    <path
       style="fill:none;stroke:#0000ff;stroke-width:0.56444442;stroke-linecap:round;stroke-linejoin:round;stroke-miterlimit:4;stroke-dasharray:none;display:inline"
       d="m 36.06259,36.11021 0,69.2308"
       id="path18321"
       inkscape:connector-curvature="0" />
    <path
       style="fill:none;stroke:#0000ff;stroke-width:0.56444442;stroke-linecap:round;stroke-linejoin:round;stroke-miterlimit:4;stroke-dasharray:none;display:inline"
       d="M 81.98117,17.203296 117.6001,76.568177"
       id="path18323"
       inkscape:connector-curvature="0" />
    <path
       style="fill:none;stroke:#0000ff;stroke-width:0.56444442;stroke-linecap:round;stroke-linejoin:round;stroke-miterlimit:4;stroke-dasharray:none;display:inline"
       d="m 162.98754,-12.624206 0.4765,69.229112"
       id="path18325"
       inkscape:connector-curvature="0" />
    <path
       style="fill:none;stroke:#0000ff;stroke-width:0.56444442;stroke-linecap:round;stroke-linejoin:round;stroke-miterlimit:4;stroke-dasharray:none;display:inline"
       d="M 250.46455,26.363665 198.66284,72.292793"
       id="path18327"
       inkscape:connector-curvature="0" />
  </g>
  <g
     inkscape:groupmode="layer"
     id="layer2"
     inkscape:label="Painters"
     style="display:inline">
    <path
       style="fill:none;stroke:#000000;stroke-width:1.41111112;stroke-linecap:round;stroke-miterlimit:4;stroke-dasharray:none;display:inline"
       d="m -33.168162,53.335361 0,34.615403"
       id="path18087"
       inkscape:connector-curvature="0" />
    <path
       style="fill:none;stroke:#000000;stroke-width:1.41111112;stroke-linecap:round;stroke-miterlimit:4;stroke-dasharray:none;display:inline"
       d="m -33.168162,87.950764 c 1.28205,0 2.5641,0 3.84615,0 1.28205,0 2.5641,0 3.84615,0 1.28205,0 2.56411,0 3.84616,0 1.28205,0 2.5641,0 3.84615,0 1.28205,0 2.5641,0 3.84615,0 1.28205,0 2.56411,0 3.84616,0 1.2820503,0 2.5641003,0 3.8461503,0 1.28205,0 2.5641,0 3.84615,0 1.28205,0 2.56411002,0 3.84616,0"
       id="path18089"
       inkscape:connector-curvature="0" />
    <path
       style="fill:none;stroke:#000000;stroke-width:1.41111112;stroke-linecap:round;stroke-miterlimit:4;stroke-dasharray:none;display:inline"
       d="m 1.4472183,87.950764 0,-34.615403"
       id="path18091"
       inkscape:connector-curvature="0" />
    <path
       style="fill:none;stroke:#000000;stroke-width:1.41111112;stroke-linecap:round;stroke-miterlimit:4;stroke-dasharray:none;display:inline"
       d="m 1.4472183,53.335361 c -1.28204998,0 -2.56411,0 -3.84616,0 -1.28205,0 -2.5641,0 -3.84615,0 -1.28205,0 -2.5641,0 -3.8461503,0 -1.28205,0 -2.56411,0 -3.84616,0 -1.28205,0 -2.5641,0 -3.84615,0 -1.28205,0 -2.5641,0 -3.84615,0 -1.28205,0 -2.56411,0 -3.84616,0 -1.28205,0 -2.5641,0 -3.84615,0 -1.28205,0 -2.5641,0 -3.84615,0"
       id="path18093"
       inkscape:connector-curvature="0" />
    <path
       style="fill:none;stroke:#000000;stroke-width:1.41111112;stroke-linecap:round;stroke-miterlimit:4;stroke-dasharray:none;display:inline"
       d="m 36.062598,53.335361 0,34.615403"
       id="path18095"
       inkscape:connector-curvature="0" />
    <path
       style="fill:none;stroke:#000000;stroke-width:1.41111112;stroke-linecap:round;stroke-miterlimit:4;stroke-dasharray:none;display:inline"
       d="m 36.062598,87.950764 c 1.44908,0 2.89816,-0.0028 4.34648,-0.04121 1.55447,-0.04149 3.10806,-0.125871 4.65878,-0.245533 1.55073,-0.11938 3.09861,-0.273755 4.64195,-0.465384 1.54335,-0.191629 3.08218,-0.419947 4.61472,-0.684671 1.53253,-0.264725 3.05878,-0.565856 4.57713,-0.902547 1.51834,-0.336691 3.02879,-0.709225 4.52928,-1.117882 1.5005,-0.40894 2.99104,-0.853723 4.47129,-1.331243 1.48026,-0.47752 2.95022,-0.987495 4.40328,-1.541215 1.45306,-0.55372 2.88922,-1.150902 4.32538,-1.748085"
       id="path18097"
       inkscape:connector-curvature="0" />
    <path
       style="fill:none;stroke:#000000;stroke-width:1.41111112;stroke-linecap:round;stroke-miterlimit:4;stroke-dasharray:none;display:inline"
       d="M 76.630888,79.872999 62.904958,48.095341"
       id="path18099"
       inkscape:connector-curvature="0" />
    <path
       style="fill:none;stroke:#000000;stroke-width:1.41111112;stroke-linecap:round;stroke-miterlimit:4;stroke-dasharray:none;display:inline"
       d="m 62.904958,48.095341 c -0.93164,0.387491 -1.86328,0.7747 -2.80589,1.133969 -0.9426,0.358987 -1.89617,0.690034 -2.85642,0.999631 -0.96024,0.30988 -1.92716,0.598594 -2.90054,0.8636 -0.97337,0.265289 -1.9532,0.506871 -2.93816,0.725311 -0.98495,0.21844 -1.97504,0.413738 -2.9692,0.585329 -0.99416,0.171874 -1.9924,0.32004 -2.99358,0.444218 -1.00117,0.12446 -2.00527,0.224649 -3.01124,0.301978 -1.00597,0.07733 -2.01381,0.131515 -3.02217,0.159173 -1.11462,0.03048 -2.22989,0.02879 -3.34516,0.0254"
       id="path18101"
       inkscape:connector-curvature="0" />
    <path
       style="fill:none;stroke:#000000;stroke-width:1.41111112;stroke-linecap:round;stroke-miterlimit:4;stroke-dasharray:none;display:inline"
       d="m 90.885898,31.962108 17.809472,29.68244"
       id="path18103"
       inkscape:connector-curvature="0" />
    <path
       style="fill:none;stroke:#000000;stroke-width:1.41111112;stroke-linecap:round;stroke-miterlimit:4;stroke-dasharray:none;display:inline"
       d="m 108.69537,61.644548 c 1.09935,-0.659835 2.1987,-1.319389 3.29805,-1.978942 1.09935,-0.659553 2.19871,-1.319107 3.29805,-1.978942 1.09934,-0.659554 2.19866,-1.319107 3.29805,-1.97866 1.09938,-0.659554 2.19883,-1.319107 3.29805,-1.978943 1.09922,-0.659835 2.19822,-1.319953 3.29805,-1.97866 1.09983,-0.658989 2.20051,-1.316284 3.29805,-1.978942 1.03487,-0.62484 2.06697,-1.254195 3.11238,-1.861538 0.8724,-0.506589 1.75406,-0.997937 2.64997,-1.461629 0.8959,-0.463408 1.80604,-0.898877 2.71618,-1.334628"
       id="path18105"
       inkscape:connector-curvature="0" />
    <path
       style="fill:none;stroke:#000000;stroke-width:1.41111112;stroke-linecap:round;stroke-miterlimit:4;stroke-dasharray:none;display:inline"
       d="M 136.9622,45.113664 122.43671,13.693581"
       id="path18107"
       inkscape:connector-curvature="0" />
    <path
       style="fill:none;stroke:#000000;stroke-width:1.41111112;stroke-linecap:round;stroke-miterlimit:4;stroke-dasharray:none;display:inline"
       d="m 122.43671,13.693581 c -1.40284,0.671689 -2.80569,1.343378 -4.1871,2.057118 -1.3814,0.714022 -2.74138,1.470095 -4.08502,2.253262 -1.17097,0.682696 -2.32953,1.385711 -3.49039,2.085058 -1.09817,0.661529 -2.19838,1.319671 -3.29805,1.978942 -1.09967,0.658989 -2.19879,1.319107 -3.29805,1.97866 -1.09926,0.659836 -2.19868,1.319389 -3.29805,1.978943 -1.099375,0.659553 -2.198712,1.319106 -3.298052,1.97866 -1.09934,0.659835 -2.1987,1.319388 -3.29805,1.978942 -1.09935,0.659553 -2.1987,1.319107 -3.29805,1.978942"
       id="path18109"
       inkscape:connector-curvature="0" />
    <path
       style="fill:none;stroke:#000000;stroke-width:1.41111112;stroke-linecap:round;stroke-miterlimit:4;stroke-dasharray:none;display:inline"
       d="m 163.10667,4.6006633 0.23826,34.6145557"
       id="path18111"
       inkscape:connector-curvature="0" />
    <path
       style="fill:none;stroke:#000000;stroke-width:1.41111112;stroke-linecap:round;stroke-miterlimit:4;stroke-dasharray:none;display:inline"
       d="m 163.34493,39.215219 c 1.00895,0.0056 2.01789,0.01411 3.02592,0.0508 1.00803,0.03725 2.01514,0.104422 3.02013,0.193887 1.005,0.08975 2.00789,0.201224 3.00756,0.336973 0.99968,0.135467 1.99615,0.295487 2.98826,0.478649 0.99211,0.183162 1.97988,0.389749 2.96225,0.619478 0.98237,0.229729 1.95935,0.482882 2.9296,0.759178 0.97025,0.276295 1.93378,0.576015 2.89038,0.896902 0.95661,0.320887 1.9063,0.662658 2.8447,1.032651 0.9384,0.369993 1.86551,0.768209 2.79262,1.166424"
       id="path18113"
       inkscape:connector-curvature="0" />
    <path
       style="fill:none;stroke:#000000;stroke-width:1.41111112;stroke-linecap:round;stroke-miterlimit:4;stroke-dasharray:none;display:inline"
       d="M 189.80635,44.750161 203.89794,13.132805"
       id="path18115"
       inkscape:connector-curvature="0" />
    <path
       style="fill:none;stroke:#000000;stroke-width:1.41111112;stroke-linecap:round;stroke-miterlimit:4;stroke-dasharray:none;display:inline"
       d="m 203.89794,13.132805 c -1.42918,-0.613833 -2.85835,-1.227384 -4.30493,-1.797755 -1.44658,-0.570371 -2.91056,-1.097562 -4.3852,-1.5920156 -1.47465,-0.4944531 -2.95996,-0.9567331 -4.45564,-1.3826061 -1.49568,-0.426156 -3.00173,-0.815905 -4.51609,-1.170376 -1.51436,-0.354189 -3.03703,-0.672536 -4.56641,-0.95504 -1.52938,-0.282504 -3.06547,-0.528602 -4.60651,-0.738011 -1.54104,-0.209127 -3.08703,-0.381 -4.63627,-0.519007 -1.54924,-0.138006 -3.10173,-0.241864 -4.65564,-0.298873 -1.55391,-0.05729 -3.10925,-0.06802 -4.66458,-0.07846"
       id="path18117"
       inkscape:connector-curvature="0" />
    <path
       style="fill:none;stroke:#000000;stroke-width:1.41111112;stroke-linecap:round;stroke-miterlimit:4;stroke-dasharray:none;display:inline"
       d="M 237.51413,37.763468 211.61328,60.728173"
       id="path18119"
       inkscape:connector-curvature="0" />
    <path
       style="fill:none;stroke:#000000;stroke-width:1.41111112;stroke-linecap:round;stroke-miterlimit:4;stroke-dasharray:none;display:inline"
       d="m 211.61328,60.728173 c 0.65899,0.763975 1.31798,1.527951 1.95357,2.3114 0.6356,0.783166 1.2478,1.585524 1.84199,2.401146 0.59419,0.81534 1.17036,1.643945 1.72626,2.485814 0.5559,0.841869 1.09153,1.697002 1.60668,2.564553 0.51515,0.867551 1.00981,1.746956 1.48348,2.637931 0.47367,0.890693 0.92634,1.792676 1.35697,2.704818 0.43063,0.912424 0.83923,1.835009 1.22741,2.766342 0.38817,0.931334 0.75593,1.871416 1.0951,2.821376 0.33916,0.94996 0.64975,1.909798 0.96033,2.869918"
       id="path18121"
       inkscape:connector-curvature="0" />
    <path
       style="fill:none;stroke:#000000;stroke-width:1.41111112;stroke-linecap:round;stroke-miterlimit:4;stroke-dasharray:none;display:inline"
       d="M 224.86507,84.291471 257.94226,74.087444"
       id="path18123"
       inkscape:connector-curvature="0" />
    <path
       style="fill:none;stroke:#000000;stroke-width:1.41111112;stroke-linecap:round;stroke-miterlimit:4;stroke-dasharray:none;display:inline"
       d="m 257.94226,74.087444 c -0.47879,-1.479974 -0.95755,-2.959947 -1.4804,-4.424116 -0.52284,-1.464451 -1.08974,-2.913662 -1.68814,-4.349327 -0.59836,-1.435664 -1.22826,-2.857782 -1.89207,-4.264095 -0.66384,-1.406596 -1.36164,-2.796822 -2.09183,-4.170116 -0.73017,-1.373293 -1.49273,-2.729089 -2.28684,-4.066258 -0.79412,-1.337168 -1.61981,-2.655711 -2.47675,-3.953651 -0.85694,-1.297657 -1.74514,-2.574713 -2.6611,-3.831731 -0.91596,-1.257017 -1.8597,-2.493997 -2.83949,-3.701626 -0.97979,-1.207347 -1.99565,-2.38506 -3.01151,-3.563056"
       id="path18125"
       inkscape:connector-curvature="0" />
  </g>
</svg>
