<?xml version="1.0" encoding="UTF-8" standalone="no"?>
<!-- 2019-08-30 11:23:15 Generated by QCAD 3.23.0 SVG Exporter -->

<svg
   xmlns:dc="http://purl.org/dc/elements/1.1/"
   xmlns:cc="http://creativecommons.org/ns#"
   xmlns:rdf="http://www.w3.org/1999/02/22-rdf-syntax-ns#"
   xmlns:svg="http://www.w3.org/2000/svg"
   xmlns="http://www.w3.org/2000/svg"
   xmlns:sodipodi="http://sodipodi.sourceforge.net/DTD/sodipodi-0.dtd"
   xmlns:inkscape="http://www.inkscape.org/namespaces/inkscape"
   width="1200"
   height="640"
   viewBox="-53.9875 -30.073 338.66667 180.62222"
   version="1.1"
   style="fill:none;stroke-linecap:round;stroke-linejoin:round"
   id="svg2"
   inkscape:version="0.48.5 r10040"
   sodipodi:docname="CurtainRope.svg">
  <metadata
     id="metadata138">
    <rdf:RDF>
      <cc:Work
         rdf:about="">
        <dc:format>image/svg+xml</dc:format>
        <dc:type
           rdf:resource="http://purl.org/dc/dcmitype/StillImage" />
        <dc:title></dc:title>
      </cc:Work>
    </rdf:RDF>
  </metadata>
  <defs
     id="defs136" />
  <sodipodi:namedview
     pagecolor="#ffffff"
     bordercolor="#666666"
     borderopacity="1"
     objecttolerance="10"
     gridtolerance="10"
     guidetolerance="10"
     inkscape:pageopacity="0"
     inkscape:pageshadow="2"
     inkscape:window-width="1920"
     inkscape:window-height="1018"
     id="namedview134"
     showgrid="false"
     inkscape:zoom="1.2066667"
     inkscape:cx="594.83506"
     inkscape:cy="353.14917"
     inkscape:window-x="-8"
     inkscape:window-y="-8"
     inkscape:window-maximized="1"
     inkscape:current-layer="layer2"
     fit-margin-top="10"
     fit-margin-left="10"
     fit-margin-right="10"
     fit-margin-bottom="10"
     borderlayer="false" />
  <g
     inkscape:groupmode="layer"
     id="layer2"
     inkscape:label="BaseLine"
     style="display:inline">
    <path
       inkscape:connector-curvature="0"
       style="fill:none;stroke:#ff0000;stroke-width:1.41111112;stroke-linecap:round;stroke-linejoin:round;stroke-miterlimit:4;stroke-dasharray:none;display:inline"
       d="m -17.641338,57.543889 267.377658,0"
       id="path17975" />
  </g>
  <g
     inkscape:groupmode="layer"
     id="layer4"
     inkscape:label="Constructors"
     style="display:inline">
    <path
       inkscape:connector-curvature="0"
       style="fill:none;stroke:#0000ff;stroke-width:0.56444442;stroke-linecap:round;stroke-linejoin:round;stroke-miterlimit:4;stroke-dasharray:none"
       d="m 16.874042,109.46687 0,-103.846229"
       id="path18227" />
    <path
       inkscape:connector-curvature="0"
       style="fill:none;stroke:#0000ff;stroke-width:0.56444442;stroke-linecap:round;stroke-linejoin:round;stroke-miterlimit:4;stroke-dasharray:none"
       d="m 78.412498,109.46687 0,-103.846229"
       id="path18229" />
    <path
       inkscape:connector-curvature="0"
       style="fill:none;stroke:#0000ff;stroke-width:0.56444442;stroke-linecap:round;stroke-linejoin:round;stroke-miterlimit:4;stroke-dasharray:none"
       d="m 139.95095,109.46687 0,-103.846229"
       id="path18231" />
    <path
       inkscape:connector-curvature="0"
       style="fill:none;stroke:#0000ff;stroke-width:0.56444442;stroke-linecap:round;stroke-linejoin:round;stroke-miterlimit:4;stroke-dasharray:none"
       d="m 201.4894,109.46687 0,-103.846229"
       id="path18233" />
  </g>
  <g
     inkscape:groupmode="layer"
     id="layer1"
     inkscape:label="Painters">
    <path
       inkscape:connector-curvature="0"
       style="fill:none;stroke:#000000;stroke-width:1.41111111999999990;stroke-miterlimit:4;stroke-dasharray:none;stroke-linecap:round"
       d="m -17.641338,68.125247 c 1.27703,-2.408767 2.55405,-4.817816 3.75462,-7.263836 1.68296,-3.428718 3.21567,-6.930531 4.7030699,-10.452947 1.53196,-3.628249 3.01586,-7.278511 4.68539,-10.836204 1.58044,-3.36804 3.32723,-6.652826 5.62384,-9.657646 1.68635,-2.206413 3.66915,-4.261555 6.10616,-5.482449 2.04373,-1.02362 4.4069001,-1.4605 6.7153801,-1.504527 0.98224,-0.01975 1.95458,0.03387 2.92692,0.08608"
       id="path17355" />
    <path
       inkscape:connector-curvature="0"
       style="fill:none;stroke:#000000;stroke-width:1.41111111999999990;stroke-miterlimit:4;stroke-dasharray:none;stroke-linecap:round"
       d="m 3.5825119,75.673844 c 1.12091,-2.149969 2.24182,-4.299655 3.30307,-6.480104 1.11494,-2.290516 2.16403,-4.614616 3.1161601,-6.976816 1.0294,-2.553829 1.94547,-5.151966 2.86153,-7.750104"
       id="path17359" />
    <path
       inkscape:connector-curvature="0"
       style="fill:none;stroke:#000000;stroke-width:1.41111111999999990;stroke-miterlimit:4;stroke-dasharray:none;stroke-linecap:round"
       d="m -17.171338,68.237007 c 1.87421,-3.163147 3.74842,-6.326294 5.58308,-9.609385 1.6446899,-2.943013 3.2575999,-5.982265 4.7153799,-8.775982 1.28322,-2.459285 2.44624,-4.728069 4.05462,-7.776351 1.30183,-2.467187 2.89542995,-5.444913 4.76461,-5.261469 1.20814,0.118533 2.5314,1.557584 3.57692,2.873022 1.00378,1.262945 1.75156,2.412154 2.47462,3.643771 0.87407,1.489005 1.71201,3.098518 2.4392301,4.733149 0.93517,2.102273 1.68725,4.246033 2.42615,6.403058 0.35114,1.025031 0.69929,2.053166 1.05846,3.077069 0.93442,2.663613 1.94337,5.298722 2.95231,7.933831"
       id="path17363" />
    <path
       inkscape:connector-curvature="0"
       style="fill:none;stroke:#000000;stroke-width:1.41111111999999990;stroke-miterlimit:4;stroke-dasharray:none;stroke-linecap:round"
       d="m -0.90979815,32.853959 c 0.91659,-1.273105 1.83318,-2.546209 3.19461005,-3.11404 0.9785,-0.407811 2.18678,-0.451556 3.20462,-0.104422 1.53321,0.522393 2.63427,1.931246 3.45231,3.377635 0.64353,1.137921 1.1119001,2.298984 1.4323001,3.51903 0.28253,1.076114 0.45,2.197665 0.45616,3.319216 0.004,0.772724 -0.0681,1.545449 0,2.307731 0.0616,0.690033 0.23812,1.371036 0.44692,2.040184 0.56571,1.812431 1.36828,3.534833 1.84385,5.34924 0.40227,1.534724 0.57056,3.134924 0.82846,4.713676 0.62454,3.823264 1.77458,7.519246 2.92461,11.215511"
       id="path17367" />
    <path
       inkscape:connector-curvature="0"
       style="fill:none;stroke:#000000;stroke-width:1.41111111999999990;stroke-miterlimit:4;stroke-dasharray:none;stroke-linecap:round"
       d="m 60.628652,32.853959 c 0.9166,-1.273105 1.83319,-2.546209 3.19462,-3.11404 0.97849,-0.407811 2.186775,-0.451556 3.204613,-0.104422 1.533209,0.522393 2.634273,1.931246 3.452306,3.377635 0.643531,1.137921 1.111904,2.298984 1.432306,3.51903 0.282532,1.076114 0.450003,2.197665 0.456155,3.319216 0.0042,0.772724 -0.06806,1.545449 0,2.307731 0.06159,0.690033 0.238123,1.371036 0.446922,2.040184 0.565709,1.812431 1.368281,3.534833 1.843848,5.34924 0.402271,1.534724 0.570563,3.134924 0.828461,4.713676 0.624543,3.823264 1.774579,7.519246 2.924615,11.215511"
       id="path17369" />
    <path
       inkscape:connector-curvature="0"
       style="fill:none;stroke:#000000;stroke-width:1.41111111999999990;stroke-miterlimit:4;stroke-dasharray:none;stroke-linecap:round"
       d="m 122.16711,32.853959 c 0.91659,-1.273105 1.83318,-2.546209 3.19461,-3.11404 0.9785,-0.407811 2.18678,-0.451556 3.20462,-0.104422 1.53321,0.522393 2.63427,1.931246 3.4523,3.377635 0.64354,1.137921 1.11191,2.298984 1.43231,3.51903 0.28253,1.076114 0.45,2.197665 0.45616,3.319216 0.004,0.772724 -0.0681,1.545449 0,2.307731 0.0616,0.690033 0.23812,1.371036 0.44692,2.040184 0.56571,1.812431 1.36828,3.534833 1.84384,5.34924 0.40228,1.534724 0.57057,3.134924 0.82847,4.713676 0.62454,3.823264 1.77457,7.519246 2.92461,11.215511"
       id="path17371" />
    <path
       inkscape:connector-curvature="0"
       style="fill:none;stroke:#000000;stroke-width:1.41111111999999990;stroke-miterlimit:4;stroke-dasharray:none;stroke-linecap:round"
       d="m 183.70556,32.853959 c 0.91659,-1.273105 1.83318,-2.546209 3.19462,-3.11404 0.97849,-0.407811 2.18677,-0.451556 3.20461,-0.104422 1.53321,0.522393 2.63427,1.931246 3.45231,3.377635 0.64353,1.137921 1.1119,2.298984 1.4323,3.51903 0.28253,1.076114 0.45001,2.197665 0.45616,3.319216 0.004,0.772724 -0.0681,1.545449 0,2.307731 0.0616,0.690033 0.23812,1.371036 0.44692,2.040184 0.56571,1.812431 1.36828,3.534833 1.84385,5.34924 0.40227,1.534724 0.57056,3.134924 0.82846,4.713676 0.62454,3.823264 1.77458,7.519246 2.92461,11.215511"
       id="path17373" />
    <path
       inkscape:connector-curvature="0"
       style="fill:none;stroke:#000000;stroke-width:1.41111111999999990;stroke-miterlimit:4;stroke-dasharray:none;stroke-linecap:round"
       d="m 3.5825119,68.531647 c 0.68889,-1.039425 1.37778,-2.078567 2.03769,-3.135489 1.81417,-2.90576 3.40933,-5.945012 5.1353801,-8.905523 0.58262,-0.999066 1.18016,-1.989666 1.77769,-2.979984"
       id="path17377" />
    <path
       inkscape:connector-curvature="0"
       style="fill:none;stroke:#000000;stroke-width:1.41111111999999990;stroke-miterlimit:4;stroke-dasharray:none;stroke-linecap:round"
       d="m -17.641338,68.125247 c 3.60935,0.856826 7.2187,1.713653 10.8407699,1.75768 3.45332,0.04205 6.91819995,-0.654756 10.38308,-1.35128"
       id="path17381" />
    <path
       inkscape:connector-curvature="0"
       style="fill:none;stroke:#000000;stroke-width:1.41111111999999990;stroke-miterlimit:4;stroke-dasharray:none;stroke-linecap:round"
       d="m -17.641338,75.267727 c 0.92125,1.505091 1.8425,3.010182 3.11,4.175195 1.8884,1.735949 4.5453799,2.716954 7.2346199,2.797951 2.77935,0.08354 5.59315,-0.794173 7.61306995,-2.511777 C 1.6283619,78.613753 2.6054319,77.143658 3.5825119,75.673844"
       id="path17385" />
    <path
       inkscape:connector-curvature="0"
       style="fill:none;stroke:#000000;stroke-width:1.41111111999999990;stroke-miterlimit:4;stroke-dasharray:none;stroke-linecap:round"
       d="m 3.5825119,68.531647 0,7.142197"
       id="path17389" />
    <path
       inkscape:connector-curvature="0"
       style="fill:none;stroke:#000000;stroke-width:1.41111111999999990;stroke-miterlimit:4;stroke-dasharray:none;stroke-linecap:round"
       d="m -17.641338,68.125247 0,7.14248"
       id="path17393" />
    <path
       inkscape:connector-curvature="0"
       style="fill:none;stroke:#000000;stroke-width:1.41111111999999990;stroke-miterlimit:4;stroke-dasharray:none;stroke-linecap:round"
       d="m 16.874042,23.013716 c 1.29059,0.230858 2.58118,0.461716 3.77693,0.94234 1.97974,0.795867 3.6995,2.276969 5.08846,3.955345 1.14935,1.389098 2.07218,2.91338 2.85384,4.505396 1.16729,2.377723 2.01975,4.907281 2.87,7.429219 1.51109,4.482535 3.01519,8.941928 4.75385,13.332459 1.476,3.727309 3.12104,7.404947 5.10538,10.877691 1.51221,2.646398 3.22146,5.173698 5.27154,7.487638 1.47092,1.660314 3.11729,3.210278 5.18077,4.040858 1.65315,0.665198 3.57401,0.868398 5.24923,0.390596 1.82112,-0.519289 3.35193,-1.843194 4.70384,-3.258256 2.15353,-2.254109 3.8531,-4.739358 5.43077,-7.320844 1.779279,-2.911687 3.40353,-5.94614 5.135384,-8.905523 0.584646,-0.999066 1.181554,-1.989384 1.778463,-2.979984"
       id="path17397" />
    <path
       inkscape:connector-curvature="0"
       style="fill:none;stroke:#000000;stroke-width:1.41111111999999990;stroke-miterlimit:4;stroke-dasharray:none;stroke-linecap:round"
       d="m 16.874042,65.47772 c 0.65866,1.673013 1.31732,3.346309 2.05923,4.977553 0.87236,1.918265 1.85981,3.778956 2.89616,5.633156 1.94276,3.475849 4.05736,6.92912 6.93461,9.638453 2.06375,1.943382 4.51985,3.504071 7.15769,4.615463 2.62647,1.106593 5.43312,1.767557 8.28308,1.816946 2.48662,0.0429 5.00622,-0.380153 7.27154,-1.367084 1.9388,-0.844691 3.69133,-2.102556 5.24692,-3.545276 2.02013,-1.873673 3.70814,-4.059484 5.23461,-6.34238 2.48315,-3.713762 4.538849,-7.684629 6.466156,-11.710811 1.100884,-2.299547 2.159878,-4.617438 3.116154,-6.976816 1.03389,-2.551006 1.947714,-5.150555 2.861536,-7.750104"
       id="path17401" />
    <path
       inkscape:connector-curvature="0"
       style="fill:none;stroke:#000000;stroke-width:1.41111111999999990;stroke-miterlimit:4;stroke-dasharray:none;stroke-linecap:round"
       d="m 43.897122,68.125247 c 1.27702,-2.408767 2.55405,-4.817816 3.75461,-7.263836 1.68296,-3.428718 3.21567,-6.930531 4.70308,-10.452947 1.53196,-3.628249 3.01586,-7.278511 4.68538,-10.836204 1.58045,-3.36804 3.32723,-6.652826 5.62385,-9.657646 1.68635,-2.206413 3.669144,-4.261555 6.10615,-5.482449 2.043732,-1.02362 4.406903,-1.4605 6.715382,-1.504527 0.982243,-0.01975 1.954584,0.03387 2.926924,0.08608"
       id="path17405" />
    <path
       inkscape:connector-curvature="0"
       style="fill:none;stroke:#000000;stroke-width:1.41111111999999990;stroke-miterlimit:4;stroke-dasharray:none;stroke-linecap:round"
       d="m 44.189422,68.534469 c 1.93437,-3.260231 3.86874,-6.520745 5.76077,-9.906847 1.64482,-2.943578 3.25764,-5.982547 4.71539,-8.775982 1.28319,-2.459285 2.44622,-4.728069 4.05461,-7.776351 1.30183,-2.467187 2.89543,-5.444913 4.76462,-5.261469 1.20813,0.118533 2.531388,1.557584 3.576917,2.873022 1.003777,1.262945 1.751558,2.412154 2.474615,3.643771 0.874073,1.489005 1.712013,3.098518 2.439232,4.733149 0.935175,2.102273 1.687249,4.246033 2.426152,6.403058 0.351132,1.025031 0.699293,2.053166 1.058463,3.077069 0.934418,2.663613 1.943362,5.298722 2.952307,7.933831"
       id="path17409" />
    <path
       inkscape:connector-curvature="0"
       style="fill:none;stroke:#000000;stroke-width:1.41111111999999990;stroke-miterlimit:4;stroke-dasharray:none;stroke-linecap:round"
       d="m 34.537882,48.73912 c 1.15799,4.621953 2.31598,9.243624 3.95693,13.706122 1.23044,3.346309 2.73243,6.602871 4.38692,9.75614 1.14083,2.174522 2.35416,4.299656 3.69615,6.383302 1.08756,1.688536 2.25962,3.349978 3.86308,4.561558 1.06292,0.802922 2.3154,1.408571 3.63615,1.574518 1.09649,0.137724 2.24002,-0.02822 3.26308,-0.416842 1.78324,-0.679027 3.20047,-2.039056 4.61769,-3.399367"
       id="path17413" />
    <path
       inkscape:connector-curvature="0"
       style="fill:none;stroke:#000000;stroke-width:1.41111111999999990;stroke-miterlimit:4;stroke-dasharray:none;stroke-linecap:round"
       d="m 78.412498,23.013716 c 1.290588,0.230858 2.581176,0.461716 3.776921,0.94234 1.979743,0.795867 3.69951,2.276969 5.088461,3.955345 1.149355,1.389098 2.072188,2.91338 2.853848,4.505396 1.167288,2.377723 2.019751,4.907281 2.869999,7.429219 1.511092,4.482535 3.015189,8.941928 4.753845,13.332459 1.476002,3.727309 3.121048,7.404947 5.105378,10.877691 1.51221,2.646398 3.22147,5.173698 5.27154,7.487638 1.47092,1.660314 3.1173,3.210278 5.18077,4.040858 1.65315,0.665198 3.57402,0.868398 5.24923,0.390596 1.82112,-0.519289 3.35194,-1.843194 4.70385,-3.258256 2.15353,-2.254109 3.85309,-4.739358 5.43077,-7.320844 1.77927,-2.911687 3.40353,-5.94614 5.13538,-8.905523 0.58465,-0.999066 1.18155,-1.989384 1.77846,-2.979984"
       id="path17417" />
    <path
       inkscape:connector-curvature="0"
       style="fill:none;stroke:#000000;stroke-width:1.41111111999999990;stroke-miterlimit:4;stroke-dasharray:none;stroke-linecap:round"
       d="m 78.412498,65.47772 c 0.658661,1.673013 1.317323,3.346309 2.059229,4.977553 0.872357,1.918265 1.859807,3.778956 2.896153,5.633156 1.94277,3.475849 4.057371,6.92912 6.934615,9.638453 2.063747,1.943382 4.519854,3.504071 7.157692,4.615463 2.626473,1.106593 5.433113,1.767557 8.283073,1.816946 2.48663,0.0429 5.00623,-0.380153 7.27154,-1.367084 1.9388,-0.844691 3.69133,-2.102556 5.24692,-3.545276 2.02014,-1.873673 3.70814,-4.059484 5.23462,-6.34238 2.48314,-3.713762 4.53885,-7.684629 6.46615,-11.710811 1.10089,-2.299547 2.15988,-4.617438 3.11615,-6.976816 1.0339,-2.551006 1.94772,-5.150555 2.86154,-7.750104"
       id="path17421" />
    <path
       inkscape:connector-curvature="0"
       style="fill:none;stroke:#000000;stroke-width:1.41111111999999990;stroke-miterlimit:4;stroke-dasharray:none;stroke-linecap:round"
       d="m 105.43557,68.125247 c 1.27703,-2.408767 2.55405,-4.817816 3.75462,-7.263836 1.68296,-3.428718 3.21567,-6.930531 4.70307,-10.452947 1.53196,-3.628249 3.01586,-7.278511 4.68539,-10.836204 1.58044,-3.36804 3.32723,-6.652826 5.62384,-9.657646 1.68635,-2.206413 3.66915,-4.261555 6.10615,-5.482449 2.04374,-1.02362 4.40691,-1.4605 6.71539,-1.504527 0.98224,-0.01975 1.95458,0.03387 2.92692,0.08608"
       id="path17425" />
    <path
       inkscape:connector-curvature="0"
       style="fill:none;stroke:#000000;stroke-width:1.41111111999999990;stroke-miterlimit:4;stroke-dasharray:none;stroke-linecap:round"
       d="m 105.72788,68.534469 c 1.93437,-3.260231 3.86874,-6.520745 5.76077,-9.906847 1.64482,-2.943578 3.25763,-5.982547 4.71538,-8.775982 1.28319,-2.459285 2.44623,-4.728069 4.05461,-7.776351 1.30184,-2.467187 2.89544,-5.444913 4.76462,-5.261469 1.20813,0.118533 2.53139,1.557584 3.57692,2.873022 1.00378,1.262945 1.75156,2.412154 2.47462,3.643771 0.87407,1.489005 1.71201,3.098518 2.43923,4.733149 0.93517,2.102273 1.68725,4.246033 2.42615,6.403058 0.35113,1.025031 0.69929,2.053166 1.05846,3.077069 0.93442,2.663613 1.94337,5.298722 2.95231,7.933831"
       id="path17429" />
    <path
       inkscape:connector-curvature="0"
       style="fill:none;stroke:#000000;stroke-width:1.41111111999999990;stroke-miterlimit:4;stroke-dasharray:none;stroke-linecap:round"
       d="m 96.076341,48.73912 c 1.157989,4.621953 2.315975,9.243624 3.956919,13.706122 1.23045,3.346309 2.73244,6.602871 4.38693,9.75614 1.14082,2.174522 2.35415,4.299656 3.69615,6.383302 1.08756,1.688536 2.25962,3.349978 3.86308,4.561558 1.06291,0.802922 2.3154,1.408571 3.63615,1.574518 1.09648,0.137724 2.24001,-0.02822 3.26308,-0.416842 1.78324,-0.679027 3.20046,-2.039056 4.61769,-3.399367"
       id="path17433" />
    <path
       inkscape:connector-curvature="0"
       style="fill:none;stroke:#000000;stroke-width:1.41111111999999990;stroke-miterlimit:4;stroke-dasharray:none;stroke-linecap:round"
       d="m 139.95095,23.013716 c 1.29059,0.230858 2.58117,0.461716 3.77692,0.94234 1.97974,0.795867 3.69951,2.276969 5.08846,3.955345 1.14936,1.389098 2.07219,2.91338 2.85385,4.505396 1.16729,2.377723 2.01975,4.907281 2.87,7.429219 1.51109,4.482535 3.01519,8.941928 4.75384,13.332459 1.47601,3.727309 3.12105,7.404947 5.10539,10.877691 1.51221,2.646398 3.22146,5.173698 5.27154,7.487638 1.47092,1.660314 3.11729,3.210278 5.18076,4.040858 1.65316,0.665198 3.57402,0.868398 5.24924,0.390596 1.82111,-0.519289 3.35193,-1.843194 4.70384,-3.258256 2.15353,-2.254109 3.85309,-4.739358 5.43077,-7.320844 1.77928,-2.911687 3.40353,-5.94614 5.13538,-8.905523 0.58465,-0.999066 1.18155,-1.989384 1.77846,-2.979984"
       id="path17437" />
    <path
       inkscape:connector-curvature="0"
       style="fill:none;stroke:#000000;stroke-width:1.41111111999999990;stroke-miterlimit:4;stroke-dasharray:none;stroke-linecap:round"
       d="m 139.95095,65.47772 c 0.65866,1.673013 1.31732,3.346309 2.05923,4.977553 0.87236,1.918265 1.85981,3.778956 2.89615,5.633156 1.94277,3.475849 4.05737,6.92912 6.93462,9.638453 2.06374,1.943382 4.51985,3.504071 7.15769,4.615463 2.62647,1.106593 5.43311,1.767557 8.28307,1.816946 2.48663,0.0429 5.00623,-0.380153 7.27154,-1.367084 1.9388,-0.844691 3.69133,-2.102556 5.24693,-3.545276 2.02013,-1.873673 3.70814,-4.059484 5.23461,-6.34238 2.48315,-3.713762 4.53885,-7.684629 6.46615,-11.710811 1.10089,-2.299547 2.15988,-4.617438 3.11616,-6.976816 1.03389,-2.551006 1.94771,-5.150555 2.86153,-7.750104"
       id="path17441" />
    <path
       inkscape:connector-curvature="0"
       style="fill:none;stroke:#000000;stroke-width:1.41111111999999990;stroke-miterlimit:4;stroke-dasharray:none;stroke-linecap:round"
       d="m 166.97402,68.125247 c 1.27703,-2.408767 2.55405,-4.817816 3.75462,-7.263836 1.68296,-3.428718 3.21567,-6.930531 4.70307,-10.452947 1.53197,-3.628249 3.01586,-7.278511 4.68539,-10.836204 1.58044,-3.36804 3.32723,-6.652826 5.62384,-9.657646 1.68636,-2.206413 3.66915,-4.261555 6.10616,-5.482449 2.04373,-1.02362 4.4069,-1.4605 6.71538,-1.504527 0.98224,-0.01975 1.95458,0.03387 2.92692,0.08608"
       id="path17445" />
    <path
       inkscape:connector-curvature="0"
       style="fill:none;stroke:#000000;stroke-width:1.41111111999999990;stroke-miterlimit:4;stroke-dasharray:none;stroke-linecap:round"
       d="m 167.26633,68.534469 c 1.93437,-3.260231 3.86874,-6.520745 5.76077,-9.906847 1.64482,-2.943578 3.25764,-5.982547 4.71538,-8.775982 1.2832,-2.459285 2.44623,-4.728069 4.05462,-7.776351 1.30183,-2.467187 2.89543,-5.444913 4.76461,-5.261469 1.20814,0.118533 2.5314,1.557584 3.57693,2.873022 1.00377,1.262945 1.75155,2.412154 2.47461,3.643771 0.87407,1.489005 1.71201,3.098518 2.43923,4.733149 0.93518,2.102273 1.68725,4.246033 2.42615,6.403058 0.35114,1.025031 0.6993,2.053166 1.05847,3.077069 0.93441,2.663613 1.94336,5.298722 2.9523,7.933831"
       id="path17449" />
    <path
       inkscape:connector-curvature="0"
       style="fill:none;stroke:#000000;stroke-width:1.41111111999999990;stroke-miterlimit:4;stroke-dasharray:none;stroke-linecap:round"
       d="m 157.61479,48.73912 c 1.15799,4.621953 2.31598,9.243624 3.95693,13.706122 1.23044,3.346309 2.73243,6.602871 4.38692,9.75614 1.14082,2.174522 2.35416,4.299656 3.69615,6.383302 1.08756,1.688536 2.25962,3.349978 3.86308,4.561558 1.06292,0.802922 2.3154,1.408571 3.63615,1.574518 1.09648,0.137724 2.24002,-0.02822 3.26308,-0.416842 1.78324,-0.679027 3.20046,-2.039056 4.61769,-3.399367"
       id="path17453" />
    <path
       inkscape:connector-curvature="0"
       style="fill:none;stroke:#000000;stroke-width:1.41111111999999990;stroke-miterlimit:4;stroke-dasharray:none;stroke-linecap:round"
       d="m 201.4894,23.013716 c 1.29059,0.230858 2.58118,0.461716 3.77693,0.94234 1.97974,0.795867 3.69951,2.276969 5.08846,3.955345 1.14935,1.389098 2.07218,2.91338 2.85384,4.505396 1.1673,2.377723 2.01976,4.907281 2.87,7.429219 1.51108,4.482535 3.0151,8.941928 4.75385,13.332459 1.47608,3.727309 3.12133,7.404947 5.10538,10.877691 1.512,2.646398 3.22076,5.173698 5.27154,7.487638 1.47143,1.660314 3.11893,3.210843 5.18077,4.040858 1.65184,0.664916 3.56963,0.867269 5.24923,0.390596 1.82589,-0.51816 3.37029,-1.838678 4.70384,-3.258256 1.25566,-1.336887 2.32437,-2.761262 3.39308,-4.185355"
       id="path17499" />
    <path
       inkscape:connector-curvature="0"
       style="fill:none;stroke:#000000;stroke-width:1.41111111999999990;stroke-miterlimit:4;stroke-dasharray:none;stroke-linecap:round"
       d="m 201.4894,65.47772 c 0.65866,1.673013 1.31733,3.346309 2.05923,4.977553 0.87236,1.918265 1.85981,3.778956 2.89616,5.633156 1.94276,3.475849 4.05733,6.92912 6.93461,9.638453 2.06377,1.943382 4.51994,3.504071 7.15769,4.615463 2.62639,1.106593 5.43282,1.767557 8.28308,1.816946 2.48689,0.0429 5.00714,-0.379589 7.27154,-1.367084 1.93801,-0.844974 3.6886,-2.103967 5.24692,-3.545276 2.02367,-1.87198 3.72308,-4.051582 5.23461,-6.34238 1.12357,-1.702647 2.14333,-3.466818 3.16308,-5.230707"
       id="path17503" />
    <path
       inkscape:connector-curvature="0"
       style="fill:none;stroke:#000000;stroke-width:1.41111111999999990;stroke-miterlimit:4;stroke-dasharray:none;stroke-linecap:round"
       d="m 219.15325,48.73912 c 1.15798,4.621953 2.31597,9.243624 3.95692,13.706122 1.23044,3.346309 2.73243,6.602871 4.38692,9.75614 1.14083,2.174522 2.35416,4.299656 3.69616,6.383302 1.08755,1.688536 2.25961,3.349978 3.86307,4.561558 1.06292,0.802922 2.3154,1.408571 3.63615,1.574518 1.09649,0.137724 2.24002,-0.02822 3.26308,-0.416842 1.78324,-0.679027 3.20047,-2.039056 4.61769,-3.399367"
       id="path17507" />
    <path
       inkscape:connector-curvature="0"
       style="fill:none;stroke:#000000;stroke-width:1.41111111999999990;stroke-miterlimit:4;stroke-dasharray:none;stroke-linecap:round"
       d="m 228.51248,68.125247 c 3.60935,0.856826 7.2187,1.713653 10.84076,1.75768 3.45332,0.04205 6.9182,-0.654756 10.38308,-1.35128"
       id="path17511" />
    <path
       inkscape:connector-curvature="0"
       style="fill:none;stroke:#000000;stroke-width:1.41111111999999990;stroke-miterlimit:4;stroke-dasharray:none;stroke-linecap:round"
       d="m 249.73632,68.531647 0,7.142197"
       id="path17515" />
  </g>
</svg>
