<?xml version="1.0" encoding="UTF-8"?>
<!-- 2016-05-25 09:40:27 Generated by QCAD SVG Exporter -->
<svg width="90" height="63.639610306789294" viewBox="0 -63.639610306789294 90 63.639610306789294" version="1.1" xmlns="http://www.w3.org/2000/svg" style="stroke-linecap:round;stroke-linejoin:round;fill:none">
    <g transform="scale(1,-1)">
        <!-- Arc -->
        <path d="M90,0 A90,90 0 0,1 63.63961030678927,63.639610306789294 " style="stroke:#000000;stroke-width:1;"/>
        <!-- Radial Dimension -->
        <g>
            <path d="M85.72097385778108,27.42106199390559 L76.7037530917121,22.788307271634256 L75.68908932212092,25.960247384197903 Z" style="stroke:#0000ff;stroke-width:0.5;fill:#0000ff;fill-rule:evenodd;"/>
            <g>
                <path d="M32.044946305949786,12.876087567729975 L28.998161639960273,22.40064021859454 L32.1730125235818,23.41623510725771 M34.96664303843826,21.976731110618807 C34.59271132578259,23.145678927894288 33.34196034085728,23.790166819913374 32.1730125235818,23.41623510725771 M34.96664303843826,21.976731110618807 L35.305174667992645,20.918447482744966 M33.86567067135375,18.124816967888506 C35.03461848862923,18.49874868054417 35.679106380648314,19.749499665469486 35.305174667992645,20.918447482744966 M33.86567067135375,18.124816967888506 L30.690819787732224,17.109222079225336 M33.86567067135375,18.124816967888506 L37.336364445318985,14.568745715501924" style="stroke:#0000ff;stroke-width:0.5;"/>
                <path d="M41.56955055672161,15.92271092726454 L41.57056846377319,15.922180617014462 C43.116912162407715,17.62746989455778 43.73701929899858,20.087482832564902 42.98533949327126,22.43730885281513 L42.37462843355514,24.346452517499536 C42.00069672089948,25.515400334775016 40.74994573597416,26.159888226794102 39.58099791869868,25.78595651413844 C38.4120501014232,25.412024801482772 37.76756220940411,24.161273816557458 38.14149392205978,22.992325999281977 L38.48002555161417,21.934042371408136 C38.85395726426984,20.765094554132656 40.10470824919515,20.120606662113573 41.27365606647063,20.494538374769235 L43.26322928687345,21.13097783833149" style="stroke:#0000ff;stroke-width:0.5;"/>
                <path d="M48.12836342432755,27.93665601741425 L48.12843502256354,27.936786807325728 C47.82122503530118,28.189524279856442 47.3960052712173,28.285879128780884 46.98898331381557,28.15567792101917 C46.58223286542676,28.02556356557772 46.291997363099725,27.700653487346827 46.18835395648093,27.31696818419435 M46.1886020310285,27.319749908274474 L46.188341566902096,27.319968609476298 C45.92474321885559,26.558983529363626 45.83102504763725,25.73404604567936 45.93712323332282,24.90530215701425 M47.292381468284546,20.670194904767243 L47.29193094716659,20.66903855430813 C47.68807210906994,19.930245971884375 48.24289673915483,19.313351266098167 48.89866143437869,18.84705260581528 M48.89704046611356,18.849609574394464 L48.89696922975024,18.84947954067313 C49.20412845954438,18.597142563982505 49.6290342414092,18.501016260029846 50.03576797980507,18.631125270154605 C50.44251842819388,18.76123962559605 50.7327539305209,19.086149703826948 50.8363973371397,19.469835006979423 M50.83572594914098,19.466917870247478 L50.835986413267385,19.46669916904565 C51.09958476131389,20.227684249158322 51.193302932532234,21.05262173284259 51.087204746846666,21.881365621507697 M51.085712880149046,21.880555756719104 L51.088341821198085,21.8759299637938 C51.0163987774489,22.598473787548052 50.86858104678819,23.32133212229278 50.63943738307418,24.03765806223158 C50.63592563947078,24.048636122880342 50.63239745054901,24.059604346940528 50.62890936937797,24.0703879840912 M50.62950163405063,24.068509246428796 L50.62956211146147,24.068322408140713 C50.625839704349765,24.080097541901097 50.62215470118646,24.091685449012537 50.61844842204181,24.10327164715975 C50.389165276799446,24.82003362026345 50.08977843051436,25.494863825930178 49.731844238445866,26.119883145448295 M49.73150546374633,26.117293916620092 L49.7319564555472,26.118451338708454 C49.33630146615052,26.856026634251222 48.78247213872661,27.47206134133585 48.12794454368283,27.93799438757895 M46.395249659570005,22.71829394474498 L46.39518918215916,22.71848078303305 C46.398911589270874,22.706705649272664 46.402596592434165,22.69511774216123 46.406302871578816,22.683531544014016 C46.635778709217355,21.96616719526716 46.93547612945031,21.2908051235272 47.293813618147915,20.66533622741756 M45.93903841347158,24.90624743445466 L45.93640947242255,24.910873227379962 C46.00835251617174,24.188329403625715 46.156170246832446,23.465471068880987 46.38531391054645,22.749145128942196 C46.3890399700055,22.73749709555993 46.392784543293516,22.7258601360234 46.396487659121675,22.71441942600211" style="stroke:#0000ff;stroke-width:0.5;"/>
            </g>
            <path d="M0,0 L85.72097385778108,27.42106199390559 " style="stroke:#0000ff;stroke-width:0.5;"/>
        </g>
    </g>
</svg>
