<?xml version="1.0" encoding="UTF-8"?>
<!-- 2011-10-19 14:08:48 Generated by QCAD SVG Exporter -->
<svg width="91" height="64.6396" viewBox="-0.5 -64.1396 91 64.6396" version="1.1" xmlns="http://www.w3.org/2000/svg" style="stroke-linecap:round;stroke-linejoin:round;fill:none">
    <g transform="scale(1,-1)">
        <!-- Arc -->
        <path d="M90,0 A90,90 0 0,1 63.6396,63.6396 " style="stroke:#000000;stroke-width:1;"/>
        <!-- Radial Dimension -->
        <g>
            <path d="M85.721,27.4211 L76.7038,22.7883 L75.6891,25.9602 Z" style="stroke:#0000ff;stroke-width:0.5;fill:#0000ff;fill-rule:evenodd;"/>
            <g>
                <path d="M32.0449,12.8761 L28.9982,22.4006 L32.173,23.4162 M34.9666,21.9767 C34.5927,23.1457 33.342,23.7902 32.173,23.4162 M34.9666,21.9767 L35.3052,20.9184 M33.8657,18.1248 C35.0346,18.4987 35.6791,19.7495 35.3052,20.9184 M33.8657,18.1248 L30.6908,17.1092 M33.8657,18.1248 L37.3364,14.5687 " style="stroke:#0000ff;stroke-width:0.5;"/>
                <path d="M41.5696,15.9227 L41.5706,15.9222 C43.1169,17.6275 43.737,20.0875 42.9853,22.4373 L42.3746,24.3465 C42.0007,25.5154 40.7499,26.1599 39.581,25.786 C38.4121,25.412 37.7676,24.1613 38.1415,22.9923 L38.48,21.934 C38.854,20.7651 40.1047,20.1206 41.2737,20.4945 L43.2632,21.131 " style="stroke:#0000ff;stroke-width:0.5;"/>
                <path d="M48.1284,27.9367 L48.1284,27.9368 C47.8212,28.1895 47.396,28.2859 46.989,28.1557 C46.5822,28.0256 46.292,27.7007 46.1884,27.317 M46.1886,27.3197 L46.1883,27.32 C45.9247,26.559 45.831,25.734 45.9371,24.9053 M47.2924,20.6702 L47.2919,20.669 C47.6881,19.9302 48.2429,19.3134 48.8987,18.8471 M48.897,18.8496 L48.897,18.8495 C49.2041,18.5971 49.629,18.501 50.0358,18.6311 C50.4425,18.7612 50.7328,19.0861 50.8364,19.4698 M50.8357,19.4669 L50.836,19.4667 C51.0996,20.2277 51.1933,21.0526 51.0872,21.8814 M51.0857,21.8806 L51.0883,21.8759 C51.0164,22.5985 50.8686,23.3213 50.6394,24.0377 C50.6359,24.0486 50.6324,24.0596 50.6289,24.0704 M50.6295,24.0685 L50.6296,24.0683 C50.6258,24.0801 50.6222,24.0917 50.6184,24.1033 C50.3892,24.82 50.0898,25.4949 49.7318,26.1199 M49.7315,26.1173 L49.732,26.1185 C49.3363,26.856 48.7825,27.4721 48.1279,27.938 M46.3952,22.7183 L46.3952,22.7185 C46.3989,22.7067 46.4026,22.6951 46.4063,22.6835 C46.6358,21.9662 46.9355,21.2908 47.2938,20.6653 M45.939,24.9062 L45.9364,24.9109 C46.0084,24.1883 46.1562,23.4655 46.3853,22.7491 C46.389,22.7375 46.3928,22.7259 46.3965,22.7144 " style="stroke:#0000ff;stroke-width:0.5;"/>
            </g>
            <path d="M0,0 L85.721,27.4211 " style="stroke:#0000ff;stroke-width:0.5;"/>
        </g>
    </g>
</svg>
