<svg xmlns="http://www.w3.org/2000/svg" viewBox="-0.5 -64.1396 91 64.6396" style="fill:none;stroke-linecap:round;stroke-linejoin:round"><g transform="scale(1-1)"><path d="M90 0A90 90 0 0 1 63.6396 63.6396" style="stroke:#000"/><g style="stroke:#00f;stroke-width:.5"><path d="m85.72 27.421l-9.02-4.633-1.015 3.172" style="fill:#00f;fill-rule:evenodd"/><path d="m32.04 12.876l-3.047 9.524 3.175 1.016m2.794-1.439c-.374 1.169-1.625 1.814-2.794 1.439m2.794-1.439l.339-1.058m-1.44-2.794c1.169.374 1.813 1.625 1.44 2.794m-1.44-2.794l-3.175-1.016m3.175 1.016l3.471-3.556"/><path d="m41.57 15.923c1.547 1.705 2.167 4.165 1.416 6.515l-.611 1.909c-.374 1.169-1.625 1.813-2.794 1.439-1.169-.374-1.813-1.625-1.44-2.794l.339-1.058c.374-1.169 1.625-1.813 2.794-1.439l1.989.637"/><path d="m48.13 27.937c-.307.253-.732.349-1.139.219-.407-.13-.697-.455-.801-.839m0 .003c-.264-.761-.358-1.586-.252-2.414m1.355-4.235v-.001c.396-.739.951-1.356 1.607-1.822m-.002.003c.307-.253.732-.349 1.139-.218.407.13.697.455.801.839m-.001-.003c.264.761.358 1.586.252 2.415m-.002-.001l.003-.005c-.072.723-.22 1.445-.449 2.162-.004.011-.007.022-.011.033m.001-.002c-.004.012-.007.023-.011.035-.229.717-.529 1.392-.887 2.02m0-.003v.001c-.396.738-.95 1.354-1.604 1.82m-1.733-5.22c.004-.012.007-.023.011-.035.23-.717.529-1.393.888-2.02m-1.355 4.241l-.003.005c.072-.723.22-1.445.449-2.162.004-.012.008-.023.011-.035"/></g></g><path d="m0 0c0 0 85.72-27.421 85.72-27.421" style="stroke:#00f;stroke-width:.5"/></svg>