<svg width="91" fill="none" xmlns="http://www.w3.org/2000/svg" height="64.6396" viewBox="-0.5 -64.1396 91 64.6396" stroke-linejoin="round" stroke-linecap="round">
<g transform="scale(1 -1)">
<path stroke="#000" d="M90,0 A90,90 0 0,1 63.6396,63.6396 "/>
</g>
<g transform="scale(1 -1)">
<path fill="#00f" stroke="#00f" fill-rule="evenodd" stroke-width=".5" d="m85.721,27.4211l-9.0172-4.6328-1.0147,3.1719Z"/>
</g>
<g stroke="#00f" stroke-width=".5" transform="scale(1 -1)">
<path d="m32.0449,12.8761l-3.0467,9.5245 3.1748,1.0156m2.7936-1.4395c-.3739,1.169-1.6246,1.8135-2.7936,1.4395m2.7936-1.4395l.3386-1.0583m-1.4395-2.7936c1.1689,.3739 1.8134,1.6247 1.4395,2.7936m-1.4395-2.7936l-3.1749-1.0156m3.1749,1.0156l3.4707-3.5561"/>
<path d="m41.5696,15.9227l.001-.0005c1.5463,1.7053 2.1664,4.1653 1.4147,6.5151l-.6107,1.9092c-.3739,1.1689-1.6247,1.8134-2.7936,1.4395-1.1689-.374-1.8134-1.6247-1.4395-2.7937l.3385-1.0583c.374-1.1689 1.6247-1.8134 2.7937-1.4395l1.9895,.6365"/>
<path d="m48.1284,27.9367v.0001c-.3072,.2527-.7324,.3491-1.1394,.2189-.4068-.1301-.697-.455-.8006-.8387m.0002,.0027l-.0003,.0003c-.2636-.761-.3573-1.586-.2512-2.4147m1.3553-4.2351l-.0005-.0012c.3962-.7388 .951-1.3556 1.6068-1.8219m-.0017,.0025v-.0001c.3071-.2524 .732-.3485 1.1388-.2184 .4067,.1301 .697,.455 .8006,.8387m-.0007-.0029l.0003-.0002c.2636,.761 .3573,1.5859 .2512,2.4147m-.0015-.0008l.0026-.0047c-.0719,.7226-.2197,1.4454-.4489,2.1618-.0035,.0109-.007,.0219-.0105,.0327m.0006-.0019l.0001-.0002c-.0038,.0118-.0074,.0234-.0112,.035-.2292,.7167-.5286,1.3916-.8866,2.0166m-.0003-.0026l.0005,.0012c-.3957,.7375-.9495,1.3536-1.6041,1.8195m-1.7327-5.2197v.0002c.0037-.0118 .0074-.0234 .0111-.035 .2295-.7173 .5292-1.3927 .8875-2.0182m-1.3548,4.2409l-.0026,.0047c.072-.7226 .2198-1.4454 .4489-2.1618 .0037-.0116 .0075-.0232 .0112-.0347"/>
</g>
<g transform="scale(1 -1)">
<path stroke="#00f" stroke-width=".5" d="m0,0l85.721,27.4211"/>
</g>
</svg>
