<?xml version="1.0" encoding="UTF-8" standalone="no"?>
<svg
   xmlns:dc="http://purl.org/dc/elements/1.1/"
   xmlns:cc="http://creativecommons.org/ns#"
   xmlns:rdf="http://www.w3.org/1999/02/22-rdf-syntax-ns#"
   xmlns:svg="http://www.w3.org/2000/svg"
   xmlns="http://www.w3.org/2000/svg"
   xmlns:sodipodi="http://sodipodi.sourceforge.net/DTD/sodipodi-0.dtd"
   xmlns:inkscape="http://www.inkscape.org/namespaces/inkscape"
   viewBox="0 0 512 512"
   id="svg2"
   version="1.1"
   inkscape:version="0.91 r13725"
   sodipodi:docname="HatchFromSelection.svg">
  <metadata
     id="metadata38">
    <rdf:RDF>
      <cc:Work
         rdf:about="">
        <dc:format>image/svg+xml</dc:format>
        <dc:type
           rdf:resource="http://purl.org/dc/dcmitype/StillImage" />
      </cc:Work>
    </rdf:RDF>
  </metadata>
  <defs
     id="defs36" />
  <sodipodi:namedview
     pagecolor="#ffffff"
     bordercolor="#666666"
     borderopacity="1"
     objecttolerance="10"
     gridtolerance="10"
     guidetolerance="10"
     inkscape:pageopacity="0"
     inkscape:pageshadow="2"
     inkscape:window-width="1808"
     inkscape:window-height="1125"
     id="namedview34"
     showgrid="false"
     inkscape:zoom="1.3037281"
     inkscape:cx="256"
     inkscape:cy="256"
     inkscape:window-x="0"
     inkscape:window-y="23"
     inkscape:window-maximized="0"
     inkscape:current-layer="svg2" />
  <g
     id="g6"
     style="fill:none;stroke:#ff0000;stroke-width:13.71399975"
     transform="translate(0,464)">
    <path
       inkscape:connector-curvature="0"
       id="path8"
       d="m 360,-192 c 0,30.928 -25.07,56 -56,56 -30.928,0 -56,-25.07 -56,-56 0,-30.928 25.07,-56 56,-56 30.928,0 56,25.07 56,56 z"
       style="stroke:#ff0000" />
    <path
       inkscape:connector-curvature="0"
       id="path10"
       d="m 440,-328 -256,0 -112,112 0,144 368,0 0,-256 z"
       style="stroke:#ff0000" />
  </g>
  <g
     id="g12"
     style="fill:none;stroke:#000000;stroke-width:8"
     transform="translate(0,464)">
    <path
       inkscape:connector-curvature="0"
       id="path14"
       d="M 72,-88 312,-328" />
    <path
       inkscape:connector-curvature="0"
       id="path16"
       d="m 296,-248 80,-80" />
    <path
       inkscape:connector-curvature="0"
       id="path18"
       d="M 120,-72 248,-200" />
    <path
       inkscape:connector-curvature="0"
       id="path20"
       d="m 344,-232 96,-96" />
    <path
       inkscape:connector-curvature="0"
       id="path22"
       d="m 184,-72 80,-80" />
    <path
       inkscape:connector-curvature="0"
       id="path24"
       d="m 360,-184 80,-80" />
    <path
       inkscape:connector-curvature="0"
       id="path26"
       d="m 248,-72 64,-64" />
    <path
       inkscape:connector-curvature="0"
       id="path28"
       d="M 312,-72 440,-200" />
    <path
       inkscape:connector-curvature="0"
       id="path30"
       d="m 376,-72 64,-64" />
    <path
       inkscape:connector-curvature="0"
       id="path32"
       d="M 72,-152 248,-328" />
  </g>
</svg>
