<svg xmlns="http://www.w3.org/2000/svg" viewBox="0 0 512 512"><defs><linearGradient x2="45.32" gradientUnits="userSpaceOnUse" y2="22.251" x1="43.24" y1="17.376" id="1"><stop style="stop-color:#ffd1d1"/><stop offset=".5" style="stop-color:#ff1d1d"/><stop offset="1" style="stop-color:#6f0000"/></linearGradient><linearGradient x2="19.689" gradientUnits="userSpaceOnUse" y2="30.828" x1="19.893" y1="31.17" id="2"><stop/><stop offset="1" style="stop-color:#c9c9c9"/></linearGradient><linearGradient x2="12.263" gradientUnits="userSpaceOnUse" y2="41.625" x1="10.575" y1="38.812" id="3"><stop style="stop-color:#c1c1c1"/><stop offset="1" style="stop-color:#acacac"/></linearGradient><radialGradient gradientUnits="userSpaceOnUse" r="3.241" id="0" gradientTransform="matrix(2.92356 0 0 2.02972-61.56-27.884)" cy="27.641" cx="29.05"><stop style="stop-color:#e7e2b8"/><stop offset="1" style="stop-color:#e7e2b8;stop-opacity:0"/></radialGradient></defs><g transform="translate(-16 528)" style="fill:none;stroke:#000"><g style="stroke-width:13.714"><path d="m360-192c0 30.928-25.07 56-56 56-30.928 0-56-25.07-56-56 0-30.928 25.07-56 56-56 30.928 0 56 25.07 56 56z"/><path d="m440-328h-256l-112 112v144h368v-256z"/></g><g style="stroke-width:8"><path d="m72-88l240-240"/><path d="m296-248l80-80"/><path d="m120-72l128-128"/><path d="m344-232l96-96"/><path d="m184-72l80-80"/><path d="m360-184l80-80"/><path d="m248-72l64-64"/><path d="m312-72l128-128"/><path d="m376-72l64-64"/><path d="m72-152l176-176"/></g></g><g transform="matrix(9.262-3.29527 3.4343 8.88706-39.3 39.634)" style="fill-rule:evenodd"><path d="m17.341 32.5l5.625-5.625 20.09-9.75c3.25-1.25 5.188 3.375 2.313 5l-20.03 9.375-8 1z" style="fill:#cb9022;stroke:#5c410c;stroke-width:.934"/><path d="m38.33 20c0 0 1.438.094 2 1.344.58 1.288 0 2.656 0 2.656l5.03-2.469c0 0 1.452-.881.656-2.844-.785-1.936-2.688-1.156-2.688-1.156l-5 2.469" style="fill:url(#1)"/><path d="m18.768 31.781l4.5-4.5c1.5.813 2.281 2.156 1.875 3.719l-6.375.781" style="fill:url(#0)"/><path d="m20.11 30.375l-1.625 1.594 2.344-.313c.219-.719-.188-1.063-.719-1.281" style="fill:url(#2)"/><g style="fill-opacity:.364"><path d="m23.268 27.25l1.563 1.25 15.387-7.319c-.444-.856-1.242-1.085-1.903-1.162l-15.05 7.231" style="fill:#fff"/><path d="m25.14 31.06l.188-.75 15.231-7.13c0 0-.11.614-.216.749l-15.203 7.13"/></g></g></svg>