<svg xmlns="http://www.w3.org/2000/svg" xmlns:xlink="http://www.w3.org/1999/xlink" width="64" height="64" viewBox="9.875 -30.125 18.062223 18.062223" style="fill:none;stroke-linecap:round;stroke-linejoin:round"><defs><linearGradient id="3" gradientUnits="userSpaceOnUse" gradientTransform="matrix(.12069 0 0 .11318-30.762-37.12)" x1="354.62" y1="188.05" x2="466.34" y2="80.46"><stop style="stop-color:#9d9d9f"/><stop offset="1" style="stop-color:#e5e5e5"/></linearGradient><linearGradient xlink:href="#0" id="2" gradientUnits="userSpaceOnUse" gradientTransform="matrix(.11729 0 0 .11645-30.762-37.12)" x1="367.75" x2="477.61"/><linearGradient id="0"><stop style="stop-color:#cfcfcf"/><stop offset="1" style="stop-color:#efefef"/></linearGradient><linearGradient xlink:href="#0" id="1" gradientUnits="userSpaceOnUse" gradientTransform="matrix(.11729 0 0 .11645-30.762-37.12)" x1="393.6" y1="174.85" x2="458.72" y2="95.03"/></defs><g style="fill-rule:evenodd"><path d="m12.636-29.24h12.54c1.339 0 2.418 1.077 2.418 2.414v11.459c0 1.337-1.078 2.414-2.418 2.414h-12.54c-1.339 0-2.418-1.077-2.418-2.414v-11.459c0-1.337 1.078-2.414 2.418-2.414z" style="fill:url(#3);stroke:#acb0b0;stroke-width:.371"/><path d="m13.398-27.508h10.835c.487 0 .879.538.879 1.206v10.09c0 .668-.392 1.206-.879 1.206h-10.835c-.487 0-.879-.538-.879-1.206v-10.09c0-.668.392-1.206.879-1.206z" style="fill:url(#1);stroke:url(#2);stroke-width:.91"/></g></svg>
