<svg width="512" xmlns="http://www.w3.org/2000/svg" height="512" xmlns:xlink="http://www.w3.org/1999/xlink">
<defs/>
<g transform="translate(0 464)">
<path d="m252.0262-248.5811c14.6106,.0002 25.6891-3.2109 33.2355-9.6335 7.546-6.4221 11.3191-15.895 11.3193-28.4188-.0002-12.3627-3.7733-21.7553-11.3193-28.178-7.5464-6.5826-18.625-9.874-33.2355-9.8743h-51.2983v76.1046h51.2983m3.1309,157.2667c18.6245,.0001 32.5931-3.9336 41.9057-11.801 9.4727-7.8673 14.2092-19.7486 14.2094-35.6439-.0002-15.574-4.6564-27.2145-13.9686-34.9214-9.3126-7.8672-23.3614-11.8009-42.1465-11.801h-54.4292v94.1673h54.4292m86.2197-129.3296c19.9089,5.7803 35.3225,16.4574 46.2407,32.0314 10.9176,15.5743 16.3766,34.6807 16.3769,57.3192-.0003,34.6806-11.7211,60.5305-35.1622,77.5496-23.4418,17.0192-59.0856,25.5287-106.9317,25.5287h-153.895v-359.5699h139.2039c49.9333,.0004 86.0589,7.5466 108.3767,22.6387 22.4778,15.0928 33.7169,39.2568 33.7172,72.492-.0003,17.5011-4.0946,32.433-12.2827,44.7957-8.1888,12.2026-20.0701,21.2741-35.6439,27.2146" style="fill:#fff"/>
</g>
</svg>
