<svg xmlns="http://www.w3.org/2000/svg" xmlns:xlink="http://www.w3.org/1999/xlink" viewBox="0 0 512 512"><defs><linearGradient gradientTransform="matrix(1.0657 0 0 .9876-8.548-4.892)" xlink:href="#5" id="6" y1="18.992" x1="22.308" y2="39.498" gradientUnits="userSpaceOnUse" x2="35.785"/><linearGradient id="5"><stop style="stop-color:#fff"/><stop offset=".546" style="stop-color:#f0f0f0"/><stop offset=".828" style="stop-color:#fff"/><stop offset="1" style="stop-color:#d8d8d4"/></linearGradient><linearGradient id="7"><stop style="stop-color:#fff"/><stop offset="1" style="stop-color:#fff;stop-opacity:0"/></linearGradient><linearGradient gradientTransform="matrix(.9985 0 0 .99825-6.97-4.893)" xlink:href="#7" id="4" y1="26.697" x1="26.08" y2="42.01" gradientUnits="userSpaceOnUse" x2="30.811"/><linearGradient id="3" y1="474.29" x1="454.95" y2="445.63" gradientUnits="userSpaceOnUse" x2="430.07"><stop style="stop-color:#7c7c7c"/><stop offset="1" style="stop-color:#b8b8b8"/></linearGradient><linearGradient gradientTransform="matrix(11.38384 0 0 10.55227 52.1 42.756)" xlink:href="#5" id="0" y1="18.992" x1="22.308" y2="39.498" gradientUnits="userSpaceOnUse" x2="35.785"/><linearGradient gradientTransform="matrix(10.66048 0 0 10.66666 69.16 42.737)" xlink:href="#7" id="2" y1="26.697" x1="26.08" y2="42.01" gradientUnits="userSpaceOnUse" x2="30.811"/><linearGradient xlink:href="#7" id="1" y1="432.56" x1="427.2" y2="444.82" gradientUnits="userSpaceOnUse" x2="435.46"/></defs><g transform="matrix(10.68275 0 0 10.67323 4.72-.959)" style="opacity:.8"><g style="fill-rule:evenodd"><path d="m20.16 34.03h13v2h-13z" style="opacity:.17;color:#000"/><path d="m2.114 1.563h29.82a.5657 .5662 0 0 1 .5657 .5662v34.844a.5657 .5662 0 0 1 -.5657 .5661h-29.82a.5657 .5662 0 0 1 -.5657 -.5661v-34.844a.5657 .5662 0 0 1 .5657 -.5662" style="fill:url(#6);stroke:#888a85;stroke-width:.999"/></g><path d="m2.533 2.561h28.971v33.981h-28.971z" style="fill:none;stroke:url(#4);stroke-width:.999"/><g style="color:#000;fill-rule:evenodd"><path d="m7.02 10.03h21v2h-21z" style="opacity:.17"/><path d="m7.02 14.03h20v2h-20z" style="opacity:.17"/><path d="m7.02 18.03h18v2h-18z" style="opacity:.17"/><path d="m7.02 22.03h21v2h-21z" style="opacity:.17"/><path d="m7.02 26.03h13v2h-13z" style="opacity:.17"/></g></g><g style="stroke-width:10.667"><path d="m166.03 111.72h318.47c3.368 0 6.079 2.7 6.079 6.05v289.79c0 26.416-73.38 88.57-98.86 88.57h-225.69c-3.368 0-6.079-2.7-6.079-6.05v-372.3c0-3.353 2.711-6.05 6.079-6.05z" style="fill:url(#0);stroke:#50524e;fill-rule:evenodd"/><path d="m170.62 122.38h309.31v363.1h-309.31z" style="fill:none;stroke:url(#2)"/></g><g style="color:#000"><g style="stroke-width:10.667"><path d="m391.61 496.11c21.658 3.519 102.28-48.32 99.03-90.64-16.675 25.846-50.757 13.725-94.58 15.421 0 0 4.217 69.889-4.449 75.22z" style="fill:url(#3);stroke:#4f524e;fill-rule:evenodd"/><path d="m407.08 472.73c14.611-7.294 47.23-22.896 61.09-42.96-17.02 7.254-31.443 2.235-60.825 2.031 0 0 1.731 32.662-.27 40.929z" style="fill:none;opacity:.369;stroke:url(#1)"/></g><g style="fill-rule:evenodd"><path d="m218.59 202.74h224v21.333h-224z" style="opacity:.17"/><path d="m218.59 245.4h213.25v21.333h-213.25z" style="opacity:.17"/><path d="m218.59 288.07h191.75v21.333h-191.75z" style="opacity:.17"/><path d="m218.59 330.74h224v21.334h-224z" style="opacity:.17"/></g></g></svg>
