<svg width="512" xmlns="http://www.w3.org/2000/svg" height="512">
<defs/>
<g transform="translate(-19.26129 434.76644)">
<path d="m98.9731-122.7664 8.2882,0c.5973,10.6029 3.7334,17.995 9.4082,22.1764 5.6747,4.1815 14.7095,6.2722 27.1045,6.2721h61.1531l-.448-15.0083c-23.7445-4.7787-45.3982-17.9949-64.9612-39.6487-19.5631-21.6536-29.3446-48.9821-29.3445-81.9855-0-36.5871 13.5895-67.7983 40.7687-93.6337 27.3284-25.8348 62.945-38.7524 106.85-38.7527 42.5606,.0003 77.3558,12.2459 104.3859,36.7367 27.0295,24.342 40.5444,55.5532 40.5447,93.6337-.0003,30.9127-8.4378,57.1958-25.3125,78.8494-16.7259,21.5045-39.425,36.4381-68.0972,44.8008l-2.24,15.0083h62.2731c14.1866,0 23.5201-2.688 28.0005-8.0641 4.6291-5.376 7.0931-12.1708 7.3921-20.3844h8.2881v70.1133h-125.4423l5.8241-67.6492c38.5285-12.0961 57.7928-47.7127 57.793-106.8499-.0003-38.6778-9.4831-68.321-28.4485-88.9296-18.8166-20.6081-40.9183-30.9123-66.3052-30.9126-27.03,.0003-49.4304,10.9765-67.2012,32.9286-17.6217,21.8033-26.4326,49.7291-26.4325,83.7775-.0001,24.6406 3.9573,47.1157 11.8722,67.4252 7.9147,20.1605 23.0723,34.3474 45.4728,42.5608l4.2561,67.6492h-125.4423v-70.1133"/>
</g>
<g transform="translate(0 464)">
<path fill-rule="evenodd" stroke="#000" stroke-width="16" d="m424,24 64,0 0-64-64,64z"/>
</g>
</svg>
