<svg xmlns="http://www.w3.org/2000/svg" viewBox="0 0 512 512"><g transform="translate(0 464)"><path d="m348.12-427.01h46.722v203.99c0 35.483-4.01 63.66-12.04 84.53-8.03 20.873-22.559 37.892-43.592 51.06-20.873 13.01-48.33 19.508-82.37 19.508-33.08 0-60.13-5.7-81.16-17.1-21.03-11.4-36.05-27.857-45.04-49.37-8.991-21.675-13.487-51.22-13.487-88.63v-203.99h46.722v203.75c0 30.667 2.81 53.31 8.429 67.916 5.78 14.45 15.574 25.609 29.382 33.476 13.968 7.867 30.988 11.801 51.06 11.801 34.36 0 58.844-7.787 73.46-23.361 14.611-15.574 21.916-45.518 21.916-89.83v-203.75" style="fill:#fff"/><path d="m72-25.945h368" style="fill:none;stroke:#fff;stroke-width:20.931"/></g></svg>
