<svg xmlns="http://www.w3.org/2000/svg" viewBox="0 0 512 512"><g transform="translate(-9.248 73.31)"><path d="m93.25 272.31l68.73-178.96h25.513l73.24 178.96h-26.978l-20.874-54.2h-74.829l-19.653 54.2h-25.15m51.636-73.49h60.669l-30.02-85.59-30.653 85.59"/><path d="m273.06 283.05l21.362 3.174c.895 6.592 3.377 11.393 7.446 14.404 5.452 4.069 12.899 6.103 22.339 6.104 10.172 0 18.03-2.035 23.56-6.104 5.534-4.069 9.277-9.766 11.23-17.09 1.139-4.476 1.668-13.875 1.587-28.2-9.603 11.312-21.566 16.968-35.889 16.968-17.822 0-31.616-6.429-41.38-19.287-9.766-12.858-14.648-28.28-14.648-46.26 0-12.37 2.238-23.763 6.714-34.18 4.476-10.498 10.946-18.595 19.409-24.292 8.545-5.696 18.555-8.545 30.03-8.545 15.299 0 27.913 6.185 37.842 18.555v-15.625h20.264v112.06c0 20.18-2.075 34.464-6.226 42.847-4.069 8.464-10.58 15.14-19.531 20.02-8.871 4.883-19.816 7.324-32.837 7.324-15.462 0-27.954-3.499-37.476-10.498-9.522-6.917-14.12-17.375-13.794-31.372m18.19-77.881c0 17.01 3.377 29.419 10.132 37.23 6.755 7.813 15.218 11.719 25.391 11.719 10.09 0 18.555-3.866 25.391-11.597 6.836-7.812 10.254-20.02 10.254-36.621 0-15.869-3.54-27.832-10.62-35.889-6.999-8.06-15.462-12.08-25.391-12.08-9.766 0-18.07 3.988-24.902 11.963-6.836 7.894-10.254 19.653-10.254 35.28"/></g><g style="stroke-opacity:.753;fill:none;stroke:#00f;stroke-width:8"><path d="m472 256h-432"/><path d="m88 472v-432"/></g><path d="m56 256a32 32 0 1 1 64 0 32 32 0 0 1 -64 0" style="fill:#f00"/></svg>