<svg width="512" xmlns="http://www.w3.org/2000/svg" height="512">
<defs/>
<g transform="translate(0 464)">
<g stroke-opacity=".753" fill="none" stroke="#00f" stroke-width="8">
<path d="m472-376-432,0"/>
<path d="m256,8 0-432"/>
</g>
<path fill="#f00" d="m16.5,4.5a1,1 0 1,1 -2,0 1,1 0 1,1 2,0z" transform="matrix(-32 0 0 -32 752 -232)"/>
</g>
<g line-height="150%">
<g transform="translate(58.37008 464.02373)">
<path d="m99.7812-81.8281c4.9623-9.2962 16.2821,1.6428 11.7336,9.0426 2.0692,5.7905-4.08,6.5406-2.6917,.2922 2.3985-6.0596-4.8707-15.4386-8.3242-6.5405 .157,2.9498-.2756,15.5758-3.1061,8.337 3.3771-6.0222-4.5945-18.3652-8.1471-7.9667 .5265,3.1548-1.2569,15.7051-3.199,7.3711 0-4.6317 0-9.2634 0-13.8951 5.229,4.763 9.8414-5.485 13.7344,3.3594z"/>
<path d="m125.2344-76.4844c-11.4247-1.8715-.008,14.7725 2.818,2.2721 .7257-1.8638-1.0936-3.3411-2.818-2.2721zm5.7344-1.1875c0,3.3281 0,6.6562 0,9.9844-4.4708-4.5031-10.4189,5.356-13.6468-2.658-2.6098-6.4804 4.1612-9.9164 9.0273-8.6196 3.9898-6.8604-14.9514-1.4898-5.542-6.5893 5.067-1.1411 11.2572,2.023 10.1615,7.8825z"/>
<path d="m148.4844-76.6406c.8442-12.4558-17.7678-1.8086-7.9762,5.5234 3.5299,2.7562 9.4357-1.1565 7.9762-5.5234zm2.875,6.7812c3.3672,6.5287-10.7919,12.731-12.3713,6.1339 4.1079,.9493 11.4251-1.0347 9.4963-6.5183-8.1482,8.5954-18.9371-8.2156-9.9913-14.1089 5.6445-1.3003 15.9709-2.5167 12.8368,6.4588 .0601,2.6775 .0161,5.3564 .0296,8.0345z"/>
<path d="m171.8281-78.25c0,3.5208 0,7.0417 0,10.5625-6.463-2.0025 .7188-20.8209-10.746-13.8277-2.6465,2.9515 1.4582,16.4508-4.0314,11.8307 1.3747-4.4234-2.3068-14.744 2.1158-15.0695 3.2005,3.6875 8.1862-4.985 11.5491,1.7515 .9817,1.3491 1.4398,3.1007 1.1125,4.7524z"/>
<path d="m185.5469-76.4844c-11.4247-1.8714-.008,14.7725 2.818,2.2721 .7257-1.8638-1.0936-3.3411-2.818-2.2721zm5.7344-1.1875c0,3.3281 0,6.6562 0,9.9844-4.4708-4.5031-10.4189,5.356-13.6468-2.658-2.6098-6.4804 4.1612-9.9164 9.0273-8.6196 3.9898-6.8604-14.9514-1.4898-5.542-6.5893 5.067-1.1411 11.2572,2.023 10.1615,7.8825z"/>
<path d="m215.4219-76.4844c-11.4247-1.8714-.008,14.7725 2.818,2.2721 .7257-1.8638-1.0936-3.3411-2.818-2.2721zm5.7344-1.1875c0,3.3281 0,6.6562 0,9.9844-4.4708-4.5031-10.4189,5.356-13.6468-2.658-2.6098-6.4804 4.1612-9.9164 9.0273-8.6196 3.9898-6.8604-14.9514-1.4898-5.542-6.5893 5.067-1.1411 11.2572,2.023 10.1615,7.8825z"/>
<path d="m227.1562-92c5.7688,1.5348 1.8537,9.964 2.875,14.8632 0,3.1498 0,6.2995 0,9.4493-5.7688-1.5348-1.8537-9.964-2.875-14.8632 0-3.1498 0-6.2995 0-9.4493z"/>
<path d="m236.0312-85.1875c5.8109,2.047 2.0367,12.3003 2.3631,17.4038-4.9641-1.3593-1.1652-12.7073-2.3631-17.4038zm0-6.8125c7.9243-.743-2.3083,8.2024 0,0z"/>
<path d="m246.625-76.4219c-1.356,11.9967 17.254,3.0085 8.6291-4.9946-3.1897-4.1421-10.2964,.2434-8.6291,4.9946zm9.7969,6.1094c-7.5218,9.8407-19.1793-8.1664-9.9376-13.7602 6.0009-2.3252 16.2158-1.7455 12.7619,7.1053 .0954,5.3098 .0329,10.6242 .0507,15.9361-5.4147,.8628-1.9766-6.5311-2.875-9.2812z"/>
<path d="m264.9219-74.5938c0-3.5312 0-7.0625 0-10.5938 6.5427,1.9179-.9139,21.3686 10.9129,13.6006 2.1223-3.0997-1.4835-15.8406 3.8087-11.8695-1.2466,4.5141 2.3148,14.8582-2.0317,15.352-3.3472-3.3794-8.2358,4.8263-11.5699-1.7439-.9813-1.3469-1.4422-3.0947-1.1201-4.7454z"/>
<path d="m293.4844-76.4844c-11.4247-1.8714-.008,14.7725 2.818,2.2721 .7257-1.8638-1.0936-3.3411-2.818-2.2721zm5.7344-1.1875c0,3.3281 0,6.6562 0,9.9844-4.4708-4.5031-10.4189,5.356-13.6468-2.658-2.6098-6.4804 4.1612-9.9164 9.0273-8.6196 3.9898-6.8604-14.9514-1.4898-5.542-6.5893 5.067-1.1411 11.2572,2.023 10.1615,7.8825z"/>
<path d="m305.625-71.6562c9.106-.8551-2.2681,9.3844 0,0z"/>
</g>
<g transform="translate(45.46498 464.02373)">
<path d="m86.1562-140c5.9617,2.5005 1.7486,11.4148 2.875,17.0222 .256,3.1605 .4291,11.2655-3.0819,4.589 .3859-7.1931 .1484-14.3878 .2069-21.6112z"/>
<path d="m102.9844-124.4844c-13.3495-.3135 4.3721,14.2265 2.6745,.367-.672-.8208-1.8326-.8156-2.6745-.367zm5.7344-1.1875c0,3.3281 0,6.6562 0,9.9844-4.3513-4.7671-10.9616,5.4054-13.8154-3.2334-2.1682-7.405 7.0765-8.9743 10.1813-9.1832-.7058-4.6923-16.0535-1.9156-5.3941-5.7077 4.3676-.2747 10.6049,2.8671 9.0283,8.1399z"/>
<path d="m127.2812-124.4219c.1626-14.2775-18.9895,1.9372-6.4059,6.5972 3.6592,1.1452 7.3696-3.0757 6.4059-6.5972zm-9.7812-6.1094c9.2353-11.2953 20.0181,13.7854 6.6358,15.0188-6.3188-.7843-11.6702-.1293-9.5268-8.1438 1.2743-4.5761-2.7945-16.4569 2.5147-15.8459 1.4266,2.7934-.193,6.0312 .3763,8.9709z"/>
<path d="m141.8125-131.1719c-13.6442,2.3053 3.7586,23.0921 5.0527,6.8622 .147-3.0217-1.5196-6.9061-5.0527-6.8622zm0-2.4375c13.981-.4108 7.2472,25.6528-4.6901,16.9832-6.003-4.4497-3.913-17.5138 4.6901-16.9832z"/>
<path d="m164.7344-130.5c-10.8074-5.3521-4.1069,16.2212-10.1493,13.0678 .9708-4.2512-3.1906-19.4178 3.7015-13.8252 1.9344-1.6569 7.6546-4.6463 6.4478,.7574"/>
<path d="m182.0625-125.1562c-3.0151,3.6249-16.5976-1.8517-10.8276,6.4076 2.985,1.6875 14.5943-.8996 6.4161,3.7182-13.3552,4.1205-16.0313-21.7316-1.4131-18.4679 3.5694,.937 6.3216,4.6123 5.8246,8.342zm-2.875-.8437c3.1907-10.6915-17.8954-.0668-4.8093,.007 1.6031-.002 3.2062-.005 4.8093-.007z"/>
<path d="m211.875-125.1562c-3.0151,3.6249-16.5976-1.8517-10.8276,6.4076 2.985,1.6875 14.5943-.8996 6.4161,3.7182-13.3552,4.1205-16.0313-21.7316-1.4131-18.4679 3.5694,.937 6.3216,4.6123 5.8246,8.342zm-2.875-.8437c3.1907-10.6916-17.8954-.0668-4.8093,.007 1.6031-.002 3.2062-.005 4.8093-.007z"/>
<path d="m219.375-138.1562c-3.8355,5.5822 11.7365,5.8554 1.2894,8.009-4.8734,5.1649 .2029,12.4488 3.6502,13.9442-9.2535,2.7516-8.1829-8.0499-8.3749-13.8408-1.0683-3.1762-1.0109-7.9509 3.4353-8.1124z"/>
<path d="m250.7969-130.5312c0-3.1562 0-6.3125 0-9.4688 5.9617,2.5005 1.7486,11.4148 2.875,17.0222-.1069,3.1902 1.2381,10.7113-3.7704,5.4331-10.2069,9.8101-17.8463-14.91-5.0458-16.0905 2.3559-.1174 4.8172,.9397 5.9412,3.104zm-9.7969,6.1094c-.184,14.2881 19.019-1.9239 6.4095-6.5926-3.6599-1.1529-7.3766,3.0687-6.4095,6.5926z"/>
<path d="m266.375-131.1719c-13.6442,2.3053 3.7586,23.0921 5.0527,6.8622 .147-3.0217-1.5196-6.9061-5.0527-6.8622zm0-2.4375c13.981-.4108 7.2472,25.6528-4.69,16.9832-6.003-4.4497-3.913-17.5138 4.69-16.9832z"/>
<path d="m279.1562-140c5.9617,2.5005 1.7486,11.4148 2.875,17.0222 .256,3.1605 .4291,11.2655-3.0819,4.589 .3859-7.1931 .1484-14.3878 .2069-21.6112z"/>
<path d="m294.8125-131.1719c-13.6442,2.3053 3.7586,23.0921 5.0527,6.8622 .147-3.0217-1.5196-6.9061-5.0527-6.8622zm0-2.4375c13.981-.4108 7.2472,25.6528-4.69,16.9832-6.003-4.4497-3.913-17.5138 4.69-16.9832z"/>
<path d="m317.7344-130.5c-10.8074-5.3521-4.1069,16.2212-10.1493,13.0678 .9708-4.2512-3.1906-19.4178 3.7015-13.8252 1.9344-1.6569 7.6546-4.6463 6.4478,.7574"/>
<path d="m335.0625-125.1562c-3.0151,3.6249-16.5976-1.8517-10.8276,6.4076 2.985,1.6875 14.5944-.8996 6.4161,3.7182-13.3552,4.1205-16.0313-21.7316-1.4131-18.4679 3.5694,.937 6.3216,4.6123 5.8246,8.342zm-2.875-.8437c3.1907-10.6915-17.8954-.0668-4.8093,.007 1.6031-.002 3.2062-.005 4.8093-.007z"/>
</g>
<g transform="translate(23.36632 464.02373)">
<path d="m89-186.1562c-3.0048,5.8653 11.6869,5.8058 .8006,8.0573-5.2449,5.1501 3.1081,13.1861 3.7692,13.807-10.6203,1.9885-8.5101-14.2386-7.4839-20.4308l1.2035-.9337 1.7106-.4998z"/>
<path d="m113.6875-173.1562c-4.7437,2.0298-19.2381,1.1043-7.7645,7.612 5.2207-.9127 9.6573-.3685 2.3556,2.5818-16.5203,2.381-11.7649-27.0267 2.9532-16.6615 1.8652,1.5363 2.9151,4.061 2.4557,6.4676zm-2.875-.8438c1.1477-11.1824-16.1855,2.3925-3.6782,.006 1.2261-.002 2.4521-.004 3.6782-.006z"/>
<path d="m131.9688-177.8281c7.4796-12.5276 18.5783,11.4215 9.5118,12.6555 .319-5.8808-2.8588-21.1249-8.6961-9.3286 .3603,3.3859-1.5302,15.8424-2.877,6.8692 4.0885-7.5179-8.5931-15.8423-8.5907-4.7728 1.9274,8.0957-5.0466,8.9355-3.0823,.3576 .7783-3.4941-2.4174-12.0035 3.7289-7.786 3.8761-1.2964 8.2535-3.4805 10.0054,2.005z"/>
<path d="m152.25-166.3125c2.8787,5.0989-3.7328,12.9661-2.9624,3.649 1.8889-6.9021-4.7311-21.5871 6.5048-17.7482 12.0494-4.5005 12.2566,17.6549 1.2728,17.302-2.0374-.1332-3.7262-1.573-4.8152-3.2028zm9.7812-6.1094c-1.1171-16.1918-19.1554,6.9641-3.9605,6.6928 2.7282-.8722 4.391-3.9207 3.9605-6.6928z"/>
<path d="m176.5625-179.1719c-14.0529,1.7406 4.6591,22.1538 4.9844,6.75 .2179-2.8944-1.5522-6.9639-4.9844-6.75zm0-2.4375c16.1375-.2118 3.6733,28.8615-6.5201,15.0424-3.5223-5.3055-1.1208-15.5739 6.5201-15.0424z"/>
<path d="m199.4844-178.5c-10.0205-6.4851-6.7121,24.2565-10.3834,8.6234 1.1197-5.6715-2.7641-13.08 5.0358-10.2825 2.1297-1.348 6.0186-2.7769 5.3476,1.6592"/>
<path d="m212.7188-181.1875c7.5262,2.5978 .4224,26.4927-.3025,10.475 .3738-3.5056 .58-6.9566 .3025-10.475zm0-6.8125c8.2354-1.3803-1.9105,9.6289 0,0z"/>
<path d="m236.1406-174.25c3.0607,5.5366-4.4898,15.1587-2.3931,4.3524 3.189-10.5625-13.9241-9.6573-8.9996,.8886-2.5877,10.5456-3.9042-2.4588-3.2635-6.6011-2.4408-8.6354 6.8597-3.8654 12.3569-4.8854 1.9651,1.3241 2.4287,4.036 2.2993,6.2455z"/>
<path d="m254.5-180.5156c-6.5752,.7384-17.5641,7.9738-7.725,13.3507 6.6429,.2304 8.6713,4.8393 .6199,3.8988-11.9301-2.8862-5.8445-23.6745 5.8781-17.7219 .409,.1575 .818,.3149 1.227,.4724z"/>
<path d="m259.4688-181.1875c7.5261,2.5978 .4224,26.4927-.3025,10.475 .3738-3.5056 .58-6.9566 .3025-10.475zm0-6.8125c8.2354-1.3803-1.9105,9.6289 0,0z"/>
<path d="m279.8594-178.5312c-2.8456-5.042 3.6601-13.2549 2.9462-3.8182-1.9039,6.9311 4.7614,21.6979-6.5118,17.9185-11.9545,4.5455-12.1719-17.5755-1.418-17.3464 2.0839,.161 3.801,1.6273 4.9836,3.2461zm-9.7969,6.1094c.0158,14.9192 19.3046-3.6382 5.5881-6.8049-3.5086-.4089-6.1738,3.6133-5.5881,6.8049z"/>
<path d="m288.3594-170.5938c-3.0587-5.5273 4.4798-15.211 2.3919-4.3836-3.2112,10.5594 13.9178,9.7289 9.0197-.8473 2.5528-10.5923 3.8891,2.4032 3.2446,6.5597 2.4428,8.6148-6.8624,3.9254-12.3498,4.9142-1.9632-1.3249-2.4322-4.0331-2.3064-6.2431z"/>
<path d="m323.5156-174.25c3.0607,5.5366-4.4898,15.1587-2.3931,4.3524 3.189-10.5625-13.9241-9.6573-8.9996,.8886-2.5878,10.5456-3.9042-2.4588-3.2635-6.6011-2.4408-8.6354 6.8597-3.8654 12.3569-4.8854 1.9651,1.3241 2.4287,4.036 2.2993,6.2455z"/>
<path d="m332.125-186.1562c-3.0048,5.8653 11.6869,5.8058 .8007,8.0573-5.2448,5.1501 3.1081,13.186 3.7692,13.8071-10.6203,1.9884-8.5101-14.2386-7.4839-20.4309l1.2035-.9337 1.7106-.4998z"/>
<path d="m351.7344-170.5938c-3.0587-5.5273 4.4798-15.211 2.3919-4.3836-3.2112,10.5594 13.9178,9.7289 9.0197-.8473 2.5528-10.5923 3.8891,2.4032 3.2446,6.5597 2.4428,8.6148-6.8624,3.9254-12.3498,4.9142-1.9632-1.3249-2.4322-4.0331-2.3064-6.2431z"/>
<path d="m375.1875-186.1562c-3.0048,5.8653 11.6869,5.8058 .8007,8.0573-5.2448,5.1501 3.1081,13.186 3.7692,13.8071-10.6203,1.9884-8.5101-14.2386-7.4839-20.4309l1.2035-.9337 1.7106-.4998z"/>
</g>
<g transform="translate(44.47789 464.02373)">
<path d="m101.125-221.1562c-3.6019,2.8448-18.4964-.6879-9.4494,7.0767 3.4853-.0302 12.5564-.7166 5.038,3.0492-13.3552,4.1205-16.0312-21.7315-1.4131-18.4679 3.5694,.937 6.3216,4.6123 5.8246,8.342zm-2.875-.8438c2.9251-10.5702-17.2474-.2278-5.1372,.008 1.7124-.003 3.4248-.005 5.1372-.008z"/>
<path d="m105.7812-236c5.9823,2.5968 1.7364,11.5766 2.875,17.2624 .3662,3.2258 .1903,10.8948-3.0902,4.2896 .4032-7.1744 .1541-14.3474 .2152-21.552z"/>
<path d="m114.6562-229.1875c5.3806,2.2041 2.9805,12.8456 1.8055,17.1824-4.18-2.2953-.6213-12.5919-1.8055-17.1824zm0-6.8125c7.6052-.6562-1.9668,8.428 0,0z"/>
<path d="m126.375-234.1562c-3.4991,5.7001 11.4514,5.8466 1.007,8.1474-3.3739,4.1886-1.2166,13.3416 5.0216,13.0217-10.2228,5.8513-8.6361-10.5455-10.3527-15.7888 2.5966-1.8016 .4971-6.4884 4.3241-5.3803z"/>
<path d="m136.8281-215.6562c8.7623-1.2527-3.8793,13.4892-.096,2.7567 .1493-.9166 .1086-1.8327 .096-2.7567z"/>
<path d="m171.4375-221.1562c-3.6019,2.8448-18.4964-.6879-9.4494,7.0767 3.4853-.0302 12.5564-.7166 5.038,3.0492-13.3552,4.1205-16.0313-21.7316-1.4131-18.4679 3.5694,.937 6.3216,4.6123 5.8246,8.342zm-2.875-.8438c2.9252-10.5702-17.2474-.2278-5.1372,.008 1.7124-.003 3.4248-.005 5.1372-.008z"/>
<path d="m187.6094-226.5312c0-3.1562 0-6.3125 0-9.4688 5.9823,2.5968 1.7364,11.5766 2.875,17.2624 .1615,4.0202 .8169,9.8481-4.3999,5.2214-8.4597,8.5214-15.6176-9.7692-7.6856-14.9572 2.7758-2.3226 7.5133-1.122 9.2105,1.9421zm-9.7969,6.1094c-.087,14.772 19.8494-2.8595 5.6331-6.7824-3.4006-.2391-6.5661,3.4536-5.6331,6.7824z"/>
<path d="m221.5625-221.1562c-3.6019,2.8448-18.4964-.6879-9.4494,7.0767 3.4853-.0302 12.5564-.7166 5.038,3.0492-13.3552,4.1205-16.0313-21.7316-1.4131-18.4679 3.5694,.937 6.3216,4.6123 5.8246,8.342zm-2.875-.8438c2.9252-10.5702-17.2474-.2278-5.1372,.008 1.7124-.003 3.4248-.005 5.1372-.008z"/>
<path d="m226.2188-229.1875c5.3806,2.2041 2.9804,12.8456 1.8055,17.1824-4.18-2.2953-.6213-12.5919-1.8055-17.1824zm0-6.8125c7.6052-.6562-1.9668,8.428 0,0z"/>
<path d="m234.7969-218.5938c0-3.5312 0-7.0625 0-10.5938 6.7531,2.1509-1.2895,17.8754 9.5845,14.6566 4.7636-2.6368-.6196-19.8525 5.287-11.8961-.651,5.0777 1.7304,17.9797-4.3859,13.3942-3.9129,4.5794-11.798,.071-10.4856-5.561z"/>
<path d="m266.5625-228.6719c-.7332,3.8043-15.5296,1.6521-5.8654,5.8737 12.6461,2.2873 1.5688,19.4378-5.968,9.2221 2.0876-1.2584 13.0247,1.369 6.4962-5.3216-6.3658-1.2922-10.4382-9.1003-1.5755-10.6085 2.2819-.4511 4.9015-.5147 6.9127,.8344z"/>
<path d="m285.7188-225.8281c7.6549-10.8233 16.8784,6.6622 10.9456,13.727-4.7384-2.9754 1.3601-19.0377-9.2578-12.6122-5.6258,2.5157 3.2682,13.4934-4.0411,11.8503 2.4314-5.1074-1.024-18.3595-7.9437-11.1048-.4072,2.2758-.1045,16.7204-3.5816,9.0474 1.4254-4.4973-3.0967-18.3288 4.6189-12.3848 2.1559-3.9062 8.1663-2.5717 9.2598,1.4771z"/>
<path d="m310-227.1719c-13.6442,2.3053 3.7586,23.0921 5.0527,6.8622 .147-3.0217-1.5196-6.9061-5.0527-6.8622zm0-2.4375c13.981-.4108 7.2472,25.6528-4.69,16.9832-6.003-4.4497-3.913-17.5138 4.69-16.9832z"/>
<path d="m334.2969-226.5312c0-3.1562 0-6.3125 0-9.4688 5.9823,2.5968 1.7364,11.5766 2.875,17.2624 .1615,4.0202 .817,9.8481-4.3999,5.2214-8.4597,8.5214-15.6176-9.7692-7.6856-14.9572 2.7758-2.3226 7.5133-1.122 9.2104,1.9421zm-9.7969,6.1094c-.087,14.772 19.8494-2.8595 5.6331-6.7824-3.4006-.2391-6.5661,3.4536-5.6331,6.7824z"/>
</g>
<g transform="translate(8.2495 464.02373)">
<path d="m98.75-276.5156c-7.138,.8731-18.0246,9.9208-6.3685,13.8338 14.4825,2.7479-10.1422,6.5249-7.3242-4.2435-.6724-7.3294 6.6646-14.8054 13.6928-9.5903z"/>
<path d="m110.5-275.1719c-14.0388,1.6258 4.6383,22.3047 4.9844,6.75 .2205-2.9043-1.5635-6.9657-4.9844-6.75zm0-2.4375c19.2599,1.2668-2.143,31.8878-7.9,11.5695-1.1394-5.0328 1.8077-12.1783 7.9-11.5695z"/>
<path d="m137.8281-270.25c3.0405,5.1407-3.9203,14.8375-2.4988,4.7573 3.0849-10.7967-12.7831-10.5326-9.2972,.3699-2.4519,13.9479-4.7407-11.6246-1.7928-11.361 5.7783,1.2051 14.2642-4.4366 13.5888,6.2338z"/>
<path d="m154.75-276.6719c-3.905,3.0029-14.5538,4.0603-3.4843,6.8866 9.6349,4.2461-4.7291,17.2104-8.9665,7.8489 9.1743,2.2168 12.8044-5.5173 2.2458-6.6605-6.8532-5.6419 5.5006-12.4245 10.2049-8.0751z"/>
<path d="m175.25-269.1562c-3.4744,1.988-19.0973,1.1813-8.5498,6.6468 7.6804-.7576 8.4703,3.3666 .6568,3.586-15.7414-1.5044-5.7451-27.8266 6.2732-15.852 1.3124,1.5222 1.9877,3.6212 1.6198,5.6192zm-2.875-.8438c.3013-11.2182-15.7649,3.1351-3.0662,.005 1.0215-.002 2.0464-.001 3.0662-.005z"/>
<path d="m192.5-276.5156c-7.138,.8731-18.0246,9.9208-6.3685,13.8338 14.4825,2.7479-10.1422,6.5249-7.3242-4.2435-.7912-7.2506 6.8215-14.841 13.6928-9.5903z"/>
<path d="m200.3125-282.1562c-2.714,4.8795 10.5596,7.2707 .6536,7.4921-5.9749,5.6108 10.4588,20.5605-2.1701,12.4658-1.9594-3.7247-4.3136-20.8713 1.5165-19.9579z"/>
<path d="m225-269.1562c-3.4744,1.988-19.0973,1.1813-8.5498,6.6468 7.6804-.7576 8.4703,3.3666 .6568,3.586-15.7414-1.5044-5.7451-27.8266 6.2732-15.852 1.3124,1.5222 1.9877,3.6212 1.6198,5.6192zm-2.875-.8438c.3013-11.2182-15.7649,3.1351-3.0662,.005 1.0215-.002 2.0464-.001 3.0662-.005z"/>
<path d="m232.5-282.1562c-2.714,4.8795 10.5596,7.2707 .6536,7.4921-5.9749,5.6108 10.4588,20.5605-2.1701,12.4658-1.9594-3.7247-4.3136-20.8713 1.5165-19.9579z"/>
<path d="m241.9219-266.5938c-3.0359-5.1303 3.9096-14.8853 2.4989-4.7888-3.1051,10.791 12.7686,10.604 9.3163-.3245 2.1013-14.7606 5.8079,14.1527 .7036,10.99-5.61,.5149-13.5268,3.2115-12.5187-5.8767z"/>
<path d="m272.6719-274.5c-10.0068-6.2941-7.0232,24.803-10.265,8.3111-2.4842-8.5626 2.6523-12.3174 9.9758-10.7587l.3385,.9357-.0491,1.5119"/>
<path d="m293.8594-268.4844c-14.371,.4773 7.6186,12.7527 1.5692-.1458l-1.5692,.1458zm5.7344-1.1875c6.6911,13.54-21.6601,13.2982-12.828,.6082 2.7929-3.0526 15.1111-2.1161 5.0124-5.3876-12.2683-.5673 4.5669-6.7273 6.5938-.2228 1.0554,1.4117 1.5366,3.2575 1.2217,5.0022z"/>
<path d="m317.1094-274.5312c-2.9482-6.7401 4.6575-12.9242 2.5975-2.5802 .205,6.9724 3.2714,18.2088-6.2084,17.1677-14.8027,4.4399-8.9515-28.4414 3.6109-14.5875zm-9.7969,6.1094c.927,16.4176 19.2443-7.4166 3.6763-6.6706-2.748,.7866-3.803,4.1127-3.6763,6.6706z"/>
<path d="m325.9062-277.1875c8.5097,3.1544-.9599,26.8519-.0195,10.0563 .3091-3.3463-.1185-6.6971 .0195-10.0563zm0-6.8125c7.58-.9249-1.8821,8.3478 0,0z"/>
<path d="m337.5625-262.3125c2.8961,5.3743-3.9598,13.1963-2.6941,3.577-.7527-8.7535-2.6337-20.6039 9.4627-18.7276 11.6813,2.4455 3.4633,27.4242-6.7686,15.1507zm9.7812-6.1094c-.9368-16.4017-19.2183,7.4107-3.6764,6.6711 2.748-.7873 3.7969-4.1148 3.6764-6.6711z"/>
<path d="m355.0938-277.1875c8.5097,3.1544-.9599,26.8519-.0195,10.0563 .3091-3.3463-.1185-6.6971 .0195-10.0563zm0-6.8125c7.58-.9249-1.8821,8.3478 0,0z"/>
<path d="m375.125-276.6719c-3.905,3.0029-14.5538,4.0603-3.4842,6.8866 9.6349,4.2461-4.7291,17.2104-8.9665,7.8489 9.1743,2.2168 12.8044-5.5173 2.2458-6.6605-6.8532-5.6419 5.5006-12.4245 10.2049-8.0751z"/>
<path d="m380.6562-277.1875c8.5097,3.1544-.9599,26.8519-.0195,10.0563 .3091-3.3463-.1185-6.6971 .0195-10.0563zm0-6.8125c7.58-.9249-1.8821,8.3478 0,0z"/>
<path d="m402.125-276.5156c-7.138,.8731-18.0246,9.9208-6.3685,13.8338 14.4825,2.7479-10.1422,6.5249-7.3242-4.2435-.7912-7.2506 6.8215-14.841 13.6928-9.5903z"/>
<path d="m407.0938-277.1875c8.5097,3.1544-.9599,26.8519-.0195,10.0563 .3091-3.3463-.1185-6.6971 .0195-10.0563zm0-6.8125c7.58-.9249-1.8821,8.3478 0,0z"/>
</g>
<g transform="translate(56.98729 464.02373)">
<path d="m97.6719-322.5312c0-3.1562 0-6.3125 0-9.4688 5.8065,1.65 1.8323,10.1818 2.875,15.1827 0,3.0433 0,6.0865 0,9.1298-3.0652-.814-4.6739-3.0627-7.2491,.3449-10.1003,1.2631-11.5492-17.1326-1.8021-18.2615 2.4026-.1936 5.0459,.8251 6.1761,3.0729zm-9.7969,6.1094c-1.8051,11.3243 16.5105,4.0564 9.1609-4.0601-2.4357-5.5499-10.9889-1.1892-9.1609,4.0601z"/>
<path d="m113.25-323.1719c-12.9636,1.6713 2.2079,22.8079 4.9902,7.7733 .4498-3.2546-1.0665-7.764-4.9902-7.7733zm0-2.4375c12.3738-.4205 9.3275,22.5373-2.7219,18.0495-8.2321-2.7514-6.7639-18.691 2.7219-18.0495z"/>
<path d="m126.0312-332c5.8065,1.65 1.8323,10.1818 2.875,15.1827 0,3.0433 0,6.0865 0,9.1298-5.8065-1.65-1.8323-10.1818-2.875-15.1827 0-3.0433 0-6.0865 0-9.1298z"/>
<path d="m141.6875-323.1719c-12.9636,1.6713 2.2079,22.8079 4.9902,7.7733 .4498-3.2547-1.0665-7.764-4.9902-7.7733zm0-2.4375c12.3738-.4205 9.3275,22.5373-2.7219,18.0495-8.2321-2.7514-6.7639-18.691 2.7219-18.0495z"/>
<path d="m164.6094-322.5c-10.993-3.974-4.3137,14.8731-10.022,14.2709-.4888-5.5509-.0988-11.3017-.228-16.9584 3.3673,1.543 4.9965,2.4596 8.1096-.5187 1.9156-.3637 2.9067,1.7146 2.1404,3.2062"/>
<path d="m189-324.6719c-.1806,4.4567-13.5233-.0868-7.5543,5.7684 12.1909-.6572 7.4446,17.775-2.9042,11.019-5.3211-5.5817 10.1227,2.6692 7.236-5.978-3.2865-2.5439-12.8291-3.4472-6.9102-9.8879 2.5037-2.7323 7.3391-3.9448 10.1327-.9216z"/>
<path d="m194.5312-325.1875c5.8238,2.0993 2.0309,12.3626 2.3742,17.4942-4.9867-1.5626-1.1724-12.7122-2.3742-17.4942zm0-6.8125c7.1161-1.7497-1.2591,9.26 0,0z"/>
<path d="m206.25-330.1562c-3.9895,5.6528 11.6927,5.66 1.6596,7.5046-4.8248,4.5184-1.5368,11.5695 3.599,14.2942-11.0018,4.0301-7.2538-11.8386-9.3055-17.3658 2.4891-1.2832-.6555-5.7299 4.0468-4.433z"/>
<path d="m234.1094-316.4844c-9.6263-3.203-3.0622,13.8735 2.0063,4.2529 1.4472-1.7624 1.3407-5.8905-2.0063-4.2529zm5.7344-1.1875c0,3.3281 0,6.6562 0,9.9844-4.4638-4.522-10.4129,5.3658-13.6483-2.662-2.6056-6.4875 4.1752-9.9147 9.0401-8.6055 4.1491-6.9527-14.2303-1.2726-6.2101-6.5317 4.5377-1.3644 12.6924,2.0209 10.8183,7.8149z"/>
<path d="m259.4688-321.8281c6.5374-10.1137 16.062,4.0857 11.9749,11.4294-3.263,6.2884-3.9281-4.2687-2.5677-6.8919-2.5314-10.4737-11.7978-2.8212-8.8259,4.9265 .5746,6.9195-4.5873,3.9848-2.5799-1.0475 2.1402-6.3227-6.6548-14.3898-8.6806-4.8765 .2301,2.785-.1154,14.7553-3.2583,7.6498 1.5934-4.0623-2.9684-18.2793 4.0457-12.6709 2.871-3.0347 8.244-3.4198 9.8918,1.481z"/>
<path d="m291.9375-317.1562c-3.1052,3.1877-17.3569-1.0035-10.5547,6.6143 3.4566,.9614 14.5042-.3371 5.5632,3.5453-10.6543,2.7411-16.1475-16.2344-4.743-18.4846 4.8854-1.2181 10.6734,3.0516 9.7344,8.3251zm-2.875-.8438c2.8491-10.475-17.9786-.4118-4.7307,.008 1.5769-.003 3.1538-.005 4.7307-.008z"/>
<path d="m299.4375-330.1562c-3.9895,5.6528 11.6927,5.66 1.6596,7.5046-4.8248,4.5184-1.5368,11.5695 3.599,14.2942-11.0018,4.0301-7.2538-11.8386-9.3055-17.3658 2.4416-1.2584-.6198-5.7376 4.0468-4.433z"/>
<path d="m309.8906-311.6562c8.9439-1.437-3.9372,13.9361-.0791,2.8435 .1236-.9422 .1319-1.896 .0791-2.8435z"/>
</g>
<g transform="translate(68.45927 464.02373)">
<path d="m86.2812-379.0156c6.0349,.4746 2.2544,8.9908 3.1562,13.4956 .2875,2.2412-.5666,5.624 .4097,7.1763 3.6499,0 7.2998,0 10.9497,0-1.4186,5.1261-10.3324,2.2117-14.5219,2.1021 .0049-7.505 .0093-15.1985 .0063-22.774z"/>
<path d="m110.1875-371.1719c-10.9018,.3997-1.7977,20.9284 4.3502,10.2847 1.5655-3.7004 .6515-10.0744-4.3502-10.2847zm0-2.4375c10.2916-.3797 10.9741,17.7646 .7702,18.4203-9.8361,1.2374-12.4019-15.9525-3.0056-18.2009 .7277-.2339 1.4876-.1726 2.2353-.2194z"/>
<path d="m133.1094-370.5c-9.9302-2.9707-5.6705,10.9832-8.944,14.6227-2.6831-3.3484-.8613-8.6407-1.306-12.8918-.7514-4.179 .7661-5.368 4.5121-2.8198 1.4638-2.5948 7.1802-3.2651 5.7378,1.0889"/>
<path d="m150.4375-365.1562c-2.85,4.0203-17.0343-2.2148-11.273,6.414 3.1105,1.3099 15.0132-.5777 6.4229,3.6205-10.2294,2.4856-16.2602-13.1434-6.5953-17.7927 5.2068-2.5833 12.4098,1.6367 11.4454,7.7582zm-2.875-.8438c3.1987-8.6506-15.8252-3.4328-6.91,.0105 2.3033-.003 4.6067-.007 6.91-.0104"/>
<path d="m168.7188-369.8281c3.6529-8.3608 15.7398-.4398 11.8125,6.8505-.5953,2.1615 1.3278,7.2116-1.2312,7.1207-4.5963-3.5482 1.9751-18.7036-8.3327-14.2771-4.3553,2.8465 1.3103,15.0736-4.4039,13.3633 .5256-5.2413-.001-19.1183-8.0633-12.0092-1.5517,2.9441 1.2775,15.957-3.5157,11.0468 0-5.1515 0-10.3029 0-15.4544 2.9683-.4358 3.9585,4.085 6.4276-.1666 2.828-.8987 6.5664,.409 7.3067,3.5259z"/>
<path d="m196.4062-373.1875c5.6976,.7979 1.9538,9.0254 2.875,13.4956 1.6771,5.0985-4.3413,4.863-2.9918-.5584 .2858-4.2901 .036-8.6261 .1168-12.9372zm0-6.8125c7.9594-.5283-2.2383,8.0201 0,0z"/>
<path d="m208.0625-358.3125c0,3.0938 0,6.1875 0,9.2812-5.7169-.7797-1.9703-9.0236-2.8906-13.4956 0-3.5536 0-7.1071 0-10.6607 2.7669-.9018 3.8378,4.2855 5.9875,.005 10.5086-3.2457 13.9688,16.3593 3.4059,17.8608-2.4932,.4141-5.3447-.6242-6.5028-2.9905zm9.7812-6.1094c1.9286-10.3356-15.1113-5.5978-9.6402,2.9021 1.4672,6.6063 11.5961,3.3233 9.6402-2.9021z"/>
<path d="m236.75-372.6719c.1286,5.2655-12.3128-1.5168-8.4607,5.3726 8.5141-.8143 12.9654,12.6007 2.3641,12.5863-3.9975,.651-8.9681-5.8261-1.9458-2.575 5.9936,1.208 7.2554-7.7085 .1096-5.9481-9.6695-4.9083 .3676-14.5897 7.9327-9.4359z"/>
<path d="m241.9844-362.5938c0-3.5312 0-7.0625 0-10.5938 7.3313,1.6422-1.6674,18.3479 9.2538,14.9051 5.7156-2.0802-.7815-16.3397 5.2736-13.5081-.6321,4.95 1.9484,12.8611-1.3276,16.1281-3.8482-3.4695-11.1522,4.4897-12.9091-3.8049l-.3226-1.5468 .0318-1.5797z"/>
<path d="m276.2188-369.8281c3.6529-8.3608 15.7398-.4398 11.8125,6.8505-.5953,2.1615 1.3278,7.2116-1.2312,7.1207-4.5963-3.5482 1.9751-18.7036-8.3327-14.2771-4.3553,2.8465 1.3103,15.0736-4.4039,13.3633 .5256-5.2413-.001-19.1183-8.0633-12.0092-1.5517,2.9441 1.2775,15.957-3.5157,11.0468 0-5.1515 0-10.3029 0-15.4544 2.9683-.4358 3.9585,4.085 6.4276-.1666 2.8281-.8987 6.5664,.409 7.3068,3.5259z"/>
</g>
</g>
</svg>
