<svg xmlns="http://www.w3.org/2000/svg" xmlns:xlink="http://www.w3.org/1999/xlink" viewBox="0 0 512 512"><defs><linearGradient gradientTransform="matrix(8.67079 5.80486-4.95861 7.40675 201.72-65.33)" xlink:href="#E" id="7" y1="31.06" x1="7.185" y2="50.775" gradientUnits="userSpaceOnUse" x2="25.15"/><linearGradient id="6" y1="330.05" x1="272.82" y2="342.6" x2="279.69" gradientUnits="userSpaceOnUse"><stop style="stop-color:#df2a2a"/><stop offset="1" style="stop-color:#df2a2a;stop-opacity:0"/></linearGradient><linearGradient gradientTransform="matrix(27.1486 18.1753-17.33834 25.89851-7580.36-5451.09)" xlink:href="#E" id="9" y1="15.507" x1="296.49" y2="9.877" gradientUnits="userSpaceOnUse" x2="296.53"/><linearGradient id="B" y1="4.759" x1="292.97" y2="10.711" gradientUnits="userSpaceOnUse" x2="296.94"><stop style="stop-color:#eeeeec"/><stop offset="1" style="stop-color:#fff"/></linearGradient><linearGradient id="C" y1="23.843" x1="22.23" y2="22.861" x2="24.19" gradientUnits="userSpaceOnUse"><stop style="stop-color:#babdb6"/><stop offset="1" style="stop-color:#eeeeec"/></linearGradient><linearGradient xlink:href="#E" id="A" y1="12.188" x1="294.6" y2="13.34" x2="297.19" gradientUnits="userSpaceOnUse"/><linearGradient id="8" y1="94.4" x1="340.32" y2="245.05" x2="283.1" gradientUnits="userSpaceOnUse"><stop style="stop-color:#e2e2e2"/><stop offset="1" style="stop-color:#d8d8d8"/></linearGradient><linearGradient xlink:href="#E" id="0" y1="256" x1="255.13" y2="245.96" gradientUnits="userSpaceOnUse" x2="302.44"/><linearGradient gradientTransform="matrix(8.6708 5.80486-4.95861 7.40675 200.97-68.02)" xlink:href="#E" id="5" y1="40.07" x1="13.825" y2="2.326" gradientUnits="userSpaceOnUse" x2="7.67"/><linearGradient id="2" y1="330.05" x1="272.82" y2="342.6" x2="279.69" gradientUnits="userSpaceOnUse"><stop style="stop-color:#9a0c00"/><stop offset="1" style="stop-color:#9a0c00;stop-opacity:0"/></linearGradient><linearGradient gradientTransform="matrix(30.2497 20.25132-20.66687 30.87038-8492.05-6017.1)" xlink:href="#B" id="1" y1="4.759" x1="292.97" y2="10.711" gradientUnits="userSpaceOnUse" x2="296.94"/><linearGradient gradientTransform="matrix(-30.80441-20.6227-20.66687 30.87038 9567.79 6073.46)" xlink:href="#B" id="3" y1="4.759" x1="292.97" y2="10.711" gradientUnits="userSpaceOnUse" x2="296.94"/><linearGradient gradientTransform="matrix(8.6708 5.80486-4.95861 7.40675 182.72-80.23)" xlink:href="#F" id="4" y1="44.541" x1="39.62" y2="-11.889" gradientUnits="userSpaceOnUse" x2="-3.533"/><radialGradient cx="165.06" cy="23.333" gradientTransform="matrix(1 0 0 1.0103 0-.16)" id="E" r="7.285" gradientUnits="userSpaceOnUse"><stop style="stop-color:#ef3535"/><stop style="stop-color:#c91a1a"/><stop offset="1" style="stop-color:#ff4c4c"/></radialGradient><radialGradient cx="34.376" cy="37.5" gradientTransform="matrix(7.46274 4.9961-5.29777 7.91335 232.68-72.33)" xlink:href="#E" id="D" r="8.389" gradientUnits="userSpaceOnUse"/><radialGradient cx="165.06" cy="23.333" gradientTransform="matrix(1 0 0 1.0103 0-.16)" r="7.285" id="F" gradientUnits="userSpaceOnUse"><stop style="stop-color:#ef3535"/><stop offset="1" style="stop-color:#a40000;stop-opacity:0"/></radialGradient></defs><path d="m468.1 127.7c1.239 1.57 2.391 3.164 3.57 4.741-6.115 19.65 5.323 51.32-14.178 61.909-60.43 28.501-121.08 57.77-181.54 86.79-6.299-2.63-12.313-5.791-18.03-9.424-12.04-7.626-23.02-17.514-31.561-29.06 80.42-38.581 160.94-77.29 241.74-114.95z" style="fill:url(#3);stroke:#282828;stroke-linecap:round;stroke-linejoin:round;stroke-width:8.981"/><path d="m455.84 147.86c-3.261 1.14-7.707 4.253-10.896 5.201-63.938 30.18-128.33 59.925-192.24 89.82-1.716 1.586-11.132 3.488-4.801 6.977 7.307 7.03 15.202 13.966 24.938 17.312 59.11-27.617 117.93-55.953 176.99-83.63 4.491-1.179 7.676-4.861 6.923-9.544.125-8.742.405-17.828.25-26.364l-.88.175-.287.057" style="fill:url(#8)"/><path d="m294.73 13.673l1.014-1.713 1.298.34-.645 1.085-1.267 1.334z" transform="matrix(27.1486 18.1753-17.33834 25.89851-7580.36-5451.09)" style="fill:url(#A);stroke:#9a0c00;stroke-linecap:round;stroke-linejoin:round;stroke-width:.281"/><path d="m238.74 248.04c-11.554-2.475-19.228 9.123-29.17 12.502-6.131 3.632-13.769 5.331-19.44 9.665-2.647 3.798-3.453 12.389 3.168 11.915 16.06-1.635 31.821-6.134 46.32-13.59 4.182-2.496 10.406-2.697 13.496-6.142-1.167-6.951-8.627-11.536-14.372-14.35" style="fill:url(#9)"/><path d="m309.79 21.708c-1.896-.528-3.781-.968-5.659-1.438-15.75 13.2-48.982 14.963-51.5 36.925-3.84 66.39-8.303 133.27-12.604 199.89 4.731 4.755 9.844 9.04 15.279 12.873 11.425 8.08 24.532 14.321 38.26 17.681 5.708-88.6 11.495-177.34 16.22-265.93z" style="fill:url(#1);stroke:#282828;stroke-linecap:round;stroke-linejoin:round;stroke-width:8.981"/><path d="m294.88 40.1c-8.488 6.494-20.591 7.354-28.566 14.987-4.27 66.25-8.04 132.62-12.296 198.8 7.653 7.915 17.657 12.828 27.746 16.887 2.291-6.469 1.14-13.62 2.453-20.292 3.763-68.49 7.232-137.1 11.375-205.51.648-1.205.802-4.696-.713-4.868" style="fill:url(#8)"/><path d="m24.1904 23.8434a.9825 .9825 0 1 1 -1.9651 0 .9825 .9825 0 1 1 1.9651 0" transform="matrix(7.31269 4.89564-4.9961 7.46274 222.64-52.31)" style="fill:url(#C)"/><path d="m201.96 259.29c15.516 29.05-6.95 66.816-50.22 84.34-43.28 17.541-90.94 8.234-106.5-20.765-15.527-29.06 6.938-66.797 50.2-84.32 43.25-17.53 90.93-8.215 106.52 20.746zm-27.544 11.195c-6.905-12.876-36.34-18.486-65.41-6.679-29.1 11.787-43.15 35.02-36.24 47.875 6.872 12.903 36.35 18.493 65.42 6.686 29.12-11.78 43.14-35.01 36.23-47.882z" style="fill:url(#7);stroke:#a40000;stroke-width:8.981"/><path d="m175.3 244.64c-16.301-6.728-34.387-7.307-50.06-6.698-9.08 1.43-16.524 4.607-25.558 7.252-24.5 9.02-45.29 28.511-48.32 54.862-2.637 13.939 9.492 28.482 24.21 34.36 12.08 5.4 25.811 4.731 37.439 5.623 10.823-1.3 19.723-4.374 30.356-7.683 25.865-9.426 49.556-28.952 52.21-57.04.305-12.139-7.949-24.2-20.277-30.67m-1.281 9.533c13.798 11.943 14.896 31.942 4.708 43.38-11.271 17.17-30.756 27.44-51.47 32.918-17.581 3.382-38.62 3.63-55.44-8.625-10.126-6.81-13.596-18.962-11.219-28.699 8.05-21.976 27.759-38.32 51.33-44.938 17.747-4.582 38.27-5.584 56.999 3.124 1.686.964 3.428 1.836 5.088 2.843" style="fill:url(#5)"/><path d="m296.23 322.4c-32.769-3.277-59.13 31.885-58.842 78.56.272 46.697 27.04 87.22 59.78 90.56 32.78 3.284 59.11-31.866 58.83-78.54-.274-46.671-27.05-87.2-59.767-90.58zm.144 29.732c14.536 1.478 30.938 26.553 31.1 57.934.192 31.4-15.941 53.24-30.455 51.75-14.548-1.437-30.947-26.56-31.11-57.94-.203-31.407 15.929-53.22 30.465-51.743z" style="fill:url(#D);stroke:#a40000;stroke-width:8.981"/><path d="m292.84 346.31c0 0 3.578-64.69 3.578-64.69 0 0-41.26-14.307-41.26-14.307 0 0-2.219 40.995-2.219 40.995 0 0 10.117 59.03 10.117 59.03z" style="fill:url(#6);stroke:url(#2);stroke-linecap:round;stroke-linejoin:round;stroke-width:8.984"/><path d="m276.81 284c-4.178-.648-8.595-3.577-12.526-2.982.088 15.205-.458 31.19.229 45.681 1.219 8.971 2.623 17.97 5 26.719 12.439-6.71 16.303-22.17 14.858-35.31-.002-9.724 4.364-19.914-.801-28.568-1.678-2.403-3.967-4.578-6.761-5.54" style="fill:url(#0)"/><path d="m309.96 333.34c-12.494-5.881-27.03-6.361-36.11 1.631-20.409 12.225-27.15 37.09-26.555 60.33 1.503 15.544-.16 31.558 8.306 46.35 6.361 14.24 15.489 30.801 32.439 35.776 13.459 4.326 26.09-.697 34.849-8.788 16.05-14.219 21.15-36.37 20.418-58.05-.351-10.11-.539-20.714-2.308-30.668-4.401-12.71-11.435-25.504-19.361-37.09-3.434-3.492-7.16-7.309-11.674-9.483m-2.792 11.204c13.448 8.281 20.444 21.678 23.822 35.07 2.862 12.39 6.068 23.572 4.887 35.682-1.057 18.968-9.527 36.635-23.525 48.702-10.561 7.245-26.466 3.595-36.37-6.878-13.647-11.609-15.662-28.544-19.75-43.573-4.086-18.205-.834-38.15 8.655-53.46 5.19-7.524 10.686-16.389 20.366-19.15 5.79-1.994 15.566-.974 21.913 3.609" style="fill:url(#4)"/></svg>
