<svg xmlns="http://www.w3.org/2000/svg" viewBox="0 0 512 512" xmlns:xlink="http://www.w3.org/1999/xlink">
<defs/>
<g transform="translate(0 464)">
<path d="m284.178-53.6234-2.6492,8.911-134.3872,0 3.3717-8.911c13.4869-.3211 22.3979-1.445 26.7329-3.3717 7.0645-2.7295 12.2827-6.5026 15.6544-11.3193 5.2984-7.5462 10.7574-21.0331 16.3769-40.4606l56.8376-197.0048c4.8166-16.3766 7.225-28.7396 7.2251-37.0889-.0001-4.1742-1.0437-7.7065-3.1309-10.5968-2.0874-2.8897-5.2985-5.0573-9.6335-6.5026-4.1746-1.6053-12.4433-2.4081-24.8062-2.4084l2.8901-8.911h126.1987l-2.6492,8.911c-10.2759-.1602-17.9024,.9637-22.8795,3.3717-7.2253,3.2115-12.7645,7.7874-16.6178,13.7277-3.693,5.9409-8.5097,19.1067-14.4502,39.4973l-56.5967,197.0048c-5.1379,18.1431-7.7069,29.7033-7.7068,34.6806-.0001,4.014 .9633,7.466 2.8901,10.356 2.0872,2.7295 5.2983,4.897 9.6335,6.5026 4.4955,1.445 13.7276,2.6492 27.6963,3.6126"/>
</g>
</svg>
