<svg xmlns="http://www.w3.org/2000/svg" xmlns:xlink="http://www.w3.org/1999/xlink" viewBox="0 0 512 512"><defs><linearGradient xlink:href="#0" id="7" y1="-47.553" x1="233.51" y2="-290.22" x2="206.85" gradientUnits="userSpaceOnUse"/><linearGradient gradientTransform="matrix(2.77439 0 0 1.96971-1892.18-872.89)" id="5" y1="366.65" y2="609.5" gradientUnits="userSpaceOnUse" x2="0"><stop style="stop-opacity:0"/><stop offset=".5"/><stop offset="1" style="stop-opacity:0"/></linearGradient><linearGradient gradientTransform="matrix(15.60208 0 .73684 7.29246-3.818-448.89)" id="4" y1="18.726" x1="5.266" y2="52.626" gradientUnits="userSpaceOnUse" x2="8.212"><stop style="stop-color:#fff;stop-opacity:.701"/><stop offset="1" style="stop-color:#fff;stop-opacity:0"/></linearGradient><linearGradient gradientTransform="matrix(10.66666 0 0 13.21392-3.818-532.95)" id="6" y1="10.625" x1="25.875" y2="30.875" x2="25.25" gradientUnits="userSpaceOnUse"><stop style="stop-color:#fafafa"/><stop offset=".5" style="stop-color:#a8a8a8"/><stop offset="1" style="stop-color:#cdcdcd"/></linearGradient><linearGradient id="0"><stop/><stop offset="1" style="stop-opacity:0"/></linearGradient><linearGradient gradientTransform="matrix(16.37651 0 0 6.94761 32.997-422.77)" id="3" y1="27.06" x1="14.899" y2="41.837" gradientUnits="userSpaceOnUse" x2="22.715"><stop style="stop-color:#fff;stop-opacity:.134"/><stop offset="1" style="stop-color:#fff;stop-opacity:.052"/></linearGradient><linearGradient gradientTransform="matrix(15.1631 0 0 7.50361-3.818-448.89)" id="1" y1="28.946" x1="19.12" y2="51.913" gradientUnits="userSpaceOnUse" x2="19.427"><stop style="stop-color:#fff"/><stop offset="1" style="stop-color:#fff;stop-opacity:0"/></linearGradient><linearGradient gradientTransform="matrix(10.66666 0 0 10.90259 551.46-463)" id="2" y1="36.988" x1="22.18" y2="32.05" gradientUnits="userSpaceOnUse" x2="22.07"><stop style="stop-color:#6194cb"/><stop offset="1" style="stop-color:#729fcf"/></linearGradient><radialGradient cx="8.824" cy="3.756" gradientTransform="matrix(10.32824 0 0 11.16464 469.4-630.3)" id="A" r="37.752" gradientUnits="userSpaceOnUse"><stop style="stop-color:#a3a3a3"/><stop offset="1" style="stop-color:#4c4c4c"/></radialGradient><radialGradient cx="605.71" cy="486.65" gradientTransform="matrix(2.77439 0 0 1.96971-1891.63-872.89)" xlink:href="#0" id="9" r="117.14" gradientUnits="userSpaceOnUse"/><radialGradient cx="26.11" cy="38.2" gradientTransform="matrix(10.83343 0 1.09979 10.67212-3.818-449.78)" id="8" r="32.26" gradientUnits="userSpaceOnUse"><stop style="stop-color:#a0a0a0"/><stop offset="1" style="stop-color:#a8a8a8"/></radialGradient><radialGradient cx="605.71" cy="486.65" gradientTransform="matrix(-2.77439 0 0 1.96971 112.76-872.89)" xlink:href="#0" id="B" r="117.14" gradientUnits="userSpaceOnUse"/></defs><g style="color:#000"><g transform="translate(0 464)" style="stroke-linecap:round;stroke-linejoin:round;stroke-width:10.667"><path d="m45.46-36.609c.446 4.485 5.305 8.97 9.719 8.97h332.12c4.413 0 8.381-4.485 7.935-8.97l-28.764-289.27c-.446-4.485-5.305-8.97-9.719-8.97h-135.72c-6.299 0-12.897-4.048-14.964-10.244l-11.765-35.26c-1.805-5.411-5.836-7.849-14.02-7.849h-159.33c-4.413 0-8.381 4.485-7.935 8.97l32.443 342.63z" style="fill:url(#8);stroke:#5a5a5a"/><g style="fill:#729fcf;stroke:#fff"><path d="m31.794-261.86h332.26" style="opacity:.114"/><path d="m53.04-48.53h319.87" style="opacity:.114"/><path d="m53.04-69.863h319.87" style="opacity:.114"/></g></g><g transform="matrix(.23095 0 0 .20308 448.61 409.07)"><path d="m-1559.25-150.7h1339.63v478.36h-1339.63z" style="fill:url(#5);opacity:.402"/><path d="m-219.62-150.68c0 0 0 478.33 0 478.33 142.87.9 345.4-107.17 345.4-239.2 0-132.03-159.44-239.13-345.4-239.13" style="fill:url(#9);opacity:.402"/><path d="m-1559.25-150.68c0 0 0 478.33 0 478.33-142.87.9-345.4-107.17-345.4-239.2 0-132.03 159.44-239.13 345.4-239.13" style="fill:url(#B);opacity:.402"/></g><g transform="translate(0 464)"><path d="m62.01-39.09c.334 3.31-1.649 5.517-5.071 4.413-3.422-1.103-5.851-3.31-6.186-6.62l-32.32-334.58c-.334-3.31 1.67-5.309 4.98-5.309l157.33-.975c5.667-.035 7.887.569 9.385 5.517 0 0 11.577 33.2 13.293 39.446l-16.593-31.12c-2.829-5.304-6.387-4.413-10.376-4.413h-140.05c-3.31 0-5.294 2.207-4.959 5.517l31.774 329.23-1.215-1.103" style="fill:url(#4);display:block"/><g style="fill:#729fcf;stroke:#fff;stroke-linecap:round;stroke-linejoin:round;stroke-width:10.667"><path d="m20.771-368.53h157.69" style="opacity:.114"/><path d="m25.593-325.86h327.88" style="opacity:.114"/></g></g></g><g style="stroke:#fff;display:block"><path d="m41.786 9.04c.01-.475.015-.725-.423-.724l-12.556.009c-.3 0-.325-.143 0 0 .325.143 1.247.658 2.183.701 0 0 10.796.017 10.796.015" transform="matrix(11.0338 0 1.11488 11.0338-110.83 43.19)" id="C" style="fill:#fff;fill-opacity:.58;stroke:none"/><g transform="translate(0 464)" style="fill:#729fcf;color:#000;stroke-linecap:round;stroke-linejoin:round;stroke-width:10.667"><path d="m29.919-283.2h328.86" style="opacity:.114"/><path d="m51.22-91.2h319.87" style="opacity:.114"/><path d="m48.08-112.53h321.16" style="opacity:.114"/><path d="m45.607-133.86h321.8" style="opacity:.114"/><path d="m43.787-155.2h321.8" style="opacity:.114"/><path d="m41.576-176.53h322.19" style="opacity:.114"/><path d="m39.1-197.86h322.83" style="opacity:.114"/><path d="m37.28-219.2h322.83" style="opacity:.114"/></g><use xlink:href="#C"/></g><g transform="translate(0 464)"><g style="display:block;color:#000"><g style="fill:#729fcf;stroke:#fff;stroke-linecap:round;stroke-linejoin:round;stroke-width:10.667"><path d="m27.8-304.53h330.95" style="opacity:.114"/><path d="m35.13-240.53h323.15" style="opacity:.114"/><path d="m23.11-347.2h163" style="opacity:.114"/></g><path d="m362.85-298.22l28 262.67-330.67 1.333c0 0-20-264-20-264 0 0 324 0 322.67 0" style="fill:url(#7);opacity:.392"/><g style="stroke-width:10.667"><path d="m458.85-422.28c5.333 180.04-96.8 197.64-64.13 309.34 0 0-335.87 9.45-335.87 9.45-20-137.09 89.33-226.29 57.33-317.13l342.67-1.652z" style="fill:url(#6);stroke:url(#A)"/><path d="m160.85-378.89h251.33" style="fill:none;stroke:#a1a1a1"/><path d="m57.82-32.18c1.103 2.256 3.31 4.511 6.62 4.511h355.29c2.207 0 5.559-1.347 7.554-2.82 5.658-4.176 6.985-6.532 9.523-10.384 26.11-39.632 61.921-205.62 61.921-205.62 1.103-2.256-1.103-4.511-4.413-4.511h-372.52c-3.31 0-17.664 171.81-51.872 205.73l-13.208 13.1h1.103z" style="fill:url(#2);stroke:#3465a4;stroke-linejoin:round"/><path d="m159.98-357.55h210.4" style="fill:none;stroke:#a1a1a1"/></g></g><path d="m136.28-234.07c-8.243 53.23-16.01 96.1-28.971 144.15 25.456-7.543 75.905-34.18 182.57-34.18 106.67 0 178.38-98.65 188.28-110.44l-341.89.471" style="fill:url(#3);fill-rule:evenodd"/><g style="display:block;color:#000"><g style="fill:none;stroke-width:10.667"><path d="m157.71-336.22h259.36" style="stroke:#a1a1a1"/><path d="m484.93-238.89h-353.69c0 0-22.909 170.88-50.37 194.57 86.62 0 336.76-.519 336.97-.519 18.684 0 52.35-134.79 67.09-194.05z" style="opacity:.523;stroke:url(#1);stroke-linecap:round"/><g style="stroke:#a1a1a1"><path d="m149.77-314.89h254.44"/><path d="m141.56-293.55h249.03"/><path d="m129.74-272.22h198.89"/></g></g><path d="m64.18-110.22c-13.241-130.54 76.67-203.33 60-306.67h329.33l-320 6.667c13.333 102-66.09 156.23-69.33 300" style="fill:#fff"/></g></g></svg>
