<svg xmlns="http://www.w3.org/2000/svg" xmlns:xlink="http://www.w3.org/1999/xlink" viewBox="0 0 512 512"><defs><linearGradient id="9"><stop style="stop-color:#fff"/><stop offset="1" style="stop-color:#fff;stop-opacity:0"/></linearGradient><linearGradient xlink:href="#9" id="7" y1="130.22" x1="272.62" y2="-1.784" x2="272.71" gradientUnits="userSpaceOnUse"/><linearGradient gradientTransform="matrix(10.72236 0 0 9.42856-8.03 9.381)" xlink:href="#D" id="A" y1="3.818" x1="25.405" y2="9.323" gradientUnits="userSpaceOnUse" x2="25.464"/><linearGradient gradientTransform="matrix(2.77439 0 0 1.96971-1892.18-872.89)" id="C" y1="366.65" y2="609.5" gradientUnits="userSpaceOnUse" x2="0"><stop style="stop-opacity:0"/><stop offset=".5"/><stop offset="1" style="stop-opacity:0"/></linearGradient><linearGradient id="D"><stop style="stop-color:#97978a"/><stop offset=".5" style="stop-color:#c2c2b9"/><stop offset="1" style="stop-color:#7d7d6f"/></linearGradient><linearGradient id="B"><stop/><stop offset="1" style="stop-opacity:0"/></linearGradient><linearGradient xlink:href="#9" id="8" y1="394.2" x1="354.89" y2="406.46" x2="363.15" gradientUnits="userSpaceOnUse"/><linearGradient gradientTransform="matrix(11.22807 0 0 10.66666-20.421.381)" xlink:href="#D" id="0" y1="3.818" x1="25.405" y2="9.323" x2="25.464" gradientUnits="userSpaceOnUse"/><linearGradient id="1" y1="111.86" x1="63.808" y2="404.43" x2="359.81" gradientUnits="userSpaceOnUse"><stop style="stop-color:#c68827"/><stop offset="1" style="stop-color:#89601f"/></linearGradient><linearGradient xlink:href="#9" id="6" y1="285.15" x1="276.81" y2="448.46" x2="327.32" gradientUnits="userSpaceOnUse"/><linearGradient gradientTransform="matrix(11.36744 0 0 10.53434-18.02 1.18)" id="2" y1="18.992" x1="22.308" y2="39.498" x2="35.785" gradientUnits="userSpaceOnUse"><stop style="stop-color:#f0f0ef"/><stop offset=".599" style="stop-color:#e8e8e8"/><stop offset=".828" style="stop-color:#fff"/><stop offset="1" style="stop-color:#d8d8d3"/></linearGradient><linearGradient xlink:href="#B" id="3" y1="418.04" x1="391.33" y2="449.04" x2="415.33" gradientUnits="userSpaceOnUse"/><linearGradient id="5" y1="431.93" x1="382.63" y2="403.27" x2="357.76" gradientUnits="userSpaceOnUse"><stop style="stop-color:#7c7c7c"/><stop offset="1" style="stop-color:#b8b8b8"/></linearGradient><linearGradient gradientTransform="matrix(5.74659 0 0 5.45926 113.88-5.834)" xlink:href="#D" id="4" y1="3.818" y2="6.481" gradientUnits="userSpaceOnUse" x2="0"/><radialGradient cx="605.71" cy="486.65" gradientTransform="matrix(2.77439 0 0 1.96971-1891.63-872.89)" xlink:href="#B" id="E" r="117.14" gradientUnits="userSpaceOnUse"/><radialGradient cx="605.71" cy="486.65" gradientTransform="matrix(-2.77439 0 0 1.96971 112.76-872.89)" xlink:href="#B" id="F" r="117.14" gradientUnits="userSpaceOnUse"/></defs><g transform="matrix(.24802 0 0 .15848 476.6 459.69)" style="color:#000"><path d="m-1559.25-150.7h1339.63v478.36h-1339.63z" style="fill:url(#C);opacity:.402"/><path d="m-219.62-150.68c0 0 0 478.33 0 478.33 142.87.9 345.4-107.17 345.4-239.2 0-132.03-159.44-239.13-345.4-239.13" style="fill:url(#E);opacity:.402"/><path d="m-1559.25-150.68c0 0 0 478.33 0 478.33-142.87.9-345.4-107.17-345.4-239.2 0-132.03 159.44-239.13 345.4-239.13" style="fill:url(#F);opacity:.402"/></g><g style="fill-rule:evenodd"><g style="stroke-width:10.667"><path d="m61.09 48.38h386.77a14.8047 14.8046 0 0 1 14.805 14.8047v408.21a14.8047 14.8046 0 0 1 -14.805 14.805h-386.77a14.8047 14.8046 0 0 1 -14.8046 -14.805v-408.21a14.8047 14.8046 0 0 1 14.8046 -14.8047" style="fill:url(#1);stroke:#714c16"/><path d="m95.72 70.03h318.06a6.0427 6.0427 0 0 1 6.042 6.0427v371.67a6.0427 6.0427 0 0 1 -6.042 6.042h-318.06a6.0427 6.0427 0 0 1 -6.0428 -6.042v-371.67a6.0427 6.0427 0 0 1 6.0428 -6.0427" style="fill:url(#2);stroke:#888a85"/></g><path d="m201.16.381h107.01a10.4947 10.4947 0 0 1 10.495 10.4946v21.677a10.4947 10.4947 0 0 1 -10.495 10.4947h-107.01a10.4947 10.4947 0 0 1 -10.495 -10.4947v-21.677a10.4947 10.4947 0 0 1 10.495 -10.4946" style="fill:#5c5c5c"/></g><g style="fill:none;stroke-width:10.667"><path d="m100.18 80.02h309.48v363.1h-309.48z" style="stroke:url(#6)"/><path d="m61.794 58.31h385.37a5.1072 5.1072 0 0 1 5.107 5.1072v406.78a5.1072 5.1072 0 0 1 -5.107 5.107h-385.37a5.1072 5.1072 0 0 1 -5.1072 -5.107v-406.78a5.1072 5.1072 0 0 1 5.1072 -5.1072" style="stroke:#c68827"/></g><g style="color:#000;fill-rule:evenodd"><g style="stroke-width:10.667"><path d="m171.25 48.09h172.5a14.8047 14.8046 0 0 1 14.805 14.8046v45.06a14.8047 14.8046 0 0 1 -14.805 14.805h-172.5a14.8047 14.8046 0 0 1 -14.805 -14.805v-45.06a14.8047 14.8046 0 0 1 14.805 -14.8046" style="opacity:.108;stroke:#fff"/><path d="m168.42 37.714h172.5a14.8047 14.8046 0 0 1 14.805 14.8046v45.06a14.8047 14.8046 0 0 1 -14.805 14.8046h-172.5a14.8047 14.8046 0 0 1 -14.805 -14.8046v-45.06a14.8047 14.8046 0 0 1 14.805 -14.8046" style="fill:url(#0);stroke:#5c5c5c"/></g><path d="m206.42 13.274h96.5a3.4713 3.4713 0 0 1 3.471 3.4714v31.27a3.4713 3.4713 0 0 1 -3.471 3.4714h-96.5a3.4713 3.4713 0 0 1 -3.471 -3.4714v-31.27a3.4713 3.4713 0 0 1 3.471 -3.4714" style="fill:url(#4)"/><path d="m168.97 42.38h171.39a10.8046 10.8046 0 0 1 10.804 10.8047v44.39a10.8046 10.8046 0 0 1 -10.804 10.8047h-171.39a10.8046 10.8046 0 0 1 -10.804 -10.8047v-44.39a10.8046 10.8046 0 0 1 10.804 -10.8047" style="fill:url(#A)"/><path d="m414.86 387.05l.471 62-90.67-.471 90.2-61.53" style="fill:url(#3);opacity:.489"/><path d="m319.3 449.31c19.11 1.788 95.89-46.609 101.13-89.47-16.675 25.846-52.853 20.998-96.68 22.694 0 0 4.217 61.44-4.449 66.778z" style="fill:url(#5);stroke:#868a84;stroke-width:10.667"/></g><g style="fill:none;stroke-width:10.667"><path d="m206.33 16.05c-.022.022.018.307 0 .333-.012.03-.327-.032-.333 0v30.667c0 .069.308.274.333.333.026.018-.03.321 0 .333h-37.667c-.189 0-.482-.019-.667 0-.363.055-.998.211-1.333.333-1.474.621-2.855 2.123-3.333 3.667-.112.438 0 1.193 0 1.667v44.33c0 .189-.019.482 0 .667.055.363.211.998.333 1.333.104.246.197.774.333 1 .049.073.281.263.333.333.223.27.73.777 1 1 .14.105.516.242.667.333.155.084.503.264.667.333.335.122.97.278 1.333.333.184.019.477 0 .667 0h172c.189 0 .482.019.667 0 .363-.055.998-.211 1.333-.333.164-.069.512-.249.667-.333.15-.091.526-.228.667-.333.27-.223.777-.73 1-1 .052-.07.284-.261.333-.333.137-.226.23-.754.333-1 .122-.335.278-.97.333-1.333.019-.184 0-.477 0-.667v-44.33c0-.474.112-1.229 0-1.667-.478-1.544-1.86-3.045-3.333-3.667-.336-.122-.97-.278-1.333-.333-.184-.019-.477 0-.667 0h-37.667c.03-.013-.026-.316 0-.333.025-.059.333-.265.333-.333v-30.667c-.007-.032-.321.03-.333 0-.018-.026.022-.311 0-.333-.03-.012-.301.007-.333 0h-96c-.032.007-.304-.012-.333 0z" style="opacity:.317;stroke:url(#7)"/><path d="m334.77 434.38c14.611-7.294 48.31-27.744 62.17-47.808-19.12 4.02-31.903 6.289-61.09 7.418 0 0 .923 32.12-1.078 40.39z" style="opacity:.369;stroke:url(#8);color:#000"/></g><g style="color:#000;fill-rule:evenodd"><path d="m148 160.38h224v21.333h-224z" style="opacity:.17"/><path d="m148 203.05h213.33v21.333h-213.33z" style="opacity:.17"/><path d="m148 245.71h192v21.334h-192z" style="opacity:.17"/><path d="m148 288.38h224v21.333h-224z" style="opacity:.17"/><path d="m148 331.05h138.67v21.333h-138.67z" style="opacity:.17"/></g></svg>
