<svg xmlns:xlink="http://www.w3.org/1999/xlink" viewBox="0 0 48 48" width="512" xmlns="http://www.w3.org/2000/svg" height="512" style="overflow:visible"><defs><path id="F" d="m-33.01 23.19c.216.222.749.097 1.33-.274.193-.123.392-.274.585-.448.184-.166.345-.338.484-.508.447-.549.636-1.08.435-1.323 0 0 .003-.003.003-.003 0 0 9.477 10.515 9.477 10.515.079.283-.073.812-.469 1.295-.135.165-.293.332-.471.492-.198.179-.402.334-.601.459-.593.376-1.163.525-1.377.288-.049-.055-.262-.292-.268-.301 0 0-9.157-10.164-9.157-10.164 0 0 .03-.027.03-.027"/><linearGradient id="8" y1="80.51" x1="85.76" y2="67.742" x2="74.07" gradientUnits="userSpaceOnUse"><stop style="stop-color:#ffc957"/><stop offset="1" style="stop-color:#ff6d00"/></linearGradient><linearGradient id="9" y1="3.747" x1="-16.13" y2="47.21" x2="27.339" gradientUnits="userSpaceOnUse"><stop style="stop-color:#94caff"/><stop offset="1" style="stop-color:#006dff"/></linearGradient><linearGradient id="E" y1="3.052" x1="8.459" y2="22.22" x2="-10.708" gradientUnits="userSpaceOnUse"><stop style="stop-color:#ccc"/><stop offset="1" style="stop-color:#f0f0f0"/></linearGradient><linearGradient id="A" y1="-.795" x1="65.09" y2="160.18" x2="137.6" gradientUnits="userSpaceOnUse"><stop style="stop-color:#ffa700"/><stop offset=".775" style="stop-color:#ffd700"/><stop offset="1" style="stop-color:#ff794b"/></linearGradient><linearGradient id="C" y1="33.15" y2="-1.566" x2="0" gradientUnits="userSpaceOnUse"><stop style="stop-color:#b4e2ff"/><stop offset="1" style="stop-color:#006dff"/></linearGradient><linearGradient id="D" y1="128.32" x1="127.41" y2="150.15" x2="107.4" gradientUnits="userSpaceOnUse"><stop style="stop-color:#f8f1dc"/><stop offset="1" style="stop-color:#d6a84a"/></linearGradient><linearGradient id="B" y1="82.7" x1="88.32" y2="187.83" x2="180.91" gradientUnits="userSpaceOnUse"><stop style="stop-color:#900"/><stop offset="1" style="stop-color:#7c0000"/></linearGradient><linearGradient id="7" y1="17.448" x1="-22.886" y2="30.671" x2="-28.16" gradientUnits="userSpaceOnUse"><stop style="stop-color:#ffa700"/><stop offset=".775" style="stop-color:#ffd700"/><stop offset="1" style="stop-color:#ff9200"/></linearGradient><linearGradient id="0" y1=".088" x1="11.163" y2="16.276" x2="-5.02" gradientUnits="userSpaceOnUse"><stop style="stop-color:#fff"/><stop offset=".551" style="stop-color:#e6edff"/><stop offset="1" style="stop-color:#fff"/></linearGradient><linearGradient id="1" x1="-33.04" x2="-23.444" gradientUnits="userSpaceOnUse"><stop style="stop-color:#7d7d99"/><stop offset=".18" style="stop-color:#b1b1c5"/><stop offset=".373" style="stop-color:#bcbcc8"/><stop offset=".682" style="stop-color:#c8c8cb"/><stop offset="1" style="stop-color:#ccc"/></linearGradient><linearGradient id="6" y1="-1.322" y2="30.928" x2="0" gradientUnits="userSpaceOnUse"><stop style="stop-color:#428aff"/><stop offset="1" style="stop-color:#c9e6ff"/></linearGradient><linearGradient id="2" y1="23.974" x1="-4.642" y2="40.827" x2="7.651" gradientUnits="userSpaceOnUse"><stop style="stop-color:#039"/><stop offset=".27" style="stop-color:#0035ed"/><stop offset="1" style="stop-color:#57adff"/></linearGradient><linearGradient id="4" y1="7.405" y2="4.365" x2="0" gradientUnits="userSpaceOnUse"><stop style="stop-color:#39f"/><stop offset="1"/></linearGradient><linearGradient id="5" y1="21.679" y2="41.12" x2="0" gradientUnits="userSpaceOnUse"><stop style="stop-color:#dfdfdf"/><stop offset="1" style="stop-color:#7d7d99"/></linearGradient><linearGradient id="3" y1="26.23" y2="36.868" x2="0" gradientUnits="userSpaceOnUse"><stop style="stop-color:#f0f0f0"/><stop offset=".635" style="stop-color:#cecedb"/><stop offset=".859" style="stop-color:#b1b1c5"/><stop offset="1" style="stop-color:#fff"/></linearGradient></defs><g transform="translate(23.96 4.797)"><path d="m-14.02 1.699c-2.047 0-3.712 1.693-3.712 3.775v30.17c0 2.082 1.666 3.775 3.712 3.775h29.401c2.047 0 3.712-1.693 3.712-3.775v-30.17c0-2.082-1.665-3.775-3.712-3.775h-29.401" style="opacity:.2"/><path d="m-14.393 1.324c-2.047 0-3.712 1.693-3.712 3.775v30.17c0 2.082 1.666 3.775 3.712 3.775h29.401c2.047 0 3.712-1.693 3.712-3.775v-30.17c0-2.082-1.665-3.775-3.712-3.775h-29.401" style="opacity:.2"/><g style="fill:#00008d"><path d="m-14.58 1.137c-2.047 0-3.712 1.693-3.712 3.775v30.17c0 2.082 1.666 3.775 3.712 3.775h29.401c2.047 0 3.712-1.693 3.712-3.775v-30.17c0-2.082-1.665-3.775-3.712-3.775h-29.401"/><path d="m-14.58 1.512c-1.84 0-3.337 1.525-3.337 3.4v30.17c0 1.875 1.497 3.4 3.337 3.4h29.401c1.84 0 3.337-1.525 3.337-3.4v-30.17c0-1.875-1.497-3.4-3.337-3.4h-29.401"/></g><path d="m17.22 35.08c0 1.36-1.074 2.463-2.399 2.463h-29.401c-1.326 0-2.4-1.103-2.4-2.463v-30.17c0-1.36 1.074-2.462 2.4-2.462h29.401c1.325 0 2.399 1.103 2.399 2.462v30.17" style="fill:#fff"/><path d="m17.22 35.08c0 1.36-1.074 2.463-2.399 2.463h-29.401c-1.326 0-2.4-1.103-2.4-2.463v-30.17c0-1.36 1.074-2.462 2.4-2.462h29.401c1.325 0 2.399 1.103 2.399 2.462v30.17" style="fill:url(#C)"/><path d="m-14.58 3.01c-1.013 0-1.837.852-1.837 1.9v30.17c0 1.048.824 1.9 1.837 1.9h29.401c1.013 0 1.837-.853 1.837-1.9v-30.17c0-1.048-.824-1.9-1.837-1.9h-29.401" style="fill:#fff"/><path d="m-14.58 3.01c-1.013 0-1.837.852-1.837 1.9v30.17c0 1.048.824 1.9 1.837 1.9h29.401c1.013 0 1.837-.853 1.837-1.9v-30.17c0-1.048-.824-1.9-1.837-1.9h-29.401" style="fill:url(#9)"/><path d="m13.192 3.352c0 0-26.18 0-26.914 0 0 .704 0 16.59 0 17.294.721 0 26.864 0 27.583 0 0-.704 0-16.59 0-17.294-.307 0-.669 0-.669 0" style="fill:url(#6)"/><path d="m12.375 2.977h-2.154v16.919h26.567v-16.919h-.979" style="fill:#fff"/><path d="m12.375 2.977h-2.154v16.919h26.567v-16.919h-.979" style="fill:url(#E)"/><g style="stroke:#fff;stroke-width:.188"><path d="m-11.946 3.51c0 .698 0 14.542 0 15.239.716 0 23.417 0 24.13 0 0-.698 0-14.541 0-15.239-.717 0-23.417 0-24.13 0z" style="fill:#fff"/><path d="m-11.946 3.51c0 .698 0 14.542 0 15.239.716 0 23.417 0 24.13 0 0-.698 0-14.541 0-15.239-.717 0-23.417 0-24.13 0z" style="fill:url(#0)"/></g><path d="m-11.28 22.97h22.01v13.978h-22.01z" style="fill:url(#2)"/><path d="m-10.19 23.512c-.311 0-.563.252-.563.563v13.1c0 .312.252.563.563.563h17.249c.311 0 .563-.251.563-.563v-13.11c0-.311-.252-.563-.563-.563h-17.249v.001m5.606 3.676c0 .871 0 5.078 0 5.949-.683 0-2.075 0-2.759 0 0-.871 0-5.078 0-5.949.684 0 2.076 0 2.759 0" style="fill:url(#5)"/><path d="m-10.19 24.07v13.1h17.249v-13.1h-17.249m6.169 9.626h-3.884v-7.07h3.884v7.07" style="fill:url(#3)"/><path d="m14.396 5.522h1.784v1.785h-1.784z" style="fill:url(#4)"/></g><g transform="matrix(.2072 1.69127-1.69127.2072 86.36 56.29)"><g transform="matrix(.125 0 0 .125-41.518 12.759)"><path d="m191.92 195.98c-11.613-36.13-13.717-42.67-14.859-44.06.119.076.289.178.289.178l-78.55-87.45c-4.195-4.65-14 .356-21.355 6.976-7.283 6.542-13.32 15.773-9.37 20.564l78.944 87.54.533.094 37.768 17.602 7.688 2.365-1.088-3.803" style="opacity:.2"/><path d="m193.56 193.52c-11.611-36.12-13.713-42.67-14.855-44.06.117.072.287.178.287.178l-78.55-87.45c-4.199-4.651-14.02.355-21.361 6.975-7.281 6.545-13.32 15.773-9.368 20.566l78.945 87.54.533.1 37.77 17.598 7.682 2.367-1.088-3.804" style="opacity:.2"/><path d="m186.77 191.05c-11.613-36.13-13.713-42.672-14.863-44.07.121.074.295.18.295.18l-78.55-87.46c-4.192-4.65-14.01.359-21.354 6.978-7.283 6.542-13.321 15.771-9.369 20.565l78.942 87.54.535.096 37.768 17.598 7.686 2.367-1.088-3.8" style="opacity:.2"/><path d="m186.43 189.35c-11.613-36.12-13.713-42.666-14.863-44.06.123.072.293.18.293.18l-78.55-87.46c-4.199-4.651-14.02.357-21.359 6.977-7.283 6.543-13.322 15.774-9.37 20.566l78.941 87.54.535.098 37.771 17.598 7.686 2.363-1.088-3.804" style="fill:#fff"/><path d="m186.43 189.35c-11.613-36.12-13.713-42.666-14.863-44.06.123.072.293.18.293.18l-78.55-87.46c-4.199-4.651-14.02.357-21.359 6.977-7.283 6.543-13.322 15.774-9.37 20.566l78.941 87.54.535.098 37.771 17.598 7.686 2.363-1.088-3.804" style="fill:url(#B)"/><path d="m166.97 147.76l13.723 38.13-36.37-17.902.168-.152c-.25-.08-.496-.178-.701-.316l-.125.121-75.3-83.57.123-.104c-2.246-2.49 1.032-9.09 7.308-14.752 6.28-5.652 13.18-8.219 15.425-5.733l75.29 83.56.461.714" style="fill:url(#D)"/><path d="m148.65 170.12c2.076-.369 4.635-1.479 7.252-3.139 1.617-1.018 3.279-2.283 4.898-3.744 1.455-1.303 2.736-2.666 3.84-4.01 2.076-2.531 3.322-5.213 3.781-7.424l-1.455-4.04-.463-.715-74.8-83.02c.608 2.24-.962 5.938-4.063 9.74-1.134 1.389-2.441 2.789-3.945 4.141-1.574 1.419-3.195 2.652-4.767 3.654-4.493 2.871-8.628 3.928-10.548 2.486l-.025.021 75.3 83.57.125-.121c.205.139.451.236.701.316l-.168.152 4.332 2.134" style="fill:url(#A)"/></g><g style="fill:#fff"><use xlink:href="#F" style="stroke-width:.125"/><path d="m75.79 69.22c6.28-5.652 13.18-8.219 15.425-5.733l16.961 18.828 1.152 26.49-17.973.784-22.996-25.513.123-.104c-2.246-2.49 1.032-9.09 7.308-14.752" transform="matrix(.125 0 0 .125-41.518 12.759)"/><use xlink:href="#F" style="stroke-width:.125"/></g><path d="m75.79 69.22c6.28-5.652 13.18-8.219 15.425-5.733l16.961 18.828 1.152 26.49-17.973.784-22.996-25.513.123-.104c-2.246-2.49 1.032-9.09 7.308-14.752" transform="matrix(.125 0 0 .125-41.518 12.759)" style="fill:url(#8)"/><use xlink:href="#F" style="fill:url(#7);stroke-width:.125"/><g style="fill:#fff"/></g></svg>
