<svg xmlns="http://www.w3.org/2000/svg" viewBox="0 0 22 22">
<defs/>
<path d="m7.6552,13.9131 0-.3919c.4354-.0348 .7141-.0871 .836-.1568 .1393-.0871 .209-.2526 .209-.4964-0-.1393-.0523-.2874-.1568-.4441l-2.3775-3.6838-2.064,3.2135c-.3484,.5574-.5225,.9144-.5225,1.0712-0,.3309 .3571,.4964 1.0712,.4964v.3919h-3.7883v-.3919c.418-.0348 .7315-.1306 .9405-.2874 .2264-.1568 .5312-.5051 .9144-1.045l3.0045-4.3108-2.4559-3.7622c-.4006-.6096-.7402-1.0189-1.0189-1.2279-.2613-.2264-.5835-.3396-.9667-.3396h-.2874v-.3919h5.4342v.3919c-.7664,.0174-1.1496,.209-1.1496,.5748-0,.2787 .4093,1.0538 1.2279,2.3252l.3658,.4964 .7838-1.1496c.6444-.7664 .9667-1.3237 .9667-1.6721-0-.3658-.3484-.5573-1.045-.5748v-.3919h4.1541v.3919c-.8883,.0348-1.6024,.418-2.1423,1.1496l-2.1423,3.1351 3.318,5.1207c.418,.5922 .7751,1.0015 1.0712,1.2279 .3135,.2264 .6706,.3396 1.0712,.3396v.3919h-5.2514"/>
<path fill="#f00" fill-opacity=".906" d="m21.1376,17.6491-.9667,2.1946-6.6099,0 0-.6009 2.5604-2.7955c1.4108-1.5153 2.1162-2.7171 2.1162-3.6054-0-.5399-.1916-1.0015-.5748-1.3847-.3658-.4006-.8186-.6009-1.3586-.6009-.9231,0-1.6634,.6183-2.2207,1.855l-.6532-.3658c.2438-.6793 .4441-1.1582 .6009-1.4369 .1568-.2961 .3658-.5573 .627-.7838 .6096-.6096 1.4631-.9144 2.5604-.9144 1.0102,0 1.8288,.2613 2.4559,.7838 .6444,.5225 .9667,1.1931 .9667,2.0117-0,.627-.1742,1.2454-.5225,1.855-.3309,.5922-.8883,1.2802-1.6721,2.064l-2.2469,2.2207h3.1874c.3309,0 .5748-.0435 .7315-.1306 .1742-.0871 .3571-.2787 .5486-.5748l.4703,.209"/>
</svg>
