<?xml version="1.0" encoding="UTF-8" standalone="no"?>
<!-- Created with Inkscape (http://www.inkscape.org/) -->

<svg
   xmlns:dc="http://purl.org/dc/elements/1.1/"
   xmlns:cc="http://creativecommons.org/ns#"
   xmlns:rdf="http://www.w3.org/1999/02/22-rdf-syntax-ns#"
   xmlns:svg="http://www.w3.org/2000/svg"
   xmlns="http://www.w3.org/2000/svg"
   xmlns:sodipodi="http://sodipodi.sourceforge.net/DTD/sodipodi-0.dtd"
   xmlns:inkscape="http://www.inkscape.org/namespaces/inkscape"
   width="22"
   height="22"
   id="svg3614"
   sodipodi:version="0.32"
   inkscape:version="0.47 r22583"
   sodipodi:docname="Subscript.svg"
   inkscape:output_extension="org.inkscape.output.svg.inkscape"
   version="1.0">
  <defs
     id="defs3616">
    <inkscape:perspective
       sodipodi:type="inkscape:persp3d"
       inkscape:vp_x="0 : 11 : 1"
       inkscape:vp_y="0 : 1000 : 0"
       inkscape:vp_z="22 : 11 : 1"
       inkscape:persp3d-origin="11 : 7.3333333 : 1"
       id="perspective12" />
  </defs>
  <sodipodi:namedview
     id="base"
     pagecolor="#ffffff"
     bordercolor="#666666"
     borderopacity="1.0"
     inkscape:pageopacity="0.0"
     inkscape:pageshadow="2"
     inkscape:zoom="3.847019"
     inkscape:cx="-27.861259"
     inkscape:cy="11.156758"
     inkscape:current-layer="layer1"
     showgrid="true"
     inkscape:grid-bbox="true"
     inkscape:document-units="px"
     inkscape:window-width="1272"
     inkscape:window-height="746"
     inkscape:window-x="0"
     inkscape:window-y="0"
     inkscape:window-maximized="0" />
  <metadata
     id="metadata3619">
    <rdf:RDF>
      <cc:Work
         rdf:about="">
        <dc:format>image/svg+xml</dc:format>
        <dc:type
           rdf:resource="http://purl.org/dc/dcmitype/StillImage" />
      </cc:Work>
    </rdf:RDF>
  </metadata>
  <g
     id="layer1"
     inkscape:label="Layer 1"
     inkscape:groupmode="layer">
    <g
       id="g3721"
       transform="matrix(0.45,0,0,0.45,0.1341483,-7.426456e-2)" />
    <path
       id="path3709"
       d="m 7.655234,13.913071 0,-0.391892 c 0.43543,-0.03483 0.7141094,-0.08709 0.8360382,-0.156758 0.1393397,-0.08709 0.2090096,-0.252552 0.2090096,-0.496397 -6.5e-6,-0.139338 -0.052252,-0.287387 -0.1567572,-0.444146 L 6.1660408,8.7400847 4.1020713,11.953607 c -0.3483515,0.55736 -0.5225261,0.914418 -0.5225239,1.071174 -2.2e-6,0.330932 0.3570558,0.496398 1.071174,0.496398 l 0,0.391892 -3.7882984,0 0,-0.391892 c 0.4180191,-0.03483 0.7315335,-0.130631 0.9405431,-0.287389 0.226427,-0.156757 0.5312326,-0.505105 0.9144168,-1.045047 L 5.7218955,7.8779202 3.266033,4.115748 C 2.8654292,3.5061472 2.5257886,3.096837 2.2471114,2.8878168 1.9858494,2.6614008 1.6636263,2.5481875 1.2804421,2.5481762 l -0.28738812,0 0,-0.3918928 5.43424872,0 0,0.3918928 C 5.66093,2.5656154 5.2777458,2.7571967 5.2777501,3.1229525 5.2777458,3.4016424 5.6870562,4.1767187 6.5056813,5.448184 L 6.8714481,5.9445817 7.655234,4.7950291 C 8.2996736,4.0286704 8.6218967,3.4713122 8.6219032,3.1229525 8.6218967,2.7571969 8.2735474,2.565605 7.5768554,2.5481762 l 0,-0.3918928 4.1540656,0 0,0.3918928 c -0.8883,0.034846 -1.602416,0.41803 -2.1423485,1.1495526 L 7.4462244,6.8328724 10.764251,11.953607 c 0.418011,0.592195 0.775067,1.001505 1.071174,1.227931 0.313504,0.226427 0.670562,0.339641 1.071174,0.339641 l 0,0.391892 -5.251365,0"
       style="font-size:12px;font-style:normal;font-weight:normal;fill:#000000;fill-opacity:1;stroke:none;font-family:Bitstream Vera Sans" />
    <path
       id="path3711"
       d="m 21.137577,17.649116 -0.966669,2.194601 -6.609928,0 0,-0.600903 2.560367,-2.795503 c 1.41081,-1.515306 2.116218,-2.717111 2.116222,-3.605415 -4e-6,-0.539926 -0.191592,-1.001489 -0.574776,-1.384688 -0.365771,-0.400585 -0.818625,-0.600885 -1.358562,-0.600903 -0.923128,1.8e-5 -1.66337,0.618335 -2.220727,1.85496 l -0.653155,-0.365767 c 0.243845,-0.679265 0.444145,-1.158246 0.600903,-1.43694 0.156757,-0.29608 0.365766,-0.557342 0.627028,-0.783786 0.609609,-0.6095941 1.463065,-0.9143997 2.560367,-0.9144171 1.010209,1.74e-5 1.828828,0.2612794 2.455863,0.7837859 0.64444,0.5225412 0.966663,1.1931112 0.966669,2.0117172 -6e-6,0.627044 -0.174175,1.245364 -0.522524,1.85496 -0.330938,0.592207 -0.888297,1.280196 -1.672076,2.063969 l -2.246853,2.220727 3.187396,0 c 0.330925,9e-6 0.574769,-0.04353 0.731533,-0.130631 0.174175,-0.08708 0.357052,-0.278669 0.54865,-0.574776 l 0.470272,0.209009"
       style="font-size:12px;font-style:normal;font-weight:normal;fill:#ff0000;fill-opacity:0.90588236000000000;stroke:none;font-family:Bitstream Vera Sans" />
  </g>
</svg>
