<svg xmlns="http://www.w3.org/2000/svg" viewBox="0 0 22 22"><path d="m7.655 19.844v-.392c.435-.035.714-.087.836-.157.139-.087.209-.253.209-.496 0-.139-.052-.287-.157-.444l-2.377-3.684-2.064 3.214c-.348.557-.523.914-.523 1.071 0 .331.357.496 1.071.496v.392h-3.788v-.392c.418-.035.732-.131.941-.287.226-.157.531-.505.914-1.045l3-4.311-2.456-3.762c-.401-.61-.74-1.019-1.019-1.228-.261-.226-.583-.34-.967-.34h-.287v-.392h5.434v.392c-.766.017-1.15.209-1.15.575 0 .279.409 1.054 1.228 2.325l.366.496.784-1.15c.644-.766.967-1.324.967-1.672 0-.366-.348-.557-1.045-.575v-.392h4.154v.392c-.888.035-1.602.418-2.142 1.15l-2.142 3.135 3.318 5.121c.418.592.775 1 1.071 1.228.313.226.671.34 1.071.34v.392h-5.251"/><path d="m21.14 10.595l-.967 2.195h-6.61v-.601l2.56-2.796c1.411-1.515 2.116-2.717 2.116-3.605 0-.54-.192-1-.575-1.385-.366-.401-.819-.601-1.359-.601-.923 0-1.663.618-2.221 1.855l-.653-.366c.244-.679.444-1.158.601-1.437.157-.296.366-.557.627-.784.61-.61 1.463-.914 2.56-.914 1.01 0 1.829.261 2.456.784.644.523.967 1.193.967 2.01 0 .627-.174 1.245-.523 1.855-.331.592-.888 1.28-1.672 2.064l-2.247 2.221h3.187c.331 0 .575-.043.732-.131.174-.087.357-.279.549-.575l.47.209" style="fill:#f00;fill-opacity:.906"/></svg>