<svg xmlns="http://www.w3.org/2000/svg" viewBox="0 0 512 512"><path d="m98.97-122.77h8.288c.597 10.603 3.733 17.995 9.408 22.18 5.675 4.182 14.709 6.272 27.1 6.272h61.15l-.448-15.01c-23.744-4.779-45.4-17.995-64.961-39.649-19.563-21.654-29.345-48.982-29.344-81.986 0-36.587 13.59-67.798 40.769-93.63 27.328-25.835 62.945-38.752 106.85-38.753 42.561 0 77.36 12.246 104.39 36.737 27.03 24.342 40.544 55.55 40.545 93.63 0 30.913-8.438 57.2-25.313 78.85-16.726 21.505-39.43 36.438-68.1 44.801l-2.24 15.01h62.27c14.187 0 23.52-2.688 28-8.06 4.629-5.376 7.093-12.171 7.392-20.384h8.288v70.11h-125.44l5.824-67.65c38.529-12.1 57.793-47.713 57.793-106.85 0-38.678-9.483-68.32-28.449-88.93-18.817-20.608-40.918-30.912-66.31-30.913-27.03 0-49.43 10.976-67.2 32.929-17.622 21.803-26.433 49.729-26.433 83.78 0 24.641 3.957 47.12 11.872 67.43 7.915 20.16 23.07 34.35 45.47 42.561l4.256 67.65h-125.44v-70.11" transform="translate(-19.261 434.77)"/><path d="m424 488h64v-64c0 464-64 528-64 528z" style="stroke:#fff;fill-rule:evenodd;stroke-width:16"/></svg>
