<svg xmlns="http://www.w3.org/2000/svg" viewBox="0 0 512 512" xmlns:xlink="http://www.w3.org/1999/xlink">
<defs/>
<g transform="translate(0 464)">
<path d="m348.1202-427.0124 46.7224,0 0,203.9891c-.0003,35.4835-4.0143,63.6614-12.0419,84.5339-8.0282,20.8726-22.5587,37.8918-43.5915,51.0575-20.8728,13.0052-48.3282,19.5078-82.3663,19.5078-33.0751-0-60.1291-5.6998-81.1621-17.0994-21.0332-11.3996-36.0454-27.8568-45.0366-49.3716-8.9913-21.6753-13.4869-51.2179-13.4869-88.6281v-203.9891h46.7224v203.7483c-.0001,30.6667 2.8097,53.3054 8.4293,67.9161 5.78,14.4503 15.574,25.6091 29.3821,33.4764 13.9684,7.8674 30.9876,11.8011 51.0575,11.801 34.3592,0 58.8443-7.787 73.4554-23.3612 14.6105-15.5741 21.9159-45.5181 21.9162-89.8323v-203.7483"/>
<path fill="none" stroke="#000" stroke-width="20.931" d="m72-25.9451 368,0"/>
</g>
</svg>
