<svg xmlns="http://www.w3.org/2000/svg" viewBox="0 0 512 512"><defs><linearGradient gradientTransform="matrix(4.44926 0 0 3.86471-21.795-13.43)" id="0" y1="113.71" x1="123.09" y2="23.318" x2="2.677" gradientUnits="userSpaceOnUse"><stop style="stop-color:#009240"/><stop offset="1" style="stop-color:#b9db7d"/></linearGradient></defs><path d="m159.66 260.21l71.783 79.987h-196.06v-210.49l57.18 67.36c4.085 4.21 44.929-42.1 61.27-58.938 16.338-16.839 85.77-71.57 138.87-71.57 53.1 0 68.22 4.943 103.77 26.26 33.807 21.322 59.35 49.972 71.867 87.4 12.515 37.429 8.169 58.938 4.084 92.62-12.776 70.19-43.884 103.97-85.77 134.72-24.507 16.839-74.988 34.411-134.79 37.889-16.338 0-32.676-12.63-20.422-12.63 12.254 0 49.01-4.21 85.77-25.26 68.05-47.13 89.86-89.33 89.86-138.92 0-25.26-1.738-51.25-16.338-71.57-14.6-20.316-36.76-33.679-81.69-33.679-44.93 0-64.3 22.975-92.9 44.02-23.376 22.788-28.508 28.28-56.49 52.802z" style="fill:url(#0);stroke:#037340;stroke-width:16.587"/></svg>