<svg xmlns="http://www.w3.org/2000/svg" viewBox="0 0 512 512" xmlns:xlink="http://www.w3.org/1999/xlink">
<defs>
<linearGradient id="id0" y1="84" x1="159" y2="-2" x2="7">
<stop offset="0" stop-color="#009240"/>
<stop offset="1" stop-color="#b9db7d"/>
</linearGradient>
<linearGradient gradientTransform="matrix(4.44926 0 0 3.86471 -21.79535 -13.43005)" xlink:href="#id0" id="linearGradient268" y1="113.713" x1="123.088" y2="23.318" x2="2.677" gradientUnits="userSpaceOnUse"/>
</defs>
<path fill="url(#linearGradient268)" stroke="#037340" stroke-width="16.587" d="m159.6611,260.2098 71.7827,79.9871-196.0561,0 0-210.4922 57.183,67.3575c4.0845,4.2098 44.9295-42.0985 61.2675-58.9378 16.338-16.8394 85.7746-71.5674 138.8731-71.5674 53.0985,0 68.2214,4.9428 103.7668,26.2648 33.8074,21.322 59.3519,49.9723 71.8668,87.401 12.5149,37.4287 8.169,58.9378 4.0845,92.6166-12.7763,70.1874-43.8839,103.9676-85.7745,134.715-24.507,16.8394-74.9878,34.4113-134.7886,37.8886-16.338,0-32.676-12.6295-20.4225-12.6295 12.2535,0 49.014-4.2098 85.7746-25.2591 68.0535-47.1267 89.859-89.3266 89.859-138.9249 0-25.2591-1.7379-51.2511-16.338-71.5674-14.6001-20.3163-36.7605-33.6788-81.69-33.6788-44.9295,0-64.3048,22.9748-92.8963,44.024-23.376,22.7879-28.5078,28.2763-56.4919,52.8024z"/>
</svg>
