<svg xmlns="http://www.w3.org/2000/svg" viewBox="0 0 512 512"><path d="m146.96 274.21h-58.28c7.714-25.07 16.07-52.709 23.569-77.78 1.071-1.928 3.428-4.285 5.571-4.285 2.143 0 4.5 2.143 5.571 4.285l23.569 77.78m-12.213-81.42c-2.143-7.285-8.785-12.427-16.927-12.427-7.928 0-14.784 5.142-16.927 12.427-13.07 43.496-26.569 86.78-39.42 130.06-.214.643-.214 1.286-.214 1.928 0 2.785 2.785 5.571 5.571 5.571 2.571 0 4.928-1.928 5.785-3.857l12.427-40.925h65.14l13.07 40.925c.857 1.714 3.214 3.857 5.357 3.857 3.214 0 5.785-2.785 5.785-5.571 0-.214-.214-1.071-.214-1.286l-39.42-130.7"/><path d="m201.92 227.07c0-2.785-2.357-5.785-5.571-5.785-3.214 0-5.785 3-5.785 5.785v67.71c0 22.498 15.641 35.568 33.64 35.568h38.35c5.357 0 8.999-4.285 8.999-8.999v-94.28c0-2.785-2.357-5.785-5.571-5.785-3.214 0-5.785 3-5.785 6.214v92.13h-35.997c-11.999 0-22.284-10.07-22.284-24.855v-67.71"/><path d="m310.02 223h-11.356c-3.214 0-5.571 2.571-5.571 5.785 0 3.214 2.357 5.571 5.571 5.571h11.356v60.42c0 23.14 8.785 35.568 32.14 35.568h7.928c3.428 0 5.785-2.357 5.785-5.571 0-3.214-2.357-5.785-5.785-5.785h-7.928c-15.641 0-20.784-8.356-20.784-24.21v-60.42h28.712c3.428 0 5.785-2.357 5.785-5.571 0-3.214-2.357-5.785-5.999-5.785h-28.497v-17.57c0-3.214-2.571-5.785-5.785-5.785-3.214 0-5.571 2.571-5.571 5.785v17.57"/><path d="m415.18 331.64c20.14 0 35.568-14.999 35.568-37.711v-32.568c0-22.712-14.999-39.853-35.568-39.853h-13.07c-20.784 0-35.782 17.14-35.782 39.853v32.568c0 22.712 15.427 37.711 35.782 37.711h13.07m-13.07-10.713c-13.927 0-24.426-12.213-24.426-26.997v-32.568c0-14.999 10.499-29.14 24.426-29.14h13.07c13.713 0 24.426 14.14 24.426 29.14v32.568c0 14.784-10.713 26.997-24.426 26.997h-13.07"/></svg>