<?xml version="1.0" encoding="UTF-8" standalone="no"?>
<svg
   xmlns:dc="http://purl.org/dc/elements/1.1/"
   xmlns:cc="http://creativecommons.org/ns#"
   xmlns:rdf="http://www.w3.org/1999/02/22-rdf-syntax-ns#"
   xmlns:svg="http://www.w3.org/2000/svg"
   xmlns="http://www.w3.org/2000/svg"
   xmlns:sodipodi="http://sodipodi.sourceforge.net/DTD/sodipodi-0.dtd"
   xmlns:inkscape="http://www.inkscape.org/namespaces/inkscape"
   width="512"
   height="512"
   id="svg2"
   version="1.1"
   inkscape:version="0.48.2 r9819"
   sodipodi:docname="Auto.svg">
  <metadata
     id="metadata18">
    <rdf:RDF>
      <cc:Work
         rdf:about="">
        <dc:format>image/svg+xml</dc:format>
        <dc:type
           rdf:resource="http://purl.org/dc/dcmitype/StillImage" />
      </cc:Work>
    </rdf:RDF>
  </metadata>
  <sodipodi:namedview
     pagecolor="#ffffff"
     bordercolor="#666666"
     borderopacity="1"
     objecttolerance="10"
     gridtolerance="10"
     guidetolerance="10"
     inkscape:pageopacity="0"
     inkscape:pageshadow="2"
     inkscape:window-width="1860"
     inkscape:window-height="1210"
     id="namedview16"
     showgrid="false"
     inkscape:zoom="1.3037281"
     inkscape:cx="159.7376"
     inkscape:cy="256"
     inkscape:window-x="0"
     inkscape:window-y="0"
     inkscape:window-maximized="0"
     inkscape:current-layer="svg2" />
  <defs
     id="defs4" />
  <g
     style="font-size:214.26501465px;font-style:normal;font-variant:normal;font-weight:normal;font-stretch:normal;line-height:125%;letter-spacing:0px;word-spacing:0px;fill:#000000;fill-opacity:1;stroke:none;font-family:Arial;-inkscape-font-specification:Arial"
     id="text2995">
    <path
       d="M 146.95751,274.21251 88.67743,274.21251 C 96.390963,249.14353 104.74731,221.50329 112.24658,196.43431 113.31791,194.50593 115.67482,192.14901 117.81747,192.14901 119.96012,192.14901 122.31704,194.29166 123.38836,196.43431 L 146.95751,274.21251 M 134.74441,192.79181 C 132.60176,185.5068 125.95953,180.36443 117.81747,180.36443 109.88967,180.36443 103.03318,185.5068 100.89054,192.79181 87.820383,236.28756 74.321661,279.56918 61.465773,322.85067 61.251509,323.49346 61.251508,324.13626 61.251508,324.77905 61.251508,327.5645 64.036956,330.34995 66.822399,330.34995 69.393576,330.34995 71.750495,328.42156 72.607554,326.49317 L 85.034925,285.56856 150.17149,285.56856 163.24166,326.49317 C 164.09871,328.20729 166.45563,330.34995 168.59828,330.34995 171.81225,330.34995 174.38344,327.5645 174.38344,324.77905 174.38344,324.56479 174.16917,323.70773 174.16917,323.49346 L 134.74441,192.79181"
       style="font-family:Planer;-inkscape-font-specification:Planer"
       id="path2984" />
    <path
       d="M 201.91984,227.07421 C 201.91984,224.28877 199.56292,221.28905 196.34895,221.28905 193.13498,221.28905 190.56379,224.28877 190.56379,227.07421 L 190.56379,294.78195 C 190.56379,317.27976 206.20516,330.34995 224.2034,330.34995 L 262.55684,330.34995 C 267.91346,330.34995 271.55597,326.06464 271.55597,321.35081 L 271.55597,227.07421 C 271.55597,224.28877 269.19905,221.28905 265.98508,221.28905 262.77111,221.28905 260.19992,224.28877 260.19992,227.50274 L 260.19992,319.63669 224.2034,319.63669 C 212.20457,319.63669 201.91984,309.56622 201.91984,294.78195 L 201.91984,227.07421"
       style="font-family:Planer;-inkscape-font-specification:Planer"
       id="path2986" />
    <path
       d="M 310.01989,223.00317 298.66384,223.00317 C 295.44987,223.00317 293.09295,225.57436 293.09295,228.78833 293.09295,232.0023 295.44987,234.35922 298.66384,234.35922 L 310.01989,234.35922 310.01989,294.78195 C 310.01989,317.92255 318.80478,330.34995 342.15964,330.34995 L 350.08745,330.34995 C 353.51568,330.34995 355.8726,327.99303 355.8726,324.77905 355.8726,321.56508 353.51568,318.9939 350.08745,318.9939 L 342.15964,318.9939 C 326.51831,318.9939 321.37594,310.63755 321.37594,294.78195 L 321.37594,234.35922 350.08745,234.35922 C 353.51568,234.35922 355.8726,232.0023 355.8726,228.78833 355.8726,225.57436 353.51568,223.00317 349.87318,223.00317 L 321.37594,223.00317 321.37594,205.43344 C 321.37594,202.21947 318.80475,199.64829 315.59078,199.64829 312.37681,199.64829 310.01989,202.21947 310.01989,205.43344 L 310.01989,223.00317"
       style="font-family:Planer;-inkscape-font-specification:Planer"
       id="path2988" />
    <path
       d="M 415.1805,331.63554 C 435.32139,331.63554 450.74849,316.63696 450.74849,293.92489 L 450.74849,261.35661 C 450.74849,238.64454 435.74992,221.50332 415.1805,221.50332 L 402.11033,221.50332 C 381.32665,221.50332 366.32808,238.64454 366.32808,261.35661 L 366.32808,293.92489 C 366.32808,316.63696 381.75518,331.63554 402.11033,331.63554 L 415.1805,331.63554 M 402.11033,320.92228 C 388.18312,320.92228 377.68412,308.70916 377.68412,293.92489 L 377.68412,261.35661 C 377.68412,246.35807 388.18312,232.21657 402.11033,232.21657 L 415.1805,232.21657 C 428.89345,232.21657 439.60671,246.35807 439.60671,261.35661 L 439.60671,293.92489 C 439.60671,308.70916 428.89345,320.92228 415.1805,320.92228 L 402.11033,320.92228"
       style="font-family:Planer;-inkscape-font-specification:Planer"
       id="path2990" />
  </g>
</svg>
