<svg xmlns="http://www.w3.org/2000/svg" viewBox="0 0 512 512"><defs><clipPath><path d="m-1232.69 355.15c29.24 0 52.96 23.682 52.96 52.923 0 29.24-23.72 52.96-52.96 52.96-29.24 0-52.96-23.72-52.96-52.96 0-29.24 23.72-52.923 52.96-52.923"/></clipPath><clipPath><path d="m141.13 537.57c-33.698-14.731-74.19-1.934-90.46 28.587-16.265 30.521-2.136 67.2 31.562 81.928 33.698 14.731 74.19 1.934 90.46-28.587 16.265-30.521 2.136-67.2-31.562-81.928m-8.957 16.809c23.446 10.25 33.3 35.764 21.984 57-11.316 21.236-39.516 30.15-62.962 19.898-23.446-10.25-33.29-35.791-21.969-57.03 11.317-21.236 39.502-30.12 62.948-19.871m8.957-16.809c-33.698-14.731-74.19-1.934-90.46 28.587-16.265 30.521-2.136 67.2 31.562 81.928 33.698 14.731 74.19 1.934 90.46-28.587 16.265-30.521 2.136-67.2-31.562-81.928m-8.964 16.822c23.446 10.25 33.3 35.764 21.984 57-11.316 21.236-39.516 30.15-62.962 19.898-23.446-10.25-33.29-35.791-21.969-57.03 11.317-21.236 39.501-30.12 62.948-19.871"/></clipPath></defs><g transform="translate(0-540.36)"><g style="stroke:#fff;stroke-linecap:square;stroke-width:8;stroke-dashoffset:354.33"><path d="m40.03 644.36h431.95a.0271 .0097 0 0 1 .027 .01v367.98a.0271 .0097 0 0 1 -.027 .01h-431.95a.0271 .0097 0 0 1 -.0271 -.01v-367.98a.0271 .0097 0 0 1 .0271 -.01" style="fill:#fff"/><path d="m40.03 40h431.95a.0271 .0114 0 0 1 .027 .0114v63.978a.0271 .0114 0 0 1 -.027 .011h-431.95a.0271 .0114 0 0 1 -.0271 -.011v-63.978a.0271 .0114 0 0 1 .0271 -.0114" transform="translate(0 540.36)"/><path d="m40 580.36h63.992a.004 .0017 0 0 1 .004 .002v63.996a.004 .0017 0 0 1 -.004 .002h-63.992a.004 .0017 0 0 1 -.004 -.002v-63.996a.004 .0017 0 0 1 .004 -.002" style="fill:#fff"/></g><g><g><path d="m94.64 985.73l4.84.629c-.529 3.336-1.887 5.952-4.074 7.848-2.169 1.878-4.84 2.816-8.01 2.816-3.974 0-7.173-1.294-9.598-3.883-2.406-2.607-3.609-6.335-3.609-11.184 0-3.135.52-5.879 1.559-8.23 1.039-2.352 2.616-4.111 4.73-5.277 2.133-1.185 4.448-1.777 6.945-1.777 3.154 0 5.733.802 7.738 2.406 2.01 1.586 3.29 3.846 3.855 6.781l-4.785.738c-.456-1.951-1.267-3.418-2.434-4.402-1.148-.984-2.543-1.477-4.184-1.477-2.479 0-4.493.893-6.04 2.68-1.549 1.768-2.324 4.576-2.324 8.422 0 3.901.747 6.736 2.242 8.504 1.495 1.768 3.445 2.652 5.852 2.652 1.932 0 3.546-.592 4.84-1.777 1.294-1.185 2.115-3.01 2.461-5.469"/><path d="m105.06 972.93v-5.605h5.605v5.605h-5.605m0 23.434v-5.605h5.605v5.605h-5.605"/></g><g><path d="m206.64 985.73l4.84.629c-.529 3.336-1.887 5.952-4.074 7.848-2.169 1.878-4.84 2.816-8.01 2.816-3.974 0-7.173-1.294-9.598-3.883-2.406-2.607-3.609-6.335-3.609-11.184 0-3.135.52-5.879 1.559-8.23 1.039-2.352 2.616-4.111 4.73-5.277 2.133-1.185 4.448-1.777 6.945-1.777 3.154 0 5.733.802 7.738 2.406 2.01 1.586 3.29 3.846 3.855 6.781l-4.785.738c-.456-1.951-1.267-3.418-2.434-4.402-1.148-.984-2.543-1.477-4.184-1.477-2.479 0-4.494.893-6.04 2.68-1.549 1.768-2.324 4.576-2.324 8.422 0 3.901.747 6.736 2.242 8.504 1.495 1.768 3.445 2.652 5.852 2.652 1.932 0 3.546-.592 4.84-1.777 1.294-1.185 2.115-3.01 2.461-5.469"/><path d="m213.86 981.84c0-5.378 1.495-9.361 4.484-11.949 2.497-2.151 5.542-3.227 9.133-3.227 3.992 0 7.255 1.313 9.789 3.938 2.534 2.607 3.801 6.216 3.801 10.828 0 3.737-.565 6.681-1.695 8.832-1.112 2.133-2.744 3.792-4.895 4.977-2.133 1.185-4.466 1.777-7 1.777-4.065 0-7.355-1.303-9.871-3.91-2.497-2.607-3.746-6.362-3.746-11.266m5.059 0c0 3.719.811 6.508 2.434 8.367 1.622 1.841 3.664 2.762 6.125 2.762 2.443 0 4.475-.93 6.098-2.789 1.622-1.859 2.434-4.694 2.434-8.504 0-3.591-.82-6.307-2.461-8.148-1.622-1.859-3.646-2.789-6.07-2.789-2.461 0-4.503.921-6.125 2.762-1.622 1.841-2.434 4.621-2.434 8.34"/><path d="m246.86 996.36v-29.04h4.402v4.074c.911-1.422 2.124-2.561 3.637-3.418 1.513-.875 3.236-1.312 5.168-1.313 2.151 0 3.91.447 5.277 1.34 1.385.893 2.361 2.142 2.926 3.746 2.297-3.391 5.286-5.086 8.969-5.086 2.88 0 5.095.802 6.645 2.406 1.549 1.586 2.324 4.04 2.324 7.355v19.934h-4.895v-18.293c0-1.969-.164-3.381-.492-4.238-.31-.875-.884-1.577-1.723-2.105-.839-.529-1.823-.793-2.953-.793-2.042 0-3.737.684-5.086 2.051-1.349 1.349-2.023 3.518-2.023 6.508v16.871h-4.922v-18.867c0-2.187-.401-3.828-1.203-4.922-.802-1.094-2.115-1.641-3.938-1.641-1.385 0-2.671.365-3.855 1.094-1.167.729-2.01 1.796-2.543 3.199-.529 1.404-.793 3.427-.793 6.07v15.07h-4.922"/><path d="m293.68 996.36v-29.04h4.402v4.074c.911-1.422 2.124-2.561 3.637-3.418 1.513-.875 3.236-1.312 5.168-1.313 2.151 0 3.91.447 5.277 1.34 1.385.893 2.361 2.142 2.926 3.746 2.297-3.391 5.286-5.086 8.969-5.086 2.88 0 5.095.802 6.645 2.406 1.549 1.586 2.324 4.04 2.324 7.355v19.934h-4.895v-18.293c0-1.969-.164-3.381-.492-4.238-.31-.875-.884-1.577-1.723-2.105-.839-.529-1.823-.793-2.953-.793-2.042 0-3.737.684-5.086 2.051-1.349 1.349-2.023 3.518-2.023 6.508v16.871h-4.922v-18.867c0-2.187-.401-3.828-1.203-4.922-.802-1.094-2.115-1.641-3.938-1.641-1.385 0-2.671.365-3.855 1.094-1.167.729-2.01 1.796-2.543 3.199-.529 1.404-.793 3.427-.793 6.07v15.07h-4.922"/><path d="m359.44 992.78c-1.823 1.549-3.582 2.643-5.277 3.281-1.677.638-3.482.957-5.414.957-3.19 0-5.642-.775-7.355-2.324-1.714-1.568-2.57-3.564-2.57-5.988 0-1.422.319-2.716.957-3.883.656-1.185 1.504-2.133 2.543-2.844 1.057-.711 2.242-1.249 3.555-1.613.966-.255 2.424-.501 4.375-.738 3.974-.474 6.9-1.039 8.777-1.695.018-.674.027-1.103.027-1.285 0-2.01-.465-3.418-1.395-4.238-1.258-1.112-3.126-1.668-5.605-1.668-2.315 0-4.03.41-5.141 1.23-1.094.802-1.905 2.233-2.434 4.293l-4.813-.656c.438-2.06 1.158-3.719 2.16-4.977 1-1.276 2.452-2.251 4.348-2.926 1.896-.693 4.092-1.039 6.59-1.039 2.479 0 4.493.292 6.04.875 1.549.583 2.689 1.322 3.418 2.215.729.875 1.24 1.987 1.531 3.336.164.839.246 2.352.246 4.539v6.563c0 4.576.1 7.474.301 8.695.219 1.203.638 2.361 1.258 3.473h-5.141c-.51-1.021-.839-2.215-.984-3.582m-.41-10.992c-1.786.729-4.466 1.349-8.04 1.859-2.023.292-3.454.62-4.293.984-.839.365-1.486.902-1.941 1.613-.456.693-.684 1.467-.684 2.324 0 1.313.492 2.406 1.477 3.281 1 .875 2.461 1.313 4.375 1.313 1.896 0 3.582-.41 5.059-1.23 1.477-.839 2.561-1.978 3.254-3.418.529-1.112.793-2.753.793-4.922v-1.805"/><path d="m371.66 996.36v-29.04h4.43v4.129c2.133-3.19 5.214-4.785 9.242-4.785 1.75 0 3.354.319 4.813.957 1.477.62 2.579 1.44 3.309 2.461.729 1.021 1.24 2.233 1.531 3.637.182.911.273 2.507.273 4.785v17.855h-4.922v-17.664c0-2.01-.191-3.5-.574-4.484-.383-1-1.066-1.796-2.051-2.379-.966-.602-2.105-.902-3.418-.902-2.096 0-3.91.665-5.441 1.996-1.513 1.331-2.27 3.855-2.27 7.574v15.859h-4.922"/><path d="m421.67 996.36v-3.664c-1.841 2.88-4.548 4.32-8.121 4.32-2.315 0-4.448-.638-6.398-1.914-1.932-1.276-3.436-3.053-4.512-5.332-1.057-2.297-1.586-4.931-1.586-7.902 0-2.898.483-5.523 1.449-7.875.966-2.37 2.415-4.184 4.348-5.441 1.932-1.258 4.092-1.887 6.48-1.887 1.75 0 3.309.374 4.676 1.121 1.367.729 2.479 1.686 3.336 2.871v-14.383h4.895v40.09h-4.566m-15.559-14.492c0 3.719.784 6.499 2.352 8.34 1.568 1.841 3.418 2.762 5.551 2.762 2.151 0 3.974-.875 5.469-2.625 1.513-1.768 2.27-4.457 2.27-8.07 0-3.974-.766-6.891-2.297-8.75-1.531-1.859-3.418-2.789-5.66-2.789-2.188 0-4.02.893-5.496 2.68-1.458 1.786-2.188 4.603-2.188 8.449"/></g></g><path d="m40.03 644.36h431.95a.0271 .0097 0 0 1 .027 .01v287.98a.0271 .0097 0 0 1 -.027 .01h-431.95a.0271 .0097 0 0 1 -.0271 -.01v-287.98a.0271 .0097 0 0 1 .0271 -.01" style="fill:#fdffff;stroke:#fff;stroke-linecap:square;stroke-width:8;stroke-dashoffset:354.33"/><g><g><path d="m90.81 769.66l3.03.766c-.635 2.49-1.781 4.391-3.438 5.703-1.646 1.302-3.661 1.953-6.05 1.953-2.469 0-4.479-.5-6.03-1.5-1.542-1.01-2.719-2.469-3.531-4.375-.802-1.906-1.203-3.953-1.203-6.141 0-2.385.453-4.464 1.359-6.234.917-1.781 2.214-3.13 3.891-4.047 1.687-.927 3.542-1.391 5.563-1.391 2.292 0 4.219.583 5.781 1.75 1.562 1.167 2.651 2.807 3.266 4.922l-2.984.703c-.531-1.667-1.302-2.88-2.313-3.641-1.01-.76-2.281-1.141-3.813-1.141-1.76 0-3.234.422-4.422 1.266-1.177.844-2.01 1.979-2.484 3.406-.479 1.417-.719 2.88-.719 4.391 0 1.948.281 3.651.844 5.109.573 1.448 1.458 2.531 2.656 3.25 1.198.719 2.495 1.078 3.891 1.078 1.698 0 3.135-.49 4.313-1.469 1.177-.979 1.974-2.432 2.391-4.359"/><path d="m96.19 769.4c0-3.073.854-5.349 2.563-6.828 1.427-1.229 3.167-1.844 5.219-1.844 2.281 0 4.146.75 5.594 2.25 1.448 1.49 2.172 3.552 2.172 6.188 0 2.135-.323 3.818-.969 5.05-.635 1.219-1.568 2.167-2.797 2.844-1.219.677-2.552 1.016-4 1.016-2.323 0-4.203-.745-5.641-2.234-1.427-1.49-2.141-3.635-2.141-6.438m2.891 0c0 2.125.464 3.719 1.391 4.781.927 1.052 2.094 1.578 3.5 1.578 1.396 0 2.557-.531 3.484-1.594.927-1.062 1.391-2.682 1.391-4.859 0-2.052-.469-3.604-1.406-4.656-.927-1.062-2.083-1.594-3.469-1.594-1.406 0-2.573.526-3.5 1.578-.927 1.052-1.391 2.641-1.391 4.766"/><path d="m115.05 777.7v-16.594h2.516v2.328c.521-.812 1.214-1.464 2.078-1.953.865-.5 1.849-.75 2.953-.75 1.229 0 2.234.255 3.02.766.792.51 1.349 1.224 1.672 2.141 1.312-1.937 3.02-2.906 5.125-2.906 1.646 0 2.911.458 3.797 1.375.885.906 1.328 2.307 1.328 4.203v11.391h-2.797v-10.453c0-1.125-.094-1.932-.281-2.422-.177-.5-.505-.901-.984-1.203-.479-.302-1.042-.453-1.688-.453-1.167 0-2.135.391-2.906 1.172-.771.771-1.156 2.01-1.156 3.719v9.641h-2.813v-10.781c0-1.25-.229-2.187-.688-2.813-.458-.625-1.208-.937-2.25-.938-.792 0-1.526.208-2.203.625-.667.417-1.151 1.026-1.453 1.828-.302.802-.453 1.958-.453 3.469v8.609h-2.813"/><path d="m141.8 777.7v-16.594h2.516v2.328c.521-.812 1.214-1.464 2.078-1.953.865-.5 1.849-.75 2.953-.75 1.229 0 2.234.255 3.02.766.792.51 1.349 1.224 1.672 2.141 1.312-1.937 3.02-2.906 5.125-2.906 1.646 0 2.911.458 3.797 1.375.885.906 1.328 2.307 1.328 4.203v11.391h-2.797v-10.453c0-1.125-.094-1.932-.281-2.422-.177-.5-.505-.901-.984-1.203-.479-.302-1.042-.453-1.688-.453-1.167 0-2.135.391-2.906 1.172-.771.771-1.156 2.01-1.156 3.719v9.641h-2.813v-10.781c0-1.25-.229-2.187-.688-2.813-.458-.625-1.208-.937-2.25-.938-.792 0-1.526.208-2.203.625-.667.417-1.151 1.026-1.453 1.828-.302.802-.453 1.958-.453 3.469v8.609h-2.813"/><path d="m179.38 775.65c-1.042.885-2.047 1.51-3.02 1.875-.958.365-1.99.547-3.094.547-1.823 0-3.224-.443-4.203-1.328-.979-.896-1.469-2.036-1.469-3.422 0-.812.182-1.552.547-2.219.375-.677.859-1.219 1.453-1.625.604-.406 1.281-.714 2.031-.922.552-.146 1.385-.286 2.5-.422 2.271-.271 3.943-.594 5.02-.969.01-.385.016-.63.016-.734 0-1.146-.266-1.953-.797-2.422-.719-.635-1.786-.953-3.203-.953-1.323 0-2.302.234-2.938.703-.625.458-1.089 1.276-1.391 2.453l-2.75-.375c.25-1.177.661-2.125 1.234-2.844.573-.729 1.401-1.286 2.484-1.672 1.083-.396 2.339-.594 3.766-.594 1.417 0 2.568.167 3.453.5.885.333 1.536.755 1.953 1.266.417.5.708 1.135.875 1.906.094.479.141 1.344.141 2.594v3.75c0 2.615.057 4.271.172 4.969.125.688.365 1.349.719 1.984h-2.938c-.292-.583-.479-1.266-.563-2.047m-.234-6.281c-1.021.417-2.552.771-4.594 1.063-1.156.167-1.974.354-2.453.563-.479.208-.849.516-1.109.922-.26.396-.391.839-.391 1.328 0 .75.281 1.375.844 1.875.573.5 1.406.75 2.5.75 1.083 0 2.047-.234 2.891-.703.844-.479 1.464-1.13 1.859-1.953.302-.635.453-1.573.453-2.813v-1.031"/><path d="m186.36 777.7v-16.594h2.531v2.359c1.219-1.823 2.979-2.734 5.281-2.734 1 0 1.917.182 2.75.547.844.354 1.474.823 1.891 1.406.417.583.708 1.276.875 2.078.104.521.156 1.432.156 2.734v10.203h-2.813v-10.09c0-1.146-.109-2-.328-2.563-.219-.573-.609-1.026-1.172-1.359-.552-.344-1.203-.516-1.953-.516-1.198 0-2.234.38-3.109 1.141-.865.76-1.297 2.203-1.297 4.328v9.06h-2.813"/><path d="m214.94 777.7v-2.094c-1.052 1.646-2.599 2.469-4.641 2.469-1.323 0-2.542-.365-3.656-1.094-1.104-.729-1.964-1.745-2.578-3.047-.604-1.313-.906-2.818-.906-4.516 0-1.656.276-3.156.828-4.5.552-1.354 1.38-2.391 2.484-3.109 1.104-.719 2.339-1.078 3.703-1.078 1 0 1.891.214 2.672.641.781.417 1.417.964 1.906 1.641v-8.219h2.797v22.906h-2.609m-8.891-8.281c0 2.125.448 3.714 1.344 4.766.896 1.052 1.953 1.578 3.172 1.578 1.229 0 2.271-.5 3.125-1.5.865-1.01 1.297-2.547 1.297-4.609 0-2.271-.438-3.937-1.313-5-.875-1.062-1.953-1.594-3.234-1.594-1.25 0-2.297.51-3.141 1.531-.833 1.021-1.25 2.63-1.25 4.828"/><path d="m222.77 764.31v-3.203h3.203v3.203h-3.203m0 13.391v-3.203h3.203v3.203h-3.203"/><path d="m239.67 777.7v-22.906h2.813v22.906h-2.813"/><path d="m246.88 758.02v-3.234h2.813v3.234h-2.813m0 19.672v-16.594h2.813v16.594h-2.813"/><path d="m253.98 777.7v-16.594h2.531v2.359c1.219-1.823 2.979-2.734 5.281-2.734 1 0 1.917.182 2.75.547.844.354 1.474.823 1.891 1.406.417.583.708 1.276.875 2.078.104.521.156 1.432.156 2.734v10.203h-2.813v-10.09c0-1.146-.109-2-.328-2.563-.219-.573-.609-1.026-1.172-1.359-.552-.344-1.203-.516-1.953-.516-1.198 0-2.234.38-3.109 1.141-.865.76-1.297 2.203-1.297 4.328v9.06h-2.813"/><path d="m283.16 772.35l2.906.359c-.458 1.698-1.307 3.02-2.547 3.953-1.24.938-2.823 1.406-4.75 1.406-2.427 0-4.354-.745-5.781-2.234-1.417-1.5-2.125-3.599-2.125-6.297 0-2.792.719-4.958 2.156-6.5 1.438-1.542 3.302-2.312 5.594-2.313 2.219 0 4.03.755 5.438 2.266 1.406 1.51 2.109 3.635 2.109 6.375 0 .167-.005.417-.016.75h-12.375c.104 1.823.62 3.219 1.547 4.188.927.969 2.083 1.453 3.469 1.453 1.031 0 1.911-.271 2.641-.813.729-.542 1.307-1.406 1.734-2.594m-9.234-4.547h9.266c-.125-1.396-.479-2.443-1.063-3.141-.896-1.083-2.057-1.625-3.484-1.625-1.292 0-2.38.432-3.266 1.297-.875.865-1.359 2.02-1.453 3.469"/></g><g><path d="m90.81 716.33l3.03.766c-.635 2.49-1.781 4.391-3.438 5.703-1.646 1.302-3.661 1.953-6.05 1.953-2.469 0-4.479-.5-6.03-1.5-1.542-1.01-2.719-2.469-3.531-4.375-.802-1.906-1.203-3.953-1.203-6.141 0-2.385.453-4.464 1.359-6.234.917-1.781 2.214-3.13 3.891-4.047 1.687-.927 3.542-1.391 5.563-1.391 2.292 0 4.219.583 5.781 1.75 1.562 1.167 2.651 2.807 3.266 4.922l-2.984.703c-.531-1.667-1.302-2.88-2.313-3.641-1.01-.76-2.281-1.141-3.813-1.141-1.76 0-3.234.422-4.422 1.266-1.177.844-2.01 1.979-2.484 3.406-.479 1.417-.719 2.88-.719 4.391 0 1.948.281 3.651.844 5.109.573 1.448 1.458 2.531 2.656 3.25 1.198.719 2.495 1.078 3.891 1.078 1.698 0 3.135-.49 4.313-1.469 1.177-.979 1.974-2.432 2.391-4.359"/><path d="m96.19 716.07c0-3.073.854-5.349 2.563-6.828 1.427-1.229 3.167-1.844 5.219-1.844 2.281 0 4.146.75 5.594 2.25 1.448 1.49 2.172 3.552 2.172 6.188 0 2.135-.323 3.818-.969 5.05-.635 1.219-1.568 2.167-2.797 2.844-1.219.677-2.552 1.016-4 1.016-2.323 0-4.203-.745-5.641-2.234-1.427-1.49-2.141-3.635-2.141-6.438m2.891 0c0 2.125.464 3.719 1.391 4.781.927 1.052 2.094 1.578 3.5 1.578 1.396 0 2.557-.531 3.484-1.594.927-1.063 1.391-2.682 1.391-4.859 0-2.052-.469-3.604-1.406-4.656-.927-1.062-2.083-1.594-3.469-1.594-1.406 0-2.573.526-3.5 1.578-.927 1.052-1.391 2.641-1.391 4.766"/><path d="m115.05 724.36v-16.594h2.516v2.328c.521-.812 1.214-1.464 2.078-1.953.865-.5 1.849-.75 2.953-.75 1.229 0 2.234.255 3.02.766.792.51 1.349 1.224 1.672 2.141 1.312-1.937 3.02-2.906 5.125-2.906 1.646 0 2.911.458 3.797 1.375.885.906 1.328 2.307 1.328 4.203v11.391h-2.797v-10.453c0-1.125-.094-1.932-.281-2.422-.177-.5-.505-.901-.984-1.203-.479-.302-1.042-.453-1.688-.453-1.167 0-2.135.391-2.906 1.172-.771.771-1.156 2.01-1.156 3.719v9.641h-2.813v-10.781c0-1.25-.229-2.187-.688-2.813-.458-.625-1.208-.937-2.25-.938-.792 0-1.526.208-2.203.625-.667.417-1.151 1.026-1.453 1.828-.302.802-.453 1.958-.453 3.469v8.609h-2.813"/><path d="m141.8 724.36v-16.594h2.516v2.328c.521-.812 1.214-1.464 2.078-1.953.865-.5 1.849-.75 2.953-.75 1.229 0 2.234.255 3.02.766.792.51 1.349 1.224 1.672 2.141 1.312-1.937 3.02-2.906 5.125-2.906 1.646 0 2.911.458 3.797 1.375.885.906 1.328 2.307 1.328 4.203v11.391h-2.797v-10.453c0-1.125-.094-1.932-.281-2.422-.177-.5-.505-.901-.984-1.203-.479-.302-1.042-.453-1.688-.453-1.167 0-2.135.391-2.906 1.172-.771.771-1.156 2.01-1.156 3.719v9.641h-2.813v-10.781c0-1.25-.229-2.187-.688-2.813-.458-.625-1.208-.937-2.25-.938-.792 0-1.526.208-2.203.625-.667.417-1.151 1.026-1.453 1.828-.302.802-.453 1.958-.453 3.469v8.609h-2.813"/><path d="m179.38 722.32c-1.042.885-2.047 1.51-3.02 1.875-.958.365-1.99.547-3.094.547-1.823 0-3.224-.443-4.203-1.328-.979-.896-1.469-2.036-1.469-3.422 0-.813.182-1.552.547-2.219.375-.677.859-1.219 1.453-1.625.604-.406 1.281-.714 2.031-.922.552-.146 1.385-.286 2.5-.422 2.271-.271 3.943-.594 5.02-.969.01-.385.016-.63.016-.734 0-1.146-.266-1.953-.797-2.422-.719-.635-1.786-.953-3.203-.953-1.323 0-2.302.234-2.938.703-.625.458-1.089 1.276-1.391 2.453l-2.75-.375c.25-1.177.661-2.125 1.234-2.844.573-.729 1.401-1.286 2.484-1.672 1.083-.396 2.339-.594 3.766-.594 1.417 0 2.568.167 3.453.5.885.333 1.536.755 1.953 1.266.417.5.708 1.135.875 1.906.094.479.141 1.344.141 2.594v3.75c0 2.615.057 4.271.172 4.969.125.688.365 1.349.719 1.984h-2.938c-.292-.583-.479-1.266-.563-2.047m-.234-6.281c-1.021.417-2.552.771-4.594 1.063-1.156.167-1.974.354-2.453.563-.479.208-.849.516-1.109.922-.26.396-.391.839-.391 1.328 0 .75.281 1.375.844 1.875.573.5 1.406.75 2.5.75 1.083 0 2.047-.234 2.891-.703.844-.479 1.464-1.13 1.859-1.953.302-.635.453-1.573.453-2.813v-1.031"/><path d="m186.36 724.36v-16.594h2.531v2.359c1.219-1.823 2.979-2.734 5.281-2.734 1 0 1.917.182 2.75.547.844.354 1.474.823 1.891 1.406.417.583.708 1.276.875 2.078.104.521.156 1.432.156 2.734v10.203h-2.813v-10.09c0-1.146-.109-2-.328-2.563-.219-.573-.609-1.026-1.172-1.359-.552-.344-1.203-.516-1.953-.516-1.198 0-2.234.38-3.109 1.141-.865.76-1.297 2.203-1.297 4.328v9.06h-2.813"/><path d="m214.94 724.36v-2.094c-1.052 1.646-2.599 2.469-4.641 2.469-1.323 0-2.542-.365-3.656-1.094-1.104-.729-1.964-1.745-2.578-3.047-.604-1.312-.906-2.818-.906-4.516 0-1.656.276-3.156.828-4.5.552-1.354 1.38-2.391 2.484-3.109 1.104-.719 2.339-1.078 3.703-1.078 1 0 1.891.214 2.672.641.781.417 1.417.964 1.906 1.641v-8.219h2.797v22.906h-2.609m-8.891-8.281c0 2.125.448 3.714 1.344 4.766.896 1.052 1.953 1.578 3.172 1.578 1.229 0 2.271-.5 3.125-1.5.865-1.01 1.297-2.547 1.297-4.609 0-2.271-.438-3.937-1.313-5-.875-1.062-1.953-1.594-3.234-1.594-1.25 0-2.297.51-3.141 1.531-.833 1.021-1.25 2.63-1.25 4.828"/><path d="m222.77 710.97v-3.203h3.203v3.203h-3.203m0 13.391v-3.203h3.203v3.203h-3.203"/><path d="m239.73 724.36v-16.594h2.531v2.359c1.219-1.823 2.979-2.734 5.281-2.734 1 0 1.917.182 2.75.547.844.354 1.474.823 1.891 1.406.417.583.708 1.276.875 2.078.104.521.156 1.432.156 2.734v10.203h-2.813v-10.09c0-1.146-.109-2-.328-2.563-.219-.573-.609-1.026-1.172-1.359-.552-.344-1.203-.516-1.953-.516-1.198 0-2.234.38-3.109 1.141-.865.76-1.297 2.203-1.297 4.328v9.06h-2.813"/><path d="m268.91 719.02l2.906.359c-.458 1.698-1.307 3.02-2.547 3.953-1.24.938-2.823 1.406-4.75 1.406-2.427 0-4.354-.745-5.781-2.234-1.417-1.5-2.125-3.599-2.125-6.297 0-2.792.719-4.958 2.156-6.5 1.438-1.542 3.302-2.312 5.594-2.313 2.219 0 4.03.755 5.438 2.266 1.406 1.51 2.109 3.635 2.109 6.375 0 .167-.005.417-.016.75h-12.375c.104 1.823.62 3.219 1.547 4.188.927.969 2.083 1.453 3.469 1.453 1.031 0 1.911-.271 2.641-.813.729-.542 1.307-1.406 1.734-2.594m-9.234-4.547h9.266c-.125-1.396-.479-2.443-1.063-3.141-.896-1.083-2.057-1.625-3.484-1.625-1.292 0-2.38.432-3.266 1.297-.875.865-1.359 2.02-1.453 3.469"/><path d="m278.42 724.36l-5.078-16.594h2.906l2.641 9.578.984 3.563c.042-.177.328-1.318.859-3.422l2.641-9.719h2.891l2.484 9.625.828 3.172.953-3.203 2.844-9.594h2.734l-5.188 16.594h-2.922l-2.641-9.938-.641-2.828-3.359 12.766h-2.938"/></g><g><path d="m90.81 876.33l3.03.766c-.635 2.49-1.781 4.391-3.438 5.703-1.646 1.302-3.661 1.953-6.05 1.953-2.469 0-4.479-.5-6.03-1.5-1.542-1.01-2.719-2.469-3.531-4.375-.802-1.906-1.203-3.953-1.203-6.141 0-2.385.453-4.464 1.359-6.234.917-1.781 2.214-3.13 3.891-4.047 1.687-.927 3.542-1.391 5.563-1.391 2.292 0 4.219.583 5.781 1.75 1.562 1.167 2.651 2.807 3.266 4.922l-2.984.703c-.531-1.667-1.302-2.88-2.313-3.641-1.01-.76-2.281-1.141-3.813-1.141-1.76 0-3.234.422-4.422 1.266-1.177.844-2.01 1.979-2.484 3.406-.479 1.417-.719 2.88-.719 4.391 0 1.948.281 3.651.844 5.109.573 1.448 1.458 2.531 2.656 3.25 1.198.719 2.495 1.078 3.891 1.078 1.698 0 3.135-.49 4.313-1.469 1.177-.979 1.974-2.432 2.391-4.359"/><path d="m96.19 876.07c0-3.073.854-5.349 2.563-6.828 1.427-1.229 3.167-1.844 5.219-1.844 2.281 0 4.146.75 5.594 2.25 1.448 1.49 2.172 3.552 2.172 6.188 0 2.135-.323 3.818-.969 5.05-.635 1.219-1.568 2.167-2.797 2.844-1.219.677-2.552 1.016-4 1.016-2.323 0-4.203-.745-5.641-2.234-1.427-1.49-2.141-3.635-2.141-6.438m2.891 0c0 2.125.464 3.719 1.391 4.781.927 1.052 2.094 1.578 3.5 1.578 1.396 0 2.557-.531 3.484-1.594.927-1.063 1.391-2.682 1.391-4.859 0-2.052-.469-3.604-1.406-4.656-.927-1.062-2.083-1.594-3.469-1.594-1.406 0-2.573.526-3.5 1.578-.927 1.052-1.391 2.641-1.391 4.766"/><path d="m114 876.07c0-3.073.854-5.349 2.563-6.828 1.427-1.229 3.167-1.844 5.219-1.844 2.281 0 4.146.75 5.594 2.25 1.448 1.49 2.172 3.552 2.172 6.188 0 2.135-.323 3.818-.969 5.05-.635 1.219-1.568 2.167-2.797 2.844-1.219.677-2.552 1.016-4 1.016-2.323 0-4.203-.745-5.641-2.234-1.427-1.49-2.141-3.635-2.141-6.438m2.891 0c0 2.125.464 3.719 1.391 4.781.927 1.052 2.094 1.578 3.5 1.578 1.396 0 2.557-.531 3.484-1.594.927-1.063 1.391-2.682 1.391-4.859 0-2.052-.469-3.604-1.406-4.656-.927-1.062-2.083-1.594-3.469-1.594-1.406 0-2.573.526-3.5 1.578-.927 1.052-1.391 2.641-1.391 4.766"/><path d="m132.83 884.36v-16.594h2.531v2.516c.646-1.177 1.24-1.953 1.781-2.328.552-.375 1.156-.562 1.813-.563.948 0 1.911.302 2.891.906l-.969 2.609c-.688-.406-1.375-.609-2.063-.609-.615 0-1.167.188-1.656.563-.49.365-.839.875-1.047 1.531-.313 1-.469 2.094-.469 3.281v8.688h-2.813"/><path d="m154.31 884.36v-2.094c-1.052 1.646-2.599 2.469-4.641 2.469-1.323 0-2.542-.365-3.656-1.094-1.104-.729-1.964-1.745-2.578-3.047-.604-1.312-.906-2.818-.906-4.516 0-1.656.276-3.156.828-4.5.552-1.354 1.38-2.391 2.484-3.109 1.104-.719 2.339-1.078 3.703-1.078 1 0 1.891.214 2.672.641.781.417 1.417.964 1.906 1.641v-8.219h2.797v22.906h-2.609m-8.891-8.281c0 2.125.448 3.714 1.344 4.766.896 1.052 1.953 1.578 3.172 1.578 1.229 0 2.271-.5 3.125-1.5.865-1.01 1.297-2.547 1.297-4.609 0-2.271-.438-3.937-1.313-5-.875-1.062-1.953-1.594-3.234-1.594-1.25 0-2.297.51-3.141 1.531-.833 1.021-1.25 2.63-1.25 4.828"/><path d="m161.38 864.69v-3.234h2.813v3.234h-2.813m0 19.672v-16.594h2.813v16.594h-2.813"/><path d="m168.48 884.36v-16.594h2.531v2.359c1.219-1.823 2.979-2.734 5.281-2.734 1 0 1.917.182 2.75.547.844.354 1.474.823 1.891 1.406.417.583.708 1.276.875 2.078.104.521.156 1.432.156 2.734v10.203h-2.813v-10.09c0-1.146-.109-2-.328-2.563-.219-.573-.609-1.026-1.172-1.359-.552-.344-1.203-.516-1.953-.516-1.198 0-2.234.38-3.109 1.141-.865.76-1.297 2.203-1.297 4.328v9.06h-2.813"/><path d="m197.13 882.32c-1.042.885-2.047 1.51-3.02 1.875-.958.365-1.99.547-3.094.547-1.823 0-3.224-.443-4.203-1.328-.979-.896-1.469-2.036-1.469-3.422 0-.813.182-1.552.547-2.219.375-.677.859-1.219 1.453-1.625.604-.406 1.281-.714 2.031-.922.552-.146 1.385-.286 2.5-.422 2.271-.271 3.943-.594 5.02-.969.01-.385.016-.63.016-.734 0-1.146-.266-1.953-.797-2.422-.719-.635-1.786-.953-3.203-.953-1.323 0-2.302.234-2.938.703-.625.458-1.089 1.276-1.391 2.453l-2.75-.375c.25-1.177.661-2.125 1.234-2.844.573-.729 1.401-1.286 2.484-1.672 1.083-.396 2.339-.594 3.766-.594 1.417 0 2.568.167 3.453.5.885.333 1.536.755 1.953 1.266.417.5.708 1.135.875 1.906.094.479.141 1.344.141 2.594v3.75c0 2.615.057 4.271.172 4.969.125.688.365 1.349.719 1.984h-2.938c-.292-.583-.479-1.266-.563-2.047m-.234-6.281c-1.021.417-2.552.771-4.594 1.063-1.156.167-1.974.354-2.453.563-.479.208-.849.516-1.109.922-.26.396-.391.839-.391 1.328 0 .75.281 1.375.844 1.875.573.5 1.406.75 2.5.75 1.083 0 2.047-.234 2.891-.703.844-.479 1.464-1.13 1.859-1.953.302-.635.453-1.573.453-2.813v-1.031"/><path d="m210.25 881.85l.406 2.484c-.792.167-1.5.25-2.125.25-1.021 0-1.813-.161-2.375-.484-.563-.323-.958-.745-1.188-1.266-.229-.531-.344-1.641-.344-3.328v-9.547h-2.063v-2.188h2.063v-4.109l2.797-1.688v5.797h2.828v2.188h-2.828v9.703c0 .802.047 1.318.141 1.547.104.229.266.411.484.547.229.135.552.203.969.203.313 0 .724-.036 1.234-.109"/><path d="m224.34 879.02l2.906.359c-.458 1.698-1.307 3.02-2.547 3.953-1.24.938-2.823 1.406-4.75 1.406-2.427 0-4.354-.745-5.781-2.234-1.417-1.5-2.125-3.599-2.125-6.297 0-2.792.719-4.958 2.156-6.5 1.438-1.542 3.302-2.312 5.594-2.313 2.219 0 4.03.755 5.438 2.266 1.406 1.51 2.109 3.635 2.109 6.375 0 .167-.005.417-.016.75h-12.375c.104 1.823.62 3.219 1.547 4.188.927.969 2.083 1.453 3.469 1.453 1.031 0 1.911-.271 2.641-.813.729-.542 1.307-1.406 1.734-2.594m-9.234-4.547h9.266c-.125-1.396-.479-2.443-1.063-3.141-.896-1.083-2.057-1.625-3.484-1.625-1.292 0-2.38.432-3.266 1.297-.875.865-1.359 2.02-1.453 3.469"/><path d="m231.58 870.97v-3.203h3.203v3.203h-3.203m0 13.391v-3.203h3.203v3.203h-3.203"/><path d="m247.77 878.36l2.953-.25c.219 1.438.724 2.521 1.516 3.25.802.719 1.766 1.078 2.891 1.078 1.354 0 2.5-.51 3.438-1.531.937-1.021 1.406-2.375 1.406-4.063 0-1.604-.453-2.87-1.359-3.797-.896-.927-2.073-1.391-3.531-1.391-.906 0-1.724.208-2.453.625-.729.406-1.302.938-1.719 1.594l-2.641-.344 2.219-11.766h11.391v2.688h-9.141l-1.234 6.156c1.375-.958 2.818-1.437 4.328-1.438 2 0 3.687.693 5.063 2.078 1.375 1.385 2.062 3.167 2.063 5.344 0 2.073-.604 3.865-1.813 5.375-1.469 1.854-3.474 2.781-6.02 2.781-2.083 0-3.786-.583-5.109-1.75-1.313-1.167-2.063-2.714-2.25-4.641"/><path d="m265.58 873.07c0-2.708.276-4.885.828-6.531.563-1.656 1.391-2.932 2.484-3.828 1.104-.896 2.49-1.344 4.156-1.344 1.229 0 2.307.25 3.234.75.927.49 1.693 1.203 2.297 2.141.604.927 1.078 2.063 1.422 3.406.344 1.333.516 3.135.516 5.406 0 2.688-.276 4.859-.828 6.516-.552 1.646-1.38 2.922-2.484 3.828-1.094.896-2.479 1.344-4.156 1.344-2.208 0-3.943-.792-5.203-2.375-1.51-1.906-2.266-5.01-2.266-9.313m2.891 0c0 3.76.438 6.266 1.313 7.516.885 1.24 1.974 1.859 3.266 1.859 1.292 0 2.375-.625 3.25-1.875.885-1.25 1.328-3.75 1.328-7.5 0-3.771-.443-6.276-1.328-7.516-.875-1.24-1.969-1.859-3.281-1.859-1.292 0-2.323.547-3.094 1.641-.969 1.396-1.453 3.974-1.453 7.734"/><path d="m284.91 884.36v-3.203h3.203v3.203c0 1.177-.208 2.125-.625 2.844-.417.729-1.078 1.292-1.984 1.688l-.781-1.203c.594-.26 1.031-.646 1.313-1.156.281-.5.438-1.224.469-2.172h-1.594"/><path d="m302.86 884.36h-2.813v-17.922c-.677.646-1.568 1.292-2.672 1.938-1.094.646-2.078 1.13-2.953 1.453v-2.719c1.573-.74 2.948-1.635 4.125-2.688 1.177-1.052 2.01-2.073 2.5-3.063h1.813v23"/><path d="m310.08 873.07c0-2.708.276-4.885.828-6.531.563-1.656 1.391-2.932 2.484-3.828 1.104-.896 2.49-1.344 4.156-1.344 1.229 0 2.307.25 3.234.75.927.49 1.693 1.203 2.297 2.141.604.927 1.078 2.063 1.422 3.406.344 1.333.516 3.135.516 5.406 0 2.688-.276 4.859-.828 6.516-.552 1.646-1.38 2.922-2.484 3.828-1.094.896-2.479 1.344-4.156 1.344-2.208 0-3.943-.792-5.203-2.375-1.51-1.906-2.266-5.01-2.266-9.313m2.891 0c0 3.76.438 6.266 1.313 7.516.885 1.24 1.974 1.859 3.266 1.859 1.292 0 2.375-.625 3.25-1.875.885-1.25 1.328-3.75 1.328-7.5 0-3.771-.443-6.276-1.328-7.516-.875-1.24-1.969-1.859-3.281-1.859-1.292 0-2.323.547-3.094 1.641-.969 1.396-1.453 3.974-1.453 7.734"/><path d="m327.89 873.07c0-2.708.276-4.885.828-6.531.563-1.656 1.391-2.932 2.484-3.828 1.104-.896 2.49-1.344 4.156-1.344 1.229 0 2.307.25 3.234.75.927.49 1.693 1.203 2.297 2.141.604.927 1.078 2.063 1.422 3.406.344 1.333.516 3.135.516 5.406 0 2.688-.276 4.859-.828 6.516-.552 1.646-1.38 2.922-2.484 3.828-1.094.896-2.479 1.344-4.156 1.344-2.208 0-3.943-.792-5.203-2.375-1.51-1.906-2.266-5.01-2.266-9.313m2.891 0c0 3.76.438 6.266 1.313 7.516.885 1.24 1.974 1.859 3.266 1.859 1.292 0 2.375-.625 3.25-1.875.885-1.25 1.328-3.75 1.328-7.5 0-3.771-.443-6.276-1.328-7.516-.875-1.24-1.969-1.859-3.281-1.859-1.292 0-2.323.547-3.094 1.641-.969 1.396-1.453 3.974-1.453 7.734"/></g><g><path d="m90.81 823l3.03.766c-.635 2.49-1.781 4.391-3.438 5.703-1.646 1.302-3.661 1.953-6.05 1.953-2.469 0-4.479-.5-6.03-1.5-1.542-1.01-2.719-2.469-3.531-4.375-.802-1.906-1.203-3.953-1.203-6.141 0-2.385.453-4.464 1.359-6.234.917-1.781 2.214-3.13 3.891-4.047 1.687-.927 3.542-1.391 5.563-1.391 2.292 0 4.219.583 5.781 1.75 1.562 1.167 2.651 2.807 3.266 4.922l-2.984.703c-.531-1.667-1.302-2.88-2.313-3.641-1.01-.76-2.281-1.141-3.813-1.141-1.76 0-3.234.422-4.422 1.266-1.177.844-2.01 1.979-2.484 3.406-.479 1.417-.719 2.88-.719 4.391 0 1.948.281 3.651.844 5.109.573 1.448 1.458 2.531 2.656 3.25 1.198.719 2.495 1.078 3.891 1.078 1.698 0 3.135-.49 4.313-1.469 1.177-.979 1.974-2.432 2.391-4.359"/><path d="m96.19 822.73c0-3.073.854-5.349 2.563-6.828 1.427-1.229 3.167-1.844 5.219-1.844 2.281 0 4.146.75 5.594 2.25 1.448 1.49 2.172 3.552 2.172 6.188 0 2.135-.323 3.818-.969 5.05-.635 1.219-1.568 2.167-2.797 2.844-1.219.677-2.552 1.016-4 1.016-2.323 0-4.203-.745-5.641-2.234-1.427-1.49-2.141-3.635-2.141-6.438m2.891 0c0 2.125.464 3.719 1.391 4.781.927 1.052 2.094 1.578 3.5 1.578 1.396 0 2.557-.531 3.484-1.594.927-1.062 1.391-2.682 1.391-4.859 0-2.052-.469-3.604-1.406-4.656-.927-1.062-2.083-1.594-3.469-1.594-1.406 0-2.573.526-3.5 1.578-.927 1.052-1.391 2.641-1.391 4.766"/><path d="m114 822.73c0-3.073.854-5.349 2.563-6.828 1.427-1.229 3.167-1.844 5.219-1.844 2.281 0 4.146.75 5.594 2.25 1.448 1.49 2.172 3.552 2.172 6.188 0 2.135-.323 3.818-.969 5.05-.635 1.219-1.568 2.167-2.797 2.844-1.219.677-2.552 1.016-4 1.016-2.323 0-4.203-.745-5.641-2.234-1.427-1.49-2.141-3.635-2.141-6.438m2.891 0c0 2.125.464 3.719 1.391 4.781.927 1.052 2.094 1.578 3.5 1.578 1.396 0 2.557-.531 3.484-1.594.927-1.062 1.391-2.682 1.391-4.859 0-2.052-.469-3.604-1.406-4.656-.927-1.062-2.083-1.594-3.469-1.594-1.406 0-2.573.526-3.5 1.578-.927 1.052-1.391 2.641-1.391 4.766"/><path d="m132.83 831.03v-16.594h2.531v2.516c.646-1.177 1.24-1.953 1.781-2.328.552-.375 1.156-.562 1.813-.563.948 0 1.911.302 2.891.906l-.969 2.609c-.688-.406-1.375-.609-2.063-.609-.615 0-1.167.188-1.656.563-.49.365-.839.875-1.047 1.531-.313 1-.469 2.094-.469 3.281v8.688h-2.813"/><path d="m154.31 831.03v-2.094c-1.052 1.646-2.599 2.469-4.641 2.469-1.323 0-2.542-.365-3.656-1.094-1.104-.729-1.964-1.745-2.578-3.047-.604-1.313-.906-2.818-.906-4.516 0-1.656.276-3.156.828-4.5.552-1.354 1.38-2.391 2.484-3.109 1.104-.719 2.339-1.078 3.703-1.078 1 0 1.891.214 2.672.641.781.417 1.417.964 1.906 1.641v-8.219h2.797v22.906h-2.609m-8.891-8.281c0 2.125.448 3.714 1.344 4.766.896 1.052 1.953 1.578 3.172 1.578 1.229 0 2.271-.5 3.125-1.5.865-1.01 1.297-2.547 1.297-4.609 0-2.271-.438-3.937-1.313-5-.875-1.062-1.953-1.594-3.234-1.594-1.25 0-2.297.51-3.141 1.531-.833 1.021-1.25 2.63-1.25 4.828"/><path d="m161.38 811.36v-3.234h2.813v3.234h-2.813m0 19.672v-16.594h2.813v16.594h-2.813"/><path d="m168.48 831.03v-16.594h2.531v2.359c1.219-1.823 2.979-2.734 5.281-2.734 1 0 1.917.182 2.75.547.844.354 1.474.823 1.891 1.406.417.583.708 1.276.875 2.078.104.521.156 1.432.156 2.734v10.203h-2.813v-10.09c0-1.146-.109-2-.328-2.563-.219-.573-.609-1.026-1.172-1.359-.552-.344-1.203-.516-1.953-.516-1.198 0-2.234.38-3.109 1.141-.865.76-1.297 2.203-1.297 4.328v9.06h-2.813"/><path d="m197.13 828.98c-1.042.885-2.047 1.51-3.02 1.875-.958.365-1.99.547-3.094.547-1.823 0-3.224-.443-4.203-1.328-.979-.896-1.469-2.036-1.469-3.422 0-.812.182-1.552.547-2.219.375-.677.859-1.219 1.453-1.625.604-.406 1.281-.714 2.031-.922.552-.146 1.385-.286 2.5-.422 2.271-.271 3.943-.594 5.02-.969.01-.385.016-.63.016-.734 0-1.146-.266-1.953-.797-2.422-.719-.635-1.786-.953-3.203-.953-1.323 0-2.302.234-2.938.703-.625.458-1.089 1.276-1.391 2.453l-2.75-.375c.25-1.177.661-2.125 1.234-2.844.573-.729 1.401-1.286 2.484-1.672 1.083-.396 2.339-.594 3.766-.594 1.417 0 2.568.167 3.453.5.885.333 1.536.755 1.953 1.266.417.5.708 1.135.875 1.906.094.479.141 1.344.141 2.594v3.75c0 2.615.057 4.271.172 4.969.125.688.365 1.349.719 1.984h-2.938c-.292-.583-.479-1.266-.563-2.047m-.234-6.281c-1.021.417-2.552.771-4.594 1.063-1.156.167-1.974.354-2.453.563-.479.208-.849.516-1.109.922-.26.396-.391.839-.391 1.328 0 .75.281 1.375.844 1.875.573.5 1.406.75 2.5.75 1.083 0 2.047-.234 2.891-.703.844-.479 1.464-1.13 1.859-1.953.302-.635.453-1.573.453-2.813v-1.031"/><path d="m210.25 828.51l.406 2.484c-.792.167-1.5.25-2.125.25-1.021 0-1.813-.161-2.375-.484-.563-.323-.958-.745-1.188-1.266-.229-.531-.344-1.641-.344-3.328v-9.547h-2.063v-2.188h2.063v-4.109l2.797-1.688v5.797h2.828v2.188h-2.828v9.703c0 .802.047 1.318.141 1.547.104.229.266.411.484.547.229.135.552.203.969.203.313 0 .724-.036 1.234-.109"/><path d="m224.34 825.69l2.906.359c-.458 1.698-1.307 3.02-2.547 3.953-1.24.938-2.823 1.406-4.75 1.406-2.427 0-4.354-.745-5.781-2.234-1.417-1.5-2.125-3.599-2.125-6.297 0-2.792.719-4.958 2.156-6.5 1.438-1.542 3.302-2.312 5.594-2.313 2.219 0 4.03.755 5.438 2.266 1.406 1.51 2.109 3.635 2.109 6.375 0 .167-.005.417-.016.75h-12.375c.104 1.823.62 3.219 1.547 4.188.927.969 2.083 1.453 3.469 1.453 1.031 0 1.911-.271 2.641-.813.729-.542 1.307-1.406 1.734-2.594m-9.234-4.547h9.266c-.125-1.396-.479-2.443-1.063-3.141-.896-1.083-2.057-1.625-3.484-1.625-1.292 0-2.38.432-3.266 1.297-.875.865-1.359 2.02-1.453 3.469"/><path d="m231.58 817.64v-3.203h3.203v3.203h-3.203m0 13.391v-3.203h3.203v3.203h-3.203"/><path d="m258.36 831.03h-2.813v-17.922c-.677.646-1.568 1.292-2.672 1.938-1.094.646-2.078 1.13-2.953 1.453v-2.719c1.573-.74 2.948-1.635 4.125-2.688 1.177-1.052 2.01-2.073 2.5-3.063h1.813v23"/><path d="m265.58 819.73c0-2.708.276-4.885.828-6.531.563-1.656 1.391-2.932 2.484-3.828 1.104-.896 2.49-1.344 4.156-1.344 1.229 0 2.307.25 3.234.75.927.49 1.693 1.203 2.297 2.141.604.927 1.078 2.063 1.422 3.406.344 1.333.516 3.135.516 5.406 0 2.688-.276 4.859-.828 6.516-.552 1.646-1.38 2.922-2.484 3.828-1.094.896-2.479 1.344-4.156 1.344-2.208 0-3.943-.792-5.203-2.375-1.51-1.906-2.266-5.01-2.266-9.313m2.891 0c0 3.76.438 6.266 1.313 7.516.885 1.24 1.974 1.859 3.266 1.859 1.292 0 2.375-.625 3.25-1.875.885-1.25 1.328-3.75 1.328-7.5 0-3.771-.443-6.276-1.328-7.516-.875-1.24-1.969-1.859-3.281-1.859-1.292 0-2.323.547-3.094 1.641-.969 1.396-1.453 3.974-1.453 7.734"/><path d="m284.91 831.03v-3.203h3.203v3.203c0 1.177-.208 2.125-.625 2.844-.417.729-1.078 1.292-1.984 1.688l-.781-1.203c.594-.26 1.031-.646 1.313-1.156.281-.5.438-1.224.469-2.172h-1.594"/><path d="m301.28 831.03v-5.484h-9.938v-2.578l10.453-14.844h2.297v14.844h3.094v2.578h-3.094v5.484h-2.813m0-8.06v-10.328l-7.172 10.328h7.172"/><path d="m310.08 819.73c0-2.708.276-4.885.828-6.531.563-1.656 1.391-2.932 2.484-3.828 1.104-.896 2.49-1.344 4.156-1.344 1.229 0 2.307.25 3.234.75.927.49 1.693 1.203 2.297 2.141.604.927 1.078 2.063 1.422 3.406.344 1.333.516 3.135.516 5.406 0 2.688-.276 4.859-.828 6.516-.552 1.646-1.38 2.922-2.484 3.828-1.094.896-2.479 1.344-4.156 1.344-2.208 0-3.943-.792-5.203-2.375-1.51-1.906-2.266-5.01-2.266-9.313m2.891 0c0 3.76.438 6.266 1.313 7.516.885 1.24 1.974 1.859 3.266 1.859 1.292 0 2.375-.625 3.25-1.875.885-1.25 1.328-3.75 1.328-7.5 0-3.771-.443-6.276-1.328-7.516-.875-1.24-1.969-1.859-3.281-1.859-1.292 0-2.323.547-3.094 1.641-.969 1.396-1.453 3.974-1.453 7.734"/></g></g></g></svg>
