<?xml version="1.0" encoding="UTF-8" standalone="no"?>
<svg
   xmlns:dc="http://purl.org/dc/elements/1.1/"
   xmlns:cc="http://creativecommons.org/ns#"
   xmlns:rdf="http://www.w3.org/1999/02/22-rdf-syntax-ns#"
   xmlns:svg="http://www.w3.org/2000/svg"
   xmlns="http://www.w3.org/2000/svg"
   xmlns:sodipodi="http://sodipodi.sourceforge.net/DTD/sodipodi-0.dtd"
   xmlns:inkscape="http://www.inkscape.org/namespaces/inkscape"
   width="512"
   height="512"
   id="svg4724"
   version="1.1"
   inkscape:version="0.48.2 r9819"
   sodipodi:docname="CommandLine.svg">
  <metadata
     id="metadata4804">
    <rdf:RDF>
      <cc:Work
         rdf:about="">
        <dc:format>image/svg+xml</dc:format>
        <dc:type
           rdf:resource="http://purl.org/dc/dcmitype/StillImage" />
      </cc:Work>
    </rdf:RDF>
  </metadata>
  <sodipodi:namedview
     pagecolor="#ffffff"
     bordercolor="#666666"
     borderopacity="1"
     objecttolerance="10"
     gridtolerance="10"
     guidetolerance="10"
     inkscape:pageopacity="0"
     inkscape:pageshadow="2"
     inkscape:window-width="1274"
     inkscape:window-height="906"
     id="namedview4802"
     showgrid="false"
     inkscape:zoom="1.3037281"
     inkscape:cx="256"
     inkscape:cy="256"
     inkscape:window-x="782"
     inkscape:window-y="227"
     inkscape:window-maximized="0"
     inkscape:current-layer="g4770" />
  <defs
     id="defs4726">
    <clipPath
       clipPathUnits="userSpaceOnUse"
       id="clipPath4728">
      <path
         fill="none"
         stroke="#0f0"
         color="#000"
         stroke-width="2.399"
         d="m-1232.6874,355.1505c29.2402,0 52.96,23.6823 52.96,52.9226 0,29.2402-23.7198,52.9599-52.96,52.9599-29.2403,0-52.96-23.7197-52.96-52.9599 0-29.2403 23.7197-52.9226 52.96-52.9226z"
         id="path4730" />
    </clipPath>
    <clipPath
       clipPathUnits="userSpaceOnUse"
       id="clipPath4732">
      <path
         fill="none"
         stroke="#0f0"
         color="#000"
         stroke-width="2.399"
         d="m-1232.6874,355.1505c29.2402,0 52.96,23.6823 52.96,52.9226 0,29.2402-23.7198,52.9599-52.96,52.9599-29.2403,0-52.96-23.7197-52.96-52.9599 0-29.2403 23.7197-52.9226 52.96-52.9226z"
         id="path4734" />
    </clipPath>
    <clipPath
       clipPathUnits="userSpaceOnUse"
       id="clipPath4736">
      <path
         fill="#0f0"
         stroke="#0f0"
         color="#000"
         stroke-width="2.033"
         d="m141.1284,537.5701c-33.6977-14.7314-74.1905-1.9343-90.4551,28.587-16.2646,30.5213-2.1355,67.1971 31.5621,81.9285 33.6977,14.7314 74.1905,1.9343 90.4551-28.587 16.2646-30.5213 2.1355-67.1971-31.5621-81.9285zm-8.9572,16.8087c23.4461,10.2498 33.3001,35.7639 21.9836,56.9999-11.3165,21.236-39.516,30.148-62.962,19.8982-23.4461-10.2498-33.2856-35.7911-21.9691-57.0271 11.3165-21.236 39.5015-30.1208 62.9476-19.871zm8.9572-16.8087c-33.6977-14.7314-74.1905-1.9343-90.4551,28.587-16.2646,30.5213-2.1355,67.1971 31.5621,81.9285 33.6977,14.7314 74.1905,1.9343 90.4551-28.587 16.2646-30.5213 2.1355-67.1971-31.5621-81.9285zm-8.9645,16.8223c23.4461,10.2498 33.3001,35.7639 21.9836,56.9999-11.3165,21.236-39.516,30.1481-62.9621,19.8983-23.4461-10.2498-33.2856-35.7912-21.9691-57.0272 11.3165-21.236 39.5015-30.1208 62.9476-19.871z"
         id="path4738" />
    </clipPath>
    <clipPath
       clipPathUnits="userSpaceOnUse"
       id="clipPath4740">
      <path
         fill="#0f0"
         stroke="#0f0"
         color="#000"
         stroke-width="2.033"
         d="m141.1284,537.5701c-33.6977-14.7314-74.1905-1.9343-90.4551,28.587-16.2646,30.5213-2.1355,67.1971 31.5621,81.9285 33.6977,14.7314 74.1905,1.9343 90.4551-28.587 16.2646-30.5213 2.1355-67.1971-31.5621-81.9285zm-8.9572,16.8087c23.4461,10.2498 33.3001,35.7639 21.9836,56.9999-11.3165,21.236-39.516,30.148-62.962,19.8982-23.4461-10.2498-33.2856-35.7911-21.9691-57.0271 11.3165-21.236 39.5015-30.1208 62.9476-19.871zm8.9572-16.8087c-33.6977-14.7314-74.1905-1.9343-90.4551,28.587-16.2646,30.5213-2.1355,67.1971 31.5621,81.9285 33.6977,14.7314 74.1905,1.9343 90.4551-28.587 16.2646-30.5213 2.1355-67.1971-31.5621-81.9285zm-8.9645,16.8223c23.4461,10.2498 33.3001,35.7639 21.9836,56.9999-11.3165,21.236-39.516,30.1481-62.9621,19.8983-23.4461-10.2498-33.2856-35.7912-21.9691-57.0272 11.3165-21.236 39.5015-30.1208 62.9476-19.871z"
         id="path4742" />
    </clipPath>
    <clipPath
       clipPathUnits="userSpaceOnUse"
       id="clipPath4744">
      <path
         fill="#0f0"
         stroke="#0f0"
         color="#000"
         stroke-width="2.033"
         d="m141.1284,537.5701c-33.6977-14.7314-74.1905-1.9343-90.4551,28.587-16.2646,30.5213-2.1355,67.1971 31.5621,81.9285 33.6977,14.7314 74.1905,1.9343 90.4551-28.587 16.2646-30.5213 2.1355-67.1971-31.5621-81.9285zm-8.9572,16.8087c23.4461,10.2498 33.3001,35.7639 21.9836,56.9999-11.3165,21.236-39.516,30.148-62.962,19.8982-23.4461-10.2498-33.2856-35.7911-21.9691-57.0271 11.3165-21.236 39.5015-30.1208 62.9476-19.871zm8.9572-16.8087c-33.6977-14.7314-74.1905-1.9343-90.4551,28.587-16.2646,30.5213-2.1355,67.1971 31.5621,81.9285 33.6977,14.7314 74.1905,1.9343 90.4551-28.587 16.2646-30.5213 2.1355-67.1971-31.5621-81.9285zm-8.9645,16.8223c23.4461,10.2498 33.3001,35.7639 21.9836,56.9999-11.3165,21.236-39.516,30.1481-62.9621,19.8983-23.4461-10.2498-33.2856-35.7912-21.9691-57.0272 11.3165-21.236 39.5015-30.1208 62.9476-19.871z"
         id="path4746" />
    </clipPath>
    <clipPath
       clipPathUnits="userSpaceOnUse"
       id="clipPath4748">
      <path
         fill="#0f0"
         stroke="#0f0"
         color="#000"
         stroke-width="2.033"
         d="m141.1284,537.5701c-33.6977-14.7314-74.1905-1.9343-90.4551,28.587-16.2646,30.5213-2.1355,67.1971 31.5621,81.9285 33.6977,14.7314 74.1905,1.9343 90.4551-28.587 16.2646-30.5213 2.1355-67.1971-31.5621-81.9285zm-8.9572,16.8087c23.4461,10.2498 33.3001,35.7639 21.9836,56.9999-11.3165,21.236-39.516,30.148-62.962,19.8982-23.4461-10.2498-33.2856-35.7911-21.9691-57.0271 11.3165-21.236 39.5015-30.1208 62.9476-19.871zm8.9572-16.8087c-33.6977-14.7314-74.1905-1.9343-90.4551,28.587-16.2646,30.5213-2.1355,67.1971 31.5621,81.9285 33.6977,14.7314 74.1905,1.9343 90.4551-28.587 16.2646-30.5213 2.1355-67.1971-31.5621-81.9285zm-8.9645,16.8223c23.4461,10.2498 33.3001,35.7639 21.9836,56.9999-11.3165,21.236-39.516,30.1481-62.9621,19.8983-23.4461-10.2498-33.2856-35.7912-21.9691-57.0272 11.3165-21.236 39.5015-30.1208 62.9476-19.871z"
         id="path4750" />
    </clipPath>
    <clipPath
       clipPathUnits="userSpaceOnUse"
       id="clipPath4752">
      <path
         fill="none"
         stroke="#0f0"
         color="#000"
         stroke-width="2.399"
         d="m-1232.6874,355.1505c29.2402,0 52.96,23.6823 52.96,52.9226 0,29.2402-23.7198,52.9599-52.96,52.9599-29.2403,0-52.96-23.7197-52.96-52.9599 0-29.2403 23.7197-52.9226 52.96-52.9226z"
         id="path4754" />
    </clipPath>
    <clipPath
       clipPathUnits="userSpaceOnUse"
       id="clipPath4756">
      <path
         fill="none"
         stroke="#0f0"
         color="#000"
         stroke-width="2.399"
         d="m-1232.6874,355.1505c29.2402,0 52.96,23.6823 52.96,52.9226 0,29.2402-23.7198,52.9599-52.96,52.9599-29.2403,0-52.96-23.7197-52.96-52.9599 0-29.2403 23.7197-52.9226 52.96-52.9226z"
         id="path4758" />
    </clipPath>
  </defs>
  <g
     transform="translate(0 -540.3622)"
     id="g4760">
    <g
       stroke="#000"
       stroke-linecap="square"
       stroke-width="8"
       stroke-dashoffset="354.331"
       id="g4762">
      <path
         fill="#fff"
         d="m40.0271,644.362h431.9459a.0271,.0097 0 0,1 .027,.01v367.978a.0271,.0097 0 0,1 -.027,.01h-431.9459a.0271,.0097 0 0,1 -.0271-.01v-367.978a.0271,.0097 0 0,1 .0271-.01"
         id="path4764" />
      <path
         d="m40.0271,40h431.9459a.0271,.0114 0 0,1 .027,.0114v63.9776a.0271,.0114 0 0,1 -.027,.011h-431.9459a.0271,.0114 0 0,1 -.0271-.011v-63.9776a.0271,.0114 0 0,1 .0271-.0114"
         transform="translate(0 540.3622)"
         id="path4766" />
      <path
         fill="#fff"
         d="m40.004,580.362h63.992a.004,.0017 0 0,1 .004,.002v63.996a.004,.0017 0 0,1 -.004,.002h-63.992a.004,.0017 0 0,1 -.004-.002v-63.996a.004,.0017 0 0,1 .004-.002"
         id="path4768" />
    </g>
    <g
       font-family="Al-seana"
       word-spacing="0"
       line-height="125%"
       letter-spacing="0"
       font-size="40px"
       id="g4770">
      <g
         style=""
         id="text4772">
        <path
           d="M 94.640625,985.72528 99.480469,986.35419 C 98.951796,989.69013 97.593724,992.30601 95.40625,994.20184 93.236958,996.07945 90.566388,997.01825 87.394531,997.01825 83.420561,997.01825 80.221346,995.72398 77.796875,993.13544 75.390622,990.52867 74.187498,986.80081 74.1875,981.95184 74.187498,978.81644 74.707029,976.07296 75.746094,973.72137 76.785151,971.36984 78.361973,969.61072 80.476562,968.44403 82.609364,967.25916 84.924466,966.66672 87.421875,966.66669 90.575502,966.66672 93.154927,967.4688 95.160156,969.07294 97.165339,970.6589 98.450494,972.91931 99.015625,975.85419 L 94.230469,976.59247 C 93.774718,974.64197 92.963521,973.17452 91.796875,972.19012 90.648419,971.20577 89.253889,970.71359 87.613281,970.71356 85.134101,970.71359 83.119781,971.60682 81.570312,973.39325 80.020825,975.1615 79.246087,977.96879 79.246094,981.81512 79.246087,985.71618 79.993482,988.55081 81.488281,990.31903 82.983062,992.08726 84.933581,992.97138 87.339844,992.97137 89.272118,992.97138 90.885398,992.37893 92.179687,991.19403 93.473937,990.00914 94.294249,988.18623 94.640625,985.72528"
           style="font-size:56px;font-family:Arial"
           id="path4938" />
        <path
           d="M 105.05859,972.92841 105.05859,967.32294 110.66406,967.32294 110.66406,972.92841 105.05859,972.92841 M 105.05859,996.362 105.05859,990.75653 110.66406,990.75653 110.66406,996.362 105.05859,996.362"
           style="font-size:56px;font-family:Arial"
           id="path4940" />
      </g>
      <g
         style=""
         id="text4776">
        <path
           d="M 206.64062,985.72528 211.48047,986.35419 C 210.9518,989.69013 209.59372,992.30601 207.40625,994.20184 205.23696,996.07945 202.56639,997.01825 199.39453,997.01825 195.42056,997.01825 192.22135,995.72398 189.79687,993.13544 187.39062,990.52867 186.1875,986.80081 186.1875,981.95184 186.1875,978.81644 186.70703,976.07296 187.74609,973.72137 188.78515,971.36984 190.36197,969.61072 192.47656,968.44403 194.60936,967.25916 196.92447,966.66672 199.42187,966.66669 202.5755,966.66672 205.15493,967.4688 207.16016,969.07294 209.16534,970.6589 210.45049,972.91931 211.01562,975.85419 L 206.23047,976.59247 C 205.77472,974.64197 204.96352,973.17452 203.79687,972.19012 202.64842,971.20577 201.25389,970.71359 199.61328,970.71356 197.1341,970.71359 195.11978,971.60682 193.57031,973.39325 192.02083,975.1615 191.24609,977.96879 191.24609,981.81512 191.24609,985.71618 191.99348,988.55081 193.48828,990.31903 194.98306,992.08726 196.93358,992.97138 199.33984,992.97137 201.27212,992.97138 202.8854,992.37893 204.17969,991.19403 205.47394,990.00914 206.29425,988.18623 206.64062,985.72528"
           style="font-size:56px;font-family:Arial"
           id="path4923" />
        <path
           d="M 213.85937,981.84247 C 213.85937,976.46488 215.35416,972.48182 218.34375,969.89325 220.84114,967.74224 223.8854,966.66672 227.47656,966.66669 231.46873,966.66672 234.73175,967.97922 237.26562,970.60419 239.79945,973.21098 241.06638,976.82035 241.06641,981.43231 241.06638,985.1693 240.50127,988.11331 239.37109,990.26434 238.25909,992.39716 236.62758,994.05601 234.47656,995.24091 232.34373,996.4258 230.0104,997.01825 227.47656,997.01825 223.41145,997.01825 220.12109,995.71486 217.60547,993.10809 215.10807,990.50133 213.85937,986.74612 213.85937,981.84247 M 218.91797,981.84247 C 218.91796,985.56123 219.72916,988.35029 221.35156,990.20966 222.97395,992.05081 225.01561,992.97138 227.47656,992.97137 229.91925,992.97138 231.9518,992.04169 233.57422,990.18231 235.19659,988.32295 236.00779,985.48831 236.00781,981.67841 236.00779,978.08728 235.18748,975.37114 233.54687,973.52997 231.92446,971.67062 229.90102,970.74093 227.47656,970.74091 225.01561,970.74093 222.97395,971.6615 221.35156,973.50262 219.72916,975.34379 218.91796,978.12374 218.91797,981.84247"
           style="font-size:56px;font-family:Arial"
           id="path4925" />
        <path
           d="M 246.86328,996.362 246.86328,967.32294 251.26562,967.32294 251.26562,971.39716 C 252.17707,969.97531 253.38931,968.83599 254.90234,967.97919 256.41535,967.10422 258.13801,966.66672 260.07031,966.66669 262.22134,966.66672 263.98045,967.11333 265.34766,968.00653 266.73305,968.89979 267.70831,970.14848 268.27344,971.75262 270.57029,968.36203 273.55987,966.66672 277.24219,966.66669 280.12236,966.66672 282.3372,967.4688 283.88672,969.07294 285.43616,970.6589 286.21089,973.11072 286.21094,976.42841 L 286.21094,996.362 281.31641,996.362 281.31641,978.06903 C 281.31637,976.1003 281.15231,974.68754 280.82422,973.83075 280.51429,972.95577 279.94007,972.25395 279.10156,971.72528 278.26299,971.19666 277.27861,970.93234 276.14844,970.93231 274.10674,970.93234 272.41143,971.61593 271.0625,972.98309 269.71352,974.33207 269.03904,976.50134 269.03906,979.49091 L 269.03906,996.362 264.11719,996.362 264.11719,977.49481 C 264.11717,975.30733 263.71613,973.66671 262.91406,972.57294 262.11196,971.47921 260.79946,970.93234 258.97656,970.93231 257.59113,970.93234 256.30598,971.29692 255.12109,972.02606 253.95442,972.75525 253.10676,973.82166 252.57812,975.22528 252.04947,976.62895 251.78515,978.65238 251.78516,981.29559 L 251.78516,996.362 246.86328,996.362"
           style="font-size:56px;font-family:Arial"
           id="path4927" />
        <path
           d="M 293.67578,996.362 293.67578,967.32294 298.07812,967.32294 298.07812,971.39716 C 298.98957,969.97531 300.20181,968.83599 301.71484,967.97919 303.22785,967.10422 304.95051,966.66672 306.88281,966.66669 309.03384,966.66672 310.79295,967.11333 312.16016,968.00653 313.54555,968.89979 314.52081,970.14848 315.08594,971.75262 317.38279,968.36203 320.37237,966.66672 324.05469,966.66669 326.93486,966.66672 329.1497,967.4688 330.69922,969.07294 332.24866,970.6589 333.02339,973.11072 333.02344,976.42841 L 333.02344,996.362 328.12891,996.362 328.12891,978.06903 C 328.12887,976.1003 327.96481,974.68754 327.63672,973.83075 327.32679,972.95577 326.75257,972.25395 325.91406,971.72528 325.07549,971.19666 324.09111,970.93234 322.96094,970.93231 320.91924,970.93234 319.22393,971.61593 317.875,972.98309 316.52602,974.33207 315.85154,976.50134 315.85156,979.49091 L 315.85156,996.362 310.92969,996.362 310.92969,977.49481 C 310.92967,975.30733 310.52863,973.66671 309.72656,972.57294 308.92446,971.47921 307.61196,970.93234 305.78906,970.93231 304.40363,970.93234 303.11848,971.29692 301.93359,972.02606 300.76692,972.75525 299.91926,973.82166 299.39062,975.22528 298.86197,976.62895 298.59765,978.65238 298.59766,981.29559 L 298.59766,996.362 293.67578,996.362"
           style="font-size:56px;font-family:Arial"
           id="path4929" />
        <path
           d="M 359.4375,992.77997 C 357.61456,994.32945 355.85545,995.4232 354.16016,996.06122 352.48306,996.69924 350.67837,997.01825 348.74609,997.01825 345.55598,997.01825 343.10416,996.24351 341.39062,994.69403 339.67708,993.12633 338.82031,991.13023 338.82031,988.70575 338.82031,987.28388 339.13932,985.98961 339.77734,984.82294 340.43359,983.63805 341.28125,982.69014 342.32031,981.97919 343.3776,981.26826 344.56249,980.7305 345.875,980.36591 346.84114,980.11071 348.29947,979.86462 350.25,979.62762 354.22394,979.15368 357.14972,978.58858 359.02734,977.93231 359.04555,977.25785 359.05467,976.82947 359.05469,976.64716 359.05467,974.64197 358.58982,973.22921 357.66016,972.40887 356.40232,971.29692 354.53384,970.74093 352.05469,970.74091 349.73957,970.74093 348.02603,971.15109 346.91406,971.97137 345.8203,972.77348 345.00911,974.20447 344.48047,976.26434 L 339.66797,975.60809 C 340.10547,973.54822 340.82552,971.88937 341.82812,970.63153 342.83072,969.35552 344.27994,968.38026 346.17578,967.70575 348.0716,967.01307 350.26822,966.66672 352.76562,966.66669 355.24477,966.66672 357.25909,966.95838 358.80859,967.54169 360.35805,968.12505 361.49737,968.86333 362.22656,969.75653 362.9557,970.63156 363.46612,971.74353 363.75781,973.09247 363.92185,973.93103 364.00388,975.44405 364.00391,977.63153 L 364.00391,984.19403 C 364.00388,988.76956 364.10414,991.66799 364.30469,992.88934 364.52341,994.09247 364.94268,995.25002 365.5625,996.362 L 360.42187,996.362 C 359.91144,995.34117 359.58331,994.14716 359.4375,992.77997 M 359.02734,981.78778 C 357.24086,982.51696 354.56118,983.13675 350.98828,983.64716 348.96483,983.93883 347.53384,984.26696 346.69531,984.63153 345.85676,984.99613 345.20963,985.53389 344.75391,986.24481 344.29817,986.93753 344.07031,987.71227 344.07031,988.56903 344.07031,989.88154 344.56249,990.97529 345.54687,991.85028 346.54947,992.72528 348.0078,993.16278 349.92187,993.16278 351.81769,993.16278 353.50389,992.75263 354.98047,991.93231 356.45701,991.09378 357.54165,989.95445 358.23437,988.51434 358.763,987.40237 359.02732,985.76175 359.02734,983.59247 L 359.02734,981.78778"
           style="font-size:56px;font-family:Arial"
           id="path4931" />
        <path
           d="M 371.66016,996.362 371.66016,967.32294 376.08984,967.32294 376.08984,971.45184 C 378.22265,968.26177 381.30337,966.66672 385.33203,966.66669 387.08201,966.66672 388.68618,966.98573 390.14453,967.62372 391.62107,968.24354 392.72393,969.06385 393.45312,970.08466 394.18227,971.10551 394.69268,972.31775 394.98437,973.72137 395.16664,974.63285 395.25779,976.22791 395.25781,978.50653 L 395.25781,996.362 390.33594,996.362 390.33594,978.69794 C 390.33592,976.69275 390.14451,975.19796 389.76172,974.21356 389.37888,973.21098 388.69529,972.41801 387.71094,971.83466 386.74477,971.23312 385.60545,970.93234 384.29297,970.93231 382.1966,970.93234 380.3828,971.5977 378.85156,972.92841 377.33853,974.25916 376.58202,976.78389 376.58203,980.50262 L 376.58203,996.362 371.66016,996.362"
           style="font-size:56px;font-family:Arial"
           id="path4933" />
        <path
           d="M 421.67187,996.362 421.67187,992.69794 C 419.83071,995.57815 417.12368,997.01825 413.55078,997.01825 411.23566,997.01825 409.10285,996.38023 407.15234,995.10419 405.22005,993.82815 403.71614,992.05081 402.64062,989.77216 401.58333,987.47529 401.05469,984.84118 401.05469,981.86981 401.05469,978.97139 401.53776,976.34639 402.50391,973.99481 403.47005,971.62505 404.91927,969.81124 406.85156,968.55341 408.78384,967.29562 410.944,966.66672 413.33203,966.66669 415.08202,966.66672 416.64061,967.04041 418.00781,967.78778 419.37498,968.51698 420.48696,969.47401 421.34375,970.65887 L 421.34375,956.27606 426.23828,956.27606 426.23828,996.362 421.67187,996.362 M 406.11328,981.86981 C 406.11327,985.58857 406.89713,988.36852 408.46484,990.20966 410.03254,992.05081 411.8828,992.97138 414.01562,992.97137 416.16665,992.97138 417.98956,992.09638 419.48437,990.34637 420.99737,988.57815 421.75388,985.88935 421.75391,982.27997 421.75388,978.30603 420.98826,975.38936 419.45703,973.52997 417.92576,971.67062 416.03905,970.74093 413.79687,970.74091 411.60936,970.74093 409.77733,971.63416 408.30078,973.42059 406.84244,975.20707 406.11327,978.02348 406.11328,981.86981"
           style="font-size:56px;font-family:Arial"
           id="path4935" />
      </g>
    </g>
    <path
       fill="#fdffff"
       stroke="#000"
       stroke-linecap="square"
       stroke-width="8"
       d="m40.0271,644.362h431.9459a.0271,.0097 0 0,1 .027,.01v287.98a.0271,.0097 0 0,1 -.027,.01h-431.9459a.0271,.0097 0 0,1 -.0271-.01v-287.98a.0271,.0097 0 0,1 .0271-.01"
       stroke-dashoffset="354.331"
       id="path4780" />
    <g
       font-family="Al-seana"
       word-spacing="0"
       line-height="125%"
       letter-spacing="0"
       font-size="40px"
       id="g4782">
      <g
         style=""
         id="text4784">
        <path
           d="M 90.8125,769.66473 93.84375,770.43036 C 93.208312,772.91995 92.06248,774.82099 90.40625,776.13348 88.7604,777.43557 86.744777,778.08661 84.359375,778.08661 81.890615,778.08661 79.8802,777.58661 78.328125,776.58661 76.786454,775.57619 75.609371,774.11786 74.796875,772.21161 73.99479,770.30537 73.593748,768.25849 73.59375,766.07098 73.593748,763.68558 74.046873,761.60746 74.953125,759.83661 75.869788,758.05538 77.166662,756.70642 78.84375,755.78973 80.531241,754.86267 82.385406,754.39913 84.40625,754.39911 86.697902,754.39913 88.624983,754.98246 90.1875,756.14911 91.74998,757.3158 92.838521,758.95642 93.453125,761.07098 L 90.46875,761.77411 C 89.937482,760.10746 89.16665,758.89392 88.15625,758.13348 87.145818,757.37309 85.874986,756.99288 84.34375,756.99286 82.583323,756.99288 81.109366,757.41475 79.921875,758.25848 78.744785,759.10225 77.916661,760.23767 77.4375,761.66473 76.958328,763.08142 76.718745,764.54496 76.71875,766.05536 76.718745,768.00329 76.999995,769.70641 77.5625,771.16473 78.135411,772.61266 79.020826,773.69599 80.21875,774.41473 81.416657,775.13349 82.713531,775.49286 84.109375,775.49286 85.807278,775.49286 87.244776,775.00328 88.421875,774.02411 89.598941,773.04495 90.395815,771.59182 90.8125,769.66473"
           style="font-size:32px;font-family:Arial"
           id="path4807" />
        <path
           d="M 96.1875,769.39911 C 96.187499,766.3262 97.041665,764.05016 98.75,762.57098 100.17708,761.34183 101.91666,760.72725 103.96875,760.72723 106.24999,760.72725 108.11457,761.47725 109.5625,762.97723 111.0104,764.46683 111.73436,766.52933 111.73438,769.16473 111.73436,771.30016 111.41144,772.98245 110.76563,774.21161 110.13019,775.43036 109.1979,776.37828 107.96875,777.05536 106.74999,777.73244 105.41666,778.07098 103.96875,778.07098 101.64583,778.07098 99.76562,777.32619 98.328125,775.83661 96.90104,774.34703 96.187499,772.2012 96.1875,769.39911 M 99.078125,769.39911 C 99.078121,771.52412 99.541662,773.11786 100.46875,774.18036 101.39583,775.23244 102.56249,775.75849 103.96875,775.75848 105.36457,775.75849 106.52603,775.22724 107.45313,774.16473 108.3802,773.10224 108.84374,771.48245 108.84375,769.30536 108.84374,767.25329 108.37499,765.7012 107.4375,764.64911 106.51041,763.58662 105.35416,763.05537 103.96875,763.05536 102.56249,763.05537 101.39583,763.58141 100.46875,764.63348 99.541662,765.68558 99.078121,767.27412 99.078125,769.39911"
           style="font-size:32px;font-family:Arial"
           id="path4809" />
        <path
           d="M 115.04688,777.69598 115.04688,761.10223 117.5625,761.10223 117.5625,763.43036 C 118.08333,762.61787 118.77604,761.96683 119.64063,761.47723 120.5052,760.97725 121.48957,760.72725 122.59375,760.72723 123.82291,760.72725 124.82811,760.98246 125.60938,761.49286 126.40103,762.00329 126.95832,762.71683 127.28125,763.63348 128.59373,761.696 130.30207,760.72725 132.40625,760.72723 134.05206,760.72725 135.31769,761.18558 136.20312,762.10223 137.08852,763.0085 137.53123,764.40954 137.53125,766.30536 L 137.53125,777.69598 134.73437,777.69598 134.73437,767.24286 C 134.73435,766.11787 134.6406,765.31058 134.45312,764.82098 134.27602,764.321 133.9479,763.91996 133.46875,763.61786 132.98956,763.31579 132.42706,763.16475 131.78125,763.16473 130.61457,763.16475 129.64582,763.55537 128.875,764.33661 128.10415,765.10745 127.71874,766.34704 127.71875,768.05536 L 127.71875,777.69598 124.90625,777.69598 124.90625,766.91473 C 124.90624,765.66475 124.67707,764.72725 124.21875,764.10223 123.76041,763.47725 123.01041,763.16475 121.96875,763.16473 121.17708,763.16475 120.4427,763.37308 119.76563,763.78973 119.09895,764.20641 118.61458,764.81579 118.3125,765.61786 118.01041,766.41995 117.85937,767.5762 117.85938,769.08661 L 117.85938,777.69598 115.04688,777.69598"
           style="font-size:32px;font-family:Arial"
           id="path4811" />
        <path
           d="M 141.79687,777.69598 141.79687,761.10223 144.3125,761.10223 144.3125,763.43036 C 144.83333,762.61787 145.52604,761.96683 146.39062,761.47723 147.2552,760.97725 148.23957,760.72725 149.34375,760.72723 150.57291,760.72725 151.57811,760.98246 152.35937,761.49286 153.15103,762.00329 153.70832,762.71683 154.03125,763.63348 155.34373,761.696 157.05207,760.72725 159.15625,760.72723 160.80206,760.72725 162.06769,761.18558 162.95312,762.10223 163.83852,763.0085 164.28123,764.40954 164.28125,766.30536 L 164.28125,777.69598 161.48437,777.69598 161.48437,767.24286 C 161.48435,766.11787 161.3906,765.31058 161.20312,764.82098 161.02602,764.321 160.6979,763.91996 160.21875,763.61786 159.73956,763.31579 159.17706,763.16475 158.53125,763.16473 157.36457,763.16475 156.39582,763.55537 155.625,764.33661 154.85415,765.10745 154.46874,766.34704 154.46875,768.05536 L 154.46875,777.69598 151.65625,777.69598 151.65625,766.91473 C 151.65624,765.66475 151.42707,764.72725 150.96875,764.10223 150.51041,763.47725 149.76041,763.16475 148.71875,763.16473 147.92708,763.16475 147.1927,763.37308 146.51562,763.78973 145.84895,764.20641 145.36458,764.81579 145.0625,765.61786 144.76041,766.41995 144.60937,767.5762 144.60937,769.08661 L 144.60937,777.69598 141.79687,777.69598"
           style="font-size:32px;font-family:Arial"
           id="path4813" />
        <path
           d="M 179.375,775.64911 C 178.33332,776.53453 177.32811,777.15953 176.35937,777.52411 175.40103,777.88869 174.36978,778.07098 173.26562,778.07098 171.4427,778.07098 170.04166,777.62828 169.0625,776.74286 168.08333,775.84703 167.59375,774.7064 167.59375,773.32098 167.59375,772.50849 167.77604,771.76891 168.14062,771.10223 168.51562,770.42516 169,769.88349 169.59375,769.47723 170.19791,769.07099 170.875,768.7637 171.625,768.55536 172.17708,768.40953 173.01041,768.26891 174.125,768.13348 176.39582,767.86266 178.0677,767.53974 179.14062,767.16473 179.15103,766.77933 179.15624,766.53454 179.15625,766.43036 179.15624,765.28454 178.89061,764.47725 178.35937,764.00848 177.64061,763.37308 176.57291,763.05537 175.15625,763.05536 173.83333,763.05537 172.85416,763.28975 172.21875,763.75848 171.59374,764.21683 171.1302,765.03454 170.82812,766.21161 L 168.07812,765.83661 C 168.32812,764.65954 168.73958,763.71162 169.3125,762.99286 169.88541,762.26371 170.71354,761.70642 171.79687,761.32098 172.8802,760.92517 174.13541,760.72725 175.5625,760.72723 176.97916,760.72725 178.1302,760.89392 179.01562,761.22723 179.90103,761.56058 180.55207,761.98246 180.96875,762.49286 181.3854,762.99287 181.67707,763.62829 181.84375,764.39911 181.93748,764.87829 181.98436,765.74287 181.98437,766.99286 L 181.98437,770.74286 C 181.98436,773.35745 182.04165,775.01369 182.15625,775.71161 182.28123,776.39911 182.52082,777.06057 182.875,777.69598 L 179.9375,777.69598 C 179.64582,777.11265 179.45832,776.43036 179.375,775.64911 M 179.14062,769.36786 C 178.11978,769.78453 176.58853,770.1387 174.54687,770.43036 173.39062,770.59703 172.57291,770.78453 172.09375,770.99286 171.61458,771.2012 171.24479,771.50849 170.98437,771.91473 170.72395,772.31057 170.59375,772.75328 170.59375,773.24286 170.59375,773.99286 170.875,774.61786 171.4375,775.11786 172.01041,775.61786 172.84374,775.86786 173.9375,775.86786 175.02082,775.86786 175.98437,775.63349 176.82812,775.16473 177.67186,774.68557 178.29165,774.03453 178.6875,773.21161 178.98957,772.5762 179.14061,771.6387 179.14062,770.39911 L 179.14062,769.36786"
           style="font-size:32px;font-family:Arial"
           id="path4815" />
        <path
           d="M 186.35937,777.69598 186.35937,761.10223 188.89062,761.10223 188.89062,763.46161 C 190.10937,761.63871 191.86978,760.72725 194.17187,760.72723 195.17186,760.72725 196.08853,760.90954 196.92187,761.27411 197.76561,761.62829 198.39582,762.09704 198.8125,762.68036 199.22915,763.26371 199.52082,763.95641 199.6875,764.75848 199.79165,765.27933 199.84373,766.19079 199.84375,767.49286 L 199.84375,777.69598 197.03125,777.69598 197.03125,767.60223 C 197.03124,766.45641 196.92186,765.60225 196.70312,765.03973 196.48436,764.46683 196.09374,764.01371 195.53125,763.68036 194.97916,763.33662 194.32811,763.16475 193.57812,763.16473 192.3802,763.16475 191.34374,763.54496 190.46875,764.30536 189.60416,765.06579 189.17187,766.5085 189.17187,768.63348 L 189.17187,777.69598 186.35937,777.69598"
           style="font-size:32px;font-family:Arial"
           id="path4817" />
        <path
           d="M 214.9375,777.69598 214.9375,775.60223 C 213.8854,777.24807 212.33853,778.07098 210.29687,778.07098 208.97395,778.07098 207.7552,777.7064 206.64062,776.97723 205.53645,776.24807 204.67708,775.23244 204.0625,773.93036 203.45833,772.61786 203.15625,771.11266 203.15625,769.41473 203.15625,767.75849 203.43229,766.2585 203.98437,764.91473 204.53646,763.56058 205.36458,762.52412 206.46875,761.80536 207.57291,761.08663 208.80728,760.72725 210.17187,760.72723 211.17187,760.72725 212.06249,760.94079 212.84375,761.36786 213.62499,761.78454 214.2604,762.33142 214.75,763.00848 L 214.75,754.78973 217.54687,754.78973 217.54687,777.69598 214.9375,777.69598 M 206.04687,769.41473 C 206.04687,771.53974 206.49479,773.12828 207.39062,774.18036 208.28645,775.23244 209.34374,775.75849 210.5625,775.75848 211.79166,775.75849 212.83332,775.25849 213.6875,774.25848 214.55207,773.24807 214.98436,771.71161 214.98437,769.64911 214.98436,767.37829 214.54686,765.71162 213.67187,764.64911 212.79686,763.58662 211.71874,763.05537 210.4375,763.05536 209.18749,763.05537 208.14062,763.56579 207.29687,764.58661 206.46354,765.60745 206.04687,767.21683 206.04687,769.41473"
           style="font-size:32px;font-family:Arial"
           id="path4819" />
        <path
           d="M 222.76562,764.30536 222.76562,761.10223 225.96875,761.10223 225.96875,764.30536 222.76562,764.30536 M 222.76562,777.69598 222.76562,774.49286 225.96875,774.49286 225.96875,777.69598 222.76562,777.69598"
           style="font-size:32px;font-family:Arial"
           id="path4821" />
        <path
           d="M 239.67187,777.69598 239.67187,754.78973 242.48437,754.78973 242.48437,777.69598 239.67187,777.69598"
           style="font-size:32px;font-family:Arial"
           id="path4823" />
        <path
           d="M 246.875,758.02411 246.875,754.78973 249.6875,754.78973 249.6875,758.02411 246.875,758.02411 M 246.875,777.69598 246.875,761.10223 249.6875,761.10223 249.6875,777.69598 246.875,777.69598"
           style="font-size:32px;font-family:Arial"
           id="path4825" />
        <path
           d="M 253.98437,777.69598 253.98437,761.10223 256.51562,761.10223 256.51562,763.46161 C 257.73437,761.63871 259.49478,760.72725 261.79687,760.72723 262.79686,760.72725 263.71353,760.90954 264.54687,761.27411 265.39061,761.62829 266.02082,762.09704 266.4375,762.68036 266.85415,763.26371 267.14582,763.95641 267.3125,764.75848 267.41665,765.27933 267.46873,766.19079 267.46875,767.49286 L 267.46875,777.69598 264.65625,777.69598 264.65625,767.60223 C 264.65624,766.45641 264.54686,765.60225 264.32812,765.03973 264.10936,764.46683 263.71874,764.01371 263.15625,763.68036 262.60416,763.33662 261.95311,763.16475 261.20312,763.16473 260.0052,763.16475 258.96874,763.54496 258.09375,764.30536 257.22916,765.06579 256.79687,766.5085 256.79687,768.63348 L 256.79687,777.69598 253.98437,777.69598"
           style="font-size:32px;font-family:Arial"
           id="path4827" />
        <path
           d="M 283.15625,772.35223 286.0625,772.71161 C 285.60415,774.40953 284.75519,775.72724 283.51562,776.66473 282.27603,777.60223 280.6927,778.07098 278.76562,778.07098 276.33854,778.07098 274.41145,777.32619 272.98437,775.83661 271.56771,774.33661 270.85937,772.23766 270.85937,769.53973 270.85937,766.74808 271.57812,764.58141 273.01562,763.03973 274.45312,761.49808 276.3177,760.72725 278.60937,760.72723 280.82811,760.72725 282.64061,761.48246 284.04687,762.99286 285.45311,764.50329 286.15623,766.62829 286.15625,769.36786 286.15623,769.53453 286.15103,769.78453 286.14062,770.11786 L 273.76562,770.11786 C 273.86979,771.94078 274.38541,773.33661 275.3125,774.30536 276.23958,775.27411 277.39583,775.75849 278.78125,775.75848 279.81249,775.75849 280.6927,775.48765 281.42187,774.94598 282.15103,774.40432 282.72915,773.53974 283.15625,772.35223 M 273.92187,767.80536 283.1875,767.80536 C 283.06249,766.40954 282.70832,765.36266 282.125,764.66473 281.22916,763.58141 280.0677,763.03975 278.64062,763.03973 277.34895,763.03975 276.26041,763.47204 275.375,764.33661 274.5,765.2012 274.01562,766.35745 273.92187,767.80536"
           style="font-size:32px;font-family:Arial"
           id="path4829" />
      </g>
      <g
         style=""
         id="text4788">
        <path
           d="M 90.8125,716.33075 93.84375,717.09637 C 93.208312,719.58596 92.06248,721.487 90.40625,722.7995 88.7604,724.10158 86.744777,724.75262 84.359375,724.75262 81.890615,724.75262 79.8802,724.25262 78.328125,723.25262 76.786454,722.24221 75.609371,720.78388 74.796875,718.87762 73.99479,716.97138 73.593748,714.92451 73.59375,712.737 73.593748,710.3516 74.046873,708.27347 74.953125,706.50262 75.869788,704.72139 77.166662,703.37244 78.84375,702.45575 80.531241,701.52869 82.385406,701.06515 84.40625,701.06512 86.697902,701.06515 88.624983,701.64848 90.1875,702.81512 91.74998,703.98181 92.838521,705.62243 93.453125,707.737 L 90.46875,708.44012 C 89.937482,706.77348 89.16665,705.55993 88.15625,704.7995 87.145818,704.0391 85.874986,703.6589 84.34375,703.65887 82.583323,703.6589 81.109366,704.08077 79.921875,704.9245 78.744785,705.76827 77.916661,706.90368 77.4375,708.33075 76.958328,709.74743 76.718745,711.21097 76.71875,712.72137 76.718745,714.6693 76.999995,716.37242 77.5625,717.83075 78.135411,719.27867 79.020826,720.362 80.21875,721.08075 81.416657,721.7995 82.713531,722.15888 84.109375,722.15887 85.807278,722.15888 87.244776,721.66929 88.421875,720.69012 89.598941,719.71096 90.395815,718.25784 90.8125,716.33075"
           style="font-size:32px;font-family:Arial"
           id="path4832" />
        <path
           d="M 96.1875,716.06512 C 96.187499,712.99222 97.041665,710.71618 98.75,709.237 100.17708,708.00785 101.91666,707.39327 103.96875,707.39325 106.24999,707.39327 108.11457,708.14327 109.5625,709.64325 111.0104,711.13285 111.73436,713.19534 111.73438,715.83075 111.73436,717.96617 111.41144,719.64846 110.76563,720.87762 110.13019,722.09638 109.1979,723.04429 107.96875,723.72137 106.74999,724.39846 105.41666,724.737 103.96875,724.737 101.64583,724.737 99.76562,723.99221 98.328125,722.50262 96.90104,721.01304 96.187499,718.86721 96.1875,716.06512 M 99.078125,716.06512 C 99.078121,718.19013 99.541662,719.78388 100.46875,720.84637 101.39583,721.89846 102.56249,722.4245 103.96875,722.4245 105.36457,722.4245 106.52603,721.89325 107.45313,720.83075 108.3802,719.76825 108.84374,718.14846 108.84375,715.97137 108.84374,713.9193 108.37499,712.36722 107.4375,711.31512 106.51041,710.25264 105.35416,709.72139 103.96875,709.72137 102.56249,709.72139 101.39583,710.24743 100.46875,711.2995 99.541662,712.35159 99.078121,713.94013 99.078125,716.06512"
           style="font-size:32px;font-family:Arial"
           id="path4834" />
        <path
           d="M 115.04688,724.362 115.04688,707.76825 117.5625,707.76825 117.5625,710.09637 C 118.08333,709.28389 118.77604,708.63285 119.64063,708.14325 120.5052,707.64327 121.48957,707.39327 122.59375,707.39325 123.82291,707.39327 124.82811,707.64847 125.60938,708.15887 126.40103,708.66931 126.95832,709.38285 127.28125,710.2995 128.59373,708.36202 130.30207,707.39327 132.40625,707.39325 134.05206,707.39327 135.31769,707.8516 136.20312,708.76825 137.08852,709.67451 137.53123,711.07555 137.53125,712.97137 L 137.53125,724.362 134.73437,724.362 134.73437,713.90887 C 134.73435,712.78389 134.6406,711.9766 134.45312,711.487 134.27602,710.98701 133.9479,710.58597 133.46875,710.28387 132.98956,709.98181 132.42706,709.83076 131.78125,709.83075 130.61457,709.83076 129.64582,710.22139 128.875,711.00262 128.10415,711.77347 127.71874,713.01305 127.71875,714.72137 L 127.71875,724.362 124.90625,724.362 124.90625,713.58075 C 124.90624,712.33076 124.67707,711.39326 124.21875,710.76825 123.76041,710.14326 123.01041,709.83076 121.96875,709.83075 121.17708,709.83076 120.4427,710.0391 119.76563,710.45575 119.09895,710.87243 118.61458,711.4818 118.3125,712.28387 118.01041,713.08597 117.85937,714.24222 117.85938,715.75262 L 117.85938,724.362 115.04688,724.362"
           style="font-size:32px;font-family:Arial"
           id="path4836" />
        <path
           d="M 141.79687,724.362 141.79687,707.76825 144.3125,707.76825 144.3125,710.09637 C 144.83333,709.28389 145.52604,708.63285 146.39062,708.14325 147.2552,707.64327 148.23957,707.39327 149.34375,707.39325 150.57291,707.39327 151.57811,707.64847 152.35937,708.15887 153.15103,708.66931 153.70832,709.38285 154.03125,710.2995 155.34373,708.36202 157.05207,707.39327 159.15625,707.39325 160.80206,707.39327 162.06769,707.8516 162.95312,708.76825 163.83852,709.67451 164.28123,711.07555 164.28125,712.97137 L 164.28125,724.362 161.48437,724.362 161.48437,713.90887 C 161.48435,712.78389 161.3906,711.9766 161.20312,711.487 161.02602,710.98701 160.6979,710.58597 160.21875,710.28387 159.73956,709.98181 159.17706,709.83076 158.53125,709.83075 157.36457,709.83076 156.39582,710.22139 155.625,711.00262 154.85415,711.77347 154.46874,713.01305 154.46875,714.72137 L 154.46875,724.362 151.65625,724.362 151.65625,713.58075 C 151.65624,712.33076 151.42707,711.39326 150.96875,710.76825 150.51041,710.14326 149.76041,709.83076 148.71875,709.83075 147.92708,709.83076 147.1927,710.0391 146.51562,710.45575 145.84895,710.87243 145.36458,711.4818 145.0625,712.28387 144.76041,713.08597 144.60937,714.24222 144.60937,715.75262 L 144.60937,724.362 141.79687,724.362"
           style="font-size:32px;font-family:Arial"
           id="path4838" />
        <path
           d="M 179.375,722.31512 C 178.33332,723.20054 177.32811,723.82554 176.35937,724.19012 175.40103,724.55471 174.36978,724.737 173.26562,724.737 171.4427,724.737 170.04166,724.29429 169.0625,723.40887 168.08333,722.51304 167.59375,721.37242 167.59375,719.987 167.59375,719.1745 167.77604,718.43492 168.14062,717.76825 168.51562,717.09117 169,716.54951 169.59375,716.14325 170.19791,715.73701 170.875,715.42972 171.625,715.22137 172.17708,715.07555 173.01041,714.93493 174.125,714.7995 176.39582,714.52868 178.0677,714.20576 179.14062,713.83075 179.15103,713.44534 179.15624,713.20055 179.15625,713.09637 179.15624,711.95055 178.89061,711.14326 178.35937,710.6745 177.64061,710.0391 176.57291,709.72139 175.15625,709.72137 173.83333,709.72139 172.85416,709.95576 172.21875,710.4245 171.59374,710.88285 171.1302,711.70055 170.82812,712.87762 L 168.07812,712.50262 C 168.32812,711.32555 168.73958,710.37764 169.3125,709.65887 169.88541,708.92972 170.71354,708.37243 171.79687,707.987 172.8802,707.59118 174.13541,707.39327 175.5625,707.39325 176.97916,707.39327 178.1302,707.55993 179.01562,707.89325 179.90103,708.2266 180.55207,708.64847 180.96875,709.15887 181.3854,709.65889 181.67707,710.29431 181.84375,711.06512 181.93748,711.5443 181.98436,712.40889 181.98437,713.65887 L 181.98437,717.40887 C 181.98436,720.02346 182.04165,721.67971 182.15625,722.37762 182.28123,723.06513 182.52082,723.72658 182.875,724.362 L 179.9375,724.362 C 179.64582,723.77867 179.45832,723.09638 179.375,722.31512 M 179.14062,716.03387 C 178.11978,716.45055 176.58853,716.80472 174.54687,717.09637 173.39062,717.26305 172.57291,717.45055 172.09375,717.65887 171.61458,717.86721 171.24479,718.17451 170.98437,718.58075 170.72395,718.97659 170.59375,719.4193 170.59375,719.90887 170.59375,720.65888 170.875,721.28388 171.4375,721.78387 172.01041,722.28388 172.84374,722.53388 173.9375,722.53387 175.02082,722.53388 175.98437,722.2995 176.82812,721.83075 177.67186,721.35159 178.29165,720.70054 178.6875,719.87762 178.98957,719.24221 179.14061,718.30471 179.14062,717.06512 L 179.14062,716.03387"
           style="font-size:32px;font-family:Arial"
           id="path4840" />
        <path
           d="M 186.35937,724.362 186.35937,707.76825 188.89062,707.76825 188.89062,710.12762 C 190.10937,708.30472 191.86978,707.39327 194.17187,707.39325 195.17186,707.39327 196.08853,707.57556 196.92187,707.94012 197.76561,708.29431 198.39582,708.76306 198.8125,709.34637 199.22915,709.92972 199.52082,710.62243 199.6875,711.4245 199.79165,711.94535 199.84373,712.8568 199.84375,714.15887 L 199.84375,724.362 197.03125,724.362 197.03125,714.26825 C 197.03124,713.12243 196.92186,712.26826 196.70312,711.70575 196.48436,711.13285 196.09374,710.67972 195.53125,710.34637 194.97916,710.00264 194.32811,709.83076 193.57812,709.83075 192.3802,709.83076 191.34374,710.21097 190.46875,710.97137 189.60416,711.7318 189.17187,713.17451 189.17187,715.2995 L 189.17187,724.362 186.35937,724.362"
           style="font-size:32px;font-family:Arial"
           id="path4842" />
        <path
           d="M 214.9375,724.362 214.9375,722.26825 C 213.8854,723.91408 212.33853,724.737 210.29687,724.737 208.97395,724.737 207.7552,724.37242 206.64062,723.64325 205.53645,722.91408 204.67708,721.89846 204.0625,720.59637 203.45833,719.28388 203.15625,717.77867 203.15625,716.08075 203.15625,714.42451 203.43229,712.92451 203.98437,711.58075 204.53646,710.2266 205.36458,709.19014 206.46875,708.47137 207.57291,707.75264 208.80728,707.39327 210.17187,707.39325 211.17187,707.39327 212.06249,707.60681 212.84375,708.03387 213.62499,708.45056 214.2604,708.99743 214.75,709.6745 L 214.75,701.45575 217.54687,701.45575 217.54687,724.362 214.9375,724.362 M 206.04687,716.08075 C 206.04687,718.20576 206.49479,719.7943 207.39062,720.84637 208.28645,721.89846 209.34374,722.4245 210.5625,722.4245 211.79166,722.4245 212.83332,721.9245 213.6875,720.9245 214.55207,719.91409 214.98436,718.37763 214.98437,716.31512 214.98436,714.0443 214.54686,712.37764 213.67187,711.31512 212.79686,710.25264 211.71874,709.72139 210.4375,709.72137 209.18749,709.72139 208.14062,710.23181 207.29687,711.25262 206.46354,712.27347 206.04687,713.88284 206.04687,716.08075"
           style="font-size:32px;font-family:Arial"
           id="path4844" />
        <path
           d="M 222.76562,710.97137 222.76562,707.76825 225.96875,707.76825 225.96875,710.97137 222.76562,710.97137 M 222.76562,724.362 222.76562,721.15887 225.96875,721.15887 225.96875,724.362 222.76562,724.362"
           style="font-size:32px;font-family:Arial"
           id="path4846" />
        <path
           d="M 239.73437,724.362 239.73437,707.76825 242.26562,707.76825 242.26562,710.12762 C 243.48437,708.30472 245.24478,707.39327 247.54687,707.39325 248.54686,707.39327 249.46353,707.57556 250.29687,707.94012 251.14061,708.29431 251.77082,708.76306 252.1875,709.34637 252.60415,709.92972 252.89582,710.62243 253.0625,711.4245 253.16665,711.94535 253.21873,712.8568 253.21875,714.15887 L 253.21875,724.362 250.40625,724.362 250.40625,714.26825 C 250.40624,713.12243 250.29686,712.26826 250.07812,711.70575 249.85936,711.13285 249.46874,710.67972 248.90625,710.34637 248.35416,710.00264 247.70311,709.83076 246.95312,709.83075 245.7552,709.83076 244.71874,710.21097 243.84375,710.97137 242.97916,711.7318 242.54687,713.17451 242.54687,715.2995 L 242.54687,724.362 239.73437,724.362"
           style="font-size:32px;font-family:Arial"
           id="path4848" />
        <path
           d="M 268.90625,719.01825 271.8125,719.37762 C 271.35415,721.07554 270.50519,722.39325 269.26562,723.33075 268.02603,724.26825 266.4427,724.737 264.51562,724.737 262.08854,724.737 260.16145,723.99221 258.73437,722.50262 257.31771,721.00263 256.60937,718.90367 256.60937,716.20575 256.60937,713.41409 257.32812,711.24743 258.76562,709.70575 260.20312,708.1641 262.0677,707.39327 264.35937,707.39325 266.57811,707.39327 268.39061,708.14847 269.79687,709.65887 271.20311,711.1693 271.90623,713.2943 271.90625,716.03387 271.90623,716.20055 271.90103,716.45055 271.89062,716.78387 L 259.51562,716.78387 C 259.61979,718.6068 260.13541,720.00263 261.0625,720.97137 261.98958,721.94013 263.14583,722.4245 264.53125,722.4245 265.56249,722.4245 266.4427,722.15367 267.17187,721.612 267.90103,721.07034 268.47915,720.20575 268.90625,719.01825 M 259.67187,714.47137 268.9375,714.47137 C 268.81249,713.07555 268.45832,712.02868 267.875,711.33075 266.97916,710.24743 265.8177,709.70576 264.39062,709.70575 263.09895,709.70576 262.01041,710.13806 261.125,711.00262 260.25,711.86722 259.76562,713.02347 259.67187,714.47137"
           style="font-size:32px;font-family:Arial"
           id="path4850" />
        <path
           d="M 278.42187,724.362 273.34375,707.76825 276.25,707.76825 278.89062,717.34637 279.875,720.90887 C 279.91666,720.73179 280.20312,719.59117 280.73437,717.487 L 283.375,707.76825 286.26562,707.76825 288.75,717.39325 289.57812,720.56512 290.53125,717.362 293.375,707.76825 296.10937,707.76825 290.92187,724.362 288,724.362 285.35937,714.4245 284.71875,711.59637 281.35937,724.362 278.42187,724.362"
           style="font-size:32px;font-family:Arial"
           id="path4852" />
      </g>
      <g
         style=""
         id="text4792">
        <path
           d="M 90.8125,876.33075 93.84375,877.09637 C 93.208312,879.58596 92.06248,881.487 90.40625,882.7995 88.7604,884.10158 86.744777,884.75262 84.359375,884.75262 81.890615,884.75262 79.8802,884.25262 78.328125,883.25262 76.786454,882.24221 75.609371,880.78388 74.796875,878.87762 73.99479,876.97138 73.593748,874.92451 73.59375,872.737 73.593748,870.3516 74.046873,868.27347 74.953125,866.50262 75.869788,864.72139 77.166662,863.37244 78.84375,862.45575 80.531241,861.52869 82.385406,861.06515 84.40625,861.06512 86.697902,861.06515 88.624983,861.64848 90.1875,862.81512 91.74998,863.98181 92.838521,865.62243 93.453125,867.737 L 90.46875,868.44012 C 89.937482,866.77348 89.16665,865.55993 88.15625,864.7995 87.145818,864.0391 85.874986,863.6589 84.34375,863.65887 82.583323,863.6589 81.109366,864.08077 79.921875,864.9245 78.744785,865.76827 77.916661,866.90368 77.4375,868.33075 76.958328,869.74743 76.718745,871.21097 76.71875,872.72137 76.718745,874.6693 76.999995,876.37242 77.5625,877.83075 78.135411,879.27867 79.020826,880.362 80.21875,881.08075 81.416657,881.7995 82.713531,882.15888 84.109375,882.15887 85.807278,882.15888 87.244776,881.66929 88.421875,880.69012 89.598941,879.71096 90.395815,878.25784 90.8125,876.33075"
           style="font-size:32px;font-family:Arial"
           id="path4855" />
        <path
           d="M 96.1875,876.06512 C 96.187499,872.99222 97.041665,870.71618 98.75,869.237 100.17708,868.00785 101.91666,867.39327 103.96875,867.39325 106.24999,867.39327 108.11457,868.14327 109.5625,869.64325 111.0104,871.13285 111.73436,873.19534 111.73438,875.83075 111.73436,877.96617 111.41144,879.64846 110.76563,880.87762 110.13019,882.09638 109.1979,883.04429 107.96875,883.72137 106.74999,884.39846 105.41666,884.737 103.96875,884.737 101.64583,884.737 99.76562,883.99221 98.328125,882.50262 96.90104,881.01304 96.187499,878.86721 96.1875,876.06512 M 99.078125,876.06512 C 99.078121,878.19013 99.541662,879.78388 100.46875,880.84637 101.39583,881.89846 102.56249,882.4245 103.96875,882.4245 105.36457,882.4245 106.52603,881.89325 107.45313,880.83075 108.3802,879.76825 108.84374,878.14846 108.84375,875.97137 108.84374,873.9193 108.37499,872.36722 107.4375,871.31512 106.51041,870.25264 105.35416,869.72139 103.96875,869.72137 102.56249,869.72139 101.39583,870.24743 100.46875,871.2995 99.541662,872.35159 99.078121,873.94013 99.078125,876.06512"
           style="font-size:32px;font-family:Arial"
           id="path4857" />
        <path
           d="M 114,876.06512 C 114,872.99222 114.85416,870.71618 116.5625,869.237 117.98958,868.00785 119.72916,867.39327 121.78125,867.39325 124.06249,867.39327 125.92707,868.14327 127.375,869.64325 128.8229,871.13285 129.54686,873.19534 129.54687,875.83075 129.54686,877.96617 129.22394,879.64846 128.57812,880.87762 127.94269,882.09638 127.0104,883.04429 125.78125,883.72137 124.56249,884.39846 123.22916,884.737 121.78125,884.737 119.45833,884.737 117.57812,883.99221 116.14063,882.50262 114.71354,881.01304 114,878.86721 114,876.06512 M 116.89063,876.06512 C 116.89062,878.19013 117.35416,879.78388 118.28125,880.84637 119.20833,881.89846 120.37499,882.4245 121.78125,882.4245 123.17707,882.4245 124.33853,881.89325 125.26563,880.83075 126.1927,879.76825 126.65624,878.14846 126.65625,875.97137 126.65624,873.9193 126.18749,872.36722 125.25,871.31512 124.32291,870.25264 123.16666,869.72139 121.78125,869.72137 120.37499,869.72139 119.20833,870.24743 118.28125,871.2995 117.35416,872.35159 116.89062,873.94013 116.89063,876.06512"
           style="font-size:32px;font-family:Arial"
           id="path4859" />
        <path
           d="M 132.82812,884.362 132.82812,867.76825 135.35937,867.76825 135.35937,870.28387 C 136.0052,869.10681 136.59895,868.33077 137.14062,867.95575 137.6927,867.58077 138.29687,867.39327 138.95312,867.39325 139.90103,867.39327 140.86457,867.69535 141.84375,868.2995 L 140.875,870.90887 C 140.18749,870.50264 139.49999,870.29951 138.8125,870.2995 138.19791,870.29951 137.64583,870.48701 137.15625,870.862 136.66666,871.2266 136.3177,871.73701 136.10937,872.39325 135.79687,873.39326 135.64062,874.48701 135.64062,875.6745 L 135.64062,884.362 132.82812,884.362"
           style="font-size:32px;font-family:Arial"
           id="path4861" />
        <path
           d="M 154.3125,884.362 154.3125,882.26825 C 153.2604,883.91408 151.71353,884.737 149.67187,884.737 148.34895,884.737 147.1302,884.37242 146.01562,883.64325 144.91145,882.91408 144.05208,881.89846 143.4375,880.59637 142.83333,879.28388 142.53125,877.77867 142.53125,876.08075 142.53125,874.42451 142.80729,872.92451 143.35937,871.58075 143.91146,870.2266 144.73958,869.19014 145.84375,868.47137 146.94791,867.75264 148.18228,867.39327 149.54687,867.39325 150.54687,867.39327 151.43749,867.60681 152.21875,868.03387 152.99999,868.45056 153.6354,868.99743 154.125,869.6745 L 154.125,861.45575 156.92187,861.45575 156.92187,884.362 154.3125,884.362 M 145.42187,876.08075 C 145.42187,878.20576 145.86979,879.7943 146.76562,880.84637 147.66145,881.89846 148.71874,882.4245 149.9375,882.4245 151.16666,882.4245 152.20832,881.9245 153.0625,880.9245 153.92707,879.91409 154.35936,878.37763 154.35937,876.31512 154.35936,874.0443 153.92186,872.37764 153.04687,871.31512 152.17186,870.25264 151.09374,869.72139 149.8125,869.72137 148.56249,869.72139 147.51562,870.23181 146.67187,871.25262 145.83854,872.27347 145.42187,873.88284 145.42187,876.08075"
           style="font-size:32px;font-family:Arial"
           id="path4863" />
        <path
           d="M 161.375,864.69012 161.375,861.45575 164.1875,861.45575 164.1875,864.69012 161.375,864.69012 M 161.375,884.362 161.375,867.76825 164.1875,867.76825 164.1875,884.362 161.375,884.362"
           style="font-size:32px;font-family:Arial"
           id="path4865" />
        <path
           d="M 168.48437,884.362 168.48437,867.76825 171.01562,867.76825 171.01562,870.12762 C 172.23437,868.30472 173.99478,867.39327 176.29687,867.39325 177.29686,867.39327 178.21353,867.57556 179.04687,867.94012 179.89061,868.29431 180.52082,868.76306 180.9375,869.34637 181.35415,869.92972 181.64582,870.62243 181.8125,871.4245 181.91665,871.94535 181.96873,872.8568 181.96875,874.15887 L 181.96875,884.362 179.15625,884.362 179.15625,874.26825 C 179.15624,873.12243 179.04686,872.26826 178.82812,871.70575 178.60936,871.13285 178.21874,870.67972 177.65625,870.34637 177.10416,870.00264 176.45311,869.83076 175.70312,869.83075 174.5052,869.83076 173.46874,870.21097 172.59375,870.97137 171.72916,871.7318 171.29687,873.17451 171.29687,875.2995 L 171.29687,884.362 168.48437,884.362"
           style="font-size:32px;font-family:Arial"
           id="path4867" />
        <path
           d="M 197.125,882.31512 C 196.08332,883.20054 195.07811,883.82554 194.10937,884.19012 193.15103,884.55471 192.11978,884.737 191.01562,884.737 189.1927,884.737 187.79166,884.29429 186.8125,883.40887 185.83333,882.51304 185.34375,881.37242 185.34375,879.987 185.34375,879.1745 185.52604,878.43492 185.89062,877.76825 186.26562,877.09117 186.75,876.54951 187.34375,876.14325 187.94791,875.73701 188.625,875.42972 189.375,875.22137 189.92708,875.07555 190.76041,874.93493 191.875,874.7995 194.14582,874.52868 195.8177,874.20576 196.89062,873.83075 196.90103,873.44534 196.90624,873.20055 196.90625,873.09637 196.90624,871.95055 196.64061,871.14326 196.10937,870.6745 195.39061,870.0391 194.32291,869.72139 192.90625,869.72137 191.58333,869.72139 190.60416,869.95576 189.96875,870.4245 189.34374,870.88285 188.8802,871.70055 188.57812,872.87762 L 185.82812,872.50262 C 186.07812,871.32555 186.48958,870.37764 187.0625,869.65887 187.63541,868.92972 188.46354,868.37243 189.54687,867.987 190.6302,867.59118 191.88541,867.39327 193.3125,867.39325 194.72916,867.39327 195.8802,867.55993 196.76562,867.89325 197.65103,868.2266 198.30207,868.64847 198.71875,869.15887 199.1354,869.65889 199.42707,870.29431 199.59375,871.06512 199.68748,871.5443 199.73436,872.40889 199.73437,873.65887 L 199.73437,877.40887 C 199.73436,880.02346 199.79165,881.67971 199.90625,882.37762 200.03123,883.06513 200.27082,883.72658 200.625,884.362 L 197.6875,884.362 C 197.39582,883.77867 197.20832,883.09638 197.125,882.31512 M 196.89062,876.03387 C 195.86978,876.45055 194.33853,876.80472 192.29687,877.09637 191.14062,877.26305 190.32291,877.45055 189.84375,877.65887 189.36458,877.86721 188.99479,878.17451 188.73437,878.58075 188.47395,878.97659 188.34375,879.4193 188.34375,879.90887 188.34375,880.65888 188.625,881.28388 189.1875,881.78387 189.76041,882.28388 190.59374,882.53388 191.6875,882.53387 192.77082,882.53388 193.73437,882.2995 194.57812,881.83075 195.42186,881.35159 196.04165,880.70054 196.4375,879.87762 196.73957,879.24221 196.89061,878.30471 196.89062,877.06512 L 196.89062,876.03387"
           style="font-size:32px;font-family:Arial"
           id="path4869" />
        <path
           d="M 210.25,881.84637 210.65625,884.33075 C 209.86458,884.49742 209.15624,884.58075 208.53125,884.58075 207.51041,884.58075 206.71875,884.41929 206.15625,884.09637 205.59375,883.77346 205.19791,883.35158 204.96875,882.83075 204.73958,882.2995 204.625,881.19013 204.625,879.50262 L 204.625,869.95575 202.5625,869.95575 202.5625,867.76825 204.625,867.76825 204.625,863.65887 207.42187,861.97137 207.42187,867.76825 210.25,867.76825 210.25,869.95575 207.42187,869.95575 207.42187,879.65887 C 207.42187,880.46096 207.46874,880.97659 207.5625,881.20575 207.66666,881.43492 207.82812,881.61721 208.04687,881.75262 208.27604,881.88804 208.59895,881.95575 209.01562,881.95575 209.32812,881.95575 209.73958,881.91929 210.25,881.84637"
           style="font-size:32px;font-family:Arial"
           id="path4871" />
        <path
           d="M 224.34375,879.01825 227.25,879.37762 C 226.79165,881.07554 225.94269,882.39325 224.70312,883.33075 223.46353,884.26825 221.8802,884.737 219.95312,884.737 217.52604,884.737 215.59895,883.99221 214.17187,882.50262 212.75521,881.00263 212.04687,878.90367 212.04687,876.20575 212.04687,873.41409 212.76562,871.24743 214.20312,869.70575 215.64062,868.1641 217.5052,867.39327 219.79687,867.39325 222.01561,867.39327 223.82811,868.14847 225.23437,869.65887 226.64061,871.1693 227.34373,873.2943 227.34375,876.03387 227.34373,876.20055 227.33853,876.45055 227.32812,876.78387 L 214.95312,876.78387 C 215.05729,878.6068 215.57291,880.00263 216.5,880.97137 217.42708,881.94013 218.58333,882.4245 219.96875,882.4245 220.99999,882.4245 221.8802,882.15367 222.60937,881.612 223.33853,881.07034 223.91665,880.20575 224.34375,879.01825 M 215.10937,874.47137 224.375,874.47137 C 224.24999,873.07555 223.89582,872.02868 223.3125,871.33075 222.41666,870.24743 221.2552,869.70576 219.82812,869.70575 218.53645,869.70576 217.44791,870.13806 216.5625,871.00262 215.6875,871.86722 215.20312,873.02347 215.10937,874.47137"
           style="font-size:32px;font-family:Arial"
           id="path4873" />
        <path
           d="M 231.57812,870.97137 231.57812,867.76825 234.78125,867.76825 234.78125,870.97137 231.57812,870.97137 M 231.57812,884.362 231.57812,881.15887 234.78125,881.15887 234.78125,884.362 231.57812,884.362"
           style="font-size:32px;font-family:Arial"
           id="path4875" />
        <path
           d="M 247.76562,878.362 250.71875,878.112 C 250.9375,879.5495 251.4427,880.63284 252.23437,881.362 253.03645,882.08075 253.99999,882.44013 255.125,882.44012 256.47916,882.44013 257.62499,881.92971 258.5625,880.90887 259.49999,879.88805 259.96874,878.53388 259.96875,876.84637 259.96874,875.24222 259.51561,873.97659 258.60937,873.0495 257.71353,872.12243 256.53645,871.65889 255.07812,871.65887 254.17187,871.65889 253.35416,871.86722 252.625,872.28387 251.89583,872.69014 251.32291,873.22139 250.90625,873.87762 L 248.26562,873.53387 250.48437,861.76825 261.875,861.76825 261.875,864.45575 252.73437,864.45575 251.5,870.612 C 252.87499,869.65368 254.3177,869.17451 255.82812,869.1745 257.82811,869.17451 259.51561,869.86722 260.89062,871.25262 262.26561,872.63805 262.95311,874.4193 262.95312,876.59637 262.95311,878.6693 262.34894,880.46096 261.14062,881.97137 259.67186,883.82554 257.66666,884.75262 255.125,884.75262 253.04166,884.75262 251.33854,884.16929 250.01562,883.00262 248.70312,881.83596 247.95312,880.28909 247.76562,878.362"
           style="font-size:32px;font-family:Arial"
           id="path4877" />
        <path
           d="M 265.57812,873.06512 C 265.57812,870.35681 265.85417,868.17972 266.40625,866.53387 266.96875,864.87764 267.79687,863.6016 268.89062,862.70575 269.99479,861.80994 271.3802,861.36202 273.04687,861.362 274.27603,861.36202 275.35416,861.61202 276.28125,862.112 277.20832,862.6016 277.97394,863.31515 278.57812,864.25262 279.18228,865.17973 279.65623,866.31514 280,867.65887 280.34373,868.99222 280.51561,870.7943 280.51562,873.06512 280.51561,875.75263 280.23957,877.92451 279.6875,879.58075 279.1354,881.22659 278.30728,882.50263 277.20312,883.40887 276.10936,884.30471 274.72395,884.75262 273.04687,884.75262 270.83854,884.75262 269.10416,883.96096 267.84375,882.37762 266.33333,880.47138 265.57812,877.36721 265.57812,873.06512 M 268.46875,873.06512 C 268.46875,876.82555 268.90625,879.33075 269.78125,880.58075 270.66666,881.82034 271.7552,882.44013 273.04687,882.44012 274.33853,882.44013 275.42186,881.81513 276.29687,880.56512 277.18228,879.31513 277.62499,876.81513 277.625,873.06512 277.62499,869.29431 277.18228,866.7891 276.29687,865.5495 275.42186,864.30994 274.32811,863.69015 273.01562,863.69012 271.72395,863.69015 270.6927,864.23702 269.92187,865.33075 268.95312,866.7266 268.46875,869.30472 268.46875,873.06512"
           style="font-size:32px;font-family:Arial"
           id="path4879" />
        <path
           d="M 284.90625,884.362 284.90625,881.15887 288.10937,881.15887 288.10937,884.362 C 288.10937,885.53908 287.90104,886.487 287.48437,887.20575 287.0677,887.93491 286.40625,888.49741 285.5,888.89325 L 284.71875,887.69012 C 285.3125,887.4297 285.75,887.04429 286.03125,886.53387 286.3125,886.03387 286.46875,885.30992 286.5,884.362 L 284.90625,884.362"
           style="font-size:32px;font-family:Arial"
           id="path4881" />
        <path
           d="M 302.85937,884.362 300.04687,884.362 300.04687,866.44012 C 299.36978,867.08598 298.47916,867.73181 297.375,868.37762 296.28124,869.02347 295.29687,869.50785 294.42187,869.83075 L 294.42187,867.112 C 295.99479,866.37243 297.36979,865.4766 298.54687,864.4245 299.72395,863.37244 300.55728,862.3516 301.04687,861.362 L 302.85937,861.362 302.85937,884.362"
           style="font-size:32px;font-family:Arial"
           id="path4883" />
        <path
           d="M 310.07812,873.06512 C 310.07812,870.35681 310.35417,868.17972 310.90625,866.53387 311.46875,864.87764 312.29687,863.6016 313.39062,862.70575 314.49479,861.80994 315.8802,861.36202 317.54687,861.362 318.77603,861.36202 319.85416,861.61202 320.78125,862.112 321.70832,862.6016 322.47394,863.31515 323.07812,864.25262 323.68228,865.17973 324.15623,866.31514 324.5,867.65887 324.84373,868.99222 325.01561,870.7943 325.01562,873.06512 325.01561,875.75263 324.73957,877.92451 324.1875,879.58075 323.6354,881.22659 322.80728,882.50263 321.70312,883.40887 320.60936,884.30471 319.22395,884.75262 317.54687,884.75262 315.33854,884.75262 313.60416,883.96096 312.34375,882.37762 310.83333,880.47138 310.07812,877.36721 310.07812,873.06512 M 312.96875,873.06512 C 312.96875,876.82555 313.40625,879.33075 314.28125,880.58075 315.16666,881.82034 316.2552,882.44013 317.54687,882.44012 318.83853,882.44013 319.92186,881.81513 320.79687,880.56512 321.68228,879.31513 322.12499,876.81513 322.125,873.06512 322.12499,869.29431 321.68228,866.7891 320.79687,865.5495 319.92186,864.30994 318.82811,863.69015 317.51562,863.69012 316.22395,863.69015 315.1927,864.23702 314.42187,865.33075 313.45312,866.7266 312.96875,869.30472 312.96875,873.06512"
           style="font-size:32px;font-family:Arial"
           id="path4885" />
        <path
           d="M 327.89062,873.06512 C 327.89062,870.35681 328.16667,868.17972 328.71875,866.53387 329.28125,864.87764 330.10937,863.6016 331.20312,862.70575 332.30729,861.80994 333.6927,861.36202 335.35937,861.362 336.58853,861.36202 337.66666,861.61202 338.59375,862.112 339.52082,862.6016 340.28644,863.31515 340.89062,864.25262 341.49478,865.17973 341.96873,866.31514 342.3125,867.65887 342.65623,868.99222 342.82811,870.7943 342.82812,873.06512 342.82811,875.75263 342.55207,877.92451 342,879.58075 341.4479,881.22659 340.61978,882.50263 339.51562,883.40887 338.42186,884.30471 337.03645,884.75262 335.35937,884.75262 333.15104,884.75262 331.41666,883.96096 330.15625,882.37762 328.64583,880.47138 327.89062,877.36721 327.89062,873.06512 M 330.78125,873.06512 C 330.78125,876.82555 331.21875,879.33075 332.09375,880.58075 332.97916,881.82034 334.0677,882.44013 335.35937,882.44012 336.65103,882.44013 337.73436,881.81513 338.60937,880.56512 339.49478,879.31513 339.93749,876.81513 339.9375,873.06512 339.93749,869.29431 339.49478,866.7891 338.60937,865.5495 337.73436,864.30994 336.64061,863.69015 335.32812,863.69012 334.03645,863.69015 333.0052,864.23702 332.23437,865.33075 331.26562,866.7266 330.78125,869.30472 330.78125,873.06512"
           style="font-size:32px;font-family:Arial"
           id="path4887" />
      </g>
      <g
         style=""
         id="text4798">
        <path
           d="M 90.8125,822.99774 93.84375,823.76337 C 93.208312,826.25295 92.06248,828.15399 90.40625,829.46649 88.7604,830.76858 86.744777,831.41962 84.359375,831.41962 81.890615,831.41962 79.8802,830.91962 78.328125,829.91962 76.786454,828.9092 75.609371,827.45087 74.796875,825.54462 73.99479,823.63837 73.593748,821.5915 73.59375,819.40399 73.593748,817.01859 74.046873,814.94047 74.953125,813.16962 75.869788,811.38839 77.166662,810.03943 78.84375,809.12274 80.531241,808.19568 82.385406,807.73214 84.40625,807.73212 86.697902,807.73214 88.624983,808.31547 90.1875,809.48212 91.74998,810.6488 92.838521,812.28943 93.453125,814.40399 L 90.46875,815.10712 C 89.937482,813.44047 89.16665,812.22693 88.15625,811.46649 87.145818,810.7061 85.874986,810.32589 84.34375,810.32587 82.583323,810.32589 81.109366,810.74776 79.921875,811.59149 78.744785,812.43526 77.916661,813.57068 77.4375,814.99774 76.958328,816.41442 76.718745,817.87796 76.71875,819.38837 76.718745,821.33629 76.999995,823.03942 77.5625,824.49774 78.135411,825.94566 79.020826,827.029 80.21875,827.74774 81.416657,828.46649 82.713531,828.82587 84.109375,828.82587 85.807278,828.82587 87.244776,828.33629 88.421875,827.35712 89.598941,826.37795 90.395815,824.92483 90.8125,822.99774"
           style="font-size:32px;font-family:Arial"
           id="path4890" />
        <path
           d="M 96.1875,822.73212 C 96.187499,819.65921 97.041665,817.38317 98.75,815.90399 100.17708,814.67484 101.91666,814.06026 103.96875,814.06024 106.24999,814.06026 108.11457,814.81026 109.5625,816.31024 111.0104,817.79984 111.73436,819.86234 111.73438,822.49774 111.73436,824.63316 111.41144,826.31545 110.76563,827.54462 110.13019,828.76337 109.1979,829.71128 107.96875,830.38837 106.74999,831.06545 105.41666,831.40399 103.96875,831.40399 101.64583,831.40399 99.76562,830.6592 98.328125,829.16962 96.90104,827.68004 96.187499,825.53421 96.1875,822.73212 M 99.078125,822.73212 C 99.078121,824.85712 99.541662,826.45087 100.46875,827.51337 101.39583,828.56545 102.56249,829.09149 103.96875,829.09149 105.36457,829.09149 106.52603,828.56024 107.45313,827.49774 108.3802,826.43525 108.84374,824.81546 108.84375,822.63837 108.84374,820.58629 108.37499,819.03421 107.4375,817.98212 106.51041,816.91963 105.35416,816.38838 103.96875,816.38837 102.56249,816.38838 101.39583,816.91442 100.46875,817.96649 99.541662,819.01859 99.078121,820.60713 99.078125,822.73212"
           style="font-size:32px;font-family:Arial"
           id="path4892" />
        <path
           d="M 114,822.73212 C 114,819.65921 114.85416,817.38317 116.5625,815.90399 117.98958,814.67484 119.72916,814.06026 121.78125,814.06024 124.06249,814.06026 125.92707,814.81026 127.375,816.31024 128.8229,817.79984 129.54686,819.86234 129.54687,822.49774 129.54686,824.63316 129.22394,826.31545 128.57812,827.54462 127.94269,828.76337 127.0104,829.71128 125.78125,830.38837 124.56249,831.06545 123.22916,831.40399 121.78125,831.40399 119.45833,831.40399 117.57812,830.6592 116.14063,829.16962 114.71354,827.68004 114,825.53421 114,822.73212 M 116.89063,822.73212 C 116.89062,824.85712 117.35416,826.45087 118.28125,827.51337 119.20833,828.56545 120.37499,829.09149 121.78125,829.09149 123.17707,829.09149 124.33853,828.56024 125.26563,827.49774 126.1927,826.43525 126.65624,824.81546 126.65625,822.63837 126.65624,820.58629 126.18749,819.03421 125.25,817.98212 124.32291,816.91963 123.16666,816.38838 121.78125,816.38837 120.37499,816.38838 119.20833,816.91442 118.28125,817.96649 117.35416,819.01859 116.89062,820.60713 116.89063,822.73212"
           style="font-size:32px;font-family:Arial"
           id="path4894" />
        <path
           d="M 132.82812,831.02899 132.82812,814.43524 135.35937,814.43524 135.35937,816.95087 C 136.0052,815.7738 136.59895,814.99776 137.14062,814.62274 137.6927,814.24776 138.29687,814.06026 138.95312,814.06024 139.90103,814.06026 140.86457,814.36234 141.84375,814.96649 L 140.875,817.57587 C 140.18749,817.16963 139.49999,816.96651 138.8125,816.96649 138.19791,816.96651 137.64583,817.15401 137.15625,817.52899 136.66666,817.89359 136.3177,818.404 136.10937,819.06024 135.79687,820.06025 135.64062,821.154 135.64062,822.34149 L 135.64062,831.02899 132.82812,831.02899"
           style="font-size:32px;font-family:Arial"
           id="path4896" />
        <path
           d="M 154.3125,831.02899 154.3125,828.93524 C 153.2604,830.58108 151.71353,831.40399 149.67187,831.40399 148.34895,831.40399 147.1302,831.03941 146.01562,830.31024 144.91145,829.58108 144.05208,828.56545 143.4375,827.26337 142.83333,825.95087 142.53125,824.44566 142.53125,822.74774 142.53125,821.0915 142.80729,819.5915 143.35937,818.24774 143.91146,816.89359 144.73958,815.85713 145.84375,815.13837 146.94791,814.41963 148.18228,814.06026 149.54687,814.06024 150.54687,814.06026 151.43749,814.2738 152.21875,814.70087 152.99999,815.11755 153.6354,815.66442 154.125,816.34149 L 154.125,808.12274 156.92187,808.12274 156.92187,831.02899 154.3125,831.02899 M 145.42187,822.74774 C 145.42187,824.87275 145.86979,826.46129 146.76562,827.51337 147.66145,828.56545 148.71874,829.09149 149.9375,829.09149 151.16666,829.09149 152.20832,828.59149 153.0625,827.59149 153.92707,826.58108 154.35936,825.04462 154.35937,822.98212 154.35936,820.71129 153.92186,819.04463 153.04687,817.98212 152.17186,816.91963 151.09374,816.38838 149.8125,816.38837 148.56249,816.38838 147.51562,816.8988 146.67187,817.91962 145.83854,818.94046 145.42187,820.54984 145.42187,822.74774"
           style="font-size:32px;font-family:Arial"
           id="path4898" />
        <path
           d="M 161.375,811.35712 161.375,808.12274 164.1875,808.12274 164.1875,811.35712 161.375,811.35712 M 161.375,831.02899 161.375,814.43524 164.1875,814.43524 164.1875,831.02899 161.375,831.02899"
           style="font-size:32px;font-family:Arial"
           id="path4900" />
        <path
           d="M 168.48437,831.02899 168.48437,814.43524 171.01562,814.43524 171.01562,816.79462 C 172.23437,814.97172 173.99478,814.06026 176.29687,814.06024 177.29686,814.06026 178.21353,814.24255 179.04687,814.60712 179.89061,814.9613 180.52082,815.43005 180.9375,816.01337 181.35415,816.59671 181.64582,817.28942 181.8125,818.09149 181.91665,818.61234 181.96873,819.52379 181.96875,820.82587 L 181.96875,831.02899 179.15625,831.02899 179.15625,820.93524 C 179.15624,819.78942 179.04686,818.93525 178.82812,818.37274 178.60936,817.79984 178.21874,817.34671 177.65625,817.01337 177.10416,816.66963 176.45311,816.49776 175.70312,816.49774 174.5052,816.49776 173.46874,816.87796 172.59375,817.63837 171.72916,818.3988 171.29687,819.8415 171.29687,821.96649 L 171.29687,831.02899 168.48437,831.02899"
           style="font-size:32px;font-family:Arial"
           id="path4902" />
        <path
           d="M 197.125,828.98212 C 196.08332,829.86753 195.07811,830.49253 194.10937,830.85712 193.15103,831.2217 192.11978,831.40399 191.01562,831.40399 189.1927,831.40399 187.79166,830.96128 186.8125,830.07587 185.83333,829.18004 185.34375,828.03941 185.34375,826.65399 185.34375,825.8415 185.52604,825.10191 185.89062,824.43524 186.26562,823.75817 186.75,823.2165 187.34375,822.81024 187.94791,822.404 188.625,822.09671 189.375,821.88837 189.92708,821.74254 190.76041,821.60192 191.875,821.46649 194.14582,821.19567 195.8177,820.87275 196.89062,820.49774 196.90103,820.11234 196.90624,819.86754 196.90625,819.76337 196.90624,818.61755 196.64061,817.81025 196.10937,817.34149 195.39061,816.70609 194.32291,816.38838 192.90625,816.38837 191.58333,816.38838 190.60416,816.62276 189.96875,817.09149 189.34374,817.54984 188.8802,818.36755 188.57812,819.54462 L 185.82812,819.16962 C 186.07812,817.99255 186.48958,817.04463 187.0625,816.32587 187.63541,815.59672 188.46354,815.03942 189.54687,814.65399 190.6302,814.25818 191.88541,814.06026 193.3125,814.06024 194.72916,814.06026 195.8802,814.22693 196.76562,814.56024 197.65103,814.89359 198.30207,815.31547 198.71875,815.82587 199.1354,816.32588 199.42707,816.9613 199.59375,817.73212 199.68748,818.2113 199.73436,819.07588 199.73437,820.32587 L 199.73437,824.07587 C 199.73436,826.69045 199.79165,828.3467 199.90625,829.04462 200.03123,829.73212 200.27082,830.39358 200.625,831.02899 L 197.6875,831.02899 C 197.39582,830.44566 197.20832,829.76337 197.125,828.98212 M 196.89062,822.70087 C 195.86978,823.11754 194.33853,823.47171 192.29687,823.76337 191.14062,823.93004 190.32291,824.11754 189.84375,824.32587 189.36458,824.53421 188.99479,824.8415 188.73437,825.24774 188.47395,825.64358 188.34375,826.08629 188.34375,826.57587 188.34375,827.32587 188.625,827.95087 189.1875,828.45087 189.76041,828.95087 190.59374,829.20087 191.6875,829.20087 192.77082,829.20087 193.73437,828.96649 194.57812,828.49774 195.42186,828.01858 196.04165,827.36754 196.4375,826.54462 196.73957,825.90921 196.89061,824.97171 196.89062,823.73212 L 196.89062,822.70087"
           style="font-size:32px;font-family:Arial"
           id="path4904" />
        <path
           d="M 210.25,828.51337 210.65625,830.99774 C 209.86458,831.16441 209.15624,831.24774 208.53125,831.24774 207.51041,831.24774 206.71875,831.08628 206.15625,830.76337 205.59375,830.44045 205.19791,830.01858 204.96875,829.49774 204.73958,828.96649 204.625,827.85712 204.625,826.16962 L 204.625,816.62274 202.5625,816.62274 202.5625,814.43524 204.625,814.43524 204.625,810.32587 207.42187,808.63837 207.42187,814.43524 210.25,814.43524 210.25,816.62274 207.42187,816.62274 207.42187,826.32587 C 207.42187,827.12795 207.46874,827.64358 207.5625,827.87274 207.66666,828.10191 207.82812,828.2842 208.04687,828.41962 208.27604,828.55504 208.59895,828.62274 209.01562,828.62274 209.32812,828.62274 209.73958,828.58629 210.25,828.51337"
           style="font-size:32px;font-family:Arial"
           id="path4906" />
        <path
           d="M 224.34375,825.68524 227.25,826.04462 C 226.79165,827.74254 225.94269,829.06024 224.70312,829.99774 223.46353,830.93524 221.8802,831.40399 219.95312,831.40399 217.52604,831.40399 215.59895,830.6592 214.17187,829.16962 212.75521,827.66962 212.04687,825.57066 212.04687,822.87274 212.04687,820.08109 212.76562,817.91442 214.20312,816.37274 215.64062,814.83109 217.5052,814.06026 219.79687,814.06024 222.01561,814.06026 223.82811,814.81547 225.23437,816.32587 226.64061,817.8363 227.34373,819.96129 227.34375,822.70087 227.34373,822.86754 227.33853,823.11754 227.32812,823.45087 L 214.95312,823.45087 C 215.05729,825.27379 215.57291,826.66962 216.5,827.63837 217.42708,828.60712 218.58333,829.09149 219.96875,829.09149 220.99999,829.09149 221.8802,828.82066 222.60937,828.27899 223.33853,827.73733 223.91665,826.87275 224.34375,825.68524 M 215.10937,821.13837 224.375,821.13837 C 224.24999,819.74254 223.89582,818.69567 223.3125,817.99774 222.41666,816.91442 221.2552,816.37276 219.82812,816.37274 218.53645,816.37276 217.44791,816.80505 216.5625,817.66962 215.6875,818.53421 215.20312,819.69046 215.10937,821.13837"
           style="font-size:32px;font-family:Arial"
           id="path4908" />
        <path
           d="M 231.57812,817.63837 231.57812,814.43524 234.78125,814.43524 234.78125,817.63837 231.57812,817.63837 M 231.57812,831.02899 231.57812,827.82587 234.78125,827.82587 234.78125,831.02899 231.57812,831.02899"
           style="font-size:32px;font-family:Arial"
           id="path4910" />
        <path
           d="M 258.35937,831.02899 255.54687,831.02899 255.54687,813.10712 C 254.86978,813.75297 253.97916,814.3988 252.875,815.04462 251.78124,815.69047 250.79687,816.17484 249.92187,816.49774 L 249.92187,813.77899 C 251.49479,813.03943 252.86979,812.14359 254.04687,811.09149 255.22395,810.03943 256.05728,809.0186 256.54687,808.02899 L 258.35937,808.02899 258.35937,831.02899"
           style="font-size:32px;font-family:Arial"
           id="path4912" />
        <path
           d="M 265.57812,819.73212 C 265.57812,817.0238 265.85417,814.84672 266.40625,813.20087 266.96875,811.54464 267.79687,810.2686 268.89062,809.37274 269.99479,808.47693 271.3802,808.02901 273.04687,808.02899 274.27603,808.02901 275.35416,808.27901 276.28125,808.77899 277.20832,809.2686 277.97394,809.98214 278.57812,810.91962 279.18228,811.84672 279.65623,812.98213 280,814.32587 280.34373,815.65922 280.51561,817.4613 280.51562,819.73212 280.51561,822.41963 280.23957,824.5915 279.6875,826.24774 279.1354,827.89358 278.30728,829.16962 277.20312,830.07587 276.10936,830.9717 274.72395,831.41962 273.04687,831.41962 270.83854,831.41962 269.10416,830.62795 267.84375,829.04462 266.33333,827.13837 265.57812,824.03421 265.57812,819.73212 M 268.46875,819.73212 C 268.46875,823.49254 268.90625,825.99775 269.78125,827.24774 270.66666,828.48733 271.7552,829.10712 273.04687,829.10712 274.33853,829.10712 275.42186,828.48212 276.29687,827.23212 277.18228,825.98212 277.62499,823.48212 277.625,819.73212 277.62499,815.9613 277.18228,813.45609 276.29687,812.21649 275.42186,810.97693 274.32811,810.35714 273.01562,810.35712 271.72395,810.35714 270.6927,810.90401 269.92187,811.99774 268.95312,813.39359 268.46875,815.97172 268.46875,819.73212"
           style="font-size:32px;font-family:Arial"
           id="path4914" />
        <path
           d="M 284.90625,831.02899 284.90625,827.82587 288.10937,827.82587 288.10937,831.02899 C 288.10937,832.20607 287.90104,833.15399 287.48437,833.87274 287.0677,834.6019 286.40625,835.1644 285.5,835.56024 L 284.71875,834.35712 C 285.3125,834.0967 285.75,833.71128 286.03125,833.20087 286.3125,832.70087 286.46875,831.97691 286.5,831.02899 L 284.90625,831.02899"
           style="font-size:32px;font-family:Arial"
           id="path4916" />
        <path
           d="M 301.28125,831.02899 301.28125,825.54462 291.34375,825.54462 291.34375,822.96649 301.79687,808.12274 304.09375,808.12274 304.09375,822.96649 307.1875,822.96649 307.1875,825.54462 304.09375,825.54462 304.09375,831.02899 301.28125,831.02899 M 301.28125,822.96649 301.28125,812.63837 294.10937,822.96649 301.28125,822.96649"
           style="font-size:32px;font-family:Arial"
           id="path4918" />
        <path
           d="M 310.07812,819.73212 C 310.07812,817.0238 310.35417,814.84672 310.90625,813.20087 311.46875,811.54464 312.29687,810.2686 313.39062,809.37274 314.49479,808.47693 315.8802,808.02901 317.54687,808.02899 318.77603,808.02901 319.85416,808.27901 320.78125,808.77899 321.70832,809.2686 322.47394,809.98214 323.07812,810.91962 323.68228,811.84672 324.15623,812.98213 324.5,814.32587 324.84373,815.65922 325.01561,817.4613 325.01562,819.73212 325.01561,822.41963 324.73957,824.5915 324.1875,826.24774 323.6354,827.89358 322.80728,829.16962 321.70312,830.07587 320.60936,830.9717 319.22395,831.41962 317.54687,831.41962 315.33854,831.41962 313.60416,830.62795 312.34375,829.04462 310.83333,827.13837 310.07812,824.03421 310.07812,819.73212 M 312.96875,819.73212 C 312.96875,823.49254 313.40625,825.99775 314.28125,827.24774 315.16666,828.48733 316.2552,829.10712 317.54687,829.10712 318.83853,829.10712 319.92186,828.48212 320.79687,827.23212 321.68228,825.98212 322.12499,823.48212 322.125,819.73212 322.12499,815.9613 321.68228,813.45609 320.79687,812.21649 319.92186,810.97693 318.82811,810.35714 317.51562,810.35712 316.22395,810.35714 315.1927,810.90401 314.42187,811.99774 313.45312,813.39359 312.96875,815.97172 312.96875,819.73212"
           style="font-size:32px;font-family:Arial"
           id="path4920" />
      </g>
    </g>
  </g>
</svg>
