<svg xmlns="http://www.w3.org/2000/svg" viewBox="0 0 512 512"><g transform="matrix(.67503 0 0 .67503 81.55 76.63)" style="stroke:#000"><path d="m-49.626 52.4h616.11a.0771 .0353 0 0 1 .077 .0353v426.58a.0771 .0353 0 0 1 -.077 .035h-616.11a.0771 .0353 0 0 1 -.0771 -.035v-426.58a.0771 .0353 0 0 1 .0771 -.0353" style="fill:none;stroke-linecap:round;stroke-linejoin:round;stroke-width:23.703"/><g style="stroke-width:16"><path d="m47.08 115h416.85a.0771 .0353 0 0 1 .077 .035v76.93a.0771 .0353 0 0 1 -.077 .035h-416.85a.0771 .0353 0 0 1 -.0771 -.035v-76.93a.0771 .0353 0 0 1 .0771 -.035" transform="matrix(1.48142 0 0 1.48142-120.81-113.52)" style="stroke-linecap:round;stroke-linejoin:round"/><path d="m448.05 52.4h15.946v80h-80z" style="fill:#fff;stroke-width:23.703"/></g></g></svg>