<svg xmlns="http://www.w3.org/2000/svg" viewBox="0 0 512 512" xmlns:xlink="http://www.w3.org/1999/xlink"><defs><path id="0" d="m16.5 4.5a1 1 0 1 1 -2 0 1 1 0 1 1 2 0"/></defs><g transform="translate(0 492)"><g style="fill:none;stroke:#000;stroke-width:16"><path d="m64-223.2l384-204.8"/><path d="m217.6-44c0-128 102.4-230.4 230.4-230.4"/></g><g style="fill:#f00"><use transform="matrix(32 0 0-32-214.4-66.4)" xlink:href="#0"/><use transform="matrix(32 0 0-32-240-181.6)" xlink:href="#0"/><use transform="matrix(32 0 0-32-432-79.2)" xlink:href="#0"/><use transform="matrix(32 0 0-32-40-292)" xlink:href="#0"/><use transform="matrix(32 0 0-32-336-130.4)" xlink:href="#0"/><use transform="matrix(32 0 0-32-144-232.8)" xlink:href="#0"/><use transform="matrix(32 0 0-32-278.4 100)" xlink:href="#0"/><use transform="matrix(32 0 0-32-48-130.4)" xlink:href="#0"/><use transform="matrix(32 0 0-32-259.2 10.4)" xlink:href="#0"/><use transform="matrix(32 0 0-32-137.6-111.2)" xlink:href="#0"/></g></g></svg>