<svg xmlns="http://www.w3.org/2000/svg" viewBox="0 0 512 512">
<defs/>
<g transform="translate(0 492)">
<g fill="none" stroke="#000" stroke-width="16">
<path d="m64-223.2 384-204.8"/>
<path d="m217.6-44c0-128 102.4-230.4 230.4-230.4"/>
</g>
<g fill="#f00">
<path d="m16.5,4.5a1,1 0 1,1 -2,0 1,1 0 1,1 2,0z" transform="matrix(32 0 0 -32 -214.4 -66.4)"/>
<path d="m16.5,4.5a1,1 0 1,1 -2,0 1,1 0 1,1 2,0z" transform="matrix(32 0 0 -32 -240 -181.6)"/>
<path d="m16.5,4.5a1,1 0 1,1 -2,0 1,1 0 1,1 2,0z" transform="matrix(32 0 0 -32 -432 -79.2)"/>
<path d="m16.5,4.5a1,1 0 1,1 -2,0 1,1 0 1,1 2,0z" transform="matrix(32 0 0 -32 -40 -292)"/>
<path d="m16.5,4.5a1,1 0 1,1 -2,0 1,1 0 1,1 2,0z" transform="matrix(32 0 0 -32 -336 -130.4)"/>
<path d="m16.5,4.5a1,1 0 1,1 -2,0 1,1 0 1,1 2,0z" transform="matrix(32 0 0 -32 -144 -232.8)"/>
<path d="m16.5,4.5a1,1 0 1,1 -2,0 1,1 0 1,1 2,0z" transform="matrix(32 0 0 -32 -278.4 100)"/>
<path d="m16.5,4.5a1,1 0 1,1 -2,0 1,1 0 1,1 2,0z" transform="matrix(32 0 0 -32 -48 -130.4)"/>
<path d="m16.5,4.5a1,1 0 1,1 -2,0 1,1 0 1,1 2,0z" transform="matrix(32 0 0 -32 -259.2 10.4)"/>
<path d="m16.5,4.5a1,1 0 1,1 -2,0 1,1 0 1,1 2,0z" transform="matrix(32 0 0 -32 -137.6 -111.2)"/>
</g>
</g>
</svg>
