<svg xmlns="http://www.w3.org/2000/svg" viewBox="0 0 512 512"><g style="stroke:#fff;stroke-width:3.61"><path d="m200 344h272v48h-272z" style="fill:#00ccff"/><g style="fill:#fff"><path d="m200 392h272v48h-272z"/><path d="m200 440h272v48h-272z"/><path d="m200 296h272v48h-272z"/></g></g><path d="m319.07 38.34c35.928 14.49 68.804 41.932 102.36 65.791 6.334 36.809-40.03-9.295-28.38 23.07 15.305 22.334 39.925 29.528 50.614 58.4 4.738 36.527-21.524 42.19-38.01 47.33-16.571 10.626-29.453 31.787-46.556 40.738-8.226 27.18-28.858 30.394-43.95 47.29-13.168 2.93-24.944 7.838-37.31 14.05-1.188-17.286-12.317-37.3-23.422-18.13-4.905 17.313-27.838 39.999-32.729 13.88 2.822-.464 15.434 3.601 14.485-13.785-4.4-33.991-20.627 16.811-31.826 18.719-8.251-3.126 15.445-22.274-.498-27.673-7.02 5.775-17.488 34.465-25.27 19.994 16.76-32.677-19.308-40.21-32.571-26.772-10.71-15.03-34.22 23.942-34.933-.629 3.206-7.209 26.53-10.355 16.526-15.388-10.793 10.697-27.438-.393-29.873-9.823-15.182 5.959 12.207-28.981-5.111-17.423-19.2 5.635-33.15-22.541-26.74-48.4-10.04-15.959-32.721 33.3-29.426-3.752-7.898-6.579-12.259-15.241-.724-18.636 17.235-11.632 20.335-51.42 1.346-55.13.789-30.337 21.693-43.1 36.54-55.05 51.956-40.572 111.55-43.11 168.45-48.616 25.791-.869 51.74 1.601 77.01 9.958m14.09 84.91c-20.493 5.624-18.808 44.31-28.11 65.992-21.852 53.17-72.07 73.07-106.73 38.483-17.382-15.01-35.95-39.27-35.697-72.921-7.22-35.591-34.18-16.316-47-.283-18.909 16.492-15.245 54.946 2.993 68.63 19.736 23.364 43.23 38.51 66.896 49.22 52.45 17.49 107.97-7.04 151.84-52.603 11.897-14.846 30.331-32.384 25.667-60.11-4.857-19.289-18.15-29.406-29.853-36.4m-128.6 3.077c-20.695 14.703-9.508 70 12.02 68.792 17.969-6.895 11.371-43.05.646-56.819-3.534-5.425-7.764-10.12-12.665-11.973m142.12 140.56c-8.195 2.414 6.751 7.606 0 0m-52.34 33.439c-10.306-.488 4.641 14.538 0 0m-35.857 16.15c11.612 17.483-12.65 6.797 0 0m-169.72-57.667c-1.568 20.962-14.267-.17 0 0m71.47 42.463c1.057 18.832-14.504-4.249 0 0m31.607 11.41c-14.356 3.98.377 23.375 0 0m-15.811 2.036c-4.777 5.569-25.797 34.419-16.02 9.746 4.546-5.673 10.252-8.815 16.02-9.746m-30.31-.205c-4.148 19.469-13.589-3.171 0 0"/></svg>
