<svg xmlns="http://www.w3.org/2000/svg" viewBox="0 0 512 512"><path d="m403.08 108.92c81.23 81.23 81.23 212.93 0 294.16-81.23 81.23-212.93 81.23-294.16 0" style="fill:none;stroke:#fff;stroke-linejoin:round;stroke-width:32"/><path d="m192 32h128v32h-128z" style="fill:#fff"/><path d="m128 64h64v32h-64z" style="fill:#fff"/><path d="m32 192h32v128h-32z" style="fill:#fff"/><path d="m64 128h32v64h-32z" style="fill:#fff"/><path d="m96 96h32v32h-32z" style="fill:#fff"/><path d="m64 320h32v64h-32z" style="fill:#fff"/><path d="m320 64h64v32h-64z" style="fill:#fff"/><path d="m384 96h32l-32 32z" style="fill:#fff"/><path d="m96 384h32l-32 32z" style="fill:#fff"/><path d="m32 480l448-448" style="fill:none;stroke:#00ccff;stroke-width:16"/></svg>
