<svg xmlns="http://www.w3.org/2000/svg" viewBox="0 0 512 512"><g transform="translate(0 464)"><g style="fill:#f00;stroke-width:32"><path d="m408-88c0-17.674 14.326-32 32-32 17.674 0 32 14.326 32 32 0 17.674-14.326 32-32 32-17.674 0-32-14.326-32-32"/><path d="m40-344c0-17.674 14.326-32 32-32 17.674 0 32 14.326 32 32 0 17.674-14.326 32-32 32-17.674 0-32-14.326-32-32"/></g><path d="m72 120l92 64 20-112 272 192-108 48 92 64" transform="translate(0-464)" style="fill:none;stroke:#000;stroke-width:16"/></g></svg>