<svg xmlns="http://www.w3.org/2000/svg" viewBox="0 0 512 512"><g transform="translate(0 464)" style="fill:none;stroke:#fff"><g style="stroke-width:13.714"><path d="m360-192c0 30.928-25.07 56-56 56-30.928 0-56-25.07-56-56 0-30.928 25.07-56 56-56 30.928 0 56 25.07 56 56z"/><path d="m440-328h-256l-112 112v144h368v-256z"/></g><g style="stroke-width:8"><path d="m72-88l240-240"/><path d="m296-248l80-80"/><path d="m120-72l128-128"/><path d="m344-232l96-96"/><path d="m184-72l80-80"/><path d="m360-184l80-80"/><path d="m248-72l64-64"/><path d="m312-72l128-128"/><path d="m376-72l64-64"/><path d="m72-152l176-176"/></g></g></svg>
