<svg xmlns="http://www.w3.org/2000/svg" viewBox="0 0 1536 1024"><g stroke-width="8"><g fill="#fff" stroke="#00f" color="#000"><path d="m1176,309.2-512,512"/><path d="m152 293.2l512 528"/></g><g fill="none" stroke="#f00"><path d="m664 101.2v800"/><path d="m1384 821.2h-800"/></g></g><g color="#000"><g stroke-linecap="square"><path fill="#e6e6e6" stroke="#000" fill-opacity=".471" stroke-width="6.4" d="m1160 718.8h128v204.8h-128z"/><path fill="none" stroke="#00f" stroke-width="8" d="m912.9 572.3c63.7 63.7 103.1 151.7 103.1 248.9"/><g fill="#e6e6e6" stroke="#000" fill-opacity=".471" stroke-width="6.4"><path d="m379.41 947.03h128v204.8h-128z" transform="matrix(.70711-.70711.70711.70711 0 0)"/><path d="m197.2-766.4h128v204.8h-128z" transform="matrix(0 1-1 0 0 0)"/><path d="m-554.74 2.994h128v204.8h-128z" transform="matrix(-.70711-.70711-.70711.70711 0 0)"/></g></g><path fill="#00f" stroke="#00f" stroke-width="6.365" d="m916.35 575.16l12.739 62.36 44.795-35.14-57.53-27.23z"/></g><path d="m920.64 759.61c-4.883 4.15-9.595 7.08-14.14 8.789-4.492 1.709-9.326 2.563-14.502 2.563-8.545 0-15.11-2.075-19.702-6.226-4.59-4.199-6.885-9.546-6.885-16.04 0-3.809.854-7.275 2.563-10.4 1.758-3.174 4.03-5.713 6.812-7.617 2.832-1.904 6.01-3.345 9.521-4.321 2.588-.684 6.494-1.343 11.719-1.978 10.644-1.269 18.481-2.783 23.511-4.541.049-1.807.073-2.954.073-3.442 0-5.371-1.245-9.155-3.735-11.353-3.369-2.978-8.374-4.468-15.01-4.468-6.201 0-10.791 1.099-13.77 3.296-2.93 2.149-5.103 5.982-6.519 11.499l-12.891-1.758c1.172-5.518 3.101-9.961 5.786-13.33 2.686-3.418 6.567-6.03 11.646-7.837 5.078-1.855 10.962-2.783 17.651-2.783 6.641 0 12.04.781 16.187 2.344 4.15 1.563 7.202 3.54 9.155 5.933 1.953 2.344 3.32 5.322 4.102 8.936.439 2.246.659 6.299.659 12.158v17.578c0 12.256.268 20.02.806 23.291.586 3.223 1.709 6.323 3.369 9.302h-13.77c-1.367-2.734-2.246-5.933-2.637-9.595m-1.099-29.443c-4.785 1.953-11.963 3.613-21.533 4.98-5.42.781-9.253 1.66-11.499 2.637-2.246.977-3.98 2.417-5.2 4.321-1.221 1.856-1.831 3.931-1.831 6.226 0 3.516 1.318 6.445 3.955 8.789 2.686 2.344 6.592 3.516 11.719 3.516 5.078 0 9.595-1.099 13.55-3.296 3.955-2.246 6.86-5.298 8.716-9.155 1.416-2.978 2.124-7.373 2.124-13.184v-4.834"/></svg>