<?xml version="1.0" encoding="UTF-8" standalone="no"?>
<svg
   xmlns:dc="http://purl.org/dc/elements/1.1/"
   xmlns:cc="http://creativecommons.org/ns#"
   xmlns:rdf="http://www.w3.org/1999/02/22-rdf-syntax-ns#"
   xmlns:svg="http://www.w3.org/2000/svg"
   xmlns="http://www.w3.org/2000/svg"
   xmlns:sodipodi="http://sodipodi.sourceforge.net/DTD/sodipodi-0.dtd"
   xmlns:inkscape="http://www.inkscape.org/namespaces/inkscape"
   width="1536"
   height="1024"
   id="svg4476"
   version="1.1"
   inkscape:version="0.48.2 r9819"
   sodipodi:docname="RotateDialog.svg">
  <metadata
     id="metadata4518">
    <rdf:RDF>
      <cc:Work
         rdf:about="">
        <dc:format>image/svg+xml</dc:format>
        <dc:type
           rdf:resource="http://purl.org/dc/dcmitype/StillImage" />
      </cc:Work>
    </rdf:RDF>
  </metadata>
  <sodipodi:namedview
     pagecolor="#ffffff"
     bordercolor="#666666"
     borderopacity="1"
     objecttolerance="10"
     gridtolerance="10"
     guidetolerance="10"
     inkscape:pageopacity="0"
     inkscape:pageshadow="2"
     inkscape:window-width="640"
     inkscape:window-height="480"
     id="namedview4516"
     showgrid="false"
     inkscape:zoom="0.21875"
     inkscape:cx="768"
     inkscape:cy="512"
     inkscape:window-x="0"
     inkscape:window-y="0"
     inkscape:window-maximized="0"
     inkscape:current-layer="svg4476" />
  <defs
     id="defs4478" />
  <g
     stroke-width="8"
     id="g4480">
    <g
       fill="#fff"
       stroke="#00f"
       color="#000"
       id="g4482">
      <path
         d="m1176,309.2-512,512"
         id="path4484" />
      <path
         d="m152,293.2 512,528"
         id="path4486" />
    </g>
    <g
       fill="none"
       stroke="#f00"
       id="g4488">
      <path
         d="m664,101.2 0,800"
         id="path4490" />
      <path
         d="m1384,821.2-800,0"
         id="path4492" />
    </g>
  </g>
  <g
     color="#000"
     id="g4494">
    <g
       stroke-linecap="square"
       id="g4496">
      <path
         fill="#e6e6e6"
         stroke="#000"
         fill-opacity=".471"
         stroke-width="6.4"
         d="m1160,718.8h128v204.8h-128z"
         id="path4498" />
      <path
         fill="none"
         stroke="#00f"
         stroke-width="8"
         d="m912.9016,572.2984c63.6995,63.6995 103.0984,151.6995 103.0984,248.9016"
         id="path4500" />
      <g
         fill="#e6e6e6"
         stroke="#000"
         fill-opacity=".471"
         stroke-width="6.4"
         id="g4502">
        <path
           d="m379.41,947.031h128v204.799h-128z"
           transform="matrix(.70711 -.70711 .70711 .70711 0 0)"
           id="path4504" />
        <path
           d="m197.2-766.4h128v204.8h-128z"
           transform="rotate(90)"
           id="path4506" />
        <path
           d="m-554.744,2.9936h128v204.8004h-128z"
           transform="matrix(-.70711 -.70711 -.70711 .70711 0 0)"
           id="path4508" />
      </g>
    </g>
    <path
       fill="#00f"
       stroke="#00f"
       stroke-width="6.365"
       d="m916.3534,575.1626 12.7386,62.3625 44.7946-35.1359-57.5332-27.2266z"
       id="path4510" />
  </g>
  <g
     style="font-size:140px;text-align:start;line-height:125%;letter-spacing:0;word-spacing:0;font-family:Sans"
     id="text4512">
    <path
       d="M 920.64453,759.60529 C 915.76166,763.75568 911.04975,766.68537 906.50879,768.39435 902.01656,770.10333 897.18258,770.95782 892.00684,770.95782 883.46189,770.95782 876.89451,768.88263 872.30469,764.73224 867.71484,760.53303 865.41992,755.18635 865.41992,748.6922 865.41992,744.88363 866.27441,741.41684 867.9834,738.29181 869.7412,735.11802 872.01171,732.57896 874.79492,730.67462 877.62694,728.77037 880.80076,727.32994 884.31641,726.35333 886.90427,725.66978 890.81052,725.0106 896.03516,724.37579 906.67964,723.10631 914.51655,721.59264 919.5459,719.83478 919.59467,718.02819 919.61908,716.88073 919.61914,716.3924 919.61908,711.02136 918.37397,707.23718 915.88379,705.03986 912.5146,702.06141 907.50972,700.57215 900.86914,700.57208 894.66793,700.57215 890.07809,701.67078 887.09961,703.86798 884.1699,706.01648 881.99705,709.84949 880.58105,715.367 L 867.69043,713.60919 C 868.8623,708.09167 870.791,703.64832 873.47656,700.27911 876.16209,696.86122 880.04393,694.24892 885.12207,692.4422 890.20017,690.58681 896.08395,689.65908 902.77344,689.659 909.41401,689.65908 914.80952,690.44033 918.95996,692.00275 923.11029,693.56532 926.16204,695.54286 928.11523,697.93536 930.06829,700.27918 931.43548,703.2577 932.2168,706.87091 932.65618,709.11706 932.8759,713.16979 932.87598,719.02911 L 932.87598,736.60724 C 932.8759,748.86312 933.14446,756.62678 933.68164,759.89825 934.2675,763.12092 935.39055,766.2215 937.05078,769.20001 L 923.28125,769.20001 C 921.914,766.46564 921.0351,763.2674 920.64453,759.60529 M 919.5459,730.16193 C 914.76069,732.11509 907.58296,733.77524 898.0127,735.1424 892.59274,735.92368 888.75974,736.80258 886.51367,737.77911 884.26755,738.75571 882.53416,740.19613 881.31348,742.1004 880.09275,743.9559 879.4824,746.03109 879.48242,748.32599 879.4824,751.84163 880.80076,754.77132 883.4375,757.11505 886.12302,759.45881 890.02927,760.63068 895.15625,760.63068 900.23433,760.63068 904.75093,759.53205 908.70605,757.33478 912.66108,755.0887 915.56635,752.03694 917.42187,748.1795 918.83783,745.20101 919.54584,740.80649 919.5459,734.99591 L 919.5459,730.16193"
       style="font-size:150px;font-family:Arial"
       id="path4986" />
  </g>
</svg>
