<?xml version="1.0" encoding="UTF-8" standalone="no"?>
<svg
   xmlns:dc="http://purl.org/dc/elements/1.1/"
   xmlns:cc="http://creativecommons.org/ns#"
   xmlns:rdf="http://www.w3.org/1999/02/22-rdf-syntax-ns#"
   xmlns:svg="http://www.w3.org/2000/svg"
   xmlns="http://www.w3.org/2000/svg"
   xmlns:xlink="http://www.w3.org/1999/xlink"
   xmlns:sodipodi="http://sodipodi.sourceforge.net/DTD/sodipodi-0.dtd"
   xmlns:inkscape="http://www.inkscape.org/namespaces/inkscape"
   width="512"
   height="512"
   id="svg2"
   version="1.1"
   inkscape:version="0.48.2 r9819"
   sodipodi:docname="File.svg">
  <metadata
     id="metadata173">
    <rdf:RDF>
      <cc:Work
         rdf:about="">
        <dc:format>image/svg+xml</dc:format>
        <dc:type
           rdf:resource="http://purl.org/dc/dcmitype/StillImage" />
      </cc:Work>
    </rdf:RDF>
  </metadata>
  <sodipodi:namedview
     pagecolor="#ffffff"
     bordercolor="#666666"
     borderopacity="1"
     objecttolerance="10"
     gridtolerance="10"
     guidetolerance="10"
     inkscape:pageopacity="0"
     inkscape:pageshadow="2"
     inkscape:window-width="2090"
     inkscape:window-height="1195"
     id="namedview171"
     showgrid="false"
     inkscape:zoom="1.3037281"
     inkscape:cx="256"
     inkscape:cy="256"
     inkscape:window-x="0"
     inkscape:window-y="0"
     inkscape:window-maximized="0"
     inkscape:current-layer="svg2" />
  <defs
     id="defs4">
    <linearGradient
       id="linearGradient148">
      <stop
         offset="0"
         stop-color="#fff"
         stop-opacity=".134"
         id="stop7" />
      <stop
         offset="1"
         stop-color="#fff"
         stop-opacity=".052"
         id="stop9" />
    </linearGradient>
    <linearGradient
       id="linearGradient335">
      <stop
         offset="0"
         stop-color="#fff"
         id="stop12" />
      <stop
         offset="1"
         stop-color="#fff"
         stop-opacity="0"
         id="stop14" />
    </linearGradient>
    <linearGradient
       id="linearGradient13842">
      <stop
         offset="0"
         id="stop17" />
      <stop
         offset="1"
         stop-opacity="0"
         id="stop19" />
    </linearGradient>
    <linearGradient
       id="linearGradient137">
      <stop
         offset="0"
         stop-color="#fff"
         stop-opacity=".701"
         id="stop22" />
      <stop
         offset="1"
         stop-color="#fff"
         stop-opacity="0"
         id="stop24" />
    </linearGradient>
    <linearGradient
       gradientTransform="matrix(15.16305,0,0,7.50361,-3.81826,-448.88654)"
       xlink:href="#linearGradient335"
       id="linearGradient155"
       y1="28.946"
       x1="19.116"
       y2="51.913"
       gradientUnits="userSpaceOnUse"
       x2="19.427" />
    <linearGradient
       gradientTransform="matrix(10.66666,0,0,10.90259,551.45542,-462.99881)"
       xlink:href="#linearGradient9766"
       id="linearGradient13162"
       y1="36.988"
       x1="22.176"
       y2="32.05"
       gradientUnits="userSpaceOnUse"
       x2="22.065" />
    <linearGradient
       gradientTransform="matrix(16.37651,0,0,6.94761,32.99685,-422.77456)"
       xlink:href="#linearGradient148"
       id="linearGradient156"
       y1="27.06"
       x1="14.899"
       y2="41.837"
       gradientUnits="userSpaceOnUse"
       x2="22.715" />
    <linearGradient
       gradientTransform="matrix(15.60208 0 .73684 7.29246 -3.81826 -448.88654)"
       xlink:href="#linearGradient137"
       id="linearGradient158"
       y1="18.726"
       x1="5.266"
       y2="52.626"
       gradientUnits="userSpaceOnUse"
       x2="8.212" />
    <linearGradient
       id="linearGradient9766">
      <stop
         offset="0"
         stop-color="#6194cb"
         id="stop31" />
      <stop
         offset="1"
         stop-color="#729fcf"
         id="stop33" />
    </linearGradient>
    <linearGradient
       id="linearGradient5048">
      <stop
         offset="0"
         stop-opacity="0"
         id="stop36" />
      <stop
         offset=".5"
         id="stop38" />
      <stop
         offset="1"
         stop-opacity="0"
         id="stop40" />
    </linearGradient>
    <linearGradient
       id="linearGradient5060">
      <stop
         offset="0"
         id="stop43" />
      <stop
         offset="1"
         stop-opacity="0"
         id="stop45" />
    </linearGradient>
    <linearGradient
       gradientTransform="matrix(2.77439 0 0 1.96971 -1892.179 -872.8854)"
       xlink:href="#linearGradient5048"
       id="linearGradient5027"
       y1="366.648"
       y2="609.505"
       gradientUnits="userSpaceOnUse"
       x2="0" />
    <linearGradient
       gradientTransform="matrix(10.66666,0,0,13.21392,-3.81826,-532.94619)"
       xlink:href="#linearGradient259"
       id="linearGradient8236"
       y1="10.625"
       x1="25.875"
       y2="30.875"
       x2="25.25"
       gradientUnits="userSpaceOnUse" />
    <linearGradient
       gradientTransform="matrix(10.66666,0,0,10.66666,-3.81826,-448.88654)"
       xlink:href="#linearGradient13842"
       id="linearGradient13848"
       y1="37.625"
       x1="22.25"
       y2="14.875"
       x2="19.75"
       gradientUnits="userSpaceOnUse" />
    <linearGradient
       id="linearGradient259">
      <stop
         offset="0"
         stop-color="#fafafa"
         id="stop51" />
      <stop
         offset=".5"
         stop-color="#a8a8a8"
         id="stop53" />
      <stop
         offset="1"
         stop-color="#cdcdcd"
         id="stop55" />
    </linearGradient>
    <radialGradient
       cx="26.107"
       cy="38.195"
       gradientTransform="matrix(10.83343 0 1.09979 10.67212 -3.81826 -449.77928)"
       id="radialGradient159"
       r="32.26"
       gradientUnits="userSpaceOnUse">
      <stop
         offset="0"
         stop-color="#a0a0a0"
         id="stop58" />
      <stop
         offset="1"
         stop-color="#a8a8a8"
         id="stop60" />
    </radialGradient>
    <radialGradient
       cx="605.714"
       cy="486.648"
       gradientTransform="matrix(2.77439 0 0 1.96971 -1891.633 -872.8854)"
       xlink:href="#linearGradient5060"
       id="radialGradient5029"
       r="117.143"
       gradientUnits="userSpaceOnUse" />
    <radialGradient
       cx="8.824"
       cy="3.756"
       gradientTransform="matrix(10.32824,0,0,11.16464,469.4031,-630.29624)"
       id="radialGradient8234"
       r="37.752"
       gradientUnits="userSpaceOnUse">
      <stop
         offset="0"
         stop-color="#a3a3a3"
         id="stop64" />
      <stop
         offset="1"
         stop-color="#4c4c4c"
         id="stop66" />
    </radialGradient>
    <radialGradient
       cx="605.714"
       cy="486.648"
       gradientTransform="matrix(-2.77439 0 0 1.96971 112.7623 -872.8854)"
       xlink:href="#linearGradient5060"
       id="radialGradient5031"
       r="117.143"
       gradientUnits="userSpaceOnUse" />
    <linearGradient
       inkscape:collect="always"
       xlink:href="#linearGradient148"
       id="linearGradient3160"
       gradientUnits="userSpaceOnUse"
       gradientTransform="matrix(16.37651,0,0,6.94761,32.99685,41.22544)"
       x1="14.899"
       y1="27.06"
       x2="22.715"
       y2="41.837" />
    <linearGradient
       inkscape:collect="always"
       xlink:href="#linearGradient13842"
       id="linearGradient3173"
       gradientUnits="userSpaceOnUse"
       gradientTransform="matrix(10.66666,0,0,10.66666,-3.81826,-448.88654)"
       x1="22.25"
       y1="37.625"
       x2="19.75"
       y2="14.875" />
    <linearGradient
       inkscape:collect="always"
       xlink:href="#linearGradient259"
       id="linearGradient3175"
       gradientUnits="userSpaceOnUse"
       gradientTransform="matrix(10.66666,0,0,13.21392,-3.81826,-532.94619)"
       x1="25.875"
       y1="10.625"
       x2="25.25"
       y2="30.875" />
    <radialGradient
       inkscape:collect="always"
       xlink:href="#radialGradient8234"
       id="radialGradient3177"
       gradientUnits="userSpaceOnUse"
       gradientTransform="matrix(10.32824,0,0,11.16464,469.4031,-630.29624)"
       cx="8.824"
       cy="3.756"
       r="37.752" />
    <linearGradient
       inkscape:collect="always"
       xlink:href="#linearGradient9766"
       id="linearGradient3179"
       gradientUnits="userSpaceOnUse"
       gradientTransform="matrix(10.66666,0,0,10.90259,551.45542,-462.99881)"
       x1="22.176"
       y1="36.988"
       x2="22.065"
       y2="32.05" />
    <linearGradient
       inkscape:collect="always"
       xlink:href="#linearGradient13842"
       id="linearGradient3187"
       gradientUnits="userSpaceOnUse"
       gradientTransform="matrix(10.66666,0,0,10.66666,-3.81826,15.11346)"
       x1="22.25"
       y1="37.625"
       x2="19.75"
       y2="14.875" />
    <linearGradient
       inkscape:collect="always"
       xlink:href="#linearGradient335"
       id="linearGradient3193"
       gradientUnits="userSpaceOnUse"
       gradientTransform="matrix(15.16305,0,0,7.50361,-3.81826,-448.88654)"
       x1="19.116"
       y1="28.946"
       x2="19.427"
       y2="51.913" />
    <linearGradient
       inkscape:collect="always"
       xlink:href="#linearGradient259"
       id="linearGradient3203"
       gradientUnits="userSpaceOnUse"
       gradientTransform="matrix(10.66666,0,0,13.21392,-3.81826,-532.94619)"
       x1="25.875"
       y1="10.625"
       x2="25.25"
       y2="30.875" />
    <radialGradient
       inkscape:collect="always"
       xlink:href="#radialGradient8234"
       id="radialGradient3205"
       gradientUnits="userSpaceOnUse"
       gradientTransform="matrix(10.32824,0,0,11.16464,469.4031,-630.29624)"
       cx="8.824"
       cy="3.756"
       r="37.752" />
    <linearGradient
       inkscape:collect="always"
       xlink:href="#linearGradient9766"
       id="linearGradient3207"
       gradientUnits="userSpaceOnUse"
       gradientTransform="matrix(10.66666,0,0,10.90259,551.45542,-462.99881)"
       x1="22.176"
       y1="36.988"
       x2="22.065"
       y2="32.05" />
    <linearGradient
       inkscape:collect="always"
       xlink:href="#linearGradient9766"
       id="linearGradient3211"
       gradientUnits="userSpaceOnUse"
       gradientTransform="matrix(10.66666,0,0,10.90259,551.45542,1.00119)"
       x1="22.176"
       y1="36.988"
       x2="22.065"
       y2="32.05" />
    <linearGradient
       inkscape:collect="always"
       xlink:href="#linearGradient259"
       id="linearGradient3215"
       gradientUnits="userSpaceOnUse"
       gradientTransform="matrix(10.66666,0,0,13.21392,316.18174,-68.94619)"
       x1="25.875"
       y1="10.625"
       x2="25.25"
       y2="30.875" />
    <radialGradient
       inkscape:collect="always"
       xlink:href="#radialGradient8234"
       id="radialGradient3217"
       gradientUnits="userSpaceOnUse"
       gradientTransform="matrix(10.32824,0,0,11.16464,789.4031,-166.29624)"
       cx="8.824"
       cy="3.756"
       r="37.752" />
    <linearGradient
       inkscape:collect="always"
       xlink:href="#linearGradient335"
       id="linearGradient3219"
       gradientUnits="userSpaceOnUse"
       gradientTransform="matrix(15.16305,0,0,7.50361,-3.81826,-448.88654)"
       x1="19.116"
       y1="28.946"
       x2="19.427"
       y2="51.913" />
    <linearGradient
       inkscape:collect="always"
       xlink:href="#linearGradient335"
       id="linearGradient3226"
       gradientUnits="userSpaceOnUse"
       gradientTransform="matrix(15.16305,0,0,7.50361,-3.81826,15.11346)"
       x1="19.116"
       y1="28.946"
       x2="19.427"
       y2="51.913" />
  </defs>
  <g
     stroke-linejoin="round"
     stroke-linecap="round"
     stroke-width="10.667"
     color="#000"
     transform="translate(0 464)"
     id="g69">
    <path
       fill="url(#radialGradient159)"
       stroke="#5a5a5a"
       d="m45.462-36.6093c.446,4.4849 5.3054,8.9697 9.719,8.9697h332.1189c4.4135,0 8.3811-4.4848 7.9352-8.9697l-28.7639-289.2722c-.4459-4.4848-5.3054-8.9697-9.719-8.9697h-135.7164c-6.2991,0-12.8969-4.0485-14.9638-10.2436l-11.7654-35.2627c-1.8054-5.411-5.8363-7.8485-14.021-7.8485h-159.3314c-4.4135,0-8.3811,4.4848-7.9352,8.9697l32.443,342.6269z"
       id="path71" />
    <g
       fill="#729fcf"
       stroke="#000"
       id="g73">
      <path
         opacity=".114"
         d="m31.7935-261.8628 332.265,0"
         id="path75" />
      <path
         opacity=".114"
         d="m53.0367-48.5296 319.8692,0"
         id="path77" />
      <path
         opacity=".114"
         d="m53.0367-69.8629 319.8692,0"
         id="path79" />
    </g>
  </g>
  <g
     color="#000"
     transform="matrix(.23095 0 0 .20308 448.61218 409.07289)"
     id="g81">
    <path
       opacity=".402"
       fill="url(#linearGradient5027)"
       d="m-1559.25-150.697h1339.631v478.357h-1339.631z"
       id="path83" />
    <path
       opacity=".402"
       fill="url(#radialGradient5029)"
       d="m-219.6188-150.6804c0,0 0,478.3308 0,478.3308 142.8742,.9004 345.4002-107.1697 345.4001-239.1962 0-132.0265-159.4368-239.1346-345.4001-239.1346z"
       id="path85" />
    <path
       opacity=".402"
       fill="url(#radialGradient5031)"
       d="m-1559.2523-150.6804c0,0 0,478.3308 0,478.3308-142.8742,.9004-345.4002-107.1697-345.4002-239.1962 0-132.0265 159.4368-239.1346 345.4002-239.1346z"
       id="path87" />
  </g>
  <g
     color="#000"
     transform="translate(0 464)"
     id="g89">
    <path
       fill="url(#linearGradient158)"
       display="block"
       d="m62.0137-39.0876c.3345,3.3102-1.6493,5.5169-5.071,4.4135-3.4216-1.1034-5.8514-3.3102-6.1859-6.6203l-32.3154-334.5832c-.3345-3.3102 1.6703-5.309 4.9805-5.309l157.3306-.9754c5.667-.0351 7.8872,.5686 9.3845,5.5169 0,0 11.5773,33.2032 13.2932,39.4464l-16.593-31.115c-2.8286-5.3041-6.3866-4.4135-10.3764-4.4135h-140.0468c-3.3102,0-5.2939,2.2068-4.9595,5.5169l31.7741,329.2261-1.2149-1.1034z"
       id="path91" />
    <g
       fill="#729fcf"
       stroke="#000"
       stroke-linejoin="round"
       stroke-linecap="round"
       stroke-width="10.667"
       id="g93">
      <path
         opacity=".114"
         d="m20.7709-368.5294 157.6931,0"
         id="path95" />
      <path
         opacity=".114"
         d="m25.5933-325.8628 327.8812,0"
         id="path97" />
    </g>
  </g>
  <g
     display="block"
     stroke="#000"
     id="g99">
    <g
       fill="#fff"
       fill-opacity=".58"
       transform="matrix(11.03385 0 1.11488 11.03385 -110.83131 43.18719)"
       id="g101">
      <path
         stroke="none"
         d="m41.7857,9.0364c.0096-.4746 .0152-.7245-.4234-.7242l-12.5558,.0087c-.3,0-.3246-.1432 0,0 .3246,.1432 1.2471,.6583 2.1827,.701 0,0 10.7965,.0165 10.7965,.0146z"
         id="path103" />
    </g>
    <g
       fill="#729fcf"
       stroke-linejoin="round"
       stroke-linecap="round"
       color="#000"
       stroke-width="10.667"
       transform="translate(0 464)"
       id="g105">
      <path
         opacity=".114"
         d="m29.9193-283.1961 328.8591,0"
         id="path107" />
      <path
         opacity=".114"
         d="m51.2161-91.1962 319.8692,0"
         id="path109" />
      <path
         opacity=".114"
         d="m48.0837-112.5296 321.1595,0"
         id="path111" />
      <path
         opacity=".114"
         d="m45.6072-133.8629 321.8047,0"
         id="path113" />
      <path
         opacity=".114"
         d="m43.7866-155.1962 321.8047,0"
         id="path115" />
      <path
         opacity=".114"
         d="m41.5756-176.5295 322.1878,0"
         id="path117" />
      <path
         opacity=".114"
         d="m39.0993-197.8628 322.8327,0"
         id="path119" />
      <path
         opacity=".114"
         d="m37.2787-219.1962 322.8327,0"
         id="path121" />
    </g>
    <g
       fill="#fff"
       fill-opacity=".58"
       transform="matrix(11.03385 0 1.11488 11.03385 -110.83131 43.18719)"
       id="g123">
      <path
         stroke="none"
         d="m41.7857,9.0364c.0096-.4746 .0152-.7245-.4234-.7242l-12.5558,.0087c-.3,0-.3246-.1432 0,0 .3246,.1432 1.2471,.6583 2.1827,.701 0,0 10.7965,.0165 10.7965,.0146z"
         id="path125" />
    </g>
  </g>
  <g
     id="g131"
     style="color:#000000;fill:#729fcf;stroke:#000000;stroke-width:10.66699982;stroke-linecap:round;stroke-linejoin:round"
     transform="translate(0,464)">
    <path
       d="M 27.8002,-304.5294 358.7494,-304.5294"
       id="path133"
       inkscape:connector-curvature="0"
       style="opacity:0.11400003" />
    <path
       d="M 35.1302,-240.5295 358.2851,-240.5295"
       id="path135"
       inkscape:connector-curvature="0"
       style="opacity:0.11400003" />
    <path
       d="M 23.1071,-347.1961 186.1024,-347.1961"
       id="path137"
       inkscape:connector-curvature="0"
       style="opacity:0.11400003" />
  </g>
  <path
     d="M 362.8482,165.78 390.8482,428.4465 60.1817,429.7798 C 60.1817,429.7798 40.1817,165.78 40.1817,165.78 40.1817,165.78 364.1815,165.78 362.8482,165.78 z"
     id="path139"
     style="opacity:0.39200003;color:#000000;fill:url(#linearGradient3187)"
     inkscape:connector-curvature="0" />
  <path
     inkscape:connector-curvature="0"
     style="color:#000000;fill:url(#linearGradient3211);stroke:#3465a4;stroke-width:10.66699982;stroke-linejoin:round"
     id="path147"
     d="M 57.8197,431.8172 C 58.9231,434.0729 61.1298,436.3284 64.44,436.3284 H 419.7299 C 421.9367,436.3284 425.289,434.9812 427.2838,433.5087 432.9414,429.3323 434.269,426.9766 436.8068,423.1251 462.9201,383.4935 498.7283,217.505 498.7283,217.505 499.8317,215.2494 497.6249,212.9939 494.3148,212.9939 H 121.7962 C 118.4861,212.9939 104.1326,384.8053 69.9243,418.722 L 56.7165,431.8172 H 57.8199 z" />
  <path
     inkscape:connector-curvature="0"
     style="fill:url(#linearGradient3160);fill-rule:evenodd"
     id="path151"
     d="M 136.2827,229.9255 C 128.0401,283.1602 120.2688,326.024 107.3122,374.0733 132.768,366.5308 183.2174,339.8919 289.884,339.8919 396.5506,339.8919 468.2687,241.2392 478.1682,229.4541 L 136.2828,229.9255 z" />
  <path
     inkscape:connector-curvature="0"
     style="opacity:0.52300002;color:#000000;fill:none;stroke:url(#linearGradient3226);stroke-width:10.66699982;stroke-linecap:round"
     id="path159"
     d="M 484.929,225.1133 131.2389,225.1133 C 131.2389,225.1133 108.3296,395.989 80.868,419.6793 167.4928,419.6793 417.6269,419.1605 417.8383,419.1605 436.5226,419.1605 470.1864,284.3745 484.929,225.1132 z" />
</svg>
