<?xml version="1.0" encoding="UTF-8" standalone="no"?>
<svg
   xmlns:dc="http://purl.org/dc/elements/1.1/"
   xmlns:cc="http://creativecommons.org/ns#"
   xmlns:rdf="http://www.w3.org/1999/02/22-rdf-syntax-ns#"
   xmlns:svg="http://www.w3.org/2000/svg"
   xmlns="http://www.w3.org/2000/svg"
   xmlns:sodipodi="http://sodipodi.sourceforge.net/DTD/sodipodi-0.dtd"
   xmlns:inkscape="http://www.inkscape.org/namespaces/inkscape"
   viewBox="0 0 512 512"
   id="svg2"
   version="1.1"
   inkscape:version="0.48.5 r10040"
   width="100%"
   height="100%"
   sodipodi:docname="InfoSumCentroidsWeighted.svg">
  <metadata
     id="metadata10">
    <rdf:RDF>
      <cc:Work
         rdf:about="">
        <dc:format>image/svg+xml</dc:format>
        <dc:type
           rdf:resource="http://purl.org/dc/dcmitype/StillImage" />
      </cc:Work>
    </rdf:RDF>
  </metadata>
  <defs
     id="defs8" />
  <sodipodi:namedview
     pagecolor="#ffffff"
     bordercolor="#666666"
     borderopacity="1"
     objecttolerance="10"
     gridtolerance="10"
     guidetolerance="10"
     inkscape:pageopacity="0"
     inkscape:pageshadow="2"
     inkscape:window-width="1920"
     inkscape:window-height="1018"
     id="namedview6"
     showgrid="false"
     inkscape:zoom="0.869375"
     inkscape:cx="-54.509047"
     inkscape:cy="348.03153"
     inkscape:window-x="-8"
     inkscape:window-y="-8"
     inkscape:window-maximized="1"
     inkscape:current-layer="svg2" />
  <g
     id="g4459">
    <path
       style="fill:#000000;fill-opacity:1;stroke:none"
       inkscape:connector-curvature="0"
       id="path4"
       d="M 56.713602,119.88215 H 252.73099 l 5.20377,65.72581 h -7.32429 c -0.89923,-12.97825 -3.08439,-22.8721 -6.55319,-29.68724 -3.46994,-6.93874 -8.22352,-11.94973 -14.26303,-15.03412 -6.0395,-3.08325 -15.61244,-4.62545 -28.71882,-4.62545 h -89.24314 l 79.60443,102.15901 -90.59029,106.97837 h 99.2674 c 17.98923,0 31.73857,-2.89162 41.24234,-8.67371 9.50831,-5.78209 16.63982,-17.8611 21.39454,-36.23589 L 270.075,302.2239 258.89636,381.25 H 56.7102 v -6.93874 L 157.32702,255.58501 56.7102,126.83449 v -6.93874" />
    <g
       id="g3863">
      <circle
         d="m 56.5,102 c 0,4.41828 -3.581722,8 -8,8 -4.418278,0 -8,-3.58172 -8,-8 0,-4.418278 3.581722,-8 8,-8 4.418278,0 8,3.581722 8,8 z"
         id="circle3357-1"
         r="8"
         cx="48.5"
         cy="102"
         sodipodi:cx="48.5"
         sodipodi:cy="102"
         sodipodi:rx="8"
         sodipodi:ry="8"
         style="fill:#ffffff;stroke:#ffffff;stroke-width:1.45709176000000000;stroke-miterlimit:4;stroke-opacity:1;stroke-dasharray:none;fill-opacity:1"
         transform="matrix(10.116041,0,0,10.116041,-116.08321,-776.52544)" />
      <circle
         d="m 56.5,102 c 0,4.41828 -3.581722,8 -8,8 -4.418278,0 -8,-3.58172 -8,-8 0,-4.418278 3.581722,-8 8,-8 4.418278,0 8,3.581722 8,8 z"
         id="circle3357"
         r="8"
         cx="48.5"
         cy="102"
         sodipodi:cx="48.5"
         sodipodi:cy="102"
         sodipodi:rx="8"
         sodipodi:ry="8"
         style="fill:none;stroke:#ff0000;stroke-width:1.09818803999999990;stroke-miterlimit:4;stroke-dasharray:none;stroke-opacity:1"
         transform="matrix(9.2036145,0,0,9.2036145,-71.988608,-683.02997)" />
      <path
         id="path3359"
         d="m 374.38669,183.95051 a 73.628915,73.628915 0 0 1 73.62892,73.62891 h -73.62892 z"
         inkscape:connector-curvature="0"
         style="stroke:none;stroke-opacity:1;fill:#ff0000;fill-opacity:1" />
      <path
         id="path3361"
         d="m 374.38669,329.36761 a 73.628915,73.628915 0 0 1 -52.46061,-18.40722 73.628915,73.628915 0 0 1 -21.16831,-55.2217 h 73.62892 z"
         inkscape:connector-curvature="0"
         style="stroke:none;stroke-opacity:1;fill:#ff0000;fill-opacity:1" />
    </g>
  </g>
</svg>
