<?xml version="1.0" encoding="UTF-8" standalone="no"?>
<svg
   xmlns:dc="http://purl.org/dc/elements/1.1/"
   xmlns:cc="http://creativecommons.org/ns#"
   xmlns:rdf="http://www.w3.org/1999/02/22-rdf-syntax-ns#"
   xmlns:svg="http://www.w3.org/2000/svg"
   xmlns="http://www.w3.org/2000/svg"
   xmlns:sodipodi="http://sodipodi.sourceforge.net/DTD/sodipodi-0.dtd"
   xmlns:inkscape="http://www.inkscape.org/namespaces/inkscape"
   width="512"
   height="512"
   id="svg2"
   version="1.1"
   inkscape:version="0.91 r13725"
   sodipodi:docname="ConvertUnit-inverse.svg">
  <metadata
     id="metadata26">
    <rdf:RDF>
      <cc:Work
         rdf:about="">
        <dc:format>image/svg+xml</dc:format>
        <dc:type
           rdf:resource="http://purl.org/dc/dcmitype/StillImage" />
        <dc:title />
      </cc:Work>
    </rdf:RDF>
  </metadata>
  <sodipodi:namedview
     pagecolor="#ffffff"
     bordercolor="#666666"
     borderopacity="1"
     objecttolerance="10"
     gridtolerance="10"
     guidetolerance="10"
     inkscape:pageopacity="0"
     inkscape:pageshadow="2"
     inkscape:window-width="1857"
     inkscape:window-height="1163"
     id="namedview24"
     showgrid="true"
     inkscape:zoom="1.28"
     inkscape:cx="-28.5625"
     inkscape:cy="243.78075"
     inkscape:window-x="0"
     inkscape:window-y="73"
     inkscape:window-maximized="0"
     inkscape:current-layer="svg2">
    <inkscape:grid
       type="xygrid"
       id="grid4594"
       spacingx="8"
       spacingy="8"
       empspacing="2" />
  </sodipodi:namedview>
  <defs
     id="defs4">
    <marker
       inkscape:stockid="Arrow2Sstart"
       orient="auto"
       refY="0.0"
       refX="0.0"
       id="Arrow2Sstart"
       style="overflow:visible"
       inkscape:isstock="true">
      <path
         id="path4206"
         style="fill-rule:evenodd;stroke-width:0.625;stroke-linejoin:round;stroke:#007f7f;stroke-opacity:1;fill:#007f7f;fill-opacity:1"
         d="M 8.7185878,4.0337352 L -2.2072895,0.016013256 L 8.7185884,-4.0017078 C 6.9730900,-1.6296469 6.9831476,1.6157441 8.7185878,4.0337352 z "
         transform="scale(0.3) translate(-2.3,0)" />
    </marker>
    <marker
       inkscape:stockid="Arrow1Send"
       orient="auto"
       refY="0.0"
       refX="0.0"
       id="Arrow1Send"
       style="overflow:visible;"
       inkscape:isstock="true">
      <path
         id="path4191"
         d="M 0.0,0.0 L 5.0,-5.0 L -12.5,0.0 L 5.0,5.0 L 0.0,0.0 z "
         style="fill-rule:evenodd;stroke:#007f7f;stroke-width:1pt;stroke-opacity:1;fill:#007f7f;fill-opacity:1"
         transform="scale(0.2) rotate(180) translate(6,0)" />
    </marker>
    <marker
       inkscape:stockid="Arrow1Sstart"
       orient="auto"
       refY="0.0"
       refX="0.0"
       id="marker4512"
       style="overflow:visible"
       inkscape:isstock="true">
      <path
         id="path4514"
         d="M 0.0,0.0 L 5.0,-5.0 L -12.5,0.0 L 5.0,5.0 L 0.0,0.0 z "
         style="fill-rule:evenodd;stroke:#007f7f;stroke-width:1pt;stroke-opacity:1;fill:#007f7f;fill-opacity:1"
         transform="scale(0.2) translate(6,0)" />
    </marker>
    <marker
       inkscape:stockid="Arrow1Sstart"
       orient="auto"
       refY="0.0"
       refX="0.0"
       id="Arrow1Sstart"
       style="overflow:visible"
       inkscape:isstock="true">
      <path
         id="path4188"
         d="M 0.0,0.0 L 5.0,-5.0 L -12.5,0.0 L 5.0,5.0 L 0.0,0.0 z "
         style="fill-rule:evenodd;stroke:#007f7f;stroke-width:1pt;stroke-opacity:1;fill:#007f7f;fill-opacity:1"
         transform="scale(0.2) translate(6,0)" />
    </marker>
    <marker
       inkscape:stockid="DiamondLstart"
       orient="auto"
       refY="0.0"
       refX="0.0"
       id="DiamondLstart"
       style="overflow:visible"
       inkscape:isstock="true">
      <path
         id="path4264"
         d="M 0,-7.0710768 L -7.0710894,0 L 0,7.0710589 L 7.0710462,0 L 0,-7.0710768 z "
         style="fill-rule:evenodd;stroke:#007f7f;stroke-width:1pt;stroke-opacity:1;fill:#007f7f;fill-opacity:1"
         transform="scale(0.8) translate(7,0)" />
    </marker>
    <linearGradient
       id="linearGradient3458">
      <stop
         id="stop3528"
         stop-color="#5f411c"
         offset="0"
         style="stop-color:#7a7a7a;stop-opacity:1;" />
      <stop
         id="stop3530"
         stop-color="#454545"
         offset="1"
         style="stop-color:#585858;stop-opacity:1;" />
    </linearGradient>
    <linearGradient
       id="linearGradient3444">
      <stop
         id="stop3523"
         stop-opacity=".584"
         stop-color="#ffbd75"
         offset="0"
         style="stop-color:#bababa;stop-opacity:0.58399999;" />
      <stop
         id="stop3525"
         stop-color="#f9dbba"
         offset="1"
         style="stop-color:#d9d9d9;stop-opacity:1;" />
    </linearGradient>
    <linearGradient
       id="linearGradient2662">
      <stop
         id="stop3518"
         stop-color="#ffffff"
         offset="0"
         style="stop-color:#ffffff;stop-opacity:1;" />
      <stop
         id="stop3520"
         stop-color="#ededed"
         offset="1"
         style="stop-color:#ededed;stop-opacity:1;" />
    </linearGradient>
    <filter
       id="0"
       height="1.525"
       y="-.262"
       x="-.05"
       width="1.1">
      <feGaussianBlur
         id="feGaussianBlur4406"
         stdDeviation="1.63716" />
    </filter>
    <linearGradient
       gradientUnits="userSpaceOnUse"
       x2="318.2"
       x1="315.89"
       y2="420.47"
       y1="422.16"
       id="3">
      <stop
         id="stop4409"
         style="stop-color:#fff3de" />
      <stop
         id="stop4411"
         style="stop-color:#fff3de;stop-opacity:0"
         offset="1" />
    </linearGradient>
    <linearGradient
       x2="-184.55"
       gradientUnits="userSpaceOnUse"
       y2="161.76"
       x1="584.2"
       y1="313.75"
       id="2"
       gradientTransform="translate(-207.42949,116.48766)">
      <stop
         id="stop4414"
         style="stop-color:#fbc594" />
      <stop
         id="stop4416"
         style="stop-color:#c9884e"
         offset="1" />
    </linearGradient>
    <linearGradient
       x2="786.4"
       gradientUnits="userSpaceOnUse"
       y2="289.69"
       x1="-301.99"
       y1="95.82"
       id="1"
       gradientTransform="translate(-207.42949,116.48766)">
      <stop
         id="stop4419"
         style="stop-color:#ffbd75;stop-opacity:.584" />
      <stop
         id="stop4421"
         style="stop-color:#f9dbba"
         offset="1" />
    </linearGradient>
    <linearGradient
       y2="-2838.57"
       y1="-2837.83"
       x2="784.71"
       gradientUnits="userSpaceOnUse"
       x1="34.909"
       id="4"
       gradientTransform="translate(-207.42949,116.48766)">
      <stop
         id="stop4424"
         style="stop-color:#5f411c" />
      <stop
         id="stop4426"
         style="stop-color:#454545"
         offset="1" />
    </linearGradient>
    <marker
       inkscape:isstock="true"
       style="overflow:visible"
       id="Arrow2Sstart-4"
       refX="0.0"
       refY="0.0"
       orient="auto"
       inkscape:stockid="Arrow2Sstart">
      <path
         transform="scale(0.3) translate(-2.3,0)"
         d="M 8.7185878,4.0337352 L -2.2072895,0.016013256 L 8.7185884,-4.0017078 C 6.9730900,-1.6296469 6.9831476,1.6157441 8.7185878,4.0337352 z "
         style="fill-rule:evenodd;stroke-width:0.625;stroke-linejoin:round;stroke:#007f7f;stroke-opacity:1;fill:#007f7f;fill-opacity:1"
         id="path4206-3" />
    </marker>
    <marker
       inkscape:isstock="true"
       style="overflow:visible;"
       id="Arrow1Send-1"
       refX="0.0"
       refY="0.0"
       orient="auto"
       inkscape:stockid="Arrow1Send">
      <path
         transform="scale(0.2) rotate(180) translate(6,0)"
         style="fill-rule:evenodd;stroke:#007f7f;stroke-width:1pt;stroke-opacity:1;fill:#007f7f;fill-opacity:1"
         d="M 0.0,0.0 L 5.0,-5.0 L -12.5,0.0 L 5.0,5.0 L 0.0,0.0 z "
         id="path4191-9" />
    </marker>
    <marker
       inkscape:isstock="true"
       style="overflow:visible"
       id="marker4512-9"
       refX="0.0"
       refY="0.0"
       orient="auto"
       inkscape:stockid="Arrow1Sstart">
      <path
         transform="scale(0.2) translate(6,0)"
         style="fill-rule:evenodd;stroke:#007f7f;stroke-width:1pt;stroke-opacity:1;fill:#007f7f;fill-opacity:1"
         d="M 0.0,0.0 L 5.0,-5.0 L -12.5,0.0 L 5.0,5.0 L 0.0,0.0 z "
         id="path4514-4" />
    </marker>
    <marker
       inkscape:isstock="true"
       style="overflow:visible"
       id="Arrow1Sstart-5"
       refX="0.0"
       refY="0.0"
       orient="auto"
       inkscape:stockid="Arrow1Sstart">
      <path
         transform="scale(0.2) translate(6,0)"
         style="fill-rule:evenodd;stroke:#007f7f;stroke-width:1pt;stroke-opacity:1;fill:#007f7f;fill-opacity:1"
         d="M 0.0,0.0 L 5.0,-5.0 L -12.5,0.0 L 5.0,5.0 L 0.0,0.0 z "
         id="path4188-9" />
    </marker>
    <marker
       inkscape:isstock="true"
       style="overflow:visible"
       id="DiamondLstart-8"
       refX="0.0"
       refY="0.0"
       orient="auto"
       inkscape:stockid="DiamondLstart">
      <path
         transform="scale(0.8) translate(7,0)"
         style="fill-rule:evenodd;stroke:#007f7f;stroke-width:1pt;stroke-opacity:1;fill:#007f7f;fill-opacity:1"
         d="M 0,-7.0710768 L -7.0710894,0 L 0,7.0710589 L 7.0710462,0 L 0,-7.0710768 z "
         id="path4264-9" />
    </marker>
    <filter
       width="1.1"
       x="-.05"
       y="-.262"
       height="1.525"
       id="0-7">
      <feGaussianBlur
         stdDeviation="1.63716"
         id="feGaussianBlur4406-8" />
    </filter>
  </defs>
  <g
     style="font-style:normal;font-variant:normal;font-weight:normal;font-stretch:normal;font-size:22.5px;line-height:125%;font-family:Luminari;-inkscape-font-specification:Luminari;letter-spacing:0px;word-spacing:0px;fill:#ffffff;fill-opacity:1;stroke:none;stroke-width:1px;stroke-linecap:butt;stroke-linejoin:miter;stroke-opacity:1"
     id="text4239">
    <path
       d="m 47.656246,65.849609 0,-18.193359 15.820313,0 0,18.193359 -15.820313,0 z m 0,110.654301 0,-93.339848 15.820313,0 0,93.339848 -15.820313,0 z"
       style="font-style:normal;font-variant:normal;font-weight:normal;font-stretch:normal;font-size:180px;font-family:Arial;-inkscape-font-specification:Arial;fill:#ffffff"
       id="path4265" />
    <path
       d="m 87.646481,176.50391 0,-93.339848 14.238279,0 0,13.271485 q 10.2832,-15.38086 29.70703,-15.38086 8.4375,0 15.46875,3.076172 7.11914,2.988282 10.63477,7.910157 3.51562,4.921875 4.92187,11.689454 0.87891,4.39453 0.87891,15.38086 l 0,57.39258 -15.82031,0 0,-56.77735 q 0,-9.66797 -1.84571,-14.41406 -1.8457,-4.83398 -6.59179,-7.646484 -4.65821,-2.900391 -10.98633,-2.900391 -10.10742,0 -17.49024,6.416015 -7.29492,6.41602 -7.29492,24.3457 l 0,50.97657 -15.820309,0 z"
       style="font-style:normal;font-variant:normal;font-weight:normal;font-stretch:normal;font-size:180px;font-family:Arial;-inkscape-font-specification:Arial;fill:#ffffff"
       id="path4267" />
  </g>
  <g
     transform="scale(0.95816897,1.0436573)"
     style="font-style:normal;font-variant:normal;font-weight:normal;font-stretch:normal;font-size:21.55880165px;line-height:125%;font-family:Luminari;-inkscape-font-specification:Luminari;letter-spacing:0px;word-spacing:0px;fill:#ffffff;fill-opacity:1;stroke:none;stroke-width:1px;stroke-linecap:butt;stroke-linejoin:miter;stroke-opacity:1"
     id="text4243">
    <path
       d="m 50.552146,445.66833 0,-89.43534 13.558465,0 0,12.5479 q 4.210703,-6.5687 11.200471,-10.52676 6.989768,-4.04227 15.916459,-4.04227 9.937259,0 16.253319,4.12649 6.40027,4.12648 9.0109,11.53732 10.61097,-15.66381 27.62222,-15.66381 13.30582,0 20.46402,7.41083 7.15819,7.32663 7.15819,22.65359 l 0,61.39205 -15.07432,0 0,-56.33921 q 0,-9.09512 -1.51585,-13.05318 -1.43164,-4.04227 -5.30549,-6.48448 -3.87384,-2.44221 -9.09512,-2.44221 -9.43197,0 -15.66381,6.31606 -6.23184,6.23184 -6.23184,20.04294 l 0,51.96008 -15.15854,0 0,-58.1077 q 0,-10.10569 -3.705416,-15.15854 -3.705419,-5.05284 -12.126826,-5.05284 -6.400269,0 -11.874183,3.36856 -5.389701,3.36857 -7.831909,9.85305 -2.442208,6.48448 -2.442208,18.69552 l 0,46.40195 -15.158532,0 z"
       style="font-style:normal;font-variant:normal;font-weight:normal;font-stretch:normal;font-size:172.47041321px;font-family:Arial;-inkscape-font-specification:Arial;fill:#ffffff"
       id="path4259" />
    <path
       d="m 194.38978,445.66833 0,-89.43534 13.55846,0 0,12.5479 q 4.21071,-6.5687 11.20047,-10.52676 6.98977,-4.04227 15.91646,-4.04227 9.93726,0 16.25332,4.12649 6.40027,4.12648 9.0109,11.53732 10.61098,-15.66381 27.62222,-15.66381 13.30582,0 20.46402,7.41083 7.15819,7.32663 7.15819,22.65359 l 0,61.39205 -15.07432,0 0,-56.33921 q 0,-9.09512 -1.51585,-13.05318 -1.43164,-4.04227 -5.30549,-6.48448 -3.87384,-2.44221 -9.09512,-2.44221 -9.43197,0 -15.66381,6.31606 -6.23184,6.23184 -6.23184,20.04294 l 0,51.96008 -15.15854,0 0,-58.1077 q 0,-10.10569 -3.70541,-15.15854 -3.70542,-5.05284 -12.12683,-5.05284 -6.40027,0 -11.87418,3.36856 -5.3897,3.36857 -7.83191,9.85305 -2.44221,6.48448 -2.44221,18.69552 l 0,46.40195 -15.15853,0 z"
       style="font-style:normal;font-variant:normal;font-weight:normal;font-stretch:normal;font-size:172.47041321px;font-family:Arial;-inkscape-font-specification:Arial;fill:#ffffff"
       id="path4261" />
  </g>
  <g
     style="font-style:normal;font-variant:normal;font-weight:normal;font-stretch:normal;font-size:22.5px;line-height:125%;font-family:Luminari;-inkscape-font-specification:Luminari;letter-spacing:0px;word-spacing:0px;fill:#ffffff;fill-opacity:1;stroke:none;stroke-width:1px;stroke-linecap:butt;stroke-linejoin:miter;stroke-opacity:1"
     id="text4255">
    <path
       d="m 48.025387,317.46875 0,-93.33984 14.15039,0 0,13.0957 q 4.394532,-6.85547 11.689454,-10.98633 7.294921,-4.21875 16.611328,-4.21875 10.371091,0 16.962891,4.30664 6.67969,4.30664 9.4043,12.04102 11.07421,-16.34766 28.82812,-16.34766 13.88672,0 21.35742,7.73438 7.47071,7.64648 7.47071,23.64257 l 0,64.07227 -15.73243,0 0,-58.79883 q 0,-9.49219 -1.58203,-13.62305 -1.49414,-4.21875 -5.53711,-6.76757 -4.04297,-2.54883 -9.49218,-2.54883 -9.84375,0 -16.34766,6.5918 -6.50391,6.5039 -6.50391,20.91796 l 0,54.22852 -15.82031,0 0,-60.64453 q 0,-10.54688 -3.867186,-15.82031 -3.867188,-5.27344 -12.65625,-5.27344 -6.679688,0 -12.392578,3.51562 -5.625,3.51563 -8.173829,10.28321 -2.548828,6.76757 -2.548828,19.51172 l 0,48.42773 -15.820312,0 z"
       style="font-style:normal;font-variant:normal;font-weight:normal;font-stretch:normal;font-size:180px;font-family:Arial;-inkscape-font-specification:Arial;fill:#ffffff"
       id="path4256" />
  </g>
  <g
     id="g4339">
    <path
       id="path4802"
       style="fill:#cccccc;stroke:#ffffff;stroke-width:8;stroke-linecap:round;stroke-linejoin:round;stroke-miterlimit:4;stroke-dasharray:none"
       d="m 475.66954,448.8297 0,-376.51968 c 0,-5.87074 -4.75919,-10.62992 -10.62993,-10.62992 l -97.03937,0 c -5.87074,0 -10.62992,4.75918 -10.62992,10.62992 l 0,376.51968 c 0,5.87074 4.75918,10.62992 10.62992,10.62992 l 97.03937,0 c 5.87074,0 10.62993,-4.75918 10.62993,-10.62992"
       inkscape:connector-curvature="0"
       sodipodi:nodetypes="csssssssc" />
    <path
       id="path4806"
       style="fill:none;stroke:#ffffff;stroke-width:8;stroke-linecap:round;stroke-linejoin:round;stroke-miterlimit:4;stroke-dasharray:none"
       d="m 357.37032,395.56986 74.40945,0"
       inkscape:connector-curvature="0" />
    <path
       id="path4808"
       style="fill:none;stroke:#ffffff;stroke-width:8;stroke-linecap:round;stroke-linejoin:round;stroke-miterlimit:4;stroke-dasharray:none"
       d="m 357.37032,125.56986 74.40945,0"
       inkscape:connector-curvature="0" />
    <path
       id="path4818"
       style="fill:none;stroke:#ffffff;stroke-width:8;stroke-linecap:round;stroke-linejoin:round;stroke-miterlimit:4;stroke-dasharray:none"
       d="m 357.37032,260.56986 42.51968,0"
       inkscape:connector-curvature="0" />
    <path
       id="path4876"
       style="fill:none;stroke:#ffffff;stroke-width:4;stroke-linecap:round;stroke-linejoin:round;stroke-miterlimit:4;stroke-dasharray:none"
       d="m 357.37032,159.31986 21.25984,0"
       inkscape:connector-curvature="0" />
    <path
       id="path4878"
       style="fill:none;stroke:#ffffff;stroke-width:4;stroke-linecap:round;stroke-linejoin:round;stroke-miterlimit:4;stroke-dasharray:none"
       d="m 357.37032,193.06986 21.25984,0"
       inkscape:connector-curvature="0" />
    <path
       id="path4880"
       style="fill:none;stroke:#ffffff;stroke-width:4;stroke-linecap:round;stroke-linejoin:round;stroke-miterlimit:4;stroke-dasharray:none"
       d="m 357.37032,226.81986 21.25984,0"
       inkscape:connector-curvature="0" />
    <path
       id="path4882"
       style="fill:none;stroke:#ffffff;stroke-width:4;stroke-linecap:round;stroke-linejoin:round;stroke-miterlimit:4;stroke-dasharray:none"
       d="m 357.37032,328.06986 21.25984,0"
       inkscape:connector-curvature="0" />
    <path
       id="path4884"
       style="fill:none;stroke:#ffffff;stroke-width:4;stroke-linecap:round;stroke-linejoin:round;stroke-miterlimit:4;stroke-dasharray:none"
       d="m 357.37032,294.31986 21.25984,0"
       inkscape:connector-curvature="0" />
    <path
       id="path4886"
       style="fill:none;stroke:#ffffff;stroke-width:4;stroke-linecap:round;stroke-linejoin:round;stroke-miterlimit:4;stroke-dasharray:none"
       d="m 357.37032,361.81986 21.25984,0"
       inkscape:connector-curvature="0" />
  </g>
</svg>
