<svg viewBox="0 0 2184.5333 2184.5333" width="512" xmlns="http://www.w3.org/2000/svg" height="512" style="overflow:visible"><defs><linearGradient id="1" y1="637.89" y2="2621.26" gradientUnits="userSpaceOnUse" x2="0"><stop offset=".006" style="stop-color:#cf6"/><stop offset="1" style="stop-color:#090"/></linearGradient><linearGradient id="2" y1="378.84" y2="1807.42" gradientUnits="userSpaceOnUse" x2="0"><stop style="stop-color:#090"/><stop offset="1" style="stop-color:#334966"/></linearGradient><linearGradient id="0" y1="636.51" y2="2623.35" gradientUnits="userSpaceOnUse" x2="0"><stop style="stop-color:#3c3"/><stop offset="1" style="stop-color:#366"/></linearGradient><radialGradient cx="431.01" cy="741.21" id="3" r="1041.83" gradientUnits="userSpaceOnUse"><stop style="stop-color:#fff"/><stop offset="1" style="stop-color:#92ff00"/></radialGradient></defs><path d="m1876.09 383.01c0 0-1125.87 771.55-1143.29 783.49-14.565-14.513-360.28-358.69-360.28-358.69-25.681-25.595-59.42-35.08-90.26-25.379-33.545 10.624-55.22 34.537-61.05 67.34l-3.622 20.377c-1.164 6.597-1.052 13.211.319 19.705l5.079 24.16 3.518 10.754 398.87 876.96c12.495 27.448 37.728 46.8 67.52 51.749 29.673 4.993 59.813-5.157 80.62-27.11l1217.93-1287.42c17.816-18.704 28.04-45.39 28.04-73.14l-1.112-10.659-4.932-23.482c-6.01-28.716-24.594-50.05-53.699-61.718-18.575-7.459-48.17-11.254-83.66 13.06" style="opacity:.2"/><path d="m1850.22 383.01c0 0-1125.87 771.55-1143.29 783.49-14.565-14.513-360.28-358.69-360.28-358.69-25.681-25.595-59.42-35.08-90.26-25.379-33.545 10.624-55.22 34.537-61.05 67.34l-3.622 20.377c-1.164 6.597-1.052 13.211.319 19.705l5.079 24.16 3.518 10.754 398.87 876.96c12.495 27.448 37.728 46.8 67.52 51.749 29.673 4.993 59.813-5.157 80.62-27.11l1217.93-1287.42c17.816-18.704 28.04-45.39 28.04-73.14l-1.112-10.659-4.933-23.482c-6.01-28.716-24.594-50.05-53.698-61.718-18.575-7.459-48.17-11.254-83.66 13.06" style="opacity:.2"/><path d="m1841.59 365.77c0 0-1125.87 771.55-1143.29 783.49-14.565-14.513-360.28-358.69-360.28-358.69-25.681-25.595-59.42-35.08-90.26-25.379-33.545 10.624-55.22 34.537-61.05 67.34l-3.622 20.377c-1.164 6.597-1.052 13.211.319 19.705l5.079 24.16 3.518 10.754 398.87 876.96c12.495 27.449 37.728 46.8 67.52 51.75 29.673 4.993 59.813-5.157 80.62-27.11l1217.93-1287.42c17.816-18.704 28.04-45.39 28.04-73.14l-1.112-10.659-4.933-23.482c-6.01-28.716-24.594-50.05-53.698-61.718-18.575-7.459-48.17-11.254-83.66 13.06" style="opacity:.2"/><path d="m1824.35 348.52c0 0-1125.87 771.55-1143.29 783.49-14.565-14.513-360.28-358.69-360.28-358.69-25.681-25.595-59.42-35.08-90.26-25.379-33.545 10.624-55.22 34.537-61.05 67.34l-3.622 20.377c-1.164 6.597-1.052 13.211.319 19.705l5.079 24.16 3.518 10.754 398.87 876.96c12.495 27.449 37.728 46.8 67.52 51.75 29.673 4.993 59.813-5.157 80.62-27.11l1217.93-1287.42c17.816-18.704 28.04-45.39 28.04-73.14l-1.112-10.659-4.933-23.482c-6.01-28.716-24.594-50.05-53.698-61.718-18.575-7.459-48.17-11.254-83.66 13.06" style="fill:url(#2)"/><path d="m1853.59 391.21c0 0-1168.09 800.47-1178.65 807.72-44.03-43.833-390.66-388.95-390.66-388.95-10.236-10.193-24.43-17.04-38.21-12.694-13.772 4.355-23.15 12.806-25.672 27.03l-3.622 20.386 5.079 24.16c.06.138 398.85 876.93 398.85 876.93 5.355 11.754 16.178 20.02 28.923 22.14 12.737 2.13 25.681-2.285 34.563-11.668l1217.91-1287.38c8.805-9.244 13.892-22.982 13.892-37.581l-4.933-23.525c-2.665-12.685-10.279-19.489-22.318-24.318-12.02-4.82-24.482.423-35.16 7.735" style="fill:url(#0)"/><path d="m691.54 1234.58c-12.289 8.425-28.837 6.925-39.38-3.587 0 0-387.38-385.68-395.24-393.51-.785 2.173-1.328 4.596-1.328 7.226 0 2.828.517 5.709 1.656 8.235 0 0 397.51 873.97 398.76 876.7 7.563-8.02 1217.91-1287.42 1217.91-1287.42 2-2.096 3.285-6.39 3.285-10.917 0-2.777-.638-5.562-1.725-8.06-8.848 6.04-1183.94 811.33-1183.94 811.33" style="fill:url(#1)"/><path d="m709.06 1260.14c-.009 0-.009 0-.009 0-24.56 16.79-57.691 13.763-78.76-7.226 0 0-172.92-172.18-287.05-285.79 91.31 200.77 264.55 581.65 321.89 707.72 52.41-55.4 809.11-855.26 1034.66-1093.68-270.59 185.44-990.73 678.94-990.73 678.94z" style="fill:url(#3)"/></svg>