<?xml version="1.0" encoding="UTF-8" standalone="no"?>
<svg
   xmlns:dc="http://purl.org/dc/elements/1.1/"
   xmlns:cc="http://creativecommons.org/ns#"
   xmlns:rdf="http://www.w3.org/1999/02/22-rdf-syntax-ns#"
   xmlns:svg="http://www.w3.org/2000/svg"
   xmlns="http://www.w3.org/2000/svg"
   xmlns:xlink="http://www.w3.org/1999/xlink"
   xmlns:sodipodi="http://sodipodi.sourceforge.net/DTD/sodipodi-0.dtd"
   xmlns:inkscape="http://www.inkscape.org/namespaces/inkscape"
   width="512"
   height="512"
   id="svg2"
   version="1.1"
   inkscape:version="0.48.2 r9819"
   sodipodi:docname="Duplicate.svg">
  <metadata
     id="metadata84">
    <rdf:RDF>
      <cc:Work
         rdf:about="">
        <dc:format>image/svg+xml</dc:format>
        <dc:type
           rdf:resource="http://purl.org/dc/dcmitype/StillImage" />
      </cc:Work>
    </rdf:RDF>
  </metadata>
  <sodipodi:namedview
     pagecolor="#ffffff"
     bordercolor="#666666"
     borderopacity="1"
     objecttolerance="10"
     gridtolerance="10"
     guidetolerance="10"
     inkscape:pageopacity="0"
     inkscape:pageshadow="2"
     inkscape:window-width="1028"
     inkscape:window-height="1011"
     id="namedview82"
     showgrid="false"
     inkscape:zoom="0.921875"
     inkscape:cx="246.77966"
     inkscape:cy="244.0678"
     inkscape:window-x="0"
     inkscape:window-y="0"
     inkscape:window-maximized="0"
     inkscape:current-layer="svg2" />
  <defs
     id="defs4">
    <linearGradient
       gradientTransform="matrix(11.38384,0,0,10.55227,52.09797,42.75595)"
       xlink:href="#linearGradient15218"
       id="linearGradient3636"
       y1="18.992"
       x1="22.308"
       y2="39.498"
       gradientUnits="userSpaceOnUse"
       x2="35.785" />
    <linearGradient
       gradientTransform="matrix(10.66666,0,0,10.66666,70.97958,38.73658)"
       xlink:href="#linearGradient2251"
       id="linearGradient3627"
       y1="36.921"
       x1="33.396"
       y2="38.07"
       gradientUnits="userSpaceOnUse"
       x2="34.17" />
    <linearGradient
       gradientTransform="matrix(10.66048,0,0,10.66666,69.16074,42.73658)"
       xlink:href="#linearGradient2259"
       id="linearGradient3633"
       y1="26.697"
       x1="26.076"
       y2="42.007"
       gradientUnits="userSpaceOnUse"
       x2="30.811" />
    <linearGradient
       gradientTransform="matrix(10.66666,0,0,10.66666,70.97958,42.73658)"
       xlink:href="#linearGradient2224"
       id="linearGradient3630"
       y1="40.458"
       x1="35.997"
       y2="37.771"
       gradientUnits="userSpaceOnUse"
       x2="33.665" />
    <linearGradient
       gradientTransform="matrix(0.9985,0,0,0.99825,-6.97039,-4.8929)"
       xlink:href="#linearGradient2259"
       id="linearGradient4260"
       y1="26.697"
       x1="26.076"
       y2="42.007"
       gradientUnits="userSpaceOnUse"
       x2="30.811" />
    <linearGradient
       id="linearGradient15218">
      <stop
         offset="0"
         stop-color="#fff"
         id="stop12" />
      <stop
         offset=".546"
         stop-color="#f0f0f0"
         id="stop14" />
      <stop
         offset=".828"
         stop-color="#fff"
         id="stop16" />
      <stop
         offset="1"
         stop-color="#d8d8d4"
         id="stop18" />
    </linearGradient>
    <linearGradient
       gradientTransform="matrix(1.0657,0,0,0.9876,-8.54832,-4.89171)"
       xlink:href="#linearGradient15218"
       id="linearGradient4258"
       y1="18.992"
       x1="22.308"
       y2="39.498"
       gradientUnits="userSpaceOnUse"
       x2="35.785" />
    <linearGradient
       id="linearGradient2259">
      <stop
         offset="0"
         stop-color="#fff"
         id="stop22" />
      <stop
         offset="1"
         stop-color="#fff"
         stop-opacity="0"
         id="stop24" />
    </linearGradient>
    <linearGradient
       id="linearGradient2251">
      <stop
         offset="0"
         stop-color="#fff"
         id="stop27" />
      <stop
         offset="1"
         stop-color="#fff"
         stop-opacity="0"
         id="stop29" />
    </linearGradient>
    <linearGradient
       id="linearGradient2224">
      <stop
         offset="0"
         stop-color="#7c7c7c"
         id="stop32" />
      <stop
         offset="1"
         stop-color="#b8b8b8"
         id="stop34" />
    </linearGradient>
    <linearGradient
       gradientUnits="userSpaceOnUse"
       x2="2.677"
       y2="23.318"
       x1="123.088"
       y1="113.713"
       id="linearGradient268"
       xlink:href="#id0"
       gradientTransform="matrix(-2.1111577,-1.8447167,1.6023552,-1.8337909,179.58211,578.09467)" />
    <linearGradient
       x2="7"
       y2="-2"
       x1="159"
       y1="84"
       id="id0">
      <stop
         id="stop3407"
         stop-color="#009240"
         offset="0" />
      <stop
         id="stop3409"
         stop-color="#b9db7d"
         offset="1" />
    </linearGradient>
  </defs>
  <g
     transform="matrix(9.3145146,0,0,9.3062139,44.597651,10.410988)"
     id="g36"
     style="opacity:0.8">
    <g
       id="g38"
       style="fill-rule:evenodd">
      <path
         d="M 20.1618,34.0334 H 33.1618 V 36.0334 H 20.1618 z"
         id="path40"
         inkscape:connector-curvature="0"
         style="opacity:0.17000002;color:#000000" />
      <path
         d="M 2.1141,1.5629 H 31.9343 A 0.5657,0.5662 0 0 1 32.5,2.1291 V 36.9735 A 0.5657,0.5662 0 0 1 31.9343,37.5396 H 2.1141 A 0.5657,0.5662 0 0 1 1.5484,36.9735 V 2.1291 A 0.5657,0.5662 0 0 1 2.1141,1.5629"
         id="path42"
         style="fill:url(#linearGradient4258);stroke:#888a85;stroke-width:0.99900001"
         inkscape:connector-curvature="0" />
    </g>
    <path
       d="M 2.5325,2.5606 H 31.5033 V 36.5417 H 2.5325 z"
       id="path44"
       style="fill:none;stroke:url(#linearGradient4260);stroke-width:0.99900001"
       inkscape:connector-curvature="0" />
    <g
       id="g46"
       style="color:#000000;fill-rule:evenodd">
      <path
         d="M 7.0161,10.0334 H 28.0161 V 12.0334 H 7.0161 z"
         id="path48"
         inkscape:connector-curvature="0"
         style="opacity:0.17000002" />
      <path
         d="M 7.0161,14.0334 H 27.0161 V 16.0334 H 7.0161 z"
         id="path50"
         inkscape:connector-curvature="0"
         style="opacity:0.17000002" />
      <path
         d="M 7.0161,18.0334 H 25.0161 V 20.0334 H 7.0161 z"
         id="path52"
         inkscape:connector-curvature="0"
         style="opacity:0.17000002" />
      <path
         d="M 7.0161,22.0334 H 28.0161 V 24.0334 H 7.0161 z"
         id="path54"
         inkscape:connector-curvature="0"
         style="opacity:0.17000002" />
      <path
         d="M 7.0161,26.0334 H 20.0161 V 28.0334 H 7.0161 z"
         id="path56"
         inkscape:connector-curvature="0"
         style="opacity:0.17000002" />
    </g>
  </g>
  <g
     id="g58"
     transform="matrix(0.87192105,0,0,0.87192105,40.482332,11.247142)"
     style="stroke-width:10.66699982">
    <path
       d="M 166.0314,111.7226 484.4993,111.7226 C 487.8672,111.7226 490.5785,114.4223 490.5785,117.7756 V 407.5606 C 490.5785,433.9761 417.1939,496.1268 391.7206,496.1268 H 166.0314 C 162.6635,496.1268 159.9522,493.4272 159.9522,490.0738 V 117.7756 C 159.9522,114.4222 162.6635,111.7226 166.0314,111.7226 z"
       id="path60"
       style="fill:url(#linearGradient3636);fill-rule:evenodd;stroke:#50524e"
       inkscape:connector-curvature="0" />
    <path
       d="M 170.618,122.38 H 479.923 V 485.481 H 170.618 z"
       id="path62"
       style="fill:none;stroke:url(#linearGradient3633)"
       inkscape:connector-curvature="0" />
  </g>
  <g
     id="g64"
     transform="matrix(0.87192105,0,0,0.87192105,40.482332,11.247142)"
     style="color:#000000">
    <g
       id="g66"
       style="stroke-width:10.66699982">
      <path
         d="M 391.6096,496.1076 C 413.2674,499.6265 493.89,447.7884 490.6433,405.464 473.9685,431.3104 439.8858,419.1892 396.059,420.8853 396.059,420.8853 400.2763,490.7743 391.6096,496.1076 z"
         id="path68"
         style="fill:url(#linearGradient3630);fill-rule:evenodd;stroke:#4f524e"
         inkscape:connector-curvature="0" />
      <path
         d="M 407.0809,472.7315 C 421.6919,465.4373 454.3155,449.8359 468.1756,429.7719 451.1506,437.0258 436.7323,432.0065 407.3507,431.8029 407.3507,431.8029 409.0821,464.4652 407.0808,472.7316 z"
         id="path70"
         style="opacity:0.369;fill:none;stroke:url(#linearGradient3627)"
         inkscape:connector-curvature="0" />
    </g>
    <g
       id="g72"
       style="fill-rule:evenodd">
      <path
         d="M 218.587,202.737 H 442.586 V 224.07 H 218.587 z"
         id="path74"
         inkscape:connector-curvature="0"
         style="opacity:0.17000002" />
      <path
         d="M 218.587,245.403 H 431.837 V 266.736 H 218.587 z"
         id="path76"
         inkscape:connector-curvature="0"
         style="opacity:0.17000002" />
      <path
         d="M 218.587,288.07 H 410.338 V 309.403 H 218.587 z"
         id="path78"
         inkscape:connector-curvature="0"
         style="opacity:0.17000002" />
      <path
         d="M 218.587,330.736 H 442.586 V 352.07 H 218.587 z"
         id="path80"
         inkscape:connector-curvature="0"
         style="opacity:0.17000002" />
    </g>
  </g>
  <path
     id="path3412"
     d="M 206.93606,373.01952 206.03904,305.30396 299.06695,386.59118 211.79435,486.46897 212.58846,430.79932 C 212.39581,427.1083 189.53598,431.46305 157.71389,430.62877 97.08725,432.04341 70.0132,411.64243 55.924531,383.64866 41.835851,355.65489 43.393031,341.90832 45.758161,297.34295 57.009031,327.28113 68.87462,346.27288 93.85587,363.17683 129.11137,383.09354 177.97385,373.15127 206.93597,373.01953 z"
     style="fill:url(#linearGradient268);stroke:#037340;stroke-width:10.45178318"
     inkscape:connector-curvature="0"
     sodipodi:nodetypes="cccccczcccc" />
</svg>
