<svg xmlns="http://www.w3.org/2000/svg" viewBox="0 0 512 512" xmlns:xlink="http://www.w3.org/1999/xlink"><g transform="translate(0 464)"><g style="fill:none;stroke-linecap:round"><path d="M408-392A336 336 0 0 0 72.00341 -56" style="stroke:#fff;stroke-width:16"/><g style="stroke:#00ccff;stroke-width:8"><path d="m408-56v-336" style="opacity:.25"/><path d="m408-56h-336" style="opacity:.25"/></g></g><g style="fill:#f00"><path d="m16.5 4.5c0 .552-.448 1-1 1-.552 0-1-.448-1-1 0-.552.448-1 1-1 .552 0 1 .448 1 1" transform="matrix(-32 0 0-32 904-248)" id="0"/><use transform="translate(-336 336)" xlink:href="#0"/></g><path d="M408-184A128 128 0 0 0 280.0013 -56" style="fill:none;stroke:#f00;stroke-linecap:round;stroke-width:8"/></g></svg>
