<?xml version="1.0" encoding="UTF-8" standalone="no"?>
<svg
   viewBox="0 0 512 512"
   version="1.1"
   id="svg1233"
   sodipodi:docname="Arc2PA.svg"
   inkscape:version="1.1.2 (b8e25be8, 2022-02-05)"
   xmlns:inkscape="http://www.inkscape.org/namespaces/inkscape"
   xmlns:sodipodi="http://sodipodi.sourceforge.net/DTD/sodipodi-0.dtd"
   xmlns:xlink="http://www.w3.org/1999/xlink"
   xmlns="http://www.w3.org/2000/svg"
   xmlns:svg="http://www.w3.org/2000/svg">
  <defs
     id="defs1237" />
  <sodipodi:namedview
     id="namedview1235"
     pagecolor="#ffffff"
     bordercolor="#666666"
     borderopacity="1.0"
     inkscape:pageshadow="2"
     inkscape:pageopacity="0.0"
     inkscape:pagecheckerboard="0"
     showgrid="false"
     inkscape:zoom="1.2617188"
     inkscape:cx="227.07121"
     inkscape:cy="257.58514"
     inkscape:window-width="1277"
     inkscape:window-height="847"
     inkscape:window-x="0"
     inkscape:window-y="25"
     inkscape:window-maximized="0"
     inkscape:current-layer="g1231" />
  <g
     transform="translate(0 464)"
     id="g1231">
    <g
       style="fill:none;stroke-linecap:round"
       id="g1222">
      <path
         d="M408-392A336 336 0 0 0 72.00341 -56"
         style="stroke:#000;stroke-width:16"
         id="path1214" />
      <g
         style="stroke:#00f;stroke-width:8"
         id="g1220">
        <path
           d="m408-56v-336"
           style="opacity:.25"
           id="path1216" />
        <path
           d="m408-56h-336"
           style="opacity:.25"
           id="path1218" />
      </g>
    </g>
    <g
       style="fill:#f00"
       id="g1227">
      <path
         d="m16.5 4.5c0 .552-.448 1-1 1-.552 0-1-.448-1-1 0-.552.448-1 1-1 .552 0 1 .448 1 1"
         transform="matrix(-32 0 0-32 904-248)"
         id="0" />
      <use
         transform="translate(-336 336)"
         xlink:href="#0"
         id="use1225" />
    </g>
    <path
       d="M408-184A128 128 0 0 0 280.0013 -56"
       style="fill:none;stroke:#f00;stroke-linecap:round;stroke-width:16;stroke-miterlimit:4;stroke-dasharray:none"
       id="path1229" />
  </g>
</svg>
