<svg width="356.1" xmlns="http://www.w3.org/2000/svg" height="214.37" viewBox="-0.25 -50.25 100.5 60.5" style="fill:none;stroke-linecap:round;stroke-linejoin:round"><g transform="scale(1-1)"><g style="stroke:#000"><g style="stroke-width:.5"><circle cx="30" cy="20" r="10"/><circle cx="30" cy="20" r="20"/><path d="M44.9071 33.3333A10 10 0 0 1 52.3607 30"/><path d="M52.3607 10A10 10 0 0 1 44.9071 6.66667"/><path d="M56.8328 26A3 3 0 0 1 53.8514 22.6667"/><path d="M53.8514 17.3333A3 3 0 0 1 56.8328 14"/><path d="M53.8514 17.3333A24 24 0 0 1 53.8514 22.6667"/></g><path d="m87.13 29.908v-.067l-.067-.067v-.067l-.067-.067-.067-.067-.067-.135-.067-.067-.067-.067-.067-.067v-.067l-.067-.067v-.067l-.067-.067v-.067l-.067-.067v-.067l-.067-.135v-.067l-.067-.135v-.067-.135l-.067-.067v-.135-.067-.067l-.067-.135v-.067-.135-.135-.067l-.067-.135v-.067-.135-.135-.067-.067-.067-.135l.067-.067v-.135-.067-.067l.067-.135v-.067-.135-.135l.067-.067v-.135l.067-.067v-.135l.067-.135v-.135l.067-.135v-.135l.067-.067v-.135-.135l.067-.067v-.135-.067-.135-.067-.067l.067-.135v-.067-.135-.067-.067-.135-.067-.067-.067-.067-.067-.067-.067-.067-.067-.067-.067-.067l-.067-.067v-.067-.067-.067l-.067-.067v-.067-.067-.067h-.067v-.067-.067l-.067-.067v-.067-.067l-.067-.067v-.067l-.067-.067-.067-.067v-.067l-.067-.067v-.067h-.067v-.067l-.067-.067v-.067h-.067v-.067h-.067v-.067-.067h-.067v-.067h-.067v-.067-.067h-.067v-.067-.135-.067-.067-.067-.067-.067-.067l-.067-.067v-.067-.067-.067-.067-.067-.067-.067h-.067v-.067-.067-.067-.067-.067-.067-.067-.067l-.067-.067v-.067-.067-.067-.067-.067-.067-.067-.067-.067-.067-.067-.067l-.067-.067v-.135-.067-.067-.067-.067-.135-.067-.067-.067-.067-.067-.067-.067-.067-.067-.067-.067-.067-.067-.067-.067-.067h.067v-.067-.067-.067-.067-.067-.067-.067-.067-.067l.067-.067v-.067-.067-.067-.067-.067-.067-.067l.067-.067v-.067-.067-.067l.067-.067v-.067-.067-.067h.067v-.067-.067-.067-.067h.067v-.067-.067-.067-.067-.067-.067-.067-.067-.067-.067-.067-.067-.135-.067-.067-.067-.067-.067-.067-.067-.067-.067-.135-.067-.135l.067-.067v-.067-.135-.067-.067-.067-.135-.067l.067-.067v-.067-.067-.067h.067v-.067-.067-.067-.067-.067-.067-.067-.067-.067-.067-.067-.067-.067l-.067-.067v-.067l-.067-.067-.067-.067-.067-.067-.067-.067-.067-.067v-.067h-.067v-.067-.067h-.067v-.067-.067" style="stroke-width:.18"/><g style="stroke-width:.5"><path d="m87.09 30h-34.727"/><path d="m85.88 14h-29.04"/><path d="m85.64 10h-33.28"/><path d="m86.23 26h-29.394"/></g></g><g style="stroke:#f00;stroke-width:.18"><path d="m100 20h-.32m-2.151 0h-.018m-2.151 0h-4.32m-2.151 0h-.018m-2.151 0h-4.32m-2.151 0h-.018m-2.151 0h-4.32m-2.151 0h-.018m-2.151 0h-4.32m-2.151 0h-.018m-2.151 0h-4.32m-2.151 0h-.018m-2.151 0h-4.32m-2.151 0h-.018m-2.151 0h-4.32m-2.151 0h-.018m-2.151 0h-4.32m-2.151 0h-.018m-2.151 0h-4.32m-2.151 0h-.018m-2.151 0h-4.32m-2.151 0h-.018m-2.151 0h-4.32m-2.151 0h-.018m-2.151 0h-.32"/><path d="m30 50v-1.92m0-2.151v-.018m0-2.151v-4.32m0-2.151v-.018m0-2.151v-4.32m0-2.151v-.018m0-2.151v-4.32m0-2.151v-.018m0-2.151v-4.32m0-2.151v-.018m0-2.151v-4.32m0-2.151v-.018m0-2.151v-4.32m0-2.151v-.018m0-2.151v-1.92"/></g></g></svg>