<svg width="356.1024" fill="none" xmlns="http://www.w3.org/2000/svg" height="214.3701" viewBox="-0.25 -50.25 100.5 60.5" stroke-linejoin="round" stroke-linecap="round">
<g transform="scale(1 -1)">
<g stroke="#fff">
<g stroke-width=".5">
<circle cx="30" cy="20" r="10"/>
<circle cx="30" cy="20" r="20"/>
<path d="M44.9071,33.3333 A10,10 0 0,1 52.3607,30 "/>
<path d="M52.3607,10 A10,10 0 0,1 44.9071,6.66667 "/>
<path d="M56.8328,26 A3,3 0 0,1 53.8514,22.6667 "/>
<path d="M53.8514,17.3333 A3,3 0 0,1 56.8328,14 "/>
<path d="M53.8514,17.3333 A24,24 0 0,1 53.8514,22.6667 "/>
</g>
<path stroke-width=".18" d="m87.1347,29.9083v-.0673l-.0673-.0674v-.0673l-.0674-.0674-.0673-.0674-.0674-.1347-.0674-.0673-.0673-.0674-.0674-.0674v-.0673l-.0673-.0674v-.0674l-.0674-.0673v-.0674l-.0674-.0673v-.0674l-.0673-.1347v-.0674l-.0674-.1347v-.0674-.1347l-.0673-.0673v-.1348-.0673-.0674l-.0674-.1347v-.0674-.1347-.1347-.0674l-.0674-.1347v-.0674-.1347-.1347-.0674-.0673-.0674-.1347l.0674-.0674v-.1347-.0674-.0673l.0674-.1347v-.0674-.1347-.1347l.0673-.0674v-.1347l.0674-.0674v-.1347l.0673-.1347v-.1348l.0674-.1347v-.1347l.0674-.0674v-.1347-.1347l.0673-.0674v-.1347-.0674-.1347-.0673-.0674l.0674-.1347v-.0674-.1347-.0674-.0673-.1347-.0674-.0674-.0673-.0674-.0674-.0673-.0674-.0673-.0674-.0674-.0673-.0674l-.0674-.0673v-.0674-.0674-.0673l-.0673-.0674v-.0674-.0673-.0674h-.0674v-.0673-.0674l-.0674-.0674v-.0673-.0674l-.0673-.0673v-.0674l-.0674-.0674-.0673-.0673v-.0674l-.0674-.0673v-.0674h-.0674v-.0674l-.0673-.0673v-.0674h-.0674v-.0674h-.0674v-.0673-.0674h-.0673v-.0673h-.0674v-.0674-.0674h-.0673v-.0673-.1347-.0674-.0674-.0673-.0674-.0673-.0674l-.0674-.0674v-.0673-.0674-.0674-.0673-.0674-.0673-.0674h-.0674v-.0674-.0673-.0674-.0673-.0674-.0674-.0673-.0674l-.0673-.0673v-.0674-.0674-.0673-.0674-.0674-.0673-.0674-.0673-.0674-.0674-.0673-.0674l-.0674-.0673v-.1348-.0673-.0674-.0673-.0674-.1347-.0674-.0674-.0673-.0674-.0673-.0674-.0674-.0673-.0674-.0673-.0674-.0674-.0673-.0674-.0673-.0674h.0674v-.0674-.0673-.0674-.0674-.0673-.0674-.0673-.0674-.0674l.0673-.0673v-.0674-.0673-.0674-.0674-.0673-.0674-.0673l.0674-.0674v-.0674-.0673-.0674l.0674-.0674v-.0673-.0674-.0673h.0673v-.0674-.0674-.0673-.0674h.0674v-.0673-.0674-.0674-.0673-.0674-.0673-.0674-.0674-.0673-.0674-.0674-.0673-.1347-.0674-.0674-.0673-.0674-.0673-.0674-.0674-.0673-.0674-.1347-.0674-.1347l.0673-.0674v-.0673-.1347-.0674-.0674-.0673-.1347-.0674l.0674-.0674v-.0673-.0674-.0673h.0674v-.0674-.0674-.0673-.0674-.0674-.0673-.0674-.0673-.0674-.0674-.0673-.0674-.0673l-.0674-.0674v-.0674l-.0674-.0673-.0673-.0674-.0674-.0673-.0673-.0674-.0674-.0674v-.0673h-.0674v-.0674-.0673h-.0673v-.0674-.0674"/>
<g stroke-width=".5">
<path d="m87.0878,30h-34.7271"/>
<path d="m85.8759,14h-29.0431"/>
<path d="m85.645,10h-33.2843"/>
<path d="m86.227,26h-29.3942"/>
</g>
</g>
<g stroke="#f00" stroke-width=".18">
<path d="m100,20h-.32m-2.151,0h-.018m-2.151,0h-4.32m-2.151,0h-.018m-2.151,0h-4.32m-2.151,0h-.018m-2.151,0h-4.32m-2.151,0h-.018m-2.151,0h-4.32m-2.151,0h-.018m-2.151,0h-4.32m-2.151,0h-.018m-2.151,0h-4.32m-2.151,0h-.018m-2.151,0h-4.32m-2.151,0h-.018m-2.151,0h-4.32m-2.151,0h-.018m-2.151,0h-4.32m-2.151,0h-.018m-2.151,0h-4.32m-2.151,0h-.018m-2.151,0h-4.32m-2.151,0h-.018m-2.151,0h-.32"/>
<path d="m30,50v-1.92m0-2.151v-.018m0-2.151v-4.32m0-2.151v-.018m0-2.151v-4.32m0-2.151v-.018m0-2.151v-4.32m0-2.151v-.018m0-2.151v-4.32m0-2.151v-.018m0-2.151v-4.32m0-2.151v-.018m0-2.151v-4.32m0-2.151v-.018m0-2.151v-1.92"/>
</g>
</g>
</svg>
