<?xml version="1.0" encoding="UTF-8" standalone="no"?>
<svg
   xmlns:dc="http://purl.org/dc/elements/1.1/"
   xmlns:cc="http://creativecommons.org/ns#"
   xmlns:rdf="http://www.w3.org/1999/02/22-rdf-syntax-ns#"
   xmlns:svg="http://www.w3.org/2000/svg"
   xmlns="http://www.w3.org/2000/svg"
   xmlns:sodipodi="http://sodipodi.sourceforge.net/DTD/sodipodi-0.dtd"
   xmlns:inkscape="http://www.inkscape.org/namespaces/inkscape"
   width="356.1"
   height="214.37"
   viewBox="-0.25 -50.25 100.5 60.5"
   style="fill:none;stroke-linecap:round;stroke-linejoin:round"
   id="svg2"
   version="1.1"
   inkscape:version="0.91 r13725"
   sodipodi:docname="LineFreehand.svg"
   inkscape:export-filename="LineFreehand.png"
   inkscape:export-xdpi="89.844666"
   inkscape:export-ydpi="89.844666">
  <metadata
     id="metadata46">
    <rdf:RDF>
      <cc:Work
         rdf:about="">
        <dc:format>image/svg+xml</dc:format>
        <dc:type
           rdf:resource="http://purl.org/dc/dcmitype/StillImage" />
      </cc:Work>
    </rdf:RDF>
  </metadata>
  <defs
     id="defs44" />
  <sodipodi:namedview
     pagecolor="#ffffff"
     bordercolor="#666666"
     borderopacity="1"
     objecttolerance="10"
     gridtolerance="10"
     guidetolerance="10"
     inkscape:pageopacity="0"
     inkscape:pageshadow="2"
     inkscape:window-width="1485"
     inkscape:window-height="955"
     id="namedview42"
     showgrid="false"
     inkscape:zoom="0.76944677"
     inkscape:cx="178.05"
     inkscape:cy="107.185"
     inkscape:window-x="521"
     inkscape:window-y="135"
     inkscape:window-maximized="0"
     inkscape:current-layer="svg2" />
  <g
     transform="scale(1-1)"
     id="g4">
    <g
       style="stroke:#000"
       id="g6">
      <g
         style="stroke-width:.5"
         id="g8">
        <circle
           cx="30"
           cy="20"
           r="10"
           id="circle10" />
        <circle
           cx="30"
           cy="20"
           r="20"
           id="circle12" />
        <path
           d="M44.9071 33.3333A10 10 0 0 1 52.3607 30"
           id="path14" />
        <path
           d="M52.3607 10A10 10 0 0 1 44.9071 6.66667"
           id="path16" />
        <path
           d="M56.8328 26A3 3 0 0 1 53.8514 22.6667"
           id="path18" />
        <path
           d="M53.8514 17.3333A3 3 0 0 1 56.8328 14"
           id="path20" />
        <path
           d="M53.8514 17.3333A24 24 0 0 1 53.8514 22.6667"
           id="path22" />
      </g>
      <path
         d="m87.13 29.908v-.067l-.067-.067v-.067l-.067-.067-.067-.067-.067-.135-.067-.067-.067-.067-.067-.067v-.067l-.067-.067v-.067l-.067-.067v-.067l-.067-.067v-.067l-.067-.135v-.067l-.067-.135v-.067-.135l-.067-.067v-.135-.067-.067l-.067-.135v-.067-.135-.135-.067l-.067-.135v-.067-.135-.135-.067-.067-.067-.135l.067-.067v-.135-.067-.067l.067-.135v-.067-.135-.135l.067-.067v-.135l.067-.067v-.135l.067-.135v-.135l.067-.135v-.135l.067-.067v-.135-.135l.067-.067v-.135-.067-.135-.067-.067l.067-.135v-.067-.135-.067-.067-.135-.067-.067-.067-.067-.067-.067-.067-.067-.067-.067-.067-.067l-.067-.067v-.067-.067-.067l-.067-.067v-.067-.067-.067h-.067v-.067-.067l-.067-.067v-.067-.067l-.067-.067v-.067l-.067-.067-.067-.067v-.067l-.067-.067v-.067h-.067v-.067l-.067-.067v-.067h-.067v-.067h-.067v-.067-.067h-.067v-.067h-.067v-.067-.067h-.067v-.067-.135-.067-.067-.067-.067-.067-.067l-.067-.067v-.067-.067-.067-.067-.067-.067-.067h-.067v-.067-.067-.067-.067-.067-.067-.067-.067l-.067-.067v-.067-.067-.067-.067-.067-.067-.067-.067-.067-.067-.067-.067l-.067-.067v-.135-.067-.067-.067-.067-.135-.067-.067-.067-.067-.067-.067-.067-.067-.067-.067-.067-.067-.067-.067-.067-.067h.067v-.067-.067-.067-.067-.067-.067-.067-.067-.067l.067-.067v-.067-.067-.067-.067-.067-.067-.067l.067-.067v-.067-.067-.067l.067-.067v-.067-.067-.067h.067v-.067-.067-.067-.067h.067v-.067-.067-.067-.067-.067-.067-.067-.067-.067-.067-.067-.067-.135-.067-.067-.067-.067-.067-.067-.067-.067-.067-.135-.067-.135l.067-.067v-.067-.135-.067-.067-.067-.135-.067l.067-.067v-.067-.067-.067h.067v-.067-.067-.067-.067-.067-.067-.067-.067-.067-.067-.067-.067-.067l-.067-.067v-.067l-.067-.067-.067-.067-.067-.067-.067-.067-.067-.067v-.067h-.067v-.067-.067h-.067v-.067-.067"
         style="stroke-width:.18"
         id="path24" />
      <g
         style="stroke-width:.5"
         id="g26">
        <path
           d="m87.09 30h-34.727"
           id="path28" />
        <path
           d="m85.88 14h-29.04"
           id="path30" />
        <path
           d="m85.64 10h-33.28"
           id="path32" />
        <path
           d="m86.23 26h-29.394"
           id="path34" />
      </g>
    </g>
    <g
       style="stroke:#f00;stroke-width:.18"
       id="g36">
      <path
         d="m100 20h-.32m-2.151 0h-.018m-2.151 0h-4.32m-2.151 0h-.018m-2.151 0h-4.32m-2.151 0h-.018m-2.151 0h-4.32m-2.151 0h-.018m-2.151 0h-4.32m-2.151 0h-.018m-2.151 0h-4.32m-2.151 0h-.018m-2.151 0h-4.32m-2.151 0h-.018m-2.151 0h-4.32m-2.151 0h-.018m-2.151 0h-4.32m-2.151 0h-.018m-2.151 0h-4.32m-2.151 0h-.018m-2.151 0h-4.32m-2.151 0h-.018m-2.151 0h-4.32m-2.151 0h-.018m-2.151 0h-.32"
         id="path38" />
      <path
         d="m30 50v-1.92m0-2.151v-.018m0-2.151v-4.32m0-2.151v-.018m0-2.151v-4.32m0-2.151v-.018m0-2.151v-4.32m0-2.151v-.018m0-2.151v-4.32m0-2.151v-.018m0-2.151v-4.32m0-2.151v-.018m0-2.151v-4.32m0-2.151v-.018m0-2.151v-1.92"
         id="path40" />
    </g>
  </g>
</svg>
