<?xml version="1.0" encoding="UTF-8"?>
<!-- 2012-02-25 11:47:35 Generated by QCAD SVG Exporter -->
<svg width="100.5mm" height="60.5mm" viewBox="-0.25 -50.25 100.5 60.5" version="1.1" xmlns="http://www.w3.org/2000/svg" style="stroke-linecap:round;stroke-linejoin:round;fill:none" xmlns:sodipodi="http://sodipodi.sourceforge.net/DTD/sodipodi-0.dtd" xmlns:inkscape="http://www.inkscape.org/namespaces/inkscape">
    <sodipodi:namedview inkscape:document-units="mm" unitToSymbol="mm" units="mm"/>
    <g transform="scale(1,-1)">
        <!-- Kreis -->
        <circle cx="30" cy="20" r="10" style="stroke:#000000;stroke-width:0.5;"/>
        <!-- Kreis -->
        <circle cx="30" cy="20" r="20" style="stroke:#000000;stroke-width:0.5;"/>
        <!-- Kreisbogen -->
        <path d="M44.9071,33.3333 A10,10 0 0,1 52.3607,30 " style="stroke:#000000;stroke-width:0.5;"/>
        <!-- Kreisbogen -->
        <path d="M52.3607,10 A10,10 0 0,1 44.9071,6.66667 " style="stroke:#000000;stroke-width:0.5;"/>
        <!-- Kreisbogen -->
        <path d="M56.8328,26 A3,3 0 0,1 53.8514,22.6667 " style="stroke:#000000;stroke-width:0.5;"/>
        <!-- Kreisbogen -->
        <path d="M53.8514,17.3333 A3,3 0 0,1 56.8328,14 " style="stroke:#000000;stroke-width:0.5;"/>
        <!-- Kreisbogen -->
        <path d="M53.8514,17.3333 A24,24 0 0,1 53.8514,22.6667 " style="stroke:#000000;stroke-width:0.5;"/>
        <!-- Polylinie -->
        <path d="M87.1347,29.9083 L87.1347,29.841 M87.1347,29.841 L87.0674,29.7736 M87.0674,29.7736 L87.0674,29.7063 M87.0674,29.7063 L87,29.6389 M87,29.6389 L86.9327,29.5715 M86.9327,29.5715 L86.8653,29.4368 M86.8653,29.4368 L86.7979,29.3695 M86.7979,29.3695 L86.7306,29.3021 M86.7306,29.3021 L86.6632,29.2347 M86.6632,29.2347 L86.6632,29.1674 M86.6632,29.1674 L86.5959,29.1 M86.5959,29.1 L86.5959,29.0326 M86.5959,29.0326 L86.5285,28.9653 M86.5285,28.9653 L86.5285,28.8979 M86.5285,28.8979 L86.4611,28.8306 M86.4611,28.8306 L86.4611,28.7632 M86.4611,28.7632 L86.3938,28.6285 M86.3938,28.6285 L86.3938,28.5611 M86.3938,28.5611 L86.3264,28.4264 M86.3264,28.4264 L86.3264,28.359 M86.3264,28.359 L86.3264,28.2243 M86.3264,28.2243 L86.2591,28.157 M86.2591,28.157 L86.2591,28.0222 M86.2591,28.0222 L86.2591,27.9549 M86.2591,27.9549 L86.2591,27.8875 M86.2591,27.8875 L86.1917,27.7528 M86.1917,27.7528 L86.1917,27.6854 M86.1917,27.6854 L86.1917,27.5507 M86.1917,27.5507 L86.1917,27.416 M86.1917,27.416 L86.1917,27.3486 M86.1917,27.3486 L86.1243,27.2139 M86.1243,27.2139 L86.1243,27.1465 M86.1243,27.1465 L86.1243,27.0118 M86.1243,27.0118 L86.1243,26.8771 M86.1243,26.8771 L86.1243,26.8097 M86.1243,26.8097 L86.1243,26.7424 M86.1243,26.7424 L86.1243,26.675 M86.1243,26.675 L86.1243,26.5403 M86.1243,26.5403 L86.1917,26.4729 M86.1917,26.4729 L86.1917,26.3382 M86.1917,26.3382 L86.1917,26.2708 M86.1917,26.2708 L86.1917,26.2035 M86.1917,26.2035 L86.2591,26.0688 M86.2591,26.0688 L86.2591,26.0014 M86.2591,26.0014 L86.2591,25.8667 M86.2591,25.8667 L86.2591,25.732 M86.2591,25.732 L86.3264,25.6646 M86.3264,25.6646 L86.3264,25.5299 M86.3264,25.5299 L86.3938,25.4625 M86.3938,25.4625 L86.3938,25.3278 M86.3938,25.3278 L86.4611,25.1931 M86.4611,25.1931 L86.4611,25.0583 M86.4611,25.0583 L86.5285,24.9236 M86.5285,24.9236 L86.5285,24.7889 M86.5285,24.7889 L86.5959,24.7215 M86.5959,24.7215 L86.5959,24.5868 M86.5959,24.5868 L86.5959,24.4521 M86.5959,24.4521 L86.6632,24.3847 M86.6632,24.3847 L86.6632,24.25 M86.6632,24.25 L86.6632,24.1826 M86.6632,24.1826 L86.6632,24.0479 M86.6632,24.0479 L86.6632,23.9806 M86.6632,23.9806 L86.6632,23.9132 M86.6632,23.9132 L86.7306,23.7785 M86.7306,23.7785 L86.7306,23.7111 M86.7306,23.7111 L86.7306,23.5764 M86.7306,23.5764 L86.7306,23.509 M86.7306,23.509 L86.7306,23.4417 M86.7306,23.4417 L86.7306,23.307 M86.7306,23.307 L86.7306,23.2396 M86.7306,23.2396 L86.7306,23.1722 M86.7306,23.1722 L86.7306,23.1049 M86.7306,23.1049 L86.7306,23.0375 M86.7306,23.0375 L86.7306,22.9701 M86.7306,22.9701 L86.7306,22.9028 M86.7306,22.9028 L86.7306,22.8354 M86.7306,22.8354 L86.7306,22.7681 M86.7306,22.7681 L86.7306,22.7007 M86.7306,22.7007 L86.7306,22.6333 M86.7306,22.6333 L86.7306,22.566 M86.7306,22.566 L86.7306,22.4986 M86.7306,22.4986 L86.6632,22.4313 M86.6632,22.4313 L86.6632,22.3639 M86.6632,22.3639 L86.6632,22.2965 M86.6632,22.2965 L86.6632,22.2292 M86.6632,22.2292 L86.5959,22.1618 M86.5959,22.1618 L86.5959,22.0944 M86.5959,22.0944 L86.5959,22.0271 M86.5959,22.0271 L86.5959,21.9597 M86.5959,21.9597 L86.5285,21.9597 M86.5285,21.9597 L86.5285,21.8924 M86.5285,21.8924 L86.5285,21.825 M86.5285,21.825 L86.4611,21.7576 M86.4611,21.7576 L86.4611,21.6903 M86.4611,21.6903 L86.4611,21.6229 M86.4611,21.6229 L86.3938,21.5556 M86.3938,21.5556 L86.3938,21.4882 M86.3938,21.4882 L86.3264,21.4208 M86.3264,21.4208 L86.2591,21.3535 M86.2591,21.3535 L86.2591,21.2861 M86.2591,21.2861 L86.1917,21.2188 M86.1917,21.2188 L86.1917,21.1514 M86.1917,21.1514 L86.1243,21.1514 M86.1243,21.1514 L86.1243,21.084 M86.1243,21.084 L86.057,21.0167 M86.057,21.0167 L86.057,20.9493 M86.057,20.9493 L85.9896,20.9493 M85.9896,20.9493 L85.9896,20.8819 M85.9896,20.8819 L85.9222,20.8819 M85.9222,20.8819 L85.9222,20.8146 M85.9222,20.8146 L85.9222,20.7472 M85.9222,20.7472 L85.8549,20.7472 M85.8549,20.7472 L85.8549,20.6799 M85.8549,20.6799 L85.7875,20.6799 M85.7875,20.6799 L85.7875,20.6125 M85.7875,20.6125 L85.7875,20.5451 M85.7875,20.5451 L85.7202,20.5451 M85.7202,20.5451 L85.7202,20.4778 M85.7202,20.4778 L85.7202,20.3431 M85.7202,20.3431 L85.7202,20.2757 M85.7202,20.2757 L85.7202,20.2083 M85.7202,20.2083 L85.7202,20.141 M85.7202,20.141 L85.7202,20.0736 M85.7202,20.0736 L85.7202,20.0063 M85.7202,20.0063 L85.7202,19.9389 M85.7202,19.9389 L85.6528,19.8715 M85.6528,19.8715 L85.6528,19.8042 M85.6528,19.8042 L85.6528,19.7368 M85.6528,19.7368 L85.6528,19.6694 M85.6528,19.6694 L85.6528,19.6021 M85.6528,19.6021 L85.6528,19.5347 M85.6528,19.5347 L85.6528,19.4674 M85.6528,19.4674 L85.6528,19.4 M85.6528,19.4 L85.5854,19.4 M85.5854,19.4 L85.5854,19.3326 M85.5854,19.3326 L85.5854,19.2653 M85.5854,19.2653 L85.5854,19.1979 M85.5854,19.1979 L85.5854,19.1306 M85.5854,19.1306 L85.5854,19.0632 M85.5854,19.0632 L85.5854,18.9958 M85.5854,18.9958 L85.5854,18.9285 M85.5854,18.9285 L85.5854,18.8611 M85.5854,18.8611 L85.5181,18.7938 M85.5181,18.7938 L85.5181,18.7264 M85.5181,18.7264 L85.5181,18.659 M85.5181,18.659 L85.5181,18.5917 M85.5181,18.5917 L85.5181,18.5243 M85.5181,18.5243 L85.5181,18.4569 M85.5181,18.4569 L85.5181,18.3896 M85.5181,18.3896 L85.5181,18.3222 M85.5181,18.3222 L85.5181,18.2549 M85.5181,18.2549 L85.5181,18.1875 M85.5181,18.1875 L85.5181,18.1201 M85.5181,18.1201 L85.5181,18.0528 M85.5181,18.0528 L85.5181,17.9854 M85.5181,17.9854 L85.4507,17.9181 M85.4507,17.9181 L85.4507,17.7833 M85.4507,17.7833 L85.4507,17.716 M85.4507,17.716 L85.4507,17.6486 M85.4507,17.6486 L85.4507,17.5813 M85.4507,17.5813 L85.4507,17.5139 M85.4507,17.5139 L85.4507,17.3792 M85.4507,17.3792 L85.4507,17.3118 M85.4507,17.3118 L85.4507,17.2444 M85.4507,17.2444 L85.4507,17.1771 M85.4507,17.1771 L85.4507,17.1097 M85.4507,17.1097 L85.4507,17.0424 M85.4507,17.0424 L85.4507,16.975 M85.4507,16.975 L85.4507,16.9076 M85.4507,16.9076 L85.4507,16.8403 M85.4507,16.8403 L85.4507,16.7729 M85.4507,16.7729 L85.4507,16.7056 M85.4507,16.7056 L85.4507,16.6382 M85.4507,16.6382 L85.4507,16.5708 M85.4507,16.5708 L85.4507,16.5035 M85.4507,16.5035 L85.4507,16.4361 M85.4507,16.4361 L85.4507,16.3688 M85.4507,16.3688 L85.4507,16.3014 M85.4507,16.3014 L85.5181,16.3014 M85.5181,16.3014 L85.5181,16.234 M85.5181,16.234 L85.5181,16.1667 M85.5181,16.1667 L85.5181,16.0993 M85.5181,16.0993 L85.5181,16.0319 M85.5181,16.0319 L85.5181,15.9646 M85.5181,15.9646 L85.5181,15.8972 M85.5181,15.8972 L85.5181,15.8299 M85.5181,15.8299 L85.5181,15.7625 M85.5181,15.7625 L85.5181,15.6951 M85.5181,15.6951 L85.5854,15.6278 M85.5854,15.6278 L85.5854,15.5604 M85.5854,15.5604 L85.5854,15.4931 M85.5854,15.4931 L85.5854,15.4257 M85.5854,15.4257 L85.5854,15.3583 M85.5854,15.3583 L85.5854,15.291 M85.5854,15.291 L85.5854,15.2236 M85.5854,15.2236 L85.5854,15.1563 M85.5854,15.1563 L85.6528,15.0889 M85.6528,15.0889 L85.6528,15.0215 M85.6528,15.0215 L85.6528,14.9542 M85.6528,14.9542 L85.6528,14.8868 M85.6528,14.8868 L85.7202,14.8194 M85.7202,14.8194 L85.7202,14.7521 M85.7202,14.7521 L85.7202,14.6847 M85.7202,14.6847 L85.7202,14.6174 M85.7202,14.6174 L85.7875,14.6174 M85.7875,14.6174 L85.7875,14.55 M85.7875,14.55 L85.7875,14.4826 M85.7875,14.4826 L85.7875,14.4153 M85.7875,14.4153 L85.7875,14.3479 M85.7875,14.3479 L85.8549,14.3479 M85.8549,14.3479 L85.8549,14.2806 M85.8549,14.2806 L85.8549,14.2132 M85.8549,14.2132 L85.8549,14.1458 M85.8549,14.1458 L85.8549,14.0785 M85.8549,14.0785 L85.8549,14.0111 M85.8549,14.0111 L85.8549,13.9438 M85.8549,13.9438 L85.8549,13.8764 M85.8549,13.8764 L85.8549,13.809 M85.8549,13.809 L85.8549,13.7417 M85.8549,13.7417 L85.8549,13.6743 M85.8549,13.6743 L85.8549,13.6069 M85.8549,13.6069 L85.8549,13.5396 M85.8549,13.5396 L85.8549,13.4049 M85.8549,13.4049 L85.8549,13.3375 M85.8549,13.3375 L85.8549,13.2701 M85.8549,13.2701 L85.8549,13.2028 M85.8549,13.2028 L85.8549,13.1354 M85.8549,13.1354 L85.8549,13.0681 M85.8549,13.0681 L85.8549,13.0007 M85.8549,13.0007 L85.8549,12.9333 M85.8549,12.9333 L85.8549,12.866 M85.8549,12.866 L85.8549,12.7986 M85.8549,12.7986 L85.8549,12.6639 M85.8549,12.6639 L85.8549,12.5965 M85.8549,12.5965 L85.8549,12.4618 M85.8549,12.4618 L85.9222,12.3944 M85.9222,12.3944 L85.9222,12.3271 M85.9222,12.3271 L85.9222,12.1924 M85.9222,12.1924 L85.9222,12.125 M85.9222,12.125 L85.9222,12.0576 M85.9222,12.0576 L85.9222,11.9903 M85.9222,11.9903 L85.9222,11.8556 M85.9222,11.8556 L85.9222,11.7882 M85.9222,11.7882 L85.9896,11.7208 M85.9896,11.7208 L85.9896,11.6535 M85.9896,11.6535 L85.9896,11.5861 M85.9896,11.5861 L85.9896,11.5188 M85.9896,11.5188 L86.057,11.5188 M86.057,11.5188 L86.057,11.4514 M86.057,11.4514 L86.057,11.384 M86.057,11.384 L86.057,11.3167 M86.057,11.3167 L86.057,11.2493 M86.057,11.2493 L86.057,11.1819 M86.057,11.1819 L86.057,11.1146 M86.057,11.1146 L86.057,11.0472 M86.057,11.0472 L86.057,10.9799 M86.057,10.9799 L86.057,10.9125 M86.057,10.9125 L86.057,10.8451 M86.057,10.8451 L86.057,10.7778 M86.057,10.7778 L86.057,10.7104 M86.057,10.7104 L86.057,10.6431 M86.057,10.6431 L85.9896,10.5757 M85.9896,10.5757 L85.9896,10.5083 M85.9896,10.5083 L85.9222,10.441 M85.9222,10.441 L85.8549,10.3736 M85.8549,10.3736 L85.7875,10.3063 M85.7875,10.3063 L85.7202,10.2389 M85.7202,10.2389 L85.6528,10.1715 M85.6528,10.1715 L85.6528,10.1042 M85.6528,10.1042 L85.5854,10.1042 M85.5854,10.1042 L85.5854,10.0368 M85.5854,10.0368 L85.5854,9.96945 M85.5854,9.96945 L85.5181,9.96945 M85.5181,9.96945 L85.5181,9.90209 M85.5181,9.90209 L85.5181,9.83472 " style="stroke:#000000;stroke-width:0.18;"/>
        <!-- Linie -->
        <path d="M87.0878,30 L52.3607,30 " style="stroke:#000000;stroke-width:0.5;"/>
        <!-- Linie -->
        <path d="M85.8759,14 L56.8328,14 " style="stroke:#000000;stroke-width:0.5;"/>
        <!-- Linie -->
        <path d="M85.645,10 L52.3607,10 " style="stroke:#000000;stroke-width:0.5;"/>
        <!-- Linie -->
        <path d="M86.227,26 L56.8328,26 " style="stroke:#000000;stroke-width:0.5;"/>
        <!-- Linie -->
        <path d="M100,20 L99.68,20 M97.529,20 L97.511,20 M95.36,20 L91.04,20 M88.889,20 L88.871,20 M86.72,20 L82.4,20 M80.249,20 L80.231,20 M78.08,20 L73.76,20 M71.609,20 L71.591,20 M69.44,20 L65.12,20 M62.969,20 L62.951,20 M60.8,20 L56.48,20 M54.329,20 L54.311,20 M52.16,20 L47.84,20 M45.689,20 L45.671,20 M43.52,20 L39.2,20 M37.049,20 L37.031,20 M34.88,20 L30.56,20 M28.409,20 L28.391,20 M26.24,20 L21.92,20 M19.769,20 L19.751,20 M17.6,20 L13.28,20 M11.129,20 L11.111,20 M8.96,20 L4.64,20 M2.489,20 L2.471,20 M0.32,20 L0,20 " style="stroke:#ff0000;stroke-width:0.18;"/>
        <!-- Linie -->
        <path d="M30,50 L30,48.08 M30,45.929 L30,45.911 M30,43.76 L30,39.44 M30,37.289 L30,37.271 M30,35.12 L30,30.8 M30,28.649 L30,28.631 M30,26.48 L30,22.16 M30,20.009 L30,19.991 M30,17.84 L30,13.52 M30,11.369 L30,11.351 M30,9.2 L30,4.88 M30,2.729 L30,2.711 M30,0.56 L30,-3.76 M30,-5.911 L30,-5.929 M30,-8.08 L30,-10 " style="stroke:#ff0000;stroke-width:0.18;"/>
    </g>
</svg>
