<svg xmlns="http://www.w3.org/2000/svg" viewBox="0 0 512 512"><g transform="translate(0 464)"><g style="fill:none;stroke-linecap:round;stroke-linejoin:round"><g style="stroke:#f00;stroke-width:14.242"><path d="m97.96-8.723c10.649-17.18 19.03-36.17 24.632-56.66 26.17-95.78-16.783-194.13-98.56-241.99"/><path d="m470.89-150.06c-100.24 18.333-188.34 83.81-233.34 178.76"/><path d="m55.48-385.68l118.83 365.27"/><path d="m205.5-8.679l269.09-172.31"/></g><circle cx="40" cy="40" r="10" transform="matrix(15.22871 4.16295 4.16178-15.23302-505.85 205.47)" style="stroke:#000;stroke-width:.902"/></g><path d="m16.5 4.5a1 1 0 1 1 -2 0 1 1 0 1 1 2 0" transform="matrix(-32 0 0-32 819.12-241.78)" style="fill:#f00"/></g></svg>