<svg xmlns="http://www.w3.org/2000/svg" viewBox="0 0 512 512" xmlns:xlink="http://www.w3.org/1999/xlink"><defs><path id="0" d="m376 312h-304v-224h304v224z" style="stroke:#f00;stroke-width:19.758"/></defs><g style="stroke-width:19.758"><g transform="matrix(.4049 0 0 .4049 41.717 28.685)"><g style="fill:#fff6d5;stroke:#f00;stroke-width:19.758"><use xlink:href="#0"/><path transform="matrix(1.06667 0 0 1.06667-64.53-130.67)" d="m488 400a120 120 0 1 1 -240 0 120 120 0 1 1 240 0z" style="stroke:#f00;stroke-width:18.523"/></g><use xlink:href="#0" style="fill:none;stroke-linecap:square"/></g><g transform="matrix(.4049 0 0 .4049 256.5 139.33)"><g style="fill:#fff6d5;stroke:#f00;stroke-width:19.758"><use xlink:href="#0"/><path d="m488 400a120 120 0 1 1 -240 0 120 120 0 1 1 240 0z" transform="matrix(1.06667 0 0 1.06667-64.53-130.67)" id="1" style="stroke:#f00;stroke-width:18.523"/></g><use xlink:href="#0" style="fill:none;stroke-linecap:square"/></g><g transform="matrix(.4049 0 0 .4049 82.937 276.01)"><g style="fill:#fff6d5;stroke:#f00;stroke-width:19.758"><use xlink:href="#0"/><use xlink:href="#1"/></g><use xlink:href="#0" style="fill:none;stroke-linecap:square"/></g></g></svg>