<?xml version="1.0" encoding="UTF-8"?>
<!-- 2016-05-25 10:00:57 Generated by QCAD SVG Exporter -->
<svg width="76.5" height="94.27983466275299" viewBox="73.5 -150 76.5 94.27983466275299" version="1.1" xmlns="http://www.w3.org/2000/svg" style="stroke-linecap:round;stroke-linejoin:round;fill:none">
    <g transform="scale(1,-1)">
        <!-- Line -->
        <path d="M120,150 L86.23329207920791,82.46658415841583 " style="stroke:#000000;stroke-width:1;"/>
        <!-- Line -->
        <path d="M105,60 L150,60 " style="stroke:#000000;stroke-width:1;"/>
        <!-- Circle -->
        <path d="M142.81964357995037,88.44745222929936 A32.72728689205235,32.72728689205235 0 0,1 142.80947619539663,89.26317181761017 M142.75819652542043,90.45200081290469 A32.72728689205235,32.72728689205235 0 0,1 142.75696542448028,90.47196288639485 M142.66177718096458,91.65808395226556 A32.72728689205235,32.72728689205235 0 0,1 142.33900569182342,94.03573777428872 M142.11453950997907,95.20430908910612 A32.72728689205235,32.72728689205235 0 0,1 142.1104043422746,95.22387692944703 M141.84289674206045,96.38335253006721 A32.72728689205235,32.72728689205235 0 0,1 141.176117097625,98.68830893688933 M140.78328426736633,99.81153035409824 A32.72728689205235,32.72728689205235 0 0,1 140.77633382553222,99.83028378967316 M140.34225094149204,100.93821701617608 A32.72728689205235,32.72728689205235 0 0,1 139.34578060737587,103.12098269412006 M138.79301625503894,104.17473577496555 A32.72728689205235,32.72728689205235 0 0,1 138.78339978285132,104.19227212151256 M138.1920624855569,105.22487281172847 A32.72728689205235,32.72728689205235 0 0,1 136.8872982303368,107.23857819481799 M136.18647162138743,108.20023616353367 A32.72728689205235,32.72728689205235 0 0,1 136.17439560911788,108.21617887080745 M135.4385014238922,109.15127444493712 A32.72728689205235,32.72728689205235 0 0,1 133.85345987572092,110.9526801244426 M133.0196195512453,111.8015937230404 A32.72728689205235,32.72728689205235 0 0,1 133.0053433017863,111.81560046030982 M132.14069376033495,112.63311202296435 A32.72728689205235,32.72728689205235 0 0,1 130.3094098182252,114.18353720818122 M129.36046046423553,114.90147808887296 A32.72728689205235,32.72728689205235 0 0,1 129.3442905252035,114.91324809563812 M128.36945186628452,115.59562158111574 A32.72728689205235,32.72728689205235 0 0,1 126.33124788371349,116.8617746749458 M125.28756587171146,117.43332680942635 A32.72728689205235,32.72728689205235 0 0,1 125.26984945308502,117.4426073535162 M124.20575395784158,117.97519045652311 A32.72728689205235,32.72728689205235 0 0,1 122.00439539117485,118.92988391127538 M120.88839124530153,119.34277461230825 A32.72728689205235,32.72728689205235 0 0,1 120.86950876393439,119.34936641668726 M119.73900528624183,119.72072321483543 A32.72728689205235,32.72728689205235 0 0,1 117.4217609383658,120.34345731846258 M116.25739812408764,120.5888207658873 A32.72728689205235,32.72728689205235 0 0,1 116.23775503518522,120.59258228764352 M115.06511837827574,120.79473879997501 A32.72728689205235,32.72728689205235 0 0,1 112.68174541641334,121.07214185736079 M111.49402578358335,121.14470946994422 A32.72728689205235,32.72728689205235 0 0,1 111.47404387454156,121.14555993957774 M110.28445354884667,121.17417534834559 A32.72728689205235,32.72728689205235 0 0,1 107.88612909082181,121.10029080582439 M106.70055601996991,120.9985043711848 A32.72728689205235,32.72728689205235 0 0,1 106.68066435352037,120.99642552693581 M105.4996639081339,120.85088538607155 A32.72728689205235,32.72728689205235 0 0,1 103.13788611866204,120.42729973388155 M101.97991689813827,120.15334486729687 A32.72728689205235,32.72728689205235 0 0,1 101.9605425992731,120.14838134727228 M100.81349113657255,119.83181077611574 A32.72728689205235,32.72728689205235 0 0,1 98.53897342985273,119.06761948239287 M97.43347262268752,118.62737869604645 A32.72728689205235,32.72728689205235 0 0,1 97.41503170719261,118.61963707972549 M96.32655935800352,118.13883365871371 A32.72728689205235,32.72728689205235 0 0,1 94.18814145091264,117.05044586651056 M93.15884698900672,116.4533722568981 A32.72728689205235,32.72728689205235 0 0,1 93.14173543053795,116.44301877659815 M92.13521448218334,115.80830658581466 A32.72728689205235,32.72728689205235 0 0,1 90.17881368054769,114.41909276679931 M89.24782715051606,113.67800703255158 A32.72728689205235,32.72728689205235 0 0,1 89.23241237803146,113.66526400399479 M88.3294554115007,112.89027193874546 A32.72728689205235,32.72728689205235 0 0,1 86.59708064801285,111.23006206935719 M85.78439271355033,110.36087721802527 A32.72728689205235,32.72728689205235 0 0,1 85.77100572166981,110.34601826665103 M84.99100153418665,109.44738739019807 A32.72728689205235,32.72728689205235 0 0,1 83.51985132909702,107.55183042570226 M82.84291248026187,106.57321008075557 A32.72728689205235,32.72728689205235 0 0,1 82.8318407219656,106.55655426628194 M82.19153799988538,105.55358048362233 A32.72728689205235,32.72728689205235 0 0,1 81.01320171356154,103.46337888379605 M80.48654756008867,102.39633652885618 A32.72728689205235,32.72728689205235 0 0,1 80.47802877436588,102.37824149425106 M79.99117645601054,101.29246121964765 A32.72728689205235,32.72728689205235 0 0,1 79.13095598451591,99.05249696278877 M78.76589513907149,97.91994472835133 A32.72728689205235,32.72728689205235 0 0,1 78.7601122460558,97.90079902032261 M78.43716429681724,96.75552673536656 A32.72728689205235,32.72728689205235 0 0,1 77.91353077544144,94.4138975873426 M77.71790202876417,93.24015426869099 A32.72728689205235,32.72728689205235 0 0,1 77.71497920197014,93.22036899459422 M77.56287014091595,92.04019662661105 A32.72728689205235,32.72728689205235 0 0,1 77.38706732162262,89.64718335871795 M77.36507132362276,88.45745222914378 A32.72728689205235,32.72728689205235 0 0,1 77.36507132362276,88.43745222945499 M77.38706732162262,87.24772109988083 A32.72728689205235,32.72728689205235 0 0,1 77.56287014091593,84.85470783198774 M77.71497920197012,83.67453546400455 A32.72728689205235,32.72728689205235 0 0,1 77.71790202876414,83.65475018990782 M77.91353077544144,82.48100687125618 A32.72728689205235,32.72728689205235 0 0,1 78.43716429681722,80.13937772323223 M78.76011224605578,78.99410543827616 A32.72728689205235,32.72728689205235 0 0,1 78.76589513907147,78.97495973024748 M79.13095598451588,77.84240749581002 A32.72728689205235,32.72728689205235 0 0,1 79.9911764560105,75.60244323895114 M80.47802877436585,74.51666296434772 A32.72728689205235,32.72728689205235 0 0,1 80.48654756008864,74.49856792974259 M81.0132017135615,73.43152557480273 A32.72728689205235,32.72728689205235 0 0,1 82.19153799988534,71.34132397497643 M82.83184072196556,70.33835019231685 A32.72728689205235,32.72728689205235 0 0,1 82.84291248026183,70.3216943778432 M83.51985132909698,69.34307403289651 A32.72728689205235,32.72728689205235 0 0,1 84.99100153418661,67.4475170684007 M85.77100572166975,66.54888619194774 A32.72728689205235,32.72728689205235 0 0,1 85.78439271355029,66.5340272405735 M86.59708064801279,65.66484238924158 A32.72728689205235,32.72728689205235 0 0,1 88.32945541150066,64.00463251985332 M89.23241237803138,63.22964045460398 A32.72728689205235,32.72728689205235 0 0,1 89.24782715051603,63.216897426047176 M90.17881368054763,62.47581169179944 A32.72728689205235,32.72728689205235 0 0,1 92.1352144821833,61.08659787278408 M93.14173543053789,60.4518856820006 A32.72728689205235,32.72728689205235 0 0,1 93.15884698900669,60.44153220170064 M94.1881414509126,59.84445859208819 A32.72728689205235,32.72728689205235 0 0,1 96.3265593580035,58.75607079988502 M97.41503170719257,58.27526737887324 A32.72728689205235,32.72728689205235 0 0,1 97.43347262268747,58.26752576255228 M98.5389734298527,57.827284976205846 A32.72728689205235,32.72728689205235 0 0,1 100.81349113657254,57.06309368248297 M101.96054259927307,56.746523111326454 A32.72728689205235,32.72728689205235 0 0,1 101.97991689813824,56.74155959130186 M103.13788611866201,56.46760472471716 A32.72728689205235,32.72728689205235 0 0,1 105.49966390813387,56.04401907252716 M106.68066435352036,55.898478931662915 A32.72728689205235,32.72728689205235 0 0,1 106.7005560199699,55.89640008741393 M107.88612909082181,55.79461365277433 A32.72728689205235,32.72728689205235 0 0,1 110.28445354884666,55.720729110253124 M111.47404387454156,55.74934451902098 A32.72728689205235,32.72728689205235 0 0,1 111.49402578358335,55.750194988654506 M112.68174541641335,55.822762601237926 A32.72728689205235,32.72728689205235 0 0,1 115.06511837827576,56.100165658623716 M116.23775503518523,56.3023221709552 A32.72728689205235,32.72728689205235 0 0,1 116.25739812408767,56.30608369271141 M117.42176093836582,56.55144714013615 A32.72728689205235,32.72728689205235 0 0,1 119.73900528624185,57.174181243763286 M120.86950876393443,57.54553804191146 A32.72728689205235,32.72728689205235 0 0,1 120.88839124530158,57.552129846290484 M122.0043953911749,57.96502054732335 A32.72728689205235,32.72728689205235 0 0,1 124.20575395784161,58.91971400207562 M125.26984945308506,59.45229710508255 A32.72728689205235,32.72728689205235 0 0,1 125.28756587171152,59.46157764917238 M126.33124788371352,60.033129783652925 A32.72728689205235,32.72728689205235 0 0,1 128.36945186628455,61.29928287748301 M129.34429052520355,61.98165636296064 A32.72728689205235,32.72728689205235 0 0,1 129.3604604642356,61.993426369725796 M130.30940981822525,62.711367250417524 A32.72728689205235,32.72728689205235 0 0,1 132.140693760335,64.2617924356344 M133.00534330178633,65.07930399828892 A32.72728689205235,32.72728689205235 0 0,1 133.01961955124537,65.09331073555839 M133.85345987572097,65.94222433415618 A32.72728689205235,32.72728689205235 0 0,1 135.43850142389226,67.74363001366167 M136.17439560911794,68.6787255877913 A32.72728689205235,32.72728689205235 0 0,1 136.18647162138748,68.69466829506511 M136.88729823033685,69.65632626378078 A32.72728689205235,32.72728689205235 0 0,1 138.19206248555696,71.67003164687033 M138.78339978285138,72.70263233708623 A32.72728689205235,32.72728689205235 0 0,1 138.793016255039,72.72016868363323 M139.3457806073759,73.77392176447873 A32.72728689205235,32.72728689205235 0 0,1 140.34225094149207,75.9566874424227 M140.77633382553225,77.06462066892564 A32.72728689205235,32.72728689205235 0 0,1 140.78328426736635,77.08337410450056 M141.17611709762502,78.20659552170949 A32.72728689205235,32.72728689205235 0 0,1 141.84289674206047,80.5115519285316 M142.11040434227462,81.67102752915179 A32.72728689205235,32.72728689205235 0 0,1 142.1145395099791,81.6905953694927 M142.33900569182344,82.85916668431011 A32.72728689205235,32.72728689205235 0 0,1 142.66177718096458,85.23682050633327 M142.7569654244803,86.42294157220398 A32.72728689205235,32.72728689205235 0 0,1 142.75819652542043,86.44290364569414 M142.80947619539666,87.63173264098867 A32.72728689205235,32.72728689205235 0 0,1 142.81964357995037,88.44745222929936 " style="stroke:#0000ff;stroke-width:0.2;"/>
        <!-- Line -->
        <path d="M105,60 L103.19999999999999,60 M102.00999999999999,60 L101.99,60 M100.8,60 L98.39999999999999,60 M97.21,60 L97.19,60 M96,60 L93.6,60 M92.41,60 L92.39,60 M91.2,60 L88.8,60 M87.61,60 L87.59,60 M86.4,60 L84,60 M82.81,60 L82.79,60 M81.60000000000001,60 L79.2,60 M78.01,60 L77.99000000000001,60 M76.80000000000001,60 L75,60 " style="stroke:#0000ff;stroke-width:0.2;"/>
        <!-- Line -->
        <path d="M75,60 L75.78673920820441,61.573478416408825 M76.31892338684936,62.637846773698726 L76.32786765875936,62.655735317518726 M76.86005183740431,63.72010367480863 L77.93336446660422,65.86672893320842 M78.46554864524917,66.93109729049831 L78.47449291715917,66.94898583431831 M79.00667709580412,68.0133541916082 L80.07998972500403,70.159979450008 M80.61217390364898,71.22434780729789 L80.62111817555898,71.24223635111788 M81.15330235420393,72.30660470840778 L82.22661498340383,74.45322996680757 M82.75879916204879,75.51759832409746 L82.76774343395878,75.53548686791746 M83.29992761260374,76.59985522520735 L84.37324024180364,78.74648048360714 M84.9054244204486,79.81084884089704 L84.9143686923586,79.82873738471703 M85.44655287100355,80.89310574200692 L86.23329207920791,82.46658415841583 " style="stroke:#0000ff;stroke-width:0.2;"/>
        <!-- Arc -->
        <path d="M142.51312361329877,83.97876346372837 A32.72728689205234,32.72728689205234 0 0,1 120.23395140995684,119.56373998681005 " style="stroke:#000000;stroke-width:1;"/>
        <!-- Circle -->
        <circle cx="75" cy="60" r="1.5" style="stroke:#ff0000;stroke-width:1;"/>
        <!-- Circle -->
        <circle cx="93.91157274593675" cy="60" r="1.5" style="stroke:#ff0000;stroke-width:1;"/>
        <!-- Circle -->
        <circle cx="126.2731406298593" cy="60" r="1.5" style="stroke:#ff0000;stroke-width:1;"/>
        <!-- Circle -->
        <circle cx="105.4197275024124" cy="120.8394550048248" r="1.5" style="stroke:#ff0000;stroke-width:1;"/>
        <!-- Circle -->
        <circle cx="81.37517695618628" cy="72.75035391237256" r="1.5" style="stroke:#ff0000;stroke-width:1;"/>
    </g>
</svg>
