<?xml version="1.0" encoding="UTF-8"?>
<!-- 2011-11-22 21:00:55 Generated by QCAD SVG Exporter -->
<svg width="77.5" height="95.2798" viewBox="73 -150.5 77.5 95.2798" version="1.1" xmlns="http://www.w3.org/2000/svg" style="stroke-linecap:round;stroke-linejoin:round;fill:none">
    <g transform="scale(1,-1)">
        <!-- Line -->
        <path d="M120,150 L86.2333,82.4666 " style="stroke:#000000;stroke-width:1;"/>
        <!-- Line -->
        <path d="M105,60 L150,60 " style="stroke:#000000;stroke-width:1;"/>
        <!-- Circle -->
        <path d="M142.82,88.4475 A32.7273,32.7273 0 0,1 142.809,89.2632 M142.758,90.452 A32.7273,32.7273 0 0,1 142.757,90.472 M142.662,91.6581 A32.7273,32.7273 0 0,1 142.339,94.0357 M142.115,95.2043 A32.7273,32.7273 0 0,1 142.11,95.2239 M141.843,96.3834 A32.7273,32.7273 0 0,1 141.176,98.6883 M140.783,99.8115 A32.7273,32.7273 0 0,1 140.776,99.8303 M140.342,100.938 A32.7273,32.7273 0 0,1 139.346,103.121 M138.793,104.175 A32.7273,32.7273 0 0,1 138.783,104.192 M138.192,105.225 A32.7273,32.7273 0 0,1 136.887,107.239 M136.186,108.2 A32.7273,32.7273 0 0,1 136.174,108.216 M135.439,109.151 A32.7273,32.7273 0 0,1 133.853,110.953 M133.02,111.802 A32.7273,32.7273 0 0,1 133.005,111.816 M132.141,112.633 A32.7273,32.7273 0 0,1 130.309,114.184 M129.36,114.901 A32.7273,32.7273 0 0,1 129.344,114.913 M128.369,115.596 A32.7273,32.7273 0 0,1 126.331,116.862 M125.288,117.433 A32.7273,32.7273 0 0,1 125.27,117.443 M124.206,117.975 A32.7273,32.7273 0 0,1 122.004,118.93 M120.888,119.343 A32.7273,32.7273 0 0,1 120.87,119.349 M119.739,119.721 A32.7273,32.7273 0 0,1 117.422,120.343 M116.257,120.589 A32.7273,32.7273 0 0,1 116.238,120.593 M115.065,120.795 A32.7273,32.7273 0 0,1 112.682,121.072 M111.494,121.145 A32.7273,32.7273 0 0,1 111.474,121.146 M110.284,121.174 A32.7273,32.7273 0 0,1 107.886,121.1 M106.701,120.999 A32.7273,32.7273 0 0,1 106.681,120.996 M105.5,120.851 A32.7273,32.7273 0 0,1 103.138,120.427 M101.98,120.153 A32.7273,32.7273 0 0,1 101.961,120.148 M100.813,119.832 A32.7273,32.7273 0 0,1 98.539,119.068 M97.4335,118.627 A32.7273,32.7273 0 0,1 97.415,118.62 M96.3266,118.139 A32.7273,32.7273 0 0,1 94.1881,117.05 M93.1588,116.453 A32.7273,32.7273 0 0,1 93.1417,116.443 M92.1352,115.808 A32.7273,32.7273 0 0,1 90.1788,114.419 M89.2478,113.678 A32.7273,32.7273 0 0,1 89.2324,113.665 M88.3295,112.89 A32.7273,32.7273 0 0,1 86.5971,111.23 M85.7844,110.361 A32.7273,32.7273 0 0,1 85.771,110.346 M84.991,109.447 A32.7273,32.7273 0 0,1 83.5199,107.552 M82.8429,106.573 A32.7273,32.7273 0 0,1 82.8318,106.557 M82.1915,105.554 A32.7273,32.7273 0 0,1 81.0132,103.463 M80.4865,102.396 A32.7273,32.7273 0 0,1 80.478,102.378 M79.9912,101.292 A32.7273,32.7273 0 0,1 79.131,99.0525 M78.7659,97.9199 A32.7273,32.7273 0 0,1 78.7601,97.9008 M78.4372,96.7555 A32.7273,32.7273 0 0,1 77.9135,94.4139 M77.7179,93.2402 A32.7273,32.7273 0 0,1 77.715,93.2204 M77.5629,92.0402 A32.7273,32.7273 0 0,1 77.3871,89.6472 M77.3651,88.4575 A32.7273,32.7273 0 0,1 77.3651,88.4375 M77.3871,87.2477 A32.7273,32.7273 0 0,1 77.5629,84.8547 M77.715,83.6745 A32.7273,32.7273 0 0,1 77.7179,83.6548 M77.9135,82.481 A32.7273,32.7273 0 0,1 78.4372,80.1394 M78.7601,78.9941 A32.7273,32.7273 0 0,1 78.7659,78.975 M79.131,77.8424 A32.7273,32.7273 0 0,1 79.9912,75.6024 M80.478,74.5167 A32.7273,32.7273 0 0,1 80.4865,74.4986 M81.0132,73.4315 A32.7273,32.7273 0 0,1 82.1915,71.3413 M82.8318,70.3384 A32.7273,32.7273 0 0,1 82.8429,70.3217 M83.5199,69.3431 A32.7273,32.7273 0 0,1 84.991,67.4475 M85.771,66.5489 A32.7273,32.7273 0 0,1 85.7844,66.534 M86.5971,65.6648 A32.7273,32.7273 0 0,1 88.3295,64.0046 M89.2324,63.2296 A32.7273,32.7273 0 0,1 89.2478,63.2169 M90.1788,62.4758 A32.7273,32.7273 0 0,1 92.1352,61.0866 M93.1417,60.4519 A32.7273,32.7273 0 0,1 93.1588,60.4415 M94.1881,59.8445 A32.7273,32.7273 0 0,1 96.3266,58.7561 M97.415,58.2753 A32.7273,32.7273 0 0,1 97.4335,58.2675 M98.539,57.8273 A32.7273,32.7273 0 0,1 100.813,57.0631 M101.961,56.7465 A32.7273,32.7273 0 0,1 101.98,56.7416 M103.138,56.4676 A32.7273,32.7273 0 0,1 105.5,56.044 M106.681,55.8985 A32.7273,32.7273 0 0,1 106.701,55.8964 M107.886,55.7946 A32.7273,32.7273 0 0,1 110.284,55.7207 M111.474,55.7493 A32.7273,32.7273 0 0,1 111.494,55.7502 M112.682,55.8228 A32.7273,32.7273 0 0,1 115.065,56.1002 M116.238,56.3023 A32.7273,32.7273 0 0,1 116.257,56.3061 M117.422,56.5514 A32.7273,32.7273 0 0,1 119.739,57.1742 M120.87,57.5455 A32.7273,32.7273 0 0,1 120.888,57.5521 M122.004,57.965 A32.7273,32.7273 0 0,1 124.206,58.9197 M125.27,59.4523 A32.7273,32.7273 0 0,1 125.288,59.4616 M126.331,60.0331 A32.7273,32.7273 0 0,1 128.369,61.2993 M129.344,61.9817 A32.7273,32.7273 0 0,1 129.36,61.9934 M130.309,62.7114 A32.7273,32.7273 0 0,1 132.141,64.2618 M133.005,65.0793 A32.7273,32.7273 0 0,1 133.02,65.0933 M133.853,65.9422 A32.7273,32.7273 0 0,1 135.439,67.7436 M136.174,68.6787 A32.7273,32.7273 0 0,1 136.186,68.6947 M136.887,69.6563 A32.7273,32.7273 0 0,1 138.192,71.67 M138.783,72.7026 A32.7273,32.7273 0 0,1 138.793,72.7202 M139.346,73.7739 A32.7273,32.7273 0 0,1 140.342,75.9567 M140.776,77.0646 A32.7273,32.7273 0 0,1 140.783,77.0834 M141.176,78.2066 A32.7273,32.7273 0 0,1 141.843,80.5116 M142.11,81.671 A32.7273,32.7273 0 0,1 142.115,81.6906 M142.339,82.8592 A32.7273,32.7273 0 0,1 142.662,85.2368 M142.757,86.4229 A32.7273,32.7273 0 0,1 142.758,86.4429 M142.809,87.6317 A32.7273,32.7273 0 0,1 142.82,88.4475 " style="stroke:#0000ff;stroke-width:0.2;"/>
        <!-- Line -->
        <path d="M105,60 L103.2,60 M102.01,60 L101.99,60 M100.8,60 L98.4,60 M97.21,60 L97.19,60 M96,60 L93.6,60 M92.41,60 L92.39,60 M91.2,60 L88.8,60 M87.61,60 L87.59,60 M86.4,60 L84,60 M82.81,60 L82.79,60 M81.6,60 L79.2,60 M78.01,60 L77.99,60 M76.8,60 L75,60 " style="stroke:#0000ff;stroke-width:0.2;"/>
        <!-- Line -->
        <path d="M75,60 L75.7867,61.5735 M76.3189,62.6378 L76.3279,62.6557 M76.8601,63.7201 L77.9334,65.8667 M78.4655,66.9311 L78.4745,66.949 M79.0067,68.0134 L80.08,70.16 M80.6122,71.2243 L80.6211,71.2422 M81.1533,72.3066 L82.2266,74.4532 M82.7588,75.5176 L82.7677,75.5355 M83.2999,76.5999 L84.3732,78.7465 M84.9054,79.8108 L84.9144,79.8287 M85.4466,80.8931 L86.2333,82.4666 " style="stroke:#0000ff;stroke-width:0.2;"/>
        <!-- Arc -->
        <path d="M142.513,83.9788 A32.7273,32.7273 0 0,1 120.234,119.564 " style="stroke:#000000;stroke-width:1;"/>
        <!-- Circle -->
        <circle cx="75" cy="60" r="1.5" style="stroke:#ff0000;stroke-width:1;"/>
        <!-- Circle -->
        <circle cx="93.91157274593675" cy="60" r="1.5" style="stroke:#ff0000;stroke-width:1;"/>
        <!-- Circle -->
        <circle cx="126.2731406298593" cy="60" r="1.5" style="stroke:#ff0000;stroke-width:1;"/>
        <!-- Circle -->
        <circle cx="105.4197275024124" cy="120.8394550048248" r="1.5" style="stroke:#ff0000;stroke-width:1;"/>
        <!-- Circle -->
        <circle cx="81.37517695618628" cy="72.75035391237256" r="1.5" style="stroke:#ff0000;stroke-width:1;"/>
    </g>
</svg>
