<svg xmlns="http://www.w3.org/2000/svg" viewBox="73 -150.5 77.5 95.2798" style="fill:none;stroke-linecap:round;stroke-linejoin:round"><g transform="scale(1-1)"><g style="stroke:#000"><path d="m120 150l-33.767-67.53"/><path d="m105 60h45"/></g><g style="stroke:#00f;stroke-width:.2"><path d="m142.82,88.4475a32.7273,32.7273 0 0,1 -.011,.8157m-.051,1.1888a32.7273,32.7273 0 0,1 -.001,.02m-.095,1.1861a32.7273,32.7273 0 0,1 -.323,2.3776m-.224,1.1686a32.7273,32.7273 0 0,1 -.005,.0196m-.267,1.1595a32.7273,32.7273 0 0,1 -.667,2.3049m-.393,1.1232a32.7273,32.7273 0 0,1 -.007,.0188m-.434,1.1077a32.7273,32.7273 0 0,1 -.996,2.183m-.553,1.054a32.7273,32.7273 0 0,1 -.01,.017m-.591,1.033a32.7273,32.7273 0 0,1 -1.305,2.014m-.701,.961a32.7273,32.7273 0 0,1 -.012,.016m-.735,.935a32.7273,32.7273 0 0,1 -1.586,1.802m-.833,.849a32.7273,32.7273 0 0,1 -.015,.014m-.864,.817a32.7273,32.7273 0 0,1 -1.832,1.551m-.949,.717a32.7273,32.7273 0 0,1 -.016,.012m-.975,.683a32.7273,32.7273 0 0,1 -2.038,1.266m-1.043,.571a32.7273,32.7273 0 0,1 -.018,.01m-1.064,.532a32.7273,32.7273 0 0,1 -2.202,.955m-1.116,.413a32.7273,32.7273 0 0,1 -.018,.006m-1.131,.372a32.7273,32.7273 0 0,1 -2.317,.622m-1.165,.246a32.7273,32.7273 0 0,1 -.019,.004m-1.173,.202a32.7273,32.7273 0 0,1 -2.383,.277m-1.188,.073a32.7273,32.7273 0 0,1 -.02,.001m-1.19,.028a32.7273,32.7273 0 0,1 -2.398-.074m-1.185-.101a32.7273,32.7273 0 0,1 -.02-.003m-1.181-.145a32.7273,32.7273 0 0,1 -2.362-.424m-1.158-.274a32.7273,32.7273 0 0,1 -.019-.005m-1.148-.316a32.7273,32.7273 0 0,1 -2.274-.764m-1.1055-.441a32.7273,32.7273 0 0,1 -.0185-.007m-1.0884-.481a32.7273,32.7273 0 0,1 -2.1385-1.089m-1.0293-.597a32.7273,32.7273 0 0,1 -.0171-.01m-1.0065-.635a32.7273,32.7273 0 0,1 -1.9564-1.389m-.931-.741a32.7273,32.7273 0 0,1 -.0154-.013m-.9029-.775a32.7273,32.7273 0 0,1 -1.7324-1.66m-.8127-.869a32.7273,32.7273 0 0,1 -.0134-.015m-.78-.899a32.7273,32.7273 0 0,1 -1.4711-1.895m-.677-.979a32.7273,32.7273 0 0,1 -.0111-.016m-.6403-1.003a32.7273,32.7273 0 0,1 -1.1783-2.091m-.5267-1.067a32.7273,32.7273 0 0,1 -.0085-.018m-.4868-1.086a32.7273,32.7273 0 0,1 -.8602-2.2395m-.3651-1.1326a32.7273,32.7273 0 0,1 -.0058-.0191m-.3229-1.1453a32.7273,32.7273 0 0,1 -.5237-2.3416m-.1956-1.1737a32.7273,32.7273 0 0,1 -.0029-.0198m-.1521-1.1802a32.7273,32.7273 0 0,1 -.1758-2.393m-.022-1.1897a32.7273,32.7273 0 0,1 0-.02m.022-1.1898a32.7273,32.7273 0 0,1 .1758-2.393m.1521-1.1802a32.7273,32.7273 0 0,1 .0029-.0197m.1956-1.1738a32.7273,32.7273 0 0,1 .5237-2.3416m.3229-1.1453a32.7273,32.7273 0 0,1 .0058-.0191m.3651-1.1326a32.7273,32.7273 0 0,1 .8602-2.24m.4868-1.0857a32.7273,32.7273 0 0,1 .0085-.0181m.5267-1.0671a32.7273,32.7273 0 0,1 1.1783-2.0902m.6403-1.0029a32.7273,32.7273 0 0,1 .0111-.0167m.677-.9786a32.7273,32.7273 0 0,1 1.4711-1.8956m.78-.8986a32.7273,32.7273 0 0,1 .0134-.0149m.8127-.8692a32.7273,32.7273 0 0,1 1.7324-1.6602m.9029-.775a32.7273,32.7273 0 0,1 .0154-.0127m.931-.7411a32.7273,32.7273 0 0,1 1.9564-1.3892m1.0065-.6347a32.7273,32.7273 0 0,1 .0171-.0104m1.0293-.597a32.7273,32.7273 0 0,1 2.1385-1.0884m1.0884-.4808a32.7273,32.7273 0 0,1 .0185-.0078m1.1055-.4402a32.7273,32.7273 0 0,1 2.274-.7642m1.148-.3166a32.7273,32.7273 0 0,1 .019-.0049m1.158-.274a32.7273,32.7273 0 0,1 2.362-.4236m1.181-.1455a32.7273,32.7273 0 0,1 .02-.0021m1.185-.1018a32.7273,32.7273 0 0,1 2.398-.0739m1.19,.0286a32.7273,32.7273 0 0,1 .02,.0009m1.188,.0726a32.7273,32.7273 0 0,1 2.383,.2774m1.173,.2021a32.7273,32.7273 0 0,1 .019,.0038m1.165,.2453a32.7273,32.7273 0 0,1 2.317,.6228m1.131,.3713a32.7273,32.7273 0 0,1 .018,.0066m1.116,.4129a32.7273,32.7273 0 0,1 2.202,.9547m1.064,.5326a32.7273,32.7273 0 0,1 .018,.0093m1.043,.5715a32.7273,32.7273 0 0,1 2.038,1.2662m.975,.6824a32.7273,32.7273 0 0,1 .016,.0117m.949,.718a32.7273,32.7273 0 0,1 1.832,1.5504m.864,.8175a32.7273,32.7273 0 0,1 .015,.014m.833,.8489a32.7273,32.7273 0 0,1 1.586,1.8014m.735,.9351a32.7273,32.7273 0 0,1 .012,.016m.701,.9616a32.7273,32.7273 0 0,1 1.305,2.0137m.591,1.0326a32.7273,32.7273 0 0,1 .01,.0176m.553,1.0537a32.7273,32.7273 0 0,1 .996,2.1828m.434,1.1079a32.7273,32.7273 0 0,1 .007,.0188m.393,1.1232a32.7273,32.7273 0 0,1 .667,2.305m.267,1.1594a32.7273,32.7273 0 0,1 .005,.0196m.224,1.1686a32.7273,32.7273 0 0,1 .323,2.3776m.095,1.1861a32.7273,32.7273 0 0,1 .001,.02m.051,1.1888a32.7273,32.7273 0 0,1 .011,.8158"/><path d="m105 60h-1.8m-1.19 0h-.02m-1.19 0h-2.4m-1.19 0h-.02m-1.19 0h-2.4m-1.19 0h-.02m-1.19 0h-2.4m-1.19 0h-.02m-1.19 0h-2.4m-1.19 0h-.02m-1.19 0h-2.4m-1.19 0h-.02m-1.19 0h-1.8"/><path d="m75 60l.787 1.574m.532 1.064l.009.018m.532 1.064l1.073 2.147m.532 1.064l.009.018m.532 1.064l1.073 2.147m.532 1.064l.009.018m.532 1.064l1.073 2.147m.532 1.064l.009.018m.532 1.064l1.073 2.147m.532 1.064l.009.018m.532 1.064l.787 1.573"/></g><path d="M142.513 83.9788A32.7273 32.7273 0 0 1 120.234 119.564" style="stroke:#000"/><g style="stroke:#f00"><circle cx="75" cy="60" r="1.5"/><circle cx="93.91" cy="60" r="1.5"/><circle cx="126.27" cy="60" r="1.5"/><circle cx="105.42" cy="120.84" r="1.5"/><circle cx="81.38" cy="72.75" r="1.5"/></g></g></svg>