<svg xmlns="http://www.w3.org/2000/svg" viewBox="0 0 512 512">
<defs/>
<path fill="#f00" stroke="#000" stroke-linecap="square" color="#000" stroke-width="14.311" d="m232.0625,72c-.0324,0-.0625,.0171-.0625,.0312v143.9688h-143.9688c-.0141,0-.0312,.0301-.0312,.0625v63.875c0,.0324 .0171,.0625 .0312,.0625h143.9688v143.9688c0,.0141 .0301,.0312 .0625,.0312h63.875c.0324,0 .0625-.0171 .0625-.0312v-143.9688h143.9688c.0141,0 .0312-.0301 .0312-.0625v-63.875c0-.0324-.0171-.0625-.0312-.0625h-143.9688v-143.9688c0-.0141-.0301-.0312-.0625-.0312h-63.875z"/>
</svg>
