<?xml version="1.0" encoding="UTF-8" standalone="no"?>
<svg
   xmlns:dc="http://purl.org/dc/elements/1.1/"
   xmlns:cc="http://creativecommons.org/ns#"
   xmlns:rdf="http://www.w3.org/1999/02/22-rdf-syntax-ns#"
   xmlns:svg="http://www.w3.org/2000/svg"
   xmlns="http://www.w3.org/2000/svg"
   xmlns:sodipodi="http://sodipodi.sourceforge.net/DTD/sodipodi-0.dtd"
   xmlns:inkscape="http://www.inkscape.org/namespaces/inkscape"
   width="512"
   height="512"
   id="svg3153"
   version="1.1"
   inkscape:version="0.48.2 r9819"
   sodipodi:docname="PropertyEditor.svg">
  <metadata
     id="metadata3207">
    <rdf:RDF>
      <cc:Work
         rdf:about="">
        <dc:format>image/svg+xml</dc:format>
        <dc:type
           rdf:resource="http://purl.org/dc/dcmitype/StillImage" />
      </cc:Work>
    </rdf:RDF>
  </metadata>
  <sodipodi:namedview
     pagecolor="#ffffff"
     bordercolor="#666666"
     borderopacity="1"
     objecttolerance="10"
     gridtolerance="10"
     guidetolerance="10"
     inkscape:pageopacity="0"
     inkscape:pageshadow="2"
     inkscape:window-width="1429"
     inkscape:window-height="954"
     id="namedview3205"
     showgrid="true"
     inkscape:zoom="1.2519531"
     inkscape:cx="202.48362"
     inkscape:cy="257.5975"
     inkscape:window-x="862"
     inkscape:window-y="166"
     inkscape:window-maximized="0"
     inkscape:current-layer="svg3153">
    <inkscape:grid
       type="xygrid"
       id="grid3236"
       empspacing="5"
       visible="true"
       enabled="true"
       snapvisiblegridlinesonly="true"
       spacingx="16px"
       spacingy="16px" />
  </sodipodi:namedview>
  <defs
     id="defs3155">
    <clipPath
       clipPathUnits="userSpaceOnUse"
       id="clipPath3157">
      <path
         fill="#0f0"
         stroke="#0f0"
         color="#000"
         stroke-width="2.033"
         d="m141.1284,537.5701c-33.6977-14.7314-74.1905-1.9343-90.4551,28.587-16.2646,30.5213-2.1355,67.1971 31.5621,81.9285 33.6977,14.7314 74.1905,1.9343 90.4551-28.587 16.2646-30.5213 2.1355-67.1971-31.5621-81.9285zm-8.9572,16.8087c23.4461,10.2498 33.3001,35.7639 21.9836,56.9999-11.3165,21.236-39.516,30.148-62.962,19.8982-23.4461-10.2498-33.2856-35.7911-21.9691-57.0271 11.3165-21.236 39.5015-30.1208 62.9476-19.871zm8.9572-16.8087c-33.6977-14.7314-74.1905-1.9343-90.4551,28.587-16.2646,30.5213-2.1355,67.1971 31.5621,81.9285 33.6977,14.7314 74.1905,1.9343 90.4551-28.587 16.2646-30.5213 2.1355-67.1971-31.5621-81.9285zm-8.9645,16.8223c23.4461,10.2498 33.3001,35.7639 21.9836,56.9999-11.3165,21.236-39.516,30.1481-62.9621,19.8983-23.4461-10.2498-33.2856-35.7912-21.9691-57.0272 11.3165-21.236 39.5015-30.1208 62.9476-19.871z"
         id="path3159" />
    </clipPath>
    <clipPath
       clipPathUnits="userSpaceOnUse"
       id="clipPath3161">
      <path
         fill="none"
         stroke="#0f0"
         color="#000"
         stroke-width="2.399"
         d="m-1232.6874,355.1505c29.2402,0 52.96,23.6823 52.96,52.9226 0,29.2402-23.7198,52.9599-52.96,52.9599-29.2403,0-52.96-23.7197-52.96-52.9599 0-29.2403 23.7197-52.9226 52.96-52.9226z"
         id="path3163" />
    </clipPath>
    <clipPath
       clipPathUnits="userSpaceOnUse"
       id="clipPath3165">
      <path
         fill="#0f0"
         stroke="#0f0"
         color="#000"
         stroke-width="2.033"
         d="m141.1284,537.5701c-33.6977-14.7314-74.1905-1.9343-90.4551,28.587-16.2646,30.5213-2.1355,67.1971 31.5621,81.9285 33.6977,14.7314 74.1905,1.9343 90.4551-28.587 16.2646-30.5213 2.1355-67.1971-31.5621-81.9285zm-8.9572,16.8087c23.4461,10.2498 33.3001,35.7639 21.9836,56.9999-11.3165,21.236-39.516,30.148-62.962,19.8982-23.4461-10.2498-33.2856-35.7911-21.9691-57.0271 11.3165-21.236 39.5015-30.1208 62.9476-19.871zm8.9572-16.8087c-33.6977-14.7314-74.1905-1.9343-90.4551,28.587-16.2646,30.5213-2.1355,67.1971 31.5621,81.9285 33.6977,14.7314 74.1905,1.9343 90.4551-28.587 16.2646-30.5213 2.1355-67.1971-31.5621-81.9285zm-8.9645,16.8223c23.4461,10.2498 33.3001,35.7639 21.9836,56.9999-11.3165,21.236-39.516,30.1481-62.9621,19.8983-23.4461-10.2498-33.2856-35.7912-21.9691-57.0272 11.3165-21.236 39.5015-30.1208 62.9476-19.871z"
         id="path3167" />
    </clipPath>
    <clipPath
       clipPathUnits="userSpaceOnUse"
       id="clipPath3169">
      <path
         fill="none"
         stroke="#0f0"
         color="#000"
         stroke-width="2.399"
         d="m-1232.6874,355.1505c29.2402,0 52.96,23.6823 52.96,52.9226 0,29.2402-23.7198,52.9599-52.96,52.9599-29.2403,0-52.96-23.7197-52.96-52.9599 0-29.2403 23.7197-52.9226 52.96-52.9226z"
         id="path3171" />
    </clipPath>
  </defs>
  <path
     d="M 40.0271,103.9998 H 471.973 a 0.0271,0.0097 0 0 1 0.027,0.01 v 367.978 a 0.0271,0.0097 0 0 1 -0.027,0.01 H 40.0271 A 0.0271,0.0097 0 0 1 40,471.9878 v -367.978 a 0.0271,0.0097 0 0 1 0.0271,-0.01"
     id="path3177"
     inkscape:connector-curvature="0"
     style="fill:#ffffff;stroke:#ffffff;stroke-width:8;stroke-linecap:square;stroke-dashoffset:354.331" />
  <path
     style="stroke:#ffffff;stroke-width:8;stroke-linecap:square;stroke-dashoffset:354.331"
     d="M 40.0271,40 H 471.973 A 0.0271,0.0114 0 0 1 472,40.0114 V 103.989 A 0.0271,0.0114 0 0 1 471.973,104 H 40.0271 A 0.0271,0.0114 0 0 1 40,103.989 V 40.0114 A 0.0271,0.0114 0 0 1 40.0271,40"
     id="path3179"
     inkscape:connector-curvature="0" />
  <path
     d="m 40.004,39.9998 h 63.992 a 0.00223607,0 206.56505 0 0 0.004,0.002 v 63.996 a 0.00223607,0 333.43495 0 0 -0.004,0.002 H 40.004 A 0.00223607,0 26.565051 0 0 40,103.9978 v -63.996 a 0.00223607,0 153.43495 0 0 0.004,-0.002"
     id="path3181"
     inkscape:connector-curvature="0"
     style="fill:#ffffff;stroke:#ffffff;stroke-width:8;stroke-linecap:square;stroke-dashoffset:354.331" />
  <path
     d="m 200.0243,167.9998 223.9514,0 c 0.013,2e-5 0.0247,0.005 0.0243,0.01 l 0,47.98 c 4e-4,0.005 -0.0113,0.01 -0.0243,0.01 l -223.9514,0 c -0.013,-2e-5 -0.0247,-0.005 -0.0243,-0.01 l 0,-47.98 c -4e-4,-0.005 0.0113,-0.01 0.0243,-0.01"
     id="path3183"
     inkscape:connector-curvature="0"
     style="fill:#ffffff;stroke:#ffffff;stroke-width:8;stroke-linecap:round;stroke-dashoffset:354.33100000000001728;stroke-linejoin:round"
     sodipodi:nodetypes="ccccccccc" />
  <path
     style="fill:#ffffff;stroke:#ffffff;stroke-width:8;stroke-linecap:round;stroke-dashoffset:354.33100000000001728;stroke-linejoin:round"
     inkscape:connector-curvature="0"
     id="path3234"
     d="m 88.00567,167.9998 63.99433,0 c 0.003,6e-5 0.006,0.004 0.006,0.007 l 0,47.9862 c 9e-5,0.004 -0.003,0.007 -0.006,0.007 l -63.99433,0 c -0.003,-1e-5 -0.0057,-0.004 -0.0057,-0.007 l 0,-47.9862 c -9.3e-5,-0.004 0.0027,-0.007 0.0057,-0.007"
     sodipodi:nodetypes="ccccccccc" />
  <path
     sodipodi:nodetypes="ccccccccc"
     style="fill:#ffffff;stroke:#ffffff;stroke-width:8;stroke-linecap:round;stroke-dashoffset:354.33100000000001728;stroke-linejoin:round"
     inkscape:connector-curvature="0"
     id="path4014"
     d="m 200.0243,263.9998 223.9514,0 c 0.013,2e-5 0.0247,0.005 0.0243,0.01 l 0,47.98 c 4e-4,0.005 -0.0113,0.01 -0.0243,0.01 l -223.9514,0 c -0.013,-2e-5 -0.0247,-0.005 -0.0243,-0.01 l 0,-47.98 c -4e-4,-0.005 0.0113,-0.01 0.0243,-0.01" />
  <path
     sodipodi:nodetypes="ccccccccc"
     d="m 88.00567,263.9998 63.99433,0 c 0.003,6e-5 0.006,0.004 0.006,0.007 l 0,47.9862 c 9e-5,0.004 -0.003,0.007 -0.006,0.007 l -63.99433,0 c -0.003,-10e-6 -0.0057,-0.004 -0.0057,-0.007 l 0,-47.9862 c -9.3e-5,-0.004 0.0027,-0.007 0.0057,-0.007"
     id="path4016"
     inkscape:connector-curvature="0"
     style="fill:#ffffff;stroke:#ffffff;stroke-width:8;stroke-linecap:round;stroke-dashoffset:354.33100000000001728;stroke-linejoin:round" />
  <path
     d="m 200.0243,359.9998 223.9514,0 c 0.013,2e-5 0.0247,0.005 0.0243,0.01 l 0,47.98 c 4e-4,0.005 -0.0113,0.01 -0.0243,0.01 l -223.9514,0 c -0.013,-2e-5 -0.0247,-0.005 -0.0243,-0.01 l 0,-47.98 c -4e-4,-0.005 0.0113,-0.01 0.0243,-0.01"
     id="path4018"
     inkscape:connector-curvature="0"
     style="fill:#ffffff;stroke:#ffffff;stroke-width:8;stroke-linecap:round;stroke-dashoffset:354.33100000000001728;stroke-linejoin:round"
     sodipodi:nodetypes="ccccccccc" />
  <path
     style="fill:#ffffff;stroke:#ffffff;stroke-width:8;stroke-linecap:round;stroke-dashoffset:354.33100000000001728;stroke-linejoin:round"
     inkscape:connector-curvature="0"
     id="path4020"
     d="m 88.00567,359.9998 63.99433,0 c 0.003,6e-5 0.006,0.004 0.006,0.007 l 0,47.9862 c 9e-5,0.004 -0.003,0.007 -0.006,0.007 l -63.99433,0 c -0.003,-10e-6 -0.0057,-0.004 -0.0057,-0.007 l 0,-47.9862 c -9.3e-5,-0.004 0.0027,-0.007 0.0057,-0.007"
     sodipodi:nodetypes="ccccccccc" />
</svg>
