<?xml version="1.0" encoding="UTF-8" standalone="no"?>
<svg
   viewBox="0 0 512 512"
   version="1.1"
   id="svg3753"
   sodipodi:docname="Arc2PL.svg"
   inkscape:version="1.1.2 (b8e25be8, 2022-02-05)"
   xmlns:inkscape="http://www.inkscape.org/namespaces/inkscape"
   xmlns:sodipodi="http://sodipodi.sourceforge.net/DTD/sodipodi-0.dtd"
   xmlns="http://www.w3.org/2000/svg"
   xmlns:svg="http://www.w3.org/2000/svg">
  <defs
     id="defs3757" />
  <sodipodi:namedview
     id="namedview3755"
     pagecolor="#ffffff"
     bordercolor="#666666"
     borderopacity="1.0"
     inkscape:pageshadow="2"
     inkscape:pageopacity="0.0"
     inkscape:pagecheckerboard="0"
     showgrid="false"
     inkscape:zoom="1.2617188"
     inkscape:cx="39.232198"
     inkscape:cy="265.51084"
     inkscape:window-width="1277"
     inkscape:window-height="847"
     inkscape:window-x="0"
     inkscape:window-y="25"
     inkscape:window-maximized="0"
     inkscape:current-layer="g3751" />
  <g
     transform="translate(15.186 19.525)"
     id="g3751">
    <g
       style="fill:none;stroke-linecap:round"
       id="g3741">
      <path
         d="M410.16949 72A336 336 0 0 0 74.1729 408"
         style="stroke:#000;stroke-width:16"
         id="path3733" />
      <g
         style="stroke:#00f;stroke-width:8"
         id="g3739">
        <path
           d="m410.17 227.93v-155.93"
           style="opacity:.25"
           id="path3735" />
        <path
           d="m221.51 408h-149.58"
           style="opacity:.25"
           id="path3737" />
      </g>
    </g>
    <g
       style="fill:#f00"
       id="g3747">
      <path
         d="m376 72c0-17.674 14.326-32 32-32 17.674 0 32 14.326 32 32 0 17.674-14.326 32-32 32-17.674 0-32-14.326-32-32"
         id="path3743" />
      <path
         d="m40 408c0-17.674 14.326-32 32-32 17.674 0 32 14.326 32 32 0 17.674-14.326 32-32 32-17.674 0-32-14.326-32-32"
         id="path3745" />
    </g>
    <path
       d="M412.03313 152.13636A257.72727 257.72727 0 0 0 154.30847 409.86364"
       style="fill:none;stroke:#f00;stroke-linecap:round;stroke-width:16;stroke-miterlimit:4;stroke-dasharray:none"
       id="path3749" />
  </g>
</svg>
