<?xml version="1.0" encoding="UTF-8" standalone="no"?>
<svg
   xmlns:dc="http://purl.org/dc/elements/1.1/"
   xmlns:cc="http://creativecommons.org/ns#"
   xmlns:rdf="http://www.w3.org/1999/02/22-rdf-syntax-ns#"
   xmlns:svg="http://www.w3.org/2000/svg"
   xmlns="http://www.w3.org/2000/svg"
   xmlns:sodipodi="http://sodipodi.sourceforge.net/DTD/sodipodi-0.dtd"
   xmlns:inkscape="http://www.inkscape.org/namespaces/inkscape"
   width="512"
   height="512"
   id="svg4234"
   version="1.1"
   inkscape:version="0.48.5 r10040"
   sodipodi:docname="Arc2PL.svg">
  <metadata
     id="metadata4260">
    <rdf:RDF>
      <cc:Work
         rdf:about="">
        <dc:format>image/svg+xml</dc:format>
        <dc:type
           rdf:resource="http://purl.org/dc/dcmitype/StillImage" />
        <dc:title />
      </cc:Work>
    </rdf:RDF>
  </metadata>
  <sodipodi:namedview
     pagecolor="#ffffff"
     bordercolor="#666666"
     borderopacity="1"
     objecttolerance="10"
     gridtolerance="10"
     guidetolerance="10"
     inkscape:pageopacity="0"
     inkscape:pageshadow="2"
     inkscape:window-width="1461"
     inkscape:window-height="832"
     id="namedview4258"
     showgrid="false"
     inkscape:zoom="1"
     inkscape:cx="130.16949"
     inkscape:cy="256"
     inkscape:window-x="944"
     inkscape:window-y="253"
     inkscape:window-maximized="0"
     inkscape:current-layer="g4146" />
  <defs
     id="defs4236" />
  <g
     id="g4146"
     transform="translate(15.186437,19.525424)">
    <path
       style="fill:none;stroke:#000000;stroke-width:16;stroke-linecap:round"
       inkscape:connector-curvature="0"
       id="path4242"
       d="M 410.16949,72 A 336,336 0 0 0 74.172901,408" />
    <g
       id="g4138">
      <path
         style="opacity:0.25000000000000000;fill:none;stroke:#0000ff;stroke-width:8;stroke-linecap:round;stroke-miterlimit:4;stroke-dasharray:none;stroke-dashoffset:0"
         inkscape:connector-curvature="0"
         id="path4246"
         d="m 410.16949,227.9322 0,-155.9322"
         sodipodi:nodetypes="cc" />
      <path
         style="opacity:0.25000000000000000;fill:none;stroke:#0000ff;stroke-width:8;stroke-linecap:round;stroke-miterlimit:4;stroke-dasharray:none;stroke-dashoffset:0"
         inkscape:connector-curvature="0"
         id="path4248"
         d="M 221.50507,408 71.922053,408" />
    </g>
    <g
       id="g4142">
      <path
         style="fill:#ff0000"
         d="m 376,72 c 0,-17.6736 14.3264,-32 32,-32 17.6736,0 32,14.3264 32,32 0,17.6736 -14.3264,32 -32,32 -17.6736,0 -32,-14.3264 -32,-32 z"
         id="path4252"
         inkscape:connector-curvature="0" />
      <path
         style="fill:#ff0000"
         d="m 40,408 c 0,-17.6736 14.3264,-32 32,-32 17.6736,0 32,14.3264 32,32 0,17.6736 -14.3264,32 -32,32 -17.6736,0 -32,-14.3264 -32,-32 z"
         id="path4254"
         inkscape:connector-curvature="0" />
    </g>
    <path
       d="M 412.03313,152.13636 A 257.72727,257.72727 0 0 0 154.30847,409.86364"
       id="path3758"
       inkscape:connector-curvature="0"
       style="fill:none;stroke:#ff0000;stroke-width:8;stroke-linecap:round;stroke-miterlimit:4;stroke-dasharray:none"
       inkscape:transform-center-x="134.99869"
       inkscape:transform-center-y="-135" />
  </g>
</svg>
