<svg xmlns="http://www.w3.org/2000/svg" viewBox="0 0 512 512"><g transform="translate(15.186 19.525)"><g style="fill:none;stroke-linecap:round"><path d="M410.16949 72A336 336 0 0 0 74.1729 408" style="stroke:#000;stroke-width:16"/><g style="stroke:#00f;stroke-width:8"><path d="m410.17 227.93v-155.93" style="opacity:.25"/><path d="m221.51 408h-149.58" style="opacity:.25"/></g></g><g style="fill:#f00"><path d="m376 72c0-17.674 14.326-32 32-32 17.674 0 32 14.326 32 32 0 17.674-14.326 32-32 32-17.674 0-32-14.326-32-32"/><path d="m40 408c0-17.674 14.326-32 32-32 17.674 0 32 14.326 32 32 0 17.674-14.326 32-32 32-17.674 0-32-14.326-32-32"/></g><path d="M412.03313 152.13636A257.72727 257.72727 0 0 0 154.30847 409.86364" style="fill:none;stroke:#f00;stroke-linecap:round;stroke-width:8"/></g></svg>