<svg width="512" xmlns="http://www.w3.org/2000/svg" height="512">
<defs/>
<g stroke="#fff" stroke-width="3.61">
<path fill="#00f" d="m200,344h272v48h-272z"/>
<g fill="#fff">
<path d="m200,392h272v48h-272z"/>
<path d="m200,440h272v48h-272z"/>
<path d="m200,296h272v48h-272z"/>
</g>
</g>
<path fill="#999" d="m319.0667,38.3378c35.9282,14.4895 68.8042,41.9325 102.3611,65.7909 6.3335,36.8088-40.0328-9.2945-28.3798,23.0687 15.3045,22.3337 39.9252,29.5277 50.6137,58.3952 4.7377,36.5271-21.5237,42.1856-38.0123,47.3273-16.5713,10.6261-29.4529,31.7874-46.5556,40.7376-8.226,27.1775-28.8581,30.3941-43.9503,47.2921-13.1683,2.9303-24.944,7.8378-37.3122,14.0471-1.1884-17.2861-12.317-37.3039-23.4218-18.1322-4.9045,17.3128-27.8381,39.9986-32.7289,13.8801 2.8222-.464 15.4342,3.6007 14.4852-13.7846-4.4002-33.9911-20.627,16.8106-31.8259,18.7187-8.2514-3.1264 15.4445-22.2736-.4984-27.6727-7.0173,5.7747-17.4879,34.4651-25.2727,19.9941 16.7598-32.6772-19.3081-40.2078-32.5707-26.772-10.7105-15.0321-34.2158,23.9422-34.9328-.6286 3.2062-7.2093 26.5297-10.3549 16.5259-15.3879-10.7931,10.6969-27.4378-.3933-29.8727-9.8229-15.1819,5.9586 12.2073-28.9814-5.111-17.423-19.1965,5.6347-33.1505-22.5408-26.7401-48.4003-10.0362-15.9588-32.7213,33.2984-29.4255-3.7524-7.8982-6.5791-12.2591-15.2409-.7243-18.6364 17.2352-11.6318 20.3353-51.4175 1.3457-55.134 .7894-30.3369 21.6932-43.1033 36.5398-55.0469 51.9563-40.5719 111.5516-43.112 168.4516-48.6158 25.7913-.8694 51.7395,1.6009 77.0122,9.9581zm14.0865,84.9054c-20.4929,5.624-18.8078,44.3057-28.1144,65.992-21.852,53.1717-72.0694,73.0666-106.7267,38.4827-17.3822-15.0051-35.9498-39.2725-35.6968-72.9213-7.2196-35.591-34.1849-16.3164-47.0017-.2827-18.9092,16.4921-15.2454,54.9462 2.9928,68.6294 19.7361,23.3641 43.2319,38.5095 66.8962,49.2164 52.4534,17.4895 107.9741-7.0382 151.836-52.6032 11.8966-14.8459 30.3314-32.3836 25.6674-60.1132-4.8568-19.2889-18.1463-29.4056-29.8527-36.4001zm-128.6021,3.0767c-20.695,14.7027-9.5081,70.0027 12.0189,68.7921 17.9693-6.8952 11.3708-43.0454 .6463-56.8191-3.534-5.4251-7.7641-10.1199-12.665-11.9729zm142.1197,140.5648c-8.1948,2.4145 6.7507,7.6055 0,0zm-52.3423,33.4386c-10.3057-.4882 4.6409,14.5381 0,0zm-35.8571,16.1509c11.6124,17.4832-12.6504,6.7966 0,0zm-169.7246-57.667c-1.5682,20.9623-14.2673-.1702 0,0zm71.4674,42.4628c1.0572,18.8325-14.5041-4.2488 0,0zm31.6074,11.4096c-14.3564,3.9798 .3766,23.3745 0,0zm-15.8111,2.0358c-4.7769,5.5687-25.7974,34.4189-16.0159,9.7464 4.5459-5.6728 10.2521-8.8151 16.0159-9.7464zm-30.3127-.2055c-4.1476,19.4689-13.5893-3.1711 0,0z"/>
</svg>
