<svg width="512" xmlns="http://www.w3.org/2000/svg" height="512">
<defs/>
<g transform="translate(0 464)">
<g fill="none" stroke="#000" stroke-linecap="round" stroke-width="16">
<path opacity=".25" d="M 399.59499,-179.02548 A 157.70558,157.70558 0 1 0 193.04837,-66.758168"/>
<path d="M 399.59499,-179.02548 A 157.70558,157.70558 0 0 0 193.04837,-66.758168"/>
</g>
<g fill="#f00">
<path d="m16.5,4.5c0,.5523-.4477,1-1,1-.5523,0-1-.4477-1-1 0-.5523 .4477-1 1-1 .5523,0 1,.4477 1,1z" transform="matrix(-32 0 0 -32 687.59499 76.97452)"/>
<path d="m16.5,4.5c0,.5523-.4477,1-1,1-.5523,0-1-.4477-1-1 0-.5523 .4477-1 1-1 .5523,0 1,.4477 1,1z" transform="matrix(-32 0 0 -32 895.59499 -35.02548)"/>
</g>
</g>
</svg>
