<?xml version="1.0" encoding="UTF-8" standalone="no"?>
<svg
   xmlns:dc="http://purl.org/dc/elements/1.1/"
   xmlns:cc="http://creativecommons.org/ns#"
   xmlns:rdf="http://www.w3.org/1999/02/22-rdf-syntax-ns#"
   xmlns:svg="http://www.w3.org/2000/svg"
   xmlns="http://www.w3.org/2000/svg"
   xmlns:sodipodi="http://sodipodi.sourceforge.net/DTD/sodipodi-0.dtd"
   xmlns:inkscape="http://www.inkscape.org/namespaces/inkscape"
   width="512"
   height="512"
   id="svg2"
   version="1.1"
   inkscape:version="0.48.2 r9819"
   sodipodi:docname="EllipseConcentricThrough.svg">
  <metadata
     id="metadata18">
    <rdf:RDF>
      <cc:Work
         rdf:about="">
        <dc:format>image/svg+xml</dc:format>
        <dc:type
           rdf:resource="http://purl.org/dc/dcmitype/StillImage" />
      </cc:Work>
    </rdf:RDF>
  </metadata>
  <sodipodi:namedview
     pagecolor="#ffffff"
     bordercolor="#666666"
     borderopacity="1"
     objecttolerance="10"
     gridtolerance="10"
     guidetolerance="10"
     inkscape:pageopacity="0"
     inkscape:pageshadow="2"
     inkscape:window-width="2040"
     inkscape:window-height="1188"
     id="namedview16"
     showgrid="true"
     inkscape:zoom="0.72261832"
     inkscape:cx="254.80192"
     inkscape:cy="286.82355"
     inkscape:window-x="0"
     inkscape:window-y="0"
     inkscape:window-maximized="0"
     inkscape:current-layer="svg2">
    <inkscape:grid
       type="xygrid"
       id="grid3091"
       empspacing="8"
       visible="true"
       enabled="true"
       snapvisiblegridlinesonly="true"
       spacingx="8px"
       spacingy="8px" />
  </sodipodi:namedview>
  <defs
     id="defs4" />
  <path
     id="path3041"
     style="fill:none;stroke:#ff0000;stroke-width:16;stroke-linecap:round;stroke-linejoin:round;stroke-miterlimit:4;stroke-dasharray:none"
     d="M 374.50227,256 374.35418,253.03867 M 374.35418,253.03867 373.91025,250.08474 M 373.91025,250.08474 373.17162,247.1456 M 373.17162,247.1456 372.14011,244.22858 M 372.14011,244.22858 370.81831,241.34099 M 370.81831,241.34099 369.20953,238.49004 M 369.20953,238.49004 367.31778,235.68286 M 367.31778,235.68286 365.1478,232.92646 M 365.1478,232.92646 362.70499,230.22772 M 362.70499,230.22772 359.99548,227.59341 M 359.99548,227.59341 357.02604,225.0301 M 357.02604,225.0301 353.80408,222.54419 M 353.80408,222.54419 350.33767,220.14191 M 350.33767,220.14191 346.63546,217.82926 M 346.63546,217.82926 342.7067,215.61201 M 342.7067,215.61201 338.56122,213.49571 M 338.56122,213.49571 334.20938,211.48565 M 334.20938,211.48565 329.66206,209.58685 M 329.66206,209.58685 324.93062,207.80406 M 324.93062,207.80406 320.02689,206.14174 M 320.02689,206.14174 314.96312,204.60404 M 314.96312,204.60404 309.75198,203.19479 M 309.75198,203.19479 304.40648,201.91754 M 304.40648,201.91754 298.93999,200.77546 M 298.93999,200.77546 293.36617,199.77142 M 293.36617,199.77142 287.69896,198.90791 M 287.69896,198.90791 281.95252,198.18711 M 281.95252,198.18711 276.1412,197.61081 M 276.1412,197.61081 270.27954,197.18045 M 270.27954,197.18045 264.38219,196.89711 M 264.38219,196.89711 258.46389,196.7615 M 258.46389,196.7615 252.53943,196.77395 M 252.53943,196.77395 246.62361,196.93444 M 246.62361,196.93444 240.73124,197.24256 M 240.73124,197.24256 234.87702,197.69754 M 234.87702,197.69754 229.0756,198.29825 M 229.0756,198.29825 223.34148,199.04318 M 223.34148,199.04318 217.68899,199.93048 M 217.68899,199.93048 212.13225,200.95792 M 212.13225,200.95792 206.68515,202.12294 M 206.68515,202.12294 201.36132,203.42261 M 201.36132,203.42261 196.17406,204.85371 M 196.17406,204.85371 191.13633,206.41265 M 191.13633,206.41265 186.26072,208.09553 M 186.26072,208.09553 181.55943,209.89814 M 181.55943,209.89814 177.04419,211.81599 M 177.04419,211.81599 172.7263,213.84427 M 172.7263,213.84427 168.61656,215.97792 M 168.61656,215.97792 164.72522,218.21161 M 164.72522,218.21161 161.06203,220.53974 M 161.06203,220.53974 157.63612,222.95651 M 157.63612,222.95651 154.45608,225.45587 M 154.45608,225.45587 151.52984,228.03157 M 151.52984,228.03157 148.86472,230.67718 M 148.86472,230.67718 146.46739,233.38609 M 146.46739,233.38609 144.34383,236.15151 M 144.34383,236.15151 142.49934,238.96655 M 142.49934,238.96655 140.93856,241.82417 M 140.93856,241.82417 139.66536,244.71721 M 139.66536,244.71721 138.68294,247.63846 M 138.68294,247.63846 137.99375,250.5806 M 137.99375,250.5806 137.59951,253.53629 M 137.59951,253.53629 137.50121,256.49814 M 137.50121,256.49814 137.69909,259.45874 M 137.69909,259.45874 138.19267,262.4107 M 138.19267,262.4107 138.9807,265.34664 M 138.9807,265.34664 140.06122,268.25922 M 140.06122,268.25922 141.43152,271.14115 M 141.43152,271.14115 143.08819,273.98523 M 143.08819,273.98523 145.02707,276.78437 M 145.02707,276.78437 147.24333,279.53155 M 147.24333,279.53155 149.73142,282.21992 M 149.73142,282.21992 152.48513,284.84275 M 152.48513,284.84275 155.49756,287.39349 M 155.49756,287.39349 158.76121,289.86576 M 158.76121,289.86576 162.2679,292.25338 M 162.2679,292.25338 166.00887,294.55039 M 166.00887,294.55039 169.97476,296.75105 M 169.97476,296.75105 174.15568,298.84985 M 174.15568,298.84985 178.54116,300.84154 M 178.54116,300.84154 183.12025,302.72116 M 183.12025,302.72116 187.8815,304.48399 M 187.8815,304.48399 192.81301,306.12565 M 192.81301,306.12565 197.90246,307.64201 M 197.90246,307.64201 203.13711,309.0293 M 203.13711,309.0293 208.5039,310.28403 M 208.5039,310.28403 213.98939,311.4031 M 213.98939,311.4031 219.5799,312.38367 M 219.5799,312.38367 225.26143,313.22333 M 225.26143,313.22333 231.01979,313.91994 M 231.01979,313.91994 236.84059,314.4718 M 236.84059,314.4718 242.70928,314.8775 M 242.70928,314.8775 248.61119,315.13603 M 248.61119,315.13603 254.53156,315.24677 M 254.53156,315.24677 260.4556,315.20941 M 260.4556,315.20941 266.36851,315.02406 M 266.36851,315.02406 272.25549,314.69118 M 272.25549,314.69118 278.10185,314.21161 M 278.10185,314.21161 283.89297,313.58654 M 283.89297,313.58654 289.61436,312.81752 M 289.61436,312.81752 295.25173,311.9065 M 295.25173,311.9065 300.791,310.85574 M 300.791,310.85574 306.21831,309.66786 M 306.21831,309.66786 311.5201,308.34585 M 311.5201,308.34585 316.68312,306.893 M 316.68312,306.893 321.69446,305.31294 M 321.69446,305.31294 326.5416,303.60963 M 326.5416,303.60963 331.21242,301.78731 M 331.21242,301.78731 335.69525,299.85055 M 335.69525,299.85055 339.97887,297.80419 M 339.97887,297.80419 344.0526,295.65334 M 344.0526,295.65334 347.90624,293.40338 M 347.90624,293.40338 351.53016,291.05993 M 351.53016,291.05993 354.91531,288.62884 M 354.91531,288.62884 358.05321,286.11621 M 358.05321,286.11621 360.93603,283.52829 M 360.93603,283.52829 363.55658,280.87157 M 363.55658,280.87157 365.90828,278.15269 M 365.90828,278.15269 367.98526,275.37843 M 367.98526,275.37843 369.78235,272.55574 M 369.78235,272.55574 371.29504,269.69166 M 371.29504,269.69166 372.51954,266.79337 M 372.51954,266.79337 373.45281,263.8681 M 373.45281,263.8681 374.0925,260.92316 M 374.0925,260.92316 374.43703,257.96591 M 374.43703,257.96591 374.50227,256"
     inkscape:connector-curvature="0" />
  <path
     id="path3043"
     style="fill:none;stroke:#000000;stroke-width:16;stroke-linecap:round;stroke-linejoin:round;stroke-miterlimit:4;stroke-dasharray:none"
     d="M 445.60385,256 C 445.21914,249.32153 444.83442,242.64307 443.6221,236.09571 442.44607,229.74441 440.49126,223.51649 438.0324,217.51453 435.69618,211.81193 432.90495,206.31331 429.67487,201.0818 426.62732,196.14592 423.1891,191.44782 419.44095,187.0169 415.88791,182.81663 412.05637,178.85644 408,175.14343 404.11071,171.58334 400.01474,168.25048 395.75814,165.13956 391.62209,162.11676 387.33438,159.30351 382.92973,156.68877 378.59742,154.11697 374.15199,151.73723 369.62024,149.53657 365.11998,147.35121 360.53462,145.34244 355.88471,143.49747 351.23603,141.65298 346.52285,139.9722 341.76117,138.44348 336.9812,136.90889 332.15236,135.52753 327.28729,134.28945 322.39393,133.04416 317.46391,131.94383 312.50745,130.98035 307.52047,130.01093 302.50671,129.18005 297.47469,128.48158 292.41588,127.77937 287.3386,127.21097 282.25021,126.77216 277.14301,126.33173 272.02461,126.02184 266.90169,125.84019 261.77054,125.65825 256.63485,125.60497 251.50103,125.67996 246.37063,125.7549 241.2421,125.95792 236.12193,126.29055 231.0164,126.62222 225.9192,127.08275 220.83734,127.67556 215.77937,128.26558 210.7366,128.98663 205.71699,129.84407 200.72697,130.69644 195.75983,131.68361 190.82501,132.81284 185.92025,133.93519 181.04739,135.19787 176.218,136.61011 171.41211,138.01546 166.64924,139.56891 161.94386,141.28142 157.24665,142.99097 152.60672,144.85903 148.04259,146.89803 143.46093,148.94486 138.95564,151.16395 134.55073,153.56836 130.09165,156.00234 125.73542,158.62623 121.51333,161.45222 117.19122,164.34516 113.00966,167.44989 109.00937,170.7747 104.86025,174.2232 100.90612,177.90847 97.199019,181.82957 93.304857,185.94853 89.683268,190.32773 86.397813,194.94844 82.91835,199.842 79.815887,205.00644 77.161025,210.39391 74.353964,216.09025 72.047293,222.03593 70.305861,228.14463 68.492261,234.50646 67.291711,241.04512 66.742949,247.63867 66.186852,254.32032 66.300075,261.05835 67.07881,267.71762 67.8433,274.25512 69.249179,280.71672 71.251856,286.98543 73.168085,292.98356 75.6307,298.80511 78.572598,304.3705 81.351758,309.62802 84.558634,314.65694 88.123181,319.41513 91.491773,323.91174 95.179794,328.16656 99.125481,332.16461 102.88897,335.97805 106.88688,339.55788 111.06919,342.90523 115.11062,346.13982 119.32423,349.15734 123.67106,351.96702 127.92604,354.71733 132.30866,357.26849 136.78903,359.63301 141.22212,361.97258 145.7509,364.12942 150.35243,366.11657 154.9415,368.09835 159.60292,369.91136 164.31895,371.56783 169.0464,373.2283 173.82873,374.73146 178.65204,376.08801 183.50052,377.45165 188.3904,378.66713 193.31056,379.74335 198.26113,380.82623 203.24237,381.76811 208.24512,382.57596 213.27682,383.38848 218.33029,384.06542 223.39775,384.6118 228.48776,385.16061 233.59189,385.57768 238.70323,385.86613 243.82742,386.1553 248.95887,386.31519 254.0911,386.34698 259.2248,386.37878 264.35928,386.28241 269.48813,386.05717 274.60687,385.83236 279.71999,385.47919 284.82074,384.99501 289.90112,384.51278 294.96923,383.90059 300.01757,383.15391 305.03814,382.41134 310.03916,381.53574 315.01188,380.52065 319.95398,379.51181 324.86812,378.36519 329.74374,377.07236 334.59216,375.78674 339.40249,374.35656 344.16159,372.77153 348.90498,371.19175 353.59747,369.45814 358.22241,367.55884 362.85288,365.65727 367.41563,363.5896 371.88915,361.34291 376.40032,359.07731 380.82076,356.62965 385.12243,353.98711 389.50419,351.29538 393.76271,348.40145 397.86168,345.29491 402.08948,342.09072 406.14754,338.66035 409.98796,335.00006 414.00201,331.17427 417.7783,327.09731 421.26089,322.77916 424.9399,318.21748 428.29116,313.38663 431.23369,308.32118 434.3517,302.95364 437.01077,297.32267 439.19161,291.497 441.48107,285.38114 443.24347,279.05071 444.22566,272.61824 445.06392,267.12838 445.33388,261.56419 445.60385,256"
     inkscape:connector-curvature="0" />
  <path
     sodipodi:type="arc"
     style="fill:#ff0000;fill-opacity:1;fill-rule:nonzero;stroke:none"
     id="path2985"
     sodipodi:cx="96"
     sodipodi:cy="96"
     sodipodi:rx="32"
     sodipodi:ry="32"
     d="M 128,96 A 32,32 0 1 1 64,96 32,32 0 1 1 128,96 z"
     transform="matrix(0.8,0,0,0.8,75.2,65.6)" />
</svg>
