<?xml version="1.0" encoding="UTF-8" standalone="no"?>
<!-- Created with Inkscape (http://www.inkscape.org/) -->

<svg
   xmlns:dc="http://purl.org/dc/elements/1.1/"
   xmlns:cc="http://creativecommons.org/ns#"
   xmlns:rdf="http://www.w3.org/1999/02/22-rdf-syntax-ns#"
   xmlns:svg="http://www.w3.org/2000/svg"
   xmlns="http://www.w3.org/2000/svg"
   xmlns:sodipodi="http://sodipodi.sourceforge.net/DTD/sodipodi-0.dtd"
   xmlns:inkscape="http://www.inkscape.org/namespaces/inkscape"
   version="1.0"
   width="512"
   height="512"
   id="svg2"
   inkscape:version="0.48+devel r9903"
   sodipodi:docname="LineFingerjoint.svg">
  <metadata
     id="metadata2959">
    <rdf:RDF>
      <cc:Work
         rdf:about="">
        <dc:format>image/svg+xml</dc:format>
        <dc:type
           rdf:resource="http://purl.org/dc/dcmitype/StillImage" />
      </cc:Work>
    </rdf:RDF>
  </metadata>
  <sodipodi:namedview
     pagecolor="#ffffff"
     bordercolor="#666666"
     borderopacity="1"
     objecttolerance="10"
     gridtolerance="10"
     guidetolerance="10"
     inkscape:pageopacity="0"
     inkscape:pageshadow="2"
     inkscape:window-width="1610"
     inkscape:window-height="995"
     id="namedview2957"
     showgrid="true"
     inkscape:zoom="1.0730898"
     inkscape:cx="247.27619"
     inkscape:cy="271.8679"
     inkscape:window-x="246"
     inkscape:window-y="48"
     inkscape:window-maximized="0"
     inkscape:current-layer="svg2">
    <inkscape:grid
       type="xygrid"
       id="grid2963"
       empspacing="5"
       visible="true"
       enabled="true"
       snapvisiblegridlinesonly="true"
       spacingx="16px"
       spacingy="16px"
       originx="-8px"
       originy="-8px"
       dotted="false" />
  </sodipodi:namedview>
  <defs
     id="defs4">
    <inkscape:path-effect
       effect="spiro"
       id="path-effect3883"
       is_visible="true" />
    <inkscape:perspective
       sodipodi:type="inkscape:persp3d"
       inkscape:vp_x="0 : 24 : 1"
       inkscape:vp_y="0 : 1000 : 0"
       inkscape:vp_z="48 : 24 : 1"
       inkscape:persp3d-origin="24 : 16 : 1"
       id="perspective2961" />
    <marker
       refX="0"
       refY="0"
       orient="auto"
       id="Arrow1Mend"
       style="overflow:visible">
      <path
         d="M 0,0 5,-5 -12.5,0 5,5 0,0 z"
         transform="matrix(-0.4,0,0,-0.4,-4,0)"
         id="path3720"
         style="fill-rule:evenodd;stroke:#000000;stroke-width:1pt;marker-start:none" />
    </marker>
    <marker
       refX="0"
       refY="0"
       orient="auto"
       id="TriangleOutL"
       style="overflow:visible">
      <path
         d="m 5.77,0 -8.65,5 0,-10 8.65,5 z"
         transform="scale(0.8,0.8)"
         id="path3854"
         style="fill-rule:evenodd;stroke:#000000;stroke-width:1pt;marker-start:none" />
    </marker>
    <marker
       refX="0"
       refY="0"
       orient="auto"
       id="Arrow2Send"
       style="overflow:visible">
      <path
         d="M 8.7185878,4.0337352 -2.2072895,0.01601326 8.7185884,-4.0017078 c -1.7454984,2.3720609 -1.7354408,5.6174519 -6e-7,8.035443 z"
         transform="matrix(-0.3,0,0,-0.3,0.69,0)"
         id="path3295"
         style="font-size:12px;fill-rule:evenodd;stroke-width:0.625;stroke-linejoin:round" />
    </marker>
    <marker
       refX="0"
       refY="0"
       orient="auto"
       id="Arrow1Lend"
       style="overflow:visible">
      <path
         d="M 0,0 5,-5 -12.5,0 5,5 0,0 z"
         transform="matrix(-0.8,0,0,-0.8,-10,0)"
         id="path3265"
         style="fill-rule:evenodd;stroke:#000000;stroke-width:1pt;marker-start:none" />
    </marker>
    <marker
       refX="0"
       refY="0"
       orient="auto"
       id="Arrow1Lstart"
       style="overflow:visible">
      <path
         d="M 0,0 5,-5 -12.5,0 5,5 0,0 z"
         transform="matrix(0.8,0,0,0.8,10,0)"
         id="path3262"
         style="fill-rule:evenodd;stroke:#000000;stroke-width:1pt;marker-start:none" />
    </marker>
  </defs>
  <path
     style="fill:none;stroke:#000000;stroke-width:18;stroke-linecap:butt;stroke-linejoin:miter;stroke-miterlimit:4;stroke-opacity:1;stroke-dasharray:none"
     d="m 36.195633,355.58817 54,-27 25.999997,57.58945 112,-54.58945 -30,-57 54,-27 54,-27 34,63 104.56628,-56.93694 -30.56628,-60.06306 54,-27 0,0 0,0 0,0 0,0 0,0 0,0 0,0 0,0"
     id="path3881"
     inkscape:path-effect="#path-effect3883"
     inkscape:original-d="m 36.195633,355.58817 54,-27 25.999997,57.58945 112,-54.58945 -30,-57 54,-27 54,-27 34,63 104.56628,-56.93694 -30.56628,-60.06306 54,-27 0,0 0,0 0,0 0,0 0,0 0,0 0,0 0,0"
     inkscape:connector-curvature="0"
     sodipodi:nodetypes="ccccccccccccccccccc" />
  <path
     sodipodi:type="arc"
     style="fill:#ff0000;fill-opacity:1;stroke:#000000;stroke-width:0.2;stroke-miterlimit:4;stroke-opacity:1;stroke-dasharray:none;stroke-dashoffset:0"
     id="path3082"
     sodipodi:cx="48"
     sodipodi:cy="368"
     sodipodi:rx="24"
     sodipodi:ry="24"
     d="m 72,368 a 24,24 0 1 1 -48,0 24,24 0 1 1 48,0 z"
     transform="matrix(1.273421,0,0,1.273421,-16.928576,-113.03077)" />
  <path
     sodipodi:type="arc"
     style="fill:#ff0000;fill-opacity:1;stroke:#000000;stroke-width:0.2;stroke-miterlimit:4;stroke-opacity:1;stroke-dasharray:none;stroke-dashoffset:0"
     id="path3084"
     sodipodi:cx="471.80438"
     sodipodi:cy="152.21622"
     sodipodi:rx="25.039898"
     sodipodi:ry="25.039898"
     d="m 496.84428,152.21622 a 25.039898,25.039898 0 1 1 -50.0798,0 25.039898,25.039898 0 1 1 50.0798,0 z"
     transform="matrix(1.2701482,0,0,1.2701482,-131.26149,-53.532773)" />
</svg>
