<svg xmlns="http://www.w3.org/2000/svg" viewBox="0 0 512 512"><g transform="translate(0 492)"><g transform="scale(1.02107.97936)"><path d="m170.38-343.94c-2.067-1.2-4.333-2.067-6.8-2.6-2.4-.6-5.067-.9-8-.9-10.4 0-18.4 3.4-24 10.2-5.533 6.733-8.3 16.433-8.3 29.1v59h-18.5v-112h18.5v17.4c3.867-6.8 8.9-11.833 15.1-15.1 6.2-3.333 13.733-5 22.6-5 1.267 0 2.667.1 4.2.3 1.533.133 3.233.367 5.1.7l.1 18.9"/><path d="m383.32-134.78h-18.8v-11.7c-5.4 4.667-11.03 8.3-16.9 10.9-5.867 2.6-12.233 3.9-19.1 3.9-13.333 0-23.933-5.133-31.8-15.4-7.8-10.267-11.7-24.5-11.7-42.7 0-9.467 1.333-17.9 4-25.3 2.733-7.4 6.4-13.7 11-18.9 4.533-5.067 9.8-8.933 15.8-11.6 6.067-2.667 12.333-4 18.8-4 5.867 0 11.07.733 15.6 2.2 4.533 1.467 9.3 3.5 14.3 6.1v-5.2h18.8v111.7m-18.8-27.5v-63.6c-5.067-2.267-9.6-3.9-13.6-4.9-4-1.067-8.367-1.6-13.1-1.6-10.533 0-18.733 3.667-24.6 11-5.867 7.333-8.8 17.733-8.8 31.2 0 13.267 2.267 23.367 6.8 30.3 4.533 6.867 11.8 10.3 21.8 10.3 5.333 0 10.733-1.167 16.2-3.5 5.467-2.4 10.567-5.467 15.3-9.2"/></g><path d="m473.6-69.6c0-121.25-49.668-230.97-129.76-309.91l-305.44 309.91h435.2z" style="fill:none;stroke:#000;stroke-linecap:square;stroke-width:16"/><path d="m16.5 4.5a1 1 0 1 1 -2 0 1 1 0 1 1 2 0" transform="matrix(32 0 0-32-152-228)" style="fill:#f00"/></g></svg>