<?xml version="1.0" encoding="UTF-8" standalone="no"?>
<svg
   viewBox="0 0 512 512"
   version="1.1"
   id="svg1087"
   sodipodi:docname="SelectByHandle-inverse.svg"
   inkscape:version="1.1.2 (b8e25be8, 2022-02-05)"
   xmlns:inkscape="http://www.inkscape.org/namespaces/inkscape"
   xmlns:sodipodi="http://sodipodi.sourceforge.net/DTD/sodipodi-0.dtd"
   xmlns="http://www.w3.org/2000/svg"
   xmlns:svg="http://www.w3.org/2000/svg">
  <defs
     id="defs1091">
    <rect
       x="-366.95974"
       y="217.16408"
       width="218.74922"
       height="88.767798"
       id="rect2553" />
    <rect
       x="-386.77398"
       y="193.38699"
       width="196.55727"
       height="111.75232"
       id="rect3934" />
  </defs>
  <sodipodi:namedview
     id="namedview1089"
     pagecolor="#ffffff"
     bordercolor="#666666"
     borderopacity="1.0"
     inkscape:pageshadow="2"
     inkscape:pageopacity="0.0"
     inkscape:pagecheckerboard="0"
     showgrid="true"
     inkscape:zoom="1.2617188"
     inkscape:cx="144.24767"
     inkscape:cy="248.86686"
     inkscape:window-width="2402"
     inkscape:window-height="1149"
     inkscape:window-x="2672"
     inkscape:window-y="25"
     inkscape:window-maximized="0"
     inkscape:current-layer="svg1087" />
  <path
     d="m 358.47369,78.55418 -304.000006,176"
     style="fill:none;stroke:#ff0000;stroke-width:16;stroke-linecap:square"
     id="path1079" />
  <rect
     style="fill:#ffffff;stroke:#b3b3b3;stroke-width:7.46559;stroke-linejoin:round;stroke-miterlimit:4;stroke-dasharray:none"
     id="rect1173"
     width="415.09784"
     height="156.54793"
     x="71.444771"
     y="328.48053" />
  <g
     aria-label="0xFF"
     transform="matrix(3.591856,0,0,3.591856,1422.3755,-452.15175)"
     id="text2551"
     style="font-size:40px;line-height:1.25;white-space:pre;shape-inside:url(#rect2553)">
    <path
       d="m -344.16602,239.10649 q 0,7.83204 -2.46093,11.50391 -2.44141,3.65234 -7.59766,3.65234 -5.23437,0 -7.65625,-3.71093 -2.40234,-3.71094 -2.40234,-11.40625 0,-7.75391 2.4414,-11.44532 2.44141,-3.71093 7.61719,-3.71093 5.23438,0 7.63672,3.76953 2.42187,3.75 2.42187,11.34765 z m -5.13671,8.86719 q 0.68359,-1.58203 0.91796,-3.71094 0.25391,-2.14843 0.25391,-5.15625 0,-2.96875 -0.25391,-5.15625 -0.23437,-2.1875 -0.9375,-3.71093 -0.68359,-1.50391 -1.875,-2.26563 -1.17187,-0.76172 -3.02734,-0.76172 -1.83594,0 -3.04687,0.76172 -1.19141,0.76172 -1.89454,2.30469 -0.66406,1.44531 -0.91796,3.76953 -0.23438,2.32422 -0.23438,5.09766 0,3.04687 0.21484,5.09765 0.21485,2.05078 0.91797,3.67188 0.64453,1.52344 1.81641,2.32422 1.19141,0.80078 3.14453,0.80078 1.83594,0 3.04688,-0.76172 1.21093,-0.76172 1.875,-2.30469 z"
       id="path3957" />
    <path
       d="m -318.99023,253.65728 h -4.62891 l -6.19141,-8.37891 -6.23047,8.37891 h -4.27734 l 8.51563,-10.87891 -8.4375,-10.9375 h 4.6289 l 6.15235,8.24219 6.17187,-8.24219 h 4.29688 l -8.57422,10.74219 z"
       id="path3959" />
    <path
       d="m -295.33789,228.01274 h -14.70703 v 8.20313 h 12.63672 v 3.4375 h -12.63672 v 14.00391 h -3.86719 v -29.08204 h 18.57422 z"
       id="path3961" />
    <path
       d="m -272.36914,228.01274 h -14.70703 v 8.20313 h 12.63672 v 3.4375 h -12.63672 v 14.00391 h -3.86719 v -29.08204 h 18.57422 z"
       id="path3963" />
  </g>
</svg>
