<?xml version="1.0" encoding="UTF-8" standalone="no"?>
<!-- 2014-07-14 21:46:04 Generated by QCAD SVG Exporter -->

<svg
   xmlns:dc="http://purl.org/dc/elements/1.1/"
   xmlns:cc="http://creativecommons.org/ns#"
   xmlns:rdf="http://www.w3.org/1999/02/22-rdf-syntax-ns#"
   xmlns:svg="http://www.w3.org/2000/svg"
   xmlns="http://www.w3.org/2000/svg"
   xmlns:sodipodi="http://sodipodi.sourceforge.net/DTD/sodipodi-0.dtd"
   xmlns:inkscape="http://www.inkscape.org/namespaces/inkscape"
   width="35mm"
   height="37mm"
   viewBox="18 -42 35 37"
   version="1.1"
   style="stroke-linecap:round;stroke-linejoin:round;fill:none"
   id="svg3005"
   inkscape:version="0.48.4 r9939"
   sodipodi:docname="Untitled 1.svg">
  <metadata
     id="metadata3023">
    <rdf:RDF>
      <cc:Work
         rdf:about="">
        <dc:format>image/svg+xml</dc:format>
        <dc:type
           rdf:resource="http://purl.org/dc/dcmitype/StillImage" />
      </cc:Work>
    </rdf:RDF>
  </metadata>
  <defs
     id="defs3021" />
  <sodipodi:namedview
     pagecolor="#ffffff"
     bordercolor="#666666"
     borderopacity="1"
     objecttolerance="10"
     gridtolerance="10"
     guidetolerance="10"
     inkscape:pageopacity="0"
     inkscape:pageshadow="2"
     inkscape:window-width="1400"
     inkscape:window-height="988"
     id="namedview3019"
     showgrid="false"
     inkscape:zoom="5.8809012"
     inkscape:cx="29.444837"
     inkscape:cy="65.551178"
     inkscape:window-x="-8"
     inkscape:window-y="-8"
     inkscape:window-maximized="1"
     inkscape:current-layer="g3007" />
  <g
     transform="scale(1,-1)"
     id="g3007">
    <!-- Circle -->
    <circle
       cx="30"
       cy="30"
       r="10.295630140987"
       style="stroke:#000000;stroke-width:0.84666671;stroke-miterlimit:4;stroke-dasharray:none"
       id="circle3009"
       d="m 40.29563,30 c 0,5.68612 -4.60951,10.29563 -10.29563,10.29563 -5.68612,0 -10.29563,-4.60951 -10.29563,-10.29563 0,-5.68612 4.60951,-10.29563 10.29563,-10.29563 5.68612,0 10.29563,4.60951 10.29563,10.29563 z" />
    <!-- Line -->
    <path
       d="M33,5 L53,40 "
       style="stroke:#000000;stroke-width:0.84666671;stroke-miterlimit:4;stroke-dasharray:none"
       id="path3011" />
    <!-- Point -->
    <circle
       cx="36.132231404958674"
       cy="26.495867768595037"
       r="0.01"
       style="stroke:#ff0000;stroke-width:2.25777788999999980;stroke-miterlimit:4;stroke-dasharray:none;stroke-opacity:1"
       id="circle3013"
       d="m 36.142233,26.495869 c 0,0.0055 -0.0045,0.01 -0.01,0.01 -0.0055,0 -0.01,-0.0045 -0.01,-0.01 0,-0.0055 0.0045,-0.01 0.01,-0.01 0.0055,0 0.01,0.0045 0.01,0.01 z" />
    <!-- Line -->
    <path
       d="M30,42 L30,38.5 M30,37 L30,35.5 M30,34 L30,26 M30,24.5 L30,23 M30,21.5 L30,18 "
       style="stroke:#ff0000;stroke-width:0.84666671;stroke-miterlimit:4;stroke-dasharray:none"
       id="path3015" />
    <!-- Line -->
    <path
       d="M42,30 L38.5,30 M37,30 L35.5,30 M34,30 L26,30 M24.5,30 L23,30 M21.5,30 L18,30 "
       style="stroke:#ff0000;stroke-width:0.84666671;stroke-miterlimit:4;stroke-dasharray:none"
       id="path3017" />
  </g>
</svg>
