<svg xmlns="http://www.w3.org/2000/svg" viewBox="0 0 48 48"><defs><linearGradient id="0" y1="68.19" x1="44.43" y2="25.851" gradientUnits="userSpaceOnUse" x2="2.519"><stop style="stop-color:#fff"/><stop offset="1" style="stop-opacity:0"/></linearGradient><radialGradient cx="257.44" cy="151.1" gradientTransform="matrix(.53828-.62177-.31266-.27067-63.04 247.49)" id="1" r="70.871" gradientUnits="userSpaceOnUse"><stop/><stop offset="1" style="stop-color:#c6d5e2"/></radialGradient></defs><g transform="matrix(.71875 0 0 .71875 4.234-9.721)" style="stroke-linecap:round;stroke-linejoin:round"><g style="stroke-opacity:.267;stroke:#fff;stroke-width:1.269"><path d="m56.32 50.19c-.131 1.395-.354 2.763-.672 4.095-2.622-.173-4.999-.328-7.084-.448-.368 1.24-.832 2.44-1.396 3.581 1.624 1.305 3.484 2.789 5.543 4.411-.679 1.214-1.441 2.374-2.278 3.476-2.327-1.226-4.44-2.325-6.294-3.279-.822.973-1.726 1.876-2.699 2.699.954 1.852 2.054 3.957 3.279 6.281-1.107.842-2.269 1.609-3.489 2.291-1.622-2.06-3.095-3.919-4.398-5.543-1.142.565-2.34 1.028-3.581 1.396.117 2.087.261 4.461.434 7.084-1.336.319-2.696.554-4.095.685-.642-2.534-1.233-4.83-1.764-6.847-.344.016-.692.026-1.04.026-.966 0-1.91-.067-2.844-.184-.741 1.96-1.582 4.187-2.489 6.649-1.37-.249-2.705-.584-4-1.014.443-2.57.836-4.91 1.172-6.979-1.255-.484-2.459-1.062-3.595-1.751-1.482 1.497-3.141 3.196-4.964 5.069-1.132-.774-2.2-1.622-3.213-2.541 1.445-2.16 2.758-4.128 3.911-5.886-.965-.962-1.839-2.01-2.62-3.134-1.973.771-4.184 1.651-6.61 2.62-.715-1.156-1.343-2.366-1.896-3.621 2.192-1.381 4.187-2.652 5.965-3.792-.495-1.286-.89-2.63-1.146-4.02-2.12-.098-4.49-.19-7.084-.29-.163-1.261-.25-2.54-.25-3.845 0-.066 0-.131 0-.197 2.553-.368 4.887-.709 6.979-1.027.077-1.446.297-2.852.632-4.214-1.901-.954-4.02-2-6.347-3.147.391-1.294.866-2.553 1.422-3.766 2.488.704 4.77 1.335 6.821 1.896.663-1.275 1.447-2.475 2.331-3.595-1.349-1.647-2.86-3.476-4.516-5.464.881-1.01 1.836-1.95 2.844-2.831 1.984 1.652 3.807 3.156 5.451 4.503 1.123-.886 2.328-1.666 3.608-2.331-.563-2.052-1.206-4.333-1.909-6.821 1.213-.556 2.472-1.031 3.766-1.422 1.145 2.327 2.203 4.457 3.16 6.36 1.363-.335 2.767-.556 4.214-.632.319-2.095.658-4.433 1.027-6.992.062 0 .123 0 .184 0 1.307 0 2.595.099 3.858.263.1 2.597.191 4.964.29 7.084 1.394.257 2.737.633 4.03 1.132 1.142-1.777 2.411-3.772 3.792-5.965 1.245.55 2.447 1.187 3.595 1.896-.968 2.422-1.839 4.637-2.607 6.61 1.114.776 2.164 1.649 3.121 2.607 1.755-1.155 3.727-2.453 5.886-3.898.922 1.015 1.778 2.091 2.554 3.226-1.876 1.825-3.572 3.495-5.069 4.977.681 1.126 1.271 2.325 1.751 3.568 2.065-.338 4.398-.729 6.965-1.172.43 1.296.778 2.635 1.027 4-2.465.908-4.699 1.745-6.663 2.489.117.934.184 1.891.184 2.857 0 .352-.011.692-.026 1.04 2.02.532 4.313 1.122 6.847 1.764zm-24.596-2.805c0-2.721-2.216-4.938-4.938-4.938-2.721 0-4.925 2.216-4.925 4.938 0 2.721 2.203 4.925 4.925 4.925 2.721 0 4.938-2.203 4.938-4.925z"/><path d="m57.885 49.4c-.131 1.395-.354 2.763-.672 4.095-2.622-.173-4.999-.328-7.084-.448-.368 1.24-.832 2.44-1.396 3.581 1.624 1.305 3.484 2.789 5.543 4.411-.679 1.214-1.441 2.374-2.278 3.476-2.327-1.226-4.44-2.325-6.294-3.279-.822.973-1.726 1.876-2.699 2.699.954 1.852 2.054 3.957 3.279 6.281-1.107.842-2.269 1.609-3.489 2.291-1.622-2.06-3.095-3.919-4.398-5.543-1.142.565-2.34 1.028-3.581 1.396.117 2.087.261 4.461.434 7.084-1.336.319-2.696.554-4.095.685-.642-2.534-1.233-4.83-1.764-6.847-.344.016-.692.026-1.04.026-.966 0-1.91-.067-2.844-.184-.741 1.96-1.582 4.187-2.489 6.649-1.37-.249-2.705-.584-4-1.014.443-2.57.836-4.91 1.172-6.979-1.255-.484-2.459-1.062-3.595-1.751-1.482 1.497-3.141 3.196-4.964 5.069-1.132-.774-2.2-1.622-3.213-2.541 1.445-2.16 2.758-4.128 3.911-5.886-.965-.962-1.839-2.01-2.62-3.134-1.973.771-4.184 1.651-6.61 2.62-.715-1.156-1.343-2.366-1.896-3.621 2.192-1.381 4.187-2.652 5.965-3.792-.495-1.286-.89-2.63-1.146-4.02-2.12-.098-4.49-.19-7.084-.29-.163-1.261-.25-2.54-.25-3.845 0-.066 0-.131 0-.197 2.553-.368 4.887-.709 6.979-1.027.077-1.446.297-2.852.632-4.214-1.901-.954-4.02-2-6.347-3.147.391-1.294.866-2.553 1.422-3.766 2.488.704 4.77 1.335 6.821 1.896.663-1.275 1.447-2.475 2.331-3.595-1.349-1.647-2.86-3.476-4.516-5.464.881-1.01 1.836-1.95 2.844-2.831 1.984 1.652 3.807 3.156 5.451 4.503 1.123-.886 2.328-1.666 3.608-2.331-.563-2.052-1.206-4.333-1.909-6.821 1.213-.556 2.472-1.031 3.766-1.422 1.145 2.327 2.203 4.457 3.16 6.36 1.363-.335 2.767-.556 4.214-.632.319-2.095.658-4.433 1.027-6.992.062 0 .123 0 .184 0 1.307 0 2.595.099 3.858.263.1 2.597.191 4.964.29 7.084 1.394.257 2.737.633 4.03 1.132 1.142-1.777 2.411-3.772 3.792-5.965 1.245.55 2.447 1.187 3.595 1.896-.968 2.422-1.839 4.637-2.607 6.61 1.114.776 2.164 1.649 3.121 2.607 1.755-1.155 3.727-2.453 5.886-3.898.922 1.015 1.778 2.091 2.554 3.226-1.876 1.825-3.572 3.495-5.069 4.977.681 1.126 1.271 2.325 1.751 3.568 2.065-.338 4.398-.729 6.965-1.172.43 1.296.778 2.635 1.027 4-2.465.908-4.699 1.745-6.663 2.489.117.934.184 1.891.184 2.857 0 .352-.011.692-.026 1.04 2.02.532 4.313 1.122 6.847 1.764zm-24.596-2.805c0-2.721-2.216-4.938-4.938-4.938-2.721 0-4.925 2.216-4.925 4.938 0 2.721 2.203 4.925 4.925 4.925 2.721 0 4.938-2.203 4.938-4.925z" style="fill:url(#1)"/></g><path d="m44.43 46.596c0 8.871-7.206 16.06-16.08 16.06-8.871 0-16.06-7.193-16.06-16.06 0-8.871 7.193-16.08 16.06-16.08 8.871 0 16.08 7.206 16.08 16.08zm-7.282 0c0-4.855-3.941-8.796-8.796-8.796-4.855 0-8.796 3.941-8.796 8.796 0 4.855 3.941 8.796 8.796 8.796 4.855 0 8.796-3.941 8.796-8.796z" style="stroke-opacity:.183;fill:url(#0);stroke:#fff;stroke-width:1.479"/></g></svg>
