<svg xmlns="http://www.w3.org/2000/svg" viewBox="0 0 512 512"><g transform="translate(0-540.36)" style="stroke:#000;stroke-linecap:square;stroke-width:8;stroke-dashoffset:354.33"><path d="m40.03 644.36h431.95a.0271 .0097 0 0 1 .027 .01v367.98a.0271 .0097 0 0 1 -.027 .01h-431.95a.0271 .0097 0 0 1 -.0271 -.01v-367.98a.0271 .0097 0 0 1 .0271 -.01" style="fill:#fff"/><path d="m40.03 40h431.95a.0271 .0114 0 0 1 .027 .0114v63.978a.0271 .0114 0 0 1 -.027 .011h-431.95a.0271 .0114 0 0 1 -.0271 -.011v-63.978a.0271 .0114 0 0 1 .0271 -.0114" transform="translate(0 540.36)"/><path d="m40 580.36h63.992a.004 .0017 0 0 1 .004 .002v63.996a.004 .0017 0 0 1 -.004 .002h-63.992a.004 .0017 0 0 1 -.004 -.002v-63.996a.004 .0017 0 0 1 .004 -.002" style="fill:#fff"/></g><g transform="matrix(.66969 0 0 .66969 84.56-245.32)" style="stroke-linecap:round;stroke-linejoin:round"><path d="m78.67 956.39v-320.07l92.46 80.37h248.95l14.225 14.225v130.87l-14.225 14.225h-248.95l-92.46 80.37z" style="fill:#fff;stroke:#000;stroke-width:12"/><g style="fill:none"><g style="stroke-width:8"><path d="m27.536 796.36h456.93" style="stroke-dasharray:32 16 8 16;stroke:#f00"/><g style="stroke:#808080"><path d="m156.9 745.03v102.66"/><path d="m182.98 796.36l-26.08 51.33"/><path d="m182.98 796.36l-26.08-51.33"/><path d="m182.98 796.36l-26.08 25.665"/><path d="m78.67 847.69h78.24"/><path d="m182.98 796.36l-26.08-25.666"/><path d="m78.67 822.03h78.24"/><path d="m78.67 770.7h78.24"/><path d="m78.67 745.03h78.24"/></g></g><g style="stroke:#000"><path d="m171.12 876.02v-159.32" style="stroke-width:8"/><g style="stroke-width:4"><path d="m290.26 716.7l-.151.05-.151.147-.151.244-.151.34-.151.435-.151.531-.151.626-.151.718-.151.814-.151.906-.151.999-.151 1.09-.151 1.179-.151 1.267-.151 1.356-.151 1.441-.151 1.524-.301 3.283"/><path d="m263.24 716.7l-.149.047-.148.143-.149.24-.149.333-.151.431-.149.526-.149.622-.151.716-.149.808-.149.902-.151.991-.149 1.082-.151 1.171-.149 1.258-.151 1.343-.149 1.425-.149 1.508-.151 1.588-.299 3.407"/><path d="m303.78 876.02l-.14-.043-.143-.129-.143-.215-.143-.304-.14-.388-.143-.474-.143-.559-.143-.645-.143-.727-.14-.811-.143-.893-.143-.976-.143-1.056-.143-1.135-.143-1.215-.143-1.292-.143-1.368-.143-1.44"/><path d="m276.75 876.02l-.142-.043-.144-.133-.144-.222-.142-.308-.144-.394-.142-.482-.144-.569-.144-.654-.142-.74-.144-.822-.142-.906-.144-.989-.142-1.068-.144-1.149-.142-1.226-.142-1.302-.144-1.378-.142-1.451"/><path d="m317.29 716.7l-.151.05-.151.143-.151.244-.151.337-.151.434-.151.529-.151.623-.151.717-.151.811-.151.902-.151.993-.151 1.081-.151 1.172-.151 1.258-.151 1.344-.151 1.43-.151 1.512-.151 1.592-.301 3.411"/><path d="m344.32 716.7l-.143.043-.143.133-.143.219-.143.308-.143.393-.143.481-.143.563-.143.649-.143.73-.14.812-.143.89-.14.969-.14 1.05-.14 1.126-.14 1.206-.143 1.283-.143 1.361-.14 1.437-.143 1.512-.283 3.24"/><path d="m330.81 876.02l-.151-.05-.151-.147-.151-.244-.151-.34-.151-.441-.151-.536-.151-.633-.151-.727-.151-.819-.151-.909-.151-.996-.151-1.084-.151-1.169-.151-1.255-.147-1.337-.151-1.421-.151-1.502"/><path d="m398.37 716.7l-.151.05-.147.143-.151.24-.151.333-.151.427-.147.522-.151.613-.151.708-.151.802-.151.898-.151.993-.151 1.085-.151 1.178-.151 1.266-.151 1.353-.151 1.438-.151 1.521-.151 1.602-.151 1.68-.301 3.59"/><path d="m371.35 716.7l-.143.043-.143.133-.143.219-.143.305-.143.393-.143.478-.143.563-.143.647-.143.733-.143.814-.143.898-.143.977-.143 1.058-.143 1.136-.14 1.214-.143 1.29-.143 1.365-.143 1.438-.143 1.511-.283 3.229"/><path d="m357.83 876.02l-.151-.047-.151-.143-.151-.244-.151-.337-.151-.433-.151-.528-.151-.623-.151-.717-.151-.814-.151-.908-.151-1-.151-1.094-.151-1.183-.151-1.27-.151-1.356-.151-1.438-.151-1.521-.151-1.599"/><path d="m384.86 876.02l-.151-.05-.151-.147-.151-.244-.151-.34-.151-.433-.151-.528-.151-.62-.151-.714-.151-.808-.151-.9-.151-.994-.151-1.087-.151-1.175-.151-1.263-.151-1.349-.151-1.433-.151-1.514-.151-1.593"/><path d="m411.89 876.02l-.151-.047-.151-.143-.151-.244-.151-.337-.151-.434-.151-.531-.151-.627-.151-.721-.151-.815-.151-.91-.151-1-.151-1.094-.151-1.183-.151-1.27-.151-1.356-.151-1.438-.151-1.522-.151-1.603"/><path d="m256.48 716.7v159.32"/><path d="m258.13 766.49l-1.654 29.874"/><path d="m258.74 756.45l-.603 10.04"/><path d="m259.19 749.42l-.454 7.03"/><path d="m259.64 742.94l-.451 6.488"/><path d="m259.94 738.95l-.3 3.989"/><path d="m260.24 735.24l-.3 3.703"/><path d="m265.79 730.38l-.144-1.448-.142-1.371-.144-1.296-.142-1.219-.144-1.139-.142-1.06-.144-.979-.142-.895-.142-.811-.142-.726-.142-.641-.141-.556-.142-.469-.141-.385-.142-.297-.141-.215-.141-.129-.141-.043"/><path d="m266.08 733.49l-.286-3.114"/><path d="m274.18 862.19l-.284-3.115"/><path d="m266.37 736.89l-.287-3.4"/><path d="m273.89 859.07l-.286-3.387"/><path d="m266.65 740.55l-.286-3.659"/><path d="m273.61 855.68l-.284-3.644"/><path d="m273.32 852.04l-.425-5.91"/><path d="m267.08 746.47l-.428-5.919"/><path d="m267.51 752.84l-.424-6.369"/><path d="m272.9 846.13l-.427-6.394"/><path d="m272.47 839.73l-.568-9.167"/><path d="m268.07 761.94l-.565-9.1"/><path d="m271.9 830.57l-.708-12.265"/><path d="m269.21 781.87l-1.135-19.931"/><path d="m271.19 818.3l-1.987-36.436"/><path d="m285.16 766.58l-2.7 49.07"/><path d="m282.46 815.65l-.75 13.11"/><path d="m285.91 754.19l-.751 12.397"/><path d="m281.71 828.76l-.6 9.81"/><path d="m286.36 747.37l-.45 6.821"/><path d="m281.11 838.57l-.454 6.865"/><path d="m280.65 845.43l-.302 4.282"/><path d="m286.81 741.09l-.45 6.278"/><path d="m280.35 849.72l-.302 4.02"/><path d="m287.11 737.23l-.3 3.858"/><path d="m280.05 853.73l-.302 3.73"/><path d="m287.41 733.65l-.301 3.581"/><path d="m279.75 857.46l-.302 3.427-.151 1.596-.151 1.515-.151 1.433-.151 1.349-.151 1.262-.151 1.173-.149 1.082-.151.99-.149.895-.149.801-.148.708-.148.613-.149.521-.149.428-.149.337-.149.24-.149.143-.149.047"/><path d="m292.83 730.5l-.143-1.444-.143-1.37-.143-1.294-.143-1.219-.143-1.141-.143-1.064-.143-.984-.143-.905-.143-.824-.143-.74-.143-.657-.143-.57-.143-.485-.143-.396-.143-.308-.143-.219-.143-.133-.143-.043"/><path d="m301.22 862.35l-.283-3.087"/><path d="m293.12 733.6l-.283-3.101"/><path d="m300.94 859.27l-.283-3.35"/><path d="m293.4 736.97l-.283-3.376"/><path d="m300.65 855.92l-.283-3.599"/><path d="m293.69 740.61l-.283-3.637"/><path d="m300.37 852.32l-.424-5.851"/><path d="m294.11 746.52l-.427-5.909"/><path d="m299.95 846.47l-.425-6.364"/><path d="m294.54 752.92l-.427-6.399"/><path d="m299.52 840.1l-.572-9.201"/><path d="m295.11 762.08l-.568-9.167"/><path d="m298.95 830.9l-.716-12.37"/><path d="m296.24 781.95l-1.131-19.864"/><path d="m298.23 818.53l-1.996-36.583"/><path d="m328.25 862.41l-.297-3.24-.151-1.737"/><path d="m312.19 766.53l-2.697 49.01"/><path d="m309.49 815.54l-.751 13.145"/><path d="m312.79 756.5l-.603 10.03"/><path d="m308.74 828.68l-.604 9.879"/><path d="m313.24 749.46l-.454 7.04"/><path d="m308.13 838.56l-.452 6.864"/><path d="m313.7 742.97l-.452 6.497"/><path d="m307.68 845.43l-.452 6.316"/><path d="m313.99 738.98l-.297 3.983"/><path d="m307.23 851.74l-.301 3.872"/><path d="m314.29 735.28l-.297 3.698"/><path d="m306.93 855.61l-.301 3.579-.151 1.673-.151 1.595-.151 1.512-.151 1.43-.151 1.344-.151 1.257-.151 1.171-.151 1.082-.151.991-.151.9-.151.808-.151.716-.151.622-.151.526-.151.433-.151.337-.151.24-.151.143-.151.047"/><path d="m319.99 731.9l-.151-1.599-.151-1.518-.151-1.431-.151-1.344-.151-1.258-.151-1.168-.151-1.081-.151-.991-.151-.902-.151-.814-.151-.72-.151-.627-.151-.532-.151-.437-.151-.34-.151-.244-.151-.143-.151-.05"/><path d="m320.29 735.34l-.301-3.437"/><path d="m327.81 857.43l-.297-3.697"/><path d="m320.6 739.07l-.301-3.737"/><path d="m327.51 853.74l-.297-3.98"/><path d="m320.9 743.09l-.301-4.01"/><path d="m327.21 849.76l-.451-6.46"/><path d="m321.35 749.56l-.45-6.475"/><path d="m326.76 843.3l-.599-9.406"/><path d="m321.95 758.98l-.6-9.418"/><path d="m326.16 833.89l-.6-10.125"/><path d="m322.85 774.47l-.903-15.488"/><path d="m325.56 823.77l-.899-16.11"/><path d="m324.66 807.66l-1.809-33.19"/><path d="m339.19 766.93l-2.703 49.11"/><path d="m336.49 816.04l-.708 12.402"/><path d="m339.9 755.1l-.714 11.832"/><path d="m335.78 828.44l-.568 9.313"/><path d="m340.33 748.51l-.43 6.582"/><path d="m335.21 837.75l-.425 6.525"/><path d="m340.76 742.4l-.428 6.11"/><path d="m334.79 844.28l-.427 6.06"/><path d="m341.05 738.63l-.287 3.78"/><path d="m334.36 850.34l-.283 3.754"/><path d="m341.34 735.11l-.287 3.519"/><path d="m346.88 730.36l-.151-1.514-.151-1.433-.151-1.347-.151-1.262-.151-1.176-.151-1.088-.151-1-.151-.912-.151-.819-.151-.726-.151-.633-.151-.536-.151-.438-.151-.34-.151-.244-.151-.143-.151-.05"/><path d="m347.18 733.63l-.297-3.266"/><path d="m355.13 860.77l-.301-3.434"/><path d="m347.48 737.2l-.301-3.569"/><path d="m354.83 857.33l-.301-3.737"/><path d="m347.78 741.05l-.301-3.856"/><path d="m354.52 853.6l-.301-4.01"/><path d="m348.22 747.33l-.448-6.278"/><path d="m354.22 849.58l-.45-6.475"/><path d="m348.67 754.14l-.449-6.811"/><path d="m353.77 843.11l-.6-9.41"/><path d="m349.42 766.49l-.75-12.343"/><path d="m353.17 833.7l-.602-10.187"/><path d="m352.57 823.51l-.902-16.18"/><path d="m351.67 807.34l-.596-11.02-1.651-29.834"/><path d="m334.08 854.09l-.283 3.501"/><path d="m333.79 857.6l-.283 3.231-.143 1.508-.14 1.435-.143 1.361-.14 1.284-.143 1.208-.14 1.129-.14 1.053-.14.973-.143.895-.143.814-.143.734-.143.651-.143.568-.143.482-.143.396-.143.308-.143.222-.143.133-.143.047"/><path d="m366.23 766.77l-2.558 46.515"/><path d="m363.67 813.29l-.717 12.673"/><path d="m362.95 825.96l-.573 9.561"/><path d="m366.94 754.99l-.713 11.785"/><path d="m367.37 748.45l-.427 6.541"/><path d="m362.38 835.52l-.572 8.854"/><path d="m367.79 742.39l-.425 6.06"/><path d="m361.81 844.37l-.427 6.06"/><path d="m368.08 738.64l-.283 3.747"/><path d="m361.38 850.44l-.283 3.727"/><path d="m368.36 735.14l-.283 3.497"/><path d="m361.1 854.16l-.283 3.465"/><path d="m360.82 857.63l-.283 3.205-.14 1.503-.14 1.433-.143 1.363-.143 1.289-.143 1.213-.143 1.135-.14 1.057-.143.979-.143.896-.143.815-.143.731-.143.647-.143.563-.143.476-.143.391-.143.305-.143.219-.143.133-.143.043"/><path d="m373.91 730.43l-.151-1.526-.151-1.445-.151-1.36-.151-1.273-.151-1.185-.151-1.095-.151-1.01-.151-.912-.151-.819-.151-.724-.151-.63-.151-.534-.151-.438-.151-.34-.151-.244-.151-.147-.151-.05"/><path d="m374.21 733.71l-.301-3.283"/><path d="m382.16 860.83l-.301-3.418"/><path d="m374.51 737.28l-.301-3.568"/><path d="m381.86 857.41l-.301-3.713"/><path d="m374.81 741.11l-.297-3.835"/><path d="m381.56 853.7l-.301-3.989"/><path d="m375.25 747.35l-.445-6.241"/><path d="m381.26 849.71l-.45-6.46"/><path d="m375.7 754.15l-.448-6.795"/><path d="m380.81 843.25l-.599-9.396"/><path d="m376.45 766.54l-.752-12.394"/><path d="m380.21 833.86l-.599-10.128"/><path d="m379.61 823.73l-.9-16.12"/><path d="m378.71 807.61l-.6-11.1-1.659-29.965"/><path d="m393.27 766.48l-2.694 48.954"/><path d="m390.58 815.43l-.748 13.11"/><path d="m389.83 828.54l-.6 9.825"/><path d="m394.02 754.19l-.745 12.283"/><path d="m389.23 838.37l-.452 6.868"/><path d="m394.47 747.35l-.451 6.845"/><path d="m388.78 845.24l-.454 6.343"/><path d="m394.92 741.02l-.454 6.323"/><path d="m388.32 851.58l-.301 3.895"/><path d="m395.22 737.14l-.301 3.881"/><path d="m388.02 855.47l-.301 3.6-.151 1.682-.151 1.602-.151 1.521-.151 1.437-.151 1.353-.151 1.266-.151 1.178-.151 1.09-.151 1-.151.908-.151.814-.151.721-.151.627-.151.534-.151.437-.151.34-.151.244-.151.147-.151.05"/><path d="m401.07 731.86l-.151-1.586-.151-1.506-.151-1.424-.151-1.341-.151-1.256-.151-1.169-.151-1.082-.151-.993-.151-.902-.151-.811-.151-.717-.151-.625-.151-.531-.151-.435-.151-.337-.151-.244-.151-.143-.151-.05"/><path d="m401.37 735.26l-.301-3.404"/><path d="m409.18 860.74l-.301-3.443"/><path d="m401.67 738.96l-.297-3.701"/><path d="m408.88 857.3l-.301-3.745"/><path d="m401.97 742.94l-.301-3.979"/><path d="m408.58 853.56l-.301-4.02"/><path d="m402.42 749.39l-.448-6.452"/><path d="m408.28 849.54l-.448-6.47"/><path d="m403.02 758.79l-.6-9.396"/><path d="m407.83 843.07l-.596-9.343"/><path d="m407.23 833.72l-.596-10.08"/><path d="m403.92 774.22l-.902-15.434"/><path d="m406.63 823.64l-.905-16.242"/><path d="m405.73 807.4l-1.809-33.18"/></g><path d="m420.07 876.02v-159.32" style="stroke-width:8"/></g></g></g></svg>