<svg xmlns="http://www.w3.org/2000/svg" xmlns:xlink="http://www.w3.org/1999/xlink" viewBox="0 0 48 48"><defs><radialGradient cx="42.786" cy="42.19" id="0" r="69.833" gradientUnits="userSpaceOnUse"><stop style="stop-color:#93aef5"/><stop offset="1" style="stop-color:#094ece"/></radialGradient><radialGradient cx="42.786" cy="42.19" gradientTransform="matrix(-.31984 0 0 .31984 45.497 2.03)" xlink:href="#0" id="1" r="69.833" gradientUnits="userSpaceOnUse"/></defs><path d="m27.304 4.742c0 1.233 0 2.466 0 3.699 0 .557-.415 3.811 0 4.17.326.283 2.163 0 2.575 0 1.97 0 3.94 0 5.91 0 2.545 0 7.158-.871 8.705 1.771 1.257 2.146.488 6.211.488 8.543 0 2.681.248 5.491 0 8.162 0 4.271-4.981 3.575-7.813 3.575-3.226 0-6.452 0-9.678 0-.395 0-.188 6.842-.188 7.715 0 3.03-3.156 4.38-5.34 2.202-1.912-1.905-3.824-3.81-5.736-5.717-4.069-4.056-8.695-7.929-12.379-12.34-2.6-2.609.035-5.092 1.87-6.929 2.5-2.502 5-5.01 7.502-7.508 2.457-2.46 4.914-4.919 7.371-7.378 1.593-1.594 3.612-3.632 5.954-1.599.479.415.758.998.758 1.634" style="fill:url(#1)"/><path d="m44.982 16.187c0 2.721 0 5.442 0 8.162 0 2.332.769 6.397-.488 8.542-1.548 2.642-6.159 1.771-8.704 1.771-1.84 0-3.68 0-5.519 0-.47 0-2.598-.325-2.966 0-.365.322 0 3.161 0 3.645 0 1.52 0 3.039 0 4.558 0 3.471-3.882 3.168-5.684 1.371-4.812-4.796-9.624-9.593-14.436-14.39-1.745-1.739-5.074-4.03-4.214-6.872.101.191 1.192.904 1.406 1.118.981.978 1.962 1.956 2.943 2.934 2.725 2.716 5.449 5.432 8.174 8.148 1.814 1.808 3.628 3.617 5.441 5.425.783.78 2.082 1.458 3.169.858 1.282-.707.947-2.782.947-4.01 0-1.661 0-3.322 0-4.983 0-.913.69-.554 1.532-.554 3.581 0 7.162 0 10.743 0 2.639 0 5.28-.163 5.28-3.471 0-3.476 0-6.953 0-10.43 0-1.59.346-3.704-.217-5.243 1.512.433 2.594 1.845 2.594 3.422" style="fill:#5f8dd3"/><path d="m42.39 34.424c.886-2.43.217-5.996.217-8.511 0-2.67.466-5.789-.055-8.427-.59-2.99-5.888-2.132-8.07-2.132-3.116 0-6.233 0-9.349 0-.246 0 .102-6.91-.258-7.915-1.09-3.036-4.146.043-5.331 1.234-4.884 4.907-9.767 9.813-14.65 14.72-.391.394-1.678 1.253-1.925 1.72-.919-3.042 3.213-5.895 5.05-7.744 3.446-3.461 6.892-6.922 10.338-10.382 1.666-1.673 3.973-5.163 6.719-4.635 3.551.682 2.223 7.608 2.223 10.177 2.985 0 5.969-.001 8.954-.001 2.93 0 8.724-.945 8.724 3.576.276 2.979 0 6.112 0 9.102 0 2.814 1.018 8.185-2.594 9.219" style="fill:#80b3ff"/><path d="m25.841 2.346c2.942 1.217 1.751 7.163 1.751 9.679 0 .624 7.43.297 8.344.297 2.743 0 7.36-.882 8.903 2.09 1.16 2.236.432 6.124.432 8.513 0 2.687.227 5.483 0 8.162 0 4.441-4.924 3.864-7.916 3.864-3.233 0-6.466 0-9.699 0-.197 0 .063 7.565-.116 8.575-.43 2.431-3.797 3.241-5.492 1.545-.395-.31-.737-.735-1.092-1.089-2.194-2.187-4.388-4.374-6.582-6.561-2.465-2.457-4.929-4.913-7.393-7.37-1.283-1.278-3.338-2.744-4.114-4.448-1.239-2.721.958-4.521 2.649-6.213 2.387-2.389 4.774-4.779 7.161-7.168 2.35-2.352 4.699-4.704 7.05-7.06 1.707-1.71 3.319-3.978 6.116-2.82m18.852 28.741c0-2.721 0-5.442 0-8.162 0-2.265.811-6.543-.562-8.575-1.579-2.336-6.35-1.451-8.726-1.451-1.827 0-3.654 0-5.481 0-.463 0-2.544.319-2.909 0-.36-.315 0-3.133 0-3.61 0-1.504 0-3.01 0-4.513 0-2.104-3.234-2.854-4.568-1.519-.484.484-.967.968-1.451 1.452-4.951 4.955-9.902 9.911-14.853 14.866-1.639 1.641-4.222 3.625-2.51 6.227 1.083 1.646 2.928 3.02 4.308 4.392 4.67 4.655 9.34 9.31 14.01 13.964.824.821 1.712 1.375 2.977 1.172 1.932-.309 2.086-1.932 2.086-3.506 0-.969-.375-7.452.321-7.452 3.154 0 6.308 0 9.461 0 2.677.001 7.895.836 7.895-3.285"/></svg>
