<svg xmlns="http://www.w3.org/2000/svg" viewBox="0 0 512 512"><defs><linearGradient id="0" x1="-313.83" x2="-155.22" gradientUnits="userSpaceOnUse"><stop style="stop-color:#fff"/><stop offset="1" style="stop-color:#606060"/></linearGradient></defs><g style="stroke-linecap:round;stroke-linejoin:round"><path d="m288.39-325.62l45.613 45.613h-136.84v-136.84l45.26 46.682c23.563-30.984 60.767-46.682 101.56-46.682 70.06 0 126.86 56.797 126.86 126.86 0 70.06-56.797 126.86-127.39 125.43l.356-68.42c4.449 1.425 8.614.967 12.624.097 26.297-5.704 45.995-29.11 45.995-57.11 0-32.28-26.16-58.44-58.44-58.44-21.11 0-45.32 6.03-55.59 22.806" transform="translate(0 464)" style="fill:#c6cfff;stroke:#161a61;stroke-width:12.786"/><g transform="matrix(1.41885 0 0 1.41885 499.25 468.27)" style="stroke:#fff"><g style="stroke-width:4"><path d="m-155.69-158.87v141.73c-.005 5.565-8.503 11.1-23.1 15.03-14.594 3.935-35.1 6.225-55.74 6.225-20.637 0-41.15-2.291-55.74-6.225-14.594-3.935-23.09-9.465-23.1-15.03v-141.73" style="fill:url(#0)"/><g style="fill:none"><path d="m-313.3662-52.5669a78.8376 21.2598 0 0 0 157.6752 0"/><path d="m-313.3662-88a78.8376 21.2598 0 0 0 157.6752 0"/><path d="m-313.3662-123.4331a78.8376 21.2598 0 0 0 157.6752 0"/></g></g><ellipse cx="0" cy="0" rx="20" ry="6" transform="matrix(3.94188 0 0-3.54331-234.53-158.87)" style="fill:#ccc;stroke-width:1.07"/></g></g></svg>
