<svg xmlns="http://www.w3.org/2000/svg" overflow="visible" viewBox="0 0 512 512"><defs><linearGradient id="8" y1="6.562" x1="31.889" y2="25.729" x2="12.722" gradientUnits="userSpaceOnUse"><stop stop-color="#ccc"/><stop offset="1" stop-color="#f0f0f0"/></linearGradient><linearGradient id="5" y1="-1.322" y2="30.928" x2="0" gradientUnits="userSpaceOnUse"><stop stop-color="#428aff"/><stop offset="1" stop-color="#c9e6ff"/></linearGradient><linearGradient id="7" y1="33.15" y2="-1.566" x2="0" gradientUnits="userSpaceOnUse"><stop stop-color="#b4e2ff"/><stop offset="1" stop-color="#006dff"/></linearGradient><linearGradient id="6" y1="3.747" x1="-16.13" y2="47.21" x2="27.339" gradientUnits="userSpaceOnUse"><stop stop-color="#94caff"/><stop offset="1" stop-color="#006dff"/></linearGradient><linearGradient id="4" y1="21.679" y2="41.12" x2="0" gradientUnits="userSpaceOnUse"><stop stop-color="#dfdfdf"/><stop offset="1" stop-color="#7d7d99"/></linearGradient><linearGradient id="3" y1="7.405" y2="4.365" x2="0" gradientUnits="userSpaceOnUse"><stop stop-color="#39f"/><stop offset="1"/></linearGradient><linearGradient id="0" y1=".088" x1="11.163" y2="16.276" x2="-5.02" gradientUnits="userSpaceOnUse"><stop stop-color="#fff"/><stop offset=".551" stop-color="#e6edff"/><stop offset="1" stop-color="#fff"/></linearGradient><linearGradient id="2" y1="26.23" y2="36.868" x2="0" gradientUnits="userSpaceOnUse"><stop stop-color="#f0f0f0"/><stop offset=".635" stop-color="#cecedb"/><stop offset=".859" stop-color="#b1b1c5"/><stop offset="1" stop-color="#fff"/></linearGradient><linearGradient id="1" y1="23.974" x1="-4.642" y2="40.827" x2="7.651" gradientUnits="userSpaceOnUse"><stop stop-color="#039"/><stop offset=".27" stop-color="#0035ed"/><stop offset="1" stop-color="#57adff"/></linearGradient></defs><g transform="matrix(10.73291 0 0 10.73291 251.69 38.38)"><path d="m-14.02 1.699c-2.047 0-3.712 1.693-3.712 3.775v30.17c0 2.082 1.666 3.775 3.712 3.775h29.401c2.047 0 3.712-1.693 3.712-3.775v-30.17c0-2.082-1.665-3.775-3.712-3.775h-29.401" opacity=".2"/><path d="m-14.393 1.324c-2.047 0-3.712 1.693-3.712 3.775v30.17c0 2.082 1.666 3.775 3.712 3.775h29.401c2.047 0 3.712-1.693 3.712-3.775v-30.17c0-2.082-1.665-3.775-3.712-3.775h-29.401" opacity=".2"/><g fill="#00008d"><path d="m-14.58 1.137c-2.047 0-3.712 1.693-3.712 3.775v30.17c0 2.082 1.666 3.775 3.712 3.775h29.401c2.047 0 3.712-1.693 3.712-3.775v-30.17c0-2.082-1.665-3.775-3.712-3.775h-29.401"/><path d="m-14.58 1.512c-1.84 0-3.337 1.525-3.337 3.4v30.17c0 1.875 1.497 3.4 3.337 3.4h29.401c1.84 0 3.337-1.525 3.337-3.4v-30.17c0-1.875-1.497-3.4-3.337-3.4h-29.401"/></g><path d="m17.22 35.08c0 1.36-1.074 2.463-2.399 2.463h-29.401c-1.326 0-2.4-1.103-2.4-2.463v-30.17c0-1.36 1.074-2.462 2.4-2.462h29.401c1.325 0 2.399 1.103 2.399 2.462v30.17" fill="#fff"/><path d="m17.22 35.08c0 1.36-1.074 2.463-2.399 2.463h-29.401c-1.326 0-2.4-1.103-2.4-2.463v-30.17c0-1.36 1.074-2.462 2.4-2.462h29.401c1.325 0 2.399 1.103 2.399 2.462v30.17" fill="url(#7)"/><path d="m-14.58 3.01c-1.013 0-1.837.852-1.837 1.9v30.17c0 1.048.824 1.9 1.837 1.9h29.401c1.013 0 1.837-.853 1.837-1.9v-30.17c0-1.048-.824-1.9-1.837-1.9h-29.401" fill="#fff"/><path d="m-14.58 3.01c-1.013 0-1.837.852-1.837 1.9v30.17c0 1.048.824 1.9 1.837 1.9h29.401c1.013 0 1.837-.853 1.837-1.9v-30.17c0-1.048-.824-1.9-1.837-1.9h-29.401" fill="url(#6)"/><path d="m13.192 3.352c0 0-26.18 0-26.914 0 0 .704 0 16.59 0 17.294.721 0 26.864 0 27.583 0 0-.704 0-16.59 0-17.294-.307 0-.669 0-.669 0" fill="url(#5)"/><g transform="translate(-23.434-3.509)"><path d="m35.809 6.486h-25.588v16.919h26.567v-16.919h-.979" fill="#fff"/><path d="m35.809 6.486h-25.588v16.919h26.567v-16.919h-.979" fill="url(#8)"/></g><g stroke="#fff" stroke-width=".188"><path d="m-11.946 3.51c0 .698 0 14.542 0 15.239.716 0 23.417 0 24.13 0 0-.698 0-14.541 0-15.239-.717 0-23.417 0-24.13 0z" fill="#fff"/><path d="m-11.946 3.51c0 .698 0 14.542 0 15.239.716 0 23.417 0 24.13 0 0-.698 0-14.541 0-15.239-.717 0-23.417 0-24.13 0z" fill="url(#0)"/></g><path d="m-11.28 22.97h22.01v13.978h-22.01z" fill="url(#1)"/><path d="m-10.19 23.512c-.311 0-.563.252-.563.563v13.1c0 .312.252.563.563.563h17.249c.311 0 .563-.251.563-.563v-13.11c0-.311-.252-.563-.563-.563h-17.249v.001m5.606 3.676c0 .871 0 5.078 0 5.949-.683 0-2.075 0-2.759 0 0-.871 0-5.078 0-5.949.684 0 2.076 0 2.759 0" fill="url(#4)"/><path d="m-10.19 24.07v13.1h17.249v-13.1h-17.249m6.169 9.626h-3.884v-7.07h3.884v7.07" fill="url(#2)"/><path d="m14.396 5.522h1.784v1.785h-1.784z" fill="url(#3)"/></g></svg>