<?xml version="1.0" encoding="UTF-8" standalone="no"?>
<svg
   xmlns:dc="http://purl.org/dc/elements/1.1/"
   xmlns:cc="http://creativecommons.org/ns#"
   xmlns:rdf="http://www.w3.org/1999/02/22-rdf-syntax-ns#"
   xmlns:svg="http://www.w3.org/2000/svg"
   xmlns="http://www.w3.org/2000/svg"
   xmlns:sodipodi="http://sodipodi.sourceforge.net/DTD/sodipodi-0.dtd"
   xmlns:inkscape="http://www.inkscape.org/namespaces/inkscape"
   viewBox="0 0 512 512"
   id="svg2"
   version="1.1"
   inkscape:version="0.48.2 r9819"
   width="100%"
   height="100%"
   sodipodi:docname="EllipseInscribedQuad.svg">
  <metadata
     id="metadata26">
    <rdf:RDF>
      <cc:Work
         rdf:about="">
        <dc:format>image/svg+xml</dc:format>
        <dc:type
           rdf:resource="http://purl.org/dc/dcmitype/StillImage" />
      </cc:Work>
    </rdf:RDF>
  </metadata>
  <sodipodi:namedview
     pagecolor="#ffffff"
     bordercolor="#666666"
     borderopacity="1"
     objecttolerance="10"
     gridtolerance="10"
     guidetolerance="10"
     inkscape:pageopacity="0"
     inkscape:pageshadow="2"
     inkscape:window-width="2502"
     inkscape:window-height="1252"
     id="namedview24"
     showgrid="false"
     inkscape:zoom="0.921875"
     inkscape:cx="62.915254"
     inkscape:cy="256"
     inkscape:window-x="0"
     inkscape:window-y="0"
     inkscape:window-maximized="0"
     inkscape:current-layer="svg2" />
  <defs
     id="defs4" />
  <path
     id="path3089"
     style="fill:none;stroke:#000000;stroke-width:16;stroke-linecap:round;stroke-linejoin:round;stroke-miterlimit:4;stroke-dasharray:none"
     d="M 216.62761,29.608814 19.765707,226.47072"
     inkscape:connector-curvature="0" />
  <path
     id="path3091"
     style="fill:none;stroke:#000000;stroke-width:16;stroke-linecap:round;stroke-linejoin:round;stroke-miterlimit:4;stroke-dasharray:none"
     d="M 19.765707,226.47072 157.56904,482.39119"
     inkscape:connector-curvature="0" />
  <path
     id="path3093"
     style="fill:none;stroke:#000000;stroke-width:16;stroke-linecap:round;stroke-linejoin:round;stroke-miterlimit:4;stroke-dasharray:none"
     d="M 157.56904,482.39119 492.23429,344.58785"
     inkscape:connector-curvature="0" />
  <path
     id="path3095"
     style="fill:none;stroke:#000000;stroke-width:16;stroke-linecap:round;stroke-linejoin:round;stroke-miterlimit:4;stroke-dasharray:none"
     d="M 492.23429,344.58785 216.62761,29.608814"
     inkscape:connector-curvature="0" />
  <path
     id="path3097"
     style="fill:none;stroke:#ff0000;stroke-width:16;stroke-linecap:round;stroke-linejoin:round;stroke-miterlimit:4;stroke-dasharray:none"
     d="m 125.04675,124.92984 -6.34887,4.41837 m 0,0 -6.09574,4.76956 m 0,0 -5.82729,5.10879 m 0,0 -5.54432,5.43527 m 0,0 -5.247477,5.74817 m 0,0 -4.937511,6.04668 m 0,0 -4.615214,6.3301 m 0,0 -4.281418,6.59772 m 0,0 -3.936896,6.84884 m 0,0 -3.582488,7.08275 m 0,0 -3.219188,7.29909 m 0,0 -2.847833,7.49711 m 0,0 -2.469311,7.67639 m 0,0 -2.084622,7.83651 m 0,0 -1.694822,7.97703 m 0,0 -1.300631,8.09764 m 0,0 -0.903442,8.19792 m 0,0 -0.503918,8.27782 m 0,0 -0.102229,8.33699 m 0,0 0.298351,8.37532 m 0,0 0.698652,8.39266 m 0,0 1.097287,8.38915 m 0,0 1.493198,8.36455 m 0,0 1.885332,8.3191 m 0,0 2.272856,8.25281 m 0,0 2.654655,8.16598 m 0,0 3.029733,8.05869 m 0,0 3.397365,7.93119 m 0,0 3.756386,7.78396 m 0,0 4.106074,7.61727 m 0,0 4.445482,7.43149 m 0,0 4.773835,7.2272 m 0,0 5.090187,7.0048 m 0,0 5.393817,6.76484 m 0,0 5.68405,6.50811 m 0,0 5.95996,6.23497 m 0,0 6.22103,5.94635 m 0,0 6.4666,5.64277 m 0,0 6.69589,5.3252 m 0,0 6.90857,4.99424 m 0,0 7.10392,4.65083 m 0,0 7.28148,4.29575 m 0,0 7.44088,3.93001 m 0,0 7.58167,3.55437 m 0,0 7.70356,3.16985 m 0,0 7.80612,2.7775 m 0,0 7.88919,2.37814 m 0,0 7.95257,1.97284 m 0,0 7.99608,1.56248 m 0,0 8.01953,1.14845 m 0,0 8.02302,0.73155 m 0,0 8.00641,0.31279 m 0,0 7.9698,-0.10611 m 0,0 7.9133,-0.5267 m 0,0 7.83696,-0.94434 m 0,0 7.74106,-1.36013 m 0,0 7.62578,-1.77233 m 0,0 7.49155,-2.18018 m 0,0 7.33843,-2.5826 m 0,0 7.16714,-2.9785 m 0,0 6.9778,-3.36698 m 0,0 6.77106,-3.74711 m 0,0 6.54744,-4.11779 m 0,0 6.30742,-4.47821 m 0,0 6.05164,-4.82745 m 0,0 5.78067,-5.16458 m 0,0 5.49537,-5.48887 m 0,0 5.19625,-5.7994 m 0,0 4.88418,-6.09541 m 0,0 4.55987,-6.37621 m 0,0 4.22425,-6.64111 m 0,0 3.87795,-6.88934 m 0,0 3.52198,-7.12042 m 0,0 3.1573,-7.33365 m 0,0 2.78461,-7.52861 m 0,0 2.40508,-7.70467 m 0,0 2.01945,-7.86152 m 0,0 1.62882,-7.99869 m 0,0 1.23413,-8.11592 m 0,0 0.83627,-8.21281 m 0,0 0.43614,-8.28921 m 0,0 0.0333,-8.34487 m 0,0 -0.36557,-8.37972 m 0,0 -0.76583,-8.3936 m 0,0 -1.16401,-8.38643 m 0,0 -1.55954,-8.35838 m 0,0 -1.95094,-8.30938 m 0,0 -2.33742,-8.2397 m 0,0 -2.71821,-8.14931 m 0,0 -3.09213,-8.03864 m 0,0 -3.45831,-7.90785 m 0,0 -3.81589,-7.75729 m 0,0 -4.16391,-7.58733 m 0,0 -4.50149,-7.39843 m 0,0 -4.82783,-7.19103 m 0,0 -5.14219,-6.96569 m 0,0 -5.4436,-6.72284 m 0,0 -5.73139,-6.46326 m 0,0 -6.00496,-6.18753 m 0,0 -6.26342,-5.89629 m 0,0 -6.50627,-5.59038 m 0,0 -6.7329,-5.27048 m 0,0 -6.94263,-4.93729 m 0,0 -7.13497,-4.59193 m 0,0 -7.30959,-4.23497 m 0,0 -7.46588,-3.86751 m 0,0 -7.60351,-3.49031 m 0,0 -7.72217,-3.10446 m 0,0 -7.82146,-2.71077 m 0,0 -7.90124,-2.31036 m 0,0 -7.96124,-1.90428 m 0,0 -8.00141,-1.4932 m 0,0 -8.02153,-1.07856 m 0,0 -8.02163,-0.6611 m 0,0 -8.00169,-0.24223 m 0,0 -7.96169,0.17723 m 0,0 -7.9018,0.5967 m 0,0 -7.82223,1.01439 m 0,0 -7.72301,1.42964 m 0,0 -7.60456,1.84122 m 0,0 -7.46704,2.24825 m 0,0 -7.31093,2.64965 m 0,0 -7.13653,3.0444 m 0,0 -6.94424,3.43148 m 0,0 -6.73467,3.81011 m 0,0 -4.34581,2.73316"
     inkscape:connector-curvature="0" />
</svg>
