<svg width="512" xmlns="http://www.w3.org/2000/svg" viewBox="0 0 512 512" height="512">
<g fill="none" stroke-linejoin="round" stroke-linecap="round" stroke-width="16">
<g stroke="#000">
<path d="m216.6276,29.6088-196.8619,196.8619"/>
<path d="m19.7657,226.4707 137.8033,255.9205"/>
<path d="m157.569,482.3912 334.6653-137.8033"/>
<path d="m492.2343,344.5879-275.6067-314.979"/>
</g>
<path stroke="#f00" d="m125.0468,124.9298-6.3489,4.4184-6.0957,4.7696-5.8273,5.1088-5.5443,5.4353-5.2475,5.7482-4.9375,6.0467-4.6152,6.3301-4.2814,6.5977-3.9369,6.8488-3.5825,7.0828-3.2192,7.2991-2.8478,7.4971-2.4693,7.6764-2.0846,7.8365-1.6948,7.977-1.3006,8.0976-.9034,8.1979-.5039,8.2778-.1022,8.337 .2984,8.3753 .6987,8.3927 1.0973,8.3891 1.4932,8.3646 1.8853,8.3191 2.2729,8.2528 2.6547,8.166 3.0297,8.0587 3.3974,7.9312 3.7564,7.784 4.1061,7.6173 4.4455,7.4315 4.7738,7.2272 5.0902,7.0048 5.3938,6.7648 5.684,6.5081 5.96,6.235 6.221,5.9463 6.4666,5.6428 6.6959,5.3252 6.9086,4.9942 7.1039,4.6508 7.2815,4.2957 7.4409,3.93 7.5817,3.5544 7.7036,3.1698 7.8061,2.7775 7.8892,2.3781 7.9526,1.9728 7.9961,1.5625 8.0195,1.1485 8.023,.7316 8.0064,.3128 7.9698-.1061 7.9133-.5267 7.837-.9443 7.7411-1.3601 7.6258-1.7723 7.4916-2.1802 7.3384-2.5826 7.1671-2.9785 6.9778-3.367 6.7711-3.7471 6.5474-4.1178 6.3074-4.4782 6.0516-4.8274 5.7807-5.1646 5.4954-5.4889 5.1963-5.7994 4.8842-6.0954 4.5599-6.3762 4.2242-6.6411 3.8779-6.8893 3.522-7.1204 3.1573-7.3336 2.7846-7.5286 2.4051-7.7047 2.0195-7.8615 1.6288-7.9987 1.2341-8.1159 .8363-8.2128 .4361-8.2892 .0333-8.3449-.3656-8.3797-.7658-8.3936-1.164-8.3864-1.5595-8.3584-1.9509-8.3094-2.3374-8.2397-2.7182-8.1493-3.0921-8.0386-3.4583-7.9078-3.8159-7.7573-4.1639-7.5873-4.5015-7.3984-4.8278-7.191-5.1422-6.9657-5.4436-6.7228-5.7314-6.4633-6.005-6.1875-6.2634-5.8963-6.5063-5.5904-6.7329-5.2705-6.9426-4.9373-7.135-4.5919-7.3096-4.235-7.4659-3.8675-7.6035-3.4903-7.7222-3.1045-7.8215-2.7108-7.9012-2.3104-7.9612-1.9043-8.0014-1.4932-8.0215-1.0786-8.0216-.6611-8.0017-.2422-7.9617,.1772-7.9018,.5967-7.8222,1.0144-7.723,1.4296-7.6046,1.8412-7.467,2.2482-7.3109,2.6496-7.1365,3.0444-6.9442,3.4315-6.7347,3.8101-4.3458,2.7332"/>
</g>
</svg>
