<svg xmlns="http://www.w3.org/2000/svg" viewBox="0 0 512 512"><g style="fill:none;stroke-linecap:round;stroke-linejoin:round;stroke-width:16"><g style="stroke:#fff"><path d="m216.63 29.609l-196.86 196.86"/><path d="m19.766 226.47l137.8 255.92"/><path d="m157.57 482.39l334.67-137.8"/><path d="m492.23 344.59l-275.61-314.98"/></g><path d="m125.05 124.93l-6.349 4.418-6.096 4.77-5.827 5.109-5.544 5.435-5.248 5.748-4.938 6.05-4.615 6.33-4.281 6.598-3.937 6.849-3.582 7.083-3.219 7.299-2.848 7.497-2.469 7.676-2.085 7.837-1.695 7.977-1.301 8.098-.903 8.198-.504 8.278-.102 8.337.298 8.375.699 8.393 1.097 8.389 1.493 8.365 1.885 8.319 2.273 8.253 2.655 8.166 3.03 8.06 3.397 7.931 3.756 7.784 4.106 7.617 4.445 7.431 4.774 7.227 5.09 7 5.394 6.765 5.684 6.508 5.96 6.235 6.221 5.946 6.467 5.643 6.696 5.325 6.909 4.994 7.104 4.651 7.281 4.296 7.441 3.93 7.582 3.554 7.704 3.17 7.806 2.777 7.889 2.378 7.953 1.973 7.996 1.563 8.02 1.149 8.02.732 8.01.313 7.97-.106 7.913-.527 7.837-.944 7.741-1.36 7.626-1.772 7.492-2.18 7.338-2.583 7.167-2.978 6.978-3.367 6.771-3.747 6.547-4.118 6.307-4.478 6.05-4.827 5.781-5.165 5.495-5.489 5.196-5.799 4.884-6.095 4.56-6.376 4.224-6.641 3.878-6.889 3.522-7.12 3.157-7.334 2.785-7.529 2.405-7.705 2.02-7.861 1.629-7.999 1.234-8.116.836-8.213.436-8.289.033-8.345-.366-8.38-.766-8.394-1.164-8.386-1.56-8.358-1.951-8.309-2.337-8.24-2.718-8.149-3.092-8.04-3.458-7.908-3.816-7.757-4.164-7.587-4.502-7.398-4.828-7.191-5.142-6.966-5.444-6.723-5.731-6.463-6-6.188-6.263-5.896-6.506-5.59-6.733-5.27-6.943-4.937-7.135-4.592-7.31-4.235-7.466-3.868-7.603-3.49-7.722-3.105-7.822-2.711-7.901-2.31-7.961-1.904-8-1.493-8.02-1.079-8.02-.661-8-.242-7.962.177-7.902.597-7.822 1.014-7.723 1.43-7.605 1.841-7.467 2.248-7.311 2.65-7.137 3.044-6.944 3.432-6.735 3.81-4.346 2.733" style="stroke:#f00"/></g></svg>
