<svg width="512" xmlns="http://www.w3.org/2000/svg" height="512">
<defs/>
<g transform="translate(0 464)">
<path fill="#999" d="m350.7769-376.7152c41.2152,16.6218 78.9291,48.1031 117.4241,75.4724 7.2655,42.2254-45.9239-10.6623-32.556,26.4633 17.5567,25.6203 45.8004,33.8728 58.0618,66.9885 5.4349,41.9022-24.691,48.3934-43.606,54.2918-19.01,12.1897-33.7871,36.4651-53.4066,46.7323-9.4365,31.1769-33.1048,34.8668-50.4179,54.2514-15.1061,3.3615-28.6147,8.9912-42.8029,16.1142-1.3634-19.8298-14.1296-42.7933-26.8685-20.8004-5.6263,19.8605-31.9346,45.8847-37.5451,15.9226 3.2375-.5322 17.7055,4.1306 16.6167-15.8131-5.0478-38.993-23.6625,19.2844-36.5093,21.4733-9.4657-3.5864 17.7172-25.5513-.5713-31.745-8.05,6.6245-20.0613,39.5369-28.9918,22.9363 19.2262-37.4859-22.1494-46.1247-37.3637-30.7117-12.2866-17.2442-39.2508,27.4656-40.0733-.7212 3.6779-8.2701 30.4336-11.8786 18.9577-17.6523-12.3813,12.271-31.4753-.4513-34.2687-11.2684-17.4159,6.8354 14.0038-33.2461-5.8631-19.9869-22.0215,6.464-38.0288-25.8578-30.6751-55.5227-11.5131-18.3073-37.5363,38.1986-33.7556-4.3047-9.0605-7.5473-14.0632-17.4837-.8312-21.3788 19.7715-13.3434 23.3277-58.9839 1.5436-63.2473 .9056-34.8012 24.8855-49.4463 41.9169-63.1474 59.6019-46.5423 127.9671-49.4562 193.2403-55.7699 29.5867-.997 59.3532,1.8365 88.345,11.4234zm16.1594,97.3998c-23.5086,6.4516-21.5755,50.8255-32.2516,75.7031-25.0677,60.9962-82.6748,83.8188-122.4322,44.1456-19.9401-17.2132-41.24-45.0517-40.9498-83.6521-8.282-40.8285-39.2155-18.7174-53.9183-.3243-21.6918,18.919-17.4888,63.0319 3.4332,78.7287 22.6405,26.8023 49.5937,44.1765 76.7403,56.4589 60.1722,20.0632 123.8632-8.0739 174.1797-60.3442 13.6472-17.0306 34.7948-37.149 29.4444-68.9592-5.5715-22.1273-20.8166-33.7327-34.2457-41.7566zm-147.5267,3.5294c-23.7404,16.8663-10.9073,80.304 13.7876,78.9153 20.6136-7.9099 13.0441-49.3799 .7411-65.1805-4.0541-6.2235-8.9066-11.6091-14.5287-13.7348zm163.0335,161.2498c-9.4008,2.7699 7.7441,8.7248 0,0zm-60.0448,38.3593c-11.8223-.56 5.3239,16.6775 0,0zm-41.1336,18.5276c13.3213,20.056-14.512,7.7968 0,0zm-194.7006-66.1528c-1.7989,24.047-16.3667-.1957 0,0zm81.9843,48.7114c1.2129,21.6038-16.6385-4.874 0,0zm36.2587,13.0887c-16.469,4.5654 .4324,26.8142 0,0zm-18.1378,2.3353c-5.48,6.3882-29.5937,39.4838-18.3727,11.1808 5.2148-6.5076 11.7608-10.1123 18.3727-11.1808zm-34.7734-.2358c-4.758,22.3338-15.589-3.6378 0,0z"/>
</g>
</svg>
