<?xml version="1.0" encoding="UTF-8" standalone="no"?>
<svg
   xmlns:dc="http://purl.org/dc/elements/1.1/"
   xmlns:cc="http://creativecommons.org/ns#"
   xmlns:rdf="http://www.w3.org/1999/02/22-rdf-syntax-ns#"
   xmlns:svg="http://www.w3.org/2000/svg"
   xmlns="http://www.w3.org/2000/svg"
   xmlns:sodipodi="http://sodipodi.sourceforge.net/DTD/sodipodi-0.dtd"
   xmlns:inkscape="http://www.inkscape.org/namespaces/inkscape"
   width="512"
   height="512"
   id="svg2"
   version="1.1"
   inkscape:version="0.48.2 r9819"
   sodipodi:docname="DimRegen.svg">
  <metadata
     id="metadata30">
    <rdf:RDF>
      <cc:Work
         rdf:about="">
        <dc:format>image/svg+xml</dc:format>
        <dc:type
           rdf:resource="http://purl.org/dc/dcmitype/StillImage" />
      </cc:Work>
    </rdf:RDF>
  </metadata>
  <sodipodi:namedview
     pagecolor="#ffffff"
     bordercolor="#666666"
     borderopacity="1"
     objecttolerance="10"
     gridtolerance="10"
     guidetolerance="10"
     inkscape:pageopacity="0"
     inkscape:pageshadow="2"
     inkscape:window-width="640"
     inkscape:window-height="480"
     id="namedview28"
     showgrid="false"
     inkscape:zoom="0.4609375"
     inkscape:cx="256"
     inkscape:cy="256"
     inkscape:window-x="0"
     inkscape:window-y="0"
     inkscape:window-maximized="0"
     inkscape:current-layer="svg2" />
  <defs
     id="defs4" />
  <g
     transform="translate(0 492)"
     id="g6">
    <g
       stroke="#000"
       id="g8">
      <g
         fill="none"
         stroke-linecap="square"
         stroke-width="16"
         id="g10">
        <path
           d="m424-260 0,144"
           id="path12" />
        <path
           d="m72-228 352,0"
           id="path14" />
      </g>
      <path
         stroke-linejoin="round"
         stroke-linecap="round"
         stroke-width="8"
         d="m424-228-71.6515-35.5817 .1952,71.5539l71.4563-35.9722z"
         id="path16" />
      <path
         fill="none"
         stroke-linecap="square"
         stroke-width="16"
         d="m72-260 0,144"
         id="path18" />
      <path
         stroke-linejoin="round"
         stroke-linecap="round"
         stroke-width="8"
         d="m72-228 71.6515,35.5817-.1952-71.5539l-71.4563,35.9722z"
         id="path20" />
    </g>
    <path
       stroke-dasharray="24,24"
       fill="none"
       stroke="#00f"
       stroke-width="8"
       d="m168-276 0-96 160,0 0,96z"
       id="path22" />
    <g
       style="font-size:114.79171753px;line-height:125%;letter-spacing:0;word-spacing:0;font-family:Sans"
       id="text24">
      <path
         d="M 186.68086,-291.7426 205.17758,-291.7426 205.17758,-355.58428 185.05539,-351.54864 185.05539,-361.86195 205.06547,-365.8976 216.3877,-365.8976 216.3877,-291.7426 234.88442,-291.7426 234.88442,-282.21399 186.68086,-282.21399 186.68086,-291.7426"
         style=""
         id="path3008" />
      <path
         d="M 282.02301,-358.44286 C 276.19371,-358.44279 271.80308,-355.56552 268.85111,-349.81107 265.93646,-344.09384 264.47914,-335.48073 264.47916,-323.97172 264.47914,-312.49999 265.93646,-303.88688 268.85111,-298.13237 271.80308,-292.4152 276.19371,-289.55662 282.02301,-289.55662 287.8896,-289.55662 292.28023,-292.4152 295.19491,-298.13237 298.14686,-303.88688 299.62286,-312.49999 299.62291,-323.97172 299.62286,-335.48073 298.14686,-344.09384 295.19491,-349.81107 292.28023,-355.56552 287.8896,-358.44279 282.02301,-358.44286 M 282.02301,-367.41097 C 291.40211,-367.41088 298.5579,-363.69286 303.49041,-356.25689 308.46017,-348.85814 310.94508,-338.09642 310.94514,-323.97172 310.94508,-309.8843 308.46017,-299.12258 303.49041,-291.68655 298.5579,-284.28786 291.40211,-280.58852 282.02301,-280.58852 272.64384,-280.58852 265.46937,-284.28786 260.49956,-291.68655 255.5671,-299.12258 253.10087,-309.8843 253.10088,-323.97172 253.10087,-338.09642 255.5671,-348.85814 260.49956,-356.25689 265.46937,-363.69286 272.64384,-367.41088 282.02301,-367.41097"
         style=""
         id="path3010" />
    </g>
  </g>
</svg>
