<svg xmlns="http://www.w3.org/2000/svg" viewBox="0 0 512 512"><g transform="translate(0 492)"><path transform="translate(0-492)" d="m440 472v-240" fill="none" stroke="#fff" stroke-width="8"/><g transform="matrix(1.5 0 0 1.5-230 235.91)" fill="#fff"><path d="m252.06-398.19c-2.708 3.125-5.75 5.646-9.125 7.563-3.333 1.875-6.688 2.813-10.06 2.813-3.708 0-7.313-1.083-10.813-3.25-3.5-2.167-6.354-5.5-8.563-10-2.167-4.5-3.25-9.437-3.25-14.813 0-6.625 1.687-13.25 5.063-19.875 3.417-6.667 7.646-11.667 12.688-15 5.04-3.333 9.937-5 14.688-5 3.625 0 7.083.958 10.375 2.875 3.292 1.875 6.125 4.75 8.5 8.625l2.125-9.688h11.188l-9 41.938c-1.25 5.833-1.875 9.06-1.875 9.688 0 1.125.417 2.104 1.25 2.938.875.792 1.917 1.188 3.125 1.188 2.208 0 5.104-1.271 8.688-3.813 4.75-3.333 8.5-7.792 11.25-13.375 2.792-5.625 4.187-11.417 4.188-17.375 0-6.958-1.792-13.458-5.375-19.5-3.542-6.04-8.854-10.875-15.938-14.5-7.04-3.625-14.833-5.437-23.375-5.438-9.75 0-18.667 2.292-26.75 6.875-8.04 4.542-14.292 11.08-18.75 19.625-4.417 8.5-6.625 17.625-6.625 27.375 0 10.208 2.208 19 6.625 26.375 4.458 7.375 10.875 12.812 19.25 16.313 8.417 3.542 17.729 5.312 27.938 5.313 10.917 0 20.06-1.833 27.438-5.5 7.375-3.667 12.896-8.125 16.563-13.375h11.313c-2.125 4.375-5.771 8.833-10.938 13.375-5.167 4.542-11.313 8.125-18.438 10.75-7.125 2.667-15.708 4-25.75 4-9.25 0-17.792-1.188-25.625-3.563-7.792-2.375-14.438-5.958-19.938-10.75-5.5-4.75-9.646-10.229-12.438-16.438-3.5-7.875-5.25-16.375-5.25-25.5 0-10.167 2.083-19.854 6.25-29.06 5.083-11.292 12.292-19.937 21.625-25.938 9.375-6 20.729-9 34.06-9 10.333 0 19.604 2.125 27.813 6.375 8.25 4.208 14.75 10.5 19.5 18.875 4.04 7.208 6.06 15.04 6.06 23.5 0 12.08-4.25 22.813-12.75 32.19-7.583 8.417-15.875 12.625-24.875 12.625-2.875 0-5.208-.438-7-1.313-1.75-.875-3.042-2.125-3.875-3.75-.542-1.042-.938-2.833-1.188-5.375m-30.25-16.938c0 5.708 1.354 10.146 4.063 13.313 2.708 3.167 5.812 4.75 9.313 4.75 2.333 0 4.792-.687 7.375-2.063 2.583-1.417 5.04-3.5 7.375-6.25 2.375-2.75 4.312-6.229 5.813-10.438 1.5-4.25 2.25-8.5 2.25-12.75 0-5.667-1.417-10.06-4.25-13.188-2.792-3.125-6.208-4.687-10.25-4.688-2.667 0-5.188.688-7.563 2.063-2.333 1.333-4.604 3.5-6.813 6.5-2.208 3-3.979 6.646-5.313 10.938-1.333 4.292-2 8.229-2 11.813"/><path d="m310.44-388l24.25-34.5-22.438-31.875h14.06l10.188 15.563c1.917 2.958 3.458 5.438 4.625 7.438 1.833-2.75 3.521-5.187 5.063-7.313l11.188-15.688h13.438l-22.938 31.25 24.688 35.13h-13.813l-13.625-20.625-3.625-5.563-17.438 26.19h-13.625"/><path d="m383.88-388v-12.813h12.813v12.813c0 4.708-.833 8.5-2.5 11.375-1.667 2.917-4.313 5.167-7.938 6.75l-3.125-4.813c2.375-1.042 4.125-2.583 5.25-4.625 1.125-2 1.75-4.896 1.875-8.688h-6.375"/><path d="m415.94-362.44l-1.25-10.563c2.458.667 4.604 1 6.438 1 2.5 0 4.5-.417 6-1.25 1.5-.833 2.729-2 3.688-3.5.708-1.125 1.854-3.917 3.438-8.375.208-.625.542-1.542 1-2.75l-25.19-66.5h12.13l13.813 38.438c1.792 4.875 3.396 10 4.813 15.375 1.292-5.167 2.833-10.208 4.625-15.12l14.188-38.688h11.25l-25.25 67.5c-2.708 7.292-4.813 12.312-6.313 15.06-2 3.708-4.292 6.417-6.875 8.125-2.583 1.75-5.667 2.625-9.25 2.625-2.167 0-4.583-.458-7.25-1.375"/></g><path d="m40-260h400" fill="none" stroke="#fff" stroke-width="8"/><path d="m408-260a32 32 0 1 1 64 0 32 32 0 0 1 -64 0" fill="#f00"/></g></svg>