<svg xmlns="http://www.w3.org/2000/svg" viewBox="0 0 512 512">
<defs/>
<g transform="translate(0 464)">
<g fill="#f00">
<path d="m16.5,4.5c0,.5523-.4477,1-1,1-.5523,0-1-.4477-1-1 0-.5523 .4477-1 1-1 .5523,0 1,.4477 1,1z" transform="matrix(-31.99998 0 0 -31.99998 935.99969 55.99989)"/>
<path d="m16.5,4.5c0,.5523-.4477,1-1,1-.5523,0-1-.4477-1-1 0-.5523 .4477-1 1-1 .5523,0 1,.4477 1,1z" transform="matrix(-31.99998 0 0 -31.99998 567.99969 -200.00007)"/>
</g>
<path fill="none" stroke="#000" stroke-width="16" d="m72,120 92,64 20-112 272,192-108,48 92,64 0,0" transform="translate(0 -464)"/>
</g>
</svg>
