<?xml version="1.0" encoding="utf-8"?>
<!-- Generator: Adobe Illustrator 14.0.0, SVG Export Plug-In . SVG Version: 6.00 Build 43363)  -->
<!DOCTYPE svg PUBLIC "-//W3C//DTD SVG 1.0//EN" "http://www.w3.org/TR/2001/REC-SVG-20010904/DTD/svg10.dtd">
<svg version="1.0" id="Layer_1" xmlns="http://www.w3.org/2000/svg" xmlns:xlink="http://www.w3.org/1999/xlink" x="0px" y="0px"
	 width="73.983px" height="100px" viewBox="0 0 73.983 100" enable-background="new 0 0 73.983 100" xml:space="preserve">
<path d="M70.045,0l3.938,37.375c0,4.659-0.824,9.048-2.479,13.155c-1.65,4.113-3.896,7.691-6.735,10.744
	c-2.842,3.05-6.243,5.465-10.206,7.246c-3.96,1.776-8.264,2.668-12.908,2.668v19.324h22.628c1.949,0,3.389,0.481,4.322,1.45
	C69.538,92.937,70,94.015,70,95.192c0,1.188-0.465,2.277-1.396,3.291C67.67,99.503,66.231,100,64.282,100H9.152
	c-1.95,0-3.389-0.497-4.323-1.517c-0.931-1.01-1.396-2.104-1.396-3.291c0-1.178,0.465-2.256,1.396-3.229
	c0.935-0.969,2.375-1.45,4.323-1.45H32.16V71.19c-4.576,0-8.836-0.893-12.774-2.67c-3.941-1.78-7.332-4.194-10.171-7.246
	c-2.839-3.051-5.085-6.631-6.736-10.742C0.824,46.425,0,42.036,0,37.377L3.812,0.002h44.5l7.881,17.669l2.541,1.145L68.4,42.207
	l0.513-0.254L52.498,0H70.045L70.045,0z"/>
</svg>
