<?xml version="1.0" encoding="utf-8"?>
<!-- Generator: Adobe Illustrator 15.1.0, SVG Export Plug-In . SVG Version: 6.00 Build 0)  -->
<!DOCTYPE svg PUBLIC "-//W3C//DTD SVG 1.1//EN" "http://www.w3.org/Graphics/SVG/1.1/DTD/svg11.dtd">
<svg version="1.1" id="Layer_1" xmlns="http://www.w3.org/2000/svg" xmlns:xlink="http://www.w3.org/1999/xlink" x="0px" y="0px"
	 width="80.534px" height="100px" viewBox="0 0 80.534 100" enable-background="new 0 0 80.534 100" xml:space="preserve">
<path d="M40.219,24.927c-11.603,0-21.01,9.406-21.01,21.011c0,3.82,1.073,7.372,2.8,10.488c5.161,9.297,6.527,14.517,7.369,19.568
	c0.706,4.234,1.684,5.218,4.883,5.218c1.36,0,3.587,0,5.958,0c2.371,0,4.599,0,5.957,0c3.201,0,4.178-0.985,4.885-5.218
	c0.842-5.052,2.209-10.272,7.368-19.568c1.729-3.116,2.801-6.668,2.801-10.488C61.23,34.333,51.823,24.927,40.219,24.927z"/>
<path d="M47.727,82.733H32.712c-0.621,0-1.126,0.503-1.126,1.126v0.751c0,0.622,0.505,1.126,1.126,1.126h15.015
	c0.621,0,1.126-0.504,1.126-1.126v-0.751C48.853,83.236,48.348,82.733,47.727,82.733z"/>
<path d="M47.727,87.237H32.712c-0.621,0-1.126,0.504-1.126,1.127v0.75c0,0.623,0.505,1.126,1.126,1.126h15.015
	c0.621,0,1.126-0.503,1.126-1.126v-0.75C48.853,87.741,48.348,87.237,47.727,87.237z"/>
<path d="M47.727,91.742H32.712c-0.621,0-1.126,0.503-1.126,1.126v0.751c0,0.622,0.505,1.126,1.126,1.126h15.015
	c0.621,0,1.126-0.504,1.126-1.126v-0.751C48.853,92.245,48.348,91.742,47.727,91.742z"/>
<path d="M34.589,96.246H45.85c0,2.253-3.003,3.754-5.631,3.754C37.592,100,34.589,98.499,34.589,96.246z"/>
<path d="M64.347,10.135c1.915-3.354-3.26-6.364-5.191-3.017c-1.01,1.75-8.328,14.426-8.328,14.426l5.2,3.003
	c0,0,6.508-11.272,8.312-14.397c0.001-0.002,0.002-0.004,0.002-0.005L64.347,10.135L64.347,10.135z"/>
<path d="M76.057,21.875L76.057,21.875l-0.006,0.003c-0.002,0.002-0.005,0.002-0.008,0.004c-2.64,1.524-13.957,8.06-13.957,8.06
	l3.003,5.2c0,0,11.346-6.55,13.984-8.073C82.421,25.136,79.412,19.959,76.057,21.875z"/>
<path d="M43.332,2.905c0,0.909,0,16.016,0,16.016h-6.006c0,0,0-15.107,0-16.016C37.326-0.968,43.332-0.968,43.332,2.905z"/>
<path d="M16.187,10.135c-1.916-3.354,3.26-6.364,5.191-3.017c1.009,1.75,8.329,14.426,8.329,14.426l-5.201,3.003
	c0,0-6.508-11.272-8.312-14.397c-0.001-0.002-0.002-0.004-0.002-0.005L16.187,10.135L16.187,10.135z"/>
<path d="M4.477,21.875L4.477,21.875l0.006,0.003c0.002,0.002,0.005,0.002,0.008,0.004c2.639,1.524,13.957,8.06,13.957,8.06
	l-3.003,5.2c0,0-11.346-6.55-13.984-8.073C-1.889,25.136,1.122,19.959,4.477,21.875z"/>
</svg>
