<svg xmlns="http://www.w3.org/2000/svg" xmlns:xlink="http://www.w3.org/1999/xlink" version="1.1" id="Layer_1" x="0px" y="0px" width="100px" height="100px" viewBox="0 0 100 100" enable-background="new 0 0 100 100" xml:space="preserve">
<path d="M94.547,59.498c-0.796,0.017-1.821,0.032-2.849,0.05c-1.028,0.016-2.048,0.031-2.812,0.049c-0.004,0-0.007,0-0.01,0  c-0.232,0-0.423-0.186-0.428-0.419c-0.006-0.236,0.182-0.432,0.418-0.438c0.767-0.016,1.789-0.032,2.817-0.049  c0.989-0.016,1.972-0.031,2.754-0.048c-0.248-1.839-0.6-3.645-1.064-5.406c-0.329,0.053-0.672,0.107-1.022,0.165  c-0.934,0.15-1.866,0.301-2.397,0.39c-0.024,0.005-0.048,0.007-0.071,0.007c-0.205,0-0.387-0.148-0.421-0.357  c-0.04-0.232,0.117-0.454,0.351-0.492c0.531-0.09,1.467-0.24,2.403-0.393c0.314-0.051,0.623-0.101,0.923-0.149  c-0.474-1.664-1.035-3.291-1.69-4.872l-4.142,1.292c-0.042,0.013-0.085,0.019-0.127,0.019c-0.183,0-0.352-0.118-0.409-0.301  c-0.069-0.226,0.057-0.465,0.282-0.536l4.054-1.266c-0.619-1.417-1.313-2.792-2.07-4.128l-2.142,0.98  c-0.057,0.026-0.117,0.039-0.178,0.039c-0.162,0-0.316-0.092-0.389-0.25c-0.099-0.215-0.005-0.468,0.211-0.567l2.067-0.947  c-0.768-1.294-1.596-2.548-2.485-3.754l-3.016,1.87c-0.07,0.044-0.148,0.065-0.226,0.065c-0.143,0-0.283-0.072-0.363-0.203  c-0.125-0.201-0.063-0.464,0.138-0.589l2.947-1.829c-0.858-1.118-1.767-2.194-2.724-3.225l-1.492,1.199  c-0.078,0.064-0.174,0.095-0.268,0.095c-0.125,0-0.249-0.054-0.334-0.159c-0.148-0.185-0.118-0.454,0.066-0.602l1.435-1.153  c-0.99-1.028-2.029-2.008-3.114-2.938l-2.364,2.434c-0.084,0.086-0.196,0.13-0.308,0.13c-0.106,0-0.215-0.041-0.297-0.121  c-0.17-0.165-0.174-0.436-0.01-0.605l2.329-2.398c-1.066-0.88-2.177-1.71-3.323-2.49l-1.237,1.631  c-0.085,0.111-0.212,0.169-0.341,0.169c-0.09,0-0.182-0.028-0.259-0.086c-0.188-0.143-0.226-0.412-0.082-0.6l1.2-1.583  c-1.204-0.786-2.447-1.515-3.729-2.186l-1.824,3.169c-0.079,0.138-0.223,0.214-0.37,0.214c-0.073,0-0.146-0.019-0.213-0.057  c-0.206-0.118-0.275-0.379-0.158-0.584l1.804-3.132c-1.266-0.631-2.565-1.204-3.896-1.715l-0.933,2.226  c-0.068,0.164-0.228,0.262-0.396,0.262c-0.055,0-0.11-0.011-0.165-0.034c-0.218-0.091-0.32-0.342-0.229-0.56l0.924-2.202  c-1.392-0.504-2.813-0.94-4.264-1.307l-1.048,3.856c-0.052,0.19-0.225,0.316-0.413,0.316c-0.037,0-0.074-0.005-0.112-0.015  c-0.229-0.062-0.362-0.297-0.301-0.525l1.039-3.825c-1.414-0.328-2.852-0.589-4.312-0.779l-0.362,2.662  c-0.029,0.215-0.213,0.371-0.423,0.371c-0.021,0-0.039-0.001-0.06-0.004c-0.234-0.032-0.397-0.248-0.365-0.481l0.361-2.655  c-1.494-0.166-3.01-0.257-4.544-0.271v4.119c0,0.236-0.19,0.428-0.428,0.428c-0.236,0-0.428-0.191-0.428-0.428V19.87  c-1.488,0.014-2.958,0.098-4.407,0.254l0.352,2.661c0.031,0.235-0.134,0.45-0.368,0.48c-0.019,0.002-0.038,0.004-0.057,0.004  c-0.211,0-0.395-0.157-0.423-0.372l-0.353-2.665c-1.507,0.191-2.99,0.458-4.446,0.796l1.038,3.825  c0.062,0.229-0.073,0.463-0.301,0.525c-0.038,0.01-0.075,0.015-0.112,0.015c-0.189,0-0.361-0.125-0.413-0.316l-1.046-3.856  c-1.407,0.355-2.788,0.779-4.139,1.264l0.917,2.208c0.091,0.218-0.013,0.468-0.231,0.559c-0.053,0.022-0.109,0.033-0.164,0.033  c-0.168,0-0.327-0.1-0.395-0.264l-0.929-2.234c-1.373,0.523-2.714,1.113-4.019,1.764l1.805,3.133  c0.118,0.205,0.048,0.466-0.157,0.584c-0.067,0.039-0.141,0.057-0.213,0.057c-0.148,0-0.292-0.077-0.372-0.214l-1.826-3.169  c-1.242,0.65-2.449,1.356-3.619,2.116l1.199,1.589c0.142,0.189,0.105,0.458-0.084,0.599c-0.077,0.059-0.167,0.086-0.257,0.086  c-0.13,0-0.258-0.059-0.342-0.17l-1.238-1.641c-1.184,0.801-2.328,1.658-3.429,2.565l2.331,2.399  c0.165,0.169,0.161,0.44-0.009,0.604c-0.083,0.081-0.19,0.122-0.298,0.122c-0.112,0-0.223-0.043-0.307-0.13l-2.365-2.434  c-1.052,0.901-2.062,1.85-3.026,2.844l1.434,1.158c0.184,0.149,0.212,0.418,0.064,0.602c-0.084,0.104-0.208,0.159-0.333,0.159  c-0.094,0-0.189-0.031-0.269-0.095l-1.488-1.203c-0.99,1.06-1.928,2.167-2.812,3.318l2.946,1.829  c0.201,0.125,0.263,0.388,0.138,0.589c-0.081,0.131-0.221,0.203-0.364,0.203c-0.077,0-0.155-0.021-0.225-0.065l-3.015-1.871  c-0.863,1.17-1.669,2.383-2.418,3.636l2.058,0.95c0.214,0.1,0.308,0.354,0.208,0.567c-0.072,0.157-0.227,0.249-0.389,0.249  c-0.06,0-0.121-0.013-0.179-0.039l-2.126-0.983c-0.785,1.373-1.501,2.789-2.141,4.248l4.055,1.266  c0.226,0.071,0.352,0.311,0.281,0.536c-0.057,0.183-0.226,0.301-0.408,0.301c-0.042,0-0.085-0.006-0.127-0.019l-4.142-1.292  c-0.628,1.513-1.169,3.07-1.63,4.662c0.291,0.054,0.589,0.109,0.894,0.167c0.936,0.177,1.869,0.353,2.397,0.442  c0.233,0.04,0.39,0.261,0.35,0.494c-0.036,0.209-0.217,0.355-0.421,0.355c-0.024,0-0.048-0.002-0.073-0.006  c-0.53-0.09-1.47-0.267-2.411-0.445c-0.332-0.062-0.657-0.123-0.971-0.182c-0.493,1.83-0.867,3.706-1.125,5.62  c0.782,0.017,1.767,0.032,2.756,0.048c1.029,0.017,2.049,0.033,2.816,0.049c0.236,0.006,0.424,0.201,0.419,0.438  c-0.005,0.233-0.196,0.419-0.428,0.419c-0.003,0-0.005,0-0.009,0c-0.766-0.018-1.785-0.033-2.812-0.049  c-1.027-0.018-2.055-0.033-2.851-0.05c-0.194,1.69-0.305,3.408-0.305,5.15v5.189h6.102v-4.104c0-0.248,0.201-0.448,0.448-0.448  c0.248,0,0.448,0.2,0.448,0.448v4.104h2.331V67.25c0-0.248,0.201-0.448,0.448-0.448c0.247,0,0.448,0.2,0.448,0.448v2.588h2.249  v-4.104c0-0.248,0.201-0.448,0.448-0.448c0.248,0,0.448,0.2,0.448,0.448v4.104h2.331V67.25c0-0.248,0.201-0.448,0.448-0.448  c0.247,0,0.448,0.2,0.448,0.448v2.588h2.25v-4.104c0-0.248,0.201-0.448,0.448-0.448c0.248,0,0.448,0.2,0.448,0.448v4.104h2.331  V67.25c0-0.248,0.201-0.448,0.448-0.448c0.247,0,0.448,0.2,0.448,0.448v2.588h2.25v-4.104c0-0.248,0.201-0.448,0.448-0.448  c0.248,0,0.448,0.2,0.448,0.448v4.104h2.331V67.25c0-0.248,0.201-0.448,0.448-0.448c0.247,0,0.448,0.2,0.448,0.448v2.588h2.25  v-4.104c0-0.248,0.201-0.448,0.448-0.448c0.248,0,0.448,0.2,0.448,0.448v4.104h2.331V67.25c0-0.248,0.201-0.448,0.448-0.448  c0.247,0,0.448,0.2,0.448,0.448v2.588h2.25v-4.104c0-0.248,0.201-0.448,0.448-0.448c0.247,0,0.448,0.2,0.448,0.448v4.104h2.331  V67.25c0-0.248,0.201-0.448,0.448-0.448c0.247,0,0.448,0.2,0.448,0.448v2.588h2.25v-4.104c0-0.248,0.2-0.448,0.448-0.448  s0.448,0.2,0.448,0.448v4.104h2.331V67.25c0-0.248,0.2-0.448,0.448-0.448s0.448,0.2,0.448,0.448v2.588h2.25v-4.104  c0-0.248,0.2-0.448,0.448-0.448s0.448,0.2,0.448,0.448v4.104h2.33V67.25c0-0.248,0.2-0.448,0.448-0.448s0.448,0.2,0.448,0.448v2.588  h2.25v-4.104c0-0.248,0.2-0.448,0.448-0.448s0.448,0.2,0.448,0.448v4.104h2.33V67.25c0-0.248,0.2-0.448,0.448-0.448  s0.448,0.2,0.448,0.448v2.588h2.25v-4.104c0-0.248,0.2-0.448,0.448-0.448s0.448,0.2,0.448,0.448v4.104h2.33V67.25  c0-0.248,0.2-0.448,0.448-0.448s0.448,0.2,0.448,0.448v2.588h2.25v-4.104c0-0.248,0.2-0.448,0.448-0.448s0.448,0.2,0.448,0.448  v4.104h2.33V67.25c0-0.248,0.2-0.448,0.448-0.448s0.448,0.2,0.448,0.448v2.588h2.25v-4.104c0-0.248,0.2-0.448,0.448-0.448  s0.448,0.2,0.448,0.448v4.104h2.33V67.25c0-0.248,0.2-0.448,0.448-0.448s0.448,0.2,0.448,0.448v2.588h2.25v-4.104  c0-0.248,0.2-0.448,0.448-0.448s0.448,0.2,0.448,0.448v4.104h6.102v-5.189C94.852,62.906,94.741,61.188,94.547,59.498z   M50.062,63.047c-0.674,0-1.22-0.547-1.22-1.221s0.546-1.221,1.22-1.221s1.221,0.547,1.221,1.221S50.736,63.047,50.062,63.047z   M16.042,59.459c2.51-16.521,16.81-29.221,34.02-29.221s31.51,12.7,34.02,29.221H16.042z"/>
</svg>