<?xml version="1.0" encoding="utf-8"?>
<!-- Generator: Adobe Illustrator 14.0.0, SVG Export Plug-In . SVG Version: 6.00 Build 43363)  -->
<!DOCTYPE svg PUBLIC "-//W3C//DTD SVG 1.0//EN" "http://www.w3.org/TR/2001/REC-SVG-20010904/DTD/svg10.dtd">
<svg version="1.0" id="Layer_1" xmlns="http://www.w3.org/2000/svg" xmlns:xlink="http://www.w3.org/1999/xlink" x="0px" y="0px"
	 width="100px" height="86.034px" viewBox="0 0 100 86.034" enable-background="new 0 0 100 86.034" xml:space="preserve">
<circle cx="50.621" cy="56.842" r="3.718"/>
<path d="M45.258,43.013l1.785,5.848c1.093-0.489,2.3-0.771,3.577-0.771c0.355,0,0.704,0.028,1.049,0.066
	c0.024-8.558,0.101-38.832-0.006-46.655c-0.122-8.957-12.948,24.704-12.809,33.456C38.895,37.531,45.258,43.013,45.258,43.013z"/>
<path d="M75.816,57.748c-2.247-1.25-10.176,1.519-10.176,1.519l-6.322-1.462c-0.175,1.584-0.776,3.033-1.677,4.248
	c6.926,4.023,33.814,19.639,40.745,23.52C106.206,89.942,83.468,62.003,75.816,57.748z"/>
<path d="M42.208,59.23c-6.25,3.585-34.162,19.601-41.125,23.747c-7.695,4.582,27.87-1.139,35.381-5.634
	c2.207-1.324,3.772-9.576,3.772-9.576l4.318-4.625C43.456,62.081,42.635,60.738,42.208,59.23z"/>
</svg>
