<svg width="243.99" xmlns="http://www.w3.org/2000/svg" height="116.55" viewBox="-0.5 -116.045 243.985 116.545" style="fill:none;stroke-linecap:round;stroke-linejoin:round"><g transform="scale(1-1)"><path d="m160 0l40 40m-80-40l60.981 60.981m-100.98-60.981l75.62 75.62m-115.62-75.62l90.26 90.26m-130.26-90.26l100 100m-100-60l60 60m-60-20l20 20" style="stroke:#fff;stroke-width:.25"/><g style="fill:#000;fill-rule:evenodd"><path d="m170.19 74.71h-1.228v7.824c-.296-.282-.683-.564-1.163-.846-.48-.282-.911-.493-1.293-.634v1.187c.687.323 1.287.714 1.801 1.173.514.459.878.905 1.092 1.337h.791v-10.04m3.833 0v1.398h1.398v-1.398h-1.398"/><path d="m61.56 106.68v-1.18h-6.61c-.009.296.039.58.143.853.168.45.438.894.808 1.33.371.437.906.942 1.606 1.515 1.087.891 1.821 1.597 2.203 2.118.382.52.573 1.012.573 1.476 0 .487-.174.897-.522 1.232-.348.334-.801.501-1.361.501-.591 0-1.064-.177-1.419-.532-.355-.355-.534-.846-.539-1.474l-1.262.13c.086.941.412 1.659.975 2.152.564.494 1.321.74 2.272.74.959 0 1.719-.266 2.278-.798.559-.532.839-1.191.839-1.978 0-.4-.082-.793-.246-1.18-.164-.387-.435-.794-.815-1.221-.38-.428-1.01-1.014-1.893-1.76-.737-.618-1.21-1.038-1.419-1.258-.209-.221-.382-.443-.519-.666h4.904m2-1.18v1.399h1.398v-1.399h-1.398"/><path d="m233.14 70.79l1.227.164c.141-.696.381-1.197.72-1.504.339-.307.752-.46 1.238-.46.578 0 1.065.2 1.463.6.398.4.597.896.597 1.487 0 .564-.184 1.029-.552 1.395-.369.366-.837.549-1.406.549-.231 0-.52-.046-.866-.136l.137 1.078c.081-.009.147-.014.197-.014.523 0 .994.136 1.412.409.419.273.628.694.628 1.262 0 .45-.152.823-.457 1.119-.305.296-.698.443-1.18.443-.478 0-.876-.15-1.194-.45-.318-.3-.523-.75-.614-1.351l-1.228.218c.15.823.491 1.461 1.024 1.913.532.453 1.193.679 1.985.679.545 0 1.048-.117 1.507-.351.459-.234.811-.554 1.054-.958.243-.405.365-.835.365-1.289 0-.432-.116-.825-.348-1.18-.232-.355-.575-.637-1.03-.846.591-.136 1.05-.419 1.378-.849.327-.43.491-.968.491-1.613 0-.873-.318-1.613-.955-2.22-.637-.607-1.442-.911-2.415-.911-.877 0-1.606.261-2.186.784-.58.523-.911 1.201-.992 2.033m8.45-2.64v1.398h1.399v-1.398h-1.399"/></g><g style="stroke:#fff"><path d="m200 50v-50"/><path d="m0 100h113.4"/><path d="m200 50l-86.6 50"/></g><g style="fill:#00f;stroke:#00f;fill-rule:evenodd;stroke-width:.5"><path d="m231.61 100l1.241-10.06-3.327.141"/><path d="m215.77 40.895l3.153 9.635 2.952-1.542"/></g><g style="stroke:#00f;stroke-width:.5"><path d="m213.06 63.52l.575 2.146m4.293-1.15c.317 1.186-.386 2.404-1.572 2.722-1.185.318-2.404-.386-2.721-1.571m4.293-1.15l-.288-1.073m3.01 2.645c-1.185.318-2.404-.386-2.721-1.571m2.721 1.571l1.074-.288m1.571-2.722c.318 1.186-.386 2.404-1.571 2.722m1.571-2.722l-.575-2.147"/><path d="m216.45 74.02c-.379-.122-.69-.427-.8-.84-.111-.412.006-.832.272-1.127m-.002.002c.497-.633 1.141-1.158 1.895-1.517m4.295-1.15l.001-.001c.836-.066 1.655.067 2.402.366m-.004 0h.001c.378.122.689.427.799.84.111.412-.006.832-.272 1.127m.002-.002c-.498.633-1.141 1.158-1.895 1.517m0-.002h.005c-.647.33-1.335.597-2.061.791-.011.003-.022.006-.033.009m.002-.001c-.012.003-.024.006-.036.01-.727.195-1.456.308-2.175.345m.002-.002l-.001.001c-.835.066-1.652-.067-2.398-.365m3.453-4.28c.012-.003.024-.006.036-.01.727-.195 1.457-.308 2.177-.345m-4.3 1.154h-.005c.647-.33 1.335-.597 2.061-.791.012-.003.024-.006.035-.009"/><path d="m217.52 80.15c-.238-.889.289-1.803 1.179-2.041.889-.238 1.803.289 2.041 1.178.238.889-.29 1.803-1.179 2.041-.889.238-1.803-.289-2.041-1.178"/></g></g></svg>
