<?xml version="1.0" encoding="UTF-8"?>
<!-- 2016-05-25 09:53:15 Generated by QCAD SVG Exporter -->
<svg width="242.98469073788505" height="115.54531171866" viewBox="0 -115.54531171866 242.98469073788505 115.54531171866" version="1.1" xmlns="http://www.w3.org/2000/svg" style="stroke-linecap:round;stroke-linejoin:round;fill:none">
    <g transform="scale(1,-1)">
        <!-- Hatch -->
        <g>
            <path d="M160,0 L200,40" style="stroke:#000000;stroke-width:0.25;"/>
            <path d="M119.99999999999997,0 L180.98076211353313,60.98076211353317" style="stroke:#000000;stroke-width:0.25;"/>
            <path d="M79.99999999999999,0 L155.62177826491072,75.62177826491073" style="stroke:#000000;stroke-width:0.25;"/>
            <path d="M40,0 L130.26279441628827,90.26279441628827" style="stroke:#000000;stroke-width:0.25;"/>
            <path d="M0,1.39322105051e-16 L100,100" style="stroke:#000000;stroke-width:0.25;"/>
            <path d="M0,40 L60.00000000000001,100" style="stroke:#000000;stroke-width:0.25;"/>
            <path d="M0,80 L19.999999999999993,99.99999999999999" style="stroke:#000000;stroke-width:0.25;"/>
        </g>
        <!-- Text: 1. -->
        <g>
            <path d="M170.18679565256096,74.71219663587364 L168.95896482036449,74.71219663587364 L168.95896482036449,82.53620754992548 C168.6633759163172,82.25426121068037 168.27569969985518,81.97231487143526 167.79593617097842,81.69036853219015 C167.31617264210166,81.40842219294504 166.8852949704327,81.1969624385112 166.5033031559716,81.05598926888865 L166.5033031559716,82.24289240667855 C167.18997891768146,82.56576644033021 167.7902517689775,82.95685329799278 168.30412170985971,83.41615297966626 C168.81799165074193,83.87545266133976 169.18179337880017,84.32110977821107 169.39552689403436,84.75312433028019 L170.18679565256096,84.75312433028019 Z M174.0195378080862,74.71219663587364 L174.0195378080862,76.11055952809737 L175.41790070030993,76.11055952809737 L175.41790070030993,74.71219663587364 Z" style="fill:#000000;fill-rule:evenodd;"/>
        </g>
        <!-- Text: 2. -->
        <g>
            <path d="M61.55563666958419,106.68446587964226 L61.55563666958419,105.50438402425345 L54.94581402292662,105.50438402425345 C54.936718979725164,105.79997292830075 54.984467956532804,106.08419302834622 55.08906095334954,106.35704432438988 C55.25731925257646,106.80724896286192 55.52675990741957,107.25063231893286 55.897382917878865,107.6871943926027 C56.26800592833817,108.12375646627255 56.80347659682384,108.62853136395331 57.503794923335896,109.20151908564499 C58.590652585909794,110.09283331938761 59.3250773244273,110.79883604790056 59.70706913888842,111.31952727118387 C60.08906095334954,111.8402184944672 60.280056860580096,112.33248770774595 60.280056860580096,112.79633491102017 C60.280056860580096,113.28291972229802 60.106114159352266,113.69333354676368 59.75822875689661,114.02757638441716 C59.41034335444094,114.36181922207064 58.956728074768364,114.52894064089739 58.39738291787887,114.52894064089739 C57.80620510978428,114.52894064089739 57.33326286330861,114.35158729846901 56.97855617845185,113.99688061361225 C56.6238494935951,113.6421739287555 56.44422239036636,113.15104159587692 56.439674868765636,112.52348361497651 L55.177737624563726,112.65308798059725 C55.26414053497755,113.59442495194786 55.58928832942957,114.31179648446263 56.1531810079198,114.80520257814159 C56.71707368641002,115.29860867182053 57.47423603293117,115.54531171866 58.42466804748324,115.54531171866 C59.384195105236756,115.54531171866 60.14363121255827,115.27928170501744 60.70297636944776,114.74722167773231 C61.26232152633726,114.21516165044719 61.541994104782006,113.55577101834167 61.541994104782006,112.7690497814158 C61.541994104782006,112.36886788055178 61.46013871596891,111.97550726208884 61.29642793834272,111.58896792602698 C61.132717160716524,111.20242858996514 60.86100274507305,110.79542540670002 60.48128469141229,110.36795837623163 C60.10156663775154,109.94049134576323 59.47059801565058,109.35386105926938 58.58837882510943,108.60806751675004 C57.851680325791556,107.98960457905109 57.37873807931589,107.57009571138397 57.16955208568241,107.34954091374868 C56.96036609204894,107.1289861161134 56.787560271221295,106.90729443807793 56.65113462319947,106.68446587964226 Z M63.560275141616934,105.50438402425345 L63.560275141616934,106.90274691647718 L64.95863803384067,106.90274691647718 L64.95863803384067,105.50438402425345 Z" style="fill:#000000;fill-rule:evenodd;"/>
        </g>
        <!-- Text: 3. -->
        <g>
            <path d="M233.1355775045972,70.78976348167083 L234.36340833679364,70.95347425929702 C234.5043815064162,70.2577034543857 234.7442632708546,69.75633919790549 235.0830536301088,69.44938148985636 C235.421843989363,69.14242378180725 235.83453157462904,68.9889449277827 236.3211163859069,68.9889449277827 C236.8986516291993,68.9889449277827 237.3863733208773,69.18903587821471 237.78428146094097,69.58921777907875 C238.18218960100467,69.98939967994278 238.38114367103648,70.48507953442208 238.38114367103648,71.07625734251667 C238.38114367103648,71.64015002100689 238.19696904620702,72.1051341046813 237.82861979654808,72.47120959353987 C237.46027054688915,72.83728508239844 236.9918758220142,73.02032282682772 236.42343562192326,73.02032282682772 C236.19151202028615,73.02032282682772 235.90274439863995,72.97484761082045 235.55713275698463,72.8838971788059 L235.69355840500646,73.96165979817833 C235.77541379381958,73.95256475497688 235.84135285703013,73.94801723337615 235.89137559463813,73.94801723337615 C236.4143405787218,73.94801723337615 236.8850090643971,74.08444288139798 237.30338105166405,74.35729417744163 C237.72175303893098,74.6301454734853 237.93093903256445,75.0507912215526 237.93093903256445,75.61923142164355 C237.93093903256445,76.06943606011558 237.77859705894008,76.44233283137524 237.47391311169133,76.73792173542253 C237.16922916444258,77.03351063946982 236.77586854597965,77.18130509149348 236.29383125630252,77.18130509149348 C235.81634148822613,77.18130509149348 235.41843334816244,77.03123687866946 235.1001068361115,76.73110045302144 C234.78178032406058,76.43096402737342 234.57714185202784,75.98075938890139 234.48619142001328,75.38048653760535 L233.25836058781684,75.59876757444027 C233.40842880064085,76.42186898417197 233.74949292069542,77.05965888867402 234.28155294798054,77.51213728794642 C234.81361297526567,77.96461568721881 235.47527736817153,78.190854886855 236.26654612669816,78.190854886855 C236.81224871878547,78.190854886855 237.31474985566587,78.07375620563627 237.77404953733935,77.8395588431988 C238.23334921901284,77.60536148076133 238.58464526266906,77.28589808831022 238.82793766830798,76.88116866584545 C239.0712300739469,76.4764392433807 239.19287627676636,76.04669845211194 239.19287627676636,75.59194629203918 C239.19287627676636,75.15993173997006 239.0769144759478,74.76657112150713 238.8449908743107,74.41186443665038 C238.6130672726736,74.05715775179361 238.26972939181866,73.7752114125485 237.8149772317459,73.56602541891503 C238.40615503984048,73.4295997708932 238.86545472151397,73.14651655124791 239.19287627676636,72.71677575997916 C239.52029783201874,72.2870349687104 239.68400860964493,71.74929053942435 239.68400860964493,71.10354247212103 C239.68400860964493,70.23041832478134 239.365682097594,69.49030918426293 238.72902907349214,68.88321505056578 C238.09237604939028,68.27612091686865 237.2874647260615,67.97257385002008 236.3142951035058,67.97257385002008 C235.43662343456535,67.97257385002008 234.70788309804877,68.23405634206192 234.128074093956,68.75702132614559 C233.54826508986324,69.27998631022926 233.2174328934103,69.95756702873769 233.1355775045972,70.78976348167083 M241.58632784566132,68.14992719244846 L241.58632784566132,69.54829008467219 L242.98469073788505,69.54829008467219 L242.98469073788505,68.14992719244846 Z" style="fill:#000000;fill-rule:evenodd;"/>
        </g>
        <!-- Line -->
        <path d="M200,50 L200,0 " style="stroke:#000000;stroke-width:1;"/>
        <!-- Line -->
        <path d="M0,100 L113.3974596215562,100 " style="stroke:#000000;stroke-width:1;"/>
        <!-- Line -->
        <path d="M200,50 L113.3974596215562,100 " style="stroke:#000000;stroke-width:1;"/>
        <!-- Angular Dimension -->
        <g>
            <path d="M231.60702782630585,100 L232.84782563828009,89.93853353379575 L229.5205270323886,90.079354804362 Z" style="stroke:#0000ff;stroke-width:0.5;fill:#0000ff;fill-rule:evenodd;"/>
            <path d="M215.76994865725862,40.89521589762512 L218.92330856252892,50.529997055938296 L221.87524431649058,48.98830255069613 Z" style="stroke:#0000ff;stroke-width:0.5;fill:#0000ff;fill-rule:evenodd;"/>
            <g>
                <path d="M213.0606595437547,63.51771769520568 L213.63581297731585,65.66421953140362 M217.9288166497117,64.51391266428129 C218.24646511986265,65.69939289383112 217.54294847662476,66.91791946388945 216.35746824707493,67.23556793404039 C215.1719880175251,67.55321640419132 213.9534614474668,66.84969976095343 213.63581297731585,65.66421953140362 M217.9288166497117,64.51391266428129 L217.64123993293111,63.44066174618233 M220.6504719194708,66.08526106691806 C219.46499168992096,66.40290953706901 218.24646511986265,65.69939289383112 217.9288166497117,64.51391266428129 M220.6504719194708,66.08526106691806 L221.72372283756977,65.79768435013749 M223.29507124020654,63.076029080378405 C223.61271971035745,64.26150930992821 222.90920306711956,65.48003587998656 221.72372283756977,65.79768435013749 M223.29507124020654,63.076029080378405 L222.71991780664538,60.92952724418048" style="stroke:#0000ff;stroke-width:0.5;"/>
                <path d="M216.4492676449506,74.01691001252222 L216.44919635279737,74.0170409695275 C216.07046526104943,73.89531600726275 215.75945365062813,73.5897544212249 215.64884999477988,73.17697595809636 C215.5383201184634,72.76447284392886 215.6546540927042,72.34462809621326 215.92133746580419,72.04994802206035 M215.9191317950428,72.05166107382006 L215.91880697402053,72.05156026171598 C216.41634870815614,71.41828733158214 217.05955661785617,70.8933220636804 217.81402902063135,70.5343726919632 M222.10930409729923,69.38395088357176 L222.110033108696,69.38294656387893 C222.94570170744805,69.31661185909878 223.76465423555553,69.44967652338752 224.5115231540147,69.7490902751146 M224.50849573739802,69.7491096415965 L224.5085665891905,69.74897939793392 C224.88693335588087,69.87087825813113 225.1975829221074,70.17629933922578 225.30810825767057,70.58878550707117 C225.4186381339871,71.00128862123867 225.30230415974628,71.42113336895426 225.0356207866463,71.71581344310718 M225.03771142672096,71.71367109098023 L225.0380362477432,71.71377190308431 C224.54049451360763,72.34704483321815 223.8972866039076,72.87201010111988 223.1428142011324,73.23095947283709 M223.14268859751635,73.229266614027 L223.14800131658086,73.2289762567148 C222.50132997419257,73.55922094436782 221.81336026571782,73.82581414350982 221.08690333824745,74.02046769056149 C221.07577001504382,74.02345085552298 221.0646360720345,74.02641486786554 221.05367908398512,74.02931279011068 M221.05557967680102,74.02879492951678 L221.05576954161904,74.02874475567907 C221.04385183570415,74.03198178757674 221.03211184290737,74.03514902748996 221.02036178132533,74.0382974470019 C220.29346265387923,74.23306948117995 219.56392139612325,74.34619703503202 218.8446152824828,74.38313956475123 M218.8466099853303,74.38145432447993 L218.84588032708862,74.38245961963331 C218.01149856969047,74.44854494440885 217.1938076947953,74.31585237731919 216.4479153471888,74.01728147780418 M219.90137857564946,69.73696653565074 L219.90118871083143,69.73701670948844 C219.9131064167463,69.73377967759077 219.9248464095431,69.73061243767755 219.93659647112514,69.72746401816563 C220.6641064936045,69.53252829515674 221.39426308921796,69.41937434020451 222.11416546875373,69.38252790556746 M217.81426965493412,70.53649485114052 L217.80895693586962,70.53678520845271 C218.4556282782579,70.20654052079969 219.14359798673266,69.93994732165771 219.87005491420302,69.74529377460603 C219.88186768555494,69.74212855206191 219.89368115467244,69.73898489117462 219.90530712895603,69.73591249234228" style="stroke:#0000ff;stroke-width:0.5;"/>
                <path d="M217.51809865385366,80.15310692573964 C217.27986230124046,79.26399675357727 217.80749978366887,78.35010182603352 218.69660995583124,78.11186547342032 C219.5857201279936,77.87362912080712 220.49961505553733,78.40126660323554 220.73785140815056,79.2903767753979 C220.97608776076376,80.17948694756026 220.44845027833532,81.09338187510401 219.55934010617295,81.33161822771721 C218.6702299340106,81.56985458033041 217.75633500646686,81.042217097902 217.51809865385366,80.15310692573964" style="stroke:#0000ff;stroke-width:0.5;"/>
            </g>
            <path d="M115.8974596215562,100 L236.60702782630585,100 M202.1650635094611,48.749999999999986 L220.10007567618084,38.39521589762512 M231.60702782630585,100 A118.20956820474966,118.20956820474966 0 0,0 215.76994865725862,40.89521589762512 " style="stroke:#0000ff;stroke-width:0.5;"/>
        </g>
    </g>
</svg>
