<?xml version="1.0" encoding="UTF-8"?>
<!-- 2011-10-19 14:12:14 Generated by QCAD SVG Exporter -->
<svg width="243.985" height="116.545" viewBox="-0.5 -116.045 243.985 116.545" version="1.1" xmlns="http://www.w3.org/2000/svg" style="stroke-linecap:round;stroke-linejoin:round;fill:none">
    <g transform="scale(1,-1)">
        <!-- Hatch -->
        <path d="M160,0 L200,40 M120,0 L180.981,60.9808 M80,0 L155.622,75.6218 M40,0 L130.263,90.2628 M0,1.39322e-16 L100,100 M0,40 L60,100 M0,80 L20,100 " style="stroke:#000000;stroke-width:0.25;"/>
        <!-- Text: 1. -->
        <path d="M170.187,74.7122 L168.959,74.7122 L168.959,82.5362 C168.663,82.2543 168.276,81.9723 167.796,81.6904 C167.316,81.4084 166.885,81.197 166.503,81.056 L166.503,82.2429 C167.19,82.5658 167.79,82.9569 168.304,83.4162 C168.818,83.8755 169.182,84.3211 169.396,84.7531 L170.187,84.7531 L170.187,74.7122 M174.02,74.7122 L174.02,76.1106 L175.418,76.1106 L175.418,74.7122 L174.02,74.7122 " style="fill:#000000;fill-rule:evenodd;"/>
        <!-- Text: 2. -->
        <path d="M61.5556,106.684 L61.5556,105.504 L54.9458,105.504 C54.9367,105.8 54.9845,106.084 55.0891,106.357 C55.2573,106.807 55.5268,107.251 55.8974,107.687 C56.268,108.124 56.8035,108.629 57.5038,109.202 C58.5907,110.093 59.3251,110.799 59.7071,111.32 C60.0891,111.84 60.2801,112.332 60.2801,112.796 C60.2801,113.283 60.1061,113.693 59.7582,114.028 C59.4103,114.362 58.9567,114.529 58.3974,114.529 C57.8062,114.529 57.3333,114.352 56.9786,113.997 C56.6238,113.642 56.4442,113.151 56.4397,112.523 L55.1777,112.653 C55.2641,113.594 55.5893,114.312 56.1532,114.805 C56.7171,115.299 57.4742,115.545 58.4247,115.545 C59.3842,115.545 60.1436,115.279 60.703,114.747 C61.2623,114.215 61.542,113.556 61.542,112.769 C61.542,112.369 61.4601,111.976 61.2964,111.589 C61.1327,111.202 60.861,110.795 60.4813,110.368 C60.1016,109.94 59.4706,109.354 58.5884,108.608 C57.8517,107.99 57.3787,107.57 57.1696,107.35 C56.9604,107.129 56.7876,106.907 56.6511,106.684 L61.5556,106.684 M63.5603,105.504 L63.5603,106.903 L64.9586,106.903 L64.9586,105.504 L63.5603,105.504 " style="fill:#000000;fill-rule:evenodd;"/>
        <!-- Text: 3. -->
        <path d="M233.136,70.7898 L234.363,70.9535 C234.504,70.2577 234.744,69.7563 235.083,69.4494 C235.422,69.1424 235.835,68.9889 236.321,68.9889 C236.899,68.9889 237.386,69.189 237.784,69.5892 C238.182,69.9894 238.381,70.4851 238.381,71.0763 C238.381,71.6402 238.197,72.1051 237.829,72.4712 C237.46,72.8373 236.992,73.0203 236.423,73.0203 C236.192,73.0203 235.903,72.9748 235.557,72.8839 L235.694,73.9617 C235.775,73.9526 235.841,73.948 235.891,73.948 C236.414,73.948 236.885,74.0844 237.303,74.3573 C237.722,74.6301 237.931,75.0508 237.931,75.6192 C237.931,76.0694 237.779,76.4423 237.474,76.7379 C237.169,77.0335 236.776,77.1813 236.294,77.1813 C235.816,77.1813 235.418,77.0312 235.1,76.7311 C234.782,76.431 234.577,75.9808 234.486,75.3805 L233.258,75.5988 C233.408,76.4219 233.749,77.0597 234.282,77.5121 C234.814,77.9646 235.475,78.1909 236.267,78.1909 C236.812,78.1909 237.315,78.0738 237.774,77.8396 C238.233,77.6054 238.585,77.2859 238.828,76.8812 C239.071,76.4764 239.193,76.0467 239.193,75.5919 C239.193,75.1599 239.077,74.7666 238.845,74.4119 C238.613,74.0572 238.27,73.7752 237.815,73.566 C238.406,73.4296 238.865,73.1465 239.193,72.7168 C239.52,72.287 239.684,71.7493 239.684,71.1035 C239.684,70.2304 239.366,69.4903 238.729,68.8832 C238.092,68.2761 237.287,67.9726 236.314,67.9726 C235.437,67.9726 234.708,68.2341 234.128,68.757 C233.548,69.28 233.217,69.9576 233.136,70.7898 M241.586,68.1499 L241.586,69.5483 L242.985,69.5483 L242.985,68.1499 L241.586,68.1499 " style="fill:#000000;fill-rule:evenodd;"/>
        <!-- Line -->
        <path d="M200,50 L200,0 " style="stroke:#000000;stroke-width:1;"/>
        <!-- Line -->
        <path d="M0,100 L113.397,100 " style="stroke:#000000;stroke-width:1;"/>
        <!-- Line -->
        <path d="M200,50 L113.397,100 " style="stroke:#000000;stroke-width:1;"/>
        <!-- Angular Dimension -->
        <g>
            <path d="M231.607,100 L232.848,89.9385 L229.521,90.0794 Z" style="stroke:#0000ff;stroke-width:0.5;fill:#0000ff;fill-rule:evenodd;"/>
            <path d="M215.77,40.8952 L218.923,50.53 L221.875,48.9883 Z" style="stroke:#0000ff;stroke-width:0.5;fill:#0000ff;fill-rule:evenodd;"/>
            <g>
                <path d="M213.061,63.5177 L213.636,65.6642 M217.929,64.5139 C218.246,65.6994 217.543,66.9179 216.357,67.2356 C215.172,67.5532 213.953,66.8497 213.636,65.6642 M217.929,64.5139 L217.641,63.4407 M220.65,66.0853 C219.465,66.4029 218.246,65.6994 217.929,64.5139 M220.65,66.0853 L221.724,65.7977 M223.295,63.076 C223.613,64.2615 222.909,65.48 221.724,65.7977 M223.295,63.076 L222.72,60.9295 " style="stroke:#0000ff;stroke-width:0.5;"/>
                <path d="M216.449,74.0169 L216.449,74.017 C216.07,73.8953 215.759,73.5898 215.649,73.177 C215.538,72.7645 215.655,72.3446 215.921,72.0499 M215.919,72.0517 L215.919,72.0516 C216.416,71.4183 217.06,70.8933 217.814,70.5344 M222.109,69.384 L222.11,69.3829 C222.946,69.3166 223.765,69.4497 224.512,69.7491 M224.508,69.7491 L224.509,69.749 C224.887,69.8709 225.198,70.1763 225.308,70.5888 C225.419,71.0013 225.302,71.4211 225.036,71.7158 M225.038,71.7137 L225.038,71.7138 C224.54,72.347 223.897,72.872 223.143,73.231 M223.143,73.2293 L223.148,73.229 C222.501,73.5592 221.813,73.8258 221.087,74.0205 C221.076,74.0235 221.065,74.0264 221.054,74.0293 M221.056,74.0288 L221.056,74.0287 C221.044,74.032 221.032,74.0351 221.02,74.0383 C220.293,74.2331 219.564,74.3462 218.845,74.3831 M218.847,74.3815 L218.846,74.3825 C218.011,74.4485 217.194,74.3159 216.448,74.0173 M219.901,69.737 L219.901,69.737 C219.913,69.7338 219.925,69.7306 219.937,69.7275 C220.664,69.5325 221.394,69.4194 222.114,69.3825 M217.814,70.5365 L217.809,70.5368 C218.456,70.2065 219.144,69.9399 219.87,69.7453 C219.882,69.7421 219.894,69.739 219.905,69.7359 " style="stroke:#0000ff;stroke-width:0.5;"/>
                <path d="M217.518,80.1531 C217.28,79.264 217.807,78.3501 218.697,78.1119 C219.586,77.8736 220.5,78.4013 220.738,79.2904 C220.976,80.1795 220.448,81.0934 219.559,81.3316 C218.67,81.5699 217.756,81.0422 217.518,80.1531 " style="stroke:#0000ff;stroke-width:0.5;"/>
            </g>
            <path d="M115.897,100 L236.607,100 M202.165,48.75 L220.1,38.3952 M215.77,40.8952 A118.21,118.21 0 0,1 231.607,100 " style="stroke:#0000ff;stroke-width:0.5;"/>
        </g>
    </g>
</svg>
