<svg width="243.985" fill="none" xmlns="http://www.w3.org/2000/svg" height="116.545" viewBox="-0.5 -116.045 243.985 116.545" stroke-linejoin="round" stroke-linecap="round">
<g transform="scale(1 -1)">
<path stroke="#000" stroke-width=".25" d="M160,0 L200,40 M120,0 L180.981,60.9808 M80,0 L155.622,75.6218 M40,0 L130.263,90.2628 M0,1.39322e-16 L100,100 M0,40 L60,100 M0,80 L20,100 "/>
<g fill="#000" fill-rule="evenodd">
<path d="m170.187,74.7122h-1.228v7.824c-.296-.2819-.683-.5639-1.163-.8458-.48-.282-.911-.4934-1.293-.6344v1.1869c.687,.3229 1.287,.714 1.801,1.1733 .514,.4593 .878,.9049 1.092,1.3369h.791v-10.0409m3.833,0v1.3984h1.398v-1.3984h-1.398"/>
<path d="m61.5556,106.684v-1.18h-6.6098c-.0091,.296 .0387,.58 .1433,.853 .1682,.45 .4377,.894 .8083,1.33 .3706,.437 .9061,.942 1.6064,1.515 1.0869,.891 1.8213,1.597 2.2033,2.118 .382,.52 .573,1.012 .573,1.476 0,.487-.174,.897-.5219,1.232-.3479,.334-.8015,.501-1.3608,.501-.5912,0-1.0641-.177-1.4188-.532-.3548-.355-.5344-.846-.5389-1.474l-1.262,.13c.0864,.941 .4116,1.659 .9755,2.152 .5639,.494 1.321,.74 2.2715,.74 .9595,0 1.7189-.266 2.2783-.798 .5593-.532 .839-1.191 .839-1.978 0-.4-.0819-.793-.2456-1.18-.1637-.387-.4354-.794-.8151-1.221-.3797-.428-1.0107-1.014-1.8929-1.76-.7367-.618-1.2097-1.038-1.4188-1.258-.2092-.221-.382-.443-.5185-.666h4.9045m2.0047-1.18v1.399h1.3983v-1.399h-1.3983"/>
<path d="m233.136,70.7898l1.227,.1637c.141-.6958 .381-1.1972 .72-1.5041 .339-.307 .752-.4605 1.238-.4605 .578,0 1.065,.2001 1.463,.6003 .398,.4002 .597,.8959 .597,1.4871 0,.5639-.184,1.0288-.552,1.3949-.369,.3661-.837,.5491-1.406,.5491-.231,0-.52-.0455-.866-.1364l.137,1.0778c.081-.0091 .147-.0137 .197-.0137 .523,0 .994,.1364 1.412,.4093 .419,.2728 .628,.6935 .628,1.2619 0,.4502-.152,.8231-.457,1.1187-.305,.2956-.698,.4434-1.18,.4434-.478,0-.876-.1501-1.194-.4502-.318-.3001-.523-.7503-.614-1.3506l-1.228,.2183c.15,.8231 .491,1.4609 1.024,1.9133 .532,.4525 1.193,.6788 1.985,.6788 .545,0 1.048-.1171 1.507-.3513 .459-.2342 .811-.5537 1.054-.9584 .243-.4048 .365-.8345 .365-1.2893 0-.432-.116-.8253-.348-1.18-.232-.3547-.575-.6367-1.03-.8459 .591-.1364 1.05-.4195 1.378-.8492 .327-.4298 .491-.9675 .491-1.6133 0-.8731-.318-1.6132-.955-2.2203-.637-.6071-1.442-.9106-2.415-.9106-.877,0-1.606,.2615-2.186,.7844-.58,.523-.911,1.2006-.992,2.0328m8.45-2.6399v1.3984h1.399v-1.3984h-1.399"/>
</g>
<g stroke="#000">
<path d="m200,50v-50"/>
<path d="m0,100h113.397"/>
<path d="m200,50l-86.603,50"/>
</g>
</g>
<g fill="#00f" fill-rule="evenodd" stroke="#00f" stroke-width=".5" transform="scale(1 -1)">
<path d="m231.607,100l1.241-10.0615-3.327,.1409Z"/>
<path d="m215.77,40.8952l3.153,9.6348 2.952-1.5417Z"/>
</g>
<g stroke="#00f" stroke-width=".5" transform="scale(1 -1)">
<path d="m213.061,63.5177l.575,2.1465m4.293-1.1503c.317,1.1855-.386,2.404-1.572,2.7217-1.185,.3176-2.404-.3859-2.721-1.5714m4.293-1.1503l-.288-1.0732m3.009,2.6446c-1.185,.3176-2.404-.3859-2.721-1.5714m2.721,1.5714l1.074-.2876m1.571-2.7217c.318,1.1855-.386,2.404-1.571,2.7217m1.571-2.7217l-.575-2.1465"/>
<path d="m216.449,74.0169v.0001c-.379-.1217-.69-.4272-.8-.84-.111-.4125 .006-.8324 .272-1.1271m-.002,.0018v-.0001c.497-.6333 1.141-1.1583 1.895-1.5172m4.295-1.1504l.001-.0011c.836-.0663 1.655,.0668 2.402,.3662m-.004,0l.001-.0001c.378,.1219 .689,.4273 .799,.8398 .111,.4125-.006,.8323-.272,1.127m.002-.0021v.0001c-.498,.6332-1.141,1.1582-1.895,1.5172m0-.0017l.005-.0003c-.647,.3302-1.335,.5968-2.061,.7915-.011,.003-.022,.0059-.033,.0088m.002-.0005v-.0001c-.012,.0033-.024,.0064-.036,.0096-.727,.1948-1.456,.3079-2.175,.3448m.002-.0016l-.001,.001c-.835,.066-1.652-.0666-2.398-.3652m3.453-4.2803c.012-.0032 .024-.0064 .036-.0095 .727-.195 1.457-.3081 2.177-.345m-4.3,1.154l-.005,.0003c.647-.3303 1.335-.5969 2.061-.7915 .012-.0032 .024-.0063 .035-.0094"/>
<path d="m217.518,80.1531c-.238-.8891 .289-1.803 1.179-2.0412 .889-.2383 1.803,.2894 2.041,1.1785 .238,.8891-.29,1.803-1.179,2.0412-.889,.2383-1.803-.2894-2.041-1.1785"/>
</g>
<g transform="scale(1 -1)">
<path stroke="#00f" stroke-width=".5" d="m115.897,100h120.71m-34.442-51.25l17.935-10.3548m-4.33,2.5a118.21,118.21 0 0,1 15.837,59.1048"/>
</g>
</svg>
