<?xml version="1.0" encoding="UTF-8" standalone="no"?>
<svg
   xmlns:dc="http://purl.org/dc/elements/1.1/"
   xmlns:cc="http://creativecommons.org/ns#"
   xmlns:rdf="http://www.w3.org/1999/02/22-rdf-syntax-ns#"
   xmlns:svg="http://www.w3.org/2000/svg"
   xmlns="http://www.w3.org/2000/svg"
   xmlns:sodipodi="http://sodipodi.sourceforge.net/DTD/sodipodi-0.dtd"
   xmlns:inkscape="http://www.inkscape.org/namespaces/inkscape"
   width="512"
   height="512"
   id="svg2"
   version="1.1"
   inkscape:version="0.48.2 r9819"
   sodipodi:docname="PointMarkList.svg">
  <metadata
     id="metadata42">
    <rdf:RDF>
      <cc:Work
         rdf:about="">
        <dc:format>image/svg+xml</dc:format>
        <dc:type
           rdf:resource="http://purl.org/dc/dcmitype/StillImage" />
      </cc:Work>
    </rdf:RDF>
  </metadata>
  <sodipodi:namedview
     pagecolor="#ffffff"
     bordercolor="#666666"
     borderopacity="1"
     objecttolerance="10"
     gridtolerance="10"
     guidetolerance="10"
     inkscape:pageopacity="0"
     inkscape:pageshadow="2"
     inkscape:window-width="2460"
     inkscape:window-height="1083"
     id="namedview40"
     showgrid="false"
     inkscape:zoom="1.3037281"
     inkscape:cx="241.42641"
     inkscape:cy="195.40454"
     inkscape:window-x="48"
     inkscape:window-y="123"
     inkscape:window-maximized="0"
     inkscape:current-layer="svg2" />
  <defs
     id="defs4">
    <clipPath
       clipPathUnits="userSpaceOnUse"
       id="clipPath6">
      <path
         fill="#0f0"
         stroke="#0f0"
         color="#000"
         stroke-width="2.033"
         d="m141.1284,537.5701c-33.6977-14.7314-74.1905-1.9343-90.4551,28.587-16.2646,30.5213-2.1355,67.1971 31.5621,81.9285 33.6977,14.7314 74.1905,1.9343 90.4551-28.587 16.2646-30.5213 2.1355-67.1971-31.5621-81.9285zm-8.9572,16.8087c23.4461,10.2498 33.3001,35.7639 21.9836,56.9999-11.3165,21.236-39.516,30.148-62.962,19.8982-23.4461-10.2498-33.2856-35.7911-21.9691-57.0271 11.3165-21.236 39.5015-30.1208 62.9476-19.871zm8.9572-16.8087c-33.6977-14.7314-74.1905-1.9343-90.4551,28.587-16.2646,30.5213-2.1355,67.1971 31.5621,81.9285 33.6977,14.7314 74.1905,1.9343 90.4551-28.587 16.2646-30.5213 2.1355-67.1971-31.5621-81.9285zm-8.9645,16.8223c23.4461,10.2498 33.3001,35.7639 21.9836,56.9999-11.3165,21.236-39.516,30.1481-62.9621,19.8983-23.4461-10.2498-33.2856-35.7912-21.9691-57.0272 11.3165-21.236 39.5015-30.1208 62.9476-19.871z"
         id="path8" />
    </clipPath>
    <clipPath
       clipPathUnits="userSpaceOnUse"
       id="clipPath10">
      <path
         fill="none"
         stroke="#0f0"
         color="#000"
         stroke-width="2.399"
         d="m-1232.6874,355.1505c29.2402,0 52.96,23.6823 52.96,52.9226 0,29.2402-23.7198,52.9599-52.96,52.9599-29.2403,0-52.96-23.7197-52.96-52.9599 0-29.2403 23.7197-52.9226 52.96-52.9226z"
         id="path12" />
    </clipPath>
    <clipPath
       clipPathUnits="userSpaceOnUse"
       id="clipPath14">
      <path
         fill="#0f0"
         stroke="#0f0"
         color="#000"
         stroke-width="2.033"
         d="m141.1284,537.5701c-33.6977-14.7314-74.1905-1.9343-90.4551,28.587-16.2646,30.5213-2.1355,67.1971 31.5621,81.9285 33.6977,14.7314 74.1905,1.9343 90.4551-28.587 16.2646-30.5213 2.1355-67.1971-31.5621-81.9285zm-8.9572,16.8087c23.4461,10.2498 33.3001,35.7639 21.9836,56.9999-11.3165,21.236-39.516,30.148-62.962,19.8982-23.4461-10.2498-33.2856-35.7911-21.9691-57.0271 11.3165-21.236 39.5015-30.1208 62.9476-19.871zm8.9572-16.8087c-33.6977-14.7314-74.1905-1.9343-90.4551,28.587-16.2646,30.5213-2.1355,67.1971 31.5621,81.9285 33.6977,14.7314 74.1905,1.9343 90.4551-28.587 16.2646-30.5213 2.1355-67.1971-31.5621-81.9285zm-8.9645,16.8223c23.4461,10.2498 33.3001,35.7639 21.9836,56.9999-11.3165,21.236-39.516,30.1481-62.9621,19.8983-23.4461-10.2498-33.2856-35.7912-21.9691-57.0272 11.3165-21.236 39.5015-30.1208 62.9476-19.871z"
         id="path16" />
    </clipPath>
    <clipPath
       clipPathUnits="userSpaceOnUse"
       id="clipPath18">
      <path
         fill="none"
         stroke="#0f0"
         color="#000"
         stroke-width="2.399"
         d="m-1232.6874,355.1505c29.2402,0 52.96,23.6823 52.96,52.9226 0,29.2402-23.7198,52.9599-52.96,52.9599-29.2403,0-52.96-23.7197-52.96-52.9599 0-29.2403 23.7197-52.9226 52.96-52.9226z"
         id="path20" />
    </clipPath>
    <symbol
       id="_benchmark">
      <text
         id="text3103"
         sodipodi:linespacing="125%"
         y="938.976378"
         x="-44.549956"
         style="font-size: 42.5px; fill: #000000; font-family: Arial">
        <tspan
           id="tspan3105"
           sodipodi:role="line">Labellabel</tspan>
      </text>
      <path
         id="path3107"
         style="fill:#000000"
         d="M 0.000000,1009.842520 L 0.000000,1052.362205 L 42.519685,1052.362205 A 42.519685,42.519685 0.0 0 0 0.000000,1094.881890 z M -0.000000,1052.362205 L -42.519685,1052.362205 A 42.519685,42.519685 0.0 0 0 0.000000,1009.842520 L -0.000000,1052.362205 z " />
      <path
         id="path3109"
         style="stroke:#000000;fill:none"
         d="M 42.519685,1052.362205 A 42.519685,42.519685 -0.000000 1 0 -42.519685,1052.362205 42.519685,42.519685 -0.000000 1 0 42.519685,1052.362205 z" />
    </symbol>
    <symbol
       id="*Paper_Space0" />
    <symbol
       id="*Paper_Space" />
    <symbol
       id="*Model_Space" />
    <pattern
       y="0"
       x="0"
       width="8"
       patternUnits="userSpaceOnUse"
       id="Hatch"
       height="8">
      <path
         id="path3093"
         stroke-width="0.25"
         stroke="#000000"
         linecap="square"
         d="M8 4 l-4,4" />
      <path
         id="path3095"
         stroke-width="0.25"
         stroke="#000000"
         linecap="square"
         d="M6 2 l-4,4" />
      <path
         id="path3097"
         stroke-width="0.25"
         stroke="#000000"
         linecap="square"
         d="M4 0 l-4,4" />
    </pattern>
    <marker
       style="overflow:visible"
       refY="0.0"
       refX="0.0"
       orient="auto"
       id="DistanceX">
      <path
         id="path3090"
         style="stroke:#000000; stroke-width:0.5"
         d="M 3,-3 L -3,3 M 0,-5 L  0,5" />
    </marker>
  </defs>
  <g
     id="g3132">
    <path
       d="M 40.0271,103.9998 H 471.973 A 0.0271,0.0097 0 0 1 472,104.0098 V 471.9878 A 0.0271,0.0097 0 0 1 471.973,471.9978 H 40.0271 A 0.0271,0.0097 0 0 1 40,471.9878 V 104.0098 A 0.0271,0.0097 0 0 1 40.0271,103.9998"
       id="path24"
       inkscape:connector-curvature="0"
       style="fill:#ffffff;stroke:#000000;stroke-width:8;stroke-linecap:square;stroke-dashoffset:354.331" />
    <path
       d="M 40.0271,40 H 471.973 A 0.0271,0.0114 0 0 1 472,40.0114 V 103.989 A 0.0271,0.0114 0 0 1 471.973,104 H 40.0271 A 0.0271,0.0114 0 0 1 40,103.989 V 40.0114 A 0.0271,0.0114 0 0 1 40.0271,40"
       id="path26"
       inkscape:connector-curvature="0"
       style="stroke:#000000;stroke-width:8;stroke-linecap:square;stroke-dashoffset:354.331" />
    <path
       d="M 40.004,39.9998 H 103.996 A 0.00223607,0 206.56505 0 0 104,40.0018 V 103.9978 A 0.00223607,0 333.43495 0 0 103.996,103.9998 H 40.004 A 0.00223607,0 26.565051 0 0 40,103.9978 V 40.0018 A 0.00223607,0 153.43495 0 0 40.004,39.9998"
       id="path28"
       inkscape:connector-curvature="0"
       style="fill:#ffffff;stroke:#000000;stroke-width:8;stroke-linecap:square;stroke-dashoffset:354.331" />
  </g>
  <g
     id="g3265"
     transform="matrix(0.68299576,0,0,0.68299576,81.153089,110.92663)">
    <g
       id="text3978"
       style="font-size:233.49264526px;font-style:normal;font-variant:normal;font-weight:normal;font-stretch:normal;line-height:125%;letter-spacing:0px;word-spacing:0px;fill:#000000;fill-opacity:1;stroke:none;font-family:Arial;-inkscape-font-specification:Arial">
      <path
         id="path3002"
         style="font-family:Planer;-inkscape-font-specification:Planer"
         d="M 227.73827,154.93592 C 227.73827,137.1905 217.46458,122.01345 202.75456,114.3082 214.66267,106.60295 221.43397,94.461309 221.43397,79.284302 221.43397,55.701569 202.28755,36.555148 178.70481,36.555148 L 126.16897,36.555148 C 120.09817,36.555148 115.6618,40.991515 115.6618,47.062317 L 115.6618,189.49283 C 115.6618,195.56363 120.09817,200 126.16897,200 L 182.4407,200 C 207.65788,200 227.73827,179.91961 227.73827,154.93592 M 182.4407,121.77996 C 200.41961,121.77996 215.59665,136.72351 215.59665,154.93592 215.59665,172.91484 200.41961,187.85838 182.4407,187.85838 L 128.2704,187.85838 128.2704,121.77996 182.4407,121.77996 M 128.2704,109.40485 128.2704,48.930259 178.70481,48.930259 C 195.51627,48.930259 209.05886,62.472849 209.05886,79.284302 209.05886,95.862264 195.51627,109.40485 178.70481,109.40485 L 128.2704,109.40485"
         inkscape:connector-curvature="0" />
      <path
         id="path3004"
         style="font-family:Planer;-inkscape-font-specification:Planer"
         d="M 251.10577,193.6957 C 251.10577,197.19808 253.90768,200 257.41007,200 261.14595,200 263.71437,197.19808 263.71437,193.6957 L 263.71437,53.366619 C 263.71437,51.031695 265.58232,49.163751 267.91724,49.163751 269.55169,49.163751 271.18614,50.564709 271.65312,52.199156 L 313.91529,193.92919 C 315.08275,197.43158 317.88467,200 322.32103,200 326.52389,200 329.32581,197.43158 330.49327,193.92919 345.43678,146.76372 360.84733,99.13113 376.02433,51.965663 376.25783,50.331216 377.65878,49.163751 379.52672,49.163751 381.86165,49.163751 383.72959,51.031695 383.72959,53.366619 L 383.72959,193.6957 C 383.72959,197.19808 386.29801,200 390.03389,200 393.53628,200 396.33819,197.19808 396.33819,193.6957 L 396.33819,53.366619 C 396.33819,44.260415 388.63293,36.555148 379.52672,36.555148 372.28846,36.555148 365.51716,41.225008 363.41573,47.762795 349.87317,90.725399 335.86359,133.92162 322.32103,177.35121 L 284.02823,48.229781 C 281.9268,41.225008 275.389,36.555148 267.91724,36.555148 258.81104,36.555148 251.10577,44.260415 251.10577,53.366619 L 251.10577,193.6957"
         inkscape:connector-curvature="0" />
    </g>
    <g
       transform="matrix(0.66666666,0,0,0.66666666,85.333338,189.33334)"
       id="g3200">
      <path
         d="M 512,256 C 512,397.3849 397.3849,512 256,512 114.6151,512 0,397.3849 0,256 0,114.6151 114.6151,0 256,0 397.3849,0 512,114.6151 512,256 z"
         sodipodi:ry="256"
         sodipodi:rx="256"
         sodipodi:cy="256"
         sodipodi:cx="256"
         id="path3171"
         style="fill:#ffffff;stroke:#000000;stroke-width:23.42620716;stroke-linecap:round;stroke-linejoin:round;stroke-miterlimit:4;stroke-opacity:1;stroke-dasharray:none;stroke-dashoffset:0"
         sodipodi:type="arc"
         transform="matrix(-0.75,0,0,0.75,448,64)" />
      <path
         style="fill:#000000;stroke:#000000;stroke-width:0.0075;stroke-linecap:round;stroke-linejoin:round;stroke-miterlimit:4;stroke-opacity:1;stroke-dasharray:none;stroke-dashoffset:0"
         d="M 256,64 C 362.03868,64 448,149.96132 448,256 L 256,256 256,64 z M 256,256 256,448 C 149.96133,448 64,362.03867 64,256 L 256,256 z"
         id="path3162"
         inkscape:connector-curvature="0" />
    </g>
  </g>
</svg>
