<svg width="110.904" fill="none" xmlns="http://www.w3.org/2000/svg" height="82.1772" viewBox="48.0943 -104.988 110.904 82.1772" stroke-linejoin="round" stroke-linecap="round">
<g transform="scale(1 -1)">
<g stroke="#000">
<path d="m60,30h90"/>
<path d="m150,30v60"/>
<path d="m150,90h-90"/>
<path d="m60,90v-60"/>
</g>
<path stroke="#00f" stroke-width=".35" d="m150,90l-1.317-.8782m-1.733-1.1552l-.029-.0194m-1.733-1.1552l-3.495-2.3297m-1.732-1.1552l-.029-.0194m-1.733-1.1552l-3.495-2.3297m-1.733-1.1552l-.029-.0194m-1.732-1.1551l-3.495-2.3298m-1.733-1.1551l-.029-.0195m-1.733-1.1551l-3.494-2.3298m-1.733-1.1551l-.029-.0194m-1.733-1.1552l-3.494-2.3297m-1.733-1.1552l-.029-.0194m-1.733-1.1552l-3.495-2.3297m-1.732-1.1552l-.03-.0194m-1.732-1.1552l-3.4949-2.3297m-1.7328-1.1552l-.0291-.0194m-1.7327-1.1552l-3.4946-2.3297m-1.7328-1.1552l-.0291-.0194m-1.7328-1.1551l-3.4946-2.3298m-1.7327-1.1551l-.0291-.0195m-1.7328-1.1551l-3.4946-2.3298m-1.7327-1.1551l-.0292-.0194m-1.7327-1.1552l-3.4946-2.3297m-1.7328-1.1552l-.0291-.0194m-1.7327-1.1552l-3.4946-2.3297m-1.7328-1.1552l-.0291-.0194m-1.7327-1.1552l-1.3174-.8782"/>
<circle cx="105" cy="60" stroke="#f00" r="1.5"/>
<g fill="#000" fill-rule="evenodd">
<path d="m153.791,95.4513h-1.105v7.0417c-.267-.254-.615-.508-1.047-.761-.432-.254-.82-.444-1.164-.571v1.068c.618,.29 1.159,.642 1.621,1.056 .463,.413 .79,.814 .982,1.203h.713v-9.0367m3.449,0v1.2585h1.259v-1.2585h-1.259"/>
<path d="m54.5441,24.3729v-1.062h-5.9489c-.0081,.266 .0348,.5218 .129,.7674 .1514,.4052 .3939,.8042 .7275,1.1971 .3335,.3929 .8154,.8472 1.4457,1.3629 .9782,.8022 1.6392,1.4376 1.983,1.9062 .3438,.4686 .5157,.9117 .5157,1.3291 0,.438-.1566,.8073-.4697,1.1081-.3131,.3009-.7213,.4513-1.2247,.4513-.5321,0-.9578-.1596-1.277-.4789-.3192-.3192-.4809-.7612-.485-1.326l-1.1357,.1166c.0777,.8472 .3704,1.4928 .8779,1.9369 .5075,.4441 1.1889,.6661 2.0443,.6661 .8636,0 1.5471-.2394 2.0505-.7183 .5034-.4788 .7551-1.0723 .7551-1.7803 0-.3602-.0737-.7142-.221-1.0621-.1473-.3479-.3919-.7142-.7336-1.0989-.3418-.3847-.9097-.9127-1.7037-1.5839-.663-.5566-1.0886-.9342-1.2769-1.1327-.1883-.1985-.3438-.398-.4666-.5986h4.4141m1.8042-1.062v1.2585h1.2585v-1.2585h-1.2585"/>
</g>
</g>
</svg>
