<?xml version="1.0" encoding="UTF-8"?>
<!-- 2016-05-25 10:01:12 Generated by QCAD SVG Exporter -->
<svg width="109.90431263462283" height="81.17721620746156" viewBox="48.594257993431725 -104.48808817305488 109.90431263462283 81.17721620746156" version="1.1" xmlns="http://www.w3.org/2000/svg" style="stroke-linecap:round;stroke-linejoin:round;fill:none">
    <g transform="scale(1,-1)">
        <!-- Line -->
        <path d="M60,30 L150,30 " style="stroke:#000000;stroke-width:1;"/>
        <!-- Line -->
        <path d="M150,30 L150,90 " style="stroke:#000000;stroke-width:1;"/>
        <!-- Line -->
        <path d="M150,90 L60,90 " style="stroke:#000000;stroke-width:1;"/>
        <!-- Line -->
        <path d="M60,90 L60,30 " style="stroke:#000000;stroke-width:1;"/>
        <!-- Line -->
        <path d="M150,90 L148.6826404527368,89.12176030182452 M146.94989571477822,87.96659714318548 L146.9207739544764,87.94718263631759 M145.18802921651783,86.79201947767855 L141.6934179802989,84.4622786535326 M139.96067324234033,83.30711549489355 L139.93155148203851,83.28770098802566 M138.19880674407995,82.13253782938662 L134.70419550786102,79.80279700524066 M132.97145076990245,78.64763384660162 L132.94232900960063,78.62821933973373 M131.20958427164206,77.47305618109469 L127.71497303542311,75.14331535694873 M125.98222829746456,73.98815219830969 L125.95310653716274,73.9687376914418 M124.22036179920418,72.81357453280276 L120.72575056298524,70.4838337086568 M118.99300582502669,69.32867055001776 L118.96388406472487,69.30925604314987 M117.23113932676631,68.15409288451083 L113.73652809054737,65.82435206036487 M112.00378335258881,64.66918890172583 L111.97466159228699,64.64977439485794 M110.24191685432844,63.4946112362189 L106.7473056181095,61.16487041207294 M105.01456088015094,60.0097072534339 L104.98543911984912,59.99029274656602 M103.25269438189056,58.83512958792698 L99.75808314567162,56.50538876378102 M98.02533840771306,55.35022560514198 L97.99621664741125,55.3308110982741 M96.26347190945269,54.175647939635056 L92.76886067323375,51.8459071154891 M91.03611593527519,50.690743956850056 L91.00699417497337,50.671329449982174 M89.27424943701482,49.51616629134313 L85.77963820079587,47.186425467197175 M84.04689346283732,46.031262308558134 L84.0177717025355,46.01184780169025 M82.28502696457694,44.85668464305121 L78.790415728358,42.52694381890525 M77.05767099039944,41.37178066026621 L77.02854923009762,41.35236615339833 M75.29580449213907,40.19720299475929 L71.80119325592013,37.86746217061333 M70.06844851796157,36.71229901197429 L70.03932675765975,36.692884505106406 M68.3065820197012,35.537721346467364 L64.81197078348225,33.20798052232141 M63.07922604552369,32.052817363682365 L63.05010428522186,32.03340285681448 M61.3173595472633,30.878239698175445 L60,30 " style="stroke:#0000ff;stroke-width:0.35;"/>
        <!-- Circle -->
        <circle cx="105" cy="60" r="1.5" style="stroke:#ff0000;stroke-width:1;"/>
        <!-- Text: 1. -->
        <g>
            <path d="M153.79057608508046,95.45125324808899 L152.68552833610366,95.45125324808899 L152.68552833610366,102.49286307073565 C152.4194983224611,102.23911136541504 152.07058972764526,101.98535966009445 151.63880255165617,101.73160795477385 C151.20701537566708,101.47785624945324 150.81922547116505,101.2875424704628 150.47543283815003,101.16066661780249 L150.47543283815003,102.2288794418134 C151.0934410236889,102.5194660720999 151.63368658985536,102.87144424399622 152.09616953664937,103.28481395750237 C152.55865248344335,103.6981836710085 152.88607403869574,104.09927507619267 153.07843420240653,104.48808817305488 L153.79057608508046,104.48808817305488 Z M157.24004402505318,95.45125324808899 L157.24004402505318,96.70977985109035 L158.49857062805455,96.70977985109035 L158.49857062805455,95.45125324808899 Z" style="fill:#000000;fill-rule:evenodd;"/>
        </g>
        <!-- Text: 2. -->
        <g>
            <path d="M54.5440806400893,24.372945635443244 L54.5440806400893,23.310871965593314 L48.59524025809748,23.310871965593314 C48.58705471921618,23.57690197923588 48.63002879834305,23.832700069276807 48.72416249547811,24.078266235716097 C48.87559496478234,24.48345041034093 49.11809155414114,24.882495430804774 49.45165226355451,25.27540129710764 C49.785212972967884,25.668307163410503 50.26713657460499,26.12260457132319 50.897423068465834,26.6382935208457 C51.875594964782344,27.44047633121405 52.5365772294481,28.075878786875716 52.880369862463105,28.544500887830694 C53.22416249547811,29.013122988785675 53.39605881198562,29.45616528073656 53.39605881198562,29.873627763683356 C53.39605881198562,30.311554093833422 53.23951038088057,30.68092653585252 52.92641351867047,30.981745089740656 C52.61331665646038,31.282563643628784 52.20506290475505,31.43297292057285 51.70165226355451,31.43297292057285 C51.16959223626938,31.43297292057285 50.74394421444128,31.273354912387312 50.4247081980702,30.954118896016233 C50.10547218169912,30.634882879645154 49.94380778879326,30.19286378005443 49.9397150193526,29.628061597244063 L48.80397149957088,29.744705526302727 C48.88173411894332,30.59190880051828 49.17436713395014,31.237543179781582 49.68187054459135,31.681608664092632 C50.18937395523255,32.12567414840368 50.870820067101576,32.34770689055921 51.72620888019844,32.34770689055921 C52.589783232176615,32.34770689055921 53.27327572876597,32.1082798782809 53.77668636996652,31.629425853724282 C54.28009701116706,31.150571829167667 54.53180233176734,30.55712026027271 54.53180233176734,29.849071147039425 C54.53180233176734,29.488907436261798 54.45813248183555,29.134882879645154 54.31079278197197,28.786997477189495 C54.1634530821084,28.43911207473383 53.91891010802927,28.072809209795224 53.57716385973459,27.68808888237367 C53.235417611439914,27.303368554952115 52.66754585154905,26.77540129710764 51.873548580062014,26.104187108840243 C51.21051993067593,25.547570464911185 50.784871908847826,25.170012484010776 50.596604514577706,24.97151316613902 C50.40833712030758,24.773013848267254 50.25281188156269,24.573491338035332 50.13002879834305,24.372945635443244 Z M56.34825526491877,23.310871965593314 L56.34825526491877,24.56939856859468 L57.606781867920134,24.56939856859468 L57.606781867920134,23.310871965593314 Z" style="fill:#000000;fill-rule:evenodd;"/>
        </g>
    </g>
</svg>
