<?xml version="1.0" encoding="UTF-8"?>
<!-- 2011-11-22 21:05:31 Generated by QCAD SVG Exporter -->
<svg width="110.904" height="82.1772" viewBox="48.0943 -104.988 110.904 82.1772" version="1.1" xmlns="http://www.w3.org/2000/svg" style="stroke-linecap:round;stroke-linejoin:round;fill:none">
    <g transform="scale(1,-1)">
        <!-- Line -->
        <path d="M60,30 L150,30 " style="stroke:#000000;stroke-width:1;"/>
        <!-- Line -->
        <path d="M150,30 L150,90 " style="stroke:#000000;stroke-width:1;"/>
        <!-- Line -->
        <path d="M150,90 L60,90 " style="stroke:#000000;stroke-width:1;"/>
        <!-- Line -->
        <path d="M60,90 L60,30 " style="stroke:#000000;stroke-width:1;"/>
        <!-- Line -->
        <path d="M150,90 L148.683,89.1218 M146.95,87.9666 L146.921,87.9472 M145.188,86.792 L141.693,84.4623 M139.961,83.3071 L139.932,83.2877 M138.199,82.1325 L134.704,79.8028 M132.971,78.6476 L132.942,78.6282 M131.21,77.4731 L127.715,75.1433 M125.982,73.9882 L125.953,73.9687 M124.22,72.8136 L120.726,70.4838 M118.993,69.3287 L118.964,69.3093 M117.231,68.1541 L113.737,65.8244 M112.004,64.6692 L111.975,64.6498 M110.242,63.4946 L106.747,61.1649 M105.015,60.0097 L104.985,59.9903 M103.253,58.8351 L99.7581,56.5054 M98.0253,55.3502 L97.9962,55.3308 M96.2635,54.1756 L92.7689,51.8459 M91.0361,50.6907 L91.007,50.6713 M89.2742,49.5162 L85.7796,47.1864 M84.0469,46.0313 L84.0178,46.0118 M82.285,44.8567 L78.7904,42.5269 M77.0577,41.3718 L77.0285,41.3524 M75.2958,40.1972 L71.8012,37.8675 M70.0684,36.7123 L70.0393,36.6929 M68.3066,35.5377 L64.812,33.208 M63.0792,32.0528 L63.0501,32.0334 M61.3174,30.8782 L60,30 " style="stroke:#0000ff;stroke-width:0.35;"/>
        <!-- Circle -->
        <circle cx="105" cy="60" r="1.5" style="stroke:#ff0000;stroke-width:1;"/>
        <!-- Text: 1. -->
        <path d="M153.791,95.4513 L152.686,95.4513 L152.686,102.493 C152.419,102.239 152.071,101.985 151.639,101.732 C151.207,101.478 150.819,101.288 150.475,101.161 L150.475,102.229 C151.093,102.519 151.634,102.871 152.096,103.285 C152.559,103.698 152.886,104.099 153.078,104.488 L153.791,104.488 L153.791,95.4513 M157.24,95.4513 L157.24,96.7098 L158.499,96.7098 L158.499,95.4513 L157.24,95.4513 " style="fill:#000000;fill-rule:evenodd;"/>
        <!-- Text: 2. -->
        <path d="M54.5441,24.3729 L54.5441,23.3109 L48.5952,23.3109 C48.5871,23.5769 48.63,23.8327 48.7242,24.0783 C48.8756,24.4835 49.1181,24.8825 49.4517,25.2754 C49.7852,25.6683 50.2671,26.1226 50.8974,26.6383 C51.8756,27.4405 52.5366,28.0759 52.8804,28.5445 C53.2242,29.0131 53.3961,29.4562 53.3961,29.8736 C53.3961,30.3116 53.2395,30.6809 52.9264,30.9817 C52.6133,31.2826 52.2051,31.433 51.7017,31.433 C51.1696,31.433 50.7439,31.2734 50.4247,30.9541 C50.1055,30.6349 49.9438,30.1929 49.9397,29.6281 L48.804,29.7447 C48.8817,30.5919 49.1744,31.2375 49.6819,31.6816 C50.1894,32.1257 50.8708,32.3477 51.7262,32.3477 C52.5898,32.3477 53.2733,32.1083 53.7767,31.6294 C54.2801,31.1506 54.5318,30.5571 54.5318,29.8491 C54.5318,29.4889 54.4581,29.1349 54.3108,28.787 C54.1635,28.4391 53.9189,28.0728 53.5772,27.6881 C53.2354,27.3034 52.6675,26.7754 51.8735,26.1042 C51.2105,25.5476 50.7849,25.17 50.5966,24.9715 C50.4083,24.773 50.2528,24.5735 50.13,24.3729 L54.5441,24.3729 M56.3483,23.3109 L56.3483,24.5694 L57.6068,24.5694 L57.6068,23.3109 L56.3483,23.3109 " style="fill:#000000;fill-rule:evenodd;"/>
    </g>
</svg>
