<svg width="110.9" xmlns="http://www.w3.org/2000/svg" height="82.18" viewBox="48.0943 -104.988 110.904 82.1772" style="fill:none;stroke-linecap:round;stroke-linejoin:round"><g transform="scale(1-1)"><g style="stroke:#fff"><path d="m60 30h90"/><path d="m150 30v60"/><path d="m150 90h-90"/><path d="m60 90v-60"/></g><path d="m150 90l-1.317-.878m-1.733-1.155l-.029-.019m-1.733-1.155l-3.495-2.33m-1.732-1.155l-.029-.019m-1.733-1.155l-3.495-2.33m-1.733-1.155l-.029-.019m-1.732-1.155l-3.495-2.33m-1.733-1.155l-.029-.019m-1.733-1.155l-3.494-2.33m-1.733-1.155l-.029-.019m-1.733-1.155l-3.494-2.33m-1.733-1.155l-.029-.019m-1.733-1.155l-3.495-2.33m-1.732-1.155l-.03-.019m-1.732-1.155l-3.495-2.33m-1.733-1.155l-.029-.019m-1.733-1.155l-3.495-2.33m-1.733-1.155l-.029-.019m-1.733-1.155l-3.495-2.33m-1.733-1.155l-.029-.02m-1.733-1.155l-3.495-2.33m-1.733-1.155l-.029-.019m-1.733-1.155l-3.495-2.33m-1.733-1.155l-.029-.019m-1.733-1.155l-3.495-2.33m-1.733-1.155l-.029-.019m-1.733-1.155l-1.317-.878" style="stroke:#00f;stroke-width:.35"/><circle cx="105" cy="60" r="1.5" style="stroke:#f00"/><g style="fill:#000;fill-rule:evenodd"><path d="m153.79 95.45h-1.105v7.04c-.267-.254-.615-.508-1.047-.761-.432-.254-.82-.444-1.164-.571v1.068c.618.29 1.159.642 1.621 1.056.463.413.79.814.982 1.203h.713v-9.04m3.449 0v1.258h1.259v-1.258h-1.259"/><path d="m54.54 24.373v-1.062h-5.949c-.008.266.035.522.129.767.151.405.394.804.727 1.197.334.393.815.847 1.446 1.363.978.802 1.639 1.438 1.983 1.906.344.469.516.912.516 1.329 0 .438-.157.807-.47 1.108-.313.301-.721.451-1.225.451-.532 0-.958-.16-1.277-.479-.319-.319-.481-.761-.485-1.326l-1.136.117c.078.847.37 1.493.878 1.937.508.444 1.189.666 2.044.666.864 0 1.547-.239 2.05-.718.503-.479.755-1.072.755-1.78 0-.36-.074-.714-.221-1.062-.147-.348-.392-.714-.734-1.099-.342-.385-.91-.913-1.704-1.584-.663-.557-1.089-.934-1.277-1.133-.188-.198-.344-.398-.467-.599h4.414m1.804-1.062v1.259h1.258v-1.259h-1.258"/></g></g></svg>
