<svg xmlns="http://www.w3.org/2000/svg" viewBox="0 0 512 512" xmlns:xlink="http://www.w3.org/1999/xlink">
<defs>
<linearGradient id="linearGradient148">
<stop offset="0" stop-color="#fff" stop-opacity=".134"/>
<stop offset="1" stop-color="#fff" stop-opacity=".052"/>
</linearGradient>
<linearGradient id="linearGradient335">
<stop offset="0" stop-color="#fff"/>
<stop offset="1" stop-color="#fff" stop-opacity="0"/>
</linearGradient>
<linearGradient id="linearGradient13842">
<stop offset="0"/>
<stop offset="1" stop-opacity="0"/>
</linearGradient>
<linearGradient id="linearGradient137">
<stop offset="0" stop-color="#fff" stop-opacity=".701"/>
<stop offset="1" stop-color="#fff" stop-opacity="0"/>
</linearGradient>
<linearGradient gradientTransform="matrix(15.16305 0 0 7.50361 -3.81826 -448.88654)" xlink:href="#linearGradient335" id="linearGradient155" y1="28.946" x1="19.116" y2="51.913" gradientUnits="userSpaceOnUse" x2="19.427"/>
<linearGradient gradientTransform="matrix(10.66666 0 0 10.90259 551.45542 -462.99881)" xlink:href="#linearGradient9766" id="linearGradient13162" y1="36.988" x1="22.176" y2="32.05" gradientUnits="userSpaceOnUse" x2="22.065"/>
<linearGradient gradientTransform="matrix(16.37651 0 0 6.94761 32.99685 -422.77456)" xlink:href="#linearGradient148" id="linearGradient156" y1="27.06" x1="14.899" y2="41.837" gradientUnits="userSpaceOnUse" x2="22.715"/>
<linearGradient gradientTransform="matrix(15.60208 0 .73684 7.29246 -3.81826 -448.88654)" xlink:href="#linearGradient137" id="linearGradient158" y1="18.726" x1="5.266" y2="52.626" gradientUnits="userSpaceOnUse" x2="8.212"/>
<linearGradient id="linearGradient9766">
<stop offset="0" stop-color="#6194cb"/>
<stop offset="1" stop-color="#729fcf"/>
</linearGradient>
<linearGradient id="linearGradient5048">
<stop offset="0" stop-opacity="0"/>
<stop offset=".5"/>
<stop offset="1" stop-opacity="0"/>
</linearGradient>
<linearGradient id="linearGradient5060">
<stop offset="0"/>
<stop offset="1" stop-opacity="0"/>
</linearGradient>
<linearGradient gradientTransform="matrix(2.77439 0 0 1.96971 -1892.179 -872.8854)" xlink:href="#linearGradient5048" id="linearGradient5027" y1="366.648" y2="609.505" gradientUnits="userSpaceOnUse" x2="0"/>
<linearGradient gradientTransform="matrix(10.66666 0 0 13.21392 -3.81826 -532.94619)" xlink:href="#linearGradient259" id="linearGradient8236" y1="10.625" x1="25.875" y2="30.875" x2="25.25" gradientUnits="userSpaceOnUse"/>
<linearGradient gradientTransform="matrix(10.66666 0 0 10.66666 -3.81826 -448.88654)" xlink:href="#linearGradient13842" id="linearGradient13848" y1="37.625" x1="22.25" y2="14.875" x2="19.75" gradientUnits="userSpaceOnUse"/>
<linearGradient id="linearGradient259">
<stop offset="0" stop-color="#fafafa"/>
<stop offset=".5" stop-color="#a8a8a8"/>
<stop offset="1" stop-color="#cdcdcd"/>
</linearGradient>
<radialGradient cx="26.107" cy="38.195" gradientTransform="matrix(10.83343 0 1.09979 10.67212 -3.81826 -449.77928)" id="radialGradient159" r="32.26" gradientUnits="userSpaceOnUse">
<stop offset="0" stop-color="#a0a0a0"/>
<stop offset="1" stop-color="#a8a8a8"/>
</radialGradient>
<radialGradient cx="605.714" cy="486.648" gradientTransform="matrix(2.77439 0 0 1.96971 -1891.633 -872.8854)" xlink:href="#linearGradient5060" id="radialGradient5029" r="117.143" gradientUnits="userSpaceOnUse"/>
<radialGradient cx="8.824" cy="3.756" gradientTransform="matrix(10.32824 0 0 11.16464 469.4031 -630.29624)" id="radialGradient8234" r="37.752" gradientUnits="userSpaceOnUse">
<stop offset="0" stop-color="#a3a3a3"/>
<stop offset="1" stop-color="#4c4c4c"/>
</radialGradient>
<radialGradient cx="605.714" cy="486.648" gradientTransform="matrix(-2.77439 0 0 1.96971 112.7623 -872.8854)" xlink:href="#linearGradient5060" id="radialGradient5031" r="117.143" gradientUnits="userSpaceOnUse"/>
</defs>
<g stroke-linejoin="round" stroke-linecap="round" stroke-width="10.667" color="#000" transform="translate(0 464)">
<path fill="url(#radialGradient159)" stroke="#5a5a5a" d="m45.462-36.6093c.446,4.4849 5.3054,8.9697 9.719,8.9697h332.1189c4.4135,0 8.3811-4.4848 7.9352-8.9697l-28.7639-289.2722c-.4459-4.4848-5.3054-8.9697-9.719-8.9697h-135.7164c-6.2991,0-12.8969-4.0485-14.9638-10.2436l-11.7654-35.2627c-1.8054-5.411-5.8363-7.8485-14.021-7.8485h-159.3314c-4.4135,0-8.3811,4.4848-7.9352,8.9697l32.443,342.6269z"/>
<g fill="#729fcf" stroke="#000">
<path opacity=".114" d="m31.7935-261.8628 332.265,0"/>
<path opacity=".114" d="m53.0367-48.5296 319.8692,0"/>
<path opacity=".114" d="m53.0367-69.8629 319.8692,0"/>
</g>
</g>
<g color="#000" transform="matrix(.23095 0 0 .20308 448.61218 409.07289)">
<path opacity=".402" fill="url(#linearGradient5027)" d="m-1559.25-150.697h1339.631v478.357h-1339.631z"/>
<path opacity=".402" fill="url(#radialGradient5029)" d="m-219.6188-150.6804c0,0 0,478.3308 0,478.3308 142.8742,.9004 345.4002-107.1697 345.4001-239.1962 0-132.0265-159.4368-239.1346-345.4001-239.1346z"/>
<path opacity=".402" fill="url(#radialGradient5031)" d="m-1559.2523-150.6804c0,0 0,478.3308 0,478.3308-142.8742,.9004-345.4002-107.1697-345.4002-239.1962 0-132.0265 159.4368-239.1346 345.4002-239.1346z"/>
</g>
<g color="#000" transform="translate(0 464)">
<path fill="url(#linearGradient158)" display="block" d="m62.0137-39.0876c.3345,3.3102-1.6493,5.5169-5.071,4.4135-3.4216-1.1034-5.8514-3.3102-6.1859-6.6203l-32.3154-334.5832c-.3345-3.3102 1.6703-5.309 4.9805-5.309l157.3306-.9754c5.667-.0351 7.8872,.5686 9.3845,5.5169 0,0 11.5773,33.2032 13.2932,39.4464l-16.593-31.115c-2.8286-5.3041-6.3866-4.4135-10.3764-4.4135h-140.0468c-3.3102,0-5.2939,2.2068-4.9595,5.5169l31.7741,329.2261-1.2149-1.1034z"/>
<g fill="#729fcf" stroke="#000" stroke-linejoin="round" stroke-linecap="round" stroke-width="10.667">
<path opacity=".114" d="m20.7709-368.5294 157.6931,0"/>
<path opacity=".114" d="m25.5933-325.8628 327.8812,0"/>
</g>
</g>
<g display="block" stroke="#000">
<g fill="#fff" fill-opacity=".58" transform="matrix(11.03385 0 1.11488 11.03385 -110.83131 43.18719)">
<path stroke="none" d="m41.7857,9.0364c.0096-.4746 .0152-.7245-.4234-.7242l-12.5558,.0087c-.3,0-.3246-.1432 0,0 .3246,.1432 1.2471,.6583 2.1827,.701 0,0 10.7965,.0165 10.7965,.0146z"/>
</g>
<g fill="#729fcf" stroke-linejoin="round" stroke-linecap="round" color="#000" stroke-width="10.667" transform="translate(0 464)">
<path opacity=".114" d="m29.9193-283.1961 328.8591,0"/>
<path opacity=".114" d="m51.2161-91.1962 319.8692,0"/>
<path opacity=".114" d="m48.0837-112.5296 321.1595,0"/>
<path opacity=".114" d="m45.6072-133.8629 321.8047,0"/>
<path opacity=".114" d="m43.7866-155.1962 321.8047,0"/>
<path opacity=".114" d="m41.5756-176.5295 322.1878,0"/>
<path opacity=".114" d="m39.0993-197.8628 322.8327,0"/>
<path opacity=".114" d="m37.2787-219.1962 322.8327,0"/>
</g>
<g fill="#fff" fill-opacity=".58" transform="matrix(11.03385 0 1.11488 11.03385 -110.83131 43.18719)">
<path stroke="none" d="m41.7857,9.0364c.0096-.4746 .0152-.7245-.4234-.7242l-12.5558,.0087c-.3,0-.3246-.1432 0,0 .3246,.1432 1.2471,.6583 2.1827,.701 0,0 10.7965,.0165 10.7965,.0146z"/>
</g>
</g>
<g transform="translate(0 464)">
<g display="block" color="#000">
<g fill="#729fcf" stroke="#000" stroke-linejoin="round" stroke-linecap="round" stroke-width="10.667">
<path opacity=".114" d="m27.8002-304.5294 330.9492,0"/>
<path opacity=".114" d="m35.1302-240.5295 323.1549,0"/>
<path opacity=".114" d="m23.1071-347.1961 162.9953,0"/>
</g>
<path opacity=".392" fill="url(#linearGradient13848)" d="m362.8482-298.22 28,262.6665-330.6665,1.3333c0,0-20-263.9998-20-263.9998 0,0 323.9998,0 322.6665,0z"/>
<g stroke-width="10.667">
<path fill="url(#linearGradient8236)" stroke="url(#radialGradient8234)" d="m458.8481-422.2796c5.3333,180.0397-96.8006,197.637-64.134,309.3359 0,0-335.8658,9.45-335.8658,9.45-20-137.0944 89.3333-226.2884 57.3333-317.1341l342.6664-1.6517z"/>
<path fill="none" stroke="#a1a1a1" d="m160.8483-378.8866 251.3332,0"/>
<path fill="url(#linearGradient13162)" stroke="#3465a4" stroke-linejoin="round" d="m57.8197-32.1828c1.1034,2.2557 3.3101,4.5112 6.6203,4.5112h355.2899c2.2068,0 5.5591-1.3472 7.5539-2.8197 5.6576-4.1764 6.9852-6.5321 9.523-10.3836 26.1133-39.6316 61.9215-205.6201 61.9215-205.6201 1.1034-2.2556-1.1034-4.5111-4.4135-4.5111h-372.5186c-3.3101,0-17.6636,171.8114-51.8719,205.7281l-13.2078,13.0952h1.1034z"/>
<path fill="none" stroke="#a1a1a1" d="m159.9797-357.5533 210.4036,0"/>
</g>
</g>
<path fill="url(#linearGradient156)" fill-rule="evenodd" d="m136.2827-234.0745c-8.2426,53.2347-16.0139,96.0985-28.9705,144.1478 25.4558-7.5425 75.9052-34.1814 182.5718-34.1814 106.6666,0 178.3847-98.6527 188.2842-110.4378l-341.8854,.4714z"/>
<g display="block" color="#000">
<g fill="none" stroke-width="10.667">
<path stroke="#a1a1a1" d="m157.7071-336.2199 259.358,0"/>
<path opacity=".523" stroke="url(#linearGradient155)" stroke-linecap="round" d="m484.929-238.8867-353.6901,0c0,0-22.9093,170.8757-50.3709,194.566 86.6248,0 336.7589-.5188 336.9703-.5188 18.6843,0 52.3481-134.786 67.0907-194.0473z"/>
<g stroke="#a1a1a1">
<path d="m149.7685-314.8866 254.436,0"/>
<path d="m141.558-293.5533 249.0271,0"/>
<path d="m129.7356-272.22 198.8923,0"/>
</g>
</g>
<path fill="#fff" d="m64.1817-110.2201c-13.2412-130.539 76.6666-203.3332 60-306.6665h329.3331l-319.9998,6.6667c13.3333,101.9999-66.0947,156.2287-69.3333,299.9998z"/>
</g>
</g>
</svg>
