  0
SECTION
  2
HEADER
  9
$ACADVER
  1
AC1024
  9
$ACADMAINTVER
 70
     6
  9
$DWGCODEPAGE
  3
ASCII
  9
$INSBASE
 10
0.0
 20
0.0
 30
0.0
  9
$EXTMIN
 10
1.000000000000000E+20
 20
1.000000000000000E+20
 30
1.000000000000000E+20
  9
$EXTMAX
 10
-1.000000000000000E+20
 20
-1.000000000000000E+20
 30
-1.000000000000000E+20
  9
$LIMMIN
 10
0.0
 20
0.0
  9
$LIMMAX
 10
12.0
 20
9.0
  9
$ORTHOMODE
 70
     0
  9
$REGENMODE
 70
     1
  9
$FILLMODE
 70
     1
  9
$QTEXTMODE
 70
     0
  9
$MIRRTEXT
 70
     1
  9
$LTSCALE
 40
1.0
  9
$ATTMODE
 70
     1
  9
$TEXTSIZE
 40
0.2
  9
$TRACEWID
 40
0.05
  9
$TEXTSTYLE
  7
Standard
  9
$CLAYER
  8
0
  9
$CELTYPE
  6
ByLayer
  9
$CECOLOR
 62
   178
  9
$CELTSCALE
 40
1.0
  9
$DISPSILH
 70
     0
  9
$DIMSCALE
 40
1.0
  9
$DIMASZ
 40
2.5
  9
$DIMEXO
 40
0.625
  9
$DIMDLI
 40
0.38
  9
$DIMRND
 40
0.0
  9
$DIMDLE
 40
0.0
  9
$DIMEXE
 40
1.25
  9
$DIMTP
 40
0.0
  9
$DIMTM
 40
0.0
  9
$DIMTXT
 40
2.5
  9
$DIMCEN
 40
0.09
  9
$DIMTSZ
 40
0.0
  9
$DIMTOL
 70
     0
  9
$DIMLIM
 70
     0
  9
$DIMTIH
 70
     1
  9
$DIMTOH
 70
     1
  9
$DIMSE1
 70
     0
  9
$DIMSE2
 70
     0
  9
$DIMTAD
 70
     0
  9
$DIMZIN
 70
     8
  9
$DIMBLK
  1

  9
$DIMASO
 70
     1
  9
$DIMSHO
 70
     1
  9
$DIMPOST
  1

  9
$DIMAPOST
  1

  9
$DIMALT
 70
     0
  9
$DIMALTD
 70
     2
  9
$DIMALTF
 40
25.4
  9
$DIMLFAC
 40
1.0
  9
$DIMTOFL
 70
     0
  9
$DIMTVP
 40
0.0
  9
$DIMTIX
 70
     0
  9
$DIMSOXD
 70
     0
  9
$DIMSAH
 70
     0
  9
$DIMBLK1
  1

  9
$DIMBLK2
  1

  9
$DIMSTYLE
  2
Standard
  9
$DIMCLRD
 70
   178
  9
$DIMCLRE
 70
   178
  9
$DIMCLRT
 70
   178
  9
$DIMTFAC
 40
1.0
  9
$DIMGAP
 40
0.625
  9
$DIMJUST
 70
     0
  9
$DIMSD1
 70
     0
  9
$DIMSD2
 70
     0
  9
$DIMTOLJ
 70
     1
  9
$DIMTZIN
 70
     0
  9
$DIMALTZ
 70
     0
  9
$DIMALTTZ
 70
     0
  9
$DIMUPT
 70
     0
  9
$DIMDEC
 70
     4
  9
$DIMTDEC
 70
     4
  9
$DIMALTU
 70
     2
  9
$DIMALTTD
 70
     2
  9
$DIMTXSTY
  7
Standard
  9
$DIMAUNIT
 70
     0
  9
$DIMADEC
 70
     0
  9
$DIMALTRND
 40
0.0
  9
$DIMAZIN
 70
     3
  9
$DIMDSEP
 70
    46
  9
$DIMATFIT
 70
     3
  9
$DIMFRAC
 70
     0
  9
$DIMLDRBLK
  1

  9
$DIMLUNIT
 70
     2
  9
$DIMLWD
 70
    -2
  9
$DIMLWE
 70
    -2
  9
$DIMTMOVE
 70
     0
  9
$DIMFXL
 40
1.0
  9
$DIMFXLON
 70
     0
  9
$DIMJOGANG
 40
0.7853981633974483
  9
$DIMTFILL
 70
     0
  9
$DIMTFILLCLR
 70
     0
  9
$DIMARCSYM
 70
     0
  9
$DIMLTYPE
  6

  9
$DIMLTEX1
  6

  9
$DIMLTEX2
  6

  9
$DIMTXTDIRECTION
 70
     0
  9
$LUNITS
 70
     2
  9
$LUPREC
 70
     4
  9
$SKETCHINC
 40
0.1
  9
$FILLETRAD
 40
0.5
  9
$AUNITS
 70
     0
  9
$AUPREC
 70
     0
  9
$MENU
  1
.
  9
$ELEVATION
 40
0.0
  9
$PELEVATION
 40
0.0
  9
$THICKNESS
 40
0.0
  9
$LIMCHECK
 70
     0
  9
$CHAMFERA
 40
0.5
  9
$CHAMFERB
 40
0.5
  9
$CHAMFERC
 40
1.0
  9
$CHAMFERD
 40
0.0
  9
$SKPOLY
 70
     0
  9
$TDCREATE
 40
2456086.500046285
  9
$TDUCREATE
 40
2456086.45837963
  9
$TDUPDATE
 40
2456086.500046285
  9
$TDUUPDATE
 40
2456086.45837963
  9
$TDINDWG
 40
0.0000000116
  9
$TDUSRTIMER
 40
0.0000000116
  9
$USRTIMER
 70
     1
  9
$ANGBASE
 50
0.0
  9
$ANGDIR
 70
     0
  9
$PDMODE
 70
     0
  9
$PDSIZE
 40
0.0
  9
$PLINEWID
 40
0.0
  9
$SPLFRAME
 70
     0
  9
$SPLINETYPE
 70
     6
  9
$SPLINESEGS
 70
     8
  9
$HANDSEED
  5
509
  9
$SURFTAB1
 70
     6
  9
$SURFTAB2
 70
     6
  9
$SURFTYPE
 70
     6
  9
$SURFU
 70
     6
  9
$SURFV
 70
     6
  9
$UCSBASE
  2

  9
$UCSNAME
  2

  9
$UCSORG
 10
0.0
 20
0.0
 30
0.0
  9
$UCSXDIR
 10
1.0
 20
0.0
 30
0.0
  9
$UCSYDIR
 10
0.0
 20
1.0
 30
0.0
  9
$UCSORTHOREF
  2

  9
$UCSORTHOVIEW
 70
     0
  9
$UCSORGTOP
 10
0.0
 20
0.0
 30
0.0
  9
$UCSORGBOTTOM
 10
0.0
 20
0.0
 30
0.0
  9
$UCSORGLEFT
 10
0.0
 20
0.0
 30
0.0
  9
$UCSORGRIGHT
 10
0.0
 20
0.0
 30
0.0
  9
$UCSORGFRONT
 10
0.0
 20
0.0
 30
0.0
  9
$UCSORGBACK
 10
0.0
 20
0.0
 30
0.0
  9
$PUCSBASE
  2

  9
$PUCSNAME
  2

  9
$PUCSORG
 10
0.0
 20
0.0
 30
0.0
  9
$PUCSXDIR
 10
1.0
 20
0.0
 30
0.0
  9
$PUCSYDIR
 10
0.0
 20
1.0
 30
0.0
  9
$PUCSORTHOREF
  2

  9
$PUCSORTHOVIEW
 70
     0
  9
$PUCSORGTOP
 10
0.0
 20
0.0
 30
0.0
  9
$PUCSORGBOTTOM
 10
0.0
 20
0.0
 30
0.0
  9
$PUCSORGLEFT
 10
0.0
 20
0.0
 30
0.0
  9
$PUCSORGRIGHT
 10
0.0
 20
0.0
 30
0.0
  9
$PUCSORGFRONT
 10
0.0
 20
0.0
 30
0.0
  9
$PUCSORGBACK
 10
0.0
 20
0.0
 30
0.0
  9
$USERI1
 70
     0
  9
$USERI2
 70
     0
  9
$USERI3
 70
     0
  9
$USERI4
 70
     0
  9
$USERI5
 70
     0
  9
$USERR1
 40
0.0
  9
$USERR2
 40
0.0
  9
$USERR3
 40
0.0
  9
$USERR4
 40
0.0
  9
$USERR5
 40
0.0
  9
$WORLDVIEW
 70
     1
  9
$SHADEDGE
 70
     3
  9
$SHADEDIF
 70
    70
  9
$TILEMODE
 70
     1
  9
$MAXACTVP
 70
    64
  9
$PINSBASE
 10
0.0
 20
0.0
 30
0.0
  9
$PLIMCHECK
 70
     0
  9
$PEXTMIN
 10
1.000000000000000E+20
 20
1.000000000000000E+20
 30
1.000000000000000E+20
  9
$PEXTMAX
 10
-1.000000000000000E+20
 20
-1.000000000000000E+20
 30
-1.000000000000000E+20
  9
$PLIMMIN
 10
0.0
 20
0.0
  9
$PLIMMAX
 10
12.0
 20
9.0
  9
$UNITMODE
 70
     0
  9
$VISRETAIN
 70
     1
  9
$PLINEGEN
 70
     0
  9
$PSLTSCALE
 70
     1
  9
$TREEDEPTH
 70
  3020
  9
$CMLSTYLE
  2
Standard
  9
$CMLJUST
 70
     0
  9
$CMLSCALE
 40
1.0
  9
$PROXYGRAPHICS
 70
     1
  9
$MEASUREMENT
 70
     1
  9
$CELWEIGHT
370
    -1
  9
$ENDCAPS
280
     0
  9
$JOINSTYLE
280
     0
  9
$LWDISPLAY
290
     0
  9
$INSUNITS
 70
     0
  9
$HYPERLINKBASE
  1

  9
$STYLESHEET
  1

  9
$XEDIT
290
     1
  9
$CEPSNTYPE
380
     0
  9
$PSTYLEMODE
290
     1
  9
$FINGERPRINTGUID
  2
{B07876B1-75CE-D193-DCD6-DEED19860DF0}
  9
$VERSIONGUID
  2
{FAEB1C32-E019-11D5-929B-00C0DF256EC4}
  9
$EXTNAMES
290
     1
  9
$PSVPSCALE
 40
0.0
  9
$OLESTARTUP
290
     0
  9
$SORTENTS
280
   127
  9
$INDEXCTL
280
     0
  9
$HIDETEXT
280
     1
  9
$XCLIPFRAME
280
     2
  9
$HALOGAP
280
     0
  9
$OBSCOLOR
 70
   257
  9
$OBSLTYPE
280
     0
  9
$INTERSECTIONDISPLAY
280
     0
  9
$INTERSECTIONCOLOR
 70
   257
  9
$DIMASSOC
280
     2
  9
$PROJECTNAME
  1

  9
$CAMERADISPLAY
290
     0
  9
$LENSLENGTH
 40
50.0
  9
$CAMERAHEIGHT
 40
0.0
  9
$STEPSPERSEC
 40
2.0
  9
$STEPSIZE
 40
6.0
  9
$3DDWFPREC
 40
2.0
  9
$PSOLWIDTH
 40
0.25
  9
$PSOLHEIGHT
 40
4.0
  9
$LOFTANG1
 40
1.570796326794897
  9
$LOFTANG2
 40
1.570796326794897
  9
$LOFTMAG1
 40
0.0
  9
$LOFTMAG2
 40
0.0
  9
$LOFTPARAM
 70
     7
  9
$LOFTNORMALS
280
     1
  9
$LATITUDE
 40
37.795
  9
$LONGITUDE
 40
-122.394
  9
$NORTHDIRECTION
 40
0.0
  9
$TIMEZONE
 70
 -8000
  9
$LIGHTGLYPHDISPLAY
280
     1
  9
$TILEMODELIGHTSYNCH
280
     1
  9
$SOLIDHIST
280
     1
  9
$SHOWHIST
280
     1
  9
$DWFFRAME
280
     2
  9
$DGNFRAME
280
     2
  9
$REALWORLDSCALE
290
     1
  9
$INTERFERECOLOR
 62
   256
  9
$CSHADOW
280
     0
  9
$SHADOWPLANELOCATION
 40
0.0
  0
ENDSEC
  0
SECTION
  2
CLASSES
  0
CLASS
  1
ACDBDICTIONARYWDFLT
  2
AcDbDictionaryWithDefault
  3
ObjectDBX Classes
 90
        0
 91
        4
280
     0
281
     0
  0
CLASS
  1
VISUALSTYLE
  2
AcDbVisualStyle
  3
ObjectDBX Classes
 90
     4095
 91
        4
280
     0
281
     0
  0
CLASS
  1
MATERIAL
  2
AcDbMaterial
  3
ObjectDBX Classes
 90
     1153
 91
        4
280
     0
281
     0
  0
ENDSEC
  0
SECTION
  2
TABLES
  0
TABLE
  2
VPORT
  5
234
330
0
100
AcDbSymbolTable
 70
     1
  0
VPORT
  5
254
330
234
100
AcDbSymbolTableRecord
100
AcDbViewportTableRecord
  2
*Active
 70
     0
 10
0.0
 20
0.0
 11
1.0
 21
1.0
 12
10.42990654205607
 22
4.5
 13
0.0
 23
0.0
 14
0.5
 24
0.5
 15
0.5
 25
0.5
 16
0.0
 26
0.0
 36
1.0
 17
0.0
 27
0.0
 37
0.0
 40
9.0
 41
1.972972972850329
 42
50.0
 43
0.0
 44
0.0
 50
0.0
 51
0.0
 71
     0
 72
   100
 73
     1
 74
     3
 75
     0
 76
     0
 77
     0
 78
     0
281
     0
 65
     1
110
0.0
120
0.0
130
0.0
111
1.0
121
0.0
131
0.0
112
0.0
122
1.0
132
0.0
 79
     0
146
0.0
 60
     3
 61
     5
292
     1
282
     1
141
0.0
142
0.0
 63
   250
  0
ENDTAB
  0
TABLE
  2
LTYPE
  5
231
330
0
100
AcDbSymbolTable
 70
    19
  0
LTYPE
  5
23F
330
231
100
AcDbSymbolTableRecord
100
AcDbLinetypeTableRecord
  2
ByBlock
 70
     0
  3

 72
    65
 73
     0
 40
0.0
  0
LTYPE
  5
240
330
231
100
AcDbSymbolTableRecord
100
AcDbLinetypeTableRecord
  2
ByLayer
 70
     0
  3

 72
    65
 73
     0
 40
0.0
  0
LTYPE
  5
241
330
231
100
AcDbSymbolTableRecord
100
AcDbLinetypeTableRecord
  2
Continuous
 70
     0
  3
Solid line
 72
    65
 73
     0
 40
0.0
  0
LTYPE
  5
284
330
231
100
AcDbSymbolTableRecord
100
AcDbLinetypeTableRecord
  2
BORDER
 70
     0
  3

 72
    65
 73
     6
 40
42.00000000000001
 49
12.0
 74
     0
 49
-6.0
 74
     0
 49
12.0
 74
     0
 49
-5.95
 74
     0
 49
0.1
 74
     0
 49
-5.95
 74
     0
  0
LTYPE
  5
285
330
231
100
AcDbSymbolTableRecord
100
AcDbLinetypeTableRecord
  2
BORDER2
 70
     0
  3

 72
    65
 73
     6
 40
21.0
 49
6.0
 74
     0
 49
-3.0
 74
     0
 49
6.0
 74
     0
 49
-2.95
 74
     0
 49
0.1
 74
     0
 49
-2.95
 74
     0
  0
LTYPE
  5
286
330
231
100
AcDbSymbolTableRecord
100
AcDbLinetypeTableRecord
  2
BORDERX2
 70
     0
  3

 72
    65
 73
     6
 40
84.0
 49
24.0
 74
     0
 49
-12.0
 74
     0
 49
24.0
 74
     0
 49
-11.95
 74
     0
 49
0.1
 74
     0
 49
-11.95
 74
     0
  0
LTYPE
  5
287
330
231
100
AcDbSymbolTableRecord
100
AcDbLinetypeTableRecord
  2
CENTER
 70
     0
  3

 72
    65
 73
     4
 40
50.0
 49
32.0
 74
     0
 49
-6.0
 74
     0
 49
6.0
 74
     0
 49
-6.0
 74
     0
  0
LTYPE
  5
288
330
231
100
AcDbSymbolTableRecord
100
AcDbLinetypeTableRecord
  2
CENTER2
 70
     0
  3

 72
    65
 73
     4
 40
25.0
 49
16.0
 74
     0
 49
-3.0
 74
     0
 49
3.0
 74
     0
 49
-3.0
 74
     0
  0
LTYPE
  5
289
330
231
100
AcDbSymbolTableRecord
100
AcDbLinetypeTableRecord
  2
CENTERX2
 70
     0
  3

 72
    65
 73
     4
 40
100.0
 49
64.0
 74
     0
 49
-12.0
 74
     0
 49
12.0
 74
     0
 49
-12.0
 74
     0
  0
LTYPE
  5
28A
330
231
100
AcDbSymbolTableRecord
100
AcDbLinetypeTableRecord
  2
DASHDOT
 70
     0
  3

 72
    65
 73
     4
 40
24.0
 49
12.0
 74
     0
 49
-5.95
 74
     0
 49
0.1
 74
     0
 49
-5.95
 74
     0
  0
LTYPE
  5
28B
330
231
100
AcDbSymbolTableRecord
100
AcDbLinetypeTableRecord
  2
DASHDOT2
 70
     0
  3

 72
    65
 73
     4
 40
12.0
 49
6.0
 74
     0
 49
-2.95
 74
     0
 49
0.1
 74
     0
 49
-2.95
 74
     0
  0
LTYPE
  5
28C
330
231
100
AcDbSymbolTableRecord
100
AcDbLinetypeTableRecord
  2
DASHDOTX2
 70
     0
  3

 72
    65
 73
     4
 40
48.0
 49
24.0
 74
     0
 49
-11.95
 74
     0
 49
0.1
 74
     0
 49
-11.95
 74
     0
  0
LTYPE
  5
28D
330
231
100
AcDbSymbolTableRecord
100
AcDbLinetypeTableRecord
  2
DASHED
 70
     0
  3

 72
    65
 73
     2
 40
18.0
 49
12.0
 74
     0
 49
-6.0
 74
     0
  0
LTYPE
  5
28E
330
231
100
AcDbSymbolTableRecord
100
AcDbLinetypeTableRecord
  2
DASHED2
 70
     0
  3

 72
    65
 73
     2
 40
9.0
 49
6.0
 74
     0
 49
-3.0
 74
     0
  0
LTYPE
  5
28F
330
231
100
AcDbSymbolTableRecord
100
AcDbLinetypeTableRecord
  2
DASHEDX2
 70
     0
  3

 72
    65
 73
     2
 40
36.0
 49
24.0
 74
     0
 49
-12.0
 74
     0
  0
LTYPE
  5
290
330
231
100
AcDbSymbolTableRecord
100
AcDbLinetypeTableRecord
  2
DIVIDE
 70
     0
  3

 72
    65
 73
     6
 40
29.99999999999999
 49
12.0
 74
     0
 49
-5.9
 74
     0
 49
0.15
 74
     0
 49
-5.9
 74
     0
 49
0.15
 74
     0
 49
-5.9
 74
     0
  0
LTYPE
  5
291
330
231
100
AcDbSymbolTableRecord
100
AcDbLinetypeTableRecord
  2
DIVIDE2
 70
     0
  3

 72
    65
 73
     6
 40
15.0
 49
6.0
 74
     0
 49
-2.9
 74
     0
 49
0.15
 74
     0
 49
-2.9
 74
     0
 49
0.15
 74
     0
 49
-2.9
 74
     0
  0
LTYPE
  5
292
330
231
100
AcDbSymbolTableRecord
100
AcDbLinetypeTableRecord
  2
DIVIDEX2
 70
     0
  3

 72
    65
 73
     6
 40
59.99999999999999
 49
24.0
 74
     0
 49
-11.9
 74
     0
 49
0.15
 74
     0
 49
-11.9
 74
     0
 49
0.15
 74
     0
 49
-11.9
 74
     0
  0
LTYPE
  5
293
330
231
100
AcDbSymbolTableRecord
100
AcDbLinetypeTableRecord
  2
DOT
 70
     0
  3

 72
    65
 73
     2
 40
6.3
 49
0.1
 74
     0
 49
-6.2
 74
     0
  0
LTYPE
  5
294
330
231
100
AcDbSymbolTableRecord
100
AcDbLinetypeTableRecord
  2
DOT2
 70
     0
  3

 72
    65
 73
     2
 40
3.2
 49
0.1
 74
     0
 49
-3.1
 74
     0
  0
LTYPE
  5
295
330
231
100
AcDbSymbolTableRecord
100
AcDbLinetypeTableRecord
  2
DOTX2
 70
     0
  3

 72
    65
 73
     2
 40
12.5
 49
0.1
 74
     0
 49
-12.4
 74
     0
  0
ENDTAB
  0
TABLE
  2
LAYER
  5
22E
330
0
100
AcDbSymbolTable
 70
     4
  0
LAYER
  5
23C
330
22E
100
AcDbSymbolTableRecord
100
AcDbLayerTableRecord
  2
0
 70
     0
 62
     7
420
 16777215
  6
Continuous
370
     9
390
23B
347
269
  0
LAYER
  5
296
330
22E
100
AcDbSymbolTableRecord
100
AcDbLayerTableRecord
  2
boxes
 70
     0
 62
     7
420
 16777215
  6
Continuous
370
    -3
390
23B
347
269
  0
LAYER
  5
297
330
22E
100
AcDbSymbolTableRecord
100
AcDbLayerTableRecord
  2
entities
 70
     0
 62
     7
420
 16777215
  6
Continuous
370
    13
390
23B
347
269
  0
LAYER
  5
298
330
22E
100
AcDbSymbolTableRecord
100
AcDbLayerTableRecord
  2
Defpoints
 70
     0
 62
     7
420
 16777215
  6
Continuous
290
     0
370
    -3
390
23B
347
269
  0
ENDTAB
  0
TABLE
  2
STYLE
  5
22F
330
0
100
AcDbSymbolTable
 70
    33
  0
STYLE
  5
23D
330
22F
100
AcDbSymbolTableRecord
100
AcDbTextStyleTableRecord
  2
Standard
 70
     0
 40
0.0
 41
1.0
 50
0.0
 71
     0
 42
0.2
  3
txt
  4

  0
STYLE
  5
3A5
330
22F
100
AcDbSymbolTableRecord
100
AcDbTextStyleTableRecord
  2
textstyle0
 70
     0
 40
0.0
 41
1.0
 50
0.0
 71
     0
 42
0.2
  3

  4

1001
ACAD
1000
Arial
1071
        0
  0
STYLE
  5
431
330
22F
100
AcDbSymbolTableRecord
100
AcDbTextStyleTableRecord
  2
textstyle1
 70
     0
 40
0.0
 41
1.0
 50
0.0
 71
     0
 42
0.2
  3
txt
  4

1001
ACAD
1000
txt
1071
        0
  0
STYLE
  5
45E
330
22F
100
AcDbSymbolTableRecord
100
AcDbTextStyleTableRecord
  2
textstyle2
 70
     0
 40
0.0
 41
1.0
 50
0.0
 71
     0
 42
0.2
  3
txt
  4

1001
ACAD
1000
txt
1071
        0
  0
STYLE
  5
4EA
330
22F
100
AcDbSymbolTableRecord
100
AcDbTextStyleTableRecord
  2
textstyle3
 70
     0
 40
0.0
 41
1.0
 50
0.0
 71
     0
 42
0.2
  3

  4

1001
ACAD
1000
Arial
1071
        0
  0
STYLE
  5
4EB
330
22F
100
AcDbSymbolTableRecord
100
AcDbTextStyleTableRecord
  2
textstyle4
 70
     0
 40
0.0
 41
1.0
 50
0.0
 71
     0
 42
0.2
  3

  4

1001
ACAD
1000
Arial
1071
        0
  0
STYLE
  5
4EC
330
22F
100
AcDbSymbolTableRecord
100
AcDbTextStyleTableRecord
  2
textstyle5
 70
     0
 40
0.0
 41
1.0
 50
0.0
 71
     0
 42
0.2
  3

  4

1001
ACAD
1000
Arial
1071
        0
  0
STYLE
  5
4ED
330
22F
100
AcDbSymbolTableRecord
100
AcDbTextStyleTableRecord
  2
textstyle6
 70
     0
 40
0.0
 41
1.0
 50
0.0
 71
     0
 42
0.2
  3

  4

1001
ACAD
1000
Arial
1071
        0
  0
STYLE
  5
4EE
330
22F
100
AcDbSymbolTableRecord
100
AcDbTextStyleTableRecord
  2
textstyle7
 70
     0
 40
0.0
 41
1.0
 50
0.0
 71
     0
 42
0.2
  3

  4

1001
ACAD
1000
Arial
1071
        0
  0
STYLE
  5
4EF
330
22F
100
AcDbSymbolTableRecord
100
AcDbTextStyleTableRecord
  2
textstyle8
 70
     0
 40
0.0
 41
1.0
 50
0.0
 71
     0
 42
0.2
  3

  4

1001
ACAD
1000
Arial
1071
        0
  0
STYLE
  5
4F0
330
22F
100
AcDbSymbolTableRecord
100
AcDbTextStyleTableRecord
  2
textstyle9
 70
     0
 40
0.0
 41
1.0
 50
0.0
 71
     0
 42
0.2
  3

  4

1001
ACAD
1000
Arial
1071
        0
  0
STYLE
  5
4F1
330
22F
100
AcDbSymbolTableRecord
100
AcDbTextStyleTableRecord
  2
textstyle10
 70
     0
 40
0.0
 41
1.0
 50
0.0
 71
     0
 42
0.2
  3

  4

1001
ACAD
1000
Arial
1071
        0
  0
STYLE
  5
4F2
330
22F
100
AcDbSymbolTableRecord
100
AcDbTextStyleTableRecord
  2
textstyle11
 70
     0
 40
0.0
 41
1.0
 50
0.0
 71
     0
 42
0.2
  3

  4

1001
ACAD
1000
Arial
1071
        0
  0
STYLE
  5
4F3
330
22F
100
AcDbSymbolTableRecord
100
AcDbTextStyleTableRecord
  2
textstyle12
 70
     0
 40
0.0
 41
1.0
 50
0.0
 71
     0
 42
0.2
  3

  4

1001
ACAD
1000
Arial
1071
        0
  0
STYLE
  5
4F4
330
22F
100
AcDbSymbolTableRecord
100
AcDbTextStyleTableRecord
  2
textstyle13
 70
     0
 40
0.0
 41
1.0
 50
0.0
 71
     0
 42
0.2
  3

  4

1001
ACAD
1000
Arial
1071
        0
  0
STYLE
  5
4F5
330
22F
100
AcDbSymbolTableRecord
100
AcDbTextStyleTableRecord
  2
textstyle14
 70
     0
 40
0.0
 41
1.0
 50
0.0
 71
     0
 42
0.2
  3

  4

1001
ACAD
1000
Arial
1071
        0
  0
STYLE
  5
4F6
330
22F
100
AcDbSymbolTableRecord
100
AcDbTextStyleTableRecord
  2
textstyle15
 70
     0
 40
0.0
 41
1.0
 50
0.0
 71
     0
 42
0.2
  3

  4

1001
ACAD
1000
Arial
1071
        0
  0
STYLE
  5
4F7
330
22F
100
AcDbSymbolTableRecord
100
AcDbTextStyleTableRecord
  2
textstyle16
 70
     0
 40
0.0
 41
1.0
 50
0.0
 71
     0
 42
0.2
  3

  4

1001
ACAD
1000
Arial
1071
        0
  0
STYLE
  5
4F8
330
22F
100
AcDbSymbolTableRecord
100
AcDbTextStyleTableRecord
  2
textstyle17
 70
     0
 40
0.0
 41
1.0
 50
0.0
 71
     0
 42
0.2
  3

  4

1001
ACAD
1000
Arial
1071
        0
  0
STYLE
  5
4F9
330
22F
100
AcDbSymbolTableRecord
100
AcDbTextStyleTableRecord
  2
textstyle18
 70
     0
 40
0.0
 41
1.0
 50
0.0
 71
     0
 42
0.2
  3

  4

1001
ACAD
1000
Arial
1071
        0
  0
STYLE
  5
4FA
330
22F
100
AcDbSymbolTableRecord
100
AcDbTextStyleTableRecord
  2
textstyle19
 70
     0
 40
0.0
 41
1.0
 50
0.0
 71
     0
 42
0.2
  3

  4

1001
ACAD
1000
Arial
1071
        0
  0
STYLE
  5
4FB
330
22F
100
AcDbSymbolTableRecord
100
AcDbTextStyleTableRecord
  2
textstyle20
 70
     0
 40
0.0
 41
1.0
 50
0.0
 71
     0
 42
0.2
  3

  4

1001
ACAD
1000
Arial
1071
        0
  0
STYLE
  5
4FC
330
22F
100
AcDbSymbolTableRecord
100
AcDbTextStyleTableRecord
  2
textstyle21
 70
     0
 40
0.0
 41
1.0
 50
0.0
 71
     0
 42
0.2
  3

  4

1001
ACAD
1000
Arial
1071
        0
  0
STYLE
  5
4FD
330
22F
100
AcDbSymbolTableRecord
100
AcDbTextStyleTableRecord
  2
textstyle22
 70
     0
 40
0.0
 41
1.0
 50
0.0
 71
     0
 42
0.2
  3

  4

1001
ACAD
1000
Arial
1071
        0
  0
STYLE
  5
4FE
330
22F
100
AcDbSymbolTableRecord
100
AcDbTextStyleTableRecord
  2
textstyle23
 70
     0
 40
0.0
 41
1.0
 50
0.0
 71
     0
 42
0.2
  3

  4

1001
ACAD
1000
Arial
1071
        0
  0
STYLE
  5
4FF
330
22F
100
AcDbSymbolTableRecord
100
AcDbTextStyleTableRecord
  2
textstyle24
 70
     0
 40
0.0
 41
1.0
 50
0.0
 71
     0
 42
0.2
  3

  4

1001
ACAD
1000
Arial
1071
        0
  0
STYLE
  5
500
330
22F
100
AcDbSymbolTableRecord
100
AcDbTextStyleTableRecord
  2
textstyle25
 70
     0
 40
0.0
 41
1.0
 50
0.0
 71
     0
 42
0.2
  3

  4

1001
ACAD
1000
Arial
1071
        0
  0
STYLE
  5
501
330
22F
100
AcDbSymbolTableRecord
100
AcDbTextStyleTableRecord
  2
textstyle26
 70
     0
 40
0.0
 41
1.0
 50
0.0
 71
     0
 42
0.2
  3

  4

1001
ACAD
1000
Arial
1071
        0
  0
STYLE
  5
502
330
22F
100
AcDbSymbolTableRecord
100
AcDbTextStyleTableRecord
  2
textstyle27
 70
     0
 40
0.0
 41
1.0
 50
0.0
 71
     0
 42
0.2
  3

  4

1001
ACAD
1000
Arial
1071
        0
  0
STYLE
  5
503
330
22F
100
AcDbSymbolTableRecord
100
AcDbTextStyleTableRecord
  2
textstyle28
 70
     0
 40
0.0
 41
1.0
 50
0.0
 71
     0
 42
0.2
  3

  4

1001
ACAD
1000
Arial
1071
        0
  0
STYLE
  5
504
330
22F
100
AcDbSymbolTableRecord
100
AcDbTextStyleTableRecord
  2
textstyle29
 70
     0
 40
0.0
 41
1.0
 50
0.0
 71
     0
 42
0.2
  3

  4

1001
ACAD
1000
Arial
1071
        0
  0
STYLE
  5
505
330
22F
100
AcDbSymbolTableRecord
100
AcDbTextStyleTableRecord
  2
textstyle30
 70
     0
 40
0.0
 41
1.0
 50
0.0
 71
     0
 42
0.2
  3

  4

1001
ACAD
1000
Arial
1071
        0
  0
STYLE
  5
506
330
22F
100
AcDbSymbolTableRecord
100
AcDbTextStyleTableRecord
  2
textstyle31
 70
     0
 40
0.0
 41
1.0
 50
0.0
 71
     0
 42
0.2
  3

  4

1001
ACAD
1000
Arial
1071
        0
  0
ENDTAB
  0
TABLE
  2
VIEW
  5
232
330
0
100
AcDbSymbolTable
 70
     0
  0
ENDTAB
  0
TABLE
  2
UCS
  5
233
330
0
100
AcDbSymbolTable
 70
     0
  0
ENDTAB
  0
TABLE
  2
APPID
  5
235
330
0
100
AcDbSymbolTable
 70
     2
  0
APPID
  5
23E
330
235
100
AcDbSymbolTableRecord
100
AcDbRegAppTableRecord
  2
ACAD
 70
     0
  0
APPID
  5
26A
330
235
100
AcDbSymbolTableRecord
100
AcDbRegAppTableRecord
  2
QCADCAM
 70
     0
  0
ENDTAB
  0
TABLE
  2
DIMSTYLE
  5
236
330
0
100
AcDbSymbolTable
 70
     2
100
AcDbDimStyleTable
  0
DIMSTYLE
105
252
330
236
100
AcDbSymbolTableRecord
100
AcDbDimStyleTableRecord
  2
Standard
 70
     0
178
     0
340
23D
  0
DIMSTYLE
105
283
102
{ACAD_REACTORS
330
12F
330
130
330
131
330
132
330
133
330
134
330
135
330
136
330
137
330
138
330
139
330
13A
330
13F
330
140
330
141
330
142
330
145
330
146
330
14B
330
14C
330
151
330
152
330
153
330
154
330
159
330
15A
330
15B
330
15C
330
167
330
168
330
169
330
16A
330
187
330
188
330
18D
330
18E
330
18F
330
190
330
191
330
192
330
197
330
198
330
199
330
19A
102
}
330
236
100
AcDbSymbolTableRecord
100
AcDbDimStyleTableRecord
  2
QCADDimStyle
 70
     0
 41
2.5
 42
0.625
 44
1.25
 73
     0
 77
     1
140
2.5
147
0.625
178
     0
340
23D
  0
ENDTAB
  0
TABLE
  2
BLOCK_RECORD
  5
22D
330
0
100
AcDbSymbolTable
 70
    76
  0
BLOCK_RECORD
  5
24A
330
22D
100
AcDbSymbolTableRecord
100
AcDbBlockTableRecord
  2
*Model_Space
340
24D
 70
     0
280
     1
281
     0
  0
BLOCK_RECORD
  5
246
330
22D
100
AcDbSymbolTableRecord
100
AcDbBlockTableRecord
  2
*Paper_Space
340
249
 70
     0
280
     1
281
     0
  0
BLOCK_RECORD
  5
24E
330
22D
100
AcDbSymbolTableRecord
100
AcDbBlockTableRecord
  2
*Paper_Space0
340
251
 70
     0
280
     1
281
     0
  0
BLOCK_RECORD
  5
299
330
22D
100
AcDbSymbolTableRecord
100
AcDbBlockTableRecord
  2
spline_fp_closed
340
0
102
{BLKREFS
331
1F5
102
}
 70
     0
280
     1
281
     0
  0
BLOCK_RECORD
  5
29C
330
22D
100
AcDbSymbolTableRecord
100
AcDbBlockTableRecord
  2
polyline
340
0
102
{BLKREFS
331
1DA
102
}
 70
     0
280
     1
281
     0
  0
BLOCK_RECORD
  5
29F
330
22D
100
AcDbSymbolTableRecord
100
AcDbBlockTableRecord
  2
dim_ordinate
340
0
102
{BLKREFS
331
222
102
}
 70
     0
280
     1
281
     0
  0
BLOCK_RECORD
  5
2A2
330
22D
100
AcDbSymbolTableRecord
100
AcDbBlockTableRecord
  2
arc
340
0
102
{BLKREFS
331
1F6
102
}
 70
     0
280
     1
281
     0
  0
BLOCK_RECORD
  5
2A5
330
22D
100
AcDbSymbolTableRecord
100
AcDbBlockTableRecord
  2
text
340
0
102
{BLKREFS
331
1FD
102
}
 70
     0
280
     1
281
     0
  0
BLOCK_RECORD
  5
2A8
330
22D
100
AcDbSymbolTableRecord
100
AcDbBlockTableRecord
  2
dim_angular_arc
340
0
102
{BLKREFS
331
20A
102
}
 70
     0
280
     1
281
     0
  0
BLOCK_RECORD
  5
2AB
330
22D
100
AcDbSymbolTableRecord
100
AcDbBlockTableRecord
  2
line
340
0
102
{BLKREFS
331
1D2
102
}
 70
     0
280
     1
281
     0
  0
BLOCK_RECORD
  5
2AE
330
22D
100
AcDbSymbolTableRecord
100
AcDbBlockTableRecord
  2
spline_cp_2deg
340
0
102
{BLKREFS
331
1DE
102
}
 70
     0
280
     1
281
     0
  0
BLOCK_RECORD
  5
2B1
330
22D
100
AcDbSymbolTableRecord
100
AcDbBlockTableRecord
  2
block_insert
340
0
102
{BLKREFS
331
1FE
102
}
 70
     0
280
     1
281
     0
  0
BLOCK_RECORD
  5
2B4
330
22D
100
AcDbSymbolTableRecord
100
AcDbBlockTableRecord
  2
dim_diametric_circle
340
0
102
{BLKREFS
331
216
102
}
 70
     0
280
     1
281
     0
  0
BLOCK_RECORD
  5
2B7
330
22D
100
AcDbSymbolTableRecord
100
AcDbBlockTableRecord
  2
dim_vertical
340
0
102
{BLKREFS
331
1BE
102
}
 70
     0
280
     1
281
     0
  0
BLOCK_RECORD
  5
2BA
330
22D
100
AcDbSymbolTableRecord
100
AcDbBlockTableRecord
  2
block01
340
0
102
{BLKREFS
331
14F
102
}
 70
     0
280
     1
281
     0
  0
BLOCK_RECORD
  5
2BD
330
22D
100
AcDbSymbolTableRecord
100
AcDbBlockTableRecord
  2
dim_radial_arc
340
0
102
{BLKREFS
331
226
102
}
 70
     0
280
     1
281
     0
  0
BLOCK_RECORD
  5
2C0
330
22D
100
AcDbSymbolTableRecord
100
AcDbBlockTableRecord
  2
points
340
0
102
{BLKREFS
331
1D6
102
}
 70
     0
280
     1
281
     0
  0
BLOCK_RECORD
  5
2C3
330
22D
100
AcDbSymbolTableRecord
100
AcDbBlockTableRecord
  2
spline_cp_2deg_closed
340
0
102
{BLKREFS
331
1E2
102
}
 70
     0
280
     1
281
     0
  0
BLOCK_RECORD
  5
2C6
330
22D
100
AcDbSymbolTableRecord
100
AcDbBlockTableRecord
  2
ellipse
340
0
102
{BLKREFS
331
1C2
102
}
 70
     0
280
     1
281
     0
  0
BLOCK_RECORD
  5
2C9
330
22D
100
AcDbSymbolTableRecord
100
AcDbBlockTableRecord
  2
block02
340
0
102
{BLKREFS
331
150
102
}
 70
     0
280
     1
281
     0
  0
BLOCK_RECORD
  5
2CC
330
22D
100
AcDbSymbolTableRecord
100
AcDbBlockTableRecord
  2
spline_cp_3deg
340
0
102
{BLKREFS
331
1E6
102
}
 70
     0
280
     1
281
     0
  0
BLOCK_RECORD
  5
2CF
330
22D
100
AcDbSymbolTableRecord
100
AcDbBlockTableRecord
  2
dim_angular_line
340
0
102
{BLKREFS
331
20E
102
}
 70
     0
280
     1
281
     0
  0
BLOCK_RECORD
  5
2D2
330
22D
100
AcDbSymbolTableRecord
100
AcDbBlockTableRecord
  2
dim_horizontal
340
0
102
{BLKREFS
331
21A
102
}
 70
     0
280
     1
281
     0
  0
BLOCK_RECORD
  5
2D5
330
22D
100
AcDbSymbolTableRecord
100
AcDbBlockTableRecord
  2
dim_radial_circle
340
0
102
{BLKREFS
331
22A
102
}
 70
     0
280
     1
281
     0
  0
BLOCK_RECORD
  5
2D8
330
22D
100
AcDbSymbolTableRecord
100
AcDbBlockTableRecord
  2
ellispe_arc
340
0
102
{BLKREFS
331
1C6
102
}
 70
     0
280
     1
281
     0
  0
BLOCK_RECORD
  5
2DB
330
22D
100
AcDbSymbolTableRecord
100
AcDbBlockTableRecord
  2
spline_cp_3deg_closed
340
0
102
{BLKREFS
331
1EA
102
}
 70
     0
280
     1
281
     0
  0
BLOCK_RECORD
  5
2DE
330
22D
100
AcDbSymbolTableRecord
100
AcDbBlockTableRecord
  2
circle
340
0
102
{BLKREFS
331
202
102
}
 70
     0
280
     1
281
     0
  0
BLOCK_RECORD
  5
2E1
330
22D
100
AcDbSymbolTableRecord
100
AcDbBlockTableRecord
  2
hatch_pattern
340
0
102
{BLKREFS
331
1CA
102
}
 70
     0
280
     1
281
     0
  0
BLOCK_RECORD
  5
2E4
330
22D
100
AcDbSymbolTableRecord
100
AcDbBlockTableRecord
  2
dim_leader
340
0
102
{BLKREFS
331
21E
102
}
 70
     0
280
     1
281
     0
  0
BLOCK_RECORD
  5
2E7
330
22D
100
AcDbSymbolTableRecord
100
AcDbBlockTableRecord
  2
spline_fp
340
0
102
{BLKREFS
331
1EE
102
}
 70
     0
280
     1
281
     0
  0
BLOCK_RECORD
  5
2EA
330
22D
100
AcDbSymbolTableRecord
100
AcDbBlockTableRecord
  2
dim_diametric_arc
340
0
102
{BLKREFS
331
212
102
}
 70
     0
280
     1
281
     0
  0
BLOCK_RECORD
  5
2ED
330
22D
100
AcDbSymbolTableRecord
100
AcDbBlockTableRecord
  2
dim_aligned
340
0
102
{BLKREFS
331
206
102
}
 70
     0
280
     1
281
     0
  0
BLOCK_RECORD
  5
2F0
330
22D
100
AcDbSymbolTableRecord
100
AcDbBlockTableRecord
  2
dim_rotated
340
0
102
{BLKREFS
331
1BA
102
}
 70
     0
280
     1
281
     0
  0
BLOCK_RECORD
  5
2F3
330
22D
100
AcDbSymbolTableRecord
100
AcDbBlockTableRecord
  2
hatch_solid
340
0
102
{BLKREFS
331
1CE
102
}
 70
     0
280
     1
281
     0
  0
BLOCK_RECORD
  5
2F6
330
22D
100
AcDbSymbolTableRecord
100
AcDbBlockTableRecord
  2
*D32
340
0
 70
     0
280
     1
281
     0
  0
BLOCK_RECORD
  5
2FF
330
22D
100
AcDbSymbolTableRecord
100
AcDbBlockTableRecord
  2
*D33
340
0
 70
     0
280
     1
281
     0
  0
BLOCK_RECORD
  5
308
330
22D
100
AcDbSymbolTableRecord
100
AcDbBlockTableRecord
  2
*D34
340
0
 70
     0
280
     1
281
     0
  0
BLOCK_RECORD
  5
311
330
22D
100
AcDbSymbolTableRecord
100
AcDbBlockTableRecord
  2
*D35
340
0
 70
     0
280
     1
281
     0
  0
BLOCK_RECORD
  5
31D
330
22D
100
AcDbSymbolTableRecord
100
AcDbBlockTableRecord
  2
*D36
340
0
 70
     0
280
     1
281
     0
  0
BLOCK_RECORD
  5
329
330
22D
100
AcDbSymbolTableRecord
100
AcDbBlockTableRecord
  2
*D37
340
0
 70
     0
280
     1
281
     0
  0
BLOCK_RECORD
  5
335
330
22D
100
AcDbSymbolTableRecord
100
AcDbBlockTableRecord
  2
*D38
340
0
 70
     0
280
     1
281
     0
  0
BLOCK_RECORD
  5
341
330
22D
100
AcDbSymbolTableRecord
100
AcDbBlockTableRecord
  2
*D39
340
0
 70
     0
280
     1
281
     0
  0
BLOCK_RECORD
  5
34D
330
22D
100
AcDbSymbolTableRecord
100
AcDbBlockTableRecord
  2
*D40
340
0
 70
     0
280
     1
281
     0
  0
BLOCK_RECORD
  5
359
330
22D
100
AcDbSymbolTableRecord
100
AcDbBlockTableRecord
  2
*D41
340
0
 70
     0
280
     1
281
     0
  0
BLOCK_RECORD
  5
365
330
22D
100
AcDbSymbolTableRecord
100
AcDbBlockTableRecord
  2
*D42
340
0
 70
     0
280
     1
281
     0
  0
BLOCK_RECORD
  5
371
330
22D
100
AcDbSymbolTableRecord
100
AcDbBlockTableRecord
  2
*D43
340
0
 70
     0
280
     1
281
     0
  0
BLOCK_RECORD
  5
37D
330
22D
100
AcDbSymbolTableRecord
100
AcDbBlockTableRecord
  2
*D44
340
0
 70
     0
280
     1
281
     0
  0
BLOCK_RECORD
  5
387
330
22D
100
AcDbSymbolTableRecord
100
AcDbBlockTableRecord
  2
*D45
340
0
 70
     0
280
     1
281
     0
  0
BLOCK_RECORD
  5
391
330
22D
100
AcDbSymbolTableRecord
100
AcDbBlockTableRecord
  2
*D46
340
0
 70
     0
280
     1
281
     0
  0
BLOCK_RECORD
  5
39B
330
22D
100
AcDbSymbolTableRecord
100
AcDbBlockTableRecord
  2
*D47
340
0
 70
     0
280
     1
281
     0
  0
BLOCK_RECORD
  5
3A6
330
22D
100
AcDbSymbolTableRecord
100
AcDbBlockTableRecord
  2
*D48
340
0
 70
     0
280
     1
281
     0
  0
BLOCK_RECORD
  5
3B2
330
22D
100
AcDbSymbolTableRecord
100
AcDbBlockTableRecord
  2
*D49
340
0
 70
     0
280
     1
281
     0
  0
BLOCK_RECORD
  5
3BE
330
22D
100
AcDbSymbolTableRecord
100
AcDbBlockTableRecord
  2
*D50
340
0
 70
     0
280
     1
281
     0
  0
BLOCK_RECORD
  5
3CA
330
22D
100
AcDbSymbolTableRecord
100
AcDbBlockTableRecord
  2
*D51
340
0
 70
     0
280
     1
281
     0
  0
BLOCK_RECORD
  5
3D6
330
22D
100
AcDbSymbolTableRecord
100
AcDbBlockTableRecord
  2
*D52
340
0
 70
     0
280
     1
281
     0
  0
BLOCK_RECORD
  5
3E0
330
22D
100
AcDbSymbolTableRecord
100
AcDbBlockTableRecord
  2
*D53
340
0
 70
     0
280
     1
281
     0
  0
BLOCK_RECORD
  5
3EB
330
22D
100
AcDbSymbolTableRecord
100
AcDbBlockTableRecord
  2
*D54
340
0
 70
     0
280
     1
281
     0
  0
BLOCK_RECORD
  5
3F6
330
22D
100
AcDbSymbolTableRecord
100
AcDbBlockTableRecord
  2
*D55
340
0
 70
     0
280
     1
281
     0
  0
BLOCK_RECORD
  5
401
330
22D
100
AcDbSymbolTableRecord
100
AcDbBlockTableRecord
  2
*D56
340
0
 70
     0
280
     1
281
     0
  0
BLOCK_RECORD
  5
40D
330
22D
100
AcDbSymbolTableRecord
100
AcDbBlockTableRecord
  2
*D57
340
0
 70
     0
280
     1
281
     0
  0
BLOCK_RECORD
  5
419
330
22D
100
AcDbSymbolTableRecord
100
AcDbBlockTableRecord
  2
*D58
340
0
 70
     0
280
     1
281
     0
  0
BLOCK_RECORD
  5
425
330
22D
100
AcDbSymbolTableRecord
100
AcDbBlockTableRecord
  2
*D59
340
0
 70
     0
280
     1
281
     0
  0
BLOCK_RECORD
  5
432
330
22D
100
AcDbSymbolTableRecord
100
AcDbBlockTableRecord
  2
*D60
340
0
 70
     0
280
     1
281
     0
  0
BLOCK_RECORD
  5
43D
330
22D
100
AcDbSymbolTableRecord
100
AcDbBlockTableRecord
  2
*D61
340
0
 70
     0
280
     1
281
     0
  0
BLOCK_RECORD
  5
448
330
22D
100
AcDbSymbolTableRecord
100
AcDbBlockTableRecord
  2
*D62
340
0
 70
     0
280
     1
281
     0
  0
BLOCK_RECORD
  5
453
330
22D
100
AcDbSymbolTableRecord
100
AcDbBlockTableRecord
  2
*D63
340
0
 70
     0
280
     1
281
     0
  0
BLOCK_RECORD
  5
45F
330
22D
100
AcDbSymbolTableRecord
100
AcDbBlockTableRecord
  2
*D64
340
0
 70
     0
280
     1
281
     0
  0
BLOCK_RECORD
  5
46B
330
22D
100
AcDbSymbolTableRecord
100
AcDbBlockTableRecord
  2
*D65
340
0
 70
     0
280
     1
281
     0
  0
BLOCK_RECORD
  5
477
330
22D
100
AcDbSymbolTableRecord
100
AcDbBlockTableRecord
  2
*D66
340
0
 70
     0
280
     1
281
     0
  0
BLOCK_RECORD
  5
483
330
22D
100
AcDbSymbolTableRecord
100
AcDbBlockTableRecord
  2
*D67
340
0
 70
     0
280
     1
281
     0
  0
BLOCK_RECORD
  5
48F
330
22D
100
AcDbSymbolTableRecord
100
AcDbBlockTableRecord
  2
*D68
340
0
 70
     0
280
     1
281
     0
  0
BLOCK_RECORD
  5
49B
330
22D
100
AcDbSymbolTableRecord
100
AcDbBlockTableRecord
  2
*D69
340
0
 70
     0
280
     1
281
     0
  0
BLOCK_RECORD
  5
4A7
330
22D
100
AcDbSymbolTableRecord
100
AcDbBlockTableRecord
  2
*D70
340
0
 70
     0
280
     1
281
     0
  0
BLOCK_RECORD
  5
4B3
330
22D
100
AcDbSymbolTableRecord
100
AcDbBlockTableRecord
  2
*D71
340
0
 70
     0
280
     1
281
     0
  0
BLOCK_RECORD
  5
4BF
330
22D
100
AcDbSymbolTableRecord
100
AcDbBlockTableRecord
  2
*D72
340
0
 70
     0
280
     1
281
     0
  0
BLOCK_RECORD
  5
4C9
330
22D
100
AcDbSymbolTableRecord
100
AcDbBlockTableRecord
  2
*D73
340
0
 70
     0
280
     1
281
     0
  0
BLOCK_RECORD
  5
4D4
330
22D
100
AcDbSymbolTableRecord
100
AcDbBlockTableRecord
  2
*D74
340
0
 70
     0
280
     1
281
     0
  0
BLOCK_RECORD
  5
4DF
330
22D
100
AcDbSymbolTableRecord
100
AcDbBlockTableRecord
  2
*D75
340
0
 70
     0
280
     1
281
     0
  0
ENDTAB
  0
ENDSEC
  0
SECTION
  2
BLOCKS
  0
BLOCK
  5
24B
330
24A
100
AcDbEntity
  8
0
100
AcDbBlockBegin
  2
*Model_Space
 70
     0
 10
0.0
 20
0.0
 30
0.0
  3
*Model_Space
  1

  0
ENDBLK
  5
24C
330
24A
100
AcDbEntity
  8
0
100
AcDbBlockEnd
  0
BLOCK
  5
247
330
246
100
AcDbEntity
 67
     1
  8
0
100
AcDbBlockBegin
  2
*Paper_Space
 70
     0
 10
0.0
 20
0.0
 30
0.0
  3
*Paper_Space
  1

  0
ENDBLK
  5
248
330
246
100
AcDbEntity
 67
     1
  8
0
100
AcDbBlockEnd
  0
BLOCK
  5
24F
330
24E
100
AcDbEntity
  8
0
100
AcDbBlockBegin
  2
*Paper_Space0
 70
     0
 10
0.0
 20
0.0
 30
0.0
  3
*Paper_Space0
  1

  0
ENDBLK
  5
250
330
24E
100
AcDbEntity
  8
0
100
AcDbBlockEnd
  0
BLOCK
  5
29A
330
299
100
AcDbEntity
  8
0
100
AcDbBlockBegin
  2
spline_fp_closed
 70
     0
 10
0.0
 20
0.0
 30
0.0
  3
spline_fp_closed
  1

  0
SPLINE
  5
13D
330
299
100
AcDbEntity
  8
0
100
AcDbSpline
210
0.0
220
0.0
230
1.0
 70
    11
 71
     3
 72
    12
 73
     8
 74
     6
 42
0.0000000001
 43
0.0000000001
 44
0.0
 12
-0.7847001309377888
 22
0.6198755556611484
 32
0.0
 13
-0.7847001309377888
 23
0.6198755556611484
 33
0.0
 40
0.0
 40
0.0
 40
0.0
 40
0.0
 40
60.0
 40
120.0
 40
156.0555127546399
 40
198.4819196258327
 40
268.4819196258327
 40
268.4819196258327
 40
268.4819196258327
 40
268.4819196258327
 10
20.0
 20
20.0
 30
0.0
 10
4.305997381244225
 20
32.39751111322297
 30
0.0
 10
-3.639338543135302
 20
97.30037891836307
 30
0.0
 10
108.9963524437905
 20
91.71014810802066
 30
0.0
 10
37.9488714608426
 20
46.649940720794
 30
0.0
 10
130.137135446552
 20
9.783319209928393
 30
0.0
 10
38.30966972188173
 20
5.536237034573205
 30
0.0
 10
20.0
 20
20.0
 30
0.0
 11
20.0
 21
20.0
 31
0.0
 11
20.0
 21
80.0
 31
0.0
 11
80.0
 21
80.0
 31
0.0
 11
60.0
 21
50.0
 31
0.0
 11
90.0
 21
20.0
 31
0.0
 11
20.0
 21
20.0
 31
0.0
  0
ENDBLK
  5
29B
330
299
100
AcDbEntity
  8
0
100
AcDbBlockEnd
  0
BLOCK
  5
29D
330
29C
100
AcDbEntity
  8
0
100
AcDbBlockBegin
  2
polyline
 70
     0
 10
0.0
 20
0.0
 30
0.0
  3
polyline
  1

  0
LWPOLYLINE
  5
13E
330
29C
100
AcDbEntity
  8
0
100
AcDbPolyline
 90
        6
 70
     0
 43
0.0
 10
10.0
 20
10.0
 10
10.0
 20
90.0
 10
90.0
 20
90.0
 10
90.0
 20
10.0
 10
60.0
 20
50.0
 42
1.953436733964739
 10
50.32455532033675
 20
19.02633403898973
  0
ENDBLK
  5
29E
330
29C
100
AcDbEntity
  8
0
100
AcDbBlockEnd
  0
BLOCK
  5
2A0
330
29F
100
AcDbEntity
  8
0
100
AcDbBlockBegin
  2
dim_ordinate
 70
     0
 10
0.0
 20
0.0
 30
0.0
  3
dim_ordinate
  1

  0
DIMENSION
  5
13F
330
29F
100
AcDbEntity
  8
0
100
AcDbDimension
280
     0
  2
*D44
 10
0.0
 20
0.0
 30
0.0
 11
32.47023809523809
 21
21.875
 31
0.0
 70
    38
 71
     5
 42
10.0
 73
     0
 74
     0
 75
     0
  3
QCADDimStyle
100
AcDbOrdinateDimension
 13
10.0
 23
10.0
 33
0.0
 14
30.0
 24
20.0
 34
0.0
1001
ACAD
1000
DSTYLE
1002
{
1070
   279
1070
     2
1070
    41
1040
2.5
1070
    79
1070
     3
1070
   176
1070
     0
1070
   177
1070
     0
1070
   178
1070
     0
1070
    44
1040
1.25
1070
    42
1040
0.625
1070
   147
1040
0.625
1070
   140
1040
2.5
1070
    78
1070
     8
1002
}
  0
DIMENSION
  5
140
330
29F
100
AcDbEntity
  8
0
100
AcDbDimension
280
     0
  2
*D45
 10
0.0
 20
0.0
 30
0.0
 11
53.72023809523809
 21
41.87499999999999
 31
0.0
 70
    38
  1
⌀<>
 71
     5
 42
30.0
 73
     0
 74
     0
 75
     0
  3
QCADDimStyle
100
AcDbOrdinateDimension
 13
10.0
 23
30.0
 33
0.0
 14
50.0
 24
39.99999999999999
 34
0.0
1001
ACAD
1000
DSTYLE
1002
{
1070
   279
1070
     2
1070
    41
1040
2.5
1070
    79
1070
     3
1070
   176
1070
     0
1070
   177
1070
     0
1070
   178
1070
     0
1070
    44
1040
1.25
1070
    42
1040
0.625
1070
   147
1040
0.625
1070
   140
1040
2.5
1070
    78
1070
     8
1002
}
  0
DIMENSION
  5
141
330
29F
100
AcDbEntity
  8
0
100
AcDbDimension
280
     0
  2
*D46
 10
0.0
 20
0.0
 30
0.0
 11
73.89880952380952
 21
61.875
 31
0.0
 70
    38
  1
text
 71
     5
 42
50.0
 73
     0
 74
     0
 75
     0
  3
QCADDimStyle
100
AcDbOrdinateDimension
 13
9.999999999999998
 23
50.0
 33
0.0
 14
70.0
 24
60.0
 34
0.0
1001
ACAD
1000
DSTYLE
1002
{
1070
   279
1070
     2
1070
    41
1040
2.5
1070
    79
1070
     3
1070
   176
1070
     0
1070
   177
1070
     0
1070
   178
1070
     0
1070
    44
1040
1.25
1070
    42
1040
0.625
1070
   147
1040
0.625
1070
   140
1040
2.5
1070
    78
1070
     8
1002
}
  0
DIMENSION
  5
142
330
29F
100
AcDbEntity
  8
0
100
AcDbDimension
280
     0
  2
*D47
 10
0.0
 20
0.0
 30
0.0
 11
86.81547619047619
 21
83.54166666666669
 31
0.0
 70
    38
  1
\A1;<>\S0.01^ 0.02;
 71
     5
 42
70.0
 73
     0
 74
     0
 75
     0
  3
QCADDimStyle
100
AcDbOrdinateDimension
 13
9.999999999999996
 23
70.0
 33
0.0
 14
80.0
 24
80.00000000000001
 34
0.0
1001
ACAD
1000
DSTYLE
1002
{
1070
   279
1070
     2
1070
    41
1040
2.5
1070
    79
1070
     3
1070
   176
1070
     0
1070
   177
1070
     0
1070
   178
1070
     0
1070
    44
1040
1.25
1070
    42
1040
0.625
1070
   147
1040
0.625
1070
   140
1040
2.5
1070
    78
1070
     8
1002
}
  0
ENDBLK
  5
2A1
330
29F
100
AcDbEntity
  8
0
100
AcDbBlockEnd
  0
BLOCK
  5
2A3
330
2A2
100
AcDbEntity
  8
0
100
AcDbBlockBegin
  2
arc
 70
     0
 10
0.0
 20
0.0
 30
0.0
  3
arc
  1

  0
ARC
  5
143
330
2A2
100
AcDbEntity
  8
0
100
AcDbCircle
 10
90.0
 20
10.0
 30
0.0
 40
80.0
100
AcDbArc
 50
90.0
 51
180.0
  0
ENDBLK
  5
2A4
330
2A2
100
AcDbEntity
  8
0
100
AcDbBlockEnd
  0
BLOCK
  5
2A6
330
2A5
100
AcDbEntity
  8
0
100
AcDbBlockBegin
  2
text
 70
     0
 10
0.0
 20
0.0
 30
0.0
  3
text
  1

  0
MTEXT
  5
144
330
2A5
100
AcDbEntity
  8
0
100
AcDbMText
 10
10.00000000000001
 20
90.0
 30
0.0
 40
5.0
 41
0.0
 46
0.0
 71
     1
 72
     1
  3
text, Arial, h5\P\fArial|b1|i0|c0|p0;text, Arial, h5, bold\P\fArial|b0|i1|c0|p0;text, Arial, h5, italic\P\fArial|b0|i0|c0|p0;\C1;text, Arial, h5, red\P\c0;special characters:\P%%d %%p %%c ≈ × ÷ Δ π ≡ ≠ Ω Ω ²³\P\fTimes New Roman|b0|i0|c0|p0;\C256;text
  1
, Times New Roman, h5\fArial|b0|i0|c0|p0;\c0;\P\H7.85714;text, Arial, h8
  7
textstyle0
 73
     1
 44
1.0
  0
ENDBLK
  5
2A7
330
2A5
100
AcDbEntity
  8
0
100
AcDbBlockEnd
  0
BLOCK
  5
2A9
330
2A8
100
AcDbEntity
  8
0
100
AcDbBlockBegin
  2
dim_angular_arc
 70
     0
 10
0.0
 20
0.0
 30
0.0
  3
dim_angular_arc
  1

  0
DIMENSION
  5
145
330
2A8
100
AcDbEntity
  8
0
100
AcDbDimension
280
     0
  2
*D48
 10
61.71572875253811
 20
38.28427124746192
 30
0.0
 11
76.29647891241646
 21
43.08322646190993
 31
0.0
 70
    34
  1
text
 71
     5
 42
0.7853981633974492
 73
     0
 74
     0
 75
     0
  3
QCADDimStyle
100
AcDb2LineAngularDimension
 13
90.0
 23
10.00000000000009
 33
0.0
 14
90.0
 24
50.00000000000001
 34
0.0
 15
90.0
 25
10.00000000000009
 35
0.0
 16
81.21722772098163
 26
42.77775237660413
 36
0.0
1001
ACAD
1000
DSTYLE
1002
{
1070
   279
1070
     2
1070
    41
1040
2.5
1070
    79
1070
     3
1070
   176
1070
     0
1070
   177
1070
     0
1070
   178
1070
     0
1070
    44
1040
1.25
1070
    42
1040
0.625
1070
   147
1040
0.625
1070
   140
1040
2.5
1070
    78
1070
     8
1002
}
  0
DIMENSION
  5
146
330
2A8
100
AcDbEntity
  8
0
100
AcDbDimension
280
     0
  2
*D49
 10
81.05572809000084
 20
27.88854381999832
 30
0.0
 11
75.99800959999997
 21
19.37649920000003
 31
0.0
 70
   162
  1
\A1;<>\S0.01^ 0.02;
 71
     5
 42
0.4636476090008079
 73
     0
 74
     0
 75
     0
  3
QCADDimStyle
100
AcDb2LineAngularDimension
 13
90.0
 23
10.00000000000009
 33
0.0
 14
90.0
 24
29.99999999999998
 34
0.0
 15
90.0
 25
10.00000000000009
 35
0.0
 16
87.94673941910654
 26
23.17953610892027
 36
0.0
1001
ACAD
1000
DSTYLE
1002
{
1070
   279
1070
     2
1070
    41
1040
2.5
1070
    79
1070
     3
1070
   176
1070
     0
1070
   177
1070
     0
1070
   178
1070
     0
1070
    44
1040
1.25
1070
    42
1040
0.625
1070
   147
1040
0.625
1070
   140
1040
2.5
1070
    78
1070
     8
1002
}
  0
ARC
  5
147
330
2A8
100
AcDbEntity
  8
0
100
AcDbCircle
 10
90.0
 20
10.0
 30
0.0
 40
80.0
100
AcDbArc
 50
90.0
 51
180.0
  0
ARC
  5
148
330
2A8
100
AcDbEntity
  8
0
100
AcDbCircle
 10
90.0
 20
10.0
 30
0.0
 40
60.0
100
AcDbArc
 50
90.0
 51
170.5376777919744
  0
ARC
  5
149
330
2A8
100
AcDbEntity
  8
0
100
AcDbCircle
 10
90.0
 20
10.0
 30
0.0
 40
40.0
100
AcDbArc
 50
90.0
 51
135.0
  0
ARC
  5
14A
330
2A8
100
AcDbEntity
  8
0
100
AcDbCircle
 10
90.0
 20
10.0
 30
0.0
 40
20.0
100
AcDbArc
 50
90.0
 51
116.565051177078
  0
DIMENSION
  5
14B
330
2A8
100
AcDbEntity
  8
0
100
AcDbDimension
280
     0
  2
*D50
 10
10.0
 20
10.00000000000001
 30
0.0
 11
37.18052193574765
 21
62.8194780642524
 31
0.0
 70
    34
 71
     5
 42
1.570796326794897
 73
     0
 74
     0
 75
     0
  3
QCADDimStyle
100
AcDb2LineAngularDimension
 13
90.0
 23
10.00000000000009
 33
0.0
 14
90.0
 24
90.00000000000001
 34
0.0
 15
90.0
 25
10.00000000000009
 35
0.0
 16
53.61825078679497
 26
73.01503810550017
 36
0.0
1001
ACAD
1000
DSTYLE
1002
{
1070
   279
1070
     2
1070
    41
1040
2.5
1070
    79
1070
     3
1070
   176
1070
     0
1070
   177
1070
     0
1070
   178
1070
     0
1070
    44
1040
1.25
1070
    42
1040
0.625
1070
   147
1040
0.625
1070
   140
1040
2.5
1070
    78
1070
     8
1002
}
  0
DIMENSION
  5
14C
330
2A8
100
AcDbEntity
  8
0
100
AcDbDimension
280
     0
  2
*D51
 10
30.81636457007138
 20
19.86393923832142
 30
0.0
 11
54.3695073784866
 21
52.06038634595373
 31
0.0
 70
    34
  1
⌀<>
 71
     5
 42
1.405647649380271
 73
     0
 74
     0
 75
     0
  3
QCADDimStyle
100
AcDb2LineAngularDimension
 13
90.0
 23
10.00000000000009
 33
0.0
 14
90.0
 24
69.99999999999999
 34
0.0
 15
90.0
 25
10.00000000000009
 35
0.0
 16
65.98023379718036
 26
57.45656536215831
 36
0.0
1001
ACAD
1000
DSTYLE
1002
{
1070
   279
1070
     2
1070
    41
1040
2.5
1070
    79
1070
     3
1070
   176
1070
     0
1070
   177
1070
     0
1070
   178
1070
     0
1070
    44
1040
1.25
1070
    42
1040
0.625
1070
   147
1040
0.625
1070
   140
1040
2.5
1070
    78
1070
     8
1002
}
  0
ENDBLK
  5
2AA
330
2A8
100
AcDbEntity
  8
0
100
AcDbBlockEnd
  0
BLOCK
  5
2AC
330
2AB
100
AcDbEntity
  8
0
100
AcDbBlockBegin
  2
line
 70
     0
 10
0.0
 20
0.0
 30
0.0
  3
line
  1

  0
LINE
  5
14D
330
2AB
100
AcDbEntity
  8
0
100
AcDbLine
 10
10.0
 20
10.0
 30
0.0
 11
90.0
 21
90.0
 31
0.0
  0
ENDBLK
  5
2AD
330
2AB
100
AcDbEntity
  8
0
100
AcDbBlockEnd
  0
BLOCK
  5
2AF
330
2AE
100
AcDbEntity
  8
0
100
AcDbBlockBegin
  2
spline_cp_2deg
 70
     0
 10
0.0
 20
0.0
 30
0.0
  3
spline_cp_2deg
  1

  0
SPLINE
  5
14E
330
2AE
100
AcDbEntity
  8
0
100
AcDbSpline
210
0.0
220
0.0
230
1.0
 70
     8
 71
     2
 72
     7
 73
     4
 74
     0
 42
0.000000001
 43
0.001
 12
1.0
 22
0.0
 32
0.0
 13
1.0
 23
0.0
 33
0.0
 40
0.0
 40
0.0
 40
0.0
 40
1.0
 40
2.0
 40
2.0
 40
2.0
 10
10.0
 20
10.0
 30
0.0
 10
10.0
 20
90.0
 30
0.0
 10
90.0
 20
90.0
 30
0.0
 10
90.0
 20
10.0
 30
0.0
  0
ENDBLK
  5
2B0
330
2AE
100
AcDbEntity
  8
0
100
AcDbBlockEnd
  0
BLOCK
  5
2B2
330
2B1
100
AcDbEntity
  8
0
100
AcDbBlockBegin
  2
block_insert
 70
     0
 10
0.0
 20
0.0
 30
0.0
  3
block_insert
  1

  0
INSERT
  5
14F
330
2B1
100
AcDbEntity
  8
0
100
AcDbBlockReference
  2
block01
 10
0.0
 20
0.0
 30
0.0
  0
INSERT
  5
150
330
2B1
100
AcDbEntity
  8
0
100
AcDbBlockReference
  2
block02
 10
0.0
 20
0.0
 30
0.0
  0
ENDBLK
  5
2B3
330
2B1
100
AcDbEntity
  8
0
100
AcDbBlockEnd
  0
BLOCK
  5
2B5
330
2B4
100
AcDbEntity
  8
0
100
AcDbBlockBegin
  2
dim_diametric_circle
 70
     0
 10
0.0
 20
0.0
 30
0.0
  3
dim_diametric_circle
  1

  0
DIMENSION
  5
151
330
2B4
100
AcDbEntity
  8
0
100
AcDbDimension
280
     0
  2
*D52
 10
45.00000000000001
 20
70.0
 30
0.0
 11
6.220238095238097
 21
71.875
 31
0.0
 70
    35
 71
     5
 42
30.00000000000001
 73
     0
 74
     0
 75
     0
  3
QCADDimStyle
100
AcDbDiametricDimension
 15
15.0
 25
70.0
 35
0.0
 40
0.0
1001
ACAD
1000
DSTYLE
1002
{
1070
   279
1070
     2
1070
    41
1040
2.5
1070
    79
1070
     3
1070
   176
1070
     0
1070
   177
1070
     0
1070
   178
1070
     0
1070
    44
1040
1.25
1070
    42
1040
0.625
1070
   147
1040
0.625
1070
   140
1040
2.5
1070
    78
1070
     8
1002
}
  0
DIMENSION
  5
152
330
2B4
100
AcDbEntity
  8
0
100
AcDbDimension
280
     0
  2
*D53
 10
80.60660171779821
 20
80.60660171779823
 30
0.0
 11
49.2389069471122
 21
55.96509742330268
 31
0.0
 70
    35
  1
⌀<>
 71
     5
 42
30.00000000000001
 73
     0
 74
     0
 75
     0
  3
QCADDimStyle
100
AcDbDiametricDimension
 15
59.39339828220179
 25
59.39339828220179
 35
0.0
 40
0.0
1001
ACAD
1000
DSTYLE
1002
{
1070
   279
1070
     2
1070
    41
1040
2.5
1070
    79
1070
     3
1070
   176
1070
     0
1070
   177
1070
     0
1070
   178
1070
     0
1070
    44
1040
1.25
1070
    42
1040
0.625
1070
   147
1040
0.625
1070
   140
1040
2.5
1070
    78
1070
     8
1002
}
  0
DIMENSION
  5
153
330
2B4
100
AcDbEntity
  8
0
100
AcDbDimension
280
     0
  2
*D54
 10
30.0
 20
15.0
 30
0.0
 11
26.10119047619047
 21
51.875
 31
0.0
 70
    35
  1
text
 71
     5
 42
30.0
 73
     0
 74
     0
 75
     0
  3
QCADDimStyle
100
AcDbDiametricDimension
 15
30.0
 25
45.0
 35
0.0
 40
0.0
1001
ACAD
1000
DSTYLE
1002
{
1070
   279
1070
     2
1070
    41
1040
2.5
1070
    79
1070
     3
1070
   176
1070
     0
1070
   177
1070
     0
1070
   178
1070
     0
1070
    44
1040
1.25
1070
    42
1040
0.625
1070
   147
1040
0.625
1070
   140
1040
2.5
1070
    78
1070
     8
1002
}
  0
DIMENSION
  5
154
330
2B4
100
AcDbEntity
  8
0
100
AcDbDimension
280
     0
  2
*D55
 10
59.39339828220179
 20
40.6066017177982
 30
0.0
 11
96.21335375208105
 21
15.27474148601415
 31
0.0
 70
    35
  1
\A1;<>\S0.01^ 0.02;
 71
     5
 42
30.00000000000001
 73
     0
 74
     0
 75
     0
  3
QCADDimStyle
100
AcDbDiametricDimension
 15
80.60660171779821
 25
19.39339828220175
 35
0.0
 40
0.0
1001
ACAD
1000
DSTYLE
1002
{
1070
   279
1070
     2
1070
    41
1040
2.5
1070
    79
1070
     3
1070
   176
1070
     0
1070
   177
1070
     0
1070
   178
1070
     0
1070
    44
1040
1.25
1070
    42
1040
0.625
1070
   147
1040
0.625
1070
   140
1040
2.5
1070
    78
1070
     8
1002
}
  0
CIRCLE
  5
155
330
2B4
100
AcDbEntity
  8
0
100
AcDbCircle
 10
30.0
 20
70.0
 30
0.0
 40
15.0
  0
CIRCLE
  5
156
330
2B4
100
AcDbEntity
  8
0
100
AcDbCircle
 10
70.0
 20
70.0
 30
0.0
 40
15.0
  0
CIRCLE
  5
157
330
2B4
100
AcDbEntity
  8
0
100
AcDbCircle
 10
30.0
 20
30.0
 30
0.0
 40
15.0
  0
CIRCLE
  5
158
330
2B4
100
AcDbEntity
  8
0
100
AcDbCircle
 10
70.0
 20
30.0
 30
0.0
 40
15.0
  0
ENDBLK
  5
2B6
330
2B4
100
AcDbEntity
  8
0
100
AcDbBlockEnd
  0
BLOCK
  5
2B8
330
2B7
100
AcDbEntity
  8
0
100
AcDbBlockBegin
  2
dim_vertical
 70
     0
 10
0.0
 20
0.0
 30
0.0
  3
dim_vertical
  1

  0
DIMENSION
  5
159
330
2B7
100
AcDbEntity
  8
0
100
AcDbDimension
280
     0
  2
*D56
 10
10.00000000000001
 20
90.0
 30
0.0
 11
8.125000000000007
 21
50.0
 31
0.0
 70
    32
 71
     5
 42
80.0
 73
     0
 74
     0
 75
     0
  3
QCADDimStyle
100
AcDbAlignedDimension
 13
20.0
 23
10.0
 33
0.0
 14
20.0
 24
90.0
 34
0.0
 50
90.0
100
AcDbRotatedDimension
1001
ACAD
1000
DSTYLE
1002
{
1070
   279
1070
     2
1070
    41
1040
2.5
1070
    79
1070
     3
1070
   176
1070
     0
1070
   177
1070
     0
1070
   178
1070
     0
1070
    44
1040
1.25
1070
    42
1040
0.625
1070
   147
1040
0.625
1070
   140
1040
2.5
1070
    78
1070
     8
1002
}
  0
DIMENSION
  5
15A
330
2B7
100
AcDbEntity
  8
0
100
AcDbDimension
280
     0
  2
*D57
 10
30.0
 20
80.0
 30
0.0
 11
28.125
 21
45.0
 31
0.0
 70
    32
  1
⌀<>
 71
     5
 42
70.0
 73
     0
 74
     0
 75
     0
  3
QCADDimStyle
100
AcDbAlignedDimension
 13
40.0
 23
10.0
 33
0.0
 14
40.00000000000001
 24
80.0
 34
0.0
 50
90.0
100
AcDbRotatedDimension
1001
ACAD
1000
DSTYLE
1002
{
1070
   279
1070
     2
1070
    41
1040
2.5
1070
    79
1070
     3
1070
   176
1070
     0
1070
   177
1070
     0
1070
   178
1070
     0
1070
    44
1040
1.25
1070
    42
1040
0.625
1070
   147
1040
0.625
1070
   140
1040
2.5
1070
    78
1070
     8
1002
}
  0
DIMENSION
  5
15B
330
2B7
100
AcDbEntity
  8
0
100
AcDbDimension
280
     0
  2
*D58
 10
50.0
 20
70.00000000000001
 30
0.0
 11
48.125
 21
40.00000000000001
 31
0.0
 70
    32
  1
text
 71
     5
 42
60.00000000000002
 73
     0
 74
     0
 75
     0
  3
QCADDimStyle
100
AcDbAlignedDimension
 13
60.0
 23
9.999999999999995
 33
0.0
 14
60.0
 24
70.00000000000001
 34
0.0
 50
90.0
100
AcDbRotatedDimension
1001
ACAD
1000
DSTYLE
1002
{
1070
   279
1070
     2
1070
    41
1040
2.5
1070
    79
1070
     3
1070
   176
1070
     0
1070
   177
1070
     0
1070
   178
1070
     0
1070
    44
1040
1.25
1070
    42
1040
0.625
1070
   147
1040
0.625
1070
   140
1040
2.5
1070
    78
1070
     8
1002
}
  0
DIMENSION
  5
15C
330
2B7
100
AcDbEntity
  8
0
100
AcDbDimension
280
     0
  2
*D59
 10
70.0
 20
59.99999999999999
 30
0.0
 11
66.45833333333334
 21
34.99999999999996
 31
0.0
 70
    32
  1
\A1;<>\S0.01^ 0.02;
 71
     5
 42
50.00000000000005
 73
     0
 74
     0
 75
     0
  3
QCADDimStyle
100
AcDbAlignedDimension
 13
80.0
 23
9.999999999999941
 33
0.0
 14
80.0
 24
59.99999999999999
 34
0.0
 50
90.0
100
AcDbRotatedDimension
1001
ACAD
1000
DSTYLE
1002
{
1070
   279
1070
     2
1070
    41
1040
2.5
1070
    79
1070
     3
1070
   176
1070
     0
1070
   177
1070
     0
1070
   178
1070
     0
1070
    44
1040
1.25
1070
    42
1040
0.625
1070
   147
1040
0.625
1070
   140
1040
2.5
1070
    78
1070
     8
1002
}
  0
ENDBLK
  5
2B9
330
2B7
100
AcDbEntity
  8
0
100
AcDbBlockEnd
  0
BLOCK
  5
2BB
330
2BA
100
AcDbEntity
  8
0
100
AcDbBlockBegin
  2
block01
 70
     0
 10
0.0
 20
0.0
 30
0.0
  3
block01
  1

  0
LINE
  5
15D
330
2BA
100
AcDbEntity
  8
0
100
AcDbLine
 10
20.0
 20
90.0
 30
0.0
 11
90.0
 21
90.0
 31
0.0
  0
LINE
  5
15E
330
2BA
100
AcDbEntity
  8
0
100
AcDbLine
 10
30.0
 20
60.0
 30
0.0
 11
90.0
 21
60.0
 31
0.0
  0
LINE
  5
15F
330
2BA
100
AcDbEntity
  8
0
100
AcDbLine
 10
90.0
 20
60.0
 30
0.0
 11
90.0
 21
90.0
 31
0.0
  0
LINE
  5
160
330
2BA
100
AcDbEntity
  8
0
100
AcDbLine
 10
30.0
 20
80.0
 30
0.0
 11
30.0
 21
60.0
 31
0.0
  0
ARC
  5
161
330
2BA
100
AcDbEntity
  8
0
100
AcDbCircle
 10
20.0
 20
80.0
 30
0.0
 40
10.0
100
AcDbArc
 50
90.0
 51
0.0
  0
MTEXT
  5
162
330
2BA
100
AcDbEntity
  8
0
100
AcDbMText
 10
40.00000000000001
 20
80.0
 30
0.0
 40
10.0
 41
100.0
 46
0.0
 71
     1
 72
     1
  1
block01
  7
textstyle1
 73
     1
 44
1.0
  0
ENDBLK
  5
2BC
330
2BA
100
AcDbEntity
  8
0
100
AcDbBlockEnd
  0
BLOCK
  5
2BE
330
2BD
100
AcDbEntity
  8
0
100
AcDbBlockBegin
  2
dim_radial_arc
 70
     0
 10
0.0
 20
0.0
 30
0.0
  3
dim_radial_arc
  1

  0
ARC
  5
163
330
2BD
100
AcDbEntity
  8
0
100
AcDbCircle
 10
50.0
 20
50.0
 30
0.0
 40
40.0
100
AcDbArc
 50
90.0
 51
180.0
  0
ARC
  5
164
330
2BD
100
AcDbEntity
  8
0
100
AcDbCircle
 10
90.0
 20
90.0
 30
0.0
 40
40.0
100
AcDbArc
 50
180.0
 51
270.0
  0
ARC
  5
165
330
2BD
100
AcDbEntity
  8
0
100
AcDbCircle
 10
10.0
 20
10.0
 30
0.0
 40
40.00000000000001
100
AcDbArc
 50
0.0
 51
90.0
  0
ARC
  5
166
330
2BD
100
AcDbEntity
  8
0
100
AcDbCircle
 10
50.0
 20
50.0
 30
0.0
 40
39.99999999999999
100
AcDbArc
 50
270.0
 51
0.0
  0
DIMENSION
  5
167
330
2BD
100
AcDbEntity
  8
0
100
AcDbDimension
280
     0
  2
*D60
 10
50.0
 20
50.00000000000001
 30
0.0
 11
14.34090913231966
 21
83.69480515339464
 31
0.0
 70
    36
 71
     5
 42
39.99999999999999
 73
     0
 74
     0
 75
     0
  3
QCADDimStyle
100
AcDbRadialDimension
 15
21.71572875253811
 25
78.2842712474619
 35
0.0
 40
0.0
1001
ACAD
1000
DSTYLE
1002
{
1070
   279
1070
     2
1070
    41
1040
2.5
1070
    79
1070
     3
1070
   176
1070
     0
1070
   177
1070
     0
1070
   178
1070
     0
1070
    44
1040
1.25
1070
    42
1040
0.625
1070
   147
1040
0.625
1070
   140
1040
2.5
1070
    78
1070
     8
1002
}
  0
DIMENSION
  5
168
330
2BD
100
AcDbEntity
  8
0
100
AcDbDimension
280
     0
  2
*D61
 10
90.0
 20
90.00000000000001
 30
0.0
 11
39.96730524736251
 21
76.85418111420019
 31
0.0
 70
    36
  1
⌀<>
 71
     5
 42
40.00000000000001
 73
     0
 74
     0
 75
     0
  3
QCADDimStyle
100
AcDbRadialDimension
 15
52.05266807797945
 25
77.35088935932647
 35
0.0
 40
0.0
1001
ACAD
1000
DSTYLE
1002
{
1070
   279
1070
     2
1070
    41
1040
2.5
1070
    79
1070
     3
1070
   176
1070
     0
1070
   177
1070
     0
1070
   178
1070
     0
1070
    44
1040
1.25
1070
    42
1040
0.625
1070
   147
1040
0.625
1070
   140
1040
2.5
1070
    78
1070
     8
1002
}
  0
DIMENSION
  5
169
330
2BD
100
AcDbEntity
  8
0
100
AcDbDimension
280
     0
  2
*D62
 10
50.0
 20
50.00000000000001
 30
0.0
 11
70.18858460269024
 21
7.255573425026257
 31
0.0
 70
    36
  1
text
 71
     5
 42
39.99999999999996
 73
     0
 74
     0
 75
     0
  3
QCADDimStyle
100
AcDbRadialDimension
 15
63.71770532958375
 25
12.42574604212738
 35
0.0
 40
0.0
1001
ACAD
1000
DSTYLE
1002
{
1070
   279
1070
     2
1070
    41
1040
2.5
1070
    79
1070
     3
1070
   176
1070
     0
1070
   177
1070
     0
1070
   178
1070
     0
1070
    44
1040
1.25
1070
    42
1040
0.625
1070
   147
1040
0.625
1070
   140
1040
2.5
1070
    78
1070
     8
1002
}
  0
DIMENSION
  5
16A
330
2BD
100
AcDbEntity
  8
0
100
AcDbDimension
280
     0
  2
*D63
 10
10.0
 20
10.0
 30
0.0
 11
37.37265543203225
 21
54.16100704697436
 31
0.0
 70
    36
  1
\A1;<>\S0.01^ 0.02;
 71
     5
 42
40.00000000000001
 73
     0
 74
     0
 75
     0
  3
QCADDimStyle
100
AcDbRadialDimension
 15
27.21484715651544
 25
46.10608033805128
 35
0.0
 40
0.0
1001
ACAD
1000
DSTYLE
1002
{
1070
   279
1070
     2
1070
    41
1040
2.5
1070
    79
1070
     3
1070
   176
1070
     0
1070
   177
1070
     0
1070
   178
1070
     0
1070
    44
1040
1.25
1070
    42
1040
0.625
1070
   147
1040
0.625
1070
   140
1040
2.5
1070
    78
1070
     8
1002
}
  0
ENDBLK
  5
2BF
330
2BD
100
AcDbEntity
  8
0
100
AcDbBlockEnd
  0
BLOCK
  5
2C1
330
2C0
100
AcDbEntity
  8
0
100
AcDbBlockBegin
  2
points
 70
     0
 10
0.0
 20
0.0
 30
0.0
  3
points
  1

  0
POINT
  5
16B
330
2C0
100
AcDbEntity
  8
0
100
AcDbPoint
 10
30.0
 20
63.33333333333333
 30
0.0
  0
POINT
  5
16C
330
2C0
100
AcDbEntity
  8
0
100
AcDbPoint
 10
50.0
 20
63.33333333333333
 30
0.0
  0
POINT
  5
16D
330
2C0
100
AcDbEntity
  8
0
100
AcDbPoint
 10
70.0
 20
63.33333333333333
 30
0.0
  0
POINT
  5
16E
330
2C0
100
AcDbEntity
  8
0
100
AcDbPoint
 10
90.0
 20
63.33333333333333
 30
0.0
  0
POINT
  5
16F
330
2C0
100
AcDbEntity
  8
0
100
AcDbPoint
 10
10.0
 20
36.66666666666666
 30
0.0
  0
POINT
  5
170
330
2C0
100
AcDbEntity
  8
0
100
AcDbPoint
 10
30.0
 20
36.66666666666666
 30
0.0
  0
POINT
  5
171
330
2C0
100
AcDbEntity
  8
0
100
AcDbPoint
 10
50.0
 20
36.66666666666666
 30
0.0
  0
POINT
  5
172
330
2C0
100
AcDbEntity
  8
0
100
AcDbPoint
 10
70.0
 20
36.66666666666666
 30
0.0
  0
POINT
  5
173
330
2C0
100
AcDbEntity
  8
0
100
AcDbPoint
 10
90.0
 20
36.66666666666666
 30
0.0
  0
POINT
  5
174
330
2C0
100
AcDbEntity
  8
0
100
AcDbPoint
 10
90.0
 20
10.0
 30
0.0
  0
POINT
  5
175
330
2C0
100
AcDbEntity
  8
0
100
AcDbPoint
 10
70.0
 20
10.0
 30
0.0
  0
POINT
  5
176
330
2C0
100
AcDbEntity
  8
0
100
AcDbPoint
 10
50.0
 20
10.0
 30
0.0
  0
POINT
  5
177
330
2C0
100
AcDbEntity
  8
0
100
AcDbPoint
 10
30.0
 20
10.0
 30
0.0
  0
POINT
  5
178
330
2C0
100
AcDbEntity
  8
0
100
AcDbPoint
 10
10.0
 20
10.0
 30
0.0
  0
POINT
  5
179
330
2C0
100
AcDbEntity
  8
0
100
AcDbPoint
 10
10.0
 20
90.0
 30
0.0
  0
POINT
  5
17A
330
2C0
100
AcDbEntity
  8
0
100
AcDbPoint
 10
30.0
 20
90.0
 30
0.0
  0
POINT
  5
17B
330
2C0
100
AcDbEntity
  8
0
100
AcDbPoint
 10
50.0
 20
90.0
 30
0.0
  0
POINT
  5
17C
330
2C0
100
AcDbEntity
  8
0
100
AcDbPoint
 10
70.0
 20
90.0
 30
0.0
  0
POINT
  5
17D
330
2C0
100
AcDbEntity
  8
0
100
AcDbPoint
 10
90.0
 20
90.0
 30
0.0
  0
POINT
  5
17E
330
2C0
100
AcDbEntity
  8
0
100
AcDbPoint
 10
10.0
 20
63.33333333333333
 30
0.0
  0
ENDBLK
  5
2C2
330
2C0
100
AcDbEntity
  8
0
100
AcDbBlockEnd
  0
BLOCK
  5
2C4
330
2C3
100
AcDbEntity
  8
0
100
AcDbBlockBegin
  2
spline_cp_2deg_closed
 70
     0
 10
0.0
 20
0.0
 30
0.0
  3
spline_cp_2deg_closed
  1

  0
SPLINE
  5
17F
330
2C3
100
AcDbEntity
  8
0
100
AcDbSpline
210
0.0
220
0.0
230
1.0
 70
     8
 71
     2
 72
    10
 73
     7
 74
     0
 42
0.000000001
 43
0.001
 12
1.0
 22
0.0
 32
0.0
 13
1.0
 23
0.0
 33
0.0
 40
-1.0
 40
-1.0
 40
0.0
 40
1.0
 40
2.0
 40
3.0
 40
4.0
 40
5.0
 40
6.0
 40
6.0
 10
10.0
 20
10.0
 30
0.0
 10
10.0
 20
90.0
 30
0.0
 10
90.0
 20
90.0
 30
0.0
 10
50.0
 20
60.0
 30
0.0
 10
90.0
 20
10.0
 30
0.0
 10
10.0
 20
10.0
 30
0.0
 10
10.0
 20
90.0
 30
0.0
  0
ENDBLK
  5
2C5
330
2C3
100
AcDbEntity
  8
0
100
AcDbBlockEnd
  0
BLOCK
  5
2C7
330
2C6
100
AcDbEntity
  8
0
100
AcDbBlockBegin
  2
ellipse
 70
     0
 10
0.0
 20
0.0
 30
0.0
  3
ellipse
  1

  0
ELLIPSE
  5
180
330
2C6
100
AcDbEntity
  8
0
100
AcDbEllipse
 10
50.0
 20
50.0
 30
0.0
 11
40.0
 21
30.0
 31
0.0
210
0.0
220
0.0
230
1.0
 40
0.28
 41
0.0
 42
6.283185307179586
  0
ENDBLK
  5
2C8
330
2C6
100
AcDbEntity
  8
0
100
AcDbBlockEnd
  0
BLOCK
  5
2CA
330
2C9
100
AcDbEntity
  8
0
100
AcDbBlockBegin
  2
block02
 70
     0
 10
0.0
 20
0.0
 30
0.0
  3
block02
  1

  0
LINE
  5
181
330
2C9
100
AcDbEntity
  8
0
100
AcDbLine
 10
30.0
 20
30.0
 30
0.0
 11
90.0
 21
30.0
 31
0.0
  0
LINE
  5
182
330
2C9
100
AcDbEntity
  8
0
100
AcDbLine
 10
90.0
 20
30.0
 30
0.0
 11
90.0
 21
10.0
 31
0.0
  0
LINE
  5
183
330
2C9
100
AcDbEntity
  8
0
100
AcDbLine
 10
90.0
 20
10.0
 30
0.0
 11
30.0
 21
10.0
 31
0.0
  0
MTEXT
  5
184
330
2C9
100
AcDbEntity
  8
0
100
AcDbMText
 10
35.71712000000002
 20
24.90368000000002
 30
0.0
 40
10.0
 41
100.0
 46
0.0
 71
     1
 72
     1
  1
block02
  7
textstyle2
 73
     1
 44
1.0
  0
ELLIPSE
  5
185
330
2C9
100
AcDbEntity
  8
0
100
AcDbEllipse
 10
30.0
 20
20.0
 30
0.0
 11
20.0
 21
0.0
 31
0.0
210
0.0
220
0.0
230
1.0
 40
0.5
 41
1.570796326794897
 42
4.71238898038469
  0
ENDBLK
  5
2CB
330
2C9
100
AcDbEntity
  8
0
100
AcDbBlockEnd
  0
BLOCK
  5
2CD
330
2CC
100
AcDbEntity
  8
0
100
AcDbBlockBegin
  2
spline_cp_3deg
 70
     0
 10
0.0
 20
0.0
 30
0.0
  3
spline_cp_3deg
  1

  0
SPLINE
  5
186
330
2CC
100
AcDbEntity
  8
0
100
AcDbSpline
210
0.0
220
0.0
230
1.0
 70
     8
 71
     3
 72
     8
 73
     4
 74
     0
 42
0.000000001
 43
0.001
 12
1.0
 22
0.0
 32
0.0
 13
1.0
 23
0.0
 33
0.0
 40
0.0
 40
0.0
 40
0.0
 40
0.0
 40
1.0
 40
1.0
 40
1.0
 40
1.0
 10
10.0
 20
10.0
 30
0.0
 10
10.0
 20
90.0
 30
0.0
 10
90.0
 20
90.0
 30
0.0
 10
90.0
 20
10.0
 30
0.0
  0
ENDBLK
  5
2CE
330
2CC
100
AcDbEntity
  8
0
100
AcDbBlockEnd
  0
BLOCK
  5
2D0
330
2CF
100
AcDbEntity
  8
0
100
AcDbBlockBegin
  2
dim_angular_line
 70
     0
 10
0.0
 20
0.0
 30
0.0
  3
dim_angular_line
  1

  0
DIMENSION
  5
187
330
2CF
100
AcDbEntity
  8
0
100
AcDbDimension
280
     0
  2
*D64
 10
90.0
 20
39.99999999999999
 30
0.0
 11
32.22647062363794
 21
31.75558197044892
 31
0.0
 70
    34
  1
text
 71
     5
 42
1.307801595113977
 73
     0
 74
     0
 75
     0
  3
QCADDimStyle
100
AcDb2LineAngularDimension
 13
10.00000000000001
 23
80.0
 33
0.0
 14
20.0
 24
10.0
 34
0.0
 15
20.0
 25
10.0
 35
0.0
 16
35.3913800005498
 26
27.19967235674985
 36
0.0
1001
ACAD
1000
DSTYLE
1002
{
1070
   279
1070
     2
1070
    41
1040
2.5
1070
    79
1070
     3
1070
   176
1070
     0
1070
   177
1070
     0
1070
   178
1070
     0
1070
    44
1040
1.25
1070
    42
1040
0.625
1070
   147
1040
0.625
1070
   140
1040
2.5
1070
    78
1070
     8
1002
}
  0
DIMENSION
  5
188
330
2CF
100
AcDbEntity
  8
0
100
AcDbDimension
280
     0
  2
*D65
 10
89.99999999999999
 20
71.31330052888579
 30
0.0
 11
72.53651447013155
 21
51.51535526334432
 31
0.0
 70
    34
  1
\A1;<>\S0.01^ 0.02;
 71
     5
 42
1.97568811307998
 73
     0
 74
     0
 75
     0
  3
QCADDimStyle
100
AcDb2LineAngularDimension
 13
42.36353347545233
 23
19.58437148947957
 33
0.0
 14
90.57446564376129
 24
40.24619956161199
 34
0.0
 15
89.99999999999999
 25
39.37500000000001
 35
0.0
 16
79.36581327116616
 26
53.74273154912756
 36
0.0
1001
ACAD
1000
DSTYLE
1002
{
1070
   279
1070
     2
1070
    41
1040
2.5
1070
    79
1070
     3
1070
   176
1070
     0
1070
   177
1070
     0
1070
   178
1070
     0
1070
    44
1040
1.25
1070
    42
1040
0.625
1070
   147
1040
0.625
1070
   140
1040
2.5
1070
    78
1070
     8
1002
}
  0
LINE
  5
189
330
2CF
100
AcDbEntity
  8
0
100
AcDbLine
 10
90.0
 20
90.0
 30
0.0
 11
10.0
 21
80.0
 31
0.0
  0
LINE
  5
18A
330
2CF
100
AcDbEntity
  8
0
100
AcDbLine
 10
10.0
 20
80.0
 30
0.0
 11
20.0
 21
10.0
 31
0.0
  0
LINE
  5
18B
330
2CF
100
AcDbEntity
  8
0
100
AcDbLine
 10
20.0
 20
10.0
 30
0.0
 11
90.0
 21
40.0
 31
0.0
  0
LINE
  5
18C
330
2CF
100
AcDbEntity
  8
0
100
AcDbLine
 10
90.0
 20
40.0
 30
0.0
 11
90.0
 21
90.0
 31
0.0
  0
DIMENSION
  5
18D
330
2CF
100
AcDbEntity
  8
0
100
AcDbDimension
280
     0
  2
*D66
 10
20.0
 20
10.0
 30
0.0
 11
24.42483460057982
 21
68.98237132497556
 31
0.0
 70
    34
 71
     5
 42
1.553254266737494
 73
     0
 74
     0
 75
     0
  3
QCADDimStyle
100
AcDb2LineAngularDimension
 13
90.0
 23
90.00000000000001
 33
0.0
 14
10.00000000000001
 24
80.0
 34
0.0
 15
10.00000000000001
 25
80.0
 35
0.0
 16
22.30928228746414
 26
64.12815121973895
 36
0.0
1001
ACAD
1000
DSTYLE
1002
{
1070
   279
1070
     2
1070
    41
1040
2.5
1070
    79
1070
     3
1070
   176
1070
     0
1070
   177
1070
     0
1070
   178
1070
     0
1070
    44
1040
1.25
1070
    42
1040
0.625
1070
   147
1040
0.625
1070
   140
1040
2.5
1070
    78
1070
     8
1002
}
  0
DIMENSION
  5
18E
330
2CF
100
AcDbEntity
  8
0
100
AcDbDimension
280
     0
  2
*D67
 10
90.0
 20
39.99999999999999
 30
0.0
 11
79.74062041142878
 21
78.37835722884175
 31
0.0
 70
    34
  1
⌀<>
 71
     5
 42
1.446441332248136
 73
     0
 74
     0
 75
     0
  3
QCADDimStyle
100
AcDb2LineAngularDimension
 13
31.17091023296076
 23
82.64636377912008
 33
0.0
 14
90.62017367294604
 24
90.07752170911819
 34
0.0
 15
90.0
 25
90.00000000000001
 35
0.0
 16
75.67319116239251
 26
80.06113502573822
 36
0.0
1001
ACAD
1000
DSTYLE
1002
{
1070
   279
1070
     2
1070
    41
1040
2.5
1070
    79
1070
     3
1070
   176
1070
     0
1070
   177
1070
     0
1070
   178
1070
     0
1070
    44
1040
1.25
1070
    42
1040
0.625
1070
   147
1040
0.625
1070
   140
1040
2.5
1070
    78
1070
     8
1002
}
  0
ENDBLK
  5
2D1
330
2CF
100
AcDbEntity
  8
0
100
AcDbBlockEnd
  0
BLOCK
  5
2D3
330
2D2
100
AcDbEntity
  8
0
100
AcDbBlockBegin
  2
dim_horizontal
 70
     0
 10
0.0
 20
0.0
 30
0.0
  3
dim_horizontal
  1

  0
DIMENSION
  5
18F
330
2D2
100
AcDbEntity
  8
0
100
AcDbDimension
280
     0
  2
*D68
 10
90.0
 20
90.00000000000001
 30
0.0
 11
50.00000000000001
 21
91.87500000000001
 31
0.0
 70
    32
 71
     5
 42
79.99999999999999
 73
     0
 74
     0
 75
     0
  3
QCADDimStyle
100
AcDbAlignedDimension
 13
10.00000000000001
 23
80.0
 33
0.0
 14
90.0
 24
79.99999999999999
 34
0.0
100
AcDbRotatedDimension
1001
ACAD
1000
DSTYLE
1002
{
1070
   279
1070
     2
1070
    41
1040
2.5
1070
    79
1070
     3
1070
   176
1070
     0
1070
   177
1070
     0
1070
   178
1070
     0
1070
    44
1040
1.25
1070
    42
1040
0.625
1070
   147
1040
0.625
1070
   140
1040
2.5
1070
    78
1070
     8
1002
}
  0
DIMENSION
  5
190
330
2D2
100
AcDbEntity
  8
0
100
AcDbDimension
280
     0
  2
*D69
 10
80.0
 20
70.0
 30
0.0
 11
45.0
 21
71.875
 31
0.0
 70
    32
  1
⌀<>
 71
     5
 42
70.0
 73
     0
 74
     0
 75
     0
  3
QCADDimStyle
100
AcDbAlignedDimension
 13
9.999999999999995
 23
60.0
 33
0.0
 14
80.0
 24
59.99999999999999
 34
0.0
100
AcDbRotatedDimension
1001
ACAD
1000
DSTYLE
1002
{
1070
   279
1070
     2
1070
    41
1040
2.5
1070
    79
1070
     3
1070
   176
1070
     0
1070
   177
1070
     0
1070
   178
1070
     0
1070
    44
1040
1.25
1070
    42
1040
0.625
1070
   147
1040
0.625
1070
   140
1040
2.5
1070
    78
1070
     8
1002
}
  0
DIMENSION
  5
191
330
2D2
100
AcDbEntity
  8
0
100
AcDbDimension
280
     0
  2
*D70
 10
70.0
 20
50.00000000000001
 30
0.0
 11
40.0
 21
51.87500000000001
 31
0.0
 70
    32
  1
text
 71
     5
 42
60.0
 73
     0
 74
     0
 75
     0
  3
QCADDimStyle
100
AcDbAlignedDimension
 13
9.999999999999996
 23
40.0
 33
0.0
 14
70.0
 24
39.99999999999998
 34
0.0
100
AcDbRotatedDimension
1001
ACAD
1000
DSTYLE
1002
{
1070
   279
1070
     2
1070
    41
1040
2.5
1070
    79
1070
     3
1070
   176
1070
     0
1070
   177
1070
     0
1070
   178
1070
     0
1070
    44
1040
1.25
1070
    42
1040
0.625
1070
   147
1040
0.625
1070
   140
1040
2.5
1070
    78
1070
     8
1002
}
  0
DIMENSION
  5
192
330
2D2
100
AcDbEntity
  8
0
100
AcDbDimension
280
     0
  2
*D71
 10
60.0
 20
29.99999999999999
 30
0.0
 11
35.0
 21
33.54166666666666
 31
0.0
 70
    32
  1
\A1;<>\S0.01^ 0.02;
 71
     5
 42
50.0
 73
     0
 74
     0
 75
     0
  3
QCADDimStyle
100
AcDbAlignedDimension
 13
10.0
 23
20.0
 33
0.0
 14
60.0
 24
20.00000000000001
 34
0.0
100
AcDbRotatedDimension
1001
ACAD
1000
DSTYLE
1002
{
1070
   279
1070
     2
1070
    41
1040
2.5
1070
    79
1070
     3
1070
   176
1070
     0
1070
   177
1070
     0
1070
   178
1070
     0
1070
    44
1040
1.25
1070
    42
1040
0.625
1070
   147
1040
0.625
1070
   140
1040
2.5
1070
    78
1070
     8
1002
}
  0
ENDBLK
  5
2D4
330
2D2
100
AcDbEntity
  8
0
100
AcDbBlockEnd
  0
BLOCK
  5
2D6
330
2D5
100
AcDbEntity
  8
0
100
AcDbBlockBegin
  2
dim_radial_circle
 70
     0
 10
0.0
 20
0.0
 30
0.0
  3
dim_radial_circle
  1

  0
CIRCLE
  5
193
330
2D5
100
AcDbEntity
  8
0
100
AcDbCircle
 10
30.0
 20
70.0
 30
0.0
 40
15.0
  0
CIRCLE
  5
194
330
2D5
100
AcDbEntity
  8
0
100
AcDbCircle
 10
70.0
 20
70.0
 30
0.0
 40
15.0
  0
CIRCLE
  5
195
330
2D5
100
AcDbEntity
  8
0
100
AcDbCircle
 10
30.0
 20
30.0
 30
0.0
 40
15.0
  0
CIRCLE
  5
196
330
2D5
100
AcDbEntity
  8
0
100
AcDbCircle
 10
70.0
 20
30.0
 30
0.0
 40
15.0
  0
DIMENSION
  5
197
330
2D5
100
AcDbEntity
  8
0
100
AcDbDimension
280
     0
  2
*D72
 10
30.0
 20
70.0
 30
0.0
 11
53.83928571428572
 21
71.875
 31
0.0
 70
    36
 71
     5
 42
15.00000000000001
 73
     0
 74
     0
 75
     0
  3
QCADDimStyle
100
AcDbRadialDimension
 15
45.00000000000001
 25
70.0
 35
0.0
 40
0.0
1001
ACAD
1000
DSTYLE
1002
{
1070
   279
1070
     2
1070
    41
1040
2.5
1070
    79
1070
     3
1070
   176
1070
     0
1070
   177
1070
     0
1070
   178
1070
     0
1070
    44
1040
1.25
1070
    42
1040
0.625
1070
   147
1040
0.625
1070
   140
1040
2.5
1070
    78
1070
     8
1002
}
  0
DIMENSION
  5
198
330
2D5
100
AcDbEntity
  8
0
100
AcDbDimension
280
     0
  2
*D73
 10
70.0
 20
70.00000000000001
 30
0.0
 11
92.00693748041547
 21
82.35120513636004
 31
0.0
 70
    36
  1
⌀<>
 71
     5
 42
15.0
 73
     0
 74
     0
 75
     0
  3
QCADDimStyle
100
AcDbRadialDimension
 15
82.77752453888304
 25
77.85715385227003
 35
0.0
 40
0.0
1001
ACAD
1000
DSTYLE
1002
{
1070
   279
1070
     2
1070
    41
1040
2.5
1070
    79
1070
     3
1070
   176
1070
     0
1070
   177
1070
     0
1070
   178
1070
     0
1070
    44
1040
1.25
1070
    42
1040
0.625
1070
   147
1040
0.625
1070
   140
1040
2.5
1070
    78
1070
     8
1002
}
  0
DIMENSION
  5
199
330
2D5
100
AcDbEntity
  8
0
100
AcDbDimension
280
     0
  2
*D74
 10
30.0
 20
30.0
 30
0.0
 11
7.106201552586688
 21
19.81513284516909
 31
0.0
 70
    36
  1
text
 71
     5
 42
15.0
 73
     0
 74
     0
 75
     0
  3
QCADDimStyle
100
AcDbRadialDimension
 15
17.33667405093081
 25
21.96008856344606
 35
0.0
 40
0.0
1001
ACAD
1000
DSTYLE
1002
{
1070
   279
1070
     2
1070
    41
1040
2.5
1070
    79
1070
     3
1070
   176
1070
     0
1070
   177
1070
     0
1070
   178
1070
     0
1070
    44
1040
1.25
1070
    42
1040
0.625
1070
   147
1040
0.625
1070
   140
1040
2.5
1070
    78
1070
     8
1002
}
  0
DIMENSION
  5
19A
330
2D5
100
AcDbEntity
  8
0
100
AcDbDimension
280
     0
  2
*D75
 10
70.0
 20
30.00000000000002
 30
0.0
 11
61.99404761904762
 21
53.54166666666667
 31
0.0
 70
    36
  1
\A1;<>\S0.01^ 0.02;
 71
     5
 42
14.99999999999999
 73
     0
 74
     0
 75
     0
  3
QCADDimStyle
100
AcDbRadialDimension
 15
70.0
 25
45.00000000000001
 35
0.0
 40
0.0
1001
ACAD
1000
DSTYLE
1002
{
1070
   279
1070
     2
1070
    41
1040
2.5
1070
    79
1070
     3
1070
   176
1070
     0
1070
   177
1070
     0
1070
   178
1070
     0
1070
    44
1040
1.25
1070
    42
1040
0.625
1070
   147
1040
0.625
1070
   140
1040
2.5
1070
    78
1070
     8
1002
}
  0
ENDBLK
  5
2D7
330
2D5
100
AcDbEntity
  8
0
100
AcDbBlockEnd
  0
BLOCK
  5
2D9
330
2D8
100
AcDbEntity
  8
0
100
AcDbBlockBegin
  2
ellispe_arc
 70
     0
 10
0.0
 20
0.0
 30
0.0
  3
ellispe_arc
  1

  0
ELLIPSE
  5
19B
330
2D8
100
AcDbEntity
  8
0
100
AcDbEllipse
 10
50.0
 20
50.0
 30
0.0
 11
-40.00000000000001
 21
-40.00000000000001
 31
0.0
210
0.0
220
0.0
230
1.0
 40
0.25
 41
1.815774989921761
 42
7.038393146846551
  0
ENDBLK
  5
2DA
330
2D8
100
AcDbEntity
  8
0
100
AcDbBlockEnd
  0
BLOCK
  5
2DC
330
2DB
100
AcDbEntity
  8
0
100
AcDbBlockBegin
  2
spline_cp_3deg_closed
 70
     0
 10
0.0
 20
0.0
 30
0.0
  3
spline_cp_3deg_closed
  1

  0
SPLINE
  5
123
330
2DB
100
AcDbEntity
  8
0
100
AcDbSpline
210
0.0
220
0.0
230
1.0
 70
     8
 71
     3
 72
    14
 73
    10
 74
     0
 42
0.000000001
 43
0.001
 12
1.0
 22
0.0
 32
0.0
 13
1.0
 23
0.0
 33
0.0
 40
-2.0
 40
-2.0
 40
-1.0
 40
0.0
 40
1.0
 40
2.0
 40
3.0
 40
4.0
 40
5.0
 40
6.0
 40
7.0
 40
8.0
 40
9.0
 40
9.0
 10
10.0
 20
90.0
 30
0.0
 10
10.0
 20
10.0
 30
0.0
 10
90.0
 20
10.0
 30
0.0
 10
90.0
 20
50.0
 30
0.0
 10
60.0
 20
40.0
 30
0.0
 10
50.0
 20
50.0
 30
0.0
 10
40.0
 20
90.0
 30
0.0
 10
10.0
 20
90.0
 30
0.0
 10
10.0
 20
10.0
 30
0.0
 10
90.0
 20
10.0
 30
0.0
  0
ENDBLK
  5
2DD
330
2DB
100
AcDbEntity
  8
0
100
AcDbBlockEnd
  0
BLOCK
  5
2DF
330
2DE
100
AcDbEntity
  8
0
100
AcDbBlockBegin
  2
circle
 70
     0
 10
0.0
 20
0.0
 30
0.0
  3
circle
  1

  0
CIRCLE
  5
124
330
2DE
100
AcDbEntity
  8
0
100
AcDbCircle
 10
50.0
 20
50.0
 30
0.0
 40
40.0
  0
ENDBLK
  5
2E0
330
2DE
100
AcDbEntity
  8
0
100
AcDbBlockEnd
  0
BLOCK
  5
2E2
330
2E1
100
AcDbEntity
  8
0
100
AcDbBlockBegin
  2
hatch_pattern
 70
     0
 10
0.0
 20
0.0
 30
0.0
  3
hatch_pattern
  1

  0
LWPOLYLINE
  5
125
330
2E1
100
AcDbEntity
  8
0
100
AcDbPolyline
 90
       18
 70
     1
 43
0.0
 10
20.0
 20
90.0
 10
10.0
 20
80.0
 10
10.0
 20
30.0
 42
0.9999999999999999
 10
50.0
 20
30.0
 10
50.0
 20
50.0
 10
60.0
 20
50.0
 10
60.0
 20
20.0
 10
70.0
 20
10.0
 10
90.0
 20
10.0
 10
90.0
 20
70.0
 10
80.0
 20
70.0
 10
80.0
 20
80.0
 10
90.0
 20
80.0
 10
90.0
 20
90.0
 10
50.0
 20
90.0
 10
50.0
 20
80.0
 10
40.0
 20
80.0
 10
40.0
 20
90.0
  0
HATCH
  5
126
330
2E1
100
AcDbEntity
  8
0
100
AcDbHatch
 10
0.0
 20
0.0
 30
0.0
210
0.0
220
0.0
230
1.0
  2
STARS
 70
     0
 71
     0
 91
        1
 92
        0
 93
       18
 72
     1
 10
20.0
 20
90.0
 11
10.0
 21
80.0
 72
     1
 10
10.0
 20
80.0
 11
10.0
 21
30.0
 72
     2
 10
30.0
 20
30.0
 40
20.0
 50
180.0
 51
360.0
 73
     1
 72
     1
 10
50.0
 20
30.0
 11
50.0
 21
50.0
 72
     1
 10
50.0
 20
50.0
 11
60.0
 21
50.0
 72
     1
 10
60.0
 20
50.0
 11
60.0
 21
20.0
 72
     1
 10
60.0
 20
20.0
 11
70.0
 21
10.0
 72
     1
 10
70.0
 20
10.0
 11
90.0
 21
10.0
 72
     1
 10
90.0
 20
10.0
 11
90.0
 21
70.0
 72
     1
 10
90.0
 20
70.0
 11
80.0
 21
70.0
 72
     1
 10
80.0
 20
70.0
 11
80.0
 21
80.0
 72
     1
 10
80.0
 20
80.0
 11
90.0
 21
80.0
 72
     1
 10
90.0
 20
80.0
 11
90.0
 21
90.0
 72
     1
 10
90.0
 20
90.0
 11
50.0
 21
90.0
 72
     1
 10
50.0
 20
90.0
 11
50.0
 21
80.0
 72
     1
 10
50.0
 20
80.0
 11
40.0
 21
80.0
 72
     1
 10
40.0
 20
80.0
 11
40.0
 21
90.0
 72
     1
 10
40.0
 20
90.0
 11
20.0
 21
90.0
 97
        0
 75
     0
 76
     1
 52
0.0
 41
4.0
 77
     0
 78
     3
 53
0.0
 43
0.0
 44
0.0
 45
0.0
 46
21.99704
 79
     2
 49
12.7
 49
-12.7
 53
60.0
 43
0.0
 44
0.0
 45
-19.04999544806245
 46
10.99852
 79
     2
 49
12.7
 49
-12.7
 53
120.0
 43
6.35
 44
10.99852
 45
-19.04999544806245
 46
-10.99851999999999
 79
     2
 49
12.7
 49
-12.7
 98
        0
  0
ENDBLK
  5
2E3
330
2E1
100
AcDbEntity
  8
0
100
AcDbBlockEnd
  0
BLOCK
  5
2E5
330
2E4
100
AcDbEntity
  8
0
100
AcDbBlockBegin
  2
dim_leader
 70
     0
 10
0.0
 20
0.0
 30
0.0
  3
dim_leader
  1

  0
LEADER
  5
127
330
2E4
100
AcDbEntity
  8
0
100
AcDbLeader
  3
QCADDimStyle
 71
     0
 76
     3
 10
10.0
 20
70.0
 30
0.0
 10
40.0
 20
90.0
 30
0.0
 10
90.0
 20
90.0
 30
0.0
  0
LEADER
  5
128
330
2E4
100
AcDbEntity
  8
0
100
AcDbLeader
  3
QCADDimStyle
 71
     0
 76
     3
 10
10.0
 20
50.0
 30
0.0
 10
40.0
 20
70.0
 30
0.0
 10
70.0
 20
70.0
 30
0.0
  0
LEADER
  5
129
330
2E4
100
AcDbEntity
  8
0
100
AcDbLeader
  3
QCADDimStyle
 71
     0
 76
     4
 10
90.0
 20
10.0
 30
0.0
 10
80.0
 20
30.0
 30
0.0
 10
50.0
 20
40.0
 30
0.0
 10
20.0
 20
40.0
 30
0.0
  0
ENDBLK
  5
2E6
330
2E4
100
AcDbEntity
  8
0
100
AcDbBlockEnd
  0
BLOCK
  5
2E8
330
2E7
100
AcDbEntity
  8
0
100
AcDbBlockBegin
  2
spline_fp
 70
     0
 10
0.0
 20
0.0
 30
0.0
  3
spline_fp
  1

  0
SPLINE
  5
12A
330
2E7
100
AcDbEntity
  8
0
100
AcDbSpline
210
0.0
220
0.0
230
1.0
 70
     8
 71
     3
 72
    10
 73
     6
 74
     4
 42
0.0000000001
 43
0.0000000001
 44
0.0
 40
0.0
 40
0.0
 40
0.0
 40
0.0
 40
70.0
 40
130.0
 40
200.0
 40
200.0
 40
200.0
 40
200.0
 10
20.0
 20
10.0
 30
0.0
 10
11.83333333333333
 20
38.4375
 30
0.0
 10
-3.333333333333336
 20
91.24999999999999
 30
0.0
 10
103.3333333333333
 20
91.25000000000001
 30
0.0
 10
88.16666666666666
 20
38.4375
 30
0.0
 10
80.0
 20
10.0
 30
0.0
 11
20.0
 21
10.0
 31
0.0
 11
20.0
 21
80.0
 31
0.0
 11
80.0
 21
80.0
 31
0.0
 11
80.0
 21
10.0
 31
0.0
  0
ENDBLK
  5
2E9
330
2E7
100
AcDbEntity
  8
0
100
AcDbBlockEnd
  0
BLOCK
  5
2EB
330
2EA
100
AcDbEntity
  8
0
100
AcDbBlockBegin
  2
dim_diametric_arc
 70
     0
 10
0.0
 20
0.0
 30
0.0
  3
dim_diametric_arc
  1

  0
ARC
  5
12B
330
2EA
100
AcDbEntity
  8
0
100
AcDbCircle
 10
50.0
 20
50.0
 30
0.0
 40
40.0
100
AcDbArc
 50
0.0
 51
345.9637565320735
  0
ARC
  5
12C
330
2EA
100
AcDbEntity
  8
0
100
AcDbCircle
 10
50.0
 20
50.0
 30
0.0
 40
30.0
100
AcDbArc
 50
0.0
 51
270.0
  0
ARC
  5
12D
330
2EA
100
AcDbEntity
  8
0
100
AcDbCircle
 10
50.0
 20
50.0
 30
0.0
 40
20.0
100
AcDbArc
 50
0.0
 51
180.0
  0
ARC
  5
12E
330
2EA
100
AcDbEntity
  8
0
100
AcDbCircle
 10
50.0
 20
50.0
 30
0.0
 40
10.0
100
AcDbArc
 50
0.0
 51
90.0
  0
DIMENSION
  5
12F
330
2EA
100
AcDbEntity
  8
0
100
AcDbDimension
280
     0
  2
*D32
 10
88.80570000581326
 20
40.29857499854664
 30
0.0
 11
80.0
 21
40.00000000000001
 31
0.0
 70
   163
 71
     5
 42
80.0
 73
     0
 74
     0
 75
     0
  3
QCADDimStyle
100
AcDbDiametricDimension
 15
11.19429999418673
 25
59.70142500145337
 35
0.0
 40
0.0
1001
ACAD
1000
DSTYLE
1002
{
1070
   279
1070
     2
1070
    41
1040
2.5
1070
    79
1070
     3
1070
   176
1070
     0
1070
   177
1070
     0
1070
   178
1070
     0
1070
    44
1040
1.25
1070
    42
1040
0.625
1070
   147
1040
0.625
1070
   140
1040
2.5
1070
    78
1070
     8
1002
}
  0
DIMENSION
  5
130
330
2EA
100
AcDbEntity
  8
0
100
AcDbDimension
280
     0
  2
*D33
 10
36.2408016867936
 20
23.34133420859442
 30
0.0
 11
37.16581277192978
 21
32.05172968421052
 31
0.0
 70
   163
  1
⌀<>
 71
     5
 42
59.99999999999999
 73
     0
 74
     0
 75
     0
  3
QCADDimStyle
100
AcDbDiametricDimension
 15
63.75919831320641
 25
76.65866579140557
 35
0.0
 40
0.0
1001
ACAD
1000
DSTYLE
1002
{
1070
   279
1070
     2
1070
    41
1040
2.5
1070
    79
1070
     3
1070
   176
1070
     0
1070
   177
1070
     0
1070
   178
1070
     0
1070
    44
1040
1.25
1070
    42
1040
0.625
1070
   147
1040
0.625
1070
   140
1040
2.5
1070
    78
1070
     8
1002
}
  0
DIMENSION
  5
131
330
2EA
100
AcDbEntity
  8
0
100
AcDbDimension
280
     0
  2
*D34
 10
33.75991531145317
 20
61.67303085358841
 30
0.0
 11
40.0
 21
60.0
 31
0.0
 70
   163
  1
text
 71
     5
 42
39.99999999999999
 73
     0
 74
     0
 75
     0
  3
QCADDimStyle
100
AcDbDiametricDimension
 15
66.24008468854683
 25
38.32696914641162
 35
0.0
 40
0.0
1001
ACAD
1000
DSTYLE
1002
{
1070
   279
1070
     2
1070
    41
1040
2.5
1070
    79
1070
     3
1070
   176
1070
     0
1070
   177
1070
     0
1070
   178
1070
     0
1070
    44
1040
1.25
1070
    42
1040
0.625
1070
   147
1040
0.625
1070
   140
1040
2.5
1070
    78
1070
     8
1002
}
  0
DIMENSION
  5
132
330
2EA
100
AcDbEntity
  8
0
100
AcDbDimension
280
     0
  2
*D35
 10
59.39669247258743
 20
53.42084354737525
 30
0.0
 11
36.00370750877188
 21
48.03067705263156
 31
0.0
 70
   163
  1
\A1;<>\S0.01^ 0.02;
 71
     5
 42
20.00000000000001
 73
     0
 74
     0
 75
     0
  3
QCADDimStyle
100
AcDbDiametricDimension
 15
40.60330752741257
 25
46.57915645262477
 35
0.0
 40
0.0
1001
ACAD
1000
DSTYLE
1002
{
1070
   279
1070
     2
1070
    41
1040
2.5
1070
    79
1070
     3
1070
   176
1070
     0
1070
   177
1070
     0
1070
   178
1070
     0
1070
    44
1040
1.25
1070
    42
1040
0.625
1070
   147
1040
0.625
1070
   140
1040
2.5
1070
    78
1070
     8
1002
}
  0
ENDBLK
  5
2EC
330
2EA
100
AcDbEntity
  8
0
100
AcDbBlockEnd
  0
BLOCK
  5
2EE
330
2ED
100
AcDbEntity
  8
0
100
AcDbBlockBegin
  2
dim_aligned
 70
     0
 10
0.0
 20
0.0
 30
0.0
  3
dim_aligned
  1

  0
DIMENSION
  5
133
330
2ED
100
AcDbEntity
  8
0
100
AcDbDimension
280
     0
  2
*D36
 10
92.42535625036334
 20
69.70142500145332
 30
0.0
 11
52.88011054730647
 21
81.52044218922582
 31
0.0
 70
    33
 71
     5
 42
82.4621125123532
 73
     0
 74
     0
 75
     0
  3
QCADDimStyle
100
AcDbAlignedDimension
 13
10.00000000000001
 23
80.0
 33
0.0
 14
90.0
 24
59.99999999999999
 34
0.0
1001
ACAD
1000
DSTYLE
1002
{
1070
   279
1070
     2
1070
    41
1040
2.5
1070
    79
1070
     3
1070
   176
1070
     0
1070
   177
1070
     0
1070
   178
1070
     0
1070
    44
1040
1.25
1070
    42
1040
0.625
1070
   147
1040
0.625
1070
   140
1040
2.5
1070
    78
1070
     8
1002
}
  0
DIMENSION
  5
134
330
2ED
100
AcDbEntity
  8
0
100
AcDbDimension
280
     0
  2
*D37
 10
50.0
 20
70.0
 30
0.0
 11
30.0
 21
71.875
 31
0.0
 70
    33
  1
⌀<>
 71
     5
 42
40.00000000000001
 73
     0
 74
     0
 75
     0
  3
QCADDimStyle
100
AcDbAlignedDimension
 13
9.999999999999995
 23
60.0
 33
0.0
 14
50.0
 24
59.99999999999999
 34
0.0
1001
ACAD
1000
DSTYLE
1002
{
1070
   279
1070
     2
1070
    41
1040
2.5
1070
    79
1070
     3
1070
   176
1070
     0
1070
   177
1070
     0
1070
   178
1070
     0
1070
    44
1040
1.25
1070
    42
1040
0.625
1070
   147
1040
0.625
1070
   140
1040
2.5
1070
    78
1070
     8
1002
}
  0
DIMENSION
  5
135
330
2ED
100
AcDbEntity
  8
0
100
AcDbDimension
280
     0
  2
*D38
 10
68.35601012694643
 20
59.86393923832144
 30
0.0
 11
38.04776202574889
 21
56.71342784550671
 31
0.0
 70
    33
  1
text
 71
     5
 42
60.8276253029822
 73
     0
 74
     0
 75
     0
  3
QCADDimStyle
100
AcDbAlignedDimension
 13
9.999999999999996
 23
40.0
 33
0.0
 14
70.0
 24
50.00000000000001
 34
0.0
1001
ACAD
1000
DSTYLE
1002
{
1070
   279
1070
     2
1070
    41
1040
2.5
1070
    79
1070
     3
1070
   176
1070
     0
1070
   177
1070
     0
1070
   178
1070
     0
1070
    44
1040
1.25
1070
    42
1040
0.625
1070
   147
1040
0.625
1070
   140
1040
2.5
1070
    78
1070
     8
1002
}
  0
DIMENSION
  5
136
330
2ED
100
AcDbEntity
  8
0
100
AcDbDimension
280
     0
  2
*D39
 10
81.4142135623731
 20
19.89949493661162
 30
0.0
 11
46.91508086571358
 21
28.40556605999495
 31
0.0
 70
    33
  1
\A1;<>\S0.01^ 0.02;
 71
     5
 42
70.71067811865476
 73
     0
 74
     0
 75
     0
  3
QCADDimStyle
100
AcDbAlignedDimension
 13
10.0
 23
20.0
 33
0.0
 14
80.0
 24
9.999999999999941
 34
0.0
1001
ACAD
1000
DSTYLE
1002
{
1070
   279
1070
     2
1070
    41
1040
2.5
1070
    79
1070
     3
1070
   176
1070
     0
1070
   177
1070
     0
1070
   178
1070
     0
1070
    44
1040
1.25
1070
    42
1040
0.625
1070
   147
1040
0.625
1070
   140
1040
2.5
1070
    78
1070
     8
1002
}
  0
ENDBLK
  5
2EF
330
2ED
100
AcDbEntity
  8
0
100
AcDbBlockEnd
  0
BLOCK
  5
2F1
330
2F0
100
AcDbEntity
  8
0
100
AcDbBlockBegin
  2
dim_rotated
 70
     0
 10
0.0
 20
0.0
 30
0.0
  3
dim_rotated
  1

  0
DIMENSION
  5
137
330
2F0
100
AcDbEntity
  8
0
100
AcDbDimension
280
     0
  2
*D40
 10
29.15379583999999
 20
90.84620416000001
 30
0.0
 11
17.82797062527521
 21
82.17202937472479
 31
0.0
 70
    32
 71
     5
 42
28.2842712474619
 73
     0
 74
     0
 75
     0
  3
QCADDimStyle
100
AcDbAlignedDimension
 13
20.0
 23
60.0
 33
0.0
 14
40.00000000000001
 24
80.0
 34
0.0
 50
45.0
100
AcDbRotatedDimension
1001
ACAD
1000
DSTYLE
1002
{
1070
   279
1070
     2
1070
    41
1040
2.5
1070
    79
1070
     3
1070
   176
1070
     0
1070
   177
1070
     0
1070
   178
1070
     0
1070
    44
1040
1.25
1070
    42
1040
0.625
1070
   147
1040
0.625
1070
   140
1040
2.5
1070
    78
1070
     8
1002
}
  0
DIMENSION
  5
138
330
2F0
100
AcDbEntity
  8
0
100
AcDbDimension
280
     0
  2
*D41
 10
75.91518348496521
 20
87.0751097436367
 30
0.0
 11
63.14755646604301
 21
81.86878035681033
 31
0.0
 70
    32
  1
⌀<>
 71
     5
 42
27.32050807568878
 73
     0
 74
     0
 75
     0
  3
QCADDimStyle
100
AcDbAlignedDimension
 13
60.0
 23
60.00000000000001
 33
0.0
 14
80.0
 24
80.00000000000001
 34
0.0
 50
30.0
100
AcDbRotatedDimension
1001
ACAD
1000
DSTYLE
1002
{
1070
   279
1070
     2
1070
    41
1040
2.5
1070
    79
1070
     3
1070
   176
1070
     0
1070
   177
1070
     0
1070
   178
1070
     0
1070
    44
1040
1.25
1070
    42
1040
0.625
1070
   147
1040
0.625
1070
   140
1040
2.5
1070
    78
1070
     8
1002
}
  0
DIMENSION
  5
139
330
2F0
100
AcDbEntity
  8
0
100
AcDbDimension
280
     0
  2
*D42
 10
9.999999999999998
 20
50.0
 30
0.0
 11
8.124999999999996
 21
30.0
 31
0.0
 70
    32
  1
text
 71
     5
 42
40.0
 73
     0
 74
     0
 75
     0
  3
QCADDimStyle
100
AcDbAlignedDimension
 13
30.0
 23
10.0
 33
0.0
 14
30.0
 24
50.0
 34
0.0
 50
90.0
100
AcDbRotatedDimension
1001
ACAD
1000
DSTYLE
1002
{
1070
   279
1070
     2
1070
    41
1040
2.5
1070
    79
1070
     3
1070
   176
1070
     0
1070
   177
1070
     0
1070
   178
1070
     0
1070
    44
1040
1.25
1070
    42
1040
0.625
1070
   147
1040
0.625
1070
   140
1040
2.5
1070
    78
1070
     8
1002
}
  0
DIMENSION
  5
13A
330
2F0
100
AcDbEntity
  8
0
100
AcDbDimension
280
     0
  2
*D43
 10
74.74892708087825
 20
51.01893226701624
 30
0.0
 11
85.41583037379843
 21
35.76819327092963
 31
0.0
 70
    32
  1
\A1;<>\S0.01^ 0.02;
 71
     5
 42
36.54172754588872
 73
     0
 74
     0
 75
     0
  3
QCADDimStyle
100
AcDbAlignedDimension
 13
73.11443199999997
 23
10.29130752000001
 33
0.0
 14
50.0
 24
39.99999999999999
 34
0.0
 50
-66.0
100
AcDbRotatedDimension
1001
ACAD
1000
DSTYLE
1002
{
1070
   279
1070
     2
1070
    41
1040
2.5
1070
    79
1070
     3
1070
   176
1070
     0
1070
   177
1070
     0
1070
   178
1070
     0
1070
    44
1040
1.25
1070
    42
1040
0.625
1070
   147
1040
0.625
1070
   140
1040
2.5
1070
    78
1070
     8
1002
}
  0
ENDBLK
  5
2F2
330
2F0
100
AcDbEntity
  8
0
100
AcDbBlockEnd
  0
BLOCK
  5
2F4
330
2F3
100
AcDbEntity
  8
0
100
AcDbBlockBegin
  2
hatch_solid
 70
     0
 10
0.0
 20
0.0
 30
0.0
  3
hatch_solid
  1

  0
LWPOLYLINE
  5
13B
330
2F3
100
AcDbEntity
  8
0
100
AcDbPolyline
 90
       18
 70
     1
 43
0.0
 10
20.0
 20
90.0
 10
10.0
 20
80.0
 10
10.0
 20
30.0
 42
0.9999999999999999
 10
50.0
 20
30.0
 10
50.0
 20
50.0
 10
60.0
 20
50.0
 10
60.0
 20
20.0
 10
70.0
 20
10.0
 10
90.0
 20
10.0
 10
90.0
 20
70.0
 10
80.0
 20
70.0
 10
80.0
 20
80.0
 10
90.0
 20
80.0
 10
90.0
 20
90.0
 10
50.0
 20
90.0
 10
50.0
 20
80.0
 10
40.0
 20
80.0
 10
40.0
 20
90.0
  0
HATCH
  5
13C
330
2F3
100
AcDbEntity
  8
0
100
AcDbHatch
 10
0.0
 20
0.0
 30
0.0
210
0.0
220
0.0
230
1.0
  2
SOLID
 70
     1
 71
     0
 91
        1
 92
        0
 93
       18
 72
     1
 10
20.0
 20
90.0
 11
10.0
 21
80.0
 72
     1
 10
10.0
 20
80.0
 11
10.0
 21
30.0
 72
     2
 10
30.0
 20
30.0
 40
20.0
 50
180.0
 51
360.0
 73
     1
 72
     1
 10
50.0
 20
30.0
 11
50.0
 21
50.0
 72
     1
 10
50.0
 20
50.0
 11
60.0
 21
50.0
 72
     1
 10
60.0
 20
50.0
 11
60.0
 21
20.0
 72
     1
 10
60.0
 20
20.0
 11
70.0
 21
10.0
 72
     1
 10
70.0
 20
10.0
 11
90.0
 21
10.0
 72
     1
 10
90.0
 20
10.0
 11
90.0
 21
70.0
 72
     1
 10
90.0
 20
70.0
 11
80.0
 21
70.0
 72
     1
 10
80.0
 20
70.0
 11
80.0
 21
80.0
 72
     1
 10
80.0
 20
80.0
 11
90.0
 21
80.0
 72
     1
 10
90.0
 20
80.0
 11
90.0
 21
90.0
 72
     1
 10
90.0
 20
90.0
 11
50.0
 21
90.0
 72
     1
 10
50.0
 20
90.0
 11
50.0
 21
80.0
 72
     1
 10
50.0
 20
80.0
 11
40.0
 21
80.0
 72
     1
 10
40.0
 20
80.0
 11
40.0
 21
90.0
 72
     1
 10
40.0
 20
90.0
 11
20.0
 21
90.0
 97
        0
 75
     0
 76
     1
 98
        0
  0
ENDBLK
  5
2F5
330
2F3
100
AcDbEntity
  8
0
100
AcDbBlockEnd
  0
BLOCK
  5
2FD
330
2F6
100
AcDbEntity
  8
0
100
AcDbBlockBegin
  2
*D32
 70
     1
 10
0.0
 20
0.0
 30
0.0
  3
*D32
  1

  0
LINE
  5
2F7
330
2F6
100
AcDbEntity
  8
0
 62
     0
370
    -2
100
AcDbLine
 10
13.61965624455006
 20
59.09508593886254
 30
0.0
 11
86.38034375544993
 21
40.90491406113748
 31
0.0
  0
MTEXT
  5
2F8
330
2F6
100
AcDbEntity
  8
0
 62
     0
100
AcDbMText
 10
80.0
 20
40.00000000000001
 30
0.0
 40
2.5
 41
0.0
 46
0.0
 71
     5
 72
     1
  1
\A1;%%c80
 11
0.9701425001453317
 21
-0.2425356250363341
 31
0.0
 73
     1
 44
1.0
  0
SOLID
  5
2F9
330
2F6
100
AcDbEntity
  8
0
 62
     0
100
AcDbTrace
 10
86.27928724501812
 20
40.50068801941025
 30
0.0
 11
86.48140026588173
 21
41.3091401028647
 31
0.0
 12
88.80570000581326
 22
40.29857499854664
 32
0.0
 13
88.80570000581326
 23
40.29857499854664
 33
0.0
  0
SOLID
  5
2FA
330
2F6
100
AcDbEntity
  8
0
 62
     0
100
AcDbTrace
 10
13.72071275498186
 20
59.49931198058976
 30
0.0
 11
13.51859973411825
 21
58.69085989713532
 31
0.0
 12
11.19429999418673
 22
59.70142500145337
 32
0.0
 13
11.19429999418673
 23
59.70142500145337
 33
0.0
  0
POINT
  5
2FB
330
2F6
100
AcDbEntity
  8
Defpoints
 62
     0
100
AcDbPoint
 10
11.19429999418673
 20
59.70142500145337
 30
0.0
  0
POINT
  5
2FC
330
2F6
100
AcDbEntity
  8
Defpoints
 62
     0
100
AcDbPoint
 10
88.80570000581326
 20
40.29857499854664
 30
0.0
  0
ENDBLK
  5
2FE
330
2F6
100
AcDbEntity
  8
0
100
AcDbBlockEnd
  0
BLOCK
  5
306
330
2FF
100
AcDbEntity
  8
0
100
AcDbBlockBegin
  2
*D33
 70
     1
 10
0.0
 20
0.0
 30
0.0
  3
*D33
  1

  0
LINE
  5
300
330
2FF
100
AcDbEntity
  8
0
 62
     0
370
    -2
100
AcDbLine
 10
62.61259845377254
 20
74.43711030878843
 30
0.0
 11
37.38740154622747
 21
25.56288969121155
 31
0.0
  0
MTEXT
  5
301
330
2FF
100
AcDbEntity
  8
0
 62
     0
100
AcDbMText
 10
37.16581277192978
 20
32.05172968421052
 30
0.0
 40
2.5
 41
0.0
 46
0.0
 71
     5
 72
     1
  1
\A1;⌀%%c60
 11
0.4586399437735468
 21
0.8886221930468525
 31
0.0
 73
     1
 44
1.0
  0
SOLID
  5
302
330
2FF
100
AcDbEntity
  8
0
 62
     0
100
AcDbTrace
 10
37.01714229912461
 20
25.75398966778386
 30
0.0
 11
37.75766079333033
 21
25.37178971463924
 31
0.0
 12
36.2408016867936
 22
23.34133420859442
 32
0.0
 13
36.2408016867936
 23
23.34133420859442
 33
0.0
  0
SOLID
  5
303
330
2FF
100
AcDbEntity
  8
0
 62
     0
100
AcDbTrace
 10
62.9828577008754
 20
74.24601033221612
 30
0.0
 11
62.24233920666968
 21
74.62821028536075
 31
0.0
 12
63.75919831320641
 22
76.65866579140557
 32
0.0
 13
63.75919831320641
 23
76.65866579140557
 33
0.0
  0
POINT
  5
304
330
2FF
100
AcDbEntity
  8
Defpoints
 62
     0
100
AcDbPoint
 10
63.75919831320641
 20
76.65866579140557
 30
0.0
  0
POINT
  5
305
330
2FF
100
AcDbEntity
  8
Defpoints
 62
     0
100
AcDbPoint
 10
36.2408016867936
 20
23.34133420859442
 30
0.0
  0
ENDBLK
  5
307
330
2FF
100
AcDbEntity
  8
0
100
AcDbBlockEnd
  0
BLOCK
  5
30F
330
308
100
AcDbEntity
  8
0
100
AcDbBlockBegin
  2
*D34
 70
     1
 10
0.0
 20
0.0
 30
0.0
  3
*D34
  1

  0
LINE
  5
309
330
308
100
AcDbEntity
  8
0
 62
     0
370
    -2
100
AcDbLine
 10
64.21007410247847
 20
39.78609800311017
 30
0.0
 11
35.78992589752153
 21
60.21390199688986
 31
0.0
  0
MTEXT
  5
30A
330
308
100
AcDbEntity
  8
0
 62
     0
100
AcDbMText
 10
40.0
 20
60.0
 30
0.0
 40
2.5
 41
0.0
 46
0.0
 71
     5
 72
     1
  1
\A1;text
 11
0.8120042344273418
 21
-0.5836515426794199
 31
0.0
 73
     1
 44
1.0
  0
SOLID
  5
30B
330
308
100
AcDbEntity
  8
0
 62
     0
100
AcDbTrace
 10
36.03311404030462
 20
60.55223709456792
 30
0.0
 11
35.54673775473844
 21
59.8755668992118
 31
0.0
 12
33.75991531145317
 22
61.67303085358841
 32
0.0
 13
33.75991531145317
 23
61.67303085358841
 33
0.0
  0
SOLID
  5
30C
330
308
100
AcDbEntity
  8
0
 62
     0
100
AcDbTrace
 10
63.96688595969538
 20
39.44776290543211
 30
0.0
 11
64.45326224526157
 21
40.12443310078823
 31
0.0
 12
66.24008468854683
 22
38.32696914641162
 32
0.0
 13
66.24008468854683
 23
38.32696914641162
 33
0.0
  0
POINT
  5
30D
330
308
100
AcDbEntity
  8
Defpoints
 62
     0
100
AcDbPoint
 10
66.24008468854683
 20
38.32696914641162
 30
0.0
  0
POINT
  5
30E
330
308
100
AcDbEntity
  8
Defpoints
 62
     0
100
AcDbPoint
 10
33.75991531145317
 20
61.67303085358841
 30
0.0
  0
ENDBLK
  5
310
330
308
100
AcDbEntity
  8
0
100
AcDbBlockEnd
  0
BLOCK
  5
31B
330
311
100
AcDbEntity
  8
0
100
AcDbBlockBegin
  2
*D35
 70
     1
 10
0.0
 20
0.0
 30
0.0
  3
*D35
  1

  0
LINE
  5
312
330
311
100
AcDbEntity
  8
0
 62
     0
370
    -2
100
AcDbLine
 10
38.25413440926571
 20
45.72394556578097
 30
0.0
 11
35.90496129111885
 21
44.86873467893716
 31
0.0
  0
LINE
  5
313
330
311
100
AcDbEntity
  8
0
 62
     0
370
    -2
100
AcDbLine
 10
61.74586559073429
 20
54.27605443421906
 30
0.0
 11
64.09503870888115
 21
55.13126532106286
 31
0.0
  0
MTEXT
  5
314
330
311
100
AcDbEntity
  8
0
 62
     0
100
AcDbMText
 10
36.00370750877188
 20
48.03067705263156
 30
0.0
 40
2.5
 41
0.0
 46
0.0
 71
     5
 72
     1
  1
\A1;\A1;%%c20\S0.01^ 0.02;
 11
0.9396692472587428
 21
0.3420843547375237
 31
0.0
 73
     1
 44
1.0
  0
SOLID
  5
315
330
311
100
AcDbEntity
  8
0
 62
     0
100
AcDbTrace
 10
61.60333044292699
 20
54.66758328724353
 30
0.0
 11
61.88840073854159
 21
53.88452558119458
 31
0.0
 12
59.39669247258743
 22
53.42084354737525
 32
0.0
 13
59.39669247258743
 23
53.42084354737525
 33
0.0
  0
SOLID
  5
316
330
311
100
AcDbEntity
  8
0
 62
     0
100
AcDbTrace
 10
38.39666955707301
 20
45.33241671275649
 30
0.0
 11
38.11159926145841
 21
46.11547441880544
 31
0.0
 12
40.60330752741257
 22
46.57915645262477
 32
0.0
 13
40.60330752741257
 23
46.57915645262477
 33
0.0
  0
LINE
  5
317
330
311
100
AcDbEntity
  8
0
 62
     0
370
    -2
100
AcDbLine
 10
49.91
 20
50.00000000000001
 30
0.0
 11
50.09
 21
50.00000000000001
 31
0.0
  0
LINE
  5
318
330
311
100
AcDbEntity
  8
0
 62
     0
370
    -2
100
AcDbLine
 10
50.0
 20
49.91000000000001
 30
0.0
 11
50.0
 21
50.09000000000002
 31
0.0
  0
POINT
  5
319
330
311
100
AcDbEntity
  8
Defpoints
 62
     0
100
AcDbPoint
 10
40.60330752741257
 20
46.57915645262477
 30
0.0
  0
POINT
  5
31A
330
311
100
AcDbEntity
  8
Defpoints
 62
     0
100
AcDbPoint
 10
59.39669247258743
 20
53.42084354737525
 30
0.0
  0
ENDBLK
  5
31C
330
311
100
AcDbEntity
  8
0
100
AcDbBlockEnd
  0
BLOCK
  5
327
330
31D
100
AcDbEntity
  8
0
100
AcDbBlockBegin
  2
*D36
 70
     1
 10
0.0
 20
0.0
 30
0.0
  3
*D36
  1

  0
LINE
  5
31E
330
31D
100
AcDbEntity
  8
0
 62
     0
370
    -2
100
AcDbLine
 10
10.15158476564772
 20
80.60633906259083
 30
0.0
 11
12.72852578165876
 21
90.91410312663498
 31
0.0
  0
LINE
  5
31F
330
31D
100
AcDbEntity
  8
0
 62
     0
370
    -2
100
AcDbLine
 10
90.15158476564771
 20
60.60633906259083
 30
0.0
 11
92.72852578165875
 21
70.91410312663498
 31
0.0
  0
LINE
  5
320
330
31D
100
AcDbEntity
  8
0
 62
     0
370
    -2
100
AcDbLine
 10
14.85071250072668
 20
89.09508593886248
 30
0.0
 11
90.0
 21
70.30776406404415
 31
0.0
  0
SOLID
  5
321
330
31D
100
AcDbEntity
  8
0
 62
     0
100
AcDbTrace
 10
14.95176901115848
 20
89.49931198058971
 30
0.0
 11
14.74965599029487
 21
88.69085989713525
 31
0.0
 12
12.42535625036335
 22
89.70142500145332
 32
0.0
 13
12.42535625036335
 23
89.70142500145332
 33
0.0
  0
SOLID
  5
322
330
31D
100
AcDbEntity
  8
0
 62
     0
100
AcDbTrace
 10
89.8989434895682
 20
69.90353802231692
 30
0.0
 11
90.1010565104318
 21
70.71199010577138
 31
0.0
 12
92.42535625036334
 22
69.70142500145332
 32
0.0
 13
92.42535625036334
 23
69.70142500145332
 33
0.0
  0
MTEXT
  5
323
330
31D
100
AcDbEntity
  8
0
 62
     0
100
AcDbMText
 10
52.88011054730647
 20
81.52044218922582
 30
0.0
 40
2.5
 41
0.0
 46
0.0
 71
     5
 72
     1
  1
\A1;82.4621
 11
0.9701425001453319
 21
-0.2425356250363331
 31
0.0
 73
     1
 44
1.0
  0
POINT
  5
324
330
31D
100
AcDbEntity
  8
Defpoints
 62
     0
100
AcDbPoint
 10
10.00000000000001
 20
80.0
 30
0.0
  0
POINT
  5
325
330
31D
100
AcDbEntity
  8
Defpoints
 62
     0
100
AcDbPoint
 10
90.0
 20
59.99999999999999
 30
0.0
  0
POINT
  5
326
330
31D
100
AcDbEntity
  8
Defpoints
 62
     0
100
AcDbPoint
 10
92.42535625036334
 20
69.70142500145332
 30
0.0
  0
ENDBLK
  5
328
330
31D
100
AcDbEntity
  8
0
100
AcDbBlockEnd
  0
BLOCK
  5
333
330
329
100
AcDbEntity
  8
0
100
AcDbBlockBegin
  2
*D37
 70
     1
 10
0.0
 20
0.0
 30
0.0
  3
*D37
  1

  0
LINE
  5
32A
330
329
100
AcDbEntity
  8
0
 62
     0
370
    -2
100
AcDbLine
 10
9.999999999999995
 20
60.625
 30
0.0
 11
9.999999999999995
 21
71.25
 31
0.0
  0
LINE
  5
32B
330
329
100
AcDbEntity
  8
0
 62
     0
370
    -2
100
AcDbLine
 10
50.0
 20
60.62499999999999
 30
0.0
 11
50.0
 21
71.25
 31
0.0
  0
LINE
  5
32C
330
329
100
AcDbEntity
  8
0
 62
     0
370
    -2
100
AcDbLine
 10
12.49999999999999
 20
70.0
 30
0.0
 11
47.5
 21
70.0
 31
0.0
  0
SOLID
  5
32D
330
329
100
AcDbEntity
  8
0
 62
     0
100
AcDbTrace
 10
12.49999999999999
 20
70.41666666666667
 30
0.0
 11
12.49999999999999
 21
69.58333333333333
 31
0.0
 12
9.999999999999995
 22
70.0
 32
0.0
 13
9.999999999999995
 23
70.0
 33
0.0
  0
SOLID
  5
32E
330
329
100
AcDbEntity
  8
0
 62
     0
100
AcDbTrace
 10
47.5
 20
69.58333333333333
 30
0.0
 11
47.5
 21
70.41666666666667
 31
0.0
 12
50.0
 22
70.0
 32
0.0
 13
50.0
 23
70.0
 33
0.0
  0
MTEXT
  5
32F
330
329
100
AcDbEntity
  8
0
 62
     0
100
AcDbMText
 10
30.0
 20
71.875
 30
0.0
 40
2.5
 41
0.0
 46
0.0
 71
     5
 72
     1
  1
\A1;⌀40
 73
     1
 44
1.0
  0
POINT
  5
330
330
329
100
AcDbEntity
  8
Defpoints
 62
     0
100
AcDbPoint
 10
9.999999999999995
 20
60.0
 30
0.0
  0
POINT
  5
331
330
329
100
AcDbEntity
  8
Defpoints
 62
     0
100
AcDbPoint
 10
50.0
 20
59.99999999999999
 30
0.0
  0
POINT
  5
332
330
329
100
AcDbEntity
  8
Defpoints
 62
     0
100
AcDbPoint
 10
50.0
 20
70.0
 30
0.0
  0
ENDBLK
  5
334
330
329
100
AcDbEntity
  8
0
100
AcDbBlockEnd
  0
BLOCK
  5
33F
330
335
100
AcDbEntity
  8
0
100
AcDbBlockBegin
  2
*D38
 70
     1
 10
0.0
 20
0.0
 30
0.0
  3
*D38
  1

  0
LINE
  5
336
330
335
100
AcDbEntity
  8
0
 62
     0
370
    -2
100
AcDbLine
 10
9.897250632934147
 20
40.61649620239509
 30
0.0
 11
8.15051139281473
 21
51.09693164311162
 31
0.0
  0
LINE
  5
337
330
335
100
AcDbEntity
  8
0
 62
     0
370
    -2
100
AcDbLine
 10
69.89725063293415
 20
50.6164962023951
 30
0.0
 11
68.15051139281474
 21
61.09693164311162
 31
0.0
  0
LINE
  5
338
330
335
100
AcDbEntity
  8
0
 62
     0
370
    -2
100
AcDbLine
 10
10.82199493652679
 20
50.27493670658483
 30
0.0
 11
65.89002531736607
 21
59.45294177005805
 31
0.0
  0
SOLID
  5
339
330
335
100
AcDbEntity
  8
0
 62
     0
100
AcDbTrace
 10
10.75349535848289
 20
50.68593417484823
 30
0.0
 11
10.89049451457068
 21
49.86393923832144
 31
0.0
 12
8.356010126946426
 22
49.86393923832144
 32
0.0
 13
8.356010126946426
 23
49.86393923832144
 33
0.0
  0
SOLID
  5
33A
330
335
100
AcDbEntity
  8
0
 62
     0
100
AcDbTrace
 10
65.95852489540997
 20
59.04194430179465
 30
0.0
 11
65.82152573932217
 21
59.86393923832144
 31
0.0
 12
68.35601012694643
 22
59.86393923832144
 32
0.0
 13
68.35601012694643
 23
59.86393923832144
 33
0.0
  0
MTEXT
  5
33B
330
335
100
AcDbEntity
  8
0
 62
     0
100
AcDbMText
 10
38.04776202574889
 20
56.71342784550671
 30
0.0
 40
2.5
 41
0.0
 46
0.0
 71
     5
 72
     1
  1
\A1;text
 11
0.9863939238321437
 21
0.1643989873053574
 31
0.0
 73
     1
 44
1.0
  0
POINT
  5
33C
330
335
100
AcDbEntity
  8
Defpoints
 62
     0
100
AcDbPoint
 10
9.999999999999996
 20
40.0
 30
0.0
  0
POINT
  5
33D
330
335
100
AcDbEntity
  8
Defpoints
 62
     0
100
AcDbPoint
 10
70.0
 20
50.00000000000001
 30
0.0
  0
POINT
  5
33E
330
335
100
AcDbEntity
  8
Defpoints
 62
     0
100
AcDbPoint
 10
68.35601012694643
 20
59.86393923832144
 30
0.0
  0
ENDBLK
  5
340
330
335
100
AcDbEntity
  8
0
100
AcDbBlockEnd
  0
BLOCK
  5
34B
330
341
100
AcDbEntity
  8
0
100
AcDbBlockBegin
  2
*D39
 70
     1
 10
0.0
 20
0.0
 30
0.0
  3
*D39
  1

  0
LINE
  5
342
330
341
100
AcDbEntity
  8
0
 62
     0
370
    -2
100
AcDbLine
 10
10.08838834764832
 20
20.61871843353823
 30
0.0
 11
11.59099025766974
 21
31.13693180368813
 31
0.0
  0
LINE
  5
343
330
341
100
AcDbEntity
  8
0
 62
     0
370
    -2
100
AcDbLine
 10
80.08838834764832
 20
10.61871843353817
 30
0.0
 11
81.59099025766974
 21
21.13693180368807
 31
0.0
  0
LINE
  5
344
330
341
100
AcDbEntity
  8
0
 62
     0
370
    -2
100
AcDbLine
 10
13.88908729652602
 20
29.5459415460184
 30
0.0
 11
78.93933982822018
 21
20.25304832720489
 31
0.0
  0
SOLID
  5
345
330
341
100
AcDbEntity
  8
0
 62
     0
100
AcDbTrace
 10
13.9480128616249
 20
29.95842050171055
 30
0.0
 11
13.83016173142714
 21
29.13346259032625
 31
0.0
 12
11.41421356237311
 22
29.89949493661167
 32
0.0
 13
11.41421356237311
 23
29.89949493661167
 33
0.0
  0
SOLID
  5
346
330
341
100
AcDbEntity
  8
0
 62
     0
100
AcDbTrace
 10
78.88041426312131
 20
19.84056937151274
 30
0.0
 11
78.99826539331906
 21
20.66552728289705
 31
0.0
 12
81.4142135623731
 22
19.89949493661162
 32
0.0
 13
81.4142135623731
 23
19.89949493661162
 33
0.0
  0
MTEXT
  5
347
330
341
100
AcDbEntity
  8
0
 62
     0
100
AcDbMText
 10
46.91508086571358
 20
28.40556605999495
 30
0.0
 40
2.5
 41
0.0
 46
0.0
 71
     5
 72
     1
  1
\A1;\A1;70.7107\S0.01^ 0.02;
 11
0.9899494936611665
 21
-0.1414213562373103
 31
0.0
 73
     1
 44
1.0
  0
POINT
  5
348
330
341
100
AcDbEntity
  8
Defpoints
 62
     0
100
AcDbPoint
 10
10.0
 20
20.0
 30
0.0
  0
POINT
  5
349
330
341
100
AcDbEntity
  8
Defpoints
 62
     0
100
AcDbPoint
 10
80.0
 20
9.999999999999941
 30
0.0
  0
POINT
  5
34A
330
341
100
AcDbEntity
  8
Defpoints
 62
     0
100
AcDbPoint
 10
81.4142135623731
 20
19.89949493661162
 30
0.0
  0
ENDBLK
  5
34C
330
341
100
AcDbEntity
  8
0
100
AcDbBlockEnd
  0
BLOCK
  5
357
330
34D
100
AcDbEntity
  8
0
100
AcDbBlockBegin
  2
*D40
 70
     1
 10
0.0
 20
0.0
 30
0.0
  3
*D40
  1

  0
LINE
  5
34E
330
34D
100
AcDbEntity
  8
0
 62
     0
370
    -2
100
AcDbLine
 10
19.55805826175841
 20
60.44194173824159
 30
0.0
 11
8.269912363516799
 21
71.73008763648319
 31
0.0
  0
LINE
  5
34F
330
34D
100
AcDbEntity
  8
0
 62
     0
370
    -2
100
AcDbLine
 10
39.55805826175842
 20
80.4419417382416
 30
0.0
 11
28.26991236351681
 21
91.73008763648319
 31
0.0
  0
LINE
  5
350
330
34D
100
AcDbEntity
  8
0
 62
     0
370
    -2
100
AcDbLine
 10
10.92156279296635
 20
72.61397111296638
 30
0.0
 11
27.38602888703362
 21
89.07843720703364
 31
0.0
  0
SOLID
  5
351
330
34D
100
AcDbEntity
  8
0
 62
     0
100
AcDbTrace
 10
10.62693496747196
 20
72.90859893846078
 30
0.0
 11
11.21619061846075
 21
72.31934328747198
 31
0.0
 12
9.153795839999983
 22
70.84620416000001
 32
0.0
 13
9.153795839999983
 23
70.84620416000001
 33
0.0
  0
SOLID
  5
352
330
34D
100
AcDbEntity
  8
0
 62
     0
100
AcDbTrace
 10
27.68065671252802
 20
88.78380938153924
 30
0.0
 11
27.09140106153923
 21
89.37306503252805
 31
0.0
 12
29.15379583999999
 22
90.84620416000001
 32
0.0
 13
29.15379583999999
 23
90.84620416000001
 33
0.0
  0
MTEXT
  5
353
330
34D
100
AcDbEntity
  8
0
 62
     0
100
AcDbMText
 10
17.82797062527521
 20
82.17202937472479
 30
0.0
 40
2.5
 41
0.0
 46
0.0
 71
     5
 72
     1
  1
\A1;28.2843
 11
0.7071067811865476
 21
0.7071067811865474
 31
0.0
 73
     1
 44
1.0
  0
POINT
  5
354
330
34D
100
AcDbEntity
  8
Defpoints
 62
     0
100
AcDbPoint
 10
20.0
 20
60.0
 30
0.0
  0
POINT
  5
355
330
34D
100
AcDbEntity
  8
Defpoints
 62
     0
100
AcDbPoint
 10
40.00000000000001
 20
80.0
 30
0.0
  0
POINT
  5
356
330
34D
100
AcDbEntity
  8
Defpoints
 62
     0
100
AcDbPoint
 10
29.15379583999999
 20
90.84620416000001
 30
0.0
  0
ENDBLK
  5
358
330
34D
100
AcDbEntity
  8
0
100
AcDbBlockEnd
  0
BLOCK
  5
363
330
359
100
AcDbEntity
  8
0
100
AcDbBlockBegin
  2
*D41
 70
     1
 10
0.0
 20
0.0
 30
0.0
  3
*D41
  1

  0
LINE
  5
35A
330
359
100
AcDbEntity
  8
0
 62
     0
370
    -2
100
AcDbLine
 10
59.6875
 20
60.54126587736528
 30
0.0
 11
51.62992944712082
 21
74.49738746052287
 31
0.0
  0
LINE
  5
35B
330
359
100
AcDbEntity
  8
0
 62
     0
370
    -2
100
AcDbLine
 10
79.6875
 20
80.54126587736529
 30
0.0
 11
75.29018348496521
 21
88.15764149836725
 31
0.0
  0
LINE
  5
35C
330
359
100
AcDbEntity
  8
0
 62
     0
370
    -2
100
AcDbLine
 10
54.41999295658191
 20
74.66485570579232
 30
0.0
 11
73.75011997550412
 21
85.8251097436367
 31
0.0
  0
SOLID
  5
35D
330
359
100
AcDbEntity
  8
0
 62
     0
100
AcDbTrace
 10
54.21165962324858
 20
75.02569962403584
 30
0.0
 11
54.62832628991525
 21
74.3040117875488
 31
0.0
 12
52.25492944712082
 22
73.41485570579232
 32
0.0
 13
52.25492944712082
 23
73.41485570579232
 33
0.0
  0
SOLID
  5
35E
330
359
100
AcDbEntity
  8
0
 62
     0
100
AcDbTrace
 10
73.95845330883745
 20
85.46426582539318
 30
0.0
 11
73.54178664217079
 21
86.18595366188022
 31
0.0
 12
75.91518348496521
 22
87.0751097436367
 32
0.0
 13
75.91518348496521
 23
87.0751097436367
 33
0.0
  0
MTEXT
  5
35F
330
359
100
AcDbEntity
  8
0
 62
     0
100
AcDbMText
 10
63.14755646604301
 20
81.86878035681033
 30
0.0
 40
2.5
 41
0.0
 46
0.0
 71
     5
 72
     1
  1
\A1;⌀27.3205
 11
0.8660254037844388
 21
0.4999999999999997
 31
0.0
 73
     1
 44
1.0
  0
POINT
  5
360
330
359
100
AcDbEntity
  8
Defpoints
 62
     0
100
AcDbPoint
 10
60.0
 20
60.00000000000001
 30
0.0
  0
POINT
  5
361
330
359
100
AcDbEntity
  8
Defpoints
 62
     0
100
AcDbPoint
 10
80.0
 20
80.00000000000001
 30
0.0
  0
POINT
  5
362
330
359
100
AcDbEntity
  8
Defpoints
 62
     0
100
AcDbPoint
 10
75.91518348496521
 20
87.0751097436367
 30
0.0
  0
ENDBLK
  5
364
330
359
100
AcDbEntity
  8
0
100
AcDbBlockEnd
  0
BLOCK
  5
36F
330
365
100
AcDbEntity
  8
0
100
AcDbBlockBegin
  2
*D42
 70
     1
 10
0.0
 20
0.0
 30
0.0
  3
*D42
  1

  0
LINE
  5
366
330
365
100
AcDbEntity
  8
0
 62
     0
370
    -2
100
AcDbLine
 10
29.375
 20
10.0
 30
0.0
 11
8.749999999999996
 21
10.0
 31
0.0
  0
LINE
  5
367
330
365
100
AcDbEntity
  8
0
 62
     0
370
    -2
100
AcDbLine
 10
29.375
 20
50.0
 30
0.0
 11
8.749999999999998
 21
50.0
 31
0.0
  0
LINE
  5
368
330
365
100
AcDbEntity
  8
0
 62
     0
370
    -2
100
AcDbLine
 10
9.999999999999996
 20
12.5
 30
0.0
 11
9.999999999999998
 21
47.5
 31
0.0
  0
SOLID
  5
369
330
365
100
AcDbEntity
  8
0
 62
     0
100
AcDbTrace
 10
9.58333333333333
 20
12.5
 30
0.0
 11
10.41666666666666
 21
12.5
 31
0.0
 12
9.999999999999996
 22
10.0
 32
0.0
 13
9.999999999999996
 23
10.0
 33
0.0
  0
SOLID
  5
36A
330
365
100
AcDbEntity
  8
0
 62
     0
100
AcDbTrace
 10
10.41666666666666
 20
47.5
 30
0.0
 11
9.583333333333332
 21
47.5
 31
0.0
 12
9.999999999999998
 22
50.0
 32
0.0
 13
9.999999999999998
 23
50.0
 33
0.0
  0
MTEXT
  5
36B
330
365
100
AcDbEntity
  8
0
 62
     0
100
AcDbMText
 10
8.124999999999996
 20
30.0
 30
0.0
 40
2.5
 41
0.0
 46
0.0
 71
     5
 72
     1
  1
\A1;text
 11
4.440892098500626E-17
 21
1.0
 31
0.0
 73
     1
 44
1.0
  0
POINT
  5
36C
330
365
100
AcDbEntity
  8
Defpoints
 62
     0
100
AcDbPoint
 10
30.0
 20
10.0
 30
0.0
  0
POINT
  5
36D
330
365
100
AcDbEntity
  8
Defpoints
 62
     0
100
AcDbPoint
 10
30.0
 20
50.0
 30
0.0
  0
POINT
  5
36E
330
365
100
AcDbEntity
  8
Defpoints
 62
     0
100
AcDbPoint
 10
9.999999999999998
 20
50.0
 30
0.0
  0
ENDBLK
  5
370
330
365
100
AcDbEntity
  8
0
100
AcDbBlockEnd
  0
BLOCK
  5
37B
330
371
100
AcDbEntity
  8
0
100
AcDbBlockBegin
  2
*D43
 70
     1
 10
0.0
 20
0.0
 30
0.0
  3
*D43
  1

  0
LINE
  5
372
330
371
100
AcDbEntity
  8
0
 62
     0
370
    -2
100
AcDbLine
 10
73.68539791102658
 20
10.54551792192239
 30
0.0
 11
90.75371849713677
 21
18.14482385690084
 31
0.0
  0
LINE
  5
373
330
371
100
AcDbEntity
  8
0
 62
     0
370
    -2
100
AcDbLine
 10
50.57096591102663
 20
40.25421040192237
 30
0.0
 11
75.8908589029315
 21
51.52735307086099
 31
0.0
  0
LINE
  5
374
330
371
100
AcDbEntity
  8
0
 62
     0
370
    -2
100
AcDbLine
 10
88.59494506739402
 20
19.9202666971626
 30
0.0
 11
75.76576868856775
 21
48.73506862290974
 31
0.0
  0
SOLID
  5
375
330
371
100
AcDbEntity
  8
0
 62
     0
100
AcDbTrace
 10
88.2143011267096
 20
19.75079309588101
 30
0.0
 11
88.97558900807844
 21
20.08974029844418
 31
0.0
 12
89.61178667508352
 22
17.63640305305609
 32
0.0
 13
89.61178667508352
 23
17.63640305305609
 33
0.0
  0
SOLID
  5
376
330
371
100
AcDbEntity
  8
0
 62
     0
100
AcDbTrace
 10
76.14641262925217
 20
48.90454222419132
 30
0.0
 11
75.38512474788332
 21
48.56559502162816
 31
0.0
 12
74.74892708087825
 22
51.01893226701624
 32
0.0
 13
74.74892708087825
 23
51.01893226701624
 33
0.0
  0
MTEXT
  5
377
330
371
100
AcDbEntity
  8
0
 62
     0
100
AcDbMText
 10
85.41583037379843
 20
35.76819327092963
 30
0.0
 40
2.5
 41
0.0
 46
0.0
 71
     5
 72
     1
  1
\A1;\A1;36.5417\S0.01^ 0.02;
 11
0.4067366430758002
 21
-0.913545457642601
 31
0.0
 73
     1
 44
1.0
  0
POINT
  5
378
330
371
100
AcDbEntity
  8
Defpoints
 62
     0
100
AcDbPoint
 10
73.11443199999997
 20
10.29130752000001
 30
0.0
  0
POINT
  5
379
330
371
100
AcDbEntity
  8
Defpoints
 62
     0
100
AcDbPoint
 10
50.0
 20
39.99999999999999
 30
0.0
  0
POINT
  5
37A
330
371
100
AcDbEntity
  8
Defpoints
 62
     0
100
AcDbPoint
 10
74.74892708087825
 20
51.01893226701624
 30
0.0
  0
ENDBLK
  5
37C
330
371
100
AcDbEntity
  8
0
100
AcDbBlockEnd
  0
BLOCK
  5
385
330
37D
100
AcDbEntity
  8
0
100
AcDbBlockBegin
  2
*D44
 70
     1
 10
0.0
 20
0.0
 30
0.0
  3
*D44
  1

  0
LINE
  5
37E
330
37D
100
AcDbEntity
  8
0
 62
     0
370
    -2
100
AcDbLine
 10
10.625
 20
10.0
 30
0.0
 11
20.0
 21
9.999999999999996
 31
0.0
  0
LINE
  5
37F
330
37D
100
AcDbEntity
  8
0
 62
     0
370
    -2
100
AcDbLine
 10
20.0
 20
9.999999999999996
 30
0.0
 11
25.00000000000001
 21
20.0
 31
0.0
  0
LINE
  5
380
330
37D
100
AcDbEntity
  8
0
 62
     0
370
    -2
100
AcDbLine
 10
25.00000000000001
 20
20.0
 30
0.0
 11
34.31547619047619
 21
20.0
 31
0.0
  0
MTEXT
  5
381
330
37D
100
AcDbEntity
  8
0
 62
     0
100
AcDbMText
 10
32.47023809523809
 20
21.875
 30
0.0
 40
2.5
 41
0.0
 46
0.0
 71
     5
 72
     1
  1
\A1;10
 73
     1
 44
1.0
  0
POINT
  5
382
330
37D
100
AcDbEntity
  8
Defpoints
 62
     0
100
AcDbPoint
 10
10.0
 20
10.0
 30
0.0
  0
POINT
  5
383
330
37D
100
AcDbEntity
  8
Defpoints
 62
     0
100
AcDbPoint
 10
30.0
 20
20.0
 30
0.0
  0
POINT
  5
384
330
37D
100
AcDbEntity
  8
Defpoints
 62
     0
100
AcDbPoint
 10
0.0
 20
0.0
 30
0.0
  0
ENDBLK
  5
386
330
37D
100
AcDbEntity
  8
0
100
AcDbBlockEnd
  0
BLOCK
  5
38F
330
387
100
AcDbEntity
  8
0
100
AcDbBlockBegin
  2
*D45
 70
     1
 10
0.0
 20
0.0
 30
0.0
  3
*D45
  1

  0
LINE
  5
388
330
387
100
AcDbEntity
  8
0
 62
     0
370
    -2
100
AcDbLine
 10
10.62500000000001
 20
30.0
 30
0.0
 11
40.0
 21
29.99999999999999
 31
0.0
  0
LINE
  5
389
330
387
100
AcDbEntity
  8
0
 62
     0
370
    -2
100
AcDbLine
 10
40.0
 20
29.99999999999999
 30
0.0
 11
45.0
 21
39.99999999999999
 31
0.0
  0
LINE
  5
38A
330
387
100
AcDbEntity
  8
0
 62
     0
370
    -2
100
AcDbLine
 10
45.0
 20
39.99999999999999
 30
0.0
 11
56.81547619047619
 21
39.99999999999999
 31
0.0
  0
MTEXT
  5
38B
330
387
100
AcDbEntity
  8
0
 62
     0
100
AcDbMText
 10
53.72023809523809
 20
41.87499999999999
 30
0.0
 40
2.5
 41
0.0
 46
0.0
 71
     5
 72
     1
  1
\A1;⌀30
 73
     1
 44
1.0
  0
POINT
  5
38C
330
387
100
AcDbEntity
  8
Defpoints
 62
     0
100
AcDbPoint
 10
10.0
 20
30.0
 30
0.0
  0
POINT
  5
38D
330
387
100
AcDbEntity
  8
Defpoints
 62
     0
100
AcDbPoint
 10
50.0
 20
39.99999999999999
 30
0.0
  0
POINT
  5
38E
330
387
100
AcDbEntity
  8
Defpoints
 62
     0
100
AcDbPoint
 10
0.0
 20
0.0
 30
0.0
  0
ENDBLK
  5
390
330
387
100
AcDbEntity
  8
0
100
AcDbBlockEnd
  0
BLOCK
  5
399
330
391
100
AcDbEntity
  8
0
100
AcDbBlockBegin
  2
*D46
 70
     1
 10
0.0
 20
0.0
 30
0.0
  3
*D46
  1

  0
LINE
  5
392
330
391
100
AcDbEntity
  8
0
 62
     0
370
    -2
100
AcDbLine
 10
10.62500000000003
 20
50.0
 30
0.0
 11
60.0
 21
50.0
 31
0.0
  0
LINE
  5
393
330
391
100
AcDbEntity
  8
0
 62
     0
370
    -2
100
AcDbLine
 10
60.0
 20
50.0
 30
0.0
 11
65.0
 21
60.0
 31
0.0
  0
LINE
  5
394
330
391
100
AcDbEntity
  8
0
 62
     0
370
    -2
100
AcDbLine
 10
65.0
 20
60.0
 30
0.0
 11
77.17261904761904
 21
60.0
 31
0.0
  0
MTEXT
  5
395
330
391
100
AcDbEntity
  8
0
 62
     0
100
AcDbMText
 10
73.89880952380952
 20
61.875
 30
0.0
 40
2.5
 41
0.0
 46
0.0
 71
     5
 72
     1
  1
\A1;text
 73
     1
 44
1.0
  0
POINT
  5
396
330
391
100
AcDbEntity
  8
Defpoints
 62
     0
100
AcDbPoint
 10
9.999999999999998
 20
50.0
 30
0.0
  0
POINT
  5
397
330
391
100
AcDbEntity
  8
Defpoints
 62
     0
100
AcDbPoint
 10
70.0
 20
60.0
 30
0.0
  0
POINT
  5
398
330
391
100
AcDbEntity
  8
Defpoints
 62
     0
100
AcDbPoint
 10
0.0
 20
0.0
 30
0.0
  0
ENDBLK
  5
39A
330
391
100
AcDbEntity
  8
0
100
AcDbBlockEnd
  0
BLOCK
  5
3A3
330
39B
100
AcDbEntity
  8
0
100
AcDbBlockBegin
  2
*D47
 70
     1
 10
0.0
 20
0.0
 30
0.0
  3
*D47
  1

  0
LINE
  5
39C
330
39B
100
AcDbEntity
  8
0
 62
     0
370
    -2
100
AcDbLine
 10
10.62500000000003
 20
69.99999999999999
 30
0.0
 11
70.0
 21
69.99999999999999
 31
0.0
  0
LINE
  5
39D
330
39B
100
AcDbEntity
  8
0
 62
     0
370
    -2
100
AcDbLine
 10
70.0
 20
69.99999999999999
 30
0.0
 11
75.0
 21
80.00000000000001
 31
0.0
  0
LINE
  5
39E
330
39B
100
AcDbEntity
  8
0
 62
     0
370
    -2
100
AcDbLine
 10
75.0
 20
80.00000000000001
 30
0.0
 11
93.00595238095238
 21
80.00000000000001
 31
0.0
  0
MTEXT
  5
39F
330
39B
100
AcDbEntity
  8
0
 62
     0
100
AcDbMText
 10
86.81547619047619
 20
83.54166666666669
 30
0.0
 40
2.5
 41
0.0
 46
0.0
 71
     5
 72
     1
  1
\A1;\A1;70\S0.01^ 0.02;
 73
     1
 44
1.0
  0
POINT
  5
3A0
330
39B
100
AcDbEntity
  8
Defpoints
 62
     0
100
AcDbPoint
 10
9.999999999999996
 20
70.0
 30
0.0
  0
POINT
  5
3A1
330
39B
100
AcDbEntity
  8
Defpoints
 62
     0
100
AcDbPoint
 10
80.0
 20
80.00000000000001
 30
0.0
  0
POINT
  5
3A2
330
39B
100
AcDbEntity
  8
Defpoints
 62
     0
100
AcDbPoint
 10
0.0
 20
0.0
 30
0.0
  0
ENDBLK
  5
3A4
330
39B
100
AcDbEntity
  8
0
100
AcDbBlockEnd
  0
BLOCK
  5
3B0
330
3A6
100
AcDbEntity
  8
0
100
AcDbBlockBegin
  2
*D48
 70
     1
 10
0.0
 20
0.0
 30
0.0
  3
*D48
  1

  0
ARC
  5
3A7
330
3A6
100
AcDbEntity
  8
0
 62
     0
370
    -2
100
AcDbCircle
 10
90.0
 20
10.00000000000009
 30
0.0
 40
33.93402628287815
100
AcDbArc
 50
94.222070823248
 51
130.7779291767521
  0
SOLID
  5
3A8
330
3A6
100
AcDbEntity
  8
0
 62
     0
100
AcDbTrace
 10
87.51704511578703
 20
43.42555194323657
 30
0.0
 11
87.48634829667151
 21
44.25831970782681
 31
0.0
 12
90.0
 22
43.93402628287824
 32
0.0
 13
90.0
 23
43.93402628287824
 33
0.0
  0
SOLID
  5
3A9
330
3A6
100
AcDbEntity
  8
0
 62
     0
100
AcDbTrace
 10
67.55312998750365
 20
36.00171034242578
 30
0.0
 11
68.12027979204153
 21
35.39114867997301
 31
0.0
 12
66.0050199024143
 22
33.99498009758574
 32
0.0
 13
66.0050199024143
 23
33.99498009758574
 33
0.0
  0
MTEXT
  5
3AA
330
3A6
100
AcDbEntity
  8
0
 62
     0
100
AcDbMText
 10
76.29647891241646
 20
43.08322646190993
 30
0.0
 40
2.5
 41
0.0
 46
0.0
 71
     5
 72
     1
  1
text
 11
0.9238795325112865
 21
0.3826834323650901
 31
0.0
 73
     1
 44
1.0
  0
POINT
  5
3AB
330
3A6
100
AcDbEntity
  8
Defpoints
 62
     0
100
AcDbPoint
 10
81.21722772098163
 20
42.77775237660413
 30
0.0
  0
POINT
  5
3AC
330
3A6
100
AcDbEntity
  8
Defpoints
 62
     0
100
AcDbPoint
 10
90.0
 20
10.00000000000009
 30
0.0
  0
POINT
  5
3AD
330
3A6
100
AcDbEntity
  8
Defpoints
 62
     0
100
AcDbPoint
 10
90.0
 20
10.00000000000009
 30
0.0
  0
POINT
  5
3AE
330
3A6
100
AcDbEntity
  8
Defpoints
 62
     0
100
AcDbPoint
 10
90.0
 20
50.00000000000001
 30
0.0
  0
POINT
  5
3AF
330
3A6
100
AcDbEntity
  8
Defpoints
 62
     0
100
AcDbPoint
 10
61.71572875253811
 20
38.28427124746192
 30
0.0
  0
ENDBLK
  5
3B1
330
3A6
100
AcDbEntity
  8
0
100
AcDbBlockEnd
  0
BLOCK
  5
3BC
330
3B2
100
AcDbEntity
  8
0
100
AcDbBlockBegin
  2
*D49
 70
     1
 10
0.0
 20
0.0
 30
0.0
  3
*D49
  1

  0
ARC
  5
3B3
330
3B2
100
AcDbEntity
  8
0
 62
     0
370
    -2
100
AcDbCircle
 10
90.0
 20
10.00000000000009
 30
0.0
 40
13.33851757353049
100
AcDbArc
 50
100.7545640861605
 51
105.8104870909176
  0
SOLID
  5
3B4
330
3B2
100
AcDbEntity
  8
0
 62
     0
100
AcDbTrace
 10
87.55004931623436
 20
22.68940066708971
 30
0.0
 11
87.47195468083545
 21
23.51906666757808
 31
0.0
 12
90.0
 22
23.33851757353059
 32
0.0
 13
90.0
 23
23.33851757353059
 33
0.0
  0
SOLID
  5
3B5
330
3B2
100
AcDbEntity
  8
0
 62
     0
100
AcDbTrace
 10
86.2152420613296
 20
23.22239706119286
 30
0.0
 11
86.51643001110008
 21
22.44539624822193
 31
0.0
 12
84.03483359730203
 22
21.93033280539597
 32
0.0
 13
84.03483359730203
 23
21.93033280539597
 33
0.0
  0
MTEXT
  5
3B6
330
3B2
100
AcDbEntity
  8
0
 62
     0
100
AcDbMText
 10
75.99800959999997
 20
19.37649920000003
 30
0.0
 40
2.5
 41
0.0
 46
0.0
 71
     5
 72
     1
  1
\A1;\A1;27%%d\S0.01^ 0.02;
 11
0.5564178710491989
 21
0.8309026132929641
 31
0.0
 73
     1
 44
1.0
  0
POINT
  5
3B7
330
3B2
100
AcDbEntity
  8
Defpoints
 62
     0
100
AcDbPoint
 10
87.94673941910654
 20
23.17953610892027
 30
0.0
  0
POINT
  5
3B8
330
3B2
100
AcDbEntity
  8
Defpoints
 62
     0
100
AcDbPoint
 10
90.0
 20
10.00000000000009
 30
0.0
  0
POINT
  5
3B9
330
3B2
100
AcDbEntity
  8
Defpoints
 62
     0
100
AcDbPoint
 10
90.0
 20
10.00000000000009
 30
0.0
  0
POINT
  5
3BA
330
3B2
100
AcDbEntity
  8
Defpoints
 62
     0
100
AcDbPoint
 10
90.0
 20
29.99999999999998
 30
0.0
  0
POINT
  5
3BB
330
3B2
100
AcDbEntity
  8
Defpoints
 62
     0
100
AcDbPoint
 10
81.05572809000084
 20
27.88854381999832
 30
0.0
  0
ENDBLK
  5
3BD
330
3B2
100
AcDbEntity
  8
0
100
AcDbBlockEnd
  0
BLOCK
  5
3C8
330
3BE
100
AcDbEntity
  8
0
100
AcDbBlockBegin
  2
*D50
 70
     1
 10
0.0
 20
0.0
 30
0.0
  3
*D50
  1

  0
ARC
  5
3BF
330
3BE
100
AcDbEntity
  8
0
 62
     0
370
    -2
100
AcDbCircle
 10
90.0
 20
10.00000000000009
 30
0.0
 40
72.76349842641002
100
AcDbArc
 50
91.968658712046
 51
178.031341287954
  0
SOLID
  5
3C0
330
3BE
100
AcDbEntity
  8
0
 62
     0
100
AcDbTrace
 10
87.50752681529151
 20
82.30394588902158
 30
0.0
 11
87.49321102936595
 21
83.13715624824533
 31
0.0
 12
90.0
 22
82.76349842641011
 32
0.0
 13
90.0
 23
82.76349842641011
 33
0.0
  0
SOLID
  5
3C1
330
3BE
100
AcDbEntity
  8
0
 62
     0
100
AcDbTrace
 10
16.86284375175475
 20
12.50678897063406
 30
0.0
 11
17.6960541109785
 21
12.49247318470851
 31
0.0
 12
17.23650157358998
 22
10.00000000000002
 32
0.0
 13
17.23650157358998
 23
10.00000000000002
 33
0.0
  0
MTEXT
  5
3C2
330
3BE
100
AcDbEntity
  8
0
 62
     0
100
AcDbMText
 10
37.18052193574765
 20
62.8194780642524
 30
0.0
 40
2.5
 41
0.0
 46
0.0
 71
     5
 72
     1
  1
\A1;90%%d
 11
0.7071067811865471
 21
0.7071067811865478
 31
0.0
 73
     1
 44
1.0
  0
POINT
  5
3C3
330
3BE
100
AcDbEntity
  8
Defpoints
 62
     0
100
AcDbPoint
 10
53.61825078679497
 20
73.01503810550017
 30
0.0
  0
POINT
  5
3C4
330
3BE
100
AcDbEntity
  8
Defpoints
 62
     0
100
AcDbPoint
 10
90.0
 20
10.00000000000009
 30
0.0
  0
POINT
  5
3C5
330
3BE
100
AcDbEntity
  8
Defpoints
 62
     0
100
AcDbPoint
 10
90.0
 20
10.00000000000009
 30
0.0
  0
POINT
  5
3C6
330
3BE
100
AcDbEntity
  8
Defpoints
 62
     0
100
AcDbPoint
 10
90.0
 20
90.00000000000001
 30
0.0
  0
POINT
  5
3C7
330
3BE
100
AcDbEntity
  8
Defpoints
 62
     0
100
AcDbPoint
 10
10.0
 20
10.00000000000001
 30
0.0
  0
ENDBLK
  5
3C9
330
3BE
100
AcDbEntity
  8
0
100
AcDbBlockEnd
  0
BLOCK
  5
3D4
330
3CA
100
AcDbEntity
  8
0
100
AcDbBlockBegin
  2
*D51
 70
     1
 10
0.0
 20
0.0
 30
0.0
  3
*D51
  1

  0
ARC
  5
3CB
330
3CA
100
AcDbEntity
  8
0
 62
     0
370
    -2
100
AcDbCircle
 10
90.0
 20
10.00000000000009
 30
0.0
 40
53.18904741026024
100
AcDbArc
 50
92.69327322529455
 51
167.84440456668
  0
SOLID
  5
3CC
330
3CA
100
AcDbEntity
  8
0
 62
     0
100
AcDbTrace
 10
87.51048258744702
 20
62.71374312487399
 30
0.0
 11
87.49089835502728
 21
63.54684630112828
 31
0.0
 12
90.0
 22
63.18904741026033
 32
0.0
 13
90.0
 23
63.18904741026033
 33
0.0
  0
SOLID
  5
3CD
330
3CA
100
AcDbEntity
  8
0
 62
     0
100
AcDbTrace
 10
37.59420993767316
 20
21.27800992217941
 30
0.0
 11
38.41275822067868
 21
21.12173083582059
 31
0.0
 12
37.53464682009946
 22
18.74422552998342
 32
0.0
 13
37.53464682009946
 23
18.74422552998342
 33
0.0
  0
MTEXT
  5
3CE
330
3CA
100
AcDbEntity
  8
0
 62
     0
100
AcDbMText
 10
54.3695073784866
 20
52.06038634595373
 30
0.0
 40
2.5
 41
0.0
 46
0.0
 71
     5
 72
     1
  1
⌀\A1;81%%d
 11
0.7630199824727251
 21
0.6463748961301965
 31
0.0
 73
     1
 44
1.0
  0
POINT
  5
3CF
330
3CA
100
AcDbEntity
  8
Defpoints
 62
     0
100
AcDbPoint
 10
65.98023379718036
 20
57.45656536215831
 30
0.0
  0
POINT
  5
3D0
330
3CA
100
AcDbEntity
  8
Defpoints
 62
     0
100
AcDbPoint
 10
90.0
 20
10.00000000000009
 30
0.0
  0
POINT
  5
3D1
330
3CA
100
AcDbEntity
  8
Defpoints
 62
     0
100
AcDbPoint
 10
90.0
 20
10.00000000000009
 30
0.0
  0
POINT
  5
3D2
330
3CA
100
AcDbEntity
  8
Defpoints
 62
     0
100
AcDbPoint
 10
90.0
 20
69.99999999999999
 30
0.0
  0
POINT
  5
3D3
330
3CA
100
AcDbEntity
  8
Defpoints
 62
     0
100
AcDbPoint
 10
30.81636457007138
 20
19.86393923832142
 30
0.0
  0
ENDBLK
  5
3D5
330
3CA
100
AcDbEntity
  8
0
100
AcDbBlockEnd
  0
BLOCK
  5
3DE
330
3D6
100
AcDbEntity
  8
0
100
AcDbBlockBegin
  2
*D52
 70
     1
 10
0.0
 20
0.0
 30
0.0
  3
*D52
  1

  0
LINE
  5
3D7
330
3D6
100
AcDbEntity
  8
0
 62
     0
370
    -2
100
AcDbLine
 10
2.440476190476193
 20
70.0
 30
0.0
 11
12.5
 21
70.0
 31
0.0
  0
MTEXT
  5
3D8
330
3D6
100
AcDbEntity
  8
0
 62
     0
100
AcDbMText
 10
6.220238095238097
 20
71.875
 30
0.0
 40
2.5
 41
0.0
 46
0.0
 71
     5
 72
     1
  1
\A1;%%c30
 73
     1
 44
1.0
  0
SOLID
  5
3D9
330
3D6
100
AcDbEntity
  8
0
 62
     0
100
AcDbTrace
 10
12.5
 20
69.58333333333333
 30
0.0
 11
12.5
 21
70.41666666666667
 31
0.0
 12
15.0
 22
70.0
 32
0.0
 13
15.0
 23
70.0
 33
0.0
  0
LINE
  5
3DA
330
3D6
100
AcDbEntity
  8
0
 62
     0
370
    -2
100
AcDbLine
 10
29.91
 20
70.0
 30
0.0
 11
30.09
 21
70.0
 31
0.0
  0
LINE
  5
3DB
330
3D6
100
AcDbEntity
  8
0
 62
     0
370
    -2
100
AcDbLine
 10
30.0
 20
69.91
 30
0.0
 11
30.0
 21
70.09
 31
0.0
  0
POINT
  5
3DC
330
3D6
100
AcDbEntity
  8
Defpoints
 62
     0
100
AcDbPoint
 10
15.0
 20
70.0
 30
0.0
  0
POINT
  5
3DD
330
3D6
100
AcDbEntity
  8
Defpoints
 62
     0
100
AcDbPoint
 10
45.00000000000001
 20
70.0
 30
0.0
  0
ENDBLK
  5
3DF
330
3D6
100
AcDbEntity
  8
0
100
AcDbBlockEnd
  0
BLOCK
  5
3E9
330
3E0
100
AcDbEntity
  8
0
100
AcDbBlockBegin
  2
*D53
 70
     1
 10
0.0
 20
0.0
 30
0.0
  3
*D53
  1

  0
LINE
  5
3E1
330
3E0
100
AcDbEntity
  8
0
 62
     0
370
    -2
100
AcDbLine
 10
45.01271647092172
 20
54.09009742330268
 30
0.0
 11
54.09009742330268
 21
54.09009742330268
 31
0.0
  0
LINE
  5
3E2
330
3E0
100
AcDbEntity
  8
0
 62
     0
370
    -2
100
AcDbLine
 10
57.62563132923542
 20
57.62563132923542
 30
0.0
 11
54.09009742330268
 21
54.09009742330268
 31
0.0
  0
MTEXT
  5
3E3
330
3E0
100
AcDbEntity
  8
0
 62
     0
100
AcDbMText
 10
49.2389069471122
 20
55.96509742330268
 30
0.0
 40
2.5
 41
0.0
 46
0.0
 71
     5
 72
     1
  1
\A1;⌀%%c30
 73
     1
 44
1.0
  0
SOLID
  5
3E4
330
3E0
100
AcDbEntity
  8
0
 62
     0
100
AcDbTrace
 10
57.92025915472981
 20
57.33100350374102
 30
0.0
 11
57.33100350374102
 21
57.92025915472981
 31
0.0
 12
59.39339828220179
 22
59.39339828220179
 32
0.0
 13
59.39339828220179
 23
59.39339828220179
 33
0.0
  0
LINE
  5
3E5
330
3E0
100
AcDbEntity
  8
0
 62
     0
370
    -2
100
AcDbLine
 10
69.91
 20
70.0
 30
0.0
 11
70.09
 21
70.0
 31
0.0
  0
LINE
  5
3E6
330
3E0
100
AcDbEntity
  8
0
 62
     0
370
    -2
100
AcDbLine
 10
70.0
 20
69.91
 30
0.0
 11
70.0
 21
70.09
 31
0.0
  0
POINT
  5
3E7
330
3E0
100
AcDbEntity
  8
Defpoints
 62
     0
100
AcDbPoint
 10
59.39339828220179
 20
59.39339828220179
 30
0.0
  0
POINT
  5
3E8
330
3E0
100
AcDbEntity
  8
Defpoints
 62
     0
100
AcDbPoint
 10
80.60660171779821
 20
80.60660171779823
 30
0.0
  0
ENDBLK
  5
3EA
330
3E0
100
AcDbEntity
  8
0
100
AcDbBlockEnd
  0
BLOCK
  5
3F4
330
3EB
100
AcDbEntity
  8
0
100
AcDbBlockBegin
  2
*D54
 70
     1
 10
0.0
 20
0.0
 30
0.0
  3
*D54
  1

  0
LINE
  5
3EC
330
3EB
100
AcDbEntity
  8
0
 62
     0
370
    -2
100
AcDbLine
 10
37.17261904761905
 20
50.0
 30
0.0
 11
30.0
 21
50.0
 31
0.0
  0
LINE
  5
3ED
330
3EB
100
AcDbEntity
  8
0
 62
     0
370
    -2
100
AcDbLine
 10
30.0
 20
47.5
 30
0.0
 11
30.0
 21
50.0
 31
0.0
  0
MTEXT
  5
3EE
330
3EB
100
AcDbEntity
  8
0
 62
     0
100
AcDbMText
 10
26.10119047619047
 20
51.875
 30
0.0
 40
2.5
 41
0.0
 46
0.0
 71
     5
 72
     1
  1
\A1;text
 73
     1
 44
1.0
  0
SOLID
  5
3EF
330
3EB
100
AcDbEntity
  8
0
 62
     0
100
AcDbTrace
 10
29.58333333333333
 20
47.5
 30
0.0
 11
30.41666666666667
 21
47.5
 31
0.0
 12
30.0
 22
45.0
 32
0.0
 13
30.0
 23
45.0
 33
0.0
  0
LINE
  5
3F0
330
3EB
100
AcDbEntity
  8
0
 62
     0
370
    -2
100
AcDbLine
 10
29.91
 20
30.0
 30
0.0
 11
30.09
 21
30.0
 31
0.0
  0
LINE
  5
3F1
330
3EB
100
AcDbEntity
  8
0
 62
     0
370
    -2
100
AcDbLine
 10
30.0
 20
29.91
 30
0.0
 11
30.0
 21
30.09
 31
0.0
  0
POINT
  5
3F2
330
3EB
100
AcDbEntity
  8
Defpoints
 62
     0
100
AcDbPoint
 10
30.0
 20
45.0
 30
0.0
  0
POINT
  5
3F3
330
3EB
100
AcDbEntity
  8
Defpoints
 62
     0
100
AcDbPoint
 10
30.0
 20
15.0
 30
0.0
  0
ENDBLK
  5
3F5
330
3EB
100
AcDbEntity
  8
0
100
AcDbBlockEnd
  0
BLOCK
  5
3FF
330
3F6
100
AcDbEntity
  8
0
100
AcDbBlockBegin
  2
*D55
 70
     1
 10
0.0
 20
0.0
 30
0.0
  3
*D55
  1

  0
LINE
  5
3F7
330
3F6
100
AcDbEntity
  8
0
 62
     0
370
    -2
100
AcDbLine
 10
103.5347823235096
 20
11.73307481934748
 30
0.0
 11
88.26692518065248
 21
11.73307481934748
 31
0.0
  0
LINE
  5
3F8
330
3F6
100
AcDbEntity
  8
0
 62
     0
370
    -2
100
AcDbLine
 10
82.37436867076458
 20
17.62563132923538
 30
0.0
 11
88.26692518065248
 21
11.73307481934748
 31
0.0
  0
MTEXT
  5
3F9
330
3F6
100
AcDbEntity
  8
0
 62
     0
100
AcDbMText
 10
96.21335375208105
 20
15.27474148601415
 30
0.0
 40
2.5
 41
0.0
 46
0.0
 71
     5
 72
     1
  1
\A1;\A1;%%c30\S0.01^ 0.02;
 73
     1
 44
1.0
  0
SOLID
  5
3FA
330
3F6
100
AcDbEntity
  8
0
 62
     0
100
AcDbTrace
 10
82.66899649625898
 20
17.92025915472978
 30
0.0
 11
82.07974084527018
 21
17.33100350374099
 31
0.0
 12
80.60660171779821
 22
19.39339828220175
 32
0.0
 13
80.60660171779821
 23
19.39339828220175
 33
0.0
  0
LINE
  5
3FB
330
3F6
100
AcDbEntity
  8
0
 62
     0
370
    -2
100
AcDbLine
 10
69.91
 20
29.99999999999998
 30
0.0
 11
70.09
 21
29.99999999999998
 31
0.0
  0
LINE
  5
3FC
330
3F6
100
AcDbEntity
  8
0
 62
     0
370
    -2
100
AcDbLine
 10
70.0
 20
29.90999999999998
 30
0.0
 11
70.0
 21
30.08999999999997
 31
0.0
  0
POINT
  5
3FD
330
3F6
100
AcDbEntity
  8
Defpoints
 62
     0
100
AcDbPoint
 10
80.60660171779821
 20
19.39339828220175
 30
0.0
  0
POINT
  5
3FE
330
3F6
100
AcDbEntity
  8
Defpoints
 62
     0
100
AcDbPoint
 10
59.39339828220179
 20
40.6066017177982
 30
0.0
  0
ENDBLK
  5
400
330
3F6
100
AcDbEntity
  8
0
100
AcDbBlockEnd
  0
BLOCK
  5
40B
330
401
100
AcDbEntity
  8
0
100
AcDbBlockBegin
  2
*D56
 70
     1
 10
0.0
 20
0.0
 30
0.0
  3
*D56
  1

  0
LINE
  5
402
330
401
100
AcDbEntity
  8
0
 62
     0
370
    -2
100
AcDbLine
 10
19.375
 20
10.0
 30
0.0
 11
8.750000000000005
 21
10.0
 31
0.0
  0
LINE
  5
403
330
401
100
AcDbEntity
  8
0
 62
     0
370
    -2
100
AcDbLine
 10
19.375
 20
90.0
 30
0.0
 11
8.75000000000001
 21
90.0
 31
0.0
  0
LINE
  5
404
330
401
100
AcDbEntity
  8
0
 62
     0
370
    -2
100
AcDbLine
 10
10.00000000000001
 20
12.5
 30
0.0
 11
10.00000000000001
 21
87.5
 31
0.0
  0
SOLID
  5
405
330
401
100
AcDbEntity
  8
0
 62
     0
100
AcDbTrace
 10
9.58333333333334
 20
12.5
 30
0.0
 11
10.41666666666667
 21
12.5
 31
0.0
 12
10.00000000000001
 22
10.0
 32
0.0
 13
10.00000000000001
 23
10.0
 33
0.0
  0
SOLID
  5
406
330
401
100
AcDbEntity
  8
0
 62
     0
100
AcDbTrace
 10
10.41666666666668
 20
87.5
 30
0.0
 11
9.583333333333345
 21
87.5
 31
0.0
 12
10.00000000000001
 22
90.0
 32
0.0
 13
10.00000000000001
 23
90.0
 33
0.0
  0
MTEXT
  5
407
330
401
100
AcDbEntity
  8
0
 62
     0
100
AcDbMText
 10
8.125000000000007
 20
50.0
 30
0.0
 40
2.5
 41
0.0
 46
0.0
 71
     5
 72
     1
  1
\A1;80
 11
6.661338147750939E-17
 21
1.0
 31
0.0
 73
     1
 44
1.0
  0
POINT
  5
408
330
401
100
AcDbEntity
  8
Defpoints
 62
     0
100
AcDbPoint
 10
20.0
 20
10.0
 30
0.0
  0
POINT
  5
409
330
401
100
AcDbEntity
  8
Defpoints
 62
     0
100
AcDbPoint
 10
20.0
 20
90.0
 30
0.0
  0
POINT
  5
40A
330
401
100
AcDbEntity
  8
Defpoints
 62
     0
100
AcDbPoint
 10
10.00000000000001
 20
90.0
 30
0.0
  0
ENDBLK
  5
40C
330
401
100
AcDbEntity
  8
0
100
AcDbBlockEnd
  0
BLOCK
  5
417
330
40D
100
AcDbEntity
  8
0
100
AcDbBlockBegin
  2
*D57
 70
     1
 10
0.0
 20
0.0
 30
0.0
  3
*D57
  1

  0
LINE
  5
40E
330
40D
100
AcDbEntity
  8
0
 62
     0
370
    -2
100
AcDbLine
 10
39.375
 20
10.0
 30
0.0
 11
28.75
 21
10.0
 31
0.0
  0
LINE
  5
40F
330
40D
100
AcDbEntity
  8
0
 62
     0
370
    -2
100
AcDbLine
 10
39.37500000000001
 20
80.0
 30
0.0
 11
28.75
 21
80.0
 31
0.0
  0
LINE
  5
410
330
40D
100
AcDbEntity
  8
0
 62
     0
370
    -2
100
AcDbLine
 10
30.0
 20
12.5
 30
0.0
 11
30.0
 21
77.5
 31
0.0
  0
SOLID
  5
411
330
40D
100
AcDbEntity
  8
0
 62
     0
100
AcDbTrace
 10
29.58333333333333
 20
12.5
 30
0.0
 11
30.41666666666666
 21
12.5
 31
0.0
 12
30.0
 22
10.0
 32
0.0
 13
30.0
 23
10.0
 33
0.0
  0
SOLID
  5
412
330
40D
100
AcDbEntity
  8
0
 62
     0
100
AcDbTrace
 10
30.41666666666667
 20
77.5
 30
0.0
 11
29.58333333333333
 21
77.5
 31
0.0
 12
30.0
 22
80.0
 32
0.0
 13
30.0
 23
80.0
 33
0.0
  0
MTEXT
  5
413
330
40D
100
AcDbEntity
  8
0
 62
     0
100
AcDbMText
 10
28.125
 20
45.0
 30
0.0
 40
2.5
 41
0.0
 46
0.0
 71
     5
 72
     1
  1
\A1;⌀70
 11
5.075305255429287E-17
 21
1.0
 31
0.0
 73
     1
 44
1.0
  0
POINT
  5
414
330
40D
100
AcDbEntity
  8
Defpoints
 62
     0
100
AcDbPoint
 10
40.0
 20
10.0
 30
0.0
  0
POINT
  5
415
330
40D
100
AcDbEntity
  8
Defpoints
 62
     0
100
AcDbPoint
 10
40.00000000000001
 20
80.0
 30
0.0
  0
POINT
  5
416
330
40D
100
AcDbEntity
  8
Defpoints
 62
     0
100
AcDbPoint
 10
30.0
 20
80.0
 30
0.0
  0
ENDBLK
  5
418
330
40D
100
AcDbEntity
  8
0
100
AcDbBlockEnd
  0
BLOCK
  5
423
330
419
100
AcDbEntity
  8
0
100
AcDbBlockBegin
  2
*D58
 70
     1
 10
0.0
 20
0.0
 30
0.0
  3
*D58
  1

  0
LINE
  5
41A
330
419
100
AcDbEntity
  8
0
 62
     0
370
    -2
100
AcDbLine
 10
59.375
 20
9.999999999999995
 30
0.0
 11
48.74999999999999
 21
10.0
 31
0.0
  0
LINE
  5
41B
330
419
100
AcDbEntity
  8
0
 62
     0
370
    -2
100
AcDbLine
 10
59.375
 20
70.00000000000001
 30
0.0
 11
48.75
 21
70.00000000000001
 31
0.0
  0
LINE
  5
41C
330
419
100
AcDbEntity
  8
0
 62
     0
370
    -2
100
AcDbLine
 10
49.99999999999999
 20
12.5
 30
0.0
 11
50.0
 21
67.50000000000001
 31
0.0
  0
SOLID
  5
41D
330
419
100
AcDbEntity
  8
0
 62
     0
100
AcDbTrace
 10
49.58333333333333
 20
12.5
 30
0.0
 11
50.41666666666666
 21
12.5
 31
0.0
 12
49.99999999999999
 22
10.0
 32
0.0
 13
49.99999999999999
 23
10.0
 33
0.0
  0
SOLID
  5
41E
330
419
100
AcDbEntity
  8
0
 62
     0
100
AcDbTrace
 10
50.41666666666666
 20
67.50000000000001
 30
0.0
 11
49.58333333333334
 21
67.50000000000001
 31
0.0
 12
50.0
 22
70.00000000000001
 32
0.0
 13
50.0
 23
70.00000000000001
 33
0.0
  0
MTEXT
  5
41F
330
419
100
AcDbEntity
  8
0
 62
     0
100
AcDbMText
 10
48.125
 20
40.00000000000001
 30
0.0
 40
2.5
 41
0.0
 46
0.0
 71
     5
 72
     1
  1
\A1;text
 11
1.184237892933500E-16
 21
1.0
 31
0.0
 73
     1
 44
1.0
  0
POINT
  5
420
330
419
100
AcDbEntity
  8
Defpoints
 62
     0
100
AcDbPoint
 10
60.0
 20
9.999999999999995
 30
0.0
  0
POINT
  5
421
330
419
100
AcDbEntity
  8
Defpoints
 62
     0
100
AcDbPoint
 10
60.0
 20
70.00000000000001
 30
0.0
  0
POINT
  5
422
330
419
100
AcDbEntity
  8
Defpoints
 62
     0
100
AcDbPoint
 10
50.0
 20
70.00000000000001
 30
0.0
  0
ENDBLK
  5
424
330
419
100
AcDbEntity
  8
0
100
AcDbBlockEnd
  0
BLOCK
  5
42F
330
425
100
AcDbEntity
  8
0
100
AcDbBlockBegin
  2
*D59
 70
     1
 10
0.0
 20
0.0
 30
0.0
  3
*D59
  1

  0
LINE
  5
426
330
425
100
AcDbEntity
  8
0
 62
     0
370
    -2
100
AcDbLine
 10
79.375
 20
9.999999999999941
 30
0.0
 11
68.75
 21
9.999999999999936
 31
0.0
  0
LINE
  5
427
330
425
100
AcDbEntity
  8
0
 62
     0
370
    -2
100
AcDbLine
 10
79.375
 20
59.99999999999999
 30
0.0
 11
68.75
 21
59.99999999999999
 31
0.0
  0
LINE
  5
428
330
425
100
AcDbEntity
  8
0
 62
     0
370
    -2
100
AcDbLine
 10
70.0
 20
12.49999999999994
 30
0.0
 11
70.0
 21
57.49999999999999
 31
0.0
  0
SOLID
  5
429
330
425
100
AcDbEntity
  8
0
 62
     0
100
AcDbTrace
 10
69.58333333333333
 20
12.49999999999994
 30
0.0
 11
70.41666666666667
 21
12.49999999999994
 31
0.0
 12
70.0
 22
9.999999999999936
 32
0.0
 13
70.0
 23
9.999999999999936
 33
0.0
  0
SOLID
  5
42A
330
425
100
AcDbEntity
  8
0
 62
     0
100
AcDbTrace
 10
70.41666666666667
 20
57.49999999999999
 30
0.0
 11
69.58333333333333
 21
57.49999999999999
 31
0.0
 12
70.0
 22
59.99999999999999
 32
0.0
 13
70.0
 23
59.99999999999999
 33
0.0
  0
MTEXT
  5
42B
330
425
100
AcDbEntity
  8
0
 62
     0
100
AcDbMText
 10
66.45833333333334
 20
34.99999999999996
 30
0.0
 40
2.5
 41
0.0
 46
0.0
 71
     5
 72
     1
  1
\A1;\A1;50\S0.01^ 0.02;
 11
0.0
 21
1.0
 31
0.0
 73
     1
 44
1.0
  0
POINT
  5
42C
330
425
100
AcDbEntity
  8
Defpoints
 62
     0
100
AcDbPoint
 10
80.0
 20
9.999999999999941
 30
0.0
  0
POINT
  5
42D
330
425
100
AcDbEntity
  8
Defpoints
 62
     0
100
AcDbPoint
 10
80.0
 20
59.99999999999999
 30
0.0
  0
POINT
  5
42E
330
425
100
AcDbEntity
  8
Defpoints
 62
     0
100
AcDbPoint
 10
70.0
 20
59.99999999999999
 30
0.0
  0
ENDBLK
  5
430
330
425
100
AcDbEntity
  8
0
100
AcDbBlockEnd
  0
BLOCK
  5
43B
330
432
100
AcDbEntity
  8
0
100
AcDbBlockBegin
  2
*D60
 70
     1
 10
0.0
 20
0.0
 30
0.0
  3
*D60
  1

  0
LINE
  5
433
330
432
100
AcDbEntity
  8
0
 62
     0
370
    -2
100
AcDbLine
 10
11.12662341803394
 20
81.81980515339464
 30
0.0
 11
18.18019484660537
 21
81.81980515339464
 31
0.0
  0
LINE
  5
434
330
432
100
AcDbEntity
  8
0
 62
     0
370
    -2
100
AcDbLine
 10
19.94796179957174
 20
80.05203820042827
 30
0.0
 11
18.18019484660537
 21
81.81980515339464
 31
0.0
  0
MTEXT
  5
435
330
432
100
AcDbEntity
  8
0
 62
     0
100
AcDbMText
 10
14.34090913231966
 20
83.69480515339464
 30
0.0
 40
2.5
 41
0.0
 46
0.0
 71
     5
 72
     1
  1
\A1;R40
 73
     1
 44
1.0
  0
SOLID
  5
436
330
432
100
AcDbEntity
  8
0
 62
     0
100
AcDbTrace
 10
19.65333397407734
 20
79.75741037493388
 30
0.0
 11
20.24258962506613
 21
80.34666602592266
 31
0.0
 12
21.71572875253811
 22
78.2842712474619
 32
0.0
 13
21.71572875253811
 23
78.2842712474619
 33
0.0
  0
LINE
  5
437
330
432
100
AcDbEntity
  8
0
 62
     0
370
    -2
100
AcDbLine
 10
49.91
 20
50.00000000000001
 30
0.0
 11
50.09
 21
50.00000000000001
 31
0.0
  0
LINE
  5
438
330
432
100
AcDbEntity
  8
0
 62
     0
370
    -2
100
AcDbLine
 10
50.0
 20
49.91
 30
0.0
 11
50.0
 21
50.09000000000001
 31
0.0
  0
POINT
  5
439
330
432
100
AcDbEntity
  8
Defpoints
 62
     0
100
AcDbPoint
 10
21.71572875253811
 20
78.2842712474619
 30
0.0
  0
POINT
  5
43A
330
432
100
AcDbEntity
  8
Defpoints
 62
     0
100
AcDbPoint
 10
50.0
 20
50.00000000000001
 30
0.0
  0
ENDBLK
  5
43C
330
432
100
AcDbEntity
  8
0
100
AcDbBlockEnd
  0
BLOCK
  5
446
330
43D
100
AcDbEntity
  8
0
100
AcDbBlockBegin
  2
*D61
 70
     1
 10
0.0
 20
0.0
 30
0.0
  3
*D61
  1

  0
LINE
  5
43E
330
43D
100
AcDbEntity
  8
0
 62
     0
370
    -2
100
AcDbLine
 10
35.62206715212442
 20
74.97918111420019
 30
0.0
 11
44.93754334260059
 21
74.97918111420019
 31
0.0
  0
LINE
  5
43F
330
43D
100
AcDbEntity
  8
0
 62
     0
370
    -2
100
AcDbLine
 10
49.68095983285316
 20
76.56031994428437
 30
0.0
 11
44.93754334260059
 21
74.97918111420019
 31
0.0
  0
MTEXT
  5
440
330
43D
100
AcDbEntity
  8
0
 62
     0
100
AcDbMText
 10
39.96730524736251
 20
76.85418111420019
 30
0.0
 40
2.5
 41
0.0
 46
0.0
 71
     5
 72
     1
  1
\A1;⌀R40
 73
     1
 44
1.0
  0
SOLID
  5
441
330
43D
100
AcDbEntity
  8
0
 62
     0
100
AcDbTrace
 10
49.81272140202685
 20
76.16503523676333
 30
0.0
 11
49.54919826367948
 21
76.95560465180542
 31
0.0
 12
52.05266807797945
 22
77.35088935932647
 32
0.0
 13
52.05266807797945
 23
77.35088935932647
 33
0.0
  0
LINE
  5
442
330
43D
100
AcDbEntity
  8
0
 62
     0
370
    -2
100
AcDbLine
 10
89.91
 20
90.00000000000001
 30
0.0
 11
90.09
 21
90.00000000000001
 31
0.0
  0
LINE
  5
443
330
43D
100
AcDbEntity
  8
0
 62
     0
370
    -2
100
AcDbLine
 10
90.0
 20
89.91000000000001
 30
0.0
 11
90.0
 21
90.09000000000002
 31
0.0
  0
POINT
  5
444
330
43D
100
AcDbEntity
  8
Defpoints
 62
     0
100
AcDbPoint
 10
52.05266807797945
 20
77.35088935932647
 30
0.0
  0
POINT
  5
445
330
43D
100
AcDbEntity
  8
Defpoints
 62
     0
100
AcDbPoint
 10
90.0
 20
90.00000000000001
 30
0.0
  0
ENDBLK
  5
447
330
43D
100
AcDbEntity
  8
0
100
AcDbBlockEnd
  0
BLOCK
  5
451
330
448
100
AcDbEntity
  8
0
100
AcDbBlockBegin
  2
*D62
 70
     1
 10
0.0
 20
0.0
 30
0.0
  3
*D62
  1

  0
LINE
  5
449
330
448
100
AcDbEntity
  8
0
 62
     0
370
    -2
100
AcDbLine
 10
73.46239412649976
 20
5.380573425026257
 30
0.0
 11
66.28977507888071
 21
5.380573425026257
 31
0.0
  0
LINE
  5
44A
330
448
100
AcDbEntity
  8
0
 62
     0
370
    -2
100
AcDbLine
 10
64.57506191268274
 20
10.07735516976034
 30
0.0
 11
66.28977507888071
 21
5.380573425026257
 31
0.0
  0
MTEXT
  5
44B
330
448
100
AcDbEntity
  8
0
 62
     0
100
AcDbMText
 10
70.18858460269024
 20
7.255573425026257
 30
0.0
 40
2.5
 41
0.0
 46
0.0
 71
     5
 72
     1
  1
\A1;text
 73
     1
 44
1.0
  0
SOLID
  5
44C
330
448
100
AcDbEntity
  8
0
 62
     0
100
AcDbTrace
 10
64.96646039141058
 20
10.22024793361017
 30
0.0
 11
64.1836634339549
 21
9.934462405910509
 31
0.0
 12
63.71770532958375
 22
12.42574604212738
 32
0.0
 13
63.71770532958375
 23
12.42574604212738
 33
0.0
  0
LINE
  5
44D
330
448
100
AcDbEntity
  8
0
 62
     0
370
    -2
100
AcDbLine
 10
49.91
 20
50.00000000000001
 30
0.0
 11
50.09
 21
50.00000000000001
 31
0.0
  0
LINE
  5
44E
330
448
100
AcDbEntity
  8
0
 62
     0
370
    -2
100
AcDbLine
 10
50.0
 20
49.91
 30
0.0
 11
50.0
 21
50.09000000000001
 31
0.0
  0
POINT
  5
44F
330
448
100
AcDbEntity
  8
Defpoints
 62
     0
100
AcDbPoint
 10
63.71770532958375
 20
12.42574604212738
 30
0.0
  0
POINT
  5
450
330
448
100
AcDbEntity
  8
Defpoints
 62
     0
100
AcDbPoint
 10
50.0
 20
50.00000000000001
 30
0.0
  0
ENDBLK
  5
452
330
448
100
AcDbEntity
  8
0
100
AcDbBlockEnd
  0
BLOCK
  5
45C
330
453
100
AcDbEntity
  8
0
100
AcDbBlockBegin
  2
*D63
 70
     1
 10
0.0
 20
0.0
 30
0.0
  3
*D63
  1

  0
LINE
  5
454
330
453
100
AcDbEntity
  8
0
 62
     0
370
    -2
100
AcDbLine
 10
44.75360781298463
 20
50.61934038030768
 30
0.0
 11
29.36670305107987
 21
50.61934038030768
 31
0.0
  0
LINE
  5
455
330
453
100
AcDbEntity
  8
0
 62
     0
370
    -2
100
AcDbLine
 10
28.29077510379765
 20
48.36271035917948
 30
0.0
 11
29.36670305107987
 21
50.61934038030768
 31
0.0
  0
MTEXT
  5
456
330
453
100
AcDbEntity
  8
0
 62
     0
100
AcDbMText
 10
37.37265543203225
 20
54.16100704697436
 30
0.0
 40
2.5
 41
0.0
 46
0.0
 71
     5
 72
     1
  1
\A1;\A1;R40\S0.01^ 0.02;
 73
     1
 44
1.0
  0
SOLID
  5
457
330
453
100
AcDbEntity
  8
0
 62
     0
100
AcDbTrace
 10
27.91467010027629
 20
48.54203168372651
 30
0.0
 11
28.66688010731902
 21
48.18338903463245
 31
0.0
 12
27.21484715651544
 22
46.10608033805128
 32
0.0
 13
27.21484715651544
 23
46.10608033805128
 33
0.0
  0
LINE
  5
458
330
453
100
AcDbEntity
  8
0
 62
     0
370
    -2
100
AcDbLine
 10
9.91
 20
10.0
 30
0.0
 11
10.09
 21
10.0
 31
0.0
  0
LINE
  5
459
330
453
100
AcDbEntity
  8
0
 62
     0
370
    -2
100
AcDbLine
 10
10.0
 20
9.91
 30
0.0
 11
10.0
 21
10.09
 31
0.0
  0
POINT
  5
45A
330
453
100
AcDbEntity
  8
Defpoints
 62
     0
100
AcDbPoint
 10
27.21484715651544
 20
46.10608033805128
 30
0.0
  0
POINT
  5
45B
330
453
100
AcDbEntity
  8
Defpoints
 62
     0
100
AcDbPoint
 10
10.0
 20
10.0
 30
0.0
  0
ENDBLK
  5
45D
330
453
100
AcDbEntity
  8
0
100
AcDbBlockEnd
  0
BLOCK
  5
469
330
45F
100
AcDbEntity
  8
0
100
AcDbBlockBegin
  2
*D64
 70
     1
 10
0.0
 20
0.0
 30
0.0
  3
*D64
  1

  0
ARC
  5
460
330
45F
100
AcDbEntity
  8
0
 62
     0
370
    -2
100
AcDbCircle
 10
20.00000000000001
 20
10.00000000000001
 30
0.0
 40
23.08079954206242
100
AcDbArc
 50
29.40762856405597
 51
91.9210643037482
  0
SOLID
  5
461
330
45F
100
AcDbEntity
  8
0
 62
     0
100
AcDbTrace
 10
39.73327658506374
 20
21.1484950550205
 30
0.0
 11
40.48032857076404
 21
21.51776159169245
 31
0.0
 12
41.21460218792975
 22
19.09197236625561
 32
0.0
 13
41.21460218792975
 23
19.09197236625561
 33
0.0
  0
SOLID
  5
462
330
45F
100
AcDbEntity
  8
0
 62
     0
100
AcDbTrace
 10
19.18977100374471
 20
33.48289205832932
 30
0.0
 11
19.26277146062005
 21
32.65276232284189
 31
0.0
 12
16.73588202572008
 22
32.84882581995959
 32
0.0
 13
16.73588202572008
 23
32.84882581995959
 33
0.0
  0
MTEXT
  5
463
330
45F
100
AcDbEntity
  8
0
 62
     0
100
AcDbMText
 10
32.22647062363794
 20
31.75558197044892
 30
0.0
 40
2.5
 41
0.0
 46
0.0
 71
     5
 72
     1
  1
text
 11
0.8717645745543189
 21
-0.4899250213574802
 31
0.0
 73
     1
 44
1.0
  0
POINT
  5
464
330
45F
100
AcDbEntity
  8
Defpoints
 62
     0
100
AcDbPoint
 10
35.3913800005498
 20
27.19967235674985
 30
0.0
  0
POINT
  5
465
330
45F
100
AcDbEntity
  8
Defpoints
 62
     0
100
AcDbPoint
 10
20.0
 20
10.0
 30
0.0
  0
POINT
  5
466
330
45F
100
AcDbEntity
  8
Defpoints
 62
     0
100
AcDbPoint
 10
10.00000000000001
 20
80.0
 30
0.0
  0
POINT
  5
467
330
45F
100
AcDbEntity
  8
Defpoints
 62
     0
100
AcDbPoint
 10
20.0
 20
10.0
 30
0.0
  0
POINT
  5
468
330
45F
100
AcDbEntity
  8
Defpoints
 62
     0
100
AcDbPoint
 10
90.0
 20
39.99999999999999
 30
0.0
  0
ENDBLK
  5
46A
330
45F
100
AcDbEntity
  8
0
100
AcDbBlockEnd
  0
BLOCK
  5
475
330
46B
100
AcDbEntity
  8
0
100
AcDbBlockBegin
  2
*D65
 70
     1
 10
0.0
 20
0.0
 30
0.0
  3
*D65
  1

  0
ARC
  5
46C
330
46B
100
AcDbEntity
  8
0
 62
     0
370
    -2
100
AcDbCircle
 10
89.99999999999999
 20
40.0
 30
0.0
 40
17.37666820236524
100
AcDbArc
 50
98.25033159741938
 51
194.9482589162288
  0
SOLID
  5
46D
330
46B
100
AcDbEntity
  8
0
 62
     0
100
AcDbTrace
 10
87.53644993346582
 20
56.78124215255666
 30
0.0
 11
87.47650365063787
 21
57.61241655520604
 31
0.0
 12
89.99999999999999
 22
57.37666820236524
 32
0.0
 13
89.99999999999999
 23
57.37666820236524
 33
0.0
  0
SOLID
  5
46E
330
46B
100
AcDbEntity
  8
0
 62
     0
100
AcDbTrace
 10
72.81758094476677
 20
35.38158835207402
 30
0.0
 11
73.60516476372419
 21
35.65390466183324
 31
0.0
 12
74.02832178352315
 22
33.15499505008135
 32
0.0
 13
74.02832178352315
 23
33.15499505008135
 33
0.0
  0
MTEXT
  5
46F
330
46B
100
AcDbEntity
  8
0
 62
     0
100
AcDbMText
 10
72.53651447013155
 20
51.51535526334432
 30
0.0
 40
2.5
 41
0.0
 46
0.0
 71
     5
 72
     1
  1
\A1;\A1;113%%d\S0.01^ 0.02;
 11
0.5504910087462066
 21
0.8348410922382679
 31
0.0
 73
     1
 44
1.0
  0
POINT
  5
470
330
46B
100
AcDbEntity
  8
Defpoints
 62
     0
100
AcDbPoint
 10
79.36581327116616
 20
53.74273154912756
 30
0.0
  0
POINT
  5
471
330
46B
100
AcDbEntity
  8
Defpoints
 62
     0
100
AcDbPoint
 10
89.99999999999999
 20
39.37500000000001
 30
0.0
  0
POINT
  5
472
330
46B
100
AcDbEntity
  8
Defpoints
 62
     0
100
AcDbPoint
 10
42.36353347545233
 20
19.58437148947957
 30
0.0
  0
POINT
  5
473
330
46B
100
AcDbEntity
  8
Defpoints
 62
     0
100
AcDbPoint
 10
90.57446564376129
 20
40.24619956161199
 30
0.0
  0
POINT
  5
474
330
46B
100
AcDbEntity
  8
Defpoints
 62
     0
100
AcDbPoint
 10
89.99999999999999
 20
71.31330052888579
 30
0.0
  0
ENDBLK
  5
476
330
46B
100
AcDbEntity
  8
0
100
AcDbBlockEnd
  0
BLOCK
  5
481
330
477
100
AcDbEntity
  8
0
100
AcDbBlockBegin
  2
*D66
 70
     1
 10
0.0
 20
0.0
 30
0.0
  3
*D66
  1

  0
ARC
  5
478
330
477
100
AcDbEntity
  8
0
 62
     0
370
    -2
100
AcDbCircle
 10
10.00000000000001
 20
80.0
 30
0.0
 40
20.08566688302762
100
AcDbArc
 50
285.2661398182649
 51
359.988978884793
  0
SOLID
  5
479
330
477
100
AcDbEntity
  8
0
 62
     0
100
AcDbTrace
 10
15.20413457549095
 20
61.03110447277751
 30
0.0
 11
15.37309722829652
 21
60.2150799226558
 31
0.0
 12
12.84054225152859
 22
60.11620423929995
 32
0.0
 13
12.84054225152859
 23
60.11620423929995
 33
0.0
  0
SOLID
  5
47A
330
477
100
AcDbEntity
  8
0
 62
     0
100
AcDbTrace
 10
30.50153050047989
 20
80.02198703070182
 30
0.0
 11
29.6698025223987
 21
79.97028582257828
 31
0.0
 12
29.93056288706869
 22
82.49132036088359
 32
0.0
 13
29.93056288706869
 23
82.49132036088359
 33
0.0
  0
MTEXT
  5
47B
330
477
100
AcDbEntity
  8
0
 62
     0
100
AcDbMText
 10
24.42483460057982
 20
68.98237132497556
 30
0.0
 40
2.5
 41
0.0
 46
0.0
 71
     5
 72
     1
  1
\A1;89%%d
 11
0.606993654912426
 21
0.7947066772690756
 31
0.0
 73
     1
 44
1.0
  0
POINT
  5
47C
330
477
100
AcDbEntity
  8
Defpoints
 62
     0
100
AcDbPoint
 10
22.30928228746414
 20
64.12815121973895
 30
0.0
  0
POINT
  5
47D
330
477
100
AcDbEntity
  8
Defpoints
 62
     0
100
AcDbPoint
 10
10.00000000000001
 20
80.0
 30
0.0
  0
POINT
  5
47E
330
477
100
AcDbEntity
  8
Defpoints
 62
     0
100
AcDbPoint
 10
90.0
 20
90.00000000000001
 30
0.0
  0
POINT
  5
47F
330
477
100
AcDbEntity
  8
Defpoints
 62
     0
100
AcDbPoint
 10
10.00000000000001
 20
80.0
 30
0.0
  0
POINT
  5
480
330
477
100
AcDbEntity
  8
Defpoints
 62
     0
100
AcDbPoint
 10
20.0
 20
10.0
 30
0.0
  0
ENDBLK
  5
482
330
477
100
AcDbEntity
  8
0
100
AcDbBlockEnd
  0
BLOCK
  5
48D
330
483
100
AcDbEntity
  8
0
100
AcDbBlockBegin
  2
*D67
 70
     1
 10
0.0
 20
0.0
 30
0.0
  3
*D67
  1

  0
ARC
  5
484
330
483
100
AcDbEntity
  8
0
 62
     0
370
    -2
100
AcDbCircle
 10
90.0
 20
89.99999999999993
 30
0.0
 40
17.43669947111418
100
AcDbArc
 50
195.3468946830646
 51
261.7781216658371
  0
SOLID
  5
485
330
483
100
AcDbEntity
  8
0
 62
     0
100
AcDbTrace
 10
73.59375407763346
 20
85.4663483889277
 30
0.0
 11
72.77639318433131
 21
85.3039734692364
 31
0.0
 12
72.69794887190848
 22
87.8372436089885
 32
0.0
 13
72.69794887190848
 23
87.8372436089885
 33
0.0
  0
SOLID
  5
486
330
483
100
AcDbEntity
  8
0
 62
     0
100
AcDbTrace
 10
87.47656226511324
 20
72.32692559523002
 30
0.0
 11
87.53630216419177
 21
73.15811485701252
 31
0.0
 12
90.0
 22
72.56330052888575
 32
0.0
 13
90.0
 23
72.56330052888575
 33
0.0
  0
MTEXT
  5
487
330
483
100
AcDbEntity
  8
0
 62
     0
100
AcDbMText
 10
79.74062041142878
 20
78.37835722884175
 30
0.0
 40
2.5
 41
0.0
 46
0.0
 71
     5
 72
     1
  1
⌀\A1;83%%d
 11
0.7496781758158654
 21
-0.6618025632357406
 31
0.0
 73
     1
 44
1.0
  0
POINT
  5
488
330
483
100
AcDbEntity
  8
Defpoints
 62
     0
100
AcDbPoint
 10
75.67319116239251
 20
80.06113502573822
 30
0.0
  0
POINT
  5
489
330
483
100
AcDbEntity
  8
Defpoints
 62
     0
100
AcDbPoint
 10
90.0
 20
90.00000000000001
 30
0.0
  0
POINT
  5
48A
330
483
100
AcDbEntity
  8
Defpoints
 62
     0
100
AcDbPoint
 10
31.17091023296076
 20
82.64636377912008
 30
0.0
  0
POINT
  5
48B
330
483
100
AcDbEntity
  8
Defpoints
 62
     0
100
AcDbPoint
 10
90.62017367294604
 20
90.07752170911819
 30
0.0
  0
POINT
  5
48C
330
483
100
AcDbEntity
  8
Defpoints
 62
     0
100
AcDbPoint
 10
90.0
 20
39.99999999999999
 30
0.0
  0
ENDBLK
  5
48E
330
483
100
AcDbEntity
  8
0
100
AcDbBlockEnd
  0
BLOCK
  5
499
330
48F
100
AcDbEntity
  8
0
100
AcDbBlockBegin
  2
*D68
 70
     1
 10
0.0
 20
0.0
 30
0.0
  3
*D68
  1

  0
LINE
  5
490
330
48F
100
AcDbEntity
  8
0
 62
     0
370
    -2
100
AcDbLine
 10
10.00000000000001
 20
80.625
 30
0.0
 11
10.00000000000001
 21
91.25000000000001
 31
0.0
  0
LINE
  5
491
330
48F
100
AcDbEntity
  8
0
 62
     0
370
    -2
100
AcDbLine
 10
90.0
 20
80.62499999999999
 30
0.0
 11
90.0
 21
91.25000000000001
 31
0.0
  0
LINE
  5
492
330
48F
100
AcDbEntity
  8
0
 62
     0
370
    -2
100
AcDbLine
 10
12.50000000000001
 20
90.00000000000001
 30
0.0
 11
87.5
 21
90.00000000000001
 31
0.0
  0
SOLID
  5
493
330
48F
100
AcDbEntity
  8
0
 62
     0
100
AcDbTrace
 10
12.50000000000001
 20
90.41666666666669
 30
0.0
 11
12.50000000000001
 21
89.58333333333334
 31
0.0
 12
10.00000000000001
 22
90.00000000000001
 32
0.0
 13
10.00000000000001
 23
90.00000000000001
 33
0.0
  0
SOLID
  5
494
330
48F
100
AcDbEntity
  8
0
 62
     0
100
AcDbTrace
 10
87.5
 20
89.58333333333334
 30
0.0
 11
87.5
 21
90.41666666666669
 31
0.0
 12
90.0
 22
90.00000000000001
 32
0.0
 13
90.0
 23
90.00000000000001
 33
0.0
  0
MTEXT
  5
495
330
48F
100
AcDbEntity
  8
0
 62
     0
100
AcDbMText
 10
50.00000000000001
 20
91.87500000000001
 30
0.0
 40
2.5
 41
0.0
 46
0.0
 71
     5
 72
     1
  1
\A1;80
 73
     1
 44
1.0
  0
POINT
  5
496
330
48F
100
AcDbEntity
  8
Defpoints
 62
     0
100
AcDbPoint
 10
10.00000000000001
 20
80.0
 30
0.0
  0
POINT
  5
497
330
48F
100
AcDbEntity
  8
Defpoints
 62
     0
100
AcDbPoint
 10
90.0
 20
79.99999999999999
 30
0.0
  0
POINT
  5
498
330
48F
100
AcDbEntity
  8
Defpoints
 62
     0
100
AcDbPoint
 10
90.0
 20
90.00000000000001
 30
0.0
  0
ENDBLK
  5
49A
330
48F
100
AcDbEntity
  8
0
100
AcDbBlockEnd
  0
BLOCK
  5
4A5
330
49B
100
AcDbEntity
  8
0
100
AcDbBlockBegin
  2
*D69
 70
     1
 10
0.0
 20
0.0
 30
0.0
  3
*D69
  1

  0
LINE
  5
49C
330
49B
100
AcDbEntity
  8
0
 62
     0
370
    -2
100
AcDbLine
 10
9.999999999999995
 20
60.625
 30
0.0
 11
10.0
 21
71.25
 31
0.0
  0
LINE
  5
49D
330
49B
100
AcDbEntity
  8
0
 62
     0
370
    -2
100
AcDbLine
 10
80.0
 20
60.62499999999999
 30
0.0
 11
80.0
 21
71.25
 31
0.0
  0
LINE
  5
49E
330
49B
100
AcDbEntity
  8
0
 62
     0
370
    -2
100
AcDbLine
 10
12.5
 20
70.0
 30
0.0
 11
77.5
 21
70.0
 31
0.0
  0
SOLID
  5
49F
330
49B
100
AcDbEntity
  8
0
 62
     0
100
AcDbTrace
 10
12.5
 20
70.41666666666667
 30
0.0
 11
12.5
 21
69.58333333333333
 31
0.0
 12
10.0
 22
70.0
 32
0.0
 13
10.0
 23
70.0
 33
0.0
  0
SOLID
  5
4A0
330
49B
100
AcDbEntity
  8
0
 62
     0
100
AcDbTrace
 10
77.5
 20
69.58333333333333
 30
0.0
 11
77.5
 21
70.41666666666667
 31
0.0
 12
80.0
 22
70.0
 32
0.0
 13
80.0
 23
70.0
 33
0.0
  0
MTEXT
  5
4A1
330
49B
100
AcDbEntity
  8
0
 62
     0
100
AcDbMText
 10
45.0
 20
71.875
 30
0.0
 40
2.5
 41
0.0
 46
0.0
 71
     5
 72
     1
  1
\A1;⌀70
 73
     1
 44
1.0
  0
POINT
  5
4A2
330
49B
100
AcDbEntity
  8
Defpoints
 62
     0
100
AcDbPoint
 10
9.999999999999995
 20
60.0
 30
0.0
  0
POINT
  5
4A3
330
49B
100
AcDbEntity
  8
Defpoints
 62
     0
100
AcDbPoint
 10
80.0
 20
59.99999999999999
 30
0.0
  0
POINT
  5
4A4
330
49B
100
AcDbEntity
  8
Defpoints
 62
     0
100
AcDbPoint
 10
80.0
 20
70.0
 30
0.0
  0
ENDBLK
  5
4A6
330
49B
100
AcDbEntity
  8
0
100
AcDbBlockEnd
  0
BLOCK
  5
4B1
330
4A7
100
AcDbEntity
  8
0
100
AcDbBlockBegin
  2
*D70
 70
     1
 10
0.0
 20
0.0
 30
0.0
  3
*D70
  1

  0
LINE
  5
4A8
330
4A7
100
AcDbEntity
  8
0
 62
     0
370
    -2
100
AcDbLine
 10
9.999999999999996
 20
40.625
 30
0.0
 11
10.0
 21
51.25000000000001
 31
0.0
  0
LINE
  5
4A9
330
4A7
100
AcDbEntity
  8
0
 62
     0
370
    -2
100
AcDbLine
 10
70.0
 20
40.62499999999998
 30
0.0
 11
70.0
 21
51.25000000000001
 31
0.0
  0
LINE
  5
4AA
330
4A7
100
AcDbEntity
  8
0
 62
     0
370
    -2
100
AcDbLine
 10
12.5
 20
50.00000000000001
 30
0.0
 11
67.5
 21
50.00000000000001
 31
0.0
  0
SOLID
  5
4AB
330
4A7
100
AcDbEntity
  8
0
 62
     0
100
AcDbTrace
 10
12.5
 20
50.41666666666667
 30
0.0
 11
12.5
 21
49.58333333333334
 31
0.0
 12
10.0
 22
50.00000000000001
 32
0.0
 13
10.0
 23
50.00000000000001
 33
0.0
  0
SOLID
  5
4AC
330
4A7
100
AcDbEntity
  8
0
 62
     0
100
AcDbTrace
 10
67.5
 20
49.58333333333334
 30
0.0
 11
67.5
 21
50.41666666666667
 31
0.0
 12
70.0
 22
50.00000000000001
 32
0.0
 13
70.0
 23
50.00000000000001
 33
0.0
  0
MTEXT
  5
4AD
330
4A7
100
AcDbEntity
  8
0
 62
     0
100
AcDbMText
 10
40.0
 20
51.87500000000001
 30
0.0
 40
2.5
 41
0.0
 46
0.0
 71
     5
 72
     1
  1
\A1;text
 73
     1
 44
1.0
  0
POINT
  5
4AE
330
4A7
100
AcDbEntity
  8
Defpoints
 62
     0
100
AcDbPoint
 10
9.999999999999996
 20
40.0
 30
0.0
  0
POINT
  5
4AF
330
4A7
100
AcDbEntity
  8
Defpoints
 62
     0
100
AcDbPoint
 10
70.0
 20
39.99999999999998
 30
0.0
  0
POINT
  5
4B0
330
4A7
100
AcDbEntity
  8
Defpoints
 62
     0
100
AcDbPoint
 10
70.0
 20
50.00000000000001
 30
0.0
  0
ENDBLK
  5
4B2
330
4A7
100
AcDbEntity
  8
0
100
AcDbBlockEnd
  0
BLOCK
  5
4BD
330
4B3
100
AcDbEntity
  8
0
100
AcDbBlockBegin
  2
*D71
 70
     1
 10
0.0
 20
0.0
 30
0.0
  3
*D71
  1

  0
LINE
  5
4B4
330
4B3
100
AcDbEntity
  8
0
 62
     0
370
    -2
100
AcDbLine
 10
10.0
 20
20.625
 30
0.0
 11
10.0
 21
31.24999999999999
 31
0.0
  0
LINE
  5
4B5
330
4B3
100
AcDbEntity
  8
0
 62
     0
370
    -2
100
AcDbLine
 10
60.0
 20
20.62500000000001
 30
0.0
 11
60.0
 21
31.24999999999999
 31
0.0
  0
LINE
  5
4B6
330
4B3
100
AcDbEntity
  8
0
 62
     0
370
    -2
100
AcDbLine
 10
12.5
 20
29.99999999999999
 30
0.0
 11
57.5
 21
29.99999999999999
 31
0.0
  0
SOLID
  5
4B7
330
4B3
100
AcDbEntity
  8
0
 62
     0
100
AcDbTrace
 10
12.5
 20
30.41666666666666
 30
0.0
 11
12.5
 21
29.58333333333332
 31
0.0
 12
10.0
 22
29.99999999999999
 32
0.0
 13
10.0
 23
29.99999999999999
 33
0.0
  0
SOLID
  5
4B8
330
4B3
100
AcDbEntity
  8
0
 62
     0
100
AcDbTrace
 10
57.5
 20
29.58333333333332
 30
0.0
 11
57.5
 21
30.41666666666666
 31
0.0
 12
60.0
 22
29.99999999999999
 32
0.0
 13
60.0
 23
29.99999999999999
 33
0.0
  0
MTEXT
  5
4B9
330
4B3
100
AcDbEntity
  8
0
 62
     0
100
AcDbMText
 10
35.0
 20
33.54166666666666
 30
0.0
 40
2.5
 41
0.0
 46
0.0
 71
     5
 72
     1
  1
\A1;\A1;50\S0.01^ 0.02;
 73
     1
 44
1.0
  0
POINT
  5
4BA
330
4B3
100
AcDbEntity
  8
Defpoints
 62
     0
100
AcDbPoint
 10
10.0
 20
20.0
 30
0.0
  0
POINT
  5
4BB
330
4B3
100
AcDbEntity
  8
Defpoints
 62
     0
100
AcDbPoint
 10
60.0
 20
20.00000000000001
 30
0.0
  0
POINT
  5
4BC
330
4B3
100
AcDbEntity
  8
Defpoints
 62
     0
100
AcDbPoint
 10
60.0
 20
29.99999999999999
 30
0.0
  0
ENDBLK
  5
4BE
330
4B3
100
AcDbEntity
  8
0
100
AcDbBlockEnd
  0
BLOCK
  5
4C7
330
4BF
100
AcDbEntity
  8
0
100
AcDbBlockBegin
  2
*D72
 70
     1
 10
0.0
 20
0.0
 30
0.0
  3
*D72
  1

  0
LINE
  5
4C0
330
4BF
100
AcDbEntity
  8
0
 62
     0
370
    -2
100
AcDbLine
 10
57.67857142857144
 20
70.0
 30
0.0
 11
47.50000000000001
 21
70.0
 31
0.0
  0
MTEXT
  5
4C1
330
4BF
100
AcDbEntity
  8
0
 62
     0
100
AcDbMText
 10
53.83928571428572
 20
71.875
 30
0.0
 40
2.5
 41
0.0
 46
0.0
 71
     5
 72
     1
  1
\A1;R15
 73
     1
 44
1.0
  0
SOLID
  5
4C2
330
4BF
100
AcDbEntity
  8
0
 62
     0
100
AcDbTrace
 10
47.50000000000001
 20
70.41666666666667
 30
0.0
 11
47.50000000000001
 21
69.58333333333333
 31
0.0
 12
45.00000000000001
 22
70.0
 32
0.0
 13
45.00000000000001
 23
70.0
 33
0.0
  0
LINE
  5
4C3
330
4BF
100
AcDbEntity
  8
0
 62
     0
370
    -2
100
AcDbLine
 10
29.91
 20
70.0
 30
0.0
 11
30.09
 21
70.0
 31
0.0
  0
LINE
  5
4C4
330
4BF
100
AcDbEntity
  8
0
 62
     0
370
    -2
100
AcDbLine
 10
30.0
 20
69.91
 30
0.0
 11
30.0
 21
70.09
 31
0.0
  0
POINT
  5
4C5
330
4BF
100
AcDbEntity
  8
Defpoints
 62
     0
100
AcDbPoint
 10
45.00000000000001
 20
70.0
 30
0.0
  0
POINT
  5
4C6
330
4BF
100
AcDbEntity
  8
Defpoints
 62
     0
100
AcDbPoint
 10
30.0
 20
70.0
 30
0.0
  0
ENDBLK
  5
4C8
330
4BF
100
AcDbEntity
  8
0
100
AcDbBlockEnd
  0
BLOCK
  5
4D2
330
4C9
100
AcDbEntity
  8
0
100
AcDbBlockBegin
  2
*D73
 70
     1
 10
0.0
 20
0.0
 30
0.0
  3
*D73
  1

  0
LINE
  5
4CA
330
4C9
100
AcDbEntity
  8
0
 62
     0
370
    -2
100
AcDbLine
 10
96.35217557565356
 20
80.47620513636004
 30
0.0
 11
87.03669938517739
 21
80.47620513636004
 31
0.0
  0
LINE
  5
4CB
330
4C9
100
AcDbEntity
  8
0
 62
     0
370
    -2
100
AcDbLine
 10
84.90711196203021
 20
79.16667949431503
 30
0.0
 11
87.03669938517739
 21
80.47620513636004
 31
0.0
  0
MTEXT
  5
4CC
330
4C9
100
AcDbEntity
  8
0
 62
     0
100
AcDbMText
 10
92.00693748041547
 20
82.35120513636004
 30
0.0
 40
2.5
 41
0.0
 46
0.0
 71
     5
 72
     1
  1
\A1;⌀R15
 73
     1
 44
1.0
  0
SOLID
  5
4CD
330
4C9
100
AcDbEntity
  8
0
 62
     0
100
AcDbTrace
 10
84.68885768835605
 20
79.52161073150623
 30
0.0
 11
85.12536623570438
 21
78.81174825712384
 31
0.0
 12
82.77752453888304
 22
77.85715385227003
 32
0.0
 13
82.77752453888304
 23
77.85715385227003
 33
0.0
  0
LINE
  5
4CE
330
4C9
100
AcDbEntity
  8
0
 62
     0
370
    -2
100
AcDbLine
 10
69.91
 20
70.00000000000001
 30
0.0
 11
70.09
 21
70.00000000000001
 31
0.0
  0
LINE
  5
4CF
330
4C9
100
AcDbEntity
  8
0
 62
     0
370
    -2
100
AcDbLine
 10
70.0
 20
69.91000000000001
 30
0.0
 11
70.0
 21
70.09000000000002
 31
0.0
  0
POINT
  5
4D0
330
4C9
100
AcDbEntity
  8
Defpoints
 62
     0
100
AcDbPoint
 10
82.77752453888304
 20
77.85715385227003
 30
0.0
  0
POINT
  5
4D1
330
4C9
100
AcDbEntity
  8
Defpoints
 62
     0
100
AcDbPoint
 10
70.0
 20
70.00000000000001
 30
0.0
  0
ENDBLK
  5
4D3
330
4C9
100
AcDbEntity
  8
0
100
AcDbBlockEnd
  0
BLOCK
  5
4DD
330
4D4
100
AcDbEntity
  8
0
100
AcDbBlockBegin
  2
*D74
 70
     1
 10
0.0
 20
0.0
 30
0.0
  3
*D74
  1

  0
LINE
  5
4D5
330
4D4
100
AcDbEntity
  8
0
 62
     0
370
    -2
100
AcDbLine
 10
3.832392028777162
 20
17.94013284516909
 30
0.0
 11
11.00501107639621
 21
17.94013284516909
 31
0.0
  0
LINE
  5
4D6
330
4D4
100
AcDbEntity
  8
0
 62
     0
370
    -2
100
AcDbLine
 10
15.22611972608594
 20
20.6201033240204
 30
0.0
 11
11.00501107639621
 21
17.94013284516909
 31
0.0
  0
MTEXT
  5
4D7
330
4D4
100
AcDbEntity
  8
0
 62
     0
100
AcDbMText
 10
7.106201552586688
 20
19.81513284516909
 30
0.0
 40
2.5
 41
0.0
 46
0.0
 71
     5
 72
     1
  1
\A1;text
 73
     1
 44
1.0
  0
SOLID
  5
4D8
330
4D4
100
AcDbEntity
  8
0
 62
     0
100
AcDbTrace
 10
15.44945059932355
 20
20.26834426987959
 30
0.0
 11
15.00278885284833
 21
20.97186237816121
 31
0.0
 12
17.33667405093081
 22
21.96008856344606
 32
0.0
 13
17.33667405093081
 23
21.96008856344606
 33
0.0
  0
LINE
  5
4D9
330
4D4
100
AcDbEntity
  8
0
 62
     0
370
    -2
100
AcDbLine
 10
29.91
 20
30.0
 30
0.0
 11
30.09
 21
30.0
 31
0.0
  0
LINE
  5
4DA
330
4D4
100
AcDbEntity
  8
0
 62
     0
370
    -2
100
AcDbLine
 10
30.0
 20
29.91
 30
0.0
 11
30.0
 21
30.09
 31
0.0
  0
POINT
  5
4DB
330
4D4
100
AcDbEntity
  8
Defpoints
 62
     0
100
AcDbPoint
 10
17.33667405093081
 20
21.96008856344606
 30
0.0
  0
POINT
  5
4DC
330
4D4
100
AcDbEntity
  8
Defpoints
 62
     0
100
AcDbPoint
 10
30.0
 20
30.0
 30
0.0
  0
ENDBLK
  5
4DE
330
4D4
100
AcDbEntity
  8
0
100
AcDbBlockEnd
  0
BLOCK
  5
4E8
330
4DF
100
AcDbEntity
  8
0
100
AcDbBlockBegin
  2
*D75
 70
     1
 10
0.0
 20
0.0
 30
0.0
  3
*D75
  1

  0
LINE
  5
4E0
330
4DF
100
AcDbEntity
  8
0
 62
     0
370
    -2
100
AcDbLine
 10
85.38690476190476
 20
50.00000000000001
 30
0.0
 11
70.0
 21
50.00000000000001
 31
0.0
  0
LINE
  5
4E1
330
4DF
100
AcDbEntity
  8
0
 62
     0
370
    -2
100
AcDbLine
 10
70.0
 20
47.50000000000001
 30
0.0
 11
70.0
 21
50.00000000000001
 31
0.0
  0
MTEXT
  5
4E2
330
4DF
100
AcDbEntity
  8
0
 62
     0
100
AcDbMText
 10
61.99404761904762
 20
53.54166666666667
 30
0.0
 40
2.5
 41
0.0
 46
0.0
 71
     5
 72
     1
  1
\A1;\A1;R15\S0.01^ 0.02;
 73
     1
 44
1.0
  0
SOLID
  5
4E3
330
4DF
100
AcDbEntity
  8
0
 62
     0
100
AcDbTrace
 10
69.58333333333333
 20
47.50000000000001
 30
0.0
 11
70.41666666666667
 21
47.50000000000001
 31
0.0
 12
70.0
 22
45.00000000000001
 32
0.0
 13
70.0
 23
45.00000000000001
 33
0.0
  0
LINE
  5
4E4
330
4DF
100
AcDbEntity
  8
0
 62
     0
370
    -2
100
AcDbLine
 10
69.91
 20
30.00000000000002
 30
0.0
 11
70.09
 21
30.00000000000002
 31
0.0
  0
LINE
  5
4E5
330
4DF
100
AcDbEntity
  8
0
 62
     0
370
    -2
100
AcDbLine
 10
70.0
 20
29.91000000000002
 30
0.0
 11
70.0
 21
30.09000000000002
 31
0.0
  0
POINT
  5
4E6
330
4DF
100
AcDbEntity
  8
Defpoints
 62
     0
100
AcDbPoint
 10
70.0
 20
45.00000000000001
 30
0.0
  0
POINT
  5
4E7
330
4DF
100
AcDbEntity
  8
Defpoints
 62
     0
100
AcDbPoint
 10
70.0
 20
30.00000000000002
 30
0.0
  0
ENDBLK
  5
4E9
330
4DF
100
AcDbEntity
  8
0
100
AcDbBlockEnd
  0
ENDSEC
  0
SECTION
  2
ENTITIES
  0
LINE
  5
1B8
330
24A
100
AcDbEntity
  8
boxes
100
AcDbLine
 10
465.0
 20
475.0
 30
0.0
 11
585.0
 21
475.0
 31
0.0
  0
MTEXT
  5
1B9
330
24A
100
AcDbEntity
  8
boxes
100
AcDbMText
 10
470.0
 20
490.0
 30
0.0
 40
8.0
 41
0.0
 46
0.0
 71
     1
 72
     1
  1
dim rotated
  7
textstyle3
 73
     1
 44
1.0
  0
INSERT
  5
1BA
330
24A
100
AcDbEntity
  8
entities
100
AcDbBlockReference
  2
dim_rotated
 10
476.1856407514316
 20
364.1349561817584
 30
0.0
  0
LWPOLYLINE
  5
1BB
330
24A
100
AcDbEntity
  8
boxes
100
AcDbPolyline
 90
        4
 70
     1
 43
0.0
 10
615.0
 20
355.0
 10
735.0
 20
355.0
 10
735.0
 20
495.0
 10
615.0
 20
495.0
  0
LINE
  5
1BC
330
24A
100
AcDbEntity
  8
boxes
100
AcDbLine
 10
615.0
 20
475.0
 30
0.0
 11
735.0
 21
475.0
 31
0.0
  0
MTEXT
  5
1BD
330
24A
100
AcDbEntity
  8
boxes
100
AcDbMText
 10
620.0
 20
490.0
 30
0.0
 40
8.0
 41
0.0
 46
0.0
 71
     1
 72
     1
  1
dim vertical
  7
textstyle4
 73
     1
 44
1.0
  0
INSERT
  5
1BE
330
24A
100
AcDbEntity
  8
entities
100
AcDbBlockReference
  2
dim_vertical
 10
631.875
 20
365.0
 30
0.0
  0
LWPOLYLINE
  5
1BF
330
24A
100
AcDbEntity
  8
boxes
100
AcDbPolyline
 90
        4
 70
     1
 43
0.0
 10
15.0
 20
525.0
 10
135.0
 20
525.0
 10
135.0
 20
665.0
 10
15.0
 20
665.0
  0
LINE
  5
1C0
330
24A
100
AcDbEntity
  8
boxes
100
AcDbLine
 10
15.0
 20
645.0
 30
0.0
 11
135.0
 21
645.0
 31
0.0
  0
MTEXT
  5
1C1
330
24A
100
AcDbEntity
  8
boxes
100
AcDbMText
 10
20.0
 20
660.0
 30
0.0
 40
8.0
 41
0.0
 46
0.0
 71
     1
 72
     1
  1
ellipse
  7
textstyle5
 73
     1
 44
1.0
  0
INSERT
  5
1C2
330
24A
100
AcDbEntity
  8
entities
100
AcDbBlockReference
  2
ellipse
 10
24.99970603889148
 20
535.0000231290624
 30
0.0
  0
LWPOLYLINE
  5
1C3
330
24A
100
AcDbEntity
  8
boxes
100
AcDbPolyline
 90
        4
 70
     1
 43
0.0
 10
165.0
 20
525.0
 10
285.0
 20
525.0
 10
285.0
 20
665.0
 10
165.0
 20
665.0
  0
LINE
  5
1C4
330
24A
100
AcDbEntity
  8
boxes
100
AcDbLine
 10
165.0
 20
645.0
 30
0.0
 11
285.0
 21
645.0
 31
0.0
  0
MTEXT
  5
1C5
330
24A
100
AcDbEntity
  8
boxes
100
AcDbMText
 10
170.0
 20
660.0
 30
0.0
 40
8.0
 41
0.0
 46
0.0
 71
     1
 72
     1
  1
ellispe arc
  7
textstyle6
 73
     1
 44
1.0
  0
INSERT
  5
1C6
330
24A
100
AcDbEntity
  8
entities
100
AcDbBlockReference
  2
ellispe_arc
 10
174.9994168314046
 20
535.0011426395141
 30
0.0
  0
LWPOLYLINE
  5
1C7
330
24A
100
AcDbEntity
  8
boxes
100
AcDbPolyline
 90
        4
 70
     1
 43
0.0
 10
315.0
 20
525.0
 10
435.0
 20
525.0
 10
435.0
 20
665.0
 10
315.0
 20
665.0
  0
LINE
  5
1C8
330
24A
100
AcDbEntity
  8
boxes
100
AcDbLine
 10
315.0
 20
645.0
 30
0.0
 11
435.0
 21
645.0
 31
0.0
  0
MTEXT
  5
1C9
330
24A
100
AcDbEntity
  8
boxes
100
AcDbMText
 10
320.0
 20
660.0
 30
0.0
 40
8.0
 41
0.0
 46
0.0
 71
     1
 72
     1
  1
hatch pattern
  7
textstyle7
 73
     1
 44
1.0
  0
INSERT
  5
1CA
330
24A
100
AcDbEntity
  8
entities
100
AcDbBlockReference
  2
hatch_pattern
 10
325.0
 20
535.0
 30
0.0
  0
LWPOLYLINE
  5
1CB
330
24A
100
AcDbEntity
  8
boxes
100
AcDbPolyline
 90
        4
 70
     1
 43
0.0
 10
465.0
 20
525.0
 10
585.0
 20
525.0
 10
585.0
 20
665.0
 10
465.0
 20
665.0
  0
LINE
  5
1CC
330
24A
100
AcDbEntity
  8
boxes
100
AcDbLine
 10
465.0
 20
645.0
 30
0.0
 11
585.0
 21
645.0
 31
0.0
  0
MTEXT
  5
1CD
330
24A
100
AcDbEntity
  8
boxes
100
AcDbMText
 10
470.0
 20
660.0
 30
0.0
 40
8.0
 41
0.0
 46
0.0
 71
     1
 72
     1
  1
hatch solid
  7
textstyle8
 73
     1
 44
1.0
  0
INSERT
  5
1CE
330
24A
100
AcDbEntity
  8
entities
100
AcDbBlockReference
  2
hatch_solid
 10
475.0
 20
535.0
 30
0.0
  0
LWPOLYLINE
  5
1CF
330
24A
100
AcDbEntity
  8
boxes
100
AcDbPolyline
 90
        4
 70
     1
 43
0.0
 10
615.0
 20
525.0
 10
735.0
 20
525.0
 10
735.0
 20
665.0
 10
615.0
 20
665.0
  0
LINE
  5
1D0
330
24A
100
AcDbEntity
  8
boxes
100
AcDbLine
 10
615.0
 20
645.0
 30
0.0
 11
735.0
 21
645.0
 31
0.0
  0
MTEXT
  5
1D1
330
24A
100
AcDbEntity
  8
boxes
100
AcDbMText
 10
620.0
 20
660.0
 30
0.0
 40
8.0
 41
0.0
 46
0.0
 71
     1
 72
     1
  1
line
  7
textstyle9
 73
     1
 44
1.0
  0
INSERT
  5
1D2
330
24A
100
AcDbEntity
  8
entities
100
AcDbBlockReference
  2
line
 10
625.0
 20
535.0
 30
0.0
  0
LWPOLYLINE
  5
1D3
330
24A
100
AcDbEntity
  8
boxes
100
AcDbPolyline
 90
        4
 70
     1
 43
0.0
 10
15.0
 20
695.0
 10
135.0
 20
695.0
 10
135.0
 20
835.0
 10
15.0
 20
835.0
  0
LINE
  5
1D4
330
24A
100
AcDbEntity
  8
boxes
100
AcDbLine
 10
15.0
 20
815.0
 30
0.0
 11
135.0
 21
815.0
 31
0.0
  0
MTEXT
  5
1D5
330
24A
100
AcDbEntity
  8
boxes
100
AcDbMText
 10
20.0
 20
830.0
 30
0.0
 40
8.0
 41
0.0
 46
0.0
 71
     1
 72
     1
  1
points
  7
textstyle10
 73
     1
 44
1.0
  0
INSERT
  5
1D6
330
24A
100
AcDbEntity
  8
entities
100
AcDbBlockReference
  2
points
 10
25.0
 20
705.0
 30
0.0
  0
LWPOLYLINE
  5
1D7
330
24A
100
AcDbEntity
  8
boxes
100
AcDbPolyline
 90
        4
 70
     1
 43
0.0
 10
165.0
 20
695.0
 10
285.0
 20
695.0
 10
285.0
 20
835.0
 10
165.0
 20
835.0
  0
LINE
  5
1D8
330
24A
100
AcDbEntity
  8
boxes
100
AcDbLine
 10
165.0
 20
815.0
 30
0.0
 11
285.0
 21
815.0
 31
0.0
  0
MTEXT
  5
1D9
330
24A
100
AcDbEntity
  8
boxes
100
AcDbMText
 10
170.0
 20
830.0
 30
0.0
 40
8.0
 41
0.0
 46
0.0
 71
     1
 72
     1
  1
polyline
  7
textstyle11
 73
     1
 44
1.0
  0
INSERT
  5
1DA
330
24A
100
AcDbEntity
  8
entities
100
AcDbBlockReference
  2
polyline
 10
175.0
 20
705.0
 30
0.0
  0
LWPOLYLINE
  5
1DB
330
24A
100
AcDbEntity
  8
boxes
100
AcDbPolyline
 90
        4
 70
     1
 43
0.0
 10
315.0
 20
695.0
 10
435.0
 20
695.0
 10
435.0
 20
835.0
 10
315.0
 20
835.0
  0
LINE
  5
1DC
330
24A
100
AcDbEntity
  8
boxes
100
AcDbLine
 10
315.0
 20
815.0
 30
0.0
 11
435.0
 21
815.0
 31
0.0
  0
MTEXT
  5
1DD
330
24A
100
AcDbEntity
  8
boxes
100
AcDbMText
 10
320.0
 20
830.0
 30
0.0
 40
8.0
 41
0.0
 46
0.0
 71
     1
 72
     1
  1
spline cp 2deg
  7
textstyle12
 73
     1
 44
1.0
  0
INSERT
  5
1DE
330
24A
100
AcDbEntity
  8
entities
100
AcDbBlockReference
  2
spline_cp_2deg
 10
325.0
 20
705.0
 30
0.0
  0
LWPOLYLINE
  5
1DF
330
24A
100
AcDbEntity
  8
boxes
100
AcDbPolyline
 90
        4
 70
     1
 43
0.0
 10
465.0
 20
695.0
 10
585.0
 20
695.0
 10
585.0
 20
835.0
 10
465.0
 20
835.0
  0
LINE
  5
1E0
330
24A
100
AcDbEntity
  8
boxes
100
AcDbLine
 10
465.0
 20
815.0
 30
0.0
 11
585.0
 21
815.0
 31
0.0
  0
MTEXT
  5
1E1
330
24A
100
AcDbEntity
  8
boxes
100
AcDbMText
 10
470.0
 20
830.0
 30
0.0
 40
8.0
 41
0.0
 46
0.0
 71
     1
 72
     1
  1
spline cp 2deg closed
  7
textstyle13
 73
     1
 44
1.0
  0
INSERT
  5
1E2
330
24A
100
AcDbEntity
  8
entities
100
AcDbBlockReference
  2
spline_cp_2deg_closed
 10
481.669921875
 20
705.0
 30
0.0
  0
LWPOLYLINE
  5
1E3
330
24A
100
AcDbEntity
  8
boxes
100
AcDbPolyline
 90
        4
 70
     1
 43
0.0
 10
615.0
 20
695.0
 10
735.0
 20
695.0
 10
735.0
 20
835.0
 10
615.0
 20
835.0
  0
LINE
  5
1E4
330
24A
100
AcDbEntity
  8
boxes
100
AcDbLine
 10
615.0
 20
815.0
 30
0.0
 11
735.0
 21
815.0
 31
0.0
  0
MTEXT
  5
1E5
330
24A
100
AcDbEntity
  8
boxes
100
AcDbMText
 10
620.0
 20
830.0
 30
0.0
 40
8.0
 41
0.0
 46
0.0
 71
     1
 72
     1
  1
spline cp 3deg
  7
textstyle14
 73
     1
 44
1.0
  0
INSERT
  5
1E6
330
24A
100
AcDbEntity
  8
entities
100
AcDbBlockReference
  2
spline_cp_3deg
 10
625.0
 20
715.0
 30
0.0
  0
LWPOLYLINE
  5
1E7
330
24A
100
AcDbEntity
  8
boxes
100
AcDbPolyline
 90
        4
 70
     1
 43
0.0
 10
15.0
 20
865.0
 10
135.0
 20
865.0
 10
135.0
 20
1005.0
 10
15.0
 20
1005.0
  0
LINE
  5
1E8
330
24A
100
AcDbEntity
  8
boxes
100
AcDbLine
 10
15.0
 20
985.0
 30
0.0
 11
135.0
 21
985.0
 31
0.0
  0
MTEXT
  5
1E9
330
24A
100
AcDbEntity
  8
boxes
100
AcDbMText
 10
20.0
 20
1000.0
 30
0.0
 40
8.0
 41
0.0
 46
0.0
 71
     1
 72
     1
  1
spline cp 3deg closed
  7
textstyle15
 73
     1
 44
1.0
  0
INSERT
  5
1EA
330
24A
100
AcDbEntity
  8
entities
100
AcDbBlockReference
  2
spline_cp_3deg_closed
 10
25.0
 20
875.0
 30
0.0
  0
LWPOLYLINE
  5
1EB
330
24A
100
AcDbEntity
  8
boxes
100
AcDbPolyline
 90
        4
 70
     1
 43
0.0
 10
165.0
 20
865.0
 10
285.0
 20
865.0
 10
285.0
 20
1005.0
 10
165.0
 20
1005.0
  0
LINE
  5
1EC
330
24A
100
AcDbEntity
  8
boxes
100
AcDbLine
 10
165.0
 20
985.0
 30
0.0
 11
285.0
 21
985.0
 31
0.0
  0
MTEXT
  5
1ED
330
24A
100
AcDbEntity
  8
boxes
100
AcDbMText
 10
170.0
 20
1000.0
 30
0.0
 40
8.0
 41
0.0
 46
0.0
 71
     1
 72
     1
  1
spline fp
  7
textstyle16
 73
     1
 44
1.0
  0
INSERT
  5
1EE
330
24A
100
AcDbEntity
  8
entities
100
AcDbBlockReference
  2
spline_fp
 10
175.0
 20
875.7812500004902
 30
0.0
  0
LWPOLYLINE
  5
1EF
330
24A
100
AcDbEntity
  8
boxes
100
AcDbPolyline
 90
        4
 70
     1
 43
0.0
 10
315.0
 20
865.0
 10
435.0
 20
865.0
 10
435.0
 20
1005.0
 10
315.0
 20
1005.0
  0
LWPOLYLINE
  5
1F0
330
24A
100
AcDbEntity
  8
boxes
100
AcDbPolyline
 90
        4
 70
     1
 43
0.0
 10
15.0
 20
15.0
 10
135.0
 20
15.0
 10
135.0
 20
155.0
 10
15.0
 20
155.0
  0
LINE
  5
1F1
330
24A
100
AcDbEntity
  8
boxes
100
AcDbLine
 10
315.0
 20
985.0
 30
0.0
 11
435.0
 21
985.0
 31
0.0
  0
LINE
  5
1F2
330
24A
100
AcDbEntity
  8
boxes
100
AcDbLine
 10
15.0
 20
135.0
 30
0.0
 11
135.0
 21
135.0
 31
0.0
  0
MTEXT
  5
1F3
330
24A
100
AcDbEntity
  8
boxes
100
AcDbMText
 10
320.0
 20
1000.0
 30
0.0
 40
8.0
 41
0.0
 46
0.0
 71
     1
 72
     1
  1
spline fp closed
  7
textstyle17
 73
     1
 44
1.0
  0
MTEXT
  5
1F4
330
24A
100
AcDbEntity
  8
boxes
100
AcDbMText
 10
20.0
 20
150.0
 30
0.0
 40
8.0
 41
0.0
 46
0.0
 71
     1
 72
     1
  1
arc
  7
textstyle18
 73
     1
 44
1.0
  0
INSERT
  5
1F5
330
24A
100
AcDbEntity
  8
entities
100
AcDbBlockReference
  2
spline_fp_closed
 10
326.4677119246101
 20
874.6542781144676
 30
0.0
  0
INSERT
  5
1F6
330
24A
100
AcDbEntity
  8
entities
100
AcDbBlockReference
  2
arc
 10
25.0
 20
24.99999999999999
 30
0.0
  0
LWPOLYLINE
  5
1F7
330
24A
100
AcDbEntity
  8
boxes
100
AcDbPolyline
 90
        4
 70
     1
 43
0.0
 10
465.0
 20
865.0
 10
585.0
 20
865.0
 10
585.0
 20
1005.0
 10
465.0
 20
1005.0
  0
LWPOLYLINE
  5
1F8
330
24A
100
AcDbEntity
  8
boxes
100
AcDbPolyline
 90
        4
 70
     1
 43
0.0
 10
165.0
 20
15.0
 10
285.0
 20
15.0
 10
285.0
 20
155.0
 10
165.0
 20
155.0
  0
LINE
  5
1F9
330
24A
100
AcDbEntity
  8
boxes
100
AcDbLine
 10
465.0
 20
985.0
 30
0.0
 11
585.0
 21
985.0
 31
0.0
  0
LINE
  5
1FA
330
24A
100
AcDbEntity
  8
boxes
100
AcDbLine
 10
165.0
 20
135.0
 30
0.0
 11
285.0
 21
135.0
 31
0.0
  0
MTEXT
  5
1FB
330
24A
100
AcDbEntity
  8
boxes
100
AcDbMText
 10
470.0
 20
1000.0
 30
0.0
 40
8.0
 41
0.0
 46
0.0
 71
     1
 72
     1
  1
text
  7
textstyle19
 73
     1
 44
1.0
  0
MTEXT
  5
1FC
330
24A
100
AcDbEntity
  8
boxes
100
AcDbMText
 10
170.0
 20
150.0
 30
0.0
 40
8.0
 41
0.0
 46
0.0
 71
     1
 72
     1
  1
block insert
  7
textstyle20
 73
     1
 44
1.0
  0
INSERT
  5
1FD
330
24A
100
AcDbEntity
  8
entities
100
AcDbBlockReference
  2
text
 10
472.7373979410721
 20
868.7710774560904
 30
0.0
  0
INSERT
  5
1FE
330
24A
100
AcDbEntity
  8
entities
100
AcDbBlockReference
  2
block_insert
 10
175.0
 20
25.0
 30
0.0
  0
LWPOLYLINE
  5
1FF
330
24A
100
AcDbEntity
  8
boxes
100
AcDbPolyline
 90
        4
 70
     1
 43
0.0
 10
315.0
 20
15.0
 10
435.0
 20
15.0
 10
435.0
 20
155.0
 10
315.0
 20
155.0
  0
LINE
  5
200
330
24A
100
AcDbEntity
  8
boxes
100
AcDbLine
 10
315.0
 20
135.0
 30
0.0
 11
435.0
 21
135.0
 31
0.0
  0
MTEXT
  5
201
330
24A
100
AcDbEntity
  8
boxes
100
AcDbMText
 10
320.0
 20
150.0
 30
0.0
 40
8.0
 41
0.0
 46
0.0
 71
     1
 72
     1
  1
circle
  7
textstyle21
 73
     1
 44
1.0
  0
INSERT
  5
202
330
24A
100
AcDbEntity
  8
entities
100
AcDbBlockReference
  2
circle
 10
325.0
 20
25.0
 30
0.0
  0
LWPOLYLINE
  5
203
330
24A
100
AcDbEntity
  8
boxes
100
AcDbPolyline
 90
        4
 70
     1
 43
0.0
 10
465.0
 20
15.0
 10
585.0
 20
15.0
 10
585.0
 20
155.0
 10
465.0
 20
155.0
  0
LINE
  5
204
330
24A
100
AcDbEntity
  8
boxes
100
AcDbLine
 10
465.0
 20
135.0
 30
0.0
 11
585.0
 21
135.0
 31
0.0
  0
MTEXT
  5
205
330
24A
100
AcDbEntity
  8
boxes
100
AcDbMText
 10
470.0
 20
150.0
 30
0.0
 40
8.0
 41
0.0
 46
0.0
 71
     1
 72
     1
  1
dim aligned
  7
textstyle22
 73
     1
 44
1.0
  0
INSERT
  5
206
330
24A
100
AcDbEntity
  8
entities
100
AcDbBlockReference
  2
dim_aligned
 10
474.5604814127632
 20
24.23358921991339
 30
0.0
  0
LWPOLYLINE
  5
207
330
24A
100
AcDbEntity
  8
boxes
100
AcDbPolyline
 90
        4
 70
     1
 43
0.0
 10
615.0
 20
15.0
 10
735.0
 20
15.0
 10
735.0
 20
155.0
 10
615.0
 20
155.0
  0
LINE
  5
208
330
24A
100
AcDbEntity
  8
boxes
100
AcDbLine
 10
615.0
 20
135.0
 30
0.0
 11
735.0
 21
135.0
 31
0.0
  0
MTEXT
  5
209
330
24A
100
AcDbEntity
  8
boxes
100
AcDbMText
 10
620.0
 20
150.0
 30
0.0
 40
8.0
 41
0.0
 46
0.0
 71
     1
 72
     1
  1
dim angular arc
  7
textstyle23
 73
     1
 44
1.0
  0
INSERT
  5
20A
330
24A
100
AcDbEntity
  8
entities
100
AcDbBlockReference
  2
dim_angular_arc
 10
625.3125
 20
24.68749999999999
 30
0.0
  0
LWPOLYLINE
  5
20B
330
24A
100
AcDbEntity
  8
boxes
100
AcDbPolyline
 90
        4
 70
     1
 43
0.0
 10
15.0
 20
185.0
 10
135.0
 20
185.0
 10
135.0
 20
325.0
 10
15.0
 20
325.0
  0
LINE
  5
20C
330
24A
100
AcDbEntity
  8
boxes
100
AcDbLine
 10
15.0
 20
305.0
 30
0.0
 11
135.0
 21
305.0
 31
0.0
  0
MTEXT
  5
20D
330
24A
100
AcDbEntity
  8
boxes
100
AcDbMText
 10
20.0
 20
320.0
 30
0.0
 40
8.0
 41
0.0
 46
0.0
 71
     1
 72
     1
  1
dim angular line
  7
textstyle24
 73
     1
 44
1.0
  0
INSERT
  5
20E
330
24A
100
AcDbEntity
  8
entities
100
AcDbBlockReference
  2
dim_angular_line
 10
24.73410733735114
 20
195.27059836221
 30
0.0
  0
LWPOLYLINE
  5
20F
330
24A
100
AcDbEntity
  8
boxes
100
AcDbPolyline
 90
        4
 70
     1
 43
0.0
 10
165.0
 20
185.0
 10
285.0
 20
185.0
 10
285.0
 20
325.0
 10
165.0
 20
325.0
  0
LINE
  5
210
330
24A
100
AcDbEntity
  8
boxes
100
AcDbLine
 10
165.0
 20
305.0
 30
0.0
 11
285.0
 21
305.0
 31
0.0
  0
MTEXT
  5
211
330
24A
100
AcDbEntity
  8
boxes
100
AcDbMText
 10
170.0
 20
320.0
 30
0.0
 40
8.0
 41
0.0
 46
0.0
 71
     1
 72
     1
  1
dim diametric arc
  7
textstyle25
 73
     1
 44
1.0
  0
INSERT
  5
212
330
24A
100
AcDbEntity
  8
entities
100
AcDbBlockReference
  2
dim_diametric_arc
 10
175.0
 20
195.0
 30
0.0
  0
LWPOLYLINE
  5
213
330
24A
100
AcDbEntity
  8
boxes
100
AcDbPolyline
 90
        4
 70
     1
 43
0.0
 10
315.0
 20
185.0
 10
435.0
 20
185.0
 10
435.0
 20
325.0
 10
315.0
 20
325.0
  0
LINE
  5
214
330
24A
100
AcDbEntity
  8
boxes
100
AcDbLine
 10
315.0
 20
305.0
 30
0.0
 11
435.0
 21
305.0
 31
0.0
  0
MTEXT
  5
215
330
24A
100
AcDbEntity
  8
boxes
100
AcDbMText
 10
320.0
 20
320.0
 30
0.0
 40
8.0
 41
0.0
 46
0.0
 71
     1
 72
     1
  1
dim diametric circle
  7
textstyle26
 73
     1
 44
1.0
  0
INSERT
  5
216
330
24A
100
AcDbEntity
  8
entities
100
AcDbBlockReference
  2
dim_diametric_circle
 10
325.0
 20
195.0
 30
0.0
  0
LWPOLYLINE
  5
217
330
24A
100
AcDbEntity
  8
boxes
100
AcDbPolyline
 90
        4
 70
     1
 43
0.0
 10
465.0
 20
185.0
 10
585.0
 20
185.0
 10
585.0
 20
325.0
 10
465.0
 20
325.0
  0
LINE
  5
218
330
24A
100
AcDbEntity
  8
boxes
100
AcDbLine
 10
465.0
 20
305.0
 30
0.0
 11
585.0
 21
305.0
 31
0.0
  0
MTEXT
  5
219
330
24A
100
AcDbEntity
  8
boxes
100
AcDbMText
 10
470.0
 20
320.0
 30
0.0
 40
8.0
 41
0.0
 46
0.0
 71
     1
 72
     1
  1
dim horizontal
  7
textstyle27
 73
     1
 44
1.0
  0
INSERT
  5
21A
330
24A
100
AcDbEntity
  8
entities
100
AcDbBlockReference
  2
dim_horizontal
 10
475.0
 20
188.125
 30
0.0
  0
LWPOLYLINE
  5
21B
330
24A
100
AcDbEntity
  8
boxes
100
AcDbPolyline
 90
        4
 70
     1
 43
0.0
 10
615.0
 20
185.0
 10
735.0
 20
185.0
 10
735.0
 20
325.0
 10
615.0
 20
325.0
  0
LINE
  5
21C
330
24A
100
AcDbEntity
  8
boxes
100
AcDbLine
 10
615.0
 20
305.0
 30
0.0
 11
735.0
 21
305.0
 31
0.0
  0
MTEXT
  5
21D
330
24A
100
AcDbEntity
  8
boxes
100
AcDbMText
 10
620.0
 20
320.0
 30
0.0
 40
8.0
 41
0.0
 46
0.0
 71
     1
 72
     1
  1
dim leader
  7
textstyle28
 73
     1
 44
1.0
  0
INSERT
  5
21E
330
24A
100
AcDbEntity
  8
entities
100
AcDbBlockReference
  2
dim_leader
 10
625.0
 20
195.0
 30
0.0
  0
LWPOLYLINE
  5
21F
330
24A
100
AcDbEntity
  8
boxes
100
AcDbPolyline
 90
        4
 70
     1
 43
0.0
 10
15.0
 20
355.0
 10
135.0
 20
355.0
 10
135.0
 20
495.0
 10
15.0
 20
495.0
  0
LINE
  5
220
330
24A
100
AcDbEntity
  8
boxes
100
AcDbLine
 10
15.0
 20
475.0
 30
0.0
 11
135.0
 21
475.0
 31
0.0
  0
MTEXT
  5
221
330
24A
100
AcDbEntity
  8
boxes
100
AcDbMText
 10
20.0
 20
490.0
 30
0.0
 40
8.0
 41
0.0
 46
0.0
 71
     1
 72
     1
  1
dim ordinate
  7
textstyle29
 73
     1
 44
1.0
  0
INSERT
  5
222
330
24A
100
AcDbEntity
  8
entities
100
AcDbBlockReference
  2
dim_ordinate
 10
26.26388888888889
 20
369.375
 30
0.0
  0
LWPOLYLINE
  5
223
330
24A
100
AcDbEntity
  8
boxes
100
AcDbPolyline
 90
        4
 70
     1
 43
0.0
 10
165.0
 20
355.0
 10
285.0
 20
355.0
 10
285.0
 20
495.0
 10
165.0
 20
495.0
  0
LINE
  5
224
330
24A
100
AcDbEntity
  8
boxes
100
AcDbLine
 10
165.0
 20
475.0
 30
0.0
 11
285.0
 21
475.0
 31
0.0
  0
MTEXT
  5
225
330
24A
100
AcDbEntity
  8
boxes
100
AcDbMText
 10
170.0
 20
490.0
 30
0.0
 40
8.0
 41
0.0
 46
0.0
 71
     1
 72
     1
  1
dim radial arc
  7
textstyle30
 73
     1
 44
1.0
  0
INSERT
  5
226
330
24A
100
AcDbEntity
  8
entities
100
AcDbBlockReference
  2
dim_radial_arc
 10
175.0
 20
365.0
 30
0.0
  0
LWPOLYLINE
  5
227
330
24A
100
AcDbEntity
  8
boxes
100
AcDbPolyline
 90
        4
 70
     1
 43
0.0
 10
315.0
 20
355.0
 10
435.0
 20
355.0
 10
435.0
 20
495.0
 10
315.0
 20
495.0
  0
LINE
  5
228
330
24A
100
AcDbEntity
  8
boxes
100
AcDbLine
 10
315.0
 20
475.0
 30
0.0
 11
435.0
 21
475.0
 31
0.0
  0
MTEXT
  5
229
330
24A
100
AcDbEntity
  8
boxes
100
AcDbMText
 10
320.0
 20
490.0
 30
0.0
 40
8.0
 41
0.0
 46
0.0
 71
     1
 72
     1
  1
dim radial circle
  7
textstyle31
 73
     1
 44
1.0
  0
INSERT
  5
22A
330
24A
100
AcDbEntity
  8
entities
100
AcDbBlockReference
  2
dim_radial_circle
 10
325.0
 20
365.0
 30
0.0
  0
LWPOLYLINE
  5
22B
330
24A
100
AcDbEntity
  8
boxes
100
AcDbPolyline
 90
        4
 70
     1
 43
0.0
 10
465.0
 20
355.0
 10
585.0
 20
355.0
 10
585.0
 20
495.0
 10
465.0
 20
495.0
  0
ENDSEC
  0
SECTION
  2
OBJECTS
  0
DICTIONARY
  5
238
330
0
100
AcDbDictionary
281
     1
  3
ACAD_GROUP
350
239
  3
ACAD_LAYOUT
350
245
  3
ACAD_MATERIAL
350
266
  3
ACAD_MLEADERSTYLE
350
508
  3
ACAD_MLINESTYLE
350
242
  3
ACAD_PLOTSETTINGS
350
244
  3
ACAD_PLOTSTYLENAME
350
23A
  3
ACAD_TABLESTYLE
350
507
  3
ACAD_VISUALSTYLE
350
255
  3
QCAD_OBJECTS
350
26B
  0
DICTIONARY
  5
239
102
{ACAD_REACTORS
330
238
102
}
330
238
100
AcDbDictionary
281
     1
  0
DICTIONARY
  5
245
102
{ACAD_REACTORS
330
238
102
}
330
238
100
AcDbDictionary
281
     1
  3
Layout1
350
249
  3
Layout2
350
251
  3
Model
350
24D
  0
DICTIONARY
  5
266
102
{ACAD_REACTORS
330
238
102
}
330
238
100
AcDbDictionary
281
     1
  3
ByBlock
350
268
  3
ByLayer
350
267
  3
Global
350
269
  0
DICTIONARY
  5
508
102
{ACAD_REACTORS
330
238
102
}
330
238
100
AcDbDictionary
281
     1
  0
DICTIONARY
  5
242
102
{ACAD_REACTORS
330
238
102
}
330
238
100
AcDbDictionary
281
     1
  3
Standard
350
243
  0
DICTIONARY
  5
244
102
{ACAD_REACTORS
330
238
102
}
330
238
100
AcDbDictionary
281
     1
  0
ACDBDICTIONARYWDFLT
  5
23A
102
{ACAD_REACTORS
330
238
102
}
330
238
100
AcDbDictionary
281
     1
  3
Normal
350
23B
100
AcDbDictionaryWithDefault
340
23B
  0
DICTIONARY
  5
507
102
{ACAD_REACTORS
330
238
102
}
330
238
100
AcDbDictionary
281
     1
  0
DICTIONARY
  5
255
102
{ACAD_REACTORS
330
238
102
}
330
238
100
AcDbDictionary
281
     1
  3
2dWireframe
350
25A
  3
3D Hidden
350
25C
  3
3dWireframe
350
25B
  3
Basic
350
25D
  3
Brighten
350
261
  3
ColorChange
350
265
  3
Conceptual
350
25F
  3
Dim
350
260
  3
Facepattern
350
264
  3
Flat
350
256
  3
FlatWithEdges
350
257
  3
Gouraud
350
258
  3
GouraudWithEdges
350
259
  3
Linepattern
350
263
  3
Realistic
350
25E
  3
Thicken
350
262
  0
DICTIONARY
  5
26B
102
{ACAD_REACTORS
330
238
102
}
330
238
100
AcDbDictionary
281
     1
  3
ColorSettings/BackgroundColor
350
27D
  3
ColorSettings/ColorMode
350
277
  3
Grid/DisplayGrid
350
27E
  3
Grid/GridSpacingX
350
275
  3
Grid/GridSpacingY
350
276
  3
Grid/MetaGridSpacingX
350
26F
  3
Grid/MetaGridSpacingY
350
273
  3
MultiPageSettings/Columns
350
274
  3
MultiPageSettings/GlueMarginBottom
350
270
  3
MultiPageSettings/GlueMarginsBottom
350
27A
  3
MultiPageSettings/GlueMarginsLeft
350
278
  3
MultiPageSettings/GlueMarginsRight
350
26C
  3
MultiPageSettings/GlueMarginsTop
350
282
  3
MultiPageSettings/PrintCropMarks
350
26E
  3
MultiPageSettings/Rows
350
279
  3
PageSettings/OffsetX
350
280
  3
PageSettings/OffsetY
350
281
  3
PageSettings/PageOrientation
350
26D
  3
PageSettings/PaperHeight
350
271
  3
PageSettings/PaperWidth
350
27B
  3
PageSettings/Scale
350
272
  3
PageSettings/ShowPaperBorders
350
27F
  3
UnitSettings/PaperUnit
350
27C
  0
LAYOUT
  5
249
102
{ACAD_REACTORS
330
245
102
}
330
245
100
AcDbPlotSettings
  1

  2
none_device
  4

  6

 40
0.0
 41
0.0
 42
0.0
 43
0.0
 44
0.0
 45
0.0
 46
0.0
 47
0.0
 48
0.0
 49
0.0
140
0.0
141
0.0
142
1.0
143
1.0
 70
   688
 72
     0
 73
     0
 74
     5
  7

 75
    16
 76
     0
 77
     2
 78
   300
147
1.0
148
0.0
149
0.0
100
AcDbLayout
  1
Layout1
 70
     1
 71
     1
 10
0.0
 20
0.0
 11
12.0
 21
9.0
 12
0.0
 22
0.0
 32
0.0
 14
1.000000000000000E+20
 24
1.000000000000000E+20
 34
1.000000000000000E+20
 15
-1.000000000000000E+20
 25
-1.000000000000000E+20
 35
-1.000000000000000E+20
146
0.0
 13
0.0
 23
0.0
 33
0.0
 16
1.0
 26
0.0
 36
0.0
 17
0.0
 27
1.0
 37
0.0
 76
     0
330
246
  0
LAYOUT
  5
251
102
{ACAD_REACTORS
330
245
102
}
330
245
100
AcDbPlotSettings
  1

  2
none_device
  4

  6

 40
0.0
 41
0.0
 42
0.0
 43
0.0
 44
0.0
 45
0.0
 46
0.0
 47
0.0
 48
0.0
 49
0.0
140
0.0
141
0.0
142
1.0
143
1.0
 70
   688
 72
     0
 73
     0
 74
     5
  7

 75
    16
 76
     0
 77
     2
 78
   300
147
1.0
148
0.0
149
0.0
100
AcDbLayout
  1
Layout2
 70
     1
 71
     2
 10
0.0
 20
0.0
 11
0.0
 21
0.0
 12
0.0
 22
0.0
 32
0.0
 14
0.0
 24
0.0
 34
0.0
 15
0.0
 25
0.0
 35
0.0
146
0.0
 13
0.0
 23
0.0
 33
0.0
 16
1.0
 26
0.0
 36
0.0
 17
0.0
 27
1.0
 37
0.0
 76
     0
330
24E
  0
LAYOUT
  5
24D
102
{ACAD_REACTORS
330
245
102
}
330
245
100
AcDbPlotSettings
  1

  2
none_device
  4

  6

 40
0.0
 41
0.0
 42
0.0
 43
0.0
 44
0.0
 45
0.0
 46
0.0
 47
0.0
 48
0.0
 49
0.0
140
0.0
141
0.0
142
1.0
143
1.0
 70
  1712
 72
     0
 73
     0
 74
     0
  7

 75
     0
 76
     0
 77
     2
 78
   300
147
1.0
148
0.0
149
0.0
100
AcDbLayout
  1
Model
 70
     1
 71
     0
 10
0.0
 20
0.0
 11
12.0
 21
9.0
 12
0.0
 22
0.0
 32
0.0
 14
1.000000000000000E+20
 24
1.000000000000000E+20
 34
1.000000000000000E+20
 15
-1.000000000000000E+20
 25
-1.000000000000000E+20
 35
-1.000000000000000E+20
146
0.0
 13
0.0
 23
0.0
 33
0.0
 16
1.0
 26
0.0
 36
0.0
 17
0.0
 27
1.0
 37
0.0
 76
     0
330
24A
331
254
  0
MATERIAL
  5
268
102
{ACAD_REACTORS
330
266
102
}
330
266
100
AcDbMaterial
  1
ByBlock
 72
     1
 94
      127
  0
MATERIAL
  5
267
102
{ACAD_REACTORS
330
266
102
}
330
266
100
AcDbMaterial
  1
ByLayer
 72
     1
 94
      127
  0
MATERIAL
  5
269
102
{ACAD_REACTORS
330
266
102
}
330
266
100
AcDbMaterial
  1
Global
 72
     1
 94
      127
  0
MLINESTYLE
  5
243
102
{ACAD_REACTORS
330
242
102
}
330
242
100
AcDbMlineStyle
  2
Standard
 70
     0
  3

 62
   256
 51
90.0
 52
90.0
 71
     2
 49
0.5
 62
   256
  6
BYLAYER
 49
-0.5
 62
   256
  6
BYLAYER
  0
ACDBPLACEHOLDER
  5
23B
102
{ACAD_REACTORS
330
23A
102
}
330
23A
  0
VISUALSTYLE
  5
25A
102
{ACAD_REACTORS
330
255
102
}
330
255
100
AcDbVisualStyle
  2
2dWireframe
 70
     4
177
     2
291
     0
 71
     0
176
     1
 72
     2
176
     1
 73
     0
176
     1
 90
        0
176
     1
 40
-0.6
176
     1
 41
-30.0
176
     1
 62
     5
 63
     7
421
 16777215
176
     1
 74
     1
176
     1
 91
        4
176
     1
 64
     7
176
     1
 65
   257
176
     1
 75
     1
176
     1
175
     1
176
     1
 42
1.0
176
     1
 92
        0
176
     1
 66
   257
176
     1
 43
1.0
176
     1
 76
     1
176
     1
 77
     6
176
     1
 78
     2
176
     1
 67
     7
176
     1
 79
     5
176
     1
170
     0
176
     1
171
     0
176
     1
290
     0
176
     1
 93
        1
176
     1
 44
0.0
176
     1
173
     0
176
     1
  0
VISUALSTYLE
  5
25C
102
{ACAD_REACTORS
330
255
102
}
330
255
100
AcDbVisualStyle
  2
3D Hidden
 70
     6
177
     2
291
     0
 71
     1
176
     1
 72
     2
176
     1
 73
     2
176
     1
 90
        0
176
     1
 40
-0.6
176
     1
 41
-30.0
176
     1
 62
     5
 63
     7
421
 16777215
176
     1
 74
     2
176
     1
 91
        2
176
     1
 64
     7
176
     1
 65
   257
176
     1
 75
     2
176
     1
175
     1
176
     1
 42
40.0
176
     1
 92
        0
176
     1
 66
   257
176
     1
 43
1.0
176
     1
 76
     1
176
     1
 77
     6
176
     1
 78
     2
176
     1
 67
     7
176
     1
 79
     3
176
     1
170
     0
176
     1
171
     0
176
     1
290
     0
176
     1
 93
        1
176
     1
 44
0.0
176
     1
173
     0
176
     1
  0
VISUALSTYLE
  5
25B
102
{ACAD_REACTORS
330
255
102
}
330
255
100
AcDbVisualStyle
  2
3dWireframe
 70
     5
177
     2
291
     0
 71
     0
176
     1
 72
     2
176
     1
 73
     0
176
     1
 90
        0
176
     1
 40
-0.6
176
     1
 41
-30.0
176
     1
 62
     5
 63
     7
421
 16777215
176
     1
 74
     1
176
     1
 91
        4
176
     1
 64
     7
176
     1
 65
   257
176
     1
 75
     1
176
     1
175
     1
176
     1
 42
1.0
176
     1
 92
        0
176
     1
 66
   257
176
     1
 43
1.0
176
     1
 76
     1
176
     1
 77
     6
176
     1
 78
     2
176
     1
 67
     7
176
     1
 79
     5
176
     1
170
     0
176
     1
171
     0
176
     1
290
     0
176
     1
 93
        1
176
     1
 44
0.0
176
     1
173
     0
176
     1
  0
VISUALSTYLE
  5
25D
102
{ACAD_REACTORS
330
255
102
}
330
255
100
AcDbVisualStyle
  2
Basic
 70
     7
177
     2
291
     1
 71
     1
176
     1
 72
     0
176
     1
 73
     1
176
     1
 90
        0
176
     1
 40
-0.6
176
     1
 41
-30.0
176
     1
 62
     5
 63
     7
421
 16777215
176
     1
 74
     0
176
     1
 91
        4
176
     1
 64
     7
176
     1
 65
   257
176
     1
 75
     1
176
     1
175
     1
176
     1
 42
1.0
176
     1
 92
        8
176
     1
 66
     7
176
     1
 43
1.0
176
     1
 76
     1
176
     1
 77
     6
176
     1
 78
     2
176
     1
 67
     7
176
     1
 79
     5
176
     1
170
     0
176
     1
171
     0
176
     1
290
     0
176
     1
 93
        1
176
     1
 44
0.0
176
     1
173
     0
176
     1
  0
VISUALSTYLE
  5
261
102
{ACAD_REACTORS
330
255
102
}
330
255
100
AcDbVisualStyle
  2
Brighten
 70
    12
177
     2
291
     1
 71
     2
176
     1
 72
     2
176
     1
 73
     0
176
     1
 90
        0
176
     1
 40
-0.6
176
     1
 41
-30.0
176
     1
 62
     5
 63
     7
421
 16777215
176
     1
 74
     1
176
     1
 91
        4
176
     1
 64
     7
176
     1
 65
   257
176
     1
 75
     1
176
     1
175
     1
176
     1
 42
1.0
176
     1
 92
        8
176
     1
 66
     7
176
     1
 43
1.0
176
     1
 76
     1
176
     1
 77
     6
176
     1
 78
     2
176
     1
 67
     7
176
     1
 79
     5
176
     1
170
     0
176
     1
171
     0
176
     1
290
     0
176
     1
 93
        1
176
     1
 44
50.0
176
     1
173
     0
176
     1
  0
VISUALSTYLE
  5
265
102
{ACAD_REACTORS
330
255
102
}
330
255
100
AcDbVisualStyle
  2
ColorChange
 70
    16
177
     2
291
     1
 71
     2
176
     1
 72
     2
176
     1
 73
     3
176
     1
 90
        0
176
     1
 40
-0.6
176
     1
 41
-30.0
176
     1
 62
     5
 63
     8
421
  8421504
176
     1
 74
     1
176
     1
 91
        4
176
     1
 64
     7
176
     1
 65
   257
176
     1
 75
     1
176
     1
175
     1
176
     1
 42
1.0
176
     1
 92
        8
176
     1
 66
     8
424
  8421504
176
     1
 43
1.0
176
     1
 76
     1
176
     1
 77
     6
176
     1
 78
     2
176
     1
 67
     7
176
     1
 79
     5
176
     1
170
     0
176
     1
171
     0
176
     1
290
     0
176
     1
 93
        1
176
     1
 44
0.0
176
     1
173
     0
176
     1
  0
VISUALSTYLE
  5
25F
102
{ACAD_REACTORS
330
255
102
}
330
255
100
AcDbVisualStyle
  2
Conceptual
 70
     9
177
     2
291
     0
 71
     3
176
     1
 72
     2
176
     1
 73
     0
176
     1
 90
        0
176
     1
 40
-0.6
176
     1
 41
-30.0
176
     1
 62
     5
 63
     7
421
 16777215
176
     1
 74
     2
176
     1
 91
        2
176
     1
 64
     7
176
     1
 65
   257
176
     1
 75
     1
176
     1
175
     1
176
     1
 42
40.0
176
     1
 92
        8
176
     1
 66
     7
176
     1
 43
1.0
176
     1
 76
     1
176
     1
 77
     6
176
     1
 78
     2
176
     1
 67
     7
176
     1
 79
     3
176
     1
170
     0
176
     1
171
     0
176
     1
290
     0
176
     1
 93
        1
176
     1
 44
0.0
176
     1
173
     0
176
     1
  0
VISUALSTYLE
  5
260
102
{ACAD_REACTORS
330
255
102
}
330
255
100
AcDbVisualStyle
  2
Dim
 70
    11
177
     2
291
     1
 71
     2
176
     1
 72
     2
176
     1
 73
     0
176
     1
 90
        0
176
     1
 40
-0.6
176
     1
 41
-30.0
176
     1
 62
     5
 63
     7
421
 16777215
176
     1
 74
     1
176
     1
 91
        4
176
     1
 64
     7
176
     1
 65
   257
176
     1
 75
     1
176
     1
175
     1
176
     1
 42
1.0
176
     1
 92
        8
176
     1
 66
     7
176
     1
 43
1.0
176
     1
 76
     1
176
     1
 77
     6
176
     1
 78
     2
176
     1
 67
     7
176
     1
 79
     5
176
     1
170
     0
176
     1
171
     0
176
     1
290
     0
176
     1
 93
        1
176
     1
 44
-50.0
176
     1
173
     0
176
     1
  0
VISUALSTYLE
  5
264
102
{ACAD_REACTORS
330
255
102
}
330
255
100
AcDbVisualStyle
  2
Facepattern
 70
    15
177
     2
291
     1
 71
     2
176
     1
 72
     2
176
     1
 73
     0
176
     1
 90
        0
176
     1
 40
-0.6
176
     1
 41
-30.0
176
     1
 62
     5
 63
     7
421
 16777215
176
     1
 74
     1
176
     1
 91
        4
176
     1
 64
     7
176
     1
 65
   257
176
     1
 75
     1
176
     1
175
     1
176
     1
 42
1.0
176
     1
 92
        8
176
     1
 66
     7
176
     1
 43
1.0
176
     1
 76
     1
176
     1
 77
     6
176
     1
 78
     2
176
     1
 67
     7
176
     1
 79
     5
176
     1
170
     0
176
     1
171
     0
176
     1
290
     0
176
     1
 93
        1
176
     1
 44
0.0
176
     1
173
     0
176
     1
  0
VISUALSTYLE
  5
256
102
{ACAD_REACTORS
330
255
102
}
330
255
100
AcDbVisualStyle
  2
Flat
 70
     0
177
     2
291
     1
 71
     2
176
     1
 72
     1
176
     1
 73
     1
176
     1
 90
        2
176
     1
 40
-0.6
176
     1
 41
30.0
176
     1
 62
     5
 63
     7
421
 16777215
176
     1
 74
     0
176
     1
 91
        4
176
     1
 64
     7
176
     1
 65
   257
176
     1
 75
     1
176
     1
175
     1
176
     1
 42
1.0
176
     1
 92
        8
176
     1
 66
     7
176
     1
 43
1.0
176
     1
 76
     1
176
     1
 77
     6
176
     1
 78
     2
176
     1
 67
     7
176
     1
 79
     5
176
     1
170
     0
176
     1
171
     0
176
     1
290
     0
176
     1
 93
       13
176
     1
 44
0.0
176
     1
173
     0
176
     1
  0
VISUALSTYLE
  5
257
102
{ACAD_REACTORS
330
255
102
}
330
255
100
AcDbVisualStyle
  2
FlatWithEdges
 70
     1
177
     2
291
     1
 71
     2
176
     1
 72
     1
176
     1
 73
     1
176
     1
 90
        2
176
     1
 40
-0.6
176
     1
 41
30.0
176
     1
 62
     5
 63
     7
421
 16777215
176
     1
 74
     1
176
     1
 91
        4
176
     1
 64
     7
176
     1
 65
   257
176
     1
 75
     1
176
     1
175
     1
176
     1
 42
1.0
176
     1
 92
        0
176
     1
 66
   257
176
     1
 43
1.0
176
     1
 76
     1
176
     1
 77
     6
176
     1
 78
     2
176
     1
 67
     7
176
     1
 79
     5
176
     1
170
     0
176
     1
171
     0
176
     1
290
     0
176
     1
 93
       13
176
     1
 44
0.0
176
     1
173
     0
176
     1
  0
VISUALSTYLE
  5
258
102
{ACAD_REACTORS
330
255
102
}
330
255
100
AcDbVisualStyle
  2
Gouraud
 70
     2
177
     2
291
     1
 71
     2
176
     1
 72
     2
176
     1
 73
     1
176
     1
 90
        2
176
     1
 40
-0.6
176
     1
 41
30.0
176
     1
 62
     5
 63
     7
421
 16777215
176
     1
 74
     0
176
     1
 91
        4
176
     1
 64
     7
176
     1
 65
   257
176
     1
 75
     1
176
     1
175
     1
176
     1
 42
1.0
176
     1
 92
        0
176
     1
 66
     7
176
     1
 43
1.0
176
     1
 76
     1
176
     1
 77
     6
176
     1
 78
     2
176
     1
 67
     7
176
     1
 79
     5
176
     1
170
     0
176
     1
171
     0
176
     1
290
     0
176
     1
 93
       13
176
     1
 44
0.0
176
     1
173
     0
176
     1
  0
VISUALSTYLE
  5
259
102
{ACAD_REACTORS
330
255
102
}
330
255
100
AcDbVisualStyle
  2
GouraudWithEdges
 70
     3
177
     2
291
     1
 71
     2
176
     1
 72
     2
176
     1
 73
     1
176
     1
 90
        2
176
     1
 40
-0.6
176
     1
 41
30.0
176
     1
 62
     5
 63
     7
421
 16777215
176
     1
 74
     1
176
     1
 91
        4
176
     1
 64
     7
176
     1
 65
   257
176
     1
 75
     1
176
     1
175
     1
176
     1
 42
1.0
176
     1
 92
        0
176
     1
 66
   257
176
     1
 43
1.0
176
     1
 76
     1
176
     1
 77
     6
176
     1
 78
     2
176
     1
 67
     7
176
     1
 79
     5
176
     1
170
     0
176
     1
171
     0
176
     1
290
     0
176
     1
 93
       13
176
     1
 44
0.0
176
     1
173
     0
176
     1
  0
VISUALSTYLE
  5
263
102
{ACAD_REACTORS
330
255
102
}
330
255
100
AcDbVisualStyle
  2
Linepattern
 70
    14
177
     2
291
     1
 71
     2
176
     1
 72
     2
176
     1
 73
     0
176
     1
 90
        0
176
     1
 40
-0.6
176
     1
 41
-30.0
176
     1
 62
     5
 63
     7
421
 16777215
176
     1
 74
     1
176
     1
 91
        4
176
     1
 64
     7
176
     1
 65
   257
176
     1
 75
     7
176
     1
175
     7
176
     1
 42
1.0
176
     1
 92
        8
176
     1
 66
     7
176
     1
 43
1.0
176
     1
 76
     1
176
     1
 77
     6
176
     1
 78
     2
176
     1
 67
     7
176
     1
 79
     5
176
     1
170
     0
176
     1
171
     0
176
     1
290
     0
176
     1
 93
        1
176
     1
 44
0.0
176
     1
173
     0
176
     1
  0
VISUALSTYLE
  5
25E
102
{ACAD_REACTORS
330
255
102
}
330
255
100
AcDbVisualStyle
  2
Realistic
 70
     8
177
     2
291
     0
 71
     2
176
     1
 72
     2
176
     1
 73
     0
176
     1
 90
        0
176
     1
 40
-0.6
176
     1
 41
-30.0
176
     1
 62
     5
 63
     7
421
 16777215
176
     1
 74
     1
176
     1
 91
        0
176
     1
 64
     7
176
     1
 65
   257
176
     1
 75
     1
176
     1
175
     1
176
     1
 42
1.0
176
     1
 92
        8
176
     1
 66
     8
424
  7895160
176
     1
 43
1.0
176
     1
 76
     1
176
     1
 77
     6
176
     1
 78
     2
176
     1
 67
     7
176
     1
 79
     5
176
     1
170
     0
176
     1
171
     0
176
     1
290
     0
176
     1
 93
       13
176
     1
 44
0.0
176
     1
173
     0
176
     1
  0
VISUALSTYLE
  5
262
102
{ACAD_REACTORS
330
255
102
}
330
255
100
AcDbVisualStyle
  2
Thicken
 70
    13
177
     2
291
     1
 71
     2
176
     1
 72
     2
176
     1
 73
     0
176
     1
 90
        0
176
     1
 40
-0.6
176
     1
 41
-30.0
176
     1
 62
     5
 63
     7
421
 16777215
176
     1
 74
     1
176
     1
 91
        4
176
     1
 64
     7
176
     1
 65
   257
176
     1
 75
     1
176
     1
175
     1
176
     1
 42
1.0
176
     1
 92
       12
176
     1
 66
     7
176
     1
 43
1.0
176
     1
 76
     1
176
     1
 77
     6
176
     1
 78
     2
176
     1
 67
     7
176
     1
 79
     5
176
     1
170
     0
176
     1
171
     0
176
     1
290
     0
176
     1
 93
        1
176
     1
 44
0.0
176
     1
173
     0
176
     1
  0
XRECORD
  5
27D
102
{ACAD_REACTORS
330
26B
102
}
330
26B
100
AcDbXrecord
280
     1
1000
White
  0
XRECORD
  5
277
102
{ACAD_REACTORS
330
26B
102
}
330
26B
100
AcDbXrecord
280
     1
1000
FullColor
  0
XRECORD
  5
27E
102
{ACAD_REACTORS
330
26B
102
}
330
26B
100
AcDbXrecord
280
     1
290
     1
  0
XRECORD
  5
275
102
{ACAD_REACTORS
330
26B
102
}
330
26B
100
AcDbXrecord
280
     1
1000
auto
  0
XRECORD
  5
276
102
{ACAD_REACTORS
330
26B
102
}
330
26B
100
AcDbXrecord
280
     1
1000
auto
  0
XRECORD
  5
26F
102
{ACAD_REACTORS
330
26B
102
}
330
26B
100
AcDbXrecord
280
     1
1000
auto
  0
XRECORD
  5
273
102
{ACAD_REACTORS
330
26B
102
}
330
26B
100
AcDbXrecord
280
     1
1000
auto
  0
XRECORD
  5
274
102
{ACAD_REACTORS
330
26B
102
}
330
26B
100
AcDbXrecord
280
     1
 90
        1
  0
XRECORD
  5
270
102
{ACAD_REACTORS
330
26B
102
}
330
26B
100
AcDbXrecord
280
     1
 40
10.0
  0
XRECORD
  5
27A
102
{ACAD_REACTORS
330
26B
102
}
330
26B
100
AcDbXrecord
280
     1
1000
10
  0
XRECORD
  5
278
102
{ACAD_REACTORS
330
26B
102
}
330
26B
100
AcDbXrecord
280
     1
 40
10.0
  0
XRECORD
  5
26C
102
{ACAD_REACTORS
330
26B
102
}
330
26B
100
AcDbXrecord
280
     1
 40
10.0
  0
XRECORD
  5
282
102
{ACAD_REACTORS
330
26B
102
}
330
26B
100
AcDbXrecord
280
     1
 40
10.0
  0
XRECORD
  5
26E
102
{ACAD_REACTORS
330
26B
102
}
330
26B
100
AcDbXrecord
280
     1
290
     0
  0
XRECORD
  5
279
102
{ACAD_REACTORS
330
26B
102
}
330
26B
100
AcDbXrecord
280
     1
 90
        1
  0
XRECORD
  5
280
102
{ACAD_REACTORS
330
26B
102
}
330
26B
100
AcDbXrecord
280
     1
 40
-150.0
  0
XRECORD
  5
281
102
{ACAD_REACTORS
330
26B
102
}
330
26B
100
AcDbXrecord
280
     1
 40
-232.5
  0
XRECORD
  5
26D
102
{ACAD_REACTORS
330
26B
102
}
330
26B
100
AcDbXrecord
280
     1
1000
Portrait
  0
XRECORD
  5
271
102
{ACAD_REACTORS
330
26B
102
}
330
26B
100
AcDbXrecord
280
     1
 40
297.0
  0
XRECORD
  5
27B
102
{ACAD_REACTORS
330
26B
102
}
330
26B
100
AcDbXrecord
280
     1
 40
210.0
  0
XRECORD
  5
272
102
{ACAD_REACTORS
330
26B
102
}
330
26B
100
AcDbXrecord
280
     1
1000
1:5
  0
XRECORD
  5
27F
102
{ACAD_REACTORS
330
26B
102
}
330
26B
100
AcDbXrecord
280
     1
290
     1
  0
XRECORD
  5
27C
102
{ACAD_REACTORS
330
26B
102
}
330
26B
100
AcDbXrecord
280
     1
 90
        4
  0
ENDSEC
  0
EOF
