  0
SECTION
  2
HEADER
  9
$ACADVER
  1
AC1024
  9
$ACADMAINTVER
 70
     6
  9
$DWGCODEPAGE
  3
ASCII
  9
$INSBASE
 10
0.0
 20
0.0
 30
0.0
  9
$EXTMIN
 10
1.000000000000000E+20
 20
1.000000000000000E+20
 30
1.000000000000000E+20
  9
$EXTMAX
 10
-1.000000000000000E+20
 20
-1.000000000000000E+20
 30
-1.000000000000000E+20
  9
$LIMMIN
 10
0.0
 20
0.0
  9
$LIMMAX
 10
12.0
 20
9.0
  9
$ORTHOMODE
 70
     0
  9
$REGENMODE
 70
     1
  9
$FILLMODE
 70
     1
  9
$QTEXTMODE
 70
     0
  9
$MIRRTEXT
 70
     1
  9
$LTSCALE
 40
1.0
  9
$ATTMODE
 70
     1
  9
$TEXTSIZE
 40
0.2
  9
$TRACEWID
 40
0.05
  9
$TEXTSTYLE
  7
Standard
  9
$CLAYER
  8
0
  9
$CELTYPE
  6
ByLayer
  9
$CECOLOR
 62
   178
  9
$CELTSCALE
 40
1.0
  9
$DISPSILH
 70
     0
  9
$DIMSCALE
 40
1.0
  9
$DIMASZ
 40
2.5
  9
$DIMEXO
 40
0.625
  9
$DIMDLI
 40
0.38
  9
$DIMRND
 40
0.0
  9
$DIMDLE
 40
0.0
  9
$DIMEXE
 40
1.25
  9
$DIMTP
 40
0.0
  9
$DIMTM
 40
0.0
  9
$DIMTXT
 40
2.5
  9
$DIMCEN
 40
0.09
  9
$DIMTSZ
 40
0.0
  9
$DIMTOL
 70
     0
  9
$DIMLIM
 70
     0
  9
$DIMTIH
 70
     1
  9
$DIMTOH
 70
     1
  9
$DIMSE1
 70
     0
  9
$DIMSE2
 70
     0
  9
$DIMTAD
 70
     0
  9
$DIMZIN
 70
     8
  9
$DIMBLK
  1

  9
$DIMASO
 70
     1
  9
$DIMSHO
 70
     1
  9
$DIMPOST
  1

  9
$DIMAPOST
  1

  9
$DIMALT
 70
     0
  9
$DIMALTD
 70
     2
  9
$DIMALTF
 40
25.4
  9
$DIMLFAC
 40
1.0
  9
$DIMTOFL
 70
     0
  9
$DIMTVP
 40
0.0
  9
$DIMTIX
 70
     0
  9
$DIMSOXD
 70
     0
  9
$DIMSAH
 70
     0
  9
$DIMBLK1
  1

  9
$DIMBLK2
  1

  9
$DIMSTYLE
  2
Standard
  9
$DIMCLRD
 70
   178
  9
$DIMCLRE
 70
   178
  9
$DIMCLRT
 70
   178
  9
$DIMTFAC
 40
1.0
  9
$DIMGAP
 40
0.625
  9
$DIMJUST
 70
     0
  9
$DIMSD1
 70
     0
  9
$DIMSD2
 70
     0
  9
$DIMTOLJ
 70
     1
  9
$DIMTZIN
 70
     0
  9
$DIMALTZ
 70
     0
  9
$DIMALTTZ
 70
     0
  9
$DIMUPT
 70
     0
  9
$DIMDEC
 70
     4
  9
$DIMTDEC
 70
     4
  9
$DIMALTU
 70
     2
  9
$DIMALTTD
 70
     2
  9
$DIMTXSTY
  7
Standard
  9
$DIMAUNIT
 70
     0
  9
$DIMADEC
 70
     0
  9
$DIMALTRND
 40
0.0
  9
$DIMAZIN
 70
     2
  9
$DIMDSEP
 70
    46
  9
$DIMATFIT
 70
     3
  9
$DIMFRAC
 70
     0
  9
$DIMLDRBLK
  1

  9
$DIMLUNIT
 70
     2
  9
$DIMLWD
 70
    -2
  9
$DIMLWE
 70
    -2
  9
$DIMTMOVE
 70
     0
  9
$DIMFXL
 40
1.0
  9
$DIMFXLON
 70
     0
  9
$DIMJOGANG
 40
0.7853981633974483
  9
$DIMTFILL
 70
     0
  9
$DIMTFILLCLR
 70
     0
  9
$DIMARCSYM
 70
     0
  9
$DIMLTYPE
  6

  9
$DIMLTEX1
  6

  9
$DIMLTEX2
  6

  9
$DIMTXTDIRECTION
 70
     0
  9
$LUNITS
 70
     2
  9
$LUPREC
 70
     4
  9
$SKETCHINC
 40
0.1
  9
$FILLETRAD
 40
0.5
  9
$AUNITS
 70
     0
  9
$AUPREC
 70
     0
  9
$MENU
  1
.
  9
$ELEVATION
 40
0.0
  9
$PELEVATION
 40
0.0
  9
$THICKNESS
 40
0.0
  9
$LIMCHECK
 70
     0
  9
$CHAMFERA
 40
0.5
  9
$CHAMFERB
 40
0.5
  9
$CHAMFERC
 40
1.0
  9
$CHAMFERD
 40
0.0
  9
$SKPOLY
 70
     0
  9
$TDCREATE
 40
2456199.522928229
  9
$TDUCREATE
 40
2456199.481261574
  9
$TDUPDATE
 40
2456199.522928229
  9
$TDUUPDATE
 40
2456199.481261574
  9
$TDINDWG
 40
0.0000000116
  9
$TDUSRTIMER
 40
0.0000000116
  9
$USRTIMER
 70
     1
  9
$ANGBASE
 50
0.0
  9
$ANGDIR
 70
     0
  9
$PDMODE
 70
     0
  9
$PDSIZE
 40
0.0
  9
$PLINEWID
 40
0.0
  9
$SPLFRAME
 70
     0
  9
$SPLINETYPE
 70
     6
  9
$SPLINESEGS
 70
     8
  9
$HANDSEED
  5
1D2
  9
$SURFTAB1
 70
     6
  9
$SURFTAB2
 70
     6
  9
$SURFTYPE
 70
     6
  9
$SURFU
 70
     6
  9
$SURFV
 70
     6
  9
$UCSBASE
  2

  9
$UCSNAME
  2

  9
$UCSORG
 10
0.0
 20
0.0
 30
0.0
  9
$UCSXDIR
 10
1.0
 20
0.0
 30
0.0
  9
$UCSYDIR
 10
0.0
 20
1.0
 30
0.0
  9
$UCSORTHOREF
  2

  9
$UCSORTHOVIEW
 70
     0
  9
$UCSORGTOP
 10
0.0
 20
0.0
 30
0.0
  9
$UCSORGBOTTOM
 10
0.0
 20
0.0
 30
0.0
  9
$UCSORGLEFT
 10
0.0
 20
0.0
 30
0.0
  9
$UCSORGRIGHT
 10
0.0
 20
0.0
 30
0.0
  9
$UCSORGFRONT
 10
0.0
 20
0.0
 30
0.0
  9
$UCSORGBACK
 10
0.0
 20
0.0
 30
0.0
  9
$PUCSBASE
  2

  9
$PUCSNAME
  2

  9
$PUCSORG
 10
0.0
 20
0.0
 30
0.0
  9
$PUCSXDIR
 10
1.0
 20
0.0
 30
0.0
  9
$PUCSYDIR
 10
0.0
 20
1.0
 30
0.0
  9
$PUCSORTHOREF
  2

  9
$PUCSORTHOVIEW
 70
     0
  9
$PUCSORGTOP
 10
0.0
 20
0.0
 30
0.0
  9
$PUCSORGBOTTOM
 10
0.0
 20
0.0
 30
0.0
  9
$PUCSORGLEFT
 10
0.0
 20
0.0
 30
0.0
  9
$PUCSORGRIGHT
 10
0.0
 20
0.0
 30
0.0
  9
$PUCSORGFRONT
 10
0.0
 20
0.0
 30
0.0
  9
$PUCSORGBACK
 10
0.0
 20
0.0
 30
0.0
  9
$USERI1
 70
     0
  9
$USERI2
 70
     0
  9
$USERI3
 70
     0
  9
$USERI4
 70
     0
  9
$USERI5
 70
     0
  9
$USERR1
 40
0.0
  9
$USERR2
 40
0.0
  9
$USERR3
 40
0.0
  9
$USERR4
 40
0.0
  9
$USERR5
 40
0.0
  9
$WORLDVIEW
 70
     1
  9
$SHADEDGE
 70
     3
  9
$SHADEDIF
 70
    70
  9
$TILEMODE
 70
     1
  9
$MAXACTVP
 70
    64
  9
$PINSBASE
 10
0.0
 20
0.0
 30
0.0
  9
$PLIMCHECK
 70
     0
  9
$PEXTMIN
 10
1.000000000000000E+20
 20
1.000000000000000E+20
 30
1.000000000000000E+20
  9
$PEXTMAX
 10
-1.000000000000000E+20
 20
-1.000000000000000E+20
 30
-1.000000000000000E+20
  9
$PLIMMIN
 10
0.0
 20
0.0
  9
$PLIMMAX
 10
12.0
 20
9.0
  9
$UNITMODE
 70
     0
  9
$VISRETAIN
 70
     1
  9
$PLINEGEN
 70
     0
  9
$PSLTSCALE
 70
     1
  9
$TREEDEPTH
 70
  3020
  9
$CMLSTYLE
  2
Standard
  9
$CMLJUST
 70
     0
  9
$CMLSCALE
 40
1.0
  9
$PROXYGRAPHICS
 70
     1
  9
$MEASUREMENT
 70
     1
  9
$CELWEIGHT
370
    -1
  9
$ENDCAPS
280
     0
  9
$JOINSTYLE
280
     0
  9
$LWDISPLAY
290
     0
  9
$INSUNITS
 70
     4
  9
$HYPERLINKBASE
  1

  9
$STYLESHEET
  1

  9
$XEDIT
290
     1
  9
$CEPSNTYPE
380
     0
  9
$PSTYLEMODE
290
     1
  9
$FINGERPRINTGUID
  2
{F814987F-A705-32AF-CFB3-F9A421FFC2DB}
  9
$VERSIONGUID
  2
{FAEB1C32-E019-11D5-929B-00C0DF256EC4}
  9
$EXTNAMES
290
     1
  9
$PSVPSCALE
 40
0.0
  9
$OLESTARTUP
290
     0
  9
$SORTENTS
280
   127
  9
$INDEXCTL
280
     0
  9
$HIDETEXT
280
     1
  9
$XCLIPFRAME
280
     2
  9
$HALOGAP
280
     0
  9
$OBSCOLOR
 70
   257
  9
$OBSLTYPE
280
     0
  9
$INTERSECTIONDISPLAY
280
     0
  9
$INTERSECTIONCOLOR
 70
   257
  9
$DIMASSOC
280
     2
  9
$PROJECTNAME
  1

  9
$CAMERADISPLAY
290
     0
  9
$LENSLENGTH
 40
50.0
  9
$CAMERAHEIGHT
 40
0.0
  9
$STEPSPERSEC
 40
2.0
  9
$STEPSIZE
 40
6.0
  9
$3DDWFPREC
 40
2.0
  9
$PSOLWIDTH
 40
0.25
  9
$PSOLHEIGHT
 40
4.0
  9
$LOFTANG1
 40
1.570796326794897
  9
$LOFTANG2
 40
1.570796326794897
  9
$LOFTMAG1
 40
0.0
  9
$LOFTMAG2
 40
0.0
  9
$LOFTPARAM
 70
     7
  9
$LOFTNORMALS
280
     1
  9
$LATITUDE
 40
37.795
  9
$LONGITUDE
 40
-122.394
  9
$NORTHDIRECTION
 40
0.0
  9
$TIMEZONE
 70
 -8000
  9
$LIGHTGLYPHDISPLAY
280
     1
  9
$TILEMODELIGHTSYNCH
280
     1
  9
$CMATERIAL
347
138
  9
$SOLIDHIST
280
     1
  9
$SHOWHIST
280
     1
  9
$DWFFRAME
280
     2
  9
$DGNFRAME
280
     2
  9
$REALWORLDSCALE
290
     1
  9
$INTERFERECOLOR
 62
   256
  9
$CSHADOW
280
     0
  9
$SHADOWPLANELOCATION
 40
0.0
  0
ENDSEC
  0
SECTION
  2
CLASSES
  0
CLASS
  1
ACDBDICTIONARYWDFLT
  2
AcDbDictionaryWithDefault
  3
ObjectDBX Classes
 90
        0
 91
        4
280
     0
281
     0
  0
CLASS
  1
VISUALSTYLE
  2
AcDbVisualStyle
  3
ObjectDBX Classes
 90
     4095
 91
        4
280
     0
281
     0
  0
CLASS
  1
MATERIAL
  2
AcDbMaterial
  3
ObjectDBX Classes
 90
     1153
 91
        4
280
     0
281
     0
  0
CLASS
  1
SCALE
  2
AcDbScale
  3
ObjectDBX Classes
 90
     1153
 91
        4
280
     0
281
     0
  0
CLASS
  1
SUN
  2
AcDbSun
  3
SCENEOE
 90
     1153
 91
        4
280
     0
281
     0
  0
CLASS
  1
DICTIONARYVAR
  2
AcDbDictionaryVar
  3
ObjectDBX Classes
 90
        0
 91
        4
280
     0
281
     0
  0
ENDSEC
  0
SECTION
  2
TABLES
  0
TABLE
  2
VPORT
  5
105
330
0
100
AcDbSymbolTable
 70
     1
  0
VPORT
  5
125
330
105
100
AcDbSymbolTableRecord
100
AcDbViewportTableRecord
  2
*Active
 70
     0
 10
0.0
 20
0.0
 11
1.0
 21
1.0
 12
10.42990654205607
 22
4.5
 13
0.0
 23
0.0
 14
0.5
 24
0.5
 15
0.5
 25
0.5
 16
0.0
 26
0.0
 36
1.0
 17
0.0
 27
0.0
 37
0.0
 40
9.0
 41
1.972972972850329
 42
50.0
 43
0.0
 44
0.0
 50
0.0
 51
0.0
 71
     0
 72
   100
 73
     1
 74
     3
 75
     0
 76
     0
 77
     0
 78
     0
281
     0
 65
     1
110
0.0
120
0.0
130
0.0
111
1.0
121
0.0
131
0.0
112
0.0
122
1.0
132
0.0
 79
     0
146
0.0
 60
     3
 61
     5
292
     1
282
     1
141
0.0
142
0.0
 63
   250
361
15D
  0
ENDTAB
  0
TABLE
  2
LTYPE
  5
102
330
0
100
AcDbSymbolTable
 70
    19
  0
LTYPE
  5
110
330
102
100
AcDbSymbolTableRecord
100
AcDbLinetypeTableRecord
  2
ByBlock
 70
     0
  3

 72
    65
 73
     0
 40
0.0
  0
LTYPE
  5
111
330
102
100
AcDbSymbolTableRecord
100
AcDbLinetypeTableRecord
  2
ByLayer
 70
     0
  3

 72
    65
 73
     0
 40
0.0
  0
LTYPE
  5
112
330
102
100
AcDbSymbolTableRecord
100
AcDbLinetypeTableRecord
  2
Continuous
 70
     0
  3
Solid line
 72
    65
 73
     0
 40
0.0
  0
LTYPE
  5
18C
330
102
100
AcDbSymbolTableRecord
100
AcDbLinetypeTableRecord
  2
BORDER
 70
     0
  3

 72
    65
 73
     6
 40
42.00000000000001
 49
12.0
 74
     0
 49
-6.0
 74
     0
 49
12.0
 74
     0
 49
-5.95
 74
     0
 49
0.1
 74
     0
 49
-5.95
 74
     0
  0
LTYPE
  5
18D
330
102
100
AcDbSymbolTableRecord
100
AcDbLinetypeTableRecord
  2
BORDER2
 70
     0
  3

 72
    65
 73
     6
 40
21.0
 49
6.0
 74
     0
 49
-3.0
 74
     0
 49
6.0
 74
     0
 49
-2.95
 74
     0
 49
0.1
 74
     0
 49
-2.95
 74
     0
  0
LTYPE
  5
18E
330
102
100
AcDbSymbolTableRecord
100
AcDbLinetypeTableRecord
  2
BORDERX2
 70
     0
  3

 72
    65
 73
     6
 40
84.0
 49
24.0
 74
     0
 49
-12.0
 74
     0
 49
24.0
 74
     0
 49
-11.95
 74
     0
 49
0.1
 74
     0
 49
-11.95
 74
     0
  0
LTYPE
  5
18F
330
102
100
AcDbSymbolTableRecord
100
AcDbLinetypeTableRecord
  2
CENTER
 70
     0
  3

 72
    65
 73
     4
 40
50.0
 49
32.0
 74
     0
 49
-6.0
 74
     0
 49
6.0
 74
     0
 49
-6.0
 74
     0
  0
LTYPE
  5
190
330
102
100
AcDbSymbolTableRecord
100
AcDbLinetypeTableRecord
  2
CENTER2
 70
     0
  3

 72
    65
 73
     4
 40
25.0
 49
16.0
 74
     0
 49
-3.0
 74
     0
 49
3.0
 74
     0
 49
-3.0
 74
     0
  0
LTYPE
  5
191
330
102
100
AcDbSymbolTableRecord
100
AcDbLinetypeTableRecord
  2
CENTERX2
 70
     0
  3

 72
    65
 73
     4
 40
100.0
 49
64.0
 74
     0
 49
-12.0
 74
     0
 49
12.0
 74
     0
 49
-12.0
 74
     0
  0
LTYPE
  5
192
330
102
100
AcDbSymbolTableRecord
100
AcDbLinetypeTableRecord
  2
DASHDOT
 70
     0
  3

 72
    65
 73
     4
 40
24.0
 49
12.0
 74
     0
 49
-5.95
 74
     0
 49
0.1
 74
     0
 49
-5.95
 74
     0
  0
LTYPE
  5
193
330
102
100
AcDbSymbolTableRecord
100
AcDbLinetypeTableRecord
  2
DASHDOT2
 70
     0
  3

 72
    65
 73
     4
 40
12.0
 49
6.0
 74
     0
 49
-2.95
 74
     0
 49
0.1
 74
     0
 49
-2.95
 74
     0
  0
LTYPE
  5
194
330
102
100
AcDbSymbolTableRecord
100
AcDbLinetypeTableRecord
  2
DASHDOTX2
 70
     0
  3

 72
    65
 73
     4
 40
48.0
 49
24.0
 74
     0
 49
-11.95
 74
     0
 49
0.1
 74
     0
 49
-11.95
 74
     0
  0
LTYPE
  5
195
330
102
100
AcDbSymbolTableRecord
100
AcDbLinetypeTableRecord
  2
DASHED
 70
     0
  3

 72
    65
 73
     2
 40
18.0
 49
12.0
 74
     0
 49
-6.0
 74
     0
  0
LTYPE
  5
196
330
102
100
AcDbSymbolTableRecord
100
AcDbLinetypeTableRecord
  2
DASHED2
 70
     0
  3

 72
    65
 73
     2
 40
9.0
 49
6.0
 74
     0
 49
-3.0
 74
     0
  0
LTYPE
  5
197
330
102
100
AcDbSymbolTableRecord
100
AcDbLinetypeTableRecord
  2
DASHEDX2
 70
     0
  3

 72
    65
 73
     2
 40
36.0
 49
24.0
 74
     0
 49
-12.0
 74
     0
  0
LTYPE
  5
198
330
102
100
AcDbSymbolTableRecord
100
AcDbLinetypeTableRecord
  2
DIVIDE
 70
     0
  3

 72
    65
 73
     6
 40
29.99999999999999
 49
12.0
 74
     0
 49
-5.9
 74
     0
 49
0.15
 74
     0
 49
-5.9
 74
     0
 49
0.15
 74
     0
 49
-5.9
 74
     0
  0
LTYPE
  5
199
330
102
100
AcDbSymbolTableRecord
100
AcDbLinetypeTableRecord
  2
DIVIDE2
 70
     0
  3

 72
    65
 73
     6
 40
15.0
 49
6.0
 74
     0
 49
-2.9
 74
     0
 49
0.15
 74
     0
 49
-2.9
 74
     0
 49
0.15
 74
     0
 49
-2.9
 74
     0
  0
LTYPE
  5
19A
330
102
100
AcDbSymbolTableRecord
100
AcDbLinetypeTableRecord
  2
DIVIDEX2
 70
     0
  3

 72
    65
 73
     6
 40
59.99999999999999
 49
24.0
 74
     0
 49
-11.9
 74
     0
 49
0.15
 74
     0
 49
-11.9
 74
     0
 49
0.15
 74
     0
 49
-11.9
 74
     0
  0
LTYPE
  5
19B
330
102
100
AcDbSymbolTableRecord
100
AcDbLinetypeTableRecord
  2
DOT
 70
     0
  3

 72
    65
 73
     2
 40
6.3
 49
0.1
 74
     0
 49
-6.2
 74
     0
  0
LTYPE
  5
19C
330
102
100
AcDbSymbolTableRecord
100
AcDbLinetypeTableRecord
  2
DOT2
 70
     0
  3

 72
    65
 73
     2
 40
3.2
 49
0.1
 74
     0
 49
-3.1
 74
     0
  0
LTYPE
  5
19D
330
102
100
AcDbSymbolTableRecord
100
AcDbLinetypeTableRecord
  2
DOTX2
 70
     0
  3

 72
    65
 73
     2
 40
12.5
 49
0.1
 74
     0
 49
-12.4
 74
     0
  0
ENDTAB
  0
TABLE
  2
LAYER
  5
FF
330
0
100
AcDbSymbolTable
 70
     5
  0
LAYER
  5
10D
330
FF
100
AcDbSymbolTableRecord
100
AcDbLayerTableRecord
  2
0
 70
     0
 62
     7
420
 16777215
  6
Continuous
370
    25
390
10C
347
13A
  0
LAYER
  5
19E
330
FF
100
AcDbSymbolTableRecord
100
AcDbLayerTableRecord
  2
center
 70
     0
 62
     1
420
 16711680
  6
DASHDOT
370
    13
390
10C
347
13A
  0
LAYER
  5
19F
330
FF
100
AcDbSymbolTableRecord
100
AcDbLayerTableRecord
  2
text
 70
     0
 62
   178
420
        0
  6
Continuous
370
     5
390
10C
347
13A
  0
LAYER
  5
1A0
330
FF
100
AcDbSymbolTableRecord
100
AcDbLayerTableRecord
  2
dim
 70
     0
 62
     4
420
    65535
  6
Continuous
370
    13
390
10C
347
13A
  0
LAYER
  5
1A1
330
FF
100
AcDbSymbolTableRecord
100
AcDbLayerTableRecord
  2
Defpoints
 70
     0
 62
     7
420
 16777215
  6
Continuous
290
     0
370
    -3
390
10C
347
13A
  0
ENDTAB
  0
TABLE
  2
STYLE
  5
100
330
0
100
AcDbSymbolTable
 70
     1
  0
STYLE
  5
10E
330
100
100
AcDbSymbolTableRecord
100
AcDbTextStyleTableRecord
  2
Standard
 70
     0
 40
0.0
 41
1.0
 50
0.0
 71
     0
 42
0.2
  3
txt
  4

  0
ENDTAB
  0
TABLE
  2
VIEW
  5
103
330
0
100
AcDbSymbolTable
 70
     1
  0
VIEW
  5
1A2
330
103
100
AcDbSymbolTableRecord
100
AcDbViewTableRecord
  2
bug
 70
     0
 40
67.75865823566168
 10
13.43508557144879
 20
49.45430595949126
 41
76.3195639804899
 11
0.0
 21
0.0
 31
1.0
 12
0.0
 22
0.0
 32
0.0
 42
50.0
 43
0.0
 44
0.0
 50
0.0
 71
     0
281
     0
 72
     0
 73
     0
  0
ENDTAB
  0
TABLE
  2
UCS
  5
104
330
0
100
AcDbSymbolTable
 70
     0
  0
ENDTAB
  0
TABLE
  2
APPID
  5
106
330
0
100
AcDbSymbolTable
 70
     2
  0
APPID
  5
10F
330
106
100
AcDbSymbolTableRecord
100
AcDbRegAppTableRecord
  2
ACAD
 70
     0
  0
APPID
  5
15E
330
106
100
AcDbSymbolTableRecord
100
AcDbRegAppTableRecord
  2
QCAD
 70
     0
  0
ENDTAB
  0
TABLE
  2
DIMSTYLE
  5
107
330
0
100
AcDbSymbolTable
 70
     2
100
AcDbDimStyleTable
  0
DIMSTYLE
105
123
330
107
100
AcDbSymbolTableRecord
100
AcDbDimStyleTableRecord
  2
Standard
 70
     0
178
     0
340
10E
  0
DIMSTYLE
105
18B
102
{ACAD_REACTORS
330
F9
330
FA
330
FB
102
}
330
107
100
AcDbSymbolTableRecord
100
AcDbDimStyleTableRecord
  2
QCADDimStyle
 70
     0
 41
2.5
 42
0.625
 44
1.25
 73
     0
 77
     1
140
2.5
147
0.625
178
     0
340
10E
  0
ENDTAB
  0
TABLE
  2
BLOCK_RECORD
  5
FE
330
0
100
AcDbSymbolTable
 70
     4
  0
BLOCK_RECORD
  5
11B
330
FE
100
AcDbSymbolTableRecord
100
AcDbBlockTableRecord
  2
*Model_Space
340
11E
 70
     0
280
     1
281
     0
  0
BLOCK_RECORD
  5
117
330
FE
100
AcDbSymbolTableRecord
100
AcDbBlockTableRecord
  2
*Paper_Space
340
11A
 70
     0
280
     1
281
     0
  0
BLOCK_RECORD
  5
11F
330
FE
100
AcDbSymbolTableRecord
100
AcDbBlockTableRecord
  2
*Paper_Space0
340
122
 70
     0
280
     1
281
     0
  0
BLOCK_RECORD
  5
1A3
330
FE
100
AcDbSymbolTableRecord
100
AcDbBlockTableRecord
  2
*D1
340
0
 70
     0
280
     1
281
     0
  0
BLOCK_RECORD
  5
1B1
330
FE
100
AcDbSymbolTableRecord
100
AcDbBlockTableRecord
  2
*D2
340
0
 70
     0
280
     1
281
     0
  0
BLOCK_RECORD
  5
1BF
330
FE
100
AcDbSymbolTableRecord
100
AcDbBlockTableRecord
  2
*D3
340
0
 70
     0
280
     1
281
     0
  0
ENDTAB
  0
ENDSEC
  0
SECTION
  2
BLOCKS
  0
BLOCK
  5
11C
330
11B
100
AcDbEntity
  8
0
100
AcDbBlockBegin
  2
*Model_Space
 70
     0
 10
0.0
 20
0.0
 30
0.0
  3
*Model_Space
  1

  0
ENDBLK
  5
11D
330
11B
100
AcDbEntity
  8
0
100
AcDbBlockEnd
  0
BLOCK
  5
118
330
117
100
AcDbEntity
 67
     1
  8
0
100
AcDbBlockBegin
  2
*Paper_Space
 70
     0
 10
0.0
 20
0.0
 30
0.0
  3
*Paper_Space
  1

  0
ENDBLK
  5
119
330
117
100
AcDbEntity
 67
     1
  8
0
100
AcDbBlockEnd
  0
BLOCK
  5
120
330
11F
100
AcDbEntity
  8
0
100
AcDbBlockBegin
  2
*Paper_Space0
 70
     0
 10
0.0
 20
0.0
 30
0.0
  3
*Paper_Space0
  1

  0
ENDBLK
  5
121
330
11F
100
AcDbEntity
  8
0
100
AcDbBlockEnd
  0
BLOCK
  5
1A4
330
1A3
100
AcDbEntity
  8
0
100
AcDbBlockBegin
  2
*D1
 70
     1
 10
0.0
 20
0.0
 30
0.0
  3
*D1
  1

  0
LINE
  5
1A6
330
1A3
100
AcDbEntity
  8
dim
 62
     0
370
    -2
100
AcDbLine
 10
4.955127018922197
 20
-7.500000000000002
 30
0.0
 11
30.5801270189222
 21
-7.5
 31
0.0
  0
LINE
  5
1A7
330
1A3
100
AcDbEntity
  8
dim
 62
     0
370
    -2
100
AcDbLine
 10
17.86177395305404
 20
0.3125000000000002
 30
0.0
 11
27.06329386826371
 21
5.625000000000005
 31
0.0
  0
ARC
  5
1A8
330
1A3
100
AcDbEntity
  8
dim
 62
     0
370
    -2
100
AcDbCircle
 10
4.330127018922195
 20
-7.500000000000002
 30
0.0
 40
25.0
100
AcDbArc
 50
5.731967965197727
 51
24.26803203480229
  0
SOLID
  5
1A9
330
1A3
100
AcDbEntity
  8
dim
 62
     0
100
AcDbTrace
 10
28.78898151151724
 20
-5.02396028890356
 30
0.0
 11
29.62127252632716
 21
-4.982293622236894
 31
0.0
 12
29.3301270189222
 22
-7.5
 32
0.0
 13
29.3301270189222
 23
-7.5
 33
0.0
  0
SOLID
  5
1AA
330
1A3
100
AcDbEntity
  8
dim
 62
     0
100
AcDbTrace
 10
27.49175470802512
 20
2.965175071289537
 30
0.0
 11
26.75013621252486
 21
2.585113955708926
 31
0.0
 12
25.98076211353316
 22
5.000000000000005
 32
0.0
 13
25.98076211353316
 23
5.000000000000005
 33
0.0
  0
MTEXT
  5
1AB
330
1A3
100
AcDbEntity
  8
dim
 62
     0
100
AcDbMText
 10
30.34687918533906
 20
-0.5288322673279345
 30
0.0
 40
2.5
 41
0.0
 46
0.0
 71
     5
 72
     1
  1
\A1;30%%d
 11
0.258819045102521
 21
-0.9659258262890682
 31
0.0
 73
     1
 44
1.0
  0
POINT
  5
1AC
330
1A3
100
AcDbEntity
  8
Defpoints
 62
     0
100
AcDbPoint
 10
28.9503208442274
 20
-3.158795558326737
 30
0.0
  0
POINT
  5
1AD
330
1A3
100
AcDbEntity
  8
Defpoints
 62
     0
100
AcDbPoint
 10
4.330127018922195
 20
-7.500000000000002
 30
0.0
  0
POINT
  5
1AE
330
1A3
100
AcDbEntity
  8
Defpoints
 62
     0
100
AcDbPoint
 10
4.330127018922197
 20
-7.500000000000002
 30
0.0
  0
POINT
  5
1AF
330
1A3
100
AcDbEntity
  8
Defpoints
 62
     0
100
AcDbPoint
 10
-45.6698729810778
 20
-7.500000000000004
 30
0.0
  0
POINT
  5
1B0
330
1A3
100
AcDbEntity
  8
Defpoints
 62
     0
100
AcDbPoint
 10
17.32050807568877
 20
0.0
 30
0.0
  0
ENDBLK
  5
1A5
330
1A3
100
AcDbEntity
  8
0
100
AcDbBlockEnd
  0
BLOCK
  5
1B2
330
1B1
100
AcDbEntity
  8
0
100
AcDbBlockBegin
  2
*D2
 70
     1
 10
0.0
 20
0.0
 30
0.0
  3
*D2
  1

  0
LINE
  5
1B4
330
1B1
100
AcDbEntity
  8
dim
 62
     0
370
    -2
100
AcDbLine
 10
-13.53164693413185
 20
2.8125
 30
0.0
 11
-18.40303983041931
 21
5.624999999999996
 31
0.0
  0
LINE
  5
1B5
330
1B1
100
AcDbEntity
  8
dim
 62
     0
370
    -2
100
AcDbLine
 10
3.705127018922195
 20
-7.500000000000003
 30
0.0
 11
-21.9198729810778
 21
-7.500000000000003
 31
0.0
  0
ARC
  5
1B6
330
1B1
100
AcDbEntity
  8
dim
 62
     0
370
    -2
100
AcDbCircle
 10
4.3301270189222
 20
-7.500000000000004
 30
0.0
 40
25.0
100
AcDbArc
 50
155.7319679651977
 51
174.2680320348023
  0
SOLID
  5
1B7
330
1B1
100
AcDbEntity
  8
dim
 62
     0
100
AcDbTrace
 10
-18.08988217468047
 20
2.585113955708917
 30
0.0
 11
-18.83150067018072
 21
2.965175071289528
 31
0.0
 12
-17.32050807568876
 22
4.999999999999996
 32
0.0
 13
-17.32050807568876
 23
4.999999999999996
 33
0.0
  0
SOLID
  5
1B8
330
1B1
100
AcDbEntity
  8
dim
 62
     0
100
AcDbTrace
 10
-20.96101848848276
 20
-4.982293622236898
 30
0.0
 11
-20.12872747367284
 21
-5.023960288903564
 31
0.0
 12
-20.6698729810778
 22
-7.500000000000003
 32
0.0
 13
-20.6698729810778
 23
-7.500000000000003
 33
0.0
  0
MTEXT
  5
1B9
330
1B1
100
AcDbEntity
  8
dim
 62
     0
100
AcDbMText
 10
-21.68662514749467
 20
-0.5288322673279401
 30
0.0
 40
2.5
 41
0.0
 46
0.0
 71
     5
 72
     1
  1
\A1;30%%d
 11
0.2588190451025209
 21
0.9659258262890684
 31
0.0
 73
     1
 44
1.0
  0
POINT
  5
1BA
330
1B1
100
AcDbEntity
  8
Defpoints
 62
     0
100
AcDbPoint
 10
-19.16218850072551
 20
1.050503583141714
 30
0.0
  0
POINT
  5
1BB
330
1B1
100
AcDbEntity
  8
Defpoints
 62
     0
100
AcDbPoint
 10
4.330127018922195
 20
-7.500000000000002
 30
0.0
  0
POINT
  5
1BC
330
1B1
100
AcDbEntity
  8
Defpoints
 62
     0
100
AcDbPoint
 10
4.330127018922195
 20
-7.500000000000003
 30
0.0
  0
POINT
  5
1BD
330
1B1
100
AcDbEntity
  8
Defpoints
 62
     0
100
AcDbPoint
 10
54.3301270189222
 20
-7.500000000000004
 30
0.0
  0
POINT
  5
1BE
330
1B1
100
AcDbEntity
  8
Defpoints
 62
     0
100
AcDbPoint
 10
-12.99038105676658
 20
2.5
 30
0.0
  0
ENDBLK
  5
1B3
330
1B1
100
AcDbEntity
  8
0
100
AcDbBlockEnd
  0
BLOCK
  5
1C0
330
1BF
100
AcDbEntity
  8
0
100
AcDbBlockBegin
  2
*D3
 70
     1
 10
0.0
 20
0.0
 30
0.0
  3
*D3
  1

  0
LINE
  5
1C2
330
1BF
100
AcDbEntity
  8
dim
 62
     0
370
    -2
100
AcDbLine
 10
3.788861141556922
 20
-7.812500000000002
 30
0.0
 11
-18.40303983041931
 21
-20.625
 31
0.0
  0
LINE
  5
1C3
330
1BF
100
AcDbEntity
  8
dim
 62
     0
370
    -2
100
AcDbLine
 10
4.871392896287476
 20
-7.812500000000004
 30
0.0
 11
27.06329386826372
 21
-20.625
 31
0.0
  0
ARC
  5
1C4
330
1BF
100
AcDbEntity
  8
dim
 62
     0
370
    -2
100
AcDbCircle
 10
4.330127018922202
 20
-7.500000000000004
 30
0.0
 40
25.0
100
AcDbArc
 50
215.7319679651977
 51
324.2680320348023
  0
SOLID
  5
1C5
330
1BF
100
AcDbEntity
  8
dim
 62
     0
100
AcDbTrace
 10
-15.61384246358403
 20
-21.87374053688612
 30
0.0
 11
-16.31379429241762
 21
-22.32597043611543
 31
0.0
 12
-17.32050807568876
 22
-20.0
 32
0.0
 13
-17.32050807568876
 23
-20.0
 33
0.0
  0
SOLID
  5
1C6
330
1BF
100
AcDbEntity
  8
dim
 62
     0
100
AcDbTrace
 10
24.97404833026202
 20
-22.32597043611543
 30
0.0
 11
24.27409650142843
 21
-21.87374053688612
 31
0.0
 12
25.98076211353317
 22
-20.0
 32
0.0
 13
25.98076211353317
 23
-20.0
 33
0.0
  0
MTEXT
  5
1C7
330
1BF
100
AcDbEntity
  8
dim
 62
     0
100
AcDbMText
 10
4.330127018922202
 20
-30.56547619047619
 30
0.0
 40
2.5
 41
0.0
 46
0.0
 71
     5
 72
     1
  1
\A1;120%%d
 73
     1
 44
1.0
  0
POINT
  5
1C8
330
1BF
100
AcDbEntity
  8
Defpoints
 62
     0
100
AcDbPoint
 10
-4.220376564219519
 20
-30.99231551964771
 30
0.0
  0
POINT
  5
1C9
330
1BF
100
AcDbEntity
  8
Defpoints
 62
     0
100
AcDbPoint
 10
4.330127018922195
 20
-7.500000000000002
 30
0.0
  0
POINT
  5
1CA
330
1BF
100
AcDbEntity
  8
Defpoints
 62
     0
100
AcDbPoint
 10
38.97114317029973
 20
12.49999999999999
 30
0.0
  0
POINT
  5
1CB
330
1BF
100
AcDbEntity
  8
Defpoints
 62
     0
100
AcDbPoint
 10
4.330127018922195
 20
-7.500000000000002
 30
0.0
  0
POINT
  5
1CC
330
1BF
100
AcDbEntity
  8
Defpoints
 62
     0
100
AcDbPoint
 10
-25.98076211353316
 20
10.0
 30
0.0
  0
ENDBLK
  5
1C1
330
1BF
100
AcDbEntity
  8
0
100
AcDbBlockEnd
  0
ENDSEC
  0
SECTION
  2
ENTITIES
  0
LINE
  5
1D
330
11B
100
AcDbEntity
  8
0
100
AcDbLine
 10
-25.98076211353316
 20
10.0
 30
0.0
 11
4.330127018922195
 21
-7.500000000000002
 31
0.0
  0
LINE
  5
1E
330
11B
100
AcDbEntity
  8
0
100
AcDbLine
 10
4.330127018922195
 20
-7.500000000000002
 30
0.0
 11
38.97114317029973
 21
12.49999999999999
 31
0.0
  0
LINE
  5
1F
330
11B
100
AcDbEntity
  8
0
100
AcDbLine
 10
-25.98076211353316
 20
10.0
 30
0.0
 11
-25.98076211353316
 21
15.0
 31
0.0
  0
LINE
  5
20
330
11B
100
AcDbEntity
  8
0
100
AcDbLine
 10
-25.98076211353316
 20
15.0
 30
0.0
 11
-21.65063509461097
 21
17.5
 31
0.0
  0
LINE
  5
21
330
11B
100
AcDbEntity
  8
0
100
AcDbLine
 10
34.64101615137753
 20
19.99999999999999
 30
0.0
 11
6.928203230275507
 21
3.999999999999998
 31
0.0
  0
LINE
  5
22
330
11B
100
AcDbEntity
  8
0
100
AcDbLine
 10
4.330127018922195
 20
-7.500000000000002
 30
0.0
 11
0.0000000000000018
 21
-0.0000000000000022
 31
0.0
  0
LINE
  5
23
330
11B
100
AcDbEntity
  8
0
100
AcDbLine
 10
34.64101615137754
 20
19.99999999999999
 30
0.0
 11
38.97114317029973
 21
12.49999999999999
 31
0.0
  0
LINE
  5
24
330
11B
100
AcDbEntity
  8
0
100
AcDbLine
 10
0.0
 20
-0.0000000000000004
 30
0.0
 11
-25.98076211353316
 21
15.0
 31
0.0
  0
LINE
  5
25
330
11B
100
AcDbEntity
  8
0
100
AcDbLine
 10
17.32050807568878
 20
30.0
 30
0.0
 11
0.0000000000000036
 21
20.0
 31
0.0
  0
LINE
  5
26
330
11B
100
AcDbEntity
  8
0
100
AcDbLine
 10
0.0000000000000036
 20
20.0
 30
0.0
 11
-8.660254037844386
 21
25.0
 31
0.0
  0
LINE
  5
30
330
11B
100
AcDbEntity
  8
0
100
AcDbLine
 10
17.32050807568878
 20
30.0
 30
0.0
 11
34.64101615137754
 21
19.99999999999999
 31
0.0
  0
LINE
  5
37
330
11B
100
AcDbEntity
  8
0
100
AcDbLine
 10
4.330127018922195
 20
2.499999999999998
 30
0.0
 11
-21.65063509461097
 21
17.5
 31
0.0
  0
LINE
  5
38
330
11B
100
AcDbEntity
  8
0
100
AcDbLine
 10
-19.05255888325765
 20
19.0
 30
0.0
 11
6.928203230275511
 21
3.999999999999998
 31
0.0
  0
LINE
  5
39
330
11B
100
AcDbEntity
  8
0
100
AcDbLine
 10
6.928203230275511
 20
3.999999999999998
 30
0.0
 11
8.01073498500606
 21
2.124999999999998
 31
0.0
  0
LINE
  5
3A
330
11B
100
AcDbEntity
  8
0
100
AcDbLine
 10
4.330127018922189
 20
2.499999999999998
 30
0.0
 11
5.412658773652741
 21
0.6249999999999978
 31
0.0
  0
LINE
  5
3C
330
11B
100
AcDbEntity
  8
0
100
AcDbLine
 10
5.412658773652741
 20
0.624999999999996
 30
0.0
 11
8.01073498500606
 21
2.124999999999998
 31
0.0
  0
LINE
  5
3D
330
11B
100
AcDbEntity
  8
0
100
AcDbLine
 10
4.330127018922188
 20
2.499999999999998
 30
0.0
 11
0.0
 21
0.0000000000000004
 31
0.0
  0
LINE
  5
3E
330
11B
100
AcDbEntity
  8
0
100
AcDbLine
 10
-19.05255888325765
 20
19.0
 30
0.0
 11
-8.660254037844382
 21
25.0
 31
0.0
  0
LINE
  5
3F
330
11B
100
AcDbEntity
  8
0
100
AcDbLine
 10
-19.05255888325765
 20
19.0
 30
0.0
 11
-19.05255888325765
 21
17.5
 31
0.0
  0
LINE
  5
41
330
11B
100
AcDbEntity
  8
0
100
AcDbLine
 10
-19.05255888325765
 20
17.75
 30
0.0
 11
8.010734985006065
 21
2.124999999999996
 31
0.0
  0
LINE
  5
43
330
11B
100
AcDbEntity
  8
0
100
AcDbLine
 10
-20.35159698893431
 20
16.75
 30
0.0
 11
-19.05255888325765
 21
17.5
 31
0.0
  0
LINE
  5
5C
330
11B
100
AcDbEntity
  8
center
100
AcDbLine
 10
8.66025403784439
 20
25.0
 30
0.0
 11
8.660254037844389
 21
39.00000000000001
 31
0.0
  0
ELLIPSE
  5
63
330
11B
100
AcDbEntity
  8
0
100
AcDbEllipse
 10
8.660254037844389
 20
35.00000000000001
 30
0.0
 11
-1.224779289925713
 21
-2.121379958209466
 31
0.0
210
0.0
220
0.0
230
1.0
 40
0.5773502691896257
 41
0.0
 42
6.283185307179586
  0
LINE
  5
6D
330
11B
100
AcDbEntity
  8
0
100
AcDbLine
 10
11.72220226265867
 20
40.30344989552367
 30
0.0
 11
3.061948224814282
 21
45.30344989552367
 31
0.0
  0
ELLIPSE
  5
6E
330
11B
100
AcDbEntity
  8
0
100
AcDbEllipse
 10
0.0000000000000018
 20
40.00000000000001
 30
0.0
 11
-3.061948224814285
 21
-5.303449895523664
 31
0.0
210
0.0
220
0.0
230
1.0
 40
0.5773502691896258
 41
3.141592653589793
 42
5.073766726102956
  0
LINE
  5
6F
330
11B
100
AcDbEntity
  8
center
100
AcDbLine
 10
10.39230484541326
 20
34.00000000000001
 30
0.0
 11
-1.732050807568879
 21
41.00000000000001
 31
0.0
  0
LINE
  5
70
330
11B
100
AcDbEntity
  8
0
100
AcDbLine
 10
-8.660254037844382
 20
25.0
 30
0.0
 11
-3.9467713989236
 21
39.77852901454689
 31
0.0
  0
LINE
  5
71
330
11B
100
AcDbEntity
  8
0
100
AcDbLine
 10
0.0000000000000053
 20
20.0
 30
0.0
 11
4.713482638920787
 21
34.77852901454689
 31
0.0
  0
LINE
  5
72
330
11B
100
AcDbEntity
  8
0
100
AcDbLine
 10
17.32050807568879
 20
30.0
 30
0.0
 11
12.60702543676799
 21
39.33586807374381
 31
0.0
  0
ELLIPSE
  5
73
330
11B
100
AcDbEntity
  8
0
100
AcDbEllipse
 10
8.660254037844389
 20
35.00000000000001
 30
0.0
 11
-3.061948224814285
 21
-5.303449895523664
 31
0.0
210
0.0
220
0.0
230
1.0
 40
0.5773502691896258
 41
2.780214907871533
 42
5.073766726102952
  0
LINE
  5
74
330
11B
100
AcDbEntity
  8
center
100
AcDbLine
 10
5.196152422706632
 20
33.0
 30
0.0
 11
12.12435565298214
 21
37.0
 31
0.0
  0
LINE
  5
76
330
11B
100
AcDbEntity
  8
text
100
AcDbLine
 10
22.58948194662561
 20
15.07615085322332
 30
0.0
 11
20.85738246389897
 21
16.07617895583876
 31
0.0
  0
LINE
  5
77
330
11B
100
AcDbEntity
  8
text
100
AcDbLine
 10
20.85738246389897
 20
16.07617895583876
 30
0.0
 11
22.10978727405602
 21
16.79925521011731
 31
0.0
  0
LINE
  5
78
330
11B
100
AcDbEntity
  8
text
100
AcDbLine
 10
22.10978727405602
 20
16.79925521011731
 30
0.0
 11
22.31418919118543
 21
16.68124370823977
 31
0.0
  0
LINE
  5
79
330
11B
100
AcDbEntity
  8
text
100
AcDbLine
 10
22.31418919118543
 20
16.68124370823977
 30
0.0
 11
21.29099809156656
 21
16.09050405144239
 31
0.0
  0
LINE
  5
7A
330
11B
100
AcDbEntity
  8
text
100
AcDbLine
 10
21.29099809156656
 20
16.09050405144239
 30
0.0
 11
21.82149786492553
 21
15.78421986448855
 31
0.0
  0
LINE
  5
7B
330
11B
100
AcDbEntity
  8
text
100
AcDbLine
 10
21.82149786492553
 20
15.78421986448855
 30
0.0
 11
22.77970569609285
 21
16.33744141375261
 31
0.0
  0
LINE
  5
7C
330
11B
100
AcDbEntity
  8
text
100
AcDbLine
 10
22.77970569609285
 20
16.33744141375261
 30
0.0
 11
22.98292609925041
 21
16.22011205928477
 31
0.0
  0
LINE
  5
7D
330
11B
100
AcDbEntity
  8
text
100
AcDbLine
 10
22.98292609925041
 20
16.22011205928477
 30
0.0
 11
22.02471826808309
 21
15.66689051002071
 31
0.0
  0
LINE
  5
7E
330
11B
100
AcDbEntity
  8
text
100
AcDbLine
 10
22.02471826808309
 20
15.66689051002071
 30
0.0
 11
22.61429374003438
 21
15.32649895258203
 31
0.0
  0
LINE
  5
7F
330
11B
100
AcDbEntity
  8
text
100
AcDbLine
 10
22.61429374003438
 20
15.32649895258203
 30
0.0
 11
23.67765631469602
 21
15.9404316213091
 31
0.0
  0
LINE
  5
80
330
11B
100
AcDbEntity
  8
text
100
AcDbLine
 10
23.67765631469602
 20
15.9404316213091
 30
0.0
 11
23.88205823182543
 21
15.82242011943157
 31
0.0
  0
LINE
  5
81
330
11B
100
AcDbEntity
  8
text
100
AcDbLine
 10
23.88205823182543
 20
15.82242011943157
 30
0.0
 11
22.58948194662561
 21
15.07615085322332
 31
0.0
  0
LINE
  5
82
330
11B
100
AcDbEntity
  8
text
100
AcDbLine
 10
24.02237483112189
 20
15.90343194580715
 30
0.0
 11
23.78961657866817
 21
16.81137014811352
 31
0.0
  0
LINE
  5
83
330
11B
100
AcDbEntity
  8
text
100
AcDbLine
 10
23.78961657866817
 20
16.81137014811352
 30
0.0
 11
22.36943678450896
 21
16.94916392487227
 31
0.0
  0
LINE
  5
84
330
11B
100
AcDbEntity
  8
text
100
AcDbLine
 10
22.36943678450896
 20
16.94916392487227
 30
0.0
 11
22.64236651200545
 21
17.10673997651222
 31
0.0
  0
LINE
  5
85
330
11B
100
AcDbEntity
  8
text
100
AcDbLine
 10
22.64236651200545
 20
17.10673997651222
 30
0.0
 11
23.40089848193075
 21
17.03170376144557
 31
0.0
  0
ELLIPSE
  5
86
330
11B
100
AcDbEntity
  8
text
100
AcDbEllipse
 10
22.84991236071338
 20
14.99303975729459
 30
0.0
 11
-3.573798885113284
 21
4.376641365450362E-16
 31
0.0
210
0.0
220
0.0
230
1.0
 40
0.5773502691896257
 41
4.456925442758924
 42
4.557597788934619
  0
ELLIPSE
  5
87
330
11B
100
AcDbEntity
  8
text
100
AcDbEllipse
 10
26.86627122012324
 20
17.41299202263261
 30
0.0
 11
-3.198559952761013
 21
3.917106208029683E-16
 31
0.0
210
0.0
220
0.0
230
1.0
 40
0.5773502691896258
 41
0.1251627326307374
 42
0.2314338495552299
  0
LINE
  5
88
330
11B
100
AcDbEntity
  8
text
100
AcDbLine
 10
23.69273243297678
 20
17.18245833898855
 30
0.0
 11
23.58167011962323
 21
17.64904716722113
 31
0.0
  0
LINE
  5
89
330
11B
100
AcDbEntity
  8
text
100
AcDbLine
 10
23.58167011962323
 20
17.64904716722113
 30
0.0
 11
23.83096956768279
 21
17.79298027066714
 31
0.0
  0
LINE
  5
8A
330
11B
100
AcDbEntity
  8
text
100
AcDbLine
 10
23.83096956768279
 20
17.79298027066714
 30
0.0
 11
24.03891602672774
 21
16.97031049457286
 31
0.0
  0
LINE
  5
8B
330
11B
100
AcDbEntity
  8
text
100
AcDbLine
 10
24.03891602672774
 20
16.97031049457286
 30
0.0
 11
25.61032960928328
 21
16.82023806443958
 31
0.0
  0
LINE
  5
8C
330
11B
100
AcDbEntity
  8
text
100
AcDbLine
 10
25.61032960928328
 20
16.82023806443958
 30
0.0
 11
25.32676625604017
 21
16.65652268611236
 31
0.0
  0
LINE
  5
8D
330
11B
100
AcDbEntity
  8
text
100
AcDbLine
 10
25.32676625604017
 20
16.65652268611236
 30
0.0
 11
24.2728557931533
 21
16.76157338720566
 31
0.0
  0
ELLIPSE
  5
8E
330
11B
100
AcDbEntity
  8
text
100
AcDbEllipse
 10
25.04687830860225
 20
19.16570047404912
 30
0.0
 11
-4.235397502419947
 21
5.186865994455283E-16
 31
0.0
210
0.0
220
0.0
230
1.0
 40
0.5773502691896257
 41
1.340832131630868
 42
1.38701262399944
  0
ELLIPSE
  5
8F
330
11B
100
AcDbEntity
  8
text
100
AcDbEllipse
 10
20.00885626261342
 20
16.19782727790603
 30
0.0
 11
-4.19756079890577
 21
5.140529396606358E-16
 31
0.0
210
0.0
220
0.0
230
1.0
 40
0.5773502691896257
 41
3.334307851260619
 42
3.386215347666859
  0
LINE
  5
90
330
11B
100
AcDbEntity
  8
text
100
AcDbLine
 10
24.12871108858805
 20
16.66197986538993
 30
0.0
 11
24.29766758656207
 21
16.06237229226649
 31
0.0
  0
LINE
  5
91
330
11B
100
AcDbEntity
  8
text
100
AcDbLine
 10
24.29766758656207
 20
16.06237229226649
 30
0.0
 11
24.02237483112189
 21
15.90343194580715
 31
0.0
  0
LINE
  5
92
330
11B
100
AcDbEntity
  8
text
100
AcDbLine
 10
25.272133049982
 20
17.14886940053509
 30
0.0
 11
25.4765349671114
 21
17.28870961952292
 31
0.0
  0
ELLIPSE
  5
93
330
11B
100
AcDbEntity
  8
text
100
AcDbEllipse
 10
25.8375024614192
 20
17.54060102115968
 30
0.0
 11
-0.5662555665090085
 21
6.934630670246285E-17
 31
0.0
210
0.0
220
0.0
230
1.0
 40
0.5773502691896258
 41
0.8795941163106792
 42
1.569726610140388
  0
ELLIPSE
  5
94
330
11B
100
AcDbEntity
  8
text
100
AcDbEllipse
 10
25.81762736958072
 20
17.46881430845835
 30
0.0
 11
-0.4423369200949511
 21
5.417064933389804E-17
 31
0.0
210
0.0
220
0.0
230
1.0
 40
0.5773502691896258
 41
1.61437274527599
 42
2.377506656913077
  0
ELLIPSE
  5
95
330
11B
100
AcDbEntity
  8
text
100
AcDbEllipse
 10
25.80206910021085
 20
17.49073295605176
 30
0.0
 11
-0.4801254599747087
 21
5.879841077471777E-17
 31
0.0
210
0.0
220
0.0
230
1.0
 40
0.5773502691896258
 41
2.342828942041543
 42
3.2076950377428
  0
ELLIPSE
  5
96
330
11B
100
AcDbEntity
  8
text
100
AcDbEllipse
 10
25.66557051708535
 20
17.48395782330157
 30
0.0
 11
-0.6171069487915527
 21
7.557380495691647E-17
 31
0.0
210
0.0
220
0.0
230
1.0
 40
0.5773502691896258
 41
3.212058854843717
 42
3.975434176907417
  0
ELLIPSE
  5
97
330
11B
100
AcDbEntity
  8
text
100
AcDbEllipse
 10
25.66491310614675
 20
17.5328706511412
 30
0.0
 11
-0.557775949300061
 21
6.830785309516961E-17
 31
0.0
210
0.0
220
0.0
230
1.0
 40
0.5773502691896257
 41
3.872304426587961
 42
4.665638767430385
  0
ELLIPSE
  5
98
330
11B
100
AcDbEntity
  8
text
100
AcDbEllipse
 10
25.68885242704972
 20
17.56355827311162
 30
0.0
 11
-0.5040184966931047
 21
6.172446386862716E-17
 31
0.0
210
0.0
220
0.0
230
1.0
 40
0.5773502691896257
 41
4.708168237927767
 42
5.538602224259981
  0
ELLIPSE
  5
99
330
11B
100
AcDbEntity
  8
text
100
AcDbEllipse
 10
25.68365934468337
 20
17.54360538533825
 30
0.0
 11
-0.5244181297307311
 21
6.422269839895812E-17
 31
0.0
210
0.0
220
0.0
230
1.0
 40
0.5773502691896258
 41
5.48340229308973
 42
6.005125573168338
  0
ELLIPSE
  5
9A
330
11B
100
AcDbEntity
  8
text
100
AcDbEllipse
 10
25.66829586873489
 20
17.54418262811806
 30
0.0
 11
-0.509380732736563
 21
6.238114838931653E-17
 31
0.0
210
0.0
220
0.0
230
1.0
 40
0.5773502691896257
 41
5.998734011385401
 42
6.497077655786593
  0
LINE
  5
9B
330
11B
100
AcDbEntity
  8
text
100
AcDbLine
 10
25.17052284840322
 20
17.4817573364671
 30
0.0
 11
24.94485367978058
 21
17.38148166724168
 31
0.0
  0
LINE
  5
9C
330
11B
100
AcDbEntity
  8
text
100
AcDbLine
 10
24.94485367978058
 20
17.38148166724168
 30
0.0
 11
24.22294864298251
 21
17.99200359892027
 31
0.0
  0
LINE
  5
9D
330
11B
100
AcDbEntity
  8
text
100
AcDbLine
 10
24.22294864298251
 20
17.99200359892027
 30
0.0
 11
25.08427232845844
 21
18.48928906058919
 31
0.0
  0
LINE
  5
9E
330
11B
100
AcDbEntity
  8
text
100
AcDbLine
 10
25.08427232845844
 20
18.48928906058919
 30
0.0
 11
25.287492731616
 21
18.37195970612136
 31
0.0
  0
LINE
  5
9F
330
11B
100
AcDbEntity
  8
text
100
AcDbLine
 10
25.287492731616
 20
18.37195970612136
 30
0.0
 11
24.59630705808593
 21
17.97290347144876
 31
0.0
  0
LINE
  5
A0
330
11B
100
AcDbEntity
  8
text
100
AcDbLine
 10
24.59630705808593
 20
17.97290347144876
 30
0.0
 11
24.96848395921751
 21
17.6502477466622
 31
0.0
  0
ELLIPSE
  5
A1
330
11B
100
AcDbEntity
  8
text
100
AcDbEllipse
 10
25.75621063343522
 20
17.57972540493839
 30
0.0
 11
-0.7971408378202186
 21
9.762159755061701E-17
 31
0.0
210
0.0
220
0.0
230
1.0
 40
0.5773502691896257
 41
5.507562325805476
 42
6.12934622416264
  0
ELLIPSE
  5
A2
330
11B
100
AcDbEntity
  8
text
100
AcDbEllipse
 10
25.71628811506507
 20
17.60897758294833
 30
0.0
 11
-0.7332083299253007
 21
8.979212343511960E-17
 31
0.0
210
0.0
220
0.0
230
1.0
 40
0.5773502691896258
 41
4.697757126874901
 42
5.518777323097494
  0
ELLIPSE
  5
A3
330
11B
100
AcDbEntity
  8
text
100
AcDbEllipse
 10
25.71791457129835
 20
17.58385438971793
 30
0.0
 11
-0.776697818507745
 21
9.511804973402418E-17
 31
0.0
210
0.0
220
0.0
230
1.0
 40
0.5773502691896258
 41
3.890008781084104
 42
4.700670695708295
  0
ELLIPSE
  5
A4
330
11B
100
AcDbEntity
  8
text
100
AcDbEllipse
 10
25.67010052167029
 20
17.51701082925678
 30
0.0
 11
-0.8920523515375576
 21
1.092449056982339E-16
 31
0.0
210
0.0
220
0.0
230
1.0
 40
0.5773502691896258
 41
3.254839783905832
 42
3.948672128361089
  0
ELLIPSE
  5
A5
330
11B
100
AcDbEntity
  8
text
100
AcDbEllipse
 10
25.78577729331786
 20
17.520821569341
 30
0.0
 11
-0.7763980070456113
 21
9.508133341927921E-17
 31
0.0
210
0.0
220
0.0
230
1.0
 40
0.5773502691896257
 41
2.315291975707623
 42
3.26322986173665
  0
ELLIPSE
  5
A6
330
11B
100
AcDbEntity
  8
text
100
AcDbEllipse
 10
25.72850201303799
 20
17.50078340959518
 30
0.0
 11
-0.7924064778281386
 21
9.704180566958580E-17
 31
0.0
210
0.0
220
0.0
230
1.0
 40
0.5773502691896258
 41
1.653258406623786
 42
2.39822266675147
  0
ELLIPSE
  5
A7
330
11B
100
AcDbEntity
  8
text
100
AcDbEllipse
 10
25.75371614733982
 20
17.46585727907697
 30
0.0
 11
-0.7303192624381474
 21
8.943831471005330E-17
 31
0.0
210
0.0
220
0.0
230
1.0
 40
0.5773502691896257
 41
0.8507566762825732
 42
1.62567017767665
  0
LINE
  5
A8
330
11B
100
AcDbEntity
  8
text
100
AcDbLine
 10
26.86703513029784
 20
19.05607170035803
 30
0.0
 11
26.6720853249432
 21
18.92441725028656
 31
0.0
  0
ELLIPSE
  5
A9
330
11B
100
AcDbEntity
  8
text
100
AcDbEllipse
 10
26.3427583223985
 20
18.65838976352065
 30
0.0
 11
-0.566363969325409
 21
6.935958221867519E-17
 31
0.0
210
0.0
220
0.0
230
1.0
 40
0.5773502691896258
 41
4.091847337662252
 42
4.593757874361485
  0
ELLIPSE
  5
AA
330
11B
100
AcDbEntity
  8
text
100
AcDbEllipse
 10
26.39296072458979
 20
18.75347967558676
 30
0.0
 11
-0.3980386672728504
 21
4.874567798125746E-17
 31
0.0
210
0.0
220
0.0
230
1.0
 40
0.5773502691896258
 41
4.670097822647095
 42
5.517034273768955
  0
ELLIPSE
  5
AB
330
11B
100
AcDbEntity
  8
text
100
AcDbEllipse
 10
26.39300096651879
 20
18.74104141649276
 30
0.0
 11
-0.4132959599885797
 21
5.061415745005467E-17
 31
0.0
210
0.0
220
0.0
230
1.0
 40
0.5773502691896258
 41
5.479531391142377
 42
6.131601711626858
  0
ELLIPSE
  5
AC
330
11B
100
AcDbEntity
  8
text
100
AcDbEllipse
 10
26.66406825304262
 20
18.72578910221148
 30
0.0
 11
-0.6854043355232884
 21
8.393782256203136E-17
 31
0.0
210
0.0
220
0.0
230
1.0
 40
0.5773502691896257
 41
6.153221764220097
 42
6.709376191718686
  0
ELLIPSE
  5
AD
330
11B
100
AcDbEntity
  8
text
100
AcDbEllipse
 10
27.46043144157682
 20
18.96225255442415
 30
0.0
 11
-1.580452120817631
 21
1.935495630964958E-16
 31
0.0
210
0.0
220
0.0
230
1.0
 40
0.5773502691896258
 41
0.4538503579852879
 42
0.818300647422213
  0
ELLIPSE
  5
AE
330
11B
100
AcDbEntity
  8
text
100
AcDbEllipse
 10
27.05989365019235
 20
18.38530063702324
 30
0.0
 11
-0.6969591510042303
 21
8.535287934137874E-17
 31
0.0
210
0.0
220
0.0
230
1.0
 40
0.5773502691896258
 41
5.981411454830019
 42
6.506567955675043
  0
ELLIPSE
  5
AF
330
11B
100
AcDbEntity
  8
text
100
AcDbEllipse
 10
27.07551569328341
 20
18.38022133116803
 30
0.0
 11
-0.7144999013649924
 21
8.750100171977375E-17
 31
0.0
210
0.0
220
0.0
230
1.0
 40
0.5773502691896257
 41
5.497416774468901
 42
5.976153259484412
  0
ELLIPSE
  5
B0
330
11B
100
AcDbEntity
  8
text
100
AcDbEllipse
 10
27.05909226063183
 20
18.39739680337534
 30
0.0
 11
-0.6819126560311853
 21
8.351021515066612E-17
 31
0.0
210
0.0
220
0.0
230
1.0
 40
0.5773502691896257
 41
4.668281795360031
 42
5.511217159029163
  0
ELLIPSE
  5
B1
330
11B
100
AcDbEntity
  8
text
100
AcDbEllipse
 10
27.05926935488077
 20
18.33224557262137
 30
0.0
 11
-0.7946570450437725
 21
9.731742066327502E-17
 31
0.0
210
0.0
220
0.0
230
1.0
 40
0.5773502691896257
 41
3.886819677681022
 42
4.674765888631353
  0
ELLIPSE
  5
B2
330
11B
100
AcDbEntity
  8
text
100
AcDbEllipse
 10
26.98266447863656
 20
18.25592570989437
 30
0.0
 11
-0.9416851460692823
 21
1.153231699938354E-16
 31
0.0
210
0.0
220
0.0
230
1.0
 40
0.5773502691896257
 41
3.463267260758965
 42
3.934839422185248
  0
ELLIPSE
  5
B3
330
11B
100
AcDbEntity
  8
text
100
AcDbEllipse
 10
27.19258323998033
 20
18.28923544216026
 30
0.0
 11
-0.7243867476519286
 21
8.871179118566958E-17
 31
0.0
210
0.0
220
0.0
230
1.0
 40
0.5773502691896257
 41
2.908112719148858
 42
3.479325886122015
  0
ELLIPSE
  5
B4
330
11B
100
AcDbEntity
  8
text
100
AcDbEllipse
 10
27.17407545280228
 20
18.29795143023246
 30
0.0
 11
-0.7459577359107219
 21
9.135347535822722E-17
 31
0.0
210
0.0
220
0.0
230
1.0
 40
0.5773502691896257
 41
2.33995727186938
 42
2.894163918158103
  0
ELLIPSE
  5
B5
330
11B
100
AcDbEntity
  8
text
100
AcDbEllipse
 10
27.13297263386589
 20
18.29414722193959
 30
0.0
 11
-0.7705674211944111
 21
9.436729258929659E-17
 31
0.0
210
0.0
220
0.0
230
1.0
 40
0.5773502691896257
 41
1.480851124613956
 42
2.384244410088824
  0
ELLIPSE
  5
B6
330
11B
100
AcDbEntity
  8
text
100
AcDbEllipse
 10
27.32287269292654
 20
18.64310753955593
 30
0.0
 11
-1.396125647471714
 21
1.709760805383760E-16
 31
0.0
210
0.0
220
0.0
230
1.0
 40
0.5773502691896258
 41
0.6959983635997159
 42
1.384117851446834
  0
ELLIPSE
  5
B7
330
11B
100
AcDbEntity
  8
text
100
AcDbEllipse
 10
27.30668130997164
 20
18.84655913208369
 30
0.0
 11
-1.633945409347507
 21
2.001006015538936E-16
 31
0.0
210
0.0
220
0.0
230
1.0
 40
0.5773502691896257
 41
0.2045163033101948
 42
0.8687152786135475
  0
ELLIPSE
  5
B8
330
11B
100
AcDbEntity
  8
text
100
AcDbEllipse
 10
26.45662067955552
 20
18.70174502632213
 30
0.0
 11
-0.754196536641381
 21
9.236243745258867E-17
 31
0.0
210
0.0
220
0.0
230
1.0
 40
0.5773502691896257
 41
5.459237542295937
 42
6.390816471111813
  0
ELLIPSE
  5
B9
330
11B
100
AcDbEntity
  8
text
100
AcDbEllipse
 10
26.45285883621896
 20
18.75059555921836
 30
0.0
 11
-0.6917178495353214
 21
8.471100503465219E-17
 31
0.0
210
0.0
220
0.0
230
1.0
 40
0.577350269189626
 41
4.797816730921124
 42
5.538425643912404
  0
ELLIPSE
  5
BA
330
11B
100
AcDbEntity
  8
text
100
AcDbEllipse
 10
26.42495568525902
 20
18.75163637957356
 30
0.0
 11
-0.6880965261860101
 21
8.426752082981102E-17
 31
0.0
210
0.0
220
0.0
230
1.0
 40
0.5773502691896257
 41
4.014675477946859
 42
4.757626116404226
  0
ELLIPSE
  5
BB
330
11B
100
AcDbEntity
  8
text
100
AcDbEllipse
 10
27.23953120815386
 20
18.40790855899037
 30
0.0
 11
-0.697682188082848
 21
8.544142584577815E-17
 31
0.0
210
0.0
220
0.0
230
1.0
 40
0.5773502691896258
 41
0.7836611004024527
 42
1.223878234160254
  0
ELLIPSE
  5
BC
330
11B
100
AcDbEntity
  8
text
100
AcDbEllipse
 10
27.18126202201749
 20
18.2936341171568
 30
0.0
 11
-0.4918918914341694
 21
6.023938303713929E-17
 31
0.0
210
0.0
220
0.0
230
1.0
 40
0.5773502691896257
 41
1.19846680909776
 42
1.78512205023122
  0
ELLIPSE
  5
BD
330
11B
100
AcDbEntity
  8
text
100
AcDbEllipse
 10
27.18966473848958
 20
18.27684887278466
 30
0.0
 11
-0.4617014697201094
 21
5.654212270543606E-17
 31
0.0
210
0.0
220
0.0
230
1.0
 40
0.5773502691896257
 41
1.780731778966392
 42
2.351207423966446
  0
ELLIPSE
  5
BE
330
11B
100
AcDbEntity
  8
text
100
AcDbEllipse
 10
27.21493556929393
 20
18.26091728442559
 30
0.0
 11
-0.4243149339500171
 21
5.196359256923092E-17
 31
0.0
210
0.0
220
0.0
230
1.0
 40
0.5773502691896258
 41
2.354640052281462
 42
3.235467526030229
  0
ELLIPSE
  5
BF
330
11B
100
AcDbEntity
  8
text
100
AcDbEllipse
 10
27.03513604289953
 20
18.25016455432858
 30
0.0
 11
-0.6050709413856235
 21
7.409981916249795E-17
 31
0.0
210
0.0
220
0.0
230
1.0
 40
0.5773502691896258
 41
3.238257936238883
 42
3.9818378994757
  0
ELLIPSE
  5
C0
330
11B
100
AcDbEntity
  8
text
100
AcDbEllipse
 10
27.01667608696205
 20
18.29254507332117
 30
0.0
 11
-0.5662019933961764
 21
6.933974588834782E-17
 31
0.0
210
0.0
220
0.0
230
1.0
 40
0.5773502691896258
 41
3.870817458363098
 42
4.635420700643776
  0
ELLIPSE
  5
C1
330
11B
100
AcDbEntity
  8
text
100
AcDbEllipse
 10
27.03801817431296
 20
18.3620307193039
 30
0.0
 11
-0.4447271915456507
 21
5.446337316201729E-17
 31
0.0
210
0.0
220
0.0
230
1.0
 40
0.5773502691896257
 41
4.6624623870562
 42
5.522736786990954
  0
ELLIPSE
  5
C2
330
11B
100
AcDbEntity
  8
text
100
AcDbEllipse
 10
27.0383792022029
 20
18.34644791968599
 30
0.0
 11
-0.4639934981659267
 21
5.682281523540855E-17
 31
0.0
210
0.0
220
0.0
230
1.0
 40
0.5773502691896258
 41
5.481115803859232
 42
6.314309330459947
  0
ELLIPSE
  5
C3
330
11B
100
AcDbEntity
  8
text
100
AcDbEllipse
 10
27.10134062262065
 20
18.34792455889488
 30
0.0
 11
-0.5270043541558249
 21
6.453941954536491E-17
 31
0.0
210
0.0
220
0.0
230
1.0
 40
0.5773502691896258
 41
0.0322569915785878
 42
0.829128031194428
  0
LINE
  5
C4
330
11B
100
AcDbEntity
  8
text
100
AcDbLine
 10
26.92596904721353
 20
19.31793444799242
 30
0.0
 11
26.72156713008413
 21
19.43594594986995
 31
0.0
  0
LINE
  5
C5
330
11B
100
AcDbEntity
  8
text
100
AcDbLine
 10
26.72156713008413
 20
19.43594594986995
 30
0.0
 11
27.84282388936624
 21
20.08330384167217
 31
0.0
  0
LINE
  5
C6
330
11B
100
AcDbEntity
  8
text
100
AcDbLine
 10
27.84282388936624
 20
20.08330384167217
 30
0.0
 11
28.00823584542471
 21
19.98780320431462
 31
0.0
  0
ELLIPSE
  5
C7
330
11B
100
AcDbEntity
  8
text
100
AcDbEllipse
 10
31.34508705622768
 20
20.08994543637426
 30
0.0
 11
-3.34153783604908
 21
4.092203615147279E-16
 31
0.0
210
0.0
220
0.0
230
1.0
 40
0.5773502691896258
 41
0.0529691120503566
 42
0.2953587676292574
  0
ELLIPSE
  5
C8
330
11B
100
AcDbEntity
  8
text
100
AcDbEllipse
 10
32.02695419070975
 20
20.15973571026508
 30
0.0
 11
-4.029916226141694
 21
4.935224007176406E-16
 31
0.0
210
0.0
220
0.0
230
1.0
 40
0.5773502691896258
 41
0.2748025289034476
 42
0.5036176789095532
  0
ELLIPSE
  5
C9
330
11B
100
AcDbEntity
  8
text
100
AcDbEllipse
 10
31.25490995646695
 20
19.92187524854375
 30
0.0
 11
-3.1549255363927
 21
3.863669459691567E-16
 31
0.0
210
0.0
220
0.0
230
1.0
 40
0.5773502691896258
 41
0.50734241022098
 42
0.7243106202327089
  0
LINE
  5
CA
330
11B
100
AcDbEntity
  8
text
100
AcDbLine
 10
28.89200829636572
 20
18.71491613782049
 30
0.0
 11
28.67342821157417
 21
18.58871886702659
 31
0.0
  0
ELLIPSE
  5
CB
330
11B
100
AcDbEntity
  8
text
100
AcDbEllipse
 10
30.88551313622222
 20
19.76020757687196
 30
0.0
 11
-3.001745676392426
 21
3.676078234448391E-16
 31
0.0
210
0.0
220
0.0
230
1.0
 40
0.5773502691896258
 41
0.5059881775134296
 42
0.7422747306072579
  0
ELLIPSE
  5
CC
330
11B
100
AcDbEntity
  8
text
100
AcDbEllipse
 10
31.43260315173511
 20
19.982312649108
 30
0.0
 11
-3.6674289213653
 21
4.491305089650444E-16
 31
0.0
210
0.0
220
0.0
230
1.0
 40
0.577350269189626
 41
0.293482540442114
 42
0.5254400655755898
  0
ELLIPSE
  5
CD
330
11B
100
AcDbEntity
  8
text
100
AcDbEllipse
 10
31.14839873328984
 20
19.95973701298745
 30
0.0
 11
-3.384361036300277
 21
4.144646910264153E-16
 31
0.0
210
0.0
220
0.0
230
1.0
 40
0.5773502691896258
 41
0.077879983187075
 42
0.3067163222640683
  0
LINE
  5
CE
330
11B
100
AcDbEntity
  8
text
100
AcDbLine
 10
27.77429607899915
 20
19.80771628815468
 30
0.0
 11
26.92596904721353
 21
19.31793444799242
 31
0.0
  0
LINE
  5
CF
330
11B
100
AcDbEntity
  8
text
100
AcDbLine
 10
29.83944072010981
 20
19.26191650270812
 30
0.0
 11
28.10734123738318
 21
20.26194460532355
 31
0.0
  0
LINE
  5
D0
330
11B
100
AcDbEntity
  8
text
100
AcDbLine
 10
28.10734123738318
 20
20.26194460532355
 30
0.0
 11
28.75717392189863
 21
20.63712568065676
 31
0.0
  0
ELLIPSE
  5
D1
330
11B
100
AcDbEntity
  8
text
100
AcDbEllipse
 10
29.5917149596442
 20
20.19091722098756
 30
0.0
 11
-1.137437783846895
 21
1.392959541217359E-16
 31
0.0
210
0.0
220
0.0
230
1.0
 40
0.5773502691896258
 41
5.132142026964617
 42
5.536144232419002
  0
ELLIPSE
  5
D2
330
11B
100
AcDbEntity
  8
text
100
AcDbEllipse
 10
29.34393572990378
 20
20.4803835866846
 30
0.0
 11
-0.5790287439657158
 21
7.091056979119262E-17
 31
0.0
210
0.0
220
0.0
230
1.0
 40
0.5773502691896258
 41
4.478917817820591
 42
5.09423597833403
  0
ELLIPSE
  5
D3
330
11B
100
AcDbEntity
  8
text
100
AcDbEllipse
 10
29.35015549060699
 20
20.46511463147823
 30
0.0
 11
-0.6034415782398233
 21
7.390027972638266E-17
 31
0.0
210
0.0
220
0.0
230
1.0
 40
0.577350269189626
 41
3.932589619356616
 42
4.499086161093111
  0
ELLIPSE
  5
D4
330
11B
100
AcDbEntity
  8
text
100
AcDbEllipse
 10
29.38180257698398
 20
20.48604849178406
 30
0.0
 11
-0.5554156254019325
 21
6.801879678449019E-17
 31
0.0
210
0.0
220
0.0
230
1.0
 40
0.577350269189626
 41
3.365705205226722
 42
3.927202845271127
  0
ELLIPSE
  5
D5
330
11B
100
AcDbEntity
  8
text
100
AcDbEllipse
 10
29.32884472953143
 20
20.48244657648974
 30
0.0
 11
-0.6084621592174649
 21
7.451512356879556E-17
 31
0.0
210
0.0
220
0.0
230
1.0
 40
0.5773502691896257
 41
2.788160047622279
 42
3.356358992180883
  0
ELLIPSE
  5
D6
330
11B
100
AcDbEntity
  8
text
100
AcDbEllipse
 10
30.22476614637547
 20
20.04271166167536
 30
0.0
 11
-0.6397786843038992
 21
7.835029178954751E-17
 31
0.0
210
0.0
220
0.0
230
1.0
 40
0.5773502691896258
 41
4.596947988524049
 42
5.245360305368852
  0
ELLIPSE
  5
D7
330
11B
100
AcDbEntity
  8
text
100
AcDbEllipse
 10
30.21523624278067
 20
20.06937349469641
 30
0.0
 11
-0.5951877835293355
 21
7.288948139908085E-17
 31
0.0
210
0.0
220
0.0
230
1.0
 40
0.5773502691896258
 41
3.905041045100764
 42
4.572103415715407
  0
ELLIPSE
  5
D8
330
11B
100
AcDbEntity
  8
text
100
AcDbEllipse
 10
30.14334971329281
 20
20.0125342588276
 30
0.0
 11
-0.7155122812613154
 21
8.762498249972906E-17
 31
0.0
210
0.0
220
0.0
230
1.0
 40
0.5773502691896258
 41
3.472270470569768
 42
3.934983669281849
  0
ELLIPSE
  5
D9
330
11B
100
AcDbEntity
  8
text
100
AcDbEllipse
 10
30.23917839226061
 20
20.02240175741674
 30
0.0
 11
-0.619506571117341
 21
7.586767393696038E-17
 31
0.0
210
0.0
220
0.0
230
1.0
 40
0.5773502691896258
 41
3.023377047921796
 42
3.4964033031441
  0
ELLIPSE
  5
DA
330
11B
100
AcDbEntity
  8
text
100
AcDbEllipse
 10
30.11471830414324
 20
20.05069447268748
 30
0.0
 11
-0.7496482919805894
 21
9.180543812603092E-17
 31
0.0
210
0.0
220
0.0
230
1.0
 40
0.5773502691896257
 41
2.582915842552784
 42
2.97802888461309
  0
ELLIPSE
  5
DB
330
11B
100
AcDbEntity
  8
text
100
AcDbEllipse
 10
29.36851036016019
 20
20.32156824160737
 30
0.0
 11
-1.63109123998055
 21
1.997510666159468E-16
 31
0.0
210
0.0
220
0.0
230
1.0
 40
0.5773502691896257
 41
2.337332030601281
 42
2.58150868384931
  0
LINE
  5
DC
330
11B
100
AcDbEntity
  8
text
100
AcDbLine
 10
30.49990703037188
 20
19.6432369047286
 30
0.0
 11
29.83944072010981
 21
19.26191650270812
 31
0.0
  0
LINE
  5
DD
330
11B
100
AcDbEntity
  8
text
100
AcDbLine
 10
29.06436755457866
 20
19.97407839843152
 30
0.0
 11
29.43890748365393
 21
20.19031912730539
 31
0.0
  0
ELLIPSE
  5
DE
330
11B
100
AcDbEntity
  8
text
100
AcDbEllipse
 10
28.63732177495083
 20
20.6917711938776
 30
0.0
 11
-1.181906161082881
 21
1.447417597062686E-16
 31
0.0
210
0.0
220
0.0
230
1.0
 40
0.577350269189626
 41
2.31612631170874
 42
2.579531760198974
  0
ELLIPSE
  5
DF
330
11B
100
AcDbEntity
  8
text
100
AcDbEllipse
 10
29.34195958781665
 20
20.42937510751193
 30
0.0
 11
-0.3435814613067224
 21
4.207659368356478E-17
 31
0.0
210
0.0
220
0.0
230
1.0
 40
0.5773502691896256
 41
2.605850364352412
 42
3.26589488408954
  0
ELLIPSE
  5
E0
330
11B
100
AcDbEntity
  8
text
100
AcDbEllipse
 10
29.33705220423789
 20
20.41811093179105
 30
0.0
 11
-0.3513705851469011
 21
4.303048624146849E-17
 31
0.0
210
0.0
220
0.0
230
1.0
 40
0.5773502691896257
 41
3.319286021870009
 42
3.964708234544709
  0
ELLIPSE
  5
E1
330
11B
100
AcDbEntity
  8
text
100
AcDbEllipse
 10
29.29178414927286
 20
20.40936550236085
 30
0.0
 11
-0.3939231890866848
 21
4.824167726249261E-17
 31
0.0
210
0.0
220
0.0
230
1.0
 40
0.5773502691896258
 41
3.90655703674289
 42
4.479270150940852
  0
ELLIPSE
  5
E2
330
11B
100
AcDbEntity
  8
text
100
AcDbEllipse
 10
29.31620725767769
 20
20.46413309755767
 30
0.0
 11
-0.2959925550415816
 21
3.624863351031197E-17
 31
0.0
210
0.0
220
0.0
230
1.0
 40
0.5773502691896257
 41
4.485515334658645
 42
5.210318054081737
  0
ELLIPSE
  5
E3
330
11B
100
AcDbEntity
  8
text
100
AcDbEllipse
 10
29.91521860368012
 20
19.93133410343185
 30
0.0
 11
-1.395486096245122
 21
1.708977581021224E-16
 31
0.0
210
0.0
220
0.0
230
1.0
 40
0.577350269189626
 41
5.271641936677056
 42
5.5405911500465
  0
LINE
  5
E4
330
11B
100
AcDbEntity
  8
text
100
AcDbLine
 10
28.88714045880172
 20
20.47613889196833
 30
0.0
 11
28.54095686505076
 21
20.27626970092718
 31
0.0
  0
LINE
  5
E5
330
11B
100
AcDbEntity
  8
text
100
AcDbLine
 10
28.54095686505076
 20
20.27626970092718
 30
0.0
 11
29.06436755457866
 21
19.97407839843152
 31
0.0
  0
LINE
  5
E6
330
11B
100
AcDbEntity
  8
text
100
AcDbLine
 10
29.86425251351858
 20
19.51226460206682
 30
0.0
 11
30.29550511324247
 21
19.76124840660614
 31
0.0
  0
ELLIPSE
  5
E7
330
11B
100
AcDbEntity
  8
text
100
AcDbEllipse
 10
29.32876082118336
 20
20.34893129399365
 30
0.0
 11
-1.403819096113617
 21
1.719182562637472E-16
 31
0.0
210
0.0
220
0.0
230
1.0
 40
0.5773502691896256
 41
2.330426098064319
 42
2.487924234128571
  0
ELLIPSE
  5
E8
330
11B
100
AcDbEntity
  8
text
100
AcDbEllipse
 10
30.01662359754948
 20
20.03620180811551
 30
0.0
 11
-0.5284963332241254
 21
6.472213428440382E-17
 31
0.0
210
0.0
220
0.0
230
1.0
 40
0.5773502691896258
 41
2.510088513863334
 42
2.888348347362756
  0
ELLIPSE
  5
E9
330
11B
100
AcDbEntity
  8
text
100
AcDbEllipse
 10
30.181494030886
 20
20.00325733872218
 30
0.0
 11
-0.3548616279368293
 21
4.345801567930570E-17
 31
0.0
210
0.0
220
0.0
230
1.0
 40
0.5773502691896257
 41
2.927624046292237
 42
3.451949587668072
  0
ELLIPSE
  5
EA
330
11B
100
AcDbEntity
  8
text
100
AcDbEllipse
 10
30.11264575072909
 20
19.99228958418296
 30
0.0
 11
-0.4262323416409982
 21
5.219840728837297E-17
 31
0.0
210
0.0
220
0.0
230
1.0
 40
0.5773502691896257
 41
3.44505885275848
 42
3.947644177523442
  0
ELLIPSE
  5
EB
330
11B
100
AcDbEntity
  8
text
100
AcDbEllipse
 10
30.11331716880339
 20
20.00758565430062
 30
0.0
 11
-0.4070427528934817
 21
4.984836044471294E-17
 31
0.0
210
0.0
220
0.0
230
1.0
 40
0.5773502691896258
 41
3.90375648699306
 42
4.523467631432326
  0
ELLIPSE
  5
EC
330
11B
100
AcDbEntity
  8
text
100
AcDbEllipse
 10
30.12478225962964
 20
20.02801116370913
 30
0.0
 11
-0.3701698575118728
 21
4.533273311427469E-17
 31
0.0
210
0.0
220
0.0
230
1.0
 40
0.5773502691896258
 41
4.535940933432027
 42
5.198981900178962
  0
ELLIPSE
  5
ED
330
11B
100
AcDbEntity
  8
text
100
AcDbEllipse
 10
30.55313339517081
 20
19.61277981217792
 30
0.0
 11
-1.206941275358236
 21
1.478076769626287E-16
 31
0.0
210
0.0
220
0.0
230
1.0
 40
0.577350269189626
 41
5.234054553994855
 42
5.534067203076437
  0
LINE
  5
EE
330
11B
100
AcDbEntity
  8
text
100
AcDbLine
 10
29.66930270816395
 20
20.08731486844118
 30
0.0
 11
29.26876947170807
 21
19.85606689655399
 31
0.0
  0
LINE
  5
EF
330
11B
100
AcDbEntity
  8
text
100
AcDbLine
 10
29.26876947170807
 20
19.85606689655399
 30
0.0
 11
29.86425251351858
 21
19.51226460206682
 31
0.0
  0
HATCH
  5
F1
330
11B
100
AcDbEntity
  8
text
100
AcDbHatch
 10
0.0
 20
0.0
 30
0.0
210
0.0
220
0.0
230
1.0
  2
SOLID
 70
     1
 71
     0
 91
        9
 92
        0
 93
       19
 72
     3
 10
27.05909226063183
 20
18.39739680337534
 11
-0.6819126560311853
 21
8.351021515066612E-17
 40
0.5773502691896257
 50
29.3380429061169
 51
94.37150020587394
 73
     0
 72
     3
 10
27.05926935488077
 20
18.33224557262137
 11
-0.7946570450437725
 21
9.731742066327502E-17
 40
0.5773502691896257
 50
93.7301691901104
 51
151.9543009176525
 73
     0
 72
     3
 10
26.98266447863656
 20
18.25592570989437
 11
-0.9416851460692823
 21
1.153231699938354E-16
 40
0.5773502691896257
 50
149.6090190339643
 51
169.1092970721325
 73
     0
 72
     3
 10
27.19258323998033
 20
18.28923544216026
 11
-0.7243867476519286
 21
8.871179118566958E-17
 40
0.5773502691896257
 50
168.538161475205
 51
187.8180410431887
 73
     0
 72
     3
 10
27.17407545280228
 20
18.29795143023246
 11
-0.7459577359107219
 21
9.135347535822722E-17
 40
0.5773502691896257
 50
188.297600376914
 51
210.8122964127243
 73
     0
 72
     3
 10
27.13297263386589
 20
18.29414722193959
 11
-0.7705674211944111
 21
9.436729258929659E-17
 40
0.5773502691896257
 50
208.6273320648208
 51
278.8784859154537
 73
     0
 72
     3
 10
27.32287269292654
 20
18.64310753955593
 11
-1.396125647471714
 21
1.709760805383760E-16
 40
0.5773502691896258
 50
288.1152849388512
 51
334.2492326721334
 73
     0
 72
     3
 10
27.30668130997164
 20
18.84655913208369
 11
-1.633945409347507
 21
2.001006015538936E-16
 40
0.5773502691896257
 50
325.6838653222876
 51
353.1712440304555
 73
     0
 72
     3
 10
26.45662067955552
 20
18.70174502632213
 11
-0.754196536641381
 21
9.236243745258867E-17
 40
0.5773502691896257
 50
356.4304028403669
 51
391.9506413254115
 73
     0
 72
     3
 10
26.45285883621896
 20
18.75059555921836
 11
-0.6917178495353214
 21
8.471100503465219E-17
 40
0.577350269189626
 50
28.02340849188253
 51
81.56304852839709
 73
     0
 72
     3
 10
26.42495568525902
 20
18.75163637957356
 11
-0.6880965261860101
 21
8.426752082981102E-17
 40
0.5773502691896257
 50
85.5168098641487
 51
145.4469950518809
 73
     0
 72
     1
 10
26.86703513029784
 20
19.05607170035803
 11
26.6720853249432
 21
18.92441725028656
 72
     3
 10
26.3427583223985
 20
18.65838976352065
 11
-0.566363969325409
 21
6.935958221867519E-17
 40
0.5773502691896258
 50
218.9309759040718
 51
258.3354723134533
 73
     1
 72
     3
 10
26.39296072458979
 20
18.75347967558676
 11
-0.3980386672728504
 21
4.874567798125746E-17
 40
0.5773502691896258
 50
265.8080510654925
 51
330.9459614176494
 73
     1
 72
     3
 10
26.39300096651879
 20
18.74104141649276
 11
-0.4132959599885797
 21
5.061415745005467E-17
 40
0.5773502691896258
 50
329.0857873381359
 51
354.9599332043058
 73
     1
 72
     3
 10
26.66406825304262
 20
18.72578910221148
 11
-0.6854043355232884
 21
8.393782256203136E-17
 40
0.5773502691896257
 50
355.684649328861
 51
374.6883536221416
 73
     1
 72
     3
 10
27.46043144157682
 20
18.96225255442415
 11
-1.580452120817631
 21
1.935495630964958E-16
 40
0.5773502691896258
 50
15.72928049657287
 51
31.66006039538421
 73
     1
 72
     3
 10
27.05989365019235
 20
18.38530063702324
 11
-0.6969591510042303
 21
8.535287934137874E-17
 40
0.5773502691896258
 50
352.5277995371566
 51
370.1883290880398
 73
     0
 72
     3
 10
27.07551569328341
 20
18.38022133116803
 11
-0.7144999013649924
 21
8.750100171977375E-17
 40
0.5773502691896257
 50
10.37334989283665
 51
30.01838098147842
 73
     0
 97
        0
 92
        0
 93
        9
 72
     3
 10
27.23953120815386
 20
18.40790855899037
 11
-0.697682188082848
 21
8.544142584577815E-17
 40
0.5773502691896258
 50
29.91388240212792
 51
57.94497991162416
 73
     1
 72
     3
 10
27.18126202201749
 20
18.2936341171568
 11
-0.4918918914341694
 21
6.023938303713929E-17
 40
0.5773502691896257
 50
55.92382058970166
 51
110.6571236466414
 73
     1
 72
     3
 10
27.18966473848958
 20
18.27684887278466
 11
-0.4617014697201094
 21
5.654212270543606E-17
 40
0.5773502691896257
 50
110.2569183582536
 51
149.751924671423
 73
     1
 72
     3
 10
27.21493556929393
 20
18.26091728442559
 11
-0.4243149339500171
 21
5.196359256923092E-17
 40
0.5773502691896258
 50
149.922809402221
 51
183.1114478271056
 73
     1
 72
     3
 10
27.03513604289953
 20
18.25016455432858
 11
-0.6050709413856235
 21
7.409981916249795E-17
 40
0.5773502691896258
 50
183.204314123174
 51
212.7988877311153
 73
     1
 72
     3
 10
27.01667608696205
 20
18.29254507332117
 11
-0.5662019933961764
 21
6.933974588834782E-17
 40
0.5773502691896258
 50
207.2880974550201
 51
262.3916482896754
 73
     1
 72
     3
 10
27.03801817431296
 20
18.3620307193039
 11
-0.4447271915456507
 21
5.446337316201729E-17
 40
0.5773502691896257
 50
265.0535297078957
 51
331.2228028541808
 73
     1
 72
     3
 10
27.0383792022029
 20
18.34644791968599
 11
-0.4639934981659267
 21
5.682281523540855E-17
 40
0.5773502691896258
 50
329.1658023423871
 51
361.0297960796722
 73
     1
 72
     3
 10
27.10134062262065
 20
18.34792455889488
 11
-0.5270043541558249
 21
6.453941954536491E-17
 40
0.5773502691896258
 50
1.067299473046471
 51
32.21870006919267
 73
     1
 97
        0
 92
        0
 93
       11
 72
     1
 10
26.92596904721353
 20
19.31793444799242
 11
26.72156713008413
 21
19.43594594986995
 72
     1
 10
26.72156713008413
 20
19.43594594986995
 11
27.84282388936624
 21
20.08330384167217
 72
     1
 10
27.84282388936624
 20
20.08330384167217
 11
28.00823584542471
 21
19.98780320431462
 72
     3
 10
31.34508705622768
 20
20.08994543637426
 11
-3.34153783604908
 21
4.092203615147279E-16
 40
0.5773502691896258
 50
1.753297225750175
 51
9.963129059316277
 73
     1
 72
     3
 10
32.02695419070975
 20
20.15973571026508
 11
-4.029916226141694
 21
4.935224007176406E-16
 40
0.5773502691896258
 50
9.24526445216512
 51
17.64718337409581
 73
     1
 72
     3
 10
31.25490995646695
 20
19.92187524854375
 11
-3.1549255363927
 21
3.863669459691567E-16
 40
0.5773502691896258
 50
17.79322557175477
 51
27.05773256112726
 73
     1
 72
     1
 10
28.89200829636572
 20
18.71491613782049
 11
28.67342821157417
 21
18.58871886702659
 72
     3
 10
30.88551313622222
 20
19.76020757687196
 11
-3.001745676392426
 21
3.676078234448391E-16
 40
0.5773502691896258
 50
332.0949420943768
 51
342.2599144070068
 73
     0
 72
     3
 10
31.43260315173511
 20
19.982312649108
 11
-3.6674289213653
 21
4.491305089650444E-16
 40
0.577350269189626
 50
341.4919132251059
 51
350.1026275196826
 73
     0
 72
     3
 10
31.14839873328984
 20
19.95973701298745
 11
-3.384361036300277
 21
4.144646910264153E-16
 40
0.5773502691896258
 50
349.6377707445997
 51
357.4202743006738
 73
     0
 72
     1
 10
27.77429607899916
 20
19.80771628815467
 11
26.92596904721353
 21
19.31793444799242
 97
        0
 92
        0
 93
       14
 72
     1
 10
29.83944072010981
 20
19.26191650270812
 11
28.10734123738318
 21
20.26194460532355
 72
     1
 10
28.10734123738318
 20
20.26194460532355
 11
28.75717392189863
 21
20.63712568065676
 72
     3
 10
29.5917149596442
 20
20.19091722098756
 11
-1.137437783846895
 21
1.392959541217359E-16
 40
0.5773502691896258
 50
28.13231420481179
 51
52.29693234366614
 73
     0
 72
     3
 10
29.34393572990378
 20
20.4803835866846
 11
-0.5790287439657158
 21
7.091056979119262E-17
 40
0.5773502691896258
 50
55.18079533603751
 51
112.386528736307
 73
     0
 72
     3
 10
29.35015549060699
 20
20.46511463147823
 11
-0.6034415782398233
 21
7.390027972638266E-17
 40
0.577350269189626
 50
110.5639973251887
 51
149.7214090532264
 73
     0
 72
     3
 10
29.38180257698398
 20
20.48604849178406
 11
-0.5554156254019325
 21
6.801879678449019E-17
 40
0.577350269189626
 50
149.9894781257332
 51
172.5028351519319
 73
     0
 72
     3
 10
29.32884472953143
 20
20.48244657648974
 11
-0.6084621592174649
 21
7.451512356879556E-17
 40
0.5773502691896257
 50
172.8220924715372
 51
192.0241976464577
 73
     0
 72
     3
 10
30.22476614637547
 20
20.04271166167536
 11
-0.6397786843038992
 21
7.835029178954751E-17
 40
0.5773502691896258
 50
44.38326034264894
 51
101.3563478305201
 73
     0
 72
     3
 10
30.21523624278067
 20
20.06937349469641
 11
-0.5951877835293355
 21
7.288948139908085E-17
 40
0.5773502691896258
 50
103.7440476493121
 51
151.0773596757336
 73
     0
 72
     3
 10
30.14334971329281
 20
20.0125342588276
 11
-0.7155122812613154
 21
8.762498249972906E-17
 40
0.5773502691896258
 50
149.6018044079268
 51
168.789588564148
 73
     0
 72
     3
 10
30.23917839226061
 20
20.02240175741674
 11
-0.619506571117341
 21
7.586767393696038E-17
 40
0.5773502691896258
 50
167.9262442185536
 51
183.9227190861527
 73
     0
 72
     3
 10
30.11471830414324
 20
20.05069447268748
 11
-0.7496482919805894
 21
9.180543812603092E-17
 40
0.5773502691896257
 50
185.442985492454
 51
199.844824517489
 73
     0
 72
     3
 10
29.36851036016019
 20
20.32156824160737
 11
-1.63109123998055
 21
1.997510666159468E-16
 40
0.5773502691896257
 50
199.9021314232037
 51
210.9448863651868
 73
     0
 72
     1
 10
30.49990703037187
 20
19.6432369047286
 11
29.83944072010981
 21
19.26191650270812
 97
        0
 92
        0
 93
        9
 72
     1
 10
29.06436755457866
 20
19.97407839843152
 11
29.43890748365393
 21
20.19031912730539
 72
     3
 10
28.63732177495083
 20
20.6917711938776
 11
-1.181906161082881
 21
1.447417597062686E-16
 40
0.577350269189626
 50
147.9709276130747
 51
160.0172570460875
 73
     1
 72
     3
 10
29.34195958781665
 20
20.42937510751193
 11
-0.3435814613067224
 21
4.207659368356478E-17
 40
0.5773502691896256
 50
161.0809574079885
 51
184.1260468043397
 73
     1
 72
     3
 10
29.33705220423789
 20
20.41811093179105
 11
-0.3513705851469011
 21
4.303048624146849E-17
 40
0.5773502691896257
 50
185.9195547647734
 51
211.9077132783013
 73
     1
 72
     3
 10
29.29178414927286
 20
20.40936550236085
 11
-0.3939231890866848
 21
4.824167726249261E-17
 40
0.5773502691896258
 50
208.9963026698228
 51
247.6450599278098
 73
     1
 72
     3
 10
29.31620725767769
 20
20.46413309755767
 11
-0.2959925550415816
 21
3.624863351031197E-17
 40
0.5773502691896257
 50
248.2064697325146
 51
313.2762939318853
 73
     1
 72
     3
 10
29.91521860368012
 20
19.93133410343185
 11
-1.395486096245122
 21
1.708977581021224E-16
 40
0.577350269189626
 50
317.3109900137048
 51
332.0797444228951
 73
     1
 72
     1
 10
28.88714045880172
 20
20.47613889196833
 11
28.54095686505076
 21
20.27626970092718
 72
     1
 10
28.54095686505076
 20
20.27626970092718
 11
29.06436755457866
 21
19.97407839843152
 97
        0
 92
        0
 93
       10
 72
     1
 10
29.86425251351858
 20
19.51226460206682
 11
30.29550511324247
 21
19.76124840660614
 72
     3
 10
29.32876082118336
 20
20.34893129399365
 11
-1.403819096113617
 21
1.719182562637472E-16
 40
0.5773502691896256
 50
148.7046239301825
 51
156.142324419118
 73
     1
 72
     3
 10
30.01662359754948
 20
20.03620180811551
 11
-0.5284963332241254
 21
6.472213428440382E-17
 40
0.5773502691896258
 50
157.1063413167473
 51
171.5018150963819
 73
     1
 72
     3
 10
30.181494030886
 20
20.00325733872218
 11
-0.3548616279368293
 21
4.345801567930570E-17
 40
0.5773502691896257
 50
172.8493021042772
 51
190.4905482103078
 73
     1
 72
     3
 10
30.11264575072909
 20
19.99228958418296
 11
-0.4262323416409982
 21
5.219840728837297E-17
 40
0.5773502691896257
 50
190.2478349081873
 51
211.0355408556606
 73
     1
 72
     3
 10
30.11331716880339
 20
20.00758565430062
 11
-0.4070427528934817
 21
4.984836044471294E-17
 40
0.5773502691896258
 50
208.8603087737284
 51
251.6766396020282
 73
     1
 72
     3
 10
30.12478225962964
 20
20.02801116370913
 11
-0.3701698575118728
 21
4.533273311427469E-17
 40
0.5773502691896258
 50
252.8378123437186
 51
312.4986844946527
 73
     1
 72
     3
 10
30.55313339517081
 20
19.61277981217792
 11
-1.206941275358236
 21
1.478076769626287E-16
 40
0.577350269189626
 50
314.8719575267521
 51
331.7683288112408
 73
     1
 72
     1
 10
29.66930270816394
 20
20.08731486844118
 11
29.26876947170807
 21
19.85606689655399
 72
     1
 10
29.26876947170807
 20
19.85606689655399
 11
29.86425251351858
 21
19.51226460206682
 97
        0
 92
        0
 93
       12
 72
     1
 10
22.58948194662561
 20
15.07615085322332
 11
20.85738246389897
 21
16.07617895583876
 72
     1
 10
20.85738246389897
 20
16.07617895583876
 11
22.10978727405602
 21
16.79925521011731
 72
     1
 10
22.10978727405602
 20
16.79925521011731
 11
22.31418919118543
 21
16.68124370823977
 72
     1
 10
22.31418919118543
 20
16.68124370823977
 11
21.29099809156656
 21
16.09050405144239
 72
     1
 10
21.29099809156656
 20
16.09050405144239
 11
21.82149786492553
 21
15.78421986448855
 72
     1
 10
21.82149786492553
 20
15.78421986448855
 11
22.77970569609285
 21
16.33744141375261
 72
     1
 10
22.77970569609285
 20
16.33744141375261
 11
22.98292609925041
 21
16.22011205928477
 72
     1
 10
22.98292609925041
 20
16.22011205928477
 11
22.02471826808309
 21
15.66689051002071
 72
     1
 10
22.02471826808309
 20
15.66689051002071
 11
22.61429374003438
 21
15.32649895258203
 72
     1
 10
22.61429374003438
 20
15.32649895258203
 11
23.67765631469602
 21
15.9404316213091
 72
     1
 10
23.67765631469602
 20
15.9404316213091
 11
23.88205823182543
 21
15.82242011943157
 72
     1
 10
23.88205823182543
 20
15.82242011943157
 11
22.58948194662561
 21
15.07615085322332
 97
        0
 92
        0
 93
       16
 72
     1
 10
24.02237483112189
 20
15.90343194580715
 11
23.78961657866817
 21
16.81137014811352
 72
     1
 10
23.78961657866817
 20
16.81137014811352
 11
22.36943678450896
 21
16.94916392487227
 72
     1
 10
22.36943678450896
 20
16.94916392487227
 11
22.64236651200545
 21
17.10673997651222
 72
     1
 10
22.64236651200545
 20
17.10673997651222
 11
23.40089848193075
 21
17.03170376144557
 72
     3
 10
22.84991236071338
 20
14.99303975729459
 11
-3.573798885113284
 21
4.376641365450362E-16
 40
0.5773502691896257
 50
105.1238986093878
 51
114.3400686197158
 73
     0
 72
     3
 10
26.86627122012324
 20
17.41299202263261
 11
-3.198559952761013
 21
3.917106208029683E-16
 40
0.5773502691896258
 50
352.2521254004111
 51
355.8451912342728
 73
     0
 72
     1
 10
23.69273243297678
 20
17.18245833898857
 11
23.58167011962323
 21
17.64904716722113
 72
     1
 10
23.58167011962323
 20
17.64904716722113
 11
23.83096956768279
 21
17.79298027066714
 72
     1
 10
23.83096956768279
 20
17.79298027066714
 11
24.03891602672774
 21
16.97031049457286
 72
     1
 10
24.03891602672774
 20
16.97031049457286
 11
25.61032960928328
 21
16.82023806443958
 72
     1
 10
25.61032960928328
 20
16.82023806443958
 11
25.32676625604017
 21
16.65652268611236
 72
     1
 10
25.32676625604017
 20
16.65652268611236
 11
24.2728557931533
 21
16.76157338720566
 72
     3
 10
25.04687830860225
 20
19.16570047404912
 11
-4.235397502419947
 21
5.186865994455283E-16
 40
0.5773502691896257
 50
287.8462608446735
 51
292.0717071582188
 73
     0
 72
     3
 10
20.00885626261342
 20
16.19782727790603
 11
-4.19756079890577
 21
5.140529396606358E-16
 40
0.5773502691896257
 50
171.7990445747247
 51
173.5720268828852
 73
     0
 72
     1
 10
24.12871108858805
 20
16.66197986538993
 11
24.29766758656207
 21
16.06237229226649
 72
     1
 10
24.29766758656207
 20
16.06237229226649
 11
24.02237483112189
 21
15.90343194580715
 97
        0
 92
        0
 93
       22
 72
     1
 10
25.272133049982
 20
17.14886940053509
 11
25.4765349671114
 21
17.28870961952292
 72
     3
 10
25.8375024614192
 20
17.54060102115968
 11
-0.5662555665090085
 21
6.934630670246285E-17
 40
0.5773502691896258
 50
34.90821925213757
 51
89.8938422547058
 73
     1
 72
     3
 10
25.81762736958072
 20
17.46881430845835
 11
-0.4423369200949511
 21
5.417064933389804E-17
 40
0.5773502691896258
 50
94.31902894170277
 51
151.0463916211108
 73
     1
 72
     3
 10
25.80206910021085
 20
17.49073295605176
 11
-0.4801254599747087
 21
5.879841077471777E-17
 40
0.5773502691896258
 50
149.3323352480818
 51
182.1887743713567
 73
     1
 72
     3
 10
25.66557051708535
 20
17.48395782330157
 11
-0.6171069487915527
 21
7.557380495691647E-17
 40
0.5773502691896258
 50
182.3335778546914
 51
212.4638649214353
 73
     1
 72
     3
 10
25.66491310614675
 20
17.5328706511412
 11
-0.557775949300061
 21
6.830785309516961E-17
 40
0.5773502691896257
 50
207.3580127737194
 51
265.3672855406423
 73
     1
 72
     3
 10
25.68885242704972
 20
17.56355827311162
 11
-0.5040184966931047
 21
6.172446386862716E-17
 40
0.5773502691896257
 50
269.5811418646864
 51
331.9850108410885
 73
     1
 72
     3
 10
25.68365934468337
 20
17.54360538533825
 11
-0.5244181297307311
 21
6.422269839895812E-17
 40
0.5773502691896258
 50
329.2810463057437
 51
350.6413578515757
 73
     1
 72
     3
 10
25.66829586873489
 20
17.54418262811806
 11
-0.509380732736563
 21
6.238114838931653E-17
 40
0.5773502691896257
 50
350.4184790001437
 51
367.1480971302
 73
     1
 72
     1
 10
25.17052284840322
 20
17.4817573364671
 11
24.94485367978058
 21
17.38148166724168
 72
     1
 10
24.94485367978058
 20
17.38148166724168
 11
24.22294864298251
 21
17.99200359892027
 72
     1
 10
24.22294864298251
 20
17.99200359892027
 11
25.08427232845844
 21
18.48928906058919
 72
     1
 10
25.08427232845844
 20
18.48928906058919
 11
25.287492731616
 21
18.37195970612136
 72
     1
 10
25.287492731616
 20
18.37195970612136
 11
24.59630705808593
 21
17.97290347144876
 72
     1
 10
24.59630705808593
 20
17.97290347144876
 11
24.96848395921751
 21
17.6502477466622
 72
     3
 10
25.75621063343522
 20
17.57972540493839
 11
-0.7971408378202186
 21
9.762159755061701E-17
 40
0.5773502691896257
 50
5.115846776186506
 51
29.51731464136289
 73
     0
 72
     3
 10
25.71628811506507
 20
17.60897758294833
 11
-0.7332083299253007
 21
8.979212343511960E-17
 40
0.5773502691896258
 50
28.96925443179533
 51
91.45184626828019
 73
     0
 72
     3
 10
25.71791457129835
 20
17.58385438971793
 11
-0.776697818507745
 21
9.511804973402418E-17
 40
0.5773502691896258
 50
91.16280677146965
 51
151.8019308350766
 73
     0
 72
     3
 10
25.67010052167029
 20
17.51701082925678
 11
-0.8920523515375576
 21
1.092449056982339E-16
 40
0.5773502691896258
 50
148.9123499464123
 51
176.2431111113141
 73
     0
 72
     3
 10
25.78577729331786
 20
17.520821569341
 11
-0.7763980070456113
 21
9.508133341927921E-17
 40
0.5773502691896257
 50
175.963004676087
 51
212.072216609215
 73
     0
 72
     3
 10
25.72850201303799
 20
17.50078340959518
 11
-0.7924064778281386
 21
9.704180566958580E-17
 40
0.5773502691896258
 50
207.9571873172676
 51
261.8532781724247
 73
     0
 72
     3
 10
25.75371614733982
 20
17.46585727907697
 11
-0.7303192624381474
 21
8.943831471005330E-17
 40
0.5773502691896257
 50
264.5652487319837
 51
326.6462670483029
 73
     0
 97
        0
 75
     0
 76
     1
 98
        0
  0
HATCH
  5
F2
330
11B
100
AcDbEntity
  8
text
100
AcDbHatch
 10
0.0
 20
0.0
 30
0.0
210
0.0
220
0.0
230
1.0
  2
ANSI31
 70
     0
 71
     0
 91
        1
 92
        0
 93
        8
 72
     1
 10
6.928203230275511
 20
3.999999999999998
 11
8.01073498500606
 21
2.124999999999998
 72
     1
 10
8.01073498500606
 20
2.124999999999998
 11
5.412658773652741
 21
0.624999999999996
 72
     1
 10
5.412658773652741
 20
0.624999999999996
 11
4.330127018922189
 21
2.499999999999998
 72
     1
 10
4.330127018922189
 20
2.499999999999998
 11
0.0
 21
0.0000000000000004
 72
     1
 10
0.0
 20
0.0000000000000004
 11
4.330127018922195
 21
-7.500000000000002
 72
     1
 10
4.330127018922195
 20
-7.500000000000002
 11
38.97114317029973
 21
12.49999999999999
 72
     1
 10
38.97114317029973
 20
12.49999999999999
 11
34.64101615137754
 21
19.99999999999999
 72
     1
 10
34.64101615137754
 20
19.99999999999999
 11
6.928203230275511
 21
3.999999999999998
 97
        0
 75
     0
 76
     1
 52
75.0
 41
0.5
 77
     0
 78
     1
 53
120.0
 43
0.0
 44
0.0
 45
-1.374815328507796
 46
-0.7937500000000002
 79
     0
 98
        0
  0
DIMENSION
  5
F9
330
11B
100
AcDbEntity
  8
dim
100
AcDbDimension
280
     0
  2
*D1
 10
17.32050807568877
 20
0.0
 30
0.0
 11
30.34687918533906
 21
-0.5288322673279345
 31
0.0
 70
    34
 71
     5
 42
0.5235987755982991
 73
     0
 74
     0
 75
     0
  3
QCADDimStyle
100
AcDb2LineAngularDimension
 13
4.330127018922197
 23
-7.500000000000002
 33
0.0
 14
-45.6698729810778
 24
-7.500000000000004
 34
0.0
 15
4.330127018922195
 25
-7.500000000000002
 35
0.0
 16
28.9503208442274
 26
-3.158795558326737
 36
0.0
1001
ACAD
1000
DSTYLE
1002
{
1070
   279
1070
     2
1070
    41
1040
2.5
1070
    79
1070
     2
1070
   176
1070
     0
1070
   177
1070
     0
1070
   178
1070
     0
1070
    44
1040
1.25
1070
    42
1040
0.625
1070
   147
1040
0.625
1070
   140
1040
2.5
1070
    78
1070
     8
1002
}
  0
DIMENSION
  5
FA
330
11B
100
AcDbEntity
  8
dim
100
AcDbDimension
280
     0
  2
*D2
 10
-12.99038105676658
 20
2.5
 30
0.0
 11
-21.68662514749467
 21
-0.5288322673279401
 31
0.0
 70
    34
 71
     5
 42
0.5235987755982989
 73
     0
 74
     0
 75
     0
  3
QCADDimStyle
100
AcDb2LineAngularDimension
 13
4.330127018922195
 23
-7.500000000000003
 33
0.0
 14
54.3301270189222
 24
-7.500000000000004
 34
0.0
 15
4.330127018922195
 25
-7.500000000000002
 35
0.0
 16
-19.16218850072551
 26
1.050503583141714
 36
0.0
1001
ACAD
1000
DSTYLE
1002
{
1070
   279
1070
     2
1070
    41
1040
2.5
1070
    79
1070
     2
1070
   176
1070
     0
1070
   177
1070
     0
1070
   178
1070
     0
1070
    44
1040
1.25
1070
    42
1040
0.625
1070
   147
1040
0.625
1070
   140
1040
2.5
1070
    78
1070
     8
1002
}
  0
DIMENSION
  5
FB
330
11B
100
AcDbEntity
  8
dim
100
AcDbDimension
280
     0
  2
*D3
 10
-25.98076211353316
 20
10.0
 30
0.0
 11
4.330127018922202
 21
-30.56547619047619
 31
0.0
 70
    34
 71
     5
 42
2.094395102393196
 73
     0
 74
     0
 75
     0
  3
QCADDimStyle
100
AcDb2LineAngularDimension
 13
38.97114317029973
 23
12.49999999999999
 33
0.0
 14
4.330127018922195
 24
-7.500000000000002
 34
0.0
 15
4.330127018922195
 25
-7.500000000000002
 35
0.0
 16
-4.220376564219519
 26
-30.99231551964771
 36
0.0
1001
ACAD
1000
DSTYLE
1002
{
1070
   279
1070
     2
1070
    41
1040
2.5
1070
    79
1070
     2
1070
   176
1070
     0
1070
   177
1070
     0
1070
   178
1070
     0
1070
    44
1040
1.25
1070
    42
1040
0.625
1070
   147
1040
0.625
1070
   140
1040
2.5
1070
    78
1070
     8
1002
}
  0
ENDSEC
  0
SECTION
  2
OBJECTS
  0
DICTIONARY
  5
109
330
0
100
AcDbDictionary
281
     1
  3
ACAD_GROUP
350
10A
  3
ACAD_LAYOUT
350
116
  3
ACAD_MATERIAL
350
137
  3
ACAD_MLEADERSTYLE
350
1D1
  3
ACAD_MLINESTYLE
350
113
  3
ACAD_PLOTSETTINGS
350
115
  3
ACAD_PLOTSTYLENAME
350
10B
  3
ACAD_SCALELIST
350
13B
  3
ACAD_TABLESTYLE
350
1D0
  3
ACAD_VISUALSTYLE
350
126
  3
AcDbVariableDictionary
350
1CD
  3
ACDB_RECOMPOSE_DATA
350
1CF
  3
QCAD_OBJECTS
350
15F
  0
SUN
  5
15D
330
125
100
AcDbSun
 90
        1
290
     0
 63
     7
421
 16777215
 40
1.0
291
     1
 91
  2455826
 92
 54000000
292
     0
 70
     2
 71
   256
280
     1
  0
DICTIONARY
  5
10A
102
{ACAD_REACTORS
330
109
102
}
330
109
100
AcDbDictionary
281
     1
  0
DICTIONARY
  5
116
102
{ACAD_REACTORS
330
109
102
}
330
109
100
AcDbDictionary
281
     1
  3
Layout1
350
11A
  3
Layout2
350
122
  3
Model
350
11E
  0
DICTIONARY
  5
137
102
{ACAD_REACTORS
330
109
102
}
330
109
100
AcDbDictionary
281
     1
  3
ByBlock
350
139
  3
ByLayer
350
138
  3
Global
350
13A
  0
DICTIONARY
  5
1D1
102
{ACAD_REACTORS
330
109
102
}
330
109
100
AcDbDictionary
281
     1
  0
DICTIONARY
  5
113
102
{ACAD_REACTORS
330
109
102
}
330
109
100
AcDbDictionary
281
     1
  3
Standard
350
114
  0
DICTIONARY
  5
115
102
{ACAD_REACTORS
330
109
102
}
330
109
100
AcDbDictionary
281
     1
  0
ACDBDICTIONARYWDFLT
  5
10B
102
{ACAD_REACTORS
330
109
102
}
330
109
100
AcDbDictionary
281
     1
  3
Normal
350
10C
100
AcDbDictionaryWithDefault
340
10C
  0
DICTIONARY
  5
13B
102
{ACAD_REACTORS
330
109
102
}
330
109
100
AcDbDictionary
281
     1
  3
A0
350
13C
  3
A1
350
13D
  3
A2
350
13E
  3
A3
350
13F
  3
A4
350
140
  3
A5
350
141
  3
A6
350
142
  3
A7
350
143
  3
A8
350
144
  3
A9
350
145
  3
B0
350
146
  3
B1
350
147
  3
B2
350
148
  3
B3
350
149
  3
B4
350
14A
  3
B5
350
14B
  3
B6
350
14C
  3
B7
350
14D
  3
B8
350
14E
  3
B9
350
14F
  3
C0
350
150
  3
C1
350
151
  3
C2
350
152
  3
C3
350
153
  3
C4
350
154
  3
C5
350
155
  3
C6
350
156
  3
C7
350
157
  3
C8
350
158
  3
C9
350
159
  3
D0
350
15A
  3
D1
350
15B
  3
D2
350
15C
  0
DICTIONARY
  5
1D0
102
{ACAD_REACTORS
330
109
102
}
330
109
100
AcDbDictionary
281
     1
  0
DICTIONARY
  5
126
102
{ACAD_REACTORS
330
109
102
}
330
109
100
AcDbDictionary
281
     1
  3
2dWireframe
350
12B
  3
3D Hidden
350
12D
  3
3dWireframe
350
12C
  3
Basic
350
12E
  3
Brighten
350
132
  3
ColorChange
350
136
  3
Conceptual
350
130
  3
Dim
350
131
  3
Facepattern
350
135
  3
Flat
350
127
  3
FlatWithEdges
350
128
  3
Gouraud
350
129
  3
GouraudWithEdges
350
12A
  3
Linepattern
350
134
  3
Realistic
350
12F
  3
Thicken
350
133
  0
DICTIONARY
  5
1CD
102
{ACAD_REACTORS
330
109
102
}
330
109
100
AcDbDictionary
281
     1
  3
CANNOSCALE
350
1CE
  0
XRECORD
  5
1CF
102
{ACAD_REACTORS
330
109
102
}
330
109
100
AcDbXrecord
280
     1
  0
DICTIONARY
  5
15F
102
{ACAD_REACTORS
330
109
102
}
330
109
100
AcDbDictionary
281
     1
  3
Grid/DisplayGrid00
350
175
  3
Grid/DisplayGrid01
350
176
  3
Grid/DisplayGrid02
350
177
  3
Grid/DisplayGrid03
350
17A
  3
Grid/GridSpacingX00
350
16C
  3
Grid/GridSpacingX01
350
16D
  3
Grid/GridSpacingX02
350
170
  3
Grid/GridSpacingX03
350
172
  3
Grid/GridSpacingY00
350
187
  3
Grid/GridSpacingY01
350
188
  3
Grid/GridSpacingY02
350
189
  3
Grid/GridSpacingY03
350
18A
  3
Grid/IsometricGrid00
350
160
  3
Grid/IsometricGrid01
350
162
  3
Grid/IsometricGrid02
350
163
  3
Grid/IsometricGrid03
350
164
  3
Grid/IsometricProjection00
350
17D
  3
Grid/IsometricProjection01
350
17E
  3
Grid/IsometricProjection02
350
180
  3
Grid/IsometricProjection03
350
183
  3
Grid/MetaGridSpacingX00
350
16B
  3
Grid/MetaGridSpacingX01
350
16F
  3
Grid/MetaGridSpacingX02
350
171
  3
Grid/MetaGridSpacingX03
350
173
  3
Grid/MetaGridSpacingY00
350
165
  3
Grid/MetaGridSpacingY01
350
166
  3
Grid/MetaGridSpacingY02
350
167
  3
Grid/MetaGridSpacingY03
350
168
  3
MultiPageSettings/Columns
350
16A
  3
MultiPageSettings/GlueMarginsBottom
350
174
  3
MultiPageSettings/GlueMarginsLeft
350
169
  3
MultiPageSettings/GlueMarginsRight
350
17C
  3
MultiPageSettings/GlueMarginsTop
350
17F
  3
MultiPageSettings/PrintCropMarks
350
179
  3
MultiPageSettings/Rows
350
16E
  3
PageSettings/OffsetX
350
181
  3
PageSettings/OffsetY
350
182
  3
PageSettings/PageOrientation
350
185
  3
PageSettings/PaperHeight
350
184
  3
PageSettings/PaperWidth
350
186
  3
PageSettings/Scale
350
178
  3
PageSettings/ShowPaperBorders
350
17B
  3
UnitSettings/PaperUnit
350
161
  0
LAYOUT
  5
11A
102
{ACAD_REACTORS
330
116
102
}
330
116
100
AcDbPlotSettings
  1

  2
none_device
  4

  6

 40
0.0
 41
0.0
 42
0.0
 43
0.0
 44
0.0
 45
0.0
 46
0.0
 47
0.0
 48
0.0
 49
0.0
140
0.0
141
0.0
142
1.0
143
1.0
 70
   688
 72
     0
 73
     0
 74
     5
  7

 75
    16
 76
     0
 77
     2
 78
   300
147
1.0
148
0.0
149
0.0
100
AcDbLayout
  1
Layout1
 70
     1
 71
     1
 10
0.0
 20
0.0
 11
12.0
 21
9.0
 12
0.0
 22
0.0
 32
0.0
 14
1.000000000000000E+20
 24
1.000000000000000E+20
 34
1.000000000000000E+20
 15
-1.000000000000000E+20
 25
-1.000000000000000E+20
 35
-1.000000000000000E+20
146
0.0
 13
0.0
 23
0.0
 33
0.0
 16
1.0
 26
0.0
 36
0.0
 17
0.0
 27
1.0
 37
0.0
 76
     0
330
117
  0
LAYOUT
  5
122
102
{ACAD_REACTORS
330
116
102
}
330
116
100
AcDbPlotSettings
  1

  2
none_device
  4

  6

 40
0.0
 41
0.0
 42
0.0
 43
0.0
 44
0.0
 45
0.0
 46
0.0
 47
0.0
 48
0.0
 49
0.0
140
0.0
141
0.0
142
1.0
143
1.0
 70
   688
 72
     0
 73
     0
 74
     5
  7

 75
    16
 76
     0
 77
     2
 78
   300
147
1.0
148
0.0
149
0.0
100
AcDbLayout
  1
Layout2
 70
     1
 71
     2
 10
0.0
 20
0.0
 11
0.0
 21
0.0
 12
0.0
 22
0.0
 32
0.0
 14
0.0
 24
0.0
 34
0.0
 15
0.0
 25
0.0
 35
0.0
146
0.0
 13
0.0
 23
0.0
 33
0.0
 16
1.0
 26
0.0
 36
0.0
 17
0.0
 27
1.0
 37
0.0
 76
     0
330
11F
  0
LAYOUT
  5
11E
102
{ACAD_REACTORS
330
116
102
}
330
116
100
AcDbPlotSettings
  1

  2
none_device
  4

  6

 40
0.0
 41
0.0
 42
0.0
 43
0.0
 44
0.0
 45
0.0
 46
0.0
 47
0.0
 48
0.0
 49
0.0
140
0.0
141
0.0
142
1.0
143
1.0
 70
  1712
 72
     0
 73
     0
 74
     0
  7

 75
     0
 76
     0
 77
     2
 78
   300
147
1.0
148
0.0
149
0.0
100
AcDbLayout
  1
Model
 70
     1
 71
     0
 10
0.0
 20
0.0
 11
12.0
 21
9.0
 12
0.0
 22
0.0
 32
0.0
 14
1.000000000000000E+20
 24
1.000000000000000E+20
 34
1.000000000000000E+20
 15
-1.000000000000000E+20
 25
-1.000000000000000E+20
 35
-1.000000000000000E+20
146
0.0
 13
0.0
 23
0.0
 33
0.0
 16
1.0
 26
0.0
 36
0.0
 17
0.0
 27
1.0
 37
0.0
 76
     0
330
11B
331
125
  0
MATERIAL
  5
139
102
{ACAD_REACTORS
330
137
102
}
330
137
100
AcDbMaterial
  1
ByBlock
 72
     1
 94
      127
  0
MATERIAL
  5
138
102
{ACAD_REACTORS
330
137
102
}
330
137
100
AcDbMaterial
  1
ByLayer
 72
     1
 94
      127
  0
MATERIAL
  5
13A
102
{ACAD_REACTORS
330
137
102
}
330
137
100
AcDbMaterial
  1
Global
 72
     1
 94
      127
  0
MLINESTYLE
  5
114
102
{ACAD_REACTORS
330
113
102
}
330
113
100
AcDbMlineStyle
  2
Standard
 70
     0
  3

 62
   256
 51
90.0
 52
90.0
 71
     2
 49
0.5
 62
   256
  6
BYLAYER
 49
-0.5
 62
   256
  6
BYLAYER
  0
ACDBPLACEHOLDER
  5
10C
102
{ACAD_REACTORS
330
10B
102
}
330
10B
  0
SCALE
  5
13C
102
{ACAD_REACTORS
330
13B
102
}
330
13B
100
AcDbScale
 70
     0
300
1:1
140
1.0
141
1.0
290
     1
  0
SCALE
  5
13D
102
{ACAD_REACTORS
330
13B
102
}
330
13B
100
AcDbScale
 70
     0
300
1:2
140
1.0
141
2.0
290
     0
  0
SCALE
  5
13E
102
{ACAD_REACTORS
330
13B
102
}
330
13B
100
AcDbScale
 70
     0
300
1:4
140
1.0
141
4.0
290
     0
  0
SCALE
  5
13F
102
{ACAD_REACTORS
330
13B
102
}
330
13B
100
AcDbScale
 70
     0
300
1:5
140
1.0
141
5.0
290
     0
  0
SCALE
  5
140
102
{ACAD_REACTORS
330
13B
102
}
330
13B
100
AcDbScale
 70
     0
300
1:8
140
1.0
141
8.0
290
     0
  0
SCALE
  5
141
102
{ACAD_REACTORS
330
13B
102
}
330
13B
100
AcDbScale
 70
     0
300
1:10
140
1.0
141
10.0
290
     0
  0
SCALE
  5
142
102
{ACAD_REACTORS
330
13B
102
}
330
13B
100
AcDbScale
 70
     0
300
1:16
140
1.0
141
16.0
290
     0
  0
SCALE
  5
143
102
{ACAD_REACTORS
330
13B
102
}
330
13B
100
AcDbScale
 70
     0
300
1:20
140
1.0
141
20.0
290
     0
  0
SCALE
  5
144
102
{ACAD_REACTORS
330
13B
102
}
330
13B
100
AcDbScale
 70
     0
300
1:30
140
1.0
141
30.0
290
     0
  0
SCALE
  5
145
102
{ACAD_REACTORS
330
13B
102
}
330
13B
100
AcDbScale
 70
     0
300
1:40
140
1.0
141
40.0
290
     0
  0
SCALE
  5
146
102
{ACAD_REACTORS
330
13B
102
}
330
13B
100
AcDbScale
 70
     0
300
1:50
140
1.0
141
50.0
290
     0
  0
SCALE
  5
147
102
{ACAD_REACTORS
330
13B
102
}
330
13B
100
AcDbScale
 70
     0
300
1:100
140
1.0
141
100.0
290
     0
  0
SCALE
  5
148
102
{ACAD_REACTORS
330
13B
102
}
330
13B
100
AcDbScale
 70
     0
300
2:1
140
2.0
141
1.0
290
     0
  0
SCALE
  5
149
102
{ACAD_REACTORS
330
13B
102
}
330
13B
100
AcDbScale
 70
     0
300
4:1
140
4.0
141
1.0
290
     0
  0
SCALE
  5
14A
102
{ACAD_REACTORS
330
13B
102
}
330
13B
100
AcDbScale
 70
     0
300
8:1
140
8.0
141
1.0
290
     0
  0
SCALE
  5
14B
102
{ACAD_REACTORS
330
13B
102
}
330
13B
100
AcDbScale
 70
     0
300
10:1
140
10.0
141
1.0
290
     0
  0
SCALE
  5
14C
102
{ACAD_REACTORS
330
13B
102
}
330
13B
100
AcDbScale
 70
     0
300
100:1
140
100.0
141
1.0
290
     0
  0
SCALE
  5
14D
102
{ACAD_REACTORS
330
13B
102
}
330
13B
100
AcDbScale
 70
     0
300
1/128" = 1'-0"
140
0.0078125
141
12.0
290
     0
  0
SCALE
  5
14E
102
{ACAD_REACTORS
330
13B
102
}
330
13B
100
AcDbScale
 70
     0
300
1/64" = 1'-0"
140
0.015625
141
12.0
290
     0
  0
SCALE
  5
14F
102
{ACAD_REACTORS
330
13B
102
}
330
13B
100
AcDbScale
 70
     0
300
1/32" = 1'-0"
140
0.03125
141
12.0
290
     0
  0
SCALE
  5
150
102
{ACAD_REACTORS
330
13B
102
}
330
13B
100
AcDbScale
 70
     0
300
1/16" = 1'-0"
140
0.0625
141
12.0
290
     0
  0
SCALE
  5
151
102
{ACAD_REACTORS
330
13B
102
}
330
13B
100
AcDbScale
 70
     0
300
3/32" = 1'-0"
140
0.09375
141
12.0
290
     0
  0
SCALE
  5
152
102
{ACAD_REACTORS
330
13B
102
}
330
13B
100
AcDbScale
 70
     0
300
1/8" = 1'-0"
140
0.125
141
12.0
290
     0
  0
SCALE
  5
153
102
{ACAD_REACTORS
330
13B
102
}
330
13B
100
AcDbScale
 70
     0
300
3/16" = 1'-0"
140
0.1875
141
12.0
290
     0
  0
SCALE
  5
154
102
{ACAD_REACTORS
330
13B
102
}
330
13B
100
AcDbScale
 70
     0
300
1/4" = 1'-0"
140
0.25
141
12.0
290
     0
  0
SCALE
  5
155
102
{ACAD_REACTORS
330
13B
102
}
330
13B
100
AcDbScale
 70
     0
300
3/8" = 1'-0"
140
0.375
141
12.0
290
     0
  0
SCALE
  5
156
102
{ACAD_REACTORS
330
13B
102
}
330
13B
100
AcDbScale
 70
     0
300
1/2" = 1'-0"
140
0.5
141
12.0
290
     0
  0
SCALE
  5
157
102
{ACAD_REACTORS
330
13B
102
}
330
13B
100
AcDbScale
 70
     0
300
3/4" = 1'-0"
140
0.75
141
12.0
290
     0
  0
SCALE
  5
158
102
{ACAD_REACTORS
330
13B
102
}
330
13B
100
AcDbScale
 70
     0
300
1" = 1'-0"
140
1.0
141
12.0
290
     0
  0
SCALE
  5
159
102
{ACAD_REACTORS
330
13B
102
}
330
13B
100
AcDbScale
 70
     0
300
1-1/2" = 1'-0"
140
1.5
141
12.0
290
     0
  0
SCALE
  5
15A
102
{ACAD_REACTORS
330
13B
102
}
330
13B
100
AcDbScale
 70
     0
300
3" = 1'-0"
140
3.0
141
12.0
290
     0
  0
SCALE
  5
15B
102
{ACAD_REACTORS
330
13B
102
}
330
13B
100
AcDbScale
 70
     0
300
6" = 1'-0"
140
6.0
141
12.0
290
     0
  0
SCALE
  5
15C
102
{ACAD_REACTORS
330
13B
102
}
330
13B
100
AcDbScale
 70
     0
300
1'-0" = 1'-0"
140
12.0
141
12.0
290
     0
  0
VISUALSTYLE
  5
12B
102
{ACAD_REACTORS
330
126
102
}
330
126
100
AcDbVisualStyle
  2
2dWireframe
 70
     4
177
     2
291
     0
 71
     0
176
     1
 72
     2
176
     1
 73
     0
176
     1
 90
        0
176
     1
 40
-0.6
176
     1
 41
-30.0
176
     1
 62
     5
 63
     7
421
 16777215
176
     1
 74
     1
176
     1
 91
        4
176
     1
 64
     7
176
     1
 65
   257
176
     1
 75
     1
176
     1
175
     1
176
     1
 42
1.0
176
     1
 92
        0
176
     1
 66
   257
176
     1
 43
1.0
176
     1
 76
     1
176
     1
 77
     6
176
     1
 78
     2
176
     1
 67
     7
176
     1
 79
     5
176
     1
170
     0
176
     1
171
     0
176
     1
290
     0
176
     1
 93
        1
176
     1
 44
0.0
176
     1
173
     0
176
     1
  0
VISUALSTYLE
  5
12D
102
{ACAD_REACTORS
330
126
102
}
330
126
100
AcDbVisualStyle
  2
3D Hidden
 70
     6
177
     2
291
     0
 71
     1
176
     1
 72
     2
176
     1
 73
     2
176
     1
 90
        0
176
     1
 40
-0.6
176
     1
 41
-30.0
176
     1
 62
     5
 63
     7
421
 16777215
176
     1
 74
     2
176
     1
 91
        2
176
     1
 64
     7
176
     1
 65
   257
176
     1
 75
     2
176
     1
175
     1
176
     1
 42
40.0
176
     1
 92
        0
176
     1
 66
   257
176
     1
 43
1.0
176
     1
 76
     1
176
     1
 77
     6
176
     1
 78
     2
176
     1
 67
     7
176
     1
 79
     3
176
     1
170
     0
176
     1
171
     0
176
     1
290
     0
176
     1
 93
        1
176
     1
 44
0.0
176
     1
173
     0
176
     1
  0
VISUALSTYLE
  5
12C
102
{ACAD_REACTORS
330
126
102
}
330
126
100
AcDbVisualStyle
  2
3dWireframe
 70
     5
177
     2
291
     0
 71
     0
176
     1
 72
     2
176
     1
 73
     0
176
     1
 90
        0
176
     1
 40
-0.6
176
     1
 41
-30.0
176
     1
 62
     5
 63
     7
421
 16777215
176
     1
 74
     1
176
     1
 91
        4
176
     1
 64
     7
176
     1
 65
   257
176
     1
 75
     1
176
     1
175
     1
176
     1
 42
1.0
176
     1
 92
        0
176
     1
 66
   257
176
     1
 43
1.0
176
     1
 76
     1
176
     1
 77
     6
176
     1
 78
     2
176
     1
 67
     7
176
     1
 79
     5
176
     1
170
     0
176
     1
171
     0
176
     1
290
     0
176
     1
 93
        1
176
     1
 44
0.0
176
     1
173
     0
176
     1
  0
VISUALSTYLE
  5
12E
102
{ACAD_REACTORS
330
126
102
}
330
126
100
AcDbVisualStyle
  2
Basic
 70
     7
177
     2
291
     1
 71
     1
176
     1
 72
     0
176
     1
 73
     1
176
     1
 90
        0
176
     1
 40
-0.6
176
     1
 41
-30.0
176
     1
 62
     5
 63
     7
421
 16777215
176
     1
 74
     0
176
     1
 91
        4
176
     1
 64
     7
176
     1
 65
   257
176
     1
 75
     1
176
     1
175
     1
176
     1
 42
1.0
176
     1
 92
        8
176
     1
 66
     7
176
     1
 43
1.0
176
     1
 76
     1
176
     1
 77
     6
176
     1
 78
     2
176
     1
 67
     7
176
     1
 79
     5
176
     1
170
     0
176
     1
171
     0
176
     1
290
     0
176
     1
 93
        1
176
     1
 44
0.0
176
     1
173
     0
176
     1
  0
VISUALSTYLE
  5
132
102
{ACAD_REACTORS
330
126
102
}
330
126
100
AcDbVisualStyle
  2
Brighten
 70
    12
177
     2
291
     1
 71
     2
176
     1
 72
     2
176
     1
 73
     0
176
     1
 90
        0
176
     1
 40
-0.6
176
     1
 41
-30.0
176
     1
 62
     5
 63
     7
421
 16777215
176
     1
 74
     1
176
     1
 91
        4
176
     1
 64
     7
176
     1
 65
   257
176
     1
 75
     1
176
     1
175
     1
176
     1
 42
1.0
176
     1
 92
        8
176
     1
 66
     7
176
     1
 43
1.0
176
     1
 76
     1
176
     1
 77
     6
176
     1
 78
     2
176
     1
 67
     7
176
     1
 79
     5
176
     1
170
     0
176
     1
171
     0
176
     1
290
     0
176
     1
 93
        1
176
     1
 44
50.0
176
     1
173
     0
176
     1
  0
VISUALSTYLE
  5
136
102
{ACAD_REACTORS
330
126
102
}
330
126
100
AcDbVisualStyle
  2
ColorChange
 70
    16
177
     2
291
     1
 71
     2
176
     1
 72
     2
176
     1
 73
     3
176
     1
 90
        0
176
     1
 40
-0.6
176
     1
 41
-30.0
176
     1
 62
     5
 63
     8
421
  8421504
176
     1
 74
     1
176
     1
 91
        4
176
     1
 64
     7
176
     1
 65
   257
176
     1
 75
     1
176
     1
175
     1
176
     1
 42
1.0
176
     1
 92
        8
176
     1
 66
     8
424
  8421504
176
     1
 43
1.0
176
     1
 76
     1
176
     1
 77
     6
176
     1
 78
     2
176
     1
 67
     7
176
     1
 79
     5
176
     1
170
     0
176
     1
171
     0
176
     1
290
     0
176
     1
 93
        1
176
     1
 44
0.0
176
     1
173
     0
176
     1
  0
VISUALSTYLE
  5
130
102
{ACAD_REACTORS
330
126
102
}
330
126
100
AcDbVisualStyle
  2
Conceptual
 70
     9
177
     2
291
     0
 71
     3
176
     1
 72
     2
176
     1
 73
     0
176
     1
 90
        0
176
     1
 40
-0.6
176
     1
 41
-30.0
176
     1
 62
     5
 63
     7
421
 16777215
176
     1
 74
     2
176
     1
 91
        2
176
     1
 64
     7
176
     1
 65
   257
176
     1
 75
     1
176
     1
175
     1
176
     1
 42
40.0
176
     1
 92
        8
176
     1
 66
     7
176
     1
 43
1.0
176
     1
 76
     1
176
     1
 77
     6
176
     1
 78
     2
176
     1
 67
     7
176
     1
 79
     3
176
     1
170
     0
176
     1
171
     0
176
     1
290
     0
176
     1
 93
        1
176
     1
 44
0.0
176
     1
173
     0
176
     1
  0
VISUALSTYLE
  5
131
102
{ACAD_REACTORS
330
126
102
}
330
126
100
AcDbVisualStyle
  2
Dim
 70
    11
177
     2
291
     1
 71
     2
176
     1
 72
     2
176
     1
 73
     0
176
     1
 90
        0
176
     1
 40
-0.6
176
     1
 41
-30.0
176
     1
 62
     5
 63
     7
421
 16777215
176
     1
 74
     1
176
     1
 91
        4
176
     1
 64
     7
176
     1
 65
   257
176
     1
 75
     1
176
     1
175
     1
176
     1
 42
1.0
176
     1
 92
        8
176
     1
 66
     7
176
     1
 43
1.0
176
     1
 76
     1
176
     1
 77
     6
176
     1
 78
     2
176
     1
 67
     7
176
     1
 79
     5
176
     1
170
     0
176
     1
171
     0
176
     1
290
     0
176
     1
 93
        1
176
     1
 44
-50.0
176
     1
173
     0
176
     1
  0
VISUALSTYLE
  5
135
102
{ACAD_REACTORS
330
126
102
}
330
126
100
AcDbVisualStyle
  2
Facepattern
 70
    15
177
     2
291
     1
 71
     2
176
     1
 72
     2
176
     1
 73
     0
176
     1
 90
        0
176
     1
 40
-0.6
176
     1
 41
-30.0
176
     1
 62
     5
 63
     7
421
 16777215
176
     1
 74
     1
176
     1
 91
        4
176
     1
 64
     7
176
     1
 65
   257
176
     1
 75
     1
176
     1
175
     1
176
     1
 42
1.0
176
     1
 92
        8
176
     1
 66
     7
176
     1
 43
1.0
176
     1
 76
     1
176
     1
 77
     6
176
     1
 78
     2
176
     1
 67
     7
176
     1
 79
     5
176
     1
170
     0
176
     1
171
     0
176
     1
290
     0
176
     1
 93
        1
176
     1
 44
0.0
176
     1
173
     0
176
     1
  0
VISUALSTYLE
  5
127
102
{ACAD_REACTORS
330
126
102
}
330
126
100
AcDbVisualStyle
  2
Flat
 70
     0
177
     2
291
     1
 71
     2
176
     1
 72
     1
176
     1
 73
     1
176
     1
 90
        2
176
     1
 40
-0.6
176
     1
 41
30.0
176
     1
 62
     5
 63
     7
421
 16777215
176
     1
 74
     0
176
     1
 91
        4
176
     1
 64
     7
176
     1
 65
   257
176
     1
 75
     1
176
     1
175
     1
176
     1
 42
1.0
176
     1
 92
        8
176
     1
 66
     7
176
     1
 43
1.0
176
     1
 76
     1
176
     1
 77
     6
176
     1
 78
     2
176
     1
 67
     7
176
     1
 79
     5
176
     1
170
     0
176
     1
171
     0
176
     1
290
     0
176
     1
 93
       13
176
     1
 44
0.0
176
     1
173
     0
176
     1
  0
VISUALSTYLE
  5
128
102
{ACAD_REACTORS
330
126
102
}
330
126
100
AcDbVisualStyle
  2
FlatWithEdges
 70
     1
177
     2
291
     1
 71
     2
176
     1
 72
     1
176
     1
 73
     1
176
     1
 90
        2
176
     1
 40
-0.6
176
     1
 41
30.0
176
     1
 62
     5
 63
     7
421
 16777215
176
     1
 74
     1
176
     1
 91
        4
176
     1
 64
     7
176
     1
 65
   257
176
     1
 75
     1
176
     1
175
     1
176
     1
 42
1.0
176
     1
 92
        0
176
     1
 66
   257
176
     1
 43
1.0
176
     1
 76
     1
176
     1
 77
     6
176
     1
 78
     2
176
     1
 67
     7
176
     1
 79
     5
176
     1
170
     0
176
     1
171
     0
176
     1
290
     0
176
     1
 93
       13
176
     1
 44
0.0
176
     1
173
     0
176
     1
  0
VISUALSTYLE
  5
129
102
{ACAD_REACTORS
330
126
102
}
330
126
100
AcDbVisualStyle
  2
Gouraud
 70
     2
177
     2
291
     1
 71
     2
176
     1
 72
     2
176
     1
 73
     1
176
     1
 90
        2
176
     1
 40
-0.6
176
     1
 41
30.0
176
     1
 62
     5
 63
     7
421
 16777215
176
     1
 74
     0
176
     1
 91
        4
176
     1
 64
     7
176
     1
 65
   257
176
     1
 75
     1
176
     1
175
     1
176
     1
 42
1.0
176
     1
 92
        0
176
     1
 66
     7
176
     1
 43
1.0
176
     1
 76
     1
176
     1
 77
     6
176
     1
 78
     2
176
     1
 67
     7
176
     1
 79
     5
176
     1
170
     0
176
     1
171
     0
176
     1
290
     0
176
     1
 93
       13
176
     1
 44
0.0
176
     1
173
     0
176
     1
  0
VISUALSTYLE
  5
12A
102
{ACAD_REACTORS
330
126
102
}
330
126
100
AcDbVisualStyle
  2
GouraudWithEdges
 70
     3
177
     2
291
     1
 71
     2
176
     1
 72
     2
176
     1
 73
     1
176
     1
 90
        2
176
     1
 40
-0.6
176
     1
 41
30.0
176
     1
 62
     5
 63
     7
421
 16777215
176
     1
 74
     1
176
     1
 91
        4
176
     1
 64
     7
176
     1
 65
   257
176
     1
 75
     1
176
     1
175
     1
176
     1
 42
1.0
176
     1
 92
        0
176
     1
 66
   257
176
     1
 43
1.0
176
     1
 76
     1
176
     1
 77
     6
176
     1
 78
     2
176
     1
 67
     7
176
     1
 79
     5
176
     1
170
     0
176
     1
171
     0
176
     1
290
     0
176
     1
 93
       13
176
     1
 44
0.0
176
     1
173
     0
176
     1
  0
VISUALSTYLE
  5
134
102
{ACAD_REACTORS
330
126
102
}
330
126
100
AcDbVisualStyle
  2
Linepattern
 70
    14
177
     2
291
     1
 71
     2
176
     1
 72
     2
176
     1
 73
     0
176
     1
 90
        0
176
     1
 40
-0.6
176
     1
 41
-30.0
176
     1
 62
     5
 63
     7
421
 16777215
176
     1
 74
     1
176
     1
 91
        4
176
     1
 64
     7
176
     1
 65
   257
176
     1
 75
     7
176
     1
175
     7
176
     1
 42
1.0
176
     1
 92
        8
176
     1
 66
     7
176
     1
 43
1.0
176
     1
 76
     1
176
     1
 77
     6
176
     1
 78
     2
176
     1
 67
     7
176
     1
 79
     5
176
     1
170
     0
176
     1
171
     0
176
     1
290
     0
176
     1
 93
        1
176
     1
 44
0.0
176
     1
173
     0
176
     1
  0
VISUALSTYLE
  5
12F
102
{ACAD_REACTORS
330
126
102
}
330
126
100
AcDbVisualStyle
  2
Realistic
 70
     8
177
     2
291
     0
 71
     2
176
     1
 72
     2
176
     1
 73
     0
176
     1
 90
        0
176
     1
 40
-0.6
176
     1
 41
-30.0
176
     1
 62
     5
 63
     7
421
 16777215
176
     1
 74
     1
176
     1
 91
        0
176
     1
 64
     7
176
     1
 65
   257
176
     1
 75
     1
176
     1
175
     1
176
     1
 42
1.0
176
     1
 92
        8
176
     1
 66
     8
424
  7895160
176
     1
 43
1.0
176
     1
 76
     1
176
     1
 77
     6
176
     1
 78
     2
176
     1
 67
     7
176
     1
 79
     5
176
     1
170
     0
176
     1
171
     0
176
     1
290
     0
176
     1
 93
       13
176
     1
 44
0.0
176
     1
173
     0
176
     1
  0
VISUALSTYLE
  5
133
102
{ACAD_REACTORS
330
126
102
}
330
126
100
AcDbVisualStyle
  2
Thicken
 70
    13
177
     2
291
     1
 71
     2
176
     1
 72
     2
176
     1
 73
     0
176
     1
 90
        0
176
     1
 40
-0.6
176
     1
 41
-30.0
176
     1
 62
     5
 63
     7
421
 16777215
176
     1
 74
     1
176
     1
 91
        4
176
     1
 64
     7
176
     1
 65
   257
176
     1
 75
     1
176
     1
175
     1
176
     1
 42
1.0
176
     1
 92
       12
176
     1
 66
     7
176
     1
 43
1.0
176
     1
 76
     1
176
     1
 77
     6
176
     1
 78
     2
176
     1
 67
     7
176
     1
 79
     5
176
     1
170
     0
176
     1
171
     0
176
     1
290
     0
176
     1
 93
        1
176
     1
 44
0.0
176
     1
173
     0
176
     1
  0
DICTIONARYVAR
  5
1CE
102
{ACAD_REACTORS
330
1CD
102
}
330
1CD
100
DictionaryVariables
280
     0
  1
1:1
  0
XRECORD
  5
175
102
{ACAD_REACTORS
330
15F
102
}
330
15F
100
AcDbXrecord
280
     1
290
     1
  0
XRECORD
  5
176
102
{ACAD_REACTORS
330
15F
102
}
330
15F
100
AcDbXrecord
280
     1
290
     1
  0
XRECORD
  5
177
102
{ACAD_REACTORS
330
15F
102
}
330
15F
100
AcDbXrecord
280
     1
290
     1
  0
XRECORD
  5
17A
102
{ACAD_REACTORS
330
15F
102
}
330
15F
100
AcDbXrecord
280
     1
290
     1
  0
XRECORD
  5
16C
102
{ACAD_REACTORS
330
15F
102
}
330
15F
100
AcDbXrecord
280
     1
1000
auto
  0
XRECORD
  5
16D
102
{ACAD_REACTORS
330
15F
102
}
330
15F
100
AcDbXrecord
280
     1
1000
auto
  0
XRECORD
  5
170
102
{ACAD_REACTORS
330
15F
102
}
330
15F
100
AcDbXrecord
280
     1
1000
auto
  0
XRECORD
  5
172
102
{ACAD_REACTORS
330
15F
102
}
330
15F
100
AcDbXrecord
280
     1
1000
auto
  0
XRECORD
  5
187
102
{ACAD_REACTORS
330
15F
102
}
330
15F
100
AcDbXrecord
280
     1
1000
auto
  0
XRECORD
  5
188
102
{ACAD_REACTORS
330
15F
102
}
330
15F
100
AcDbXrecord
280
     1
1000
auto
  0
XRECORD
  5
189
102
{ACAD_REACTORS
330
15F
102
}
330
15F
100
AcDbXrecord
280
     1
1000
auto
  0
XRECORD
  5
18A
102
{ACAD_REACTORS
330
15F
102
}
330
15F
100
AcDbXrecord
280
     1
1000
auto
  0
XRECORD
  5
160
102
{ACAD_REACTORS
330
15F
102
}
330
15F
100
AcDbXrecord
280
     1
290
     1
  0
XRECORD
  5
162
102
{ACAD_REACTORS
330
15F
102
}
330
15F
100
AcDbXrecord
280
     1
290
     0
  0
XRECORD
  5
163
102
{ACAD_REACTORS
330
15F
102
}
330
15F
100
AcDbXrecord
280
     1
290
     0
  0
XRECORD
  5
164
102
{ACAD_REACTORS
330
15F
102
}
330
15F
100
AcDbXrecord
280
     1
290
     0
  0
XRECORD
  5
17D
102
{ACAD_REACTORS
330
15F
102
}
330
15F
100
AcDbXrecord
280
     1
 90
        0
  0
XRECORD
  5
17E
102
{ACAD_REACTORS
330
15F
102
}
330
15F
100
AcDbXrecord
280
     1
 90
        0
  0
XRECORD
  5
180
102
{ACAD_REACTORS
330
15F
102
}
330
15F
100
AcDbXrecord
280
     1
 90
        0
  0
XRECORD
  5
183
102
{ACAD_REACTORS
330
15F
102
}
330
15F
100
AcDbXrecord
280
     1
 90
        0
  0
XRECORD
  5
16B
102
{ACAD_REACTORS
330
15F
102
}
330
15F
100
AcDbXrecord
280
     1
1000
auto
  0
XRECORD
  5
16F
102
{ACAD_REACTORS
330
15F
102
}
330
15F
100
AcDbXrecord
280
     1
1000
auto
  0
XRECORD
  5
171
102
{ACAD_REACTORS
330
15F
102
}
330
15F
100
AcDbXrecord
280
     1
1000
auto
  0
XRECORD
  5
173
102
{ACAD_REACTORS
330
15F
102
}
330
15F
100
AcDbXrecord
280
     1
1000
auto
  0
XRECORD
  5
165
102
{ACAD_REACTORS
330
15F
102
}
330
15F
100
AcDbXrecord
280
     1
1000
auto
  0
XRECORD
  5
166
102
{ACAD_REACTORS
330
15F
102
}
330
15F
100
AcDbXrecord
280
     1
1000
auto
  0
XRECORD
  5
167
102
{ACAD_REACTORS
330
15F
102
}
330
15F
100
AcDbXrecord
280
     1
1000
auto
  0
XRECORD
  5
168
102
{ACAD_REACTORS
330
15F
102
}
330
15F
100
AcDbXrecord
280
     1
1000
auto
  0
XRECORD
  5
16A
102
{ACAD_REACTORS
330
15F
102
}
330
15F
100
AcDbXrecord
280
     1
 90
        1
  0
XRECORD
  5
174
102
{ACAD_REACTORS
330
15F
102
}
330
15F
100
AcDbXrecord
280
     1
 40
10.0
  0
XRECORD
  5
169
102
{ACAD_REACTORS
330
15F
102
}
330
15F
100
AcDbXrecord
280
     1
 40
10.0
  0
XRECORD
  5
17C
102
{ACAD_REACTORS
330
15F
102
}
330
15F
100
AcDbXrecord
280
     1
 40
10.0
  0
XRECORD
  5
17F
102
{ACAD_REACTORS
330
15F
102
}
330
15F
100
AcDbXrecord
280
     1
 40
10.0
  0
XRECORD
  5
179
102
{ACAD_REACTORS
330
15F
102
}
330
15F
100
AcDbXrecord
280
     1
290
     0
  0
XRECORD
  5
16E
102
{ACAD_REACTORS
330
15F
102
}
330
15F
100
AcDbXrecord
280
     1
 90
        1
  0
XRECORD
  5
181
102
{ACAD_REACTORS
330
15F
102
}
330
15F
100
AcDbXrecord
280
     1
 40
0.0
  0
XRECORD
  5
182
102
{ACAD_REACTORS
330
15F
102
}
330
15F
100
AcDbXrecord
280
     1
 40
0.0
  0
XRECORD
  5
185
102
{ACAD_REACTORS
330
15F
102
}
330
15F
100
AcDbXrecord
280
     1
1000
Portrait
  0
XRECORD
  5
184
102
{ACAD_REACTORS
330
15F
102
}
330
15F
100
AcDbXrecord
280
     1
 40
297.0
  0
XRECORD
  5
186
102
{ACAD_REACTORS
330
15F
102
}
330
15F
100
AcDbXrecord
280
     1
 40
210.0
  0
XRECORD
  5
178
102
{ACAD_REACTORS
330
15F
102
}
330
15F
100
AcDbXrecord
280
     1
1000
1:1
  0
XRECORD
  5
17B
102
{ACAD_REACTORS
330
15F
102
}
330
15F
100
AcDbXrecord
280
     1
290
     1
  0
XRECORD
  5
161
102
{ACAD_REACTORS
330
15F
102
}
330
15F
100
AcDbXrecord
280
     1
 90
        4
  0
ENDSEC
  0
EOF
