<?xml version="1.0" encoding="UTF-8"?>
<!-- 2016-05-25 09:55:05 Generated by QCAD SVG Exporter -->
<svg width="280" height="100" viewBox="20 -100 280 100" version="1.1" xmlns="http://www.w3.org/2000/svg" style="stroke-linecap:round;stroke-linejoin:round;fill:none">
    <g transform="scale(1,-1)">
        <!-- Line -->
        <path d="M20,20 L100,20 " style="stroke:#000000;stroke-width:0.25;"/>
        <!-- Line -->
        <path d="M120,20 L160,100 " style="stroke:#000000;stroke-width:0.25;"/>
        <!-- Line -->
        <path d="M120,20 L200,20 " style="stroke:#000000;stroke-width:0.25;"/>
        <!-- Line -->
        <path d="M220,20 L260,100 " style="stroke:#000000;stroke-width:0.25;"/>
        <!-- Line -->
        <path d="M220,20 L300,20 " style="stroke:#000000;stroke-width:0.25;"/>
        <!-- Line -->
        <path d="M20,20 L88.0520646681632,62.05848896953068 " style="stroke:#0000ff;stroke-width:0.25;"/>
        <!-- Line -->
        <path d="M120,20 L194.6136490942787,48.85833274525488 " style="stroke:#0000ff;stroke-width:0.25;"/>
        <!-- Line -->
        <path d="M120,20 L179.1799157791037,73.83063782250947 " style="stroke:#0000ff;stroke-width:0.25;"/>
        <!-- Line -->
        <path d="M220,20 L296.9550686227134,41.86132231301374 " style="stroke:#0000ff;stroke-width:0.25;"/>
        <!-- Line -->
        <path d="M220,20 L288.0520646681632,62.0584889695307 " style="stroke:#0000ff;stroke-width:0.25;"/>
        <!-- Line -->
        <path d="M220,20 L273.9687140386824,79.054025307433 " style="stroke:#0000ff;stroke-width:0.25;"/>
        <!-- Text: Number: 2 -->
        <g>
            <path d="M120,0.13096862210095495 L120,8.130968622100955 L121.08594815825376,8.130968622100955 L125.28785811732605,1.8499317871759882 L125.28785811732605,8.130968622100955 L126.30286493860847,8.130968622100955 L126.30286493860847,0.13096862210095495 L125.21691678035471,0.13096862210095495 L121.0150068212824,6.417462482946794 L121.0150068212824,0.13096862210095495 Z M131.75290586630285,0.13096862210095495 L131.75290586630285,0.9822646657571621 C131.3017917235107,0.32742155525238736 130.6887858117326,0 129.91388813096862,0 C129.5719145065939,0 129.25267849022282,0.06548431105047747 128.9561800818554,0.19645293315143242 C128.65968167348794,0.32742155525238736 128.43958162801275,0.49204183719872496 128.29587994542973,0.6903137789904505 C128.15217826284675,0.8885857207821743 128.0512232833106,1.1314233742610273 127.99301500682128,1.4188267394270113 C127.95299681673488,1.6116416552978627 127.93298772169167,1.917235106866757 127.93298772169167,2.335607094133697 L127.93298772169167,5.926330150068212 L128.91525238744885,5.926330150068212 L128.91525238744885,2.7121418826739427 C128.91525238744885,2.1991814461118686 128.93526148249205,1.853569804456571 128.97527967257844,1.6753069577080488 C129.03712596634836,1.41700773078672 129.1680945884493,1.2141882673942703 129.3681855388813,1.0668485675306947 C129.56827648931332,0.9195088676671208 129.8156616643929,0.8458390177353348 130.11034106412006,0.8458390177353348 C130.4050204638472,0.8458390177353348 130.68150977717144,0.9213278763074122 130.93980900409278,1.0723055934515688 C131.1981082310141,1.2232833105957237 131.38091859936335,1.428831286948613 131.48824010914052,1.6889495225102316 C131.59556161891769,1.94906775807185 131.64922237380628,2.3265120509322426 131.64922237380628,2.8212824010914046 L131.64922237380628,5.926330150068212 L132.63148703956344,5.926330150068212 L132.63148703956344,0.13096862210095495 Z M134.16971350613915,0.13096862210095495 L134.16971350613915,5.926330150068212 L135.04829467939973,5.926330150068212 L135.04829467939973,5.113233287858117 C135.23019554342883,5.396998635743519 135.47212369258753,5.625284220100045 135.77407912687585,5.798090040927694 C136.07603456116416,5.970895861755343 136.41982719417916,6.057298772169167 136.80545702592087,6.057298772169167 C137.23474306502956,6.057298772169167 137.58672123692588,5.968167348794907 137.86139154160983,5.789904502046385 C138.13606184629376,5.611641655297862 138.32978626648477,5.36243747157799 138.4425648021828,5.042291950886766 C138.90095497953615,5.718963165075034 139.4975898135516,6.057298772169167 140.2324693042292,6.057298772169167 C140.80727603456117,6.057298772169167 141.24929513415188,5.898135516143701 141.55852660300135,5.579809004092769 C141.86775807185083,5.2614824920418375 142.02237380627557,4.771259663483401 142.02237380627557,4.109140518417462 L142.02237380627557,0.13096862210095495 L141.0455661664393,0.13096862210095495 L141.0455661664393,3.7817189631650745 C141.0455661664393,4.174624829467939 141.0137335152342,4.457480673033197 140.95006821282402,4.6302864938608455 C140.88640291041384,4.803092314688495 140.77089586175535,4.94224647567076 140.60354706684856,5.04774897680764 C140.4361982719418,5.1532514779445195 140.23974533879036,5.20600272851296 140.01418826739427,5.20600272851296 C139.60673033196906,5.20600272851296 139.26839472487495,5.0704865848112775 138.99918144611186,4.799454297407912 C138.7299681673488,4.528422010004547 138.59536152796727,4.094588449295133 138.59536152796727,3.4979536152796724 L138.59536152796727,0.13096862210095495 L137.61309686221009,0.13096862210095495 L137.61309686221009,3.8963165075034105 C137.61309686221009,4.332878581173261 137.53306048203729,4.660300136425648 137.3729877216917,4.878581173260573 C137.21291496134606,5.096862210095497 136.95097771714416,5.20600272851296 136.58717598908595,5.20600272851296 C136.3106866757617,5.20600272851296 136.05511596180082,5.133242382901319 135.82046384720329,4.987721691678035 C135.58581173260572,4.842201000454752 135.4157344247385,4.6293769895407 135.31023192360163,4.34924965893588 C135.20472942246477,4.069122328331059 135.1519781718963,3.665302410186448 135.1519781718963,3.1377899045020463 L135.1519781718963,0.13096862210095495 Z M144.38482946793997,0.13096862210095495 L143.47350613915415,0.13096862210095495 L143.47350613915415,8.130968622100955 L144.4557708049113,8.130968622100955 L144.4557708049113,5.276944065484311 C144.87050477489768,5.797180536607549 145.39983628922238,6.057298772169167 146.0437653478854,6.057298772169167 C146.40029104138245,6.057298772169167 146.73771714415642,5.985447930877671 147.05604365620735,5.841746248294679 C147.37437016825828,5.698044565711687 147.6363074124602,5.496134606639382 147.8418553888131,5.2360163710777625 C148.047403365166,4.975898135516143 148.20838562983175,4.6621191450659385 148.32480218281037,4.294679399727149 C148.441218735789,3.927239654388358 148.49942701227832,3.534333788085492 148.49942701227832,3.1159618008185532 C148.49942701227832,2.1227830832196446 148.25386084583903,1.3551614370168252 147.76272851296045,0.8130968622100951 C147.27159618008184,0.27103228740336505 146.68223738062756,0 145.99465211459756,0 C145.31070486584812,0 144.77409731696224,0.28558435652569436 144.38482946793997,0.8567530695770795 Z M144.3739154160982,3.072305593451569 C144.3739154160982,2.37744429286039 144.46850386539336,1.8753979081400622 144.65768076398362,1.566166439290587 C144.9669122328331,1.0604820372896775 145.38528422010003,0.8076398362892228 145.91279672578446,0.8076398362892228 C146.34208276489312,0.8076398362892228 146.7131605275125,0.9940882219190534 147.02603001364255,1.3669849931787166 C147.33889949977262,1.7398817644383815 147.49533424283766,2.2955889040472934 147.49533424283766,3.034106412005457 C147.49533424283766,3.7908140063665305 147.34526603001365,4.34924965893588 147.04512960436563,4.709413369713506 C146.7449931787176,5.069577080491132 146.38210095497953,5.249658935879945 145.95645293315144,5.249658935879945 C145.52716689404275,5.249658935879945 145.15608913142336,5.063210550250113 144.84321964529332,4.69031377899045 C144.53035015916325,4.3174170077307865 144.3739154160982,3.7780809458844926 144.3739154160982,3.072305593451569 M153.6611186903138,1.9972714870395638 L154.67612551159618,1.8717598908594812 C154.51605275125058,1.278763074124603 154.21955434288313,0.8185538881309675 153.78663028649385,0.49113233287858016 C153.3537062301046,0.1637107776261928 152.80072760345612,0 152.12769440654844,0 C151.2800363801728,0 150.60791268758527,0.2610277398817651 150.1113233287858,0.7830832196452935 C149.61473396998636,1.3051386994088219 149.36643929058664,2.037289677125967 149.36643929058664,2.979536152796726 C149.36643929058664,3.9545247839927242 149.6174624829468,4.711232378353797 150.11950886766712,5.249658935879945 C150.62155525238745,5.7880854934060935 151.27276034561163,6.057298772169167 152.0731241473397,6.057298772169167 C152.8480218281037,6.057298772169167 153.48103683492496,5.793542519326967 153.97216916780354,5.266030013642564 C154.46330150068212,4.7385175079581625 154.7088676671214,3.9963619827194172 154.7088676671214,3.03956343792633 C154.7088676671214,2.9813551614370173 154.70704865848114,2.8940427467030467 154.70341064120055,2.77762619372442 L150.38144611186902,2.77762619372442 C150.41782628467485,2.1409731696225567 150.59790814006365,1.6534788540245557 150.92169167803547,1.3151432469304218 C151.24547521600726,0.9768076398362897 151.64929513415188,0.8076398362892228 152.1331514324693,0.8076398362892228 C152.49331514324695,0.8076398362892228 152.80072760345612,0.9022282855843571 153.05538881309687,1.091405184174624 C153.3100500227376,1.2805820827648926 153.51195998180992,1.5825375170532059 153.6611186903138,1.9972714870395638 M150.43601637107776,3.585266030013642 L153.67203274215552,3.585266030013642 C153.62837653478854,4.072760345611641 153.50468394724874,4.438381082310141 153.30095497953616,4.68212824010914 C152.9880854934061,5.060482037289677 152.5824465666212,5.249658935879945 152.08403819918146,5.249658935879945 C151.63292405638927,5.249658935879945 151.25366075488859,5.098681218735789 150.9462482946794,4.796725784447476 C150.6388358344702,4.494770350159163 150.468758526603,4.090950432014552 150.43601637107776,3.585266030013642 M155.89784447476126,0.13096862210095495 L155.89784447476126,5.926330150068212 L156.7818826739427,5.926330150068212 L156.7818826739427,5.04774897680764 C157.0074397453388,5.458844929513415 157.21571623465212,5.72987721691678 157.40671214188268,5.860845839017735 C157.59770804911324,5.99181446111869 157.80780354706684,6.057298772169167 158.03699863574352,6.057298772169167 C158.3680582082765,6.057298772169167 158.70457480673034,5.951796271032287 159.04654843110507,5.740791268758526 L158.7082128240109,4.829467939972715 C158.4681036834925,4.9713506139154156 158.22799454297407,5.042291950886766 157.98788540245567,5.042291950886766 C157.77324238290132,5.042291950886766 157.58042746703046,4.9777171441564345 157.4094406548431,4.84856753069577 C157.23845384265576,4.7194179172351065 157.11658026375625,4.540245566166439 157.0438199181446,4.3110504774897676 C156.93467939972714,3.961800818553888 156.8801091405184,3.579809004092769 156.8801091405184,3.1650750341064118 L156.8801091405184,0.13096862210095495 Z M159.90286493860845,4.807639836289222 L159.90286493860845,5.926330150068212 L161.02155525238746,5.926330150068212 L161.02155525238746,4.807639836289222 Z M159.90286493860845,0.13096862210095495 L159.90286493860845,1.2496589358799444 L161.02155525238746,1.2496589358799444 L161.02155525238746,0.13096862210095495 Z M170.72916780354706,1.075034106412005 L170.72916780354706,0.13096862210095495 L165.44130968622102,0.13096862210095495 C165.43403365165983,0.36743974533879076 165.47223283310595,0.5948158253751696 165.55590723055934,0.8130968622100951 C165.69051386994087,1.1732605729877221 165.90606639381537,1.527967257844475 166.20256480218282,1.8772169167803536 C166.49906321055025,2.226466575716234 166.9274397453388,2.6302864938608455 167.48769440654843,3.0886766712141878 C168.35718053660756,3.801728058208276 168.94472032742155,4.366530241018645 169.25031377899046,4.783083219645293 C169.55590723055934,5.199636198271941 169.7087039563438,5.5934515688949515 169.7087039563438,5.964529331514324 C169.7087039563438,6.353797180536607 169.56954979536152,6.68212824010914 169.291241473397,6.949522510231923 C169.01293315143246,7.2169167803547065 168.65004092769442,7.350613915416098 168.20256480218282,7.350613915416098 C167.72962255570715,7.350613915416098 167.3512687585266,7.208731241473396 167.0675034106412,6.924965893587994 C166.7837380627558,6.641200545702592 166.6400363801728,6.248294679399727 166.63639836289224,5.7462482946794 L165.62684856753071,5.849931787175989 C165.69597089586176,6.60300136425648 165.95608913142337,7.176898590268303 166.40720327421556,7.571623465211459 C166.85831741700773,7.966348340154616 167.46404729422466,8.163710777626193 168.2243929058663,8.163710777626193 C168.99201455206912,8.163710777626193 169.59956343792635,7.9508867667121415 170.04703956343792,7.525238744884038 C170.49451568894952,7.099590723055934 170.71825375170533,6.572078217371532 170.71825375170533,5.942701227830832 C170.71825375170533,5.622555707139608 170.65276944065485,5.307867212369259 170.52180081855388,4.998635743519781 C170.39083219645295,4.689404274670304 170.17346066393816,4.363801728058208 169.86968622100954,4.021828103683492 C169.56591177808096,3.6798544793087773 169.06113688040017,3.2105502501136884 168.35536152796726,2.6139154160982265 C167.76600272851297,2.1191450659390636 167.38764893133242,1.7835379718053659 167.22030013642564,1.6070941336971352 C167.05295134151888,1.4306502955889027 166.91470668485675,1.2532969531605271 166.8055661664393,1.075034106412005 Z" style="fill:#000000;fill-rule:evenodd;"/>
        </g>
        <!-- Text: Number: 3 -->
        <g>
            <path d="M220,0.1418826739427015 L220,8.141882673942701 L221.08594815825376,8.141882673942701 L225.28785811732607,1.8608458390177347 L225.28785811732607,8.141882673942701 L226.30286493860845,8.141882673942701 L226.30286493860845,0.1418826739427015 L225.2169167803547,0.1418826739427015 L221.0150068212824,6.428376534788541 L221.0150068212824,0.1418826739427015 Z M231.75290586630285,0.1418826739427015 L231.75290586630285,0.9931787175989086 C231.3017917235107,0.3383356070941339 230.6887858117326,0.010914051841746542 229.91388813096862,0.010914051841746542 C229.5719145065939,0.010914051841746542 229.25267849022282,0.07639836289222401 228.9561800818554,0.20736698499317896 C228.65968167348794,0.3383356070941339 228.43958162801275,0.5029558890404715 228.29587994542973,0.7012278308321971 C228.15217826284675,0.8994997726239209 228.0512232833106,1.142337426102774 227.99301500682128,1.4297407912687579 C227.95299681673487,1.6225557071396093 227.9329877216917,1.9281491587085036 227.9329877216917,2.3465211459754434 L227.9329877216917,5.937244201909959 L228.91525238744885,5.937244201909959 L228.91525238744885,2.7230559345156893 C228.91525238744885,2.210095497953615 228.93526148249205,1.8644838562983175 228.97527967257844,1.6862210095497954 C229.03712596634836,1.4279217826284665 229.1680945884493,1.2251023192360169 229.3681855388813,1.0777626193724412 C229.56827648931332,0.9304229195088674 229.8156616643929,0.8567530695770813 230.11034106412006,0.8567530695770813 C230.4050204638472,0.8567530695770813 230.68150977717144,0.9322419281491587 230.93980900409278,1.0832196452933154 C231.1981082310141,1.2341973624374702 231.38091859936335,1.4397453387903596 231.48824010914052,1.699863574351978 C231.59556161891769,1.9599818099135966 231.64922237380628,2.337426102773989 231.64922237380628,2.832196452933151 L231.64922237380628,5.937244201909959 L232.63148703956344,5.937244201909959 L232.63148703956344,0.1418826739427015 Z M234.16971350613915,0.1418826739427015 L234.16971350613915,5.937244201909959 L235.04829467939973,5.937244201909959 L235.04829467939973,5.124147339699864 C235.23019554342883,5.407912687585266 235.47212369258753,5.636198271941791 235.77407912687585,5.809004092769441 C236.07603456116416,5.98180991359709 236.41982719417916,6.068212824010914 236.80545702592087,6.068212824010914 C237.23474306502956,6.068212824010914 237.58672123692588,5.9790814006366535 237.86139154160983,5.800818553888131 C238.13606184629376,5.622555707139608 238.32978626648477,5.373351523419736 238.4425648021828,5.053206002728513 C238.90095497953615,5.729877216916781 239.4975898135516,6.068212824010914 240.2324693042292,6.068212824010914 C240.80727603456117,6.068212824010914 241.24929513415188,5.909049567985448 241.55852660300135,5.590723055934515 C241.86775807185083,5.272396543883584 242.02237380627557,4.782173715325148 242.02237380627557,4.120054570259208 L242.02237380627557,0.1418826739427015 L241.0455661664393,0.1418826739427015 L241.0455661664393,3.792633015006821 C241.0455661664393,4.185538881309686 241.0137335152342,4.468394724874943 240.95006821282402,4.641200545702592 C240.88640291041384,4.814006366530242 240.77089586175535,4.953160527512506 240.60354706684856,5.058663028649386 C240.4361982719418,5.164165529786266 240.23974533879036,5.2169167803547065 240.01418826739427,5.2169167803547065 C239.60673033196906,5.2169167803547065 239.26839472487495,5.081400636653024 238.99918144611186,4.810368349249659 C238.7299681673488,4.539336061846294 238.59536152796727,4.10550250113688 238.59536152796727,3.508867667121419 L238.59536152796727,0.1418826739427015 L237.61309686221009,0.1418826739427015 L237.61309686221009,3.907230559345157 C237.61309686221009,4.343792633015007 237.53306048203729,4.6712141882673945 237.3729877216917,4.889495225102319 C237.21291496134606,5.107776261937244 236.95097771714416,5.2169167803547065 236.58717598908595,5.2169167803547065 C236.3106866757617,5.2169167803547065 236.05511596180082,5.144156434743065 235.82046384720329,4.998635743519782 C235.58581173260572,4.8531150522964985 235.4157344247385,4.640291041382446 235.31023192360163,4.360163710777626 C235.20472942246477,4.080036380172806 235.1519781718963,3.6762164620281945 235.1519781718963,3.148703956343793 L235.1519781718963,0.1418826739427015 Z M244.38482946793997,0.1418826739427015 L243.47350613915415,0.1418826739427015 L243.47350613915415,8.141882673942701 L244.4557708049113,8.141882673942701 L244.4557708049113,5.287858117326057 C244.87050477489768,5.808094588449295 245.39983628922238,6.068212824010914 246.0437653478854,6.068212824010914 C246.40029104138245,6.068212824010914 246.73771714415642,5.996361982719417 247.05604365620735,5.852660300136425 C247.37437016825828,5.708958617553433 247.6363074124602,5.5070486584811285 247.8418553888131,5.246930422919509 C248.047403365166,4.98681218735789 248.20838562983175,4.673033196907685 248.32480218281037,4.305593451568895 C248.441218735789,3.9381537062301044 248.49942701227832,3.5452478399272387 248.49942701227832,3.1268758526602998 C248.49942701227832,2.133697135061391 248.25386084583903,1.3660754888585718 247.76272851296045,0.8240109140518417 C247.27159618008184,0.2819463392451116 246.68223738062756,0.010914051841746542 245.99465211459756,0.010914051841746542 C245.31070486584812,0.010914051841746542 244.77409731696224,0.2964984083674409 244.38482946793997,0.8676671214188261 Z M244.3739154160982,3.0832196452933154 C244.3739154160982,2.3883583447021364 244.46850386539336,1.8863119599818088 244.65768076398362,1.5770804911323335 C244.9669122328331,1.071396089131424 245.38528422010003,0.8185538881309693 245.91279672578446,0.8185538881309693 C246.34208276489312,0.8185538881309693 246.7131605275125,1.0050022737608 247.02603001364255,1.3778990450204631 C247.33889949977262,1.750795816280128 247.49533424283766,2.30650295588904 247.49533424283766,3.0450204638472034 C247.49533424283766,3.801728058208277 247.34526603001365,4.360163710777626 247.04512960436563,4.720327421555252 C246.7449931787176,5.080491132332878 246.38210095497953,5.260572987721692 245.95645293315144,5.260572987721692 C245.52716689404275,5.260572987721692 245.15608913142336,5.074124602091859 244.84321964529332,4.701227830832196 C244.53035015916325,4.328331059572533 244.3739154160982,3.788994997726239 244.3739154160982,3.0832196452933154 M253.6611186903138,2.0081855388813104 L254.67612551159618,1.8826739427012278 C254.51605275125058,1.2896771259663495 254.21955434288313,0.8294679399727141 253.78663028649385,0.5020463847203267 C253.3537062301046,0.17462482946793934 252.80072760345612,0.010914051841746542 252.12769440654844,0.010914051841746542 C251.2800363801728,0.010914051841746542 250.60791268758527,0.27194179172351163 250.1113233287858,0.79399727148704 C249.61473396998636,1.3160527512505684 249.36643929058664,2.0482037289677137 249.36643929058664,2.9904502046384724 C249.36643929058664,3.9654388358344708 249.6174624829468,4.722146430195544 250.11950886766712,5.260572987721692 C250.62155525238745,5.79899954524784 251.27276034561163,6.068212824010914 252.0731241473397,6.068212824010914 C252.8480218281037,6.068212824010914 253.48103683492496,5.804456571168713 253.97216916780354,5.276944065484311 C254.46330150068212,4.749431559799909 254.7088676671214,4.007276034561164 254.7088676671214,3.0504774897680766 C254.7088676671214,2.992269213278764 254.70704865848114,2.9049567985447933 254.70341064120055,2.7885402455661668 L250.38144611186902,2.7885402455661668 C250.41782628467485,2.1518872214643032 250.59790814006365,1.6643929058663023 250.92169167803547,1.3260572987721684 C251.24547521600726,0.9877216916780363 251.64929513415188,0.8185538881309693 252.1331514324693,0.8185538881309693 C252.49331514324695,0.8185538881309693 252.80072760345612,0.9131423374261036 253.05538881309687,1.1023192360163705 C253.3100500227376,1.2914961346066391 253.51195998180992,1.5934515688949524 253.6611186903138,2.0081855388813104 M250.43601637107776,3.5961800818553886 L253.67203274215552,3.5961800818553886 C253.62837653478854,4.083674397453388 253.50468394724874,4.449295134151887 253.30095497953616,4.693042291950887 C252.9880854934061,5.071396089131423 252.5824465666212,5.260572987721692 252.08403819918146,5.260572987721692 C251.63292405638927,5.260572987721692 251.25366075488859,5.109595270577535 250.9462482946794,4.807639836289223 C250.6388358344702,4.5056844020009095 250.468758526603,4.101864483856299 250.43601637107776,3.5961800818553886 M255.89784447476126,0.1418826739427015 L255.89784447476126,5.937244201909959 L256.78188267394273,5.937244201909959 L256.78188267394273,5.058663028649386 C257.0074397453388,5.469758981355161 257.2157162346521,5.740791268758526 257.4067121418827,5.871759890859481 C257.59770804911324,6.002728512960436 257.80780354706684,6.068212824010914 258.03699863574354,6.068212824010914 C258.36805820827647,6.068212824010914 258.7045748067303,5.962710322874034 259.04654843110507,5.751705320600273 L258.7082128240109,4.8403819918144615 C258.4681036834925,4.982264665757162 258.2279945429741,5.053206002728513 257.9878854024557,5.053206002728513 C257.77324238290134,5.053206002728513 257.58042746703046,4.988631195998181 257.40944065484314,4.859481582537517 C257.23845384265576,4.730331969076853 257.11658026375625,4.551159618008185 257.0438199181446,4.321964529331514 C256.93467939972714,3.9727148703956345 256.8801091405184,3.5907230559345154 256.8801091405184,3.1759890859481583 L256.8801091405184,0.1418826739427015 Z M259.90286493860845,4.818553888130968 L259.90286493860845,5.937244201909959 L261.02155525238743,5.937244201909959 L261.02155525238743,4.818553888130968 Z M259.90286493860845,0.1418826739427015 L259.90286493860845,1.260572987721691 L261.02155525238743,1.260572987721691 L261.02155525238743,0.1418826739427015 Z M265.572278308322,2.2537517053205995 L266.55454297407914,2.3847203274215554 C266.6673215097772,1.8281036834924969 266.8592269213279,1.4270122783083217 267.1302592087312,1.1814461118690307 C267.4012914961346,0.9358799454297415 267.73144156434745,0.8130968622100951 268.1207094133697,0.8130968622100951 C268.58273760800364,0.8130968622100951 268.9729149613461,0.9731696225557069 269.291241473397,1.2933151432469305 C269.60956798544794,1.6134606639381524 269.7687312414734,2.0100045475216017 269.7687312414734,2.4829467939972716 C269.7687312414734,2.9340609367894492 269.6213915416098,3.3060482037289685 269.3267121418827,3.5989085948158257 C269.03203274215554,3.891768985902683 268.65731696225555,4.038199181446112 268.2025648021828,4.038199181446112 C268.01702592087315,4.038199181446112 267.7860118235562,4.0018190086402905 267.50952251023193,3.9290586630286493 L267.6186630286494,4.791268758526603 C267.68414733969985,4.783992723965439 267.7368985902683,4.780354706684856 267.7769167803547,4.780354706684856 C268.19528876762166,4.780354706684856 268.5718235561619,4.889495225102319 268.90652114597543,5.107776261937244 C269.241218735789,5.326057298772169 269.4085675306958,5.662573897226012 269.4085675306958,6.117326057298772 C269.4085675306958,6.477489768076398 269.2866939517963,6.77580718508413 269.04294679399726,7.012278308321965 C268.7991996361983,7.2487494315598 268.4845111414279,7.3669849931787175 268.09888130968625,7.3669849931787175 C267.71688949522513,7.3669849931787175 267.3985629831742,7.246930422919509 267.14390177353346,7.006821282401091 C266.8892405638927,6.766712141882675 266.7255297862665,6.406548431105048 266.6527694406548,5.926330150068213 L265.67050477489767,6.100954979536152 C265.7905593451569,6.75943610732151 266.06341064120056,7.269668030923147 266.48905866302863,7.631650750341064 C266.91470668485675,7.993633469758982 267.4440381991815,8.17462482946794 268.07705320600274,8.17462482946794 C268.5136152796726,8.17462482946794 268.9156161891769,8.080945884492952 269.2830559345157,7.893587994542974 C269.6504956798545,7.706230104592996 269.93153251477946,7.450659390632106 270.1261664392906,7.1268758526603 C270.3208003638017,6.803092314688495 270.4181173260573,6.459299681673489 270.4181173260573,6.09549795361528 C270.4181173260573,5.749886311959982 270.32534788540244,5.435197817189632 270.1398090040928,5.151432469304229 C269.9542701227831,4.867667121418827 269.6795998180991,4.642110050022738 269.3157980900409,4.474761255115962 C269.7887403365166,4.365620736698499 270.1561800818554,4.139154160982264 270.4181173260573,3.795361527967258 C270.6800545702592,3.451568894952251 270.81102319236015,3.021373351523419 270.81102319236015,2.504774897680764 C270.81102319236015,1.8062755798090038 270.5563619827194,1.2141882673942703 270.0470395634379,0.7285129604365626 C269.53771714415643,0.24283765347885478 268.8937880854934,0 268.11525238744883,0 C267.4131150522965,0 266.8301227830832,0.20918599363347035 266.366275579809,0.6275579809004093 C265.9024283765348,1.0459299681673482 265.63776261937244,1.5879945429740783 265.572278308322,2.2537517053205995" style="fill:#000000;fill-rule:evenodd;"/>
        </g>
        <!-- Text: Number: 1 -->
        <g>
            <path d="M20,0.13096862210095495 L20,8.130968622100955 L21.085948158253753,8.130968622100955 L25.287858117326056,1.8499317871759882 L25.287858117326056,8.130968622100955 L26.302864938608458,8.130968622100955 L26.302864938608458,0.13096862210095495 L25.21691678035471,0.13096862210095495 L21.0150068212824,6.417462482946794 L21.0150068212824,0.13096862210095495 Z M31.752905866302868,0.13096862210095495 L31.752905866302868,0.9822646657571621 C31.30179172351069,0.32742155525238736 30.688785811732608,0 29.913888130968623,0 C29.571914506593906,0 29.252678490222827,0.06548431105047747 28.95618008185539,0.19645293315143242 C28.65968167348795,0.32742155525238736 28.439581628012732,0.49204183719872496 28.29587994542974,0.6903137789904505 C28.152178262846746,0.8885857207821743 28.051223283310595,1.1314233742610273 27.99301500682128,1.4188267394270113 C27.95299681673488,1.6116416552978627 27.932987721691678,1.917235106866757 27.932987721691678,2.335607094133697 L27.932987721691678,5.926330150068212 L28.915252387448838,5.926330150068212 L28.915252387448838,2.7121418826739427 C28.915252387448838,2.1991814461118686 28.93526148249204,1.853569804456571 28.975279672578445,1.6753069577080488 C29.03712596634834,1.41700773078672 29.168094588449296,1.2141882673942703 29.36818553888131,1.0668485675306947 C29.568276489313323,0.9195088676671208 29.815661664392906,0.8458390177353348 30.110341064120057,0.8458390177353348 C30.4050204638472,0.8458390177353348 30.681509777171442,0.9213278763074122 30.93980900409277,1.0723055934515688 C31.198108231014096,1.2232833105957237 31.380918599363348,1.428831286948613 31.48824010914052,1.6889495225102316 C31.595561618917692,1.94906775807185 31.649222373806275,2.3265120509322426 31.649222373806275,2.8212824010914046 L31.649222373806275,5.926330150068212 L32.63148703956344,5.926330150068212 L32.63148703956344,0.13096862210095495 Z M34.16971350613915,0.13096862210095495 L34.16971350613915,5.926330150068212 L35.04829467939973,5.926330150068212 L35.04829467939973,5.113233287858117 C35.23019554342883,5.396998635743519 35.472123692587544,5.625284220100045 35.774079126875854,5.798090040927694 C36.076034561164164,5.970895861755343 36.41982719417917,6.057298772169167 36.80545702592087,6.057298772169167 C37.23474306502956,6.057298772169167 37.586721236925875,5.968167348794907 37.86139154160982,5.789904502046385 C38.13606184629377,5.611641655297862 38.32978626648476,5.36243747157799 38.44256480218281,5.042291950886766 C38.90095497953615,5.718963165075034 39.49758981355161,6.057298772169167 40.2324693042292,6.057298772169167 C40.80727603456116,6.057298772169167 41.249295134151886,5.898135516143701 41.55852660300136,5.579809004092769 C41.867758071850844,5.2614824920418375 42.02237380627558,4.771259663483401 42.02237380627558,4.109140518417462 L42.02237380627558,0.13096862210095495 L41.045566166439286,0.13096862210095495 L41.045566166439286,3.7817189631650745 C41.045566166439286,4.174624829467939 41.01373351523419,4.457480673033197 40.95006821282401,4.6302864938608455 C40.88640291041382,4.803092314688495 40.77089586175534,4.94224647567076 40.60354706684856,5.04774897680764 C40.43619827194179,5.1532514779445195 40.23974533879036,5.20600272851296 40.01418826739427,5.20600272851296 C39.606730331969075,5.20600272851296 39.26839472487494,5.0704865848112775 38.99918144611187,4.799454297407912 C38.729968167348794,4.528422010004547 38.595361527967256,4.094588449295133 38.595361527967256,3.4979536152796724 L38.595361527967256,0.13096862210095495 L37.6130968622101,0.13096862210095495 L37.6130968622101,3.8963165075034105 C37.6130968622101,4.332878581173261 37.533060482037286,4.660300136425648 37.37298772169167,4.878581173260573 C37.212914961346065,5.096862210095497 36.950977717144156,5.20600272851296 36.58717598908595,5.20600272851296 C36.31068667576171,5.20600272851296 36.055115961800816,5.133242382901319 35.82046384720327,4.987721691678035 C35.58581173260573,4.842201000454752 35.41573442473852,4.6293769895407 35.310231923601634,4.34924965893588 C35.20472942246476,4.069122328331059 35.15197817189632,3.665302410186448 35.15197817189632,3.1377899045020463 L35.15197817189632,0.13096862210095495 Z M44.38482946793997,0.13096862210095495 L43.47350613915416,0.13096862210095495 L43.47350613915416,8.130968622100955 L44.455770804911324,8.130968622100955 L44.455770804911324,5.276944065484311 C44.87050477489768,5.797180536607549 45.39983628922237,6.057298772169167 46.0437653478854,6.057298772169167 C46.400291041382445,6.057298772169167 46.737717144156434,5.985447930877671 47.056043656207365,5.841746248294679 C47.374370168258295,5.698044565711687 47.63630741246021,5.496134606639382 47.841855388813094,5.2360163710777625 C48.04740336516598,4.975898135516143 48.20838562983174,4.6621191450659385 48.324802182810366,4.294679399727149 C48.44121873578899,3.927239654388358 48.4994270122783,3.534333788085492 48.4994270122783,3.1159618008185532 C48.4994270122783,2.1227830832196446 48.253860845839014,1.3551614370168252 47.762728512960436,0.8130968622100951 C47.27159618008186,0.27103228740336505 46.682237380627555,0 45.99465211459754,0 C45.31070486584811,0 44.774097316962255,0.28558435652569436 44.38482946793997,0.8567530695770795 Z M44.37391541609823,3.072305593451569 C44.37391541609823,2.37744429286039 44.46850386539336,1.8753979081400622 44.65768076398363,1.566166439290587 C44.96691223283311,1.0604820372896775 45.38528422010005,0.8076398362892228 45.912796725784446,0.8076398362892228 C46.342082764893135,0.8076398362892228 46.71316052751251,0.9940882219190534 47.02603001364257,1.3669849931787166 C47.33889949977262,1.7398817644383815 47.49533424283766,2.2955889040472934 47.49533424283766,3.034106412005457 C47.49533424283766,3.7908140063665305 47.34526603001364,4.34924965893588 47.04512960436562,4.709413369713506 C46.74499317871759,5.069577080491132 46.382100954979535,5.249658935879945 45.95645293315143,5.249658935879945 C45.52716689404274,5.249658935879945 45.15608913142337,5.063210550250113 44.84321964529332,4.69031377899045 C44.530350159163255,4.3174170077307865 44.37391541609823,3.7780809458844926 44.37391541609823,3.072305593451569 M53.661118690313785,1.9972714870395638 L54.67612551159618,1.8717598908594812 C54.51605275125057,1.278763074124603 54.219554342883136,0.8185538881309675 53.78663028649386,0.49113233287858016 C53.35370623010459,0.1637107776261928 52.800727603456124,0 52.127694406548436,0 C51.2800363801728,0 50.60791268758527,0.2610277398817651 50.111323328785815,0.7830832196452935 C49.61473396998636,1.3051386994088219 49.36643929058663,2.037289677125967 49.36643929058663,2.979536152796726 C49.36643929058663,3.9545247839927242 49.61746248294679,4.711232378353797 50.11950886766712,5.249658935879945 C50.62155525238745,5.7880854934060935 51.272760345611644,6.057298772169167 52.073124147339705,6.057298772169167 C52.84802182810368,6.057298772169167 53.48103683492497,5.793542519326967 53.97216916780355,5.266030013642564 C54.46330150068213,4.7385175079581625 54.708867667121424,3.9963619827194172 54.708867667121424,3.03956343792633 C54.708867667121424,2.9813551614370173 54.70704865848113,2.8940427467030467 54.70341064120055,2.77762619372442 L50.38144611186903,2.77762619372442 C50.417826284674845,2.1409731696225567 50.597908140063666,1.6534788540245557 50.92169167803547,1.3151432469304218 C51.24547521600728,0.9768076398362897 51.649295134151885,0.8076398362892228 52.133151432469305,0.8076398362892228 C52.49331514324693,0.8076398362892228 52.800727603456124,0.9022282855843571 53.05538881309686,1.091405184174624 C53.310050022737606,1.2805820827648926 53.511959981809916,1.5825375170532059 53.661118690313785,1.9972714870395638 M50.43601637107776,3.585266030013642 L53.67203274215553,3.585266030013642 C53.62837653478854,4.072760345611641 53.50468394724875,4.438381082310141 53.30095497953616,4.68212824010914 C52.988085493406096,5.060482037289677 52.58244656662119,5.249658935879945 52.08403819918145,5.249658935879945 C51.63292405638927,5.249658935879945 51.253660754888585,5.098681218735789 50.9462482946794,4.796725784447476 C50.638835834470214,4.494770350159163 50.468758526603,4.090950432014552 50.43601637107776,3.585266030013642 M55.89784447476126,0.13096862210095495 L55.89784447476126,5.926330150068212 L56.781882673942704,5.926330150068212 L56.781882673942704,5.04774897680764 C57.00743974533879,5.458844929513415 57.21571623465212,5.72987721691678 57.40671214188268,5.860845839017735 C57.59770804911324,5.99181446111869 57.807803547066854,6.057298772169167 58.03699863574352,6.057298772169167 C58.36805820827649,6.057298772169167 58.704574806730335,5.951796271032287 59.04654843110505,5.740791268758526 L58.708212824010914,4.829467939972715 C58.4681036834925,4.9713506139154156 58.22799454297408,5.042291950886766 57.98788540245567,5.042291950886766 C57.773242382901316,5.042291950886766 57.580427467030475,4.9777171441564345 57.40944065484311,4.84856753069577 C57.23845384265575,4.7194179172351065 57.116580263756255,4.540245566166439 57.043819918144614,4.3110504774897676 C56.93467939972715,3.961800818553888 56.88010914051842,3.579809004092769 56.88010914051842,3.1650750341064118 L56.88010914051842,0.13096862210095495 Z M59.90286493860846,4.807639836289222 L59.90286493860846,5.926330150068212 L61.02155525238745,5.926330150068212 L61.02155525238745,4.807639836289222 Z M59.90286493860846,0.13096862210095495 L59.90286493860846,1.2496589358799444 L61.02155525238745,1.2496589358799444 L61.02155525238745,0.13096862210095495 Z M69.26668485675307,0.13096862210095495 L68.28442019099592,0.13096862210095495 L68.28442019099592,6.390177353342429 C68.04794906775808,6.164620281946339 67.73780809458844,5.939063210550249 67.35399727148703,5.713506139154161 C66.97018644838563,5.487949067758072 66.62548431105049,5.318781264211005 66.31989085948157,5.20600272851296 L66.31989085948157,6.155525238744883 C66.86923146884948,6.413824465666211 67.3494497498863,6.726693951796271 67.76054570259208,7.094133697135061 C68.17164165529786,7.461573442473852 68.46268303774443,7.818099135970895 68.63366984993179,8.163710777626193 L69.26668485675307,8.163710777626193 Z" style="fill:#000000;fill-rule:evenodd;"/>
        </g>
        <!-- Line -->
        <path d="M20,20 L60,100 " style="stroke:#000000;stroke-width:0.25;"/>
    </g>
</svg>
