<svg width="280.25" fill="none" xmlns="http://www.w3.org/2000/svg" height="100.25" viewBox="19.875 -100.125 280.25 100.25" stroke-linejoin="round" stroke-linecap="round">
<g transform="scale(1 -1)">
<g stroke-width=".25">
<g stroke="#fff">
<path d="m20,20 80,0"/>
<path d="m120,20 40,80"/>
<path d="m120,20 80,0"/>
<path d="m220,20 40,80"/>
<path d="m220,20 80,0"/>
</g>
<g stroke="#00f">
<path d="m20,20 68.0521,42.0585"/>
<path d="m120,20 74.6136,28.8583"/>
<path d="m120,20 59.1799,53.8306"/>
<path d="m220,20 76.9551,21.8613"/>
<path d="m220,20 68.0521,42.0585"/>
<path d="m220,20 53.9687,59.054"/>
</g>
</g>
<g fill="#000" font-family="Arial" font-size="11.2">
<text x="120" y="-8.164" dx="0" dy="8" line-height="1.1" transform="matrix(.98987 -.142 .142 .98987 -13.39213 52.33676)">Number: 2</text>
<text x="220" y="-8.175" dx="0" dy="8" line-height="1.1" transform="matrix(.98984 -.14219 .14219 .98984 -27.62406 53.42393)">Number: 3</text>
<text x="20" y="-8.164" dx="0" dy="8" line-height="1.1" transform="matrix(.98987 -.142 .142 .98987 .80807 51.32339)">Number: 1</text>
</g>
<path stroke="#fff" stroke-width=".25" d="m20,20 40,80"/>
</g>
</svg>
