<?xml version="1.0" encoding="UTF-8"?>
<!-- 2011-10-27 10:29:47 Generated by QCAD SVG Exporter PG -->
<svg width="280.25" height="100.25" viewBox="19.875 -100.125 280.25 100.25" version="1.1" xmlns="http://www.w3.org/2000/svg" style="stroke-linecap:round;stroke-linejoin:round;fill:none" xmlns:sodipodi="http://sodipodi.sourceforge.net/DTD/sodipodi-0.dtd" xmlns:inkscape="http://www.inkscape.org/namespaces/inkscape">
    <sodipodi:namedview inkscape:document-units="" unitToSymbol="" units=""/>
    <g transform="scale(1,-1)">
        <!-- Line -->
        <line x1="20" y1="20" x2="100" y2="20" style="stroke:#000000;stroke-width:0.25;"/>
        <!-- Line -->
        <line x1="120" y1="20" x2="160" y2="100" style="stroke:#000000;stroke-width:0.25;"/>
        <!-- Line -->
        <line x1="120" y1="20" x2="200" y2="20" style="stroke:#000000;stroke-width:0.25;"/>
        <!-- Line -->
        <line x1="220" y1="20" x2="260" y2="100" style="stroke:#000000;stroke-width:0.25;"/>
        <!-- Line -->
        <line x1="220" y1="20" x2="300" y2="20" style="stroke:#000000;stroke-width:0.25;"/>
        <!-- Line -->
        <line x1="20" y1="20" x2="88.0520646681632" y2="62.05848896953068" style="stroke:#0000ff;stroke-width:0.25;"/>
        <!-- Line -->
        <line x1="120" y1="20" x2="194.61364909427866" y2="48.85833274525488" style="stroke:#0000ff;stroke-width:0.25;"/>
        <!-- Line -->
        <line x1="120" y1="20" x2="179.17991577910374" y2="73.83063782250947" style="stroke:#0000ff;stroke-width:0.25;"/>
        <!-- Line -->
        <line x1="220" y1="20" x2="296.9550686227134" y2="41.86132231301374" style="stroke:#0000ff;stroke-width:0.25;"/>
        <!-- Line -->
        <line x1="220" y1="20" x2="288.0520646681632" y2="62.0584889695307" style="stroke:#0000ff;stroke-width:0.25;"/>
        <!-- Line -->
        <line x1="220" y1="20" x2="273.9687140386824" y2="79.054025307433" style="stroke:#0000ff;stroke-width:0.25;"/>
        <!-- Text: Number: 2 -->
        <text x="120" dx="0" y="-8.163710777626193" dy="8" font-family="Arial" font-size="11.2" line-height="1.1" fill="#000000" transform="scale(1,-1) rotate(360 120,-8.163710777626193)" text-anchor="start">Number: 2</text>
        <!-- Text: Number: 3 -->
        <text x="220" dx="0" y="-8.17462482946794" dy="8" font-family="Arial" font-size="11.2" line-height="1.1" fill="#000000" transform="scale(1,-1) rotate(360 220,-8.17462482946794)" text-anchor="start">Number: 3</text>
        <!-- Text: Number: 1 -->
        <text x="20" dx="0" y="-8.163710777626193" dy="8" font-family="Arial" font-size="11.2" line-height="1.1" fill="#000000" transform="scale(1,-1) rotate(360 20,-8.163710777626193)" text-anchor="start">Number: 1</text>
        <!-- Line -->
        <line x1="20" y1="20" x2="60" y2="100" style="stroke:#000000;stroke-width:0.25;"/>
    </g>
</svg>
