<?xml version="1.0" encoding="UTF-8" standalone="no"?>
<svg
   xmlns:dc="http://purl.org/dc/elements/1.1/"
   xmlns:cc="http://creativecommons.org/ns#"
   xmlns:rdf="http://www.w3.org/1999/02/22-rdf-syntax-ns#"
   xmlns:svg="http://www.w3.org/2000/svg"
   xmlns="http://www.w3.org/2000/svg"
   xmlns:sodipodi="http://sodipodi.sourceforge.net/DTD/sodipodi-0.dtd"
   xmlns:inkscape="http://www.inkscape.org/namespaces/inkscape"
   width="512"
   height="512"
   id="svg2"
   version="1.1"
   inkscape:version="0.48.2 r9819"
   sodipodi:docname="RenameBlock.svg">
  <metadata
     id="metadata20">
    <rdf:RDF>
      <cc:Work
         rdf:about="">
        <dc:format>image/svg+xml</dc:format>
        <dc:type
           rdf:resource="http://purl.org/dc/dcmitype/StillImage" />
      </cc:Work>
    </rdf:RDF>
  </metadata>
  <sodipodi:namedview
     pagecolor="#ffffff"
     bordercolor="#666666"
     borderopacity="1"
     objecttolerance="10"
     gridtolerance="10"
     guidetolerance="10"
     inkscape:pageopacity="0"
     inkscape:pageshadow="2"
     inkscape:window-width="640"
     inkscape:window-height="480"
     id="namedview18"
     showgrid="false"
     inkscape:zoom="0.4609375"
     inkscape:cx="256"
     inkscape:cy="256"
     inkscape:window-x="0"
     inkscape:window-y="0"
     inkscape:window-maximized="0"
     inkscape:current-layer="g8" />
  <defs
     id="defs4" />
  <path
     fill="none"
     stroke="#000"
     stroke-width="25.6"
     d="m239.0813,51.2 0,409.6"
     id="path6" />
  <g
     font-family="FreeSans"
     text-align="start"
     line-height="125%"
     font-size="332.79998779px"
     id="g8">
    <g
       style=""
       id="text10">
      <path
         d="M 122.756,318.11251 C 98.597573,318.1126 81.860091,320.8751 72.543497,326.40001 63.226777,331.92509 58.568448,341.35008 58.568498,354.67501 58.568448,365.29172 62.035111,373.74171 68.968498,380.02501 76.010097,386.20003 85.54342,389.28753 97.568496,389.28751 114.14339,389.28753 127.41421,383.43753 137.381,371.73751 147.45586,359.92922 152.49335,344.27507 152.49349,324.77501 L 152.49349,318.11251 122.756,318.11251 M 182.39349,305.76251 182.39349,409.60001 152.49349,409.60001 152.49349,381.97501 C 145.66836,393.02502 137.1642,401.20418 126.981,406.51251 116.79755,411.7125 104.33923,414.3125 89.605997,414.31251 70.972602,414.3125 56.130951,409.11251 45.080998,398.71251 34.139307,388.20419 28.668479,374.17504 28.668499,356.62501 28.668479,336.15008 35.493472,320.7126 49.143498,310.31251 62.901777,299.91262 83.376756,294.71263 110.5685,294.71251 L 152.49349,294.71251 152.49349,291.78751 C 152.49335,278.02931 147.94336,267.41265 138.84349,259.93751 129.85171,252.35434 117.17672,248.56267 100.8185,248.56251 90.418415,248.56267 80.289259,249.80851 70.430997,252.30001 60.572613,254.79183 51.093456,258.52933 41.993499,263.51251 L 41.993499,235.88751 C 52.935121,231.66269 63.551776,228.52103 73.843497,226.46251 84.135088,224.29603 94.155911,223.2127 103.906,223.21251 130.23087,223.2127 149.89335,230.03769 162.89349,243.68751 175.89333,257.33766 182.39332,278.02931 182.39349,305.76251"
         style=""
         id="path3001" />
    </g>
    <g
       style=""
       id="text14">
      <path
         d="M 452.2935,318.76251 C 452.29334,296.77096 447.74334,279.54597 438.6435,267.08751 429.65169,254.521 417.24754,248.23767 401.431,248.23751 385.61424,248.23767 373.15592,254.521 364.056,267.08751 355.06427,279.54597 350.56844,296.77096 350.5685,318.76251 350.56844,340.75424 355.06427,358.03339 364.056,370.60001 373.15592,383.05837 385.61424,389.28753 401.431,389.28751 417.24754,389.28753 429.65169,383.05837 438.6435,370.60001 447.74334,358.03339 452.29334,340.75424 452.2935,318.76251 M 350.5685,255.22501 C 356.85177,244.39184 364.7601,236.37519 374.2935,231.17501 383.93508,225.86686 395.4184,223.2127 408.7435,223.21251 430.84336,223.2127 448.77251,231.98769 462.531,249.53751 476.39748,267.08765 483.33081,290.16263 483.331,318.76251 483.33081,347.36257 476.39748,370.43755 462.531,387.98751 448.77251,405.53751 430.84336,414.3125 408.7435,414.31251 395.4184,414.3125 383.93508,411.7125 374.2935,406.51251 364.7601,401.20418 356.85177,393.13336 350.5685,382.30001 L 350.5685,409.60001 320.506,409.60001 320.506,156.75002 350.5685,156.75002 350.5685,255.22501"
         style=""
         id="path2998" />
    </g>
  </g>
</svg>
