<?xml version="1.0" encoding="UTF-8" standalone="no"?>
<svg
   xmlns:dc="http://purl.org/dc/elements/1.1/"
   xmlns:cc="http://creativecommons.org/ns#"
   xmlns:rdf="http://www.w3.org/1999/02/22-rdf-syntax-ns#"
   xmlns:svg="http://www.w3.org/2000/svg"
   xmlns="http://www.w3.org/2000/svg"
   xmlns:xlink="http://www.w3.org/1999/xlink"
   xmlns:sodipodi="http://sodipodi.sourceforge.net/DTD/sodipodi-0.dtd"
   xmlns:inkscape="http://www.inkscape.org/namespaces/inkscape"
   width="512"
   height="512"
   id="svg2"
   version="1.1"
   inkscape:version="0.48.2 r9819"
   sodipodi:docname="PrintCurrentView.svg">
  <metadata
     id="metadata124">
    <rdf:RDF>
      <cc:Work
         rdf:about="">
        <dc:format>image/svg+xml</dc:format>
        <dc:type
           rdf:resource="http://purl.org/dc/dcmitype/StillImage" />
      </cc:Work>
    </rdf:RDF>
  </metadata>
  <sodipodi:namedview
     pagecolor="#ffffff"
     bordercolor="#666666"
     borderopacity="1"
     objecttolerance="10"
     gridtolerance="10"
     guidetolerance="10"
     inkscape:pageopacity="0"
     inkscape:pageshadow="2"
     inkscape:window-width="1186"
     inkscape:window-height="1002"
     id="namedview122"
     showgrid="true"
     inkscape:zoom="1"
     inkscape:cx="245.00147"
     inkscape:cy="191.0092"
     inkscape:window-x="164"
     inkscape:window-y="252"
     inkscape:window-maximized="0"
     inkscape:current-layer="g3208">
    <inkscape:grid
       type="xygrid"
       id="grid3987"
       empspacing="2"
       visible="true"
       enabled="true"
       snapvisiblegridlinesonly="true"
       spacingx="8px"
       spacingy="8px" />
  </sodipodi:namedview>
  <defs
     id="defs4">
    <linearGradient
       id="linearGradient259-6">
      <stop
         offset="0"
         stop-color="#e0e0e0"
         id="stop7" />
      <stop
         offset=".405"
         stop-color="#fff"
         id="stop9" />
      <stop
         offset=".534"
         stop-color="#cdcdcd"
         id="stop11" />
      <stop
         offset="1"
         stop-color="#494949"
         id="stop13" />
    </linearGradient>
    <linearGradient
       gradientTransform="matrix(16.3045,0,0,7.29159,0.12388,-444.32418)"
       id="linearGradient1464"
       xlink:href="#linearGradient4762"
       y1="32.539"
       y2="58.831"
       x1="15.388"
       x2="15.488"
       gradientUnits="userSpaceOnUse" />
    <linearGradient
       id="linearGradient15662-9">
      <stop
         offset="0"
         stop-color="#fff"
         stop-opacity="0"
         id="stop17" />
      <stop
         offset="1"
         stop-color="#f8f8f8"
         id="stop19" />
    </linearGradient>
    <linearGradient
       id="linearGradient4762">
      <stop
         offset="0"
         stop-color="#fff"
         stop-opacity=".124"
         id="stop22" />
      <stop
         offset=".103"
         stop-color="#fff"
         id="stop24" />
      <stop
         offset="1"
         stop-color="#fff"
         stop-opacity="0"
         id="stop26" />
    </linearGradient>
    <linearGradient
       gradientTransform="matrix(25.10763,0,0,4.73504,0.12388,-444.32418)"
       id="linearGradient1468"
       xlink:href="#linearGradient4741"
       x1="1.846"
       x2="18.972"
       gradientUnits="userSpaceOnUse" />
    <linearGradient
       id="linearGradient4668">
      <stop
         offset="0"
         stop-color="#8e8d87"
         id="stop30" />
      <stop
         offset=".276"
         stop-color="#cbc9c1"
         id="stop32" />
      <stop
         offset="1"
         stop-color="#8e8d87"
         id="stop34" />
    </linearGradient>
    <linearGradient
       id="linearGradient4741">
      <stop
         offset="0"
         stop-color="#dcdcda"
         id="stop37" />
      <stop
         offset="1"
         stop-color="#bab9b7"
         id="stop39" />
    </linearGradient>
    <linearGradient
       gradientTransform="matrix(25.10763,0,0,4.73504,0.12388,-456.59058)"
       id="linearGradient1471"
       xlink:href="#linearGradient4668"
       x1="1.846"
       x2="18.972"
       gradientUnits="userSpaceOnUse" />
    <linearGradient
       gradientTransform="matrix(10.34684,0,0,11.78643,-0.88316,-422.51725)"
       id="linearGradient1459"
       xlink:href="#linearGradient259-6"
       y1="3.679"
       y2="25.247"
       x1="25.057"
       x2="24.79"
       gradientUnits="userSpaceOnUse" />
    <linearGradient
       gradientTransform="matrix(30.22539,0,0,3.93331,6.87012,-434.68679)"
       id="linearGradient1447"
       xlink:href="#linearGradient4733"
       y1="57.228"
       y2="72.064"
       x1="9.87"
       x2="9.913"
       gradientUnits="userSpaceOnUse" />
    <linearGradient
       id="linearGradient4733">
      <stop
         offset="0"
         stop-color="#000"
         stop-opacity=".237"
         id="stop45" />
      <stop
         offset="1"
         stop-color="#000"
         stop-opacity="0"
         id="stop47" />
    </linearGradient>
    <linearGradient
       id="linearGradient4680">
      <stop
         offset="0"
         stop-color="#f7f6f5"
         id="stop50" />
      <stop
         offset="1"
         stop-color="#f7f6f5"
         stop-opacity="0"
         id="stop52" />
    </linearGradient>
    <linearGradient
       gradientTransform="matrix(25.83947,0,0,4.60092,0.12388,-444.32418)"
       id="linearGradient1451"
       xlink:href="#linearGradient4680"
       y1="64.652"
       y2="54.136"
       x2="0"
       gradientUnits="userSpaceOnUse" />
    <linearGradient
       gradientTransform="matrix(13.10989,0,0,9.3209,-3.17311,-444.32418)"
       id="linearGradient1456"
       xlink:href="#linearGradient15662-9"
       y1="25.14"
       y2="19.337"
       x1="20.771"
       x2="20.718"
       gradientUnits="userSpaceOnUse" />
    <linearGradient
       id="linearGradient4688">
      <stop
         offset="0"
         stop-color="#666"
         id="stop57" />
      <stop
         offset="1"
         stop-color="#000"
         stop-opacity="0"
         id="stop59" />
    </linearGradient>
    <linearGradient
       gradientTransform="matrix(25.83947,0,0,4.60092,0.12388,-444.32418)"
       id="linearGradient1453"
       xlink:href="#linearGradient4688"
       y1="70.725"
       y2="62.282"
       x1="9.732"
       x2="9.705"
       gradientUnits="userSpaceOnUse" />
    <radialGradient
       cx="24"
       cy="41.875"
       gradientTransform="matrix(1,0,0,0.33333,0,27.9167)"
       id="radialGradient7618"
       r="19.125"
       gradientUnits="userSpaceOnUse">
      <stop
         offset="0"
         stop-color="#000"
         id="stop63" />
      <stop
         offset="1"
         stop-color="#000"
         stop-opacity="0"
         id="stop65" />
    </radialGradient>
    <radialGradient
       cx="9.13"
       cy="26.926"
       r="2.123"
       id="radialGradient1433"
       gradientUnits="userSpaceOnUse">
      <stop
         offset="0"
         stop-color="#fffffd"
         id="stop68" />
      <stop
         offset=".5"
         stop-color="#bbbbb9"
         id="stop70" />
      <stop
         offset="1"
         stop-color="#000"
         id="stop72" />
    </radialGradient>
    <radialGradient
       gradientUnits="userSpaceOnUse"
       r="3.241"
       id="radialGradient4024"
       xlink:href="#linearGradient2984"
       gradientTransform="matrix(68.39519 -11.0801 30.38261 51.97917 -2731.8579 -746.72188)"
       cy="27.641"
       cx="29.053" />
    <linearGradient
       id="linearGradient2984">
      <stop
         id="stop27"
         stop-color="#e7e2b8"
         offset="0" />
      <stop
         id="stop29"
         stop-opacity="0"
         stop-color="#e7e2b8"
         offset="1" />
    </linearGradient>
    <linearGradient
       id="linearGradient2994">
      <stop
         id="stop22-0"
         stop-color="#000"
         offset="0" />
      <stop
         id="stop24-3"
         stop-color="#c9c9c9"
         offset="1" />
    </linearGradient>
    <linearGradient
       id="linearGradient2974">
      <stop
         id="stop17-9"
         stop-color="#c1c1c1"
         offset="0" />
      <stop
         id="stop19-7"
         stop-color="#acacac"
         offset="1" />
    </linearGradient>
    <linearGradient
       x2="25.515"
       gradientUnits="userSpaceOnUse"
       y2="30.703"
       x1="25.719"
       y1="31.047"
       id="linearGradient4021"
       xlink:href="#linearGradient2994"
       gradientTransform="matrix(27.98159 -4.67664 17.90391 31.60063 -1210.3076 -413.54176)" />
    <linearGradient
       id="linearGradient2966">
      <stop
         id="stop9-2"
         stop-color="#ffd1d1"
         offset="0" />
      <stop
         id="stop11-3"
         stop-color="#ff1d1d"
         offset=".5" />
      <stop
         id="stop13-9"
         stop-color="#6f0000"
         offset="1" />
    </linearGradient>
    <linearGradient
       x2="50.988"
       gradientUnits="userSpaceOnUse"
       y2="22.251"
       x1="48.906"
       y1="17.376"
       id="linearGradient4030"
       xlink:href="#linearGradient2966"
       gradientTransform="matrix(22.90654 -3.81342 14.65666 25.76771 -999.42627 -234.31126)" />
    <linearGradient
       x2="47.688"
       gradientUnits="userSpaceOnUse"
       y2="22.625"
       x1="46"
       y1="19.812"
       id="linearGradient4027"
       xlink:href="#linearGradient2974"
       gradientTransform="matrix(22.86815 -3.77407 14.63209 25.50184 -997.7694 -230.26412)" />
  </defs>
  <g
     id="g3208"
     transform="translate(-384.54237,-137.37159)">
    <path
       style="fill:#808080;stroke:#4d4d4d;stroke-width:35.07152557;stroke-linecap:butt;stroke-linejoin:miter;stroke-miterlimit:4;stroke-opacity:1;stroke-dasharray:none"
       d="M 544.54237,313.37159 544.54237,411.52543"
       id="path3989"
       inkscape:connector-curvature="0" />
    <path
       style="fill:none;stroke:#b3b3b3;stroke-width:17.53576279;stroke-linecap:round;stroke-linejoin:miter;stroke-miterlimit:4;stroke-opacity:1;stroke-dasharray:none"
       d="M 504.54237,411.52543 590.69622,411.52543"
       id="path3991"
       inkscape:connector-curvature="0" />
    <rect
       y="179.52544"
       x="424.54236"
       height="184"
       width="241.23077"
       id="rect3805"
       style="fill:#5599ff;fill-opacity:1;fill-rule:evenodd;stroke:#000000;stroke-width:17.37667274000000006;stroke-linecap:round;stroke-linejoin:round;stroke-miterlimit:4;stroke-opacity:1;stroke-dasharray:none;stroke-dashoffset:0"
       ry="28.513311" />
    <g
       id="g3982"
       transform="matrix(0.36505867,0,0,0.37809646,443.16035,170.98047)"
       style="stroke-width:21.53313919;stroke-miterlimit:4;stroke-dasharray:none">
      <path
         style="fill:none;stroke:#ffffff;stroke-width:21.53313919;stroke-linecap:round;stroke-linejoin:round;stroke-miterlimit:4;stroke-opacity:1;stroke-dasharray:none;stroke-dashoffset:0"
         d="M 80,384 432,144"
         id="path3033"
         inkscape:connector-curvature="0"
         sodipodi:nodetypes="cc" />
      <path
         sodipodi:nodetypes="cc"
         inkscape:connector-curvature="0"
         id="path3807"
         d="M 432,384 432,144"
         style="fill:none;stroke:#ffffff;stroke-width:21.53313919;stroke-linecap:round;stroke-linejoin:round;stroke-miterlimit:4;stroke-opacity:1;stroke-dasharray:none;stroke-dashoffset:0" />
      <path
         style="fill:none;stroke:#ffffff;stroke-width:21.53313919;stroke-linecap:round;stroke-linejoin:round;stroke-miterlimit:4;stroke-opacity:1;stroke-dasharray:none;stroke-dashoffset:0"
         d="M 432,384 80,384"
         id="path3809"
         inkscape:connector-curvature="0"
         sodipodi:nodetypes="cc" />
    </g>
    <path
       sodipodi:type="arc"
       style="fill:none;stroke:#ffffff;stroke-width:2.18181825;stroke-linecap:butt;stroke-linejoin:round;stroke-miterlimit:4;stroke-opacity:1;stroke-dasharray:none;stroke-dashoffset:0"
       id="path3993"
       sodipodi:cx="116"
       sodipodi:cy="116"
       sodipodi:rx="12"
       sodipodi:ry="12"
       d="M 128,116 A 12,12 0 1 1 104,116 12,12 0 1 1 128,116 z"
       transform="matrix(3.6666667,0,0,3.6666667,95.209033,-163.96175)" />
  </g>
  <g
     transform="matrix(0.66738899,0,0,0.67116287,164.29934,464.19514)"
     id="g74">
    <path
       d="M 43.125,41.875 C 43.125,45.3958 34.5624,48.25 24,48.25 13.4376,48.25 4.875,45.3958 4.875,41.875 4.875,38.3542 13.4376,35.5 24,35.5 34.5624,35.5 43.125,38.3542 43.125,41.875 z"
       transform="matrix(10.90347,0,0,10.90347,-3.27708,-488.01149)"
       id="path76"
       style="color:#000000;fill:url(#radialGradient7618)"
       inkscape:connector-curvature="0" />
    <g
       id="g78"
       style="stroke-width:10.90299988">
      <path
         d="M 70.5772,-73.6064 H 452.356 A 18.6618,18.6618 0 0 1 471.017,-54.9446 V -22.0772 A 18.6618,18.6618 0 0 1 452.356,-3.4154 H 70.5772 A 18.6618,18.6618 0 0 1 51.9154,-22.0772 V -54.9446 A 18.6618,18.6618 0 0 1 70.5772,-73.6064"
         id="path80"
         style="fill:url(#linearGradient1471);stroke:#595959"
         inkscape:connector-curvature="0" />
      <path
         d="M 77.275,-231.7067 446.9038,-231.7067 C 451.1221,-231.7067 456.5119,-228.5649 459.8359,-223.8136 463.1597,-219.0622 478.8594,-195.3552 482.3862,-190.2958 485.913,-185.2364 486.6911,-180.4403 486.6911,-174.2013 V -42.5211 C 486.6911,-32.56 478.6718,-24.5408 468.7107,-24.5408 H 55.4681 C 45.5069,-24.5408 37.4877,-32.56 37.4877,-42.5211 V -174.2013 C 37.4877,-179.5877 38.5959,-187.3116 42.3782,-192.2283 47.1508,-198.4324 59.9543,-220.0098 63.3314,-224.5854 66.7084,-229.161 72.9098,-231.7067 77.275,-231.7067 z"
         id="path82"
         style="color:#000000;fill:url(#linearGradient1468);stroke:#676767"
         inkscape:connector-curvature="0" />
    </g>
    <path
       d="M 81.078,-226.5217 C 75.5965,-226.5217 68.5484,-225.0849 65.6582,-220.6808 L 45.4196,-189.841 C 42.1616,-184.8766 45.7903,-173.1753 55.5932,-173.1753 H 466.0376 C 479.2983,-173.1753 479.337,-184.1886 476.2111,-188.8775 L 456.9364,-217.7897 C 453.4414,-223.0321 452.1729,-226.5217 443.444,-226.5217 H 81.078 z"
       id="path84"
       inkscape:connector-curvature="0"
       style="fill:#fbfbfb;fill-rule:evenodd" />
    <g
       id="g86"
       style="color:#000000">
      <path
         d="M 82.3086,-221.3946 440.9063,-221.3946 C 444.9009,-221.3946 450.0049,-218.4194 453.1525,-213.92 456.3001,-209.4208 467.3122,-191.7898 470.652,-186.9985 473.9918,-182.2074 475.4101,-177.6657 475.4101,-171.7576 V -48.7545 C 475.4101,-39.3217 473.9494,-35.1351 464.5164,-35.1351 H 59.6621 C 50.2293,-35.1351 48.0871,-39.3217 48.0871,-48.7545 V -171.7576 C 48.0871,-176.8585 50.4995,-184.1727 54.0812,-188.8286 58.6007,-194.7037 65.9064,-210.318 69.1044,-214.6511 72.3024,-218.984 78.1749,-221.3947 82.3085,-221.3947 z"
         id="path88"
         style="fill:none;stroke:url(#linearGradient1464);stroke-width:10.32499981"
         inkscape:connector-curvature="0" />
      <g
         id="g90"
         style="stroke-width:10.90299988">
        <g
           display="block"
           id="g92"
           style="stroke-linecap:round;display:block">
          <path
             d="M 126.2798,-418.0861 395.9948,-418.0861 C 403.1146,-418.0861 408.8466,-412.4983 408.8466,-405.5575 V -200.6767 H 113.4281 V -405.5575 C 113.4281,-412.4983 119.1599,-418.0861 126.2798,-418.0861 z"
             id="path94"
             style="fill:url(#linearGradient1459);stroke:#898989"
             inkscape:connector-curvature="0" />
          <path
             d="M 126.068,-406.49 H 395.622 A 1.9275,1.9275 0 0 1 397.549,-404.562 V -202.724 A 1.9275,1.9275 0 0 1 395.622,-200.797 H 126.068 A 1.9275,1.9275 0 0 1 124.141,-202.724 V -404.562 A 1.9275,1.9275 0 0 1 126.068,-406.49"
             id="path96"
             style="fill:none;stroke:url(#linearGradient1456);stroke-linejoin:round"
             inkscape:connector-curvature="0" />
        </g>
        <path
           d="M 93.7471,-167.649 H 424.415 A 18.6618,18.6618 0 0 1 443.077,-148.987 V -129.749 A 18.6618,18.6618 0 0 1 424.415,-111.087 H 93.7471 A 18.6618,18.6618 0 0 1 75.0853,-129.749 V -148.987 A 18.6618,18.6618 0 0 1 93.7471,-167.649"
           id="path98"
           style="fill:url(#linearGradient1451);stroke:url(#linearGradient1453)"
           inkscape:connector-curvature="0" />
      </g>
    </g>
    <path
       d="M 10.8718,27.6265 C 10.8718,28.3343 10.298,28.9081 9.5902,28.9081 8.8824,28.9081 8.3086,28.3343 8.3086,27.6265 8.3086,26.9187 8.8824,26.3449 9.5902,26.3449 10.298,26.3449 10.8718,26.9187 10.8718,27.6265 z"
       transform="matrix(10.90347,0,0,10.90347,0.12393,-444.32425)"
       id="path100"
       style="fill:url(#radialGradient1433)"
       inkscape:connector-curvature="0" />
    <path
       d="M 128.1712,-189.0081 406.891,-188.3266 C 414.3871,-188.3048 417.6617,-192.3718 417.113,-199.2301 L 415.7501,-216.2668 H 436.0972 C 444.9563,-216.2668 446.8938,-214.1672 449.0451,-210.1336 L 454.4968,-199.9116 C 460.2407,-189.1418 474.2449,-178.387 459.9285,-178.387 410.8334,-178.387 152.7041,-182.1935 128.1713,-189.0082 z"
       id="path102"
       style="opacity:0.36600001;fill:url(#linearGradient1447);fill-rule:evenodd"
       inkscape:connector-curvature="0" />
    <path
       d="M 468.2915,-174.4635 52.5969,-174.4635"
       id="path104"
       inkscape:connector-curvature="0"
       style="fill:none;stroke:#ffffff;stroke-width:10.90299988;stroke-linecap:round;stroke-linejoin:round" />
    <g
       id="g106"
       style="color:#000000">
      <g
         transform="matrix(10.90347,0,0,10.90347,0.12393,-444.32425)"
         id="g108"
         style="opacity:0.43600003;fill-opacity:0.29200003">
        <path
           d="M 14,5 H 33 V 6 H 14 z"
           id="path110"
           inkscape:connector-curvature="0" />
        <path
           d="M 14,7 H 33 V 8 H 14 z"
           id="path112"
           inkscape:connector-curvature="0" />
        <path
           d="M 14,9 H 33 V 10 H 14 z"
           id="path114"
           inkscape:connector-curvature="0" />
        <path
           d="M 14,11 H 33 V 12 H 14 z"
           id="path116"
           inkscape:connector-curvature="0" />
        <path
           d="M 14,13 H 25 V 14 H 14 z"
           id="path118"
           inkscape:connector-curvature="0" />
      </g>
      <path
         d="M 229.3321,-237.2736 305.3053,-237.2736 305.3053,-290.9672 338.1314,-290.9672 267.845,-378.9034 190.2326,-291.8189 229.3549,-291.8189 229.333,-237.2736 z"
         id="path120"
         inkscape:connector-curvature="0"
         style="fill:#a7a7a7;fill-rule:evenodd" />
    </g>
  </g>
</svg>
