<svg width="270.86" xmlns="http://www.w3.org/2000/svg" viewBox="14.65 -345.35 270.859 330.7" style="fill:none;stroke-linecap:round;stroke-linejoin:round"><g transform="scale(1-1)"><g style="stroke:#fff;stroke-width:.7"><path d="m80.15 140.15v-90"/><path d="m80.15 50.15h-30"/><path d="m50.15 50.15v90"/><path d="m135 105h30"/><path d="m165 105v-90"/><path d="m165 15h-30"/><path d="m135 15v90"/><path d="m219.85 140.15h30"/><path d="m249.85 140.15v-90"/><path d="m249.85 50.15h-30"/><path d="m219.85 50.15v90"/></g><circle cx="150" cy="180" r="120" style="stroke-dasharray:8.4 4.1825 0.035 4.1825;stroke:#f00;stroke-width:.35;stroke-dashoffset:5.209"/><g line-height="1.1" style="font-size:16.8;font-family:Arial;fill:#000"><text x="146.99" y="-187.42" dx="0" dy="12" transform="matrix(-.99163.12911-.12911-.99163 735.96 246.27)">3.</text><text x="272.85" y="-190.9" dx="0" dy="12" transform="matrix(-.98196.1891-.1891-.98196 765.1 472.7)">4.</text></g><g style="stroke:#fff;stroke-width:.7"><path d="m255 225h30"/><path d="m285 225v-90"/><path d="m285 135h-30"/><path d="m255 135v90"/><path d="m219.85 309.85h30"/><path d="m249.85 309.85v-90"/><path d="m249.85 219.85h-30"/><path d="m219.85 219.85v90"/><path d="m135 345h30"/><path d="m165 345v-90"/><path d="m165 255h-30"/><path d="m135 255v90"/><path d="m50.15 309.85h30"/><path d="m80.15 309.85v-90"/><path d="m80.15 219.85h-30"/><path d="m50.15 219.85v90"/><path d="m15 225h30"/><path d="m45 225v-90"/><path d="m45 135h-30"/><path d="m15 135v90"/><path d="m50.15 140.15h30"/></g></g></svg>
