<svg width="270.859" fill="none" xmlns="http://www.w3.org/2000/svg" height="330.7" viewBox="14.65 -345.35 270.859 330.7" stroke-linejoin="round" stroke-linecap="round">
<g transform="scale(1 -1)">
<g stroke="#fff" stroke-width=".7">
<path d="m80.1472,140.1472-0-90"/>
<path d="m80.1472,50.1472-30,0"/>
<path d="m50.1472,50.1472 0,90"/>
<path d="m135,105 30,0"/>
<path d="m165,105 0-90"/>
<path d="m165,15-30,0"/>
<path d="m135,15 0,90"/>
<path d="m219.8528,140.1472 30,0"/>
<path d="m249.8528,140.1472 0-90"/>
<path d="m249.8528,50.1472-30-0"/>
<path d="m219.8528,50.1472 0,90"/>
</g>
<circle stroke-dasharray="8.399999999999999,4.182499999999999,0.034999999999999996,4.182499999999999" cx="150" cy="180" stroke="#f00" r="120" stroke-width=".35" stroke-dashoffset="5.209"/>
<g fill="#000" font-family="Arial" font-size="16.799999999999997">
<text x="146.989" y="-187.418" dx="0" dy="12" line-height="1.1" transform="matrix(-.99163 .12911 -.12911 -.99163 735.96436 246.26923)">3.</text>
<text x="272.849" y="-190.9" dx="0" dy="12" line-height="1.1" transform="matrix(-.98196 .1891 -.1891 -.98196 765.09964 472.70109)">4.</text>
</g>
<g stroke="#fff" stroke-width=".7">
<path d="m255,225 30,0"/>
<path d="m285,225 0-90"/>
<path d="m285,135-30,0"/>
<path d="m255,135 0,90"/>
<path d="m219.8528,309.8528 30-0"/>
<path d="m249.8528,309.8528-0-90"/>
<path d="m249.8528,219.8528-30,0"/>
<path d="m219.8528,219.8528-0,90"/>
<path d="m135,345 30-0"/>
<path d="m165,345 0-90"/>
<path d="m165,255-30,0"/>
<path d="m135,255 0,90"/>
<path d="m50.1472,309.8528 30,0"/>
<path d="m80.1472,309.8528 0-90"/>
<path d="m80.1472,219.8528-30-0"/>
<path d="m50.1472,219.8528 0,90"/>
<path d="m15,225 30,0"/>
<path d="m45,225 0-90"/>
<path d="m45,135-30-0"/>
<path d="m15,135 0,90"/>
<path d="m50.1472,140.1472 30-0"/>
</g>
</g>
</svg>
