<?xml version="1.0" encoding="UTF-8"?>
<!-- 2011-11-21 20:26:17 Generated by QCAD SVG Exporter PG -->
<svg width="270.859" height="330.7" viewBox="14.65 -345.35 270.859 330.7" version="1.1" xmlns="http://www.w3.org/2000/svg" style="stroke-linecap:round;stroke-linejoin:round;fill:none">
    <g transform="scale(1,-1)">
        <!-- Line -->
        <line x1="80.14718625761427" y1="140.1471862576143" x2="80.14718625761424" y2="50.14718625761418" style="stroke:#000000;stroke-width:0.7;"/>
        <!-- Line -->
        <line x1="80.14718625761424" y1="50.14718625761418" x2="50.14718625761428" y2="50.1471862576143" style="stroke:#000000;stroke-width:0.7;"/>
        <!-- Line -->
        <line x1="50.14718625761428" y1="50.1471862576143" x2="50.14718625761434" y2="140.1471862576144" style="stroke:#000000;stroke-width:0.7;"/>
        <!-- Line -->
        <line x1="135" y1="105" x2="165" y2="105" style="stroke:#000000;stroke-width:0.7;"/>
        <!-- Line -->
        <line x1="165" y1="105" x2="165" y2="14.99999999999998" style="stroke:#000000;stroke-width:0.7;"/>
        <!-- Line -->
        <line x1="165" y1="14.99999999999998" x2="135" y2="15.00000000000006" style="stroke:#000000;stroke-width:0.7;"/>
        <!-- Line -->
        <line x1="135" y1="15.00000000000006" x2="135" y2="105" style="stroke:#000000;stroke-width:0.7;"/>
        <!-- Line -->
        <line x1="219.8528137423858" y1="140.1471862576143" x2="249.8528137423858" y2="140.1471862576143" style="stroke:#000000;stroke-width:0.7;"/>
        <!-- Line -->
        <line x1="249.8528137423858" y1="140.1471862576143" x2="249.8528137423858" y2="50.14718625761436" style="stroke:#000000;stroke-width:0.7;"/>
        <!-- Line -->
        <line x1="249.8528137423858" y1="50.14718625761436" x2="219.8528137423856" y2="50.14718625761424" style="stroke:#000000;stroke-width:0.7;"/>
        <!-- Line -->
        <line x1="219.8528137423856" y1="50.14718625761424" x2="219.8528137423858" y2="140.1471862576143" style="stroke:#000000;stroke-width:0.7;"/>
        <!-- Circle -->
        <circle cx="150" cy="180" r="120" style="stroke:#ff0000;stroke-width:0.35;stroke-dasharray:8.399999999999999,4.182499999999999,0.034999999999999996,4.182499999999999;stroke-dashoffset:5.208881569224786"/>
        <!-- Text: 3. -->
        <text x="146.9892131979695" dx="0" y="-187.4175126903553" dy="12" font-family="Arial" font-size="16.799999999999997" line-height="1.1" fill="#000000" transform="scale(1,-1) rotate(360 146.9892131979695,-187.4175126903553)" text-anchor="start">3.</text>
        <!-- Text: 4. -->
        <text x="272.8491370558376" dx="0" y="-190.9003045685279" dy="12" font-family="Arial" font-size="16.799999999999997" line-height="1.1" fill="#000000" transform="scale(1,-1) rotate(360 272.8491370558376,-190.9003045685279)" text-anchor="start">4.</text>
        <!-- Line -->
        <line x1="255" y1="225" x2="285" y2="225" style="stroke:#000000;stroke-width:0.7;"/>
        <!-- Line -->
        <line x1="285" y1="225" x2="285" y2="135" style="stroke:#000000;stroke-width:0.7;"/>
        <!-- Line -->
        <line x1="285" y1="135" x2="255" y2="135" style="stroke:#000000;stroke-width:0.7;"/>
        <!-- Line -->
        <line x1="255" y1="135" x2="255" y2="225" style="stroke:#000000;stroke-width:0.7;"/>
        <!-- Line -->
        <line x1="219.8528137423856" y1="309.8528137423858" x2="249.8528137423858" y2="309.8528137423856" style="stroke:#000000;stroke-width:0.7;"/>
        <!-- Line -->
        <line x1="249.8528137423858" y1="309.8528137423856" x2="249.8528137423856" y2="219.8528137423856" style="stroke:#000000;stroke-width:0.7;"/>
        <!-- Line -->
        <line x1="249.8528137423856" y1="219.8528137423856" x2="219.8528137423858" y2="219.8528137423856" style="stroke:#000000;stroke-width:0.7;"/>
        <!-- Line -->
        <line x1="219.8528137423858" y1="219.8528137423856" x2="219.8528137423856" y2="309.8528137423858" style="stroke:#000000;stroke-width:0.7;"/>
        <!-- Line -->
        <line x1="135" y1="345.0000000000002" x2="165" y2="344.9999999999998" style="stroke:#000000;stroke-width:0.7;"/>
        <!-- Line -->
        <line x1="165" y1="344.9999999999998" x2="165" y2="255" style="stroke:#000000;stroke-width:0.7;"/>
        <!-- Line -->
        <line x1="165" y1="255" x2="135" y2="255" style="stroke:#000000;stroke-width:0.7;"/>
        <!-- Line -->
        <line x1="135" y1="255" x2="135" y2="345.0000000000002" style="stroke:#000000;stroke-width:0.7;"/>
        <!-- Line -->
        <line x1="50.14718625761434" y1="309.8528137423858" x2="80.1471862576143" y2="309.8528137423858" style="stroke:#000000;stroke-width:0.7;"/>
        <!-- Line -->
        <line x1="80.1471862576143" y1="309.8528137423858" x2="80.14718625761432" y2="219.8528137423858" style="stroke:#000000;stroke-width:0.7;"/>
        <!-- Line -->
        <line x1="80.14718625761432" y1="219.8528137423858" x2="50.14718625761432" y2="219.8528137423856" style="stroke:#000000;stroke-width:0.7;"/>
        <!-- Line -->
        <line x1="50.14718625761432" y1="219.8528137423856" x2="50.14718625761434" y2="309.8528137423858" style="stroke:#000000;stroke-width:0.7;"/>
        <!-- Line -->
        <line x1="14.99999999999999" y1="225" x2="45" y2="225" style="stroke:#000000;stroke-width:0.7;"/>
        <!-- Line -->
        <line x1="45" y1="225" x2="45" y2="135" style="stroke:#000000;stroke-width:0.7;"/>
        <!-- Line -->
        <line x1="45" y1="135" x2="14.99999999999997" y2="134.9999999999999" style="stroke:#000000;stroke-width:0.7;"/>
        <!-- Line -->
        <line x1="14.99999999999997" y1="134.9999999999999" x2="14.99999999999999" y2="225" style="stroke:#000000;stroke-width:0.7;"/>
        <!-- Line -->
        <line x1="50.14718625761434" y1="140.1471862576144" x2="80.14718625761427" y2="140.1471862576143" style="stroke:#000000;stroke-width:0.7;"/>
    </g>
</svg>
