<?xml version="1.0" encoding="UTF-8"?>
<!-- 2016-05-25 09:58:16 Generated by QCAD SVG Exporter -->
<svg width="270.1592052686617" height="330.0000000000002" viewBox="14.99999999999997 -345.0000000000002 270.1592052686617 330.0000000000002" version="1.1" xmlns="http://www.w3.org/2000/svg" style="stroke-linecap:round;stroke-linejoin:round;fill:none">
    <g transform="scale(1,-1)">
        <!-- Line -->
        <path d="M80.14718625761427,140.1471862576143 L80.14718625761424,50.14718625761418 " style="stroke:#000000;stroke-width:0.7;"/>
        <!-- Line -->
        <path d="M80.14718625761424,50.14718625761418 L50.14718625761428,50.1471862576143 " style="stroke:#000000;stroke-width:0.7;"/>
        <!-- Line -->
        <path d="M50.14718625761428,50.1471862576143 L50.14718625761434,140.1471862576144 " style="stroke:#000000;stroke-width:0.7;"/>
        <!-- Line -->
        <path d="M135,105 L165,105 " style="stroke:#000000;stroke-width:0.7;"/>
        <!-- Line -->
        <path d="M165,105 L165,14.99999999999998 " style="stroke:#000000;stroke-width:0.7;"/>
        <!-- Line -->
        <path d="M165,14.99999999999998 L135,15.00000000000006 " style="stroke:#000000;stroke-width:0.7;"/>
        <!-- Line -->
        <path d="M135,15.00000000000006 L135,105 " style="stroke:#000000;stroke-width:0.7;"/>
        <!-- Line -->
        <path d="M219.8528137423858,140.1471862576143 L249.8528137423858,140.1471862576143 " style="stroke:#000000;stroke-width:0.7;"/>
        <!-- Line -->
        <path d="M249.8528137423858,140.1471862576143 L249.8528137423858,50.14718625761436 " style="stroke:#000000;stroke-width:0.7;"/>
        <!-- Line -->
        <path d="M249.8528137423858,50.14718625761436 L219.8528137423856,50.14718625761424 " style="stroke:#000000;stroke-width:0.7;"/>
        <!-- Line -->
        <path d="M219.8528137423856,50.14718625761424 L219.8528137423858,140.1471862576143 " style="stroke:#000000;stroke-width:0.7;"/>
        <!-- Circle -->
        <path d="M270,180 A120,120 0 0,1 269.9575723468858,183.1907423339491 M269.7735285678467,187.36897919709475 A120,120 0 0,1 269.7713741877443,187.40391282899427 M269.4406266786343,191.57310237642068 A120,120 0 0,1 268.33866088141457,199.898777369315 M267.5733736018019,204.01045230500912 A120,120 0 0,1 267.56636555236145,204.04474351721223 M266.6570723831432,208.12698816073436 A120,120 0 0,1 264.4040976034329,216.2174329783904 M263.07254197053095,220.18208870034653 A120,120 0 0,1 263.0608173853171,220.21506648215302 M261.59077161161343,224.13048482766456 A120,120 0 0,1 258.2308740769676,231.82738558460753 M256.35910598148723,235.56744167962722 A120,120 0 0,1 256.3428942872721,235.59846072155295 M254.34086177591814,239.2704358332107 A120,120 0 0,1 249.93978798674505,246.4231795171268 M247.56443420095667,249.86545053921282 A120,120 0 0,1 247.5440526282956,249.8939038604105 M245.04920916663826,253.2505825014153 A120,120 0 0,1 239.69307936818134,259.7192041697176 M236.860620832958,262.7963317334355 A120,120 0 0,1 236.83646820861912,262.82166255910033 M233.89763291241394,265.7973612163791 A120,120 0 0,1 227.69125589314064,271.4552828312643 M224.4571181785546,274.1070536811389 A120,120 0 0,1 224.42966712127395,274.1287663374824 M221.10434714185794,276.6652565171694 A120,120 0 0,1 214.16916933429297,281.4017638256201 M210.59663807164102,283.5762880895746 A120,120 0 0,1 210.5664257439154,283.5939577031729 M206.91969096783413,285.64160534621885 A120,120 0 0,1 199.391419983848,289.3640143373456 M195.55040249193866,291.0187409081115 A120,120 0 0,1 195.51802008882584,291.032021719832 M191.6212298498007,292.5507584416474 A120,120 0 0,1 183.64717895303266,295.18622898811554 M179.61283629124222,296.288778163622 A120,120 0 0,1 179.57891747185164,296.2974102944403 M175.50832419079697,297.2575174433486 A120,120 0 0,1 167.2445296695962,298.754478637542 M163.09580588568966,299.28327572717114 A120,120 0 0,1 163.06101437373604,299.287090263486 M158.89627145080917,299.66978045552486 A120,120 0 0,1 150.50443929896252,299.9989397494564 M146.32251665136877,299.9436372477529 A120,120 0 0,1 146.28753324742158,299.9425595466888 M142.1101364036851,299.74034429728164 A120,120 0 0,1 133.75447805630574,298.8952606993944 M129.62118843906984,298.2569407661305 A120,120 0 0,1 129.5866976986425,298.2509919161501 M125.47839026717729,297.4678281748289 A120,120 0 0,1 117.32240931009855,295.4650382873676 M113.3186329657591,294.2561915718326 A120,120 0 0,1 113.28530980392154,294.24548798007726 M109.32648317566583,292.8967007008646 A120,120 0 0,1 101.52977590603514,289.77539513151766 M97.73385876042568,288.0196763553977 A120,120 0 0,1 97.70235524506113,288.0044274698321 M93.97047576946369,286.11640973242424 A120,120 0 0,1 86.68560821419108,281.9376662122157 M83.17182880276992,279.669431293821 A120,120 0 0,1 83.14276139490569,279.6499355047533 M79.71085451781289,277.25963205453706 A120,120 0 0,1 73.08037702040087,272.10522026832314 M69.91749300530661,269.3688540457182 A120,120 0 0,1 69.89143049619999,269.34549284689655 M66.82665179737857,266.4996771598917 A120,120 0 0,1 60.98030959172051,260.47045867654833 M58.230212311318496,257.31950638470425 A120,120 0 0,1 58.20766469234508,257.29273690824414 M55.56998578458844,254.04709592737024 A120,120 0 0,1 50.622180139249096,247.26105053984918 M48.338683517953484,243.75717003708036 A120,120 0 0,1 48.32009200109212,243.72751610829994 M46.16112700524694,240.14556056085556 A120,120 0 0,1 42.208676618572596,232.73547765670227 M40.43646413556573,228.94723290322779 A120,120 0 0,1 40.42219251975921,228.9152747904301 M38.78418807921777,225.06709640969999 A120,120 0 0,1 35.904434530313566,217.1779765473122 M34.67818485288694,213.17949594516298 A120,120 0 0,1 34.66851240522148,213.1458590049413 M33.58352100328372,209.10675897462846 A120,120 0 0,1 31.832815331407957,200.89297651123135 M31.176523722537993,196.76250235911766 A120,120 0 0,1 31.17163971354276,196.72784479937303 M30.660892470180286,192.5768602594657 A120,120 0 0,1 30.073492497181363,184.19914255252016 M30.000001276041658,180.01749999993777 A120,120 0 0,1 30.000001276041658,179.98250000006178 M30.073492497181377,175.80085744747944 A120,120 0 0,1 30.66089247018033,167.4231397405339 M31.171639713542817,163.27215520062654 A120,120 0 0,1 31.176523722538064,163.23749764088188 M31.832815331408028,159.10702348876825 A120,120 0 0,1 33.583521003283806,150.89324102537114 M34.668512405221605,146.8541409950583 A120,120 0 0,1 34.67818485288706,146.82050405483665 M35.90443453031368,142.82202345268743 A120,120 0 0,1 38.78418807921793,134.93290359029965 M40.42219251975939,131.0847252095695 A120,120 0 0,1 40.436464135565885,131.05276709677184 M42.20867661857278,127.26452234329737 A120,120 0 0,1 46.16112700524717,119.85443943914404 M48.32009200109236,116.27248389169966 A120,120 0 0,1 48.3386835179537,116.2428299629193 M50.62218013924935,112.73894946015047 A120,120 0 0,1 55.569985784588724,105.9529040726294 M58.207664692345375,102.70726309175551 A120,120 0 0,1 58.230212311318766,102.68049361529545 M60.98030959172081,99.52954132345134 A120,120 0 0,1 66.82665179737887,93.500322840108 M69.89143049620031,90.65450715310317 A120,120 0 0,1 69.91749300530691,90.63114595428152 M73.08037702040122,87.89477973167656 A120,120 0 0,1 79.7108545178132,82.7403679454627 M83.14276139490605,80.35006449524647 A120,120 0 0,1 83.17182880277024,80.33056870617878 M86.6856082141914,78.06233378778415 A120,120 0 0,1 93.97047576946403,73.88359026757556 M97.70235524506148,71.99557253016776 A120,120 0 0,1 97.73385876042607,71.9803236446021 M101.52977590603555,70.22460486848217 A120,120 0 0,1 109.32648317566617,67.10329929913526 M113.28530980392193,65.7545120199226 A120,120 0 0,1 113.31863296575938,65.74380842816733 M117.32240931009893,64.53496171263228 A120,120 0 0,1 125.4783902671776,62.532171825171005 M129.58669769864287,61.74900808384986 A120,120 0 0,1 129.6211884390701,61.743059233869445 M133.75447805630608,61.1047393006056 A120,120 0 0,1 142.11013640368537,60.25965570271835 M146.28753324742192,60.057440453311145 A120,120 0 0,1 146.32251665136897,60.05636275224707 M150.5044392989628,60.00106025054363 A120,120 0 0,1 158.89627145080937,60.33021954447517 M163.0610143737362,60.71290973651401 A120,120 0 0,1 163.09580588568983,60.71672427282887 M167.24452966959646,61.24552136245805 A120,120 0 0,1 175.5083241907971,62.742482556651424 M179.57891747185175,63.70258970555972 A120,120 0 0,1 179.61283629124233,63.711221836378044 M183.64717895303284,64.81377101188448 A120,120 0 0,1 191.62122984980078,67.44924155835265 M195.51802008882592,68.96797828016803 A120,120 0 0,1 195.5504024919387,68.98125909188853 M199.39141998384804,70.63598566265438 A120,120 0 0,1 206.91969096783419,74.35839465378113 M210.56642574391543,76.40604229682707 A120,120 0 0,1 210.59663807164102,76.42371191042544 M214.16916933429295,78.59823617437989 A120,120 0 0,1 221.10434714185794,83.3347434828306 M224.42966712127395,85.87123366251762 A120,120 0 0,1 224.4571181785546,85.8929463188611 M227.69125589314058,88.54471716873567 A120,120 0 0,1 233.8976329124139,94.20263878362083 M236.83646820861907,97.17833744089961 A120,120 0 0,1 236.86062083295795,97.2036682665644 M239.69307936818126,100.2807958302823 A120,120 0 0,1 245.0492091666382,106.74941749858463 M247.5440526282955,110.10609613958944 A120,120 0 0,1 247.5644342009566,110.13454946078707 M249.93978798674493,113.57682048287307 A120,120 0 0,1 254.34086177591809,120.7295641667892 M256.34289428727203,124.4015392784469 A120,120 0 0,1 256.3591059814871,124.43255832037265 M258.2308740769675,128.17261441539233 A120,120 0 0,1 261.5907716116134,135.8695151723353 M263.060817385317,139.7849335178468 A120,120 0 0,1 263.0725419705309,139.8179112996533 M264.40409760343283,143.7825670216094 A120,120 0 0,1 266.65707238314315,151.87301183926547 M267.5663655523614,155.95525648278758 A120,120 0 0,1 267.5733736018018,155.98954769499065 M268.3386608814145,160.10122263068473 A120,120 0 0,1 269.44062667863426,168.426897623579 M269.77137418774424,172.5960871710055 A120,120 0 0,1 269.77352856784665,172.631020802905 M269.9575723468858,176.80925766605063 A120,120 0 0,1 270,180 " style="stroke:#ff0000;stroke-width:0.35;"/>
        <!-- Text: 3. -->
        <g>
            <path d="M146.9892131979695,178.53620300413428 L148.46261019660523,178.7326559372857 C148.6317780001523,177.89773097139212 148.91963611747835,177.29609386361585 149.3261845485834,176.92774461395692 C149.73273297968845,176.55939536429798 150.2279580820077,176.37522073946852 150.81185985554112,176.37522073946852 C151.504902147492,176.37522073946852 152.09016817750563,176.61532987998694 152.56765794558203,177.09554816102377 C153.04514771365845,177.5757664420606 153.28389259769665,178.17058226743578 153.28389259769665,178.87999563714928 C153.28389259769665,179.55666685133755 153.06288304790127,180.11464775174682 152.62086394831056,180.55393833837712 C152.17884484871982,180.9932289250074 151.6167711788699,181.21287421832255 150.93464293876076,181.21287421832255 C150.65633461679624,181.21287421832255 150.30981347082079,181.15830395911382 149.89507950083444,181.04916344069636 L150.05879027846063,182.3424785839433 C150.15701674503634,182.33156453210154 150.236143620889,182.32610750618065 150.2961709060186,182.32610750618065 C150.923728886919,182.32610750618065 151.4885310697294,182.48981828380684 151.99057745444972,182.81723983905923 C152.49262383917002,183.14466139431164 152.7436470315302,183.6494362919924 152.7436470315302,184.33156453210154 C152.7436470315302,184.87181009826799 152.56083666318096,185.31928622377956 152.19521592648246,185.6739929086363 C151.82959518978396,186.02869959349306 151.35756244762842,186.20605293592146 150.7791177000159,186.20605293592146 C150.20612997832419,186.20605293592146 149.7286402102478,186.02597108053263 149.34664839578667,185.66580736975502 C148.96465658132556,185.30564365897737 148.71909041488627,184.76539809281095 148.6099498964688,184.0450706712557 L147.13655289783307,184.3070079154576 C147.31663475322188,185.29472960713565 147.72591169728736,186.06007749253808 148.36438373002952,186.60305157166496 C149.00285576277167,187.14602565079184 149.7968530342587,187.4175126903553 150.74637554449063,187.4175126903553 C151.4012186549954,187.4175126903553 152.0042200192519,187.2769942728928 152.55537963726007,186.99595743796783 C153.10653925526827,186.71492060304286 153.5280945076557,186.33156453210154 153.82004539442244,185.84588922514382 C154.11199628118914,185.3602139181861 154.25797172457249,184.84452496866362 154.25797172457249,184.29882237657628 C154.25797172457249,183.78040491409334 154.11881756359023,183.30837217193783 153.8405092416257,182.8827241501097 C153.56220091966117,182.4570761282816 153.15019546263525,182.11874052118748 152.60449287054794,181.86771732882733 C153.31390624026145,181.70400655120113 153.86506585826962,181.36430668762677 154.25797172457249,180.84861773810425 C154.65087759087535,180.33292878858174 154.8473305240268,179.6876354734385 154.8473305240268,178.9127377926745 C154.8473305240268,177.86498881586687 154.46533870956566,176.9768578472448 153.70135508064342,176.2483448868082 C152.9373714517212,175.51983192637167 151.97147786372665,175.15557544615336 150.8036743166598,175.15557544615336 C149.7504683139313,175.15557544615336 148.87597991011137,175.46935443660357 148.18020910520005,176.096912417504 C147.48443830028873,176.7244703984044 147.0874396645452,177.53756726061448 146.9892131979695,178.53620300413428 M157.13011360724644,175.36839945706743 L157.13011360724644,177.0464349277359 L158.80814907791492,177.0464349277359 L158.80814907791492,175.36839945706743 Z" style="fill:#000000;fill-rule:evenodd;"/>
        </g>
        <!-- Text: 4. -->
        <g>
            <path d="M278.05513978435056,178.9003045685279 L278.05513978435056,181.7734287158676 L272.8491370558376,181.7734287158676 L272.8491370558376,183.1240426312837 L278.3252625674338,190.9003045685279 L279.5285367829863,190.9003045685279 L279.5285367829863,183.1240426312837 L281.14927348148564,183.1240426312837 L281.14927348148564,181.7734287158676 L279.5285367829863,181.7734287158676 L279.5285367829863,178.9003045685279 Z M278.05513978435056,183.1240426312837 L278.05513978435056,188.5346838318294 L274.29797743782945,183.1240426312837 Z M283.4811697979931,178.9003045685279 L283.4811697979931,180.57834003919638 L285.15920526866165,180.57834003919638 L285.15920526866165,178.9003045685279 Z" style="fill:#000000;fill-rule:evenodd;"/>
        </g>
        <!-- Line -->
        <path d="M255,225 L285,225 " style="stroke:#000000;stroke-width:0.7;"/>
        <!-- Line -->
        <path d="M285,225 L285,135 " style="stroke:#000000;stroke-width:0.7;"/>
        <!-- Line -->
        <path d="M285,135 L255,135 " style="stroke:#000000;stroke-width:0.7;"/>
        <!-- Line -->
        <path d="M255,135 L255,225 " style="stroke:#000000;stroke-width:0.7;"/>
        <!-- Line -->
        <path d="M219.8528137423856,309.8528137423858 L249.8528137423858,309.8528137423856 " style="stroke:#000000;stroke-width:0.7;"/>
        <!-- Line -->
        <path d="M249.8528137423858,309.8528137423856 L249.8528137423856,219.8528137423856 " style="stroke:#000000;stroke-width:0.7;"/>
        <!-- Line -->
        <path d="M249.8528137423856,219.8528137423856 L219.8528137423858,219.8528137423856 " style="stroke:#000000;stroke-width:0.7;"/>
        <!-- Line -->
        <path d="M219.8528137423858,219.8528137423856 L219.8528137423856,309.8528137423858 " style="stroke:#000000;stroke-width:0.7;"/>
        <!-- Line -->
        <path d="M135,345.0000000000002 L165,344.9999999999998 " style="stroke:#000000;stroke-width:0.7;"/>
        <!-- Line -->
        <path d="M165,344.9999999999998 L165,255 " style="stroke:#000000;stroke-width:0.7;"/>
        <!-- Line -->
        <path d="M165,255 L135,255 " style="stroke:#000000;stroke-width:0.7;"/>
        <!-- Line -->
        <path d="M135,255 L135,345.0000000000002 " style="stroke:#000000;stroke-width:0.7;"/>
        <!-- Line -->
        <path d="M50.14718625761434,309.8528137423858 L80.1471862576143,309.8528137423858 " style="stroke:#000000;stroke-width:0.7;"/>
        <!-- Line -->
        <path d="M80.1471862576143,309.8528137423858 L80.14718625761432,219.8528137423858 " style="stroke:#000000;stroke-width:0.7;"/>
        <!-- Line -->
        <path d="M80.14718625761432,219.8528137423858 L50.14718625761432,219.8528137423856 " style="stroke:#000000;stroke-width:0.7;"/>
        <!-- Line -->
        <path d="M50.14718625761432,219.8528137423856 L50.14718625761434,309.8528137423858 " style="stroke:#000000;stroke-width:0.7;"/>
        <!-- Line -->
        <path d="M14.99999999999999,225 L45,225 " style="stroke:#000000;stroke-width:0.7;"/>
        <!-- Line -->
        <path d="M45,225 L45,135 " style="stroke:#000000;stroke-width:0.7;"/>
        <!-- Line -->
        <path d="M45,135 L14.99999999999997,134.9999999999999 " style="stroke:#000000;stroke-width:0.7;"/>
        <!-- Line -->
        <path d="M14.99999999999997,134.9999999999999 L14.99999999999999,225 " style="stroke:#000000;stroke-width:0.7;"/>
        <!-- Line -->
        <path d="M50.14718625761434,140.1471862576144 L80.14718625761427,140.1471862576143 " style="stroke:#000000;stroke-width:0.7;"/>
    </g>
</svg>
