<?xml version="1.0" encoding="UTF-8" standalone="no"?>
<svg
   xmlns:dc="http://purl.org/dc/elements/1.1/"
   xmlns:cc="http://creativecommons.org/ns#"
   xmlns:rdf="http://www.w3.org/1999/02/22-rdf-syntax-ns#"
   xmlns:svg="http://www.w3.org/2000/svg"
   xmlns="http://www.w3.org/2000/svg"
   xmlns:sodipodi="http://sodipodi.sourceforge.net/DTD/sodipodi-0.dtd"
   xmlns:inkscape="http://www.inkscape.org/namespaces/inkscape"
   width="512"
   height="512"
   id="svg2"
   version="1.1"
   inkscape:version="0.48.2 r9819"
   sodipodi:docname="InfoPosition.svg">
  <metadata
     id="metadata16">
    <rdf:RDF>
      <cc:Work
         rdf:about="">
        <dc:format>image/svg+xml</dc:format>
        <dc:type
           rdf:resource="http://purl.org/dc/dcmitype/StillImage" />
        <dc:title />
      </cc:Work>
    </rdf:RDF>
  </metadata>
  <sodipodi:namedview
     pagecolor="#ffffff"
     bordercolor="#666666"
     borderopacity="1"
     objecttolerance="10"
     gridtolerance="10"
     guidetolerance="10"
     inkscape:pageopacity="0"
     inkscape:pageshadow="2"
     inkscape:window-width="1864"
     inkscape:window-height="1013"
     id="namedview14"
     showgrid="true"
     inkscape:zoom="0.921875"
     inkscape:cx="77.699873"
     inkscape:cy="285.9226"
     inkscape:window-x="269"
     inkscape:window-y="78"
     inkscape:window-maximized="0"
     inkscape:current-layer="g6">
    <inkscape:grid
       type="xygrid"
       id="grid2993"
       empspacing="8"
       visible="true"
       enabled="true"
       snapvisiblegridlinesonly="true"
       spacingx="16px"
       spacingy="16px"
       originx="8px"
       originy="8px" />
  </sodipodi:namedview>
  <defs
     id="defs4" />
  <g
     transform="translate(0 492)"
     id="g6">
    <path
       sodipodi:nodetypes="cc"
       transform="translate(0,-492)"
       inkscape:connector-curvature="0"
       id="path3901"
       d="m 440,472 0,-240"
       style="fill:none;stroke:#000000;stroke-width:8;stroke-linecap:butt;stroke-linejoin:miter;stroke-miterlimit:4;stroke-opacity:1;stroke-dasharray:none" />
    <g
       style="font-size:134.77600098px;line-height:125%;letter-spacing:0;word-spacing:0;font-family:Al-seana"
       id="text10"
       transform="matrix(1.5,0,0,1.5,-214,219.90625)">
      <path
         d="m 310.4375,-388 24.25,-34.5 -22.4375,-31.875 14.0625,0 10.1875,15.5625 c 1.91664,2.95838 3.4583,5.43755 4.625,7.4375 1.8333,-2.74995 3.5208,-5.18745 5.0625,-7.3125 l 11.1875,-15.6875 13.4375,0 -22.9375,31.25 24.6875,35.125 -13.8125,0 -13.625,-20.625 -3.625,-5.5625 -17.4375,26.1875 -13.625,0"
         style="font-size:128px;text-align:end;text-anchor:end;font-family:Arial"
         id="path2997"
         inkscape:connector-curvature="0" />
      <path
         d="m 383.875,-388 0,-12.8125 12.8125,0 0,12.8125 c -2e-5,4.70833 -0.83336,8.49999 -2.5,11.375 -1.66669,2.91665 -4.31252,5.16665 -7.9375,6.75 l -3.125,-4.8125 c 2.37499,-1.04168 4.12499,-2.58334 5.25,-4.625 1.12498,-2.00001 1.74998,-4.89584 1.875,-8.6875 l -6.375,0"
         style="font-size:128px;text-align:end;text-anchor:end;font-family:Arial"
         id="path2999"
         inkscape:connector-curvature="0" />
      <path
         d="M 415.9375,-362.4375 414.6875,-373 c 2.45832,0.66665 4.60416,0.99998 6.4375,1 2.49998,-2e-5 4.49998,-0.41668 6,-1.25 1.49998,-0.83335 2.72914,-2.00001 3.6875,-3.5 0.70831,-1.12501 1.85414,-3.91667 3.4375,-8.375 0.20831,-0.625 0.54164,-1.54167 1,-2.75 l -25.1875,-66.5 12.125,0 13.8125,38.4375 c 1.79164,4.87502 3.3958,10.00002 4.8125,15.375 1.29163,-5.16665 2.8333,-10.20831 4.625,-15.125 l 14.1875,-38.6875 11.25,0 -25.25,67.5 c -2.70837,7.29166 -4.81253,12.31249 -6.3125,15.0625 -2.00003,3.70831 -4.29169,6.41664 -6.875,8.125 -2.58336,1.74997 -5.66669,2.62497 -9.25,2.625 -2.16668,-3e-5 -4.58334,-0.45836 -7.25,-1.375"
         style="font-size:128px;text-align:end;text-anchor:end;font-family:Arial"
         id="path3001"
         inkscape:connector-curvature="0" />
    </g>
    <path
       style="fill:none;stroke:#000000;stroke-width:8;stroke-linecap:butt;stroke-linejoin:miter;stroke-miterlimit:4;stroke-opacity:1;stroke-dasharray:none"
       d="m 40,-260 400,0"
       id="path2995"
       inkscape:connector-curvature="0"
       sodipodi:nodetypes="cc" />
    <path
       d="m 408,-260 a 32,32 0 1 1 64,0 32,32 0 0 1 -64,0 z"
       id="path8"
       inkscape:connector-curvature="0"
       style="fill:#ff0000" />
  </g>
</svg>
