  0
SECTION
  2
HEADER
  9
$ACADVER
  1
AC1024
  9
$ACADMAINTVER
 70
     6
  9
$DWGCODEPAGE
  3
UNDEFINED
  9
$INSBASE
 10
0.0
 20
0.0
 30
0.0
  9
$EXTMIN
 10
1.000000000000000E+20
 20
1.000000000000000E+20
 30
1.000000000000000E+20
  9
$EXTMAX
 10
-1.000000000000000E+20
 20
-1.000000000000000E+20
 30
-1.000000000000000E+20
  9
$LIMMIN
 10
0.0
 20
0.0
  9
$LIMMAX
 10
12.0
 20
9.0
  9
$ORTHOMODE
 70
     0
  9
$REGENMODE
 70
     1
  9
$FILLMODE
 70
     1
  9
$QTEXTMODE
 70
     0
  9
$MIRRTEXT
 70
     1
  9
$LTSCALE
 40
1.0
  9
$ATTMODE
 70
     1
  9
$TEXTSIZE
 40
0.2
  9
$TRACEWID
 40
0.05
  9
$TEXTSTYLE
  7
Standard
  9
$CLAYER
  8
0
  9
$CELTYPE
  6
ByLayer
  9
$CECOLOR
 62
   178
  9
$CELTSCALE
 40
1.0
  9
$DISPSILH
 70
     0
  9
$DIMSCALE
 40
1.0
  9
$DIMASZ
 40
2.5
  9
$DIMEXO
 40
0.625
  9
$DIMDLI
 40
0.38
  9
$DIMRND
 40
0.0
  9
$DIMDLE
 40
0.0
  9
$DIMEXE
 40
1.25
  9
$DIMTP
 40
0.0
  9
$DIMTM
 40
0.0
  9
$DIMTXT
 40
2.5
  9
$DIMCEN
 40
0.09
  9
$DIMTSZ
 40
0.0
  9
$DIMTOL
 70
     0
  9
$DIMLIM
 70
     0
  9
$DIMTIH
 70
     1
  9
$DIMTOH
 70
     1
  9
$DIMSE1
 70
     0
  9
$DIMSE2
 70
     0
  9
$DIMTAD
 70
     0
  9
$DIMZIN
 70
     8
  9
$DIMBLK
  1

  9
$DIMASO
 70
     1
  9
$DIMSHO
 70
     1
  9
$DIMPOST
  1

  9
$DIMAPOST
  1

  9
$DIMALT
 70
     0
  9
$DIMALTD
 70
     2
  9
$DIMALTF
 40
25.4
  9
$DIMLFAC
 40
1.0
  9
$DIMTOFL
 70
     0
  9
$DIMTVP
 40
0.0
  9
$DIMTIX
 70
     0
  9
$DIMSOXD
 70
     0
  9
$DIMSAH
 70
     0
  9
$DIMBLK1
  1

  9
$DIMBLK2
  1

  9
$DIMSTYLE
  2
Standard
  9
$DIMCLRD
 70
   178
  9
$DIMCLRE
 70
   178
  9
$DIMCLRT
 70
   178
  9
$DIMTFAC
 40
1.0
  9
$DIMGAP
 40
0.625
  9
$DIMJUST
 70
     0
  9
$DIMSD1
 70
     0
  9
$DIMSD2
 70
     0
  9
$DIMTOLJ
 70
     1
  9
$DIMTZIN
 70
     0
  9
$DIMALTZ
 70
     0
  9
$DIMALTTZ
 70
     0
  9
$DIMUPT
 70
     0
  9
$DIMDEC
 70
     4
  9
$DIMTDEC
 70
     4
  9
$DIMALTU
 70
     2
  9
$DIMALTTD
 70
     2
  9
$DIMTXSTY
  7
Standard
  9
$DIMAUNIT
 70
     0
  9
$DIMADEC
 70
     0
  9
$DIMALTRND
 40
0.0
  9
$DIMAZIN
 70
     3
  9
$DIMDSEP
 70
    46
  9
$DIMATFIT
 70
     3
  9
$DIMFRAC
 70
     0
  9
$DIMLDRBLK
  1

  9
$DIMLUNIT
 70
     2
  9
$DIMLWD
 70
    -2
  9
$DIMLWE
 70
    -2
  9
$DIMTMOVE
 70
     0
  9
$DIMFXL
 40
1.0
  9
$DIMFXLON
 70
     0
  9
$DIMJOGANG
 40
0.7853981633974483
  9
$DIMTFILL
 70
     0
  9
$DIMTFILLCLR
 70
     0
  9
$DIMARCSYM
 70
     0
  9
$DIMLTYPE
  6

  9
$DIMLTEX1
  6

  9
$DIMLTEX2
  6

  9
$DIMTXTDIRECTION
 70
     0
  9
$LUNITS
 70
     2
  9
$LUPREC
 70
     4
  9
$SKETCHINC
 40
0.1
  9
$FILLETRAD
 40
0.5
  9
$AUNITS
 70
     0
  9
$AUPREC
 70
     0
  9
$MENU
  1
.
  9
$ELEVATION
 40
0.0
  9
$PELEVATION
 40
0.0
  9
$THICKNESS
 40
0.0
  9
$LIMCHECK
 70
     0
  9
$CHAMFERA
 40
0.5
  9
$CHAMFERB
 40
0.5
  9
$CHAMFERC
 40
1.0
  9
$CHAMFERD
 40
0.0
  9
$SKPOLY
 70
     0
  9
$TDCREATE
 40
2455685.652442118
  9
$TDUCREATE
 40
2455685.610775463
  9
$TDUPDATE
 40
2455685.652442118
  9
$TDUUPDATE
 40
2455685.610775463
  9
$TDINDWG
 40
0.0000000116
  9
$TDUSRTIMER
 40
0.0000000116
  9
$USRTIMER
 70
     1
  9
$ANGBASE
 50
0.0
  9
$ANGDIR
 70
     0
  9
$PDMODE
 70
     0
  9
$PDSIZE
 40
0.0
  9
$PLINEWID
 40
0.0
  9
$SPLFRAME
 70
     0
  9
$SPLINETYPE
 70
     6
  9
$SPLINESEGS
 70
     8
  9
$HANDSEED
  5
17B
  9
$SURFTAB1
 70
     6
  9
$SURFTAB2
 70
     6
  9
$SURFTYPE
 70
     6
  9
$SURFU
 70
     6
  9
$SURFV
 70
     6
  9
$UCSBASE
  2

  9
$UCSNAME
  2

  9
$UCSORG
 10
0.0
 20
0.0
 30
0.0
  9
$UCSXDIR
 10
1.0
 20
0.0
 30
0.0
  9
$UCSYDIR
 10
0.0
 20
1.0
 30
0.0
  9
$UCSORTHOREF
  2

  9
$UCSORTHOVIEW
 70
     0
  9
$UCSORGTOP
 10
0.0
 20
0.0
 30
0.0
  9
$UCSORGBOTTOM
 10
0.0
 20
0.0
 30
0.0
  9
$UCSORGLEFT
 10
0.0
 20
0.0
 30
0.0
  9
$UCSORGRIGHT
 10
0.0
 20
0.0
 30
0.0
  9
$UCSORGFRONT
 10
0.0
 20
0.0
 30
0.0
  9
$UCSORGBACK
 10
0.0
 20
0.0
 30
0.0
  9
$PUCSBASE
  2

  9
$PUCSNAME
  2

  9
$PUCSORG
 10
0.0
 20
0.0
 30
0.0
  9
$PUCSXDIR
 10
1.0
 20
0.0
 30
0.0
  9
$PUCSYDIR
 10
0.0
 20
1.0
 30
0.0
  9
$PUCSORTHOREF
  2

  9
$PUCSORTHOVIEW
 70
     0
  9
$PUCSORGTOP
 10
0.0
 20
0.0
 30
0.0
  9
$PUCSORGBOTTOM
 10
0.0
 20
0.0
 30
0.0
  9
$PUCSORGLEFT
 10
0.0
 20
0.0
 30
0.0
  9
$PUCSORGRIGHT
 10
0.0
 20
0.0
 30
0.0
  9
$PUCSORGFRONT
 10
0.0
 20
0.0
 30
0.0
  9
$PUCSORGBACK
 10
0.0
 20
0.0
 30
0.0
  9
$USERI1
 70
     0
  9
$USERI2
 70
     0
  9
$USERI3
 70
     0
  9
$USERI4
 70
     0
  9
$USERI5
 70
     0
  9
$USERR1
 40
0.0
  9
$USERR2
 40
0.0
  9
$USERR3
 40
0.0
  9
$USERR4
 40
0.0
  9
$USERR5
 40
0.0
  9
$WORLDVIEW
 70
     1
  9
$SHADEDGE
 70
     3
  9
$SHADEDIF
 70
    70
  9
$TILEMODE
 70
     1
  9
$MAXACTVP
 70
    64
  9
$PINSBASE
 10
0.0
 20
0.0
 30
0.0
  9
$PLIMCHECK
 70
     0
  9
$PEXTMIN
 10
1.000000000000000E+20
 20
1.000000000000000E+20
 30
1.000000000000000E+20
  9
$PEXTMAX
 10
-1.000000000000000E+20
 20
-1.000000000000000E+20
 30
-1.000000000000000E+20
  9
$PLIMMIN
 10
0.0
 20
0.0
  9
$PLIMMAX
 10
12.0
 20
9.0
  9
$UNITMODE
 70
     0
  9
$VISRETAIN
 70
     1
  9
$PLINEGEN
 70
     0
  9
$PSLTSCALE
 70
     1
  9
$TREEDEPTH
 70
  3020
  9
$CMLSTYLE
  2
Standard
  9
$CMLJUST
 70
     0
  9
$CMLSCALE
 40
1.0
  9
$PROXYGRAPHICS
 70
     1
  9
$MEASUREMENT
 70
     0
  9
$CELWEIGHT
370
    -1
  9
$ENDCAPS
280
     0
  9
$JOINSTYLE
280
     0
  9
$LWDISPLAY
290
     0
  9
$INSUNITS
 70
     4
  9
$HYPERLINKBASE
  1

  9
$STYLESHEET
  1

  9
$XEDIT
290
     1
  9
$CEPSNTYPE
380
     0
  9
$PSTYLEMODE
290
     1
  9
$FINGERPRINTGUID
  2
{24AD8663-7F1D-0FE8-E790-403E3C7982F2}
  9
$VERSIONGUID
  2
{FAEB1C32-E019-11D5-929B-00C0DF256EC4}
  9
$EXTNAMES
290
     1
  9
$PSVPSCALE
 40
0.0
  9
$OLESTARTUP
290
     0
  9
$SORTENTS
280
   127
  9
$INDEXCTL
280
     0
  9
$HIDETEXT
280
     1
  9
$XCLIPFRAME
280
     2
  9
$HALOGAP
280
     0
  9
$OBSCOLOR
 70
   257
  9
$OBSLTYPE
280
     0
  9
$INTERSECTIONDISPLAY
280
     0
  9
$INTERSECTIONCOLOR
 70
   257
  9
$DIMASSOC
280
     2
  9
$PROJECTNAME
  1

  9
$CAMERADISPLAY
290
     0
  9
$LENSLENGTH
 40
50.0
  9
$CAMERAHEIGHT
 40
0.0
  9
$STEPSPERSEC
 40
2.0
  9
$STEPSIZE
 40
6.0
  9
$3DDWFPREC
 40
2.0
  9
$PSOLWIDTH
 40
0.25
  9
$PSOLHEIGHT
 40
4.0
  9
$LOFTANG1
 40
1.570796326794897
  9
$LOFTANG2
 40
1.570796326794897
  9
$LOFTMAG1
 40
0.0
  9
$LOFTMAG2
 40
0.0
  9
$LOFTPARAM
 70
     7
  9
$LOFTNORMALS
280
     1
  9
$LATITUDE
 40
37.795
  9
$LONGITUDE
 40
-122.394
  9
$NORTHDIRECTION
 40
0.0
  9
$TIMEZONE
 70
 -8000
  9
$LIGHTGLYPHDISPLAY
280
     1
  9
$TILEMODELIGHTSYNCH
280
     1
  9
$SOLIDHIST
280
     1
  9
$SHOWHIST
280
     1
  9
$DWFFRAME
280
     2
  9
$DGNFRAME
280
     2
  9
$REALWORLDSCALE
290
     1
  9
$INTERFERECOLOR
 62
   256
  9
$CSHADOW
280
     0
  9
$SHADOWPLANELOCATION
 40
0.0
  0
ENDSEC
  0
SECTION
  2
CLASSES
  0
CLASS
  1
ACDBDICTIONARYWDFLT
  2
AcDbDictionaryWithDefault
  3
ObjectDBX Classes
 90
        0
 91
        4
280
     0
281
     0
  0
CLASS
  1
VISUALSTYLE
  2
AcDbVisualStyle
  3
ObjectDBX Classes
 90
     4095
 91
        4
280
     0
281
     0
  0
CLASS
  1
MATERIAL
  2
AcDbMaterial
  3
ObjectDBX Classes
 90
     1153
 91
        4
280
     0
281
     0
  0
ENDSEC
  0
SECTION
  2
TABLES
  0
TABLE
  2
VPORT
  5
39
330
0
100
AcDbSymbolTable
 70
     1
  0
VPORT
  5
59
330
39
100
AcDbSymbolTableRecord
100
AcDbViewportTableRecord
  2
*Active
 70
     0
 10
0.0
 20
0.0
 11
1.0
 21
1.0
 12
10.42990654205607
 22
4.5
 13
0.0
 23
0.0
 14
0.5
 24
0.5
 15
0.5
 25
0.5
 16
0.0
 26
0.0
 36
1.0
 17
0.0
 27
0.0
 37
0.0
 40
9.0
 41
1.972972972850329
 42
50.0
 43
0.0
 44
0.0
 50
0.0
 51
0.0
 71
     0
 72
   100
 73
     1
 74
     3
 75
     0
 76
     0
 77
     0
 78
     0
281
     0
 65
     1
110
0.0
120
0.0
130
0.0
111
1.0
121
0.0
131
0.0
112
0.0
122
1.0
132
0.0
 79
     0
146
0.0
 60
     3
 61
     5
292
     1
282
     1
141
0.0
142
0.0
 63
   250
  0
ENDTAB
  0
TABLE
  2
LTYPE
  5
36
330
0
100
AcDbSymbolTable
 70
    19
  0
LTYPE
  5
44
330
36
100
AcDbSymbolTableRecord
100
AcDbLinetypeTableRecord
  2
ByBlock
 70
     0
  3

 72
    65
 73
     0
 40
0.0
  0
LTYPE
  5
45
330
36
100
AcDbSymbolTableRecord
100
AcDbLinetypeTableRecord
  2
ByLayer
 70
     0
  3

 72
    65
 73
     0
 40
0.0
  0
LTYPE
  5
46
330
36
100
AcDbSymbolTableRecord
100
AcDbLinetypeTableRecord
  2
Continuous
 70
     0
  3
Solid line
 72
    65
 73
     0
 40
0.0
  0
LTYPE
  5
73
330
36
100
AcDbSymbolTableRecord
100
AcDbLinetypeTableRecord
  2
BORDER
 70
     0
  3

 72
    65
 73
     6
 40
42.00000000000001
 49
12.0
 74
     0
 49
-6.0
 74
     0
 49
12.0
 74
     0
 49
-5.95
 74
     0
 49
0.1
 74
     0
 49
-5.95
 74
     0
  0
LTYPE
  5
74
330
36
100
AcDbSymbolTableRecord
100
AcDbLinetypeTableRecord
  2
BORDER2
 70
     0
  3

 72
    65
 73
     6
 40
21.0
 49
6.0
 74
     0
 49
-3.0
 74
     0
 49
6.0
 74
     0
 49
-2.95
 74
     0
 49
0.1
 74
     0
 49
-2.95
 74
     0
  0
LTYPE
  5
75
330
36
100
AcDbSymbolTableRecord
100
AcDbLinetypeTableRecord
  2
BORDERX2
 70
     0
  3

 72
    65
 73
     6
 40
84.0
 49
24.0
 74
     0
 49
-12.0
 74
     0
 49
24.0
 74
     0
 49
-11.95
 74
     0
 49
0.1
 74
     0
 49
-11.95
 74
     0
  0
LTYPE
  5
76
330
36
100
AcDbSymbolTableRecord
100
AcDbLinetypeTableRecord
  2
CENTER
 70
     0
  3

 72
    65
 73
     4
 40
50.0
 49
32.0
 74
     0
 49
-6.0
 74
     0
 49
6.0
 74
     0
 49
-6.0
 74
     0
  0
LTYPE
  5
77
330
36
100
AcDbSymbolTableRecord
100
AcDbLinetypeTableRecord
  2
CENTER2
 70
     0
  3

 72
    65
 73
     4
 40
25.0
 49
16.0
 74
     0
 49
-3.0
 74
     0
 49
3.0
 74
     0
 49
-3.0
 74
     0
  0
LTYPE
  5
78
330
36
100
AcDbSymbolTableRecord
100
AcDbLinetypeTableRecord
  2
CENTERX2
 70
     0
  3

 72
    65
 73
     4
 40
100.0
 49
64.0
 74
     0
 49
-12.0
 74
     0
 49
12.0
 74
     0
 49
-12.0
 74
     0
  0
LTYPE
  5
79
330
36
100
AcDbSymbolTableRecord
100
AcDbLinetypeTableRecord
  2
DASHDOT
 70
     0
  3

 72
    65
 73
     4
 40
24.0
 49
12.0
 74
     0
 49
-5.95
 74
     0
 49
0.1
 74
     0
 49
-5.95
 74
     0
  0
LTYPE
  5
7A
330
36
100
AcDbSymbolTableRecord
100
AcDbLinetypeTableRecord
  2
DASHDOT2
 70
     0
  3

 72
    65
 73
     4
 40
12.0
 49
6.0
 74
     0
 49
-2.95
 74
     0
 49
0.1
 74
     0
 49
-2.95
 74
     0
  0
LTYPE
  5
7B
330
36
100
AcDbSymbolTableRecord
100
AcDbLinetypeTableRecord
  2
DASHDOTX2
 70
     0
  3

 72
    65
 73
     4
 40
48.0
 49
24.0
 74
     0
 49
-11.95
 74
     0
 49
0.1
 74
     0
 49
-11.95
 74
     0
  0
LTYPE
  5
7C
330
36
100
AcDbSymbolTableRecord
100
AcDbLinetypeTableRecord
  2
DASHED
 70
     0
  3

 72
    65
 73
     2
 40
18.0
 49
12.0
 74
     0
 49
-6.0
 74
     0
  0
LTYPE
  5
7D
330
36
100
AcDbSymbolTableRecord
100
AcDbLinetypeTableRecord
  2
DASHED2
 70
     0
  3

 72
    65
 73
     2
 40
9.0
 49
6.0
 74
     0
 49
-3.0
 74
     0
  0
LTYPE
  5
7E
330
36
100
AcDbSymbolTableRecord
100
AcDbLinetypeTableRecord
  2
DASHEDX2
 70
     0
  3

 72
    65
 73
     2
 40
36.0
 49
24.0
 74
     0
 49
-12.0
 74
     0
  0
LTYPE
  5
7F
330
36
100
AcDbSymbolTableRecord
100
AcDbLinetypeTableRecord
  2
DIVIDE
 70
     0
  3

 72
    65
 73
     6
 40
29.99999999999999
 49
12.0
 74
     0
 49
-5.9
 74
     0
 49
0.15
 74
     0
 49
-5.9
 74
     0
 49
0.15
 74
     0
 49
-5.9
 74
     0
  0
LTYPE
  5
80
330
36
100
AcDbSymbolTableRecord
100
AcDbLinetypeTableRecord
  2
DIVIDE2
 70
     0
  3

 72
    65
 73
     6
 40
15.0
 49
6.0
 74
     0
 49
-2.9
 74
     0
 49
0.15
 74
     0
 49
-2.9
 74
     0
 49
0.15
 74
     0
 49
-2.9
 74
     0
  0
LTYPE
  5
81
330
36
100
AcDbSymbolTableRecord
100
AcDbLinetypeTableRecord
  2
DIVIDEX2
 70
     0
  3

 72
    65
 73
     6
 40
59.99999999999999
 49
24.0
 74
     0
 49
-11.9
 74
     0
 49
0.15
 74
     0
 49
-11.9
 74
     0
 49
0.15
 74
     0
 49
-11.9
 74
     0
  0
LTYPE
  5
82
330
36
100
AcDbSymbolTableRecord
100
AcDbLinetypeTableRecord
  2
DOT
 70
     0
  3

 72
    65
 73
     2
 40
6.3
 49
0.1
 74
     0
 49
-6.2
 74
     0
  0
LTYPE
  5
83
330
36
100
AcDbSymbolTableRecord
100
AcDbLinetypeTableRecord
  2
DOT2
 70
     0
  3

 72
    65
 73
     2
 40
3.2
 49
0.1
 74
     0
 49
-3.1
 74
     0
  0
LTYPE
  5
84
330
36
100
AcDbSymbolTableRecord
100
AcDbLinetypeTableRecord
  2
DOTX2
 70
     0
  3

 72
    65
 73
     2
 40
12.5
 49
0.1
 74
     0
 49
-12.4
 74
     0
  0
ENDTAB
  0
TABLE
  2
LAYER
  5
33
330
0
100
AcDbSymbolTable
 70
     2
  0
LAYER
  5
41
330
33
100
AcDbSymbolTableRecord
100
AcDbLayerTableRecord
  2
0
 70
     0
 62
     7
420
 16777215
  6
Continuous
370
    25
390
40
347
6E
  0
LAYER
  5
85
330
33
100
AcDbSymbolTableRecord
100
AcDbLayerTableRecord
  2
Defpoints
 70
     0
 62
     7
  6
Continuous
290
     0
370
    -3
390
40
347
6E
  0
ENDTAB
  0
TABLE
  2
STYLE
  5
34
330
0
100
AcDbSymbolTable
 70
     1
  0
STYLE
  5
42
330
34
100
AcDbSymbolTableRecord
100
AcDbTextStyleTableRecord
  2
Standard
 70
     0
 40
0.0
 41
1.0
 50
0.0
 71
     0
 42
0.2
  3
txt
  4

  0
ENDTAB
  0
TABLE
  2
VIEW
  5
37
330
0
100
AcDbSymbolTable
 70
     0
  0
ENDTAB
  0
TABLE
  2
UCS
  5
38
330
0
100
AcDbSymbolTable
 70
     0
  0
ENDTAB
  0
TABLE
  2
APPID
  5
3A
330
0
100
AcDbSymbolTable
 70
     2
  0
APPID
  5
43
330
3A
100
AcDbSymbolTableRecord
100
AcDbRegAppTableRecord
  2
ACAD
 70
     0
  0
APPID
  5
6F
330
3A
100
AcDbSymbolTableRecord
100
AcDbRegAppTableRecord
  2
QCAD
 70
     0
  0
ENDTAB
  0
TABLE
  2
DIMSTYLE
  5
3B
330
0
100
AcDbSymbolTable
 70
     2
100
AcDbDimStyleTable
  0
DIMSTYLE
105
57
330
3B
100
AcDbSymbolTableRecord
100
AcDbDimStyleTableRecord
  2
Standard
 70
     0
178
     0
340
42
  0
DIMSTYLE
105
72
102
{ACAD_REACTORS
330
25
330
26
330
27
330
28
330
29
330
2A
330
2B
330
2C
330
2D
330
2E
330
2F
330
30
330
1F
330
20
330
21
330
22
330
23
330
24
102
}
330
3B
100
AcDbSymbolTableRecord
100
AcDbDimStyleTableRecord
  2
QCADDimStyle
 70
     0
 41
2.5
 42
0.625
 44
1.25
 73
     0
 77
     1
140
2.5
147
0.625
178
     0
340
42
  0
ENDTAB
  0
TABLE
  2
BLOCK_RECORD
  5
32
330
0
100
AcDbSymbolTable
 70
    19
  0
BLOCK_RECORD
  5
4F
330
32
100
AcDbSymbolTableRecord
100
AcDbBlockTableRecord
  2
*Model_Space
340
52
 70
     0
280
     1
281
     0
  0
BLOCK_RECORD
  5
4B
330
32
100
AcDbSymbolTableRecord
100
AcDbBlockTableRecord
  2
*Paper_Space
340
4E
 70
     0
280
     1
281
     0
  0
BLOCK_RECORD
  5
53
330
32
100
AcDbSymbolTableRecord
100
AcDbBlockTableRecord
  2
*Paper_Space0
340
56
 70
     0
280
     1
281
     0
  0
BLOCK_RECORD
  5
86
330
32
100
AcDbSymbolTableRecord
100
AcDbBlockTableRecord
  2
*D1
340
0
 70
     0
280
     1
281
     0
  0
BLOCK_RECORD
  5
94
330
32
100
AcDbSymbolTableRecord
100
AcDbBlockTableRecord
  2
*D2
340
0
 70
     0
280
     1
281
     0
  0
BLOCK_RECORD
  5
A1
330
32
100
AcDbSymbolTableRecord
100
AcDbBlockTableRecord
  2
*D3
340
0
 70
     0
280
     1
281
     0
  0
BLOCK_RECORD
  5
AF
330
32
100
AcDbSymbolTableRecord
100
AcDbBlockTableRecord
  2
*D4
340
0
 70
     0
280
     1
281
     0
  0
BLOCK_RECORD
  5
BB
330
32
100
AcDbSymbolTableRecord
100
AcDbBlockTableRecord
  2
*D5
340
0
 70
     0
280
     1
281
     0
  0
BLOCK_RECORD
  5
C9
330
32
100
AcDbSymbolTableRecord
100
AcDbBlockTableRecord
  2
*D6
340
0
 70
     0
280
     1
281
     0
  0
BLOCK_RECORD
  5
D8
330
32
100
AcDbSymbolTableRecord
100
AcDbBlockTableRecord
  2
*D7
340
0
 70
     0
280
     1
281
     0
  0
BLOCK_RECORD
  5
E6
330
32
100
AcDbSymbolTableRecord
100
AcDbBlockTableRecord
  2
*D8
340
0
 70
     0
280
     1
281
     0
  0
BLOCK_RECORD
  5
F3
330
32
100
AcDbSymbolTableRecord
100
AcDbBlockTableRecord
  2
*D9
340
0
 70
     0
280
     1
281
     0
  0
BLOCK_RECORD
  5
101
330
32
100
AcDbSymbolTableRecord
100
AcDbBlockTableRecord
  2
*D10
340
0
 70
     0
280
     1
281
     0
  0
BLOCK_RECORD
  5
10E
330
32
100
AcDbSymbolTableRecord
100
AcDbBlockTableRecord
  2
*D11
340
0
 70
     0
280
     1
281
     0
  0
BLOCK_RECORD
  5
11B
330
32
100
AcDbSymbolTableRecord
100
AcDbBlockTableRecord
  2
*D12
340
0
 70
     0
280
     1
281
     0
  0
BLOCK_RECORD
  5
129
330
32
100
AcDbSymbolTableRecord
100
AcDbBlockTableRecord
  2
*D13
340
0
 70
     0
280
     1
281
     0
  0
BLOCK_RECORD
  5
136
330
32
100
AcDbSymbolTableRecord
100
AcDbBlockTableRecord
  2
*D14
340
0
 70
     0
280
     1
281
     0
  0
BLOCK_RECORD
  5
143
330
32
100
AcDbSymbolTableRecord
100
AcDbBlockTableRecord
  2
*D15
340
0
 70
     0
280
     1
281
     0
  0
BLOCK_RECORD
  5
150
330
32
100
AcDbSymbolTableRecord
100
AcDbBlockTableRecord
  2
*D16
340
0
 70
     0
280
     1
281
     0
  0
BLOCK_RECORD
  5
15E
330
32
100
AcDbSymbolTableRecord
100
AcDbBlockTableRecord
  2
*D17
340
0
 70
     0
280
     1
281
     0
  0
BLOCK_RECORD
  5
16C
330
32
100
AcDbSymbolTableRecord
100
AcDbBlockTableRecord
  2
*D18
340
0
 70
     0
280
     1
281
     0
  0
ENDTAB
  0
ENDSEC
  0
SECTION
  2
BLOCKS
  0
BLOCK
  5
50
330
4F
100
AcDbEntity
  8
0
100
AcDbBlockBegin
  2
*Model_Space
 70
     0
 10
0.0
 20
0.0
 30
0.0
  3
*Model_Space
  1

  0
ENDBLK
  5
51
330
4F
100
AcDbEntity
  8
0
100
AcDbBlockEnd
  0
BLOCK
  5
4C
330
4B
100
AcDbEntity
 67
     1
  8
0
100
AcDbBlockBegin
  2
*Paper_Space
 70
     0
 10
0.0
 20
0.0
 30
0.0
  3
*Paper_Space
  1

  0
ENDBLK
  5
4D
330
4B
100
AcDbEntity
 67
     1
  8
0
100
AcDbBlockEnd
  0
BLOCK
  5
54
330
53
100
AcDbEntity
  8
0
100
AcDbBlockBegin
  2
*Paper_Space0
 70
     0
 10
0.0
 20
0.0
 30
0.0
  3
*Paper_Space0
  1

  0
ENDBLK
  5
55
330
53
100
AcDbEntity
  8
0
100
AcDbBlockEnd
  0
BLOCK
  5
92
330
86
100
AcDbEntity
  8
0
100
AcDbBlockBegin
  2
*D1
 70
     1
 10
0.0
 20
0.0
 30
0.0
  3
*D1
  1

  0
LINE
  5
87
330
86
100
AcDbEntity
  8
0
 62
     0
370
    -2
100
AcDbLine
 10
31.9800986477265
 20
58.38855538163405
 30
0.0
 11
34.34706556597468
 21
60.04592346048442
 31
0.0
  0
LINE
  5
88
330
86
100
AcDbEntity
  8
0
 62
     0
370
    -2
100
AcDbLine
 10
19.41269211200881
 20
50.21376258957854
 30
0.0
 11
3.541722521146871
 21
55.99032310959633
 31
0.0
  0
ARC
  5
89
330
86
100
AcDbEntity
  8
0
 62
     0
370
    -2
100
AcDbCircle
 10
20.0
 20
50.0
 30
0.0
 40
16.26453306623639
100
AcDbArc
 50
43.81555183721658
 51
151.1844481627834
  0
SOLID
  5
8A
330
86
100
AcDbEntity
  8
0
 62
     0
100
AcDbTrace
 10
31.41410063610545
 20
60.99605673293485
 30
0.0
 11
32.05797348917806
 21
61.52508621559208
 31
0.0
 12
33.32312551061344
 22
59.32895291504562
 32
0.0
 13
33.32312551061344
 23
59.32895291504562
 33
0.0
  0
SOLID
  5
8B
330
86
100
AcDbEntity
  8
0
 62
     0
100
AcDbTrace
 10
5.369980185050232
 20
58.01154524150795
 30
0.0
 11
6.128836508211921
 21
57.66718855834068
 31
0.0
 12
4.716338297129257
 22
55.56279793043925
 32
0.0
 13
4.716338297129257
 23
55.56279793043925
 33
0.0
  0
MTEXT
  5
8C
330
86
100
AcDbEntity
  8
0
 62
     0
100
AcDbMText
 10
17.62454640401087
 20
68.04336142132216
 30
0.0
 40
2.5
 41
0.0
 46
0.0
 71
     5
 72
     1
  1
\A1;125%%d
 11
0.9914448613738105
 21
0.1305261922200517
 31
0.0
 73
     1
 44
1.0
  0
POINT
  5
8D
330
86
100
AcDbEntity
  8
Defpoints
 62
     0
100
AcDbPoint
 10
23.75085945528932
 20
65.82612047247726
 30
0.0
  0
POINT
  5
8E
330
86
100
AcDbEntity
  8
Defpoints
 62
     0
100
AcDbPoint
 10
20.0
 20
50.0
 30
0.0
  0
POINT
  5
8F
330
86
100
AcDbEntity
  8
Defpoints
 62
     0
100
AcDbPoint
 10
20.0
 20
50.0
 30
0.0
  0
POINT
  5
90
330
86
100
AcDbEntity
  8
Defpoints
 62
     0
100
AcDbPoint
 10
33.15569669100272
 20
45.21171799344064
 30
0.0
  0
POINT
  5
91
330
86
100
AcDbEntity
  8
Defpoints
 62
     0
100
AcDbPoint
 10
31.46812862004588
 20
58.03007010891464
 30
0.0
  0
ENDBLK
  5
93
330
86
100
AcDbEntity
  8
0
100
AcDbBlockEnd
  0
BLOCK
  5
9F
330
94
100
AcDbEntity
  8
0
100
AcDbBlockBegin
  2
*D2
 70
     1
 10
0.0
 20
0.0
 30
0.0
  3
*D2
  1

  0
LINE
  5
95
330
94
100
AcDbEntity
  8
0
 62
     0
370
    -2
100
AcDbLine
 10
19.48802997231938
 20
49.64151472728059
 30
0.0
 11
10.21043141087653
 21
43.14527027807476
 31
0.0
  0
ARC
  5
96
330
94
100
AcDbEntity
  8
0
 62
     0
370
    -2
100
AcDbCircle
 10
20.0
 20
50.0
 30
0.0
 40
10.70085656853927
100
AcDbArc
 50
228.4164234393907
 51
326.5835765606093
  0
SOLID
  5
97
330
94
100
AcDbEntity
  8
0
 62
     0
100
AcDbTrace
 10
13.20877437279448
 20
42.27310764039406
 30
0.0
 11
12.58665534548238
 21
41.7186598427605
 31
0.0
 12
11.23437146623777
 22
43.86224082351357
 32
0.0
 13
11.23437146623777
 23
43.86224082351357
 33
0.0
  0
SOLID
  5
98
330
94
100
AcDbEntity
  8
0
 62
     0
100
AcDbTrace
 10
29.30410961264647
 20
43.91955445033572
 30
0.0
 11
28.55968712759717
 21
44.29409364481005
 31
0.0
 12
30.05551595354477
 22
46.34009150272078
 32
0.0
 13
30.05551595354477
 23
46.34009150272078
 33
0.0
  0
MTEXT
  5
99
330
94
100
AcDbEntity
  8
0
 62
     0
100
AcDbMText
 10
21.14423603476819
 20
41.30866443298122
 30
0.0
 40
2.5
 41
0.0
 46
0.0
 71
     5
 72
     1
  1
\A1;125%%d
 11
0.9914448613738105
 21
0.1305261922200519
 31
0.0
 73
     1
 44
1.0
  0
POINT
  5
9A
330
94
100
AcDbEntity
  8
Defpoints
 62
     0
100
AcDbPoint
 10
17.53221264475636
 20
39.58758640517245
 30
0.0
  0
POINT
  5
9B
330
94
100
AcDbEntity
  8
Defpoints
 62
     0
100
AcDbPoint
 10
20.0
 20
50.0
 30
0.0
  0
POINT
  5
9C
330
94
100
AcDbEntity
  8
Defpoints
 62
     0
100
AcDbPoint
 10
20.0
 20
50.0
 30
0.0
  0
POINT
  5
9D
330
94
100
AcDbEntity
  8
Defpoints
 62
     0
100
AcDbPoint
 10
33.15569669100272
 20
45.21171799344064
 30
0.0
  0
POINT
  5
9E
330
94
100
AcDbEntity
  8
Defpoints
 62
     0
100
AcDbPoint
 10
31.46812862004588
 20
58.03007010891464
 30
0.0
  0
ENDBLK
  5
A0
330
94
100
AcDbEntity
  8
0
100
AcDbBlockEnd
  0
BLOCK
  5
AD
330
A1
100
AcDbEntity
  8
0
100
AcDbBlockBegin
  2
*D3
 70
     1
 10
0.0
 20
0.0
 30
0.0
  3
*D3
  1

  0
LINE
  5
A2
330
A1
100
AcDbEntity
  8
0
 62
     0
370
    -2
100
AcDbLine
 10
19.41269211200881
 20
50.21376258957854
 30
0.0
 11
-1.338049841265506
 21
57.7664149995093
 31
0.0
  0
LINE
  5
A3
330
A1
100
AcDbEntity
  8
0
 62
     0
370
    -2
100
AcDbLine
 10
19.48802997231938
 20
49.64151472728059
 30
0.0
 11
1.399122689721189
 21
36.97552549002884
 31
0.0
  0
ARC
  5
A4
330
A1
100
AcDbEntity
  8
0
 62
     0
370
    -2
100
AcDbCircle
 10
20.0
 20
50.0
 30
0.0
 40
21.45747834905791
100
AcDbArc
 50
166.6792838856171
 51
208.3207161143829
  0
SOLID
  5
A5
330
A1
100
AcDbEntity
  8
0
 62
     0
100
AcDbTrace
 10
-0.4810029895216863
 20
54.82437971111244
 30
0.0
 11
-1.279353893910883
 21
55.06329450325682
 31
0.0
 12
-0.1634340652831199
 22
57.33888982035221
 32
0.0
 13
-0.1634340652831199
 23
57.33888982035221
 33
0.0
  0
SOLID
  5
A6
330
A1
100
AcDbEntity
  8
0
 62
     0
100
AcDbTrace
 10
0.7561995555324033
 20
39.60173101797614
 30
0.0
 11
1.465511614159485
 21
40.03913340472163
 31
0.0
 12
2.423062745082429
 22
37.69249603546764
 32
0.0
 13
2.423062745082429
 23
37.69249603546764
 33
0.0
  0
MTEXT
  5
A7
330
A1
100
AcDbEntity
  8
0
 62
     0
100
AcDbMText
 10
0.6440670429444073
 20
47.45174308306945
 30
0.0
 40
2.5
 41
0.0
 46
0.0
 71
     5
 72
     1
  1
\A1;55%%d
 11
0.1305261922200517
 21
-0.9914448613738106
 31
0.0
 73
     1
 44
1.0
  0
POINT
  5
A8
330
A1
100
AcDbEntity
  8
Defpoints
 62
     0
100
AcDbPoint
 10
-1.448400764606163
 20
50.62408472271875
 30
0.0
  0
POINT
  5
A9
330
A1
100
AcDbEntity
  8
Defpoints
 62
     0
100
AcDbPoint
 10
20.0
 20
50.0
 30
0.0
  0
POINT
  5
AA
330
A1
100
AcDbEntity
  8
Defpoints
 62
     0
100
AcDbPoint
 10
20.0
 20
50.0
 30
0.0
  0
POINT
  5
AB
330
A1
100
AcDbEntity
  8
Defpoints
 62
     0
100
AcDbPoint
 10
33.15569669100272
 20
45.21171799344064
 30
0.0
  0
POINT
  5
AC
330
A1
100
AcDbEntity
  8
Defpoints
 62
     0
100
AcDbPoint
 10
31.46812862004588
 20
58.03007010891464
 30
0.0
  0
ENDBLK
  5
AE
330
A1
100
AcDbEntity
  8
0
100
AcDbBlockEnd
  0
BLOCK
  5
B9
330
AF
100
AcDbEntity
  8
0
100
AcDbBlockBegin
  2
*D4
 70
     1
 10
0.0
 20
0.0
 30
0.0
  3
*D4
  1

  0
ARC
  5
B0
330
AF
100
AcDbEntity
  8
0
 62
     0
370
    -2
100
AcDbCircle
 10
90.0
 20
20.0
 30
0.0
 40
14.92925946096339
100
AcDbArc
 50
216.1708417779731
 51
358.924975009053
  0
SOLID
  5
B1
330
AF
100
AcDbEntity
  8
0
 62
     0
100
AcDbTrace
 10
78.30396205448022
 20
11.40571520578283
 30
0.0
 11
77.59242694026258
 21
10.97193850553289
 31
0.0
 12
76.6468643966216
 22
13.3234321983108
 32
0.0
 13
76.6468643966216
 23
13.3234321983108
 33
0.0
  0
SOLID
  5
B2
330
AF
100
AcDbEntity
  8
0
 62
     0
100
AcDbTrace
 10
105.3424167365215
 20
19.7469935504633
 30
0.0
 11
104.5108466449806
 21
19.69281212099618
 31
0.0
 12
104.7640874023497
 22
22.21461311035245
 32
0.0
 13
104.7640874023497
 23
22.21461311035245
 33
0.0
  0
MTEXT
  5
B3
330
AF
100
AcDbEntity
  8
0
 62
     0
100
AcDbMText
 10
93.91795377779115
 20
7.609972040149102
 30
0.0
 40
2.5
 41
0.0
 46
0.0
 71
     5
 72
     1
  1
\A1;162%%d
 11
0.9534651794535198
 21
0.3015031534987108
 31
0.0
 73
     1
 44
1.0
  0
POINT
  5
B4
330
AF
100
AcDbEntity
  8
Defpoints
 62
     0
100
AcDbPoint
 10
87.54974309853469
 20
5.273186727279167
 30
0.0
  0
POINT
  5
B5
330
AF
100
AcDbEntity
  8
Defpoints
 62
     0
100
AcDbPoint
 10
90.0
 20
20.0
 30
0.0
  0
POINT
  5
B6
330
AF
100
AcDbEntity
  8
Defpoints
 62
     0
100
AcDbPoint
 10
70.0
 20
10.0
 30
0.0
  0
POINT
  5
B7
330
AF
100
AcDbEntity
  8
Defpoints
 62
     0
100
AcDbPoint
 10
90.0
 20
20.0
 30
0.0
  0
POINT
  5
B8
330
AF
100
AcDbEntity
  8
Defpoints
 62
     0
100
AcDbPoint
 10
110.0
 20
23.0
 30
0.0
  0
ENDBLK
  5
BA
330
AF
100
AcDbEntity
  8
0
100
AcDbBlockEnd
  0
BLOCK
  5
C7
330
BB
100
AcDbEntity
  8
0
100
AcDbBlockBegin
  2
*D5
 70
     1
 10
0.0
 20
0.0
 30
0.0
  3
*D5
  1

  0
LINE
  5
BC
330
BB
100
AcDbEntity
  8
0
 62
     0
370
    -2
100
AcDbLine
 10
90.55901699437494
 20
20.27950849718748
 30
0.0
 11
95.95875638493342
 21
22.97937819246671
 31
0.0
  0
LINE
  5
BD
330
BB
100
AcDbEntity
  8
0
 62
     0
370
    -2
100
AcDbLine
 10
89.38191477945732
 20
19.9072872169186
 30
0.0
 11
83.41161486788107
 21
19.01174223018216
 31
0.0
  0
ARC
  5
BE
330
BB
100
AcDbEntity
  8
0
 62
     0
370
    -2
100
AcDbCircle
 10
90.0
 20
20.0
 30
0.0
 40
5.412092169036019
100
AcDbArc
 50
53.27275096348502
 51
161.8230658235411
  0
SOLID
  5
BF
330
BB
100
AcDbEntity
  8
0
 62
     0
100
AcDbTrace
 10
92.91690175172903
 20
24.07036884628063
 30
0.0
 11
93.5560296724635
 21
24.60512107430973
 31
0.0
 12
94.84072239618352
 22
22.42036119809176
 32
0.0
 13
94.84072239618352
 23
22.42036119809176
 33
0.0
  0
SOLID
  5
C0
330
BB
100
AcDbEntity
  8
0
 62
     0
100
AcDbTrace
 10
84.44279233260575
 20
21.72334850855735
 30
0.0
 11
85.27317488664006
 21
21.65328240833854
 31
0.0
 12
84.64778530896645
 22
19.19716779634497
 32
0.0
 13
84.64778530896645
 23
19.19716779634497
 33
0.0
  0
MTEXT
  5
C1
330
BB
100
AcDbEntity
  8
0
 62
     0
100
AcDbMText
 10
87.78497211492018
 20
27.00474252237364
 30
0.0
 40
2.5
 41
0.0
 46
0.0
 71
     5
 72
     1
  1
\A1;162%%d
 11
0.9534651794535194
 21
0.3015031534987124
 31
0.0
 73
     1
 44
1.0
  0
POINT
  5
C2
330
BB
100
AcDbEntity
  8
Defpoints
 62
     0
100
AcDbPoint
 10
90.88825679687739
 20
25.33870223078063
 30
0.0
  0
POINT
  5
C3
330
BB
100
AcDbEntity
  8
Defpoints
 62
     0
100
AcDbPoint
 10
90.0
 20
20.0
 30
0.0
  0
POINT
  5
C4
330
BB
100
AcDbEntity
  8
Defpoints
 62
     0
100
AcDbPoint
 10
70.0
 20
10.0
 30
0.0
  0
POINT
  5
C5
330
BB
100
AcDbEntity
  8
Defpoints
 62
     0
100
AcDbPoint
 10
90.0
 20
20.0
 30
0.0
  0
POINT
  5
C6
330
BB
100
AcDbEntity
  8
Defpoints
 62
     0
100
AcDbPoint
 10
110.0
 20
23.0
 30
0.0
  0
ENDBLK
  5
C8
330
BB
100
AcDbEntity
  8
0
100
AcDbBlockEnd
  0
BLOCK
  5
D6
330
C9
100
AcDbEntity
  8
0
100
AcDbBlockBegin
  2
*D6
 70
     1
 10
0.0
 20
0.0
 30
0.0
  3
*D6
  1

  0
LINE
  5
CA
330
C9
100
AcDbEntity
  8
0
 62
     0
370
    -2
100
AcDbLine
 10
110.6180852205427
 20
23.0927127830814
 30
0.0
 11
120.0753171556966
 21
24.51129757335448
 31
0.0
  0
LINE
  5
CB
330
C9
100
AcDbEntity
  8
0
 62
     0
370
    -2
100
AcDbLine
 10
90.55901699437494
 20
20.27950849718748
 30
0.0
 11
117.2011250916
 21
33.60056254580001
 31
0.0
  0
ARC
  5
CC
330
C9
100
AcDbEntity
  8
0
 62
     0
370
    -2
100
AcDbCircle
 10
90.0
 20
20.0
 30
0.0
 40
29.16178238464641
100
AcDbArc
 50
358.7039761017039
 51
3.617370855826057
  0
ARC
  5
CD
330
C9
100
AcDbEntity
  8
0
 62
     0
370
    -2
100
AcDbCircle
 10
90.0
 20
20.0
 30
0.0
 40
29.16178238464641
100
AcDbArc
 50
31.4784459312001
 51
36.39184068532221
  0
SOLID
  5
CE
330
C9
100
AcDbEntity
  8
0
 62
     0
100
AcDbTrace
 10
119.5180092592166
 20
21.88399634355869
 30
0.0
 11
118.6893543118434
 21
21.79581798658576
 31
0.0
 12
118.8391467146112
 22
24.32587200719168
 32
0.0
 13
118.8391467146112
 23
24.32587200719168
 33
0.0
  0
SOLID
  5
CF
330
C9
100
AcDbEntity
  8
0
 62
     0
100
AcDbTrace
 10
114.5058889864639
 20
35.02549227328478
 30
0.0
 11
115.2345853349798
 21
35.42977692066086
 31
0.0
 12
116.0830911028501
 22
33.04154555142506
 32
0.0
 13
116.0830911028501
 23
33.04154555142506
 33
0.0
  0
MTEXT
  5
D0
330
C9
100
AcDbEntity
  8
0
 62
     0
100
AcDbMText
 10
119.6492451657661
 20
29.37563437970381
 30
0.0
 40
2.5
 41
0.0
 46
0.0
 71
     5
 72
     1
  1
\A1;18%%d
 11
0.3015031534987105
 21
-0.9534651794535201
 31
0.0
 73
     1
 44
1.0
  0
POINT
  5
D1
330
C9
100
AcDbEntity
  8
Defpoints
 62
     0
100
AcDbPoint
 10
118.2275261113452
 20
27.32231667457775
 30
0.0
  0
POINT
  5
D2
330
C9
100
AcDbEntity
  8
Defpoints
 62
     0
100
AcDbPoint
 10
90.0
 20
20.0
 30
0.0
  0
POINT
  5
D3
330
C9
100
AcDbEntity
  8
Defpoints
 62
     0
100
AcDbPoint
 10
110.0
 20
23.0
 30
0.0
  0
POINT
  5
D4
330
C9
100
AcDbEntity
  8
Defpoints
 62
     0
100
AcDbPoint
 10
90.0
 20
20.0
 30
0.0
  0
POINT
  5
D5
330
C9
100
AcDbEntity
  8
Defpoints
 62
     0
100
AcDbPoint
 10
70.0
 20
10.0
 30
0.0
  0
ENDBLK
  5
D7
330
C9
100
AcDbEntity
  8
0
100
AcDbBlockEnd
  0
BLOCK
  5
E4
330
D8
100
AcDbEntity
  8
0
100
AcDbBlockBegin
  2
*D7
 70
     1
 10
0.0
 20
0.0
 30
0.0
  3
*D7
  1

  0
LINE
  5
D9
330
D8
100
AcDbEntity
  8
0
 62
     0
370
    -2
100
AcDbLine
 10
89.38191477945732
 20
19.9072872169186
 30
0.0
 11
66.96430591401422
 21
16.54464588710213
 31
0.0
  0
ARC
  5
DA
330
D8
100
AcDbEntity
  8
0
 62
     0
370
    -2
100
AcDbCircle
 10
90.0
 20
20.0
 30
0.0
 40
22.04340408932624
100
AcDbArc
 50
175.5276626033277
 51
182.0292141066379
  0
ARC
  5
DB
330
D8
100
AcDbEntity
  8
0
 62
     0
370
    -2
100
AcDbCircle
 10
90.0
 20
20.0
 30
0.0
 40
22.04340408932624
100
AcDbArc
 50
213.0666026803882
 51
219.5681541836984
  0
SOLID
  5
DC
330
D8
100
AcDbEntity
  8
0
 62
     0
100
AcDbTrace
 10
67.55552056771553
 20
19.18112084963192
 30
0.0
 11
68.38531798207153
 21
19.25780654303394
 31
0.0
 12
68.2004763550996
 22
16.73007145326494
 32
0.0
 13
68.2004763550996
 23
16.73007145326494
 33
0.0
  0
SOLID
  5
DD
330
D8
100
AcDbEntity
  8
0
 62
     0
100
AcDbTrace
 10
71.88832584203108
 20
8.179992002571025
 30
0.0
 11
71.16530239191106
 21
7.765647297016625
 31
0.0
 12
70.28378000030787
 22
10.14189000015394
 32
0.0
 13
70.28378000030787
 23
10.14189000015394
 33
0.0
  0
MTEXT
  5
DE
330
D8
100
AcDbEntity
  8
0
 62
     0
100
AcDbMText
 10
70.82688285540883
 20
13.93710918231154
 30
0.0
 40
2.5
 41
0.0
 46
0.0
 71
     5
 72
     1
  1
\A1;18%%d
 11
0.3015031534987104
 21
-0.9534651794535201
 31
0.0
 73
     1
 44
1.0
  0
POINT
  5
DF
330
D8
100
AcDbEntity
  8
Defpoints
 62
     0
100
AcDbPoint
 10
68.66280063724801
 20
14.46505761552111
 30
0.0
  0
POINT
  5
E0
330
D8
100
AcDbEntity
  8
Defpoints
 62
     0
100
AcDbPoint
 10
90.0
 20
20.0
 30
0.0
  0
POINT
  5
E1
330
D8
100
AcDbEntity
  8
Defpoints
 62
     0
100
AcDbPoint
 10
70.0
 20
10.0
 30
0.0
  0
POINT
  5
E2
330
D8
100
AcDbEntity
  8
Defpoints
 62
     0
100
AcDbPoint
 10
90.0
 20
20.0
 30
0.0
  0
POINT
  5
E3
330
D8
100
AcDbEntity
  8
Defpoints
 62
     0
100
AcDbPoint
 10
110.0
 20
23.0
 30
0.0
  0
ENDBLK
  5
E5
330
D8
100
AcDbEntity
  8
0
100
AcDbBlockEnd
  0
BLOCK
  5
F1
330
E6
100
AcDbEntity
  8
0
100
AcDbBlockBegin
  2
*D8
 70
     1
 10
0.0
 20
0.0
 30
0.0
  3
*D8
  1

  0
ARC
  5
E7
330
E6
100
AcDbEntity
  8
0
 62
     0
370
    -2
100
AcDbCircle
 10
90.0
 20
50.0
 30
0.0
 40
6.267461093114262
100
AcDbArc
 50
188.9904698313412
 51
211.9992248163913
  0
ARC
  5
E8
330
E6
100
AcDbEntity
  8
0
 62
     0
370
    -2
100
AcDbCircle
 10
90.0
 20
50.0
 30
0.0
 40
6.267461093114262
100
AcDbArc
 50
317.783895553882
 51
340.792650538932
  0
SOLID
  5
E9
330
E6
100
AcDbEntity
  8
0
 62
     0
100
AcDbTrace
 10
84.38262532986673
 20
46.39199013161524
 30
0.0
 11
84.98706790590475
 21
46.96565694843224
 31
0.0
 12
86.40584706833674
 22
44.86549581190964
 32
0.0
 13
86.40584706833674
 23
44.86549581190964
 33
0.0
  0
SOLID
  5
EA
330
E6
100
AcDbEntity
  8
0
 62
     0
100
AcDbTrace
 10
94.39522837802345
 20
46.12460409253132
 30
0.0
 11
94.88833257797289
 21
45.45282087419623
 31
0.0
 12
92.62643082299287
 22
44.30939988351545
 32
0.0
 13
92.62643082299287
 23
44.30939988351545
 33
0.0
  0
MTEXT
  5
EB
330
E6
100
AcDbEntity
  8
0
 62
     0
100
AcDbMText
 10
89.61419086504685
 20
45.68427331554524
 30
0.0
 40
2.5
 41
0.0
 46
0.0
 71
     5
 72
     1
  1
\A1;60%%d
 11
0.996027960247459
 21
-0.08904101529792996
 31
0.0
 73
     1
 44
1.0
  0
POINT
  5
EC
330
E6
100
AcDbEntity
  8
Defpoints
 62
     0
100
AcDbPoint
 10
88.37050541545949
 20
43.94807336853344
 30
0.0
  0
POINT
  5
ED
330
E6
100
AcDbEntity
  8
Defpoints
 62
     0
100
AcDbPoint
 10
90.0
 20
50.0
 30
0.0
  0
POINT
  5
EE
330
E6
100
AcDbEntity
  8
Defpoints
 62
     0
100
AcDbPoint
 10
90.0
 20
50.0
 30
0.0
  0
POINT
  5
EF
330
E6
100
AcDbEntity
  8
Defpoints
 62
     0
100
AcDbPoint
 10
95.88176180673949
 20
37.25618275206441
 30
0.0
  0
POINT
  5
F0
330
E6
100
AcDbEntity
  8
Defpoints
 62
     0
100
AcDbPoint
 10
81.95107243793753
 20
38.50153205419647
 30
0.0
  0
ENDBLK
  5
F2
330
E6
100
AcDbEntity
  8
0
100
AcDbBlockEnd
  0
BLOCK
  5
FF
330
F3
100
AcDbEntity
  8
0
100
AcDbBlockBegin
  2
*D9
 70
     1
 10
0.0
 20
0.0
 30
0.0
  3
*D9
  1

  0
LINE
  5
F4
330
F3
100
AcDbEntity
  8
0
 62
     0
370
    -2
100
AcDbLine
 10
81.59265847271044
 20
37.98951210387207
 30
0.0
 11
79.25584474948319
 21
34.651206784976
 31
0.0
  0
LINE
  5
F5
330
F3
100
AcDbEntity
  8
0
 62
     0
370
    -2
100
AcDbLine
 10
96.14367316765308
 20
36.68870813675163
 30
0.0
 11
97.85130211582825
 21
32.98884541570544
 31
0.0
  0
ARC
  5
F6
330
F3
100
AcDbEntity
  8
0
 62
     0
370
    -2
100
AcDbCircle
 10
90.0
 20
50.0
 30
0.0
 40
17.48558980135866
100
AcDbArc
 50
243.2068301080593
 51
286.5762902622139
  0
SOLID
  5
F7
330
F3
100
AcDbEntity
  8
0
 62
     0
100
AcDbTrace
 10
82.3319301653972
 20
34.74922550421868
 30
0.0
 11
81.90407153978116
 21
34.03411611333474
 31
0.0
 12
79.97267267993735
 22
35.6752466856248
 32
0.0
 13
79.97267267993735
 23
35.6752466856248
 33
0.0
  0
SOLID
  5
F8
330
F3
100
AcDbEntity
  8
0
 62
     0
100
AcDbTrace
 10
95.13561094973586
 20
32.85126809095168
 30
0.0
 11
94.84137900984338
 21
33.63092956235549
 31
0.0
 12
97.32747939400106
 22
34.12379464633101
 32
0.0
 13
97.32747939400106
 23
34.12379464633101
 33
0.0
  0
MTEXT
  5
F9
330
F3
100
AcDbEntity
  8
0
 62
     0
100
AcDbMText
 10
88.61531729512193
 20
34.51070346047911
 30
0.0
 40
2.5
 41
0.0
 46
0.0
 71
     5
 72
     1
  1
\A1;60%%d
 11
0.9960279602474591
 21
-0.08904101529792927
 31
0.0
 73
     1
 44
1.0
  0
POINT
  5
FA
330
F3
100
AcDbEntity
  8
Defpoints
 62
     0
100
AcDbPoint
 10
85.45387303319455
 20
33.11572979655139
 30
0.0
  0
POINT
  5
FB
330
F3
100
AcDbEntity
  8
Defpoints
 62
     0
100
AcDbPoint
 10
90.0
 20
50.0
 30
0.0
  0
POINT
  5
FC
330
F3
100
AcDbEntity
  8
Defpoints
 62
     0
100
AcDbPoint
 10
90.0
 20
50.0
 30
0.0
  0
POINT
  5
FD
330
F3
100
AcDbEntity
  8
Defpoints
 62
     0
100
AcDbPoint
 10
95.88176180673949
 20
37.25618275206441
 30
0.0
  0
POINT
  5
FE
330
F3
100
AcDbEntity
  8
Defpoints
 62
     0
100
AcDbPoint
 10
81.95107243793753
 20
38.50153205419647
 30
0.0
  0
ENDBLK
  5
100
330
F3
100
AcDbEntity
  8
0
100
AcDbBlockEnd
  0
BLOCK
  5
10C
330
101
100
AcDbEntity
  8
0
100
AcDbBlockBegin
  2
*D10
 70
     1
 10
0.0
 20
0.0
 30
0.0
  3
*D10
  1

  0
LINE
  5
102
330
101
100
AcDbEntity
  8
0
 62
     0
370
    -2
100
AcDbLine
 10
90.35841396522709
 20
50.5120199503244
 30
0.0
 11
96.45145137408744
 21
59.2163591058392
 31
0.0
  0
ARC
  5
103
330
101
100
AcDbEntity
  8
0
 62
     0
370
    -2
100
AcDbCircle
 10
90.0
 20
50.0
 30
0.0
 40
10.0
100
AcDbArc
 50
309.1366521317485
 51
40.64646823852476
  0
SOLID
  5
104
330
101
100
AcDbEntity
  8
0
 62
     0
100
AcDbTrace
 10
96.09119352244414
 20
42.59709518255375
 30
0.0
 11
96.5322487882562
 21
41.89004872230952
 31
0.0
 12
94.19058177461746
 22
40.92040615499548
 32
0.0
 13
94.19058177461746
 23
40.92040615499548
 33
0.0
  0
SOLID
  5
105
330
101
100
AcDbEntity
  8
0
 62
     0
100
AcDbTrace
 10
97.86716952710731
 20
56.822699435703
 30
0.0
 11
97.3076957595182
 21
56.20509636914318
 31
0.0
 12
95.73462344363328
 22
58.1923192051904
 32
0.0
 13
95.73462344363328
 23
58.1923192051904
 33
0.0
  0
MTEXT
  5
106
330
101
100
AcDbEntity
  8
0
 62
     0
100
AcDbMText
 10
98.03343979842444
 20
49.28184181113873
 30
0.0
 40
2.5
 41
0.0
 46
0.0
 71
     5
 72
     1
  1
\A1;120%%d
 11
0.08904101529792929
 21
0.996027960247459
 31
0.0
 73
     1
 44
1.0
  0
POINT
  5
107
330
101
100
AcDbEntity
  8
Defpoints
 62
     0
100
AcDbPoint
 10
99.05218694446492
 20
45.75053985517464
 30
0.0
  0
POINT
  5
108
330
101
100
AcDbEntity
  8
Defpoints
 62
     0
100
AcDbPoint
 10
90.0
 20
50.0
 30
0.0
  0
POINT
  5
109
330
101
100
AcDbEntity
  8
Defpoints
 62
     0
100
AcDbPoint
 10
90.0
 20
50.0
 30
0.0
  0
POINT
  5
10A
330
101
100
AcDbEntity
  8
Defpoints
 62
     0
100
AcDbPoint
 10
95.88176180673949
 20
37.25618275206441
 30
0.0
  0
POINT
  5
10B
330
101
100
AcDbEntity
  8
Defpoints
 62
     0
100
AcDbPoint
 10
81.95107243793753
 20
38.50153205419647
 30
0.0
  0
ENDBLK
  5
10D
330
101
100
AcDbEntity
  8
0
100
AcDbBlockEnd
  0
BLOCK
  5
119
330
10E
100
AcDbEntity
  8
0
100
AcDbBlockBegin
  2
*D11
 70
     1
 10
0.0
 20
0.0
 30
0.0
  3
*D11
  1

  0
LINE
  5
10F
330
10E
100
AcDbEntity
  8
0
 62
     0
370
    -2
100
AcDbLine
 10
89.73808863908641
 20
50.56747461531278
 30
0.0
 11
85.28559550355536
 21
60.21454307563009
 31
0.0
  0
ARC
  5
110
330
10E
100
AcDbEntity
  8
0
 62
     0
370
    -2
100
AcDbCircle
 10
90.0
 20
50.0
 30
0.0
 40
10.0
100
AcDbArc
 50
129.1366521317485
 51
220.6464682385248
  0
SOLID
  5
111
330
10E
100
AcDbEntity
  8
0
 62
     0
100
AcDbTrace
 10
83.90880647755586
 20
57.40290481744624
 30
0.0
 11
83.4677512117438
 21
58.10995127769048
 31
0.0
 12
85.80941822538254
 22
59.07959384500452
 32
0.0
 13
85.80941822538254
 23
59.07959384500452
 33
0.0
  0
SOLID
  5
112
330
10E
100
AcDbEntity
  8
0
 62
     0
100
AcDbTrace
 10
82.13283047289269
 20
43.177300564297
 30
0.0
 11
82.6923042404818
 21
43.79490363085682
 31
0.0
 12
84.26537655636672
 22
41.8076807948096
 32
0.0
 13
84.26537655636672
 23
41.8076807948096
 33
0.0
  0
MTEXT
  5
113
330
10E
100
AcDbEntity
  8
0
 62
     0
100
AcDbMText
 10
78.11288059347527
 20
51.06266211709732
 30
0.0
 40
2.5
 41
0.0
 46
0.0
 71
     5
 72
     1
  1
\A1;120%%d
 11
0.08904101529793
 21
0.996027960247459
 31
0.0
 73
     1
 44
1.0
  0
POINT
  5
114
330
10E
100
AcDbEntity
  8
Defpoints
 62
     0
100
AcDbPoint
 10
80.94781305553508
 20
54.24946014482536
 30
0.0
  0
POINT
  5
115
330
10E
100
AcDbEntity
  8
Defpoints
 62
     0
100
AcDbPoint
 10
90.0
 20
50.0
 30
0.0
  0
POINT
  5
116
330
10E
100
AcDbEntity
  8
Defpoints
 62
     0
100
AcDbPoint
 10
90.0
 20
50.0
 30
0.0
  0
POINT
  5
117
330
10E
100
AcDbEntity
  8
Defpoints
 62
     0
100
AcDbPoint
 10
95.88176180673949
 20
37.25618275206441
 30
0.0
  0
POINT
  5
118
330
10E
100
AcDbEntity
  8
Defpoints
 62
     0
100
AcDbPoint
 10
81.95107243793753
 20
38.50153205419647
 30
0.0
  0
ENDBLK
  5
11A
330
10E
100
AcDbEntity
  8
0
100
AcDbBlockEnd
  0
BLOCK
  5
127
330
11B
100
AcDbEntity
  8
0
100
AcDbBlockBegin
  2
*D12
 70
     1
 10
0.0
 20
0.0
 30
0.0
  3
*D12
  1

  0
LINE
  5
11C
330
11B
100
AcDbEntity
  8
0
 62
     0
370
    -2
100
AcDbLine
 10
90.35841396522709
 20
50.5120199503244
 30
0.0
 11
101.2273626398854
 21
66.03908948555056
 31
0.0
  0
LINE
  5
11D
330
11B
100
AcDbEntity
  8
0
 62
     0
370
    -2
100
AcDbLine
 10
89.73808863908641
 20
50.56747461531278
 30
0.0
 11
81.79559360467515
 21
67.77621385653721
 31
0.0
  0
ARC
  5
11E
330
11B
100
AcDbEntity
  8
0
 62
     0
370
    -2
100
AcDbCircle
 10
90.0
 20
50.0
 30
0.0
 40
18.32820378311025
100
AcDbArc
 50
62.82929860921558
 51
106.9538217610576
  0
SOLID
  5
11F
330
11B
100
AcDbEntity
  8
0
 62
     0
100
AcDbTrace
 10
98.15434087688651
 20
65.94883849819496
 30
0.0
 11
98.58455316403807
 21
66.66253439451793
 31
0.0
 12
100.5105347094312
 22
65.01504958490176
 32
0.0
 13
100.5105347094312
 23
65.01504958490176
 33
0.0
  0
SOLID
  5
120
330
11B
100
AcDbEntity
  8
0
 62
     0
100
AcDbTrace
 10
84.50708043735438
 20
67.92100555641323
 30
0.0
 11
84.80387943584938
 21
67.14231768638007
 31
0.0
 12
82.31941632650233
 22
66.64126462591165
 32
0.0
 13
82.31941632650233
 23
66.64126462591165
 33
0.0
  0
MTEXT
  5
121
330
11B
100
AcDbEntity
  8
0
 62
     0
100
AcDbMText
 10
91.8042138375535
 20
70.18224323314122
 30
0.0
 40
2.5
 41
0.0
 46
0.0
 71
     5
 72
     1
  1
\A1;60%%d
 11
0.996027960247459
 21
-0.08904101529792928
 31
0.0
 73
     1
 44
1.0
  0
POINT
  5
122
330
11B
100
AcDbEntity
  8
Defpoints
 62
     0
100
AcDbPoint
 10
94.765200511854
 20
67.69790716432438
 30
0.0
  0
POINT
  5
123
330
11B
100
AcDbEntity
  8
Defpoints
 62
     0
100
AcDbPoint
 10
90.0
 20
50.0
 30
0.0
  0
POINT
  5
124
330
11B
100
AcDbEntity
  8
Defpoints
 62
     0
100
AcDbPoint
 10
90.0
 20
50.0
 30
0.0
  0
POINT
  5
125
330
11B
100
AcDbEntity
  8
Defpoints
 62
     0
100
AcDbPoint
 10
95.88176180673949
 20
37.25618275206441
 30
0.0
  0
POINT
  5
126
330
11B
100
AcDbEntity
  8
Defpoints
 62
     0
100
AcDbPoint
 10
81.95107243793753
 20
38.50153205419647
 30
0.0
  0
ENDBLK
  5
128
330
11B
100
AcDbEntity
  8
0
100
AcDbBlockEnd
  0
BLOCK
  5
134
330
129
100
AcDbEntity
  8
0
100
AcDbBlockBegin
  2
*D13
 70
     1
 10
0.0
 20
0.0
 30
0.0
  3
*D13
  1

  0
ARC
  5
12A
330
129
100
AcDbEntity
  8
0
 62
     0
370
    -2
100
AcDbCircle
 10
20.0
 20
20.0
 30
0.0
 40
13.31174394856662
100
AcDbArc
 50
321.7482388950256
 51
332.524497330516
  0
ARC
  5
12B
330
129
100
AcDbEntity
  8
0
 62
     0
370
    -2
100
AcDbCircle
 10
20.0
 20
20.0
 30
0.0
 40
13.31174394856662
100
AcDbArc
 50
37.34130961256833
 51
48.11756804805868
  0
SOLID
  5
12C
330
129
100
AcDbEntity
  8
0
 62
     0
100
AcDbTrace
 10
32.19637621286115
 20
13.70169469700631
 30
0.0
 11
31.42419994724897
 21
14.01504475567819
 31
0.0
 12
32.75033825607071
 22
16.17489852317879
 32
0.0
 13
32.75033825607071
 23
16.17489852317879
 33
0.0
  0
SOLID
  5
12D
330
129
100
AcDbEntity
  8
0
 62
     0
100
AcDbTrace
 10
30.22978681504424
 20
27.85388409833028
 30
0.0
 11
30.93685418155691
 21
28.29490584797228
 31
0.0
 12
31.90638574722657
 22
25.95319287361328
 32
0.0
 13
31.90638574722657
 23
25.95319287361328
 33
0.0
  0
MTEXT
  5
12E
330
129
100
AcDbEntity
  8
0
 62
     0
100
AcDbMText
 10
35.18979678967001
 20
21.31101260097626
 30
0.0
 40
2.5
 41
0.0
 46
0.0
 71
     5
 72
     1
  1
\A1;43%%d
 11
0.08598908413375932
 21
-0.9962960791902361
 31
0.0
 73
     1
 44
1.0
  0
POINT
  5
12F
330
129
100
AcDbEntity
  8
Defpoints
 62
     0
100
AcDbPoint
 10
33.30122582153444
 20
19.47092666222391
 30
0.0
  0
POINT
  5
130
330
129
100
AcDbEntity
  8
Defpoints
 62
     0
100
AcDbPoint
 10
20.0
 20
20.0
 30
0.0
  0
POINT
  5
131
330
129
100
AcDbEntity
  8
Defpoints
 62
     0
100
AcDbPoint
 10
40.0
 20
30.0
 30
0.0
  0
POINT
  5
132
330
129
100
AcDbEntity
  8
Defpoints
 62
     0
100
AcDbPoint
 10
20.0
 20
20.0
 30
0.0
  0
POINT
  5
133
330
129
100
AcDbEntity
  8
Defpoints
 62
     0
100
AcDbPoint
 10
40.0
 20
14.0
 30
0.0
  0
ENDBLK
  5
135
330
129
100
AcDbEntity
  8
0
100
AcDbBlockEnd
  0
BLOCK
  5
141
330
136
100
AcDbEntity
  8
0
100
AcDbBlockBegin
  2
*D14
 70
     1
 10
0.0
 20
0.0
 30
0.0
  3
*D14
  1

  0
LINE
  5
137
330
136
100
AcDbEntity
  8
0
 62
     0
370
    -2
100
AcDbLine
 10
19.40135857173678
 20
20.17959242847897
 30
0.0
 11
8.486444731836738
 21
23.45406658044898
 31
0.0
  0
ARC
  5
138
330
136
100
AcDbEntity
  8
0
 62
     0
370
    -2
100
AcDbCircle
 10
20.0
 20
20.0
 30
0.0
 40
10.77050460069063
100
AcDbArc
 50
39.89432189459644
 51
149.9714850484879
  0
SOLID
  5
139
330
136
100
AcDbEntity
  8
0
 62
     0
100
AcDbTrace
 10
27.9149068846624
 20
26.67958536272091
 30
0.0
 11
28.61197396252014
 21
27.13624928007295
 31
0.0
 12
29.63343217564739
 22
24.81671608782369
 32
0.0
 13
29.63343217564739
 23
24.81671608782369
 33
0.0
  0
SOLID
  5
13A
330
136
100
AcDbEntity
  8
0
 62
     0
100
AcDbTrace
 10
10.29264868495874
 20
25.55513094038595
 30
0.0
 11
11.0576526960276
 21
25.22465657300928
 31
0.0
 12
9.683727588363178
 22
23.09488172349105
 32
0.0
 13
9.683727588363178
 23
23.09488172349105
 33
0.0
  0
MTEXT
  5
13B
330
136
100
AcDbEntity
  8
0
 62
     0
100
AcDbMText
 10
18.90750624311227
 20
32.6579699910972
 30
0.0
 40
2.5
 41
0.0
 46
0.0
 71
     5
 72
     1
  1
\A1;137%%d
 11
0.9962960791902362
 21
0.08598908413375962
 31
0.0
 73
     1
 44
1.0
  0
POINT
  5
13C
330
136
100
AcDbEntity
  8
Defpoints
 62
     0
100
AcDbPoint
 10
23.30258221090483
 20
30.25166913696072
 30
0.0
  0
POINT
  5
13D
330
136
100
AcDbEntity
  8
Defpoints
 62
     0
100
AcDbPoint
 10
20.0
 20
20.0
 30
0.0
  0
POINT
  5
13E
330
136
100
AcDbEntity
  8
Defpoints
 62
     0
100
AcDbPoint
 10
40.0
 20
30.0
 30
0.0
  0
POINT
  5
13F
330
136
100
AcDbEntity
  8
Defpoints
 62
     0
100
AcDbPoint
 10
20.0
 20
20.0
 30
0.0
  0
POINT
  5
140
330
136
100
AcDbEntity
  8
Defpoints
 62
     0
100
AcDbPoint
 10
40.0
 20
14.0
 30
0.0
  0
ENDBLK
  5
142
330
136
100
AcDbEntity
  8
0
100
AcDbBlockEnd
  0
BLOCK
  5
14E
330
143
100
AcDbEntity
  8
0
100
AcDbBlockBegin
  2
*D15
 70
     1
 10
0.0
 20
0.0
 30
0.0
  3
*D15
  1

  0
LINE
  5
144
330
143
100
AcDbEntity
  8
0
 62
     0
370
    -2
100
AcDbLine
 10
19.44098300562505
 20
19.72049150281252
 30
0.0
 11
9.061123111007458
 21
14.53056155550373
 31
0.0
  0
ARC
  5
145
330
143
100
AcDbEntity
  8
0
 62
     0
370
    -2
100
AcDbCircle
 10
20.0
 20
20.0
 30
0.0
 40
10.98003616064437
100
AcDbArc
 50
219.6388396177061
 51
330.2269673253782
  0
SOLID
  5
146
330
143
100
AcDbEntity
  8
0
 62
     0
100
AcDbTrace
 10
11.8935248495737
 20
13.22288244994683
 30
0.0
 11
11.19544137122735
 21
12.76777377973244
 31
0.0
 12
10.17915709975735
 22
15.08957854987868
 32
0.0
 13
10.17915709975735
 23
15.08957854987868
 33
0.0
  0
SOLID
  5
147
330
143
100
AcDbEntity
  8
0
 62
     0
100
AcDbTrace
 10
29.91353279371323
 20
14.38330913289748
 30
0.0
 11
29.14779389080699
 21
14.71207710125875
 31
0.0
 12
30.51696724734391
 22
16.84490982579683
 32
0.0
 13
30.51696724734391
 23
16.84490982579683
 33
0.0
  0
MTEXT
  5
148
330
143
100
AcDbEntity
  8
0
 62
     0
100
AcDbMText
 10
20.77781532259347
 20
10.98799151031173
 30
0.0
 40
2.5
 41
0.0
 46
0.0
 71
     5
 72
     1
  1
\A1;137%%d
 11
0.9962960791902361
 21
0.08598908413375925
 31
0.0
 73
     1
 44
1.0
  0
POINT
  5
149
330
143
100
AcDbEntity
  8
Defpoints
 62
     0
100
AcDbPoint
 10
16.63316869138047
 20
9.548892832414488
 30
0.0
  0
POINT
  5
14A
330
143
100
AcDbEntity
  8
Defpoints
 62
     0
100
AcDbPoint
 10
20.0
 20
20.0
 30
0.0
  0
POINT
  5
14B
330
143
100
AcDbEntity
  8
Defpoints
 62
     0
100
AcDbPoint
 10
40.0
 20
30.0
 30
0.0
  0
POINT
  5
14C
330
143
100
AcDbEntity
  8
Defpoints
 62
     0
100
AcDbPoint
 10
20.0
 20
20.0
 30
0.0
  0
POINT
  5
14D
330
143
100
AcDbEntity
  8
Defpoints
 62
     0
100
AcDbPoint
 10
40.0
 20
14.0
 30
0.0
  0
ENDBLK
  5
14F
330
143
100
AcDbEntity
  8
0
100
AcDbBlockEnd
  0
BLOCK
  5
15C
330
150
100
AcDbEntity
  8
0
100
AcDbBlockBegin
  2
*D16
 70
     1
 10
0.0
 20
0.0
 30
0.0
  3
*D16
  1

  0
LINE
  5
151
330
150
100
AcDbEntity
  8
0
 62
     0
370
    -2
100
AcDbLine
 10
19.40135857173678
 20
20.17959242847897
 30
0.0
 11
3.026982961046804
 21
25.09190511168596
 31
0.0
  0
LINE
  5
152
330
150
100
AcDbEntity
  8
0
 62
     0
370
    -2
100
AcDbLine
 10
19.44098300562505
 20
19.72049150281252
 30
0.0
 11
4.15043710202684
 21
12.07521855101342
 31
0.0
  0
ARC
  5
153
330
150
100
AcDbEntity
  8
0
 62
     0
370
    -2
100
AcDbCircle
 10
20.0
 20
20.0
 30
0.0
 40
16.47035002676327
100
AcDbArc
 50
172.005932856362
 51
197.8598740867223
  0
SOLID
  5
154
330
150
100
AcDbEntity
  8
0
 62
     0
100
AcDbTrace
 10
4.096730928114595
 20
22.20144666953778
 30
0.0
 11
3.282671110726334
 21
22.3796349355887
 31
0.0
 12
4.224265817573244
 22
24.73272025472803
 32
0.0
 13
4.224265817573244
 23
24.73272025472803
 33
0.0
  0
SOLID
  5
155
330
150
100
AcDbEntity
  8
0
 62
     0
100
AcDbTrace
 10
3.937620514443929
 20
14.79118891868732
 30
0.0
 11
4.709110828829147
 21
15.10622405840072
 31
0.0
 12
5.268471090776735
 22
12.63423554538837
 32
0.0
 13
5.268471090776735
 23
12.63423554538837
 33
0.0
  0
MTEXT
  5
156
330
150
100
AcDbEntity
  8
0
 62
     0
100
AcDbMText
 10
5.51801333197368
 20
18.75007761645209
 30
0.0
 40
2.5
 41
0.0
 46
0.0
 71
     5
 72
     1
  1
\A1;43%%d
 11
0.08598908413375943
 21
-0.9962960791902362
 31
0.0
 73
     1
 44
1.0
  0
POINT
  5
157
330
150
100
AcDbEntity
  8
Defpoints
 62
     0
100
AcDbPoint
 10
3.542663837875002
 20
20.65461167948161
 30
0.0
  0
POINT
  5
158
330
150
100
AcDbEntity
  8
Defpoints
 62
     0
100
AcDbPoint
 10
20.0
 20
20.0
 30
0.0
  0
POINT
  5
159
330
150
100
AcDbEntity
  8
Defpoints
 62
     0
100
AcDbPoint
 10
40.0
 20
30.0
 30
0.0
  0
POINT
  5
15A
330
150
100
AcDbEntity
  8
Defpoints
 62
     0
100
AcDbPoint
 10
20.0
 20
20.0
 30
0.0
  0
POINT
  5
15B
330
150
100
AcDbEntity
  8
Defpoints
 62
     0
100
AcDbPoint
 10
40.0
 20
14.0
 30
0.0
  0
ENDBLK
  5
15D
330
150
100
AcDbEntity
  8
0
100
AcDbBlockEnd
  0
BLOCK
  5
16A
330
15E
100
AcDbEntity
  8
0
100
AcDbBlockBegin
  2
*D17
 70
     1
 10
0.0
 20
0.0
 30
0.0
  3
*D17
  1

  0
LINE
  5
15F
330
15E
100
AcDbEntity
  8
0
 62
     0
370
    -2
100
AcDbLine
 10
33.74300457899391
 20
44.9979554038621
 30
0.0
 11
42.22234684429734
 21
41.9117272131363
 31
0.0
  0
LINE
  5
160
330
15E
100
AcDbEntity
  8
0
 62
     0
370
    -2
100
AcDbLine
 10
31.9800986477265
 20
58.38855538163405
 30
0.0
 11
39.3717396984354
 21
63.56423816508075
 31
0.0
  0
ARC
  5
161
330
15E
100
AcDbEntity
  8
0
 62
     0
370
    -2
100
AcDbCircle
 10
20.0
 20
50.0
 30
0.0
 40
22.39852756395145
100
AcDbArc
 50
346.398362782603
 51
28.60163721739701
  0
SOLID
  5
162
330
15E
100
AcDbEntity
  8
0
 62
     0
100
AcDbTrace
 10
41.37146335136116
 20
44.8529764264755
 30
0.0
 11
42.16922615795827
 21
44.61210519769391
 31
0.0
 12
41.04773106831495
 22
42.33925239229339
 32
0.0
 13
41.04773106831495
 23
42.33925239229339
 33
0.0
  0
SOLID
  5
163
330
15E
100
AcDbEntity
  8
0
 62
     0
100
AcDbTrace
 10
40.01933830696937
 20
60.94212468374067
 30
0.0
 11
39.31110067025029
 21
60.50298473522878
 31
0.0
 12
38.34779964307416
 22
62.84726761964195
 32
0.0
 13
38.34779964307416
 23
62.84726761964195
 33
0.0
  0
MTEXT
  5
164
330
15E
100
AcDbEntity
  8
0
 62
     0
100
AcDbMText
 10
44.12487874577699
 20
53.17610054087463
 30
0.0
 40
2.5
 41
0.0
 46
0.0
 71
     5
 72
     1
  1
\A1;55%%d
 11
0.1305261922200517
 21
-0.9914448613738105
 31
0.0
 73
     1
 44
1.0
  0
POINT
  5
165
330
15E
100
AcDbEntity
  8
Defpoints
 62
     0
100
AcDbPoint
 10
42.38905186870669
 20
49.34854512554265
 30
0.0
  0
POINT
  5
166
330
15E
100
AcDbEntity
  8
Defpoints
 62
     0
100
AcDbPoint
 10
20.0
 20
50.0
 30
0.0
  0
POINT
  5
167
330
15E
100
AcDbEntity
  8
Defpoints
 62
     0
100
AcDbPoint
 10
20.0
 20
50.0
 30
0.0
  0
POINT
  5
168
330
15E
100
AcDbEntity
  8
Defpoints
 62
     0
100
AcDbPoint
 10
33.15569669100272
 20
45.21171799344064
 30
0.0
  0
POINT
  5
169
330
15E
100
AcDbEntity
  8
Defpoints
 62
     0
100
AcDbPoint
 10
31.46812862004588
 20
58.03007010891464
 30
0.0
  0
ENDBLK
  5
16B
330
15E
100
AcDbEntity
  8
0
100
AcDbBlockEnd
  0
BLOCK
  5
177
330
16C
100
AcDbEntity
  8
0
100
AcDbBlockBegin
  2
*D18
 70
     1
 10
0.0
 20
0.0
 30
0.0
  3
*D18
  1

  0
ARC
  5
16D
330
16C
100
AcDbEntity
  8
0
 62
     0
370
    -2
100
AcDbCircle
 10
20.0
 20
50.0
 30
0.0
 40
7.923806194168114
100
AcDbArc
 50
303.6941377938417
 51
321.8470688969208
  0
ARC
  5
16E
330
16C
100
AcDbEntity
  8
0
 62
     0
370
    -2
100
AcDbCircle
 10
20.0
 20
50.0
 30
0.0
 40
7.923806194168114
100
AcDbArc
 50
53.15293110307917
 51
71.30586220615835
  0
SOLID
  5
16F
330
16C
100
AcDbEntity
  8
0
 62
     0
100
AcDbTrace
 10
26.59515608731431
 20
44.90247870548917
 30
0.0
 11
25.86684615953611
 21
45.30745906741324
 31
0.0
 12
27.44594220919745
 22
47.2898986697858
 32
0.0
 13
27.44594220919745
 23
47.2898986697858
 33
0.0
  0
SOLID
  5
170
330
16C
100
AcDbEntity
  8
0
 62
     0
100
AcDbTrace
 10
24.45241926108417
 20
56.05109799847866
 30
0.0
 11
25.05109599930939
 21
56.63077946924727
 31
0.0
 12
26.49080204250259
 22
54.54490851918729
 32
0.0
 13
26.49080204250259
 23
54.54490851918729
 33
0.0
  0
MTEXT
  5
171
330
16C
100
AcDbEntity
  8
0
 62
     0
100
AcDbMText
 10
29.77399062388762
 20
51.2867702770306
 30
0.0
 40
2.5
 41
0.0
 46
0.0
 71
     5
 72
     1
  1
\A1;55%%d
 11
0.1305261922200517
 21
-0.9914448613738105
 31
0.0
 73
     1
 44
1.0
  0
POINT
  5
172
330
16C
100
AcDbEntity
  8
Defpoints
 62
     0
100
AcDbPoint
 10
27.92045402860901
 20
49.7695383254677
 30
0.0
  0
POINT
  5
173
330
16C
100
AcDbEntity
  8
Defpoints
 62
     0
100
AcDbPoint
 10
20.0
 20
50.0
 30
0.0
  0
POINT
  5
174
330
16C
100
AcDbEntity
  8
Defpoints
 62
     0
100
AcDbPoint
 10
20.0
 20
50.0
 30
0.0
  0
POINT
  5
175
330
16C
100
AcDbEntity
  8
Defpoints
 62
     0
100
AcDbPoint
 10
33.15569669100272
 20
45.21171799344064
 30
0.0
  0
POINT
  5
176
330
16C
100
AcDbEntity
  8
Defpoints
 62
     0
100
AcDbPoint
 10
31.46812862004588
 20
58.03007010891464
 30
0.0
  0
ENDBLK
  5
178
330
16C
100
AcDbEntity
  8
0
100
AcDbBlockEnd
  0
ENDSEC
  0
SECTION
  2
ENTITIES
  0
DIMENSION
  5
25
330
4F
100
AcDbEntity
  8
0
100
AcDbDimension
280
     0
  2
*D1
 10
31.46812862004588
 20
58.03007010891464
 30
0.0
 11
17.62454640401087
 21
68.04336142132216
 31
0.0
 70
    34
 71
     5
 42
2.181661564992913
 73
     0
 74
     0
 75
     0
  3
QCADDimStyle
100
AcDb2LineAngularDimension
 13
20.0
 23
50.0
 33
0.0
 14
33.15569669100272
 24
45.21171799344064
 34
0.0
 15
20.0
 25
50.0
 35
0.0
 16
23.75085945528932
 26
65.82612047247726
 36
0.0
1001
ACAD
1000
DSTYLE
1002
{
1070
   279
1070
     2
1070
    41
1040
2.5
1070
    79
1070
     3
1070
   176
1070
     0
1070
   177
1070
     0
1070
   178
1070
     0
1070
    44
1040
1.25
1070
    42
1040
0.625
1070
   147
1040
0.625
1070
   140
1040
2.5
1070
    78
1070
     8
1002
}
  0
DIMENSION
  5
26
330
4F
100
AcDbEntity
  8
0
100
AcDbDimension
280
     0
  2
*D2
 10
31.46812862004588
 20
58.03007010891464
 30
0.0
 11
21.14423603476819
 21
41.30866443298122
 31
0.0
 70
    34
 71
     5
 42
2.181661564992913
 73
     0
 74
     0
 75
     0
  3
QCADDimStyle
100
AcDb2LineAngularDimension
 13
20.0
 23
50.0
 33
0.0
 14
33.15569669100272
 24
45.21171799344064
 34
0.0
 15
20.0
 25
50.0
 35
0.0
 16
17.53221264475636
 26
39.58758640517245
 36
0.0
1001
ACAD
1000
DSTYLE
1002
{
1070
   279
1070
     2
1070
    41
1040
2.5
1070
    79
1070
     3
1070
   176
1070
     0
1070
   177
1070
     0
1070
   178
1070
     0
1070
    44
1040
1.25
1070
    42
1040
0.625
1070
   147
1040
0.625
1070
   140
1040
2.5
1070
    78
1070
     8
1002
}
  0
DIMENSION
  5
27
330
4F
100
AcDbEntity
  8
0
100
AcDbDimension
280
     0
  2
*D3
 10
31.46812862004588
 20
58.03007010891464
 30
0.0
 11
0.6440670429444073
 21
47.45174308306945
 31
0.0
 70
    34
 71
     5
 42
0.9599310885968808
 73
     0
 74
     0
 75
     0
  3
QCADDimStyle
100
AcDb2LineAngularDimension
 13
20.0
 23
50.0
 33
0.0
 14
33.15569669100272
 24
45.21171799344064
 34
0.0
 15
20.0
 25
50.0
 35
0.0
 16
-1.448400764606163
 26
50.62408472271875
 36
0.0
1001
ACAD
1000
DSTYLE
1002
{
1070
   279
1070
     2
1070
    41
1040
2.5
1070
    79
1070
     3
1070
   176
1070
     0
1070
   177
1070
     0
1070
   178
1070
     0
1070
    44
1040
1.25
1070
    42
1040
0.625
1070
   147
1040
0.625
1070
   140
1040
2.5
1070
    78
1070
     8
1002
}
  0
DIMENSION
  5
28
330
4F
100
AcDbEntity
  8
0
100
AcDbDimension
280
     0
  2
*D4
 10
110.0
 20
23.0
 30
0.0
 11
93.91795377779115
 21
7.609972040149102
 31
0.0
 70
    34
 71
     5
 42
2.826834992198485
 73
     0
 74
     0
 75
     0
  3
QCADDimStyle
100
AcDb2LineAngularDimension
 13
70.0
 23
10.0
 33
0.0
 14
90.0
 24
20.0
 34
0.0
 15
90.0
 25
20.0
 35
0.0
 16
87.54974309853469
 26
5.273186727279167
 36
0.0
1001
ACAD
1000
DSTYLE
1002
{
1070
   279
1070
     2
1070
    41
1040
2.5
1070
    79
1070
     3
1070
   176
1070
     0
1070
   177
1070
     0
1070
   178
1070
     0
1070
    44
1040
1.25
1070
    42
1040
0.625
1070
   147
1040
0.625
1070
   140
1040
2.5
1070
    78
1070
     8
1002
}
  0
DIMENSION
  5
29
330
4F
100
AcDbEntity
  8
0
100
AcDbDimension
280
     0
  2
*D5
 10
110.0
 20
23.0
 30
0.0
 11
87.78497211492018
 21
27.00474252237364
 31
0.0
 70
    34
 71
     5
 42
2.826834992198485
 73
     0
 74
     0
 75
     0
  3
QCADDimStyle
100
AcDb2LineAngularDimension
 13
70.0
 23
10.0
 33
0.0
 14
90.0
 24
20.0
 34
0.0
 15
90.0
 25
20.0
 35
0.0
 16
90.88825679687739
 26
25.33870223078063
 36
0.0
1001
ACAD
1000
DSTYLE
1002
{
1070
   279
1070
     2
1070
    41
1040
2.5
1070
    79
1070
     3
1070
   176
1070
     0
1070
   177
1070
     0
1070
   178
1070
     0
1070
    44
1040
1.25
1070
    42
1040
0.625
1070
   147
1040
0.625
1070
   140
1040
2.5
1070
    78
1070
     8
1002
}
  0
DIMENSION
  5
2A
330
4F
100
AcDbEntity
  8
0
100
AcDbDimension
280
     0
  2
*D6
 10
70.0
 20
10.0
 30
0.0
 11
119.6492451657661
 21
29.37563437970381
 31
0.0
 70
    34
 71
     5
 42
0.3147576613913088
 73
     0
 74
     0
 75
     0
  3
QCADDimStyle
100
AcDb2LineAngularDimension
 13
110.0
 23
23.0
 33
0.0
 14
90.0
 24
20.0
 34
0.0
 15
90.0
 25
20.0
 35
0.0
 16
118.2275261113452
 26
27.32231667457775
 36
0.0
1001
ACAD
1000
DSTYLE
1002
{
1070
   279
1070
     2
1070
    41
1040
2.5
1070
    79
1070
     3
1070
   176
1070
     0
1070
   177
1070
     0
1070
   178
1070
     0
1070
    44
1040
1.25
1070
    42
1040
0.625
1070
   147
1040
0.625
1070
   140
1040
2.5
1070
    78
1070
     8
1002
}
  0
DIMENSION
  5
2B
330
4F
100
AcDbEntity
  8
0
100
AcDbDimension
280
     0
  2
*D7
 10
110.0
 20
23.0
 30
0.0
 11
70.82688285540883
 21
13.93710918231154
 31
0.0
 70
    34
 71
     5
 42
0.3147576613913088
 73
     0
 74
     0
 75
     0
  3
QCADDimStyle
100
AcDb2LineAngularDimension
 13
70.0
 23
10.0
 33
0.0
 14
90.0
 24
20.0
 34
0.0
 15
90.0
 25
20.0
 35
0.0
 16
68.66280063724801
 26
14.46505761552111
 36
0.0
1001
ACAD
1000
DSTYLE
1002
{
1070
   279
1070
     2
1070
    41
1040
2.5
1070
    79
1070
     3
1070
   176
1070
     0
1070
   177
1070
     0
1070
   178
1070
     0
1070
    44
1040
1.25
1070
    42
1040
0.625
1070
   147
1040
0.625
1070
   140
1040
2.5
1070
    78
1070
     8
1002
}
  0
DIMENSION
  5
2C
330
4F
100
AcDbEntity
  8
0
100
AcDbDimension
280
     0
  2
*D8
 10
81.95107243793753
 20
38.50153205419647
 30
0.0
 11
89.61419086504685
 21
45.68427331554524
 31
0.0
 70
    34
 71
     5
 42
1.043133739959746
 73
     0
 74
     0
 75
     0
  3
QCADDimStyle
100
AcDb2LineAngularDimension
 13
90.0
 23
50.0
 33
0.0
 14
95.88176180673949
 24
37.25618275206441
 34
0.0
 15
90.0
 25
50.0
 35
0.0
 16
88.37050541545949
 26
43.94807336853344
 36
0.0
1001
ACAD
1000
DSTYLE
1002
{
1070
   279
1070
     2
1070
    41
1040
2.5
1070
    79
1070
     3
1070
   176
1070
     0
1070
   177
1070
     0
1070
   178
1070
     0
1070
    44
1040
1.25
1070
    42
1040
0.625
1070
   147
1040
0.625
1070
   140
1040
2.5
1070
    78
1070
     8
1002
}
  0
DIMENSION
  5
2D
330
4F
100
AcDbEntity
  8
0
100
AcDbDimension
280
     0
  2
*D9
 10
81.95107243793753
 20
38.50153205419647
 30
0.0
 11
88.61531729512193
 21
34.51070346047911
 31
0.0
 70
    34
 71
     5
 42
1.043133739959746
 73
     0
 74
     0
 75
     0
  3
QCADDimStyle
100
AcDb2LineAngularDimension
 13
90.0
 23
50.0
 33
0.0
 14
95.88176180673949
 24
37.25618275206441
 34
0.0
 15
90.0
 25
50.0
 35
0.0
 16
85.45387303319455
 26
33.11572979655139
 36
0.0
1001
ACAD
1000
DSTYLE
1002
{
1070
   279
1070
     2
1070
    41
1040
2.5
1070
    79
1070
     3
1070
   176
1070
     0
1070
   177
1070
     0
1070
   178
1070
     0
1070
    44
1040
1.25
1070
    42
1040
0.625
1070
   147
1040
0.625
1070
   140
1040
2.5
1070
    78
1070
     8
1002
}
  0
DIMENSION
  5
2E
330
4F
100
AcDbEntity
  8
0
100
AcDbDimension
280
     0
  2
*D10
 10
81.95107243793753
 20
38.50153205419647
 30
0.0
 11
98.03343979842444
 21
49.28184181113873
 31
0.0
 70
    34
 71
     5
 42
2.098458913630047
 73
     0
 74
     0
 75
     0
  3
QCADDimStyle
100
AcDb2LineAngularDimension
 13
90.0
 23
50.0
 33
0.0
 14
95.88176180673949
 24
37.25618275206441
 34
0.0
 15
90.0
 25
50.0
 35
0.0
 16
99.05218694446492
 26
45.75053985517464
 36
0.0
1001
ACAD
1000
DSTYLE
1002
{
1070
   279
1070
     2
1070
    41
1040
2.5
1070
    79
1070
     3
1070
   176
1070
     0
1070
   177
1070
     0
1070
   178
1070
     0
1070
    44
1040
1.25
1070
    42
1040
0.625
1070
   147
1040
0.625
1070
   140
1040
2.5
1070
    78
1070
     8
1002
}
  0
DIMENSION
  5
2F
330
4F
100
AcDbEntity
  8
0
100
AcDbDimension
280
     0
  2
*D11
 10
81.95107243793753
 20
38.50153205419647
 30
0.0
 11
78.11288059347527
 21
51.06266211709732
 31
0.0
 70
    34
 71
     5
 42
2.098458913630047
 73
     0
 74
     0
 75
     0
  3
QCADDimStyle
100
AcDb2LineAngularDimension
 13
90.0
 23
50.0
 33
0.0
 14
95.88176180673949
 24
37.25618275206441
 34
0.0
 15
90.0
 25
50.0
 35
0.0
 16
80.94781305553508
 26
54.24946014482536
 36
0.0
1001
ACAD
1000
DSTYLE
1002
{
1070
   279
1070
     2
1070
    41
1040
2.5
1070
    79
1070
     3
1070
   176
1070
     0
1070
   177
1070
     0
1070
   178
1070
     0
1070
    44
1040
1.25
1070
    42
1040
0.625
1070
   147
1040
0.625
1070
   140
1040
2.5
1070
    78
1070
     8
1002
}
  0
DIMENSION
  5
30
330
4F
100
AcDbEntity
  8
0
100
AcDbDimension
280
     0
  2
*D12
 10
81.95107243793753
 20
38.50153205419647
 30
0.0
 11
91.8042138375535
 21
70.18224323314122
 31
0.0
 70
    34
 71
     5
 42
1.043133739959746
 73
     0
 74
     0
 75
     0
  3
QCADDimStyle
100
AcDb2LineAngularDimension
 13
90.0
 23
50.0
 33
0.0
 14
95.88176180673949
 24
37.25618275206441
 34
0.0
 15
90.0
 25
50.0
 35
0.0
 16
94.765200511854
 26
67.69790716432438
 36
0.0
1001
ACAD
1000
DSTYLE
1002
{
1070
   279
1070
     2
1070
    41
1040
2.5
1070
    79
1070
     3
1070
   176
1070
     0
1070
   177
1070
     0
1070
   178
1070
     0
1070
    44
1040
1.25
1070
    42
1040
0.625
1070
   147
1040
0.625
1070
   140
1040
2.5
1070
    78
1070
     8
1002
}
  0
LINE
  5
19
330
4F
100
AcDbEntity
  8
0
 62
     1
420
 16711680
370
    70
100
AcDbLine
 10
20.0
 20
20.0
 30
0.0
 11
40.0
 21
30.0
 31
0.0
  0
LINE
  5
1A
330
4F
100
AcDbEntity
  8
0
 62
     1
420
 16711680
370
    70
100
AcDbLine
 10
20.0
 20
20.0
 30
0.0
 11
40.0
 21
14.0
 31
0.0
  0
LINE
  5
1B
330
4F
100
AcDbEntity
  8
0
 62
     1
420
 16711680
370
    70
100
AcDbLine
 10
90.0
 20
20.0
 30
0.0
 11
110.0
 21
23.0
 31
0.0
  0
LINE
  5
1C
330
4F
100
AcDbEntity
  8
0
 62
     1
420
 16711680
370
    70
100
AcDbLine
 10
90.0
 20
20.0
 30
0.0
 11
70.0
 21
10.0
 31
0.0
  0
ARC
  5
1D
330
4F
100
AcDbEntity
  8
0
 62
     1
420
 16711680
370
    70
100
AcDbCircle
 10
90.0
 20
50.0
 30
0.0
 40
14.0356688476182
100
AcDbArc
 50
294.7751405688319
 51
235.0079798014413
  0
ARC
  5
1E
330
4F
100
AcDbEntity
  8
0
 62
     1
420
 16711680
370
    70
100
AcDbCircle
 10
20.0
 20
50.0
 30
0.0
 40
14.0
100
AcDbArc
 50
340.0000000000001
 51
35.0
  0
DIMENSION
  5
1F
330
4F
100
AcDbEntity
  8
0
100
AcDbDimension
280
     0
  2
*D13
 10
40.0
 20
14.0
 30
0.0
 11
35.18979678967001
 21
21.31101260097626
 31
0.0
 70
    34
 71
     5
 42
0.7551044034786732
 73
     0
 74
     0
 75
     0
  3
QCADDimStyle
100
AcDb2LineAngularDimension
 13
40.0
 23
30.0
 33
0.0
 14
20.0
 24
20.0
 34
0.0
 15
20.0
 25
20.0
 35
0.0
 16
33.30122582153444
 26
19.47092666222391
 36
0.0
1001
ACAD
1000
DSTYLE
1002
{
1070
   279
1070
     2
1070
    41
1040
2.5
1070
    79
1070
     3
1070
   176
1070
     0
1070
   177
1070
     0
1070
   178
1070
     0
1070
    44
1040
1.25
1070
    42
1040
0.625
1070
   147
1040
0.625
1070
   140
1040
2.5
1070
    78
1070
     8
1002
}
  0
DIMENSION
  5
20
330
4F
100
AcDbEntity
  8
0
100
AcDbDimension
280
     0
  2
*D14
 10
40.0
 20
14.0
 30
0.0
 11
18.90750624311227
 21
32.6579699910972
 31
0.0
 70
    34
 71
     5
 42
2.38648825011112
 73
     0
 74
     0
 75
     0
  3
QCADDimStyle
100
AcDb2LineAngularDimension
 13
40.0
 23
30.0
 33
0.0
 14
20.0
 24
20.0
 34
0.0
 15
20.0
 25
20.0
 35
0.0
 16
23.30258221090483
 26
30.25166913696072
 36
0.0
1001
ACAD
1000
DSTYLE
1002
{
1070
   279
1070
     2
1070
    41
1040
2.5
1070
    79
1070
     3
1070
   176
1070
     0
1070
   177
1070
     0
1070
   178
1070
     0
1070
    44
1040
1.25
1070
    42
1040
0.625
1070
   147
1040
0.625
1070
   140
1040
2.5
1070
    78
1070
     8
1002
}
  0
DIMENSION
  5
21
330
4F
100
AcDbEntity
  8
0
100
AcDbDimension
280
     0
  2
*D15
 10
40.0
 20
14.0
 30
0.0
 11
20.77781532259347
 21
10.98799151031173
 31
0.0
 70
    34
 71
     5
 42
2.38648825011112
 73
     0
 74
     0
 75
     0
  3
QCADDimStyle
100
AcDb2LineAngularDimension
 13
40.0
 23
30.0
 33
0.0
 14
20.0
 24
20.0
 34
0.0
 15
20.0
 25
20.0
 35
0.0
 16
16.63316869138047
 26
9.548892832414488
 36
0.0
1001
ACAD
1000
DSTYLE
1002
{
1070
   279
1070
     2
1070
    41
1040
2.5
1070
    79
1070
     3
1070
   176
1070
     0
1070
   177
1070
     0
1070
   178
1070
     0
1070
    44
1040
1.25
1070
    42
1040
0.625
1070
   147
1040
0.625
1070
   140
1040
2.5
1070
    78
1070
     8
1002
}
  0
DIMENSION
  5
22
330
4F
100
AcDbEntity
  8
0
100
AcDbDimension
280
     0
  2
*D16
 10
40.0
 20
14.0
 30
0.0
 11
5.51801333197368
 21
18.75007761645209
 31
0.0
 70
    34
 71
     5
 42
0.7551044034786732
 73
     0
 74
     0
 75
     0
  3
QCADDimStyle
100
AcDb2LineAngularDimension
 13
40.0
 23
30.0
 33
0.0
 14
20.0
 24
20.0
 34
0.0
 15
20.0
 25
20.0
 35
0.0
 16
3.542663837875002
 26
20.65461167948161
 36
0.0
1001
ACAD
1000
DSTYLE
1002
{
1070
   279
1070
     2
1070
    41
1040
2.5
1070
    79
1070
     3
1070
   176
1070
     0
1070
   177
1070
     0
1070
   178
1070
     0
1070
    44
1040
1.25
1070
    42
1040
0.625
1070
   147
1040
0.625
1070
   140
1040
2.5
1070
    78
1070
     8
1002
}
  0
DIMENSION
  5
23
330
4F
100
AcDbEntity
  8
0
100
AcDbDimension
280
     0
  2
*D17
 10
31.46812862004588
 20
58.03007010891464
 30
0.0
 11
44.12487874577699
 21
53.17610054087463
 31
0.0
 70
    34
 71
     5
 42
0.9599310885968808
 73
     0
 74
     0
 75
     0
  3
QCADDimStyle
100
AcDb2LineAngularDimension
 13
20.0
 23
50.0
 33
0.0
 14
33.15569669100272
 24
45.21171799344064
 34
0.0
 15
20.0
 25
50.0
 35
0.0
 16
42.38905186870669
 26
49.34854512554265
 36
0.0
1001
ACAD
1000
DSTYLE
1002
{
1070
   279
1070
     2
1070
    41
1040
2.5
1070
    79
1070
     3
1070
   176
1070
     0
1070
   177
1070
     0
1070
   178
1070
     0
1070
    44
1040
1.25
1070
    42
1040
0.625
1070
   147
1040
0.625
1070
   140
1040
2.5
1070
    78
1070
     8
1002
}
  0
DIMENSION
  5
24
330
4F
100
AcDbEntity
  8
0
100
AcDbDimension
280
     0
  2
*D18
 10
31.46812862004588
 20
58.03007010891464
 30
0.0
 11
29.77399062388762
 21
51.2867702770306
 31
0.0
 70
    34
 71
     5
 42
0.9599310885968808
 73
     0
 74
     0
 75
     0
  3
QCADDimStyle
100
AcDb2LineAngularDimension
 13
20.0
 23
50.0
 33
0.0
 14
33.15569669100272
 24
45.21171799344064
 34
0.0
 15
20.0
 25
50.0
 35
0.0
 16
27.92045402860901
 26
49.7695383254677
 36
0.0
1001
ACAD
1000
DSTYLE
1002
{
1070
   279
1070
     2
1070
    41
1040
2.5
1070
    79
1070
     3
1070
   176
1070
     0
1070
   177
1070
     0
1070
   178
1070
     0
1070
    44
1040
1.25
1070
    42
1040
0.625
1070
   147
1040
0.625
1070
   140
1040
2.5
1070
    78
1070
     8
1002
}
  0
ENDSEC
  0
SECTION
  2
OBJECTS
  0
DICTIONARY
  5
3D
330
0
100
AcDbDictionary
281
     1
  3
ACAD_GROUP
350
3E
  3
ACAD_LAYOUT
350
4A
  3
ACAD_MATERIAL
350
6B
  3
ACAD_MLEADERSTYLE
350
17A
  3
ACAD_MLINESTYLE
350
47
  3
ACAD_PLOTSETTINGS
350
49
  3
ACAD_PLOTSTYLENAME
350
3F
  3
ACAD_TABLESTYLE
350
179
  3
ACAD_VISUALSTYLE
350
5A
  3
QCAD_OBJECTS
350
70
  0
DICTIONARY
  5
3E
102
{ACAD_REACTORS
330
3D
102
}
330
3D
100
AcDbDictionary
281
     1
  0
DICTIONARY
  5
4A
102
{ACAD_REACTORS
330
3D
102
}
330
3D
100
AcDbDictionary
281
     1
  3
Layout1
350
4E
  3
Layout2
350
56
  3
Model
350
52
  0
DICTIONARY
  5
6B
102
{ACAD_REACTORS
330
3D
102
}
330
3D
100
AcDbDictionary
281
     1
  3
ByBlock
350
6D
  3
ByLayer
350
6C
  3
Global
350
6E
  0
DICTIONARY
  5
17A
102
{ACAD_REACTORS
330
3D
102
}
330
3D
100
AcDbDictionary
281
     1
  0
DICTIONARY
  5
47
102
{ACAD_REACTORS
330
3D
102
}
330
3D
100
AcDbDictionary
281
     1
  3
Standard
350
48
  0
DICTIONARY
  5
49
102
{ACAD_REACTORS
330
3D
102
}
330
3D
100
AcDbDictionary
281
     1
  0
ACDBDICTIONARYWDFLT
  5
3F
102
{ACAD_REACTORS
330
3D
102
}
330
3D
100
AcDbDictionary
281
     1
  3
Normal
350
40
100
AcDbDictionaryWithDefault
340
40
  0
DICTIONARY
  5
179
102
{ACAD_REACTORS
330
3D
102
}
330
3D
100
AcDbDictionary
281
     1
  0
DICTIONARY
  5
5A
102
{ACAD_REACTORS
330
3D
102
}
330
3D
100
AcDbDictionary
281
     1
  3
2dWireframe
350
5F
  3
3D Hidden
350
61
  3
3dWireframe
350
60
  3
Basic
350
62
  3
Brighten
350
66
  3
ColorChange
350
6A
  3
Conceptual
350
64
  3
Dim
350
65
  3
Facepattern
350
69
  3
Flat
350
5B
  3
FlatWithEdges
350
5C
  3
Gouraud
350
5D
  3
GouraudWithEdges
350
5E
  3
Linepattern
350
68
  3
Realistic
350
63
  3
Thicken
350
67
  0
DICTIONARY
  5
70
102
{ACAD_REACTORS
330
3D
102
}
330
3D
100
AcDbDictionary
281
     1
  3
PageSettings/Scale
350
71
  0
LAYOUT
  5
4E
102
{ACAD_REACTORS
330
4A
102
}
330
4A
100
AcDbPlotSettings
  1

  2
none_device
  4

  6

 40
0.0
 41
0.0
 42
0.0
 43
0.0
 44
0.0
 45
0.0
 46
0.0
 47
0.0
 48
0.0
 49
0.0
140
0.0
141
0.0
142
1.0
143
1.0
 70
   688
 72
     0
 73
     0
 74
     5
  7

 75
    16
 76
     0
 77
     2
 78
   300
147
1.0
148
0.0
149
0.0
100
AcDbLayout
  1
Layout1
 70
     1
 71
     1
 10
0.0
 20
0.0
 11
12.0
 21
9.0
 12
0.0
 22
0.0
 32
0.0
 14
1.000000000000000E+20
 24
1.000000000000000E+20
 34
1.000000000000000E+20
 15
-1.000000000000000E+20
 25
-1.000000000000000E+20
 35
-1.000000000000000E+20
146
0.0
 13
0.0
 23
0.0
 33
0.0
 16
1.0
 26
0.0
 36
0.0
 17
0.0
 27
1.0
 37
0.0
 76
     0
330
4B
  0
LAYOUT
  5
56
102
{ACAD_REACTORS
330
4A
102
}
330
4A
100
AcDbPlotSettings
  1

  2
none_device
  4

  6

 40
0.0
 41
0.0
 42
0.0
 43
0.0
 44
0.0
 45
0.0
 46
0.0
 47
0.0
 48
0.0
 49
0.0
140
0.0
141
0.0
142
1.0
143
1.0
 70
   688
 72
     0
 73
     0
 74
     5
  7

 75
    16
 76
     0
 77
     2
 78
   300
147
1.0
148
0.0
149
0.0
100
AcDbLayout
  1
Layout2
 70
     1
 71
     2
 10
0.0
 20
0.0
 11
0.0
 21
0.0
 12
0.0
 22
0.0
 32
0.0
 14
0.0
 24
0.0
 34
0.0
 15
0.0
 25
0.0
 35
0.0
146
0.0
 13
0.0
 23
0.0
 33
0.0
 16
1.0
 26
0.0
 36
0.0
 17
0.0
 27
1.0
 37
0.0
 76
     0
330
53
  0
LAYOUT
  5
52
102
{ACAD_REACTORS
330
4A
102
}
330
4A
100
AcDbPlotSettings
  1

  2
none_device
  4

  6

 40
0.0
 41
0.0
 42
0.0
 43
0.0
 44
0.0
 45
0.0
 46
0.0
 47
0.0
 48
0.0
 49
0.0
140
0.0
141
0.0
142
1.0
143
1.0
 70
  1712
 72
     0
 73
     0
 74
     0
  7

 75
     0
 76
     0
 77
     2
 78
   300
147
1.0
148
0.0
149
0.0
100
AcDbLayout
  1
Model
 70
     1
 71
     0
 10
0.0
 20
0.0
 11
12.0
 21
9.0
 12
0.0
 22
0.0
 32
0.0
 14
1.000000000000000E+20
 24
1.000000000000000E+20
 34
1.000000000000000E+20
 15
-1.000000000000000E+20
 25
-1.000000000000000E+20
 35
-1.000000000000000E+20
146
0.0
 13
0.0
 23
0.0
 33
0.0
 16
1.0
 26
0.0
 36
0.0
 17
0.0
 27
1.0
 37
0.0
 76
     0
330
4F
331
59
  0
MATERIAL
  5
6D
102
{ACAD_REACTORS
330
6B
102
}
330
6B
100
AcDbMaterial
  1
ByBlock
 72
     1
 94
      127
  0
MATERIAL
  5
6C
102
{ACAD_REACTORS
330
6B
102
}
330
6B
100
AcDbMaterial
  1
ByLayer
 72
     1
 94
      127
  0
MATERIAL
  5
6E
102
{ACAD_REACTORS
330
6B
102
}
330
6B
100
AcDbMaterial
  1
Global
 72
     1
 94
      127
  0
MLINESTYLE
  5
48
102
{ACAD_REACTORS
330
47
102
}
330
47
100
AcDbMlineStyle
  2
Standard
 70
     0
  3

 62
   256
 51
90.0
 52
90.0
 71
     2
 49
0.5
 62
   256
  6
BYLAYER
 49
-0.5
 62
   256
  6
BYLAYER
  0
ACDBPLACEHOLDER
  5
40
102
{ACAD_REACTORS
330
3F
102
}
330
3F
  0
VISUALSTYLE
  5
5F
102
{ACAD_REACTORS
330
5A
102
}
330
5A
100
AcDbVisualStyle
  2
2dWireframe
 70
     4
177
     2
291
     0
 71
     0
176
     1
 72
     2
176
     1
 73
     0
176
     1
 90
        0
176
     1
 40
-0.6
176
     1
 41
-30.0
176
     1
 62
     5
 63
     7
421
 16777215
176
     1
 74
     1
176
     1
 91
        4
176
     1
 64
     7
176
     1
 65
   257
176
     1
 75
     1
176
     1
175
     1
176
     1
 42
1.0
176
     1
 92
        0
176
     1
 66
   257
176
     1
 43
1.0
176
     1
 76
     1
176
     1
 77
     6
176
     1
 78
     2
176
     1
 67
     7
176
     1
 79
     5
176
     1
170
     0
176
     1
171
     0
176
     1
290
     0
176
     1
 93
        1
176
     1
 44
0.0
176
     1
173
     0
176
     1
  0
VISUALSTYLE
  5
61
102
{ACAD_REACTORS
330
5A
102
}
330
5A
100
AcDbVisualStyle
  2
3D Hidden
 70
     6
177
     2
291
     0
 71
     1
176
     1
 72
     2
176
     1
 73
     2
176
     1
 90
        0
176
     1
 40
-0.6
176
     1
 41
-30.0
176
     1
 62
     5
 63
     7
421
 16777215
176
     1
 74
     2
176
     1
 91
        2
176
     1
 64
     7
176
     1
 65
   257
176
     1
 75
     2
176
     1
175
     1
176
     1
 42
40.0
176
     1
 92
        0
176
     1
 66
   257
176
     1
 43
1.0
176
     1
 76
     1
176
     1
 77
     6
176
     1
 78
     2
176
     1
 67
     7
176
     1
 79
     3
176
     1
170
     0
176
     1
171
     0
176
     1
290
     0
176
     1
 93
        1
176
     1
 44
0.0
176
     1
173
     0
176
     1
  0
VISUALSTYLE
  5
60
102
{ACAD_REACTORS
330
5A
102
}
330
5A
100
AcDbVisualStyle
  2
3dWireframe
 70
     5
177
     2
291
     0
 71
     0
176
     1
 72
     2
176
     1
 73
     0
176
     1
 90
        0
176
     1
 40
-0.6
176
     1
 41
-30.0
176
     1
 62
     5
 63
     7
421
 16777215
176
     1
 74
     1
176
     1
 91
        4
176
     1
 64
     7
176
     1
 65
   257
176
     1
 75
     1
176
     1
175
     1
176
     1
 42
1.0
176
     1
 92
        0
176
     1
 66
   257
176
     1
 43
1.0
176
     1
 76
     1
176
     1
 77
     6
176
     1
 78
     2
176
     1
 67
     7
176
     1
 79
     5
176
     1
170
     0
176
     1
171
     0
176
     1
290
     0
176
     1
 93
        1
176
     1
 44
0.0
176
     1
173
     0
176
     1
  0
VISUALSTYLE
  5
62
102
{ACAD_REACTORS
330
5A
102
}
330
5A
100
AcDbVisualStyle
  2
Basic
 70
     7
177
     2
291
     1
 71
     1
176
     1
 72
     0
176
     1
 73
     1
176
     1
 90
        0
176
     1
 40
-0.6
176
     1
 41
-30.0
176
     1
 62
     5
 63
     7
421
 16777215
176
     1
 74
     0
176
     1
 91
        4
176
     1
 64
     7
176
     1
 65
   257
176
     1
 75
     1
176
     1
175
     1
176
     1
 42
1.0
176
     1
 92
        8
176
     1
 66
     7
176
     1
 43
1.0
176
     1
 76
     1
176
     1
 77
     6
176
     1
 78
     2
176
     1
 67
     7
176
     1
 79
     5
176
     1
170
     0
176
     1
171
     0
176
     1
290
     0
176
     1
 93
        1
176
     1
 44
0.0
176
     1
173
     0
176
     1
  0
VISUALSTYLE
  5
66
102
{ACAD_REACTORS
330
5A
102
}
330
5A
100
AcDbVisualStyle
  2
Brighten
 70
    12
177
     2
291
     1
 71
     2
176
     1
 72
     2
176
     1
 73
     0
176
     1
 90
        0
176
     1
 40
-0.6
176
     1
 41
-30.0
176
     1
 62
     5
 63
     7
421
 16777215
176
     1
 74
     1
176
     1
 91
        4
176
     1
 64
     7
176
     1
 65
   257
176
     1
 75
     1
176
     1
175
     1
176
     1
 42
1.0
176
     1
 92
        8
176
     1
 66
     7
176
     1
 43
1.0
176
     1
 76
     1
176
     1
 77
     6
176
     1
 78
     2
176
     1
 67
     7
176
     1
 79
     5
176
     1
170
     0
176
     1
171
     0
176
     1
290
     0
176
     1
 93
        1
176
     1
 44
50.0
176
     1
173
     0
176
     1
  0
VISUALSTYLE
  5
6A
102
{ACAD_REACTORS
330
5A
102
}
330
5A
100
AcDbVisualStyle
  2
ColorChange
 70
    16
177
     2
291
     1
 71
     2
176
     1
 72
     2
176
     1
 73
     3
176
     1
 90
        0
176
     1
 40
-0.6
176
     1
 41
-30.0
176
     1
 62
     5
 63
     8
421
  8421504
176
     1
 74
     1
176
     1
 91
        4
176
     1
 64
     7
176
     1
 65
   257
176
     1
 75
     1
176
     1
175
     1
176
     1
 42
1.0
176
     1
 92
        8
176
     1
 66
     8
424
  8421504
176
     1
 43
1.0
176
     1
 76
     1
176
     1
 77
     6
176
     1
 78
     2
176
     1
 67
     7
176
     1
 79
     5
176
     1
170
     0
176
     1
171
     0
176
     1
290
     0
176
     1
 93
        1
176
     1
 44
0.0
176
     1
173
     0
176
     1
  0
VISUALSTYLE
  5
64
102
{ACAD_REACTORS
330
5A
102
}
330
5A
100
AcDbVisualStyle
  2
Conceptual
 70
     9
177
     2
291
     0
 71
     3
176
     1
 72
     2
176
     1
 73
     0
176
     1
 90
        0
176
     1
 40
-0.6
176
     1
 41
-30.0
176
     1
 62
     5
 63
     7
421
 16777215
176
     1
 74
     2
176
     1
 91
        2
176
     1
 64
     7
176
     1
 65
   257
176
     1
 75
     1
176
     1
175
     1
176
     1
 42
40.0
176
     1
 92
        8
176
     1
 66
     7
176
     1
 43
1.0
176
     1
 76
     1
176
     1
 77
     6
176
     1
 78
     2
176
     1
 67
     7
176
     1
 79
     3
176
     1
170
     0
176
     1
171
     0
176
     1
290
     0
176
     1
 93
        1
176
     1
 44
0.0
176
     1
173
     0
176
     1
  0
VISUALSTYLE
  5
65
102
{ACAD_REACTORS
330
5A
102
}
330
5A
100
AcDbVisualStyle
  2
Dim
 70
    11
177
     2
291
     1
 71
     2
176
     1
 72
     2
176
     1
 73
     0
176
     1
 90
        0
176
     1
 40
-0.6
176
     1
 41
-30.0
176
     1
 62
     5
 63
     7
421
 16777215
176
     1
 74
     1
176
     1
 91
        4
176
     1
 64
     7
176
     1
 65
   257
176
     1
 75
     1
176
     1
175
     1
176
     1
 42
1.0
176
     1
 92
        8
176
     1
 66
     7
176
     1
 43
1.0
176
     1
 76
     1
176
     1
 77
     6
176
     1
 78
     2
176
     1
 67
     7
176
     1
 79
     5
176
     1
170
     0
176
     1
171
     0
176
     1
290
     0
176
     1
 93
        1
176
     1
 44
-50.0
176
     1
173
     0
176
     1
  0
VISUALSTYLE
  5
69
102
{ACAD_REACTORS
330
5A
102
}
330
5A
100
AcDbVisualStyle
  2
Facepattern
 70
    15
177
     2
291
     1
 71
     2
176
     1
 72
     2
176
     1
 73
     0
176
     1
 90
        0
176
     1
 40
-0.6
176
     1
 41
-30.0
176
     1
 62
     5
 63
     7
421
 16777215
176
     1
 74
     1
176
     1
 91
        4
176
     1
 64
     7
176
     1
 65
   257
176
     1
 75
     1
176
     1
175
     1
176
     1
 42
1.0
176
     1
 92
        8
176
     1
 66
     7
176
     1
 43
1.0
176
     1
 76
     1
176
     1
 77
     6
176
     1
 78
     2
176
     1
 67
     7
176
     1
 79
     5
176
     1
170
     0
176
     1
171
     0
176
     1
290
     0
176
     1
 93
        1
176
     1
 44
0.0
176
     1
173
     0
176
     1
  0
VISUALSTYLE
  5
5B
102
{ACAD_REACTORS
330
5A
102
}
330
5A
100
AcDbVisualStyle
  2
Flat
 70
     0
177
     2
291
     1
 71
     2
176
     1
 72
     1
176
     1
 73
     1
176
     1
 90
        2
176
     1
 40
-0.6
176
     1
 41
30.0
176
     1
 62
     5
 63
     7
421
 16777215
176
     1
 74
     0
176
     1
 91
        4
176
     1
 64
     7
176
     1
 65
   257
176
     1
 75
     1
176
     1
175
     1
176
     1
 42
1.0
176
     1
 92
        8
176
     1
 66
     7
176
     1
 43
1.0
176
     1
 76
     1
176
     1
 77
     6
176
     1
 78
     2
176
     1
 67
     7
176
     1
 79
     5
176
     1
170
     0
176
     1
171
     0
176
     1
290
     0
176
     1
 93
       13
176
     1
 44
0.0
176
     1
173
     0
176
     1
  0
VISUALSTYLE
  5
5C
102
{ACAD_REACTORS
330
5A
102
}
330
5A
100
AcDbVisualStyle
  2
FlatWithEdges
 70
     1
177
     2
291
     1
 71
     2
176
     1
 72
     1
176
     1
 73
     1
176
     1
 90
        2
176
     1
 40
-0.6
176
     1
 41
30.0
176
     1
 62
     5
 63
     7
421
 16777215
176
     1
 74
     1
176
     1
 91
        4
176
     1
 64
     7
176
     1
 65
   257
176
     1
 75
     1
176
     1
175
     1
176
     1
 42
1.0
176
     1
 92
        0
176
     1
 66
   257
176
     1
 43
1.0
176
     1
 76
     1
176
     1
 77
     6
176
     1
 78
     2
176
     1
 67
     7
176
     1
 79
     5
176
     1
170
     0
176
     1
171
     0
176
     1
290
     0
176
     1
 93
       13
176
     1
 44
0.0
176
     1
173
     0
176
     1
  0
VISUALSTYLE
  5
5D
102
{ACAD_REACTORS
330
5A
102
}
330
5A
100
AcDbVisualStyle
  2
Gouraud
 70
     2
177
     2
291
     1
 71
     2
176
     1
 72
     2
176
     1
 73
     1
176
     1
 90
        2
176
     1
 40
-0.6
176
     1
 41
30.0
176
     1
 62
     5
 63
     7
421
 16777215
176
     1
 74
     0
176
     1
 91
        4
176
     1
 64
     7
176
     1
 65
   257
176
     1
 75
     1
176
     1
175
     1
176
     1
 42
1.0
176
     1
 92
        0
176
     1
 66
     7
176
     1
 43
1.0
176
     1
 76
     1
176
     1
 77
     6
176
     1
 78
     2
176
     1
 67
     7
176
     1
 79
     5
176
     1
170
     0
176
     1
171
     0
176
     1
290
     0
176
     1
 93
       13
176
     1
 44
0.0
176
     1
173
     0
176
     1
  0
VISUALSTYLE
  5
5E
102
{ACAD_REACTORS
330
5A
102
}
330
5A
100
AcDbVisualStyle
  2
GouraudWithEdges
 70
     3
177
     2
291
     1
 71
     2
176
     1
 72
     2
176
     1
 73
     1
176
     1
 90
        2
176
     1
 40
-0.6
176
     1
 41
30.0
176
     1
 62
     5
 63
     7
421
 16777215
176
     1
 74
     1
176
     1
 91
        4
176
     1
 64
     7
176
     1
 65
   257
176
     1
 75
     1
176
     1
175
     1
176
     1
 42
1.0
176
     1
 92
        0
176
     1
 66
   257
176
     1
 43
1.0
176
     1
 76
     1
176
     1
 77
     6
176
     1
 78
     2
176
     1
 67
     7
176
     1
 79
     5
176
     1
170
     0
176
     1
171
     0
176
     1
290
     0
176
     1
 93
       13
176
     1
 44
0.0
176
     1
173
     0
176
     1
  0
VISUALSTYLE
  5
68
102
{ACAD_REACTORS
330
5A
102
}
330
5A
100
AcDbVisualStyle
  2
Linepattern
 70
    14
177
     2
291
     1
 71
     2
176
     1
 72
     2
176
     1
 73
     0
176
     1
 90
        0
176
     1
 40
-0.6
176
     1
 41
-30.0
176
     1
 62
     5
 63
     7
421
 16777215
176
     1
 74
     1
176
     1
 91
        4
176
     1
 64
     7
176
     1
 65
   257
176
     1
 75
     7
176
     1
175
     7
176
     1
 42
1.0
176
     1
 92
        8
176
     1
 66
     7
176
     1
 43
1.0
176
     1
 76
     1
176
     1
 77
     6
176
     1
 78
     2
176
     1
 67
     7
176
     1
 79
     5
176
     1
170
     0
176
     1
171
     0
176
     1
290
     0
176
     1
 93
        1
176
     1
 44
0.0
176
     1
173
     0
176
     1
  0
VISUALSTYLE
  5
63
102
{ACAD_REACTORS
330
5A
102
}
330
5A
100
AcDbVisualStyle
  2
Realistic
 70
     8
177
     2
291
     0
 71
     2
176
     1
 72
     2
176
     1
 73
     0
176
     1
 90
        0
176
     1
 40
-0.6
176
     1
 41
-30.0
176
     1
 62
     5
 63
     7
421
 16777215
176
     1
 74
     1
176
     1
 91
        0
176
     1
 64
     7
176
     1
 65
   257
176
     1
 75
     1
176
     1
175
     1
176
     1
 42
1.0
176
     1
 92
        8
176
     1
 66
     8
424
  7895160
176
     1
 43
1.0
176
     1
 76
     1
176
     1
 77
     6
176
     1
 78
     2
176
     1
 67
     7
176
     1
 79
     5
176
     1
170
     0
176
     1
171
     0
176
     1
290
     0
176
     1
 93
       13
176
     1
 44
0.0
176
     1
173
     0
176
     1
  0
VISUALSTYLE
  5
67
102
{ACAD_REACTORS
330
5A
102
}
330
5A
100
AcDbVisualStyle
  2
Thicken
 70
    13
177
     2
291
     1
 71
     2
176
     1
 72
     2
176
     1
 73
     0
176
     1
 90
        0
176
     1
 40
-0.6
176
     1
 41
-30.0
176
     1
 62
     5
 63
     7
421
 16777215
176
     1
 74
     1
176
     1
 91
        4
176
     1
 64
     7
176
     1
 65
   257
176
     1
 75
     1
176
     1
175
     1
176
     1
 42
1.0
176
     1
 92
       12
176
     1
 66
     7
176
     1
 43
1.0
176
     1
 76
     1
176
     1
 77
     6
176
     1
 78
     2
176
     1
 67
     7
176
     1
 79
     5
176
     1
170
     0
176
     1
171
     0
176
     1
290
     0
176
     1
 93
        1
176
     1
 44
0.0
176
     1
173
     0
176
     1
  0
XRECORD
  5
71
102
{ACAD_REACTORS
330
70
102
}
330
70
100
AcDbXrecord
280
     1
1000
1:1
  0
ENDSEC
  0
EOF
