<?xml version="1.0" encoding="UTF-8" standalone="no"?>
<svg
   xmlns:dc="http://purl.org/dc/elements/1.1/"
   xmlns:cc="http://creativecommons.org/ns#"
   xmlns:rdf="http://www.w3.org/1999/02/22-rdf-syntax-ns#"
   xmlns:svg="http://www.w3.org/2000/svg"
   xmlns="http://www.w3.org/2000/svg"
   xmlns:sodipodi="http://sodipodi.sourceforge.net/DTD/sodipodi-0.dtd"
   xmlns:inkscape="http://www.inkscape.org/namespaces/inkscape"
   viewBox="0 0 512 512"
   version="1.1"
   id="svg52"
   sodipodi:docname="EditFromReference-inverse.svg"
   inkscape:version="0.92.2 5c3e80d, 2017-08-06">
  <metadata
     id="metadata56">
    <rdf:RDF>
      <cc:Work
         rdf:about="">
        <dc:format>image/svg+xml</dc:format>
        <dc:type
           rdf:resource="http://purl.org/dc/dcmitype/StillImage" />
      </cc:Work>
    </rdf:RDF>
  </metadata>
  <sodipodi:namedview
     pagecolor="#ffffff"
     bordercolor="#666666"
     borderopacity="1"
     objecttolerance="10"
     gridtolerance="10"
     guidetolerance="10"
     inkscape:pageopacity="0"
     inkscape:pageshadow="2"
     inkscape:window-width="1691"
     inkscape:window-height="1064"
     id="namedview54"
     showgrid="false"
     inkscape:zoom="0.4609375"
     inkscape:cx="-139.9322"
     inkscape:cy="256"
     inkscape:window-x="0"
     inkscape:window-y="0"
     inkscape:window-maximized="0"
     inkscape:current-layer="svg52" />
  <defs
     id="defs24">
    <linearGradient
       id="1"
       y1="31.17"
       x1="19.893"
       y2="30.828"
       gradientUnits="userSpaceOnUse"
       x2="19.689">
      <stop
         id="stop2" />
      <stop
         offset="1"
         style="stop-color:#c9c9c9"
         id="stop4" />
    </linearGradient>
    <linearGradient
       id="2"
       y1="17.376"
       x1="43.24"
       y2="22.251"
       gradientUnits="userSpaceOnUse"
       x2="45.32">
      <stop
         style="stop-color:#ffd1d1"
         id="stop7" />
      <stop
         offset=".5"
         style="stop-color:#ff1d1d"
         id="stop9" />
      <stop
         offset="1"
         style="stop-color:#6f0000"
         id="stop11" />
    </linearGradient>
    <linearGradient
       id="0"
       y1="38.812"
       x1="10.575"
       y2="41.625"
       gradientUnits="userSpaceOnUse"
       x2="12.263">
      <stop
         style="stop-color:#c1c1c1"
         id="stop14" />
      <stop
         offset="1"
         style="stop-color:#acacac"
         id="stop16" />
    </linearGradient>
    <radialGradient
       cx="29.05"
       cy="27.641"
       gradientTransform="matrix(2.92356 0 0 2.02972-61.56-27.884)"
       id="3"
       r="3.241"
       gradientUnits="userSpaceOnUse">
      <stop
         style="stop-color:#e7e2b8"
         id="stop19" />
      <stop
         offset="1"
         style="stop-color:#e7e2b8;stop-opacity:0"
         id="stop21" />
    </radialGradient>
  </defs>
  <g
     id="g30"
     style="fill:#fff66e;fill-opacity:1"
     transform="matrix(0.82188,0,0,0.82188,105.53,119.67)">
    <path
       inkscape:connector-curvature="0"
       style="fill:#ffd236;fill-opacity:1"
       id="path26"
       d="M 376,312 H 72 V 88 h 304 v 224" />
    <path
       inkscape:connector-curvature="0"
       id="path28"
       style="fill:#ffd236;fill-opacity:1;stroke:#ffffff;stroke-width:16"
       d="m 456,296 c 0,70.69 -57.31,128 -128,128 -70.69,0 -128,-57.31 -128,-128 0,-70.69 57.31,-128 128,-128 70.69,0 128,57.31 128,128 z" />
  </g>
  <path
     inkscape:connector-curvature="0"
     id="path32"
     style="fill:none;stroke:#ffffff;stroke-width:13.15007973;stroke-linecap:square"
     d="M 414.55688,376.09656 H 164.70536 V 191.99544 h 249.85152 z" />
  <g
     transform="matrix(14.7166-5.23593 5.45683 14.1209-407.14 9.06)"
     style="fill-rule:evenodd"
     id="g50">
    <path
       d="m17.341 32.5l5.625-5.625 20.09-9.75c3.25-1.25 5.188 3.375 2.313 5l-20.03 9.375-8 1z"
       style="fill:#cb9022;stroke:#5c410c;stroke-width:.934"
       id="path36" />
    <path
       d="m38.33 20c0 0 1.438.094 2 1.344.58 1.288 0 2.656 0 2.656l5.03-2.469c0 0 1.452-.881.656-2.844-.785-1.936-2.688-1.156-2.688-1.156l-5 2.469"
       style="fill:url(#2)"
       id="path38" />
    <path
       d="m18.768 31.781l4.5-4.5c1.5.813 2.281 2.156 1.875 3.719l-6.375.781"
       style="fill:url(#3)"
       id="path40" />
    <path
       d="m20.11 30.375l-1.625 1.594 2.344-.313c.219-.719-.188-1.063-.719-1.281"
       style="fill:url(#1)"
       id="path42" />
    <g
       style="fill-opacity:.364"
       id="g48">
      <path
         d="m23.268 27.25l1.563 1.25 15.387-7.319c-.444-.856-1.242-1.085-1.903-1.162l-15.05 7.231"
         style="fill:#fff"
         id="path44" />
      <path
         d="m25.14 31.06l.188-.75 15.231-7.13c0 0-.11.614-.216.749l-15.203 7.13"
         id="path46" />
    </g>
  </g>
</svg>
