<svg width="110.15" height="79.27" viewBox="51.41278476030614 -102.49665169625443 110.14584034970211 79.26506948714378" xmlns="http://www.w3.org/2000/svg" style="fill:none;stroke-linecap:round;stroke-linejoin:round"><g transform="scale(1-1)"><path d="m150 90l-1.317-.878m-1.733-1.155l-.029-.019m-1.733-1.155l-3.495-2.33m-1.733-1.155l-.029-.019m-1.733-1.155l-3.495-2.33m-1.733-1.155l-.029-.019m-1.733-1.155l-3.495-2.33m-1.733-1.155l-.029-.019m-1.733-1.155l-3.495-2.33m-1.733-1.155l-.029-.019m-1.733-1.155l-3.495-2.33m-1.733-1.155l-.029-.019m-1.733-1.155l-3.495-2.33m-1.733-1.155l-.029-.019m-1.733-1.155l-3.495-2.33m-1.733-1.155l-.029-.019m-1.733-1.155l-3.495-2.33m-1.733-1.155l-.029-.019m-1.733-1.155l-3.495-2.33m-1.733-1.155l-.029-.019m-1.733-1.155l-3.495-2.33m-1.733-1.155l-.029-.019m-1.733-1.155l-3.495-2.33m-1.733-1.155l-.029-.019m-1.733-1.155l-3.495-2.33m-1.733-1.155l-.029-.019m-1.733-1.155l-1.317-.878" style="stroke:#00ccff;stroke-width:.35"/><circle cx="90" cy="50" r="1.5" style="stroke:#f00"/><g style="fill:#000;fill-rule:evenodd"><path d="m51.41 23.23v.978h2.293v6.924l-2.031-1.45v1.085l2.128 1.462h1.059v-8.02h2.192v-.978h-5.641m7.472 0v1.4h1.246v-1.4h-1.246"/><path d="m152.5 93.36v.811c.218.499.483.939.796 1.32.313.381.642.726.986 1.035.345.309.687.595 1.026.859.339.264.644.528.917.792.272.264.493.54.661.83.168.29.252.618.252.983 0 .255-.038.48-.115.675-.077.194-.187.357-.332.489-.145.132-.318.231-.52.297-.202.066-.427.099-.673.099-.23 0-.446-.032-.648-.096-.202-.064-.382-.16-.54-.287-.158-.128-.287-.286-.387-.476-.1-.19-.165-.41-.195-.661l-1.174.109c.038.324.127.629.268.914.141.285.334.535.581.75.247.215.544.385.891.508.347.124.749.185 1.205.185.447 0 .844-.053 1.193-.16.349-.107.644-.264.885-.473.241-.208.425-.466.553-.773.128-.307.192-.66.192-1.061 0-.303-.054-.59-.162-.862-.108-.272-.253-.532-.434-.779-.181-.247-.391-.485-.629-.715-.239-.23-.488-.455-.747-.674-.26-.219-.521-.436-.786-.652-.264-.215-.512-.431-.744-.648-.232-.217-.44-.438-.623-.661-.183-.224-.326-.457-.428-.699h4.695v-.978h-5.96m7.81 0v1.4h1.246v-1.4h-1.246"/></g><g style="stroke:#fff;stroke-width:.01"><path d="m57.41 39.802l-4.438 6.656"/><path d="m52.977 46.46l16.641 11.09"/><path d="m69.62 57.55l-2.219 3.328"/><path d="m67.4 60.88l11.09-2.219"/><path d="m57.41 39.802l16.641 11.09"/><path d="m74.06 50.896l2.219-3.328"/><path d="m76.27 47.568l2.219 11.09"/></g><path d="m57.41 39.802l-4.438 6.656 16.641 11.09-2.219 3.328 11.09-2.219-2.219-11.09-2.219 3.328-16.641-11.09" style="fill:#000;fill-rule:evenodd"/></g></svg>
