<?xml version="1.0" encoding="UTF-8"?>
<!-- 2016-05-25 10:00:22 Generated by QCAD SVG Exporter -->
<svg width="109.77634363974222" height="79.23445423326449" viewBox="51.76018367322307 -102.4476189798922 109.77634363974222 79.23445423326449" version="1.1" xmlns="http://www.w3.org/2000/svg" style="stroke-linecap:round;stroke-linejoin:round;fill:none">
    <g transform="scale(1,-1)">
        <!-- Line -->
        <path d="M150,90 L148.6826404527368,89.12176030182452 M146.94989571477822,87.96659714318548 L146.9207739544764,87.94718263631759 M145.18802921651783,86.79201947767855 L141.6934179802989,84.4622786535326 M139.96067324234033,83.30711549489355 L139.93155148203851,83.28770098802566 M138.19880674407995,82.13253782938662 L134.70419550786102,79.80279700524066 M132.97145076990245,78.64763384660162 L132.94232900960063,78.62821933973373 M131.20958427164206,77.47305618109469 L127.71497303542311,75.14331535694873 M125.98222829746456,73.98815219830969 L125.95310653716274,73.9687376914418 M124.22036179920418,72.81357453280276 L120.72575056298524,70.4838337086568 M118.99300582502669,69.32867055001776 L118.96388406472487,69.30925604314987 M117.23113932676631,68.15409288451083 L113.73652809054737,65.82435206036487 M112.00378335258881,64.66918890172583 L111.97466159228699,64.64977439485794 M110.24191685432844,63.4946112362189 L106.7473056181095,61.16487041207294 M105.01456088015094,60.0097072534339 L104.98543911984912,59.99029274656602 M103.25269438189056,58.83512958792698 L99.75808314567162,56.50538876378102 M98.02533840771306,55.35022560514198 L97.99621664741125,55.3308110982741 M96.26347190945269,54.175647939635056 L92.76886067323375,51.8459071154891 M91.03611593527519,50.690743956850056 L91.00699417497337,50.671329449982174 M89.27424943701482,49.51616629134313 L85.77963820079587,47.186425467197175 M84.04689346283732,46.031262308558134 L84.0177717025355,46.01184780169025 M82.28502696457694,44.85668464305121 L78.790415728358,42.52694381890525 M77.05767099039944,41.37178066026621 L77.02854923009762,41.35236615339833 M75.29580449213907,40.19720299475929 L71.80119325592013,37.86746217061333 M70.06844851796157,36.71229901197429 L70.03932675765975,36.692884505106406 M68.3065820197012,35.537721346467364 L64.81197078348225,33.20798052232141 M63.07922604552369,32.052817363682365 L63.05010428522186,32.03340285681448 M61.3173595472633,30.878239698175445 L60,30 " style="stroke:#0000ff;stroke-width:0.35;"/>
        <!-- Circle -->
        <circle cx="90" cy="50" r="1.5" style="stroke:#ff0000;stroke-width:1;"/>
        <!-- Text: 1. -->
        <g>
            <path d="M55.07532692015349,23.21316474662771 L53.970279171176685,23.21316474662771 L53.970279171176685,30.254774569274367 C53.70424915753412,30.001022863953768 53.3553405627183,29.74727115863317 52.92355338672921,29.49351945331257 C52.491766210740124,29.23976774799197 52.10397630623808,29.04945396900152 51.76018367322307,28.922578116341217 L51.76018367322307,29.99079094035213 C52.37819185876195,30.281377570638625 52.91843742492839,30.633355742534942 53.38092037172239,31.04672545604108 C53.84340331851639,31.46009516954722 54.17082487376877,31.861186574731395 54.36318503747955,32.249999671593606 L55.07532692015349,32.249999671593606 Z M58.52479486012621,23.21316474662771 L58.52479486012621,24.471691349629076 L59.78332146312758,24.471691349629076 L59.78332146312758,23.21316474662771 Z" style="fill:#000000;fill-rule:evenodd;"/>
        </g>
        <!-- Text: 2. -->
        <g>
            <path d="M158.47382608513445,94.47285772477625 L158.47382608513445,93.41078405492631 L152.52498570314265,93.41078405492631 C152.51680016426133,93.67681406856887 152.5597742433882,93.9326121586098 152.65390794052325,94.17817832504909 C152.8053404098275,94.58336249967392 153.0478369991863,94.98240752013777 153.38139770859968,95.37531338644064 C153.71495841801303,95.7682192527435 154.19688201965013,96.22251666065618 154.827168513511,96.7382056101787 C155.8053404098275,97.54038842054705 156.46632267449326,98.17579087620871 156.81011530750826,98.6444129771637 C157.15390794052325,99.11303507811867 157.32580425703077,99.55607737006956 157.32580425703077,99.97353985301635 C157.32580425703077,100.41146618316643 157.16925582592572,100.78083862518552 156.85615896371564,101.08165717907364 C156.54306210150554,101.38247573296178 156.1348083498002,101.53288500990584 155.63139770859968,101.53288500990584 C155.09933768131455,101.53288500990584 154.67368965948643,101.37326700172031 154.35445364311536,101.05403098534923 C154.03521762674427,100.73479496897815 153.8735532338384,100.29277586938743 153.86946046439775,99.72797368657706 L152.73371694461605,99.84461761563573 C152.81147956398848,100.69182088985127 153.1041125789953,101.33745526911457 153.6116159896365,101.78152075342562 C154.1191194002777,102.22558623773668 154.80056551214673,102.4476189798922 155.65595432524358,102.4476189798922 C156.51952867722176,102.4476189798922 157.20302117381112,102.2081919676139 157.70643181501168,101.72933794305727 C158.20984245621221,101.25048391850066 158.4615477768125,100.65703234960571 158.4615477768125,99.94898323637243 C158.4615477768125,99.5888195255948 158.3878779268807,99.23479496897815 158.24053822701714,98.88690956652249 C158.09319852715356,98.53902416406683 157.84865555307442,98.17272129912823 157.50690930477975,97.78800097170667 C157.16516305648506,97.4032806442851 156.59729129659422,96.87531338644064 155.80329402510716,96.20409919817324 C155.1402653757211,95.64748255424418 154.71461735389298,95.26992457334377 154.52634995962285,95.07142525547201 C154.33808256535275,94.87292593760026 154.18255732660785,94.67340342736833 154.0597742433882,94.47285772477625 Z M160.27800070996392,93.41078405492631 L160.27800070996392,94.66931065792767 L161.5365273129653,94.66931065792767 L161.5365273129653,93.41078405492631 Z" style="fill:#000000;fill-rule:evenodd;"/>
        </g>
        <!-- Line -->
        <path d="M57.41491801659585,39.80186305928 L52.9773242917046,46.45827064391646 " style="stroke:#000000;stroke-width:0.001;"/>
        <!-- Line -->
        <path d="M52.9773242917046,46.45827064391646 L69.61834325329576,57.55225495614457 " style="stroke:#000000;stroke-width:0.001;"/>
        <!-- Line -->
        <path d="M69.61834325329576,57.55225495614457 L67.39954639085015,60.88045874846281 " style="stroke:#000000;stroke-width:0.001;"/>
        <!-- Line -->
        <path d="M67.39954639085015,60.88045874846281 L78.49354770037787,58.66164488871758 " style="stroke:#000000;stroke-width:0.001;"/>
        <!-- Line -->
        <path d="M57.41491801659585,39.80186305928 L74.05593697818702,50.8958473715081 " style="stroke:#000000;stroke-width:0.001;"/>
        <!-- Line -->
        <path d="M74.05593697818702,50.8958473715081 L76.27473384063265,47.56764357918987 " style="stroke:#000000;stroke-width:0.001;"/>
        <!-- Line -->
        <path d="M76.27473384063265,47.56764357918987 L78.49354770037787,58.66164488871758 " style="stroke:#000000;stroke-width:0.001;"/>
        <!-- Hatch -->
        <path d="M57.41491801659585,39.80186305928 L52.9773242917046,46.45827064391646 L69.61834325329576,57.55225495614457 L67.39954639085015,60.88045874846281 L78.49354770037787,58.66164488871758 L76.27473384063265,47.56764357918987 L74.05593697818702,50.8958473715081 Z" style="fill:#000000;fill-rule:evenodd;"/>
    </g>
</svg>
