<?xml version="1.0" encoding="UTF-8"?>
<!-- 2013-12-02 17:46:34 Generated by QCAD SVG Exporter -->
<svg width="110.14584034970211" height="79.26506948714378" viewBox="51.41278476030614 -102.49665169625443 110.14584034970211 79.26506948714378" version="1.1" xmlns="http://www.w3.org/2000/svg" style="stroke-linecap:round;stroke-linejoin:round;fill:none">
    <g transform="scale(1,-1)">
        <!-- Line -->
        <path d="M150,90 L148.6826404527368,89.12176030182452 M146.94989571477822,87.96659714318548 L146.9207739544764,87.94718263631759 M145.18802921651783,86.79201947767855 L141.6934179802989,84.4622786535326 M139.96067324234033,83.30711549489355 L139.93155148203851,83.28770098802566 M138.19880674407995,82.13253782938662 L134.70419550786102,79.80279700524066 M132.97145076990245,78.64763384660162 L132.94232900960063,78.62821933973373 M131.20958427164206,77.47305618109469 L127.71497303542311,75.14331535694873 M125.98222829746456,73.98815219830969 L125.95310653716274,73.9687376914418 M124.22036179920418,72.81357453280276 L120.72575056298524,70.4838337086568 M118.99300582502669,69.32867055001776 L118.96388406472487,69.30925604314987 M117.23113932676631,68.15409288451083 L113.73652809054737,65.82435206036487 M112.00378335258881,64.66918890172583 L111.97466159228699,64.64977439485794 M110.24191685432844,63.4946112362189 L106.7473056181095,61.16487041207294 M105.01456088015094,60.0097072534339 L104.98543911984912,59.99029274656602 M103.25269438189056,58.83512958792698 L99.75808314567162,56.50538876378102 M98.02533840771306,55.35022560514198 L97.99621664741125,55.3308110982741 M96.26347190945269,54.175647939635056 L92.76886067323375,51.8459071154891 M91.03611593527519,50.690743956850056 L91.00699417497337,50.671329449982174 M89.27424943701482,49.51616629134313 L85.77963820079587,47.186425467197175 M84.04689346283732,46.031262308558134 L84.0177717025355,46.01184780169025 M82.28502696457694,44.85668464305121 L78.790415728358,42.52694381890525 M77.05767099039944,41.37178066026621 L77.02854923009762,41.35236615339833 M75.29580449213907,40.19720299475929 L71.80119325592013,37.86746217061333 M70.06844851796157,36.71229901197429 L70.03932675765975,36.692884505106406 M68.3065820197012,35.537721346467364 L64.81197078348225,33.20798052232141 M63.07922604552369,32.052817363682365 L63.05010428522186,32.03340285681448 M61.3173595472633,30.878239698175445 L60,30 " style="stroke:#0000ff;stroke-width:0.35;"/>
        <!-- Circle -->
        <circle cx="90" cy="50" r="1.5" style="stroke:#ff0000;stroke-width:1;"/>
        <!-- Text: 1. -->
        <g>
            <path d="M51.41278476030614,23.23158220911066 L51.41278476030614,24.20960980236564 L53.706090841041956,24.20960980236564 L53.706090841041956,31.13398384426651 L51.674920682636234,29.68380499909533 L51.674920682636234,30.769139695058538 L53.80266723347936,32.231582209110655 L54.86194163307057,32.231582209110655 L54.86194163307057,24.20960980236564 L57.05407244553864,24.20960980236564 L57.05407244553864,23.23158220911066 L51.41278476030614,23.23158220911066 M58.88442502601896,23.23158220911066 L58.88442502601896,24.63117342014796 L60.13072037604451,24.63117342014796 L60.13072037604451,23.23158220911066 L58.88442502601896,23.23158220911066 " style="fill:#ffffff;fill-rule:evenodd;"/>
        </g>
        <!-- Text: 2. -->
        <g>
            <path d="M152.50190564143392,93.36175133856409 L152.50190564143392,94.17268644331627 C152.7195857640706,94.67140897780783 152.98478760362093,95.11136809891156 153.2975111600849,95.49256380662746 C153.6102347165489,95.87375951434335 153.93905433841908,96.21867520161979 154.28397002569554,96.52731086845678 C154.628885712972,96.83594653529379 154.9707354830282,97.12235430228407 155.30951933586417,97.38653416942766 C155.64830318870014,97.65071403657124 155.9538729383169,97.91463841061315 156.22622858471445,98.17830729155335 C156.49858423111198,98.44197617249357 156.71881928476554,98.71867520161979 156.8869337456751,99.008404378932 C157.05504820658464,99.29813355624421 157.13910543703943,99.62593120570767 157.13910543703943,99.99179732732239 C157.13910543703943,100.24729042900864 157.1007814717865,100.47212435849255 157.0241335412806,100.66629911577411 C156.94748561077475,100.86047387305565 156.8368570977446,101.02347847193148 156.69224800219018,101.1553129124016 C156.54763890663574,101.2871473528717 156.37415909059078,101.38602318322428 156.17180855405527,101.45194040345933 C155.96945801751977,101.5178576236944 155.74513507423922,101.55081623381191 155.49883972421367,101.55081623381191 C155.26889593269604,101.55081623381191 155.0527487686695,101.51887959610113 154.85039823213395,101.45500632067957 C154.64804769559845,101.39113304525802 154.46792505890963,101.29532313212566 154.31003032206755,101.16757658128253 C154.15213558522544,101.0398300304394 154.02311156887387,100.88116881429225 153.92295827301285,100.69159293284105 C153.82280497715186,100.50201705138984 153.75790972932353,100.2815265046346 153.72827252952794,100.03012129257533 L152.5540262341779,100.13896135389368 C152.59183921322747,100.46292660683184 152.68100630571598,100.76747438404186 152.8215275116434,101.05260468552372 C152.96204871757087,101.33773498700558 153.15571248864904,101.58786273355642 153.40251882487797,101.80298792517625 C153.64932516110687,102.01811311679607 153.946463638368,102.18750504321406 154.2939342566613,102.31116370443021 C154.64140487495462,102.43482236564635 155.0430400308054,102.49665169625443 155.49883972421367,102.49665169625443 C155.94544166596125,102.49665169625443 156.34324442528674,102.443253638002 156.69224800219018,102.33645752149715 C157.0412515790936,102.2296614049923 157.33609061843953,102.07202216125188 157.57676512022798,101.8635397902759 C157.81743962201642,101.65505741929991 158.00165014833223,101.39752037280016 158.12939669917535,101.09092865077666 C158.2571432500185,100.78433692875315 158.32101652544003,100.43073447601938 158.32101652544003,100.03012129257533 C158.32101652544003,99.7276174601788 158.26685198788255,99.44018772078176 158.15852291276758,99.16783207438422 C158.0501938376526,98.89547642798668 157.9055847420982,98.63589543667344 157.72469562610434,98.38908910044452 C157.54380651011047,98.1422827642156 157.33404667362603,97.90390770034232 157.09541611665108,97.67396390882469 C156.85678555967613,97.44402011730706 156.607679785532,97.21944168092485 156.3480987942188,97.00022859967804 C156.08851780290556,96.78101551843123 155.82663737367713,96.56384638199792 155.56245750653355,96.34872119037809 C155.29827763938997,96.13359599875827 155.0501938376526,95.91744883473169 154.8182061013215,95.70027969829837 C154.58621836499037,95.48311056186506 154.37850247331946,95.26262001510982 154.19505842630872,95.03880805803266 C154.01161437929798,94.81499610095551 153.86879373545537,94.58198639221764 153.76659649478088,94.33977893181907 L158.46204871757087,94.33977893181907 L158.46204871757087,93.36175133856409 L152.50190564143392,93.36175133856409 M160.3123297599827,93.36175133856409 L160.3123297599827,94.7613425496014 L161.55862511000825,94.7613425496014 L161.55862511000825,93.36175133856409 L160.3123297599827,93.36175133856409 " style="fill:#ffffff;fill-rule:evenodd;"/>
        </g>
        <!-- Line -->
        <path d="M57.41491801659585,39.801863059279995 L52.977324291704605,46.458270643916464 " style="stroke:#ffffff;stroke-width:0.01;"/>
        <!-- Line -->
        <path d="M52.977324291704605,46.458270643916464 L69.61834325329576,57.55225495614457 " style="stroke:#ffffff;stroke-width:0.01;"/>
        <!-- Line -->
        <path d="M69.61834325329576,57.55225495614457 L67.39954639085015,60.88045874846281 " style="stroke:#ffffff;stroke-width:0.01;"/>
        <!-- Line -->
        <path d="M67.39954639085015,60.88045874846281 L78.49354770037787,58.66164488871758 " style="stroke:#ffffff;stroke-width:0.01;"/>
        <!-- Line -->
        <path d="M57.41491801659585,39.801863059279995 L74.05593697818702,50.895847371508104 " style="stroke:#ffffff;stroke-width:0.01;"/>
        <!-- Line -->
        <path d="M74.05593697818702,50.895847371508104 L76.27473384063265,47.56764357918987 " style="stroke:#ffffff;stroke-width:0.01;"/>
        <!-- Line -->
        <path d="M76.27473384063265,47.56764357918987 L78.49354770037787,58.66164488871758 " style="stroke:#ffffff;stroke-width:0.01;"/>
        <!-- Hatch -->
        <path d="M57.41491801659585,39.801863059279995 L52.977324291704605,46.458270643916464 L69.61834325329576,57.55225495614457 L67.39954639085015,60.88045874846281 L78.49354770037787,58.66164488871758 L76.27473384063265,47.56764357918987 L74.05593697818702,50.895847371508104 L57.41491801659585,39.801863059279995 " style="fill:#ffffff;fill-rule:evenodd;"/>
    </g>
</svg>
