<?xml version="1.0" encoding="UTF-8" standalone="no"?>
<svg
   xmlns:dc="http://purl.org/dc/elements/1.1/"
   xmlns:cc="http://creativecommons.org/ns#"
   xmlns:rdf="http://www.w3.org/1999/02/22-rdf-syntax-ns#"
   xmlns:svg="http://www.w3.org/2000/svg"
   xmlns="http://www.w3.org/2000/svg"
   xmlns:xlink="http://www.w3.org/1999/xlink"
   xmlns:sodipodi="http://sodipodi.sourceforge.net/DTD/sodipodi-0.dtd"
   xmlns:inkscape="http://www.inkscape.org/namespaces/inkscape"
   width="512"
   height="512"
   id="svg2"
   version="1.1"
   inkscape:version="0.48.2 r9819"
   sodipodi:docname="UndoSegment.svg">
  <metadata
     id="metadata28">
    <rdf:RDF>
      <cc:Work
         rdf:about="">
        <dc:format>image/svg+xml</dc:format>
        <dc:type
           rdf:resource="http://purl.org/dc/dcmitype/StillImage" />
        <dc:title></dc:title>
      </cc:Work>
    </rdf:RDF>
  </metadata>
  <sodipodi:namedview
     pagecolor="#ffffff"
     bordercolor="#666666"
     borderopacity="1"
     objecttolerance="10"
     gridtolerance="10"
     guidetolerance="10"
     inkscape:pageopacity="0"
     inkscape:pageshadow="2"
     inkscape:window-width="2176"
     inkscape:window-height="1108"
     id="namedview26"
     showgrid="false"
     inkscape:zoom="0.4609375"
     inkscape:cx="256"
     inkscape:cy="256"
     inkscape:window-x="0"
     inkscape:window-y="0"
     inkscape:window-maximized="0"
     inkscape:current-layer="g12" />
  <defs
     id="defs4">
    <linearGradient
       id="id0"
       y1="84"
       x1="159"
       y2="-2"
       x2="7">
      <stop
         offset="0"
         stop-color="#009240"
         id="stop7" />
      <stop
         offset="1"
         stop-color="#b9db7d"
         id="stop9" />
    </linearGradient>
    <linearGradient
       gradientTransform="matrix(-3.05627,0,0,2.65474,498.19374,-463.69704)"
       id="linearGradient2833"
       xlink:href="#id0"
       y1="113.713"
       y2="23.318"
       x1="123.088"
       x2="2.677"
       gradientUnits="userSpaceOnUse" />
  </defs>
  <g
     transform="translate(0 464)"
     id="g12">
    <path
       fill="none"
       stroke="#fff"
       stroke-linecap="square"
       stroke-width="16"
       d="m200-136-64,80 128,48 192-80"
       id="path14" />
    <g
       fill="#f00"
       id="g16">
      <path
         d="m16.5,4.5a1,1 0 1,1 -2,0 1,1 0 1,1 2,0z"
         transform="matrix(-32 0 0 -32 568 -136)"
         id="path18" />
      <path
         d="m16.5,4.5a1,1 0 1,1 -2,0 1,1 0 1,1 2,0z"
         transform="matrix(-32 0 0 -32 696 8)"
         id="path20" />
    </g>
    <path
       fill="none"
       stroke="#f00"
       stroke-width="16"
       d="m72-280 128,144"
       id="path22" />
    <path
       d="M 373.54831,-275.7291 324.23961,-220.7846 458.91381,-220.7846 458.91381,-365.3753 419.63381,-319.1063 C 416.82811,-316.2145 388.77101,-348.0244 377.54811,-359.5917 366.32531,-371.1589 318.62811,-408.7525 282.15381,-408.7525 245.67951,-408.7525 235.29141,-405.3572 210.87471,-390.7108 187.65181,-376.0644 170.10491,-356.384 161.50821,-330.6736 152.91151,-304.9632 155.89681,-290.1882 158.70251,-267.0537 167.47881,-218.8408 188.84711,-195.6366 217.62251,-174.5157 234.45681,-162.9484 269.13291,-150.878 310.21101,-148.4894 321.43381,-148.4894 332.65671,-157.1648 324.23961,-157.1648 315.82251,-157.1648 290.57101,-160.0566 265.31961,-174.5157 218.57251,-206.8878 203.59391,-235.8756 203.59391,-269.9455 203.59391,-287.2964 204.78771,-305.1507 214.81681,-319.1063 224.84581,-333.0619 240.06821,-342.2408 270.93111,-342.2408 301.79391,-342.2408 315.10311,-326.459 334.74311,-311.9999 350.80051,-296.3465 354.32561,-292.5765 373.54841,-275.729 z"
       id="path24"
       style="fill:url(#linearGradient2833);stroke:#037340;stroke-width:11.39400005"
       inkscape:connector-curvature="0" />
  </g>
</svg>
