<svg xmlns="http://www.w3.org/2000/svg" width="242.66" height="270.81" viewBox="-5.484847587984884 -81.76192157984404 68.48484758798489 76.42914835078905" style="fill:none;stroke-linecap:round;stroke-linejoin:round"><g transform="scale(1-1)" style="stroke-width:1.411"><g style="stroke:#000"><circle cx="12" cy="56" r="12.369"/><circle cx="44" cy="29" r="17"/><path d="m-5.485 5.333l64.49 76.43"/></g><g style="stroke:#f00"><path d="m26 56h-5.5m-1.5 0h-1.5m-1.5 0h-8m-1.5 0h-1.5m-1.5 0h-5.5"/><path d="m44 48v-4.25m0-1.5v-1.5m0-1.5v-8m0-1.5v-1.5m0-1.5v-8m0-1.5v-1.5m0-1.5v-4.25"/><path d="m25 29h4.25m1.5 0h1.5m1.5 0h8m1.5 0h1.5m1.5 0h8m1.5 0h1.5m1.5 0h4.25"/><path d="m12 70v-5.5m0-1.5v-1.5m0-1.5v-8m0-1.5v-1.5m0-1.5v-5.5"/></g></g></svg>