<svg width="259.062" fill="none" xmlns="http://www.w3.org/2000/svg" height="152.164" viewBox="11.5331 -180.5 259.062 152.164" stroke-linejoin="round" stroke-linecap="round">
<g transform="scale(1 -1)">
<g stroke="#fff">
<path d="m210,30v60"/>
<path d="m270,90v-60"/>
</g>
<g stroke="#f00">
<path d="m60,30v150"/>
<path d="m60,180h30"/>
<path d="m90,180v-30"/>
<path d="m90,150h30"/>
<path d="m120,150v-120"/>
<path d="m210,90v90"/>
<path d="m210,180h30"/>
<path d="m240,180v-30"/>
<path d="m240,150h30"/>
<path d="m270,150v-60"/>
<path d="m210,90h60"/>
<path d="m60,90h60"/>
</g>
<path stroke="#fff" stroke-width=".5" d="m258,90l12,12m-36-12l36,36m-60-36l60,60m-60-36l36,36m-36-12l30,30m-30-6l18,18"/>
<g fill="#000" fill-rule="evenodd">
<path d="m12.0331,89.6427c0,.9959 .2674,1.7755 .8022,2.339 .5348,.5634 1.2251,.8451 2.0709,.8451 .5539,0 1.0532-.1323 1.498-.397 .4447-.2646 .7838-.6337 1.017-1.1071 .2333-.4734 .35-1.0102 .35-1.6105 0-.6084-.1228-1.1528-.3684-1.633-.2455-.4802-.5934-.8438-1.0436-1.0907-.4502-.2469-.9359-.3704-1.4571-.3704-.5648,0-1.0695,.1364-1.5143,.4093-.4447,.2728-.7817,.6453-1.0109,1.1173-.2292,.472-.3438,.9713-.3438,1.498m.8186-.0123c0-.7231 .1944-1.2927 .5832-1.7088 .3888-.4161 .8765-.6241 1.4631-.6241 .5976,0 1.0894,.2101 1.4755,.6303 .3861,.4202 .5791,1.0164 .5791,1.7885 0,.4884-.0825,.9148-.2476,1.279-.1651,.3643-.4065,.6467-.7244,.8472-.3179,.2006-.6746,.3008-1.0703,.3008-.562,0-1.0457-.193-1.4509-.5791-.4051-.3861-.6077-1.0307-.6077-1.9338m5.8484-2.91v4.3465h.663v-.618c.3192,.4775 .7803,.7163 1.3833,.7163 .262,0 .5028-.0471 .7224-.1412 .2197-.0942 .3841-.2176 .4932-.3704 .1091-.1528 .1855-.3343 .2292-.5444 .0273-.1364 .0409-.3751 .0409-.7162v-2.6726h-.7367v2.6439c0,.3002-.0286,.5246-.0859,.6733-.0573,.1487-.159,.2674-.3049,.3561-.146,.0887-.3172,.133-.5137,.133-.3138,0-.5846-.0996-.8124-.2988-.2278-.1992-.3417-.5771-.3417-1.1337v-2.3738h-.7367m7.6366,1.3997l.7612-.0941c-.12-.4447-.3424-.7899-.6671-1.0355-.3247-.2455-.7394-.3683-1.2442-.3683-.6357,0-1.1398,.1958-1.5123,.5873-.3724,.3915-.5586,.9407-.5586,1.6473 0,.7313 .1882,1.2988 .5648,1.7026 .3765,.4039 .8649,.6058 1.4652,.6058 .5812,0 1.0559-.1979 1.4243-.5935 .3683-.3956 .5525-.9522 .5525-1.6698 0-.0437-.0014-.1092-.0041-.1965h-3.2415c.0273-.4775 .1624-.8431 .4052-1.0969 .2428-.2537 .5457-.3806 .9086-.3806 .2701,0 .5007,.071 .6917,.2128 .191,.1419 .3424,.3684 .4543,.6794m-2.4188,1.191h2.427c-.0328,.3657-.1255,.6399-.2783,.8227-.2347,.2837-.5389,.4256-.9127,.4256-.3384,0-.6228-.1132-.8534-.3397-.2305-.2264-.3581-.5293-.3826-.9086m6.4945-2.5907v6h.794v-5.2919h2.955v-.7081h-3.749m4.6039,5.1528v.8472h.7367v-.8472h-.7367m0-5.1528v4.3465h.7367v-4.3465h-.7367m1.857,0v4.3465h.663v-.618c.3192,.4775 .7804,.7163 1.3834,.7163 .2619,0 .5027-.0471 .7223-.1412 .2197-.0942 .3841-.2176 .4932-.3704 .1091-.1528 .1855-.3343 .2292-.5444 .0273-.1364 .0409-.3751 .0409-.7162v-2.6726h-.7367v2.6439c0,.3002-.0286,.5246-.0859,.6733-.0573,.1487-.159,.2674-.3049,.3561-.146,.0887-.3172,.133-.5137,.133-.3137,0-.5846-.0996-.8124-.2988-.2278-.1992-.3417-.5771-.3417-1.1337v-2.3738h-.7367m7.6366,1.3997l.7612-.0941c-.12-.4447-.3424-.7899-.6671-1.0355-.3247-.2455-.7394-.3683-1.2442-.3683-.6357,0-1.1398,.1958-1.5123,.5873-.3724,.3915-.5586,.9407-.5586,1.6473 0,.7313 .1882,1.2988 .5648,1.7026 .3765,.4039 .8649,.6058 1.4652,.6058 .5812,0 1.0559-.1979 1.4243-.5935 .3683-.3956 .5525-.9522 .5525-1.6698 0-.0437-.0014-.1092-.0041-.1965h-3.2415c.0273-.4775 .1624-.8431 .4052-1.0969 .2429-.2537 .5457-.3806 .9086-.3806 .2701,0 .5007,.071 .6917,.2128 .191,.1419 .3424,.3684 .4543,.6794m-2.4188,1.191h2.427c-.0328,.3657-.1255,.6399-.2783,.8227-.2347,.2837-.5389,.4256-.9127,.4256-.3384,0-.6228-.1132-.8534-.3397-.2305-.2264-.3581-.5293-.3826-.9086"/>
<path d="m157.834,87.9728v5.292h-1.977v.708h4.756v-.708h-1.985v-5.292h-.794m3.839,0l-1.33,4.3466h.761l.692-2.5089 .258-.9332c.01,.0464 .085,.3452 .225,.8964l.691,2.5457h.757l.651-2.5212 .217-.8308 .25,.839 .745,2.513h.716l-1.359-4.3466h-.765l-.692,2.603-.168,.7408-.88-3.3438h-.769m4.976,2.1733c0,.8049 .223,1.4011 .671,1.7885 .374,.322 .829,.483 1.367,.483 .597,0 1.086-.1958 1.465-.5873 .379-.3916 .569-.9325 .569-1.6228 0-.5594-.084-.9993-.252-1.3199-.168-.3206-.412-.5696-.732-.747-.321-.1773-.671-.266-1.05-.266-.609,0-1.101,.1951-1.476,.5853-.375,.3902-.562,.9522-.562,1.6862m.757,0c0-.5566 .121-.9734 .364-1.2503 .243-.277 .548-.4155 .917-.4155 .365,0 .67,.1392 .912,.4175 .243,.2783 .365,.7026 .365,1.2729 0,.5375-.122,.9447-.367,1.2216-.244,.277-.547,.4155-.91,.4155-.369,0-.674-.1378-.917-.4134-.243-.2756-.364-.6917-.364-1.2483m6.568-2.1733v6h.794v-5.2919h2.955v-.7081h-3.749m4.604,5.1528v.8472h.737v-.8472h-.737m0-5.1528v4.3466h.737v-4.3466h-.737m1.857,0v4.3466h.663v-.6181c.319,.4775 .78,.7163 1.383,.7163 .262,0 .503-.0471 .723-.1412 .219-.0942 .384-.2176 .493-.3704 .109-.1528 .185-.3343 .229-.5444 .027-.1364 .041-.3751 .041-.7162v-2.6726h-.737v2.644c0,.3001-.028,.5245-.086,.6732-.057,.1487-.159,.2674-.305,.3561-.146,.0887-.317,.133-.513,.133-.314,0-.585-.0996-.813-.2988-.228-.1991-.342-.577-.342-1.1337v-2.3738h-.736m7.636,1.3998l.762-.0942c-.12-.4447-.343-.7899-.667-1.0354-.325-.2456-.74-.3684-1.245-.3684-.635,0-1.139,.1958-1.512,.5873-.372,.3916-.559,.9407-.559,1.6474 0,.7312 .189,1.2987 .565,1.7026 .377,.4038 .865,.6057 1.465,.6057 .582,0 1.056-.1978 1.425-.5935 .368-.3956 .552-.9522 .552-1.6698 0-.0437-.001-.1092-.004-.1965h-3.241c.027-.4775 .162-.8431 .405-1.0968 .243-.2538 .546-.3807 .908-.3807 .271,0 .501,.071 .692,.2129 .191,.1418 .343,.3683 .454,.6794m-2.418,1.191h2.427c-.033,.3656-.126,.6398-.279,.8226-.234,.2838-.539,.4257-.912,.4257-.339,0-.623-.1133-.854-.3397-.23-.2265-.358-.5294-.382-.9086m3.809-1.2934l.729,.1146c.041-.2919 .155-.5156 .342-.6712 .187-.1555 .448-.2333 .783-.2333 .339,0 .59,.0689 .754,.2067 .163,.1378 .245,.2995 .245,.485 0,.1665-.072,.2974-.217,.3929-.101,.0655-.352,.1487-.753,.2497-.54,.1364-.915,.2544-1.123,.354-.209,.0996-.367,.2374-.475,.4134-.108,.176-.162,.3704-.162,.5832 0,.1937 .045,.3731 .133,.5382 .089,.1651 .21,.3022 .362,.4113 .115,.0846 .271,.1562 .469,.2149 .198,.0587 .41,.088 .637,.088 .341,0 .64-.0491 .898-.1474 .258-.0982 .448-.2312 .571-.399 .123-.1678 .207-.3922 .254-.6733l-.721-.0982c-.032,.2237-.127,.3984-.284,.5239-.157,.1255-.379,.1883-.665,.1883-.339,0-.58-.056-.725-.1679-.144-.1118-.217-.2428-.217-.3929 0-.0955 .03-.1814 .09-.2578 .06-.0791 .155-.1446 .283-.1965 .073-.0272 .29-.09 .651-.1882 .521-.1392 .884-.2531 1.09-.3418 .206-.0886 .368-.2176 .485-.3867 .118-.1692 .176-.3793 .176-.6303 0-.2456-.071-.4768-.215-.6937-.143-.217-.35-.3848-.62-.5035-.27-.1186-.575-.178-.916-.178-.565,0-.996,.1173-1.292,.352-.296,.2346-.485,.5825-.567,1.0436"/>
</g>
<g stroke="#fff" stroke-width=".5">
<path d="m49.8514,89.9618l8.0221,12.0332"/>
<path d="m49.8609,88.971l7.9703-11.3067"/>
<path d="m198.517,90.6392l9.638,13.5308"/>
<path d="m198.517,89.3417l9.638-13.7163"/>
<path d="m59.9495,30.2657h.1455 .1455v-.1455h.1455 .1455 .1455 .291 .291 .1455 .2911 .291l.291,.1455h.291 .1455 .1455 .1455 .1455 .1455 .1456 .1455 .1455 .1455l.1455,.1456h.1455 .291 .1455 .1455 .1455 .1455l.1456-.1456h.1455 .1455 .1455l.1455-.1455h.1455 .1455l.1455-.1455h.1455l.1455-.1455h.1455 .1455l.1456-.1455h.291 .1455 .1455l.1455-.1455h.1455 .1455 .1455l.1455-.1455h.1455 .1455 .1456 .1455 .1455 .291l.1455,.1455h.1455 .291l.291,.1455h.1455l.1456,.1455h.291 .1455l.1455,.1455h.1455 .1455l.1455,.1455h.1455 .1455 .1455 .1455l.1456,.1455h.291 .1455 .291 .1455 .291 .1455 .291 .1456 .291 .291l.291-.1455h.1455 .1455 .291l.2911-.1455h.1455l.1455-.1455h.1455 .1455 .291l.1455-.1455h.291 .291 .2911 .291 .4365l.291-.1455h.4365 .2911 .291 .4365 .291 .291 .4366 .291 .291 .4365 .291l.2911,.1455h.291 .291 .291 .4365 .4366 .4365 .291 .291 .1455 .291 .2911 .291 .291 .291 .1455l.1455-.1455h.1455 .1455 .1455l.1456,.1455h.1455 .1455l.1455,.1455h.1455 .291l.1455,.1455 .1455,.1455h.1455 .1455 .1456 .1455 .1455 .1455 .291 .1455 .1455 .1455 .1455 .1455 .1455 .2911 .1455l.1455,.1455h.1455 .1455 .1455 .1455 .1455 .291 .1455l.1456-.1455h.291 .1455 .291l.291-.1455h.291l.291-.1455h.1456l.291-.1455h.291l.1455-.1455h.1455l.291-.1455h.1455l.1455-.1455h.2911l.1455-.1455h.291 .1455 .291 .1455 .1455 .291 .2911 .1455 .291 .1455 .291 .1455 .291 .1455 .1455 .2913 .145 .146 .145 .146 .145 .291 .291l.146,.1455h.291 .145 .291 .291 .291 .291 .146 .291l.145,.1455h.291 .146 .291l.146,.1455h.145l.146,.1455h.145l.146,.1455h.145 .146v.1455h.145l.146,.1455h.145 .146l.145,.1455h.146l.291,.1456h.145 .146l.145,.1455h.146 .145 .146l.145,.1455h.146 .145 .146 .145 .146 .145l.146,.1455h.291 .145 .291 .146 .291 .145 .146 .145l.146-.1455h.145 .146 .145 .146 .145l.146-.1455h.145 .146v-.1455h.145l.146-.1456 .145-.1455 .146-.1455h.145l.146-.1455h.145l.146-.1455h.145l.146-.1455h.146 .145 .146v-.1455h.145 .146 .145 .146 .145 .146 .145 .146 .145 .146 .145 .146 .145 .146 .145 .146 .145 .146 .145 .146l.145,.1455h.146 .145 .146 .145 .146 .145l.146,.1455h.145 .146 .145v.1455h.146 .145 .146 .145 .146 .145 .146 .145 .146 .145 .146 .145 .146 .145"/>
<path d="m210,30h.146 .145v-.1455h.146 .145 .146 .291 .291 .145 .291 .291l.291,.1455h.291 .146 .145 .146 .145 .146 .145 .146 .145 .146l.145,.1455h.146 .291 .145 .146 .145 .146l.145-.1455h.146 .145 .146l.145-.1455h.146 .145l.146-.1455h.145l.146-.1455h.145 .146l.145-.1455h.291 .146 .145l.146-.1455h.145 .146 .145l.146-.1456h.145 .146 .146 .145 .146 .291l.145,.1456h.146 .291l.291,.1455h.145l.146,.1455h.291 .145l.146,.1455h.145 .146l.145,.1455h.146 .145 .146 .145l.146,.1455h.291 .145 .291 .146 .291 .145 .291 .146 .291 .291l.291-.1455h.145 .146 .291l.291-.1455h.145l.146-.1455h.145 .146 .291l.145-.1455h.291 .291 .292 .291 .436l.291-.1455h.437 .291 .291 .436 .291 .291 .437 .291 .291 .436 .291l.291,.1455h.291 .291 .291 .437 .436 .437 .291 .291 .145 .291 .292 .291 .291 .291 .145l.146-.1455h.145 .146 .145l.146,.1455h.145 .146l.145,.1455h.146 .291l.145,.1455 .146,.1455h.145 .146 .145 .146 .145 .146 .291 .145 .146 .145 .146 .145 .146 .291 .145l.146,.1455h.145 .146 .145 .146 .145 .291 .146l.145-.1455h.291 .146 .291l.291-.1455h.291l.291-.1455h.146l.291-.1455h.291l.145-.1455h.146l.291-.1456h.145l.146-.1455h.291l.145-.1455h.291 .146 .291 .145 .146 .291 .291 .145 .291 .146 .291 .145 .291 .146 .145 .291 .146 .145 .146 .145 .146 .291 .291l.145,.1455h.291 .146 .291 .291 .291 .291 .145 .292l.145,.1455h.291 .146 .291l.145,.1456h.146l.145,.1455h.146l.145,.1455h.146 .145v.1455h.146l.145,.1455h.146 .145l.146,.1455h.145l.291,.1455h.146 .145l.146,.1455h.145 .146 .145l.146,.1455h.145 .146 .145 .146 .145 .146l.145,.1455h.291 .146 .291 .145 .291 .146 .145 .146l.145-.1455h.146 .145 .146 .145 .146l.145-.1455h.146 .145v-.1455h.146l.145-.1455 .146-.1455 .146-.1455h.145l.146-.1455h.145l.146-.1455h.145l.146-.1455h.145 .146 .145v-.1456h.146 .145 .146 .145 .146 .145 .146 .145 .146 .145 .146 .145 .146 .145 .146 .145 .146 .145 .146 .145l.146,.1456h.145 .146 .145 .146 .145 .146l.145,.1455h.146 .145 .146v.1455h.145 .146 .145 .146 .145 .146 .145 .146 .145 .146 .145 .146 .145 .146"/>
</g>
</g>
</svg>
