<svg xmlns="http://www.w3.org/2000/svg" viewBox="29.5 -120.5 211 91" style="fill:none;stroke-linecap:round;stroke-linejoin:round"><g transform="scale(1-1)"><g style="stroke:#000"><circle cx="60" cy="90" r="15"/><g style="stroke-width:.5"><path d="m102 30l18 18m-42-18l42 42m-66-42l66 66m-90-66l90 90m-90-66l66 66m-66-42l42 42m-42-18l18 18"/><path d="m222 30l18 18m-42-18l42 42m-66-42l66 66m-90-66l90 90m-90-66l22.827 22.826m20.346 20.347l22.827 22.826m-66-42l15.388 15.388m11.224 11.225l15.388 15.388m-42-18l18 18"/></g></g><g style="stroke:#f00"><path d="m30 30v90"/><path d="m30 120h90"/><path d="m120 120v-90"/><path d="m120 30h-90"/><path d="m150 30v90"/><path d="m150 120h90"/><path d="m240 120v-90"/><path d="m240 30h-90"/><circle cx="180" cy="90" r="15"/></g></g></svg>