<?xml version="1.0" encoding="UTF-8"?>
<!-- 2011-10-19 12:08:38 Generated by QCAD SVG Exporter -->
<svg width="259.062" height="152.164" viewBox="11.5331 -180.5 259.062 152.164" version="1.1" xmlns="http://www.w3.org/2000/svg" style="stroke-linecap:round;stroke-linejoin:round;fill:none">
    <g transform="scale(1,-1)">
        <!-- Line -->
        <path d="M210,30 L210,90 " style="stroke:#000000;stroke-width:1;"/>
        <!-- Line -->
        <path d="M270,90 L270,30 " style="stroke:#000000;stroke-width:1;"/>
        <!-- Line -->
        <path d="M60,30 L60,180 " style="stroke:#ff0000;stroke-width:1;"/>
        <!-- Line -->
        <path d="M60,180 L90,180 " style="stroke:#ff0000;stroke-width:1;"/>
        <!-- Line -->
        <path d="M90,180 L90,150 " style="stroke:#ff0000;stroke-width:1;"/>
        <!-- Line -->
        <path d="M90,150 L120,150 " style="stroke:#ff0000;stroke-width:1;"/>
        <!-- Line -->
        <path d="M120,150 L120,30 " style="stroke:#ff0000;stroke-width:1;"/>
        <!-- Line -->
        <path d="M210,90 L210,180 " style="stroke:#ff0000;stroke-width:1;"/>
        <!-- Line -->
        <path d="M210,180 L240,180 " style="stroke:#ff0000;stroke-width:1;"/>
        <!-- Line -->
        <path d="M240,180 L240,150 " style="stroke:#ff0000;stroke-width:1;"/>
        <!-- Line -->
        <path d="M240,150 L270,150 " style="stroke:#ff0000;stroke-width:1;"/>
        <!-- Line -->
        <path d="M270,150 L270,90 " style="stroke:#ff0000;stroke-width:1;"/>
        <!-- Line -->
        <path d="M210,90 L270,90 " style="stroke:#ff0000;stroke-width:1;"/>
        <!-- Line -->
        <path d="M60,90 L120,90 " style="stroke:#ff0000;stroke-width:1;"/>
        <!-- Hatch -->
        <path d="M258,90 L270,102 M234,90 L270,126 M210,90 L270,150 M210,114 L246,150 M210,138 L240,168 M210,162 L228,180 " style="stroke:#000000;stroke-width:0.5;"/>
        <!-- Text: One Line -->
        <path d="M12.0331,89.6427 C12.0331,90.6386 12.3005,91.4182 12.8353,91.9817 C13.3701,92.5451 14.0604,92.8268 14.9062,92.8268 C15.4601,92.8268 15.9594,92.6945 16.4042,92.4298 C16.8489,92.1652 17.188,91.7961 17.4212,91.3227 C17.6545,90.8493 17.7712,90.3125 17.7712,89.7122 C17.7712,89.1038 17.6484,88.5594 17.4028,88.0792 C17.1573,87.599 16.8094,87.2354 16.3592,86.9885 C15.909,86.7416 15.4233,86.6181 14.9021,86.6181 C14.3373,86.6181 13.8326,86.7545 13.3878,87.0274 C12.9431,87.3002 12.6061,87.6727 12.3769,88.1447 C12.1477,88.6167 12.0331,89.116 12.0331,89.6427 M12.8517,89.6304 C12.8517,88.9073 13.0461,88.3377 13.4349,87.9216 C13.8237,87.5055 14.3114,87.2975 14.898,87.2975 C15.4956,87.2975 15.9874,87.5076 16.3735,87.9278 C16.7596,88.348 16.9526,88.9442 16.9526,89.7163 C16.9526,90.2047 16.8701,90.6311 16.705,90.9953 C16.5399,91.3596 16.2985,91.642 15.9806,91.8425 C15.6627,92.0431 15.306,92.1433 14.9103,92.1433 C14.3483,92.1433 13.8646,91.9503 13.4594,91.5642 C13.0543,91.1781 12.8517,90.5335 12.8517,89.6304 M18.7001,86.7204 L18.7001,91.0669 L19.3631,91.0669 L19.3631,90.4489 C19.6823,90.9264 20.1434,91.1652 20.7464,91.1652 C21.0084,91.1652 21.2492,91.1181 21.4688,91.024 C21.6885,90.9298 21.8529,90.8064 21.962,90.6536 C22.0711,90.5008 22.1475,90.3193 22.1912,90.1092 C22.2185,89.9728 22.2321,89.7341 22.2321,89.393 L22.2321,86.7204 L21.4954,86.7204 L21.4954,89.3643 C21.4954,89.6645 21.4668,89.8889 21.4095,90.0376 C21.3522,90.1863 21.2505,90.305 21.1046,90.3937 C20.9586,90.4824 20.7874,90.5267 20.5909,90.5267 C20.2771,90.5267 20.0063,90.4271 19.7785,90.2279 C19.5507,90.0287 19.4368,89.6508 19.4368,89.0942 L19.4368,86.7204 L18.7001,86.7204 M26.3367,88.1201 L27.0979,88.026 C26.9779,87.5813 26.7555,87.2361 26.4308,86.9905 C26.1061,86.745 25.6914,86.6222 25.1866,86.6222 C24.5509,86.6222 24.0468,86.818 23.6743,87.2095 C23.3019,87.601 23.1157,88.1502 23.1157,88.8568 C23.1157,89.5881 23.3039,90.1556 23.6805,90.5594 C24.057,90.9633 24.5454,91.1652 25.1457,91.1652 C25.7269,91.1652 26.2016,90.9673 26.57,90.5717 C26.9383,90.1761 27.1225,89.6195 27.1225,88.9019 C27.1225,88.8582 27.1211,88.7927 27.1184,88.7054 L23.8769,88.7054 C23.9042,88.2279 24.0393,87.8623 24.2821,87.6085 C24.5249,87.3548 24.8278,87.2279 25.1907,87.2279 C25.4608,87.2279 25.6914,87.2989 25.8824,87.4407 C26.0734,87.5826 26.2248,87.8091 26.3367,88.1201 M23.9179,89.3111 L26.3449,89.3111 C26.3121,89.6768 26.2194,89.951 26.0666,90.1338 C25.8319,90.4175 25.5277,90.5594 25.1539,90.5594 C24.8155,90.5594 24.5311,90.4462 24.3005,90.2197 C24.07,89.9933 23.9424,89.6904 23.9179,89.3111 M30.4124,86.7204 L30.4124,92.7204 L31.2064,92.7204 L31.2064,87.4285 L34.1614,87.4285 L34.1614,86.7204 L30.4124,86.7204 M35.0163,91.8732 L35.0163,92.7204 L35.753,92.7204 L35.753,91.8732 L35.0163,91.8732 M35.0163,86.7204 L35.0163,91.0669 L35.753,91.0669 L35.753,86.7204 L35.0163,86.7204 M36.8733,86.7204 L36.8733,91.0669 L37.5363,91.0669 L37.5363,90.4489 C37.8555,90.9264 38.3167,91.1652 38.9197,91.1652 C39.1816,91.1652 39.4224,91.1181 39.642,91.024 C39.8617,90.9298 40.0261,90.8064 40.1352,90.6536 C40.2443,90.5008 40.3207,90.3193 40.3644,90.1092 C40.3917,89.9728 40.4053,89.7341 40.4053,89.393 L40.4053,86.7204 L39.6686,86.7204 L39.6686,89.3643 C39.6686,89.6645 39.64,89.8889 39.5827,90.0376 C39.5254,90.1863 39.4237,90.305 39.2778,90.3937 C39.1318,90.4824 38.9606,90.5267 38.7641,90.5267 C38.4504,90.5267 38.1795,90.4271 37.9517,90.2279 C37.7239,90.0287 37.61,89.6508 37.61,89.0942 L37.61,86.7204 L36.8733,86.7204 M44.5099,88.1201 L45.2711,88.026 C45.1511,87.5813 44.9287,87.2361 44.604,86.9905 C44.2793,86.745 43.8646,86.6222 43.3598,86.6222 C42.7241,86.6222 42.22,86.818 41.8475,87.2095 C41.4751,87.601 41.2889,88.1502 41.2889,88.8568 C41.2889,89.5881 41.4771,90.1556 41.8537,90.5594 C42.2302,90.9633 42.7186,91.1652 43.3189,91.1652 C43.9001,91.1652 44.3748,90.9673 44.7432,90.5717 C45.1115,90.1761 45.2957,89.6195 45.2957,88.9019 C45.2957,88.8582 45.2943,88.7927 45.2916,88.7054 L42.0501,88.7054 C42.0774,88.2279 42.2125,87.8623 42.4553,87.6085 C42.6982,87.3548 43.001,87.2279 43.3639,87.2279 C43.634,87.2279 43.8646,87.2989 44.0556,87.4407 C44.2466,87.5826 44.398,87.8091 44.5099,88.1201 M42.0911,89.3111 L44.5181,89.3111 C44.4853,89.6768 44.3926,89.951 44.2398,90.1338 C44.0051,90.4175 43.7009,90.5594 43.3271,90.5594 C42.9887,90.5594 42.7043,90.4462 42.4737,90.2197 C42.2432,89.9933 42.1156,89.6904 42.0911,89.3111 " style="fill:#000000;fill-rule:evenodd;"/>
        <!-- Text: Two Lines -->
        <path d="M157.834,87.9728 L157.834,93.2648 L155.857,93.2648 L155.857,93.9728 L160.613,93.9728 L160.613,93.2648 L158.628,93.2648 L158.628,87.9728 L157.834,87.9728 M161.673,87.9728 L160.343,92.3194 L161.104,92.3194 L161.796,89.8105 L162.054,88.8773 C162.064,88.9237 162.139,89.2225 162.279,89.7737 L162.97,92.3194 L163.727,92.3194 L164.378,89.7982 L164.595,88.9674 L164.845,89.8064 L165.59,92.3194 L166.306,92.3194 L164.947,87.9728 L164.182,87.9728 L163.49,90.5758 L163.322,91.3166 L162.442,87.9728 L161.673,87.9728 M166.649,90.1461 C166.649,90.951 166.872,91.5472 167.32,91.9346 C167.694,92.2566 168.149,92.4176 168.687,92.4176 C169.284,92.4176 169.773,92.2218 170.152,91.8303 C170.531,91.4387 170.721,90.8978 170.721,90.2075 C170.721,89.6481 170.637,89.2082 170.469,88.8876 C170.301,88.567 170.057,88.318 169.737,88.1406 C169.416,87.9633 169.066,87.8746 168.687,87.8746 C168.078,87.8746 167.586,88.0697 167.211,88.4599 C166.836,88.8501 166.649,89.4121 166.649,90.1461 M167.406,90.1461 C167.406,89.5895 167.527,89.1727 167.77,88.8958 C168.013,88.6188 168.318,88.4803 168.687,88.4803 C169.052,88.4803 169.357,88.6195 169.599,88.8978 C169.842,89.1761 169.964,89.6004 169.964,90.1707 C169.964,90.7082 169.842,91.1154 169.597,91.3923 C169.353,91.6693 169.05,91.8078 168.687,91.8078 C168.318,91.8078 168.013,91.67 167.77,91.3944 C167.527,91.1188 167.406,90.7027 167.406,90.1461 M173.974,87.9728 L173.974,93.9728 L174.768,93.9728 L174.768,88.6809 L177.723,88.6809 L177.723,87.9728 L173.974,87.9728 M178.578,93.1256 L178.578,93.9728 L179.315,93.9728 L179.315,93.1256 L178.578,93.1256 M178.578,87.9728 L178.578,92.3194 L179.315,92.3194 L179.315,87.9728 L178.578,87.9728 M180.435,87.9728 L180.435,92.3194 L181.098,92.3194 L181.098,91.7013 C181.417,92.1788 181.878,92.4176 182.481,92.4176 C182.743,92.4176 182.984,92.3705 183.204,92.2764 C183.423,92.1822 183.588,92.0588 183.697,91.906 C183.806,91.7532 183.882,91.5717 183.926,91.3616 C183.953,91.2252 183.967,90.9865 183.967,90.6454 L183.967,87.9728 L183.23,87.9728 L183.23,90.6168 C183.23,90.9169 183.202,91.1413 183.144,91.29 C183.087,91.4387 182.985,91.5574 182.839,91.6461 C182.693,91.7348 182.522,91.7791 182.326,91.7791 C182.012,91.7791 181.741,91.6795 181.513,91.4803 C181.285,91.2812 181.171,90.9033 181.171,90.3466 L181.171,87.9728 L180.435,87.9728 M188.071,89.3726 L188.833,89.2784 C188.713,88.8337 188.49,88.4885 188.166,88.243 C187.841,87.9974 187.426,87.8746 186.921,87.8746 C186.286,87.8746 185.782,88.0704 185.409,88.4619 C185.037,88.8535 184.85,89.4026 184.85,90.1093 C184.85,90.8405 185.039,91.408 185.415,91.8119 C185.792,92.2157 186.28,92.4176 186.88,92.4176 C187.462,92.4176 187.936,92.2198 188.305,91.8241 C188.673,91.4285 188.857,90.8719 188.857,90.1543 C188.857,90.1106 188.856,90.0451 188.853,89.9578 L185.612,89.9578 C185.639,89.4803 185.774,89.1147 186.017,88.861 C186.26,88.6072 186.563,88.4803 186.925,88.4803 C187.196,88.4803 187.426,88.5513 187.617,88.6932 C187.808,88.835 187.96,89.0615 188.071,89.3726 M185.653,90.5636 L188.08,90.5636 C188.047,90.9292 187.954,91.2034 187.801,91.3862 C187.567,91.67 187.262,91.8119 186.889,91.8119 C186.55,91.8119 186.266,91.6986 186.035,91.4722 C185.805,91.2457 185.677,90.9428 185.653,90.5636 M189.462,89.2702 L190.191,89.3848 C190.232,89.0929 190.346,88.8692 190.533,88.7136 C190.72,88.5581 190.981,88.4803 191.316,88.4803 C191.655,88.4803 191.906,88.5492 192.07,88.687 C192.233,88.8248 192.315,88.9865 192.315,89.172 C192.315,89.3385 192.243,89.4694 192.098,89.5649 C191.997,89.6304 191.746,89.7136 191.345,89.8146 C190.805,89.951 190.43,90.069 190.222,90.1686 C190.013,90.2682 189.855,90.406 189.747,90.582 C189.639,90.758 189.585,90.9524 189.585,91.1652 C189.585,91.3589 189.63,91.5383 189.718,91.7034 C189.807,91.8685 189.928,92.0056 190.08,92.1147 C190.195,92.1993 190.351,92.2709 190.549,92.3296 C190.747,92.3883 190.959,92.4176 191.186,92.4176 C191.527,92.4176 191.826,92.3685 192.084,92.2702 C192.342,92.172 192.532,92.039 192.655,91.8712 C192.778,91.7034 192.862,91.479 192.909,91.1979 L192.188,91.0997 C192.156,91.3234 192.061,91.4981 191.904,91.6236 C191.747,91.7491 191.525,91.8119 191.239,91.8119 C190.9,91.8119 190.659,91.7559 190.514,91.644 C190.37,91.5322 190.297,91.4012 190.297,91.2511 C190.297,91.1556 190.327,91.0697 190.387,90.9933 C190.447,90.9142 190.542,90.8487 190.67,90.7968 C190.743,90.7696 190.96,90.7068 191.321,90.6086 C191.842,90.4694 192.205,90.3555 192.411,90.2668 C192.617,90.1782 192.779,90.0492 192.896,89.8801 C193.014,89.7109 193.072,89.5008 193.072,89.2498 C193.072,89.0042 193.001,88.773 192.857,88.5561 C192.714,88.3391 192.507,88.1713 192.237,88.0526 C191.967,87.934 191.662,87.8746 191.321,87.8746 C190.756,87.8746 190.325,87.9919 190.029,88.2266 C189.733,88.4612 189.544,88.8091 189.462,89.2702 " style="fill:#000000;fill-rule:evenodd;"/>
        <!-- Line -->
        <path d="M49.8514,89.9618 L57.8735,101.995 " style="stroke:#000000;stroke-width:0.5;"/>
        <!-- Line -->
        <path d="M49.8609,88.971 L57.8312,77.6643 " style="stroke:#000000;stroke-width:0.5;"/>
        <!-- Line -->
        <path d="M198.517,90.6392 L208.155,104.17 " style="stroke:#000000;stroke-width:0.5;"/>
        <!-- Line -->
        <path d="M198.517,89.3417 L208.155,75.6254 " style="stroke:#000000;stroke-width:0.5;"/>
        <!-- Polyline -->
        <path d="M59.9495,30.2657 L60.095,30.2657 M60.095,30.2657 L60.2405,30.2657 M60.2405,30.2657 L60.2405,30.1202 M60.2405,30.1202 L60.386,30.1202 M60.386,30.1202 L60.5315,30.1202 M60.5315,30.1202 L60.677,30.1202 M60.677,30.1202 L60.968,30.1202 M60.968,30.1202 L61.259,30.1202 M61.259,30.1202 L61.4045,30.1202 M61.4045,30.1202 L61.6956,30.1202 M61.6956,30.1202 L61.9866,30.1202 M61.9866,30.1202 L62.2776,30.2657 M62.2776,30.2657 L62.5686,30.2657 M62.5686,30.2657 L62.7141,30.2657 M62.7141,30.2657 L62.8596,30.2657 M62.8596,30.2657 L63.0051,30.2657 M63.0051,30.2657 L63.1506,30.2657 M63.1506,30.2657 L63.2961,30.2657 M63.2961,30.2657 L63.4417,30.2657 M63.4417,30.2657 L63.5872,30.2657 M63.5872,30.2657 L63.7327,30.2657 M63.7327,30.2657 L63.8782,30.2657 M63.8782,30.2657 L64.0237,30.4113 M64.0237,30.4113 L64.1692,30.4113 M64.1692,30.4113 L64.4602,30.4113 M64.4602,30.4113 L64.6057,30.4113 M64.6057,30.4113 L64.7512,30.4113 M64.7512,30.4113 L64.8967,30.4113 M64.8967,30.4113 L65.0422,30.4113 M65.0422,30.4113 L65.1878,30.2657 M65.1878,30.2657 L65.3333,30.2657 M65.3333,30.2657 L65.4788,30.2657 M65.4788,30.2657 L65.6243,30.2657 M65.6243,30.2657 L65.7698,30.1202 M65.7698,30.1202 L65.9153,30.1202 M65.9153,30.1202 L66.0608,30.1202 M66.0608,30.1202 L66.2063,29.9747 M66.2063,29.9747 L66.3518,29.9747 M66.3518,29.9747 L66.4973,29.8292 M66.4973,29.8292 L66.6428,29.8292 M66.6428,29.8292 L66.7883,29.8292 M66.7883,29.8292 L66.9339,29.6837 M66.9339,29.6837 L67.2249,29.6837 M67.2249,29.6837 L67.3704,29.6837 M67.3704,29.6837 L67.5159,29.6837 M67.5159,29.6837 L67.6614,29.5382 M67.6614,29.5382 L67.8069,29.5382 M67.8069,29.5382 L67.9524,29.5382 M67.9524,29.5382 L68.0979,29.5382 M68.0979,29.5382 L68.2434,29.3927 M68.2434,29.3927 L68.3889,29.3927 M68.3889,29.3927 L68.5344,29.3927 M68.5344,29.3927 L68.68,29.3927 M68.68,29.3927 L68.8255,29.3927 M68.8255,29.3927 L68.971,29.3927 M68.971,29.3927 L69.262,29.3927 M69.262,29.3927 L69.4075,29.5382 M69.4075,29.5382 L69.553,29.5382 M69.553,29.5382 L69.844,29.5382 M69.844,29.5382 L70.135,29.6837 M70.135,29.6837 L70.2805,29.6837 M70.2805,29.6837 L70.4261,29.8292 M70.4261,29.8292 L70.7171,29.8292 M70.7171,29.8292 L70.8626,29.8292 M70.8626,29.8292 L71.0081,29.9747 M71.0081,29.9747 L71.1536,29.9747 M71.1536,29.9747 L71.2991,29.9747 M71.2991,29.9747 L71.4446,30.1202 M71.4446,30.1202 L71.5901,30.1202 M71.5901,30.1202 L71.7356,30.1202 M71.7356,30.1202 L71.8811,30.1202 M71.8811,30.1202 L72.0266,30.1202 M72.0266,30.1202 L72.1722,30.2657 M72.1722,30.2657 L72.4632,30.2657 M72.4632,30.2657 L72.6087,30.2657 M72.6087,30.2657 L72.8997,30.2657 M72.8997,30.2657 L73.0452,30.2657 M73.0452,30.2657 L73.3362,30.2657 M73.3362,30.2657 L73.4817,30.2657 M73.4817,30.2657 L73.7727,30.2657 M73.7727,30.2657 L73.9183,30.2657 M73.9183,30.2657 L74.2093,30.2657 M74.2093,30.2657 L74.5003,30.2657 M74.5003,30.2657 L74.7913,30.1202 M74.7913,30.1202 L74.9368,30.1202 M74.9368,30.1202 L75.0823,30.1202 M75.0823,30.1202 L75.3733,30.1202 M75.3733,30.1202 L75.6644,29.9747 M75.6644,29.9747 L75.8099,29.9747 M75.8099,29.9747 L75.9554,29.8292 M75.9554,29.8292 L76.1009,29.8292 M76.1009,29.8292 L76.2464,29.8292 M76.2464,29.8292 L76.5374,29.8292 M76.5374,29.8292 L76.6829,29.6837 M76.6829,29.6837 L76.9739,29.6837 M76.9739,29.6837 L77.2649,29.6837 M77.2649,29.6837 L77.556,29.6837 M77.556,29.6837 L77.847,29.6837 M77.847,29.6837 L78.2835,29.6837 M78.2835,29.6837 L78.5745,29.5382 M78.5745,29.5382 L79.011,29.5382 M79.011,29.5382 L79.3021,29.5382 M79.3021,29.5382 L79.5931,29.5382 M79.5931,29.5382 L80.0296,29.5382 M80.0296,29.5382 L80.3206,29.5382 M80.3206,29.5382 L80.6116,29.5382 M80.6116,29.5382 L81.0482,29.5382 M81.0482,29.5382 L81.3392,29.5382 M81.3392,29.5382 L81.6302,29.5382 M81.6302,29.5382 L82.0667,29.5382 M82.0667,29.5382 L82.3577,29.5382 M82.3577,29.5382 L82.6488,29.6837 M82.6488,29.6837 L82.9398,29.6837 M82.9398,29.6837 L83.2308,29.6837 M83.2308,29.6837 L83.5218,29.6837 M83.5218,29.6837 L83.9583,29.6837 M83.9583,29.6837 L84.3949,29.6837 M84.3949,29.6837 L84.8314,29.6837 M84.8314,29.6837 L85.1224,29.6837 M85.1224,29.6837 L85.4134,29.6837 M85.4134,29.6837 L85.5589,29.6837 M85.5589,29.6837 L85.8499,29.6837 M85.8499,29.6837 L86.141,29.6837 M86.141,29.6837 L86.432,29.6837 M86.432,29.6837 L86.723,29.6837 M86.723,29.6837 L87.014,29.6837 M87.014,29.6837 L87.1595,29.6837 M87.1595,29.6837 L87.305,29.5382 M87.305,29.5382 L87.4505,29.5382 M87.4505,29.5382 L87.596,29.5382 M87.596,29.5382 L87.7415,29.5382 M87.7415,29.5382 L87.8871,29.6837 M87.8871,29.6837 L88.0326,29.6837 M88.0326,29.6837 L88.1781,29.6837 M88.1781,29.6837 L88.3236,29.8292 M88.3236,29.8292 L88.4691,29.8292 M88.4691,29.8292 L88.7601,29.8292 M88.7601,29.8292 L88.9056,29.9747 M88.9056,29.9747 L89.0511,30.1202 M89.0511,30.1202 L89.1966,30.1202 M89.1966,30.1202 L89.3421,30.1202 M89.3421,30.1202 L89.4877,30.1202 M89.4877,30.1202 L89.6332,30.1202 M89.6332,30.1202 L89.7787,30.1202 M89.7787,30.1202 L89.9242,30.1202 M89.9242,30.1202 L90.2152,30.1202 M90.2152,30.1202 L90.3607,30.1202 M90.3607,30.1202 L90.5062,30.1202 M90.5062,30.1202 L90.6517,30.1202 M90.6517,30.1202 L90.7972,30.1202 M90.7972,30.1202 L90.9427,30.1202 M90.9427,30.1202 L91.0882,30.1202 M91.0882,30.1202 L91.3793,30.1202 M91.3793,30.1202 L91.5248,30.1202 M91.5248,30.1202 L91.6703,30.2657 M91.6703,30.2657 L91.8158,30.2657 M91.8158,30.2657 L91.9613,30.2657 M91.9613,30.2657 L92.1068,30.2657 M92.1068,30.2657 L92.2523,30.2657 M92.2523,30.2657 L92.3978,30.2657 M92.3978,30.2657 L92.6888,30.2657 M92.6888,30.2657 L92.8343,30.2657 M92.8343,30.2657 L92.9799,30.1202 M92.9799,30.1202 L93.2709,30.1202 M93.2709,30.1202 L93.4164,30.1202 M93.4164,30.1202 L93.7074,30.1202 M93.7074,30.1202 L93.9984,29.9747 M93.9984,29.9747 L94.2894,29.9747 M94.2894,29.9747 L94.5804,29.8292 M94.5804,29.8292 L94.726,29.8292 M94.726,29.8292 L95.017,29.6837 M95.017,29.6837 L95.308,29.6837 M95.308,29.6837 L95.4535,29.5382 M95.4535,29.5382 L95.599,29.5382 M95.599,29.5382 L95.89,29.3927 M95.89,29.3927 L96.0355,29.3927 M96.0355,29.3927 L96.181,29.2472 M96.181,29.2472 L96.4721,29.2472 M96.4721,29.2472 L96.6176,29.1017 M96.6176,29.1017 L96.9086,29.1017 M96.9086,29.1017 L97.0541,29.1017 M97.0541,29.1017 L97.3451,29.1017 M97.3451,29.1017 L97.4906,29.1017 M97.4906,29.1017 L97.6361,29.1017 M97.6361,29.1017 L97.9271,29.1017 M97.9271,29.1017 L98.2182,29.1017 M98.2182,29.1017 L98.3637,29.1017 M98.3637,29.1017 L98.6547,29.1017 M98.6547,29.1017 L98.8002,29.1017 M98.8002,29.1017 L99.0912,29.1017 M99.0912,29.1017 L99.2367,29.1017 M99.2367,29.1017 L99.5277,29.1017 M99.5277,29.1017 L99.6732,29.1017 M99.6732,29.1017 L99.8187,29.1017 M99.8187,29.1017 L100.11,29.1017 M100.11,29.1017 L100.255,29.1017 M100.255,29.1017 L100.401,29.1017 M100.401,29.1017 L100.546,29.1017 M100.546,29.1017 L100.692,29.1017 M100.692,29.1017 L100.837,29.1017 M100.837,29.1017 L101.128,29.1017 M101.128,29.1017 L101.419,29.1017 M101.419,29.1017 L101.565,29.2472 M101.565,29.2472 L101.856,29.2472 M101.856,29.2472 L102.001,29.2472 M102.001,29.2472 L102.292,29.2472 M102.292,29.2472 L102.583,29.2472 M102.583,29.2472 L102.874,29.2472 M102.874,29.2472 L103.165,29.2472 M103.165,29.2472 L103.311,29.2472 M103.311,29.2472 L103.602,29.2472 M103.602,29.2472 L103.747,29.3927 M103.747,29.3927 L104.038,29.3927 M104.038,29.3927 L104.184,29.3927 M104.184,29.3927 L104.475,29.3927 M104.475,29.3927 L104.621,29.5382 M104.621,29.5382 L104.766,29.5382 M104.766,29.5382 L104.912,29.6837 M104.912,29.6837 L105.057,29.6837 M105.057,29.6837 L105.203,29.8292 M105.203,29.8292 L105.348,29.8292 M105.348,29.8292 L105.494,29.8292 M105.494,29.8292 L105.494,29.9747 M105.494,29.9747 L105.639,29.9747 M105.639,29.9747 L105.785,30.1202 M105.785,30.1202 L105.93,30.1202 M105.93,30.1202 L106.076,30.1202 M106.076,30.1202 L106.221,30.2657 M106.221,30.2657 L106.367,30.2657 M106.367,30.2657 L106.658,30.4113 M106.658,30.4113 L106.803,30.4113 M106.803,30.4113 L106.949,30.4113 M106.949,30.4113 L107.094,30.5568 M107.094,30.5568 L107.24,30.5568 M107.24,30.5568 L107.385,30.5568 M107.385,30.5568 L107.531,30.5568 M107.531,30.5568 L107.676,30.7023 M107.676,30.7023 L107.822,30.7023 M107.822,30.7023 L107.967,30.7023 M107.967,30.7023 L108.113,30.7023 M108.113,30.7023 L108.258,30.7023 M108.258,30.7023 L108.404,30.7023 M108.404,30.7023 L108.549,30.7023 M108.549,30.7023 L108.695,30.8478 M108.695,30.8478 L108.986,30.8478 M108.986,30.8478 L109.131,30.8478 M109.131,30.8478 L109.422,30.8478 M109.422,30.8478 L109.568,30.8478 M109.568,30.8478 L109.859,30.8478 M109.859,30.8478 L110.004,30.8478 M110.004,30.8478 L110.15,30.8478 M110.15,30.8478 L110.295,30.8478 M110.295,30.8478 L110.441,30.7023 M110.441,30.7023 L110.586,30.7023 M110.586,30.7023 L110.732,30.7023 M110.732,30.7023 L110.877,30.7023 M110.877,30.7023 L111.023,30.7023 M111.023,30.7023 L111.168,30.7023 M111.168,30.7023 L111.314,30.5568 M111.314,30.5568 L111.459,30.5568 M111.459,30.5568 L111.605,30.5568 M111.605,30.5568 L111.605,30.4113 M111.605,30.4113 L111.75,30.4113 M111.75,30.4113 L111.896,30.2657 M111.896,30.2657 L112.041,30.1202 M112.041,30.1202 L112.187,29.9747 M112.187,29.9747 L112.332,29.9747 M112.332,29.9747 L112.478,29.8292 M112.478,29.8292 L112.623,29.8292 M112.623,29.8292 L112.769,29.6837 M112.769,29.6837 L112.914,29.6837 M112.914,29.6837 L113.06,29.5382 M113.06,29.5382 L113.206,29.5382 M113.206,29.5382 L113.351,29.5382 M113.351,29.5382 L113.497,29.5382 M113.497,29.5382 L113.497,29.3927 M113.497,29.3927 L113.642,29.3927 M113.642,29.3927 L113.788,29.3927 M113.788,29.3927 L113.933,29.3927 M113.933,29.3927 L114.079,29.3927 M114.079,29.3927 L114.224,29.3927 M114.224,29.3927 L114.37,29.3927 M114.37,29.3927 L114.515,29.3927 M114.515,29.3927 L114.661,29.3927 M114.661,29.3927 L114.806,29.3927 M114.806,29.3927 L114.952,29.3927 M114.952,29.3927 L115.097,29.3927 M115.097,29.3927 L115.243,29.3927 M115.243,29.3927 L115.388,29.3927 M115.388,29.3927 L115.534,29.3927 M115.534,29.3927 L115.679,29.3927 M115.679,29.3927 L115.825,29.3927 M115.825,29.3927 L115.97,29.3927 M115.97,29.3927 L116.116,29.3927 M116.116,29.3927 L116.261,29.3927 M116.261,29.3927 L116.407,29.3927 M116.407,29.3927 L116.552,29.5382 M116.552,29.5382 L116.698,29.5382 M116.698,29.5382 L116.843,29.5382 M116.843,29.5382 L116.989,29.5382 M116.989,29.5382 L117.134,29.5382 M117.134,29.5382 L117.28,29.5382 M117.28,29.5382 L117.425,29.5382 M117.425,29.5382 L117.571,29.6837 M117.571,29.6837 L117.716,29.6837 M117.716,29.6837 L117.862,29.6837 M117.862,29.6837 L118.007,29.6837 M118.007,29.6837 L118.007,29.8292 M118.007,29.8292 L118.153,29.8292 M118.153,29.8292 L118.298,29.8292 M118.298,29.8292 L118.444,29.8292 M118.444,29.8292 L118.589,29.8292 M118.589,29.8292 L118.735,29.8292 M118.735,29.8292 L118.88,29.8292 M118.88,29.8292 L119.026,29.8292 M119.026,29.8292 L119.171,29.8292 M119.171,29.8292 L119.317,29.8292 M119.317,29.8292 L119.462,29.8292 M119.462,29.8292 L119.608,29.8292 M119.608,29.8292 L119.753,29.8292 M119.753,29.8292 L119.899,29.8292 M119.899,29.8292 L120.044,29.8292 " style="stroke:#000000;stroke-width:0.5;"/>
        <!-- Polyline -->
        <path d="M210,30 L210.146,30 M210.146,30 L210.291,30 M210.291,30 L210.291,29.8545 M210.291,29.8545 L210.437,29.8545 M210.437,29.8545 L210.582,29.8545 M210.582,29.8545 L210.728,29.8545 M210.728,29.8545 L211.019,29.8545 M211.019,29.8545 L211.31,29.8545 M211.31,29.8545 L211.455,29.8545 M211.455,29.8545 L211.746,29.8545 M211.746,29.8545 L212.037,29.8545 M212.037,29.8545 L212.328,30 M212.328,30 L212.619,30 M212.619,30 L212.765,30 M212.765,30 L212.91,30 M212.91,30 L213.056,30 M213.056,30 L213.201,30 M213.201,30 L213.347,30 M213.347,30 L213.492,30 M213.492,30 L213.638,30 M213.638,30 L213.783,30 M213.783,30 L213.929,30 M213.929,30 L214.074,30.1455 M214.074,30.1455 L214.22,30.1455 M214.22,30.1455 L214.511,30.1455 M214.511,30.1455 L214.656,30.1455 M214.656,30.1455 L214.802,30.1455 M214.802,30.1455 L214.947,30.1455 M214.947,30.1455 L215.093,30.1455 M215.093,30.1455 L215.238,30 M215.238,30 L215.384,30 M215.384,30 L215.529,30 M215.529,30 L215.675,30 M215.675,30 L215.82,29.8545 M215.82,29.8545 L215.966,29.8545 M215.966,29.8545 L216.111,29.8545 M216.111,29.8545 L216.257,29.709 M216.257,29.709 L216.402,29.709 M216.402,29.709 L216.548,29.5635 M216.548,29.5635 L216.693,29.5635 M216.693,29.5635 L216.839,29.5635 M216.839,29.5635 L216.984,29.418 M216.984,29.418 L217.275,29.418 M217.275,29.418 L217.421,29.418 M217.421,29.418 L217.566,29.418 M217.566,29.418 L217.712,29.2725 M217.712,29.2725 L217.857,29.2725 M217.857,29.2725 L218.003,29.2725 M218.003,29.2725 L218.148,29.2725 M218.148,29.2725 L218.294,29.1269 M218.294,29.1269 L218.439,29.1269 M218.439,29.1269 L218.585,29.1269 M218.585,29.1269 L218.731,29.1269 M218.731,29.1269 L218.876,29.1269 M218.876,29.1269 L219.022,29.1269 M219.022,29.1269 L219.313,29.1269 M219.313,29.1269 L219.458,29.2725 M219.458,29.2725 L219.604,29.2725 M219.604,29.2725 L219.895,29.2725 M219.895,29.2725 L220.186,29.418 M220.186,29.418 L220.331,29.418 M220.331,29.418 L220.477,29.5635 M220.477,29.5635 L220.768,29.5635 M220.768,29.5635 L220.913,29.5635 M220.913,29.5635 L221.059,29.709 M221.059,29.709 L221.204,29.709 M221.204,29.709 L221.35,29.709 M221.35,29.709 L221.495,29.8545 M221.495,29.8545 L221.641,29.8545 M221.641,29.8545 L221.786,29.8545 M221.786,29.8545 L221.932,29.8545 M221.932,29.8545 L222.077,29.8545 M222.077,29.8545 L222.223,30 M222.223,30 L222.514,30 M222.514,30 L222.659,30 M222.659,30 L222.95,30 M222.95,30 L223.096,30 M223.096,30 L223.387,30 M223.387,30 L223.532,30 M223.532,30 L223.823,30 M223.823,30 L223.969,30 M223.969,30 L224.26,30 M224.26,30 L224.551,30 M224.551,30 L224.842,29.8545 M224.842,29.8545 L224.987,29.8545 M224.987,29.8545 L225.133,29.8545 M225.133,29.8545 L225.424,29.8545 M225.424,29.8545 L225.715,29.709 M225.715,29.709 L225.86,29.709 M225.86,29.709 L226.006,29.5635 M226.006,29.5635 L226.151,29.5635 M226.151,29.5635 L226.297,29.5635 M226.297,29.5635 L226.588,29.5635 M226.588,29.5635 L226.733,29.418 M226.733,29.418 L227.024,29.418 M227.024,29.418 L227.315,29.418 M227.315,29.418 L227.607,29.418 M227.607,29.418 L227.898,29.418 M227.898,29.418 L228.334,29.418 M228.334,29.418 L228.625,29.2725 M228.625,29.2725 L229.062,29.2725 M229.062,29.2725 L229.353,29.2725 M229.353,29.2725 L229.644,29.2725 M229.644,29.2725 L230.08,29.2725 M230.08,29.2725 L230.371,29.2725 M230.371,29.2725 L230.662,29.2725 M230.662,29.2725 L231.099,29.2725 M231.099,29.2725 L231.39,29.2725 M231.39,29.2725 L231.681,29.2725 M231.681,29.2725 L232.117,29.2725 M232.117,29.2725 L232.408,29.2725 M232.408,29.2725 L232.699,29.418 M232.699,29.418 L232.99,29.418 M232.99,29.418 L233.281,29.418 M233.281,29.418 L233.572,29.418 M233.572,29.418 L234.009,29.418 M234.009,29.418 L234.445,29.418 M234.445,29.418 L234.882,29.418 M234.882,29.418 L235.173,29.418 M235.173,29.418 L235.464,29.418 M235.464,29.418 L235.609,29.418 M235.609,29.418 L235.9,29.418 M235.9,29.418 L236.192,29.418 M236.192,29.418 L236.483,29.418 M236.483,29.418 L236.774,29.418 M236.774,29.418 L237.065,29.418 M237.065,29.418 L237.21,29.418 M237.21,29.418 L237.356,29.2725 M237.356,29.2725 L237.501,29.2725 M237.501,29.2725 L237.647,29.2725 M237.647,29.2725 L237.792,29.2725 M237.792,29.2725 L237.938,29.418 M237.938,29.418 L238.083,29.418 M238.083,29.418 L238.229,29.418 M238.229,29.418 L238.374,29.5635 M238.374,29.5635 L238.52,29.5635 M238.52,29.5635 L238.811,29.5635 M238.811,29.5635 L238.956,29.709 M238.956,29.709 L239.102,29.8545 M239.102,29.8545 L239.247,29.8545 M239.247,29.8545 L239.393,29.8545 M239.393,29.8545 L239.538,29.8545 M239.538,29.8545 L239.684,29.8545 M239.684,29.8545 L239.829,29.8545 M239.829,29.8545 L239.975,29.8545 M239.975,29.8545 L240.266,29.8545 M240.266,29.8545 L240.411,29.8545 M240.411,29.8545 L240.557,29.8545 M240.557,29.8545 L240.702,29.8545 M240.702,29.8545 L240.848,29.8545 M240.848,29.8545 L240.993,29.8545 M240.993,29.8545 L241.139,29.8545 M241.139,29.8545 L241.43,29.8545 M241.43,29.8545 L241.575,29.8545 M241.575,29.8545 L241.721,30 M241.721,30 L241.866,30 M241.866,30 L242.012,30 M242.012,30 L242.157,30 M242.157,30 L242.303,30 M242.303,30 L242.448,30 M242.448,30 L242.739,30 M242.739,30 L242.885,30 M242.885,30 L243.03,29.8545 M243.03,29.8545 L243.321,29.8545 M243.321,29.8545 L243.467,29.8545 M243.467,29.8545 L243.758,29.8545 M243.758,29.8545 L244.049,29.709 M244.049,29.709 L244.34,29.709 M244.34,29.709 L244.631,29.5635 M244.631,29.5635 L244.777,29.5635 M244.777,29.5635 L245.068,29.418 M245.068,29.418 L245.359,29.418 M245.359,29.418 L245.504,29.2725 M245.504,29.2725 L245.65,29.2725 M245.65,29.2725 L245.941,29.1269 M245.941,29.1269 L246.086,29.1269 M246.086,29.1269 L246.232,28.9814 M246.232,28.9814 L246.523,28.9814 M246.523,28.9814 L246.668,28.8359 M246.668,28.8359 L246.959,28.8359 M246.959,28.8359 L247.105,28.8359 M247.105,28.8359 L247.396,28.8359 M247.396,28.8359 L247.541,28.8359 M247.541,28.8359 L247.687,28.8359 M247.687,28.8359 L247.978,28.8359 M247.978,28.8359 L248.269,28.8359 M248.269,28.8359 L248.414,28.8359 M248.414,28.8359 L248.705,28.8359 M248.705,28.8359 L248.851,28.8359 M248.851,28.8359 L249.142,28.8359 M249.142,28.8359 L249.287,28.8359 M249.287,28.8359 L249.578,28.8359 M249.578,28.8359 L249.724,28.8359 M249.724,28.8359 L249.869,28.8359 M249.869,28.8359 L250.16,28.8359 M250.16,28.8359 L250.306,28.8359 M250.306,28.8359 L250.451,28.8359 M250.451,28.8359 L250.597,28.8359 M250.597,28.8359 L250.742,28.8359 M250.742,28.8359 L250.888,28.8359 M250.888,28.8359 L251.179,28.8359 M251.179,28.8359 L251.47,28.8359 M251.47,28.8359 L251.615,28.9814 M251.615,28.9814 L251.906,28.9814 M251.906,28.9814 L252.052,28.9814 M252.052,28.9814 L252.343,28.9814 M252.343,28.9814 L252.634,28.9814 M252.634,28.9814 L252.925,28.9814 M252.925,28.9814 L253.216,28.9814 M253.216,28.9814 L253.361,28.9814 M253.361,28.9814 L253.653,28.9814 M253.653,28.9814 L253.798,29.1269 M253.798,29.1269 L254.089,29.1269 M254.089,29.1269 L254.235,29.1269 M254.235,29.1269 L254.526,29.1269 M254.526,29.1269 L254.671,29.2725 M254.671,29.2725 L254.817,29.2725 M254.817,29.2725 L254.962,29.418 M254.962,29.418 L255.108,29.418 M255.108,29.418 L255.253,29.5635 M255.253,29.5635 L255.399,29.5635 M255.399,29.5635 L255.544,29.5635 M255.544,29.5635 L255.544,29.709 M255.544,29.709 L255.69,29.709 M255.69,29.709 L255.835,29.8545 M255.835,29.8545 L255.981,29.8545 M255.981,29.8545 L256.126,29.8545 M256.126,29.8545 L256.272,30 M256.272,30 L256.417,30 M256.417,30 L256.708,30.1455 M256.708,30.1455 L256.854,30.1455 M256.854,30.1455 L256.999,30.1455 M256.999,30.1455 L257.145,30.291 M257.145,30.291 L257.29,30.291 M257.29,30.291 L257.436,30.291 M257.436,30.291 L257.581,30.291 M257.581,30.291 L257.727,30.4365 M257.727,30.4365 L257.872,30.4365 M257.872,30.4365 L258.018,30.4365 M258.018,30.4365 L258.163,30.4365 M258.163,30.4365 L258.309,30.4365 M258.309,30.4365 L258.454,30.4365 M258.454,30.4365 L258.6,30.4365 M258.6,30.4365 L258.745,30.582 M258.745,30.582 L259.036,30.582 M259.036,30.582 L259.182,30.582 M259.182,30.582 L259.473,30.582 M259.473,30.582 L259.618,30.582 M259.618,30.582 L259.909,30.582 M259.909,30.582 L260.055,30.582 M260.055,30.582 L260.2,30.582 M260.2,30.582 L260.346,30.582 M260.346,30.582 L260.491,30.4365 M260.491,30.4365 L260.637,30.4365 M260.637,30.4365 L260.782,30.4365 M260.782,30.4365 L260.928,30.4365 M260.928,30.4365 L261.073,30.4365 M261.073,30.4365 L261.219,30.4365 M261.219,30.4365 L261.364,30.291 M261.364,30.291 L261.51,30.291 M261.51,30.291 L261.655,30.291 M261.655,30.291 L261.655,30.1455 M261.655,30.1455 L261.801,30.1455 M261.801,30.1455 L261.946,30 M261.946,30 L262.092,29.8545 M262.092,29.8545 L262.238,29.709 M262.238,29.709 L262.383,29.709 M262.383,29.709 L262.529,29.5635 M262.529,29.5635 L262.674,29.5635 M262.674,29.5635 L262.82,29.418 M262.82,29.418 L262.965,29.418 M262.965,29.418 L263.111,29.2725 M263.111,29.2725 L263.256,29.2725 M263.256,29.2725 L263.402,29.2725 M263.402,29.2725 L263.547,29.2725 M263.547,29.2725 L263.547,29.1269 M263.547,29.1269 L263.693,29.1269 M263.693,29.1269 L263.838,29.1269 M263.838,29.1269 L263.984,29.1269 M263.984,29.1269 L264.129,29.1269 M264.129,29.1269 L264.275,29.1269 M264.275,29.1269 L264.42,29.1269 M264.42,29.1269 L264.566,29.1269 M264.566,29.1269 L264.711,29.1269 M264.711,29.1269 L264.857,29.1269 M264.857,29.1269 L265.002,29.1269 M265.002,29.1269 L265.148,29.1269 M265.148,29.1269 L265.293,29.1269 M265.293,29.1269 L265.439,29.1269 M265.439,29.1269 L265.584,29.1269 M265.584,29.1269 L265.73,29.1269 M265.73,29.1269 L265.875,29.1269 M265.875,29.1269 L266.021,29.1269 M266.021,29.1269 L266.166,29.1269 M266.166,29.1269 L266.312,29.1269 M266.312,29.1269 L266.457,29.1269 M266.457,29.1269 L266.603,29.2725 M266.603,29.2725 L266.748,29.2725 M266.748,29.2725 L266.894,29.2725 M266.894,29.2725 L267.039,29.2725 M267.039,29.2725 L267.185,29.2725 M267.185,29.2725 L267.33,29.2725 M267.33,29.2725 L267.476,29.2725 M267.476,29.2725 L267.621,29.418 M267.621,29.418 L267.767,29.418 M267.767,29.418 L267.912,29.418 M267.912,29.418 L268.058,29.418 M268.058,29.418 L268.058,29.5635 M268.058,29.5635 L268.203,29.5635 M268.203,29.5635 L268.349,29.5635 M268.349,29.5635 L268.494,29.5635 M268.494,29.5635 L268.64,29.5635 M268.64,29.5635 L268.785,29.5635 M268.785,29.5635 L268.931,29.5635 M268.931,29.5635 L269.076,29.5635 M269.076,29.5635 L269.222,29.5635 M269.222,29.5635 L269.367,29.5635 M269.367,29.5635 L269.513,29.5635 M269.513,29.5635 L269.658,29.5635 M269.658,29.5635 L269.804,29.5635 M269.804,29.5635 L269.949,29.5635 M269.949,29.5635 L270.095,29.5635 " style="stroke:#000000;stroke-width:0.5;"/>
    </g>
</svg>
