<?xml version="1.0" encoding="UTF-8"?>
<!-- 2016-05-25 09:54:21 Generated by QCAD SVG Exporter -->
<svg width="210" height="90" viewBox="30 -120 210 90" version="1.1" xmlns="http://www.w3.org/2000/svg" style="stroke-linecap:round;stroke-linejoin:round;fill:none">
    <g transform="scale(1,-1)">
        <!-- Circle -->
        <circle cx="60" cy="90" r="15" style="stroke:#000000;stroke-width:1;"/>
        <!-- Hatch -->
        <g>
            <path d="M102,30 L120,48.000000000000014" style="stroke:#000000;stroke-width:0.5;"/>
            <path d="M78,30 L120,72" style="stroke:#000000;stroke-width:0.5;"/>
            <path d="M53.999999999999986,30 L120,96" style="stroke:#000000;stroke-width:0.5;"/>
            <path d="M30.00000000000001,30.000000000000004 L120,119.99999999999999" style="stroke:#000000;stroke-width:0.5;"/>
            <path d="M30,53.999999999999986 L96,120" style="stroke:#000000;stroke-width:0.5;"/>
            <path d="M30,78 L72,120" style="stroke:#000000;stroke-width:0.5;"/>
            <path d="M30,102 L48.000000000000014,120" style="stroke:#000000;stroke-width:0.5;"/>
        </g>
        <!-- Hatch -->
        <g>
            <path d="M222,30 L240,48" style="stroke:#000000;stroke-width:0.5;"/>
            <path d="M198,30 L240,72" style="stroke:#000000;stroke-width:0.5;"/>
            <path d="M174,30 L240,96" style="stroke:#000000;stroke-width:0.5;"/>
            <path d="M150,30 L240,120" style="stroke:#000000;stroke-width:0.5;"/>
            <path d="M150,54 L172.8265050253121,76.82650502531209" style="stroke:#000000;stroke-width:0.5;"/>
            <path d="M193.17349497468794,97.17349497468794 L216,120" style="stroke:#000000;stroke-width:0.5;"/>
            <path d="M150,78 L165.38751391983908,93.3875139198391" style="stroke:#000000;stroke-width:0.5;"/>
            <path d="M176.6124860801609,104.6124860801609 L192,120" style="stroke:#000000;stroke-width:0.5;"/>
            <path d="M150,102 L168,120" style="stroke:#000000;stroke-width:0.5;"/>
        </g>
        <!-- Line -->
        <path d="M30,30 L30,120 " style="stroke:#ff0000;stroke-width:1;"/>
        <!-- Line -->
        <path d="M30,120 L120,120 " style="stroke:#ff0000;stroke-width:1;"/>
        <!-- Line -->
        <path d="M120,120 L120,30 " style="stroke:#ff0000;stroke-width:1;"/>
        <!-- Line -->
        <path d="M120,30 L30,30 " style="stroke:#ff0000;stroke-width:1;"/>
        <!-- Line -->
        <path d="M150,30 L150,120 " style="stroke:#ff0000;stroke-width:1;"/>
        <!-- Line -->
        <path d="M150,120 L240,120 " style="stroke:#ff0000;stroke-width:1;"/>
        <!-- Line -->
        <path d="M240,120 L240,30 " style="stroke:#ff0000;stroke-width:1;"/>
        <!-- Line -->
        <path d="M240,30 L150,30 " style="stroke:#ff0000;stroke-width:1;"/>
        <!-- Circle -->
        <circle cx="180" cy="90" r="15" style="stroke:#ff0000;stroke-width:1;"/>
    </g>
</svg>
