<svg width="87.2234" fill="none" xmlns="http://www.w3.org/2000/svg" height="50.738" viewBox="2.98329 -60.175 87.2234 50.738" stroke-linejoin="round" stroke-linecap="round">
<g transform="scale(1 -1)">
<path stroke="#000" stroke-width=".13" d="m86,30l4,4m-12-4l12,12m-20-12l20,20m-20-12l12,12m-12-4l10,10m-10-2l6,6"/>
<g stroke-width=".35">
<g stroke="#000">
<path d="m70,10v20"/>
<path d="m90,30v-20"/>
</g>
<g stroke="#f00">
<path d="m20,10v50"/>
<path d="m20,60h10"/>
<path d="m30,60v-10"/>
<path d="m30,50h10"/>
<path d="m40,50v-40"/>
<path d="m70,30v30"/>
<path d="m70,60h10"/>
<path d="m80,60v-10"/>
<path d="m80,50h10"/>
<path d="m90,50v-20"/>
<path d="m70,30h20"/>
<path d="m20,30h20"/>
</g>
</g>
<g stroke="#000" stroke-width=".13">
<path d="m16.6171,29.9873l2.6741,4.011"/>
<path d="m16.6203,29.657l2.6568-3.7689"/>
<path d="m66.1722,30.2131l3.2129,4.5103"/>
<path d="m66.1722,29.7806l3.2129-4.5721"/>
<path d="m19.9832,10.0886h.0485 .0485v-.0485h.0485 .0485 .0485 .097 .097 .0485 .097 .097l.097,.0485h.097 .0485 .0485 .0485 .0485 .0485 .0485 .0485 .0485 .0485l.0485,.0485h.0485 .097 .0485 .0485 .0485 .0485l.0486-.0485h.0485 .0485 .0485l.0485-.0485h.0485 .0485l.0485-.0485h.0485l.0485-.0485h.0485 .0485l.0485-.0485h.097 .0485 .0485l.0485-.0485h.0485 .0485 .0485l.0485-.0485h.0485 .0485 .0485 .0485 .0485 .097l.0485,.0485h.0485 .097l.097,.0485h.0485l.0486,.0485h.097 .0485l.0485,.0485h.0485 .0485l.0485,.0485h.0485 .0485 .0485 .0485l.0485,.0485h.097 .0485 .097 .0485 .097 .0485 .097 .0485 .097 .097l.097-.0485h.0485 .0485 .097l.0971-.0485h.0485l.0485-.0485h.0485 .0485 .097l.0485-.0485h.097 .097 .097 .097 .1455l.097-.0485h.1455 .097 .097 .1455 .097 .097 .1456 .097 .097 .1455 .097l.097,.0485h.097 .097 .097 .1455 .1455 .1455 .097 .097 .0485 .097 .0971 .097 .097 .097 .0485l.0485-.0485h.0485 .0485 .0485l.0485,.0485h.0485 .0485l.0485,.0485h.0485 .097l.0485,.0485 .0485,.0485h.0485 .0485 .0485 .0485 .0485 .0485 .097 .0485 .0485 .0485 .0485 .0485 .0485 .0971 .0485l.0485,.0485h.0485 .0485 .0485 .0485 .0485 .097 .0485l.0485-.0485h.097 .0485 .097l.097-.0485h.097l.097-.0485h.0485l.097-.0485h.097l.0485-.0485h.0485l.097-.0485h.0485l.0485-.0485h.0971l.0485-.0485h.097 .0485 .097 .0485 .0485 .097 .097 .0485 .097 .0485 .097 .0485 .097 .0485 .0485 .097 .0485 .0485 .0485 .0485 .0485 .097 .097l.0485,.0485h.0971 .0485 .097 .097 .097 .097 .0485 .097l.0485,.0485h.097 .0485 .097l.0485,.0485h.0485l.0485,.0485h.0485l.0485,.0485h.0485 .0485v.0485h.0485l.0485,.0485h.0485 .0485l.0485,.0485h.0485l.097,.0485h.0485 .0486l.0485,.0485h.0485 .0485 .0485l.0485,.0485h.0485 .0485 .0485 .0485 .0485 .0485l.0485,.0485h.097 .0485 .097 .0485 .097 .0485 .0485 .0485l.0485-.0485h.0485 .0485 .0485 .0485 .0485l.0485-.0485h.0485 .0485v-.0485h.0485l.0485-.0485 .0485-.0485 .0486-.0485h.0485l.0485-.0485h.0485l.0485-.0485h.0485l.0485-.0485h.0485 .0485 .0485v-.0485h.0485 .0485 .0485 .0485 .0485 .0485 .0485 .0485 .0485 .0485 .0485 .0485 .0485 .0485 .0485 .0485 .0485 .0485 .0485 .0485l.0485,.0485h.0485 .0485 .0485 .0485 .0485 .0486l.0485,.0485h.0485 .0485 .0485v.0485h.0485 .0485 .0485 .0485 .0485 .0485 .0485 .0485 .0485 .0485 .0485 .0485 .0485 .0485"/>
<path d="m70,10h.0485 .0485v-.0485h.0485 .0485 .0485 .097 .097 .0485 .097 .097l.097,.0485h.0971 .0485 .0485 .0485 .0485 .0485 .0485 .0485 .0485 .0485l.0485,.0485h.0485 .097 .0485 .0485 .0485 .0485l.0485-.0485h.0485 .0485 .0485l.0485-.0485h.0485 .0485l.0485-.0485h.0485l.0485-.0485h.0485 .0485l.0485-.0485h.097 .0485 .0485l.0485-.0485h.0486 .0485 .0485l.0485-.0485h.0485 .0485 .0485 .0485 .0485 .097l.0485,.0485h.0485 .097l.097,.0485h.0485l.0485,.0485h.097 .0485l.0485,.0485h.0485 .0485l.0485,.0485h.0485 .0485 .0485 .0485l.0485,.0485h.097 .0485 .097 .0486 .097 .0485 .097 .0485 .097 .097l.097-.0485h.0485 .0485 .097l.097-.0485h.0485l.0485-.0485h.0485 .0485 .097l.0485-.0485h.097 .097 .097 .097 .1456l.097-.0485h.1455 .097 .097 .1455 .097 .097 .1455 .097 .097 .1455 .097l.097,.0485h.097 .097 .0971 .1455 .1455 .1455 .097 .097 .0485 .097 .097 .097 .097 .097 .0485l.0485-.0485h.0485 .0485 .0485l.0485,.0485h.0485 .0485l.0485,.0485h.0485 .0971l.0485,.0485 .0485,.0485h.0485 .0485 .0485 .0485 .0485 .0485 .097 .0485 .0485 .0485 .0485 .0485 .0485 .097 .0485l.0485,.0485h.0485 .0485 .0485 .0485 .0485 .097 .0485l.0485-.0485h.097 .0485 .097l.0971-.0485h.097l.097-.0485h.0485l.097-.0485h.097l.0485-.0485h.0485l.097-.0485h.0485l.0485-.0485h.097l.0485-.0485h.097 .0485 .097 .0485 .0485 .097 .097 .0485 .097 .0485 .0971 .0485 .097 .0485 .0485 .097 .0485 .0485 .0485 .0485 .0485 .097 .097l.0485,.0485h.097 .0485 .097 .097 .097 .097 .0485 .097l.0485,.0485h.097 .0485 .0971l.0485,.0485h.0485l.0485,.0485h.0485l.0485,.0485h.0485 .0485v.0485h.0485l.0485,.0485h.0485 .0485l.0485,.0485h.0485l.097,.0485h.0485 .0485l.0485,.0485h.0485 .0485 .0485l.0485,.0485h.0485 .0485 .0485 .0485 .0485 .0485l.0485,.0485h.097 .0485 .097 .0486 .097 .0485 .0485 .0485l.0485-.0485h.0485 .0485 .0485 .0485 .0485l.0485-.0485h.0485 .0485v-.0485h.0485l.0485-.0485 .0485-.0485 .0485-.0485h.0485l.0485-.0485h.0485l.0485-.0485h.0485l.0485-.0485h.0485 .0485 .0485v-.0485h.0485 .0485 .0485 .0485 .0485 .0485 .0485 .0485 .0486 .0485 .0485 .0485 .0485 .0485 .0485 .0485 .0485 .0485 .0485 .0485l.0485,.0485h.0485 .0485 .0485 .0485 .0485 .0485l.0485,.0485h.0485 .0485 .0485v.0485h.0485 .0485 .0485 .0485 .0485 .0485 .0485 .0485 .0485 .0485 .0485 .0485 .0486 .0485"/>
</g>
<g fill="#000" fill-rule="evenodd">
<path d="m3.1583,29.0489v2h1.4461v-.236h-1.1814v-.6126h1.1064v-.2347h-1.1064v-.6807h1.2278v-.236h-1.4925m1.8278,1.7176v.2824h.2456v-.2824h-.2456m0-1.7176v1.4488h.2456v-1.4488h-.2456m.619,0v1.4488h.221v-.206c.1064,.1592 .2601,.2388 .4611,.2388 .0873,0 .1676-.0157 .2408-.0471 .0732-.0314 .128-.0725 .1644-.1235 .0364-.0509 .0618-.1114 .0764-.1814 .0091-.0455 .0136-.1251 .0136-.2388v-.8908h-.2456v.8813c0,.1-.0095,.1748-.0286,.2244-.0191,.0496-.053,.0891-.1016,.1187-.0487,.0295-.1057,.0443-.1712,.0443-.1046,0-.1949-.0332-.2708-.0996-.0759-.0664-.1139-.1923-.1139-.3779v-.7912h-.2456m2.5455,.4665l.2538-.0313c-.04-.1483-.1141-.2633-.2224-.3452-.1082-.0818-.2465-.1228-.4147-.1228-.2119,0-.3799,.0653-.5041,.1958-.1242,.1305-.1862,.3135-.1862,.5491 0,.2438 .0628,.4329 .1883,.5675 .1255,.1346 .2883,.202 .4884,.202 .1937,0 .352-.066 .4748-.1979 .1228-.1318 .1842-.3174 .1842-.5566 0-.0145-.0005-.0364-.0014-.0655h-1.0805c.0091-.1591 .0541-.281 .1351-.3656 .0809-.0846 .1819-.1269 .3029-.1269 .09,0 .1669,.0237 .2306,.071 .0637,.0473 .1142,.1228 .1514,.2264m-.8063,.397h.809c-.0109,.1219-.0418,.2133-.0928,.2743-.0782,.0945-.1796,.1418-.3042,.1418-.1128,0-.2076-.0377-.2845-.1132-.0768-.0755-.1194-.1764-.1276-.3029m2.1649-.8635v2h.2647v-1.764h.985v-.236h-1.2496m1.5346,1.7176v.2824h.2456v-.2824h-.2456m0-1.7176v1.4488h.2456v-1.4488h-.2456m.619,0v1.4488h.221v-.206c.1064,.1592 .2601,.2388 .4611,.2388 .0873,0 .1676-.0157 .2408-.0471 .0732-.0314 .128-.0725 .1644-.1235 .0364-.0509 .0619-.1114 .0764-.1814 .0091-.0455 .0136-.1251 .0136-.2388v-.8908h-.2455v.8813c0,.1-.0096,.1748-.0287,.2244-.0191,.0496-.0529,.0891-.1016,.1187-.0487,.0295-.1057,.0443-.1712,.0443-.1046,0-.1949-.0332-.2708-.0996-.076-.0664-.1139-.1923-.1139-.3779v-.7912h-.2456m1.5551,1.7176v.2824h.2455v-.2824h-.2455m0-1.7176v1.4488h.2455v-1.4488h-.2455m1.6108,.4665l.2537-.0313c-.04-.1483-.1141-.2633-.2223-.3452-.1083-.0818-.2465-.1228-.4148-.1228-.2119,0-.3799,.0653-.5041,.1958-.1241,.1305-.1862,.3135-.1862,.5491 0,.2438 .0628,.4329 .1883,.5675 .1255,.1346 .2883,.202 .4884,.202 .1937,0 .352-.066 .4747-.1979 .1228-.1318 .1842-.3174 .1842-.5566 0-.0145-.0004-.0364-.0013-.0655h-1.0805c.0091-.1591 .0541-.281 .135-.3656 .081-.0846 .1819-.1269 .3029-.1269 .09,0 .1669,.0237 .2306,.071 .0636,.0473 .1141,.1228 .1514,.2264m-.8063,.397h.809c-.0109,.1219-.0418,.2133-.0928,.2743-.0782,.0945-.1796,.1418-.3042,.1418-.1128,0-.2076-.0377-.2844-.1132-.0769-.0755-.1194-.1764-.1276-.3029"/>
<path d="m50.7799,29.3243v.2455l1.0246,1.2811c.0728,.0909 .1419,.1701 .2074,.2374h-1.116v.236h1.4325v-.236l-1.1228-1.3875-.1214-.1405h1.2769v-.236h-1.5812m2.1022,0l-.4434,1.4488h.2538l.2305-.8363 .086-.311c.0036,.0154 .0286,.115 .075,.2988l.2306,.8485h.2524l.2169-.8404 .0723-.2769 .0832,.2797 .2483,.8376h.2387l-.4529-1.4488h-.2551l-.2306,.8676-.0559,.247-.2933-1.1146h-.2565m2.7418,.4666l.2537-.0314c-.04-.1483-.1141-.2633-.2224-.3452-.1082-.0818-.2464-.1228-.4147-.1228-.2119,0-.3799,.0653-.5041,.1958-.1241,.1305-.1862,.3136-.1862,.5491 0,.2438 .0628,.4329 .1883,.5676 .1255,.1346 .2883,.2019 .4884,.2019 .1937,0 .3519-.066 .4747-.1979 .1228-.1318 .1842-.3174 .1842-.5566 0-.0145-.0005-.0364-.0014-.0655h-1.0805c.0091-.1591 .0542-.281 .1351-.3656 .081-.0846 .1819-.1269 .3029-.1269 .09,0 .1669,.0237 .2305,.071 .0637,.0473 .1142,.1228 .1515,.2265m-.8063,.397h.809c-.0109,.1218-.0418,.2132-.0928,.2742-.0782,.0946-.1796,.1419-.3042,.1419-.1128,0-.2076-.0378-.2845-.1133-.0768-.0755-.1193-.1764-.1275-.3028m1.3695,.854v.2824h.2456v-.2824h-.2456m0-1.7176v1.4488h.2456v-1.4488h-.2456m1.4157,0v2h.2647v-1.764h.985v-.236h-1.2497m1.5346,1.7176v.2824h.2456v-.2824h-.2456m0-1.7176v1.4488h.2456v-1.4488h-.2456m.619,0v1.4488h.221v-.206c.1064,.1592 .2601,.2388 .4611,.2388 .0874,0 .1676-.0157 .2408-.0471 .0733-.0314 .1281-.0725 .1644-.1235 .0364-.0509 .0619-.1114 .0764-.1814 .0091-.0455 .0137-.1251 .0137-.2388v-.8908h-.2456v.8813c0,.1-.0095,.1748-.0286,.2244-.0191,.0496-.053,.0891-.1017,.1187-.0486,.0296-.1057,.0443-.1712,.0443-.1046,0-.1949-.0332-.2708-.0996-.0759-.0663-.1139-.1923-.1139-.3779v-.7912h-.2456m1.5551,1.7176v.2824h.2456v-.2824h-.2456m0-1.7176v1.4488h.2456v-1.4488h-.2456m1.6108,.4666l.2538-.0314c-.0401-.1483-.1142-.2633-.2224-.3452-.1082-.0818-.2465-.1228-.4147-.1228-.212,0-.38,.0653-.5041,.1958-.1242,.1305-.1863,.3136-.1863,.5491 0,.2438 .0628,.4329 .1883,.5676 .1255,.1346 .2883,.2019 .4884,.2019 .1937,0 .352-.066 .4748-.1979 .1228-.1318 .1841-.3174 .1841-.5566 0-.0145-.0004-.0364-.0013-.0655h-1.0805c.0091-.1591 .0541-.281 .1351-.3656 .0809-.0846 .1819-.1269 .3028-.1269 .0901,0 .1669,.0237 .2306,.071 .0636,.0473 .1141,.1228 .1514,.2265m-.8063,.397h.809c-.0109,.1218-.0418,.2132-.0927,.2742-.0782,.0946-.1797,.1419-.3043,.1419-.1127,0-.2076-.0378-.2844-.1133-.0769-.0755-.1194-.1764-.1276-.3028m1.3682-.8636v1.4488h.221v-.206c.1064,.1592 .2601,.2388 .4611,.2388 .0874,0 .1676-.0157 .2408-.0471 .0733-.0314 .1281-.0725 .1644-.1235 .0364-.0509 .0619-.1114 .0764-.1814 .0091-.0455 .0137-.1251 .0137-.2388v-.8908h-.2456v.8813c0,.1-.0095,.1748-.0286,.2244-.0191,.0496-.053,.0891-.1017,.1187-.0486,.0296-.1057,.0443-.1712,.0443-.1046,0-.1949-.0332-.2708-.0996-.0759-.0663-.1139-.1923-.1139-.3779v-.7912h-.2456"/>
</g>
</g>
</svg>
