<?xml version="1.0" encoding="UTF-8"?>
<!-- 2011-10-18 15:44:44 Generated by QCAD SVG Exporter -->
<svg width="87.2234" height="50.738" viewBox="2.98329 -60.175 87.2234 50.738" version="1.1" xmlns="http://www.w3.org/2000/svg" style="stroke-linecap:round;stroke-linejoin:round;fill:none">
    <g transform="scale(1,-1)">
        <!-- Hatch -->
        <path d="M86,30 L90,34 M78,30 L90,42 M70,30 L90,50 M70,38 L82,50 M70,46 L80,56 M70,54 L76,60 " style="stroke:#000000;stroke-width:0.13;"/>
        <!-- Line -->
        <path d="M70,10 L70,30 " style="stroke:#000000;stroke-width:0.35;"/>
        <!-- Line -->
        <path d="M90,30 L90,10 " style="stroke:#000000;stroke-width:0.35;"/>
        <!-- Line -->
        <path d="M20,10 L20,60 " style="stroke:#ff0000;stroke-width:0.35;"/>
        <!-- Line -->
        <path d="M20,60 L30,60 " style="stroke:#ff0000;stroke-width:0.35;"/>
        <!-- Line -->
        <path d="M30,60 L30,50 " style="stroke:#ff0000;stroke-width:0.35;"/>
        <!-- Line -->
        <path d="M30,50 L40,50 " style="stroke:#ff0000;stroke-width:0.35;"/>
        <!-- Line -->
        <path d="M40,50 L40,10 " style="stroke:#ff0000;stroke-width:0.35;"/>
        <!-- Line -->
        <path d="M70,30 L70,60 " style="stroke:#ff0000;stroke-width:0.35;"/>
        <!-- Line -->
        <path d="M70,60 L80,60 " style="stroke:#ff0000;stroke-width:0.35;"/>
        <!-- Line -->
        <path d="M80,60 L80,50 " style="stroke:#ff0000;stroke-width:0.35;"/>
        <!-- Line -->
        <path d="M80,50 L90,50 " style="stroke:#ff0000;stroke-width:0.35;"/>
        <!-- Line -->
        <path d="M90,50 L90,30 " style="stroke:#ff0000;stroke-width:0.35;"/>
        <!-- Line -->
        <path d="M70,30 L90,30 " style="stroke:#ff0000;stroke-width:0.35;"/>
        <!-- Line -->
        <path d="M20,30 L40,30 " style="stroke:#ff0000;stroke-width:0.35;"/>
        <!-- Line -->
        <path d="M16.6171,29.9873 L19.2912,33.9983 " style="stroke:#000000;stroke-width:0.13;"/>
        <!-- Line -->
        <path d="M16.6203,29.657 L19.2771,25.8881 " style="stroke:#000000;stroke-width:0.13;"/>
        <!-- Line -->
        <path d="M66.1722,30.2131 L69.3851,34.7234 " style="stroke:#000000;stroke-width:0.13;"/>
        <!-- Line -->
        <path d="M66.1722,29.7806 L69.3851,25.2085 " style="stroke:#000000;stroke-width:0.13;"/>
        <!-- Polyline -->
        <path d="M19.9832,10.0886 L20.0317,10.0886 M20.0317,10.0886 L20.0802,10.0886 M20.0802,10.0886 L20.0802,10.0401 M20.0802,10.0401 L20.1287,10.0401 M20.1287,10.0401 L20.1772,10.0401 M20.1772,10.0401 L20.2257,10.0401 M20.2257,10.0401 L20.3227,10.0401 M20.3227,10.0401 L20.4197,10.0401 M20.4197,10.0401 L20.4682,10.0401 M20.4682,10.0401 L20.5652,10.0401 M20.5652,10.0401 L20.6622,10.0401 M20.6622,10.0401 L20.7592,10.0886 M20.7592,10.0886 L20.8562,10.0886 M20.8562,10.0886 L20.9047,10.0886 M20.9047,10.0886 L20.9532,10.0886 M20.9532,10.0886 L21.0017,10.0886 M21.0017,10.0886 L21.0502,10.0886 M21.0502,10.0886 L21.0987,10.0886 M21.0987,10.0886 L21.1472,10.0886 M21.1472,10.0886 L21.1957,10.0886 M21.1957,10.0886 L21.2442,10.0886 M21.2442,10.0886 L21.2927,10.0886 M21.2927,10.0886 L21.3412,10.1371 M21.3412,10.1371 L21.3897,10.1371 M21.3897,10.1371 L21.4867,10.1371 M21.4867,10.1371 L21.5352,10.1371 M21.5352,10.1371 L21.5837,10.1371 M21.5837,10.1371 L21.6322,10.1371 M21.6322,10.1371 L21.6807,10.1371 M21.6807,10.1371 L21.7293,10.0886 M21.7293,10.0886 L21.7778,10.0886 M21.7778,10.0886 L21.8263,10.0886 M21.8263,10.0886 L21.8748,10.0886 M21.8748,10.0886 L21.9233,10.0401 M21.9233,10.0401 L21.9718,10.0401 M21.9718,10.0401 L22.0203,10.0401 M22.0203,10.0401 L22.0688,9.99158 M22.0688,9.99158 L22.1173,9.99158 M22.1173,9.99158 L22.1658,9.94307 M22.1658,9.94307 L22.2143,9.94307 M22.2143,9.94307 L22.2628,9.94307 M22.2628,9.94307 L22.3113,9.89457 M22.3113,9.89457 L22.4083,9.89457 M22.4083,9.89457 L22.4568,9.89457 M22.4568,9.89457 L22.5053,9.89457 M22.5053,9.89457 L22.5538,9.84607 M22.5538,9.84607 L22.6023,9.84607 M22.6023,9.84607 L22.6508,9.84607 M22.6508,9.84607 L22.6993,9.84607 M22.6993,9.84607 L22.7478,9.79756 M22.7478,9.79756 L22.7963,9.79756 M22.7963,9.79756 L22.8448,9.79756 M22.8448,9.79756 L22.8933,9.79756 M22.8933,9.79756 L22.9418,9.79756 M22.9418,9.79756 L22.9903,9.79756 M22.9903,9.79756 L23.0873,9.79756 M23.0873,9.79756 L23.1358,9.84607 M23.1358,9.84607 L23.1843,9.84607 M23.1843,9.84607 L23.2813,9.84607 M23.2813,9.84607 L23.3783,9.89457 M23.3783,9.89457 L23.4268,9.89457 M23.4268,9.89457 L23.4754,9.94307 M23.4754,9.94307 L23.5724,9.94307 M23.5724,9.94307 L23.6209,9.94307 M23.6209,9.94307 L23.6694,9.99158 M23.6694,9.99158 L23.7179,9.99158 M23.7179,9.99158 L23.7664,9.99158 M23.7664,9.99158 L23.8149,10.0401 M23.8149,10.0401 L23.8634,10.0401 M23.8634,10.0401 L23.9119,10.0401 M23.9119,10.0401 L23.9604,10.0401 M23.9604,10.0401 L24.0089,10.0401 M24.0089,10.0401 L24.0574,10.0886 M24.0574,10.0886 L24.1544,10.0886 M24.1544,10.0886 L24.2029,10.0886 M24.2029,10.0886 L24.2999,10.0886 M24.2999,10.0886 L24.3484,10.0886 M24.3484,10.0886 L24.4454,10.0886 M24.4454,10.0886 L24.4939,10.0886 M24.4939,10.0886 L24.5909,10.0886 M24.5909,10.0886 L24.6394,10.0886 M24.6394,10.0886 L24.7364,10.0886 M24.7364,10.0886 L24.8334,10.0886 M24.8334,10.0886 L24.9304,10.0401 M24.9304,10.0401 L24.9789,10.0401 M24.9789,10.0401 L25.0274,10.0401 M25.0274,10.0401 L25.1244,10.0401 M25.1244,10.0401 L25.2215,9.99158 M25.2215,9.99158 L25.27,9.99158 M25.27,9.99158 L25.3185,9.94307 M25.3185,9.94307 L25.367,9.94307 M25.367,9.94307 L25.4155,9.94307 M25.4155,9.94307 L25.5125,9.94307 M25.5125,9.94307 L25.561,9.89457 M25.561,9.89457 L25.658,9.89457 M25.658,9.89457 L25.755,9.89457 M25.755,9.89457 L25.852,9.89457 M25.852,9.89457 L25.949,9.89457 M25.949,9.89457 L26.0945,9.89457 M26.0945,9.89457 L26.1915,9.84607 M26.1915,9.84607 L26.337,9.84607 M26.337,9.84607 L26.434,9.84607 M26.434,9.84607 L26.531,9.84607 M26.531,9.84607 L26.6765,9.84607 M26.6765,9.84607 L26.7735,9.84607 M26.7735,9.84607 L26.8705,9.84607 M26.8705,9.84607 L27.0161,9.84607 M27.0161,9.84607 L27.1131,9.84607 M27.1131,9.84607 L27.2101,9.84607 M27.2101,9.84607 L27.3556,9.84607 M27.3556,9.84607 L27.4526,9.84607 M27.4526,9.84607 L27.5496,9.89457 M27.5496,9.89457 L27.6466,9.89457 M27.6466,9.89457 L27.7436,9.89457 M27.7436,9.89457 L27.8406,9.89457 M27.8406,9.89457 L27.9861,9.89457 M27.9861,9.89457 L28.1316,9.89457 M28.1316,9.89457 L28.2771,9.89457 M28.2771,9.89457 L28.3741,9.89457 M28.3741,9.89457 L28.4711,9.89457 M28.4711,9.89457 L28.5196,9.89457 M28.5196,9.89457 L28.6166,9.89457 M28.6166,9.89457 L28.7137,9.89457 M28.7137,9.89457 L28.8107,9.89457 M28.8107,9.89457 L28.9077,9.89457 M28.9077,9.89457 L29.0047,9.89457 M29.0047,9.89457 L29.0532,9.89457 M29.0532,9.89457 L29.1017,9.84607 M29.1017,9.84607 L29.1502,9.84607 M29.1502,9.84607 L29.1987,9.84607 M29.1987,9.84607 L29.2472,9.84607 M29.2472,9.84607 L29.2957,9.89457 M29.2957,9.89457 L29.3442,9.89457 M29.3442,9.89457 L29.3927,9.89457 M29.3927,9.89457 L29.4412,9.94307 M29.4412,9.94307 L29.4897,9.94307 M29.4897,9.94307 L29.5867,9.94307 M29.5867,9.94307 L29.6352,9.99158 M29.6352,9.99158 L29.6837,10.0401 M29.6837,10.0401 L29.7322,10.0401 M29.7322,10.0401 L29.7807,10.0401 M29.7807,10.0401 L29.8292,10.0401 M29.8292,10.0401 L29.8777,10.0401 M29.8777,10.0401 L29.9262,10.0401 M29.9262,10.0401 L29.9747,10.0401 M29.9747,10.0401 L30.0717,10.0401 M30.0717,10.0401 L30.1202,10.0401 M30.1202,10.0401 L30.1687,10.0401 M30.1687,10.0401 L30.2172,10.0401 M30.2172,10.0401 L30.2657,10.0401 M30.2657,10.0401 L30.3142,10.0401 M30.3142,10.0401 L30.3627,10.0401 M30.3627,10.0401 L30.4598,10.0401 M30.4598,10.0401 L30.5083,10.0401 M30.5083,10.0401 L30.5568,10.0886 M30.5568,10.0886 L30.6053,10.0886 M30.6053,10.0886 L30.6538,10.0886 M30.6538,10.0886 L30.7023,10.0886 M30.7023,10.0886 L30.7508,10.0886 M30.7508,10.0886 L30.7993,10.0886 M30.7993,10.0886 L30.8963,10.0886 M30.8963,10.0886 L30.9448,10.0886 M30.9448,10.0886 L30.9933,10.0401 M30.9933,10.0401 L31.0903,10.0401 M31.0903,10.0401 L31.1388,10.0401 M31.1388,10.0401 L31.2358,10.0401 M31.2358,10.0401 L31.3328,9.99158 M31.3328,9.99158 L31.4298,9.99158 M31.4298,9.99158 L31.5268,9.94307 M31.5268,9.94307 L31.5753,9.94307 M31.5753,9.94307 L31.6723,9.89457 M31.6723,9.89457 L31.7693,9.89457 M31.7693,9.89457 L31.8178,9.84607 M31.8178,9.84607 L31.8663,9.84607 M31.8663,9.84607 L31.9633,9.79756 M31.9633,9.79756 L32.0118,9.79756 M32.0118,9.79756 L32.0603,9.74906 M32.0603,9.74906 L32.1574,9.74906 M32.1574,9.74906 L32.2059,9.70056 M32.2059,9.70056 L32.3029,9.70056 M32.3029,9.70056 L32.3514,9.70056 M32.3514,9.70056 L32.4484,9.70056 M32.4484,9.70056 L32.4969,9.70056 M32.4969,9.70056 L32.5454,9.70056 M32.5454,9.70056 L32.6424,9.70056 M32.6424,9.70056 L32.7394,9.70056 M32.7394,9.70056 L32.7879,9.70056 M32.7879,9.70056 L32.8849,9.70056 M32.8849,9.70056 L32.9334,9.70056 M32.9334,9.70056 L33.0304,9.70056 M33.0304,9.70056 L33.0789,9.70056 M33.0789,9.70056 L33.1759,9.70056 M33.1759,9.70056 L33.2244,9.70056 M33.2244,9.70056 L33.2729,9.70056 M33.2729,9.70056 L33.3699,9.70056 M33.3699,9.70056 L33.4184,9.70056 M33.4184,9.70056 L33.4669,9.70056 M33.4669,9.70056 L33.5154,9.70056 M33.5154,9.70056 L33.5639,9.70056 M33.5639,9.70056 L33.6124,9.70056 M33.6124,9.70056 L33.7094,9.70056 M33.7094,9.70056 L33.8064,9.70056 M33.8064,9.70056 L33.8549,9.74906 M33.8549,9.74906 L33.952,9.74906 M33.952,9.74906 L34.0005,9.74906 M34.0005,9.74906 L34.0975,9.74906 M34.0975,9.74906 L34.1945,9.74906 M34.1945,9.74906 L34.2915,9.74906 M34.2915,9.74906 L34.3885,9.74906 M34.3885,9.74906 L34.437,9.74906 M34.437,9.74906 L34.534,9.74906 M34.534,9.74906 L34.5825,9.79756 M34.5825,9.79756 L34.6795,9.79756 M34.6795,9.79756 L34.728,9.79756 M34.728,9.79756 L34.825,9.79756 M34.825,9.79756 L34.8735,9.84607 M34.8735,9.84607 L34.922,9.84607 M34.922,9.84607 L34.9705,9.89457 M34.9705,9.89457 L35.019,9.89457 M35.019,9.89457 L35.0675,9.94307 M35.0675,9.94307 L35.116,9.94307 M35.116,9.94307 L35.1645,9.94307 M35.1645,9.94307 L35.1645,9.99158 M35.1645,9.99158 L35.213,9.99158 M35.213,9.99158 L35.2615,10.0401 M35.2615,10.0401 L35.31,10.0401 M35.31,10.0401 L35.3585,10.0401 M35.3585,10.0401 L35.407,10.0886 M35.407,10.0886 L35.4555,10.0886 M35.4555,10.0886 L35.5525,10.1371 M35.5525,10.1371 L35.601,10.1371 M35.601,10.1371 L35.6496,10.1371 M35.6496,10.1371 L35.6981,10.1856 M35.6981,10.1856 L35.7466,10.1856 M35.7466,10.1856 L35.7951,10.1856 M35.7951,10.1856 L35.8436,10.1856 M35.8436,10.1856 L35.8921,10.2341 M35.8921,10.2341 L35.9406,10.2341 M35.9406,10.2341 L35.9891,10.2341 M35.9891,10.2341 L36.0376,10.2341 M36.0376,10.2341 L36.0861,10.2341 M36.0861,10.2341 L36.1346,10.2341 M36.1346,10.2341 L36.1831,10.2341 M36.1831,10.2341 L36.2316,10.2826 M36.2316,10.2826 L36.3286,10.2826 M36.3286,10.2826 L36.3771,10.2826 M36.3771,10.2826 L36.4741,10.2826 M36.4741,10.2826 L36.5226,10.2826 M36.5226,10.2826 L36.6196,10.2826 M36.6196,10.2826 L36.6681,10.2826 M36.6681,10.2826 L36.7166,10.2826 M36.7166,10.2826 L36.7651,10.2826 M36.7651,10.2826 L36.8136,10.2341 M36.8136,10.2341 L36.8621,10.2341 M36.8621,10.2341 L36.9106,10.2341 M36.9106,10.2341 L36.9591,10.2341 M36.9591,10.2341 L37.0076,10.2341 M37.0076,10.2341 L37.0561,10.2341 M37.0561,10.2341 L37.1046,10.1856 M37.1046,10.1856 L37.1531,10.1856 M37.1531,10.1856 L37.2016,10.1856 M37.2016,10.1856 L37.2016,10.1371 M37.2016,10.1371 L37.2501,10.1371 M37.2501,10.1371 L37.2986,10.0886 M37.2986,10.0886 L37.3471,10.0401 M37.3471,10.0401 L37.3957,9.99158 M37.3957,9.99158 L37.4442,9.99158 M37.4442,9.99158 L37.4927,9.94307 M37.4927,9.94307 L37.5412,9.94307 M37.5412,9.94307 L37.5897,9.89457 M37.5897,9.89457 L37.6382,9.89457 M37.6382,9.89457 L37.6867,9.84607 M37.6867,9.84607 L37.7352,9.84607 M37.7352,9.84607 L37.7837,9.84607 M37.7837,9.84607 L37.8322,9.84607 M37.8322,9.84607 L37.8322,9.79756 M37.8322,9.79756 L37.8807,9.79756 M37.8807,9.79756 L37.9292,9.79756 M37.9292,9.79756 L37.9777,9.79756 M37.9777,9.79756 L38.0262,9.79756 M38.0262,9.79756 L38.0747,9.79756 M38.0747,9.79756 L38.1232,9.79756 M38.1232,9.79756 L38.1717,9.79756 M38.1717,9.79756 L38.2202,9.79756 M38.2202,9.79756 L38.2687,9.79756 M38.2687,9.79756 L38.3172,9.79756 M38.3172,9.79756 L38.3657,9.79756 M38.3657,9.79756 L38.4142,9.79756 M38.4142,9.79756 L38.4627,9.79756 M38.4627,9.79756 L38.5112,9.79756 M38.5112,9.79756 L38.5597,9.79756 M38.5597,9.79756 L38.6082,9.79756 M38.6082,9.79756 L38.6567,9.79756 M38.6567,9.79756 L38.7052,9.79756 M38.7052,9.79756 L38.7537,9.79756 M38.7537,9.79756 L38.8022,9.79756 M38.8022,9.79756 L38.8507,9.84607 M38.8507,9.84607 L38.8992,9.84607 M38.8992,9.84607 L38.9477,9.84607 M38.9477,9.84607 L38.9962,9.84607 M38.9962,9.84607 L39.0447,9.84607 M39.0447,9.84607 L39.0932,9.84607 M39.0932,9.84607 L39.1418,9.84607 M39.1418,9.84607 L39.1903,9.89457 M39.1903,9.89457 L39.2388,9.89457 M39.2388,9.89457 L39.2873,9.89457 M39.2873,9.89457 L39.3358,9.89457 M39.3358,9.89457 L39.3358,9.94307 M39.3358,9.94307 L39.3843,9.94307 M39.3843,9.94307 L39.4328,9.94307 M39.4328,9.94307 L39.4813,9.94307 M39.4813,9.94307 L39.5298,9.94307 M39.5298,9.94307 L39.5783,9.94307 M39.5783,9.94307 L39.6268,9.94307 M39.6268,9.94307 L39.6753,9.94307 M39.6753,9.94307 L39.7238,9.94307 M39.7238,9.94307 L39.7723,9.94307 M39.7723,9.94307 L39.8208,9.94307 M39.8208,9.94307 L39.8693,9.94307 M39.8693,9.94307 L39.9178,9.94307 M39.9178,9.94307 L39.9663,9.94307 M39.9663,9.94307 L40.0148,9.94307 " style="stroke:#000000;stroke-width:0.13;"/>
        <!-- Polyline -->
        <path d="M70,10 L70.0485,10 M70.0485,10 L70.097,10 M70.097,10 L70.097,9.9515 M70.097,9.9515 L70.1455,9.9515 M70.1455,9.9515 L70.194,9.9515 M70.194,9.9515 L70.2425,9.9515 M70.2425,9.9515 L70.3395,9.9515 M70.3395,9.9515 L70.4365,9.9515 M70.4365,9.9515 L70.485,9.9515 M70.485,9.9515 L70.582,9.9515 M70.582,9.9515 L70.679,9.9515 M70.679,9.9515 L70.776,10 M70.776,10 L70.8731,10 M70.8731,10 L70.9216,10 M70.9216,10 L70.9701,10 M70.9701,10 L71.0186,10 M71.0186,10 L71.0671,10 M71.0671,10 L71.1156,10 M71.1156,10 L71.1641,10 M71.1641,10 L71.2126,10 M71.2126,10 L71.2611,10 M71.2611,10 L71.3096,10 M71.3096,10 L71.3581,10.0485 M71.3581,10.0485 L71.4066,10.0485 M71.4066,10.0485 L71.5036,10.0485 M71.5036,10.0485 L71.5521,10.0485 M71.5521,10.0485 L71.6006,10.0485 M71.6006,10.0485 L71.6491,10.0485 M71.6491,10.0485 L71.6976,10.0485 M71.6976,10.0485 L71.7461,10 M71.7461,10 L71.7946,10 M71.7946,10 L71.8431,10 M71.8431,10 L71.8916,10 M71.8916,10 L71.9401,9.9515 M71.9401,9.9515 L71.9886,9.9515 M71.9886,9.9515 L72.0371,9.9515 M72.0371,9.9515 L72.0856,9.90299 M72.0856,9.90299 L72.1341,9.90299 M72.1341,9.90299 L72.1826,9.85449 M72.1826,9.85449 L72.2311,9.85449 M72.2311,9.85449 L72.2796,9.85449 M72.2796,9.85449 L72.3281,9.80599 M72.3281,9.80599 L72.4251,9.80599 M72.4251,9.80599 L72.4736,9.80599 M72.4736,9.80599 L72.5221,9.80599 M72.5221,9.80599 L72.5706,9.75749 M72.5706,9.75749 L72.6192,9.75749 M72.6192,9.75749 L72.6677,9.75749 M72.6677,9.75749 L72.7162,9.75749 M72.7162,9.75749 L72.7647,9.70898 M72.7647,9.70898 L72.8132,9.70898 M72.8132,9.70898 L72.8617,9.70898 M72.8617,9.70898 L72.9102,9.70898 M72.9102,9.70898 L72.9587,9.70898 M72.9587,9.70898 L73.0072,9.70898 M73.0072,9.70898 L73.1042,9.70898 M73.1042,9.70898 L73.1527,9.75749 M73.1527,9.75749 L73.2012,9.75749 M73.2012,9.75749 L73.2982,9.75749 M73.2982,9.75749 L73.3952,9.80599 M73.3952,9.80599 L73.4437,9.80599 M73.4437,9.80599 L73.4922,9.85449 M73.4922,9.85449 L73.5892,9.85449 M73.5892,9.85449 L73.6377,9.85449 M73.6377,9.85449 L73.6862,9.90299 M73.6862,9.90299 L73.7347,9.90299 M73.7347,9.90299 L73.7832,9.90299 M73.7832,9.90299 L73.8317,9.9515 M73.8317,9.9515 L73.8802,9.9515 M73.8802,9.9515 L73.9287,9.9515 M73.9287,9.9515 L73.9772,9.9515 M73.9772,9.9515 L74.0257,9.9515 M74.0257,9.9515 L74.0742,10 M74.0742,10 L74.1712,10 M74.1712,10 L74.2197,10 M74.2197,10 L74.3167,10 M74.3167,10 L74.3653,10 M74.3653,10 L74.4623,10 M74.4623,10 L74.5108,10 M74.5108,10 L74.6078,10 M74.6078,10 L74.6563,10 M74.6563,10 L74.7533,10 M74.7533,10 L74.8503,10 M74.8503,10 L74.9473,9.9515 M74.9473,9.9515 L74.9958,9.9515 M74.9958,9.9515 L75.0443,9.9515 M75.0443,9.9515 L75.1413,9.9515 M75.1413,9.9515 L75.2383,9.90299 M75.2383,9.90299 L75.2868,9.90299 M75.2868,9.90299 L75.3353,9.85449 M75.3353,9.85449 L75.3838,9.85449 M75.3838,9.85449 L75.4323,9.85449 M75.4323,9.85449 L75.5293,9.85449 M75.5293,9.85449 L75.5778,9.80599 M75.5778,9.80599 L75.6748,9.80599 M75.6748,9.80599 L75.7718,9.80599 M75.7718,9.80599 L75.8688,9.80599 M75.8688,9.80599 L75.9658,9.80599 M75.9658,9.80599 L76.1114,9.80599 M76.1114,9.80599 L76.2084,9.75749 M76.2084,9.75749 L76.3539,9.75749 M76.3539,9.75749 L76.4509,9.75749 M76.4509,9.75749 L76.5479,9.75749 M76.5479,9.75749 L76.6934,9.75749 M76.6934,9.75749 L76.7904,9.75749 M76.7904,9.75749 L76.8874,9.75749 M76.8874,9.75749 L77.0329,9.75749 M77.0329,9.75749 L77.1299,9.75749 M77.1299,9.75749 L77.2269,9.75749 M77.2269,9.75749 L77.3724,9.75749 M77.3724,9.75749 L77.4694,9.75749 M77.4694,9.75749 L77.5664,9.80599 M77.5664,9.80599 L77.6634,9.80599 M77.6634,9.80599 L77.7604,9.80599 M77.7604,9.80599 L77.8575,9.80599 M77.8575,9.80599 L78.003,9.80599 M78.003,9.80599 L78.1485,9.80599 M78.1485,9.80599 L78.294,9.80599 M78.294,9.80599 L78.391,9.80599 M78.391,9.80599 L78.488,9.80599 M78.488,9.80599 L78.5365,9.80599 M78.5365,9.80599 L78.6335,9.80599 M78.6335,9.80599 L78.7305,9.80599 M78.7305,9.80599 L78.8275,9.80599 M78.8275,9.80599 L78.9245,9.80599 M78.9245,9.80599 L79.0215,9.80599 M79.0215,9.80599 L79.07,9.80599 M79.07,9.80599 L79.1185,9.75749 M79.1185,9.75749 L79.167,9.75749 M79.167,9.75749 L79.2155,9.75749 M79.2155,9.75749 L79.264,9.75749 M79.264,9.75749 L79.3125,9.80599 M79.3125,9.80599 L79.361,9.80599 M79.361,9.80599 L79.4095,9.80599 M79.4095,9.80599 L79.458,9.85449 M79.458,9.85449 L79.5065,9.85449 M79.5065,9.85449 L79.6036,9.85449 M79.6036,9.85449 L79.6521,9.90299 M79.6521,9.90299 L79.7006,9.9515 M79.7006,9.9515 L79.7491,9.9515 M79.7491,9.9515 L79.7976,9.9515 M79.7976,9.9515 L79.8461,9.9515 M79.8461,9.9515 L79.8946,9.9515 M79.8946,9.9515 L79.9431,9.9515 M79.9431,9.9515 L79.9916,9.9515 M79.9916,9.9515 L80.0886,9.9515 M80.0886,9.9515 L80.1371,9.9515 M80.1371,9.9515 L80.1856,9.9515 M80.1856,9.9515 L80.2341,9.9515 M80.2341,9.9515 L80.2826,9.9515 M80.2826,9.9515 L80.3311,9.9515 M80.3311,9.9515 L80.3796,9.9515 M80.3796,9.9515 L80.4766,9.9515 M80.4766,9.9515 L80.5251,9.9515 M80.5251,9.9515 L80.5736,10 M80.5736,10 L80.6221,10 M80.6221,10 L80.6706,10 M80.6706,10 L80.7191,10 M80.7191,10 L80.7676,10 M80.7676,10 L80.8161,10 M80.8161,10 L80.9131,10 M80.9131,10 L80.9616,10 M80.9616,10 L81.0101,9.9515 M81.0101,9.9515 L81.1071,9.9515 M81.1071,9.9515 L81.1556,9.9515 M81.1556,9.9515 L81.2526,9.9515 M81.2526,9.9515 L81.3497,9.90299 M81.3497,9.90299 L81.4467,9.90299 M81.4467,9.90299 L81.5437,9.85449 M81.5437,9.85449 L81.5922,9.85449 M81.5922,9.85449 L81.6892,9.80599 M81.6892,9.80599 L81.7862,9.80599 M81.7862,9.80599 L81.8347,9.75749 M81.8347,9.75749 L81.8832,9.75749 M81.8832,9.75749 L81.9802,9.70898 M81.9802,9.70898 L82.0287,9.70898 M82.0287,9.70898 L82.0772,9.66048 M82.0772,9.66048 L82.1742,9.66048 M82.1742,9.66048 L82.2227,9.61198 M82.2227,9.61198 L82.3197,9.61198 M82.3197,9.61198 L82.3682,9.61198 M82.3682,9.61198 L82.4652,9.61198 M82.4652,9.61198 L82.5137,9.61198 M82.5137,9.61198 L82.5622,9.61198 M82.5622,9.61198 L82.6592,9.61198 M82.6592,9.61198 L82.7562,9.61198 M82.7562,9.61198 L82.8047,9.61198 M82.8047,9.61198 L82.9017,9.61198 M82.9017,9.61198 L82.9502,9.61198 M82.9502,9.61198 L83.0473,9.61198 M83.0473,9.61198 L83.0958,9.61198 M83.0958,9.61198 L83.1928,9.61198 M83.1928,9.61198 L83.2413,9.61198 M83.2413,9.61198 L83.2898,9.61198 M83.2898,9.61198 L83.3868,9.61198 M83.3868,9.61198 L83.4353,9.61198 M83.4353,9.61198 L83.4838,9.61198 M83.4838,9.61198 L83.5323,9.61198 M83.5323,9.61198 L83.5808,9.61198 M83.5808,9.61198 L83.6293,9.61198 M83.6293,9.61198 L83.7263,9.61198 M83.7263,9.61198 L83.8233,9.61198 M83.8233,9.61198 L83.8718,9.66048 M83.8718,9.66048 L83.9688,9.66048 M83.9688,9.66048 L84.0173,9.66048 M84.0173,9.66048 L84.1143,9.66048 M84.1143,9.66048 L84.2113,9.66048 M84.2113,9.66048 L84.3083,9.66048 M84.3083,9.66048 L84.4053,9.66048 M84.4053,9.66048 L84.4538,9.66048 M84.4538,9.66048 L84.5508,9.66048 M84.5508,9.66048 L84.5993,9.70898 M84.5993,9.70898 L84.6963,9.70898 M84.6963,9.70898 L84.7448,9.70898 M84.7448,9.70898 L84.8419,9.70898 M84.8419,9.70898 L84.8904,9.75749 M84.8904,9.75749 L84.9389,9.75749 M84.9389,9.75749 L84.9874,9.80599 M84.9874,9.80599 L85.0359,9.80599 M85.0359,9.80599 L85.0844,9.85449 M85.0844,9.85449 L85.1329,9.85449 M85.1329,9.85449 L85.1814,9.85449 M85.1814,9.85449 L85.1814,9.90299 M85.1814,9.90299 L85.2299,9.90299 M85.2299,9.90299 L85.2784,9.9515 M85.2784,9.9515 L85.3269,9.9515 M85.3269,9.9515 L85.3754,9.9515 M85.3754,9.9515 L85.4239,10 M85.4239,10 L85.4724,10 M85.4724,10 L85.5694,10.0485 M85.5694,10.0485 L85.6179,10.0485 M85.6179,10.0485 L85.6664,10.0485 M85.6664,10.0485 L85.7149,10.097 M85.7149,10.097 L85.7634,10.097 M85.7634,10.097 L85.8119,10.097 M85.8119,10.097 L85.8604,10.097 M85.8604,10.097 L85.9089,10.1455 M85.9089,10.1455 L85.9574,10.1455 M85.9574,10.1455 L86.0059,10.1455 M86.0059,10.1455 L86.0544,10.1455 M86.0544,10.1455 L86.1029,10.1455 M86.1029,10.1455 L86.1514,10.1455 M86.1514,10.1455 L86.1999,10.1455 M86.1999,10.1455 L86.2484,10.194 M86.2484,10.194 L86.3454,10.194 M86.3454,10.194 L86.3939,10.194 M86.3939,10.194 L86.4909,10.194 M86.4909,10.194 L86.5395,10.194 M86.5395,10.194 L86.6365,10.194 M86.6365,10.194 L86.685,10.194 M86.685,10.194 L86.7335,10.194 M86.7335,10.194 L86.782,10.194 M86.782,10.194 L86.8305,10.1455 M86.8305,10.1455 L86.879,10.1455 M86.879,10.1455 L86.9275,10.1455 M86.9275,10.1455 L86.976,10.1455 M86.976,10.1455 L87.0245,10.1455 M87.0245,10.1455 L87.073,10.1455 M87.073,10.1455 L87.1215,10.097 M87.1215,10.097 L87.17,10.097 M87.17,10.097 L87.2185,10.097 M87.2185,10.097 L87.2185,10.0485 M87.2185,10.0485 L87.267,10.0485 M87.267,10.0485 L87.3155,10 M87.3155,10 L87.364,9.9515 M87.364,9.9515 L87.4125,9.90299 M87.4125,9.90299 L87.461,9.90299 M87.461,9.90299 L87.5095,9.85449 M87.5095,9.85449 L87.558,9.85449 M87.558,9.85449 L87.6065,9.80599 M87.6065,9.80599 L87.655,9.80599 M87.655,9.80599 L87.7035,9.75749 M87.7035,9.75749 L87.752,9.75749 M87.752,9.75749 L87.8005,9.75749 M87.8005,9.75749 L87.849,9.75749 M87.849,9.75749 L87.849,9.70898 M87.849,9.70898 L87.8975,9.70898 M87.8975,9.70898 L87.946,9.70898 M87.946,9.70898 L87.9945,9.70898 M87.9945,9.70898 L88.043,9.70898 M88.043,9.70898 L88.0915,9.70898 M88.0915,9.70898 L88.14,9.70898 M88.14,9.70898 L88.1885,9.70898 M88.1885,9.70898 L88.237,9.70898 M88.237,9.70898 L88.2856,9.70898 M88.2856,9.70898 L88.3341,9.70898 M88.3341,9.70898 L88.3826,9.70898 M88.3826,9.70898 L88.4311,9.70898 M88.4311,9.70898 L88.4796,9.70898 M88.4796,9.70898 L88.5281,9.70898 M88.5281,9.70898 L88.5766,9.70898 M88.5766,9.70898 L88.6251,9.70898 M88.6251,9.70898 L88.6736,9.70898 M88.6736,9.70898 L88.7221,9.70898 M88.7221,9.70898 L88.7706,9.70898 M88.7706,9.70898 L88.8191,9.70898 M88.8191,9.70898 L88.8676,9.75749 M88.8676,9.75749 L88.9161,9.75749 M88.9161,9.75749 L88.9646,9.75749 M88.9646,9.75749 L89.0131,9.75749 M89.0131,9.75749 L89.0616,9.75749 M89.0616,9.75749 L89.1101,9.75749 M89.1101,9.75749 L89.1586,9.75749 M89.1586,9.75749 L89.2071,9.80599 M89.2071,9.80599 L89.2556,9.80599 M89.2556,9.80599 L89.3041,9.80599 M89.3041,9.80599 L89.3526,9.80599 M89.3526,9.80599 L89.3526,9.85449 M89.3526,9.85449 L89.4011,9.85449 M89.4011,9.85449 L89.4496,9.85449 M89.4496,9.85449 L89.4981,9.85449 M89.4981,9.85449 L89.5466,9.85449 M89.5466,9.85449 L89.5951,9.85449 M89.5951,9.85449 L89.6436,9.85449 M89.6436,9.85449 L89.6921,9.85449 M89.6921,9.85449 L89.7406,9.85449 M89.7406,9.85449 L89.7891,9.85449 M89.7891,9.85449 L89.8376,9.85449 M89.8376,9.85449 L89.8861,9.85449 M89.8861,9.85449 L89.9346,9.85449 M89.9346,9.85449 L89.9832,9.85449 M89.9832,9.85449 L90.0317,9.85449 " style="stroke:#000000;stroke-width:0.13;"/>
        <!-- Text: Eine Linie -->
        <path d="M3.15829,29.0489 L3.15829,31.0489 L4.6044,31.0489 L4.6044,30.8129 L3.42296,30.8129 L3.42296,30.2003 L4.52937,30.2003 L4.52937,29.9656 L3.42296,29.9656 L3.42296,29.2849 L4.65079,29.2849 L4.65079,29.0489 L3.15829,29.0489 M4.98607,30.7665 L4.98607,31.0489 L5.23163,31.0489 L5.23163,30.7665 L4.98607,30.7665 M4.98607,29.0489 L4.98607,30.4977 L5.23163,30.4977 L5.23163,29.0489 L4.98607,29.0489 M5.60506,29.0489 L5.60506,30.4977 L5.82607,30.4977 L5.82607,30.2917 C5.93248,30.4509 6.08619,30.5305 6.28719,30.5305 C6.3745,30.5305 6.45476,30.5148 6.52798,30.4834 C6.60119,30.452 6.65599,30.4109 6.69237,30.3599 C6.72875,30.309 6.75422,30.2485 6.76877,30.1785 C6.77786,30.133 6.78241,30.0534 6.78241,29.9397 L6.78241,29.0489 L6.53684,29.0489 L6.53684,29.9302 C6.53684,30.0302 6.5273,30.105 6.5082,30.1546 C6.4891,30.2042 6.45522,30.2437 6.40656,30.2733 C6.3579,30.3028 6.30083,30.3176 6.23534,30.3176 C6.13075,30.3176 6.04048,30.2844 5.96454,30.218 C5.8886,30.1516 5.85062,30.0257 5.85062,29.8401 L5.85062,29.0489 L5.60506,29.0489 M8.1506,29.5154 L8.40435,29.4841 C8.36433,29.3358 8.29021,29.2208 8.18197,29.1389 C8.07374,29.0571 7.9355,29.0161 7.76724,29.0161 C7.55533,29.0161 7.3873,29.0814 7.26315,29.2119 C7.139,29.3424 7.07693,29.5254 7.07693,29.761 C7.07693,30.0048 7.13968,30.1939 7.26519,30.3285 C7.39071,30.4631 7.55351,30.5305 7.7536,30.5305 C7.94732,30.5305 8.10558,30.4645 8.22836,30.3326 C8.35114,30.2008 8.41253,30.0152 8.41253,29.776 C8.41253,29.7615 8.41208,29.7396 8.41117,29.7105 L7.33068,29.7105 C7.33977,29.5514 7.38479,29.4295 7.46574,29.3449 C7.54669,29.2603 7.64764,29.218 7.7686,29.218 C7.85865,29.218 7.9355,29.2417 7.99916,29.289 C8.06283,29.3363 8.11331,29.4118 8.1506,29.5154 M7.34432,29.9124 L8.15333,29.9124 C8.14241,30.0343 8.11149,30.1257 8.06056,30.1867 C7.98234,30.2812 7.88093,30.3285 7.75633,30.3285 C7.64355,30.3285 7.54873,30.2908 7.47188,30.2153 C7.39503,30.1398 7.35251,30.0389 7.34432,29.9124 M9.50918,29.0489 L9.50918,31.0489 L9.77384,31.0489 L9.77384,29.2849 L10.7588,29.2849 L10.7588,29.0489 L9.50918,29.0489 M11.0438,30.7665 L11.0438,31.0489 L11.2894,31.0489 L11.2894,30.7665 L11.0438,30.7665 M11.0438,29.0489 L11.0438,30.4977 L11.2894,30.4977 L11.2894,29.0489 L11.0438,29.0489 M11.6628,29.0489 L11.6628,30.4977 L11.8838,30.4977 L11.8838,30.2917 C11.9902,30.4509 12.1439,30.5305 12.3449,30.5305 C12.4322,30.5305 12.5125,30.5148 12.5857,30.4834 C12.6589,30.452 12.7137,30.4109 12.7501,30.3599 C12.7865,30.309 12.812,30.2485 12.8265,30.1785 C12.8356,30.133 12.8401,30.0534 12.8401,29.9397 L12.8401,29.0489 L12.5946,29.0489 L12.5946,29.9302 C12.5946,30.0302 12.585,30.105 12.5659,30.1546 C12.5468,30.2042 12.513,30.2437 12.4643,30.2733 C12.4156,30.3028 12.3586,30.3176 12.2931,30.3176 C12.1885,30.3176 12.0982,30.2844 12.0223,30.218 C11.9463,30.1516 11.9084,30.0257 11.9084,29.8401 L11.9084,29.0489 L11.6628,29.0489 M13.2179,30.7665 L13.2179,31.0489 L13.4634,31.0489 L13.4634,30.7665 L13.2179,30.7665 M13.2179,29.0489 L13.2179,30.4977 L13.4634,30.4977 L13.4634,29.0489 L13.2179,29.0489 M14.8287,29.5154 L15.0824,29.4841 C15.0424,29.3358 14.9683,29.2208 14.8601,29.1389 C14.7518,29.0571 14.6136,29.0161 14.4453,29.0161 C14.2334,29.0161 14.0654,29.0814 13.9412,29.2119 C13.8171,29.3424 13.755,29.5254 13.755,29.761 C13.755,30.0048 13.8178,30.1939 13.9433,30.3285 C14.0688,30.4631 14.2316,30.5305 14.4317,30.5305 C14.6254,30.5305 14.7837,30.4645 14.9064,30.3326 C15.0292,30.2008 15.0906,30.0152 15.0906,29.776 C15.0906,29.7615 15.0902,29.7396 15.0893,29.7105 L14.0088,29.7105 C14.0179,29.5514 14.0629,29.4295 14.1438,29.3449 C14.2248,29.2603 14.3257,29.218 14.4467,29.218 C14.5367,29.218 14.6136,29.2417 14.6773,29.289 C14.7409,29.3363 14.7914,29.4118 14.8287,29.5154 M14.0224,29.9124 L14.8314,29.9124 C14.8205,30.0343 14.7896,30.1257 14.7386,30.1867 C14.6604,30.2812 14.559,30.3285 14.4344,30.3285 C14.3216,30.3285 14.2268,30.2908 14.15,30.2153 C14.0731,30.1398 14.0306,30.0389 14.0224,29.9124 " style="fill:#000000;fill-rule:evenodd;"/>
        <!-- Text: Zwei Linien -->
        <path d="M50.7799,29.3243 L50.7799,29.5698 L51.8045,30.8509 C51.8773,30.9418 51.9464,31.021 52.0119,31.0883 L50.8959,31.0883 L50.8959,31.3243 L52.3284,31.3243 L52.3284,31.0883 L51.2056,29.7008 L51.0842,29.5603 L52.3611,29.5603 L52.3611,29.3243 L50.7799,29.3243 M52.8821,29.3243 L52.4387,30.7731 L52.6925,30.7731 L52.923,29.9368 L53.009,29.6258 C53.0126,29.6412 53.0376,29.7408 53.084,29.9246 L53.3146,30.7731 L53.567,30.7731 L53.7839,29.9327 L53.8562,29.6558 L53.9394,29.9355 L54.1877,30.7731 L54.4264,30.7731 L53.9735,29.3243 L53.7184,29.3243 L53.4878,30.1919 L53.4319,30.4389 L53.1386,29.3243 L52.8821,29.3243 M55.6239,29.7909 L55.8776,29.7595 C55.8376,29.6112 55.7635,29.4962 55.6552,29.4143 C55.547,29.3325 55.4088,29.2915 55.2405,29.2915 C55.0286,29.2915 54.8606,29.3568 54.7364,29.4873 C54.6123,29.6178 54.5502,29.8009 54.5502,30.0364 C54.5502,30.2802 54.613,30.4693 54.7385,30.604 C54.864,30.7386 55.0268,30.8059 55.2269,30.8059 C55.4206,30.8059 55.5788,30.7399 55.7016,30.608 C55.8244,30.4762 55.8858,30.2906 55.8858,30.0514 C55.8858,30.0369 55.8853,30.015 55.8844,29.9859 L54.8039,29.9859 C54.813,29.8268 54.8581,29.7049 54.939,29.6203 C55.02,29.5357 55.1209,29.4934 55.2419,29.4934 C55.3319,29.4934 55.4088,29.5171 55.4724,29.5644 C55.5361,29.6117 55.5866,29.6872 55.6239,29.7909 M54.8176,30.1879 L55.6266,30.1879 C55.6157,30.3097 55.5848,30.4011 55.5338,30.4621 C55.4556,30.5567 55.3542,30.604 55.2296,30.604 C55.1168,30.604 55.022,30.5662 54.9451,30.4907 C54.8683,30.4152 54.8258,30.3143 54.8176,30.1879 M56.1871,31.0419 L56.1871,31.3243 L56.4327,31.3243 L56.4327,31.0419 L56.1871,31.0419 M56.1871,29.3243 L56.1871,30.7731 L56.4327,30.7731 L56.4327,29.3243 L56.1871,29.3243 M57.6028,29.3243 L57.6028,31.3243 L57.8675,31.3243 L57.8675,29.5603 L58.8525,29.5603 L58.8525,29.3243 L57.6028,29.3243 M59.1374,31.0419 L59.1374,31.3243 L59.383,31.3243 L59.383,31.0419 L59.1374,31.0419 M59.1374,29.3243 L59.1374,30.7731 L59.383,30.7731 L59.383,29.3243 L59.1374,29.3243 M59.7564,29.3243 L59.7564,30.7731 L59.9774,30.7731 L59.9774,30.5671 C60.0838,30.7263 60.2375,30.8059 60.4385,30.8059 C60.5259,30.8059 60.6061,30.7902 60.6793,30.7588 C60.7526,30.7274 60.8074,30.6863 60.8437,30.6353 C60.8801,30.5844 60.9056,30.5239 60.9201,30.4539 C60.9292,30.4084 60.9338,30.3288 60.9338,30.2151 L60.9338,29.3243 L60.6882,29.3243 L60.6882,30.2056 C60.6882,30.3056 60.6787,30.3804 60.6596,30.43 C60.6405,30.4796 60.6066,30.5191 60.5579,30.5487 C60.5093,30.5783 60.4522,30.593 60.3867,30.593 C60.2821,30.593 60.1918,30.5598 60.1159,30.4934 C60.04,30.4271 60.002,30.3011 60.002,30.1155 L60.002,29.3243 L59.7564,29.3243 M61.3115,31.0419 L61.3115,31.3243 L61.5571,31.3243 L61.5571,31.0419 L61.3115,31.0419 M61.3115,29.3243 L61.3115,30.7731 L61.5571,30.7731 L61.5571,29.3243 L61.3115,29.3243 M62.9223,29.7909 L63.1761,29.7595 C63.136,29.6112 63.0619,29.4962 62.9537,29.4143 C62.8455,29.3325 62.7072,29.2915 62.539,29.2915 C62.327,29.2915 62.159,29.3568 62.0349,29.4873 C61.9107,29.6178 61.8486,29.8009 61.8486,30.0364 C61.8486,30.2802 61.9114,30.4693 62.0369,30.604 C62.1624,30.7386 62.3252,30.8059 62.5253,30.8059 C62.719,30.8059 62.8773,30.7399 63.0001,30.608 C63.1229,30.4762 63.1842,30.2906 63.1842,30.0514 C63.1842,30.0369 63.1838,30.015 63.1829,29.9859 L62.1024,29.9859 C62.1115,29.8268 62.1565,29.7049 62.2375,29.6203 C62.3184,29.5357 62.4194,29.4934 62.5403,29.4934 C62.6304,29.4934 62.7072,29.5171 62.7709,29.5644 C62.8345,29.6117 62.885,29.6872 62.9223,29.7909 M62.116,30.1879 L62.925,30.1879 C62.9141,30.3097 62.8832,30.4011 62.8323,30.4621 C62.7541,30.5567 62.6526,30.604 62.528,30.604 C62.4153,30.604 62.3204,30.5662 62.2436,30.4907 C62.1667,30.4152 62.1242,30.3143 62.116,30.1879 M63.4842,29.3243 L63.4842,30.7731 L63.7052,30.7731 L63.7052,30.5671 C63.8116,30.7263 63.9653,30.8059 64.1663,30.8059 C64.2537,30.8059 64.3339,30.7902 64.4071,30.7588 C64.4804,30.7274 64.5352,30.6863 64.5715,30.6353 C64.6079,30.5844 64.6334,30.5239 64.6479,30.4539 C64.657,30.4084 64.6616,30.3288 64.6616,30.2151 L64.6616,29.3243 L64.416,29.3243 L64.416,30.2056 C64.416,30.3056 64.4065,30.3804 64.3874,30.43 C64.3683,30.4796 64.3344,30.5191 64.2857,30.5487 C64.2371,30.5783 64.18,30.593 64.1145,30.593 C64.0099,30.593 63.9196,30.5598 63.8437,30.4934 C63.7678,30.4271 63.7298,30.3011 63.7298,30.1155 L63.7298,29.3243 L63.4842,29.3243 " style="fill:#000000;fill-rule:evenodd;"/>
    </g>
</svg>
