<?xml version="1.0" encoding="UTF-8"?>
<!-- 2011-10-19 12:09:32 Generated by QCAD SVG Exporter -->
<svg width="211" height="91" viewBox="29.5 -120.5 211 91" version="1.1" xmlns="http://www.w3.org/2000/svg" style="stroke-linecap:round;stroke-linejoin:round;fill:none">
    <g transform="scale(1,-1)">
        <!-- Circle -->
        <circle cx="60" cy="90" r="15" style="stroke:#000000;stroke-width:1;"/>
        <!-- Hatch -->
        <path d="M102,30 L120,48 M78,30 L120,72 M54,30 L120,96 M30,30 L120,120 M30,54 L96,120 M30,78 L72,120 M30,102 L48,120 " style="stroke:#000000;stroke-width:0.5;"/>
        <!-- Hatch -->
        <path d="M222,30 L240,48 M198,30 L240,72 M174,30 L240,96 M150,30 L240,120 M150,54 L172.827,76.8265 M193.173,97.1735 L216,120 M150,78 L165.388,93.3875 M176.612,104.612 L192,120 M150,102 L168,120 " style="stroke:#000000;stroke-width:0.5;"/>
        <!-- Line -->
        <path d="M30,30 L30,120 " style="stroke:#ff0000;stroke-width:1;"/>
        <!-- Line -->
        <path d="M30,120 L120,120 " style="stroke:#ff0000;stroke-width:1;"/>
        <!-- Line -->
        <path d="M120,120 L120,30 " style="stroke:#ff0000;stroke-width:1;"/>
        <!-- Line -->
        <path d="M120,30 L30,30 " style="stroke:#ff0000;stroke-width:1;"/>
        <!-- Line -->
        <path d="M150,30 L150,120 " style="stroke:#ff0000;stroke-width:1;"/>
        <!-- Line -->
        <path d="M150,120 L240,120 " style="stroke:#ff0000;stroke-width:1;"/>
        <!-- Line -->
        <path d="M240,120 L240,30 " style="stroke:#ff0000;stroke-width:1;"/>
        <!-- Line -->
        <path d="M240,30 L150,30 " style="stroke:#ff0000;stroke-width:1;"/>
        <!-- Circle -->
        <circle cx="180" cy="90" r="15" style="stroke:#ff0000;stroke-width:1;"/>
    </g>
</svg>
