<svg xmlns="http://www.w3.org/2000/svg" viewBox="0 0 512 512"><path d="m16.5 4.5c0 .552-.448 1-1 1-.552 0-1-.448-1-1 0-.552.448-1 1-1 .552 0 1 .448 1 1" transform="matrix(-32 0 0-32 752 400)" style="fill:#f00"/><path d="m56 104l182.6 132.67-69.75 214.66h-225.71l-69.75-214.66 182.6-132.67z" transform="translate(200-33.666)" style="fill:none;stroke:#fff;stroke-linecap:round;stroke-linejoin:round;stroke-width:16"/><path d="m16.5 4.5a1 1 0 1 1 -2 0 1 1 0 1 1 2 0" transform="matrix(-32 0 0-32 864 562)" style="fill:#f00"/></svg>
