<svg xmlns="http://www.w3.org/2000/svg" viewBox="0 0 512 512"><path d="m72 88h352v352h-352z" style="fill:none;opacity:.25;stroke:#00ccff;stroke-linecap:round;stroke-linejoin:round;stroke-width:16;stroke-dashoffset:152"/><path d="m216 264c0-17.674 14.326-32 32-32 17.674 0 32 14.326 32 32 0 17.674-14.326 32-32 32-17.674 0-32-14.326-32-32" style="fill:#f00"/><g style="fill:none"><path d="m424 264c0 97.2-78.8 176-176 176-97.2 0-176-78.8-176-176 0-97.2 78.8-176 176-176 97.2 0 176 78.8 176 176z" style="stroke:#fff;stroke-linecap:square;stroke-linejoin:round;stroke-width:16"/><path d="m248.9 263.81l111.1-135.81" style="stroke:#f00;stroke-width:8"/></g></svg>
