<?xml version="1.0" encoding="UTF-8" standalone="no"?>
<svg
   xmlns:dc="http://purl.org/dc/elements/1.1/"
   xmlns:cc="http://creativecommons.org/ns#"
   xmlns:rdf="http://www.w3.org/1999/02/22-rdf-syntax-ns#"
   xmlns:svg="http://www.w3.org/2000/svg"
   xmlns="http://www.w3.org/2000/svg"
   xmlns:sodipodi="http://sodipodi.sourceforge.net/DTD/sodipodi-0.dtd"
   xmlns:inkscape="http://www.inkscape.org/namespaces/inkscape"
   width="512"
   height="512"
   viewBox="12 -52 144.49339 144.50011"
   style="fill:none;stroke-linecap:round;stroke-linejoin:round"
   id="svg2"
   version="1.1"
   inkscape:version="0.92.2 5c3e80d, 2017-08-06"
   sodipodi:docname="PointPowerCenter-inverse.svg">
  <metadata
     id="metadata36">
    <rdf:RDF>
      <cc:Work
         rdf:about="">
        <dc:format>image/svg+xml</dc:format>
        <dc:type
           rdf:resource="http://purl.org/dc/dcmitype/StillImage" />
        <dc:title />
      </cc:Work>
    </rdf:RDF>
  </metadata>
  <defs
     id="defs34" />
  <sodipodi:namedview
     pagecolor="#ffffff"
     bordercolor="#666666"
     borderopacity="1"
     objecttolerance="10"
     gridtolerance="10"
     guidetolerance="10"
     inkscape:pageopacity="0"
     inkscape:pageshadow="2"
     inkscape:window-width="1582"
     inkscape:window-height="1104"
     id="namedview32"
     showgrid="false"
     inkscape:zoom="1.665138"
     inkscape:cx="247.40029"
     inkscape:cy="254.033"
     inkscape:window-x="1028"
     inkscape:window-y="258"
     inkscape:window-maximized="0"
     inkscape:current-layer="g6" />
  <g
     transform="matrix(3,0,0,-3,-13.253303,116.25005)"
     id="g4">
    <g
       style="stroke:#000000;stroke-width:0.75260473;stroke-miterlimit:4;stroke-dasharray:none"
       id="g6">
      <circle
         cx="20"
         cy="30"
         r="7.0700002"
         id="circle8"
         style="stroke-width:1.50520948;stroke-miterlimit:4;stroke-dasharray:none;stroke:#ffffff" />
      <circle
         cx="43"
         cy="22"
         r="8.6020002"
         id="circle10"
         style="stroke-width:1.50520948;stroke-miterlimit:4;stroke-dasharray:none;stroke:#ffffff" />
      <circle
         cx="36"
         cy="44"
         r="7.0700002"
         id="circle12"
         style="stroke-width:1.50520948;stroke-miterlimit:4;stroke-dasharray:none;stroke:#ffffff" />
    </g>
    <g
       style="stroke:#ff0000;stroke-width:0.75260473;stroke-miterlimit:4;stroke-dasharray:none"
       id="g14">
      <g
         style="stroke-width:0.75260473;stroke-miterlimit:4;stroke-dasharray:none"
         id="g16">
        <path
           d="m 44,44 -2.75,0 m -1.5,0 -3,0 m -1.5,0 -3,0 m -1.5,0 -2.75,0"
           id="path18"
           inkscape:connector-curvature="0"
           style="stroke-width:0.75260473;stroke-miterlimit:4;stroke-dasharray:none" />
        <path
           d="m 36,52 0,-2.75 m 0,-1.5 0,-3 m 0,-1.5 0,-3 m 0,-1.5 0,-2.75"
           id="path20"
           inkscape:connector-curvature="0"
           style="stroke-width:0.75260473;stroke-miterlimit:4;stroke-dasharray:none" />
        <path
           d="m 12,30 2.75,0 m 1.5,0 3,0 m 1.5,0 3,0 m 1.5,0 2.75,0"
           id="path22"
           inkscape:connector-curvature="0"
           style="stroke-width:0.75260473;stroke-miterlimit:4;stroke-dasharray:none" />
        <path
           d="m 20,38 0,-2.75 m 0,-1.5 0,-3 m 0,-1.5 0,-3 m 0,-1.5 0,-2.75"
           id="path24"
           inkscape:connector-curvature="0"
           style="stroke-width:0.75260473;stroke-miterlimit:4;stroke-dasharray:none" />
        <path
           d="m 43,32 0,-2.5 m 0,-1.5 0,-3 m 0,-1.5 0,-3 m 0,-1.5 0,-3 m 0,-1.5 0,-2.5"
           id="path26"
           inkscape:connector-curvature="0"
           style="stroke-width:0.75260473;stroke-miterlimit:4;stroke-dasharray:none" />
        <path
           d="m 33,22 2.5,0 m 1.5,0 3,0 m 1.5,0 3,0 m 1.5,0 3,0 m 1.5,0 2.5,0"
           id="path28"
           inkscape:connector-curvature="0"
           style="stroke-width:0.75260473;stroke-miterlimit:4;stroke-dasharray:none" />
      </g>
      <circle
         style="opacity:1;fill:none;fill-opacity:0.1254902;fill-rule:evenodd;stroke:#ff0000;stroke-width:0.75260472;stroke-linecap:round;stroke-linejoin:miter;stroke-miterlimit:4;stroke-dasharray:none;stroke-dashoffset:0;stroke-opacity:1"
         id="path4164"
         cx="33.155899"
         cy="-31.835049"
         r="1.0169491"
         transform="scale(1,-1)" />
    </g>
  </g>
</svg>
