<?xml version="1.0" encoding="UTF-8" standalone="no"?>
<!-- 2014-07-11 21:34:51 Generated by QCAD SVG Exporter -->

<svg
   xmlns:dc="http://purl.org/dc/elements/1.1/"
   xmlns:cc="http://creativecommons.org/ns#"
   xmlns:rdf="http://www.w3.org/1999/02/22-rdf-syntax-ns#"
   xmlns:svg="http://www.w3.org/2000/svg"
   xmlns="http://www.w3.org/2000/svg"
   xmlns:sodipodi="http://sodipodi.sourceforge.net/DTD/sodipodi-0.dtd"
   xmlns:inkscape="http://www.inkscape.org/namespaces/inkscape"
   width="41mm"
   height="40mm"
   viewBox="12 -52 41 40"
   version="1.1"
   style="stroke-linecap:round;stroke-linejoin:round;fill:none"
   id="svg3037"
   inkscape:version="0.48.4 r9939"
   sodipodi:docname="PointPowerCenter.svg">
  <metadata
     id="metadata3065">
    <rdf:RDF>
      <cc:Work
         rdf:about="">
        <dc:format>image/svg+xml</dc:format>
        <dc:type
           rdf:resource="http://purl.org/dc/dcmitype/StillImage" />
      </cc:Work>
    </rdf:RDF>
  </metadata>
  <defs
     id="defs3063" />
  <sodipodi:namedview
     pagecolor="#ffffff"
     bordercolor="#666666"
     borderopacity="1"
     objecttolerance="10"
     gridtolerance="10"
     guidetolerance="10"
     inkscape:pageopacity="0"
     inkscape:pageshadow="2"
     inkscape:window-width="1400"
     inkscape:window-height="988"
     id="namedview3061"
     showgrid="false"
     inkscape:zoom="5.4398333"
     inkscape:cx="2.2312254"
     inkscape:cy="70.866142"
     inkscape:window-x="-8"
     inkscape:window-y="-8"
     inkscape:window-maximized="1"
     inkscape:current-layer="g3039" />
  <g
     transform="scale(1,-1)"
     id="g3039">
    <!-- Kreis -->
    <circle
       cx="20"
       cy="30"
       r="7.0710678118654755"
       style="stroke:#000000;stroke-width:0.84666668;stroke-miterlimit:4;stroke-dasharray:none"
       id="circle3041"
       d="m 27.071068,30 c 0,3.905243 -3.165825,7.071068 -7.071068,7.071068 -3.905243,0 -7.071068,-3.165825 -7.071068,-7.071068 0,-3.905243 3.165825,-7.071068 7.071068,-7.071068 3.905243,0 7.071068,3.165825 7.071068,7.071068 z" />
    <!-- Kreis -->
    <circle
       cx="43"
       cy="22"
       r="8.602325267042627"
       style="stroke:#000000;stroke-width:0.84666668;stroke-miterlimit:4;stroke-dasharray:none"
       id="circle3043"
       d="m 51.602325,22 c 0,4.750933 -3.851392,8.602325 -8.602325,8.602325 -4.750933,0 -8.602325,-3.851392 -8.602325,-8.602325 0,-4.750933 3.851392,-8.602325 8.602325,-8.602325 4.750933,0 8.602325,3.851392 8.602325,8.602325 z" />
    <!-- Kreis -->
    <circle
       cx="36"
       cy="44"
       r="7.0710678118654755"
       style="stroke:#000000;stroke-width:0.84666668;stroke-miterlimit:4;stroke-dasharray:none"
       id="circle3045"
       d="m 43.071068,44 c 0,3.905243 -3.165825,7.071068 -7.071068,7.071068 -3.905243,0 -7.071068,-3.165825 -7.071068,-7.071068 0,-3.905243 3.165825,-7.071068 7.071068,-7.071068 3.905243,0 7.071068,3.165825 7.071068,7.071068 z" />
    <!-- Linie -->
    <path
       d="M44,44 L41.25,44 M39.75,44 L36.75,44 M35.25,44 L32.25,44 M30.75,44 L28,44 "
       style="stroke:#ff0000;stroke-width:0.56444445;stroke-miterlimit:4;stroke-dasharray:none"
       id="path3047" />
    <!-- Linie -->
    <path
       d="M36,52 L36,49.25 M36,47.75 L36,44.75 M36,43.25 L36,40.25 M36,38.75 L36,36 "
       style="stroke:#ff0000;stroke-width:0.56444445;stroke-miterlimit:4;stroke-dasharray:none"
       id="path3049" />
    <!-- Linie -->
    <path
       d="M12,30 L14.75,30 M16.25,30 L19.25,30 M20.75,30 L23.75,30 M25.25,30 L28,30 "
       style="stroke:#ff0000;stroke-width:0.56444445;stroke-miterlimit:4;stroke-dasharray:none"
       id="path3051" />
    <!-- Linie -->
    <path
       d="M20,38 L20,35.25 M20,33.75 L20,30.75 M20,29.25 L20,26.25 M20,24.75 L20,22 "
       style="stroke:#ff0000;stroke-width:0.56444445;stroke-miterlimit:4;stroke-dasharray:none"
       id="path3053" />
    <!-- Linie -->
    <path
       d="M43,32 L43,29.5 M43,28 L43,25 M43,23.5 L43,20.5 M43,19 L43,16 M43,14.5 L43,12 "
       style="stroke:#ff0000;stroke-width:0.56444445;stroke-miterlimit:4;stroke-dasharray:none"
       id="path3055" />
    <!-- Linie -->
    <path
       d="M33,22 L35.5,22 M37,22 L40,22 M41.5,22 L44.5,22 M46,22 L49,22 M50.5,22 L53,22 "
       style="stroke:#ff0000;stroke-width:0.56444445;stroke-miterlimit:4;stroke-dasharray:none"
       id="path3057" />
    <!-- Punkt -->
    <circle
       cx="32.868889"
       cy="31.435556"
       r="0.0099999998"
       style="stroke:#ff0000;stroke-width:0.25"
       id="circle3059"
       d="m 32.878889,31.435556 c 0,0.0055 -0.0045,0.01 -0.01,0.01 -0.0055,0 -0.01,-0.0045 -0.01,-0.01 0,-0.0055 0.0045,-0.01 0.01,-0.01 0.0055,0 0.01,0.0045 0.01,0.01 z"
       sodipodi:cx="32.868889"
       sodipodi:cy="31.435556"
       sodipodi:rx="0.0099999998"
       sodipodi:ry="0.0099999998"
       transform="matrix(13.489792,0,0,13.489792,-410.24025,-392.23447)" />
  </g>
</svg>
