<svg xmlns="http://www.w3.org/2000/svg" width="145.28" height="141.73" viewBox="12 -52 41 40" style="fill:none;stroke-linecap:round;stroke-linejoin:round"><g transform="scale(1-1)"><g style="stroke:#fff;stroke-width:.847"><circle cx="20" cy="30" r="7.07"/><circle cx="43" cy="22" r="8.602"/><circle cx="36" cy="44" r="7.07"/></g><g style="stroke:#f00"><g style="stroke-width:.564"><path d="m44 44h-2.75m-1.5 0h-3m-1.5 0h-3m-1.5 0h-2.75"/><path d="m36 52v-2.75m0-1.5v-3m0-1.5v-3m0-1.5v-2.75"/><path d="m12 30h2.75m1.5 0h3m1.5 0h3m1.5 0h2.75"/><path d="m20 38v-2.75m0-1.5v-3m0-1.5v-3m0-1.5v-2.75"/><path d="m43 32v-2.5m0-1.5v-3m0-1.5v-3m0-1.5v-3m0-1.5v-2.5"/><path d="m33 22h2.5m1.5 0h3m1.5 0h3m1.5 0h3m1.5 0h2.5"/></g><circle cx="32.869" cy="31.436" r=".01" transform="matrix(13.48979 0 0 13.48979-410.24-392.23)" style="stroke-width:.25"/></g></g></svg>
