<?xml version="1.0" encoding="UTF-8" standalone="no"?>
<svg
   xmlns:dc="http://purl.org/dc/elements/1.1/"
   xmlns:cc="http://creativecommons.org/ns#"
   xmlns:rdf="http://www.w3.org/1999/02/22-rdf-syntax-ns#"
   xmlns:svg="http://www.w3.org/2000/svg"
   xmlns="http://www.w3.org/2000/svg"
   xmlns:sodipodi="http://sodipodi.sourceforge.net/DTD/sodipodi-0.dtd"
   xmlns:inkscape="http://www.inkscape.org/namespaces/inkscape"
   width="512"
   height="512"
   id="svg2"
   version="1.1"
   inkscape:version="0.48.2 r9819"
   sodipodi:docname="PointMarkDraw.svg">
  <metadata
     id="metadata26">
    <rdf:RDF>
      <cc:Work
         rdf:about="">
        <dc:format>image/svg+xml</dc:format>
        <dc:type
           rdf:resource="http://purl.org/dc/dcmitype/StillImage" />
      </cc:Work>
    </rdf:RDF>
  </metadata>
  <sodipodi:namedview
     pagecolor="#ffffff"
     bordercolor="#666666"
     borderopacity="1"
     objecttolerance="10"
     gridtolerance="10"
     guidetolerance="10"
     inkscape:pageopacity="0"
     inkscape:pageshadow="2"
     inkscape:window-width="1797"
     inkscape:window-height="1187"
     id="namedview24"
     showgrid="true"
     inkscape:zoom="0.921875"
     inkscape:cx="29.288138"
     inkscape:cy="198.50847"
     inkscape:window-x="38"
     inkscape:window-y="6"
     inkscape:window-maximized="0"
     inkscape:current-layer="g3200">
    <inkscape:grid
       type="xygrid"
       id="grid3005"
       empspacing="8"
       visible="true"
       enabled="true"
       snapvisiblegridlinesonly="true"
       spacingx="8px"
       spacingy="8px" />
  </sodipodi:namedview>
  <defs
     id="defs4">
    <marker
       id="DistanceX"
       orient="auto"
       refX="0.0"
       refY="0.0"
       style="overflow:visible">
      <path
         d="M 3,-3 L -3,3 M 0,-5 L  0,5"
         style="stroke:#000000; stroke-width:0.5"
         id="path3090" />
    </marker>
    <pattern
       height="8"
       id="Hatch"
       patternUnits="userSpaceOnUse"
       width="8"
       x="0"
       y="0">
      <path
         d="M8 4 l-4,4"
         linecap="square"
         stroke="#000000"
         stroke-width="0.25"
         id="path3093" />
      <path
         d="M6 2 l-4,4"
         linecap="square"
         stroke="#000000"
         stroke-width="0.25"
         id="path3095" />
      <path
         d="M4 0 l-4,4"
         linecap="square"
         stroke="#000000"
         stroke-width="0.25"
         id="path3097" />
    </pattern>
    <symbol
       id="*Model_Space" />
    <symbol
       id="*Paper_Space" />
    <symbol
       id="*Paper_Space0" />
    <symbol
       id="_benchmark">
      <text
         style="font-size: 42.5px; fill: #000000; font-family: Arial"
         x="-44.549956"
         y="938.976378"
         sodipodi:linespacing="125%"
         id="text3103">
        <tspan
           sodipodi:role="line"
           id="tspan3105">Labellabel</tspan>
      </text>
      <path
         d="M 0.000000,1009.842520 L 0.000000,1052.362205 L 42.519685,1052.362205 A 42.519685,42.519685 0.0 0 0 0.000000,1094.881890 z M -0.000000,1052.362205 L -42.519685,1052.362205 A 42.519685,42.519685 0.0 0 0 0.000000,1009.842520 L -0.000000,1052.362205 z "
         style="fill:#000000"
         id="path3107" />
      <path
         d="M 42.519685,1052.362205 A 42.519685,42.519685 -0.000000 1 0 -42.519685,1052.362205 42.519685,42.519685 -0.000000 1 0 42.519685,1052.362205 z"
         style="stroke:#000000;fill:none"
         id="path3109" />
    </symbol>
  </defs>
  <g
     style="font-size:233.49264526px;font-style:normal;font-variant:normal;font-weight:normal;font-stretch:normal;line-height:125%;letter-spacing:0px;word-spacing:0px;fill:#000000;fill-opacity:1;stroke:none;font-family:Arial;-inkscape-font-specification:Arial"
     id="text3978">
    <path
       d="M 227.73827,154.93592 C 227.73827,137.1905 217.46458,122.01345 202.75456,114.3082 214.66267,106.60295 221.43397,94.461309 221.43397,79.284302 221.43397,55.701569 202.28755,36.555148 178.70481,36.555148 L 126.16897,36.555148 C 120.09817,36.555148 115.6618,40.991515 115.6618,47.062317 L 115.6618,189.49283 C 115.6618,195.56363 120.09817,200 126.16897,200 L 182.4407,200 C 207.65788,200 227.73827,179.91961 227.73827,154.93592 M 182.4407,121.77996 C 200.41961,121.77996 215.59665,136.72351 215.59665,154.93592 215.59665,172.91484 200.41961,187.85838 182.4407,187.85838 L 128.2704,187.85838 128.2704,121.77996 182.4407,121.77996 M 128.2704,109.40485 128.2704,48.930259 178.70481,48.930259 C 195.51627,48.930259 209.05886,62.472849 209.05886,79.284302 209.05886,95.862264 195.51627,109.40485 178.70481,109.40485 L 128.2704,109.40485"
       style="font-family:Planer;-inkscape-font-specification:Planer"
       id="path3002" />
    <path
       d="M 251.10577,193.6957 C 251.10577,197.19808 253.90768,200 257.41007,200 261.14595,200 263.71437,197.19808 263.71437,193.6957 L 263.71437,53.366619 C 263.71437,51.031695 265.58232,49.163751 267.91724,49.163751 269.55169,49.163751 271.18614,50.564709 271.65312,52.199156 L 313.91529,193.92919 C 315.08275,197.43158 317.88467,200 322.32103,200 326.52389,200 329.32581,197.43158 330.49327,193.92919 345.43678,146.76372 360.84733,99.13113 376.02433,51.965663 376.25783,50.331216 377.65878,49.163751 379.52672,49.163751 381.86165,49.163751 383.72959,51.031695 383.72959,53.366619 L 383.72959,193.6957 C 383.72959,197.19808 386.29801,200 390.03389,200 393.53628,200 396.33819,197.19808 396.33819,193.6957 L 396.33819,53.366619 C 396.33819,44.260415 388.63293,36.555148 379.52672,36.555148 372.28846,36.555148 365.51716,41.225008 363.41573,47.762795 349.87317,90.725399 335.86359,133.92162 322.32103,177.35121 L 284.02823,48.229781 C 281.9268,41.225008 275.389,36.555148 267.91724,36.555148 258.81104,36.555148 251.10577,44.260415 251.10577,53.366619 L 251.10577,193.6957"
       style="font-family:Planer;-inkscape-font-specification:Planer"
       id="path3004" />
  </g>
  <g
     id="g3200"
     transform="matrix(0.66666666,0,0,0.66666666,85.333338,189.33334)">
    <path
       transform="matrix(-0.75,0,0,0.75,448,64)"
       sodipodi:type="arc"
       style="fill:#ffffff;stroke:#000000;stroke-width:16.00000016;stroke-linecap:round;stroke-linejoin:round;stroke-miterlimit:4;stroke-opacity:1;stroke-dasharray:none;stroke-dashoffset:0"
       id="path3171"
       sodipodi:cx="256"
       sodipodi:cy="256"
       sodipodi:rx="256"
       sodipodi:ry="256"
       d="M 512,256 C 512,397.3849 397.3849,512 256,512 114.6151,512 0,397.3849 0,256 0,114.6151 114.6151,0 256,0 397.3849,0 512,114.6151 512,256 z" />
    <path
       inkscape:connector-curvature="0"
       id="path3162"
       d="M 256,64 C 362.03868,64 448,149.96132 448,256 L 256,256 256,64 z M 256,256 256,448 C 149.96133,448 64,362.03867 64,256 L 256,256 z"
       style="fill:#000000;stroke:#000000;stroke-width:0.0075;stroke-linecap:round;stroke-linejoin:round;stroke-miterlimit:4;stroke-opacity:1;stroke-dasharray:none;stroke-dashoffset:0" />
  </g>
</svg>
