<svg viewBox="0 0 2184.5333 2184.5333" overflow="visible" width="512" xmlns="http://www.w3.org/2000/svg" height="512">
<defs>
<linearGradient gradientTransform="matrix(8.62349 0 0 8.62349 -37.01614 -29.28318)" id="XMLID_6_" y1="77.207" y2="307.606" gradientUnits="userSpaceOnUse" x2="0">
<stop offset="0" stop-color="#3c3"/>
<stop offset="1" stop-color="#366"/>
</linearGradient>
<linearGradient gradientTransform="matrix(8.62349 0 0 8.62349 -37.01614 -29.28318)" id="XMLID_7_" y1="77.367" y2="307.363" gradientUnits="userSpaceOnUse" x2="0">
<stop offset=".006" stop-color="#cf6"/>
<stop offset="1" stop-color="#090"/>
</linearGradient>
<linearGradient gradientTransform="matrix(8.62349 0 0 8.62349 -37.01614 -29.28318)" id="XMLID_5_" y1="47.327" y2="212.988" gradientUnits="userSpaceOnUse" x2="0">
<stop offset="0" stop-color="#090"/>
<stop offset="1" stop-color="#334966"/>
</linearGradient>
<radialGradient cx="54.273" cy="89.348" gradientTransform="matrix(8.62349 0 0 8.62349 -37.01614 -29.28318)" id="XMLID_8_" r="120.813" gradientUnits="userSpaceOnUse">
<stop offset="0" stop-color="#fff"/>
<stop offset="1" stop-color="#92ff00"/>
</radialGradient>
</defs>
<path opacity=".2" d="m1876.0885,383.0146c0,0-1125.866,771.5525-1143.2855,783.4874-14.5651-14.5133-360.2809-358.6941-360.2809-358.6941-25.6808-25.5946-59.4245-35.0804-90.2621-25.3789-33.5454,10.6241-55.2162,34.5371-61.0543,67.3408l-3.6218,20.3773c-1.1642,6.5971-1.0521,13.2112 .3191,19.7047l5.0792,24.163 3.5184,10.7535 398.871,876.9576c12.4954,27.4485 37.7278,46.7996 67.522,51.7495 29.6734,4.9931 59.8125-5.1569 80.621-27.1123l1217.9304-1287.4184c17.8161-18.7044 28.0436-45.3854 28.0436-73.1358l-1.1125-10.6587-4.9325-23.4817c-6.0107-28.7162-24.5942-50.0508-53.6986-61.7183-18.575-7.4593-48.1708-11.2536-83.6564,13.0646z"/>
<path opacity=".2" d="m1850.2179,383.0146c0,0-1125.8659,771.5525-1143.2854,783.4874-14.5651-14.5133-360.2809-358.6941-360.2809-358.6941-25.6808-25.5946-59.4245-35.0804-90.2621-25.3789-33.5454,10.6241-55.2162,34.5371-61.0543,67.3408l-3.6219,20.3773c-1.1642,6.5971-1.0521,13.2112 .3191,19.7047l5.0792,24.163 3.5184,10.7535 398.871,876.9576c12.4954,27.4485 37.7278,46.7996 67.5219,51.7495 29.6734,4.9931 59.8125-5.1569 80.621-27.1123l1217.9303-1287.4184c17.8162-18.7044 28.0437-45.3854 28.0437-73.1358l-1.1125-10.6587-4.9327-23.4817c-6.0105-28.7162-24.5942-50.0508-53.6984-61.7183-18.575-7.4593-48.1709-11.2536-83.6566,13.0646z"/>
<path opacity=".2" d="m1841.5944,365.7676c0,0-1125.8659,771.5526-1143.2854,783.4875-14.5651-14.5134-360.2809-358.6942-360.2809-358.6942-25.6808-25.5946-59.4245-35.0804-90.2621-25.3791-33.5454,10.6242-55.2162,34.5372-61.0543,67.3409l-3.6218,20.3773c-1.1642,6.5969-1.0521,13.2112 .3191,19.7047l5.0792,24.163 3.5184,10.7535 398.871,876.9574c12.4954,27.4486 37.7278,46.7997 67.522,51.7496 29.6734,4.993 59.8125-5.1569 80.621-27.1122l1217.9303-1287.4185c17.8162-18.7044 28.0436-45.3854 28.0436-73.1358l-1.1124-10.6586-4.9327-23.4818c-6.0105-28.7162-24.5942-50.0507-53.6984-61.7183-18.575-7.4593-48.1708-11.2536-83.6566,13.0646z"/>
<path fill="url(#XMLID_5_)" d="m1824.3475,348.5207c0,0-1125.866,771.5524-1143.2854,783.4873-14.5651-14.5132-360.2809-358.6941-360.2809-358.6941-25.6808-25.5945-59.4245-35.0803-90.2621-25.3789-33.5454,10.6242-55.2162,34.5371-61.0543,67.3409l-3.6219,20.3773c-1.1642,6.5969-1.0521,13.2111 .3191,19.7046l5.0792,24.1631 3.5184,10.7535 398.871,876.9574c12.4954,27.4487 37.7278,46.7998 67.5219,51.7496 29.6734,4.993 59.8125-5.1568 80.621-27.1122l1217.9304-1287.4184c17.8161-18.7043 28.0435-45.3854 28.0435-73.1359l-1.1123-10.6586-4.9327-23.4818c-6.0106-28.7162-24.5942-50.0508-53.6985-61.7183-18.575-7.4593-48.1708-11.2536-83.6565,13.0646z"/>
<path fill="url(#XMLID_6_)" d="m1853.5897,391.2069c0,0-1168.0865,800.4671-1178.6503,807.7195-44.0316-43.8333-390.6615-388.9454-390.6615-388.9454-10.2361-10.193-24.4303-17.0401-38.2107-12.6938-13.7717,4.3548-23.1455,12.8059-25.6721,27.0346l-3.6219,20.3859 5.0792,24.1631c.0604,.1379 398.8538,876.9315 398.8538,876.9315 5.3552,11.7539 16.1777,20.0152 28.9232,22.1366 12.7369,2.13 25.6808-2.2853 34.563-11.6676l1217.9131-1287.3753c8.8047-9.2443 13.8925-22.9816 13.8925-37.5812l-4.9327-23.5249c-2.6646-12.6852-10.2792-19.4891-22.3175-24.3182-12.0212-4.8205-24.4821,.4226-35.1581,7.7353z"/>
<path fill="url(#XMLID_7_)" d="m691.5396,1234.5845c-12.2885,8.4251-28.837,6.9247-39.3835-3.5874 0,0-387.3759-385.6771-395.2405-393.5072-.7847,2.1731-1.328,4.5963-1.328,7.2265 0,2.8285 .5174,5.7088 1.6557,8.2354 0,0 397.5085,873.9651 398.7589,876.6988 7.5628-8.0198 1217.9131-1287.4184 1217.9131-1287.4184 2.0006-2.0955 3.2855-6.39 3.2855-10.9173 0-2.7768-.6381-5.5621-1.7246-8.063-8.8478,6.0365-1183.9366,811.3327-1183.9366,811.3327z"/>
<path fill="url(#XMLID_8_)" d="m709.0625,1260.1445c-.009,0-.009,0-.009,0-24.5597,16.79-57.6912,13.7631-78.7584-7.2265 0,0-172.9183-172.1766-287.0502-285.7912 91.3142,200.7722 264.5515,581.6547 321.8891,707.7214 52.414-55.3973 809.1082-855.2607 1034.6557-1093.6829-270.588,185.4395-990.7272,678.9447-990.7272,678.9447z"/>
</svg>
