<?xml version="1.0" encoding="UTF-8" standalone="no"?>
<!-- 2019-08-30 11:23:15 Generated by QCAD 3.23.0 SVG Exporter -->

<svg
   xmlns:dc="http://purl.org/dc/elements/1.1/"
   xmlns:cc="http://creativecommons.org/ns#"
   xmlns:rdf="http://www.w3.org/1999/02/22-rdf-syntax-ns#"
   xmlns:svg="http://www.w3.org/2000/svg"
   xmlns="http://www.w3.org/2000/svg"
   xmlns:sodipodi="http://sodipodi.sourceforge.net/DTD/sodipodi-0.dtd"
   xmlns:inkscape="http://www.inkscape.org/namespaces/inkscape"
   width="158.975mm"
   height="60.146mm"
   viewBox="-53.9875 -30.073 158.975 60.146"
   version="1.1"
   style="stroke-linecap:round;stroke-linejoin:round;fill:none"
   id="svg2"
   inkscape:version="0.48.5 r10040"
   sodipodi:docname="CurtainRope.svg">
  <metadata
     id="metadata138">
    <rdf:RDF>
      <cc:Work
         rdf:about="">
        <dc:format>image/svg+xml</dc:format>
        <dc:type
           rdf:resource="http://purl.org/dc/dcmitype/StillImage" />
      </cc:Work>
    </rdf:RDF>
  </metadata>
  <defs
     id="defs136" />
  <sodipodi:namedview
     pagecolor="#ffffff"
     bordercolor="#666666"
     borderopacity="1"
     objecttolerance="10"
     gridtolerance="10"
     guidetolerance="10"
     inkscape:pageopacity="0"
     inkscape:pageshadow="2"
     inkscape:window-width="1920"
     inkscape:window-height="1018"
     id="namedview134"
     showgrid="false"
     inkscape:zoom="1.6877884"
     inkscape:cx="189.21997"
     inkscape:cy="106.55788"
     inkscape:window-x="-8"
     inkscape:window-y="-8"
     inkscape:window-maximized="1"
     inkscape:current-layer="svg2" />
  <path
     inkscape:connector-curvature="0"
     id="path6"
     style="stroke:#000000;stroke-width:1.69333333999999990;stroke-miterlimit:4;stroke-dasharray:none;stroke-linejoin:round;stroke-opacity:1"
     d="m 0.0125,-13.7204 c 2.6938,2.3789 5.3875,4.7577 8.0829,7.1349 2.6953,2.3773 5.3922,4.7528 8.0829,7.135 2.6906,2.3822 5.3749,4.7711 8.0828,7.135 2.0777,1.8137 4.1692,3.6126 6.2017,5.4743 0.6165,0.5647 1.2276,1.1352 1.8812,1.6606 1.6854,1.3548 3.6532,2.4096 5.7939,2.8806 2.1407,0.4711 4.4542,0.3583 6.458,-0.4022 2.0037,-0.7606 3.6977,-2.169 5.3916,-3.5774" />
  <path
     inkscape:connector-curvature="0"
     id="path8"
     style="stroke:#000000;stroke-width:1.69333333999999990;stroke-miterlimit:4;stroke-dasharray:none;stroke-linejoin:round;stroke-opacity:1"
     d="m 49.9875,13.7204 c -2.6866,-2.387 -5.3732,-4.774 -8.0704,-7.1491 -2.6972,-2.3751 -5.405,-4.7383 -8.0954,-7.1208 -2.4218,-2.1447 -4.8295,-4.305 -7.2661,-6.4339 -2.3495,-2.0526 -4.7259,-4.076 -7.0254,-6.1816 -0.6143,-0.5625 -1.2231,-1.1309 -1.8742,-1.6544 -1.6851,-1.3551 -3.6532,-2.4097 -5.7939,-2.8806 -2.1408,-0.471 -4.4543,-0.3583 -6.458,0.4022 -2.0037,0.7606 -3.6976,2.169 -5.3916,3.5774" />
  <path
     inkscape:connector-curvature="0"
     id="path10"
     style="stroke:#000000;stroke-width:1.69333333999999990;stroke-miterlimit:4;stroke-dasharray:none;stroke-linejoin:round;stroke-opacity:1"
     d="m 49.9875,-8.3367 c -1.8386,-1.5932 -3.6771,-3.1864 -5.4698,-4.8283 -0.6142,-0.5626 -1.2231,-1.1309 -1.8742,-1.6544 -1.6852,-1.355 -3.6532,-2.4097 -5.7939,-2.8806 -2.1408,-0.471 -4.4543,-0.3583 -6.458,0.4022 -2.0037,0.7606 -3.6976,2.169 -5.3916,3.5774" />
  <path
     inkscape:connector-curvature="0"
     id="path12"
     style="stroke:#000000;stroke-width:1.69333333999999990;stroke-miterlimit:4;stroke-dasharray:none;stroke-linejoin:round;stroke-opacity:1"
     d="m 25,-13.7204 c 2.0823,1.8381 4.1646,3.6762 6.2469,5.5143 2.0823,1.838 4.1646,3.6761 6.2469,5.5142 2.0822,1.8381 4.1645,3.6762 6.2468,5.5143 2.0823,1.8381 4.1646,3.6762 6.2469,5.5143" />
  <path
     inkscape:connector-curvature="0"
     id="path14"
     style="stroke:#000000;stroke-width:1.69333333999999990;stroke-miterlimit:4;stroke-dasharray:none;stroke-linejoin:round;stroke-opacity:1"
     d="m 49.75,-13.7204 c 0.9125,0.7282 1.825,1.4565 2.7375,2.1847" />
  <path
     inkscape:connector-curvature="0"
     id="path16"
     style="stroke:#000000;stroke-width:1.69333333999999990;stroke-miterlimit:4;stroke-dasharray:none;stroke-linejoin:round;stroke-opacity:1"
     d="M 0.25,13.7204 C -0.6625,12.9922 -1.575,12.2639 -2.4875,11.5357" />
  <path
     inkscape:connector-curvature="0"
     id="path18"
     style="stroke:#000000;stroke-width:1.69333333999999990;stroke-miterlimit:4;stroke-dasharray:none;stroke-linejoin:round;stroke-opacity:1"
     d="m -22.5,-15 c -0.4183,0.0035 -0.8366,0.0069 -1.25,0 -4.8385,-0.0812 -9.0024,-1.589 -13.75,-5 -3.2702,-2.3495 -6.8172,-5.6021 -8.75,-5 -2.2757,0.709 -2.3134,6.7619 -2.4176,11.617 -0.1176,5.4774 -0.3199,9.4302 -0.3199,13.383 0,3.9528 0.2023,7.9056 0.3199,13.383 0.1042,4.8551 0.1419,10.908 2.4176,11.617 1.9328,0.6021 5.4798,-2.6505 8.75,-5 4.7476,-3.411 8.9115,-4.9188 13.75,-5 0.4134,-0.0069 0.8317,-0.0035 1.25,0" />
  <path
     inkscape:connector-curvature="0"
     id="path20"
     style="stroke:#000000;stroke-width:1.69333333999999990;stroke-miterlimit:4;stroke-dasharray:none;stroke-linejoin:round;stroke-opacity:1"
     d="m 72.5,15 c 0.4174,-0.0056 0.8348,-0.0112 1.25,0 4.8596,0.1316 9.4147,2.5734 13.75,5 2.9862,1.6715 5.8681,3.3357 8.75,5" />
  <path
     inkscape:connector-curvature="0"
     id="path22"
     style="stroke:#000000;stroke-width:1.69333333999999990;stroke-miterlimit:4;stroke-dasharray:none;stroke-linejoin:round;stroke-opacity:1"
     d="m 72.5,-15 c 0.4174,0.0056 0.8348,0.0112 1.25,0 4.8596,-0.1316 9.4147,-2.5734 13.75,-5 2.9862,-1.6715 5.8681,-3.3357 8.75,-5" />
  <path
     inkscape:connector-curvature="0"
     id="path24"
     style="stroke:#000000;stroke-width:1.69333333999999990;stroke-miterlimit:4;stroke-dasharray:none;stroke-linejoin:round;stroke-opacity:1"
     d="m 96.25,-25 c 1.8687,8.3333 3.7375,16.6667 3.7375,25 0,8.3333 -1.8688,16.6667 -3.7375,25" />
  <path
     inkscape:connector-curvature="0"
     id="path26"
     style="stroke:#000000;stroke-width:1.69333333999999990;stroke-miterlimit:4;stroke-dasharray:none;stroke-linejoin:round;stroke-opacity:1"
     d="m -22.5,15 c 0,-10 0,-20 0,-30" />
  <path
     inkscape:connector-curvature="0"
     id="path28"
     style="stroke:#000000;stroke-width:1.69333333999999990;stroke-miterlimit:4;stroke-dasharray:none;stroke-linejoin:round;stroke-opacity:1"
     d="m 69.9875,-16.25 c 0,10.8333 0,21.6667 0,32.5" />
  <path
     inkscape:connector-curvature="0"
     id="path30"
     style="stroke:#000000;stroke-width:1.69333333999999990;stroke-miterlimit:4;stroke-dasharray:none;stroke-linejoin:round;stroke-opacity:1"
     d="m -19.9875,16.25 c 0,-10.8333 0,-21.6667 0,-32.5" />
  <path
     inkscape:connector-curvature="0"
     id="path32"
     style="stroke:#000000;stroke-width:1.69333333999999990;stroke-miterlimit:4;stroke-dasharray:none;stroke-linejoin:round;stroke-opacity:1"
     d="m 64.9875,-16.25 c 0,10.8333 0,21.6667 0,32.5" />
  <path
     inkscape:connector-curvature="0"
     id="path34"
     style="stroke:#000000;stroke-width:1.69333333999999990;stroke-miterlimit:4;stroke-dasharray:none;stroke-linejoin:round;stroke-opacity:1"
     d="m -4.9875,-16.25 c -0.8333,10.8333 -1.6667,21.6667 -2.5,32.5" />
  <path
     inkscape:connector-curvature="0"
     id="path36"
     style="stroke:#000000;stroke-width:1.69333333999999990;stroke-miterlimit:4;stroke-dasharray:none;stroke-linejoin:round;stroke-opacity:1"
     d="m 59.9875,-16.25 c 0,10.8333 0,21.6667 0,32.5" />
  <path
     inkscape:connector-curvature="0"
     id="path38"
     style="stroke:#000000;stroke-width:1.69333333999999990;stroke-miterlimit:4;stroke-dasharray:none;stroke-linejoin:round;stroke-opacity:1"
     d="m -9.9875,-16.25 c -0.8333,10.8333 -1.6667,21.6667 -2.5,32.5" />
  <path
     inkscape:connector-curvature="0"
     id="path40"
     style="stroke:#000000;stroke-width:1.69333333999999990;stroke-miterlimit:4;stroke-dasharray:none;stroke-linejoin:round;stroke-opacity:1"
     d="m 67.4875,-16.25 c 0,10.8333 0,21.6667 0,32.5" />
  <path
     inkscape:connector-curvature="0"
     id="path42"
     style="stroke:#000000;stroke-width:1.69333333999999990;stroke-miterlimit:4;stroke-dasharray:none;stroke-linejoin:round;stroke-opacity:1"
     d="M -2.875,-11.125 C -3.5792,-2 -4.2833,7.125 -4.9875,16.25" />
  <path
     inkscape:connector-curvature="0"
     id="path44"
     style="stroke:#000000;stroke-width:1.69333333999999990;stroke-miterlimit:4;stroke-dasharray:none;stroke-linejoin:round;stroke-opacity:1"
     d="m 62.4875,-16.25 c 0,10.8333 0,21.6667 0,32.5" />
  <path
     inkscape:connector-curvature="0"
     id="path46"
     style="stroke:#000000;stroke-width:1.69333333999999990;stroke-miterlimit:4;stroke-dasharray:none;stroke-linejoin:round;stroke-opacity:1"
     d="m -7.4875,-16.25 c -0.8333,10.8333 -1.6667,21.6667 -2.5,32.5" />
  <path
     inkscape:connector-curvature="0"
     id="path48"
     style="stroke:#000000;stroke-width:1.69333333999999990;stroke-miterlimit:4;stroke-dasharray:none;stroke-linejoin:round;stroke-opacity:1"
     d="m 57.4875,-16.25 c 0,10.8333 0,21.6667 0,32.5" />
  <path
     inkscape:connector-curvature="0"
     id="path50"
     style="stroke:#000000;stroke-width:1.69333333999999990;stroke-miterlimit:4;stroke-dasharray:none;stroke-linejoin:round;stroke-opacity:1"
     d="m -12.4875,-16.25 c -0.8333,10.8333 -1.6667,21.6667 -2.5,32.5" />
  <path
     inkscape:connector-curvature="0"
     id="path52"
     style="stroke:#000000;stroke-width:1.69333333999999990;stroke-miterlimit:4;stroke-dasharray:none;stroke-linejoin:round;stroke-opacity:1"
     d="m 72.5,15 c 0,-10 0,-20 0,-30" />
  <path
     inkscape:connector-curvature="0"
     id="path54"
     style="stroke:#000000;stroke-width:1.69333333999999990;stroke-miterlimit:4;stroke-dasharray:none;stroke-linejoin:round;stroke-opacity:1"
     d="m 54.9875,16.25 c 0,-10.8333 0,-21.6667 0,-32.5" />
  <path
     inkscape:connector-curvature="0"
     id="path56"
     style="stroke:#000000;stroke-width:1.69333333999999990;stroke-miterlimit:4;stroke-dasharray:none;stroke-linejoin:round;stroke-opacity:1"
     d="m -14.9875,-16.25 c -0.8333,10.8333 -1.6667,21.6667 -2.5,32.5" />
  <path
     inkscape:connector-curvature="0"
     id="path58"
     style="stroke:#000000;stroke-width:1.69333333999999990;stroke-miterlimit:4;stroke-dasharray:none;stroke-linejoin:round;stroke-opacity:1"
     d="m 52.4875,16.25 c 0,-9.2619 0,-18.5238 0,-27.7857" />
  <path
     inkscape:connector-curvature="0"
     id="path60"
     style="stroke:#000000;stroke-width:1.69333333999999990;stroke-miterlimit:4;stroke-dasharray:none;stroke-linejoin:round;stroke-opacity:1"
     d="m -2.4875,-16.25 c 0,9.2619 0,18.5238 0,27.7857" />
  <path
     inkscape:connector-curvature="0"
     id="path62"
     style="stroke:#000000;stroke-width:1.69333333999999990;stroke-miterlimit:4;stroke-dasharray:none;stroke-linejoin:round;stroke-opacity:1"
     d="m 54.9875,-16.25 c -0.0336,-0.218 -0.0673,-0.4361 -0.1674,-0.625 -0.1002,-0.189 -0.2669,-0.3489 -0.4576,-0.4576 -0.1907,-0.1086 -0.4054,-0.1661 -0.625,-0.1674 -0.2196,-0.0013 -0.444,0.0535 -0.625,0.1674 -0.1809,0.114 -0.3184,0.2871 -0.4575,0.4576 -0.9218,1.1296 -1.9134,2.1421 -2.905,3.1546" />
  <path
     inkscape:connector-curvature="0"
     id="path64"
     style="stroke:#000000;stroke-width:1.69333333999999990;stroke-miterlimit:4;stroke-dasharray:none;stroke-linejoin:round;stroke-opacity:1"
     d="m -4.9875,16.25 c 0.0336,0.218 0.0673,0.4361 0.1674,0.625 0.1002,0.189 0.2669,0.3489 0.4576,0.4576 0.1907,0.1086 0.4054,0.1661 0.625,0.1674 0.2196,0.0013 0.444,-0.0535 0.625,-0.1674 0.1809,-0.114 0.3184,-0.2871 0.4575,-0.4576 0.9218,-1.1296 1.9134,-2.1421 2.905,-3.1546" />
  <path
     inkscape:connector-curvature="0"
     id="path66"
     style="stroke:#000000;stroke-width:1.69333333999999990;stroke-miterlimit:4;stroke-dasharray:none;stroke-linejoin:round;stroke-opacity:1"
     d="M 24.9875,13.7204 C 22.9062,11.8833 20.8249,10.0462 18.7437,8.2089 16.6626,6.3716 14.5815,4.5342 12.5,2.6974 10.4185,0.8606 8.3364,-0.9757 6.2563,-2.8141 4.1737,-4.6546 2.0931,-6.4973 0.0125,-8.3399" />
  <path
     inkscape:connector-curvature="0"
     id="path68"
     style="stroke:#000000;stroke-width:1.69333333999999990;stroke-miterlimit:4;stroke-dasharray:none;stroke-linejoin:round;stroke-opacity:1"
     d="m 0.0125,8.3617 c 1.8329,1.5819 3.6657,3.1637 5.4503,4.7971 0.6167,0.5645 1.2277,1.1351 1.8812,1.6606 1.6852,1.355 3.6532,2.4097 5.7939,2.8806 2.1408,0.471 4.4543,0.3583 6.458,-0.4022 2.0037,-0.7606 3.6976,-2.169 5.3916,-3.5774" />
  <path
     inkscape:connector-curvature="0"
     id="path70"
     style="stroke:#000000;stroke-width:1.69333333999999990;stroke-miterlimit:4;stroke-dasharray:none;stroke-linejoin:round;stroke-opacity:1"
     d="m -45,20.625 c 1.6395,-1.1198 3.2791,-2.2396 5,-3.25 2.3588,-1.385 4.8705,-2.5645 7.5,-3.25 2.0362,-0.5308 4.1431,-0.7654 6.25,-1" />
  <path
     inkscape:connector-curvature="0"
     id="path72"
     style="stroke:#000000;stroke-width:1.69333333999999990;stroke-miterlimit:4;stroke-dasharray:none;stroke-linejoin:round;stroke-opacity:1"
     d="m -45.25,16.375 c 1.3098,-0.7956 2.6196,-1.5911 4,-2.25 1.5934,-0.7605 3.2809,-1.3388 5,-1.75 1.6473,-0.394 3.3236,-0.6345 5,-0.875" />
  <path
     inkscape:connector-curvature="0"
     id="path74"
     style="stroke:#000000;stroke-width:1.69333333999999990;stroke-miterlimit:4;stroke-dasharray:none;stroke-linejoin:round;stroke-opacity:1"
     d="m -45,12.25 c 1.315,-0.5978 2.63,-1.1956 4,-1.625 0.9812,-0.3076 1.9906,-0.5288 3,-0.75" />
  <path
     inkscape:connector-curvature="0"
     id="path76"
     style="stroke:#000000;stroke-width:1.69333333999999990;stroke-miterlimit:4;stroke-dasharray:none;stroke-linejoin:round;stroke-opacity:1"
     d="M 98.6676,13.383 C 97.0049,12.6573 95.3422,11.9316 93.625,11.375 91.8313,10.7937 89.9782,10.3968 88.125,10" />
  <path
     inkscape:connector-curvature="0"
     id="path78"
     style="stroke:#000000;stroke-width:1.69333333999999990;stroke-miterlimit:4;stroke-dasharray:none;stroke-linejoin:round;stroke-opacity:1"
     d="M 97.9201,17.3103 C 96.1202,16.4482 94.3204,15.5861 92.5,14.75 c -1.6354,-0.7511 -3.2875,-1.4812 -5,-2 -2.0269,-0.614 -4.1384,-0.932 -6.25,-1.25" />
  <path
     inkscape:connector-curvature="0"
     id="path80"
     style="stroke:#000000;stroke-width:1.69333333999999990;stroke-miterlimit:4;stroke-dasharray:none;stroke-linejoin:round;stroke-opacity:1"
     d="M 97.0928,21.2127 C 94.7372,19.9722 92.3817,18.7317 90,17.5 c -2.4317,-1.2576 -4.8908,-2.5059 -7.5,-3.25 -1.6277,-0.4642 -3.3138,-0.7321 -5,-1" />
  <path
     inkscape:connector-curvature="0"
     id="path82"
     style="stroke:#000000;stroke-width:1.69333333999999990;stroke-miterlimit:4;stroke-dasharray:none;stroke-linejoin:round;stroke-opacity:1"
     d="m 67.4875,16.25 c 0.0338,0.2181 0.0675,0.4361 0.1675,0.625 0.0999,0.1889 0.266,0.3485 0.4575,0.4575 0.1915,0.1091 0.4082,0.1675 0.625,0.1675 0.2168,0 0.4335,-0.0584 0.625,-0.1675 0.1915,-0.109 0.3576,-0.2686 0.4575,-0.4575 0.1,-0.1889 0.1337,-0.4069 0.1675,-0.625" />
  <path
     inkscape:connector-curvature="0"
     id="path84"
     style="stroke:#000000;stroke-width:1.69333333999999990;stroke-miterlimit:4;stroke-dasharray:none;stroke-linejoin:round;stroke-opacity:1"
     d="m 62.4875,16.25 c 0.0338,0.2181 0.0675,0.4361 0.1675,0.625 0.0999,0.1889 0.266,0.3485 0.4575,0.4575 0.1915,0.1091 0.4082,0.1675 0.625,0.1675 0.2168,0 0.4335,-0.0584 0.625,-0.1675 0.1915,-0.109 0.3576,-0.2686 0.4575,-0.4575 0.1,-0.1889 0.1337,-0.4069 0.1675,-0.625" />
  <path
     inkscape:connector-curvature="0"
     id="path86"
     style="stroke:#000000;stroke-width:1.69333333999999990;stroke-miterlimit:4;stroke-dasharray:none;stroke-linejoin:round;stroke-opacity:1"
     d="m 57.4875,16.25 c 0.0338,0.2181 0.0675,0.4361 0.1675,0.625 0.0999,0.1889 0.266,0.3485 0.4575,0.4575 0.1915,0.1091 0.4082,0.1675 0.625,0.1675 0.2168,0 0.4335,-0.0584 0.625,-0.1675 0.1915,-0.109 0.3576,-0.2686 0.4575,-0.4575 0.1,-0.1889 0.1337,-0.4069 0.1675,-0.625" />
  <path
     inkscape:connector-curvature="0"
     id="path88"
     style="stroke:#000000;stroke-width:1.69333333999999990;stroke-miterlimit:4;stroke-dasharray:none;stroke-linejoin:round;stroke-opacity:1"
     d="m 52.4875,16.25 c 0.0338,0.2181 0.0675,0.4361 0.1675,0.625 0.0999,0.1889 0.266,0.3485 0.4575,0.4575 0.1915,0.1091 0.4082,0.1675 0.625,0.1675 0.2168,0 0.4335,-0.0584 0.625,-0.1675 0.1915,-0.109 0.3576,-0.2686 0.4575,-0.4575 0.1,-0.1889 0.1337,-0.4069 0.1675,-0.625" />
  <path
     inkscape:connector-curvature="0"
     id="path90"
     style="stroke:#000000;stroke-width:1.69333333999999990;stroke-miterlimit:4;stroke-dasharray:none;stroke-linejoin:round;stroke-opacity:1"
     d="m 57.4875,-16.25 c 0.0338,-0.2181 0.0675,-0.4361 0.1675,-0.625 0.0999,-0.1889 0.266,-0.3485 0.4575,-0.4575 0.1915,-0.1091 0.4082,-0.1675 0.625,-0.1675 0.2168,0 0.4335,0.0584 0.625,0.1675 0.1915,0.109 0.3576,0.2686 0.4575,0.4575 0.1,0.1889 0.1337,0.4069 0.1675,0.625" />
  <path
     inkscape:connector-curvature="0"
     id="path92"
     style="stroke:#000000;stroke-width:1.69333333999999990;stroke-miterlimit:4;stroke-dasharray:none;stroke-linejoin:round;stroke-opacity:1"
     d="m 62.4875,-16.25 c 0.0338,-0.2181 0.0675,-0.4361 0.1675,-0.625 0.0999,-0.1889 0.266,-0.3485 0.4575,-0.4575 0.1915,-0.1091 0.4082,-0.1675 0.625,-0.1675 0.2168,0 0.4335,0.0584 0.625,0.1675 0.1915,0.109 0.3576,0.2686 0.4575,0.4575 0.1,0.1889 0.1337,0.4069 0.1675,0.625" />
  <path
     inkscape:connector-curvature="0"
     id="path94"
     style="stroke:#000000;stroke-width:1.69333333999999990;stroke-miterlimit:4;stroke-dasharray:none;stroke-linejoin:round;stroke-opacity:1"
     d="m 67.4875,-16.25 c 0.0338,-0.2181 0.0675,-0.4361 0.1675,-0.625 0.0999,-0.1889 0.266,-0.3485 0.4575,-0.4575 0.1915,-0.1091 0.4082,-0.1675 0.625,-0.1675 0.2168,0 0.4335,0.0584 0.625,0.1675 0.1915,0.109 0.3576,0.2686 0.4575,0.4575 0.1,0.1889 0.1337,0.4069 0.1675,0.625" />
  <path
     inkscape:connector-curvature="0"
     id="path96"
     style="stroke:#000000;stroke-width:1.69333333999999990;stroke-miterlimit:4;stroke-dasharray:none;stroke-linejoin:round;stroke-opacity:1"
     d="m -17.4875,16.25 c -0.0338,0.2181 -0.0675,0.4361 -0.1675,0.625 -0.0999,0.1889 -0.266,0.3485 -0.4575,0.4575 -0.1915,0.1091 -0.4082,0.1675 -0.625,0.1675 -0.2168,0 -0.4335,-0.0584 -0.625,-0.1675 -0.1915,-0.109 -0.3576,-0.2686 -0.4575,-0.4575 -0.1,-0.1889 -0.1337,-0.4069 -0.1675,-0.625" />
  <path
     inkscape:connector-curvature="0"
     id="path98"
     style="stroke:#000000;stroke-width:1.69333333999999990;stroke-miterlimit:4;stroke-dasharray:none;stroke-linejoin:round;stroke-opacity:1"
     d="m -7.4875,16.25 c -0.0338,0.2181 -0.0675,0.4361 -0.1675,0.625 -0.0999,0.1889 -0.266,0.3485 -0.4575,0.4575 C -8.304,17.4416 -8.5207,17.5 -8.7375,17.5 -8.9543,17.5 -9.171,17.4416 -9.3625,17.3325 -9.554,17.2235 -9.7201,17.0639 -9.82,16.875 -9.92,16.6861 -9.9537,16.4681 -9.9875,16.25" />
  <path
     inkscape:connector-curvature="0"
     id="path100"
     style="stroke:#000000;stroke-width:1.69333333999999990;stroke-miterlimit:4;stroke-dasharray:none;stroke-linejoin:round;stroke-opacity:1"
     d="m -12.4875,16.25 c -0.0338,0.2181 -0.0675,0.4361 -0.1675,0.625 -0.0999,0.1889 -0.266,0.3485 -0.4575,0.4575 -0.1915,0.1091 -0.4082,0.1675 -0.625,0.1675 -0.2168,0 -0.4335,-0.0584 -0.625,-0.1675 -0.1915,-0.109 -0.3576,-0.2686 -0.4575,-0.4575 -0.1,-0.1889 -0.1337,-0.4069 -0.1675,-0.625" />
  <path
     inkscape:connector-curvature="0"
     id="path102"
     style="stroke:#000000;stroke-width:1.69333333999999990;stroke-miterlimit:4;stroke-dasharray:none;stroke-linejoin:round;stroke-opacity:1"
     d="m -2.4875,-16.25 c -0.0338,-0.2181 -0.0675,-0.4361 -0.1675,-0.625 -0.0999,-0.1889 -0.266,-0.3485 -0.4575,-0.4575 -0.1915,-0.1091 -0.4082,-0.1675 -0.625,-0.1675 -0.2168,0 -0.4335,0.0584 -0.625,0.1675 -0.1915,0.109 -0.3576,0.2686 -0.4575,0.4575 -0.1,0.1889 -0.1337,0.4069 -0.1675,0.625" />
  <path
     inkscape:connector-curvature="0"
     id="path104"
     style="stroke:#000000;stroke-width:1.69333333999999990;stroke-miterlimit:4;stroke-dasharray:none;stroke-linejoin:round;stroke-opacity:1"
     d="m -7.4875,-16.25 c -0.0338,-0.2181 -0.0675,-0.4361 -0.1675,-0.625 -0.0999,-0.1889 -0.266,-0.3485 -0.4575,-0.4575 -0.1915,-0.1091 -0.4082,-0.1675 -0.625,-0.1675 -0.2168,0 -0.4335,0.0584 -0.625,0.1675 -0.1915,0.109 -0.3576,0.2686 -0.4575,0.4575 -0.1,0.1889 -0.1337,0.4069 -0.1675,0.625" />
  <path
     inkscape:connector-curvature="0"
     id="path106"
     style="stroke:#000000;stroke-width:1.69333333999999990;stroke-miterlimit:4;stroke-dasharray:none;stroke-linejoin:round;stroke-opacity:1"
     d="m -12.4875,-16.25 c -0.0338,-0.2181 -0.0675,-0.4361 -0.1675,-0.625 -0.0999,-0.1889 -0.266,-0.3485 -0.4575,-0.4575 -0.1915,-0.1091 -0.4082,-0.1675 -0.625,-0.1675 -0.2168,0 -0.4335,0.0584 -0.625,0.1675 -0.1915,0.109 -0.3576,0.2686 -0.4575,0.4575 -0.1,0.1889 -0.1337,0.4069 -0.1675,0.625" />
  <path
     inkscape:connector-curvature="0"
     id="path108"
     style="stroke:#000000;stroke-width:1.69333333999999990;stroke-miterlimit:4;stroke-dasharray:none;stroke-linejoin:round;stroke-opacity:1"
     d="m -17.4875,-16.25 c -0.0338,-0.2181 -0.0675,-0.4361 -0.1675,-0.625 -0.0999,-0.1889 -0.266,-0.3485 -0.4575,-0.4575 -0.1915,-0.1091 -0.4082,-0.1675 -0.625,-0.1675 -0.2168,0 -0.4335,0.0584 -0.625,0.1675 -0.1915,0.109 -0.3576,0.2686 -0.4575,0.4575 -0.1,0.1889 -0.1337,0.4069 -0.1675,0.625" />
  <path
     inkscape:connector-curvature="0"
     id="path110"
     style="stroke:#000000;stroke-width:1.69333333999999990;stroke-miterlimit:4;stroke-dasharray:none;stroke-linejoin:round;stroke-opacity:1"
     d="m -14.9875,16.25 c -0.0338,0.2181 -0.0675,0.4361 -0.1675,0.625 -0.0999,0.1889 -0.266,0.3485 -0.4575,0.4575 -0.1915,0.1091 -0.4082,0.1675 -0.625,0.1675 -0.2168,0 -0.4335,-0.0584 -0.625,-0.1675 -0.1915,-0.109 -0.3576,-0.2686 -0.4575,-0.4575 -0.1,-0.1889 -0.1337,-0.4069 -0.1675,-0.625" />
  <path
     inkscape:connector-curvature="0"
     id="path112"
     style="stroke:#000000;stroke-width:1.69333333999999990;stroke-miterlimit:4;stroke-dasharray:none;stroke-linejoin:round;stroke-opacity:1"
     d="m -4.9875,16.25 c -0.0338,0.2181 -0.0675,0.4361 -0.1675,0.625 -0.0999,0.1889 -0.266,0.3485 -0.4575,0.4575 C -5.804,17.4416 -6.0207,17.5 -6.2375,17.5 -6.4543,17.5 -6.671,17.4416 -6.8625,17.3325 -7.054,17.2235 -7.2201,17.0639 -7.32,16.875 -7.42,16.6861 -7.4537,16.4681 -7.4875,16.25" />
  <path
     inkscape:connector-curvature="0"
     id="path114"
     style="stroke:#000000;stroke-width:1.69333333999999990;stroke-miterlimit:4;stroke-dasharray:none;stroke-linejoin:round;stroke-opacity:1"
     d="m -9.9875,16.25 c -0.0338,0.2181 -0.0675,0.4361 -0.1675,0.625 -0.0999,0.1889 -0.266,0.3485 -0.4575,0.4575 -0.1915,0.1091 -0.4082,0.1675 -0.625,0.1675 -0.2168,0 -0.4335,-0.0584 -0.625,-0.1675 -0.1915,-0.109 -0.3576,-0.2686 -0.4575,-0.4575 -0.1,-0.1889 -0.1337,-0.4069 -0.1675,-0.625" />
  <path
     inkscape:connector-curvature="0"
     id="path116"
     style="stroke:#000000;stroke-width:1.69333333999999990;stroke-miterlimit:4;stroke-dasharray:none;stroke-linejoin:round;stroke-opacity:1"
     d="m -4.9875,-16.25 c -0.0338,-0.2181 -0.0675,-0.4361 -0.1675,-0.625 -0.0999,-0.1889 -0.266,-0.3485 -0.4575,-0.4575 -0.1915,-0.1091 -0.4082,-0.1675 -0.625,-0.1675 -0.2168,0 -0.4335,0.0584 -0.625,0.1675 -0.1915,0.109 -0.3576,0.2686 -0.4575,0.4575 -0.1,0.1889 -0.1337,0.4069 -0.1675,0.625" />
  <path
     inkscape:connector-curvature="0"
     id="path118"
     style="stroke:#000000;stroke-width:1.69333333999999990;stroke-miterlimit:4;stroke-dasharray:none;stroke-linejoin:round;stroke-opacity:1"
     d="m -9.9875,-16.25 c -0.0338,-0.2181 -0.0675,-0.4361 -0.1675,-0.625 -0.0999,-0.1889 -0.266,-0.3485 -0.4575,-0.4575 -0.1915,-0.1091 -0.4082,-0.1675 -0.625,-0.1675 -0.2168,0 -0.4335,0.0584 -0.625,0.1675 -0.1915,0.109 -0.3576,0.2686 -0.4575,0.4575 -0.1,0.1889 -0.1337,0.4069 -0.1675,0.625" />
  <path
     inkscape:connector-curvature="0"
     id="path120"
     style="stroke:#000000;stroke-width:1.69333333999999990;stroke-miterlimit:4;stroke-dasharray:none;stroke-linejoin:round;stroke-opacity:1"
     d="m -14.9875,-16.25 c -0.0338,-0.2181 -0.0675,-0.4361 -0.1675,-0.625 -0.0999,-0.1889 -0.266,-0.3485 -0.4575,-0.4575 -0.1915,-0.1091 -0.4082,-0.1675 -0.625,-0.1675 -0.2168,0 -0.4335,0.0584 -0.625,0.1675 -0.1915,0.109 -0.3576,0.2686 -0.4575,0.4575 -0.1,0.1889 -0.1337,0.4069 -0.1675,0.625" />
  <path
     inkscape:connector-curvature="0"
     id="path122"
     style="stroke:#000000;stroke-width:1.69333333999999990;stroke-miterlimit:4;stroke-dasharray:none;stroke-linejoin:round;stroke-opacity:1"
     d="m 0.0125,-8.3399 c 0,2.7836 0,5.5672 0,8.3508 0,2.7836 0,5.5672 0,8.3508" />
  <path
     inkscape:connector-curvature="0"
     id="path124"
     style="stroke:#000000;stroke-width:1.69333333999999990;stroke-miterlimit:4;stroke-dasharray:none;stroke-linejoin:round;stroke-opacity:1"
     d="m 49.9875,8.3367 c 0,-2.7789 0,-5.5578 0,-8.3367 0,-2.7789 0,-5.5578 0,-8.3367" />
  <path
     inkscape:connector-curvature="0"
     id="path126"
     style="stroke:#000000;stroke-width:1.69333333999999990;stroke-miterlimit:4;stroke-dasharray:none;stroke-linejoin:round;stroke-opacity:1"
     d="M -17.4875,-16.25 C -18.1917,-7.125 -18.8958,2 -19.6,11.125" />
  <path
     inkscape:connector-curvature="0"
     id="path128"
     style="stroke:#000000;stroke-width:1.69333333999999990;stroke-miterlimit:4;stroke-dasharray:none;stroke-linejoin:round;stroke-opacity:1"
     d="m 10.625,10 c 1.5061,1.2028 3.0122,2.4055 4.5074,3.6218 1.4951,1.2163 2.9793,2.4462 4.4635,3.676" />
  <path
     inkscape:connector-curvature="0"
     id="path130"
     style="stroke:#000000;stroke-width:1.69333333999999990;stroke-miterlimit:4;stroke-dasharray:none;stroke-linejoin:round;stroke-opacity:1"
     d="m 35.625,10 c 1.5061,1.2028 3.0122,2.4055 4.5074,3.6218 1.4951,1.2163 2.9793,2.4462 4.4635,3.676" />
  <path
     inkscape:connector-curvature="0"
     id="path132"
     style="stroke:#000000;stroke-width:1.69333333999999990;stroke-miterlimit:4;stroke-dasharray:none;stroke-linejoin:round;stroke-opacity:1"
     d="m 1.25,-16.25 c 1.427,-0.7129 2.854,-1.4258 4.375,-1.875 2.3966,-0.7077 5.0268,-0.7606 7.5,0 3.2588,1.0022 6.2451,3.4166 9.375,3.125 1.2519,-0.1167 2.5269,-0.6663 3.75,-1.25 1.4729,-0.7029 2.8707,-1.4552 4.375,-1.875 2.3704,-0.6615 5.0052,-0.4975 7.5,0 3.2872,0.6556 6.3311,1.8903 9.375,3.125" />
</svg>
