<?xml version="1.0" encoding="UTF-8" standalone="no"?>
<!-- Created with Inkscape (http://www.inkscape.org/) -->

<svg
   xmlns:dc="http://purl.org/dc/elements/1.1/"
   xmlns:cc="http://creativecommons.org/ns#"
   xmlns:rdf="http://www.w3.org/1999/02/22-rdf-syntax-ns#"
   xmlns:svg="http://www.w3.org/2000/svg"
   xmlns="http://www.w3.org/2000/svg"
   version="1.1"
   width="100%"
   height="100%"
   viewBox="0 0 1536 1024"
   id="svg3021">
  <metadata
     id="metadata3055">
    <rdf:RDF>
      <cc:Work
         rdf:about="">
        <dc:format>image/svg+xml</dc:format>
        <dc:type
           rdf:resource="http://purl.org/dc/dcmitype/StillImage" />
        <dc:title></dc:title>
      </cc:Work>
    </rdf:RDF>
  </metadata>
  <defs
     id="defs3053" />
  <g
     id="layer6"
     style="display:inline">
    <path
       d="M 1400,552 C 1234.8745,550.31604 1075.1791,529.75621 920.30947,492.42077 782.25669,459.13946 620.92913,317.64469 490.11782,259.19066 366.0711,203.75943 293.14565,156.16258 153.91277,157.10071"
       id="path3027"
       style="color:#000000;fill:none;stroke:#0000ff;stroke-width:7.94273567;stroke-miterlimit:4;stroke-dasharray:23.82820643, 23.82820643;stroke-dashoffset:0" />
    <path
       d="m 1400,504 v 96"
       id="path3035"
       style="color:#000000;fill:none;stroke:#ff0000;stroke-width:8" />
    <path
       d="m 1448,552 h -96"
       id="path3037"
       style="color:#000000;fill:none;stroke:#ff0000;stroke-width:8" />
    <path
       d="m 1051.88,259.2 h -13.184 v -84.01 c -3.174,3.03 -7.349,6.05 -12.524,9.08 -5.127,3.03 -9.741,5.298 -13.843,6.812 v -12.744 c 7.373,-3.467 13.818,-7.666 19.336,-12.598 5.518,-4.932 9.424,-9.717 11.719,-14.355 h 8.496 v 107.81"
       id="path3045" />
    <path
       d="m 1134.65,196.43 v -15.01 h 15.01 v 15.01 h -15.01 m 0,62.769 v -15.01 h 15.01 v 15.01 h -15.01"
       id="path3047" />
    <path
       d="m 1217.34,259.2 v -67.53 h -11.646 v -10.254 h 11.646 v -8.276 c 0,-5.225 0.464,-9.106 1.392,-11.646 1.27,-3.418 3.491,-6.177 6.665,-8.276 3.223,-2.148 7.715,-3.223 13.477,-3.223 3.711,0 7.813,0.44 12.305,1.318 l -1.978,11.499 c -2.734,-0.488 -5.322,-0.732 -7.764,-0.732 -4,0 -6.836,0.855 -8.496,2.563 -1.66,1.709 -2.49,4.907 -2.49,9.595 v 7.178 h 15.16 v 10.254 h -15.16 v 67.53 h -13.11"
       id="path3049" />
    <path
       d="m 1397.8279,550.82527 c -30.4733,29.19607 -67.9523,63.66022 -101.4947,86.44644 -126.2296,85.75093 -295.923,80.72412 -454.74318,96.54217 -98.42838,9.80318 -192.68055,27.61257 -280.91899,64.13452 -49.46029,20.47164 -95.2797,47.70063 -142.85049,74.0516"
       id="path3311"
       style="fill:none;stroke:#0000ff;stroke-width:8.05066681;stroke-miterlimit:4;stroke-dasharray:32.20266695, 32.20266695;stroke-dashoffset:0" />
    <path
       d="m 1398.5946,552.67254 c -29.4841,21.50229 -65.555,47.24376 -97.7349,65.04233 -62.7439,34.70338 -135.7361,55.32647 -209.2214,65.66626 -79.5967,11.19969 -159.772,10.33453 -239.94721,9.46935"
       id="path3313"
       style="fill:none;stroke:#0000ff;stroke-width:8.20060349;stroke-miterlimit:4;stroke-dasharray:32.80241572, 32.80241572;stroke-dashoffset:0" />
    <path
       d="M 151.31506,869.61916 C 239.7055,830.07084 328.09593,790.5225 419.48598,764.72338 495.36859,743.30188 573.31923,731.35934 651.26984,719.41675"
       id="path3315"
       style="fill:none;stroke:#0000ff;stroke-width:8.31879711;stroke-miterlimit:4;stroke-dasharray:33.2751843, 33.2751843;stroke-dashoffset:0" />
    <path
       d="M 152,152 V 872 H 422 z"
       id="path3041"
       style="color:#000000;fill:#e6e6e6;fill-opacity:0.47099998;stroke:#000000;stroke-width:8;stroke-linecap:square" />
  </g>
  <g
     id="layer11"
     style="display:inline">
    <path
       d="m 655.74562,730.1518 c -24.63654,-4.13827 -48.76275,-24.43128 -63.06803,-53.04774 -9.16622,-18.33618 -14.41974,-36.40613 -17.12199,-58.89259 -1.00284,-8.34501 -1.1526,-28.94837 -0.27075,-37.24831 3.42015,-32.19087 13.90708,-60.58621 30.11556,-81.54359 4.23685,-5.4782 13.31277,-14.5659 18.157,-18.18058 11.11822,-8.29619 23.28419,-13.48066 35.29328,-15.04008 2.80712,-0.3645 28.95904,-0.49066 81.72956,-0.39426 l 77.60155,0.14178 -25.99496,65.79952 -25.99496,65.79954 25.64459,66.31959 c 14.10453,36.47578 25.75257,66.49474 25.88458,66.70881 0.13198,0.21407 -35.309,0.36616 -78.75774,0.33798 -65.42134,-0.0424 -79.72295,-0.17305 -83.21769,-0.76007 l 0,0 z"
       id="path3908"
       style="color:#000000;fill:#ececec;fill-opacity:1;fill-rule:nonzero;stroke:#000000;stroke-width:3;stroke-linecap:round;stroke-linejoin:round;stroke-miterlimit:4;stroke-opacity:1;stroke-dasharray:none;stroke-dashoffset:0;marker:none;visibility:visible;display:inline;overflow:visible;enable-background:accumulate" />
  </g>
  <g
     id="layer4"
     style="display:none">
    <g
       id="g3898">
      <g
         id="g7040">
        <path
           d="m 739.64781,469.60237 87.86374,0"
           id="path6662"
           style="fill:none;stroke:#000000;stroke-width:1;stroke-miterlimit:4;stroke-dasharray:none;display:inline" />
        <path
           d="m 675.67937,734.92235 65.92024,0"
           id="path6664"
           style="fill:none;stroke:#000000;stroke-width:1;stroke-miterlimit:4;stroke-dasharray:none;display:inline" />
        <g
           id="g3894">
          <path
             d="m 675.67937,469.60237 a 92.958477,132.65999 0 1 0 0,265.31998"
             id="path3237"
             style="fill:none;stroke:#000000;stroke-width:1;stroke-miterlimit:4;stroke-dasharray:none;display:inline" />
          <path
             d="m 675.67937,469.60237 63.86303,0"
             id="path6660"
             style="fill:none;stroke:#000000;stroke-width:1;stroke-miterlimit:4;stroke-dasharray:none;display:inline" />
        </g>
        <path
           d="m 740.33355,734.92235 87.178,0"
           id="path6666"
           style="fill:none;stroke:#000000;stroke-width:1;stroke-miterlimit:4;stroke-dasharray:none;display:inline" />
        <path
           d="m 827.46352,469.60237 -52.19874,131.81478 51.74484,133.5052"
           id="path7038"
           style="fill:none;stroke:#000000;stroke-width:1px;stroke-linecap:butt;stroke-linejoin:miter;stroke-opacity:1" />
      </g>
    </g>
  </g>
  <g
     id="layer10"
     style="display:inline">
    <path
       d="m 847.56768,475.98797 c -10.88445,-6.53664 -22.6483,-10.07581 -34.45506,-10.36636 -11.80675,-0.29055 -23.64813,2.66772 -34.68184,8.66383 -11.03371,5.99611 -21.25201,15.02583 -29.92826,26.4468 -17.3525,22.84194 -28.22323,55.42531 -29.7116,89.04651 -1.48837,33.6212 6.42048,67.9138 21.60933,93.72076 7.59442,12.90347 16.92754,23.71521 27.33646,31.66658 10.40892,7.95136 21.88643,13.03676 33.61761,14.89385 11.73117,1.85709 23.70786,0.48451 35.0795,-4.02116 11.37164,-4.50568 22.13031,-12.14135 31.51141,-22.36471 18.76222,-20.44673 31.71441,-51.46285 35.39134,-84.75544 3.67693,-33.2926 -4.59057,-73.66636 -20.9495,-105.61071 -7.75503,-15.1434 -23.93493,-30.78332 -34.81939,-37.31995 z"
       id="path3243"
       style="fill:#b3b3b3;fill-opacity:1;stroke:#000000;stroke-width:3;stroke-miterlimit:4;stroke-dasharray:none;display:inline" />
    <path
       d="m 845.06449,488.02325 c -9.54077,-5.88737 -19.85238,-9.075 -30.20161,-9.33669 -10.34919,-0.2617 -20.72877,2.40274 -30.40037,7.80327 -9.6716,5.40054 -18.62846,13.53336 -26.23363,23.8199 -15.21034,20.57312 -24.73909,49.92007 -26.04372,80.20176 -1.30464,30.2817 5.62787,61.1681 18.94167,84.41172 6.65688,11.6218 14.83783,21.35964 23.96179,28.52122 9.12394,7.16158 19.18456,11.74186 29.46753,13.41449 10.28296,1.67263 20.78112,0.43639 30.74895,-3.62175 9.96782,-4.05814 19.39834,-10.93538 27.62134,-20.14329 16.44603,-18.4158 27.79928,-46.35117 31.02229,-76.3369 3.22302,-29.98573 -4.02387,-66.34927 -18.36329,-95.12067 -6.79768,-13.63924 -20.98018,-27.72569 -30.52095,-33.61306 z"
       id="path4325"
       style="fill:#b3b3b3;fill-opacity:1;stroke:#000000;stroke-width:2.66558909;stroke-miterlimit:4;stroke-dasharray:none;display:inline" />
  </g>
  <g
     id="layer7"
     style="display:inline">
    <path
       d="m 812.71875,582.375 c -3.84075,0.28741 -7.4994,3.63081 -9.28925,8.48882 -1.78985,4.85801 -1.646,11.0545 0.36515,15.7329 2.01116,4.6784 5.81673,7.6691 9.66236,7.5933 3.84564,-0.0758 7.59192,-3.21536 9.51174,-7.97127 l 0,-0.0312 c -16.41623,-8.65057 -16.40097,-8.64794 -0.0312,-15.9062 -2.04612,-5.03018 -6.14848,-8.20417 -10.21875,-7.90625 z"
       id="path3235"
       style="fill:#333333;stroke:#000000;stroke-width:3;stroke-miterlimit:4;stroke-opacity:1;stroke-dasharray:none;display:inline" />
  </g>
  <g
     id="layer1"
     style="display:inline">
    <path
       d="m 843.6513,397.24703 c -18.5119,-2.27472 -32.27568,-14.11432 -30.09867,-25.89086 0.80689,-4.36484 2.44306,-6.86964 9.36053,-14.32993 7.53344,-8.12459 11.6052,-12.93326 15.35306,-18.13168 9.94063,-13.78799 18.03666,-31.70015 24.71278,-54.67611 2.37164,-8.16206 7.22237,-27.28777 7.90379,-31.16349 1.87328,-10.6547 11.41633,-18.3611 26.79113,-21.63493 5.6855,-1.21064 18.02077,-1.09232 23.30814,0.22358 11.92972,2.96902 20.28447,8.45025 23.81669,15.62521 1.13425,2.30398 1.42826,3.49642 1.57448,6.38566 0.30952,6.11634 0.23437,6.24867 -13.68506,24.09918 -26.23414,33.64311 -37.163,54.49432 -41.52259,79.22106 -0.25348,1.43769 -0.93703,6.78021 -1.51899,11.87225 -0.83918,7.34266 -1.27629,9.73144 -2.11257,11.54516 -3.05603,6.62788 -10.82304,12.30744 -20.79241,15.20429 -6.50148,1.88916 -15.76172,2.55113 -23.09031,1.65061 l 0,0 z"
       id="path3880"
       style="color:#000000;fill:#803300;fill-opacity:1;stroke:#000000;stroke-width:3;stroke-linecap:round;stroke-linejoin:round;stroke-miterlimit:4;stroke-opacity:1;stroke-dasharray:none;stroke-dashoffset:0;marker:none;visibility:visible;display:inline;overflow:visible;enable-background:accumulate" />
    <path
       d="m 888.60469,376.60779 c 0.17792,-4.79567 -1.75641,-9.62679 -5.57864,-13.72044 -4.79393,-5.13435 -12.51489,-9.06324 -21.29129,-10.83527 -8.7764,-1.77205 -18.53033,-1.3715 -26.89823,1.10534 -7.52769,2.95898 -14.75038,6.28161 -19.04872,12.49668"
       id="path3293"
       style="fill:none;stroke:#000000;stroke-width:3;stroke-miterlimit:4;stroke-dasharray:none;display:inline" />
  </g>
  <g
     id="layer3"
     style="display:none">
    <path
       d="M 951.3288,269.75169 A 38.888676,24.973915 0 1 0 877.8338,258.3588"
       id="path3295"
       style="fill:none;stroke:#000000;stroke-width:1.39549387" />
    <path
       d="m 898.10408,377.10218 c 0.71408,-7.34917 1.45486,-14.04773 2.96251,-21.1949 6.60693,-31.32091 28.45389,-58.76251 50.30083,-86.20412"
       id="path3297"
       style="fill:none;stroke:#000000;stroke-width:1.39549387" />
    <path
       d="m 877.8338,258.3588 c -7.70741,31.33786 -15.41481,62.6757 -35.53689,88.29078 -4.97844,6.33749 -10.71683,12.32469 -16.45524,18.31186"
       id="path3299"
       style="fill:none;stroke:#000000;stroke-width:1.39549387" />
  </g>
  <g
     id="layer8"
     style="display:inline">
    <path
       d="m 803.24906,603.76593 c -0.84298,-2.86014 -0.86516,-8.15867 -0.0457,-10.90247 l 0.58996,-1.97525 16.00519,-0.23937 c 8.80285,-0.13166 16.70334,-0.40201 17.55665,-0.60078 3.6191,-0.84304 7.65528,-3.55962 9.38515,-6.31674 1.86879,-2.97855 48.64856,-101.16433 49.01669,-102.88084 0.76555,-3.56966 -0.75201,-8.22536 -3.57371,-10.96373 -0.77119,-0.74841 -12.73794,-8.96658 -26.59278,-18.2626 -13.85484,-9.29602 -26.40174,-17.81688 -27.88198,-18.93525 -5.76953,-4.35907 -9.68295,-10.38789 -10.93977,-16.85327 -0.6202,-3.19044 -0.26469,-9.19427 0.71603,-12.09253 0.98751,-2.91832 14.33557,-30.89034 15.49701,-32.47532 0.51812,-0.70707 1.74252,-1.59911 3.03261,-2.20943 1.79291,-0.8482 2.62216,-1.02364 4.83952,-1.02387 3.71007,-3.9e-4 6.00758,0.75401 7.94245,2.60794 2.55988,2.4528 2.69267,2.00679 -5.9758,20.07075 -4.15529,8.65908 -7.75425,16.3473 -7.99769,17.08492 -0.62625,1.89755 -0.30292,6.32517 0.61205,8.38148 0.40456,0.90921 1.41024,2.38504 2.23485,3.27963 0.94193,1.02188 7.88666,5.91627 18.68144,13.166 36.979,24.83495 36.46256,24.47525 39.48209,27.49935 6.01001,6.01914 8.88037,13.71901 7.92453,21.25793 -0.47842,3.77339 -1.02243,5.38877 -3.8188,11.33964 -7.36078,15.66423 -46.22442,96.39599 -47.18945,98.02705 -1.62525,2.74691 -6.33826,7.37813 -9.50745,9.34243 -3.02702,1.87619 -7.53902,3.81915 -10.73372,4.62215 -4.12484,1.0368 -8.29055,1.26188 -23.35427,1.26188 l -15.25387,0 -0.65127,-2.2097 0,0 z"
       id="path6870"
       style="color:#000000;fill:#999999;fill-opacity:1;fill-rule:nonzero;stroke:#000000;stroke-width:3;stroke-linecap:round;stroke-linejoin:round;stroke-miterlimit:4;stroke-opacity:1;stroke-dasharray:none;stroke-dashoffset:0;marker:none;visibility:visible;display:inline;overflow:visible;enable-background:accumulate" />
  </g>
  <g
     id="layer2"
     style="display:none">
    <path
       d="m 811.73703,594.32318 c -1.26464,3.02746 -1.76969,6.3725 -1.50517,9.63974 0.18698,2.1613 0.6899,4.31554 1.53527,6.31994 m -0.047,-15.91898 c 11.95283,0 17.36106,-0.0611 29.31389,-0.0611 m -29.26684,15.98007 c 11.86791,0 17.39893,-0.0609 29.26684,-0.0609 m 0,10e-6 c 12.65346,0.0742 25.89428,-6.36845 31.53088,-18.10094 m -31.53088,2.18175 c 5.75158,0.0337 11.77013,-2.89475 14.33222,-8.22771 m 0,0 c 15.72255,-32.79119 31.4451,-65.58239 47.16765,-98.37358 m 6.70733,-27.99975 c -16.90575,-11.35733 -33.81151,-22.71467 -50.71726,-34.072 m 9.89668,-46.062 c 1.37369,-2.66313 -0.78006,-5.59182 -3.2217,-6.65039 -4.47483,-2.11536 -10.49757,-1.86617 -14.19495,1.66647 -0.37594,0.40245 -0.70172,0.85687 -0.9403,1.35401 m 3.69149,34.21659 c -2.54753,4.96434 -0.69681,11.33662 3.6546,14.65063 l 1.11418,0.82469 m -21.96744,-21.52128 c -3.49036,7.07 -3.37481,15.7446 0.27688,22.72927 2.32789,4.59015 5.95332,8.46034 10.21443,11.31644 m 6.69731,-27.97874 c 4.89183,-10.20256 9.78366,-20.40512 14.67549,-30.60768 m -31.86411,24.54071 c 4.50237,-9.39022 9.00473,-18.78043 13.5071,-28.17065 m -3.01579,62.21636 c 16.90576,11.35733 33.81152,22.71466 50.71728,34.07199 m 4.76878,15.47533 c 2.54753,-4.96434 0.69682,-11.33662 -3.65459,-14.65063 l -1.11419,-0.8247 m 21.96745,21.52129 c 3.49035,-7.07 3.3748,-15.7446 -0.27689,-22.72927 -2.3279,-4.59015 -5.95334,-8.46035 -10.21445,-11.31644 M 872.5649,592.12102 c 15.72255,-32.79119 31.44511,-65.58239 47.16766,-98.37358"
       id="path5059"
       style="fill:none;stroke:#000000;stroke-width:0.2;stroke-linecap:round;stroke-linejoin:round;stroke-miterlimit:4;stroke-opacity:1;stroke-dasharray:none" />
  </g>
  <g
     id="layer12"
     style="display:inline">
    <path
       d="m 771.58157,729.36855 c -16.64221,-1.99613 -32.39475,-10.08357 -45.8571,-23.54329 l -3.80144,-3.8007 -46.4327,0 -46.43269,0 -1.60146,-1.85616 c -11.36027,-13.16699 -21.19395,-32.26317 -26.96118,-52.35635 -2.42153,-8.43668 -4.72287,-19.6306 -5.37254,-26.1325 l -0.23846,-2.38649 37.52548,0 c 20.63902,0 37.52549,0.12902 37.52549,0.2867 0,0.9631 1.53528,10.85378 2.26047,14.56255 1.13624,5.81096 3.45417,14.93894 4.79763,18.89304 0.59049,1.73795 1.07362,3.28917 1.07362,3.44714 0,0.15798 -6.66267,0.28723 -14.80595,0.28723 -12.84148,0 -14.86536,0.0716 -15.2537,0.53951 -0.36951,0.44524 -0.21436,1.17117 0.88786,4.15425 0.73459,1.98811 2.04734,5.24551 2.91723,7.23867 l 1.58163,3.62392 24.01482,0 c 21.9559,0 24.03395,-0.0498 24.23789,-0.58128 0.23992,-0.62521 0.0556,-1.15981 -2.72538,-7.904 -6.53197,-15.84085 -10.74534,-34.98988 -11.99564,-54.51813 -0.17057,-2.66413 -0.41332,-5.01084 -0.53945,-5.21491 -0.15819,-0.25596 -14.6047,-0.37103 -46.57968,-0.37103 l -46.35037,0 0.22317,-8.57367 c 0.25349,-9.73859 0.60815,-14.09164 1.86512,-22.89259 2.67029,-18.69651 7.66421,-35.12666 15.28548,-50.28969 l 3.06703,-6.10207 37.39161,-0.09 37.39161,-0.09 -2.25272,4.50942 c -4.27945,8.56641 -7.55174,16.82888 -10.18368,25.71357 -0.74737,2.52293 -1.35886,4.63099 -1.35886,4.68458 0,0.0536 -6.92422,0.0974 -15.38715,0.0974 l -15.38715,0 -0.33641,0.79549 c -0.46701,1.10434 -1.28183,4.4579 -2.31138,9.51303 -0.65626,3.22226 -0.77482,4.40929 -0.47632,4.76896 0.32709,0.39412 4.61481,0.47887 24.22774,0.47887 l 23.83031,0 0.30471,-0.80145 c 0.16759,-0.44079 0.57135,-2.1511 0.89724,-3.8007 1.71412,-8.67637 4.95174,-19.60599 8.4291,-28.4551 2.32408,-5.91427 8.04796,-17.33768 11.07208,-22.09708 1.29734,-2.04177 2.81993,-4.43941 3.38354,-5.32809 1.95053,-3.07552 6.418,-2.78953 -45.15544,-2.89071 l -45.72537,-0.0897 2.52803,-3.18198 c 3.48022,-4.38047 11.40279,-12.41756 15.49804,-15.72204 11.96139,-9.65171 26.4758,-15.83917 39.3814,-16.78818 l 2.82843,-0.20798 -4.24264,1.54182 c -5.67302,2.06164 -9.43202,3.85579 -14.42344,6.88424 -6.77317,4.10949 -13.51576,9.60257 -19.28273,15.70933 -3.42535,3.62717 -8.13682,3.26675 44.04308,3.36923 l 45.68258,0.0897 -2.48216,3.09227 c -14.2289,17.72634 -24.74422,42.381 -29.29078,68.67642 -0.58838,3.40295 -1.17559,7.2611 -1.30489,8.57367 l -0.23511,2.38648 -37.61135,0 -37.61135,0 0.16638,-0.79549 c 0.0915,-0.43753 0.3453,-2.22739 0.56398,-3.97748 0.97938,-7.83809 3.82296,-20.44857 6.39701,-28.36896 l 1.40633,-4.32732 15.44862,-0.0921 15.44861,-0.0921 0.82888,-2.12132 c 0.45588,-1.16672 1.77411,-4.40614 2.9294,-7.19871 1.64129,-3.96734 2.01142,-5.18475 1.69297,-5.56846 -0.57257,-0.68989 -47.76977,-0.73789 -48.31208,-0.0491 -0.44165,0.56093 -3.92067,9.0364 -5.3334,12.99309 -5.6179,15.73422 -9.55474,36.12166 -9.72871,50.38136 l -0.0561,4.59619 46.17069,0.0897 46.17068,0.0897 0.22606,8.39558 c 0.74493,27.66507 6.40548,52.23825 17.02868,73.92365 1.4614,2.98319 2.65709,5.489 2.65709,5.56846 0,0.0795 -16.74679,0.14448 -37.21509,0.14448 l -37.21509,0 -2.18267,-4.15425 c -2.74303,-5.22076 -5.68493,-11.95535 -7.91527,-18.11961 -1.67871,-4.63963 -3.86023,-11.6264 -3.86023,-12.36317 0,-0.24491 4.9404,-0.36475 15.03712,-0.36475 12.92324,0 15.06523,-0.0733 15.23712,-0.52121 0.11,-0.28667 -0.28417,-2.55383 -0.87595,-5.03814 -0.59178,-2.48431 -1.26644,-5.55107 -1.49924,-6.81502 -0.2328,-1.26395 -0.57904,-2.49697 -0.76942,-2.74004 -0.27082,-0.34576 -5.53299,-0.44194 -24.17881,-0.44194 -21.72443,0 -23.85226,0.0511 -24.05429,0.57755 -0.47752,1.24441 2.41298,13.82681 5.16803,22.49654 4.31686,13.58444 9.55176,24.80482 16.74039,35.88094 l 2.81092,4.33103 46.54049,0.008 46.5405,0.008 1.04647,1.478 c 2.49367,3.52194 7.00162,8.80745 10.61358,12.44428 9.32436,9.38856 20.59338,16.7207 31.82701,20.7081 3.77664,1.34053 3.85527,1.60381 0.35356,1.1838 l 0,3e-5 z"
       id="path4269"
       style="color:#000000;fill:#0000ff;fill-opacity:1;stroke:#000000;stroke-width:2.5;stroke-linecap:round;stroke-linejoin:round;stroke-miterlimit:4;stroke-opacity:1;stroke-dasharray:none;stroke-dashoffset:0;marker:none;visibility:visible;display:inline;overflow:visible;enable-background:accumulate" />
    <path
       d="m 672.96147,483.29599 c 0.82994,-1.34286 10.36315,-7.24617 15.63603,-9.68239 2.9903,-1.3816 8.49762,-3.31332 12.23849,-4.29271 6.17336,-1.61623 8.4017,-1.80594 24.1257,-2.05395 15.4858,-0.24426 17.06149,-0.16674 14.84924,0.7305 -1.86287,0.75553 -6.34323,1.01704 -18.11812,1.05754 -14.33527,0.0493 -15.93158,0.17957 -19.09188,1.55813 -6.00529,2.61958 -10.87326,5.81891 -10.87326,7.14615 0,1.16972 1.54344,1.24901 24.31536,1.24901 l 24.31536,0 5.91345,-3.13518 c 6.88276,-3.64909 11.88008,-5.58456 18.28783,-7.08289 6.9465,-1.62431 7.26142,-1.31585 1.30964,1.28278 -6.52256,2.84785 -11.50031,5.83744 -17.38114,10.43892 l -4.40425,3.44611 -35.7658,0 c -22.04008,0 -35.60878,-0.25406 -35.35665,-0.66202 z"
       id="path4319"
       style="color:#000000;fill:#0000ff;fill-opacity:1;fill-rule:nonzero;stroke:#000000;stroke-width:2.5;stroke-linecap:round;stroke-linejoin:round;stroke-miterlimit:4;stroke-opacity:1;stroke-dasharray:none;stroke-dashoffset:0;marker:none;visibility:visible;display:inline;overflow:visible;enable-background:accumulate" />
    <path
       d="m 705.8698,728.35008 c -4.58504,-0.79185 -4.57047,-0.79464 6.00207,-1.14733 9.18401,-0.30638 10.62855,-0.51179 10.82528,-1.53937 0.15884,-0.82965 -0.77754,-1.63018 -3.11764,-2.66532 -1.83958,-0.81372 -4.89286,-2.43211 -6.78508,-3.59641 l -3.44041,-2.1169 -24.19275,0.18603 c -23.63178,0.18171 -24.19275,0.21871 -24.19275,1.59546 0,1.08696 1.84199,2.34078 8.05078,5.48008 4.42793,2.23885 7.66293,4.07064 7.18888,4.07064 -5.76576,0 -24.05628,-7.70666 -31.84751,-13.41886 l -3.87992,-2.8446 36.05328,10e-4 36.05329,10e-4 5.65685,4.25081 c 5.50404,4.13598 15.38684,9.69739 20.70475,11.65133 2.35579,0.86558 1.00899,0.96205 -12.92657,0.92597 -8.556,-0.0222 -17.62464,-0.39748 -20.15255,-0.83406 z"
       id="path4321"
       style="color:#000000;fill:#0000ff;fill-opacity:1;fill-rule:nonzero;stroke:#000000;stroke-width:2.5;stroke-linecap:round;stroke-linejoin:round;stroke-miterlimit:4;stroke-opacity:1;stroke-dasharray:none;stroke-dashoffset:0;marker:none;visibility:visible;display:inline;overflow:visible;enable-background:accumulate" />
  </g>
  <g
     id="layer9"
     style="display:none">
    <g
       id="g4307">
      <path
         d="m 693.36969,734.92235 15.49308,0"
         id="path3263"
         style="fill:none;stroke:#000000;stroke-width:2.5;stroke-linecap:round;stroke-linejoin:round;stroke-miterlimit:4;stroke-dasharray:none" />
      <path
         d="m 724.35584,734.92235 46.47924,0"
         id="path3267"
         style="fill:none;stroke:#000000;stroke-width:2.5;stroke-linecap:round;stroke-linejoin:round;stroke-miterlimit:4;stroke-dasharray:none" />
      <path
         d="m 644.40078,715.02336 a 92.958477,132.65999 0 0 0 48.96891,19.89899"
         id="path3377"
         style="fill:none;stroke:#000000;stroke-width:2.5;stroke-linecap:round;stroke-linejoin:round;stroke-miterlimit:4;stroke-dasharray:none" />
      <path
         d="m 721.86617,715.02336 a 92.958477,132.65999 0 0 0 48.96891,19.89899"
         id="path3381"
         style="fill:none;stroke:#000000;stroke-width:2.5;stroke-linecap:round;stroke-linejoin:round;stroke-miterlimit:4;stroke-dasharray:none" />
      <path
         d="m 670.32141,722.98296 a 92.958477,132.65999 0 0 0 38.54136,11.93939"
         id="path3389"
         style="fill:none;stroke:#000000;stroke-width:2.5;stroke-linecap:round;stroke-linejoin:round;stroke-miterlimit:4;stroke-dasharray:none" />
      <path
         d="m 698.32747,729.61595 a 92.958477,132.65999 0 0 0 26.02837,5.3064"
         id="path3391"
         style="fill:none;stroke:#000000;stroke-width:2.5;stroke-linecap:round;stroke-linejoin:round;stroke-miterlimit:4;stroke-dasharray:none" />
      <path
         d="m 716.80065,722.98296 a 92.958477,132.65999 0 0 0 12.51297,6.63299"
         id="path3393"
         style="fill:none;stroke:#000000;stroke-width:2.5;stroke-linecap:round;stroke-linejoin:round;stroke-miterlimit:4;stroke-dasharray:none" />
      <path
         d="m 644.40078,715.02336 77.46539,0"
         id="path3417"
         style="fill:none;stroke:#000000;stroke-width:2.5;stroke-linecap:round;stroke-linejoin:round;stroke-miterlimit:4;stroke-dasharray:none" />
      <path
         d="m 670.32141,722.98296 46.47924,0"
         id="path3423"
         style="fill:none;stroke:#000000;stroke-width:2.5;stroke-linecap:round;stroke-linejoin:round;stroke-miterlimit:4;stroke-dasharray:none" />
      <path
         d="m 698.32747,729.61595 30.98615,0"
         id="path3425"
         style="fill:none;stroke:#000000;stroke-width:2.5;stroke-linecap:round;stroke-linejoin:round;stroke-miterlimit:4;stroke-dasharray:none" />
    </g>
    <g
       id="g4294">
      <path
         d="m 786.32816,469.60237 15.49309,0"
         id="path3249"
         style="fill:none;stroke:#000000;stroke-width:2.5;stroke-linecap:round;stroke-linejoin:round;stroke-miterlimit:4;stroke-dasharray:none" />
      <path
         d="m 724.35584,469.60237 a 92.958477,132.65999 0 0 0 -48.96891,19.899"
         id="path3375"
         style="fill:none;stroke:#000000;stroke-width:2.5;stroke-linecap:round;stroke-linejoin:round;stroke-miterlimit:4;stroke-dasharray:none" />
      <path
         d="m 713.82054,474.90878 a 92.958477,132.65999 0 0 0 -12.51297,6.63299"
         id="path3385"
         style="fill:none;stroke:#000000;stroke-width:2.5;stroke-linecap:round;stroke-linejoin:round;stroke-miterlimit:4;stroke-dasharray:none" />
      <path
         d="m 675.38693,489.50137 77.46539,0"
         id="path3415"
         style="fill:none;stroke:#000000;stroke-width:2.5;stroke-linecap:round;stroke-linejoin:round;stroke-miterlimit:4;stroke-dasharray:none" />
      <path
         d="m 701.30757,481.54177 46.47924,0"
         id="path3419"
         style="fill:none;stroke:#000000;stroke-width:2.5;stroke-linecap:round;stroke-linejoin:round;stroke-miterlimit:4;stroke-dasharray:none" />
      <path
         d="m 713.82054,474.90878 30.98617,0"
         id="path3421"
         style="fill:none;stroke:#000000;stroke-width:2.5;stroke-linecap:round;stroke-linejoin:round;stroke-miterlimit:4;stroke-dasharray:none" />
      <path
         d="m 724.35584,469.60237 46.47924,0"
         id="path3255"
         style="fill:none;stroke:#000000;stroke-width:2.5;stroke-linecap:round;stroke-linejoin:round;stroke-miterlimit:4;stroke-dasharray:none" />
      <path
         d="m 801.82125,469.60237 a 92.958477,132.65999 0 0 0 -48.96893,19.899"
         id="path3351"
         style="fill:none;stroke:#000000;stroke-width:2.5;stroke-linecap:round;stroke-linejoin:round;stroke-miterlimit:4;stroke-dasharray:none" />
      <path
         d="m 786.32816,469.60237 a 92.958477,132.65999 0 0 0 -38.54135,11.9394"
         id="path3383"
         style="fill:none;stroke:#000000;stroke-width:2.5;stroke-linecap:round;stroke-linejoin:round;stroke-miterlimit:4;stroke-dasharray:none" />
      <path
         d="m 770.83508,469.60237 a 92.958477,132.65999 0 0 0 -26.02837,5.30641"
         id="path3387"
         style="fill:none;stroke:#000000;stroke-width:2.5;stroke-linecap:round;stroke-linejoin:round;stroke-miterlimit:4;stroke-dasharray:none" />
      <path
         d="m 675.38693,489.50137 77.46539,0 z"
         id="path4010"
         style="fill:none;stroke:#000000;stroke-width:2.5;stroke-linecap:round;stroke-linejoin:round;stroke-miterlimit:4;stroke-opacity:1;stroke-dasharray:none;display:inline" />
    </g>
  </g>
  <g
     id="g3956"
     style="display:none">
    <g
       id="g4223"
       style="fill:none">
      <path
         d="M 693.36969,602.26237 z"
         id="path3958"
         style="fill:none;stroke:#000000;stroke-width:2;stroke-linecap:round;stroke-linejoin:round;stroke-miterlimit:4;stroke-opacity:1;stroke-dasharray:none" />
      <path
         d="M 693.36969,602.26237 z"
         id="path3960"
         style="fill:none;stroke:#000000;stroke-width:2;stroke-linecap:round;stroke-linejoin:round;stroke-miterlimit:4;stroke-opacity:1;stroke-dasharray:none" />
      <path
         d="m 693.36969,469.60237 15.49308,0"
         id="path3964"
         style="fill:none;stroke:#000000;stroke-width:2;stroke-linecap:round;stroke-linejoin:round;stroke-miterlimit:4;stroke-opacity:1;stroke-dasharray:none" />
      <path
         d="m 600.52749,608.89536 92.95846,0"
         id="path3966"
         style="fill:none;stroke:#000000;stroke-width:2;stroke-linecap:round;stroke-linejoin:round;stroke-miterlimit:4;stroke-opacity:1;stroke-dasharray:none" />
      <path
         d="m 631.22712,529.29937 a 92.958477,132.65999 0 0 0 -15.20656,66.33"
         id="path3968"
         style="fill:none;stroke:#000000;stroke-width:2;stroke-linecap:round;stroke-linejoin:round;stroke-miterlimit:4;stroke-opacity:1;stroke-dasharray:none" />
      <path
         d="m 641.34127,542.56536 a 92.958477,132.65999 0 0 0 -8.89217,39.798"
         id="path3970"
         style="fill:none;stroke:#000000;stroke-width:2;stroke-linecap:round;stroke-linejoin:round;stroke-miterlimit:4;stroke-opacity:1;stroke-dasharray:none" />
      <path
         d="m 632.4491,582.36336 77.46539,0"
         id="path3972"
         style="fill:none;stroke:#000000;stroke-width:2;stroke-linecap:round;stroke-linejoin:round;stroke-miterlimit:4;stroke-opacity:1;stroke-dasharray:none" />
      <path
         d="m 652.7701,555.83138 a 92.958477,132.65999 0 0 0 -2.92784,13.26599"
         id="path3974"
         style="fill:none;stroke:#000000;stroke-width:2;stroke-linecap:round;stroke-linejoin:round;stroke-miterlimit:4;stroke-opacity:1;stroke-dasharray:none" />
      <path
         d="m 665.33533,635.42736 a 92.958477,132.65999 0 0 0 2.92783,13.26601"
         id="path3976"
         style="fill:none;stroke:#000000;stroke-width:2;stroke-linecap:round;stroke-linejoin:round;stroke-miterlimit:4;stroke-opacity:1;stroke-dasharray:none" />
      <path
         d="m 621.17858,518.68656 a 92.958477,132.65999 0 0 0 -20.65109,90.2088"
         id="path3978"
         style="fill:none;stroke:#000000;stroke-width:2;stroke-linecap:round;stroke-linejoin:round;stroke-miterlimit:4;stroke-opacity:1;stroke-dasharray:none" />
      <path
         d="m 720.86665,508.07376 a 92.958477,132.65999 0 0 0 -24.54514,61.02361"
         id="path3980"
         style="fill:none;stroke:#000000;stroke-width:2;stroke-linecap:round;stroke-linejoin:round;stroke-miterlimit:4;stroke-opacity:1;stroke-dasharray:none" />
      <path
         d="m 649.84226,569.09737 46.47925,0"
         id="path3982"
         style="fill:none;stroke:#000000;stroke-width:2;stroke-linecap:round;stroke-linejoin:round;stroke-miterlimit:4;stroke-opacity:1;stroke-dasharray:none" />
      <path
         d="m 698.64397,518.68656 a 92.958477,132.65999 0 0 0 -14.88771,37.14482"
         id="path3984"
         style="fill:none;stroke:#000000;stroke-width:2;stroke-linecap:round;stroke-linejoin:round;stroke-miterlimit:4;stroke-opacity:1;stroke-dasharray:none" />
      <path
         d="m 652.7701,555.83138 30.98616,0"
         id="path3986"
         style="fill:none;stroke:#000000;stroke-width:2;stroke-linecap:round;stroke-linejoin:round;stroke-miterlimit:4;stroke-opacity:1;stroke-dasharray:none" />
      <path
         d="m 693.36969,469.60237 a 92.958477,132.65999 0 0 0 -65.46151,38.47139"
         id="path3988"
         style="fill:none;stroke:#000000;stroke-width:2;stroke-linecap:round;stroke-linejoin:round;stroke-miterlimit:4;stroke-opacity:1;stroke-dasharray:none" />
      <path
         d="m 631.22712,529.29937 46.47925,0"
         id="path3990"
         style="fill:none;stroke:#000000;stroke-width:2;stroke-linecap:round;stroke-linejoin:round;stroke-miterlimit:4;stroke-opacity:1;stroke-dasharray:none" />
      <path
         d="m 641.34127,542.56536 30.98615,0"
         id="path3992"
         style="fill:none;stroke:#000000;stroke-width:2;stroke-linecap:round;stroke-linejoin:round;stroke-miterlimit:4;stroke-opacity:1;stroke-dasharray:none" />
      <path
         d="m 677.70637,529.29937 a 92.958477,132.65999 0 0 0 -5.37895,13.26599"
         id="path3994"
         style="fill:none;stroke:#000000;stroke-width:2;stroke-linecap:round;stroke-linejoin:round;stroke-miterlimit:4;stroke-opacity:1;stroke-dasharray:none" />
      <path
         d="m 708.86277,469.60237 a 92.958477,132.65999 0 0 0 -56.99349,27.8586"
         id="path3996"
         style="fill:none;stroke:#000000;stroke-width:2;stroke-linecap:round;stroke-linejoin:round;stroke-miterlimit:4;stroke-opacity:1;stroke-dasharray:none" />
      <path
         d="m 616.02056,595.62937 92.95848,0 -92.95848,0 z"
         id="path3998"
         style="fill:none;stroke:#000000;stroke-width:2;stroke-linecap:round;stroke-linejoin:round;stroke-miterlimit:4;stroke-opacity:1;stroke-dasharray:none" />
      <path
         d="m 637.27702,648.69337 30.98614,0"
         id="path4000"
         style="fill:none;stroke:#000000;stroke-width:2;stroke-linecap:round;stroke-linejoin:round;stroke-miterlimit:4;stroke-opacity:1;stroke-dasharray:none" />
      <path
         d="m 618.85611,635.42736 46.47922,0"
         id="path4002"
         style="fill:none;stroke:#000000;stroke-width:2;stroke-linecap:round;stroke-linejoin:round;stroke-miterlimit:4;stroke-opacity:1;stroke-dasharray:none" />
      <path
         d="m 601.46294,622.16137 77.4654,0"
         id="path4004"
         style="fill:none;stroke:#000000;stroke-width:2;stroke-linecap:round;stroke-linejoin:round;stroke-miterlimit:4;stroke-opacity:1;stroke-dasharray:none" />
      <path
         d="m 621.17858,518.68656 77.46539,0"
         id="path4006"
         style="fill:none;stroke:#000000;stroke-width:2;stroke-linecap:round;stroke-linejoin:round;stroke-miterlimit:4;stroke-opacity:1;stroke-dasharray:none" />
      <path
         d="m 627.90818,508.07376 92.95847,0"
         id="path4008"
         style="fill:none;stroke:#000000;stroke-width:2;stroke-linecap:round;stroke-linejoin:round;stroke-miterlimit:4;stroke-opacity:1;stroke-dasharray:none" />
      <path
         d="m 651.86928,497.46097 92.95849,0"
         id="path4012"
         style="fill:none;stroke:#000000;stroke-width:2;stroke-linecap:round;stroke-linejoin:round;stroke-miterlimit:4;stroke-opacity:1;stroke-dasharray:none" />
      <path
         d="m 662.21329,675.22536 46.47924,0"
         id="path4014"
         style="fill:none;stroke:#000000;stroke-width:2;stroke-linecap:round;stroke-linejoin:round;stroke-miterlimit:4;stroke-opacity:1;stroke-dasharray:none" />
      <path
         d="m 693.48595,608.89536 a 92.958477,132.65999 0 0 0 15.20658,66.33"
         id="path4016"
         style="fill:none;stroke:#000000;stroke-width:2;stroke-linecap:round;stroke-linejoin:round;stroke-miterlimit:4;stroke-opacity:1;stroke-dasharray:none" />
      <path
         d="m 656.83435,661.95936 a 92.958477,132.65999 0 0 0 5.37894,13.266"
         id="path4018"
         style="fill:none;stroke:#000000;stroke-width:2;stroke-linecap:round;stroke-linejoin:round;stroke-miterlimit:4;stroke-opacity:1;stroke-dasharray:none" />
      <path
         d="m 678.92834,622.16137 a 92.958477,132.65999 0 0 0 8.89218,39.79799"
         id="path4020"
         style="fill:none;stroke:#000000;stroke-width:2;stroke-linecap:round;stroke-linejoin:round;stroke-miterlimit:4;stroke-opacity:1;stroke-dasharray:none" />
      <path
         d="m 652.16475,685.83816 77.46539,0"
         id="path4022"
         style="fill:none;stroke:#000000;stroke-width:2;stroke-linecap:round;stroke-linejoin:round;stroke-miterlimit:4;stroke-opacity:1;stroke-dasharray:none" />
      <path
         d="m 637.27702,648.69337 a 92.958477,132.65999 0 0 0 14.88773,37.14479"
         id="path4024"
         style="fill:none;stroke:#000000;stroke-width:2;stroke-linecap:round;stroke-linejoin:round;stroke-miterlimit:4;stroke-opacity:1;stroke-dasharray:none" />
      <path
         d="m 729.33469,707.06376 a 92.958477,132.65999 0 0 0 56.99347,27.85859"
         id="path4026"
         style="fill:none;stroke:#000000;stroke-width:2;stroke-linecap:round;stroke-linejoin:round;stroke-miterlimit:4;stroke-opacity:1;stroke-dasharray:none" />
      <path
         d="m 708.97904,595.62937 a 92.958477,132.65999 0 0 0 20.6511,90.20879"
         id="path4028"
         style="fill:none;stroke:#000000;stroke-width:2;stroke-linecap:round;stroke-linejoin:round;stroke-miterlimit:4;stroke-opacity:1;stroke-dasharray:none" />
      <path
         d="m 744.82777,497.46097 a 92.958477,132.65999 0 0 0 -34.91328,84.90239"
         id="path4030"
         style="fill:none;stroke:#000000;stroke-width:2;stroke-linecap:round;stroke-linejoin:round;stroke-miterlimit:4;stroke-opacity:1;stroke-dasharray:none" />
      <path
         d="m 618.85611,635.42736 a 92.958477,132.65999 0 0 0 24.54513,61.0236"
         id="path4032"
         style="fill:none;stroke:#000000;stroke-width:2;stroke-linecap:round;stroke-linejoin:round;stroke-miterlimit:4;stroke-opacity:1;stroke-dasharray:none" />
      <path
         d="m 601.46294,622.16137 a 92.958477,132.65999 0 0 0 34.91326,84.90239"
         id="path4034"
         style="fill:none;stroke:#000000;stroke-width:2;stroke-linecap:round;stroke-linejoin:round;stroke-miterlimit:4;stroke-opacity:1;stroke-dasharray:none" />
      <path
         d="m 656.83435,661.95936 30.98617,0"
         id="path4036"
         style="fill:none;stroke:#000000;stroke-width:2;stroke-linecap:round;stroke-linejoin:round;stroke-miterlimit:4;stroke-opacity:1;stroke-dasharray:none" />
      <path
         d="m 643.40124,696.45096 92.95849,0"
         id="path4038"
         style="fill:none;stroke:#000000;stroke-width:2;stroke-linecap:round;stroke-linejoin:round;stroke-miterlimit:4;stroke-opacity:1;stroke-dasharray:none" />
      <path
         d="m 636.3762,707.06376 92.95849,0"
         id="path4040"
         style="fill:none;stroke:#000000;stroke-width:2;stroke-linecap:round;stroke-linejoin:round;stroke-miterlimit:4;stroke-opacity:1;stroke-dasharray:none" />
      <path
         d="m 786.32816,734.92235 15.49309,0"
         id="path4042"
         style="fill:none;stroke:#000000;stroke-width:2;stroke-linecap:round;stroke-linejoin:round;stroke-miterlimit:4;stroke-opacity:1;stroke-dasharray:none" />
      <path
         d="m 736.35973,696.45096 a 92.958477,132.65999 0 0 0 65.46152,38.47139"
         id="path4044"
         style="fill:none;stroke:#000000;stroke-width:2;stroke-linecap:round;stroke-linejoin:round;stroke-miterlimit:4;stroke-opacity:1;stroke-dasharray:none" />
    </g>
  </g>
  <g
     id="layer5"
     style="display:none">
    <path
       d="M 693.36969,602.26237 z"
       id="path3207"
       style="fill:#828282" />
    <path
       d="M 693.36969,602.26237 z"
       id="path3209"
       style="fill:#828282" />
    <path
       d="m 677.8766,469.60237 0,0"
       id="path3257"
       style="fill:none;stroke:#000000;stroke-width:1.39549387" />
    <path
       d="m 693.36969,469.60237 15.49308,0"
       id="path3275"
       style="fill:none;stroke:#000000;stroke-width:1.39549387" />
    <path
       d="m 600.52749,608.89536 92.95846,0"
       id="path3319"
       style="fill:none;stroke:#000000;stroke-width:1.39549387" />
    <path
       d="m 631.22712,529.29937 a 92.958477,132.65999 0 0 0 -15.20656,66.33"
       id="path3321"
       style="fill:none;stroke:#000000;stroke-width:1.39549387" />
    <path
       d="m 641.34127,542.56536 a 92.958477,132.65999 0 0 0 -8.89217,39.798"
       id="path3323"
       style="fill:none;stroke:#000000;stroke-width:1.39549387" />
    <path
       d="m 632.4491,582.36336 77.46539,0"
       id="path3325"
       style="fill:none;stroke:#000000;stroke-width:1.39549387" />
    <path
       d="m 652.7701,555.83138 a 92.958477,132.65999 0 0 0 -2.92784,13.26599"
       id="path3327"
       style="fill:none;stroke:#000000;stroke-width:1.39549387" />
    <path
       d="m 665.33533,635.42736 a 92.958477,132.65999 0 0 0 2.92783,13.26601"
       id="path3335"
       style="fill:none;stroke:#000000;stroke-width:1.39549387" />
    <path
       d="m 621.17858,518.68656 a 92.958477,132.65999 0 0 0 -20.65109,90.2088"
       id="path3353"
       style="fill:none;stroke:#000000;stroke-width:1.39549387" />
    <path
       d="m 720.86665,508.07376 a 92.958477,132.65999 0 0 0 -24.54514,61.02361"
       id="path3355"
       style="fill:none;stroke:#000000;stroke-width:1.39549387" />
    <path
       d="m 649.84226,569.09737 46.47925,0"
       id="path3357"
       style="fill:none;stroke:#000000;stroke-width:1.39549387" />
    <path
       d="m 698.64397,518.68656 a 92.958477,132.65999 0 0 0 -14.88771,37.14482"
       id="path3359"
       style="fill:none;stroke:#000000;stroke-width:1.39549387" />
    <path
       d="m 652.7701,555.83138 30.98616,0"
       id="path3361"
       style="fill:none;stroke:#000000;stroke-width:1.39549387" />
    <path
       d="m 693.36969,469.60237 a 92.958477,132.65999 0 0 0 -65.46151,38.47139"
       id="path3365"
       style="fill:none;stroke:#000000;stroke-width:1.39549387" />
    <path
       d="m 631.22712,529.29937 46.47925,0"
       id="path3367"
       style="fill:none;stroke:#000000;stroke-width:1.39549387" />
    <path
       d="m 641.34127,542.56536 30.98615,0"
       id="path3369"
       style="fill:none;stroke:#000000;stroke-width:1.39549387" />
    <path
       d="m 677.70637,529.29937 a 92.958477,132.65999 0 0 0 -5.37895,13.26599"
       id="path3371"
       style="fill:none;stroke:#000000;stroke-width:1.39549387" />
    <path
       d="m 708.86277,469.60237 a 92.958477,132.65999 0 0 0 -56.99349,27.8586"
       id="path3373"
       style="fill:none;stroke:#000000;stroke-width:1.39549387" />
    <path
       d="m 616.02056,595.62937 92.95848,0 -92.95848,0 z"
       id="path3395"
       style="fill:none;stroke:#000000;stroke-width:1.39549387" />
    <path
       d="m 637.27702,648.69337 30.98614,0"
       id="path3399"
       style="fill:none;stroke:#000000;stroke-width:1.39549387" />
    <path
       d="m 618.85611,635.42736 46.47922,0"
       id="path3401"
       style="fill:none;stroke:#000000;stroke-width:1.39549387" />
    <path
       d="m 601.46294,622.16137 77.4654,0"
       id="path3403"
       style="fill:none;stroke:#000000;stroke-width:1.39549387" />
    <path
       d="m 621.17858,518.68656 77.46539,0"
       id="path3407"
       style="fill:none;stroke:#000000;stroke-width:1.39549387" />
    <path
       d="m 627.90818,508.07376 92.95847,0"
       id="path3409"
       style="fill:none;stroke:#000000;stroke-width:1.39549387" />
    <path
       d="m 675.38693,489.50137 77.46539,0 z"
       id="path3205"
       style="fill:#828282" />
    <path
       d="m 651.86928,497.46097 92.95849,0"
       id="path3413"
       style="fill:none;stroke:#000000;stroke-width:1.39549387" />
    <path
       d="m 662.21329,675.22536 46.47924,0"
       id="path3329"
       style="fill:none;stroke:#000000;stroke-width:1.39549387" />
    <path
       d="m 693.48595,608.89536 a 92.958477,132.65999 0 0 0 15.20658,66.33"
       id="path3331"
       style="fill:none;stroke:#000000;stroke-width:1.39549387" />
    <path
       d="m 656.83435,661.95936 a 92.958477,132.65999 0 0 0 5.37894,13.266"
       id="path3333"
       style="fill:none;stroke:#000000;stroke-width:1.39549387" />
    <path
       d="m 678.92834,622.16137 a 92.958477,132.65999 0 0 0 8.89218,39.79799"
       id="path3337"
       style="fill:none;stroke:#000000;stroke-width:1.39549387" />
    <path
       d="m 652.16475,685.83816 77.46539,0"
       id="path3339"
       style="fill:none;stroke:#000000;stroke-width:1.39549387" />
    <path
       d="m 637.27702,648.69337 a 92.958477,132.65999 0 0 0 14.88773,37.14479"
       id="path3341"
       style="fill:none;stroke:#000000;stroke-width:1.39549387" />
    <path
       d="m 729.33469,707.06376 a 92.958477,132.65999 0 0 0 56.99347,27.85859"
       id="path3343"
       style="fill:none;stroke:#000000;stroke-width:1.39549387" />
    <path
       d="m 708.97904,595.62937 a 92.958477,132.65999 0 0 0 20.6511,90.20879"
       id="path3347"
       style="fill:none;stroke:#000000;stroke-width:1.39549387" />
    <path
       d="m 744.82777,497.46097 a 92.958477,132.65999 0 0 0 -34.91328,84.90239"
       id="path3349"
       style="fill:none;stroke:#000000;stroke-width:1.39549387" />
    <path
       d="m 618.85611,635.42736 a 92.958477,132.65999 0 0 0 24.54513,61.0236"
       id="path3363"
       style="fill:none;stroke:#000000;stroke-width:1.39549387" />
    <path
       d="m 601.46294,622.16137 a 92.958477,132.65999 0 0 0 34.91326,84.90239"
       id="path3379"
       style="fill:none;stroke:#000000;stroke-width:1.39549387" />
    <path
       d="m 656.83435,661.95936 30.98617,0"
       id="path3397"
       style="fill:none;stroke:#000000;stroke-width:1.39549387" />
    <path
       d="m 643.40124,696.45096 92.95849,0"
       id="path3405"
       style="fill:none;stroke:#000000;stroke-width:1.39549387" />
    <path
       d="m 636.3762,707.06376 92.95849,0"
       id="path3411"
       style="fill:none;stroke:#000000;stroke-width:1.39549387" />
    <path
       d="m 786.32816,734.92235 15.49309,0"
       id="path3271"
       style="fill:none;stroke:#000000;stroke-width:1.39549387" />
    <path
       d="m 736.35973,696.45096 a 92.958477,132.65999 0 0 0 65.46152,38.47139"
       id="path3345"
       style="fill:none;stroke:#000000;stroke-width:1.39549387" />
  </g>
</svg>
