<svg width="256" xmlns="http://www.w3.org/2000/svg" height="512" viewBox="-2.125 -7.125 72.24889 144.49778" style="fill:none;stroke-linecap:round"><g style="fill:#e6e6e6;stroke:#000;stroke-width:4.233"><path d="m35.857 117.13h-3.715c-3.89 0-7.43-3.54-7.43-7.43v-22.29c0-3.89 3.54-7.43 7.43-7.43h3.715c3.89 0 7.43 3.54 7.43 7.43v22.29c0 3.89-3.54 7.43-7.43 7.43zm-3.715 7.43h3.715c7.78 0 14.86-7.079 14.86-14.86v-22.29c0-7.781-7.079-14.86-14.86-14.86h-3.715c-7.781 0-14.86 7.079-14.86 14.86v22.29c0 7.781 7.079 14.86 14.86 14.86z"/><path d="m35.857 50.26h-3.715c-3.89 0-7.43-3.54-7.43-7.43v-22.29c0-3.89 3.54-7.43 7.43-7.43h3.715c3.89 0 7.43 3.54 7.43 7.43v22.29c0 3.89-3.54 7.43-7.43 7.43zm-3.715 7.43h3.715c7.78 0 14.86-7.079 14.86-14.86v-22.29c0-7.781-7.079-14.86-14.86-14.86h-3.715c-7.781 0-14.86 7.079-14.86 14.86v22.29c0 7.781 7.079 14.86 14.86 14.86z"/><path d="m37.714 42.834c0-1.945-1.77-3.715-3.715-3.715-1.945 0-3.715 1.77-3.715 3.715v44.579c0 1.945 1.77 3.715 3.715 3.715 1.945 0 3.715-1.77 3.715-3.715v-44.579z"/></g></svg>