<svg xmlns="http://www.w3.org/2000/svg" viewBox="0 0 512 512"><defs><linearGradient gradientTransform="matrix(25.83947 0 0 4.60092.124-444.32)" id="7" y1="70.72" y2="62.28" x1="9.732" x2="9.705" gradientUnits="userSpaceOnUse"><stop style="stop-color:#666"/><stop offset="1" style="stop-opacity:0"/></linearGradient><linearGradient gradientTransform="matrix(13.1099 0 0 9.3209-3.173-444.32)" id="6" y1="25.14" y2="19.337" x1="20.771" x2="20.718" gradientUnits="userSpaceOnUse"><stop style="stop-color:#fff;stop-opacity:0"/><stop offset="1" style="stop-color:#f8f8f8"/></linearGradient><linearGradient gradientTransform="matrix(30.2254 0 0 3.93331 6.87-434.69)" id="4" y1="57.23" y2="72.06" x1="9.87" x2="9.913" gradientUnits="userSpaceOnUse"><stop style="stop-opacity:.237"/><stop offset="1" style="stop-opacity:0"/></linearGradient><linearGradient gradientTransform="matrix(25.83947 0 0 4.60092.124-444.32)" id="5" y1="64.65" y2="54.14" x2="0" gradientUnits="userSpaceOnUse"><stop style="stop-color:#f7f6f5"/><stop offset="1" style="stop-color:#f7f6f5;stop-opacity:0"/></linearGradient><linearGradient gradientTransform="matrix(10.34684 0 0 11.78643-.883-422.52)" id="3" y1="3.679" y2="25.25" x1="25.06" x2="24.79" gradientUnits="userSpaceOnUse"><stop style="stop-color:#e0e0e0"/><stop offset=".405" style="stop-color:#fff"/><stop offset=".534" style="stop-color:#cdcdcd"/><stop offset="1" style="stop-color:#494949"/></linearGradient><linearGradient gradientTransform="matrix(25.1076 0 0 4.73504.124-444.32)" id="1" x1="1.846" x2="18.972" gradientUnits="userSpaceOnUse"><stop style="stop-color:#dcdcda"/><stop offset="1" style="stop-color:#bab9b7"/></linearGradient><linearGradient gradientTransform="matrix(16.3045 0 0 7.29159.124-444.32)" id="0" y1="32.539" y2="58.831" x1="15.388" x2="15.488" gradientUnits="userSpaceOnUse"><stop style="stop-color:#fff;stop-opacity:.124"/><stop offset=".103" style="stop-color:#fff"/><stop offset="1" style="stop-color:#fff;stop-opacity:0"/></linearGradient><linearGradient gradientTransform="matrix(25.1076 0 0 4.73504.124-456.59)" id="2" x1="1.846" x2="18.972" gradientUnits="userSpaceOnUse"><stop style="stop-color:#8e8d87"/><stop offset=".276" style="stop-color:#cbc9c1"/><stop offset="1" style="stop-color:#8e8d87"/></linearGradient><radialGradient cx="24" cy="41.875" gradientTransform="matrix(10.90347 0 0 3.63445-3.277-183.62)" id="8" r="19.13" gradientUnits="userSpaceOnUse"><stop/><stop offset="1" style="stop-opacity:0"/></radialGradient><radialGradient cx="99.67" cy="-150.74" r="23.15" id="9" gradientUnits="userSpaceOnUse"><stop style="stop-color:#fffffd"/><stop offset=".5" style="stop-color:#bbbbb9"/><stop offset="1"/></radialGradient></defs><g transform="matrix(.91287 0 0 .91287 25.296 440.6)"><g style="stroke-width:10.903"><path d="m466.94-31.429c0 38.39-93.36 69.51-208.53 69.51-115.17 0-208.53-31.12-208.53-69.51 0-38.39 93.36-69.51 208.53-69.51 115.17 0 208.53 31.12 208.53 69.51" style="fill:url(#8);color:#000"/><path d="m70.58-73.61h381.78a18.6618 18.6618 0 0 1 18.661 18.6618v32.867a18.6618 18.6618 0 0 1 -18.661 18.6618h-381.78a18.6618 18.6618 0 0 1 -18.6618 -18.6618v-32.867a18.6618 18.6618 0 0 1 18.6618 -18.6618" style="fill:url(#2);stroke:#595959"/><path d="m77.28-231.71h369.63c4.218 0 9.608 3.142 12.932 7.893 3.324 4.751 19.02 28.458 22.55 33.518 3.527 5.059 4.305 9.856 4.305 16.09v131.68c0 9.961-8.02 17.98-17.98 17.98h-413.24c-9.961 0-17.98-8.02-17.98-17.98v-131.68c0-5.386 1.108-13.11 4.891-18.03 4.773-6.204 17.576-27.781 20.953-32.357 3.377-4.576 9.578-7.121 13.944-7.121z" style="fill:url(#1);stroke:#676767;color:#000"/></g><path d="m81.08-226.52c-5.481 0-12.53 1.437-15.42 5.841l-20.239 30.84c-3.258 4.964.371 16.666 10.174 16.666h410.44c13.261 0 13.299-11.01 10.173-15.702l-19.275-28.912c-3.495-5.242-4.764-8.732-13.492-8.732h-362.37" style="fill:#fbfbfb;fill-rule:evenodd"/><g style="color:#000"><path d="m82.31-221.39h358.6c3.995 0 9.1 2.975 12.246 7.475 3.148 4.499 14.16 22.13 17.5 26.922 3.34 4.791 4.758 9.333 4.758 15.241v123c0 9.433-1.461 13.619-10.894 13.619h-404.85c-9.433 0-11.575-4.187-11.575-13.619v-123c0-5.101 2.412-12.415 5.994-17.07 4.52-5.875 11.825-21.489 15.02-25.822 3.198-4.333 9.07-6.744 13.204-6.744z" style="fill:none;stroke:url(#0);stroke-width:10.325"/><g style="stroke-width:10.903"><g style="display:block;stroke-linecap:round"><path d="m126.28-418.09h269.71c7.12 0 12.852 5.588 12.852 12.529v204.88h-295.42v-204.88c0-6.941 5.732-12.529 12.852-12.529z" style="fill:url(#3);stroke:#898989"/><path d="m126.07-406.49h269.55a1.9275 1.9275 0 0 1 1.927 1.928v201.84a1.9275 1.9275 0 0 1 -1.927 1.927h-269.55a1.9275 1.9275 0 0 1 -1.927 -1.927v-201.84a1.9275 1.9275 0 0 1 1.927 -1.928" style="fill:none;stroke:url(#6);stroke-linejoin:round"/></g><path d="m93.75-167.65h330.67a18.6618 18.6618 0 0 1 18.662 18.662v19.238a18.6618 18.6618 0 0 1 -18.662 18.662h-330.67a18.6618 18.6618 0 0 1 -18.6618 -18.662v-19.238a18.6618 18.6618 0 0 1 18.6618 -18.662" style="fill:url(#5);stroke:url(#7)"/></g></g><path d="m118.66-143.1c0 7.717-6.256 13.974-13.974 13.974-7.717 0-13.974-6.256-13.974-13.974 0-7.717 6.256-13.974 13.974-13.974 7.717 0 13.974 6.256 13.974 13.974" style="fill:url(#9);stroke-width:10.903"/><path d="m128.17-189.01l278.72.681c7.496.022 10.771-4.045 10.222-10.904l-1.363-17.04h20.347c8.859 0 10.797 2.1 12.948 6.133l5.452 10.222c5.744 10.77 19.748 21.525 5.432 21.525-49.1 0-307.22-3.807-331.76-10.621" style="fill:url(#4);opacity:.366;fill-rule:evenodd"/><path d="m468.29-174.46h-415.69" style="fill:none;stroke:#fff;stroke-linecap:round;stroke-linejoin:round;stroke-width:10.903"/><g style="color:#000"><g transform="matrix(10.90347 0 0 10.90347.124-444.32)" style="opacity:.436;fill-opacity:.292"><path d="m14 5h19v1h-19z"/><path d="m14 7h19v1h-19z"/><path d="m14 9h19v1h-19z"/><path d="m14 11h19v1h-19z"/><path d="m14 13h11v1h-11z"/></g><path d="m229.33-237.27h75.973v-53.694h32.826l-70.29-87.94-77.61 87.08h39.12l-.022 54.55" style="fill:#a7a7a7;fill-rule:evenodd"/></g></g></svg>