<?xml version="1.0" encoding="UTF-8" standalone="no"?>
<svg
   viewBox="0 0 512 512"
   version="1.1"
   id="svg2"
   sodipodi:docname="LockAllLayers.svg"
   inkscape:version="1.4.3 (0d15f75, 2025-12-25)"
   xmlns:inkscape="http://www.inkscape.org/namespaces/inkscape"
   xmlns:sodipodi="http://sodipodi.sourceforge.net/DTD/sodipodi-0.dtd"
   xmlns="http://www.w3.org/2000/svg"
   xmlns:svg="http://www.w3.org/2000/svg">
  <defs
     id="defs2" />
  <sodipodi:namedview
     id="namedview2"
     pagecolor="#ffffff"
     bordercolor="#000000"
     borderopacity="0.25"
     inkscape:showpageshadow="2"
     inkscape:pageopacity="0.0"
     inkscape:pagecheckerboard="0"
     inkscape:deskcolor="#d1d1d1"
     inkscape:zoom="1.71875"
     inkscape:cx="256"
     inkscape:cy="256.29091"
     inkscape:window-width="1024"
     inkscape:window-height="1186"
     inkscape:window-x="0"
     inkscape:window-y="30"
     inkscape:window-maximized="0"
     inkscape:current-layer="svg2" />
  <g
     transform="matrix(3.09485 0 0 3.09485 56.819 61.62)"
     style="fill-rule:evenodd;fill:#ff0000"
     id="g2">
    <path
       d="m64.36 2c-20.07 0-36.23 16.16-36.23 36.23v40.26h10.06v-40.26c0-14.496 11.67-26.17 26.17-26.17 14.496 0 26.17 11.67 26.17 26.17v40.26h10.06v-40.26c0-20.07-16.16-36.23-36.23-36.23"
       id="path1"
       style="fill:#ff0000" />
    <path
       d="m22.06 57.36h84.6a.5 .5 0 0 1 .5 .5v65.26a.5 .5 0 0 1 -.5 .5h-84.6a.5 .5 0 0 1 -.5 -.5v-65.26a.5 .5 0 0 1 .5 -.5"
       id="path2"
       style="fill:#ff0000" />
  </g>
</svg>
