<svg xmlns="http://www.w3.org/2000/svg" xmlns:xlink="http://www.w3.org/1999/xlink" viewBox="0 0 512 512"><defs><linearGradient id="3"><stop style="stop-color:#fff"/><stop offset="1" style="stop-color:#fff;stop-opacity:0"/></linearGradient><linearGradient gradientTransform="matrix(0-7.39358 7.3044 0 633.19-4.681)" id="2" y1="20.91" y2="24.18" gradientUnits="userSpaceOnUse" x2="0"><stop style="stop-color:#0043ed"/><stop offset="1" style="stop-color:#92acff"/></linearGradient><linearGradient xlink:href="#3" id="0" y1="-215.63" x1="802.67" y2="-405.93" gradientUnits="userSpaceOnUse" x2="569.79"/><linearGradient xlink:href="#3" id="1" y1="-244.34" x1="797.66" y2="-336.33" gradientUnits="userSpaceOnUse" x2="767"/></defs><g transform="matrix(-1.22595 0 0-1.22595 1191.4 10.423)"><g style="display:block;stroke-width:10.667"><path d="m901.33-143.67l-106.67 117.33-111.67-117.33 69-.333v-100c2.039-49.546-23-82.05-53.33-80.67h-1.333-72.67c75.23-109.02 214.16-38.753 213 80.67l-.667 100.33h64.33z" style="fill:url(#2);stroke:#002cc4"/><path d="m876.67-132.67l-82 90.33-86-90.33 43.33-.333c6.074-.004 10.996-4.926 11-11v-100c1.1-26.721-4.849-49.08-16.333-65.67-11.417-16.485-28.909-26.74-48-26-.112.004-.221-.005-.333 0h-1-47.33c32.665-33.33 71.27-38.941 105.33-24.333 39.764 17.05 71.87 60.58 71.33 116l-.667 100.33c.004 6.074 4.926 10.996 11 11h39.667z" style="fill:#000ded;opacity:.61;stroke:url(#0)"/></g><path d="m793.33-32.33c10-78.22-1.667-289.11-35.667-318.67v-21.333c33.11 34.22 77.22 89.11 74.33 127.33l-1.333 107 60-.333-97.33 106" style="fill:url(#1);opacity:.45;fill-rule:evenodd"/></g></svg>
