<svg width="100.5" fill="none" xmlns="http://www.w3.org/2000/svg" height="100.5" viewBox="-0.25 -100.25 100.5 100.5" stroke-linejoin="round" stroke-linecap="round">
<g transform="scale(1 -1)">
<circle cx="50" cy="50" stroke="#fff" r="50" stroke-width=".35"/>
</g>
<g fill="#00f" fill-rule="evenodd" stroke="#00f" stroke-width=".5" transform="scale(1 -1)">
<path d="m8.3975,77.735l9.2441-4.1615-1.8473-2.771Z"/>
<path d="m91.6025,22.265l-9.2441,4.1615 1.8473,2.771Z"/>
</g>
<g stroke="#00f" stroke-width=".5" transform="scale(1 -1)">
<path d="m48.3051,63.4823l3.0817,.6163-5.5471-8.3205"/>
<path d="m56.5484,59.9896h.0001c.0061,.3978-.1837,.7903-.5392,1.0274-.3554,.2368-.7904,.2612-1.155,.103m.0024,.0015v.0004c-.7593-.2684-1.4627-.7095-2.0445-1.3091m-2.4662-3.7001l-.0012-.0004c-.3306-.7703-.467-1.5888-.4227-2.3922m.001,.0029h-.0002c-.0057-.3975 .184-.7897 .5394-1.0265 .3553-.2369 .7903-.2613 1.1549-.1031m-.0027-.0013v-.0003c.7593,.2684 1.4627,.7094 2.0445,1.3091m-.0016,.0006l-.002-.0049c.5201,.5068 .9931,1.073 1.4102,1.6988 .0064,.0096 .0128,.0192 .0191,.0286m-.0011-.0016l-.0001-.0002c.0068,.0103 .0136,.0204 .0204,.0305 .4174,.6262 .7583,1.281 1.0238,1.9505m-.0022-.0013l.0012,.0003c.33,.7692 .4663,1.5863 .4225,2.3886m-5.1613-1.8998l.0001,.0002c-.0068-.0103-.0136-.0204-.0204-.0305-.4177-.6267-.7589-1.2821-1.0245-1.9522m2.471,3.7034l.002,.0049c-.5201-.5067-.9931-1.073-1.4102-1.6988-.0068-.0101-.0136-.0203-.0202-.0303"/>
<path d="m63.0199,55.6753h.0001c.0061,.3978-.1837,.7903-.5392,1.0273-.3554,.2369-.7904,.2613-1.155,.1031m.0024,.0015v.0003c-.7593-.2683-1.4627-.7094-2.0445-1.3091m-2.4662-3.7001l-.0012-.0003c-.3306-.7704-.467-1.5888-.4227-2.3922m.001,.0028h-.0002c-.0057-.3975 .184-.7896 .5394-1.0265 .3553-.2369 .7903-.2612 1.1549-.103m-.0027-.0013v-.0003c.7593,.2683 1.4627,.7094 2.0445,1.3091m-.0016,.0006l-.002-.0049c.5201,.5067 .9931,1.073 1.4102,1.6987 .0064,.0096 .0128,.0192 .0191,.0287m-.0011-.0016l-.0001-.0002c.0069,.0102 .0136,.0203 .0204,.0305 .4174,.6261 .7583,1.2809 1.0238,1.9505m-.0022-.0014l.0012,.0004c.33,.7692 .4663,1.5863 .4225,2.3885m-5.1613-1.8997l.0001,.0002c-.0068-.0103-.0136-.0204-.0204-.0305-.4177-.6267-.7589-1.2821-1.0245-1.9522m2.471,3.7033l.002,.005c-.5201-.5068-.9931-1.073-1.4102-1.6988-.0068-.0102-.0136-.0204-.0202-.0304"/>
</g>
<g transform="scale(1 -1)">
<path stroke="#00f" stroke-width=".5" d="m8.3975,77.735l83.205-55.47"/>
</g>
</svg>
