<svg xmlns="http://www.w3.org/2000/svg" viewBox="-0.25 -100.25 100.5 100.5" style="fill:none;stroke-linecap:round;stroke-linejoin:round"><g transform="scale(1-1)"><circle cx="50" cy="50" r="50" style="stroke:#fff;stroke-width:.35"/><g style="fill:#00f;stroke:#00f;fill-rule:evenodd;stroke-width:.5"><path d="m8.398 77.73l9.244-4.162-1.847-2.771"/><path d="m91.6 22.265l-9.244 4.162 1.847 2.771"/></g><g style="stroke:#00f;stroke-width:.5"><path d="m48.31 63.48l3.082.616-5.547-8.32"/><path d="m56.55 59.99c.006.398-.184.79-.539 1.027-.355.237-.79.261-1.155.103m.002.002c-.759-.268-1.463-.709-2.044-1.309m-2.466-3.7h-.001c-.331-.77-.467-1.589-.423-2.392m.001.003c-.006-.398.184-.79.539-1.026.355-.237.79-.261 1.155-.103m-.003-.001c.759.268 1.463.709 2.044 1.309m-.002.001l-.002-.005c.52.507.993 1.073 1.41 1.699.006.01.013.019.019.029m-.001-.002c.007.01.013.02.02.03.417.626.758 1.281 1.024 1.95m-.002-.001h.001c.33.769.466 1.586.422 2.389m-5.161-1.9c-.007-.01-.013-.02-.02-.03-.418-.627-.759-1.282-1.025-1.952m2.471 3.703l.002.005c-.52-.507-.993-1.073-1.41-1.699-.007-.01-.014-.02-.02-.03"/><path d="m63.02 55.675c.006.398-.184.79-.539 1.027-.355.237-.79.261-1.155.103m.002.002c-.759-.268-1.463-.709-2.044-1.309m-2.466-3.7h-.001c-.331-.77-.467-1.589-.423-2.392m.001.003c-.006-.398.184-.79.539-1.026.355-.237.79-.261 1.155-.103m-.003-.001c.759.268 1.463.709 2.044 1.309m-.002.001l-.002-.005c.52.507.993 1.073 1.41 1.699.006.01.013.019.019.029m-.001-.002c.007.01.013.02.02.03.417.626.758 1.281 1.024 1.95m-.002-.001h.001c.33.769.466 1.586.422 2.389m-5.161-1.9c-.007-.01-.013-.02-.02-.03-.418-.627-.759-1.282-1.025-1.952m2.471 3.703l.002.005c-.52-.507-.993-1.073-1.41-1.699-.007-.01-.014-.02-.02-.03"/></g></g></svg>
