<?xml version="1.0" encoding="UTF-8"?>
<!-- 2016-05-25 09:52:38 Generated by QCAD SVG Exporter -->
<svg width="100" height="100" viewBox="-7.105427357601002e-15 -100 100 100" version="1.1" xmlns="http://www.w3.org/2000/svg" style="stroke-linecap:round;stroke-linejoin:round;fill:none">
    <g transform="scale(1,-1)">
        <!-- Circle -->
        <circle cx="49.99999999999999" cy="49.99999999999999" r="50" style="stroke:#000000;stroke-width:0.35;"/>
        <!-- Diametric Dimension -->
        <g>
            <path d="M8.397485283107855,77.73500981126148 L17.64164095189488,73.57348693712206 L15.794335501077699,70.8025287608963 Z" style="stroke:#0000ff;stroke-width:0.5;fill:#0000ff;fill-rule:evenodd;"/>
            <path d="M91.60251471689213,22.26499018873849 L82.35835904810511,26.426513062877913 L84.20566449892229,29.197471239103674 Z" style="stroke:#0000ff;stroke-width:0.5;fill:#0000ff;fill-rule:evenodd;"/>
            <g>
                <path d="M48.30508273375625,63.482296436029856 L51.38675049056308,64.09862998739122 L45.839748528310786,55.778127044012784" style="stroke:#0000ff;stroke-width:0.5;"/>
                <path d="M56.54840010438474,59.98959808499225 L56.54854700096647,59.98962365260095 C56.55460501928128,60.387389295547955 56.36482025781292,60.77991680922465 56.00925212577332,61.01696223058439 C55.653921179838306,61.253849527874394 55.21893751045495,61.278189066013425 54.854338779262314,61.119998886787684 M54.85666829919246,61.1215392980101 L54.856676891830865,61.12187929498566 C54.0973624326481,60.853506544277 53.39396557380856,60.412442142427906 52.81217533148283,59.812781094885125 M50.346004377365105,56.11266499582379 L50.34481940880978,56.112296261251366 C50.0141938235237,55.341952816836645 49.877809094197715,54.52354665008168 49.92210027841195,53.72011646202265 M49.92308875558838,53.722978024411134 L49.922942675844865,53.72295264535132 C49.9171661326229,53.32547638970641 50.106933815179254,52.933336852767134 50.46225016352103,52.696459287205954 C50.817581109456036,52.45957198991595 51.25256477883939,52.435232451776926 51.617163510032036,52.59342263100266 M51.61446418997107,52.59212875320079 L51.61445559733267,52.59178875622523 C52.373770056515426,52.860161506933885 53.07716691535497,53.30122590878298 53.6589571576807,53.90088695632576 M53.65739381987845,53.90154841088604 L53.65541631995711,53.89660889822909 C54.17547087695233,54.403352064475875 54.64846456415453,54.96961280430734 55.06564545863907,55.595384146034135 C55.07203896877992,55.60497441124542 55.07841453491504,55.614571401010906 55.084670791156796,55.624021945878305 M55.08357119685035,55.62238752701894 L55.083462826937854,55.622223752707214 C55.09034817104107,55.63247568551817 55.09711045562894,55.64258164151895 55.10385813882347,55.652703166310744 C55.52129297455963,56.278855419914976 55.8622354502406,56.933673347651585 56.12773061532603,57.60320927121273 M56.12549504468009,57.601859790531535 L56.12668114453656,57.602228825252894 C56.45665813391688,58.371433202326365 56.592991042973786,59.18852500999289 56.54918532292991,59.990760034874384 M51.38793109244399,58.09103399077141 L51.38803946235649,58.09119776508313 C51.38115411825327,58.080945832272164 51.3743918336654,58.07083987627139 51.36764415047087,58.0607183514796 C50.94985849732658,57.43403987176317 50.60869382851782,56.778647515692555 50.34309861834108,56.10851597626325 M52.81410846941589,59.8118731069043 L52.81608596933722,59.81681261956125 C52.29603141234201,59.31006945331447 51.82303772513981,58.743808713483006 51.40585683065528,58.11803737175621 C51.399073135252856,58.107861828652574 51.39230964087335,58.097678715172776 51.3856737330957,58.08765037330612" style="stroke:#0000ff;stroke-width:0.5;"/>
                <path d="M63.019902393679075,55.675263225462686 L63.020049290260815,55.67528879307138 C63.02610730857562,56.073054436018396 62.836322547107265,56.46558194969509 62.48075441506766,56.70262737105483 C62.12542346913264,56.939514668344835 61.69043979974929,56.96385420648386 61.32584106855665,56.80566402725812 M61.32817058848679,56.80720443848054 L61.3281791811252,56.807544435456094 C60.56886472194243,56.53917168474744 59.86546786310289,56.09810728289834 59.28367762077717,55.49844623535556 M56.81750666665944,51.798330136294226 L56.81632169810411,51.79796140172181 C56.48569611281803,51.02761795730708 56.34931138349205,50.20921179055211 56.39360256770629,49.405781602493086 M56.394591044882716,49.40864316488157 L56.3944449651392,49.40861778582176 C56.38866842191724,49.01114153017685 56.57843610447359,48.619001993237575 56.93375245281536,48.382124427676395 C57.28908339875038,48.145237130386384 57.724067068133735,48.12089759224736 58.08866579932637,48.2790877714731 M58.08596647926541,48.27779389367123 L58.08595788662701,48.27745389669567 C58.84527234580977,48.545826647404326 59.54866920464931,48.98689104925342 60.13045944697504,49.586552096796204 M60.128896109172786,49.587213551356484 L60.12691860925145,49.58227403869952 C60.64697316624667,50.08901720494631 61.11996685344887,50.65527794477777 61.5371477479334,51.281049286504576 C61.543541258074264,51.290639551715856 61.549916824209376,51.30023654148135 61.55617308045113,51.30968708634874 M61.555073486144686,51.30805266748937 L61.5549651162322,51.30788889317765 C61.56185046033541,51.318140825988614 61.56861274492328,51.328246781989385 61.57536042811781,51.33836830678118 C61.992795263853964,51.96452056038542 62.33373773953493,52.61933848812202 62.599232904620365,53.28887441168317 M62.59699733397443,53.287524931001975 L62.5981834338309,53.287893965723335 C62.92816042321122,54.057098342796806 63.06449333226813,54.87419015046332 63.02068761222425,55.676425175344825 M57.859433381738334,53.77669913124185 L57.85954175165082,53.77686290555357 C57.852656407547606,53.7666109727426 57.84589412295974,53.75650501674183 57.83914643976521,53.74638349195004 C57.42136078662092,53.1197050122336 57.08019611781216,52.46431265616299 56.814600907635416,51.79418111673368 M59.28561075871023,55.497538247374735 L59.28758825863156,55.50247776003169 C58.767533701636346,54.99573459378491 58.29454001443415,54.429473853953446 57.87735911994962,53.80370251222664 C57.8705754245472,53.793526969123015 57.863811930167685,53.78334385564321 57.857176022390036,53.77331551377655" style="stroke:#0000ff;stroke-width:0.5;"/>
            </g>
            <path d="M8.397485283107855,77.73500981126148 L91.60251471689213,22.26499018873849 " style="stroke:#0000ff;stroke-width:0.5;"/>
        </g>
    </g>
</svg>
