<?xml version="1.0" encoding="UTF-8"?>
<!-- 2011-10-19 14:06:29 Generated by QCAD SVG Exporter -->
<svg width="100.5" height="100.5" viewBox="-0.25 -100.25 100.5 100.5" version="1.1" xmlns="http://www.w3.org/2000/svg" style="stroke-linecap:round;stroke-linejoin:round;fill:none">
    <g transform="scale(1,-1)">
        <!-- Circle -->
        <circle cx="49.99999999999999" cy="49.99999999999999" r="50" style="stroke:#000000;stroke-width:0.35;"/>
        <!-- Diametric Dimension -->
        <g>
            <path d="M8.39749,77.735 L17.6416,73.5735 L15.7943,70.8025 Z" style="stroke:#0000ff;stroke-width:0.5;fill:#0000ff;fill-rule:evenodd;"/>
            <path d="M91.6025,22.265 L82.3584,26.4265 L84.2057,29.1975 Z" style="stroke:#0000ff;stroke-width:0.5;fill:#0000ff;fill-rule:evenodd;"/>
            <g>
                <path d="M48.3051,63.4823 L51.3868,64.0986 L45.8397,55.7781 " style="stroke:#0000ff;stroke-width:0.5;"/>
                <path d="M56.5484,59.9896 L56.5485,59.9896 C56.5546,60.3874 56.3648,60.7799 56.0093,61.017 C55.6539,61.2538 55.2189,61.2782 54.8543,61.12 M54.8567,61.1215 L54.8567,61.1219 C54.0974,60.8535 53.394,60.4124 52.8122,59.8128 M50.346,56.1127 L50.3448,56.1123 C50.0142,55.342 49.8778,54.5235 49.9221,53.7201 M49.9231,53.723 L49.9229,53.723 C49.9172,53.3255 50.1069,52.9333 50.4623,52.6965 C50.8176,52.4596 51.2526,52.4352 51.6172,52.5934 M51.6145,52.5921 L51.6145,52.5918 C52.3738,52.8602 53.0772,53.3012 53.659,53.9009 M53.6574,53.9015 L53.6554,53.8966 C54.1755,54.4034 54.6485,54.9696 55.0656,55.5954 C55.072,55.605 55.0784,55.6146 55.0847,55.624 M55.0836,55.6224 L55.0835,55.6222 C55.0903,55.6325 55.0971,55.6426 55.1039,55.6527 C55.5213,56.2789 55.8622,56.9337 56.1277,57.6032 M56.1255,57.6019 L56.1267,57.6022 C56.4567,58.3714 56.593,59.1885 56.5492,59.9908 M51.3879,58.091 L51.388,58.0912 C51.3812,58.0809 51.3744,58.0708 51.3676,58.0607 C50.9499,57.434 50.6087,56.7786 50.3431,56.1085 M52.8141,59.8119 L52.8161,59.8168 C52.296,59.3101 51.823,58.7438 51.4059,58.118 C51.3991,58.1079 51.3923,58.0977 51.3857,58.0877 " style="stroke:#0000ff;stroke-width:0.5;"/>
                <path d="M63.0199,55.6753 L63.02,55.6753 C63.0261,56.0731 62.8363,56.4656 62.4808,56.7026 C62.1254,56.9395 61.6904,56.9639 61.3258,56.8057 M61.3282,56.8072 L61.3282,56.8075 C60.5689,56.5392 59.8655,56.0981 59.2837,55.4984 M56.8175,51.7983 L56.8163,51.798 C56.4857,51.0276 56.3493,50.2092 56.3936,49.4058 M56.3946,49.4086 L56.3944,49.4086 C56.3887,49.0111 56.5784,48.619 56.9338,48.3821 C57.2891,48.1452 57.7241,48.1209 58.0887,48.2791 M58.086,48.2778 L58.086,48.2775 C58.8453,48.5458 59.5487,48.9869 60.1305,49.5866 M60.1289,49.5872 L60.1269,49.5823 C60.647,50.089 61.12,50.6553 61.5371,51.281 C61.5435,51.2906 61.5499,51.3002 61.5562,51.3097 M61.5551,51.3081 L61.555,51.3079 C61.5619,51.3181 61.5686,51.3282 61.5754,51.3384 C61.9928,51.9645 62.3337,52.6193 62.5992,53.2889 M62.597,53.2875 L62.5982,53.2879 C62.9282,54.0571 63.0645,54.8742 63.0207,55.6764 M57.8594,53.7767 L57.8595,53.7769 C57.8527,53.7666 57.8459,53.7565 57.8391,53.7464 C57.4214,53.1197 57.0802,52.4643 56.8146,51.7942 M59.2856,55.4975 L59.2876,55.5025 C58.7675,54.9957 58.2945,54.4295 57.8774,53.8037 C57.8706,53.7935 57.8638,53.7833 57.8572,53.7733 " style="stroke:#0000ff;stroke-width:0.5;"/>
            </g>
            <path d="M8.39749,77.735 L91.6025,22.265 " style="stroke:#0000ff;stroke-width:0.5;"/>
        </g>
    </g>
</svg>
