<svg width="273.447" fill="none" xmlns="http://www.w3.org/2000/svg" height="63" viewBox="58.5528 -91.5 273.447 63" stroke-linejoin="round" stroke-linecap="round">
<g transform="scale(1 -1)">
<g stroke="#f00" stroke-width="2">
<path d="m90,90l-30-60"/>
<path d="M150,90 A30,30 0 1,1 180,60 "/>
<circle cx="240" cy="60" r="30"/>
<path d="m89.5528,90.2236l-30-60"/>
<path d="m90.4472,89.7764l-30-60"/>
<path d="M150,89.5 A29.5,29.5 0 1,1 179.5,60 "/>
<path d="M150,90.5 A30.5,30.5 0 1,1 180.5,60 "/>
<circle cx="240" cy="60" r="30.5"/>
<circle cx="240" cy="60" r="29.5"/>
</g>
<g stroke="#fff">
<circle cx="240" cy="60" r="30"/>
<path d="M150,90 A30,30 0 1,1 180,60 "/>
<path d="m60,30l30,60"/>
</g>
<circle cx="330" cy="60" stroke="#f00" r="1" stroke-width="2"/>
<circle cx="330" cy="60" stroke="#fff" r=".01"/>
</g>
</svg>
