<svg width="273.45" xmlns="http://www.w3.org/2000/svg" viewBox="58.5528 -91.5 273.447 63" xmlns:xlink="http://www.w3.org/1999/xlink" style="fill:none;stroke-linecap:round;stroke-linejoin:round"><g transform="scale(1-1)"><g style="stroke:#f00;stroke-width:2"><path d="m90 90l-30-60"/><path d="M150 90A30 30 0 1 1 180 60" id="0"/><circle cx="240" cy="60" r="30"/><path d="m89.55 90.22l-30-60"/><path d="m90.45 89.78l-30-60"/><path d="M150 89.5A29.5 29.5 0 1 1 179.5 60"/><path d="M150 90.5A30.5 30.5 0 1 1 180.5 60"/><circle cx="240" cy="60" r="30.5"/><circle cx="240" cy="60" r="29.5"/></g><g style="stroke:#fff"><circle cx="240" cy="60" r="30"/><use xlink:href="#0"/><path d="m60 30l30 60"/></g><circle cx="330" cy="60" r="1" style="stroke:#f00;stroke-width:2"/><circle cx="330" cy="60" r=".01" style="stroke:#fff"/></g></svg>
