<?xml version="1.0" encoding="UTF-8"?>
<!-- 2011-11-22 21:31:31 Generated by QCAD SVG Exporter -->
<svg width="273.447" height="63" viewBox="58.5528 -91.5 273.447 63" version="1.1" xmlns="http://www.w3.org/2000/svg" style="stroke-linecap:round;stroke-linejoin:round;fill:none">
    <g transform="scale(1,-1)">
        <!-- Line -->
        <path d="M90,90 L60,30 " style="stroke:#ff0000;stroke-width:2;"/>
        <!-- Arc -->
        <path d="M150,90 A30,30 0 1,1 180,60 " style="stroke:#ff0000;stroke-width:2;"/>
        <!-- Circle -->
        <circle cx="240" cy="60" r="30" style="stroke:#ff0000;stroke-width:2;"/>
        <!-- Line -->
        <path d="M89.5528,90.2236 L59.5528,30.2236 " style="stroke:#ff0000;stroke-width:2;"/>
        <!-- Line -->
        <path d="M90.4472,89.7764 L60.4472,29.7764 " style="stroke:#ff0000;stroke-width:2;"/>
        <!-- Arc -->
        <path d="M150,89.5 A29.5,29.5 0 1,1 179.5,60 " style="stroke:#ff0000;stroke-width:2;"/>
        <!-- Arc -->
        <path d="M150,90.5 A30.5,30.5 0 1,1 180.5,60 " style="stroke:#ff0000;stroke-width:2;"/>
        <!-- Circle -->
        <circle cx="240" cy="60" r="30.5" style="stroke:#ff0000;stroke-width:2;"/>
        <!-- Circle -->
        <circle cx="240" cy="60" r="29.5" style="stroke:#ff0000;stroke-width:2;"/>
        <!-- Circle -->
        <circle cx="240" cy="60" r="30" style="stroke:#000000;stroke-width:1;"/>
        <!-- Arc -->
        <path d="M150,90 A30,30 0 1,1 180,60 " style="stroke:#000000;stroke-width:1;"/>
        <!-- Line -->
        <path d="M60,30 L90,90 " style="stroke:#000000;stroke-width:1;"/>
        <!-- Circle -->
        <circle cx="330" cy="60" r="1" style="stroke:#ff0000;stroke-width:2;"/>
        <!-- Point -->
        <circle cx="330" cy="60" r="0.01" style="stroke:#000000;stroke-width:1;"/>
    </g>
</svg>
