<?xml version="1.0" encoding="UTF-8"?>
<!-- 2016-05-25 10:01:22 Generated by QCAD SVG Exporter -->
<svg width="271.4472135955" height="61" viewBox="59.55278640450004 -90.5 271.4472135955 61" version="1.1" xmlns="http://www.w3.org/2000/svg" style="stroke-linecap:round;stroke-linejoin:round;fill:none">
    <g transform="scale(1,-1)">
        <!-- Line -->
        <path d="M90,90 L60,30 " style="stroke:#ff0000;stroke-width:2;"/>
        <!-- Arc -->
        <path d="M150,90 A30,30 0 1,1 180,60 " style="stroke:#ff0000;stroke-width:2;"/>
        <!-- Circle -->
        <circle cx="240" cy="60" r="30" style="stroke:#ff0000;stroke-width:2;"/>
        <!-- Line -->
        <path d="M89.55278640450004,90.22360679774998 L59.55278640450004,30.22360679774998 " style="stroke:#ff0000;stroke-width:2;"/>
        <!-- Line -->
        <path d="M90.44721359549996,89.77639320225002 L60.44721359549996,29.77639320225002 " style="stroke:#ff0000;stroke-width:2;"/>
        <!-- Arc -->
        <path d="M150,89.5 A29.5,29.5 0 1,1 179.5,60 " style="stroke:#ff0000;stroke-width:2;"/>
        <!-- Arc -->
        <path d="M150,90.5 A30.5,30.5 0 1,1 180.5,60 " style="stroke:#ff0000;stroke-width:2;"/>
        <!-- Circle -->
        <circle cx="240" cy="60" r="30.5" style="stroke:#ff0000;stroke-width:2;"/>
        <!-- Circle -->
        <circle cx="240" cy="60" r="29.5" style="stroke:#ff0000;stroke-width:2;"/>
        <!-- Circle -->
        <circle cx="240" cy="60" r="30" style="stroke:#000000;stroke-width:1;"/>
        <!-- Arc -->
        <path d="M150,90 A30,30 0 1,1 180,60 " style="stroke:#000000;stroke-width:1;"/>
        <!-- Line -->
        <path d="M60,30 L90,90 " style="stroke:#000000;stroke-width:1;"/>
        <!-- Circle -->
        <circle cx="330" cy="60" r="1" style="stroke:#ff0000;stroke-width:2;"/>
        <!-- Point -->
    </g>
</svg>
