<svg xmlns="http://www.w3.org/2000/svg" viewBox="0 0 512 512"><g transform="translate(0 464)"><g style="stroke:#000"><path d="m200-152l144-240" style="fill:none;stroke-linecap:square;stroke-width:16"/><path d="m266.86-264.12l67.95-42.22-60.958-37.471-6.992 79.69z" style="stroke-linecap:round;stroke-linejoin:round;stroke-width:8"/><path d="m440 240a184 184 0 1 1 -368 0 184 184 0 1 1 368 0z" transform="matrix(.69565 0 0 .69565 21.913-318.96)" style="fill:none;stroke-width:23"/></g><path d="m445.79-284.99c3.761 1.273 7.406 3.992 10.935 8.158 3.587 4.166 7.174 9.894 10.761 17.18l17.791 35.408h-18.832l-16.576-33.24c-4.281-8.678-8.447-14.435-12.497-17.27-3.992-2.835-9.46-4.252-16.402-4.252h-19.09v54.761h-17.531v-129.57h39.574c14.811 0 25.862 3.095 33.15 9.286 7.29 6.191 10.935 15.534 10.935 28.03 0 8.158-1.909 14.927-5.728 20.308-3.761 5.381-9.257 9.112-16.489 11.195m-43.913-54.41v45.996h22.04c8.447 0 14.811-1.938 19.09-5.815 4.339-3.934 6.509-9.691 6.509-17.27 0-7.579-2.17-13.278-6.509-17.1-4.281-3.876-10.646-5.815-19.09-5.815h-22.04"/></g></svg>