<svg width="512" xmlns="http://www.w3.org/2000/svg" height="512">
<defs/>
<g transform="translate(0 464)">
<g stroke="#fff">
<path fill="none" stroke-linecap="square" stroke-width="16" d="m200-152 144-240"/>
<path stroke-linejoin="round" stroke-linecap="round" stroke-width="8" d="m266.8574-264.1203 67.9502-42.2228-60.9583-37.4711-6.9919,79.6939z"/>
<path fill="none" stroke-width="23" d="m440,240a184,184 0 1,1 -368,0 184,184 0 1,1 368,0z" transform="matrix(.69565 0 0 .69565 21.91304 -318.95652)"/>
</g>
<path d="m445.7927-284.9853c3.7606,1.2729 7.4055,3.9921 10.9348,8.1578 3.587,4.1657 7.1741,9.8935 10.7613,17.1833l17.7908,35.4081h-18.8322l-16.5759-33.2385c-4.2815-8.6784-8.4471-14.4351-12.497-17.2701-3.9922-2.8349-9.4596-4.2524-16.4023-4.2525h-19.0926v54.7611h-17.5305v-129.5693h39.5738c14.8112,.0001 25.8617,3.0954 33.1517,9.286 7.2898,6.1907 10.9348,15.5345 10.9348,28.0314-.0001,8.1578-1.9094,14.927-5.7278,20.3076-3.7607,5.3807-9.2571,9.1124-16.4891,11.1952m-43.913-54.4139 0,45.9958 22.0433,0c8.447,.0001 14.8112-1.9381 19.0926-5.8146 4.3392-3.9342 6.5088-9.6909 6.5088-17.2701-.0001-7.5791-2.1697-13.2779-6.5088-17.0965-4.2814-3.8763-10.6456-5.8145-19.0926-5.8146h-22.0433"/>
</g>
</svg>
