<svg width="512" xmlns="http://www.w3.org/2000/svg" height="512">
<defs/>
<g transform="translate(0 464)">
<path fill="#f00" d="m16.5,4.5a1,1 0 1,1 -2,0 1,1 0 1,1 2,0z" transform="matrix(-32 0 0 -32 744 -56)"/>
<path fill="none" stroke="#fff" stroke-linejoin="round" stroke-linecap="square" stroke-width="16" d="m408,248a176,176 0 1,1 -352,0 176,176 0 1,1 352,0z" transform="translate(16 -448)"/>
<path fill="#f00" d="m16.5,4.5a1,1 0 1,1 -2,0 1,1 0 1,1 2,0z" transform="matrix(-32 0 0 -32 840 -200)"/>
</g>
</svg>
