<svg xmlns="http://www.w3.org/2000/svg" viewBox="0 0 512 512"><g style="stroke:#000;stroke-linecap:square"><g style="stroke-opacity:.251"><path d="m101.42 205.98v95.7" style="stroke-dasharray:13.4027 26.8053;fill:none;stroke-width:13.403"/><path d="m102.1 191.46h208" style="stroke-dasharray:15.448 30.896;fill:#e1e1e1;stroke-width:15.448"/></g><g style="fill:none"><g style="stroke-width:24"><path d="m310.1 317.42h112"/><path d="m313.36 194.85h112"/></g><g style="stroke-width:16"><path d="m103.19 316.34h208" style="stroke-dasharray:16 32;stroke-opacity:.251"/><path d="m304.68 425.08v-352"/></g></g></g><g style="fill:#f00"><path d="m269.69 193.76c0-17.674 14.326-32 32-32 17.674 0 32 14.326 32 32 0 17.674-14.326 32-32 32-17.674 0-32-14.326-32-32"/><path d="m270.51 316.34c0-17.674 14.326-32 32-32 17.674 0 32 14.326 32 32 0 17.674-14.326 32-32 32-17.674 0-32-14.326-32-32"/></g><g transform="translate(-145.36 497.42)" style="fill:none;stroke:#00f;stroke-width:8"/><g style="fill:none;stroke:#000;stroke-linecap:square"><path d="m100.88 177.39v-104.2" style="stroke-width:15.479"/><path d="m103.59 423.1v-93.4" style="stroke-width:14.816"/></g></svg>