<?xml version="1.0" encoding="UTF-8" standalone="no"?>
<!-- Created with Inkscape (http://www.inkscape.org/) -->

<svg
   xmlns:dc="http://purl.org/dc/elements/1.1/"
   xmlns:cc="http://creativecommons.org/ns#"
   xmlns:rdf="http://www.w3.org/1999/02/22-rdf-syntax-ns#"
   xmlns:svg="http://www.w3.org/2000/svg"
   xmlns="http://www.w3.org/2000/svg"
   xmlns:xlink="http://www.w3.org/1999/xlink"
   xmlns:sodipodi="http://sodipodi.sourceforge.net/DTD/sodipodi-0.dtd"
   xmlns:inkscape="http://www.inkscape.org/namespaces/inkscape"
   width="512px"
   height="512px"
   id="svg23883"
   sodipodi:version="0.32"
   inkscape:version="0.47 r22583"
   version="1.0"
   sodipodi:docname="CutWithReference.svg"
   inkscape:export-filename="/home/garrett/edit-cut.png"
   inkscape:export-xdpi="90"
   inkscape:export-ydpi="90"
   inkscape:output_extension="org.inkscape.output.svg.inkscape">
  <defs
     id="defs23885">
    <inkscape:perspective
       sodipodi:type="inkscape:persp3d"
       inkscape:vp_x="0 : 24 : 1"
       inkscape:vp_y="0 : 1000 : 0"
       inkscape:vp_z="48 : 24 : 1"
       inkscape:persp3d-origin="24 : 16 : 1"
       id="perspective70" />
    <linearGradient
       id="linearGradient2229">
      <stop
         style="stop-color:#e2e2e2;stop-opacity:1;"
         offset="0"
         id="stop2231" />
      <stop
         style="stop-color:#d8d8d8;stop-opacity:1;"
         offset="1"
         id="stop2233" />
    </linearGradient>
    <radialGradient
       gradientUnits="userSpaceOnUse"
       gradientTransform="matrix(1.000000,0.000000,0.000000,1.010300,1.007969e-18,-0.159801)"
       r="7.2848282"
       cy="23.333008"
       cx="165.06104"
       id="radialGradient16850">
      <stop
         id="stop16852"
         style="stop-color:#EF3535"
         offset="0" />
      <stop
         id="stop16854"
         style="stop-color:#a40000;stop-opacity:0"
         offset="1" />
    </radialGradient>
    <linearGradient
       id="XMLID_897_"
       gradientUnits="userSpaceOnUse"
       x1="292.97168"
       y1="4.7592773"
       x2="296.93979"
       y2="10.711433">
      <stop
         offset="0"
         style="stop-color:#EEEEEC"
         id="stop45093" />
      <stop
         offset="1"
         style="stop-color:#ffffff;stop-opacity:1;"
         id="stop45095" />
    </linearGradient>
    <linearGradient
       id="path3230_2_"
       gradientUnits="userSpaceOnUse"
       x1="1668.7646"
       y1="185.30176"
       x2="1679.5989"
       y2="175.78883"
       gradientTransform="matrix(1.213800,0.000000,0.282500,-1.671200,46.72625,447.9442)">
      <stop
         offset="0"
         style="stop-color:#FFFFFF"
         id="stop4977" />
      <stop
         offset="1"
         style="stop-color:#CFCFCF"
         id="stop4979" />
    </linearGradient>
    <linearGradient
       id="path3311_1_"
       gradientUnits="userSpaceOnUse"
       x1="1420.5474"
       y1="-50.919434"
       x2="1420.6542"
       y2="-79.574341"
       gradientTransform="matrix(2.051000,0.000000,0.167200,-0.989000,-799.2049,221.0724)">
      <stop
         offset="0"
         style="stop-color:#C4A000"
         id="stop4970" />
      <stop
         offset="1"
         style="stop-color:#957A00"
         id="stop4972" />
    </linearGradient>
    <radialGradient
       id="XMLID_52_"
       cx="165.06104"
       cy="23.333008"
       r="7.2848282"
       gradientTransform="matrix(1.000000,0.000000,0.000000,1.010300,1.007969e-18,-0.159801)"
       gradientUnits="userSpaceOnUse">
      <stop
         offset="0"
         style="stop-color:#EF3535"
         id="stop812" />
      <stop
         id="stop2239"
         style="stop-color:#c91a1a;stop-opacity:1;"
         offset="0" />
      <stop
         offset="1"
         style="stop-color:#ff4c4c;stop-opacity:1;"
         id="stop814" />
    </radialGradient>
    <linearGradient
       id="XMLID_45_"
       gradientUnits="userSpaceOnUse"
       x1="68.175293"
       y1="21.424805"
       x2="74.587158"
       y2="27.836672">
      <stop
         offset="0"
         style="stop-color:#BABDB6"
         id="stop695" />
      <stop
         offset="1"
         style="stop-color:#EEEEEC"
         id="stop697" />
    </linearGradient>
    <linearGradient
       inkscape:collect="always"
       xlink:href="#path3230_2_"
       id="linearGradient142876"
       gradientUnits="userSpaceOnUse"
       gradientTransform="matrix(1.213781,0,0.282495,-1.671173,-1712.251,391.532)"
       x1="1668.7646"
       y1="185.30176"
       x2="1679.5989"
       y2="175.78883" />
    <linearGradient
       inkscape:collect="always"
       xlink:href="#path3230_2_"
       id="linearGradient142884"
       gradientUnits="userSpaceOnUse"
       gradientTransform="matrix(1.213781,0.000000,0.282495,-1.671173,-1385.251,394.5320)"
       x1="1668.7646"
       y1="185.30176"
       x2="1679.5989"
       y2="175.78883" />
    <linearGradient
       inkscape:collect="always"
       xlink:href="#path3311_1_"
       id="linearGradient142892"
       gradientUnits="userSpaceOnUse"
       gradientTransform="matrix(2.050967,0.000000,0.167197,-0.988984,-2231.169,167.6639)"
       x1="1420.5474"
       y1="-50.919434"
       x2="1420.6542"
       y2="-79.574341" />
    <inkscape:perspective
       id="perspective3766"
       inkscape:persp3d-origin="0.5 : 0.33333333 : 1"
       inkscape:vp_z="1 : 0.5 : 1"
       inkscape:vp_y="0 : 1000 : 0"
       inkscape:vp_x="0 : 0.5 : 1"
       sodipodi:type="inkscape:persp3d" />
    <linearGradient
       inkscape:collect="always"
       xlink:href="#radialGradient16850-7"
       id="linearGradient17028-9"
       gradientUnits="userSpaceOnUse"
       gradientTransform="matrix(8.6707956,5.8048572,-4.9586124,7.4067484,179.92198,-84.24575)"
       x1="39.619942"
       y1="44.540932"
       x2="-3.532515"
       y2="-11.889042" />
    <radialGradient
       gradientUnits="userSpaceOnUse"
       gradientTransform="matrix(1,0,0,1.0103,0,-0.159801)"
       r="7.2848282"
       cy="23.333008"
       cx="165.06104"
       id="radialGradient16850-7">
      <stop
         id="stop16852-3"
         style="stop-color:#EF3535"
         offset="0" />
      <stop
         id="stop16854-6"
         style="stop-color:#a40000;stop-opacity:0"
         offset="1" />
    </radialGradient>
    <linearGradient
       inkscape:collect="always"
       xlink:href="#XMLID_52_-2"
       id="linearGradient16894-1"
       gradientUnits="userSpaceOnUse"
       gradientTransform="matrix(27.048242,18.108048,-18.108048,27.048242,-7557.0399,-5446.6955)"
       x1="296.76199"
       y1="12.012225"
       x2="297.79822"
       y2="10.946587" />
    <radialGradient
       id="XMLID_52_-2"
       cx="165.06104"
       cy="23.333008"
       r="7.2848282"
       gradientTransform="matrix(1,0,0,1.0103,0,-0.159801)"
       gradientUnits="userSpaceOnUse">
      <stop
         offset="0"
         style="stop-color:#EF3535"
         id="stop812-9" />
      <stop
         id="stop2239-3"
         style="stop-color:#c91a1a;stop-opacity:1;"
         offset="0" />
      <stop
         offset="1"
         style="stop-color:#ff4c4c;stop-opacity:1;"
         id="stop814-1" />
    </radialGradient>
    <linearGradient
       inkscape:collect="always"
       xlink:href="#linearGradient2251-4"
       id="linearGradient2257-9"
       x1="298.47852"
       y1="13.599585"
       x2="298.86948"
       y2="13.802949"
       gradientUnits="userSpaceOnUse" />
    <linearGradient
       inkscape:collect="always"
       id="linearGradient2251-4">
      <stop
         style="stop-color:#df2a2a;stop-opacity:1;"
         offset="0"
         id="stop2253-7" />
      <stop
         style="stop-color:#df2a2a;stop-opacity:0;"
         offset="1"
         id="stop2255-8" />
    </linearGradient>
    <linearGradient
       inkscape:collect="always"
       xlink:href="#linearGradient2259-5"
       id="linearGradient2265-4"
       x1="298.47852"
       y1="13.599585"
       x2="298.86948"
       y2="13.802949"
       gradientUnits="userSpaceOnUse" />
    <linearGradient
       id="linearGradient2259-5">
      <stop
         style="stop-color:#9a0c00;stop-opacity:1;"
         offset="0"
         id="stop2261-0" />
      <stop
         style="stop-color:#9a0c00;stop-opacity:0;"
         offset="1"
         id="stop2263-3" />
    </linearGradient>
    <radialGradient
       inkscape:collect="always"
       xlink:href="#XMLID_52_-2"
       id="radialGradient2241-6"
       cx="34.376091"
       cy="37.50008"
       fx="34.376091"
       fy="37.50008"
       r="8.3887873"
       gradientTransform="matrix(7.4627409,4.9960982,-5.2977674,7.9133487,229.8807,-76.343466)"
       gradientUnits="userSpaceOnUse" />
    <radialGradient
       id="radialGradient3788"
       cx="165.06104"
       cy="23.333008"
       r="7.2848282"
       gradientTransform="matrix(1,0,0,1.0103,0,-0.159801)"
       gradientUnits="userSpaceOnUse">
      <stop
         offset="0"
         style="stop-color:#EF3535"
         id="stop3790" />
      <stop
         id="stop3792"
         style="stop-color:#c91a1a;stop-opacity:1;"
         offset="0" />
      <stop
         offset="1"
         style="stop-color:#ff4c4c;stop-opacity:1;"
         id="stop3794" />
    </radialGradient>
    <linearGradient
       inkscape:collect="always"
       xlink:href="#XMLID_52_-2"
       id="linearGradient17034-1"
       gradientUnits="userSpaceOnUse"
       gradientTransform="matrix(8.6707956,5.8048572,-4.9586124,7.4067484,198.16946,-72.029566)"
       x1="13.82536"
       y1="40.068752"
       x2="7.6700611"
       y2="2.3262277" />
    <radialGradient
       id="radialGradient3797"
       cx="165.06104"
       cy="23.333008"
       r="7.2848282"
       gradientTransform="matrix(1,0,0,1.0103,0,-0.159801)"
       gradientUnits="userSpaceOnUse">
      <stop
         offset="0"
         style="stop-color:#EF3535"
         id="stop3799" />
      <stop
         id="stop3801"
         style="stop-color:#c91a1a;stop-opacity:1;"
         offset="0" />
      <stop
         offset="1"
         style="stop-color:#ff4c4c;stop-opacity:1;"
         id="stop3803" />
    </radialGradient>
    <linearGradient
       inkscape:collect="always"
       xlink:href="#XMLID_52_-2"
       id="linearGradient17037-0"
       gradientUnits="userSpaceOnUse"
       x1="7.184845"
       y1="31.056622"
       x2="25.152235"
       y2="50.774887"
       gradientTransform="matrix(8.6707946,5.8048561,-4.9586124,7.4067474,198.92407,-69.343896)" />
    <radialGradient
       id="radialGradient3806"
       cx="165.06104"
       cy="23.333008"
       r="7.2848282"
       gradientTransform="matrix(1,0,0,1.0103,0,-0.159801)"
       gradientUnits="userSpaceOnUse">
      <stop
         offset="0"
         style="stop-color:#EF3535"
         id="stop3808" />
      <stop
         id="stop3810"
         style="stop-color:#c91a1a;stop-opacity:1;"
         offset="0" />
      <stop
         offset="1"
         style="stop-color:#ff4c4c;stop-opacity:1;"
         id="stop3812" />
    </radialGradient>
    <linearGradient
       inkscape:collect="always"
       xlink:href="#XMLID_45_-3"
       id="linearGradient16739-6"
       x1="22.225399"
       y1="23.843431"
       x2="24.190449"
       y2="22.860907"
       gradientUnits="userSpaceOnUse" />
    <linearGradient
       id="XMLID_45_-3"
       gradientUnits="userSpaceOnUse"
       x1="68.175293"
       y1="21.424805"
       x2="74.587158"
       y2="27.836672">
      <stop
         offset="0"
         style="stop-color:#BABDB6"
         id="stop695-2" />
      <stop
         offset="1"
         style="stop-color:#EEEEEC"
         id="stop697-0" />
    </linearGradient>
    <linearGradient
       inkscape:collect="always"
       xlink:href="#linearGradient2229-1"
       id="linearGradient2235-6"
       x1="20.288025"
       y1="6.4603648"
       x2="24.32597"
       y2="23.942537"
       gradientUnits="userSpaceOnUse"
       gradientTransform="matrix(7.4627409,4.9960982,-4.9960982,7.4627409,218.3921,-59.182796)" />
    <linearGradient
       id="linearGradient2229-1">
      <stop
         style="stop-color:#e2e2e2;stop-opacity:1;"
         offset="0"
         id="stop2231-5" />
      <stop
         style="stop-color:#d8d8d8;stop-opacity:1;"
         offset="1"
         id="stop2233-5" />
    </linearGradient>
    <linearGradient
       inkscape:collect="always"
       xlink:href="#XMLID_897_-7"
       id="linearGradient16974-4"
       gradientUnits="userSpaceOnUse"
       gradientTransform="matrix(30.249675,20.25132,-20.666865,30.87038,-8494.8425,-6021.1151)"
       x1="292.97168"
       y1="4.7592773"
       x2="296.93979"
       y2="10.711433" />
    <linearGradient
       id="XMLID_897_-7"
       gradientUnits="userSpaceOnUse"
       x1="292.97168"
       y1="4.7592773"
       x2="296.93979"
       y2="10.711433">
      <stop
         offset="0"
         style="stop-color:#EEEEEC"
         id="stop45093-6" />
      <stop
         offset="1"
         style="stop-color:#ffffff;stop-opacity:1;"
         id="stop45095-5" />
    </linearGradient>
    <linearGradient
       inkscape:collect="always"
       xlink:href="#XMLID_52_-2"
       id="linearGradient16946-6"
       gradientUnits="userSpaceOnUse"
       gradientTransform="matrix(27.148654,18.175272,-17.338336,25.898511,-7583.1546,-5455.1006)"
       x1="296.48611"
       y1="15.506916"
       x2="296.52905"
       y2="9.8769522" />
    <radialGradient
       id="radialGradient3827"
       cx="165.06104"
       cy="23.333008"
       r="7.2848282"
       gradientTransform="matrix(1,0,0,1.0103,0,-0.159801)"
       gradientUnits="userSpaceOnUse">
      <stop
         offset="0"
         style="stop-color:#EF3535"
         id="stop3829" />
      <stop
         id="stop3831"
         style="stop-color:#c91a1a;stop-opacity:1;"
         offset="0" />
      <stop
         offset="1"
         style="stop-color:#ff4c4c;stop-opacity:1;"
         id="stop3833" />
    </radialGradient>
    <linearGradient
       inkscape:collect="always"
       xlink:href="#XMLID_52_-2"
       id="linearGradient16769-9"
       x1="294.59497"
       y1="12.187603"
       x2="297.18515"
       y2="13.3396"
       gradientUnits="userSpaceOnUse" />
    <radialGradient
       id="radialGradient3836"
       cx="165.06104"
       cy="23.333008"
       r="7.2848282"
       gradientTransform="matrix(1,0,0,1.0103,0,-0.159801)"
       gradientUnits="userSpaceOnUse">
      <stop
         offset="0"
         style="stop-color:#EF3535"
         id="stop3838" />
      <stop
         id="stop3840"
         style="stop-color:#c91a1a;stop-opacity:1;"
         offset="0" />
      <stop
         offset="1"
         style="stop-color:#ff4c4c;stop-opacity:1;"
         id="stop3842" />
    </radialGradient>
    <linearGradient
       inkscape:collect="always"
       xlink:href="#linearGradient2229-1"
       id="linearGradient2237-3"
       x1="20.288025"
       y1="6.4603648"
       x2="24.32597"
       y2="23.942537"
       gradientUnits="userSpaceOnUse"
       gradientTransform="matrix(7.4627409,4.9960982,-4.9960982,7.4627409,218.3921,-59.182796)" />
    <linearGradient
       id="linearGradient3845">
      <stop
         style="stop-color:#e2e2e2;stop-opacity:1;"
         offset="0"
         id="stop3847" />
      <stop
         style="stop-color:#d8d8d8;stop-opacity:1;"
         offset="1"
         id="stop3849" />
    </linearGradient>
    <linearGradient
       inkscape:collect="always"
       xlink:href="#XMLID_897_-7"
       id="linearGradient16968-7"
       gradientUnits="userSpaceOnUse"
       gradientTransform="matrix(-30.80441,-20.622699,-20.666865,30.87038,9567.7857,6073.4573)"
       x1="292.97168"
       y1="4.7592773"
       x2="296.93979"
       y2="10.711433" />
    <linearGradient
       id="linearGradient3852"
       gradientUnits="userSpaceOnUse"
       x1="292.97168"
       y1="4.7592773"
       x2="296.93979"
       y2="10.711433">
      <stop
         offset="0"
         style="stop-color:#EEEEEC"
         id="stop3854" />
      <stop
         offset="1"
         style="stop-color:#ffffff;stop-opacity:1;"
         id="stop3856" />
    </linearGradient>
    <linearGradient
       y2="10.711433"
       x2="296.93979"
       y1="4.7592773"
       x1="292.97168"
       gradientTransform="matrix(-30.80441,-20.622699,-20.666865,30.87038,9564.99,6069.4429)"
       gradientUnits="userSpaceOnUse"
       id="linearGradient3871"
       xlink:href="#XMLID_897_-7"
       inkscape:collect="always" />
  </defs>
  <sodipodi:namedview
     id="base"
     pagecolor="#ffffff"
     bordercolor="#666666"
     borderopacity="0.13333333"
     inkscape:pageopacity="0.0"
     inkscape:pageshadow="2"
     inkscape:zoom="0.99999996"
     inkscape:cx="251.47961"
     inkscape:cy="149.64338"
     inkscape:current-layer="layer1"
     showgrid="true"
     inkscape:document-units="px"
     inkscape:grid-bbox="true"
     gridtolerance="14"
     inkscape:window-width="1011"
     inkscape:window-height="818"
     inkscape:window-x="661"
     inkscape:window-y="84"
     stroke="#a40000"
     inkscape:showpageshadow="false"
     inkscape:snap-global="true"
     inkscape:window-maximized="0">
    <inkscape:grid
       id="GridFromPre046Settings"
       type="xygrid"
       originx="-8px"
       originy="-8px"
       spacingx="16px"
       spacingy="16px"
       color="#0000ff"
       empcolor="#0000ff"
       opacity="0.2"
       empopacity="0.4"
       empspacing="10"
       visible="true"
       enabled="true"
       dotted="true"
       snapvisiblegridlinesonly="true" />
  </sodipodi:namedview>
  <metadata
     id="metadata23888">
    <rdf:RDF>
      <cc:Work
         rdf:about="">
        <dc:format>image/svg+xml</dc:format>
        <dc:type
           rdf:resource="http://purl.org/dc/dcmitype/StillImage" />
        <dc:title>Edit Cut</dc:title>
        <dc:creator>
          <cc:Agent>
            <dc:title>Garrett Le Sage</dc:title>
          </cc:Agent>
        </dc:creator>
        <dc:subject>
          <rdf:Bag>
            <rdf:li>edit</rdf:li>
            <rdf:li>cut</rdf:li>
            <rdf:li>clipboard</rdf:li>
          </rdf:Bag>
        </dc:subject>
        <cc:license
           rdf:resource="http://creativecommons.org/licenses/publicdomain/" />
        <dc:contributor>
          <cc:Agent>
            <dc:title>Jakub Steiner</dc:title>
          </cc:Agent>
        </dc:contributor>
      </cc:Work>
      <cc:License
         rdf:about="http://creativecommons.org/licenses/publicdomain/">
        <cc:permits
           rdf:resource="http://creativecommons.org/ns#Reproduction" />
        <cc:permits
           rdf:resource="http://creativecommons.org/ns#Distribution" />
        <cc:permits
           rdf:resource="http://creativecommons.org/ns#DerivativeWorks" />
      </cc:License>
    </rdf:RDF>
  </metadata>
  <g
     id="layer1"
     inkscape:label="Layer 1"
     inkscape:groupmode="layer">
    <path
       style="fill:none;stroke:#000000;stroke-width:16;stroke-linecap:butt;stroke-linejoin:miter;stroke-opacity:1;stroke-miterlimit:4;stroke-dasharray:none"
       d="m 87.5,392.5 0,96"
       id="path2436"
       sodipodi:nodetypes="cc"
       inkscape:transform-center-x="-13.333326"
       inkscape:transform-center-y="-6.6666618" />
    <path
       style="fill:none;stroke:#000000;stroke-width:16;stroke-linecap:butt;stroke-linejoin:miter;stroke-opacity:1;stroke-miterlimit:4;stroke-dasharray:none"
       d="m 39.5,440.5 96,0"
       id="path2438"
       sodipodi:nodetypes="cc"
       inkscape:transform-center-x="-13.333326"
       inkscape:transform-center-y="-6.6666602" />
    <path
       style="fill:url(#linearGradient3871);stroke:#282828;stroke-width:8.9807291;stroke-linecap:round;stroke-linejoin:round;stroke-miterlimit:4;stroke-opacity:1;stroke-dasharray:none"
       d="m 465.3075,123.6824 c 1.2393,1.57038 2.3912,3.16423 3.57,4.74064 -6.1151,19.65018 5.3229,51.31885 -14.1785,61.90902 -60.4283,28.50089 -121.0755,57.77022 -181.5419,86.78942 -6.2992,-2.62952 -12.313,-5.7909 -18.0268,-9.42398 -12.0397,-7.62568 -23.0205,-17.51359 -31.5609,-29.06257 80.4164,-38.58129 160.9429,-77.2927 241.7381,-114.95253 z"
       id="path16717-4" />
    <path
       style="fill:url(#linearGradient2237-3);fill-opacity:1;stroke:none"
       d="m 453.0473,143.8442 c -3.2609,1.13974 -7.7067,4.25331 -10.8964,5.20133 -63.9379,30.17536 -128.3287,59.92461 -192.238,89.8159 -1.7165,1.58643 -11.1317,3.48799 -4.801,6.97692 7.3066,7.03019 15.2018,13.96635 24.9378,17.31162 59.1141,-27.61712 117.93,-55.95272 176.9911,-83.62912 4.4906,-1.1791 7.6758,-4.86098 6.9231,-9.5444 0.1245,-8.74214 0.4048,-17.82849 0.2499,-26.3645 l -0.8798,0.17518 -0.2867,0.0571 z"
       id="path16719-5" />
    <polygon
       style="fill:url(#linearGradient16769-9);fill-opacity:1;stroke:#9a0c00;stroke-width:0.28144068;stroke-linecap:round;stroke-linejoin:round;stroke-miterlimit:4;stroke-opacity:1;stroke-dasharray:none"
       id="polygon45129-2"
       points="297.04443,12.300293 297.04443,12.300293 296.39941,13.384766 295.13281,14.71875 294.73242,13.672852 295.74658,11.960449 "
       transform="matrix(27.148654,18.175272,-17.338336,25.898511,-7583.1546,-5455.1006)" />
    <path
       style="fill:url(#linearGradient16946-6);fill-opacity:1;stroke:none"
       d="m 235.9401,244.02965 c -11.5537,-2.47471 -19.22781,9.12266 -29.17406,12.50228 -6.13085,3.6315 -13.76914,5.33128 -19.43971,9.66505 -2.64717,3.79786 -3.45285,12.38901 3.16825,11.91533 16.06287,-1.63528 31.82072,-6.13368 46.32162,-13.5901 4.1823,-2.49607 10.4058,-2.69724 13.4961,-6.14251 -1.1674,-6.95055 -8.6267,-11.53602 -14.3722,-14.35005 z"
       id="polygon16896-5" />
    <path
       style="fill:url(#linearGradient16974-4);stroke:#282828;stroke-width:8.9807291;stroke-linecap:round;stroke-linejoin:round;stroke-miterlimit:4;stroke-opacity:1;stroke-dasharray:none"
       d="m 306.9913,17.694093 c -1.8956,-0.52839 -3.7805,-0.96755 -5.6594,-1.43818 -15.7503,13.199731 -48.9823,14.963001 -51.4972,36.925131 -3.84,66.385266 -8.3033,133.268086 -12.6041,199.888626 4.7312,4.75502 9.8444,9.04288 15.2792,12.87349 11.4248,8.08312 24.5319,14.3214 38.2615,17.68152 5.7084,-88.59618 11.4955,-177.3435 16.22,-265.930587 z"
       id="polygon45097-4" />
    <path
       style="fill:url(#linearGradient2235-6);fill-opacity:1;stroke:none"
       d="m 292.0823,36.082564 c -8.4875,6.49444 -20.5907,7.35421 -28.5661,14.98691 -4.27,66.245746 -8.0422,132.618276 -12.2962,198.799046 7.6526,7.91477 17.6574,12.82794 27.7461,16.88663 2.2906,-6.46887 1.1405,-13.62052 2.4534,-20.29191 3.7626,-68.49196 7.2316,-137.10233 11.3754,-205.513066 0.648,-1.20467 0.8016,-4.69564 -0.7126,-4.86761 z"
       id="path16635-7" />
    <path
       sodipodi:type="arc"
       style="fill:url(#linearGradient16739-6);fill-opacity:1;fill-rule:nonzero;stroke:none;stroke-width:1.25;marker:none;visibility:visible;display:inline;overflow:visible"
       id="path16731-4"
       sodipodi:cx="23.207924"
       sodipodi:cy="23.843431"
       sodipodi:rx="0.98252523"
       sodipodi:ry="0.98252523"
       d="m 24.190449,23.843431 a 0.98252523,0.98252523 0 1 1 -1.96505,0 0.98252523,0.98252523 0 1 1 1.96505,0 z"
       transform="matrix(7.3126888,4.8956417,-4.9960982,7.4627409,219.8464,-56.328246)" />
    <path
       id="path45138-4"
       style="fill:url(#linearGradient17037-0);fill-opacity:1;stroke:#a40000;stroke-width:8.9807291;stroke-opacity:1"
       d="m 199.16905,255.27368 c 15.51556,29.04796 -6.95026,66.81602 -50.21611,84.33844 -43.27824,17.54146 -90.94012,8.23401 -106.50449,-20.76455 -15.52663,-29.05542 6.93764,-66.79715 50.20349,-84.31958 43.25449,-17.52998 90.92746,-8.2151 106.51711,20.74569 z m -27.54432,11.19552 c -6.90525,-12.87578 -36.33849,-18.48594 -65.41338,-6.67921 -29.10492,11.78659 -43.14832,35.02366 -36.24166,47.87551 6.87198,12.90325 36.34836,18.49258 65.42324,6.68585 29.11502,-11.77983 43.13682,-35.00649 36.2318,-47.88215 z" />
    <path
       style="fill:url(#linearGradient17034-1);fill-opacity:1;stroke:none"
       d="m 172.5025,240.62398 c -16.30134,-6.7284 -34.38743,-7.30715 -50.0603,-6.69797 -9.08201,1.42999 -16.52433,4.60742 -25.55822,7.25181 -24.49996,9.0179 -45.28737,28.51116 -48.32318,54.86186 -2.63704,13.939 9.49207,28.4824 24.20975,34.35498 12.0766,5.39966 25.81078,4.73135 37.43854,5.62245 10.82326,-1.30048 19.72339,-4.37423 30.35602,-7.68269 25.86514,-9.42608 49.55627,-28.95223 52.21468,-57.04012 0.30536,-12.13913 -7.94941,-24.20034 -20.27729,-30.67032 z m -1.28116,9.53352 c 13.79786,11.94297 14.8961,31.94213 4.70797,43.37587 -11.27075,17.17061 -30.7556,27.43948 -51.46846,32.91849 -17.58065,3.38213 -38.62054,3.63038 -55.44143,-8.62449 -10.12645,-6.81037 -13.59575,-18.96163 -11.2191,-28.69853 8.04792,-21.97586 27.75873,-38.32021 51.33457,-44.93825 17.7468,-4.58219 38.26655,-5.58391 56.99845,3.12431 1.68594,0.96361 3.42785,1.83559 5.088,2.8426 z"
       id="path16771-3" />
    <path
       d="m 293.4337,318.38125 c -32.7686,-3.2769 -59.1273,31.88496 -58.8422,78.56352 0.2722,46.69728 27.0382,87.21721 59.7796,90.55808 32.7797,3.28431 59.1147,-31.86608 58.8296,-78.54463 -0.2737,-46.67095 -27.0508,-87.19831 -59.767,-90.57697 z m 0.1443,29.73231 c 14.5356,1.47824 30.9375,26.55347 31.0999,57.93374 0.1924,31.40037 -15.9407,53.23842 -30.4547,51.74974 -14.5483,-1.43702 -30.9474,-26.56008 -31.1098,-57.94035 -0.2025,-31.40712 15.9292,-53.22123 30.4646,-51.74313 z"
       style="fill:url(#radialGradient2241-6);fill-opacity:1;stroke:#a40000;stroke-width:8.9807291;stroke-opacity:1"
       id="path11967-0" />
    <polygon
       style="fill:url(#linearGradient2257-9);fill-opacity:1;stroke:url(#linearGradient2265-4);stroke-width:0.27590489;stroke-linecap:round;stroke-linejoin:round;stroke-miterlimit:4;stroke-opacity:1;stroke-dasharray:none"
       id="polygon45101-7"
       points="296.95605,12.300293 296.95605,12.300293 297.6001,13.384766 298.86719,14.71875 299.26807,13.672852 298.25391,11.960449 "
       transform="matrix(27.048242,18.108048,-18.108048,27.048242,-7557.0399,-5446.6955)" />
    <path
       style="fill:url(#linearGradient16894-1);fill-opacity:1;stroke:none"
       d="m 274.0109,279.98675 c -4.178,-0.64833 -8.5948,-3.57651 -12.5261,-2.98214 0.088,15.2046 -0.458,31.19353 0.229,45.68065 1.2194,8.97112 2.6228,17.96958 5.0014,26.7187 12.4389,-6.71034 16.3028,-22.16973 14.8577,-35.30957 0,-9.72449 4.3638,-19.91436 -0.8008,-28.56805 -1.6775,-2.40272 -3.9667,-4.57798 -6.7612,-5.53959 z"
       id="polygon16860-8" />
    <path
       style="fill:url(#linearGradient17028-9);fill-opacity:1;stroke:none"
       d="m 307.1634,329.32542 c -12.4941,-5.88143 -27.0283,-6.36148 -36.1131,1.63114 -20.4094,12.22532 -27.1512,37.0873 -26.5555,60.32604 1.5027,15.54422 -0.1598,31.55796 8.3062,46.34787 6.3606,14.2403 15.4886,30.80154 32.4385,35.77602 13.4591,4.32596 26.088,-0.6975 34.8491,-8.78776 16.0519,-14.21936 21.1549,-36.37282 20.4179,-58.05453 -0.3505,-10.10955 -0.539,-20.7136 -2.3084,-30.66779 -4.401,-12.71039 -11.4349,-25.50421 -19.3609,-37.08771 -3.4342,-3.49238 -7.1599,-7.30867 -11.6738,-9.48328 z m -2.7918,11.20379 c 13.4479,8.28133 20.444,21.67833 23.8218,35.06611 2.8619,12.38981 6.0681,23.57217 4.887,35.68201 -1.057,18.96815 -9.527,36.63529 -23.525,48.70152 -10.5605,7.24467 -26.4657,3.59472 -36.368,-6.87769 -13.647,-11.60935 -15.6616,-28.54449 -19.7498,-43.57322 -4.0856,-18.20496 -0.8341,-38.15368 8.6547,-53.45666 5.1897,-7.52409 10.6861,-16.38924 20.3661,-19.15077 5.7903,-1.99362 15.5661,-0.97351 21.9132,3.6087 z"
       id="path16795-6" />
  </g>
</svg>
