<svg width="512" xmlns="http://www.w3.org/2000/svg" height="512" xmlns:xlink="http://www.w3.org/1999/xlink">
<defs>
<linearGradient gradientTransform="matrix(-30.80441 -20.6227 -20.66687 30.87038 9564.99 6069.4429)" id="linearGradient3871" xlink:href="#XMLID_897_-7" y1="4.759" y2="10.711" x1="292.972" x2="296.94" gradientUnits="userSpaceOnUse"/>
<linearGradient gradientTransform="matrix(7.46274 4.9961 -4.9961 7.46274 218.3921 -59.1828)" xlink:href="#linearGradient2229-1" id="linearGradient2235-6" y1="6.46" x1="20.288" y2="23.943" x2="24.326" gradientUnits="userSpaceOnUse"/>
<linearGradient xlink:href="#XMLID_45_-3" id="linearGradient16739-6" y1="23.843" x1="22.225" y2="22.861" x2="24.19" gradientUnits="userSpaceOnUse"/>
<linearGradient id="XMLID_45_-3" y1="21.425" x1="68.175" y2="27.837" gradientUnits="userSpaceOnUse" x2="74.587">
<stop offset="0" stop-color="#babdb6"/>
<stop offset="1" stop-color="#eeeeec"/>
</linearGradient>
<linearGradient id="linearGradient2229-1">
<stop offset="0" stop-color="#e2e2e2"/>
<stop offset="1" stop-color="#d8d8d8"/>
</linearGradient>
<linearGradient gradientTransform="matrix(30.24967 20.25132 -20.66687 30.87038 -8494.8425 -6021.1151)" xlink:href="#XMLID_897_-7" id="linearGradient16974-4" y1="4.759" x1="292.972" y2="10.711" gradientUnits="userSpaceOnUse" x2="296.94"/>
<linearGradient xlink:href="#XMLID_52_-2" id="linearGradient16769-9" y1="12.188" x1="294.595" y2="13.34" x2="297.185" gradientUnits="userSpaceOnUse"/>
<linearGradient id="XMLID_897_-7" y1="4.759" x1="292.972" y2="10.711" gradientUnits="userSpaceOnUse" x2="296.94">
<stop offset="0" stop-color="#eeeeec"/>
<stop offset="1" stop-color="#fff"/>
</linearGradient>
<linearGradient gradientTransform="matrix(27.14865 18.17527 -17.33834 25.89851 -7583.1546 -5455.1006)" xlink:href="#XMLID_52_-2" id="linearGradient16946-6" y1="15.507" x1="296.486" y2="9.877" gradientUnits="userSpaceOnUse" x2="296.529"/>
<linearGradient gradientTransform="matrix(8.67079 5.80486 -4.95861 7.40675 198.92407 -69.3439)" xlink:href="#XMLID_52_-2" id="linearGradient17037-0" y1="31.057" x1="7.185" y2="50.775" gradientUnits="userSpaceOnUse" x2="25.152"/>
<linearGradient gradientTransform="matrix(8.6708 5.80486 -4.95861 7.40675 179.92198 -84.24575)" xlink:href="#radialGradient16850-7" id="linearGradient17028-9" y1="44.541" x1="39.62" y2="-11.889" gradientUnits="userSpaceOnUse" x2="-3.533"/>
<linearGradient xlink:href="#linearGradient2251-4" id="linearGradient2257-9" y1="13.6" x1="298.479" y2="13.803" x2="298.869" gradientUnits="userSpaceOnUse"/>
<linearGradient gradientTransform="matrix(27.04824 18.10805 -18.10805 27.04824 -7557.0399 -5446.6955)" xlink:href="#XMLID_52_-2" id="linearGradient16894-1" y1="12.012" x1="296.762" y2="10.947" gradientUnits="userSpaceOnUse" x2="297.798"/>
<linearGradient id="linearGradient2251-4">
<stop offset="0" stop-color="#df2a2a"/>
<stop offset="1" stop-color="#df2a2a" stop-opacity="0"/>
</linearGradient>
<linearGradient id="linearGradient2259-5">
<stop offset="0" stop-color="#9a0c00"/>
<stop offset="1" stop-color="#9a0c00" stop-opacity="0"/>
</linearGradient>
<linearGradient gradientTransform="matrix(8.6708 5.80486 -4.95861 7.40675 198.16946 -72.02957)" xlink:href="#XMLID_52_-2" id="linearGradient17034-1" y1="40.069" x1="13.825" y2="2.326" gradientUnits="userSpaceOnUse" x2="7.67"/>
<linearGradient xlink:href="#linearGradient2259-5" id="linearGradient2265-4" y1="13.6" x1="298.479" y2="13.803" x2="298.869" gradientUnits="userSpaceOnUse"/>
<radialGradient cx="165.061" cy="23.333" gradientTransform="matrix(1 0 0 1.0103 0 -.1598)" id="XMLID_52_-2" r="7.285" gradientUnits="userSpaceOnUse">
<stop offset="0" stop-color="#ef3535"/>
<stop offset="0" stop-color="#c91a1a"/>
<stop offset="1" stop-color="#ff4c4c"/>
</radialGradient>
<radialGradient cx="34.376" cy="37.5" gradientTransform="matrix(7.46274 4.9961 -5.29777 7.91335 229.8807 -76.34347)" xlink:href="#XMLID_52_-2" id="radialGradient2241-6" r="8.389" gradientUnits="userSpaceOnUse"/>
<radialGradient cx="165.061" cy="23.333" gradientTransform="matrix(1 0 0 1.0103 0 -.1598)" r="7.285" id="radialGradient16850-7" gradientUnits="userSpaceOnUse">
<stop offset="0" stop-color="#ef3535"/>
<stop offset="1" stop-color="#a40000" stop-opacity="0"/>
</radialGradient>
</defs>
<g fill="none" stroke="#fff" stroke-width="16">
<path d="m87.5,392.5 0,96"/>
<path d="m39.5,440.5 96,0"/>
</g>
<path fill="url(#linearGradient3871)" stroke="#282828" stroke-linejoin="round" stroke-linecap="round" stroke-width="8.981" d="m465.3075,123.6824c1.2393,1.5704 2.3912,3.1642 3.57,4.7406-6.1151,19.6502 5.3229,51.3188-14.1785,61.909-60.4283,28.5009-121.0755,57.7702-181.5419,86.7894-6.2992-2.6295-12.313-5.7909-18.0268-9.424-12.0397-7.6257-23.0205-17.5136-31.5609-29.0626 80.4164-38.5813 160.9429-77.2927 241.7381-114.9525z"/>
<path fill="url(#linearGradient2235-6)" d="m453.0473,143.8442c-3.2609,1.1397-7.7067,4.2533-10.8964,5.2013-63.9379,30.1754-128.3287,59.9246-192.238,89.8159-1.7165,1.5864-11.1317,3.488-4.801,6.9769 7.3066,7.0302 15.2018,13.9664 24.9378,17.3116 59.1141-27.6171 117.93-55.9527 176.9911-83.6291 4.4906-1.1791 7.6758-4.861 6.9231-9.5444 .1245-8.7421 .4048-17.8285 .2499-26.3645l-.8798,.1752-.2867,.0571z"/>
<path fill="url(#linearGradient16769-9)" stroke="#9a0c00" stroke-linejoin="round" stroke-linecap="round" stroke-width=".281" d="m297.0444,12.3003-.645,1.0845-1.2666,1.334-.4004-1.0459 1.0142-1.7125z" transform="matrix(27.14865 18.17527 -17.33834 25.89851 -7583.1546 -5455.1006)"/>
<path fill="url(#linearGradient16946-6)" d="m235.9401,244.0297c-11.5537-2.4747-19.2278,9.1227-29.1741,12.5023-6.1309,3.6315-13.7691,5.3313-19.4397,9.6651-2.6472,3.7979-3.4529,12.389 3.1683,11.9153 16.0629-1.6353 31.8207-6.1337 46.3216-13.5901 4.1823-2.4961 10.4058-2.6972 13.4961-6.1425-1.1674-6.9505-8.6267-11.536-14.3722-14.3501z"/>
<path fill="url(#linearGradient16974-4)" stroke="#282828" stroke-linejoin="round" stroke-linecap="round" stroke-width="8.981" d="m306.9913,17.6941c-1.8956-.5284-3.7805-.9675-5.6594-1.4382-15.7503,13.1997-48.9823,14.963-51.4972,36.9251-3.84,66.3853-8.3033,133.2681-12.6041,199.8886 4.7312,4.755 9.8444,9.0429 15.2792,12.8735 11.4248,8.0831 24.5319,14.3214 38.2615,17.6815 5.7084-88.5962 11.4955-177.3435 16.22-265.9306z"/>
<path fill="url(#linearGradient2235-6)" d="m292.0823,36.0826c-8.4875,6.4944-20.5907,7.3542-28.5661,14.9869-4.27,66.2457-8.0422,132.6183-12.2962,198.799 7.6526,7.9148 17.6574,12.8279 27.7461,16.8866 2.2906-6.4689 1.1405-13.6205 2.4534-20.2919 3.7626-68.492 7.2316-137.1023 11.3754-205.5131 .648-1.2047 .8016-4.6956-.7126-4.8676z"/>
<path fill="url(#linearGradient16739-6)" d="m24.1904,23.8434a.9825,.9825 0 1,1 -1.9651,0 .9825,.9825 0 1,1 1.9651,0z" transform="matrix(7.31269 4.89564 -4.9961 7.46274 219.8464 -56.32825)"/>
<path fill="url(#linearGradient17037-0)" stroke="#a40000" stroke-width="8.981" d="m199.169,255.2737c15.5156,29.048-6.9503,66.816-50.2161,84.3384-43.2782,17.5415-90.9401,8.234-106.5045-20.7645-15.5266-29.0554 6.9376-66.7971 50.2035-84.3196 43.2545-17.53 90.9275-8.2151 106.5171,20.7457zm-27.5443,11.1955c-6.9052-12.8758-36.3385-18.4859-65.4134-6.6792-29.1049,11.7866-43.1483,35.0237-36.2417,47.8755 6.872,12.9033 36.3484,18.4926 65.4232,6.6859 29.115-11.7798 43.1368-35.0065 36.2318-47.8822z"/>
<path fill="url(#linearGradient17034-1)" d="m172.5025,240.624c-16.3013-6.7284-34.3874-7.3072-50.0603-6.698-9.082,1.43-16.5243,4.6074-25.5582,7.2518-24.5,9.0179-45.2874,28.5112-48.3232,54.8619-2.637,13.939 9.4921,28.4824 24.2098,34.355 12.0766,5.3997 25.8108,4.7314 37.4385,5.6225 10.8233-1.3005 19.7234-4.3742 30.356-7.6827 25.8651-9.4261 49.5563-28.9522 52.2147-57.0401 .3054-12.1391-7.9494-24.2003-20.2773-30.6703zm-1.2812,9.5335c13.7979,11.943 14.8961,31.9421 4.708,43.3759-11.2707,17.1706-30.7556,27.4395-51.4685,32.9185-17.5806,3.3821-38.6205,3.6304-55.4414-8.6245-10.1264-6.8104-13.5958-18.9616-11.2191-28.6985 8.0479-21.9759 27.7587-38.3202 51.3346-44.9382 17.7468-4.5822 38.2666-5.5839 56.9985,3.1243 1.6859,.9636 3.4279,1.8356 5.088,2.8426z"/>
<path fill="url(#radialGradient2241-6)" stroke="#a40000" stroke-width="8.981" d="m293.4337,318.3813c-32.7686-3.2769-59.1273,31.885-58.8422,78.5635 .2722,46.6973 27.0382,87.2172 59.7796,90.5581 32.7797,3.2843 59.1147-31.8661 58.8296-78.5446-.2737-46.671-27.0508-87.1983-59.767-90.577zm.1443,29.7323c14.5356,1.4782 30.9375,26.5535 31.0999,57.9337 .1924,31.4004-15.9407,53.2384-30.4547,51.7497-14.5483-1.437-30.9474-26.5601-31.1098-57.9404-.2025-31.4071 15.9292-53.2212 30.4646-51.7431z"/>
<path fill="url(#linearGradient2257-9)" stroke="url(#linearGradient2265-4)" stroke-linejoin="round" stroke-linecap="round" stroke-width=".276" d="m296.9561,12.3003 .644,1.0845 1.2671,1.334 .4009-1.0459-1.0142-1.7125z" transform="matrix(27.04824 18.10805 -18.10805 27.04824 -7557.0399 -5446.6955)"/>
<path fill="url(#linearGradient16894-1)" d="m274.0109,279.9867c-4.178-.6483-8.5948-3.5765-12.5261-2.9821 .088,15.2046-.458,31.1935 .229,45.6807 1.2194,8.9711 2.6228,17.9696 5.0014,26.7187 12.4389-6.7103 16.3028-22.1697 14.8577-35.3096 0-9.7245 4.3638-19.9144-.8008-28.568-1.6775-2.4027-3.9667-4.578-6.7612-5.5396z"/>
<path fill="url(#linearGradient17028-9)" d="m307.1634,329.3254c-12.4941-5.8814-27.0283-6.3615-36.1131,1.6311-20.4094,12.2253-27.1512,37.0873-26.5555,60.326 1.5027,15.5442-.1598,31.558 8.3062,46.3479 6.3606,14.2403 15.4886,30.8015 32.4385,35.776 13.4591,4.326 26.088-.6975 34.8491-8.7878 16.0519-14.2194 21.1549-36.3728 20.4179-58.0545-.3505-10.1096-.539-20.7136-2.3084-30.6678-4.401-12.7104-11.4349-25.5042-19.3609-37.0877-3.4342-3.4924-7.1599-7.3087-11.6738-9.4833zm-2.7918,11.2038c13.4479,8.2813 20.444,21.6783 23.8218,35.0661 2.8619,12.3898 6.0681,23.5722 4.887,35.682-1.057,18.9681-9.527,36.6353-23.525,48.7015-10.5605,7.2447-26.4657,3.5947-36.368-6.8777-13.647-11.6094-15.6616-28.5445-19.7498-43.5732-4.0856-18.205-.8341-38.1537 8.6547-53.4567 5.1897-7.5241 10.6861-16.3892 20.3661-19.1508 5.7903-1.9936 15.5661-.9735 21.9132,3.6087z"/>
</svg>
