999
dxflib 2.2.0.0
  0
SECTION
  2
HEADER
  9
$ACADVER
  1
AC1015
  9
$HANDSEED
  5
FFFF
  9
$DIMASZ
 40
2.5
  9
$PLIMMIN
 10
0.0
 20
0.0
  9
$DIMEXE
 40
1.25
  9
$DIMGAP
 40
0.625
  9
$PLIMMAX
 10
210.0
 20
297.0
  9
$INSUNITS
 70
4
  9
$DIMEXO
 40
0.625
  9
$DIMTXT
 40
2.5
  9
$CLAYER
  8
0
  0
ENDSEC
  0
SECTION
  2
TABLES
  0
TABLE
  2
VPORT
  5
8
100
AcDbSymbolTable
 70
1
  0
VPORT
  5
30
100
AcDbSymbolTableRecord
100
AcDbViewportTableRecord
  2
*Active
 70
0
 10
0.0
 20
0.0
 11
1.0
 21
1.0
 12
286.30555555555549
 22
148.5
 13
0.0
 23
0.0
 14
10.0
 24
10.0
 15
10.0
 25
10.0
 16
0.0
 26
0.0
 36
1.0
 17
0.0
 27
0.0
 37
0.0
 40
297.0
 41
1.92798353909465
 42
50.0
 43
0.0
 44
0.0
 50
0.0
 51
0.0
 71
0
 72
100
 73
1
 74
3
 75
1
 76
1
 77
0
 78
0
281
0
 65
1
110
0.0
120
0.0
130
0.0
111
1.0
121
0.0
131
0.0
112
0.0
122
1.0
132
0.0
 79
0
146
0.0
  0
ENDTAB
  0
TABLE
  2
LTYPE
  5
5
100
AcDbSymbolTable
 70
21
  0
LTYPE
  5
14
100
AcDbSymbolTableRecord
100
AcDbLinetypeTableRecord
  2
ByBlock
 70
0
  3

 72
65
 73
0
 40
0.0
  0
LTYPE
  5
15
100
AcDbSymbolTableRecord
100
AcDbLinetypeTableRecord
  2
ByLayer
 70
0
  3

 72
65
 73
0
 40
0.0
  0
LTYPE
  5
16
100
AcDbSymbolTableRecord
100
AcDbLinetypeTableRecord
  2
CONTINUOUS
 70
0
  3
Solid line
 72
65
 73
0
 40
0.0
  0
LTYPE
  5
31
100
AcDbSymbolTableRecord
100
AcDbLinetypeTableRecord
  2
DOT
 70
0
  3
Dot . . . . . . . . . . . . . . . . . . . . . .
 72
65
 73
2
 40
6.3499999999999996
 49
0.0
 74
0
 49
-6.3499999999999996
 74
0
  0
LTYPE
  5
32
100
AcDbSymbolTableRecord
100
AcDbLinetypeTableRecord
  2
DOT2
 70
0
  3
Dot (.5x) .....................................
 72
65
 73
2
 40
3.1749999999999998
 49
0.0
 74
0
 49
-3.1749999999999998
 74
0
  0
LTYPE
  5
33
100
AcDbSymbolTableRecord
100
AcDbLinetypeTableRecord
  2
DOTX2
 70
0
  3
Dot (2x) .  .  .  .  .  .  .  .  .  .  .  .  .
 72
65
 73
2
 40
12.699999999999999
 49
0.0
 74
0
 49
-12.699999999999999
 74
0
  0
LTYPE
  5
34
100
AcDbSymbolTableRecord
100
AcDbLinetypeTableRecord
  2
DASHED
 70
0
  3
Dashed __ __ __ __ __ __ __ __ __ __ __ __ __ _
 72
65
 73
2
 40
19.050000000000001
 49
12.699999999999999
 74
0
 49
-6.3499999999999996
 74
0
  0
LTYPE
  5
35
100
AcDbSymbolTableRecord
100
AcDbLinetypeTableRecord
  2
DASHED2
 70
0
  3
Dashed (.5x) _ _ _ _ _ _ _ _ _ _ _ _ _ _ _ _ _
 72
65
 73
2
 40
9.5250000000000004
 49
6.3499999999999996
 74
0
 49
-3.1749999999999998
 74
0
  0
LTYPE
  5
36
100
AcDbSymbolTableRecord
100
AcDbLinetypeTableRecord
  2
DASHEDX2
 70
0
  3
Dashed (2x) ____  ____  ____  ____  ____  ___
 72
65
 73
2
 40
38.100000000000001
 49
25.399999999999999
 74
0
 49
-12.699999999999999
 74
0
  0
LTYPE
  5
37
100
AcDbSymbolTableRecord
100
AcDbLinetypeTableRecord
  2
DASHDOT
 70
0
  3
Dash dot __ . __ . __ . __ . __ . __ . __ . __
 72
65
 73
4
 40
25.399999999999999
 49
12.699999999999999
 74
0
 49
-6.3499999999999996
 74
0
 49
0.0
 74
0
 49
-6.3499999999999996
 74
0
  0
LTYPE
  5
38
100
AcDbSymbolTableRecord
100
AcDbLinetypeTableRecord
  2
DASHDOT2
 70
0
  3
Dash dot (.5x) _._._._._._._._._._._._._._._.
 72
65
 73
4
 40
12.699999999999999
 49
6.3499999999999996
 74
0
 49
-3.1749999999999998
 74
0
 49
0.0
 74
0
 49
-3.1749999999999998
 74
0
  0
LTYPE
  5
39
100
AcDbSymbolTableRecord
100
AcDbLinetypeTableRecord
  2
DASHDOTX2
 70
0
  3
Dash dot (2x) ____  .  ____  .  ____  .  ___
 72
65
 73
4
 40
50.799999999999997
 49
25.399999999999999
 74
0
 49
-12.699999999999999
 74
0
 49
0.0
 74
0
 49
-12.699999999999999
 74
0
  0
LTYPE
  5
3A
100
AcDbSymbolTableRecord
100
AcDbLinetypeTableRecord
  2
DIVIDE
 70
0
  3
Divide ____ . . ____ . . ____ . . ____ . . ____
 72
65
 73
6
 40
31.75
 49
12.699999999999999
 74
0
 49
-6.3499999999999996
 74
0
 49
0.0
 74
0
 49
-6.3499999999999996
 74
0
 49
0.0
 74
0
 49
-6.3499999999999996
 74
0
  0
LTYPE
  5
3B
100
AcDbSymbolTableRecord
100
AcDbLinetypeTableRecord
  2
DIVIDE2
 70
0
  3
Divide (.5x) __..__..__..__..__..__..__..__.._
 72
65
 73
6
 40
15.875
 49
6.3499999999999996
 74
0
 49
-3.1749999999999998
 74
0
 49
0.0
 74
0
 49
-3.1749999999999998
 74
0
 49
0.0
 74
0
 49
-3.1749999999999998
 74
0
  0
LTYPE
  5
3C
100
AcDbSymbolTableRecord
100
AcDbLinetypeTableRecord
  2
DIVIDEX2
 70
0
  3
Divide (2x) ________  .  .  ________  .  .  _
 72
65
 73
6
 40
63.5
 49
25.399999999999999
 74
0
 49
-12.699999999999999
 74
0
 49
0.0
 74
0
 49
-12.699999999999999
 74
0
 49
0.0
 74
0
 49
-12.699999999999999
 74
0
  0
LTYPE
  5
3D
100
AcDbSymbolTableRecord
100
AcDbLinetypeTableRecord
  2
CENTER
 70
0
  3
Center ____ _ ____ _ ____ _ ____ _ ____ _ ____
 72
65
 73
4
 40
50.799999999999997
 49
31.75
 74
0
 49
-6.3499999999999996
 74
0
 49
6.3499999999999996
 74
0
 49
-6.3499999999999996
 74
0
  0
LTYPE
  5
3E
100
AcDbSymbolTableRecord
100
AcDbLinetypeTableRecord
  2
CENTER2
 70
0
  3
Center (.5x) ___ _ ___ _ ___ _ ___ _ ___ _ ___
 72
65
 73
4
 40
28.574999999999999
 49
19.050000000000001
 74
0
 49
-3.1749999999999998
 74
0
 49
3.1749999999999998
 74
0
 49
-3.1749999999999998
 74
0
  0
LTYPE
  5
3F
100
AcDbSymbolTableRecord
100
AcDbLinetypeTableRecord
  2
CENTERX2
 70
0
  3
Center (2x) ________  __  ________  __  _____
 72
65
 73
4
 40
101.59999999999999
 49
63.5
 74
0
 49
-12.699999999999999
 74
0
 49
12.699999999999999
 74
0
 49
-12.699999999999999
 74
0
  0
LTYPE
  5
40
100
AcDbSymbolTableRecord
100
AcDbLinetypeTableRecord
  2
BORDER
 70
0
  3
Border __ __ . __ __ . __ __ . __ __ . __ __ .
 72
65
 73
6
 40
44.450000000000003
 49
12.699999999999999
 74
0
 49
-6.3499999999999996
 74
0
 49
12.699999999999999
 74
0
 49
-6.3499999999999996
 74
0
 49
0.0
 74
0
 49
-6.3499999999999996
 74
0
  0
LTYPE
  5
41
100
AcDbSymbolTableRecord
100
AcDbLinetypeTableRecord
  2
BORDER2
 70
0
  3
Border (.5x) __.__.__.__.__.__.__.__.__.__.__.
 72
65
 73
6
 40
22.225000000000001
 49
6.3499999999999996
 74
0
 49
-3.1749999999999998
 74
0
 49
6.3499999999999996
 74
0
 49
-3.1749999999999998
 74
0
 49
0.0
 74
0
 49
-3.1749999999999998
 74
0
  0
LTYPE
  5
42
100
AcDbSymbolTableRecord
100
AcDbLinetypeTableRecord
  2
BORDERX2
 70
0
  3
Border (2x) ____  ____  .  ____  ____  .  ___
 72
65
 73
6
 40
88.900000000000006
 49
25.399999999999999
 74
0
 49
-12.699999999999999
 74
0
 49
25.399999999999999
 74
0
 49
-12.699999999999999
 74
0
 49
0.0
 74
0
 49
-12.699999999999999
 74
0
  0
ENDTAB
  0
TABLE
  2
LAYER
  5
2
100
AcDbSymbolTable
 70
1
  0
LAYER
  5
10
100
AcDbSymbolTableRecord
100
AcDbLayerTableRecord
  2
0
 70
0
 62
7
420
0
  6
CONTINUOUS
370
25
390
F
  0
ENDTAB
  0
TABLE
  2
STYLE
  5
3
100
AcDbSymbolTable
 70
1
  0
STYLE
  5
11
100
AcDbSymbolTableRecord
100
AcDbTextStyleTableRecord
  2
Standard
 70
0
 40
0.0
 41
0.75
 50
0.0
 71
0
 42
2.5
  3
txt
  4

  0
ENDTAB
  0
TABLE
  2
VIEW
  5
6
100
AcDbSymbolTable
 70
0
  0
ENDTAB
  0
TABLE
  2
UCS
  5
7
100
AcDbSymbolTable
 70
0
  0
ENDTAB
  0
TABLE
  2
APPID
  5
9
100
AcDbSymbolTable
 70
1
  0
APPID
  5
12
100
AcDbSymbolTableRecord
100
AcDbRegAppTableRecord
  2
ACAD
 70
0
  0
ENDTAB
  0
TABLE
  2
DIMSTYLE
  5
A
100
AcDbSymbolTable
 70
1
100
AcDbDimStyleTable
 71
0
  0
DIMSTYLE
105
27
100
AcDbSymbolTableRecord
100
AcDbDimStyleTableRecord
  2
Standard
 41
2.5
 42
0.625
 43
3.75
 44
1.25
 70
0
 73
0
 74
0
 77
1
 78
8
140
2.5
141
2.5
143
0.03937007874016
147
0.625
171
3
172
1
271
2
272
2
274
3
278
44
283
0
284
8
340
11
  0
ENDTAB
  0
TABLE
  2
BLOCK_RECORD
  5
1
100
AcDbSymbolTable
 70
1
  0
BLOCK_RECORD
  5
1F
100
AcDbSymbolTableRecord
100
AcDbBlockTableRecord
  2
*Model_Space
340
22
  0
BLOCK_RECORD
  5
1B
100
AcDbSymbolTableRecord
100
AcDbBlockTableRecord
  2
*Paper_Space
340
1E
  0
BLOCK_RECORD
  5
23
100
AcDbSymbolTableRecord
100
AcDbBlockTableRecord
  2
*Paper_Space0
340
26
  0
BLOCK_RECORD
  5
43
100
AcDbSymbolTableRecord
100
AcDbBlockTableRecord
  2
Int door LH 800
340
0
  0
BLOCK_RECORD
  5
44
100
AcDbSymbolTableRecord
100
AcDbBlockTableRecord
  2
Int door RH 800
340
0
  0
BLOCK_RECORD
  5
45
100
AcDbSymbolTableRecord
100
AcDbBlockTableRecord
  2
Int door double 1500
340
0
  0
BLOCK_RECORD
  5
46
100
AcDbSymbolTableRecord
100
AcDbBlockTableRecord
  2
Ext door RH 900
340
0
  0
BLOCK_RECORD
  5
47
100
AcDbSymbolTableRecord
100
AcDbBlockTableRecord
  2
Ext door LH 900
340
0
  0
BLOCK_RECORD
  5
48
100
AcDbSymbolTableRecord
100
AcDbBlockTableRecord
  2
Ext door LH 900-1
340
0
  0
BLOCK_RECORD
  5
49
100
AcDbSymbolTableRecord
100
AcDbBlockTableRecord
  2
Ext door LH 900-2
340
0
  0
BLOCK_RECORD
  5
4A
100
AcDbSymbolTableRecord
100
AcDbBlockTableRecord
  2
Ext door LH 900-3
340
0
  0
BLOCK_RECORD
  5
4B
100
AcDbSymbolTableRecord
100
AcDbBlockTableRecord
  2
Ext door LH 900-0
340
0
  0
BLOCK_RECORD
  5
4C
100
AcDbSymbolTableRecord
100
AcDbBlockTableRecord
  2
Ext door RH 900-0
340
0
  0
BLOCK_RECORD
  5
4D
100
AcDbSymbolTableRecord
100
AcDbBlockTableRecord
  2
Ext door RH 900-1
340
0
  0
BLOCK_RECORD
  5
4E
100
AcDbSymbolTableRecord
100
AcDbBlockTableRecord
  2
Ext door RH 900-2
340
0
  0
BLOCK_RECORD
  5
4F
100
AcDbSymbolTableRecord
100
AcDbBlockTableRecord
  2
Ext door LH 900-4
340
0
  0
BLOCK_RECORD
  5
50
100
AcDbSymbolTableRecord
100
AcDbBlockTableRecord
  2
Ext door Double 1575
340
0
  0
BLOCK_RECORD
  5
51
100
AcDbSymbolTableRecord
100
AcDbBlockTableRecord
  2
Ext door double 1575-0
340
0
  0
BLOCK_RECORD
  5
52
100
AcDbSymbolTableRecord
100
AcDbBlockTableRecord
  2
Ext door double 1575-1
340
0
  0
BLOCK_RECORD
  5
53
100
AcDbSymbolTableRecord
100
AcDbBlockTableRecord
  2
Int door LH 800-0
340
0
  0
BLOCK_RECORD
  5
54
100
AcDbSymbolTableRecord
100
AcDbBlockTableRecord
  2
Int door LH 800-1
340
0
  0
BLOCK_RECORD
  5
55
100
AcDbSymbolTableRecord
100
AcDbBlockTableRecord
  2
Int door LH 800-2
340
0
  0
BLOCK_RECORD
  5
56
100
AcDbSymbolTableRecord
100
AcDbBlockTableRecord
  2
Int door LH 800-3
340
0
  0
BLOCK_RECORD
  5
57
100
AcDbSymbolTableRecord
100
AcDbBlockTableRecord
  2
Int door RH 800-0
340
0
  0
BLOCK_RECORD
  5
58
100
AcDbSymbolTableRecord
100
AcDbBlockTableRecord
  2
Int door RH 800-1
340
0
  0
BLOCK_RECORD
  5
59
100
AcDbSymbolTableRecord
100
AcDbBlockTableRecord
  2
Int door double 1500-0
340
0
  0
BLOCK_RECORD
  5
5A
100
AcDbSymbolTableRecord
100
AcDbBlockTableRecord
  2
Int door double 1500-1
340
0
  0
BLOCK_RECORD
  5
5B
100
AcDbSymbolTableRecord
100
AcDbBlockTableRecord
  2
Int door double 1500-2
340
0
  0
BLOCK_RECORD
  5
5C
100
AcDbSymbolTableRecord
100
AcDbBlockTableRecord
  2
Int door double 1500-3
340
0
  0
BLOCK_RECORD
  5
5D
100
AcDbSymbolTableRecord
100
AcDbBlockTableRecord
  2
Int door RH 800-2
340
0
  0
BLOCK_RECORD
  5
5E
100
AcDbSymbolTableRecord
100
AcDbBlockTableRecord
  2
Simple ext door 900-0
340
0
  0
BLOCK_RECORD
  5
5F
100
AcDbSymbolTableRecord
100
AcDbBlockTableRecord
  2
Window 900
340
0
  0
BLOCK_RECORD
  5
60
100
AcDbSymbolTableRecord
100
AcDbBlockTableRecord
  2
Window 1350
340
0
  0
BLOCK_RECORD
  5
61
100
AcDbSymbolTableRecord
100
AcDbBlockTableRecord
  2
window 1350-0
340
0
  0
BLOCK_RECORD
  5
62
100
AcDbSymbolTableRecord
100
AcDbBlockTableRecord
  2
Window 1800
340
0
  0
BLOCK_RECORD
  5
63
100
AcDbSymbolTableRecord
100
AcDbBlockTableRecord
  2
window 1800-0
340
0
  0
BLOCK_RECORD
  5
64
100
AcDbSymbolTableRecord
100
AcDbBlockTableRecord
  2
window 900-0
340
0
  0
ENDTAB
  0
ENDSEC
  0
SECTION
  2
BLOCKS
  0
BLOCK
  5
20
100
AcDbEntity
  8
0
100
AcDbBlockBegin
  2
*Model_Space
 70
0
 10
0.0
 20
0.0
 30
0.0
  3
*Model_Space
  1

  0
ENDBLK
  5
21
100
AcDbEntity
  8
0
100
AcDbBlockEnd
  0
BLOCK
  5
1C
100
AcDbEntity
 67
1
  8
0
100
AcDbBlockBegin
  2
*Paper_Space
 70
0
 10
0.0
 20
0.0
 30
0.0
  3
*Paper_Space
  1

  0
ENDBLK
  5
1D
100
AcDbEntity
 67
1
  8
0
100
AcDbBlockEnd
  0
BLOCK
  5
24
100
AcDbEntity
  8
0
100
AcDbBlockBegin
  2
*Paper_Space0
 70
0
 10
0.0
 20
0.0
 30
0.0
  3
*Paper_Space0
  1

  0
ENDBLK
  5
25
100
AcDbEntity
  8
0
100
AcDbBlockEnd
  0
BLOCK
  5
65
100
AcDbEntity
  8
0
100
AcDbBlockBegin
  2
Int door LH 800
 70
0
 10
0.0
 20
0.0
 30
0.0
  3
Int door LH 800
  1

  0
LINE
  5
66
100
AcDbEntity
100
AcDbLine
  8
0
 62
256
370
-1
  6
ByLayer
 10
0.0
 20
0.0
 30
0.0
 11
0.0
 21
125.0
 31
0.0
  0
LINE
  5
67
100
AcDbEntity
100
AcDbLine
  8
0
 62
256
370
-1
  6
ByLayer
 10
0.0
 20
125.0
 30
0.0
 11
35.0
 21
125.0
 31
0.0
  0
LINE
  5
68
100
AcDbEntity
100
AcDbLine
  8
0
 62
256
370
-1
  6
ByLayer
 10
35.0
 20
125.0
 30
0.0
 11
35.0
 21
80.0
 31
0.0
  0
LINE
  5
69
100
AcDbEntity
100
AcDbLine
  8
0
 62
256
370
-1
  6
ByLayer
 10
35.0
 20
80.0
 30
0.0
 11
60.0
 21
80.0
 31
0.0
  0
LINE
  5
6A
100
AcDbEntity
100
AcDbLine
  8
0
 62
256
370
-1
  6
ByLayer
 10
60.0
 20
30.0
 30
0.0
 11
40.0
 21
30.0
 31
0.0
  0
LINE
  5
6B
100
AcDbEntity
100
AcDbLine
  8
0
 62
256
370
-1
  6
ByLayer
 10
60.0
 20
80.0
 30
0.0
 11
60.0
 21
30.0
 31
0.0
  0
LINE
  5
6C
100
AcDbEntity
100
AcDbLine
  8
0
 62
256
370
-1
  6
ByLayer
 10
40.0
 20
0.0
 30
0.0
 11
0.0
 21
0.0
 31
0.0
  0
LINE
  5
6D
100
AcDbEntity
100
AcDbLine
  8
0
 62
256
370
-1
  6
ByLayer
 10
40.0
 20
30.0
 30
0.0
 11
40.0
 21
0.0
 31
0.0
  0
LINE
  5
6E
100
AcDbEntity
100
AcDbLine
  8
0
 62
256
370
-1
  6
ByLayer
 10
800.0
 20
125.0
 30
0.0
 11
800.0
 21
0.0
 31
0.0
  0
LINE
  5
6F
100
AcDbEntity
100
AcDbLine
  8
0
 62
256
370
-1
  6
ByLayer
 10
800.0
 20
0.0
 30
0.0
 11
765.0
 21
0.0
 31
0.0
  0
LINE
  5
70
100
AcDbEntity
100
AcDbLine
  8
0
 62
256
370
-1
  6
ByLayer
 10
740.0
 20
80.0
 30
0.0
 11
740.0
 21
30.0
 31
0.0
  0
LINE
  5
71
100
AcDbEntity
100
AcDbLine
  8
0
 62
256
370
-1
  6
ByLayer
 10
740.0
 20
30.0
 30
0.0
 11
765.0
 21
30.0
 31
0.0
  0
LINE
  5
72
100
AcDbEntity
100
AcDbLine
  8
0
 62
256
370
-1
  6
ByLayer
 10
800.0
 20
125.0
 30
0.0
 11
765.0
 21
125.0
 31
0.0
  0
LINE
  5
73
100
AcDbEntity
100
AcDbLine
  8
0
 62
256
370
-1
  6
ByLayer
 10
35.0
 20
125.0
 30
0.0
 11
35.0
 21
855.0
 31
0.0
  0
LINE
  5
74
100
AcDbEntity
100
AcDbLine
  8
0
 62
256
370
-1
  6
ByLayer
 10
35.0
 20
855.0
 30
0.0
 11
80.0
 21
855.0
 31
0.0
  0
LINE
  5
75
100
AcDbEntity
100
AcDbLine
  8
0
 62
256
370
-1
  6
ByLayer
 10
80.0
 20
855.0
 30
0.0
 11
80.0
 21
125.0
 31
0.0
  0
LINE
  5
76
100
AcDbEntity
100
AcDbLine
  8
0
 62
256
370
-1
  6
ByLayer
 10
80.0
 20
125.0
 30
0.0
 11
35.0
 21
125.0
 31
0.0
  0
LINE
  5
77
100
AcDbEntity
100
AcDbLine
  8
0
 62
256
370
-1
  6
ByLayer
 10
740.0
 20
80.0
 30
0.0
 11
765.0
 21
80.0
 31
0.0
  0
LINE
  5
78
100
AcDbEntity
100
AcDbLine
  8
0
 62
256
370
-1
  6
ByLayer
 10
765.0
 20
80.0
 30
0.0
 11
765.0
 21
125.0
 31
0.0
  0
LINE
  5
79
100
AcDbEntity
100
AcDbLine
  8
0
 62
256
370
-1
  6
ByLayer
 10
765.0
 20
30.0
 30
0.0
 11
765.0
 21
0.0
 31
0.0
  0
ARC
  5
7A
100
AcDbEntity
  8
0
 62
256
370
-1
  6
ByLayer
100
AcDbCircle
 10
35.0
 20
125.0
 30
0.0
 40
730.0
100
AcDbArc
 50
0.0
 51
86.472531949625875
  0
ENDBLK
  5
7B
100
AcDbEntity
  8
0
100
AcDbBlockEnd
  0
BLOCK
  5
7C
100
AcDbEntity
  8
0
100
AcDbBlockBegin
  2
Int door RH 800
 70
0
 10
0.0
 20
0.0
 30
0.0
  3
Int door RH 800
  1

  0
LINE
  5
7D
100
AcDbEntity
100
AcDbLine
  8
0
 62
256
370
-1
  6
ByLayer
 10
0.0
 20
0.0
 30
0.0
 11
0.0000000000000071
 21
125.0
 31
0.0
  0
LINE
  5
7E
100
AcDbEntity
100
AcDbLine
  8
0
 62
256
370
-1
  6
ByLayer
 10
0.0000000000000071
 20
125.0
 30
0.0
 11
35.0
 21
125.0
 31
0.0
  0
LINE
  5
7F
100
AcDbEntity
100
AcDbLine
  8
0
 62
256
370
-1
  6
ByLayer
 10
35.0
 20
125.0
 30
0.0
 11
35.0
 21
80.0
 31
0.0
  0
LINE
  5
80
100
AcDbEntity
100
AcDbLine
  8
0
 62
256
370
-1
  6
ByLayer
 10
35.0
 20
80.0
 30
0.0
 11
60.0
 21
80.0
 31
0.0
  0
LINE
  5
81
100
AcDbEntity
100
AcDbLine
  8
0
 62
256
370
-1
  6
ByLayer
 10
60.0
 20
29.999999999999986
 30
0.0
 11
40.0
 21
29.999999999999993
 31
0.0
  0
LINE
  5
82
100
AcDbEntity
100
AcDbLine
  8
0
 62
256
370
-1
  6
ByLayer
 10
60.0
 20
80.0
 30
0.0
 11
60.0
 21
29.999999999999986
 31
0.0
  0
LINE
  5
83
100
AcDbEntity
100
AcDbLine
  8
0
 62
256
370
-1
  6
ByLayer
 10
40.0
 20
0.0
 30
0.0
 11
0.0
 21
0.0
 31
0.0
  0
LINE
  5
84
100
AcDbEntity
100
AcDbLine
  8
0
 62
256
370
-1
  6
ByLayer
 10
40.0
 20
29.999999999999993
 30
0.0
 11
40.0
 21
0.0
 31
0.0
  0
LINE
  5
85
100
AcDbEntity
100
AcDbLine
  8
0
 62
256
370
-1
  6
ByLayer
 10
800.0
 20
125.0000000000004
 30
0.0
 11
800.0
 21
0.0
 31
0.0
  0
LINE
  5
86
100
AcDbEntity
100
AcDbLine
  8
0
 62
256
370
-1
  6
ByLayer
 10
800.0
 20
0.0
 30
0.0
 11
765.0
 21
0.0
 31
0.0
  0
LINE
  5
87
100
AcDbEntity
100
AcDbLine
  8
0
 62
256
370
-1
  6
ByLayer
 10
740.0
 20
79.999999999999687
 30
0.0
 11
740.0
 21
29.999999999999709
 31
0.0
  0
LINE
  5
88
100
AcDbEntity
100
AcDbLine
  8
0
 62
256
370
-1
  6
ByLayer
 10
740.0
 20
29.999999999999709
 30
0.0
 11
765.0
 21
30.000000000001869
 31
0.0
  0
LINE
  5
89
100
AcDbEntity
100
AcDbLine
  8
0
 62
256
370
-1
  6
ByLayer
 10
800.0
 20
125.0000000000004
 30
0.0
 11
765.0
 21
125.00000000000006
 31
0.0
  0
LINE
  5
8A
100
AcDbEntity
100
AcDbLine
  8
0
 62
256
370
-1
  6
ByLayer
 10
740.0
 20
79.999999999999687
 30
0.0
 11
765.0
 21
80.000000000000725
 31
0.0
  0
LINE
  5
8B
100
AcDbEntity
100
AcDbLine
  8
0
 62
256
370
-1
  6
ByLayer
 10
765.0
 20
80.000000000000725
 30
0.0
 11
765.0
 21
125.00000000000006
 31
0.0
  0
LINE
  5
8C
100
AcDbEntity
100
AcDbLine
  8
0
 62
256
370
-1
  6
ByLayer
 10
765.0
 20
30.000000000001869
 30
0.0
 11
765.0
 21
0.0
 31
0.0
  0
LINE
  5
8D
100
AcDbEntity
100
AcDbLine
  8
0
 62
256
370
-1
  6
ByLayer
 10
765.0
 20
125.00000000000006
 30
0.0
 11
765.0
 21
855.0
 31
0.0
  0
LINE
  5
8E
100
AcDbEntity
100
AcDbLine
  8
0
 62
256
370
-1
  6
ByLayer
 10
765.0
 20
125.00000000000006
 30
0.0
 11
720.0
 21
125.00000000000006
 31
0.0
  0
LINE
  5
8F
100
AcDbEntity
100
AcDbLine
  8
0
 62
256
370
-1
  6
ByLayer
 10
720.0
 20
125.00000000000006
 30
0.0
 11
720.0
 21
855.0
 31
0.0
  0
LINE
  5
90
100
AcDbEntity
100
AcDbLine
  8
0
 62
256
370
-1
  6
ByLayer
 10
720.0
 20
855.0
 30
0.0
 11
765.0
 21
855.0
 31
0.0
  0
ARC
  5
91
100
AcDbEntity
  8
0
 62
256
370
-1
  6
ByLayer
100
AcDbCircle
 10
765.0
 20
125.00000000000006
 30
0.0
 40
730.0
100
AcDbArc
 50
93.527468050374125
 51
180.0
  0
ENDBLK
  5
92
100
AcDbEntity
  8
0
100
AcDbBlockEnd
  0
BLOCK
  5
93
100
AcDbEntity
  8
0
100
AcDbBlockBegin
  2
Int door double 1500
 70
0
 10
0.0
 20
0.0
 30
0.0
  3
Int door double 1500
  1

  0
LINE
  5
94
100
AcDbEntity
100
AcDbLine
  8
0
 62
256
370
-1
  6
ByLayer
 10
1500.0
 20
125.0000000000004
 30
0.0
 11
1500.0
 21
0.0
 31
0.0
  0
LINE
  5
95
100
AcDbEntity
100
AcDbLine
  8
0
 62
256
370
-1
  6
ByLayer
 10
1500.0
 20
0.0
 30
0.0
 11
1465.0
 21
0.0
 31
0.0
  0
LINE
  5
96
100
AcDbEntity
100
AcDbLine
  8
0
 62
256
370
-1
  6
ByLayer
 10
1440.0
 20
79.999999999999687
 30
0.0
 11
1440.0
 21
29.999999999999709
 31
0.0
  0
LINE
  5
97
100
AcDbEntity
100
AcDbLine
  8
0
 62
256
370
-1
  6
ByLayer
 10
1440.0
 20
29.999999999999709
 30
0.0
 11
1465.0
 21
30.000000000001869
 31
0.0
  0
LINE
  5
98
100
AcDbEntity
100
AcDbLine
  8
0
 62
256
370
-1
  6
ByLayer
 10
1500.0
 20
125.0000000000004
 30
0.0
 11
1465.0
 21
125.00000000000006
 31
0.0
  0
LINE
  5
99
100
AcDbEntity
100
AcDbLine
  8
0
 62
256
370
-1
  6
ByLayer
 10
1440.0
 20
79.999999999999687
 30
0.0
 11
1465.0
 21
80.000000000000725
 31
0.0
  0
LINE
  5
9A
100
AcDbEntity
100
AcDbLine
  8
0
 62
256
370
-1
  6
ByLayer
 10
1465.0
 20
80.000000000000725
 30
0.0
 11
1465.0
 21
125.00000000000006
 31
0.0
  0
LINE
  5
9B
100
AcDbEntity
100
AcDbLine
  8
0
 62
256
370
-1
  6
ByLayer
 10
1465.0
 20
30.000000000001869
 30
0.0
 11
1465.0
 21
0.0
 31
0.0
  0
LINE
  5
9C
100
AcDbEntity
100
AcDbLine
  8
0
 62
256
370
-1
  6
ByLayer
 10
1465.0
 20
125.00000000000006
 30
0.0
 11
1420.0
 21
125.00000000000031
 31
0.0
  0
LINE
  5
9D
100
AcDbEntity
100
AcDbLine
  8
0
 62
256
370
-1
  6
ByLayer
 10
0.0
 20
0.0
 30
0.0
 11
0.0
 21
125.0
 31
0.0
  0
LINE
  5
9E
100
AcDbEntity
100
AcDbLine
  8
0
 62
256
370
-1
  6
ByLayer
 10
0.0
 20
125.0
 30
0.0
 11
35.0
 21
125.0
 31
0.0
  0
LINE
  5
9F
100
AcDbEntity
100
AcDbLine
  8
0
 62
256
370
-1
  6
ByLayer
 10
35.0
 20
125.0
 30
0.0
 11
35.0
 21
0.0
 31
0.0
  0
LINE
  5
A0
100
AcDbEntity
100
AcDbLine
  8
0
 62
256
370
-1
  6
ByLayer
 10
60.0
 20
30.0
 30
0.0
 11
60.0
 21
80.0
 31
0.0
  0
LINE
  5
A1
100
AcDbEntity
100
AcDbLine
  8
0
 62
256
370
-1
  6
ByLayer
 10
60.0
 20
80.0
 30
0.0
 11
35.0
 21
80.0
 31
0.0
  0
LINE
  5
A2
100
AcDbEntity
100
AcDbLine
  8
0
 62
256
370
-1
  6
ByLayer
 10
35.0
 20
30.0
 30
0.0
 11
60.0
 21
30.0
 31
0.0
  0
LINE
  5
A3
100
AcDbEntity
100
AcDbLine
  8
0
 62
256
370
-1
  6
ByLayer
 10
0.0
 20
0.0
 30
0.0
 11
35.0
 21
0.0
 31
0.0
  0
LINE
  5
A4
100
AcDbEntity
100
AcDbLine
  8
0
 62
256
370
-1
  6
ByLayer
 10
35.0
 20
125.0
 30
0.0
 11
35.0
 21
840.0
 31
0.0
  0
LINE
  5
A5
100
AcDbEntity
100
AcDbLine
  8
0
 62
256
370
-1
  6
ByLayer
 10
35.0
 20
840.0
 30
0.0
 11
80.0
 21
840.0
 31
0.0
  0
LINE
  5
A6
100
AcDbEntity
100
AcDbLine
  8
0
 62
256
370
-1
  6
ByLayer
 10
80.0
 20
840.0
 30
0.0
 11
80.0
 21
125.0
 31
0.0
  0
LINE
  5
A7
100
AcDbEntity
100
AcDbLine
  8
0
 62
256
370
-1
  6
ByLayer
 10
80.0
 20
125.0
 30
0.0
 11
35.0
 21
125.0
 31
0.0
  0
LINE
  5
A8
100
AcDbEntity
100
AcDbLine
  8
0
 62
256
370
-1
  6
ByLayer
 10
1420.0
 20
125.00000000000031
 30
0.0
 11
1420.0
 21
840.00000000000034
 31
0.0
  0
LINE
  5
A9
100
AcDbEntity
100
AcDbLine
  8
0
 62
256
370
-1
  6
ByLayer
 10
1420.0
 20
840.00000000000034
 30
0.0
 11
1465.0
 21
840.00000000000034
 31
0.0
  0
LINE
  5
AA
100
AcDbEntity
100
AcDbLine
  8
0
 62
256
370
-1
  6
ByLayer
 10
1465.0
 20
840.00000000000034
 30
0.0
 11
1465.0
 21
125.00000000000006
 31
0.0
  0
ARC
  5
AB
100
AcDbEntity
  8
0
 62
256
370
-1
  6
ByLayer
100
AcDbCircle
 10
35.0
 20
125.0
 30
0.0
 40
715.0
100
AcDbArc
 50
0.0
 51
86.39872188277657
  0
ARC
  5
AC
100
AcDbEntity
  8
0
 62
256
370
-1
  6
ByLayer
100
AcDbCircle
 10
1465.0
 20
125.00000000000006
 30
0.0
 40
715.0
100
AcDbArc
 50
93.601278117223444
 51
180.0
  0
ENDBLK
  5
AD
100
AcDbEntity
  8
0
100
AcDbBlockEnd
  0
BLOCK
  5
AE
100
AcDbEntity
  8
0
100
AcDbBlockBegin
  2
Ext door RH 900
 70
0
 10
0.0
 20
0.0
 30
0.0
  3
Ext door RH 900
  1

  0
LINE
  5
AF
100
AcDbEntity
100
AcDbLine
  8
0
 62
256
370
-1
  6
ByLayer
 10
900.0
 20
125.00000000000045
 30
0.0
 11
900.0
 21
0.0
 31
0.0
  0
LINE
  5
B0
100
AcDbEntity
100
AcDbLine
  8
0
 62
256
370
-1
  6
ByLayer
 10
900.0
 20
0.0
 30
0.0
 11
865.0
 21
0.0
 31
0.0
  0
LINE
  5
B1
100
AcDbEntity
100
AcDbLine
  8
0
 62
256
370
-1
  6
ByLayer
 10
840.0
 20
79.999999999999659
 30
0.0
 11
840.0
 21
29.999999999999659
 31
0.0
  0
LINE
  5
B2
100
AcDbEntity
100
AcDbLine
  8
0
 62
256
370
-1
  6
ByLayer
 10
900.0
 20
125.00000000000045
 30
0.0
 11
865.0
 21
125.00000000000011
 31
0.0
  0
LINE
  5
B3
100
AcDbEntity
100
AcDbLine
  8
0
 62
256
370
-1
  6
ByLayer
 10
840.0
 20
79.999999999999659
 30
0.0
 11
865.0
 21
80.000000000000682
 31
0.0
  0
LINE
  5
B4
100
AcDbEntity
100
AcDbLine
  8
0
 62
256
370
-1
  6
ByLayer
 10
865.0
 20
80.000000000000682
 30
0.0
 11
865.0
 21
125.00000000000011
 31
0.0
  0
LINE
  5
B5
100
AcDbEntity
100
AcDbLine
  8
0
 62
256
370
-1
  6
ByLayer
 10
865.0
 20
125.00000000000011
 30
0.0
 11
820.0
 21
125.00000000000034
 31
0.0
  0
LINE
  5
B6
100
AcDbEntity
100
AcDbLine
  8
0
 62
256
370
-1
  6
ByLayer
 10
0.0
 20
0.0
 30
0.0
 11
0.0
 21
125.0
 31
0.0
  0
LINE
  5
B7
100
AcDbEntity
100
AcDbLine
  8
0
 62
256
370
-1
  6
ByLayer
 10
0.0
 20
125.0
 30
0.0
 11
35.0
 21
125.0
 31
0.0
  0
LINE
  5
B8
100
AcDbEntity
100
AcDbLine
  8
0
 62
256
370
-1
  6
ByLayer
 10
35.0
 20
125.0
 30
0.0
 11
35.0
 21
80.0
 31
0.0
  0
LINE
  5
B9
100
AcDbEntity
100
AcDbLine
  8
0
 62
256
370
-1
  6
ByLayer
 10
35.0
 20
80.0
 30
0.0
 11
60.0
 21
80.0
 31
0.0
  0
LINE
  5
BA
100
AcDbEntity
100
AcDbLine
  8
0
 62
256
370
-1
  6
ByLayer
 10
60.0
 20
80.0
 30
0.0
 11
60.0
 21
30.0
 31
0.0
  0
LINE
  5
BB
100
AcDbEntity
100
AcDbLine
  8
0
 62
256
370
-1
  6
ByLayer
 10
0.0
 20
0.0
 30
0.0
 11
35.0
 21
0.0
 31
0.0
  0
LINE
  5
BC
100
AcDbEntity
100
AcDbLine
  8
0
 62
256
370
-1
  6
ByLayer
 10
820.0
 20
125.00000000000034
 30
0.0
 11
820.0
 21
955.00000000000045
 31
0.0
  0
LINE
  5
BD
100
AcDbEntity
100
AcDbLine
  8
0
 62
256
370
-1
  6
ByLayer
 10
820.0
 20
955.00000000000045
 30
0.0
 11
865.0
 21
955.00000000000045
 31
0.0
  0
LINE
  5
BE
100
AcDbEntity
100
AcDbLine
  8
0
 62
256
370
-1
  6
ByLayer
 10
865.0
 20
955.00000000000045
 30
0.0
 11
865.0
 21
125.00000000000011
 31
0.0
  0
ARC
  5
BF
100
AcDbEntity
  8
0
 62
256
370
-1
  6
ByLayer
100
AcDbCircle
 10
865.0
 20
125.00000000000011
 30
0.0
 40
830.0
100
AcDbArc
 50
93.103359321743369
 51
180.0
  0
LINE
  5
C0
100
AcDbEntity
100
AcDbLine
  8
0
 62
256
370
-1
  6
ByLayer
 10
0.0
 20
125.0
 30
0.0
 11
0.0
 21
220.0
 31
0.0
  0
LINE
  5
C1
100
AcDbEntity
100
AcDbLine
  8
0
 62
256
370
-1
  6
ByLayer
 10
900.0
 20
125.00000000000045
 30
0.0
 11
900.0
 21
220.00000000000045
 31
0.0
  0
LINE
  5
C2
100
AcDbEntity
100
AcDbLine
  8
0
 62
256
370
-1
  6
ByLayer
 10
900.0
 20
220.00000000000045
 30
0.0
 11
865.0
 21
220.00000000000045
 31
0.0
  0
LINE
  5
C3
100
AcDbEntity
100
AcDbLine
  8
0
 62
256
370
-1
  6
ByLayer
 10
820.0
 20
220.00000000000045
 30
0.0
 11
0.0
 21
220.0
 31
0.0
  0
LINE
  5
C4
100
AcDbEntity
100
AcDbLine
  8
0
 62
256
370
-1
  6
ByLayer
 10
60.0
 20
80.0
 30
0.0
 11
840.0
 21
79.999999999999659
 31
0.0
  0
LINE
  5
C5
100
AcDbEntity
100
AcDbLine
  8
0
 62
256
370
-1
  6
ByLayer
 10
35.0
 20
0.0
 30
0.0
 11
865.0
 21
0.0
 31
0.0
  0
LINE
  5
C6
100
AcDbEntity
100
AcDbLine
  8
0
 62
256
370
-1
  6
ByLayer
 10
60.0
 20
30.0
 30
0.0
 11
60.0
 21
0.0
 31
0.0
  0
LINE
  5
C7
100
AcDbEntity
100
AcDbLine
  8
0
 62
256
370
-1
  6
ByLayer
 10
840.0
 20
29.999999999999659
 30
0.0
 11
840.0
 21
0.0
 31
0.0
  0
ENDBLK
  5
C8
100
AcDbEntity
  8
0
100
AcDbBlockEnd
  0
BLOCK
  5
C9
100
AcDbEntity
  8
0
100
AcDbBlockBegin
  2
Ext door LH 900
 70
0
 10
0.0
 20
0.0
 30
0.0
  3
Ext door LH 900
  1

  0
LINE
  5
CA
100
AcDbEntity
100
AcDbLine
  8
0
 62
256
370
-1
  6
ByLayer
 10
900.0
 20
125.00000000000011
 30
0.0
 11
900.0
 21
0.0
 31
0.0
  0
LINE
  5
CB
100
AcDbEntity
100
AcDbLine
  8
0
 62
256
370
-1
  6
ByLayer
 10
900.0
 20
0.0
 30
0.0
 11
865.0
 21
0.0
 31
0.0
  0
LINE
  5
CC
100
AcDbEntity
100
AcDbLine
  8
0
 62
256
370
-1
  6
ByLayer
 10
840.0
 20
79.999999999998636
 30
0.0
 11
840.0
 21
29.999999999999545
 31
0.0
  0
LINE
  5
CD
100
AcDbEntity
100
AcDbLine
  8
0
 62
256
370
-1
  6
ByLayer
 10
900.0
 20
125.00000000000011
 30
0.0
 11
865.0
 21
125.00000000000057
 31
0.0
  0
LINE
  5
CE
100
AcDbEntity
100
AcDbLine
  8
0
 62
256
370
-1
  6
ByLayer
 10
840.0
 20
79.999999999998636
 30
0.0
 11
865.0
 21
80.000000000000796
 31
0.0
  0
LINE
  5
CF
100
AcDbEntity
100
AcDbLine
  8
0
 62
256
370
-1
  6
ByLayer
 10
865.0
 20
80.000000000000796
 30
0.0
 11
865.0
 21
125.00000000000057
 31
0.0
  0
LINE
  5
D0
100
AcDbEntity
100
AcDbLine
  8
0
 62
256
370
-1
  6
ByLayer
 10
0.0
 20
0.0
 30
0.0
 11
0.0000000000000142
 21
125.0
 31
0.0
  0
LINE
  5
D1
100
AcDbEntity
100
AcDbLine
  8
0
 62
256
370
-1
  6
ByLayer
 10
0.0000000000000142
 20
125.0
 30
0.0
 11
35.0
 21
125.0
 31
0.0
  0
LINE
  5
D2
100
AcDbEntity
100
AcDbLine
  8
0
 62
256
370
-1
  6
ByLayer
 10
35.0
 20
125.0
 30
0.0
 11
35.0
 21
80.0
 31
0.0
  0
LINE
  5
D3
100
AcDbEntity
100
AcDbLine
  8
0
 62
256
370
-1
  6
ByLayer
 10
35.0
 20
80.0
 30
0.0
 11
60.0
 21
80.0
 31
0.0
  0
LINE
  5
D4
100
AcDbEntity
100
AcDbLine
  8
0
 62
256
370
-1
  6
ByLayer
 10
60.0
 20
80.0
 30
0.0
 11
60.0
 21
30.0
 31
0.0
  0
LINE
  5
D5
100
AcDbEntity
100
AcDbLine
  8
0
 62
256
370
-1
  6
ByLayer
 10
0.0
 20
0.0
 30
0.0
 11
35.0
 21
0.0
 31
0.0
  0
LINE
  5
D6
100
AcDbEntity
100
AcDbLine
  8
0
 62
256
370
-1
  6
ByLayer
 10
0.0000000000000142
 20
125.0
 30
0.0
 11
0.0000000000000142
 21
220.0
 31
0.0
  0
LINE
  5
D7
100
AcDbEntity
100
AcDbLine
  8
0
 62
256
370
-1
  6
ByLayer
 10
900.0
 20
125.00000000000011
 30
0.0
 11
900.0
 21
220.00000000000011
 31
0.0
  0
LINE
  5
D8
100
AcDbEntity
100
AcDbLine
  8
0
 62
256
370
-1
  6
ByLayer
 10
900.0
 20
220.00000000000011
 30
0.0
 11
865.0
 21
220.00000000000034
 31
0.0
  0
LINE
  5
D9
100
AcDbEntity
100
AcDbLine
  8
0
 62
256
370
-1
  6
ByLayer
 10
60.0
 20
80.0
 30
0.0
 11
840.0
 21
79.999999999998636
 31
0.0
  0
LINE
  5
DA
100
AcDbEntity
100
AcDbLine
  8
0
 62
256
370
-1
  6
ByLayer
 10
60.0
 20
30.0
 30
0.0
 11
60.0
 21
0.0
 31
0.0
  0
LINE
  5
DB
100
AcDbEntity
100
AcDbLine
  8
0
 62
256
370
-1
  6
ByLayer
 10
840.0
 20
29.999999999999545
 30
0.0
 11
840.0
 21
0.0
 31
0.0
  0
LINE
  5
DC
100
AcDbEntity
100
AcDbLine
  8
0
 62
256
370
-1
  6
ByLayer
 10
820.0
 20
220.00000000000045
 30
0.0
 11
865.0
 21
220.00000000000034
 31
0.0
  0
LINE
  5
DD
100
AcDbEntity
100
AcDbLine
  8
0
 62
256
370
-1
  6
ByLayer
 10
35.0
 20
125.0
 30
0.0
 11
35.0
 21
955.0
 31
0.0
  0
LINE
  5
DE
100
AcDbEntity
100
AcDbLine
  8
0
 62
256
370
-1
  6
ByLayer
 10
35.0
 20
955.0
 30
0.0
 11
80.0
 21
955.0
 31
0.0
  0
LINE
  5
DF
100
AcDbEntity
100
AcDbLine
  8
0
 62
256
370
-1
  6
ByLayer
 10
80.0
 20
955.0
 30
0.0
 11
80.0
 21
125.0
 31
0.0
  0
LINE
  5
E0
100
AcDbEntity
100
AcDbLine
  8
0
 62
256
370
-1
  6
ByLayer
 10
80.0
 20
125.0
 30
0.0
 11
35.0
 21
125.0
 31
0.0
  0
ARC
  5
E1
100
AcDbEntity
  8
0
 62
256
370
-1
  6
ByLayer
100
AcDbCircle
 10
35.0
 20
125.0
 30
0.0
 40
830.0
100
AcDbArc
 50
0.0
 51
86.896640678256631
  0
LINE
  5
E2
100
AcDbEntity
100
AcDbLine
  8
0
 62
256
370
-1
  6
ByLayer
 10
820.0
 20
220.00000000000045
 30
0.0
 11
80.000000000000014
 21
220.00000000000006
 31
0.0
  0
LINE
  5
E3
100
AcDbEntity
100
AcDbLine
  8
0
 62
256
370
-1
  6
ByLayer
 10
35.000000000000014
 20
220.00000000000003
 30
0.0
 11
0.0000000000000142
 21
220.0
 31
0.0
  0
LINE
  5
E4
100
AcDbEntity
100
AcDbLine
  8
0
 62
256
370
-1
  6
ByLayer
 10
35.0
 20
0.0
 30
0.0
 11
60.0
 21
0.0
 31
0.0
  0
LINE
  5
E5
100
AcDbEntity
100
AcDbLine
  8
0
 62
256
370
-1
  6
ByLayer
 10
840.0
 20
0.0
 30
0.0
 11
865.0
 21
0.0
 31
0.0
  0
ENDBLK
  5
E6
100
AcDbEntity
  8
0
100
AcDbBlockEnd
  0
BLOCK
  5
E7
100
AcDbEntity
  8
0
100
AcDbBlockBegin
  2
Ext door LH 900-1
 70
0
 10
0.0
 20
0.0
 30
0.0
  3
Ext door LH 900-1
  1

  0
INSERT
  5
E8
100
AcDbEntity
100
AcDbBlockReference
  8
0
 62
256
370
-1
  6
ByLayer
  2
Ext door LH 900
 10
-100.0
 20
600.0
 30
0.0
  0
ENDBLK
  5
E9
100
AcDbEntity
  8
0
100
AcDbBlockEnd
  0
BLOCK
  5
EA
100
AcDbEntity
  8
0
100
AcDbBlockBegin
  2
Ext door LH 900-2
 70
0
 10
0.0
 20
0.0
 30
0.0
  3
Ext door LH 900-2
  1

  0
INSERT
  5
EB
100
AcDbEntity
100
AcDbBlockReference
  8
0
 62
256
370
-1
  6
ByLayer
  2
Ext door LH 900
 10
0.0
 20
600.0
 30
0.0
  0
ENDBLK
  5
EC
100
AcDbEntity
  8
0
100
AcDbBlockEnd
  0
BLOCK
  5
ED
100
AcDbEntity
  8
0
100
AcDbBlockBegin
  2
Ext door LH 900-3
 70
0
 10
0.0
 20
0.0
 30
0.0
  3
Ext door LH 900-3
  1

  0
INSERT
  5
EE
100
AcDbEntity
100
AcDbBlockReference
  8
0
 62
256
370
-1
  6
ByLayer
  2
Ext door LH 900
 10
100.00000000000004
 20
640.0
 30
0.0
  0
ENDBLK
  5
EF
100
AcDbEntity
  8
0
100
AcDbBlockEnd
  0
BLOCK
  5
F0
100
AcDbEntity
  8
0
100
AcDbBlockBegin
  2
Ext door LH 900-0
 70
0
 10
0.0
 20
0.0
 30
0.0
  3
Ext door LH 900-0
  1

  0
INSERT
  5
F1
100
AcDbEntity
100
AcDbBlockReference
  8
0
 62
256
370
-1
  6
ByLayer
  2
Ext door LH 900-3
 10
110.0
 20
40.0
 30
0.0
  0
ENDBLK
  5
F2
100
AcDbEntity
  8
0
100
AcDbBlockEnd
  0
BLOCK
  5
F3
100
AcDbEntity
  8
0
100
AcDbBlockBegin
  2
Ext door RH 900-0
 70
0
 10
0.0
 20
0.0
 30
0.0
  3
Ext door RH 900-0
  1

  0
INSERT
  5
F4
100
AcDbEntity
100
AcDbBlockReference
  8
0
 62
256
370
-1
  6
ByLayer
  2
Ext door RH 900
 10
-100.0
 20
600.0
 30
0.0
  0
ENDBLK
  5
F5
100
AcDbEntity
  8
0
100
AcDbBlockEnd
  0
BLOCK
  5
F6
100
AcDbEntity
  8
0
100
AcDbBlockBegin
  2
Ext door RH 900-1
 70
0
 10
0.0
 20
0.0
 30
0.0
  3
Ext door RH 900-1
  1

  0
INSERT
  5
F7
100
AcDbEntity
100
AcDbBlockReference
  8
0
 62
256
370
-1
  6
ByLayer
  2
Ext door RH 900-0
 10
100.0
 20
-400.0
 30
0.0
  0
ENDBLK
  5
F8
100
AcDbEntity
  8
0
100
AcDbBlockEnd
  0
BLOCK
  5
F9
100
AcDbEntity
  8
0
100
AcDbBlockBegin
  2
Ext door RH 900-2
 70
0
 10
0.0
 20
0.0
 30
0.0
  3
Ext door RH 900-2
  1

  0
INSERT
  5
FA
100
AcDbEntity
100
AcDbBlockReference
  8
0
 62
256
370
-1
  6
ByLayer
  2
Ext door RH 900-0
 10
100.0
 20
-400.0
 30
0.0
  0
ENDBLK
  5
FB
100
AcDbEntity
  8
0
100
AcDbBlockEnd
  0
BLOCK
  5
FC
100
AcDbEntity
  8
0
100
AcDbBlockBegin
  2
Ext door LH 900-4
 70
0
 10
0.0
 20
0.0
 30
0.0
  3
Ext door LH 900-4
  1

  0
INSERT
  5
FD
100
AcDbEntity
100
AcDbBlockReference
  8
0
 62
256
370
-1
  6
ByLayer
  2
Ext door LH 900
 10
100.0
 20
640.0
 30
0.0
  0
ENDBLK
  5
FE
100
AcDbEntity
  8
0
100
AcDbBlockEnd
  0
BLOCK
  5
FF
100
AcDbEntity
  8
0
100
AcDbBlockBegin
  2
Ext door Double 1575
 70
0
 10
0.0
 20
0.0
 30
0.0
  3
Ext door Double 1575
  1

  0
LINE
  5
100
100
AcDbEntity
100
AcDbLine
  8
0
 62
256
370
-1
  6
ByLayer
 10
0.0
 20
0.0
 30
0.0
 11
0.0
 21
125.0
 31
0.0
  0
LINE
  5
101
100
AcDbEntity
100
AcDbLine
  8
0
 62
256
370
-1
  6
ByLayer
 10
0.0
 20
125.0
 30
0.0
 11
35.0
 21
125.0
 31
0.0
  0
LINE
  5
102
100
AcDbEntity
100
AcDbLine
  8
0
 62
256
370
-1
  6
ByLayer
 10
35.0
 20
125.0
 30
0.0
 11
35.0
 21
80.0
 31
0.0
  0
LINE
  5
103
100
AcDbEntity
100
AcDbLine
  8
0
 62
256
370
-1
  6
ByLayer
 10
35.0
 20
80.0
 30
0.0
 11
60.0
 21
80.0
 31
0.0
  0
LINE
  5
104
100
AcDbEntity
100
AcDbLine
  8
0
 62
256
370
-1
  6
ByLayer
 10
60.0
 20
80.0
 30
0.0
 11
60.0
 21
30.0
 31
0.0
  0
LINE
  5
105
100
AcDbEntity
100
AcDbLine
  8
0
 62
256
370
-1
  6
ByLayer
 10
0.0
 20
0.0
 30
0.0
 11
35.0
 21
0.0
 31
0.0
  0
LINE
  5
106
100
AcDbEntity
100
AcDbLine
  8
0
 62
256
370
-1
  6
ByLayer
 10
0.0
 20
125.0
 30
0.0
 11
0.0
 21
220.0
 31
0.0
  0
LINE
  5
107
100
AcDbEntity
100
AcDbLine
  8
0
 62
256
370
-1
  6
ByLayer
 10
60.0
 20
30.0
 30
0.0
 11
60.0
 21
0.0
 31
0.0
  0
LINE
  5
108
100
AcDbEntity
100
AcDbLine
  8
0
 62
256
370
-1
  6
ByLayer
 10
80.0
 20
125.0
 30
0.0
 11
35.0
 21
125.0
 31
0.0
  0
LINE
  5
109
100
AcDbEntity
100
AcDbLine
  8
0
 62
256
370
-1
  6
ByLayer
 10
-100.0
 20
200.0
 30
0.0
 11
-100.0
 21
200.0
 31
0.0
  0
LINE
  5
10A
100
AcDbEntity
100
AcDbLine
  8
0
 62
256
370
-1
  6
ByLayer
 10
1575.0
 20
125.0
 30
0.0
 11
1575.0
 21
0.0
 31
0.0
  0
LINE
  5
10B
100
AcDbEntity
100
AcDbLine
  8
0
 62
256
370
-1
  6
ByLayer
 10
1575.0
 20
0.0
 30
0.0
 11
1540.0
 21
0.0
 31
0.0
  0
LINE
  5
10C
100
AcDbEntity
100
AcDbLine
  8
0
 62
256
370
-1
  6
ByLayer
 10
1515.0
 20
79.999999999998181
 30
0.0
 11
1515.0
 21
30.0
 31
0.0
  0
LINE
  5
10D
100
AcDbEntity
100
AcDbLine
  8
0
 62
256
370
-1
  6
ByLayer
 10
1575.0
 20
125.0
 30
0.0
 11
1540.0
 21
125.0
 31
0.0
  0
LINE
  5
10E
100
AcDbEntity
100
AcDbLine
  8
0
 62
256
370
-1
  6
ByLayer
 10
1515.0
 20
79.999999999998181
 30
0.0
 11
1540.0
 21
80.0
 31
0.0
  0
LINE
  5
10F
100
AcDbEntity
100
AcDbLine
  8
0
 62
256
370
-1
  6
ByLayer
 10
1540.0
 20
80.0
 30
0.0
 11
1540.0
 21
125.0
 31
0.0
  0
LINE
  5
110
100
AcDbEntity
100
AcDbLine
  8
0
 62
256
370
-1
  6
ByLayer
 10
1575.0
 20
125.0
 30
0.0
 11
1575.0
 21
220.0
 31
0.0
  0
LINE
  5
111
100
AcDbEntity
100
AcDbLine
  8
0
 62
256
370
-1
  6
ByLayer
 10
1575.0
 20
220.0
 30
0.0
 11
1540.0
 21
220.0
 31
0.0
  0
LINE
  5
112
100
AcDbEntity
100
AcDbLine
  8
0
 62
256
370
-1
  6
ByLayer
 10
60.0
 20
80.0
 30
0.0
 11
1515.0
 21
79.999999999998181
 31
0.0
  0
LINE
  5
113
100
AcDbEntity
100
AcDbLine
  8
0
 62
256
370
-1
  6
ByLayer
 10
35.0
 20
0.0
 30
0.0
 11
1540.0
 21
0.0
 31
0.0
  0
LINE
  5
114
100
AcDbEntity
100
AcDbLine
  8
0
 62
256
370
-1
  6
ByLayer
 10
1515.0
 20
30.0
 30
0.0
 11
1515.0
 21
0.0
 31
0.0
  0
LINE
  5
115
100
AcDbEntity
100
AcDbLine
  8
0
 62
256
370
-1
  6
ByLayer
 10
35.0
 20
125.0
 30
0.0
 11
35.0
 21
877.5
 31
0.0
  0
LINE
  5
116
100
AcDbEntity
100
AcDbLine
  8
0
 62
256
370
-1
  6
ByLayer
 10
35.0
 20
877.5
 30
0.0
 11
80.0
 21
877.5
 31
0.0
  0
LINE
  5
117
100
AcDbEntity
100
AcDbLine
  8
0
 62
256
370
-1
  6
ByLayer
 10
80.0
 20
877.5
 30
0.0
 11
80.0
 21
125.0
 31
0.0
  0
LINE
  5
118
100
AcDbEntity
100
AcDbLine
  8
0
 62
256
370
-1
  6
ByLayer
 10
1540.0
 20
125.0
 30
0.0
 11
1540.0
 21
877.5
 31
0.0
  0
LINE
  5
119
100
AcDbEntity
100
AcDbLine
  8
0
 62
256
370
-1
  6
ByLayer
 10
1540.0
 20
877.5
 30
0.0
 11
1495.0
 21
877.5
 31
0.0
  0
LINE
  5
11A
100
AcDbEntity
100
AcDbLine
  8
0
 62
256
370
-1
  6
ByLayer
 10
1495.0
 20
877.5
 30
0.0
 11
1495.0
 21
125.0
 31
0.0
  0
LINE
  5
11B
100
AcDbEntity
100
AcDbLine
  8
0
 62
256
370
-1
  6
ByLayer
 10
1495.0
 20
125.0
 30
0.0
 11
1540.0
 21
125.0
 31
0.0
  0
LINE
  5
11C
100
AcDbEntity
100
AcDbLine
  8
0
 62
256
370
-1
  6
ByLayer
 10
1495.0
 20
220.0
 30
0.0
 11
80.0
 21
220.0
 31
0.0
  0
LINE
  5
11D
100
AcDbEntity
100
AcDbLine
  8
0
 62
256
370
-1
  6
ByLayer
 10
35.0
 20
220.0
 30
0.0
 11
0.0
 21
220.0
 31
0.0
  0
ARC
  5
11E
100
AcDbEntity
  8
0
 62
256
370
-1
  6
ByLayer
100
AcDbCircle
 10
35.0
 20
125.0
 30
0.0
 40
752.5
100
AcDbArc
 50
0.0
 51
86.577749890216253
  0
ARC
  5
11F
100
AcDbEntity
  8
0
 62
256
370
-1
  6
ByLayer
100
AcDbCircle
 10
1540.0
 20
125.0
 30
0.0
 40
752.5
100
AcDbArc
 50
93.422250109783761
 51
180.0
  0
ENDBLK
  5
120
100
AcDbEntity
  8
0
100
AcDbBlockEnd
  0
BLOCK
  5
121
100
AcDbEntity
  8
0
100
AcDbBlockBegin
  2
Ext door double 1575-0
 70
0
 10
0.0
 20
0.0
 30
0.0
  3
Ext door double 1575-0
  1

  0
LINE
  5
122
100
AcDbEntity
100
AcDbLine
  8
0
 62
256
370
-1
  6
ByLayer
 10
18000.0
 20
-9800.0
 30
0.0
 11
18000.0
 21
-9675.0
 31
0.0
  0
LINE
  5
123
100
AcDbEntity
100
AcDbLine
  8
0
 62
256
370
-1
  6
ByLayer
 10
18000.0
 20
-9675.0
 30
0.0
 11
18035.0
 21
-9675.0
 31
0.0
  0
LINE
  5
124
100
AcDbEntity
100
AcDbLine
  8
0
 62
256
370
-1
  6
ByLayer
 10
18035.0
 20
-9675.0
 30
0.0
 11
18035.0
 21
-9720.0
 31
0.0
  0
LINE
  5
125
100
AcDbEntity
100
AcDbLine
  8
0
 62
256
370
-1
  6
ByLayer
 10
18035.0
 20
-9720.0
 30
0.0
 11
18060.0
 21
-9720.0
 31
0.0
  0
LINE
  5
126
100
AcDbEntity
100
AcDbLine
  8
0
 62
256
370
-1
  6
ByLayer
 10
18060.0
 20
-9720.0
 30
0.0
 11
18060.0
 21
-9770.0
 31
0.0
  0
LINE
  5
127
100
AcDbEntity
100
AcDbLine
  8
0
 62
256
370
-1
  6
ByLayer
 10
18000.0
 20
-9800.0
 30
0.0
 11
18035.0
 21
-9800.0
 31
0.0
  0
LINE
  5
128
100
AcDbEntity
100
AcDbLine
  8
0
 62
256
370
-1
  6
ByLayer
 10
18000.0
 20
-9675.0
 30
0.0
 11
18000.0
 21
-9580.0
 31
0.0
  0
LINE
  5
129
100
AcDbEntity
100
AcDbLine
  8
0
 62
256
370
-1
  6
ByLayer
 10
18060.0
 20
-9770.0
 30
0.0
 11
18060.0
 21
-9800.0
 31
0.0
  0
LINE
  5
12A
100
AcDbEntity
100
AcDbLine
  8
0
 62
256
370
-1
  6
ByLayer
 10
18080.0
 20
-9675.0
 30
0.0
 11
18035.0
 21
-9675.0
 31
0.0
  0
LINE
  5
12B
100
AcDbEntity
100
AcDbLine
  8
0
 62
256
370
-1
  6
ByLayer
 10
17900.0
 20
-9600.0
 30
0.0
 11
17900.0
 21
-9600.0
 31
0.0
  0
LINE
  5
12C
100
AcDbEntity
100
AcDbLine
  8
0
 62
256
370
-1
  6
ByLayer
 10
19575.0
 20
-9675.0
 30
0.0
 11
19575.0
 21
-9800.0
 31
0.0
  0
LINE
  5
12D
100
AcDbEntity
100
AcDbLine
  8
0
 62
256
370
-1
  6
ByLayer
 10
19575.0
 20
-9800.0
 30
0.0
 11
19540.0
 21
-9800.0
 31
0.0
  0
LINE
  5
12E
100
AcDbEntity
100
AcDbLine
  8
0
 62
256
370
-1
  6
ByLayer
 10
19515.0
 20
-9720.0000000000018
 30
0.0
 11
19515.0
 21
-9769.9999999999982
 31
0.0
  0
LINE
  5
12F
100
AcDbEntity
100
AcDbLine
  8
0
 62
256
370
-1
  6
ByLayer
 10
19575.0
 20
-9675.0
 30
0.0
 11
19540.0
 21
-9675.0
 31
0.0
  0
LINE
  5
130
100
AcDbEntity
100
AcDbLine
  8
0
 62
256
370
-1
  6
ByLayer
 10
19515.0
 20
-9720.0000000000018
 30
0.0
 11
19540.0
 21
-9719.9999999999982
 31
0.0
  0
LINE
  5
131
100
AcDbEntity
100
AcDbLine
  8
0
 62
256
370
-1
  6
ByLayer
 10
19540.0
 20
-9719.9999999999982
 30
0.0
 11
19540.0
 21
-9675.0
 31
0.0
  0
LINE
  5
132
100
AcDbEntity
100
AcDbLine
  8
0
 62
256
370
-1
  6
ByLayer
 10
19575.0
 20
-9675.0
 30
0.0
 11
19575.0
 21
-9580.0
 31
0.0
  0
LINE
  5
133
100
AcDbEntity
100
AcDbLine
  8
0
 62
256
370
-1
  6
ByLayer
 10
19575.0
 20
-9580.0
 30
0.0
 11
19540.0
 21
-9580.0
 31
0.0
  0
LINE
  5
134
100
AcDbEntity
100
AcDbLine
  8
0
 62
256
370
-1
  6
ByLayer
 10
18060.0
 20
-9720.0
 30
0.0
 11
19515.0
 21
-9720.0000000000018
 31
0.0
  0
LINE
  5
135
100
AcDbEntity
100
AcDbLine
  8
0
 62
256
370
-1
  6
ByLayer
 10
19515.0
 20
-9769.9999999999982
 30
0.0
 11
19515.0
 21
-9800.0
 31
0.0
  0
LINE
  5
136
100
AcDbEntity
100
AcDbLine
  8
0
 62
256
370
-1
  6
ByLayer
 10
18035.0
 20
-9675.0
 30
0.0
 11
18035.0
 21
-8922.5
 31
0.0
  0
LINE
  5
137
100
AcDbEntity
100
AcDbLine
  8
0
 62
256
370
-1
  6
ByLayer
 10
18035.0
 20
-8922.5
 30
0.0
 11
18080.0
 21
-8922.5
 31
0.0
  0
LINE
  5
138
100
AcDbEntity
100
AcDbLine
  8
0
 62
256
370
-1
  6
ByLayer
 10
18080.0
 20
-8922.5
 30
0.0
 11
18080.0
 21
-9675.0
 31
0.0
  0
LINE
  5
139
100
AcDbEntity
100
AcDbLine
  8
0
 62
256
370
-1
  6
ByLayer
 10
19540.0
 20
-9675.0
 30
0.0
 11
19540.0
 21
-8922.5
 31
0.0
  0
LINE
  5
13A
100
AcDbEntity
100
AcDbLine
  8
0
 62
256
370
-1
  6
ByLayer
 10
19540.0
 20
-8922.5
 30
0.0
 11
19495.0
 21
-8922.5
 31
0.0
  0
LINE
  5
13B
100
AcDbEntity
100
AcDbLine
  8
0
 62
256
370
-1
  6
ByLayer
 10
19495.0
 20
-8922.5
 30
0.0
 11
19495.0
 21
-9674.9999999999982
 31
0.0
  0
LINE
  5
13C
100
AcDbEntity
100
AcDbLine
  8
0
 62
256
370
-1
  6
ByLayer
 10
19495.0
 20
-9674.9999999999982
 30
0.0
 11
19540.0
 21
-9675.0
 31
0.0
  0
LINE
  5
13D
100
AcDbEntity
100
AcDbLine
  8
0
 62
256
370
-1
  6
ByLayer
 10
19495.0
 20
-9580.0
 30
0.0
 11
18080.0
 21
-9580.0
 31
0.0
  0
LINE
  5
13E
100
AcDbEntity
100
AcDbLine
  8
0
 62
256
370
-1
  6
ByLayer
 10
18035.0
 20
-9580.0
 30
0.0
 11
18000.0
 21
-9580.0
 31
0.0
  0
ARC
  5
13F
100
AcDbEntity
  8
0
 62
256
370
-1
  6
ByLayer
100
AcDbCircle
 10
18035.0
 20
-9675.0
 30
0.0
 40
752.5
100
AcDbArc
 50
0.0
 51
86.577749890216253
  0
ARC
  5
140
100
AcDbEntity
  8
0
 62
256
370
-1
  6
ByLayer
100
AcDbCircle
 10
19540.0
 20
-9675.0
 30
0.0
 40
752.5
100
AcDbArc
 50
93.422250109783761
 51
180.0
  0
LINE
  5
141
100
AcDbEntity
100
AcDbLine
  8
0
 62
256
370
-1
  6
ByLayer
 10
18035.0
 20
-9800.0
 30
0.0
 11
18060.0
 21
-9800.0
 31
0.0
  0
LINE
  5
142
100
AcDbEntity
100
AcDbLine
  8
0
 62
256
370
-1
  6
ByLayer
 10
19515.0
 20
-9800.0
 30
0.0
 11
19540.0
 21
-9800.0
 31
0.0
  0
ENDBLK
  5
143
100
AcDbEntity
  8
0
100
AcDbBlockEnd
  0
BLOCK
  5
144
100
AcDbEntity
  8
0
100
AcDbBlockBegin
  2
Ext door double 1575-1
 70
0
 10
0.0
 20
0.0
 30
0.0
  3
Ext door double 1575-1
  1

  0
LINE
  5
145
100
AcDbEntity
100
AcDbLine
  8
0
 62
256
370
-1
  6
ByLayer
 10
18000.0
 20
-9800.0
 30
0.0
 11
18000.0
 21
-9675.0
 31
0.0
  0
LINE
  5
146
100
AcDbEntity
100
AcDbLine
  8
0
 62
256
370
-1
  6
ByLayer
 10
18000.0
 20
-9675.0
 30
0.0
 11
18035.0
 21
-9675.0
 31
0.0
  0
LINE
  5
147
100
AcDbEntity
100
AcDbLine
  8
0
 62
256
370
-1
  6
ByLayer
 10
18035.0
 20
-9675.0
 30
0.0
 11
18035.0
 21
-9720.0
 31
0.0
  0
LINE
  5
148
100
AcDbEntity
100
AcDbLine
  8
0
 62
256
370
-1
  6
ByLayer
 10
18035.0
 20
-9720.0
 30
0.0
 11
18060.0
 21
-9720.0
 31
0.0
  0
LINE
  5
149
100
AcDbEntity
100
AcDbLine
  8
0
 62
256
370
-1
  6
ByLayer
 10
18060.0
 20
-9720.0
 30
0.0
 11
18060.0
 21
-9770.0
 31
0.0
  0
LINE
  5
14A
100
AcDbEntity
100
AcDbLine
  8
0
 62
256
370
-1
  6
ByLayer
 10
18000.0
 20
-9800.0
 30
0.0
 11
18035.0
 21
-9800.0
 31
0.0
  0
LINE
  5
14B
100
AcDbEntity
100
AcDbLine
  8
0
 62
256
370
-1
  6
ByLayer
 10
18000.0
 20
-9675.0
 30
0.0
 11
18000.0
 21
-9580.0
 31
0.0
  0
LINE
  5
14C
100
AcDbEntity
100
AcDbLine
  8
0
 62
256
370
-1
  6
ByLayer
 10
18060.0
 20
-9770.0
 30
0.0
 11
18060.0
 21
-9800.0
 31
0.0
  0
LINE
  5
14D
100
AcDbEntity
100
AcDbLine
  8
0
 62
256
370
-1
  6
ByLayer
 10
18080.0
 20
-9675.0
 30
0.0
 11
18035.0
 21
-9675.0
 31
0.0
  0
LINE
  5
14E
100
AcDbEntity
100
AcDbLine
  8
0
 62
256
370
-1
  6
ByLayer
 10
17900.0
 20
-9600.0
 30
0.0
 11
17900.0
 21
-9600.0
 31
0.0
  0
LINE
  5
14F
100
AcDbEntity
100
AcDbLine
  8
0
 62
256
370
-1
  6
ByLayer
 10
19575.0
 20
-9675.0
 30
0.0
 11
19575.0
 21
-9800.0
 31
0.0
  0
LINE
  5
150
100
AcDbEntity
100
AcDbLine
  8
0
 62
256
370
-1
  6
ByLayer
 10
19575.0
 20
-9800.0
 30
0.0
 11
19540.0
 21
-9800.0
 31
0.0
  0
LINE
  5
151
100
AcDbEntity
100
AcDbLine
  8
0
 62
256
370
-1
  6
ByLayer
 10
19515.0
 20
-9720.0000000000018
 30
0.0
 11
19515.0
 21
-9769.9999999999982
 31
0.0
  0
LINE
  5
152
100
AcDbEntity
100
AcDbLine
  8
0
 62
256
370
-1
  6
ByLayer
 10
19575.0
 20
-9675.0
 30
0.0
 11
19540.0
 21
-9675.0
 31
0.0
  0
LINE
  5
153
100
AcDbEntity
100
AcDbLine
  8
0
 62
256
370
-1
  6
ByLayer
 10
19515.0
 20
-9720.0000000000018
 30
0.0
 11
19540.0
 21
-9719.9999999999982
 31
0.0
  0
LINE
  5
154
100
AcDbEntity
100
AcDbLine
  8
0
 62
256
370
-1
  6
ByLayer
 10
19540.0
 20
-9719.9999999999982
 30
0.0
 11
19540.0
 21
-9675.0
 31
0.0
  0
LINE
  5
155
100
AcDbEntity
100
AcDbLine
  8
0
 62
256
370
-1
  6
ByLayer
 10
19575.0
 20
-9675.0
 30
0.0
 11
19575.0
 21
-9580.0
 31
0.0
  0
LINE
  5
156
100
AcDbEntity
100
AcDbLine
  8
0
 62
256
370
-1
  6
ByLayer
 10
19575.0
 20
-9580.0
 30
0.0
 11
19540.0
 21
-9580.0
 31
0.0
  0
LINE
  5
157
100
AcDbEntity
100
AcDbLine
  8
0
 62
256
370
-1
  6
ByLayer
 10
18060.0
 20
-9720.0
 30
0.0
 11
19515.0
 21
-9720.0000000000018
 31
0.0
  0
LINE
  5
158
100
AcDbEntity
100
AcDbLine
  8
0
 62
256
370
-1
  6
ByLayer
 10
19515.0
 20
-9769.9999999999982
 30
0.0
 11
19515.0
 21
-9800.0
 31
0.0
  0
LINE
  5
159
100
AcDbEntity
100
AcDbLine
  8
0
 62
256
370
-1
  6
ByLayer
 10
18035.0
 20
-9675.0
 30
0.0
 11
18035.0
 21
-8922.5
 31
0.0
  0
LINE
  5
15A
100
AcDbEntity
100
AcDbLine
  8
0
 62
256
370
-1
  6
ByLayer
 10
18035.0
 20
-8922.5
 30
0.0
 11
18080.0
 21
-8922.5
 31
0.0
  0
LINE
  5
15B
100
AcDbEntity
100
AcDbLine
  8
0
 62
256
370
-1
  6
ByLayer
 10
18080.0
 20
-8922.5
 30
0.0
 11
18080.0
 21
-9675.0
 31
0.0
  0
LINE
  5
15C
100
AcDbEntity
100
AcDbLine
  8
0
 62
256
370
-1
  6
ByLayer
 10
19540.0
 20
-9675.0
 30
0.0
 11
19540.0
 21
-8922.5
 31
0.0
  0
LINE
  5
15D
100
AcDbEntity
100
AcDbLine
  8
0
 62
256
370
-1
  6
ByLayer
 10
19540.0
 20
-8922.5
 30
0.0
 11
19495.0
 21
-8922.5
 31
0.0
  0
LINE
  5
15E
100
AcDbEntity
100
AcDbLine
  8
0
 62
256
370
-1
  6
ByLayer
 10
19495.0
 20
-8922.5
 30
0.0
 11
19495.0
 21
-9674.9999999999982
 31
0.0
  0
LINE
  5
15F
100
AcDbEntity
100
AcDbLine
  8
0
 62
256
370
-1
  6
ByLayer
 10
19495.0
 20
-9674.9999999999982
 30
0.0
 11
19540.0
 21
-9675.0
 31
0.0
  0
LINE
  5
160
100
AcDbEntity
100
AcDbLine
  8
0
 62
256
370
-1
  6
ByLayer
 10
19495.0
 20
-9580.0
 30
0.0
 11
18080.0
 21
-9580.0
 31
0.0
  0
LINE
  5
161
100
AcDbEntity
100
AcDbLine
  8
0
 62
256
370
-1
  6
ByLayer
 10
18035.0
 20
-9580.0
 30
0.0
 11
18000.0
 21
-9580.0
 31
0.0
  0
ARC
  5
162
100
AcDbEntity
  8
0
 62
256
370
-1
  6
ByLayer
100
AcDbCircle
 10
18035.0
 20
-9675.0
 30
0.0
 40
752.5
100
AcDbArc
 50
0.0
 51
86.577749890216253
  0
ARC
  5
163
100
AcDbEntity
  8
0
 62
256
370
-1
  6
ByLayer
100
AcDbCircle
 10
19540.0
 20
-9675.0
 30
0.0
 40
752.5
100
AcDbArc
 50
93.422250109783761
 51
180.0
  0
LINE
  5
164
100
AcDbEntity
100
AcDbLine
  8
0
 62
256
370
-1
  6
ByLayer
 10
18035.0
 20
-9800.0
 30
0.0
 11
18060.0
 21
-9800.0
 31
0.0
  0
LINE
  5
165
100
AcDbEntity
100
AcDbLine
  8
0
 62
256
370
-1
  6
ByLayer
 10
19515.0
 20
-9800.0
 30
0.0
 11
19540.0
 21
-9800.0
 31
0.0
  0
ENDBLK
  5
166
100
AcDbEntity
  8
0
100
AcDbBlockEnd
  0
BLOCK
  5
167
100
AcDbEntity
  8
0
100
AcDbBlockBegin
  2
Int door LH 800-0
 70
0
 10
0.0
 20
0.0
 30
0.0
  3
Int door LH 800-0
  1

  0
INSERT
  5
168
100
AcDbEntity
100
AcDbBlockReference
  8
0
 62
256
370
-1
  6
ByLayer
  2
Int door LH 800
 10
60.0
 20
20.0
 30
0.0
  0
ENDBLK
  5
169
100
AcDbEntity
  8
0
100
AcDbBlockEnd
  0
BLOCK
  5
16A
100
AcDbEntity
  8
0
100
AcDbBlockBegin
  2
Int door LH 800-1
 70
0
 10
0.0
 20
0.0
 30
0.0
  3
Int door LH 800-1
  1

  0
INSERT
  5
16B
100
AcDbEntity
100
AcDbBlockReference
  8
0
 62
256
370
-1
  6
ByLayer
  2
Ext door RH 900-0
 10
100.0
 20
-400.0
 30
0.0
  0
ENDBLK
  5
16C
100
AcDbEntity
  8
0
100
AcDbBlockEnd
  0
BLOCK
  5
16D
100
AcDbEntity
  8
0
100
AcDbBlockBegin
  2
Int door LH 800-2
 70
0
 10
0.0
 20
0.0
 30
0.0
  3
Int door LH 800-2
  1

  0
INSERT
  5
16E
100
AcDbEntity
100
AcDbBlockReference
  8
0
 62
256
370
-1
  6
ByLayer
  2
Ext door RH 900-0
 10
100.0
 20
-400.0
 30
0.0
  0
ENDBLK
  5
16F
100
AcDbEntity
  8
0
100
AcDbBlockEnd
  0
BLOCK
  5
170
100
AcDbEntity
  8
0
100
AcDbBlockBegin
  2
Int door LH 800-3
 70
0
 10
0.0
 20
0.0
 30
0.0
  3
Int door LH 800-3
  1

  0
INSERT
  5
171
100
AcDbEntity
100
AcDbBlockReference
  8
0
 62
256
370
-1
  6
ByLayer
  2
Ext door RH 900-0
 10
100.0
 20
-400.0
 30
0.0
  0
ENDBLK
  5
172
100
AcDbEntity
  8
0
100
AcDbBlockEnd
  0
BLOCK
  5
173
100
AcDbEntity
  8
0
100
AcDbBlockBegin
  2
Int door RH 800-0
 70
0
 10
0.0
 20
0.0
 30
0.0
  3
Int door RH 800-0
  1

  0
INSERT
  5
174
100
AcDbEntity
100
AcDbBlockReference
  8
0
 62
256
370
-1
  6
ByLayer
  2
Int door RH 800
 10
0.0
 20
600.0
 30
0.0
 44
1.0
 45
1.0
  0
ENDBLK
  5
175
100
AcDbEntity
  8
0
100
AcDbBlockEnd
  0
BLOCK
  5
176
100
AcDbEntity
  8
0
100
AcDbBlockBegin
  2
Int door RH 800-1
 70
0
 10
0.0
 20
0.0
 30
0.0
  3
Int door RH 800-1
  1

  0
INSERT
  5
177
100
AcDbEntity
100
AcDbBlockReference
  8
0
 62
256
370
-1
  6
ByLayer
  2
Ext door RH 900-0
 10
100.0
 20
-400.0
 30
0.0
  0
ENDBLK
  5
178
100
AcDbEntity
  8
0
100
AcDbBlockEnd
  0
BLOCK
  5
179
100
AcDbEntity
  8
0
100
AcDbBlockBegin
  2
Int door double 1500-0
 70
0
 10
0.0
 20
0.0
 30
0.0
  3
Int door double 1500-0
  1

  0
INSERT
  5
17A
100
AcDbEntity
100
AcDbBlockReference
  8
0
 62
256
370
-1
  6
ByLayer
  2
Int door double 1500
 10
-640.0
 20
20.0
 30
0.0
  0
ENDBLK
  5
17B
100
AcDbEntity
  8
0
100
AcDbBlockEnd
  0
BLOCK
  5
17C
100
AcDbEntity
  8
0
100
AcDbBlockBegin
  2
Int door double 1500-1
 70
0
 10
0.0
 20
0.0
 30
0.0
  3
Int door double 1500-1
  1

  0
INSERT
  5
17D
100
AcDbEntity
100
AcDbBlockReference
  8
0
 62
256
370
-1
  6
ByLayer
  2
Int door double 1500
 10
-520.0
 20
60.0
 30
0.0
  0
ENDBLK
  5
17E
100
AcDbEntity
  8
0
100
AcDbBlockEnd
  0
BLOCK
  5
17F
100
AcDbEntity
  8
0
100
AcDbBlockBegin
  2
Int door double 1500-2
 70
0
 10
0.0
 20
0.0
 30
0.0
  3
Int door double 1500-2
  1

  0
LINE
  5
180
100
AcDbEntity
100
AcDbLine
  8
0
 62
256
370
-1
  6
ByLayer
 10
22180.000000000004
 20
-10814.999999999989
 30
0.0
 11
22179.999999999996
 21
-10940.000000000005
 31
0.0
  0
LINE
  5
181
100
AcDbEntity
100
AcDbLine
  8
0
 62
256
370
-1
  6
ByLayer
 10
22179.999999999996
 20
-10940.000000000005
 30
0.0
 11
22145.000000000004
 21
-10939.999999999995
 31
0.0
  0
LINE
  5
182
100
AcDbEntity
100
AcDbLine
  8
0
 62
256
370
-1
  6
ByLayer
 10
22119.999999999996
 20
-10860.000000000007
 30
0.0
 11
22120.000000000004
 21
-10910.0
 31
0.0
  0
LINE
  5
183
100
AcDbEntity
100
AcDbLine
  8
0
 62
256
370
-1
  6
ByLayer
 10
22120.000000000004
 20
-10910.0
 30
0.0
 11
22145.0
 21
-10910.0
 31
0.0
  0
LINE
  5
184
100
AcDbEntity
100
AcDbLine
  8
0
 62
256
370
-1
  6
ByLayer
 10
22180.000000000004
 20
-10814.999999999989
 30
0.0
 11
22144.999999999996
 21
-10815.000000000007
 31
0.0
  0
LINE
  5
185
100
AcDbEntity
100
AcDbLine
  8
0
 62
256
370
-1
  6
ByLayer
 10
22119.999999999996
 20
-10860.000000000007
 30
0.0
 11
22145.0
 21
-10860.000000000002
 31
0.0
  0
LINE
  5
186
100
AcDbEntity
100
AcDbLine
  8
0
 62
256
370
-1
  6
ByLayer
 10
22145.0
 20
-10860.000000000002
 30
0.0
 11
22144.999999999996
 21
-10815.000000000007
 31
0.0
  0
LINE
  5
187
100
AcDbEntity
100
AcDbLine
  8
0
 62
256
370
-1
  6
ByLayer
 10
22145.0
 20
-10910.0
 30
0.0
 11
22145.000000000004
 21
-10939.999999999995
 31
0.0
  0
LINE
  5
188
100
AcDbEntity
100
AcDbLine
  8
0
 62
256
370
-1
  6
ByLayer
 10
22144.999999999996
 20
-10815.000000000007
 30
0.0
 11
22100.0
 21
-10815.000000000005
 31
0.0
  0
LINE
  5
189
100
AcDbEntity
100
AcDbLine
  8
0
 62
256
370
-1
  6
ByLayer
 10
20680.0
 20
-10939.999999999995
 30
0.0
 11
20679.999999999996
 21
-10815.000000000004
 31
0.0
  0
LINE
  5
18A
100
AcDbEntity
100
AcDbLine
  8
0
 62
256
370
-1
  6
ByLayer
 10
20679.999999999996
 20
-10815.000000000004
 30
0.0
 11
20714.999999999993
 21
-10815.000000000011
 31
0.0
  0
LINE
  5
18B
100
AcDbEntity
100
AcDbLine
  8
0
 62
256
370
-1
  6
ByLayer
 10
20739.999999999996
 20
-10910.000000000009
 30
0.0
 11
20740.0
 21
-10860.0
 31
0.0
  0
LINE
  5
18C
100
AcDbEntity
100
AcDbLine
  8
0
 62
256
370
-1
  6
ByLayer
 10
20740.0
 20
-10860.0
 30
0.0
 11
20715.0
 21
-10860.000000000002
 31
0.0
  0
LINE
  5
18D
100
AcDbEntity
100
AcDbLine
  8
0
 62
256
370
-1
  6
ByLayer
 10
20714.999999999993
 20
-10910.000000000007
 30
0.0
 11
20739.999999999996
 21
-10910.000000000009
 31
0.0
  0
LINE
  5
18E
100
AcDbEntity
100
AcDbLine
  8
0
 62
256
370
-1
  6
ByLayer
 10
20680.0
 20
-10939.999999999995
 30
0.0
 11
20714.999999999996
 21
-10940.000000000009
 31
0.0
  0
LINE
  5
18F
100
AcDbEntity
100
AcDbLine
  8
0
 62
256
370
-1
  6
ByLayer
 10
20714.999999999993
 20
-10815.000000000011
 30
0.0
 11
20714.999999999996
 21
-10100.000000000007
 31
0.0
  0
LINE
  5
190
100
AcDbEntity
100
AcDbLine
  8
0
 62
256
370
-1
  6
ByLayer
 10
20714.999999999996
 20
-10100.000000000007
 30
0.0
 11
20760.000000000004
 21
-10099.999999999995
 31
0.0
  0
LINE
  5
191
100
AcDbEntity
100
AcDbLine
  8
0
 62
256
370
-1
  6
ByLayer
 10
20760.000000000004
 20
-10099.999999999995
 30
0.0
 11
20759.999999999996
 21
-10815.000000000009
 31
0.0
  0
LINE
  5
192
100
AcDbEntity
100
AcDbLine
  8
0
 62
256
370
-1
  6
ByLayer
 10
20759.999999999996
 20
-10815.000000000009
 30
0.0
 11
20714.999999999993
 21
-10815.000000000011
 31
0.0
  0
LINE
  5
193
100
AcDbEntity
100
AcDbLine
  8
0
 62
256
370
-1
  6
ByLayer
 10
22100.0
 20
-10815.000000000005
 30
0.0
 11
22100.0
 21
-10100.000000000002
 31
0.0
  0
LINE
  5
194
100
AcDbEntity
100
AcDbLine
  8
0
 62
256
370
-1
  6
ByLayer
 10
22100.0
 20
-10100.000000000002
 30
0.0
 11
22145.000000000004
 21
-10099.999999999995
 31
0.0
  0
LINE
  5
195
100
AcDbEntity
100
AcDbLine
  8
0
 62
256
370
-1
  6
ByLayer
 10
22145.000000000004
 20
-10099.999999999995
 30
0.0
 11
22144.999999999996
 21
-10815.000000000007
 31
0.0
  0
ARC
  5
196
100
AcDbEntity
  8
0
 62
256
370
-1
  6
ByLayer
100
AcDbCircle
 10
20714.999999999993
 20
-10815.000000000011
 30
0.0
 40
715.0
100
AcDbArc
 50
0.0
 51
86.39872188277657
  0
ARC
  5
197
100
AcDbEntity
  8
0
 62
256
370
-1
  6
ByLayer
100
AcDbCircle
 10
22144.999999999996
 20
-10815.000000000007
 30
0.0
 40
715.0
100
AcDbArc
 50
93.601278117223444
 51
180.0
  0
LINE
  5
198
100
AcDbEntity
100
AcDbLine
  8
0
 62
256
370
-1
  6
ByLayer
 10
20714.999999999993
 20
-10815.000000000011
 30
0.0
 11
20714.999999999993
 21
-10860.000000000002
 31
0.0
  0
LINE
  5
199
100
AcDbEntity
100
AcDbLine
  8
0
 62
256
370
-1
  6
ByLayer
 10
20714.999999999996
 20
-10910.000000000007
 30
0.0
 11
20714.999999999996
 21
-10940.000000000009
 31
0.0
  0
ENDBLK
  5
19A
100
AcDbEntity
  8
0
100
AcDbBlockEnd
  0
BLOCK
  5
19B
100
AcDbEntity
  8
0
100
AcDbBlockBegin
  2
Int door double 1500-3
 70
0
 10
0.0
 20
0.0
 30
0.0
  3
Int door double 1500-3
  1

  0
LINE
  5
19C
100
AcDbEntity
100
AcDbLine
  8
0
 62
256
370
-1
  6
ByLayer
 10
22180.000000000004
 20
-10814.999999999989
 30
0.0
 11
22179.999999999996
 21
-10940.000000000005
 31
0.0
  0
LINE
  5
19D
100
AcDbEntity
100
AcDbLine
  8
0
 62
256
370
-1
  6
ByLayer
 10
22179.999999999996
 20
-10940.000000000005
 30
0.0
 11
22145.000000000004
 21
-10939.999999999995
 31
0.0
  0
LINE
  5
19E
100
AcDbEntity
100
AcDbLine
  8
0
 62
256
370
-1
  6
ByLayer
 10
22119.999999999996
 20
-10860.000000000007
 30
0.0
 11
22120.000000000004
 21
-10910.0
 31
0.0
  0
LINE
  5
19F
100
AcDbEntity
100
AcDbLine
  8
0
 62
256
370
-1
  6
ByLayer
 10
22120.000000000004
 20
-10910.0
 30
0.0
 11
22145.0
 21
-10910.0
 31
0.0
  0
LINE
  5
1A0
100
AcDbEntity
100
AcDbLine
  8
0
 62
256
370
-1
  6
ByLayer
 10
22180.000000000004
 20
-10814.999999999989
 30
0.0
 11
22144.999999999996
 21
-10815.000000000007
 31
0.0
  0
LINE
  5
1A1
100
AcDbEntity
100
AcDbLine
  8
0
 62
256
370
-1
  6
ByLayer
 10
22119.999999999996
 20
-10860.000000000007
 30
0.0
 11
22145.0
 21
-10860.000000000002
 31
0.0
  0
LINE
  5
1A2
100
AcDbEntity
100
AcDbLine
  8
0
 62
256
370
-1
  6
ByLayer
 10
22145.0
 20
-10860.000000000002
 30
0.0
 11
22144.999999999996
 21
-10815.000000000007
 31
0.0
  0
LINE
  5
1A3
100
AcDbEntity
100
AcDbLine
  8
0
 62
256
370
-1
  6
ByLayer
 10
22145.0
 20
-10910.0
 30
0.0
 11
22145.000000000004
 21
-10939.999999999995
 31
0.0
  0
LINE
  5
1A4
100
AcDbEntity
100
AcDbLine
  8
0
 62
256
370
-1
  6
ByLayer
 10
22144.999999999996
 20
-10815.000000000007
 30
0.0
 11
22100.0
 21
-10815.000000000005
 31
0.0
  0
LINE
  5
1A5
100
AcDbEntity
100
AcDbLine
  8
0
 62
256
370
-1
  6
ByLayer
 10
20680.0
 20
-10939.999999999995
 30
0.0
 11
20679.999999999996
 21
-10815.000000000004
 31
0.0
  0
LINE
  5
1A6
100
AcDbEntity
100
AcDbLine
  8
0
 62
256
370
-1
  6
ByLayer
 10
20679.999999999996
 20
-10815.000000000004
 30
0.0
 11
20714.999999999993
 21
-10815.000000000011
 31
0.0
  0
LINE
  5
1A7
100
AcDbEntity
100
AcDbLine
  8
0
 62
256
370
-1
  6
ByLayer
 10
20739.999999999996
 20
-10910.000000000009
 30
0.0
 11
20740.0
 21
-10860.0
 31
0.0
  0
LINE
  5
1A8
100
AcDbEntity
100
AcDbLine
  8
0
 62
256
370
-1
  6
ByLayer
 10
20740.0
 20
-10860.0
 30
0.0
 11
20715.0
 21
-10860.000000000002
 31
0.0
  0
LINE
  5
1A9
100
AcDbEntity
100
AcDbLine
  8
0
 62
256
370
-1
  6
ByLayer
 10
20714.999999999993
 20
-10910.000000000007
 30
0.0
 11
20739.999999999996
 21
-10910.000000000009
 31
0.0
  0
LINE
  5
1AA
100
AcDbEntity
100
AcDbLine
  8
0
 62
256
370
-1
  6
ByLayer
 10
20680.0
 20
-10939.999999999995
 30
0.0
 11
20714.999999999996
 21
-10940.000000000009
 31
0.0
  0
LINE
  5
1AB
100
AcDbEntity
100
AcDbLine
  8
0
 62
256
370
-1
  6
ByLayer
 10
20714.999999999993
 20
-10815.000000000011
 30
0.0
 11
20714.999999999996
 21
-10100.000000000007
 31
0.0
  0
LINE
  5
1AC
100
AcDbEntity
100
AcDbLine
  8
0
 62
256
370
-1
  6
ByLayer
 10
20714.999999999996
 20
-10100.000000000007
 30
0.0
 11
20760.000000000004
 21
-10099.999999999995
 31
0.0
  0
LINE
  5
1AD
100
AcDbEntity
100
AcDbLine
  8
0
 62
256
370
-1
  6
ByLayer
 10
20760.000000000004
 20
-10099.999999999995
 30
0.0
 11
20759.999999999996
 21
-10815.000000000009
 31
0.0
  0
LINE
  5
1AE
100
AcDbEntity
100
AcDbLine
  8
0
 62
256
370
-1
  6
ByLayer
 10
20759.999999999996
 20
-10815.000000000009
 30
0.0
 11
20714.999999999993
 21
-10815.000000000011
 31
0.0
  0
LINE
  5
1AF
100
AcDbEntity
100
AcDbLine
  8
0
 62
256
370
-1
  6
ByLayer
 10
22100.0
 20
-10815.000000000005
 30
0.0
 11
22100.0
 21
-10100.000000000002
 31
0.0
  0
LINE
  5
1B0
100
AcDbEntity
100
AcDbLine
  8
0
 62
256
370
-1
  6
ByLayer
 10
22100.0
 20
-10100.000000000002
 30
0.0
 11
22145.000000000004
 21
-10099.999999999995
 31
0.0
  0
LINE
  5
1B1
100
AcDbEntity
100
AcDbLine
  8
0
 62
256
370
-1
  6
ByLayer
 10
22145.000000000004
 20
-10099.999999999995
 30
0.0
 11
22144.999999999996
 21
-10815.000000000007
 31
0.0
  0
ARC
  5
1B2
100
AcDbEntity
  8
0
 62
256
370
-1
  6
ByLayer
100
AcDbCircle
 10
20714.999999999993
 20
-10815.000000000011
 30
0.0
 40
715.0
100
AcDbArc
 50
0.0
 51
86.39872188277657
  0
ARC
  5
1B3
100
AcDbEntity
  8
0
 62
256
370
-1
  6
ByLayer
100
AcDbCircle
 10
22144.999999999996
 20
-10815.000000000007
 30
0.0
 40
715.0
100
AcDbArc
 50
93.601278117223444
 51
180.0
  0
LINE
  5
1B4
100
AcDbEntity
100
AcDbLine
  8
0
 62
256
370
-1
  6
ByLayer
 10
20714.999999999993
 20
-10815.000000000011
 30
0.0
 11
20714.999999999993
 21
-10860.000000000002
 31
0.0
  0
LINE
  5
1B5
100
AcDbEntity
100
AcDbLine
  8
0
 62
256
370
-1
  6
ByLayer
 10
20714.999999999996
 20
-10910.000000000007
 30
0.0
 11
20714.999999999996
 21
-10940.000000000009
 31
0.0
  0
ENDBLK
  5
1B6
100
AcDbEntity
  8
0
100
AcDbBlockEnd
  0
BLOCK
  5
1B7
100
AcDbEntity
  8
0
100
AcDbBlockBegin
  2
Int door RH 800-2
 70
0
 10
0.0
 20
0.0
 30
0.0
  3
Int door RH 800-2
  1

  0
INSERT
  5
1B8
100
AcDbEntity
100
AcDbBlockReference
  8
0
 62
256
370
-1
  6
ByLayer
  2
Ext door RH 900-0
 10
100.0
 20
-400.0
 30
0.0
  0
ENDBLK
  5
1B9
100
AcDbEntity
  8
0
100
AcDbBlockEnd
  0
BLOCK
  5
1BA
100
AcDbEntity
  8
0
100
AcDbBlockBegin
  2
Simple ext door 900-0
 70
0
 10
0.0
 20
0.0
 30
0.0
  3
Simple ext door 900-0
  1

  0
LINE
  5
1BB
100
AcDbEntity
100
AcDbLine
  8
0
 62
256
370
-1
  6
ByLayer
 10
200.0
 20
99.999999999999986
 30
0.0
 11
200.0
 21
225.0
 31
0.0
  0
LINE
  5
1BC
100
AcDbEntity
100
AcDbLine
  8
0
 62
256
370
-1
  6
ByLayer
 10
200.0
 20
225.0
 30
0.0
 11
245.0
 21
225.0
 31
0.0
  0
LINE
  5
1BD
100
AcDbEntity
100
AcDbLine
  8
0
 62
256
370
-1
  6
ByLayer
 10
245.0
 20
225.0
 30
0.0
 11
245.0
 21
100.0
 31
0.0
  0
LINE
  5
1BE
100
AcDbEntity
100
AcDbLine
  8
0
 62
256
370
-1
  6
ByLayer
 10
1100.0
 20
100.00000000000011
 30
0.0
 11
1100.0
 21
225.00000000000023
 31
0.0
  0
LINE
  5
1BF
100
AcDbEntity
100
AcDbLine
  8
0
 62
256
370
-1
  6
ByLayer
 10
1100.0
 20
225.00000000000023
 30
0.0
 11
1055.0
 21
225.00000000000003
 31
0.0
  0
LINE
  5
1C0
100
AcDbEntity
100
AcDbLine
  8
0
 62
256
370
-1
  6
ByLayer
 10
1055.0
 20
225.00000000000003
 30
0.0
 11
1055.0
 21
100.00000000000037
 31
0.0
  0
LINE
  5
1C1
100
AcDbEntity
100
AcDbLine
  8
0
 62
256
370
-1
  6
ByLayer
 10
1055.0
 20
100.00000000000037
 30
0.0
 11
1100.0
 21
100.00000000000011
 31
0.0
  0
LINE
  5
1C2
100
AcDbEntity
100
AcDbLine
  8
0
 62
256
370
-1
  6
ByLayer
 10
245.0
 20
225.0
 30
0.0
 11
245.0
 21
1035.0
 31
0.0
  0
ARC
  5
1C3
100
AcDbEntity
  8
0
 62
256
370
-1
  6
ByLayer
100
AcDbCircle
 10
245.0
 20
225.0
 30
0.0
 40
810.0
100
AcDbArc
 50
0.0
 51
90.0
  0
LINE
  5
1C4
100
AcDbEntity
100
AcDbLine
  8
0
 62
256
370
-1
  6
ByLayer
 10
245.0
 20
100.0
 30
0.0
 11
200.0
 21
99.999999999999986
 31
0.0
  0
ENDBLK
  5
1C5
100
AcDbEntity
  8
0
100
AcDbBlockEnd
  0
BLOCK
  5
1C6
100
AcDbEntity
  8
0
100
AcDbBlockBegin
  2
Window 900
 70
0
 10
0.0
 20
0.0
 30
0.0
  3
Window 900
  1

  0
LINE
  5
1C7
100
AcDbEntity
100
AcDbLine
  8
0
 62
256
370
-1
  6
ByLayer
 10
0.0
 20
120.0
 30
0.0
 11
45.0
 21
120.0
 31
0.0
  0
LINE
  5
1C8
100
AcDbEntity
100
AcDbLine
  8
0
 62
256
370
-1
  6
ByLayer
 10
900.0
 20
120.0
 30
0.0
 11
855.0
 21
120.0
 31
0.0
  0
LINE
  5
1C9
100
AcDbEntity
100
AcDbLine
  8
0
 62
256
370
-1
  6
ByLayer
 10
45.0
 20
120.0
 30
0.0
 11
855.0
 21
120.0
 31
0.0
  0
LINE
  5
1CA
100
AcDbEntity
100
AcDbLine
  8
0
 62
256
370
-1
  6
ByLayer
 10
45.0
 20
70.0
 30
0.0
 11
855.0
 21
70.0
 31
0.0
  0
LINE
  5
1CB
100
AcDbEntity
100
AcDbLine
  8
0
 62
256
370
-1
  6
ByLayer
 10
855.0
 20
50.0
 30
0.0
 11
45.0
 21
50.0
 31
0.0
  0
LINE
  5
1CC
100
AcDbEntity
100
AcDbLine
  8
0
 62
256
370
-1
  6
ByLayer
 10
45.0
 20
120.0
 30
0.0
 11
45.0
 21
0.0
 31
0.0
  0
LINE
  5
1CD
100
AcDbEntity
100
AcDbLine
  8
0
 62
256
370
-1
  6
ByLayer
 10
855.0
 20
120.0
 30
0.0
 11
855.0
 21
0.0
 31
0.0
  0
LINE
  5
1CE
100
AcDbEntity
100
AcDbLine
  8
0
 62
256
370
-1
  6
ByLayer
 10
900.0
 20
0.0
 30
0.0
 11
900.0
 21
120.0
 31
0.0
  0
LINE
  5
1CF
100
AcDbEntity
100
AcDbLine
  8
0
 62
256
370
-1
  6
ByLayer
 10
0.0
 20
0.0
 30
0.0
 11
900.0
 21
0.0
 31
0.0
  0
LINE
  5
1D0
100
AcDbEntity
100
AcDbLine
  8
0
 62
256
370
-1
  6
ByLayer
 10
0.0
 20
0.0
 30
0.0
 11
0.0
 21
120.0
 31
0.0
  0
LINE
  5
1D1
100
AcDbEntity
100
AcDbLine
  8
0
 62
256
370
-1
  6
ByLayer
 10
0.0
 20
0.0
 30
0.0
 11
0.0
 21
-120.0
 31
0.0
  0
LINE
  5
1D2
100
AcDbEntity
100
AcDbLine
  8
0
 62
256
370
-1
  6
ByLayer
 10
0.0
 20
-120.0
 30
0.0
 11
900.0
 21
-120.0
 31
0.0
  0
LINE
  5
1D3
100
AcDbEntity
100
AcDbLine
  8
0
 62
256
370
-1
  6
ByLayer
 10
900.0
 20
0.0
 30
0.0
 11
900.0
 21
-120.0
 31
0.0
  0
LINE
  5
1D4
100
AcDbEntity
100
AcDbLine
  8
0
 62
256
370
-1
  6
ByLayer
 10
0.0
 20
120.0
 30
0.0
 11
0.0
 21
110.0
 31
0.0
  0
LINE
  5
1D5
100
AcDbEntity
100
AcDbLine
  8
0
 62
256
370
-1
  6
ByLayer
 10
0.0
 20
120.0
 30
0.0
 11
0.0
 21
220.0
 31
0.0
  0
LINE
  5
1D6
100
AcDbEntity
100
AcDbLine
  8
0
 62
256
370
-1
  6
ByLayer
 10
900.0
 20
120.0
 30
0.0
 11
900.0
 21
220.0
 31
0.0
  0
LINE
  5
1D7
100
AcDbEntity
100
AcDbLine
  8
0
 62
256
370
-1
  6
ByLayer
 10
0.0
 20
220.0
 30
0.0
 11
900.0
 21
220.0
 31
0.0
  0
ENDBLK
  5
1D8
100
AcDbEntity
  8
0
100
AcDbBlockEnd
  0
BLOCK
  5
1D9
100
AcDbEntity
  8
0
100
AcDbBlockBegin
  2
Window 1350
 70
0
 10
0.0
 20
0.0
 30
0.0
  3
Window 1350
  1

  0
LINE
  5
1DA
100
AcDbEntity
100
AcDbLine
  8
0
 62
256
370
-1
  6
ByLayer
 10
0.0000000000000073
 20
120.0
 30
0.0
 11
45.0
 21
120.0
 31
0.0
  0
LINE
  5
1DB
100
AcDbEntity
100
AcDbLine
  8
0
 62
256
370
-1
  6
ByLayer
 10
900.0
 20
120.00000000000003
 30
0.0
 11
855.0
 21
120.00000000000028
 31
0.0
  0
LINE
  5
1DC
100
AcDbEntity
100
AcDbLine
  8
0
 62
256
370
-1
  6
ByLayer
 10
45.0
 20
120.0
 30
0.0
 11
855.0
 21
120.00000000000028
 31
0.0
  0
LINE
  5
1DD
100
AcDbEntity
100
AcDbLine
  8
0
 62
256
370
-1
  6
ByLayer
 10
45.000000000000007
 20
70.0
 30
0.0
 11
855.0
 21
70.000000000000398
 31
0.0
  0
LINE
  5
1DE
100
AcDbEntity
100
AcDbLine
  8
0
 62
256
370
-1
  6
ByLayer
 10
855.0
 20
49.999999999999659
 30
0.0
 11
45.0
 21
50.000000000000007
 31
0.0
  0
LINE
  5
1DF
100
AcDbEntity
100
AcDbLine
  8
0
 62
256
370
-1
  6
ByLayer
 10
45.0
 20
120.0
 30
0.0
 11
45.0
 21
0.0
 31
0.0
  0
LINE
  5
1E0
100
AcDbEntity
100
AcDbLine
  8
0
 62
256
370
-1
  6
ByLayer
 10
855.0
 20
120.00000000000028
 30
0.0
 11
855.0
 21
0.0
 31
0.0
  0
LINE
  5
1E1
100
AcDbEntity
100
AcDbLine
  8
0
 62
256
370
-1
  6
ByLayer
 10
900.0
 20
0.0
 30
0.0
 11
900.0
 21
120.00000000000003
 31
0.0
  0
LINE
  5
1E2
100
AcDbEntity
100
AcDbLine
  8
0
 62
256
370
-1
  6
ByLayer
 10
0.0
 20
0.0
 30
0.0
 11
900.0
 21
0.0
 31
0.0
  0
LINE
  5
1E3
100
AcDbEntity
100
AcDbLine
  8
0
 62
256
370
-1
  6
ByLayer
 10
0.0
 20
0.0
 30
0.0
 11
0.0000000000000073
 21
120.0
 31
0.0
  0
LINE
  5
1E4
100
AcDbEntity
100
AcDbLine
  8
0
 62
256
370
-1
  6
ByLayer
 10
0.0
 20
0.0
 30
0.0
 11
-0.000000000000022
 21
-120.0
 31
0.0
  0
LINE
  5
1E5
100
AcDbEntity
100
AcDbLine
  8
0
 62
256
370
-1
  6
ByLayer
 10
-0.000000000000022
 20
-120.0
 30
0.0
 11
900.0
 21
-119.99999999999994
 31
0.0
  0
LINE
  5
1E6
100
AcDbEntity
100
AcDbLine
  8
0
 62
256
370
-1
  6
ByLayer
 10
0.0000000000000073
 20
120.0
 30
0.0
 11
0.0000000000000067
 21
110.0
 31
0.0
  0
LINE
  5
1E7
100
AcDbEntity
100
AcDbLine
  8
0
 62
256
370
-1
  6
ByLayer
 10
0.0000000000000073
 20
120.0
 30
0.0
 11
0.0000000000000135
 21
220.0
 31
0.0
  0
LINE
  5
1E8
100
AcDbEntity
100
AcDbLine
  8
0
 62
256
370
-1
  6
ByLayer
 10
0.0000000000000135
 20
220.0
 30
0.0
 11
900.0
 21
219.99999999999972
 31
0.0
  0
LINE
  5
1E9
100
AcDbEntity
100
AcDbLine
  8
0
 62
256
370
-1
  6
ByLayer
 10
900.0
 20
219.99999999999969
 30
0.0
 11
1350.0
 21
219.99999999999969
 31
0.0
  0
LINE
  5
1EA
100
AcDbEntity
100
AcDbLine
  8
0
 62
256
370
-1
  6
ByLayer
 10
900.0
 20
120.00000000000003
 30
0.0
 11
1350.0
 21
120.0
 31
0.0
  0
LINE
  5
1EB
100
AcDbEntity
100
AcDbLine
  8
0
 62
256
370
-1
  6
ByLayer
 10
900.0
 20
0.0
 30
0.0
 11
1350.0
 21
0.0
 31
0.0
  0
LINE
  5
1EC
100
AcDbEntity
100
AcDbLine
  8
0
 62
256
370
-1
  6
ByLayer
 10
900.0
 20
-119.99999999999994
 30
0.0
 11
1350.0
 21
-120.0
 31
0.0
  0
LINE
  5
1ED
100
AcDbEntity
100
AcDbLine
  8
0
 62
256
370
-1
  6
ByLayer
 10
1350.0
 20
219.99999999999969
 30
0.0
 11
1350.0
 21
-120.0
 31
0.0
  0
LINE
  5
1EE
100
AcDbEntity
100
AcDbLine
  8
0
 62
256
370
-1
  6
ByLayer
 10
1305.0
 20
119.99999999999997
 30
0.0
 11
1305.0
 21
0.0000000000000089
 31
0.0
  0
LINE
  5
1EF
100
AcDbEntity
100
AcDbLine
  8
0
 62
256
370
-1
  6
ByLayer
 10
900.0
 20
70.000000000000355
 30
0.0
 11
1305.0
 21
70.000000000000014
 31
0.0
  0
LINE
  5
1F0
100
AcDbEntity
100
AcDbLine
  8
0
 62
256
370
-1
  6
ByLayer
 10
900.0
 20
49.999999999999694
 30
0.0
 11
1305.0
 21
49.999999999999986
 31
0.0
  0
ENDBLK
  5
1F1
100
AcDbEntity
  8
0
100
AcDbBlockEnd
  0
BLOCK
  5
1F2
100
AcDbEntity
  8
0
100
AcDbBlockBegin
  2
window 1350-0
 70
0
 10
0.0
 20
0.0
 30
0.0
  3
window 1350-0
  1

  0
INSERT
  5
1F3
100
AcDbEntity
100
AcDbBlockReference
  8
0
 62
256
370
-1
  6
ByLayer
  2
Window 1350
 10
0.0
 20
10.0
 30
0.0
  0
ENDBLK
  5
1F4
100
AcDbEntity
  8
0
100
AcDbBlockEnd
  0
BLOCK
  5
1F5
100
AcDbEntity
  8
0
100
AcDbBlockBegin
  2
Window 1800
 70
0
 10
0.0
 20
0.0
 30
0.0
  3
Window 1800
  1

  0
LINE
  5
1F6
100
AcDbEntity
100
AcDbLine
  8
0
 62
256
370
-1
  6
ByLayer
 10
0.0000000000000073
 20
120.0
 30
0.0
 11
45.0
 21
120.0
 31
0.0
  0
LINE
  5
1F7
100
AcDbEntity
100
AcDbLine
  8
0
 62
256
370
-1
  6
ByLayer
 10
900.0
 20
120.00000000000003
 30
0.0
 11
855.0
 21
120.00000000000028
 31
0.0
  0
LINE
  5
1F8
100
AcDbEntity
100
AcDbLine
  8
0
 62
256
370
-1
  6
ByLayer
 10
45.0
 20
120.0
 30
0.0
 11
855.0
 21
120.00000000000028
 31
0.0
  0
LINE
  5
1F9
100
AcDbEntity
100
AcDbLine
  8
0
 62
256
370
-1
  6
ByLayer
 10
45.000000000000007
 20
70.0
 30
0.0
 11
855.0
 21
70.000000000000398
 31
0.0
  0
LINE
  5
1FA
100
AcDbEntity
100
AcDbLine
  8
0
 62
256
370
-1
  6
ByLayer
 10
855.0
 20
49.999999999999659
 30
0.0
 11
45.0
 21
50.000000000000007
 31
0.0
  0
LINE
  5
1FB
100
AcDbEntity
100
AcDbLine
  8
0
 62
256
370
-1
  6
ByLayer
 10
45.0
 20
120.0
 30
0.0
 11
45.0
 21
0.0
 31
0.0
  0
LINE
  5
1FC
100
AcDbEntity
100
AcDbLine
  8
0
 62
256
370
-1
  6
ByLayer
 10
855.0
 20
120.00000000000028
 30
0.0
 11
855.0
 21
0.0
 31
0.0
  0
LINE
  5
1FD
100
AcDbEntity
100
AcDbLine
  8
0
 62
256
370
-1
  6
ByLayer
 10
900.0
 20
0.0
 30
0.0
 11
900.0
 21
120.00000000000003
 31
0.0
  0
LINE
  5
1FE
100
AcDbEntity
100
AcDbLine
  8
0
 62
256
370
-1
  6
ByLayer
 10
0.0
 20
0.0
 30
0.0
 11
900.0
 21
0.0
 31
0.0
  0
LINE
  5
1FF
100
AcDbEntity
100
AcDbLine
  8
0
 62
256
370
-1
  6
ByLayer
 10
0.0
 20
0.0
 30
0.0
 11
0.0000000000000073
 21
120.0
 31
0.0
  0
LINE
  5
200
100
AcDbEntity
100
AcDbLine
  8
0
 62
256
370
-1
  6
ByLayer
 10
0.0
 20
0.0
 30
0.0
 11
-0.000000000000022
 21
-120.0
 31
0.0
  0
LINE
  5
201
100
AcDbEntity
100
AcDbLine
  8
0
 62
256
370
-1
  6
ByLayer
 10
-0.000000000000022
 20
-120.0
 30
0.0
 11
900.0
 21
-119.99999999999994
 31
0.0
  0
LINE
  5
202
100
AcDbEntity
100
AcDbLine
  8
0
 62
256
370
-1
  6
ByLayer
 10
0.0000000000000073
 20
120.0
 30
0.0
 11
0.0000000000000067
 21
110.0
 31
0.0
  0
LINE
  5
203
100
AcDbEntity
100
AcDbLine
  8
0
 62
256
370
-1
  6
ByLayer
 10
0.0000000000000073
 20
120.0
 30
0.0
 11
0.0000000000000135
 21
220.0
 31
0.0
  0
LINE
  5
204
100
AcDbEntity
100
AcDbLine
  8
0
 62
256
370
-1
  6
ByLayer
 10
0.0000000000000135
 20
220.0
 30
0.0
 11
900.0
 21
219.99999999999972
 31
0.0
  0
LINE
  5
205
100
AcDbEntity
100
AcDbLine
  8
0
 62
256
370
-1
  6
ByLayer
 10
900.0
 20
219.99999999999972
 30
0.0
 11
1800.0
 21
220.00000000000071
 31
0.0
  0
LINE
  5
206
100
AcDbEntity
100
AcDbLine
  8
0
 62
256
370
-1
  6
ByLayer
 10
900.0
 20
120.00000000000003
 30
0.0
 11
1800.0
 21
120.00000000000102
 31
0.0
  0
LINE
  5
207
100
AcDbEntity
100
AcDbLine
  8
0
 62
256
370
-1
  6
ByLayer
 10
900.0
 20
0.0
 30
0.0
 11
1800.0
 21
0.0
 31
0.0
  0
LINE
  5
208
100
AcDbEntity
100
AcDbLine
  8
0
 62
256
370
-1
  6
ByLayer
 10
900.0
 20
-119.99999999999994
 30
0.0
 11
1800.0
 21
-120.00000000000091
 31
0.0
  0
LINE
  5
209
100
AcDbEntity
100
AcDbLine
  8
0
 62
256
370
-1
  6
ByLayer
 10
1800.0
 20
220.00000000000071
 30
0.0
 11
1800.0
 21
-120.00000000000091
 31
0.0
  0
LINE
  5
20A
100
AcDbEntity
100
AcDbLine
  8
0
 62
256
370
-1
  6
ByLayer
 10
1755.0
 20
119.99999999999949
 30
0.0
 11
1755.0
 21
0.0
 31
0.0
  0
LINE
  5
20B
100
AcDbEntity
100
AcDbLine
  8
0
 62
256
370
-1
  6
ByLayer
 10
900.0
 20
69.999999999999332
 30
0.0
 11
1755.0
 21
70.00000000000027
 31
0.0
  0
LINE
  5
20C
100
AcDbEntity
100
AcDbLine
  8
0
 62
256
370
-1
  6
ByLayer
 10
900.0
 20
50.000000000000711
 30
0.0
 11
1755.0
 21
50.000000000001116
 31
0.0
  0
ENDBLK
  5
20D
100
AcDbEntity
  8
0
100
AcDbBlockEnd
  0
BLOCK
  5
20E
100
AcDbEntity
  8
0
100
AcDbBlockBegin
  2
window 1800-0
 70
0
 10
0.0
 20
0.0
 30
0.0
  3
window 1800-0
  1

  0
INSERT
  5
20F
100
AcDbEntity
100
AcDbBlockReference
  8
0
 62
256
370
-1
  6
ByLayer
  2
Window 1800
 10
0.0
 20
10.0
 30
0.0
  0
ENDBLK
  5
210
100
AcDbEntity
  8
0
100
AcDbBlockEnd
  0
BLOCK
  5
211
100
AcDbEntity
  8
0
100
AcDbBlockBegin
  2
window 900-0
 70
0
 10
0.0
 20
0.0
 30
0.0
  3
window 900-0
  1

  0
INSERT
  5
212
100
AcDbEntity
100
AcDbBlockReference
  8
0
 62
256
370
-1
  6
ByLayer
  2
Window 900
 10
0.0
 20
10.0
 30
0.0
  0
ENDBLK
  5
213
100
AcDbEntity
  8
0
100
AcDbBlockEnd
  0
ENDSEC
  0
SECTION
  2
ENTITIES
  0
INSERT
  5
214
100
AcDbEntity
100
AcDbBlockReference
  8
0
 62
256
370
-1
  6
ByLayer
  2
window 900-0
 10
-0.0000000000000006
 20
-10.0
 30
0.0
  0
ENDSEC
  0
SECTION
  2
OBJECTS
  0
DICTIONARY
  5
C
100
AcDbDictionary
280
0
281
1
  3
ACAD_GROUP
350
D
  3
ACAD_LAYOUT
350
1A
  3
ACAD_MLINESTYLE
350
17
  3
ACAD_PLOTSETTINGS
350
19
  3
ACAD_PLOTSTYLENAME
350
E
  3
AcDbVariableDictionary
350
215
  0
DICTIONARY
  5
D
100
AcDbDictionary
280
0
281
1
  0
ACDBDICTIONARYWDFLT
  5
E
100
AcDbDictionary
281
1
  3
Normal
350
F
100
AcDbDictionaryWithDefault
340
F
  0
ACDBPLACEHOLDER
  5
F
  0
DICTIONARY
  5
17
100
AcDbDictionary
280
0
281
1
  3
Standard
350
18
  0
MLINESTYLE
  5
18
100
AcDbMlineStyle
  2
STANDARD
 70
0
  3

 62
256
 51
90.0
 52
90.0
 71
2
 49
0.5
 62
256
  6
BYLAYER
 49
-0.5
 62
256
  6
BYLAYER
  0
DICTIONARY
  5
19
100
AcDbDictionary
280
0
281
1
  0
DICTIONARY
  5
1A
100
AcDbDictionary
281
1
  3
Layout1
350
1E
  3
Layout2
350
26
  3
Model
350
22
  0
LAYOUT
  5
1E
100
AcDbPlotSettings
  1

  2
C:\Program Files\AutoCAD 2002\plotters\DWF ePlot (optimized for plotting).pc3
  4

  6

 40
0.0
 41
0.0
 42
0.0
 43
0.0
 44
0.0
 45
0.0
 46
0.0
 47
0.0
 48
0.0
 49
0.0
140
0.0
141
0.0
142
1.0
143
1.0
 70
688
 72
0
 73
0
 74
5
  7

 75
16
147
1.0
148
0.0
149
0.0
100
AcDbLayout
  1
Layout1
 70
1
 71
1
 10
0.0
 20
0.0
 11
420.0
 21
297.0
 12
0.0
 22
0.0
 32
0.0
 14
100000000000000000000.0
 24
100000000000000000000.0
 34
100000000000000000000.0
 15
-100000000000000000000.0
 25
-100000000000000000000.0
 35
-100000000000000000000.0
146
0.0
 13
0.0
 23
0.0
 33
0.0
 16
1.0
 26
0.0
 36
0.0
 17
0.0
 27
1.0
 37
0.0
 76
0
330
1B
  0
LAYOUT
  5
22
100
AcDbPlotSettings
  1

  2
C:\Program Files\AutoCAD 2002\plotters\DWF ePlot (optimized for plotting).pc3
  4

  6

 40
0.0
 41
0.0
 42
0.0
 43
0.0
 44
0.0
 45
0.0
 46
0.0
 47
0.0
 48
0.0
 49
0.0
140
0.0
141
0.0
142
1.0
143
1.0
 70
1712
 72
0
 73
0
 74
0
  7

 75
0
147
1.0
148
0.0
149
0.0
100
AcDbLayout
  1
Model
 70
1
 71
0
 10
0.0
 20
0.0
 11
12.0
 21
9.0
 12
0.0
 22
0.0
 32
0.0
 14
0.0
 24
0.0
 34
0.0
 15
0.0
 25
0.0
 35
0.0
146
0.0
 13
0.0
 23
0.0
 33
0.0
 16
1.0
 26
0.0
 36
0.0
 17
0.0
 27
1.0
 37
0.0
 76
0
330
1F
  0
LAYOUT
  5
26
100
AcDbPlotSettings
  1

  2
C:\Program Files\AutoCAD 2002\plotters\DWF ePlot (optimized for plotting).pc3
  4

  6

 40
0.0
 41
0.0
 42
0.0
 43
0.0
 44
0.0
 45
0.0
 46
0.0
 47
0.0
 48
0.0
 49
0.0
140
0.0
141
0.0
142
1.0
143
1.0
 70
688
 72
0
 73
0
 74
5
  7

 75
16
147
1.0
148
0.0
149
0.0
100
AcDbLayout
  1
Layout2
 70
1
 71
2
 10
0.0
 20
0.0
 11
12.0
 21
9.0
 12
0.0
 22
0.0
 32
0.0
 14
0.0
 24
0.0
 34
0.0
 15
0.0
 25
0.0
 35
0.0
146
0.0
 13
0.0
 23
0.0
 33
0.0
 16
1.0
 26
0.0
 36
0.0
 17
0.0
 27
1.0
 37
0.0
 76
0
330
23
  0
DICTIONARY
  5
215
100
AcDbDictionary
281
1
  3
DIMASSOC
350
217
  3
HIDETEXT
350
216
  0
DICTIONARYVAR
  5
216
100
DictionaryVariables
280
0
  1
2
  0
DICTIONARYVAR
  5
217
100
DictionaryVariables
280
0
  1
1
  0
ENDSEC
  0
EOF
