  0
SECTION
  2
HEADER
  9
$ACADVER
  1
AC1024
  9
$ACADMAINTVER
 70
     6
  9
$DWGCODEPAGE
  3
ASCII
  9
$INSBASE
 10
0.0
 20
0.0
 30
0.0
  9
$EXTMIN
 10
1.000000000000000E+20
 20
1.000000000000000E+20
 30
1.000000000000000E+20
  9
$EXTMAX
 10
-1.000000000000000E+20
 20
-1.000000000000000E+20
 30
-1.000000000000000E+20
  9
$LIMMIN
 10
0.0
 20
0.0
  9
$LIMMAX
 10
12.0
 20
9.0
  9
$ORTHOMODE
 70
     0
  9
$REGENMODE
 70
     1
  9
$FILLMODE
 70
     1
  9
$QTEXTMODE
 70
     0
  9
$MIRRTEXT
 70
     1
  9
$LTSCALE
 40
1.0
  9
$ATTMODE
 70
     1
  9
$TEXTSIZE
 40
2.5
  9
$TRACEWID
 40
0.05
  9
$TEXTSTYLE
  7
Standard
  9
$CLAYER
  8
0
  9
$CELTYPE
  6
ByLayer
  9
$CECOLOR
 62
   178
  9
$CELTSCALE
 40
1.0
  9
$DISPSILH
 70
     0
  9
$DIMSCALE
 40
1.0
  9
$DIMASZ
 40
2.5
  9
$DIMEXO
 40
0.625
  9
$DIMDLI
 40
0.38
  9
$DIMRND
 40
0.0
  9
$DIMDLE
 40
0.0
  9
$DIMEXE
 40
1.25
  9
$DIMTP
 40
0.0
  9
$DIMTM
 40
0.0
  9
$DIMTXT
 40
2.5
  9
$DIMCEN
 40
0.09
  9
$DIMTSZ
 40
0.0
  9
$DIMTOL
 70
     0
  9
$DIMLIM
 70
     0
  9
$DIMTIH
 70
     1
  9
$DIMTOH
 70
     1
  9
$DIMSE1
 70
     0
  9
$DIMSE2
 70
     0
  9
$DIMTAD
 70
     0
  9
$DIMZIN
 70
     8
  9
$DIMBLK
  1

  9
$DIMASO
 70
     1
  9
$DIMSHO
 70
     1
  9
$DIMPOST
  1

  9
$DIMAPOST
  1

  9
$DIMALT
 70
     0
  9
$DIMALTD
 70
     2
  9
$DIMALTF
 40
25.4
  9
$DIMLFAC
 40
1.0
  9
$DIMTOFL
 70
     0
  9
$DIMTVP
 40
0.0
  9
$DIMTIX
 70
     0
  9
$DIMSOXD
 70
     0
  9
$DIMSAH
 70
     0
  9
$DIMBLK1
  1

  9
$DIMBLK2
  1

  9
$DIMSTYLE
  2
Standard
  9
$DIMCLRD
 70
   178
  9
$DIMCLRE
 70
   178
  9
$DIMCLRT
 70
   178
  9
$DIMTFAC
 40
1.0
  9
$DIMGAP
 40
0.625
  9
$DIMJUST
 70
     0
  9
$DIMSD1
 70
     0
  9
$DIMSD2
 70
     0
  9
$DIMTOLJ
 70
     1
  9
$DIMTZIN
 70
     0
  9
$DIMALTZ
 70
     0
  9
$DIMALTTZ
 70
     0
  9
$DIMUPT
 70
     0
  9
$DIMDEC
 70
     4
  9
$DIMTDEC
 70
     4
  9
$DIMALTU
 70
     2
  9
$DIMALTTD
 70
     2
  9
$DIMTXSTY
  7
Standard
  9
$DIMAUNIT
 70
     0
  9
$DIMADEC
 70
     0
  9
$DIMALTRND
 40
0.0
  9
$DIMAZIN
 70
     3
  9
$DIMDSEP
 70
    46
  9
$DIMATFIT
 70
     3
  9
$DIMFRAC
 70
     0
  9
$DIMLDRBLK
  1

  9
$DIMLUNIT
 70
     2
  9
$DIMLWD
 70
    -2
  9
$DIMLWE
 70
    -2
  9
$DIMTMOVE
 70
     0
  9
$DIMFXL
 40
1.0
  9
$DIMFXLON
 70
     0
  9
$DIMJOGANG
 40
0.7853981633974483
  9
$DIMTFILL
 70
     0
  9
$DIMTFILLCLR
 70
     0
  9
$DIMARCSYM
 70
     0
  9
$DIMLTYPE
  6

  9
$DIMLTEX1
  6

  9
$DIMLTEX2
  6

  9
$DIMTXTDIRECTION
 70
     0
  9
$LUNITS
 70
     2
  9
$LUPREC
 70
     4
  9
$SKETCHINC
 40
0.1
  9
$FILLETRAD
 40
0.5
  9
$AUNITS
 70
     0
  9
$AUPREC
 70
     0
  9
$MENU
  1
.
  9
$ELEVATION
 40
0.0
  9
$PELEVATION
 40
0.0
  9
$THICKNESS
 40
0.0
  9
$LIMCHECK
 70
     0
  9
$CHAMFERA
 40
0.5
  9
$CHAMFERB
 40
0.5
  9
$CHAMFERC
 40
1.0
  9
$CHAMFERD
 40
0.0
  9
$SKPOLY
 70
     0
  9
$TDCREATE
 40
2456233.738761562
  9
$TDUCREATE
 40
2456233.697094908
  9
$TDUPDATE
 40
2456233.738761562
  9
$TDUUPDATE
 40
2456233.697094908
  9
$TDINDWG
 40
0.0000000116
  9
$TDUSRTIMER
 40
0.0000000116
  9
$USRTIMER
 70
     1
  9
$ANGBASE
 50
0.0
  9
$ANGDIR
 70
     0
  9
$PDMODE
 70
     0
  9
$PDSIZE
 40
0.0
  9
$PLINEWID
 40
0.0
  9
$SPLFRAME
 70
     0
  9
$SPLINETYPE
 70
     6
  9
$SPLINESEGS
 70
     8
  9
$HANDSEED
  5
33B
  9
$SURFTAB1
 70
     6
  9
$SURFTAB2
 70
     6
  9
$SURFTYPE
 70
     6
  9
$SURFU
 70
     6
  9
$SURFV
 70
     6
  9
$UCSBASE
  2

  9
$UCSNAME
  2

  9
$UCSORG
 10
0.0
 20
0.0
 30
0.0
  9
$UCSXDIR
 10
1.0
 20
0.0
 30
0.0
  9
$UCSYDIR
 10
0.0
 20
1.0
 30
0.0
  9
$UCSORTHOREF
  2

  9
$UCSORTHOVIEW
 70
     0
  9
$UCSORGTOP
 10
0.0
 20
0.0
 30
0.0
  9
$UCSORGBOTTOM
 10
0.0
 20
0.0
 30
0.0
  9
$UCSORGLEFT
 10
0.0
 20
0.0
 30
0.0
  9
$UCSORGRIGHT
 10
0.0
 20
0.0
 30
0.0
  9
$UCSORGFRONT
 10
0.0
 20
0.0
 30
0.0
  9
$UCSORGBACK
 10
0.0
 20
0.0
 30
0.0
  9
$PUCSBASE
  2

  9
$PUCSNAME
  2

  9
$PUCSORG
 10
0.0
 20
0.0
 30
0.0
  9
$PUCSXDIR
 10
1.0
 20
0.0
 30
0.0
  9
$PUCSYDIR
 10
0.0
 20
1.0
 30
0.0
  9
$PUCSORTHOREF
  2

  9
$PUCSORTHOVIEW
 70
     0
  9
$PUCSORGTOP
 10
0.0
 20
0.0
 30
0.0
  9
$PUCSORGBOTTOM
 10
0.0
 20
0.0
 30
0.0
  9
$PUCSORGLEFT
 10
0.0
 20
0.0
 30
0.0
  9
$PUCSORGRIGHT
 10
0.0
 20
0.0
 30
0.0
  9
$PUCSORGFRONT
 10
0.0
 20
0.0
 30
0.0
  9
$PUCSORGBACK
 10
0.0
 20
0.0
 30
0.0
  9
$USERI1
 70
     0
  9
$USERI2
 70
     0
  9
$USERI3
 70
     0
  9
$USERI4
 70
     0
  9
$USERI5
 70
     0
  9
$USERR1
 40
0.0
  9
$USERR2
 40
0.0
  9
$USERR3
 40
0.0
  9
$USERR4
 40
0.0
  9
$USERR5
 40
0.0
  9
$WORLDVIEW
 70
     1
  9
$SHADEDGE
 70
     3
  9
$SHADEDIF
 70
    70
  9
$TILEMODE
 70
     1
  9
$MAXACTVP
 70
    64
  9
$PINSBASE
 10
0.0
 20
0.0
 30
0.0
  9
$PLIMCHECK
 70
     0
  9
$PEXTMIN
 10
1.000000000000000E+20
 20
1.000000000000000E+20
 30
1.000000000000000E+20
  9
$PEXTMAX
 10
-1.000000000000000E+20
 20
-1.000000000000000E+20
 30
-1.000000000000000E+20
  9
$PLIMMIN
 10
0.0
 20
0.0
  9
$PLIMMAX
 10
210.0
 20
297.0
  9
$UNITMODE
 70
     0
  9
$VISRETAIN
 70
     1
  9
$PLINEGEN
 70
     0
  9
$PSLTSCALE
 70
     1
  9
$TREEDEPTH
 70
  3020
  9
$CMLSTYLE
  2
Standard
  9
$CMLJUST
 70
     0
  9
$CMLSCALE
 40
1.0
  9
$PROXYGRAPHICS
 70
     1
  9
$MEASUREMENT
 70
     1
  9
$CELWEIGHT
370
    -1
  9
$ENDCAPS
280
     0
  9
$JOINSTYLE
280
     0
  9
$LWDISPLAY
290
     0
  9
$INSUNITS
 70
     4
  9
$HYPERLINKBASE
  1

  9
$STYLESHEET
  1

  9
$XEDIT
290
     1
  9
$CEPSNTYPE
380
     0
  9
$PSTYLEMODE
290
     1
  9
$FINGERPRINTGUID
  2
{642AC62B-8627-3A96-F5BB-57AC14F267D1}
  9
$VERSIONGUID
  2
{FAEB1C32-E019-11D5-929B-00C0DF256EC4}
  9
$EXTNAMES
290
     1
  9
$PSVPSCALE
 40
0.0
  9
$OLESTARTUP
290
     0
  9
$SORTENTS
280
   127
  9
$INDEXCTL
280
     0
  9
$HIDETEXT
280
     1
  9
$XCLIPFRAME
280
     2
  9
$HALOGAP
280
     0
  9
$OBSCOLOR
 70
   257
  9
$OBSLTYPE
280
     0
  9
$INTERSECTIONDISPLAY
280
     0
  9
$INTERSECTIONCOLOR
 70
   257
  9
$DIMASSOC
280
     2
  9
$PROJECTNAME
  1

  9
$CAMERADISPLAY
290
     0
  9
$LENSLENGTH
 40
50.0
  9
$CAMERAHEIGHT
 40
0.0
  9
$STEPSPERSEC
 40
2.0
  9
$STEPSIZE
 40
6.0
  9
$3DDWFPREC
 40
2.0
  9
$PSOLWIDTH
 40
0.25
  9
$PSOLHEIGHT
 40
4.0
  9
$LOFTANG1
 40
1.570796326794897
  9
$LOFTANG2
 40
1.570796326794897
  9
$LOFTMAG1
 40
0.0
  9
$LOFTMAG2
 40
0.0
  9
$LOFTPARAM
 70
     7
  9
$LOFTNORMALS
280
     1
  9
$LATITUDE
 40
37.795
  9
$LONGITUDE
 40
-122.394
  9
$NORTHDIRECTION
 40
0.0
  9
$TIMEZONE
 70
 -8000
  9
$LIGHTGLYPHDISPLAY
280
     1
  9
$TILEMODELIGHTSYNCH
280
     1
  9
$CMATERIAL
347
264
  9
$SOLIDHIST
280
     1
  9
$SHOWHIST
280
     1
  9
$DWFFRAME
280
     2
  9
$DGNFRAME
280
     2
  9
$REALWORLDSCALE
290
     1
  9
$INTERFERECOLOR
 62
   256
  9
$CSHADOW
280
     0
  9
$SHADOWPLANELOCATION
 40
0.0
  0
ENDSEC
  0
SECTION
  2
CLASSES
  0
CLASS
  1
ACDBDICTIONARYWDFLT
  2
AcDbDictionaryWithDefault
  3
ObjectDBX Classes
 90
        0
 91
        4
280
     0
281
     0
  0
CLASS
  1
VISUALSTYLE
  2
AcDbVisualStyle
  3
ObjectDBX Classes
 90
     4095
 91
        4
280
     0
281
     0
  0
CLASS
  1
MATERIAL
  2
AcDbMaterial
  3
ObjectDBX Classes
 90
     1153
 91
        4
280
     0
281
     0
  0
CLASS
  1
SCALE
  2
AcDbScale
  3
ObjectDBX Classes
 90
     1153
 91
        4
280
     0
281
     0
  0
CLASS
  1
SUN
  2
AcDbSun
  3
SCENEOE
 90
     1153
 91
        4
280
     0
281
     0
  0
CLASS
  1
DICTIONARYVAR
  2
AcDbDictionaryVar
  3
ObjectDBX Classes
 90
        0
 91
        4
280
     0
281
     0
  0
ENDSEC
  0
SECTION
  2
TABLES
  0
TABLE
  2
VPORT
  5
231
330
0
100
AcDbSymbolTable
 70
     1
  0
VPORT
  5
251
330
231
100
AcDbSymbolTableRecord
100
AcDbViewportTableRecord
  2
*Active
 70
     0
 10
0.0
 20
0.0
 11
1.0
 21
1.0
 12
10.42990654205607
 22
4.5
 13
0.0
 23
0.0
 14
0.5
 24
0.5
 15
0.5
 25
0.5
 16
0.0
 26
0.0
 36
1.0
 17
0.0
 27
0.0
 37
0.0
 40
9.0
 41
1.972972972850329
 42
50.0
 43
0.0
 44
0.0
 50
0.0
 51
0.0
 71
     0
 72
   100
 73
     1
 74
     3
 75
     0
 76
     0
 77
     0
 78
     0
281
     0
 65
     1
110
0.0
120
0.0
130
0.0
111
1.0
121
0.0
131
0.0
112
0.0
122
1.0
132
0.0
 79
     0
146
0.0
 60
     3
 61
     5
292
     1
282
     1
141
0.0
142
0.0
 63
   250
361
289
  0
ENDTAB
  0
TABLE
  2
LTYPE
  5
22E
330
0
100
AcDbSymbolTable
 70
    19
  0
LTYPE
  5
23C
330
22E
100
AcDbSymbolTableRecord
100
AcDbLinetypeTableRecord
  2
ByBlock
 70
     0
  3

 72
    65
 73
     0
 40
0.0
  0
LTYPE
  5
23D
330
22E
100
AcDbSymbolTableRecord
100
AcDbLinetypeTableRecord
  2
ByLayer
 70
     0
  3

 72
    65
 73
     0
 40
0.0
  0
LTYPE
  5
23E
330
22E
100
AcDbSymbolTableRecord
100
AcDbLinetypeTableRecord
  2
Continuous
 70
     0
  3
Solid line
 72
    65
 73
     0
 40
0.0
  0
LTYPE
  5
2B8
330
22E
100
AcDbSymbolTableRecord
100
AcDbLinetypeTableRecord
  2
BORDER
 70
     0
  3

 72
    65
 73
     6
 40
42.00000000000001
 49
12.0
 74
     0
 49
-6.0
 74
     0
 49
12.0
 74
     0
 49
-5.95
 74
     0
 49
0.1
 74
     0
 49
-5.95
 74
     0
  0
LTYPE
  5
2B9
330
22E
100
AcDbSymbolTableRecord
100
AcDbLinetypeTableRecord
  2
BORDER2
 70
     0
  3

 72
    65
 73
     6
 40
21.0
 49
6.0
 74
     0
 49
-3.0
 74
     0
 49
6.0
 74
     0
 49
-2.95
 74
     0
 49
0.1
 74
     0
 49
-2.95
 74
     0
  0
LTYPE
  5
2BA
330
22E
100
AcDbSymbolTableRecord
100
AcDbLinetypeTableRecord
  2
BORDERX2
 70
     0
  3

 72
    65
 73
     6
 40
84.0
 49
24.0
 74
     0
 49
-12.0
 74
     0
 49
24.0
 74
     0
 49
-11.95
 74
     0
 49
0.1
 74
     0
 49
-11.95
 74
     0
  0
LTYPE
  5
2BB
330
22E
100
AcDbSymbolTableRecord
100
AcDbLinetypeTableRecord
  2
CENTER
 70
     0
  3

 72
    65
 73
     4
 40
50.0
 49
32.0
 74
     0
 49
-6.0
 74
     0
 49
6.0
 74
     0
 49
-6.0
 74
     0
  0
LTYPE
  5
2BC
330
22E
100
AcDbSymbolTableRecord
100
AcDbLinetypeTableRecord
  2
CENTER2
 70
     0
  3

 72
    65
 73
     4
 40
25.0
 49
16.0
 74
     0
 49
-3.0
 74
     0
 49
3.0
 74
     0
 49
-3.0
 74
     0
  0
LTYPE
  5
2BD
330
22E
100
AcDbSymbolTableRecord
100
AcDbLinetypeTableRecord
  2
CENTERX2
 70
     0
  3

 72
    65
 73
     4
 40
100.0
 49
64.0
 74
     0
 49
-12.0
 74
     0
 49
12.0
 74
     0
 49
-12.0
 74
     0
  0
LTYPE
  5
2BE
330
22E
100
AcDbSymbolTableRecord
100
AcDbLinetypeTableRecord
  2
DASHDOT
 70
     0
  3

 72
    65
 73
     4
 40
24.0
 49
12.0
 74
     0
 49
-5.95
 74
     0
 49
0.1
 74
     0
 49
-5.95
 74
     0
  0
LTYPE
  5
2BF
330
22E
100
AcDbSymbolTableRecord
100
AcDbLinetypeTableRecord
  2
DASHDOT2
 70
     0
  3

 72
    65
 73
     4
 40
12.0
 49
6.0
 74
     0
 49
-2.95
 74
     0
 49
0.1
 74
     0
 49
-2.95
 74
     0
  0
LTYPE
  5
2C0
330
22E
100
AcDbSymbolTableRecord
100
AcDbLinetypeTableRecord
  2
DASHDOTX2
 70
     0
  3

 72
    65
 73
     4
 40
48.0
 49
24.0
 74
     0
 49
-11.95
 74
     0
 49
0.1
 74
     0
 49
-11.95
 74
     0
  0
LTYPE
  5
2C1
330
22E
100
AcDbSymbolTableRecord
100
AcDbLinetypeTableRecord
  2
DASHED
 70
     0
  3

 72
    65
 73
     2
 40
18.0
 49
12.0
 74
     0
 49
-6.0
 74
     0
  0
LTYPE
  5
2C2
330
22E
100
AcDbSymbolTableRecord
100
AcDbLinetypeTableRecord
  2
DASHED2
 70
     0
  3

 72
    65
 73
     2
 40
9.0
 49
6.0
 74
     0
 49
-3.0
 74
     0
  0
LTYPE
  5
2C3
330
22E
100
AcDbSymbolTableRecord
100
AcDbLinetypeTableRecord
  2
DASHEDX2
 70
     0
  3

 72
    65
 73
     2
 40
36.0
 49
24.0
 74
     0
 49
-12.0
 74
     0
  0
LTYPE
  5
2C4
330
22E
100
AcDbSymbolTableRecord
100
AcDbLinetypeTableRecord
  2
DIVIDE
 70
     0
  3

 72
    65
 73
     6
 40
29.99999999999999
 49
12.0
 74
     0
 49
-5.9
 74
     0
 49
0.15
 74
     0
 49
-5.9
 74
     0
 49
0.15
 74
     0
 49
-5.9
 74
     0
  0
LTYPE
  5
2C5
330
22E
100
AcDbSymbolTableRecord
100
AcDbLinetypeTableRecord
  2
DIVIDE2
 70
     0
  3

 72
    65
 73
     6
 40
15.0
 49
6.0
 74
     0
 49
-2.9
 74
     0
 49
0.15
 74
     0
 49
-2.9
 74
     0
 49
0.15
 74
     0
 49
-2.9
 74
     0
  0
LTYPE
  5
2C6
330
22E
100
AcDbSymbolTableRecord
100
AcDbLinetypeTableRecord
  2
DIVIDEX2
 70
     0
  3

 72
    65
 73
     6
 40
59.99999999999999
 49
24.0
 74
     0
 49
-11.9
 74
     0
 49
0.15
 74
     0
 49
-11.9
 74
     0
 49
0.15
 74
     0
 49
-11.9
 74
     0
  0
LTYPE
  5
2C7
330
22E
100
AcDbSymbolTableRecord
100
AcDbLinetypeTableRecord
  2
DOT
 70
     0
  3

 72
    65
 73
     2
 40
6.3
 49
0.1
 74
     0
 49
-6.2
 74
     0
  0
LTYPE
  5
2C8
330
22E
100
AcDbSymbolTableRecord
100
AcDbLinetypeTableRecord
  2
DOT2
 70
     0
  3

 72
    65
 73
     2
 40
3.2
 49
0.1
 74
     0
 49
-3.1
 74
     0
  0
LTYPE
  5
2C9
330
22E
100
AcDbSymbolTableRecord
100
AcDbLinetypeTableRecord
  2
DOTX2
 70
     0
  3

 72
    65
 73
     2
 40
12.5
 49
0.1
 74
     0
 49
-12.4
 74
     0
  0
ENDTAB
  0
TABLE
  2
LAYER
  5
22B
330
0
100
AcDbSymbolTable
 70
     1
  0
LAYER
  5
239
330
22B
100
AcDbSymbolTableRecord
100
AcDbLayerTableRecord
  2
0
 70
     0
 62
   178
420
        0
  6
Continuous
370
    25
390
238
347
266
  0
ENDTAB
  0
TABLE
  2
STYLE
  5
22C
330
0
100
AcDbSymbolTable
 70
     1
  0
STYLE
  5
23A
330
22C
100
AcDbSymbolTableRecord
100
AcDbTextStyleTableRecord
  2
Standard
 70
     0
 40
0.0
 41
1.0
 50
0.0
 71
     0
 42
2.5
  3
txt
  4

  0
ENDTAB
  0
TABLE
  2
VIEW
  5
22F
330
0
100
AcDbSymbolTable
 70
     0
  0
ENDTAB
  0
TABLE
  2
UCS
  5
230
330
0
100
AcDbSymbolTable
 70
     0
  0
ENDTAB
  0
TABLE
  2
APPID
  5
232
330
0
100
AcDbSymbolTable
 70
     2
  0
APPID
  5
23B
330
232
100
AcDbSymbolTableRecord
100
AcDbRegAppTableRecord
  2
ACAD
 70
     0
  0
APPID
  5
28A
330
232
100
AcDbSymbolTableRecord
100
AcDbRegAppTableRecord
  2
QCAD
 70
     0
  0
ENDTAB
  0
TABLE
  2
DIMSTYLE
  5
233
330
0
100
AcDbSymbolTable
 70
     2
100
AcDbDimStyleTable
  0
DIMSTYLE
105
24F
330
233
100
AcDbSymbolTableRecord
100
AcDbDimStyleTableRecord
  2
Standard
 70
     0
178
     0
340
23A
  0
DIMSTYLE
105
2B7
330
233
100
AcDbSymbolTableRecord
100
AcDbDimStyleTableRecord
  2
QCADDimStyle
 70
     0
 41
2.5
 42
0.625
 44
1.25
 73
     0
 77
     1
140
2.5
147
0.625
178
     0
340
23A
  0
ENDTAB
  0
TABLE
  2
BLOCK_RECORD
  5
22A
330
0
100
AcDbSymbolTable
 70
    37
  0
BLOCK_RECORD
  5
247
330
22A
100
AcDbSymbolTableRecord
100
AcDbBlockTableRecord
  2
*Model_Space
340
24A
 70
     0
280
     1
281
     0
  0
BLOCK_RECORD
  5
243
330
22A
100
AcDbSymbolTableRecord
100
AcDbBlockTableRecord
  2
*Paper_Space
340
246
 70
     0
280
     1
281
     0
  0
BLOCK_RECORD
  5
24B
330
22A
100
AcDbSymbolTableRecord
100
AcDbBlockTableRecord
  2
*Paper_Space0
340
24E
 70
     0
280
     1
281
     0
  0
BLOCK_RECORD
  5
2CA
330
22A
100
AcDbSymbolTableRecord
100
AcDbBlockTableRecord
  2
Bath plan
340
0
102
{BLKREFS
331
227
331
228
102
}
 70
     0
280
     1
281
     0
  0
BLOCK_RECORD
  5
2CD
330
22A
100
AcDbSymbolTableRecord
100
AcDbBlockTableRecord
  2
Bath Plan2
340
0
102
{BLKREFS
331
226
102
}
 70
     0
280
     1
281
     0
  0
BLOCK_RECORD
  5
2D0
330
22A
100
AcDbSymbolTableRecord
100
AcDbBlockTableRecord
  2
Int door LH 800
340
0
102
{BLKREFS
331
168
102
}
 70
     0
280
     1
281
     0
  0
BLOCK_RECORD
  5
2D3
330
22A
100
AcDbSymbolTableRecord
100
AcDbBlockTableRecord
  2
Int door RH 800
340
0
102
{BLKREFS
331
174
102
}
 70
     0
280
     1
281
     0
  0
BLOCK_RECORD
  5
2D6
330
22A
100
AcDbSymbolTableRecord
100
AcDbBlockTableRecord
  2
Int door double 1500
340
0
102
{BLKREFS
331
17A
331
17D
102
}
 70
     0
280
     1
281
     0
  0
BLOCK_RECORD
  5
2D9
330
22A
100
AcDbSymbolTableRecord
100
AcDbBlockTableRecord
  2
Ext door RH 900
340
0
102
{BLKREFS
331
F4
102
}
 70
     0
280
     1
281
     0
  0
BLOCK_RECORD
  5
2DC
330
22A
100
AcDbSymbolTableRecord
100
AcDbBlockTableRecord
  2
Ext door LH 900
340
0
102
{BLKREFS
331
E8
331
EB
331
EE
331
FD
102
}
 70
     0
280
     1
281
     0
  0
BLOCK_RECORD
  5
2DF
330
22A
100
AcDbSymbolTableRecord
100
AcDbBlockTableRecord
  2
Ext door LH 900-1
340
0
 70
     0
280
     1
281
     0
  0
BLOCK_RECORD
  5
2E2
330
22A
100
AcDbSymbolTableRecord
100
AcDbBlockTableRecord
  2
Ext door LH 900-2
340
0
 70
     0
280
     1
281
     0
  0
BLOCK_RECORD
  5
2E5
330
22A
100
AcDbSymbolTableRecord
100
AcDbBlockTableRecord
  2
Ext door LH 900-3
340
0
102
{BLKREFS
331
F1
102
}
 70
     0
280
     1
281
     0
  0
BLOCK_RECORD
  5
2E8
330
22A
100
AcDbSymbolTableRecord
100
AcDbBlockTableRecord
  2
Ext door LH 900-0
340
0
 70
     0
280
     1
281
     0
  0
BLOCK_RECORD
  5
2EB
330
22A
100
AcDbSymbolTableRecord
100
AcDbBlockTableRecord
  2
Ext door RH 900-0
340
0
102
{BLKREFS
331
F7
331
FA
331
16B
331
16E
331
171
331
177
331
1B8
102
}
 70
     0
280
     1
281
     0
  0
BLOCK_RECORD
  5
2EE
330
22A
100
AcDbSymbolTableRecord
100
AcDbBlockTableRecord
  2
Ext door RH 900-1
340
0
 70
     0
280
     1
281
     0
  0
BLOCK_RECORD
  5
2F1
330
22A
100
AcDbSymbolTableRecord
100
AcDbBlockTableRecord
  2
Ext door RH 900-2
340
0
 70
     0
280
     1
281
     0
  0
BLOCK_RECORD
  5
2F4
330
22A
100
AcDbSymbolTableRecord
100
AcDbBlockTableRecord
  2
Ext door LH 900-4
340
0
 70
     0
280
     1
281
     0
  0
BLOCK_RECORD
  5
2F7
330
22A
100
AcDbSymbolTableRecord
100
AcDbBlockTableRecord
  2
Ext door Double 1575
340
0
 70
     0
280
     1
281
     0
  0
BLOCK_RECORD
  5
2FA
330
22A
100
AcDbSymbolTableRecord
100
AcDbBlockTableRecord
  2
Ext door double 1575-0
340
0
 70
     0
280
     1
281
     0
  0
BLOCK_RECORD
  5
2FD
330
22A
100
AcDbSymbolTableRecord
100
AcDbBlockTableRecord
  2
Ext door double 1575-1
340
0
 70
     0
280
     1
281
     0
  0
BLOCK_RECORD
  5
300
330
22A
100
AcDbSymbolTableRecord
100
AcDbBlockTableRecord
  2
Int door LH 800-0
340
0
 70
     0
280
     1
281
     0
  0
BLOCK_RECORD
  5
303
330
22A
100
AcDbSymbolTableRecord
100
AcDbBlockTableRecord
  2
Int door LH 800-1
340
0
 70
     0
280
     1
281
     0
  0
BLOCK_RECORD
  5
306
330
22A
100
AcDbSymbolTableRecord
100
AcDbBlockTableRecord
  2
Int door LH 800-2
340
0
 70
     0
280
     1
281
     0
  0
BLOCK_RECORD
  5
309
330
22A
100
AcDbSymbolTableRecord
100
AcDbBlockTableRecord
  2
Int door LH 800-3
340
0
 70
     0
280
     1
281
     0
  0
BLOCK_RECORD
  5
30C
330
22A
100
AcDbSymbolTableRecord
100
AcDbBlockTableRecord
  2
Int door RH 800-0
340
0
 70
     0
280
     1
281
     0
  0
BLOCK_RECORD
  5
30F
330
22A
100
AcDbSymbolTableRecord
100
AcDbBlockTableRecord
  2
Int door RH 800-1
340
0
 70
     0
280
     1
281
     0
  0
BLOCK_RECORD
  5
312
330
22A
100
AcDbSymbolTableRecord
100
AcDbBlockTableRecord
  2
Int door double 1500-0
340
0
 70
     0
280
     1
281
     0
  0
BLOCK_RECORD
  5
315
330
22A
100
AcDbSymbolTableRecord
100
AcDbBlockTableRecord
  2
Int door double 1500-1
340
0
 70
     0
280
     1
281
     0
  0
BLOCK_RECORD
  5
318
330
22A
100
AcDbSymbolTableRecord
100
AcDbBlockTableRecord
  2
Int door double 1500-2
340
0
 70
     0
280
     1
281
     0
  0
BLOCK_RECORD
  5
31B
330
22A
100
AcDbSymbolTableRecord
100
AcDbBlockTableRecord
  2
Int door double 1500-3
340
0
 70
     0
280
     1
281
     0
  0
BLOCK_RECORD
  5
31E
330
22A
100
AcDbSymbolTableRecord
100
AcDbBlockTableRecord
  2
Int door RH 800-2
340
0
 70
     0
280
     1
281
     0
  0
BLOCK_RECORD
  5
321
330
22A
100
AcDbSymbolTableRecord
100
AcDbBlockTableRecord
  2
Simple ext door 900-0
340
0
 70
     0
280
     1
281
     0
  0
BLOCK_RECORD
  5
324
330
22A
100
AcDbSymbolTableRecord
100
AcDbBlockTableRecord
  2
Window 900
340
0
102
{BLKREFS
331
212
102
}
 70
     0
280
     1
281
     0
  0
BLOCK_RECORD
  5
327
330
22A
100
AcDbSymbolTableRecord
100
AcDbBlockTableRecord
  2
Window 1350
340
0
102
{BLKREFS
331
1F3
102
}
 70
     0
280
     1
281
     0
  0
BLOCK_RECORD
  5
32A
330
22A
100
AcDbSymbolTableRecord
100
AcDbBlockTableRecord
  2
window 1350-0
340
0
 70
     0
280
     1
281
     0
  0
BLOCK_RECORD
  5
32D
330
22A
100
AcDbSymbolTableRecord
100
AcDbBlockTableRecord
  2
Window 1800
340
0
102
{BLKREFS
331
20F
102
}
 70
     0
280
     1
281
     0
  0
BLOCK_RECORD
  5
330
330
22A
100
AcDbSymbolTableRecord
100
AcDbBlockTableRecord
  2
window 1800-0
340
0
 70
     0
280
     1
281
     0
  0
BLOCK_RECORD
  5
333
330
22A
100
AcDbSymbolTableRecord
100
AcDbBlockTableRecord
  2
window 900-0
340
0
102
{BLKREFS
331
214
102
}
 70
     0
280
     1
281
     0
  0
ENDTAB
  0
ENDSEC
  0
SECTION
  2
BLOCKS
  0
BLOCK
  5
248
330
247
100
AcDbEntity
  8
0
100
AcDbBlockBegin
  2
*Model_Space
 70
     0
 10
0.0
 20
0.0
 30
0.0
  3
*Model_Space
  1

  0
ENDBLK
  5
249
330
247
100
AcDbEntity
  8
0
100
AcDbBlockEnd
  0
BLOCK
  5
244
330
243
100
AcDbEntity
 67
     1
  8
0
100
AcDbBlockBegin
  2
*Paper_Space
 70
     0
 10
0.0
 20
0.0
 30
0.0
  3
*Paper_Space
  1

  0
ENDBLK
  5
245
330
243
100
AcDbEntity
 67
     1
  8
0
100
AcDbBlockEnd
  0
BLOCK
  5
24C
330
24B
100
AcDbEntity
  8
0
100
AcDbBlockBegin
  2
*Paper_Space0
 70
     0
 10
0.0
 20
0.0
 30
0.0
  3
*Paper_Space0
  1

  0
ENDBLK
  5
24D
330
24B
100
AcDbEntity
  8
0
100
AcDbBlockEnd
  0
BLOCK
  5
2CB
330
2CA
100
AcDbEntity
  8
0
100
AcDbBlockBegin
  2
Bath plan
 70
     0
 10
0.0
 20
0.0
 30
0.0
  3
Bath plan
  1

  0
INSERT
  5
226
330
2CA
100
AcDbEntity
  8
0
100
AcDbBlockReference
  2
Bath Plan2
 10
1000.0
 20
-725.0
 30
0.0
  0
ENDBLK
  5
2CC
330
2CA
100
AcDbEntity
  8
0
100
AcDbBlockEnd
  0
BLOCK
  5
2CE
330
2CD
100
AcDbEntity
  8
0
100
AcDbBlockBegin
  2
Bath Plan2
 70
     0
 10
0.0
 20
0.0
 30
0.0
  3
Bath Plan2
  1

  0
LINE
  5
217
330
2CD
100
AcDbEntity
  8
0
100
AcDbLine
 10
203.2687664031998
 20
332.5
 30
0.0
 11
203.2687664031998
 21
392.5
 31
0.0
  0
LINE
  5
218
330
2CD
100
AcDbEntity
  8
0
100
AcDbLine
 10
173.2687664031998
 20
362.5
 30
0.0
 11
233.2687664031998
 21
362.5
 31
0.0
  0
LINE
  5
219
330
2CD
100
AcDbEntity
  8
0
100
AcDbLine
 10
125.0
 20
650.0
 30
0.0
 11
1337.5
 21
650.0
 31
0.0
  0
ARC
  5
21A
330
2CD
100
AcDbEntity
  8
0
100
AcDbCircle
 10
125.0
 20
600.0
 30
0.0
 40
50.0
100
AcDbArc
 50
90.0
 51
180.0
  0
LINE
  5
21B
330
2CD
100
AcDbEntity
  8
0
100
AcDbLine
 10
75.0
 20
125.0
 30
0.0
 11
75.0
 21
600.0
 31
0.0
  0
LINE
  5
21C
330
2CD
100
AcDbEntity
  8
0
100
AcDbLine
 10
1337.5
 20
75.0
 30
0.0
 11
125.0
 21
75.0
 31
0.0
  0
ARC
  5
21D
330
2CD
100
AcDbEntity
  8
0
100
AcDbCircle
 10
125.0
 20
125.0
 30
0.0
 40
50.0
100
AcDbArc
 50
180.0
 51
270.0
  0
LINE
  5
21E
330
2CD
100
AcDbEntity
  8
0
100
AcDbLine
 10
0.0
 20
725.0
 30
0.0
 11
1700.0
 21
725.0
 31
0.0
  0
LINE
  5
21F
330
2CD
100
AcDbEntity
  8
0
100
AcDbLine
 10
1700.0
 20
725.0
 30
0.0
 11
1700.0
 21
0.0
 31
0.0
  0
LINE
  5
220
330
2CD
100
AcDbEntity
  8
0
100
AcDbLine
 10
1700.0
 20
0.0
 30
0.0
 11
0.0
 21
0.0
 31
0.0
  0
LINE
  5
221
330
2CD
100
AcDbEntity
  8
0
100
AcDbLine
 10
0.0
 20
0.0
 30
0.0
 11
0.0
 21
725.0
 31
0.0
  0
ARC
  5
222
330
2CD
100
AcDbEntity
  8
0
100
AcDbCircle
 10
1337.5
 20
362.5
 30
0.0
 40
287.5
100
AcDbArc
 50
0.0
 51
90.0
  0
LINE
  5
223
330
2CD
100
AcDbEntity
  8
0
100
AcDbLine
 10
1625.0
 20
362.5
 30
0.0
 11
1625.0
 21
362.5
 31
0.0
  0
ARC
  5
224
330
2CD
100
AcDbEntity
  8
0
100
AcDbCircle
 10
1337.5
 20
362.5
 30
0.0
 40
287.5
100
AcDbArc
 50
270.0
 51
0.0
  0
CIRCLE
  5
225
330
2CD
100
AcDbEntity
  8
0
100
AcDbCircle
 10
203.2687664031998
 20
362.5
 30
0.0
 40
15.0
  0
ENDBLK
  5
2CF
330
2CD
100
AcDbEntity
  8
0
100
AcDbBlockEnd
  0
BLOCK
  5
2D1
330
2D0
100
AcDbEntity
  8
0
100
AcDbBlockBegin
  2
Int door LH 800
 70
     0
 10
0.0
 20
0.0
 30
0.0
  3
Int door LH 800
  1

  0
LINE
  5
66
330
2D0
100
AcDbEntity
  8
0
100
AcDbLine
 10
0.0
 20
0.0
 30
0.0
 11
0.0
 21
125.0
 31
0.0
  0
LINE
  5
67
330
2D0
100
AcDbEntity
  8
0
100
AcDbLine
 10
0.0
 20
125.0
 30
0.0
 11
35.0
 21
125.0
 31
0.0
  0
LINE
  5
68
330
2D0
100
AcDbEntity
  8
0
100
AcDbLine
 10
35.0
 20
125.0
 30
0.0
 11
35.0
 21
80.0
 31
0.0
  0
LINE
  5
69
330
2D0
100
AcDbEntity
  8
0
100
AcDbLine
 10
35.0
 20
80.0
 30
0.0
 11
60.0
 21
80.0
 31
0.0
  0
LINE
  5
6A
330
2D0
100
AcDbEntity
  8
0
100
AcDbLine
 10
60.0
 20
30.0
 30
0.0
 11
40.0
 21
30.0
 31
0.0
  0
LINE
  5
6B
330
2D0
100
AcDbEntity
  8
0
100
AcDbLine
 10
60.0
 20
80.0
 30
0.0
 11
60.0
 21
30.0
 31
0.0
  0
LINE
  5
6C
330
2D0
100
AcDbEntity
  8
0
100
AcDbLine
 10
40.0
 20
0.0
 30
0.0
 11
0.0
 21
0.0
 31
0.0
  0
LINE
  5
6D
330
2D0
100
AcDbEntity
  8
0
100
AcDbLine
 10
40.0
 20
30.0
 30
0.0
 11
40.0
 21
0.0
 31
0.0
  0
LINE
  5
6E
330
2D0
100
AcDbEntity
  8
0
100
AcDbLine
 10
800.0
 20
125.0
 30
0.0
 11
800.0
 21
0.0
 31
0.0
  0
LINE
  5
6F
330
2D0
100
AcDbEntity
  8
0
100
AcDbLine
 10
800.0
 20
0.0
 30
0.0
 11
765.0
 21
0.0
 31
0.0
  0
LINE
  5
70
330
2D0
100
AcDbEntity
  8
0
100
AcDbLine
 10
740.0
 20
80.0
 30
0.0
 11
740.0
 21
30.0
 31
0.0
  0
LINE
  5
71
330
2D0
100
AcDbEntity
  8
0
100
AcDbLine
 10
740.0
 20
30.0
 30
0.0
 11
765.0
 21
30.0
 31
0.0
  0
LINE
  5
72
330
2D0
100
AcDbEntity
  8
0
100
AcDbLine
 10
800.0
 20
125.0
 30
0.0
 11
765.0
 21
125.0
 31
0.0
  0
LINE
  5
73
330
2D0
100
AcDbEntity
  8
0
100
AcDbLine
 10
35.0
 20
125.0
 30
0.0
 11
35.0
 21
855.0
 31
0.0
  0
LINE
  5
74
330
2D0
100
AcDbEntity
  8
0
100
AcDbLine
 10
35.0
 20
855.0
 30
0.0
 11
80.0
 21
855.0
 31
0.0
  0
LINE
  5
75
330
2D0
100
AcDbEntity
  8
0
100
AcDbLine
 10
80.0
 20
855.0
 30
0.0
 11
80.0
 21
125.0
 31
0.0
  0
LINE
  5
76
330
2D0
100
AcDbEntity
  8
0
100
AcDbLine
 10
80.0
 20
125.0
 30
0.0
 11
35.0
 21
125.0
 31
0.0
  0
LINE
  5
77
330
2D0
100
AcDbEntity
  8
0
100
AcDbLine
 10
740.0
 20
80.0
 30
0.0
 11
765.0
 21
80.0
 31
0.0
  0
LINE
  5
78
330
2D0
100
AcDbEntity
  8
0
100
AcDbLine
 10
765.0
 20
80.0
 30
0.0
 11
765.0
 21
125.0
 31
0.0
  0
LINE
  5
79
330
2D0
100
AcDbEntity
  8
0
100
AcDbLine
 10
765.0
 20
30.0
 30
0.0
 11
765.0
 21
0.0
 31
0.0
  0
ARC
  5
7A
330
2D0
100
AcDbEntity
  8
0
100
AcDbCircle
 10
35.0
 20
125.0
 30
0.0
 40
730.0
100
AcDbArc
 50
0.0
 51
86.47253194962587
  0
ENDBLK
  5
2D2
330
2D0
100
AcDbEntity
  8
0
100
AcDbBlockEnd
  0
BLOCK
  5
2D4
330
2D3
100
AcDbEntity
  8
0
100
AcDbBlockBegin
  2
Int door RH 800
 70
     0
 10
0.0
 20
0.0
 30
0.0
  3
Int door RH 800
  1

  0
LINE
  5
7D
330
2D3
100
AcDbEntity
  8
0
100
AcDbLine
 10
0.0
 20
0.0
 30
0.0
 11
0.0000000000000071
 21
125.0
 31
0.0
  0
LINE
  5
7E
330
2D3
100
AcDbEntity
  8
0
100
AcDbLine
 10
0.0000000000000071
 20
125.0
 30
0.0
 11
35.0
 21
125.0
 31
0.0
  0
LINE
  5
7F
330
2D3
100
AcDbEntity
  8
0
100
AcDbLine
 10
35.0
 20
125.0
 30
0.0
 11
35.0
 21
80.0
 31
0.0
  0
LINE
  5
80
330
2D3
100
AcDbEntity
  8
0
100
AcDbLine
 10
35.0
 20
80.0
 30
0.0
 11
60.0
 21
80.0
 31
0.0
  0
LINE
  5
81
330
2D3
100
AcDbEntity
  8
0
100
AcDbLine
 10
60.0
 20
29.99999999999999
 30
0.0
 11
40.0
 21
29.99999999999999
 31
0.0
  0
LINE
  5
82
330
2D3
100
AcDbEntity
  8
0
100
AcDbLine
 10
60.0
 20
80.0
 30
0.0
 11
60.0
 21
29.99999999999999
 31
0.0
  0
LINE
  5
83
330
2D3
100
AcDbEntity
  8
0
100
AcDbLine
 10
40.0
 20
0.0
 30
0.0
 11
0.0
 21
0.0
 31
0.0
  0
LINE
  5
84
330
2D3
100
AcDbEntity
  8
0
100
AcDbLine
 10
40.0
 20
29.99999999999999
 30
0.0
 11
40.0
 21
0.0
 31
0.0
  0
LINE
  5
85
330
2D3
100
AcDbEntity
  8
0
100
AcDbLine
 10
800.0
 20
125.0000000000004
 30
0.0
 11
800.0
 21
0.0
 31
0.0
  0
LINE
  5
86
330
2D3
100
AcDbEntity
  8
0
100
AcDbLine
 10
800.0
 20
0.0
 30
0.0
 11
765.0
 21
0.0
 31
0.0
  0
LINE
  5
87
330
2D3
100
AcDbEntity
  8
0
100
AcDbLine
 10
740.0
 20
79.99999999999969
 30
0.0
 11
740.0
 21
29.99999999999971
 31
0.0
  0
LINE
  5
88
330
2D3
100
AcDbEntity
  8
0
100
AcDbLine
 10
740.0
 20
29.99999999999971
 30
0.0
 11
765.0
 21
30.00000000000187
 31
0.0
  0
LINE
  5
89
330
2D3
100
AcDbEntity
  8
0
100
AcDbLine
 10
800.0
 20
125.0000000000004
 30
0.0
 11
765.0
 21
125.0000000000001
 31
0.0
  0
LINE
  5
8A
330
2D3
100
AcDbEntity
  8
0
100
AcDbLine
 10
740.0
 20
79.99999999999969
 30
0.0
 11
765.0
 21
80.00000000000072
 31
0.0
  0
LINE
  5
8B
330
2D3
100
AcDbEntity
  8
0
100
AcDbLine
 10
765.0
 20
80.00000000000072
 30
0.0
 11
765.0
 21
125.0000000000001
 31
0.0
  0
LINE
  5
8C
330
2D3
100
AcDbEntity
  8
0
100
AcDbLine
 10
765.0
 20
30.00000000000187
 30
0.0
 11
765.0
 21
0.0
 31
0.0
  0
LINE
  5
8D
330
2D3
100
AcDbEntity
  8
0
100
AcDbLine
 10
765.0
 20
125.0000000000001
 30
0.0
 11
765.0
 21
855.0
 31
0.0
  0
LINE
  5
8E
330
2D3
100
AcDbEntity
  8
0
100
AcDbLine
 10
765.0
 20
125.0000000000001
 30
0.0
 11
720.0
 21
125.0000000000001
 31
0.0
  0
LINE
  5
8F
330
2D3
100
AcDbEntity
  8
0
100
AcDbLine
 10
720.0
 20
125.0000000000001
 30
0.0
 11
720.0
 21
855.0
 31
0.0
  0
LINE
  5
90
330
2D3
100
AcDbEntity
  8
0
100
AcDbLine
 10
720.0
 20
855.0
 30
0.0
 11
765.0
 21
855.0
 31
0.0
  0
ARC
  5
91
330
2D3
100
AcDbEntity
  8
0
100
AcDbCircle
 10
765.0
 20
125.0000000000001
 30
0.0
 40
730.0
100
AcDbArc
 50
93.52746805037413
 51
180.0
  0
ENDBLK
  5
2D5
330
2D3
100
AcDbEntity
  8
0
100
AcDbBlockEnd
  0
BLOCK
  5
2D7
330
2D6
100
AcDbEntity
  8
0
100
AcDbBlockBegin
  2
Int door double 1500
 70
     0
 10
0.0
 20
0.0
 30
0.0
  3
Int door double 1500
  1

  0
LINE
  5
94
330
2D6
100
AcDbEntity
  8
0
100
AcDbLine
 10
1500.0
 20
125.0000000000004
 30
0.0
 11
1500.0
 21
0.0
 31
0.0
  0
LINE
  5
95
330
2D6
100
AcDbEntity
  8
0
100
AcDbLine
 10
1500.0
 20
0.0
 30
0.0
 11
1465.0
 21
0.0
 31
0.0
  0
LINE
  5
96
330
2D6
100
AcDbEntity
  8
0
100
AcDbLine
 10
1440.0
 20
79.99999999999969
 30
0.0
 11
1440.0
 21
29.99999999999971
 31
0.0
  0
LINE
  5
97
330
2D6
100
AcDbEntity
  8
0
100
AcDbLine
 10
1440.0
 20
29.99999999999971
 30
0.0
 11
1465.0
 21
30.00000000000187
 31
0.0
  0
LINE
  5
98
330
2D6
100
AcDbEntity
  8
0
100
AcDbLine
 10
1500.0
 20
125.0000000000004
 30
0.0
 11
1465.0
 21
125.0000000000001
 31
0.0
  0
LINE
  5
99
330
2D6
100
AcDbEntity
  8
0
100
AcDbLine
 10
1440.0
 20
79.99999999999969
 30
0.0
 11
1465.0
 21
80.00000000000072
 31
0.0
  0
LINE
  5
9A
330
2D6
100
AcDbEntity
  8
0
100
AcDbLine
 10
1465.0
 20
80.00000000000072
 30
0.0
 11
1465.0
 21
125.0000000000001
 31
0.0
  0
LINE
  5
9B
330
2D6
100
AcDbEntity
  8
0
100
AcDbLine
 10
1465.0
 20
30.00000000000187
 30
0.0
 11
1465.0
 21
0.0
 31
0.0
  0
LINE
  5
9C
330
2D6
100
AcDbEntity
  8
0
100
AcDbLine
 10
1465.0
 20
125.0000000000001
 30
0.0
 11
1420.0
 21
125.0000000000003
 31
0.0
  0
LINE
  5
9D
330
2D6
100
AcDbEntity
  8
0
100
AcDbLine
 10
0.0
 20
0.0
 30
0.0
 11
0.0
 21
125.0
 31
0.0
  0
LINE
  5
9E
330
2D6
100
AcDbEntity
  8
0
100
AcDbLine
 10
0.0
 20
125.0
 30
0.0
 11
35.0
 21
125.0
 31
0.0
  0
LINE
  5
9F
330
2D6
100
AcDbEntity
  8
0
100
AcDbLine
 10
35.0
 20
125.0
 30
0.0
 11
35.0
 21
0.0
 31
0.0
  0
LINE
  5
A0
330
2D6
100
AcDbEntity
  8
0
100
AcDbLine
 10
60.0
 20
30.0
 30
0.0
 11
60.0
 21
80.0
 31
0.0
  0
LINE
  5
A1
330
2D6
100
AcDbEntity
  8
0
100
AcDbLine
 10
60.0
 20
80.0
 30
0.0
 11
35.0
 21
80.0
 31
0.0
  0
LINE
  5
A2
330
2D6
100
AcDbEntity
  8
0
100
AcDbLine
 10
35.0
 20
30.0
 30
0.0
 11
60.0
 21
30.0
 31
0.0
  0
LINE
  5
A3
330
2D6
100
AcDbEntity
  8
0
100
AcDbLine
 10
0.0
 20
0.0
 30
0.0
 11
35.0
 21
0.0
 31
0.0
  0
LINE
  5
A4
330
2D6
100
AcDbEntity
  8
0
100
AcDbLine
 10
35.0
 20
125.0
 30
0.0
 11
35.0
 21
840.0
 31
0.0
  0
LINE
  5
A5
330
2D6
100
AcDbEntity
  8
0
100
AcDbLine
 10
35.0
 20
840.0
 30
0.0
 11
80.0
 21
840.0
 31
0.0
  0
LINE
  5
A6
330
2D6
100
AcDbEntity
  8
0
100
AcDbLine
 10
80.0
 20
840.0
 30
0.0
 11
80.0
 21
125.0
 31
0.0
  0
LINE
  5
A7
330
2D6
100
AcDbEntity
  8
0
100
AcDbLine
 10
80.0
 20
125.0
 30
0.0
 11
35.0
 21
125.0
 31
0.0
  0
LINE
  5
A8
330
2D6
100
AcDbEntity
  8
0
100
AcDbLine
 10
1420.0
 20
125.0000000000003
 30
0.0
 11
1420.0
 21
840.0000000000003
 31
0.0
  0
LINE
  5
A9
330
2D6
100
AcDbEntity
  8
0
100
AcDbLine
 10
1420.0
 20
840.0000000000003
 30
0.0
 11
1465.0
 21
840.0000000000003
 31
0.0
  0
LINE
  5
AA
330
2D6
100
AcDbEntity
  8
0
100
AcDbLine
 10
1465.0
 20
840.0000000000003
 30
0.0
 11
1465.0
 21
125.0000000000001
 31
0.0
  0
ARC
  5
AB
330
2D6
100
AcDbEntity
  8
0
100
AcDbCircle
 10
35.0
 20
125.0
 30
0.0
 40
715.0
100
AcDbArc
 50
0.0
 51
86.39872188277658
  0
ARC
  5
AC
330
2D6
100
AcDbEntity
  8
0
100
AcDbCircle
 10
1465.0
 20
125.0000000000001
 30
0.0
 40
715.0
100
AcDbArc
 50
93.60127811722344
 51
180.0
  0
ENDBLK
  5
2D8
330
2D6
100
AcDbEntity
  8
0
100
AcDbBlockEnd
  0
BLOCK
  5
2DA
330
2D9
100
AcDbEntity
  8
0
100
AcDbBlockBegin
  2
Ext door RH 900
 70
     0
 10
0.0
 20
0.0
 30
0.0
  3
Ext door RH 900
  1

  0
LINE
  5
AF
330
2D9
100
AcDbEntity
  8
0
100
AcDbLine
 10
900.0
 20
125.0000000000005
 30
0.0
 11
900.0
 21
0.0
 31
0.0
  0
LINE
  5
B0
330
2D9
100
AcDbEntity
  8
0
100
AcDbLine
 10
900.0
 20
0.0
 30
0.0
 11
865.0
 21
0.0
 31
0.0
  0
LINE
  5
B1
330
2D9
100
AcDbEntity
  8
0
100
AcDbLine
 10
840.0
 20
79.99999999999966
 30
0.0
 11
840.0
 21
29.99999999999966
 31
0.0
  0
LINE
  5
B2
330
2D9
100
AcDbEntity
  8
0
100
AcDbLine
 10
900.0
 20
125.0000000000005
 30
0.0
 11
865.0
 21
125.0000000000001
 31
0.0
  0
LINE
  5
B3
330
2D9
100
AcDbEntity
  8
0
100
AcDbLine
 10
840.0
 20
79.99999999999966
 30
0.0
 11
865.0
 21
80.00000000000068
 31
0.0
  0
LINE
  5
B4
330
2D9
100
AcDbEntity
  8
0
100
AcDbLine
 10
865.0
 20
80.00000000000068
 30
0.0
 11
865.0
 21
125.0000000000001
 31
0.0
  0
LINE
  5
B5
330
2D9
100
AcDbEntity
  8
0
100
AcDbLine
 10
865.0
 20
125.0000000000001
 30
0.0
 11
820.0
 21
125.0000000000003
 31
0.0
  0
LINE
  5
B6
330
2D9
100
AcDbEntity
  8
0
100
AcDbLine
 10
0.0
 20
0.0
 30
0.0
 11
0.0
 21
125.0
 31
0.0
  0
LINE
  5
B7
330
2D9
100
AcDbEntity
  8
0
100
AcDbLine
 10
0.0
 20
125.0
 30
0.0
 11
35.0
 21
125.0
 31
0.0
  0
LINE
  5
B8
330
2D9
100
AcDbEntity
  8
0
100
AcDbLine
 10
35.0
 20
125.0
 30
0.0
 11
35.0
 21
80.0
 31
0.0
  0
LINE
  5
B9
330
2D9
100
AcDbEntity
  8
0
100
AcDbLine
 10
35.0
 20
80.0
 30
0.0
 11
60.0
 21
80.0
 31
0.0
  0
LINE
  5
BA
330
2D9
100
AcDbEntity
  8
0
100
AcDbLine
 10
60.0
 20
80.0
 30
0.0
 11
60.0
 21
30.0
 31
0.0
  0
LINE
  5
BB
330
2D9
100
AcDbEntity
  8
0
100
AcDbLine
 10
0.0
 20
0.0
 30
0.0
 11
35.0
 21
0.0
 31
0.0
  0
LINE
  5
BC
330
2D9
100
AcDbEntity
  8
0
100
AcDbLine
 10
820.0
 20
125.0000000000003
 30
0.0
 11
820.0
 21
955.0000000000005
 31
0.0
  0
LINE
  5
BD
330
2D9
100
AcDbEntity
  8
0
100
AcDbLine
 10
820.0
 20
955.0000000000005
 30
0.0
 11
865.0
 21
955.0000000000005
 31
0.0
  0
LINE
  5
BE
330
2D9
100
AcDbEntity
  8
0
100
AcDbLine
 10
865.0
 20
955.0000000000005
 30
0.0
 11
865.0
 21
125.0000000000001
 31
0.0
  0
ARC
  5
BF
330
2D9
100
AcDbEntity
  8
0
100
AcDbCircle
 10
865.0
 20
125.0000000000001
 30
0.0
 40
830.0
100
AcDbArc
 50
93.10335932174337
 51
180.0
  0
LINE
  5
C0
330
2D9
100
AcDbEntity
  8
0
100
AcDbLine
 10
0.0
 20
125.0
 30
0.0
 11
0.0
 21
220.0
 31
0.0
  0
LINE
  5
C1
330
2D9
100
AcDbEntity
  8
0
100
AcDbLine
 10
900.0
 20
125.0000000000005
 30
0.0
 11
900.0
 21
220.0000000000005
 31
0.0
  0
LINE
  5
C2
330
2D9
100
AcDbEntity
  8
0
100
AcDbLine
 10
900.0
 20
220.0000000000005
 30
0.0
 11
865.0
 21
220.0000000000005
 31
0.0
  0
LINE
  5
C3
330
2D9
100
AcDbEntity
  8
0
100
AcDbLine
 10
820.0
 20
220.0000000000005
 30
0.0
 11
0.0
 21
220.0
 31
0.0
  0
LINE
  5
C4
330
2D9
100
AcDbEntity
  8
0
100
AcDbLine
 10
60.0
 20
80.0
 30
0.0
 11
840.0
 21
79.99999999999966
 31
0.0
  0
LINE
  5
C5
330
2D9
100
AcDbEntity
  8
0
100
AcDbLine
 10
35.0
 20
0.0
 30
0.0
 11
865.0
 21
0.0
 31
0.0
  0
LINE
  5
C6
330
2D9
100
AcDbEntity
  8
0
100
AcDbLine
 10
60.0
 20
30.0
 30
0.0
 11
60.0
 21
0.0
 31
0.0
  0
LINE
  5
C7
330
2D9
100
AcDbEntity
  8
0
100
AcDbLine
 10
840.0
 20
29.99999999999966
 30
0.0
 11
840.0
 21
0.0
 31
0.0
  0
ENDBLK
  5
2DB
330
2D9
100
AcDbEntity
  8
0
100
AcDbBlockEnd
  0
BLOCK
  5
2DD
330
2DC
100
AcDbEntity
  8
0
100
AcDbBlockBegin
  2
Ext door LH 900
 70
     0
 10
0.0
 20
0.0
 30
0.0
  3
Ext door LH 900
  1

  0
LINE
  5
CA
330
2DC
100
AcDbEntity
  8
0
100
AcDbLine
 10
900.0
 20
125.0000000000001
 30
0.0
 11
900.0
 21
0.0
 31
0.0
  0
LINE
  5
CB
330
2DC
100
AcDbEntity
  8
0
100
AcDbLine
 10
900.0
 20
0.0
 30
0.0
 11
865.0
 21
0.0
 31
0.0
  0
LINE
  5
CC
330
2DC
100
AcDbEntity
  8
0
100
AcDbLine
 10
840.0
 20
79.99999999999864
 30
0.0
 11
840.0
 21
29.99999999999955
 31
0.0
  0
LINE
  5
CD
330
2DC
100
AcDbEntity
  8
0
100
AcDbLine
 10
900.0
 20
125.0000000000001
 30
0.0
 11
865.0
 21
125.0000000000006
 31
0.0
  0
LINE
  5
CE
330
2DC
100
AcDbEntity
  8
0
100
AcDbLine
 10
840.0
 20
79.99999999999864
 30
0.0
 11
865.0
 21
80.0000000000008
 31
0.0
  0
LINE
  5
CF
330
2DC
100
AcDbEntity
  8
0
100
AcDbLine
 10
865.0
 20
80.0000000000008
 30
0.0
 11
865.0
 21
125.0000000000006
 31
0.0
  0
LINE
  5
D0
330
2DC
100
AcDbEntity
  8
0
100
AcDbLine
 10
0.0
 20
0.0
 30
0.0
 11
0.0000000000000142
 21
125.0
 31
0.0
  0
LINE
  5
D1
330
2DC
100
AcDbEntity
  8
0
100
AcDbLine
 10
0.0000000000000142
 20
125.0
 30
0.0
 11
35.0
 21
125.0
 31
0.0
  0
LINE
  5
D2
330
2DC
100
AcDbEntity
  8
0
100
AcDbLine
 10
35.0
 20
125.0
 30
0.0
 11
35.0
 21
80.0
 31
0.0
  0
LINE
  5
D3
330
2DC
100
AcDbEntity
  8
0
100
AcDbLine
 10
35.0
 20
80.0
 30
0.0
 11
60.0
 21
80.0
 31
0.0
  0
LINE
  5
D4
330
2DC
100
AcDbEntity
  8
0
100
AcDbLine
 10
60.0
 20
80.0
 30
0.0
 11
60.0
 21
30.0
 31
0.0
  0
LINE
  5
D5
330
2DC
100
AcDbEntity
  8
0
100
AcDbLine
 10
0.0
 20
0.0
 30
0.0
 11
35.0
 21
0.0
 31
0.0
  0
LINE
  5
D6
330
2DC
100
AcDbEntity
  8
0
100
AcDbLine
 10
0.0000000000000142
 20
125.0
 30
0.0
 11
0.0000000000000142
 21
220.0
 31
0.0
  0
LINE
  5
D7
330
2DC
100
AcDbEntity
  8
0
100
AcDbLine
 10
900.0
 20
125.0000000000001
 30
0.0
 11
900.0
 21
220.0000000000001
 31
0.0
  0
LINE
  5
D8
330
2DC
100
AcDbEntity
  8
0
100
AcDbLine
 10
900.0
 20
220.0000000000001
 30
0.0
 11
865.0
 21
220.0000000000003
 31
0.0
  0
LINE
  5
D9
330
2DC
100
AcDbEntity
  8
0
100
AcDbLine
 10
60.0
 20
80.0
 30
0.0
 11
840.0
 21
79.99999999999864
 31
0.0
  0
LINE
  5
DA
330
2DC
100
AcDbEntity
  8
0
100
AcDbLine
 10
60.0
 20
30.0
 30
0.0
 11
60.0
 21
0.0
 31
0.0
  0
LINE
  5
DB
330
2DC
100
AcDbEntity
  8
0
100
AcDbLine
 10
840.0
 20
29.99999999999955
 30
0.0
 11
840.0
 21
0.0
 31
0.0
  0
LINE
  5
DC
330
2DC
100
AcDbEntity
  8
0
100
AcDbLine
 10
820.0
 20
220.0000000000005
 30
0.0
 11
865.0
 21
220.0000000000003
 31
0.0
  0
LINE
  5
DD
330
2DC
100
AcDbEntity
  8
0
100
AcDbLine
 10
35.0
 20
125.0
 30
0.0
 11
35.0
 21
955.0
 31
0.0
  0
LINE
  5
DE
330
2DC
100
AcDbEntity
  8
0
100
AcDbLine
 10
35.0
 20
955.0
 30
0.0
 11
80.0
 21
955.0
 31
0.0
  0
LINE
  5
DF
330
2DC
100
AcDbEntity
  8
0
100
AcDbLine
 10
80.0
 20
955.0
 30
0.0
 11
80.0
 21
125.0
 31
0.0
  0
LINE
  5
E0
330
2DC
100
AcDbEntity
  8
0
100
AcDbLine
 10
80.0
 20
125.0
 30
0.0
 11
35.0
 21
125.0
 31
0.0
  0
ARC
  5
E1
330
2DC
100
AcDbEntity
  8
0
100
AcDbCircle
 10
35.0
 20
125.0
 30
0.0
 40
830.0
100
AcDbArc
 50
0.0
 51
86.89664067825663
  0
LINE
  5
E2
330
2DC
100
AcDbEntity
  8
0
100
AcDbLine
 10
820.0
 20
220.0000000000005
 30
0.0
 11
80.00000000000001
 21
220.0000000000001
 31
0.0
  0
LINE
  5
E3
330
2DC
100
AcDbEntity
  8
0
100
AcDbLine
 10
35.00000000000001
 20
220.0
 30
0.0
 11
0.0000000000000142
 21
220.0
 31
0.0
  0
LINE
  5
E4
330
2DC
100
AcDbEntity
  8
0
100
AcDbLine
 10
35.0
 20
0.0
 30
0.0
 11
60.0
 21
0.0
 31
0.0
  0
LINE
  5
E5
330
2DC
100
AcDbEntity
  8
0
100
AcDbLine
 10
840.0
 20
0.0
 30
0.0
 11
865.0
 21
0.0
 31
0.0
  0
ENDBLK
  5
2DE
330
2DC
100
AcDbEntity
  8
0
100
AcDbBlockEnd
  0
BLOCK
  5
2E0
330
2DF
100
AcDbEntity
  8
0
100
AcDbBlockBegin
  2
Ext door LH 900-1
 70
     0
 10
0.0
 20
0.0
 30
0.0
  3
Ext door LH 900-1
  1

  0
INSERT
  5
E8
330
2DF
100
AcDbEntity
  8
0
100
AcDbBlockReference
  2
Ext door LH 900
 10
-100.0
 20
600.0
 30
0.0
  0
ENDBLK
  5
2E1
330
2DF
100
AcDbEntity
  8
0
100
AcDbBlockEnd
  0
BLOCK
  5
2E3
330
2E2
100
AcDbEntity
  8
0
100
AcDbBlockBegin
  2
Ext door LH 900-2
 70
     0
 10
0.0
 20
0.0
 30
0.0
  3
Ext door LH 900-2
  1

  0
INSERT
  5
EB
330
2E2
100
AcDbEntity
  8
0
100
AcDbBlockReference
  2
Ext door LH 900
 10
0.0
 20
600.0
 30
0.0
  0
ENDBLK
  5
2E4
330
2E2
100
AcDbEntity
  8
0
100
AcDbBlockEnd
  0
BLOCK
  5
2E6
330
2E5
100
AcDbEntity
  8
0
100
AcDbBlockBegin
  2
Ext door LH 900-3
 70
     0
 10
0.0
 20
0.0
 30
0.0
  3
Ext door LH 900-3
  1

  0
INSERT
  5
EE
330
2E5
100
AcDbEntity
  8
0
100
AcDbBlockReference
  2
Ext door LH 900
 10
100.0
 20
640.0
 30
0.0
  0
ENDBLK
  5
2E7
330
2E5
100
AcDbEntity
  8
0
100
AcDbBlockEnd
  0
BLOCK
  5
2E9
330
2E8
100
AcDbEntity
  8
0
100
AcDbBlockBegin
  2
Ext door LH 900-0
 70
     0
 10
0.0
 20
0.0
 30
0.0
  3
Ext door LH 900-0
  1

  0
INSERT
  5
F1
330
2E8
100
AcDbEntity
  8
0
100
AcDbBlockReference
  2
Ext door LH 900-3
 10
110.0
 20
40.0
 30
0.0
  0
ENDBLK
  5
2EA
330
2E8
100
AcDbEntity
  8
0
100
AcDbBlockEnd
  0
BLOCK
  5
2EC
330
2EB
100
AcDbEntity
  8
0
100
AcDbBlockBegin
  2
Ext door RH 900-0
 70
     0
 10
0.0
 20
0.0
 30
0.0
  3
Ext door RH 900-0
  1

  0
INSERT
  5
F4
330
2EB
100
AcDbEntity
  8
0
100
AcDbBlockReference
  2
Ext door RH 900
 10
-100.0
 20
600.0
 30
0.0
  0
ENDBLK
  5
2ED
330
2EB
100
AcDbEntity
  8
0
100
AcDbBlockEnd
  0
BLOCK
  5
2EF
330
2EE
100
AcDbEntity
  8
0
100
AcDbBlockBegin
  2
Ext door RH 900-1
 70
     0
 10
0.0
 20
0.0
 30
0.0
  3
Ext door RH 900-1
  1

  0
INSERT
  5
F7
330
2EE
100
AcDbEntity
  8
0
100
AcDbBlockReference
  2
Ext door RH 900-0
 10
100.0
 20
-400.0
 30
0.0
  0
ENDBLK
  5
2F0
330
2EE
100
AcDbEntity
  8
0
100
AcDbBlockEnd
  0
BLOCK
  5
2F2
330
2F1
100
AcDbEntity
  8
0
100
AcDbBlockBegin
  2
Ext door RH 900-2
 70
     0
 10
0.0
 20
0.0
 30
0.0
  3
Ext door RH 900-2
  1

  0
INSERT
  5
FA
330
2F1
100
AcDbEntity
  8
0
100
AcDbBlockReference
  2
Ext door RH 900-0
 10
100.0
 20
-400.0
 30
0.0
  0
ENDBLK
  5
2F3
330
2F1
100
AcDbEntity
  8
0
100
AcDbBlockEnd
  0
BLOCK
  5
2F5
330
2F4
100
AcDbEntity
  8
0
100
AcDbBlockBegin
  2
Ext door LH 900-4
 70
     0
 10
0.0
 20
0.0
 30
0.0
  3
Ext door LH 900-4
  1

  0
INSERT
  5
FD
330
2F4
100
AcDbEntity
  8
0
100
AcDbBlockReference
  2
Ext door LH 900
 10
100.0
 20
640.0
 30
0.0
  0
ENDBLK
  5
2F6
330
2F4
100
AcDbEntity
  8
0
100
AcDbBlockEnd
  0
BLOCK
  5
2F8
330
2F7
100
AcDbEntity
  8
0
100
AcDbBlockBegin
  2
Ext door Double 1575
 70
     0
 10
0.0
 20
0.0
 30
0.0
  3
Ext door Double 1575
  1

  0
LINE
  5
100
330
2F7
100
AcDbEntity
  8
0
100
AcDbLine
 10
0.0
 20
0.0
 30
0.0
 11
0.0
 21
125.0
 31
0.0
  0
LINE
  5
101
330
2F7
100
AcDbEntity
  8
0
100
AcDbLine
 10
0.0
 20
125.0
 30
0.0
 11
35.0
 21
125.0
 31
0.0
  0
LINE
  5
102
330
2F7
100
AcDbEntity
  8
0
100
AcDbLine
 10
35.0
 20
125.0
 30
0.0
 11
35.0
 21
80.0
 31
0.0
  0
LINE
  5
103
330
2F7
100
AcDbEntity
  8
0
100
AcDbLine
 10
35.0
 20
80.0
 30
0.0
 11
60.0
 21
80.0
 31
0.0
  0
LINE
  5
104
330
2F7
100
AcDbEntity
  8
0
100
AcDbLine
 10
60.0
 20
80.0
 30
0.0
 11
60.0
 21
30.0
 31
0.0
  0
LINE
  5
105
330
2F7
100
AcDbEntity
  8
0
100
AcDbLine
 10
0.0
 20
0.0
 30
0.0
 11
35.0
 21
0.0
 31
0.0
  0
LINE
  5
106
330
2F7
100
AcDbEntity
  8
0
100
AcDbLine
 10
0.0
 20
125.0
 30
0.0
 11
0.0
 21
220.0
 31
0.0
  0
LINE
  5
107
330
2F7
100
AcDbEntity
  8
0
100
AcDbLine
 10
60.0
 20
30.0
 30
0.0
 11
60.0
 21
0.0
 31
0.0
  0
LINE
  5
108
330
2F7
100
AcDbEntity
  8
0
100
AcDbLine
 10
80.0
 20
125.0
 30
0.0
 11
35.0
 21
125.0
 31
0.0
  0
LINE
  5
109
330
2F7
100
AcDbEntity
  8
0
100
AcDbLine
 10
-100.0
 20
200.0
 30
0.0
 11
-100.0
 21
200.0
 31
0.0
  0
LINE
  5
10A
330
2F7
100
AcDbEntity
  8
0
100
AcDbLine
 10
1575.0
 20
125.0
 30
0.0
 11
1575.0
 21
0.0
 31
0.0
  0
LINE
  5
10B
330
2F7
100
AcDbEntity
  8
0
100
AcDbLine
 10
1575.0
 20
0.0
 30
0.0
 11
1540.0
 21
0.0
 31
0.0
  0
LINE
  5
10C
330
2F7
100
AcDbEntity
  8
0
100
AcDbLine
 10
1515.0
 20
79.99999999999818
 30
0.0
 11
1515.0
 21
30.0
 31
0.0
  0
LINE
  5
10D
330
2F7
100
AcDbEntity
  8
0
100
AcDbLine
 10
1575.0
 20
125.0
 30
0.0
 11
1540.0
 21
125.0
 31
0.0
  0
LINE
  5
10E
330
2F7
100
AcDbEntity
  8
0
100
AcDbLine
 10
1515.0
 20
79.99999999999818
 30
0.0
 11
1540.0
 21
80.0
 31
0.0
  0
LINE
  5
10F
330
2F7
100
AcDbEntity
  8
0
100
AcDbLine
 10
1540.0
 20
80.0
 30
0.0
 11
1540.0
 21
125.0
 31
0.0
  0
LINE
  5
110
330
2F7
100
AcDbEntity
  8
0
100
AcDbLine
 10
1575.0
 20
125.0
 30
0.0
 11
1575.0
 21
220.0
 31
0.0
  0
LINE
  5
111
330
2F7
100
AcDbEntity
  8
0
100
AcDbLine
 10
1575.0
 20
220.0
 30
0.0
 11
1540.0
 21
220.0
 31
0.0
  0
LINE
  5
112
330
2F7
100
AcDbEntity
  8
0
100
AcDbLine
 10
60.0
 20
80.0
 30
0.0
 11
1515.0
 21
79.99999999999818
 31
0.0
  0
LINE
  5
113
330
2F7
100
AcDbEntity
  8
0
100
AcDbLine
 10
35.0
 20
0.0
 30
0.0
 11
1540.0
 21
0.0
 31
0.0
  0
LINE
  5
114
330
2F7
100
AcDbEntity
  8
0
100
AcDbLine
 10
1515.0
 20
30.0
 30
0.0
 11
1515.0
 21
0.0
 31
0.0
  0
LINE
  5
115
330
2F7
100
AcDbEntity
  8
0
100
AcDbLine
 10
35.0
 20
125.0
 30
0.0
 11
35.0
 21
877.5
 31
0.0
  0
LINE
  5
116
330
2F7
100
AcDbEntity
  8
0
100
AcDbLine
 10
35.0
 20
877.5
 30
0.0
 11
80.0
 21
877.5
 31
0.0
  0
LINE
  5
117
330
2F7
100
AcDbEntity
  8
0
100
AcDbLine
 10
80.0
 20
877.5
 30
0.0
 11
80.0
 21
125.0
 31
0.0
  0
LINE
  5
118
330
2F7
100
AcDbEntity
  8
0
100
AcDbLine
 10
1540.0
 20
125.0
 30
0.0
 11
1540.0
 21
877.5
 31
0.0
  0
LINE
  5
119
330
2F7
100
AcDbEntity
  8
0
100
AcDbLine
 10
1540.0
 20
877.5
 30
0.0
 11
1495.0
 21
877.5
 31
0.0
  0
LINE
  5
11A
330
2F7
100
AcDbEntity
  8
0
100
AcDbLine
 10
1495.0
 20
877.5
 30
0.0
 11
1495.0
 21
125.0
 31
0.0
  0
LINE
  5
11B
330
2F7
100
AcDbEntity
  8
0
100
AcDbLine
 10
1495.0
 20
125.0
 30
0.0
 11
1540.0
 21
125.0
 31
0.0
  0
LINE
  5
11C
330
2F7
100
AcDbEntity
  8
0
100
AcDbLine
 10
1495.0
 20
220.0
 30
0.0
 11
80.0
 21
220.0
 31
0.0
  0
LINE
  5
11D
330
2F7
100
AcDbEntity
  8
0
100
AcDbLine
 10
35.0
 20
220.0
 30
0.0
 11
0.0
 21
220.0
 31
0.0
  0
ARC
  5
11E
330
2F7
100
AcDbEntity
  8
0
100
AcDbCircle
 10
35.0
 20
125.0
 30
0.0
 40
752.5
100
AcDbArc
 50
0.0
 51
86.57774989021625
  0
ARC
  5
11F
330
2F7
100
AcDbEntity
  8
0
100
AcDbCircle
 10
1540.0
 20
125.0
 30
0.0
 40
752.5
100
AcDbArc
 50
93.42225010978376
 51
180.0
  0
ENDBLK
  5
2F9
330
2F7
100
AcDbEntity
  8
0
100
AcDbBlockEnd
  0
BLOCK
  5
2FB
330
2FA
100
AcDbEntity
  8
0
100
AcDbBlockBegin
  2
Ext door double 1575-0
 70
     0
 10
0.0
 20
0.0
 30
0.0
  3
Ext door double 1575-0
  1

  0
LINE
  5
122
330
2FA
100
AcDbEntity
  8
0
100
AcDbLine
 10
18000.0
 20
-9800.0
 30
0.0
 11
18000.0
 21
-9675.0
 31
0.0
  0
LINE
  5
123
330
2FA
100
AcDbEntity
  8
0
100
AcDbLine
 10
18000.0
 20
-9675.0
 30
0.0
 11
18035.0
 21
-9675.0
 31
0.0
  0
LINE
  5
124
330
2FA
100
AcDbEntity
  8
0
100
AcDbLine
 10
18035.0
 20
-9675.0
 30
0.0
 11
18035.0
 21
-9720.0
 31
0.0
  0
LINE
  5
125
330
2FA
100
AcDbEntity
  8
0
100
AcDbLine
 10
18035.0
 20
-9720.0
 30
0.0
 11
18060.0
 21
-9720.0
 31
0.0
  0
LINE
  5
126
330
2FA
100
AcDbEntity
  8
0
100
AcDbLine
 10
18060.0
 20
-9720.0
 30
0.0
 11
18060.0
 21
-9770.0
 31
0.0
  0
LINE
  5
127
330
2FA
100
AcDbEntity
  8
0
100
AcDbLine
 10
18000.0
 20
-9800.0
 30
0.0
 11
18035.0
 21
-9800.0
 31
0.0
  0
LINE
  5
128
330
2FA
100
AcDbEntity
  8
0
100
AcDbLine
 10
18000.0
 20
-9675.0
 30
0.0
 11
18000.0
 21
-9580.0
 31
0.0
  0
LINE
  5
129
330
2FA
100
AcDbEntity
  8
0
100
AcDbLine
 10
18060.0
 20
-9770.0
 30
0.0
 11
18060.0
 21
-9800.0
 31
0.0
  0
LINE
  5
12A
330
2FA
100
AcDbEntity
  8
0
100
AcDbLine
 10
18080.0
 20
-9675.0
 30
0.0
 11
18035.0
 21
-9675.0
 31
0.0
  0
LINE
  5
12B
330
2FA
100
AcDbEntity
  8
0
100
AcDbLine
 10
17900.0
 20
-9600.0
 30
0.0
 11
17900.0
 21
-9600.0
 31
0.0
  0
LINE
  5
12C
330
2FA
100
AcDbEntity
  8
0
100
AcDbLine
 10
19575.0
 20
-9675.0
 30
0.0
 11
19575.0
 21
-9800.0
 31
0.0
  0
LINE
  5
12D
330
2FA
100
AcDbEntity
  8
0
100
AcDbLine
 10
19575.0
 20
-9800.0
 30
0.0
 11
19540.0
 21
-9800.0
 31
0.0
  0
LINE
  5
12E
330
2FA
100
AcDbEntity
  8
0
100
AcDbLine
 10
19515.0
 20
-9720.000000000002
 30
0.0
 11
19515.0
 21
-9769.999999999998
 31
0.0
  0
LINE
  5
12F
330
2FA
100
AcDbEntity
  8
0
100
AcDbLine
 10
19575.0
 20
-9675.0
 30
0.0
 11
19540.0
 21
-9675.0
 31
0.0
  0
LINE
  5
130
330
2FA
100
AcDbEntity
  8
0
100
AcDbLine
 10
19515.0
 20
-9720.000000000002
 30
0.0
 11
19540.0
 21
-9719.999999999998
 31
0.0
  0
LINE
  5
131
330
2FA
100
AcDbEntity
  8
0
100
AcDbLine
 10
19540.0
 20
-9719.999999999998
 30
0.0
 11
19540.0
 21
-9675.0
 31
0.0
  0
LINE
  5
132
330
2FA
100
AcDbEntity
  8
0
100
AcDbLine
 10
19575.0
 20
-9675.0
 30
0.0
 11
19575.0
 21
-9580.0
 31
0.0
  0
LINE
  5
133
330
2FA
100
AcDbEntity
  8
0
100
AcDbLine
 10
19575.0
 20
-9580.0
 30
0.0
 11
19540.0
 21
-9580.0
 31
0.0
  0
LINE
  5
134
330
2FA
100
AcDbEntity
  8
0
100
AcDbLine
 10
18060.0
 20
-9720.0
 30
0.0
 11
19515.0
 21
-9720.000000000002
 31
0.0
  0
LINE
  5
135
330
2FA
100
AcDbEntity
  8
0
100
AcDbLine
 10
19515.0
 20
-9769.999999999998
 30
0.0
 11
19515.0
 21
-9800.0
 31
0.0
  0
LINE
  5
136
330
2FA
100
AcDbEntity
  8
0
100
AcDbLine
 10
18035.0
 20
-9675.0
 30
0.0
 11
18035.0
 21
-8922.5
 31
0.0
  0
LINE
  5
137
330
2FA
100
AcDbEntity
  8
0
100
AcDbLine
 10
18035.0
 20
-8922.5
 30
0.0
 11
18080.0
 21
-8922.5
 31
0.0
  0
LINE
  5
138
330
2FA
100
AcDbEntity
  8
0
100
AcDbLine
 10
18080.0
 20
-8922.5
 30
0.0
 11
18080.0
 21
-9675.0
 31
0.0
  0
LINE
  5
139
330
2FA
100
AcDbEntity
  8
0
100
AcDbLine
 10
19540.0
 20
-9675.0
 30
0.0
 11
19540.0
 21
-8922.5
 31
0.0
  0
LINE
  5
13A
330
2FA
100
AcDbEntity
  8
0
100
AcDbLine
 10
19540.0
 20
-8922.5
 30
0.0
 11
19495.0
 21
-8922.5
 31
0.0
  0
LINE
  5
13B
330
2FA
100
AcDbEntity
  8
0
100
AcDbLine
 10
19495.0
 20
-8922.5
 30
0.0
 11
19495.0
 21
-9674.999999999998
 31
0.0
  0
LINE
  5
13C
330
2FA
100
AcDbEntity
  8
0
100
AcDbLine
 10
19495.0
 20
-9674.999999999998
 30
0.0
 11
19540.0
 21
-9675.0
 31
0.0
  0
LINE
  5
13D
330
2FA
100
AcDbEntity
  8
0
100
AcDbLine
 10
19495.0
 20
-9580.0
 30
0.0
 11
18080.0
 21
-9580.0
 31
0.0
  0
LINE
  5
13E
330
2FA
100
AcDbEntity
  8
0
100
AcDbLine
 10
18035.0
 20
-9580.0
 30
0.0
 11
18000.0
 21
-9580.0
 31
0.0
  0
ARC
  5
13F
330
2FA
100
AcDbEntity
  8
0
100
AcDbCircle
 10
18035.0
 20
-9675.0
 30
0.0
 40
752.5
100
AcDbArc
 50
0.0
 51
86.57774989021625
  0
ARC
  5
140
330
2FA
100
AcDbEntity
  8
0
100
AcDbCircle
 10
19540.0
 20
-9675.0
 30
0.0
 40
752.5
100
AcDbArc
 50
93.42225010978376
 51
180.0
  0
LINE
  5
141
330
2FA
100
AcDbEntity
  8
0
100
AcDbLine
 10
18035.0
 20
-9800.0
 30
0.0
 11
18060.0
 21
-9800.0
 31
0.0
  0
LINE
  5
142
330
2FA
100
AcDbEntity
  8
0
100
AcDbLine
 10
19515.0
 20
-9800.0
 30
0.0
 11
19540.0
 21
-9800.0
 31
0.0
  0
INSERT
  5
227
330
2FA
100
AcDbEntity
  8
0
100
AcDbBlockReference
  2
Bath plan
 10
380.0
 20
70.0
 30
0.0
  0
INSERT
  5
228
330
2FA
100
AcDbEntity
  8
0
100
AcDbBlockReference
  2
Bath plan
 10
360.0
 20
30.0
 30
0.0
  0
ENDBLK
  5
2FC
330
2FA
100
AcDbEntity
  8
0
100
AcDbBlockEnd
  0
BLOCK
  5
2FE
330
2FD
100
AcDbEntity
  8
0
100
AcDbBlockBegin
  2
Ext door double 1575-1
 70
     0
 10
0.0
 20
0.0
 30
0.0
  3
Ext door double 1575-1
  1

  0
LINE
  5
145
330
2FD
100
AcDbEntity
  8
0
100
AcDbLine
 10
18000.0
 20
-9800.0
 30
0.0
 11
18000.0
 21
-9675.0
 31
0.0
  0
LINE
  5
146
330
2FD
100
AcDbEntity
  8
0
100
AcDbLine
 10
18000.0
 20
-9675.0
 30
0.0
 11
18035.0
 21
-9675.0
 31
0.0
  0
LINE
  5
147
330
2FD
100
AcDbEntity
  8
0
100
AcDbLine
 10
18035.0
 20
-9675.0
 30
0.0
 11
18035.0
 21
-9720.0
 31
0.0
  0
LINE
  5
148
330
2FD
100
AcDbEntity
  8
0
100
AcDbLine
 10
18035.0
 20
-9720.0
 30
0.0
 11
18060.0
 21
-9720.0
 31
0.0
  0
LINE
  5
149
330
2FD
100
AcDbEntity
  8
0
100
AcDbLine
 10
18060.0
 20
-9720.0
 30
0.0
 11
18060.0
 21
-9770.0
 31
0.0
  0
LINE
  5
14A
330
2FD
100
AcDbEntity
  8
0
100
AcDbLine
 10
18000.0
 20
-9800.0
 30
0.0
 11
18035.0
 21
-9800.0
 31
0.0
  0
LINE
  5
14B
330
2FD
100
AcDbEntity
  8
0
100
AcDbLine
 10
18000.0
 20
-9675.0
 30
0.0
 11
18000.0
 21
-9580.0
 31
0.0
  0
LINE
  5
14C
330
2FD
100
AcDbEntity
  8
0
100
AcDbLine
 10
18060.0
 20
-9770.0
 30
0.0
 11
18060.0
 21
-9800.0
 31
0.0
  0
LINE
  5
14D
330
2FD
100
AcDbEntity
  8
0
100
AcDbLine
 10
18080.0
 20
-9675.0
 30
0.0
 11
18035.0
 21
-9675.0
 31
0.0
  0
LINE
  5
14E
330
2FD
100
AcDbEntity
  8
0
100
AcDbLine
 10
17900.0
 20
-9600.0
 30
0.0
 11
17900.0
 21
-9600.0
 31
0.0
  0
LINE
  5
14F
330
2FD
100
AcDbEntity
  8
0
100
AcDbLine
 10
19575.0
 20
-9675.0
 30
0.0
 11
19575.0
 21
-9800.0
 31
0.0
  0
LINE
  5
150
330
2FD
100
AcDbEntity
  8
0
100
AcDbLine
 10
19575.0
 20
-9800.0
 30
0.0
 11
19540.0
 21
-9800.0
 31
0.0
  0
LINE
  5
151
330
2FD
100
AcDbEntity
  8
0
100
AcDbLine
 10
19515.0
 20
-9720.000000000002
 30
0.0
 11
19515.0
 21
-9769.999999999998
 31
0.0
  0
LINE
  5
152
330
2FD
100
AcDbEntity
  8
0
100
AcDbLine
 10
19575.0
 20
-9675.0
 30
0.0
 11
19540.0
 21
-9675.0
 31
0.0
  0
LINE
  5
153
330
2FD
100
AcDbEntity
  8
0
100
AcDbLine
 10
19515.0
 20
-9720.000000000002
 30
0.0
 11
19540.0
 21
-9719.999999999998
 31
0.0
  0
LINE
  5
154
330
2FD
100
AcDbEntity
  8
0
100
AcDbLine
 10
19540.0
 20
-9719.999999999998
 30
0.0
 11
19540.0
 21
-9675.0
 31
0.0
  0
LINE
  5
155
330
2FD
100
AcDbEntity
  8
0
100
AcDbLine
 10
19575.0
 20
-9675.0
 30
0.0
 11
19575.0
 21
-9580.0
 31
0.0
  0
LINE
  5
156
330
2FD
100
AcDbEntity
  8
0
100
AcDbLine
 10
19575.0
 20
-9580.0
 30
0.0
 11
19540.0
 21
-9580.0
 31
0.0
  0
LINE
  5
157
330
2FD
100
AcDbEntity
  8
0
100
AcDbLine
 10
18060.0
 20
-9720.0
 30
0.0
 11
19515.0
 21
-9720.000000000002
 31
0.0
  0
LINE
  5
158
330
2FD
100
AcDbEntity
  8
0
100
AcDbLine
 10
19515.0
 20
-9769.999999999998
 30
0.0
 11
19515.0
 21
-9800.0
 31
0.0
  0
LINE
  5
159
330
2FD
100
AcDbEntity
  8
0
100
AcDbLine
 10
18035.0
 20
-9675.0
 30
0.0
 11
18035.0
 21
-8922.5
 31
0.0
  0
LINE
  5
15A
330
2FD
100
AcDbEntity
  8
0
100
AcDbLine
 10
18035.0
 20
-8922.5
 30
0.0
 11
18080.0
 21
-8922.5
 31
0.0
  0
LINE
  5
15B
330
2FD
100
AcDbEntity
  8
0
100
AcDbLine
 10
18080.0
 20
-8922.5
 30
0.0
 11
18080.0
 21
-9675.0
 31
0.0
  0
LINE
  5
15C
330
2FD
100
AcDbEntity
  8
0
100
AcDbLine
 10
19540.0
 20
-9675.0
 30
0.0
 11
19540.0
 21
-8922.5
 31
0.0
  0
LINE
  5
15D
330
2FD
100
AcDbEntity
  8
0
100
AcDbLine
 10
19540.0
 20
-8922.5
 30
0.0
 11
19495.0
 21
-8922.5
 31
0.0
  0
LINE
  5
15E
330
2FD
100
AcDbEntity
  8
0
100
AcDbLine
 10
19495.0
 20
-8922.5
 30
0.0
 11
19495.0
 21
-9674.999999999998
 31
0.0
  0
LINE
  5
15F
330
2FD
100
AcDbEntity
  8
0
100
AcDbLine
 10
19495.0
 20
-9674.999999999998
 30
0.0
 11
19540.0
 21
-9675.0
 31
0.0
  0
LINE
  5
160
330
2FD
100
AcDbEntity
  8
0
100
AcDbLine
 10
19495.0
 20
-9580.0
 30
0.0
 11
18080.0
 21
-9580.0
 31
0.0
  0
LINE
  5
161
330
2FD
100
AcDbEntity
  8
0
100
AcDbLine
 10
18035.0
 20
-9580.0
 30
0.0
 11
18000.0
 21
-9580.0
 31
0.0
  0
ARC
  5
162
330
2FD
100
AcDbEntity
  8
0
100
AcDbCircle
 10
18035.0
 20
-9675.0
 30
0.0
 40
752.5
100
AcDbArc
 50
0.0
 51
86.57774989021625
  0
ARC
  5
163
330
2FD
100
AcDbEntity
  8
0
100
AcDbCircle
 10
19540.0
 20
-9675.0
 30
0.0
 40
752.5
100
AcDbArc
 50
93.42225010978376
 51
180.0
  0
LINE
  5
164
330
2FD
100
AcDbEntity
  8
0
100
AcDbLine
 10
18035.0
 20
-9800.0
 30
0.0
 11
18060.0
 21
-9800.0
 31
0.0
  0
LINE
  5
165
330
2FD
100
AcDbEntity
  8
0
100
AcDbLine
 10
19515.0
 20
-9800.0
 30
0.0
 11
19540.0
 21
-9800.0
 31
0.0
  0
ENDBLK
  5
2FF
330
2FD
100
AcDbEntity
  8
0
100
AcDbBlockEnd
  0
BLOCK
  5
301
330
300
100
AcDbEntity
  8
0
100
AcDbBlockBegin
  2
Int door LH 800-0
 70
     0
 10
0.0
 20
0.0
 30
0.0
  3
Int door LH 800-0
  1

  0
INSERT
  5
168
330
300
100
AcDbEntity
  8
0
100
AcDbBlockReference
  2
Int door LH 800
 10
60.0
 20
20.0
 30
0.0
  0
ENDBLK
  5
302
330
300
100
AcDbEntity
  8
0
100
AcDbBlockEnd
  0
BLOCK
  5
304
330
303
100
AcDbEntity
  8
0
100
AcDbBlockBegin
  2
Int door LH 800-1
 70
     0
 10
0.0
 20
0.0
 30
0.0
  3
Int door LH 800-1
  1

  0
INSERT
  5
16B
330
303
100
AcDbEntity
  8
0
100
AcDbBlockReference
  2
Ext door RH 900-0
 10
100.0
 20
-400.0
 30
0.0
  0
ENDBLK
  5
305
330
303
100
AcDbEntity
  8
0
100
AcDbBlockEnd
  0
BLOCK
  5
307
330
306
100
AcDbEntity
  8
0
100
AcDbBlockBegin
  2
Int door LH 800-2
 70
     0
 10
0.0
 20
0.0
 30
0.0
  3
Int door LH 800-2
  1

  0
INSERT
  5
16E
330
306
100
AcDbEntity
  8
0
100
AcDbBlockReference
  2
Ext door RH 900-0
 10
100.0
 20
-400.0
 30
0.0
  0
ENDBLK
  5
308
330
306
100
AcDbEntity
  8
0
100
AcDbBlockEnd
  0
BLOCK
  5
30A
330
309
100
AcDbEntity
  8
0
100
AcDbBlockBegin
  2
Int door LH 800-3
 70
     0
 10
0.0
 20
0.0
 30
0.0
  3
Int door LH 800-3
  1

  0
INSERT
  5
171
330
309
100
AcDbEntity
  8
0
100
AcDbBlockReference
  2
Ext door RH 900-0
 10
100.0
 20
-400.0
 30
0.0
  0
ENDBLK
  5
30B
330
309
100
AcDbEntity
  8
0
100
AcDbBlockEnd
  0
BLOCK
  5
30D
330
30C
100
AcDbEntity
  8
0
100
AcDbBlockBegin
  2
Int door RH 800-0
 70
     0
 10
0.0
 20
0.0
 30
0.0
  3
Int door RH 800-0
  1

  0
INSERT
  5
174
330
30C
100
AcDbEntity
  8
0
100
AcDbBlockReference
  2
Int door RH 800
 10
0.0
 20
600.0
 30
0.0
  0
ENDBLK
  5
30E
330
30C
100
AcDbEntity
  8
0
100
AcDbBlockEnd
  0
BLOCK
  5
310
330
30F
100
AcDbEntity
  8
0
100
AcDbBlockBegin
  2
Int door RH 800-1
 70
     0
 10
0.0
 20
0.0
 30
0.0
  3
Int door RH 800-1
  1

  0
INSERT
  5
177
330
30F
100
AcDbEntity
  8
0
100
AcDbBlockReference
  2
Ext door RH 900-0
 10
100.0
 20
-400.0
 30
0.0
  0
ENDBLK
  5
311
330
30F
100
AcDbEntity
  8
0
100
AcDbBlockEnd
  0
BLOCK
  5
313
330
312
100
AcDbEntity
  8
0
100
AcDbBlockBegin
  2
Int door double 1500-0
 70
     0
 10
0.0
 20
0.0
 30
0.0
  3
Int door double 1500-0
  1

  0
INSERT
  5
17A
330
312
100
AcDbEntity
  8
0
100
AcDbBlockReference
  2
Int door double 1500
 10
-640.0
 20
20.0
 30
0.0
  0
ENDBLK
  5
314
330
312
100
AcDbEntity
  8
0
100
AcDbBlockEnd
  0
BLOCK
  5
316
330
315
100
AcDbEntity
  8
0
100
AcDbBlockBegin
  2
Int door double 1500-1
 70
     0
 10
0.0
 20
0.0
 30
0.0
  3
Int door double 1500-1
  1

  0
INSERT
  5
17D
330
315
100
AcDbEntity
  8
0
100
AcDbBlockReference
  2
Int door double 1500
 10
-520.0
 20
60.0
 30
0.0
  0
ENDBLK
  5
317
330
315
100
AcDbEntity
  8
0
100
AcDbBlockEnd
  0
BLOCK
  5
319
330
318
100
AcDbEntity
  8
0
100
AcDbBlockBegin
  2
Int door double 1500-2
 70
     0
 10
0.0
 20
0.0
 30
0.0
  3
Int door double 1500-2
  1

  0
LINE
  5
180
330
318
100
AcDbEntity
  8
0
100
AcDbLine
 10
22180.0
 20
-10814.99999999999
 30
0.0
 11
22180.0
 21
-10940.00000000001
 31
0.0
  0
LINE
  5
181
330
318
100
AcDbEntity
  8
0
100
AcDbLine
 10
22180.0
 20
-10940.00000000001
 30
0.0
 11
22145.0
 21
-10939.99999999999
 31
0.0
  0
LINE
  5
182
330
318
100
AcDbEntity
  8
0
100
AcDbLine
 10
22120.0
 20
-10860.00000000001
 30
0.0
 11
22120.0
 21
-10910.0
 31
0.0
  0
LINE
  5
183
330
318
100
AcDbEntity
  8
0
100
AcDbLine
 10
22120.0
 20
-10910.0
 30
0.0
 11
22145.0
 21
-10910.0
 31
0.0
  0
LINE
  5
184
330
318
100
AcDbEntity
  8
0
100
AcDbLine
 10
22180.0
 20
-10814.99999999999
 30
0.0
 11
22145.0
 21
-10815.00000000001
 31
0.0
  0
LINE
  5
185
330
318
100
AcDbEntity
  8
0
100
AcDbLine
 10
22120.0
 20
-10860.00000000001
 30
0.0
 11
22145.0
 21
-10860.0
 31
0.0
  0
LINE
  5
186
330
318
100
AcDbEntity
  8
0
100
AcDbLine
 10
22145.0
 20
-10860.0
 30
0.0
 11
22145.0
 21
-10815.00000000001
 31
0.0
  0
LINE
  5
187
330
318
100
AcDbEntity
  8
0
100
AcDbLine
 10
22145.0
 20
-10910.0
 30
0.0
 11
22145.0
 21
-10939.99999999999
 31
0.0
  0
LINE
  5
188
330
318
100
AcDbEntity
  8
0
100
AcDbLine
 10
22145.0
 20
-10815.00000000001
 30
0.0
 11
22100.0
 21
-10815.00000000001
 31
0.0
  0
LINE
  5
189
330
318
100
AcDbEntity
  8
0
100
AcDbLine
 10
20680.0
 20
-10939.99999999999
 30
0.0
 11
20680.0
 21
-10815.0
 31
0.0
  0
LINE
  5
18A
330
318
100
AcDbEntity
  8
0
100
AcDbLine
 10
20680.0
 20
-10815.0
 30
0.0
 11
20714.99999999999
 21
-10815.00000000001
 31
0.0
  0
LINE
  5
18B
330
318
100
AcDbEntity
  8
0
100
AcDbLine
 10
20740.0
 20
-10910.00000000001
 30
0.0
 11
20740.0
 21
-10860.0
 31
0.0
  0
LINE
  5
18C
330
318
100
AcDbEntity
  8
0
100
AcDbLine
 10
20740.0
 20
-10860.0
 30
0.0
 11
20715.0
 21
-10860.0
 31
0.0
  0
LINE
  5
18D
330
318
100
AcDbEntity
  8
0
100
AcDbLine
 10
20714.99999999999
 20
-10910.00000000001
 30
0.0
 11
20740.0
 21
-10910.00000000001
 31
0.0
  0
LINE
  5
18E
330
318
100
AcDbEntity
  8
0
100
AcDbLine
 10
20680.0
 20
-10939.99999999999
 30
0.0
 11
20715.0
 21
-10940.00000000001
 31
0.0
  0
LINE
  5
18F
330
318
100
AcDbEntity
  8
0
100
AcDbLine
 10
20714.99999999999
 20
-10815.00000000001
 30
0.0
 11
20715.0
 21
-10100.00000000001
 31
0.0
  0
LINE
  5
190
330
318
100
AcDbEntity
  8
0
100
AcDbLine
 10
20715.0
 20
-10100.00000000001
 30
0.0
 11
20760.0
 21
-10099.99999999999
 31
0.0
  0
LINE
  5
191
330
318
100
AcDbEntity
  8
0
100
AcDbLine
 10
20760.0
 20
-10099.99999999999
 30
0.0
 11
20760.0
 21
-10815.00000000001
 31
0.0
  0
LINE
  5
192
330
318
100
AcDbEntity
  8
0
100
AcDbLine
 10
20760.0
 20
-10815.00000000001
 30
0.0
 11
20714.99999999999
 21
-10815.00000000001
 31
0.0
  0
LINE
  5
193
330
318
100
AcDbEntity
  8
0
100
AcDbLine
 10
22100.0
 20
-10815.00000000001
 30
0.0
 11
22100.0
 21
-10100.0
 31
0.0
  0
LINE
  5
194
330
318
100
AcDbEntity
  8
0
100
AcDbLine
 10
22100.0
 20
-10100.0
 30
0.0
 11
22145.0
 21
-10099.99999999999
 31
0.0
  0
LINE
  5
195
330
318
100
AcDbEntity
  8
0
100
AcDbLine
 10
22145.0
 20
-10099.99999999999
 30
0.0
 11
22145.0
 21
-10815.00000000001
 31
0.0
  0
ARC
  5
196
330
318
100
AcDbEntity
  8
0
100
AcDbCircle
 10
20714.99999999999
 20
-10815.00000000001
 30
0.0
 40
715.0
100
AcDbArc
 50
0.0
 51
86.39872188277658
  0
ARC
  5
197
330
318
100
AcDbEntity
  8
0
100
AcDbCircle
 10
22145.0
 20
-10815.00000000001
 30
0.0
 40
715.0
100
AcDbArc
 50
93.60127811722344
 51
180.0
  0
LINE
  5
198
330
318
100
AcDbEntity
  8
0
100
AcDbLine
 10
20714.99999999999
 20
-10815.00000000001
 30
0.0
 11
20714.99999999999
 21
-10860.0
 31
0.0
  0
LINE
  5
199
330
318
100
AcDbEntity
  8
0
100
AcDbLine
 10
20715.0
 20
-10910.00000000001
 30
0.0
 11
20715.0
 21
-10940.00000000001
 31
0.0
  0
ENDBLK
  5
31A
330
318
100
AcDbEntity
  8
0
100
AcDbBlockEnd
  0
BLOCK
  5
31C
330
31B
100
AcDbEntity
  8
0
100
AcDbBlockBegin
  2
Int door double 1500-3
 70
     0
 10
0.0
 20
0.0
 30
0.0
  3
Int door double 1500-3
  1

  0
LINE
  5
19C
330
31B
100
AcDbEntity
  8
0
100
AcDbLine
 10
22180.0
 20
-10814.99999999999
 30
0.0
 11
22180.0
 21
-10940.00000000001
 31
0.0
  0
LINE
  5
19D
330
31B
100
AcDbEntity
  8
0
100
AcDbLine
 10
22180.0
 20
-10940.00000000001
 30
0.0
 11
22145.0
 21
-10939.99999999999
 31
0.0
  0
LINE
  5
19E
330
31B
100
AcDbEntity
  8
0
100
AcDbLine
 10
22120.0
 20
-10860.00000000001
 30
0.0
 11
22120.0
 21
-10910.0
 31
0.0
  0
LINE
  5
19F
330
31B
100
AcDbEntity
  8
0
100
AcDbLine
 10
22120.0
 20
-10910.0
 30
0.0
 11
22145.0
 21
-10910.0
 31
0.0
  0
LINE
  5
1A0
330
31B
100
AcDbEntity
  8
0
100
AcDbLine
 10
22180.0
 20
-10814.99999999999
 30
0.0
 11
22145.0
 21
-10815.00000000001
 31
0.0
  0
LINE
  5
1A1
330
31B
100
AcDbEntity
  8
0
100
AcDbLine
 10
22120.0
 20
-10860.00000000001
 30
0.0
 11
22145.0
 21
-10860.0
 31
0.0
  0
LINE
  5
1A2
330
31B
100
AcDbEntity
  8
0
100
AcDbLine
 10
22145.0
 20
-10860.0
 30
0.0
 11
22145.0
 21
-10815.00000000001
 31
0.0
  0
LINE
  5
1A3
330
31B
100
AcDbEntity
  8
0
100
AcDbLine
 10
22145.0
 20
-10910.0
 30
0.0
 11
22145.0
 21
-10939.99999999999
 31
0.0
  0
LINE
  5
1A4
330
31B
100
AcDbEntity
  8
0
100
AcDbLine
 10
22145.0
 20
-10815.00000000001
 30
0.0
 11
22100.0
 21
-10815.00000000001
 31
0.0
  0
LINE
  5
1A5
330
31B
100
AcDbEntity
  8
0
100
AcDbLine
 10
20680.0
 20
-10939.99999999999
 30
0.0
 11
20680.0
 21
-10815.0
 31
0.0
  0
LINE
  5
1A6
330
31B
100
AcDbEntity
  8
0
100
AcDbLine
 10
20680.0
 20
-10815.0
 30
0.0
 11
20714.99999999999
 21
-10815.00000000001
 31
0.0
  0
LINE
  5
1A7
330
31B
100
AcDbEntity
  8
0
100
AcDbLine
 10
20740.0
 20
-10910.00000000001
 30
0.0
 11
20740.0
 21
-10860.0
 31
0.0
  0
LINE
  5
1A8
330
31B
100
AcDbEntity
  8
0
100
AcDbLine
 10
20740.0
 20
-10860.0
 30
0.0
 11
20715.0
 21
-10860.0
 31
0.0
  0
LINE
  5
1A9
330
31B
100
AcDbEntity
  8
0
100
AcDbLine
 10
20714.99999999999
 20
-10910.00000000001
 30
0.0
 11
20740.0
 21
-10910.00000000001
 31
0.0
  0
LINE
  5
1AA
330
31B
100
AcDbEntity
  8
0
100
AcDbLine
 10
20680.0
 20
-10939.99999999999
 30
0.0
 11
20715.0
 21
-10940.00000000001
 31
0.0
  0
LINE
  5
1AB
330
31B
100
AcDbEntity
  8
0
100
AcDbLine
 10
20714.99999999999
 20
-10815.00000000001
 30
0.0
 11
20715.0
 21
-10100.00000000001
 31
0.0
  0
LINE
  5
1AC
330
31B
100
AcDbEntity
  8
0
100
AcDbLine
 10
20715.0
 20
-10100.00000000001
 30
0.0
 11
20760.0
 21
-10099.99999999999
 31
0.0
  0
LINE
  5
1AD
330
31B
100
AcDbEntity
  8
0
100
AcDbLine
 10
20760.0
 20
-10099.99999999999
 30
0.0
 11
20760.0
 21
-10815.00000000001
 31
0.0
  0
LINE
  5
1AE
330
31B
100
AcDbEntity
  8
0
100
AcDbLine
 10
20760.0
 20
-10815.00000000001
 30
0.0
 11
20714.99999999999
 21
-10815.00000000001
 31
0.0
  0
LINE
  5
1AF
330
31B
100
AcDbEntity
  8
0
100
AcDbLine
 10
22100.0
 20
-10815.00000000001
 30
0.0
 11
22100.0
 21
-10100.0
 31
0.0
  0
LINE
  5
1B0
330
31B
100
AcDbEntity
  8
0
100
AcDbLine
 10
22100.0
 20
-10100.0
 30
0.0
 11
22145.0
 21
-10099.99999999999
 31
0.0
  0
LINE
  5
1B1
330
31B
100
AcDbEntity
  8
0
100
AcDbLine
 10
22145.0
 20
-10099.99999999999
 30
0.0
 11
22145.0
 21
-10815.00000000001
 31
0.0
  0
ARC
  5
1B2
330
31B
100
AcDbEntity
  8
0
100
AcDbCircle
 10
20714.99999999999
 20
-10815.00000000001
 30
0.0
 40
715.0
100
AcDbArc
 50
0.0
 51
86.39872188277658
  0
ARC
  5
1B3
330
31B
100
AcDbEntity
  8
0
100
AcDbCircle
 10
22145.0
 20
-10815.00000000001
 30
0.0
 40
715.0
100
AcDbArc
 50
93.60127811722344
 51
180.0
  0
LINE
  5
1B4
330
31B
100
AcDbEntity
  8
0
100
AcDbLine
 10
20714.99999999999
 20
-10815.00000000001
 30
0.0
 11
20714.99999999999
 21
-10860.0
 31
0.0
  0
LINE
  5
1B5
330
31B
100
AcDbEntity
  8
0
100
AcDbLine
 10
20715.0
 20
-10910.00000000001
 30
0.0
 11
20715.0
 21
-10940.00000000001
 31
0.0
  0
ENDBLK
  5
31D
330
31B
100
AcDbEntity
  8
0
100
AcDbBlockEnd
  0
BLOCK
  5
31F
330
31E
100
AcDbEntity
  8
0
100
AcDbBlockBegin
  2
Int door RH 800-2
 70
     0
 10
0.0
 20
0.0
 30
0.0
  3
Int door RH 800-2
  1

  0
INSERT
  5
1B8
330
31E
100
AcDbEntity
  8
0
100
AcDbBlockReference
  2
Ext door RH 900-0
 10
100.0
 20
-400.0
 30
0.0
  0
ENDBLK
  5
320
330
31E
100
AcDbEntity
  8
0
100
AcDbBlockEnd
  0
BLOCK
  5
322
330
321
100
AcDbEntity
  8
0
100
AcDbBlockBegin
  2
Simple ext door 900-0
 70
     0
 10
0.0
 20
0.0
 30
0.0
  3
Simple ext door 900-0
  1

  0
LINE
  5
1BB
330
321
100
AcDbEntity
  8
0
100
AcDbLine
 10
200.0
 20
100.0
 30
0.0
 11
200.0
 21
225.0
 31
0.0
  0
LINE
  5
1BC
330
321
100
AcDbEntity
  8
0
100
AcDbLine
 10
200.0
 20
225.0
 30
0.0
 11
245.0
 21
225.0
 31
0.0
  0
LINE
  5
1BD
330
321
100
AcDbEntity
  8
0
100
AcDbLine
 10
245.0
 20
225.0
 30
0.0
 11
245.0
 21
100.0
 31
0.0
  0
LINE
  5
1BE
330
321
100
AcDbEntity
  8
0
100
AcDbLine
 10
1100.0
 20
100.0000000000001
 30
0.0
 11
1100.0
 21
225.0000000000002
 31
0.0
  0
LINE
  5
1BF
330
321
100
AcDbEntity
  8
0
100
AcDbLine
 10
1100.0
 20
225.0000000000002
 30
0.0
 11
1055.0
 21
225.0
 31
0.0
  0
LINE
  5
1C0
330
321
100
AcDbEntity
  8
0
100
AcDbLine
 10
1055.0
 20
225.0
 30
0.0
 11
1055.0
 21
100.0000000000004
 31
0.0
  0
LINE
  5
1C1
330
321
100
AcDbEntity
  8
0
100
AcDbLine
 10
1055.0
 20
100.0000000000004
 30
0.0
 11
1100.0
 21
100.0000000000001
 31
0.0
  0
LINE
  5
1C2
330
321
100
AcDbEntity
  8
0
100
AcDbLine
 10
245.0
 20
225.0
 30
0.0
 11
245.0
 21
1035.0
 31
0.0
  0
ARC
  5
1C3
330
321
100
AcDbEntity
  8
0
100
AcDbCircle
 10
245.0
 20
225.0
 30
0.0
 40
810.0
100
AcDbArc
 50
0.0
 51
90.0
  0
LINE
  5
1C4
330
321
100
AcDbEntity
  8
0
100
AcDbLine
 10
245.0
 20
100.0
 30
0.0
 11
200.0
 21
100.0
 31
0.0
  0
ENDBLK
  5
323
330
321
100
AcDbEntity
  8
0
100
AcDbBlockEnd
  0
BLOCK
  5
325
330
324
100
AcDbEntity
  8
0
100
AcDbBlockBegin
  2
Window 900
 70
     0
 10
0.0
 20
0.0
 30
0.0
  3
Window 900
  1

  0
LINE
  5
1C7
330
324
100
AcDbEntity
  8
0
100
AcDbLine
 10
0.0
 20
120.0
 30
0.0
 11
45.0
 21
120.0
 31
0.0
  0
LINE
  5
1C8
330
324
100
AcDbEntity
  8
0
100
AcDbLine
 10
900.0
 20
120.0
 30
0.0
 11
855.0
 21
120.0
 31
0.0
  0
LINE
  5
1C9
330
324
100
AcDbEntity
  8
0
100
AcDbLine
 10
45.0
 20
120.0
 30
0.0
 11
855.0
 21
120.0
 31
0.0
  0
LINE
  5
1CA
330
324
100
AcDbEntity
  8
0
100
AcDbLine
 10
45.0
 20
70.0
 30
0.0
 11
855.0
 21
70.0
 31
0.0
  0
LINE
  5
1CB
330
324
100
AcDbEntity
  8
0
100
AcDbLine
 10
855.0
 20
50.0
 30
0.0
 11
45.0
 21
50.0
 31
0.0
  0
LINE
  5
1CC
330
324
100
AcDbEntity
  8
0
100
AcDbLine
 10
45.0
 20
120.0
 30
0.0
 11
45.0
 21
0.0
 31
0.0
  0
LINE
  5
1CD
330
324
100
AcDbEntity
  8
0
100
AcDbLine
 10
855.0
 20
120.0
 30
0.0
 11
855.0
 21
0.0
 31
0.0
  0
LINE
  5
1CE
330
324
100
AcDbEntity
  8
0
100
AcDbLine
 10
900.0
 20
0.0
 30
0.0
 11
900.0
 21
120.0
 31
0.0
  0
LINE
  5
1CF
330
324
100
AcDbEntity
  8
0
100
AcDbLine
 10
0.0
 20
0.0
 30
0.0
 11
900.0
 21
0.0
 31
0.0
  0
LINE
  5
1D0
330
324
100
AcDbEntity
  8
0
100
AcDbLine
 10
0.0
 20
0.0
 30
0.0
 11
0.0
 21
120.0
 31
0.0
  0
LINE
  5
1D1
330
324
100
AcDbEntity
  8
0
100
AcDbLine
 10
0.0
 20
0.0
 30
0.0
 11
0.0
 21
-120.0
 31
0.0
  0
LINE
  5
1D2
330
324
100
AcDbEntity
  8
0
100
AcDbLine
 10
0.0
 20
-120.0
 30
0.0
 11
900.0
 21
-120.0
 31
0.0
  0
LINE
  5
1D3
330
324
100
AcDbEntity
  8
0
100
AcDbLine
 10
900.0
 20
0.0
 30
0.0
 11
900.0
 21
-120.0
 31
0.0
  0
LINE
  5
1D4
330
324
100
AcDbEntity
  8
0
100
AcDbLine
 10
0.0
 20
120.0
 30
0.0
 11
0.0
 21
110.0
 31
0.0
  0
LINE
  5
1D5
330
324
100
AcDbEntity
  8
0
100
AcDbLine
 10
0.0
 20
120.0
 30
0.0
 11
0.0
 21
220.0
 31
0.0
  0
LINE
  5
1D6
330
324
100
AcDbEntity
  8
0
100
AcDbLine
 10
900.0
 20
120.0
 30
0.0
 11
900.0
 21
220.0
 31
0.0
  0
LINE
  5
1D7
330
324
100
AcDbEntity
  8
0
100
AcDbLine
 10
0.0
 20
220.0
 30
0.0
 11
900.0
 21
220.0
 31
0.0
  0
ENDBLK
  5
326
330
324
100
AcDbEntity
  8
0
100
AcDbBlockEnd
  0
BLOCK
  5
328
330
327
100
AcDbEntity
  8
0
100
AcDbBlockBegin
  2
Window 1350
 70
     0
 10
0.0
 20
0.0
 30
0.0
  3
Window 1350
  1

  0
LINE
  5
1DA
330
327
100
AcDbEntity
  8
0
100
AcDbLine
 10
0.0000000000000073
 20
120.0
 30
0.0
 11
45.0
 21
120.0
 31
0.0
  0
LINE
  5
1DB
330
327
100
AcDbEntity
  8
0
100
AcDbLine
 10
900.0
 20
120.0
 30
0.0
 11
855.0
 21
120.0000000000003
 31
0.0
  0
LINE
  5
1DC
330
327
100
AcDbEntity
  8
0
100
AcDbLine
 10
45.0
 20
120.0
 30
0.0
 11
855.0
 21
120.0000000000003
 31
0.0
  0
LINE
  5
1DD
330
327
100
AcDbEntity
  8
0
100
AcDbLine
 10
45.00000000000001
 20
70.0
 30
0.0
 11
855.0
 21
70.0000000000004
 31
0.0
  0
LINE
  5
1DE
330
327
100
AcDbEntity
  8
0
100
AcDbLine
 10
855.0
 20
49.99999999999966
 30
0.0
 11
45.0
 21
50.00000000000001
 31
0.0
  0
LINE
  5
1DF
330
327
100
AcDbEntity
  8
0
100
AcDbLine
 10
45.0
 20
120.0
 30
0.0
 11
45.0
 21
0.0
 31
0.0
  0
LINE
  5
1E0
330
327
100
AcDbEntity
  8
0
100
AcDbLine
 10
855.0
 20
120.0000000000003
 30
0.0
 11
855.0
 21
0.0
 31
0.0
  0
LINE
  5
1E1
330
327
100
AcDbEntity
  8
0
100
AcDbLine
 10
900.0
 20
0.0
 30
0.0
 11
900.0
 21
120.0
 31
0.0
  0
LINE
  5
1E2
330
327
100
AcDbEntity
  8
0
100
AcDbLine
 10
0.0
 20
0.0
 30
0.0
 11
900.0
 21
0.0
 31
0.0
  0
LINE
  5
1E3
330
327
100
AcDbEntity
  8
0
100
AcDbLine
 10
0.0
 20
0.0
 30
0.0
 11
0.0000000000000073
 21
120.0
 31
0.0
  0
LINE
  5
1E4
330
327
100
AcDbEntity
  8
0
100
AcDbLine
 10
0.0
 20
0.0
 30
0.0
 11
-0.000000000000022
 21
-120.0
 31
0.0
  0
LINE
  5
1E5
330
327
100
AcDbEntity
  8
0
100
AcDbLine
 10
-0.000000000000022
 20
-120.0
 30
0.0
 11
900.0
 21
-119.9999999999999
 31
0.0
  0
LINE
  5
1E6
330
327
100
AcDbEntity
  8
0
100
AcDbLine
 10
0.0000000000000073
 20
120.0
 30
0.0
 11
0.0000000000000067
 21
110.0
 31
0.0
  0
LINE
  5
1E7
330
327
100
AcDbEntity
  8
0
100
AcDbLine
 10
0.0000000000000073
 20
120.0
 30
0.0
 11
0.0000000000000135
 21
220.0
 31
0.0
  0
LINE
  5
1E8
330
327
100
AcDbEntity
  8
0
100
AcDbLine
 10
0.0000000000000135
 20
220.0
 30
0.0
 11
900.0
 21
219.9999999999997
 31
0.0
  0
LINE
  5
1E9
330
327
100
AcDbEntity
  8
0
100
AcDbLine
 10
900.0
 20
219.9999999999997
 30
0.0
 11
1350.0
 21
219.9999999999997
 31
0.0
  0
LINE
  5
1EA
330
327
100
AcDbEntity
  8
0
100
AcDbLine
 10
900.0
 20
120.0
 30
0.0
 11
1350.0
 21
120.0
 31
0.0
  0
LINE
  5
1EB
330
327
100
AcDbEntity
  8
0
100
AcDbLine
 10
900.0
 20
0.0
 30
0.0
 11
1350.0
 21
0.0
 31
0.0
  0
LINE
  5
1EC
330
327
100
AcDbEntity
  8
0
100
AcDbLine
 10
900.0
 20
-119.9999999999999
 30
0.0
 11
1350.0
 21
-120.0
 31
0.0
  0
LINE
  5
1ED
330
327
100
AcDbEntity
  8
0
100
AcDbLine
 10
1350.0
 20
219.9999999999997
 30
0.0
 11
1350.0
 21
-120.0
 31
0.0
  0
LINE
  5
1EE
330
327
100
AcDbEntity
  8
0
100
AcDbLine
 10
1305.0
 20
120.0
 30
0.0
 11
1305.0
 21
0.0000000000000089
 31
0.0
  0
LINE
  5
1EF
330
327
100
AcDbEntity
  8
0
100
AcDbLine
 10
900.0
 20
70.00000000000036
 30
0.0
 11
1305.0
 21
70.00000000000001
 31
0.0
  0
LINE
  5
1F0
330
327
100
AcDbEntity
  8
0
100
AcDbLine
 10
900.0
 20
49.99999999999969
 30
0.0
 11
1305.0
 21
49.99999999999999
 31
0.0
  0
ENDBLK
  5
329
330
327
100
AcDbEntity
  8
0
100
AcDbBlockEnd
  0
BLOCK
  5
32B
330
32A
100
AcDbEntity
  8
0
100
AcDbBlockBegin
  2
window 1350-0
 70
     0
 10
0.0
 20
0.0
 30
0.0
  3
window 1350-0
  1

  0
INSERT
  5
1F3
330
32A
100
AcDbEntity
  8
0
100
AcDbBlockReference
  2
Window 1350
 10
0.0
 20
10.0
 30
0.0
  0
ENDBLK
  5
32C
330
32A
100
AcDbEntity
  8
0
100
AcDbBlockEnd
  0
BLOCK
  5
32E
330
32D
100
AcDbEntity
  8
0
100
AcDbBlockBegin
  2
Window 1800
 70
     0
 10
0.0
 20
0.0
 30
0.0
  3
Window 1800
  1

  0
LINE
  5
1F6
330
32D
100
AcDbEntity
  8
0
100
AcDbLine
 10
0.0000000000000073
 20
120.0
 30
0.0
 11
45.0
 21
120.0
 31
0.0
  0
LINE
  5
1F7
330
32D
100
AcDbEntity
  8
0
100
AcDbLine
 10
900.0
 20
120.0
 30
0.0
 11
855.0
 21
120.0000000000003
 31
0.0
  0
LINE
  5
1F8
330
32D
100
AcDbEntity
  8
0
100
AcDbLine
 10
45.0
 20
120.0
 30
0.0
 11
855.0
 21
120.0000000000003
 31
0.0
  0
LINE
  5
1F9
330
32D
100
AcDbEntity
  8
0
100
AcDbLine
 10
45.00000000000001
 20
70.0
 30
0.0
 11
855.0
 21
70.0000000000004
 31
0.0
  0
LINE
  5
1FA
330
32D
100
AcDbEntity
  8
0
100
AcDbLine
 10
855.0
 20
49.99999999999966
 30
0.0
 11
45.0
 21
50.00000000000001
 31
0.0
  0
LINE
  5
1FB
330
32D
100
AcDbEntity
  8
0
100
AcDbLine
 10
45.0
 20
120.0
 30
0.0
 11
45.0
 21
0.0
 31
0.0
  0
LINE
  5
1FC
330
32D
100
AcDbEntity
  8
0
100
AcDbLine
 10
855.0
 20
120.0000000000003
 30
0.0
 11
855.0
 21
0.0
 31
0.0
  0
LINE
  5
1FD
330
32D
100
AcDbEntity
  8
0
100
AcDbLine
 10
900.0
 20
0.0
 30
0.0
 11
900.0
 21
120.0
 31
0.0
  0
LINE
  5
1FE
330
32D
100
AcDbEntity
  8
0
100
AcDbLine
 10
0.0
 20
0.0
 30
0.0
 11
900.0
 21
0.0
 31
0.0
  0
LINE
  5
1FF
330
32D
100
AcDbEntity
  8
0
100
AcDbLine
 10
0.0
 20
0.0
 30
0.0
 11
0.0000000000000073
 21
120.0
 31
0.0
  0
LINE
  5
200
330
32D
100
AcDbEntity
  8
0
100
AcDbLine
 10
0.0
 20
0.0
 30
0.0
 11
-0.000000000000022
 21
-120.0
 31
0.0
  0
LINE
  5
201
330
32D
100
AcDbEntity
  8
0
100
AcDbLine
 10
-0.000000000000022
 20
-120.0
 30
0.0
 11
900.0
 21
-119.9999999999999
 31
0.0
  0
LINE
  5
202
330
32D
100
AcDbEntity
  8
0
100
AcDbLine
 10
0.0000000000000073
 20
120.0
 30
0.0
 11
0.0000000000000067
 21
110.0
 31
0.0
  0
LINE
  5
203
330
32D
100
AcDbEntity
  8
0
100
AcDbLine
 10
0.0000000000000073
 20
120.0
 30
0.0
 11
0.0000000000000135
 21
220.0
 31
0.0
  0
LINE
  5
204
330
32D
100
AcDbEntity
  8
0
100
AcDbLine
 10
0.0000000000000135
 20
220.0
 30
0.0
 11
900.0
 21
219.9999999999997
 31
0.0
  0
LINE
  5
205
330
32D
100
AcDbEntity
  8
0
100
AcDbLine
 10
900.0
 20
219.9999999999997
 30
0.0
 11
1800.0
 21
220.0000000000007
 31
0.0
  0
LINE
  5
206
330
32D
100
AcDbEntity
  8
0
100
AcDbLine
 10
900.0
 20
120.0
 30
0.0
 11
1800.0
 21
120.000000000001
 31
0.0
  0
LINE
  5
207
330
32D
100
AcDbEntity
  8
0
100
AcDbLine
 10
900.0
 20
0.0
 30
0.0
 11
1800.0
 21
0.0
 31
0.0
  0
LINE
  5
208
330
32D
100
AcDbEntity
  8
0
100
AcDbLine
 10
900.0
 20
-119.9999999999999
 30
0.0
 11
1800.0
 21
-120.0000000000009
 31
0.0
  0
LINE
  5
209
330
32D
100
AcDbEntity
  8
0
100
AcDbLine
 10
1800.0
 20
220.0000000000007
 30
0.0
 11
1800.0
 21
-120.0000000000009
 31
0.0
  0
LINE
  5
20A
330
32D
100
AcDbEntity
  8
0
100
AcDbLine
 10
1755.0
 20
119.9999999999995
 30
0.0
 11
1755.0
 21
0.0
 31
0.0
  0
LINE
  5
20B
330
32D
100
AcDbEntity
  8
0
100
AcDbLine
 10
900.0
 20
69.99999999999933
 30
0.0
 11
1755.0
 21
70.00000000000027
 31
0.0
  0
LINE
  5
20C
330
32D
100
AcDbEntity
  8
0
100
AcDbLine
 10
900.0
 20
50.00000000000071
 30
0.0
 11
1755.0
 21
50.00000000000112
 31
0.0
  0
ENDBLK
  5
32F
330
32D
100
AcDbEntity
  8
0
100
AcDbBlockEnd
  0
BLOCK
  5
331
330
330
100
AcDbEntity
  8
0
100
AcDbBlockBegin
  2
window 1800-0
 70
     0
 10
0.0
 20
0.0
 30
0.0
  3
window 1800-0
  1

  0
INSERT
  5
20F
330
330
100
AcDbEntity
  8
0
100
AcDbBlockReference
  2
Window 1800
 10
0.0
 20
10.0
 30
0.0
  0
ENDBLK
  5
332
330
330
100
AcDbEntity
  8
0
100
AcDbBlockEnd
  0
BLOCK
  5
334
330
333
100
AcDbEntity
  8
0
100
AcDbBlockBegin
  2
window 900-0
 70
     0
 10
0.0
 20
0.0
 30
0.0
  3
window 900-0
  1

  0
INSERT
  5
212
330
333
100
AcDbEntity
  8
0
100
AcDbBlockReference
  2
Window 900
 10
0.0
 20
10.0
 30
0.0
  0
ENDBLK
  5
335
330
333
100
AcDbEntity
  8
0
100
AcDbBlockEnd
  0
ENDSEC
  0
SECTION
  2
ENTITIES
  0
INSERT
  5
214
330
247
100
AcDbEntity
  8
0
100
AcDbBlockReference
  2
window 900-0
 10
-0.0000000000000006
 20
-10.0
 30
0.0
  0
ENDSEC
  0
SECTION
  2
OBJECTS
  0
DICTIONARY
  5
235
330
0
100
AcDbDictionary
281
     1
  3
ACAD_GROUP
350
236
  3
ACAD_LAYOUT
350
242
  3
ACAD_MATERIAL
350
263
  3
ACAD_MLEADERSTYLE
350
33A
  3
ACAD_MLINESTYLE
350
23F
  3
ACAD_PLOTSETTINGS
350
241
  3
ACAD_PLOTSTYLENAME
350
237
  3
ACAD_SCALELIST
350
267
  3
ACAD_TABLESTYLE
350
339
  3
ACAD_VISUALSTYLE
350
252
  3
AcDbVariableDictionary
350
336
  3
ACDB_RECOMPOSE_DATA
350
338
  3
QCAD_OBJECTS
350
28B
  0
SUN
  5
289
330
251
100
AcDbSun
 90
        1
290
     0
 63
     7
421
 16777215
 40
1.0
291
     1
 91
  2455826
 92
 54000000
292
     0
 70
     2
 71
   256
280
     1
  0
DICTIONARY
  5
236
102
{ACAD_REACTORS
330
235
102
}
330
235
100
AcDbDictionary
281
     1
  0
DICTIONARY
  5
242
102
{ACAD_REACTORS
330
235
102
}
330
235
100
AcDbDictionary
281
     1
  3
Layout1
350
246
  3
Layout2
350
24E
  3
Model
350
24A
  0
DICTIONARY
  5
263
102
{ACAD_REACTORS
330
235
102
}
330
235
100
AcDbDictionary
281
     1
  3
ByBlock
350
265
  3
ByLayer
350
264
  3
Global
350
266
  0
DICTIONARY
  5
33A
102
{ACAD_REACTORS
330
235
102
}
330
235
100
AcDbDictionary
281
     1
  0
DICTIONARY
  5
23F
102
{ACAD_REACTORS
330
235
102
}
330
235
100
AcDbDictionary
281
     1
  3
Standard
350
240
  0
DICTIONARY
  5
241
102
{ACAD_REACTORS
330
235
102
}
330
235
100
AcDbDictionary
281
     1
  0
ACDBDICTIONARYWDFLT
  5
237
102
{ACAD_REACTORS
330
235
102
}
330
235
100
AcDbDictionary
281
     1
  3
Normal
350
238
100
AcDbDictionaryWithDefault
340
238
  0
DICTIONARY
  5
267
102
{ACAD_REACTORS
330
235
102
}
330
235
100
AcDbDictionary
281
     1
  3
A0
350
268
  3
A1
350
269
  3
A2
350
26A
  3
A3
350
26B
  3
A4
350
26C
  3
A5
350
26D
  3
A6
350
26E
  3
A7
350
26F
  3
A8
350
270
  3
A9
350
271
  3
B0
350
272
  3
B1
350
273
  3
B2
350
274
  3
B3
350
275
  3
B4
350
276
  3
B5
350
277
  3
B6
350
278
  3
B7
350
279
  3
B8
350
27A
  3
B9
350
27B
  3
C0
350
27C
  3
C1
350
27D
  3
C2
350
27E
  3
C3
350
27F
  3
C4
350
280
  3
C5
350
281
  3
C6
350
282
  3
C7
350
283
  3
C8
350
284
  3
C9
350
285
  3
D0
350
286
  3
D1
350
287
  3
D2
350
288
  0
DICTIONARY
  5
339
102
{ACAD_REACTORS
330
235
102
}
330
235
100
AcDbDictionary
281
     1
  0
DICTIONARY
  5
252
102
{ACAD_REACTORS
330
235
102
}
330
235
100
AcDbDictionary
281
     1
  3
2dWireframe
350
257
  3
3D Hidden
350
259
  3
3dWireframe
350
258
  3
Basic
350
25A
  3
Brighten
350
25E
  3
ColorChange
350
262
  3
Conceptual
350
25C
  3
Dim
350
25D
  3
Facepattern
350
261
  3
Flat
350
253
  3
FlatWithEdges
350
254
  3
Gouraud
350
255
  3
GouraudWithEdges
350
256
  3
Linepattern
350
260
  3
Realistic
350
25B
  3
Thicken
350
25F
  0
DICTIONARY
  5
336
102
{ACAD_REACTORS
330
235
102
}
330
235
100
AcDbDictionary
281
     1
  3
CANNOSCALE
350
337
  0
XRECORD
  5
338
102
{ACAD_REACTORS
330
235
102
}
330
235
100
AcDbXrecord
280
     1
  0
DICTIONARY
  5
28B
102
{ACAD_REACTORS
330
235
102
}
330
235
100
AcDbDictionary
281
     1
  3
Grid/DisplayGrid00
350
2A1
  3
Grid/DisplayGrid01
350
2A2
  3
Grid/DisplayGrid02
350
2A3
  3
Grid/DisplayGrid03
350
2A6
  3
Grid/GridSpacingX00
350
298
  3
Grid/GridSpacingX01
350
299
  3
Grid/GridSpacingX02
350
29C
  3
Grid/GridSpacingX03
350
29E
  3
Grid/GridSpacingY00
350
2B3
  3
Grid/GridSpacingY01
350
2B4
  3
Grid/GridSpacingY02
350
2B5
  3
Grid/GridSpacingY03
350
2B6
  3
Grid/IsometricGrid00
350
28C
  3
Grid/IsometricGrid01
350
28E
  3
Grid/IsometricGrid02
350
28F
  3
Grid/IsometricGrid03
350
290
  3
Grid/IsometricProjection00
350
2A9
  3
Grid/IsometricProjection01
350
2AA
  3
Grid/IsometricProjection02
350
2AC
  3
Grid/IsometricProjection03
350
2AF
  3
Grid/MetaGridSpacingX00
350
297
  3
Grid/MetaGridSpacingX01
350
29B
  3
Grid/MetaGridSpacingX02
350
29D
  3
Grid/MetaGridSpacingX03
350
29F
  3
Grid/MetaGridSpacingY00
350
291
  3
Grid/MetaGridSpacingY01
350
292
  3
Grid/MetaGridSpacingY02
350
293
  3
Grid/MetaGridSpacingY03
350
294
  3
MultiPageSettings/Columns
350
296
  3
MultiPageSettings/GlueMarginsBottom
350
2A0
  3
MultiPageSettings/GlueMarginsLeft
350
295
  3
MultiPageSettings/GlueMarginsRight
350
2A8
  3
MultiPageSettings/GlueMarginsTop
350
2AB
  3
MultiPageSettings/PrintCropMarks
350
2A5
  3
MultiPageSettings/Rows
350
29A
  3
PageSettings/OffsetX
350
2AD
  3
PageSettings/OffsetY
350
2AE
  3
PageSettings/PageOrientation
350
2B1
  3
PageSettings/PaperHeight
350
2B0
  3
PageSettings/PaperWidth
350
2B2
  3
PageSettings/Scale
350
2A4
  3
PageSettings/ShowPaperBorders
350
2A7
  3
UnitSettings/PaperUnit
350
28D
  0
LAYOUT
  5
246
102
{ACAD_REACTORS
330
242
102
}
330
242
100
AcDbPlotSettings
  1

  2
none_device
  4

  6

 40
0.0
 41
0.0
 42
0.0
 43
0.0
 44
0.0
 45
0.0
 46
0.0
 47
0.0
 48
0.0
 49
0.0
140
0.0
141
0.0
142
1.0
143
1.0
 70
   688
 72
     0
 73
     0
 74
     5
  7

 75
    16
 76
     0
 77
     2
 78
   300
147
1.0
148
0.0
149
0.0
100
AcDbLayout
  1
Layout1
 70
     1
 71
     1
 10
0.0
 20
0.0
 11
210.0
 21
297.0
 12
0.0
 22
0.0
 32
0.0
 14
1.000000000000000E+20
 24
1.000000000000000E+20
 34
1.000000000000000E+20
 15
-1.000000000000000E+20
 25
-1.000000000000000E+20
 35
-1.000000000000000E+20
146
0.0
 13
0.0
 23
0.0
 33
0.0
 16
1.0
 26
0.0
 36
0.0
 17
0.0
 27
1.0
 37
0.0
 76
     0
330
243
  0
LAYOUT
  5
24E
102
{ACAD_REACTORS
330
242
102
}
330
242
100
AcDbPlotSettings
  1

  2
none_device
  4

  6

 40
0.0
 41
0.0
 42
0.0
 43
0.0
 44
0.0
 45
0.0
 46
0.0
 47
0.0
 48
0.0
 49
0.0
140
0.0
141
0.0
142
1.0
143
1.0
 70
   688
 72
     0
 73
     0
 74
     5
  7

 75
    16
 76
     0
 77
     2
 78
   300
147
1.0
148
0.0
149
0.0
100
AcDbLayout
  1
Layout2
 70
     1
 71
     2
 10
0.0
 20
0.0
 11
0.0
 21
0.0
 12
0.0
 22
0.0
 32
0.0
 14
0.0
 24
0.0
 34
0.0
 15
0.0
 25
0.0
 35
0.0
146
0.0
 13
0.0
 23
0.0
 33
0.0
 16
1.0
 26
0.0
 36
0.0
 17
0.0
 27
1.0
 37
0.0
 76
     0
330
24B
  0
LAYOUT
  5
24A
102
{ACAD_REACTORS
330
242
102
}
330
242
100
AcDbPlotSettings
  1

  2
none_device
  4

  6

 40
0.0
 41
0.0
 42
0.0
 43
0.0
 44
0.0
 45
0.0
 46
0.0
 47
0.0
 48
0.0
 49
0.0
140
0.0
141
0.0
142
1.0
143
1.0
 70
  1712
 72
     0
 73
     0
 74
     0
  7

 75
     0
 76
     0
 77
     2
 78
   300
147
1.0
148
0.0
149
0.0
100
AcDbLayout
  1
Model
 70
     1
 71
     0
 10
0.0
 20
0.0
 11
12.0
 21
9.0
 12
0.0
 22
0.0
 32
0.0
 14
1.000000000000000E+20
 24
1.000000000000000E+20
 34
1.000000000000000E+20
 15
-1.000000000000000E+20
 25
-1.000000000000000E+20
 35
-1.000000000000000E+20
146
0.0
 13
0.0
 23
0.0
 33
0.0
 16
1.0
 26
0.0
 36
0.0
 17
0.0
 27
1.0
 37
0.0
 76
     0
330
247
331
251
  0
MATERIAL
  5
265
102
{ACAD_REACTORS
330
263
102
}
330
263
100
AcDbMaterial
  1
ByBlock
 72
     1
 94
      127
  0
MATERIAL
  5
264
102
{ACAD_REACTORS
330
263
102
}
330
263
100
AcDbMaterial
  1
ByLayer
 72
     1
 94
      127
  0
MATERIAL
  5
266
102
{ACAD_REACTORS
330
263
102
}
330
263
100
AcDbMaterial
  1
Global
 72
     1
 94
      127
  0
MLINESTYLE
  5
240
102
{ACAD_REACTORS
330
23F
102
}
330
23F
100
AcDbMlineStyle
  2
Standard
 70
     0
  3

 62
   256
 51
90.0
 52
90.0
 71
     2
 49
0.5
 62
   256
  6
BYLAYER
 49
-0.5
 62
   256
  6
BYLAYER
  0
ACDBPLACEHOLDER
  5
238
102
{ACAD_REACTORS
330
237
102
}
330
237
  0
SCALE
  5
268
102
{ACAD_REACTORS
330
267
102
}
330
267
100
AcDbScale
 70
     0
300
1:1
140
1.0
141
1.0
290
     1
  0
SCALE
  5
269
102
{ACAD_REACTORS
330
267
102
}
330
267
100
AcDbScale
 70
     0
300
1:2
140
1.0
141
2.0
290
     0
  0
SCALE
  5
26A
102
{ACAD_REACTORS
330
267
102
}
330
267
100
AcDbScale
 70
     0
300
1:4
140
1.0
141
4.0
290
     0
  0
SCALE
  5
26B
102
{ACAD_REACTORS
330
267
102
}
330
267
100
AcDbScale
 70
     0
300
1:5
140
1.0
141
5.0
290
     0
  0
SCALE
  5
26C
102
{ACAD_REACTORS
330
267
102
}
330
267
100
AcDbScale
 70
     0
300
1:8
140
1.0
141
8.0
290
     0
  0
SCALE
  5
26D
102
{ACAD_REACTORS
330
267
102
}
330
267
100
AcDbScale
 70
     0
300
1:10
140
1.0
141
10.0
290
     0
  0
SCALE
  5
26E
102
{ACAD_REACTORS
330
267
102
}
330
267
100
AcDbScale
 70
     0
300
1:16
140
1.0
141
16.0
290
     0
  0
SCALE
  5
26F
102
{ACAD_REACTORS
330
267
102
}
330
267
100
AcDbScale
 70
     0
300
1:20
140
1.0
141
20.0
290
     0
  0
SCALE
  5
270
102
{ACAD_REACTORS
330
267
102
}
330
267
100
AcDbScale
 70
     0
300
1:30
140
1.0
141
30.0
290
     0
  0
SCALE
  5
271
102
{ACAD_REACTORS
330
267
102
}
330
267
100
AcDbScale
 70
     0
300
1:40
140
1.0
141
40.0
290
     0
  0
SCALE
  5
272
102
{ACAD_REACTORS
330
267
102
}
330
267
100
AcDbScale
 70
     0
300
1:50
140
1.0
141
50.0
290
     0
  0
SCALE
  5
273
102
{ACAD_REACTORS
330
267
102
}
330
267
100
AcDbScale
 70
     0
300
1:100
140
1.0
141
100.0
290
     0
  0
SCALE
  5
274
102
{ACAD_REACTORS
330
267
102
}
330
267
100
AcDbScale
 70
     0
300
2:1
140
2.0
141
1.0
290
     0
  0
SCALE
  5
275
102
{ACAD_REACTORS
330
267
102
}
330
267
100
AcDbScale
 70
     0
300
4:1
140
4.0
141
1.0
290
     0
  0
SCALE
  5
276
102
{ACAD_REACTORS
330
267
102
}
330
267
100
AcDbScale
 70
     0
300
8:1
140
8.0
141
1.0
290
     0
  0
SCALE
  5
277
102
{ACAD_REACTORS
330
267
102
}
330
267
100
AcDbScale
 70
     0
300
10:1
140
10.0
141
1.0
290
     0
  0
SCALE
  5
278
102
{ACAD_REACTORS
330
267
102
}
330
267
100
AcDbScale
 70
     0
300
100:1
140
100.0
141
1.0
290
     0
  0
SCALE
  5
279
102
{ACAD_REACTORS
330
267
102
}
330
267
100
AcDbScale
 70
     0
300
1/128" = 1'-0"
140
0.0078125
141
12.0
290
     0
  0
SCALE
  5
27A
102
{ACAD_REACTORS
330
267
102
}
330
267
100
AcDbScale
 70
     0
300
1/64" = 1'-0"
140
0.015625
141
12.0
290
     0
  0
SCALE
  5
27B
102
{ACAD_REACTORS
330
267
102
}
330
267
100
AcDbScale
 70
     0
300
1/32" = 1'-0"
140
0.03125
141
12.0
290
     0
  0
SCALE
  5
27C
102
{ACAD_REACTORS
330
267
102
}
330
267
100
AcDbScale
 70
     0
300
1/16" = 1'-0"
140
0.0625
141
12.0
290
     0
  0
SCALE
  5
27D
102
{ACAD_REACTORS
330
267
102
}
330
267
100
AcDbScale
 70
     0
300
3/32" = 1'-0"
140
0.09375
141
12.0
290
     0
  0
SCALE
  5
27E
102
{ACAD_REACTORS
330
267
102
}
330
267
100
AcDbScale
 70
     0
300
1/8" = 1'-0"
140
0.125
141
12.0
290
     0
  0
SCALE
  5
27F
102
{ACAD_REACTORS
330
267
102
}
330
267
100
AcDbScale
 70
     0
300
3/16" = 1'-0"
140
0.1875
141
12.0
290
     0
  0
SCALE
  5
280
102
{ACAD_REACTORS
330
267
102
}
330
267
100
AcDbScale
 70
     0
300
1/4" = 1'-0"
140
0.25
141
12.0
290
     0
  0
SCALE
  5
281
102
{ACAD_REACTORS
330
267
102
}
330
267
100
AcDbScale
 70
     0
300
3/8" = 1'-0"
140
0.375
141
12.0
290
     0
  0
SCALE
  5
282
102
{ACAD_REACTORS
330
267
102
}
330
267
100
AcDbScale
 70
     0
300
1/2" = 1'-0"
140
0.5
141
12.0
290
     0
  0
SCALE
  5
283
102
{ACAD_REACTORS
330
267
102
}
330
267
100
AcDbScale
 70
     0
300
3/4" = 1'-0"
140
0.75
141
12.0
290
     0
  0
SCALE
  5
284
102
{ACAD_REACTORS
330
267
102
}
330
267
100
AcDbScale
 70
     0
300
1" = 1'-0"
140
1.0
141
12.0
290
     0
  0
SCALE
  5
285
102
{ACAD_REACTORS
330
267
102
}
330
267
100
AcDbScale
 70
     0
300
1-1/2" = 1'-0"
140
1.5
141
12.0
290
     0
  0
SCALE
  5
286
102
{ACAD_REACTORS
330
267
102
}
330
267
100
AcDbScale
 70
     0
300
3" = 1'-0"
140
3.0
141
12.0
290
     0
  0
SCALE
  5
287
102
{ACAD_REACTORS
330
267
102
}
330
267
100
AcDbScale
 70
     0
300
6" = 1'-0"
140
6.0
141
12.0
290
     0
  0
SCALE
  5
288
102
{ACAD_REACTORS
330
267
102
}
330
267
100
AcDbScale
 70
     0
300
1'-0" = 1'-0"
140
12.0
141
12.0
290
     0
  0
VISUALSTYLE
  5
257
102
{ACAD_REACTORS
330
252
102
}
330
252
100
AcDbVisualStyle
  2
2dWireframe
 70
     4
177
     2
291
     0
 71
     0
176
     1
 72
     2
176
     1
 73
     0
176
     1
 90
        0
176
     1
 40
-0.6
176
     1
 41
-30.0
176
     1
 62
     5
 63
     7
421
 16777215
176
     1
 74
     1
176
     1
 91
        4
176
     1
 64
     7
176
     1
 65
   257
176
     1
 75
     1
176
     1
175
     1
176
     1
 42
1.0
176
     1
 92
        0
176
     1
 66
   257
176
     1
 43
1.0
176
     1
 76
     1
176
     1
 77
     6
176
     1
 78
     2
176
     1
 67
     7
176
     1
 79
     5
176
     1
170
     0
176
     1
171
     0
176
     1
290
     0
176
     1
 93
        1
176
     1
 44
0.0
176
     1
173
     0
176
     1
  0
VISUALSTYLE
  5
259
102
{ACAD_REACTORS
330
252
102
}
330
252
100
AcDbVisualStyle
  2
3D Hidden
 70
     6
177
     2
291
     0
 71
     1
176
     1
 72
     2
176
     1
 73
     2
176
     1
 90
        0
176
     1
 40
-0.6
176
     1
 41
-30.0
176
     1
 62
     5
 63
     7
421
 16777215
176
     1
 74
     2
176
     1
 91
        2
176
     1
 64
     7
176
     1
 65
   257
176
     1
 75
     2
176
     1
175
     1
176
     1
 42
40.0
176
     1
 92
        0
176
     1
 66
   257
176
     1
 43
1.0
176
     1
 76
     1
176
     1
 77
     6
176
     1
 78
     2
176
     1
 67
     7
176
     1
 79
     3
176
     1
170
     0
176
     1
171
     0
176
     1
290
     0
176
     1
 93
        1
176
     1
 44
0.0
176
     1
173
     0
176
     1
  0
VISUALSTYLE
  5
258
102
{ACAD_REACTORS
330
252
102
}
330
252
100
AcDbVisualStyle
  2
3dWireframe
 70
     5
177
     2
291
     0
 71
     0
176
     1
 72
     2
176
     1
 73
     0
176
     1
 90
        0
176
     1
 40
-0.6
176
     1
 41
-30.0
176
     1
 62
     5
 63
     7
421
 16777215
176
     1
 74
     1
176
     1
 91
        4
176
     1
 64
     7
176
     1
 65
   257
176
     1
 75
     1
176
     1
175
     1
176
     1
 42
1.0
176
     1
 92
        0
176
     1
 66
   257
176
     1
 43
1.0
176
     1
 76
     1
176
     1
 77
     6
176
     1
 78
     2
176
     1
 67
     7
176
     1
 79
     5
176
     1
170
     0
176
     1
171
     0
176
     1
290
     0
176
     1
 93
        1
176
     1
 44
0.0
176
     1
173
     0
176
     1
  0
VISUALSTYLE
  5
25A
102
{ACAD_REACTORS
330
252
102
}
330
252
100
AcDbVisualStyle
  2
Basic
 70
     7
177
     2
291
     1
 71
     1
176
     1
 72
     0
176
     1
 73
     1
176
     1
 90
        0
176
     1
 40
-0.6
176
     1
 41
-30.0
176
     1
 62
     5
 63
     7
421
 16777215
176
     1
 74
     0
176
     1
 91
        4
176
     1
 64
     7
176
     1
 65
   257
176
     1
 75
     1
176
     1
175
     1
176
     1
 42
1.0
176
     1
 92
        8
176
     1
 66
     7
176
     1
 43
1.0
176
     1
 76
     1
176
     1
 77
     6
176
     1
 78
     2
176
     1
 67
     7
176
     1
 79
     5
176
     1
170
     0
176
     1
171
     0
176
     1
290
     0
176
     1
 93
        1
176
     1
 44
0.0
176
     1
173
     0
176
     1
  0
VISUALSTYLE
  5
25E
102
{ACAD_REACTORS
330
252
102
}
330
252
100
AcDbVisualStyle
  2
Brighten
 70
    12
177
     2
291
     1
 71
     2
176
     1
 72
     2
176
     1
 73
     0
176
     1
 90
        0
176
     1
 40
-0.6
176
     1
 41
-30.0
176
     1
 62
     5
 63
     7
421
 16777215
176
     1
 74
     1
176
     1
 91
        4
176
     1
 64
     7
176
     1
 65
   257
176
     1
 75
     1
176
     1
175
     1
176
     1
 42
1.0
176
     1
 92
        8
176
     1
 66
     7
176
     1
 43
1.0
176
     1
 76
     1
176
     1
 77
     6
176
     1
 78
     2
176
     1
 67
     7
176
     1
 79
     5
176
     1
170
     0
176
     1
171
     0
176
     1
290
     0
176
     1
 93
        1
176
     1
 44
50.0
176
     1
173
     0
176
     1
  0
VISUALSTYLE
  5
262
102
{ACAD_REACTORS
330
252
102
}
330
252
100
AcDbVisualStyle
  2
ColorChange
 70
    16
177
     2
291
     1
 71
     2
176
     1
 72
     2
176
     1
 73
     3
176
     1
 90
        0
176
     1
 40
-0.6
176
     1
 41
-30.0
176
     1
 62
     5
 63
     8
421
  8421504
176
     1
 74
     1
176
     1
 91
        4
176
     1
 64
     7
176
     1
 65
   257
176
     1
 75
     1
176
     1
175
     1
176
     1
 42
1.0
176
     1
 92
        8
176
     1
 66
     8
424
  8421504
176
     1
 43
1.0
176
     1
 76
     1
176
     1
 77
     6
176
     1
 78
     2
176
     1
 67
     7
176
     1
 79
     5
176
     1
170
     0
176
     1
171
     0
176
     1
290
     0
176
     1
 93
        1
176
     1
 44
0.0
176
     1
173
     0
176
     1
  0
VISUALSTYLE
  5
25C
102
{ACAD_REACTORS
330
252
102
}
330
252
100
AcDbVisualStyle
  2
Conceptual
 70
     9
177
     2
291
     0
 71
     3
176
     1
 72
     2
176
     1
 73
     0
176
     1
 90
        0
176
     1
 40
-0.6
176
     1
 41
-30.0
176
     1
 62
     5
 63
     7
421
 16777215
176
     1
 74
     2
176
     1
 91
        2
176
     1
 64
     7
176
     1
 65
   257
176
     1
 75
     1
176
     1
175
     1
176
     1
 42
40.0
176
     1
 92
        8
176
     1
 66
     7
176
     1
 43
1.0
176
     1
 76
     1
176
     1
 77
     6
176
     1
 78
     2
176
     1
 67
     7
176
     1
 79
     3
176
     1
170
     0
176
     1
171
     0
176
     1
290
     0
176
     1
 93
        1
176
     1
 44
0.0
176
     1
173
     0
176
     1
  0
VISUALSTYLE
  5
25D
102
{ACAD_REACTORS
330
252
102
}
330
252
100
AcDbVisualStyle
  2
Dim
 70
    11
177
     2
291
     1
 71
     2
176
     1
 72
     2
176
     1
 73
     0
176
     1
 90
        0
176
     1
 40
-0.6
176
     1
 41
-30.0
176
     1
 62
     5
 63
     7
421
 16777215
176
     1
 74
     1
176
     1
 91
        4
176
     1
 64
     7
176
     1
 65
   257
176
     1
 75
     1
176
     1
175
     1
176
     1
 42
1.0
176
     1
 92
        8
176
     1
 66
     7
176
     1
 43
1.0
176
     1
 76
     1
176
     1
 77
     6
176
     1
 78
     2
176
     1
 67
     7
176
     1
 79
     5
176
     1
170
     0
176
     1
171
     0
176
     1
290
     0
176
     1
 93
        1
176
     1
 44
-50.0
176
     1
173
     0
176
     1
  0
VISUALSTYLE
  5
261
102
{ACAD_REACTORS
330
252
102
}
330
252
100
AcDbVisualStyle
  2
Facepattern
 70
    15
177
     2
291
     1
 71
     2
176
     1
 72
     2
176
     1
 73
     0
176
     1
 90
        0
176
     1
 40
-0.6
176
     1
 41
-30.0
176
     1
 62
     5
 63
     7
421
 16777215
176
     1
 74
     1
176
     1
 91
        4
176
     1
 64
     7
176
     1
 65
   257
176
     1
 75
     1
176
     1
175
     1
176
     1
 42
1.0
176
     1
 92
        8
176
     1
 66
     7
176
     1
 43
1.0
176
     1
 76
     1
176
     1
 77
     6
176
     1
 78
     2
176
     1
 67
     7
176
     1
 79
     5
176
     1
170
     0
176
     1
171
     0
176
     1
290
     0
176
     1
 93
        1
176
     1
 44
0.0
176
     1
173
     0
176
     1
  0
VISUALSTYLE
  5
253
102
{ACAD_REACTORS
330
252
102
}
330
252
100
AcDbVisualStyle
  2
Flat
 70
     0
177
     2
291
     1
 71
     2
176
     1
 72
     1
176
     1
 73
     1
176
     1
 90
        2
176
     1
 40
-0.6
176
     1
 41
30.0
176
     1
 62
     5
 63
     7
421
 16777215
176
     1
 74
     0
176
     1
 91
        4
176
     1
 64
     7
176
     1
 65
   257
176
     1
 75
     1
176
     1
175
     1
176
     1
 42
1.0
176
     1
 92
        8
176
     1
 66
     7
176
     1
 43
1.0
176
     1
 76
     1
176
     1
 77
     6
176
     1
 78
     2
176
     1
 67
     7
176
     1
 79
     5
176
     1
170
     0
176
     1
171
     0
176
     1
290
     0
176
     1
 93
       13
176
     1
 44
0.0
176
     1
173
     0
176
     1
  0
VISUALSTYLE
  5
254
102
{ACAD_REACTORS
330
252
102
}
330
252
100
AcDbVisualStyle
  2
FlatWithEdges
 70
     1
177
     2
291
     1
 71
     2
176
     1
 72
     1
176
     1
 73
     1
176
     1
 90
        2
176
     1
 40
-0.6
176
     1
 41
30.0
176
     1
 62
     5
 63
     7
421
 16777215
176
     1
 74
     1
176
     1
 91
        4
176
     1
 64
     7
176
     1
 65
   257
176
     1
 75
     1
176
     1
175
     1
176
     1
 42
1.0
176
     1
 92
        0
176
     1
 66
   257
176
     1
 43
1.0
176
     1
 76
     1
176
     1
 77
     6
176
     1
 78
     2
176
     1
 67
     7
176
     1
 79
     5
176
     1
170
     0
176
     1
171
     0
176
     1
290
     0
176
     1
 93
       13
176
     1
 44
0.0
176
     1
173
     0
176
     1
  0
VISUALSTYLE
  5
255
102
{ACAD_REACTORS
330
252
102
}
330
252
100
AcDbVisualStyle
  2
Gouraud
 70
     2
177
     2
291
     1
 71
     2
176
     1
 72
     2
176
     1
 73
     1
176
     1
 90
        2
176
     1
 40
-0.6
176
     1
 41
30.0
176
     1
 62
     5
 63
     7
421
 16777215
176
     1
 74
     0
176
     1
 91
        4
176
     1
 64
     7
176
     1
 65
   257
176
     1
 75
     1
176
     1
175
     1
176
     1
 42
1.0
176
     1
 92
        0
176
     1
 66
     7
176
     1
 43
1.0
176
     1
 76
     1
176
     1
 77
     6
176
     1
 78
     2
176
     1
 67
     7
176
     1
 79
     5
176
     1
170
     0
176
     1
171
     0
176
     1
290
     0
176
     1
 93
       13
176
     1
 44
0.0
176
     1
173
     0
176
     1
  0
VISUALSTYLE
  5
256
102
{ACAD_REACTORS
330
252
102
}
330
252
100
AcDbVisualStyle
  2
GouraudWithEdges
 70
     3
177
     2
291
     1
 71
     2
176
     1
 72
     2
176
     1
 73
     1
176
     1
 90
        2
176
     1
 40
-0.6
176
     1
 41
30.0
176
     1
 62
     5
 63
     7
421
 16777215
176
     1
 74
     1
176
     1
 91
        4
176
     1
 64
     7
176
     1
 65
   257
176
     1
 75
     1
176
     1
175
     1
176
     1
 42
1.0
176
     1
 92
        0
176
     1
 66
   257
176
     1
 43
1.0
176
     1
 76
     1
176
     1
 77
     6
176
     1
 78
     2
176
     1
 67
     7
176
     1
 79
     5
176
     1
170
     0
176
     1
171
     0
176
     1
290
     0
176
     1
 93
       13
176
     1
 44
0.0
176
     1
173
     0
176
     1
  0
VISUALSTYLE
  5
260
102
{ACAD_REACTORS
330
252
102
}
330
252
100
AcDbVisualStyle
  2
Linepattern
 70
    14
177
     2
291
     1
 71
     2
176
     1
 72
     2
176
     1
 73
     0
176
     1
 90
        0
176
     1
 40
-0.6
176
     1
 41
-30.0
176
     1
 62
     5
 63
     7
421
 16777215
176
     1
 74
     1
176
     1
 91
        4
176
     1
 64
     7
176
     1
 65
   257
176
     1
 75
     7
176
     1
175
     7
176
     1
 42
1.0
176
     1
 92
        8
176
     1
 66
     7
176
     1
 43
1.0
176
     1
 76
     1
176
     1
 77
     6
176
     1
 78
     2
176
     1
 67
     7
176
     1
 79
     5
176
     1
170
     0
176
     1
171
     0
176
     1
290
     0
176
     1
 93
        1
176
     1
 44
0.0
176
     1
173
     0
176
     1
  0
VISUALSTYLE
  5
25B
102
{ACAD_REACTORS
330
252
102
}
330
252
100
AcDbVisualStyle
  2
Realistic
 70
     8
177
     2
291
     0
 71
     2
176
     1
 72
     2
176
     1
 73
     0
176
     1
 90
        0
176
     1
 40
-0.6
176
     1
 41
-30.0
176
     1
 62
     5
 63
     7
421
 16777215
176
     1
 74
     1
176
     1
 91
        0
176
     1
 64
     7
176
     1
 65
   257
176
     1
 75
     1
176
     1
175
     1
176
     1
 42
1.0
176
     1
 92
        8
176
     1
 66
     8
424
  7895160
176
     1
 43
1.0
176
     1
 76
     1
176
     1
 77
     6
176
     1
 78
     2
176
     1
 67
     7
176
     1
 79
     5
176
     1
170
     0
176
     1
171
     0
176
     1
290
     0
176
     1
 93
       13
176
     1
 44
0.0
176
     1
173
     0
176
     1
  0
VISUALSTYLE
  5
25F
102
{ACAD_REACTORS
330
252
102
}
330
252
100
AcDbVisualStyle
  2
Thicken
 70
    13
177
     2
291
     1
 71
     2
176
     1
 72
     2
176
     1
 73
     0
176
     1
 90
        0
176
     1
 40
-0.6
176
     1
 41
-30.0
176
     1
 62
     5
 63
     7
421
 16777215
176
     1
 74
     1
176
     1
 91
        4
176
     1
 64
     7
176
     1
 65
   257
176
     1
 75
     1
176
     1
175
     1
176
     1
 42
1.0
176
     1
 92
       12
176
     1
 66
     7
176
     1
 43
1.0
176
     1
 76
     1
176
     1
 77
     6
176
     1
 78
     2
176
     1
 67
     7
176
     1
 79
     5
176
     1
170
     0
176
     1
171
     0
176
     1
290
     0
176
     1
 93
        1
176
     1
 44
0.0
176
     1
173
     0
176
     1
  0
DICTIONARYVAR
  5
337
102
{ACAD_REACTORS
330
336
102
}
330
336
100
DictionaryVariables
280
     0
  1
1:1
  0
XRECORD
  5
2A1
102
{ACAD_REACTORS
330
28B
102
}
330
28B
100
AcDbXrecord
280
     1
290
     1
  0
XRECORD
  5
2A2
102
{ACAD_REACTORS
330
28B
102
}
330
28B
100
AcDbXrecord
280
     1
290
     1
  0
XRECORD
  5
2A3
102
{ACAD_REACTORS
330
28B
102
}
330
28B
100
AcDbXrecord
280
     1
290
     1
  0
XRECORD
  5
2A6
102
{ACAD_REACTORS
330
28B
102
}
330
28B
100
AcDbXrecord
280
     1
290
     1
  0
XRECORD
  5
298
102
{ACAD_REACTORS
330
28B
102
}
330
28B
100
AcDbXrecord
280
     1
1000
auto
  0
XRECORD
  5
299
102
{ACAD_REACTORS
330
28B
102
}
330
28B
100
AcDbXrecord
280
     1
1000
auto
  0
XRECORD
  5
29C
102
{ACAD_REACTORS
330
28B
102
}
330
28B
100
AcDbXrecord
280
     1
1000
auto
  0
XRECORD
  5
29E
102
{ACAD_REACTORS
330
28B
102
}
330
28B
100
AcDbXrecord
280
     1
1000
auto
  0
XRECORD
  5
2B3
102
{ACAD_REACTORS
330
28B
102
}
330
28B
100
AcDbXrecord
280
     1
1000
auto
  0
XRECORD
  5
2B4
102
{ACAD_REACTORS
330
28B
102
}
330
28B
100
AcDbXrecord
280
     1
1000
auto
  0
XRECORD
  5
2B5
102
{ACAD_REACTORS
330
28B
102
}
330
28B
100
AcDbXrecord
280
     1
1000
auto
  0
XRECORD
  5
2B6
102
{ACAD_REACTORS
330
28B
102
}
330
28B
100
AcDbXrecord
280
     1
1000
auto
  0
XRECORD
  5
28C
102
{ACAD_REACTORS
330
28B
102
}
330
28B
100
AcDbXrecord
280
     1
290
     0
  0
XRECORD
  5
28E
102
{ACAD_REACTORS
330
28B
102
}
330
28B
100
AcDbXrecord
280
     1
290
     0
  0
XRECORD
  5
28F
102
{ACAD_REACTORS
330
28B
102
}
330
28B
100
AcDbXrecord
280
     1
290
     0
  0
XRECORD
  5
290
102
{ACAD_REACTORS
330
28B
102
}
330
28B
100
AcDbXrecord
280
     1
290
     0
  0
XRECORD
  5
2A9
102
{ACAD_REACTORS
330
28B
102
}
330
28B
100
AcDbXrecord
280
     1
 90
        0
  0
XRECORD
  5
2AA
102
{ACAD_REACTORS
330
28B
102
}
330
28B
100
AcDbXrecord
280
     1
 90
        0
  0
XRECORD
  5
2AC
102
{ACAD_REACTORS
330
28B
102
}
330
28B
100
AcDbXrecord
280
     1
 90
        0
  0
XRECORD
  5
2AF
102
{ACAD_REACTORS
330
28B
102
}
330
28B
100
AcDbXrecord
280
     1
 90
        0
  0
XRECORD
  5
297
102
{ACAD_REACTORS
330
28B
102
}
330
28B
100
AcDbXrecord
280
     1
1000
auto
  0
XRECORD
  5
29B
102
{ACAD_REACTORS
330
28B
102
}
330
28B
100
AcDbXrecord
280
     1
1000
auto
  0
XRECORD
  5
29D
102
{ACAD_REACTORS
330
28B
102
}
330
28B
100
AcDbXrecord
280
     1
1000
auto
  0
XRECORD
  5
29F
102
{ACAD_REACTORS
330
28B
102
}
330
28B
100
AcDbXrecord
280
     1
1000
auto
  0
XRECORD
  5
291
102
{ACAD_REACTORS
330
28B
102
}
330
28B
100
AcDbXrecord
280
     1
1000
auto
  0
XRECORD
  5
292
102
{ACAD_REACTORS
330
28B
102
}
330
28B
100
AcDbXrecord
280
     1
1000
auto
  0
XRECORD
  5
293
102
{ACAD_REACTORS
330
28B
102
}
330
28B
100
AcDbXrecord
280
     1
1000
auto
  0
XRECORD
  5
294
102
{ACAD_REACTORS
330
28B
102
}
330
28B
100
AcDbXrecord
280
     1
1000
auto
  0
XRECORD
  5
296
102
{ACAD_REACTORS
330
28B
102
}
330
28B
100
AcDbXrecord
280
     1
 90
        1
  0
XRECORD
  5
2A0
102
{ACAD_REACTORS
330
28B
102
}
330
28B
100
AcDbXrecord
280
     1
 40
10.0
  0
XRECORD
  5
295
102
{ACAD_REACTORS
330
28B
102
}
330
28B
100
AcDbXrecord
280
     1
 40
10.0
  0
XRECORD
  5
2A8
102
{ACAD_REACTORS
330
28B
102
}
330
28B
100
AcDbXrecord
280
     1
 40
10.0
  0
XRECORD
  5
2AB
102
{ACAD_REACTORS
330
28B
102
}
330
28B
100
AcDbXrecord
280
     1
 40
10.0
  0
XRECORD
  5
2A5
102
{ACAD_REACTORS
330
28B
102
}
330
28B
100
AcDbXrecord
280
     1
290
     0
  0
XRECORD
  5
29A
102
{ACAD_REACTORS
330
28B
102
}
330
28B
100
AcDbXrecord
280
     1
 90
        1
  0
XRECORD
  5
2AD
102
{ACAD_REACTORS
330
28B
102
}
330
28B
100
AcDbXrecord
280
     1
 40
0.0
  0
XRECORD
  5
2AE
102
{ACAD_REACTORS
330
28B
102
}
330
28B
100
AcDbXrecord
280
     1
 40
0.0
  0
XRECORD
  5
2B1
102
{ACAD_REACTORS
330
28B
102
}
330
28B
100
AcDbXrecord
280
     1
1000
Portait
  0
XRECORD
  5
2B0
102
{ACAD_REACTORS
330
28B
102
}
330
28B
100
AcDbXrecord
280
     1
 40
297.0
  0
XRECORD
  5
2B2
102
{ACAD_REACTORS
330
28B
102
}
330
28B
100
AcDbXrecord
280
     1
 40
210.0
  0
XRECORD
  5
2A4
102
{ACAD_REACTORS
330
28B
102
}
330
28B
100
AcDbXrecord
280
     1
1000
1
  0
XRECORD
  5
2A7
102
{ACAD_REACTORS
330
28B
102
}
330
28B
100
AcDbXrecord
280
     1
290
     1
  0
XRECORD
  5
28D
102
{ACAD_REACTORS
330
28B
102
}
330
28B
100
AcDbXrecord
280
     1
 90
        4
  0
ENDSEC
  0
EOF
