<svg xmlns="http://www.w3.org/2000/svg" width="64" height="64" viewBox="9.875 -30.125 18.062223 18.062223" style="fill:none;stroke-linecap:round;stroke-linejoin:round"><g style="stroke:#000;stroke-width:.847"><path d="m20.906-23.09v-6c1.047 0 2.088.431 2.828 1.172.74.74 1.172 1.781 1.172 2.828v2z" style="fill:#fff"/><path d="m12.906-23.09h4v-6c-1.047 0-2.088.431-2.828 1.172-.74.74-1.172 1.781-1.172 2.828z" style="fill:#f00"/><g style="fill:#fff"><path d="m16.906-29.09h4v6h-4z"/><path d="m24.906-17.09c0 1.047-.431 2.088-1.172 2.828-.74.74-1.781 1.172-2.828 1.172h-4c-1.047 0-2.088-.431-2.828-1.172-.74-.74-1.172-1.781-1.172-2.828v-6h12z"/></g></g></svg>