<svg xmlns="http://www.w3.org/2000/svg" xmlns:xlink="http://www.w3.org/1999/xlink" viewBox="0 0 512 512"><defs><path id="D" d="m62.5 4.5a10 10 0 1 1 -20 0 10 10 0 1 1 20 0z"/><filter width="1.177" x="-.089" y="-.384" height="1.767" id="0"><feGaussianBlur stdDeviation="1.59836"/></filter><linearGradient id="4" y1="12.472" x1="55.878" y2="-4.621" x2="52.5" gradientUnits="userSpaceOnUse"><stop style="stop-color:#888a85"/><stop offset="1" style="stop-color:#babdb6"/></linearGradient><linearGradient id="5" y1="35.743" x1="3.5" y2="45.743" x2="46.779" gradientUnits="userSpaceOnUse"><stop style="stop-opacity:0"/><stop offset=".081" style="stop-opacity:0"/><stop offset=".615" style="stop-opacity:.247"/><stop offset=".749" style="stop-opacity:.498"/><stop offset="1"/></linearGradient><linearGradient id="7" y1="57.15" x1="81.1" y2="54.615" gradientUnits="userSpaceOnUse" x2="83.63"><stop style="stop-color:#2e3436"/><stop offset="1" style="stop-color:#555753"/></linearGradient><linearGradient id="6" y1="320.74" x1="323.69" y2="355.15" x2="358.1" gradientUnits="userSpaceOnUse"><stop/><stop offset="1" style="stop-opacity:0"/></linearGradient><linearGradient id="1" y1="55.11" x1="81.33" y2="53.51" gradientUnits="userSpaceOnUse" x2="82.92"><stop style="stop-color:#555753"/><stop offset=".702" style="stop-color:#a3a5a2"/><stop offset="1" style="stop-color:#888a85"/></linearGradient><linearGradient id="3" y1="416.25" x1="390.51" y2="388.89" x2="420.51" gradientUnits="userSpaceOnUse"><stop style="stop-color:#888a85"/><stop offset="1" style="stop-color:#d3d7cf"/></linearGradient><linearGradient id="2" y1="12.847" x1="54.11" y2="-3.881" x2="50.08" gradientUnits="userSpaceOnUse"><stop style="stop-color:#babdb6"/><stop offset="1" style="stop-color:#888a85"/></linearGradient><radialGradient cx="16.83" cy="24.744" gradientTransform="matrix(23.8004-6.3773 5.65603 21.1095-356.14-197.05)" id="B" r="16.925" gradientUnits="userSpaceOnUse" xlink:href="#8"/><radialGradient cx="17.06" cy="28.851" gradientTransform="matrix(1.45955 0 0 1.34534-7.403-10.822)" id="C" r="13.5" gradientUnits="userSpaceOnUse"><stop style="stop-color:#429eff"/><stop offset="1" style="stop-color:#0044a7"/></radialGradient><radialGradient cx="45.09" cy="-2.694" gradientTransform="matrix(0 1.14344-1.24722 0 41.735-54.26)" id="A" r="10.498" gradientUnits="userSpaceOnUse"><stop style="stop-color:#fff"/><stop offset="1" style="stop-color:#eeeeec"/></radialGradient><radialGradient cx="8.08" cy="9.521" id="8" r="9.29" gradientUnits="userSpaceOnUse"><stop style="stop-color:#fff"/><stop offset="1" style="stop-color:#fff;stop-opacity:0"/></radialGradient><radialGradient cx="59.787" cy="10.902" gradientTransform="matrix(0-1.68661 1.66336 0 41.654 111.74)" id="9" r="10.556" gradientUnits="userSpaceOnUse"><stop style="stop-color:#fbfbfa"/><stop offset="1" style="stop-color:#d3d7cf"/></radialGradient></defs><path d="m21 35.743c-9.66 0-17.5 1.813-17.5 4.047 0 2.234 7.84 4.047 17.5 4.047 4.496 0 8.587-.395 11.688-1.041l.813.947c.025.021.087.043.156.058l7.969 1.857c.357.083.883.101 1.531.072.649-.029 1.412-.124 2.219-.311.8-.185 1.206-.35 1.344-.499.138-.149.039-.28-.313-.361l-8.03-1.843c-.079-.018-.172-.032-.281-.036l-4.094-.188c2.79-.717 4.5-1.663 4.5-2.703 0-2.234-7.84-4.047-17.5-4.047" transform="matrix(10.66666 0 0 9.59999-12.153 35.788)" style="fill:url(#5);opacity:.6;filter:url(#0)"/><g style="color:#000"><path d="m31 18.25a13.5 13.75 0 1 1 -27 0 13.5 13.75 0 1 1 27 0" transform="matrix(12.64197 0 0 12.41212-25.387-34.27)" style="fill:url(#C);opacity:.6"/><path d="m189.78 16.254c-90.84 3.456-163.51 78.39-163.51 170.07 0 25.78 14.967 50.37 26.574 71.59-5.04-57.901 19.911-70.54 36.475-65.4 50.26 15.602 137.46 29.784 227.06-16.997 31.41-16.4 49.726 23.781 48.47-12.333-10.02-83.14-82.45-146.94-168.51-146.94-2.2 0-4.385-.083-6.565 0" style="fill:url(#B);opacity:.5"/><use transform="matrix(17.0667 0 0 17.0667-700.15 115.45)" xlink:href="#D" style="fill:none;stroke:url(#9);stroke-linecap:round;stroke-width:1.875"/><g transform="matrix(16.46988 0 0 16.38416-940.98-495.16)"><path d="m76.8 49.769l.648 3.255 5.181 5.213c.192.194.972.32 1.943-.656.972-.977.896-1.704.648-1.953l-5.181-5.208-3.238-.651z" style="fill:url(#1);stroke:url(#7);stroke-linecap:round;stroke-linejoin:round;stroke-width:.677"/><path d="m79.57 51.32c-.003.011.294.324-.245.865-.539.541-1.01.374-.993.36l-.269-1.522 1.508.296" style="fill:#fff;opacity:.192"/></g><path d="m337.55 333.89l6.641 34.15 79.996 80.52c3.934 3.96 9.961 2.324 19.922-7.637 9.961-9.961 12.529-14.947 7.584-19.922l-79.996-80.47-34.15-6.641z" style="fill:none;stroke:url(#3);stroke-linecap:round;stroke-width:10.667"/><path d="m322.05 314.83c-2.772.933-4.345 3.841-3.603 6.656l10.808 53.25c.27.978.804 1.863 1.544 2.56l84.92 85.5c3.806 3.81 9.551 4.923 16.47 3.584 6.918-1.339 15.07-5.726 23.676-14.336 8.539-8.539 12.94-16.178 14.411-23.04 1.471-6.862.149-13.144-3.603-16.896l-85.44-84.993c-.84-.824-1.921-1.362-3.088-1.536l-53.01-10.752c-1.01-.289-2.079-.289-3.088 0" style="fill:url(#6);opacity:.153"/><g style="fill:none;stroke-linecap:round"><use transform="matrix(17.59999 0 0 17.59999-728.15 113.05)" xlink:href="#D" style="stroke:url(#A);stroke-width:.606"/><use transform="matrix(18.66665 0 0 18.66665-784.15 108.25)" xlink:href="#D" style="stroke:url(#4);stroke-width:.571"/><use transform="matrix(15.50049 0 0 15.50052-617.93 122.5)" xlink:href="#D" style="stroke:url(#2);stroke-width:.688"/></g><path d="m22.1875 12.9375a9.8125 9.8125 0 1 1 -19.625 0 9.8125 9.8125 0 1 1 19.625 0" transform="matrix(14.1316 0 0 14.1316 20.968 9.426)" style="fill:url(#8);opacity:.161"/></g><path d="m99.85 90.92c-2.959 0-5.333 2.374-5.333 5.333v81.33h42v-42.667h44.667v-44h-81.33zm110.67 0v44h42.667v42.667h44v-81.33c0-2.959-2.374-5.333-5.333-5.333h-81.33zm-116 116v81.33c0 2.959 2.374 5.333 5.333 5.333h81.33v-44h-44.667v-42.667h-42zm158.67 0v42.667h-42.667v44h81.33c2.959 0 5.333-2.374 5.333-5.333v-81.33h-44z" style="fill:#fff;stroke:#3465a4;stroke-linecap:round;stroke-width:10.667"/></svg>