<svg xmlns="http://www.w3.org/2000/svg" viewBox="0 0 512 512"><g transform="matrix(1.13518 0 0 1.18785-73.827 0)"><g fill="#fff"><path d="m140.17 107.75v38.825h38.825v11.85h-38.825v38.825h-11.71v-38.825h-38.825v-11.85h38.825v-38.825h11.71"/><path d="m239.5 102.46c-7.249 0-12.709 3.578-16.38 10.734-3.625 7.11-5.437 17.821-5.437 32.13 0 14.266 1.812 24.977 5.437 32.13 3.671 7.11 9.131 10.665 16.38 10.665 7.296 0 12.756-3.555 16.38-10.665 3.671-7.156 5.507-17.867 5.507-32.13 0-14.313-1.836-25.02-5.507-32.13-3.625-7.156-9.08-10.734-16.38-10.734m0-11.153c11.664 0 20.563 4.624 26.697 13.871 6.18 9.201 9.271 22.584 9.271 40.15 0 17.519-3.09 30.902-9.271 40.15-6.134 9.201-15.03 13.801-26.697 13.801-11.664 0-20.586-4.601-26.766-13.801-6.134-9.247-9.201-22.631-9.201-40.15 0-17.565 3.067-30.948 9.201-40.15 6.18-9.247 15.1-13.871 26.766-13.871"/><path d="m300.28 179.55h14.707v17.705h-14.707v-17.705"/><path d="m375.84 102.46c-7.249 0-12.709 3.578-16.38 10.734-3.625 7.11-5.437 17.821-5.437 32.13 0 14.266 1.812 24.977 5.437 32.13 3.671 7.11 9.131 10.665 16.38 10.665 7.296 0 12.756-3.555 16.38-10.665 3.671-7.156 5.507-17.867 5.507-32.13 0-14.313-1.836-25.02-5.507-32.13-3.625-7.156-9.08-10.734-16.38-10.734m0-11.153c11.664 0 20.563 4.624 26.697 13.871 6.18 9.201 9.271 22.584 9.271 40.15 0 17.519-3.09 30.902-9.271 40.15-6.134 9.201-15.03 13.801-26.697 13.801-11.664 0-20.586-4.601-26.766-13.801-6.134-9.247-9.201-22.631-9.201-40.15 0-17.565 3.067-30.948 9.201-40.15 6.18-9.247 15.1-13.871 26.766-13.871"/><path d="m466.74 102.46c-7.249 0-12.709 3.578-16.38 10.734-3.625 7.11-5.437 17.821-5.437 32.13 0 14.266 1.812 24.977 5.437 32.13 3.671 7.11 9.131 10.665 16.38 10.665 7.296 0 12.756-3.555 16.38-10.665 3.671-7.156 5.507-17.867 5.507-32.13 0-14.313-1.836-25.02-5.507-32.13-3.625-7.156-9.08-10.734-16.38-10.734m0-11.153c11.664 0 20.563 4.624 26.697 13.871 6.18 9.201 9.271 22.584 9.271 40.15 0 17.519-3.09 30.902-9.271 40.15-6.134 9.201-15.03 13.801-26.697 13.801-11.664 0-20.586-4.601-26.766-13.801-6.134-9.247-9.201-22.631-9.201-40.15 0-17.565 3.067-30.948 9.201-40.15 6.18-9.247 15.1-13.871 26.766-13.871"/></g><g fill="#0cf"><path d="m149.51 292.89h37.57v11.431h-37.57v-11.431"/><path d="m239.5 242.91c-7.249 0-12.709 3.578-16.38 10.734-3.625 7.11-5.437 17.821-5.437 32.13 0 14.266 1.812 24.977 5.437 32.13 3.671 7.11 9.131 10.665 16.38 10.665 7.296 0 12.756-3.555 16.38-10.665 3.671-7.156 5.507-17.867 5.507-32.13 0-14.313-1.836-25.02-5.507-32.13-3.625-7.156-9.08-10.734-16.38-10.734m0-11.153c11.664 0 20.563 4.624 26.697 13.871 6.18 9.201 9.271 22.584 9.271 40.15 0 17.519-3.09 30.902-9.271 40.15-6.134 9.201-15.03 13.801-26.697 13.801-11.664 0-20.586-4.601-26.766-13.801-6.134-9.247-9.201-22.63-9.201-40.15 0-17.565 3.067-30.948 9.201-40.15 6.18-9.247 15.1-13.871 26.766-13.871"/><path d="m300.28 320h14.707v17.705h-14.707v-17.705"/><path d="m375.84 242.91c-7.249 0-12.709 3.578-16.38 10.734-3.625 7.11-5.437 17.821-5.437 32.13 0 14.266 1.812 24.977 5.437 32.13 3.671 7.11 9.131 10.665 16.38 10.665 7.296 0 12.756-3.555 16.38-10.665 3.671-7.156 5.507-17.867 5.507-32.13 0-14.313-1.836-25.02-5.507-32.13-3.625-7.156-9.08-10.734-16.38-10.734m0-11.153c11.664 0 20.563 4.624 26.697 13.871 6.18 9.201 9.271 22.584 9.271 40.15 0 17.519-3.09 30.902-9.271 40.15-6.134 9.201-15.03 13.801-26.697 13.801-11.664 0-20.586-4.601-26.766-13.801-6.134-9.247-9.201-22.63-9.201-40.15 0-17.565 3.067-30.948 9.201-40.15 6.18-9.247 15.1-13.871 26.766-13.871"/><path d="m466.74 242.91c-7.249 0-12.709 3.578-16.38 10.734-3.625 7.11-5.437 17.821-5.437 32.13 0 14.266 1.812 24.977 5.437 32.13 3.671 7.11 9.131 10.665 16.38 10.665 7.296 0 12.756-3.555 16.38-10.665 3.671-7.156 5.507-17.867 5.507-32.13 0-14.313-1.836-25.02-5.507-32.13-3.625-7.156-9.08-10.734-16.38-10.734m0-11.153c11.664 0 20.563 4.624 26.697 13.871 6.18 9.201 9.271 22.584 9.271 40.15 0 17.519-3.09 30.902-9.271 40.15-6.134 9.201-15.03 13.801-26.697 13.801-11.664 0-20.586-4.601-26.766-13.801-6.134-9.247-9.201-22.63-9.201-40.15 0-17.565 3.067-30.948 9.201-40.15 6.18-9.247 15.1-13.871 26.766-13.871"/></g></g></svg>