<svg width="512" xmlns="http://www.w3.org/2000/svg" height="512">
<defs/>
<g transform="matrix(1.13518 0 0 1.18785 -73.82691 0)">
<path d="m140.1721,107.7543 0,38.8251 38.8251,0 0,11.8497-38.8251,0 0,38.8251-11.7103,0 0-38.8251-38.8251,0 0-11.8497 38.8251,0 0-38.8251 11.7103,0"/>
<path d="m239.5002,102.4568c-7.2492,.0001-12.7094,3.5782-16.3804,10.7344-3.6246,7.1099-5.4369,17.821-5.4369,32.1335-0,14.2661 1.8123,24.9773 5.4369,32.1335 3.671,7.1098 9.1312,10.6647 16.3804,10.6647 7.2956,0 12.7558-3.5549 16.3804-10.6647 3.671-7.1562 5.5065-17.8674 5.5066-32.1335-.0001-14.3125-1.8356-25.0237-5.5066-32.1335-3.6247-7.1562-9.0848-10.7343-16.3804-10.7344m0-11.1526c11.6637,.0001 20.5626,4.6238 26.6966,13.8711 6.1803,9.201 9.2705,22.5841 9.2706,40.1495-.0001,17.519-3.0903,30.9021-9.2706,40.1495-6.134,9.2009-15.0329,13.8014-26.6966,13.8014-11.6638,0-20.5859-4.6005-26.7663-13.8014-6.134-9.2474-9.2009-22.6305-9.2009-40.1495-0-17.5653 3.067-30.9485 9.2009-40.1495 6.1804-9.2473 15.1025-13.871 26.7663-13.8711"/>
<path d="m300.2821,179.5494 14.7075,0 0,17.7048-14.7075,0 0-17.7048"/>
<path d="m375.8412,102.4568c-7.2492,.0001-12.7094,3.5782-16.3804,10.7344-3.6246,7.1099-5.4369,17.821-5.4369,32.1335-0,14.2661 1.8123,24.9773 5.4369,32.1335 3.671,7.1098 9.1312,10.6647 16.3804,10.6647 7.2956,0 12.7558-3.5549 16.3804-10.6647 3.671-7.1562 5.5065-17.8674 5.5066-32.1335-.0001-14.3125-1.8356-25.0237-5.5066-32.1335-3.6247-7.1562-9.0848-10.7343-16.3804-10.7344m0-11.1526c11.6637,.0001 20.5626,4.6238 26.6966,13.8711 6.1803,9.201 9.2706,22.5841 9.2706,40.1495-.0001,17.519-3.0903,30.9021-9.2706,40.1495-6.134,9.2009-15.0329,13.8014-26.6966,13.8014-11.6638,0-20.5859-4.6005-26.7663-13.8014-6.134-9.2474-9.2009-22.6305-9.2009-40.1495-0-17.5653 3.067-30.9485 9.2009-40.1495 6.1804-9.2473 15.1025-13.871 26.7663-13.8711"/>
<path d="m466.7351,102.4568c-7.2493,.0001-12.7094,3.5782-16.3804,10.7344-3.6246,7.1099-5.4369,17.821-5.4369,32.1335-0,14.2661 1.8123,24.9773 5.4369,32.1335 3.671,7.1098 9.1312,10.6647 16.3804,10.6647 7.2956,0 12.7558-3.5549 16.3804-10.6647 3.671-7.1562 5.5066-17.8674 5.5066-32.1335-.0001-14.3125-1.8356-25.0237-5.5066-32.1335-3.6247-7.1562-9.0848-10.7343-16.3804-10.7344m0-11.1526c11.6637,.0001 20.5626,4.6238 26.6966,13.8711 6.1803,9.201 9.2705,22.5841 9.2706,40.1495-.0001,17.519-3.0903,30.9021-9.2706,40.1495-6.134,9.2009-15.0329,13.8014-26.6966,13.8014-11.6638,0-20.5859-4.6005-26.7663-13.8014-6.134-9.2474-9.2009-22.6305-9.2009-40.1495-0-17.5653 3.067-30.9485 9.2009-40.1495 6.1804-9.2473 15.1025-13.871 26.7663-13.8711"/>
</g>
<g fill="#00f" transform="matrix(1.13518 0 0 1.18785 -73.82691 0)">
<path d="m149.5124,292.8855 37.5704,0 0,11.4314-37.5704,0 0-11.4314"/>
<path d="m239.5002,242.9078c-7.2492,.0001-12.7094,3.5782-16.3804,10.7344-3.6246,7.1099-5.4369,17.8211-5.4369,32.1335-0,14.2661 1.8123,24.9773 5.4369,32.1335 3.6711,7.1098 9.1312,10.6647 16.3804,10.6647 7.2956,0 12.7558-3.5549 16.3804-10.6647 3.671-7.1562 5.5065-17.8674 5.5066-32.1335-.0001-14.3125-1.8356-25.0236-5.5066-32.1335-3.6247-7.1562-9.0848-10.7343-16.3804-10.7344m0-11.1526c11.6637,.0001 20.5626,4.6238 26.6966,13.8711 6.1803,9.201 9.2706,22.5842 9.2706,40.1495-.0001,17.519-3.0903,30.9021-9.2706,40.1495-6.134,9.2009-15.0329,13.8014-26.6966,13.8014-11.6638,0-20.5859-4.6005-26.7663-13.8014-6.134-9.2474-9.2009-22.6305-9.2009-40.1495-0-17.5653 3.067-30.9485 9.2009-40.1495 6.1804-9.2473 15.1025-13.871 26.7663-13.8711"/>
<path d="m300.2821,320.0003 14.7075,0 0,17.7048-14.7075,0 0-17.7048"/>
<path d="m375.8412,242.9078c-7.2493,.0001-12.7094,3.5782-16.3804,10.7344-3.6246,7.1099-5.4369,17.8211-5.4369,32.1335-0,14.2661 1.8123,24.9773 5.4369,32.1335 3.671,7.1098 9.1312,10.6647 16.3804,10.6647 7.2956,0 12.7558-3.5549 16.3804-10.6647 3.671-7.1562 5.5066-17.8674 5.5066-32.1335-.0001-14.3125-1.8356-25.0236-5.5066-32.1335-3.6247-7.1562-9.0848-10.7343-16.3804-10.7344m0-11.1526c11.6637,.0001 20.5626,4.6238 26.6966,13.8711 6.1803,9.201 9.2705,22.5842 9.2706,40.1495-.0001,17.519-3.0903,30.9021-9.2706,40.1495-6.134,9.2009-15.0329,13.8014-26.6966,13.8014-11.6638,0-20.5859-4.6005-26.7663-13.8014-6.134-9.2474-9.2009-22.6305-9.2009-40.1495-0-17.5653 3.067-30.9485 9.2009-40.1495 6.1804-9.2473 15.1025-13.871 26.7663-13.8711"/>
<path d="m466.7351,242.9078c-7.2493,.0001-12.7094,3.5782-16.3804,10.7344-3.6246,7.1099-5.4369,17.8211-5.4369,32.1335-0,14.2661 1.8123,24.9773 5.4369,32.1335 3.671,7.1098 9.1312,10.6647 16.3804,10.6647 7.2956,0 12.7558-3.5549 16.3804-10.6647 3.671-7.1562 5.5066-17.8674 5.5066-32.1335-.0001-14.3125-1.8356-25.0236-5.5066-32.1335-3.6247-7.1562-9.0848-10.7343-16.3804-10.7344m0-11.1526c11.6637,.0001 20.5626,4.6238 26.6966,13.8711 6.1803,9.201 9.2705,22.5842 9.2706,40.1495-.0001,17.519-3.0903,30.9021-9.2706,40.1495-6.134,9.2009-15.0329,13.8014-26.6966,13.8014-11.6638,0-20.5859-4.6005-26.7663-13.8014-6.134-9.2474-9.2009-22.6305-9.2009-40.1495-0-17.5653 3.067-30.9485 9.2009-40.1495 6.1804-9.2473 15.1025-13.871 26.7663-13.8711"/>
</g>
</svg>
