<?xml version="1.0" encoding="UTF-8" standalone="no"?>
<!-- Created with Inkscape (http://www.inkscape.org/) -->

<svg
   xmlns:dc="http://purl.org/dc/elements/1.1/"
   xmlns:cc="http://creativecommons.org/ns#"
   xmlns:rdf="http://www.w3.org/1999/02/22-rdf-syntax-ns#"
   xmlns:svg="http://www.w3.org/2000/svg"
   xmlns="http://www.w3.org/2000/svg"
   xmlns:sodipodi="http://sodipodi.sourceforge.net/DTD/sodipodi-0.dtd"
   xmlns:inkscape="http://www.inkscape.org/namespaces/inkscape"
   version="1.0"
   width="512"
   height="512"
   id="svg2"
   inkscape:version="0.47 r22583"
   sodipodi:docname="UpperTolerance.svg">
  <metadata
     id="metadata2959">
    <rdf:RDF>
      <cc:Work
         rdf:about="">
        <dc:format>image/svg+xml</dc:format>
        <dc:type
           rdf:resource="http://purl.org/dc/dcmitype/StillImage" />
      </cc:Work>
    </rdf:RDF>
  </metadata>
  <sodipodi:namedview
     pagecolor="#ffffff"
     bordercolor="#666666"
     borderopacity="1"
     objecttolerance="10"
     gridtolerance="10"
     guidetolerance="10"
     inkscape:pageopacity="0"
     inkscape:pageshadow="2"
     inkscape:window-width="1125"
     inkscape:window-height="892"
     id="namedview2957"
     showgrid="true"
     inkscape:zoom="1"
     inkscape:cx="192.36655"
     inkscape:cy="222.09982"
     inkscape:window-x="770"
     inkscape:window-y="166"
     inkscape:window-maximized="0"
     inkscape:current-layer="svg2">
    <inkscape:grid
       type="xygrid"
       id="grid2963"
       empspacing="5"
       visible="true"
       enabled="true"
       snapvisiblegridlinesonly="true"
       spacingx="16px"
       spacingy="16px"
       originx="-8px"
       originy="-8px"
       dotted="false" />
  </sodipodi:namedview>
  <defs
     id="defs4">
    <marker
       inkscape:stockid="TriangleInL"
       orient="auto"
       refY="0.0"
       refX="0.0"
       id="TriangleInL"
       style="overflow:visible">
      <path
         id="path3842"
         d="M 5.77,0.0 L -2.88,5.0 L -2.88,-5.0 L 5.77,0.0 z "
         style="fill-rule:evenodd;stroke:#000000;stroke-width:1.0pt;marker-start:none"
         transform="scale(-0.8)" />
    </marker>
    <marker
       inkscape:stockid="Arrow2Lstart"
       orient="auto"
       refY="0.0"
       refX="0.0"
       id="Arrow2Lstart"
       style="overflow:visible">
      <path
         id="path3726"
         style="font-size:12.0;fill-rule:evenodd;stroke-width:0.62500000;stroke-linejoin:round"
         d="M 8.7185878,4.0337352 L -2.2072895,0.016013256 L 8.7185884,-4.0017078 C 6.9730900,-1.6296469 6.9831476,1.6157441 8.7185878,4.0337352 z "
         transform="scale(1.1) translate(1,0)" />
    </marker>
    <marker
       inkscape:stockid="Arrow1Lstart"
       orient="auto"
       refY="0.0"
       refX="0.0"
       id="marker3967"
       style="overflow:visible">
      <path
         id="path3708"
         d="M 0.0,0.0 L 5.0,-5.0 L -12.5,0.0 L 5.0,5.0 L 0.0,0.0 z "
         style="fill-rule:evenodd;stroke:#000000;stroke-width:1.0pt;marker-start:none"
         transform="scale(0.8) translate(12.5,0)" />
    </marker>
    <inkscape:perspective
       sodipodi:type="inkscape:persp3d"
       inkscape:vp_x="0 : 24 : 1"
       inkscape:vp_y="0 : 1000 : 0"
       inkscape:vp_z="48 : 24 : 1"
       inkscape:persp3d-origin="24 : 16 : 1"
       id="perspective2961" />
    <marker
       refX="0"
       refY="0"
       orient="auto"
       id="Arrow1Mend"
       style="overflow:visible">
      <path
         d="M 0,0 5,-5 -12.5,0 5,5 0,0 z"
         transform="matrix(-0.4,0,0,-0.4,-4,0)"
         id="path3720"
         style="fill-rule:evenodd;stroke:#000000;stroke-width:1pt;marker-start:none" />
    </marker>
    <marker
       refX="0"
       refY="0"
       orient="auto"
       id="TriangleOutL"
       style="overflow:visible">
      <path
         d="m 5.77,0 -8.65,5 0,-10 8.65,5 z"
         transform="scale(0.8,0.8)"
         id="path3854"
         style="fill-rule:evenodd;stroke:#000000;stroke-width:1pt;marker-start:none" />
    </marker>
    <marker
       refX="0"
       refY="0"
       orient="auto"
       id="Arrow2Send"
       style="overflow:visible">
      <path
         d="M 8.7185878,4.0337352 -2.2072895,0.01601326 8.7185884,-4.0017078 c -1.7454984,2.3720609 -1.7354408,5.6174519 -6e-7,8.035443 z"
         transform="matrix(-0.3,0,0,-0.3,0.69,0)"
         id="path3295"
         style="font-size:12px;fill-rule:evenodd;stroke-width:0.625;stroke-linejoin:round" />
    </marker>
    <marker
       refX="0"
       refY="0"
       orient="auto"
       id="Arrow1Lend"
       style="overflow:visible">
      <path
         d="M 0,0 5,-5 -12.5,0 5,5 0,0 z"
         transform="matrix(-0.8,0,0,-0.8,-10,0)"
         id="path3265"
         style="fill-rule:evenodd;stroke:#000000;stroke-width:1pt;marker-start:none" />
    </marker>
    <marker
       refX="0"
       refY="0"
       orient="auto"
       id="Arrow1Lstart"
       style="overflow:visible">
      <path
         d="M 0,0 5,-5 -12.5,0 5,5 0,0 z"
         transform="matrix(0.8,0,0,0.8,10,0)"
         id="path3262"
         style="fill-rule:evenodd;stroke:#000000;stroke-width:1pt;marker-start:none" />
    </marker>
    <inkscape:perspective
       id="perspective2845"
       inkscape:persp3d-origin="0.5 : 0.33333333 : 1"
       inkscape:vp_z="1 : 0.5 : 1"
       inkscape:vp_y="0 : 1000 : 0"
       inkscape:vp_x="0 : 0.5 : 1"
       sodipodi:type="inkscape:persp3d" />
    <inkscape:perspective
       id="perspective2872"
       inkscape:persp3d-origin="0.5 : 0.33333333 : 1"
       inkscape:vp_z="1 : 0.5 : 1"
       inkscape:vp_y="0 : 1000 : 0"
       inkscape:vp_x="0 : 0.5 : 1"
       sodipodi:type="inkscape:persp3d" />
    <inkscape:perspective
       id="perspective2862"
       inkscape:persp3d-origin="0.5 : 0.33333333 : 1"
       inkscape:vp_z="1 : 0.5 : 1"
       inkscape:vp_y="0 : 1000 : 0"
       inkscape:vp_x="0 : 0.5 : 1"
       sodipodi:type="inkscape:persp3d" />
  </defs>
  <g
     transform="matrix(1.1351769,0,0,1.1878503,-73.826908,0)"
     style="font-size:142.75370789px;font-style:normal;font-weight:normal;fill:#0000ff;fill-opacity:1;stroke:none;font-family:Bitstream Vera Sans"
     id="text2836">
    <path
       d="m 140.1721,107.75431 0,38.82511 38.82511,0 0,11.84967 -38.82511,0 0,38.82511 -11.71026,0 0,-38.82511 -38.82511,0 0,-11.84967 38.82511,0 0,-38.82511 11.71026,0"
       id="path2884" />
    <path
       d="m 239.50024,102.45681 c -7.24925,10e-5 -12.70939,3.57823 -16.38043,10.73441 -3.62463,7.10988 -5.43693,17.82105 -5.43691,32.13353 -2e-5,14.26611 1.81228,24.97728 5.43691,32.13352 3.67104,7.10982 9.13118,10.66472 16.38043,10.66471 7.29563,10e-6 12.75577,-3.55489 16.38043,-10.66471 3.67101,-7.15624 5.50655,-17.86741 5.50661,-32.13352 -6e-5,-14.31248 -1.8356,-25.02365 -5.50661,-32.13353 -3.62466,-7.15618 -9.0848,-10.73431 -16.38043,-10.73441 m 0,-11.152631 c 11.66374,1.06e-4 20.5626,4.623797 26.69662,13.871091 6.18034,9.201 9.27054,22.58415 9.27062,40.14948 -8e-5,17.51896 -3.09028,30.90211 -9.27062,40.14948 -6.13402,9.20092 -15.03288,13.80138 -26.69662,13.80138 -11.66383,0 -20.58593,-4.60046 -26.76632,-13.80138 -6.13396,-9.24737 -9.20093,-22.63052 -9.20092,-40.14948 -10e-6,-17.56533 3.06696,-30.94848 9.20092,-40.14948 6.18039,-9.247294 15.10249,-13.870985 26.76632,-13.871091"
       id="path2886" />
    <path
       d="m 300.28209,179.54939 14.70753,0 0,17.70481 -14.70753,0 0,-17.70481"
       id="path2888" />
    <path
       d="m 375.84117,102.45681 c -7.24924,10e-5 -12.70938,3.57823 -16.38043,10.73441 -3.62463,7.10988 -5.43693,17.82105 -5.4369,32.13353 -3e-5,14.26611 1.81227,24.97728 5.4369,32.13352 3.67105,7.10982 9.13119,10.66472 16.38043,10.66471 7.29563,10e-6 12.75577,-3.55489 16.38044,-10.66471 3.67101,-7.15624 5.50654,-17.86741 5.50661,-32.13352 -7e-5,-14.31248 -1.8356,-25.02365 -5.50661,-32.13353 -3.62467,-7.15618 -9.08481,-10.73431 -16.38044,-10.73441 m 0,-11.152631 c 11.66374,1.06e-4 20.56261,4.623797 26.69662,13.871091 6.18034,9.201 9.27055,22.58415 9.27063,40.14948 -8e-5,17.51896 -3.09029,30.90211 -9.27063,40.14948 -6.13401,9.20092 -15.03288,13.80138 -26.69662,13.80138 -11.66382,0 -20.58592,-4.60046 -26.76632,-13.80138 -6.13396,-9.24737 -9.20093,-22.63052 -9.20092,-40.14948 -10e-6,-17.56533 3.06696,-30.94848 9.20092,-40.14948 6.1804,-9.247294 15.1025,-13.870985 26.76632,-13.871091"
       id="path2890" />
    <path
       d="m 466.73514,102.45681 c -7.24925,10e-5 -12.70939,3.57823 -16.38043,10.73441 -3.62463,7.10988 -5.43693,17.82105 -5.43691,32.13353 -2e-5,14.26611 1.81228,24.97728 5.43691,32.13352 3.67104,7.10982 9.13118,10.66472 16.38043,10.66471 7.29563,10e-6 12.75577,-3.55489 16.38043,-10.66471 3.67101,-7.15624 5.50655,-17.86741 5.50661,-32.13352 -6e-5,-14.31248 -1.8356,-25.02365 -5.50661,-32.13353 -3.62466,-7.15618 -9.0848,-10.73431 -16.38043,-10.73441 m 0,-11.152631 c 11.66374,1.06e-4 20.5626,4.623797 26.69662,13.871091 6.18034,9.201 9.27054,22.58415 9.27062,40.14948 -8e-5,17.51896 -3.09028,30.90211 -9.27062,40.14948 -6.13402,9.20092 -15.03288,13.80138 -26.69662,13.80138 -11.66383,0 -20.58593,-4.60046 -26.76632,-13.80138 -6.13396,-9.24737 -9.20093,-22.63052 -9.20092,-40.14948 -10e-6,-17.56533 3.06696,-30.94848 9.20092,-40.14948 6.18039,-9.247294 15.10249,-13.870985 26.76632,-13.871091"
       id="path2892" />
  </g>
  <g
     transform="matrix(1.1351769,0,0,1.1878503,-73.826908,0)"
     style="font-size:142.75370789px;font-style:normal;font-weight:normal;fill:#000000;fill-opacity:1;stroke:none;font-family:Bitstream Vera Sans"
     id="text2868">
    <path
       d="m 149.51243,292.88549 37.57044,0 0,11.43145 -37.57044,0 0,-11.43145"
       id="path2873" />
    <path
       d="m 239.50024,242.90776 c -7.24925,9e-5 -12.70938,3.57822 -16.38043,10.7344 -3.62463,7.10989 -5.43693,17.82105 -5.43691,32.13353 -2e-5,14.26611 1.81228,24.97728 5.43691,32.13352 3.67105,7.10982 9.13118,10.66472 16.38043,10.66471 7.29563,1e-5 12.75577,-3.55489 16.38043,-10.66471 3.67101,-7.15624 5.50655,-17.86741 5.50662,-32.13352 -7e-5,-14.31248 -1.83561,-25.02364 -5.50662,-32.13353 -3.62466,-7.15618 -9.0848,-10.73431 -16.38043,-10.7344 m 0,-11.15264 c 11.66374,1.1e-4 20.56261,4.6238 26.69662,13.87109 6.18034,9.201 9.27055,22.58415 9.27063,40.14948 -8e-5,17.51896 -3.09029,30.90211 -9.27063,40.14948 -6.13401,9.20093 -15.03288,13.80138 -26.69662,13.80138 -11.66383,0 -20.58592,-4.60045 -26.76632,-13.80138 -6.13396,-9.24737 -9.20093,-22.63052 -9.20092,-40.14948 -10e-6,-17.56533 3.06696,-30.94848 9.20092,-40.14948 6.1804,-9.24729 15.10249,-13.87098 26.76632,-13.87109"
       id="path2875" />
    <path
       d="m 300.28209,320.00033 14.70753,0 0,17.70481 -14.70753,0 0,-17.70481"
       id="path2877" />
    <path
       d="m 375.84119,242.90776 c -7.24925,9e-5 -12.70939,3.57822 -16.38043,10.7344 -3.62463,7.10989 -5.43693,17.82105 -5.43691,32.13353 -2e-5,14.26611 1.81228,24.97728 5.43691,32.13352 3.67104,7.10982 9.13118,10.66472 16.38043,10.66471 7.29563,1e-5 12.75577,-3.55489 16.38043,-10.66471 3.67101,-7.15624 5.50655,-17.86741 5.50661,-32.13352 -6e-5,-14.31248 -1.8356,-25.02364 -5.50661,-32.13353 -3.62466,-7.15618 -9.0848,-10.73431 -16.38043,-10.7344 m 0,-11.15264 c 11.66374,1.1e-4 20.5626,4.6238 26.69662,13.87109 6.18034,9.201 9.27054,22.58415 9.27062,40.14948 -8e-5,17.51896 -3.09028,30.90211 -9.27062,40.14948 -6.13402,9.20093 -15.03288,13.80138 -26.69662,13.80138 -11.66383,0 -20.58593,-4.60045 -26.76632,-13.80138 -6.13396,-9.24737 -9.20093,-22.63052 -9.20092,-40.14948 -10e-6,-17.56533 3.06696,-30.94848 9.20092,-40.14948 6.18039,-9.24729 15.10249,-13.87098 26.76632,-13.87109"
       id="path2879" />
    <path
       d="m 466.73514,242.90776 c -7.24925,9e-5 -12.70939,3.57822 -16.38043,10.7344 -3.62463,7.10989 -5.43693,17.82105 -5.43691,32.13353 -2e-5,14.26611 1.81228,24.97728 5.43691,32.13352 3.67104,7.10982 9.13118,10.66472 16.38043,10.66471 7.29563,1e-5 12.75577,-3.55489 16.38043,-10.66471 3.67101,-7.15624 5.50655,-17.86741 5.50661,-32.13352 -6e-5,-14.31248 -1.8356,-25.02364 -5.50661,-32.13353 -3.62466,-7.15618 -9.0848,-10.73431 -16.38043,-10.7344 m 0,-11.15264 c 11.66374,1.1e-4 20.5626,4.6238 26.69662,13.87109 6.18034,9.201 9.27054,22.58415 9.27062,40.14948 -8e-5,17.51896 -3.09028,30.90211 -9.27062,40.14948 -6.13402,9.20093 -15.03288,13.80138 -26.69662,13.80138 -11.66383,0 -20.58593,-4.60045 -26.76632,-13.80138 -6.13396,-9.24737 -9.20093,-22.63052 -9.20092,-40.14948 -10e-6,-17.56533 3.06696,-30.94848 9.20092,-40.14948 6.18039,-9.24729 15.10249,-13.87098 26.76632,-13.87109"
       id="path2881" />
  </g>
</svg>
