<?xml version="1.0" encoding="UTF-8" standalone="no"?>
<svg
   xmlns:dc="http://purl.org/dc/elements/1.1/"
   xmlns:cc="http://creativecommons.org/ns#"
   xmlns:rdf="http://www.w3.org/1999/02/22-rdf-syntax-ns#"
   xmlns:svg="http://www.w3.org/2000/svg"
   xmlns="http://www.w3.org/2000/svg"
   xmlns:sodipodi="http://sodipodi.sourceforge.net/DTD/sodipodi-0.dtd"
   xmlns:inkscape="http://www.inkscape.org/namespaces/inkscape"
   width="512"
   height="512"
   viewBox="-2 -62 144.49671 144.49671"
   style="fill:none;stroke-linecap:round;stroke-linejoin:round"
   version="1.1"
   id="svg32"
   sodipodi:docname="LineSimilarityAxes.svg"
   inkscape:version="0.92.2 5c3e80d, 2017-08-06">
  <metadata
     id="metadata38">
    <rdf:RDF>
      <cc:Work
         rdf:about="">
        <dc:format>image/svg+xml</dc:format>
        <dc:type
           rdf:resource="http://purl.org/dc/dcmitype/StillImage" />
        <dc:title></dc:title>
      </cc:Work>
    </rdf:RDF>
  </metadata>
  <defs
     id="defs36" />
  <sodipodi:namedview
     pagecolor="#ffffff"
     bordercolor="#666666"
     borderopacity="1"
     objecttolerance="10"
     gridtolerance="10"
     guidetolerance="10"
     inkscape:pageopacity="0"
     inkscape:pageshadow="2"
     inkscape:window-width="1967"
     inkscape:window-height="1252"
     id="namedview34"
     showgrid="false"
     inkscape:zoom="1.2334065"
     inkscape:cx="202.69067"
     inkscape:cy="216.87902"
     inkscape:window-x="0"
     inkscape:window-y="0"
     inkscape:window-maximized="0"
     inkscape:current-layer="g30" />
  <g
     transform="matrix(2.2,0,0,-2.2,15.248355,87.248355)"
     style="stroke-width:1.12899995"
     id="g30">
    <g
       style="stroke:#000000"
       id="g8">
      <circle
         cx="10"
         cy="50"
         r="10"
         id="circle2"
         style="stroke-width:2.05251009;stroke-miterlimit:4;stroke-dasharray:none" />
      <circle
         cx="20"
         cy="20"
         r="10"
         id="circle4"
         style="stroke-width:2.05251009;stroke-miterlimit:4;stroke-dasharray:none" />
      <circle
         cx="40"
         cy="45"
         r="10"
         id="circle6"
         style="stroke-width:2.05251009;stroke-miterlimit:4;stroke-dasharray:none" />
    </g>
    <g
       style="stroke:#ff0000;stroke-width:1.02625504;stroke-miterlimit:4;stroke-dasharray:none"
       id="g28">
      <path
         d="M 15,35 30,32.5"
         id="path10"
         inkscape:connector-curvature="0"
         style="stroke-width:1.02625504;stroke-miterlimit:4;stroke-dasharray:none" />
      <path
         d="m 25,47.5 5,-15"
         id="path12"
         inkscape:connector-curvature="0"
         style="stroke-width:1.02625504;stroke-miterlimit:4;stroke-dasharray:none" />
      <path
         d="M 25,47.5 15,35"
         id="path14"
         inkscape:connector-curvature="0"
         style="stroke-width:1.02625504;stroke-miterlimit:4;stroke-dasharray:none" />
      <path
         d="M 10,62 V 58.5 M 10,57 V 55.5 M 10,54 v -8 m 0,-1.5 V 43 m 0,-1.5 V 38"
         id="path16"
         inkscape:connector-curvature="0"
         style="stroke-width:1.02625504;stroke-miterlimit:4;stroke-dasharray:none" />
      <path
         d="M 22,50 H 18.5 M 17,50 H 15.5 M 14,50 H 6 M 4.5,50 H 3 M 1.5,50 H -2"
         id="path18"
         inkscape:connector-curvature="0"
         style="stroke-width:1.02625504;stroke-miterlimit:4;stroke-dasharray:none" />
      <path
         d="M 40,57 V 53.5 M 40,52 V 50.5 M 40,49 v -8 m 0,-1.5 V 38 m 0,-1.5 V 33"
         id="path20"
         inkscape:connector-curvature="0"
         style="stroke-width:1.02625504;stroke-miterlimit:4;stroke-dasharray:none" />
      <path
         d="M 52,45 H 48.5 M 47,45 H 45.5 M 44,45 h -8 m -1.5,0 H 33 m -1.5,0 H 28"
         id="path22"
         inkscape:connector-curvature="0"
         style="stroke-width:1.02625504;stroke-miterlimit:4;stroke-dasharray:none" />
      <path
         d="M 20,32 V 28.5 M 20,27 V 25.5 M 20,24 v -8 m 0,-1.5 V 13 m 0,-1.5 V 8"
         id="path24"
         inkscape:connector-curvature="0"
         style="stroke-width:1.02625504;stroke-miterlimit:4;stroke-dasharray:none" />
      <path
         d="M 32,20 H 28.5 M 27,20 H 25.5 M 24,20 h -8 m -1.5,0 H 13 m -1.5,0 H 8"
         id="path26"
         inkscape:connector-curvature="0"
         style="stroke-width:1.02625504;stroke-miterlimit:4;stroke-dasharray:none" />
    </g>
  </g>
</svg>
