<svg xmlns="http://www.w3.org/2000/svg" width="191.34" height="191.34" viewBox="-2 -62 54 54" style="fill:none;stroke-linecap:round;stroke-linejoin:round"><g transform="scale(1-1)" style="stroke-width:1.129"><g style="stroke:#fff"><circle cx="10" cy="50" r="10"/><circle cx="20" cy="20" r="10"/><circle cx="40" cy="45" r="10"/></g><g style="stroke:#f00"><path d="m15 35l15-2.5"/><path d="m25 47.5l5-15"/><path d="m25 47.5l-10-12.5"/><path d="m10 62v-3.5m0-1.5v-1.5m0-1.5v-8m0-1.5v-1.5m0-1.5v-3.5"/><path d="m22 50h-3.5m-1.5 0h-1.5m-1.5 0h-8m-1.5 0h-1.5m-1.5 0h-3.5"/><path d="m40 57v-3.5m0-1.5v-1.5m0-1.5v-8m0-1.5v-1.5m0-1.5v-3.5"/><path d="m52 45h-3.5m-1.5 0h-1.5m-1.5 0h-8m-1.5 0h-1.5m-1.5 0h-3.5"/><path d="m20 32v-3.5m0-1.5v-1.5m0-1.5v-8m0-1.5v-1.5m0-1.5v-3.5"/><path d="m32 20h-3.5m-1.5 0h-1.5m-1.5 0h-8m-1.5 0h-1.5m-1.5 0h-3.5"/></g></g></svg>
