<?xml version="1.0" encoding="UTF-8" standalone="no"?>
<!-- 2014-07-14 21:56:07 Generated by QCAD SVG Exporter -->

<svg
   xmlns:dc="http://purl.org/dc/elements/1.1/"
   xmlns:cc="http://creativecommons.org/ns#"
   xmlns:rdf="http://www.w3.org/1999/02/22-rdf-syntax-ns#"
   xmlns:svg="http://www.w3.org/2000/svg"
   xmlns="http://www.w3.org/2000/svg"
   xmlns:sodipodi="http://sodipodi.sourceforge.net/DTD/sodipodi-0.dtd"
   xmlns:inkscape="http://www.inkscape.org/namespaces/inkscape"
   width="54mm"
   height="54mm"
   viewBox="-2 -62 54 54"
   version="1.1"
   style="stroke-linecap:round;stroke-linejoin:round;fill:none"
   id="svg3019"
   inkscape:version="0.48.4 r9939"
   sodipodi:docname="Untitled 1.svg">
  <metadata
     id="metadata3051">
    <rdf:RDF>
      <cc:Work
         rdf:about="">
        <dc:format>image/svg+xml</dc:format>
        <dc:type
           rdf:resource="http://purl.org/dc/dcmitype/StillImage" />
      </cc:Work>
    </rdf:RDF>
  </metadata>
  <defs
     id="defs3049" />
  <sodipodi:namedview
     pagecolor="#ffffff"
     bordercolor="#666666"
     borderopacity="1"
     objecttolerance="10"
     gridtolerance="10"
     guidetolerance="10"
     inkscape:pageopacity="0"
     inkscape:pageshadow="2"
     inkscape:window-width="1400"
     inkscape:window-height="988"
     id="namedview3047"
     showgrid="false"
     inkscape:zoom="1.2334157"
     inkscape:cx="-59.590616"
     inkscape:cy="95.669289"
     inkscape:window-x="-8"
     inkscape:window-y="-8"
     inkscape:window-maximized="1"
     inkscape:current-layer="g3021" />
  <g
     transform="scale(1,-1)"
     id="g3021">
    <!-- Circle -->
    <circle
       cx="10"
       cy="50"
       r="10"
       style="stroke:#000000;stroke-width:1.12888892;stroke-miterlimit:4;stroke-dasharray:none"
       id="circle3023"
       d="M 20,50 C 20,55.522847 15.522847,60 10,60 4.4771525,60 0,55.522847 0,50 0,44.477153 4.4771525,40 10,40 c 5.522847,0 10,4.477153 10,10 z" />
    <!-- Circle -->
    <circle
       cx="20"
       cy="20"
       r="10"
       style="stroke:#000000;stroke-width:1.12888892;stroke-miterlimit:4;stroke-dasharray:none"
       id="circle3025"
       d="m 30,20 c 0,5.522847 -4.477153,10 -10,10 -5.522847,0 -10,-4.477153 -10,-10 0,-5.522847 4.477153,-10 10,-10 5.522847,0 10,4.477153 10,10 z" />
    <!-- Circle -->
    <circle
       cx="40"
       cy="45"
       r="10"
       style="stroke:#000000;stroke-width:1.12888892;stroke-miterlimit:4;stroke-dasharray:none"
       id="circle3027"
       d="m 50,45 c 0,5.522847 -4.477153,10 -10,10 -5.522847,0 -10,-4.477153 -10,-10 0,-5.522847 4.477153,-10 10,-10 5.522847,0 10,4.477153 10,10 z" />
    <!-- Line -->
    <path
       d="M15,34.99999999999999 L30,32.5 "
       style="stroke:#ff0000;stroke-width:1.12888892000000010;stroke-miterlimit:4;stroke-dasharray:none;stroke-opacity:1"
       id="path3029" />
    <!-- Line -->
    <path
       d="M25,47.49999999999999 L30,32.5 "
       style="stroke:#ff0000;stroke-width:1.12888892;stroke-opacity:1;stroke-miterlimit:4;stroke-dasharray:none"
       id="path3031" />
    <!-- Line -->
    <path
       d="M25,47.49999999999999 L15,34.99999999999999 "
       style="stroke:#ff0000;stroke-width:1.12888892000000010;stroke-miterlimit:4;stroke-dasharray:none;stroke-opacity:1"
       id="path3033" />
    <!-- Line -->
    <path
       d="M10,62 L9.999999999999998,58.5 M9.999999999999998,57 L9.999999999999998,55.5 M9.999999999999998,54 L9.999999999999996,46 M9.999999999999996,44.5 L9.999999999999996,43 M9.999999999999996,41.5 L10,38 "
       style="stroke:#ff0000;stroke-width:1.12888892;stroke-miterlimit:4;stroke-dasharray:none"
       id="path3035" />
    <!-- Line -->
    <path
       d="M22,50 L18.5,50 M17,50 L15.5,50 M14,50 L6,50 M4.5,50 L3,50 M1.5,50 L-2,50 "
       style="stroke:#ff0000;stroke-width:1.12888892;stroke-miterlimit:4;stroke-dasharray:none"
       id="path3037" />
    <!-- Line -->
    <path
       d="M40,57 L40,53.5 M40,52 L40,50.5 M40,49 L40,41 M40,39.5 L40,38 M40,36.5 L40,33 "
       style="stroke:#ff0000;stroke-width:1.12888892;stroke-miterlimit:4;stroke-dasharray:none"
       id="path3039" />
    <!-- Line -->
    <path
       d="M52,45 L48.5,45 M47,45 L45.5,45 M44,45 L36,45 M34.5,45 L33,45 M31.5,45 L28,45 "
       style="stroke:#ff0000;stroke-width:1.12888892;stroke-miterlimit:4;stroke-dasharray:none"
       id="path3041" />
    <!-- Line -->
    <path
       d="M20,32 L20,28.5 M20,27 L20,25.5 M20,24 L20,16 M20,14.5 L20,13 M20,11.5 L20,8 "
       style="stroke:#ff0000;stroke-width:1.12888892;stroke-miterlimit:4;stroke-dasharray:none"
       id="path3043" />
    <!-- Line -->
    <path
       d="M32,20 L28.5,20 M27,20 L25.5,20 M24,20 L16,20 M14.5,20 L13,20 M11.5,20 L8,20 "
       style="stroke:#ff0000;stroke-width:1.12888892;stroke-miterlimit:4;stroke-dasharray:none"
       id="path3045" />
  </g>
</svg>
