<svg xmlns="http://www.w3.org/2000/svg" viewBox="0 0 512 512"><g transform="translate(0 464)"><g style="fill:none;stroke:#fff;stroke-linecap:square;stroke-width:16"><path d="m376-296v272"/><path d="m440-88h-272"/></g><path d="m407.03-406.75l-28.477 38.32 29.953 40.43h-15.258l-22.922-30.938-22.922 30.938h-15.258l30.586-41.2-27.984-37.547h15.258l20.883 28.05 20.883-28.05h15.258" style="fill:#fff"/><path d="m102.34-48.688c-3.656 9.375-7.219 15.492-10.688 18.352-3.469 2.859-8.109 4.289-13.922 4.289h-10.336v-10.828h7.594c3.563 0 6.328-.844 8.297-2.531 1.969-1.688 4.148-5.672 6.539-11.953l2.32-5.906-31.852-77.48h13.711l24.609 61.59 24.609-61.59h13.711l-34.594 86.06" style="fill:#fff"/></g></svg>
