<svg xmlns="http://www.w3.org/2000/svg" viewBox="0 0 512 512">
<defs/>
<g transform="translate(0 464)">
<g fill="none" stroke="#000" stroke-linecap="square" stroke-width="16">
<path d="m376-296 0,272"/>
<path d="m440-88-272,0"/>
</g>
<path d="m407.0312-406.75-28.4766,38.3203 29.9531,40.4297-15.2578,0-22.9219-30.9375-22.9219,30.9375h-15.2578l30.5859-41.2031-27.9844-37.5469h15.2578l20.8828,28.0547 20.8828-28.0547h15.2578"/>
<path d="m102.3359-48.6875c-3.6563,9.375-7.2188,15.4922-10.6875,18.3516-3.4688,2.8593-8.1094,4.289-13.9219,4.2891h-10.3359v-10.8281h7.5938c3.5625-0 6.3281-.8438 8.2969-2.5312 1.9687-1.6875 4.1484-5.6719 6.5391-11.9531l2.3203-5.9062-31.8516-77.4844h13.7109l24.6094,61.5938 24.6094-61.5938h13.7109l-34.5938,86.0625"/>
</g>
</svg>
