<svg width="256" fill="none" xmlns="http://www.w3.org/2000/svg" height="512" viewBox="-2.125 -7.125 72.24889 144.49778" xmlns:xlink="http://www.w3.org/1999/xlink" stroke-linecap="round">
<defs/>
<g fill="#e6e6e6" stroke="#fff" stroke-width="4.233">
<path d="m35.8569,123.0859-3.7149,0c-3.8903,0-7.4298-3.5396-7.4298-7.4298l-0-22.2895c0-3.8903 3.5396-7.4298 7.4298-7.4298h3.7149c3.8903,0 7.4298,3.5396 7.4298,7.4298l0,22.2895c0,3.8903-3.5396,7.4298-7.4298,7.4298zm-3.7149,7.4299 3.7149-0c7.7805,0 14.8597-7.0792 14.8597-14.8597v-22.2895c0-7.7805-7.0792-14.8597-14.8597-14.8597l-3.7149,0c-7.7805-0-14.8597,7.0792-14.8597,14.8597l-0,22.2895c0,7.7805 7.0792,14.8597 14.8597,14.8597z"/>
<path d="m35.8569,44.3111-3.7149,0c-3.8903,0-7.4298-3.5396-7.4298-7.4298l0-22.2895c-0-3.8903 3.5396-7.4298 7.4298-7.4298l3.7149,0c3.8903,0 7.4298,3.5396 7.4298,7.4298l0,22.2895c0,3.8903-3.5396,7.4298-7.4298,7.4298zm-3.7149,7.4298 3.7149,0c7.7805,0 14.8597-7.0792 14.8597-14.8597l-0-22.2895c0-7.7805-7.0792-14.8597-14.8597-14.8597l-3.7149-0c-7.7805,0-14.8597,7.0792-14.8597,14.8597l0,22.2895c-0,7.7805 7.0792,14.8597 14.8597,14.8597z"/>
<path d="m30.2891,55.4914 7.4207,0-0-18.6139c0-1.9451-1.7652-3.7103-3.7104-3.7103-1.9451,0-3.7104,1.7652-3.7104,3.7103l0,18.6139z"/>
<path d="m30.2891,74.6627 7.4207,0 0,18.6139c0,1.9451-1.7652,3.7104-3.7104,3.7104-1.9451,0-3.7104-1.7652-3.7104-3.7104v-18.6139z"/>
</g>
</svg>
