<?xml version="1.0" encoding="UTF-8" standalone="no"?>
<!-- 2011-05-26 11:38:01 Generated by QCAD SVG Exporter -->

<svg
   xmlns:dc="http://purl.org/dc/elements/1.1/"
   xmlns:cc="http://creativecommons.org/ns#"
   xmlns:rdf="http://www.w3.org/1999/02/22-rdf-syntax-ns#"
   xmlns:svg="http://www.w3.org/2000/svg"
   xmlns="http://www.w3.org/2000/svg"
   xmlns:xlink="http://www.w3.org/1999/xlink"
   xmlns:sodipodi="http://sodipodi.sourceforge.net/DTD/sodipodi-0.dtd"
   xmlns:inkscape="http://www.inkscape.org/namespaces/inkscape"
   width="256"
   height="512"
   viewBox="-2.125 -7.125 72.24889 144.49778"
   version="1.1"
   style="fill:none;stroke-linecap:round"
   id="svg2"
   inkscape:version="0.47 r22583"
   sodipodi:docname="KeepProportionsOn.svg">
  <metadata
     id="metadata54">
    <rdf:RDF>
      <cc:Work
         rdf:about="">
        <dc:format>image/svg+xml</dc:format>
        <dc:type
           rdf:resource="http://purl.org/dc/dcmitype/StillImage" />
        <dc:title />
      </cc:Work>
    </rdf:RDF>
  </metadata>
  <defs
     id="defs52">
    <linearGradient
       id="linearGradient3695">
      <stop
         style="stop-color:#5e5e5e;stop-opacity:1;"
         offset="0"
         id="stop3697" />
      <stop
         style="stop-color:#ffffff;stop-opacity:1;"
         offset="1"
         id="stop3699" />
    </linearGradient>
    <linearGradient
       inkscape:collect="always"
       id="linearGradient3687">
      <stop
         style="stop-color:#666666;stop-opacity:1;"
         offset="0"
         id="stop3689" />
      <stop
         style="stop-color:#666666;stop-opacity:0;"
         offset="1"
         id="stop3691" />
    </linearGradient>
    <inkscape:perspective
       sodipodi:type="inkscape:persp3d"
       inkscape:vp_x="0 : 16.387794 : 1"
       inkscape:vp_y="0 : 1000 : 0"
       inkscape:vp_z="114.27165 : 16.387794 : 1"
       inkscape:persp3d-origin="57.135826 : 10.925196 : 1"
       id="perspective56" />
    <radialGradient
       inkscape:collect="always"
       xlink:href="#linearGradient3687"
       id="radialGradient3693"
       cx="7.4538836"
       cy="0.038834605"
       fx="7.4538836"
       fy="0.038834605"
       r="7.1411109"
       gradientTransform="matrix(1.0632942,1.0623946,-1.2587511,1.2598168,-0.42290458,-8.8178655)"
       gradientUnits="userSpaceOnUse" />
    <radialGradient
       inkscape:collect="always"
       xlink:href="#linearGradient3687"
       id="radialGradient3713"
       gradientUnits="userSpaceOnUse"
       gradientTransform="matrix(1.0632942,1.0623946,-1.2587511,1.2598168,-0.42290458,-8.8178655)"
       cx="7.4538836"
       cy="0.038834605"
       fx="7.4538836"
       fy="0.038834605"
       r="7.1411109" />
  </defs>
  <sodipodi:namedview
     pagecolor="#ffffff"
     bordercolor="#666666"
     borderopacity="1"
     objecttolerance="10"
     gridtolerance="10"
     guidetolerance="10"
     inkscape:pageopacity="0"
     inkscape:pageshadow="2"
     inkscape:window-width="1372"
     inkscape:window-height="953"
     id="namedview50"
     showgrid="false"
     inkscape:zoom="1.1792076"
     inkscape:cx="42.292676"
     inkscape:cy="254.49939"
     inkscape:window-x="178"
     inkscape:window-y="80"
     inkscape:window-maximized="0"
     inkscape:current-layer="svg2" />
  <path
     id="path3677"
     style="fill:#e6e6e6;fill-opacity:1;stroke:#000000;stroke-width:4.23333359;stroke-miterlimit:4;stroke-opacity:1;stroke-dasharray:none"
     d="m 35.856908,117.1328 -3.714926,-1e-5 c -3.890258,0 -7.42984,-3.53958 -7.429842,-7.42984 l 0,-22.28953 c 10e-7,-3.890258 3.539587,-7.429844 7.429844,-7.429844 l 3.714922,0 c 3.890257,0 7.429844,3.539586 7.429844,7.429844 l 1e-6,22.28953 c 0,3.89026 -3.539586,7.42985 -7.429844,7.42985 z m -3.714923,7.42984 3.714921,0 c 7.780515,0 14.859688,-7.07917 14.859687,-14.85969 l 10e-7,-22.28953 C 50.716593,79.632907 43.63742,72.553732 35.856906,72.553732 l -3.714922,0 c -7.780515,0 -14.859688,7.079174 -14.859688,14.859687 l 0,22.289531 c 0,7.78052 7.079173,14.85969 14.859688,14.85969 z" />
  <path
     id="path3711"
     style="fill:#e6e6e6;fill-opacity:1;stroke:#000000;stroke-width:4.23333359;stroke-miterlimit:4;stroke-opacity:1;stroke-dasharray:none"
     d="m 35.856907,50.264203 -3.714922,0 c -3.890257,0 -7.429843,-3.539586 -7.429843,-7.429845 l 0,-22.289532 c 0,-3.890257 3.539587,-7.429843 7.429844,-7.429845 l 3.714921,10e-7 c 3.890258,0 7.429844,3.539587 7.429844,7.429844 l 0,22.289532 c 0,3.890257 -3.539587,7.429845 -7.429844,7.429845 z m -3.714922,7.429843 3.714922,0 c 7.780514,0 14.859688,-7.079175 14.859686,-14.859688 l 0,-22.289529 c 0,-7.780514 -7.079173,-14.8596885 -14.859687,-14.8596878 l -3.714921,-7e-7 c -7.780515,0 -14.85969,7.0791755 -14.859687,14.8596865 l 0,22.289532 c 0,7.780514 7.079173,14.859687 14.859687,14.859687 z" />
  <path
     id="path48"
     style="fill:#e6e6e6;fill-opacity:1;stroke:#000000;stroke-width:4.23333359;stroke-miterlimit:4;stroke-opacity:1;stroke-dasharray:none"
     d="m 37.714365,42.834358 c 0,-1.945127 -1.769788,-3.71492 -3.714918,-3.71492 -1.945095,0 -3.714921,1.769792 -3.714922,3.71492 l 0,44.579064 c 0,1.945128 1.769827,3.714921 3.714921,3.714918 1.945132,1e-6 3.714919,-1.76979 3.714919,-3.714918 l 0,-44.579064 z"
     sodipodi:nodetypes="csccscc" />
</svg>
