<svg width="256" fill="none" xmlns="http://www.w3.org/2000/svg" height="512" viewBox="-2.125 -7.125 72.24889 144.49778" xmlns:xlink="http://www.w3.org/1999/xlink" stroke-linecap="round">
<defs/>
<g fill="#e6e6e6" stroke="#fff" stroke-width="4.233">
<path d="m35.8569,117.1328-3.7149-0c-3.8903,0-7.4298-3.5396-7.4298-7.4298v-22.2895c0-3.8903 3.5396-7.4298 7.4298-7.4298h3.7149c3.8903,0 7.4298,3.5396 7.4298,7.4298l0,22.2895c0,3.8903-3.5396,7.4299-7.4298,7.4299zm-3.7149,7.4298 3.7149,0c7.7805,0 14.8597-7.0792 14.8597-14.8597l0-22.2895c0-7.7805-7.0792-14.8597-14.8597-14.8597h-3.7149c-7.7805,0-14.8597,7.0792-14.8597,14.8597v22.2895c0,7.7805 7.0792,14.8597 14.8597,14.8597z"/>
<path d="m35.8569,50.2642-3.7149,0c-3.8903,0-7.4298-3.5396-7.4298-7.4298v-22.2895c0-3.8903 3.5396-7.4298 7.4298-7.4298l3.7149,0c3.8903,0 7.4298,3.5396 7.4298,7.4298v22.2895c0,3.8903-3.5396,7.4298-7.4298,7.4298zm-3.7149,7.4298 3.7149,0c7.7805,0 14.8597-7.0792 14.8597-14.8597v-22.2895c0-7.7805-7.0792-14.8597-14.8597-14.8597l-3.7149-0c-7.7805,0-14.8597,7.0792-14.8597,14.8597v22.2895c0,7.7805 7.0792,14.8597 14.8597,14.8597z"/>
<path d="m37.7144,42.8344c0-1.9451-1.7698-3.7149-3.7149-3.7149-1.9451,0-3.7149,1.7698-3.7149,3.7149v44.5791c0,1.9451 1.7698,3.7149 3.7149,3.7149 1.9451,0 3.7149-1.7698 3.7149-3.7149v-44.5791z"/>
</g>
</svg>
