<?xml version="1.0" encoding="UTF-8" standalone="no"?>
<!-- 2011-05-26 11:38:01 Generated by QCAD SVG Exporter -->

<svg
   xmlns:dc="http://purl.org/dc/elements/1.1/"
   xmlns:cc="http://creativecommons.org/ns#"
   xmlns:rdf="http://www.w3.org/1999/02/22-rdf-syntax-ns#"
   xmlns:svg="http://www.w3.org/2000/svg"
   xmlns="http://www.w3.org/2000/svg"
   xmlns:xlink="http://www.w3.org/1999/xlink"
   xmlns:sodipodi="http://sodipodi.sourceforge.net/DTD/sodipodi-0.dtd"
   xmlns:inkscape="http://www.inkscape.org/namespaces/inkscape"
   width="256"
   height="512"
   viewBox="-2.125 -7.125 72.24889 144.49778"
   version="1.1"
   style="fill:none;stroke-linecap:round"
   id="svg2"
   inkscape:version="0.47 r22583"
   sodipodi:docname="KeepProportionsOff.svg">
  <metadata
     id="metadata54">
    <rdf:RDF>
      <cc:Work
         rdf:about="">
        <dc:format>image/svg+xml</dc:format>
        <dc:type
           rdf:resource="http://purl.org/dc/dcmitype/StillImage" />
        <dc:title />
      </cc:Work>
    </rdf:RDF>
  </metadata>
  <defs
     id="defs52">
    <linearGradient
       id="linearGradient3695">
      <stop
         style="stop-color:#5e5e5e;stop-opacity:1;"
         offset="0"
         id="stop3697" />
      <stop
         style="stop-color:#ffffff;stop-opacity:1;"
         offset="1"
         id="stop3699" />
    </linearGradient>
    <inkscape:perspective
       sodipodi:type="inkscape:persp3d"
       inkscape:vp_x="0 : 16.387794 : 1"
       inkscape:vp_y="0 : 1000 : 0"
       inkscape:vp_z="114.27165 : 16.387794 : 1"
       inkscape:persp3d-origin="57.135826 : 10.925196 : 1"
       id="perspective56" />
    <radialGradient
       inkscape:collect="always"
       xlink:href="#linearGradient3695"
       id="radialGradient3701"
       cx="14"
       cy="-2.5"
       fx="14"
       fy="-2.5"
       r="7.1411109"
       gradientTransform="matrix(9.5446952,0,0,0.93153474,-63.501843,67.452741)"
       gradientUnits="userSpaceOnUse" />
    <radialGradient
       inkscape:collect="always"
       xlink:href="#linearGradient3695"
       id="radialGradient3764"
       gradientUnits="userSpaceOnUse"
       gradientTransform="matrix(33.819786,0,0,3.3007136,-217.477,264.25183)"
       cx="14"
       cy="-2.5"
       fx="14"
       fy="-2.5"
       r="7.1411109" />
    <radialGradient
       inkscape:collect="always"
       xlink:href="#linearGradient3695"
       id="radialGradient3769"
       gradientUnits="userSpaceOnUse"
       gradientTransform="matrix(-17.293091,0,0,0.88998864,320.01956,67.348875)"
       cx="14"
       cy="-2.5"
       fx="14"
       fy="-2.5"
       r="7.1411109" />
  </defs>
  <sodipodi:namedview
     pagecolor="#ffffff"
     bordercolor="#666666"
     borderopacity="1"
     objecttolerance="10"
     gridtolerance="10"
     guidetolerance="10"
     inkscape:pageopacity="0"
     inkscape:pageshadow="2"
     inkscape:window-width="1372"
     inkscape:window-height="953"
     id="namedview50"
     showgrid="false"
     inkscape:zoom="1.1792076"
     inkscape:cx="190.69742"
     inkscape:cy="252.80333"
     inkscape:window-x="24"
     inkscape:window-y="11"
     inkscape:window-maximized="0"
     inkscape:current-layer="svg2" />
  <path
     id="path3677"
     style="fill:#e6e6e6;fill-opacity:1;stroke:#000000;stroke-width:4.23333359;stroke-miterlimit:4;stroke-opacity:1;stroke-dasharray:none"
     d="m 35.856907,123.08592 -3.714926,0 c -3.890258,0 -7.429839,-3.53958 -7.429839,-7.42984 l -3e-6,-22.289541 c 1e-6,-3.890256 3.539588,-7.429842 7.429844,-7.429842 l 3.714922,0 c 3.890258,0 7.429844,3.539586 7.429842,7.429842 l 4e-6,22.289541 c 0,3.89026 -3.539587,7.42984 -7.429844,7.42984 z m -3.714923,7.42985 3.714922,-1e-5 c 7.780514,1e-5 14.859688,-7.07917 14.859688,-14.85968 l 0,-22.289541 c 0,-7.780512 -7.079174,-14.859686 -14.859688,-14.859686 l -3.714922,10e-7 c -7.780515,-10e-7 -14.859687,7.079173 -14.859687,14.859685 l -1e-6,22.289541 c 0,7.78051 7.079175,14.85968 14.859688,14.85969 z" />
  <path
     id="path3711"
     style="fill:#e6e6e6;fill-opacity:1;stroke:#000000;stroke-width:4.23333359;stroke-miterlimit:4;stroke-opacity:1;stroke-dasharray:none"
     d="m 35.856906,44.311079 -3.714922,0 c -3.890259,0 -7.429845,-3.539586 -7.429845,-7.429844 l 3e-6,-22.289534 c -5e-6,-3.890252 3.539583,-7.4298391 7.429839,-7.4298398 l 3.714921,1.5e-6 c 3.890258,0 7.429844,3.5395863 7.429844,7.4298433 l 10e-7,22.289531 c 0,3.890257 -3.539586,7.429842 -7.429841,7.429842 z m -3.714922,7.429843 3.714922,1e-6 c 7.780513,0 14.859688,-7.079175 14.859689,-14.85969 l -10e-7,-22.28953 c 10e-7,-7.7805148 -7.079173,-14.85968825 -14.859688,-14.8596875 l -3.714921,-7.5e-7 c -7.780515,0 -14.859689,7.07917495 -14.85969,14.85968925 l 10e-7,22.28953 c -10e-7,7.780515 7.079173,14.859689 14.859687,14.859688 z" />
  <path
     style="fill:#e6e6e6;fill-opacity:1;stroke:#000000;stroke-width:4.23333359;stroke-miterlimit:4;stroke-opacity:1;stroke-dasharray:none"
     d="m 30.289076,55.491403 7.420738,0 -4e-6,-18.613854 c 4e-6,-1.94511 -1.765235,-3.710348 -3.710367,-3.710346 -1.945093,0 -3.710367,1.765238 -3.710368,3.710344 l 1e-6,18.613856 z"
     id="path48" />
  <path
     id="path3771"
     d="m 30.289076,74.662725 7.420735,0 10e-7,18.613851 c 10e-7,1.945133 -1.765237,3.71037 -3.710369,3.71037 -1.945094,0 -3.710367,-1.765237 -3.710367,-3.71037 l 0,-18.613851 z"
     style="fill:#e6e6e6;fill-opacity:1;stroke:#000000;stroke-width:4.23333359;stroke-miterlimit:4;stroke-opacity:1;stroke-dasharray:none" />
</svg>
