<svg width="256" xmlns="http://www.w3.org/2000/svg" height="512" viewBox="-2.125 -7.125 72.24889 144.49778" style="fill:none;stroke-linecap:round"><g style="fill:#e6e6e6;stroke:#000;stroke-width:4.233"><path d="m35.857 123.09h-3.715c-3.89 0-7.43-3.54-7.43-7.43v-22.29c0-3.89 3.54-7.43 7.43-7.43h3.715c3.89 0 7.43 3.54 7.43 7.43v22.29c0 3.89-3.54 7.43-7.43 7.43zm-3.715 7.43h3.715c7.78 0 14.86-7.079 14.86-14.86v-22.29c0-7.781-7.079-14.86-14.86-14.86h-3.715c-7.781 0-14.86 7.079-14.86 14.86v22.29c0 7.781 7.079 14.86 14.86 14.86z"/><path d="m35.857 44.31h-3.715c-3.89 0-7.43-3.54-7.43-7.43v-22.29c0-3.89 3.54-7.43 7.43-7.43h3.715c3.89 0 7.43 3.54 7.43 7.43v22.29c0 3.89-3.54 7.43-7.43 7.43zm-3.715 7.43h3.715c7.78 0 14.86-7.079 14.86-14.86v-22.29c0-7.781-7.079-14.86-14.86-14.86h-3.715c-7.781 0-14.86 7.079-14.86 14.86v22.29c0 7.781 7.079 14.86 14.86 14.86z"/><path d="m30.29 55.49h7.421v-18.614c0-1.945-1.765-3.71-3.71-3.71-1.945 0-3.71 1.765-3.71 3.71v18.614z"/><path d="m30.29 74.66h7.421v18.614c0 1.945-1.765 3.71-3.71 3.71-1.945 0-3.71-1.765-3.71-3.71v-18.614z"/></g></svg>