<?xml version="1.0" encoding="UTF-8" standalone="no"?>
<svg
   xmlns:dc="http://purl.org/dc/elements/1.1/"
   xmlns:cc="http://creativecommons.org/ns#"
   xmlns:rdf="http://www.w3.org/1999/02/22-rdf-syntax-ns#"
   xmlns:svg="http://www.w3.org/2000/svg"
   xmlns="http://www.w3.org/2000/svg"
   xmlns:sodipodi="http://sodipodi.sourceforge.net/DTD/sodipodi-0.dtd"
   xmlns:inkscape="http://www.inkscape.org/namespaces/inkscape"
   width="1536"
   height="1024"
   id="svg4582"
   version="1.1"
   inkscape:version="0.48.2 r9819"
   sodipodi:docname="ScaleDialog.svg">
  <metadata
     id="metadata4614">
    <rdf:RDF>
      <cc:Work
         rdf:about="">
        <dc:format>image/svg+xml</dc:format>
        <dc:type
           rdf:resource="http://purl.org/dc/dcmitype/StillImage" />
      </cc:Work>
    </rdf:RDF>
  </metadata>
  <sodipodi:namedview
     pagecolor="#ffffff"
     bordercolor="#666666"
     borderopacity="1"
     objecttolerance="10"
     gridtolerance="10"
     guidetolerance="10"
     inkscape:pageopacity="0"
     inkscape:pageshadow="2"
     inkscape:window-width="640"
     inkscape:window-height="480"
     id="namedview4612"
     showgrid="false"
     inkscape:zoom="0.21875"
     inkscape:cx="768"
     inkscape:cy="512"
     inkscape:window-x="0"
     inkscape:window-y="0"
     inkscape:window-maximized="0"
     inkscape:current-layer="svg4582" />
  <defs
     id="defs4584" />
  <g
     stroke-width="8"
     color="#000"
     id="g4586">
    <g
       stroke-dasharray="32,32"
       fill="#fff"
       stroke="#00f"
       id="g4588">
      <path
         d="m1400,552-1248-400"
         id="path4590" />
      <path
         d="m1400,552-1248,320"
         stroke-dashoffset="26.4"
         id="path4592" />
      <path
         d="m1400,552-976,320"
         stroke-dashoffset="29.6"
         id="path4594" />
    </g>
    <g
       fill="none"
       stroke="#f00"
       transform="translate(768 -320)"
       id="g4596">
      <path
         d="m632,824 0,96"
         id="path4598" />
      <path
         d="m680,872-96,0"
         id="path4600" />
    </g>
    <g
       fill="#e6e6e6"
       stroke="#000"
       fill-opacity=".471"
       stroke-linecap="square"
       id="g4602">
      <path
         d="m152,152 0,720 270,0z"
         id="path4604" />
      <path
         d="m712,328 0,400 150,0z"
         id="path4606" />
    </g>
  </g>
  <g
     style="font-size:140px;text-align:start;line-height:125%;letter-spacing:0;word-spacing:0;font-family:Sans"
     id="text4608">
    <path
       d="M 1051.8838,259.20001 1038.7002,259.20001 1038.7002,175.19122 C 1035.5263,178.21865 1031.3515,181.24599 1026.1758,184.27325 1021.0488,187.30067 1016.4345,189.57118 1012.333,191.08478 L 1012.333,178.34064 C 1019.706,174.87392 1026.1513,170.67471 1031.6689,165.74298 1037.1865,160.81144 1041.0927,156.02629 1043.3877,151.38751 L 1051.8838,151.38751 1051.8838,259.20001"
       style="font-size:150px;font-family:Arial"
       id="path4973" />
    <path
       d="M 1134.6475,196.43146 1134.6475,181.41681 1149.6621,181.41681 1149.6621,196.43146 1134.6475,196.43146 M 1134.6475,259.20001 1134.6475,244.18536 1149.6621,244.18536 1149.6621,259.20001 1134.6475,259.20001"
       style="font-size:150px;font-family:Arial"
       id="path4975" />
    <path
       d="M 1217.3379,259.20001 1217.3379,191.67072 1205.6924,191.67072 1205.6924,181.41681 1217.3379,181.41681 1217.3379,173.14044 C 1217.3379,167.91592 1217.8017,164.03409 1218.7295,161.49493 1219.999,158.07707 1222.2207,155.31828 1225.3945,153.21857 1228.6172,151.07024 1233.1093,149.99602 1238.8711,149.99591 1242.582,149.99602 1246.6836,150.43547 1251.1758,151.31427 L 1249.1982,162.81329 C 1246.4638,162.32511 1243.8759,162.08097 1241.4346,162.08087 1237.4306,162.08097 1234.5986,162.93546 1232.9385,164.64435 1231.2783,166.35343 1230.4482,169.55166 1230.4482,174.23907 L 1230.4482,181.41681 1245.6094,181.41681 1245.6094,191.67072 1230.4482,191.67072 1230.4482,259.20001 1217.3379,259.20001"
       style="font-size:150px;font-family:Arial"
       id="path4977" />
  </g>
</svg>
