<svg xmlns="http://www.w3.org/2000/svg" viewBox="0 0 1536 1024"><g style="color:#000;stroke-width:8"><g style="stroke-dasharray:32 32;fill:#fff;stroke:#00f"><path d="m1400,552-1248-400"/><path d="m1400,552-1248,320" style="stroke-dashoffset:26.4"/><path d="m1400,552-976,320" style="stroke-dashoffset:29.6"/></g><g transform="translate(768-320)" style="fill:none;stroke:#f00"><path d="m632 824v96"/><path d="m680 872h-96"/></g><g style="fill:#e6e6e6;fill-opacity:.471;stroke:#000;stroke-linecap:square"><path d="m152 152v720h270z"/><path d="m712 328v400h150z"/></g></g><path d="m1051.88 259.2h-13.184v-84.01c-3.174 3.03-7.349 6.05-12.524 9.08-5.127 3.03-9.741 5.298-13.843 6.812v-12.744c7.373-3.467 13.818-7.666 19.336-12.598 5.518-4.932 9.424-9.717 11.719-14.355h8.496v107.81"/><path d="m1134.65 196.43v-15.01h15.01v15.01h-15.01m0 62.769v-15.01h15.01v15.01h-15.01"/><path d="m1217.34 259.2v-67.53h-11.646v-10.254h11.646v-8.276c0-5.225.464-9.106 1.392-11.646 1.27-3.418 3.491-6.177 6.665-8.276 3.223-2.148 7.715-3.223 13.477-3.223 3.711 0 7.813.44 12.305 1.318l-1.978 11.499c-2.734-.488-5.322-.732-7.764-.732-4 0-6.836.855-8.496 2.563-1.66 1.709-2.49 4.907-2.49 9.595v7.178h15.16v10.254h-15.16v67.53h-13.11"/></svg>