<svg width="512" xmlns="http://www.w3.org/2000/svg" height="512">
<defs/>
<g fill="none" stroke-width="16" color="#000">
<path stroke="#fff" d="m456,408-272,0 0-80-112,0 0-176c0-16-1-36 11-59"/>
<g stroke-linecap="square">
<path stroke="#f00" d="m241.6973,225.2671c-22.3211,27.4066-62.6335,31.5292-90.0401,9.208-27.4066-22.3211-31.5292-62.6335-9.208-90.0401"/>
<path stroke="#fff" d="m142.4492,144.4351c22.3211-27.4066 62.6335-31.5292 90.04-9.208 27.4066,22.3211 31.5292,62.6335 9.208,90.04"/>
</g>
<path stroke="#fff" d="M 287.08535,271.58369 216,360 l 192,0"/>
<g stroke="#f00" stroke-linecap="square">
<path d="m408,360 0-224-112,128"/>
<path d="m88,88c16-16 32-32 64-32 101.3333,0 304,0 304,0v352"/>
</g>
<g stroke="#fff">
<path d="m40,40 432,368"/>
<path d="m40,72 432,368"/>
</g>
<path stroke="#666" d="m40,56 432,368"/>
</g>
</svg>
