<svg xmlns="http://www.w3.org/2000/svg" viewBox="0 0 512 512"><g transform="translate(0 492)"><g style="fill:none;stroke:#000;stroke-width:16"><path d="m104-420l176 208"/><path d="m217.6-44c0-128 102.4-230.4 230.4-230.4"/></g><path d="m16.5 4.5c0 .552-.448 1-1 1-.552 0-1-.448-1-1 0-.552.448-1 1-1 .552 0 1 .448 1 1" transform="matrix(32 0 0-32-214.4-66.4)" style="fill:#f00"/><path d="m206.83-298.32c19.549-16 44.54-25.599 71.77-25.599 42.749 0 79.974 23.655 99.3 58.59" style="fill:none;stroke:#000;stroke-linecap:round;stroke-linejoin:round;stroke-width:8"/><path d="m296 224a8 8 0 1 1 -16 0 8 8 0 1 1 16 0" transform="translate(0-508)"/></g></svg>