<svg width="512" xmlns="http://www.w3.org/2000/svg" height="512">
<defs/>
<g transform="translate(0 492)">
<g fill="none" stroke="#000" stroke-width="16">
<path d="m104-420 176,208"/>
<path d="m217.6-44c0-128 102.4-230.4 230.4-230.4"/>
</g>
<path fill="#f00" d="m16.5,4.5c0,.5523-.4477,1-1,1-.5523,0-1-.4477-1-1 0-.5523 .4477-1 1-1 .5523,0 1,.4477 1,1z" transform="matrix(32 0 0 -32 -214.4 -66.4)"/>
<path fill="none" stroke="#000" stroke-linejoin="round" stroke-linecap="round" stroke-width="8" d="m206.8275-298.3178c19.5494-15.9996 44.54-25.5989 71.7726-25.5989 42.7493,0 79.9737,23.6549 99.298,58.5895"/>
<path d="m296,224a8,8 0 1,1 -16,0 8,8 0 1,1 16,0z" transform="translate(0 -508)"/>
</g>
</svg>
