<?xml version="1.0" encoding="UTF-8" standalone="no"?>
<svg
   xmlns:dc="http://purl.org/dc/elements/1.1/"
   xmlns:cc="http://creativecommons.org/ns#"
   xmlns:rdf="http://www.w3.org/1999/02/22-rdf-syntax-ns#"
   xmlns:svg="http://www.w3.org/2000/svg"
   xmlns="http://www.w3.org/2000/svg"
   xmlns:sodipodi="http://sodipodi.sourceforge.net/DTD/sodipodi-0.dtd"
   xmlns:inkscape="http://www.inkscape.org/namespaces/inkscape"
   width="512"
   height="512"
   id="svg2"
   version="1.1"
   inkscape:version="0.48.2 r9819"
   sodipodi:docname="CloseAll.svg">
  <metadata
     id="metadata18">
    <rdf:RDF>
      <cc:Work
         rdf:about="">
        <dc:format>image/svg+xml</dc:format>
        <dc:type
           rdf:resource="http://purl.org/dc/dcmitype/StillImage" />
      </cc:Work>
    </rdf:RDF>
  </metadata>
  <sodipodi:namedview
     pagecolor="#ffffff"
     bordercolor="#666666"
     borderopacity="1"
     objecttolerance="10"
     gridtolerance="10"
     guidetolerance="10"
     inkscape:pageopacity="0"
     inkscape:pageshadow="2"
     inkscape:window-width="1337"
     inkscape:window-height="981"
     id="namedview16"
     showgrid="false"
     inkscape:zoom="0.921875"
     inkscape:cx="119.86441"
     inkscape:cy="256"
     inkscape:window-x="0"
     inkscape:window-y="0"
     inkscape:window-maximized="0"
     inkscape:current-layer="svg2" />
  <defs
     id="defs4" />
  <g
     transform="matrix(0.87609651,0,0,0.87609651,115.82447,354.1229)"
     id="g3005">
    <path
       style="fill:#d73727"
       inkscape:connector-curvature="0"
       d="M 132.849,-374.643 H 379.151 A 43.4919,43.4919 0 0 1 422.643,-331.151 V -84.8492 A 43.4919,43.4919 0 0 1 379.151,-41.3572 H 132.849 A 43.4919,43.4919 0 0 1 89.3572,-84.8492 V -331.151 A 43.4919,43.4919 0 0 1 132.849,-374.643"
       id="path3007" />
    <path
       style="fill:#e6987a"
       inkscape:connector-curvature="0"
       d="M 148.185,-349.005 H 363.814 A 33.1912,33.1912 0 0 1 397.005,-315.814 V -100.185 A 33.1912,33.1912 0 0 1 363.814,-66.9943 H 148.185 A 33.1912,33.1912 0 0 1 114.994,-100.185 V -315.814 A 33.1912,33.1912 0 0 1 148.185,-349.005"
       id="path3009" />
    <path
       style="fill:#df8453"
       inkscape:connector-curvature="0"
       d="M 140.632,-323.368 H 371.368 V -92.6323 H 140.632 z"
       id="path3011" />
    <path
       style="fill:#ffffff;fill-rule:evenodd;stroke:#ffffff;stroke-width:43.54399872"
       inkscape:connector-curvature="0"
       d="M 179.1445,-284.8553 332.8548,-131.145 M 332.8548,-284.8553 179.1445,-131.145"
       id="path3013" />
  </g>
  <g
     id="g2995"
     transform="matrix(0.87609651,0,0,0.87609651,31.719207,438.22816)">
    <path
       id="path2997"
       d="M 132.849,-374.643 H 379.151 A 43.4919,43.4919 0 0 1 422.643,-331.151 V -84.8492 A 43.4919,43.4919 0 0 1 379.151,-41.3572 H 132.849 A 43.4919,43.4919 0 0 1 89.3572,-84.8492 V -331.151 A 43.4919,43.4919 0 0 1 132.849,-374.643"
       inkscape:connector-curvature="0"
       style="fill:#d73727" />
    <path
       id="path2999"
       d="M 148.185,-349.005 H 363.814 A 33.1912,33.1912 0 0 1 397.005,-315.814 V -100.185 A 33.1912,33.1912 0 0 1 363.814,-66.9943 H 148.185 A 33.1912,33.1912 0 0 1 114.994,-100.185 V -315.814 A 33.1912,33.1912 0 0 1 148.185,-349.005"
       inkscape:connector-curvature="0"
       style="fill:#e6987a" />
    <path
       id="path3001"
       d="M 140.632,-323.368 H 371.368 V -92.6323 H 140.632 z"
       inkscape:connector-curvature="0"
       style="fill:#df8453" />
    <path
       id="path3003"
       d="M 179.1445,-284.8553 332.8548,-131.145 M 332.8548,-284.8553 179.1445,-131.145"
       inkscape:connector-curvature="0"
       style="fill:#ffffff;fill-rule:evenodd;stroke:#ffffff;stroke-width:43.54399872" />
  </g>
  <g
     transform="matrix(0.87609651,0,0,0.87609651,-52.386058,522.33343)"
     id="g6">
    <path
       d="M 132.849,-374.643 H 379.151 A 43.4919,43.4919 0 0 1 422.643,-331.151 V -84.8492 A 43.4919,43.4919 0 0 1 379.151,-41.3572 H 132.849 A 43.4919,43.4919 0 0 1 89.3572,-84.8492 V -331.151 A 43.4919,43.4919 0 0 1 132.849,-374.643"
       id="path8"
       inkscape:connector-curvature="0"
       style="fill:#d73727" />
    <path
       d="M 148.185,-349.005 H 363.814 A 33.1912,33.1912 0 0 1 397.005,-315.814 V -100.185 A 33.1912,33.1912 0 0 1 363.814,-66.9943 H 148.185 A 33.1912,33.1912 0 0 1 114.994,-100.185 V -315.814 A 33.1912,33.1912 0 0 1 148.185,-349.005"
       id="path10"
       inkscape:connector-curvature="0"
       style="fill:#e6987a" />
    <path
       d="M 140.632,-323.368 H 371.368 V -92.6323 H 140.632 z"
       id="path12"
       inkscape:connector-curvature="0"
       style="fill:#df8453" />
    <path
       d="M 179.1445,-284.8553 332.8548,-131.145 M 332.8548,-284.8553 179.1445,-131.145"
       id="path14"
       inkscape:connector-curvature="0"
       style="fill:#ffffff;fill-rule:evenodd;stroke:#ffffff;stroke-width:43.54399872" />
  </g>
</svg>
