<?xml version="1.0" encoding="UTF-8" standalone="no"?>
<svg
   xmlns:dc="http://purl.org/dc/elements/1.1/"
   xmlns:cc="http://creativecommons.org/ns#"
   xmlns:rdf="http://www.w3.org/1999/02/22-rdf-syntax-ns#"
   xmlns:svg="http://www.w3.org/2000/svg"
   xmlns="http://www.w3.org/2000/svg"
   xmlns:sodipodi="http://sodipodi.sourceforge.net/DTD/sodipodi-0.dtd"
   xmlns:inkscape="http://www.inkscape.org/namespaces/inkscape"
   width="512"
   height="512"
   id="svg2"
   version="1.1"
   inkscape:version="0.48.2 r9819"
   sodipodi:docname="PointLabelExport.svg">
  <metadata
     id="metadata26">
    <rdf:RDF>
      <cc:Work
         rdf:about="">
        <dc:format>image/svg+xml</dc:format>
        <dc:type
           rdf:resource="http://purl.org/dc/dcmitype/StillImage" />
        <dc:title></dc:title>
      </cc:Work>
    </rdf:RDF>
  </metadata>
  <sodipodi:namedview
     pagecolor="#ffffff"
     bordercolor="#666666"
     borderopacity="1"
     objecttolerance="10"
     gridtolerance="10"
     guidetolerance="10"
     inkscape:pageopacity="0"
     inkscape:pageshadow="2"
     inkscape:window-width="1797"
     inkscape:window-height="1187"
     id="namedview24"
     showgrid="true"
     inkscape:zoom="1.3037281"
     inkscape:cx="237.36386"
     inkscape:cy="152.83432"
     inkscape:window-x="0"
     inkscape:window-y="0"
     inkscape:window-maximized="0"
     inkscape:current-layer="svg2">
    <inkscape:grid
       type="xygrid"
       id="grid3005"
       empspacing="8"
       visible="true"
       enabled="true"
       snapvisiblegridlinesonly="true"
       spacingx="8px"
       spacingy="8px" />
  </sodipodi:namedview>
  <defs
     id="defs4" />
  <path
     style="fill:none;stroke:#000000;stroke-width:16;stroke-linecap:square"
     inkscape:connector-curvature="0"
     id="path20"
     d="M 144,392 C 144,392 240,392 240,392" />
  <path
     style="fill:none;stroke:#000000;stroke-width:16;stroke-linecap:square"
     inkscape:connector-curvature="0"
     id="path22"
     d="M 192,440 192,344" />
  <g
     style="font-size:233.7046051px;font-style:normal;font-variant:normal;font-weight:normal;font-stretch:normal;line-height:125%;letter-spacing:0px;word-spacing:0px;fill:#000000;fill-opacity:1;stroke:none;font-family:Arial;-inkscape-font-specification:Arial"
     id="text3007"
     transform="translate(-64,0)">
    <path
       d="M 181.39345,194.76939 117.8258,194.76939 C 126.23916,167.42598 135.35365,137.27803 143.53331,109.93462 144.70183,107.83128 147.27258,105.26053 149.60963,105.26053 151.94667,105.26053 154.51742,107.59758 155.68595,109.93462 L 181.39345,194.76939 M 168.07229,105.96164 C 165.73525,98.015695 158.49039,92.406776 149.60963,92.406776 140.96256,92.406776 133.48401,98.015695 131.14696,105.96164 116.89099,153.40363 102.16758,200.61206 88.145314,247.82034 87.91161,248.52145 87.91161,249.22257 87.91161,249.92368 87.91161,252.96184 90.949773,256 93.987929,256 96.792382,256 99.363136,253.89666 100.29795,251.79332 L 113.85282,207.15574 184.89902,207.15574 199.155,251.79332 C 200.08982,253.66295 202.66057,256 204.99762,256 208.50318,256 211.30764,252.96184 211.30764,249.92368 211.30764,249.68998 211.07394,248.75516 211.07394,248.52145 L 168.07229,105.96164"
       style="font-weight:bold;font-family:Planer;-inkscape-font-specification:Planer Bold"
       id="path3074"
       inkscape:connector-curvature="0" />
    <path
       d="M 234.8899,246.18441 C 234.8899,251.3259 239.56399,256 244.70549,256 L 285.6038,256 C 312.94721,256 322.76283,229.12395 322.76283,212.06353 L 322.76283,176.07303 C 322.76283,151.30036 305.70237,137.04436 286.0712,137.04436 L 247.27624,137.04436 247.27624,100.58644 C 247.27624,96.847168 244.47178,94.276413 240.96622,94.276413 237.69435,94.276413 234.8899,96.847168 234.8899,100.58644 L 234.8899,246.18441 M 247.27624,148.72959 286.0712,148.72959 C 299.15865,148.72959 310.37648,159.71372 310.37648,176.07303 L 310.37648,211.36242 C 310.37648,230.52618 299.85976,243.61366 285.6038,243.61366 L 247.27624,243.61366 247.27624,148.72959"
       style="font-weight:bold;font-family:Planer;-inkscape-font-specification:Planer Bold"
       id="path3076"
       inkscape:connector-curvature="0" />
    <path
       d="M 391.83716,137.04436 C 360.98818,137.04436 346.26476,153.40371 346.26476,184.7201 L 346.26476,206.68833 C 346.26476,240.34176 361.22188,256 391.83716,256 L 418.24578,256 C 421.75134,256 424.08839,253.42925 424.08839,250.15738 424.08839,246.88552 421.75134,244.31477 418.24578,244.31477 L 391.83716,244.31477 C 369.63524,244.31477 358.4174,230.99358 358.4174,206.92203 L 358.4174,184.7201 C 358.4174,161.81707 368.46672,148.72959 391.83716,148.72959 L 418.24578,148.72959 C 421.75134,148.72959 424.08839,146.39254 424.08839,142.88697 424.08839,139.61511 421.75134,137.04436 418.24578,137.04436 L 391.83716,137.04436"
       style="font-weight:bold;font-family:Planer;-inkscape-font-specification:Planer Bold"
       id="path3078"
       inkscape:connector-curvature="0" />
  </g>
  <path
     style="fill:#ff0000;stroke:#000000;stroke-width:11.98999977"
     inkscape:connector-curvature="0"
     d="M 495.84,388.776 399.92,292.856 399.92,360 304,360 304,417.552 399.92,417.552 399.92,484.696 495.84,388.776 z"
     id="path3336" />
</svg>
