<?xml version="1.0" encoding="UTF-8" standalone="no"?>
<svg
   xmlns:dc="http://purl.org/dc/elements/1.1/"
   xmlns:cc="http://creativecommons.org/ns#"
   xmlns:rdf="http://www.w3.org/1999/02/22-rdf-syntax-ns#"
   xmlns:svg="http://www.w3.org/2000/svg"
   xmlns="http://www.w3.org/2000/svg"
   xmlns:sodipodi="http://sodipodi.sourceforge.net/DTD/sodipodi-0.dtd"
   xmlns:inkscape="http://www.inkscape.org/namespaces/inkscape"
   width="512"
   height="512"
   id="svg2"
   version="1.1"
   inkscape:version="0.91 r13725"
   sodipodi:docname="ConvertToInch.svg">
  <metadata
     id="metadata26">
    <rdf:RDF>
      <cc:Work
         rdf:about="">
        <dc:format>image/svg+xml</dc:format>
        <dc:type
           rdf:resource="http://purl.org/dc/dcmitype/StillImage" />
        <dc:title />
      </cc:Work>
    </rdf:RDF>
  </metadata>
  <sodipodi:namedview
     pagecolor="#ffffff"
     bordercolor="#666666"
     borderopacity="1"
     objecttolerance="10"
     gridtolerance="10"
     guidetolerance="10"
     inkscape:pageopacity="0"
     inkscape:pageshadow="2"
     inkscape:window-width="2120"
     inkscape:window-height="1109"
     id="namedview24"
     showgrid="false"
     inkscape:zoom="1.28"
     inkscape:cx="189.56386"
     inkscape:cy="235.97003"
     inkscape:window-x="0"
     inkscape:window-y="0"
     inkscape:window-maximized="0"
     inkscape:current-layer="svg2" />
  <defs
     id="defs4">
    <linearGradient
       id="linearGradient3458">
      <stop
         id="stop3528"
         stop-color="#5f411c"
         offset="0"
         style="stop-color:#7a7a7a;stop-opacity:1;" />
      <stop
         id="stop3530"
         stop-color="#454545"
         offset="1"
         style="stop-color:#585858;stop-opacity:1;" />
    </linearGradient>
    <linearGradient
       id="linearGradient3444">
      <stop
         id="stop3523"
         stop-opacity=".584"
         stop-color="#ffbd75"
         offset="0"
         style="stop-color:#bababa;stop-opacity:0.58399999;" />
      <stop
         id="stop3525"
         stop-color="#f9dbba"
         offset="1"
         style="stop-color:#d9d9d9;stop-opacity:1;" />
    </linearGradient>
    <linearGradient
       id="linearGradient2662">
      <stop
         id="stop3518"
         stop-color="#ffffff"
         offset="0"
         style="stop-color:#ffffff;stop-opacity:1;" />
      <stop
         id="stop3520"
         stop-color="#ededed"
         offset="1"
         style="stop-color:#ededed;stop-opacity:1;" />
    </linearGradient>
  </defs>
  <g
     style="font-style:normal;font-variant:normal;font-weight:normal;font-stretch:normal;font-size:204.01757812px;line-height:125%;font-family:Arial;-inkscape-font-specification:Arial;letter-spacing:0px;word-spacing:0px;fill:#000000;fill-opacity:1;stroke:none"
     id="text3003"
     transform="matrix(1.25,0,0,1.25,-64.000001,5.6968)">
    <path
       d="m 93.724022,272.24256 c 0,3.375 2.250004,5.85 5.85,5.85 3.374998,0 6.074998,-2.475 6.074998,-5.85 l 0,-100.575 c 0,-3.375 -2.7,-6.075 -6.074998,-6.075 -3.599996,0 -5.85,2.7 -5.85,6.075 l 0,100.575 m 0,-139.5 c 0,3.375 2.250004,5.85 5.85,5.85 3.374998,0 6.074998,-2.475 6.074998,-5.85 l 0,-4.275 c 0,-3.6 -2.7,-6.075 -6.074998,-6.075 -3.599996,0 -5.85,2.475 -5.85,6.075 l 0,4.275"
       style="font-size:225px;font-family:Planer;-inkscape-font-specification:Planer"
       id="path3180"
       inkscape:connector-curvature="0" />
    <path
       d="m 201.12637,272.01756 c 0,3.15 2.475,6.075 5.85,6.075 3.37499,0 6.075,-2.925 6.075,-6.075 l 0,-70.875 c 0,-23.84998 -16.42502,-37.575 -35.325,-37.575 l -40.275,0 c -5.625,0 -9.45,4.725 -9.45,9.675 l 0,98.775 c 0,3.15 2.475,6.075 5.85,6.075 3.37499,0 6.075,-2.7 6.075,-6.525 l 0,-96.75 37.8,0 c 12.59998,0 23.4,10.57502 23.4,26.325 l 0,70.875"
       style="font-size:225px;font-family:Planer;-inkscape-font-specification:Planer"
       id="path3182"
       inkscape:connector-curvature="0" />
    <path
       d="m 279.54238,163.56756 c -29.69997,0 -43.875,15.75003 -43.875,45.9 l 0,21.15 c 0,32.39997 14.40003,47.475 43.875,47.475 l 25.425,0 c 3.375,0 5.625,-2.475 5.625,-5.625 0,-3.15 -2.25,-5.625 -5.625,-5.625 l -25.425,0 c -21.37498,0 -32.175,-12.82502 -32.175,-36 l 0,-21.375 c 0,-22.04998 9.67502,-34.65 32.175,-34.65 l 25.425,0 c 3.375,0 5.625,-2.25 5.625,-5.625 0,-3.15 -2.25,-5.625 -5.625,-5.625 l -25.425,0"
       style="font-size:225px;font-family:Planer;-inkscape-font-specification:Planer"
       id="path3184"
       inkscape:connector-curvature="0" />
    <path
       d="m 333.22598,272.24256 c 0,3.375 2.475,5.85 5.85,5.85 3.37499,0 6.075,-2.475 6.075,-5.85 l 0,-97.425 37.8,0 c 12.59998,0 23.4,10.57502 23.4,26.775 l 0,70.65 c 0,3.375 2.475,5.85 5.85,5.85 3.37499,0 6.075,-2.475 6.075,-5.85 l 0,-71.1 c 0,-23.84998 -16.42502,-37.575 -35.325,-37.575 l -37.8,0 0,-35.1 c 0,-3.6 -2.70001,-6.075 -6.075,-6.075 -3.375,0 -5.85,2.475 -5.85,6.075 l 0,143.775"
       style="font-size:225px;font-family:Planer;-inkscape-font-specification:Planer"
       id="path3186"
       inkscape:connector-curvature="0" />
  </g>
</svg>
