<?xml version="1.0" encoding="UTF-8" standalone="no"?>
<svg
   xmlns:dc="http://purl.org/dc/elements/1.1/"
   xmlns:cc="http://creativecommons.org/ns#"
   xmlns:rdf="http://www.w3.org/1999/02/22-rdf-syntax-ns#"
   xmlns:svg="http://www.w3.org/2000/svg"
   xmlns="http://www.w3.org/2000/svg"
   xmlns:xlink="http://www.w3.org/1999/xlink"
   xmlns:sodipodi="http://sodipodi.sourceforge.net/DTD/sodipodi-0.dtd"
   xmlns:inkscape="http://www.inkscape.org/namespaces/inkscape"
   width="512"
   height="512"
   id="svg2"
   version="1.1"
   inkscape:version="0.48.2 r9819"
   sodipodi:docname="PmcConvertToIn.svg">
  <metadata
     id="metadata26">
    <rdf:RDF>
      <cc:Work
         rdf:about="">
        <dc:format>image/svg+xml</dc:format>
        <dc:type
           rdf:resource="http://purl.org/dc/dcmitype/StillImage" />
        <dc:title />
      </cc:Work>
    </rdf:RDF>
  </metadata>
  <sodipodi:namedview
     pagecolor="#ffffff"
     bordercolor="#666666"
     borderopacity="1"
     objecttolerance="10"
     gridtolerance="10"
     guidetolerance="10"
     inkscape:pageopacity="0"
     inkscape:pageshadow="2"
     inkscape:window-width="2120"
     inkscape:window-height="1109"
     id="namedview24"
     showgrid="false"
     inkscape:zoom="1.28"
     inkscape:cx="-148.71739"
     inkscape:cy="264.48566"
     inkscape:window-x="0"
     inkscape:window-y="0"
     inkscape:window-maximized="0"
     inkscape:current-layer="svg2" />
  <defs
     id="defs4">
    <linearGradient
       id="linearGradient3458">
      <stop
         id="stop3528"
         stop-color="#5f411c"
         offset="0"
         style="stop-color:#7a7a7a;stop-opacity:1;" />
      <stop
         id="stop3530"
         stop-color="#454545"
         offset="1"
         style="stop-color:#585858;stop-opacity:1;" />
    </linearGradient>
    <linearGradient
       id="linearGradient3444">
      <stop
         id="stop3523"
         stop-opacity=".584"
         stop-color="#ffbd75"
         offset="0"
         style="stop-color:#bababa;stop-opacity:0.58399999;" />
      <stop
         id="stop3525"
         stop-color="#f9dbba"
         offset="1"
         style="stop-color:#d9d9d9;stop-opacity:1;" />
    </linearGradient>
    <linearGradient
       id="linearGradient2662">
      <stop
         id="stop3518"
         stop-color="#ffffff"
         offset="0"
         style="stop-color:#ffffff;stop-opacity:1;" />
      <stop
         id="stop3520"
         stop-color="#ededed"
         offset="1"
         style="stop-color:#ededed;stop-opacity:1;" />
    </linearGradient>
    <linearGradient
       inkscape:collect="always"
       xlink:href="#linearGradient3444"
       id="linearGradient3042"
       gradientUnits="userSpaceOnUse"
       gradientTransform="matrix(9.57041,-0.009379,0.009379,9.57041,-3711.0394,-2682.3635)"
       x1="356.018"
       y1="306.628"
       x2="469.722"
       y2="326.997" />
    <linearGradient
       inkscape:collect="always"
       xlink:href="#linearGradient2662"
       id="linearGradient3045"
       gradientUnits="userSpaceOnUse"
       gradientTransform="matrix(9.57041,-0.009379,0.009379,9.57041,-3711.6417,-2681.1213)"
       x1="448.656"
       y1="329.361"
       x2="368.346"
       y2="313.401" />
    <linearGradient
       inkscape:collect="always"
       xlink:href="#linearGradient3458"
       id="linearGradient3047"
       gradientUnits="userSpaceOnUse"
       gradientTransform="matrix(9.57041,-0.009379,0.009379,9.57041,-3711.6417,-2681.1213)"
       x1="391.584"
       x2="469.93" />
  </defs>
  <g
     style="font-size:204.01757812px;font-style:normal;font-variant:normal;font-weight:normal;font-stretch:normal;line-height:125%;letter-spacing:0px;word-spacing:0px;fill:#000000;fill-opacity:1;stroke:none;font-family:Arial;-inkscape-font-specification:Arial"
     id="text3003"
     transform="matrix(1.25,0,0,1.25,-64,-50.06064)">
    <path
       d="M 93.724022,272.24256 C 93.724022,275.61756 95.974026,278.09256 99.574022,278.09256 102.94902,278.09256 105.64902,275.61756 105.64902,272.24256 L 105.64902,171.66756 C 105.64902,168.29256 102.94902,165.59256 99.574022,165.59256 95.974026,165.59256 93.724022,168.29256 93.724022,171.66756 L 93.724022,272.24256 M 93.724022,132.74256 C 93.724022,136.11756 95.974026,138.59256 99.574022,138.59256 102.94902,138.59256 105.64902,136.11756 105.64902,132.74256 L 105.64902,128.46756 C 105.64902,124.86756 102.94902,122.39256 99.574022,122.39256 95.974026,122.39256 93.724022,124.86756 93.724022,128.46756 L 93.724022,132.74256"
       style="font-size:225px;font-family:Planer;-inkscape-font-specification:Planer"
       id="path3180"
       inkscape:connector-curvature="0" />
    <path
       d="M 201.12637,272.01756 C 201.12637,275.16756 203.60137,278.09256 206.97637,278.09256 210.35136,278.09256 213.05137,275.16756 213.05137,272.01756 L 213.05137,201.14256 C 213.05137,177.29258 196.62635,163.56756 177.72637,163.56756 L 137.45137,163.56756 C 131.82637,163.56756 128.00137,168.29256 128.00137,173.24256 L 128.00137,272.01756 C 128.00137,275.16756 130.47637,278.09256 133.85137,278.09256 137.22636,278.09256 139.92637,275.39256 139.92637,271.56756 L 139.92637,174.81756 177.72637,174.81756 C 190.32635,174.81756 201.12637,185.39258 201.12637,201.14256 L 201.12637,272.01756"
       style="font-size:225px;font-family:Planer;-inkscape-font-specification:Planer"
       id="path3182"
       inkscape:connector-curvature="0" />
    <path
       d="M 279.54238,163.56756 C 249.84241,163.56756 235.66738,179.31759 235.66738,209.46756 L 235.66738,230.61756 C 235.66738,263.01753 250.06741,278.09256 279.54238,278.09256 L 304.96738,278.09256 C 308.34238,278.09256 310.59238,275.61756 310.59238,272.46756 310.59238,269.31756 308.34238,266.84256 304.96738,266.84256 L 279.54238,266.84256 C 258.1674,266.84256 247.36738,254.01754 247.36738,230.84256 L 247.36738,209.46756 C 247.36738,187.41758 257.0424,174.81756 279.54238,174.81756 L 304.96738,174.81756 C 308.34238,174.81756 310.59238,172.56756 310.59238,169.19256 310.59238,166.04256 308.34238,163.56756 304.96738,163.56756 L 279.54238,163.56756"
       style="font-size:225px;font-family:Planer;-inkscape-font-specification:Planer"
       id="path3184"
       inkscape:connector-curvature="0" />
    <path
       d="M 333.22598,272.24256 C 333.22598,275.61756 335.70098,278.09256 339.07598,278.09256 342.45097,278.09256 345.15098,275.61756 345.15098,272.24256 L 345.15098,174.81756 382.95098,174.81756 C 395.55096,174.81756 406.35098,185.39258 406.35098,201.59256 L 406.35098,272.24256 C 406.35098,275.61756 408.82598,278.09256 412.20098,278.09256 415.57597,278.09256 418.27598,275.61756 418.27598,272.24256 L 418.27598,201.14256 C 418.27598,177.29258 401.85096,163.56756 382.95098,163.56756 L 345.15098,163.56756 345.15098,128.46756 C 345.15098,124.86756 342.45097,122.39256 339.07598,122.39256 335.70098,122.39256 333.22598,124.86756 333.22598,128.46756 L 333.22598,272.24256"
       style="font-size:225px;font-family:Planer;-inkscape-font-specification:Planer"
       id="path3186"
       inkscape:connector-curvature="0" />
  </g>
  <path
     style="fill:url(#linearGradient3045);stroke:url(#linearGradient3047);stroke-width:7.656;fill-rule:nonzero;stroke-miterlimit:4;stroke-dasharray:none"
     inkscape:connector-curvature="0"
     d="M 49.08091,344.09577 462.78881,343.69033 A 7.2746035,7.2746035 0 0 1 470.06994,350.95721 L 470.18655,469.95121 A 7.2746035,7.2746035 0 0 1 462.91968,477.23333 L 49.21178,477.63877 A 7.2746035,7.2746035 0 0 1 41.93005,470.3709 L 41.81344,351.3769 A 7.2746035,7.2746035 0 0 1 49.08091,344.09577"
     id="path3538" />
  <path
     id="path3542"
     d="M 52.961265,347.41197 459.95807,347.01311 A 7.2746035,7.2746035 0 0 1 467.23919,354.28098 L 467.34807,465.36998 A 7.2746035,7.2746035 0 0 1 460.08119,472.65211 L 53.084392,473.05097 A 7.2746035,7.2746035 0 0 1 45.802662,465.7831 L 45.693795,354.6941 A 7.2746035,7.2746035 0 0 1 52.961265,347.41197"
     inkscape:connector-curvature="0"
     style="fill:none;stroke:url(#linearGradient3042);stroke-width:4.78500223" />
  <path
     style="fill:none;stroke:#2f2f2f;stroke-width:19.14100075;stroke-miterlimit:4;stroke-opacity:1;stroke-dasharray:4.78525, 4.78525;stroke-dashoffset:0"
     inkscape:connector-curvature="0"
     d="M 61.909326,353.75284 446.63823,354.37024"
     id="path3546" />
  <g
     style="fill:none;stroke:#2f2f2f;stroke-width:4.78499985;stroke-miterlimit:0;stroke-opacity:1"
     transform="matrix(1,0,0,1.23672,1.064526,176.66965)"
     stroke-miterlimit="0"
     id="g3548">
    <path
       style="stroke:#2f2f2f;stroke-opacity:1"
       inkscape:connector-curvature="0"
       d="M 63.2298,136.8848 63.3346,172.5746"
       id="path3550" />
    <path
       style="stroke:#2f2f2f;stroke-opacity:1"
       inkscape:connector-curvature="0"
       d="M 139.7574,136.1196 139.8621,171.8093"
       id="path3552" />
    <path
       style="stroke:#2f2f2f;stroke-opacity:1"
       inkscape:connector-curvature="0"
       d="M 216.3396,135.8307 216.4443,171.5204"
       id="path3554" />
    <path
       style="stroke:#2f2f2f;stroke-opacity:1"
       inkscape:connector-curvature="0"
       d="M 292.8051,136.0605 292.9098,171.7503"
       id="path3556" />
    <path
       style="stroke:#2f2f2f;stroke-opacity:1"
       inkscape:connector-curvature="0"
       d="M 369.3304,135.5409 369.4351,171.2306"
       id="path3558" />
    <path
       style="stroke:#2f2f2f;stroke-opacity:1"
       inkscape:connector-curvature="0"
       d="M 445.9726,136.1342 446.0773,171.8239"
       id="path3560" />
  </g>
</svg>
