<svg xmlns="http://www.w3.org/2000/svg" viewBox="0 0 512 512" xmlns:xlink="http://www.w3.org/1999/xlink">
<defs/>
<g transform="translate(0 492)">
<g color="#000">
<g fill="none" stroke-linecap="square" stroke-width="16">
<path stroke="#f00" d="m280-68 160,0 0-160-160,0m0-160 160,0 0,96-160,0"/>
<g stroke="#000">
<path d="m280-68 0-160-128,0 0-64 128,0 0-96-224,0 0,208c0,61.8559 50.1441,112 112,112h112z"/>
<path d="m-1560-340 0,384 144,0z"/>
</g>
<path stroke="#f00" d="m-1288-340 0,384 144,0z"/>
</g>
<path fill="#fff" stroke="#00f" stroke-width="10" d="m184-132 0-32 128,0 0-32 96,48-96,48 0-32z"/>
</g>
</g>
</svg>
