<svg width="512" xmlns="http://www.w3.org/2000/svg" height="512" xmlns:xlink="http://www.w3.org/1999/xlink">
<defs>
<filter width="1.177" x="-.089" y="-.384" height="1.767" id="filter3268">
<feGaussianBlur stdDeviation="1.59836"/>
</filter>
<linearGradient xlink:href="#linearGradient2698" id="linearGradient1421" y1="55.107" x1="81.332" y2="53.511" gradientUnits="userSpaceOnUse" x2="82.92"/>
<linearGradient xlink:href="#linearGradient2690" id="linearGradient1423" y1="57.148" x1="81.096" y2="54.615" gradientUnits="userSpaceOnUse" x2="83.629"/>
<linearGradient xlink:href="#linearGradient4931" id="linearGradient4937" y1="12.847" x1="54.113" y2="-3.881" x2="50.08" gradientUnits="userSpaceOnUse"/>
<linearGradient gradientTransform="matrix(10.66666 0 0 10.66666 -38.81934 -21.07959)" xlink:href="#linearGradient19900" id="linearGradient19906" y1="41" x1="40.25" y2="38.435" x2="43.062" gradientUnits="userSpaceOnUse"/>
<linearGradient gradientTransform="matrix(10.66666 0 0 10.66666 -38.81934 -21.07959)" xlink:href="#linearGradient19914" id="linearGradient19920" y1="32.046" x1="33.985" y2="35.272" x2="37.211" gradientUnits="userSpaceOnUse"/>
<linearGradient id="linearGradient2698">
<stop offset="0" stop-color="#555753"/>
<stop offset=".702" stop-color="#a3a5a2"/>
<stop offset="1" stop-color="#888a85"/>
</linearGradient>
<linearGradient xlink:href="#linearGradient23434" id="linearGradient23440" y1="12.472" x1="55.878" y2="-4.621" x2="52.5" gradientUnits="userSpaceOnUse"/>
<linearGradient id="linearGradient19914">
<stop offset="0"/>
<stop offset="1" stop-opacity="0"/>
</linearGradient>
<linearGradient id="linearGradient2690">
<stop offset="0" stop-color="#2e3436"/>
<stop offset="1" stop-color="#555753"/>
</linearGradient>
<linearGradient id="linearGradient3244">
<stop offset="0" stop-opacity="0"/>
<stop offset=".081" stop-opacity="0"/>
<stop offset=".615" stop-opacity=".247"/>
<stop offset=".749" stop-opacity=".498"/>
<stop offset="1"/>
</linearGradient>
<linearGradient xlink:href="#linearGradient3244" id="linearGradient3250" y1="35.743" x1="3.5" y2="45.743" x2="46.779" gradientUnits="userSpaceOnUse"/>
<linearGradient id="linearGradient23434">
<stop offset="0" stop-color="#888a85"/>
<stop offset="1" stop-color="#babdb6"/>
</linearGradient>
<linearGradient id="linearGradient19900">
<stop offset="0" stop-color="#888a85"/>
<stop offset="1" stop-color="#d3d7cf"/>
</linearGradient>
<linearGradient id="linearGradient4931">
<stop offset="0" stop-color="#babdb6"/>
<stop offset="1" stop-color="#888a85"/>
</linearGradient>
<radialGradient cx="45.095" cy="-2.694" gradientTransform="matrix(0 1.14344 -1.24722 -0 41.735 -54.25682)" id="radialGradient1409" r="10.498" gradientUnits="userSpaceOnUse">
<stop offset="0" stop-color="#fff"/>
<stop offset="1" stop-color="#eeeeec"/>
</radialGradient>
<radialGradient cx="8.04" cy="9.528" gradientTransform="matrix(.94683 0 0 .94683 .46935 .49926)" id="radialGradient11108" r="9.812" gradientUnits="userSpaceOnUse">
<stop offset="0" stop-color="#fff"/>
<stop offset="1" stop-color="#fff" stop-opacity="0"/>
</radialGradient>
<radialGradient cx="16.83" cy="24.744" gradientTransform="matrix(23.8004 -6.3773 5.65603 21.10946 -356.13722 -197.05431)" id="radialGradient4960" r="16.925" gradientUnits="userSpaceOnUse">
<stop offset="0" stop-color="#fff"/>
<stop offset="1" stop-color="#fff" stop-opacity="0"/>
</radialGradient>
<radialGradient cx="59.787" cy="10.902" gradientTransform="matrix(0 -1.68661 1.66336 0 41.65431 111.7396)" id="radialGradient1411" r="10.556" gradientUnits="userSpaceOnUse">
<stop offset="0" stop-color="#fbfbfa"/>
<stop offset="1" stop-color="#d3d7cf"/>
</radialGradient>
<radialGradient cx="17.062" cy="28.851" gradientTransform="matrix(1.45955 0 0 1.34534 -7.40314 -10.82184)" id="radialGradient4925" r="13.5" gradientUnits="userSpaceOnUse">
<stop offset="0" stop-color="#429eff"/>
<stop offset="1" stop-color="#0044a7"/>
</radialGradient>
</defs>
<path opacity=".6" fill="url(#linearGradient3250)" filter="url(#filter3268)" d="m21,35.7429c-9.66,0-17.5,1.813-17.5,4.0469 0,2.2339 7.84,4.0469 17.5,4.0469 4.4964,0 8.5868-.3954 11.6875-1.0406l.8125,.9467c.0253,.0212 .0868,.0427 .1562,.0578l7.9688,1.8572c.3568,.0826 .8827,.1013 1.5312,.0723 .6486-.029 1.4116-.1241 2.2188-.3107 .8005-.1851 1.2058-.3499 1.3438-.4986 .1379-.1488 .0393-.28-.3125-.3613l-8.0312-1.8428c-.0787-.0179-.1719-.0324-.2812-.0361l-4.0938-.1879c2.7901-.717 4.5-1.6629 4.5-2.7028 0-2.2339-7.84-4.0469-17.5-4.0469z" transform="matrix(10.66666 0 0 9.59999 -12.15269 35.78813)"/>
<g color="#000">
<path opacity=".6" fill="url(#radialGradient4925)" d="m31,18.25a13.5,13.75 0 1,1 -27,0 13.5,13.75 0 1,1 27,0z" transform="matrix(12.64197 0 0 12.41212 -25.38723 -34.26751)"/>
<path opacity=".5" fill="url(#radialGradient4960)" d="m189.7757,16.2537c-90.839,3.4564-163.5079,78.3931-163.5079,170.0732 0,25.7804 14.9666,50.3657 26.5739,71.5933-5.0354-57.9006 19.9106-70.5406 36.4752-65.3981 50.256,15.6019 137.4649,29.7835 227.0626-16.997 31.4097-16.3996 49.7265,23.781 48.4715-12.3332-10.0207-83.1422-82.453-146.9382-168.51-146.9382-2.2003-0-4.3852-.083-6.5653-0z"/>
<path fill="none" stroke="url(#radialGradient1411)" stroke-linecap="round" stroke-width="1.875" d="m62.5,4.5a10,10 0 1,1 -20,0 10,10 0 1,1 20,0z" transform="matrix(17.06666 0 0 17.06666 -700.15226 115.45366)"/>
<g transform="matrix(16.46988 0 0 16.38416 -940.97943 -495.16089)">
<path fill="url(#linearGradient1421)" stroke="url(#linearGradient1423)" stroke-linejoin="round" stroke-linecap="round" stroke-width=".677" d="m76.7964,49.7685 .6476,3.2552 5.1812,5.2135c.1925,.1937 .9715,.3203 1.9429-.6562 .9715-.9766 .8956-1.7039 .6476-1.9531l-5.1812-5.2083-3.2382-.651z"/>
<path opacity=".192" fill="#fff" d="m79.5673,51.32c-.003,.0112 .2941,.3243-.2453,.865-.5394,.5407-1.0071,.374-.9935,.3603l-.2691-1.5216 1.5079,.2963z"/>
</g>
<path fill="none" stroke="url(#linearGradient19906)" stroke-linecap="round" stroke-width="10.667" d="m337.55,333.8919 6.6407,34.1463 79.9956,80.5202c3.9342,3.96 9.9611,2.3243 19.9221-7.6367 9.9611-9.961 12.5293-14.9471 7.5835-19.9221l-79.9956-80.467-34.1463-6.6407z"/>
<path opacity=".153" fill="url(#linearGradient19920)" d="m322.0543,314.831c-2.7715,.9334-4.345,3.8405-3.6028,6.6561l10.8084,53.2485c.2696,.9778 .8037,1.8632 1.5441,2.56l84.9228,85.5048c3.806,3.8097 9.5515,4.9232 16.4699,3.584 6.9183-1.3392 15.0655-5.7262 23.6755-14.3361 8.5389-8.5389 12.9398-16.1784 14.4112-23.0402 1.4713-6.8619 .1495-13.1439-3.6028-16.8962l-85.4375-84.9928c-.8399-.8244-1.9212-1.3622-3.0881-1.536l-53.0124-10.7521c-1.0088-.2894-2.0793-.2894-3.0881,0z"/>
<g fill="none" stroke-linecap="round">
<path stroke="url(#radialGradient1409)" stroke-width=".606" d="m62.5,4.5a10,10 0 1,1 -20,0 10,10 0 1,1 20,0z" transform="matrix(17.59999 0 0 17.59999 -728.15224 113.05366)"/>
<path stroke="url(#linearGradient23440)" stroke-width=".571" d="m62.5,4.5a10,10 0 1,1 -20,0 10,10 0 1,1 20,0z" transform="matrix(18.66665 0 0 18.66665 -784.15223 108.25366)"/>
<path stroke="url(#linearGradient4937)" stroke-width=".688" d="m62.5,4.5a10,10 0 1,1 -20,0 10,10 0 1,1 20,0z" transform="matrix(15.50049 0 0 15.50052 -617.92874 122.50123)"/>
</g>
<path opacity=".161" fill="url(#radialGradient11108)" d="m22.1875,12.9375a9.8125,9.8125 0 1,1 -19.625,0 9.8125,9.8125 0 1,1 19.625,0z" transform="matrix(14.13164 0 0 14.13164 20.96819 9.42557)"/>
</g>
<g stroke-linecap="round">
<path fill="#fff" stroke="#3465a4" d="m99.0938,40.5-11.9062,8.0625c-.7439,.5052-.7439,.526 0,1.0312l11.9062,8.0625c.3479,.2972 .75,.1516 .75,0v-5.0312h9.6562c0,0 .75,.0052 .75-.5v-6.0625c0-.5052-.75-.5312-.75-.5312h-9.6562v-5.0312c0-.101-.4337-.3023-.75,0z" transform="matrix(10.0456 0 0 10.0456 -800.33539 -301.33065)"/>
<path opacity=".761" fill="none" stroke="#fff" d="m98.9062,41.7812-10.7812,7.2812l10.7812,7.3125v-3.75a.9269,.9269 0 0,1 .9375-.9375h9.4688v-5.2188h-9.4688a.9269,.9269 0 0,1 -.9375-.9375v-3.75z" transform="matrix(15.70482 0 0 15.70482 -741.67408 -744.47342)"/>
</g>
</svg>
