<svg width="512" xmlns="http://www.w3.org/2000/svg" height="512">
<defs/>
<g stroke="#000" stroke-linejoin="round" stroke-linecap="round" transform="translate(0 492)">
<path fill="#f00" fill-opacity=".251" stroke-width=".161" d="M30,20 22.9289,15.9175 30,11.835 37.0711,15.9175 30,20" transform="matrix(24.89016 0 0 -24.89016 -490.70474 261.80316)"/>
<g fill="none">
<g fill-opacity=".251" stroke-width=".161">
<path d="m22.9289,24.0825 0-8.165 7.0711,4.0825 0,8.165-7.0711-4.0825" transform="matrix(24.89016 0 0 -24.89016 -490.70474 261.80316)"/>
<path d="m30,28.165 0-8.165 7.0711-4.0825 0,8.165-7.0711,4.0825" transform="matrix(24.89016 0 0 -24.89016 -490.70474 261.80316)"/>
</g>
<g stroke-width=".643">
<path d="m30,20 0-8.165 7.0711,4.0825 0,8.165-7.0711-4.0825" transform="matrix(24.89016 0 0 -24.89016 -490.70474 261.80316)"/>
<path d="M30,28.165 22.9289,24.0825 30,20 37.0711,24.0825 30,28.165" transform="matrix(24.89016 0 0 -24.89016 -490.70474 261.80316)"/>
<path d="m22.9289,24.0825 0-8.165 7.0711-4.0825 0,8.165-7.0711,4.0825" transform="matrix(24.89016 0 0 -24.89016 -490.70474 261.80316)"/>
</g>
</g>
</g>
</svg>
