<svg xmlns="http://www.w3.org/2000/svg" viewBox="0 0 512 512"><g transform="translate(0 492)" style="stroke:#fff;stroke-linecap:round;stroke-linejoin:round"><path d="m256-439.23v459.23c226-256 402-154.39 402-154.39v158.47c394.93-361.7 218.93-463.31 218.93-463.31" style="fill:#f00;fill-opacity:.251;stroke-width:4.01"/><g style="fill:none"><path d="m256-236c0 0-176 101.61-176 101.61 0 0 176 101.61 176 101.61 0 0 176-101.61 176-101.61 0 0-176-101.61-176-101.61" style="stroke-width:4.01"/><path d="m256-236v247.84c226-44.607 402-146.22 402-146.22v158.47c394.93-361.7 218.93-260.08 218.93-260.08" style="stroke-width:16"/><path d="m79.999-337.61v353.53c57.07-150.3 233.07-251.92 233.07-251.92v264.17c226-467.39 49.999-365.78 49.999-365.78" style="stroke-width:4.01"/><g transform="matrix(24.89016 0 0-24.89016-490.7 261.8)" style="stroke-width:.643"><path d="m30 28.16l-7.07-4.082 7.07-4.082 7.07 4.082-7.07 4.082"/><path d="m22.929 24.08v-8.165l7.07-4.082v8.165l-7.07 4.082"/></g></g></g></svg>
