<svg xmlns="http://www.w3.org/2000/svg" viewBox="0 0 512 512"><g transform="translate(0 492)" style="stroke:#fff;stroke-linecap:round;stroke-linejoin:round"><g transform="matrix(24.89016 0 0-24.89016-490.7 261.8)" style="fill:none"><g style="fill-opacity:.251;stroke-width:.161"><path d="m30 20l-7.07-4.082 7.07-4.082 7.07 4.082-7.07 4.082"/><path d="m22.929 24.08v-8.165l7.07 4.082v8.165l-7.07-4.082"/><path d="m30 28.16v-8.165l7.07-4.082v8.165l-7.07 4.082"/></g><g style="stroke-width:.643"><path d="m30 20v-8.165l7.07 4.082v8.165l-7.07-4.082"/><path d="m30 28.16l-7.07-4.082 7.07-4.082 7.07 4.082-7.07 4.082" style="fill-opacity:.753"/></g></g><path d="m79.999-337.61v353.53c57.07-150.3 233.07-48.689 233.07-48.689v52.772c226-256 49.999-357.61 49.999-357.61" style="fill:#f00;fill-opacity:.753;stroke-width:16"/></g></svg>
