<svg xmlns="http://www.w3.org/2000/svg" viewBox="0 0 512 512"><g transform="translate(0 464)" style="color:#000;stroke-width:8"><path d="m326.24-356.98l-16.5 31.945c-3.442-.98-6.931-1.831-10.453-2.531-9.7-1.929-19.55-2.754-29.367-2.508-16.362.41-32.631 3.817-47.859 10.125-24.2 10.03-45.04 27.08-59.672 48.797l-.305.422c-14.651 21.928-22.5 47.878-22.5 74.25 0 26.372 7.849 52.32 22.5 74.25 14.651 21.928 35.612 39.13 59.977 49.22 24.365 10.09 51.36 12.762 77.23 7.617 25.866-5.145 49.789-17.938 68.44-36.586l16.969-16.969-33.938-33.938-16.992 16.969c-11.798 11.798-27.487 20.18-43.852 23.438-16.364 3.255-34.06 1.51-49.48-4.875-15.414-6.385-29.17-17.674-38.438-31.547-9.269-13.873-14.414-30.893-14.414-47.578 0-16.685 5.145-33.705 14.414-47.578 9.269-13.873 23.02-25.16 38.438-31.547 14.508-6.01 31.03-7.926 46.57-5.414l-16.5 32.02 38.836.492 49.01.633 48 .609-28.313-38.766-28.898-39.586-22.898-31.359z" style="fill:#fff;stroke:#fff"/><path d="m318.24-364.98l-16.5 31.945c-3.442-.98-6.931-1.831-10.453-2.531-9.7-1.929-19.55-2.754-29.367-2.508-16.362.41-32.631 3.817-47.859 10.125-24.2 10.03-45.04 27.08-59.672 48.797l-.305.422c-14.651 21.928-22.5 47.878-22.5 74.25 0 26.372 7.849 52.32 22.5 74.25 14.651 21.928 35.612 39.13 59.977 49.22 24.365 10.09 51.36 12.762 77.23 7.617 25.866-5.145 49.789-17.938 68.44-36.586l16.969-16.969-33.938-33.938-16.992 16.969c-11.798 11.798-27.487 20.18-43.852 23.438-16.364 3.255-34.06 1.51-49.48-4.875-15.414-6.385-29.17-17.674-38.438-31.547-9.269-13.873-14.414-30.893-14.414-47.578 0-16.685 5.145-33.705 14.414-47.578 9.269-13.873 23.02-25.16 38.438-31.547 14.508-6.01 31.03-7.926 46.57-5.414l-16.5 32.02 38.836.492 49.01.633 48 .609-28.313-38.766-28.898-39.586-22.898-31.359z" style="fill:#87aade;stroke:#000"/></g></svg>