<?xml version="1.0" encoding="UTF-8" standalone="no"?>
<!-- Created with Inkscape (http://www.inkscape.org/) -->

<svg
   xmlns:dc="http://purl.org/dc/elements/1.1/"
   xmlns:cc="http://creativecommons.org/ns#"
   xmlns:rdf="http://www.w3.org/1999/02/22-rdf-syntax-ns#"
   xmlns:svg="http://www.w3.org/2000/svg"
   xmlns="http://www.w3.org/2000/svg"
   xmlns:sodipodi="http://sodipodi.sourceforge.net/DTD/sodipodi-0.dtd"
   xmlns:inkscape="http://www.inkscape.org/namespaces/inkscape"
   width="512"
   height="512"
   id="svg2"
   sodipodi:version="0.32"
   inkscape:version="0.48.2 r9819"
   version="1.0"
   sodipodi:docname="RotateCCW.svg"
   inkscape:output_extension="org.inkscape.output.svg.inkscape">
  <defs
     id="defs4">
    <marker
       inkscape:stockid="Arrow1Mend"
       orient="auto"
       refY="0"
       refX="0"
       id="Arrow1Mend"
       style="overflow:visible">
      <path
         id="path3720"
         d="M 0,0 5,-5 -12.5,0 5,5 0,0 z"
         style="fill-rule:evenodd;stroke:#000000;stroke-width:1pt;marker-start:none"
         transform="matrix(-0.4,0,0,-0.4,-4,0)" />
    </marker>
    <marker
       inkscape:stockid="TriangleOutL"
       orient="auto"
       refY="0"
       refX="0"
       id="TriangleOutL"
       style="overflow:visible">
      <path
         id="path3854"
         d="m 5.77,0 -8.65,5 0,-10 8.65,5 z"
         style="fill-rule:evenodd;stroke:#000000;stroke-width:1pt;marker-start:none"
         transform="scale(0.8,0.8)" />
    </marker>
    <marker
       inkscape:stockid="Arrow2Send"
       orient="auto"
       refY="0"
       refX="0"
       id="Arrow2Send"
       style="overflow:visible">
      <path
         id="path3295"
         style="font-size:12px;fill-rule:evenodd;stroke-width:0.625;stroke-linejoin:round"
         d="M 8.7185878,4.0337352 -2.2072895,0.01601326 8.7185884,-4.0017078 c -1.7454984,2.3720609 -1.7354408,5.6174519 -6e-7,8.035443 z"
         transform="matrix(-0.3,0,0,-0.3,0.69,0)" />
    </marker>
    <marker
       inkscape:stockid="Arrow1Lend"
       orient="auto"
       refY="0"
       refX="0"
       id="Arrow1Lend"
       style="overflow:visible">
      <path
         id="path3265"
         d="M 0,0 5,-5 -12.5,0 5,5 0,0 z"
         style="fill-rule:evenodd;stroke:#000000;stroke-width:1pt;marker-start:none"
         transform="matrix(-0.8,0,0,-0.8,-10,0)" />
    </marker>
    <marker
       inkscape:stockid="Arrow1Lstart"
       orient="auto"
       refY="0"
       refX="0"
       id="Arrow1Lstart"
       style="overflow:visible">
      <path
         id="path3262"
         d="M 0,0 5,-5 -12.5,0 5,5 0,0 z"
         style="fill-rule:evenodd;stroke:#000000;stroke-width:1pt;marker-start:none"
         transform="matrix(0.8,0,0,0.8,10,0)" />
    </marker>
    <inkscape:perspective
       sodipodi:type="inkscape:persp3d"
       inkscape:vp_x="0 : 526.18109 : 1"
       inkscape:vp_y="0 : 1000 : 0"
       inkscape:vp_z="744.09448 : 526.18109 : 1"
       inkscape:persp3d-origin="372.04724 : 350.78739 : 1"
       id="perspective10" />
    <inkscape:perspective
       id="perspective2477"
       inkscape:persp3d-origin="372.04724 : 350.78739 : 1"
       inkscape:vp_z="744.09448 : 526.18109 : 1"
       inkscape:vp_y="0 : 1000 : 0"
       inkscape:vp_x="0 : 526.18109 : 1"
       sodipodi:type="inkscape:persp3d" />
    <inkscape:perspective
       id="perspective3704"
       inkscape:persp3d-origin="85.039368 : 37.795275 : 1"
       inkscape:vp_z="170.07874 : 56.692913 : 1"
       inkscape:vp_y="0 : 1000 : 0"
       inkscape:vp_x="0 : 56.692913 : 1"
       sodipodi:type="inkscape:persp3d" />
    <inkscape:perspective
       id="perspective3701"
       inkscape:persp3d-origin="44.29134 : 29.52756 : 1"
       inkscape:vp_z="88.58268 : 44.29134 : 1"
       inkscape:vp_y="0 : 1000 : 0"
       inkscape:vp_x="0 : 44.29134 : 1"
       sodipodi:type="inkscape:persp3d" />
    <inkscape:perspective
       id="perspective3802"
       inkscape:persp3d-origin="44.29134 : 30.708661 : 1"
       inkscape:vp_z="88.58268 : 46.062992 : 1"
       inkscape:vp_y="0 : 1000 : 0"
       inkscape:vp_x="0 : 46.062992 : 1"
       sodipodi:type="inkscape:persp3d" />
    <inkscape:perspective
       id="perspective2921"
       inkscape:persp3d-origin="44.29134 : 30.708661 : 1"
       inkscape:vp_z="88.58268 : 46.062992 : 1"
       inkscape:vp_y="0 : 1000 : 0"
       inkscape:vp_x="0 : 46.062992 : 1"
       sodipodi:type="inkscape:persp3d" />
  </defs>
  <sodipodi:namedview
     id="base"
     pagecolor="#ffffff"
     bordercolor="#666666"
     borderopacity="1.0"
     gridtolerance="10000"
     guidetolerance="10"
     objecttolerance="10"
     inkscape:pageopacity="0.0"
     inkscape:pageshadow="2"
     inkscape:zoom="1.5878906"
     inkscape:cx="236.79213"
     inkscape:cy="245.29397"
     inkscape:document-units="px"
     inkscape:current-layer="layer1"
     showgrid="true"
     inkscape:snap-global="true"
     inkscape:window-width="1299"
     inkscape:window-height="1093"
     inkscape:window-x="626"
     inkscape:window-y="133"
     inkscape:window-maximized="0">
    <inkscape:grid
       type="xygrid"
       id="grid2485"
       visible="true"
       enabled="true"
       dotted="false"
       empspacing="10"
       originx="-8px"
       originy="-8px"
       spacingx="16px"
       spacingy="16px"
       snapvisiblegridlinesonly="true" />
  </sodipodi:namedview>
  <metadata
     id="metadata7">
    <rdf:RDF>
      <cc:Work
         rdf:about="">
        <dc:format>image/svg+xml</dc:format>
        <dc:type
           rdf:resource="http://purl.org/dc/dcmitype/StillImage" />
        <dc:title />
      </cc:Work>
    </rdf:RDF>
  </metadata>
  <g
     inkscape:label="Layer 1"
     inkscape:groupmode="layer"
     id="layer1"
     transform="translate(0,464)">
    <path
       inkscape:connector-curvature="0"
       id="path3821"
       d="m 211.69531,-356.97656 16.5,31.94532 c 3.44158,-0.97963 6.9311,-1.83068 10.45313,-2.53125 9.69975,-1.92941 19.54983,-2.75357 29.36718,-2.50782 16.36225,0.40959 32.63135,3.8171 47.85938,10.125 24.20425,10.02612 45.03515,27.07511 59.67187,48.79688 l 0.30469,0.42187 c 14.65076,21.92825 22.5,47.87785 22.5,74.25 0,26.37216 -7.84924,52.32176 -22.5,74.25 -14.65079,21.92831 -35.61171,39.126109 -59.97656,49.218754 -24.36485,10.092645 -51.36056,12.762263 -77.22656,7.617188 -25.866,-5.145075 -49.78911,-17.93754 -68.4375,-36.585942 l -16.96875,-16.96875 33.9375,-33.9375 16.99218,16.96875 c 11.79798,11.79798 27.48737,20.18246 43.85157,23.4375 16.3642,3.25505 34.06263,1.50991 49.47656,-4.875 15.41392,-6.3849 29.16876,-17.67405 38.4375,-31.54687 9.26878,-13.87288 14.41406,-30.89279 14.41406,-47.57813 0,-16.68534 -5.14528,-33.70524 -14.41406,-47.57812 -9.26874,-13.87282 -23.02358,-25.16197 -38.4375,-31.54688 -14.50836,-6.00979 -31.03171,-7.92603 -46.57031,-5.41406 l 16.5,32.01563 -38.83594,0.49218 -49.00781,0.63282 -48,0.60937 28.3125,-38.76562 28.89843,-39.58594 22.89844,-31.35938 z"
       style="font-size:medium;font-style:normal;font-variant:normal;font-weight:normal;font-stretch:normal;text-indent:0;text-align:start;text-decoration:none;line-height:normal;letter-spacing:normal;word-spacing:normal;text-transform:none;direction:ltr;block-progression:tb;writing-mode:lr-tb;text-anchor:start;baseline-shift:baseline;color:#000000;fill:#ffffff;fill-opacity:1;stroke:#ffffff;stroke-width:8;stroke-miterlimit:4;stroke-dasharray:none;marker:none;visibility:visible;display:inline;overflow:visible;enable-background:accumulate;font-family:Sans;-inkscape-font-specification:Sans" />
    <path
       style="font-size:medium;font-style:normal;font-variant:normal;font-weight:normal;font-stretch:normal;text-indent:0;text-align:start;text-decoration:none;line-height:normal;letter-spacing:normal;word-spacing:normal;text-transform:none;direction:ltr;block-progression:tb;writing-mode:lr-tb;text-anchor:start;baseline-shift:baseline;color:#000000;fill:#87aade;fill-opacity:1;stroke:#000000;stroke-width:8;stroke-miterlimit:4;stroke-dasharray:none;marker:none;visibility:visible;display:inline;overflow:visible;enable-background:accumulate;font-family:Sans;-inkscape-font-specification:Sans"
       d="m 203.69531,-364.97656 16.5,31.94532 c 3.44158,-0.97963 6.9311,-1.83068 10.45313,-2.53125 9.69975,-1.92941 19.54983,-2.75357 29.36718,-2.50782 16.36225,0.40959 32.63135,3.8171 47.85938,10.125 24.20425,10.02612 45.03515,27.07511 59.67187,48.79688 l 0.30469,0.42187 c 14.65076,21.92825 22.5,47.87785 22.5,74.25 0,26.37216 -7.84924,52.32176 -22.5,74.25 -14.65079,21.92831 -35.61171,39.126109 -59.97656,49.218754 -24.36485,10.092645 -51.36056,12.762263 -77.22656,7.617188 -25.866,-5.145075 -49.78911,-17.93754 -68.4375,-36.585942 l -16.96875,-16.96875 33.9375,-33.9375 16.99218,16.96875 c 11.79798,11.79798 27.48737,20.18246 43.85157,23.4375 16.3642,3.25505 34.06263,1.50991 49.47656,-4.875 15.41392,-6.3849 29.16876,-17.67405 38.4375,-31.54687 9.26878,-13.87288 14.41406,-30.89279 14.41406,-47.57813 0,-16.68534 -5.14528,-33.70524 -14.41406,-47.57812 -9.26874,-13.87282 -23.02358,-25.16197 -38.4375,-31.54688 -14.50836,-6.00979 -31.03171,-7.92603 -46.57031,-5.41406 l 16.5,32.01563 -38.83594,0.49218 -49.00781,0.63282 -48,0.60937 28.3125,-38.76562 28.89843,-39.58594 22.89844,-31.35938 z"
       id="path2899"
       inkscape:connector-curvature="0" />
  </g>
</svg>
