<svg width="512" xmlns="http://www.w3.org/2000/svg" height="512">
<defs/>
<g line-height="normal" stroke-width="8" color="#000" transform="translate(0 464)">
<path fill="#fff" stroke="#fff" d="m211.6953-356.9766 16.5,31.9453c3.4416-.9796 6.9311-1.8307 10.4531-2.5312 9.6997-1.9294 19.5498-2.7536 29.3672-2.5078 16.3623,.4096 32.6313,3.8171 47.8594,10.125 24.2043,10.0261 45.0351,27.0751 59.6719,48.7969l.3047,.4219c14.6508,21.9282 22.5,47.8778 22.5,74.25 0,26.3722-7.8492,52.3218-22.5,74.25-14.6508,21.9283-35.6117,39.1261-59.9766,49.2188-24.3648,10.0926-51.3606,12.7623-77.2266,7.6172-25.866-5.1451-49.7891-17.9375-68.4375-36.5859l-16.9688-16.9688 33.9375-33.9375 16.9922,16.9688c11.798,11.798 27.4874,20.1825 43.8516,23.4375 16.3642,3.255 34.0626,1.5099 49.4766-4.875 15.4139-6.3849 29.1688-17.674 38.4375-31.5469 9.2688-13.8729 14.4141-30.8928 14.4141-47.5781 0-16.6853-5.1453-33.7052-14.4141-47.5781-9.2687-13.8728-23.0236-25.162-38.4375-31.5469-14.5084-6.0098-31.0317-7.926-46.5703-5.4141l16.5,32.0156-38.8359,.4922-49.0078,.6328-48,.6094 28.3125-38.7656 28.8984-39.5859 22.8984-31.3594z"/>
<path fill="#87aade" stroke="#fff" d="m203.6953-364.9766 16.5,31.9453c3.4416-.9796 6.9311-1.8307 10.4531-2.5312 9.6997-1.9294 19.5498-2.7536 29.3672-2.5078 16.3623,.4096 32.6313,3.8171 47.8594,10.125 24.2043,10.0261 45.0351,27.0751 59.6719,48.7969l.3047,.4219c14.6508,21.9282 22.5,47.8778 22.5,74.25 0,26.3722-7.8492,52.3218-22.5,74.25-14.6508,21.9283-35.6117,39.1261-59.9766,49.2188-24.3648,10.0926-51.3606,12.7623-77.2266,7.6172-25.866-5.1451-49.7891-17.9375-68.4375-36.5859l-16.9688-16.9688 33.9375-33.9375 16.9922,16.9688c11.798,11.798 27.4874,20.1825 43.8516,23.4375 16.3642,3.255 34.0626,1.5099 49.4766-4.875 15.4139-6.3849 29.1688-17.674 38.4375-31.5469 9.2688-13.8729 14.4141-30.8928 14.4141-47.5781 0-16.6853-5.1453-33.7052-14.4141-47.5781-9.2687-13.8728-23.0236-25.162-38.4375-31.5469-14.5084-6.0098-31.0317-7.926-46.5703-5.4141l16.5,32.0156-38.8359,.4922-49.0078,.6328-48,.6094 28.3125-38.7656 28.8984-39.5859 22.8984-31.3594z"/>
</g>
</svg>
