<svg xmlns="http://www.w3.org/2000/svg" viewBox="0 0 512 512">
<defs/>
<g transform="translate(0 464)">
<path d="m306.6418-147.6582-132.2733,0-23.1793,53.9171c-5.7109,13.2694-8.5663,23.1794-8.5663,29.73-.0001,5.207 2.4354,9.826 7.3065,13.8572 5.0389,3.8632 15.7887,6.3827 32.2495,7.5585v9.3221h-107.5823v-9.3221c14.2771-2.5195 23.5152-5.7948 27.7144-9.826 8.5662-8.0623 18.0563-24.439 28.4703-49.1301l120.1798-281.1753h8.8182l118.92,284.1987c9.5738,22.8434 18.224,37.7084 25.9508,44.595 7.8941,6.7187 18.8118,10.4979 32.7534,11.3377v9.3221h-134.7928v-9.3221c13.605-.6719 22.7592-2.9394 27.4625-6.8026 4.8707-3.8632 7.3063-8.5662 7.3065-14.1092-.0003-7.3905-3.3596-19.0641-10.078-35.0209l-20.6598-49.1301m-7.0546-18.6442-57.9483-138.0682-59.46,138.0682 117.4083,0"/>
</g>
</svg>
