<svg xmlns="http://www.w3.org/2000/svg" viewBox="0 0 512 512"><path d="m306.64-147.66h-132.27l-23.18 53.917c-5.711 13.269-8.566 23.18-8.566 29.73 0 5.207 2.435 9.826 7.307 13.857 5.04 3.863 15.789 6.383 32.25 7.559v9.322h-107.58v-9.322c14.277-2.52 23.515-5.795 27.714-9.826 8.566-8.06 18.06-24.439 28.47-49.13l120.18-281.18h8.818l118.92 284.2c9.574 22.843 18.224 37.708 25.951 44.595 7.894 6.719 18.812 10.498 32.753 11.338v9.322h-134.79v-9.322c13.605-.672 22.759-2.939 27.462-6.803 4.871-3.863 7.306-8.566 7.307-14.11 0-7.391-3.36-19.06-10.08-35.02l-20.66-49.13m-7.05-18.644l-57.948-138.07-59.46 138.07h117.41" transform="translate(0 464)" style="fill:#fff"/></svg>
