<?xml version="1.0" encoding="UTF-8" standalone="no"?>
<svg
   xmlns:dc="http://purl.org/dc/elements/1.1/"
   xmlns:cc="http://creativecommons.org/ns#"
   xmlns:rdf="http://www.w3.org/1999/02/22-rdf-syntax-ns#"
   xmlns:svg="http://www.w3.org/2000/svg"
   xmlns="http://www.w3.org/2000/svg"
   xmlns:sodipodi="http://sodipodi.sourceforge.net/DTD/sodipodi-0.dtd"
   xmlns:inkscape="http://www.inkscape.org/namespaces/inkscape"
   width="1536"
   height="1024"
   id="svg4616"
   version="1.1"
   inkscape:version="0.48.2 r9819"
   sodipodi:docname="TranslateRotateDialog.svg">
  <metadata
     id="metadata4644">
    <rdf:RDF>
      <cc:Work
         rdf:about="">
        <dc:format>image/svg+xml</dc:format>
        <dc:type
           rdf:resource="http://purl.org/dc/dcmitype/StillImage" />
      </cc:Work>
    </rdf:RDF>
  </metadata>
  <sodipodi:namedview
     pagecolor="#ffffff"
     bordercolor="#666666"
     borderopacity="1"
     objecttolerance="10"
     gridtolerance="10"
     guidetolerance="10"
     inkscape:pageopacity="0"
     inkscape:pageshadow="2"
     inkscape:window-width="640"
     inkscape:window-height="480"
     id="namedview4642"
     showgrid="false"
     inkscape:zoom="0.21875"
     inkscape:cx="768"
     inkscape:cy="512"
     inkscape:window-x="0"
     inkscape:window-y="0"
     inkscape:window-maximized="0"
     inkscape:current-layer="svg4616" />
  <defs
     id="defs4618" />
  <g
     color="#000"
     id="g4620">
    <path
       fill="#fff"
       stroke="#00f"
       stroke-width="8"
       d="m712,618.3865-188.818,0"
       id="path4622" />
    <path
       fill="#e6e6e6"
       stroke="#000"
       fill-opacity=".471"
       stroke-linecap="square"
       stroke-width="7.605"
       d="m392.934-264h189.737a1.3285,1.3285 0 0,1 1.329,1.329v189.7374a1.3285,1.3285 0 0,1 -1.329,1.3285h-189.737a1.3285,1.3285 0 0,1 -1.329-1.3285v-189.7374a1.3285,1.3285 0 0,1 1.329-1.329"
       transform="rotate(90)"
       id="path4624" />
  </g>
  <g
     style="font-size:140px;text-align:start;line-height:125%;letter-spacing:0;word-spacing:0;font-family:Sans"
     id="text4626">
    <path
       d="M 644.64453,734.40527 C 639.76166,738.55567 635.04975,741.48535 630.50879,743.19434 626.01656,744.90332 621.18258,745.75781 616.00684,745.75781 607.46189,745.75781 600.89451,743.68262 596.30469,739.53223 591.71484,735.33302 589.41992,729.98634 589.41992,723.49219 589.41992,719.68362 590.27441,716.21682 591.9834,713.0918 593.7412,709.918 596.01171,707.37894 598.79492,705.47461 601.62694,703.57035 604.80076,702.12992 608.31641,701.15332 610.90427,700.46977 614.81052,699.81059 620.03516,699.17578 630.67964,697.9063 638.51655,696.39263 643.5459,694.63477 643.59467,692.82818 643.61908,691.68072 643.61914,691.19238 643.61908,685.82135 642.37397,682.03717 639.88379,679.83984 636.5146,676.8614 631.50972,675.37214 624.86914,675.37207 618.66793,675.37214 614.07809,676.47077 611.09961,678.66797 608.1699,680.81647 605.99705,684.64947 604.58105,690.16699 L 591.69043,688.40918 C 592.8623,682.89166 594.791,678.44831 597.47656,675.0791 600.16209,671.66121 604.04393,669.0489 609.12207,667.24219 614.20017,665.3868 620.08395,664.45906 626.77344,664.45898 633.41401,664.45906 638.80952,665.24031 642.95996,666.80273 647.11029,668.36531 650.16204,670.34285 652.11523,672.73535 654.06829,675.07917 655.43548,678.05768 656.2168,681.6709 656.65618,683.91705 656.8759,687.96978 656.87598,693.8291 L 656.87598,711.40723 C 656.8759,723.66311 657.14446,731.42677 657.68164,734.69824 658.2675,737.9209 659.39055,741.02149 661.05078,744 L 647.28125,744 C 645.914,741.26563 645.0351,738.06739 644.64453,734.40527 M 643.5459,704.96191 C 638.76069,706.91508 631.58296,708.57523 622.0127,709.94238 616.59274,710.72367 612.75974,711.60257 610.51367,712.5791 608.26755,713.55569 606.53416,714.99612 605.31348,716.90039 604.09275,718.75588 603.4824,720.83108 603.48242,723.12598 603.4824,726.64162 604.80076,729.5713 607.4375,731.91504 610.12302,734.2588 614.02927,735.43067 619.15625,735.43066 624.23433,735.43067 628.75093,734.33204 632.70605,732.13477 636.66108,729.88869 639.56635,726.83693 641.42187,722.97949 642.83783,720.001 643.54584,715.60647 643.5459,709.7959 L 643.5459,704.96191"
       style="font-size:150px;font-family:Arial"
       id="path4970" />
  </g>
  <g
     color="#000"
     id="g4630">
    <g
       fill="#e6e6e6"
       stroke="#000"
       fill-opacity=".471"
       stroke-linecap="square"
       stroke-width="7.605"
       id="g4632">
      <path
         d="m968.896-146.641h189.734a1.3285,1.3285 0 0,1 1.33,1.329v189.7377a1.3285,1.3285 0 0,1 -1.33,1.3286h-189.734a1.3285,1.3285 0 0,1 -1.328-1.3286v-189.7377a1.3285,1.3285 0 0,1 1.328-1.329"
         transform="rotate(30)"
         id="path4634" />
      <path
         d="m393.329-1432h189.737a1.3285,1.3285 0 0,1 1.329,1.33v189.74a1.3285,1.3285 0 0,1 -1.329,1.32h-189.737a1.3285,1.3285 0 0,1 -1.329-1.32v-189.74a1.3285,1.3285 0 0,1 1.329-1.33"
         transform="rotate(90)"
         id="path4636" />
    </g>
    <path
       fill="none"
       stroke="#00f"
       stroke-width="8"
       d="m648,549.375c11.375,25 14.5,37.375 16,66.625"
       id="path4638" />
    <path
       fill="#e6e6e6"
       stroke="#000"
       fill-opacity=".471"
       stroke-linecap="square"
       stroke-width="7.605"
       d="m606.49-334.593h189.738a1.3285,1.3285 0 0,1 1.329,1.329v189.738a1.3285,1.3285 0 0,1 -1.329,1.328h-189.738a1.3285,1.3285 0 0,1 -1.328-1.328v-189.738a1.3285,1.3285 0 0,1 1.328-1.329"
       transform="rotate(60)"
       id="path4640" />
  </g>
</svg>
