<svg xmlns="http://www.w3.org/2000/svg" viewBox="0 0 1536 1024"><g color="#000"><path fill="#fff" stroke="#00f" stroke-width="8" d="m712 618.39h-188.82"/><path fill="#e6e6e6" stroke="#000" fill-opacity=".471" stroke-linecap="square" stroke-width="7.605" d="m392.93-264h189.74a1.3285 1.3285 0 0 1 1.329 1.329v189.74a1.3285 1.3285 0 0 1 -1.329 1.3285h-189.74a1.3285 1.3285 0 0 1 -1.329 -1.3285v-189.74a1.3285 1.3285 0 0 1 1.329 -1.329" transform="matrix(0 1-1 0 0 0)"/></g><path d="m644.64 734.41c-4.883 4.15-9.595 7.08-14.14 8.789-4.492 1.709-9.326 2.563-14.502 2.563-8.545 0-15.11-2.075-19.702-6.226-4.59-4.199-6.885-9.546-6.885-16.04 0-3.809.854-7.275 2.563-10.4 1.758-3.174 4.03-5.713 6.812-7.617 2.832-1.904 6.01-3.345 9.521-4.321 2.588-.684 6.494-1.343 11.719-1.978 10.644-1.269 18.481-2.783 23.511-4.541.049-1.807.073-2.954.073-3.442 0-5.371-1.245-9.155-3.735-11.353-3.369-2.978-8.374-4.468-15.01-4.468-6.201 0-10.791 1.099-13.77 3.296-2.93 2.149-5.103 5.981-6.519 11.499l-12.891-1.758c1.172-5.518 3.101-9.961 5.786-13.33 2.686-3.418 6.567-6.03 11.646-7.837 5.078-1.855 10.962-2.783 17.651-2.783 6.641 0 12.04.781 16.187 2.344 4.15 1.563 7.202 3.54 9.155 5.933 1.953 2.344 3.32 5.322 4.102 8.936.439 2.246.659 6.299.659 12.158v17.578c0 12.256.268 20.02.806 23.291.586 3.223 1.709 6.323 3.369 9.302h-13.77c-1.367-2.734-2.246-5.933-2.637-9.595m-1.099-29.443c-4.785 1.953-11.963 3.613-21.533 4.98-5.42.781-9.253 1.66-11.499 2.637-2.246.977-3.98 2.417-5.2 4.321-1.221 1.855-1.831 3.931-1.831 6.226 0 3.516 1.318 6.445 3.955 8.789 2.686 2.344 6.592 3.516 11.719 3.516 5.078 0 9.595-1.099 13.55-3.296 3.955-2.246 6.86-5.298 8.716-9.155 1.416-2.978 2.124-7.373 2.124-13.184v-4.834"/><g color="#000"><g fill="#e6e6e6" stroke="#000" fill-opacity=".471" stroke-linecap="square" stroke-width="7.605"><path d="m968.9-146.64h189.73a1.3285 1.3285 0 0 1 1.33 1.329v189.74a1.3285 1.3285 0 0 1 -1.33 1.3286h-189.73a1.3285 1.3285 0 0 1 -1.328 -1.3286v-189.74a1.3285 1.3285 0 0 1 1.328 -1.329" transform="matrix(.86603.5-.5.86603 0 0)"/><path d="m393.33-1432h189.74a1.3285 1.3285 0 0 1 1.329 1.33v189.74a1.3285 1.3285 0 0 1 -1.329 1.32h-189.74a1.3285 1.3285 0 0 1 -1.329 -1.32v-189.74a1.3285 1.3285 0 0 1 1.329 -1.33" transform="matrix(0 1-1 0 0 0)"/></g><path fill="none" stroke="#00f" stroke-width="8" d="m648 549.38c11.375 25 14.5 37.38 16 66.63"/><path fill="#e6e6e6" stroke="#000" fill-opacity=".471" stroke-linecap="square" stroke-width="7.605" d="m606.49-334.59h189.74a1.3285 1.3285 0 0 1 1.329 1.329v189.74a1.3285 1.3285 0 0 1 -1.329 1.328h-189.74a1.3285 1.3285 0 0 1 -1.328 -1.328v-189.74a1.3285 1.3285 0 0 1 1.328 -1.329" transform="matrix(.5.86603-.86603.5 0 0)"/></g></svg>