<svg width="512" xmlns="http://www.w3.org/2000/svg" height="512" xmlns:xlink="http://www.w3.org/1999/xlink">
<defs/>
<g color="#000">
<g fill="none" stroke-linecap="square" stroke-width="16">
<path stroke="#fff" d="m56,248 0,208 144,0z"/>
<path stroke="#f00" d="m264,408 208,0 0-144z"/>
</g>
<g fill="#fff" stroke="#00f" stroke-width="10">
<path d="m42.2857,163.8319 0-27.4286 109.7143,0 0-27.4286 82.2857,41.1429l-82.2857,41.1429v-27.4286z"/>
<path line-height="normal" d="m472,152-48-65.8824-48,65.8824h32c0,27.6495-19.4093,49.6176-48,49.6176-28.5907,0-51.5-22.9093-51.5-51.5 0-28.5907 22.9093-51.5 51.5-51.5v-25c-42.1017,0-76.5,34.3983-76.5,76.5 0,42.1017 34.3983,76.5 76.5,76.5 42.1017,0 80-33.4571 80-74.6176z"/>
</g>
</g>
</svg>
