<svg xmlns="http://www.w3.org/2000/svg" viewBox="16.4901 -105.5 224.01 91" style="fill:none;stroke-linecap:round;stroke-linejoin:round"><g transform="scale(1-1)"><path d="m30 90v-60" style="stroke:#fff"/><path d="m60 105v-7.2m0-4.183v-.035m0-4.183v-8.4m0-4.183v-.035m0-4.183v-8.4m0-4.182v-.035m0-4.182v-8.4m0-4.182v-.035m0-4.182v-8.4m0-4.183v-.035m0-4.183v-7.2" style="stroke:#f00;stroke-width:.35"/><path d="m90 81.962v-51.962" style="stroke:#fff"/><path d="m210 105v-7.2m0-4.183v-.035m0-4.183v-8.4m0-4.183v-.035m0-4.183v-8.4m0-4.182v-.035m0-4.182v-8.4m0-4.182v-.035m0-4.182v-8.4m0-4.183v-.035m0-4.183v-7.2" style="stroke:#f00;stroke-width:.35"/><g style="stroke:#fff"><path d="m240 81.962v-51.962"/><path d="M240 81.9615A60 60 0 0 1 180 81.9615"/><path d="m180 81.962v-51.962"/></g><g style="fill:#000;fill-rule:evenodd"><path d="m23.601 51.14v-1.18h-6.61c-.009.296.039.58.143.853.168.45.438.894.808 1.33.371.437.906.941 1.606 1.514 1.087.891 1.821 1.597 2.203 2.118.382.521.573 1.013.573 1.477 0 .487-.174.897-.522 1.231-.348.334-.802.501-1.361.501-.591 0-1.064-.177-1.419-.532-.355-.355-.534-.846-.539-1.473l-1.262.13c.086.941.412 1.659.976 2.152.564.493 1.321.74 2.271.74.96 0 1.719-.266 2.278-.798.559-.532.839-1.191.839-1.978 0-.4-.082-.794-.246-1.18-.164-.387-.435-.794-.815-1.221-.38-.427-1.01-1.014-1.893-1.76-.737-.618-1.21-1.038-1.419-1.259-.209-.221-.382-.442-.518-.665h4.904m2-1.18v1.398h1.398v-1.398h-1.398"/><path d="m40.8 90.99h-1.228v7.824c-.296-.282-.683-.564-1.163-.846-.48-.282-.911-.493-1.293-.634v1.187c.687.323 1.287.714 1.801 1.173.514.46.878.905 1.091 1.337h.791v-10.04m3.833 0v1.398h1.398v-1.398h-1.398"/></g><path d="M90 81.9615A60 60 0 0 1 18.0771 72.924" style="stroke:#fff"/></g></svg>
