<?xml version="1.0" encoding="UTF-8"?>
<!-- 2011-11-22 15:01:52 Generated by QCAD SVG Exporter -->
<svg width="224.01" height="91" viewBox="16.4901 -105.5 224.01 91" version="1.1" xmlns="http://www.w3.org/2000/svg" style="stroke-linecap:round;stroke-linejoin:round;fill:none">
    <g transform="scale(1,-1)">
        <!-- Line -->
        <path d="M30,90 L30,30 " style="stroke:#000000;stroke-width:1;"/>
        <!-- Line -->
        <path d="M60,105 L60,97.8 M60,93.6175 L60,93.5825 M60,89.4 L60,81 M60,76.8175 L60,76.7825 M60,72.6 L60,64.2 M60,60.0175 L60,59.9825 M60,55.8 L60,47.4 M60,43.2175 L60,43.1825 M60,39 L60,30.6 M60,26.4175 L60,26.3825 M60,22.2 L60,15 " style="stroke:#ff0000;stroke-width:0.35;"/>
        <!-- Line -->
        <path d="M90,81.9615 L90,30 " style="stroke:#000000;stroke-width:1;"/>
        <!-- Line -->
        <path d="M210,105 L210,97.8 M210,93.6175 L210,93.5825 M210,89.4 L210,81 M210,76.8175 L210,76.7825 M210,72.6 L210,64.2 M210,60.0175 L210,59.9825 M210,55.8 L210,47.4 M210,43.2175 L210,43.1825 M210,39 L210,30.6 M210,26.4175 L210,26.3825 M210,22.2 L210,15 " style="stroke:#ff0000;stroke-width:0.35;"/>
        <!-- Line -->
        <path d="M240,81.9615 L240,30 " style="stroke:#000000;stroke-width:1;"/>
        <!-- Arc -->
        <path d="M240,81.9615 A60,60 0 0,1 180,81.9615 " style="stroke:#000000;stroke-width:1;"/>
        <!-- Line -->
        <path d="M180,81.9615 L180,30 " style="stroke:#000000;stroke-width:1;"/>
        <!-- Text: 2. -->
        <path d="M23.601,51.1392 L23.601,49.9591 L16.9912,49.9591 C16.9821,50.2547 17.0298,50.5389 17.1344,50.8117 C17.3027,51.2619 17.5721,51.7053 17.9428,52.1419 C18.3134,52.5784 18.8489,53.0832 19.5492,53.6562 C20.636,54.5475 21.3705,55.2535 21.7524,55.7742 C22.1344,56.2949 22.3254,56.7872 22.3254,57.251 C22.3254,57.7376 22.1515,58.148 21.8036,58.4823 C21.4557,58.8165 21.0021,58.9836 20.4428,58.9836 C19.8516,58.9836 19.3786,58.8063 19.0239,58.4516 C18.6692,58.0969 18.4896,57.6057 18.4851,56.9782 L17.2231,57.1078 C17.3095,58.0491 17.6347,58.7665 18.1986,59.2599 C18.7625,59.7533 19.5196,60 20.47,60 C21.4296,60 22.189,59.734 22.7484,59.2019 C23.3077,58.6698 23.5874,58.0105 23.5874,57.2237 C23.5874,56.8236 23.5055,56.4302 23.3418,56.0437 C23.1781,55.6571 22.9064,55.2501 22.5267,54.8226 C22.1469,54.3952 21.516,53.8085 20.6338,53.0628 C19.8971,52.4443 19.4241,52.0248 19.2149,51.8042 C19.0057,51.5837 18.8329,51.362 18.6965,51.1392 L23.601,51.1392 M25.6057,49.9591 L25.6057,51.3574 L27.004,51.3574 L27.004,49.9591 L25.6057,49.9591 " style="fill:#000000;fill-rule:evenodd;"/>
        <!-- Text: 1. -->
        <path d="M40.7997,90.9855 L39.5719,90.9855 L39.5719,98.8095 C39.2763,98.5275 38.8886,98.2456 38.4089,97.9636 C37.9291,97.6817 37.4982,97.4702 37.1162,97.3292 L37.1162,98.5162 C37.8029,98.839 38.4032,99.2301 38.9171,99.6894 C39.4309,100.149 39.7947,100.594 40.0085,101.026 L40.7997,101.026 L40.7997,90.9855 M44.6325,90.9855 L44.6325,92.3838 L46.0308,92.3838 L46.0308,90.9855 L44.6325,90.9855 " style="fill:#000000;fill-rule:evenodd;"/>
        <!-- Arc -->
        <path d="M90,81.9615 A60,60 0 0,1 18.0771,72.924 " style="stroke:#000000;stroke-width:1;"/>
    </g>
</svg>
