<svg width="224.01" fill="none" xmlns="http://www.w3.org/2000/svg" height="91" viewBox="16.4901 -105.5 224.01 91" stroke-linejoin="round" stroke-linecap="round">
<g transform="scale(1 -1)">
<path stroke="#fff" d="m30,90v-60"/>
<path stroke="#f00" stroke-width=".35" d="m60,105v-7.2m0-4.1825v-.035m0-4.1825v-8.4m0-4.1825v-.035m0-4.1825v-8.4m0-4.1825v-.035m0-4.1825v-8.4m0-4.1825v-.035m0-4.1825v-8.4m0-4.1825v-.035m0-4.1825v-7.2"/>
<path stroke="#fff" d="M90,81.9615 L90,30 "/>
<path stroke="#f00" stroke-width=".35" d="m210,105v-7.2m0-4.1825v-.035m0-4.1825v-8.4m0-4.1825v-.035m0-4.1825v-8.4m0-4.1825v-.035m0-4.1825v-8.4m0-4.1825v-.035m0-4.1825v-8.4m0-4.1825v-.035m0-4.1825v-7.2"/>
<g stroke="#fff">
<path d="m240,81.9615v-51.9615"/>
<path d="M240,81.9615 A60,60 0 0,1 180,81.9615 "/>
<path d="m180,81.9615v-51.9615"/>
</g>
<g fill="#000" fill-rule="evenodd">
<path d="m23.601,51.1392v-1.1801h-6.6098c-.0091,.2956 .0386,.5798 .1432,.8526 .1683,.4502 .4377,.8936 .8084,1.3302 .3706,.4365 .9061,.9413 1.6064,1.5143 1.0868,.8913 1.8213,1.5973 2.2032,2.118 .382,.5207 .573,1.013 .573,1.4768 0,.4866-.1739,.897-.5218,1.2313-.3479,.3342-.8015,.5013-1.3608,.5013-.5912,0-1.0642-.1773-1.4189-.532-.3547-.3547-.5343-.8459-.5388-1.4734l-1.262,.1296c.0864,.9413 .4116,1.6587 .9755,2.1521 .5639,.4934 1.321,.7401 2.2714,.7401 .9596,0 1.719-.266 2.2784-.7981 .5593-.5321 .839-1.1914 .839-1.9782 0-.4001-.0819-.7935-.2456-1.18-.1637-.3866-.4354-.7936-.8151-1.2211-.3798-.4274-1.0107-1.0141-1.8929-1.7598-.7367-.6185-1.2097-1.038-1.4189-1.2586-.2092-.2205-.382-.4422-.5184-.665h4.9045m2.0047-1.1801v1.3983h1.3983v-1.3983h-1.3983"/>
<path d="m40.7997,90.9855h-1.2278v7.824c-.2956-.282-.6833-.5639-1.163-.8459-.4798-.2819-.9107-.4934-1.2927-.6344v1.187c.6867,.3228 1.287,.7139 1.8009,1.1732 .5138,.4596 .8776,.9046 1.0914,1.3366h.7912v-10.0405m3.8328,0v1.3983h1.3983v-1.3983h-1.3983"/>
</g>
<path stroke="#fff" d="M90,81.9615 A60,60 0 0,1 18.0771,72.924 "/>
</g>
</svg>
