<?xml version="1.0" encoding="UTF-8"?>
<!-- 2016-05-25 09:59:34 Generated by QCAD SVG Exporter -->
<svg width="223.0099008249035" height="90" viewBox="16.9900991750965 -105 223.0099008249035 90" version="1.1" xmlns="http://www.w3.org/2000/svg" style="stroke-linecap:round;stroke-linejoin:round;fill:none">
    <g transform="scale(1,-1)">
        <!-- Line -->
        <path d="M30,90 L30,30 " style="stroke:#000000;stroke-width:1;"/>
        <!-- Line -->
        <path d="M60,105 L60,97.79999999999998 M60,93.61749999999998 L60,93.58249999999998 M60,89.39999999999998 L60,80.99999999999997 M60,76.81749999999997 L60,76.78249999999997 M60,72.59999999999997 L60,64.19999999999996 M60,60.01749999999996 L60,59.982499999999966 M60,55.79999999999997 L60,47.39999999999997 M60,43.21749999999997 L60,43.182499999999976 M60,38.99999999999998 L60,30.59999999999998 M60,26.417499999999983 L60,26.382499999999983 M60,22.19999999999998 L60,15 " style="stroke:#ff0000;stroke-width:0.35;"/>
        <!-- Line -->
        <path d="M90,81.96152422706632 L90,30 " style="stroke:#000000;stroke-width:1;"/>
        <!-- Line -->
        <path d="M210,105 L210,97.79999999999998 M210,93.61749999999998 L210,93.58249999999998 M210,89.39999999999998 L210,80.99999999999997 M210,76.81749999999997 L210,76.78249999999997 M210,72.59999999999997 L210,64.19999999999996 M210,60.01749999999996 L210,59.982499999999966 M210,55.79999999999997 L210,47.39999999999997 M210,43.21749999999997 L210,43.182499999999976 M210,38.99999999999998 L210,30.59999999999998 M210,26.417499999999983 L210,26.382499999999983 M210,22.19999999999998 L210,15 " style="stroke:#ff0000;stroke-width:0.35;"/>
        <!-- Line -->
        <path d="M240,81.96152422706632 L240,30 " style="stroke:#000000;stroke-width:1;"/>
        <!-- Arc -->
        <path d="M240,81.96152422706632 A60,60 0 0,1 180,81.96152422706632 " style="stroke:#000000;stroke-width:1;"/>
        <!-- Line -->
        <path d="M180,81.96152422706632 L180,30 " style="stroke:#000000;stroke-width:1;"/>
        <!-- Text: 2. -->
        <g>
            <path d="M23.601013226938246,51.13915416098227 L23.601013226938246,49.95907230559346 L16.991190580280673,49.95907230559346 C16.982095537079218,50.25466120964075 17.02984451388686,50.538881309686225 17.134437510703595,50.81173260572989 C17.302695809930515,51.26193724420192 17.572136464773624,51.705320600272856 17.942759475232926,52.14188267394271 C18.313382485692227,52.57844474761256 18.848853154177903,53.08321964529332 19.54917148068995,53.656207366985 C20.636029143263848,54.54752160072761 21.37045388178136,55.25352432924057 21.752445696242475,55.774215552523884 C22.13443751070359,56.29490677580719 22.325433417934153,56.78717598908595 22.325433417934153,57.25102319236017 C22.325433417934153,57.73760800363802 22.15149071670632,58.148021828103694 21.80360531425066,58.48226466575717 C21.455719911795,58.81650750341065 21.00210463212242,58.983628922237386 20.442759475232926,58.983628922237386 C19.851581667138337,58.983628922237386 19.378639420662665,58.80627557980901 19.023932735805914,58.45156889495226 C18.66922605094916,58.09686221009551 18.48959894772042,57.60572987721692 18.485051426119693,56.97817189631652 L17.223114181917783,57.10777626193725 C17.309517092331607,58.04911323328787 17.63466488678363,58.766484765802645 18.198557565273852,59.25989085948159 C18.762450243764075,59.753296953160536 19.51961259028522,60.00000000000001 20.47004460483729,60.00000000000001 C21.429571662590817,60.00000000000001 22.189007769912326,59.733969986357444 22.74835292680182,59.20190995907231 C23.307698083691314,58.66984993178718 23.587370662136063,58.01045929968168 23.587370662136063,57.22373806275581 C23.587370662136063,56.82355616189177 23.505515273322967,56.43019554342884 23.34180449569677,56.04365620736699 C23.178093718070578,55.65711687130515 22.906379302427105,55.250113688040024 22.52666124876635,54.82264665757163 C22.146943195105596,54.39517962710324 21.51597457300464,53.808549340609375 20.633755382463484,53.06275579809005 C19.897056883145613,52.444292860391094 19.42411463666994,52.024783992723975 19.214928643036473,51.80422919508868 C19.005742649403004,51.58367439745339 18.832936828575352,51.361982719417924 18.696511180553525,51.13915416098227 Z M25.605651698970988,49.95907230559346 L25.605651698970988,51.357435197817196 L27.00401459119473,51.357435197817196 L27.00401459119473,49.95907230559346 Z" style="fill:#000000;fill-rule:evenodd;"/>
        </g>
        <!-- Text: 1. -->
        <g>
            <path d="M40.79974191890901,90.98545550185605 L39.571911086712554,90.98545550185605 L39.571911086712554,98.80946641590789 C39.27632218266526,98.52752007666278 38.88864596620323,98.24557373741767 38.40888243732647,97.96362739817256 C37.92911890844971,97.68168105892745 37.498241236780764,97.47022130449362 37.11624942231965,97.32924813487105 L37.11624942231965,98.51615127266096 C37.80292518402952,98.83902530631262 38.40319803532556,99.23011216397519 38.917067976207775,99.68941184564869 C39.43093791709,100.14871152732218 39.794739645148205,100.59436864419348 40.0084731603824,101.0263831962626 L40.79974191890901,101.0263831962626 Z M44.632484074434245,90.98545550185605 L44.632484074434245,92.38381839407978 L46.03084696665798,92.38381839407978 L46.03084696665798,90.98545550185605 Z" style="fill:#000000;fill-rule:evenodd;"/>
        </g>
        <!-- Arc -->
        <path d="M90,81.96152422706632 A60,60 0 0,1 18.077140526004627,72.92404749698747 " style="stroke:#000000;stroke-width:1;"/>
    </g>
</svg>
