<svg width="325.9842" xmlns="http://www.w3.org/2000/svg" height="155.9055" viewBox="0 0 92 44" stroke-linecap="round">
<g fill="none" stroke="#000" stroke-width=".13">
<path d="m31,37h30"/>
<path d="m61,37v-30"/>
<path d="m61,7h-30"/>
<path d="m31,7v30"/>
<path d="m50.71,16.44h-4.71"/>
<path d="m50.95,16.14h-4.95"/>
<path d="M50.95,16.14 A0.45,0.45 0 0,0 51.4,15.69 "/>
<path d="M51.4664,3.76886 A13.8,13.8 0 0,0 46,2.64002 "/>
<path d="M50.9652,4.96954 A13.8341,13.8341 0 0,0 46.0003,4.05487 "/>
<path d="m51.4,15.45h.42"/>
<path d="m51.82,15.45v1.11"/>
<path d="m51.82,16.56h-1.11"/>
<path d="m50.71,16.56v-.42"/>
<path d="m51.8308,5.6447l1.1205-2.7269"/>
<path d="m50.8596,5.2457l.9712,.3991"/>
<path d="m51.7,5.591v9.859"/>
<path d="m50.8596,5.2457l1.1205-2.7269"/>
<path d="m51.9801,2.5187l.9712,.3991"/>
<path d="m51.7293,3.1292l.9712,.3991"/>
<path d="M51.9661,2.55278 A16.3624,16.3624 0 0,0 46,1.44002 "/>
<path d="M51.757,3.06161 A13.2,13.2 0 0,0 46,1.74002 "/>
<path d="m41.29,16.44h4.71"/>
<path d="m41.05,16.14h4.95"/>
<path d="M40.6,15.69 A0.45,0.45 0 0,0 41.05,16.14 "/>
<path d="M46,2.64002 A13.8,13.8 0 0,0 40.5336,3.76886 "/>
<path d="M45.9997,4.05487 A13.8341,13.8341 0 0,0 41.0348,4.96954 "/>
<path d="m40.6,15.45h-.42"/>
<path d="m40.18,15.45v1.11"/>
<path d="m40.18,16.56h1.11"/>
<path d="m41.29,16.56v-.42"/>
<path d="m40.1692,5.6447l-1.1205-2.7269"/>
<path d="m41.1404,5.2457l-.9712,.3991"/>
<path d="m40.3,5.591v9.859"/>
<path d="m41.1404,5.2457l-1.1205-2.7269"/>
<path d="m40.0199,2.5187l-.9712,.3991"/>
<path d="m40.2707,3.1292l-.9712,.3991"/>
<path d="M46,1.44002 A16.3624,16.3624 0 0,0 40.0339,2.55278 "/>
<path d="M46,1.74002 A13.2,13.2 0 0,0 40.243,3.06161 "/>
<path d="M51.1206,5.36628 A13.5409,13.5409 0 0,0 46.0007,4.35487 "/>
<path d="m51.4,5.7827v9.9073"/>
<path d="M51.4,5.78267 A0.45,0.45 0 0,0 51.1206,5.36628 "/>
<path d="M45.9993,4.35487 A13.5409,13.5409 0 0,0 40.8794,5.36628 "/>
<path d="m40.6,5.7827v9.9073"/>
<path d="M40.8794,5.36628 A0.45,0.45 0 0,0 40.6,5.78267 "/>
<path d="m41.29,27.56h4.71"/>
<path d="m41.05,27.86h4.95"/>
<path d="M41.05,27.86 A0.45,0.45 0 0,0 40.6,28.31 "/>
<path d="M40.5336,40.2311 A13.8,13.8 0 0,0 46,41.36 "/>
<path d="M41.0348,39.0305 A13.8341,13.8341 0 0,0 45.9997,39.9451 "/>
<path d="m40.6,28.55h-.42"/>
<path d="m40.18,28.55v-1.11"/>
<path d="m40.18,27.44h1.11"/>
<path d="m41.29,27.44v.42"/>
<path d="m40.1692,38.3553l-1.1205,2.7269"/>
<path d="m41.1404,38.7544l-.9712-.3991"/>
<path d="m40.3,38.409v-9.859"/>
<path d="m41.1404,38.7544l-1.1205,2.7269"/>
<path d="m40.0199,41.4813l-.9712-.3991"/>
<path d="m40.2707,40.8708l-.9712-.3991"/>
<path d="M40.0339,41.4472 A16.3624,16.3624 0 0,0 46,42.56 "/>
<path d="M40.243,40.9384 A13.2,13.2 0 0,0 46,42.26 "/>
<path d="m50.71,27.56h-4.71"/>
<path d="m50.95,27.86h-4.95"/>
<path d="M51.4,28.31 A0.45,0.45 0 0,0 50.95,27.86 "/>
<path d="M46,41.36 A13.8,13.8 0 0,0 51.4664,40.2311 "/>
<path d="M46.0003,39.9451 A13.8341,13.8341 0 0,0 50.9652,39.0305 "/>
<path d="m51.4,28.55h.42"/>
<path d="m51.82,28.55v-1.11"/>
<path d="m51.82,27.44h-1.11"/>
<path d="m50.71,27.44v.42"/>
<path d="m51.8308,38.3553l1.1205,2.7269"/>
<path d="m50.8596,38.7544l.9712-.3991"/>
<path d="m51.7,38.409v-9.859"/>
<path d="m50.8596,38.7544l1.1205,2.7269"/>
<path d="m51.9801,41.4813l.9712-.3991"/>
<path d="m51.7293,40.8708l.9712-.3991"/>
<path d="M46,42.56 A16.3624,16.3624 0 0,0 51.9661,41.4472 "/>
<path d="M46,42.26 A13.2,13.2 0 0,0 51.757,40.9384 "/>
<path d="M40.8794,38.6337 A13.5409,13.5409 0 0,0 45.9993,39.6451 "/>
<path d="m40.6,38.2173v-9.9073"/>
<path d="M40.6,38.2173 A0.45,0.45 0 0,0 40.8794,38.6337 "/>
<path d="M46.0007,39.6451 A13.5409,13.5409 0 0,0 51.1206,38.6337 "/>
<path d="m51.4,38.2173v-9.9073"/>
<path d="M51.1206,38.6337 A0.45,0.45 0 0,0 51.4,38.2173 "/>
<path d="m48,35h-4"/>
<path d="m46,33v4"/>
<ellipse cx="46" cy="35" rx="1.02" ry="1.02"/>
</g>
</svg>
