<svg width="325.9842" xmlns="http://www.w3.org/2000/svg" height="113.3858" viewBox="0 0 92 32" stroke-linecap="round">
<g fill="none">
<g stroke="#fff" stroke-width=".13">
<path d="m31,31h30"/>
<path d="m61,31v-30"/>
<path d="m61,1h-30"/>
<path d="m31,1v30"/>
</g>
<g stroke="#808080" stroke-width=".25">
<path d="m17.71,23.44h-4.71"/>
<path d="m17.95,23.14h-4.95"/>
<path d="M17.95,23.14 A0.45,0.45 0 0,0 18.4,22.69 "/>
<path d="M18.4664,10.7689 A13.8,13.8 0 0,0 13,9.64002 "/>
<path d="M17.9652,11.9695 A13.8341,13.8341 0 0,0 13.0003,11.0549 "/>
<path d="m18.4,22.45h.42"/>
<path d="m18.82,22.45v1.11"/>
<path d="m18.82,23.56h-1.11"/>
<path d="m17.71,23.56v-.42"/>
<path d="m18.8308,12.6447l1.1205-2.7269"/>
<path d="m17.8596,12.2456l.9712,.3991"/>
<path d="m18.7,12.591v9.859"/>
<path d="m17.8596,12.2456l1.1205-2.7269"/>
<path d="m18.9801,9.5187l.9712,.3991"/>
<path d="m18.7293,10.1292l.9712,.3991"/>
<path d="M18.9661,9.55278 A16.3624,16.3624 0 0,0 13,8.44002 "/>
<path d="M18.757,10.0616 A13.2,13.2 0 0,0 13,8.74002 "/>
<path d="m8.29,23.44h4.71"/>
<path d="m8.05,23.14h4.95"/>
<path d="M7.6,22.69 A0.45,0.45 0 0,0 8.05,23.14 "/>
<path d="M13,9.64002 A13.8,13.8 0 0,0 7.53359,10.7689 "/>
<path d="M12.9997,11.0549 A13.8341,13.8341 0 0,0 8.03481,11.9695 "/>
<path d="m7.6,22.45h-.42"/>
<path d="m7.18,22.45v1.11"/>
<path d="m7.18,23.56h1.11"/>
<path d="m8.29,23.56v-.42"/>
<path d="m7.1692,12.6447l-1.1205-2.7269"/>
<path d="m8.1404,12.2456l-.9712,.3991"/>
<path d="m7.3,12.591v9.859"/>
<path d="m8.1404,12.2456l-1.1205-2.7269"/>
<path d="m7.0199,9.5187l-.9712,.3991"/>
<path d="m7.2707,10.1292l-.9712,.3991"/>
<path d="M13,8.44002 A16.3624,16.3624 0 0,0 7.03388,9.55278 "/>
<path d="M13,8.74002 A13.2,13.2 0 0,0 7.24297,10.0616 "/>
<path d="M18.1206,12.3663 A13.5409,13.5409 0 0,0 13.0007,11.3549 "/>
<path d="m18.4,12.7827v9.9073"/>
<path d="M18.4,12.7827 A0.45,0.45 0 0,0 18.1206,12.3663 "/>
<path d="M12.9993,11.3549 A13.5409,13.5409 0 0,0 7.87935,12.3663 "/>
<path d="m7.6,12.7827v9.9073"/>
<path d="M7.87935,12.3663 A0.45,0.45 0 0,0 7.6,12.7827 "/>
</g>
</g>
<g fill="#808080">
<path d="m5.5487,9.4178h1v1h-1v-1"/>
<path d="m6.5199,9.0187h1v1h-1v-1"/>
<path d="m6.743,9.5616h1v1h-1v-1"/>
<path d="m5.7995,10.0283h1v1h-1v-1"/>
<path d="m7.0336,10.2689h1v1h-1v-1"/>
<path d="m7.5348,11.4695h1v1h-1v-1"/>
<path d="m7.6404,11.7456h1v1h-1v-1"/>
<path d="m6.6692,12.1447h1v1h-1v-1"/>
<path d="m7.55,12.2827h1v1h-1v-1"/>
<path d="m12.4993,10.8549h1v1h-1v-1"/>
<path d="m12.5003,10.5549h1v1h-1v-1"/>
<path d="m12.5,9.14h1v1h-1v-1"/>
<path d="m12.5,8.24h1v1h-1v-1"/>
<path d="m12.5,7.94h1v1h-1v-1"/>
<path d="m6.68,23.06h1v1h-1v-1"/>
<path d="m6.68,21.95h1v1h-1v-1"/>
<path d="m7.79,23.06h1v1h-1v-1"/>
<path d="m7.55,22.19h1v1h-1v-1"/>
<path d="m12.5,22.64h1v1h-1v-1"/>
<path d="m12.5,22.94h1v1h-1v-1"/>
<path d="m20.4513,9.4178h-1v1h1v-1"/>
<path d="m19.4801,9.0187h-1v1h1v-1"/>
<path d="m19.257,9.5616h-1v1h1v-1"/>
<path d="m20.2005,10.0283h-1v1h1v-1"/>
<path d="m18.9664,10.2689h-1v1h1v-1"/>
<path d="m18.4652,11.4695h-1v1h1v-1"/>
<path d="m18.3596,11.7456h-1v1h1v-1"/>
<path d="m19.3308,12.1447h-1v1h1v-1"/>
<path d="m18.45,12.2827h-1v1h1v-1"/>
<path d="m19.32,23.06h-1v1h1v-1"/>
<path d="m19.32,21.95h-1v1h1v-1"/>
<path d="m18.21,23.06h-1v1h1v-1"/>
<path d="m18.45,22.19h-1v1h1v-1"/>
</g>
</svg>
