<svg width="219.69" xmlns="http://www.w3.org/2000/svg" height="113.39" viewBox="0 0 62 32" style="stroke-linecap:round"><g style="fill:none;stroke:#000;stroke-width:.13"><path d="m17.71 23.44h-4.71"/><path d="m17.95 23.14h-4.95"/><path d="M17.95 23.14A.45 .45 0 0 0 18.4 22.69"/><path d="M18.4664 10.7689A13.8 13.8 0 0 0 13 9.64002"/><path d="M17.9652 11.9695A13.8341 13.8341 0 0 0 13.0003 11.0549"/><path d="m18.4 22.45h.42"/><path d="m18.82 22.45v1.11"/><path d="m18.82 23.56h-1.11"/><path d="m17.71 23.56v-.42"/><path d="m18.831 12.645l1.12-2.727"/><path d="m17.86 12.246l.971.399"/><path d="m18.7 12.591v9.859"/><path d="m17.86 12.246l1.12-2.727"/><path d="m18.98 9.519l.971.399"/><path d="m18.729 10.129l.971.399"/><path d="M18.9661 9.55278A16.3624 16.3624 0 0 0 13 8.44002"/><path d="M18.757 10.0616A13.2 13.2 0 0 0 13 8.74002"/><path d="m8.29 23.44h4.71"/><path d="m8.05 23.14h4.95"/><path d="M7.6 22.69A.45 .45 0 0 0 8.05 23.14"/><path d="M13 9.64002A13.8 13.8 0 0 0 7.53359 10.7689"/><path d="M12.9997 11.0549A13.8341 13.8341 0 0 0 8.03481 11.9695"/><path d="m7.6 22.45h-.42"/><path d="m7.18 22.45v1.11"/><path d="m7.18 23.56h1.11"/><path d="m8.29 23.56v-.42"/><path d="m7.169 12.645l-1.12-2.727"/><path d="m8.14 12.246l-.971.399"/><path d="m7.3 12.591v9.859"/><path d="m8.14 12.246l-1.12-2.727"/><path d="m7.02 9.519l-.971.399"/><path d="m7.271 10.129l-.971.399"/><path d="M13 8.44002A16.3624 16.3624 0 0 0 7.03388 9.55278"/><path d="M13 8.74002A13.2 13.2 0 0 0 7.24297 10.0616"/><path d="M18.1206 12.3663A13.5409 13.5409 0 0 0 13.0007 11.3549"/><path d="m18.4 12.783v9.907"/><path d="M18.4 12.7827A.45 .45 0 0 0 18.1206 12.3663"/><path d="M12.9993 11.3549A13.5409 13.5409 0 0 0 7.87935 12.3663"/><path d="m7.6 12.783v9.907"/><path d="M7.87935 12.3663A.45 .45 0 0 0 7.6 12.7827"/><path d="m31 31h30"/><path d="m61 31v-30"/><path d="m61 1h-30"/><path d="m31 1v30"/></g></svg>