<svg xmlns="http://www.w3.org/2000/svg" viewBox="0 0 512 512" xmlns:xlink="http://www.w3.org/1999/xlink">
<defs>
<linearGradient gradientTransform="translate(-5.66929)" xlink:href="#linearGradient2974" id="linearGradient2556" y1="19.812" x1="46" y2="22.625" gradientUnits="userSpaceOnUse" x2="47.688"/>
<linearGradient gradientTransform="translate(-5.82554 .125)" xlink:href="#linearGradient2994" id="linearGradient2560" y1="31.047" x1="25.719" y2="30.703" gradientUnits="userSpaceOnUse" x2="25.515"/>
<linearGradient gradientTransform="translate(-5.66929)" xlink:href="#linearGradient2966" id="linearGradient2554" y1="17.376" x1="48.906" y2="22.251" gradientUnits="userSpaceOnUse" x2="50.988"/>
<linearGradient id="linearGradient2966">
<stop offset="0" stop-color="#ffd1d1"/>
<stop offset=".5" stop-color="#ff1d1d"/>
<stop offset="1" stop-color="#6f0000"/>
</linearGradient>
<linearGradient id="linearGradient2994">
<stop offset="0" stop-color="#000"/>
<stop offset="1" stop-color="#c9c9c9"/>
</linearGradient>
<linearGradient id="linearGradient2974">
<stop offset="0" stop-color="#c1c1c1"/>
<stop offset="1" stop-color="#acacac"/>
</linearGradient>
<radialGradient cx="29.053" cy="27.641" gradientTransform="matrix(2.92356 0 0 2.02972 -61.5553 -27.8842)" id="radialGradient2558" r="3.241" gradientUnits="userSpaceOnUse">
<stop offset="0" stop-color="#e7e2b8"/>
<stop offset="1" stop-color="#e7e2b8" stop-opacity="0"/>
</radialGradient>
</defs>
<g fill-rule="evenodd" transform="matrix(18.52399 -6.59054 6.86859 17.77412 -98.35695 -512.88677)">
<path fill="#cb9022" stroke="#5c410c" stroke-width=".934" d="m17.3412,32.5 5.625-5.625 20.0937-9.75c3.25-1.25 5.1875,3.375 2.3125,5l-20.0312,9.375-8,1z" transform="translate(-29.7555 19)"/>
<path fill="url(#linearGradient2554)" d="m38.3307,20c0,0 1.4375,.0938 2,1.3438 .5795,1.2878 0,2.6562 0,2.6562l5.0312-2.4688c0,0 1.452-.8814 .6562-2.8438-.7849-1.9356-2.6875-1.1562-2.6875-1.1562l-5,2.4688z" transform="translate(-29.7555 19)"/>
<path fill="url(#linearGradient2556)" d="m38.3307,20c0,0 1.4375,.0938 2,1.3438 .5795,1.2878 0,2.6562 0,2.6562l2-1c0,0 .827-1.3189 .2188-2.6875-.625-1.4062-2.2188-1.3125-2.2188-1.3125l-2,1z" transform="translate(-29.7555 19)"/>
<path fill="url(#radialGradient2558)" d="m18.7682,31.7812 4.5-4.5c1.5,.8125 2.2812,2.1562 1.875,3.7188l-6.375,.7812z" transform="translate(-29.7555 19)"/>
<path fill="url(#linearGradient2560)" d="m20.112,30.375-1.625,1.5938 2.3438-.3125c.2188-.7188-.1875-1.0625-.7188-1.2812z" transform="translate(-29.7555 19)"/>
<g fill-opacity=".364">
<path fill="#fff" d="m23.2682,27.25 1.5625,1.25 15.3873-7.3187c-.4444-.856-1.2418-1.0846-1.9034-1.1623l-15.0465,7.2309z" transform="translate(-29.7555 19)"/>
<path d="m25.1432,31.0625 .1875-.75 15.2311-7.1296c0,0-.1102,.6136-.2159,.7493l-15.2027,7.1303z" transform="translate(-29.7555 19)"/>
</g>
</g>
</svg>
