<?xml version="1.0" encoding="UTF-8" standalone="no"?>
<svg
   xmlns:dc="http://purl.org/dc/elements/1.1/"
   xmlns:cc="http://creativecommons.org/ns#"
   xmlns:rdf="http://www.w3.org/1999/02/22-rdf-syntax-ns#"
   xmlns:svg="http://www.w3.org/2000/svg"
   xmlns="http://www.w3.org/2000/svg"
   xmlns:sodipodi="http://sodipodi.sourceforge.net/DTD/sodipodi-0.dtd"
   xmlns:inkscape="http://www.inkscape.org/namespaces/inkscape"
   width="512"
   height="512"
   viewBox="-5.4848476 -81.761922 144.49947 144.49882"
   style="fill:none;stroke-linecap:round;stroke-linejoin:round"
   version="1.1"
   id="svg22"
   sodipodi:docname="LineRadicalAxis-inverse.svg"
   inkscape:version="0.92.2 5c3e80d, 2017-08-06">
  <metadata
     id="metadata28">
    <rdf:RDF>
      <cc:Work
         rdf:about="">
        <dc:format>image/svg+xml</dc:format>
        <dc:type
           rdf:resource="http://purl.org/dc/dcmitype/StillImage" />
        <dc:title />
      </cc:Work>
    </rdf:RDF>
  </metadata>
  <defs
     id="defs26" />
  <sodipodi:namedview
     pagecolor="#ffffff"
     bordercolor="#666666"
     borderopacity="1"
     objecttolerance="10"
     gridtolerance="10"
     guidetolerance="10"
     inkscape:pageopacity="0"
     inkscape:pageshadow="2"
     inkscape:window-width="1715"
     inkscape:window-height="1191"
     id="namedview24"
     showgrid="false"
     inkscape:zoom="0.8714597"
     inkscape:cx="195.9175"
     inkscape:cy="216.8775"
     inkscape:window-x="0"
     inkscape:window-y="0"
     inkscape:window-maximized="0"
     inkscape:current-layer="g18" />
  <g
     transform="matrix(1.75,0,0,-1.75,16.436162,66.696488)"
     style="stroke-width:1.41100001"
     id="g20">
    <g
       style="stroke:#ffffff"
       id="g8">
      <circle
         cx="12"
         cy="56"
         r="12.369"
         id="circle2"
         style="stroke-width:2.58034768;stroke-miterlimit:4;stroke-dasharray:none" />
      <circle
         cx="44"
         cy="29"
         r="17"
         id="circle4"
         style="stroke-width:2.58034768;stroke-miterlimit:4;stroke-dasharray:none" />
      <path
         d="m -5.485,5.333 64.49,76.43"
         id="path6"
         inkscape:connector-curvature="0" />
    </g>
    <g
       style="stroke:#ff0000"
       id="g18">
      <path
         d="M 26,56 H 20.5 M 19,56 H 17.5 M 16,56 H 8 M 6.5,56 H 5 M 3.5,56 H -2"
         id="path10"
         inkscape:connector-curvature="0"
         style="stroke-width:1.29017384;stroke-miterlimit:4;stroke-dasharray:none" />
      <path
         d="m 44,48 v -4.25 m 0,-1.5 v -1.5 m 0,-1.5 v -8 m 0,-1.5 v -1.5 m 0,-1.5 v -8 m 0,-1.5 v -1.5 m 0,-1.5 V 10"
         id="path12"
         inkscape:connector-curvature="0"
         style="stroke-width:1.29017384;stroke-miterlimit:4;stroke-dasharray:none" />
      <path
         d="m 25,29 h 4.25 m 1.5,0 h 1.5 m 1.5,0 h 8 m 1.5,0 h 1.5 m 1.5,0 h 8 m 1.5,0 h 1.5 m 1.5,0 H 63"
         id="path14"
         inkscape:connector-curvature="0"
         style="stroke-width:1.29017384;stroke-miterlimit:4;stroke-dasharray:none" />
      <path
         d="M 12,70 V 64.5 M 12,63 V 61.5 M 12,60 v -8 m 0,-1.5 V 49 m 0,-1.5 V 42"
         id="path16"
         inkscape:connector-curvature="0"
         style="stroke-width:1.29017384;stroke-miterlimit:4;stroke-dasharray:none" />
    </g>
  </g>
</svg>
