<?xml version="1.0" encoding="UTF-8" standalone="no"?>
<!-- 2014-07-14 21:40:20 Generated by QCAD SVG Exporter -->

<svg
   xmlns:dc="http://purl.org/dc/elements/1.1/"
   xmlns:cc="http://creativecommons.org/ns#"
   xmlns:rdf="http://www.w3.org/1999/02/22-rdf-syntax-ns#"
   xmlns:svg="http://www.w3.org/2000/svg"
   xmlns="http://www.w3.org/2000/svg"
   xmlns:sodipodi="http://sodipodi.sourceforge.net/DTD/sodipodi-0.dtd"
   xmlns:inkscape="http://www.inkscape.org/namespaces/inkscape"
   width="68.48484758798489mm"
   height="76.42914835078905mm"
   viewBox="-5.484847587984884 -81.76192157984404 68.48484758798489 76.42914835078905"
   version="1.1"
   style="stroke-linecap:round;stroke-linejoin:round;fill:none"
   id="svg3009"
   inkscape:version="0.48.4 r9939"
   sodipodi:docname="Untitled 1.svg">
  <metadata
     id="metadata3031">
    <rdf:RDF>
      <cc:Work
         rdf:about="">
        <dc:format>image/svg+xml</dc:format>
        <dc:type
           rdf:resource="http://purl.org/dc/dcmitype/StillImage" />
      </cc:Work>
    </rdf:RDF>
  </metadata>
  <defs
     id="defs3029" />
  <sodipodi:namedview
     pagecolor="#ffffff"
     bordercolor="#666666"
     borderopacity="1"
     objecttolerance="10"
     gridtolerance="10"
     guidetolerance="10"
     inkscape:pageopacity="0"
     inkscape:pageshadow="2"
     inkscape:window-width="1400"
     inkscape:window-height="988"
     id="namedview3027"
     showgrid="false"
     inkscape:zoom="2.8469943"
     inkscape:cx="54.0675"
     inkscape:cy="135.40596"
     inkscape:window-x="-8"
     inkscape:window-y="-8"
     inkscape:window-maximized="1"
     inkscape:current-layer="g3011" />
  <g
     transform="scale(1,-1)"
     id="g3011">
    <!-- Circle -->
    <circle
       cx="12"
       cy="56"
       r="12.36931687685298"
       style="stroke:#000000;stroke-width:1.41111123;stroke-miterlimit:4;stroke-dasharray:none"
       id="circle3013"
       d="M 24.369317,56 C 24.369317,62.831385 18.831385,68.369317 12,68.369317 5.1686148,68.369317 -0.36931705,62.831385 -0.36931705,56 -0.36931705,49.168615 5.1686148,43.630683 12,43.630683 c 6.831385,0 12.369317,5.537932 12.369317,12.369317 z" />
    <!-- Circle -->
    <circle
       cx="44"
       cy="29"
       r="17"
       style="stroke:#000000;stroke-width:1.41111123;stroke-miterlimit:4;stroke-dasharray:none"
       id="circle3015"
       d="m 61,29 c 0,9.388841 -7.611159,17 -17,17 -9.388841,0 -17,-7.611159 -17,-17 0,-9.388841 7.611159,-17 17,-17 9.388841,0 17,7.611159 17,17 z" />
    <!-- Line -->
    <path
       d="M-5.484847587984884,5.332773229054993 L59.00224633299344,81.76192157984404 "
       style="stroke:#000000;stroke-width:1.41111123;stroke-miterlimit:4;stroke-dasharray:none"
       id="path3017" />
    <!-- Line -->
    <path
       d="M26,56 L20.5,56 M19,56 L17.5,56 M16,56 L8,56 M6.5,56 L5,56 M3.5,56 L-2,56 "
       style="stroke:#ff0000;stroke-width:1.41111123;stroke-miterlimit:4;stroke-dasharray:none"
       id="path3019" />
    <!-- Line -->
    <path
       d="M44,48 L44,43.75 M44,42.25 L44,40.75 M44,39.25 L44,31.25 M44,29.75 L44,28.25 M44,26.75 L44,18.75 M44,17.25 L44,15.75 M44,14.25 L44,10 "
       style="stroke:#ff0000;stroke-width:1.41111123;stroke-miterlimit:4;stroke-dasharray:none"
       id="path3021" />
    <!-- Line -->
    <path
       d="M25,29 L29.25,29 M30.75,29 L32.25,29 M33.75,29 L41.75,29 M43.25,29 L44.75,29 M46.25,29 L54.25,29 M55.75,29 L57.25,29 M58.75,29 L63,29 "
       style="stroke:#ff0000;stroke-width:1.41111123;stroke-miterlimit:4;stroke-dasharray:none"
       id="path3023" />
    <!-- Line -->
    <path
       d="M12,70 L11.999999999999998,64.5 M11.999999999999998,63 L11.999999999999998,61.5 M11.999999999999998,60 L11.999999999999996,52 M11.999999999999996,50.5 L11.999999999999996,49 M11.999999999999996,47.5 L12,42 "
       style="stroke:#ff0000;stroke-width:1.41111123;stroke-miterlimit:4;stroke-dasharray:none"
       id="path3025" />
  </g>
</svg>
