<svg xmlns="http://www.w3.org/2000/svg" viewBox="0 0 512 512"><g transform="translate(0 464)"><path d="m132.85-374.64h246.3a43.4919 43.4919 0 0 1 43.492 43.492v246.3a43.4919 43.4919 0 0 1 -43.492 43.492h-246.3a43.4919 43.4919 0 0 1 -43.4918 -43.492v-246.3a43.4919 43.4919 0 0 1 43.4918 -43.492" style="fill:#d73727"/><path d="m148.19-349h215.63a33.1912 33.1912 0 0 1 33.191 33.191v215.63a33.1912 33.1912 0 0 1 -33.191 33.1907h-215.63a33.1912 33.1912 0 0 1 -33.191 -33.1907v-215.63a33.1912 33.1912 0 0 1 33.191 -33.191" style="fill:#e6987a"/><path d="m140.63-323.37h230.74v230.74h-230.74z" style="fill:#df8453"/><path d="m179.14-284.86l153.71 153.71m0-153.71l-153.71 153.71" style="fill:#fff;stroke:#fff;fill-rule:evenodd;stroke-width:43.544"/></g></svg>