<svg width="512" xmlns="http://www.w3.org/2000/svg" height="512">
<defs/>
<g transform="translate(0 464)">
<path fill="#d73727" d="m132.849-374.643h246.302a43.4919,43.4919 0 0,1 43.492,43.492v246.3018a43.4919,43.4919 0 0,1 -43.492,43.492h-246.302a43.4919,43.4919 0 0,1 -43.4918-43.492v-246.3018a43.4919,43.4919 0 0,1 43.4918-43.492"/>
<path fill="#e6987a" d="m148.185-349.005h215.629a33.1912,33.1912 0 0,1 33.191,33.191v215.629a33.1912,33.1912 0 0,1 -33.191,33.1907h-215.629a33.1912,33.1912 0 0,1 -33.191-33.1907v-215.629a33.1912,33.1912 0 0,1 33.191-33.191"/>
<path fill="#df8453" d="m140.632-323.368h230.736v230.7357h-230.736z"/>
<path fill="#fff" fill-rule="evenodd" stroke="#fff" stroke-width="43.544" d="m179.1445-284.8553 153.7103,153.7103m0-153.7103-153.7103,153.7103"/>
</g>
</svg>
