<svg xmlns="http://www.w3.org/2000/svg" xmlns:xlink="http://www.w3.org/1999/xlink" overflow="visible" viewBox="0 0 512 512"><defs><path id="F" d="m68.08 83.41c1.732 1.772 5.994.776 10.643-2.194 1.541-.982 3.132-2.193 4.677-3.586 1.476-1.325 2.759-2.701 3.872-4.063 3.578-4.388 5.091-8.642 3.477-10.584l.023-.024 75.82 84.12c.635 2.262-.588 6.498-3.754 10.357-1.082 1.318-2.34 2.656-3.77 3.934-1.588 1.434-3.219 2.676-4.807 3.676-4.74 3.01-9.303 4.199-11.02 2.301-.393-.439-2.098-2.336-2.145-2.406l-73.25-81.31.238-.216"/><linearGradient id="8" y1="80.51" x1="85.76" y2="67.742" x2="74.07" gradientUnits="userSpaceOnUse"><stop stop-color="#ffc957"/><stop offset="1" stop-color="#ff6d00"/></linearGradient><linearGradient id="9" y1="3.747" x1="-16.13" y2="47.21" x2="27.339" gradientUnits="userSpaceOnUse"><stop stop-color="#94caff"/><stop offset="1" stop-color="#006dff"/></linearGradient><linearGradient id="E" y1="6.562" x1="31.889" y2="25.729" x2="12.722" gradientUnits="userSpaceOnUse"><stop stop-color="#ccc"/><stop offset="1" stop-color="#f0f0f0"/></linearGradient><linearGradient id="A" y1="-.795" x1="65.09" y2="160.18" x2="137.6" gradientUnits="userSpaceOnUse"><stop stop-color="#ffa700"/><stop offset=".775" stop-color="#ffd700"/><stop offset="1" stop-color="#ff794b"/></linearGradient><linearGradient id="C" y1="33.15" y2="-1.566" x2="0" gradientUnits="userSpaceOnUse"><stop stop-color="#b4e2ff"/><stop offset="1" stop-color="#006dff"/></linearGradient><linearGradient id="D" y1="128.32" x1="127.41" y2="150.15" x2="107.4" gradientUnits="userSpaceOnUse"><stop stop-color="#f8f1dc"/><stop offset="1" stop-color="#d6a84a"/></linearGradient><linearGradient id="B" y1="82.7" x1="88.32" y2="187.83" x2="180.91" gradientUnits="userSpaceOnUse"><stop stop-color="#900"/><stop offset="1" stop-color="#7c0000"/></linearGradient><linearGradient id="7" y1="37.555" x1="148.96" y2="143.33" x2="106.75" gradientUnits="userSpaceOnUse"><stop stop-color="#ffa700"/><stop offset=".775" stop-color="#ffd700"/><stop offset="1" stop-color="#ff9200"/></linearGradient><linearGradient id="0" y1=".088" x1="11.163" y2="16.276" x2="-5.02" gradientUnits="userSpaceOnUse"><stop stop-color="#fff"/><stop offset=".551" stop-color="#e6edff"/><stop offset="1" stop-color="#fff"/></linearGradient><linearGradient id="1" x1="67.845" x2="144.59" gradientUnits="userSpaceOnUse"><stop stop-color="#7d7d99"/><stop offset=".18" stop-color="#b1b1c5"/><stop offset=".373" stop-color="#bcbcc8"/><stop offset=".682" stop-color="#c8c8cb"/><stop offset="1" stop-color="#ccc"/></linearGradient><linearGradient id="6" y1="-1.322" y2="30.928" x2="0" gradientUnits="userSpaceOnUse"><stop stop-color="#428aff"/><stop offset="1" stop-color="#c9e6ff"/></linearGradient><linearGradient id="2" y1="23.974" x1="-4.642" y2="40.827" x2="7.651" gradientUnits="userSpaceOnUse"><stop stop-color="#039"/><stop offset=".27" stop-color="#0035ed"/><stop offset="1" stop-color="#57adff"/></linearGradient><linearGradient id="4" y1="7.405" y2="4.365" x2="0" gradientUnits="userSpaceOnUse"><stop stop-color="#39f"/><stop offset="1"/></linearGradient><linearGradient id="5" y1="21.679" y2="41.12" x2="0" gradientUnits="userSpaceOnUse"><stop stop-color="#dfdfdf"/><stop offset="1" stop-color="#7d7d99"/></linearGradient><linearGradient id="3" y1="26.23" y2="36.868" x2="0" gradientUnits="userSpaceOnUse"><stop stop-color="#f0f0f0"/><stop offset=".635" stop-color="#cecedb"/><stop offset=".859" stop-color="#b1b1c5"/><stop offset="1" stop-color="#fff"/></linearGradient></defs><g transform="matrix(10.73291 0 0 10.73291 251.69 38.38)"><path d="m-14.02 1.699c-2.047 0-3.712 1.693-3.712 3.775v30.17c0 2.082 1.666 3.775 3.712 3.775h29.401c2.047 0 3.712-1.693 3.712-3.775v-30.17c0-2.082-1.665-3.775-3.712-3.775h-29.401" opacity=".2"/><path d="m-14.393 1.324c-2.047 0-3.712 1.693-3.712 3.775v30.17c0 2.082 1.666 3.775 3.712 3.775h29.401c2.047 0 3.712-1.693 3.712-3.775v-30.17c0-2.082-1.665-3.775-3.712-3.775h-29.401" opacity=".2"/><g fill="#00008d"><path d="m-14.58 1.137c-2.047 0-3.712 1.693-3.712 3.775v30.17c0 2.082 1.666 3.775 3.712 3.775h29.401c2.047 0 3.712-1.693 3.712-3.775v-30.17c0-2.082-1.665-3.775-3.712-3.775h-29.401"/><path d="m-14.58 1.512c-1.84 0-3.337 1.525-3.337 3.4v30.17c0 1.875 1.497 3.4 3.337 3.4h29.401c1.84 0 3.337-1.525 3.337-3.4v-30.17c0-1.875-1.497-3.4-3.337-3.4h-29.401"/></g><path d="m17.22 35.08c0 1.36-1.074 2.463-2.399 2.463h-29.401c-1.326 0-2.4-1.103-2.4-2.463v-30.17c0-1.36 1.074-2.462 2.4-2.462h29.401c1.325 0 2.399 1.103 2.399 2.462v30.17" fill="#fff"/><path d="m17.22 35.08c0 1.36-1.074 2.463-2.399 2.463h-29.401c-1.326 0-2.4-1.103-2.4-2.463v-30.17c0-1.36 1.074-2.462 2.4-2.462h29.401c1.325 0 2.399 1.103 2.399 2.462v30.17" fill="url(#C)"/><path d="m-14.58 3.01c-1.013 0-1.837.852-1.837 1.9v30.17c0 1.048.824 1.9 1.837 1.9h29.401c1.013 0 1.837-.853 1.837-1.9v-30.17c0-1.048-.824-1.9-1.837-1.9h-29.401" fill="#fff"/><path d="m-14.58 3.01c-1.013 0-1.837.852-1.837 1.9v30.17c0 1.048.824 1.9 1.837 1.9h29.401c1.013 0 1.837-.853 1.837-1.9v-30.17c0-1.048-.824-1.9-1.837-1.9h-29.401" fill="url(#9)"/><path d="m13.192 3.352c0 0-26.18 0-26.914 0 0 .704 0 16.59 0 17.294.721 0 26.864 0 27.583 0 0-.704 0-16.59 0-17.294-.307 0-.669 0-.669 0" fill="url(#6)"/><g transform="translate(-23.434-3.509)"><path d="m35.809 6.486h-25.588v16.919h26.567v-16.919h-.979" fill="#fff"/><path d="m35.809 6.486h-25.588v16.919h26.567v-16.919h-.979" fill="url(#E)"/></g><g stroke="#fff" stroke-width=".188"><path d="m-11.946 3.51c0 .698 0 14.542 0 15.239.716 0 23.417 0 24.13 0 0-.698 0-14.541 0-15.239-.717 0-23.417 0-24.13 0z" fill="#fff"/><path d="m-11.946 3.51c0 .698 0 14.542 0 15.239.716 0 23.417 0 24.13 0 0-.698 0-14.541 0-15.239-.717 0-23.417 0-24.13 0z" fill="url(#0)"/></g><path d="m-11.28 22.97h22.01v13.978h-22.01z" fill="url(#2)"/><path d="m-10.19 23.512c-.311 0-.563.252-.563.563v13.1c0 .312.252.563.563.563h17.249c.311 0 .563-.251.563-.563v-13.11c0-.311-.252-.563-.563-.563h-17.249v.001m5.606 3.676c0 .871 0 5.078 0 5.949-.683 0-2.075 0-2.759 0 0-.871 0-5.078 0-5.949.684 0 2.076 0 2.759 0" fill="url(#5)"/><path d="m-10.19 24.07v13.1h17.249v-13.1h-17.249m6.169 9.626h-3.884v-7.07h3.884v7.07" fill="url(#3)"/><path d="m14.396 5.522h1.784v1.785h-1.784z" fill="url(#4)"/></g><g transform="matrix(.27798 2.26903-2.26903.27798 600.64-136.53)"><path d="m191.92 195.98c-11.613-36.13-13.717-42.67-14.859-44.06.119.076.289.178.289.178l-78.55-87.46c-4.195-4.65-14 .356-21.355 6.976-7.283 6.542-13.32 15.773-9.37 20.564l78.944 87.54.533.094 37.768 17.602 7.688 2.365-1.088-3.803" opacity=".2"/><path d="m193.56 193.52c-11.611-36.12-13.713-42.67-14.855-44.06.117.072.287.178.287.178l-78.55-87.45c-4.199-4.651-14.02.355-21.361 6.975-7.281 6.545-13.32 15.773-9.368 20.566l78.945 87.54.533.1 37.77 17.598 7.682 2.367-1.088-3.804" opacity=".2"/><path d="m186.77 191.05c-11.613-36.13-13.713-42.672-14.863-44.07.121.074.295.18.295.18l-78.55-87.46c-4.192-4.65-14.01.359-21.354 6.978-7.283 6.542-13.321 15.771-9.369 20.565l78.942 87.54.535.096 37.768 17.598 7.686 2.367-1.088-3.8" opacity=".2"/><path d="m186.43 189.35c-11.613-36.12-13.713-42.666-14.863-44.06.123.072.293.18.293.18l-78.55-87.46c-4.199-4.651-14.02.357-21.359 6.977-7.283 6.543-13.322 15.774-9.37 20.566l78.941 87.54.535.098 37.771 17.598 7.686 2.363-1.088-3.804" fill="#fff"/><path d="m186.43 189.35c-11.613-36.12-13.713-42.666-14.863-44.06.123.072.293.18.293.18l-78.55-87.46c-4.199-4.651-14.02.357-21.359 6.977-7.283 6.543-13.322 15.774-9.37 20.566l78.941 87.54.535.098 37.771 17.598 7.686 2.363-1.088-3.804" fill="url(#B)"/><path d="m166.97 147.76l13.723 38.13-36.37-17.902.168-.152c-.25-.08-.496-.178-.701-.316l-.125.121-75.3-83.57.123-.104c-2.246-2.49 1.032-9.09 7.308-14.752 6.28-5.652 13.18-8.219 15.425-5.733l75.29 83.56.461.714" fill="url(#D)"/><path d="m148.65 170.12c2.076-.369 4.635-1.479 7.252-3.139 1.617-1.018 3.279-2.283 4.898-3.744 1.455-1.303 2.736-2.666 3.84-4.01 2.076-2.531 3.322-5.213 3.781-7.424l-1.455-4.04-.463-.715-74.8-83.02c.608 2.24-.962 5.938-4.063 9.74-1.134 1.389-2.441 2.789-3.945 4.141-1.574 1.419-3.195 2.652-4.767 3.654-4.493 2.871-8.628 3.928-10.548 2.486l-.025.021 75.3 83.57.125-.121c.205.139.451.236.701.316l-.168.152 4.332 2.134" fill="url(#A)"/><g fill="#fff"><use xlink:href="#F"/><path d="m75.79 69.22c6.28-5.652 13.18-8.219 15.425-5.733l16.961 18.828 1.152 26.49-17.973.784-22.996-25.513.123-.104c-2.246-2.49 1.032-9.09 7.308-14.752"/><use xlink:href="#F"/></g><path d="m75.79 69.22c6.28-5.652 13.18-8.219 15.425-5.733l16.961 18.828 1.152 26.49-17.973.784-22.996-25.513.123-.104c-2.246-2.49 1.032-9.09 7.308-14.752" fill="url(#8)"/><use fill="url(#7)" xlink:href="#F"/><path d="m74.36 90.71c0 0 6.04-.212 10.685-3.182 1.542-.983 3.132-2.193 4.677-3.586 1.477-1.326 2.76-2.701 3.873-4.064 2.928-3.589 4.469-7.088 4.049-9.307l-6.865-7.617-.023.024c1.614 1.942.102 6.196-3.477 10.584-1.113 1.362-2.396 2.738-3.872 4.063-1.545 1.393-3.136 2.604-4.677 3.586-4.648 2.971-8.91 3.967-10.643 2.194l-.238.217 73.26 81.31c.047.07 1.752 1.967 2.145 2.406.342.377.799.627 1.344.771l-70.23-77.4" fill="url(#1)"/><path d="m172.03 175.35c-1.635 1.477-3.307 2.764-4.949 3.84l13.605 6.697-5.096-14.156c-1.058 1.218-2.243 2.441-3.56 3.619" fill="#033"/><g fill="#fff"><path d="m163.12 157.05l-76.15-83.12c.1-.12.213-.242.307-.364 1.428-1.752 2.52-3.49 3.225-5.058l75.77 82.71c-.553 1.824-1.6 3.867-3.147 5.838" opacity=".5"/><path d="m87.28 73.57c.634-.774 1.189-1.548 1.694-2.3l76.02 82.974c-.578 1.063-1.283 2.146-2.146 3.193-.744.896-1.566 1.805-2.465 2.697l-76.22-83.2c1.164-1.108 2.209-2.24 3.123-3.366" opacity=".5"/></g></g></svg>