<svg xmlns:xlink="http://www.w3.org/1999/xlink" viewBox="0 0 48 48" overflow="visible" width="512" xmlns="http://www.w3.org/2000/svg" height="512">
<defs>
<linearGradient gradientTransform="translate(-23.43396 -3.50943)" id="linearGradient2665" xlink:href="#XMLID_3_" y1="3.597" x1="34.597" y2="19.785" x2="18.409" gradientUnits="userSpaceOnUse"/>
<linearGradient id="linearGradient2732" xlink:href="#XMLID_16_" x1="67.845" x2="144.59" gradientUnits="userSpaceOnUse"/>
<linearGradient gradientTransform="matrix(.1875 0 0 -.1875 28.06604 80.24057)" id="linearGradient2662" xlink:href="#path205_1_" y1="300.091" x1="-174.441" y2="210.207" x2="-108.879" gradientUnits="userSpaceOnUse"/>
<linearGradient gradientTransform="matrix(.1875 0 0 -.1875 28.06604 80.24057)" id="linearGradient2656" xlink:href="#XMLID_5_" y1="288.068" y2="231.322" x2="0" gradientUnits="userSpaceOnUse"/>
<linearGradient gradientTransform="matrix(.1875 0 0 -.1875 28.06604 80.24057)" id="linearGradient2653" xlink:href="#path228_1_" y1="388.456" y2="404.669" x2="0" gradientUnits="userSpaceOnUse"/>
<linearGradient gradientTransform="translate(-23.43396 -3.50943)" id="linearGradient2659" xlink:href="#XMLID_4_" y1="25.188" y2="44.625" x2="0" gradientUnits="userSpaceOnUse"/>
<linearGradient gradientTransform="translate(-23.43396 -3.50943)" id="linearGradient2671" xlink:href="#XMLID_2_" y1="2.187" y2="34.437" x2="0" gradientUnits="userSpaceOnUse"/>
<linearGradient gradientTransform="matrix(-.999 .0435 .0435 .999 -1277.01 -496.517)" id="linearGradient2730" xlink:href="#XMLID_15_" y1="595.631" x1="-1401.459" y2="699.476" x2="-1354.685" gradientUnits="userSpaceOnUse"/>
<linearGradient gradientTransform="matrix(-.999 .0435 .0435 .999 -1277.01 -496.517)" id="linearGradient2728" xlink:href="#XMLID_14_" y1="635.795" x1="-1336.45" y2="622.533" x2="-1325.322" gradientUnits="userSpaceOnUse"/>
<linearGradient gradientTransform="translate(-23.43396 -3.50943)" id="linearGradient2674" xlink:href="#XMLID_1_" y1="7.256" x1="7.306" y2="50.723" x2="50.773" gradientUnits="userSpaceOnUse"/>
<linearGradient id="linearGradient2726" xlink:href="#XMLID_13_" y1="-.795" x1="65.095" y2="160.182" x2="137.602" gradientUnits="userSpaceOnUse"/>
<linearGradient gradientTransform="matrix(.1991 .98 -.98 .1991 91.6944 573.565)" id="linearGradient2722" xlink:href="#XMLID_11_" y1="-94.419" x1="-481.701" y2="-164.221" x2="-360.246" gradientUnits="userSpaceOnUse"/>
<linearGradient gradientTransform="matrix(.1875 0 0 -.1875 28.06604 80.24057)" id="linearGradient2678" xlink:href="#path166_2_" y1="251.144" y2="436.303" x2="0" gradientUnits="userSpaceOnUse"/>
<linearGradient gradientTransform="matrix(-.999 .0435 .0435 .999 -1277.01 -496.517)" id="linearGradient2724" xlink:href="#XMLID_12_" y1="685.381" x1="-1375.984" y2="706.322" x2="-1355.045" gradientUnits="userSpaceOnUse"/>
<linearGradient gradientTransform="matrix(.1875 0 0 -.1875 51.5 83.75)" id="path228_1_" y1="388.456" y2="404.669" x2="0" gradientUnits="userSpaceOnUse">
<stop offset="0" stop-color="#39f"/>
<stop offset="1"/>
</linearGradient>
<linearGradient id="XMLID_16_" x1="67.845" x2="144.59" gradientUnits="userSpaceOnUse">
<stop offset="0" stop-color="#7d7d99"/>
<stop offset=".18" stop-color="#b1b1c5"/>
<stop offset=".373" stop-color="#bcbcc8"/>
<stop offset=".682" stop-color="#c8c8cb"/>
<stop offset="1" stop-color="#ccc"/>
</linearGradient>
<linearGradient gradientTransform="matrix(-.999 .0435 .0435 .999 -1277.01 -496.517)" id="XMLID_15_" y1="595.631" x1="-1401.459" y2="699.476" x2="-1354.685" gradientUnits="userSpaceOnUse">
<stop offset="0" stop-color="#ffa700"/>
<stop offset=".775" stop-color="#ffd700"/>
<stop offset="1" stop-color="#ff9200"/>
</linearGradient>
<linearGradient gradientTransform="matrix(.1875 0 0 -.1875 51.5 83.75)" id="XMLID_5_" y1="288.068" y2="231.322" x2="0" gradientUnits="userSpaceOnUse">
<stop offset="0" stop-color="#f0f0f0"/>
<stop offset=".635" stop-color="#cecedb"/>
<stop offset=".859" stop-color="#b1b1c5"/>
<stop offset="1" stop-color="#fff"/>
</linearGradient>
<linearGradient gradientTransform="matrix(-.999 .0435 .0435 .999 -1277.01 -496.517)" id="XMLID_14_" y1="635.795" x1="-1336.45" y2="622.533" x2="-1325.322" gradientUnits="userSpaceOnUse">
<stop offset="0" stop-color="#ffc957"/>
<stop offset="1" stop-color="#ff6d00"/>
</linearGradient>
<linearGradient gradientTransform="matrix(-.999 .0435 .0435 .999 -1277.01 -496.517)" id="XMLID_12_" y1="685.381" x1="-1375.984" y2="706.322" x2="-1355.045" gradientUnits="userSpaceOnUse">
<stop offset="0" stop-color="#f8f1dc"/>
<stop offset="1" stop-color="#d6a84a"/>
</linearGradient>
<linearGradient gradientTransform="matrix(.1991 .98 -.98 .1991 91.6944 573.565)" id="XMLID_11_" y1="-94.419" x1="-481.701" y2="-164.221" x2="-360.246" gradientUnits="userSpaceOnUse">
<stop offset="0" stop-color="#900"/>
<stop offset="1" stop-color="#7c0000"/>
</linearGradient>
<linearGradient id="XMLID_13_" y1="-.795" x1="65.095" y2="160.182" x2="137.602" gradientUnits="userSpaceOnUse">
<stop offset="0" stop-color="#ffa700"/>
<stop offset=".775" stop-color="#ffd700"/>
<stop offset="1" stop-color="#ff794b"/>
</linearGradient>
<linearGradient gradientTransform="matrix(.1875 0 0 -.1875 51.5 83.75)" id="linearGradient2608" xlink:href="#path186_2_" y1="411.67" x1="-104.593" y2="309.448" x2="-206.815" gradientUnits="userSpaceOnUse"/>
<linearGradient id="XMLID_4_" y1="25.188" y2="44.625" x2="0" gradientUnits="userSpaceOnUse">
<stop offset="0" stop-color="#dfdfdf"/>
<stop offset="1" stop-color="#7d7d99"/>
</linearGradient>
<linearGradient gradientTransform="matrix(.1875 0 0 -.1875 51.5 83.75)" id="path205_1_" y1="300.091" x1="-174.441" y2="210.207" x2="-108.879" gradientUnits="userSpaceOnUse">
<stop offset="0" stop-color="#039"/>
<stop offset=".27" stop-color="#0035ed"/>
<stop offset="1" stop-color="#57adff"/>
</linearGradient>
<linearGradient gradientTransform="matrix(.1875 0 0 -.1875 51.5 83.75)" id="path166_2_" y1="251.144" y2="436.303" x2="0" gradientUnits="userSpaceOnUse">
<stop offset="0" stop-color="#b4e2ff"/>
<stop offset="1" stop-color="#006dff"/>
</linearGradient>
<linearGradient id="XMLID_3_" y1="3.597" x1="34.597" y2="19.785" x2="18.409" gradientUnits="userSpaceOnUse">
<stop offset="0" stop-color="#fff"/>
<stop offset=".551" stop-color="#e6edff"/>
<stop offset="1" stop-color="#fff"/>
</linearGradient>
<linearGradient id="XMLID_2_" y1="2.187" y2="34.437" x2="0" gradientUnits="userSpaceOnUse">
<stop offset="0" stop-color="#428aff"/>
<stop offset="1" stop-color="#c9e6ff"/>
</linearGradient>
<linearGradient id="XMLID_1_" y1="7.256" x1="7.306" y2="50.723" x2="50.773" gradientUnits="userSpaceOnUse">
<stop offset="0" stop-color="#94caff"/>
<stop offset="1" stop-color="#006dff"/>
</linearGradient>
<linearGradient gradientTransform="matrix(.1875 0 0 -.1875 51.5 83.75)" id="path186_2_" y1="411.67" x1="-104.593" y2="309.448" x2="-206.815" gradientUnits="userSpaceOnUse">
<stop offset="0" stop-color="#ccc"/>
<stop offset="1" stop-color="#f0f0f0"/>
</linearGradient>
</defs>
<g transform="translate(23.95963 4.79693)">
<path opacity=".2" d="m-14.018,1.6986c-2.047,0-3.712,1.693-3.712,3.775v30.167c0,2.082 1.666,3.775 3.712,3.775h29.401c2.047,0 3.712-1.693 3.712-3.775v-30.167c0-2.082-1.665-3.775-3.712-3.775h-29.401z"/>
<path opacity=".2" d="m-14.393,1.3236c-2.047,0-3.712,1.693-3.712,3.775v30.167c0,2.082 1.666,3.775 3.712,3.775h29.401c2.047,0 3.712-1.693 3.712-3.775v-30.167c0-2.082-1.665-3.775-3.712-3.775h-29.401 0z"/>
<g fill="#00008d">
<path d="m-14.58,1.1366c-2.047,0-3.712,1.693-3.712,3.775v30.167c0,2.082 1.666,3.775 3.712,3.775h29.401c2.047,0 3.712-1.693 3.712-3.775v-30.168c0-2.082-1.665-3.775-3.712-3.775l-29.401,0v.001z"/>
<path d="m-14.58,1.5116c-1.84,0-3.337,1.525-3.337,3.4v30.167c0,1.875 1.497,3.4 3.337,3.4h29.401c1.84,0 3.337-1.525 3.337-3.4v-30.168c0-1.875-1.497-3.4-3.337-3.4l-29.401,0v.001z"/>
</g>
<path fill="#fff" d="m17.22,35.0786c0,1.36-1.074,2.463-2.399,2.463h-29.401c-1.326,0-2.4-1.103-2.4-2.463v-30.168c0-1.36 1.074-2.462 2.4-2.462h29.401c1.325,0 2.399,1.103 2.399,2.462v30.168z"/>
<path fill="url(#linearGradient2678)" d="m17.22,35.0786c0,1.36-1.074,2.463-2.399,2.463h-29.401c-1.326,0-2.4-1.103-2.4-2.463v-30.168c0-1.36 1.074-2.462 2.4-2.462h29.401c1.325,0 2.399,1.103 2.399,2.462v30.168z"/>
<path fill="#fff" d="m-14.58,3.0116c-1.013,0-1.837,.852-1.837,1.9v30.167c0,1.048 .824,1.9 1.837,1.9h29.401c1.013,0 1.837-.853 1.837-1.9v-30.168c0-1.048-.824-1.9-1.837-1.9h-29.401v.001z"/>
<path fill="url(#linearGradient2674)" d="m-14.58,3.0116c-1.013,0-1.837,.852-1.837,1.9v30.167c0,1.048 .824,1.9 1.837,1.9h29.401c1.013,0 1.837-.853 1.837-1.9v-30.168c0-1.048-.824-1.9-1.837-1.9h-29.401v.001z"/>
<path fill="url(#linearGradient2671)" d="m13.192,3.3516c0,0-26.184,0-26.914,0 0,.704 0,16.59 0,17.294 .721,0 26.864,0 27.583,0 0-.704 0-16.59 0-17.294-.307-0-.669-0-.669-0z"/>
<path fill="#fff" d="m35.809,6.486-25.588,0 0,16.919 26.567,0 0-16.919-.979-0z" transform="translate(-23.43396 -3.50943)"/>
<path fill="url(#linearGradient2608)" d="m35.809,6.486-25.588,0 0,16.919 26.567,0 0-16.919-.979-0z" transform="translate(-23.43396 -3.50943)"/>
<g stroke="#fff" stroke-width=".188">
<path fill="#fff" d="m-11.946,3.5096c0,.698 0,14.542 0,15.239 .716,0 23.417,0 24.133,0 0-.698 0-14.541 0-15.239-.717,0-23.417,0-24.133,0z"/>
<path fill="url(#linearGradient2665)" d="m-11.946,3.5096c0,.698 0,14.542 0,15.239 .716,0 23.417,0 24.133,0 0-.698 0-14.541 0-15.239-.717,0-23.417,0-24.133,0z"/>
</g>
<path fill="url(#linearGradient2662)" d="m-11.28,22.9696h22.007v13.978h-22.007z"/>
<path fill="url(#linearGradient2659)" d="m-10.19,23.5116c-.311,0-.563,.252-.563,.563v13.104c0,.312 .252,.563 .563,.563h17.249c.311,0 .563-.251 .563-.563v-13.105c0-.311-.252-.563-.563-.563h-17.249l-0,.001zm5.606,3.676c0,.871 0,5.078 0,5.949-.683,0-2.075,0-2.759,0 0-.871 0-5.078 0-5.949 .684,0 2.076,0 2.759,0z"/>
<path fill="url(#linearGradient2656)" d="m-10.19,24.0736v13.104h17.249l0-13.104h-17.249zm6.169,9.626h-3.884v-7.074h3.884v7.074z"/>
<path fill="url(#linearGradient2653)" d="m14.396,5.5216h1.784v1.785h-1.784z"/>
</g>
<g transform="matrix(.2072 1.69127 -1.69127 .2072 86.35703 56.28778)">
<path opacity=".2" d="m191.924,195.984c-11.613-36.127-13.717-42.67-14.859-44.064 .119,.076 .289,.178 .289,.178l-78.55-87.455c-4.195-4.65-14.005,.356-21.355,6.976-7.283,6.542-13.32,15.773-9.37,20.564l78.944,87.543 .533,.094 37.768,17.602 7.688,2.365-1.088-3.803z" transform="matrix(.125 0 0 .125 -41.5177 12.7588)"/>
<path opacity=".2" d="m193.557,193.516c-11.611-36.125-13.713-42.67-14.855-44.064 .117,.072 .287,.178 .287,.178l-78.545-87.455c-4.199-4.651-14.015,.355-21.361,6.975-7.281,6.545-13.32,15.773-9.368,20.566l78.945,87.539 .533,.1 37.77,17.598 7.682,2.367-1.088-3.804z" transform="matrix(.125 0 0 .125 -41.5177 12.7588)"/>
<path opacity=".2" d="m186.773,191.049c-11.613-36.127-13.713-42.672-14.863-44.068 .121,.074 .295,.18 .295,.18l-78.552-87.457c-4.192-4.65-14.009,.359-21.354,6.978-7.283,6.542-13.321,15.771-9.369,20.565l78.942,87.541 .535,.096 37.768,17.598 7.686,2.367-1.088-3.8z" transform="matrix(.125 0 0 .125 -41.5177 12.7588)"/>
<path fill="#fff" d="m186.43,189.355c-11.613-36.125-13.713-42.666-14.863-44.061 .123,.072 .293,.18 .293,.18l-78.546-87.458c-4.199-4.651-14.015,.357-21.359,6.977-7.283,6.543-13.322,15.774-9.37,20.566l78.941,87.541 .535,.098 37.771,17.598 7.686,2.363-1.088-3.804z" transform="matrix(.125 0 0 .125 -41.5177 12.7588)"/>
<path fill="url(#linearGradient2722)" d="m186.43,189.355c-11.613-36.125-13.713-42.666-14.863-44.061 .123,.072 .293,.18 .293,.18l-78.546-87.458c-4.199-4.651-14.015,.357-21.359,6.977-7.283,6.543-13.322,15.774-9.37,20.566l78.941,87.541 .535,.098 37.771,17.598 7.686,2.363-1.088-3.804z" transform="matrix(.125 0 0 .125 -41.5177 12.7588)"/>
<path fill="url(#linearGradient2724)" d="m166.969,147.762l13.723,38.129-36.371-17.902 .168-.152c-.25-.08-.496-.178-.701-.316l-.125,.121-75.303-83.57 .123-.104c-2.246-2.49 1.032-9.094 7.308-14.752 6.28-5.652 13.18-8.219 15.425-5.733l75.292,83.565 .461,.714z" transform="matrix(.125 0 0 .125 -41.5177 12.7588)"/>
<path fill="url(#linearGradient2726)" d="m148.652,170.121c2.076-.369 4.635-1.479 7.252-3.139 1.617-1.018 3.279-2.283 4.898-3.744 1.455-1.303 2.736-2.666 3.84-4.01 2.076-2.531 3.322-5.213 3.781-7.424l-1.455-4.043-.463-.715-74.798-83.018c.608,2.24-.962,5.938-4.063,9.74-1.134,1.389-2.441,2.789-3.945,4.141-1.574,1.419-3.195,2.652-4.767,3.654-4.493,2.871-8.628,3.928-10.548,2.486l-.025,.021 75.303,83.57 .125-.121c.205,.139 .451,.236 .701,.316l-.168,.152 4.332,2.134z" transform="matrix(.125 0 0 .125 -41.5177 12.7588)"/>
<g fill="#fff">
<path d="m68.083,83.41c1.732,1.772 5.994,.776 10.643-2.194 1.541-.982 3.132-2.193 4.677-3.586 1.476-1.325 2.759-2.701 3.872-4.063 3.578-4.388 5.091-8.642 3.477-10.584l.023-.024 75.817,84.119c.635,2.262-.588,6.498-3.754,10.357-1.082,1.318-2.34,2.656-3.77,3.934-1.588,1.434-3.219,2.676-4.807,3.676-4.74,3.006-9.303,4.199-11.016,2.301-.393-.439-2.098-2.336-2.145-2.406l-73.255-81.314 .238-.216z" transform="matrix(.125 0 0 .125 -41.5177 12.7588)"/>
<path d="m75.79,69.215c6.28-5.652 13.18-8.219 15.425-5.733l16.961,18.828 1.152,26.49-17.973,.784-22.996-25.513 .123-.104c-2.246-2.49 1.032-9.093 7.308-14.752z" transform="matrix(.125 0 0 .125 -41.5177 12.7588)"/>
<path d="m68.083,83.41c1.732,1.772 5.994,.776 10.643-2.194 1.541-.982 3.132-2.193 4.677-3.586 1.476-1.325 2.759-2.701 3.872-4.063 3.578-4.388 5.091-8.642 3.477-10.584l.023-.024 75.817,84.119c.635,2.262-.588,6.498-3.754,10.357-1.082,1.318-2.34,2.656-3.77,3.934-1.588,1.434-3.219,2.676-4.807,3.676-4.74,3.006-9.303,4.199-11.016,2.301-.393-.439-2.098-2.336-2.145-2.406l-73.255-81.314 .238-.216z" transform="matrix(.125 0 0 .125 -41.5177 12.7588)"/>
</g>
<path fill="url(#linearGradient2728)" d="m75.79,69.215c6.28-5.652 13.18-8.219 15.425-5.733l16.961,18.828 1.152,26.49-17.973,.784-22.996-25.513 .123-.104c-2.246-2.49 1.032-9.093 7.308-14.752z" transform="matrix(.125 0 0 .125 -41.5177 12.7588)"/>
<path fill="url(#linearGradient2730)" d="m68.083,83.41c1.732,1.772 5.994,.776 10.643-2.194 1.541-.982 3.132-2.193 4.677-3.586 1.476-1.325 2.759-2.701 3.872-4.063 3.578-4.388 5.091-8.642 3.477-10.584l.023-.024 75.817,84.119c.635,2.262-.588,6.498-3.754,10.357-1.082,1.318-2.34,2.656-3.77,3.934-1.588,1.434-3.219,2.676-4.807,3.676-4.74,3.006-9.303,4.199-11.016,2.301-.393-.439-2.098-2.336-2.145-2.406l-73.255-81.314 .238-.216z" transform="matrix(.125 0 0 .125 -41.5177 12.7588)"/>
<path fill="url(#linearGradient2732)" d="m74.357,90.713c0,0 6.036-.212 10.685-3.182 1.542-.983 3.132-2.193 4.677-3.586 1.477-1.326 2.76-2.701 3.873-4.064 2.928-3.589 4.469-7.088 4.049-9.307l-6.865-7.617-.023,.024c1.614,1.942 .102,6.196-3.477,10.584-1.113,1.362-2.396,2.738-3.872,4.063-1.545,1.393-3.136,2.604-4.677,3.586-4.648,2.971-8.91,3.967-10.643,2.194l-.238,.217 73.256,81.311c.047,.07 1.752,1.967 2.145,2.406 .342,.377 .799,.627 1.344,.771l-70.234-77.4z" transform="matrix(.125 0 0 .125 -41.5177 12.7588)"/>
<path fill="#033" d="m172.035,175.354c-1.635,1.477-3.307,2.764-4.949,3.84l13.605,6.697-5.096-14.156c-1.058,1.218-2.243,2.441-3.56,3.619z" transform="matrix(.125 0 0 .125 -41.5177 12.7588)"/>
<g fill="#fff">
<path opacity=".5" d="m163.121,157.053l-76.153-83.123c.1-.12 .213-.242 .307-.364 1.428-1.752 2.52-3.49 3.225-5.058l75.768,82.707c-.553,1.824-1.6,3.867-3.147,5.838z" transform="matrix(.125 0 0 .125 -41.5177 12.7588)"/>
<path opacity=".5" d="m87.275,73.566c.634-.774 1.189-1.548 1.694-2.3l76.015,82.974c-.578,1.063-1.283,2.146-2.146,3.193-.744,.896-1.566,1.805-2.465,2.697l-76.221-83.198c1.164-1.108 2.209-2.24 3.123-3.366z" transform="matrix(.125 0 0 .125 -41.5177 12.7588)"/>
</g>
</g>
</svg>
