<?xml version="1.0" encoding="UTF-8" standalone="no"?>
<svg
   xmlns:dc="http://purl.org/dc/elements/1.1/"
   xmlns:cc="http://creativecommons.org/ns#"
   xmlns:rdf="http://www.w3.org/1999/02/22-rdf-syntax-ns#"
   xmlns:svg="http://www.w3.org/2000/svg"
   xmlns="http://www.w3.org/2000/svg"
   xmlns:xlink="http://www.w3.org/1999/xlink"
   xmlns:sodipodi="http://sodipodi.sourceforge.net/DTD/sodipodi-0.dtd"
   xmlns:inkscape="http://www.inkscape.org/namespaces/inkscape"
   overflow="visible"
   width="512"
   height="512"
   id="svg2"
   version="1.1"
   inkscape:version="0.91 r13725"
   sodipodi:docname="SaveAs.svg">
  <metadata
     id="metadata194">
    <rdf:RDF>
      <cc:Work
         rdf:about="">
        <dc:format>image/svg+xml</dc:format>
        <dc:type
           rdf:resource="http://purl.org/dc/dcmitype/StillImage" />
      </cc:Work>
    </rdf:RDF>
  </metadata>
  <sodipodi:namedview
     pagecolor="#ffffff"
     bordercolor="#666666"
     borderopacity="1"
     objecttolerance="10"
     gridtolerance="10"
     guidetolerance="10"
     inkscape:pageopacity="0"
     inkscape:pageshadow="2"
     inkscape:window-width="1753"
     inkscape:window-height="1106"
     id="namedview192"
     showgrid="false"
     inkscape:zoom="1.3037281"
     inkscape:cx="124.07065"
     inkscape:cy="246.79563"
     inkscape:window-x="0"
     inkscape:window-y="0"
     inkscape:window-maximized="0"
     inkscape:current-layer="svg2" />
  <defs
     id="defs4">
    <linearGradient
       gradientTransform="translate(-23.43396,-3.50943)"
       id="linearGradient2665"
       xlink:href="#XMLID_3_"
       y1="3.597"
       x1="34.597"
       y2="19.785"
       x2="18.409"
       gradientUnits="userSpaceOnUse" />
    <linearGradient
       id="linearGradient2732"
       xlink:href="#XMLID_16_"
       x1="67.845"
       x2="144.59"
       gradientUnits="userSpaceOnUse" />
    <linearGradient
       gradientTransform="matrix(0.1875,0,0,-0.1875,28.06604,80.24057)"
       id="linearGradient2662"
       xlink:href="#path205_1_"
       y1="300.091"
       x1="-174.441"
       y2="210.207"
       x2="-108.879"
       gradientUnits="userSpaceOnUse" />
    <linearGradient
       gradientTransform="matrix(0.1875,0,0,-0.1875,28.06604,80.24057)"
       id="linearGradient2656"
       xlink:href="#XMLID_5_"
       y1="288.068"
       y2="231.322"
       x2="0"
       gradientUnits="userSpaceOnUse" />
    <linearGradient
       gradientTransform="matrix(0.1875,0,0,-0.1875,28.06604,80.24057)"
       id="linearGradient2653"
       xlink:href="#path228_1_"
       y1="388.456"
       y2="404.669"
       x2="0"
       gradientUnits="userSpaceOnUse" />
    <linearGradient
       gradientTransform="translate(-23.43396,-3.50943)"
       id="linearGradient2659"
       xlink:href="#XMLID_4_"
       y1="25.188"
       y2="44.625"
       x2="0"
       gradientUnits="userSpaceOnUse" />
    <linearGradient
       gradientTransform="translate(-23.43396,-3.50943)"
       id="linearGradient2671"
       xlink:href="#XMLID_2_"
       y1="2.187"
       y2="34.437"
       x2="0"
       gradientUnits="userSpaceOnUse" />
    <linearGradient
       gradientTransform="matrix(-0.999,0.0435,0.0435,0.999,-1277.01,-496.517)"
       id="linearGradient2730"
       xlink:href="#XMLID_15_"
       y1="595.631"
       x1="-1401.459"
       y2="699.476"
       x2="-1354.685"
       gradientUnits="userSpaceOnUse" />
    <linearGradient
       gradientTransform="matrix(-0.999,0.0435,0.0435,0.999,-1277.01,-496.517)"
       id="linearGradient2728"
       xlink:href="#XMLID_14_"
       y1="635.795"
       x1="-1336.45"
       y2="622.533"
       x2="-1325.322"
       gradientUnits="userSpaceOnUse" />
    <linearGradient
       gradientTransform="translate(-23.43396,-3.50943)"
       id="linearGradient2674"
       xlink:href="#XMLID_1_"
       y1="7.256"
       x1="7.306"
       y2="50.723"
       x2="50.773"
       gradientUnits="userSpaceOnUse" />
    <linearGradient
       id="linearGradient2726"
       xlink:href="#XMLID_13_"
       y1="-.795"
       x1="65.095"
       y2="160.182"
       x2="137.602"
       gradientUnits="userSpaceOnUse" />
    <linearGradient
       gradientTransform="matrix(0.1991,0.98,-0.98,0.1991,91.6944,573.565)"
       id="linearGradient2722"
       xlink:href="#XMLID_11_"
       y1="-94.419"
       x1="-481.701"
       y2="-164.221"
       x2="-360.246"
       gradientUnits="userSpaceOnUse" />
    <linearGradient
       gradientTransform="matrix(0.1875,0,0,-0.1875,28.06604,80.24057)"
       id="linearGradient2678"
       xlink:href="#path166_2_"
       y1="251.144"
       y2="436.303"
       x2="0"
       gradientUnits="userSpaceOnUse" />
    <linearGradient
       gradientTransform="matrix(-0.999,0.0435,0.0435,0.999,-1277.01,-496.517)"
       id="linearGradient2724"
       xlink:href="#XMLID_12_"
       y1="685.381"
       x1="-1375.984"
       y2="706.322"
       x2="-1355.045"
       gradientUnits="userSpaceOnUse" />
    <linearGradient
       gradientTransform="matrix(.1875 0 0 -.1875 51.5 83.75)"
       id="path228_1_"
       y1="388.456"
       y2="404.669"
       x2="0"
       gradientUnits="userSpaceOnUse">
      <stop
         offset="0"
         stop-color="#39f"
         id="stop21" />
      <stop
         offset="1"
         id="stop23" />
    </linearGradient>
    <linearGradient
       id="XMLID_16_"
       x1="67.845"
       x2="144.59"
       gradientUnits="userSpaceOnUse">
      <stop
         offset="0"
         stop-color="#7d7d99"
         id="stop26" />
      <stop
         offset=".18"
         stop-color="#b1b1c5"
         id="stop28" />
      <stop
         offset=".373"
         stop-color="#bcbcc8"
         id="stop30" />
      <stop
         offset=".682"
         stop-color="#c8c8cb"
         id="stop32" />
      <stop
         offset="1"
         stop-color="#ccc"
         id="stop34" />
    </linearGradient>
    <linearGradient
       gradientTransform="matrix(-.999 .0435 .0435 .999 -1277.01 -496.517)"
       id="XMLID_15_"
       y1="595.631"
       x1="-1401.459"
       y2="699.476"
       x2="-1354.685"
       gradientUnits="userSpaceOnUse">
      <stop
         offset="0"
         stop-color="#ffa700"
         id="stop37" />
      <stop
         offset=".775"
         stop-color="#ffd700"
         id="stop39" />
      <stop
         offset="1"
         stop-color="#ff9200"
         id="stop41" />
    </linearGradient>
    <linearGradient
       gradientTransform="matrix(.1875 0 0 -.1875 51.5 83.75)"
       id="XMLID_5_"
       y1="288.068"
       y2="231.322"
       x2="0"
       gradientUnits="userSpaceOnUse">
      <stop
         offset="0"
         stop-color="#f0f0f0"
         id="stop44" />
      <stop
         offset=".635"
         stop-color="#cecedb"
         id="stop46" />
      <stop
         offset=".859"
         stop-color="#b1b1c5"
         id="stop48" />
      <stop
         offset="1"
         stop-color="#fff"
         id="stop50" />
    </linearGradient>
    <linearGradient
       gradientTransform="matrix(-.999 .0435 .0435 .999 -1277.01 -496.517)"
       id="XMLID_14_"
       y1="635.795"
       x1="-1336.45"
       y2="622.533"
       x2="-1325.322"
       gradientUnits="userSpaceOnUse">
      <stop
         offset="0"
         stop-color="#ffc957"
         id="stop53" />
      <stop
         offset="1"
         stop-color="#ff6d00"
         id="stop55" />
    </linearGradient>
    <linearGradient
       gradientTransform="matrix(-.999 .0435 .0435 .999 -1277.01 -496.517)"
       id="XMLID_12_"
       y1="685.381"
       x1="-1375.984"
       y2="706.322"
       x2="-1355.045"
       gradientUnits="userSpaceOnUse">
      <stop
         offset="0"
         stop-color="#f8f1dc"
         id="stop58" />
      <stop
         offset="1"
         stop-color="#d6a84a"
         id="stop60" />
    </linearGradient>
    <linearGradient
       gradientTransform="matrix(.1991 .98 -.98 .1991 91.6944 573.565)"
       id="XMLID_11_"
       y1="-94.419"
       x1="-481.701"
       y2="-164.221"
       x2="-360.246"
       gradientUnits="userSpaceOnUse">
      <stop
         offset="0"
         stop-color="#900"
         id="stop63" />
      <stop
         offset="1"
         stop-color="#7c0000"
         id="stop65" />
    </linearGradient>
    <linearGradient
       id="XMLID_13_"
       y1="-.795"
       x1="65.095"
       y2="160.182"
       x2="137.602"
       gradientUnits="userSpaceOnUse">
      <stop
         offset="0"
         stop-color="#ffa700"
         id="stop68" />
      <stop
         offset=".775"
         stop-color="#ffd700"
         id="stop70" />
      <stop
         offset="1"
         stop-color="#ff794b"
         id="stop72" />
    </linearGradient>
    <linearGradient
       gradientTransform="matrix(0.1875,0,0,-0.1875,51.5,83.75)"
       id="linearGradient2608"
       xlink:href="#path186_2_"
       y1="411.67"
       x1="-104.593"
       y2="309.448"
       x2="-206.815"
       gradientUnits="userSpaceOnUse" />
    <linearGradient
       id="XMLID_4_"
       y1="25.188"
       y2="44.625"
       x2="0"
       gradientUnits="userSpaceOnUse">
      <stop
         offset="0"
         stop-color="#dfdfdf"
         id="stop76" />
      <stop
         offset="1"
         stop-color="#7d7d99"
         id="stop78" />
    </linearGradient>
    <linearGradient
       gradientTransform="matrix(.1875 0 0 -.1875 51.5 83.75)"
       id="path205_1_"
       y1="300.091"
       x1="-174.441"
       y2="210.207"
       x2="-108.879"
       gradientUnits="userSpaceOnUse">
      <stop
         offset="0"
         stop-color="#039"
         id="stop81" />
      <stop
         offset=".27"
         stop-color="#0035ed"
         id="stop83" />
      <stop
         offset="1"
         stop-color="#57adff"
         id="stop85" />
    </linearGradient>
    <linearGradient
       gradientTransform="matrix(.1875 0 0 -.1875 51.5 83.75)"
       id="path166_2_"
       y1="251.144"
       y2="436.303"
       x2="0"
       gradientUnits="userSpaceOnUse">
      <stop
         offset="0"
         stop-color="#b4e2ff"
         id="stop88" />
      <stop
         offset="1"
         stop-color="#006dff"
         id="stop90" />
    </linearGradient>
    <linearGradient
       id="XMLID_3_"
       y1="3.597"
       x1="34.597"
       y2="19.785"
       x2="18.409"
       gradientUnits="userSpaceOnUse">
      <stop
         offset="0"
         stop-color="#fff"
         id="stop93" />
      <stop
         offset=".551"
         stop-color="#e6edff"
         id="stop95" />
      <stop
         offset="1"
         stop-color="#fff"
         id="stop97" />
    </linearGradient>
    <linearGradient
       id="XMLID_2_"
       y1="2.187"
       y2="34.437"
       x2="0"
       gradientUnits="userSpaceOnUse">
      <stop
         offset="0"
         stop-color="#428aff"
         id="stop100" />
      <stop
         offset="1"
         stop-color="#c9e6ff"
         id="stop102" />
    </linearGradient>
    <linearGradient
       id="XMLID_1_"
       y1="7.256"
       x1="7.306"
       y2="50.723"
       x2="50.773"
       gradientUnits="userSpaceOnUse">
      <stop
         offset="0"
         stop-color="#94caff"
         id="stop105" />
      <stop
         offset="1"
         stop-color="#006dff"
         id="stop107" />
    </linearGradient>
    <linearGradient
       gradientTransform="matrix(.1875 0 0 -.1875 51.5 83.75)"
       id="path186_2_"
       y1="411.67"
       x1="-104.593"
       y2="309.448"
       x2="-206.815"
       gradientUnits="userSpaceOnUse">
      <stop
         offset="0"
         stop-color="#ccc"
         id="stop110" />
      <stop
         offset="1"
         stop-color="#f0f0f0"
         id="stop112" />
    </linearGradient>
  </defs>
  <g
     transform="matrix(10.732907,0,0,10.732907,251.69074,38.383871)"
     id="g114">
    <path
       d="m -14.018,1.6986 c -2.047,0 -3.712,1.693 -3.712,3.775 l 0,30.167 c 0,2.082 1.666,3.775 3.712,3.775 l 29.401,0 c 2.047,0 3.712,-1.693 3.712,-3.775 l 0,-30.167 c 0,-2.082 -1.665,-3.775 -3.712,-3.775 l -29.401,0 z"
       id="path116"
       inkscape:connector-curvature="0"
       style="opacity:0.2" />
    <path
       d="m -14.393,1.3236 c -2.047,0 -3.712,1.693 -3.712,3.775 l 0,30.167 c 0,2.082 1.666,3.775 3.712,3.775 l 29.401,0 c 2.047,0 3.712,-1.693 3.712,-3.775 l 0,-30.167 c 0,-2.082 -1.665,-3.775 -3.712,-3.775 l -29.401,0 0,0 z"
       id="path118"
       inkscape:connector-curvature="0"
       style="opacity:0.2" />
    <g
       id="g120"
       style="fill:#00008d">
      <path
         d="m -14.58,1.1366 c -2.047,0 -3.712,1.693 -3.712,3.775 l 0,30.167 c 0,2.082 1.666,3.775 3.712,3.775 l 29.401,0 c 2.047,0 3.712,-1.693 3.712,-3.775 l 0,-30.168 c 0,-2.082 -1.665,-3.775 -3.712,-3.775 l -29.401,0 0,0.001 z"
         id="path122"
         inkscape:connector-curvature="0" />
      <path
         d="m -14.58,1.5116 c -1.84,0 -3.337,1.525 -3.337,3.4 l 0,30.167 c 0,1.875 1.497,3.4 3.337,3.4 l 29.401,0 c 1.84,0 3.337,-1.525 3.337,-3.4 l 0,-30.168 c 0,-1.875 -1.497,-3.4 -3.337,-3.4 l -29.401,0 0,0.001 z"
         id="path124"
         inkscape:connector-curvature="0" />
    </g>
    <path
       d="m 17.22,35.0786 c 0,1.36 -1.074,2.463 -2.399,2.463 l -29.401,0 c -1.326,0 -2.4,-1.103 -2.4,-2.463 l 0,-30.168 c 0,-1.36 1.074,-2.462 2.4,-2.462 l 29.401,0 c 1.325,0 2.399,1.103 2.399,2.462 l 0,30.168 z"
       id="path126"
       inkscape:connector-curvature="0"
       style="fill:#ffffff" />
    <path
       d="m 17.22,35.0786 c 0,1.36 -1.074,2.463 -2.399,2.463 l -29.401,0 c -1.326,0 -2.4,-1.103 -2.4,-2.463 l 0,-30.168 c 0,-1.36 1.074,-2.462 2.4,-2.462 l 29.401,0 c 1.325,0 2.399,1.103 2.399,2.462 l 0,30.168 z"
       id="path128"
       style="fill:url(#linearGradient2678)"
       inkscape:connector-curvature="0" />
    <path
       d="m -14.58,3.0116 c -1.013,0 -1.837,0.852 -1.837,1.9 l 0,30.167 c 0,1.048 0.824,1.9 1.837,1.9 l 29.401,0 c 1.013,0 1.837,-0.853 1.837,-1.9 l 0,-30.168 c 0,-1.048 -0.824,-1.9 -1.837,-1.9 l -29.401,0 0,10e-4 z"
       id="path130"
       inkscape:connector-curvature="0"
       style="fill:#ffffff" />
    <path
       d="m -14.58,3.0116 c -1.013,0 -1.837,0.852 -1.837,1.9 l 0,30.167 c 0,1.048 0.824,1.9 1.837,1.9 l 29.401,0 c 1.013,0 1.837,-0.853 1.837,-1.9 l 0,-30.168 c 0,-1.048 -0.824,-1.9 -1.837,-1.9 l -29.401,0 0,10e-4 z"
       id="path132"
       style="fill:url(#linearGradient2674)"
       inkscape:connector-curvature="0" />
    <path
       d="m 13.192,3.3516 c 0,0 -26.184,0 -26.914,0 0,0.704 0,16.59 0,17.294 0.721,0 26.864,0 27.583,0 0,-0.704 0,-16.59 0,-17.294 -0.307,0 -0.669,0 -0.669,0 z"
       id="path134"
       style="fill:url(#linearGradient2671)"
       inkscape:connector-curvature="0" />
    <path
       d="m 35.809,6.486 -25.588,0 0,16.919 26.567,0 0,-16.919 -0.979,0 z"
       transform="translate(-23.43396,-3.50943)"
       id="path136"
       inkscape:connector-curvature="0"
       style="fill:#ffffff" />
    <path
       d="m 35.809,6.486 -25.588,0 0,16.919 26.567,0 0,-16.919 -0.979,0 z"
       transform="translate(-23.43396,-3.50943)"
       id="path138"
       style="fill:url(#linearGradient2608)"
       inkscape:connector-curvature="0" />
    <g
       id="g140"
       style="stroke:#ffffff;stroke-width:0.18799999">
      <path
         d="m -11.946,3.5096 c 0,0.698 0,14.542 0,15.239 0.716,0 23.417,0 24.133,0 0,-0.698 0,-14.541 0,-15.239 -0.717,0 -23.417,0 -24.133,0 z"
         id="path142"
         inkscape:connector-curvature="0"
         style="fill:#ffffff" />
      <path
         d="m -11.946,3.5096 c 0,0.698 0,14.542 0,15.239 0.716,0 23.417,0 24.133,0 0,-0.698 0,-14.541 0,-15.239 -0.717,0 -23.417,0 -24.133,0 z"
         id="path144"
         style="fill:url(#linearGradient2665)"
         inkscape:connector-curvature="0" />
    </g>
    <path
       d="m -11.28,22.9696 22.007,0 0,13.978 -22.007,0 z"
       id="path146"
       style="fill:url(#linearGradient2662)"
       inkscape:connector-curvature="0" />
    <path
       d="m -10.19,23.5116 c -0.311,0 -0.563,0.252 -0.563,0.563 l 0,13.104 c 0,0.312 0.252,0.563 0.563,0.563 l 17.249,0 c 0.311,0 0.563,-0.251 0.563,-0.563 l 0,-13.105 c 0,-0.311 -0.252,-0.563 -0.563,-0.563 l -17.249,0 0,0.001 z m 5.606,3.676 c 0,0.871 0,5.078 0,5.949 -0.683,0 -2.075,0 -2.759,0 0,-0.871 0,-5.078 0,-5.949 0.684,0 2.076,0 2.759,0 z"
       id="path148"
       style="fill:url(#linearGradient2659)"
       inkscape:connector-curvature="0" />
    <path
       d="m -10.19,24.0736 0,13.104 17.249,0 0,-13.104 -17.249,0 z m 6.169,9.626 -3.884,0 0,-7.074 3.884,0 0,7.074 z"
       id="path150"
       style="fill:url(#linearGradient2656)"
       inkscape:connector-curvature="0" />
    <path
       d="m 14.396,5.5216 1.784,0 0,1.785 -1.784,0 z"
       id="path152"
       style="fill:url(#linearGradient2653)"
       inkscape:connector-curvature="0" />
  </g>
  <g
     transform="matrix(2.2238585,18.152244,-18.152244,2.2238585,924.57313,588.73501)"
     id="g154">
    <path
       d="m 191.924,195.984 c -11.613,-36.127 -13.717,-42.67 -14.859,-44.064 0.119,0.076 0.289,0.178 0.289,0.178 L 98.804,64.643 c -4.195,-4.65 -14.005,0.356 -21.355,6.976 -7.283,6.542 -13.32,15.773 -9.37,20.564 l 78.944,87.543 0.533,0.094 37.768,17.602 7.688,2.365 -1.088,-3.803 z"
       transform="matrix(0.125,0,0,0.125,-41.5177,12.7588)"
       id="path156"
       inkscape:connector-curvature="0"
       style="opacity:0.2" />
    <path
       d="m 193.557,193.516 c -11.611,-36.125 -13.713,-42.67 -14.855,-44.064 0.117,0.072 0.287,0.178 0.287,0.178 L 100.444,62.175 C 96.245,57.524 86.429,62.53 79.083,69.15 71.802,75.695 65.763,84.923 69.715,89.716 l 78.945,87.539 0.533,0.1 37.77,17.598 7.682,2.367 -1.088,-3.804 z"
       transform="matrix(0.125,0,0,0.125,-41.5177,12.7588)"
       id="path158"
       inkscape:connector-curvature="0"
       style="opacity:0.2" />
    <path
       d="M 186.773,191.049 C 175.16,154.922 173.06,148.377 171.91,146.981 c 0.121,0.074 0.295,0.18 0.295,0.18 L 93.653,59.704 c -4.192,-4.65 -14.009,0.359 -21.354,6.978 -7.283,6.542 -13.321,15.771 -9.369,20.565 l 78.942,87.541 0.535,0.096 37.768,17.598 7.686,2.367 -1.088,-3.8 z"
       transform="matrix(0.125,0,0,0.125,-41.5177,12.7588)"
       id="path160"
       inkscape:connector-curvature="0"
       style="opacity:0.2" />
    <path
       d="m 186.43,189.355 c -11.613,-36.125 -13.713,-42.666 -14.863,-44.061 0.123,0.072 0.293,0.18 0.293,0.18 L 93.314,58.016 c -4.199,-4.651 -14.015,0.357 -21.359,6.977 -7.283,6.543 -13.322,15.774 -9.37,20.566 l 78.941,87.541 0.535,0.098 37.771,17.598 7.686,2.363 -1.088,-3.804 z"
       transform="matrix(0.125,0,0,0.125,-41.5177,12.7588)"
       id="path162"
       inkscape:connector-curvature="0"
       style="fill:#ffffff" />
    <path
       d="m 186.43,189.355 c -11.613,-36.125 -13.713,-42.666 -14.863,-44.061 0.123,0.072 0.293,0.18 0.293,0.18 L 93.314,58.016 c -4.199,-4.651 -14.015,0.357 -21.359,6.977 -7.283,6.543 -13.322,15.774 -9.37,20.566 l 78.941,87.541 0.535,0.098 37.771,17.598 7.686,2.363 -1.088,-3.804 z"
       transform="matrix(0.125,0,0,0.125,-41.5177,12.7588)"
       id="path164"
       style="fill:url(#linearGradient2722)"
       inkscape:connector-curvature="0" />
    <path
       d="m 166.969,147.762 13.723,38.129 -36.371,-17.902 0.168,-0.152 c -0.25,-0.08 -0.496,-0.178 -0.701,-0.316 l -0.125,0.121 -75.303,-83.57 0.123,-0.104 c -2.246,-2.49 1.032,-9.094 7.308,-14.752 6.28,-5.652 13.18,-8.219 15.425,-5.733 l 75.292,83.565 0.461,0.714 z"
       transform="matrix(0.125,0,0,0.125,-41.5177,12.7588)"
       id="path166"
       style="fill:url(#linearGradient2724)"
       inkscape:connector-curvature="0" />
    <path
       d="m 148.652,170.121 c 2.076,-0.369 4.635,-1.479 7.252,-3.139 1.617,-1.018 3.279,-2.283 4.898,-3.744 1.455,-1.303 2.736,-2.666 3.84,-4.01 2.076,-2.531 3.322,-5.213 3.781,-7.424 l -1.455,-4.043 -0.463,-0.715 -74.798,-83.018 c 0.608,2.24 -0.962,5.938 -4.063,9.74 -1.134,1.389 -2.441,2.789 -3.945,4.141 -1.574,1.419 -3.195,2.652 -4.767,3.654 -4.493,2.871 -8.628,3.928 -10.548,2.486 l -0.025,0.021 75.303,83.57 0.125,-0.121 c 0.205,0.139 0.451,0.236 0.701,0.316 l -0.168,0.152 4.332,2.134 z"
       transform="matrix(0.125,0,0,0.125,-41.5177,12.7588)"
       id="path168"
       style="fill:url(#linearGradient2726)"
       inkscape:connector-curvature="0" />
    <g
       id="g170"
       style="fill:#ffffff">
      <path
         d="m 68.083,83.41 c 1.732,1.772 5.994,0.776 10.643,-2.194 1.541,-0.982 3.132,-2.193 4.677,-3.586 1.476,-1.325 2.759,-2.701 3.872,-4.063 3.578,-4.388 5.091,-8.642 3.477,-10.584 l 0.023,-0.024 75.817,84.119 c 0.635,2.262 -0.588,6.498 -3.754,10.357 -1.082,1.318 -2.34,2.656 -3.77,3.934 -1.588,1.434 -3.219,2.676 -4.807,3.676 -4.74,3.006 -9.303,4.199 -11.016,2.301 -0.393,-0.439 -2.098,-2.336 -2.145,-2.406 L 67.845,83.626 68.083,83.41 Z"
         transform="matrix(0.125,0,0,0.125,-41.5177,12.7588)"
         id="path172"
         inkscape:connector-curvature="0" />
      <path
         d="m 75.79,69.215 c 6.28,-5.652 13.18,-8.219 15.425,-5.733 l 16.961,18.828 1.152,26.49 -17.973,0.784 -22.996,-25.513 0.123,-0.104 c -2.246,-2.49 1.032,-9.093 7.308,-14.752 z"
         transform="matrix(0.125,0,0,0.125,-41.5177,12.7588)"
         id="path174"
         inkscape:connector-curvature="0" />
      <path
         d="m 68.083,83.41 c 1.732,1.772 5.994,0.776 10.643,-2.194 1.541,-0.982 3.132,-2.193 4.677,-3.586 1.476,-1.325 2.759,-2.701 3.872,-4.063 3.578,-4.388 5.091,-8.642 3.477,-10.584 l 0.023,-0.024 75.817,84.119 c 0.635,2.262 -0.588,6.498 -3.754,10.357 -1.082,1.318 -2.34,2.656 -3.77,3.934 -1.588,1.434 -3.219,2.676 -4.807,3.676 -4.74,3.006 -9.303,4.199 -11.016,2.301 -0.393,-0.439 -2.098,-2.336 -2.145,-2.406 L 67.845,83.626 68.083,83.41 Z"
         transform="matrix(0.125,0,0,0.125,-41.5177,12.7588)"
         id="path176"
         inkscape:connector-curvature="0" />
    </g>
    <path
       d="m 75.79,69.215 c 6.28,-5.652 13.18,-8.219 15.425,-5.733 l 16.961,18.828 1.152,26.49 -17.973,0.784 -22.996,-25.513 0.123,-0.104 c -2.246,-2.49 1.032,-9.093 7.308,-14.752 z"
       transform="matrix(0.125,0,0,0.125,-41.5177,12.7588)"
       id="path178"
       style="fill:url(#linearGradient2728)"
       inkscape:connector-curvature="0" />
    <path
       d="m 68.083,83.41 c 1.732,1.772 5.994,0.776 10.643,-2.194 1.541,-0.982 3.132,-2.193 4.677,-3.586 1.476,-1.325 2.759,-2.701 3.872,-4.063 3.578,-4.388 5.091,-8.642 3.477,-10.584 l 0.023,-0.024 75.817,84.119 c 0.635,2.262 -0.588,6.498 -3.754,10.357 -1.082,1.318 -2.34,2.656 -3.77,3.934 -1.588,1.434 -3.219,2.676 -4.807,3.676 -4.74,3.006 -9.303,4.199 -11.016,2.301 -0.393,-0.439 -2.098,-2.336 -2.145,-2.406 L 67.845,83.626 68.083,83.41 Z"
       transform="matrix(0.125,0,0,0.125,-41.5177,12.7588)"
       id="path180"
       style="fill:url(#linearGradient2730)"
       inkscape:connector-curvature="0" />
    <path
       d="m 74.357,90.713 c 0,0 6.036,-0.212 10.685,-3.182 1.542,-0.983 3.132,-2.193 4.677,-3.586 1.477,-1.326 2.76,-2.701 3.873,-4.064 2.928,-3.589 4.469,-7.088 4.049,-9.307 l -6.865,-7.617 -0.023,0.024 c 1.614,1.942 0.102,6.196 -3.477,10.584 -1.113,1.362 -2.396,2.738 -3.872,4.063 -1.545,1.393 -3.136,2.604 -4.677,3.586 -4.648,2.971 -8.91,3.967 -10.643,2.194 l -0.238,0.217 73.256,81.311 c 0.047,0.07 1.752,1.967 2.145,2.406 0.342,0.377 0.799,0.627 1.344,0.771 l -70.234,-77.4 z"
       transform="matrix(0.125,0,0,0.125,-41.5177,12.7588)"
       id="path182"
       style="fill:url(#linearGradient2732)"
       inkscape:connector-curvature="0" />
    <path
       d="m 172.035,175.354 c -1.635,1.477 -3.307,2.764 -4.949,3.84 l 13.605,6.697 -5.096,-14.156 c -1.058,1.218 -2.243,2.441 -3.56,3.619 z"
       transform="matrix(0.125,0,0,0.125,-41.5177,12.7588)"
       id="path184"
       inkscape:connector-curvature="0"
       style="fill:#003333" />
    <g
       id="g186"
       style="fill:#ffffff">
      <path
         d="M 163.121,157.053 86.968,73.93 c 0.1,-0.12 0.213,-0.242 0.307,-0.364 1.428,-1.752 2.52,-3.49 3.225,-5.058 l 75.768,82.707 c -0.553,1.824 -1.6,3.867 -3.147,5.838 z"
         transform="matrix(0.125,0,0,0.125,-41.5177,12.7588)"
         id="path188"
         inkscape:connector-curvature="0"
         style="opacity:0.5" />
      <path
         d="m 87.275,73.566 c 0.634,-0.774 1.189,-1.548 1.694,-2.3 l 76.015,82.974 c -0.578,1.063 -1.283,2.146 -2.146,3.193 -0.744,0.896 -1.566,1.805 -2.465,2.697 L 84.152,76.932 c 1.164,-1.108 2.209,-2.24 3.123,-3.366 z"
         transform="matrix(0.125,0,0,0.125,-41.5177,12.7588)"
         id="path190"
         inkscape:connector-curvature="0"
         style="opacity:0.5" />
    </g>
  </g>
</svg>
