<?xml version="1.0" encoding="UTF-8" standalone="no"?>
<!-- Created with Inkscape (http://www.inkscape.org/) -->
<svg
   xmlns:a="http://ns.adobe.com/AdobeSVGViewerExtensions/3.0/"
   xmlns:dc="http://purl.org/dc/elements/1.1/"
   xmlns:cc="http://creativecommons.org/ns#"
   xmlns:rdf="http://www.w3.org/1999/02/22-rdf-syntax-ns#"
   xmlns:svg="http://www.w3.org/2000/svg"
   xmlns="http://www.w3.org/2000/svg"
   xmlns:xlink="http://www.w3.org/1999/xlink"
   xmlns:sodipodi="http://sodipodi.sourceforge.net/DTD/sodipodi-0.dtd"
   xmlns:inkscape="http://www.inkscape.org/namespaces/inkscape"
   version="1.0"
   width="512"
   height="512"
   viewBox="0 0 48 48"
   id="svg589"
   xml:space="preserve"
   style="overflow:visible"
   sodipodi:version="0.32"
   inkscape:version="0.46"
   sodipodi:docname="SaveAs.svg"
   inkscape:output_extension="org.inkscape.output.svg.inkscape"><metadata
   id="metadata149"><rdf:RDF><cc:Work
       rdf:about=""><dc:format>image/svg+xml</dc:format><dc:type
         rdf:resource="http://purl.org/dc/dcmitype/StillImage" /></cc:Work></rdf:RDF></metadata><sodipodi:namedview
   inkscape:window-height="890"
   inkscape:window-width="1091"
   inkscape:pageshadow="2"
   inkscape:pageopacity="0.0"
   guidetolerance="10.0"
   gridtolerance="10.0"
   objecttolerance="10.0"
   borderopacity="1.0"
   bordercolor="#666666"
   pagecolor="#ffffff"
   id="base"
   showgrid="false"
   inkscape:zoom="5.1458333"
   inkscape:cx="24"
   inkscape:cy="24"
   inkscape:window-x="181"
   inkscape:window-y="0"
   inkscape:current-layer="svg589" />
  <defs
   id="defs677"><inkscape:perspective
   sodipodi:type="inkscape:persp3d"
   inkscape:vp_x="0 : 24 : 1"
   inkscape:vp_y="0 : 1000 : 0"
   inkscape:vp_z="48 : 24 : 1"
   inkscape:persp3d-origin="24 : 16 : 1"
   id="perspective151" />
    <defs
   id="defs796" />
    
    
    <linearGradient
   x1="128.9995"
   y1="11"
   x2="128.9995"
   y2="245.0005"
   id="XMLID_9_"
   gradientUnits="userSpaceOnUse">
      <stop
   id="stop717"
   style="stop-color:#494949;stop-opacity:1"
   offset="0" />
      <stop
   id="stop718"
   style="stop-color:#000000;stop-opacity:1"
   offset="1" />
      <a:midPointStop
   id="midPointStop719"
   style="stop-color:#494949"
   offset="0" />
      <a:midPointStop
   id="midPointStop720"
   style="stop-color:#494949"
   offset="0.5" />
      <a:midPointStop
   id="midPointStop721"
   style="stop-color:#000000"
   offset="1" />
    </linearGradient>
    <linearGradient
   x1="29.0532"
   y1="29.0532"
   x2="226.9471"
   y2="226.9471"
   id="XMLID_10_"
   gradientUnits="userSpaceOnUse">
      <stop
   id="stop725"
   style="stop-color:#ffffff;stop-opacity:1"
   offset="0" />
      <stop
   id="stop726"
   style="stop-color:#dadada;stop-opacity:1"
   offset="1" />
      <a:midPointStop
   id="midPointStop727"
   style="stop-color:#FFFFFF"
   offset="0" />
      <a:midPointStop
   id="midPointStop728"
   style="stop-color:#FFFFFF"
   offset="0.5" />
      <a:midPointStop
   id="midPointStop729"
   style="stop-color:#DADADA"
   offset="1" />
    </linearGradient>
    <linearGradient
   x1="-481.70071"
   y1="-94.419403"
   x2="-360.24561"
   y2="-164.22141"
   id="XMLID_11_"
   gradientUnits="userSpaceOnUse"
   gradientTransform="matrix(0.1991,0.98,-0.98,0.1991,91.6944,573.565)">
      <stop
   id="stop736"
   style="stop-color:#990000;stop-opacity:1"
   offset="0" />
      <stop
   id="stop737"
   style="stop-color:#7c0000;stop-opacity:1"
   offset="1" />
      <a:midPointStop
   id="midPointStop738"
   style="stop-color:#990000"
   offset="0" />
      <a:midPointStop
   id="midPointStop739"
   style="stop-color:#990000"
   offset="0.5" />
      <a:midPointStop
   id="midPointStop740"
   style="stop-color:#7C0000"
   offset="1" />
    </linearGradient>
    <linearGradient
   x1="-1375.9844"
   y1="685.38092"
   x2="-1355.0455"
   y2="706.32172"
   id="XMLID_12_"
   gradientUnits="userSpaceOnUse"
   gradientTransform="matrix(-0.999,4.35e-2,4.35e-2,0.999,-1277.01,-496.517)">
      <stop
   id="stop743"
   style="stop-color:#f8f1dc;stop-opacity:1"
   offset="0" />
      <stop
   id="stop744"
   style="stop-color:#d6a84a;stop-opacity:1"
   offset="1" />
      <a:midPointStop
   id="midPointStop745"
   style="stop-color:#F8F1DC"
   offset="0" />
      <a:midPointStop
   id="midPointStop746"
   style="stop-color:#F8F1DC"
   offset="0.5" />
      <a:midPointStop
   id="midPointStop747"
   style="stop-color:#D6A84A"
   offset="1" />
    </linearGradient>
    <linearGradient
   x1="65.094704"
   y1="-0.79540002"
   x2="137.6021"
   y2="160.1823"
   id="XMLID_13_"
   gradientUnits="userSpaceOnUse">
      <stop
   id="stop750"
   style="stop-color:#ffa700;stop-opacity:1"
   offset="0" />
      <stop
   id="stop751"
   style="stop-color:#ffd700;stop-opacity:1"
   offset="0.77530003" />
      <stop
   id="stop752"
   style="stop-color:#ff794b;stop-opacity:1"
   offset="1" />
      <a:midPointStop
   id="midPointStop753"
   style="stop-color:#FFA700"
   offset="0" />
      <a:midPointStop
   id="midPointStop754"
   style="stop-color:#FFA700"
   offset="0.5" />
      <a:midPointStop
   id="midPointStop755"
   style="stop-color:#FFD700"
   offset="0.7753" />
      <a:midPointStop
   id="midPointStop756"
   style="stop-color:#FFD700"
   offset="0.5" />
      <a:midPointStop
   id="midPointStop757"
   style="stop-color:#FF794B"
   offset="1" />
    </linearGradient>
    <linearGradient
   x1="-1336.4497"
   y1="635.79492"
   x2="-1325.3219"
   y2="622.53333"
   id="XMLID_14_"
   gradientUnits="userSpaceOnUse"
   gradientTransform="matrix(-0.999,4.35e-2,4.35e-2,0.999,-1277.01,-496.517)">
      <stop
   id="stop763"
   style="stop-color:#ffc957;stop-opacity:1"
   offset="0" />
      <stop
   id="stop764"
   style="stop-color:#ff6d00;stop-opacity:1"
   offset="1" />
      <a:midPointStop
   id="midPointStop765"
   style="stop-color:#FFC957"
   offset="0" />
      <a:midPointStop
   id="midPointStop766"
   style="stop-color:#FFC957"
   offset="0.5" />
      <a:midPointStop
   id="midPointStop767"
   style="stop-color:#FF6D00"
   offset="1" />
    </linearGradient>
    <linearGradient
   x1="-1401.459"
   y1="595.63092"
   x2="-1354.6851"
   y2="699.47632"
   id="XMLID_15_"
   gradientUnits="userSpaceOnUse"
   gradientTransform="matrix(-0.999,4.35e-2,4.35e-2,0.999,-1277.01,-496.517)">
      <stop
   id="stop770"
   style="stop-color:#ffa700;stop-opacity:1"
   offset="0" />
      <stop
   id="stop771"
   style="stop-color:#ffd700;stop-opacity:1"
   offset="0.77530003" />
      <stop
   id="stop772"
   style="stop-color:#ff9200;stop-opacity:1"
   offset="1" />
      <a:midPointStop
   id="midPointStop773"
   style="stop-color:#FFA700"
   offset="0" />
      <a:midPointStop
   id="midPointStop774"
   style="stop-color:#FFA700"
   offset="0.5" />
      <a:midPointStop
   id="midPointStop775"
   style="stop-color:#FFD700"
   offset="0.7753" />
      <a:midPointStop
   id="midPointStop776"
   style="stop-color:#FFD700"
   offset="0.5" />
      <a:midPointStop
   id="midPointStop777"
   style="stop-color:#FF9200"
   offset="1" />
    </linearGradient>
    <linearGradient
   x1="67.8452"
   y1="115.5361"
   x2="144.5898"
   y2="115.5361"
   id="XMLID_16_"
   gradientUnits="userSpaceOnUse">
      <stop
   id="stop780"
   style="stop-color:#7d7d99;stop-opacity:1"
   offset="0" />
      <stop
   id="stop781"
   style="stop-color:#b1b1c5;stop-opacity:1"
   offset="0.1798" />
      <stop
   id="stop782"
   style="stop-color:#bcbcc8;stop-opacity:1"
   offset="0.37270001" />
      <stop
   id="stop783"
   style="stop-color:#c8c8cb;stop-opacity:1"
   offset="0.6825" />
      <stop
   id="stop784"
   style="stop-color:#cccccc;stop-opacity:1"
   offset="1" />
      <a:midPointStop
   id="midPointStop785"
   style="stop-color:#7D7D99"
   offset="0" />
      <a:midPointStop
   id="midPointStop786"
   style="stop-color:#7D7D99"
   offset="0.5" />
      <a:midPointStop
   id="midPointStop787"
   style="stop-color:#B1B1C5"
   offset="0.1798" />
      <a:midPointStop
   id="midPointStop788"
   style="stop-color:#B1B1C5"
   offset="0.2881" />
      <a:midPointStop
   id="midPointStop789"
   style="stop-color:#CCCCCC"
   offset="1" />
    </linearGradient>
  <linearGradient
   x1="-149.0464"
   y1="251.1436"
   x2="-149.0464"
   y2="436.30301"
   id="linearGradient2602"
   xlink:href="#path166_2_"
   gradientUnits="userSpaceOnUse"
   gradientTransform="matrix(0.1875,0,0,-0.1875,51.5,83.75)" /><linearGradient
   x1="7.3056998"
   y1="7.2558999"
   x2="50.7728"
   y2="50.723099"
   id="linearGradient2604"
   xlink:href="#XMLID_1_"
   gradientUnits="userSpaceOnUse" /><linearGradient
   x1="23.503901"
   y1="2.187"
   x2="23.503901"
   y2="34.436798"
   id="linearGradient2606"
   xlink:href="#XMLID_2_"
   gradientUnits="userSpaceOnUse" /><linearGradient
   x1="-104.5933"
   y1="411.66989"
   x2="-206.815"
   y2="309.44821"
   id="linearGradient2608"
   xlink:href="#path186_2_"
   gradientUnits="userSpaceOnUse"
   gradientTransform="matrix(0.1875,0,0,-0.1875,51.5,83.75)" /><linearGradient
   x1="34.596699"
   y1="3.5967"
   x2="18.408701"
   y2="19.7847"
   id="linearGradient2610"
   xlink:href="#XMLID_3_"
   gradientUnits="userSpaceOnUse" /><linearGradient
   x1="-174.4409"
   y1="300.09079"
   x2="-108.8787"
   y2="210.2074"
   id="linearGradient2612"
   xlink:href="#path205_1_"
   gradientUnits="userSpaceOnUse"
   gradientTransform="matrix(0.1875,0,0,-0.1875,51.5,83.75)" /><linearGradient
   x1="21.8687"
   y1="25.1875"
   x2="21.8687"
   y2="44.625099"
   id="linearGradient2614"
   xlink:href="#XMLID_4_"
   gradientUnits="userSpaceOnUse" /><linearGradient
   x1="-158.03371"
   y1="288.06839"
   x2="-158.03371"
   y2="231.3219"
   id="linearGradient2616"
   xlink:href="#XMLID_5_"
   gradientUnits="userSpaceOnUse"
   gradientTransform="matrix(0.1875,0,0,-0.1875,51.5,83.75)" /><linearGradient
   x1="-68.149399"
   y1="388.45609"
   x2="-68.149399"
   y2="404.66931"
   id="linearGradient2618"
   xlink:href="#path228_1_"
   gradientUnits="userSpaceOnUse"
   gradientTransform="matrix(0.1875,0,0,-0.1875,51.5,83.75)" />
    
    
    
    
    
    <linearGradient
   x1="-149.0464"
   y1="251.1436"
   x2="-149.0464"
   y2="436.30301"
   id="path166_2_"
   gradientUnits="userSpaceOnUse"
   gradientTransform="matrix(0.1875,0,0,-0.1875,51.5,83.75)">
      <stop
   id="stop598"
   style="stop-color:#b4e2ff;stop-opacity:1"
   offset="0" />
      <stop
   id="stop599"
   style="stop-color:#006dff;stop-opacity:1"
   offset="1" />
      <a:midPointStop
   offset="0"
   style="stop-color:#B4E2FF"
   id="midPointStop600" />
      <a:midPointStop
   offset="0.5"
   style="stop-color:#B4E2FF"
   id="midPointStop601" />
      <a:midPointStop
   offset="1"
   style="stop-color:#006DFF"
   id="midPointStop602" />
    </linearGradient>
    
    
    <linearGradient
   x1="7.3056998"
   y1="7.2558999"
   x2="50.7728"
   y2="50.723099"
   id="XMLID_1_"
   gradientUnits="userSpaceOnUse">
      <stop
   id="stop606"
   style="stop-color:#94caff;stop-opacity:1"
   offset="0" />
      <stop
   id="stop607"
   style="stop-color:#006dff;stop-opacity:1"
   offset="1" />
      <a:midPointStop
   offset="0"
   style="stop-color:#94CAFF"
   id="midPointStop608" />
      <a:midPointStop
   offset="0.5"
   style="stop-color:#94CAFF"
   id="midPointStop609" />
      <a:midPointStop
   offset="1"
   style="stop-color:#006DFF"
   id="midPointStop610" />
    </linearGradient>
    
    <linearGradient
   x1="23.503901"
   y1="2.187"
   x2="23.503901"
   y2="34.436798"
   id="XMLID_2_"
   gradientUnits="userSpaceOnUse">
      <stop
   id="stop613"
   style="stop-color:#428aff;stop-opacity:1"
   offset="0" />
      <stop
   id="stop614"
   style="stop-color:#c9e6ff;stop-opacity:1"
   offset="1" />
      <a:midPointStop
   offset="0"
   style="stop-color:#428AFF"
   id="midPointStop615" />
      <a:midPointStop
   offset="0.5"
   style="stop-color:#428AFF"
   id="midPointStop616" />
      <a:midPointStop
   offset="1"
   style="stop-color:#C9E6FF"
   id="midPointStop617" />
    </linearGradient>
    
    
    <linearGradient
   x1="-104.5933"
   y1="411.66989"
   x2="-206.815"
   y2="309.44821"
   id="path186_2_"
   gradientUnits="userSpaceOnUse"
   gradientTransform="matrix(0.1875,0,0,-0.1875,51.5,83.75)">
      <stop
   id="stop621"
   style="stop-color:#cccccc;stop-opacity:1"
   offset="0" />
      <stop
   id="stop622"
   style="stop-color:#f0f0f0;stop-opacity:1"
   offset="1" />
      <a:midPointStop
   offset="0"
   style="stop-color:#CCCCCC"
   id="midPointStop623" />
      <a:midPointStop
   offset="0.5"
   style="stop-color:#CCCCCC"
   id="midPointStop624" />
      <a:midPointStop
   offset="1"
   style="stop-color:#F0F0F0"
   id="midPointStop625" />
    </linearGradient>
    
    
    <linearGradient
   x1="34.596699"
   y1="3.5967"
   x2="18.408701"
   y2="19.7847"
   id="XMLID_3_"
   gradientUnits="userSpaceOnUse">
      <stop
   id="stop629"
   style="stop-color:#ffffff;stop-opacity:1"
   offset="0" />
      <stop
   id="stop630"
   style="stop-color:#e6edff;stop-opacity:1"
   offset="0.55059999" />
      <stop
   id="stop631"
   style="stop-color:#ffffff;stop-opacity:1"
   offset="1" />
      <a:midPointStop
   offset="0"
   style="stop-color:#FFFFFF"
   id="midPointStop632" />
      <a:midPointStop
   offset="0.5"
   style="stop-color:#FFFFFF"
   id="midPointStop633" />
      <a:midPointStop
   offset="0.5506"
   style="stop-color:#E6EDFF"
   id="midPointStop634" />
      <a:midPointStop
   offset="0.5"
   style="stop-color:#E6EDFF"
   id="midPointStop635" />
      <a:midPointStop
   offset="1"
   style="stop-color:#FFFFFF"
   id="midPointStop636" />
    </linearGradient>
    
    <linearGradient
   x1="-174.4409"
   y1="300.09079"
   x2="-108.8787"
   y2="210.2074"
   id="path205_1_"
   gradientUnits="userSpaceOnUse"
   gradientTransform="matrix(0.1875,0,0,-0.1875,51.5,83.75)">
      <stop
   id="stop639"
   style="stop-color:#003399;stop-opacity:1"
   offset="0" />
      <stop
   id="stop640"
   style="stop-color:#0035ed;stop-opacity:1"
   offset="0.26969999" />
      <stop
   id="stop641"
   style="stop-color:#57adff;stop-opacity:1"
   offset="1" />
      <a:midPointStop
   offset="0"
   style="stop-color:#003399"
   id="midPointStop642" />
      <a:midPointStop
   offset="0.5"
   style="stop-color:#003399"
   id="midPointStop643" />
      <a:midPointStop
   offset="0.2697"
   style="stop-color:#0035ED"
   id="midPointStop644" />
      <a:midPointStop
   offset="0.5"
   style="stop-color:#0035ED"
   id="midPointStop645" />
      <a:midPointStop
   offset="1"
   style="stop-color:#57ADFF"
   id="midPointStop646" />
    </linearGradient>
    
    <linearGradient
   x1="21.8687"
   y1="25.1875"
   x2="21.8687"
   y2="44.625099"
   id="XMLID_4_"
   gradientUnits="userSpaceOnUse">
      <stop
   id="stop649"
   style="stop-color:#dfdfdf;stop-opacity:1"
   offset="0" />
      <stop
   id="stop650"
   style="stop-color:#7d7d99;stop-opacity:1"
   offset="1" />
      <a:midPointStop
   offset="0"
   style="stop-color:#DFDFDF"
   id="midPointStop651" />
      <a:midPointStop
   offset="0.5"
   style="stop-color:#DFDFDF"
   id="midPointStop652" />
      <a:midPointStop
   offset="1"
   style="stop-color:#7D7D99"
   id="midPointStop653" />
    </linearGradient>
    
    <linearGradient
   x1="-158.03371"
   y1="288.06839"
   x2="-158.03371"
   y2="231.3219"
   id="XMLID_5_"
   gradientUnits="userSpaceOnUse"
   gradientTransform="matrix(0.1875,0,0,-0.1875,51.5,83.75)">
      <stop
   id="stop656"
   style="stop-color:#f0f0f0;stop-opacity:1"
   offset="0" />
      <stop
   id="stop657"
   style="stop-color:#cecedb;stop-opacity:1"
   offset="0.63480002" />
      <stop
   id="stop658"
   style="stop-color:#b1b1c5;stop-opacity:1"
   offset="0.85949999" />
      <stop
   id="stop659"
   style="stop-color:#ffffff;stop-opacity:1"
   offset="1" />
      <a:midPointStop
   offset="0"
   style="stop-color:#F0F0F0"
   id="midPointStop660" />
      <a:midPointStop
   offset="0.5"
   style="stop-color:#F0F0F0"
   id="midPointStop661" />
      <a:midPointStop
   offset="0.6348"
   style="stop-color:#CECEDB"
   id="midPointStop662" />
      <a:midPointStop
   offset="0.5"
   style="stop-color:#CECEDB"
   id="midPointStop663" />
      <a:midPointStop
   offset="0.8595"
   style="stop-color:#B1B1C5"
   id="midPointStop664" />
      <a:midPointStop
   offset="0.5"
   style="stop-color:#B1B1C5"
   id="midPointStop665" />
      <a:midPointStop
   offset="1"
   style="stop-color:#FFFFFF"
   id="midPointStop666" />
    </linearGradient>
    
    <linearGradient
   x1="-68.149399"
   y1="388.45609"
   x2="-68.149399"
   y2="404.66931"
   id="path228_1_"
   gradientUnits="userSpaceOnUse"
   gradientTransform="matrix(0.1875,0,0,-0.1875,51.5,83.75)">
      <stop
   id="stop669"
   style="stop-color:#3399ff;stop-opacity:1"
   offset="0" />
      <stop
   id="stop670"
   style="stop-color:#000000;stop-opacity:1"
   offset="1" />
      <a:midPointStop
   offset="0"
   style="stop-color:#3399FF"
   id="midPointStop671" />
      <a:midPointStop
   offset="0.5"
   style="stop-color:#3399FF"
   id="midPointStop672" />
      <a:midPointStop
   offset="1"
   style="stop-color:#000000"
   id="midPointStop673" />
    </linearGradient>
    
    
  <linearGradient
   x1="-68.149399"
   y1="388.45609"
   x2="-68.149399"
   y2="404.66931"
   id="linearGradient2653"
   xlink:href="#path228_1_"
   gradientUnits="userSpaceOnUse"
   gradientTransform="matrix(0.1875,0,0,-0.1875,28.066038,80.240566)" /><linearGradient
   x1="-158.03371"
   y1="288.06839"
   x2="-158.03371"
   y2="231.3219"
   id="linearGradient2656"
   xlink:href="#XMLID_5_"
   gradientUnits="userSpaceOnUse"
   gradientTransform="matrix(0.1875,0,0,-0.1875,28.066038,80.240566)" /><linearGradient
   x1="21.8687"
   y1="25.1875"
   x2="21.8687"
   y2="44.625099"
   id="linearGradient2659"
   xlink:href="#XMLID_4_"
   gradientUnits="userSpaceOnUse"
   gradientTransform="translate(-23.433962,-3.509434)" /><linearGradient
   x1="-174.4409"
   y1="300.09079"
   x2="-108.8787"
   y2="210.2074"
   id="linearGradient2662"
   xlink:href="#path205_1_"
   gradientUnits="userSpaceOnUse"
   gradientTransform="matrix(0.1875,0,0,-0.1875,28.066038,80.240566)" /><linearGradient
   x1="34.596699"
   y1="3.5967"
   x2="18.408701"
   y2="19.7847"
   id="linearGradient2665"
   xlink:href="#XMLID_3_"
   gradientUnits="userSpaceOnUse"
   gradientTransform="translate(-23.433962,-3.509434)" /><linearGradient
   x1="23.503901"
   y1="2.187"
   x2="23.503901"
   y2="34.436798"
   id="linearGradient2671"
   xlink:href="#XMLID_2_"
   gradientUnits="userSpaceOnUse"
   gradientTransform="translate(-23.433962,-3.509434)" /><linearGradient
   x1="7.3056998"
   y1="7.2558999"
   x2="50.7728"
   y2="50.723099"
   id="linearGradient2674"
   xlink:href="#XMLID_1_"
   gradientUnits="userSpaceOnUse"
   gradientTransform="translate(-23.433962,-3.509434)" /><linearGradient
   x1="-149.0464"
   y1="251.1436"
   x2="-149.0464"
   y2="436.30301"
   id="linearGradient2678"
   xlink:href="#path166_2_"
   gradientUnits="userSpaceOnUse"
   gradientTransform="matrix(0.1875,0,0,-0.1875,28.066038,80.240566)" /><linearGradient
   x1="-149.0464"
   y1="251.1436"
   x2="-149.0464"
   y2="436.30301"
   id="linearGradient2704"
   xlink:href="#path166_2_"
   gradientUnits="userSpaceOnUse"
   gradientTransform="matrix(0.1875,0,0,-0.1875,28.066038,80.240566)" /><linearGradient
   x1="7.3056998"
   y1="7.2558999"
   x2="50.7728"
   y2="50.723099"
   id="linearGradient2706"
   xlink:href="#XMLID_1_"
   gradientUnits="userSpaceOnUse"
   gradientTransform="translate(-23.433962,-3.509434)" /><linearGradient
   x1="23.503901"
   y1="2.187"
   x2="23.503901"
   y2="34.436798"
   id="linearGradient2708"
   xlink:href="#XMLID_2_"
   gradientUnits="userSpaceOnUse"
   gradientTransform="translate(-23.433962,-3.509434)" /><linearGradient
   x1="-104.5933"
   y1="411.66989"
   x2="-206.815"
   y2="309.44821"
   id="linearGradient2710"
   xlink:href="#path186_2_"
   gradientUnits="userSpaceOnUse"
   gradientTransform="matrix(0.1875,0,0,-0.1875,51.5,83.75)" /><linearGradient
   x1="34.596699"
   y1="3.5967"
   x2="18.408701"
   y2="19.7847"
   id="linearGradient2712"
   xlink:href="#XMLID_3_"
   gradientUnits="userSpaceOnUse"
   gradientTransform="translate(-23.433962,-3.509434)" /><linearGradient
   x1="-174.4409"
   y1="300.09079"
   x2="-108.8787"
   y2="210.2074"
   id="linearGradient2714"
   xlink:href="#path205_1_"
   gradientUnits="userSpaceOnUse"
   gradientTransform="matrix(0.1875,0,0,-0.1875,28.066038,80.240566)" /><linearGradient
   x1="21.8687"
   y1="25.1875"
   x2="21.8687"
   y2="44.625099"
   id="linearGradient2716"
   xlink:href="#XMLID_4_"
   gradientUnits="userSpaceOnUse"
   gradientTransform="translate(-23.433962,-3.509434)" /><linearGradient
   x1="-158.03371"
   y1="288.06839"
   x2="-158.03371"
   y2="231.3219"
   id="linearGradient2718"
   xlink:href="#XMLID_5_"
   gradientUnits="userSpaceOnUse"
   gradientTransform="matrix(0.1875,0,0,-0.1875,28.066038,80.240566)" /><linearGradient
   x1="-68.149399"
   y1="388.45609"
   x2="-68.149399"
   y2="404.66931"
   id="linearGradient2720"
   xlink:href="#path228_1_"
   gradientUnits="userSpaceOnUse"
   gradientTransform="matrix(0.1875,0,0,-0.1875,28.066038,80.240566)" /><linearGradient
   x1="-481.70071"
   y1="-94.419403"
   x2="-360.24561"
   y2="-164.22141"
   id="linearGradient2722"
   xlink:href="#XMLID_11_"
   gradientUnits="userSpaceOnUse"
   gradientTransform="matrix(0.1991,0.98,-0.98,0.1991,91.6944,573.565)" /><linearGradient
   x1="-1375.9844"
   y1="685.38092"
   x2="-1355.0455"
   y2="706.32172"
   id="linearGradient2724"
   xlink:href="#XMLID_12_"
   gradientUnits="userSpaceOnUse"
   gradientTransform="matrix(-0.999,4.35e-2,4.35e-2,0.999,-1277.01,-496.517)" /><linearGradient
   x1="65.094704"
   y1="-0.79540002"
   x2="137.6021"
   y2="160.1823"
   id="linearGradient2726"
   xlink:href="#XMLID_13_"
   gradientUnits="userSpaceOnUse" /><linearGradient
   x1="-1336.4497"
   y1="635.79492"
   x2="-1325.3219"
   y2="622.53333"
   id="linearGradient2728"
   xlink:href="#XMLID_14_"
   gradientUnits="userSpaceOnUse"
   gradientTransform="matrix(-0.999,4.35e-2,4.35e-2,0.999,-1277.01,-496.517)" /><linearGradient
   x1="-1401.459"
   y1="595.63092"
   x2="-1354.6851"
   y2="699.47632"
   id="linearGradient2730"
   xlink:href="#XMLID_15_"
   gradientUnits="userSpaceOnUse"
   gradientTransform="matrix(-0.999,4.35e-2,4.35e-2,0.999,-1277.01,-496.517)" /><linearGradient
   x1="67.8452"
   y1="115.5361"
   x2="144.5898"
   y2="115.5361"
   id="linearGradient2732"
   xlink:href="#XMLID_16_"
   gradientUnits="userSpaceOnUse" /><linearGradient
   x1="-149.0464"
   y1="251.1436"
   x2="-149.0464"
   y2="436.30301"
   id="linearGradient2771"
   xlink:href="#path166_2_"
   gradientUnits="userSpaceOnUse"
   gradientTransform="matrix(0.1875,0,0,-0.1875,28.066038,80.240566)" /><linearGradient
   x1="7.3056998"
   y1="7.2558999"
   x2="50.7728"
   y2="50.723099"
   id="linearGradient2773"
   xlink:href="#XMLID_1_"
   gradientUnits="userSpaceOnUse"
   gradientTransform="translate(-23.433962,-3.509434)" /><linearGradient
   x1="23.503901"
   y1="2.187"
   x2="23.503901"
   y2="34.436798"
   id="linearGradient2775"
   xlink:href="#XMLID_2_"
   gradientUnits="userSpaceOnUse"
   gradientTransform="translate(-23.433962,-3.509434)" /><linearGradient
   x1="-104.5933"
   y1="411.66989"
   x2="-206.815"
   y2="309.44821"
   id="linearGradient2777"
   xlink:href="#path186_2_"
   gradientUnits="userSpaceOnUse"
   gradientTransform="matrix(0.1875,0,0,-0.1875,51.5,83.75)" /><linearGradient
   x1="34.596699"
   y1="3.5967"
   x2="18.408701"
   y2="19.7847"
   id="linearGradient2779"
   xlink:href="#XMLID_3_"
   gradientUnits="userSpaceOnUse"
   gradientTransform="translate(-23.433962,-3.509434)" /><linearGradient
   x1="-174.4409"
   y1="300.09079"
   x2="-108.8787"
   y2="210.2074"
   id="linearGradient2781"
   xlink:href="#path205_1_"
   gradientUnits="userSpaceOnUse"
   gradientTransform="matrix(0.1875,0,0,-0.1875,28.066038,80.240566)" /><linearGradient
   x1="21.8687"
   y1="25.1875"
   x2="21.8687"
   y2="44.625099"
   id="linearGradient2783"
   xlink:href="#XMLID_4_"
   gradientUnits="userSpaceOnUse"
   gradientTransform="translate(-23.433962,-3.509434)" /><linearGradient
   x1="-158.03371"
   y1="288.06839"
   x2="-158.03371"
   y2="231.3219"
   id="linearGradient2785"
   xlink:href="#XMLID_5_"
   gradientUnits="userSpaceOnUse"
   gradientTransform="matrix(0.1875,0,0,-0.1875,28.066038,80.240566)" /><linearGradient
   x1="-68.149399"
   y1="388.45609"
   x2="-68.149399"
   y2="404.66931"
   id="linearGradient2787"
   xlink:href="#path228_1_"
   gradientUnits="userSpaceOnUse"
   gradientTransform="matrix(0.1875,0,0,-0.1875,28.066038,80.240566)" /><linearGradient
   x1="-481.70071"
   y1="-94.419403"
   x2="-360.24561"
   y2="-164.22141"
   id="linearGradient2789"
   xlink:href="#XMLID_11_"
   gradientUnits="userSpaceOnUse"
   gradientTransform="matrix(0.1991,0.98,-0.98,0.1991,91.6944,573.565)" /><linearGradient
   x1="-1375.9844"
   y1="685.38092"
   x2="-1355.0455"
   y2="706.32172"
   id="linearGradient2791"
   xlink:href="#XMLID_12_"
   gradientUnits="userSpaceOnUse"
   gradientTransform="matrix(-0.999,4.35e-2,4.35e-2,0.999,-1277.01,-496.517)" /><linearGradient
   x1="65.094704"
   y1="-0.79540002"
   x2="137.6021"
   y2="160.1823"
   id="linearGradient2793"
   xlink:href="#XMLID_13_"
   gradientUnits="userSpaceOnUse" /><linearGradient
   x1="-1336.4497"
   y1="635.79492"
   x2="-1325.3219"
   y2="622.53333"
   id="linearGradient2795"
   xlink:href="#XMLID_14_"
   gradientUnits="userSpaceOnUse"
   gradientTransform="matrix(-0.999,4.35e-2,4.35e-2,0.999,-1277.01,-496.517)" /><linearGradient
   x1="-1401.459"
   y1="595.63092"
   x2="-1354.6851"
   y2="699.47632"
   id="linearGradient2797"
   xlink:href="#XMLID_15_"
   gradientUnits="userSpaceOnUse"
   gradientTransform="matrix(-0.999,4.35e-2,4.35e-2,0.999,-1277.01,-496.517)" /><linearGradient
   x1="67.8452"
   y1="115.5361"
   x2="144.5898"
   y2="115.5361"
   id="linearGradient2799"
   xlink:href="#XMLID_16_"
   gradientUnits="userSpaceOnUse" /></defs>
  
  
  
  
  <g
   transform="translate(7.2833421e-2,0.6082509)"
   id="g2734"><g
     transform="translate(23.886792,4.1886792)"
     id="g2685"><path
       d="M -14.017962,1.698566 C -16.064962,1.698566 -17.729962,3.391566 -17.729962,5.473566 L -17.729962,35.640566 C -17.729962,37.722566 -16.063962,39.415566 -14.017962,39.415566 L 15.383038,39.415566 C 17.430038,39.415566 19.095038,37.722566 19.095038,35.640566 L 19.095038,5.473566 C 19.095038,3.391566 17.430038,1.698566 15.383038,1.698566 L -14.017962,1.698566 z"
       id="path592"
       style="opacity:0.2" /><path
       d="M -14.392962,1.323566 C -16.439962,1.323566 -18.104962,3.016566 -18.104962,5.098566 L -18.104962,35.265566 C -18.104962,37.347566 -16.438962,39.040566 -14.392962,39.040566 L 15.008038,39.040566 C 17.055038,39.040566 18.720038,37.347566 18.720038,35.265566 L 18.720038,5.098566 C 18.720038,3.016566 17.055038,1.323566 15.008038,1.323566 L -14.392962,1.323566 L -14.392962,1.323566 z"
       id="path593"
       style="opacity:0.2" /><path
       d="M -14.579962,1.136566 C -16.626962,1.136566 -18.291962,2.829566 -18.291962,4.911566 L -18.291962,35.078566 C -18.291962,37.160566 -16.625962,38.853566 -14.579962,38.853566 L 14.821038,38.853566 C 16.868038,38.853566 18.533038,37.160566 18.533038,35.078566 L 18.533038,4.910566 C 18.533038,2.828566 16.868038,1.135566 14.821038,1.135566 L -14.579962,1.135566 L -14.579962,1.136566 z"
       id="path594"
       style="fill:#00008d" /><path
       d="M -14.579962,1.511566 C -16.419962,1.511566 -17.916962,3.036566 -17.916962,4.911566 L -17.916962,35.078566 C -17.916962,36.953566 -16.419962,38.478566 -14.579962,38.478566 L 14.821038,38.478566 C 16.661038,38.478566 18.158038,36.953566 18.158038,35.078566 L 18.158038,4.910566 C 18.158038,3.035566 16.661038,1.510566 14.821038,1.510566 L -14.579962,1.510566 L -14.579962,1.511566 z"
       id="path595"
       style="fill:#00008d" /><path
       d="M 17.220038,35.078566 C 17.220038,36.438566 16.146038,37.541566 14.821038,37.541566 L -14.579962,37.541566 C -15.905962,37.541566 -16.979962,36.438566 -16.979962,35.078566 L -16.979962,4.910566 C -16.979962,3.550566 -15.905962,2.448566 -14.579962,2.448566 L 14.821038,2.448566 C 16.146038,2.448566 17.220038,3.551566 17.220038,4.910566 L 17.220038,35.078566 L 17.220038,35.078566 z"
       id="path166_1_"
       style="fill:#ffffff" /><path
       d="M 17.220038,35.078566 C 17.220038,36.438566 16.146038,37.541566 14.821038,37.541566 L -14.579962,37.541566 C -15.905962,37.541566 -16.979962,36.438566 -16.979962,35.078566 L -16.979962,4.910566 C -16.979962,3.550566 -15.905962,2.448566 -14.579962,2.448566 L 14.821038,2.448566 C 16.146038,2.448566 17.220038,3.551566 17.220038,4.910566 L 17.220038,35.078566 L 17.220038,35.078566 z"
       id="path166"
       style="fill:url(#linearGradient2771)" /><path
       d="M -14.579962,3.011566 C -15.592962,3.011566 -16.416962,3.863566 -16.416962,4.911566 L -16.416962,35.078566 C -16.416962,36.126566 -15.592962,36.978566 -14.579962,36.978566 L 14.821038,36.978566 C 15.834038,36.978566 16.658038,36.125566 16.658038,35.078566 L 16.658038,4.910566 C 16.658038,3.862566 15.834038,3.010566 14.821038,3.010566 L -14.579962,3.010566 L -14.579962,3.011566 z"
       id="path604"
       style="fill:#ffffff" /><path
       d="M -14.579962,3.011566 C -15.592962,3.011566 -16.416962,3.863566 -16.416962,4.911566 L -16.416962,35.078566 C -16.416962,36.126566 -15.592962,36.978566 -14.579962,36.978566 L 14.821038,36.978566 C 15.834038,36.978566 16.658038,36.125566 16.658038,35.078566 L 16.658038,4.910566 C 16.658038,3.862566 15.834038,3.010566 14.821038,3.010566 L -14.579962,3.010566 L -14.579962,3.011566 z"
       id="path611"
       style="fill:url(#linearGradient2773)" /><path
       d="M 13.192038,3.351566 C 13.192038,3.351566 -12.991962,3.351566 -13.721962,3.351566 C -13.721962,4.055566 -13.721962,19.941566 -13.721962,20.645566 C -13.000962,20.645566 13.142038,20.645566 13.861038,20.645566 C 13.861038,19.941566 13.861038,4.055566 13.861038,3.351566 C 13.554038,3.351566 13.192038,3.351566 13.192038,3.351566 z"
       id="path618"
       style="fill:url(#linearGradient2775)" /><polygon
       points="35.809,6.486 10.221,6.486 10.221,23.405 36.788,23.405 36.788,6.486 35.809,6.486 "
       transform="translate(-23.433962,-3.509434)"
       id="path186_1_"
       style="fill:#ffffff" /><polygon
       points="35.809,6.486 10.221,6.486 10.221,23.405 36.788,23.405 36.788,6.486 35.809,6.486 "
       transform="translate(-23.433962,-3.509434)"
       id="path186"
       style="fill:url(#linearGradient2777)" /><path
       d="M -11.945962,3.509566 C -11.945962,4.207566 -11.945962,18.051566 -11.945962,18.748566 C -11.229962,18.748566 11.471038,18.748566 12.187038,18.748566 C 12.187038,18.050566 12.187038,4.207566 12.187038,3.509566 C 11.470038,3.509566 -11.229962,3.509566 -11.945962,3.509566 z"
       id="path627"
       style="fill:#ffffff;stroke:#ffffff;stroke-width:0.1875" /><path
       d="M -11.945962,3.509566 C -11.945962,4.207566 -11.945962,18.051566 -11.945962,18.748566 C -11.229962,18.748566 11.471038,18.748566 12.187038,18.748566 C 12.187038,18.050566 12.187038,4.207566 12.187038,3.509566 C 11.470038,3.509566 -11.229962,3.509566 -11.945962,3.509566 z"
       id="path637"
       style="fill:url(#linearGradient2779);stroke:#ffffff;stroke-width:0.1875" /><rect
       width="22.007"
       height="13.978"
       x="-11.279962"
       y="22.969566"
       id="path205"
       style="fill:url(#linearGradient2781)" /><path
       d="M -10.189962,23.511566 C -10.500962,23.511566 -10.752962,23.763566 -10.752962,24.074566 L -10.752962,37.178566 C -10.752962,37.490566 -10.500962,37.741566 -10.189962,37.741566 L 7.059038,37.741566 C 7.370038,37.741566 7.622038,37.490566 7.622038,37.178566 L 7.622038,24.073566 C 7.622038,23.762566 7.370038,23.510566 7.059038,23.510566 L -10.189962,23.510566 L -10.189962,23.511566 z M -4.583962,27.187566 C -4.583962,28.058566 -4.583962,32.265566 -4.583962,33.136566 C -5.266962,33.136566 -6.658962,33.136566 -7.342962,33.136566 C -7.342962,32.265566 -7.342962,28.058566 -7.342962,27.187566 C -6.658962,27.187566 -5.266962,27.187566 -4.583962,27.187566 z"
       id="path654"
       style="fill:url(#linearGradient2783)" /><path
       d="M -10.189962,24.073566 L -10.189962,37.177566 L 7.059038,37.177566 L 7.059038,24.073566 L -10.189962,24.073566 z M -4.020962,33.699566 L -7.904962,33.699566 L -7.904962,26.625566 L -4.020962,26.625566 L -4.020962,33.699566 z"
       id="path667"
       style="fill:url(#linearGradient2785)" /><rect
       width="1.784"
       height="1.785"
       x="14.39604"
       y="5.5215659"
       id="path228"
       style="fill:url(#linearGradient2787)" /></g><g
     transform="matrix(0.2072,1.69127,-1.69127,0.2072,86.2842,55.679528)"
     id="g979">
    <path
   d="M 191.924,195.984 C 180.311,159.857 178.207,153.314 177.065,151.92 C 177.184,151.996 177.354,152.098 177.354,152.098 L 98.804,64.643 C 94.609,59.993 84.799,64.999 77.449,71.619 C 70.166,78.161 64.129,87.392 68.079,92.183 L 147.023,179.726 L 147.556,179.82 L 185.324,197.422 L 193.012,199.787 L 191.924,195.984 z"
   transform="matrix(0.125,0,0,0.125,-41.5177,12.7588)"
   id="path731"
   style="opacity:0.2" />
    <path
   d="M 193.557,193.516 C 181.946,157.391 179.844,150.846 178.702,149.452 C 178.819,149.524 178.989,149.63 178.989,149.63 L 100.444,62.175 C 96.245,57.524 86.429,62.53 79.083,69.15 C 71.802,75.695 65.763,84.923 69.715,89.716 L 148.66,177.255 L 149.193,177.355 L 186.963,194.953 L 194.645,197.32 L 193.557,193.516 z"
   transform="matrix(0.125,0,0,0.125,-41.5177,12.7588)"
   id="path732"
   style="opacity:0.2" />
    <path
   d="M 186.773,191.049 C 175.16,154.922 173.06,148.377 171.91,146.981 C 172.031,147.055 172.205,147.161 172.205,147.161 L 93.653,59.704 C 89.461,55.054 79.644,60.063 72.299,66.682 C 65.016,73.224 58.978,82.453 62.93,87.247 L 141.872,174.788 L 142.407,174.884 L 180.175,192.482 L 187.861,194.849 L 186.773,191.049 z"
   transform="matrix(0.125,0,0,0.125,-41.5177,12.7588)"
   id="path733"
   style="opacity:0.2" />
    <path
   d="M 186.43,189.355 C 174.817,153.23 172.717,146.689 171.567,145.294 C 171.69,145.366 171.86,145.474 171.86,145.474 L 93.314,58.016 C 89.115,53.365 79.299,58.373 71.955,64.993 C 64.672,71.536 58.633,80.767 62.585,85.559 L 141.526,173.1 L 142.061,173.198 L 179.832,190.796 L 187.518,193.159 L 186.43,189.355 z"
   transform="matrix(0.125,0,0,0.125,-41.5177,12.7588)"
   id="path734"
   style="fill:#ffffff" />
    <path
   d="M 186.43,189.355 C 174.817,153.23 172.717,146.689 171.567,145.294 C 171.69,145.366 171.86,145.474 171.86,145.474 L 93.314,58.016 C 89.115,53.365 79.299,58.373 71.955,64.993 C 64.672,71.536 58.633,80.767 62.585,85.559 L 141.526,173.1 L 142.061,173.198 L 179.832,190.796 L 187.518,193.159 L 186.43,189.355 z"
   transform="matrix(0.125,0,0,0.125,-41.5177,12.7588)"
   id="path741"
   style="fill:url(#linearGradient2789)" />
    <path
   d="M 166.969,147.762 L 180.692,185.891 L 144.321,167.989 L 144.489,167.837 C 144.239,167.757 143.993,167.659 143.788,167.521 L 143.663,167.642 L 68.36,84.072 L 68.483,83.968 C 66.237,81.478 69.515,74.874 75.791,69.216 C 82.071,63.564 88.971,60.997 91.216,63.483 L 166.508,147.048 L 166.969,147.762 z"
   transform="matrix(0.125,0,0,0.125,-41.5177,12.7588)"
   id="path748"
   style="fill:url(#linearGradient2791)" />
    <path
   d="M 148.652,170.121 C 150.728,169.752 153.287,168.642 155.904,166.982 C 157.521,165.964 159.183,164.699 160.802,163.238 C 162.257,161.935 163.538,160.572 164.642,159.228 C 166.718,156.697 167.964,154.015 168.423,151.804 L 166.968,147.761 L 166.505,147.046 L 91.707,64.028 C 92.315,66.268 90.745,69.966 87.644,73.768 C 86.51,75.157 85.203,76.557 83.699,77.909 C 82.125,79.328 80.504,80.561 78.932,81.563 C 74.439,84.434 70.304,85.491 68.384,84.049 L 68.359,84.07 L 143.662,167.64 L 143.787,167.519 C 143.992,167.658 144.238,167.755 144.488,167.835 L 144.32,167.987 L 148.652,170.121 z"
   transform="matrix(0.125,0,0,0.125,-41.5177,12.7588)"
   id="path758"
   style="fill:url(#linearGradient2793)" />
    <path
   d="M 68.083,83.41 C 69.815,85.182 74.077,84.186 78.726,81.216 C 80.267,80.234 81.858,79.023 83.403,77.63 C 84.879,76.305 86.162,74.929 87.275,73.567 C 90.853,69.179 92.366,64.925 90.752,62.983 L 90.775,62.959 L 166.592,147.078 C 167.227,149.34 166.004,153.576 162.838,157.435 C 161.756,158.753 160.498,160.091 159.068,161.369 C 157.48,162.803 155.849,164.045 154.261,165.045 C 149.521,168.051 144.958,169.244 143.245,167.346 C 142.852,166.907 141.147,165.01 141.1,164.94 L 67.845,83.626 L 68.083,83.41 z"
   transform="matrix(0.125,0,0,0.125,-41.5177,12.7588)"
   id="path759"
   style="fill:#ffffff" />
    <path
   d="M 75.79,69.215 C 82.07,63.563 88.97,60.996 91.215,63.482 L 108.176,82.31 L 109.328,108.8 L 91.355,109.584 L 68.359,84.071 L 68.482,83.967 C 66.236,81.477 69.514,74.874 75.79,69.215 z"
   transform="matrix(0.125,0,0,0.125,-41.5177,12.7588)"
   id="path760"
   style="fill:#ffffff" />
    <path
   d="M 68.083,83.41 C 69.815,85.182 74.077,84.186 78.726,81.216 C 80.267,80.234 81.858,79.023 83.403,77.63 C 84.879,76.305 86.162,74.929 87.275,73.567 C 90.853,69.179 92.366,64.925 90.752,62.983 L 90.775,62.959 L 166.592,147.078 C 167.227,149.34 166.004,153.576 162.838,157.435 C 161.756,158.753 160.498,160.091 159.068,161.369 C 157.48,162.803 155.849,164.045 154.261,165.045 C 149.521,168.051 144.958,169.244 143.245,167.346 C 142.852,166.907 141.147,165.01 141.1,164.94 L 67.845,83.626 L 68.083,83.41 z"
   transform="matrix(0.125,0,0,0.125,-41.5177,12.7588)"
   id="path761"
   style="fill:#ffffff" />
    <path
   d="M 75.79,69.215 C 82.07,63.563 88.97,60.996 91.215,63.482 L 108.176,82.31 L 109.328,108.8 L 91.355,109.584 L 68.359,84.071 L 68.482,83.967 C 66.236,81.477 69.514,74.874 75.79,69.215 z"
   transform="matrix(0.125,0,0,0.125,-41.5177,12.7588)"
   id="path768"
   style="fill:url(#linearGradient2795)" />
    <path
   d="M 68.083,83.41 C 69.815,85.182 74.077,84.186 78.726,81.216 C 80.267,80.234 81.858,79.023 83.403,77.63 C 84.879,76.305 86.162,74.929 87.275,73.567 C 90.853,69.179 92.366,64.925 90.752,62.983 L 90.775,62.959 L 166.592,147.078 C 167.227,149.34 166.004,153.576 162.838,157.435 C 161.756,158.753 160.498,160.091 159.068,161.369 C 157.48,162.803 155.849,164.045 154.261,165.045 C 149.521,168.051 144.958,169.244 143.245,167.346 C 142.852,166.907 141.147,165.01 141.1,164.94 L 67.845,83.626 L 68.083,83.41 z"
   transform="matrix(0.125,0,0,0.125,-41.5177,12.7588)"
   id="path778"
   style="fill:url(#linearGradient2797)" />
    <path
   d="M 74.357,90.713 C 74.357,90.713 80.393,90.501 85.042,87.531 C 86.584,86.548 88.174,85.338 89.719,83.945 C 91.196,82.619 92.479,81.244 93.592,79.881 C 96.52,76.292 98.061,72.793 97.641,70.574 L 90.776,62.957 L 90.753,62.981 C 92.367,64.923 90.855,69.177 87.276,73.565 C 86.163,74.927 84.88,76.303 83.404,77.628 C 81.859,79.021 80.268,80.232 78.727,81.214 C 74.079,84.185 69.817,85.181 68.084,83.408 L 67.846,83.625 L 141.102,164.936 C 141.149,165.006 142.854,166.903 143.247,167.342 C 143.589,167.719 144.046,167.969 144.591,168.113 L 74.357,90.713 z"
   transform="matrix(0.125,0,0,0.125,-41.5177,12.7588)"
   id="path790"
   style="fill:url(#linearGradient2799)" />
    <path
   d="M 172.035,175.354 C 170.4,176.831 168.728,178.118 167.086,179.194 L 180.691,185.891 L 175.595,171.735 C 174.537,172.953 173.352,174.176 172.035,175.354 z"
   transform="matrix(0.125,0,0,0.125,-41.5177,12.7588)"
   id="path791"
   style="fill:#003333" />
    <path
   d="M 163.121,157.053 L 86.968,73.93 C 87.068,73.81 87.181,73.688 87.275,73.566 C 88.703,71.814 89.795,70.076 90.5,68.508 L 166.268,151.215 C 165.715,153.039 164.668,155.082 163.121,157.053 z"
   transform="matrix(0.125,0,0,0.125,-41.5177,12.7588)"
   id="path792"
   style="opacity:0.5;fill:#ffffff" />
    <path
   d="M 87.275,73.566 C 87.909,72.792 88.464,72.018 88.969,71.266 L 164.984,154.24 C 164.406,155.303 163.701,156.386 162.838,157.433 C 162.094,158.329 161.272,159.238 160.373,160.13 L 84.152,76.932 C 85.316,75.824 86.361,74.692 87.275,73.566 z"
   transform="matrix(0.125,0,0,0.125,-41.5177,12.7588)"
   id="path793"
   style="opacity:0.5;fill:#ffffff" />
  </g></g>
</svg>
