<?xml version="1.0" encoding="UTF-8" standalone="no"?>
<svg
   xmlns:dc="http://purl.org/dc/elements/1.1/"
   xmlns:cc="http://creativecommons.org/ns#"
   xmlns:rdf="http://www.w3.org/1999/02/22-rdf-syntax-ns#"
   xmlns:svg="http://www.w3.org/2000/svg"
   xmlns="http://www.w3.org/2000/svg"
   xmlns:sodipodi="http://sodipodi.sourceforge.net/DTD/sodipodi-0.dtd"
   xmlns:inkscape="http://www.inkscape.org/namespaces/inkscape"
   width="512"
   height="512"
   id="svg2"
   version="1.1"
   inkscape:version="0.48.2 r9819"
   sodipodi:docname="PointMarkerList.svg">
  <metadata
     id="metadata42">
    <rdf:RDF>
      <cc:Work
         rdf:about="">
        <dc:format>image/svg+xml</dc:format>
        <dc:type
           rdf:resource="http://purl.org/dc/dcmitype/StillImage" />
      </cc:Work>
    </rdf:RDF>
  </metadata>
  <sodipodi:namedview
     pagecolor="#ffffff"
     bordercolor="#666666"
     borderopacity="1"
     objecttolerance="10"
     gridtolerance="10"
     guidetolerance="10"
     inkscape:pageopacity="0"
     inkscape:pageshadow="2"
     inkscape:window-width="2460"
     inkscape:window-height="1083"
     id="namedview40"
     showgrid="false"
     inkscape:zoom="0.65186406"
     inkscape:cx="-4.0235378"
     inkscape:cy="256"
     inkscape:window-x="0"
     inkscape:window-y="0"
     inkscape:window-maximized="0"
     inkscape:current-layer="svg2" />
  <defs
     id="defs4">
    <clipPath
       clipPathUnits="userSpaceOnUse"
       id="clipPath6">
      <path
         fill="#0f0"
         stroke="#0f0"
         color="#000"
         stroke-width="2.033"
         d="m141.1284,537.5701c-33.6977-14.7314-74.1905-1.9343-90.4551,28.587-16.2646,30.5213-2.1355,67.1971 31.5621,81.9285 33.6977,14.7314 74.1905,1.9343 90.4551-28.587 16.2646-30.5213 2.1355-67.1971-31.5621-81.9285zm-8.9572,16.8087c23.4461,10.2498 33.3001,35.7639 21.9836,56.9999-11.3165,21.236-39.516,30.148-62.962,19.8982-23.4461-10.2498-33.2856-35.7911-21.9691-57.0271 11.3165-21.236 39.5015-30.1208 62.9476-19.871zm8.9572-16.8087c-33.6977-14.7314-74.1905-1.9343-90.4551,28.587-16.2646,30.5213-2.1355,67.1971 31.5621,81.9285 33.6977,14.7314 74.1905,1.9343 90.4551-28.587 16.2646-30.5213 2.1355-67.1971-31.5621-81.9285zm-8.9645,16.8223c23.4461,10.2498 33.3001,35.7639 21.9836,56.9999-11.3165,21.236-39.516,30.1481-62.9621,19.8983-23.4461-10.2498-33.2856-35.7912-21.9691-57.0272 11.3165-21.236 39.5015-30.1208 62.9476-19.871z"
         id="path8" />
    </clipPath>
    <clipPath
       clipPathUnits="userSpaceOnUse"
       id="clipPath10">
      <path
         fill="none"
         stroke="#0f0"
         color="#000"
         stroke-width="2.399"
         d="m-1232.6874,355.1505c29.2402,0 52.96,23.6823 52.96,52.9226 0,29.2402-23.7198,52.9599-52.96,52.9599-29.2403,0-52.96-23.7197-52.96-52.9599 0-29.2403 23.7197-52.9226 52.96-52.9226z"
         id="path12" />
    </clipPath>
    <clipPath
       clipPathUnits="userSpaceOnUse"
       id="clipPath14">
      <path
         fill="#0f0"
         stroke="#0f0"
         color="#000"
         stroke-width="2.033"
         d="m141.1284,537.5701c-33.6977-14.7314-74.1905-1.9343-90.4551,28.587-16.2646,30.5213-2.1355,67.1971 31.5621,81.9285 33.6977,14.7314 74.1905,1.9343 90.4551-28.587 16.2646-30.5213 2.1355-67.1971-31.5621-81.9285zm-8.9572,16.8087c23.4461,10.2498 33.3001,35.7639 21.9836,56.9999-11.3165,21.236-39.516,30.148-62.962,19.8982-23.4461-10.2498-33.2856-35.7911-21.9691-57.0271 11.3165-21.236 39.5015-30.1208 62.9476-19.871zm8.9572-16.8087c-33.6977-14.7314-74.1905-1.9343-90.4551,28.587-16.2646,30.5213-2.1355,67.1971 31.5621,81.9285 33.6977,14.7314 74.1905,1.9343 90.4551-28.587 16.2646-30.5213 2.1355-67.1971-31.5621-81.9285zm-8.9645,16.8223c23.4461,10.2498 33.3001,35.7639 21.9836,56.9999-11.3165,21.236-39.516,30.1481-62.9621,19.8983-23.4461-10.2498-33.2856-35.7912-21.9691-57.0272 11.3165-21.236 39.5015-30.1208 62.9476-19.871z"
         id="path16" />
    </clipPath>
    <clipPath
       clipPathUnits="userSpaceOnUse"
       id="clipPath18">
      <path
         fill="none"
         stroke="#0f0"
         color="#000"
         stroke-width="2.399"
         d="m-1232.6874,355.1505c29.2402,0 52.96,23.6823 52.96,52.9226 0,29.2402-23.7198,52.9599-52.96,52.9599-29.2403,0-52.96-23.7197-52.96-52.9599 0-29.2403 23.7197-52.9226 52.96-52.9226z"
         id="path20" />
    </clipPath>
  </defs>
  <g
     id="g3132">
    <path
       d="M 40.0271,103.9998 H 471.973 A 0.0271,0.0097 0 0 1 472,104.0098 V 471.9878 A 0.0271,0.0097 0 0 1 471.973,471.9978 H 40.0271 A 0.0271,0.0097 0 0 1 40,471.9878 V 104.0098 A 0.0271,0.0097 0 0 1 40.0271,103.9998"
       id="path24"
       inkscape:connector-curvature="0"
       style="fill:#ffffff;stroke:#000000;stroke-width:8;stroke-linecap:square;stroke-dashoffset:354.331" />
    <path
       d="M 40.0271,40 H 471.973 A 0.0271,0.0114 0 0 1 472,40.0114 V 103.989 A 0.0271,0.0114 0 0 1 471.973,104 H 40.0271 A 0.0271,0.0114 0 0 1 40,103.989 V 40.0114 A 0.0271,0.0114 0 0 1 40.0271,40"
       id="path26"
       inkscape:connector-curvature="0"
       style="stroke:#000000;stroke-width:8;stroke-linecap:square;stroke-dashoffset:354.331" />
    <path
       d="M 40.004,39.9998 H 103.996 A 0.00223607,0 206.56505 0 0 104,40.0018 V 103.9978 A 0.00223607,0 333.43495 0 0 103.996,103.9998 H 40.004 A 0.00223607,0 26.565051 0 0 40,103.9978 V 40.0018 A 0.00223607,0 153.43495 0 0 40.004,39.9998"
       id="path28"
       inkscape:connector-curvature="0"
       style="fill:#ffffff;stroke:#000000;stroke-width:8;stroke-linecap:square;stroke-dashoffset:354.331" />
  </g>
  <g
     id="g3121"
     transform="matrix(0.75,0,0,0.75,64,85.346259)">
    <path
       d="M 208,392 C 208,392 304,392 304,392"
       id="path20-3"
       inkscape:connector-curvature="0"
       style="fill:none;stroke:#000000;stroke-width:16;stroke-linecap:square" />
    <path
       d="M 256,440 256,344"
       id="path22"
       inkscape:connector-curvature="0"
       style="fill:none;stroke:#000000;stroke-width:16;stroke-linecap:square" />
    <g
       id="text3007"
       style="font-size:233.7046051px;font-style:normal;font-variant:normal;font-weight:normal;font-stretch:normal;line-height:125%;letter-spacing:0px;word-spacing:0px;fill:#000000;fill-opacity:1;stroke:none;font-family:Arial;-inkscape-font-specification:Arial">
      <path
         id="path3074"
         style="font-weight:bold;font-family:Planer;-inkscape-font-specification:Planer Bold"
         d="M 181.39345,194.76939 117.8258,194.76939 C 126.23916,167.42598 135.35365,137.27803 143.53331,109.93462 144.70183,107.83128 147.27258,105.26053 149.60963,105.26053 151.94667,105.26053 154.51742,107.59758 155.68595,109.93462 L 181.39345,194.76939 M 168.07229,105.96164 C 165.73525,98.015695 158.49039,92.406776 149.60963,92.406776 140.96256,92.406776 133.48401,98.015695 131.14696,105.96164 116.89099,153.40363 102.16758,200.61206 88.145314,247.82034 87.91161,248.52145 87.91161,249.22257 87.91161,249.92368 87.91161,252.96184 90.949773,256 93.987929,256 96.792382,256 99.363136,253.89666 100.29795,251.79332 L 113.85282,207.15574 184.89902,207.15574 199.155,251.79332 C 200.08982,253.66295 202.66057,256 204.99762,256 208.50318,256 211.30764,252.96184 211.30764,249.92368 211.30764,249.68998 211.07394,248.75516 211.07394,248.52145 L 168.07229,105.96164"
         inkscape:connector-curvature="0" />
      <path
         id="path3076"
         style="font-weight:bold;font-family:Planer;-inkscape-font-specification:Planer Bold"
         d="M 234.8899,246.18441 C 234.8899,251.3259 239.56399,256 244.70549,256 L 285.6038,256 C 312.94721,256 322.76283,229.12395 322.76283,212.06353 L 322.76283,176.07303 C 322.76283,151.30036 305.70237,137.04436 286.0712,137.04436 L 247.27624,137.04436 247.27624,100.58644 C 247.27624,96.847168 244.47178,94.276413 240.96622,94.276413 237.69435,94.276413 234.8899,96.847168 234.8899,100.58644 L 234.8899,246.18441 M 247.27624,148.72959 286.0712,148.72959 C 299.15865,148.72959 310.37648,159.71372 310.37648,176.07303 L 310.37648,211.36242 C 310.37648,230.52618 299.85976,243.61366 285.6038,243.61366 L 247.27624,243.61366 247.27624,148.72959"
         inkscape:connector-curvature="0" />
      <path
         id="path3078"
         style="font-weight:bold;font-family:Planer;-inkscape-font-specification:Planer Bold"
         d="M 391.83716,137.04436 C 360.98818,137.04436 346.26476,153.40371 346.26476,184.7201 L 346.26476,206.68833 C 346.26476,240.34176 361.22188,256 391.83716,256 L 418.24578,256 C 421.75134,256 424.08839,253.42925 424.08839,250.15738 424.08839,246.88552 421.75134,244.31477 418.24578,244.31477 L 391.83716,244.31477 C 369.63524,244.31477 358.4174,230.99358 358.4174,206.92203 L 358.4174,184.7201 C 358.4174,161.81707 368.46672,148.72959 391.83716,148.72959 L 418.24578,148.72959 C 421.75134,148.72959 424.08839,146.39254 424.08839,142.88697 424.08839,139.61511 421.75134,137.04436 418.24578,137.04436 L 391.83716,137.04436"
         inkscape:connector-curvature="0" />
    </g>
  </g>
</svg>
