<?xml version="1.0" encoding="UTF-8" standalone="no"?>
<!-- Created with Inkscape (http://www.inkscape.org/) -->

<svg
   xmlns:dc="http://purl.org/dc/elements/1.1/"
   xmlns:cc="http://creativecommons.org/ns#"
   xmlns:rdf="http://www.w3.org/1999/02/22-rdf-syntax-ns#"
   xmlns:svg="http://www.w3.org/2000/svg"
   xmlns="http://www.w3.org/2000/svg"
   xmlns:xlink="http://www.w3.org/1999/xlink"
   xmlns:sodipodi="http://sodipodi.sourceforge.net/DTD/sodipodi-0.dtd"
   xmlns:inkscape="http://www.inkscape.org/namespaces/inkscape"
   width="512"
   height="512"
   id="svg249"
   sodipodi:version="0.32"
   inkscape:version="0.48.2 r9819"
   sodipodi:docname="Create.svg"
   inkscape:export-filename="/home/jimmac/gfx/novell/pdes/trunk/docs/BIGmime-text.png"
   inkscape:export-xdpi="240.00000"
   inkscape:export-ydpi="240.00000"
   inkscape:output_extension="org.inkscape.output.svg.inkscape"
   version="1.1">
  <defs
     id="defs3"><linearGradient
   id="linearGradient5891">
  <stop
     id="stop5893"
     offset="0"
     style="stop-color:#ffffff;stop-opacity:1;" />
  <stop
     id="stop5895"
     offset="1"
     style="stop-color:#ffffff;stop-opacity:0;" />
</linearGradient>
<linearGradient
   id="linearGradient2308">
  <stop
     id="stop2310"
     offset="0"
     style="stop-color:#edd400;stop-opacity:1;" />
  <stop
     id="stop2312"
     offset="1"
     style="stop-color:#fff492;stop-opacity:1;" />
</linearGradient>
<inkscape:perspective
   sodipodi:type="inkscape:persp3d"
   inkscape:vp_x="0 : 24 : 1"
   inkscape:vp_y="0 : 1000 : 0"
   inkscape:vp_z="48 : 24 : 1"
   inkscape:persp3d-origin="24 : 16 : 1"
   id="perspective69" />
<linearGradient
   inkscape:collect="always"
   id="linearGradient5060">
  <stop
     style="stop-color:black;stop-opacity:1;"
     offset="0"
     id="stop5062" />
  <stop
     style="stop-color:black;stop-opacity:0;"
     offset="1"
     id="stop5064" />
</linearGradient>
<linearGradient
   id="linearGradient5048">
  <stop
     style="stop-color:black;stop-opacity:0;"
     offset="0"
     id="stop5050" />
  <stop
     id="stop5056"
     offset="0.5"
     style="stop-color:black;stop-opacity:1;" />
  <stop
     style="stop-color:black;stop-opacity:0;"
     offset="1"
     id="stop5052" />
</linearGradient>
<linearGradient
   inkscape:collect="always"
   id="linearGradient4542">
  <stop
     style="stop-color:#000000;stop-opacity:1;"
     offset="0"
     id="stop4544" />
  <stop
     style="stop-color:#000000;stop-opacity:0;"
     offset="1"
     id="stop4546" />
</linearGradient>
<radialGradient
   inkscape:collect="always"
   xlink:href="#linearGradient4542"
   id="radialGradient4548"
   cx="24.306795"
   cy="42.07798"
   fx="24.306795"
   fy="42.07798"
   r="15.821514"
   gradientTransform="matrix(1,0,0,0.284916,0,30.08928)"
   gradientUnits="userSpaceOnUse" />
<linearGradient
   id="linearGradient15662">
  <stop
     style="stop-color:#ffffff;stop-opacity:1.0000000;"
     offset="0.0000000"
     id="stop15664" />
  <stop
     style="stop-color:#f8f8f8;stop-opacity:1.0000000;"
     offset="1.0000000"
     id="stop15666" />
</linearGradient>
<radialGradient
   gradientUnits="userSpaceOnUse"
   fy="64.567902"
   fx="20.892099"
   r="5.257"
   cy="64.567902"
   cx="20.892099"
   id="aigrd3">
  <stop
     id="stop15573"
     style="stop-color:#F0F0F0"
     offset="0" />
  <stop
     id="stop15575"
     style="stop-color:#9a9a9a;stop-opacity:1.0000000;"
     offset="1.0000000" />
</radialGradient>
<radialGradient
   gradientUnits="userSpaceOnUse"
   fy="114.5684"
   fx="20.892099"
   r="5.256"
   cy="114.5684"
   cx="20.892099"
   id="aigrd2">
  <stop
     id="stop15566"
     style="stop-color:#F0F0F0"
     offset="0" />
  <stop
     id="stop15568"
     style="stop-color:#9a9a9a;stop-opacity:1.0000000;"
     offset="1.0000000" />
</radialGradient>
<linearGradient
   id="linearGradient269">
  <stop
     style="stop-color:#a3a3a3;stop-opacity:1.0000000;"
     offset="0.0000000"
     id="stop270" />
  <stop
     style="stop-color:#4c4c4c;stop-opacity:1.0000000;"
     offset="1.0000000"
     id="stop271" />
</linearGradient>
<linearGradient
   id="linearGradient259">
  <stop
     style="stop-color:#fafafa;stop-opacity:1.0000000;"
     offset="0.0000000"
     id="stop260" />
  <stop
     style="stop-color:#bbbbbb;stop-opacity:1.0000000;"
     offset="1.0000000"
     id="stop261" />
</linearGradient>
<linearGradient
   id="linearGradient12512">
  <stop
     style="stop-color:#ffffff;stop-opacity:1.0000000;"
     offset="0.0000000"
     id="stop12513" />
  <stop
     style="stop-color:#fff520;stop-opacity:0.89108908;"
     offset="0.50000000"
     id="stop12517" />
  <stop
     style="stop-color:#fff300;stop-opacity:0.0000000;"
     offset="1.0000000"
     id="stop12514" />
</linearGradient>
<linearGradient
   inkscape:collect="always"
   xlink:href="#linearGradient5048"
   id="linearGradient2763"
   gradientUnits="userSpaceOnUse"
   gradientTransform="matrix(2.774389,0,0,1.969706,-1892.179,-872.8854)"
   x1="302.85715"
   y1="366.64789"
   x2="302.85715"
   y2="609.50507" />
<radialGradient
   inkscape:collect="always"
   xlink:href="#linearGradient5060"
   id="radialGradient2765"
   gradientUnits="userSpaceOnUse"
   gradientTransform="matrix(2.774389,0,0,1.969706,-1891.633,-872.8854)"
   cx="605.71429"
   cy="486.64789"
   fx="605.71429"
   fy="486.64789"
   r="117.14286" />
<radialGradient
   inkscape:collect="always"
   xlink:href="#linearGradient5060"
   id="radialGradient2767"
   gradientUnits="userSpaceOnUse"
   gradientTransform="matrix(-2.774389,0,0,1.969706,112.7623,-872.8854)"
   cx="605.71429"
   cy="486.64789"
   fx="605.71429"
   fy="486.64789"
   r="117.14286" />
<radialGradient
   inkscape:collect="always"
   xlink:href="#linearGradient259"
   id="radialGradient2769"
   gradientUnits="userSpaceOnUse"
   gradientTransform="scale(0.960493,1.041132)"
   cx="33.966679"
   cy="35.736916"
   fx="33.966679"
   fy="35.736916"
   r="86.70845" />
<radialGradient
   inkscape:collect="always"
   xlink:href="#linearGradient269"
   id="radialGradient2771"
   gradientUnits="userSpaceOnUse"
   gradientTransform="matrix(0.968273,0,0,1.032767,3.353553,0.646447)"
   cx="8.824419"
   cy="3.7561285"
   fx="8.824419"
   fy="3.7561285"
   r="37.751713" />
<radialGradient
   inkscape:collect="always"
   xlink:href="#linearGradient15662"
   id="radialGradient2773"
   gradientUnits="userSpaceOnUse"
   gradientTransform="matrix(0.968273,0,0,1.032767,3.353553,0.646447)"
   cx="8.1435566"
   cy="7.2678967"
   fx="8.1435566"
   fy="7.2678967"
   r="38.158695" />
<radialGradient
   inkscape:collect="always"
   xlink:href="#aigrd2"
   id="radialGradient2775"
   gradientUnits="userSpaceOnUse"
   gradientTransform="matrix(0.229703,0,0,0.229703,4.613529,3.979808)"
   cx="20.892099"
   cy="114.5684"
   fx="20.892099"
   fy="114.5684"
   r="5.256" />
<radialGradient
   inkscape:collect="always"
   xlink:href="#aigrd3"
   id="radialGradient2777"
   gradientUnits="userSpaceOnUse"
   gradientTransform="matrix(0.229703,0,0,0.229703,4.613529,3.979808)"
   cx="20.892099"
   cy="64.567902"
   fx="20.892099"
   fy="64.567902"
   r="5.257" />
<inkscape:perspective
   id="perspective2898"
   inkscape:persp3d-origin="0.5 : 0.33333333 : 1"
   inkscape:vp_z="1 : 0.5 : 1"
   inkscape:vp_y="0 : 1000 : 0"
   inkscape:vp_x="0 : 0.5 : 1"
   sodipodi:type="inkscape:persp3d" />
<linearGradient
   id="linearGradient2308-7">
  <stop
     id="stop2310-3"
     offset="0"
     style="stop-color:#0043ed;stop-opacity:1;" />
  <stop
     id="stop2312-6"
     offset="1"
     style="stop-color:#92acff;stop-opacity:1;" />
</linearGradient>
<linearGradient
   inkscape:collect="always"
   id="linearGradient3261-2">
  <stop
     style="stop-color:#ffffff;stop-opacity:1;"
     offset="0"
     id="stop3263-9" />
  <stop
     style="stop-color:#ffffff;stop-opacity:0;"
     offset="1"
     id="stop3265-3" />
</linearGradient>
<linearGradient
   inkscape:collect="always"
   xlink:href="#linearGradient5891-9"
   id="linearGradient2406-1"
   gradientUnits="userSpaceOnUse"
   gradientTransform="translate(10.000001,12.000001)"
   x1="23.9375"
   y1="11.21875"
   x2="32.5625"
   y2="14.09375" />
<linearGradient
   id="linearGradient5891-9">
  <stop
     id="stop5893-4"
     offset="0"
     style="stop-color:#ffffff;stop-opacity:1;" />
  <stop
     id="stop5895-7"
     offset="1"
     style="stop-color:#ffffff;stop-opacity:0;" />
</linearGradient>
<linearGradient
   inkscape:collect="always"
   xlink:href="#linearGradient2308-7"
   id="linearGradient3747"
   gradientUnits="userSpaceOnUse"
   gradientTransform="matrix(0,-7.3935794,7.3043986,0,633.19405,-4.6809755)"
   x1="22.312141"
   y1="20.909737"
   x2="22.312141"
   y2="24.184505" />
<linearGradient
   inkscape:collect="always"
   xlink:href="#linearGradient3261-2"
   id="linearGradient3749"
   gradientUnits="userSpaceOnUse"
   gradientTransform="matrix(0,-10.66666,-10.66666,0,1034.6665,117.6665)"
   x1="31.246544"
   y1="21.75"
   x2="49.086681"
   y2="43.582108" />
<linearGradient
   inkscape:collect="always"
   xlink:href="#linearGradient5891-9"
   id="linearGradient3751"
   gradientUnits="userSpaceOnUse"
   gradientTransform="matrix(0,-10.66666,-10.66666,0,917.33327,10.999889)"
   x1="23.9375"
   y1="11.21875"
   x2="32.5625"
   y2="14.09375" />
<radialGradient
   inkscape:collect="always"
   xlink:href="#linearGradient15662"
   id="radialGradient3084"
   gradientUnits="userSpaceOnUse"
   gradientTransform="matrix(9.4751336,0,0,10.106246,56.408811,-449.73926)"
   cx="8.1435566"
   cy="7.2678967"
   fx="8.1435566"
   fy="7.2678967"
   r="38.158695" />
<radialGradient
   inkscape:collect="always"
   xlink:href="#linearGradient259"
   id="radialGradient3087"
   gradientUnits="userSpaceOnUse"
   gradientTransform="matrix(9.3990016,0,0,10.188103,23.592278,-456.06513)"
   cx="33.966679"
   cy="35.736916"
   fx="33.966679"
   fy="35.736916"
   r="86.70845" />
<radialGradient
   inkscape:collect="always"
   xlink:href="#linearGradient269"
   id="radialGradient3089"
   gradientUnits="userSpaceOnUse"
   gradientTransform="matrix(9.4751336,0,0,10.106246,56.408811,-449.73926)"
   cx="8.824419"
   cy="3.7561285"
   fx="8.824419"
   fy="3.7561285"
   r="37.751713" />
<inkscape:perspective
   sodipodi:type="inkscape:persp3d"
   inkscape:vp_x="0 : 526.18109 : 1"
   inkscape:vp_y="0 : 1000 : 0"
   inkscape:vp_z="744.09448 : 526.18109 : 1"
   inkscape:persp3d-origin="372.04724 : 350.78739 : 1"
   id="perspective2456" />

		
	
			
			
			
			
			
			
		<inkscape:perspective
   id="perspective13"
   inkscape:persp3d-origin="24 : 16 : 1"
   inkscape:vp_z="48 : 24 : 1"
   inkscape:vp_y="0 : 1000 : 0"
   inkscape:vp_x="0 : 24 : 1"
   sodipodi:type="inkscape:persp3d" />
</defs>
  <sodipodi:namedview
     id="base"
     pagecolor="#ffffff"
     bordercolor="#666666"
     borderopacity="0.32941176"
     inkscape:pageopacity="0.0"
     inkscape:pageshadow="2"
     inkscape:zoom="1"
     inkscape:cx="205.74688"
     inkscape:cy="242.0877"
     inkscape:current-layer="layer1"
     showgrid="true"
     inkscape:grid-bbox="true"
     inkscape:document-units="px"
     inkscape:window-width="1283"
     inkscape:window-height="776"
     inkscape:window-x="1100"
     inkscape:window-y="180"
     inkscape:showpageshadow="false"
     inkscape:window-maximized="0">
    <inkscape:grid
       type="xygrid"
       id="grid3678"
       empspacing="5"
       visible="true"
       enabled="true"
       snapvisiblegridlinesonly="true"
       spacingx="16px"
       spacingy="16px" />
  </sodipodi:namedview>
  <metadata
     id="metadata4">
    <rdf:RDF>
      <cc:Work
         rdf:about="">
        <dc:format>image/svg+xml</dc:format>
        <dc:type
           rdf:resource="http://purl.org/dc/dcmitype/StillImage" />
        <dc:title></dc:title>
        <dc:creator>
          <cc:Agent>
            <dc:title>Jakub Steiner</dc:title>
          </cc:Agent>
        </dc:creator>
        <dc:source>http://jimmac.musichall.cz</dc:source>
        <cc:license
           rdf:resource="http://creativecommons.org/licenses/publicdomain/" />
      </cc:Work>
      <cc:License
         rdf:about="http://creativecommons.org/licenses/publicdomain/">
        <cc:permits
           rdf:resource="http://creativecommons.org/ns#Reproduction" />
        <cc:permits
           rdf:resource="http://creativecommons.org/ns#Distribution" />
        <cc:permits
           rdf:resource="http://creativecommons.org/ns#DerivativeWorks" />
      </cc:License>
    </rdf:RDF>
  </metadata>
  <g
     inkscape:label="Shadow"
     id="layer6"
     inkscape:groupmode="layer"
     transform="translate(0,464)" />
  <g
     id="layer1"
     inkscape:label="Base"
     inkscape:groupmode="layer"
     style="display:inline"
     transform="translate(0,464)">
    <g
       id="g3133"
       transform="matrix(10.666667,0,0,10.666667,8.3641343,-469.30031)">
      <rect
         transform="matrix(0.70710678,-0.70710678,0.70710678,0.70710678,0,0)"
         y="26.067984"
         x="-20.07473"
         height="14.945169"
         width="38.631855"
         id="rect3595"
         style="opacity:0.8;color:#000000;fill:#ffffff;fill-opacity:1;fill-rule:evenodd;stroke:none;stroke-width:16;marker:none;visibility:visible;display:inline;overflow:visible;enable-background:accumulate" />
      <path
         sodipodi:nodetypes="cssssssscccccccccccsscccsssscccccccssccccccc"
         style="fill:#f0f0f0;fill-opacity:1"
         d="M 20.186228,44.126461 C 9.3734035,43.699141 2.3650463,41.669102 4.5700892,39.603095 5.1165373,39.091097 6.7442177,38.353705 7.9003323,38.09438 8.4201197,37.977788 8.8454009,37.833405 8.8454011,37.773528 8.8454026,37.713648 7.7518216,36.573334 6.4152236,35.239487 5.0786299,33.905636 3.9850468,32.692764 3.9850472,32.544205 3.985047,32.395645 5.0528655,31.204077 6.3579765,29.896274 7.6630902,28.588473 8.8174222,27.274796 8.9231634,26.977 9.0444273,26.635487 13.150084,22.444147 20.041716,15.62641 l 10.926295,-10.8091405 1.854637,0.00804 1.854635,0.00804 3.735272,3.6426555 3.735272,3.642655 10e-7,2.059407 0,2.059406 -10.035736,10.075885 -10.035727,10.075891 4.464282,0.214133 c 2.455356,0.117773 4.509462,0.259312 4.564678,0.314531 0.166025,0.166025 -1.706195,0.629236 -3.727828,0.922317 -1.044663,0.151444 -3.231824,0.328705 -4.860353,0.393907 l -2.960962,0.118553 -1.526409,1.492323 c -0.839521,0.820783 -1.460556,1.558165 -1.380075,1.638633 0.288702,0.288651 13.491284,0.148562 16.767493,-0.177917 7.124137,-0.709933 8.760923,-0.84839 8.913619,-0.75402 0.633797,0.391708 -1.426669,1.527601 -3.887086,2.142874 -4.14299,1.036029 -12.228442,1.670146 -18.257496,1.431878 z M 9.5351996,32.385937 11.922085,31.332353 11.215768,30.450714 C 10.827296,29.965813 10.235813,29.309072 9.9013637,28.991291 L 9.2932738,28.413508 7.2692054,30.41526 c -1.1132523,1.100949 -2.0211167,2.049514 -2.0175087,2.107891 0.015897,0.257215 1.3451016,1.091413 1.6067322,1.008374 0.1594369,-0.0506 1.3639817,-0.566118 2.6767683,-1.145591 z M 34.047238,15.812673 37.737506,12.222092 36.256611,10.730449 34.775717,9.2388073 34.120068,9.8632583 C 17.857201,21.708046 24.532558,24.159368 34.047208,15.812702 z"
         id="path2476"
         inkscape:connector-curvature="0" />
      <path
         sodipodi:nodetypes="csssscccsssscccccccsssscccccsccccccsccccccssc"
         style="fill:#d8a1a0"
         d="M 14.201537,43.055803 C 14.154182,43.008447 13.3327,42.852201 12.376022,42.708589 9.5782295,42.288596 7.6856776,41.585769 7.4545142,40.880911 7.3400303,40.531833 8.1432818,39.932573 9.1517996,39.614665 9.6763303,39.449321 10.105493,39.225349 10.105492,39.116949 10.105493,38.721028 9.4613548,37.974639 6.8007101,35.28757 L 4.0855565,32.545447 6.5554837,30.052765 c 1.5347091,-1.548851 2.469929,-2.630305 2.4699294,-2.856152 -5e-7,-0.391897 21.0273379,-21.5196163 21.5264249,-21.6291959 0.150074,-0.032948 0.471393,0.070176 0.714043,0.2291669 0.47629,0.3120773 0.613535,0.1078706 0.173147,-0.2576181 -0.486209,-0.4035197 -0.09122,-0.5416841 1.548558,-0.5416848 l 1.619299,0 3.683084,3.6452682 3.683084,3.6452677 -0.0026,1.974039 -0.0026,1.974036 -10.845794,10.89269 c -5.965185,5.99098 -11.043928,10.952584 -11.286101,11.025778 -0.416445,0.125872 -3.609985,3.145932 -3.609985,3.413883 0,0.242908 2.118204,0.385412 7.38025,0.496518 5.648634,0.119268 5.849813,0.195664 1.980433,0.752048 -1.350631,0.194206 -11.222676,0.401436 -11.385119,0.238994 z m 4.544586,-5.40111 c 0,-0.110338 -2.093236,-2.338344 -4.651636,-4.951123 L 9.4428505,27.953063 7.1639806,30.092845 c -1.2533764,1.176882 -2.2788694,2.231069 -2.2788701,2.342637 -2.2e-6,0.11157 2.1478069,2.345066 4.7729036,4.963318 l 4.7729069,4.760461 2.157618,-2.151962 c 1.18669,-1.183578 2.157599,-2.242254 2.1576,-2.352592 z M 38.092992,12.021221 36.565157,10.485041 C 35.724815,9.6401743 34.956311,8.9710753 34.857301,8.9982213 c -0.099,0.02714 -5.035711,4.9328407 -10.970445,10.9015577 l -10.790431,10.852204 1.515782,1.523701 c 0.833666,0.838051 1.55833,1.523696 1.610321,1.523701 L 38.092997,12.021222 z m 3.154771,1.976719 c 0,-0.821786 -0.191903,-0.920518 -0.536756,-0.276157 -0.192653,0.359974 -0.194236,0.496107 -0.0084,0.720052 0.377122,0.45441 0.545132,0.3176 0.545128,-0.443899 z"
         id="path2474"
         inkscape:connector-curvature="0" />
      <path
         sodipodi:nodetypes="csssscccsssssscccccssscccccssssssscccccscccccscccc"
         style="fill:#656364;fill-opacity:1"
         d="M 14.201537,43.055803 C 14.154187,43.008443 13.3327,42.852201 12.376022,42.708589 9.5782295,42.288596 7.6856776,41.585769 7.4545142,40.880911 7.3400303,40.531833 8.1432818,39.932573 9.1517996,39.614665 c 0.5245307,-0.165344 0.9536934,-0.389316 0.9536924,-0.497716 0,-0.395869 -0.6439968,-1.142167 -3.3023742,-3.826969 l -2.712748,-2.739711 2.5575305,-2.595771 c 1.4066433,-1.427673 2.5575286,-2.719244 2.5575286,-2.870156 7e-7,-0.150909 3.8680331,-4.076244 8.5956271,-8.722963 9.7218,-9.5554897 12.599891,-12.2840146 12.957375,-12.2840138 0.136493,7e-6 0.815478,0.4882671 1.508856,1.085039 0.693376,0.5967711 1.418024,1.1832991 1.610325,1.3033941 0.192303,0.120093 0.349639,0.327577 0.349642,0.461068 0,0.133487 -4.776584,5.0756187 -10.614631,10.9825017 l -10.61463,10.739788 1.643596,1.653213 1.643596,1.653212 10.945137,-10.812046 C 36.060771,14.420468 38.143421,12.275097 38.009626,12.039616 37.918418,11.879083 36.382027,10.295542 34.595431,8.5206273 32.808805,6.7457402 31.347076,5.2268486 31.34707,5.1453843 c 0,-0.081473 0.733465,-0.1481262 1.629922,-0.1481269 l 1.629923,0 3.683085,3.6452689 3.683084,3.6452667 -0.0026,1.441295 c -0.0014,0.79271 -0.08099,1.714554 -0.176779,2.048539 -0.131257,0.457664 -2.559462,3.00707 -9.857535,10.349566 -5.325861,5.358275 -10.119994,10.248603 -10.653628,10.867401 -0.583214,0.676283 -1.112773,1.125076 -1.327526,1.125082 -0.333333,0 -3.729033,3.13292 -3.729032,3.440458 0,0.25116 2.065636,0.392392 7.38025,0.504606 5.648633,0.119268 5.849813,0.195664 1.980433,0.752048 -1.350621,0.194227 -11.222666,0.401457 -11.385109,0.239015 z m 4.544586,-5.40111 c 0,-0.110338 -2.093236,-2.338344 -4.651636,-4.951123 L 9.4428505,27.953063 7.1639806,30.092845 c -1.2533764,1.176882 -2.2788694,2.231069 -2.2788701,2.342637 -2.2e-6,0.11157 2.1478069,2.345066 4.7729036,4.963318 l 4.7729069,4.760461 2.157618,-2.151962 c 1.18669,-1.183578 2.157599,-2.242254 2.1576,-2.352592 z m 22.50164,-23.47674 c 0,-0.495037 -0.04439,-0.900067 -0.09864,-0.900067 -0.05425,0 -0.29127,0.222766 -0.526703,0.495038 l -0.42806,0.495038 0.378071,0.405027 c 0.554865,0.594435 0.675339,0.506126 0.675339,-0.495035 z"
         id="path2472"
         inkscape:connector-curvature="0" />
      <path
         sodipodi:nodetypes="csscccsscccsssssssccsssssssccccsssscccsc"
         style="fill:#dc5755"
         d="m 13.913282,42.436009 c -0.232386,-0.193627 -0.758924,-0.448134 -1.170085,-0.565567 -1.045789,-0.298693 -1.230235,-0.463135 -0.976034,-0.870175 0.172096,-0.275569 0.07749,-0.499518 -0.582882,-1.37975 l -0.788324,-1.050786 1.505817,1.410146 c 0.8282,0.775581 1.65979,1.605892 1.847978,1.845136 0.188188,0.239242 0.479489,0.434986 0.647335,0.434986 0.26056,10e-7 2.986342,-2.627722 4.336788,-4.18077 l 0.426512,-0.490505 -1.557231,-1.591361 c -0.856477,-0.875249 -1.548308,-1.667096 -1.5374,-1.759662 0.02316,-0.196565 21.878681,-21.737586 22.155355,-21.836535 0.102509,-0.03666 0.951066,0.716884 1.885676,1.674552 1.187328,1.21663 1.66977,1.833283 1.601314,2.046806 -0.1642,0.512153 -21.558059,21.704212 -22.277945,22.067807 -0.772228,0.390029 -3.564243,3.181685 -3.564243,3.563788 0,0.292422 -0.944244,1.049047 -1.297806,1.039931 -0.127768,-0.0033 -0.422439,-0.164412 -0.654825,-0.358041 z M 11.190731,29.405039 C 10.358687,28.55469 9.545141,27.85895 9.382847,27.85895 c -0.226114,0 -0.27637,-0.127467 -0.215032,-0.545393 0.06442,-0.438883 1.754556,-2.191249 8.654456,-8.973079 9.701148,-9.5351417 12.578843,-12.2631151 12.936158,-12.2631151 0.136493,7.1e-6 0.815478,0.4882671 1.508856,1.0850391 0.693376,0.5967713 1.418024,1.1832983 1.610325,1.3033933 0.192303,0.120094 0.345417,0.340609 0.340212,0.490076 -0.0052,0.149446 -4.848021,5.1595167 -10.761857,11.1334897 L 12.703533,30.951125 11.190728,29.405036 z M 37.827513,8.8675663 C 35.939395,7.035931 34.282481,5.5373228 34.145486,5.5373228 c -0.136995,0 -0.485152,0.1354852 -0.77368,0.3010769 -0.496842,0.2851486 -0.549694,0.282767 -0.999003,-0.045003 -0.260926,-0.1903426 -0.476953,-0.406836 -0.480067,-0.48109 -0.0031,-0.07426 0.570346,-0.13501 1.274352,-0.13501 l 1.280006,0 3.535342,3.5067177 c 1.944435,1.9286946 3.477448,3.5083066 3.406679,3.5102566 -0.07077,0.002 -1.673486,-1.495068 -3.561606,-3.3267006 z"
         id="path2470"
         inkscape:connector-curvature="0" />
      <path
         sodipodi:nodetypes="csscccsscccssscccsssssccsssccsssssssssssccsssscccsc"
         style="fill:#716566"
         d="m 13.913282,42.436009 c -0.232386,-0.193627 -0.758924,-0.448134 -1.170085,-0.565567 -1.045789,-0.298693 -1.230235,-0.463135 -0.976034,-0.870175 0.172096,-0.275569 0.07749,-0.499518 -0.582882,-1.37975 l -0.788324,-1.050786 1.505817,1.410146 c 0.8282,0.775581 1.65979,1.605892 1.847978,1.845136 0.188188,0.239242 0.479489,0.434986 0.647335,0.434986 0.26056,10e-7 2.986342,-2.627722 4.336788,-4.18077 l 0.426512,-0.490505 -1.557231,-1.591361 C 16.17624,34.539175 15.696883,33.829975 16.270941,34.026378 16.3947,34.068718 21.342502,29.296122 27.266055,23.420604 33.18961,17.54509 38.090464,12.73982 38.156848,12.742234 c 0.06638,0.0024 0.888618,0.732726 1.827188,1.622919 l 1.706492,1.618529 -7.286894,7.310808 c -4.007791,4.020944 -7.165389,7.24938 -7.016878,7.17431 0.148511,-0.07507 -1.3906,1.536541 -3.420248,3.581358 -2.25531,2.272168 -3.975777,3.856672 -4.424506,4.07485 -0.813151,0.395362 -3.676089,3.221714 -3.676089,3.629111 0,0.292422 -0.944244,1.049047 -1.297806,1.039931 -0.127768,-0.0033 -0.422439,-0.164412 -0.654825,-0.358041 z m 25.00783,-24.642135 c 0.999918,-0.988605 1.5453,-1.652413 1.420737,-1.729399 -0.225917,-0.139621 -3.226204,2.747007 -3.231246,3.108846 -0.0017,0.123758 0.03978,0.225016 0.09224,0.225019 0.05245,0 0.825682,-0.722005 1.718275,-1.604458 z M 11.359445,29.574931 C 10.620267,28.815332 10.015088,28.098242 10.014602,27.981394 10.014078,27.855896 9.8117922,27.792585 9.5203084,27.82673 9.1334238,27.87204 9.0503305,27.82343 9.1354237,27.601715 c 0.059688,-0.155543 0.1808648,-0.282801 0.2692517,-0.282828 0.088417,0 0.1614361,-0.101261 0.1622726,-0.225021 0.00147,-0.217282 8.441895,-8.0561 9.572669,-8.890358 0.306187,-0.225902 1.011206,-0.503998 1.566702,-0.617995 1.148666,-0.235728 4.589205,-1.320872 5.735338,-1.808922 0.42078,-0.17918 0.765055,-0.259677 0.765055,-0.178884 0,0.211111 -4.16876,4.580807 -9.636573,10.101058 -2.59877,2.623689 -4.756925,4.879892 -4.795899,5.013786 -0.04342,0.149143 -0.59144,-0.291517 -1.414822,-1.137647 z M 37.827513,8.8675663 C 35.939395,7.035931 34.282481,5.5373228 34.145486,5.5373228 c -0.136995,0 -0.485152,0.1354852 -0.77368,0.3010769 -0.496842,0.2851486 -0.549694,0.282767 -0.999003,-0.045003 -0.260926,-0.1903426 -0.476953,-0.406836 -0.480067,-0.48109 -0.0031,-0.07426 0.570346,-0.13501 1.274352,-0.13501 l 1.280006,0 3.535342,3.5067177 c 1.944435,1.9286946 3.477448,3.5083066 3.406679,3.5102566 -0.07077,0.002 -1.673486,-1.495068 -3.561606,-3.3267006 z"
         id="path2468"
         inkscape:connector-curvature="0" />
      <path
         sodipodi:nodetypes="cccscccsccsssccssssssc"
         style="fill:#cd1816"
         d="M 18.022514,36.035683 16.315943,34.311702 27.175472,23.524778 c 5.972742,-5.932804 10.914098,-10.784951 10.9808,-10.782537 0.0667,0.0024 0.889259,0.732786 1.827907,1.623054 l 1.706631,1.618667 -10.886744,10.88786 c -5.987711,5.988322 -10.929099,10.887859 -10.980862,10.887862 -0.05176,0 -0.862076,-0.775795 -1.800685,-1.723993 z M 38.921112,17.793874 c 0.999918,-0.988605 1.5453,-1.652413 1.420737,-1.729399 -0.225917,-0.139621 -3.226204,2.747007 -3.231246,3.108846 -0.0017,0.123758 0.03978,0.225016 0.09224,0.225019 0.05245,0 0.825682,-0.722005 1.718275,-1.604458 z M 10.975766,28.980688 C 9.8932516,27.86699 9.4730067,27.313282 9.5484847,27.100136 9.6559395,26.796687 17.191736,19.777744 18.790893,18.49163 c 0.599365,-0.482041 1.164225,-0.751124 1.890137,-0.900426 1.170897,-0.24082 4.605636,-1.322752 5.760654,-1.814586 0.420781,-0.179179 0.765056,-0.259676 0.765056,-0.178884 0,0.31031 -14.289976,14.961413 -14.592636,14.961413 -0.05725,0 -0.794495,-0.710307 -1.638337,-1.578459 z"
         id="path2466"
         inkscape:connector-curvature="0" />
      <path
         style="fill:#b80808"
         d="m 18.064355,36.087993 -1.66474,-1.67167 3.82844,-3.790597 c 2.105645,-2.084827 4.688806,-4.593063 5.740366,-5.573849 1.983387,-1.849899 2.023755,-1.87337 5.378607,-3.126786 1.395328,-0.52131 2.530419,-0.99575 3.142751,-1.313593 0.365622,-0.189783 2.169974,-0.655456 2.58329,-0.666704 0.129606,-0.0035 0.184756,0.07592 0.122572,0.176538 -0.06219,0.100624 -0.200991,0.128611 -0.308457,0.06219 -0.108998,-0.06736 -0.144194,-0.03792 -0.0796,0.06659 0.06368,0.103043 -1.434907,1.796433 -3.330197,3.763086 -4.23141,4.390731 -13.523922,13.746478 -13.653566,13.74648 -0.05211,0 -0.843878,-0.75225 -1.759474,-1.671679 z m -6.509789,-6.68279 c -0.440599,-0.523826 -0.828179,-1.033667 -0.861285,-1.132986 -0.03311,-0.09932 0.732414,-0.404594 1.701158,-0.67839 0.968742,-0.273794 2.271503,-0.682028 2.895025,-0.90718 0.62352,-0.225153 1.109557,-0.341252 1.080079,-0.257996 -0.119455,0.337373 -3.605548,3.949703 -3.802045,3.939718 -0.11651,-0.0059 -0.572334,-0.439342 -1.012933,-0.963167 z"
         id="path2464"
         inkscape:connector-curvature="0" />
    </g>
  </g>
  <g
     inkscape:groupmode="layer"
     id="layer4"
     inkscape:label="new"
     style="display:inline"
     transform="translate(0,464)" />
</svg>
