<svg width="512" xmlns="http://www.w3.org/2000/svg" height="512" xmlns:xlink="http://www.w3.org/1999/xlink">
<defs/>
<g transform="matrix(10.66667 0 0 10.66667 8.36413 -5.30031)">
<path opacity=".8" fill="#fff" fill-rule="evenodd" color="#000" d="m-20.0747,26.068h38.6318v14.9452h-38.6318z" transform="matrix(.70711 -.70711 .70711 .70711 0 0)"/>
<path fill="#f0f0f0" d="m20.1862,44.1265c-10.8128-.4273-17.8212-2.4574-15.6161-4.5234 .5464-.512 2.1741-1.2494 3.3302-1.5087 .5198-.1166 .9451-.261 .9451-.3209 0-.0599-1.0936-1.2002-2.4302-2.534-1.3366-1.3339-2.4302-2.5467-2.4302-2.6953-0-.1486 1.0678-1.3401 2.3729-2.6479 1.3051-1.3078 2.4594-2.6215 2.5652-2.9193 .1213-.3415 4.2269-4.5329 11.1186-11.3506l10.9263-10.8091 1.8546,.008 1.8546,.008 3.7353,3.6427 3.7353,3.6427 0,2.0594v2.0594l-10.0357,10.0759-10.0357,10.0759 4.4643,.2141c2.4554,.1178 4.5095,.2593 4.5647,.3145 .166,.166-1.7062,.6292-3.7278,.9223-1.0447,.1514-3.2318,.3287-4.8604,.3939l-2.961,.1186-1.5264,1.4923c-.8395,.8208-1.4606,1.5582-1.3801,1.6386 .2887,.2887 13.4913,.1486 16.7675-.1779 7.1241-.7099 8.7609-.8484 8.9136-.754 .6338,.3917-1.4267,1.5276-3.8871,2.1429-4.143,1.036-12.2284,1.6701-18.2575,1.4319zm-10.651-11.7405 2.3869-1.0536-.7063-.8816c-.3885-.4849-.98-1.1416-1.3144-1.4594l-.6081-.5778-2.0241,2.0018c-1.1133,1.1009-2.0211,2.0495-2.0175,2.1079 .0159,.2572 1.3451,1.0914 1.6067,1.0084 .1594-.0506 1.364-.5661 2.6768-1.1456zm24.512-16.5733 3.6903-3.5906-1.4809-1.4916-1.4809-1.4916-.6556,.6245c-16.2629,11.8448-9.5875,14.2961-.0729,5.9494z"/>
<path fill="#d8a1a0" d="m14.2015,43.0558c-.0474-.0474-.8688-.2036-1.8255-.3472-2.7978-.42-4.6903-1.1228-4.9215-1.8277-.1145-.3491 .6888-.9483 1.6973-1.2662 .5245-.1653 .9537-.3893 .9537-.4977 0-.3959-.6441-1.1423-3.3048-3.8294l-2.7152-2.7421 2.4699-2.4927c1.5347-1.5489 2.4699-2.6303 2.4699-2.8562-0-.3919 21.0273-21.5196 21.5264-21.6292 .1501-.0329 .4714,.0702 .714,.2292 .4763,.3121 .6135,.1079 .1731-.2576-.4862-.4035-.0912-.5417 1.5486-.5417h1.6193l3.6831,3.6453 3.6831,3.6453-.0026,1.974-.0026,1.974-10.8458,10.8927c-5.9652,5.991-11.0439,10.9526-11.2861,11.0258-.4164,.1259-3.61,3.1459-3.61,3.4139 0,.2429 2.1182,.3854 7.3803,.4965 5.6486,.1193 5.8498,.1957 1.9804,.752-1.3506,.1942-11.2227,.4014-11.3851,.239zm4.5446-5.4011c0-.1103-2.0932-2.3383-4.6516-4.9511l-4.6516-4.7505-2.2789,2.1398c-1.2534,1.1769-2.2789,2.2311-2.2789,2.3426-0,.1116 2.1478,2.3451 4.7729,4.9633l4.7729,4.7605 2.1576-2.152c1.1867-1.1836 2.1576-2.2423 2.1576-2.3526zm19.3469-25.6335-1.5278-1.5362c-.8403-.8449-1.6088-1.514-1.7079-1.4868-.099,.0271-5.0357,4.9328-10.9704,10.9016l-10.7904,10.8522 1.5158,1.5237c.8337,.8381 1.5583,1.5237 1.6103,1.5237l21.8705-21.7782zm3.1548,1.9767c0-.8218-.1919-.9205-.5368-.2762-.1927,.36-.1942,.4961-.0084,.7201 .3771,.4544 .5451,.3176 .5451-.4439z"/>
<path fill="#656364" d="m14.2015,43.0558c-.0473-.0474-.8688-.2036-1.8255-.3472-2.7978-.42-4.6903-1.1228-4.9215-1.8277-.1145-.3491 .6888-.9483 1.6973-1.2662 .5245-.1653 .9537-.3893 .9537-.4977 0-.3959-.644-1.1422-3.3024-3.827l-2.7127-2.7397 2.5575-2.5958c1.4066-1.4277 2.5575-2.7192 2.5575-2.8702 0-.1509 3.868-4.0762 8.5956-8.723 9.7218-9.5555 12.5999-12.284 12.9574-12.284 .1365,0 .8155,.4883 1.5089,1.085 .6934,.5968 1.418,1.1833 1.6103,1.3034 .1923,.1201 .3496,.3276 .3496,.4611 0,.1335-4.7766,5.0756-10.6146,10.9825l-10.6146,10.7398 1.6436,1.6532 1.6436,1.6532 10.9451-10.812c8.8304-8.7231 10.9131-10.8684 10.7793-11.1039-.0912-.1605-1.6276-1.7441-3.4142-3.519-1.7866-1.7749-3.2484-3.2938-3.2484-3.3752 0-.0815 .7335-.1481 1.6299-.1481h1.6299l3.6831,3.6453 3.6831,3.6453-.0026,1.4413c-.0014,.7927-.081,1.7146-.1768,2.0485-.1313,.4577-2.5595,3.0071-9.8575,10.3496-5.3259,5.3583-10.12,10.2486-10.6536,10.8674-.5832,.6763-1.1128,1.1251-1.3275,1.1251-.3333,0-3.729,3.1329-3.729,3.4405 0,.2512 2.0656,.3924 7.3803,.5046 5.6486,.1193 5.8498,.1957 1.9804,.752-1.3506,.1942-11.2227,.4015-11.3851,.239zm4.5446-5.4011c0-.1103-2.0932-2.3383-4.6516-4.9511l-4.6517-4.7505-2.2789,2.1398c-1.2534,1.1769-2.2789,2.2311-2.2789,2.3426-0,.1116 2.1478,2.3451 4.7729,4.9633l4.7729,4.7605 2.1576-2.152c1.1867-1.1836 2.1576-2.2423 2.1576-2.3526zm22.5016-23.4767c0-.495-.0444-.9001-.0986-.9001-.0543,0-.2913,.2228-.5267,.495l-.4281,.495 .3781,.405c.5549,.5944 .6753,.5061 .6753-.495z"/>
<path fill="#dc5755" d="m13.9133,42.436c-.2324-.1936-.7589-.4481-1.1701-.5656-1.0458-.2987-1.2302-.4631-.976-.8702 .1721-.2756 .0775-.4995-.5829-1.3798l-.7883-1.0508 1.5058,1.4101c.8282,.7756 1.6598,1.6059 1.848,1.8451 .1882,.2392 .4795,.435 .6473,.435 .2606,0 2.9863-2.6277 4.3368-4.1808l.4265-.4905-1.5572-1.5914c-.8565-.8752-1.5483-1.6671-1.5374-1.7597 .0232-.1966 21.8787-21.7376 22.1554-21.8365 .1025-.0367 .9511,.7169 1.8857,1.6746 1.1873,1.2166 1.6698,1.8333 1.6013,2.0468-.1642,.5122-21.5581,21.7042-22.2779,22.0678-.7722,.39-3.5642,3.1817-3.5642,3.5638 0,.2924-.9442,1.049-1.2978,1.0399-.1278-.0033-.4224-.1644-.6548-.358zm-2.7226-13.031c-.832-.8503-1.6456-1.5461-1.8079-1.5461-.2261,0-.2764-.1275-.215-.5454 .0644-.4389 1.7546-2.1912 8.6545-8.9731 9.7011-9.5351 12.5788-12.2631 12.9362-12.2631 .1365,0 .8155,.4883 1.5089,1.085 .6934,.5968 1.418,1.1833 1.6103,1.3034 .1923,.1201 .3454,.3406 .3402,.4901-.0052,.1494-4.848,5.1595-10.7619,11.1335l-10.7524,10.8618-1.5128-1.5461zm26.6368-20.5375c-1.8881-1.8316-3.545-3.3302-3.682-3.3302-.137,0-.4852,.1355-.7737,.3011-.4968,.2851-.5497,.2828-.999-.045-.2609-.1903-.477-.4068-.4801-.4811-.0031-.0743 .5703-.135 1.2744-.135h1.28l3.5353,3.5067c1.9444,1.9287 3.4774,3.5083 3.4067,3.5103-.0708,.002-1.6735-1.4951-3.5616-3.3267z"/>
<path fill="#716566" d="m13.9133,42.436c-.2324-.1936-.7589-.4481-1.1701-.5656-1.0458-.2987-1.2302-.4631-.976-.8702 .1721-.2756 .0775-.4995-.5829-1.3798l-.7883-1.0508 1.5058,1.4101c.8282,.7756 1.6598,1.6059 1.848,1.8451 .1882,.2392 .4795,.435 .6473,.435 .2606,0 2.9863-2.6277 4.3368-4.1808l.4265-.4905-1.5572-1.5914c-1.4269-1.4582-1.9063-2.1674-1.3322-1.971 .1238,.0423 5.0716-4.7303 10.9951-10.6058 5.9236-5.8755 10.8244-10.6808 10.8908-10.6784 .0664,.0024 .8886,.7327 1.8272,1.6229l1.7065,1.6185-7.2869,7.3108c-4.0078,4.0209-7.1654,7.2494-7.0169,7.1743 .1485-.0751-1.3906,1.5365-3.4202,3.5814-2.2553,2.2722-3.9758,3.8567-4.4245,4.0748-.8132,.3954-3.6761,3.2217-3.6761,3.6291 0,.2924-.9442,1.049-1.2978,1.0399-.1278-.0033-.4224-.1644-.6548-.358zm25.0078-24.6421c.9999-.9886 1.5453-1.6524 1.4207-1.7294-.2259-.1396-3.2262,2.747-3.2312,3.1088-.0017,.1238 .0398,.225 .0922,.225 .0525,0 .8257-.722 1.7183-1.6045zm-27.5617,11.781c-.7392-.7596-1.3444-1.4767-1.3448-1.5935-.0005-.1255-.2028-.1888-.4943-.1547-.3869,.0453-.47-.0033-.3849-.225 .0597-.1555 .1809-.2828 .2693-.2828 .0884,0 .1614-.1013 .1623-.225 .0015-.2173 8.4419-8.0561 9.5727-8.8904 .3062-.2259 1.0112-.504 1.5667-.618 1.1487-.2357 4.5892-1.3209 5.7353-1.8089 .4208-.1792 .7651-.2597 .7651-.1789 0,.2111-4.1688,4.5808-9.6366,10.1011-2.5988,2.6237-4.7569,4.8799-4.7959,5.0138-.0434,.1491-.5914-.2915-1.4148-1.1376zm26.4681-20.7073c-1.8881-1.8316-3.545-3.3302-3.682-3.3302-.137,0-.4852,.1355-.7737,.3011-.4968,.2851-.5497,.2828-.999-.045-.2609-.1903-.477-.4068-.4801-.4811-.0031-.0743 .5703-.135 1.2744-.135h1.28l3.5353,3.5067c1.9444,1.9287 3.4774,3.5083 3.4067,3.5103-.0708,.002-1.6735-1.4951-3.5616-3.3267z"/>
<path fill="#cd1816" d="m18.0225,36.0357-1.7066-1.724 10.8595-10.7869c5.9727-5.9328 10.9141-10.785 10.9808-10.7825 .0667,.0024 .8893,.7328 1.8279,1.6231l1.7066,1.6187-10.8867,10.8879c-5.9877,5.9883-10.9291,10.8879-10.9809,10.8879-.0518,0-.8621-.7758-1.8007-1.724zm20.8986-18.2418c.9999-.9886 1.5453-1.6524 1.4207-1.7294-.2259-.1396-3.2262,2.747-3.2312,3.1088-.0017,.1238 .0398,.225 .0922,.225 .0525,0 .8257-.722 1.7183-1.6045zm-27.9454,11.1868c-1.0825-1.1137-1.5028-1.6674-1.4273-1.8806 .1075-.3034 7.6433-7.3224 9.2424-8.6085 .5994-.482 1.1642-.7511 1.8901-.9004 1.1709-.2408 4.6056-1.3228 5.7607-1.8146 .4208-.1792 .7651-.2597 .7651-.1789 0,.3103-14.29,14.9614-14.5926,14.9614-.0572,0-.7945-.7103-1.6383-1.5785z"/>
<path fill="#b80808" d="m18.0644,36.088-1.6647-1.6717 3.8284-3.7906c2.1056-2.0848 4.6888-4.5931 5.7404-5.5738 1.9834-1.8499 2.0238-1.8734 5.3786-3.1268 1.3953-.5213 2.5304-.9958 3.1428-1.3136 .3656-.1898 2.17-.6555 2.5833-.6667 .1296-.0035 .1848,.0759 .1226,.1765-.0622,.1006-.201,.1286-.3085,.0622-.109-.0674-.1442-.0379-.0796,.0666 .0637,.103-1.4349,1.7964-3.3302,3.7631-4.2314,4.3907-13.5239,13.7465-13.6536,13.7465-.0521,0-.8439-.7522-1.7595-1.6717zm-6.5098-6.6828c-.4406-.5238-.8282-1.0337-.8613-1.133-.0331-.0993 .7324-.4046 1.7012-.6784 .9687-.2738 2.2715-.682 2.895-.9072 .6235-.2252 1.1096-.3413 1.0801-.258-.1195,.3374-3.6055,3.9497-3.802,3.9397-.1165-.0059-.5723-.4393-1.0129-.9632z"/>
</g>
</svg>
