<svg xmlns="http://www.w3.org/2000/svg" viewBox="0 0 512 512"><g transform="matrix(10.66667 0 0 10.66667 8.364-5.3)"><path d="m4.238 32.628h14.319v14.945h-38.632z" style="fill:#fff;opacity:.8;color:#000;fill-rule:evenodd"/><path d="m20.19 44.13c-10.813-.427-17.821-2.457-15.616-4.523.546-.512 2.174-1.249 3.33-1.509.52-.117.945-.261.945-.321 0-.06-1.094-1.2-2.43-2.534-1.337-1.334-2.43-2.547-2.43-2.695 0-.149 1.068-1.34 2.373-2.648 1.305-1.308 2.459-2.622 2.565-2.919.121-.341 4.227-4.533 11.12-11.351l10.926-10.809 1.855.008 1.855.008 3.735 3.643 3.735 3.643v2.059 2.059l-10.04 10.08-10.04 10.08 4.464.214c2.455.118 4.509.259 4.565.315.166.166-1.706.629-3.728.922-1.045.151-3.232.329-4.86.394l-2.961.119-1.526 1.492c-.84.821-1.461 1.558-1.38 1.639.289.289 13.491.149 16.768-.178 7.124-.71 8.761-.848 8.914-.754.634.392-1.427 1.528-3.887 2.143-4.143 1.036-12.228 1.67-18.258 1.432m-10.651-11.741l2.387-1.054-.706-.882c-.389-.485-.98-1.142-1.314-1.459l-.608-.578-2.024 2c-1.113 1.101-2.02 2.05-2.02 2.108.016.257 1.345 1.091 1.607 1.01.159-.051 1.364-.566 2.677-1.146m24.512-16.573l3.69-3.591-1.481-1.492-1.481-1.492-.656.624c-16.263 11.845-9.587 14.296-.073 5.949" style="fill:#f0f0f0"/><path d="m14.202 43.06c-.047-.047-.869-.204-1.826-.347-2.798-.42-4.69-1.123-4.922-1.828-.114-.349.689-.948 1.697-1.266.524-.165.954-.389.954-.498 0-.396-.644-1.142-3.305-3.829l-2.715-2.742 2.47-2.493c1.535-1.549 2.47-2.63 2.47-2.856 0-.392 21.03-21.52 21.526-21.629.15-.033.471.07.714.229.476.312.613.108.173-.258-.486-.404-.091-.542 1.549-.542h1.619l3.683 3.645 3.683 3.645-.003 1.974-.003 1.974-10.846 10.893c-5.965 5.991-11.04 10.953-11.286 11.03-.416.126-3.61 3.146-3.61 3.414 0 .243 2.118.385 7.38.496 5.649.119 5.85.196 1.98.752-1.351.194-11.223.401-11.385.239m4.545-5.401c0-.11-2.093-2.338-4.652-4.951l-4.652-4.75-2.279 2.14c-1.253 1.177-2.279 2.231-2.279 2.343 0 .112 2.148 2.345 4.773 4.963l4.773 4.761 2.158-2.152c1.187-1.184 2.158-2.242 2.158-2.353m19.347-25.633l-1.528-1.536c-.84-.845-1.609-1.514-1.708-1.487-.099.027-5.04 4.933-10.97 10.902l-10.79 10.852 1.516 1.524c.834.838 1.558 1.524 1.61 1.524l21.871-21.778m3.155 1.977c0-.822-.192-.921-.537-.276-.193.36-.194.496-.008.72.377.454.545.318.545-.444" style="fill:#d8a1a0"/><path d="m14.202 43.06c-.047-.047-.869-.204-1.826-.347-2.798-.42-4.69-1.123-4.922-1.828-.114-.349.689-.948 1.697-1.266.524-.165.954-.389.954-.498 0-.396-.644-1.142-3.302-3.827l-2.713-2.74 2.558-2.596c1.407-1.428 2.558-2.719 2.558-2.87 0-.151 3.868-4.076 8.596-8.723 9.722-9.556 12.6-12.284 12.957-12.284.137 0 .816.488 1.509 1.085.693.597 1.418 1.183 1.61 1.303.192.12.35.328.35.461 0 .133-4.777 5.076-10.615 10.983l-10.615 10.74 1.644 1.653 1.644 1.653 10.945-10.812c8.83-8.723 10.913-10.868 10.779-11.1-.091-.161-1.628-1.744-3.414-3.519-1.787-1.775-3.248-3.294-3.248-3.375 0-.082.734-.148 1.63-.148h1.63l3.683 3.645 3.683 3.645-.003 1.441c-.001.793-.081 1.715-.177 2.049-.131.458-2.56 3.01-9.858 10.35-5.326 5.358-10.12 10.249-10.654 10.867-.583.676-1.113 1.125-1.328 1.125-.333 0-3.729 3.133-3.729 3.441 0 .251 2.066.392 7.38.505 5.649.119 5.85.196 1.98.752-1.351.194-11.223.401-11.385.239m4.544-5.401c0-.11-2.093-2.338-4.652-4.951l-4.652-4.75-2.279 2.14c-1.253 1.177-2.279 2.231-2.279 2.343 0 .112 2.148 2.345 4.773 4.963l4.773 4.761 2.158-2.152c1.187-1.184 2.158-2.242 2.158-2.353m22.502-23.477c0-.495-.044-.9-.099-.9-.054 0-.291.223-.527.495l-.428.495.378.405c.555.594.675.506.675-.495" style="fill:#656364"/><path d="m13.913 42.44c-.232-.194-.759-.448-1.17-.566-1.046-.299-1.23-.463-.976-.87.172-.276.078-.499-.583-1.38l-.788-1.051 1.506 1.41c.828.776 1.66 1.606 1.848 1.845.188.239.479.435.647.435.261 0 2.986-2.628 4.337-4.181l.427-.49-1.557-1.591c-.857-.875-1.548-1.667-1.537-1.76.023-.197 21.879-21.738 22.16-21.837.102-.037.951.717 1.886 1.675 1.187 1.217 1.67 1.833 1.601 2.047-.164.512-21.558 21.704-22.278 22.07-.772.39-3.564 3.182-3.564 3.564 0 .292-.944 1.049-1.298 1.04-.128-.003-.422-.164-.655-.358m-2.723-13.03c-.832-.85-1.646-1.546-1.808-1.546-.226 0-.276-.128-.215-.545.064-.439 1.755-2.191 8.654-8.973 9.701-9.535 12.579-12.263 12.936-12.263.137 0 .816.488 1.509 1.085.693.597 1.418 1.183 1.61 1.303.192.12.345.341.34.49-.005.149-4.848 5.159-10.762 11.134l-10.752 10.862-1.513-1.546m26.637-20.538c-1.888-1.832-3.545-3.33-3.682-3.33-.137 0-.485.136-.774.301-.497.285-.55.283-.999-.045-.261-.19-.477-.407-.48-.481-.003-.074.57-.135 1.274-.135h1.28l3.535 3.507c1.944 1.929 3.477 3.508 3.407 3.51-.071.002-1.673-1.495-3.562-3.327" style="fill:#dc5755"/><path d="m13.913 42.44c-.232-.194-.759-.448-1.17-.566-1.046-.299-1.23-.463-.976-.87.172-.276.078-.499-.583-1.38l-.788-1.051 1.506 1.41c.828.776 1.66 1.606 1.848 1.845.188.239.479.435.647.435.261 0 2.986-2.628 4.337-4.181l.427-.49-1.557-1.591c-1.427-1.458-1.906-2.167-1.332-1.971.124.042 5.072-4.73 10.995-10.606 5.924-5.875 10.824-10.681 10.891-10.678.066.002.889.733 1.827 1.623l1.706 1.618-7.287 7.311c-4.01 4.02-7.165 7.249-7.02 7.174.148-.075-1.391 1.536-3.42 3.581-2.255 2.272-3.976 3.857-4.425 4.075-.813.395-3.676 3.222-3.676 3.629 0 .292-.944 1.049-1.298 1.04-.128-.003-.422-.164-.655-.358m25.01-24.642c1-.989 1.545-1.652 1.421-1.729-.226-.14-3.226 2.747-3.231 3.109-.002.124.04.225.092.225.053 0 .826-.722 1.718-1.605m-27.562 11.781c-.739-.76-1.344-1.477-1.345-1.593-.001-.125-.203-.189-.494-.155-.387.045-.47-.003-.385-.225.06-.155.181-.283.269-.283.088 0 .161-.101.162-.225.002-.217 8.442-8.06 9.573-8.89.306-.226 1.011-.504 1.567-.618 1.149-.236 4.589-1.321 5.735-1.809.421-.179.765-.26.765-.179 0 .211-4.169 4.581-9.637 10.1-2.599 2.624-4.757 4.88-4.796 5.01-.043.149-.591-.291-1.415-1.138m26.468-20.707c-1.888-1.832-3.545-3.33-3.682-3.33-.137 0-.485.136-.774.301-.497.285-.55.283-.999-.045-.261-.19-.477-.407-.48-.481-.003-.074.57-.135 1.274-.135h1.28l3.535 3.507c1.944 1.929 3.477 3.508 3.407 3.51-.071.002-1.673-1.495-3.562-3.327" style="fill:#716566"/><path d="m18.02 36.04l-1.707-1.724 10.86-10.787c5.973-5.933 10.914-10.785 10.981-10.783.067.002.889.733 1.828 1.623l1.707 1.619-10.887 10.888c-5.988 5.988-10.929 10.888-10.981 10.888-.052 0-.862-.776-1.801-1.724m20.899-18.242c1-.989 1.545-1.652 1.421-1.729-.226-.14-3.226 2.747-3.231 3.109-.002.124.04.225.092.225.053 0 .826-.722 1.718-1.605m-27.945 11.187c-1.082-1.114-1.503-1.667-1.427-1.881.107-.303 7.643-7.322 9.242-8.609.599-.482 1.164-.751 1.89-.9 1.171-.241 4.606-1.323 5.761-1.815.421-.179.765-.26.765-.179 0 .31-14.29 14.961-14.593 14.961-.057 0-.794-.71-1.638-1.578" style="fill:#cd1816"/><path d="m18.06 36.09l-1.665-1.672 3.828-3.791c2.106-2.085 4.689-4.593 5.74-5.574 1.983-1.85 2.024-1.873 5.379-3.127 1.395-.521 2.53-.996 3.143-1.314.366-.19 2.17-.656 2.583-.667.13-.003.185.076.123.177-.062.101-.201.129-.309.062-.109-.067-.144-.038-.08.067.064.103-1.435 1.796-3.33 3.763-4.231 4.391-13.524 13.747-13.654 13.747-.052 0-.844-.752-1.759-1.672m-6.51-6.683c-.441-.524-.828-1.034-.861-1.133-.033-.099.732-.405 1.701-.678.969-.274 2.271-.682 2.895-.907.624-.225 1.11-.341 1.08-.258-.119.337-3.605 3.95-3.802 3.94-.117-.006-.572-.439-1.013-.963" style="fill:#b80808"/></g></svg>