<svg width="87.22" xmlns="http://www.w3.org/2000/svg" viewBox="2.98329 -60.175 87.2234 50.738" style="fill:none;stroke-linecap:round;stroke-linejoin:round"><g transform="scale(1-1)"><path d="m86 30l4 4m-12-4l12 12m-20-12l20 20m-20-12l12 12m-12-4l10 10m-10-2l6 6" style="stroke:#000;stroke-width:.13"/><g style="stroke-width:.35"><g style="stroke:#000"><path d="m70 10v20"/><path d="m90 30v-20"/></g><g style="stroke:#f00"><path d="m20 10v50"/><path d="m20 60h10"/><path d="m30 60v-10"/><path d="m30 50h10"/><path d="m40 50v-40"/><path d="m70 30v30"/><path d="m70 60h10"/><path d="m80 60v-10"/><path d="m80 50h10"/><path d="m90 50v-20"/><path d="m70 30h20"/><path d="m20 30h20"/></g></g><g style="stroke:#000;stroke-width:.13"><path d="m16.617 29.987l2.674 4.01"/><path d="m16.62 29.657l2.657-3.769"/><path d="m66.17 30.21l3.213 4.51"/><path d="m66.17 29.781l3.213-4.572"/><path d="m19.983 10.09h.049.049v-.049h.049.049.049.097.097.049.097.097l.097.049h.097.049.049.049.049.049.049.049.049.049l.049.049h.049.097.049.049.049.049l.049-.049h.049.049.049l.049-.049h.049.049l.049-.049h.049l.049-.049h.049.049l.049-.049h.097.049.049l.049-.049h.049.049.049l.049-.049h.049.049.049.049.049.097l.049.049h.049.097l.097.049h.049l.049.049h.097.049l.049.049h.049.049l.049.049h.049.049.049.049l.049.049h.097.049.097.049.097.049.097.049.097.097l.097-.049h.049.049.097l.097-.049h.049l.049-.049h.049.049.097l.049-.049h.097.097.097.097.145l.097-.049h.145.097.097.145.097.097.146.097.097.145.097l.097.049h.097.097.097.145.145.145.097.097.049.097.097.097.097.097.049l.049-.049h.049.049.049l.049.049h.049.049l.049.049h.049.097l.049.049.049.049h.049.049.049.049.049.049.097.049.049.049.049.049.049.097.049l.049.049h.049.049.049.049.049.097.049l.049-.049h.097.049.097l.097-.049h.097l.097-.049h.049l.097-.049h.097l.049-.049h.049l.097-.049h.049l.048-.049h.097l.048-.049h.097.048.097.048.048.097.097.048.097.048.097.048.097.048.048.097.048.048.048.048.048.097.097l.048.049h.097.048.097.097.097.097.048.097l.048.049h.097.048.097l.048.049h.048l.048.049h.048l.048.049h.048.048v.049h.048l.048.049h.048.048l.048.049h.048l.097.049h.048.049l.048.049h.048.048.048l.048.049h.048.048.048.048.048.048l.048.049h.097.048.097.048.097.048.048.048l.048-.049h.048.048.048.048.048l.048-.049h.048.048v-.049h.048l.048-.049.048-.049.049-.049h.048l.048-.049h.048l.048-.049h.048l.048-.049h.048.048.048v-.049h.048.048.048.048.048.048.048.048.048.048.048.048.048.048.048.048.048.048.048.048l.048.049h.048.048.048.048.048.049l.048.049h.048.048.048v.049h.048.048.048.048.048.048.048.048.048.048.048.048.048.048"/><path d="m70 10h.049.049v-.049h.049.049.049.097.097.049.097.097l.097.049h.097.049.049.049.049.049.049.049.049.049l.049.049h.049.097.049.049.049.049l.049-.049h.049.049.049l.049-.049h.049.049l.049-.049h.049l.049-.049h.049.049l.049-.049h.097.049.049l.049-.049h.049.049.049l.049-.049h.049.049.049.049.049.097l.049.049h.049.097l.097.049h.049l.049.049h.097.049l.049.049h.049.049l.049.049h.049.049.049.049l.049.049h.097.049.097.049.097.049.097.049.097.097l.097-.049h.049.049.097l.097-.049h.049l.049-.049h.049.049.097l.049-.049h.097.097.097.097.146l.097-.049h.145.097.097.145.097.097.145.097.097.145.097l.097.049h.097.097.097.145.145.145.097.097.049.097.097.097.097.097.049l.049-.049h.049.049.049l.049.049h.049.049l.049.049h.049.097l.049.049.049.049h.049.049.049.049.049.049.097.049.049.049.049.049.049.097.049l.049.049h.049.049.049.049.049.097.049l.049-.049h.097.049.097l.097-.049h.097l.097-.049h.049l.097-.049h.097l.049-.049h.049l.097-.049h.049l.049-.049h.097l.049-.049h.097.049.097.049.049.097.097.049.097.049.097.049.097.049.049.097.049.049.049.049.049.097.097l.049.049h.097.049.097.097.097.097.049.097l.049.049h.097.049.097l.049.049h.049l.049.049h.049l.049.049h.049.049v.049h.049l.049.049h.049.049l.049.049h.049l.097.049h.049.049l.049.049h.049.049.049l.049.049h.049.049.049.049.049.049l.049.049h.097.049.097.049.097.049.049.049l.049-.049h.049.049.049.049.049l.049-.049h.049.049v-.049h.049l.049-.049.049-.049.049-.049h.049l.049-.049h.049l.049-.049h.049l.049-.049h.049.049.049v-.049h.049.049.049.049.049.049.049.049.049.049.049.049.049.049.049.049.049.049.049.049l.049.049h.049.049.049.049.049.049l.049.049h.049.049.049v.049h.049.049.049.049.049.049.049.049.049.049.049.049.049.049"/></g><g style="fill:#000;fill-rule:evenodd"><path d="m3.158 29.05v2h1.446v-.236h-1.181v-.613h1.106v-.235h-1.106v-.681h1.228v-.236h-1.492m1.828 1.718v.282h.246v-.282h-.246m0-1.718v1.449h.246v-1.449h-.246m.619 0v1.449h.221v-.206c.106.159.26.239.461.239.087 0 .168-.016.241-.047.073-.031.128-.073.164-.123.036-.051.062-.111.076-.181.009-.046.014-.125.014-.239v-.891h-.246v.881c0 .1-.01.175-.029.224-.019.05-.053.089-.102.119-.049.029-.106.044-.171.044-.105 0-.195-.033-.271-.1-.076-.066-.114-.192-.114-.378v-.791h-.246m2.546.466l.254-.031c-.04-.148-.114-.263-.222-.345-.108-.082-.247-.123-.415-.123-.212 0-.38.065-.504.196-.124.131-.186.314-.186.549 0 .244.063.433.188.567.125.135.288.202.488.202.194 0 .352-.066.475-.198.123-.132.184-.317.184-.557 0-.015-.001-.036-.001-.066h-1.08c.009-.159.054-.281.135-.366.081-.085.182-.127.303-.127.09 0 .167.024.231.071.064.047.114.123.151.226m-.806.397h.809c-.011.122-.042.213-.093.274-.078.095-.18.142-.304.142-.113 0-.208-.038-.284-.113-.077-.076-.119-.176-.128-.303m2.165-.863v2h.265v-1.764h.985v-.236h-1.25m1.535 1.718v.282h.246v-.282h-.246m0-1.718v1.449h.246v-1.449h-.246m.619 0v1.449h.221v-.206c.106.159.26.239.461.239.087 0 .168-.016.241-.047.073-.031.128-.073.164-.123.036-.051.062-.111.076-.181.009-.046.014-.125.014-.239v-.891h-.245v.881c0 .1-.01.175-.029.224-.019.05-.053.089-.102.119-.049.029-.106.044-.171.044-.105 0-.195-.033-.271-.1-.076-.066-.114-.192-.114-.378v-.791h-.246m1.555 1.718v.282h.245v-.282h-.245m0-1.718v1.449h.245v-1.449h-.245m1.611.466l.254-.031c-.04-.148-.114-.263-.222-.345-.108-.082-.246-.123-.415-.123-.212 0-.38.065-.504.196-.124.131-.186.314-.186.549 0 .244.063.433.188.567.126.135.288.202.488.202.194 0 .352-.066.475-.198.123-.132.184-.317.184-.557 0-.015 0-.036-.001-.066h-1.081c.009-.159.054-.281.135-.366.081-.085.182-.127.303-.127.09 0 .167.024.231.071.064.047.114.123.151.226m-.806.397h.809c-.011.122-.042.213-.093.274-.078.095-.18.142-.304.142-.113 0-.208-.038-.284-.113-.077-.076-.119-.176-.128-.303"/><path d="m50.78 29.324v.245l1.025 1.281c.073.091.142.17.207.237h-1.116v.236h1.432v-.236l-1.123-1.387-.121-.14h1.277v-.236h-1.581m2.102 0l-.443 1.449h.254l.23-.836.086-.311c.004.015.029.115.075.299l.231.849h.252l.217-.84.072-.277.083.28.248.838h.239l-.453-1.449h-.255l-.231.868-.056.247-.293-1.115h-.257m2.742.467l.254-.031c-.04-.148-.114-.263-.222-.345-.108-.082-.246-.123-.415-.123-.212 0-.38.065-.504.196-.124.131-.186.314-.186.549 0 .244.063.433.188.568.126.135.288.202.488.202.194 0 .352-.066.475-.198.123-.132.184-.317.184-.557 0-.015-.001-.036-.001-.066h-1.081c.009-.159.054-.281.135-.366.081-.085.182-.127.303-.127.09 0 .167.024.23.071.064.047.114.123.151.227m-.806.397h.809c-.011.122-.042.213-.093.274-.078.095-.18.142-.304.142-.113 0-.208-.038-.285-.113-.077-.076-.119-.176-.127-.303m1.37.854v.282h.246v-.282h-.246m0-1.718v1.449h.246v-1.449h-.246m1.416 0v2h.265v-1.764h.985v-.236h-1.25m1.535 1.718v.282h.246v-.282h-.246m0-1.718v1.449h.246v-1.449h-.246m.619 0v1.449h.221v-.206c.106.159.26.239.461.239.087 0 .168-.016.241-.047.073-.031.128-.073.164-.123.036-.051.062-.111.076-.181.009-.046.014-.125.014-.239v-.891h-.246v.881c0 .1-.01.175-.029.224-.019.05-.053.089-.102.119-.049.03-.106.044-.171.044-.105 0-.195-.033-.271-.1-.076-.066-.114-.192-.114-.378v-.791h-.246m1.555 1.718v.282h.246v-.282h-.246m0-1.718v1.449h.246v-1.449h-.246m1.611.467l.254-.031c-.04-.148-.114-.263-.222-.345-.108-.082-.246-.123-.415-.123-.212 0-.38.065-.504.196-.124.131-.186.314-.186.549 0 .244.063.433.188.568.126.135.288.202.488.202.194 0 .352-.066.475-.198.123-.132.184-.317.184-.557 0-.015 0-.036-.001-.066h-1.081c.009-.159.054-.281.135-.366.081-.085.182-.127.303-.127.09 0 .167.024.231.071.064.047.114.123.151.227m-.806.397h.809c-.011.122-.042.213-.093.274-.078.095-.18.142-.304.142-.113 0-.208-.038-.284-.113-.077-.076-.119-.176-.128-.303m1.368-.864v1.449h.221v-.206c.106.159.26.239.461.239.087 0 .168-.016.241-.047.073-.031.128-.073.164-.123.036-.051.062-.111.076-.181.009-.046.014-.125.014-.239v-.891h-.246v.881c0 .1-.01.175-.029.224-.019.05-.053.089-.102.119-.049.03-.106.044-.171.044-.105 0-.195-.033-.271-.1-.076-.066-.114-.192-.114-.378v-.791h-.246"/></g></g></svg>
