<svg width="259.06" xmlns="http://www.w3.org/2000/svg" height="152.16" viewBox="11.5331 -180.5 259.062 152.164" style="fill:none;stroke-linecap:round;stroke-linejoin:round"><g transform="scale(1-1)"><g style="stroke:#000"><path d="m210 30v60"/><path d="m270 90v-60"/></g><g style="stroke:#f00"><path d="m60 30v150"/><path d="m60 180h30"/><path d="m90 180v-30"/><path d="m90 150h30"/><path d="m120 150v-120"/><path d="m210 90v90"/><path d="m210 180h30"/><path d="m240 180v-30"/><path d="m240 150h30"/><path d="m270 150v-60"/><path d="m210 90h60"/><path d="m60 90h60"/></g><path d="m258 90l12 12m-36-12l36 36m-60-36l60 60m-60-36l36 36m-36-12l30 30m-30-6l18 18" style="stroke:#000;stroke-width:.5"/><g style="fill:#000;fill-rule:evenodd"><path d="m12.03 89.64c0 .996.267 1.775.802 2.339.535.563 1.225.845 2.071.845.554 0 1.053-.132 1.498-.397.445-.265.784-.634 1.017-1.107.233-.473.35-1.01.35-1.611 0-.608-.123-1.153-.368-1.633-.245-.48-.593-.844-1.044-1.091-.45-.247-.936-.37-1.457-.37-.565 0-1.069.136-1.514.409-.445.273-.782.645-1.01 1.117-.229.472-.344.971-.344 1.498m.819-.012c0-.723.194-1.293.583-1.709.389-.416.877-.624 1.463-.624.598 0 1.089.21 1.475.63.386.42.579 1.016.579 1.788 0 .488-.082.915-.248 1.279-.165.364-.407.647-.724.847-.318.201-.675.301-1.07.301-.562 0-1.046-.193-1.451-.579-.405-.386-.608-1.031-.608-1.934m5.848-2.91v4.347h.663v-.618c.319.478.78.716 1.383.716.262 0 .503-.047.722-.141.22-.094.384-.218.493-.37.109-.153.186-.334.229-.544.027-.136.041-.375.041-.716v-2.673h-.737v2.644c0 .3-.029.525-.086.673-.057.149-.159.267-.305.356-.146.089-.317.133-.514.133-.314 0-.585-.1-.812-.299-.228-.199-.342-.577-.342-1.134v-2.374h-.737m7.637 1.4l.761-.094c-.12-.445-.342-.79-.667-1.035-.325-.246-.739-.368-1.244-.368-.636 0-1.14.196-1.512.587-.372.391-.559.941-.559 1.647 0 .731.188 1.299.565 1.703.377.404.865.606 1.465.606.581 0 1.056-.198 1.424-.594.368-.396.552-.952.552-1.67 0-.044-.001-.109-.004-.197h-3.241c.027-.478.162-.843.405-1.097.243-.254.546-.381.909-.381.27 0 .501.071.692.213.191.142.342.368.454.679m-2.419 1.191h2.427c-.033.366-.125.64-.278.823-.235.284-.539.426-.913.426-.338 0-.623-.113-.853-.34-.23-.226-.358-.529-.383-.909m6.495-2.591v6h.794v-5.292h2.955v-.708h-3.749m4.604 5.153v.847h.737v-.847h-.737m0-5.153v4.347h.737v-4.347h-.737m1.857 0v4.347h.663v-.618c.319.478.78.716 1.383.716.262 0 .503-.047.722-.141.22-.094.384-.218.493-.37.109-.153.185-.334.229-.544.027-.136.041-.375.041-.716v-2.673h-.737v2.644c0 .3-.029.525-.086.673-.057.149-.159.267-.305.356-.146.089-.317.133-.514.133-.314 0-.585-.1-.812-.299-.228-.199-.342-.577-.342-1.134v-2.374h-.737m7.637 1.4l.761-.094c-.12-.445-.342-.79-.667-1.035-.325-.246-.739-.368-1.244-.368-.636 0-1.14.196-1.512.587-.372.391-.559.941-.559 1.647 0 .731.188 1.299.565 1.703.377.404.865.606 1.465.606.581 0 1.056-.198 1.424-.594.368-.396.553-.952.553-1.67 0-.044-.001-.109-.004-.197h-3.242c.027-.478.162-.843.405-1.097.243-.254.546-.381.909-.381.27 0 .501.071.692.213.191.142.342.368.454.679m-2.419 1.191h2.427c-.033.366-.126.64-.278.823-.235.284-.539.426-.913.426-.338 0-.623-.113-.853-.34-.23-.226-.358-.529-.383-.909"/><path d="m157.83 87.973v5.292h-1.977v.708h4.756v-.708h-1.985v-5.292h-.794m3.839 0l-1.33 4.347h.761l.692-2.509.258-.933c.01.046.085.345.225.896l.691 2.546h.757l.651-2.521.217-.831.25.839.745 2.513h.716l-1.359-4.347h-.765l-.692 2.603-.168.741-.88-3.344h-.769m4.976 2.173c0 .805.223 1.401.671 1.788.374.322.829.483 1.367.483.597 0 1.086-.196 1.465-.587.379-.392.569-.933.569-1.623 0-.559-.084-.999-.252-1.32-.168-.321-.412-.57-.732-.747-.321-.177-.671-.266-1.05-.266-.609 0-1.101.195-1.476.585-.375.39-.562.952-.562 1.686m.757 0c0-.557.121-.973.364-1.25.243-.277.548-.415.917-.415.365 0 .67.139.912.418.243.278.365.703.365 1.273 0 .537-.122.945-.367 1.222-.244.277-.547.415-.91.415-.369 0-.674-.138-.917-.413-.243-.276-.364-.692-.364-1.248m6.568-2.173v6h.794v-5.292h2.955v-.708h-3.749m4.604 5.153v.847h.737v-.847h-.737m0-5.153v4.347h.737v-4.347h-.737m1.857 0v4.347h.663v-.618c.319.478.78.716 1.383.716.262 0 .503-.047.723-.141.219-.094.384-.218.493-.37.109-.153.185-.334.229-.544.027-.136.041-.375.041-.716v-2.673h-.737v2.644c0 .3-.028.525-.086.673-.057.149-.159.267-.305.356-.146.089-.317.133-.513.133-.314 0-.585-.1-.813-.299-.228-.199-.342-.577-.342-1.134v-2.374h-.736m7.636 1.4l.762-.094c-.12-.445-.343-.79-.667-1.035-.325-.246-.74-.368-1.245-.368-.635 0-1.139.196-1.512.587-.372.392-.559.941-.559 1.647 0 .731.189 1.299.565 1.703.377.404.865.606 1.465.606.582 0 1.056-.198 1.425-.594.368-.396.552-.952.552-1.67 0-.044-.001-.109-.004-.197h-3.241c.027-.478.162-.843.405-1.097.243-.254.546-.381.908-.381.271 0 .501.071.692.213.191.142.343.368.454.679m-2.418 1.191h2.427c-.033.366-.126.64-.279.823-.234.284-.539.426-.912.426-.339 0-.623-.113-.854-.34-.23-.227-.358-.529-.382-.909m3.809-1.293l.729.115c.041-.292.155-.516.342-.671.187-.156.448-.233.783-.233.339 0 .59.069.754.207.163.138.245.299.245.485 0 .166-.072.297-.217.393-.101.066-.352.149-.753.25-.54.136-.915.254-1.123.354-.209.1-.367.237-.475.413-.108.176-.162.37-.162.583 0 .194.045.373.133.538.089.165.21.302.362.411.115.085.271.156.469.215.198.059.41.088.637.088.341 0 .64-.049.898-.147.258-.098.448-.231.571-.399.123-.168.207-.392.254-.673l-.721-.098c-.032.224-.127.398-.284.524-.157.126-.379.188-.665.188-.339 0-.58-.056-.725-.168-.144-.112-.217-.243-.217-.393 0-.096.03-.181.09-.258.06-.079.155-.145.283-.197.073-.027.29-.09.651-.188.521-.139.884-.253 1.09-.342.206-.089.368-.218.485-.387.118-.169.176-.379.176-.63 0-.246-.071-.477-.215-.694-.143-.217-.35-.385-.62-.504-.27-.119-.575-.178-.916-.178-.565 0-.996.117-1.292.352-.296.235-.485.582-.567 1.044"/></g><g style="stroke:#000;stroke-width:.5"><path d="m49.851 89.96l8.02 12.03"/><path d="m49.861 88.971l7.97-11.307"/><path d="m198.52 90.64l9.638 13.531"/><path d="m198.52 89.34l9.638-13.716"/><path d="m59.95 30.27h.145.145v-.145h.145.145.145.291.291.145.291.291l.291.145h.291.145.145.145.145.145.146.145.145.145l.145.146h.145.291.145.145.145.145l.146-.146h.145.145.145l.145-.145h.145.145l.145-.145h.145l.145-.145h.145.145l.146-.145h.291.145.145l.145-.145h.145.145.145l.145-.145h.145.145.146.145.145.291l.145.145h.145.291l.291.145h.145l.146.145h.291.145l.145.145h.145.145l.145.145h.145.145.145.145l.146.145h.291.145.291.145.291.145.291.146.291.291l.291-.145h.145.145.291l.291-.145h.145l.145-.145h.145.145.291l.145-.145h.291.291.291.291.436l.291-.145h.436.291.291.436.291.291.437.291.291.436.291l.291.145h.291.291.291.436.437.436.291.291.145.291.291.291.291.291.145l.145-.145h.145.145.145l.146.145h.145.145l.145.145h.145.291l.145.145.145.145h.145.145.146.145.145.145.291.145.145.145.145.145.145.291.145l.145.145h.145.145.145.145.145.291.145l.146-.145h.291.145.291l.291-.145h.291l.291-.145h.146l.291-.145h.291l.145-.145h.145l.291-.145h.145l.145-.145h.291l.145-.145h.291.145.291.145.145.291.291.145.291.145.291.145.291.145.145.291.145.146.145.146.145.291.291l.146.145h.291.145.291.291.291.291.146.291l.145.145h.291.146.291l.146.145h.145l.146.145h.145l.146.145h.145.146v.145h.145l.146.145h.145.146l.145.145h.146l.291.146h.145.146l.145.145h.146.145.146l.145.145h.146.145.146.145.146.145l.146.145h.291.145.291.146.291.145.146.145l.146-.145h.145.146.145.146.145l.146-.145h.145.146v-.145h.145l.146-.146.145-.145.146-.145h.145l.146-.145h.145l.146-.145h.145l.146-.145h.146.145.146v-.145h.145.146.145.146.145.146.145.146.145.146.145.146.145.146.145.146.145.146.145.146l.145.145h.146.145.146.145.146.145l.146.145h.145.146.145v.145h.146.145.146.145.146.145.146.145.146.145.146.145.146.145"/><path d="m210 30h.146.145v-.145h.146.145.146.291.291.145.291.291l.291.145h.291.146.145.146.145.146.145.146.145.146l.145.145h.146.291.145.146.145.146l.145-.145h.146.145.146l.145-.145h.146.145l.146-.145h.145l.146-.145h.145.146l.145-.145h.291.146.145l.146-.145h.145.146.145l.146-.146h.145.146.146.145.146.291l.145.146h.146.291l.291.145h.145l.146.145h.291.145l.146.145h.145.146l.145.145h.146.145.146.145l.146.145h.291.145.291.146.291.145.291.146.291.291l.291-.145h.145.146.291l.291-.145h.145l.146-.145h.145.146.291l.145-.145h.291.291.292.291.436l.291-.145h.437.291.291.436.291.291.437.291.291.436.291l.291.145h.291.291.291.437.436.437.291.291.145.291.292.291.291.291.145l.146-.145h.145.146.145l.146.145h.145.146l.145.145h.146.291l.145.145.146.145h.145.146.145.146.145.146.291.145.146.145.146.145.146.291.145l.146.145h.145.146.145.146.145.291.146l.145-.145h.291.146.291l.291-.145h.291l.291-.145h.146l.291-.145h.291l.145-.145h.146l.291-.146h.145l.146-.145h.291l.145-.145h.291.146.291.145.146.291.291.145.291.146.291.145.291.146.145.291.146.145.146.145.146.291.291l.145.145h.291.146.291.291.291.291.145.292l.145.145h.291.146.291l.145.146h.146l.145.145h.146l.145.145h.146.145v.145h.146l.145.145h.146.145l.146.145h.145l.291.145h.146.145l.146.145h.145.146.145l.146.145h.145.146.145.146.145.146l.145.145h.291.146.291.145.291.146.145.146l.145-.145h.146.145.146.145.146l.145-.145h.146.145v-.145h.146l.145-.145.146-.145.146-.145h.145l.146-.145h.145l.146-.145h.145l.146-.145h.145.146.145v-.146h.146.145.146.145.146.145.146.145.146.145.146.145.146.145.146.145.146.145.146.145l.146.146h.145.146.145.146.145.146l.145.145h.146.145.146v.145h.145.146.145.146.145.146.145.146.145.146.145.146.145.146"/></g></g></svg>
