<?xml version="1.0" encoding="UTF-8" standalone="no"?>
<!-- Created with Inkscape (http://www.inkscape.org/) -->

<svg
   xmlns:dc="http://purl.org/dc/elements/1.1/"
   xmlns:cc="http://creativecommons.org/ns#"
   xmlns:rdf="http://www.w3.org/1999/02/22-rdf-syntax-ns#"
   xmlns:svg="http://www.w3.org/2000/svg"
   xmlns="http://www.w3.org/2000/svg"
   xmlns:xlink="http://www.w3.org/1999/xlink"
   xmlns:sodipodi="http://sodipodi.sourceforge.net/DTD/sodipodi-0.dtd"
   xmlns:inkscape="http://www.inkscape.org/namespaces/inkscape"
   width="48"
   height="48"
   id="svg2"
   sodipodi:version="0.32"
   inkscape:version="0.47 r22583"
   version="1.0"
   sodipodi:docname="ArrowUp.svg"
   inkscape:output_extension="org.inkscape.output.svg.inkscape">
  <defs
     id="defs4">
    <radialGradient
       cx="42.7856"
       cy="42.189"
       gradientUnits="userSpaceOnUse"
       id="XMLID_2_"
       r="69.8333">
      <stop
         id="stop6"
         offset="0"
         style="stop-color:#93aef5;stop-opacity:1;" />
      <stop
         id="stop8"
         offset="1"
         style="stop-color:#094ece;stop-opacity:1;" />
    </radialGradient>
    <inkscape:perspective
       sodipodi:type="inkscape:persp3d"
       inkscape:vp_x="0 : 526.18109 : 1"
       inkscape:vp_y="0 : 1000 : 0"
       inkscape:vp_z="744.09448 : 526.18109 : 1"
       inkscape:persp3d-origin="372.04724 : 350.78739 : 1"
       id="perspective10" />
    <inkscape:perspective
       id="perspective2390"
       inkscape:persp3d-origin="372.04724 : 350.78739 : 1"
       inkscape:vp_z="744.09448 : 526.18109 : 1"
       inkscape:vp_y="0 : 1000 : 0"
       inkscape:vp_x="0 : 526.18109 : 1"
       sodipodi:type="inkscape:persp3d" />
    <radialGradient
       r="69.833298"
       id="radialGradient2459"
       gradientUnits="userSpaceOnUse"
       cy="42.188999"
       cx="42.785599">
      <stop
         style="stop-color: rgb(209, 245, 147);"
         offset="0"
         id="stop2461" />
      <stop
         style="stop-color: rgb(129, 206, 9);"
         offset="1"
         id="stop2463" />
    </radialGradient>
    <radialGradient
       inkscape:collect="always"
       xlink:href="#XMLID_2_"
       id="radialGradient2476"
       gradientUnits="userSpaceOnUse"
       cx="98.891502"
       cy="60.014896"
       r="69.8333"
       gradientTransform="matrix(-0.21224014,0.15578457,-0.18925252,-0.2578367,52.870592,16.344829)"
       fx="98.891502"
       fy="60.014896" />
  </defs>
  <sodipodi:namedview
     id="base"
     pagecolor="#ffffff"
     bordercolor="#666666"
     borderopacity="1.0"
     gridtolerance="10000"
     guidetolerance="10"
     objecttolerance="10"
     inkscape:pageopacity="0.0"
     inkscape:pageshadow="2"
     inkscape:zoom="5.6"
     inkscape:cx="15.372017"
     inkscape:cy="16.92803"
     inkscape:document-units="px"
     inkscape:current-layer="layer1"
     showgrid="false"
     inkscape:window-width="1112"
     inkscape:window-height="776"
     inkscape:window-x="188"
     inkscape:window-y="152"
     inkscape:window-maximized="0">
    <inkscape:grid
       type="xygrid"
       id="grid2436"
       visible="true"
       enabled="true" />
  </sodipodi:namedview>
  <metadata
     id="metadata7">
    <rdf:RDF>
      <cc:Work
         rdf:about="">
        <dc:format>image/svg+xml</dc:format>
        <dc:type
           rdf:resource="http://purl.org/dc/dcmitype/StillImage" />
      </cc:Work>
    </rdf:RDF>
  </metadata>
  <g
     inkscape:label="Layer 1"
     inkscape:groupmode="layer"
     id="layer1">
    <g
       id="g3597">
      <path
         d="m 4.7421405,27.304026 c 1.2329751,0 2.4656303,0 3.6986054,0 0.5568378,0 3.8105481,-0.41483 4.1703661,0 0.283376,0.326234 0,2.162744 0,2.574695 0,1.969882 0,3.939763 0,5.909965 0,2.54495 -0.870599,7.157972 1.770623,8.705348 2.146432,1.256643 6.210612,0.488072 8.54319,0.488072 2.680881,0 5.490657,0.247555 8.161943,0 4.271435,0 3.575148,-4.980835 3.575148,-7.81268 0,-3.225885 0,-6.45177 0,-9.677655 0,-0.395 6.841653,-0.187745 7.71449,-0.187745 3.028226,0 4.379861,-3.155841 2.202084,-5.340014 C 42.673636,20.051701 40.768042,18.14003 38.861808,16.228039 34.805943,12.158742 30.933026,7.5335663 26.522142,3.8487133 c -2.608918,-2.599962 -5.0915,0.034863 -6.928969,1.870093 -2.502411,2.500492 -5.005463,5.0013047 -7.508194,7.5021167 -2.4595535,2.456675 -4.9191069,4.91399 -7.3780207,7.371304 -1.5943919,1.592793 -3.6320792,3.61161 -1.5991895,5.954103 0.4151496,0.478477 0.9978942,0.757696 1.6343717,0.757696"
         id="path10"
         style="fill:url(#radialGradient2476)" />
      <path
         d="m 16.18722,44.982106 c 2.720861,0 5.441722,0 8.161943,0 2.332258,0 6.396758,0.768891 8.541911,-0.488072 2.641861,-1.547696 1.770942,-6.159438 1.770942,-8.704069 0,-1.840027 0,-3.680055 0,-5.519443 0,-0.470161 -0.324955,-2.598043 0,-2.966176 0.321757,-0.364616 3.160638,0 3.644873,0 1.51955,0 3.0391,0 4.55833,0 3.47152,0 3.167674,-3.881553 1.371145,-5.68384 -4.796289,-4.811961 -9.592898,-9.623922 -14.389827,-14.4362027 -1.739279,-1.745036 -4.026439,-5.074228 -6.872357,-4.214184 0.191263,0.101388 0.903862,1.191716 1.117833,1.406007 0.978385,0.980623 1.956449,1.962525 2.934193,2.942829 2.716064,2.7250187 5.432447,5.4490777 8.14851,8.1734567 1.808364,1.814121 3.616727,3.627602 5.424771,5.441083 0.780085,0.782643 1.457501,2.082144 0.857485,3.168953 -0.706841,1.281911 -2.782269,0.94736 -4.011726,0.94736 -1.660919,0 -3.321837,0 -4.982755,0 -0.913457,0 -0.553639,0.689571 -0.553639,1.532024 0,3.581225 0,7.16213 0,10.743355 0,2.638663 -0.163438,5.279564 -3.471201,5.279564 -3.476318,0 -6.953276,0 -10.429594,0 -1.590234,0 -3.704363,0.346385 -5.243103,-0.21653 0.433061,1.512194 1.845465,2.593885 3.422266,2.593885"
         id="path12"
         style="fill:#5f8dd3" />
      <path
         d="m 34.424057,42.387581 c -2.429809,0.886271 -5.996321,0.216531 -8.511526,0.216531 -2.670327,0 -5.788746,0.465684 -8.426769,-0.05533 -2.990165,-0.589462 -2.13236,-5.887896 -2.13236,-8.065353 0,-3.116181 0,-6.232681 0,-9.348862 0,-0.245635 -6.9104172,0.102029 -7.9153479,-0.258429 -3.0355815,-1.089687 0.042858,-4.146058 1.2336148,-5.331058 4.9066331,-4.883605 9.8129461,-9.7672097 14.7195801,-14.6501747 0.39372,-0.391481 1.252485,-1.677869 1.720408,-1.925104 -3.041979,-0.918575 -5.895253,3.212772 -7.744235,5.054078 -3.460647,3.4459337 -6.921612,6.8918667 -10.3822584,10.3378007 -1.6733918,1.666355 -5.1625035,3.973026 -4.6344511,6.719155 0.6822142,3.55084 7.6079841,2.223193 10.1769215,2.223193 0,2.985047 -6.39e-4,5.969135 -6.39e-4,8.954182 -3.2e-4,2.929715 -0.945121,8.723898 3.575787,8.723898 2.978651,0.276021 6.112103,0 9.101947,0 2.814254,0 8.184972,1.018045 9.219328,-2.594525"
         id="path14"
         style="fill:#80b3ff" />
      <path
         d="m 2.3462347,25.841407 c 1.2173031,2.942509 7.1627698,1.751432 9.6786143,1.751432 0.624004,0 0.297449,7.429515 0.297449,8.343612 0,2.74293 -0.881793,7.36011 2.090141,8.902688 2.235667,1.160052 6.123617,0.431781 8.512806,0.431781 2.686638,0 5.482981,0.226765 8.161943,0 4.440629,0 3.863962,-4.923904 3.863962,-7.915988 0,-3.233242 0,-6.466163 0,-9.699404 0,-0.19702 7.564486,0.06269 8.574854,-0.116101 2.431088,-0.429863 3.241237,-3.797436 1.544817,-5.491937 -0.310243,-0.395 -0.734668,-0.736907 -1.088728,-1.091927 -2.186732,-2.194088 -4.374103,-4.388176 -6.561155,-6.581944 -2.456675,-2.464671 -4.91271,-4.9287017 -7.369705,-7.3933727 -1.278392,-1.28287 -2.743889,-3.337828 -4.447666,-4.114075 -2.7215,-1.239052 -4.520908,0.958235 -6.213171,2.648578 -2.389189,2.38663 -4.778698,4.7739007 -7.167887,7.1608507 -2.3517678,2.350169 -4.7041756,4.699378 -7.0559437,7.049547 -1.7095335,1.706655 -3.9775041,3.318638 -2.8203306,6.11626 M 31.086868,44.693293 c -2.720861,0 -5.441722,0 -8.161943,0 -2.265412,0 -6.542604,0.811429 -8.574534,-0.561955 -2.336096,-1.57936 -1.450785,-6.350062 -1.450785,-8.726138 0,-1.827234 0,-3.653508 0,-5.480742 0,-0.463126 0.319518,-2.544311 0,-2.909246 -0.314721,-0.359498 -3.1328121,0 -3.6096904,0 -1.5041977,0 -3.0087152,0 -4.5129128,0 -2.1035739,0 -2.8539136,-3.233561 -1.5189102,-4.567605 0.4842346,-0.483595 0.9681493,-0.96719 1.4517442,-1.450785 4.9552486,-4.95077 9.9104972,-9.901541 14.8657452,-14.8526317 1.640769,-1.63853 3.625363,-4.22154 6.226605,-2.509768 1.646525,1.083291 3.016711,2.928116 4.392014,4.308217 4.654601,4.6699527 9.309521,9.3395857 13.963803,14.0095387 0.821343,0.823583 1.374663,1.712093 1.172525,2.977051 -0.309283,1.932141 -1.93214,2.085983 -3.506063,2.085983 -0.968789,0 -7.452223,-0.37517 -7.452223,0.321117 0,3.153602 0,6.307844 0,9.461445 9.6e-4,2.677044 0.836056,7.895519 -3.285375,7.895519"
         id="path16"
         style="fill:#000000" />
    </g>
  </g>
</svg>
