<svg width="48" xmlns="http://www.w3.org/2000/svg" height="48" xmlns:xlink="http://www.w3.org/1999/xlink">
<defs>
<radialGradient cx="42.786" cy="42.189" id="XMLID_2_" r="69.833" gradientUnits="userSpaceOnUse">
<stop offset="0" stop-color="#93aef5"/>
<stop offset="1" stop-color="#094ece"/>
</radialGradient>
<radialGradient cx="98.892" cy="60.015" gradientTransform="matrix(-.21224 .15578 -.18925 -.25784 52.87059 16.34483)" xlink:href="#XMLID_2_" id="radialGradient2476" r="69.833" gradientUnits="userSpaceOnUse"/>
</defs>
<path fill="url(#radialGradient2476)" d="m4.7421,27.304c1.233,0 2.4656,0 3.6986,0 .5568,0 3.8105-.4148 4.1704,0 .2834,.3262 0,2.1627 0,2.5747 0,1.9699 0,3.9398 0,5.91 0,2.545-.8706,7.158 1.7706,8.7053 2.1464,1.2566 6.2106,.4881 8.5432,.4881 2.6809,0 5.4907,.2476 8.1619,0 4.2714,0 3.5751-4.9808 3.5751-7.8127 0-3.2259 0-6.4518 0-9.6777 0-.395 6.8417-.1877 7.7145-.1877 3.0282,0 4.3799-3.1558 2.2021-5.34-1.905-1.9123-3.8105-3.824-5.7168-5.736-4.0559-4.0693-7.9288-8.6945-12.3397-12.3793-2.6089-2.6-5.0915,.0349-6.929,1.8701-2.5024,2.5005-5.0055,5.0013-7.5082,7.5021-2.4596,2.4567-4.9191,4.914-7.378,7.3713-1.5944,1.5928-3.6321,3.6116-1.5992,5.9541 .4151,.4785 .9979,.7577 1.6344,.7577"/>
<path fill="#5f8dd3" d="m16.1872,44.9821c2.7209,0 5.4417,0 8.1619,0 2.3323,0 6.3968,.7689 8.5419-.4881 2.6419-1.5477 1.7709-6.1594 1.7709-8.7041 0-1.84 0-3.6801 0-5.5194 0-.4702-.325-2.598 0-2.9662 .3218-.3646 3.1606,0 3.6449,0 1.5196,0 3.0391,0 4.5583,0 3.4715,0 3.1677-3.8816 1.3711-5.6838-4.7963-4.812-9.5929-9.6239-14.3898-14.4362-1.7393-1.745-4.0264-5.0742-6.8724-4.2142 .1913,.1014 .9039,1.1917 1.1178,1.406 .9784,.9806 1.9564,1.9625 2.9342,2.9428 2.7161,2.725 5.4324,5.4491 8.1485,8.1735 1.8084,1.8141 3.6167,3.6276 5.4248,5.4411 .7801,.7826 1.4575,2.0821 .8575,3.169-.7068,1.2819-2.7823,.9474-4.0117,.9474-1.6609,0-3.3218,0-4.9828,0-.9135,0-.5536,.6896-.5536,1.532 0,3.5812 0,7.1621 0,10.7434 0,2.6387-.1634,5.2796-3.4712,5.2796-3.4763,0-6.9533,0-10.4296,0-1.5902,0-3.7044,.3464-5.2431-.2165 .4331,1.5122 1.8455,2.5939 3.4223,2.5939"/>
<path fill="#80b3ff" d="m34.4241,42.3876c-2.4298,.8863-5.9963,.2165-8.5115,.2165-2.6703,0-5.7887,.4657-8.4268-.0553-2.9902-.5895-2.1324-5.8879-2.1324-8.0654 0-3.1162 0-6.2327 0-9.3489 0-.2456-6.9104,.102-7.9153-.2584-3.0356-1.0897 .0429-4.1461 1.2336-5.3311 4.9066-4.8836 9.8129-9.7672 14.7196-14.6502 .3937-.3915 1.2525-1.6779 1.7204-1.9251-3.042-.9186-5.8953,3.2128-7.7442,5.0541-3.4606,3.4459-6.9216,6.8919-10.3823,10.3378-1.6734,1.6664-5.1625,3.973-4.6345,6.7192 .6822,3.5508 7.608,2.2232 10.1769,2.2232 0,2.985-.0006,5.9691-.0006,8.9542-.0003,2.9297-.9451,8.7239 3.5758,8.7239 2.9787,.276 6.1121,0 9.1019,0 2.8143,0 8.185,1.018 9.2193-2.5945"/>
<path d="m2.3462,25.8414c1.2173,2.9425 7.1628,1.7514 9.6786,1.7514 .624,0 .2974,7.4295 .2974,8.3436 0,2.7429-.8818,7.3601 2.0901,8.9027 2.2357,1.1601 6.1236,.4318 8.5128,.4318 2.6866,0 5.483,.2268 8.1619,0 4.4406,0 3.864-4.9239 3.864-7.916 0-3.2332 0-6.4662 0-9.6994 0-.197 7.5645,.0627 8.5749-.1161 2.4311-.4299 3.2412-3.7974 1.5448-5.4919-.3102-.395-.7347-.7369-1.0887-1.0919-2.1867-2.1941-4.3741-4.3882-6.5612-6.5819-2.4567-2.4647-4.9127-4.9287-7.3697-7.3934-1.2784-1.2829-2.7439-3.3378-4.4477-4.1141-2.7215-1.2391-4.5209,.9582-6.2132,2.6486-2.3892,2.3866-4.7787,4.7739-7.1679,7.1609-2.3518,2.3502-4.7042,4.6994-7.0559,7.0495-1.7095,1.7067-3.9775,3.3186-2.8203,6.1163m28.7406,18.8519c-2.7209,0-5.4417,0-8.1619,0-2.2654,0-6.5426,.8114-8.5745-.562-2.3361-1.5794-1.4508-6.3501-1.4508-8.7261 0-1.8272 0-3.6535 0-5.4807 0-.4631 .3195-2.5443 0-2.9092-.3147-.3595-3.1328,0-3.6097,0-1.5042,0-3.0087,0-4.5129,0-2.1036,0-2.8539-3.2336-1.5189-4.5676 .4842-.4836 .9681-.9672 1.4517-1.4508 4.9552-4.9508 9.9105-9.9015 14.8657-14.8526 1.6408-1.6385 3.6254-4.2215 6.2266-2.5098 1.6465,1.0833 3.0167,2.9281 4.392,4.3082 4.6546,4.67 9.3095,9.3396 13.9638,14.0095 .8213,.8236 1.3747,1.7121 1.1725,2.9771-.3093,1.9321-1.9321,2.086-3.5061,2.086-.9688,0-7.4522-.3752-7.4522,.3211 0,3.1536 0,6.3078 0,9.4614 .001,2.677 .8361,7.8955-3.2854,7.8955"/>
</svg>
