<svg xmlns="http://www.w3.org/2000/svg" xmlns:xlink="http://www.w3.org/1999/xlink" viewBox="0 0 48 48"><defs><radialGradient cx="42.786" cy="42.19" id="0" r="69.833" gradientUnits="userSpaceOnUse"><stop style="stop-color:#93aef5"/><stop offset="1" style="stop-color:#094ece"/></radialGradient><radialGradient cx="98.89" cy="60.02" gradientTransform="matrix(-.21224.15578-.18925-.25784 52.871 16.345)" xlink:href="#0" id="1" r="69.833" gradientUnits="userSpaceOnUse"/></defs><path d="m4.742 27.304c1.233 0 2.466 0 3.699 0 .557 0 3.811-.415 4.17 0 .283.326 0 2.163 0 2.575 0 1.97 0 3.94 0 5.91 0 2.545-.871 7.158 1.771 8.705 2.146 1.257 6.211.488 8.543.488 2.681 0 5.491.248 8.162 0 4.271 0 3.575-4.981 3.575-7.813 0-3.226 0-6.452 0-9.678 0-.395 6.842-.188 7.715-.188 3.03 0 4.38-3.156 2.202-5.34-1.905-1.912-3.81-3.824-5.717-5.736-4.056-4.069-7.929-8.695-12.34-12.379-2.609-2.6-5.092.035-6.929 1.87-2.502 2.5-5.01 5-7.508 7.502-2.46 2.457-4.919 4.914-7.378 7.371-1.594 1.593-3.632 3.612-1.599 5.954.415.479.998.758 1.634.758" style="fill:url(#1)"/><path d="m16.187 44.982c2.721 0 5.442 0 8.162 0 2.332 0 6.397.769 8.542-.488 2.642-1.548 1.771-6.159 1.771-8.704 0-1.84 0-3.68 0-5.519 0-.47-.325-2.598 0-2.966.322-.365 3.161 0 3.645 0 1.52 0 3.039 0 4.558 0 3.471 0 3.168-3.882 1.371-5.684-4.796-4.812-9.593-9.624-14.39-14.436-1.739-1.745-4.03-5.074-6.872-4.214.191.101.904 1.192 1.118 1.406.978.981 1.956 1.962 2.934 2.943 2.716 2.725 5.432 5.449 8.148 8.174 1.808 1.814 3.617 3.628 5.425 5.441.78.783 1.458 2.082.858 3.169-.707 1.282-2.782.947-4.01.947-1.661 0-3.322 0-4.983 0-.913 0-.554.69-.554 1.532 0 3.581 0 7.162 0 10.743 0 2.639-.163 5.28-3.471 5.28-3.476 0-6.953 0-10.43 0-1.59 0-3.704.346-5.243-.217.433 1.512 1.845 2.594 3.422 2.594" style="fill:#5f8dd3"/><path d="m34.424 42.39c-2.43.886-5.996.217-8.511.217-2.67 0-5.789.466-8.427-.055-2.99-.59-2.132-5.888-2.132-8.07 0-3.116 0-6.233 0-9.349 0-.246-6.91.102-7.915-.258-3.036-1.09.043-4.146 1.234-5.331 4.907-4.884 9.813-9.767 14.72-14.65.394-.391 1.253-1.678 1.72-1.925-3.042-.919-5.895 3.213-7.744 5.05-3.461 3.446-6.922 6.892-10.382 10.338-1.673 1.666-5.163 3.973-4.635 6.719.682 3.551 7.608 2.223 10.177 2.223 0 2.985-.001 5.969-.001 8.954 0 2.93-.945 8.724 3.576 8.724 2.979.276 6.112 0 9.102 0 2.814 0 8.185 1.018 9.219-2.594" style="fill:#80b3ff"/><path d="m2.346 25.841c1.217 2.942 7.163 1.751 9.679 1.751.624 0 .297 7.43.297 8.344 0 2.743-.882 7.36 2.09 8.903 2.236 1.16 6.124.432 8.513.432 2.687 0 5.483.227 8.162 0 4.441 0 3.864-4.924 3.864-7.916 0-3.233 0-6.466 0-9.699 0-.197 7.565.063 8.575-.116 2.431-.43 3.241-3.797 1.545-5.492-.31-.395-.735-.737-1.089-1.092-2.187-2.194-4.374-4.388-6.561-6.582-2.457-2.465-4.913-4.929-7.37-7.393-1.278-1.283-2.744-3.338-4.448-4.114-2.721-1.239-4.521.958-6.213 2.649-2.389 2.387-4.779 4.774-7.168 7.161-2.352 2.35-4.704 4.699-7.06 7.05-1.71 1.707-3.978 3.319-2.82 6.116m28.741 18.852c-2.721 0-5.442 0-8.162 0-2.265 0-6.543.811-8.575-.562-2.336-1.579-1.451-6.35-1.451-8.726 0-1.827 0-3.654 0-5.481 0-.463.319-2.544 0-2.909-.315-.36-3.133 0-3.61 0-1.504 0-3.01 0-4.513 0-2.104 0-2.854-3.234-1.519-4.568.484-.484.968-.967 1.452-1.451 4.955-4.951 9.911-9.902 14.866-14.853 1.641-1.639 3.625-4.222 6.227-2.51 1.646 1.083 3.02 2.928 4.392 4.308 4.655 4.67 9.31 9.34 13.964 14.01.821.824 1.375 1.712 1.172 2.977-.309 1.932-1.932 2.086-3.506 2.086-.969 0-7.452-.375-7.452.321 0 3.154 0 6.308 0 9.461.001 2.677.836 7.895-3.285 7.895"/></svg>