<?xml version="1.0" encoding="UTF-8" standalone="no"?>
<!-- Created with Inkscape (http://www.inkscape.org/) -->

<svg
   xmlns:dc="http://purl.org/dc/elements/1.1/"
   xmlns:cc="http://creativecommons.org/ns#"
   xmlns:rdf="http://www.w3.org/1999/02/22-rdf-syntax-ns#"
   xmlns:svg="http://www.w3.org/2000/svg"
   xmlns="http://www.w3.org/2000/svg"
   xmlns:sodipodi="http://sodipodi.sourceforge.net/DTD/sodipodi-0.dtd"
   xmlns:inkscape="http://www.inkscape.org/namespaces/inkscape"
   width="256"
   height="256"
   id="svg5294"
   sodipodi:version="0.32"
   inkscape:version="0.48.5 r10040"
   version="1.0"
   sodipodi:docname="InfoCentroidsListener.svg"
   inkscape:output_extension="org.inkscape.output.svg.inkscape">
  <defs
     id="defs5296">
    <inkscape:perspective
       sodipodi:type="inkscape:persp3d"
       inkscape:vp_x="0 : 526.18109 : 1"
       inkscape:vp_y="0 : 1000 : 0"
       inkscape:vp_z="744.09448 : 526.18109 : 1"
       inkscape:persp3d-origin="372.04724 : 350.78739 : 1"
       id="perspective5302" />
  </defs>
  <sodipodi:namedview
     id="base"
     pagecolor="#ffffff"
     bordercolor="#666666"
     borderopacity="1.0"
     gridtolerance="10000"
     guidetolerance="10"
     objecttolerance="10"
     inkscape:pageopacity="0.0"
     inkscape:pageshadow="2"
     inkscape:zoom="1.4040232"
     inkscape:cx="77.207427"
     inkscape:cy="102.3592"
     inkscape:document-units="px"
     inkscape:current-layer="layer1"
     showgrid="false"
     inkscape:window-width="1920"
     inkscape:window-height="1018"
     inkscape:window-x="-8"
     inkscape:window-y="-8"
     inkscape:window-maximized="1" />
  <metadata
     id="metadata5299">
    <rdf:RDF>
      <cc:Work
         rdf:about="">
        <dc:format>image/svg+xml</dc:format>
        <dc:type
           rdf:resource="http://purl.org/dc/dcmitype/StillImage" />
      </cc:Work>
    </rdf:RDF>
  </metadata>
  <g
     inkscape:label="Layer 1"
     inkscape:groupmode="layer"
     id="layer1">
    <g
       id="g3775">
      <path
         d="M 30.59266,256 C 13.717521,256 7.0000002e-8,242.30836 7.0000002e-8,225.35558 l 0,-194.711155 C 7.0000002e-8,13.769286 13.717521,0.05176477 30.59266,0.05176477 l 194.81468,0 C 242.30836,0.05176477 256,13.769286 256,30.644425 l 0,194.711155 C 256,242.30836 242.30836,256 225.40734,256 l -194.81468,0 z"
         style="fill:#000000;fill-opacity:1;fill-rule:nonzero;stroke:none"
         id="path3996"
         inkscape:connector-curvature="0" />
      <path
         d="m 30.59266,5.2178344 c -14.002224,0 -25.3644727,11.4140126 -25.3644727,25.4162366 l 0,194.737029 c 0,14.00223 11.3622487,25.41624 25.3644727,25.41624 l 194.81468,0 c 14.05399,0 25.44212,-11.41401 25.44212,-25.41624 l 0,-194.737029 c 0,-14.002224 -11.38813,-25.4162366 -25.44212,-25.4162366 l -194.81468,0 z"
         style="fill:#ffffff;fill-opacity:1;fill-rule:nonzero;stroke:none"
         id="path4000"
         inkscape:connector-curvature="0" />
    </g>
    <g
       id="g3303"
       transform="matrix(0.88714488,0,0,0.88714488,42.656903,-3.566973)">
      <g
         transform="matrix(22.780499,0,0,-22.780499,134.69146,65.39938)"
         id="g4002">
        <path
           inkscape:connector-curvature="0"
           id="path4004"
           style="fill:#231f20;fill-opacity:1;fill-rule:nonzero;stroke:none"
           d="M 0,0 0.18,0 C 1.184,-0.002 1.76,-0.958 1.764,-1.605 1.76,-1.731 1.729,-1.84 1.586,-1.837 1.285,-1.84 1.393,-1.355 1.145,-0.944 1.027,-0.741 0.65,-0.374 0.221,-0.377 l -0.158,0 c -0.231,0.003 -0.665,-0.13 -0.956,-0.567 -0.363,-0.529 -0.125,-0.915 -0.429,-0.913 -0.047,-0.002 -0.182,0.011 -0.18,0.23 C -1.488,-0.634 -0.578,-0.002 0,0" />
      </g>
      <g
         transform="matrix(29.337895,0,0,-29.337895,139.06965,213.59078)"
         id="g4006">
        <path
           id="path4008"
           style="fill:#231f20;fill-opacity:1;fill-rule:nonzero;stroke:none"
           d="m 0,0 c 0.377,-0.004 0.668,0.378 0.672,0.641 l 0,0.546 C 0.668,2.305 1.842,2.745 1.838,3.864 1.842,4.912 0.895,5.704 0,5.702 -0.742,5.704 -1.248,5.226 -1.439,4.978 -2.014,4.268 -1.684,3.591 -2.09,3.591 c -0.115,0 -0.228,0.065 -0.23,0.295 -0.018,1.11 0.898,2.287 2.341,2.289 C 1.186,6.173 2.33,5.245 2.33,3.822 2.33,2.504 1.176,2.229 1.176,1.071 l 0,-0.494 c 0,-0.508 -0.453,-1.089 -1.197,-1.092 -0.028,0.008 -0.059,0.018 -0.094,0.022 -0.137,0.041 -0.233,0.184 -0.199,0.325 0.039,0.122 0.152,0.152 0.304,0.168 L 0,0 z"
           inkscape:connector-curvature="0" />
      </g>
    </g>
    <g
       id="g3309"
       transform="translate(50.567353,-30.531232)">
      <g
         transform="matrix(29.337895,0,0,-29.337895,89.357537,148.51563)"
         id="g4014">
        <path
           inkscape:connector-curvature="0"
           id="path4016"
           style="fill:#231f20;fill-opacity:1;fill-rule:nonzero;stroke:none"
           d="M 0,0 C -0.004,0.128 0.1,0.232 0.223,0.236 0.357,0.232 0.461,0.128 0.459,0 0.461,-0.129 0.357,-0.232 0.223,-0.236 0.1,-0.232 -0.004,-0.129 0,0" />
      </g>
      <g
         transform="matrix(29.337895,0,0,-29.337895,43.433511,194.13694)"
         id="g4022">
        <path
           id="path4024"
           style="fill:#231f20;fill-opacity:1;fill-rule:nonzero;stroke:none"
           d="M 0,0 C -0.006,0.125 0.1,0.229 0.225,0.223 0.355,0.229 0.459,0.125 0.461,0 0.459,-0.132 0.355,-0.235 0.225,-0.236 0.1,-0.235 -0.006,-0.131 0,0"
           inkscape:connector-curvature="0" />
      </g>
      <g
         transform="matrix(29.337895,0,0,-29.337895,65.322866,172.3065)"
         id="g4026">
        <path
           id="path4028"
           style="fill:#231f20;fill-opacity:1;fill-rule:nonzero;stroke:none"
           d="M 0,0 C 0,0.131 0.104,0.235 0.236,0.236 0.359,0.234 0.465,0.131 0.459,0 0.465,-0.126 0.359,-0.229 0.236,-0.236 0.104,-0.229 0,-0.126 0,0"
           inkscape:connector-curvature="0" />
      </g>
    </g>
    <g
       transform="matrix(0.40907361,0,0,0.40907361,-94.413783,97.997404)"
       id="g3863">
      <circle
         transform="matrix(10.116041,0,0,10.116041,-116.08321,-776.52544)"
         style="fill:#ffffff;fill-opacity:1;stroke:#ffffff;stroke-width:1.45709181;stroke-miterlimit:4;stroke-opacity:1;stroke-dasharray:none"
         sodipodi:ry="8"
         sodipodi:rx="8"
         sodipodi:cy="102"
         sodipodi:cx="48.5"
         cy="102"
         cx="48.5"
         r="8"
         id="circle3357-1"
         d="m 56.5,102 c 0,4.41828 -3.581722,8 -8,8 -4.418278,0 -8,-3.58172 -8,-8 0,-4.418278 3.581722,-8 8,-8 4.418278,0 8,3.581722 8,8 z" />
      <circle
         transform="matrix(9.2036145,0,0,9.2036145,-71.988608,-683.02997)"
         style="fill:none;stroke:#ff0000;stroke-width:1.09818804;stroke-miterlimit:4;stroke-opacity:1;stroke-dasharray:none"
         sodipodi:ry="8"
         sodipodi:rx="8"
         sodipodi:cy="102"
         sodipodi:cx="48.5"
         cy="102"
         cx="48.5"
         r="8"
         id="circle3357"
         d="m 56.5,102 c 0,4.41828 -3.581722,8 -8,8 -4.418278,0 -8,-3.58172 -8,-8 0,-4.418278 3.581722,-8 8,-8 4.418278,0 8,3.581722 8,8 z" />
      <path
         style="fill:#ff0000;fill-opacity:1;stroke:none"
         inkscape:connector-curvature="0"
         d="m 374.38669,183.95051 a 73.628915,73.628915 0 0 1 73.62892,73.62891 h -73.62892 z"
         id="path3359" />
      <path
         style="fill:#ff0000;fill-opacity:1;stroke:none"
         inkscape:connector-curvature="0"
         d="m 374.38669,329.36761 a 73.628915,73.628915 0 0 1 -52.46061,-18.40722 73.628915,73.628915 0 0 1 -21.16831,-55.2217 h 73.62892 z"
         id="path3361" />
    </g>
  </g>
</svg>
