<svg width="512" xmlns="http://www.w3.org/2000/svg" height="512">
<defs/>
<g stroke="#fff">
<path fill="none" inkscape:path-effect="#path-effect3883" stroke-width="18" d="m36.1956,355.5882 54-27 26,57.5894 112-54.5894-30-57 54-27 54-27 34,63 104.5663-56.9369-30.5663-60.0631 54-27 0,0 0,0 0,0 0,0"/>
<g fill="#f00" stroke-width=".2">
<path d="m72,368a24,24 0 1,1 -48,0 24,24 0 1,1 48,0z" transform="matrix(1.27342 0 0 1.27342 -16.92858 -113.03077)"/>
<path d="m496.8443,152.2162a25.0399,25.0399 0 1,1 -50.0798,0 25.0399,25.0399 0 1,1 50.0798,0z" transform="matrix(1.27015 0 0 1.27015 -131.26149 -53.53277)"/>
</g>
</g>
</svg>
