<?xml version="1.0" encoding="UTF-8" standalone="no"?>
<svg
   xmlns:dc="http://purl.org/dc/elements/1.1/"
   xmlns:cc="http://creativecommons.org/ns#"
   xmlns:rdf="http://www.w3.org/1999/02/22-rdf-syntax-ns#"
   xmlns:svg="http://www.w3.org/2000/svg"
   xmlns="http://www.w3.org/2000/svg"
   xmlns:sodipodi="http://sodipodi.sourceforge.net/DTD/sodipodi-0.dtd"
   xmlns:inkscape="http://www.inkscape.org/namespaces/inkscape"
   width="512"
   height="512"
   id="svg4684"
   version="1.1"
   inkscape:version="0.48.2 r9819"
   sodipodi:docname="SnapCoordinatePolar.svg">
  <metadata
     id="metadata4706">
    <rdf:RDF>
      <cc:Work
         rdf:about="">
        <dc:format>image/svg+xml</dc:format>
        <dc:type
           rdf:resource="http://purl.org/dc/dcmitype/StillImage" />
      </cc:Work>
    </rdf:RDF>
  </metadata>
  <sodipodi:namedview
     pagecolor="#ffffff"
     bordercolor="#666666"
     borderopacity="1"
     objecttolerance="10"
     gridtolerance="10"
     guidetolerance="10"
     inkscape:pageopacity="0"
     inkscape:pageshadow="2"
     inkscape:window-width="640"
     inkscape:window-height="480"
     id="namedview4704"
     showgrid="false"
     inkscape:zoom="0.4609375"
     inkscape:cx="256"
     inkscape:cy="256"
     inkscape:window-x="0"
     inkscape:window-y="0"
     inkscape:window-maximized="0"
     inkscape:current-layer="g4690" />
  <defs
     id="defs4686" />
  <g
     transform="translate(0 492)"
     id="g4688">
    <g
       line-height="125%"
       id="g4690">
      <g
         transform="scale(1.02107 .97936)"
         style="font-size:1318.03881836px;font-family:Bitstream Vera Sans"
         id="text4692">
        <path
           d="M 170.384,-343.942 C 168.31725,-345.1419 166.05059,-346.00857 163.584,-346.542 161.18392,-347.1419 158.51726,-347.4419 155.584,-347.442 145.18394,-347.4419 137.18395,-344.0419 131.584,-337.242 126.05063,-330.50858 123.28396,-320.80859 123.284,-308.142 L 123.284,-249.142 104.784,-249.142 104.784,-361.142 123.284,-361.142 123.284,-343.742 C 127.15062,-350.5419 132.18395,-355.57523 138.384,-358.842 144.58394,-362.17522 152.11727,-363.84189 160.984,-363.842 162.25059,-363.84189 163.65059,-363.74189 165.184,-363.542 166.71725,-363.40855 168.41725,-363.17522 170.284,-362.842 L 170.384,-343.942"
           style="font-size:204.80000305px;text-align:start;font-family:DejaVu Sans"
           id="path4952" />
      </g>
      <g
         transform="scale(1.02107 .97936)"
         style="font-size:204.80000305px;text-align:start;font-family:DejaVu Sans"
         id="text4696">
        <path
           d="M 383.32199,-134.78101 364.52199,-134.78101 364.52199,-146.48101 C 359.1219,-141.81433 353.48857,-138.181 347.62199,-135.58101 341.75525,-132.98101 335.38859,-131.68101 328.52199,-131.68101 315.18861,-131.68101 304.58862,-136.81434 296.72199,-147.08101 288.92197,-157.34765 285.02197,-171.58097 285.02199,-189.78101 285.02197,-199.24761 286.35531,-207.68093 289.02199,-215.08101 291.7553,-222.48092 295.42196,-228.78091 300.02199,-233.98101 304.55529,-239.04757 309.82195,-242.91423 315.82199,-245.58101 321.8886,-248.24756 328.15527,-249.58089 334.62199,-249.58101 340.48859,-249.58089 345.68858,-248.84756 350.22199,-247.38101 354.75524,-245.91423 359.5219,-243.8809 364.52199,-241.28101 L 364.52199,-246.48101 383.32199,-246.48101 383.32199,-134.78101 M 364.52199,-162.28101 364.52199,-225.88101 C 359.45523,-228.14758 354.92191,-229.78091 350.92199,-230.78101 346.92191,-231.84758 342.55525,-232.38091 337.82199,-232.38101 327.2886,-232.38091 319.08861,-228.71425 313.22199,-221.38101 307.35529,-214.04759 304.42196,-203.6476 304.42199,-190.18101 304.42196,-176.9143 306.68862,-166.81431 311.22199,-159.88101 315.75528,-153.01432 323.02194,-149.58099 333.02199,-149.58101 338.35526,-149.58099 343.75525,-150.74766 349.22199,-153.08101 354.68857,-155.48099 359.78857,-158.54765 364.52199,-162.28101"
           style=""
           id="path4949" />
      </g>
    </g>
    <path
       fill="none"
       stroke="#000"
       stroke-linecap="square"
       stroke-width="16"
       d="m473.6-69.6c0-121.2509-49.6685-230.9716-129.7559-309.9126l-305.4441,309.9126 435.2,0z"
       id="path4700" />
    <path
       fill="#f00"
       d="m16.5,4.5a1,1 0 1,1 -2,0 1,1 0 1,1 2,0z"
       transform="matrix(32 0 0 -32 -152 -228)"
       id="path4702" />
  </g>
</svg>
