<svg xmlns="http://www.w3.org/2000/svg" viewBox="0 0 512 512"><path d="m350.78 87.28c41.22 16.622 78.929 48.1 117.42 75.47 7.265 42.23-45.924-10.662-32.556 26.463 17.557 25.62 45.8 33.873 58.06 66.988 5.435 41.902-24.691 48.39-43.606 54.29-19.01 12.19-33.787 36.465-53.41 46.732-9.437 31.18-33.1 34.867-50.42 54.25-15.11 3.361-28.615 8.991-42.803 16.11-1.363-19.83-14.13-42.793-26.868-20.8-5.626 19.861-31.935 45.885-37.545 15.923 3.238-.532 17.706 4.131 16.617-15.813-5.05-38.993-23.662 19.284-36.509 21.473-9.466-3.587 17.717-25.551-.572-31.745-8.05 6.625-20.06 39.537-28.992 22.936 19.226-37.486-22.15-46.12-37.36-30.712-12.287-17.244-39.25 27.466-40.07-.721 3.678-8.27 30.434-11.879 18.958-17.652-12.381 12.271-31.475-.451-34.27-11.268-17.416 6.835 14-33.25-5.863-19.987-22.02 6.464-38.03-25.858-30.675-55.52-11.513-18.307-37.536 38.2-33.756-4.305-9.06-7.547-14.06-17.484-.831-21.379 19.772-13.344 23.328-58.984 1.544-63.25.906-34.801 24.886-49.45 41.917-63.15 59.6-46.542 127.97-49.46 193.24-55.77 29.587-.997 59.35 1.837 88.34 11.424m16.16 97.4c-23.509 6.452-21.575 50.826-32.25 75.7-25.07 60.996-82.67 83.82-122.43 44.15-19.94-17.213-41.24-45.05-40.95-83.65-8.282-40.828-39.22-18.717-53.918-.324-21.692 18.919-17.489 63.03 3.433 78.73 22.64 26.802 49.594 44.18 76.74 56.46 60.17 20.06 123.86-8.07 174.18-60.34 13.647-17.03 34.795-37.15 29.445-68.959-5.572-22.13-20.817-33.733-34.25-41.757m-147.53 3.53c-23.74 16.866-10.907 80.3 13.788 78.915 20.613-7.91 13.04-49.38.741-65.18-4.054-6.224-8.907-11.609-14.529-13.735m163.03 161.25c-9.401 2.77 7.744 8.725 0 0m-60.04 38.36c-11.822-.56 5.324 16.677 0 0m-41.13 18.528c13.321 20.06-14.512 7.797 0 0m-194.7-66.15c-1.799 24.05-16.367-.195 0 0m81.984 48.711c1.213 21.604-16.638-4.874 0 0m36.26 13.09c-16.469 4.565.432 26.814 0 0m-18.14 2.335c-5.48 6.388-29.594 39.484-18.373 11.181 5.215-6.508 11.761-10.112 18.373-11.181m-34.773-.236c-4.758 22.334-15.589-3.638 0 0" fill="#fff"/></svg>