<?xml version="1.0" encoding="UTF-8" standalone="no"?>
<!-- Created with Inkscape (http://www.inkscape.org/) -->

<svg
   xmlns:dc="http://purl.org/dc/elements/1.1/"
   xmlns:cc="http://creativecommons.org/ns#"
   xmlns:rdf="http://www.w3.org/1999/02/22-rdf-syntax-ns#"
   xmlns:svg="http://www.w3.org/2000/svg"
   xmlns="http://www.w3.org/2000/svg"
   xmlns:sodipodi="http://sodipodi.sourceforge.net/DTD/sodipodi-0.dtd"
   xmlns:inkscape="http://www.inkscape.org/namespaces/inkscape"
   width="512"
   height="512"
   id="svg2"
   sodipodi:version="0.32"
   inkscape:version="0.47 r22583"
   sodipodi:docname="ShowAll.svg"
   inkscape:output_extension="org.inkscape.output.svg.inkscape"
   version="1.0"
   sodipodi:modified="true">
  <defs
     id="defs3">
    <inkscape:perspective
       sodipodi:type="inkscape:persp3d"
       inkscape:vp_x="0 : 130 : 1"
       inkscape:vp_y="0 : 1000 : 0"
       inkscape:vp_z="744.09448 : 130 : 1"
       inkscape:persp3d-origin="372.04724 : 86.666667 : 1"
       id="perspective2612" />
    <inkscape:perspective
       id="perspective11"
       inkscape:persp3d-origin="75 : 50 : 1"
       inkscape:vp_z="150 : 75 : 1"
       inkscape:vp_y="0 : 1000 : 0"
       inkscape:vp_x="0 : 75 : 1"
       sodipodi:type="inkscape:persp3d" />
  </defs>
  <sodipodi:namedview
     fill="#800000"
     id="base"
     pagecolor="#ffffff"
     bordercolor="#666666"
     borderopacity="1.0"
     inkscape:pageopacity="0.0"
     inkscape:pageshadow="2"
     inkscape:zoom="0.52985925"
     inkscape:cx="-311.41952"
     inkscape:cy="19.128002"
     inkscape:document-units="px"
     inkscape:current-layer="layer1"
     showguides="true"
     inkscape:guide-bbox="true"
     inkscape:window-width="1126"
     inkscape:window-height="980"
     inkscape:window-x="36"
     inkscape:window-y="0"
     height="260px"
     width="744.09448px"
     showgrid="false"
     inkscape:showpageshadow="true"
     inkscape:window-maximized="0" />
  <metadata
     id="metadata4">
    <rdf:RDF>
      <cc:Work
         rdf:about="">
        <dc:format>image/svg+xml</dc:format>
        <dc:type
           rdf:resource="http://purl.org/dc/dcmitype/StillImage" />
        <dc:title>eyes</dc:title>
        <dc:date>19 06 2005</dc:date>
        <dc:creator>
          <cc:Agent>
            <dc:title>Lumen Design Studio</dc:title>
          </cc:Agent>
        </dc:creator>
        <dc:description>eyes</dc:description>
        <cc:license
           rdf:resource="http://web.resource.org/cc/PublicDomain" />
      </cc:Work>
      <cc:License
         rdf:about="http://web.resource.org/cc/PublicDomain">
        <cc:permits
           rdf:resource="http://web.resource.org/cc/Reproduction" />
        <cc:permits
           rdf:resource="http://web.resource.org/cc/Distribution" />
        <cc:permits
           rdf:resource="http://web.resource.org/cc/DerivativeWorks" />
      </cc:License>
    </rdf:RDF>
  </metadata>
  <g
     inkscape:label="Layer 1"
     inkscape:groupmode="layer"
     id="layer1">
    <path
       style="fill:#000000"
       d="m 350.77704,87.284796 c 41.21523,16.621754 78.92913,48.103114 117.42414,75.472384 7.26549,42.22546 -45.92392,-10.66229 -32.55603,26.46334 17.55668,25.62025 45.8004,33.87283 58.06183,66.98844 5.43488,41.90226 -24.69108,48.39346 -43.60605,54.2918 -19.00991,12.18976 -33.78708,36.46515 -53.40658,46.73235 -9.43648,31.17683 -33.10473,34.86675 -50.41789,54.25148 -15.10613,3.36149 -28.6147,8.99114 -42.80296,16.11423 -1.36331,-19.82985 -14.12949,-42.79336 -26.86847,-20.80041 -5.62623,19.86047 -31.9347,45.88466 -37.54515,15.92266 3.23755,-0.53227 17.70549,4.13055 16.61674,-15.81311 -5.04768,-38.99305 -23.66238,19.28436 -36.50931,21.47326 -9.4657,-3.58645 17.71722,-25.55134 -0.57173,-31.74494 -8.04992,6.62453 -20.06132,39.53683 -28.99177,22.93631 19.22612,-37.48584 -22.14943,-46.12467 -37.36371,-30.71166 -12.28661,-17.24415 -39.25086,27.46547 -40.07336,-0.72107 3.67797,-8.27018 30.43368,-11.87871 18.95775,-17.65236 -12.38133,12.27103 -31.475398,-0.4512 -34.268677,-11.26837 -17.415989,6.83541 14.003727,-33.24616 -5.863143,-19.98686 -22.021426,6.46388 -38.028776,-25.8578 -30.675074,-55.52274 -11.513059,-18.3073 -37.536403,38.19848 -33.755605,-4.30464 -9.060475,-7.5473 -14.063138,-17.48372 -0.830933,-21.37887 19.771507,-13.34346 23.327772,-58.98385 1.543679,-63.24732 0.905599,-34.80115 24.885531,-49.44626 41.91688,-63.14737 C 128.79361,85.089064 197.15868,82.175146 262.43192,75.861443 c 29.58665,-0.997332 59.35325,1.836479 88.34501,11.42346 z m 16.15935,97.399724 c -23.50857,6.45162 -21.57545,50.82557 -32.25161,75.7031 -25.06761,60.99623 -82.67482,83.81883 -122.43213,44.14568 -19.94015,-17.21322 -41.24008,-45.0517 -40.94984,-83.65211 -8.28202,-40.82845 -39.21545,-18.71743 -53.91826,-0.32426 -21.691829,18.91902 -17.488845,63.03185 3.43317,78.72869 22.64041,26.80223 49.59378,44.1764 76.74032,56.45885 60.17223,20.06324 123.86318,-8.07392 174.17963,-60.34407 13.64724,-17.0306 34.79486,-37.1491 29.44446,-68.95921 -5.57152,-22.12735 -20.81663,-33.73278 -34.24574,-41.75656 z m -147.52673,3.52949 c -23.74036,16.86623 -10.9073,80.30406 13.78761,78.91526 20.61354,-7.90986 13.04405,-49.37981 0.74134,-65.18044 -4.05408,-6.22346 -8.90666,-11.60916 -14.52874,-13.73482 z m 163.03349,161.24982 c -9.40074,2.76981 7.74411,8.72469 0,0 z m -60.04476,38.35934 c -11.82228,-0.56 5.32384,16.67743 0,0 z m -41.13363,18.52756 c 13.32128,20.05599 -14.51199,7.7968 0,0 z M 86.564193,340.19792 c -1.798932,24.04702 -16.366816,-0.1952 0,0 z m 81.984267,48.71143 c 1.2128,21.60383 -16.63849,-4.87402 0,0 z m 36.25865,13.08864 c -16.46901,4.56543 0.432,26.81417 0,0 z m -18.13781,2.33535 c -5.47989,6.38816 -29.59368,39.48382 -18.37268,11.18069 5.21483,-6.50762 11.76074,-10.11231 18.37268,-11.18069 z m -34.77341,-0.23573 c -4.75797,22.33385 -15.58901,-3.63776 0,0 z"
       id="path1640" />
  </g>
</svg>
