<svg xmlns="http://www.w3.org/2000/svg" xmlns:xlink="http://www.w3.org/1999/xlink" viewBox="0 0 512 512"><defs><linearGradient y2="23.318" x2="2.677" y1="113.71" x1="123.09" gradientTransform="matrix(-3.05627 0 0 2.65474 388.06-463.7)" gradientUnits="userSpaceOnUse" id="0"><stop style="stop-color:#009240"/><stop offset="1" style="stop-color:#b9db7d"/></linearGradient></defs><g transform="translate(0 464)"><path d="m304.61-136l64 80-128 48-192-80" style="fill:none;stroke:#000;stroke-linecap:square;stroke-width:16"/><path d="m16.5 4.5a1 1 0 1 1 -2 0 1 1 0 1 1 2 0" transform="matrix(32 0 0-32-63.39-136)" id="1" style="fill:#f00"/><use transform="translate(-128 144)" xlink:href="#1"/><path d="m432.61-280l-128 144" style="fill:none;stroke:#f00;stroke-width:16"/><path d="m263.42-275.73l-49.31 54.944h134.67v-144.59l-39.28 46.27c-2.806 2.892-30.863-28.918-42.09-40.485-11.223-11.567-58.92-49.16-95.39-49.16-36.474 0-46.862 3.395-71.28 18.04-23.22 14.646-40.77 34.33-49.37 60.04-8.597 25.71-5.611 40.485-2.806 63.62 8.776 48.21 30.14 71.42 58.92 92.54 16.834 11.567 51.51 23.638 92.59 26.03 11.223 0 22.446-8.675 14.03-8.675-8.417 0-33.669-2.892-58.92-17.351-46.747-32.372-61.726-61.36-61.726-95.43 0-17.351 1.194-35.21 11.223-49.16 10.03-13.956 25.25-23.13 56.11-23.13 30.863 0 44.17 15.782 63.812 30.24 16.06 15.653 19.582 19.423 38.805 36.27z" style="fill:url(#0);stroke:#037340;stroke-width:11.394"/></g></svg>