<svg xmlns="http://www.w3.org/2000/svg" xmlns:xlink="http://www.w3.org/1999/xlink" viewBox="0 0 512 512"><defs><linearGradient id="4"><stop/><stop offset="1" style="stop-opacity:0"/></linearGradient><linearGradient xlink:href="#0" id="3" y1="-244.34" x1="797.66" y2="-336.33" gradientUnits="userSpaceOnUse" x2="767"/><linearGradient gradientTransform="matrix(2.77439 0 0 1.96971-1892.18-872.89)" id="5" y1="366.65" y2="609.5" gradientUnits="userSpaceOnUse" x2="0"><stop style="stop-opacity:0"/><stop offset=".5"/><stop offset="1" style="stop-opacity:0"/></linearGradient><linearGradient id="0"><stop style="stop-color:#fff"/><stop offset="1" style="stop-color:#fff;stop-opacity:0"/></linearGradient><linearGradient gradientTransform="matrix(0-7.39358 7.3044 0 633.19-4.681)" id="2" y1="20.91" y2="24.18" gradientUnits="userSpaceOnUse" x2="0"><stop style="stop-color:#0043ed"/><stop offset="1" style="stop-color:#92acff"/></linearGradient><linearGradient xlink:href="#0" id="1" y1="-215.63" x1="802.67" y2="-405.93" gradientUnits="userSpaceOnUse" x2="569.79"/><radialGradient cx="9.412" cy="18.811" xlink:href="#7" id="B" r="1.208" gradientUnits="userSpaceOnUse"/><radialGradient cx="8.824" cy="3.756" gradientTransform="matrix(.96827 0 0 1.03277 3.354.646)" id="C" r="37.752" gradientUnits="userSpaceOnUse"><stop style="stop-color:#a3a3a3"/><stop offset="1" style="stop-color:#4c4c4c"/></radialGradient><radialGradient cx="9.412" cy="30.3" xlink:href="#6" id="D" r="1.207" gradientUnits="userSpaceOnUse"/><radialGradient cx="33.967" cy="35.737" gradientTransform="scale(.96049 1.04113)" id="A" r="86.71" gradientUnits="userSpaceOnUse"><stop style="stop-color:#fafafa"/><stop offset="1" style="stop-color:#bbb"/></radialGradient><radialGradient cx="20.892" cy="64.57" r="5.257" id="7" gradientUnits="userSpaceOnUse" xlink:href="#6"/><radialGradient cx="605.71" cy="486.65" gradientTransform="matrix(-2.77439 0 0 1.96971 112.76-872.89)" xlink:href="#4" id="9" r="117.14" gradientUnits="userSpaceOnUse"/><radialGradient cx="20.892" cy="114.57" r="5.256" id="6" gradientUnits="userSpaceOnUse"><stop style="stop-color:#f0f0f0"/><stop offset="1" style="stop-color:#9a9a9a"/></radialGradient><radialGradient cx="605.71" cy="486.65" gradientTransform="matrix(2.77439 0 0 1.96971-1891.63-872.89)" xlink:href="#4" id="8" r="117.14" gradientUnits="userSpaceOnUse"/><radialGradient cx="8.144" cy="7.268" gradientTransform="matrix(.96827 0 0 1.03277 3.354.646)" id="E" r="38.16" gradientUnits="userSpaceOnUse"><stop style="stop-color:#fff"/><stop offset="1" style="stop-color:#f8f8f8"/></radialGradient></defs><g transform="matrix(.21187 0 0 .14539 444.45 425.64)"><path d="m-1559.25-150.7h1339.63v478.36h-1339.63z" style="fill:url(#5);opacity:.402"/><path d="m-219.62-150.68c0 0 0 478.33 0 478.33 142.87.9 345.4-107.17 345.4-239.2 0-132.03-159.44-239.13-345.4-239.13" style="fill:url(#8);opacity:.402"/><path d="m-1559.25-150.68c0 0 0 478.33 0 478.33-142.87.9-345.4-107.17-345.4-239.2 0-132.03 159.44-239.13 345.4-239.13" style="fill:url(#9);opacity:.402"/></g><g transform="matrix(9.7856 0 0 9.7856 23.592 7.935)" style="display:block;stroke-linecap:round;stroke-linejoin:round"><path d="m7.753 3.647h32.577a1.149 1.149 0 0 1 1.1491 1.149v38.622a1.149 1.149 0 0 1 -1.1491 1.149h-32.577a1.149 1.149 0 0 1 -1.1491 -1.149v-38.622a1.149 1.149 0 0 1 1.149 -1.149" style="fill:url(#A);stroke:url(#C)"/><path d="m7.815 4.584h32.478a.149 .149 0 0 1 .149 .149v38.648a.149 .149 0 0 1 -.149 .149h-32.478a.149 .149 0 0 1 -.1491 -.149v-38.648a.149 .149 0 0 1 .149 -.149" style="fill:none;stroke:url(#E)"/></g><g transform="matrix(2.24778 0 0 2.24778 78.52 49.1)" style="fill:#fff"><path d="m23.428 113.07c0 1.973-1.6 3.572-3.573 3.572-1.974 0-3.573-1.6-3.573-3.572 0-1.974 1.6-3.573 3.573-3.573 1.973 0 3.573 1.6 3.573 3.573"/><path d="m23.428 63.07c0 1.973-1.6 3.573-3.573 3.573-1.974 0-3.573-1.6-3.573-3.573 0-1.974 1.6-3.573 3.573-3.573 1.973 0 3.573 1.6 3.573 3.573"/></g><g transform="matrix(9.7856 0 0 9.7856 29.918 7.563)"><path d="m9.995 29.952c0 .453-.367.82-.821.82-.453 0-.821-.367-.821-.82 0-.453.367-.821.821-.821.453 0 .821.367.821.821" style="fill:url(#D)"/><path d="m9.995 18.467c0 .453-.367.821-.821.821-.453 0-.821-.367-.821-.821 0-.453.367-.821.821-.821.453 0 .821.367.821.821" style="fill:url(#B)"/></g><g transform="matrix(9.7856 0 0 9.7856 23.592 7.935)" style="fill:none"><path d="m11.506 5.494v37.907" style="stroke-opacity:.018;stroke:#fff;stroke-width:.989"/><path d="m12.5 5.02v38.02" style="stroke-opacity:.205;stroke:#fff"/></g><g transform="translate(-500 444)"><g style="display:block;stroke-width:10.667"><path d="m901.33-143.67l-106.67 117.33-111.67-117.33 69-.333v-100c2.039-49.546-23-82.05-53.33-80.67h-1.333-72.67c75.23-109.02 214.16-38.753 213 80.67l-.667 100.33h64.33z" style="fill:url(#2);stroke:#002cc4"/><path d="m876.67-132.67l-82 90.33-86-90.33 43.33-.333c6.074-.004 10.996-4.926 11-11v-100c1.1-26.721-4.849-49.08-16.333-65.67-11.417-16.485-28.909-26.74-48-26-.112.004-.221-.005-.333 0h-1-47.33c32.665-33.33 71.27-38.941 105.33-24.333 39.764 17.05 71.87 60.58 71.33 116l-.667 100.33c.004 6.074 4.926 10.996 11 11h39.667z" style="fill:#000ded;opacity:.61;stroke:url(#1)"/></g><path d="m793.33-32.33c10-78.22-1.667-289.11-35.667-318.67v-21.333c33.11 34.22 77.22 89.11 74.33 127.33l-1.333 107 60-.333-97.33 106" style="fill:url(#3);opacity:.45;fill-rule:evenodd"/></g></svg>
