<svg width="512" fill="none" xmlns="http://www.w3.org/2000/svg" height="512" viewBox="-2.125 -7.125 144.49778 144.49778" xmlns:xlink="http://www.w3.org/1999/xlink" stroke-linecap="round">
<defs/>
<g fill="#e6e6e6" stroke="#fff" stroke-width="5.644">
<path d="m17.228,121.5222-3.5025-3.5025c-3.6678-3.6678-3.6678-10.3421 0-14.0098l21.0148-21.0148c3.6678-3.6678 10.3421-3.6678 14.0098,0l3.5025,3.5025c3.6678,3.6678 3.6678,10.3421 0,14.0098l-21.0148,21.0148c-3.6678,3.6678-10.3421,3.6678-14.0098,0zm-10.5074,3.5025 3.5025,3.5025c7.3355,7.3355 20.6842,7.3355 28.0197,0l21.0148-21.0148c7.3355-7.3355 7.3355-20.6842 0-28.0197l-3.5025-3.5025c-7.3355-7.3355-20.6842-7.3355-28.0197,0l-21.0148,21.0148c-7.3355,7.3355-7.3355,20.6842 0,28.0197z"/>
<path d="m91.4976,47.2526-3.5025-3.5025c-3.6678-3.6678-3.6678-10.3421 0-14.0098l21.0148-21.0148c3.6678-3.6678 10.3421-3.6678 14.0098,0l3.5025,3.5025c3.6678,3.6678 3.6678,10.3421 0,14.0098l-21.0148,21.0148c-3.6678,3.6678-10.3421,3.6678-14.0098,0zm-10.5074,3.5025 3.5025,3.5025c7.3355,7.3355 20.6842,7.3355 28.0197,0l21.0148-21.0148c7.3355-7.3355 7.3355-20.6842 0-28.0197l-3.5025-3.5025c-7.3355-7.3355-20.6842-7.3355-28.0197,0l-21.0148,21.0148c-7.3355,7.3355-7.3355,20.6842 0,28.0197z"/>
<path d="m75.7073,52.5441 6.9963,6.9963 17.5493-17.5493c1.8339-1.8339 1.8339-5.1624-0-6.9963-1.8339-1.8339-5.1624-1.8339-6.9963-0l-17.5493,17.5493z"/>
<path d="m57.6324,70.619 6.9963,6.9963-17.5493,17.5493c-1.8339,1.8339-5.1624,1.8339-6.9963,0-1.8339-1.8339-1.8339-5.1624 0-6.9963l17.5493-17.5493z"/>
</g>
</svg>
