<svg width="512" xmlns="http://www.w3.org/2000/svg" height="512" viewBox="-2.125 -7.125 144.49778 144.49778" style="fill:none;stroke-linecap:round"><g style="fill:#e6e6e6;stroke:#000;stroke-width:5.644"><path d="m17.228 121.52l-3.502-3.502c-3.668-3.668-3.668-10.342 0-14.01l21.01-21.01c3.668-3.668 10.342-3.668 14.01 0l3.502 3.502c3.668 3.668 3.668 10.342 0 14.01l-21.01 21.01c-3.668 3.668-10.342 3.668-14.01 0zm-10.507 3.502l3.502 3.502c7.335 7.335 20.684 7.335 28.02 0l21.01-21.01c7.336-7.335 7.336-20.684 0-28.02l-3.502-3.502c-7.336-7.335-20.684-7.335-28.02 0l-21.01 21.01c-7.336 7.335-7.336 20.684 0 28.02z"/><path d="m91.5 47.25l-3.502-3.502c-3.668-3.668-3.668-10.342 0-14.01l21.01-21.01c3.668-3.668 10.342-3.668 14.01 0l3.502 3.502c3.668 3.668 3.668 10.342 0 14.01l-21.01 21.01c-3.668 3.668-10.342 3.668-14.01 0zm-10.507 3.502l3.502 3.502c7.335 7.335 20.684 7.335 28.02 0l21.01-21.01c7.335-7.336 7.335-20.684 0-28.02l-3.502-3.503c-7.335-7.336-20.684-7.336-28.02 0l-21.01 21.01c-7.335 7.336-7.335 20.684 0 28.02z"/><path d="m75.71 52.54l6.996 6.996 17.549-17.549c1.834-1.834 1.834-5.162 0-6.996-1.834-1.834-5.162-1.834-6.996 0l-17.549 17.549z"/><path d="m57.632 70.62l6.996 6.996-17.549 17.549c-1.834 1.834-5.162 1.834-6.996 0-1.834-1.834-1.834-5.162 0-6.996l17.549-17.549z"/></g></svg>