<?xml version="1.0" encoding="UTF-8" standalone="no"?>
<!-- 2011-05-26 11:38:01 Generated by QCAD SVG Exporter -->

<svg
   xmlns:dc="http://purl.org/dc/elements/1.1/"
   xmlns:cc="http://creativecommons.org/ns#"
   xmlns:rdf="http://www.w3.org/1999/02/22-rdf-syntax-ns#"
   xmlns:svg="http://www.w3.org/2000/svg"
   xmlns="http://www.w3.org/2000/svg"
   xmlns:xlink="http://www.w3.org/1999/xlink"
   xmlns:sodipodi="http://sodipodi.sourceforge.net/DTD/sodipodi-0.dtd"
   xmlns:inkscape="http://www.inkscape.org/namespaces/inkscape"
   width="512"
   height="512"
   viewBox="-2.125 -7.125 144.49778 144.49778"
   version="1.1"
   style="fill:none;stroke-linecap:round"
   id="svg2"
   inkscape:version="0.47 r22583"
   sodipodi:docname="keep_ratio.svg">
  <metadata
     id="metadata54">
    <rdf:RDF>
      <cc:Work
         rdf:about="">
        <dc:format>image/svg+xml</dc:format>
        <dc:type
           rdf:resource="http://purl.org/dc/dcmitype/StillImage" />
        <dc:title />
      </cc:Work>
    </rdf:RDF>
  </metadata>
  <defs
     id="defs52">
    <linearGradient
       id="linearGradient3695">
      <stop
         style="stop-color:#5e5e5e;stop-opacity:1;"
         offset="0"
         id="stop3697" />
      <stop
         style="stop-color:#ffffff;stop-opacity:1;"
         offset="1"
         id="stop3699" />
    </linearGradient>
    <linearGradient
       inkscape:collect="always"
       id="linearGradient3687">
      <stop
         style="stop-color:#666666;stop-opacity:1;"
         offset="0"
         id="stop3689" />
      <stop
         style="stop-color:#666666;stop-opacity:0;"
         offset="1"
         id="stop3691" />
    </linearGradient>
    <inkscape:perspective
       sodipodi:type="inkscape:persp3d"
       inkscape:vp_x="0 : 16.387794 : 1"
       inkscape:vp_y="0 : 1000 : 0"
       inkscape:vp_z="114.27165 : 16.387794 : 1"
       inkscape:persp3d-origin="57.135826 : 10.925196 : 1"
       id="perspective56" />
    <radialGradient
       inkscape:collect="always"
       xlink:href="#linearGradient3687"
       id="radialGradient3693"
       cx="7.4538836"
       cy="0.038834605"
       fx="7.4538836"
       fy="0.038834605"
       r="7.1411109"
       gradientTransform="matrix(1.0632942,1.0623946,-1.2587511,1.2598168,-0.42290458,-8.8178655)"
       gradientUnits="userSpaceOnUse" />
    <radialGradient
       inkscape:collect="always"
       xlink:href="#linearGradient3687"
       id="radialGradient3713"
       gradientUnits="userSpaceOnUse"
       gradientTransform="matrix(1.0632942,1.0623946,-1.2587511,1.2598168,-0.42290458,-8.8178655)"
       cx="7.4538836"
       cy="0.038834605"
       fx="7.4538836"
       fy="0.038834605"
       r="7.1411109" />
  </defs>
  <sodipodi:namedview
     pagecolor="#ffffff"
     bordercolor="#666666"
     borderopacity="1"
     objecttolerance="10"
     gridtolerance="10"
     guidetolerance="10"
     inkscape:pageopacity="0"
     inkscape:pageshadow="2"
     inkscape:window-width="1372"
     inkscape:window-height="953"
     id="namedview50"
     showgrid="false"
     inkscape:zoom="1.1792076"
     inkscape:cx="193.2415"
     inkscape:cy="254.49939"
     inkscape:window-x="178"
     inkscape:window-y="80"
     inkscape:window-maximized="0"
     inkscape:current-layer="svg2" />
  <path
     id="path3677"
     style="fill:#e6e6e6;fill-opacity:1;stroke:#000000;stroke-width:5.64444446999999982;stroke-miterlimit:4;stroke-opacity:1;stroke-dasharray:none"
     d="m 22.840655,115.90959 -3.502462,-3.50247 c -3.66777,-3.66777 -3.66777,-10.34207 0,-14.009843 L 40.352965,77.382505 c 3.66777,-3.667769 10.342078,-3.667769 14.009847,0 l 3.502462,3.502462 c 3.66777,3.66777 3.66777,10.342078 10e-7,14.009848 L 36.850503,115.90959 c -3.66777,3.66777 -10.342079,3.66777 -14.009848,0 z m -10.507385,3.50246 3.502461,3.50246 c 7.335539,7.33554 20.684157,7.33554 28.019696,0 l 21.014771,-21.01477 c 7.335539,-7.33554 7.335539,-20.684158 0,-28.019697 l -3.502462,-3.502461 c -7.335539,-7.33554 -20.684156,-7.335539 -28.019695,0 L 12.33327,91.392353 c -7.3355395,7.335539 -7.3355395,20.684157 0,28.019697 z" />
  <path
     id="path3711"
     style="fill:#e6e6e6;fill-opacity:1;stroke:#000000;stroke-width:5.64444446999999982;stroke-miterlimit:4;stroke-opacity:1;stroke-dasharray:none"
     d="m 85.88497,52.865274 -3.502462,-3.502462 c -3.66777,-3.66777 -3.66777,-10.342078 0,-14.009848 L 103.39728,14.338192 c 3.66777,-3.667769 10.34208,-3.667769 14.00985,0 l 3.50246,3.502462 c 3.66777,3.66777 3.66777,10.342078 0,14.009848 L 99.894818,52.865274 c -3.66777,3.667769 -10.342079,3.667769 -14.009848,0 z m -10.507386,3.502461 3.502462,3.502462 c 7.335539,7.335539 20.684157,7.335539 28.019694,0 l 21.01477,-21.014771 c 7.33554,-7.335539 7.33554,-20.684157 0,-28.019696 l -3.50246,-3.5024615 c -7.33554,-7.33553904 -20.68416,-7.33553869 -28.019694,0 L 75.377584,28.34804 c -7.335539,7.335539 -7.335539,20.684156 0,28.019695 z" />
  <path
     id="path48"
     style="fill:#e6e6e6;fill-opacity:1;stroke:#000000;stroke-width:5.64444493999999963;stroke-miterlimit:4;stroke-opacity:1;stroke-dasharray:none"
     d="m 94.641121,47.611578 c 1.833885,-1.833885 1.833889,-5.171033 3e-6,-7.00492 -1.833853,-1.833852 -5.171037,-1.833885 -7.004923,0 L 45.606657,82.636202 c -1.833885,1.833885 -1.833851,5.171069 2e-6,7.00492 1.833888,1.833889 5.171033,1.833885 7.004918,0 L 94.641121,47.611578 z"
     sodipodi:nodetypes="csccscc" />
</svg>
