<?xml version="1.0" encoding="UTF-8" standalone="no"?>
<!-- 2011-05-26 11:38:01 Generated by QCAD SVG Exporter -->

<svg
   xmlns:dc="http://purl.org/dc/elements/1.1/"
   xmlns:cc="http://creativecommons.org/ns#"
   xmlns:rdf="http://www.w3.org/1999/02/22-rdf-syntax-ns#"
   xmlns:svg="http://www.w3.org/2000/svg"
   xmlns="http://www.w3.org/2000/svg"
   xmlns:xlink="http://www.w3.org/1999/xlink"
   xmlns:sodipodi="http://sodipodi.sourceforge.net/DTD/sodipodi-0.dtd"
   xmlns:inkscape="http://www.inkscape.org/namespaces/inkscape"
   width="512"
   height="512"
   viewBox="-2.125 -7.125 144.49778 144.49778"
   version="1.1"
   style="fill:none;stroke-linecap:round"
   id="svg2"
   inkscape:version="0.47 r22583"
   sodipodi:docname="dont_keep_ratio.svg">
  <metadata
     id="metadata54">
    <rdf:RDF>
      <cc:Work
         rdf:about="">
        <dc:format>image/svg+xml</dc:format>
        <dc:type
           rdf:resource="http://purl.org/dc/dcmitype/StillImage" />
        <dc:title />
      </cc:Work>
    </rdf:RDF>
  </metadata>
  <defs
     id="defs52">
    <linearGradient
       id="linearGradient3695">
      <stop
         style="stop-color:#5e5e5e;stop-opacity:1;"
         offset="0"
         id="stop3697" />
      <stop
         style="stop-color:#ffffff;stop-opacity:1;"
         offset="1"
         id="stop3699" />
    </linearGradient>
    <inkscape:perspective
       sodipodi:type="inkscape:persp3d"
       inkscape:vp_x="0 : 16.387794 : 1"
       inkscape:vp_y="0 : 1000 : 0"
       inkscape:vp_z="114.27165 : 16.387794 : 1"
       inkscape:persp3d-origin="57.135826 : 10.925196 : 1"
       id="perspective56" />
    <radialGradient
       inkscape:collect="always"
       xlink:href="#linearGradient3695"
       id="radialGradient3701"
       cx="14"
       cy="-2.5"
       fx="14"
       fy="-2.5"
       r="7.1411109"
       gradientTransform="matrix(9.5446952,0,0,0.93153474,-63.501843,67.452741)"
       gradientUnits="userSpaceOnUse" />
    <radialGradient
       inkscape:collect="always"
       xlink:href="#linearGradient3695"
       id="radialGradient3764"
       gradientUnits="userSpaceOnUse"
       gradientTransform="matrix(33.819786,0,0,3.3007136,-217.477,264.25183)"
       cx="14"
       cy="-2.5"
       fx="14"
       fy="-2.5"
       r="7.1411109" />
    <radialGradient
       inkscape:collect="always"
       xlink:href="#linearGradient3695"
       id="radialGradient3769"
       gradientUnits="userSpaceOnUse"
       gradientTransform="matrix(-17.293091,0,0,0.88998864,320.01956,67.348875)"
       cx="14"
       cy="-2.5"
       fx="14"
       fy="-2.5"
       r="7.1411109" />
  </defs>
  <sodipodi:namedview
     pagecolor="#ffffff"
     bordercolor="#666666"
     borderopacity="1"
     objecttolerance="10"
     gridtolerance="10"
     guidetolerance="10"
     inkscape:pageopacity="0"
     inkscape:pageshadow="2"
     inkscape:window-width="1372"
     inkscape:window-height="953"
     id="namedview50"
     showgrid="false"
     inkscape:zoom="1.1792076"
     inkscape:cx="175.43293"
     inkscape:cy="236.69082"
     inkscape:window-x="24"
     inkscape:window-y="11"
     inkscape:window-maximized="0"
     inkscape:current-layer="svg2" />
  <path
     id="path3677"
     style="fill:#e6e6e6;fill-opacity:1;stroke:#000000;stroke-width:5.64444446999999982;stroke-miterlimit:4;stroke-opacity:1;stroke-dasharray:none"
     d="m 17.227997,121.52225 -3.502462,-3.50247 c -3.66777,-3.66777 -3.66777,-10.34207 0,-14.00984 L 34.740307,82.995165 c 3.66777,-3.667769 10.342078,-3.667769 14.009847,0 l 3.502462,3.502462 c 3.66777,3.66777 3.66777,10.342078 10e-7,14.009843 l -21.014772,21.01478 c -3.66777,3.66777 -10.342079,3.66777 -14.009848,0 z m -10.5073855,3.50246 3.5024615,3.50246 c 7.335539,7.33554 20.684157,7.33554 28.019696,0 L 59.25754,107.5124 c 7.335539,-7.33554 7.335539,-20.684158 0,-28.019697 l -3.502462,-3.502461 c -7.335539,-7.33554 -20.684156,-7.335539 -28.019695,0 L 6.7206115,97.005013 c -7.33553904,7.335537 -7.33553904,20.684157 0,28.019697 z" />
  <path
     id="path3711"
     style="fill:#e6e6e6;fill-opacity:1;stroke:#000000;stroke-width:5.64444446999999982;stroke-miterlimit:4;stroke-opacity:1;stroke-dasharray:none"
     d="m 91.497625,47.252618 -3.502462,-3.502462 c -3.66777,-3.66777 -3.66777,-10.342078 0,-14.009848 L 109.00994,8.7255359 c 3.66776,-3.6677689 10.34207,-3.6677689 14.00984,4e-7 l 3.50246,3.5024617 c 3.66777,3.66777 3.66777,10.342078 0,14.009848 l -21.01477,21.014772 c -3.66777,3.667769 -10.342076,3.667769 -14.009845,0 z m -10.507385,3.502461 3.502461,3.502462 c 7.335539,7.335539 20.684159,7.335539 28.019699,0 L 133.52717,33.24277 c 7.33554,-7.335539 7.33554,-20.684157 0,-28.0196956 l -3.50246,-3.5024619 c -7.33554,-7.335539 -20.68416,-7.3355387 -28.0197,0 L 80.99024,22.735384 c -7.33554,7.335539 -7.33554,20.684156 0,28.019695 z" />
  <path
     style="fill:#e6e6e6;fill-opacity:1;stroke:#000000;stroke-width:5.64444493999999963;stroke-miterlimit:4;stroke-opacity:1;stroke-dasharray:none"
     d="m 75.707315,52.544129 6.996338,6.996337 17.549307,-17.549312 c 1.83387,-1.833864 1.83387,-5.162428 -2e-5,-6.996314 -1.833851,-1.833852 -5.16245,-1.833887 -6.996314,-2.4e-5 L 75.707315,52.544129 z"
     id="path48" />
  <path
     id="path3771"
     d="m 57.632419,70.619024 6.996337,6.996337 -17.549307,17.549308 c -1.833886,1.833887 -5.16245,1.833887 -6.996338,0 -1.833852,-1.833853 -1.833886,-5.16245 0,-6.996336 L 57.632419,70.619024 z"
     style="fill:#e6e6e6;fill-opacity:1;stroke:#000000;stroke-width:5.64444493999999963;stroke-miterlimit:4;stroke-opacity:1;stroke-dasharray:none" />
</svg>
