<svg xmlns="http://www.w3.org/2000/svg" viewBox="0 0 512 512"><g transform="translate(0 464)"><path d="m56-328h416v256h-416z" style="fill:#fdffff"/><path d="m203.88-174.77h-72.832l-12.763 29.688c-3.144 7.306-4.717 12.763-4.717 16.37 0 2.867 1.341 5.41 4.02 7.63 2.775 2.127 8.694 3.514 17.757 4.162v5.133h-59.24v-5.133c7.861-1.387 12.948-3.191 15.26-5.41 4.717-4.439 9.942-13.457 15.676-27.05l66.17-154.82h4.856l65.48 156.49c5.272 12.578 10.03 20.763 14.289 24.555 4.347 3.699 10.358 5.78 18.03 6.243v5.133h-74.22v-5.133c7.491-.37 12.532-1.618 15.12-3.746 2.682-2.127 4.02-4.717 4.02-7.769 0-4.069-1.85-10.497-5.549-19.283l-11.376-27.05m-3.884-10.266l-31.908-76.02-32.74 76.02h64.65"/><g style="fill:none;stroke:#fff;stroke-width:16"><path d="m312-296v192"/><path d="m328-104h-32"/><path d="m296-296h32"/></g></g></svg>
