<svg xmlns="http://www.w3.org/2000/svg" viewBox="0 0 512 512"><path d="M 56,136 H 472 V 392 H 56 Z" fill="#fdffff" stroke-width="16" stroke="#000"/><path d="m 203.88,289.23 h -72.832 l -12.763,29.688 c -3.144,7.306 -4.717,12.763 -4.717,16.37 0,2.867 1.341,5.41 4.02,7.63 2.775,2.127 8.694,3.514 17.757,4.162 v 5.133 h -59.24 v -5.133 c 7.861,-1.387 12.948,-3.191 15.26,-5.41 4.717,-4.439 9.942,-13.457 15.676,-27.05 l 66.17,-154.82 h 4.856 l 65.48,156.49 c 5.272,12.578 10.03,20.763 14.289,24.555 4.347,3.699 10.358,5.78 18.03,6.243 v 5.133 h -74.22 v -5.133 c 7.491,-0.37 12.532,-1.618 15.12,-3.746 2.682,-2.127 4.02,-4.717 4.02,-7.769 0,-4.069 -1.85,-10.497 -5.549,-19.283 l -11.376,-27.05 m -3.884,-10.266 -31.908,-76.02 -32.74,76.02 h 64.65"/><g fill="none" stroke="#000" stroke-width="16"><path d="M312-296v192M328-104H296M296-296h32" transform="translate(0 464)"/></g></svg>