<?xml version="1.0" encoding="UTF-8" standalone="no"?>
<svg
   viewBox="0 0 512 512"
   version="1.1"
   id="svg27"
   sodipodi:docname="TextAlignedLeader-inverse.svg"
   inkscape:version="1.1.1 (3bf5ae0d25, 2021-09-20)"
   xmlns:inkscape="http://www.inkscape.org/namespaces/inkscape"
   xmlns:sodipodi="http://sodipodi.sourceforge.net/DTD/sodipodi-0.dtd"
   xmlns="http://www.w3.org/2000/svg"
   xmlns:svg="http://www.w3.org/2000/svg">
  <defs
     id="defs31" />
  <sodipodi:namedview
     id="namedview29"
     pagecolor="#ffffff"
     bordercolor="#666666"
     borderopacity="1.0"
     inkscape:pageshadow="2"
     inkscape:pageopacity="0.0"
     inkscape:pagecheckerboard="true"
     showgrid="false"
     inkscape:zoom="0.41259766"
     inkscape:cx="719.82958"
     inkscape:cy="175.71597"
     inkscape:window-width="2560"
     inkscape:window-height="1027"
     inkscape:window-x="-8"
     inkscape:window-y="-8"
     inkscape:window-maximized="1"
     inkscape:current-layer="g11086"
     inkscape:snap-others="true"
     inkscape:snap-center="true"
     inkscape:snap-object-midpoints="true"
     inkscape:snap-bbox="true"
     inkscape:snap-bbox-midpoints="true"
     inkscape:bbox-paths="true"
     inkscape:bbox-nodes="true"
     inkscape:snap-bbox-edge-midpoints="true"
     inkscape:snap-intersection-paths="true"
     inkscape:snap-smooth-nodes="true"
     inkscape:snap-midpoints="true"
     inkscape:snap-text-baseline="true"
     inkscape:snap-page="true" />
  <g
     aria-label="Ð"
     id="text5417"
     style="font-size:241.459px;line-height:1.25;font-family:Arial;-inkscape-font-specification:Arial;stroke-width:6.03647">
    <g
       id="g11086"
       transform="translate(-81.739287,0.02123658)">
      <g
         style="stroke:#000000"
         id="g25"
         transform="translate(64,83.616568)">
        <path
           d="M 440,184 H 280 L 120,344"
           style="fill:none;stroke-width:16;stroke-linecap:square;stroke:#ffffff"
           id="path21" />
        <path
           d="m 103.48,358.45 76.41,-23.703 -49.53,-51.645 -26.882,75.35 z"
           style="stroke-width:8;stroke-linecap:round;stroke-linejoin:round;fill:#ffffff;stroke:#ffffff"
           id="path23" />
      </g>
      <path
         d="M 350.24133,238.73167 416.61898,65.890097 h 24.64108 L 512,238.73167 H 485.94412 L 465.78324,186.38403 H 393.5106 l -18.98189,52.34764 z m 49.87166,-70.97587 h 58.59625 l -18.03868,-47.86745 q -8.253,-21.811519 -12.26159,-35.841634 -3.3012,16.623924 -9.3141,33.012034 z"
         id="path10878"
         style="fill:#ffffff;stroke-width:6.03648" />
      <path
         d="m 135.48,442.06657 c 0,-17.664 14.336,-32 32,-32 17.664,0 32,14.336 32,32 0,17.664 -14.336,32 -32,32 -17.664,0 -32,-14.336 -32,-32"
         id="0"
         style="fill:#ff0000;stroke-width:32" />
      <path
         d="m 397.41111,167.7558 c 0,-17.664 14.336,-32 32,-32 17.664,0 32,14.336 32,32 0,17.664 -14.336,32 -32,32 -17.664,0 -32,-14.336 -32,-32"
         id="0-2"
         style="fill:#ff0000;stroke-width:32" />
    </g>
  </g>
</svg>
