<svg xmlns="http://www.w3.org/2000/svg" viewBox="0 0 512 512"><defs><linearGradient id="0" y1="104" x1="311.56" y2="168" x2="376" gradientUnits="userSpaceOnUse"><stop style="stop-color:#f00"/><stop offset="1" style="stop-color:#5a0000"/></linearGradient><linearGradient id="1" x1="239.64" x2="366.68" gradientUnits="userSpaceOnUse" y1="-464.12" y2="-503.73"><stop style="stop-color:#f00"/><stop offset="1" style="stop-color:#580000"/></linearGradient></defs><g style="stroke:#000"><g transform="translate(0 492)"><g style="stroke-linecap:round;stroke-linejoin:round"><path d="m276.63-347.24l95.1 297.81c6.201 19.889 39.444 27.21 74.25 16.362 34.805-10.852 57.994-35.773 51.793-55.662l-95.1-297.81-126.04 39.3z" style="fill:url(#1);stroke-width:4.715"/><path d="m424 104a56 32 0 1 1 -112 0 56 32 0 1 1 112 0z" transform="matrix(1.12537-.35089.35089 1.12537-110.97-354.8)" style="fill:url(#0);stroke-width:4"/></g><path d="m242.72-441.77c-2.439.776-4.865 1.768-7.282 3-19.337 9.886-35.951 33.08-49.882 75.4-12.439 37.787-25.313 57.873-35.716 66.51-10.403 8.636-17.43 7.74-25.676 3.414-8.246-4.326-16.507-13.637-22.28-21.955-5.773-8.318-9.08-15.266-9.08-15.266a8.2625 8.2625 0 0 0 -14.9128 7.1193c0 0 3.855 8.106 10.412 17.552 6.557 9.446 15.793 20.61 28.21 27.13 12.422 6.517 29.23 6.832 43.842-5.296 14.61-12.13 27.923-34.782 40.85-74.05 13.254-40.26 28.517-59.13 41.703-65.867 13.186-6.741 26.01-3.444 39.524 5.234 27.02 17.355 50.06 56.09 50.06 56.09a8.2669 8.2669 0 0 0 14.329 -8.2492c0 0-22.909-40.813-55.43-61.703-14.23-9.14-31.594-14.488-48.666-9.06z" style="fill:#898585;color:#000;stroke-width:4.715"/></g><path d="m166.88 234.8l-7.243 9.89 12.244 2.764-11.906 2.921 7.602 9.988-10.998-5.415-.596 12.537-4.944-11.218-8.516 9.221 3.423-11.771-12.451 1.59 10.189-6.817-10.56-6.785 12.187 1.327-3.728-11.985 8.482 8.85 4.849-11.577.809 12.232 11.156-5.752z" transform="matrix(4.21887-1.31542 1.31542 4.21887-866.53-660.45)" style="fill:#ff0;stroke-linecap:round;stroke-linejoin:round"/></g><path d="m166.88 234.8l-7.243 9.89 12.244 2.764-11.906 2.921 7.602 9.988-10.998-5.415-.596 12.537-4.944-11.218-8.516 9.221 3.423-11.771-12.451 1.59 10.189-6.817-10.56-6.785 12.187 1.327-3.728-11.985 8.482 8.85 4.849-11.577.809 12.232 11.156-5.752" transform="matrix(2.10577-.65657.65657 2.10577-380.93-237.08)" style="fill:#fa0"/></svg>