<svg width="512" xmlns="http://www.w3.org/2000/svg" height="512" xmlns:xlink="http://www.w3.org/1999/xlink">
<defs>
<linearGradient xlink:href="#linearGradient4420" id="linearGradient4418" y1="104" x1="311.557" y2="168" x2="376" gradientUnits="userSpaceOnUse"/>
<linearGradient gradientTransform="matrix(1.12537 -.35089 .35089 1.12537 -110.97491 -354.79862)" xlink:href="#linearGradient4404" id="linearGradient4410" x1="311.557" x2="424.443" gradientUnits="userSpaceOnUse"/>
<linearGradient id="linearGradient4420">
<stop offset="0" stop-color="#f00"/>
<stop offset="1" stop-color="#5a0000"/>
</linearGradient>
<linearGradient id="linearGradient4404">
<stop offset="0" stop-color="#f00"/>
<stop offset="1" stop-color="#580000"/>
</linearGradient>
</defs>
<g stroke="#fff" transform="translate(0 492)">
<g stroke-linejoin="round" stroke-linecap="round">
<path fill="url(#linearGradient4410)" stroke-width="4.715" d="m276.6338-347.2364 95.0978,297.8063c6.2013,19.8888 39.4438,27.2145 74.2493,16.3623 34.8055-10.8522 57.9938-35.7727 51.7926-55.6616l-95.0978-297.8062-126.0418,39.2993z"/>
<path fill="url(#linearGradient4418)" stroke-width="4" d="m424,104a56,32 0 1,1 -112,0 56,32 0 1,1 112,0z" transform="matrix(1.12537 -.35089 .35089 1.12537 -110.97491 -354.79863)"/>
</g>
<path fill="#898585" line-height="normal" color="#000" stroke-width="4.715" d="m242.7202-441.7728c-2.4388,.7755-4.8653,1.768-7.2824,3.0038-19.3371,9.886-35.9509,33.0792-49.8823,75.4013-12.4386,37.7867-25.3131,57.8725-35.7156,66.508-10.4025,8.6356-17.4301,7.74-25.6762,3.4139-8.2461-4.3261-16.5066-13.6367-22.2801-21.9547-5.7735-8.3181-9.0815-15.2657-9.0815-15.2657a8.2625,8.2625 0 0,0 -14.9128,7.1193c0,0 3.8552,8.1058 10.4118,17.552 6.5565,9.4461 15.793,20.6104 28.2146,27.1271 12.4216,6.5167 29.2322,6.832 43.8424-5.2965 14.6102-12.1285 27.9228-34.7816 40.8495-74.0512 13.2537-40.2631 28.5171-59.1255 41.7035-65.8669 13.1864-6.7414 26.0145-3.4437 39.5241,5.2336 27.0192,17.3546 50.0551,56.0874 50.0551,56.0874a8.2669,8.2669 0 0,0 14.329-8.2492c0,0-22.9085-40.8125-55.4333-61.7034-14.2296-9.1397-31.5941-14.4876-48.6656-9.0588z"/>
</g>
<g transform="matrix(1.15043 .10686 -.10686 1.15043 -41.98683 543.76627)">
<path fill="#ff0" stroke="#fff" stroke-linejoin="round" stroke-linecap="round" d="m166.8838,234.8031-7.2428,9.8902 12.2435,2.7644-11.9056,2.9207 7.6021,9.9876-10.9976-5.4154-.5963,12.5375-4.9438-11.2176-8.5158,9.221 3.4234-11.7709-12.4506,1.5898 10.1887-6.8166-10.5596-6.7852 12.1866,1.3274-3.7277-11.9854 8.4822,8.8502 4.8485-11.5774 .809,12.2319 11.156-5.7523z" transform="matrix(3.53054 -1.47136 1.47136 3.53054 -806.99192 -971.79643)"/>
<path fill="#fa0" d="m166.8838,234.8031-7.2428,9.8902 12.2435,2.7644-11.9056,2.9207 7.6021,9.9876-10.9976-5.4154-.5963,12.5375-4.9438-11.2176-8.5158,9.221 3.4234-11.7709-12.4506,1.5898 10.1887-6.8166-10.5596-6.7852 12.1866,1.3274-3.7277-11.9854 8.4822,8.8502 4.8485-11.5774 .809,12.2319 11.156-5.7523z" transform="matrix(1.7622 -.7344 .7344 1.7622 -354.61337 -645.80752)"/>
</g>
</svg>
