<?xml version="1.0" encoding="UTF-8" standalone="no"?>
<!-- Created with Inkscape (http://www.inkscape.org/) -->

<svg
   xmlns:dc="http://purl.org/dc/elements/1.1/"
   xmlns:cc="http://creativecommons.org/ns#"
   xmlns:rdf="http://www.w3.org/1999/02/22-rdf-syntax-ns#"
   xmlns:svg="http://www.w3.org/2000/svg"
   xmlns="http://www.w3.org/2000/svg"
   xmlns:sodipodi="http://sodipodi.sourceforge.net/DTD/sodipodi-0.dtd"
   xmlns:inkscape="http://www.inkscape.org/namespaces/inkscape"
   width="512"
   height="512"
   id="svg2"
   sodipodi:version="0.32"
   inkscape:version="0.47 r22583"
   sodipodi:docname="HideAll.svg"
   inkscape:output_extension="org.inkscape.output.svg.inkscape"
   version="1.0"
   sodipodi:modified="true">
  <defs
     id="defs3">
    <inkscape:perspective
       sodipodi:type="inkscape:persp3d"
       inkscape:vp_x="0 : 130 : 1"
       inkscape:vp_y="0 : 1000 : 0"
       inkscape:vp_z="744.09448 : 130 : 1"
       inkscape:persp3d-origin="372.04724 : 86.666667 : 1"
       id="perspective2612" />
    <inkscape:perspective
       id="perspective11"
       inkscape:persp3d-origin="75 : 50 : 1"
       inkscape:vp_z="150 : 75 : 1"
       inkscape:vp_y="0 : 1000 : 0"
       inkscape:vp_x="0 : 75 : 1"
       sodipodi:type="inkscape:persp3d" />
  </defs>
  <sodipodi:namedview
     fill="#800000"
     id="base"
     pagecolor="#ffffff"
     bordercolor="#666666"
     borderopacity="1.0"
     inkscape:pageopacity="0.0"
     inkscape:pageshadow="2"
     inkscape:zoom="0.35355339"
     inkscape:cx="85.610814"
     inkscape:cy="276.30784"
     inkscape:document-units="px"
     inkscape:current-layer="layer1"
     showguides="true"
     inkscape:guide-bbox="true"
     inkscape:window-width="1250"
     inkscape:window-height="900"
     inkscape:window-x="22"
     inkscape:window-y="46"
     height="260px"
     width="744.09448px"
     showgrid="true"
     inkscape:window-maximized="0">
    <inkscape:grid
       type="xygrid"
       id="grid3468"
       empspacing="5"
       visible="true"
       enabled="true"
       snapvisiblegridlinesonly="true"
       spacingx="16px"
       spacingy="16px" />
  </sodipodi:namedview>
  <metadata
     id="metadata4">
    <rdf:RDF>
      <cc:Work
         rdf:about="">
        <dc:format>image/svg+xml</dc:format>
        <dc:type
           rdf:resource="http://purl.org/dc/dcmitype/StillImage" />
        <dc:title>eyes</dc:title>
        <dc:date>19 06 2005</dc:date>
        <dc:creator>
          <cc:Agent>
            <dc:title>Lumen Design Studio</dc:title>
          </cc:Agent>
        </dc:creator>
        <dc:description>eyes</dc:description>
        <cc:license
           rdf:resource="http://web.resource.org/cc/PublicDomain" />
      </cc:Work>
      <cc:License
         rdf:about="http://web.resource.org/cc/PublicDomain">
        <cc:permits
           rdf:resource="http://web.resource.org/cc/Reproduction" />
        <cc:permits
           rdf:resource="http://web.resource.org/cc/Distribution" />
        <cc:permits
           rdf:resource="http://web.resource.org/cc/DerivativeWorks" />
      </cc:License>
    </rdf:RDF>
  </metadata>
  <g
     inkscape:label="Layer 1"
     inkscape:groupmode="layer"
     id="layer1"
     transform="translate(0,464)">
    <path
       style="fill:#999999;fill-opacity:1"
       d="m 350.77689,-376.71524 c 41.21524,16.62177 78.92915,48.10312 117.42414,75.47241 7.26552,42.22542 -45.92393,-10.66232 -32.55604,26.46335 17.55666,25.62026 45.80036,33.87282 58.0618,66.98847 5.43494,41.90218 -24.69098,48.3934 -43.60597,54.29176 -19.00997,12.18973 -33.78706,36.46513 -53.40659,46.73235 -9.43653,31.17689 -33.10475,34.86678 -50.41791,54.25144 -15.10612,3.36153 -28.61471,8.99122 -42.80293,16.11423 -1.36335,-19.82981 -14.12957,-42.79332 -26.86853,-20.80037 -5.62626,19.86048 -31.93463,45.88468 -37.54509,15.92263 3.2375,-0.53216 17.7055,4.13063 16.61674,-15.81309 -5.04775,-38.99301 -23.66246,19.28442 -36.50933,21.47331 -9.46575,-3.58645 17.71716,-25.55134 -0.57131,-31.74496 -8.04996,6.62454 -20.06134,39.53687 -28.99179,22.93631 19.22616,-37.48586 -22.14938,-46.12468 -37.36374,-30.71172 -12.2866,-17.24415 -39.25077,27.46555 -40.07327,-0.72118 3.67789,-8.27012 30.43362,-11.87865 18.95768,-17.65228 -12.38126,12.27098 -31.475342,-0.45132 -34.268692,-11.26844 -17.41594,6.83545 14.003812,-33.24615 -5.86309,-19.98685 -22.02146,6.46396 -38.0288,-25.85782 -30.67511,-55.52273 -11.51306,-18.30731 -37.53635,38.19855 -33.75558,-4.30466 -9.06049,-7.54729 -14.06319,-17.48372 -0.83124,-21.37882 19.77153,-13.34342 23.32772,-58.98389 1.54365,-63.2473 0.90555,-34.80118 24.88551,-49.44629 41.91692,-63.14741 59.601932,-46.54227 127.967072,-49.45621 193.240262,-55.76986 29.58671,-0.99698 59.35322,1.83648 88.34502,11.42341 z m 16.15941,97.39981 c -23.50863,6.45158 -21.57553,50.82553 -32.25161,75.70308 -25.06766,60.99622 -82.67484,83.8188 -122.43223,44.14563 -19.9401,-17.21317 -41.24003,-45.05171 -40.94976,-83.65209 -8.28203,-40.82848 -39.21551,-18.71741 -53.91834,-0.32427 -21.691822,18.91904 -17.488802,63.0319 3.43321,78.72866 22.64046,26.80225 49.59374,44.17649 76.74034,56.45893 60.17223,20.06318 123.86318,-8.07393 174.17966,-60.34415 13.64722,-17.03057 34.7948,-37.14905 29.44439,-68.95921 -5.57148,-22.12729 -20.81655,-33.73271 -34.24566,-41.75655 z m -147.52674,3.52945 c -23.74041,16.86627 -10.90734,80.304 13.78756,78.91529 20.61357,-7.9099 13.04408,-49.37988 0.74112,-65.1805 -4.05413,-6.22345 -8.90664,-11.60914 -14.5287,-13.73479 z m 163.03348,161.24977 c -9.40076,2.76987 7.7441,8.72478 0,0 z m -60.04483,38.35934 c -11.82228,-0.56 5.32386,16.67746 0,0 z m -41.13359,18.52758 c 13.32132,20.05602 -14.512,7.79678 0,0 z M 86.563998,-123.80205 c -1.79893,24.04704 -16.36673,-0.19573 0,0 z m 81.984282,48.71141 c 1.21286,21.60383 -16.63851,-4.87399 0,0 z m 36.25866,13.08867 c -16.46901,4.56541 0.43243,26.81415 0,0 z m -18.13777,2.33528 c -5.47995,6.38819 -29.59374,39.48383 -18.37267,11.18077 5.2148,-6.50763 11.76076,-10.11232 18.37267,-11.18077 z m -34.7734,-0.23584 c -4.75797,22.33384 -15.58904,-3.63776 0,0 z"
       id="path1640" />
  </g>
</svg>
