<svg xmlns="http://www.w3.org/2000/svg" viewBox="0 0 512 512">
<defs/>
<g transform="translate(0 492)">
<g fill="#f00">
<path d="m16.5,4.5a1,1 0 1,1 -2,0 1,1 0 1,1 2,0z" transform="matrix(-32 0 0 -32 584 -180)"/>
<path d="m16.5,4.5a1,1 0 1,1 -2,0 1,1 0 1,1 2,0z" transform="matrix(-32 0 0 -32 904 -20)"/>
</g>
<g stroke="#000">
<path fill="none" stroke-width="16" d="m376-180-256-128"/>
<g stroke-linejoin="round" stroke-linecap="round" stroke-width="8">
<path d="m88-324 80,0-32,64-48-64z"/>
<path d="m408-164-80,0 32-64 48,64z"/>
</g>
</g>
</g>
</svg>
