<svg width="244.21" xmlns="http://www.w3.org/2000/svg" height="166.19" viewBox="2.04381 -49.3995 68.9211 46.9026" style="fill:none;stroke-linecap:round;stroke-linejoin:round"><g transform="scale(1-1)"><g style="stroke:#808080;stroke-width:.13"><path d="m5.625 33.75l.164-.656m.189-.757l.378-1.513m.189-.757l.378-1.513m.189-.757l.378-1.513m.189-.757l.378-1.513m.189-.757l.378-1.513m.189-.757l.378-1.513m.189-.757l.378-1.513m.189-.757l.378-1.513m.189-.757l.378-1.513m.189-.757l.164-.656"/><path d="m11.25 11.25l.77-.11m.772-.11l1.544-.221m.772-.11l1.544-.221m.772-.11l1.544-.221m.772-.11l1.544-.221m.772-.11l1.544-.221m.772-.11l1.544-.221m.772-.11l1.544-.221m.772-.11l1.544-.221m.772-.11l1.544-.221m.772-.11l1.544-.221m.772-.11l1.544-.221m.772-.11l1.544-.221m.772-.11l1.544-.221m.772-.11l1.544-.221m.772-.11l1.544-.221m.772-.11l1.544-.221m.772-.11l.77-.11"/></g><g style="stroke:#00f;stroke-width:.3"><circle cx="45" cy="45" r=".844"/><circle cx="5.625" cy="33.75" r=".844"/><circle cx="11.25" cy="11.25" r=".844"/><circle cx="50.625" cy="5.625" r=".844"/></g><g style="fill:#000;fill-rule:evenodd"><path d="m47.11 46.4h-.345v2.2c-.083-.079-.192-.159-.327-.238-.135-.079-.256-.139-.364-.178v.334c.193.091.362.201.507.33.145.129.247.255.307.376h.223v-2.824"/><path d="m4.078 35.623v-.332h-1.859c-.003.083.011.163.04.24.047.127.123.251.227.374.104.123.255.265.452.426.306.251.512.449.62.596.107.147.161.285.161.415 0 .137-.049.252-.147.346-.098.094-.225.141-.383.141-.166 0-.299-.05-.399-.15-.1-.1-.15-.238-.152-.414l-.355.036c.024.265.116.467.274.605.159.139.372.208.639.208.27 0 .483-.075.641-.224.157-.15.236-.335.236-.556 0-.112-.023-.223-.069-.332-.046-.109-.123-.223-.229-.343-.107-.12-.284-.285-.532-.495-.207-.174-.34-.292-.399-.354-.059-.062-.107-.124-.146-.187h1.379"/><path d="m8.846 7.371l.345.046c.04-.196.107-.337.202-.423.095-.086.211-.13.348-.13.162 0 .3.056.412.169.112.112.168.252.168.418 0 .159-.052.289-.155.392-.104.103-.235.154-.395.154-.065 0-.146-.013-.244-.038l.038.303c.023-.003.042-.004.056-.004.147 0 .28.038.397.115.118.077.177.195.177.355 0 .127-.043.232-.129.315-.086.083-.196.125-.332.125-.134 0-.246-.042-.336-.127-.089-.084-.147-.211-.173-.38l-.345.061c.042.232.138.411.288.538.15.127.336.191.558.191.153 0 .295-.033.424-.099.129-.066.228-.156.296-.27.069-.114.103-.235.103-.363 0-.121-.033-.232-.098-.332-.065-.1-.162-.179-.29-.238.166-.038.296-.118.388-.239.092-.121.138-.272.138-.454 0-.246-.089-.454-.269-.625-.179-.171-.405-.256-.679-.256-.247 0-.452.074-.615.221-.163.147-.256.338-.279.572"/><path d="m53.27 2.672v.673h-1.22v.317l1.283 1.823h.282v-1.823h.38v-.317h-.38v-.673h-.345m0 .99v1.268l-.881-1.268h.881"/></g><g style="stroke:#000;stroke-width:.3"><path d="m13.13 31.875l-.505-.533-.462-.543-.418-.552-.376-.561-.333-.568-.291-.575-.249-.581-.207-.586-.166-.59-.125-.593-.085-.595-.045-.597-.005-.598.035-.597.074-.596.113-.595.151-.592.189-.588.227-.584.264-.578.301-.572.338-.565.374-.557.411-.549.446-.539.482-.528.517-.517.551-.505.586-.492.62-.478.653-.463.687-.447.719-.431.75-.414.778-.396.804-.377.827-.357.848-.336.866-.314.883-.292.896-.268.908-.244.917-.219.923-.193.927-.166.929-.139.928-.11.925-.081.92-.051.912-.02.901.012.889.045.874.079.856.113.836.149.814.185.789.222.762.26.733.299.701.338.666.379.63.42.59.462.549.505.505.549.462.59.419.628.376.663.333.695.291.725.249.751.207.775.166.795.125.813.085.828.045.84.005.849-.035.855-.074.858-.112.858-.151.855-.189.849-.227.841-.264.829-.301.815-.338.797-.374.777-.411.754-.446.728-.482.699-.517.667-.551.632-.586.595-.62.554-.653.51-.687.464-.719.415-.75.367-.778.32-.804.274-.827.229-.848.186-.867.144-.883.102-.896.063-.908.024-.917-.013-.923-.05-.927-.085-.929-.118-.928-.151-.925-.182-.92-.213-.912-.242-.901-.27-.889-.296-.874-.322-.856-.346-.836-.369-.814-.391-.789-.411-.762-.431-.733-.449-.701-.466-.666-.481-.63-.496-.591-.509-.549-.522"/><path d="m25.313 39.38l-1.209-.357-1.165-.368-1.121-.379-1.077-.39-1.033-.401-.989-.412-.945-.423-.901-.434-.857-.445-.813-.456-.769-.467-.725-.478-.681-.489-.637-.5-.593-.511-.549-.522-.505-.533-.461-.544-.418-.555-.373-.566-.33-.577-.286-.588-.242-.599-.198-.61-.154-.621-.11-.632-.066-.643-.022-.654.022-.665.066-.676.11-.687.154-.698.192-.695.225-.678.258-.662.291-.645.324-.629.357-.613.39-.596.423-.58.456-.563.489-.547.522-.53.555-.514.588-.497.621-.481.654-.464.687-.448.72-.431.753-.415.785-.398.819-.382.852-.365.884-.349.917-.332.95-.316.983-.299 1.016-.283 1.049-.266 1.082-.25 1.115-.233 1.148-.217 1.181-.2 1.214-.184 1.208-.154 1.164-.11 1.121-.066 1.077-.022 1.033.022.989.066.945.11.901.154.857.198.813.242.769.286.725.33.681.373.637.418.593.461.549.505.505.549.461.593.417.637.373.681.33.725.286.769.242.813.198.857.154.901.11.945.066.989.022 1.033-.022 1.077-.066 1.121-.11 1.165-.154 1.209-.192 1.206-.225 1.156-.258 1.107-.291 1.058-.324 1.01-.357.959-.39.909-.423.86-.456.81-.489.761-.522.711-.555.662-.588.612-.621.563-.654.514-.687.464-.72.415-.752.365-.785.316-.819.266-.852.217-.884.167-.917.118-.95.069-.983.019-1.016-.03-1.049-.08-1.082-.129-1.115-.178-1.148-.228-1.181-.277-1.214-.327"/></g><g style="fill:#000;fill-rule:evenodd"><path d="m34.21 25.13l.34-.044c-.037-.234-.132-.417-.285-.55-.153-.132-.34-.198-.563-.198-.279 0-.503.091-.672.273-.169.182-.254.444-.254.784 0 .22.036.413.109.578.073.165.184.289.333.371.149.082.311.124.486.124.221 0 .402-.056.543-.168.141-.112.231-.271.27-.477l-.336-.052c-.032.137-.089.24-.17.309-.081.069-.179.104-.294.104-.174 0-.315-.062-.424-.187-.109-.125-.163-.322-.163-.592 0-.274.052-.473.157-.597.105-.124.242-.186.411-.186.136 0 .249.042.34.125.091.083.148.211.173.384m1.97-.746v.299c-.159-.23-.374-.345-.647-.345-.12 0-.233.023-.337.069-.104.046-.182.104-.232.174-.05.07-.086.155-.106.256-.014.068-.021.175-.021.322v1.262h.345v-1.13c0-.18.007-.302.021-.364.022-.091.068-.162.138-.214.07-.052.157-.078.261-.078.104 0 .201.027.292.08.091.053.155.125.193.217.038.091.057.224.057.398v1.092h.345v-2.037h-.309m1.168 0h-.32v2.813h.345v-1c.146.183.332.274.558.274.125 0 .244-.025.356-.076.112-.05.204-.122.276-.213.072-.091.129-.202.17-.331.041-.129.061-.267.061-.414 0-.349-.086-.619-.259-.81-.173-.191-.38-.286-.622-.286-.24 0-.429.1-.566.301v-.255m-.004 1.034c0-.244.033-.421.1-.529.109-.178.256-.267.441-.267.151 0 .281.066.391.197.11.131.165.326.165.586 0 .266-.053.462-.158.589-.105.127-.233.19-.383.19-.151 0-.281-.066-.391-.197-.11-.131-.165-.321-.165-.569m1.872 1.381v.397h.345v-.397h-.345m0-2.415v2.037h.345v-2.037h-.345m2.2.746l.34-.044c-.037-.234-.132-.417-.285-.55-.153-.132-.34-.198-.563-.198-.279 0-.503.091-.672.273-.169.182-.254.444-.254.784 0 .22.036.413.109.578.073.165.184.289.333.371.149.082.311.124.486.124.221 0 .402-.056.543-.168.141-.112.231-.271.27-.477l-.336-.052c-.032.137-.089.24-.17.309-.081.069-.179.104-.294.104-.174 0-.315-.062-.424-.187-.109-.125-.163-.322-.163-.592 0-.274.052-.473.157-.597.105-.124.242-.186.41-.186.136 0 .249.042.34.125.091.083.148.211.173.384"/><path d="m56.22 24.486v.998c-.054-.076-.129-.138-.225-.188-.097-.05-.199-.075-.308-.075-.242 0-.45.097-.624.29-.175.193-.262.458-.262.794 0 .205.035.388.106.551.071.162.174.285.309.369.135.084.283.126.444.126.252 0 .45-.106.595-.318v.272h.311v-2.818h-.345m-1.065 1.805c0-.262.055-.459.165-.59.11-.131.242-.197.395-.197.147 0 .274.062.38.187.106.125.159.314.159.569 0 .271-.056.475-.168.612-.112.137-.243.205-.394.205-.15 0-.277-.064-.381-.191-.104-.127-.156-.326-.156-.596m3.286-1.024v.299c-.159-.23-.374-.345-.647-.345-.12 0-.232.023-.337.069-.104.046-.182.104-.232.174-.05.07-.086.155-.106.256-.014.068-.021.175-.021.322v1.262h.345v-1.13c0-.18.007-.302.021-.364.022-.091.068-.162.138-.214.07-.052.157-.078.261-.078.104 0 .201.026.292.08.091.053.155.125.193.217.038.091.057.224.057.398v1.092h.345v-2.037h-.309m2.179.251c-.128-.109-.251-.186-.369-.23-.118-.045-.245-.067-.381-.067-.224 0-.396.055-.516.164-.12.109-.18.249-.18.419 0 .1.023.191.068.273.045.082.105.149.178.199.074.05.156.088.248.113.068.018.17.035.307.052.279.033.484.073.616.119.001.047.002.077.002.09 0 .141-.033.24-.098.297-.088.078-.219.117-.393.117-.162 0-.282-.029-.36-.085-.077-.057-.135-.158-.172-.302l-.338.046c.031.145.081.261.151.35.07.089.172.157.305.205.133.048.287.072.462.072.174 0 .315-.02.424-.061.109-.041.189-.093.24-.154.051-.062.087-.14.108-.235.011-.059.017-.165.017-.319v-.46c0-.321.007-.524.022-.609.015-.085.044-.167.087-.245h-.361c-.036.072-.059.155-.069.251m-.029.771c-.125-.051-.313-.095-.564-.13-.142-.02-.242-.044-.301-.069-.059-.026-.104-.063-.136-.112-.032-.049-.048-.104-.048-.164 0-.092.035-.169.105-.23.07-.061.172-.092.306-.092.133 0 .251.029.355.087.104.058.18.138.228.239.037.078.056.193.056.345v.127m2.206-1.023v.257c-.129-.202-.319-.303-.57-.303-.162 0-.312.045-.448.134-.136.09-.242.215-.316.375-.075.16-.112.345-.112.553 0 .203.034.388.102.553.068.166.169.293.305.381.136.088.287.132.455.132.123 0 .232-.026.328-.078.096-.052.174-.119.234-.202v1.01h.343v-2.813h-.32m-1.092 1.017c0-.261.055-.456.165-.585.11-.129.24-.194.389-.194.151 0 .279.062.385.185.105.123.158.312.158.565 0 .279-.054.483-.161.614-.107.131-.24.196-.397.196-.154 0-.282-.063-.385-.188-.103-.125-.154-.323-.154-.593m1.951-1.017v2.037h.311v-.309c.079.145.153.24.22.286.067.046.141.069.222.069.116 0 .235-.037.355-.111l-.119-.32c-.085.05-.169.075-.253.075-.075 0-.143-.023-.203-.068-.06-.045-.103-.108-.129-.189-.038-.123-.058-.257-.058-.403v-1.067h-.345m2.642.251c-.128-.109-.251-.186-.369-.23-.118-.045-.245-.067-.381-.067-.224 0-.396.055-.516.164-.12.109-.18.249-.18.419 0 .1.023.191.068.273.045.082.105.149.178.199.074.05.156.088.249.113.068.018.17.035.307.052.279.033.484.073.616.119.001.047.002.077.002.09 0 .141-.033.24-.098.297-.088.078-.219.117-.393.117-.162 0-.282-.029-.36-.085-.077-.057-.135-.158-.172-.302l-.338.046c.031.145.081.261.151.35.07.089.172.157.305.205.133.048.287.072.462.072.174 0 .315-.02.424-.061.109-.041.189-.093.24-.154.051-.062.087-.14.108-.235.011-.059.017-.165.017-.319v-.46c0-.321.007-.524.022-.609.015-.085.044-.167.087-.245h-.361c-.036.072-.059.155-.069.251m-.029.771c-.125-.051-.313-.095-.564-.13-.142-.02-.242-.044-.301-.069-.059-.026-.104-.063-.136-.112-.032-.049-.048-.104-.048-.164 0-.092.035-.169.105-.23.07-.061.172-.092.306-.092.133 0 .251.029.355.087.104.058.18.138.228.239.037.078.056.193.056.345v.127m1.638-.714l.05-.305c-.097-.02-.184-.031-.261-.031-.125 0-.223.02-.292.059-.069.04-.118.092-.146.156-.028.065-.042.201-.042.408v1.172h-.253v.269h.253v.505l.343.207v-.712h.347v-.269h-.347v-1.191c0-.098.006-.162.018-.19.012-.028.032-.05.059-.067.028-.017.067-.025.118-.025.038 0 .089.005.151.013m.34 2.107v.397h.345v-.397h-.345m0-2.415v2.037h.345v-2.037h-.345m2.2.746l.34-.044c-.037-.234-.132-.417-.285-.55-.153-.132-.341-.199-.563-.199-.279 0-.503.091-.672.273-.169.182-.254.444-.254.784 0 .22.036.413.109.578.073.165.184.289.333.371.149.082.311.124.486.124.221 0 .402-.056.543-.168.141-.112.231-.271.27-.477l-.336-.052c-.032.137-.089.24-.17.309-.081.069-.179.104-.294.104-.174 0-.315-.062-.424-.187-.109-.125-.163-.322-.163-.592 0-.274.052-.473.157-.597.105-.124.242-.186.41-.186.136 0 .249.041.34.125.091.083.148.211.173.384"/></g><g style="stroke:#000;stroke-width:.35"><path d="m42.657 25.485l3.217.629"/><path d="m47.552 27.09l6.434-.769"/></g><g style="stroke:#808080;stroke-width:.13"><path d="m45 45l.11-.77m.11-.772l.221-1.544m.11-.772l.221-1.544m.11-.772l.221-1.544m.11-.772l.221-1.544m.11-.772l.221-1.544m.11-.772l.221-1.544m.11-.772l.221-1.544m.11-.772l.221-1.544m.11-.772l.221-1.544m.11-.772l.221-1.544m.11-.772l.221-1.544m.11-.772l.221-1.544m.11-.772l.221-1.544m.11-.772l.221-1.544m.11-.772l.221-1.544m.11-.772l.221-1.544m.11-.772l.11-.77"/><path d="m45 45l-1.313-.375m-.75-.214l-1.5-.428m-.75-.214l-1.5-.429m-.75-.214l-1.5-.428m-.75-.214l-1.5-.429m-.75-.214l-1.5-.428m-.75-.214l-1.5-.429m-.75-.214l-1.5-.429m-.75-.214l-1.5-.429m-.75-.214l-1.5-.429m-.75-.214l-1.5-.429m-.75-.214l-1.5-.429m-.75-.214l-1.5-.428m-.75-.214l-1.5-.429m-.75-.214l-1.5-.428m-.75-.214l-1.5-.429m-.75-.214l-1.5-.428m-.75-.214l-1.313-.375"/></g></g></svg>