<svg width="244.2086" fill="none" xmlns="http://www.w3.org/2000/svg" height="166.1903" viewBox="2.04381 -49.3995 68.9211 46.9026" stroke-linejoin="round" stroke-linecap="round">
<g transform="scale(1 -1)">
<g stroke="#808080" stroke-width=".13">
<path d="m5.625,33.75l.164-.656m.1892-.7568l.3784-1.5134m.1892-.7567l.3784-1.5134m.1892-.7567l.3783-1.5134m.1892-.7568l.3783-1.5134m.1892-.7567l.3784-1.5134m.1892-.7567l.3783-1.5134m.1892-.7568l.3783-1.5134m.1892-.7567l.3784-1.5134m.1892-.7567l.3783-1.5134m.1892-.7568l.164-.656"/>
<path d="m11.25,11.25l.7696-.1099m.7721-.1103l1.5443-.2207m.7722-.1103l1.5443-.2206m.7722-.1103l1.5443-.2206m.7722-.1103l1.5443-.2206m.7722-.1103l1.5443-.2206m.7721-.1103l1.5444-.2206m.7721-.1103l1.5443-.2206m.7722-.1103l1.5443-.2206m.7722-.1103l1.5443-.2206m.7722-.1103l1.5443-.2206m.7721-.1103l1.5444-.2206m.7721-.1103l1.5443-.2206m.7722-.1103l1.5443-.2206m.7722-.1103l1.5443-.2206m.7722-.1103l1.5443-.2206m.7722-.1103l1.5443-.2206m.7721-.1103l.7696-.1099"/>
</g>
<g stroke="#00f" stroke-width=".3">
<circle cx="45" cy="45" r=".844"/>
<circle cx="5.625" cy="33.75" r=".844"/>
<circle cx="11.25" cy="11.25" r=".844"/>
<circle cx="50.625" cy="5.625" r=".844"/>
</g>
<g fill="#000" fill-rule="evenodd">
<path d="m47.1094,46.4005h-.3454v2.2005c-.0831-.0793-.1921-.1586-.3271-.2379-.1349-.0793-.2561-.1388-.3635-.1784v.3338c.1931,.0908 .3619,.2008 .5065,.33 .1445,.1292 .2468,.2545 .3069,.376h.2226v-2.824"/>
<path d="m4.0781,35.623v-.3319h-1.859c-.0026,.0832 .0109,.1631 .0403,.2398 .0473,.1267 .1231,.2514 .2273,.3741 .1042,.1228 .2548,.2648 .4518,.4259 .3057,.2507 .5122,.4493 .6197,.5957 .1074,.1465 .1612,.2849 .1612,.4154 0,.1368-.0489,.2523-.1468,.3463-.0978,.094-.2254,.141-.3827,.141-.1663,0-.2993-.0499-.399-.1497-.0998-.0997-.1503-.2379-.1516-.4144l-.3549,.0365c.0243,.2647 .1158,.4665 .2743,.6053 .1586,.1387 .3716,.2081 .6389,.2081 .2699,0 .4835-.0748 .6408-.2244 .1573-.1497 .236-.3351 .236-.5564 0-.1125-.023-.2232-.0691-.3319-.046-.1087-.1225-.2232-.2293-.3434-.1068-.1202-.2843-.2852-.5324-.495-.2072-.1739-.3402-.2919-.399-.3539-.0588-.0621-.1074-.1244-.1458-.1871h1.3794"/>
<path d="m8.8458,7.371l.3453,.0461c.0396-.1957 .1071-.3367 .2024-.423 .0953-.0863 .2113-.1295 .3482-.1295 .1624,0 .2996,.0563 .4115,.1688 .1119,.1125 .1679,.252 .1679,.4182 0,.1586-.0518,.2894-.1554,.3923-.1036,.103-.2354,.1544-.3952,.1544-.0652,0-.1464-.0128-.2436-.0384l.0384,.3031c.023-.0026 .0416-.0038 .0556-.0038 .1471,0 .2795,.0384 .3971,.1151 .1177,.0767 .1765,.1951 .1765,.3549 0,.1266-.0428,.2315-.1285,.3146-.0857,.0831-.1963,.1247-.3319,.1247-.1343,0-.2462-.0422-.3357-.1266-.0895-.0844-.1471-.211-.1727-.3799l-.3453,.0614c.0422,.2315 .1381,.4109 .2878,.5381 .1496,.1273 .3357,.1909 .5583,.1909 .1535,0 .2948-.0329 .424-.0988 .1292-.0659 .228-.1557 .2964-.2696 .0685-.1138 .1027-.2347 .1027-.3626 0-.1215-.0326-.2321-.0979-.3319-.0652-.0998-.1618-.1791-.2897-.2379 .1663-.0384 .2955-.118 .3876-.2389 .0921-.1209 .1381-.2721 .1381-.4537 0-.2456-.0895-.4537-.2686-.6245-.179-.1708-.4054-.2561-.6791-.2561-.2469,0-.4518,.0735-.6149,.2206-.1631,.1471-.2561,.3377-.2791,.5717"/>
<path d="m53.2748,2.6719v.6734h-1.2201v.3165l1.2834,1.8226h.282v-1.8226h.3799v-.3165h-.3799v-.6734h-.3453m0,.9899v1.2681l-.8806-1.2681h.8806"/>
</g>
<g stroke="#fff" stroke-width=".3">
<path d="m13.125,31.875l-.5054-.5327-.4619-.5428-.4185-.5521-.3757-.5605-.3331-.5681-.2908-.5747-.249-.5806-.2074-.5856-.1662-.5897-.1254-.5929-.0849-.5954-.0447-.5968-.0049-.5976 .0346-.5974 .0738-.5964 .1125-.5945 .151-.5918 .1891-.5881 .2269-.5837 .2643-.5783 .3014-.5722 .3381-.5651 .3745-.5573 .4106-.5485 .4462-.5388 .4817-.5284 .5166-.5171 .5513-.5049 .5857-.4918 .6196-.478 .6533-.4632 .6866-.4475 .7192-.4311 .7498-.4137 .7779-.3955 .8036-.3765 .827-.3566 .848-.3358 .8665-.3142 .8826-.2916 .8964-.2684 .9077-.2441 .9166-.2191 .9231-.1931 .9273-.1664 .9289-.1387 .9283-.1102 .9252-.0809 .9197-.0507 .9118-.0196 .9015,.0123 .8889,.0451 .8737,.0788 .8561,.1133 .8363,.1486 .814,.1849 .7892,.2219 .7621,.2599 .7326,.2986 .7007,.3383 .6663,.3789 .6296,.4202 .5905,.4624 .5489,.5055 .5054,.5488 .4619,.5899 .4185,.628 .3757,.6631 .3331,.6954 .2908,.7248 .249,.7512 .2074,.7748 .1662,.7953 .1254,.813 .0849,.8278 .0446,.8396 .0049,.8486-.0346,.8545-.0738,.8577-.1125,.8578-.151,.8551-.1891,.8494-.2269,.8408-.2643,.8293-.3014,.815-.3381,.7975-.3745,.7773-.4106,.7542-.4462,.728-.4817,.699-.5166,.6672-.5513,.6322-.5857,.5945-.6196,.5538-.6533,.5102-.6866,.4637-.7192,.4149-.7498,.3667-.7779,.3197-.8036,.2738-.827,.2292-.848,.1858-.8665,.1435-.8826,.1025-.8964,.0627-.9077,.0241-.9166-.0134-.9231-.0496-.9273-.0846-.9289-.1184-.9283-.151-.9252-.1825-.9197-.2126-.9118-.2417-.9015-.2695-.8889-.2961-.8737-.3215-.8561-.3457-.8363-.3687-.814-.3905-.7892-.4111-.7621-.4305-.7326-.4486-.7007-.4657-.6663-.4815-.6296-.4961-.5905-.5094-.5489-.5217"/>
<path d="m25.3125,39.375l-1.2085-.3571-1.1645-.368-1.1207-.379-1.0766-.39-1.0327-.401-.9888-.412-.9448-.423-.9009-.434-.8569-.4449-.813-.4559-.7691-.467-.7251-.4779-.6811-.4889-.6372-.4998-.5933-.5109-.5493-.5218-.5054-.5329-.4614-.5438-.4175-.5548-.3735-.5658-.3296-.5768-.2856-.5878-.2417-.5987-.1977-.6098-.1538-.6207-.1099-.6317-.0659-.6427-.022-.6537 .022-.6647 .0659-.6756 .1099-.6867 .1538-.6976 .1923-.6949 .2252-.6784 .2582-.6619 .2911-.6455 .3241-.6289 .357-.6125 .3901-.596 .4229-.5796 .456-.563 .4889-.5466 .5218-.5301 .5548-.5136 .5878-.4971 .6207-.4807 .6537-.4641 .6867-.4477 .7196-.4312 .7525-.4148 .7855-.3982 .8185-.3818 .8515-.3653 .8844-.3488 .9173-.3323 .9503-.3159 .9833-.2994 1.0162-.2829 1.0492-.2664 1.0822-.2499 1.1151-.2335 1.1481-.217 1.181-.2005 1.214-.184 1.2085-.1538 1.1645-.1099 1.1207-.0659 1.0766-.022 1.0327,.022 .9888,.0659 .9448,.1099 .9009,.1538 .8569,.1977 .813,.2417 .7691,.2856 .7251,.3296 .6811,.3735 .6372,.4175 .5933,.4614 .5493,.5054 .5054,.5493 .4614,.5933 .4175,.6372 .3735,.6811 .3296,.7251 .2856,.7691 .2417,.813 .1978,.8569 .1538,.9009 .1099,.9448 .0659,.9888 .022,1.0327-.022,1.0766-.0659,1.1207-.1099,1.1645-.1538,1.2085-.1923,1.2057-.2252,1.1564-.2582,1.1068-.2911,1.0575-.3241,1.008-.357,.9585-.3901,.9091-.4229,.8597-.456,.8103-.4889,.7608-.5218,.7113-.5548,.662-.5878,.6124-.6207,.5631-.6537,.5136-.6867,.4642-.7196,.4147-.7525,.3653-.7855,.3159-.8185,.2664-.8515,.217-.8844,.1675-.9173,.1181-.9503,.0687-.9833,.0192-1.0162-.0302-1.0492-.0797-1.0822-.1291-1.1151-.1785-1.1481-.228-1.181-.2774-1.214-.3268"/>
</g>
<g fill="#000" fill-rule="evenodd">
<path d="m34.2145,25.1338l.3396-.0441c-.0371-.2341-.1321-.4173-.2849-.5497-.1528-.1324-.3405-.1985-.5631-.1985-.2788,0-.5029,.0911-.6724,.2733-.1695,.1823-.2542,.4435-.2542,.7837 0,.22 .0364,.4125 .1093,.5775 .0729,.165 .1839,.2887 .3329,.3712 .149,.0825 .3111,.1238 .4863,.1238 .2213,0 .4023-.056 .543-.1679 .1407-.1119 .2308-.2708 .2705-.4767l-.3358-.0518c-.0319,.1368-.0885,.2398-.1697,.3088-.0813,.0691-.1794,.1036-.2945,.1036-.174,0-.3153-.0623-.424-.187-.1087-.1247-.1631-.322-.1631-.5919 0-.2737 .0524-.4726 .1573-.5966 .1049-.1241 .2418-.1861 .4106-.1861 .1356,0 .2487,.0416 .3396,.1247 .0908,.0831 .1483,.211 .1726,.3837m1.9703-.7463v.2993c-.1586-.2302-.3741-.3453-.6465-.3453-.1203,0-.2325,.023-.3367,.069-.1043,.0461-.1816,.1039-.2322,.1736-.0505,.0697-.086,.1551-.1064,.2562-.0141,.0677-.0211,.1752-.0211,.3223v1.2623h.3453v-1.13c0-.1803 .007-.3018 .0211-.3645 .0217-.0908 .0678-.1621 .1381-.2139 .0704-.0518 .1573-.0777 .2609-.0777 .1036,0 .2008,.0266 .2916,.0796 .0909,.0531 .1551,.1254 .1929,.2168 .0377,.0915 .0566,.2242 .0566,.3981v1.0916h.3453v-2.0374h-.3089m1.1681,0h-.3204v2.8125h.3454v-1.0034c.1458,.1829 .3319,.2744 .5582,.2744 .1254,0 .244-.0253 .3559-.0758 .1119-.0505 .204-.1215 .2763-.213 .0723-.0914 .1288-.2017 .1698-.3309 .0409-.1292 .0614-.2673 .0614-.4144 0-.3492-.0864-.619-.259-.8096-.1727-.1906-.3799-.2858-.6216-.2858-.2405,0-.4291,.1004-.566,.3012v-.2552m-.0038,1.0341c0-.2443 .0332-.4208 .0998-.5295 .1087-.1778 .2558-.2667 .4412-.2667 .1509,0 .2814,.0655 .3914,.1966 .11,.1311 .165,.3265 .165,.5861 0,.2661-.0528,.4624-.1583,.589-.1055,.1266-.2331,.1899-.3827,.1899-.151,0-.2814-.0655-.3914-.1966-.11-.1311-.165-.3207-.165-.5688m1.8722,1.3813v.3971h.3453v-.3971h-.3453m0-2.4154v2.0374h.3453v-2.0374h-.3453m2.2,.7463l.3395-.0441c-.037-.2341-.132-.4173-.2849-.5497-.1528-.1324-.3405-.1985-.563-.1985-.2788,0-.503,.0911-.6725,.2733-.1694,.1823-.2542,.4435-.2542,.7837 0,.22 .0365,.4125 .1094,.5775 .0729,.165 .1839,.2887 .3329,.3712 .149,.0825 .3111,.1238 .4863,.1238 .2213,0 .4022-.056 .5429-.1679 .1407-.1119 .2309-.2708 .2705-.4767l-.3357-.0518c-.032,.1368-.0886,.2398-.1698,.3088-.0812,.0691-.1794,.1036-.2945,.1036-.1739,0-.3153-.0623-.424-.187-.1087-.1247-.163-.322-.163-.5919 0-.2737 .0524-.4726 .1573-.5966 .1049-.1241 .2417-.1861 .4105-.1861 .1356,0 .2488,.0416 .3396,.1247 .0908,.0831 .1484,.211 .1727,.3837"/>
<path d="m56.2229,24.4862v.9977c-.0537-.0755-.1289-.1382-.2254-.1881-.0966-.0498-.1992-.0748-.308-.0748-.2417,0-.4498,.0966-.6244,.2897-.1746,.1931-.2619,.4579-.2619,.7943 0,.2046 .0355,.3881 .1065,.5506 .071,.1624 .1739,.2855 .3089,.3693 .1349,.0838 .2829,.1256 .4441,.1256 .252,0 .4502-.1061 .5947-.3184v.2724h.3108v-2.8183h-.3453m-1.0648,1.8053c0-.2622 .055-.4588 .165-.5899 .11-.1311 .2417-.1966 .3952-.1966 .1471,0 .2737,.0623 .3799,.187 .1061,.1247 .1592,.3143 .1592,.5688 0,.2712-.0559,.4752-.1678,.612-.112,.1369-.2434,.2053-.3943,.2053-.1496,0-.2766-.0636-.3808-.1909-.1043-.1272-.1564-.3258-.1564-.5957m3.2862-1.0244v.2993c-.1586-.2303-.3741-.3454-.6466-.3454-.1202,0-.2324,.023-.3367,.0691-.1042,.046-.1816,.1039-.2321,.1736-.0505,.0697-.086,.1551-.1065,.2561-.014,.0678-.0211,.1753-.0211,.3223v1.2624h.3454v-1.13c0-.1803 .007-.3018 .0211-.3645 .0217-.0908 .0677-.1621 .1381-.2139 .0703-.0518 .1573-.0777 .2609-.0777 .1036,0 .2008,.0265 .2916,.0796 .0908,.0531 .1551,.1253 .1928,.2168 .0377,.0914 .0566,.2241 .0566,.3981v1.0916h.3453v-2.0374h-.3088m2.1791,.2513c-.1279-.1087-.251-.1855-.3693-.2302-.1183-.0448-.2452-.0672-.3808-.0672-.2238,0-.3958,.0547-.5161,.1641-.1202,.1093-.1803,.249-.1803,.4191 0,.0998 .0227,.1909 .0681,.2734 .0454,.0825 .1049,.1487 .1784,.1986 .0736,.0499 .1564,.0876 .2485,.1132 .0678,.0179 .1701,.0352 .3069,.0518 .2788,.0332 .4841,.0729 .6159,.1189 .0012,.0474 .0019,.0774 .0019,.0902 0,.1407-.0326,.2398-.0979,.2974-.0882,.078-.2193,.117-.3933,.117-.1624,0-.2823-.0285-.3597-.0854-.0774-.0569-.1346-.1576-.1717-.3021l-.3376,.046c.0307,.1445 .0812,.2612 .1515,.3501 .0704,.0889 .1721,.1573 .3051,.2053 .133,.048 .2871,.0719 .4623,.0719 .174,0 .3153-.0204 .424-.0613 .1087-.041 .1887-.0925 .2398-.1545 .0512-.062 .087-.1404 .1075-.235 .0115-.0588 .0172-.165 .0172-.3185v-.4604c0-.321 .0074-.5241 .0221-.6091 .0147-.0851 .0438-.1666 .0873-.2446h-.3607c-.0358,.0716-.0588,.1554-.0691,.2513m-.0287,.7712c-.1254-.0511-.3134-.0946-.5641-.1304-.1419-.0205-.2423-.0435-.3012-.0691-.0588-.0256-.1042-.063-.1362-.1122-.032-.0493-.048-.1039-.048-.1641 0-.092 .0349-.1688 .1046-.2302 .0697-.0614 .1717-.0921 .306-.0921 .133,0 .2513,.0291 .3549,.0873 .1036,.0582 .1797,.1378 .2283,.2389 .0371,.078 .0557,.1931 .0557,.3453v.1266m2.206-1.0225v.257c-.1292-.202-.3191-.3031-.5698-.3031-.1624,0-.3118,.0448-.448,.1343-.1362,.0895-.2417,.2146-.3165,.3751-.0748,.1605-.1123,.345-.1123,.5535 0,.2033 .0339,.3878 .1017,.5534 .0678,.1657 .1695,.2926 .3051,.3809 .1355,.0882 .2871,.1323 .4546,.1323 .1228,0 .2322-.0259 .3281-.0777 .0959-.0518 .174-.1192 .2341-.2024v1.0092h.3434v-2.8125h-.3204m-1.0916,1.0168c0-.2609 .055-.456 .165-.5852 .1099-.1291 .2398-.1937 .3894-.1937 .1509,0 .2791,.0617 .3847,.1851 .1055,.1234 .1582,.3117 .1582,.565 0,.2788-.0537,.4834-.1611,.6139-.1074,.1305-.2398,.1957-.3971,.1957-.1535,0-.2817-.0627-.3847-.188-.103-.1254-.1544-.323-.1544-.5928m1.9508-1.0168v2.0374h.3108v-.3089c.0793,.1446 .1526,.2398 .2197,.2859 .0671,.046 .141,.069 .2216,.069 .1164,0 .2347-.037 .3549-.1112l-.1189-.3204c-.0845,.0499-.1689,.0748-.2533,.0748-.0754,0-.1432-.0227-.2033-.0681-.0602-.0454-.103-.1084-.1286-.189-.0384-.1228-.0575-.257-.0575-.4029v-1.0666h-.3454m2.6416,.2513c-.1279-.1087-.251-.1855-.3693-.2302-.1183-.0448-.2452-.0672-.3808-.0672-.2238,0-.3958,.0547-.5161,.1641-.1202,.1093-.1803,.249-.1803,.4191 0,.0998 .0227,.1909 .0681,.2734 .0454,.0825 .1049,.1487 .1784,.1986 .0736,.0499 .1564,.0876 .2485,.1132 .0678,.0179 .1701,.0352 .3069,.0518 .2788,.0332 .4841,.0729 .6159,.1189 .0012,.0474 .0019,.0774 .0019,.0902 0,.1407-.0326,.2398-.0979,.2974-.0882,.078-.2193,.117-.3933,.117-.1624,0-.2823-.0285-.3597-.0854-.0773-.0569-.1346-.1576-.1717-.3021l-.3376,.046c.0307,.1445 .0812,.2612 .1515,.3501 .0704,.0889 .1721,.1573 .3051,.2053 .133,.048 .2871,.0719 .4623,.0719 .174,0 .3153-.0204 .424-.0613 .1087-.041 .1887-.0925 .2398-.1545 .0512-.062 .087-.1404 .1075-.235 .0115-.0588 .0172-.165 .0172-.3185v-.4604c0-.321 .0074-.5241 .0221-.6091 .0147-.0851 .0438-.1666 .0873-.2446h-.3607c-.0358,.0716-.0588,.1554-.0691,.2513m-.0287,.7712c-.1254-.0511-.3134-.0946-.5641-.1304-.1419-.0205-.2423-.0435-.3012-.0691-.0588-.0256-.1042-.063-.1362-.1122-.032-.0493-.048-.1039-.048-.1641 0-.092 .0349-.1688 .1046-.2302 .0697-.0614 .1717-.0921 .306-.0921 .133,0 .2513,.0291 .3549,.0873 .1036,.0582 .1797,.1378 .2283,.2389 .0371,.078 .0557,.1931 .0557,.3453v.1266m1.6381-.7137l.0499-.305c-.0972-.0205-.1842-.0307-.2609-.0307-.1254,0-.2226,.0198-.2916,.0595-.0691,.0396-.1177,.0918-.1458,.1563-.0282,.0646-.0422,.2005-.0422,.4077v1.1722h-.2533v.2686h.2533v.5046l.3434,.2072v-.7118h.3472v-.2686h-.3472v-1.1914c0-.0984 .006-.1618 .0182-.1899 .0121-.0281 .032-.0505 .0595-.0671 .0275-.0167 .0668-.025 .118-.025 .0383,0 .0888,.0045 .1515,.0134m.3395,2.1065v.3972h.3453v-.3972h-.3453m0-2.4153v2.0374h.3453v-2.0374h-.3453m2.2,.7463l.3396-.0442c-.0371-.234-.1321-.4172-.2849-.5496-.1529-.1324-.3406-.1986-.5631-.1986-.2788,0-.503,.0912-.6724,.2734-.1695,.1823-.2542,.4435-.2542,.7837 0,.22 .0364,.4125 .1093,.5775 .0729,.165 .1839,.2887 .3329,.3712 .149,.0825 .3111,.1237 .4863,.1237 .2213,0 .4022-.0559 .5429-.1678 .1407-.1119 .2309-.2708 .2705-.4768l-.3357-.0518c-.032,.1369-.0886,.2398-.1698,.3089-.0812,.0691-.1794,.1036-.2945,.1036-.1739,0-.3152-.0623-.424-.187-.1087-.1247-.163-.322-.163-.5919 0-.2737 .0524-.4726 .1573-.5966 .1049-.1241 .2417-.1861 .4105-.1861 .1356,0 .2488,.0415 .3396,.1247 .0908,.0831 .1484,.211 .1727,.3837"/>
</g>
<g stroke="#fff" stroke-width=".35">
<path d="m42.657,25.485l3.2168,.6294"/>
<path d="m47.5521,27.0934l6.4335-.7692"/>
</g>
<g stroke="#808080" stroke-width=".13">
<path d="m45,45l.1099-.7696m.1103-.7721l.2207-1.5443m.1103-.7722l.2206-1.5443m.1103-.7722l.2206-1.5443m.1103-.7722l.2206-1.5443m.1104-.7722l.2206-1.5443m.1103-.7721l.2206-1.5444m.1103-.7721l.2206-1.5443m.1103-.7722l.2206-1.5443m.1104-.7722l.2206-1.5443m.1103-.7722l.2206-1.5443m.1103-.7721l.2206-1.5444m.1103-.7721l.2206-1.5443m.1104-.7722l.2206-1.5443m.1103-.7722l.2206-1.5443m.1103-.7722l.2206-1.5443m.1103-.7722l.2207-1.5443m.1103-.7722l.1099-.7696"/>
<path d="m45,45l-1.3128-.3751m-.75-.2143l-1.4999-.4285m-.75-.2143l-1.5-.4286m-.75-.2143l-1.5-.4285m-.75-.2143l-1.4999-.4286m-.75-.2143l-1.5-.4285m-.75-.2143l-1.5-.4286m-.75-.2142l-1.4999-.4286m-.75-.2143l-1.5-.4286m-.75-.2142l-1.5-.4286m-.75-.2143l-1.4999-.4286m-.75-.2142l-1.5-.4286m-.75-.2143l-1.5-.4285m-.75-.2143l-1.4999-.4286m-.75-.2143l-1.5-.4285m-.75-.2143l-1.5-.4286m-.75-.2143l-1.5-.4285m-.75-.2143l-1.3128-.3751"/>
</g>
</g>
</svg>
