<?xml version="1.0" encoding="UTF-8"?>
<!-- 2012-02-26 21:57:18 Generated by QCAD SVG Exporter -->
<svg width="68.9211mm" height="46.9026mm" viewBox="2.04381 -49.3995 68.9211 46.9026" version="1.1" xmlns="http://www.w3.org/2000/svg" style="stroke-linecap:round;stroke-linejoin:round;fill:none" xmlns:sodipodi="http://sodipodi.sourceforge.net/DTD/sodipodi-0.dtd" xmlns:inkscape="http://www.inkscape.org/namespaces/inkscape">
    <sodipodi:namedview inkscape:document-units="mm" unitToSymbol="mm" units="mm"/>
    <g transform="scale(1,-1)">
        <!-- Line -->
        <path d="M5.625,33.75 L5.78901,33.094 M5.97819,32.3372 L6.35654,30.8238 M6.54572,30.0671 L6.92408,28.5537 M7.11326,27.797 L7.49161,26.2836 M7.68079,25.5268 L8.05914,24.0134 M8.24832,23.2567 L8.62668,21.7433 M8.81586,20.9866 L9.19421,19.4732 M9.38339,18.7164 L9.76174,17.203 M9.95092,16.4463 L10.3293,14.9329 M10.5185,14.1762 L10.8968,12.6628 M11.086,11.906 L11.25,11.25 " style="stroke:#808080;stroke-width:0.13;"/>
        <!-- Line -->
        <path d="M11.25,11.25 L12.0196,11.1401 M12.7917,11.0298 L14.336,10.8091 M15.1082,10.6988 L16.6525,10.4782 M17.4247,10.3679 L18.969,10.1473 M19.7412,10.037 L21.2855,9.81636 M22.0577,9.70605 L23.602,9.48543 M24.3741,9.37512 L25.9185,9.15451 M26.6906,9.0442 L28.2349,8.82358 M29.0071,8.71327 L30.5514,8.49265 M31.3236,8.38235 L32.8679,8.16173 M33.6401,8.05142 L35.1844,7.8308 M35.9565,7.72049 L37.5009,7.49988 M38.273,7.38957 L39.8173,7.16895 M40.5895,7.05864 L42.1338,6.83802 M42.906,6.72772 L44.4503,6.5071 M45.2225,6.39679 L46.7668,6.17617 M47.539,6.06586 L49.0833,5.84525 M49.8554,5.73494 L50.625,5.625 " style="stroke:#808080;stroke-width:0.13;"/>
        <!-- Circle -->
        <circle cx="45" cy="45" r="0.84375" style="stroke:#0000ff;stroke-width:0.3;"/>
        <!-- Circle -->
        <circle cx="5.625" cy="33.75" r="0.84375" style="stroke:#0000ff;stroke-width:0.3;"/>
        <!-- Circle -->
        <circle cx="11.25" cy="11.25" r="0.84375" style="stroke:#0000ff;stroke-width:0.3;"/>
        <!-- Circle -->
        <circle cx="50.625" cy="5.625" r="0.84375" style="stroke:#0000ff;stroke-width:0.3;"/>
        <!-- Text: 1 -->
        <path d="M47.1094,46.4005 L46.764,46.4005 L46.764,48.601 C46.6809,48.5217 46.5719,48.4424 46.4369,48.3631 C46.302,48.2838 46.1808,48.2243 46.0734,48.1847 L46.0734,48.5185 C46.2665,48.6093 46.4353,48.7193 46.5799,48.8485 C46.7244,48.9777 46.8267,49.103 46.8868,49.2245 L47.1094,49.2245 L47.1094,46.4005 " style="fill:#000000;fill-rule:evenodd;"/>
        <!-- Text: 2 -->
        <path d="M4.07813,35.623 L4.07813,35.2911 L2.21911,35.2911 C2.21655,35.3743 2.22998,35.4542 2.2594,35.5309 C2.30672,35.6576 2.3825,35.7823 2.48674,35.905 C2.59098,36.0278 2.74158,36.1698 2.93854,36.3309 C3.24422,36.5816 3.45078,36.7802 3.55822,36.9266 C3.66565,37.0731 3.71937,37.2115 3.71937,37.342 C3.71937,37.4788 3.67045,37.5943 3.5726,37.6883 C3.47476,37.7823 3.34718,37.8293 3.18987,37.8293 C3.0236,37.8293 2.89058,37.7794 2.79082,37.6796 C2.69106,37.5799 2.64054,37.4417 2.63926,37.2652 L2.28434,37.3017 C2.30864,37.5664 2.40009,37.7682 2.55868,37.907 C2.71728,38.0457 2.93023,38.1151 3.19754,38.1151 C3.46741,38.1151 3.681,38.0403 3.83831,37.8907 C3.99563,37.741 4.07429,37.5556 4.07429,37.3343 C4.07429,37.2218 4.05127,37.1111 4.00522,37.0024 C3.95918,36.8937 3.88276,36.7792 3.77596,36.659 C3.66917,36.5388 3.49171,36.3738 3.24358,36.164 C3.03639,35.9901 2.90337,35.8721 2.84454,35.8101 C2.78571,35.748 2.7371,35.6857 2.69873,35.623 L4.07813,35.623 " style="fill:#000000;fill-rule:evenodd;"/>
        <!-- Text: 3 -->
        <path d="M8.84575,7.37101 L9.19108,7.41706 C9.23073,7.22137 9.2982,7.08036 9.39348,6.99403 C9.48877,6.9077 9.60483,6.86453 9.74169,6.86453 C9.90412,6.86453 10.0413,6.92081 10.1532,7.03336 C10.2651,7.14591 10.3211,7.28532 10.3211,7.45159 C10.3211,7.61019 10.2693,7.74096 10.1657,7.84392 C10.0621,7.94688 9.93034,7.99836 9.77046,7.99836 C9.70524,7.99836 9.62402,7.98557 9.52682,7.95999 L9.56519,8.26311 C9.58821,8.26055 9.60675,8.25927 9.62082,8.25927 C9.76791,8.25927 9.90028,8.29764 10.0179,8.37438 C10.1356,8.45112 10.1944,8.56943 10.1944,8.7293 C10.1944,8.85592 10.1516,8.9608 10.0659,9.04393 C9.98022,9.12707 9.86959,9.16863 9.73401,9.16863 C9.59972,9.16863 9.48781,9.12643 9.39828,9.04201 C9.30875,8.9576 9.25119,8.83098 9.22561,8.66215 L8.88029,8.72355 C8.92249,8.95504 9.01842,9.13442 9.16806,9.26168 C9.3177,9.38894 9.50379,9.45257 9.72634,9.45257 C9.87982,9.45257 10.0211,9.41964 10.1503,9.35377 C10.2795,9.2879 10.3783,9.19805 10.4467,9.08422 C10.5152,8.97039 10.5494,8.84953 10.5494,8.72163 C10.5494,8.60012 10.5168,8.48949 10.4515,8.38973 C10.3863,8.28997 10.2897,8.21067 10.1618,8.15184 C10.3281,8.11347 10.4573,8.03385 10.5494,7.91299 C10.6415,7.79212 10.6875,7.64088 10.6875,7.45926 C10.6875,7.2137 10.598,7.00554 10.4189,6.8348 C10.2399,6.66405 10.0135,6.57868 9.73977,6.57868 C9.49292,6.57868 9.28796,6.65222 9.12489,6.79931 C8.96182,6.94639 8.86878,7.13696 8.84575,7.37101 " style="fill:#000000;fill-rule:evenodd;"/>
        <!-- Text: 4 -->
        <path d="M53.2748,2.67187 L53.2748,3.34526 L52.0547,3.34526 L52.0547,3.66181 L53.3381,5.48437 L53.6201,5.48437 L53.6201,3.66181 L54,3.66181 L54,3.34526 L53.6201,3.34526 L53.6201,2.67187 L53.2748,2.67187 M53.2748,3.66181 L53.2748,4.92993 L52.3942,3.66181 L53.2748,3.66181 " style="fill:#000000;fill-rule:evenodd;"/>
        <!-- Spline -->
        <path d="M13.125,31.875 L12.6196,31.3423 M12.6196,31.3423 L12.1577,30.7995 M12.1577,30.7995 L11.7392,30.2474 M11.7392,30.2474 L11.3635,29.6869 M11.3635,29.6869 L11.0304,29.1188 M11.0304,29.1188 L10.7396,28.5441 M10.7396,28.5441 L10.4906,27.9635 M10.4906,27.9635 L10.2832,27.3779 M10.2832,27.3779 L10.117,26.7882 M10.117,26.7882 L9.99161,26.1953 M9.99161,26.1953 L9.90675,25.5999 M9.90675,25.5999 L9.86206,25.0031 M9.86206,25.0031 L9.8572,24.4055 M9.8572,24.4055 L9.89182,23.8081 M9.89182,23.8081 L9.96557,23.2117 M9.96557,23.2117 L10.0781,22.6172 M10.0781,22.6172 L10.2291,22.0254 M10.2291,22.0254 L10.4182,21.4373 M10.4182,21.4373 L10.6451,20.8536 M10.6451,20.8536 L10.9094,20.2753 M10.9094,20.2753 L11.2108,19.7031 M11.2108,19.7031 L11.5489,19.138 M11.5489,19.138 L11.9234,18.5807 M11.9234,18.5807 L12.334,18.0322 M12.334,18.0322 L12.7802,17.4934 M12.7802,17.4934 L13.2619,16.965 M13.2619,16.965 L13.7785,16.4479 M13.7785,16.4479 L14.3298,15.943 M14.3298,15.943 L14.9155,15.4512 M14.9155,15.4512 L15.5351,14.9732 M15.5351,14.9732 L16.1884,14.51 M16.1884,14.51 L16.875,14.0625 M16.875,14.0625 L17.5942,13.6314 M17.5942,13.6314 L18.344,13.2177 M18.344,13.2177 L19.1219,12.8222 M19.1219,12.8222 L19.9255,12.4457 M19.9255,12.4457 L20.7525,12.0891 M20.7525,12.0891 L21.6005,11.7533 M21.6005,11.7533 L22.467,11.4391 M22.467,11.4391 L23.3496,11.1475 M23.3496,11.1475 L24.246,10.8791 M24.246,10.8791 L25.1537,10.635 M25.1537,10.635 L26.0703,10.4159 M26.0703,10.4159 L26.9934,10.2228 M26.9934,10.2228 L27.9207,10.0564 M27.9207,10.0564 L28.8496,9.91768 M28.8496,9.91768 L29.7779,9.80744 M29.7779,9.80744 L30.7031,9.72656 M30.7031,9.72656 L31.6228,9.67589 M31.6228,9.67589 L32.5346,9.6563 M32.5346,9.6563 L33.4361,9.66863 M33.4361,9.66863 L34.325,9.71375 M34.325,9.71375 L35.1987,9.79251 M35.1987,9.79251 L36.0548,9.90578 M36.0548,9.90578 L36.8911,10.0544 M36.8911,10.0544 L37.7051,10.2393 M37.7051,10.2393 L38.4943,10.4612 M38.4943,10.4612 L39.2564,10.7211 M39.2564,10.7211 L39.989,11.0197 M39.989,11.0197 L40.6897,11.358 M40.6897,11.358 L41.356,11.7369 M41.356,11.7369 L41.9856,12.1571 M41.9856,12.1571 L42.5761,12.6195 M42.5761,12.6195 L43.125,13.125 M43.125,13.125 L43.6304,13.6738 M43.6304,13.6738 L44.0923,14.2637 M44.0923,14.2637 L44.5108,14.8917 M44.5108,14.8917 L44.8865,15.5548 M44.8865,15.5548 L45.2196,16.2502 M45.2196,16.2502 L45.5104,16.975 M45.5104,16.975 L45.7594,17.7262 M45.7594,17.7262 L45.9668,18.501 M45.9668,18.501 L46.133,19.2963 M46.133,19.2963 L46.2584,20.1093 M46.2584,20.1093 L46.3433,20.9371 M46.3433,20.9371 L46.3879,21.7767 M46.3879,21.7767 L46.3928,22.6253 M46.3928,22.6253 L46.3582,23.4798 M46.3582,23.4798 L46.2844,24.3375 M46.2844,24.3375 L46.1719,25.1953 M46.1719,25.1953 L46.0209,26.0504 M46.0209,26.0504 L45.8318,26.8998 M45.8318,26.8998 L45.6049,27.7406 M45.6049,27.7406 L45.3406,28.5699 M45.3406,28.5699 L45.0392,29.3849 M45.0392,29.3849 L44.7011,30.1824 M44.7011,30.1824 L44.3266,30.9597 M44.3266,30.9597 L43.916,31.7139 M43.916,31.7139 L43.4698,32.4419 M43.4698,32.4419 L42.9881,33.1409 M42.9881,33.1409 L42.4715,33.8081 M42.4715,33.8081 L41.9202,34.4403 M41.9202,34.4403 L41.3345,35.0348 M41.3345,35.0348 L40.7149,35.5886 M40.7149,35.5886 L40.0616,36.0988 M40.0616,36.0988 L39.375,36.5625 M39.375,36.5625 L38.6558,36.9774 M38.6558,36.9774 L37.906,37.3441 M37.906,37.3441 L37.1281,37.6638 M37.1281,37.6638 L36.3245,37.9376 M36.3245,37.9376 L35.4975,38.1668 M35.4975,38.1668 L34.6495,38.3526 M34.6495,38.3526 L33.783,38.4961 M33.783,38.4961 L32.9004,38.5986 M32.9004,38.5986 L32.004,38.6613 M32.004,38.6613 L31.0963,38.6854 M31.0963,38.6854 L30.1797,38.672 M30.1797,38.672 L29.2566,38.6224 M29.2566,38.6224 L28.3293,38.5378 M28.3293,38.5378 L27.4004,38.4194 M27.4004,38.4194 L26.4721,38.2684 M26.4721,38.2684 L25.5469,38.0859 M25.5469,38.0859 L24.6272,37.8733 M24.6272,37.8733 L23.7154,37.6316 M23.7154,37.6316 L22.8139,37.3621 M22.8139,37.3621 L21.925,37.066 M21.925,37.066 L21.0513,36.7445 M21.0513,36.7445 L20.1952,36.3988 M20.1952,36.3988 L19.3589,36.0301 M19.3589,36.0301 L18.5449,35.6396 M18.5449,35.6396 L17.7557,35.2285 M17.7557,35.2285 L16.9936,34.798 M16.9936,34.798 L16.261,34.3494 M16.261,34.3494 L15.5603,33.8837 M15.5603,33.8837 L14.894,33.4022 M14.894,33.4022 L14.2644,32.9061 M14.2644,32.9061 L13.6739,32.3967 M13.6739,32.3967 L13.125,31.875 " style="stroke:#000000;stroke-width:0.3;"/>
        <!-- Spline -->
        <path d="M25.3125,39.375 L24.104,39.0179 M24.104,39.0179 L22.9395,38.6499 M22.9395,38.6499 L21.8188,38.2709 M21.8188,38.2709 L20.7422,37.8809 M20.7422,37.8809 L19.7095,37.4799 M19.7095,37.4799 L18.7207,37.0679 M18.7207,37.0679 L17.7759,36.6449 M17.7759,36.6449 L16.875,36.2109 M16.875,36.2109 L16.0181,35.766 M16.0181,35.766 L15.2051,35.3101 M15.2051,35.3101 L14.436,34.8431 M14.436,34.8431 L13.7109,34.3652 M13.7109,34.3652 L13.0298,33.8763 M13.0298,33.8763 L12.3926,33.3765 M12.3926,33.3765 L11.7993,32.8656 M11.7993,32.8656 L11.25,32.3438 M11.25,32.3438 L10.7446,31.8109 M10.7446,31.8109 L10.2832,31.2671 M10.2832,31.2671 L9.86572,30.7123 M9.86572,30.7123 L9.49219,30.1465 M9.49219,30.1465 L9.1626,29.5697 M9.1626,29.5697 L8.87695,28.9819 M8.87695,28.9819 L8.63525,28.3832 M8.63525,28.3832 L8.4375,27.7734 M8.4375,27.7734 L8.28369,27.1527 M8.28369,27.1527 L8.17383,26.521 M8.17383,26.521 L8.10791,25.8783 M8.10791,25.8783 L8.08594,25.2246 M8.08594,25.2246 L8.10791,24.5599 M8.10791,24.5599 L8.17383,23.8843 M8.17383,23.8843 L8.28369,23.1976 M8.28369,23.1976 L8.4375,22.5 M8.4375,22.5 L8.62976,21.8051 M8.62976,21.8051 L8.85498,21.1267 M8.85498,21.1267 L9.11316,20.4648 M9.11316,20.4648 L9.4043,19.8193 M9.4043,19.8193 L9.72839,19.1904 M9.72839,19.1904 L10.0854,18.5779 M10.0854,18.5779 L10.4755,17.9819 M10.4755,17.9819 L10.8984,17.4023 M10.8984,17.4023 L11.3544,16.8393 M11.3544,16.8393 L11.8433,16.2927 M11.8433,16.2927 L12.3651,15.7626 M12.3651,15.7626 L12.9199,15.249 M12.9199,15.249 L13.5077,14.7519 M13.5077,14.7519 L14.1284,14.2712 M14.1284,14.2712 L14.7821,13.8071 M14.7821,13.8071 L15.4688,13.3594 M15.4688,13.3594 L16.1884,12.9282 M16.1884,12.9282 L16.9409,12.5134 M16.9409,12.5134 L17.7264,12.1152 M17.7264,12.1152 L18.5449,11.7334 M18.5449,11.7334 L19.3964,11.3681 M19.3964,11.3681 L20.2808,11.0193 M20.2808,11.0193 L21.1981,10.687 M21.1981,10.687 L22.1484,10.3711 M22.1484,10.3711 L23.1317,10.0717 M23.1317,10.0717 L24.1479,9.78882 M24.1479,9.78882 L25.1971,9.5224 M25.1971,9.5224 L26.2793,9.27246 M26.2793,9.27246 L27.3944,9.039 M27.3944,9.039 L28.5425,8.82202 M28.5425,8.82202 L29.7235,8.62152 M29.7235,8.62152 L30.9375,8.4375 M30.9375,8.4375 L32.146,8.28369 M32.146,8.28369 L33.3105,8.17383 M33.3105,8.17383 L34.4312,8.10791 M34.4312,8.10791 L35.5078,8.08594 M35.5078,8.08594 L36.5405,8.10791 M36.5405,8.10791 L37.5293,8.17383 M37.5293,8.17383 L38.4741,8.28369 M38.4741,8.28369 L39.375,8.4375 M39.375,8.4375 L40.2319,8.63525 M40.2319,8.63525 L41.0449,8.87695 M41.0449,8.87695 L41.814,9.1626 M41.814,9.1626 L42.5391,9.49219 M42.5391,9.49219 L43.2202,9.86572 M43.2202,9.86572 L43.8574,10.2832 M43.8574,10.2832 L44.4507,10.7446 M44.4507,10.7446 L45,11.25 M45,11.25 L45.5054,11.7993 M45.5054,11.7993 L45.9668,12.3926 M45.9668,12.3926 L46.3843,13.0298 M46.3843,13.0298 L46.7578,13.7109 M46.7578,13.7109 L47.0874,14.436 M47.0874,14.436 L47.373,15.2051 M47.373,15.2051 L47.6147,16.0181 M47.6147,16.0181 L47.8125,16.875 M47.8125,16.875 L47.9663,17.7759 M47.9663,17.7759 L48.0762,18.7207 M48.0762,18.7207 L48.1421,19.7095 M48.1421,19.7095 L48.1641,20.7422 M48.1641,20.7422 L48.1421,21.8188 M48.1421,21.8188 L48.0762,22.9395 M48.0762,22.9395 L47.9663,24.104 M47.9663,24.104 L47.8125,25.3125 M47.8125,25.3125 L47.6202,26.5182 M47.6202,26.5182 L47.395,27.6746 M47.395,27.6746 L47.1368,28.7814 M47.1368,28.7814 L46.8457,29.8389 M46.8457,29.8389 L46.5216,30.8469 M46.5216,30.8469 L46.1646,31.8054 M46.1646,31.8054 L45.7745,32.7145 M45.7745,32.7145 L45.3516,33.5742 M45.3516,33.5742 L44.8956,34.3845 M44.8956,34.3845 L44.4067,35.1453 M44.4067,35.1453 L43.8849,35.8566 M43.8849,35.8566 L43.3301,36.5186 M43.3301,36.5186 L42.7423,37.131 M42.7423,37.131 L42.1216,37.6941 M42.1216,37.6941 L41.4679,38.2077 M41.4679,38.2077 L40.7812,38.6719 M40.7812,38.6719 L40.0616,39.0866 M40.0616,39.0866 L39.3091,39.4519 M39.3091,39.4519 L38.5236,39.7678 M38.5236,39.7678 L37.7051,40.0342 M37.7051,40.0342 L36.8536,40.2512 M36.8536,40.2512 L35.9692,40.4187 M35.9692,40.4187 L35.0519,40.5368 M35.0519,40.5368 L34.1016,40.6055 M34.1016,40.6055 L33.1183,40.6247 M33.1183,40.6247 L32.1021,40.5945 M32.1021,40.5945 L31.0529,40.5148 M31.0529,40.5148 L29.9707,40.3857 M29.9707,40.3857 L28.8556,40.2072 M28.8556,40.2072 L27.7075,39.9792 M27.7075,39.9792 L26.5265,39.7018 M26.5265,39.7018 L25.3125,39.375 " style="stroke:#000000;stroke-width:0.3;"/>
        <!-- Text: cubic -->
        <path d="M34.2145,25.1338 L34.5541,25.0897 C34.517,24.8556 34.422,24.6724 34.2692,24.54 C34.1164,24.4076 33.9287,24.3415 33.7061,24.3415 C33.4273,24.3415 33.2032,24.4326 33.0337,24.6148 C32.8642,24.7971 32.7795,25.0583 32.7795,25.3985 C32.7795,25.6185 32.8159,25.811 32.8888,25.976 C32.9617,26.141 33.0727,26.2647 33.2217,26.3472 C33.3707,26.4297 33.5328,26.471 33.708,26.471 C33.9293,26.471 34.1103,26.415 34.251,26.3031 C34.3917,26.1912 34.4818,26.0323 34.5215,25.8264 L34.1857,25.7746 C34.1538,25.9114 34.0972,26.0144 34.016,26.0834 C33.9347,26.1525 33.8366,26.187 33.7215,26.187 C33.5475,26.187 33.4062,26.1247 33.2975,26 C33.1888,25.8753 33.1344,25.678 33.1344,25.4081 C33.1344,25.1344 33.1868,24.9355 33.2917,24.8115 C33.3966,24.6874 33.5335,24.6254 33.7023,24.6254 C33.8379,24.6254 33.951,24.667 34.0419,24.7501 C34.1327,24.8332 34.1902,24.9611 34.2145,25.1338 M36.1848,24.3875 L36.1848,24.6868 C36.0262,24.4566 35.8107,24.3415 35.5383,24.3415 C35.418,24.3415 35.3058,24.3645 35.2016,24.4105 C35.0973,24.4566 35.02,24.5144 34.9694,24.5841 C34.9189,24.6538 34.8834,24.7392 34.863,24.8403 C34.8489,24.908 34.8419,25.0155 34.8419,25.1626 L34.8419,26.4249 L35.1872,26.4249 L35.1872,25.2949 C35.1872,25.1146 35.1942,24.9931 35.2083,24.9304 C35.23,24.8396 35.2761,24.7683 35.3464,24.7165 C35.4168,24.6647 35.5037,24.6388 35.6073,24.6388 C35.7109,24.6388 35.8081,24.6654 35.8989,24.7184 C35.9898,24.7715 36.054,24.8438 36.0918,24.9352 C36.1295,25.0267 36.1484,25.1594 36.1484,25.3333 L36.1484,26.4249 L36.4937,26.4249 L36.4937,24.3875 L36.1848,24.3875 M37.3529,24.3875 L37.0325,24.3875 L37.0325,27.2 L37.3779,27.2 L37.3779,26.1966 C37.5237,26.3795 37.7098,26.471 37.9361,26.471 C38.0615,26.471 38.1801,26.4457 38.292,26.3952 C38.4039,26.3447 38.496,26.2737 38.5683,26.1822 C38.6406,26.0908 38.6971,25.9805 38.7381,25.8513 C38.779,25.7221 38.7995,25.584 38.7995,25.4369 C38.7995,25.0877 38.7131,24.8179 38.5405,24.6273 C38.3678,24.4367 38.1606,24.3415 37.9189,24.3415 C37.6784,24.3415 37.4898,24.4419 37.3529,24.6427 L37.3529,24.3875 M37.3491,25.4216 C37.3491,25.1773 37.3823,25.0008 37.4489,24.8921 C37.5576,24.7143 37.7047,24.6254 37.8901,24.6254 C38.041,24.6254 38.1715,24.6909 38.2815,24.822 C38.3915,24.9531 38.4465,25.1485 38.4465,25.4081 C38.4465,25.6742 38.3937,25.8705 38.2882,25.9971 C38.1827,26.1237 38.0551,26.187 37.9055,26.187 C37.7545,26.187 37.6241,26.1215 37.5141,25.9904 C37.4041,25.8593 37.3491,25.6697 37.3491,25.4216 M39.2213,26.8029 L39.2213,27.2 L39.5666,27.2 L39.5666,26.8029 L39.2213,26.8029 M39.2213,24.3875 L39.2213,26.4249 L39.5666,26.4249 L39.5666,24.3875 L39.2213,24.3875 M41.4213,25.1338 L41.7608,25.0897 C41.7238,24.8556 41.6288,24.6724 41.4759,24.54 C41.3231,24.4076 41.1354,24.3415 40.9129,24.3415 C40.6341,24.3415 40.4099,24.4326 40.2404,24.6148 C40.071,24.7971 39.9862,25.0583 39.9862,25.3985 C39.9862,25.6185 40.0227,25.811 40.0956,25.976 C40.1685,26.141 40.2795,26.2647 40.4285,26.3472 C40.5775,26.4297 40.7396,26.471 40.9148,26.471 C41.1361,26.471 41.317,26.415 41.4577,26.3031 C41.5984,26.1912 41.6886,26.0323 41.7282,25.8264 L41.3925,25.7746 C41.3605,25.9114 41.3039,26.0144 41.2227,26.0834 C41.1415,26.1525 41.0433,26.187 40.9282,26.187 C40.7543,26.187 40.6129,26.1247 40.5042,26 C40.3955,25.8753 40.3412,25.678 40.3412,25.4081 C40.3412,25.1344 40.3936,24.9355 40.4985,24.8115 C40.6034,24.6874 40.7402,24.6254 40.909,24.6254 C41.0446,24.6254 41.1578,24.667 41.2486,24.7501 C41.3394,24.8332 41.397,24.9611 41.4213,25.1338 " style="fill:#000000;fill-rule:evenodd;"/>
        <!-- Text: quadratic -->
        <path d="M56.2229,24.4862 L56.2229,25.4839 C56.1692,25.4084 56.094,25.3457 55.9975,25.2958 C55.9009,25.246 55.7983,25.221 55.6895,25.221 C55.4478,25.221 55.2397,25.3176 55.0651,25.5107 C54.8905,25.7038 54.8032,25.9686 54.8032,26.305 C54.8032,26.5096 54.8387,26.6931 54.9097,26.8556 C54.9807,27.018 55.0836,27.1411 55.2186,27.2249 C55.3535,27.3087 55.5015,27.3505 55.6627,27.3505 C55.9147,27.3505 56.1129,27.2444 56.2574,27.0321 L56.2574,27.3045 L56.5682,27.3045 L56.5682,24.4862 L56.2229,24.4862 M55.1581,26.2915 C55.1581,26.0293 55.2131,25.8327 55.3231,25.7016 C55.4331,25.5705 55.5648,25.505 55.7183,25.505 C55.8654,25.505 55.992,25.5673 56.0982,25.692 C56.2043,25.8167 56.2574,26.0063 56.2574,26.2608 C56.2574,26.532 56.2015,26.736 56.0896,26.8728 C55.9776,27.0097 55.8462,27.0781 55.6953,27.0781 C55.5457,27.0781 55.4187,27.0145 55.3145,26.8872 C55.2102,26.76 55.1581,26.5614 55.1581,26.2915 M58.4443,25.2671 L58.4443,25.5664 C58.2857,25.3361 58.0702,25.221 57.7977,25.221 C57.6775,25.221 57.5653,25.244 57.461,25.2901 C57.3568,25.3361 57.2794,25.394 57.2289,25.4637 C57.1784,25.5334 57.1429,25.6188 57.1224,25.7198 C57.1084,25.7876 57.1013,25.8951 57.1013,26.0421 L57.1013,27.3045 L57.4467,27.3045 L57.4467,26.1745 C57.4467,25.9942 57.4537,25.8727 57.4678,25.81 C57.4895,25.7192 57.5355,25.6479 57.6059,25.5961 C57.6762,25.5443 57.7632,25.5184 57.8668,25.5184 C57.9704,25.5184 58.0676,25.5449 58.1584,25.598 C58.2492,25.6511 58.3135,25.7233 58.3512,25.8148 C58.3889,25.9062 58.4078,26.0389 58.4078,26.2129 L58.4078,27.3045 L58.7531,27.3045 L58.7531,25.2671 L58.4443,25.2671 M60.6234,25.5184 C60.4955,25.4097 60.3724,25.3329 60.2541,25.2882 C60.1358,25.2434 60.0089,25.221 59.8733,25.221 C59.6495,25.221 59.4775,25.2757 59.3572,25.3851 C59.237,25.4944 59.1769,25.6341 59.1769,25.8042 C59.1769,25.904 59.1996,25.9951 59.245,26.0776 C59.2904,26.1601 59.3499,26.2263 59.4234,26.2762 C59.497,26.3261 59.5798,26.3638 59.6719,26.3894 C59.7397,26.4073 59.842,26.4246 59.9788,26.4412 C60.2576,26.4744 60.4629,26.5141 60.5947,26.5601 C60.5959,26.6075 60.5966,26.6375 60.5966,26.6503 C60.5966,26.791 60.564,26.8901 60.4987,26.9477 C60.4105,27.0257 60.2794,27.0647 60.1054,27.0647 C59.943,27.0647 59.8231,27.0362 59.7457,26.9793 C59.6683,26.9224 59.6111,26.8217 59.574,26.6772 L59.2364,26.7232 C59.2671,26.8677 59.3176,26.9844 59.3879,27.0733 C59.4583,27.1622 59.56,27.2306 59.693,27.2786 C59.826,27.3266 59.9801,27.3505 60.1553,27.3505 C60.3293,27.3505 60.4706,27.3301 60.5793,27.2892 C60.688,27.2482 60.768,27.1967 60.8191,27.1347 C60.8703,27.0727 60.9061,26.9943 60.9266,26.8997 C60.9381,26.8409 60.9438,26.7347 60.9438,26.5812 L60.9438,26.1208 C60.9438,25.7998 60.9512,25.5967 60.9659,25.5117 C60.9806,25.4266 61.0097,25.3451 61.0532,25.2671 L60.6925,25.2671 C60.6567,25.3387 60.6337,25.4225 60.6234,25.5184 M60.5947,26.2896 C60.4693,26.2385 60.2813,26.195 60.0306,26.1592 C59.8887,26.1387 59.7883,26.1157 59.7294,26.0901 C59.6706,26.0645 59.6252,26.0271 59.5932,25.9779 C59.5612,25.9286 59.5452,25.874 59.5452,25.8138 C59.5452,25.7218 59.5801,25.645 59.6498,25.5836 C59.7195,25.5222 59.8215,25.4915 59.9558,25.4915 C60.0888,25.4915 60.2071,25.5206 60.3107,25.5788 C60.4143,25.637 60.4904,25.7166 60.539,25.8177 C60.5761,25.8957 60.5947,26.0108 60.5947,26.163 L60.5947,26.2896 M62.8007,25.2671 L62.8007,25.5241 C62.6715,25.3221 62.4816,25.221 62.2309,25.221 C62.0685,25.221 61.9191,25.2658 61.7829,25.3553 C61.6467,25.4448 61.5412,25.5699 61.4664,25.7304 C61.3916,25.8909 61.3541,26.0754 61.3541,26.2839 C61.3541,26.4872 61.388,26.6717 61.4558,26.8373 C61.5236,27.003 61.6253,27.1299 61.7609,27.2182 C61.8964,27.3064 62.048,27.3505 62.2155,27.3505 C62.3383,27.3505 62.4477,27.3246 62.5436,27.2728 C62.6395,27.221 62.7176,27.1536 62.7777,27.0704 L62.7777,28.0796 L63.1211,28.0796 L63.1211,25.2671 L62.8007,25.2671 M61.7091,26.2839 C61.7091,26.023 61.7641,25.8279 61.8741,25.6987 C61.984,25.5696 62.1139,25.505 62.2635,25.505 C62.4144,25.505 62.5426,25.5667 62.6482,25.6901 C62.7537,25.8135 62.8064,26.0018 62.8064,26.2551 C62.8064,26.5339 62.7527,26.7385 62.6453,26.869 C62.5379,26.9995 62.4055,27.0647 62.2482,27.0647 C62.0947,27.0647 61.9665,27.002 61.8635,26.8767 C61.7605,26.7513 61.7091,26.5537 61.7091,26.2839 M63.6599,25.2671 L63.6599,27.3045 L63.9707,27.3045 L63.9707,26.9956 C64.05,27.1402 64.1233,27.2354 64.1904,27.2815 C64.2575,27.3275 64.3314,27.3505 64.412,27.3505 C64.5284,27.3505 64.6467,27.3135 64.7669,27.2393 L64.648,26.9189 C64.5635,26.9688 64.4791,26.9937 64.3947,26.9937 C64.3193,26.9937 64.2515,26.971 64.1914,26.9256 C64.1312,26.8802 64.0884,26.8172 64.0628,26.7366 C64.0244,26.6138 64.0053,26.4796 64.0053,26.3337 L64.0053,25.2671 L63.6599,25.2671 M66.3015,25.5184 C66.1736,25.4097 66.0505,25.3329 65.9322,25.2882 C65.8139,25.2434 65.687,25.221 65.5514,25.221 C65.3276,25.221 65.1556,25.2757 65.0353,25.3851 C64.9151,25.4944 64.855,25.6341 64.855,25.8042 C64.855,25.904 64.8777,25.9951 64.9231,26.0776 C64.9685,26.1601 65.028,26.2263 65.1015,26.2762 C65.1751,26.3261 65.2579,26.3638 65.35,26.3894 C65.4178,26.4073 65.5201,26.4246 65.6569,26.4412 C65.9357,26.4744 66.141,26.5141 66.2728,26.5601 C66.274,26.6075 66.2747,26.6375 66.2747,26.6503 C66.2747,26.791 66.2421,26.8901 66.1768,26.9477 C66.0886,27.0257 65.9575,27.0647 65.7835,27.0647 C65.6211,27.0647 65.5012,27.0362 65.4238,26.9793 C65.3465,26.9224 65.2892,26.8217 65.2521,26.6772 L64.9145,26.7232 C64.9452,26.8677 64.9957,26.9844 65.066,27.0733 C65.1364,27.1622 65.2381,27.2306 65.3711,27.2786 C65.5041,27.3266 65.6582,27.3505 65.8334,27.3505 C66.0074,27.3505 66.1487,27.3301 66.2574,27.2892 C66.3661,27.2482 66.4461,27.1967 66.4972,27.1347 C66.5484,27.0727 66.5842,26.9943 66.6047,26.8997 C66.6162,26.8409 66.6219,26.7347 66.6219,26.5812 L66.6219,26.1208 C66.6219,25.7998 66.6293,25.5967 66.644,25.5117 C66.6587,25.4266 66.6878,25.3451 66.7313,25.2671 L66.3706,25.2671 C66.3348,25.3387 66.3118,25.4225 66.3015,25.5184 M66.2728,26.2896 C66.1474,26.2385 65.9594,26.195 65.7087,26.1592 C65.5668,26.1387 65.4664,26.1157 65.4075,26.0901 C65.3487,26.0645 65.3033,26.0271 65.2713,25.9779 C65.2393,25.9286 65.2233,25.874 65.2233,25.8138 C65.2233,25.7218 65.2582,25.645 65.3279,25.5836 C65.3976,25.5222 65.4996,25.4915 65.6339,25.4915 C65.7669,25.4915 65.8852,25.5206 65.9888,25.5788 C66.0924,25.637 66.1685,25.7166 66.2171,25.8177 C66.2542,25.8957 66.2728,26.0108 66.2728,26.163 L66.2728,26.2896 M67.9109,25.5759 L67.9608,25.2709 C67.8636,25.2504 67.7766,25.2402 67.6999,25.2402 C67.5745,25.2402 67.4773,25.26 67.4083,25.2997 C67.3392,25.3393 67.2906,25.3915 67.2625,25.456 C67.2343,25.5206 67.2203,25.6565 67.2203,25.8637 L67.2203,27.0359 L66.967,27.0359 L66.967,27.3045 L67.2203,27.3045 L67.2203,27.8091 L67.5637,28.0163 L67.5637,27.3045 L67.9109,27.3045 L67.9109,27.0359 L67.5637,27.0359 L67.5637,25.8445 C67.5637,25.7461 67.5697,25.6827 67.5819,25.6546 C67.594,25.6265 67.6139,25.6041 67.6414,25.5875 C67.6689,25.5708 67.7082,25.5625 67.7594,25.5625 C67.7977,25.5625 67.8482,25.567 67.9109,25.5759 M68.2504,27.6824 L68.2504,28.0796 L68.5957,28.0796 L68.5957,27.6824 L68.2504,27.6824 M68.2504,25.2671 L68.2504,27.3045 L68.5957,27.3045 L68.5957,25.2671 L68.2504,25.2671 M70.4504,26.0134 L70.79,25.9692 C70.7529,25.7352 70.6579,25.552 70.5051,25.4196 C70.3522,25.2872 70.1645,25.221 69.942,25.221 C69.6632,25.221 69.439,25.3122 69.2696,25.4944 C69.1001,25.6767 69.0154,25.9379 69.0154,26.2781 C69.0154,26.4981 69.0518,26.6906 69.1247,26.8556 C69.1976,27.0206 69.3086,27.1443 69.4576,27.2268 C69.6066,27.3093 69.7687,27.3505 69.9439,27.3505 C70.1652,27.3505 70.3461,27.2946 70.4868,27.1827 C70.6275,27.0708 70.7177,26.9119 70.7573,26.7059 L70.4216,26.6541 C70.3896,26.791 70.333,26.8939 70.2518,26.963 C70.1706,27.0321 70.0724,27.0666 69.9573,27.0666 C69.7834,27.0666 69.6421,27.0043 69.5333,26.8796 C69.4246,26.7549 69.3703,26.5576 69.3703,26.2877 C69.3703,26.014 69.4227,25.8151 69.5276,25.6911 C69.6325,25.567 69.7693,25.505 69.9381,25.505 C70.0737,25.505 70.1869,25.5465 70.2777,25.6297 C70.3685,25.7128 70.4261,25.8407 70.4504,26.0134 " style="fill:#000000;fill-rule:evenodd;"/>
        <!-- Line -->
        <path d="M42.657,25.485 L45.8738,26.1144 " style="stroke:#000000;stroke-width:0.35;"/>
        <!-- Line -->
        <path d="M47.5521,27.0934 L53.9856,26.3242 " style="stroke:#000000;stroke-width:0.35;"/>
        <!-- Line -->
        <path d="M45,45 L45.1099,44.2304 M45.2202,43.4583 L45.4409,41.914 M45.5512,41.1418 L45.7718,39.5975 M45.8821,38.8253 L46.1027,37.281 M46.213,36.5088 L46.4336,34.9645 M46.544,34.1923 L46.7646,32.648 M46.8749,31.8759 L47.0955,30.3315 M47.2058,29.5594 L47.4264,28.0151 M47.5367,27.2429 L47.7573,25.6986 M47.8677,24.9264 L48.0883,23.3821 M48.1986,22.6099 L48.4192,21.0656 M48.5295,20.2935 L48.7501,18.7491 M48.8604,17.977 L49.081,16.4327 M49.1914,15.6605 L49.412,14.1162 M49.5223,13.344 L49.7429,11.7997 M49.8532,11.0275 L50.0738,9.48321 M50.1841,8.71105 L50.4048,7.16673 M50.5151,6.39457 L50.625,5.625 " style="stroke:#808080;stroke-width:0.13;"/>
        <!-- Line -->
        <path d="M45,45 L43.6872,44.6249 M42.9372,44.4106 L41.4373,43.9821 M40.6873,43.7678 L39.1873,43.3392 M38.4373,43.1249 L36.9373,42.6964 M36.1873,42.4821 L34.6874,42.0535 M33.9374,41.8392 L32.4374,41.4107 M31.6874,41.1964 L30.1874,40.7678 M29.4374,40.5536 L27.9375,40.125 M27.1875,39.9107 L25.6875,39.4821 M24.9375,39.2679 L23.4375,38.8393 M22.6875,38.625 L21.1876,38.1964 M20.4376,37.9822 L18.9376,37.5536 M18.1876,37.3393 L16.6876,36.9108 M15.9376,36.6965 L14.4377,36.2679 M13.6877,36.0536 L12.1877,35.6251 M11.4377,35.4108 L9.93773,34.9822 M9.18774,34.7679 L7.68777,34.3394 M6.93778,34.1251 L5.625,33.75 " style="stroke:#808080;stroke-width:0.13;"/>
    </g>
</svg>
