<svg width="239.88" xmlns="http://www.w3.org/2000/svg" height="166.19" viewBox="3.34998 -49.3995 67.7 46.9026" style="fill:none;stroke-linecap:round;stroke-linejoin:round"><g transform="scale(1-1)"><g style="fill:#000;fill-rule:evenodd"><path d="m4.945 21.05v.998c-.054-.075-.129-.138-.225-.188-.097-.05-.199-.075-.308-.075-.242 0-.45.096-.625.29-.175.193-.262.458-.262.794 0 .205.035.388.107.551.071.163.174.286.309.369.135.084.283.126.444.126.252 0 .45-.106.595-.319v.273h.311v-2.818h-.345m-1.065 1.805c0-.262.055-.459.165-.59.11-.131.242-.197.395-.197.147 0 .274.062.38.187.106.125.159.314.159.569 0 .271-.056.475-.168.612-.112.137-.243.205-.394.205-.15 0-.277-.064-.381-.191-.104-.127-.156-.326-.156-.596m3.286-1.024v.299c-.159-.23-.374-.345-.646-.345-.12 0-.232.023-.337.069-.104.046-.182.104-.232.174-.051.07-.086.155-.106.256-.014.068-.021.175-.021.322v1.262h.345v-1.13c0-.18.007-.302.021-.364.022-.091.068-.162.138-.214.07-.052.157-.078.261-.078.104 0 .201.027.292.08.091.053.155.125.193.217.038.091.057.224.057.398v1.092h.345v-2.038h-.309m2.179.251c-.128-.109-.251-.185-.369-.23-.118-.045-.245-.067-.381-.067-.224 0-.396.055-.516.164-.12.109-.18.249-.18.419 0 .1.023.191.068.273.045.082.105.149.178.198.073.05.156.088.248.113.068.018.17.035.307.052.279.033.484.073.616.119.001.047.002.077.002.09 0 .141-.033.24-.098.297-.088.078-.219.117-.393.117-.162 0-.282-.028-.36-.085-.077-.057-.135-.158-.172-.302l-.338.046c.031.145.081.261.152.35.07.089.172.157.305.205.133.048.287.072.462.072.174 0 .315-.02.424-.061.109-.041.189-.092.24-.154.051-.062.087-.14.107-.235.011-.059.017-.165.017-.319v-.46c0-.321.007-.524.022-.609.015-.085.044-.167.087-.245h-.361c-.036.072-.059.155-.069.251m-.029.771c-.125-.051-.313-.095-.564-.131-.142-.02-.242-.044-.301-.069-.059-.026-.104-.063-.136-.112-.032-.049-.048-.104-.048-.164 0-.092.035-.169.105-.23.07-.061.172-.092.306-.092.133 0 .251.029.355.087.104.058.18.138.228.239.037.078.056.193.056.345v.127m2.206-1.023v.257c-.129-.202-.319-.303-.57-.303-.162 0-.312.045-.448.134-.136.09-.242.215-.317.375-.075.161-.112.345-.112.553 0 .203.034.388.102.553.068.166.169.293.305.381.136.088.287.132.455.132.123 0 .232-.026.328-.078.096-.052.174-.119.234-.202v1.01h.343v-2.813h-.32m-1.092 1.017c0-.261.055-.456.165-.585.11-.129.24-.194.389-.194.151 0 .279.062.385.185.106.123.158.312.158.565 0 .279-.054.483-.161.614-.107.13-.24.196-.397.196-.153 0-.282-.063-.385-.188-.103-.125-.155-.323-.155-.593m1.951-1.017v2.038h.311v-.309c.079.145.152.24.22.286.067.046.141.069.222.069.116 0 .235-.037.355-.111l-.119-.32c-.084.05-.169.075-.253.075-.075 0-.143-.023-.203-.068-.06-.045-.103-.108-.129-.189-.038-.123-.058-.257-.058-.403v-1.067h-.345m2.642.251c-.128-.109-.251-.185-.369-.23-.118-.045-.245-.067-.381-.067-.224 0-.396.055-.516.164-.12.109-.18.249-.18.419 0 .1.023.191.068.273.045.082.105.149.178.198.073.05.156.088.248.113.068.018.17.035.307.052.279.033.484.073.616.119.001.047.002.077.002.09 0 .141-.033.24-.098.297-.088.078-.219.117-.393.117-.162 0-.282-.028-.36-.085-.077-.057-.135-.158-.172-.302l-.338.046c.031.145.081.261.152.35.07.089.172.157.305.205.133.048.287.072.462.072.174 0 .315-.02.424-.061.109-.041.189-.092.24-.154.051-.062.087-.14.107-.235.011-.059.017-.165.017-.319v-.46c0-.321.007-.524.022-.609.015-.085.044-.167.087-.245h-.361c-.036.072-.059.155-.069.251m-.029.771c-.125-.051-.313-.095-.564-.131-.142-.02-.242-.044-.301-.069-.059-.026-.104-.063-.136-.112-.032-.049-.048-.104-.048-.164 0-.092.035-.169.105-.23.07-.061.172-.092.306-.092.133 0 .251.029.355.087.104.058.18.138.228.239.037.078.056.193.056.345v.127m1.638-.714l.05-.305c-.097-.02-.184-.031-.261-.031-.125 0-.223.02-.292.059-.069.04-.118.092-.146.156-.028.065-.042.201-.042.408v1.172h-.253v.269h.253v.505l.343.207v-.712h.347v-.269h-.347v-1.191c0-.099.006-.162.018-.19.012-.028.032-.051.059-.067.027-.017.067-.025.118-.025.038 0 .089.004.152.013m.34 2.107v.397h.345v-.397h-.345m0-2.415v2.038h.345v-2.038h-.345m2.2.746l.34-.044c-.037-.234-.132-.417-.285-.55-.153-.132-.34-.198-.563-.198-.279 0-.503.091-.672.273-.169.182-.254.444-.254.784 0 .22.037.412.109.577.073.165.184.289.333.371.149.082.311.124.486.124.221 0 .402-.056.543-.168.141-.112.231-.271.27-.477l-.336-.052c-.032.137-.089.24-.17.309-.081.069-.179.104-.294.104-.174 0-.315-.062-.424-.187-.109-.125-.163-.322-.163-.592 0-.274.052-.473.157-.597.105-.124.242-.186.41-.186.136 0 .249.042.34.125.091.083.148.211.173.384"/><path d="m43.1 23.445l.34-.044c-.037-.234-.132-.417-.285-.55-.153-.132-.341-.198-.563-.198-.279 0-.503.091-.672.273-.169.182-.254.444-.254.784 0 .22.036.413.109.578.073.165.184.289.333.371.149.082.311.124.486.124.221 0 .402-.056.543-.168.141-.112.231-.271.27-.477l-.336-.052c-.032.137-.089.24-.17.309-.081.069-.179.104-.294.104-.174 0-.315-.062-.424-.187-.109-.125-.163-.322-.163-.592 0-.274.052-.473.157-.597.105-.124.242-.186.41-.186.136 0 .249.042.34.125.091.083.148.211.173.384m1.97-.746v.299c-.159-.23-.374-.345-.647-.345-.12 0-.232.023-.337.069-.104.046-.182.104-.232.174-.05.07-.086.155-.106.256-.014.068-.021.175-.021.322v1.262h.345v-1.13c0-.18.007-.302.021-.364.022-.091.068-.162.138-.214.07-.052.157-.078.261-.078.104 0 .201.027.292.08.091.053.155.125.193.217.038.091.057.224.057.398v1.092h.345v-2.037h-.309m1.168 0h-.32v2.813h.345v-1c.146.183.332.274.558.274.125 0 .244-.025.356-.076.112-.05.204-.122.276-.213.072-.091.129-.202.17-.331.041-.129.061-.267.061-.414 0-.349-.086-.619-.259-.81-.173-.191-.38-.286-.622-.286-.24 0-.429.1-.566.301v-.255m-.004 1.034c0-.244.033-.421.1-.529.109-.178.256-.267.441-.267.151 0 .281.066.391.197.11.131.165.326.165.586 0 .266-.053.462-.158.589-.106.127-.233.19-.383.19-.151 0-.281-.066-.391-.197-.11-.131-.165-.321-.165-.569m1.872 1.381v.397h.345v-.397h-.345m0-2.415v2.037h.345v-2.037h-.345m2.2.746l.34-.044c-.037-.234-.132-.417-.285-.55-.153-.132-.34-.198-.563-.198-.279 0-.503.091-.672.273-.169.182-.254.444-.254.784 0 .22.036.413.109.578.073.165.184.289.333.371.149.082.311.124.486.124.221 0 .402-.056.543-.168.141-.112.231-.271.27-.477l-.336-.052c-.032.137-.089.24-.17.309-.081.069-.179.104-.294.104-.174 0-.315-.062-.424-.187-.109-.125-.163-.322-.163-.592 0-.274.053-.473.157-.597.105-.124.242-.186.411-.186.136 0 .249.042.34.125.091.083.148.211.173.384"/></g><g style="stroke:#000;stroke-width:.35"><path d="m20.745 23.265l4.32.54"/><path d="m35.15 24.705l5.49-.54"/></g><g style="stroke:#808080;stroke-width:.13"><path d="m61.875 45l-1.313-.375m-.75-.214l-1.5-.428m-.75-.214l-1.5-.429m-.75-.214l-1.5-.428m-.75-.214l-1.5-.429m-.75-.214l-1.5-.428m-.75-.214l-1.5-.429m-.75-.214l-1.5-.429m-.75-.214l-1.5-.429m-.75-.214l-1.5-.429m-.75-.214l-1.5-.429m-.75-.214l-1.5-.429m-.75-.214l-1.5-.428m-.75-.214l-1.5-.429m-.75-.214l-1.5-.428m-.75-.214l-1.5-.429m-.75-.214l-1.5-.428m-.75-.214l-1.313-.375"/><path d="m22.5 33.75l.164-.656m.189-.757l.378-1.513m.189-.757l.378-1.513m.189-.757l.378-1.513m.189-.757l.378-1.513m.189-.757l.378-1.513m.189-.757l.378-1.513m.189-.757l.378-1.513m.189-.757l.378-1.513m.189-.757l.378-1.513m.189-.757l.164-.656"/></g><circle cx="28.13" cy="11.25" r=".844" style="stroke:#00f;stroke-width:.3"/><path d="m28.13 11.25l.77-.11m.772-.11l1.544-.221m.772-.11l1.544-.221m.772-.11l1.544-.221m.772-.11l1.544-.221m.772-.11l1.544-.221m.772-.11l1.544-.221m.772-.11l1.544-.221m.772-.11l1.544-.221m.772-.11l1.544-.221m.772-.11l1.544-.221m.772-.11l1.544-.221m.772-.11l1.544-.221m.772-.11l1.544-.221m.772-.11l1.544-.221m.772-.11l1.544-.221m.772-.11l1.544-.221m.772-.11l.77-.11" style="stroke:#808080;stroke-width:.13"/><g style="stroke:#00f;stroke-width:.3"><circle cx="67.5" cy="5.625" r=".844"/><circle cx="61.875" cy="45" r=".844"/><circle cx="22.5" cy="33.75" r=".844"/></g><g style="fill:#000;fill-rule:evenodd"><path d="m63.984 46.4h-.345v2.2c-.083-.079-.192-.159-.327-.238-.135-.079-.256-.139-.364-.178v.334c.193.091.362.201.507.33.145.129.247.255.307.376h.223v-2.824"/><path d="m20.953 35.623v-.332h-1.859c-.003.083.011.163.04.24.047.127.123.251.227.374.104.123.255.265.452.426.306.251.512.449.62.596.108.147.161.285.161.415 0 .137-.049.252-.147.346-.098.094-.225.141-.383.141-.166 0-.299-.05-.399-.15-.1-.1-.15-.238-.151-.414l-.355.036c.024.265.116.467.274.605.159.139.372.208.639.208.27 0 .483-.075.641-.224.157-.15.236-.335.236-.556 0-.112-.023-.223-.069-.332-.046-.109-.122-.223-.229-.343-.107-.12-.284-.285-.532-.495-.207-.174-.34-.292-.399-.354-.059-.062-.107-.124-.146-.187h1.379"/><path d="m25.721 7.371l.345.046c.04-.196.107-.337.202-.423.095-.086.211-.13.348-.13.162 0 .3.056.412.169.112.112.168.252.168.418 0 .159-.052.289-.155.392-.104.103-.235.154-.395.154-.065 0-.146-.013-.244-.038l.038.303c.023-.003.042-.004.056-.004.147 0 .279.038.397.115.118.077.177.195.177.355 0 .127-.043.232-.128.315-.086.083-.196.125-.332.125-.134 0-.246-.042-.336-.127-.09-.084-.147-.211-.173-.38l-.345.061c.042.232.138.411.288.538.15.127.336.191.558.191.154 0 .295-.033.424-.099.129-.066.228-.156.296-.27.069-.114.103-.235.103-.363 0-.121-.033-.232-.098-.332-.065-.1-.162-.179-.29-.238.166-.038.296-.118.388-.239.092-.121.138-.272.138-.454 0-.246-.09-.454-.269-.625-.179-.171-.405-.256-.679-.256-.247 0-.452.074-.615.221-.163.147-.256.338-.279.572"/><path d="m70.15 2.672v.673h-1.22v.317l1.283 1.823h.282v-1.823h.38v-.317h-.38v-.673h-.345m0 .99v1.268l-.881-1.268h.881"/></g><g style="stroke:#000;stroke-width:.3"><path d="m61.875 45l-1.22-.352-1.2-.352-1.179-.352-1.158-.352-1.138-.352-1.117-.352-1.097-.352-1.076-.352-1.055-.352-1.035-.352-1.014-.352-.994-.352-.973-.352-.952-.352-.932-.352-.911-.352-.891-.352-.87-.352-.849-.352-.829-.352-.808-.352-.788-.352-.767-.352-.746-.352-.726-.352-.705-.352-.685-.352-.664-.352-.643-.352-.623-.352-.602-.352-.582-.352-.561-.352-.54-.352-.52-.352-.499-.352-.479-.352-.458-.352-.437-.352-.417-.352-.396-.352-.375-.352-.355-.352-.334-.352-.314-.352-.293-.352-.273-.352-.252-.352-.231-.352-.211-.352-.19-.352-.17-.352-.149-.352-.128-.352-.108-.352-.087-.352-.067-.352-.046-.352-.025-.352-.005-.352.016-.352.036-.352.057-.352.078-.352.097-.35.115-.347.133-.345.15-.342.168-.339.186-.336.204-.334.222-.331.24-.328.257-.326.275-.323.293-.32.311-.317.329-.314.347-.312.365-.309.383-.306.4-.303.418-.301.436-.298.454-.295.472-.293.489-.29.508-.287.525-.284.543-.281.561-.279.579-.276.597-.273.615-.271.632-.268.65-.265.668-.262.686-.26.704-.257.722-.254.739-.251.757-.248.775-.246.793-.243.811-.24.829-.238.847-.235.864-.232.882-.229.9-.227.918-.224.936-.221.954-.218.972-.216.989-.213 1.01-.21 1.025-.207 1.043-.205 1.061-.202 1.079-.199 1.097-.196 1.114-.194 1.132-.191 1.15-.188 1.168-.185 1.186-.183 1.204-.18 1.222-.177"/><path d="m61.875 45l-.915-.266-.898-.27-.882-.274-.865-.278-.849-.281-.833-.285-.816-.289-.8-.292-.784-.296-.768-.299-.752-.303-.736-.306-.719-.309-.703-.312-.687-.315-.671-.318-.655-.321-.639-.323-.624-.326-.608-.329-.592-.331-.576-.334-.56-.336-.544-.338-.529-.34-.513-.343-.497-.345-.482-.346-.466-.348-.451-.35-.435-.352-.42-.353-.404-.355-.389-.356-.373-.358-.358-.359-.343-.36-.328-.362-.312-.363-.297-.364-.282-.364-.267-.365-.252-.366-.236-.367-.221-.367-.206-.368-.191-.368-.176-.369-.161-.369-.147-.369-.132-.369-.117-.369-.102-.369-.087-.369-.072-.369-.058-.368-.043-.368-.028-.367-.014-.367v-.366l.015-.366.03-.365.044-.364.059-.363.073-.362.087-.361.102-.36.116-.358.13-.357.145-.356.159-.354.173-.352.187-.351.201-.349.216-.347.23-.345.244-.343.258-.341.272-.339.286-.337.299-.335.313-.332.327-.33.341-.327.355-.325.368-.322.382-.319.396-.316.41-.313.423-.31.437-.307.45-.304.464-.3.477-.297.491-.294.504-.29.517-.287.531-.283.544-.279.557-.275.571-.271.584-.267.597-.263.61-.259.624-.255.637-.251.65-.246.663-.242.676-.237.689-.232.702-.228.715-.223.727-.218.74-.213.753-.208.766-.203.779-.198.791-.192.804-.187.817-.181.829-.176.842-.17.854-.165.867-.159.879-.153.892-.147.904-.141.917-.135"/></g></g></svg>