<?xml version="1.0" encoding="UTF-8"?>
<!-- 2012-02-26 21:57:01 Generated by QCAD SVG Exporter -->
<svg width="67.7mm" height="46.9026mm" viewBox="3.34998 -49.3995 67.7 46.9026" version="1.1" xmlns="http://www.w3.org/2000/svg" style="stroke-linecap:round;stroke-linejoin:round;fill:none" xmlns:sodipodi="http://sodipodi.sourceforge.net/DTD/sodipodi-0.dtd" xmlns:inkscape="http://www.inkscape.org/namespaces/inkscape">
    <sodipodi:namedview inkscape:document-units="mm" unitToSymbol="mm" units="mm"/>
    <g transform="scale(1,-1)">
        <!-- Text: quadratic -->
        <path d="M4.94466,21.0549 L4.94466,22.0525 C4.89094,21.9771 4.8158,21.9144 4.71923,21.8645 C4.62267,21.8146 4.52003,21.7897 4.41132,21.7897 C4.16959,21.7897 3.96143,21.8862 3.78685,22.0794 C3.61227,22.2725 3.52498,22.5373 3.52498,22.8736 C3.52498,23.0783 3.56047,23.2618 3.63145,23.4242 C3.70244,23.5867 3.8054,23.7098 3.94033,23.7935 C4.07526,23.8773 4.22331,23.9192 4.38446,23.9192 C4.63642,23.9192 4.83466,23.813 4.97919,23.6007 L4.97919,23.8732 L5.28998,23.8732 L5.28998,21.0549 L4.94466,21.0549 M3.8799,22.8602 C3.8799,22.598 3.93489,22.4014 4.04489,22.2703 C4.15488,22.1392 4.28662,22.0736 4.4401,22.0736 C4.58718,22.0736 4.7138,22.136 4.81996,22.2607 C4.92611,22.3854 4.97919,22.575 4.97919,22.8295 C4.97919,23.1006 4.92323,23.3046 4.81132,23.4415 C4.69941,23.5783 4.56799,23.6468 4.41707,23.6468 C4.26743,23.6468 4.14049,23.5831 4.03625,23.4559 C3.93202,23.3286 3.8799,23.1301 3.8799,22.8602 M7.16603,21.8357 L7.16603,22.135 C7.00744,21.9048 6.79193,21.7897 6.5195,21.7897 C6.39928,21.7897 6.28705,21.8127 6.18281,21.8587 C6.07857,21.9048 6.00119,21.9627 5.95067,22.0324 C5.90015,22.1021 5.86466,22.1874 5.8442,22.2885 C5.83013,22.3563 5.82309,22.4637 5.82309,22.6108 L5.82309,23.8732 L6.16842,23.8732 L6.16842,22.7432 C6.16842,22.5628 6.17546,22.4413 6.18952,22.3787 C6.21127,22.2878 6.25731,22.2165 6.32765,22.1647 C6.398,22.1129 6.48497,22.087 6.58857,22.087 C6.69217,22.087 6.78937,22.1136 6.88018,22.1667 C6.97099,22.2197 7.03526,22.292 7.07299,22.3835 C7.11072,22.4749 7.12958,22.6076 7.12958,22.7815 L7.12958,23.8732 L7.47491,23.8732 L7.47491,21.8357 L7.16603,21.8357 M9.3452,22.087 C9.2173,21.9783 9.0942,21.9016 8.97589,21.8568 C8.85759,21.8121 8.73065,21.7897 8.59507,21.7897 C8.37125,21.7897 8.19923,21.8444 8.079,21.9537 C7.95878,22.0631 7.89866,22.2028 7.89866,22.3729 C7.89866,22.4727 7.92137,22.5638 7.96677,22.6463 C8.01217,22.7288 8.07165,22.795 8.14519,22.8448 C8.21873,22.8947 8.30155,22.9325 8.39363,22.958 C8.46142,22.9759 8.56374,22.9932 8.70059,23.0098 C8.97941,23.0431 9.18469,23.0827 9.31643,23.1288 C9.3177,23.1761 9.31834,23.2062 9.31834,23.219 C9.31834,23.3596 9.28573,23.4588 9.2205,23.5163 C9.13225,23.5943 9.00115,23.6333 8.82721,23.6333 C8.66478,23.6333 8.54487,23.6049 8.4675,23.548 C8.39012,23.4911 8.33288,23.3903 8.29579,23.2458 L7.95814,23.2919 C7.98883,23.4364 8.03935,23.5531 8.1097,23.642 C8.18004,23.7309 8.28172,23.7993 8.41474,23.8473 C8.54775,23.8952 8.70187,23.9192 8.87709,23.9192 C9.05103,23.9192 9.19236,23.8987 9.30108,23.8578 C9.40979,23.8169 9.48973,23.7654 9.54089,23.7034 C9.59205,23.6413 9.62786,23.563 9.64832,23.4684 C9.65983,23.4095 9.66559,23.3034 9.66559,23.1499 L9.66559,22.6895 C9.66559,22.3684 9.67294,22.1654 9.68765,22.0803 C9.70236,21.9953 9.73146,21.9137 9.77494,21.8357 L9.41427,21.8357 C9.37846,21.9073 9.35543,21.9911 9.3452,22.087 M9.31643,22.8583 C9.19108,22.8071 9.00307,22.7636 8.75239,22.7278 C8.61042,22.7074 8.51002,22.6843 8.45119,22.6588 C8.39235,22.6332 8.34695,22.5958 8.31498,22.5465 C8.283,22.4973 8.26701,22.4426 8.26701,22.3825 C8.26701,22.2904 8.30187,22.2137 8.37157,22.1523 C8.44128,22.0909 8.54328,22.0602 8.67757,22.0602 C8.81058,22.0602 8.92889,22.0893 9.03249,22.1475 C9.13609,22.2057 9.21219,22.2853 9.26079,22.3863 C9.29788,22.4643 9.31643,22.5795 9.31643,22.7317 L9.31643,22.8583 M11.5225,21.8357 L11.5225,22.0928 C11.3933,21.8907 11.2033,21.7897 10.9527,21.7897 C10.7902,21.7897 10.6409,21.8344 10.5047,21.924 C10.3685,22.0135 10.263,22.1385 10.1881,22.299 C10.1133,22.4596 10.0759,22.644 10.0759,22.8525 C10.0759,23.0559 10.1098,23.2404 10.1776,23.406 C10.2454,23.5716 10.3471,23.6986 10.4826,23.7868 C10.6182,23.8751 10.7698,23.9192 10.9373,23.9192 C11.0601,23.9192 11.1695,23.8933 11.2654,23.8415 C11.3613,23.7897 11.4393,23.7222 11.4994,23.6391 L11.4994,24.6482 L11.8428,24.6482 L11.8428,21.8357 L11.5225,21.8357 M10.4308,22.8525 C10.4308,22.5916 10.4858,22.3966 10.5958,22.2674 C10.7058,22.1382 10.8356,22.0736 10.9853,22.0736 C11.1362,22.0736 11.2644,22.1353 11.3699,22.2588 C11.4755,22.3822 11.5282,22.5705 11.5282,22.8237 C11.5282,23.1026 11.4745,23.3072 11.3671,23.4377 C11.2596,23.5681 11.1272,23.6333 10.9699,23.6333 C10.8165,23.6333 10.6882,23.5707 10.5853,23.4453 C10.4823,23.32 10.4308,23.1224 10.4308,22.8525 M12.3817,21.8357 L12.3817,23.8732 L12.6925,23.8732 L12.6925,23.5643 C12.7718,23.7088 12.845,23.8041 12.9122,23.8501 C12.9793,23.8962 13.0532,23.9192 13.1338,23.9192 C13.2501,23.9192 13.3684,23.8821 13.4887,23.8079 L13.3697,23.4875 C13.2853,23.5374 13.2009,23.5624 13.1165,23.5624 C13.041,23.5624 12.9732,23.5397 12.9131,23.4943 C12.853,23.4489 12.8102,23.3859 12.7846,23.3053 C12.7462,23.1825 12.727,23.0482 12.727,22.9024 L12.727,21.8357 L12.3817,21.8357 M15.0233,22.087 C14.8954,21.9783 14.7723,21.9016 14.654,21.8568 C14.5357,21.8121 14.4088,21.7897 14.2732,21.7897 C14.0494,21.7897 13.8773,21.8444 13.7571,21.9537 C13.6369,22.0631 13.5768,22.2028 13.5768,22.3729 C13.5768,22.4727 13.5995,22.5638 13.6449,22.6463 C13.6903,22.7288 13.7498,22.795 13.8233,22.8448 C13.8968,22.8947 13.9797,22.9325 14.0717,22.958 C14.1395,22.9759 14.2418,22.9932 14.3787,23.0098 C14.6575,23.0431 14.8628,23.0827 14.9945,23.1288 C14.9958,23.1761 14.9964,23.2062 14.9964,23.219 C14.9964,23.3596 14.9638,23.4588 14.8986,23.5163 C14.8104,23.5943 14.6793,23.6333 14.5053,23.6333 C14.3429,23.6333 14.223,23.6049 14.1456,23.548 C14.0682,23.4911 14.011,23.3903 13.9739,23.2458 L13.6362,23.2919 C13.6669,23.4364 13.7175,23.5531 13.7878,23.642 C13.8581,23.7309 13.9598,23.7993 14.0928,23.8473 C14.2259,23.8952 14.38,23.9192 14.5552,23.9192 C14.7291,23.9192 14.8705,23.8987 14.9792,23.8578 C15.0879,23.8169 15.1678,23.7654 15.219,23.7034 C15.2702,23.6413 15.306,23.563 15.3264,23.4684 C15.3379,23.4095 15.3437,23.3034 15.3437,23.1499 L15.3437,22.6895 C15.3437,22.3684 15.351,22.1654 15.3658,22.0803 C15.3805,21.9953 15.4096,21.9137 15.453,21.8357 L15.0924,21.8357 C15.0566,21.9073 15.0335,21.9911 15.0233,22.087 M14.9945,22.8583 C14.8692,22.8071 14.6812,22.7636 14.4305,22.7278 C14.2885,22.7074 14.1881,22.6843 14.1293,22.6588 C14.0705,22.6332 14.0251,22.5958 13.9931,22.5465 C13.9611,22.4973 13.9451,22.4426 13.9451,22.3825 C13.9451,22.2904 13.98,22.2137 14.0497,22.1523 C14.1194,22.0909 14.2214,22.0602 14.3557,22.0602 C14.4887,22.0602 14.607,22.0893 14.7106,22.1475 C14.8142,22.2057 14.8903,22.2853 14.9389,22.3863 C14.976,22.4643 14.9945,22.5795 14.9945,22.7317 L14.9945,22.8583 M16.6327,22.1446 L16.6826,21.8396 C16.5854,21.8191 16.4984,21.8089 16.4217,21.8089 C16.2963,21.8089 16.1991,21.8287 16.13,21.8683 C16.061,21.908 16.0124,21.9601 15.9842,22.0247 C15.9561,22.0893 15.942,22.2252 15.942,22.4324 L15.942,23.6046 L15.6888,23.6046 L15.6888,23.8732 L15.942,23.8732 L15.942,24.3777 L16.2854,24.5849 L16.2854,23.8732 L16.6327,23.8732 L16.6327,23.6046 L16.2854,23.6046 L16.2854,22.4132 C16.2854,22.3147 16.2915,22.2514 16.3037,22.2233 C16.3158,22.1951 16.3356,22.1727 16.3631,22.1561 C16.3906,22.1395 16.43,22.1312 16.4811,22.1312 C16.5195,22.1312 16.57,22.1356 16.6327,22.1446 M16.9722,24.2511 L16.9722,24.6482 L17.3175,24.6482 L17.3175,24.2511 L16.9722,24.2511 M16.9722,21.8357 L16.9722,23.8732 L17.3175,23.8732 L17.3175,21.8357 L16.9722,21.8357 M19.1721,22.582 L19.5117,22.5379 C19.4746,22.3038 19.3797,22.1206 19.2268,21.9882 C19.074,21.8559 18.8863,21.7897 18.6637,21.7897 C18.3849,21.7897 18.1608,21.8808 17.9913,22.0631 C17.8219,22.2453 17.7371,22.5066 17.7371,22.8468 C17.7371,23.0668 17.7736,23.2592 17.8465,23.4242 C17.9194,23.5892 18.0303,23.713 18.1793,23.7955 C18.3283,23.878 18.4904,23.9192 18.6657,23.9192 C18.8869,23.9192 19.0679,23.8632 19.2086,23.7513 C19.3493,23.6394 19.4395,23.4805 19.4791,23.2746 L19.1434,23.2228 C19.1114,23.3596 19.0548,23.4626 18.9736,23.5317 C18.8924,23.6007 18.7942,23.6353 18.6791,23.6353 C18.5052,23.6353 18.3638,23.5729 18.2551,23.4482 C18.1464,23.3235 18.092,23.1262 18.092,22.8564 C18.092,22.5827 18.1445,22.3838 18.2494,22.2597 C18.3542,22.1356 18.4911,22.0736 18.6599,22.0736 C18.7955,22.0736 18.9087,22.1152 18.9995,22.1983 C19.0903,22.2815 19.1478,22.4094 19.1721,22.582 " style="fill:#000000;fill-rule:evenodd;"/>
        <!-- Text: cubic -->
        <path d="M43.0952,23.4451 L43.4348,23.401 C43.3977,23.1669 43.3027,22.9837 43.1499,22.8513 C42.997,22.7189 42.8093,22.6528 42.5868,22.6528 C42.308,22.6528 42.0838,22.7439 41.9144,22.9261 C41.7449,23.1084 41.6602,23.3696 41.6602,23.7098 C41.6602,23.9298 41.6966,24.1223 41.7695,24.2873 C41.8424,24.4523 41.9534,24.576 42.1024,24.6585 C42.2514,24.741 42.4135,24.7823 42.5887,24.7823 C42.81,24.7823 42.9909,24.7263 43.1316,24.6144 C43.2723,24.5025 43.3625,24.3436 43.4021,24.1377 L43.0664,24.0859 C43.0344,24.2227 42.9778,24.3257 42.8966,24.3947 C42.8154,24.4638 42.7172,24.4983 42.6021,24.4983 C42.4282,24.4983 42.2869,24.436 42.1781,24.3113 C42.0694,24.1866 42.0151,23.9893 42.0151,23.7194 C42.0151,23.4457 42.0675,23.2469 42.1724,23.1228 C42.2773,22.9987 42.4141,22.9367 42.5829,22.9367 C42.7185,22.9367 42.8317,22.9783 42.9225,23.0614 C43.0133,23.1445 43.0709,23.2724 43.0952,23.4451 M45.0655,22.6988 L45.0655,22.9981 C44.9069,22.7679 44.6914,22.6528 44.4189,22.6528 C44.2987,22.6528 44.1865,22.6758 44.0822,22.7218 C43.978,22.7679 43.9006,22.8257 43.8501,22.8954 C43.7996,22.9652 43.7641,23.0505 43.7436,23.1516 C43.7296,23.2194 43.7225,23.3268 43.7225,23.4739 L43.7225,24.7362 L44.0679,24.7362 L44.0679,23.6062 C44.0679,23.4259 44.0749,23.3044 44.089,23.2417 C44.1107,23.1509 44.1567,23.0796 44.2271,23.0278 C44.2974,22.976 44.3844,22.9501 44.488,22.9501 C44.5916,22.9501 44.6888,22.9767 44.7796,23.0297 C44.8704,23.0828 44.9347,23.1551 44.9724,23.2465 C45.0102,23.338 45.029,23.4707 45.029,23.6446 L45.029,24.7362 L45.3743,24.7362 L45.3743,22.6988 L45.0655,22.6988 M46.2336,22.6988 L45.9132,22.6988 L45.9132,25.5113 L46.2585,25.5113 L46.2585,24.5079 C46.4043,24.6908 46.5904,24.7823 46.8168,24.7823 C46.9422,24.7823 47.0608,24.757 47.1727,24.7065 C47.2846,24.656 47.3767,24.585 47.449,24.4935 C47.5212,24.4021 47.5778,24.2918 47.6187,24.1626 C47.6597,24.0334 47.6801,23.8953 47.6801,23.7482 C47.6801,23.3991 47.5938,23.1292 47.4211,22.9386 C47.2485,22.748 47.0413,22.6528 46.7995,22.6528 C46.5591,22.6528 46.3704,22.7532 46.2336,22.954 L46.2336,22.6988 M46.2298,23.7329 C46.2298,23.4886 46.263,23.3121 46.3295,23.2034 C46.4382,23.0256 46.5853,22.9367 46.7708,22.9367 C46.9217,22.9367 47.0521,23.0022 47.1621,23.1333 C47.2721,23.2644 47.3271,23.4598 47.3271,23.7194 C47.3271,23.9855 47.2744,24.1818 47.1689,24.3084 C47.0633,24.435 46.9358,24.4983 46.7861,24.4983 C46.6352,24.4983 46.5047,24.4328 46.3947,24.3017 C46.2848,24.1706 46.2298,23.981 46.2298,23.7329 M48.102,25.1142 L48.102,25.5113 L48.4473,25.5113 L48.4473,25.1142 L48.102,25.1142 M48.102,22.6988 L48.102,24.7362 L48.4473,24.7362 L48.4473,22.6988 L48.102,22.6988 M50.3019,23.4451 L50.6415,23.401 C50.6044,23.1669 50.5095,22.9837 50.3566,22.8513 C50.2038,22.7189 50.0161,22.6528 49.7935,22.6528 C49.5147,22.6528 49.2906,22.7439 49.1211,22.9261 C48.9516,23.1084 48.8669,23.3696 48.8669,23.7098 C48.8669,23.9298 48.9034,24.1223 48.9763,24.2873 C49.0492,24.4523 49.1601,24.576 49.3091,24.6585 C49.4581,24.741 49.6202,24.7823 49.7955,24.7823 C50.0167,24.7823 50.1977,24.7263 50.3384,24.6144 C50.4791,24.5025 50.5692,24.3436 50.6089,24.1377 L50.2732,24.0859 C50.2412,24.2227 50.1846,24.3257 50.1034,24.3947 C50.0222,24.4638 49.924,24.4983 49.8089,24.4983 C49.6349,24.4983 49.4936,24.436 49.3849,24.3113 C49.2762,24.1866 49.2218,23.9893 49.2218,23.7194 C49.2218,23.4457 49.2743,23.2469 49.3791,23.1228 C49.484,22.9987 49.6209,22.9367 49.7897,22.9367 C49.9253,22.9367 50.0385,22.9783 50.1293,23.0614 C50.2201,23.1445 50.2776,23.2724 50.3019,23.4451 " style="fill:#000000;fill-rule:evenodd;"/>
        <!-- Line -->
        <path d="M20.745,23.265 L25.065,23.805 " style="stroke:#000000;stroke-width:0.35;"/>
        <!-- Line -->
        <path d="M35.145,24.705 L40.635,24.165 " style="stroke:#000000;stroke-width:0.35;"/>
        <!-- Line -->
        <path d="M61.875,45 L60.5622,44.6249 M59.8122,44.4106 L58.3123,43.9821 M57.5623,43.7678 L56.0623,43.3392 M55.3123,43.1249 L53.8123,42.6964 M53.0623,42.4821 L51.5624,42.0535 M50.8124,41.8392 L49.3124,41.4107 M48.5624,41.1964 L47.0624,40.7678 M46.3124,40.5536 L44.8125,40.125 M44.0625,39.9107 L42.5625,39.4821 M41.8125,39.2679 L40.3125,38.8393 M39.5625,38.625 L38.0626,38.1964 M37.3126,37.9822 L35.8126,37.5536 M35.0626,37.3393 L33.5626,36.9108 M32.8126,36.6965 L31.3127,36.2679 M30.5627,36.0536 L29.0627,35.6251 M28.3127,35.4108 L26.8127,34.9822 M26.0627,34.7679 L24.5628,34.3394 M23.8128,34.1251 L22.5,33.75 " style="stroke:#808080;stroke-width:0.13;"/>
        <!-- Line -->
        <path d="M22.5,33.75 L22.664,33.094 M22.8532,32.3372 L23.2315,30.8238 M23.4207,30.0671 L23.7991,28.5537 M23.9883,27.797 L24.3666,26.2836 M24.5558,25.5268 L24.9341,24.0134 M25.1233,23.2567 L25.5017,21.7433 M25.6909,20.9866 L26.0692,19.4732 M26.2584,18.7164 L26.6367,17.203 M26.8259,16.4463 L27.2043,14.9329 M27.3935,14.1762 L27.7718,12.6628 M27.961,11.906 L28.125,11.25 " style="stroke:#808080;stroke-width:0.13;"/>
        <!-- Circle -->
        <circle cx="28.125" cy="11.25" r="0.84375" style="stroke:#0000ff;stroke-width:0.3;"/>
        <!-- Line -->
        <path d="M28.125,11.25 L28.8946,11.1401 M29.6667,11.0298 L31.211,10.8091 M31.9832,10.6988 L33.5275,10.4782 M34.2997,10.3679 L35.844,10.1473 M36.6162,10.037 L38.1605,9.81636 M38.9327,9.70605 L40.477,9.48543 M41.2491,9.37512 L42.7935,9.15451 M43.5656,9.0442 L45.1099,8.82358 M45.8821,8.71327 L47.4264,8.49265 M48.1986,8.38235 L49.7429,8.16173 M50.5151,8.05142 L52.0594,7.8308 M52.8315,7.72049 L54.3759,7.49988 M55.148,7.38957 L56.6923,7.16895 M57.4645,7.05864 L59.0088,6.83802 M59.781,6.72772 L61.3253,6.5071 M62.0975,6.39679 L63.6418,6.17617 M64.414,6.06586 L65.9583,5.84525 M66.7304,5.73494 L67.5,5.625 " style="stroke:#808080;stroke-width:0.13;"/>
        <!-- Circle -->
        <circle cx="67.5" cy="5.625" r="0.84375" style="stroke:#0000ff;stroke-width:0.3;"/>
        <!-- Circle -->
        <circle cx="61.875" cy="45" r="0.84375" style="stroke:#0000ff;stroke-width:0.3;"/>
        <!-- Circle -->
        <circle cx="22.5" cy="33.75" r="0.84375" style="stroke:#0000ff;stroke-width:0.3;"/>
        <!-- Text: 1 -->
        <path d="M63.9844,46.4005 L63.639,46.4005 L63.639,48.601 C63.5559,48.5217 63.4469,48.4424 63.3119,48.3631 C63.177,48.2838 63.0558,48.2243 62.9484,48.1847 L62.9484,48.5185 C63.1415,48.6093 63.3103,48.7193 63.4549,48.8485 C63.5994,48.9777 63.7017,49.103 63.7618,49.2245 L63.9844,49.2245 L63.9844,46.4005 " style="fill:#000000;fill-rule:evenodd;"/>
        <!-- Text: 2 -->
        <path d="M20.9531,35.623 L20.9531,35.2911 L19.0941,35.2911 C19.0916,35.3743 19.105,35.4542 19.1344,35.5309 C19.1817,35.6576 19.2575,35.7823 19.3617,35.905 C19.466,36.0278 19.6166,36.1698 19.8135,36.3309 C20.1192,36.5816 20.3258,36.7802 20.4332,36.9266 C20.5407,37.0731 20.5944,37.2115 20.5944,37.342 C20.5944,37.4788 20.5454,37.5943 20.4476,37.6883 C20.3498,37.7823 20.2222,37.8293 20.0649,37.8293 C19.8986,37.8293 19.7656,37.7794 19.6658,37.6796 C19.5661,37.5799 19.5155,37.4417 19.5143,37.2652 L19.1593,37.3017 C19.1836,37.5664 19.2751,37.7682 19.4337,37.907 C19.5923,38.0457 19.8052,38.1151 20.0725,38.1151 C20.3424,38.1151 20.556,38.0403 20.7133,37.8907 C20.8706,37.741 20.9493,37.5556 20.9493,37.3343 C20.9493,37.2218 20.9263,37.1111 20.8802,37.0024 C20.8342,36.8937 20.7578,36.7792 20.651,36.659 C20.5442,36.5388 20.3667,36.3738 20.1186,36.164 C19.9114,35.9901 19.7784,35.8721 19.7195,35.8101 C19.6607,35.748 19.6121,35.6857 19.5737,35.623 L20.9531,35.623 " style="fill:#000000;fill-rule:evenodd;"/>
        <!-- Text: 3 -->
        <path d="M25.7208,7.37101 L26.0661,7.41706 C26.1057,7.22137 26.1732,7.08036 26.2685,6.99403 C26.3638,6.9077 26.4798,6.86453 26.6167,6.86453 C26.7791,6.86453 26.9163,6.92081 27.0282,7.03336 C27.1401,7.14591 27.1961,7.28532 27.1961,7.45159 C27.1961,7.61019 27.1443,7.74096 27.0407,7.84392 C26.9371,7.94688 26.8053,7.99836 26.6455,7.99836 C26.5802,7.99836 26.499,7.98557 26.4018,7.95999 L26.4402,8.26311 C26.4632,8.26055 26.4818,8.25927 26.4958,8.25927 C26.6429,8.25927 26.7753,8.29764 26.8929,8.37438 C27.0106,8.45112 27.0694,8.56943 27.0694,8.7293 C27.0694,8.85592 27.0266,8.9608 26.9409,9.04393 C26.8552,9.12707 26.7446,9.16863 26.609,9.16863 C26.4747,9.16863 26.3628,9.12643 26.2733,9.04201 C26.1837,8.9576 26.1262,8.83098 26.1006,8.66215 L25.7553,8.72355 C25.7975,8.95504 25.8934,9.13442 26.0431,9.26168 C26.1927,9.38894 26.3788,9.45257 26.6013,9.45257 C26.7548,9.45257 26.8961,9.41964 27.0253,9.35377 C27.1545,9.2879 27.2533,9.19805 27.3217,9.08422 C27.3902,8.97039 27.4244,8.84953 27.4244,8.72163 C27.4244,8.60012 27.3918,8.48949 27.3265,8.38973 C27.2613,8.28997 27.1647,8.21067 27.0368,8.15184 C27.2031,8.11347 27.3323,8.03385 27.4244,7.91299 C27.5165,7.79212 27.5625,7.64088 27.5625,7.45926 C27.5625,7.2137 27.473,7.00554 27.2939,6.8348 C27.1149,6.66405 26.8885,6.57868 26.6148,6.57868 C26.3679,6.57868 26.163,6.65222 25.9999,6.79931 C25.8368,6.94639 25.7438,7.13696 25.7208,7.37101 " style="fill:#000000;fill-rule:evenodd;"/>
        <!-- Text: 4 -->
        <path d="M70.1498,2.67187 L70.1498,3.34526 L68.9297,3.34526 L68.9297,3.66181 L70.2131,5.48437 L70.4951,5.48437 L70.4951,3.66181 L70.875,3.66181 L70.875,3.34526 L70.4951,3.34526 L70.4951,2.67187 L70.1498,2.67187 M70.1498,3.66181 L70.1498,4.92993 L69.2692,3.66181 L70.1498,3.66181 " style="fill:#000000;fill-rule:evenodd;"/>
        <!-- Spline -->
        <path d="M61.875,45 L60.6548,44.6484 M60.6548,44.6484 L59.4553,44.2969 M59.4553,44.2969 L58.2763,43.9453 M58.2763,43.9453 L57.1179,43.5938 M57.1179,43.5938 L55.9801,43.2422 M55.9801,43.2422 L54.863,42.8906 M54.863,42.8906 L53.7664,42.5391 M53.7664,42.5391 L52.6904,42.1875 M52.6904,42.1875 L51.6351,41.8359 M51.6351,41.8359 L50.6003,41.4844 M50.6003,41.4844 L49.5861,41.1328 M49.5861,41.1328 L48.5925,40.7812 M48.5925,40.7812 L47.6196,40.4297 M47.6196,40.4297 L46.6672,40.0781 M46.6672,40.0781 L45.7354,39.7266 M45.7354,39.7266 L44.8242,39.375 M44.8242,39.375 L43.9336,39.0234 M43.9336,39.0234 L43.0637,38.6719 M43.0637,38.6719 L42.2143,38.3203 M42.2143,38.3203 L41.3855,37.9688 M41.3855,37.9688 L40.5773,37.6172 M40.5773,37.6172 L39.7897,37.2656 M39.7897,37.2656 L39.0228,36.9141 M39.0228,36.9141 L38.2764,36.5625 M38.2764,36.5625 L37.5506,36.2109 M37.5506,36.2109 L36.8454,35.8594 M36.8454,35.8594 L36.1608,35.5078 M36.1608,35.5078 L35.4968,35.1562 M35.4968,35.1562 L34.8534,34.8047 M34.8534,34.8047 L34.2307,34.4531 M34.2307,34.4531 L33.6285,34.1016 M33.6285,34.1016 L33.0469,33.75 M33.0469,33.75 L32.4859,33.3984 M32.4859,33.3984 L31.9455,33.0469 M31.9455,33.0469 L31.4257,32.6953 M31.4257,32.6953 L30.9265,32.3438 M30.9265,32.3438 L30.4479,31.9922 M30.4479,31.9922 L29.9899,31.6406 M29.9899,31.6406 L29.5525,31.2891 M29.5525,31.2891 L29.1357,30.9375 M29.1357,30.9375 L28.7395,30.5859 M28.7395,30.5859 L28.364,30.2344 M28.364,30.2344 L28.009,29.8828 M28.009,29.8828 L27.6746,29.5312 M27.6746,29.5312 L27.3608,29.1797 M27.3608,29.1797 L27.0676,28.8281 M27.0676,28.8281 L26.795,28.4766 M26.795,28.4766 L26.543,28.125 M26.543,28.125 L26.3116,27.7734 M26.3116,27.7734 L26.1008,27.4219 M26.1008,27.4219 L25.9106,27.0703 M25.9106,27.0703 L25.741,26.7188 M25.741,26.7188 L25.592,26.3672 M25.592,26.3672 L25.4636,26.0156 M25.4636,26.0156 L25.3558,25.6641 M25.3558,25.6641 L25.2686,25.3125 M25.2686,25.3125 L25.202,24.9609 M25.202,24.9609 L25.1559,24.6094 M25.1559,24.6094 L25.1305,24.2578 M25.1305,24.2578 L25.1257,23.9062 M25.1257,23.9062 L25.1415,23.5547 M25.1415,23.5547 L25.1779,23.2031 M25.1779,23.2031 L25.2349,22.8516 M25.2349,22.8516 L25.3125,22.5 M25.3125,22.5 L25.4093,22.1498 M25.4093,22.1498 L25.524,21.8024 M25.524,21.8024 L25.6565,21.4577 M25.6565,21.4577 L25.8069,21.1157 M25.8069,21.1157 L25.9751,20.7765 M25.9751,20.7765 L26.1612,20.4401 M26.1612,20.4401 L26.3651,20.1064 M26.3651,20.1064 L26.5869,19.7754 M26.5869,19.7754 L26.8266,19.4472 M26.8266,19.4472 L27.084,19.1217 M27.084,19.1217 L27.3594,18.799 M27.3594,18.799 L27.6526,18.479 M27.6526,18.479 L27.9636,18.1618 M27.9636,18.1618 L28.2925,17.8473 M28.2925,17.8473 L28.6393,17.5356 M28.6393,17.5356 L29.0039,17.2266 M29.0039,17.2266 L29.3864,16.9203 M29.3864,16.9203 L29.7867,16.6168 M29.7867,16.6168 L30.2048,16.3161 M30.2048,16.3161 L30.6409,16.0181 M30.6409,16.0181 L31.0947,15.7228 M31.0947,15.7228 L31.5665,15.4303 M31.5665,15.4303 L32.056,15.1405 M32.056,15.1405 L32.5635,14.8535 M32.5635,14.8535 L33.0888,14.5692 M33.0888,14.5692 L33.6319,14.2877 M33.6319,14.2877 L34.1929,14.0089 M34.1929,14.0089 L34.7717,13.7329 M34.7717,13.7329 L35.3684,13.4596 M35.3684,13.4596 L35.983,13.1891 M35.983,13.1891 L36.6154,12.9213 M36.6154,12.9213 L37.2656,12.6562 M37.2656,12.6562 L37.9337,12.394 M37.9337,12.394 L38.6197,12.1344 M38.6197,12.1344 L39.3235,11.8776 M39.3235,11.8776 L40.0452,11.6235 M40.0452,11.6235 L40.7847,11.3722 M40.7847,11.3722 L41.5421,11.1237 M41.5421,11.1237 L42.3173,10.8778 M42.3173,10.8778 L43.1104,10.6348 M43.1104,10.6348 L43.9213,10.3944 M43.9213,10.3944 L44.7501,10.1569 M44.7501,10.1569 L45.5967,9.92203 M45.5967,9.92203 L46.4612,9.68994 M46.4612,9.68994 L47.3435,9.4606 M47.3435,9.4606 L48.2437,9.23401 M48.2437,9.23401 L49.1618,9.01016 M49.1618,9.01016 L50.0977,8.78906 M50.0977,8.78906 L51.0514,8.57071 M51.0514,8.57071 L52.023,8.3551 M52.023,8.3551 L53.0125,8.14224 M53.0125,8.14224 L54.0198,7.93213 M54.0198,7.93213 L55.0449,7.72476 M55.0449,7.72476 L56.088,7.52014 M56.088,7.52014 L57.1488,7.31827 M57.1488,7.31827 L58.2275,7.11914 M58.2275,7.11914 L59.3241,6.92276 M59.3241,6.92276 L60.4385,6.72913 M60.4385,6.72913 L61.5708,6.53824 M61.5708,6.53824 L62.7209,6.3501 M62.7209,6.3501 L63.8889,6.1647 M63.8889,6.1647 L65.0748,5.98206 M65.0748,5.98206 L66.2785,5.80215 M66.2785,5.80215 L67.5,5.625 " style="stroke:#000000;stroke-width:0.3;"/>
        <!-- Spline -->
        <path d="M61.875,45 L60.9604,44.7343 M60.9604,44.7343 L60.0622,44.4645 M60.0622,44.4645 L59.1805,44.1908 M59.1805,44.1908 L58.3151,43.9132 M58.3151,43.9132 L57.4661,43.6318 M57.4661,43.6318 L56.6334,43.3467 M56.6334,43.3467 L55.8169,43.058 M55.8169,43.058 L55.0168,42.7657 M55.0168,42.7657 L54.2328,42.4699 M54.2328,42.4699 L53.4651,42.1707 M53.4651,42.1707 L52.7135,41.8682 M52.7135,41.8682 L51.978,41.5625 M51.978,41.5625 L51.2587,41.2536 M51.2587,41.2536 L50.5553,40.9416 M50.5553,40.9416 L49.8681,40.6267 M49.8681,40.6267 L49.1968,40.3088 M49.1968,40.3088 L48.5415,39.9881 M48.5415,39.9881 L47.9021,39.6647 M47.9021,39.6647 L47.2786,39.3386 M47.2786,39.3386 L46.671,39.0099 M46.671,39.0099 L46.0792,38.6787 M46.0792,38.6787 L45.5032,38.345 M45.5032,38.345 L44.943,38.009 M44.943,38.009 L44.3985,37.6707 M44.3985,37.6707 L43.8697,37.3303 M43.8697,37.3303 L43.3566,36.9877 M43.3566,36.9877 L42.8592,36.6431 M42.8592,36.6431 L42.3774,36.2966 M42.3774,36.2966 L41.9111,35.9482 M41.9111,35.9482 L41.4604,35.598 M41.4604,35.598 L41.0252,35.2461 M41.0252,35.2461 L40.6055,34.8926 M40.6055,34.8926 L40.2012,34.5375 M40.2012,34.5375 L39.8124,34.181 M39.8124,34.181 L39.4389,33.8231 M39.4389,33.8231 L39.0808,33.4638 M39.0808,33.4638 L38.738,33.1034 M38.738,33.1034 L38.4105,32.7418 M38.4105,32.7418 L38.0982,32.3792 M38.0982,32.3792 L37.8012,32.0155 M37.8012,32.0155 L37.5194,31.651 M37.5194,31.651 L37.2527,31.2857 M37.2527,31.2857 L37.0012,30.9196 M37.0012,30.9196 L36.7647,30.5528 M36.7647,30.5528 L36.5433,30.1855 M36.5433,30.1855 L36.337,29.8176 M36.337,29.8176 L36.1456,29.4494 M36.1456,29.4494 L35.9692,29.0808 M35.9692,29.0808 L35.8078,28.712 M35.8078,28.712 L35.6612,28.3429 M35.6612,28.3429 L35.5296,27.9738 M35.5296,27.9738 L35.4127,27.6047 M35.4127,27.6047 L35.3107,27.2356 M35.3107,27.2356 L35.2234,26.8667 M35.2234,26.8667 L35.1509,26.498 M35.1509,26.498 L35.0931,26.1296 M35.0931,26.1296 L35.0499,25.7616 M35.0499,25.7616 L35.0215,25.3941 M35.0215,25.3941 L35.0076,25.0271 M35.0076,25.0271 L35.0083,24.6607 M35.0083,24.6607 L35.0235,24.295 M35.0235,24.295 L35.0533,23.9302 M35.0533,23.9302 L35.0975,23.5662 M35.0975,23.5662 L35.1562,23.2031 M35.1562,23.2031 L35.2294,22.8411 M35.2294,22.8411 L35.3169,22.4802 M35.3169,22.4802 L35.4187,22.1205 M35.4187,22.1205 L35.5349,21.762 M35.5349,21.762 L35.6654,21.4049 M35.6654,21.4049 L35.8102,21.0493 M35.8102,21.0493 L35.9691,20.6951 M35.9691,20.6951 L36.1423,20.3426 M36.1423,20.3426 L36.3296,19.9917 M36.3296,19.9917 L36.531,19.6425 M36.531,19.6425 L36.7466,19.2953 M36.7466,19.2953 L36.9762,18.9499 M36.9762,18.9499 L37.2199,18.6065 M37.2199,18.6065 L37.4775,18.2652 M37.4775,18.2652 L37.7491,17.926 M37.7491,17.926 L38.0347,17.5891 M38.0347,17.5891 L38.3341,17.2545 M38.3341,17.2545 L38.6475,16.9223 M38.6475,16.9223 L38.9746,16.5926 M38.9746,16.5926 L39.3156,16.2654 M39.3156,16.2654 L39.6704,15.9409 M39.6704,15.9409 L40.0389,15.6191 M40.0389,15.6191 L40.4211,15.3001 M40.4211,15.3001 L40.817,14.984 M40.817,14.984 L41.2265,14.6708 M41.2265,14.6708 L41.6496,14.3607 M41.6496,14.3607 L42.0864,14.0537 M42.0864,14.0537 L42.5367,13.7499 M42.5367,13.7499 L43.0005,13.4494 M43.0005,13.4494 L43.4777,13.1522 M43.4777,13.1522 L43.9685,12.8585 M43.9685,12.8585 L44.4727,12.5684 M44.4727,12.5684 L44.9902,12.2818 M44.9902,12.2818 L45.5211,11.9989 M45.5211,11.9989 L46.0654,11.7198 M46.0654,11.7198 L46.6229,11.4445 M46.6229,11.4445 L47.1937,11.1731 M47.1937,11.1731 L47.7777,10.9058 M47.7777,10.9058 L48.3749,10.6425 M48.3749,10.6425 L48.9853,10.3835 M48.9853,10.3835 L49.6088,10.1286 M49.6088,10.1286 L50.2454,9.8781 M50.2454,9.8781 L50.8951,9.632 M50.8951,9.632 L51.5578,9.39039 M51.5578,9.39039 L52.2335,9.15335 M52.2335,9.15335 L52.9222,8.92096 M52.9222,8.92096 L53.6238,8.6933 M53.6238,8.6933 L54.3384,8.47046 M54.3384,8.47046 L55.0658,8.25251 M55.0658,8.25251 L55.806,8.03952 M55.806,8.03952 L56.5591,7.8316 M56.5591,7.8316 L57.3249,7.6288 M57.3249,7.6288 L58.1035,7.43122 M58.1035,7.43122 L58.8948,7.23894 M58.8948,7.23894 L59.6988,7.05203 M59.6988,7.05203 L60.5154,6.87057 M60.5154,6.87057 L61.3447,6.69466 M61.3447,6.69466 L62.1865,6.52436 M62.1865,6.52436 L63.0409,6.35975 M63.0409,6.35975 L63.9078,6.20092 M63.9078,6.20092 L64.7872,6.04795 M64.7872,6.04795 L65.6791,5.90092 M65.6791,5.90092 L66.5833,5.75991 M66.5833,5.75991 L67.5,5.625 " style="stroke:#000000;stroke-width:0.3;"/>
    </g>
</svg>
