<svg width="239.8819" fill="none" xmlns="http://www.w3.org/2000/svg" height="166.1903" viewBox="3.34998 -49.3995 67.7 46.9026" stroke-linejoin="round" stroke-linecap="round">
<g transform="scale(1 -1)">
<g fill="#000" fill-rule="evenodd">
<path d="m4.9447,21.0549v.9976c-.0537-.0754-.1289-.1381-.2254-.188-.0966-.0499-.1992-.0748-.3079-.0748-.2417,0-.4499,.0965-.6245,.2897-.1746,.1931-.2619,.4579-.2619,.7942 0,.2047 .0355,.3882 .1065,.5506 .071,.1625 .174,.2856 .3089,.3693 .1349,.0838 .283,.1257 .4441,.1257 .252,0 .4502-.1062 .5947-.3185v.2725h.3108v-2.8183h-.3453m-1.0648,1.8053c0-.2622 .055-.4588 .165-.5899 .11-.1311 .2417-.1967 .3952-.1967 .1471,0 .2737,.0624 .3799,.1871 .1062,.1247 .1592,.3143 .1592,.5688 0,.2711-.056,.4751-.1679,.612-.1119,.1368-.2433,.2053-.3943,.2053-.1496,0-.2766-.0637-.3808-.1909-.1042-.1273-.1563-.3258-.1563-.5957m3.2861-1.0245v.2993c-.1586-.2302-.3741-.3453-.6465-.3453-.1202,0-.2325,.023-.3367,.069-.1042,.0461-.1816,.104-.2321,.1737-.0505,.0697-.086,.155-.1065,.2561-.0141,.0678-.0211,.1752-.0211,.3223v1.2624h.3453v-1.13c0-.1804 .007-.3019 .0211-.3645 .0217-.0909 .0678-.1622 .1381-.214 .0703-.0518 .1573-.0777 .2609-.0777 .1036,0 .2008,.0266 .2916,.0797 .0908,.053 .1551,.1253 .1928,.2168 .0377,.0914 .0566,.2241 .0566,.398v1.0917h.3453v-2.0375h-.3089m2.1792,.2513c-.1279-.1087-.251-.1854-.3693-.2302-.1183-.0447-.2452-.0671-.3808-.0671-.2238,0-.3958,.0547-.5161,.164-.1202,.1094-.1803,.2491-.1803,.4192 0,.0998 .0227,.1909 .0681,.2734 .0454,.0825 .1049,.1487 .1784,.1985 .0735,.0499 .1564,.0877 .2484,.1132 .0678,.0179 .1701,.0352 .307,.0518 .2788,.0333 .4841,.0729 .6158,.119 .0013,.0473 .0019,.0774 .0019,.0902 0,.1406-.0326,.2398-.0978,.2973-.0882,.078-.2193,.117-.3933,.117-.1624,0-.2823-.0284-.3597-.0853-.0774-.0569-.1346-.1577-.1717-.3022l-.3377,.0461c.0307,.1445 .0812,.2612 .1516,.3501 .0703,.0889 .172,.1573 .305,.2053 .133,.0479 .2871,.0719 .4624,.0719 .1739,0 .3153-.0205 .424-.0614 .1087-.0409 .1886-.0924 .2398-.1544 .0512-.0621 .087-.1404 .1074-.235 .0115-.0589 .0173-.165 .0173-.3185v-.4604c0-.3211 .0074-.5241 .0221-.6092 .0147-.085 .0438-.1666 .0873-.2446h-.3607c-.0358,.0716-.0588,.1554-.0691,.2513m-.0288,.7713c-.1254-.0512-.3134-.0947-.564-.1305-.142-.0204-.2424-.0435-.3012-.069-.0588-.0256-.1042-.063-.1362-.1123-.032-.0492-.048-.1039-.048-.164 0-.0921 .0349-.1688 .1046-.2302 .0697-.0614 .1717-.0921 .306-.0921 .133,0 .2513,.0291 .3549,.0873 .1036,.0582 .1797,.1378 .2283,.2388 .0371,.078 .0556,.1932 .0556,.3454v.1266m2.2061-1.0226v.2571c-.1292-.2021-.3192-.3031-.5698-.3031-.1625,0-.3118,.0447-.448,.1343-.1362,.0895-.2417,.2145-.3166,.375-.0748,.1606-.1122,.345-.1122,.5535 0,.2034 .0339,.3879 .1017,.5535 .0678,.1656 .1695,.2926 .305,.3808 .1356,.0883 .2872,.1324 .4547,.1324 .1228,0 .2322-.0259 .3281-.0777 .0959-.0518 .1739-.1193 .234-.2024v1.0091h.3434v-2.8125h-.3203m-1.0917,1.0168c0-.2609 .055-.4559 .165-.5851 .11-.1292 .2398-.1938 .3895-.1938 .1509,0 .2791,.0617 .3846,.1852 .1056,.1234 .1583,.3117 .1583,.5649 0,.2789-.0537,.4835-.1611,.614-.1075,.1304-.2399,.1956-.3972,.1956-.1534,0-.2817-.0626-.3846-.188-.103-.1253-.1545-.3229-.1545-.5928m1.9509-1.0168v2.0375h.3108v-.3089c.0793,.1445 .1525,.2398 .2197,.2858 .0671,.0461 .141,.0691 .2216,.0691 .1163,0 .2346-.0371 .3549-.1113l-.119-.3204c-.0844,.0499-.1688,.0749-.2532,.0749-.0755,0-.1433-.0227-.2034-.0681-.0601-.0454-.1029-.1084-.1285-.189-.0384-.1228-.0576-.2571-.0576-.4029v-1.0667h-.3453m2.6416,.2513c-.1279-.1087-.251-.1854-.3693-.2302-.1183-.0447-.2452-.0671-.3808-.0671-.2238,0-.3959,.0547-.5161,.164-.1202,.1094-.1803,.2491-.1803,.4192 0,.0998 .0227,.1909 .0681,.2734 .0454,.0825 .1049,.1487 .1784,.1985 .0735,.0499 .1564,.0877 .2484,.1132 .0678,.0179 .1701,.0352 .307,.0518 .2788,.0333 .4841,.0729 .6158,.119 .0013,.0473 .0019,.0774 .0019,.0902 0,.1406-.0326,.2398-.0978,.2973-.0882,.078-.2193,.117-.3933,.117-.1624,0-.2823-.0284-.3597-.0853-.0774-.0569-.1346-.1577-.1717-.3022l-.3377,.0461c.0307,.1445 .0813,.2612 .1516,.3501 .0703,.0889 .172,.1573 .305,.2053 .1331,.0479 .2872,.0719 .4624,.0719 .1739,0 .3153-.0205 .424-.0614 .1087-.0409 .1886-.0924 .2398-.1544 .0512-.0621 .087-.1404 .1074-.235 .0115-.0589 .0173-.165 .0173-.3185v-.4604c0-.3211 .0073-.5241 .0221-.6092 .0147-.085 .0438-.1666 .0872-.2446h-.3606c-.0358,.0716-.0589,.1554-.0691,.2513m-.0288,.7713c-.1253-.0512-.3133-.0947-.564-.1305-.142-.0204-.2424-.0435-.3012-.069-.0588-.0256-.1042-.063-.1362-.1123-.032-.0492-.048-.1039-.048-.164 0-.0921 .0349-.1688 .1046-.2302 .0697-.0614 .1717-.0921 .306-.0921 .133,0 .2513,.0291 .3549,.0873 .1036,.0582 .1797,.1378 .2283,.2388 .0371,.078 .0556,.1932 .0556,.3454v.1266m1.6382-.7137l.0499-.305c-.0972-.0205-.1842-.0307-.2609-.0307-.1254,0-.2226,.0198-.2917,.0594-.069,.0397-.1176,.0918-.1458,.1564-.0281,.0646-.0422,.2005-.0422,.4077v1.1722h-.2532v.2686h.2532v.5045l.3434,.2072v-.7117h.3473v-.2686h-.3473v-1.1914c0-.0985 .0061-.1618 .0183-.1899 .0121-.0282 .0319-.0506 .0594-.0672 .0275-.0166 .0669-.0249 .118-.0249 .0384,0 .0889,.0044 .1516,.0134m.3395,2.1065v.3971h.3453v-.3971h-.3453m0-2.4154v2.0375h.3453v-2.0375h-.3453m2.1999,.7463l.3396-.0441c-.0371-.2341-.132-.4173-.2849-.5497-.1528-.1323-.3405-.1985-.5631-.1985-.2788,0-.5029,.0911-.6724,.2734-.1694,.1822-.2542,.4435-.2542,.7837 0,.22 .0365,.4124 .1094,.5774 .0729,.165 .1838,.2888 .3328,.3713 .149,.0825 .3111,.1237 .4864,.1237 .2212,0 .4022-.056 .5429-.1679 .1407-.1119 .2309-.2708 .2705-.4767l-.3357-.0518c-.032,.1368-.0886,.2398-.1698,.3089-.0812,.069-.1794,.1036-.2945,.1036-.1739,0-.3153-.0624-.424-.1871-.1087-.1247-.1631-.322-.1631-.5918 0-.2737 .0525-.4726 .1574-.5967 .1048-.1241 .2417-.1861 .4105-.1861 .1356,0 .2488,.0416 .3396,.1247 .0908,.0832 .1483,.2111 .1726,.3837"/>
<path d="m43.0952,23.4451l.3396-.0441c-.0371-.2341-.1321-.4173-.2849-.5497-.1529-.1324-.3406-.1985-.5631-.1985-.2788,0-.503,.0911-.6724,.2733-.1695,.1823-.2542,.4435-.2542,.7837 0,.22 .0364,.4125 .1093,.5775 .0729,.165 .1839,.2887 .3329,.3712 .149,.0825 .3111,.1238 .4863,.1238 .2213,0 .4022-.056 .5429-.1679 .1407-.1119 .2309-.2708 .2705-.4767l-.3357-.0518c-.032,.1368-.0886,.2398-.1698,.3088-.0812,.0691-.1794,.1036-.2945,.1036-.1739,0-.3152-.0623-.424-.187-.1087-.1247-.163-.322-.163-.5919 0-.2737 .0524-.4725 .1573-.5966 .1049-.1241 .2417-.1861 .4105-.1861 .1356,0 .2488,.0416 .3396,.1247 .0908,.0831 .1484,.211 .1727,.3837m1.9703-.7463v.2993c-.1586-.2302-.3741-.3453-.6466-.3453-.1202,0-.2324,.023-.3367,.069-.1042,.0461-.1816,.1039-.2321,.1736-.0505,.0698-.086,.1551-.1065,.2562-.014,.0678-.0211,.1752-.0211,.3223v1.2623h.3454v-1.13c0-.1803 .007-.3018 .0211-.3645 .0217-.0908 .0677-.1621 .1381-.2139 .0703-.0518 .1573-.0777 .2609-.0777 .1036,0 .2008,.0266 .2916,.0796 .0908,.0531 .1551,.1254 .1928,.2168 .0378,.0915 .0566,.2242 .0566,.3981v1.0916h.3453v-2.0374h-.3088m1.1681,0h-.3204v2.8125h.3453v-1.0034c.1458,.1829 .3319,.2744 .5583,.2744 .1254,0 .244-.0253 .3559-.0758 .1119-.0505 .204-.1215 .2763-.213 .0722-.0914 .1288-.2017 .1697-.3309 .041-.1292 .0614-.2673 .0614-.4144 0-.3491-.0863-.619-.259-.8096-.1726-.1906-.3798-.2858-.6216-.2858-.2404,0-.4291,.1004-.5659,.3012v-.2552m-.0038,1.0341c0-.2443 .0332-.4208 .0997-.5295 .1087-.1778 .2558-.2667 .4413-.2667 .1509,0 .2813,.0655 .3913,.1966 .11,.1311 .165,.3265 .165,.5861 0,.2661-.0527,.4624-.1582,.589-.1056,.1266-.2331,.1899-.3828,.1899-.1509,0-.2814-.0655-.3914-.1966-.1099-.1311-.1649-.3207-.1649-.5688m1.8722,1.3813v.3971h.3453v-.3971h-.3453m0-2.4154v2.0374h.3453v-2.0374h-.3453m2.1999,.7463l.3396-.0441c-.0371-.2341-.132-.4173-.2849-.5497-.1528-.1324-.3405-.1985-.5631-.1985-.2788,0-.5029,.0911-.6724,.2733-.1695,.1823-.2542,.4435-.2542,.7837 0,.22 .0365,.4125 .1094,.5775 .0729,.165 .1838,.2887 .3328,.3712 .149,.0825 .3111,.1238 .4864,.1238 .2212,0 .4022-.056 .5429-.1679 .1407-.1119 .2308-.2708 .2705-.4767l-.3357-.0518c-.032,.1368-.0886,.2398-.1698,.3088-.0812,.0691-.1794,.1036-.2945,.1036-.174,0-.3153-.0623-.424-.187-.1087-.1247-.1631-.322-.1631-.5919 0-.2737 .0525-.4725 .1573-.5966 .1049-.1241 .2418-.1861 .4106-.1861 .1356,0 .2488,.0416 .3396,.1247 .0908,.0831 .1483,.211 .1726,.3837"/>
</g>
<g stroke="#000" stroke-width=".35">
<path d="m20.745,23.265l4.32,.54"/>
<path d="m35.145,24.705l5.49-.54"/>
</g>
<g stroke="#808080" stroke-width=".13">
<path d="m61.875,45l-1.3128-.3751m-.75-.2143l-1.4999-.4285m-.75-.2143l-1.5-.4286m-.75-.2143l-1.5-.4285m-.75-.2143l-1.4999-.4286m-.75-.2143l-1.5-.4285m-.75-.2143l-1.5-.4286m-.75-.2142l-1.4999-.4286m-.75-.2143l-1.5-.4286m-.75-.2142l-1.5-.4286m-.75-.2143l-1.4999-.4286m-.75-.2142l-1.5-.4286m-.75-.2143l-1.5-.4285m-.75-.2143l-1.4999-.4286m-.75-.2143l-1.5-.4285m-.75-.2143l-1.5-.4286m-.75-.2143l-1.4999-.4285m-.75-.2143l-1.3128-.3751"/>
<path d="m22.5,33.75l.164-.656m.1892-.7568l.3783-1.5134m.1892-.7567l.3784-1.5134m.1892-.7567l.3783-1.5134m.1892-.7568l.3783-1.5134m.1892-.7567l.3784-1.5134m.1892-.7567l.3783-1.5134m.1892-.7568l.3783-1.5134m.1892-.7567l.3784-1.5134m.1892-.7567l.3783-1.5134m.1892-.7568l.164-.656"/>
</g>
<circle cx="28.125" cy="11.25" stroke="#00f" r=".844" stroke-width=".3"/>
<path stroke="#808080" stroke-width=".13" d="m28.125,11.25l.7696-.1099m.7721-.1103l1.5443-.2207m.7722-.1103l1.5443-.2206m.7722-.1103l1.5443-.2206m.7722-.1103l1.5443-.2206m.7722-.1103l1.5443-.2206m.7721-.1103l1.5444-.2206m.7721-.1103l1.5443-.2206m.7722-.1103l1.5443-.2206m.7722-.1103l1.5443-.2206m.7722-.1103l1.5443-.2206m.7721-.1103l1.5444-.2206m.7721-.1103l1.5443-.2206m.7722-.1103l1.5443-.2206m.7722-.1103l1.5443-.2206m.7722-.1103l1.5443-.2206m.7722-.1103l1.5443-.2206m.7721-.1103l.7696-.1099"/>
<g stroke="#00f" stroke-width=".3">
<circle cx="67.5" cy="5.625" r=".844"/>
<circle cx="61.875" cy="45" r=".844"/>
<circle cx="22.5" cy="33.75" r=".844"/>
</g>
<g fill="#000" fill-rule="evenodd">
<path d="m63.9844,46.4005h-.3454v2.2005c-.0831-.0793-.1921-.1586-.3271-.2379-.1349-.0793-.2561-.1388-.3635-.1784v.3338c.1931,.0908 .3619,.2008 .5065,.33 .1445,.1292 .2468,.2545 .3069,.376h.2226v-2.824"/>
<path d="m20.9531,35.623v-.3319h-1.859c-.0025,.0832 .0109,.1631 .0403,.2398 .0473,.1267 .1231,.2514 .2273,.3741 .1043,.1228 .2549,.2648 .4518,.4259 .3057,.2507 .5123,.4493 .6197,.5957 .1075,.1465 .1612,.2849 .1612,.4154 0,.1368-.049,.2523-.1468,.3463-.0978,.094-.2254,.141-.3827,.141-.1663,0-.2993-.0499-.3991-.1497-.0997-.0997-.1503-.2379-.1515-.4144l-.355,.0365c.0243,.2647 .1158,.4665 .2744,.6053 .1586,.1387 .3715,.2081 .6388,.2081 .2699,0 .4835-.0748 .6408-.2244 .1573-.1497 .236-.3351 .236-.5564 0-.1125-.023-.2232-.0691-.3319-.046-.1087-.1224-.2232-.2292-.3434-.1068-.1202-.2843-.2852-.5324-.495-.2072-.1739-.3402-.2919-.3991-.3539-.0588-.0621-.1074-.1244-.1458-.1871h1.3794"/>
<path d="m25.7208,7.371l.3453,.0461c.0396-.1957 .1071-.3367 .2024-.423 .0953-.0863 .2113-.1295 .3482-.1295 .1624,0 .2996,.0563 .4115,.1688 .1119,.1125 .1679,.252 .1679,.4182 0,.1586-.0518,.2894-.1554,.3923-.1036,.103-.2354,.1544-.3952,.1544-.0653,0-.1465-.0128-.2437-.0384l.0384,.3031c.023-.0026 .0416-.0038 .0556-.0038 .1471,0 .2795,.0384 .3971,.1151 .1177,.0767 .1765,.1951 .1765,.3549 0,.1266-.0428,.2315-.1285,.3146-.0857,.0831-.1963,.1247-.3319,.1247-.1343,0-.2462-.0422-.3357-.1266-.0896-.0844-.1471-.211-.1727-.3799l-.3453,.0614c.0422,.2315 .1381,.4109 .2878,.5381 .1496,.1273 .3357,.1909 .5582,.1909 .1535,0 .2948-.0329 .424-.0988 .1292-.0659 .228-.1557 .2964-.2696 .0685-.1138 .1027-.2347 .1027-.3626 0-.1215-.0326-.2321-.0979-.3319-.0652-.0998-.1618-.1791-.2897-.2379 .1663-.0384 .2955-.118 .3876-.2389 .0921-.1209 .1381-.2721 .1381-.4537 0-.2456-.0895-.4537-.2686-.6245-.179-.1708-.4054-.2561-.6791-.2561-.2469,0-.4518,.0735-.6149,.2206-.1631,.1471-.2561,.3377-.2791,.5717"/>
<path d="m70.1498,2.6719v.6734h-1.2201v.3165l1.2834,1.8226h.282v-1.8226h.3799v-.3165h-.3799v-.6734h-.3453m0,.9899v1.2681l-.8806-1.2681h.8806"/>
</g>
<g stroke="#000" stroke-width=".3">
<path d="m61.875,45l-1.2202-.3516-1.1995-.3515-1.179-.3516-1.1584-.3515-1.1378-.3516-1.1171-.3516-1.0966-.3515-1.076-.3516-1.0553-.3516-1.0348-.3515-1.0142-.3516-.9936-.3516-.9729-.3515-.9524-.3516-.9318-.3515-.9112-.3516-.8906-.3516-.8699-.3515-.8494-.3516-.8288-.3515-.8082-.3516-.7876-.3516-.7669-.3515-.7464-.3516-.7258-.3516-.7052-.3515-.6846-.3516-.664-.3516-.6434-.3515-.6227-.3516-.6022-.3515-.5816-.3516-.561-.3516-.5404-.3515-.5198-.3516-.4992-.3515-.4786-.3516-.458-.3516-.4374-.3515-.4168-.3516-.3962-.3516-.3755-.3515-.355-.3516-.3344-.3516-.3138-.3515-.2932-.3516-.2726-.3515-.252-.3516-.2314-.3516-.2108-.3515-.1902-.3516-.1696-.3515-.149-.3516-.1284-.3516-.1078-.3515-.0872-.3516-.0666-.3516-.0461-.3515-.0254-.3516-.0048-.3516 .0158-.3515 .0364-.3516 .057-.3515 .0776-.3516 .0968-.3502 .1147-.3474 .1325-.3447 .1504-.342 .1682-.3392 .1861-.3364 .2039-.3337 .2218-.331 .2397-.3282 .2574-.3255 .2754-.3227 .2932-.32 .311-.3172 .3289-.3145 .3468-.3117 .3646-.309 .3825-.3063 .4003-.3035 .4181-.3007 .4361-.298 .4538-.2953 .4718-.2925 .4895-.2898 .5075-.287 .5253-.2843 .5431-.2815 .561-.2788 .5788-.276 .5967-.2733 .6146-.2705 .6324-.2678 .6502-.2651 .6681-.2622 .686-.2596 .7038-.2568 .7217-.2541 .7395-.2513 .7574-.2485 .7752-.2459 .7931-.243 .8109-.2404 .8288-.2375 .8466-.2349 .8645-.2321 .8823-.2293 .9002-.2266 .9181-.2238 .9359-.2211 .9537-.2183 .9716-.2156 .9895-.2129 1.0073-.2101 1.0251-.2074 1.0431-.2046 1.0608-.2019 1.0787-.1991 1.0966-.1964 1.1144-.1936 1.1323-.1909 1.1501-.1881 1.168-.1854 1.1859-.1826 1.2037-.1799 1.2215-.1772"/>
<path d="m61.875,45l-.9146-.2657-.8982-.2698-.8817-.2737-.8654-.2776-.849-.2814-.8327-.2851-.8165-.2887-.8001-.2923-.784-.2958-.7677-.2992-.7516-.3025-.7355-.3057-.7193-.3089-.7034-.312-.6872-.3149-.6713-.3179-.6553-.3207-.6394-.3234-.6235-.3261-.6076-.3287-.5918-.3312-.576-.3337-.5602-.336-.5445-.3383-.5288-.3404-.5131-.3426-.4974-.3446-.4818-.3465-.4663-.3484-.4507-.3502-.4352-.3519-.4197-.3535-.4043-.3551-.3888-.3565-.3735-.3579-.3581-.3593-.3428-.3604-.3275-.3616-.3123-.3626-.297-.3637-.2818-.3645-.2667-.3653-.2515-.3661-.2365-.3668-.2214-.3673-.2063-.3679-.1914-.3682-.1764-.3686-.1614-.3688-.1466-.3691-.1316-.3691-.1169-.3691-.102-.3691-.0873-.3689-.0725-.3687-.0578-.3684-.0432-.368-.0284-.3675-.0139-.367 .0007-.3664 .0152-.3657 .0298-.3648 .0442-.364 .0587-.3631 .0732-.362 .0875-.3609 .1018-.3597 .1162-.3585 .1305-.3571 .1448-.3556 .1589-.3542 .1732-.3525 .1873-.3509 .2014-.3492 .2156-.3472 .2296-.3454 .2437-.3434 .2576-.3413 .2716-.3392 .2856-.3369 .2994-.3346 .3134-.3322 .3271-.3297 .341-.3272 .3548-.3245 .3685-.3218 .3822-.319 .3959-.3161 .4095-.3132 .4231-.3101 .4368-.307 .4503-.3038 .4638-.3005 .4772-.2972 .4908-.2937 .5042-.2901 .5175-.2866 .5309-.2829 .5443-.2791 .5575-.2753 .5708-.2714 .584-.2673 .5972-.2633 .6104-.259 .6235-.2549 .6366-.2505 .6497-.2461 .6627-.2416 .6757-.237 .6887-.2324 .7016-.2277 .7146-.2228 .7274-.218 .7402-.213 .7531-.2079 .7658-.2028 .7786-.1976 .7913-.1923 .804-.1869 .8166-.1815 .8293-.1759 .8418-.1703 .8544-.1646 .8669-.1588 .8794-.153 .8919-.147 .9042-.141 .9167-.1349"/>
</g>
</g>
</svg>
