<svg xmlns="http://www.w3.org/2000/svg" viewBox="0 0 512 512" xmlns:xlink="http://www.w3.org/1999/xlink">
<defs>
<linearGradient gradientTransform="matrix(22.86815 -3.77407 14.63209 25.50184 -997.7694 -230.26412)" xlink:href="#linearGradient2974" id="linearGradient4027" y1="19.812" x1="46" y2="22.625" gradientUnits="userSpaceOnUse" x2="47.688"/>
<linearGradient gradientTransform="matrix(22.90654 -3.81342 14.65666 25.76771 -999.42627 -234.31126)" xlink:href="#linearGradient2966" id="linearGradient4030" y1="17.376" x1="48.906" y2="22.251" gradientUnits="userSpaceOnUse" x2="50.988"/>
<linearGradient id="linearGradient2966">
<stop offset="0" stop-color="#ffd1d1"/>
<stop offset=".5" stop-color="#ff1d1d"/>
<stop offset="1" stop-color="#6f0000"/>
</linearGradient>
<linearGradient gradientTransform="matrix(27.98159 -4.67664 17.90391 31.60063 -1210.3076 -413.54176)" xlink:href="#linearGradient2994" id="linearGradient4021" y1="31.047" x1="25.719" y2="30.703" gradientUnits="userSpaceOnUse" x2="25.515"/>
<linearGradient id="linearGradient2974">
<stop offset="0" stop-color="#c1c1c1"/>
<stop offset="1" stop-color="#acacac"/>
</linearGradient>
<linearGradient id="linearGradient2994">
<stop offset="0" stop-color="#000"/>
<stop offset="1" stop-color="#c9c9c9"/>
</linearGradient>
<linearGradient id="linearGradient2984">
<stop offset="0" stop-color="#e7e2b8"/>
<stop offset="1" stop-color="#e7e2b8" stop-opacity="0"/>
</linearGradient>
<radialGradient cx="29.053" cy="27.641" gradientTransform="matrix(68.39519 -11.0801 30.38261 51.97917 -2731.8579 -746.72188)" xlink:href="#linearGradient2984" id="radialGradient4024" r="3.241" gradientUnits="userSpaceOnUse"/>
</defs>
<g transform="matrix(.67503 0 0 .67503 81.55131 76.62822)">
<path fill="none" stroke="#f00" stroke-linecap="round" stroke-width="23.703" d="m10.4648,514.6748 495.9324,0"/>
<g fill-rule="evenodd">
<path fill="#cb0422" stroke="#5c410c" stroke-width="22.489" d="m25.8341,495.1359 43.8183-157.9621 299.6812-311.2473c52.9963-42.3431 158.911,63.7795 119.2156,113.9382l-303.5192,301.8478-159.196,53.4234z"/>
<path fill="url(#linearGradient4030)" d="m301.5947,113.2526c0,0 34.3022-3.0661 65.508,26.9985 32.1485,30.9728 38.9318,68.4455 38.9318,68.4455l79.0649-82.8003c0,0 20.3431-28.248-26.6475-75.7795-46.3487-46.8822-78.5081-19.5454-78.5081-19.5454l-78.3491,82.6811z"/>
<path fill="url(#radialGradient4024)" d="m40.3937,476.8319 37.9153-132.2954c47.2539,15.1224 85.6453,46.5737 99.5301,88.1275l-137.4454,44.1679z"/>
<path fill="url(#linearGradient4021)" d="m57.058,421.0769-16.9357,57.9631 59.9869-20.8361c-6.7475-23.736-24.2694-32.6988-43.0512-37.127z"/>
<g fill-opacity=".364">
<path fill="#fdb620" d="m79.0262,343.862 49.0003,23.3496 231.5327-234.7341c-21.46-19.3316-41.869-22.036-57.2541-21.5407l-223.2789,232.9251z"/>
<path d="m176.1751,434.6898-6.3241-19.0253 230.7697-229.5434c0,0 6.1096,15.4093 5.7013,19.1121l-230.1469,229.4566z"/>
</g>
<path fill="url(#linearGradient4027)" d="m301.071,113.7136c0,0 34.2447-3.0344 65.3982,26.72 32.0946,30.6532 38.8665,67.7393 38.8665,67.7393l31.1042-33.05c0,0-.3851-36.7548-34.3213-69.3618-34.869-33.5032-69.9433-25.0974-69.9433-25.0974l-31.1042,33.05z"/>
</g>
</g>
</svg>
