999
dxflib 3.12.2.0
  0
SECTION
  2
HEADER
  9
$ACADVER
  1
AC1015
  9
$HANDSEED
  5
FFFF
  9
$ANGBASE
 50
0.0
  9
$ANGDIR
 70
0
  9
$ATTMODE
 70
1
  9
$AUNITS
 70
0
  9
$AUPREC
 70
0
  9
$CECOLOR
 62
256
  9
$CELTSCALE
 40
1.0
  9
$CHAMFERA
 40
0.0
  9
$CHAMFERB
 40
0.0
  9
$CHAMFERC
 40
0.0
  9
$CHAMFERD
 40
0.0
  9
$CMLJUST
 70
0
  9
$CMLSCALE
 40
20.0
  9
$DIMADEC
 70
0
  9
$DIMALT
 70
0
  9
$DIMALTD
 70
3
  9
$DIMALTF
 40
0.03937007874
  9
$DIMALTRND
 40
0.0
  9
$DIMALTTD
 70
3
  9
$DIMALTTZ
 70
0
  9
$DIMALTU
 70
2
  9
$DIMALTZ
 70
0
  9
$DIMAPOST
  1

  9
$DIMASZ
 40
2.5
  9
$DIMATFIT
 70
3
  9
$DIMAUNIT
 70
0
  9
$DIMAZIN
 70
0
  9
$DIMBLK
  1

  9
$DIMBLK1
  1

  9
$DIMBLK2
  1

  9
$DIMCEN
 40
2.5
  9
$DIMCLRD
 70
0
  9
$DIMCLRE
 70
0
  9
$DIMCLRT
 70
0
  9
$DIMDEC
 70
2
  9
$DIMDLE
 40
0.0
  9
$DIMDLI
 40
3.75
  9
$DIMDSEP
 70
44
  9
$DIMEXE
 40
1.25
  9
$DIMEXO
 40
0.625
  9
$DIMFRAC
 70
0
  9
$DIMGAP
 40
0.625
  9
$DIMJUST
 70
0
  9
$DIMLDRBLK
  1

  9
$DIMLFAC
 40
1.0
  9
$DIMLIM
 70
0
  9
$DIMLUNIT
 70
2
  9
$DIMLWD
 70
-2
  9
$DIMLWE
 70
-2
  9
$DIMPOST
  1

  9
$DIMRND
 40
0.0
  9
$DIMSAH
 70
0
  9
$DIMSCALE
 40
1.0
  9
$DIMSD1
 70
0
  9
$DIMSD2
 70
0
  9
$DIMSE1
 70
0
  9
$DIMSE2
 70
0
  9
$DIMSOXD
 70
0
  9
$DIMTAD
 70
1
  9
$DIMTDEC
 70
2
  9
$DIMTFAC
 40
1.0
  9
$DIMTIH
 70
0
  9
$DIMTIX
 70
0
  9
$DIMTM
 40
0.0
  9
$DIMTOFL
 70
1
  9
$DIMTOH
 70
0
  9
$DIMTOL
 70
0
  9
$DIMTOLJ
 70
0
  9
$DIMTP
 40
0.0
  9
$DIMTSZ
 40
0.0
  9
$DIMTVP
 40
0.0
  9
$DIMTXSTY
  7
Standard
  9
$DIMTXT
 40
2.5
  9
$DIMTZIN
 70
8
  9
$DIMUPT
 70
0
  9
$DIMZIN
 70
8
  9
$DISPSILH
 70
0
  9
$DWGCODEPAGE
  3
ANSI_1252
  9
$ELEVATION
 40
0.0
  9
$EXTMAX
 10
1189.0
 20
841.0
 30
0.0
  9
$EXTMIN
 10
0.0
 20
0.0
 30
0.0
  9
$FILLETRAD
 40
0.0
  9
$FILLMODE
 70
1
  9
$INSBASE
 10
0.0
 20
0.0
 30
0.0
  9
$INSUNITS
 70
4
  9
$LIMCHECK
 70
0
  9
$LIMMAX
 10
420.0
 20
297.0
  9
$LIMMIN
 10
0.0
 20
0.0
  9
$LTSCALE
 40
1.0
  9
$LUNITS
 70
2
  9
$LUPREC
 70
4
  9
$MAXACTVP
 70
64
  9
$MEASUREMENT
 70
1
  9
$MIRRTEXT
 70
0
  9
$ORTHOMODE
 70
0
  9
$PDMODE
 70
0
  9
$PDSIZE
 40
0
  9
$PELEVATION
 40
0.0
  9
$PEXTMAX
 10
0.0
 20
0.0
 30
0.0
  9
$PEXTMIN
 10
0.0
 20
0.0
 30
0.0
  9
$PINSBASE
 10
0.0
 20
0.0
 30
0.0
  9
$PLIMCHECK
 70
0
  9
$PLIMMAX
 10
12.0
 20
9.0
  9
$PLIMMIN
 10
0.0
 20
0.0
  9
$PLINEGEN
 70
0
  9
$PLINEWID
 40
0.0
  9
$PROXYGRAPHICS
 70
1
  9
$PSLTSCALE
 70
1
  9
$PUCSNAME
  2

  9
$PUCSORG
 10
0.0
 20
0.0
 30
0.0
  9
$PUCSXDIR
 10
1.0
 20
0.0
 30
0.0
  9
$PUCSYDIR
 10
0.0
 20
1.0
 30
0.0
  9
$QTEXTMODE
 70
0
  9
$REGENMODE
 70
1
  9
$SHADEDGE
 70
3
  9
$SHADEDIF
 70
70
  9
$SKETCHINC
 40
1.0
  9
$SKPOLY
 70
0
  9
$SPLFRAME
 70
0
  9
$SPLINESEGS
 70
8
  9
$SPLINETYPE
 70
6
  9
$SURFTAB1
 70
6
  9
$SURFTAB2
 70
6
  9
$SURFTYPE
 70
6
  9
$SURFU
 70
6
  9
$SURFV
 70
6
  9
$TEXTSIZE
 40
2.5
  9
$TEXTSTYLE
  7
Standard
  9
$THICKNESS
 40
0.0
  9
$TILEMODE
 70
1
  9
$TRACEWID
 40
1.0
  9
$TREEDEPTH
 70
3020
  9
$UCSNAME
  2

  9
$UCSORG
 10
0.0
 20
0.0
 30
0.0
  9
$UCSXDIR
 10
1.0
 20
0.0
 30
0.0
  9
$UCSYDIR
 10
0.0
 20
1.0
 30
0.0
  9
$UNITMODE
 70
0
  9
$USERI1
 70
0
  9
$USERI2
 70
0
  9
$USERI3
 70
0
  9
$USERI4
 70
0
  9
$USERI5
 70
0
  9
$USERR1
 40
0.0
  9
$USERR2
 40
0.0
  9
$USERR3
 40
0.0
  9
$USERR4
 40
0.0
  9
$USERR5
 40
0.0
  9
$USRTIMER
 70
1
  9
$VISRETAIN
 70
1
  0
ENDSEC
  0
SECTION
  2
TABLES
  0
TABLE
  2
VPORT
  5
8
100
AcDbSymbolTable
 70
1
  0
VPORT
  5
30
100
AcDbSymbolTableRecord
100
AcDbViewportTableRecord
  2
*Active
 70
0
 10
0.0
 20
0.0
 11
1.0
 21
1.0
 12
286.3055555555554861
 22
148.5
 13
0.0
 23
0.0
 14
10.0
 24
10.0
 15
10.0
 25
10.0
 16
0.0
 26
0.0
 36
1.0
 17
0.0
 27
0.0
 37
0.0
 40
297.0
 41
1.92798353909465
 42
50.0
 43
0.0
 44
0.0
 50
0.0
 51
0.0
 71
0
 72
100
 73
1
 74
3
 75
1
 76
1
 77
0
 78
0
281
0
 65
1
110
0.0
120
0.0
130
0.0
111
1.0
121
0.0
131
0.0
112
0.0
122
1.0
132
0.0
 79
0
146
0.0
  0
ENDTAB
  0
TABLE
  2
LTYPE
  5
5
100
AcDbSymbolTable
 70
41
  0
LTYPE
  5
16
100
AcDbSymbolTableRecord
100
AcDbLinetypeTableRecord
  2
Continuous
 70
0
  3
Solid line
 72
65
 73
0
 40
0.0
  0
LTYPE
  5
31
100
AcDbSymbolTableRecord
100
AcDbLinetypeTableRecord
  2
ACAD_ISO15W100
 70
0
  3
ISO double-dash triple-dot __ __ . . . __ __ . .
 72
65
 73
10
 40
39.0000000000000071
 49
12.0
 74
0
 49
-3.0
 74
0
 49
12.0
 74
0
 49
-2.9500000000000002
 74
0
 49
0.1
 74
0
 49
-2.9000000000000004
 74
0
 49
0.1
 74
0
 49
-2.9000000000000004
 74
0
 49
0.1
 74
0
 49
-2.9500000000000002
 74
0
  0
LTYPE
  5
32
100
AcDbSymbolTableRecord
100
AcDbLinetypeTableRecord
  2
DIVIDE
 70
0
  3
Divide ____ . . ____ . . ____ . . ____ . . ____
 72
65
 73
6
 40
31.7500000000000036
 49
12.6999999999999993
 74
0
 49
-6.2999999999999998
 74
0
 49
0.1
 74
0
 49
-6.25
 74
0
 49
0.1
 74
0
 49
-6.2999999999999998
 74
0
  0
LTYPE
  5
33
100
AcDbSymbolTableRecord
100
AcDbLinetypeTableRecord
  2
ACAD_ISO10W100
 70
0
  3
ISO dash dot __ . __ . __ . __ . __ . __ . __ . 
 72
65
 73
4
 40
18.0
 49
12.0
 74
0
 49
-2.9500000000000002
 74
0
 49
0.1
 74
0
 49
-2.9500000000000002
 74
0
  0
LTYPE
  5
34
100
AcDbSymbolTableRecord
100
AcDbLinetypeTableRecord
  2
ACAD_ISO04W100
 70
0
  3
ISO long-dash dot ____ . ____ . ____ . ____ . _
 72
65
 73
4
 40
30.0
 49
24.0
 74
0
 49
-2.9500000000000002
 74
0
 49
0.1
 74
0
 49
-2.9500000000000002
 74
0
  0
LTYPE
  5
14
100
AcDbSymbolTableRecord
100
AcDbLinetypeTableRecord
  2
ByBlock
 70
0
  3

 72
65
 73
0
 40
0.0
  0
LTYPE
  5
35
100
AcDbSymbolTableRecord
100
AcDbLinetypeTableRecord
  2
CENTER2
 70
0
  3
Center (.5x) ___ _ ___ _ ___ _ ___ _ ___ _ ___
 72
65
 73
4
 40
28.5750000000000028
 49
19.0500000000000007
 74
0
 49
-3.1749999999999998
 74
0
 49
3.1749999999999998
 74
0
 49
-3.1749999999999998
 74
0
  0
LTYPE
  5
36
100
AcDbSymbolTableRecord
100
AcDbLinetypeTableRecord
  2
ACAD_ISO11W100
 70
0
  3
ISO double-dash dot __ __ . __ __ . __ __ . __ _
 72
65
 73
6
 40
33.0
 49
12.0
 74
0
 49
-3.0
 74
0
 49
12.0
 74
0
 49
-2.9500000000000002
 74
0
 49
0.1
 74
0
 49
-2.9500000000000002
 74
0
  0
LTYPE
  5
37
100
AcDbSymbolTableRecord
100
AcDbLinetypeTableRecord
  2
HIDDEN2
 70
0
  3
Hidden (.5x) _ _ _ _ _ _ _ _ _ _ _ _ _ _ _ _ _ 
 72
65
 73
2
 40
4.7624999999999993
 49
3.1749999999999998
 74
0
 49
-1.5874999999999999
 74
0
  0
LTYPE
  5
38
100
AcDbSymbolTableRecord
100
AcDbLinetypeTableRecord
  2
BORDERX2
 70
0
  3
Border (2x) ____  ____  .  ____  ____  .  ___
 72
65
 73
6
 40
88.8999999999999773
 49
25.3999999999999986
 74
0
 49
-12.6999999999999993
 74
0
 49
25.3999999999999986
 74
0
 49
-12.6499999999999986
 74
0
 49
0.1
 74
0
 49
-12.6499999999999986
 74
0
  0
LTYPE
  5
39
100
AcDbSymbolTableRecord
100
AcDbLinetypeTableRecord
  2
ACAD_ISO05W100
 70
0
  3
ISO long-dash double-dot ____ .. ____ .. ____ . 
 72
65
 73
6
 40
33.0000000000000071
 49
24.0
 74
0
 49
-2.9500000000000002
 74
0
 49
0.1
 74
0
 49
-2.9000000000000004
 74
0
 49
0.1
 74
0
 49
-2.9500000000000002
 74
0
  0
LTYPE
  5
3A
100
AcDbSymbolTableRecord
100
AcDbLinetypeTableRecord
  2
DASHDOTX2
 70
0
  3
Dash dot (2x) ____  .  ____  .  ____  .  ___
 72
65
 73
4
 40
50.7999999999999972
 49
25.3999999999999986
 74
0
 49
-12.6499999999999986
 74
0
 49
0.1
 74
0
 49
-12.6499999999999986
 74
0
  0
LTYPE
  5
3B
100
AcDbSymbolTableRecord
100
AcDbLinetypeTableRecord
  2
HIDDENX2
 70
0
  3
Hidden (2x) ____ ____ ____ ____ ____ ____ ____ 
 72
65
 73
2
 40
19.0499999999999972
 49
12.6999999999999993
 74
0
 49
-6.3499999999999996
 74
0
  0
LTYPE
  5
3C
100
AcDbSymbolTableRecord
100
AcDbLinetypeTableRecord
  2
CENTERX2
 70
0
  3
Center (2x) ________  __  ________  __  _____
 72
65
 73
4
 40
101.6000000000000085
 49
63.5
 74
0
 49
-12.6999999999999993
 74
0
 49
12.6999999999999993
 74
0
 49
-12.6999999999999993
 74
0
  0
LTYPE
  5
3D
100
AcDbSymbolTableRecord
100
AcDbLinetypeTableRecord
  2
BORDER2
 70
0
  3
Border (.5x) __.__.__.__.__.__.__.__.__.__.__.
 72
65
 73
6
 40
22.2250000000000014
 49
6.3499999999999996
 74
0
 49
-3.1749999999999998
 74
0
 49
6.3499999999999996
 74
0
 49
-3.125
 74
0
 49
0.1
 74
0
 49
-3.125
 74
0
  0
LTYPE
  5
3E
100
AcDbSymbolTableRecord
100
AcDbLinetypeTableRecord
  2
DASHDOT2
 70
0
  3
Dash dot (.5x) _._._._._._._._._._._._._._._.
 72
65
 73
4
 40
12.6999999999999993
 49
6.3499999999999996
 74
0
 49
-3.125
 74
0
 49
0.1
 74
0
 49
-3.125
 74
0
  0
LTYPE
  5
3F
100
AcDbSymbolTableRecord
100
AcDbLinetypeTableRecord
  2
ACAD_ISO12W100
 70
0
  3
ISO dash double-dot __ . . __ . . __ . . __ . . 
 72
65
 73
6
 40
21.0
 49
12.0
 74
0
 49
-2.9500000000000002
 74
0
 49
0.1
 74
0
 49
-2.9000000000000004
 74
0
 49
0.1
 74
0
 49
-2.9500000000000002
 74
0
  0
LTYPE
  5
40
100
AcDbSymbolTableRecord
100
AcDbLinetypeTableRecord
  2
ACAD_ISO07W100
 70
0
  3
ISO dot . . . . . . . . . . . . . . . . . . . . 
 72
65
 73
2
 40
3.0
 49
0.1
 74
0
 49
-2.8999999999999999
 74
0
  0
LTYPE
  5
41
100
AcDbSymbolTableRecord
100
AcDbLinetypeTableRecord
  2
HIDDEN
 70
0
  3
Hidden __ __ __ __ __ __ __ __ __ __ __ __ __ __
 72
65
 73
2
 40
9.5249999999999986
 49
6.3499999999999996
 74
0
 49
-3.1749999999999998
 74
0
  0
LTYPE
  5
42
100
AcDbSymbolTableRecord
100
AcDbLinetypeTableRecord
  2
ACAD_ISO06W100
 70
0
  3
ISO long-dash triple-dot ____ ... ____ ... ____
 72
65
 73
8
 40
36.0000000000000071
 49
24.0
 74
0
 49
-2.9500000000000002
 74
0
 49
0.1
 74
0
 49
-2.9000000000000004
 74
0
 49
0.1
 74
0
 49
-2.9000000000000004
 74
0
 49
0.1
 74
0
 49
-2.9500000000000002
 74
0
  0
LTYPE
  5
43
100
AcDbSymbolTableRecord
100
AcDbLinetypeTableRecord
  2
CENTER
 70
0
  3
Center ____ _ ____ _ ____ _ ____ _ ____ _ ____
 72
65
 73
4
 40
50.8000000000000043
 49
31.75
 74
0
 49
-6.3499999999999996
 74
0
 49
6.3499999999999996
 74
0
 49
-6.3499999999999996
 74
0
  0
LTYPE
  5
44
100
AcDbSymbolTableRecord
100
AcDbLinetypeTableRecord
  2
DOTX2
 70
0
  3
Dot (2x) .  .  .  .  .  .  .  .  .  .  .  .  .  .
 72
65
 73
2
 40
12.6999999999999993
 49
0.1
 74
0
 49
-12.5999999999999996
 74
0
  0
LTYPE
  5
45
100
AcDbSymbolTableRecord
100
AcDbLinetypeTableRecord
  2
PHANTOM
 70
0
  3
Phantom ______  __  __  ______  __  __  ______ 
 72
65
 73
6
 40
63.5000000000000071
 49
31.75
 74
0
 49
-6.3499999999999996
 74
0
 49
6.3499999999999996
 74
0
 49
-6.3499999999999996
 74
0
 49
6.3499999999999996
 74
0
 49
-6.3499999999999996
 74
0
  0
LTYPE
  5
46
100
AcDbSymbolTableRecord
100
AcDbLinetypeTableRecord
  2
ACAD_ISO08W100
 70
0
  3
ISO long-dash short-dash ____ __ ____ __ ____ _
 72
65
 73
4
 40
36.0
 49
24.0
 74
0
 49
-3.0
 74
0
 49
6.0
 74
0
 49
-3.0
 74
0
  0
LTYPE
  5
47
100
AcDbSymbolTableRecord
100
AcDbLinetypeTableRecord
  2
DASHEDX2
 70
0
  3
Dashed (2x) ____  ____  ____  ____  ____  ___
 72
65
 73
2
 40
38.0999999999999943
 49
25.3999999999999986
 74
0
 49
-12.6999999999999993
 74
0
  0
LTYPE
  5
48
100
AcDbSymbolTableRecord
100
AcDbLinetypeTableRecord
  2
ACAD_ISO02W100
 70
0
  3
ISO dash __ __ __ __ __ __ __ __ __ __ __ __ __
 72
65
 73
2
 40
15.0
 49
12.0
 74
0
 49
-3.0
 74
0
  0
LTYPE
  5
49
100
AcDbSymbolTableRecord
100
AcDbLinetypeTableRecord
  2
PHANTOM2
 70
0
  3
Phantom (.5x) ___ _ _ ___ _ _ ___ _ _ ___ _ _
 72
65
 73
6
 40
31.7500000000000036
 49
15.875
 74
0
 49
-3.1749999999999998
 74
0
 49
3.1749999999999998
 74
0
 49
-3.1749999999999998
 74
0
 49
3.1749999999999998
 74
0
 49
-3.1749999999999998
 74
0
  0
LTYPE
  5
4A
100
AcDbSymbolTableRecord
100
AcDbLinetypeTableRecord
  2
DASHED2
 70
0
  3
Dashed (.5x) _ _ _ _ _ _ _ _ _ _ _ _ _ _ _ _ _ 
 72
65
 73
2
 40
9.5249999999999986
 49
6.3499999999999996
 74
0
 49
-3.1749999999999998
 74
0
  0
LTYPE
  5
4B
100
AcDbSymbolTableRecord
100
AcDbLinetypeTableRecord
  2
ACAD_ISO09W100
 70
0
  3
ISO long-dash double-short-dash ____ __ __ ____
 72
65
 73
6
 40
45.0
 49
24.0
 74
0
 49
-3.0
 74
0
 49
6.0
 74
0
 49
-3.0
 74
0
 49
6.0
 74
0
 49
-3.0
 74
0
  0
LTYPE
  5
4C
100
AcDbSymbolTableRecord
100
AcDbLinetypeTableRecord
  2
ACAD_ISO13W100
 70
0
  3
ISO double-dash double-dot __ __ . . __ __ . . _
 72
65
 73
8
 40
36.0000000000000071
 49
12.0
 74
0
 49
-3.0
 74
0
 49
12.0
 74
0
 49
-2.9500000000000002
 74
0
 49
0.1
 74
0
 49
-2.9000000000000004
 74
0
 49
0.1
 74
0
 49
-2.9500000000000002
 74
0
  0
LTYPE
  5
4D
100
AcDbSymbolTableRecord
100
AcDbLinetypeTableRecord
  2
DOT2
 70
0
  3
Dot (.5x) ........................................
 72
65
 73
2
 40
3.1749999999999998
 49
0.1
 74
0
 49
-3.0749999999999997
 74
0
  0
LTYPE
  5
4E
100
AcDbSymbolTableRecord
100
AcDbLinetypeTableRecord
  2
DASHED
 70
0
  3
Dashed __ __ __ __ __ __ __ __ __ __ __ __ __ _
 72
65
 73
2
 40
19.0499999999999972
 49
12.6999999999999993
 74
0
 49
-6.3499999999999996
 74
0
  0
LTYPE
  5
4F
100
AcDbSymbolTableRecord
100
AcDbLinetypeTableRecord
  2
ACAD_ISO14W100
 70
0
  3
ISO dash triple-dot __ . . . __ . . . __ . . . _
 72
65
 73
8
 40
24.0000000000000036
 49
12.0
 74
0
 49
-2.9500000000000002
 74
0
 49
0.1
 74
0
 49
-2.9000000000000004
 74
0
 49
0.1
 74
0
 49
-2.9000000000000004
 74
0
 49
0.1
 74
0
 49
-2.9500000000000002
 74
0
  0
LTYPE
  5
50
100
AcDbSymbolTableRecord
100
AcDbLinetypeTableRecord
  2
PHANTOMX2
 70
0
  3
Phantom (2x) ____________    ____    ____   _
 72
65
 73
6
 40
127.0000000000000142
 49
63.5
 74
0
 49
-12.6999999999999993
 74
0
 49
12.6999999999999993
 74
0
 49
-12.6999999999999993
 74
0
 49
12.6999999999999993
 74
0
 49
-12.6999999999999993
 74
0
  0
LTYPE
  5
51
100
AcDbSymbolTableRecord
100
AcDbLinetypeTableRecord
  2
DIVIDEX2
 70
0
  3
Divide (2x) ________  .  .  ________  .  .  _
 72
65
 73
6
 40
63.5
 49
25.3999999999999986
 74
0
 49
-12.6499999999999986
 74
0
 49
0.1
 74
0
 49
-12.5999999999999979
 74
0
 49
0.1
 74
0
 49
-12.6499999999999986
 74
0
  0
LTYPE
  5
52
100
AcDbSymbolTableRecord
100
AcDbLinetypeTableRecord
  2
BORDER
 70
0
  3
Border __ __ . __ __ . __ __ . __ __ . __ __ .
 72
65
 73
6
 40
44.4499999999999957
 49
12.6999999999999993
 74
0
 49
-6.3499999999999996
 74
0
 49
12.6999999999999993
 74
0
 49
-6.2999999999999998
 74
0
 49
0.1
 74
0
 49
-6.2999999999999998
 74
0
  0
LTYPE
  5
53
100
AcDbSymbolTableRecord
100
AcDbLinetypeTableRecord
  2
DIVIDE2
 70
0
  3
Divide (.5x) __..__..__..__..__..__..__..__.._
 72
65
 73
6
 40
15.8749999999999982
 49
6.3499999999999996
 74
0
 49
-3.125
 74
0
 49
0.1
 74
0
 49
-3.0750000000000002
 74
0
 49
0.1
 74
0
 49
-3.125
 74
0
  0
LTYPE
  5
54
100
AcDbSymbolTableRecord
100
AcDbLinetypeTableRecord
  2
DOT
 70
0
  3
Dot . . . . . . . . . . . . . . . . . . . . . . . .
 72
65
 73
2
 40
6.3499999999999996
 49
0.1
 74
0
 49
-6.25
 74
0
  0
LTYPE
  5
55
100
AcDbSymbolTableRecord
100
AcDbLinetypeTableRecord
  2
DASHDOT
 70
0
  3
Dash dot __ . __ . __ . __ . __ . __ . __ . __
 72
65
 73
4
 40
25.4000000000000021
 49
12.6999999999999993
 74
0
 49
-6.2999999999999998
 74
0
 49
0.1
 74
0
 49
-6.2999999999999998
 74
0
  0
LTYPE
  5
56
100
AcDbSymbolTableRecord
100
AcDbLinetypeTableRecord
  2
ACAD_ISO03W100
 70
0
  3
ISO dash space __    __    __    __    __    __
 72
65
 73
2
 40
30.0
 49
12.0
 74
0
 49
-18.0
 74
0
  0
LTYPE
  5
15
100
AcDbSymbolTableRecord
100
AcDbLinetypeTableRecord
  2
ByLayer
 70
0
  3

 72
65
 73
0
 40
0.0
  0
ENDTAB
  0
TABLE
  2
LAYER
  5
2
100
AcDbSymbolTable
 70
13
  0
LAYER
  5
57
100
AcDbSymbolTableRecord
100
AcDbLayerTableRecord
  2
Plankopf Linien d\U+00fcnn
 70
4
 62
3
420
65280
  6
Continuous
370
-3
390
F
  0
LAYER
  5
58
100
AcDbSymbolTableRecord
100
AcDbLayerTableRecord
  2
Logo Planungsb\U+00fcro
 70
4
 62
1
420
16711680
  6
Continuous
370
25
390
F
  0
LAYER
  5
59
100
AcDbSymbolTableRecord
100
AcDbLayerTableRecord
  2
Hilfslinien
 70
4
 62
3
420
65280
  6
Continuous
370
-3
390
F
  0
LAYER
  5
5A
100
AcDbSymbolTableRecord
100
AcDbLayerTableRecord
  2
Planecken
 70
4
 62
2
420
16776960
  6
Continuous
370
-3
390
F
  0
LAYER
  5
5B
100
AcDbSymbolTableRecord
100
AcDbLayerTableRecord
  2
Blattrahmen
 70
4
 62
2
420
16776960
  6
Continuous
370
-3
390
F
  0
LAYER
  5
5C
100
AcDbSymbolTableRecord
100
AcDbLayerTableRecord
  2
Plankopf Text ausgef\U+00fcllt
 70
4
 62
94
420
32768
  6
Continuous
370
-3
390
F
  0
LAYER
  5
5D
100
AcDbSymbolTableRecord
100
AcDbLayerTableRecord
  2
Faltmarken
 70
4
 62
3
420
65280
  6
Continuous
370
-3
390
F
  0
LAYER
  5
5E
100
AcDbSymbolTableRecord
100
AcDbLayerTableRecord
  2
Zeichnungsrahmen_blau
 70
4
 62
5
420
255
  6
Continuous
370
-3
390
F
  0
LAYER
  5
10
100
AcDbSymbolTableRecord
100
AcDbLayerTableRecord
  2
0
 70
4
 62
7
420
16777215
  6
Continuous
370
-3
390
F
  0
LAYER
  5
5F
100
AcDbSymbolTableRecord
100
AcDbLayerTableRecord
  2
Zeichnungsrahmen rot
 70
4
 62
1
420
16711680
  6
Continuous
370
-3
390
F
  0
LAYER
  5
60
100
AcDbSymbolTableRecord
100
AcDbLayerTableRecord
  2
Plankopf Rahmen
 70
4
 62
3
420
65280
  6
Continuous
370
-3
390
F
  0
LAYER
  5
61
100
AcDbSymbolTableRecord
100
AcDbLayerTableRecord
  2
Adresse Planungsb\U+00fcro
 70
4
 62
30
420
16744192
  6
Continuous
370
-3
390
F
  0
LAYER
  5
62
100
AcDbSymbolTableRecord
100
AcDbLayerTableRecord
  2
Plankopf Text Vorgabe
 70
4
 62
1
420
16711680
  6
Continuous
370
-3
390
F
  0
ENDTAB
  0
TABLE
  2
STYLE
  5
3
100
AcDbSymbolTable
 70
69
  0
STYLE
  5
63
100
AcDbSymbolTableRecord
100
AcDbTextStyleTableRecord
  2
Standard
 70
0
 40
0.0
 41
1.0
 50
0.0
 71
0
 42
2.5
  3

  4

1001
ACAD
1000
txt
1071
0
  0
STYLE
  5
64
100
AcDbSymbolTableRecord
100
AcDbTextStyleTableRecord
  2
textstyle0
 70
0
 40
0.0
 41
1.0
 50
0.0
 71
0
 42
1.9958399999999998
  3

  4

1001
ACAD
1000
Liberation Sans
1071
0
  0
STYLE
  5
65
100
AcDbSymbolTableRecord
100
AcDbTextStyleTableRecord
  2
textstyle1
 70
0
 40
0.0
 41
1.0
 50
0.0
 71
0
 42
1.9958399999999998
  3

  4

1001
ACAD
1000
Liberation Sans
1071
0
  0
STYLE
  5
66
100
AcDbSymbolTableRecord
100
AcDbTextStyleTableRecord
  2
textstyle2
 70
0
 40
0.0
 41
1.0
 50
0.0
 71
0
 42
1.9958399999999998
  3

  4

1001
ACAD
1000
Liberation Sans
1071
0
  0
STYLE
  5
67
100
AcDbSymbolTableRecord
100
AcDbTextStyleTableRecord
  2
textstyle3
 70
0
 40
0.0
 41
1.0
 50
0.0
 71
0
 42
1.9958399999999998
  3

  4

1001
ACAD
1000
Liberation Sans
1071
0
  0
STYLE
  5
68
100
AcDbSymbolTableRecord
100
AcDbTextStyleTableRecord
  2
textstyle4
 70
0
 40
0.0
 41
1.0
 50
0.0
 71
0
 42
1.9958399999999998
  3

  4

1001
ACAD
1000
Liberation Sans
1071
0
  0
STYLE
  5
69
100
AcDbSymbolTableRecord
100
AcDbTextStyleTableRecord
  2
textstyle5
 70
0
 40
0.0
 41
1.0
 50
0.0
 71
0
 42
1.9958399999999998
  3

  4

1001
ACAD
1000
Liberation Sans
1071
0
  0
STYLE
  5
6A
100
AcDbSymbolTableRecord
100
AcDbTextStyleTableRecord
  2
textstyle6
 70
0
 40
0.0
 41
1.0
 50
0.0
 71
0
 42
3.4927199999999998
  3

  4

1001
ACAD
1000
Liberation Sans
1071
0
  0
STYLE
  5
6B
100
AcDbSymbolTableRecord
100
AcDbTextStyleTableRecord
  2
textstyle7
 70
0
 40
0.0
 41
1.0
 50
0.0
 71
0
 42
3.4927199999999998
  3

  4

1001
ACAD
1000
Liberation Sans
1071
0
  0
STYLE
  5
6C
100
AcDbSymbolTableRecord
100
AcDbTextStyleTableRecord
  2
textstyle8
 70
0
 40
0.0
 41
1.0
 50
0.0
 71
0
 42
3.4927199999999998
  3

  4

1001
ACAD
1000
Liberation Sans
1071
0
  0
STYLE
  5
6D
100
AcDbSymbolTableRecord
100
AcDbTextStyleTableRecord
  2
textstyle9
 70
0
 40
0.0
 41
1.0
 50
0.0
 71
0
 42
3.4927199999999998
  3

  4

1001
ACAD
1000
Liberation Sans
1071
0
  0
STYLE
  5
6E
100
AcDbSymbolTableRecord
100
AcDbTextStyleTableRecord
  2
textstyle10
 70
0
 40
0.0
 41
1.0
 50
0.0
 71
0
 42
3.4927199999999998
  3

  4

1001
ACAD
1000
Liberation Sans
1071
0
  0
STYLE
  5
6F
100
AcDbSymbolTableRecord
100
AcDbTextStyleTableRecord
  2
textstyle11
 70
0
 40
0.0
 41
1.0
 50
0.0
 71
0
 42
3.4927199999999998
  3

  4

1001
ACAD
1000
Liberation Sans
1071
0
  0
STYLE
  5
70
100
AcDbSymbolTableRecord
100
AcDbTextStyleTableRecord
  2
textstyle12
 70
0
 40
0.0
 41
1.0
 50
0.0
 71
0
 42
3.4927199999999998
  3

  4

1001
ACAD
1000
Liberation Sans
1071
0
  0
STYLE
  5
71
100
AcDbSymbolTableRecord
100
AcDbTextStyleTableRecord
  2
textstyle13
 70
0
 40
0.0
 41
1.0
 50
0.0
 71
0
 42
3.4927199999999998
  3

  4

1001
ACAD
1000
Liberation Sans
1071
0
  0
STYLE
  5
72
100
AcDbSymbolTableRecord
100
AcDbTextStyleTableRecord
  2
textstyle14
 70
0
 40
0.0
 41
1.0
 50
0.0
 71
0
 42
1.9958399999999998
  3

  4

1001
ACAD
1000
Liberation Sans
1071
0
  0
STYLE
  5
73
100
AcDbSymbolTableRecord
100
AcDbTextStyleTableRecord
  2
textstyle15
 70
0
 40
0.0
 41
1.0
 50
0.0
 71
0
 42
1.9958399999999998
  3

  4

1001
ACAD
1000
Liberation Sans
1071
0
  0
STYLE
  5
74
100
AcDbSymbolTableRecord
100
AcDbTextStyleTableRecord
  2
textstyle16
 70
0
 40
0.0
 41
1.0
 50
0.0
 71
0
 42
1.9958399999999998
  3

  4

1001
ACAD
1000
Liberation Sans
1071
0
  0
STYLE
  5
75
100
AcDbSymbolTableRecord
100
AcDbTextStyleTableRecord
  2
textstyle17
 70
0
 40
0.0
 41
1.0
 50
0.0
 71
0
 42
1.9958399999999998
  3

  4

1001
ACAD
1000
Liberation Sans
1071
0
  0
STYLE
  5
76
100
AcDbSymbolTableRecord
100
AcDbTextStyleTableRecord
  2
textstyle18
 70
0
 40
0.0
 41
1.0
 50
0.0
 71
0
 42
1.9958399999999998
  3

  4

1001
ACAD
1000
Liberation Sans
1071
0
  0
STYLE
  5
77
100
AcDbSymbolTableRecord
100
AcDbTextStyleTableRecord
  2
textstyle19
 70
0
 40
0.0
 41
1.0
 50
0.0
 71
0
 42
1.9958399999999998
  3

  4

1001
ACAD
1000
Liberation Sans
1071
0
  0
STYLE
  5
78
100
AcDbSymbolTableRecord
100
AcDbTextStyleTableRecord
  2
textstyle20
 70
0
 40
0.0
 41
1.0
 50
0.0
 71
0
 42
1.9958399999999998
  3

  4

1001
ACAD
1000
Liberation Sans
1071
0
  0
STYLE
  5
79
100
AcDbSymbolTableRecord
100
AcDbTextStyleTableRecord
  2
textstyle21
 70
0
 40
0.0
 41
1.0
 50
0.0
 71
0
 42
1.9958399999999998
  3

  4

1001
ACAD
1000
Liberation Sans
1071
0
  0
STYLE
  5
7A
100
AcDbSymbolTableRecord
100
AcDbTextStyleTableRecord
  2
textstyle22
 70
0
 40
0.0
 41
1.0
 50
0.0
 71
0
 42
3.4927199999999998
  3

  4

1001
ACAD
1000
Liberation Sans
1071
0
  0
STYLE
  5
7B
100
AcDbSymbolTableRecord
100
AcDbTextStyleTableRecord
  2
textstyle23
 70
0
 40
0.0
 41
1.0
 50
0.0
 71
0
 42
3.4927199999999998
  3

  4

1001
ACAD
1000
Liberation Sans
1071
0
  0
STYLE
  5
7C
100
AcDbSymbolTableRecord
100
AcDbTextStyleTableRecord
  2
textstyle24
 70
0
 40
0.0
 41
1.0
 50
0.0
 71
0
 42
3.4927199999999998
  3

  4

1001
ACAD
1000
Liberation Sans
1071
0
  0
STYLE
  5
7D
100
AcDbSymbolTableRecord
100
AcDbTextStyleTableRecord
  2
textstyle25
 70
0
 40
0.0
 41
1.0
 50
0.0
 71
0
 42
3.4927199999999998
  3

  4

1001
ACAD
1000
Liberation Sans
1071
0
  0
STYLE
  5
7E
100
AcDbSymbolTableRecord
100
AcDbTextStyleTableRecord
  2
textstyle26
 70
0
 40
0.0
 41
1.0
 50
0.0
 71
0
 42
3.4927199999999998
  3

  4

1001
ACAD
1000
Liberation Sans
1071
0
  0
STYLE
  5
7F
100
AcDbSymbolTableRecord
100
AcDbTextStyleTableRecord
  2
textstyle27
 70
0
 40
0.0
 41
1.0
 50
0.0
 71
0
 42
3.4927199999999998
  3

  4

1001
ACAD
1000
Liberation Sans
1071
0
  0
STYLE
  5
80
100
AcDbSymbolTableRecord
100
AcDbTextStyleTableRecord
  2
textstyle28
 70
0
 40
0.0
 41
1.0
 50
0.0
 71
0
 42
3.9916799999999997
  3

  4

1001
ACAD
1000
Liberation Sans
1071
16777216
  0
STYLE
  5
81
100
AcDbSymbolTableRecord
100
AcDbTextStyleTableRecord
  2
textstyle29
 70
0
 40
0.0
 41
1.0
 50
0.0
 71
0
 42
1.9958399999999998
  3

  4

1001
ACAD
1000
Liberation Sans
1071
16777216
  0
STYLE
  5
82
100
AcDbSymbolTableRecord
100
AcDbTextStyleTableRecord
  2
textstyle30
 70
0
 40
0.0
 41
1.0
 50
0.0
 71
0
 42
2.99376
  3

  4

1001
ACAD
1000
Liberation Sans
1071
16777216
  0
STYLE
  5
83
100
AcDbSymbolTableRecord
100
AcDbTextStyleTableRecord
  2
textstyle31
 70
0
 40
0.0
 41
1.0
 50
0.0
 71
0
 42
2.99376
  3

  4

1001
ACAD
1000
Liberation Sans
1071
0
  0
STYLE
  5
84
100
AcDbSymbolTableRecord
100
AcDbTextStyleTableRecord
  2
textstyle32
 70
0
 40
0.0
 41
1.0
 50
0.0
 71
0
 42
1.49688
  3

  4

1001
ACAD
1000
Liberation Sans
1071
0
  0
STYLE
  5
85
100
AcDbSymbolTableRecord
100
AcDbTextStyleTableRecord
  2
textstyle33
 70
0
 40
0.0
 41
1.0
 50
0.0
 71
0
 42
1.49688
  3

  4

1001
ACAD
1000
Liberation Sans
1071
0
  0
STYLE
  5
86
100
AcDbSymbolTableRecord
100
AcDbTextStyleTableRecord
  2
textstyle34
 70
0
 40
0.0
 41
1.0
 50
0.0
 71
0
 42
1.49688
  3

  4

1001
ACAD
1000
Liberation Sans
1071
0
  0
STYLE
  5
87
100
AcDbSymbolTableRecord
100
AcDbTextStyleTableRecord
  2
textstyle35
 70
0
 40
0.0
 41
1.0
 50
0.0
 71
0
 42
1.3970879999999999
  3

  4

1001
ACAD
1000
Liberation Sans
1071
0
  0
STYLE
  5
88
100
AcDbSymbolTableRecord
100
AcDbTextStyleTableRecord
  2
textstyle36
 70
0
 40
0.0
 41
1.0
 50
0.0
 71
0
 42
1.49688
  3

  4

1001
ACAD
1000
Liberation Sans
1071
0
  0
STYLE
  5
89
100
AcDbSymbolTableRecord
100
AcDbTextStyleTableRecord
  2
textstyle37
 70
0
 40
0.0
 41
1.0
 50
0.0
 71
0
 42
1.49688
  3

  4

1001
ACAD
1000
Liberation Sans
1071
0
  0
STYLE
  5
8A
100
AcDbSymbolTableRecord
100
AcDbTextStyleTableRecord
  2
textstyle38
 70
0
 40
0.0
 41
1.0
 50
0.0
 71
0
 42
1.49688
  3

  4

1001
ACAD
1000
Liberation Sans
1071
0
  0
STYLE
  5
8B
100
AcDbSymbolTableRecord
100
AcDbTextStyleTableRecord
  2
textstyle39
 70
0
 40
0.0
 41
1.0
 50
0.0
 71
0
 42
1.49688
  3

  4

1001
ACAD
1000
Liberation Sans
1071
0
  0
STYLE
  5
8C
100
AcDbSymbolTableRecord
100
AcDbTextStyleTableRecord
  2
textstyle40
 70
0
 40
0.0
 41
1.0
 50
0.0
 71
0
 42
1.49688
  3

  4

1001
ACAD
1000
Liberation Sans
1071
0
  0
STYLE
  5
8D
100
AcDbSymbolTableRecord
100
AcDbTextStyleTableRecord
  2
textstyle41
 70
0
 40
0.0
 41
1.0
 50
0.0
 71
0
 42
1.49688
  3

  4

1001
ACAD
1000
Liberation Sans
1071
0
  0
STYLE
  5
8E
100
AcDbSymbolTableRecord
100
AcDbTextStyleTableRecord
  2
textstyle42
 70
0
 40
0.0
 41
1.0
 50
0.0
 71
0
 42
1.49688
  3

  4

1001
ACAD
1000
Liberation Sans
1071
0
  0
STYLE
  5
8F
100
AcDbSymbolTableRecord
100
AcDbTextStyleTableRecord
  2
textstyle43
 70
0
 40
0.0
 41
1.0
 50
0.0
 71
0
 42
4.9895999999999994
  3

  4

1001
ACAD
1000
Liberation Sans
1071
0
  0
STYLE
  5
90
100
AcDbSymbolTableRecord
100
AcDbTextStyleTableRecord
  2
textstyle44
 70
0
 40
0.0
 41
1.0
 50
0.0
 71
0
 42
3.9916799999999997
  3

  4

1001
ACAD
1000
Liberation Sans
1071
0
  0
STYLE
  5
91
100
AcDbSymbolTableRecord
100
AcDbTextStyleTableRecord
  2
textstyle45
 70
0
 40
0.0
 41
1.0
 50
0.0
 71
0
 42
3.9916799999999997
  3

  4

1001
ACAD
1000
Liberation Sans
1071
0
  0
STYLE
  5
92
100
AcDbSymbolTableRecord
100
AcDbTextStyleTableRecord
  2
textstyle46
 70
0
 40
0.0
 41
1.0
 50
0.0
 71
0
 42
3.9916799999999997
  3

  4

1001
ACAD
1000
Liberation Sans
1071
0
  0
STYLE
  5
93
100
AcDbSymbolTableRecord
100
AcDbTextStyleTableRecord
  2
textstyle47
 70
0
 40
0.0
 41
1.0
 50
0.0
 71
0
 42
4.9895999999999994
  3

  4

1001
ACAD
1000
Liberation Sans
1071
0
  0
STYLE
  5
94
100
AcDbSymbolTableRecord
100
AcDbTextStyleTableRecord
  2
textstyle48
 70
0
 40
0.0
 41
1.0
 50
0.0
 71
0
 42
3.9916799999999997
  3

  4

1001
ACAD
1000
Liberation Sans
1071
0
  0
STYLE
  5
95
100
AcDbSymbolTableRecord
100
AcDbTextStyleTableRecord
  2
textstyle49
 70
0
 40
0.0
 41
1.0
 50
0.0
 71
0
 42
2.4947999999999997
  3

  4

1001
ACAD
1000
Liberation Sans
1071
0
  0
STYLE
  5
96
100
AcDbSymbolTableRecord
100
AcDbTextStyleTableRecord
  2
textstyle50
 70
0
 40
0.0
 41
1.0
 50
0.0
 71
0
 42
2.4947999999999997
  3

  4

1001
ACAD
1000
Liberation Sans
1071
0
  0
STYLE
  5
97
100
AcDbSymbolTableRecord
100
AcDbTextStyleTableRecord
  2
textstyle51
 70
0
 40
0.0
 41
1.0
 50
0.0
 71
0
 42
2.4947999999999997
  3

  4

1001
ACAD
1000
Liberation Sans
1071
0
  0
STYLE
  5
98
100
AcDbSymbolTableRecord
100
AcDbTextStyleTableRecord
  2
textstyle52
 70
0
 40
0.0
 41
1.0
 50
0.0
 71
0
 42
2.4947999999999997
  3

  4

1001
ACAD
1000
Liberation Sans
1071
0
  0
STYLE
  5
99
100
AcDbSymbolTableRecord
100
AcDbTextStyleTableRecord
  2
textstyle53
 70
0
 40
0.0
 41
1.0
 50
0.0
 71
0
 42
2.4947999999999997
  3

  4

1001
ACAD
1000
Liberation Sans
1071
0
  0
STYLE
  5
9A
100
AcDbSymbolTableRecord
100
AcDbTextStyleTableRecord
  2
textstyle54
 70
0
 40
0.0
 41
1.0
 50
0.0
 71
0
 42
2.4947999999999997
  3

  4

1001
ACAD
1000
Liberation Sans
1071
0
  0
STYLE
  5
9B
100
AcDbSymbolTableRecord
100
AcDbTextStyleTableRecord
  2
textstyle55
 70
0
 40
0.0
 41
1.0
 50
0.0
 71
0
 42
2.4947999999999997
  3

  4

1001
ACAD
1000
Liberation Sans
1071
0
  0
STYLE
  5
9C
100
AcDbSymbolTableRecord
100
AcDbTextStyleTableRecord
  2
textstyle56
 70
0
 40
0.0
 41
1.0
 50
0.0
 71
0
 42
2.4947999999999997
  3

  4

1001
ACAD
1000
Liberation Sans
1071
0
  0
STYLE
  5
9D
100
AcDbSymbolTableRecord
100
AcDbTextStyleTableRecord
  2
textstyle57
 70
0
 40
0.0
 41
1.0
 50
0.0
 71
0
 42
2.99376
  3

  4

1001
ACAD
1000
Liberation Sans
1071
0
  0
STYLE
  5
9E
100
AcDbSymbolTableRecord
100
AcDbTextStyleTableRecord
  2
textstyle58
 70
0
 40
0.0
 41
1.0
 50
0.0
 71
0
 42
2.99376
  3

  4

1001
ACAD
1000
Liberation Sans
1071
0
  0
STYLE
  5
9F
100
AcDbSymbolTableRecord
100
AcDbTextStyleTableRecord
  2
textstyle59
 70
0
 40
0.0
 41
1.0
 50
0.0
 71
0
 42
2.99376
  3

  4

1001
ACAD
1000
Liberation Sans
1071
0
  0
STYLE
  5
A0
100
AcDbSymbolTableRecord
100
AcDbTextStyleTableRecord
  2
textstyle60
 70
0
 40
0.0
 41
1.0
 50
0.0
 71
0
 42
2.99376
  3

  4

1001
ACAD
1000
Liberation Sans
1071
0
  0
STYLE
  5
A1
100
AcDbSymbolTableRecord
100
AcDbTextStyleTableRecord
  2
textstyle61
 70
0
 40
0.0
 41
1.0
 50
0.0
 71
0
 42
2.99376
  3

  4

1001
ACAD
1000
Liberation Sans
1071
0
  0
STYLE
  5
A2
100
AcDbSymbolTableRecord
100
AcDbTextStyleTableRecord
  2
textstyle62
 70
0
 40
0.0
 41
1.0
 50
0.0
 71
0
 42
2.99376
  3

  4

1001
ACAD
1000
Liberation Sans
1071
0
  0
STYLE
  5
A3
100
AcDbSymbolTableRecord
100
AcDbTextStyleTableRecord
  2
textstyle63
 70
0
 40
0.0
 41
1.0
 50
0.0
 71
0
 42
2.99376
  3

  4

1001
ACAD
1000
Liberation Sans
1071
0
  0
STYLE
  5
A4
100
AcDbSymbolTableRecord
100
AcDbTextStyleTableRecord
  2
textstyle64
 70
0
 40
0.0
 41
1.0
 50
0.0
 71
0
 42
2.99376
  3

  4

1001
ACAD
1000
Liberation Sans
1071
0
  0
STYLE
  5
A5
100
AcDbSymbolTableRecord
100
AcDbTextStyleTableRecord
  2
textstyle65
 70
0
 40
0.0
 41
1.0
 50
0.0
 71
0
 42
2.99376
  3

  4

1001
ACAD
1000
Liberation Sans
1071
0
  0
STYLE
  5
A6
100
AcDbSymbolTableRecord
100
AcDbTextStyleTableRecord
  2
textstyle66
 70
0
 40
0.0
 41
1.0
 50
0.0
 71
0
 42
2.99376
  3

  4

1001
ACAD
1000
Liberation Sans
1071
0
  0
STYLE
  5
A7
100
AcDbSymbolTableRecord
100
AcDbTextStyleTableRecord
  2
textstyle67
 70
0
 40
0.0
 41
1.0
 50
0.0
 71
0
 42
2.99376
  3

  4

1001
ACAD
1000
Liberation Sans
1071
0
  0
ENDTAB
  0
TABLE
  2
VIEW
  5
6
100
AcDbSymbolTable
 70
0
  0
ENDTAB
  0
TABLE
  2
UCS
  5
7
100
AcDbSymbolTable
 70
0
  0
ENDTAB
  0
TABLE
  2
APPID
  5
9
100
AcDbSymbolTable
 70
1
  0
APPID
  5
12
100
AcDbSymbolTableRecord
100
AcDbRegAppTableRecord
  2
ACAD
 70
0
  0
APPID
  5
A8
100
AcDbSymbolTableRecord
100
AcDbRegAppTableRecord
  2
QCAD
 70
0
  0
ENDTAB
  0
TABLE
  2
DIMSTYLE
  5
A
100
AcDbSymbolTable
 70
1
100
AcDbDimStyleTable
 71
0
  0
DIMSTYLE
105
27
100
AcDbSymbolTableRecord
100
AcDbDimStyleTableRecord
  2
Standard
 41
2.5
 42
0.625
 43
3.75
 44
1.25
 70
0
 73
0
 74
0
 77
1
 78
8
140
2.5
141
2.5
143
0.03937007874016
147
0.625
171
3
172
1
271
2
272
2
274
3
278
44
283
0
284
8
340
63
  0
ENDTAB
  0
TABLE
  2
BLOCK_RECORD
  5
1
100
AcDbSymbolTable
 70
1
  0
BLOCK_RECORD
  5
1F
100
AcDbSymbolTableRecord
100
AcDbBlockTableRecord
  2
*Model_Space
340
22
  0
BLOCK_RECORD
  5
1B
100
AcDbSymbolTableRecord
100
AcDbBlockTableRecord
  2
*Paper_Space
340
1E
  0
BLOCK_RECORD
  5
23
100
AcDbSymbolTableRecord
100
AcDbBlockTableRecord
  2
*Paper_Space0
340
26
  0
BLOCK_RECORD
  5
A9
100
AcDbSymbolTableRecord
100
AcDbBlockTableRecord
  2
DIN-A0-Zeichnungsrahmen
340
0
  0
ENDTAB
  0
ENDSEC
  0
SECTION
  2
BLOCKS
  0
BLOCK
  5
20
100
AcDbEntity
  8
0
100
AcDbBlockBegin
  2
*Model_Space
 70
0
 10
0.0
 20
0.0
 30
0.0
  3
*Model_Space
  1

  0
ENDBLK
  5
21
100
AcDbEntity
  8
0
100
AcDbBlockEnd
  0
BLOCK
  5
1C
100
AcDbEntity
 67
1
  8
0
100
AcDbBlockBegin
  2
*Paper_Space
 70
0
 10
0.0
 20
0.0
 30
0.0
  3
*Paper_Space
  1

  0
ENDBLK
  5
1D
100
AcDbEntity
 67
1
  8
0
100
AcDbBlockEnd
  0
BLOCK
  5
24
100
AcDbEntity
  8
0
100
AcDbBlockBegin
  2
*Paper_Space0
 70
0
 10
0.0
 20
0.0
 30
0.0
  3
*Paper_Space0
  1

  0
ENDBLK
  5
25
100
AcDbEntity
  8
0
100
AcDbBlockEnd
  0
BLOCK
  5
AA
100
AcDbEntity
  8
0
100
AcDbBlockBegin
  2
DIN-A0-Zeichnungsrahmen
 70
0
 10
0.0
 20
0.0
 30
0.0
  3
DIN-A0-Zeichnungsrahmen
  1

  0
LINE
  5
AB
100
AcDbEntity
100
AcDbLine
  8
0
 62
7
420
16777215
370
-1
 48
1.0
  6
ByLayer
 10
20.0
 20
420.5
 30
0.0
 11
15.0
 21
420.5
 31
0.0
  0
LINE
  5
AC
100
AcDbEntity
100
AcDbLine
  8
0
 62
256
370
-1
 48
1.0
  6
ByLayer
 10
604.5
 20
5.0
 30
0.0
 11
604.5
 21
10.0
 31
0.0
  0
ENDBLK
  5
AD
100
AcDbEntity
  8
0
100
AcDbBlockEnd
  0
ENDSEC
  0
SECTION
  2
ENTITIES
  0
LINE
  5
AE
100
AcDbEntity
100
AcDbLine
  8
Blattrahmen
 62
256
370
-1
 48
1.0
  6
ByLayer
 10
0.0
 20
0.0
 30
0.0
 11
0.0
 21
841.0
 31
0.0
  0
LINE
  5
AF
100
AcDbEntity
100
AcDbLine
  8
Blattrahmen
 62
256
370
-1
 48
1.0
  6
ByLayer
 10
0.0
 20
841.0
 30
0.0
 11
1189.0
 21
841.0
 31
0.0
  0
LINE
  5
B0
100
AcDbEntity
100
AcDbLine
  8
Blattrahmen
 62
256
370
-1
 48
1.0
  6
ByLayer
 10
1189.0
 20
841.0
 30
0.0
 11
1189.0
 21
0.0
 31
0.0
  0
LINE
  5
B1
100
AcDbEntity
100
AcDbLine
  8
Blattrahmen
 62
256
370
-1
 48
1.0
  6
ByLayer
 10
1189.0
 20
0.0
 30
0.0
 11
0.0
 21
0.0
 31
0.0
  0
LINE
  5
B2
100
AcDbEntity
100
AcDbLine
  8
Planecken
 62
256
370
-1
 48
1.0
  6
ByLayer
 10
0.0
 20
0.0
 30
0.0
 11
0.0
 21
10.0
 31
0.0
  0
LINE
  5
B3
100
AcDbEntity
100
AcDbLine
  8
Planecken
 62
256
370
-1
 48
1.0
  6
ByLayer
 10
0.0
 20
10.0
 30
0.0
 11
5.0
 21
10.0
 31
0.0
  0
LINE
  5
B4
100
AcDbEntity
100
AcDbLine
  8
Planecken
 62
256
370
-1
 48
1.0
  6
ByLayer
 10
5.0
 20
10.0
 30
0.0
 11
5.0
 21
5.0
 31
0.0
  0
LINE
  5
B5
100
AcDbEntity
100
AcDbLine
  8
Planecken
 62
256
370
-1
 48
1.0
  6
ByLayer
 10
5.0
 20
5.0
 30
0.0
 11
10.0
 21
5.0
 31
0.0
  0
LINE
  5
B6
100
AcDbEntity
100
AcDbLine
  8
Planecken
 62
256
370
-1
 48
1.0
  6
ByLayer
 10
10.0
 20
5.0
 30
0.0
 11
10.0
 21
0.0
 31
0.0
  0
LINE
  5
B7
100
AcDbEntity
100
AcDbLine
  8
Planecken
 62
256
370
-1
 48
1.0
  6
ByLayer
 10
0.0
 20
0.0
 30
0.0
 11
10.0
 21
0.0
 31
0.0
  0
HATCH
  5
B8
  8
Planecken
 62
256
370
-1
 48
1.0
  6
ByLayer
100
AcDbEntity
100
AcDbHatch
 10
0.0
 20
0.0
 30
0.0
210
0.0
220
0.0
230
1.0
  2
SOLID
 70
1
 71
0
 91
1
 92
1
 93
6
 72
1
 10
0.0
 20
0.0
 11
0.0
 21
10.0
 72
1
 10
0.0
 20
10.0
 11
5.0
 21
10.0
 72
1
 10
5.0
 20
10.0
 11
5.0
 21
5.0
 72
1
 10
5.0
 20
5.0
 11
10.0
 21
5.0
 72
1
 10
10.0
 20
5.0
 11
10.0
 21
0.0
 72
1
 10
10.0
 20
0.0
 11
0.0
 21
0.0
 97
0
 75
0
 76
1
 98
0
1001
ACAD
1010
0.0
1020
0.0
1030
0
  0
LINE
  5
B9
100
AcDbEntity
100
AcDbLine
  8
Planecken
 62
256
370
-1
 48
1.0
  6
ByLayer
 10
0.0
 20
841.0
 30
0.0
 11
10.0
 21
841.0
 31
0.0
  0
LINE
  5
BA
100
AcDbEntity
100
AcDbLine
  8
Planecken
 62
256
370
-1
 48
1.0
  6
ByLayer
 10
10.0
 20
841.0
 30
0.0
 11
10.0
 21
836.0
 31
0.0
  0
LINE
  5
BB
100
AcDbEntity
100
AcDbLine
  8
Planecken
 62
256
370
-1
 48
1.0
  6
ByLayer
 10
10.0
 20
836.0
 30
0.0
 11
5.0
 21
836.0
 31
0.0
  0
LINE
  5
BC
100
AcDbEntity
100
AcDbLine
  8
Planecken
 62
256
370
-1
 48
1.0
  6
ByLayer
 10
5.0
 20
836.0
 30
0.0
 11
5.0
 21
831.0
 31
0.0
  0
LINE
  5
BD
100
AcDbEntity
100
AcDbLine
  8
Planecken
 62
256
370
-1
 48
1.0
  6
ByLayer
 10
5.0
 20
831.0
 30
0.0
 11
0.0
 21
831.0
 31
0.0
  0
LINE
  5
BE
100
AcDbEntity
100
AcDbLine
  8
Planecken
 62
256
370
-1
 48
1.0
  6
ByLayer
 10
0.0
 20
831.0
 30
0.0
 11
0.0
 21
841.0
 31
0.0
  0
HATCH
  5
BF
  8
Planecken
 62
256
370
-1
 48
1.0
  6
ByLayer
100
AcDbEntity
100
AcDbHatch
 10
0.0
 20
0.0
 30
0.0
210
0.0
220
0.0
230
1.0
  2
SOLID
 70
1
 71
0
 91
1
 92
1
 93
6
 72
1
 10
10.0
 20
841.0
 11
10.0
 21
836.0
 72
1
 10
10.0
 20
836.0
 11
5.0
 21
836.0
 72
1
 10
5.0
 20
836.0
 11
5.0
 21
831.0
 72
1
 10
5.0
 20
831.0
 11
0.0
 21
831.0
 72
1
 10
0.0
 20
831.0
 11
0.0
 21
841.0
 72
1
 10
0.0
 20
841.0
 11
10.0
 21
841.0
 97
0
 75
0
 76
1
 98
0
1001
ACAD
1010
0.0
1020
0.0
1030
0
  0
LINE
  5
C0
100
AcDbEntity
100
AcDbLine
  8
Planecken
 62
256
370
-1
 48
1.0
  6
ByLayer
 10
1179.0
 20
841.0
 30
0.0
 11
1189.0
 21
841.0
 31
0.0
  0
LINE
  5
C1
100
AcDbEntity
100
AcDbLine
  8
Planecken
 62
256
370
-1
 48
1.0
  6
ByLayer
 10
1189.0
 20
841.0
 30
0.0
 11
1189.0
 21
831.0
 31
0.0
  0
LINE
  5
C2
100
AcDbEntity
100
AcDbLine
  8
Planecken
 62
256
370
-1
 48
1.0
  6
ByLayer
 10
1189.0
 20
831.0
 30
0.0
 11
1184.0
 21
831.0
 31
0.0
  0
LINE
  5
C3
100
AcDbEntity
100
AcDbLine
  8
Planecken
 62
256
370
-1
 48
1.0
  6
ByLayer
 10
1184.0
 20
831.0
 30
0.0
 11
1184.0
 21
836.0
 31
0.0
  0
LINE
  5
C4
100
AcDbEntity
100
AcDbLine
  8
Planecken
 62
256
370
-1
 48
1.0
  6
ByLayer
 10
1184.0
 20
836.0
 30
0.0
 11
1179.0
 21
836.0
 31
0.0
  0
LINE
  5
C5
100
AcDbEntity
100
AcDbLine
  8
Planecken
 62
256
370
-1
 48
1.0
  6
ByLayer
 10
1179.0
 20
836.0
 30
0.0
 11
1179.0
 21
841.0
 31
0.0
  0
HATCH
  5
C6
  8
Planecken
 62
256
370
-1
 48
1.0
  6
ByLayer
100
AcDbEntity
100
AcDbHatch
 10
0.0
 20
0.0
 30
0.0
210
0.0
220
0.0
230
1.0
  2
SOLID
 70
1
 71
0
 91
1
 92
1
 93
6
 72
1
 10
1179.0
 20
841.0
 11
1189.0
 21
841.0
 72
1
 10
1189.0
 20
841.0
 11
1189.0
 21
831.0
 72
1
 10
1189.0
 20
831.0
 11
1184.0
 21
831.0
 72
1
 10
1184.0
 20
831.0
 11
1184.0
 21
836.0
 72
1
 10
1184.0
 20
836.0
 11
1179.0
 21
836.0
 72
1
 10
1179.0
 20
836.0
 11
1179.0
 21
841.0
 97
0
 75
0
 76
1
 98
0
1001
ACAD
1010
0.0
1020
0.0
1030
0
  0
LINE
  5
C7
100
AcDbEntity
100
AcDbLine
  8
Planecken
 62
256
370
-1
 48
1.0
  6
ByLayer
 10
1189.0
 20
10.0
 30
0.0
 11
1184.0
 21
10.0
 31
0.0
  0
LINE
  5
C8
100
AcDbEntity
100
AcDbLine
  8
Planecken
 62
256
370
-1
 48
1.0
  6
ByLayer
 10
1184.0
 20
10.0
 30
0.0
 11
1184.0
 21
5.0
 31
0.0
  0
LINE
  5
C9
100
AcDbEntity
100
AcDbLine
  8
Planecken
 62
256
370
-1
 48
1.0
  6
ByLayer
 10
1184.0
 20
5.0
 30
0.0
 11
1179.0
 21
5.0
 31
0.0
  0
LINE
  5
CA
100
AcDbEntity
100
AcDbLine
  8
Planecken
 62
256
370
-1
 48
1.0
  6
ByLayer
 10
1179.0
 20
5.0
 30
0.0
 11
1179.0
 21
0.0
 31
0.0
  0
LINE
  5
CB
100
AcDbEntity
100
AcDbLine
  8
Planecken
 62
256
370
-1
 48
1.0
  6
ByLayer
 10
1179.0
 20
0.0
 30
0.0
 11
1189.0
 21
0.0
 31
0.0
  0
LINE
  5
CC
100
AcDbEntity
100
AcDbLine
  8
Planecken
 62
256
370
-1
 48
1.0
  6
ByLayer
 10
1189.0
 20
0.0
 30
0.0
 11
1189.0
 21
10.0
 31
0.0
  0
HATCH
  5
CD
  8
Planecken
 62
256
370
-1
 48
1.0
  6
ByLayer
100
AcDbEntity
100
AcDbHatch
 10
0.0
 20
0.0
 30
0.0
210
0.0
220
0.0
230
1.0
  2
SOLID
 70
1
 71
0
 91
1
 92
1
 93
6
 72
1
 10
1179.0
 20
0.0
 11
1189.0
 21
0.0
 72
1
 10
1189.0
 20
0.0
 11
1189.0
 21
10.0
 72
1
 10
1189.0
 20
10.0
 11
1184.0
 21
10.0
 72
1
 10
1184.0
 20
10.0
 11
1184.0
 21
5.0
 72
1
 10
1184.0
 20
5.0
 11
1179.0
 21
5.0
 72
1
 10
1179.0
 20
5.0
 11
1179.0
 21
0.0
 97
0
 75
0
 76
1
 98
0
1001
ACAD
1010
0.0
1020
0.0
1030
0
  0
LINE
  5
CE
100
AcDbEntity
100
AcDbLine
  8
Zeichnungsrahmen_blau
 62
256
370
-1
 48
1.0
  6
ByLayer
 10
1184.0
 20
5.0
 30
0.0
 11
15.0
 21
5.0
 31
0.0
  0
LINE
  5
CF
100
AcDbEntity
100
AcDbLine
  8
Zeichnungsrahmen_blau
 62
256
370
-1
 48
1.0
  6
ByLayer
 10
15.0
 20
5.0
 30
0.0
 11
15.0
 21
836.0
 31
0.0
  0
LINE
  5
D0
100
AcDbEntity
100
AcDbLine
  8
Zeichnungsrahmen_blau
 62
256
370
-1
 48
1.0
  6
ByLayer
 10
15.0
 20
836.0
 30
0.0
 11
1184.0
 21
836.0
 31
0.0
  0
LINE
  5
D1
100
AcDbEntity
100
AcDbLine
  8
Zeichnungsrahmen_blau
 62
256
370
-1
 48
1.0
  6
ByLayer
 10
1184.0
 20
836.0
 30
0.0
 11
1184.0
 21
5.0
 31
0.0
  0
LINE
  5
D2
100
AcDbEntity
100
AcDbLine
  8
Zeichnungsrahmen rot
 62
256
370
-1
 48
1.0
  6
ByLayer
 10
1182.0
 20
834.0
 30
0.0
 11
17.0
 21
834.0
 31
0.0
  0
LINE
  5
D3
100
AcDbEntity
100
AcDbLine
  8
Zeichnungsrahmen rot
 62
256
370
-1
 48
1.0
  6
ByLayer
 10
17.0
 20
834.0
 30
0.0
 11
17.0
 21
7.0
 31
0.0
  0
LINE
  5
D4
100
AcDbEntity
100
AcDbLine
  8
Zeichnungsrahmen rot
 62
256
370
-1
 48
1.0
  6
ByLayer
 10
17.0
 20
7.0
 30
0.0
 11
1182.0
 21
7.0
 31
0.0
  0
LINE
  5
D5
100
AcDbEntity
100
AcDbLine
  8
Zeichnungsrahmen rot
 62
256
370
-1
 48
1.0
  6
ByLayer
 10
1182.0
 20
7.0
 30
0.0
 11
1182.0
 21
834.0
 31
0.0
  0
LINE
  5
D6
100
AcDbEntity
100
AcDbLine
  8
Faltmarken
 62
256
370
-1
 48
1.0
  6
ByLayer
 10
20.0
 20
5.0
 30
0.0
 11
20.0
 21
0.0
 31
0.0
  0
LINE
  5
D7
100
AcDbEntity
100
AcDbLine
  8
Faltmarken
 62
256
370
-1
 48
1.0
  6
ByLayer
 10
20.0
 20
841.0
 30
0.0
 11
20.0
 21
836.0
 31
0.0
  0
LINE
  5
D8
100
AcDbEntity
100
AcDbLine
  8
Faltmarken
 62
256
370
-1
 48
1.0
  6
ByLayer
 10
889.5
 20
5.0
 30
0.0
 11
889.5
 21
0.0
 31
0.0
  0
LINE
  5
D9
100
AcDbEntity
100
AcDbLine
  8
Faltmarken
 62
256
370
-1
 48
1.0
  6
ByLayer
 10
889.5
 20
841.0
 30
0.0
 11
889.5
 21
836.0
 31
0.0
  0
LINE
  5
DA
100
AcDbEntity
100
AcDbLine
  8
Faltmarken
 62
256
370
-1
 48
1.0
  6
ByLayer
 10
999.0
 20
5.0
 30
0.0
 11
999.0
 21
0.0
 31
0.0
  0
LINE
  5
DB
100
AcDbEntity
100
AcDbLine
  8
Faltmarken
 62
256
370
-1
 48
1.0
  6
ByLayer
 10
999.0
 20
841.0
 30
0.0
 11
999.0
 21
836.0
 31
0.0
  0
LINE
  5
DC
100
AcDbEntity
100
AcDbLine
  8
Faltmarken
 62
256
370
-1
 48
1.0
  6
ByLayer
 10
780.0
 20
841.0
 30
0.0
 11
780.0
 21
836.0
 31
0.0
  0
LINE
  5
DD
100
AcDbEntity
100
AcDbLine
  8
Faltmarken
 62
256
370
-1
 48
1.0
  6
ByLayer
 10
780.0
 20
5.0
 30
0.0
 11
780.0
 21
0.0
 31
0.0
  0
LINE
  5
DE
100
AcDbEntity
100
AcDbLine
  8
Faltmarken
 62
256
370
-1
 48
1.0
  6
ByLayer
 10
590.0
 20
841.0
 30
0.0
 11
590.0
 21
836.0
 31
0.0
  0
LINE
  5
DF
100
AcDbEntity
100
AcDbLine
  8
Faltmarken
 62
256
370
-1
 48
1.0
  6
ByLayer
 10
590.0
 20
5.0
 30
0.0
 11
590.0
 21
0.0
 31
0.0
  0
LINE
  5
E0
100
AcDbEntity
100
AcDbLine
  8
Faltmarken
 62
256
370
-1
 48
1.0
  6
ByLayer
 10
400.0
 20
841.0
 30
0.0
 11
400.0
 21
836.0
 31
0.0
  0
LINE
  5
E1
100
AcDbEntity
100
AcDbLine
  8
Faltmarken
 62
256
370
-1
 48
1.0
  6
ByLayer
 10
400.0
 20
5.0
 30
0.0
 11
400.0
 21
0.0
 31
0.0
  0
LINE
  5
E2
100
AcDbEntity
100
AcDbLine
  8
Faltmarken
 62
256
370
-1
 48
1.0
  6
ByLayer
 10
210.0
 20
841.0
 30
0.0
 11
210.0
 21
836.0
 31
0.0
  0
LINE
  5
E3
100
AcDbEntity
100
AcDbLine
  8
Faltmarken
 62
256
370
-1
 48
1.0
  6
ByLayer
 10
210.0
 20
5.0
 30
0.0
 11
210.0
 21
0.0
 31
0.0
  0
LINE
  5
E4
100
AcDbEntity
100
AcDbLine
  8
Faltmarken
 62
256
370
-1
 48
1.0
  6
ByLayer
 10
1184.0
 20
594.0
 30
0.0
 11
1189.0
 21
594.0
 31
0.0
  0
LINE
  5
E5
100
AcDbEntity
100
AcDbLine
  8
Plankopf Rahmen
 62
256
370
-1
 48
1.0
  6
ByLayer
 10
1002.3681600000004437
 20
10.0
 30
0.0
 11
1002.3681600000004437
 21
59.8960000000000008
 31
0.0
  0
LINE
  5
E6
100
AcDbEntity
100
AcDbLine
  8
Faltmarken
 62
256
370
-1
 48
1.0
  6
ByLayer
 10
0.0000000000000364
 20
594.0
 30
0.0
 11
5.0000000000000364
 21
594.0
 31
0.0
  0
LINE
  5
E7
100
AcDbEntity
100
AcDbLine
  8
Plankopf Rahmen
 62
256
370
-1
 48
1.0
  6
ByLayer
 10
1179.0000000000004547
 20
10.0
 30
0.0
 11
1179.0000000000004547
 21
59.8960000000000008
 31
0.0
  0
LINE
  5
E8
100
AcDbEntity
100
AcDbLine
  8
Faltmarken
 62
256
370
-1
 48
1.0
  6
ByLayer
 10
1184.0
 20
297.0
 30
0.0
 11
1189.0
 21
297.0
 31
0.0
  0
LINE
  5
E9
100
AcDbEntity
100
AcDbLine
  8
Plankopf Rahmen
 62
256
370
-1
 48
1.0
  6
ByLayer
 10
1002.3681600000004437
 20
62.8897599999999954
 30
0.0
 11
1002.3681600000004437
 21
122.7649599999999879
 31
0.0
  0
LINE
  5
EA
100
AcDbEntity
100
AcDbLine
  8
Faltmarken
 62
256
370
-1
 48
1.0
  6
ByLayer
 10
0.0000000000000182
 20
297.0
 30
0.0
 11
5.0000000000000178
 21
297.0
 31
0.0
  0
LINE
  5
EB
100
AcDbEntity
100
AcDbLine
  8
Plankopf Rahmen
 62
256
370
-1
 48
1.0
  6
ByLayer
 10
1179.0000000000004547
 20
62.8897599999999954
 30
0.0
 11
1179.0000000000004547
 21
122.7649599999999879
 31
0.0
  0
LINE
  5
EC
100
AcDbEntity
100
AcDbLine
  8
Faltmarken
 62
256
370
-1
 48
1.0
  6
ByLayer
 10
0.0000000000000091
 20
148.5
 30
0.0
 11
10.0000000000000089
 21
148.5
 31
0.0
  0
LINE
  5
ED
100
AcDbEntity
100
AcDbLine
  8
Plankopf Rahmen
 62
256
370
-1
 48
1.0
  6
ByLayer
 10
1002.3681600000004437
 20
125.7587199999999967
 30
0.0
 11
1002.3681600000004437
 21
155.6963199999999858
 31
0.0
  0
LINE
  5
EE
100
AcDbEntity
100
AcDbLine
  8
Faltmarken
 62
256
370
-1
 48
1.0
  6
ByLayer
 10
-0.0
 20
297.0
 30
0.0
 11
15.0
 21
374.7142857142857224
 31
0.0
  0
LINE
  5
EF
100
AcDbEntity
100
AcDbLine
  8
Plankopf Rahmen
 62
256
370
-1
 48
1.0
  6
ByLayer
 10
1179.0000000000004547
 20
125.7587199999999967
 30
0.0
 11
1179.0000000000004547
 21
155.6963199999999858
 31
0.0
  0
LINE
  5
F0
100
AcDbEntity
100
AcDbLine
  8
Faltmarken
 62
256
370
-1
 48
1.0
  6
ByLayer
 10
105.0
 20
841.0
 30
0.0
 11
104.034926470588232
 21
836.0
 31
0.0
  0
LINE
  5
F1
100
AcDbEntity
100
AcDbLine
  8
Plankopf Rahmen
 62
256
370
-1
 48
1.0
  6
ByLayer
 10
1179.0000000000004547
 20
158.6900799999999947
 30
0.0
 11
1179.0000000000004547
 21
188.6276799999999696
 31
0.0
  0
LINE
  5
F2
100
AcDbEntity
100
AcDbLine
  8
Plankopf Rahmen
 62
256
370
-1
 48
1.0
  6
ByLayer
 10
1002.3681600000004437
 20
158.6900799999999947
 30
0.0
 11
1002.3681600000004437
 21
188.6276799999999696
 31
0.0
  0
LINE
  5
F3
100
AcDbEntity
100
AcDbLine
  8
Plankopf Rahmen
 62
256
370
-1
 48
1.0
  6
ByLayer
 10
1179.0000000000004547
 20
191.6214400000000069
 30
0.0
 11
1179.0000000000004547
 21
210.9810879999999997
 31
0.0
  0
LINE
  5
F4
100
AcDbEntity
100
AcDbLine
  8
Plankopf Rahmen
 62
256
370
-1
 48
1.0
  6
ByLayer
 10
1002.3681600000004437
 20
191.6214400000000069
 30
0.0
 11
1002.3681600000004437
 21
210.9810879999999997
 31
0.0
  0
LINE
  5
F5
100
AcDbEntity
100
AcDbLine
  8
Plankopf Rahmen
 62
256
370
-1
 48
1.0
  6
ByLayer
 10
1179.0000000000004547
 20
210.9810879999999997
 30
0.0
 11
1179.0000000000004547
 21
230.3407359999999926
 31
0.0
  0
LINE
  5
F6
100
AcDbEntity
100
AcDbLine
  8
Plankopf Rahmen
 62
256
370
-1
 48
1.0
  6
ByLayer
 10
1002.3681600000004437
 20
210.9810879999999997
 30
0.0
 11
1002.3681600000004437
 21
230.3407359999999926
 31
0.0
  0
LINE
  5
F7
100
AcDbEntity
100
AcDbLine
  8
Plankopf Rahmen
 62
256
370
-1
 48
1.0
  6
ByLayer
 10
1179.0000000000004547
 20
230.3407359999999926
 30
0.0
 11
1179.0000000000004547
 21
249.7003840000000139
 31
0.0
  0
LINE
  5
F8
100
AcDbEntity
100
AcDbLine
  8
Plankopf Rahmen
 62
256
370
-1
 48
1.0
  6
ByLayer
 10
1002.3681600000004437
 20
230.3407359999999926
 30
0.0
 11
1002.3681600000004437
 21
249.7003840000000139
 31
0.0
  0
LINE
  5
F9
100
AcDbEntity
100
AcDbLine
  8
Plankopf Rahmen
 62
256
370
-1
 48
1.0
  6
ByLayer
 10
1179.0000000000004547
 20
249.7003840000000139
 30
0.0
 11
1179.0000000000004547
 21
269.0600320000000352
 31
0.0
  0
LINE
  5
FA
100
AcDbEntity
100
AcDbLine
  8
Plankopf Rahmen
 62
256
370
-1
 48
1.0
  6
ByLayer
 10
1002.3681600000004437
 20
249.7003840000000139
 30
0.0
 11
1002.3681600000004437
 21
269.0600320000000352
 31
0.0
  0
LINE
  5
FB
100
AcDbEntity
100
AcDbLine
  8
Plankopf Rahmen
 62
256
370
-1
 48
1.0
  6
ByLayer
 10
1179.0000000000004547
 20
269.0600320000000352
 30
0.0
 11
1179.0000000000004547
 21
288.4196799999999712
 31
0.0
  0
LINE
  5
FC
100
AcDbEntity
100
AcDbLine
  8
Plankopf Rahmen
 62
256
370
-1
 48
1.0
  6
ByLayer
 10
1002.3681600000004437
 20
269.0600320000000352
 30
0.0
 11
1002.3681600000004437
 21
288.4196799999999712
 31
0.0
  0
LINE
  5
FD
100
AcDbEntity
100
AcDbLine
  8
Plankopf Rahmen
 62
256
370
-1
 48
1.0
  6
ByLayer
 10
1002.3681600000004437
 20
59.8960000000000008
 30
0.0
 11
1179.0000000000004547
 21
59.8960000000000008
 31
0.0
  0
LINE
  5
FE
100
AcDbEntity
100
AcDbLine
  8
Plankopf Rahmen
 62
256
370
-1
 48
1.0
  6
ByLayer
 10
1002.3681600000004437
 20
62.8897599999999954
 30
0.0
 11
1179.0000000000004547
 21
62.8897599999999954
 31
0.0
  0
LINE
  5
FF
100
AcDbEntity
100
AcDbLine
  8
Plankopf Rahmen
 62
256
370
-1
 48
1.0
  6
ByLayer
 10
1002.3681600000004437
 20
122.7649599999999879
 30
0.0
 11
1179.0000000000004547
 21
122.7649599999999879
 31
0.0
  0
LINE
  5
100
100
AcDbEntity
100
AcDbLine
  8
Plankopf Rahmen
 62
256
370
-1
 48
1.0
  6
ByLayer
 10
1002.3681600000004437
 20
125.7587199999999967
 30
0.0
 11
1179.0000000000004547
 21
125.7587199999999967
 31
0.0
  0
LINE
  5
101
100
AcDbEntity
100
AcDbLine
  8
Plankopf Rahmen
 62
256
370
-1
 48
1.0
  6
ByLayer
 10
1002.3681600000004437
 20
155.6963199999999858
 30
0.0
 11
1179.0000000000004547
 21
155.6963199999999858
 31
0.0
  0
LINE
  5
102
100
AcDbEntity
100
AcDbLine
  8
Plankopf Rahmen
 62
256
370
-1
 48
1.0
  6
ByLayer
 10
1002.3681600000004437
 20
158.6900799999999947
 30
0.0
 11
1179.0000000000004547
 21
158.6900799999999947
 31
0.0
  0
LINE
  5
103
100
AcDbEntity
100
AcDbLine
  8
Plankopf Rahmen
 62
256
370
-1
 48
1.0
  6
ByLayer
 10
1002.3681600000004437
 20
188.6276799999999696
 30
0.0
 11
1179.0000000000004547
 21
188.6276799999999696
 31
0.0
  0
LINE
  5
104
100
AcDbEntity
100
AcDbLine
  8
Plankopf Rahmen
 62
256
370
-1
 48
1.0
  6
ByLayer
 10
1002.3681600000004437
 20
191.6214400000000069
 30
0.0
 11
1179.0000000000004547
 21
191.6214400000000069
 31
0.0
  0
LINE
  5
105
100
AcDbEntity
100
AcDbLine
  8
Plankopf Rahmen
 62
256
370
-1
 48
1.0
  6
ByLayer
 10
1002.3681600000004437
 20
288.4196799999999712
 30
0.0
 11
1179.0000000000004547
 21
288.4196799999999712
 31
0.0
  0
LINE
  5
106
100
AcDbEntity
100
AcDbLine
  8
Plankopf Rahmen
 62
256
370
-1
 48
1.0
  6
ByLayer
 10
1002.3681600000004437
 20
10.0
 30
0.0
 11
1179.0000000000004547
 21
10.0
 31
0.0
  0
MTEXT
  5
107
100
AcDbEntity
100
AcDbMText
  8
Plankopf Text Vorgabe
 62
256
370
-1
 48
1.0
  6
ByLayer
 10
1004.3640000000003738
 20
286.4238400000000979
 30
0.0
 40
1.9958399999999998
 41
0.0
 71
4
 72
1
  1
geplant:
  7
textstyle0
 50
0.0
 73
2
 44
1.0
  0
MTEXT
  5
108
100
AcDbEntity
100
AcDbMText
  8
Plankopf Text Vorgabe
 62
256
370
-1
 48
1.0
  6
ByLayer
 10
1004.3640000000003738
 20
286.4238400000000979
 30
0.0
 40
1.9958399999999998
 41
0.0
 71
4
 72
1
  1
geplant:
  7
textstyle1
 50
0.0
 73
2
 44
1.0
  0
MTEXT
  5
109
100
AcDbEntity
100
AcDbMText
  8
Plankopf Text Vorgabe
 62
256
370
-1
 48
1.0
  6
ByLayer
 10
1004.3640000000004875
 20
208.9852480000001265
 30
0.0
 40
1.9958399999999998
 41
0.0
 71
4
 72
1
  1

  7
textstyle2
 50
0.0
 73
2
 44
1.0
  0
MTEXT
  5
10A
100
AcDbEntity
100
AcDbMText
  8
Plankopf Text Vorgabe
 62
256
370
-1
 48
1.0
  6
ByLayer
 10
1004.3640000000004875
 20
247.7045439999997711
 30
0.0
 40
1.9958399999999998
 41
0.0
 71
4
 72
1
  1
einverstanden:
  7
textstyle3
 50
0.0
 73
2
 44
1.0
  0
MTEXT
  5
10B
100
AcDbEntity
100
AcDbMText
  8
Plankopf Text Vorgabe
 62
256
370
-1
 48
1.0
  6
ByLayer
 10
1004.3640000000004875
 20
267.0641919999998777
 30
0.0
 40
1.9958399999999998
 41
0.0
 71
4
 72
1
  1
vorgelegt von:
  7
textstyle4
 50
0.0
 73
2
 44
1.0
  0
MTEXT
  5
10C
100
AcDbEntity
100
AcDbMText
  8
Plankopf Text Vorgabe
 62
256
370
-1
 48
1.0
  6
ByLayer
 10
1004.3640000000004875
 20
267.0641919999998777
 30
0.0
 40
1.9958399999999998
 41
0.0
 71
4
 72
1
  1

  7
textstyle5
 50
0.0
 73
2
 44
1.0
  0
MTEXT
  5
10D
100
AcDbEntity
100
AcDbMText
  8
Plankopf Text ausgef\U+00fcllt
 62
256
370
-1
 48
1.0
  6
ByLayer
 10
1008.3556800000004614
 20
282.4321600000002377
 30
0.0
 40
3.4927199999999998
 41
0.0
 71
1
 72
1
  1
Planungsb\U+00fcro
  7
textstyle6
 50
0.0
 73
2
 44
1.0
  0
MTEXT
  5
10E
100
AcDbEntity
100
AcDbMText
  8
Plankopf Text ausgef\U+00fcllt
 62
256
370
-1
 48
1.0
  6
ByLayer
 10
1008.3556800000004614
 20
282.4321600000002377
 30
0.0
 40
3.4927199999999998
 41
0.0
 71
1
 72
1
  1
Planungsb\U+00fcro
  7
textstyle7
 50
0.0
 73
2
 44
1.0
  0
MTEXT
  5
10F
100
AcDbEntity
100
AcDbMText
  8
Plankopf Text ausgef\U+00fcllt
 62
256
370
-1
 48
1.0
  6
ByLayer
 10
1008.3556800000004614
 20
263.0725119999999606
 30
0.0
 40
3.4927199999999998
 41
0.0
 71
1
 72
1
  1
Planungsb\U+00fcro
  7
textstyle8
 50
0.0
 73
2
 44
1.0
  0
MTEXT
  5
110
100
AcDbEntity
100
AcDbMText
  8
Plankopf Text ausgef\U+00fcllt
 62
256
370
-1
 48
1.0
  6
ByLayer
 10
1008.3556800000004614
 20
263.0725119999999606
 30
0.0
 40
3.4927199999999998
 41
0.0
 71
1
 72
1
  1
Planungsb\U+00fcro
  7
textstyle9
 50
0.0
 73
2
 44
1.0
  0
MTEXT
  5
111
100
AcDbEntity
100
AcDbMText
  8
Plankopf Text ausgef\U+00fcllt
 62
256
370
-1
 48
1.0
  6
ByLayer
 10
1008.3556800000005751
 20
276.4446400000002768
 30
0.0
 40
3.4927199999999998
 41
0.0
 71
1
 72
1
  1
DL3DL
  7
textstyle10
 50
0.0
 73
2
 44
1.0
  0
MTEXT
  5
112
100
AcDbEntity
100
AcDbMText
  8
Plankopf Text ausgef\U+00fcllt
 62
256
370
-1
 48
1.0
  6
ByLayer
 10
1008.3556800000005751
 20
276.4446400000001063
 30
0.0
 40
3.4927199999999998
 41
0.0
 71
1
 72
1
  1
DL3DL
  7
textstyle11
 50
0.0
 73
2
 44
1.0
  0
MTEXT
  5
113
100
AcDbEntity
100
AcDbMText
  8
Plankopf Text ausgef\U+00fcllt
 62
256
370
-1
 48
1.0
  6
ByLayer
 10
1008.3556800000005751
 20
257.0849920000000566
 30
0.0
 40
3.4927199999999998
 41
0.0
 71
1
 72
1
  1
DL3DL
  7
textstyle12
 50
0.0
 73
2
 44
1.0
  0
MTEXT
  5
114
100
AcDbEntity
100
AcDbMText
  8
Plankopf Text ausgef\U+00fcllt
 62
256
370
-1
 48
1.0
  6
ByLayer
 10
1008.3556800000005751
 20
257.0849920000000566
 30
0.0
 40
3.4927199999999998
 41
0.0
 71
1
 72
1
  1
DL3DL
  7
textstyle13
 50
0.0
 73
2
 44
1.0
  0
MTEXT
  5
115
100
AcDbEntity
100
AcDbMText
  8
Plankopf Text Vorgabe
 62
256
370
-1
 48
1.0
  6
ByLayer
 10
1004.3640000000004875
 20
228.3448959999999204
 30
0.0
 40
1.9958399999999998
 41
0.0
 71
4
 72
1
  1
gepr\U+00fcft:
  7
textstyle14
 50
0.0
 73
2
 44
1.0
  0
MTEXT
  5
116
100
AcDbEntity
100
AcDbMText
  8
Plankopf Text Vorgabe
 62
256
370
-1
 48
1.0
  6
ByLayer
 10
1004.3640000000004875
 20
208.9852479999996433
 30
0.0
 40
1.9958399999999998
 41
0.0
 71
4
 72
1
  1
genehmigt:
  7
textstyle15
 50
0.0
 73
2
 44
1.0
  0
MTEXT
  5
117
100
AcDbEntity
100
AcDbMText
  8
Plankopf Text Vorgabe
 62
256
370
-1
 48
1.0
  6
ByLayer
 10
1011.3494400000004134
 20
152.7025599999997212
 30
0.0
 40
1.9958399999999998
 41
0.0
 71
4
 72
1
  1
Planung:
  7
textstyle16
 50
0.0
 73
2
 44
1.0
  0
LINE
  5
118
100
AcDbEntity
100
AcDbLine
  8
Plankopf Linien d\U+00fcnn
 62
256
370
-1
 48
1.0
  6
ByLayer
 10
1002.3681600000004437
 20
269.0600320000000352
 30
0.0
 11
1090.6840800000004492
 21
269.0600320000000352
 31
0.0
  0
LINE
  5
119
100
AcDbEntity
100
AcDbLine
  8
Plankopf Linien d\U+00fcnn
 62
256
370
-1
 48
1.0
  6
ByLayer
 10
1002.3681600000004437
 20
249.700383999999957
 30
0.0
 11
1090.6840800000004492
 21
249.700383999999957
 31
0.0
  0
LINE
  5
11A
100
AcDbEntity
100
AcDbLine
  8
Plankopf Linien d\U+00fcnn
 62
256
370
-1
 48
1.0
  6
ByLayer
 10
1002.3681600000004437
 20
230.3407359999999358
 30
0.0
 11
1090.6840800000004492
 21
230.3407359999999358
 31
0.0
  0
LINE
  5
11B
100
AcDbEntity
100
AcDbLine
  8
Plankopf Linien d\U+00fcnn
 62
256
370
-1
 48
1.0
  6
ByLayer
 10
1002.3681600000004437
 20
210.9810879999999145
 30
0.0
 11
1090.6840800000004492
 21
210.9810879999999145
 31
0.0
  0
LINE
  5
11C
100
AcDbEntity
100
AcDbLine
  8
Plankopf Linien d\U+00fcnn
 62
256
370
-1
 48
1.0
  6
ByLayer
 10
1090.6840800000004492
 20
249.700383999999957
 30
0.0
 11
1090.6840800000004492
 21
269.6587839999999687
 31
0.0
  0
LINE
  5
11D
100
AcDbEntity
100
AcDbLine
  8
Plankopf Linien d\U+00fcnn
 62
256
370
-1
 48
1.0
  6
ByLayer
 10
1090.6840800000004492
 20
230.3407359999999358
 30
0.0
 11
1090.6840800000004492
 21
250.299135999999919
 31
0.0
  0
LINE
  5
11E
100
AcDbEntity
100
AcDbLine
  8
Plankopf Linien d\U+00fcnn
 62
256
370
-1
 48
1.0
  6
ByLayer
 10
1090.6840800000004492
 20
210.9810879999999145
 30
0.0
 11
1090.6840800000004492
 21
230.9394879999998977
 31
0.0
  0
LINE
  5
11F
100
AcDbEntity
100
AcDbLine
  8
Plankopf Linien d\U+00fcnn
 62
256
370
-1
 48
1.0
  6
ByLayer
 10
1090.6840800000004492
 20
269.0600320000000352
 30
0.0
 11
1090.6840800000006766
 21
288.419680000000028
 31
0.0
  0
LINE
  5
120
100
AcDbEntity
100
AcDbLine
  8
Plankopf Linien d\U+00fcnn
 62
256
370
-1
 48
1.0
  6
ByLayer
 10
1090.6840800000004492
 20
191.6214400000000069
 30
0.0
 11
1090.6840800000004492
 21
211.5798399999999617
 31
0.0
  0
LINE
  5
121
100
AcDbEntity
100
AcDbLine
  8
Plankopf Linien d\U+00fcnn
 62
256
370
-1
 48
1.0
  6
ByLayer
 10
1090.6840800000004492
 20
210.9810879999999145
 30
0.0
 11
1179.0000000000004547
 21
210.9810879999999145
 31
0.0
  0
LINE
  5
122
100
AcDbEntity
100
AcDbLine
  8
Plankopf Linien d\U+00fcnn
 62
256
370
-1
 48
1.0
  6
ByLayer
 10
1090.6840800000004492
 20
230.3407359999998789
 30
0.0
 11
1179.0000000000004547
 21
230.3407359999998789
 31
0.0
  0
LINE
  5
123
100
AcDbEntity
100
AcDbLine
  8
Plankopf Linien d\U+00fcnn
 62
256
370
-1
 48
1.0
  6
ByLayer
 10
1090.6840800000004492
 20
249.700383999999957
 30
0.0
 11
1179.0000000000004547
 21
249.700383999999957
 31
0.0
  0
LINE
  5
124
100
AcDbEntity
100
AcDbLine
  8
Plankopf Linien d\U+00fcnn
 62
256
370
-1
 48
1.0
  6
ByLayer
 10
1090.6840800000004492
 20
269.0600320000000352
 30
0.0
 11
1179.0000000000004547
 21
269.0600320000000352
 31
0.0
  0
MTEXT
  5
125
100
AcDbEntity
100
AcDbMText
  8
Plankopf Text ausgef\U+00fcllt
 62
256
370
-1
 48
1.0
  6
ByLayer
 10
1096.6716000000005806
 20
276.4446400000000494
 30
0.0
 40
1.9958399999999998
 41
0.0
 71
4
 72
1
  1
29.05.2016
  7
textstyle17
 50
0.0
 73
2
 44
1.0
  0
MTEXT
  5
126
100
AcDbEntity
100
AcDbMText
  8
Plankopf Text ausgef\U+00fcllt
 62
256
370
-1
 48
1.0
  6
ByLayer
 10
1096.6716000000005806
 20
257.0849919999996587
 30
0.0
 40
1.9958399999999998
 41
0.0
 71
4
 72
1
  1
29.05.2016
  7
textstyle18
 50
0.0
 73
2
 44
1.0
  0
MTEXT
  5
127
100
AcDbEntity
100
AcDbMText
  8
Plankopf Text ausgef\U+00fcllt
 62
256
370
-1
 48
1.0
  6
ByLayer
 10
1096.6716000000005806
 20
237.72534399999941
 30
0.0
 40
1.9958399999999998
 41
0.0
 71
4
 72
1
  1
29.05.2016
  7
textstyle19
 50
0.0
 73
2
 44
1.0
  0
MTEXT
  5
128
100
AcDbEntity
100
AcDbMText
  8
Plankopf Text ausgef\U+00fcllt
 62
256
370
-1
 48
1.0
  6
ByLayer
 10
1096.6716000000005806
 20
218.3656959999998435
 30
0.0
 40
1.9958399999999998
 41
0.0
 71
4
 72
1
  1
29.05.2016
  7
textstyle20
 50
0.0
 73
2
 44
1.0
  0
MTEXT
  5
129
100
AcDbEntity
100
AcDbMText
  8
Plankopf Text ausgef\U+00fcllt
 62
256
370
-1
 48
1.0
  6
ByLayer
 10
1096.6716000000005806
 20
199.0060479999997085
 30
0.0
 40
1.9958399999999998
 41
0.0
 71
4
 72
1
  1
29.05.2016
  7
textstyle21
 50
0.0
 73
2
 44
1.0
  0
MTEXT
  5
12A
100
AcDbEntity
100
AcDbMText
  8
Plankopf Text ausgef\U+00fcllt
 62
256
370
-1
 48
1.0
  6
ByLayer
 10
1008.3556800000004614
 20
224.353215999999577
 30
0.0
 40
3.4927199999999998
 41
0.0
 71
1
 72
1
  1
Auftraggeber
  7
textstyle22
 50
0.0
 73
2
 44
1.0
  0
MTEXT
  5
12B
100
AcDbEntity
100
AcDbMText
  8
Plankopf Text ausgef\U+00fcllt
 62
256
370
-1
 48
1.0
  6
ByLayer
 10
1008.3556800000006888
 20
199.006048000000078
 30
0.0
 40
3.4927199999999998
 41
0.0
 71
1
 72
1
  1
Auftraggeber
  7
textstyle23
 50
0.0
 73
2
 44
1.0
  0
MTEXT
  5
12C
100
AcDbEntity
100
AcDbMText
  8
Plankopf Text ausgef\U+00fcllt
 62
256
370
-1
 48
1.0
  6
ByLayer
 10
1008.3556800000005751
 20
218.3656959999998435
 30
0.0
 40
3.4927199999999998
 41
0.0
 71
1
 72
1
  1
Auftraggeber
  7
textstyle24
 50
0.0
 73
2
 44
1.0
  0
MTEXT
  5
12D
100
AcDbEntity
100
AcDbMText
  8
Plankopf Text ausgef\U+00fcllt
 62
256
370
-1
 48
1.0
  6
ByLayer
 10
1008.3556800000005751
 20
204.9935679999996978
 30
0.0
 40
3.4927199999999998
 41
0.0
 71
1
 72
1
  1
Auftraggeber
  7
textstyle25
 50
0.0
 73
2
 44
1.0
  0
MTEXT
  5
12E
100
AcDbEntity
100
AcDbMText
  8
Plankopf Text ausgef\U+00fcllt
 62
256
370
-1
 48
1.0
  6
ByLayer
 10
1008.3556800000005751
 20
243.712863999999712
 30
0.0
 40
3.4927199999999998
 41
0.0
 71
1
 72
1
  1
Auftragnehmer
  7
textstyle26
 50
0.0
 73
2
 44
1.0
  0
MTEXT
  5
12F
100
AcDbEntity
100
AcDbMText
  8
Plankopf Text ausgef\U+00fcllt
 62
256
370
-1
 48
1.0
  6
ByLayer
 10
1008.3556800000005751
 20
237.7253439999998079
 30
0.0
 40
3.4927199999999998
 41
0.0
 71
1
 72
1
  1
Auftragnehmer
  7
textstyle27
 50
0.0
 73
2
 44
1.0
  0
IMAGE
  5
130
  8
Logo Planungsb\U+00fcro
 62
256
370
-1
 48
1.0
  6
ByLayer
100
AcDbEntity
100
AcDbRasterImage
 90
0
 10
1006.7853438366453247
 20
161.9818604432147993
 30
0.0
 11
0.1796256
 21
0.0
 31
0.0
 12
0.0
 22
0.1796256
 32
0.0
 13
22.0
 23
22.0
340
131
 70
15
280
0
281
50
282
50
283
0
  0
MTEXT
  5
132
100
AcDbEntity
100
AcDbMText
  8
Adresse Planungsb\U+00fcro
 62
256
370
-1
 48
1.0
  6
ByLayer
 10
1042.2849600000004102
 20
178.6484800000000632
 30
0.0
 40
3.9916799999999997
 41
0.0
 71
4
 72
1
  1
\H5.71429;Black Torro Baumanagment
  7
textstyle28
 50
0.0
 73
2
 44
1.0
  0
MTEXT
  5
133
100
AcDbEntity
100
AcDbMText
  8
Adresse Planungsb\U+00fcro
 62
256
370
-1
 48
1.0
  6
ByLayer
 10
1042.2849600000004102
 20
168.6692800000001569
 30
0.0
 40
1.9958399999999998
 41
0.0
 71
4
 72
1
  1
\H2.85714;Muster Strasse 12
  7
textstyle29
 50
0.0
 73
2
 44
1.0
  0
MTEXT
  5
134
100
AcDbEntity
100
AcDbMText
  8
Adresse Planungsb\U+00fcro
 62
256
370
-1
 48
1.0
  6
ByLayer
 10
1042.3139530511759858
 20
164.0147329423347458
 30
0.0
 40
2.99376
 41
0.0
 71
4
 72
1
  1
12345 MUSTERHAUSEN
  7
textstyle30
 50
0.0
 73
2
 44
1.0
  0
MTEXT
  5
135
100
AcDbEntity
100
AcDbMText
  8
Plankopf Text ausgef\U+00fcllt
 62
256
370
-1
 48
1.0
  6
ByLayer
 10
1042.2849600000004102
 20
152.7025599999995791
 30
0.0
 40
2.99376
 41
0.0
 71
1
 72
1
  1
Bereich Entwicklung
  7
textstyle31
 50
0.0
 73
2
 44
1.0
  0
MTEXT
  5
136
100
AcDbEntity
100
AcDbMText
  8
Plankopf Text Vorgabe
 62
256
370
-1
 48
1.0
  6
ByLayer
 10
1022.326560000000427
 20
143.7212799999998936
 30
0.0
 40
1.49688
 41
0.0
 71
4
 72
1
  1
Anschrift:
  7
textstyle32
 50
0.0
 73
2
 44
1.0
  0
MTEXT
  5
137
100
AcDbEntity
100
AcDbMText
  8
Plankopf Text Vorgabe
 62
256
370
-1
 48
1.0
  6
ByLayer
 10
1022.326560000000427
 20
134.7399999999996112
 30
0.0
 40
1.49688
 41
0.0
 71
4
 72
1
  1
Fax:
  7
textstyle33
 50
0.0
 73
2
 44
1.0
  0
MTEXT
  5
138
100
AcDbEntity
100
AcDbMText
  8
Plankopf Text Vorgabe
 62
256
370
-1
 48
1.0
  6
ByLayer
 10
1022.3265600000005406
 20
131.7462400000001139
 30
0.0
 40
1.49688
 41
0.0
 71
4
 72
1
  1
Mail:
  7
textstyle34
 50
0.0
 73
2
 44
1.0
  0
MTEXT
  5
139
100
AcDbEntity
100
AcDbMText
  8
Plankopf Text Vorgabe
 62
256
370
-1
 48
1.0
  6
ByLayer
 10
1022.3265600000005406
 20
128.7524799999998493
 30
0.0
 40
1.3970879999999999
 41
0.0
 71
4
 72
1
  1
Web:
  7
textstyle35
 50
0.0
 73
2
 44
1.0
  0
MTEXT
  5
13A
100
AcDbEntity
100
AcDbMText
  8
Plankopf Text Vorgabe
 62
256
370
-1
 48
1.0
  6
ByLayer
 10
1022.326560000000427
 20
137.7337600000003874
 30
0.0
 40
1.49688
 41
0.0
 71
4
 72
1
  1
Tel.:
  7
textstyle36
 50
0.0
 73
2
 44
1.0
  0
MTEXT
  5
13B
100
AcDbEntity
100
AcDbMText
  8
Plankopf Text ausgef\U+00fcllt
 62
256
370
-1
 48
1.0
  6
ByLayer
 10
1042.2849600000004102
 20
146.7150399999998172
 30
0.0
 40
1.49688
 41
0.0
 71
1
 72
1
  1
Standort Musterhausen
  7
textstyle37
 50
0.0
 73
2
 44
1.0
  0
MTEXT
  5
13C
100
AcDbEntity
100
AcDbMText
  8
Plankopf Text ausgef\U+00fcllt
 62
256
370
-1
 48
1.0
  6
ByLayer
 10
1042.2849600000004102
 20
143.7212800000000925
 30
0.0
 40
1.49688
 41
0.0
 71
4
 72
1
  1
12345 Musterhausen, Musterstrasse 12
  7
textstyle38
 50
0.0
 73
2
 44
1.0
  0
MTEXT
  5
13D
100
AcDbEntity
100
AcDbMText
  8
Plankopf Text ausgef\U+00fcllt
 62
256
370
-1
 48
1.0
  6
ByLayer
 10
1042.2849600000004102
 20
137.7337600000002169
 30
0.0
 40
1.49688
 41
0.0
 71
4
 72
1
  1
12345/6789-0
  7
textstyle39
 50
0.0
 73
2
 44
1.0
  0
MTEXT
  5
13E
100
AcDbEntity
100
AcDbMText
  8
Plankopf Text ausgef\U+00fcllt
 62
256
370
-1
 48
1.0
  6
ByLayer
 10
1042.2849600000004102
 20
134.7399999999998954
 30
0.0
 40
1.49688
 41
0.0
 71
4
 72
1
  1
12345/6789-12
  7
textstyle40
 50
0.0
 73
2
 44
1.0
  0
MTEXT
  5
13F
100
AcDbEntity
100
AcDbMText
  8
Plankopf Text ausgef\U+00fcllt
 62
256
370
-1
 48
1.0
  6
ByLayer
 10
1042.2849600000004102
 20
128.7524799999998493
 30
0.0
 40
1.49688
 41
0.0
 71
4
 72
1
  1
mustermail-info@abc.de
  7
textstyle41
 50
0.0
 73
2
 44
1.0
  0
MTEXT
  5
140
100
AcDbEntity
100
AcDbMText
  8
Plankopf Text ausgef\U+00fcllt
 62
256
370
-1
 48
1.0
  6
ByLayer
 10
1042.2849600000004102
 20
131.746239999999716
 30
0.0
 40
1.49688
 41
0.0
 71
4
 72
1
  1
www.abc.de
  7
textstyle42
 50
0.0
 73
2
 44
1.0
  0
MTEXT
  5
141
100
AcDbEntity
100
AcDbMText
  8
Plankopf Text ausgef\U+00fcllt
 62
256
370
-1
 48
1.0
  6
ByLayer
 10
1007.3577600000005532
 20
110.7899200000001372
 30
0.0
 40
4.9895999999999994
 41
0.0
 71
4
 72
1
  1
Projektname
  7
textstyle43
 50
0.0
 73
2
 44
1.0
  0
MTEXT
  5
142
100
AcDbEntity
100
AcDbMText
  8
Plankopf Text ausgef\U+00fcllt
 62
256
370
-1
 48
1.0
  6
ByLayer
 10
1016.0485444510654816
 20
102.8357936297795732
 30
0.0
 40
3.9916799999999997
 41
0.0
 71
4
 72
1
  1
Geb\U+00e4ude
  7
textstyle44
 50
0.0
 73
2
 44
1.0
  0
MTEXT
  5
143
100
AcDbEntity
100
AcDbMText
  8
Plankopf Text ausgef\U+00fcllt
 62
256
370
-1
 48
1.0
  6
ByLayer
 10
1016.3390400000005229
 20
96.8190400000003564
 30
0.0
 40
3.9916799999999997
 41
0.0
 71
4
 72
1
  1
Baumassnahme
  7
textstyle45
 50
0.0
 73
2
 44
1.0
  0
MTEXT
  5
144
100
AcDbEntity
100
AcDbMText
  8
Plankopf Text ausgef\U+00fcllt
 62
256
370
-1
 48
1.0
  6
ByLayer
 10
1016.3390400000005229
 20
86.8398399999995547
 30
0.0
 40
3.9916799999999997
 41
0.0
 71
4
 72
1
  1
Architektur
  7
textstyle46
 50
0.0
 73
2
 44
1.0
  0
MTEXT
  5
145
100
AcDbEntity
100
AcDbMText
  8
Plankopf Text ausgef\U+00fcllt
 62
256
370
-1
 48
1.0
  6
ByLayer
 10
1016.3390400000005229
 20
78.8564800000001469
 30
0.0
 40
4.9895999999999994
 41
0.0
 71
4
 72
1
  1
1.Obergeschoss  /  Grundriss
  7
textstyle47
 50
0.0
 73
2
 44
1.0
  0
MTEXT
  5
146
100
AcDbEntity
100
AcDbMText
  8
Plankopf Text ausgef\U+00fcllt
 62
256
370
-1
 48
1.0
  6
ByLayer
 10
1005.4212080932430808
 20
51.5362081715417162
 30
0.0
 40
3.9916799999999997
 41
0.0
 71
4
 72
1
  1
NAME
  7
textstyle48
 50
0.0
 73
2
 44
1.0
  0
MTEXT
  5
147
100
AcDbEntity
100
AcDbMText
  8
Plankopf Text Vorgabe
 62
256
370
-1
 48
1.0
  6
ByLayer
 10
1005.3619200000005094
 20
41.933439999999834
 30
0.0
 40
2.4947999999999997
 41
0.0
 71
4
 72
1
  1
Datum:
  7
textstyle49
 50
0.0
 73
2
 44
1.0
  0
MTEXT
  5
148
100
AcDbEntity
100
AcDbMText
  8
Plankopf Text Vorgabe
 62
256
370
-1
 48
1.0
  6
ByLayer
 10
1005.3619200000005094
 20
33.9500800000003053
 30
0.0
 40
2.4947999999999997
 41
0.0
 71
4
 72
1
  1
Plan-Nr::
  7
textstyle50
 50
0.0
 73
2
 44
1.0
  0
MTEXT
  5
149
100
AcDbEntity
100
AcDbMText
  8
Plankopf Text Vorgabe
 62
256
370
-1
 48
1.0
  6
ByLayer
 10
1005.3619200000005094
 20
25.9667199999999383
 30
0.0
 40
2.4947999999999997
 41
0.0
 71
4
 72
1
  1
Plan-Index:
  7
textstyle51
 50
0.0
 73
2
 44
1.0
  0
MTEXT
  5
14A
100
AcDbEntity
100
AcDbMText
  8
Plankopf Text Vorgabe
 62
256
370
-1
 48
1.0
  6
ByLayer
 10
1005.3619200000005094
 20
17.9833600000005731
 30
0.0
 40
2.4947999999999997
 41
0.0
 71
4
 72
1
  1
Datei:
  7
textstyle52
 50
0.0
 73
2
 44
1.0
  0
MTEXT
  5
14B
100
AcDbEntity
100
AcDbMText
  8
Plankopf Text Vorgabe
 62
256
370
-1
 48
1.0
  6
ByLayer
 10
1060.2475200000005771
 20
33.9500799999987208
 30
0.0
 40
2.4947999999999997
 41
0.0
 71
4
 72
1
  1
Massstab:
  7
textstyle53
 50
0.0
 73
2
 44
1.0
  0
MTEXT
  5
14C
100
AcDbEntity
100
AcDbMText
  8
Plankopf Text Vorgabe
 62
256
370
-1
 48
1.0
  6
ByLayer
 10
1060.2475200000005771
 20
25.9667200000001372
 30
0.0
 40
2.4947999999999997
 41
0.0
 71
4
 72
1
  1
Blattformat:
  7
textstyle54
 50
0.0
 73
2
 44
1.0
  0
MTEXT
  5
14D
100
AcDbEntity
100
AcDbMText
  8
Plankopf Text Vorgabe
 62
256
370
-1
 48
1.0
  6
ByLayer
 10
1115.1331200000004173
 20
41.9334399999991376
 30
0.0
 40
2.4947999999999997
 41
0.0
 71
4
 72
1
  1
gez.:
  7
textstyle55
 50
0.0
 73
2
 44
1.0
  0
MTEXT
  5
14E
100
AcDbEntity
100
AcDbMText
  8
Plankopf Text Vorgabe
 62
256
370
-1
 48
1.0
  6
ByLayer
 10
1115.1331200000004173
 20
25.9667199999993095
 30
0.0
 40
2.4947999999999997
 41
0.0
 71
4
 72
1
  1
gepr.:
  7
textstyle56
 50
0.0
 73
2
 44
1.0
  0
MTEXT
  5
14F
100
AcDbEntity
100
AcDbMText
  8
Plankopf Text ausgef\U+00fcllt
 62
256
370
-1
 48
1.0
  6
ByLayer
 10
1026.0586535531003847
 20
41.826055024069845
 30
0.0
 40
2.99376
 41
0.0
 71
4
 72
1
  1
29.05.2016
  7
textstyle57
 50
0.0
 73
2
 44
1.0
  0
MTEXT
  5
150
100
AcDbEntity
100
AcDbMText
  8
Plankopf Text ausgef\U+00fcllt
 62
256
370
-1
 48
1.0
  6
ByLayer
 10
1026.0586535531003847
 20
33.9500800000005185
 30
0.0
 40
2.99376
 41
0.0
 71
4
 72
1
  1
123456789
  7
textstyle58
 50
0.0
 73
2
 44
1.0
  0
MTEXT
  5
151
100
AcDbEntity
100
AcDbMText
  8
Plankopf Text ausgef\U+00fcllt
 62
256
370
-1
 48
1.0
  6
ByLayer
 10
1026.3182400000005146
 20
17.9833599999994149
 30
0.0
 40
2.99376
 41
0.0
 71
4
 72
1
  1
abc.dxf
  7
textstyle59
 50
0.0
 73
2
 44
1.0
  0
MTEXT
  5
152
100
AcDbEntity
100
AcDbMText
  8
Plankopf Text ausgef\U+00fcllt
 62
256
370
-1
 48
1.0
  6
ByLayer
 10
1026.0586535531003847
 20
25.9667200000000946
 30
0.0
 40
2.99376
 41
0.0
 71
4
 72
1
  1
A-BCDE-FGHI-J
  7
textstyle60
 50
0.0
 73
2
 44
1.0
  0
MTEXT
  5
153
100
AcDbEntity
100
AcDbMText
  8
Plankopf Text ausgef\U+00fcllt
 62
256
370
-1
 48
1.0
  6
ByLayer
 10
1082.2017600000003767
 20
33.9500800000011509
 30
0.0
 40
2.99376
 41
0.0
 71
4
 72
1
  1
M 1:1
  7
textstyle61
 50
0.0
 73
2
 44
1.0
  0
MTEXT
  5
154
100
AcDbEntity
100
AcDbMText
  8
Plankopf Text ausgef\U+00fcllt
 62
256
370
-1
 48
1.0
  6
ByLayer
 10
1082.2017600000003767
 20
25.9667200000002687
 30
0.0
 40
2.99376
 41
0.0
 71
4
 72
1
  1
DIN A0
  7
textstyle62
 50
0.0
 73
2
 44
1.0
  0
MTEXT
  5
155
100
AcDbEntity
100
AcDbMText
  8
Plankopf Text ausgef\U+00fcllt
 62
256
370
-1
 48
1.0
  6
ByLayer
 10
1131.099840000000313
 20
25.9667200000003966
 30
0.0
 40
2.99376
 41
0.0
 71
4
 72
1
  1
DL3DL
  7
textstyle63
 50
0.0
 73
2
 44
1.0
  0
MTEXT
  5
156
100
AcDbEntity
100
AcDbMText
  8
Plankopf Text ausgef\U+00fcllt
 62
256
370
-1
 48
1.0
  6
ByLayer
 10
1131.1543195464164455
 20
41.8817623246763873
 30
0.0
 40
2.99376
 41
0.0
 71
4
 72
1
  1
DL3DL
  7
textstyle64
 50
0.0
 73
2
 44
1.0
  0
MTEXT
  5
157
100
AcDbEntity
100
AcDbMText
  8
Plankopf Text ausgef\U+00fcllt
 62
256
370
-1
 48
1.0
  6
ByLayer
 10
1131.0626809152258829
 20
21.6313073269993907
 30
0.0
 40
2.99376
 41
0.0
 71
4
 72
1
  1
01234/56789-12
  7
textstyle65
 50
0.0
 73
2
 44
1.0
  0
MTEXT
  5
158
100
AcDbEntity
100
AcDbMText
  8
Plankopf Text ausgef\U+00fcllt
 62
256
370
-1
 48
1.0
  6
ByLayer
 10
1131.1171604616417881
 20
37.5463496516754986
 30
0.0
 40
2.99376
 41
0.0
 71
4
 72
1
  1
01234/56789-12
  7
textstyle66
 50
0.0
 73
2
 44
1.0
  0
MTEXT
  5
159
100
AcDbEntity
100
AcDbMText
  8
Plankopf Text ausgef\U+00fcllt
 62
256
370
-1
 48
1.0
  6
ByLayer
 10
1131.0211812166612617
 20
18.9316804428369991
 30
0.0
 40
2.99376
 41
0.0
 71
4
 72
1
  1

  7
textstyle67
 50
0.0
 73
2
 44
1.0
  0
ENDSEC
  0
SECTION
  2
OBJECTS
  0
DICTIONARY
  5
C
100
AcDbDictionary
280
0
281
1
  3
ACAD_GROUP
350
D
  3
ACAD_LAYOUT
350
1A
  3
ACAD_MLINESTYLE
350
17
  3
ACAD_PLOTSETTINGS
350
19
  3
ACAD_PLOTSTYLENAME
350
E
  3
AcDbVariableDictionary
350
15A
  3
QCAD_OBJECTS
350
15B
  0
DICTIONARY
  5
D
100
AcDbDictionary
280
0
281
1
  0
ACDBDICTIONARYWDFLT
  5
E
100
AcDbDictionary
281
1
  3
Normal
350
F
100
AcDbDictionaryWithDefault
340
F
  0
ACDBPLACEHOLDER
  5
F
  0
DICTIONARY
  5
17
100
AcDbDictionary
280
0
281
1
  3
Standard
350
18
  0
MLINESTYLE
  5
18
100
AcDbMlineStyle
  2
STANDARD
 70
0
  3

 62
256
 51
90.0
 52
90.0
 71
2
 49
0.5
 62
256
  6
BYLAYER
 49
-0.5
 62
256
  6
BYLAYER
  0
DICTIONARY
  5
19
100
AcDbDictionary
280
0
281
1
  0
DICTIONARY
  5
1A
100
AcDbDictionary
281
1
  3
Layout1
350
1E
  3
Layout2
350
26
  3
Model
350
22
  0
LAYOUT
  5
1E
100
AcDbPlotSettings
  1

  2
none_device
  4

  6

 40
0.0
 41
0.0
 42
0.0
 43
0.0
 44
0.0
 45
0.0
 46
0.0
 47
0.0
 48
0.0
 49
0.0
140
0.0
141
0.0
142
1.0
143
1.0
 70
688
 72
0
 73
0
 74
5
  7

 75
16
147
1.0
148
0.0
149
0.0
100
AcDbLayout
  1
Layout1
 70
1
 71
1
 10
0.0
 20
0.0
 11
420.0
 21
297.0
 12
0.0
 22
0.0
 32
0.0
 14
100000000000000000000.0
 24
100000000000000000000.0
 34
100000000000000000000.0
 15
-100000000000000000000.0
 25
-100000000000000000000.0
 35
-100000000000000000000.0
146
0.0
 13
0.0
 23
0.0
 33
0.0
 16
1.0
 26
0.0
 36
0.0
 17
0.0
 27
1.0
 37
0.0
 76
0
330
1B
  0
LAYOUT
  5
22
100
AcDbPlotSettings
  1

  2
none_device
  4

  6

 40
0.0
 41
0.0
 42
0.0
 43
0.0
 44
0.0
 45
0.0
 46
0.0
 47
0.0
 48
0.0
 49
0.0
140
0.0
141
0.0
142
1.0
143
1.0
 70
1712
 72
0
 73
0
 74
0
  7

 75
0
147
1.0
148
0.0
149
0.0
100
AcDbLayout
  1
Model
 70
1
 71
0
 10
0.0
 20
0.0
 11
12.0
 21
9.0
 12
0.0
 22
0.0
 32
0.0
 14
0.0
 24
0.0
 34
0.0
 15
0.0
 25
0.0
 35
0.0
146
0.0
 13
0.0
 23
0.0
 33
0.0
 16
1.0
 26
0.0
 36
0.0
 17
0.0
 27
1.0
 37
0.0
 76
0
330
1F
  0
LAYOUT
  5
26
100
AcDbPlotSettings
  1

  2
none_device
  4

  6

 40
0.0
 41
0.0
 42
0.0
 43
0.0
 44
0.0
 45
0.0
 46
0.0
 47
0.0
 48
0.0
 49
0.0
140
0.0
141
0.0
142
1.0
143
1.0
 70
688
 72
0
 73
0
 74
5
  7

 75
16
147
1.0
148
0.0
149
0.0
100
AcDbLayout
  1
Layout2
 70
1
 71
2
 10
0.0
 20
0.0
 11
12.0
 21
9.0
 12
0.0
 22
0.0
 32
0.0
 14
0.0
 24
0.0
 34
0.0
 15
0.0
 25
0.0
 35
0.0
146
0.0
 13
0.0
 23
0.0
 33
0.0
 16
1.0
 26
0.0
 36
0.0
 17
0.0
 27
1.0
 37
0.0
 76
0
330
23
  0
DICTIONARY
  5
15A
100
AcDbDictionary
281
1
  3
DIMASSOC
350
15D
  3
HIDETEXT
350
15C
  0
DICTIONARYVAR
  5
15C
100
DictionaryVariables
280
0
  1
2
  0
DICTIONARYVAR
  5
15D
100
DictionaryVariables
280
0
  1
1
  0
DICTIONARY
  5
15B
100
AcDbDictionary
281
1
  3
ColorSettings/BackgroundColor
350
15E
  3
ColorSettings/ColorMode
350
15F
  3
Grid/DisplayGrid00
350
160
  3
Grid/DisplayGrid01
350
161
  3
Grid/DisplayGrid02
350
162
  3
Grid/DisplayGrid03
350
163
  3
Grid/GridSpacingX00
350
164
  3
Grid/GridSpacingX01
350
165
  3
Grid/GridSpacingX02
350
166
  3
Grid/GridSpacingX03
350
167
  3
Grid/GridSpacingY00
350
168
  3
Grid/GridSpacingY01
350
169
  3
Grid/GridSpacingY02
350
16A
  3
Grid/GridSpacingY03
350
16B
  3
Grid/IsometricGrid00
350
16C
  3
Grid/IsometricGrid01
350
16D
  3
Grid/IsometricGrid02
350
16E
  3
Grid/IsometricGrid03
350
16F
  3
Grid/IsometricProjection00
350
170
  3
Grid/IsometricProjection01
350
171
  3
Grid/IsometricProjection02
350
172
  3
Grid/IsometricProjection03
350
173
  3
Grid/MetaGridSpacingX00
350
174
  3
Grid/MetaGridSpacingX01
350
175
  3
Grid/MetaGridSpacingX02
350
176
  3
Grid/MetaGridSpacingX03
350
177
  3
Grid/MetaGridSpacingY00
350
178
  3
Grid/MetaGridSpacingY01
350
179
  3
Grid/MetaGridSpacingY02
350
17A
  3
Grid/MetaGridSpacingY03
350
17B
  3
MultiPageSettings/Columns
350
17C
  3
MultiPageSettings/GlueMarginsBottom
350
17D
  3
MultiPageSettings/GlueMarginsLeft
350
17E
  3
MultiPageSettings/GlueMarginsRight
350
17F
  3
MultiPageSettings/GlueMarginsTop
350
180
  3
MultiPageSettings/PrintCropMarks
350
181
  3
MultiPageSettings/Rows
350
182
  3
PageSettings/OffsetX
350
183
  3
PageSettings/OffsetY
350
184
  3
PageSettings/PageOrientation
350
185
  3
PageSettings/PaperHeight
350
186
  3
PageSettings/PaperWidth
350
187
  3
PageSettings/Scale
350
188
  3
PageSettings/ShowPaperBorders
350
189
  3
QCADVersion
350
18A
  3
UnitSettings/PaperUnit
350
18B
  3
ViewportCenter
350
18C
  3
ViewportHeight
350
18D
  3
ViewportWidth
350
18E
  0
XRECORD
  5
15E
330
15B
100
AcDbXrecord
280
1
1000
Weiss
  0
XRECORD
  5
15F
330
15B
100
AcDbXrecord
280
1
1000
FullColor
  0
XRECORD
  5
160
330
15B
100
AcDbXrecord
280
1
290
1
  0
XRECORD
  5
161
330
15B
100
AcDbXrecord
280
1
290
1
  0
XRECORD
  5
162
330
15B
100
AcDbXrecord
280
1
290
1
  0
XRECORD
  5
163
330
15B
100
AcDbXrecord
280
1
290
1
  0
XRECORD
  5
164
330
15B
100
AcDbXrecord
280
1
1000
auto
  0
XRECORD
  5
165
330
15B
100
AcDbXrecord
280
1
1000
auto
  0
XRECORD
  5
166
330
15B
100
AcDbXrecord
280
1
1000
auto
  0
XRECORD
  5
167
330
15B
100
AcDbXrecord
280
1
1000
auto
  0
XRECORD
  5
168
330
15B
100
AcDbXrecord
280
1
1000
auto
  0
XRECORD
  5
169
330
15B
100
AcDbXrecord
280
1
1000
auto
  0
XRECORD
  5
16A
330
15B
100
AcDbXrecord
280
1
1000
auto
  0
XRECORD
  5
16B
330
15B
100
AcDbXrecord
280
1
1000
auto
  0
XRECORD
  5
16C
330
15B
100
AcDbXrecord
280
1
290
0
  0
XRECORD
  5
16D
330
15B
100
AcDbXrecord
280
1
290
0
  0
XRECORD
  5
16E
330
15B
100
AcDbXrecord
280
1
290
0
  0
XRECORD
  5
16F
330
15B
100
AcDbXrecord
280
1
290
0
  0
XRECORD
  5
170
330
15B
100
AcDbXrecord
280
1
 90
0
  0
XRECORD
  5
171
330
15B
100
AcDbXrecord
280
1
 90
0
  0
XRECORD
  5
172
330
15B
100
AcDbXrecord
280
1
 90
0
  0
XRECORD
  5
173
330
15B
100
AcDbXrecord
280
1
 90
0
  0
XRECORD
  5
174
330
15B
100
AcDbXrecord
280
1
1000
auto
  0
XRECORD
  5
175
330
15B
100
AcDbXrecord
280
1
1000
auto
  0
XRECORD
  5
176
330
15B
100
AcDbXrecord
280
1
1000
auto
  0
XRECORD
  5
177
330
15B
100
AcDbXrecord
280
1
1000
auto
  0
XRECORD
  5
178
330
15B
100
AcDbXrecord
280
1
1000
auto
  0
XRECORD
  5
179
330
15B
100
AcDbXrecord
280
1
1000
auto
  0
XRECORD
  5
17A
330
15B
100
AcDbXrecord
280
1
1000
auto
  0
XRECORD
  5
17B
330
15B
100
AcDbXrecord
280
1
1000
auto
  0
XRECORD
  5
17C
330
15B
100
AcDbXrecord
280
1
 90
1
  0
XRECORD
  5
17D
330
15B
100
AcDbXrecord
280
1
 40
10.0
  0
XRECORD
  5
17E
330
15B
100
AcDbXrecord
280
1
 40
10.0
  0
XRECORD
  5
17F
330
15B
100
AcDbXrecord
280
1
 40
10.0
  0
XRECORD
  5
180
330
15B
100
AcDbXrecord
280
1
 40
10.0
  0
XRECORD
  5
181
330
15B
100
AcDbXrecord
280
1
290
0
  0
XRECORD
  5
182
330
15B
100
AcDbXrecord
280
1
 90
1
  0
XRECORD
  5
183
330
15B
100
AcDbXrecord
280
1
 40
0.0
  0
XRECORD
  5
184
330
15B
100
AcDbXrecord
280
1
 40
0.0
  0
XRECORD
  5
185
330
15B
100
AcDbXrecord
280
1
1000
Portrait
  0
XRECORD
  5
186
330
15B
100
AcDbXrecord
280
1
 40
297.0
  0
XRECORD
  5
187
330
15B
100
AcDbXrecord
280
1
 40
210.0
  0
XRECORD
  5
188
330
15B
100
AcDbXrecord
280
1
1000
1:1
  0
XRECORD
  5
189
330
15B
100
AcDbXrecord
280
1
290
1
  0
XRECORD
  5
18A
330
15B
100
AcDbXrecord
280
1
1000
3.15.0
  0
XRECORD
  5
18B
330
15B
100
AcDbXrecord
280
1
 90
4
  0
XRECORD
  5
18D
330
15B
100
AcDbXrecord
280
1
 40
625.054632867133023
  0
XRECORD
  5
18E
330
15B
100
AcDbXrecord
280
1
 40
1197.817113442113623
  0
IMAGEDEF
  5
131
100
AcDbRasterImageDef
 90
0
  1
/home/andrea/Downloads/images.jpeg
 10
22.0
 20
22.0
 11
1.0
 21
1.0
280
1
281
0
  0
ENDSEC
  0
EOF
