999
dxflib 3.12.2.0
  0
SECTION
  2
HEADER
  9
$ACADVER
  1
AC1015
  9
$HANDSEED
  5
FFFF
  9
$ANGBASE
 50
0.0
  9
$ANGDIR
 70
0
  9
$ATTMODE
 70
1
  9
$AUNITS
 70
0
  9
$AUPREC
 70
0
  9
$CECOLOR
 62
256
  9
$CELTSCALE
 40
1.0
  9
$CHAMFERA
 40
0.0
  9
$CHAMFERB
 40
0.0
  9
$CHAMFERC
 40
0.0
  9
$CHAMFERD
 40
0.0
  9
$CMLJUST
 70
0
  9
$CMLSCALE
 40
20.0
  9
$DIMADEC
 70
0
  9
$DIMALT
 70
0
  9
$DIMALTD
 70
3
  9
$DIMALTF
 40
0.03937007874
  9
$DIMALTRND
 40
0.0
  9
$DIMALTTD
 70
3
  9
$DIMALTTZ
 70
0
  9
$DIMALTU
 70
2
  9
$DIMALTZ
 70
0
  9
$DIMAPOST
  1

  9
$DIMASZ
 40
2.5
  9
$DIMATFIT
 70
3
  9
$DIMAUNIT
 70
0
  9
$DIMAZIN
 70
0
  9
$DIMBLK
  1

  9
$DIMBLK1
  1

  9
$DIMBLK2
  1

  9
$DIMCEN
 40
2.5
  9
$DIMCLRD
 70
0
  9
$DIMCLRE
 70
0
  9
$DIMCLRT
 70
0
  9
$DIMDEC
 70
2
  9
$DIMDLE
 40
0.0
  9
$DIMDLI
 40
3.75
  9
$DIMDSEP
 70
44
  9
$DIMEXE
 40
1.25
  9
$DIMEXO
 40
0.625
  9
$DIMFRAC
 70
0
  9
$DIMGAP
 40
0.625
  9
$DIMJUST
 70
0
  9
$DIMLDRBLK
  1

  9
$DIMLFAC
 40
1.0
  9
$DIMLIM
 70
0
  9
$DIMLUNIT
 70
2
  9
$DIMLWD
 70
-2
  9
$DIMLWE
 70
-2
  9
$DIMPOST
  1

  9
$DIMRND
 40
0.0
  9
$DIMSAH
 70
0
  9
$DIMSCALE
 40
1.0
  9
$DIMSD1
 70
0
  9
$DIMSD2
 70
0
  9
$DIMSE1
 70
0
  9
$DIMSE2
 70
0
  9
$DIMSOXD
 70
0
  9
$DIMTAD
 70
1
  9
$DIMTDEC
 70
2
  9
$DIMTFAC
 40
1.0
  9
$DIMTIH
 70
0
  9
$DIMTIX
 70
0
  9
$DIMTM
 40
0.0
  9
$DIMTOFL
 70
1
  9
$DIMTOH
 70
0
  9
$DIMTOL
 70
0
  9
$DIMTOLJ
 70
0
  9
$DIMTP
 40
0.0
  9
$DIMTSZ
 40
0.0
  9
$DIMTVP
 40
0.0
  9
$DIMTXSTY
  7
Standard
  9
$DIMTXT
 40
2.5
  9
$DIMTZIN
 70
8
  9
$DIMUPT
 70
0
  9
$DIMZIN
 70
8
  9
$DISPSILH
 70
0
  9
$DWGCODEPAGE
  3
ANSI_1252
  9
$ELEVATION
 40
0.0
  9
$EXTMAX
 10
420.0
 20
297.0
 30
0.0
  9
$EXTMIN
 10
0.0
 20
0.0
 30
0.0
  9
$FILLETRAD
 40
0.0
  9
$FILLMODE
 70
1
  9
$INSBASE
 10
0.0
 20
0.0
 30
0.0
  9
$INSUNITS
 70
4
  9
$LIMCHECK
 70
0
  9
$LIMMAX
 10
420.0
 20
297.0
  9
$LIMMIN
 10
0.0
 20
0.0
  9
$LTSCALE
 40
1.0
  9
$LUNITS
 70
2
  9
$LUPREC
 70
4
  9
$MAXACTVP
 70
64
  9
$MEASUREMENT
 70
1
  9
$MIRRTEXT
 70
0
  9
$ORTHOMODE
 70
0
  9
$PDMODE
 70
0
  9
$PDSIZE
 40
0
  9
$PELEVATION
 40
0.0
  9
$PEXTMAX
 10
231.3000000000000114
 20
175.5
 30
0.0
  9
$PEXTMIN
 10
25.6999999999999993
 20
19.5
 30
0.0
  9
$PINSBASE
 10
0.0
 20
0.0
 30
0.0
  9
$PLIMCHECK
 70
0
  9
$PLIMMAX
 10
277.0
 20
202.5
  9
$PLIMMIN
 10
-20.0
 20
-7.5
  9
$PLINEGEN
 70
0
  9
$PLINEWID
 40
0.0
  9
$PROXYGRAPHICS
 70
1
  9
$PSLTSCALE
 70
1
  9
$PUCSNAME
  2

  9
$PUCSORG
 10
0.0
 20
0.0
 30
0.0
  9
$PUCSXDIR
 10
1.0
 20
0.0
 30
0.0
  9
$PUCSYDIR
 10
0.0
 20
1.0
 30
0.0
  9
$QTEXTMODE
 70
0
  9
$REGENMODE
 70
1
  9
$SHADEDGE
 70
3
  9
$SHADEDIF
 70
70
  9
$SKETCHINC
 40
1.0
  9
$SKPOLY
 70
0
  9
$SPLFRAME
 70
0
  9
$SPLINESEGS
 70
8
  9
$SPLINETYPE
 70
6
  9
$SURFTAB1
 70
6
  9
$SURFTAB2
 70
6
  9
$SURFTYPE
 70
6
  9
$SURFU
 70
6
  9
$SURFV
 70
6
  9
$TEXTSIZE
 40
2.5
  9
$TEXTSTYLE
  7
Standard
  9
$THICKNESS
 40
0.0
  9
$TILEMODE
 70
1
  9
$TRACEWID
 40
1.0
  9
$TREEDEPTH
 70
3020
  9
$UCSNAME
  2

  9
$UCSORG
 10
0.0
 20
0.0
 30
0.0
  9
$UCSXDIR
 10
1.0
 20
0.0
 30
0.0
  9
$UCSYDIR
 10
0.0
 20
1.0
 30
0.0
  9
$UNITMODE
 70
0
  9
$USERI1
 70
0
  9
$USERI2
 70
0
  9
$USERI3
 70
0
  9
$USERI4
 70
0
  9
$USERI5
 70
0
  9
$USERR1
 40
0.0
  9
$USERR2
 40
0.0
  9
$USERR3
 40
0.0
  9
$USERR4
 40
0.0
  9
$USERR5
 40
0.0
  9
$USRTIMER
 70
1
  9
$VISRETAIN
 70
1
  0
ENDSEC
  0
SECTION
  2
TABLES
  0
TABLE
  2
VPORT
  5
8
100
AcDbSymbolTable
 70
1
  0
VPORT
  5
30
100
AcDbSymbolTableRecord
100
AcDbViewportTableRecord
  2
*Active
 70
0
 10
0.0
 20
0.0
 11
1.0
 21
1.0
 12
286.3055555555554861
 22
148.5
 13
0.0
 23
0.0
 14
10.0
 24
10.0
 15
10.0
 25
10.0
 16
0.0
 26
0.0
 36
1.0
 17
0.0
 27
0.0
 37
0.0
 40
297.0
 41
1.92798353909465
 42
50.0
 43
0.0
 44
0.0
 50
0.0
 51
0.0
 71
0
 72
100
 73
1
 74
3
 75
1
 76
1
 77
0
 78
0
281
0
 65
1
110
0.0
120
0.0
130
0.0
111
1.0
121
0.0
131
0.0
112
0.0
122
1.0
132
0.0
 79
0
146
0.0
  0
ENDTAB
  0
TABLE
  2
LTYPE
  5
5
100
AcDbSymbolTable
 70
41
  0
LTYPE
  5
16
100
AcDbSymbolTableRecord
100
AcDbLinetypeTableRecord
  2
Continuous
 70
0
  3
Solid line
 72
65
 73
0
 40
0.0
  0
LTYPE
  5
31
100
AcDbSymbolTableRecord
100
AcDbLinetypeTableRecord
  2
ACAD_ISO15W100
 70
0
  3
ISO double-dash triple-dot __ __ . . . __ __ . .
 72
65
 73
10
 40
39.0000000000000071
 49
12.0
 74
0
 49
-3.0
 74
0
 49
12.0
 74
0
 49
-2.9500000000000002
 74
0
 49
0.1
 74
0
 49
-2.8999999999999999
 74
0
 49
0.1
 74
0
 49
-2.8999999999999999
 74
0
 49
0.1
 74
0
 49
-2.9500000000000002
 74
0
  0
LTYPE
  5
32
100
AcDbSymbolTableRecord
100
AcDbLinetypeTableRecord
  2
DIVIDE
 70
0
  3
Divide ____ . . ____ . . ____ . . ____ . . ____
 72
65
 73
6
 40
31.7500000000000036
 49
12.6999999999999993
 74
0
 49
-6.2999999999999998
 74
0
 49
0.1
 74
0
 49
-6.25
 74
0
 49
0.1
 74
0
 49
-6.2999999999999998
 74
0
  0
LTYPE
  5
33
100
AcDbSymbolTableRecord
100
AcDbLinetypeTableRecord
  2
ACAD_ISO10W100
 70
0
  3
ISO dash dot __ . __ . __ . __ . __ . __ . __ . 
 72
65
 73
4
 40
18.0
 49
12.0
 74
0
 49
-2.9500000000000002
 74
0
 49
0.1
 74
0
 49
-2.9500000000000002
 74
0
  0
LTYPE
  5
34
100
AcDbSymbolTableRecord
100
AcDbLinetypeTableRecord
  2
ACAD_ISO04W100
 70
0
  3
ISO long-dash dot ____ . ____ . ____ . ____ . _
 72
65
 73
4
 40
30.0
 49
24.0
 74
0
 49
-2.9500000000000002
 74
0
 49
0.1
 74
0
 49
-2.9500000000000002
 74
0
  0
LTYPE
  5
14
100
AcDbSymbolTableRecord
100
AcDbLinetypeTableRecord
  2
ByBlock
 70
0
  3

 72
65
 73
0
 40
0.0
  0
LTYPE
  5
35
100
AcDbSymbolTableRecord
100
AcDbLinetypeTableRecord
  2
CENTER2
 70
0
  3
Center (.5x) ___ _ ___ _ ___ _ ___ _ ___ _ ___
 72
65
 73
4
 40
28.5750000000000028
 49
19.0500000000000007
 74
0
 49
-3.1749999999999998
 74
0
 49
3.1749999999999998
 74
0
 49
-3.1749999999999998
 74
0
  0
LTYPE
  5
36
100
AcDbSymbolTableRecord
100
AcDbLinetypeTableRecord
  2
ACAD_ISO11W100
 70
0
  3
ISO double-dash dot __ __ . __ __ . __ __ . __ _
 72
65
 73
6
 40
33.0
 49
12.0
 74
0
 49
-3.0
 74
0
 49
12.0
 74
0
 49
-2.9500000000000002
 74
0
 49
0.1
 74
0
 49
-2.9500000000000002
 74
0
  0
LTYPE
  5
37
100
AcDbSymbolTableRecord
100
AcDbLinetypeTableRecord
  2
HIDDEN2
 70
0
  3
Hidden (.5x) _ _ _ _ _ _ _ _ _ _ _ _ _ _ _ _ _ 
 72
65
 73
2
 40
4.7624999999999993
 49
3.1749999999999998
 74
0
 49
-1.5874999999999999
 74
0
  0
LTYPE
  5
38
100
AcDbSymbolTableRecord
100
AcDbLinetypeTableRecord
  2
BORDERX2
 70
0
  3
Border (2x) ____  ____  .  ____  ____  .  ___
 72
65
 73
6
 40
88.8999999999999915
 49
25.3999999999999986
 74
0
 49
-12.6999999999999993
 74
0
 49
25.3999999999999986
 74
0
 49
-12.6500000000000004
 74
0
 49
0.1
 74
0
 49
-12.6500000000000004
 74
0
  0
LTYPE
  5
39
100
AcDbSymbolTableRecord
100
AcDbLinetypeTableRecord
  2
ACAD_ISO05W100
 70
0
  3
ISO long-dash double-dot ____ .. ____ .. ____ . 
 72
65
 73
6
 40
33.0
 49
24.0
 74
0
 49
-2.9500000000000002
 74
0
 49
0.1
 74
0
 49
-2.8999999999999999
 74
0
 49
0.1
 74
0
 49
-2.9500000000000002
 74
0
  0
LTYPE
  5
3A
100
AcDbSymbolTableRecord
100
AcDbLinetypeTableRecord
  2
DASHDOTX2
 70
0
  3
Dash dot (2x) ____  .  ____  .  ____  .  ___
 72
65
 73
4
 40
50.7999999999999972
 49
25.3999999999999986
 74
0
 49
-12.6500000000000004
 74
0
 49
0.1
 74
0
 49
-12.6500000000000004
 74
0
  0
LTYPE
  5
3B
100
AcDbSymbolTableRecord
100
AcDbLinetypeTableRecord
  2
HIDDENX2
 70
0
  3
Hidden (2x) ____ ____ ____ ____ ____ ____ ____ 
 72
65
 73
2
 40
19.0499999999999972
 49
12.6999999999999993
 74
0
 49
-6.3499999999999996
 74
0
  0
LTYPE
  5
3C
100
AcDbSymbolTableRecord
100
AcDbLinetypeTableRecord
  2
CENTERX2
 70
0
  3
Center (2x) ________  __  ________  __  _____
 72
65
 73
4
 40
101.6000000000000085
 49
63.5
 74
0
 49
-12.6999999999999993
 74
0
 49
12.6999999999999993
 74
0
 49
-12.6999999999999993
 74
0
  0
LTYPE
  5
3D
100
AcDbSymbolTableRecord
100
AcDbLinetypeTableRecord
  2
BORDER2
 70
0
  3
Border (.5x) __.__.__.__.__.__.__.__.__.__.__.
 72
65
 73
6
 40
22.2250000000000014
 49
6.3499999999999996
 74
0
 49
-3.1749999999999998
 74
0
 49
6.3499999999999996
 74
0
 49
-3.125
 74
0
 49
0.1
 74
0
 49
-3.125
 74
0
  0
LTYPE
  5
3E
100
AcDbSymbolTableRecord
100
AcDbLinetypeTableRecord
  2
DASHDOT2
 70
0
  3
Dash dot (.5x) _._._._._._._._._._._._._._._.
 72
65
 73
4
 40
12.6999999999999993
 49
6.3499999999999996
 74
0
 49
-3.125
 74
0
 49
0.1
 74
0
 49
-3.125
 74
0
  0
LTYPE
  5
3F
100
AcDbSymbolTableRecord
100
AcDbLinetypeTableRecord
  2
ACAD_ISO12W100
 70
0
  3
ISO dash double-dot __ . . __ . . __ . . __ . . 
 72
65
 73
6
 40
21.0
 49
12.0
 74
0
 49
-2.9500000000000002
 74
0
 49
0.1
 74
0
 49
-2.8999999999999999
 74
0
 49
0.1
 74
0
 49
-2.9500000000000002
 74
0
  0
LTYPE
  5
40
100
AcDbSymbolTableRecord
100
AcDbLinetypeTableRecord
  2
ACAD_ISO07W100
 70
0
  3
ISO dot . . . . . . . . . . . . . . . . . . . . 
 72
65
 73
2
 40
3.0
 49
0.1
 74
0
 49
-2.8999999999999999
 74
0
  0
LTYPE
  5
41
100
AcDbSymbolTableRecord
100
AcDbLinetypeTableRecord
  2
HIDDEN
 70
0
  3
Hidden __ __ __ __ __ __ __ __ __ __ __ __ __ __
 72
65
 73
2
 40
9.5249999999999986
 49
6.3499999999999996
 74
0
 49
-3.1749999999999998
 74
0
  0
LTYPE
  5
42
100
AcDbSymbolTableRecord
100
AcDbLinetypeTableRecord
  2
ACAD_ISO06W100
 70
0
  3
ISO long-dash triple-dot ____ ... ____ ... ____
 72
65
 73
8
 40
36.0000000000000071
 49
24.0
 74
0
 49
-2.9500000000000002
 74
0
 49
0.1
 74
0
 49
-2.8999999999999999
 74
0
 49
0.1
 74
0
 49
-2.8999999999999999
 74
0
 49
0.1
 74
0
 49
-2.9500000000000002
 74
0
  0
LTYPE
  5
43
100
AcDbSymbolTableRecord
100
AcDbLinetypeTableRecord
  2
CENTER
 70
0
  3
Center ____ _ ____ _ ____ _ ____ _ ____ _ ____
 72
65
 73
4
 40
50.8000000000000043
 49
31.75
 74
0
 49
-6.3499999999999996
 74
0
 49
6.3499999999999996
 74
0
 49
-6.3499999999999996
 74
0
  0
LTYPE
  5
44
100
AcDbSymbolTableRecord
100
AcDbLinetypeTableRecord
  2
DOTX2
 70
0
  3
Dot (2x) .  .  .  .  .  .  .  .  .  .  .  .  .  .
 72
65
 73
2
 40
12.6999999999999993
 49
0.1
 74
0
 49
-12.5999999999999996
 74
0
  0
LTYPE
  5
45
100
AcDbSymbolTableRecord
100
AcDbLinetypeTableRecord
  2
PHANTOM
 70
0
  3
Phantom ______  __  __  ______  __  __  ______ 
 72
65
 73
6
 40
63.5000000000000071
 49
31.75
 74
0
 49
-6.3499999999999996
 74
0
 49
6.3499999999999996
 74
0
 49
-6.3499999999999996
 74
0
 49
6.3499999999999996
 74
0
 49
-6.3499999999999996
 74
0
  0
LTYPE
  5
46
100
AcDbSymbolTableRecord
100
AcDbLinetypeTableRecord
  2
ACAD_ISO08W100
 70
0
  3
ISO long-dash short-dash ____ __ ____ __ ____ _
 72
65
 73
4
 40
36.0
 49
24.0
 74
0
 49
-3.0
 74
0
 49
6.0
 74
0
 49
-3.0
 74
0
  0
LTYPE
  5
47
100
AcDbSymbolTableRecord
100
AcDbLinetypeTableRecord
  2
DASHEDX2
 70
0
  3
Dashed (2x) ____  ____  ____  ____  ____  ___
 72
65
 73
2
 40
38.0999999999999943
 49
25.3999999999999986
 74
0
 49
-12.6999999999999993
 74
0
  0
LTYPE
  5
48
100
AcDbSymbolTableRecord
100
AcDbLinetypeTableRecord
  2
ACAD_ISO02W100
 70
0
  3
ISO dash __ __ __ __ __ __ __ __ __ __ __ __ __
 72
65
 73
2
 40
15.0
 49
12.0
 74
0
 49
-3.0
 74
0
  0
LTYPE
  5
49
100
AcDbSymbolTableRecord
100
AcDbLinetypeTableRecord
  2
PHANTOM2
 70
0
  3
Phantom (.5x) ___ _ _ ___ _ _ ___ _ _ ___ _ _
 72
65
 73
6
 40
31.7500000000000036
 49
15.875
 74
0
 49
-3.1749999999999998
 74
0
 49
3.1749999999999998
 74
0
 49
-3.1749999999999998
 74
0
 49
3.1749999999999998
 74
0
 49
-3.1749999999999998
 74
0
  0
LTYPE
  5
4A
100
AcDbSymbolTableRecord
100
AcDbLinetypeTableRecord
  2
DASHED2
 70
0
  3
Dashed (.5x) _ _ _ _ _ _ _ _ _ _ _ _ _ _ _ _ _ 
 72
65
 73
2
 40
9.5249999999999986
 49
6.3499999999999996
 74
0
 49
-3.1749999999999998
 74
0
  0
LTYPE
  5
4B
100
AcDbSymbolTableRecord
100
AcDbLinetypeTableRecord
  2
ACAD_ISO09W100
 70
0
  3
ISO long-dash double-short-dash ____ __ __ ____
 72
65
 73
6
 40
45.0
 49
24.0
 74
0
 49
-3.0
 74
0
 49
6.0
 74
0
 49
-3.0
 74
0
 49
6.0
 74
0
 49
-3.0
 74
0
  0
LTYPE
  5
4C
100
AcDbSymbolTableRecord
100
AcDbLinetypeTableRecord
  2
ACAD_ISO13W100
 70
0
  3
ISO double-dash double-dot __ __ . . __ __ . . _
 72
65
 73
8
 40
36.0000000000000071
 49
12.0
 74
0
 49
-3.0
 74
0
 49
12.0
 74
0
 49
-2.9500000000000002
 74
0
 49
0.1
 74
0
 49
-2.8999999999999999
 74
0
 49
0.1
 74
0
 49
-2.9500000000000002
 74
0
  0
LTYPE
  5
4D
100
AcDbSymbolTableRecord
100
AcDbLinetypeTableRecord
  2
DOT2
 70
0
  3
Dot (.5x) ........................................
 72
65
 73
2
 40
3.1750000000000003
 49
0.1
 74
0
 49
-3.0750000000000002
 74
0
  0
LTYPE
  5
4E
100
AcDbSymbolTableRecord
100
AcDbLinetypeTableRecord
  2
DASHED
 70
0
  3
Dashed __ __ __ __ __ __ __ __ __ __ __ __ __ _
 72
65
 73
2
 40
19.0499999999999972
 49
12.6999999999999993
 74
0
 49
-6.3499999999999996
 74
0
  0
LTYPE
  5
4F
100
AcDbSymbolTableRecord
100
AcDbLinetypeTableRecord
  2
ACAD_ISO14W100
 70
0
  3
ISO dash triple-dot __ . . . __ . . . __ . . . _
 72
65
 73
8
 40
24.0
 49
12.0
 74
0
 49
-2.9500000000000002
 74
0
 49
0.1
 74
0
 49
-2.8999999999999999
 74
0
 49
0.1
 74
0
 49
-2.8999999999999999
 74
0
 49
0.1
 74
0
 49
-2.9500000000000002
 74
0
  0
LTYPE
  5
50
100
AcDbSymbolTableRecord
100
AcDbLinetypeTableRecord
  2
PHANTOMX2
 70
0
  3
Phantom (2x) ____________    ____    ____   _
 72
65
 73
6
 40
127.0000000000000142
 49
63.5
 74
0
 49
-12.6999999999999993
 74
0
 49
12.6999999999999993
 74
0
 49
-12.6999999999999993
 74
0
 49
12.6999999999999993
 74
0
 49
-12.6999999999999993
 74
0
  0
LTYPE
  5
51
100
AcDbSymbolTableRecord
100
AcDbLinetypeTableRecord
  2
DIVIDEX2
 70
0
  3
Divide (2x) ________  .  .  ________  .  .  _
 72
65
 73
6
 40
63.5
 49
25.3999999999999986
 74
0
 49
-12.6500000000000004
 74
0
 49
0.1
 74
0
 49
-12.5999999999999996
 74
0
 49
0.1
 74
0
 49
-12.6500000000000004
 74
0
  0
LTYPE
  5
52
100
AcDbSymbolTableRecord
100
AcDbLinetypeTableRecord
  2
BORDER
 70
0
  3
Border __ __ . __ __ . __ __ . __ __ . __ __ .
 72
65
 73
6
 40
44.4499999999999957
 49
12.6999999999999993
 74
0
 49
-6.3499999999999996
 74
0
 49
12.6999999999999993
 74
0
 49
-6.2999999999999998
 74
0
 49
0.1
 74
0
 49
-6.2999999999999998
 74
0
  0
LTYPE
  5
53
100
AcDbSymbolTableRecord
100
AcDbLinetypeTableRecord
  2
DIVIDE2
 70
0
  3
Divide (.5x) __..__..__..__..__..__..__..__.._
 72
65
 73
6
 40
15.8749999999999982
 49
6.3499999999999996
 74
0
 49
-3.125
 74
0
 49
0.1
 74
0
 49
-3.0750000000000002
 74
0
 49
0.1
 74
0
 49
-3.125
 74
0
  0
LTYPE
  5
54
100
AcDbSymbolTableRecord
100
AcDbLinetypeTableRecord
  2
DOT
 70
0
  3
Dot . . . . . . . . . . . . . . . . . . . . . . . .
 72
65
 73
2
 40
6.3499999999999996
 49
0.1
 74
0
 49
-6.25
 74
0
  0
LTYPE
  5
55
100
AcDbSymbolTableRecord
100
AcDbLinetypeTableRecord
  2
DASHDOT
 70
0
  3
Dash dot __ . __ . __ . __ . __ . __ . __ . __
 72
65
 73
4
 40
25.4000000000000021
 49
12.6999999999999993
 74
0
 49
-6.2999999999999998
 74
0
 49
0.1
 74
0
 49
-6.2999999999999998
 74
0
  0
LTYPE
  5
56
100
AcDbSymbolTableRecord
100
AcDbLinetypeTableRecord
  2
ACAD_ISO03W100
 70
0
  3
ISO dash space __    __    __    __    __    __
 72
65
 73
2
 40
30.0
 49
12.0
 74
0
 49
-18.0
 74
0
  0
LTYPE
  5
15
100
AcDbSymbolTableRecord
100
AcDbLinetypeTableRecord
  2
ByLayer
 70
0
  3

 72
65
 73
0
 40
0.0
  0
ENDTAB
  0
TABLE
  2
LAYER
  5
2
100
AcDbSymbolTable
 70
12
  0
LAYER
  5
57
100
AcDbSymbolTableRecord
100
AcDbLayerTableRecord
  2
Plankopf Linien d\U+00fcnn
 70
4
 62
3
420
65280
  6
Continuous
370
-3
390
F
  0
LAYER
  5
58
100
AcDbSymbolTableRecord
100
AcDbLayerTableRecord
  2
Logo Planungsb\U+00fcro
 70
4
 62
1
420
16711680
  6
Continuous
370
25
390
F
  0
LAYER
  5
59
100
AcDbSymbolTableRecord
100
AcDbLayerTableRecord
  2
Blattrahmen
 70
4
 62
2
420
16776960
  6
Continuous
370
-3
390
F
  0
LAYER
  5
5A
100
AcDbSymbolTableRecord
100
AcDbLayerTableRecord
  2
Planecken
 70
4
 62
2
420
16776960
  6
Continuous
370
-3
390
F
  0
LAYER
  5
5B
100
AcDbSymbolTableRecord
100
AcDbLayerTableRecord
  2
Plankopf Text ausgef\U+00fcllt
 70
4
 62
94
420
32768
  6
Continuous
370
-3
390
F
  0
LAYER
  5
5C
100
AcDbSymbolTableRecord
100
AcDbLayerTableRecord
  2
Faltmarken
 70
4
 62
3
420
65280
  6
Continuous
370
-3
390
F
  0
LAYER
  5
5D
100
AcDbSymbolTableRecord
100
AcDbLayerTableRecord
  2
Zeichnungsrahmen_blau
 70
4
 62
5
420
255
  6
Continuous
370
-3
390
F
  0
LAYER
  5
10
100
AcDbSymbolTableRecord
100
AcDbLayerTableRecord
  2
0
 70
4
 62
7
420
16777215
  6
Continuous
370
-3
390
F
  0
LAYER
  5
5E
100
AcDbSymbolTableRecord
100
AcDbLayerTableRecord
  2
Zeichnungsrahmen rot
 70
4
 62
1
420
16711680
  6
Continuous
370
-3
390
F
  0
LAYER
  5
5F
100
AcDbSymbolTableRecord
100
AcDbLayerTableRecord
  2
Plankopf Rahmen
 70
4
 62
3
420
65280
  6
Continuous
370
-3
390
F
  0
LAYER
  5
60
100
AcDbSymbolTableRecord
100
AcDbLayerTableRecord
  2
Adresse Planungsb\U+00fcro
 70
4
 62
30
420
16744192
  6
Continuous
370
-3
390
F
  0
LAYER
  5
61
100
AcDbSymbolTableRecord
100
AcDbLayerTableRecord
  2
Plankopf Text Vorgabe
 70
4
 62
1
420
16711680
  6
Continuous
370
-3
390
F
  0
ENDTAB
  0
TABLE
  2
STYLE
  5
3
100
AcDbSymbolTable
 70
69
  0
STYLE
  5
62
100
AcDbSymbolTableRecord
100
AcDbTextStyleTableRecord
  2
Standard
 70
0
 40
0.0
 41
1.0
 50
0.0
 71
0
 42
2.5
  3

  4

1001
ACAD
1000
txt
1071
0
  0
STYLE
  5
63
100
AcDbSymbolTableRecord
100
AcDbTextStyleTableRecord
  2
textstyle0
 70
0
 40
0.0
 41
1.0
 50
0.0
 71
0
 42
1.9799999999999998
  3

  4

1001
ACAD
1000
Liberation Sans
1071
0
  0
STYLE
  5
64
100
AcDbSymbolTableRecord
100
AcDbTextStyleTableRecord
  2
textstyle1
 70
0
 40
0.0
 41
1.0
 50
0.0
 71
0
 42
1.9799999999999998
  3

  4

1001
ACAD
1000
Liberation Sans
1071
0
  0
STYLE
  5
65
100
AcDbSymbolTableRecord
100
AcDbTextStyleTableRecord
  2
textstyle2
 70
0
 40
0.0
 41
1.0
 50
0.0
 71
0
 42
1.9799999999999998
  3

  4

1001
ACAD
1000
Liberation Sans
1071
0
  0
STYLE
  5
66
100
AcDbSymbolTableRecord
100
AcDbTextStyleTableRecord
  2
textstyle3
 70
0
 40
0.0
 41
1.0
 50
0.0
 71
0
 42
1.9799999999999998
  3

  4

1001
ACAD
1000
Liberation Sans
1071
0
  0
STYLE
  5
67
100
AcDbSymbolTableRecord
100
AcDbTextStyleTableRecord
  2
textstyle4
 70
0
 40
0.0
 41
1.0
 50
0.0
 71
0
 42
1.9799999999999998
  3

  4

1001
ACAD
1000
Liberation Sans
1071
0
  0
STYLE
  5
68
100
AcDbSymbolTableRecord
100
AcDbTextStyleTableRecord
  2
textstyle5
 70
0
 40
0.0
 41
1.0
 50
0.0
 71
0
 42
1.9799999999999998
  3

  4

1001
ACAD
1000
Liberation Sans
1071
0
  0
STYLE
  5
69
100
AcDbSymbolTableRecord
100
AcDbTextStyleTableRecord
  2
textstyle6
 70
0
 40
0.0
 41
1.0
 50
0.0
 71
0
 42
3.4649999999999999
  3

  4

1001
ACAD
1000
Liberation Sans
1071
0
  0
STYLE
  5
6A
100
AcDbSymbolTableRecord
100
AcDbTextStyleTableRecord
  2
textstyle7
 70
0
 40
0.0
 41
1.0
 50
0.0
 71
0
 42
3.4649999999999999
  3

  4

1001
ACAD
1000
Liberation Sans
1071
0
  0
STYLE
  5
6B
100
AcDbSymbolTableRecord
100
AcDbTextStyleTableRecord
  2
textstyle8
 70
0
 40
0.0
 41
1.0
 50
0.0
 71
0
 42
3.4649999999999999
  3

  4

1001
ACAD
1000
Liberation Sans
1071
0
  0
STYLE
  5
6C
100
AcDbSymbolTableRecord
100
AcDbTextStyleTableRecord
  2
textstyle9
 70
0
 40
0.0
 41
1.0
 50
0.0
 71
0
 42
3.4649999999999999
  3

  4

1001
ACAD
1000
Liberation Sans
1071
0
  0
STYLE
  5
6D
100
AcDbSymbolTableRecord
100
AcDbTextStyleTableRecord
  2
textstyle10
 70
0
 40
0.0
 41
1.0
 50
0.0
 71
0
 42
3.4649999999999999
  3

  4

1001
ACAD
1000
Liberation Sans
1071
0
  0
STYLE
  5
6E
100
AcDbSymbolTableRecord
100
AcDbTextStyleTableRecord
  2
textstyle11
 70
0
 40
0.0
 41
1.0
 50
0.0
 71
0
 42
3.4649999999999999
  3

  4

1001
ACAD
1000
Liberation Sans
1071
0
  0
STYLE
  5
6F
100
AcDbSymbolTableRecord
100
AcDbTextStyleTableRecord
  2
textstyle12
 70
0
 40
0.0
 41
1.0
 50
0.0
 71
0
 42
3.4649999999999999
  3

  4

1001
ACAD
1000
Liberation Sans
1071
0
  0
STYLE
  5
70
100
AcDbSymbolTableRecord
100
AcDbTextStyleTableRecord
  2
textstyle13
 70
0
 40
0.0
 41
1.0
 50
0.0
 71
0
 42
3.4649999999999999
  3

  4

1001
ACAD
1000
Liberation Sans
1071
0
  0
STYLE
  5
71
100
AcDbSymbolTableRecord
100
AcDbTextStyleTableRecord
  2
textstyle14
 70
0
 40
0.0
 41
1.0
 50
0.0
 71
0
 42
1.9799999999999998
  3

  4

1001
ACAD
1000
Liberation Sans
1071
0
  0
STYLE
  5
72
100
AcDbSymbolTableRecord
100
AcDbTextStyleTableRecord
  2
textstyle15
 70
0
 40
0.0
 41
1.0
 50
0.0
 71
0
 42
1.9799999999999998
  3

  4

1001
ACAD
1000
Liberation Sans
1071
0
  0
STYLE
  5
73
100
AcDbSymbolTableRecord
100
AcDbTextStyleTableRecord
  2
textstyle16
 70
0
 40
0.0
 41
1.0
 50
0.0
 71
0
 42
1.9799999999999998
  3

  4

1001
ACAD
1000
Liberation Sans
1071
0
  0
STYLE
  5
74
100
AcDbSymbolTableRecord
100
AcDbTextStyleTableRecord
  2
textstyle17
 70
0
 40
0.0
 41
1.0
 50
0.0
 71
0
 42
1.9799999999999998
  3

  4

1001
ACAD
1000
Liberation Sans
1071
0
  0
STYLE
  5
75
100
AcDbSymbolTableRecord
100
AcDbTextStyleTableRecord
  2
textstyle18
 70
0
 40
0.0
 41
1.0
 50
0.0
 71
0
 42
1.9799999999999998
  3

  4

1001
ACAD
1000
Liberation Sans
1071
0
  0
STYLE
  5
76
100
AcDbSymbolTableRecord
100
AcDbTextStyleTableRecord
  2
textstyle19
 70
0
 40
0.0
 41
1.0
 50
0.0
 71
0
 42
1.9799999999999998
  3

  4

1001
ACAD
1000
Liberation Sans
1071
0
  0
STYLE
  5
77
100
AcDbSymbolTableRecord
100
AcDbTextStyleTableRecord
  2
textstyle20
 70
0
 40
0.0
 41
1.0
 50
0.0
 71
0
 42
1.9799999999999998
  3

  4

1001
ACAD
1000
Liberation Sans
1071
0
  0
STYLE
  5
78
100
AcDbSymbolTableRecord
100
AcDbTextStyleTableRecord
  2
textstyle21
 70
0
 40
0.0
 41
1.0
 50
0.0
 71
0
 42
1.9799999999999998
  3

  4

1001
ACAD
1000
Liberation Sans
1071
0
  0
STYLE
  5
79
100
AcDbSymbolTableRecord
100
AcDbTextStyleTableRecord
  2
textstyle22
 70
0
 40
0.0
 41
1.0
 50
0.0
 71
0
 42
3.4649999999999999
  3

  4

1001
ACAD
1000
Liberation Sans
1071
0
  0
STYLE
  5
7A
100
AcDbSymbolTableRecord
100
AcDbTextStyleTableRecord
  2
textstyle23
 70
0
 40
0.0
 41
1.0
 50
0.0
 71
0
 42
3.4649999999999999
  3

  4

1001
ACAD
1000
Liberation Sans
1071
0
  0
STYLE
  5
7B
100
AcDbSymbolTableRecord
100
AcDbTextStyleTableRecord
  2
textstyle24
 70
0
 40
0.0
 41
1.0
 50
0.0
 71
0
 42
3.4649999999999999
  3

  4

1001
ACAD
1000
Liberation Sans
1071
0
  0
STYLE
  5
7C
100
AcDbSymbolTableRecord
100
AcDbTextStyleTableRecord
  2
textstyle25
 70
0
 40
0.0
 41
1.0
 50
0.0
 71
0
 42
3.4649999999999999
  3

  4

1001
ACAD
1000
Liberation Sans
1071
0
  0
STYLE
  5
7D
100
AcDbSymbolTableRecord
100
AcDbTextStyleTableRecord
  2
textstyle26
 70
0
 40
0.0
 41
1.0
 50
0.0
 71
0
 42
3.4649999999999999
  3

  4

1001
ACAD
1000
Liberation Sans
1071
0
  0
STYLE
  5
7E
100
AcDbSymbolTableRecord
100
AcDbTextStyleTableRecord
  2
textstyle27
 70
0
 40
0.0
 41
1.0
 50
0.0
 71
0
 42
3.4649999999999999
  3

  4

1001
ACAD
1000
Liberation Sans
1071
0
  0
STYLE
  5
7F
100
AcDbSymbolTableRecord
100
AcDbTextStyleTableRecord
  2
textstyle28
 70
0
 40
0.0
 41
1.0
 50
0.0
 71
0
 42
3.9599999999999995
  3

  4

1001
ACAD
1000
Liberation Sans
1071
16777216
  0
STYLE
  5
80
100
AcDbSymbolTableRecord
100
AcDbTextStyleTableRecord
  2
textstyle29
 70
0
 40
0.0
 41
1.0
 50
0.0
 71
0
 42
1.9799999999999998
  3

  4

1001
ACAD
1000
Liberation Sans
1071
16777216
  0
STYLE
  5
81
100
AcDbSymbolTableRecord
100
AcDbTextStyleTableRecord
  2
textstyle30
 70
0
 40
0.0
 41
1.0
 50
0.0
 71
0
 42
2.9699999999999998
  3

  4

1001
ACAD
1000
Liberation Sans
1071
16777216
  0
STYLE
  5
82
100
AcDbSymbolTableRecord
100
AcDbTextStyleTableRecord
  2
textstyle31
 70
0
 40
0.0
 41
1.0
 50
0.0
 71
0
 42
2.9699999999999998
  3

  4

1001
ACAD
1000
Liberation Sans
1071
0
  0
STYLE
  5
83
100
AcDbSymbolTableRecord
100
AcDbTextStyleTableRecord
  2
textstyle32
 70
0
 40
0.0
 41
1.0
 50
0.0
 71
0
 42
1.4849999999999999
  3

  4

1001
ACAD
1000
Liberation Sans
1071
0
  0
STYLE
  5
84
100
AcDbSymbolTableRecord
100
AcDbTextStyleTableRecord
  2
textstyle33
 70
0
 40
0.0
 41
1.0
 50
0.0
 71
0
 42
1.4849999999999999
  3

  4

1001
ACAD
1000
Liberation Sans
1071
0
  0
STYLE
  5
85
100
AcDbSymbolTableRecord
100
AcDbTextStyleTableRecord
  2
textstyle34
 70
0
 40
0.0
 41
1.0
 50
0.0
 71
0
 42
1.4849999999999999
  3

  4

1001
ACAD
1000
Liberation Sans
1071
0
  0
STYLE
  5
86
100
AcDbSymbolTableRecord
100
AcDbTextStyleTableRecord
  2
textstyle35
 70
0
 40
0.0
 41
1.0
 50
0.0
 71
0
 42
1.3859999999999999
  3

  4

1001
ACAD
1000
Liberation Sans
1071
0
  0
STYLE
  5
87
100
AcDbSymbolTableRecord
100
AcDbTextStyleTableRecord
  2
textstyle36
 70
0
 40
0.0
 41
1.0
 50
0.0
 71
0
 42
1.4849999999999999
  3

  4

1001
ACAD
1000
Liberation Sans
1071
0
  0
STYLE
  5
88
100
AcDbSymbolTableRecord
100
AcDbTextStyleTableRecord
  2
textstyle37
 70
0
 40
0.0
 41
1.0
 50
0.0
 71
0
 42
1.4849999999999999
  3

  4

1001
ACAD
1000
Liberation Sans
1071
0
  0
STYLE
  5
89
100
AcDbSymbolTableRecord
100
AcDbTextStyleTableRecord
  2
textstyle38
 70
0
 40
0.0
 41
1.0
 50
0.0
 71
0
 42
1.4849999999999999
  3

  4

1001
ACAD
1000
Liberation Sans
1071
0
  0
STYLE
  5
8A
100
AcDbSymbolTableRecord
100
AcDbTextStyleTableRecord
  2
textstyle39
 70
0
 40
0.0
 41
1.0
 50
0.0
 71
0
 42
1.4849999999999999
  3

  4

1001
ACAD
1000
Liberation Sans
1071
0
  0
STYLE
  5
8B
100
AcDbSymbolTableRecord
100
AcDbTextStyleTableRecord
  2
textstyle40
 70
0
 40
0.0
 41
1.0
 50
0.0
 71
0
 42
1.4849999999999999
  3

  4

1001
ACAD
1000
Liberation Sans
1071
0
  0
STYLE
  5
8C
100
AcDbSymbolTableRecord
100
AcDbTextStyleTableRecord
  2
textstyle41
 70
0
 40
0.0
 41
1.0
 50
0.0
 71
0
 42
1.4849999999999999
  3

  4

1001
ACAD
1000
Liberation Sans
1071
0
  0
STYLE
  5
8D
100
AcDbSymbolTableRecord
100
AcDbTextStyleTableRecord
  2
textstyle42
 70
0
 40
0.0
 41
1.0
 50
0.0
 71
0
 42
1.4849999999999999
  3

  4

1001
ACAD
1000
Liberation Sans
1071
0
  0
STYLE
  5
8E
100
AcDbSymbolTableRecord
100
AcDbTextStyleTableRecord
  2
textstyle43
 70
0
 40
0.0
 41
1.0
 50
0.0
 71
0
 42
4.9499999999999993
  3

  4

1001
ACAD
1000
Liberation Sans
1071
0
  0
STYLE
  5
8F
100
AcDbSymbolTableRecord
100
AcDbTextStyleTableRecord
  2
textstyle44
 70
0
 40
0.0
 41
1.0
 50
0.0
 71
0
 42
3.9599999999999995
  3

  4

1001
ACAD
1000
Liberation Sans
1071
0
  0
STYLE
  5
90
100
AcDbSymbolTableRecord
100
AcDbTextStyleTableRecord
  2
textstyle45
 70
0
 40
0.0
 41
1.0
 50
0.0
 71
0
 42
3.9599999999999995
  3

  4

1001
ACAD
1000
Liberation Sans
1071
0
  0
STYLE
  5
91
100
AcDbSymbolTableRecord
100
AcDbTextStyleTableRecord
  2
textstyle46
 70
0
 40
0.0
 41
1.0
 50
0.0
 71
0
 42
3.9599999999999995
  3

  4

1001
ACAD
1000
Liberation Sans
1071
0
  0
STYLE
  5
92
100
AcDbSymbolTableRecord
100
AcDbTextStyleTableRecord
  2
textstyle47
 70
0
 40
0.0
 41
1.0
 50
0.0
 71
0
 42
4.9499999999999993
  3

  4

1001
ACAD
1000
Liberation Sans
1071
0
  0
STYLE
  5
93
100
AcDbSymbolTableRecord
100
AcDbTextStyleTableRecord
  2
textstyle48
 70
0
 40
0.0
 41
1.0
 50
0.0
 71
0
 42
3.9599999999999995
  3

  4

1001
ACAD
1000
Liberation Sans
1071
0
  0
STYLE
  5
94
100
AcDbSymbolTableRecord
100
AcDbTextStyleTableRecord
  2
textstyle49
 70
0
 40
0.0
 41
1.0
 50
0.0
 71
0
 42
2.4749999999999996
  3

  4

1001
ACAD
1000
Liberation Sans
1071
0
  0
STYLE
  5
95
100
AcDbSymbolTableRecord
100
AcDbTextStyleTableRecord
  2
textstyle50
 70
0
 40
0.0
 41
1.0
 50
0.0
 71
0
 42
2.4749999999999996
  3

  4

1001
ACAD
1000
Liberation Sans
1071
0
  0
STYLE
  5
96
100
AcDbSymbolTableRecord
100
AcDbTextStyleTableRecord
  2
textstyle51
 70
0
 40
0.0
 41
1.0
 50
0.0
 71
0
 42
2.4749999999999996
  3

  4

1001
ACAD
1000
Liberation Sans
1071
0
  0
STYLE
  5
97
100
AcDbSymbolTableRecord
100
AcDbTextStyleTableRecord
  2
textstyle52
 70
0
 40
0.0
 41
1.0
 50
0.0
 71
0
 42
2.4749999999999996
  3

  4

1001
ACAD
1000
Liberation Sans
1071
0
  0
STYLE
  5
98
100
AcDbSymbolTableRecord
100
AcDbTextStyleTableRecord
  2
textstyle53
 70
0
 40
0.0
 41
1.0
 50
0.0
 71
0
 42
2.4749999999999996
  3

  4

1001
ACAD
1000
Liberation Sans
1071
0
  0
STYLE
  5
99
100
AcDbSymbolTableRecord
100
AcDbTextStyleTableRecord
  2
textstyle54
 70
0
 40
0.0
 41
1.0
 50
0.0
 71
0
 42
2.4749999999999996
  3

  4

1001
ACAD
1000
Liberation Sans
1071
0
  0
STYLE
  5
9A
100
AcDbSymbolTableRecord
100
AcDbTextStyleTableRecord
  2
textstyle55
 70
0
 40
0.0
 41
1.0
 50
0.0
 71
0
 42
2.4749999999999996
  3

  4

1001
ACAD
1000
Liberation Sans
1071
0
  0
STYLE
  5
9B
100
AcDbSymbolTableRecord
100
AcDbTextStyleTableRecord
  2
textstyle56
 70
0
 40
0.0
 41
1.0
 50
0.0
 71
0
 42
2.4749999999999996
  3

  4

1001
ACAD
1000
Liberation Sans
1071
0
  0
STYLE
  5
9C
100
AcDbSymbolTableRecord
100
AcDbTextStyleTableRecord
  2
textstyle57
 70
0
 40
0.0
 41
1.0
 50
0.0
 71
0
 42
2.9699999999999998
  3

  4

1001
ACAD
1000
Liberation Sans
1071
0
  0
STYLE
  5
9D
100
AcDbSymbolTableRecord
100
AcDbTextStyleTableRecord
  2
textstyle58
 70
0
 40
0.0
 41
1.0
 50
0.0
 71
0
 42
2.9699999999999998
  3

  4

1001
ACAD
1000
Liberation Sans
1071
0
  0
STYLE
  5
9E
100
AcDbSymbolTableRecord
100
AcDbTextStyleTableRecord
  2
textstyle59
 70
0
 40
0.0
 41
1.0
 50
0.0
 71
0
 42
2.9699999999999998
  3

  4

1001
ACAD
1000
Liberation Sans
1071
0
  0
STYLE
  5
9F
100
AcDbSymbolTableRecord
100
AcDbTextStyleTableRecord
  2
textstyle60
 70
0
 40
0.0
 41
1.0
 50
0.0
 71
0
 42
2.9699999999999998
  3

  4

1001
ACAD
1000
Liberation Sans
1071
0
  0
STYLE
  5
A0
100
AcDbSymbolTableRecord
100
AcDbTextStyleTableRecord
  2
textstyle61
 70
0
 40
0.0
 41
1.0
 50
0.0
 71
0
 42
2.9699999999999998
  3

  4

1001
ACAD
1000
Liberation Sans
1071
0
  0
STYLE
  5
A1
100
AcDbSymbolTableRecord
100
AcDbTextStyleTableRecord
  2
textstyle62
 70
0
 40
0.0
 41
1.0
 50
0.0
 71
0
 42
2.9700000000000002
  3

  4

1001
ACAD
1000
Liberation Sans
1071
0
  0
STYLE
  5
A2
100
AcDbSymbolTableRecord
100
AcDbTextStyleTableRecord
  2
textstyle63
 70
0
 40
0.0
 41
1.0
 50
0.0
 71
0
 42
2.9699999999999998
  3

  4

1001
ACAD
1000
Liberation Sans
1071
0
  0
STYLE
  5
A3
100
AcDbSymbolTableRecord
100
AcDbTextStyleTableRecord
  2
textstyle64
 70
0
 40
0.0
 41
1.0
 50
0.0
 71
0
 42
2.9699999999999998
  3

  4

1001
ACAD
1000
Liberation Sans
1071
0
  0
STYLE
  5
A4
100
AcDbSymbolTableRecord
100
AcDbTextStyleTableRecord
  2
textstyle65
 70
0
 40
0.0
 41
1.0
 50
0.0
 71
0
 42
2.9699999999999998
  3

  4

1001
ACAD
1000
Liberation Sans
1071
0
  0
STYLE
  5
A5
100
AcDbSymbolTableRecord
100
AcDbTextStyleTableRecord
  2
textstyle66
 70
0
 40
0.0
 41
1.0
 50
0.0
 71
0
 42
2.9699999999999998
  3

  4

1001
ACAD
1000
Liberation Sans
1071
0
  0
STYLE
  5
A6
100
AcDbSymbolTableRecord
100
AcDbTextStyleTableRecord
  2
textstyle67
 70
0
 40
0.0
 41
1.0
 50
0.0
 71
0
 42
2.9699999999999998
  3

  4

1001
ACAD
1000
Liberation Sans
1071
0
  0
ENDTAB
  0
TABLE
  2
VIEW
  5
6
100
AcDbSymbolTable
 70
0
  0
ENDTAB
  0
TABLE
  2
UCS
  5
7
100
AcDbSymbolTable
 70
0
  0
ENDTAB
  0
TABLE
  2
APPID
  5
9
100
AcDbSymbolTable
 70
1
  0
APPID
  5
12
100
AcDbSymbolTableRecord
100
AcDbRegAppTableRecord
  2
ACAD
 70
0
  0
APPID
  5
A7
100
AcDbSymbolTableRecord
100
AcDbRegAppTableRecord
  2
QCAD
 70
0
  0
ENDTAB
  0
TABLE
  2
DIMSTYLE
  5
A
100
AcDbSymbolTable
 70
1
100
AcDbDimStyleTable
 71
0
  0
DIMSTYLE
105
27
100
AcDbSymbolTableRecord
100
AcDbDimStyleTableRecord
  2
Standard
 41
2.5
 42
0.625
 43
3.75
 44
1.25
 70
0
 73
0
 74
0
 77
1
 78
8
140
2.5
141
2.5
143
0.03937007874016
147
0.625
171
3
172
1
271
2
272
2
274
3
278
44
283
0
284
8
340
62
  0
ENDTAB
  0
TABLE
  2
BLOCK_RECORD
  5
1
100
AcDbSymbolTable
 70
1
  0
BLOCK_RECORD
  5
1F
100
AcDbSymbolTableRecord
100
AcDbBlockTableRecord
  2
*Model_Space
340
22
  0
BLOCK_RECORD
  5
1B
100
AcDbSymbolTableRecord
100
AcDbBlockTableRecord
  2
*Paper_Space
340
1E
  0
BLOCK_RECORD
  5
23
100
AcDbSymbolTableRecord
100
AcDbBlockTableRecord
  2
*Paper_Space0
340
26
  0
BLOCK_RECORD
  5
A8
100
AcDbSymbolTableRecord
100
AcDbBlockTableRecord
  2
DIN-A0-Zeichnungsrahmen
340
0
  0
ENDTAB
  0
ENDSEC
  0
SECTION
  2
BLOCKS
  0
BLOCK
  5
20
100
AcDbEntity
  8
0
100
AcDbBlockBegin
  2
*Model_Space
 70
0
 10
0.0
 20
0.0
 30
0.0
  3
*Model_Space
  1

  0
ENDBLK
  5
21
100
AcDbEntity
  8
0
100
AcDbBlockEnd
  0
BLOCK
  5
1C
100
AcDbEntity
 67
1
  8
0
100
AcDbBlockBegin
  2
*Paper_Space
 70
0
 10
0.0
 20
0.0
 30
0.0
  3
*Paper_Space
  1

  0
ENDBLK
  5
1D
100
AcDbEntity
 67
1
  8
0
100
AcDbBlockEnd
  0
BLOCK
  5
24
100
AcDbEntity
  8
0
100
AcDbBlockBegin
  2
*Paper_Space0
 70
0
 10
0.0
 20
0.0
 30
0.0
  3
*Paper_Space0
  1

  0
ENDBLK
  5
25
100
AcDbEntity
  8
0
100
AcDbBlockEnd
  0
BLOCK
  5
A9
100
AcDbEntity
  8
0
100
AcDbBlockBegin
  2
DIN-A0-Zeichnungsrahmen
 70
0
 10
0.0
 20
0.0
 30
0.0
  3
DIN-A0-Zeichnungsrahmen
  1

  0
LINE
  5
AA
100
AcDbEntity
100
AcDbLine
  8
0
 62
7
420
16777215
370
-1
 48
1.0
  6
ByLayer
 10
20.0
 20
420.5
 30
0.0
 11
15.0
 21
420.5
 31
0.0
  0
LINE
  5
AB
100
AcDbEntity
100
AcDbLine
  8
0
 62
256
370
-1
 48
1.0
  6
ByLayer
 10
604.5
 20
5.0
 30
0.0
 11
604.5
 21
10.0
 31
0.0
  0
ENDBLK
  5
AC
100
AcDbEntity
  8
0
100
AcDbBlockEnd
  0
ENDSEC
  0
SECTION
  2
ENTITIES
  0
LINE
  5
AD
100
AcDbEntity
100
AcDbLine
  8
Planecken
 62
256
370
-1
 48
1.0
  6
ByLayer
 10
0.0
 20
0.0
 30
0.0
 11
0.0
 21
10.0
 31
0.0
  0
LINE
  5
AE
100
AcDbEntity
100
AcDbLine
  8
Planecken
 62
256
370
-1
 48
1.0
  6
ByLayer
 10
0.0
 20
10.0
 30
0.0
 11
5.0
 21
10.0
 31
0.0
  0
LINE
  5
AF
100
AcDbEntity
100
AcDbLine
  8
Planecken
 62
256
370
-1
 48
1.0
  6
ByLayer
 10
5.0
 20
10.0
 30
0.0
 11
5.0
 21
5.0
 31
0.0
  0
LINE
  5
B0
100
AcDbEntity
100
AcDbLine
  8
Planecken
 62
256
370
-1
 48
1.0
  6
ByLayer
 10
5.0
 20
5.0
 30
0.0
 11
10.0
 21
5.0
 31
0.0
  0
LINE
  5
B1
100
AcDbEntity
100
AcDbLine
  8
Planecken
 62
256
370
-1
 48
1.0
  6
ByLayer
 10
10.0
 20
5.0
 30
0.0
 11
10.0
 21
0.0
 31
0.0
  0
LINE
  5
B2
100
AcDbEntity
100
AcDbLine
  8
Planecken
 62
256
370
-1
 48
1.0
  6
ByLayer
 10
0.0
 20
0.0
 30
0.0
 11
10.0
 21
0.0
 31
0.0
  0
HATCH
  5
B3
  8
Planecken
 62
256
370
-1
 48
1.0
  6
ByLayer
100
AcDbEntity
100
AcDbHatch
 10
0.0
 20
0.0
 30
0.0
210
0.0
220
0.0
230
1.0
  2
SOLID
 70
1
 71
0
 91
1
 92
1
 93
6
 72
1
 10
0.0
 20
0.0
 11
0.0
 21
10.0
 72
1
 10
0.0
 20
10.0
 11
5.0
 21
10.0
 72
1
 10
5.0
 20
10.0
 11
5.0
 21
5.0
 72
1
 10
5.0
 20
5.0
 11
10.0
 21
5.0
 72
1
 10
10.0
 20
5.0
 11
10.0
 21
0.0
 72
1
 10
10.0
 20
0.0
 11
0.0
 21
0.0
 97
0
 75
0
 76
1
 98
0
1001
ACAD
1010
0.0
1020
0.0
1030
0
  0
LINE
  5
B4
100
AcDbEntity
100
AcDbLine
  8
Planecken
 62
256
370
-1
 48
1.0
  6
ByLayer
 10
10.0
 20
297.0
 30
0.0
 11
10.0
 21
292.0
 31
0.0
  0
LINE
  5
B5
100
AcDbEntity
100
AcDbLine
  8
Planecken
 62
256
370
-1
 48
1.0
  6
ByLayer
 10
10.0
 20
292.0
 30
0.0
 11
5.0
 21
292.0
 31
0.0
  0
LINE
  5
B6
100
AcDbEntity
100
AcDbLine
  8
Planecken
 62
256
370
-1
 48
1.0
  6
ByLayer
 10
5.0
 20
292.0
 30
0.0
 11
5.0
 21
287.0
 31
0.0
  0
LINE
  5
B7
100
AcDbEntity
100
AcDbLine
  8
Planecken
 62
256
370
-1
 48
1.0
  6
ByLayer
 10
5.0
 20
287.0
 30
0.0
 11
0.0
 21
287.0
 31
0.0
  0
HATCH
  5
B8
  8
Planecken
 62
256
370
-1
 48
1.0
  6
ByLayer
100
AcDbEntity
100
AcDbHatch
 10
0.0
 20
0.0
 30
0.0
210
0.0
220
0.0
230
1.0
  2
SOLID
 70
1
 71
0
 91
1
 92
1
 93
6
 72
1
 10
10.0
 20
296.9999999999998863
 11
10.0
 21
291.9999999999998863
 72
1
 10
10.0
 20
291.9999999999998863
 11
5.0
 21
291.9999999999998863
 72
1
 10
5.0
 20
291.9999999999998863
 11
5.0
 21
286.9999999999998863
 72
1
 10
5.0
 20
286.9999999999998863
 11
0.0
 21
286.9999999999998863
 72
1
 10
0.0
 20
286.9999999999998863
 11
0.0
 21
296.9999999999998863
 72
1
 10
0.0
 20
296.9999999999998863
 11
10.0
 21
296.9999999999998863
 97
0
 75
0
 76
1
 98
0
1001
ACAD
1010
0.0
1020
0.0
1030
0
  0
LINE
  5
B9
100
AcDbEntity
100
AcDbLine
  8
Planecken
 62
256
370
-1
 48
1.0
  6
ByLayer
 10
410.0
 20
297.0
 30
0.0
 11
420.0
 21
297.0
 31
0.0
  0
LINE
  5
BA
100
AcDbEntity
100
AcDbLine
  8
Planecken
 62
256
370
-1
 48
1.0
  6
ByLayer
 10
420.0
 20
297.0
 30
0.0
 11
420.0
 21
287.0
 31
0.0
  0
LINE
  5
BB
100
AcDbEntity
100
AcDbLine
  8
Planecken
 62
256
370
-1
 48
1.0
  6
ByLayer
 10
420.0
 20
287.0
 30
0.0
 11
415.0
 21
287.0
 31
0.0
  0
LINE
  5
BC
100
AcDbEntity
100
AcDbLine
  8
Planecken
 62
256
370
-1
 48
1.0
  6
ByLayer
 10
415.0
 20
287.0
 30
0.0
 11
415.0
 21
292.0
 31
0.0
  0
LINE
  5
BD
100
AcDbEntity
100
AcDbLine
  8
Planecken
 62
256
370
-1
 48
1.0
  6
ByLayer
 10
415.0
 20
292.0
 30
0.0
 11
410.0
 21
292.0
 31
0.0
  0
LINE
  5
BE
100
AcDbEntity
100
AcDbLine
  8
Planecken
 62
256
370
-1
 48
1.0
  6
ByLayer
 10
410.0
 20
292.0
 30
0.0
 11
410.0
 21
297.0
 31
0.0
  0
HATCH
  5
BF
  8
Planecken
 62
256
370
-1
 48
1.0
  6
ByLayer
100
AcDbEntity
100
AcDbHatch
 10
0.0
 20
0.0
 30
0.0
210
0.0
220
0.0
230
1.0
  2
SOLID
 70
1
 71
0
 91
1
 92
1
 93
6
 72
1
 10
410.0
 20
296.9999999999998863
 11
420.0
 21
296.9999999999998863
 72
1
 10
420.0
 20
296.9999999999998863
 11
420.0
 21
286.9999999999998863
 72
1
 10
420.0
 20
286.9999999999998863
 11
415.0
 21
286.9999999999998863
 72
1
 10
415.0
 20
286.9999999999998863
 11
415.0
 21
291.9999999999998863
 72
1
 10
415.0
 20
291.9999999999998863
 11
410.0
 21
291.9999999999998863
 72
1
 10
410.0
 20
291.9999999999998863
 11
410.0
 21
296.9999999999998863
 97
0
 75
0
 76
1
 98
0
1001
ACAD
1010
0.0
1020
0.0
1030
0
  0
LINE
  5
C0
100
AcDbEntity
100
AcDbLine
  8
Planecken
 62
256
370
-1
 48
1.0
  6
ByLayer
 10
420.0
 20
10.0
 30
0.0
 11
415.0
 21
10.0
 31
0.0
  0
LINE
  5
C1
100
AcDbEntity
100
AcDbLine
  8
Planecken
 62
256
370
-1
 48
1.0
  6
ByLayer
 10
415.0
 20
10.0
 30
0.0
 11
415.0
 21
5.0
 31
0.0
  0
LINE
  5
C2
100
AcDbEntity
100
AcDbLine
  8
Planecken
 62
256
370
-1
 48
1.0
  6
ByLayer
 10
415.0
 20
5.0
 30
0.0
 11
410.0
 21
5.0
 31
0.0
  0
LINE
  5
C3
100
AcDbEntity
100
AcDbLine
  8
Planecken
 62
256
370
-1
 48
1.0
  6
ByLayer
 10
410.0
 20
5.0
 30
0.0
 11
410.0
 21
0.0
 31
0.0
  0
LINE
  5
C4
100
AcDbEntity
100
AcDbLine
  8
Planecken
 62
256
370
-1
 48
1.0
  6
ByLayer
 10
410.0
 20
0.0
 30
0.0
 11
420.0
 21
0.0
 31
0.0
  0
LINE
  5
C5
100
AcDbEntity
100
AcDbLine
  8
Planecken
 62
256
370
-1
 48
1.0
  6
ByLayer
 10
420.0
 20
0.0
 30
0.0
 11
420.0
 21
10.0
 31
0.0
  0
HATCH
  5
C6
  8
Planecken
 62
256
370
-1
 48
1.0
  6
ByLayer
100
AcDbEntity
100
AcDbHatch
 10
0.0
 20
0.0
 30
0.0
210
0.0
220
0.0
230
1.0
  2
SOLID
 70
1
 71
0
 91
1
 92
1
 93
6
 72
1
 10
410.0
 20
-0.0000000000000514
 11
420.0
 21
-0.0000000000000514
 72
1
 10
420.0
 20
-0.0000000000000514
 11
420.0
 21
9.9999999999999485
 72
1
 10
420.0
 20
9.9999999999999485
 11
415.0
 21
9.9999999999999485
 72
1
 10
415.0
 20
9.9999999999999485
 11
415.0
 21
4.9999999999999476
 72
1
 10
415.0
 20
4.9999999999999476
 11
410.0
 21
4.9999999999999476
 72
1
 10
410.0
 20
4.9999999999999476
 11
410.0
 21
-0.0000000000000515
 97
0
 75
0
 76
1
 98
0
1001
ACAD
1010
0.0
1020
0.0
1030
0
  0
LINE
  5
C7
100
AcDbEntity
100
AcDbLine
  8
Zeichnungsrahmen_blau
 62
256
370
-1
 48
1.0
  6
ByLayer
 10
415.0
 20
5.0
 30
0.0
 11
20.0
 21
5.0
 31
0.0
  0
LINE
  5
C8
100
AcDbEntity
100
AcDbLine
  8
Zeichnungsrahmen_blau
 62
256
370
-1
 48
1.0
  6
ByLayer
 10
415.0
 20
292.0
 30
0.0
 11
415.0
 21
5.0
 31
0.0
  0
LINE
  5
C9
100
AcDbEntity
100
AcDbLine
  8
Zeichnungsrahmen rot
 62
256
370
-1
 48
1.0
  6
ByLayer
 10
22.0
 20
7.0
 30
0.0
 11
413.0
 21
7.0
 31
0.0
  0
LINE
  5
CA
100
AcDbEntity
100
AcDbLine
  8
Zeichnungsrahmen rot
 62
256
370
-1
 48
1.0
  6
ByLayer
 10
413.0
 20
7.0
 30
0.0
 11
413.0
 21
290.0
 31
0.0
  0
LINE
  5
CB
100
AcDbEntity
100
AcDbLine
  8
Blattrahmen
 62
256
370
-1
 48
1.0
  6
ByLayer
 10
420.0
 20
297.0
 30
0.0
 11
0.0
 21
297.0
 31
0.0
  0
LINE
  5
CC
100
AcDbEntity
100
AcDbLine
  8
Blattrahmen
 62
256
370
-1
 48
1.0
  6
ByLayer
 10
0.0
 20
297.0
 30
0.0
 11
0.0
 21
0.0
 31
0.0
  0
LINE
  5
CD
100
AcDbEntity
100
AcDbLine
  8
Blattrahmen
 62
256
370
-1
 48
1.0
  6
ByLayer
 10
420.0
 20
0.0
 30
0.0
 11
420.0
 21
297.0
 31
0.0
  0
LINE
  5
CE
100
AcDbEntity
100
AcDbLine
  8
Blattrahmen
 62
256
370
-1
 48
1.0
  6
ByLayer
 10
0.0
 20
0.0
 30
0.0
 11
420.0
 21
0.0
 31
0.0
  0
LINE
  5
CF
100
AcDbEntity
100
AcDbLine
  8
Zeichnungsrahmen_blau
 62
256
370
-1
 48
1.0
  6
ByLayer
 10
415.0
 20
292.0
 30
0.0
 11
20.0
 21
292.0
 31
0.0
  0
LINE
  5
D0
100
AcDbEntity
100
AcDbLine
  8
Zeichnungsrahmen_blau
 62
256
370
-1
 48
1.0
  6
ByLayer
 10
20.0
 20
292.0
 30
0.0
 11
20.0
 21
5.0
 31
0.0
  0
LINE
  5
D1
100
AcDbEntity
100
AcDbLine
  8
Zeichnungsrahmen rot
 62
256
370
-1
 48
1.0
  6
ByLayer
 10
22.0
 20
7.0
 30
0.0
 11
22.0
 21
290.0
 31
0.0
  0
LINE
  5
D2
100
AcDbEntity
100
AcDbLine
  8
Zeichnungsrahmen rot
 62
256
370
-1
 48
1.0
  6
ByLayer
 10
22.0
 20
290.0
 30
0.0
 11
413.0
 21
290.0
 31
0.0
  0
LINE
  5
D3
100
AcDbEntity
100
AcDbLine
  8
Faltmarken
 62
256
370
-1
 48
1.0
  6
ByLayer
 10
230.0
 20
292.0
 30
0.0
 11
230.0
 21
297.0
 31
0.0
  0
LINE
  5
D4
100
AcDbEntity
100
AcDbLine
  8
Faltmarken
 62
256
370
-1
 48
1.0
  6
ByLayer
 10
230.0
 20
0.0
 30
0.0
 11
230.0
 21
5.0
 31
0.0
  0
LINE
  5
D5
100
AcDbEntity
100
AcDbLine
  8
Faltmarken
 62
256
370
-1
 48
1.0
  6
ByLayer
 10
125.0
 20
292.0
 30
0.0
 11
125.0
 21
297.0
 31
0.0
  0
LINE
  5
D6
100
AcDbEntity
100
AcDbLine
  8
Faltmarken
 62
256
370
-1
 48
1.0
  6
ByLayer
 10
125.0
 20
0.0
 30
0.0
 11
125.0
 21
5.0
 31
0.0
  0
LINE
  5
D7
100
AcDbEntity
100
AcDbLine
  8
Faltmarken
 62
256
370
-1
 48
1.0
  6
ByLayer
 10
0.0
 20
148.5
 30
0.0
 11
10.0
 21
148.5
 31
0.0
  0
LINE
  5
D8
100
AcDbEntity
100
AcDbLine
  8
Plankopf Rahmen
 62
256
370
-1
 48
1.0
  6
ByLayer
 10
234.7700000000000102
 20
10.0
 30
0.0
 11
234.7700000000000102
 21
59.5
 31
0.0
  0
LINE
  5
D9
100
AcDbEntity
100
AcDbLine
  8
Plankopf Rahmen
 62
256
370
-1
 48
1.0
  6
ByLayer
 10
410.0
 20
10.0
 30
0.0
 11
410.0
 21
59.5
 31
0.0
  0
LINE
  5
DA
100
AcDbEntity
100
AcDbLine
  8
Plankopf Rahmen
 62
256
370
-1
 48
1.0
  6
ByLayer
 10
234.7700000000000102
 20
62.4699999999999918
 30
0.0
 11
234.7700000000000102
 21
121.8699999999999903
 31
0.0
  0
LINE
  5
DB
100
AcDbEntity
100
AcDbLine
  8
Plankopf Rahmen
 62
256
370
-1
 48
1.0
  6
ByLayer
 10
410.0
 20
62.4699999999999918
 30
0.0
 11
410.0
 21
121.8699999999999903
 31
0.0
  0
LINE
  5
DC
100
AcDbEntity
100
AcDbLine
  8
Plankopf Rahmen
 62
256
370
-1
 48
1.0
  6
ByLayer
 10
234.7700000000000102
 20
124.8399999999999892
 30
0.0
 11
234.7700000000000102
 21
154.539999999999992
 31
0.0
  0
LINE
  5
DD
100
AcDbEntity
100
AcDbLine
  8
Plankopf Rahmen
 62
256
370
-1
 48
1.0
  6
ByLayer
 10
410.0
 20
124.8399999999999892
 30
0.0
 11
410.0
 21
154.539999999999992
 31
0.0
  0
LINE
  5
DE
100
AcDbEntity
100
AcDbLine
  8
Plankopf Rahmen
 62
256
370
-1
 48
1.0
  6
ByLayer
 10
410.0
 20
157.5099999999999909
 30
0.0
 11
410.0
 21
187.2099999999999795
 31
0.0
  0
LINE
  5
DF
100
AcDbEntity
100
AcDbLine
  8
Plankopf Rahmen
 62
256
370
-1
 48
1.0
  6
ByLayer
 10
234.7700000000000102
 20
157.5099999999999909
 30
0.0
 11
234.7700000000000102
 21
187.2099999999999795
 31
0.0
  0
LINE
  5
E0
100
AcDbEntity
100
AcDbLine
  8
Plankopf Rahmen
 62
256
370
-1
 48
1.0
  6
ByLayer
 10
410.0
 20
190.1800000000000068
 30
0.0
 11
410.0
 21
209.3859999999999957
 31
0.0
  0
LINE
  5
E1
100
AcDbEntity
100
AcDbLine
  8
Plankopf Rahmen
 62
256
370
-1
 48
1.0
  6
ByLayer
 10
234.7700000000000102
 20
190.1800000000000068
 30
0.0
 11
234.7700000000000102
 21
209.3859999999999957
 31
0.0
  0
LINE
  5
E2
100
AcDbEntity
100
AcDbLine
  8
Plankopf Rahmen
 62
256
370
-1
 48
1.0
  6
ByLayer
 10
410.0
 20
209.3859999999999957
 30
0.0
 11
410.0
 21
228.5919999999999845
 31
0.0
  0
LINE
  5
E3
100
AcDbEntity
100
AcDbLine
  8
Plankopf Rahmen
 62
256
370
-1
 48
1.0
  6
ByLayer
 10
234.7700000000000102
 20
209.3859999999999957
 30
0.0
 11
234.7700000000000102
 21
228.5919999999999845
 31
0.0
  0
LINE
  5
E4
100
AcDbEntity
100
AcDbLine
  8
Plankopf Rahmen
 62
256
370
-1
 48
1.0
  6
ByLayer
 10
410.0
 20
228.5919999999999845
 30
0.0
 11
410.0
 21
247.7980000000000018
 31
0.0
  0
LINE
  5
E5
100
AcDbEntity
100
AcDbLine
  8
Plankopf Rahmen
 62
256
370
-1
 48
1.0
  6
ByLayer
 10
234.7700000000000102
 20
228.5919999999999845
 30
0.0
 11
234.7700000000000102
 21
247.7980000000000018
 31
0.0
  0
LINE
  5
E6
100
AcDbEntity
100
AcDbLine
  8
Plankopf Rahmen
 62
256
370
-1
 48
1.0
  6
ByLayer
 10
410.0
 20
247.7980000000000018
 30
0.0
 11
410.0
 21
267.0040000000000191
 31
0.0
  0
LINE
  5
E7
100
AcDbEntity
100
AcDbLine
  8
Plankopf Rahmen
 62
256
370
-1
 48
1.0
  6
ByLayer
 10
234.7700000000000102
 20
247.7980000000000018
 30
0.0
 11
234.7700000000000102
 21
267.0040000000000191
 31
0.0
  0
LINE
  5
E8
100
AcDbEntity
100
AcDbLine
  8
Plankopf Rahmen
 62
256
370
-1
 48
1.0
  6
ByLayer
 10
410.0
 20
267.0040000000000191
 30
0.0
 11
410.0
 21
286.2099999999999795
 31
0.0
  0
LINE
  5
E9
100
AcDbEntity
100
AcDbLine
  8
Plankopf Rahmen
 62
256
370
-1
 48
1.0
  6
ByLayer
 10
234.7700000000000102
 20
267.0040000000000191
 30
0.0
 11
234.7700000000000102
 21
286.2099999999999795
 31
0.0
  0
LINE
  5
EA
100
AcDbEntity
100
AcDbLine
  8
Plankopf Rahmen
 62
256
370
-1
 48
1.0
  6
ByLayer
 10
234.7700000000000102
 20
59.5
 30
0.0
 11
410.0
 21
59.5
 31
0.0
  0
LINE
  5
EB
100
AcDbEntity
100
AcDbLine
  8
Plankopf Rahmen
 62
256
370
-1
 48
1.0
  6
ByLayer
 10
234.7700000000000102
 20
62.4699999999999918
 30
0.0
 11
410.0
 21
62.4699999999999918
 31
0.0
  0
LINE
  5
EC
100
AcDbEntity
100
AcDbLine
  8
Plankopf Rahmen
 62
256
370
-1
 48
1.0
  6
ByLayer
 10
234.7700000000000102
 20
121.8699999999999903
 30
0.0
 11
410.0
 21
121.8699999999999903
 31
0.0
  0
LINE
  5
ED
100
AcDbEntity
100
AcDbLine
  8
Plankopf Rahmen
 62
256
370
-1
 48
1.0
  6
ByLayer
 10
234.7700000000000102
 20
124.8399999999999892
 30
0.0
 11
410.0
 21
124.8399999999999892
 31
0.0
  0
LINE
  5
EE
100
AcDbEntity
100
AcDbLine
  8
Plankopf Rahmen
 62
256
370
-1
 48
1.0
  6
ByLayer
 10
234.7700000000000102
 20
154.539999999999992
 30
0.0
 11
410.0
 21
154.539999999999992
 31
0.0
  0
LINE
  5
EF
100
AcDbEntity
100
AcDbLine
  8
Plankopf Rahmen
 62
256
370
-1
 48
1.0
  6
ByLayer
 10
234.7700000000000102
 20
157.5099999999999909
 30
0.0
 11
410.0
 21
157.5099999999999909
 31
0.0
  0
LINE
  5
F0
100
AcDbEntity
100
AcDbLine
  8
Plankopf Rahmen
 62
256
370
-1
 48
1.0
  6
ByLayer
 10
234.7700000000000102
 20
187.2099999999999795
 30
0.0
 11
410.0
 21
187.2099999999999795
 31
0.0
  0
LINE
  5
F1
100
AcDbEntity
100
AcDbLine
  8
Plankopf Rahmen
 62
256
370
-1
 48
1.0
  6
ByLayer
 10
234.7700000000000102
 20
190.1800000000000068
 30
0.0
 11
410.0
 21
190.1800000000000068
 31
0.0
  0
LINE
  5
F2
100
AcDbEntity
100
AcDbLine
  8
Plankopf Rahmen
 62
256
370
-1
 48
1.0
  6
ByLayer
 10
234.7700000000000102
 20
286.2099999999999795
 30
0.0
 11
410.0
 21
286.2099999999999795
 31
0.0
  0
LINE
  5
F3
100
AcDbEntity
100
AcDbLine
  8
Plankopf Rahmen
 62
256
370
-1
 48
1.0
  6
ByLayer
 10
234.7700000000000102
 20
10.0
 30
0.0
 11
410.0
 21
10.0
 31
0.0
  0
MTEXT
  5
F4
100
AcDbEntity
100
AcDbMText
  8
Plankopf Text Vorgabe
 62
256
370
-1
 48
1.0
  6
ByLayer
 10
236.75
 20
284.2300000000000182
 30
0.0
 40
1.9799999999999998
 41
0.0
 71
4
 72
1
  1
geplant:
  7
textstyle0
 50
0.0
 73
2
 44
1.0
  0
MTEXT
  5
F5
100
AcDbEntity
100
AcDbMText
  8
Plankopf Text Vorgabe
 62
256
370
-1
 48
1.0
  6
ByLayer
 10
236.75
 20
284.2300000000000182
 30
0.0
 40
1.9799999999999998
 41
0.0
 71
4
 72
1
  1
geplant:
  7
textstyle1
 50
0.0
 73
2
 44
1.0
  0
MTEXT
  5
F6
100
AcDbEntity
100
AcDbMText
  8
Plankopf Text Vorgabe
 62
256
370
-1
 48
1.0
  6
ByLayer
 10
236.75
 20
207.406000000000148
 30
0.0
 40
1.9799999999999998
 41
0.0
 71
4
 72
1
  1

  7
textstyle2
 50
0.0
 73
2
 44
1.0
  0
MTEXT
  5
F7
100
AcDbEntity
100
AcDbMText
  8
Plankopf Text Vorgabe
 62
256
370
-1
 48
1.0
  6
ByLayer
 10
236.7500000000000284
 20
245.8179999999997847
 30
0.0
 40
1.9799999999999998
 41
0.0
 71
4
 72
1
  1
einverstanden:
  7
textstyle3
 50
0.0
 73
2
 44
1.0
  0
MTEXT
  5
F8
100
AcDbEntity
100
AcDbMText
  8
Plankopf Text Vorgabe
 62
256
370
-1
 48
1.0
  6
ByLayer
 10
236.7500000000000284
 20
265.0239999999999441
 30
0.0
 40
1.9799999999999998
 41
0.0
 71
4
 72
1
  1
vorgelegt von:
  7
textstyle4
 50
0.0
 73
2
 44
1.0
  0
MTEXT
  5
F9
100
AcDbEntity
100
AcDbMText
  8
Plankopf Text Vorgabe
 62
256
370
-1
 48
1.0
  6
ByLayer
 10
236.7500000000000284
 20
265.0239999999999441
 30
0.0
 40
1.9799999999999998
 41
0.0
 71
4
 72
1
  1

  7
textstyle5
 50
0.0
 73
2
 44
1.0
  0
MTEXT
  5
FA
100
AcDbEntity
100
AcDbMText
  8
Plankopf Text ausgef\U+00fcllt
 62
256
370
-1
 48
1.0
  6
ByLayer
 10
240.7099999999999511
 20
280.2700000000000955
 30
0.0
 40
3.4649999999999999
 41
0.0
 71
1
 72
1
  1
Planungsb\U+00fcro
  7
textstyle6
 50
0.0
 73
2
 44
1.0
  0
MTEXT
  5
FB
100
AcDbEntity
100
AcDbMText
  8
Plankopf Text ausgef\U+00fcllt
 62
256
370
-1
 48
1.0
  6
ByLayer
 10
240.7099999999999511
 20
280.2700000000000955
 30
0.0
 40
3.4649999999999999
 41
0.0
 71
1
 72
1
  1
Planungsb\U+00fcro
  7
textstyle7
 50
0.0
 73
2
 44
1.0
  0
MTEXT
  5
FC
100
AcDbEntity
100
AcDbMText
  8
Plankopf Text ausgef\U+00fcllt
 62
256
370
-1
 48
1.0
  6
ByLayer
 10
240.710000000000008
 20
261.0640000000000214
 30
0.0
 40
3.4649999999999999
 41
0.0
 71
1
 72
1
  1
Planungsb\U+00fcro
  7
textstyle8
 50
0.0
 73
2
 44
1.0
  0
MTEXT
  5
FD
100
AcDbEntity
100
AcDbMText
  8
Plankopf Text ausgef\U+00fcllt
 62
256
370
-1
 48
1.0
  6
ByLayer
 10
240.710000000000008
 20
261.0640000000000214
 30
0.0
 40
3.4649999999999999
 41
0.0
 71
1
 72
1
  1
Planungsb\U+00fcro
  7
textstyle9
 50
0.0
 73
2
 44
1.0
  0
MTEXT
  5
FE
100
AcDbEntity
100
AcDbMText
  8
Plankopf Text ausgef\U+00fcllt
 62
256
370
-1
 48
1.0
  6
ByLayer
 10
240.7100000000001216
 20
274.3300000000002683
 30
0.0
 40
3.4649999999999999
 41
0.0
 71
1
 72
1
  1
DL3DL
  7
textstyle10
 50
0.0
 73
2
 44
1.0
  0
MTEXT
  5
FF
100
AcDbEntity
100
AcDbMText
  8
Plankopf Text ausgef\U+00fcllt
 62
256
370
-1
 48
1.0
  6
ByLayer
 10
240.7100000000000932
 20
274.3300000000000409
 30
0.0
 40
3.4649999999999999
 41
0.0
 71
1
 72
1
  1
DL3DL
  7
textstyle11
 50
0.0
 73
2
 44
1.0
  0
MTEXT
  5
100
100
AcDbEntity
100
AcDbMText
  8
Plankopf Text ausgef\U+00fcllt
 62
256
370
-1
 48
1.0
  6
ByLayer
 10
240.7100000000001501
 20
255.1240000000001373
 30
0.0
 40
3.4649999999999999
 41
0.0
 71
1
 72
1
  1
DL3DL
  7
textstyle12
 50
0.0
 73
2
 44
1.0
  0
MTEXT
  5
101
100
AcDbEntity
100
AcDbMText
  8
Plankopf Text ausgef\U+00fcllt
 62
256
370
-1
 48
1.0
  6
ByLayer
 10
240.7100000000001501
 20
255.1240000000001373
 30
0.0
 40
3.4649999999999999
 41
0.0
 71
1
 72
1
  1
DL3DL
  7
textstyle13
 50
0.0
 73
2
 44
1.0
  0
MTEXT
  5
102
100
AcDbEntity
100
AcDbMText
  8
Plankopf Text Vorgabe
 62
256
370
-1
 48
1.0
  6
ByLayer
 10
236.7500000000000284
 20
226.6119999999999379
 30
0.0
 40
1.9799999999999998
 41
0.0
 71
4
 72
1
  1
gepr\U+00fcft:
  7
textstyle14
 50
0.0
 73
2
 44
1.0
  0
MTEXT
  5
103
100
AcDbEntity
100
AcDbMText
  8
Plankopf Text Vorgabe
 62
256
370
-1
 48
1.0
  6
ByLayer
 10
236.75
 20
207.4059999999996364
 30
0.0
 40
1.9799999999999998
 41
0.0
 71
4
 72
1
  1
genehmigt:
  7
textstyle15
 50
0.0
 73
2
 44
1.0
  0
MTEXT
  5
104
100
AcDbEntity
100
AcDbMText
  8
Plankopf Text Vorgabe
 62
256
370
-1
 48
1.0
  6
ByLayer
 10
243.6800000000000068
 20
151.5699999999997374
 30
0.0
 40
1.9799999999999998
 41
0.0
 71
4
 72
1
  1
Planung:
  7
textstyle16
 50
0.0
 73
2
 44
1.0
  0
LINE
  5
105
100
AcDbEntity
100
AcDbLine
  8
Plankopf Linien d\U+00fcnn
 62
256
370
-1
 48
1.0
  6
ByLayer
 10
234.7700000000000102
 20
267.0040000000000191
 30
0.0
 11
322.3849999999999909
 21
267.0040000000000191
 31
0.0
  0
LINE
  5
106
100
AcDbEntity
100
AcDbLine
  8
Plankopf Linien d\U+00fcnn
 62
256
370
-1
 48
1.0
  6
ByLayer
 10
234.7700000000000102
 20
247.797999999999945
 30
0.0
 11
322.3849999999999909
 21
247.797999999999945
 31
0.0
  0
LINE
  5
107
100
AcDbEntity
100
AcDbLine
  8
Plankopf Linien d\U+00fcnn
 62
256
370
-1
 48
1.0
  6
ByLayer
 10
234.7700000000000102
 20
228.5919999999999277
 30
0.0
 11
322.3849999999999909
 21
228.5919999999999277
 31
0.0
  0
LINE
  5
108
100
AcDbEntity
100
AcDbLine
  8
Plankopf Linien d\U+00fcnn
 62
256
370
-1
 48
1.0
  6
ByLayer
 10
234.7700000000000102
 20
209.3859999999999104
 30
0.0
 11
322.3849999999999909
 21
209.3859999999999104
 31
0.0
  0
LINE
  5
109
100
AcDbEntity
100
AcDbLine
  8
Plankopf Linien d\U+00fcnn
 62
256
370
-1
 48
1.0
  6
ByLayer
 10
322.3849999999999909
 20
247.797999999999945
 30
0.0
 11
322.3849999999999909
 21
267.5979999999999563
 31
0.0
  0
LINE
  5
10A
100
AcDbEntity
100
AcDbLine
  8
Plankopf Linien d\U+00fcnn
 62
256
370
-1
 48
1.0
  6
ByLayer
 10
322.3849999999999909
 20
228.5919999999999277
 30
0.0
 11
322.3849999999999909
 21
248.3919999999999106
 31
0.0
  0
LINE
  5
10B
100
AcDbEntity
100
AcDbLine
  8
Plankopf Linien d\U+00fcnn
 62
256
370
-1
 48
1.0
  6
ByLayer
 10
322.3849999999999909
 20
209.3859999999999104
 30
0.0
 11
322.3849999999999909
 21
229.1859999999998934
 31
0.0
  0
LINE
  5
10C
100
AcDbEntity
100
AcDbLine
  8
Plankopf Linien d\U+00fcnn
 62
256
370
-1
 48
1.0
  6
ByLayer
 10
322.3849999999999909
 20
267.0040000000000191
 30
0.0
 11
322.3849999999999909
 21
286.2099999999999795
 31
0.0
  0
LINE
  5
10D
100
AcDbEntity
100
AcDbLine
  8
Plankopf Linien d\U+00fcnn
 62
256
370
-1
 48
1.0
  6
ByLayer
 10
322.3849999999999909
 20
190.1800000000000068
 30
0.0
 11
322.3849999999999909
 21
209.9799999999999613
 31
0.0
  0
LINE
  5
10E
100
AcDbEntity
100
AcDbLine
  8
Plankopf Linien d\U+00fcnn
 62
256
370
-1
 48
1.0
  6
ByLayer
 10
322.3849999999999909
 20
209.3859999999999104
 30
0.0
 11
410.0
 21
209.3859999999999104
 31
0.0
  0
LINE
  5
10F
100
AcDbEntity
100
AcDbLine
  8
Plankopf Linien d\U+00fcnn
 62
256
370
-1
 48
1.0
  6
ByLayer
 10
322.3849999999999909
 20
228.5919999999998709
 30
0.0
 11
410.0
 21
228.5919999999998709
 31
0.0
  0
LINE
  5
110
100
AcDbEntity
100
AcDbLine
  8
Plankopf Linien d\U+00fcnn
 62
256
370
-1
 48
1.0
  6
ByLayer
 10
322.3849999999999909
 20
247.797999999999945
 30
0.0
 11
410.0
 21
247.797999999999945
 31
0.0
  0
LINE
  5
111
100
AcDbEntity
100
AcDbLine
  8
Plankopf Linien d\U+00fcnn
 62
256
370
-1
 48
1.0
  6
ByLayer
 10
322.3849999999999909
 20
267.0040000000000191
 30
0.0
 11
410.0
 21
267.0040000000000191
 31
0.0
  0
MTEXT
  5
112
100
AcDbEntity
100
AcDbMText
  8
Plankopf Text ausgef\U+00fcllt
 62
256
370
-1
 48
1.0
  6
ByLayer
 10
328.3250000000001592
 20
274.3299999999999841
 30
0.0
 40
1.9799999999999998
 41
0.0
 71
4
 72
1
  1
29.05.2016
  7
textstyle17
 50
0.0
 73
2
 44
1.0
  0
MTEXT
  5
113
100
AcDbEntity
100
AcDbMText
  8
Plankopf Text ausgef\U+00fcllt
 62
256
370
-1
 48
1.0
  6
ByLayer
 10
328.3250000000001592
 20
255.1239999999996542
 30
0.0
 40
1.9799999999999998
 41
0.0
 71
4
 72
1
  1
29.05.2016
  7
textstyle18
 50
0.0
 73
2
 44
1.0
  0
MTEXT
  5
114
100
AcDbEntity
100
AcDbMText
  8
Plankopf Text ausgef\U+00fcllt
 62
256
370
-1
 48
1.0
  6
ByLayer
 10
328.3250000000001023
 20
235.9179999999994948
 30
0.0
 40
1.9799999999999998
 41
0.0
 71
4
 72
1
  1
29.05.2016
  7
textstyle19
 50
0.0
 73
2
 44
1.0
  0
MTEXT
  5
115
100
AcDbEntity
100
AcDbMText
  8
Plankopf Text ausgef\U+00fcllt
 62
256
370
-1
 48
1.0
  6
ByLayer
 10
328.3250000000001023
 20
216.711999999999847
 30
0.0
 40
1.9799999999999998
 41
0.0
 71
4
 72
1
  1
29.05.2016
  7
textstyle20
 50
0.0
 73
2
 44
1.0
  0
MTEXT
  5
116
100
AcDbEntity
100
AcDbMText
  8
Plankopf Text ausgef\U+00fcllt
 62
256
370
-1
 48
1.0
  6
ByLayer
 10
328.3250000000001592
 20
197.5059999999996876
 30
0.0
 40
1.9799999999999998
 41
0.0
 71
4
 72
1
  1
29.05.2016
  7
textstyle21
 50
0.0
 73
2
 44
1.0
  0
MTEXT
  5
117
100
AcDbEntity
100
AcDbMText
  8
Plankopf Text ausgef\U+00fcllt
 62
256
370
-1
 48
1.0
  6
ByLayer
 10
240.710000000000008
 20
222.6519999999996458
 30
0.0
 40
3.4649999999999999
 41
0.0
 71
1
 72
1
  1
Auftraggeber
  7
textstyle22
 50
0.0
 73
2
 44
1.0
  0
MTEXT
  5
118
100
AcDbEntity
100
AcDbMText
  8
Plankopf Text ausgef\U+00fcllt
 62
256
370
-1
 48
1.0
  6
ByLayer
 10
240.7100000000001501
 20
197.5060000000000286
 30
0.0
 40
3.4649999999999999
 41
0.0
 71
1
 72
1
  1
Auftraggeber
  7
textstyle23
 50
0.0
 73
2
 44
1.0
  0
MTEXT
  5
119
100
AcDbEntity
100
AcDbMText
  8
Plankopf Text ausgef\U+00fcllt
 62
256
370
-1
 48
1.0
  6
ByLayer
 10
240.7100000000000932
 20
216.7119999999999038
 30
0.0
 40
3.4649999999999999
 41
0.0
 71
1
 72
1
  1
Auftraggeber
  7
textstyle24
 50
0.0
 73
2
 44
1.0
  0
MTEXT
  5
11A
100
AcDbEntity
100
AcDbMText
  8
Plankopf Text ausgef\U+00fcllt
 62
256
370
-1
 48
1.0
  6
ByLayer
 10
240.7100000000000364
 20
203.445999999999799
 30
0.0
 40
3.4649999999999999
 41
0.0
 71
1
 72
1
  1
Auftraggeber
  7
textstyle25
 50
0.0
 73
2
 44
1.0
  0
MTEXT
  5
11B
100
AcDbEntity
100
AcDbMText
  8
Plankopf Text ausgef\U+00fcllt
 62
256
370
-1
 48
1.0
  6
ByLayer
 10
240.7100000000000364
 20
241.857999999999663
 30
0.0
 40
3.4649999999999999
 41
0.0
 71
1
 72
1
  1
Auftragnehmer
  7
textstyle26
 50
0.0
 73
2
 44
1.0
  0
MTEXT
  5
11C
100
AcDbEntity
100
AcDbMText
  8
Plankopf Text ausgef\U+00fcllt
 62
256
370
-1
 48
1.0
  6
ByLayer
 10
240.7100000000000932
 20
235.9179999999998643
 30
0.0
 40
3.4649999999999999
 41
0.0
 71
1
 72
1
  1
Auftragnehmer
  7
textstyle27
 50
0.0
 73
2
 44
1.0
  0
IMAGE
  5
11D
  8
Logo Planungsb\U+00fcro
 62
256
370
-1
 48
1.0
  6
ByLayer
100
AcDbEntity
100
AcDbRasterImage
 90
0
 10
239.1521268220683396
 20
160.7756552016020066
 30
0.0
 11
0.1782
 21
0.0
 31
0.0
 12
0.0
 22
0.1782
 32
0.0
 13
22.0
 23
22.0
340
11E
 70
15
280
0
281
50
282
50
283
0
  0
MTEXT
  5
11F
100
AcDbEntity
100
AcDbMText
  8
Adresse Planungsb\U+00fcro
 62
256
370
-1
 48
1.0
  6
ByLayer
 10
274.3700000000000614
 20
177.3100000000000591
 30
0.0
 40
3.9599999999999995
 41
0.0
 71
4
 72
1
  1
\H5.71429;Black Torro Baumanagment
  7
textstyle28
 50
0.0
 73
2
 44
1.0
  0
MTEXT
  5
120
100
AcDbEntity
100
AcDbMText
  8
Adresse Planungsb\U+00fcro
 62
256
370
-1
 48
1.0
  6
ByLayer
 10
274.3700000000000045
 20
167.410000000000224
 30
0.0
 40
1.9799999999999998
 41
0.0
 71
4
 72
1
  1
\H2.85714;Muster Strasse 12
  7
textstyle29
 50
0.0
 73
2
 44
1.0
  0
MTEXT
  5
121
100
AcDbEntity
100
AcDbMText
  8
Adresse Planungsb\U+00fcro
 62
256
370
-1
 48
1.0
  6
ByLayer
 10
274.3987629475947188
 20
162.7923937919987054
 30
0.0
 40
2.9699999999999998
 41
0.0
 71
4
 72
1
  1
12345 MUSTERHAUSEN
  7
textstyle30
 50
0.0
 73
2
 44
1.0
  0
MTEXT
  5
122
100
AcDbEntity
100
AcDbMText
  8
Plankopf Text ausgef\U+00fcllt
 62
256
370
-1
 48
1.0
  6
ByLayer
 10
274.3700000000000045
 20
151.5699999999996521
 30
0.0
 40
2.9699999999999998
 41
0.0
 71
1
 72
1
  1
Bereich Entwicklung
  7
textstyle31
 50
0.0
 73
2
 44
1.0
  0
MTEXT
  5
123
100
AcDbEntity
100
AcDbMText
  8
Plankopf Text Vorgabe
 62
256
370
-1
 48
1.0
  6
ByLayer
 10
254.5699999999999932
 20
142.6599999999998261
 30
0.0
 40
1.4849999999999999
 41
0.0
 71
4
 72
1
  1
Anschrift:
  7
textstyle32
 50
0.0
 73
2
 44
1.0
  0
MTEXT
  5
124
100
AcDbEntity
100
AcDbMText
  8
Plankopf Text Vorgabe
 62
256
370
-1
 48
1.0
  6
ByLayer
 10
254.5699999999999932
 20
133.7499999999997158
 30
0.0
 40
1.4849999999999999
 41
0.0
 71
4
 72
1
  1
Fax:
  7
textstyle33
 50
0.0
 73
2
 44
1.0
  0
MTEXT
  5
125
100
AcDbEntity
100
AcDbMText
  8
Plankopf Text Vorgabe
 62
256
370
-1
 48
1.0
  6
ByLayer
 10
254.57000000000005
 20
130.7800000000001432
 30
0.0
 40
1.4849999999999999
 41
0.0
 71
4
 72
1
  1
Mail:
  7
textstyle34
 50
0.0
 73
2
 44
1.0
  0
MTEXT
  5
126
100
AcDbEntity
100
AcDbMText
  8
Plankopf Text Vorgabe
 62
256
370
-1
 48
1.0
  6
ByLayer
 10
254.57000000000005
 20
127.8099999999999028
 30
0.0
 40
1.3859999999999999
 41
0.0
 71
4
 72
1
  1
Web:
  7
textstyle35
 50
0.0
 73
2
 44
1.0
  0
MTEXT
  5
127
100
AcDbEntity
100
AcDbMText
  8
Plankopf Text Vorgabe
 62
256
370
-1
 48
1.0
  6
ByLayer
 10
254.5699999999999932
 20
136.7200000000003115
 30
0.0
 40
1.4849999999999999
 41
0.0
 71
4
 72
1
  1
Tel.:
  7
textstyle36
 50
0.0
 73
2
 44
1.0
  0
MTEXT
  5
128
100
AcDbEntity
100
AcDbMText
  8
Plankopf Text ausgef\U+00fcllt
 62
256
370
-1
 48
1.0
  6
ByLayer
 10
274.3700000000000045
 20
145.6299999999997681
 30
0.0
 40
1.4849999999999999
 41
0.0
 71
1
 72
1
  1
Standort Musterhausen
  7
textstyle37
 50
0.0
 73
2
 44
1.0
  0
MTEXT
  5
129
100
AcDbEntity
100
AcDbMText
  8
Plankopf Text ausgef\U+00fcllt
 62
256
370
-1
 48
1.0
  6
ByLayer
 10
274.3700000000000045
 20
142.6600000000000534
 30
0.0
 40
1.4849999999999999
 41
0.0
 71
4
 72
1
  1
12345 Musterhausen, Musterstrasse 12
  7
textstyle38
 50
0.0
 73
2
 44
1.0
  0
MTEXT
  5
12A
100
AcDbEntity
100
AcDbMText
  8
Plankopf Text ausgef\U+00fcllt
 62
256
370
-1
 48
1.0
  6
ByLayer
 10
274.3700000000000045
 20
136.720000000000141
 30
0.0
 40
1.4849999999999999
 41
0.0
 71
4
 72
1
  1
12345/6789-0
  7
textstyle39
 50
0.0
 73
2
 44
1.0
  0
MTEXT
  5
12B
100
AcDbEntity
100
AcDbMText
  8
Plankopf Text ausgef\U+00fcllt
 62
256
370
-1
 48
1.0
  6
ByLayer
 10
274.3700000000000045
 20
133.7499999999998579
 30
0.0
 40
1.4849999999999999
 41
0.0
 71
4
 72
1
  1
12345/6789-12
  7
textstyle40
 50
0.0
 73
2
 44
1.0
  0
MTEXT
  5
12C
100
AcDbEntity
100
AcDbMText
  8
Plankopf Text ausgef\U+00fcllt
 62
256
370
-1
 48
1.0
  6
ByLayer
 10
274.3700000000000045
 20
127.8099999999998886
 30
0.0
 40
1.4849999999999999
 41
0.0
 71
4
 72
1
  1
mustermail-info@abc.de
  7
textstyle41
 50
0.0
 73
2
 44
1.0
  0
MTEXT
  5
12D
100
AcDbEntity
100
AcDbMText
  8
Plankopf Text ausgef\U+00fcllt
 62
256
370
-1
 48
1.0
  6
ByLayer
 10
274.3700000000000045
 20
130.7799999999997453
 30
0.0
 40
1.4849999999999999
 41
0.0
 71
4
 72
1
  1
www.abc.de
  7
textstyle42
 50
0.0
 73
2
 44
1.0
  0
MTEXT
  5
12E
100
AcDbEntity
100
AcDbMText
  8
Plankopf Text ausgef\U+00fcllt
 62
256
370
-1
 48
1.0
  6
ByLayer
 10
239.7200000000000557
 20
109.9900000000001796
 30
0.0
 40
4.9499999999999993
 41
0.0
 71
4
 72
1
  1
Projektname
  7
textstyle43
 50
0.0
 73
2
 44
1.0
  0
MTEXT
  5
12F
100
AcDbEntity
100
AcDbMText
  8
Plankopf Text ausgef\U+00fcllt
 62
256
370
-1
 48
1.0
  6
ByLayer
 10
248.3418099712947082
 20
102.0990016168448307
 30
0.0
 40
3.9599999999999995
 41
0.0
 71
4
 72
1
  1
Geb\U+00e4ude
  7
textstyle44
 50
0.0
 73
2
 44
1.0
  0
MTEXT
  5
130
100
AcDbEntity
100
AcDbMText
  8
Plankopf Text ausgef\U+00fcllt
 62
256
370
-1
 48
1.0
  6
ByLayer
 10
248.6300000000000239
 20
96.1300000000003934
 30
0.0
 40
3.9599999999999995
 41
0.0
 71
4
 72
1
  1
Baumassnahme
  7
textstyle45
 50
0.0
 73
2
 44
1.0
  0
MTEXT
  5
131
100
AcDbEntity
100
AcDbMText
  8
Plankopf Text ausgef\U+00fcllt
 62
256
370
-1
 48
1.0
  6
ByLayer
 10
248.6300000000000239
 20
86.2299999999996061
 30
0.0
 40
3.9599999999999995
 41
0.0
 71
4
 72
1
  1
Architektur
  7
textstyle46
 50
0.0
 73
2
 44
1.0
  0
MTEXT
  5
132
100
AcDbEntity
100
AcDbMText
  8
Plankopf Text ausgef\U+00fcllt
 62
256
370
-1
 48
1.0
  6
ByLayer
 10
248.6300000000000239
 20
78.3100000000000875
 30
0.0
 40
4.9499999999999993
 41
0.0
 71
4
 72
1
  1
1.Obergeschoss  /  Grundriss
  7
textstyle47
 50
0.0
 73
2
 44
1.0
  0
MTEXT
  5
133
100
AcDbEntity
100
AcDbMText
  8
Plankopf Text ausgef\U+00fcllt
 62
256
370
-1
 48
1.0
  6
ByLayer
 10
237.7988175528200259
 20
51.2065557257358464
 30
0.0
 40
3.9599999999999995
 41
0.0
 71
4
 72
1
  1
NAME
  7
textstyle48
 50
0.0
 73
2
 44
1.0
  0
MTEXT
  5
134
100
AcDbEntity
100
AcDbMText
  8
Plankopf Text Vorgabe
 62
256
370
-1
 48
1.0
  6
ByLayer
 10
237.7400000000000375
 20
41.6799999999997794
 30
0.0
 40
2.4749999999999996
 41
0.0
 71
4
 72
1
  1
Datum:
  7
textstyle49
 50
0.0
 73
2
 44
1.0
  0
MTEXT
  5
135
100
AcDbEntity
100
AcDbMText
  8
Plankopf Text Vorgabe
 62
256
370
-1
 48
1.0
  6
ByLayer
 10
237.7400000000000375
 20
33.760000000000467
 30
0.0
 40
2.4749999999999996
 41
0.0
 71
4
 72
1
  1
Plan-Nr::
  7
textstyle50
 50
0.0
 73
2
 44
1.0
  0
MTEXT
  5
136
100
AcDbEntity
100
AcDbMText
  8
Plankopf Text Vorgabe
 62
256
370
-1
 48
1.0
  6
ByLayer
 10
237.7400000000000375
 20
25.8399999999997192
 30
0.0
 40
2.4749999999999996
 41
0.0
 71
4
 72
1
  1
Plan-Index:
  7
textstyle51
 50
0.0
 73
2
 44
1.0
  0
MTEXT
  5
137
100
AcDbEntity
100
AcDbMText
  8
Plankopf Text Vorgabe
 62
256
370
-1
 48
1.0
  6
ByLayer
 10
237.7400000000000375
 20
17.9200000000005701
 30
0.0
 40
2.4749999999999996
 41
0.0
 71
4
 72
1
  1
Datei:
  7
textstyle52
 50
0.0
 73
2
 44
1.0
  0
MTEXT
  5
138
100
AcDbEntity
100
AcDbMText
  8
Plankopf Text Vorgabe
 62
256
370
-1
 48
1.0
  6
ByLayer
 10
292.1900000000000546
 20
33.759999999999124
 30
0.0
 40
2.4749999999999996
 41
0.0
 71
4
 72
1
  1
Massstab:
  7
textstyle53
 50
0.0
 73
2
 44
1.0
  0
MTEXT
  5
139
100
AcDbEntity
100
AcDbMText
  8
Plankopf Text Vorgabe
 62
256
370
-1
 48
1.0
  6
ByLayer
 10
292.1900000000000546
 20
25.8399999999996695
 30
0.0
 40
2.4749999999999996
 41
0.0
 71
4
 72
1
  1
Blattformat:
  7
textstyle54
 50
0.0
 73
2
 44
1.0
  0
MTEXT
  5
13A
100
AcDbEntity
100
AcDbMText
  8
Plankopf Text Vorgabe
 62
256
370
-1
 48
1.0
  6
ByLayer
 10
346.6399999999999864
 20
41.6799999999989836
 30
0.0
 40
2.4749999999999996
 41
0.0
 71
4
 72
1
  1
gez.:
  7
textstyle55
 50
0.0
 73
2
 44
1.0
  0
MTEXT
  5
13B
100
AcDbEntity
100
AcDbMText
  8
Plankopf Text Vorgabe
 62
256
370
-1
 48
1.0
  6
ByLayer
 10
346.6399999999999864
 20
25.8399999999995948
 30
0.0
 40
2.4749999999999996
 41
0.0
 71
4
 72
1
  1
gepr.:
  7
textstyle56
 50
0.0
 73
2
 44
1.0
  0
MTEXT
  5
13C
100
AcDbEntity
100
AcDbMText
  8
Plankopf Text ausgef\U+00fcllt
 62
256
370
-1
 48
1.0
  6
ByLayer
 10
258.2724737629960146
 20
41.5734672857835221
 30
0.0
 40
2.9699999999999998
 41
0.0
 71
4
 72
1
  1
29.05.2016
  7
textstyle57
 50
0.0
 73
2
 44
1.0
  0
MTEXT
  5
13D
100
AcDbEntity
100
AcDbMText
  8
Plankopf Text ausgef\U+00fcllt
 62
256
370
-1
 48
1.0
  6
ByLayer
 10
258.2724737629960146
 20
33.7600000000004457
 30
0.0
 40
2.9699999999999998
 41
0.0
 71
4
 72
1
  1
123456789
  7
textstyle58
 50
0.0
 73
2
 44
1.0
  0
MTEXT
  5
13E
100
AcDbEntity
100
AcDbMText
  8
Plankopf Text ausgef\U+00fcllt
 62
256
370
-1
 48
1.0
  6
ByLayer
 10
258.5299999999999727
 20
17.9199999999997601
 30
0.0
 40
2.9699999999999998
 41
0.0
 71
4
 72
1
  1
abc.dxf
  7
textstyle59
 50
0.0
 73
2
 44
1.0
  0
MTEXT
  5
13F
100
AcDbEntity
100
AcDbMText
  8
Plankopf Text ausgef\U+00fcllt
 62
256
370
-1
 48
1.0
  6
ByLayer
 10
258.2724737629960146
 20
25.8400000000003018
 30
0.0
 40
2.9699999999999998
 41
0.0
 71
4
 72
1
  1
A-BCDE-FGHI-J
  7
textstyle60
 50
0.0
 73
2
 44
1.0
  0
MTEXT
  5
140
100
AcDbEntity
100
AcDbMText
  8
Plankopf Text ausgef\U+00fcllt
 62
256
370
-1
 48
1.0
  6
ByLayer
 10
313.9700000000000273
 20
33.7600000000011207
 30
0.0
 40
2.9699999999999998
 41
0.0
 71
4
 72
1
  1
M 1:1
  7
textstyle61
 50
0.0
 73
2
 44
1.0
  0
MTEXT
  5
141
100
AcDbEntity
100
AcDbMText
  8
Plankopf Text ausgef\U+00fcllt
 62
256
370
-1
 48
1.0
  6
ByLayer
 10
313.9700000000000273
 20
25.8400000000003658
 30
0.0
 40
2.9700000000000002
 41
0.0
 71
4
 72
1
  1
DIN A3
  7
textstyle62
 50
0.0
 73
2
 44
1.0
  0
MTEXT
  5
142
100
AcDbEntity
100
AcDbMText
  8
Plankopf Text ausgef\U+00fcllt
 62
256
370
-1
 48
1.0
  6
ByLayer
 10
362.4799999999999613
 20
25.8400000000003303
 30
0.0
 40
2.9699999999999998
 41
0.0
 71
4
 72
1
  1
DL3DL
  7
textstyle63
 50
0.0
 73
2
 44
1.0
  0
MTEXT
  5
143
100
AcDbEntity
100
AcDbMText
  8
Plankopf Text ausgef\U+00fcllt
 62
256
370
-1
 48
1.0
  6
ByLayer
 10
362.534047169063399
 20
41.6287324649570394
 30
0.0
 40
2.9699999999999998
 41
0.0
 71
4
 72
1
  1
DL3DL
  7
textstyle64
 50
0.0
 73
2
 44
1.0
  0
MTEXT
  5
144
100
AcDbEntity
100
AcDbMText
  8
Plankopf Text ausgef\U+00fcllt
 62
256
370
-1
 48
1.0
  6
ByLayer
 10
362.4431358285966667
 20
21.5389953640869791
 30
0.0
 40
2.9699999999999998
 41
0.0
 71
4
 72
1
  1
01234/56789-12
  7
textstyle65
 50
0.0
 73
2
 44
1.0
  0
MTEXT
  5
145
100
AcDbEntity
100
AcDbMText
  8
Plankopf Text ausgef\U+00fcllt
 62
256
370
-1
 48
1.0
  6
ByLayer
 10
362.4971829976600475
 20
37.3277278290431767
 30
0.0
 40
2.9699999999999998
 41
0.0
 71
4
 72
1
  1
01234/56789-12
  7
textstyle66
 50
0.0
 73
2
 44
1.0
  0
MTEXT
  5
146
100
AcDbEntity
100
AcDbMText
  8
Plankopf Text ausgef\U+00fcllt
 62
256
370
-1
 48
1.0
  6
ByLayer
 10
362.4019654927189436
 20
18.8607940901162152
 30
0.0
 40
2.9699999999999998
 41
0.0
 71
4
 72
1
  1

  7
textstyle67
 50
0.0
 73
2
 44
1.0
  0
ENDSEC
  0
SECTION
  2
OBJECTS
  0
DICTIONARY
  5
C
100
AcDbDictionary
280
0
281
1
  3
ACAD_GROUP
350
D
  3
ACAD_LAYOUT
350
1A
  3
ACAD_MLINESTYLE
350
17
  3
ACAD_PLOTSETTINGS
350
19
  3
ACAD_PLOTSTYLENAME
350
E
  3
AcDbVariableDictionary
350
147
  3
QCAD_OBJECTS
350
148
  0
DICTIONARY
  5
D
100
AcDbDictionary
280
0
281
1
  0
ACDBDICTIONARYWDFLT
  5
E
100
AcDbDictionary
281
1
  3
Normal
350
F
100
AcDbDictionaryWithDefault
340
F
  0
ACDBPLACEHOLDER
  5
F
  0
DICTIONARY
  5
17
100
AcDbDictionary
280
0
281
1
  3
Standard
350
18
  0
MLINESTYLE
  5
18
100
AcDbMlineStyle
  2
STANDARD
 70
0
  3

 62
256
 51
90.0
 52
90.0
 71
2
 49
0.5
 62
256
  6
BYLAYER
 49
-0.5
 62
256
  6
BYLAYER
  0
DICTIONARY
  5
19
100
AcDbDictionary
280
0
281
1
  0
DICTIONARY
  5
1A
100
AcDbDictionary
281
1
  3
Layout1
350
1E
  3
Layout2
350
26
  3
Model
350
22
  0
LAYOUT
  5
1E
100
AcDbPlotSettings
  1

  2
none_device
  4

  6

 40
0.0
 41
0.0
 42
0.0
 43
0.0
 44
0.0
 45
0.0
 46
0.0
 47
0.0
 48
0.0
 49
0.0
140
0.0
141
0.0
142
1.0
143
1.0
 70
688
 72
0
 73
0
 74
5
  7

 75
16
147
1.0
148
0.0
149
0.0
100
AcDbLayout
  1
Layout1
 70
1
 71
1
 10
0.0
 20
0.0
 11
420.0
 21
297.0
 12
0.0
 22
0.0
 32
0.0
 14
100000000000000000000.0
 24
100000000000000000000.0
 34
100000000000000000000.0
 15
-100000000000000000000.0
 25
-100000000000000000000.0
 35
-100000000000000000000.0
146
0.0
 13
0.0
 23
0.0
 33
0.0
 16
1.0
 26
0.0
 36
0.0
 17
0.0
 27
1.0
 37
0.0
 76
0
330
1B
  0
LAYOUT
  5
22
100
AcDbPlotSettings
  1

  2
none_device
  4

  6

 40
0.0
 41
0.0
 42
0.0
 43
0.0
 44
0.0
 45
0.0
 46
0.0
 47
0.0
 48
0.0
 49
0.0
140
0.0
141
0.0
142
1.0
143
1.0
 70
1712
 72
0
 73
0
 74
0
  7

 75
0
147
1.0
148
0.0
149
0.0
100
AcDbLayout
  1
Model
 70
1
 71
0
 10
0.0
 20
0.0
 11
12.0
 21
9.0
 12
0.0
 22
0.0
 32
0.0
 14
0.0
 24
0.0
 34
0.0
 15
0.0
 25
0.0
 35
0.0
146
0.0
 13
0.0
 23
0.0
 33
0.0
 16
1.0
 26
0.0
 36
0.0
 17
0.0
 27
1.0
 37
0.0
 76
0
330
1F
  0
LAYOUT
  5
26
100
AcDbPlotSettings
  1

  2
none_device
  4

  6

 40
0.0
 41
0.0
 42
0.0
 43
0.0
 44
0.0
 45
0.0
 46
0.0
 47
0.0
 48
0.0
 49
0.0
140
0.0
141
0.0
142
1.0
143
1.0
 70
688
 72
0
 73
0
 74
5
  7

 75
16
147
1.0
148
0.0
149
0.0
100
AcDbLayout
  1
Layout2
 70
1
 71
2
 10
0.0
 20
0.0
 11
12.0
 21
9.0
 12
0.0
 22
0.0
 32
0.0
 14
0.0
 24
0.0
 34
0.0
 15
0.0
 25
0.0
 35
0.0
146
0.0
 13
0.0
 23
0.0
 33
0.0
 16
1.0
 26
0.0
 36
0.0
 17
0.0
 27
1.0
 37
0.0
 76
0
330
23
  0
DICTIONARY
  5
147
100
AcDbDictionary
281
1
  3
DIMASSOC
350
14A
  3
HIDETEXT
350
149
  0
DICTIONARYVAR
  5
149
100
DictionaryVariables
280
0
  1
2
  0
DICTIONARYVAR
  5
14A
100
DictionaryVariables
280
0
  1
1
  0
DICTIONARY
  5
148
100
AcDbDictionary
281
1
  3
ColorSettings/BackgroundColor
350
14B
  3
ColorSettings/ColorMode
350
14C
  3
Grid/DisplayGrid00
350
14D
  3
Grid/DisplayGrid01
350
14E
  3
Grid/DisplayGrid02
350
14F
  3
Grid/DisplayGrid03
350
150
  3
Grid/GridSpacingX00
350
151
  3
Grid/GridSpacingX01
350
152
  3
Grid/GridSpacingX02
350
153
  3
Grid/GridSpacingX03
350
154
  3
Grid/GridSpacingY00
350
155
  3
Grid/GridSpacingY01
350
156
  3
Grid/GridSpacingY02
350
157
  3
Grid/GridSpacingY03
350
158
  3
Grid/IsometricGrid00
350
159
  3
Grid/IsometricGrid01
350
15A
  3
Grid/IsometricGrid02
350
15B
  3
Grid/IsometricGrid03
350
15C
  3
Grid/IsometricProjection00
350
15D
  3
Grid/IsometricProjection01
350
15E
  3
Grid/IsometricProjection02
350
15F
  3
Grid/IsometricProjection03
350
160
  3
Grid/MetaGridSpacingX00
350
161
  3
Grid/MetaGridSpacingX01
350
162
  3
Grid/MetaGridSpacingX02
350
163
  3
Grid/MetaGridSpacingX03
350
164
  3
Grid/MetaGridSpacingY00
350
165
  3
Grid/MetaGridSpacingY01
350
166
  3
Grid/MetaGridSpacingY02
350
167
  3
Grid/MetaGridSpacingY03
350
168
  3
MultiPageSettings/Columns
350
169
  3
MultiPageSettings/GlueMarginsBottom
350
16A
  3
MultiPageSettings/GlueMarginsLeft
350
16B
  3
MultiPageSettings/GlueMarginsRight
350
16C
  3
MultiPageSettings/GlueMarginsTop
350
16D
  3
MultiPageSettings/PrintCropMarks
350
16E
  3
MultiPageSettings/Rows
350
16F
  3
PageSettings/OffsetX
350
170
  3
PageSettings/OffsetY
350
171
  3
PageSettings/PageOrientation
350
172
  3
PageSettings/PaperHeight
350
173
  3
PageSettings/PaperSizeName
350
174
  3
PageSettings/PaperWidth
350
175
  3
PageSettings/Scale
350
176
  3
PageSettings/ShowPaperBorders
350
177
  3
QCADVersion
350
178
  3
UnitSettings/PaperUnit
350
179
  3
ViewportCenter
350
17A
  3
ViewportHeight
350
17B
  3
ViewportWidth
350
17C
  0
XRECORD
  5
14B
330
148
100
AcDbXrecord
280
1
1000
Weiss
  0
XRECORD
  5
14C
330
148
100
AcDbXrecord
280
1
1000
FullColor
  0
XRECORD
  5
14D
330
148
100
AcDbXrecord
280
1
290
1
  0
XRECORD
  5
14E
330
148
100
AcDbXrecord
280
1
290
1
  0
XRECORD
  5
14F
330
148
100
AcDbXrecord
280
1
290
1
  0
XRECORD
  5
150
330
148
100
AcDbXrecord
280
1
290
1
  0
XRECORD
  5
151
330
148
100
AcDbXrecord
280
1
1000
auto
  0
XRECORD
  5
152
330
148
100
AcDbXrecord
280
1
1000
auto
  0
XRECORD
  5
153
330
148
100
AcDbXrecord
280
1
1000
auto
  0
XRECORD
  5
154
330
148
100
AcDbXrecord
280
1
1000
auto
  0
XRECORD
  5
155
330
148
100
AcDbXrecord
280
1
1000
auto
  0
XRECORD
  5
156
330
148
100
AcDbXrecord
280
1
1000
auto
  0
XRECORD
  5
157
330
148
100
AcDbXrecord
280
1
1000
auto
  0
XRECORD
  5
158
330
148
100
AcDbXrecord
280
1
1000
auto
  0
XRECORD
  5
159
330
148
100
AcDbXrecord
280
1
290
0
  0
XRECORD
  5
15A
330
148
100
AcDbXrecord
280
1
290
0
  0
XRECORD
  5
15B
330
148
100
AcDbXrecord
280
1
290
0
  0
XRECORD
  5
15C
330
148
100
AcDbXrecord
280
1
290
0
  0
XRECORD
  5
15D
330
148
100
AcDbXrecord
280
1
 90
0
  0
XRECORD
  5
15E
330
148
100
AcDbXrecord
280
1
 90
0
  0
XRECORD
  5
15F
330
148
100
AcDbXrecord
280
1
 90
0
  0
XRECORD
  5
160
330
148
100
AcDbXrecord
280
1
 90
0
  0
XRECORD
  5
161
330
148
100
AcDbXrecord
280
1
1000
auto
  0
XRECORD
  5
162
330
148
100
AcDbXrecord
280
1
1000
auto
  0
XRECORD
  5
163
330
148
100
AcDbXrecord
280
1
1000
auto
  0
XRECORD
  5
164
330
148
100
AcDbXrecord
280
1
1000
auto
  0
XRECORD
  5
165
330
148
100
AcDbXrecord
280
1
1000
auto
  0
XRECORD
  5
166
330
148
100
AcDbXrecord
280
1
1000
auto
  0
XRECORD
  5
167
330
148
100
AcDbXrecord
280
1
1000
auto
  0
XRECORD
  5
168
330
148
100
AcDbXrecord
280
1
1000
auto
  0
XRECORD
  5
169
330
148
100
AcDbXrecord
280
1
 90
1
  0
XRECORD
  5
16A
330
148
100
AcDbXrecord
280
1
 40
10.0
  0
XRECORD
  5
16B
330
148
100
AcDbXrecord
280
1
 40
10.0
  0
XRECORD
  5
16C
330
148
100
AcDbXrecord
280
1
 40
10.0
  0
XRECORD
  5
16D
330
148
100
AcDbXrecord
280
1
 40
10.0
  0
XRECORD
  5
16E
330
148
100
AcDbXrecord
280
1
290
0
  0
XRECORD
  5
16F
330
148
100
AcDbXrecord
280
1
 90
1
  0
XRECORD
  5
170
330
148
100
AcDbXrecord
280
1
 40
0.0
  0
XRECORD
  5
171
330
148
100
AcDbXrecord
280
1
 40
0.0
  0
XRECORD
  5
172
330
148
100
AcDbXrecord
280
1
1000
Landscape
  0
XRECORD
  5
173
330
148
100
AcDbXrecord
280
1
1000
420
  0
XRECORD
  5
174
330
148
100
AcDbXrecord
280
1
1000
ISO A3
  0
XRECORD
  5
175
330
148
100
AcDbXrecord
280
1
1000
297
  0
XRECORD
  5
176
330
148
100
AcDbXrecord
280
1
1000
1:1
  0
XRECORD
  5
177
330
148
100
AcDbXrecord
280
1
290
1
  0
XRECORD
  5
178
330
148
100
AcDbXrecord
280
1
1000
3.15.0
  0
XRECORD
  5
179
330
148
100
AcDbXrecord
280
1
 90
4
  0
XRECORD
  5
17B
330
148
100
AcDbXrecord
280
1
 40
381.6440559440559355
  0
XRECORD
  5
17C
330
148
100
AcDbXrecord
280
1
 40
731.3597202797202499
  0
IMAGEDEF
  5
11E
100
AcDbRasterImageDef
 90
0
  1
/home/andrea/Downloads/images.jpeg
 10
22.0
 20
22.0
 11
1.0
 21
1.0
280
1
281
0
  0
ENDSEC
  0
EOF
