999
dxflib 3.12.2.0
  0
SECTION
  2
HEADER
  9
$ACADVER
  1
AC1015
  9
$HANDSEED
  5
FFFF
  9
$ANGBASE
 50
0.0
  9
$ANGDIR
 70
0
  9
$ATTMODE
 70
1
  9
$AUNITS
 70
0
  9
$AUPREC
 70
0
  9
$CECOLOR
 62
256
  9
$CELTSCALE
 40
1.0
  9
$CHAMFERA
 40
0.0
  9
$CHAMFERB
 40
0.0
  9
$CHAMFERC
 40
0.0
  9
$CHAMFERD
 40
0.0
  9
$CMLJUST
 70
0
  9
$CMLSCALE
 40
20.0
  9
$DIMADEC
 70
0
  9
$DIMALT
 70
0
  9
$DIMALTD
 70
3
  9
$DIMALTF
 40
0.03937007874
  9
$DIMALTRND
 40
0.0
  9
$DIMALTTD
 70
3
  9
$DIMALTTZ
 70
0
  9
$DIMALTU
 70
2
  9
$DIMALTZ
 70
0
  9
$DIMAPOST
  1

  9
$DIMASZ
 40
2.5
  9
$DIMATFIT
 70
3
  9
$DIMAUNIT
 70
0
  9
$DIMAZIN
 70
0
  9
$DIMBLK
  1

  9
$DIMBLK1
  1

  9
$DIMBLK2
  1

  9
$DIMCEN
 40
2.5
  9
$DIMCLRD
 70
0
  9
$DIMCLRE
 70
0
  9
$DIMCLRT
 70
0
  9
$DIMDEC
 70
2
  9
$DIMDLE
 40
0.0
  9
$DIMDLI
 40
3.75
  9
$DIMDSEP
 70
44
  9
$DIMEXE
 40
1.25
  9
$DIMEXO
 40
0.625
  9
$DIMFRAC
 70
0
  9
$DIMGAP
 40
0.625
  9
$DIMJUST
 70
0
  9
$DIMLDRBLK
  1

  9
$DIMLFAC
 40
1.0
  9
$DIMLIM
 70
0
  9
$DIMLUNIT
 70
2
  9
$DIMLWD
 70
-2
  9
$DIMLWE
 70
-2
  9
$DIMPOST
  1

  9
$DIMRND
 40
0.0
  9
$DIMSAH
 70
0
  9
$DIMSCALE
 40
1.0
  9
$DIMSD1
 70
0
  9
$DIMSD2
 70
0
  9
$DIMSE1
 70
0
  9
$DIMSE2
 70
0
  9
$DIMSOXD
 70
0
  9
$DIMTAD
 70
1
  9
$DIMTDEC
 70
2
  9
$DIMTFAC
 40
1.0
  9
$DIMTIH
 70
0
  9
$DIMTIX
 70
0
  9
$DIMTM
 40
0.0
  9
$DIMTOFL
 70
1
  9
$DIMTOH
 70
0
  9
$DIMTOL
 70
0
  9
$DIMTOLJ
 70
0
  9
$DIMTP
 40
0.0
  9
$DIMTSZ
 40
0.0
  9
$DIMTVP
 40
0.0
  9
$DIMTXSTY
  7
Standard
  9
$DIMTXT
 40
2.5
  9
$DIMTZIN
 70
8
  9
$DIMUPT
 70
0
  9
$DIMZIN
 70
8
  9
$DISPSILH
 70
0
  9
$DWGCODEPAGE
  3
ANSI_1252
  9
$ELEVATION
 40
0.0
  9
$EXTMAX
 10
841.0
 20
297.0
 30
0.0
  9
$EXTMIN
 10
421.0
 20
0.0
 30
0.0
  9
$FILLETRAD
 40
0.0
  9
$FILLMODE
 70
1
  9
$INSBASE
 10
0.0
 20
0.0
 30
0.0
  9
$INSUNITS
 70
4
  9
$LIMCHECK
 70
0
  9
$LIMMAX
 10
420.0
 20
297.0
  9
$LIMMIN
 10
0.0
 20
0.0
  9
$LTSCALE
 40
1.0
  9
$LUNITS
 70
2
  9
$LUPREC
 70
4
  9
$MAXACTVP
 70
64
  9
$MEASUREMENT
 70
1
  9
$MIRRTEXT
 70
0
  9
$ORTHOMODE
 70
1
  9
$PDMODE
 70
0
  9
$PDSIZE
 40
0
  9
$PELEVATION
 40
0.0
  9
$PEXTMAX
 10
0.0
 20
0.0
 30
0.0
  9
$PEXTMIN
 10
0.0
 20
0.0
 30
0.0
  9
$PINSBASE
 10
0.0
 20
0.0
 30
0.0
  9
$PLIMCHECK
 70
0
  9
$PLIMMAX
 10
12.0
 20
9.0
  9
$PLIMMIN
 10
0.0
 20
0.0
  9
$PLINEGEN
 70
0
  9
$PLINEWID
 40
0.0
  9
$PROXYGRAPHICS
 70
1
  9
$PSLTSCALE
 70
1
  9
$PUCSNAME
  2

  9
$PUCSORG
 10
0.0
 20
0.0
 30
0.0
  9
$PUCSXDIR
 10
1.0
 20
0.0
 30
0.0
  9
$PUCSYDIR
 10
0.0
 20
1.0
 30
0.0
  9
$QTEXTMODE
 70
0
  9
$REGENMODE
 70
1
  9
$SHADEDGE
 70
3
  9
$SHADEDIF
 70
70
  9
$SKETCHINC
 40
1.0
  9
$SKPOLY
 70
0
  9
$SPLFRAME
 70
0
  9
$SPLINESEGS
 70
8
  9
$SPLINETYPE
 70
6
  9
$SURFTAB1
 70
6
  9
$SURFTAB2
 70
6
  9
$SURFTYPE
 70
6
  9
$SURFU
 70
6
  9
$SURFV
 70
6
  9
$TEXTSIZE
 40
2.5
  9
$TEXTSTYLE
  7
Standard
  9
$THICKNESS
 40
0.0
  9
$TILEMODE
 70
1
  9
$TRACEWID
 40
1.0
  9
$TREEDEPTH
 70
3020
  9
$UCSNAME
  2

  9
$UCSORG
 10
0.0
 20
0.0
 30
0.0
  9
$UCSXDIR
 10
1.0
 20
0.0
 30
0.0
  9
$UCSYDIR
 10
0.0
 20
1.0
 30
0.0
  9
$UNITMODE
 70
0
  9
$USERI1
 70
0
  9
$USERI2
 70
0
  9
$USERI3
 70
0
  9
$USERI4
 70
0
  9
$USERI5
 70
0
  9
$USERR1
 40
0.0
  9
$USERR2
 40
0.0
  9
$USERR3
 40
0.0
  9
$USERR4
 40
0.0
  9
$USERR5
 40
0.0
  9
$USRTIMER
 70
1
  9
$VISRETAIN
 70
1
  0
ENDSEC
  0
SECTION
  2
TABLES
  0
TABLE
  2
VPORT
  5
8
100
AcDbSymbolTable
 70
1
  0
VPORT
  5
30
100
AcDbSymbolTableRecord
100
AcDbViewportTableRecord
  2
*Active
 70
0
 10
0.0
 20
0.0
 11
1.0
 21
1.0
 12
286.3055555555554861
 22
148.5
 13
0.0
 23
0.0
 14
10.0
 24
10.0
 15
10.0
 25
10.0
 16
0.0
 26
0.0
 36
1.0
 17
0.0
 27
0.0
 37
0.0
 40
297.0
 41
1.92798353909465
 42
50.0
 43
0.0
 44
0.0
 50
0.0
 51
0.0
 71
0
 72
100
 73
1
 74
3
 75
1
 76
1
 77
0
 78
0
281
0
 65
1
110
0.0
120
0.0
130
0.0
111
1.0
121
0.0
131
0.0
112
0.0
122
1.0
132
0.0
 79
0
146
0.0
  0
ENDTAB
  0
TABLE
  2
LTYPE
  5
5
100
AcDbSymbolTable
 70
41
  0
LTYPE
  5
16
100
AcDbSymbolTableRecord
100
AcDbLinetypeTableRecord
  2
Continuous
 70
0
  3
Solid line
 72
65
 73
0
 40
0.0
  0
LTYPE
  5
31
100
AcDbSymbolTableRecord
100
AcDbLinetypeTableRecord
  2
PHANTOM2
 70
0
  3
Phantom (.5x) ___ _ _ ___ _ _ ___ _ _ ___ _ _
 72
65
 73
6
 40
31.7500000000000036
 49
15.875
 74
0
 49
-3.1749999999999998
 74
0
 49
3.1749999999999998
 74
0
 49
-3.1749999999999998
 74
0
 49
3.1749999999999998
 74
0
 49
-3.1749999999999998
 74
0
  0
LTYPE
  5
14
100
AcDbSymbolTableRecord
100
AcDbLinetypeTableRecord
  2
ByBlock
 70
0
  3

 72
65
 73
0
 40
0.0
  0
LTYPE
  5
32
100
AcDbSymbolTableRecord
100
AcDbLinetypeTableRecord
  2
HIDDENX2
 70
0
  3
Hidden (2x) ____ ____ ____ ____ ____ ____ ____ 
 72
65
 73
2
 40
19.0499999999999972
 49
12.6999999999999993
 74
0
 49
-6.3499999999999996
 74
0
  0
LTYPE
  5
33
100
AcDbSymbolTableRecord
100
AcDbLinetypeTableRecord
  2
DASHED2
 70
0
  3
Dashed (.5x) _ _ _ _ _ _ _ _ _ _ _ _ _ _ _ _ _ 
 72
65
 73
2
 40
9.5249999999999986
 49
6.3499999999999996
 74
0
 49
-3.1749999999999998
 74
0
  0
LTYPE
  5
34
100
AcDbSymbolTableRecord
100
AcDbLinetypeTableRecord
  2
DASHEDX2
 70
0
  3
Dashed (2x) ____  ____  ____  ____  ____  ___
 72
65
 73
2
 40
38.0999999999999943
 49
25.3999999999999986
 74
0
 49
-12.6999999999999993
 74
0
  0
LTYPE
  5
35
100
AcDbSymbolTableRecord
100
AcDbLinetypeTableRecord
  2
ACAD_ISO09W100
 70
0
  3
ISO long-dash double-short-dash ____ __ __ ____
 72
65
 73
6
 40
45.0
 49
24.0
 74
0
 49
-3.0
 74
0
 49
6.0
 74
0
 49
-3.0
 74
0
 49
6.0
 74
0
 49
-3.0
 74
0
  0
LTYPE
  5
36
100
AcDbSymbolTableRecord
100
AcDbLinetypeTableRecord
  2
CENTER2
 70
0
  3
Center (.5x) ___ _ ___ _ ___ _ ___ _ ___ _ ___
 72
65
 73
4
 40
28.5750000000000028
 49
19.0500000000000007
 74
0
 49
-3.1749999999999998
 74
0
 49
3.1749999999999998
 74
0
 49
-3.1749999999999998
 74
0
  0
LTYPE
  5
37
100
AcDbSymbolTableRecord
100
AcDbLinetypeTableRecord
  2
DASHDOTX2
 70
0
  3
Dash dot (2x) ____  .  ____  .  ____  .  ___
 72
65
 73
4
 40
50.7999999999999972
 49
25.3999999999999986
 74
0
 49
-12.6500000000000004
 74
0
 49
0.1
 74
0
 49
-12.6500000000000004
 74
0
  0
LTYPE
  5
38
100
AcDbSymbolTableRecord
100
AcDbLinetypeTableRecord
  2
ACAD_ISO08W100
 70
0
  3
ISO long-dash short-dash ____ __ ____ __ ____ _
 72
65
 73
4
 40
36.0
 49
24.0
 74
0
 49
-3.0
 74
0
 49
6.0
 74
0
 49
-3.0
 74
0
  0
LTYPE
  5
39
100
AcDbSymbolTableRecord
100
AcDbLinetypeTableRecord
  2
DOTX2
 70
0
  3
Dot (2x) .  .  .  .  .  .  .  .  .  .  .  .  .  .
 72
65
 73
2
 40
12.6999999999999993
 49
0.1
 74
0
 49
-12.5999999999999996
 74
0
  0
LTYPE
  5
3A
100
AcDbSymbolTableRecord
100
AcDbLinetypeTableRecord
  2
CENTER
 70
0
  3
Center ____ _ ____ _ ____ _ ____ _ ____ _ ____
 72
65
 73
4
 40
50.8000000000000043
 49
31.75
 74
0
 49
-6.3499999999999996
 74
0
 49
6.3499999999999996
 74
0
 49
-6.3499999999999996
 74
0
  0
LTYPE
  5
3B
100
AcDbSymbolTableRecord
100
AcDbLinetypeTableRecord
  2
DASHDOT
 70
0
  3
Dash dot __ . __ . __ . __ . __ . __ . __ . __
 72
65
 73
4
 40
25.4000000000000021
 49
12.6999999999999993
 74
0
 49
-6.2999999999999998
 74
0
 49
0.1
 74
0
 49
-6.2999999999999998
 74
0
  0
LTYPE
  5
3C
100
AcDbSymbolTableRecord
100
AcDbLinetypeTableRecord
  2
DOT
 70
0
  3
Dot . . . . . . . . . . . . . . . . . . . . . . . .
 72
65
 73
2
 40
6.3499999999999996
 49
0.1
 74
0
 49
-6.25
 74
0
  0
LTYPE
  5
3D
100
AcDbSymbolTableRecord
100
AcDbLinetypeTableRecord
  2
DIVIDE
 70
0
  3
Divide ____ . . ____ . . ____ . . ____ . . ____
 72
65
 73
6
 40
31.7500000000000036
 49
12.6999999999999993
 74
0
 49
-6.2999999999999998
 74
0
 49
0.1
 74
0
 49
-6.25
 74
0
 49
0.1
 74
0
 49
-6.2999999999999998
 74
0
  0
LTYPE
  5
3E
100
AcDbSymbolTableRecord
100
AcDbLinetypeTableRecord
  2
ACAD_ISO15W100
 70
0
  3
ISO double-dash triple-dot __ __ . . . __ __ . .
 72
65
 73
10
 40
39.0000000000000071
 49
12.0
 74
0
 49
-3.0
 74
0
 49
12.0
 74
0
 49
-2.9500000000000002
 74
0
 49
0.1
 74
0
 49
-2.8999999999999999
 74
0
 49
0.1
 74
0
 49
-2.8999999999999999
 74
0
 49
0.1
 74
0
 49
-2.9500000000000002
 74
0
  0
LTYPE
  5
15
100
AcDbSymbolTableRecord
100
AcDbLinetypeTableRecord
  2
ByLayer
 70
0
  3

 72
65
 73
0
 40
0.0
  0
LTYPE
  5
3F
100
AcDbSymbolTableRecord
100
AcDbLinetypeTableRecord
  2
DASHED
 70
0
  3
Dashed __ __ __ __ __ __ __ __ __ __ __ __ __ _
 72
65
 73
2
 40
19.0499999999999972
 49
12.6999999999999993
 74
0
 49
-6.3499999999999996
 74
0
  0
LTYPE
  5
40
100
AcDbSymbolTableRecord
100
AcDbLinetypeTableRecord
  2
DASHDOT2
 70
0
  3
Dash dot (.5x) _._._._._._._._._._._._._._._.
 72
65
 73
4
 40
12.6999999999999993
 49
6.3499999999999996
 74
0
 49
-3.125
 74
0
 49
0.1
 74
0
 49
-3.125
 74
0
  0
LTYPE
  5
41
100
AcDbSymbolTableRecord
100
AcDbLinetypeTableRecord
  2
ACAD_ISO07W100
 70
0
  3
ISO dot . . . . . . . . . . . . . . . . . . . . 
 72
65
 73
2
 40
3.0
 49
0.1
 74
0
 49
-2.8999999999999999
 74
0
  0
LTYPE
  5
42
100
AcDbSymbolTableRecord
100
AcDbLinetypeTableRecord
  2
PHANTOMX2
 70
0
  3
Phantom (2x) ____________    ____    ____   _
 72
65
 73
6
 40
127.0000000000000142
 49
63.5
 74
0
 49
-12.6999999999999993
 74
0
 49
12.6999999999999993
 74
0
 49
-12.6999999999999993
 74
0
 49
12.6999999999999993
 74
0
 49
-12.6999999999999993
 74
0
  0
LTYPE
  5
43
100
AcDbSymbolTableRecord
100
AcDbLinetypeTableRecord
  2
ACAD_ISO14W100
 70
0
  3
ISO dash triple-dot __ . . . __ . . . __ . . . _
 72
65
 73
8
 40
24.0
 49
12.0
 74
0
 49
-2.9500000000000002
 74
0
 49
0.1
 74
0
 49
-2.8999999999999999
 74
0
 49
0.1
 74
0
 49
-2.8999999999999999
 74
0
 49
0.1
 74
0
 49
-2.9500000000000002
 74
0
  0
LTYPE
  5
44
100
AcDbSymbolTableRecord
100
AcDbLinetypeTableRecord
  2
PHANTOM
 70
0
  3
Phantom ______  __  __  ______  __  __  ______ 
 72
65
 73
6
 40
63.5000000000000071
 49
31.75
 74
0
 49
-6.3499999999999996
 74
0
 49
6.3499999999999996
 74
0
 49
-6.3499999999999996
 74
0
 49
6.3499999999999996
 74
0
 49
-6.3499999999999996
 74
0
  0
LTYPE
  5
45
100
AcDbSymbolTableRecord
100
AcDbLinetypeTableRecord
  2
ACAD_ISO06W100
 70
0
  3
ISO long-dash triple-dot ____ ... ____ ... ____
 72
65
 73
8
 40
36.0000000000000071
 49
24.0
 74
0
 49
-2.9500000000000002
 74
0
 49
0.1
 74
0
 49
-2.8999999999999999
 74
0
 49
0.1
 74
0
 49
-2.8999999999999999
 74
0
 49
0.1
 74
0
 49
-2.9500000000000002
 74
0
  0
LTYPE
  5
46
100
AcDbSymbolTableRecord
100
AcDbLinetypeTableRecord
  2
BORDER2
 70
0
  3
Border (.5x) __.__.__.__.__.__.__.__.__.__.__.
 72
65
 73
6
 40
22.2250000000000014
 49
6.3499999999999996
 74
0
 49
-3.1749999999999998
 74
0
 49
6.3499999999999996
 74
0
 49
-3.125
 74
0
 49
0.1
 74
0
 49
-3.125
 74
0
  0
LTYPE
  5
47
100
AcDbSymbolTableRecord
100
AcDbLinetypeTableRecord
  2
ACAD_ISO13W100
 70
0
  3
ISO double-dash double-dot __ __ . . __ __ . . _
 72
65
 73
8
 40
36.0000000000000071
 49
12.0
 74
0
 49
-3.0
 74
0
 49
12.0
 74
0
 49
-2.9500000000000002
 74
0
 49
0.1
 74
0
 49
-2.8999999999999999
 74
0
 49
0.1
 74
0
 49
-2.9500000000000002
 74
0
  0
LTYPE
  5
48
100
AcDbSymbolTableRecord
100
AcDbLinetypeTableRecord
  2
BORDER
 70
0
  3
Border __ __ . __ __ . __ __ . __ __ . __ __ .
 72
65
 73
6
 40
44.4499999999999957
 49
12.6999999999999993
 74
0
 49
-6.3499999999999996
 74
0
 49
12.6999999999999993
 74
0
 49
-6.2999999999999998
 74
0
 49
0.1
 74
0
 49
-6.2999999999999998
 74
0
  0
LTYPE
  5
49
100
AcDbSymbolTableRecord
100
AcDbLinetypeTableRecord
  2
ACAD_ISO05W100
 70
0
  3
ISO long-dash double-dot ____ .. ____ .. ____ . 
 72
65
 73
6
 40
33.0
 49
24.0
 74
0
 49
-2.9500000000000002
 74
0
 49
0.1
 74
0
 49
-2.8999999999999999
 74
0
 49
0.1
 74
0
 49
-2.9500000000000002
 74
0
  0
LTYPE
  5
4A
100
AcDbSymbolTableRecord
100
AcDbLinetypeTableRecord
  2
DIVIDE2
 70
0
  3
Divide (.5x) __..__..__..__..__..__..__..__.._
 72
65
 73
6
 40
15.8749999999999982
 49
6.3499999999999996
 74
0
 49
-3.125
 74
0
 49
0.1
 74
0
 49
-3.0750000000000002
 74
0
 49
0.1
 74
0
 49
-3.125
 74
0
  0
LTYPE
  5
4B
100
AcDbSymbolTableRecord
100
AcDbLinetypeTableRecord
  2
ACAD_ISO12W100
 70
0
  3
ISO dash double-dot __ . . __ . . __ . . __ . . 
 72
65
 73
6
 40
21.0
 49
12.0
 74
0
 49
-2.9500000000000002
 74
0
 49
0.1
 74
0
 49
-2.8999999999999999
 74
0
 49
0.1
 74
0
 49
-2.9500000000000002
 74
0
  0
LTYPE
  5
4C
100
AcDbSymbolTableRecord
100
AcDbLinetypeTableRecord
  2
CENTERX2
 70
0
  3
Center (2x) ________  __  ________  __  _____
 72
65
 73
4
 40
101.6000000000000085
 49
63.5
 74
0
 49
-12.6999999999999993
 74
0
 49
12.6999999999999993
 74
0
 49
-12.6999999999999993
 74
0
  0
LTYPE
  5
4D
100
AcDbSymbolTableRecord
100
AcDbLinetypeTableRecord
  2
HIDDEN2
 70
0
  3
Hidden (.5x) _ _ _ _ _ _ _ _ _ _ _ _ _ _ _ _ _ 
 72
65
 73
2
 40
4.7624999999999993
 49
3.1749999999999998
 74
0
 49
-1.5874999999999999
 74
0
  0
LTYPE
  5
4E
100
AcDbSymbolTableRecord
100
AcDbLinetypeTableRecord
  2
ACAD_ISO04W100
 70
0
  3
ISO long-dash dot ____ . ____ . ____ . ____ . _
 72
65
 73
4
 40
30.0
 49
24.0
 74
0
 49
-2.9500000000000002
 74
0
 49
0.1
 74
0
 49
-2.9500000000000002
 74
0
  0
LTYPE
  5
4F
100
AcDbSymbolTableRecord
100
AcDbLinetypeTableRecord
  2
HIDDEN
 70
0
  3
Hidden __ __ __ __ __ __ __ __ __ __ __ __ __ __
 72
65
 73
2
 40
9.5249999999999986
 49
6.3499999999999996
 74
0
 49
-3.1749999999999998
 74
0
  0
LTYPE
  5
50
100
AcDbSymbolTableRecord
100
AcDbLinetypeTableRecord
  2
DOT2
 70
0
  3
Dot (.5x) ........................................
 72
65
 73
2
 40
3.1750000000000003
 49
0.1
 74
0
 49
-3.0750000000000002
 74
0
  0
LTYPE
  5
51
100
AcDbSymbolTableRecord
100
AcDbLinetypeTableRecord
  2
DIVIDEX2
 70
0
  3
Divide (2x) ________  .  .  ________  .  .  _
 72
65
 73
6
 40
63.5
 49
25.3999999999999986
 74
0
 49
-12.6500000000000004
 74
0
 49
0.1
 74
0
 49
-12.5999999999999996
 74
0
 49
0.1
 74
0
 49
-12.6500000000000004
 74
0
  0
LTYPE
  5
52
100
AcDbSymbolTableRecord
100
AcDbLinetypeTableRecord
  2
ACAD_ISO11W100
 70
0
  3
ISO double-dash dot __ __ . __ __ . __ __ . __ _
 72
65
 73
6
 40
33.0
 49
12.0
 74
0
 49
-3.0
 74
0
 49
12.0
 74
0
 49
-2.9500000000000002
 74
0
 49
0.1
 74
0
 49
-2.9500000000000002
 74
0
  0
LTYPE
  5
53
100
AcDbSymbolTableRecord
100
AcDbLinetypeTableRecord
  2
ACAD_ISO03W100
 70
0
  3
ISO dash space __    __    __    __    __    __
 72
65
 73
2
 40
30.0
 49
12.0
 74
0
 49
-18.0
 74
0
  0
LTYPE
  5
54
100
AcDbSymbolTableRecord
100
AcDbLinetypeTableRecord
  2
BORDERX2
 70
0
  3
Border (2x) ____  ____  .  ____  ____  .  ___
 72
65
 73
6
 40
88.8999999999999915
 49
25.3999999999999986
 74
0
 49
-12.6999999999999993
 74
0
 49
25.3999999999999986
 74
0
 49
-12.6500000000000004
 74
0
 49
0.1
 74
0
 49
-12.6500000000000004
 74
0
  0
LTYPE
  5
55
100
AcDbSymbolTableRecord
100
AcDbLinetypeTableRecord
  2
ACAD_ISO10W100
 70
0
  3
ISO dash dot __ . __ . __ . __ . __ . __ . __ . 
 72
65
 73
4
 40
18.0
 49
12.0
 74
0
 49
-2.9500000000000002
 74
0
 49
0.1
 74
0
 49
-2.9500000000000002
 74
0
  0
LTYPE
  5
56
100
AcDbSymbolTableRecord
100
AcDbLinetypeTableRecord
  2
ACAD_ISO02W100
 70
0
  3
ISO dash __ __ __ __ __ __ __ __ __ __ __ __ __
 72
65
 73
2
 40
15.0
 49
12.0
 74
0
 49
-3.0
 74
0
  0
ENDTAB
  0
TABLE
  2
LAYER
  5
2
100
AcDbSymbolTable
 70
26
  0
LAYER
  5
57
100
AcDbSymbolTableRecord
100
AcDbLayerTableRecord
  2
Musterlogo AG
 70
4
 62
3
420
65280
  6
Continuous
370
-3
390
F
  0
LAYER
  5
58
100
AcDbSymbolTableRecord
100
AcDbLayerTableRecord
  2
Blattrahmen
 70
4
 62
2
420
16776960
  6
Continuous
370
-3
390
F
  0
LAYER
  5
59
100
AcDbSymbolTableRecord
100
AcDbLayerTableRecord
  2
Musterlogo AG Text
 70
4
 62
5
420
255
  6
Continuous
370
-3
390
F
  0
LAYER
  5
5A
100
AcDbSymbolTableRecord
100
AcDbLayerTableRecord
  2
Plankopf Legende
 70
4
 62
6
420
16711935
  6
Continuous
370
-3
390
F
  0
LAYER
  5
5B
100
AcDbSymbolTableRecord
100
AcDbLayerTableRecord
  2
Planecken
 70
4
 62
2
420
16776960
  6
Continuous
370
-3
390
F
  0
LAYER
  5
5C
100
AcDbSymbolTableRecord
100
AcDbLayerTableRecord
  2
Zeichnungsrahmen rot
 70
4
 62
1
420
16711680
  6
Continuous
370
-3
390
F
  0
LAYER
  5
5D
100
AcDbSymbolTableRecord
100
AcDbLayerTableRecord
  2
Hilfslinien
 70
4
 62
6
420
16711935
  6
Continuous
370
-3
390
F
  0
LAYER
  5
5E
100
AcDbSymbolTableRecord
100
AcDbLayerTableRecord
  2
Logo Adresse
 70
4
 62
5
420
255
  6
Continuous
370
-3
390
F
  0
LAYER
  5
5F
100
AcDbSymbolTableRecord
100
AcDbLayerTableRecord
  2
Nordpfeile rot
 70
4
 62
1
420
16711680
  6
Continuous
370
-3
390
F
  0
LAYER
  5
60
100
AcDbSymbolTableRecord
100
AcDbLayerTableRecord
  2
Defpoints
 70
4
 62
7
420
16777215
  6
Continuous
290
0
370
-3
390
F
  0
LAYER
  5
61
100
AcDbSymbolTableRecord
100
AcDbLayerTableRecord
  2
Zeichnungsrahmen_blau
 70
4
 62
5
420
255
  6
Continuous
370
-3
390
F
  0
LAYER
  5
62
100
AcDbSymbolTableRecord
100
AcDbLayerTableRecord
  2
Plankopf Text augefuellt
 70
0
 62
134
420
32896
  6
Continuous
370
-3
390
F
  0
LAYER
  5
63
100
AcDbSymbolTableRecord
100
AcDbLayerTableRecord
  2
Nordpfeil gruen
 70
4
 62
3
420
65280
  6
Continuous
370
-3
390
F
  0
LAYER
  5
64
100
AcDbSymbolTableRecord
100
AcDbLayerTableRecord
  2
Faltmarken
 70
4
 62
3
420
65280
  6
Continuous
370
-3
390
F
  0
LAYER
  5
65
100
AcDbSymbolTableRecord
100
AcDbLayerTableRecord
  2
Nordpfeil blau
 70
4
 62
5
420
255
  6
Continuous
370
-3
390
F
  0
LAYER
  5
66
100
AcDbSymbolTableRecord
100
AcDbLayerTableRecord
  2
Musterlogo AG 1
 70
4
 62
1
420
16711680
  6
Continuous
370
-3
390
F
  0
LAYER
  5
67
100
AcDbSymbolTableRecord
100
AcDbLayerTableRecord
  2
Logo Text
 70
4
 62
1
420
16711680
  6
Continuous
370
-3
390
F
  0
LAYER
  5
68
100
AcDbSymbolTableRecord
100
AcDbLayerTableRecord
  2
Plankopf Text Vorgabe
 70
4
 62
1
420
16711680
  6
Continuous
370
-3
390
F
  0
LAYER
  5
69
100
AcDbSymbolTableRecord
100
AcDbLayerTableRecord
  2
Logo_a
 70
4
 62
1
420
16711680
  6
Continuous
370
-3
390
F
  0
LAYER
  5
6A
100
AcDbSymbolTableRecord
100
AcDbLayerTableRecord
  2
Logo
 70
4
 62
5
420
255
  6
Continuous
370
-3
390
F
  0
LAYER
  5
6B
100
AcDbSymbolTableRecord
100
AcDbLayerTableRecord
  2
Logo_b
 70
4
 62
30
420
16744192
  6
Continuous
370
-3
390
F
  0
LAYER
  5
6C
100
AcDbSymbolTableRecord
100
AcDbLayerTableRecord
  2
Logo_c
 70
4
 62
14
420
8388608
  6
Continuous
370
-3
390
F
  0
LAYER
  5
6D
100
AcDbSymbolTableRecord
100
AcDbLayerTableRecord
  2
Nordpfeil Text
 70
4
 62
4
420
65535
  6
Continuous
370
-3
390
F
  0
LAYER
  5
6E
100
AcDbSymbolTableRecord
100
AcDbLayerTableRecord
  2
Plankopf Rahmen
 70
4
 62
94
420
32768
  6
Continuous
370
-3
390
F
  0
LAYER
  5
6F
100
AcDbSymbolTableRecord
100
AcDbLayerTableRecord
  2
pfoenix
 70
4
 62
94
420
32768
  6
Continuous
370
-3
390
F
  0
LAYER
  5
10
100
AcDbSymbolTableRecord
100
AcDbLayerTableRecord
  2
0
 70
4
 62
7
420
16777215
  6
Continuous
370
-3
390
F
  0
ENDTAB
  0
TABLE
  2
STYLE
  5
3
100
AcDbSymbolTable
 70
55
  0
STYLE
  5
70
100
AcDbSymbolTableRecord
100
AcDbTextStyleTableRecord
  2
Standard
 70
0
 40
0.0
 41
1.0
 50
0.0
 71
0
 42
2.5
  3

  4

1001
ACAD
1000
txt
1071
0
  0
STYLE
  5
71
100
AcDbSymbolTableRecord
100
AcDbTextStyleTableRecord
  2
textstyle0
 70
0
 40
0.0
 41
1.0
 50
0.0
 71
0
 42
3.0
  3

  4

1001
ACAD
1000
FreeMono
1071
0
  0
STYLE
  5
72
100
AcDbSymbolTableRecord
100
AcDbTextStyleTableRecord
  2
textstyle1
 70
0
 40
0.0
 41
1.0
 50
0.0
 71
0
 42
2.0
  3

  4

1001
ACAD
1000
FreeMono
1071
0
  0
STYLE
  5
73
100
AcDbSymbolTableRecord
100
AcDbTextStyleTableRecord
  2
textstyle2
 70
0
 40
0.0
 41
1.0
 50
0.0
 71
0
 42
2.0
  3

  4

1001
ACAD
1000
FreeMono
1071
0
  0
STYLE
  5
74
100
AcDbSymbolTableRecord
100
AcDbTextStyleTableRecord
  2
textstyle3
 70
0
 40
0.0
 41
1.0
 50
0.0
 71
0
 42
3.0
  3

  4

1001
ACAD
1000
FreeMono
1071
0
  0
STYLE
  5
75
100
AcDbSymbolTableRecord
100
AcDbTextStyleTableRecord
  2
textstyle4
 70
0
 40
0.0
 41
1.0
 50
0.0
 71
0
 42
3.0
  3

  4

1001
ACAD
1000
FreeMono
1071
0
  0
STYLE
  5
76
100
AcDbSymbolTableRecord
100
AcDbTextStyleTableRecord
  2
textstyle5
 70
0
 40
0.0
 41
1.0
 50
0.0
 71
0
 42
2.0
  3

  4

1001
ACAD
1000
FreeMono
1071
0
  0
STYLE
  5
77
100
AcDbSymbolTableRecord
100
AcDbTextStyleTableRecord
  2
textstyle6
 70
0
 40
0.0
 41
1.0
 50
0.0
 71
0
 42
2.0
  3

  4

1001
ACAD
1000
FreeMono
1071
0
  0
STYLE
  5
78
100
AcDbSymbolTableRecord
100
AcDbTextStyleTableRecord
  2
textstyle7
 70
0
 40
0.0
 41
1.0
 50
0.0
 71
0
 42
2.0
  3

  4

1001
ACAD
1000
FreeMono
1071
0
  0
STYLE
  5
79
100
AcDbSymbolTableRecord
100
AcDbTextStyleTableRecord
  2
textstyle8
 70
0
 40
0.0
 41
1.0
 50
0.0
 71
0
 42
4.5
  3

  4

1001
ACAD
1000
URW Chancery L
1071
0
  0
STYLE
  5
7A
100
AcDbSymbolTableRecord
100
AcDbTextStyleTableRecord
  2
textstyle9
 70
0
 40
0.0
 41
1.0
 50
0.0
 71
0
 42
7.5
  3

  4

1001
ACAD
1000
URW Chancery L
1071
0
  0
STYLE
  5
7B
100
AcDbSymbolTableRecord
100
AcDbTextStyleTableRecord
  2
textstyle10
 70
0
 40
0.0
 41
1.0
 50
0.0
 71
0
 42
7.5
  3

  4

1001
ACAD
1000
URW Chancery L
1071
0
  0
STYLE
  5
7C
100
AcDbSymbolTableRecord
100
AcDbTextStyleTableRecord
  2
textstyle11
 70
0
 40
0.0
 41
1.0
 50
0.0
 71
0
 42
4.5
  3

  4

1001
ACAD
1000
URW Chancery L
1071
0
  0
STYLE
  5
7D
100
AcDbSymbolTableRecord
100
AcDbTextStyleTableRecord
  2
textstyle12
 70
0
 40
0.0
 41
1.0
 50
0.0
 71
0
 42
4.0
  3

  4

1001
ACAD
1000
FreeMono
1071
0
  0
STYLE
  5
7E
100
AcDbSymbolTableRecord
100
AcDbTextStyleTableRecord
  2
textstyle13
 70
0
 40
0.0
 41
1.0
 50
0.0
 71
0
 42
4.0
  3

  4

1001
ACAD
1000
FreeMono
1071
0
  0
STYLE
  5
7F
100
AcDbSymbolTableRecord
100
AcDbTextStyleTableRecord
  2
textstyle14
 70
0
 40
0.0
 41
1.0
 50
0.0
 71
0
 42
4.0
  3

  4

1001
ACAD
1000
FreeMono
1071
0
  0
STYLE
  5
80
100
AcDbSymbolTableRecord
100
AcDbTextStyleTableRecord
  2
textstyle15
 70
0
 40
0.0
 41
1.0
 50
0.0
 71
0
 42
4.0
  3

  4

1001
ACAD
1000
FreeMono
1071
0
  0
STYLE
  5
81
100
AcDbSymbolTableRecord
100
AcDbTextStyleTableRecord
  2
textstyle16
 70
0
 40
0.0
 41
1.0
 50
0.0
 71
0
 42
4.0
  3

  4

1001
ACAD
1000
FreeMono
1071
0
  0
STYLE
  5
82
100
AcDbSymbolTableRecord
100
AcDbTextStyleTableRecord
  2
textstyle17
 70
0
 40
0.0
 41
1.0
 50
0.0
 71
0
 42
4.0
  3

  4

1001
ACAD
1000
FreeMono
1071
0
  0
STYLE
  5
83
100
AcDbSymbolTableRecord
100
AcDbTextStyleTableRecord
  2
textstyle18
 70
0
 40
0.0
 41
1.0
 50
0.0
 71
0
 42
4.0
  3

  4

1001
ACAD
1000
FreeMono
1071
0
  0
STYLE
  5
84
100
AcDbSymbolTableRecord
100
AcDbTextStyleTableRecord
  2
textstyle19
 70
0
 40
0.0
 41
1.0
 50
0.0
 71
0
 42
3.0
  3

  4

1001
ACAD
1000
FreeMono
1071
0
  0
STYLE
  5
85
100
AcDbSymbolTableRecord
100
AcDbTextStyleTableRecord
  2
textstyle20
 70
0
 40
0.0
 41
1.0
 50
0.0
 71
0
 42
3.0
  3

  4

1001
ACAD
1000
FreeMono
1071
0
  0
STYLE
  5
86
100
AcDbSymbolTableRecord
100
AcDbTextStyleTableRecord
  2
textstyle21
 70
0
 40
0.0
 41
1.0
 50
0.0
 71
0
 42
3.0
  3

  4

1001
ACAD
1000
FreeMono
1071
0
  0
STYLE
  5
87
100
AcDbSymbolTableRecord
100
AcDbTextStyleTableRecord
  2
textstyle22
 70
0
 40
0.0
 41
1.0
 50
0.0
 71
0
 42
3.0
  3

  4

1001
ACAD
1000
FreeMono
1071
0
  0
STYLE
  5
88
100
AcDbSymbolTableRecord
100
AcDbTextStyleTableRecord
  2
textstyle23
 70
0
 40
0.0
 41
1.0
 50
0.0
 71
0
 42
3.0
  3

  4

1001
ACAD
1000
FreeMono
1071
0
  0
STYLE
  5
89
100
AcDbSymbolTableRecord
100
AcDbTextStyleTableRecord
  2
textstyle24
 70
0
 40
0.0
 41
1.0
 50
0.0
 71
0
 42
3.0
  3

  4

1001
ACAD
1000
FreeMono
1071
0
  0
STYLE
  5
8A
100
AcDbSymbolTableRecord
100
AcDbTextStyleTableRecord
  2
textstyle25
 70
0
 40
0.0
 41
1.0
 50
0.0
 71
0
 42
3.0
  3

  4

1001
ACAD
1000
FreeMono
1071
0
  0
STYLE
  5
8B
100
AcDbSymbolTableRecord
100
AcDbTextStyleTableRecord
  2
textstyle26
 70
0
 40
0.0
 41
1.0
 50
0.0
 71
0
 42
3.0
  3

  4

1001
ACAD
1000
FreeMono
1071
0
  0
STYLE
  5
8C
100
AcDbSymbolTableRecord
100
AcDbTextStyleTableRecord
  2
textstyle27
 70
0
 40
0.0
 41
1.0
 50
0.0
 71
0
 42
3.0
  3

  4

1001
ACAD
1000
FreeMono
1071
0
  0
STYLE
  5
8D
100
AcDbSymbolTableRecord
100
AcDbTextStyleTableRecord
  2
textstyle28
 70
0
 40
0.0
 41
1.0
 50
0.0
 71
0
 42
3.0
  3

  4

1001
ACAD
1000
FreeMono
1071
0
  0
STYLE
  5
8E
100
AcDbSymbolTableRecord
100
AcDbTextStyleTableRecord
  2
textstyle29
 70
0
 40
0.0
 41
1.0
 50
0.0
 71
0
 42
2.0
  3

  4

1001
ACAD
1000
FreeMono
1071
0
  0
STYLE
  5
8F
100
AcDbSymbolTableRecord
100
AcDbTextStyleTableRecord
  2
textstyle30
 70
0
 40
0.0
 41
1.0
 50
0.0
 71
0
 42
2.0
  3

  4

1001
ACAD
1000
FreeMono
1071
0
  0
STYLE
  5
90
100
AcDbSymbolTableRecord
100
AcDbTextStyleTableRecord
  2
textstyle31
 70
0
 40
0.0
 41
1.0
 50
0.0
 71
0
 42
2.0
  3

  4

1001
ACAD
1000
FreeMono
1071
0
  0
STYLE
  5
91
100
AcDbSymbolTableRecord
100
AcDbTextStyleTableRecord
  2
textstyle32
 70
0
 40
0.0
 41
1.0
 50
0.0
 71
0
 42
2.0
  3

  4

1001
ACAD
1000
FreeMono
1071
0
  0
STYLE
  5
92
100
AcDbSymbolTableRecord
100
AcDbTextStyleTableRecord
  2
textstyle33
 70
0
 40
0.0
 41
1.0
 50
0.0
 71
0
 42
2.0
  3

  4

1001
ACAD
1000
FreeMono
1071
0
  0
STYLE
  5
93
100
AcDbSymbolTableRecord
100
AcDbTextStyleTableRecord
  2
textstyle34
 70
0
 40
0.0
 41
1.0
 50
0.0
 71
0
 42
2.0
  3

  4

1001
ACAD
1000
FreeMono
1071
0
  0
STYLE
  5
94
100
AcDbSymbolTableRecord
100
AcDbTextStyleTableRecord
  2
textstyle35
 70
0
 40
0.0
 41
1.0
 50
0.0
 71
0
 42
5.4000000000000004
  3

  4

1001
ACAD
1000
URW Chancery L
1071
0
  0
STYLE
  5
95
100
AcDbSymbolTableRecord
100
AcDbTextStyleTableRecord
  2
textstyle36
 70
0
 40
0.0
 41
1.0
 50
0.0
 71
0
 42
5.0
  3

  4

1001
ACAD
1000
FreeMono
1071
0
  0
STYLE
  5
96
100
AcDbSymbolTableRecord
100
AcDbTextStyleTableRecord
  2
textstyle37
 70
0
 40
0.0
 41
1.0
 50
0.0
 71
0
 42
5.0
  3

  4

1001
ACAD
1000
FreeMono
1071
0
  0
STYLE
  5
97
100
AcDbSymbolTableRecord
100
AcDbTextStyleTableRecord
  2
textstyle38
 70
0
 40
0.0
 41
1.0
 50
0.0
 71
0
 42
5.0
  3

  4

1001
ACAD
1000
FreeMono
1071
0
  0
STYLE
  5
98
100
AcDbSymbolTableRecord
100
AcDbTextStyleTableRecord
  2
textstyle39
 70
0
 40
0.0
 41
1.0
 50
0.0
 71
0
 42
5.0
  3

  4

1001
ACAD
1000
FreeMono
1071
0
  0
STYLE
  5
99
100
AcDbSymbolTableRecord
100
AcDbTextStyleTableRecord
  2
textstyle40
 70
0
 40
0.0
 41
1.0
 50
0.0
 71
0
 42
5.0
  3

  4

1001
ACAD
1000
FreeMono
1071
0
  0
STYLE
  5
9A
100
AcDbSymbolTableRecord
100
AcDbTextStyleTableRecord
  2
textstyle41
 70
0
 40
0.0
 41
1.0
 50
0.0
 71
0
 42
5.0
  3

  4

1001
ACAD
1000
FreeMono
1071
0
  0
STYLE
  5
9B
100
AcDbSymbolTableRecord
100
AcDbTextStyleTableRecord
  2
textstyle42
 70
0
 40
0.0
 41
1.0
 50
0.0
 71
0
 42
5.0
  3

  4

1001
ACAD
1000
FreeMono
1071
0
  0
STYLE
  5
9C
100
AcDbSymbolTableRecord
100
AcDbTextStyleTableRecord
  2
textstyle43
 70
0
 40
0.0
 41
1.0
 50
0.0
 71
0
 42
5.0
  3

  4

1001
ACAD
1000
FreeMono
1071
0
  0
STYLE
  5
9D
100
AcDbSymbolTableRecord
100
AcDbTextStyleTableRecord
  2
textstyle44
 70
0
 40
0.0
 41
1.0
 50
0.0
 71
0
 42
5.0
  3

  4

1001
ACAD
1000
FreeMono
1071
0
  0
STYLE
  5
9E
100
AcDbSymbolTableRecord
100
AcDbTextStyleTableRecord
  2
textstyle45
 70
0
 40
0.0
 41
1.0
 50
0.0
 71
0
 42
5.0
  3

  4

1001
ACAD
1000
FreeMono
1071
0
  0
STYLE
  5
9F
100
AcDbSymbolTableRecord
100
AcDbTextStyleTableRecord
  2
textstyle46
 70
0
 40
0.0
 41
1.0
 50
0.0
 71
0
 42
5.0
  3

  4

1001
ACAD
1000
FreeMono
1071
0
  0
STYLE
  5
A0
100
AcDbSymbolTableRecord
100
AcDbTextStyleTableRecord
  2
textstyle47
 70
0
 40
0.0
 41
1.0
 50
0.0
 71
0
 42
5.0
  3

  4

1001
ACAD
1000
FreeMono
1071
0
  0
STYLE
  5
A1
100
AcDbSymbolTableRecord
100
AcDbTextStyleTableRecord
  2
textstyle48
 70
0
 40
0.0
 41
1.0
 50
0.0
 71
0
 42
2.0
  3

  4

1001
ACAD
1000
FreeMono
1071
0
  0
STYLE
  5
A2
100
AcDbSymbolTableRecord
100
AcDbTextStyleTableRecord
  2
textstyle49
 70
0
 40
0.0
 41
1.0
 50
0.0
 71
0
 42
2.0
  3

  4

1001
ACAD
1000
FreeMono
1071
0
  0
STYLE
  5
A3
100
AcDbSymbolTableRecord
100
AcDbTextStyleTableRecord
  2
textstyle50
 70
0
 40
0.0
 41
1.0
 50
0.0
 71
0
 42
8.0
  3

  4

1001
ACAD
1000
FreeMono
1071
0
  0
STYLE
  5
A4
100
AcDbSymbolTableRecord
100
AcDbTextStyleTableRecord
  2
textstyle51
 70
0
 40
0.0
 41
1.0
 50
0.0
 71
0
 42
8.0
  3

  4

1001
ACAD
1000
FreeMono
1071
0
  0
STYLE
  5
A5
100
AcDbSymbolTableRecord
100
AcDbTextStyleTableRecord
  2
textstyle52
 70
0
 40
0.0
 41
1.0
 50
0.0
 71
0
 42
8.0
  3

  4

1001
ACAD
1000
FreeMono
1071
0
  0
STYLE
  5
A6
100
AcDbSymbolTableRecord
100
AcDbTextStyleTableRecord
  2
textstyle53
 70
0
 40
0.0
 41
1.0
 50
0.0
 71
0
 42
8.0
  3

  4

1001
ACAD
1000
FreeMono
1071
0
  0
ENDTAB
  0
TABLE
  2
VIEW
  5
6
100
AcDbSymbolTable
 70
0
  0
ENDTAB
  0
TABLE
  2
UCS
  5
7
100
AcDbSymbolTable
 70
0
  0
ENDTAB
  0
TABLE
  2
APPID
  5
9
100
AcDbSymbolTable
 70
1
  0
APPID
  5
12
100
AcDbSymbolTableRecord
100
AcDbRegAppTableRecord
  2
ACAD
 70
0
  0
APPID
  5
A7
100
AcDbSymbolTableRecord
100
AcDbRegAppTableRecord
  2
QCAD
 70
0
  0
ENDTAB
  0
TABLE
  2
DIMSTYLE
  5
A
100
AcDbSymbolTable
 70
1
100
AcDbDimStyleTable
 71
0
  0
DIMSTYLE
105
27
100
AcDbSymbolTableRecord
100
AcDbDimStyleTableRecord
  2
Standard
 41
2.5
 42
0.625
 43
3.75
 44
1.25
 70
0
 73
0
 74
0
 77
1
 78
8
140
2.5
141
2.5
143
0.03937007874016
147
0.625
171
3
172
1
271
2
272
2
274
3
278
44
283
0
284
8
340
70
  0
ENDTAB
  0
TABLE
  2
BLOCK_RECORD
  5
1
100
AcDbSymbolTable
 70
1
  0
BLOCK_RECORD
  5
1F
100
AcDbSymbolTableRecord
100
AcDbBlockTableRecord
  2
*Model_Space
340
22
  0
BLOCK_RECORD
  5
1B
100
AcDbSymbolTableRecord
100
AcDbBlockTableRecord
  2
*Paper_Space
340
1E
  0
BLOCK_RECORD
  5
23
100
AcDbSymbolTableRecord
100
AcDbBlockTableRecord
  2
*Paper_Space0
340
26
  0
BLOCK_RECORD
  5
A8
100
AcDbSymbolTableRecord
100
AcDbBlockTableRecord
  2
DIN-A0-Zeichnungsrahmen
340
0
  0
ENDTAB
  0
ENDSEC
  0
SECTION
  2
BLOCKS
  0
BLOCK
  5
20
100
AcDbEntity
  8
0
100
AcDbBlockBegin
  2
*Model_Space
 70
0
 10
0.0
 20
0.0
 30
0.0
  3
*Model_Space
  1

  0
ENDBLK
  5
21
100
AcDbEntity
  8
0
100
AcDbBlockEnd
  0
BLOCK
  5
1C
100
AcDbEntity
 67
1
  8
0
100
AcDbBlockBegin
  2
*Paper_Space
 70
0
 10
0.0
 20
0.0
 30
0.0
  3
*Paper_Space
  1

  0
ENDBLK
  5
1D
100
AcDbEntity
 67
1
  8
0
100
AcDbBlockEnd
  0
BLOCK
  5
24
100
AcDbEntity
  8
0
100
AcDbBlockBegin
  2
*Paper_Space0
 70
0
 10
0.0
 20
0.0
 30
0.0
  3
*Paper_Space0
  1

  0
ENDBLK
  5
25
100
AcDbEntity
  8
0
100
AcDbBlockEnd
  0
BLOCK
  5
A9
100
AcDbEntity
  8
0
100
AcDbBlockBegin
  2
DIN-A0-Zeichnungsrahmen
 70
0
 10
0.0
 20
0.0
 30
0.0
  3
DIN-A0-Zeichnungsrahmen
  1

  0
LINE
  5
AA
100
AcDbEntity
  8
0
 62
7
420
16777215
370
-1
 48
1.0
  6
ByLayer
100
AcDbLine
 10
20.0
 20
420.5
 30
0.0
 11
15.0
 21
420.5
 31
0.0
  0
LINE
  5
AB
100
AcDbEntity
  8
0
 62
256
370
-1
 48
1.0
  6
ByLayer
100
AcDbLine
 10
604.5
 20
5.0
 30
0.0
 11
604.5
 21
10.0
 31
0.0
  0
ENDBLK
  5
AC
100
AcDbEntity
  8
0
100
AcDbBlockEnd
  0
ENDSEC
  0
SECTION
  2
ENTITIES
  0
LINE
  5
AD
100
AcDbEntity
  8
Planecken
 62
256
370
-1
 48
1.0
  6
ByLayer
100
AcDbLine
 10
0.0
 20
-0.0000000000000514
 30
0.0
 11
0.0
 21
9.9999999999999485
 31
0.0
  0
LINE
  5
AE
100
AcDbEntity
  8
Planecken
 62
256
370
-1
 48
1.0
  6
ByLayer
100
AcDbLine
 10
0.0
 20
9.9999999999999485
 30
0.0
 11
5.0
 21
9.9999999999999485
 31
0.0
  0
LINE
  5
AF
100
AcDbEntity
  8
Planecken
 62
256
370
-1
 48
1.0
  6
ByLayer
100
AcDbLine
 10
5.0
 20
9.9999999999999485
 30
0.0
 11
5.0
 21
4.9999999999999485
 31
0.0
  0
LINE
  5
B0
100
AcDbEntity
  8
Planecken
 62
256
370
-1
 48
1.0
  6
ByLayer
100
AcDbLine
 10
5.0
 20
4.9999999999999485
 30
0.0
 11
10.0
 21
4.9999999999999485
 31
0.0
  0
LINE
  5
B1
100
AcDbEntity
  8
Planecken
 62
256
370
-1
 48
1.0
  6
ByLayer
100
AcDbLine
 10
10.0
 20
4.9999999999999485
 30
0.0
 11
10.0
 21
-0.0000000000000514
 31
0.0
  0
LINE
  5
B2
100
AcDbEntity
  8
Planecken
 62
256
370
-1
 48
1.0
  6
ByLayer
100
AcDbLine
 10
0.0
 20
-0.0000000000000514
 30
0.0
 11
10.0
 21
-0.0000000000000514
 31
0.0
  0
HATCH
  5
B3
100
AcDbEntity
  8
Planecken
 62
256
370
-1
 48
1.0
  6
ByLayer
100
AcDbHatch
 10
0.0
 20
0.0
 30
0.0
210
0.0
220
0.0
230
1.0
  2
SOLID
 70
1
 71
0
 91
1
 92
1
 93
6
 72
1
 10
0.0
 20
0.0
 11
0.0
 21
9.9999999999999982
 72
1
 10
0.0
 20
9.9999999999999982
 11
5.0
 21
9.9999999999999982
 72
1
 10
5.0
 20
9.9999999999999982
 11
5.0
 21
5.0000000000000009
 72
1
 10
5.0
 20
5.0000000000000009
 11
10.0
 21
5.0000000000000009
 72
1
 10
10.0
 20
5.0000000000000009
 11
10.0
 21
0.0000000000000001
 72
1
 10
10.0
 20
0.0
 11
0.0
 21
0.0
 97
0
 75
0
 76
1
 98
0
1001
ACAD
1010
0.0
1020
0.0
1030
0
  0
LINE
  5
B4
100
AcDbEntity
  8
Planecken
 62
256
370
-1
 48
1.0
  6
ByLayer
100
AcDbLine
 10
10.0
 20
296.9999999999999432
 30
0.0
 11
10.0
 21
291.9999999999999432
 31
0.0
  0
LINE
  5
B5
100
AcDbEntity
  8
Planecken
 62
256
370
-1
 48
1.0
  6
ByLayer
100
AcDbLine
 10
10.0
 20
291.9999999999999432
 30
0.0
 11
5.0
 21
291.9999999999999432
 31
0.0
  0
LINE
  5
B6
100
AcDbEntity
  8
Planecken
 62
256
370
-1
 48
1.0
  6
ByLayer
100
AcDbLine
 10
5.0
 20
291.9999999999999432
 30
0.0
 11
5.0
 21
286.9999999999999432
 31
0.0
  0
LINE
  5
B7
100
AcDbEntity
  8
Planecken
 62
256
370
-1
 48
1.0
  6
ByLayer
100
AcDbLine
 10
5.0
 20
286.9999999999999432
 30
0.0
 11
0.0
 21
286.9999999999999432
 31
0.0
  0
HATCH
  5
B8
100
AcDbEntity
  8
Planecken
 62
256
370
-1
 48
1.0
  6
ByLayer
100
AcDbHatch
 10
0.0
 20
0.0
 30
0.0
210
0.0
220
0.0
230
1.0
  2
SOLID
 70
1
 71
0
 91
1
 92
1
 93
6
 72
1
 10
10.0
 20
296.9999999999998295
 11
10.0
 21
291.9999999999998295
 72
1
 10
10.0
 20
291.9999999999998295
 11
5.0
 21
291.9999999999998295
 72
1
 10
5.0
 20
291.9999999999998295
 11
5.0
 21
286.9999999999998295
 72
1
 10
5.0
 20
286.9999999999998295
 11
0.0
 21
286.9999999999998295
 72
1
 10
0.0
 20
286.9999999999998295
 11
0.0
 21
296.9999999999998295
 72
1
 10
0.0
 20
296.9999999999998295
 11
10.0
 21
296.9999999999998295
 97
0
 75
0
 76
1
 98
0
1001
ACAD
1010
0.0
1020
0.0
1030
0
  0
LINE
  5
B9
100
AcDbEntity
  8
Planecken
 62
256
370
-1
 48
1.0
  6
ByLayer
100
AcDbLine
 10
410.0
 20
296.9999999999999432
 30
0.0
 11
420.0
 21
296.9999999999999432
 31
0.0
  0
LINE
  5
BA
100
AcDbEntity
  8
Planecken
 62
256
370
-1
 48
1.0
  6
ByLayer
100
AcDbLine
 10
420.0
 20
296.9999999999999432
 30
0.0
 11
420.0
 21
286.9999999999999432
 31
0.0
  0
LINE
  5
BB
100
AcDbEntity
  8
Planecken
 62
256
370
-1
 48
1.0
  6
ByLayer
100
AcDbLine
 10
420.0
 20
286.9999999999999432
 30
0.0
 11
415.0
 21
286.9999999999999432
 31
0.0
  0
LINE
  5
BC
100
AcDbEntity
  8
Planecken
 62
256
370
-1
 48
1.0
  6
ByLayer
100
AcDbLine
 10
415.0
 20
286.9999999999999432
 30
0.0
 11
415.0
 21
291.9999999999999432
 31
0.0
  0
LINE
  5
BD
100
AcDbEntity
  8
Planecken
 62
256
370
-1
 48
1.0
  6
ByLayer
100
AcDbLine
 10
415.0
 20
291.9999999999999432
 30
0.0
 11
410.0
 21
291.9999999999999432
 31
0.0
  0
LINE
  5
BE
100
AcDbEntity
  8
Planecken
 62
256
370
-1
 48
1.0
  6
ByLayer
100
AcDbLine
 10
410.0
 20
291.9999999999999432
 30
0.0
 11
410.0
 21
296.9999999999999432
 31
0.0
  0
HATCH
  5
BF
100
AcDbEntity
  8
Planecken
 62
256
370
-1
 48
1.0
  6
ByLayer
100
AcDbHatch
 10
0.0
 20
0.0
 30
0.0
210
0.0
220
0.0
230
1.0
  2
SOLID
 70
1
 71
0
 91
1
 92
1
 93
6
 72
1
 10
410.0
 20
296.9999999999998295
 11
420.0
 21
296.9999999999998295
 72
1
 10
420.0
 20
296.9999999999998295
 11
420.0
 21
286.9999999999998295
 72
1
 10
420.0
 20
286.9999999999998295
 11
415.0
 21
286.9999999999998295
 72
1
 10
415.0
 20
286.9999999999998295
 11
415.0
 21
291.9999999999998295
 72
1
 10
415.0
 20
291.9999999999998295
 11
410.0
 21
291.9999999999998295
 72
1
 10
410.0
 20
291.9999999999998295
 11
410.0
 21
296.9999999999998295
 97
0
 75
0
 76
1
 98
0
1001
ACAD
1010
0.0
1020
0.0
1030
0
  0
LINE
  5
C0
100
AcDbEntity
  8
Planecken
 62
256
370
-1
 48
1.0
  6
ByLayer
100
AcDbLine
 10
420.0
 20
9.9999999999999485
 30
0.0
 11
415.0
 21
9.9999999999999485
 31
0.0
  0
LINE
  5
C1
100
AcDbEntity
  8
Planecken
 62
256
370
-1
 48
1.0
  6
ByLayer
100
AcDbLine
 10
415.0
 20
9.9999999999999485
 30
0.0
 11
415.0
 21
4.9999999999999485
 31
0.0
  0
LINE
  5
C2
100
AcDbEntity
  8
Planecken
 62
256
370
-1
 48
1.0
  6
ByLayer
100
AcDbLine
 10
415.0
 20
4.9999999999999485
 30
0.0
 11
410.0
 21
4.9999999999999485
 31
0.0
  0
LINE
  5
C3
100
AcDbEntity
  8
Planecken
 62
256
370
-1
 48
1.0
  6
ByLayer
100
AcDbLine
 10
410.0
 20
4.9999999999999485
 30
0.0
 11
410.0
 21
-0.0000000000000514
 31
0.0
  0
LINE
  5
C4
100
AcDbEntity
  8
Planecken
 62
256
370
-1
 48
1.0
  6
ByLayer
100
AcDbLine
 10
410.0
 20
-0.0000000000000514
 30
0.0
 11
420.0
 21
-0.0000000000000514
 31
0.0
  0
LINE
  5
C5
100
AcDbEntity
  8
Planecken
 62
256
370
-1
 48
1.0
  6
ByLayer
100
AcDbLine
 10
420.0
 20
-0.0000000000000514
 30
0.0
 11
420.0
 21
9.9999999999999485
 31
0.0
  0
HATCH
  5
C6
100
AcDbEntity
  8
Planecken
 62
256
370
-1
 48
1.0
  6
ByLayer
100
AcDbHatch
 10
0.0
 20
0.0
 30
0.0
210
0.0
220
0.0
230
1.0
  2
SOLID
 70
1
 71
0
 91
1
 92
1
 93
6
 72
1
 10
410.0
 20
-0.0000000000000514
 11
420.0
 21
-0.0000000000000514
 72
1
 10
420.0
 20
-0.0000000000000514
 11
420.0
 21
9.9999999999999485
 72
1
 10
420.0
 20
9.9999999999999485
 11
415.0
 21
9.9999999999999485
 72
1
 10
415.0
 20
9.9999999999999485
 11
415.0
 21
4.9999999999999485
 72
1
 10
415.0
 20
4.9999999999999485
 11
410.0
 21
4.9999999999999485
 72
1
 10
410.0
 20
4.9999999999999485
 11
410.0
 21
-0.0000000000000514
 97
0
 75
0
 76
1
 98
0
1001
ACAD
1010
0.0
1020
0.0
1030
0
  0
LINE
  5
C7
100
AcDbEntity
  8
Zeichnungsrahmen_blau
 62
256
370
-1
 48
1.0
  6
ByLayer
100
AcDbLine
 10
415.0
 20
4.9999999999999485
 30
0.0
 11
20.0
 21
4.9999999999999485
 31
0.0
  0
LINE
  5
C8
100
AcDbEntity
  8
Zeichnungsrahmen_blau
 62
256
370
-1
 48
1.0
  6
ByLayer
100
AcDbLine
 10
415.0
 20
291.9999999999999432
 30
0.0
 11
415.0
 21
4.9999999999999485
 31
0.0
  0
LINE
  5
C9
100
AcDbEntity
  8
Zeichnungsrahmen rot
 62
256
370
-1
 48
1.0
  6
ByLayer
100
AcDbLine
 10
22.0
 20
6.9999999999999485
 30
0.0
 11
413.0
 21
6.9999999999999485
 31
0.0
  0
LINE
  5
CA
100
AcDbEntity
  8
Zeichnungsrahmen rot
 62
256
370
-1
 48
1.0
  6
ByLayer
100
AcDbLine
 10
413.0
 20
6.9999999999999485
 30
0.0
 11
413.0
 21
289.9999999999999432
 31
0.0
  0
LINE
  5
CB
100
AcDbEntity
  8
Blattrahmen
 62
256
370
-1
 48
1.0
  6
ByLayer
100
AcDbLine
 10
420.0
 20
296.9999999999999432
 30
0.0
 11
0.0
 21
296.9999999999999432
 31
0.0
  0
LINE
  5
CC
100
AcDbEntity
  8
Blattrahmen
 62
256
370
-1
 48
1.0
  6
ByLayer
100
AcDbLine
 10
0.0
 20
296.9999999999999432
 30
0.0
 11
0.0
 21
-0.0000000000000514
 31
0.0
  0
LINE
  5
CD
100
AcDbEntity
  8
Blattrahmen
 62
256
370
-1
 48
1.0
  6
ByLayer
100
AcDbLine
 10
420.0
 20
-0.0000000000000514
 30
0.0
 11
420.0
 21
296.9999999999999432
 31
0.0
  0
LINE
  5
CE
100
AcDbEntity
  8
Blattrahmen
 62
256
370
-1
 48
1.0
  6
ByLayer
100
AcDbLine
 10
0.0
 20
-0.0000000000000514
 30
0.0
 11
420.0
 21
-0.0000000000000514
 31
0.0
  0
LINE
  5
CF
100
AcDbEntity
  8
Zeichnungsrahmen_blau
 62
256
370
-1
 48
1.0
  6
ByLayer
100
AcDbLine
 10
415.0
 20
291.9999999999999432
 30
0.0
 11
20.0
 21
291.9999999999999432
 31
0.0
  0
LINE
  5
D0
100
AcDbEntity
  8
Zeichnungsrahmen_blau
 62
256
370
-1
 48
1.0
  6
ByLayer
100
AcDbLine
 10
20.0
 20
291.9999999999999432
 30
0.0
 11
20.0
 21
4.9999999999999485
 31
0.0
  0
LINE
  5
D1
100
AcDbEntity
  8
Zeichnungsrahmen rot
 62
256
370
-1
 48
1.0
  6
ByLayer
100
AcDbLine
 10
22.0
 20
6.9999999999999485
 30
0.0
 11
22.0
 21
289.9999999999999432
 31
0.0
  0
LINE
  5
D2
100
AcDbEntity
  8
Zeichnungsrahmen rot
 62
256
370
-1
 48
1.0
  6
ByLayer
100
AcDbLine
 10
22.0
 20
289.9999999999999432
 30
0.0
 11
413.0
 21
289.9999999999999432
 31
0.0
  0
LINE
  5
D3
100
AcDbEntity
  8
Faltmarken
 62
256
370
-1
 48
1.0
  6
ByLayer
100
AcDbLine
 10
230.0
 20
291.9999999999999432
 30
0.0
 11
230.0
 21
296.9999999999999432
 31
0.0
  0
LINE
  5
D4
100
AcDbEntity
  8
Faltmarken
 62
256
370
-1
 48
1.0
  6
ByLayer
100
AcDbLine
 10
230.0
 20
-0.0000000000000514
 30
0.0
 11
230.0
 21
4.9999999999999485
 31
0.0
  0
LINE
  5
D5
100
AcDbEntity
  8
Faltmarken
 62
256
370
-1
 48
1.0
  6
ByLayer
100
AcDbLine
 10
125.0
 20
291.9999999999999432
 30
0.0
 11
125.0
 21
296.9999999999999432
 31
0.0
  0
LINE
  5
D6
100
AcDbEntity
  8
Faltmarken
 62
256
370
-1
 48
1.0
  6
ByLayer
100
AcDbLine
 10
125.0
 20
-0.0000000000000514
 30
0.0
 11
125.0
 21
4.9999999999999485
 31
0.0
  0
LINE
  5
D7
100
AcDbEntity
  8
Faltmarken
 62
256
370
-1
 48
1.0
  6
ByLayer
100
AcDbLine
 10
0.0
 20
148.4999999999999432
 30
0.0
 11
10.0
 21
148.4999999999999432
 31
0.0
  0
LINE
  5
D8
100
AcDbEntity
  8
Plankopf Rahmen
 62
256
370
-1
 48
1.0
  6
ByLayer
100
AcDbLine
 10
233.0
 20
9.9999999999999485
 30
0.0
 11
233.0
 21
38.4999999999999503
 31
0.0
  0
LINE
  5
D9
100
AcDbEntity
  8
Plankopf Rahmen
 62
256
370
-1
 48
1.0
  6
ByLayer
100
AcDbLine
 10
233.0
 20
140.4999999999999432
 30
0.0
 11
285.0
 21
140.4999999999999432
 31
0.0
  0
LINE
  5
DA
100
AcDbEntity
  8
Plankopf Rahmen
 62
256
370
-1
 48
1.0
  6
ByLayer
100
AcDbLine
 10
285.0
 20
140.4999999999999432
 30
0.0
 11
348.0
 21
140.4999999999999432
 31
0.0
  0
LINE
  5
DB
100
AcDbEntity
  8
Plankopf Rahmen
 62
256
370
-1
 48
1.0
  6
ByLayer
100
AcDbLine
 10
348.0
 20
140.4999999999999432
 30
0.0
 11
410.0
 21
140.4999999999999432
 31
0.0
  0
LINE
  5
DC
100
AcDbEntity
  8
Plankopf Rahmen
 62
256
370
-1
 48
1.0
  6
ByLayer
100
AcDbLine
 10
410.0
 20
140.4999999999999432
 30
0.0
 11
410.0
 21
144.9999999999999432
 31
0.0
  0
LINE
  5
DD
100
AcDbEntity
  8
Plankopf Rahmen
 62
256
370
-1
 48
1.0
  6
ByLayer
100
AcDbLine
 10
233.0
 20
140.4999999999999432
 30
0.0
 11
233.0
 21
144.9999999999999432
 31
0.0
  0
LINE
  5
DE
100
AcDbEntity
  8
Plankopf Rahmen
 62
256
370
-1
 48
1.0
  6
ByLayer
100
AcDbLine
 10
410.0
 20
144.9999999999999432
 30
0.0
 11
410.0
 21
149.4999999999999432
 31
0.0
  0
LINE
  5
DF
100
AcDbEntity
  8
Plankopf Rahmen
 62
256
370
-1
 48
1.0
  6
ByLayer
100
AcDbLine
 10
233.0
 20
144.9999999999999432
 30
0.0
 11
233.0
 21
149.4999999999999432
 31
0.0
  0
LINE
  5
E0
100
AcDbEntity
  8
Plankopf Rahmen
 62
256
370
-1
 48
1.0
  6
ByLayer
100
AcDbLine
 10
410.0
 20
149.4999999999999432
 30
0.0
 11
410.0
 21
153.9999999999999432
 31
0.0
  0
LINE
  5
E1
100
AcDbEntity
  8
Plankopf Rahmen
 62
256
370
-1
 48
1.0
  6
ByLayer
100
AcDbLine
 10
233.0
 20
149.4999999999999432
 30
0.0
 11
233.0
 21
153.9999999999999432
 31
0.0
  0
LINE
  5
E2
100
AcDbEntity
  8
Plankopf Rahmen
 62
256
370
-1
 48
1.0
  6
ByLayer
100
AcDbLine
 10
410.0
 20
153.9999999999999432
 30
0.0
 11
410.0
 21
158.4999999999999432
 31
0.0
  0
LINE
  5
E3
100
AcDbEntity
  8
Plankopf Rahmen
 62
256
370
-1
 48
1.0
  6
ByLayer
100
AcDbLine
 10
233.0
 20
153.9999999999999432
 30
0.0
 11
233.0
 21
158.4999999999999432
 31
0.0
  0
LINE
  5
E4
100
AcDbEntity
  8
Plankopf Rahmen
 62
256
370
-1
 48
1.0
  6
ByLayer
100
AcDbLine
 10
410.0
 20
158.4999999999999432
 30
0.0
 11
410.0
 21
162.9999999999999432
 31
0.0
  0
LINE
  5
E5
100
AcDbEntity
  8
Plankopf Rahmen
 62
256
370
-1
 48
1.0
  6
ByLayer
100
AcDbLine
 10
233.0
 20
158.4999999999999432
 30
0.0
 11
233.0
 21
162.9999999999999432
 31
0.0
  0
LINE
  5
E6
100
AcDbEntity
  8
Plankopf Rahmen
 62
256
370
-1
 48
1.0
  6
ByLayer
100
AcDbLine
 10
233.0
 20
162.9999999999999432
 30
0.0
 11
241.5
 21
162.9999999999999432
 31
0.0
  0
LINE
  5
E7
100
AcDbEntity
  8
Plankopf Rahmen
 62
256
370
-1
 48
1.0
  6
ByLayer
100
AcDbLine
 10
233.0
 20
158.4999999999999432
 30
0.0
 11
241.5
 21
158.4999999999999432
 31
0.0
  0
LINE
  5
E8
100
AcDbEntity
  8
Plankopf Rahmen
 62
256
370
-1
 48
1.0
  6
ByLayer
100
AcDbLine
 10
233.0
 20
153.9999999999999432
 30
0.0
 11
241.5
 21
153.9999999999999432
 31
0.0
  0
LINE
  5
E9
100
AcDbEntity
  8
Plankopf Rahmen
 62
256
370
-1
 48
1.0
  6
ByLayer
100
AcDbLine
 10
233.0
 20
149.4999999999999432
 30
0.0
 11
241.5
 21
149.4999999999999432
 31
0.0
  0
LINE
  5
EA
100
AcDbEntity
  8
Plankopf Rahmen
 62
256
370
-1
 48
1.0
  6
ByLayer
100
AcDbLine
 10
233.0
 20
144.9999999999999432
 30
0.0
 11
241.5
 21
144.9999999999999432
 31
0.0
  0
LINE
  5
EB
100
AcDbEntity
  8
Plankopf Rahmen
 62
256
370
-1
 48
1.0
  6
ByLayer
100
AcDbLine
 10
241.5
 20
144.9999999999999432
 30
0.0
 11
259.5
 21
144.9999999999999432
 31
0.0
  0
LINE
  5
EC
100
AcDbEntity
  8
Plankopf Rahmen
 62
256
370
-1
 48
1.0
  6
ByLayer
100
AcDbLine
 10
241.5
 20
149.4999999999999432
 30
0.0
 11
259.5
 21
149.4999999999999432
 31
0.0
  0
LINE
  5
ED
100
AcDbEntity
  8
Plankopf Rahmen
 62
256
370
-1
 48
1.0
  6
ByLayer
100
AcDbLine
 10
241.5
 20
153.9999999999999432
 30
0.0
 11
259.5
 21
153.9999999999999432
 31
0.0
  0
LINE
  5
EE
100
AcDbEntity
  8
Plankopf Rahmen
 62
256
370
-1
 48
1.0
  6
ByLayer
100
AcDbLine
 10
241.5
 20
158.4999999999999432
 30
0.0
 11
259.5
 21
158.4999999999999432
 31
0.0
  0
LINE
  5
EF
100
AcDbEntity
  8
Plankopf Rahmen
 62
256
370
-1
 48
1.0
  6
ByLayer
100
AcDbLine
 10
241.5
 20
162.9999999999999432
 30
0.0
 11
259.5
 21
162.9999999999999432
 31
0.0
  0
LINE
  5
F0
100
AcDbEntity
  8
Plankopf Rahmen
 62
256
370
-1
 48
1.0
  6
ByLayer
100
AcDbLine
 10
410.0
 20
144.9999999999999432
 30
0.0
 11
396.0
 21
144.9999999999999432
 31
0.0
  0
LINE
  5
F1
100
AcDbEntity
  8
Plankopf Rahmen
 62
256
370
-1
 48
1.0
  6
ByLayer
100
AcDbLine
 10
410.0
 20
149.4999999999999432
 30
0.0
 11
396.0
 21
149.4999999999999432
 31
0.0
  0
LINE
  5
F2
100
AcDbEntity
  8
Plankopf Rahmen
 62
256
370
-1
 48
1.0
  6
ByLayer
100
AcDbLine
 10
410.0
 20
153.9999999999999432
 30
0.0
 11
396.0
 21
153.9999999999999432
 31
0.0
  0
LINE
  5
F3
100
AcDbEntity
  8
Plankopf Rahmen
 62
256
370
-1
 48
1.0
  6
ByLayer
100
AcDbLine
 10
410.0
 20
158.4999999999999432
 30
0.0
 11
396.0
 21
158.4999999999999432
 31
0.0
  0
LINE
  5
F4
100
AcDbEntity
  8
Plankopf Rahmen
 62
256
370
-1
 48
1.0
  6
ByLayer
100
AcDbLine
 10
410.0
 20
162.9999999999999432
 30
0.0
 11
396.0
 21
162.9999999999999432
 31
0.0
  0
LINE
  5
F5
100
AcDbEntity
  8
Plankopf Rahmen
 62
256
370
-1
 48
1.0
  6
ByLayer
100
AcDbLine
 10
396.0
 20
144.9999999999999432
 30
0.0
 11
382.0
 21
144.9999999999999432
 31
0.0
  0
LINE
  5
F6
100
AcDbEntity
  8
Plankopf Rahmen
 62
256
370
-1
 48
1.0
  6
ByLayer
100
AcDbLine
 10
396.0
 20
149.4999999999999432
 30
0.0
 11
382.0
 21
149.4999999999999432
 31
0.0
  0
LINE
  5
F7
100
AcDbEntity
  8
Plankopf Rahmen
 62
256
370
-1
 48
1.0
  6
ByLayer
100
AcDbLine
 10
396.0
 20
153.9999999999999432
 30
0.0
 11
382.0
 21
153.9999999999999432
 31
0.0
  0
LINE
  5
F8
100
AcDbEntity
  8
Plankopf Rahmen
 62
256
370
-1
 48
1.0
  6
ByLayer
100
AcDbLine
 10
396.0
 20
158.4999999999999432
 30
0.0
 11
382.0
 21
158.4999999999999432
 31
0.0
  0
LINE
  5
F9
100
AcDbEntity
  8
Plankopf Rahmen
 62
256
370
-1
 48
1.0
  6
ByLayer
100
AcDbLine
 10
396.0
 20
162.9999999999999432
 30
0.0
 11
382.0
 21
162.9999999999999432
 31
0.0
  0
LINE
  5
FA
100
AcDbEntity
  8
Plankopf Rahmen
 62
256
370
-1
 48
1.0
  6
ByLayer
100
AcDbLine
 10
259.5
 20
162.9999999999999432
 30
0.0
 11
259.5
 21
140.4999999999999432
 31
0.0
  0
LINE
  5
FB
100
AcDbEntity
  8
Plankopf Rahmen
 62
256
370
-1
 48
1.0
  6
ByLayer
100
AcDbLine
 10
382.0
 20
162.9999999999999432
 30
0.0
 11
382.0
 21
140.4999999999999432
 31
0.0
  0
LINE
  5
FC
100
AcDbEntity
  8
Plankopf Rahmen
 62
256
370
-1
 48
1.0
  6
ByLayer
100
AcDbLine
 10
382.0
 20
162.9999999999999432
 30
0.0
 11
259.5
 21
162.9999999999999432
 31
0.0
  0
LINE
  5
FD
100
AcDbEntity
  8
Plankopf Rahmen
 62
256
370
-1
 48
1.0
  6
ByLayer
100
AcDbLine
 10
382.0
 20
158.4999999999999432
 30
0.0
 11
259.5
 21
158.4999999999999432
 31
0.0
  0
LINE
  5
FE
100
AcDbEntity
  8
Plankopf Rahmen
 62
256
370
-1
 48
1.0
  6
ByLayer
100
AcDbLine
 10
382.0
 20
153.9999999999999432
 30
0.0
 11
259.5
 21
153.9999999999999432
 31
0.0
  0
LINE
  5
FF
100
AcDbEntity
  8
Plankopf Rahmen
 62
256
370
-1
 48
1.0
  6
ByLayer
100
AcDbLine
 10
382.0
 20
149.4999999999999432
 30
0.0
 11
259.5
 21
149.4999999999999432
 31
0.0
  0
LINE
  5
100
100
AcDbEntity
  8
Plankopf Rahmen
 62
256
370
-1
 48
1.0
  6
ByLayer
100
AcDbLine
 10
382.0
 20
144.9999999999999432
 30
0.0
 11
259.5
 21
144.9999999999999432
 31
0.0
  0
LINE
  5
101
100
AcDbEntity
  8
Plankopf Rahmen
 62
256
370
-1
 48
1.0
  6
ByLayer
100
AcDbLine
 10
410.0
 20
140.4999999999999432
 30
0.0
 11
396.0
 21
140.4999999999999432
 31
0.0
  0
LINE
  5
102
100
AcDbEntity
  8
Plankopf Rahmen
 62
256
370
-1
 48
1.0
  6
ByLayer
100
AcDbLine
 10
233.0
 20
131.9999999999999432
 30
0.0
 11
233.0
 21
140.4999999999999432
 31
0.0
  0
LINE
  5
103
100
AcDbEntity
  8
Plankopf Rahmen
 62
256
370
-1
 48
1.0
  6
ByLayer
100
AcDbLine
 10
233.0
 20
123.4999999999999432
 30
0.0
 11
233.0
 21
131.9999999999999432
 31
0.0
  0
LINE
  5
104
100
AcDbEntity
  8
Plankopf Rahmen
 62
256
370
-1
 48
1.0
  6
ByLayer
100
AcDbLine
 10
233.0
 20
114.9999999999999432
 30
0.0
 11
233.0
 21
123.4999999999999432
 31
0.0
  0
LINE
  5
105
100
AcDbEntity
  8
Plankopf Rahmen
 62
256
370
-1
 48
1.0
  6
ByLayer
100
AcDbLine
 10
233.0
 20
38.4999999999999503
 30
0.0
 11
233.0
 21
46.9999999999999503
 31
0.0
  0
LINE
  5
106
100
AcDbEntity
  8
Plankopf Rahmen
 62
256
370
-1
 48
1.0
  6
ByLayer
100
AcDbLine
 10
233.0
 20
55.4999999999999503
 30
0.0
 11
233.0
 21
63.9999999999999503
 31
0.0
  0
LINE
  5
107
100
AcDbEntity
  8
Plankopf Rahmen
 62
256
370
-1
 48
1.0
  6
ByLayer
100
AcDbLine
 10
233.0
 20
46.9999999999999503
 30
0.0
 11
233.0
 21
55.4999999999999503
 31
0.0
  0
LINE
  5
108
100
AcDbEntity
  8
Plankopf Rahmen
 62
256
370
-1
 48
1.0
  6
ByLayer
100
AcDbLine
 10
233.0
 20
80.9999999999999432
 30
0.0
 11
233.0
 21
89.4999999999999432
 31
0.0
  0
LINE
  5
109
100
AcDbEntity
  8
Plankopf Rahmen
 62
256
370
-1
 48
1.0
  6
ByLayer
100
AcDbLine
 10
233.0
 20
63.9999999999999503
 30
0.0
 11
233.0
 21
72.4999999999999432
 31
0.0
  0
LINE
  5
10A
100
AcDbEntity
  8
Plankopf Rahmen
 62
256
370
-1
 48
1.0
  6
ByLayer
100
AcDbLine
 10
233.0
 20
72.4999999999999432
 30
0.0
 11
233.0
 21
80.9999999999999432
 31
0.0
  0
LINE
  5
10B
100
AcDbEntity
  8
Plankopf Rahmen
 62
256
370
-1
 48
1.0
  6
ByLayer
100
AcDbLine
 10
233.0
 20
97.9999999999999432
 30
0.0
 11
233.0
 21
106.4999999999999432
 31
0.0
  0
LINE
  5
10C
100
AcDbEntity
  8
Plankopf Rahmen
 62
256
370
-1
 48
1.0
  6
ByLayer
100
AcDbLine
 10
233.0
 20
106.4999999999999432
 30
0.0
 11
233.0
 21
114.9999999999999432
 31
0.0
  0
LINE
  5
10D
100
AcDbEntity
  8
Plankopf Rahmen
 62
256
370
-1
 48
1.0
  6
ByLayer
100
AcDbLine
 10
233.0
 20
89.4999999999999432
 30
0.0
 11
233.0
 21
97.9999999999999432
 31
0.0
  0
LINE
  5
10E
100
AcDbEntity
  8
Plankopf Rahmen
 62
256
370
-1
 48
1.0
  6
ByLayer
100
AcDbLine
 10
410.0
 20
123.4999999999999432
 30
0.0
 11
410.0
 21
131.9999999999999432
 31
0.0
  0
LINE
  5
10F
100
AcDbEntity
  8
Plankopf Rahmen
 62
256
370
-1
 48
1.0
  6
ByLayer
100
AcDbLine
 10
410.0
 20
114.9999999999999432
 30
0.0
 11
410.0
 21
123.4999999999999432
 31
0.0
  0
LINE
  5
110
100
AcDbEntity
  8
Plankopf Rahmen
 62
256
370
-1
 48
1.0
  6
ByLayer
100
AcDbLine
 10
410.0
 20
131.9999999999999432
 30
0.0
 11
410.0
 21
140.4999999999999432
 31
0.0
  0
LINE
  5
111
100
AcDbEntity
  8
Plankopf Rahmen
 62
256
370
-1
 48
1.0
  6
ByLayer
100
AcDbLine
 10
410.0
 20
55.4999999999999503
 30
0.0
 11
410.0
 21
63.9999999999999503
 31
0.0
  0
LINE
  5
112
100
AcDbEntity
  8
Plankopf Rahmen
 62
256
370
-1
 48
1.0
  6
ByLayer
100
AcDbLine
 10
410.0
 20
63.9999999999999503
 30
0.0
 11
410.0
 21
72.4999999999999432
 31
0.0
  0
LINE
  5
113
100
AcDbEntity
  8
Plankopf Rahmen
 62
256
370
-1
 48
1.0
  6
ByLayer
100
AcDbLine
 10
410.0
 20
46.9999999999999503
 30
0.0
 11
410.0
 21
55.4999999999999503
 31
0.0
  0
LINE
  5
114
100
AcDbEntity
  8
Plankopf Rahmen
 62
256
370
-1
 48
1.0
  6
ByLayer
100
AcDbLine
 10
410.0
 20
80.9999999999999432
 30
0.0
 11
410.0
 21
89.4999999999999432
 31
0.0
  0
LINE
  5
115
100
AcDbEntity
  8
Plankopf Rahmen
 62
256
370
-1
 48
1.0
  6
ByLayer
100
AcDbLine
 10
410.0
 20
72.4999999999999432
 30
0.0
 11
410.0
 21
80.9999999999999432
 31
0.0
  0
LINE
  5
116
100
AcDbEntity
  8
Plankopf Rahmen
 62
256
370
-1
 48
1.0
  6
ByLayer
100
AcDbLine
 10
410.0
 20
106.4999999999999432
 30
0.0
 11
410.0
 21
114.9999999999999432
 31
0.0
  0
LINE
  5
117
100
AcDbEntity
  8
Plankopf Rahmen
 62
256
370
-1
 48
1.0
  6
ByLayer
100
AcDbLine
 10
410.0
 20
89.4999999999999432
 30
0.0
 11
410.0
 21
97.9999999999999432
 31
0.0
  0
LINE
  5
118
100
AcDbEntity
  8
Plankopf Rahmen
 62
256
370
-1
 48
1.0
  6
ByLayer
100
AcDbLine
 10
410.0
 20
97.9999999999999432
 30
0.0
 11
410.0
 21
106.4999999999999432
 31
0.0
  0
LINE
  5
119
100
AcDbEntity
  8
Plankopf Rahmen
 62
256
370
-1
 48
1.0
  6
ByLayer
100
AcDbLine
 10
233.0
 20
55.4999999999999503
 30
0.0
 11
410.0
 21
55.4999999999999503
 31
0.0
  0
LINE
  5
11A
100
AcDbEntity
  8
Plankopf Rahmen
 62
256
370
-1
 48
1.0
  6
ByLayer
100
AcDbLine
 10
233.0
 20
63.9999999999999503
 30
0.0
 11
410.0
 21
63.9999999999999503
 31
0.0
  0
LINE
  5
11B
100
AcDbEntity
  8
Plankopf Rahmen
 62
256
370
-1
 48
1.0
  6
ByLayer
100
AcDbLine
 10
233.0
 20
46.9999999999999503
 30
0.0
 11
410.0
 21
46.9999999999999503
 31
0.0
  0
LINE
  5
11C
100
AcDbEntity
  8
Plankopf Rahmen
 62
256
370
-1
 48
1.0
  6
ByLayer
100
AcDbLine
 10
233.0
 20
80.9999999999999432
 30
0.0
 11
410.0
 21
80.9999999999999432
 31
0.0
  0
LINE
  5
11D
100
AcDbEntity
  8
Plankopf Rahmen
 62
256
370
-1
 48
1.0
  6
ByLayer
100
AcDbLine
 10
233.0
 20
89.4999999999999432
 30
0.0
 11
410.0
 21
89.4999999999999432
 31
0.0
  0
LINE
  5
11E
100
AcDbEntity
  8
Plankopf Rahmen
 62
256
370
-1
 48
1.0
  6
ByLayer
100
AcDbLine
 10
233.0
 20
72.4999999999999432
 30
0.0
 11
410.0
 21
72.4999999999999432
 31
0.0
  0
LINE
  5
11F
100
AcDbEntity
  8
Plankopf Rahmen
 62
256
370
-1
 48
1.0
  6
ByLayer
100
AcDbLine
 10
233.0
 20
106.4999999999999432
 30
0.0
 11
410.0
 21
106.4999999999999432
 31
0.0
  0
LINE
  5
120
100
AcDbEntity
  8
Plankopf Rahmen
 62
256
370
-1
 48
1.0
  6
ByLayer
100
AcDbLine
 10
233.0
 20
97.9999999999999432
 30
0.0
 11
410.0
 21
97.9999999999999432
 31
0.0
  0
LINE
  5
121
100
AcDbEntity
  8
Plankopf Rahmen
 62
256
370
-1
 48
1.0
  6
ByLayer
100
AcDbLine
 10
233.0
 20
38.4999999999999503
 30
0.0
 11
292.0
 21
38.4999999999999503
 31
0.0
  0
LINE
  5
122
100
AcDbEntity
  8
Plankopf Rahmen
 62
256
370
-1
 48
1.0
  6
ByLayer
100
AcDbLine
 10
292.0
 20
38.4999999999999503
 30
0.0
 11
351.0
 21
38.4999999999999503
 31
0.0
  0
LINE
  5
123
100
AcDbEntity
  8
Plankopf Rahmen
 62
256
370
-1
 48
1.0
  6
ByLayer
100
AcDbLine
 10
351.0
 20
38.4999999999999503
 30
0.0
 11
410.0
 21
38.4999999999999503
 31
0.0
  0
LINE
  5
124
100
AcDbEntity
  8
Plankopf Rahmen
 62
256
370
-1
 48
1.0
  6
ByLayer
100
AcDbLine
 10
233.0
 20
9.9999999999999485
 30
0.0
 11
410.0
 21
9.9999999999999485
 31
0.0
  0
LINE
  5
125
100
AcDbEntity
  8
Plankopf Rahmen
 62
256
370
-1
 48
1.0
  6
ByLayer
100
AcDbLine
 10
410.0
 20
9.9999999999999485
 30
0.0
 11
410.0
 21
46.9999999999999503
 31
0.0
  0
LINE
  5
126
100
AcDbEntity
  8
Plankopf Rahmen
 62
256
370
-1
 48
1.0
  6
ByLayer
100
AcDbLine
 10
302.426524194049307
 20
38.5352971131147441
 30
0.0
 11
302.426524194049307
 21
81.035297113114737
 31
0.0
  0
HATCH
  5
127
100
AcDbEntity
  8
Logo_b
 62
256
370
-1
 48
1.0
  6
ByLayer
100
AcDbHatch
 10
0.0
 20
0.0
 30
0.0
210
0.0
220
0.0
230
1.0
  2
SOLID
 70
1
 71
0
 91
2
 92
1
 93
1
 72
3
 10
258.2910688847180154
 20
26.805741375891138
 11
15.0000000000000036
 21
0.0
 40
0.4999999999999999
 50
0.0
 51
360.0
 73
1
 97
0
 92
1
 93
1
 72
3
 10
258.2910688847180154
 20
26.805741375891138
 11
11.25
 21
0.0
 40
0.6666666666666666
 50
0.0
 51
360.0
 73
1
 97
0
 75
0
 76
1
 98
0
1001
ACAD
1010
0.0
1020
0.0
1030
0
  0
HATCH
  5
128
100
AcDbEntity
  8
Logo_a
 62
256
370
-1
 48
1.0
  6
ByLayer
100
AcDbHatch
 10
0.0
 20
0.0
 30
0.0
210
0.0
220
0.0
230
1.0
  2
SOLID
 70
1
 71
0
 91
2
 92
1
 93
1
 72
3
 10
258.2910688847180154
 20
26.805741375891138
 11
18.7499999999999929
 21
0.0
 40
0.4000000000000002
 50
0.0
 51
360.0
 73
1
 97
0
 92
1
 93
1
 72
3
 10
258.2910688847180154
 20
26.805741375891138
 11
15.0000000000000036
 21
0.0
 40
0.4999999999999999
 50
0.0
 51
360.0
 73
1
 97
0
 75
0
 76
1
 98
0
1001
ACAD
1010
0.0
1020
0.0
1030
0
  0
HATCH
  5
129
100
AcDbEntity
  8
Logo_c
 62
256
370
-1
 48
1.0
  6
ByLayer
100
AcDbHatch
 10
0.0
 20
0.0
 30
0.0
210
0.0
220
0.0
230
1.0
  2
SOLID
 70
1
 71
0
 91
2
 92
1
 93
1
 72
3
 10
258.2910688847180154
 20
26.805741375891138
 11
18.7499999999999929
 21
0.0
 40
0.4000000000000002
 50
0.0
 51
360.0
 73
1
 97
0
 92
1
 93
1
 72
3
 10
258.2910688847180154
 20
26.805741375891138
 11
22.4999999999999929
 21
0.0
 40
0.3333333333333334
 50
0.0
 51
360.0
 73
1
 97
0
 75
0
 76
1
 98
0
1001
ACAD
1010
0.0
1020
0.0
1030
0
  0
MTEXT
  5
12A
100
AcDbEntity
  8
Logo
 62
256
370
-1
 48
1.0
  6
ByLayer
100
AcDbMText
 10
301.0248425552553044
 20
15.8861859696297092
 30
0.0
 40
7.5
 41
0.0
 71
5
 72
1
  1
CAD\P
  7
textstyle10
 50
0.0
 73
2
 44
1.0
  0
MTEXT
  5
12B
100
AcDbEntity
  8
Logo Text
 62
256
370
-1
 48
1.0
  6
ByLayer
100
AcDbMText
 10
301.3374148934193499
 20
15.7961005569878044
 30
0.0
 40
7.5
 41
0.0
 71
5
 72
1
  1
CAD\P
  7
textstyle9
 50
0.0
 73
2
 44
1.0
  0
MTEXT
  5
12C
100
AcDbEntity
  8
Logo
 62
256
370
-1
 48
1.0
  6
ByLayer
100
AcDbMText
 10
293.1417542833536345
 20
27.2162122381343892
 30
0.0
 40
4.5
 41
0.0
 71
5
 72
1
  1
DL3DL\P
  7
textstyle8
 50
0.0
 73
2
 44
1.0
  0
MTEXT
  5
12D
100
AcDbEntity
  8
Logo Text
 62
256
370
-1
 48
1.0
  6
ByLayer
100
AcDbMText
 10
293.2380790724311055
 20
26.941326099053498
 30
0.0
 40
4.5
 41
0.0
 71
5
 72
1
  1
DL3DL\P
  7
textstyle11
 50
0.0
 73
2
 44
1.0
  0
SPLINE
  5
12E
100
AcDbEntity
  8
pfoenix
 62
256
370
-1
 48
1.0
  6
ByLayer
100
AcDbSpline
 70
8
 71
3
 72
8
 73
4
 74
0
 40
0.0
 40
0.0
 40
0.0
 40
0.0
 40
1.0
 40
1.0
 40
1.0
 40
1.0
 10
253.9060946758152113
 20
29.39499332353315
 30
0.0
 10
251.8270946758151467
 20
27.419943323533154
 30
0.0
 10
252.8313610166826493
 20
24.106547186183171
 30
0.0
 10
253.282394675815226
 20
23.8856433235331522
 30
0.0
  0
SPLINE
  5
12F
100
AcDbEntity
  8
pfoenix
 62
256
370
-1
 48
1.0
  6
ByLayer
100
AcDbSpline
 70
8
 71
3
 72
8
 73
4
 74
0
 40
0.0
 40
0.0
 40
0.0
 40
0.0
 40
1.0
 40
1.0
 40
1.0
 40
1.0
 10
253.9060946758152113
 20
29.39499332353315
 30
0.0
 10
252.1389446758150825
 20
27.3159933235331991
 30
0.0
 10
253.1432110166826988
 20
24.0025971861831735
 30
0.0
 10
253.282394675815226
 20
23.8856433235331522
 30
0.0
  0
HATCH
  5
130
100
AcDbEntity
  8
pfoenix
 62
256
370
-1
 48
1.0
  6
ByLayer
100
AcDbHatch
 10
0.0
 20
0.0
 30
0.0
210
0.0
220
0.0
230
1.0
  2
SOLID
 70
1
 71
0
 91
1
 92
1
 93
2
 72
4
 94
3
 73
0
 74
0
 95
8
 96
4
 40
0.0
 40
0.0
 40
0.0
 40
0.0
 40
1.0
 40
1.0
 40
1.0
 40
1.0
 10
253.9060946758152113
 20
29.39499332353315
 10
251.8270946758151467
 20
27.419943323533154
 10
252.8313610166826493
 20
24.106547186183171
 10
253.282394675815226
 20
23.8856433235331522
 72
4
 94
3
 73
0
 74
0
 95
8
 96
4
 40
0.0
 40
0.0
 40
0.0
 40
0.0
 40
1.0
 40
1.0
 40
1.0
 40
1.0
 10
253.282394675815226
 20
23.8856433235331522
 10
253.1432110166826988
 20
24.0025971861831735
 10
252.1389446758150825
 20
27.3159933235331991
 10
253.9060946758152113
 20
29.39499332353315
 97
0
 75
0
 76
1
 98
0
1001
ACAD
1010
0.0
1020
0.0
1030
0
  0
SPLINE
  5
131
100
AcDbEntity
  8
pfoenix
 62
256
370
-1
 48
1.0
  6
ByLayer
100
AcDbSpline
 70
8
 71
3
 72
8
 73
4
 74
0
 40
0.0
 40
0.0
 40
0.0
 40
0.0
 40
1.0
 40
1.0
 40
1.0
 40
1.0
 10
258.6724434692179102
 20
32.5967463370565369
 30
0.0
 10
254.4613282415056119
 20
32.5807703868911105
 30
0.0
 10
253.9929424298355798
 20
28.7015192148891956
 30
0.0
 10
253.9530025544219143
 20
28.4597014237478234
 30
0.0
  0
SPLINE
  5
132
100
AcDbEntity
  8
pfoenix
 62
256
370
-1
 48
1.0
  6
ByLayer
100
AcDbSpline
 70
8
 71
3
 72
8
 73
4
 74
0
 40
0.0
 40
0.0
 40
0.0
 40
0.0
 40
1.0
 40
1.0
 40
1.0
 40
1.0
 10
258.6724434692179102
 20
32.5967463370565369
 30
0.0
 10
255.223816772131272
 20
31.7638183897922559
 30
0.0
 10
253.9530025544219143
 20
28.4597014237478234
 30
0.0
 10
253.9530025544219143
 20
28.4597014237478234
 30
0.0
  0
HATCH
  5
133
100
AcDbEntity
  8
pfoenix
 62
256
370
-1
 48
1.0
  6
ByLayer
100
AcDbHatch
 10
0.0
 20
0.0
 30
0.0
210
0.0
220
0.0
230
1.0
  2
SOLID
 70
1
 71
0
 91
1
 92
1
 93
2
 72
4
 94
3
 73
0
 74
0
 95
8
 96
4
 40
0.0
 40
0.0
 40
0.0
 40
0.0
 40
1.0
 40
1.0
 40
1.0
 40
1.0
 10
258.6724434692179102
 20
32.5967463370565369
 10
255.223816772131272
 20
31.7638183897922559
 10
253.9530025544219143
 20
28.4597014237478234
 10
253.9530025544219143
 20
28.4597014237478234
 72
4
 94
3
 73
0
 74
0
 95
8
 96
4
 40
0.0
 40
0.0
 40
0.0
 40
0.0
 40
1.0
 40
1.0
 40
1.0
 40
1.0
 10
253.9530025544219143
 20
28.4597014237478234
 10
253.9929424298355798
 20
28.7015192148891956
 10
254.4613282415056119
 20
32.5807703868911105
 10
258.6724434692179102
 20
32.5967463370565369
 97
0
 75
0
 76
1
 98
0
1001
ACAD
1010
0.0
1020
0.0
1030
0
  0
SPLINE
  5
134
100
AcDbEntity
  8
pfoenix
 62
256
370
-1
 48
1.0
  6
ByLayer
100
AcDbSpline
 70
8
 71
3
 72
13
 73
9
 74
0
 40
0.0
 40
0.0
 40
0.0
 40
0.0
 40
1.0
 40
2.0
 40
3.0
 40
4.0
 40
5.0
 40
6.0
 40
6.0
 40
6.0
 40
6.0
 10
253.6625307332312786
 20
27.3159686278094611
 30
0.0
 10
253.7896121550021462
 20
22.4142566452162697
 30
0.0
 10
258.0559170287407369
 20
20.7258891845452737
 30
0.0
 10
258.0559170287407369
 20
20.7258891845452737
 30
0.0
 10
258.0559170287407369
 20
20.7258891845452737
 30
0.0
 10
253.2631319790939415
 20
21.9059309581325437
 30
0.0
 10
253.6988397108800655
 20
27.2615051613361956
 30
0.0
 10
253.6988397108800655
 20
27.2615051613361956
 30
0.0
 10
253.6625307332312786
 20
27.3159686278094611
 30
0.0
  0
HATCH
  5
135
100
AcDbEntity
  8
pfoenix
 62
256
370
-1
 48
1.0
  6
ByLayer
100
AcDbHatch
 10
0.0
 20
0.0
 30
0.0
210
0.0
220
0.0
230
1.0
  2
SOLID
 70
1
 71
0
 91
1
 92
1
 93
1
 72
4
 94
3
 73
0
 74
0
 95
13
 96
9
 40
0.0
 40
0.0
 40
0.0
 40
0.0
 40
1.0
 40
2.0
 40
3.0
 40
4.0
 40
5.0
 40
6.0
 40
6.0
 40
6.0
 40
6.0
 10
253.6625307332312786
 20
27.3159686278094611
 10
253.7896121550021462
 20
22.4142566452162697
 10
258.0559170287407369
 20
20.7258891845452737
 10
258.0559170287407369
 20
20.7258891845452737
 10
258.0559170287407369
 20
20.7258891845452737
 10
253.2631319790939415
 20
21.9059309581325437
 10
253.6988397108800655
 20
27.2615051613361956
 10
253.6988397108800655
 20
27.2615051613361956
 10
253.6625307332312786
 20
27.3159686278094611
 97
0
 75
0
 76
1
 98
0
1001
ACAD
1010
0.0
1020
0.0
1030
0
  0
MTEXT
  5
136
100
AcDbEntity
  8
Plankopf Text Vorgabe
 62
256
370
-1
 48
1.0
  6
ByLayer
100
AcDbMText
 10
247.25
 20
142.7499999999995453
 30
0.0
 40
2.0
 41
0.0
 71
4
 72
1
  1
Dat.
  7
textstyle7
 50
0.0
 73
2
 44
1.0
  0
MTEXT
  5
137
100
AcDbEntity
  8
Plankopf Text Vorgabe
 62
256
370
-1
 48
1.0
  6
ByLayer
100
AcDbMText
 10
260.5
 20
142.7499999999996305
 30
0.0
 40
2.0
 41
0.0
 71
4
 72
1
  1
Aenderung/Grund
  7
textstyle6
 50
0.0
 73
2
 44
1.0
  0
MTEXT
  5
138
100
AcDbEntity
  8
Plankopf Text Vorgabe
 62
256
370
-1
 48
1.0
  6
ByLayer
100
AcDbMText
 10
234.0
 20
142.7499999999999147
 30
0.0
 40
2.0
 41
0.0
 71
4
 72
1
  1
Ind.
  7
textstyle5
 50
0.0
 73
2
 44
1.0
  0
MTEXT
  5
139
100
AcDbEntity
  8
Plankopf Text Vorgabe
 62
256
370
-1
 48
1.0
  6
ByLayer
100
AcDbMText
 10
396.25
 20
142.7499999999994031
 30
0.0
 40
2.0
 41
0.0
 71
4
 72
1
  1
Gepr.
  7
textstyle2
 50
0.0
 73
2
 44
1.0
  0
MTEXT
  5
13A
100
AcDbEntity
  8
Plankopf Text Vorgabe
 62
256
370
-1
 48
1.0
  6
ByLayer
100
AcDbMText
 10
383.0
 20
142.7499999999993747
 30
0.0
 40
2.0
 41
0.0
 71
4
 72
1
  1
Gez.
  7
textstyle1
 50
0.0
 73
2
 44
1.0
  0
SPLINE
  5
13B
100
AcDbEntity
  8
pfoenix
 62
256
370
-1
 48
1.0
  6
ByLayer
100
AcDbSpline
 70
8
 71
3
 72
13
 73
9
 74
0
 40
0.0
 40
0.0
 40
0.0
 40
0.0
 40
1.0
 40
2.0
 40
3.0
 40
4.0
 40
5.0
 40
6.0
 40
6.0
 40
6.0
 40
6.0
 10
256.5646868537127148
 20
31.6650819117393425
 30
0.0
 10
253.9909920139087944
 20
26.6520936219199243
 30
0.0
 10
256.391983675900974
 20
21.4346145637072709
 30
0.0
 10
256.3795530606951161
 20
21.4120474870381869
 30
0.0
 10
256.3795530606951161
 20
21.4120474870381869
 30
0.0
 10
252.6619720368513526
 20
26.725582703785868
 30
0.0
 10
256.5654672779515977
 20
31.6638115300080116
 30
0.0
 10
256.5646868537127148
 20
31.6650819117393425
 30
0.0
 10
256.5646868537127148
 20
31.6650819117393425
 30
0.0
  0
MTEXT
  5
13C
100
AcDbEntity
  8
Plankopf Text Vorgabe
 62
256
370
-1
 48
1.0
  6
ByLayer
100
AcDbMText
 10
234.5
 20
136.2499999999999432
 30
0.0
 40
3.0
 41
0.0
 71
4
 72
1
  1
\H1.8;Auftraggeber:
  7
textstyle0
 50
0.0
 73
2
 44
1.0
  0
HATCH
  5
13D
100
AcDbEntity
  8
pfoenix
 62
256
370
-1
 48
1.0
  6
ByLayer
100
AcDbHatch
 10
0.0
 20
0.0
 30
0.0
210
0.0
220
0.0
230
1.0
  2
SOLID
 70
1
 71
0
 91
1
 92
1
 93
1
 72
4
 94
3
 73
0
 74
0
 95
13
 96
9
 40
0.0
 40
0.0
 40
0.0
 40
0.0
 40
1.0
 40
2.0
 40
3.0
 40
4.0
 40
5.0
 40
6.0
 40
6.0
 40
6.0
 40
6.0
 10
256.5646868537127148
 20
31.6650819117393425
 10
253.9909920139087944
 20
26.6520936219199243
 10
256.391983675900974
 20
21.4346145637072709
 10
256.3795530606951161
 20
21.4120474870381869
 10
256.3795530606951161
 20
21.4120474870381869
 10
252.6619720368513526
 20
26.725582703785868
 10
256.5654672779515977
 20
31.6638115300080116
 10
256.5646868537127148
 20
31.6650819117393425
 10
256.5646868537127148
 20
31.6650819117393425
 97
0
 75
0
 76
1
 98
0
1001
ACAD
1010
0.0
1020
0.0
1030
0
  0
MTEXT
  5
13E
100
AcDbEntity
  8
Plankopf Text Vorgabe
 62
256
370
-1
 48
1.0
  6
ByLayer
100
AcDbMText
 10
234.5
 20
93.7499999999994884
 30
0.0
 40
3.0
 41
0.0
 71
4
 72
1
  1
\H1.8;Bezeichnung:
  7
textstyle4
 50
0.0
 73
2
 44
1.0
  0
SPLINE
  5
13F
100
AcDbEntity
  8
pfoenix
 62
256
370
-1
 48
1.0
  6
ByLayer
100
AcDbSpline
 70
8
 71
3
 72
9
 73
5
 74
0
 40
0.0
 40
0.0
 40
0.0
 40
0.0
 40
1.0
 40
2.0
 40
2.0
 40
2.0
 40
2.0
 10
257.3364446758150734
 20
31.5779433235330984
 30
0.0
 10
252.1389446758150825
 20
27.419943323533154
 30
0.0
 10
257.1534897395221151
 20
21.6574960650297186
 30
0.0
 10
257.2342640241147365
 20
21.7089501853049356
 30
0.0
 10
257.2342640241147365
 20
21.7089501853049356
 30
0.0
  0
MTEXT
  5
140
100
AcDbEntity
  8
Plankopf Text Vorgabe
 62
256
370
-1
 48
1.0
  6
ByLayer
100
AcDbMText
 10
234.5
 20
102.2499999999996447
 30
0.0
 40
3.0
 41
0.0
 71
4
 72
1
  1
\H1.8;Projekt:
  7
textstyle3
 50
0.0
 73
2
 44
1.0
  0
MTEXT
  5
141
100
AcDbEntity
  8
Plankopf Text Vorgabe
 62
256
370
-1
 48
1.0
  6
ByLayer
100
AcDbMText
 10
234.5
 20
85.2499999999998863
 30
0.0
 40
3.0
 41
0.0
 71
4
 72
1
  1
\H1.8;Zeichnung Nr:
  7
textstyle24
 50
0.0
 73
2
 44
1.0
  0
MTEXT
  5
142
100
AcDbEntity
  8
Plankopf Text Vorgabe
 62
256
370
-1
 48
1.0
  6
ByLayer
100
AcDbMText
 10
304.7987572864092272
 20
76.7639202863514498
 30
0.0
 40
3.0
 41
0.0
 71
4
 72
1
  1
\H1.8;Dateiname:
  7
textstyle23
 50
0.0
 73
2
 44
1.0
  0
SPLINE
  5
143
100
AcDbEntity
  8
pfoenix
 62
256
370
-1
 48
1.0
  6
ByLayer
100
AcDbSpline
 70
8
 71
3
 72
11
 73
7
 74
0
 40
0.0
 40
0.0
 40
0.0
 40
0.0
 40
1.0
 40
2.0
 40
3.0
 40
4.0
 40
4.0
 40
4.0
 40
4.0
 10
257.3364446758150734
 20
31.5779433235330984
 30
0.0
 10
255.05271751444252
 20
28.6097736976644157
 30
0.0
 10
256.72318263196712
 20
25.815159098535041
 30
0.0
 10
256.72318263196712
 20
25.815159098535041
 30
0.0
 10
256.72318263196712
 20
25.815159098535041
 30
0.0
 10
256.72318263196712
 20
25.815159098535041
 30
0.0
 10
256.72318263196712
 20
25.815159098535041
 30
0.0
  0
MTEXT
  5
144
100
AcDbEntity
  8
Plankopf Text Vorgabe
 62
256
370
-1
 48
1.0
  6
ByLayer
100
AcDbMText
 10
234.5
 20
76.7500000000003695
 30
0.0
 40
3.0
 41
0.0
 71
4
 72
1
  1
\H1.8;Gezeichnet:
  7
textstyle22
 50
0.0
 73
2
 44
1.0
  0
MTEXT
  5
145
100
AcDbEntity
  8
Plankopf Text Vorgabe
 62
256
370
-1
 48
1.0
  6
ByLayer
100
AcDbMText
 10
304.7987572864092272
 20
68.2639202863517767
 30
0.0
 40
3.0
 41
0.0
 71
4
 72
1
  1
\H1.8;Blattformat:
  7
textstyle28
 50
0.0
 73
2
 44
1.0
  0
MTEXT
  5
146
100
AcDbEntity
  8
Plankopf Text Vorgabe
 62
256
370
-1
 48
1.0
  6
ByLayer
100
AcDbMText
 10
234.5
 20
68.2500000000003837
 30
0.0
 40
3.0
 41
0.0
 71
4
 72
1
  1
\H1.8;Verantwortl:
  7
textstyle27
 50
0.0
 73
2
 44
1.0
  0
MTEXT
  5
147
100
AcDbEntity
  8
Plankopf Text Vorgabe
 62
256
370
-1
 48
1.0
  6
ByLayer
100
AcDbMText
 10
304.7987572864092272
 20
59.7639202863509666
 30
0.0
 40
3.0
 41
0.0
 71
4
 72
1
  1
\H1.8;Norm:
  7
textstyle26
 50
0.0
 73
2
 44
1.0
  0
MTEXT
  5
148
100
AcDbEntity
  8
Plankopf Text Vorgabe
 62
256
370
-1
 48
1.0
  6
ByLayer
100
AcDbMText
 10
304.7987572864092272
 20
51.2639202863516061
 30
0.0
 40
3.0
 41
0.0
 71
4
 72
1
  1
\H1.8;Maszstab:
  7
textstyle25
 50
0.0
 73
2
 44
1.0
  0
MTEXT
  5
149
100
AcDbEntity
  8
Plankopf Text Vorgabe
 62
256
370
-1
 48
1.0
  6
ByLayer
100
AcDbMText
 10
234.5
 20
51.249999999999126
 30
0.0
 40
3.0
 41
0.0
 71
4
 72
1
  1
\H1.8;Freigegeben:
  7
textstyle21
 50
0.0
 73
2
 44
1.0
  0
SPLINE
  5
14A
100
AcDbEntity
  8
pfoenix
 62
256
370
-1
 48
1.0
  6
ByLayer
100
AcDbSpline
 70
8
 71
3
 72
53
 73
49
 74
0
 40
0.0
 40
0.0
 40
0.0
 40
0.0
 40
1.0
 40
2.0
 40
3.0
 40
4.0
 40
5.0
 40
6.0
 40
7.0
 40
8.0
 40
9.0
 40
10.0
 40
11.0
 40
12.0
 40
13.0
 40
14.0
 40
15.0
 40
16.0
 40
17.0
 40
18.0
 40
19.0
 40
20.0
 40
21.0
 40
22.0
 40
23.0
 40
24.0
 40
25.0
 40
26.0
 40
27.0
 40
28.0
 40
29.0
 40
30.0
 40
31.0
 40
32.0
 40
33.0
 40
34.0
 40
35.0
 40
36.0
 40
37.0
 40
38.0
 40
39.0
 40
40.0
 40
41.0
 40
42.0
 40
43.0
 40
44.0
 40
45.0
 40
46.0
 40
46.0
 40
46.0
 40
46.0
 10
256.72318263196712
 20
25.815159098535041
 30
0.0
 10
257.2484861280440782
 20
25.4894709309673928
 30
0.0
 10
256.8807736807902984
 20
24.8801188755181428
 30
0.0
 10
256.8807736807902984
 20
24.8801188755181428
 30
0.0
 10
256.8807736807902984
 20
24.8801188755181428
 30
0.0
 10
257.0068465198487502
 20
24.5649367778719423
 30
0.0
 10
257.8263199737288005
 20
24.5544307079504094
 30
0.0
 10
257.700247134670235
 20
25.3108677423012054
 30
0.0
 10
257.5426560858471703
 20
25.815159098535041
 30
0.0
 10
256.8702676108687228
 20
26.4875475735135737
 30
0.0
 10
256.334458044870189
 20
26.9393085801397447
 30
0.0
 10
256.1348427163609358
 20
27.5486606355890373
 30
0.0
 10
256.534073373379556
 20
28.1790248308812679
 30
0.0
 10
257.1854497085148523
 20
28.5992676277428828
 30
0.0
 10
257.3010164776518423
 20
28.767364746487452
 30
0.0
 10
257.2064618483580034
 20
28.9879922148397711
 30
0.0
 10
256.8387494011041099
 20
28.9774861449183234
 30
0.0
 10
256.502555163614943
 20
28.8934375855459749
 30
0.0
 10
256.2293973456548883
 20
29.0405225644474783
 30
0.0
 10
256.2969446758152117
 20
29.4989433235331475
 30
0.0
 10
256.72318263196712
 20
29.712911039426011
 30
0.0
 10
256.7336887018886955
 20
29.7339231792691194
 30
0.0
 10
256.7336887018886955
 20
29.712911039426011
 30
0.0
 10
256.6181219327517056
 20
29.5238017808382907
 30
0.0
 10
256.4290126741641416
 20
29.3767168019367872
 30
0.0
 10
256.5866037229870926
 20
29.2401378929567741
 30
0.0
 10
257.0803890092995516
 20
29.3767168019367872
 30
0.0
 10
257.6687289249057358
 20
29.6918988995829025
 30
0.0
 10
258.7193359170595386
 20
29.9125263679352642
 30
0.0
 10
259.0975544342350076
 20
29.8705020882491752
 30
0.0
 10
259.1500847838425443
 20
29.7654413890337182
 30
0.0
 10
259.202615133450422
 20
29.4292471515444518
 30
0.0
 10
259.0765422943918566
 20
29.1560893335844682
 30
0.0
 10
259.591339720547353
 20
29.2086196831921754
 30
0.0
 10
259.9485460978795572
 20
29.0510286343690112
 30
0.0
 10
260.2427160556826493
 20
28.7463526066443436
 30
0.0
 10
260.1796796361534234
 20
28.2525673203320835
 30
0.0
 10
259.832979328742681
 20
27.811312383627488
 30
0.0
 10
259.6964004197626537
 20
27.7062516844121163
 30
0.0
 10
259.6964004197626537
 20
27.7062516844121163
 30
0.0
 10
259.6543761400765788
 20
27.9583973625289914
 30
0.0
 10
259.5703275807042019
 20
28.2315551804889751
 30
0.0
 10
259.2656515529795342
 20
28.2945916000183004
 30
0.0
 10
258.8349026861965285
 20
28.2210491105674848
 30
0.0
 10
258.6457934276087371
 20
27.811312383627488
 30
0.0
 10
258.6668055674518882
 20
27.2965149574720769
 30
0.0
 10
259.0450240846272436
 20
27.1389239086489553
 30
0.0
 10
259.8119671888996436
 20
26.8762721606105046
 30
0.0
 10
260.1796796361534234
 20
26.4034990141412251
 30
0.0
  0
MTEXT
  5
14B
100
AcDbEntity
  8
Plankopf Text Vorgabe
 62
256
370
-1
 48
1.0
  6
ByLayer
100
AcDbMText
 10
234.5
 20
59.749999999999531
 30
0.0
 40
3.0
 41
0.0
 71
4
 72
1
  1
\H1.8;Geprueft:
  7
textstyle20
 50
0.0
 73
2
 44
1.0
  0
MTEXT
  5
14C
100
AcDbEntity
  8
Plankopf Text Vorgabe
 62
256
370
-1
 48
1.0
  6
ByLayer
100
AcDbMText
 10
234.5
 20
42.7500000000005542
 30
0.0
 40
3.0
 41
0.0
 71
4
 72
1
  1
\H1.8;Datum:
  7
textstyle19
 50
0.0
 73
2
 44
1.0
  0
SPLINE
  5
14D
100
AcDbEntity
  8
pfoenix
 62
256
370
-1
 48
1.0
  6
ByLayer
100
AcDbSpline
 70
8
 71
3
 72
25
 73
21
 74
0
 40
0.0
 40
0.0
 40
0.0
 40
0.0
 40
1.0
 40
2.0
 40
3.0
 40
4.0
 40
5.0
 40
6.0
 40
7.0
 40
8.0
 40
9.0
 40
10.0
 40
11.0
 40
12.0
 40
13.0
 40
14.0
 40
15.0
 40
16.0
 40
17.0
 40
18.0
 40
18.0
 40
18.0
 40
18.0
 10
260.1796796361534234
 20
26.4034990141412251
 30
0.0
 10
260.5263799435642795
 20
25.8046530286135933
 30
0.0
 10
260.7680195517597213
 20
24.9536613649689585
 30
0.0
 10
260.6314406427796939
 20
24.1341879110888797
 30
0.0
 10
260.3372706849766018
 20
23.3882569466596166
 30
0.0
 10
260.0641128670165472
 20
22.9364959400334243
 30
0.0
 10
260.0641128670165472
 20
22.9364959400334243
 30
0.0
 10
260.9571288103473989
 20
23.4723055060319226
 30
0.0
 10
261.1987684185428407
 20
24.3863335892057549
 30
0.0
 10
261.1882623486212651
 20
25.0902402739488863
 30
0.0
 10
261.1042137892488881
 20
25.2793495325366067
 30
0.0
 10
261.3668655372873673
 20
24.8170824559889027
 30
0.0
 10
261.3983837470519802
 20
23.9871029321873337
 30
0.0
 10
261.2302866283073399
 20
23.4617994361104323
 30
0.0
 10
260.5053678037211284
 20
22.1275285560749211
 30
0.0
 10
259.748930769370304
 20
21.6337432697625971
 30
0.0
 10
258.8979391057257544
 20
21.4026097314887878
 30
0.0
 10
257.8788503233364509
 20
21.3921036615672548
 30
0.0
 10
257.2342640241147365
 20
21.7089501853049356
 30
0.0
 10
257.2342640241147365
 20
21.7089501853049356
 30
0.0
 10
257.2342640241147365
 20
21.7089501853049356
 30
0.0
  0
HATCH
  5
14E
100
AcDbEntity
  8
pfoenix
 62
256
370
-1
 48
1.0
  6
ByLayer
100
AcDbHatch
 10
0.0
 20
0.0
 30
0.0
210
0.0
220
0.0
230
1.0
  2
SOLID
 70
1
 71
0
 91
1
 92
1
 93
4
 72
4
 94
3
 73
0
 74
0
 95
53
 96
49
 40
0.0
 40
0.0
 40
0.0
 40
0.0
 40
1.0
 40
2.0
 40
3.0
 40
4.0
 40
5.0
 40
6.0
 40
7.0
 40
8.0
 40
9.0
 40
10.0
 40
11.0
 40
12.0
 40
13.0
 40
14.0
 40
15.0
 40
16.0
 40
17.0
 40
18.0
 40
19.0
 40
20.0
 40
21.0
 40
22.0
 40
23.0
 40
24.0
 40
25.0
 40
26.0
 40
27.0
 40
28.0
 40
29.0
 40
30.0
 40
31.0
 40
32.0
 40
33.0
 40
34.0
 40
35.0
 40
36.0
 40
37.0
 40
38.0
 40
39.0
 40
40.0
 40
41.0
 40
42.0
 40
43.0
 40
44.0
 40
45.0
 40
46.0
 40
46.0
 40
46.0
 40
46.0
 10
256.72318263196712
 20
25.815159098535041
 10
257.2484861280440782
 20
25.4894709309673928
 10
256.8807736807902984
 20
24.8801188755181428
 10
256.8807736807902984
 20
24.8801188755181428
 10
256.8807736807902984
 20
24.8801188755181428
 10
257.0068465198487502
 20
24.5649367778719423
 10
257.8263199737288005
 20
24.5544307079504094
 10
257.700247134670235
 20
25.3108677423012054
 10
257.5426560858471703
 20
25.815159098535041
 10
256.8702676108687228
 20
26.4875475735135737
 10
256.334458044870189
 20
26.9393085801397447
 10
256.1348427163609358
 20
27.5486606355890373
 10
256.534073373379556
 20
28.1790248308812679
 10
257.1854497085148523
 20
28.5992676277428828
 10
257.3010164776518423
 20
28.767364746487452
 10
257.2064618483580034
 20
28.9879922148397711
 10
256.8387494011041099
 20
28.9774861449183234
 10
256.502555163614943
 20
28.8934375855459749
 10
256.2293973456548883
 20
29.0405225644474783
 10
256.2969446758152117
 20
29.4989433235331475
 10
256.72318263196712
 20
29.712911039426011
 10
256.7336887018886955
 20
29.7339231792691194
 10
256.7336887018886955
 20
29.712911039426011
 10
256.6181219327517056
 20
29.5238017808382907
 10
256.4290126741641416
 20
29.3767168019367872
 10
256.5866037229870926
 20
29.2401378929567741
 10
257.0803890092995516
 20
29.3767168019367872
 10
257.6687289249057358
 20
29.6918988995829025
 10
258.7193359170595386
 20
29.9125263679352642
 10
259.0975544342350076
 20
29.8705020882491752
 10
259.1500847838425443
 20
29.7654413890337182
 10
259.202615133450422
 20
29.4292471515444518
 10
259.0765422943918566
 20
29.1560893335844682
 10
259.591339720547353
 20
29.2086196831921754
 10
259.9485460978795572
 20
29.0510286343690112
 10
260.2427160556826493
 20
28.7463526066443436
 10
260.1796796361534234
 20
28.2525673203320835
 10
259.832979328742681
 20
27.811312383627488
 10
259.6964004197626537
 20
27.7062516844121163
 10
259.6964004197626537
 20
27.7062516844121163
 10
259.6543761400765788
 20
27.9583973625289914
 10
259.5703275807042019
 20
28.2315551804889751
 10
259.2656515529795342
 20
28.2945916000183004
 10
258.8349026861965285
 20
28.2210491105674848
 10
258.6457934276087371
 20
27.811312383627488
 10
258.6668055674518882
 20
27.2965149574720769
 10
259.0450240846272436
 20
27.1389239086489553
 10
259.8119671888996436
 20
26.8762721606105046
 10
260.1796796361534234
 20
26.4034990141412251
 72
4
 94
3
 73
0
 74
0
 95
25
 96
21
 40
0.0
 40
0.0
 40
0.0
 40
0.0
 40
1.0
 40
2.0
 40
3.0
 40
4.0
 40
5.0
 40
6.0
 40
7.0
 40
8.0
 40
9.0
 40
10.0
 40
11.0
 40
12.0
 40
13.0
 40
14.0
 40
15.0
 40
16.0
 40
17.0
 40
18.0
 40
18.0
 40
18.0
 40
18.0
 10
260.1796796361534234
 20
26.4034990141412251
 10
260.5263799435642795
 20
25.8046530286135933
 10
260.7680195517597213
 20
24.9536613649689585
 10
260.6314406427796939
 20
24.1341879110888797
 10
260.3372706849766018
 20
23.3882569466596166
 10
260.0641128670165472
 20
22.9364959400334243
 10
260.0641128670165472
 20
22.9364959400334243
 10
260.9571288103473989
 20
23.4723055060319226
 10
261.1987684185428407
 20
24.3863335892057549
 10
261.1882623486212651
 20
25.0902402739488863
 10
261.1042137892488881
 20
25.2793495325366067
 10
261.3668655372873673
 20
24.8170824559889027
 10
261.3983837470519802
 20
23.9871029321873337
 10
261.2302866283073399
 20
23.4617994361104323
 10
260.5053678037211284
 20
22.1275285560749211
 10
259.748930769370304
 20
21.6337432697625971
 10
258.8979391057257544
 20
21.4026097314887878
 10
257.8788503233364509
 20
21.3921036615672548
 10
257.2342640241147365
 20
21.7089501853049356
 10
257.2342640241147365
 20
21.7089501853049356
 10
257.2342640241147365
 20
21.7089501853049356
 72
4
 94
3
 73
0
 74
0
 95
9
 96
5
 40
0.0
 40
0.0
 40
0.0
 40
0.0
 40
1.0
 40
2.0
 40
2.0
 40
2.0
 40
2.0
 10
257.2342640241147365
 20
21.7089501853049356
 10
257.2342640241147365
 20
21.7089501853049356
 10
257.1534897395221151
 20
21.6574960650297186
 10
252.1389446758150825
 20
27.419943323533154
 10
257.3364446758150734
 20
31.5779433235330984
 72
4
 94
3
 73
0
 74
0
 95
11
 96
7
 40
0.0
 40
0.0
 40
0.0
 40
0.0
 40
1.0
 40
2.0
 40
3.0
 40
4.0
 40
4.0
 40
4.0
 40
4.0
 10
257.3364446758150734
 20
31.5779433235330984
 10
255.05271751444252
 20
28.6097736976644157
 10
256.72318263196712
 20
25.815159098535041
 10
256.72318263196712
 20
25.815159098535041
 10
256.72318263196712
 20
25.815159098535041
 10
256.72318263196712
 20
25.815159098535041
 10
256.72318263196712
 20
25.815159098535041
 97
0
 75
0
 76
1
 98
0
1001
ACAD
1010
0.0
1020
0.0
1030
0
  0
SPLINE
  5
14F
100
AcDbEntity
  8
pfoenix
 62
256
370
-1
 48
1.0
  6
ByLayer
100
AcDbSpline
 70
8
 71
3
 72
18
 73
14
 74
0
 40
0.0
 40
0.0
 40
0.0
 40
0.0
 40
1.0
 40
2.0
 40
3.0
 40
4.0
 40
5.0
 40
6.0
 40
7.0
 40
8.0
 40
9.0
 40
10.0
 40
11.0
 40
11.0
 40
11.0
 40
11.0
 10
261.1619971738174399
 20
25.1707868100140288
 30
0.0
 10
261.4944446758152026
 20
25.3409433235331605
 30
0.0
 10
261.5602679962878483
 20
25.7015456179179935
 30
0.0
 10
261.5980898480053156
 20
26.7983793177266776
 30
0.0
 10
261.5350534284762034
 20
27.7817474623827891
 30
0.0
 10
261.5098388606644448
 20
28.3112533864282696
 30
0.0
 10
261.1694421952065568
 20
29.3702652345194437
 30
0.0
 10
260.967725652712943
 20
29.5089453574837464
 30
0.0
 10
261.5602679962878483
 20
28.7525083231329504
 30
0.0
 10
261.749377254875526
 20
28.2356096829932497
 30
0.0
 10
261.9510937973690261
 20
27.5043872164540986
 30
0.0
 10
262.051952068615833
 20
26.7857720338208978
 30
0.0
 10
262.1023812042392365
 20
25.8024038891647436
 30
0.0
 10
262.0771666364274779
 20
24.8820721640379574
 30
0.0
  0
SPLINE
  5
150
100
AcDbEntity
  8
pfoenix
 62
256
370
-1
 48
1.0
  6
ByLayer
100
AcDbSpline
 70
8
 71
3
 72
16
 73
12
 74
0
 40
0.0
 40
0.0
 40
0.0
 40
0.0
 40
1.0
 40
2.0
 40
3.0
 40
4.0
 40
5.0
 40
6.0
 40
7.0
 40
8.0
 40
9.0
 40
9.0
 40
9.0
 40
9.0
 10
262.0771666364274779
 20
24.8820721640379574
 30
0.0
 10
262.0393447847098969
 20
24.2264934009339967
 30
0.0
 10
261.8376282422163968
 20
23.3439835275246352
 30
0.0
 10
261.5602679962878483
 20
22.8522994551966434
 30
0.0
 10
260.9425110849012981
 20
22.2723643955277026
 30
0.0
 10
260.5895071355375876
 20
21.9319677300698146
 30
0.0
 10
260.5855999557437599
 20
21.9321238170217967
 30
0.0
 10
260.8416528136544912
 20
22.373222666774474
 30
0.0
 10
261.1820494791123792
 20
22.9279431586317273
 30
0.0
 10
261.3837660216058794
 20
23.4700563665831581
 30
0.0
 10
261.3983837470519802
 20
23.9871029321873337
 30
0.0
 10
261.1619971738174399
 20
25.1707868100140288
 30
0.0
  0
HATCH
  5
151
100
AcDbEntity
  8
pfoenix
 62
256
370
-1
 48
1.0
  6
ByLayer
100
AcDbHatch
 10
0.0
 20
0.0
 30
0.0
210
0.0
220
0.0
230
1.0
  2
SOLID
 70
1
 71
0
 91
1
 92
1
 93
2
 72
4
 94
3
 73
0
 74
0
 95
16
 96
12
 40
0.0
 40
0.0
 40
0.0
 40
0.0
 40
1.0
 40
2.0
 40
3.0
 40
4.0
 40
5.0
 40
6.0
 40
7.0
 40
8.0
 40
9.0
 40
9.0
 40
9.0
 40
9.0
 10
262.0771666364274779
 20
24.8820721640379574
 10
262.0393447847098969
 20
24.2264934009339967
 10
261.8376282422163968
 20
23.3439835275246352
 10
261.5602679962878483
 20
22.8522994551966434
 10
260.9425110849012981
 20
22.2723643955277026
 10
260.5895071355375876
 20
21.9319677300698146
 10
260.5855999557437599
 20
21.9321238170217967
 10
260.8416528136544912
 20
22.373222666774474
 10
261.1820494791123792
 20
22.9279431586317273
 10
261.3837660216058794
 20
23.4700563665831581
 10
261.3983837470519802
 20
23.9871029321873337
 10
261.1619971738174399
 20
25.1707868100140288
 72
4
 94
3
 73
0
 74
0
 95
18
 96
14
 40
0.0
 40
0.0
 40
0.0
 40
0.0
 40
1.0
 40
2.0
 40
3.0
 40
4.0
 40
5.0
 40
6.0
 40
7.0
 40
8.0
 40
9.0
 40
10.0
 40
11.0
 40
11.0
 40
11.0
 40
11.0
 10
261.1619971738174399
 20
25.1707868100140288
 10
261.4944446758152026
 20
25.3409433235331605
 10
261.5602679962878483
 20
25.7015456179179935
 10
261.5980898480053156
 20
26.7983793177266776
 10
261.5350534284762034
 20
27.7817474623827891
 10
261.5098388606644448
 20
28.3112533864282696
 10
261.1694421952065568
 20
29.3702652345194437
 10
260.967725652712943
 20
29.5089453574837464
 10
261.5602679962878483
 20
28.7525083231329504
 10
261.749377254875526
 20
28.2356096829932497
 10
261.9510937973690261
 20
27.5043872164540986
 10
262.051952068615833
 20
26.7857720338208978
 10
262.1023812042392365
 20
25.8024038891647436
 10
262.0771666364274779
 20
24.8820721640379574
 97
0
 75
0
 76
1
 98
0
1001
ACAD
1010
0.0
1020
0.0
1030
0
  0
SPLINE
  5
152
100
AcDbEntity
  8
pfoenix
 62
256
370
-1
 48
1.0
  6
ByLayer
100
AcDbSpline
 70
8
 71
3
 72
11
 73
7
 74
0
 40
0.0
 40
0.0
 40
0.0
 40
0.0
 40
1.0
 40
2.0
 40
3.0
 40
4.0
 40
4.0
 40
4.0
 40
4.0
 10
258.434081830434593
 20
31.1828564659427272
 30
0.0
 10
259.1379885151777671
 20
30.8151440186887342
 30
0.0
 10
259.5372191721961599
 20
30.4159133616703556
 30
0.0
 10
259.9574619690577038
 20
29.8801037956718361
 30
0.0
 10
260.3777047659193613
 20
29.3232820898302506
 30
0.0
 10
260.7769354229377541
 20
28.4302661464993989
 30
0.0
 10
260.9555386116039699
 20
27.6738291121486881
 30
0.0
  0
SPLINE
  5
153
100
AcDbEntity
  8
pfoenix
 62
256
370
-1
 48
1.0
  6
ByLayer
100
AcDbSpline
 70
8
 71
3
 72
20
 73
16
 74
0
 40
0.0
 40
0.0
 40
0.0
 40
0.0
 40
1.0
 40
2.0
 40
3.0
 40
4.0
 40
5.0
 40
6.0
 40
7.0
 40
8.0
 40
9.0
 40
10.0
 40
11.0
 40
12.0
 40
13.0
 40
13.0
 40
13.0
 40
13.0
 10
260.9555386116039699
 20
27.6738291121486881
 30
0.0
 10
261.0290811010547714
 20
27.2535863152870732
 30
0.0
 10
261.0711053807408462
 20
26.9278981477192971
 30
0.0
 10
261.1131296604270347
 20
26.4025946516423957
 30
0.0
 10
261.1236357303484965
 20
26.0033639946239319
 30
0.0
 10
261.1151347473286251
 20
26.0018971892480621
 30
0.0
 10
261.1151347473286251
 20
26.0018971892480621
 30
0.0
 10
261.3022389190147123
 20
26.5496796305439844
 30
0.0
 10
261.3022389190147123
 20
27.2010559656794086
 30
0.0
 10
261.165660010034685
 20
28.3567236570487111
 30
0.0
 10
260.7979475627807915
 20
29.4178367191241321
 30
0.0
 10
260.482765465134662
 20
29.9431402152009909
 30
0.0
 10
259.6002555917253858
 20
30.6575529698656979
 30
0.0
 10
258.434081830434593
 20
31.1828564659427272
 30
0.0
 10
258.434081830434593
 20
31.1828564659427272
 30
0.0
 10
258.434081830434593
 20
31.1828564659427272
 30
0.0
  0
HATCH
  5
154
100
AcDbEntity
  8
pfoenix
 62
256
370
-1
 48
1.0
  6
ByLayer
100
AcDbHatch
 10
0.0
 20
0.0
 30
0.0
210
0.0
220
0.0
230
1.0
  2
SOLID
 70
1
 71
0
 91
1
 92
1
 93
2
 72
4
 94
3
 73
0
 74
0
 95
20
 96
16
 40
0.0
 40
0.0
 40
0.0
 40
0.0
 40
1.0
 40
2.0
 40
3.0
 40
4.0
 40
5.0
 40
6.0
 40
7.0
 40
8.0
 40
9.0
 40
10.0
 40
11.0
 40
12.0
 40
13.0
 40
13.0
 40
13.0
 40
13.0
 10
260.9555386116039699
 20
27.6738291121486881
 10
261.0290811010547714
 20
27.2535863152870732
 10
261.0711053807408462
 20
26.9278981477192971
 10
261.1131296604270347
 20
26.4025946516423957
 10
261.1236357303484965
 20
26.0033639946239319
 10
261.1151347473286251
 20
26.0018971892480621
 10
261.1151347473286251
 20
26.0018971892480621
 10
261.3022389190147123
 20
26.5496796305439844
 10
261.3022389190147123
 20
27.2010559656794086
 10
261.165660010034685
 20
28.3567236570487111
 10
260.7979475627807915
 20
29.4178367191241321
 10
260.482765465134662
 20
29.9431402152009909
 10
259.6002555917253858
 20
30.6575529698656979
 10
258.434081830434593
 20
31.1828564659427272
 10
258.434081830434593
 20
31.1828564659427272
 10
258.434081830434593
 20
31.1828564659427272
 72
4
 94
3
 73
0
 74
0
 95
11
 96
7
 40
0.0
 40
0.0
 40
0.0
 40
0.0
 40
1.0
 40
2.0
 40
3.0
 40
4.0
 40
4.0
 40
4.0
 40
4.0
 10
258.434081830434593
 20
31.1828564659427272
 10
259.1379885151777671
 20
30.8151440186887342
 10
259.5372191721961599
 20
30.4159133616703556
 10
259.9574619690577038
 20
29.8801037956718361
 10
260.3777047659193613
 20
29.3232820898302506
 10
260.7769354229377541
 20
28.4302661464993989
 10
260.9555386116039699
 20
27.6738291121486881
 97
0
 75
0
 76
1
 98
0
1001
ACAD
1010
0.0
1020
0.0
1030
0
  0
SPLINE
  5
155
100
AcDbEntity
  8
pfoenix
 62
256
370
-1
 48
1.0
  6
ByLayer
100
AcDbSpline
 70
8
 71
3
 72
9
 73
5
 74
0
 40
0.0
 40
0.0
 40
0.0
 40
0.0
 40
1.0
 40
2.0
 40
2.0
 40
2.0
 40
2.0
 10
261.6570146120100162
 20
29.1178001718769153
 30
0.0
 10
262.7433792232632186
 20
28.5775225844621232
 30
0.0
 10
262.533944675815178
 20
26.3804433235331359
 30
0.0
 10
262.533944675815178
 20
26.3804433235331359
 30
0.0
 10
262.533944675815178
 20
26.3804433235331359
 30
0.0
  0
SPLINE
  5
156
100
AcDbEntity
  8
pfoenix
 62
256
370
-1
 48
1.0
  6
ByLayer
100
AcDbSpline
 70
8
 71
3
 72
12
 73
8
 74
0
 40
0.0
 40
0.0
 40
0.0
 40
0.0
 40
1.0
 40
2.0
 40
3.0
 40
4.0
 40
5.0
 40
5.0
 40
5.0
 40
5.0
 10
262.533944675815178
 20
26.3804433235331359
 30
0.0
 10
262.5242241068109479
 20
27.0683139668220107
 30
0.0
 10
262.4299946758151236
 20
27.5238933235331515
 30
0.0
 10
262.3260446758151829
 20
28.0436433235331819
 30
0.0
 10
262.1181446758151878
 20
28.4594433235331721
 30
0.0
 10
261.6570146120100162
 20
29.1178001718769153
 30
0.0
 10
261.6570146120100162
 20
29.1178001718769153
 30
0.0
 10
261.6570146120100162
 20
29.1178001718769153
 30
0.0
  0
HATCH
  5
157
100
AcDbEntity
  8
pfoenix
 62
256
370
-1
 48
1.0
  6
ByLayer
100
AcDbHatch
 10
0.0
 20
0.0
 30
0.0
210
0.0
220
0.0
230
1.0
  2
SOLID
 70
1
 71
0
 91
1
 92
1
 93
2
 72
4
 94
3
 73
0
 74
0
 95
12
 96
8
 40
0.0
 40
0.0
 40
0.0
 40
0.0
 40
1.0
 40
2.0
 40
3.0
 40
4.0
 40
5.0
 40
5.0
 40
5.0
 40
5.0
 10
262.533944675815178
 20
26.3804433235331359
 10
262.5242241068109479
 20
27.0683139668220107
 10
262.4299946758151236
 20
27.5238933235331515
 10
262.3260446758151829
 20
28.0436433235331819
 10
262.1181446758151878
 20
28.4594433235331721
 10
261.6570146120100162
 20
29.1178001718769153
 10
261.6570146120100162
 20
29.1178001718769153
 10
261.6570146120100162
 20
29.1178001718769153
 72
4
 94
3
 73
0
 74
0
 95
9
 96
5
 40
0.0
 40
0.0
 40
0.0
 40
0.0
 40
1.0
 40
2.0
 40
2.0
 40
2.0
 40
2.0
 10
261.6570146120100162
 20
29.1178001718769153
 10
262.7433792232632186
 20
28.5775225844621232
 10
262.533944675815178
 20
26.3804433235331359
 10
262.533944675815178
 20
26.3804433235331359
 10
262.533944675815178
 20
26.3804433235331359
 97
0
 75
0
 76
1
 98
0
1001
ACAD
1010
0.0
1020
0.0
1030
0
  0
SPLINE
  5
158
100
AcDbEntity
  8
pfoenix
 62
256
370
-1
 48
1.0
  6
ByLayer
100
AcDbSpline
 70
8
 71
3
 72
29
 73
25
 74
0
 40
0.0
 40
0.0
 40
0.0
 40
0.0
 40
1.0
 40
2.0
 40
3.0
 40
4.0
 40
5.0
 40
6.0
 40
7.0
 40
8.0
 40
9.0
 40
10.0
 40
11.0
 40
12.0
 40
13.0
 40
14.0
 40
15.0
 40
16.0
 40
17.0
 40
18.0
 40
19.0
 40
20.0
 40
21.0
 40
22.0
 40
22.0
 40
22.0
 40
22.0
 10
259.415444675815138
 20
21.1829433235331734
 30
0.0
 10
259.8822909349003112
 20
20.9901909608622361
 30
0.0
 10
260.653856709938168
 20
20.9750622201751895
 30
0.0
 10
261.0774614491746206
 20
21.0960921456713493
 30
0.0
 10
261.455679966349976
 20
21.5196968849078232
 30
0.0
 10
261.6977398173422671
 20
22.1097177717014048
 30
0.0
 10
261.7279972987163319
 20
22.5484512516248827
 30
0.0
 10
261.7733835207773154
 20
22.7451248805561264
 30
0.0
 10
261.7712398311405195
 20
22.7454716936256105
 30
0.0
 10
261.7712398311405195
 20
22.7454716936256105
 30
0.0
 10
261.6220961139071051
 20
22.3517776226936604
 30
0.0
 10
261.4944446758152026
 20
22.2224433235331489
 30
0.0
 10
261.1833626339837338
 20
21.8374004393351626
 30
0.0
 10
260.8505303388693619
 20
21.610469329029911
 30
0.0
 10
260.5328267844420225
 20
21.4743106628467473
 30
0.0
 10
260.048707082457554
 20
21.3230232559765795
 30
0.0
 10
259.5797161211600041
 20
21.2927657746025503
 30
0.0
 10
259.415444675815138
 20
21.2868933235331497
 30
0.0
 10
259.2444202589347242
 20
21.2973455708028325
 30
0.0
 10
259.2444202589347242
 20
21.2867901861240938
 30
0.0
 10
259.2444202589347242
 20
21.2867901861240938
 30
0.0
 10
259.3420412780393463
 20
21.215421885600648
 30
0.0
 10
259.415444675815138
 20
21.1829433235331734
 30
0.0
 10
259.415444675815138
 20
21.1829433235331734
 30
0.0
 10
259.415444675815138
 20
21.1829433235331734
 30
0.0
  0
HATCH
  5
159
100
AcDbEntity
  8
pfoenix
 62
256
370
-1
 48
1.0
  6
ByLayer
100
AcDbHatch
 10
0.0
 20
0.0
 30
0.0
210
0.0
220
0.0
230
1.0
  2
SOLID
 70
1
 71
0
 91
1
 92
1
 93
1
 72
4
 94
3
 73
0
 74
0
 95
29
 96
25
 40
0.0
 40
0.0
 40
0.0
 40
0.0
 40
1.0
 40
2.0
 40
3.0
 40
4.0
 40
5.0
 40
6.0
 40
7.0
 40
8.0
 40
9.0
 40
10.0
 40
11.0
 40
12.0
 40
13.0
 40
14.0
 40
15.0
 40
16.0
 40
17.0
 40
18.0
 40
19.0
 40
20.0
 40
21.0
 40
22.0
 40
22.0
 40
22.0
 40
22.0
 10
259.415444675815138
 20
21.1829433235331734
 10
259.8822909349003112
 20
20.9901909608622361
 10
260.653856709938168
 20
20.9750622201751895
 10
261.0774614491746206
 20
21.0960921456713493
 10
261.455679966349976
 20
21.5196968849078232
 10
261.6977398173422671
 20
22.1097177717014048
 10
261.7279972987163319
 20
22.5484512516248827
 10
261.7733835207773154
 20
22.7451248805561264
 10
261.7712398311405195
 20
22.7454716936256105
 10
261.7712398311405195
 20
22.7454716936256105
 10
261.6220961139071051
 20
22.3517776226936604
 10
261.4944446758152026
 20
22.2224433235331489
 10
261.1833626339837338
 20
21.8374004393351626
 10
260.8505303388693619
 20
21.610469329029911
 10
260.5328267844420225
 20
21.4743106628467473
 10
260.048707082457554
 20
21.3230232559765795
 10
259.5797161211600041
 20
21.2927657746025503
 10
259.415444675815138
 20
21.2868933235331497
 10
259.2444202589347242
 20
21.2973455708028325
 10
259.2444202589347242
 20
21.2867901861240938
 10
259.2444202589347242
 20
21.2867901861240938
 10
259.3420412780393463
 20
21.215421885600648
 10
259.415444675815138
 20
21.1829433235331734
 10
259.415444675815138
 20
21.1829433235331734
 10
259.415444675815138
 20
21.1829433235331734
 97
0
 75
0
 76
1
 98
0
1001
ACAD
1010
0.0
1020
0.0
1030
0
  0
MTEXT
  5
15A
100
AcDbEntity
  8
Logo Adresse
 62
256
370
-1
 48
1.0
  6
ByLayer
100
AcDbMText
 10
269.0
 20
121.4000000000018673
 30
0.0
 40
4.0
 41
0.0
 71
4
 72
1
  1
\H3;01234 Musterhausen
  7
textstyle14
 50
0.0
 73
2
 44
1.0
  0
MTEXT
  5
15B
100
AcDbEntity
  8
Logo Adresse
 62
256
370
-1
 48
1.0
  6
ByLayer
100
AcDbMText
 10
321.5
 20
32.7999999999993506
 30
0.0
 40
4.0
 41
0.0
 71
4
 72
1
  1
\H3;01234 Musterhausen
  7
textstyle13
 50
0.0
 73
2
 44
1.0
  0
MTEXT
  5
15C
100
AcDbEntity
  8
Logo Adresse
 62
256
370
-1
 48
1.0
  6
ByLayer
100
AcDbMText
 10
269.0
 20
115.7000000000009408
 30
0.0
 40
4.0
 41
0.0
 71
4
 72
1
  1
\H3;Musterplatz 123 
  7
textstyle12
 50
0.0
 73
2
 44
1.0
  0
MTEXT
  5
15D
100
AcDbEntity
  8
Logo Adresse
 62
256
370
-1
 48
1.0
  6
ByLayer
100
AcDbMText
 10
321.5
 20
27.0999999999985448
 30
0.0
 40
4.0
 41
0.0
 71
4
 72
1
  1
\H3;Musterweg 01
  7
textstyle18
 50
0.0
 73
2
 44
1.0
  0
MTEXT
  5
15E
100
AcDbEntity
  8
Logo Adresse
 62
256
370
-1
 48
1.0
  6
ByLayer
100
AcDbMText
 10
269.0
 20
109.999999999998991
 30
0.0
 40
4.0
 41
0.0
 71
4
 72
1
  1
\H3;Tel: 01234/56789-0
  7
textstyle17
 50
0.0
 73
2
 44
1.0
  0
MTEXT
  5
15F
100
AcDbEntity
  8
Logo Adresse
 62
256
370
-1
 48
1.0
  6
ByLayer
100
AcDbMText
 10
321.5
 20
15.7000000000011557
 30
0.0
 40
4.0
 41
0.0
 71
4
 72
1
  1
\H3;Web: dl3dl.jimdo.com
  7
textstyle16
 50
0.0
 73
2
 44
1.0
  0
MTEXT
  5
160
100
AcDbEntity
  8
Logo Adresse
 62
256
370
-1
 48
1.0
  6
ByLayer
100
AcDbMText
 10
321.5
 20
21.3999999999977675
 30
0.0
 40
4.0
 41
0.0
 71
4
 72
1
  1
\H3;Tel: 012345/678-9 
  7
textstyle15
 50
0.0
 73
2
 44
1.0
  0
MTEXT
  5
161
100
AcDbEntity
  8
Plankopf Text augefuellt
 62
256
370
-1
 48
1.0
  6
ByLayer
100
AcDbMText
 10
269.0471991994206746
 20
102.1979911126813363
 30
0.0
 40
5.0
 41
0.0
 71
4
 72
1
  1
\H3.75;Zeichnungsvorlagen
  7
textstyle43
 50
0.0
 73
2
 44
1.0
  0
MTEXT
  5
162
100
AcDbEntity
  8
Plankopf Text augefuellt
 62
256
370
-1
 48
1.0
  6
ByLayer
100
AcDbMText
 10
269.0471991994206746
 20
93.7500000000003126
 30
0.0
 40
5.0
 41
0.0
 71
4
 72
1
  1
\H3.75;Nordpfeile_2
  7
textstyle42
 50
0.0
 73
2
 44
1.0
  0
MTEXT
  5
163
100
AcDbEntity
  8
Plankopf Text augefuellt
 62
256
370
-1
 48
1.0
  6
ByLayer
100
AcDbMText
 10
269.0471991994206746
 20
85.3020088873196158
 30
0.0
 40
5.0
 41
0.0
 71
4
 72
1
  1
\H3.75;0017/2017
  7
textstyle41
 50
0.0
 73
2
 44
1.0
  0
MTEXT
  5
164
100
AcDbEntity
  8
Plankopf Text augefuellt
 62
256
370
-1
 48
1.0
  6
ByLayer
100
AcDbMText
 10
339.3459564858274007
 20
76.8159291736699998
 30
0.0
 40
5.0
 41
0.0
 71
4
 72
1
  1
\H3.75;Vl_nordpf-2.dxf
  7
textstyle40
 50
0.0
 73
2
 44
1.0
  0
MTEXT
  5
165
100
AcDbEntity
  8
Plankopf Text augefuellt
 62
256
370
-1
 48
1.0
  6
ByLayer
100
AcDbMText
 10
269.0471991994206746
 20
76.80200888731882
 30
0.0
 40
5.0
 41
0.0
 71
4
 72
1
  1
\H3.75;dl3dl
  7
textstyle47
 50
0.0
 73
2
 44
1.0
  0
MTEXT
  5
166
100
AcDbEntity
  8
Plankopf Text augefuellt
 62
256
370
-1
 48
1.0
  6
ByLayer
100
AcDbMText
 10
339.3459564858274007
 20
68.3159291736688061
 30
0.0
 40
5.0
 41
0.0
 71
4
 72
1
  1
\H3.75;DIN A3
  7
textstyle46
 50
0.0
 73
2
 44
1.0
  0
MTEXT
  5
167
100
AcDbEntity
  8
Plankopf Text augefuellt
 62
256
370
-1
 48
1.0
  6
ByLayer
100
AcDbMText
 10
269.0471991994206746
 20
68.3020088873180669
 30
0.0
 40
5.0
 41
0.0
 71
4
 72
1
  1
\H3.75;dl3dl
  7
textstyle45
 50
0.0
 73
2
 44
1.0
  0
MTEXT
  5
168
100
AcDbEntity
  8
Plankopf Text augefuellt
 62
256
370
-1
 48
1.0
  6
ByLayer
100
AcDbMText
 10
269.0471991994206746
 20
51.3020088873207882
 30
0.0
 40
5.0
 41
0.0
 71
4
 72
1
  1
\H3.75;gustl
  7
textstyle44
 50
0.0
 73
2
 44
1.0
  0
MTEXT
  5
169
100
AcDbEntity
  8
Plankopf Text augefuellt
 62
256
370
-1
 48
1.0
  6
ByLayer
100
AcDbMText
 10
339.3459564858274007
 20
51.3159291736726288
 30
0.0
 40
5.0
 41
0.0
 71
4
 72
1
  1
\H3.75;M 1:1
  7
textstyle39
 50
0.0
 73
2
 44
1.0
  0
MTEXT
  5
16A
100
AcDbEntity
  8
Plankopf Text augefuellt
 62
256
370
-1
 48
1.0
  6
ByLayer
100
AcDbMText
 10
339.3459564858274007
 20
59.8159291736720533
 30
0.0
 40
5.0
 41
0.0
 71
4
 72
1
  1
\H3.75;DIN EN xxxxx
  7
textstyle38
 50
0.0
 73
2
 44
1.0
  0
MTEXT
  5
16B
100
AcDbEntity
  8
Plankopf Text augefuellt
 62
256
370
-1
 48
1.0
  6
ByLayer
100
AcDbMText
 10
269.0471991994206746
 20
59.802008887320234
 30
0.0
 40
5.0
 41
0.0
 71
4
 72
1
  1
\H3.75;gustl
  7
textstyle37
 50
0.0
 73
2
 44
1.0
  0
MTEXT
  5
16C
100
AcDbEntity
  8
Plankopf Text augefuellt
 62
256
370
-1
 48
1.0
  6
ByLayer
100
AcDbMText
 10
269.0471991994206746
 20
42.8020088873188271
 30
0.0
 40
5.0
 41
0.0
 71
4
 72
1
  1
\H3.75;16.02.17
  7
textstyle36
 50
0.0
 73
2
 44
1.0
  0
SPLINE
  5
16D
100
AcDbEntity
  8
Musterlogo AG
 62
256
370
-1
 48
1.0
  6
ByLayer
100
AcDbSpline
 70
8
 71
3
 72
48
 73
44
 74
0
 40
0.0
 40
0.0
 40
0.0
 40
0.0
 40
1.0
 40
2.0
 40
3.0
 40
4.0
 40
5.0
 40
6.0
 40
7.0
 40
8.0
 40
9.0
 40
10.0
 40
11.0
 40
12.0
 40
13.0
 40
14.0
 40
15.0
 40
16.0
 40
17.0
 40
18.0
 40
19.0
 40
20.0
 40
21.0
 40
22.0
 40
23.0
 40
24.0
 40
25.0
 40
26.0
 40
27.0
 40
28.0
 40
29.0
 40
30.0
 40
31.0
 40
32.0
 40
33.0
 40
34.0
 40
35.0
 40
36.0
 40
37.0
 40
38.0
 40
39.0
 40
40.0
 40
41.0
 40
41.0
 40
41.0
 40
41.0
 10
272.6779724239687539
 20
132.4687623936360694
 30
0.0
 10
275.1381100274421669
 20
131.8583456112100691
 30
0.0
 10
277.1216191482672002
 20
132.3160784852466065
 30
0.0
 10
280.8597709528991118
 20
133.3078330456591232
 30
0.0
 10
282.5381248243663777
 20
134.6810316677687922
 30
0.0
 10
282.3092583873479953
 20
136.2830967268966731
 30
0.0
 10
281.3937926392750342
 20
136.3593855392361149
 30
0.0
 10
278.3422401456979287
 20
136.2068079145572312
 30
0.0
 10
276.4350198372123941
 20
135.6727862281813088
 30
0.0
 10
270.8659365364345604
 20
132.9263889839619992
 30
0.0
 10
269.6453155390037182
 20
130.8665910507975525
 30
0.0
 10
269.2638714773065658
 20
128.1964826189176847
 30
0.0
 10
270.560781287076793
 20
127.3573056831840518
 30
0.0
 10
273.9174890300114384
 20
127.2810168708446383
 30
0.0
 10
277.96079608400089
 20
128.34906024359654
 30
0.0
 10
280.6309045158807294
 20
130.103702927403333
 30
0.0
 10
282.5381248243663777
 20
132.2397896729071647
 30
0.0
 10
282.5381248243663777
 20
132.2397896729071647
 30
0.0
 10
279.7917275801470396
 20
130.4851469891004285
 30
0.0
 10
277.7319296469826213
 20
129.5696812410273253
 30
0.0
 10
275.824709338496973
 20
128.9593707423119611
 30
0.0
 10
273.2308897189566324
 20
128.34906024359654
 30
0.0
 10
270.8659365364345604
 20
128.6542154929542505
 30
0.0
 10
269.9504707883613719
 20
129.3408148040090566
 30
0.0
 10
270.2556260377190256
 20
130.4088581767610151
 30
0.0
 10
270.9355068513215201
 20
131.5289588593703058
 30
0.0
 10
272.2855068513214292
 20
132.8789588593703286
 30
0.0
 10
275.1562224068635487
 20
134.5893268119893378
 30
0.0
 10
276.6125136339254595
 20
135.5090896922389732
 30
0.0
 10
277.8644131098208163
 20
135.8156773189888042
 30
0.0
 10
278.8863718656537003
 20
135.9945201012596101
 30
0.0
 10
280.1127223726531383
 20
136.0967159768428871
 30
0.0
 10
281.28797494186108
 20
136.0456180390512202
 30
0.0
 10
281.824503288673327
 20
135.9178731945721097
 30
0.0
 10
282.1310909154232149
 20
135.6368345367180552
 30
0.0
 10
281.977797102048271
 20
135.0747572210100031
 30
0.0
 10
281.0605068513215201
 20
134.2289588593702945
 30
0.0
 10
280.0105264970699182
 20
133.8228577451146464
 30
0.0
 10
278.7841759900703664
 20
133.3374273360940094
 30
0.0
 10
277.4045316696959844
 20
132.9030948648650394
 30
0.0
 10
275.8204955981549347
 20
132.6220562070110134
 30
0.0
 10
274.4664002466763577
 20
132.4432134247402644
 30
0.0
 10
272.6779724239687539
 20
132.4687623936360694
 30
0.0
 10
272.6779724239687539
 20
132.4687623936360694
 30
0.0
  0
HATCH
  5
16E
100
AcDbEntity
  8
Musterlogo AG
 62
256
370
-1
 48
1.0
  6
ByLayer
100
AcDbHatch
 10
0.0
 20
0.0
 30
0.0
210
0.0
220
0.0
230
1.0
  2
SOLID
 70
1
 71
0
 91
1
 92
1
 93
1
 72
4
 94
3
 73
0
 74
0
 95
48
 96
44
 40
0.0
 40
0.0
 40
0.0
 40
0.0
 40
1.0
 40
2.0
 40
3.0
 40
4.0
 40
5.0
 40
6.0
 40
7.0
 40
8.0
 40
9.0
 40
10.0
 40
11.0
 40
12.0
 40
13.0
 40
14.0
 40
15.0
 40
16.0
 40
17.0
 40
18.0
 40
19.0
 40
20.0
 40
21.0
 40
22.0
 40
23.0
 40
24.0
 40
25.0
 40
26.0
 40
27.0
 40
28.0
 40
29.0
 40
30.0
 40
31.0
 40
32.0
 40
33.0
 40
34.0
 40
35.0
 40
36.0
 40
37.0
 40
38.0
 40
39.0
 40
40.0
 40
41.0
 40
41.0
 40
41.0
 40
41.0
 10
272.6779724239687539
 20
132.4687623936360694
 10
275.1381100274421669
 20
131.8583456112100691
 10
277.1216191482672002
 20
132.3160784852466065
 10
280.8597709528991118
 20
133.3078330456591232
 10
282.5381248243663777
 20
134.6810316677687922
 10
282.3092583873479953
 20
136.2830967268966731
 10
281.3937926392750342
 20
136.3593855392361149
 10
278.3422401456979287
 20
136.2068079145572312
 10
276.4350198372123941
 20
135.6727862281813088
 10
270.8659365364345604
 20
132.9263889839619992
 10
269.6453155390037182
 20
130.8665910507975525
 10
269.2638714773065658
 20
128.1964826189176847
 10
270.560781287076793
 20
127.3573056831840518
 10
273.9174890300114384
 20
127.2810168708446383
 10
277.96079608400089
 20
128.34906024359654
 10
280.6309045158807294
 20
130.103702927403333
 10
282.5381248243663777
 20
132.2397896729071647
 10
282.5381248243663777
 20
132.2397896729071647
 10
279.7917275801470396
 20
130.4851469891004285
 10
277.7319296469826213
 20
129.5696812410273253
 10
275.824709338496973
 20
128.9593707423119611
 10
273.2308897189566324
 20
128.34906024359654
 10
270.8659365364345604
 20
128.6542154929542505
 10
269.9504707883613719
 20
129.3408148040090566
 10
270.2556260377190256
 20
130.4088581767610151
 10
270.9355068513215201
 20
131.5289588593703058
 10
272.2855068513214292
 20
132.8789588593703286
 10
275.1562224068635487
 20
134.5893268119893378
 10
276.6125136339254595
 20
135.5090896922389732
 10
277.8644131098208163
 20
135.8156773189888042
 10
278.8863718656537003
 20
135.9945201012596101
 10
280.1127223726531383
 20
136.0967159768428871
 10
281.28797494186108
 20
136.0456180390512202
 10
281.824503288673327
 20
135.9178731945721097
 10
282.1310909154232149
 20
135.6368345367180552
 10
281.977797102048271
 20
135.0747572210100031
 10
281.0605068513215201
 20
134.2289588593702945
 10
280.0105264970699182
 20
133.8228577451146464
 10
278.7841759900703664
 20
133.3374273360940094
 10
277.4045316696959844
 20
132.9030948648650394
 10
275.8204955981549347
 20
132.6220562070110134
 10
274.4664002466763577
 20
132.4432134247402644
 10
272.6779724239687539
 20
132.4687623936360694
 10
272.6779724239687539
 20
132.4687623936360694
 97
0
 75
0
 76
1
 98
0
1001
ACAD
1010
0.0
1020
0.0
1030
0
  0
LINE
  5
16F
100
AcDbEntity
  8
Musterlogo AG 1
 62
256
370
-1
 48
1.0
  6
ByLayer
100
AcDbLine
 10
277.6855068513215201
 20
138.9539588593702888
 30
0.0
 11
272.9605068513216111
 21
131.5289588593703058
 31
0.0
  0
LINE
  5
170
100
AcDbEntity
  8
Musterlogo AG 1
 62
256
370
-1
 48
1.0
  6
ByLayer
100
AcDbLine
 10
272.9605068513216111
 20
131.5289588593703058
 30
0.0
 11
277.6855068513215201
 21
133.5539588593702831
 31
0.0
  0
LINE
  5
171
100
AcDbEntity
  8
Musterlogo AG 1
 62
256
370
-1
 48
1.0
  6
ByLayer
100
AcDbLine
 10
277.6855068513215201
 20
133.5539588593702831
 30
0.0
 11
273.6355068513215656
 21
125.4539588593702888
 31
0.0
  0
LINE
  5
172
100
AcDbEntity
  8
Musterlogo AG 1
 62
256
370
-1
 48
1.0
  6
ByLayer
100
AcDbLine
 10
273.6355068513215656
 20
125.4539588593702888
 30
0.0
 11
280.3855068513215656
 21
134.9039588593703058
 31
0.0
  0
LINE
  5
173
100
AcDbEntity
  8
Musterlogo AG 1
 62
256
370
-1
 48
1.0
  6
ByLayer
100
AcDbLine
 10
280.3855068513215656
 20
134.9039588593703058
 30
0.0
 11
274.9855068513214746
 21
133.5539588593702831
 31
0.0
  0
LINE
  5
174
100
AcDbEntity
  8
Musterlogo AG 1
 62
256
370
-1
 48
1.0
  6
ByLayer
100
AcDbLine
 10
274.9855068513214746
 20
133.5539588593702831
 30
0.0
 11
280.3855068513215656
 21
138.9539588593702888
 31
0.0
  0
LINE
  5
175
100
AcDbEntity
  8
Musterlogo AG 1
 62
256
370
-1
 48
1.0
  6
ByLayer
100
AcDbLine
 10
280.3855068513215656
 20
138.9539588593702888
 30
0.0
 11
277.6855068513215201
 21
138.9539588593702888
 31
0.0
  0
HATCH
  5
176
100
AcDbEntity
  8
Musterlogo AG 1
 62
256
370
-1
 48
1.0
  6
ByLayer
100
AcDbHatch
 10
0.0
 20
0.0
 30
0.0
210
0.0
220
0.0
230
1.0
  2
SOLID
 70
1
 71
0
 91
1
 92
1
 93
7
 72
1
 10
277.6855068513215201
 20
138.9539588593702888
 11
272.9605068513216111
 21
131.5289588593703058
 72
1
 10
272.9605068513216111
 20
131.5289588593703058
 11
277.6855068513215201
 21
133.5539588593702831
 72
1
 10
277.6855068513215201
 20
133.5539588593702831
 11
273.6355068513215656
 21
125.4539588593702888
 72
1
 10
273.6355068513215656
 20
125.4539588593702888
 11
280.3855068513215656
 21
134.9039588593703058
 72
1
 10
280.3855068513215656
 20
134.9039588593703058
 11
274.9855068513214746
 21
133.5539588593702831
 72
1
 10
274.9855068513214746
 20
133.5539588593702831
 11
280.3855068513215656
 21
138.9539588593702888
 72
1
 10
280.3855068513215656
 20
138.9539588593702888
 11
277.6855068513215201
 21
138.9539588593702888
 97
0
 75
0
 76
1
 98
0
1001
ACAD
1010
0.0
1020
0.0
1030
0
  0
HATCH
  5
177
100
AcDbEntity
  8
Musterlogo AG
 62
256
370
-1
 48
1.0
  6
ByLayer
100
AcDbHatch
 10
0.0
 20
0.0
 30
0.0
210
0.0
220
0.0
230
1.0
  2
SOLID
 70
1
 71
0
 91
1
 92
1
 93
1
 72
4
 94
3
 73
0
 74
0
 95
48
 96
44
 40
0.0
 40
0.0
 40
0.0
 40
0.0
 40
1.0
 40
2.0
 40
3.0
 40
4.0
 40
5.0
 40
6.0
 40
7.0
 40
8.0
 40
9.0
 40
10.0
 40
11.0
 40
12.0
 40
13.0
 40
14.0
 40
15.0
 40
16.0
 40
17.0
 40
18.0
 40
19.0
 40
20.0
 40
21.0
 40
22.0
 40
23.0
 40
24.0
 40
25.0
 40
26.0
 40
27.0
 40
28.0
 40
29.0
 40
30.0
 40
31.0
 40
32.0
 40
33.0
 40
34.0
 40
35.0
 40
36.0
 40
37.0
 40
38.0
 40
39.0
 40
40.0
 40
41.0
 40
41.0
 40
41.0
 40
41.0
 10
272.6779724239687539
 20
132.4687623936360694
 10
275.1381100274421669
 20
131.8583456112100691
 10
277.1216191482672002
 20
132.3160784852466065
 10
280.8597709528991118
 20
133.3078330456591232
 10
282.5381248243663777
 20
134.6810316677687922
 10
282.3092583873479953
 20
136.2830967268966731
 10
281.3937926392750342
 20
136.3593855392361149
 10
278.3422401456979287
 20
136.2068079145572312
 10
276.4350198372123941
 20
135.6727862281813088
 10
270.8659365364345604
 20
132.9263889839619992
 10
269.6453155390037182
 20
130.8665910507975525
 10
269.2638714773065658
 20
128.1964826189176847
 10
270.560781287076793
 20
127.3573056831840518
 10
273.9174890300114384
 20
127.2810168708446383
 10
277.96079608400089
 20
128.34906024359654
 10
280.6309045158807294
 20
130.103702927403333
 10
282.5381248243663777
 20
132.2397896729071647
 10
282.5381248243663777
 20
132.2397896729071647
 10
279.7917275801470396
 20
130.4851469891004285
 10
277.7319296469826213
 20
129.5696812410273253
 10
275.824709338496973
 20
128.9593707423119611
 10
273.2308897189566324
 20
128.34906024359654
 10
270.8659365364345604
 20
128.6542154929542505
 10
269.9504707883613719
 20
129.3408148040090566
 10
270.2556260377190256
 20
130.4088581767610151
 10
270.9355068513215201
 20
131.5289588593703058
 10
272.2855068513214292
 20
132.8789588593703286
 10
275.1562224068635487
 20
134.5893268119893378
 10
276.6125136339254595
 20
135.5090896922389732
 10
277.8644131098208163
 20
135.8156773189888042
 10
278.8863718656537003
 20
135.9945201012596101
 10
280.1127223726531383
 20
136.0967159768428871
 10
281.28797494186108
 20
136.0456180390512202
 10
281.824503288673327
 20
135.9178731945721097
 10
282.1310909154232149
 20
135.6368345367180552
 10
281.977797102048271
 20
135.0747572210100031
 10
281.0605068513215201
 20
134.2289588593702945
 10
280.0105264970699182
 20
133.8228577451146464
 10
278.7841759900703664
 20
133.3374273360940094
 10
277.4045316696959844
 20
132.9030948648650394
 10
275.8204955981549347
 20
132.6220562070110134
 10
274.4664002466763577
 20
132.4432134247402644
 10
272.6779724239687539
 20
132.4687623936360694
 10
272.6779724239687539
 20
132.4687623936360694
 97
0
 75
0
 76
1
 98
0
1001
ACAD
1010
0.0
1020
0.0
1030
0
  0
MTEXT
  5
178
100
AcDbEntity
  8
Musterlogo AG Text
 62
256
370
-1
 48
1.0
  6
ByLayer
100
AcDbMText
 10
283.0456943446397418
 20
128.5544214234361107
 30
0.0
 40
5.4000000000000004
 41
0.0
 71
4
 72
1
  1
Muster Firma
  7
textstyle35
 50
0.0
 73
2
 44
1.0
  0
LINE
  5
179
100
AcDbEntity
  8
Plankopf Rahmen
 62
256
370
-1
 48
1.0
  6
ByLayer
100
AcDbLine
 10
246.25
 20
162.9999999999999432
 30
0.0
 11
246.25
 21
140.4999999999999432
 31
0.0
  0
LINE
  5
17A
100
AcDbEntity
  8
Plankopf Rahmen
 62
256
370
-1
 48
1.0
  6
ByLayer
100
AcDbLine
 10
395.25
 20
140.4999999999999432
 30
0.0
 11
395.25
 21
162.9999999999999432
 31
0.0
  0
MTEXT
  5
17B
100
AcDbEntity
  8
Plankopf Text augefuellt
 62
256
370
-1
 48
1.0
  6
ByLayer
100
AcDbMText
 10
234.0
 20
147.2499999999997726
 30
0.0
 40
2.0
 41
0.0
 71
4
 72
1
  1
A
  7
textstyle30
 50
0.0
 73
2
 44
1.0
  0
MTEXT
  5
17C
100
AcDbEntity
  8
Plankopf Text augefuellt
 62
256
370
-1
 48
1.0
  6
ByLayer
100
AcDbMText
 10
234.0
 20
151.7500000000000284
 30
0.0
 40
2.0
 41
0.0
 71
4
 72
1
  1
B
  7
textstyle29
 50
0.0
 73
2
 44
1.0
  0
MTEXT
  5
17D
100
AcDbEntity
  8
Plankopf Text augefuellt
 62
256
370
-1
 48
1.0
  6
ByLayer
100
AcDbMText
 10
234.0
 20
156.2500000000003126
 30
0.0
 40
2.0
 41
0.0
 71
4
 72
1
  1
C
  7
textstyle34
 50
0.0
 73
2
 44
1.0
  0
MTEXT
  5
17E
100
AcDbEntity
  8
Plankopf Text augefuellt
 62
256
370
-1
 48
1.0
  6
ByLayer
100
AcDbMText
 10
234.0
 20
160.7499999999997726
 30
0.0
 40
2.0
 41
0.0
 71
4
 72
1
  1
D
  7
textstyle33
 50
0.0
 73
2
 44
1.0
  0
MTEXT
  5
17F
100
AcDbEntity
  8
Plankopf Text augefuellt
 62
256
370
-1
 48
1.0
  6
ByLayer
100
AcDbMText
 10
247.25
 20
147.2499999999997726
 30
0.0
 40
2.0
 41
0.0
 71
4
 72
1
  1
17.2
  7
textstyle32
 50
0.0
 73
2
 44
1.0
  0
MTEXT
  5
180
100
AcDbEntity
  8
Plankopf Text augefuellt
 62
256
370
-1
 48
1.0
  6
ByLayer
100
AcDbMText
 10
260.5
 20
147.2499999999999147
 30
0.0
 40
2.0
 41
0.0
 71
4
 72
1
  1
Sympolerstellung
  7
textstyle31
 50
0.0
 73
2
 44
1.0
  0
MTEXT
  5
181
100
AcDbEntity
  8
Plankopf Text augefuellt
 62
256
370
-1
 48
1.0
  6
ByLayer
100
AcDbMText
 10
383.0
 20
147.2500000000001137
 30
0.0
 40
2.0
 41
0.0
 71
4
 72
1
  1
dl3dl
  7
textstyle49
 50
0.0
 73
2
 44
1.0
  0
MTEXT
  5
182
100
AcDbEntity
  8
Plankopf Text augefuellt
 62
256
370
-1
 48
1.0
  6
ByLayer
100
AcDbMText
 10
396.25
 20
147.2500000000000284
 30
0.0
 40
2.0
 41
0.0
 71
4
 72
1
  1
gustl
  7
textstyle48
 50
0.0
 73
2
 44
1.0
  0
LINE
  5
183
100
AcDbEntity
  8
Plankopf Legende
 62
256
370
-1
 48
1.0
  6
ByLayer
100
AcDbLine
 10
352.9409522551260352
 20
230.0000000000000853
 30
0.0
 11
340.0
 21
181.7037086855466725
 31
0.0
  0
LINE
  5
184
100
AcDbEntity
  8
Plankopf Legende
 62
256
370
-1
 48
1.0
  6
ByLayer
100
AcDbLine
 10
340.0
 20
217.0590477448740501
 30
0.0
 11
291.7037086855466441
 21
230.0000000000000568
 31
0.0
  0
LINE
  5
185
100
AcDbEntity
  8
Plankopf Legende
 62
256
370
-1
 48
1.0
  6
ByLayer
100
AcDbLine
 10
104.6446609406725088
 20
230.0000000000000568
 30
0.0
 11
91.7037086855464736
 21
181.7037086855466441
 31
0.0
  0
LINE
  5
186
100
AcDbEntity
  8
Plankopf Legende
 62
256
370
-1
 48
1.0
  6
ByLayer
100
AcDbLine
 10
91.7037086855464736
 20
217.0590477448740216
 30
0.0
 11
43.4074173710931177
 21
230.0000000000000284
 31
0.0
  0
LINE
  5
187
100
AcDbEntity
  8
Plankopf Legende
 62
256
370
-1
 48
1.0
  6
ByLayer
100
AcDbLine
 10
327.0590477448739648
 20
230.0000000000000853
 30
0.0
 11
340.0
 21
278.2962913144534696
 31
0.0
  0
LINE
  5
188
100
AcDbEntity
  8
Plankopf Legende
 62
256
370
-1
 48
1.0
  6
ByLayer
100
AcDbLine
 10
340.0
 20
242.9409522551261205
 30
0.0
 11
388.2962913144534696
 21
230.0000000000000568
 31
0.0
  0
LINE
  5
189
100
AcDbEntity
  8
Plankopf Legende
 62
256
370
-1
 48
1.0
  6
ByLayer
100
AcDbLine
 10
78.7627564304204384
 20
230.0000000000000568
 30
0.0
 11
91.7037086855464736
 21
278.2962913144534696
 31
0.0
  0
LINE
  5
18A
100
AcDbEntity
  8
Plankopf Legende
 62
256
370
-1
 48
1.0
  6
ByLayer
100
AcDbLine
 10
91.7037086855464736
 20
242.940952255126092
 30
0.0
 11
139.9999999999999432
 21
230.0000000000000284
 31
0.0
  0
LINE
  5
18B
100
AcDbEntity
  8
Plankopf Legende
 62
256
370
-1
 48
1.0
  6
ByLayer
100
AcDbLine
 10
327.0590477448739648
 20
230.0000000000000853
 30
0.0
 11
340.0
 21
181.7037086855466725
 31
0.0
  0
LINE
  5
18C
100
AcDbEntity
  8
Plankopf Legende
 62
256
370
-1
 48
1.0
  6
ByLayer
100
AcDbLine
 10
340.0
 20
242.9409522551261205
 30
0.0
 11
291.7037086855466441
 21
230.0000000000000568
 31
0.0
  0
LINE
  5
18D
100
AcDbEntity
  8
Plankopf Legende
 62
256
370
-1
 48
1.0
  6
ByLayer
100
AcDbLine
 10
78.7627564304204384
 20
230.0000000000000568
 30
0.0
 11
91.7037086855464736
 21
181.7037086855466441
 31
0.0
  0
LINE
  5
18E
100
AcDbEntity
  8
Plankopf Legende
 62
256
370
-1
 48
1.0
  6
ByLayer
100
AcDbLine
 10
91.7037086855464736
 20
242.940952255126092
 30
0.0
 11
43.4074173710931177
 21
230.0000000000000284
 31
0.0
  0
LINE
  5
18F
100
AcDbEntity
  8
Plankopf Legende
 62
256
370
-1
 48
1.0
  6
ByLayer
100
AcDbLine
 10
340.0
 20
230.0000000000000853
 30
0.0
 11
340.0
 21
181.7037086855466725
 31
0.0
  0
LINE
  5
190
100
AcDbEntity
  8
Plankopf Legende
 62
256
370
-1
 48
1.0
  6
ByLayer
100
AcDbLine
 10
340.0
 20
230.0000000000000284
 30
0.0
 11
291.7037086855466441
 21
230.0000000000000568
 31
0.0
  0
LINE
  5
191
100
AcDbEntity
  8
Plankopf Legende
 62
256
370
-1
 48
1.0
  6
ByLayer
100
AcDbLine
 10
91.7037086855464736
 20
230.0000000000000568
 30
0.0
 11
91.7037086855464736
 21
181.7037086855466441
 31
0.0
  0
LINE
  5
192
100
AcDbEntity
  8
Plankopf Legende
 62
256
370
-1
 48
1.0
  6
ByLayer
100
AcDbLine
 10
91.7037086855464736
 20
230.0
 30
0.0
 11
43.4074173710931177
 21
230.0000000000000284
 31
0.0
  0
LINE
  5
193
100
AcDbEntity
  8
Plankopf Legende
 62
256
370
-1
 48
1.0
  6
ByLayer
100
AcDbLine
 10
340.0
 20
278.2962913144534696
 30
0.0
 11
340.0
 21
230.0000000000000853
 31
0.0
  0
LINE
  5
194
100
AcDbEntity
  8
Plankopf Legende
 62
256
370
-1
 48
1.0
  6
ByLayer
100
AcDbLine
 10
388.2962913144534696
 20
230.0000000000000568
 30
0.0
 11
340.0
 21
230.0000000000000284
 31
0.0
  0
LINE
  5
195
100
AcDbEntity
  8
Plankopf Legende
 62
256
370
-1
 48
1.0
  6
ByLayer
100
AcDbLine
 10
91.7037086855464736
 20
278.2962913144534696
 30
0.0
 11
91.7037086855464736
 21
230.0000000000000568
 31
0.0
  0
LINE
  5
196
100
AcDbEntity
  8
Plankopf Legende
 62
256
370
-1
 48
1.0
  6
ByLayer
100
AcDbLine
 10
139.9999999999999432
 20
230.0000000000000284
 30
0.0
 11
91.7037086855464736
 21
230.0
 31
0.0
  0
LINE
  5
197
100
AcDbEntity
  8
Plankopf Legende
 62
256
370
-1
 48
1.0
  6
ByLayer
100
AcDbLine
 10
340.0
 20
230.0000000000000853
 30
0.0
 11
352.9409522551260352
 21
230.0000000000000853
 31
0.0
  0
LINE
  5
198
100
AcDbEntity
  8
Plankopf Legende
 62
256
370
-1
 48
1.0
  6
ByLayer
100
AcDbLine
 10
340.0
 20
230.0000000000000284
 30
0.0
 11
340.0
 21
217.0590477448740501
 31
0.0
  0
LINE
  5
199
100
AcDbEntity
  8
Plankopf Legende
 62
256
370
-1
 48
1.0
  6
ByLayer
100
AcDbLine
 10
91.7037086855464736
 20
230.0000000000000568
 30
0.0
 11
104.6446609406725088
 21
230.0000000000000568
 31
0.0
  0
LINE
  5
19A
100
AcDbEntity
  8
Plankopf Legende
 62
256
370
-1
 48
1.0
  6
ByLayer
100
AcDbLine
 10
91.7037086855464736
 20
230.0
 30
0.0
 11
91.7037086855464736
 21
217.0590477448740216
 31
0.0
  0
LINE
  5
19B
100
AcDbEntity
  8
Plankopf Legende
 62
256
370
-1
 48
1.0
  6
ByLayer
100
AcDbLine
 10
352.9409522551260352
 20
230.0000000000000853
 30
0.0
 11
340.0
 21
278.2962913144534127
 31
0.0
  0
LINE
  5
19C
100
AcDbEntity
  8
Plankopf Legende
 62
256
370
-1
 48
1.0
  6
ByLayer
100
AcDbLine
 10
340.0
 20
217.0590477448740501
 30
0.0
 11
388.2962913144533559
 21
230.0000000000000568
 31
0.0
  0
LINE
  5
19D
100
AcDbEntity
  8
Plankopf Legende
 62
256
370
-1
 48
1.0
  6
ByLayer
100
AcDbLine
 10
104.6446609406725088
 20
230.0000000000000568
 30
0.0
 11
91.7037086855464736
 21
278.2962913144533559
 31
0.0
  0
LINE
  5
19E
100
AcDbEntity
  8
Plankopf Legende
 62
256
370
-1
 48
1.0
  6
ByLayer
100
AcDbLine
 10
91.7037086855464736
 20
217.0590477448740216
 30
0.0
 11
139.9999999999998295
 21
230.0000000000000284
 31
0.0
  0
LINE
  5
19F
100
AcDbEntity
  8
Plankopf Legende
 62
256
370
-1
 48
1.0
  6
ByLayer
100
AcDbLine
 10
340.0
 20
230.0000000000000853
 30
0.0
 11
327.0590477448739648
 21
230.0000000000001137
 31
0.0
  0
LINE
  5
1A0
100
AcDbEntity
  8
Plankopf Legende
 62
256
370
-1
 48
1.0
  6
ByLayer
100
AcDbLine
 10
340.0
 20
230.0000000000000284
 30
0.0
 11
340.0
 21
242.9409522551261205
 31
0.0
  0
LINE
  5
1A1
100
AcDbEntity
  8
Plankopf Legende
 62
256
370
-1
 48
1.0
  6
ByLayer
100
AcDbLine
 10
91.7037086855464736
 20
230.0
 30
0.0
 11
91.7037086855464736
 21
242.940952255126092
 31
0.0
  0
LINE
  5
1A2
100
AcDbEntity
  8
Plankopf Legende
 62
256
370
-1
 48
1.0
  6
ByLayer
100
AcDbLine
 10
91.7037086855464736
 20
230.0000000000000568
 30
0.0
 11
78.7627564304204384
 21
230.0000000000000853
 31
0.0
  0
HATCH
  5
1A3
100
AcDbEntity
  8
Plankopf Legende
 62
256
370
-1
 48
1.0
  6
ByLayer
100
AcDbHatch
 10
0.0
 20
0.0
 30
0.0
210
0.0
220
0.0
230
1.0
  2
SOLID
 70
1
 71
0
 91
1
 92
1
 93
6
 72
1
 10
340.0
 20
230.0000000000000853
 11
327.0590477448739648
 21
230.0000000000001137
 72
1
 10
327.0590477448739648
 20
230.0000000000000853
 11
340.0
 21
181.7037086855466725
 72
1
 10
340.0
 20
181.7037086855466725
 11
340.0
 21
230.0000000000000853
 72
1
 10
340.0
 20
230.0000000000000853
 11
352.9409522551260352
 21
230.0000000000000853
 72
1
 10
352.9409522551260352
 20
230.0000000000000853
 11
340.0
 21
278.2962913144534127
 72
1
 10
340.0
 20
278.2962913144534696
 11
340.0
 21
230.0000000000000853
 97
0
 75
0
 76
1
 98
0
1001
ACAD
1010
0.0
1020
0.0
1030
0
  0
HATCH
  5
1A4
100
AcDbEntity
  8
Plankopf Legende
 62
256
370
-1
 48
1.0
  6
ByLayer
100
AcDbHatch
 10
0.0
 20
0.0
 30
0.0
210
0.0
220
0.0
230
1.0
  2
SOLID
 70
1
 71
0
 91
1
 92
1
 93
6
 72
1
 10
340.0
 20
230.0000000000000284
 11
340.0
 21
242.9409522551261205
 72
1
 10
340.0
 20
242.9409522551261205
 11
291.7037086855466441
 21
230.0000000000000568
 72
1
 10
291.7037086855466441
 20
230.0000000000000568
 11
340.0
 21
230.0000000000000284
 72
1
 10
340.0
 20
230.0000000000000284
 11
340.0
 21
217.0590477448740501
 72
1
 10
340.0
 20
217.0590477448740501
 11
388.2962913144533559
 21
230.0000000000000568
 72
1
 10
388.2962913144534696
 20
230.0000000000000568
 11
340.0
 21
230.0000000000000284
 97
0
 75
0
 76
1
 98
0
1001
ACAD
1010
0.0
1020
0.0
1030
0
  0
HATCH
  5
1A5
100
AcDbEntity
  8
Plankopf Legende
 62
256
370
-1
 48
1.0
  6
ByLayer
100
AcDbHatch
 10
0.0
 20
0.0
 30
0.0
210
0.0
220
0.0
230
1.0
  2
SOLID
 70
1
 71
0
 91
1
 92
1
 93
6
 72
1
 10
91.7037086855464736
 20
230.0000000000000568
 11
78.7627564304204384
 21
230.0000000000000853
 72
1
 10
78.7627564304204384
 20
230.0000000000000568
 11
91.7037086855464736
 21
181.7037086855466441
 72
1
 10
91.7037086855464736
 20
181.7037086855466441
 11
91.7037086855464736
 21
230.0000000000000568
 72
1
 10
91.7037086855464736
 20
230.0000000000000568
 11
104.6446609406725088
 21
230.0000000000000568
 72
1
 10
104.6446609406725088
 20
230.0000000000000568
 11
91.7037086855464736
 21
278.2962913144533559
 72
1
 10
91.7037086855464736
 20
278.2962913144534696
 11
91.7037086855464736
 21
230.0000000000000568
 97
0
 75
0
 76
1
 98
0
1001
ACAD
1010
0.0
1020
0.0
1030
0
  0
HATCH
  5
1A6
100
AcDbEntity
  8
Plankopf Legende
 62
256
370
-1
 48
1.0
  6
ByLayer
100
AcDbHatch
 10
0.0
 20
0.0
 30
0.0
210
0.0
220
0.0
230
1.0
  2
SOLID
 70
1
 71
0
 91
1
 92
1
 93
6
 72
1
 10
91.7037086855464736
 20
230.0
 11
91.7037086855464736
 21
242.940952255126092
 72
1
 10
91.7037086855464736
 20
242.940952255126092
 11
43.4074173710931177
 21
230.0000000000000284
 72
1
 10
43.4074173710931177
 20
230.0000000000000284
 11
91.7037086855464736
 21
230.0
 72
1
 10
91.7037086855464736
 20
230.0
 11
91.7037086855464736
 21
217.0590477448740216
 72
1
 10
91.7037086855464736
 20
217.0590477448740216
 11
139.9999999999998295
 21
230.0000000000000284
 72
1
 10
139.9999999999999432
 20
230.0000000000000284
 11
91.7037086855464736
 21
230.0
 97
0
 75
0
 76
1
 98
0
1001
ACAD
1010
0.0
1020
0.0
1030
0
  0
LINE
  5
1A7
100
AcDbEntity
  8
Nordpfeile rot
 62
256
370
-1
 48
1.0
  6
ByLayer
100
AcDbLine
 10
43.4074173710932456
 20
230.0000000000000853
 30
0.0
 11
139.9999999999999147
 21
229.9999999999999716
 31
0.0
  0
LINE
  5
1A8
100
AcDbEntity
  8
Nordpfeile rot
 62
256
370
-1
 48
1.0
  6
ByLayer
100
AcDbLine
 10
91.7037086855464594
 20
181.7037086855467862
 30
0.0
 11
104.6446609406726083
 21
229.9999999999999432
 31
0.0
  0
LINE
  5
1A9
100
AcDbEntity
  8
Nordpfeile rot
 62
256
370
-1
 48
1.0
  6
ByLayer
100
AcDbLine
 10
104.6446609406726083
 20
229.9999999999999432
 30
0.0
 11
91.7037086855464736
 21
230.0000000000000284
 31
0.0
  0
LINE
  5
1AA
100
AcDbEntity
  8
Nordpfeile rot
 62
256
370
-1
 48
1.0
  6
ByLayer
100
AcDbLine
 10
91.7037086855464736
 20
230.0000000000000284
 30
0.0
 11
91.7037086855464594
 21
181.7037086855467294
 31
0.0
  0
HATCH
  5
1AB
100
AcDbEntity
  8
Nordpfeile rot
 62
256
370
-1
 48
1.0
  6
ByLayer
100
AcDbHatch
 10
0.0
 20
0.0
 30
0.0
210
0.0
220
0.0
230
1.0
  2
SOLID
 70
1
 71
0
 91
1
 92
1
 93
3
 72
1
 10
91.7037086855464594
 20
181.7037086855467862
 11
104.6446609406726083
 21
229.9999999999999432
 72
1
 10
104.6446609406726083
 20
229.9999999999999432
 11
91.7037086855464736
 21
230.0000000000000284
 72
1
 10
91.7037086855464736
 20
230.0000000000000284
 11
91.7037086855464594
 21
181.7037086855467294
 97
0
 75
0
 76
1
 98
0
1001
ACAD
1010
0.0
1020
0.0
1030
0
  0
HATCH
  5
1AC
100
AcDbEntity
  8
Nordpfeile rot
 62
256
370
-1
 48
1.0
  6
ByLayer
100
AcDbHatch
 10
0.0
 20
0.0
 30
0.0
210
0.0
220
0.0
230
1.0
  2
SOLID
 70
1
 71
0
 91
1
 92
1
 93
3
 72
1
 10
139.9999999999996589
 20
230.0
 11
91.7037086855464594
 21
242.9409522551261489
 72
1
 10
91.7037086855464594
 20
242.9409522551261489
 11
91.7037086855464594
 21
230.0000000000000284
 72
1
 10
91.7037086855464594
 20
230.0000000000000284
 11
139.9999999999997158
 21
230.0
 97
0
 75
0
 76
1
 98
0
1001
ACAD
1010
0.0
1020
0.0
1030
0
  0
HATCH
  5
1AD
100
AcDbEntity
  8
Nordpfeile rot
 62
256
370
-1
 48
1.0
  6
ByLayer
100
AcDbHatch
 10
0.0
 20
0.0
 30
0.0
210
0.0
220
0.0
230
1.0
  2
SOLID
 70
1
 71
0
 91
1
 92
1
 93
3
 72
1
 10
91.7037086855464594
 20
278.2962913144531854
 11
78.7627564304203105
 21
230.0
 72
1
 10
78.7627564304203105
 20
230.0
 11
91.7037086855464594
 21
230.0000000000000284
 72
1
 10
91.7037086855464594
 20
230.0000000000000284
 11
91.7037086855464594
 21
278.2962913144532422
 97
0
 75
0
 76
1
 98
0
1001
ACAD
1010
0.0
1020
0.0
1030
0
  0
HATCH
  5
1AE
100
AcDbEntity
  8
Nordpfeile rot
 62
256
370
-1
 48
1.0
  6
ByLayer
100
AcDbHatch
 10
0.0
 20
0.0
 30
0.0
210
0.0
220
0.0
230
1.0
  2
SOLID
 70
1
 71
0
 91
1
 92
1
 93
3
 72
1
 10
43.407417371093274
 20
230.0
 11
91.7037086855464594
 21
217.0590477448738511
 72
1
 10
91.7037086855464594
 20
217.0590477448738511
 11
91.7037086855464594
 21
230.0000000000000284
 72
1
 10
91.7037086855464594
 20
230.0000000000000284
 11
43.4074173710932172
 21
230.0
 97
0
 75
0
 76
1
 98
0
1001
ACAD
1010
0.0
1020
0.0
1030
0
  0
LINE
  5
1AF
100
AcDbEntity
  8
Nordpfeile rot
 62
256
370
-1
 48
1.0
  6
ByLayer
100
AcDbLine
 10
91.7037086855464736
 20
278.2962913144532422
 30
0.0
 11
98.174184813109548
 21
230.0
 31
0.0
  0
LINE
  5
1B0
100
AcDbEntity
  8
Nordpfeile rot
 62
256
370
-1
 48
1.0
  6
ByLayer
100
AcDbLine
 10
136.6930765362592979
 20
198.326546293856552
 30
0.0
 11
136.6930765362592979
 21
198.326546293856552
 31
0.0
  0
LINE
  5
1B1
100
AcDbEntity
  8
Nordpfeile rot
 62
256
370
-1
 48
1.0
  6
ByLayer
100
AcDbLine
 10
136.6930765362592979
 20
198.326546293856552
 30
0.0
 11
136.6930765362592979
 21
198.326546293856552
 31
0.0
  0
LINE
  5
1B2
100
AcDbEntity
  8
Nordpfeil blau
 62
256
370
-1
 48
1.0
  6
ByLayer
100
AcDbLine
 10
91.7037086855464594
 20
230.0
 30
0.0
 11
91.7037086855464736
 21
278.2962913144532422
 31
0.0
  0
LINE
  5
1B3
100
AcDbEntity
  8
Nordpfeil blau
 62
256
370
-1
 48
1.0
  6
ByLayer
100
AcDbLine
 10
91.7037086855464878
 20
230.0000000000000568
 30
0.0
 11
98.174184813109548
 21
229.9999999999999716
 31
0.0
  0
LINE
  5
1B4
100
AcDbEntity
  8
Nordpfeil blau
 62
256
370
-1
 48
1.0
  6
ByLayer
100
AcDbLine
 10
98.174184813109548
 20
229.9999999999999716
 30
0.0
 11
91.7037086855464594
 21
278.2962913144532422
 31
0.0
  0
HATCH
  5
1B5
100
AcDbEntity
  8
Nordpfeil blau
 62
256
370
-1
 48
1.0
  6
ByLayer
100
AcDbHatch
 10
0.0
 20
0.0
 30
0.0
210
0.0
220
0.0
230
1.0
  2
SOLID
 70
1
 71
0
 91
1
 92
1
 93
3
 72
1
 10
91.7037086855464594
 20
230.0
 11
91.7037086855464736
 21
278.2962913144532422
 72
1
 10
91.7037086855464594
 20
278.2962913144532422
 11
98.174184813109548
 21
229.9999999999999716
 72
1
 10
98.174184813109548
 20
229.9999999999999716
 11
91.7037086855464878
 21
230.0000000000000568
 97
0
 75
0
 76
1
 98
0
1001
ACAD
1010
0.0
1020
0.0
1030
0
  0
HATCH
  5
1B6
100
AcDbEntity
  8
Nordpfeil blau
 62
256
370
-1
 48
1.0
  6
ByLayer
100
AcDbHatch
 10
0.0
 20
0.0
 30
0.0
210
0.0
220
0.0
230
1.0
  2
SOLID
 70
1
 71
0
 91
1
 92
1
 93
3
 72
1
 10
91.7037086855464452
 20
230.0000000000001137
 11
43.4074173710932598
 21
230.0000000000000853
 72
1
 10
43.4074173710932598
 20
230.0000000000000568
 11
91.7037086855464452
 21
236.4704761275631597
 72
1
 10
91.7037086855464452
 20
236.4704761275631597
 11
91.7037086855464452
 21
230.0000000000001137
 97
0
 75
0
 76
1
 98
0
1001
ACAD
1010
0.0
1020
0.0
1030
0
  0
HATCH
  5
1B7
100
AcDbEntity
  8
Nordpfeil blau
 62
256
370
-1
 48
1.0
  6
ByLayer
100
AcDbHatch
 10
0.0
 20
0.0
 30
0.0
210
0.0
220
0.0
230
1.0
  2
SOLID
 70
1
 71
0
 91
1
 92
1
 93
3
 72
1
 10
91.7037086855464594
 20
230.0000000000001137
 11
91.7037086855464452
 21
181.7037086855468146
 72
1
 10
91.7037086855464452
 20
181.7037086855468146
 11
85.2332325579832997
 21
230.0
 72
1
 10
85.2332325579832997
 20
230.0
 11
91.7037086855464594
 21
230.0000000000001137
 97
0
 75
0
 76
1
 98
0
1001
ACAD
1010
0.0
1020
0.0
1030
0
  0
HATCH
  5
1B8
100
AcDbEntity
  8
Nordpfeil blau
 62
256
370
-1
 48
1.0
  6
ByLayer
100
AcDbHatch
 10
0.0
 20
0.0
 30
0.0
210
0.0
220
0.0
230
1.0
  2
SOLID
 70
1
 71
0
 91
1
 92
1
 93
3
 72
1
 10
91.7037086855464878
 20
230.0000000000001705
 11
139.9999999999998295
 21
230.0000000000000853
 72
1
 10
139.9999999999998295
 20
230.0000000000000853
 11
91.7037086855464878
 21
223.529523872436954
 72
1
 10
91.7037086855464878
 20
223.529523872436954
 11
91.7037086855464878
 21
230.0000000000001705
 97
0
 75
0
 76
1
 98
0
1001
ACAD
1010
0.0
1020
0.0
1030
0
  0
LINE
  5
1B9
100
AcDbEntity
  8
Nordpfeile rot
 62
256
370
-1
 48
1.0
  6
ByLayer
100
AcDbLine
 10
80.0792147254368558
 20
234.9130892430472102
 30
0.0
 11
91.7037086855464594
 21
278.2962913144531285
 31
0.0
  0
MTEXT
  5
1BA
100
AcDbEntity
  8
Nordpfeil Text
 62
256
370
-1
 48
1.0
  6
ByLayer
100
AcDbMText
 10
96.8456066304325702
 20
160.2951913956107433
 30
0.0
 40
8.0
 41
0.0
 71
4
 72
1
  1
\H6;N
  7
textstyle52
 50
0.0
 73
2
 44
1.0
  0
MTEXT
  5
1BB
100
AcDbEntity
  8
Nordpfeil Text
 62
256
370
-1
 48
1.0
  6
ByLayer
100
AcDbMText
 10
220.0000000000000568
 20
269.9999999999999432
 30
0.0
 40
8.0
 41
0.0
 71
4
 72
1
  1
\H6;N
  7
textstyle51
 50
0.0
 73
2
 44
1.0
  0
MTEXT
  5
1BC
100
AcDbEntity
  8
Nordpfeil Text
 62
256
370
-1
 48
1.0
  6
ByLayer
100
AcDbMText
 10
350.0
 20
270.0000000000000568
 30
0.0
 40
8.0
 41
0.0
 71
4
 72
1
  1
\H6;N
  7
textstyle50
 50
0.0
 73
2
 44
1.0
  0
MTEXT
  5
1BD
100
AcDbEntity
  8
Nordpfeil Text
 62
256
370
-1
 48
1.0
  6
ByLayer
100
AcDbMText
 10
100.0
 20
270.0
 30
0.0
 40
8.0
 41
0.0
 71
4
 72
1
  1
\H6;N
  7
textstyle53
 50
0.0
 73
2
 44
1.0
  0
LINE
  5
1BE
100
AcDbEntity
  8
Nordpfeil gruen
 62
256
370
-1
 48
1.0
  6
ByLayer
100
AcDbLine
 10
91.5939464761399762
 20
75.6945706296503147
 30
0.0
 11
81.4065091028573562
 21
65.4767548208890275
 31
0.0
  0
LINE
  5
1BF
100
AcDbEntity
  8
Nordpfeil gruen
 62
256
370
-1
 48
1.0
  6
ByLayer
100
AcDbLine
 10
91.5939464761388678
 20
75.6945706296507694
 30
0.0
 11
101.811762284899018
 21
65.5071332563676663
 31
0.0
  0
LINE
  5
1C0
100
AcDbEntity
  8
Nordpfeil gruen
 62
256
370
-1
 48
1.0
  6
ByLayer
100
AcDbLine
 10
91.5939464761402888
 20
75.6945706296495473
 30
0.0
 11
81.3761306673791438
 21
85.8820080029324799
 31
0.0
  0
LINE
  5
1C1
100
AcDbEntity
  8
Nordpfeil gruen
 62
256
370
-1
 48
1.0
  6
ByLayer
100
AcDbLine
 10
91.5939464761401183
 20
75.6945706296491494
 30
0.0
 11
101.7813838494234489
 21
85.912386438410465
 31
0.0
  0
LINE
  5
1C2
100
AcDbEntity
  8
Nordpfeil gruen
 62
256
370
-1
 48
1.0
  6
ByLayer
100
AcDbLine
 10
210.0000000000002558
 20
230.0000000000003979
 30
0.0
 11
199.7821841912391108
 21
240.1874373732833305
 31
0.0
  0
LINE
  5
1C3
100
AcDbEntity
  8
Nordpfeil gruen
 62
256
370
-1
 48
1.0
  6
ByLayer
100
AcDbLine
 10
209.9999999999999432
 20
230.0000000000011653
 30
0.0
 11
199.8125626267173232
 21
219.7821841912398781
 31
0.0
  0
LINE
  5
1C4
100
AcDbEntity
  8
Nordpfeil gruen
 62
256
370
-1
 48
1.0
  6
ByLayer
100
AcDbLine
 10
209.9999999999988347
 20
230.00000000000162
 30
0.0
 11
220.217815808758985
 21
219.8125626267185169
 31
0.0
  0
LINE
  5
1C5
100
AcDbEntity
  8
Nordpfeil gruen
 62
256
370
-1
 48
1.0
  6
ByLayer
100
AcDbLine
 10
210.0000000000000853
 20
230.0
 30
0.0
 11
220.1874373732834158
 21
240.2178158087613156
 31
0.0
  0
LINE
  5
1C6
100
AcDbEntity
  8
Nordpfeil gruen
 62
256
370
-1
 48
1.0
  6
ByLayer
100
AcDbLine
 10
101.811762284899018
 20
65.5071332563676663
 30
0.0
 11
139.8902377905914136
 21
75.6945706296502863
 31
0.0
  0
LINE
  5
1C7
100
AcDbEntity
  8
Nordpfeil gruen
 62
256
370
-1
 48
1.0
  6
ByLayer
100
AcDbLine
 10
81.4065091028573562
 20
65.4767548208890275
 30
0.0
 11
91.5939464761399762
 21
27.3982793151966462
 31
0.0
  0
LINE
  5
1C8
100
AcDbEntity
  8
Nordpfeil gruen
 62
256
370
-1
 48
1.0
  6
ByLayer
100
AcDbLine
 10
81.3761306673791438
 20
85.8820080029324799
 30
0.0
 11
43.2976551616867624
 21
75.694570629649121
 31
0.0
  0
LINE
  5
1C9
100
AcDbEntity
  8
Nordpfeil gruen
 62
256
370
-1
 48
1.0
  6
ByLayer
100
AcDbLine
 10
101.7813838494234489
 20
85.912386438410465
 30
0.0
 11
91.4417194129919864
 21
159.8680420581919464
 31
0.0
  0
LINE
  5
1CA
100
AcDbEntity
  8
Nordpfeil gruen
 62
256
370
-1
 48
1.0
  6
ByLayer
100
AcDbLine
 10
199.7821841912391108
 20
240.1874373732833305
 30
0.0
 11
161.7037086855467294
 21
229.9999999999999716
 31
0.0
  0
LINE
  5
1CB
100
AcDbEntity
  8
Nordpfeil gruen
 62
256
370
-1
 48
1.0
  6
ByLayer
100
AcDbLine
 10
220.217815808758985
 20
219.8125626267185169
 30
0.0
 11
258.2962913144513664
 21
230.0000000000011369
 31
0.0
  0
LINE
  5
1CC
100
AcDbEntity
  8
Nordpfeil gruen
 62
256
370
-1
 48
1.0
  6
ByLayer
100
AcDbLine
 10
199.8125626267173232
 20
219.7821841912398781
 30
0.0
 11
209.9999999999999432
 21
181.7037086855474968
 31
0.0
  0
LINE
  5
1CD
100
AcDbEntity
  8
Nordpfeil gruen
 62
256
370
-1
 48
1.0
  6
ByLayer
100
AcDbLine
 10
220.1874373732834158
 20
240.2178158087613156
 30
0.0
 11
210.0000000000000284
 21
278.2962913144536969
 31
0.0
  0
LINE
  5
1CE
100
AcDbEntity
  8
Nordpfeil gruen
 62
256
370
-1
 48
1.0
  6
ByLayer
100
AcDbLine
 10
43.2976551616867624
 20
75.694570629649121
 30
0.0
 11
91.5939464761402888
 21
75.6945706296497463
 31
0.0
  0
LINE
  5
1CF
100
AcDbEntity
  8
Nordpfeil gruen
 62
256
370
-1
 48
1.0
  6
ByLayer
100
AcDbLine
 10
139.8902377905914136
 20
75.6945706296502863
 30
0.0
 11
91.5939464761388678
 21
75.6945706296506842
 31
0.0
  0
LINE
  5
1D0
100
AcDbEntity
  8
Nordpfeil gruen
 62
256
370
-1
 48
1.0
  6
ByLayer
100
AcDbLine
 10
91.5939464761399762
 20
27.3982793151966462
 30
0.0
 11
91.5939464761399762
 21
75.694570629650201
 31
0.0
  0
LINE
  5
1D1
100
AcDbEntity
  8
Nordpfeil gruen
 62
256
370
-1
 48
1.0
  6
ByLayer
100
AcDbLine
 10
91.4417194129919864
 20
159.8680420581918895
 30
0.0
 11
91.5939464761399762
 21
75.6945706296490357
 31
0.0
  0
LINE
  5
1D2
100
AcDbEntity
  8
Nordpfeil gruen
 62
256
370
-1
 48
1.0
  6
ByLayer
100
AcDbLine
 10
209.9999999999999432
 20
181.7037086855474968
 30
0.0
 11
209.9999999999999432
 21
230.0000000000010516
 31
0.0
  0
LINE
  5
1D3
100
AcDbEntity
  8
Nordpfeil gruen
 62
256
370
-1
 48
1.0
  6
ByLayer
100
AcDbLine
 10
161.7037086855467294
 20
229.9999999999999716
 30
0.0
 11
210.0000000000002558
 21
230.0000000000005969
 31
0.0
  0
LINE
  5
1D4
100
AcDbEntity
  8
Nordpfeil gruen
 62
256
370
-1
 48
1.0
  6
ByLayer
100
AcDbLine
 10
258.2962913144513664
 20
230.0000000000011369
 30
0.0
 11
209.9999999999988347
 21
230.0000000000015348
 31
0.0
  0
LINE
  5
1D5
100
AcDbEntity
  8
Nordpfeil gruen
 62
256
370
-1
 48
1.0
  6
ByLayer
100
AcDbLine
 10
210.0000000000000284
 20
278.2962913144536969
 30
0.0
 11
209.9999999999999432
 21
229.9999999999998863
 31
0.0
  0
HATCH
  5
1D6
100
AcDbEntity
  8
Nordpfeil gruen
 62
256
370
-1
 48
1.0
  6
ByLayer
100
AcDbHatch
 10
0.0
 20
0.0
 30
0.0
210
0.0
220
0.0
230
1.0
  2
SOLID
 70
1
 71
0
 91
1
 92
1
 93
3
 72
1
 10
91.5939464761399762
 20
75.6945706296503147
 11
81.4065091028573562
 21
65.4767548208890275
 72
1
 10
81.4065091028573562
 20
65.4767548208890275
 11
91.5939464761399762
 21
27.3982793151966462
 72
1
 10
91.5939464761399762
 20
27.3982793151966462
 11
91.5939464761399762
 21
75.694570629650201
 97
0
 75
0
 76
1
 98
0
1001
ACAD
1010
0.0
1020
0.0
1030
0
  0
HATCH
  5
1D7
100
AcDbEntity
  8
Nordpfeil gruen
 62
256
370
-1
 48
1.0
  6
ByLayer
100
AcDbHatch
 10
0.0
 20
0.0
 30
0.0
210
0.0
220
0.0
230
1.0
  2
SOLID
 70
1
 71
0
 91
1
 92
1
 93
3
 72
1
 10
91.5939464761388678
 20
75.6945706296507694
 11
101.811762284899018
 21
65.5071332563676663
 72
1
 10
101.811762284899018
 20
65.5071332563676663
 11
139.8902377905914136
 21
75.6945706296502863
 72
1
 10
139.8902377905914136
 20
75.6945706296502863
 11
91.5939464761388678
 21
75.6945706296506842
 97
0
 75
0
 76
1
 98
0
1001
ACAD
1010
0.0
1020
0.0
1030
0
  0
HATCH
  5
1D8
100
AcDbEntity
  8
Nordpfeil gruen
 62
256
370
-1
 48
1.0
  6
ByLayer
100
AcDbHatch
 10
0.0
 20
0.0
 30
0.0
210
0.0
220
0.0
230
1.0
  2
SOLID
 70
1
 71
0
 91
1
 92
1
 93
3
 72
1
 10
91.5939464761402888
 20
75.6945706296495473
 11
81.3761306673791438
 21
85.8820080029324799
 72
1
 10
81.3761306673791438
 20
85.8820080029324799
 11
43.2976551616867624
 21
75.694570629649121
 72
1
 10
43.2976551616867624
 20
75.694570629649121
 11
91.5939464761402888
 21
75.6945706296497463
 97
0
 75
0
 76
1
 98
0
1001
ACAD
1010
0.0
1020
0.0
1030
0
  0
HATCH
  5
1D9
100
AcDbEntity
  8
Nordpfeil gruen
 62
256
370
-1
 48
1.0
  6
ByLayer
100
AcDbHatch
 10
0.0
 20
0.0
 30
0.0
210
0.0
220
0.0
230
1.0
  2
SOLID
 70
1
 71
0
 91
1
 92
1
 93
3
 72
1
 10
210.0000000000002558
 20
230.0000000000003979
 11
199.7821841912391108
 21
240.1874373732833305
 72
1
 10
199.7821841912391108
 20
240.1874373732833305
 11
161.7037086855467294
 21
229.9999999999999716
 72
1
 10
161.7037086855467294
 20
229.9999999999999716
 11
210.0000000000002558
 21
230.0000000000005969
 97
0
 75
0
 76
1
 98
0
1001
ACAD
1010
0.0
1020
0.0
1030
0
  0
HATCH
  5
1DA
100
AcDbEntity
  8
Nordpfeil gruen
 62
256
370
-1
 48
1.0
  6
ByLayer
100
AcDbHatch
 10
0.0
 20
0.0
 30
0.0
210
0.0
220
0.0
230
1.0
  2
SOLID
 70
1
 71
0
 91
1
 92
1
 93
3
 72
1
 10
209.9999999999999432
 20
230.0000000000011653
 11
199.8125626267173232
 21
219.7821841912398781
 72
1
 10
199.8125626267173232
 20
219.7821841912398781
 11
209.9999999999999432
 21
181.7037086855474968
 72
1
 10
209.9999999999999432
 20
181.7037086855474968
 11
209.9999999999999432
 21
230.0000000000010516
 97
0
 75
0
 76
1
 98
0
1001
ACAD
1010
0.0
1020
0.0
1030
0
  0
HATCH
  5
1DB
100
AcDbEntity
  8
Nordpfeil gruen
 62
256
370
-1
 48
1.0
  6
ByLayer
100
AcDbHatch
 10
0.0
 20
0.0
 30
0.0
210
0.0
220
0.0
230
1.0
  2
SOLID
 70
1
 71
0
 91
1
 92
1
 93
3
 72
1
 10
209.9999999999988347
 20
230.00000000000162
 11
220.217815808758985
 21
219.8125626267185169
 72
1
 10
220.217815808758985
 20
219.8125626267185169
 11
258.2962913144513664
 21
230.0000000000011369
 72
1
 10
258.2962913144513664
 20
230.0000000000011369
 11
209.9999999999988347
 21
230.0000000000015348
 97
0
 75
0
 76
1
 98
0
1001
ACAD
1010
0.0
1020
0.0
1030
0
  0
HATCH
  5
1DC
100
AcDbEntity
  8
Nordpfeil gruen
 62
256
370
-1
 48
1.0
  6
ByLayer
100
AcDbHatch
 10
0.0
 20
0.0
 30
0.0
210
0.0
220
0.0
230
1.0
  2
SOLID
 70
1
 71
0
 91
1
 92
1
 93
3
 72
1
 10
210.0000000000000853
 20
230.0
 11
220.1874373732834158
 21
240.2178158087613156
 72
1
 10
220.1874373732834158
 20
240.2178158087613156
 11
210.0000000000000284
 21
278.2962913144536969
 72
1
 10
210.0000000000000284
 20
278.2962913144536969
 11
209.9999999999999432
 21
229.9999999999998863
 97
0
 75
0
 76
1
 98
0
1001
ACAD
1010
0.0
1020
0.0
1030
0
  0
LINE
  5
1DD
100
AcDbEntity
  8
Nordpfeil gruen
 62
256
370
-1
 48
1.0
  6
ByLayer
100
AcDbLine
 10
91.4417194129919864
 20
159.8680420581918895
 30
0.0
 11
81.3761306673791722
 21
85.8820080029324799
 31
0.0
  0
LINE
  5
1DE
100
AcDbEntity
  8
Nordpfeil gruen
 62
256
370
-1
 48
1.0
  6
ByLayer
100
AcDbLine
 10
210.0000000000000568
 20
278.2962913144536401
 30
0.0
 11
199.7821841912391392
 21
240.1874373732833305
 31
0.0
  0
LINE
  5
1DF
100
AcDbEntity
  8
Nordpfeil gruen
 62
256
370
-1
 48
1.0
  6
ByLayer
100
AcDbLine
 10
43.2976551616868477
 20
75.6945706296490926
 30
0.0
 11
81.4065091028573562
 21
65.4767548208889991
 31
0.0
  0
LINE
  5
1E0
100
AcDbEntity
  8
Nordpfeil gruen
 62
256
370
-1
 48
1.0
  6
ByLayer
100
AcDbLine
 10
161.7037086855468146
 20
229.9999999999999432
 30
0.0
 11
199.8125626267173232
 21
219.7821841912398497
 31
0.0
  0
LINE
  5
1E1
100
AcDbEntity
  8
Nordpfeil gruen
 62
256
370
-1
 48
1.0
  6
ByLayer
100
AcDbLine
 10
91.5939464761399762
 20
27.3982793151965609
 30
0.0
 11
101.8117622848990464
 21
65.5071332563677231
 31
0.0
  0
LINE
  5
1E2
100
AcDbEntity
  8
Nordpfeil gruen
 62
256
370
-1
 48
1.0
  6
ByLayer
100
AcDbLine
 10
209.9999999999999432
 20
181.7037086855474115
 30
0.0
 11
220.2178158087590134
 21
219.8125626267185737
 31
0.0
  0
LINE
  5
1E3
100
AcDbEntity
  8
Nordpfeil gruen
 62
256
370
-1
 48
1.0
  6
ByLayer
100
AcDbLine
 10
101.7813838494234204
 20
85.9123864384104365
 30
0.0
 11
139.8902377905913568
 21
75.6945706296502863
 31
0.0
  0
LINE
  5
1E4
100
AcDbEntity
  8
Nordpfeil gruen
 62
256
370
-1
 48
1.0
  6
ByLayer
100
AcDbLine
 10
220.1874373732833874
 20
240.2178158087612871
 30
0.0
 11
258.2962913144513095
 21
230.0000000000011369
 31
0.0
  0
LINE
  5
1E5
100
AcDbEntity
  8
Nordpfeil gruen
 62
256
370
-1
 48
1.0
  6
ByLayer
100
AcDbLine
 10
101.7813838494234204
 20
85.9123864384104365
 30
0.0
 11
115.9235194731543714
 21
100.0545220621413876
 31
0.0
  0
LINE
  5
1E6
100
AcDbEntity
  8
Nordpfeil gruen
 62
256
370
-1
 48
1.0
  6
ByLayer
100
AcDbLine
 10
220.1874373732833874
 20
240.2178158087612871
 30
0.0
 11
234.3295729970143384
 21
254.3599514324922382
 31
0.0
  0
LINE
  5
1E7
100
AcDbEntity
  8
Nordpfeil gruen
 62
256
370
-1
 48
1.0
  6
ByLayer
100
AcDbLine
 10
199.8125626267219559
 20
219.7821841888525114
 30
0.0
 11
185.6704270048420256
 21
205.6400485703005927
 31
0.0
  0
LINE
  5
1E8
100
AcDbEntity
  8
Nordpfeil gruen
 62
256
370
-1
 48
1.0
  6
ByLayer
100
AcDbLine
 10
81.376130667386505
 20
85.8820080029251471
 30
0.0
 11
67.233995043655554
 21
100.0241436266561266
 31
0.0
  0
LINE
  5
1E9
100
AcDbEntity
  8
Nordpfeil gruen
 62
256
370
-1
 48
1.0
  6
ByLayer
100
AcDbLine
 10
81.4065091028619889
 20
65.4767548185016608
 30
0.0
 11
67.2643734809820586
 21
51.3346191999497421
 31
0.0
  0
LINE
  5
1EA
100
AcDbEntity
  8
Nordpfeil gruen
 62
256
370
-1
 48
1.0
  6
ByLayer
100
AcDbLine
 10
101.7813838494065379
 20
85.9123864383891203
 30
0.0
 11
115.9235194731193275
 21
100.0545220621275746
 31
0.0
  0
LINE
  5
1EB
100
AcDbEntity
  8
Nordpfeil gruen
 62
256
370
-1
 48
1.0
  6
ByLayer
100
AcDbLine
 10
101.8117622823178152
 20
65.507133254739955
 30
0.0
 11
115.9538979049576
 21
51.3649976311733667
 31
0.0
  0
LINE
  5
1EC
100
AcDbEntity
  8
Nordpfeil gruen
 62
256
370
-1
 48
1.0
  6
ByLayer
100
AcDbLine
 10
220.1874373732665049
 20
240.2178158087399709
 30
0.0
 11
234.3295729969792944
 21
254.3599514324784252
 31
0.0
  0
LINE
  5
1ED
100
AcDbEntity
  8
Nordpfeil gruen
 62
256
370
-1
 48
1.0
  6
ByLayer
100
AcDbLine
 10
220.2178158061777822
 20
219.8125626250908056
 30
0.0
 11
234.3599514288175669
 21
205.6704270015242173
 31
0.0
  0
LINE
  5
1EE
100
AcDbEntity
  8
Nordpfeil gruen
 62
256
370
-1
 48
1.0
  6
ByLayer
100
AcDbLine
 10
199.782184191246472
 20
240.1874373732759977
 30
0.0
 11
185.640048567515521
 21
254.3295729970069772
 31
0.0
  0
LINE
  5
1EF
100
AcDbEntity
  8
Nordpfeil gruen
 62
256
370
-1
 48
1.0
  6
ByLayer
100
AcDbLine
 10
81.4065091028573562
 20
65.4767548208889707
 30
0.0
 11
67.2643734791264052
 21
51.3346191971580197
 31
0.0
  0
LINE
  5
1F0
100
AcDbEntity
  8
Nordpfeil gruen
 62
256
370
-1
 48
1.0
  6
ByLayer
100
AcDbLine
 10
199.8125626267173232
 20
219.7821841912398213
 30
0.0
 11
185.6704270029863721
 21
205.6400485675088703
 31
0.0
  0
LINE
  5
1F1
100
AcDbEntity
  8
Nordpfeil gruen
 62
256
370
-1
 48
1.0
  6
ByLayer
100
AcDbLine
 10
101.8117622848990464
 20
65.5071332563677231
 30
0.0
 11
115.9538979086299975
 21
51.3649976326367721
 31
0.0
  0
LINE
  5
1F2
100
AcDbEntity
  8
Nordpfeil gruen
 62
256
370
-1
 48
1.0
  6
ByLayer
100
AcDbLine
 10
220.2178158087590134
 20
219.8125626267185737
 30
0.0
 11
234.3599514324899644
 21
205.6704270029876227
 31
0.0
  0
LINE
  5
1F3
100
AcDbEntity
  8
Nordpfeil gruen
 62
256
370
-1
 48
1.0
  6
ByLayer
100
AcDbLine
 10
67.2339950436481644
 20
100.0241436266634025
 30
0.0
 11
76.2339950436481644
 21
84.4356863585435065
 31
0.0
  0
LINE
  5
1F4
100
AcDbEntity
  8
Nordpfeil gruen
 62
256
370
-1
 48
1.0
  6
ByLayer
100
AcDbLine
 10
185.6400485675081313
 20
254.3295729970142531
 30
0.0
 11
194.6400485675081313
 21
238.7411157288943571
 31
0.0
  0
LINE
  5
1F5
100
AcDbEntity
  8
Nordpfeil gruen
 62
256
370
-1
 48
1.0
  6
ByLayer
100
AcDbLine
 10
185.6704270048420256
 20
205.6400485703005927
 30
0.0
 11
194.6366285171077379
 21
221.1699651404456404
 31
0.0
  0
LINE
  5
1F6
100
AcDbEntity
  8
Nordpfeil gruen
 62
256
370
-1
 48
1.0
  6
ByLayer
100
AcDbLine
 10
185.6704286139257647
 20
205.6400469612168536
 30
0.0
 11
201.2003451840708408
 21
214.6062484734825091
 31
0.0
  0
LINE
  5
1F7
100
AcDbEntity
  8
Nordpfeil gruen
 62
256
370
-1
 48
1.0
  6
ByLayer
100
AcDbLine
 10
234.3295729969793229
 20
254.3599514324784536
 30
0.0
 11
218.7996564268341899
 21
245.3937499202127697
 31
0.0
  0
LINE
  5
1F8
100
AcDbEntity
  8
Nordpfeil gruen
 62
256
370
-1
 48
1.0
  6
ByLayer
100
AcDbLine
 10
234.3599514531201748
 20
205.6704269874931015
 30
0.0
 11
225.3937499216876574
 21
221.2003435768050394
 31
0.0
  0
LINE
  5
1F9
100
AcDbEntity
  8
Nordpfeil gruen
 62
256
370
-1
 48
1.0
  6
ByLayer
100
AcDbLine
 10
67.233995043655554
 20
100.0241436266561266
 30
0.0
 11
82.1300866844564013
 21
91.4238811079664089
 31
0.0
  0
LINE
  5
1FA
100
AcDbEntity
  8
Nordpfeil gruen
 62
256
370
-1
 48
1.0
  6
ByLayer
100
AcDbLine
 10
115.9235194731193275
 20
100.0545220621275746
 30
0.0
 11
106.9573179608536151
 21
84.5246054919825269
 31
0.0
  0
LINE
  5
1FB
100
AcDbEntity
  8
Nordpfeil gruen
 62
256
370
-1
 48
1.0
  6
ByLayer
100
AcDbLine
 10
115.9235194731193559
 20
100.054522062127603
 30
0.0
 11
101.008137352299002
 21
91.4431221796058793
 31
0.0
  0
LINE
  5
1FC
100
AcDbEntity
  8
Nordpfeil gruen
 62
256
370
-1
 48
1.0
  6
ByLayer
100
AcDbLine
 10
115.9538979292602079
 20
51.3649976171422509
 30
0.0
 11
106.9876963978276905
 21
66.8949142064541888
 31
0.0
  0
LINE
  5
1FD
100
AcDbEntity
  8
Nordpfeil gruen
 62
256
370
-1
 48
1.0
  6
ByLayer
100
AcDbLine
 10
67.2643734809820586
 20
51.3346191999497421
 30
0.0
 11
76.230574993247771
 21
66.8645357700947898
 31
0.0
  0
LINE
  5
1FE
100
AcDbEntity
  8
Nordpfeil gruen
 62
256
370
-1
 48
1.0
  6
ByLayer
100
AcDbLine
 10
67.2643750900657977
 20
51.334617590866003
 30
0.0
 11
82.7942916602108738
 21
60.3008191031316585
 31
0.0
  0
LINE
  5
1FF
100
AcDbEntity
  8
Nordpfeil gruen
 62
256
370
-1
 48
1.0
  6
ByLayer
100
AcDbLine
 10
115.9538979049576
 20
51.3649976311733667
 30
0.0
 11
100.4239813348125523
 21
60.3311991434390791
 31
0.0
  0
LINE
  5
200
100
AcDbEntity
  8
Nordpfeil gruen
 62
256
370
-1
 48
1.0
  6
ByLayer
100
AcDbLine
 10
185.640048567515521
 20
254.3295729970069772
 30
0.0
 11
201.1699651376605686
 21
245.3633714847412648
 31
0.0
  0
LINE
  5
201
100
AcDbEntity
  8
Nordpfeil gruen
 62
256
370
-1
 48
1.0
  6
ByLayer
100
AcDbLine
 10
234.3295729969792944
 20
254.3599514324784252
 30
0.0
 11
225.363371484713582
 21
238.8300348623333775
 31
0.0
  0
LINE
  5
202
100
AcDbEntity
  8
Nordpfeil gruen
 62
256
370
-1
 48
1.0
  6
ByLayer
100
AcDbLine
 10
234.3599514288175669
 20
205.6704270015242173
 30
0.0
 11
218.8300348586725192
 21
214.6366285137899297
 31
0.0
  0
LINE
  5
203
100
AcDbEntity
  8
Nordpfeil gruen
 62
256
370
-1
 48
1.0
  6
ByLayer
100
AcDbLine
 10
199.8125626267219559
 20
219.7821841888504082
 30
0.0
 11
194.6366285171078232
 21
221.1699651404456404
 31
0.0
  0
LINE
  5
204
100
AcDbEntity
  8
Nordpfeil gruen
 62
256
370
-1
 48
1.0
  6
ByLayer
100
AcDbLine
 10
81.3761306673798259
 20
85.8820080029348674
 30
0.0
 11
82.1300866844564013
 21
91.4238811079663947
 31
0.0
  0
LINE
  5
205
100
AcDbEntity
  8
Nordpfeil gruen
 62
256
370
-1
 48
1.0
  6
ByLayer
100
AcDbLine
 10
101.7813838494065379
 20
85.9123864384005458
 30
0.0
 11
106.9573179608535298
 21
84.5246054919825269
 31
0.0
  0
LINE
  5
206
100
AcDbEntity
  8
Nordpfeil gruen
 62
256
370
-1
 48
1.0
  6
ByLayer
100
AcDbLine
 10
101.8117622823178152
 20
65.5071332547429392
 30
0.0
 11
100.4239813348125523
 21
60.3311991434391643
 31
0.0
  0
LINE
  5
207
100
AcDbEntity
  8
Nordpfeil gruen
 62
256
370
-1
 48
1.0
  6
ByLayer
100
AcDbLine
 10
81.4065091028619889
 20
65.4767548184995576
 30
0.0
 11
76.2305749932478562
 21
66.8645357700947898
 31
0.0
  0
LINE
  5
208
100
AcDbEntity
  8
Nordpfeil gruen
 62
256
370
-1
 48
1.0
  6
ByLayer
100
AcDbLine
 10
199.7821841912397929
 20
240.187437373285718
 30
0.0
 11
201.1699651376605686
 21
245.3633714847411795
 31
0.0
  0
LINE
  5
209
100
AcDbEntity
  8
Nordpfeil gruen
 62
256
370
-1
 48
1.0
  6
ByLayer
100
AcDbLine
 10
220.1874373732665049
 20
240.2178158087513964
 30
0.0
 11
225.3633714847134968
 21
238.8300348623333775
 31
0.0
  0
LINE
  5
20A
100
AcDbEntity
  8
Nordpfeil gruen
 62
256
370
-1
 48
1.0
  6
ByLayer
100
AcDbLine
 10
220.2178158061777822
 20
219.8125626250937898
 30
0.0
 11
218.8300348586725192
 21
214.6366285137900149
 31
0.0
  0
HATCH
  5
20B
100
AcDbEntity
  8
Nordpfeil gruen
 62
256
370
-1
 48
1.0
  6
ByLayer
100
AcDbHatch
 10
0.0
 20
0.0
 30
0.0
210
0.0
220
0.0
230
1.0
  2
SOLID
 70
1
 71
0
 91
1
 92
1
 93
3
 72
1
 10
185.6704270072333145
 20
205.6400469636081141
 11
194.6366285194990269
 21
221.1699635337531618
 72
1
 10
194.6366285194991121
 20
221.1699635337531618
 11
199.812562630802887
 21
219.7821825862478988
 72
1
 10
199.8125626307999028
 20
219.7821825862478988
 11
185.6704270072333145
 21
205.6400469636081141
 97
0
 75
0
 76
1
 98
0
1001
ACAD
1010
0.0
1020
0.0
1030
0
  0
HATCH
  5
20C
100
AcDbEntity
  8
Nordpfeil gruen
 62
256
370
-1
 48
1.0
  6
ByLayer
100
AcDbHatch
 10
0.0
 20
0.0
 30
0.0
210
0.0
220
0.0
230
1.0
  2
SOLID
 70
1
 71
0
 91
1
 92
1
 93
3
 72
1
 10
185.640048567515521
 20
254.3295729970069772
 11
201.1699651376605686
 21
245.3633714847412648
 72
1
 10
201.1699651376605686
 20
245.3633714847411795
 11
199.7821841912397929
 21
240.187437373285718
 72
1
 10
199.782184191246472
 20
240.1874373732759977
 11
185.640048567515521
 21
254.3295729970069772
 97
0
 75
0
 76
1
 98
0
1001
ACAD
1010
0.0
1020
0.0
1030
0
  0
HATCH
  5
20D
100
AcDbEntity
  8
Nordpfeil gruen
 62
256
370
-1
 48
1.0
  6
ByLayer
100
AcDbHatch
 10
0.0
 20
0.0
 30
0.0
210
0.0
220
0.0
230
1.0
  2
SOLID
 70
1
 71
0
 91
1
 92
1
 93
3
 72
1
 10
115.9235194731193275
 20
100.0545220621275746
 11
106.9573179608536151
 21
84.5246054919825269
 72
1
 10
106.9573179608535298
 20
84.5246054919825269
 11
101.7813838494065379
 21
85.9123864384005458
 72
1
 10
101.7813838494065379
 20
85.9123864383891203
 11
115.9235194731193275
 21
100.0545220621275746
 97
0
 75
0
 76
1
 98
0
1001
ACAD
1010
0.0
1020
0.0
1030
0
  0
HATCH
  5
20E
100
AcDbEntity
  8
Nordpfeil gruen
 62
256
370
-1
 48
1.0
  6
ByLayer
100
AcDbHatch
 10
0.0
 20
0.0
 30
0.0
210
0.0
220
0.0
230
1.0
  2
SOLID
 70
1
 71
0
 91
1
 92
1
 93
3
 72
1
 10
115.9538979049576
 20
51.3649976311733667
 11
100.4239813348125523
 21
60.3311991434390791
 72
1
 10
100.4239813348125523
 20
60.3311991434391643
 11
101.8117622823178152
 21
65.5071332547429392
 72
1
 10
101.8117622823178152
 20
65.507133254739955
 11
115.9538979049576
 21
51.3649976311733667
 97
0
 75
0
 76
1
 98
0
1001
ACAD
1010
0.0
1020
0.0
1030
0
  0
HATCH
  5
20F
100
AcDbEntity
  8
Nordpfeil gruen
 62
256
370
-1
 48
1.0
  6
ByLayer
100
AcDbHatch
 10
0.0
 20
0.0
 30
0.0
210
0.0
220
0.0
230
1.0
  2
SOLID
 70
1
 71
0
 91
1
 92
1
 93
3
 72
1
 10
67.2643734833733475
 20
51.3346175932572635
 11
76.2305749956390599
 21
66.8645341634023112
 72
1
 10
76.2305749956391452
 20
66.8645341634023112
 11
81.4065091069429201
 21
65.4767532158970482
 72
1
 10
81.4065091069399358
 20
65.4767532158970482
 11
67.2643734833733475
 21
51.3346175932572635
 97
0
 75
0
 76
1
 98
0
1001
ACAD
1010
0.0
1020
0.0
1030
0
  0
HATCH
  5
210
100
AcDbEntity
  8
Nordpfeil gruen
 62
256
370
-1
 48
1.0
  6
ByLayer
100
AcDbHatch
 10
0.0
 20
0.0
 30
0.0
210
0.0
220
0.0
230
1.0
  2
SOLID
 70
1
 71
0
 91
1
 92
1
 93
3
 72
1
 10
234.3295729969792944
 20
254.3599514324784252
 11
225.363371484713582
 21
238.8300348623333775
 72
1
 10
225.3633714847134968
 20
238.8300348623333775
 11
220.1874373732665049
 21
240.2178158087513964
 72
1
 10
220.1874373732665049
 20
240.2178158087399709
 11
234.3295729969792944
 21
254.3599514324784252
 97
0
 75
0
 76
1
 98
0
1001
ACAD
1010
0.0
1020
0.0
1030
0
  0
HATCH
  5
211
100
AcDbEntity
  8
Nordpfeil gruen
 62
256
370
-1
 48
1.0
  6
ByLayer
100
AcDbHatch
 10
0.0
 20
0.0
 30
0.0
210
0.0
220
0.0
230
1.0
  2
SOLID
 70
1
 71
0
 91
1
 92
1
 93
3
 72
1
 10
234.3599514288175669
 20
205.6704270015242173
 11
218.8300348586725192
 21
214.6366285137899297
 72
1
 10
218.8300348586725192
 20
214.6366285137900149
 11
220.2178158061777822
 21
219.8125626250937898
 72
1
 10
220.2178158061777822
 20
219.8125626250908056
 11
234.3599514288175669
 21
205.6704270015242173
 97
0
 75
0
 76
1
 98
0
1001
ACAD
1010
0.0
1020
0.0
1030
0
  0
HATCH
  5
212
100
AcDbEntity
  8
Nordpfeil gruen
 62
256
370
-1
 48
1.0
  6
ByLayer
100
AcDbHatch
 10
0.0
 20
0.0
 30
0.0
210
0.0
220
0.0
230
1.0
  2
SOLID
 70
1
 71
0
 91
1
 92
1
 93
3
 72
1
 10
101.7813838494234489
 20
85.912386438410465
 11
91.4417194129919864
 21
159.8680420581919464
 72
1
 10
91.4417194129919864
 20
159.8680420581918895
 11
91.5939464761399762
 21
75.6945706296490357
 72
1
 10
91.5939464761401183
 20
75.6945706296491494
 11
101.7813838494234489
 21
85.912386438410465
 97
0
 75
0
 76
1
 98
0
1001
ACAD
1010
0.0
1020
0.0
1030
0
  0
HATCH
  5
213
100
AcDbEntity
  8
Nordpfeil gruen
 62
256
370
-1
 48
1.0
  6
ByLayer
100
AcDbHatch
 10
0.0
 20
0.0
 30
0.0
210
0.0
220
0.0
230
1.0
  2
SOLID
 70
1
 71
0
 91
1
 92
1
 93
3
 72
1
 10
81.3761306673798259
 20
85.8820080029348674
 11
82.1300866844564013
 21
91.4238811079663947
 72
1
 10
82.1300866844564013
 20
91.4238811079664089
 11
67.233995043655554
 21
100.0241436266561266
 72
1
 10
67.233995043655554
 20
100.0241436266561266
 11
81.376130667386505
 21
85.8820080029251471
 97
0
 75
0
 76
1
 98
0
1001
ACAD
1010
0.0
1020
0.0
1030
0
  0
ENDSEC
  0
SECTION
  2
OBJECTS
  0
DICTIONARY
  5
C
100
AcDbDictionary
280
0
281
1
  3
ACAD_GROUP
350
D
  3
ACAD_LAYOUT
350
1A
  3
ACAD_MLINESTYLE
350
17
  3
ACAD_PLOTSETTINGS
350
19
  3
ACAD_PLOTSTYLENAME
350
E
  3
AcDbVariableDictionary
350
214
  3
QCAD_OBJECTS
350
215
  0
DICTIONARY
  5
D
100
AcDbDictionary
280
0
281
1
  0
ACDBDICTIONARYWDFLT
  5
E
100
AcDbDictionary
281
1
  3
Normal
350
F
100
AcDbDictionaryWithDefault
340
F
  0
ACDBPLACEHOLDER
  5
F
  0
DICTIONARY
  5
17
100
AcDbDictionary
280
0
281
1
  3
Standard
350
18
  0
MLINESTYLE
  5
18
100
AcDbMlineStyle
  2
STANDARD
 70
0
  3

 62
256
 51
90.0
 52
90.0
 71
2
 49
0.5
 62
256
  6
BYLAYER
 49
-0.5
 62
256
  6
BYLAYER
  0
DICTIONARY
  5
19
100
AcDbDictionary
280
0
281
1
  0
DICTIONARY
  5
1A
100
AcDbDictionary
281
1
  3
Layout1
350
1E
  3
Layout2
350
26
  3
Model
350
22
  0
LAYOUT
  5
1E
100
AcDbPlotSettings
  1

  2
none_device
  4

  6

 40
0.0
 41
0.0
 42
0.0
 43
0.0
 44
0.0
 45
0.0
 46
0.0
 47
0.0
 48
0.0
 49
0.0
140
0.0
141
0.0
142
1.0
143
1.0
 70
688
 72
0
 73
0
 74
5
  7

 75
16
147
1.0
148
0.0
149
0.0
100
AcDbLayout
  1
Layout1
 70
1
 71
1
 10
0.0
 20
0.0
 11
420.0
 21
297.0
 12
0.0
 22
0.0
 32
0.0
 14
100000000000000000000.0
 24
100000000000000000000.0
 34
100000000000000000000.0
 15
-100000000000000000000.0
 25
-100000000000000000000.0
 35
-100000000000000000000.0
146
0.0
 13
0.0
 23
0.0
 33
0.0
 16
1.0
 26
0.0
 36
0.0
 17
0.0
 27
1.0
 37
0.0
 76
0
330
1B
  0
LAYOUT
  5
22
100
AcDbPlotSettings
  1

  2
none_device
  4

  6

 40
0.0
 41
0.0
 42
0.0
 43
0.0
 44
0.0
 45
0.0
 46
0.0
 47
0.0
 48
0.0
 49
0.0
140
0.0
141
0.0
142
1.0
143
1.0
 70
1712
 72
0
 73
0
 74
0
  7

 75
0
147
1.0
148
0.0
149
0.0
100
AcDbLayout
  1
Model
 70
1
 71
0
 10
0.0
 20
0.0
 11
12.0
 21
9.0
 12
0.0
 22
0.0
 32
0.0
 14
0.0
 24
0.0
 34
0.0
 15
0.0
 25
0.0
 35
0.0
146
0.0
 13
0.0
 23
0.0
 33
0.0
 16
1.0
 26
0.0
 36
0.0
 17
0.0
 27
1.0
 37
0.0
 76
0
330
1F
  0
LAYOUT
  5
26
100
AcDbPlotSettings
  1

  2
none_device
  4

  6

 40
0.0
 41
0.0
 42
0.0
 43
0.0
 44
0.0
 45
0.0
 46
0.0
 47
0.0
 48
0.0
 49
0.0
140
0.0
141
0.0
142
1.0
143
1.0
 70
688
 72
0
 73
0
 74
5
  7

 75
16
147
1.0
148
0.0
149
0.0
100
AcDbLayout
  1
Layout2
 70
1
 71
2
 10
0.0
 20
0.0
 11
12.0
 21
9.0
 12
0.0
 22
0.0
 32
0.0
 14
0.0
 24
0.0
 34
0.0
 15
0.0
 25
0.0
 35
0.0
146
0.0
 13
0.0
 23
0.0
 33
0.0
 16
1.0
 26
0.0
 36
0.0
 17
0.0
 27
1.0
 37
0.0
 76
0
330
23
  0
DICTIONARY
  5
214
100
AcDbDictionary
281
1
  3
DIMASSOC
350
217
  3
HIDETEXT
350
216
  0
DICTIONARYVAR
  5
216
100
DictionaryVariables
280
0
  1
2
  0
DICTIONARYVAR
  5
217
100
DictionaryVariables
280
0
  1
1
  0
DICTIONARY
  5
215
100
AcDbDictionary
281
1
  3
ColorSettings/BackgroundColor
350
218
  3
ColorSettings/ColorMode
350
219
  3
Grid/DisplayGrid00
350
21A
  3
Grid/DisplayGrid01
350
21B
  3
Grid/DisplayGrid02
350
21C
  3
Grid/DisplayGrid03
350
21D
  3
Grid/GridSpacingX00
350
21E
  3
Grid/GridSpacingX01
350
21F
  3
Grid/GridSpacingX02
350
220
  3
Grid/GridSpacingX03
350
221
  3
Grid/GridSpacingY00
350
222
  3
Grid/GridSpacingY01
350
223
  3
Grid/GridSpacingY02
350
224
  3
Grid/GridSpacingY03
350
225
  3
Grid/IsometricGrid00
350
226
  3
Grid/IsometricGrid01
350
227
  3
Grid/IsometricGrid02
350
228
  3
Grid/IsometricGrid03
350
229
  3
Grid/IsometricProjection00
350
22A
  3
Grid/IsometricProjection01
350
22B
  3
Grid/IsometricProjection02
350
22C
  3
Grid/IsometricProjection03
350
22D
  3
Grid/MetaGridSpacingX00
350
22E
  3
Grid/MetaGridSpacingX01
350
22F
  3
Grid/MetaGridSpacingX02
350
230
  3
Grid/MetaGridSpacingX03
350
231
  3
Grid/MetaGridSpacingY00
350
232
  3
Grid/MetaGridSpacingY01
350
233
  3
Grid/MetaGridSpacingY02
350
234
  3
Grid/MetaGridSpacingY03
350
235
  3
MultiPageSettings/Columns
350
236
  3
MultiPageSettings/GlueMarginsBottom
350
237
  3
MultiPageSettings/GlueMarginsLeft
350
238
  3
MultiPageSettings/GlueMarginsRight
350
239
  3
MultiPageSettings/GlueMarginsTop
350
23A
  3
MultiPageSettings/PrintCropMarks
350
23B
  3
MultiPageSettings/Rows
350
23C
  3
PageSettings/OffsetX
350
23D
  3
PageSettings/OffsetY
350
23E
  3
PageSettings/PageOrientation
350
23F
  3
PageSettings/PaperHeight
350
240
  3
PageSettings/PaperSizeName
350
241
  3
PageSettings/PaperWidth
350
242
  3
PageSettings/Scale
350
243
  3
PageSettings/ShowPaperBorders
350
244
  3
QCADVersion
350
245
  3
UnitSettings/PaperUnit
350
246
  3
ViewportCenter
350
247
  3
ViewportHeight
350
248
  3
ViewportWidth
350
249
  0
XRECORD
  5
218
330
215
100
AcDbXrecord
280
1
1000
Weiss
  0
XRECORD
  5
219
330
215
100
AcDbXrecord
280
1
1000
FullColor
  0
XRECORD
  5
21A
330
215
100
AcDbXrecord
280
1
290
1
  0
XRECORD
  5
21B
330
215
100
AcDbXrecord
280
1
290
1
  0
XRECORD
  5
21C
330
215
100
AcDbXrecord
280
1
290
1
  0
XRECORD
  5
21D
330
215
100
AcDbXrecord
280
1
290
1
  0
XRECORD
  5
21E
330
215
100
AcDbXrecord
280
1
1000
auto
  0
XRECORD
  5
21F
330
215
100
AcDbXrecord
280
1
1000
auto
  0
XRECORD
  5
220
330
215
100
AcDbXrecord
280
1
1000
auto
  0
XRECORD
  5
221
330
215
100
AcDbXrecord
280
1
1000
auto
  0
XRECORD
  5
222
330
215
100
AcDbXrecord
280
1
1000
auto
  0
XRECORD
  5
223
330
215
100
AcDbXrecord
280
1
1000
auto
  0
XRECORD
  5
224
330
215
100
AcDbXrecord
280
1
1000
auto
  0
XRECORD
  5
225
330
215
100
AcDbXrecord
280
1
1000
auto
  0
XRECORD
  5
226
330
215
100
AcDbXrecord
280
1
290
0
  0
XRECORD
  5
227
330
215
100
AcDbXrecord
280
1
290
0
  0
XRECORD
  5
228
330
215
100
AcDbXrecord
280
1
290
0
  0
XRECORD
  5
229
330
215
100
AcDbXrecord
280
1
290
0
  0
XRECORD
  5
22A
330
215
100
AcDbXrecord
280
1
 90
0
  0
XRECORD
  5
22B
330
215
100
AcDbXrecord
280
1
 90
0
  0
XRECORD
  5
22C
330
215
100
AcDbXrecord
280
1
 90
0
  0
XRECORD
  5
22D
330
215
100
AcDbXrecord
280
1
 90
0
  0
XRECORD
  5
22E
330
215
100
AcDbXrecord
280
1
1000
auto
  0
XRECORD
  5
22F
330
215
100
AcDbXrecord
280
1
1000
auto
  0
XRECORD
  5
230
330
215
100
AcDbXrecord
280
1
1000
auto
  0
XRECORD
  5
231
330
215
100
AcDbXrecord
280
1
1000
auto
  0
XRECORD
  5
232
330
215
100
AcDbXrecord
280
1
1000
auto
  0
XRECORD
  5
233
330
215
100
AcDbXrecord
280
1
1000
auto
  0
XRECORD
  5
234
330
215
100
AcDbXrecord
280
1
1000
auto
  0
XRECORD
  5
235
330
215
100
AcDbXrecord
280
1
1000
auto
  0
XRECORD
  5
236
330
215
100
AcDbXrecord
280
1
 90
1
  0
XRECORD
  5
237
330
215
100
AcDbXrecord
280
1
 40
10.0
  0
XRECORD
  5
238
330
215
100
AcDbXrecord
280
1
 40
10.0
  0
XRECORD
  5
239
330
215
100
AcDbXrecord
280
1
 40
10.0
  0
XRECORD
  5
23A
330
215
100
AcDbXrecord
280
1
 40
10.0
  0
XRECORD
  5
23B
330
215
100
AcDbXrecord
280
1
290
0
  0
XRECORD
  5
23C
330
215
100
AcDbXrecord
280
1
 90
1
  0
XRECORD
  5
23D
330
215
100
AcDbXrecord
280
1
 40
0.0
  0
XRECORD
  5
23E
330
215
100
AcDbXrecord
280
1
 40
0.0
  0
XRECORD
  5
23F
330
215
100
AcDbXrecord
280
1
1000
Landscape
  0
XRECORD
  5
240
330
215
100
AcDbXrecord
280
1
1000
420
  0
XRECORD
  5
241
330
215
100
AcDbXrecord
280
1
1000
ISO A3
  0
XRECORD
  5
242
330
215
100
AcDbXrecord
280
1
1000
297
  0
XRECORD
  5
243
330
215
100
AcDbXrecord
280
1
1000
1:1
  0
XRECORD
  5
244
330
215
100
AcDbXrecord
280
1
290
1
  0
XRECORD
  5
245
330
215
100
AcDbXrecord
280
1
1000
3.16.1
  0
XRECORD
  5
246
330
215
100
AcDbXrecord
280
1
 90
4
  0
XRECORD
  5
248
330
215
100
AcDbXrecord
280
1
 40
380.6779291553133362
  0
XRECORD
  5
249
330
215
100
AcDbXrecord
280
1
 40
717.6555858310626945
  0
ENDSEC
  0
EOF
