999
dxflib 3.12.2.0
  0
SECTION
  2
HEADER
  9
$ACADVER
  1
AC1015
  9
$HANDSEED
  5
FFFF
  9
$ANGBASE
 50
0.0
  9
$ANGDIR
 70
0
  9
$ATTMODE
 70
1
  9
$AUNITS
 70
0
  9
$AUPREC
 70
2
  9
$CECOLOR
 62
256
  9
$CELTSCALE
 40
1.0
  9
$CHAMFERA
 40
0.0
  9
$CHAMFERB
 40
0.0
  9
$CHAMFERC
 40
0.0
  9
$CHAMFERD
 40
0.0
  9
$CMLJUST
 70
0
  9
$CMLSCALE
 40
20.0
  9
$DIMADEC
 70
0
  9
$DIMALT
 70
0
  9
$DIMALTD
 70
3
  9
$DIMALTF
 40
0.03937007874016
  9
$DIMALTTD
 70
3
  9
$DIMALTTZ
 70
0
  9
$DIMALTU
 70
2
  9
$DIMALTZ
 70
0
  9
$DIMAPOST
  1

  9
$DIMASZ
 40
2.5
  9
$DIMAUNIT
 70
0
  9
$DIMAZIN
 70
0
  9
$DIMBLK
  1

  9
$DIMBLK1
  1

  9
$DIMBLK2
  1

  9
$DIMCEN
 40
2.5
  9
$DIMCLRD
 70
0
  9
$DIMCLRE
 70
0
  9
$DIMCLRT
 70
0
  9
$DIMDEC
 70
0
  9
$DIMDLE
 40
0.0
  9
$DIMDLI
 40
3.75
  9
$DIMEXE
 40
1.25
  9
$DIMEXO
 40
0.625
  9
$DIMGAP
 40
0.625
  9
$DIMJUST
 70
0
  9
$DIMLFAC
 40
1.0
  9
$DIMLIM
 70
0
  9
$DIMLUNIT
 70
2
  9
$DIMPOST
  1

  9
$DIMRND
 40
0.0
  9
$DIMSAH
 70
0
  9
$DIMSCALE
 40
1.0
  9
$DIMSD1
 70
0
  9
$DIMSD2
 70
0
  9
$DIMSE1
 70
0
  9
$DIMSE2
 70
0
  9
$DIMSOXD
 70
0
  9
$DIMTAD
 70
1
  9
$DIMTDEC
 70
2
  9
$DIMTFAC
 40
1.0
  9
$DIMTIH
 70
0
  9
$DIMTIX
 70
0
  9
$DIMTM
 40
0.0
  9
$DIMTOFL
 70
1
  9
$DIMTOH
 70
0
  9
$DIMTOL
 70
0
  9
$DIMTOLJ
 70
0
  9
$DIMTP
 40
0.0
  9
$DIMTSZ
 40
0.0
  9
$DIMTVP
 40
0.0
  9
$DIMTXSTY
  7
STANDARD
  9
$DIMTXT
 40
2.5
  9
$DIMTZIN
 70
8
  9
$DIMUPT
 70
0
  9
$DIMZIN
 70
8
  9
$DISPSILH
 70
0
  9
$DWGCODEPAGE
  3
ANSI_1252
  9
$ELEVATION
 40
0.0
  9
$EXTMAX
 10
420.0
 20
297.0
 30
0.0
  9
$EXTMIN
 10
0.0
 20
0.0
 30
0.0
  9
$FILLETRAD
 40
0.0
  9
$FILLMODE
 70
1
  9
$INSBASE
 10
0.0
 20
0.0
 30
0.0
  9
$INSUNITS
 70
0
  9
$LIMCHECK
 70
0
  9
$LIMMAX
 10
420.0
 20
297.0
  9
$LIMMIN
 10
0.0
 20
0.0
  9
$LTSCALE
 40
1.0
  9
$LUNITS
 70
2
  9
$LUPREC
 70
3
  9
$MAXACTVP
 70
64
  9
$MEASUREMENT
 70
1
  9
$MIRRTEXT
 70
0
  9
$ORTHOMODE
 70
0
  9
$PDMODE
 70
3
  9
$PDSIZE
 40
0
  9
$PELEVATION
 40
0.0
  9
$PEXTMAX
 10
418.5643123837962776
 20
294.0985836658252879
 30
0.0000000349246037
  9
$PEXTMIN
 10
-6.8969162539389108
 20
-7.6378807690919066
 30
-0.0015258207003583
  9
$PINSBASE
 10
0.0
 20
0.0
 30
0.0
  9
$PLIMCHECK
 70
0
  9
$PLIMMAX
 10
388.8998846020709834
 20
272.6251289756614824
  9
$PLIMMIN
 10
29.1324450037763505
 20
18.3951686894555984
  9
$PLINEGEN
 70
0
  9
$PLINEWID
 40
0.0
  9
$PROXYGRAPHICS
 70
1
  9
$PSLTSCALE
 70
1
  9
$PUCSNAME
  2

  9
$PUCSORG
 10
0.0
 20
0.0
 30
0.0
  9
$PUCSXDIR
 10
1.0
 20
0.0
 30
0.0
  9
$PUCSYDIR
 10
0.0
 20
1.0
 30
0.0
  9
$QTEXTMODE
 70
0
  9
$REGENMODE
 70
1
  9
$SHADEDGE
 70
3
  9
$SHADEDIF
 70
70
  9
$SKETCHINC
 40
1.0
  9
$SKPOLY
 70
0
  9
$SPLFRAME
 70
0
  9
$SPLINESEGS
 70
8
  9
$SPLINETYPE
 70
6
  9
$SURFTAB1
 70
6
  9
$SURFTAB2
 70
6
  9
$SURFTYPE
 70
6
  9
$SURFU
 70
6
  9
$SURFV
 70
6
  9
$TEXTSIZE
 40
2.5
  9
$TEXTSTYLE
  7
STANDARD
  9
$THICKNESS
 40
0.0
  9
$TILEMODE
 70
1
  9
$TRACEWID
 40
1.0
  9
$TREEDEPTH
 70
3020
  9
$UCSNAME
  2

  9
$UCSORG
 10
0.0
 20
0.0
 30
0.0
  9
$UCSXDIR
 10
1.0
 20
0.0
 30
0.0
  9
$UCSYDIR
 10
0.0
 20
1.0
 30
0.0
  9
$UNITMODE
 70
0
  9
$USERI1
 70
0
  9
$USERI2
 70
0
  9
$USERI3
 70
0
  9
$USERI4
 70
0
  9
$USERI5
 70
0
  9
$USERR1
 40
0.0
  9
$USERR2
 40
0.0
  9
$USERR3
 40
0.0
  9
$USERR4
 40
0.0
  9
$USERR5
 40
0.0
  9
$USRTIMER
 70
1
  9
$VISRETAIN
 70
1
  0
ENDSEC
  0
SECTION
  2
TABLES
  0
TABLE
  2
VPORT
  5
8
100
AcDbSymbolTable
 70
1
  0
VPORT
  5
30
100
AcDbSymbolTableRecord
100
AcDbViewportTableRecord
  2
*Active
 70
0
 10
0.0
 20
0.0
 11
1.0
 21
1.0
 12
286.3055555555554861
 22
148.5
 13
0.0
 23
0.0
 14
10.0
 24
10.0
 15
10.0
 25
10.0
 16
0.0
 26
0.0
 36
1.0
 17
0.0
 27
0.0
 37
0.0
 40
297.0
 41
1.92798353909465
 42
50.0
 43
0.0
 44
0.0
 50
0.0
 51
0.0
 71
0
 72
100
 73
1
 74
3
 75
1
 76
1
 77
0
 78
0
281
0
 65
1
110
0.0
120
0.0
130
0.0
111
1.0
121
0.0
131
0.0
112
0.0
122
1.0
132
0.0
 79
0
146
0.0
  0
ENDTAB
  0
TABLE
  2
LTYPE
  5
5
100
AcDbSymbolTable
 70
43
  0
LTYPE
  5
16
100
AcDbSymbolTableRecord
100
AcDbLinetypeTableRecord
  2
CONTINUOUS
 70
0
  3
Solid line
 72
65
 73
0
 40
0.0
  0
LTYPE
  5
31
100
AcDbSymbolTableRecord
100
AcDbLinetypeTableRecord
  2
ACAD_ISO15W100
 70
0
  3
ISO double-dash triple-dot __ __ . . . __ __ . .
 72
65
 73
10
 40
39.0000000000000071
 49
12.0
 74
0
 49
-3.0
 74
0
 49
12.0
 74
0
 49
-2.9500000000000002
 74
0
 49
0.1
 74
0
 49
-2.8999999999999999
 74
0
 49
0.1
 74
0
 49
-2.8999999999999999
 74
0
 49
0.1
 74
0
 49
-2.9500000000000002
 74
0
  0
LTYPE
  5
32
100
AcDbSymbolTableRecord
100
AcDbLinetypeTableRecord
  2
DIVIDE
 70
0
  3
Divide ____ . . ____ . . ____ . . ____ . . ____
 72
65
 73
6
 40
31.7500000000000036
 49
12.6999999999999993
 74
0
 49
-6.2999999999999998
 74
0
 49
0.1
 74
0
 49
-6.25
 74
0
 49
0.1
 74
0
 49
-6.2999999999999998
 74
0
  0
LTYPE
  5
33
100
AcDbSymbolTableRecord
100
AcDbLinetypeTableRecord
  2
ACAD_ISO10W100
 70
0
  3
ISO dash dot __ . __ . __ . __ . __ . __ . __ . 
 72
65
 73
4
 40
18.0
 49
12.0
 74
0
 49
-2.9500000000000002
 74
0
 49
0.1
 74
0
 49
-2.9500000000000002
 74
0
  0
LTYPE
  5
34
100
AcDbSymbolTableRecord
100
AcDbLinetypeTableRecord
  2
ACAD_ISO04W100
 70
0
  3
ISO long-dash dot ____ . ____ . ____ . ____ . _
 72
65
 73
4
 40
30.0
 49
24.0
 74
0
 49
-2.9500000000000002
 74
0
 49
0.1
 74
0
 49
-2.9500000000000002
 74
0
  0
LTYPE
  5
35
100
AcDbSymbolTableRecord
100
AcDbLinetypeTableRecord
  2
VERDECKT
 70
0
  3
Verdeckt __ __ __ __ __ __ __ __ __ __ __ __ __
 72
65
 73
2
 40
9.524999999999995
 49
6.3499999999999979
 74
0
 49
-3.174999999999998
 74
0
  0
LTYPE
  5
36
100
AcDbSymbolTableRecord
100
AcDbLinetypeTableRecord
  2
CENTER2
 70
0
  3
Center (.5x) ___ _ ___ _ ___ _ ___ _ ___ _ ___
 72
65
 73
4
 40
28.5750000000000028
 49
19.0500000000000007
 74
0
 49
-3.1749999999999998
 74
0
 49
3.1749999999999998
 74
0
 49
-3.1749999999999998
 74
0
  0
LTYPE
  5
37
100
AcDbSymbolTableRecord
100
AcDbLinetypeTableRecord
  2
ACAD_ISO11W100
 70
0
  3
ISO double-dash dot __ __ . __ __ . __ __ . __ _
 72
65
 73
6
 40
33.0
 49
12.0
 74
0
 49
-3.0
 74
0
 49
12.0
 74
0
 49
-2.9500000000000002
 74
0
 49
0.1
 74
0
 49
-2.9500000000000002
 74
0
  0
LTYPE
  5
38
100
AcDbSymbolTableRecord
100
AcDbLinetypeTableRecord
  2
HIDDEN2
 70
0
  3
Hidden (.5x) _ _ _ _ _ _ _ _ _ _ _ _ _ _ _ _ _ 
 72
65
 73
2
 40
4.7624999999999993
 49
3.1749999999999998
 74
0
 49
-1.5874999999999999
 74
0
  0
LTYPE
  5
39
100
AcDbSymbolTableRecord
100
AcDbLinetypeTableRecord
  2
BORDERX2
 70
0
  3
Border (2x) ____  ____  .  ____  ____  .  ___
 72
65
 73
6
 40
88.8999999999999915
 49
25.3999999999999986
 74
0
 49
-12.6999999999999993
 74
0
 49
25.3999999999999986
 74
0
 49
-12.6500000000000004
 74
0
 49
0.1
 74
0
 49
-12.6500000000000004
 74
0
  0
LTYPE
  5
3A
100
AcDbSymbolTableRecord
100
AcDbLinetypeTableRecord
  2
ACAD_ISO05W100
 70
0
  3
ISO long-dash double-dot ____ .. ____ .. ____ . 
 72
65
 73
6
 40
33.0
 49
24.0
 74
0
 49
-2.9500000000000002
 74
0
 49
0.1
 74
0
 49
-2.8999999999999999
 74
0
 49
0.1
 74
0
 49
-2.9500000000000002
 74
0
  0
LTYPE
  5
3B
100
AcDbSymbolTableRecord
100
AcDbLinetypeTableRecord
  2
DASHDOTX2
 70
0
  3
Dash dot (2x) ____  .  ____  .  ____  .  ___
 72
65
 73
4
 40
50.7999999999999972
 49
25.3999999999999986
 74
0
 49
-12.6500000000000004
 74
0
 49
0.1
 74
0
 49
-12.6500000000000004
 74
0
  0
LTYPE
  5
3C
100
AcDbSymbolTableRecord
100
AcDbLinetypeTableRecord
  2
AUSGEZOGEN
 70
0
  3
durchgezogene Linie
 72
65
 73
0
 40
0.0
  0
LTYPE
  5
3D
100
AcDbSymbolTableRecord
100
AcDbLinetypeTableRecord
  2
HIDDENX2
 70
0
  3
Hidden (2x) ____ ____ ____ ____ ____ ____ ____ 
 72
65
 73
2
 40
19.0499999999999972
 49
12.6999999999999993
 74
0
 49
-6.3499999999999996
 74
0
  0
LTYPE
  5
3E
100
AcDbSymbolTableRecord
100
AcDbLinetypeTableRecord
  2
CENTERX2
 70
0
  3
Center (2x) ________  __  ________  __  _____
 72
65
 73
4
 40
101.6000000000000085
 49
63.5
 74
0
 49
-12.6999999999999993
 74
0
 49
12.6999999999999993
 74
0
 49
-12.6999999999999993
 74
0
  0
LTYPE
  5
3F
100
AcDbSymbolTableRecord
100
AcDbLinetypeTableRecord
  2
BORDER2
 70
0
  3
Border (.5x) __.__.__.__.__.__.__.__.__.__.__.
 72
65
 73
6
 40
22.2250000000000014
 49
6.3499999999999996
 74
0
 49
-3.1749999999999998
 74
0
 49
6.3499999999999996
 74
0
 49
-3.125
 74
0
 49
0.1
 74
0
 49
-3.125
 74
0
  0
LTYPE
  5
40
100
AcDbSymbolTableRecord
100
AcDbLinetypeTableRecord
  2
DASHDOT2
 70
0
  3
Dash dot (.5x) _._._._._._._._._._._._._._._.
 72
65
 73
4
 40
12.6999999999999993
 49
6.3499999999999996
 74
0
 49
-3.125
 74
0
 49
0.1
 74
0
 49
-3.125
 74
0
  0
LTYPE
  5
41
100
AcDbSymbolTableRecord
100
AcDbLinetypeTableRecord
  2
ACAD_ISO12W100
 70
0
  3
ISO dash double-dot __ . . __ . . __ . . __ . . 
 72
65
 73
6
 40
21.0
 49
12.0
 74
0
 49
-2.9500000000000002
 74
0
 49
0.1
 74
0
 49
-2.8999999999999999
 74
0
 49
0.1
 74
0
 49
-2.9500000000000002
 74
0
  0
LTYPE
  5
42
100
AcDbSymbolTableRecord
100
AcDbLinetypeTableRecord
  2
ACAD_ISO07W100
 70
0
  3
ISO dot . . . . . . . . . . . . . . . . . . . . 
 72
65
 73
2
 40
3.0
 49
0.1
 74
0
 49
-2.8999999999999999
 74
0
  0
LTYPE
  5
43
100
AcDbSymbolTableRecord
100
AcDbLinetypeTableRecord
  2
HIDDEN
 70
0
  3
Hidden __ __ __ __ __ __ __ __ __ __ __ __ __ __
 72
65
 73
2
 40
9.5249999999999986
 49
6.3499999999999996
 74
0
 49
-3.1749999999999998
 74
0
  0
LTYPE
  5
44
100
AcDbSymbolTableRecord
100
AcDbLinetypeTableRecord
  2
ACAD_ISO06W100
 70
0
  3
ISO long-dash triple-dot ____ ... ____ ... ____
 72
65
 73
8
 40
36.0000000000000071
 49
24.0
 74
0
 49
-2.9500000000000002
 74
0
 49
0.1
 74
0
 49
-2.8999999999999999
 74
0
 49
0.1
 74
0
 49
-2.8999999999999999
 74
0
 49
0.1
 74
0
 49
-2.9500000000000002
 74
0
  0
LTYPE
  5
45
100
AcDbSymbolTableRecord
100
AcDbLinetypeTableRecord
  2
CENTER
 70
0
  3
Center ____ _ ____ _ ____ _ ____ _ ____ _ ____
 72
65
 73
4
 40
50.8000000000000043
 49
31.75
 74
0
 49
-6.3499999999999996
 74
0
 49
6.3499999999999996
 74
0
 49
-6.3499999999999996
 74
0
  0
LTYPE
  5
46
100
AcDbSymbolTableRecord
100
AcDbLinetypeTableRecord
  2
DOTX2
 70
0
  3
Dot (2x) .  .  .  .  .  .  .  .  .  .  .  .  .  .
 72
65
 73
2
 40
12.6999999999999993
 49
0.1
 74
0
 49
-12.5999999999999996
 74
0
  0
LTYPE
  5
47
100
AcDbSymbolTableRecord
100
AcDbLinetypeTableRecord
  2
PHANTOM
 70
0
  3
Phantom ______  __  __  ______  __  __  ______ 
 72
65
 73
6
 40
63.5000000000000071
 49
31.75
 74
0
 49
-6.3499999999999996
 74
0
 49
6.3499999999999996
 74
0
 49
-6.3499999999999996
 74
0
 49
6.3499999999999996
 74
0
 49
-6.3499999999999996
 74
0
  0
LTYPE
  5
48
100
AcDbSymbolTableRecord
100
AcDbLinetypeTableRecord
  2
ACAD_ISO08W100
 70
0
  3
ISO long-dash short-dash ____ __ ____ __ ____ _
 72
65
 73
4
 40
36.0
 49
24.0
 74
0
 49
-3.0
 74
0
 49
6.0
 74
0
 49
-3.0
 74
0
  0
LTYPE
  5
49
100
AcDbSymbolTableRecord
100
AcDbLinetypeTableRecord
  2
DASHEDX2
 70
0
  3
Dashed (2x) ____  ____  ____  ____  ____  ___
 72
65
 73
2
 40
38.0999999999999943
 49
25.3999999999999986
 74
0
 49
-12.6999999999999993
 74
0
  0
LTYPE
  5
4A
100
AcDbSymbolTableRecord
100
AcDbLinetypeTableRecord
  2
ACAD_ISO02W100
 70
0
  3
ISO dash __ __ __ __ __ __ __ __ __ __ __ __ __
 72
65
 73
2
 40
15.0
 49
12.0
 74
0
 49
-3.0
 74
0
  0
LTYPE
  5
4B
100
AcDbSymbolTableRecord
100
AcDbLinetypeTableRecord
  2
PHANTOM2
 70
0
  3
Phantom (.5x) ___ _ _ ___ _ _ ___ _ _ ___ _ _
 72
65
 73
6
 40
31.7500000000000036
 49
15.875
 74
0
 49
-3.1749999999999998
 74
0
 49
3.1749999999999998
 74
0
 49
-3.1749999999999998
 74
0
 49
3.1749999999999998
 74
0
 49
-3.1749999999999998
 74
0
  0
LTYPE
  5
4C
100
AcDbSymbolTableRecord
100
AcDbLinetypeTableRecord
  2
DASHED2
 70
0
  3
Dashed (.5x) _ _ _ _ _ _ _ _ _ _ _ _ _ _ _ _ _ 
 72
65
 73
2
 40
9.5249999999999986
 49
6.3499999999999996
 74
0
 49
-3.1749999999999998
 74
0
  0
LTYPE
  5
4D
100
AcDbSymbolTableRecord
100
AcDbLinetypeTableRecord
  2
ACAD_ISO09W100
 70
0
  3
ISO long-dash double-short-dash ____ __ __ ____
 72
65
 73
6
 40
45.0
 49
24.0
 74
0
 49
-3.0
 74
0
 49
6.0
 74
0
 49
-3.0
 74
0
 49
6.0
 74
0
 49
-3.0
 74
0
  0
LTYPE
  5
4E
100
AcDbSymbolTableRecord
100
AcDbLinetypeTableRecord
  2
ACAD_ISO13W100
 70
0
  3
ISO double-dash double-dot __ __ . . __ __ . . _
 72
65
 73
8
 40
36.0000000000000071
 49
12.0
 74
0
 49
-3.0
 74
0
 49
12.0
 74
0
 49
-2.9500000000000002
 74
0
 49
0.1
 74
0
 49
-2.8999999999999999
 74
0
 49
0.1
 74
0
 49
-2.9500000000000002
 74
0
  0
LTYPE
  5
4F
100
AcDbSymbolTableRecord
100
AcDbLinetypeTableRecord
  2
DOT2
 70
0
  3
Dot (.5x) ........................................
 72
65
 73
2
 40
3.1750000000000003
 49
0.1
 74
0
 49
-3.0750000000000002
 74
0
  0
LTYPE
  5
50
100
AcDbSymbolTableRecord
100
AcDbLinetypeTableRecord
  2
DASHED
 70
0
  3
Dashed __ __ __ __ __ __ __ __ __ __ __ __ __ _
 72
65
 73
2
 40
19.0499999999999972
 49
12.6999999999999993
 74
0
 49
-6.3499999999999996
 74
0
  0
LTYPE
  5
51
100
AcDbSymbolTableRecord
100
AcDbLinetypeTableRecord
  2
ACAD_ISO14W100
 70
0
  3
ISO dash triple-dot __ . . . __ . . . __ . . . _
 72
65
 73
8
 40
24.0
 49
12.0
 74
0
 49
-2.9500000000000002
 74
0
 49
0.1
 74
0
 49
-2.8999999999999999
 74
0
 49
0.1
 74
0
 49
-2.8999999999999999
 74
0
 49
0.1
 74
0
 49
-2.9500000000000002
 74
0
  0
LTYPE
  5
15
100
AcDbSymbolTableRecord
100
AcDbLinetypeTableRecord
  2
BYLAYER
 70
0
  3

 72
65
 73
0
 40
0.0
  0
LTYPE
  5
52
100
AcDbSymbolTableRecord
100
AcDbLinetypeTableRecord
  2
PHANTOMX2
 70
0
  3
Phantom (2x) ____________    ____    ____   _
 72
65
 73
6
 40
127.0000000000000142
 49
63.5
 74
0
 49
-12.6999999999999993
 74
0
 49
12.6999999999999993
 74
0
 49
-12.6999999999999993
 74
0
 49
12.6999999999999993
 74
0
 49
-12.6999999999999993
 74
0
  0
LTYPE
  5
14
100
AcDbSymbolTableRecord
100
AcDbLinetypeTableRecord
  2
BYBLOCK
 70
0
  3

 72
65
 73
0
 40
0.0
  0
LTYPE
  5
53
100
AcDbSymbolTableRecord
100
AcDbLinetypeTableRecord
  2
DIVIDEX2
 70
0
  3
Divide (2x) ________  .  .  ________  .  .  _
 72
65
 73
6
 40
63.5
 49
25.3999999999999986
 74
0
 49
-12.6500000000000004
 74
0
 49
0.1
 74
0
 49
-12.5999999999999996
 74
0
 49
0.1
 74
0
 49
-12.6500000000000004
 74
0
  0
LTYPE
  5
54
100
AcDbSymbolTableRecord
100
AcDbLinetypeTableRecord
  2
BORDER
 70
0
  3
Border __ __ . __ __ . __ __ . __ __ . __ __ .
 72
65
 73
6
 40
44.4499999999999957
 49
12.6999999999999993
 74
0
 49
-6.3499999999999996
 74
0
 49
12.6999999999999993
 74
0
 49
-6.2999999999999998
 74
0
 49
0.1
 74
0
 49
-6.2999999999999998
 74
0
  0
LTYPE
  5
55
100
AcDbSymbolTableRecord
100
AcDbLinetypeTableRecord
  2
DIVIDE2
 70
0
  3
Divide (.5x) __..__..__..__..__..__..__..__.._
 72
65
 73
6
 40
15.8749999999999982
 49
6.3499999999999996
 74
0
 49
-3.125
 74
0
 49
0.1
 74
0
 49
-3.0750000000000002
 74
0
 49
0.1
 74
0
 49
-3.125
 74
0
  0
LTYPE
  5
56
100
AcDbSymbolTableRecord
100
AcDbLinetypeTableRecord
  2
DOT
 70
0
  3
Dot . . . . . . . . . . . . . . . . . . . . . . . .
 72
65
 73
2
 40
6.3499999999999996
 49
0.1
 74
0
 49
-6.25
 74
0
  0
LTYPE
  5
57
100
AcDbSymbolTableRecord
100
AcDbLinetypeTableRecord
  2
DASHDOT
 70
0
  3
Dash dot __ . __ . __ . __ . __ . __ . __ . __
 72
65
 73
4
 40
25.4000000000000021
 49
12.6999999999999993
 74
0
 49
-6.2999999999999998
 74
0
 49
0.1
 74
0
 49
-6.2999999999999998
 74
0
  0
LTYPE
  5
58
100
AcDbSymbolTableRecord
100
AcDbLinetypeTableRecord
  2
ACAD_ISO03W100
 70
0
  3
ISO dash space __    __    __    __    __    __
 72
65
 73
2
 40
30.0
 49
12.0
 74
0
 49
-18.0
 74
0
  0
ENDTAB
  0
TABLE
  2
LAYER
  5
2
100
AcDbSymbolTable
 70
12
  0
LAYER
  5
59
100
AcDbSymbolTableRecord
100
AcDbLayerTableRecord
  2
Zusatztextfeld Verma\U+00dfung
 70
4
 62
1
420
16711680
  6
CONTINUOUS
370
-3
390
F
  0
LAYER
  5
5A
100
AcDbSymbolTableRecord
100
AcDbLayerTableRecord
  2
Zusatzfeld
 70
4
 62
2
420
16776960
  6
CONTINUOUS
370
-3
390
F
  0
LAYER
  5
5B
100
AcDbSymbolTableRecord
100
AcDbLayerTableRecord
  2
Copyright
 70
4
 62
5
420
255
  6
CONTINUOUS
370
25
390
F
  0
LAYER
  5
5C
100
AcDbSymbolTableRecord
100
AcDbLayerTableRecord
  2
hilfe
 70
4
 62
7
420
16777215
  6
BYLAYER
370
5
390
F
  0
LAYER
  5
5D
100
AcDbSymbolTableRecord
100
AcDbLayerTableRecord
  2
VERMA\U+00dfUNG
 70
4
 62
1
420
16711680
  6
CONTINUOUS
370
5
390
F
  0
LAYER
  5
5E
100
AcDbSymbolTableRecord
100
AcDbLayerTableRecord
  2
PLANKOPF_TABELLE
 70
4
 62
5
420
255
  6
CONTINUOUS
370
-3
390
F
  0
LAYER
  5
5F
100
AcDbSymbolTableRecord
100
AcDbLayerTableRecord
  2
PLANKOPF_TEXT_VORGABE
 70
4
 62
1
420
16711680
  6
CONTINUOUS
370
-3
390
F
  0
LAYER
  5
60
100
AcDbSymbolTableRecord
100
AcDbLayerTableRecord
  2
BLATTRAHMEN_A3_QUER
 70
4
 62
5
420
255
  6
CONTINUOUS
370
5
390
F
  0
LAYER
  5
61
100
AcDbSymbolTableRecord
100
AcDbLayerTableRecord
  2
FALTUNG_LOCHUNG
 70
4
 62
3
420
65280
  6
CONTINUOUS
370
5
390
F
  0
LAYER
  5
62
100
AcDbSymbolTableRecord
100
AcDbLayerTableRecord
  2
Zeichnung
 70
4
 62
3
420
65280
  6
CONTINUOUS
370
-3
390
F
  0
LAYER
  5
63
100
AcDbSymbolTableRecord
100
AcDbLayerTableRecord
  2
Zusatzfeld text klein
 70
4
 62
2
420
16776960
  6
CONTINUOUS
370
-3
390
F
  0
LAYER
  5
10
100
AcDbSymbolTableRecord
100
AcDbLayerTableRecord
  2
0
 70
4
 62
7
420
16777215
  6
CONTINUOUS
370
5
390
F
  0
ENDTAB
  0
TABLE
  2
STYLE
  5
3
100
AcDbSymbolTable
 70
35
  0
STYLE
  5
64
100
AcDbSymbolTableRecord
100
AcDbTextStyleTableRecord
  2
Standard
 70
0
 40
0.0
 41
1.0
 50
0.0
 71
0
 42
2.5
  3

  4

1001
ACAD
1000
txt
1071
0
  0
STYLE
  5
65
100
AcDbSymbolTableRecord
100
AcDbTextStyleTableRecord
  2
textstyle0
 70
0
 40
0.0
 41
1.0
 50
0.0
 71
0
 42
3.0
  3

  4

1001
ACAD
1000
Liberation Sans
1071
0
  0
STYLE
  5
66
100
AcDbSymbolTableRecord
100
AcDbTextStyleTableRecord
  2
textstyle1
 70
0
 40
0.0
 41
1.0
 50
0.0
 71
0
 42
3.0
  3

  4

1001
ACAD
1000
Liberation Sans
1071
0
  0
STYLE
  5
67
100
AcDbSymbolTableRecord
100
AcDbTextStyleTableRecord
  2
textstyle2
 70
0
 40
0.0
 41
1.0
 50
0.0
 71
0
 42
1.5
  3

  4

1001
ACAD
1000
Liberation Sans
1071
0
  0
STYLE
  5
68
100
AcDbSymbolTableRecord
100
AcDbTextStyleTableRecord
  2
textstyle3
 70
0
 40
0.0
 41
1.0
 50
0.0
 71
0
 42
2.0
  3

  4

1001
ACAD
1000
Liberation Sans
1071
0
  0
STYLE
  5
69
100
AcDbSymbolTableRecord
100
AcDbTextStyleTableRecord
  2
textstyle4
 70
0
 40
0.0
 41
1.0
 50
0.0
 71
0
 42
2.0
  3

  4

1001
ACAD
1000
Liberation Sans
1071
0
  0
STYLE
  5
6A
100
AcDbSymbolTableRecord
100
AcDbTextStyleTableRecord
  2
textstyle5
 70
0
 40
0.0
 41
1.0
 50
0.0
 71
0
 42
2.0
  3

  4

1001
ACAD
1000
Liberation Sans
1071
0
  0
STYLE
  5
6B
100
AcDbSymbolTableRecord
100
AcDbTextStyleTableRecord
  2
textstyle6
 70
0
 40
0.0
 41
1.0
 50
0.0
 71
0
 42
2.0
  3

  4

1001
ACAD
1000
Liberation Sans
1071
0
  0
STYLE
  5
6C
100
AcDbSymbolTableRecord
100
AcDbTextStyleTableRecord
  2
textstyle7
 70
0
 40
0.0
 41
1.0
 50
0.0
 71
0
 42
2.0
  3

  4

1001
ACAD
1000
Liberation Sans
1071
0
  0
STYLE
  5
6D
100
AcDbSymbolTableRecord
100
AcDbTextStyleTableRecord
  2
textstyle8
 70
0
 40
0.0
 41
1.0
 50
0.0
 71
0
 42
2.0
  3

  4

1001
ACAD
1000
Liberation Sans
1071
0
  0
STYLE
  5
6E
100
AcDbSymbolTableRecord
100
AcDbTextStyleTableRecord
  2
textstyle9
 70
0
 40
0.0
 41
1.0
 50
0.0
 71
0
 42
2.0
  3

  4

1001
ACAD
1000
Liberation Sans
1071
0
  0
STYLE
  5
6F
100
AcDbSymbolTableRecord
100
AcDbTextStyleTableRecord
  2
textstyle10
 70
0
 40
0.0
 41
1.0
 50
0.0
 71
0
 42
2.0
  3

  4

1001
ACAD
1000
Liberation Sans
1071
0
  0
STYLE
  5
70
100
AcDbSymbolTableRecord
100
AcDbTextStyleTableRecord
  2
textstyle11
 70
0
 40
0.0
 41
1.0
 50
0.0
 71
0
 42
2.0
  3

  4

1001
ACAD
1000
Liberation Sans
1071
0
  0
STYLE
  5
71
100
AcDbSymbolTableRecord
100
AcDbTextStyleTableRecord
  2
textstyle12
 70
0
 40
0.0
 41
1.0
 50
0.0
 71
0
 42
2.0
  3

  4

1001
ACAD
1000
Liberation Sans
1071
0
  0
STYLE
  5
72
100
AcDbSymbolTableRecord
100
AcDbTextStyleTableRecord
  2
textstyle13
 70
0
 40
0.0
 41
1.0
 50
0.0
 71
0
 42
2.0
  3

  4

1001
ACAD
1000
Liberation Sans
1071
0
  0
STYLE
  5
73
100
AcDbSymbolTableRecord
100
AcDbTextStyleTableRecord
  2
textstyle14
 70
0
 40
0.0
 41
1.0
 50
0.0
 71
0
 42
2.0
  3

  4

1001
ACAD
1000
Liberation Sans
1071
0
  0
STYLE
  5
74
100
AcDbSymbolTableRecord
100
AcDbTextStyleTableRecord
  2
textstyle15
 70
0
 40
0.0
 41
1.0
 50
0.0
 71
0
 42
2.0
  3

  4

1001
ACAD
1000
Liberation Sans
1071
0
  0
STYLE
  5
75
100
AcDbSymbolTableRecord
100
AcDbTextStyleTableRecord
  2
textstyle16
 70
0
 40
0.0
 41
1.0
 50
0.0
 71
0
 42
2.0
  3

  4

1001
ACAD
1000
Liberation Sans
1071
0
  0
STYLE
  5
76
100
AcDbSymbolTableRecord
100
AcDbTextStyleTableRecord
  2
textstyle17
 70
0
 40
0.0
 41
1.0
 50
0.0
 71
0
 42
2.0
  3

  4

1001
ACAD
1000
Liberation Sans
1071
0
  0
STYLE
  5
77
100
AcDbSymbolTableRecord
100
AcDbTextStyleTableRecord
  2
textstyle18
 70
0
 40
0.0
 41
1.0
 50
0.0
 71
0
 42
2.0
  3

  4

1001
ACAD
1000
Liberation Sans
1071
0
  0
STYLE
  5
78
100
AcDbSymbolTableRecord
100
AcDbTextStyleTableRecord
  2
textstyle19
 70
0
 40
0.0
 41
1.0
 50
0.0
 71
0
 42
2.0
  3

  4

1001
ACAD
1000
Liberation Sans
1071
0
  0
STYLE
  5
79
100
AcDbSymbolTableRecord
100
AcDbTextStyleTableRecord
  2
textstyle20
 70
0
 40
0.0
 41
1.0
 50
0.0
 71
0
 42
2.0
  3

  4

1001
ACAD
1000
Liberation Sans
1071
0
  0
STYLE
  5
7A
100
AcDbSymbolTableRecord
100
AcDbTextStyleTableRecord
  2
textstyle21
 70
0
 40
0.0
 41
1.0
 50
0.0
 71
0
 42
2.0
  3

  4

1001
ACAD
1000
Liberation Sans
1071
0
  0
STYLE
  5
7B
100
AcDbSymbolTableRecord
100
AcDbTextStyleTableRecord
  2
textstyle22
 70
0
 40
0.0
 41
1.0
 50
0.0
 71
0
 42
2.0
  3

  4

1001
ACAD
1000
Liberation Sans
1071
0
  0
STYLE
  5
7C
100
AcDbSymbolTableRecord
100
AcDbTextStyleTableRecord
  2
textstyle23
 70
0
 40
0.0
 41
1.0
 50
0.0
 71
0
 42
2.0
  3

  4

1001
ACAD
1000
Liberation Sans
1071
0
  0
STYLE
  5
7D
100
AcDbSymbolTableRecord
100
AcDbTextStyleTableRecord
  2
textstyle24
 70
0
 40
0.0
 41
1.0
 50
0.0
 71
0
 42
2.0
  3

  4

1001
ACAD
1000
Liberation Sans
1071
0
  0
STYLE
  5
7E
100
AcDbSymbolTableRecord
100
AcDbTextStyleTableRecord
  2
textstyle25
 70
0
 40
0.0
 41
1.0
 50
0.0
 71
0
 42
2.0
  3

  4

1001
ACAD
1000
Liberation Sans
1071
0
  0
STYLE
  5
7F
100
AcDbSymbolTableRecord
100
AcDbTextStyleTableRecord
  2
textstyle26
 70
0
 40
0.0
 41
1.0
 50
0.0
 71
0
 42
3.0
  3

  4

1001
ACAD
1000
Liberation Sans
1071
0
  0
STYLE
  5
80
100
AcDbSymbolTableRecord
100
AcDbTextStyleTableRecord
  2
textstyle27
 70
0
 40
0.0
 41
1.0
 50
0.0
 71
0
 42
3.0
  3

  4

1001
ACAD
1000
Liberation Sans
1071
0
  0
STYLE
  5
81
100
AcDbSymbolTableRecord
100
AcDbTextStyleTableRecord
  2
textstyle28
 70
0
 40
0.0
 41
1.0
 50
0.0
 71
0
 42
3.0
  3

  4

1001
ACAD
1000
Liberation Sans
1071
0
  0
STYLE
  5
82
100
AcDbSymbolTableRecord
100
AcDbTextStyleTableRecord
  2
textstyle29
 70
0
 40
0.0
 41
1.0
 50
0.0
 71
0
 42
3.0
  3

  4

1001
ACAD
1000
Liberation Sans
1071
0
  0
STYLE
  5
83
100
AcDbSymbolTableRecord
100
AcDbTextStyleTableRecord
  2
textstyle30
 70
0
 40
0.0
 41
1.0
 50
0.0
 71
0
 42
1.0
  3

  4

1001
ACAD
1000
Liberation Sans
1071
0
  0
STYLE
  5
84
100
AcDbSymbolTableRecord
100
AcDbTextStyleTableRecord
  2
textstyle31
 70
0
 40
0.0
 41
1.0
 50
0.0
 71
0
 42
1.0
  3

  4

1001
ACAD
1000
Liberation Sans
1071
0
  0
STYLE
  5
85
100
AcDbSymbolTableRecord
100
AcDbTextStyleTableRecord
  2
textstyle32
 70
0
 40
0.0
 41
1.0
 50
0.0
 71
0
 42
1.0
  3

  4

1001
ACAD
1000
Liberation Sans
1071
0
  0
STYLE
  5
86
100
AcDbSymbolTableRecord
100
AcDbTextStyleTableRecord
  2
textstyle33
 70
0
 40
0.0
 41
1.0
 50
0.0
 71
0
 42
1.0
  3

  4

1001
ACAD
1000
Liberation Sans
1071
0
  0
ENDTAB
  0
TABLE
  2
VIEW
  5
6
100
AcDbSymbolTable
 70
0
  0
ENDTAB
  0
TABLE
  2
UCS
  5
7
100
AcDbSymbolTable
 70
0
  0
ENDTAB
  0
TABLE
  2
APPID
  5
9
100
AcDbSymbolTable
 70
1
  0
APPID
  5
12
100
AcDbSymbolTableRecord
100
AcDbRegAppTableRecord
  2
ACAD
 70
0
  0
APPID
  5
87
100
AcDbSymbolTableRecord
100
AcDbRegAppTableRecord
  2
QCAD
 70
0
  0
ENDTAB
  0
TABLE
  2
DIMSTYLE
  5
A
100
AcDbSymbolTable
 70
1
100
AcDbDimStyleTable
 71
0
  0
DIMSTYLE
105
27
100
AcDbSymbolTableRecord
100
AcDbDimStyleTableRecord
  2
Standard
 41
2.5
 42
0.625
 43
3.75
 44
1.25
 70
0
 73
0
 74
0
 77
1
 78
8
140
2.5
141
2.5
143
0.03937007874016
147
0.625
171
3
172
1
271
2
272
2
274
3
278
44
283
0
284
8
340
64
  0
ENDTAB
  0
TABLE
  2
BLOCK_RECORD
  5
1
100
AcDbSymbolTable
 70
1
  0
BLOCK_RECORD
  5
1F
100
AcDbSymbolTableRecord
100
AcDbBlockTableRecord
  2
*Model_Space
340
22
  0
BLOCK_RECORD
  5
1B
100
AcDbSymbolTableRecord
100
AcDbBlockTableRecord
  2
*Paper_Space
340
1E
  0
BLOCK_RECORD
  5
23
100
AcDbSymbolTableRecord
100
AcDbBlockTableRecord
  2
*Paper_Space0
340
26
  0
ENDTAB
  0
ENDSEC
  0
SECTION
  2
BLOCKS
  0
BLOCK
  5
20
100
AcDbEntity
  8
0
100
AcDbBlockBegin
  2
*Model_Space
 70
0
 10
0.0
 20
0.0
 30
0.0
  3
*Model_Space
  1

  0
ENDBLK
  5
21
100
AcDbEntity
  8
0
100
AcDbBlockEnd
  0
BLOCK
  5
1C
100
AcDbEntity
 67
1
  8
0
100
AcDbBlockBegin
  2
*Paper_Space
 70
0
 10
0.0
 20
0.0
 30
0.0
  3
*Paper_Space
  1

  0
ENDBLK
  5
1D
100
AcDbEntity
 67
1
  8
0
100
AcDbBlockEnd
  0
BLOCK
  5
24
100
AcDbEntity
  8
0
100
AcDbBlockBegin
  2
*Paper_Space0
 70
0
 10
0.0
 20
0.0
 30
0.0
  3
*Paper_Space0
  1

  0
ENDBLK
  5
25
100
AcDbEntity
  8
0
100
AcDbBlockEnd
  0
ENDSEC
  0
SECTION
  2
ENTITIES
  0
LINE
  5
88
100
AcDbEntity
100
AcDbLine
  8
BLATTRAHMEN_A3_QUER
 62
256
370
-1
 48
1.0
  6
BYLAYER
 10
0.0
 20
0.0
 30
0.0
 11
420.0
 21
0.0
 31
0.0
  0
LINE
  5
89
100
AcDbEntity
100
AcDbLine
  8
BLATTRAHMEN_A3_QUER
 62
256
370
-1
 48
1.0
  6
BYLAYER
 10
420.0
 20
0.0
 30
0.0
 11
420.0
 21
297.0
 31
0.0
  0
LINE
  5
8A
100
AcDbEntity
100
AcDbLine
  8
BLATTRAHMEN_A3_QUER
 62
256
370
-1
 48
1.0
  6
BYLAYER
 10
0.0
 20
0.0
 30
0.0
 11
0.0000000000000182
 21
297.0
 31
0.0
  0
LINE
  5
8B
100
AcDbEntity
100
AcDbLine
  8
BLATTRAHMEN_A3_QUER
 62
256
370
-1
 48
1.0
  6
BYLAYER
 10
0.0000000000000182
 20
297.0
 30
0.0
 11
420.0
 21
297.0
 31
0.0
  0
LINE
  5
8C
100
AcDbEntity
100
AcDbLine
  8
BLATTRAHMEN_A3_QUER
 62
256
370
-1
 48
1.0
  6
BYLAYER
 10
20.0000000000000213
 20
287.0
 30
0.0
 11
410.0
 21
287.0
 31
0.0
  0
LINE
  5
8D
100
AcDbEntity
100
AcDbLine
  8
BLATTRAHMEN_A3_QUER
 62
256
370
-1
 48
1.0
  6
BYLAYER
 10
410.0
 20
287.0
 30
0.0
 11
410.0
 21
10.0
 31
0.0
  0
LINE
  5
8E
100
AcDbEntity
100
AcDbLine
  8
BLATTRAHMEN_A3_QUER
 62
256
370
-1
 48
1.0
  6
BYLAYER
 10
410.0
 20
10.0
 30
0.0
 11
20.0
 21
10.0
 31
0.0
  0
LINE
  5
8F
100
AcDbEntity
100
AcDbLine
  8
BLATTRAHMEN_A3_QUER
 62
256
370
-1
 48
1.0
  6
BYLAYER
 10
20.0
 20
10.0
 30
0.0
 11
20.0000000000000213
 21
287.0
 31
0.0
  0
LINE
  5
90
100
AcDbEntity
100
AcDbLine
  8
FALTUNG_LOCHUNG
 62
256
370
-1
 48
1.0
  6
BYLAYER
 10
20.0
 20
0.0
 30
0.0
 11
20.0
 21
7.0
 31
0.0
  0
LINE
  5
91
100
AcDbEntity
100
AcDbLine
  8
FALTUNG_LOCHUNG
 62
256
370
-1
 48
1.0
  6
BYLAYER
 10
130.0
 20
0.0
 30
0.0
 11
130.0
 21
7.0
 31
0.0
  0
LINE
  5
92
100
AcDbEntity
100
AcDbLine
  8
FALTUNG_LOCHUNG
 62
256
370
-1
 48
1.0
  6
BYLAYER
 10
240.0
 20
0.0
 30
0.0
 11
240.0
 21
7.0
 31
0.0
  0
LINE
  5
93
100
AcDbEntity
100
AcDbLine
  8
FALTUNG_LOCHUNG
 62
256
370
-1
 48
1.0
  6
BYLAYER
 10
20.0000000000000213
 20
290.0
 30
0.0
 11
20.0000000000000213
 21
297.0
 31
0.0
  0
LINE
  5
94
100
AcDbEntity
100
AcDbLine
  8
FALTUNG_LOCHUNG
 62
256
370
-1
 48
1.0
  6
BYLAYER
 10
130.0
 20
290.0
 30
0.0
 11
130.0
 21
297.0
 31
0.0
  0
LINE
  5
95
100
AcDbEntity
100
AcDbLine
  8
FALTUNG_LOCHUNG
 62
256
370
-1
 48
1.0
  6
BYLAYER
 10
240.0
 20
290.0
 30
0.0
 11
240.0
 21
297.0
 31
0.0
  0
LINE
  5
96
100
AcDbEntity
100
AcDbLine
  8
FALTUNG_LOCHUNG
 62
256
370
-1
 48
1.0
  6
BYLAYER
 10
19.9999999999999893
 20
148.5
 30
0.0
 11
4.9999999999999893
 21
148.5
 31
0.0
  0
LINE
  5
97
100
AcDbEntity
100
AcDbLine
  8
PLANKOPF_TABELLE
 62
256
370
-1
 48
1.0
  6
BYLAYER
 10
410.0
 20
10.0
 30
0.0
 11
390.0
 21
10.0
 31
0.0
  0
LINE
  5
98
100
AcDbEntity
100
AcDbLine
  8
PLANKOPF_TABELLE
 62
256
370
-1
 48
1.0
  6
BYLAYER
 10
390.0
 20
10.0
 30
0.0
 11
390.0
 21
19.0
 31
0.0
  0
LINE
  5
99
100
AcDbEntity
100
AcDbLine
  8
PLANKOPF_TABELLE
 62
256
370
-1
 48
1.0
  6
BYLAYER
 10
410.0
 20
10.0
 30
0.0
 11
410.0
 21
19.0
 31
0.0
  0
LINE
  5
9A
100
AcDbEntity
100
AcDbLine
  8
PLANKOPF_TABELLE
 62
256
370
-1
 48
1.0
  6
BYLAYER
 10
410.0
 20
19.0
 30
0.0
 11
390.0
 21
19.0
 31
0.0
  0
LINE
  5
9B
100
AcDbEntity
100
AcDbLine
  8
PLANKOPF_TABELLE
 62
256
370
-1
 48
1.0
  6
BYLAYER
 10
410.0
 20
19.0
 30
0.0
 11
410.0
 21
28.0
 31
0.0
  0
LINE
  5
9C
100
AcDbEntity
100
AcDbLine
  8
PLANKOPF_TABELLE
 62
256
370
-1
 48
1.0
  6
BYLAYER
 10
410.0
 20
28.0
 30
0.0
 11
410.0
 21
37.0
 31
0.0
  0
LINE
  5
9D
100
AcDbEntity
100
AcDbLine
  8
PLANKOPF_TABELLE
 62
256
370
-1
 48
1.0
  6
BYLAYER
 10
410.0
 20
37.0
 30
0.0
 11
328.0
 21
37.0000000000000071
 31
0.0
  0
LINE
  5
9E
100
AcDbEntity
100
AcDbLine
  8
PLANKOPF_TABELLE
 62
256
370
-1
 48
1.0
  6
BYLAYER
 10
410.0
 20
28.0
 30
0.0
 11
328.0
 21
28.0000000000000107
 31
0.0
  0
LINE
  5
9F
100
AcDbEntity
100
AcDbLine
  8
PLANKOPF_TABELLE
 62
256
370
-1
 48
1.0
  6
BYLAYER
 10
328.0
 20
37.0000000000000071
 30
0.0
 11
328.0
 21
19.0000000000000107
 31
0.0
  0
LINE
  5
A0
100
AcDbEntity
100
AcDbLine
  8
PLANKOPF_TABELLE
 62
256
370
-1
 48
1.0
  6
BYLAYER
 10
390.0
 20
19.0
 30
0.0
 11
246.0
 21
19.0000000000000213
 31
0.0
  0
LINE
  5
A1
100
AcDbEntity
100
AcDbLine
  8
PLANKOPF_TABELLE
 62
256
370
-1
 48
1.0
  6
BYLAYER
 10
390.0
 20
10.0
 30
0.0
 11
246.0
 21
10.0000000000000195
 31
0.0
  0
LINE
  5
A2
100
AcDbEntity
100
AcDbLine
  8
PLANKOPF_TABELLE
 62
256
370
-1
 48
1.0
  6
BYLAYER
 10
246.0
 20
10.0000000000000195
 30
0.0
 11
246.0
 21
37.0000000000000213
 31
0.0
  0
LINE
  5
A3
100
AcDbEntity
100
AcDbLine
  8
PLANKOPF_TABELLE
 62
256
370
-1
 48
1.0
  6
BYLAYER
 10
246.0
 20
37.0000000000000213
 30
0.0
 11
328.0
 21
37.0000000000000213
 31
0.0
  0
LINE
  5
A4
100
AcDbEntity
100
AcDbLine
  8
PLANKOPF_TABELLE
 62
256
370
-1
 48
1.0
  6
BYLAYER
 10
246.0
 20
28.0000000000000107
 30
0.0
 11
328.0
 21
28.0000000000000107
 31
0.0
  0
LINE
  5
A5
100
AcDbEntity
100
AcDbLine
  8
PLANKOPF_TABELLE
 62
256
370
-1
 48
1.0
  6
BYLAYER
 10
246.0
 20
37.0000000000000213
 30
0.0
 11
246.0
 21
72.0000000000000284
 31
0.0
  0
LINE
  5
A6
100
AcDbEntity
100
AcDbLine
  8
PLANKOPF_TABELLE
 62
256
370
-1
 48
1.0
  6
BYLAYER
 10
410.0
 20
37.0
 30
0.0
 11
410.0
 21
72.0
 31
0.0
  0
LINE
  5
A7
100
AcDbEntity
100
AcDbLine
  8
PLANKOPF_TABELLE
 62
256
370
-1
 48
1.0
  6
BYLAYER
 10
246.0
 20
72.0000000000000284
 30
0.0
 11
410.0
 21
72.0000000000000284
 31
0.0
  0
LINE
  5
A8
100
AcDbEntity
100
AcDbLine
  8
PLANKOPF_TABELLE
 62
256
370
-1
 48
1.0
  6
BYLAYER
 10
246.0
 20
72.0000000000000426
 30
0.0
 11
246.0
 21
94.0000000000000426
 31
0.0
  0
LINE
  5
A9
100
AcDbEntity
100
AcDbLine
  8
PLANKOPF_TABELLE
 62
256
370
-1
 48
1.0
  6
BYLAYER
 10
410.0
 20
72.0000000000000284
 30
0.0
 11
410.0
 21
94.0000000000000284
 31
0.0
  0
LINE
  5
AA
100
AcDbEntity
100
AcDbLine
  8
PLANKOPF_TABELLE
 62
256
370
-1
 48
1.0
  6
BYLAYER
 10
246.0
 20
94.0000000000000426
 30
0.0
 11
410.0
 21
94.0000000000000426
 31
0.0
  0
LINE
  5
AB
100
AcDbEntity
100
AcDbLine
  8
PLANKOPF_TABELLE
 62
256
370
-1
 48
1.0
  6
BYLAYER
 10
246.0
 20
94.0000000000000426
 30
0.0
 11
246.0
 21
103.0
 31
0.0
  0
LINE
  5
AC
100
AcDbEntity
100
AcDbLine
  8
PLANKOPF_TABELLE
 62
256
370
-1
 48
1.0
  6
BYLAYER
 10
246.0
 20
103.0
 30
0.0
 11
246.0
 21
112.0
 31
0.0
  0
LINE
  5
AD
100
AcDbEntity
100
AcDbLine
  8
PLANKOPF_TABELLE
 62
256
370
-1
 48
1.0
  6
BYLAYER
 10
246.0
 20
112.0
 30
0.0
 11
246.0
 21
121.0
 31
0.0
  0
LINE
  5
AE
100
AcDbEntity
100
AcDbLine
  8
PLANKOPF_TABELLE
 62
256
370
-1
 48
1.0
  6
BYLAYER
 10
246.0
 20
121.0
 30
0.0
 11
246.0
 21
184.0000000000001137
 31
0.0
  0
LINE
  5
AF
100
AcDbEntity
100
AcDbLine
  8
PLANKOPF_TABELLE
 62
256
370
-1
 48
1.0
  6
BYLAYER
 10
246.0
 20
184.0000000000001137
 30
0.0
 11
246.0
 21
207.0000000000001137
 31
0.0
  0
LINE
  5
B0
100
AcDbEntity
100
AcDbLine
  8
PLANKOPF_TABELLE
 62
256
370
-1
 48
1.0
  6
BYLAYER
 10
246.0
 20
207.0000000000001137
 30
0.0
 11
246.0
 21
230.0000000000001137
 31
0.0
  0
LINE
  5
B1
100
AcDbEntity
100
AcDbLine
  8
PLANKOPF_TABELLE
 62
256
370
-1
 48
1.0
  6
BYLAYER
 10
410.0
 20
94.0000000000000426
 30
0.0
 11
410.0
 21
103.0
 31
0.0
  0
LINE
  5
B2
100
AcDbEntity
100
AcDbLine
  8
PLANKOPF_TABELLE
 62
256
370
-1
 48
1.0
  6
BYLAYER
 10
410.0
 20
103.0
 30
0.0
 11
410.0
 21
112.0
 31
0.0
  0
LINE
  5
B3
100
AcDbEntity
100
AcDbLine
  8
PLANKOPF_TABELLE
 62
256
370
-1
 48
1.0
  6
BYLAYER
 10
410.0
 20
112.0
 30
0.0
 11
410.0
 21
121.0
 31
0.0
  0
LINE
  5
B4
100
AcDbEntity
100
AcDbLine
  8
PLANKOPF_TABELLE
 62
256
370
-1
 48
1.0
  6
BYLAYER
 10
410.0
 20
121.0
 30
0.0
 11
410.0
 21
184.0000000000001137
 31
0.0
  0
LINE
  5
B5
100
AcDbEntity
100
AcDbLine
  8
PLANKOPF_TABELLE
 62
256
370
-1
 48
1.0
  6
BYLAYER
 10
410.0
 20
184.0000000000001137
 30
0.0
 11
410.0
 21
207.0000000000001137
 31
0.0
  0
LINE
  5
B6
100
AcDbEntity
100
AcDbLine
  8
PLANKOPF_TABELLE
 62
256
370
-1
 48
1.0
  6
BYLAYER
 10
410.0
 20
207.0000000000001137
 30
0.0
 11
410.0
 21
230.0000000000001137
 31
0.0
  0
LINE
  5
B7
100
AcDbEntity
100
AcDbLine
  8
PLANKOPF_TABELLE
 62
256
370
-1
 48
1.0
  6
BYLAYER
 10
246.0
 20
103.0
 30
0.0
 11
310.0
 21
103.0
 31
0.0
  0
LINE
  5
B8
100
AcDbEntity
100
AcDbLine
  8
PLANKOPF_TABELLE
 62
256
370
-1
 48
1.0
  6
BYLAYER
 10
246.0
 20
112.0
 30
0.0
 11
310.0
 21
112.0
 31
0.0
  0
LINE
  5
B9
100
AcDbEntity
100
AcDbLine
  8
PLANKOPF_TABELLE
 62
256
370
-1
 48
1.0
  6
BYLAYER
 10
246.0
 20
121.0
 30
0.0
 11
310.0
 21
121.0
 31
0.0
  0
LINE
  5
BA
100
AcDbEntity
100
AcDbLine
  8
PLANKOPF_TABELLE
 62
256
370
-1
 48
1.0
  6
BYLAYER
 10
310.0
 20
121.0
 30
0.0
 11
310.0
 21
94.0000000000000426
 31
0.0
  0
LINE
  5
BB
100
AcDbEntity
100
AcDbLine
  8
PLANKOPF_TABELLE
 62
256
370
-1
 48
1.0
  6
BYLAYER
 10
310.0
 20
121.0000000000000995
 30
0.0
 11
328.0
 21
121.0000000000000995
 31
0.0
  0
LINE
  5
BC
100
AcDbEntity
100
AcDbLine
  8
PLANKOPF_TABELLE
 62
256
370
-1
 48
1.0
  6
BYLAYER
 10
328.0
 20
121.0000000000000995
 30
0.0
 11
328.0
 21
112.0000000000000995
 31
0.0
  0
LINE
  5
BD
100
AcDbEntity
100
AcDbLine
  8
PLANKOPF_TABELLE
 62
256
370
-1
 48
1.0
  6
BYLAYER
 10
328.0
 20
112.0000000000000995
 30
0.0
 11
328.0
 21
103.0000000000000995
 31
0.0
  0
LINE
  5
BE
100
AcDbEntity
100
AcDbLine
  8
PLANKOPF_TABELLE
 62
256
370
-1
 48
1.0
  6
BYLAYER
 10
328.0
 20
103.0000000000000995
 30
0.0
 11
328.0
 21
94.0000000000000568
 31
0.0
  0
LINE
  5
BF
100
AcDbEntity
100
AcDbLine
  8
PLANKOPF_TABELLE
 62
256
370
-1
 48
1.0
  6
BYLAYER
 10
328.0
 20
121.0
 30
0.0
 11
392.0
 21
121.0
 31
0.0
  0
LINE
  5
C0
100
AcDbEntity
100
AcDbLine
  8
PLANKOPF_TABELLE
 62
256
370
-1
 48
1.0
  6
BYLAYER
 10
328.0
 20
112.0000000000000995
 30
0.0
 11
392.0
 21
112.0000000000000995
 31
0.0
  0
LINE
  5
C1
100
AcDbEntity
100
AcDbLine
  8
PLANKOPF_TABELLE
 62
256
370
-1
 48
1.0
  6
BYLAYER
 10
328.0
 20
103.0000000000000995
 30
0.0
 11
392.0
 21
103.0000000000000995
 31
0.0
  0
LINE
  5
C2
100
AcDbEntity
100
AcDbLine
  8
PLANKOPF_TABELLE
 62
256
370
-1
 48
1.0
  6
BYLAYER
 10
392.0
 20
121.0
 30
0.0
 11
392.0
 21
112.0
 31
0.0
  0
LINE
  5
C3
100
AcDbEntity
100
AcDbLine
  8
PLANKOPF_TABELLE
 62
256
370
-1
 48
1.0
  6
BYLAYER
 10
392.0
 20
112.0000000000000995
 30
0.0
 11
392.0
 21
103.0000000000000995
 31
0.0
  0
LINE
  5
C4
100
AcDbEntity
100
AcDbLine
  8
PLANKOPF_TABELLE
 62
256
370
-1
 48
1.0
  6
BYLAYER
 10
392.0
 20
103.0000000000000995
 30
0.0
 11
392.0
 21
94.0000000000000568
 31
0.0
  0
LINE
  5
C5
100
AcDbEntity
100
AcDbLine
  8
PLANKOPF_TABELLE
 62
256
370
-1
 48
1.0
  6
BYLAYER
 10
310.0
 20
112.0000000000000995
 30
0.0
 11
328.0
 21
112.0000000000000995
 31
0.0
  0
LINE
  5
C6
100
AcDbEntity
100
AcDbLine
  8
PLANKOPF_TABELLE
 62
256
370
-1
 48
1.0
  6
BYLAYER
 10
310.0
 20
103.0000000000000995
 30
0.0
 11
328.0
 21
103.0000000000000995
 31
0.0
  0
LINE
  5
C7
100
AcDbEntity
100
AcDbLine
  8
PLANKOPF_TABELLE
 62
256
370
-1
 48
1.0
  6
BYLAYER
 10
392.0
 20
121.0000000000000995
 30
0.0
 11
410.0
 21
121.0000000000000995
 31
0.0
  0
LINE
  5
C8
100
AcDbEntity
100
AcDbLine
  8
PLANKOPF_TABELLE
 62
256
370
-1
 48
1.0
  6
BYLAYER
 10
392.0
 20
112.0000000000000995
 30
0.0
 11
410.0
 21
112.0000000000000995
 31
0.0
  0
LINE
  5
C9
100
AcDbEntity
100
AcDbLine
  8
PLANKOPF_TABELLE
 62
256
370
-1
 48
1.0
  6
BYLAYER
 10
392.0
 20
103.0000000000000995
 30
0.0
 11
410.0
 21
103.0000000000000995
 31
0.0
  0
LINE
  5
CA
100
AcDbEntity
100
AcDbLine
  8
PLANKOPF_TABELLE
 62
256
370
-1
 48
1.0
  6
BYLAYER
 10
246.0
 20
184.0000000000001137
 30
0.0
 11
410.0
 21
184.0000000000001137
 31
0.0
  0
LINE
  5
CB
100
AcDbEntity
100
AcDbLine
  8
PLANKOPF_TABELLE
 62
256
370
-1
 48
1.0
  6
BYLAYER
 10
246.0
 20
207.0000000000001137
 30
0.0
 11
410.0
 21
207.0000000000001137
 31
0.0
  0
LINE
  5
CC
100
AcDbEntity
100
AcDbLine
  8
PLANKOPF_TABELLE
 62
256
370
-1
 48
1.0
  6
BYLAYER
 10
246.0
 20
230.0000000000001137
 30
0.0
 11
328.0
 21
230.0000000000001137
 31
0.0
  0
LINE
  5
CD
100
AcDbEntity
100
AcDbLine
  8
PLANKOPF_TABELLE
 62
256
370
-1
 48
1.0
  6
BYLAYER
 10
328.0
 20
230.0000000000001137
 30
0.0
 11
410.0
 21
230.0000000000001137
 31
0.0
  0
LINE
  5
CE
100
AcDbEntity
100
AcDbLine
  8
PLANKOPF_TABELLE
 62
256
370
-1
 48
1.0
  6
BYLAYER
 10
328.0
 20
230.0000000000001137
 30
0.0
 11
328.0
 21
207.0000000000001137
 31
0.0
  0
MTEXT
  5
CF
100
AcDbEntity
100
AcDbMText
  8
Copyright
 62
256
370
-1
 48
1.0
  6
BYLAYER
 10
381.8542087132688607
 20
4.9304854187565468
 30
0.0
 40
1.5
 41
0.0
 71
4
 72
1
  1
\H3;\U+00a9 DL3DL
  7
textstyle2
 50
0.0
 73
2
 44
1.0
  0
MTEXT
  5
D0
100
AcDbEntity
100
AcDbMText
  8
PLANKOPF_TEXT_VORGABE
 62
256
370
-1
 48
1.0
  6
BYLAYER
 10
330.0
 20
228.0
 30
0.0
 40
2.0
 41
0.0
 71
4
 72
1
  1
Auftraggeber
  7
textstyle3
 50
0.0
 73
2
 44
1.0
  0
MTEXT
  5
D1
100
AcDbEntity
100
AcDbMText
  8
PLANKOPF_TEXT_VORGABE
 62
256
370
-1
 48
1.0
  6
BYLAYER
 10
248.0
 20
205.0
 30
0.0
 40
2.0
 41
0.0
 71
4
 72
1
  1
Planverfasser:
  7
textstyle4
 50
0.0
 73
2
 44
1.0
  0
MTEXT
  5
D2
100
AcDbEntity
100
AcDbMText
  8
PLANKOPF_TEXT_VORGABE
 62
256
370
-1
 48
1.0
  6
BYLAYER
 10
248.0
 20
182.0000000000001137
 30
0.0
 40
2.0
 41
0.0
 71
4
 72
1
  1
\U+00dcbersichtsplan
  7
textstyle5
 50
0.0
 73
2
 44
1.0
  0
MTEXT
  5
D3
100
AcDbEntity
100
AcDbMText
  8
PLANKOPF_TEXT_VORGABE
 62
256
370
-1
 48
1.0
  6
BYLAYER
 10
248.0
 20
119.0
 30
0.0
 40
2.0
 41
0.0
 71
4
 72
1
  1
Gezeichnet:
  7
textstyle6
 50
0.0
 73
2
 44
1.0
  0
MTEXT
  5
D4
100
AcDbEntity
100
AcDbMText
  8
PLANKOPF_TEXT_VORGABE
 62
256
370
-1
 48
1.0
  6
BYLAYER
 10
248.0
 20
110.0
 30
0.0
 40
2.0
 41
0.0
 71
4
 72
1
  1
Bearbeitet:
  7
textstyle7
 50
0.0
 73
2
 44
1.0
  0
MTEXT
  5
D5
100
AcDbEntity
100
AcDbMText
  8
PLANKOPF_TEXT_VORGABE
 62
256
370
-1
 48
1.0
  6
BYLAYER
 10
248.0
 20
101.0
 30
0.0
 40
2.0
 41
0.0
 71
4
 72
1
  1
Datentechnisch gepr\U+00fcft:
  7
textstyle8
 50
0.0
 73
2
 44
1.0
  0
MTEXT
  5
D6
100
AcDbEntity
100
AcDbMText
  8
PLANKOPF_TEXT_VORGABE
 62
256
370
-1
 48
1.0
  6
BYLAYER
 10
248.0
 20
92.0000000000000426
 30
0.0
 40
2.0
 41
0.0
 71
4
 72
1
  1
Projektbezeichnung:
  7
textstyle9
 50
0.0
 73
2
 44
1.0
  0
MTEXT
  5
D7
100
AcDbEntity
100
AcDbMText
  8
PLANKOPF_TEXT_VORGABE
 62
256
370
-1
 48
1.0
  6
BYLAYER
 10
312.0
 20
119.0
 30
0.0
 40
2.0
 41
0.0
 71
4
 72
1
  1
Datum:
  7
textstyle10
 50
0.0
 73
2
 44
1.0
  0
MTEXT
  5
D8
100
AcDbEntity
100
AcDbMText
  8
PLANKOPF_TEXT_VORGABE
 62
256
370
-1
 48
1.0
  6
BYLAYER
 10
312.0
 20
110.0
 30
0.0
 40
2.0
 41
0.0
 71
4
 72
1
  1
Datum:
  7
textstyle11
 50
0.0
 73
2
 44
1.0
  0
MTEXT
  5
D9
100
AcDbEntity
100
AcDbMText
  8
PLANKOPF_TEXT_VORGABE
 62
256
370
-1
 48
1.0
  6
BYLAYER
 10
312.0
 20
101.0
 30
0.0
 40
2.0
 41
0.0
 71
4
 72
1
  1
Datum:
  7
textstyle12
 50
0.0
 73
2
 44
1.0
  0
MTEXT
  5
DA
100
AcDbEntity
100
AcDbMText
  8
PLANKOPF_TEXT_VORGABE
 62
256
370
-1
 48
1.0
  6
BYLAYER
 10
394.0
 20
119.0
 30
0.0
 40
2.0
 41
0.0
 71
4
 72
1
  1
Datum:
  7
textstyle13
 50
0.0
 73
2
 44
1.0
  0
MTEXT
  5
DB
100
AcDbEntity
100
AcDbMText
  8
PLANKOPF_TEXT_VORGABE
 62
256
370
-1
 48
1.0
  6
BYLAYER
 10
394.0
 20
110.0000000000000995
 30
0.0
 40
2.0
 41
0.0
 71
4
 72
1
  1
Datum:
  7
textstyle14
 50
0.0
 73
2
 44
1.0
  0
MTEXT
  5
DC
100
AcDbEntity
100
AcDbMText
  8
PLANKOPF_TEXT_VORGABE
 62
256
370
-1
 48
1.0
  6
BYLAYER
 10
394.0
 20
101.0
 30
0.0
 40
2.0
 41
0.0
 71
4
 72
1
  1
Datum:
  7
textstyle15
 50
0.0
 73
2
 44
1.0
  0
MTEXT
  5
DD
100
AcDbEntity
100
AcDbMText
  8
PLANKOPF_TEXT_VORGABE
 62
256
370
-1
 48
1.0
  6
BYLAYER
 10
330.0
 20
119.0
 30
0.0
 40
2.0
 41
0.0
 71
4
 72
1
  1
Fachtechnisch gepr\U+00fcft:
  7
textstyle16
 50
0.0
 73
2
 44
1.0
  0
MTEXT
  5
DE
100
AcDbEntity
100
AcDbMText
  8
PLANKOPF_TEXT_VORGABE
 62
256
370
-1
 48
1.0
  6
BYLAYER
 10
330.0
 20
110.0
 30
0.0
 40
2.0
 41
0.0
 71
4
 72
1
  1
Genehmigt:
  7
textstyle17
 50
0.0
 73
2
 44
1.0
  0
MTEXT
  5
DF
100
AcDbEntity
100
AcDbMText
  8
PLANKOPF_TEXT_VORGABE
 62
256
370
-1
 48
1.0
  6
BYLAYER
 10
330.0
 20
101.0
 30
0.0
 40
2.0
 41
0.0
 71
4
 72
1
  1
Leistung abgenommen:
  7
textstyle18
 50
0.0
 73
2
 44
1.0
  0
MTEXT
  5
E0
100
AcDbEntity
100
AcDbMText
  8
PLANKOPF_TEXT_VORGABE
 62
256
370
-1
 48
1.0
  6
BYLAYER
 10
248.0
 20
70.0000000000000284
 30
0.0
 40
2.0
 41
0.0
 71
4
 72
1
  1
Planinhalt:
  7
textstyle19
 50
0.0
 73
2
 44
1.0
  0
MTEXT
  5
E1
100
AcDbEntity
100
AcDbMText
  8
PLANKOPF_TEXT_VORGABE
 62
256
370
-1
 48
1.0
  6
BYLAYER
 10
248.0
 20
35.0000000000000213
 30
0.0
 40
2.0
 41
0.0
 71
4
 72
1
  1
Projektnummer:
  7
textstyle20
 50
0.0
 73
2
 44
1.0
  0
MTEXT
  5
E2
100
AcDbEntity
100
AcDbMText
  8
PLANKOPF_TEXT_VORGABE
 62
256
370
-1
 48
1.0
  6
BYLAYER
 10
248.0
 20
26.0000000000000107
 30
0.0
 40
2.0
 41
0.0
 71
4
 72
1
  1
Plannummer:
  7
textstyle21
 50
0.0
 73
2
 44
1.0
  0
MTEXT
  5
E3
100
AcDbEntity
100
AcDbMText
  8
PLANKOPF_TEXT_VORGABE
 62
256
370
-1
 48
1.0
  6
BYLAYER
 10
248.0
 20
17.0000000000000213
 30
0.0
 40
2.0
 41
0.0
 71
4
 72
1
  1
Planungsstand:
  7
textstyle22
 50
0.0
 73
2
 44
1.0
  0
MTEXT
  5
E4
100
AcDbEntity
100
AcDbMText
  8
PLANKOPF_TEXT_VORGABE
 62
256
370
-1
 48
1.0
  6
BYLAYER
 10
330.0
 20
35.0000000000000213
 30
0.0
 40
2.0
 41
0.0
 71
4
 72
1
  1
PM-ID:
  7
textstyle23
 50
0.0
 73
2
 44
1.0
  0
MTEXT
  5
E5
100
AcDbEntity
100
AcDbMText
  8
PLANKOPF_TEXT_VORGABE
 62
256
370
-1
 48
1.0
  6
BYLAYER
 10
330.0
 20
26.0000000000000107
 30
0.0
 40
2.0
 41
0.0
 71
4
 72
1
  1
Anla\U+00df:
  7
textstyle24
 50
0.0
 73
2
 44
1.0
  0
MTEXT
  5
E6
100
AcDbEntity
100
AcDbMText
  8
PLANKOPF_TEXT_VORGABE
 62
256
370
-1
 48
1.0
  6
BYLAYER
 10
392.0
 20
17.0
 30
0.0
 40
2.0
 41
0.0
 71
4
 72
1
  1
Blatt:
  7
textstyle25
 50
0.0
 73
2
 44
1.0
  0
DIMENSION
  5
E7
100
AcDbEntity
  8
VERMA\U+00dfUNG
 62
256
370
-1
 48
1.0
  6
BYLAYER
100
AcDbDimension
 10
40.0
 20
292.0
 30
0.0
 11
38.125
 21
292.0
 31
0.0
 70
0
 71
8
 72
2
 41
1.0
 42
0.0
  1

  3
Standard
100
AcDbAlignedDimension
 13
40.0
 23
297.0
 33
0.0
 14
40.0
 24
287.0
 34
0.0
 50
90.0
100
AcDbRotatedDimension
1001
ACAD
1000
DSTYLE
1002
{
1070
144
1040
1.0
1070
40
1040
1.0
1002
}
  0
DIMENSION
  5
E8
100
AcDbEntity
  8
VERMA\U+00dfUNG
 62
256
370
-1
 48
1.0
  6
BYLAYER
100
AcDbDimension
 10
40.0
 20
217.75
 30
0.0
 11
38.125
 21
217.75
 31
0.0
 70
0
 71
8
 72
2
 41
1.0
 42
0.0
  1

  3
Standard
100
AcDbAlignedDimension
 13
40.0
 23
287.0
 33
0.0
 14
20.0000000000000107
 24
148.5
 34
0.0
 50
90.0
100
AcDbRotatedDimension
1001
ACAD
1000
DSTYLE
1002
{
1070
144
1040
1.0
1070
40
1040
1.0
1002
}
  0
DIMENSION
  5
E9
100
AcDbEntity
  8
VERMA\U+00dfUNG
 62
256
370
-1
 48
1.0
  6
BYLAYER
100
AcDbDimension
 10
232.9701627115485962
 20
10.0
 30
0.0
 11
231.0951627115485962
 21
14.5000000000000089
 31
0.0
 70
0
 71
8
 72
2
 41
1.0
 42
0.0
  1

  3
Standard
100
AcDbAlignedDimension
 13
230.0
 23
10.0
 33
0.0
 14
246.0
 24
19.0000000000000178
 34
0.0
 50
90.0
100
AcDbRotatedDimension
1001
ACAD
1000
DSTYLE
1002
{
1070
144
1040
1.0
1070
40
1040
1.0
1002
}
  0
DIMENSION
  5
EA
100
AcDbEntity
  8
VERMA\U+00dfUNG
 62
256
370
-1
 48
1.0
  6
BYLAYER
100
AcDbDimension
 10
232.9701627115485962
 20
23.5000000000000142
 30
0.0
 11
231.0951627115485962
 21
23.5000000000000142
 31
0.0
 70
0
 71
8
 72
2
 41
1.0
 42
0.0
  1

  3
Standard
100
AcDbAlignedDimension
 13
232.9701627115485962
 23
19.0000000000000178
 33
0.0
 14
246.0
 24
28.0000000000000107
 34
0.0
 50
90.0
100
AcDbRotatedDimension
1001
ACAD
1000
DSTYLE
1002
{
1070
144
1040
1.0
1070
40
1040
1.0
1002
}
  0
DIMENSION
  5
EB
100
AcDbEntity
  8
VERMA\U+00dfUNG
 62
256
370
-1
 48
1.0
  6
BYLAYER
100
AcDbDimension
 10
232.9701627115485962
 20
32.5000000000000142
 30
0.0
 11
231.0951627115485962
 21
32.5000000000000142
 31
0.0
 70
0
 71
8
 72
2
 41
1.0
 42
0.0
  1

  3
Standard
100
AcDbAlignedDimension
 13
232.9701627115485962
 23
28.0000000000000107
 33
0.0
 14
246.0
 24
37.0000000000000213
 34
0.0
 50
90.0
100
AcDbRotatedDimension
1001
ACAD
1000
DSTYLE
1002
{
1070
144
1040
1.0
1070
40
1040
1.0
1002
}
  0
DIMENSION
  5
EC
100
AcDbEntity
  8
VERMA\U+00dfUNG
 62
256
370
-1
 48
1.0
  6
BYLAYER
100
AcDbDimension
 10
232.9701627115485962
 20
54.5000000000000284
 30
0.0
 11
231.0951627115485962
 21
54.5000000000000284
 31
0.0
 70
0
 71
8
 72
2
 41
1.0
 42
0.0
  1

  3
Standard
100
AcDbAlignedDimension
 13
232.9701627115485962
 23
37.0000000000000213
 33
0.0
 14
246.0
 24
72.0000000000000284
 34
0.0
 50
90.0
100
AcDbRotatedDimension
1001
ACAD
1000
DSTYLE
1002
{
1070
144
1040
1.0
1070
40
1040
1.0
1002
}
  0
DIMENSION
  5
ED
100
AcDbEntity
  8
VERMA\U+00dfUNG
 62
256
370
-1
 48
1.0
  6
BYLAYER
100
AcDbDimension
 10
232.9701627115485962
 20
83.0000000000000426
 30
0.0
 11
231.0951627115485962
 21
83.0000000000000426
 31
0.0
 70
0
 71
8
 72
2
 41
1.0
 42
0.0
  1

  3
Standard
100
AcDbAlignedDimension
 13
232.9701627115485962
 23
72.0000000000000284
 33
0.0
 14
246.0000000000000284
 24
94.0000000000000568
 34
0.0
 50
90.0
100
AcDbRotatedDimension
1001
ACAD
1000
DSTYLE
1002
{
1070
144
1040
1.0
1070
40
1040
1.0
1002
}
  0
DIMENSION
  5
EE
100
AcDbEntity
  8
VERMA\U+00dfUNG
 62
256
370
-1
 48
1.0
  6
BYLAYER
100
AcDbDimension
 10
232.9701627115485962
 20
98.5000000000000284
 30
0.0
 11
231.0951627115485962
 21
98.5000000000000284
 31
0.0
 70
0
 71
8
 72
2
 41
1.0
 42
0.0
  1

  3
Standard
100
AcDbAlignedDimension
 13
232.9701627115485962
 23
94.0000000000000568
 33
0.0
 14
246.0
 24
103.0
 34
0.0
 50
90.0
100
AcDbRotatedDimension
1001
ACAD
1000
DSTYLE
1002
{
1070
144
1040
1.0
1070
40
1040
1.0
1002
}
  0
DIMENSION
  5
EF
100
AcDbEntity
  8
VERMA\U+00dfUNG
 62
256
370
-1
 48
1.0
  6
BYLAYER
100
AcDbDimension
 10
232.9701627115485962
 20
5.0000000000000009
 30
0.0
 11
231.0951627115485962
 21
5.0000000000000009
 31
0.0
 70
0
 71
8
 72
2
 41
1.0
 42
0.0
  1

  3
Standard
100
AcDbAlignedDimension
 13
232.9701627115485962
 23
10.0000000000000018
 33
0.0
 14
232.9701627115485678
 24
0.0
 34
0.0
 50
90.0
100
AcDbRotatedDimension
1001
ACAD
1000
DSTYLE
1002
{
1070
144
1040
1.0
1070
40
1040
1.0
1002
}
  0
DIMENSION
  5
F0
100
AcDbEntity
  8
VERMA\U+00dfUNG
 62
256
370
-1
 48
1.0
  6
BYLAYER
100
AcDbDimension
 10
232.9701627115485962
 20
107.5
 30
0.0
 11
231.0951627115485962
 21
107.5
 31
0.0
 70
0
 71
8
 72
2
 41
1.0
 42
0.0
  1

  3
Standard
100
AcDbAlignedDimension
 13
232.9701627115485962
 23
103.0
 33
0.0
 14
246.0
 24
112.0
 34
0.0
 50
90.0
100
AcDbRotatedDimension
1001
ACAD
1000
DSTYLE
1002
{
1070
144
1040
1.0
1070
40
1040
1.0
1002
}
  0
DIMENSION
  5
F1
100
AcDbEntity
  8
VERMA\U+00dfUNG
 62
256
370
-1
 48
1.0
  6
BYLAYER
100
AcDbDimension
 10
232.9701627115485962
 20
116.5
 30
0.0
 11
231.0951627115485962
 21
116.5
 31
0.0
 70
0
 71
8
 72
2
 41
1.0
 42
0.0
  1

  3
Standard
100
AcDbAlignedDimension
 13
232.9701627115485962
 23
112.0
 33
0.0
 14
246.0
 24
121.0
 34
0.0
 50
90.0
100
AcDbRotatedDimension
1001
ACAD
1000
DSTYLE
1002
{
1070
144
1040
1.0
1070
40
1040
1.0
1002
}
  0
DIMENSION
  5
F2
100
AcDbEntity
  8
VERMA\U+00dfUNG
 62
256
370
-1
 48
1.0
  6
BYLAYER
100
AcDbDimension
 10
232.9701627115485962
 20
152.5000000000000568
 30
0.0
 11
231.0951627115485962
 21
152.5000000000000568
 31
0.0
 70
0
 71
8
 72
2
 41
1.0
 42
0.0
  1

  3
Standard
100
AcDbAlignedDimension
 13
232.9701627115485962
 23
121.0
 33
0.0
 14
246.0000000000000284
 24
184.0000000000001137
 34
0.0
 50
90.0
100
AcDbRotatedDimension
1001
ACAD
1000
DSTYLE
1002
{
1070
144
1040
1.0
1070
40
1040
1.0
1002
}
  0
DIMENSION
  5
F3
100
AcDbEntity
  8
VERMA\U+00dfUNG
 62
256
370
-1
 48
1.0
  6
BYLAYER
100
AcDbDimension
 10
232.9701627115485962
 20
195.5000000000001137
 30
0.0
 11
231.0951627115485962
 21
195.5000000000001137
 31
0.0
 70
0
 71
8
 72
2
 41
1.0
 42
0.0
  1

  3
Standard
100
AcDbAlignedDimension
 13
232.9701627115485962
 23
184.0000000000001137
 33
0.0
 14
246.0
 24
207.0000000000001137
 34
0.0
 50
90.0
100
AcDbRotatedDimension
1001
ACAD
1000
DSTYLE
1002
{
1070
144
1040
1.0
1070
40
1040
1.0
1002
}
  0
DIMENSION
  5
F4
100
AcDbEntity
  8
VERMA\U+00dfUNG
 62
256
370
-1
 48
1.0
  6
BYLAYER
100
AcDbDimension
 10
232.9701627115485962
 20
218.5000000000001137
 30
0.0
 11
231.0951627115485962
 21
218.5000000000001137
 31
0.0
 70
0
 71
8
 72
2
 41
1.0
 42
0.0
  1

  3
Standard
100
AcDbAlignedDimension
 13
232.9701627115485962
 23
207.0000000000001137
 33
0.0
 14
246.0
 24
230.0000000000001137
 34
0.0
 50
90.0
100
AcDbRotatedDimension
1001
ACAD
1000
DSTYLE
1002
{
1070
144
1040
1.0
1070
40
1040
1.0
1002
}
  0
DIMENSION
  5
F5
100
AcDbEntity
  8
VERMA\U+00dfUNG
 62
256
370
-1
 48
1.0
  6
BYLAYER
100
AcDbDimension
 10
246.0
 20
244.4997011732245937
 30
0.0
 11
278.0
 21
246.3747011732245937
 31
0.0
 70
0
 71
8
 72
2
 41
1.0
 42
0.0
  1

  3
Standard
100
AcDbAlignedDimension
 13
246.0
 23
230.0000000000001137
 33
0.0
 14
310.0
 24
230.0000000000001421
 34
0.0
 50
0.0
100
AcDbRotatedDimension
1001
ACAD
1000
DSTYLE
1002
{
1070
144
1040
1.0
1070
40
1040
1.0
1002
}
  0
DIMENSION
  5
F6
100
AcDbEntity
  8
VERMA\U+00dfUNG
 62
256
370
-1
 48
1.0
  6
BYLAYER
100
AcDbDimension
 10
319.0
 20
244.4997011732245937
 30
0.0
 11
319.0
 21
246.3747011732245937
 31
0.0
 70
0
 71
8
 72
2
 41
1.0
 42
0.0
  1

  3
Standard
100
AcDbAlignedDimension
 13
310.0
 23
244.4997011732245937
 33
0.0
 14
328.0
 24
230.0000000000001137
 34
0.0
 50
0.0
100
AcDbRotatedDimension
1001
ACAD
1000
DSTYLE
1002
{
1070
144
1040
1.0
1070
40
1040
1.0
1002
}
  0
DIMENSION
  5
F7
100
AcDbEntity
  8
VERMA\U+00dfUNG
 62
256
370
-1
 48
1.0
  6
BYLAYER
100
AcDbDimension
 10
360.0
 20
244.4997011732245937
 30
0.0
 11
360.0
 21
246.3747011732245937
 31
0.0
 70
0
 71
8
 72
2
 41
1.0
 42
0.0
  1

  3
Standard
100
AcDbAlignedDimension
 13
328.0
 23
244.4997011732245937
 33
0.0
 14
392.0000000000000568
 24
230.0000000000001421
 34
0.0
 50
0.0
100
AcDbRotatedDimension
1001
ACAD
1000
DSTYLE
1002
{
1070
144
1040
1.0
1070
40
1040
1.0
1002
}
  0
DIMENSION
  5
F8
100
AcDbEntity
  8
VERMA\U+00dfUNG
 62
256
370
-1
 48
1.0
  6
BYLAYER
100
AcDbDimension
 10
401.0
 20
244.4997011732245937
 30
0.0
 11
401.0
 21
246.3747011732245937
 31
0.0
 70
0
 71
8
 72
2
 41
1.0
 42
0.0
  1

  3
Standard
100
AcDbAlignedDimension
 13
392.0000000000000568
 23
244.4997011732245937
 33
0.0
 14
410.0
 24
244.4997011732245937
 34
0.0
 50
0.0
100
AcDbRotatedDimension
1001
ACAD
1000
DSTYLE
1002
{
1070
144
1040
1.0
1070
40
1040
1.0
1002
}
  0
DIMENSION
  5
F9
100
AcDbEntity
  8
VERMA\U+00dfUNG
 62
256
370
-1
 48
1.0
  6
BYLAYER
100
AcDbDimension
 10
415.0
 20
244.4997011732245937
 30
0.0
 11
415.0
 21
246.3747011732245937
 31
0.0
 70
0
 71
8
 72
2
 41
1.0
 42
0.0
  1

  3
Standard
100
AcDbAlignedDimension
 13
409.9999999999999432
 23
244.4997011732245937
 33
0.0
 14
420.0
 24
244.4997011732246222
 34
0.0
 50
0.0
100
AcDbRotatedDimension
1001
ACAD
1000
DSTYLE
1002
{
1070
144
1040
1.0
1070
40
1040
1.0
1002
}
  0
DIMENSION
  5
FA
100
AcDbEntity
  8
VERMA\U+00dfUNG
 62
256
370
-1
 48
1.0
  6
BYLAYER
100
AcDbDimension
 10
410.0
 20
273.2786008062419114
 30
0.0
 11
324.9926560500927053
 21
275.1536008062419114
 31
0.0
 70
0
 71
8
 72
2
 41
1.0
 42
0.0
  1

  3
Standard
100
AcDbAlignedDimension
 13
410.0
 23
260.0
 33
0.0
 14
239.9853121001854674
 24
274.0849430371446829
 34
0.0
 50
0.0
100
AcDbRotatedDimension
1001
ACAD
1000
DSTYLE
1002
{
1070
144
1040
1.0
1070
40
1040
1.0
1002
}
  0
DIMENSION
  5
FB
100
AcDbEntity
  8
VERMA\U+00dfUNG
 62
256
370
-1
 48
1.0
  6
BYLAYER
100
AcDbDimension
 10
185.0196500269794342
 20
273.2786008062419114
 30
0.0
 11
185.0196500269794342
 21
275.1536008062419114
 31
0.0
 70
0
 71
8
 72
2
 41
1.0
 42
0.0
  1

  3
Standard
100
AcDbAlignedDimension
 13
239.9853121001854674
 23
273.2786008062419114
 33
0.0
 14
130.0539879537734009
 24
273.8161622935104447
 34
0.0
 50
0.0
100
AcDbRotatedDimension
1001
ACAD
1000
DSTYLE
1002
{
1070
144
1040
1.0
1070
40
1040
1.0
1002
}
  0
DIMENSION
  5
FC
100
AcDbEntity
  8
VERMA\U+00dfUNG
 62
256
370
-1
 48
1.0
  6
BYLAYER
100
AcDbDimension
 10
75.0269939768867147
 20
273.1911622935105015
 30
0.0
 11
75.0269939768867147
 21
275.0661622935105015
 31
0.0
 70
0
 71
8
 72
2
 41
1.0
 42
0.0
  1

  3
Standard
100
AcDbAlignedDimension
 13
130.0539879537734009
 23
273.1911622935104447
 33
0.0
 14
20.0000000000000284
 24
273.1911622935105015
 34
0.0
 50
0.0
100
AcDbRotatedDimension
1001
ACAD
1000
DSTYLE
1002
{
1070
144
1040
1.0
1070
40
1040
1.0
1002
}
  0
DIMENSION
  5
FD
100
AcDbEntity
  8
VERMA\U+00dfUNG
 62
256
370
-1
 48
1.0
  6
BYLAYER
100
AcDbDimension
 10
10.0000000000000195
 20
273.1911622935105015
 30
0.0
 11
10.0000000000000195
 21
275.0661622935105015
 31
0.0
 70
0
 71
8
 72
2
 41
1.0
 42
0.0
  1

  3
Standard
100
AcDbAlignedDimension
 13
20.0000000000000213
 23
273.1911622935105015
 33
0.0
 14
0.0000000000000178
 24
273.1911622935105584
 34
0.0
 50
0.0
100
AcDbRotatedDimension
1001
ACAD
1000
DSTYLE
1002
{
1070
144
1040
1.0
1070
40
1040
1.0
1002
}
  0
LINE
  5
FE
100
AcDbEntity
100
AcDbLine
  8
VERMA\U+00dfUNG
 62
256
370
-1
 48
1.0
  6
BYLAYER
 10
0.0000000000000163
 20
265.6911622935105015
 30
0.0
 11
0.0000000000000172
 21
280.6911622935105015
 31
0.0
  0
LINE
  5
FF
100
AcDbEntity
100
AcDbLine
  8
VERMA\U+00dfUNG
 62
256
370
-1
 48
1.0
  6
BYLAYER
 10
20.0000000000000213
 20
265.6911622935105015
 30
0.0
 11
20.0000000000000213
 21
280.6911622935105015
 31
0.0
  0
LINE
  5
100
100
AcDbEntity
100
AcDbLine
  8
VERMA\U+00dfUNG
 62
256
370
-1
 48
1.0
  6
BYLAYER
 10
130.0539879537734009
 20
265.6911622935104447
 30
0.0
 11
130.0539879537734009
 21
280.6911622935104447
 31
0.0
  0
LINE
  5
101
100
AcDbEntity
100
AcDbLine
  8
VERMA\U+00dfUNG
 62
256
370
-1
 48
1.0
  6
BYLAYER
 10
239.9853121001855811
 20
265.7786008062419114
 30
0.0
 11
239.9853121001855811
 21
280.7786008062419114
 31
0.0
  0
LINE
  5
102
100
AcDbEntity
100
AcDbLine
  8
VERMA\U+00dfUNG
 62
256
370
-1
 48
1.0
  6
BYLAYER
 10
410.0000000000000568
 20
265.7786008062419114
 30
0.0
 11
410.0000000000000568
 21
280.7786008062419114
 31
0.0
  0
LINE
  5
103
100
AcDbEntity
100
AcDbLine
  8
VERMA\U+00dfUNG
 62
256
370
-1
 48
1.0
  6
BYLAYER
 10
32.4999999999999929
 20
287.0
 30
0.0
 11
47.4999999999999929
 21
287.0
 31
0.0
  0
LINE
  5
104
100
AcDbEntity
100
AcDbLine
  8
VERMA\U+00dfUNG
 62
256
370
-1
 48
1.0
  6
BYLAYER
 10
32.5
 20
148.5
 30
0.0
 11
47.5
 21
148.5
 31
0.0
  0
MTEXT
  5
105
100
AcDbEntity
100
AcDbMText
  8
Zeichnung
 62
256
370
-1
 48
1.0
  6
BYLAYER
 10
70.0
 20
230.0
 30
0.0
 40
3.0
 41
0.0
 71
4
 72
1
  1
\H10.0714;A3 quer, 1:1
  7
textstyle26
 50
0.0
 73
2
 44
1.0
  0
MTEXT
  5
106
100
AcDbEntity
100
AcDbMText
  8
Zeichnung
 62
256
370
-1
 48
1.0
  6
BYLAYER
 10
70.0
 20
250.0
 30
0.0
 40
3.0
 41
0.0
 71
4
 72
1
  1
\H10.0714;Zeichnung
  7
textstyle27
 50
0.0
 73
2
 44
1.0
  0
MTEXT
  5
107
100
AcDbEntity
100
AcDbMText
  8
Zeichnung
 62
256
370
-1
 48
1.0
  6
BYLAYER
 10
69.8879256440067707
 20
213.2919015649443395
 30
0.0
 40
3.0
 41
0.0
 71
4
 72
1
  1
\H10.0714;Rahmen nach Din 7200
  7
textstyle28
 50
0.0
 73
2
 44
1.0
  0
MTEXT
  5
108
100
AcDbEntity
100
AcDbMText
  8
Zeichnung
 62
256
370
-1
 48
1.0
  6
BYLAYER
 10
70.0
 20
190.0
 30
0.0
 40
3.0
 41
0.0
 71
4
 72
1
  1
\H10.0714;Plankopf gro\U+00df
  7
textstyle29
 50
0.0
 73
2
 44
1.0
  0
LINE
  5
109
100
AcDbEntity
100
AcDbLine
  8
Zusatzfeld
 62
256
370
-1
 48
1.0
  6
BYLAYER
 10
56.0
 20
20.0
 30
0.0
 11
220.0
 21
20.0
 31
0.0
  0
LINE
  5
10A
100
AcDbEntity
100
AcDbLine
  8
Zusatzfeld
 62
256
370
-1
 48
1.0
  6
BYLAYER
 10
56.0
 20
20.0
 30
0.0
 11
56.0
 21
29.0
 31
0.0
  0
LINE
  5
10B
100
AcDbEntity
100
AcDbLine
  8
Zusatzfeld
 62
256
370
-1
 48
1.0
  6
BYLAYER
 10
56.0
 20
29.0
 30
0.0
 11
56.0
 21
38.0
 31
0.0
  0
LINE
  5
10C
100
AcDbEntity
100
AcDbLine
  8
Zusatzfeld
 62
256
370
-1
 48
1.0
  6
BYLAYER
 10
56.0
 20
38.0
 30
0.0
 11
56.0
 21
47.0
 31
0.0
  0
LINE
  5
10D
100
AcDbEntity
100
AcDbLine
  8
Zusatzfeld
 62
256
370
-1
 48
1.0
  6
BYLAYER
 10
56.0
 20
47.0
 30
0.0
 11
56.0
 21
56.0
 31
0.0
  0
LINE
  5
10E
100
AcDbEntity
100
AcDbLine
  8
Zusatzfeld
 62
256
370
-1
 48
1.0
  6
BYLAYER
 10
56.0
 20
56.0
 30
0.0
 11
56.0
 21
65.0
 31
0.0
  0
LINE
  5
10F
100
AcDbEntity
100
AcDbLine
  8
Zusatzfeld
 62
256
370
-1
 48
1.0
  6
BYLAYER
 10
56.0
 20
65.0
 30
0.0
 11
56.0
 21
74.0
 31
0.0
  0
LINE
  5
110
100
AcDbEntity
100
AcDbLine
  8
Zusatzfeld
 62
256
370
-1
 48
1.0
  6
BYLAYER
 10
220.0
 20
20.0
 30
0.0
 11
220.0
 21
29.0
 31
0.0
  0
LINE
  5
111
100
AcDbEntity
100
AcDbLine
  8
Zusatzfeld
 62
256
370
-1
 48
1.0
  6
BYLAYER
 10
220.0
 20
29.0
 30
0.0
 11
220.0
 21
38.0
 31
0.0
  0
LINE
  5
112
100
AcDbEntity
100
AcDbLine
  8
Zusatzfeld
 62
256
370
-1
 48
1.0
  6
BYLAYER
 10
220.0
 20
38.0
 30
0.0
 11
220.0
 21
47.0
 31
0.0
  0
LINE
  5
113
100
AcDbEntity
100
AcDbLine
  8
Zusatzfeld
 62
256
370
-1
 48
1.0
  6
BYLAYER
 10
220.0
 20
47.0
 30
0.0
 11
220.0
 21
56.0
 31
0.0
  0
LINE
  5
114
100
AcDbEntity
100
AcDbLine
  8
Zusatzfeld
 62
256
370
-1
 48
1.0
  6
BYLAYER
 10
220.0
 20
56.0
 30
0.0
 11
220.0
 21
65.0
 31
0.0
  0
LINE
  5
115
100
AcDbEntity
100
AcDbLine
  8
Zusatzfeld
 62
256
370
-1
 48
1.0
  6
BYLAYER
 10
220.0
 20
65.0
 30
0.0
 11
220.0
 21
74.0
 31
0.0
  0
LINE
  5
116
100
AcDbEntity
100
AcDbLine
  8
Zusatzfeld
 62
256
370
-1
 48
1.0
  6
BYLAYER
 10
56.0
 20
74.0
 30
0.0
 11
70.0
 21
74.0
 31
0.0
  0
LINE
  5
117
100
AcDbEntity
100
AcDbLine
  8
Zusatzfeld
 62
256
370
-1
 48
1.0
  6
BYLAYER
 10
56.0
 20
65.0
 30
0.0
 11
70.0
 21
65.0
 31
0.0
  0
LINE
  5
118
100
AcDbEntity
100
AcDbLine
  8
Zusatzfeld
 62
256
370
-1
 48
1.0
  6
BYLAYER
 10
56.0
 20
56.0
 30
0.0
 11
70.0
 21
56.0
 31
0.0
  0
LINE
  5
119
100
AcDbEntity
100
AcDbLine
  8
Zusatzfeld
 62
256
370
-1
 48
1.0
  6
BYLAYER
 10
56.0
 20
47.0
 30
0.0
 11
70.0
 21
47.0
 31
0.0
  0
LINE
  5
11A
100
AcDbEntity
100
AcDbLine
  8
Zusatzfeld
 62
256
370
-1
 48
1.0
  6
BYLAYER
 10
56.0
 20
38.0
 30
0.0
 11
70.0
 21
38.0
 31
0.0
  0
LINE
  5
11B
100
AcDbEntity
100
AcDbLine
  8
Zusatzfeld
 62
256
370
-1
 48
1.0
  6
BYLAYER
 10
56.0
 20
29.0
 30
0.0
 11
70.0
 21
29.0
 31
0.0
  0
LINE
  5
11C
100
AcDbEntity
100
AcDbLine
  8
Zusatzfeld
 62
256
370
-1
 48
1.0
  6
BYLAYER
 10
70.0
 20
74.0
 30
0.0
 11
70.0
 21
65.0
 31
0.0
  0
LINE
  5
11D
100
AcDbEntity
100
AcDbLine
  8
Zusatzfeld
 62
256
370
-1
 48
1.0
  6
BYLAYER
 10
70.0
 20
65.0
 30
0.0
 11
70.0
 21
56.0
 31
0.0
  0
LINE
  5
11E
100
AcDbEntity
100
AcDbLine
  8
Zusatzfeld
 62
256
370
-1
 48
1.0
  6
BYLAYER
 10
70.0
 20
56.0
 30
0.0
 11
70.0
 21
47.0
 31
0.0
  0
LINE
  5
11F
100
AcDbEntity
100
AcDbLine
  8
Zusatzfeld
 62
256
370
-1
 48
1.0
  6
BYLAYER
 10
70.0
 20
47.0
 30
0.0
 11
70.0
 21
38.0
 31
0.0
  0
LINE
  5
120
100
AcDbEntity
100
AcDbLine
  8
Zusatzfeld
 62
256
370
-1
 48
1.0
  6
BYLAYER
 10
70.0
 20
38.0
 30
0.0
 11
70.0
 21
29.0
 31
0.0
  0
LINE
  5
121
100
AcDbEntity
100
AcDbLine
  8
Zusatzfeld
 62
256
370
-1
 48
1.0
  6
BYLAYER
 10
70.0
 20
29.0
 30
0.0
 11
70.0
 21
20.0
 31
0.0
  0
LINE
  5
122
100
AcDbEntity
100
AcDbLine
  8
Zusatzfeld
 62
256
370
-1
 48
1.0
  6
BYLAYER
 10
70.0
 20
74.0
 30
0.0
 11
88.0
 21
74.0
 31
0.0
  0
LINE
  5
123
100
AcDbEntity
100
AcDbLine
  8
Zusatzfeld
 62
256
370
-1
 48
1.0
  6
BYLAYER
 10
70.0
 20
65.0
 30
0.0
 11
88.0
 21
65.0
 31
0.0
  0
LINE
  5
124
100
AcDbEntity
100
AcDbLine
  8
Zusatzfeld
 62
256
370
-1
 48
1.0
  6
BYLAYER
 10
70.0
 20
56.0
 30
0.0
 11
88.0
 21
56.0
 31
0.0
  0
LINE
  5
125
100
AcDbEntity
100
AcDbLine
  8
Zusatzfeld
 62
256
370
-1
 48
1.0
  6
BYLAYER
 10
70.0
 20
47.0
 30
0.0
 11
88.0
 21
47.0
 31
0.0
  0
LINE
  5
126
100
AcDbEntity
100
AcDbLine
  8
Zusatzfeld
 62
256
370
-1
 48
1.0
  6
BYLAYER
 10
70.0
 20
38.0
 30
0.0
 11
88.0
 21
38.0
 31
0.0
  0
LINE
  5
127
100
AcDbEntity
100
AcDbLine
  8
Zusatzfeld
 62
256
370
-1
 48
1.0
  6
BYLAYER
 10
70.0
 20
29.0
 30
0.0
 11
88.0
 21
29.0
 31
0.0
  0
LINE
  5
128
100
AcDbEntity
100
AcDbLine
  8
Zusatzfeld
 62
256
370
-1
 48
1.0
  6
BYLAYER
 10
220.0
 20
74.0
 30
0.0
 11
202.0
 21
74.0
 31
0.0
  0
LINE
  5
129
100
AcDbEntity
100
AcDbLine
  8
Zusatzfeld
 62
256
370
-1
 48
1.0
  6
BYLAYER
 10
220.0
 20
65.0
 30
0.0
 11
202.0
 21
65.0
 31
0.0
  0
LINE
  5
12A
100
AcDbEntity
100
AcDbLine
  8
Zusatzfeld
 62
256
370
-1
 48
1.0
  6
BYLAYER
 10
220.0
 20
56.0
 30
0.0
 11
202.0
 21
56.0
 31
0.0
  0
LINE
  5
12B
100
AcDbEntity
100
AcDbLine
  8
Zusatzfeld
 62
256
370
-1
 48
1.0
  6
BYLAYER
 10
220.0
 20
47.0
 30
0.0
 11
202.0
 21
47.0
 31
0.0
  0
LINE
  5
12C
100
AcDbEntity
100
AcDbLine
  8
Zusatzfeld
 62
256
370
-1
 48
1.0
  6
BYLAYER
 10
220.0
 20
38.0
 30
0.0
 11
202.0
 21
38.0
 31
0.0
  0
LINE
  5
12D
100
AcDbEntity
100
AcDbLine
  8
Zusatzfeld
 62
256
370
-1
 48
1.0
  6
BYLAYER
 10
220.0
 20
29.0
 30
0.0
 11
202.0
 21
29.0000000000000036
 31
0.0
  0
LINE
  5
12E
100
AcDbEntity
100
AcDbLine
  8
Zusatzfeld
 62
256
370
-1
 48
1.0
  6
BYLAYER
 10
88.0
 20
74.0
 30
0.0
 11
88.0
 21
65.0
 31
0.0
  0
LINE
  5
12F
100
AcDbEntity
100
AcDbLine
  8
Zusatzfeld
 62
256
370
-1
 48
1.0
  6
BYLAYER
 10
88.0
 20
65.0
 30
0.0
 11
88.0
 21
56.0
 31
0.0
  0
LINE
  5
130
100
AcDbEntity
100
AcDbLine
  8
Zusatzfeld
 62
256
370
-1
 48
1.0
  6
BYLAYER
 10
88.0
 20
56.0
 30
0.0
 11
88.0
 21
47.0
 31
0.0
  0
LINE
  5
131
100
AcDbEntity
100
AcDbLine
  8
Zusatzfeld
 62
256
370
-1
 48
1.0
  6
BYLAYER
 10
88.0
 20
47.0
 30
0.0
 11
88.0
 21
38.0
 31
0.0
  0
LINE
  5
132
100
AcDbEntity
100
AcDbLine
  8
Zusatzfeld
 62
256
370
-1
 48
1.0
  6
BYLAYER
 10
88.0
 20
38.0
 30
0.0
 11
88.0
 21
29.0
 31
0.0
  0
LINE
  5
133
100
AcDbEntity
100
AcDbLine
  8
Zusatzfeld
 62
256
370
-1
 48
1.0
  6
BYLAYER
 10
88.0
 20
29.0
 30
0.0
 11
88.0
 21
20.0
 31
0.0
  0
LINE
  5
134
100
AcDbEntity
100
AcDbLine
  8
Zusatzfeld
 62
256
370
-1
 48
1.0
  6
BYLAYER
 10
202.0
 20
74.0
 30
0.0
 11
202.0
 21
65.0
 31
0.0
  0
LINE
  5
135
100
AcDbEntity
100
AcDbLine
  8
Zusatzfeld
 62
256
370
-1
 48
1.0
  6
BYLAYER
 10
202.0
 20
65.0
 30
0.0
 11
202.0
 21
56.0
 31
0.0
  0
LINE
  5
136
100
AcDbEntity
100
AcDbLine
  8
Zusatzfeld
 62
256
370
-1
 48
1.0
  6
BYLAYER
 10
202.0
 20
56.0
 30
0.0
 11
202.0
 21
47.0
 31
0.0
  0
LINE
  5
137
100
AcDbEntity
100
AcDbLine
  8
Zusatzfeld
 62
256
370
-1
 48
1.0
  6
BYLAYER
 10
202.0
 20
47.0
 30
0.0
 11
202.0
 21
38.0
 31
0.0
  0
LINE
  5
138
100
AcDbEntity
100
AcDbLine
  8
Zusatzfeld
 62
256
370
-1
 48
1.0
  6
BYLAYER
 10
202.0
 20
38.0
 30
0.0
 11
202.0
 21
29.0
 31
0.0
  0
LINE
  5
139
100
AcDbEntity
100
AcDbLine
  8
Zusatzfeld
 62
256
370
-1
 48
1.0
  6
BYLAYER
 10
202.0
 20
29.0
 30
0.0
 11
202.0
 21
20.0
 31
0.0
  0
LINE
  5
13A
100
AcDbEntity
100
AcDbLine
  8
Zusatzfeld
 62
256
370
-1
 48
1.0
  6
BYLAYER
 10
88.0
 20
29.0
 30
0.0
 11
202.0
 21
29.0
 31
0.0
  0
LINE
  5
13B
100
AcDbEntity
100
AcDbLine
  8
Zusatzfeld
 62
256
370
-1
 48
1.0
  6
BYLAYER
 10
88.0
 20
38.0
 30
0.0
 11
202.0
 21
38.0
 31
0.0
  0
LINE
  5
13C
100
AcDbEntity
100
AcDbLine
  8
Zusatzfeld
 62
256
370
-1
 48
1.0
  6
BYLAYER
 10
88.0
 20
47.0
 30
0.0
 11
202.0
 21
47.0
 31
0.0
  0
LINE
  5
13D
100
AcDbEntity
100
AcDbLine
  8
Zusatzfeld
 62
256
370
-1
 48
1.0
  6
BYLAYER
 10
88.0
 20
56.0
 30
0.0
 11
202.0
 21
56.0
 31
0.0
  0
LINE
  5
13E
100
AcDbEntity
100
AcDbLine
  8
Zusatzfeld
 62
256
370
-1
 48
1.0
  6
BYLAYER
 10
88.0
 20
65.0
 30
0.0
 11
202.0
 21
65.0
 31
0.0
  0
LINE
  5
13F
100
AcDbEntity
100
AcDbLine
  8
Zusatzfeld
 62
256
370
-1
 48
1.0
  6
BYLAYER
 10
88.0
 20
74.0
 30
0.0
 11
202.0
 21
74.0
 31
0.0
  0
MTEXT
  5
140
100
AcDbEntity
100
AcDbMText
  8
Zusatzfeld text klein
 62
256
370
-1
 48
1.0
  6
BYLAYER
 10
57.5
 20
25.0000000000000036
 30
0.0
 40
1.0
 41
0.0
 71
4
 72
1
  1
\H2.5;Index
  7
textstyle30
 50
0.0
 73
2
 44
1.0
  0
MTEXT
  5
141
100
AcDbEntity
100
AcDbMText
  8
Zusatzfeld text klein
 62
256
370
-1
 48
1.0
  6
BYLAYER
 10
71.5
 20
25.0000000000000036
 30
0.0
 40
1.0
 41
0.0
 71
4
 72
1
  1
\H2.5;Datum
  7
textstyle31
 50
0.0
 73
2
 44
1.0
  0
MTEXT
  5
142
100
AcDbEntity
100
AcDbMText
  8
Zusatzfeld text klein
 62
256
370
-1
 48
1.0
  6
BYLAYER
 10
89.5
 20
25.0000000000000071
 30
0.0
 40
1.0
 41
0.0
 71
4
 72
1
  1
\H2.5;\U+00c4nderungsbeschreibung
  7
textstyle32
 50
0.0
 73
2
 44
1.0
  0
MTEXT
  5
143
100
AcDbEntity
100
AcDbMText
  8
Zusatzfeld text klein
 62
256
370
-1
 48
1.0
  6
BYLAYER
 10
203.5
 20
25.0000000000000071
 30
0.0
 40
1.0
 41
0.0
 71
4
 72
1
  1
\H2.5;Bearbeiter
  7
textstyle33
 50
0.0
 73
2
 44
1.0
  0
DIMENSION
  5
144
100
AcDbEntity
  8
Zusatztextfeld Verma\U+00dfung
 62
256
370
-1
 48
1.0
  6
BYLAYER
100
AcDbDimension
 10
42.5700240523726876
 20
20.0
 30
0.0
 11
40.6950240523726876
 21
24.5
 31
0.0
 70
0
 71
8
 72
2
 41
1.0
 42
0.0
  1

  3
Standard
100
AcDbAlignedDimension
 13
56.0
 23
20.0
 33
0.0
 14
56.0
 24
29.0
 34
0.0
 50
90.0
100
AcDbRotatedDimension
1001
ACAD
1000
DSTYLE
1002
{
1070
144
1040
1.0
1070
40
1040
1.0
1002
}
  0
DIMENSION
  5
145
100
AcDbEntity
  8
Zusatztextfeld Verma\U+00dfung
 62
256
370
-1
 48
1.0
  6
BYLAYER
100
AcDbDimension
 10
42.5700240523726876
 20
33.5
 30
0.0
 11
40.6950240523726876
 21
33.5
 31
0.0
 70
0
 71
8
 72
2
 41
1.0
 42
0.0
  1

  3
Standard
100
AcDbAlignedDimension
 13
42.5700240523726876
 23
29.0
 33
0.0
 14
56.0
 24
38.0
 34
0.0
 50
90.0
100
AcDbRotatedDimension
1001
ACAD
1000
DSTYLE
1002
{
1070
144
1040
1.0
1070
40
1040
1.0
1002
}
  0
DIMENSION
  5
146
100
AcDbEntity
  8
Zusatztextfeld Verma\U+00dfung
 62
256
370
-1
 48
1.0
  6
BYLAYER
100
AcDbDimension
 10
42.5700240523726876
 20
42.5
 30
0.0
 11
40.6950240523726876
 21
42.5
 31
0.0
 70
0
 71
8
 72
2
 41
1.0
 42
0.0
  1

  3
Standard
100
AcDbAlignedDimension
 13
42.5700240523726876
 23
38.0
 33
0.0
 14
56.0
 24
47.0
 34
0.0
 50
90.0
100
AcDbRotatedDimension
1001
ACAD
1000
DSTYLE
1002
{
1070
144
1040
1.0
1070
40
1040
1.0
1002
}
  0
DIMENSION
  5
147
100
AcDbEntity
  8
Zusatztextfeld Verma\U+00dfung
 62
256
370
-1
 48
1.0
  6
BYLAYER
100
AcDbDimension
 10
42.5700240523726876
 20
51.5
 30
0.0
 11
40.6950240523726876
 21
51.5
 31
0.0
 70
0
 71
8
 72
2
 41
1.0
 42
0.0
  1

  3
Standard
100
AcDbAlignedDimension
 13
42.5700240523726876
 23
47.0
 33
0.0
 14
56.0
 24
56.0
 34
0.0
 50
90.0
100
AcDbRotatedDimension
1001
ACAD
1000
DSTYLE
1002
{
1070
144
1040
1.0
1070
40
1040
1.0
1002
}
  0
DIMENSION
  5
148
100
AcDbEntity
  8
Zusatztextfeld Verma\U+00dfung
 62
256
370
-1
 48
1.0
  6
BYLAYER
100
AcDbDimension
 10
42.5700240523726876
 20
60.5
 30
0.0
 11
40.6950240523726876
 21
60.5
 31
0.0
 70
0
 71
8
 72
2
 41
1.0
 42
0.0
  1

  3
Standard
100
AcDbAlignedDimension
 13
42.5700240523726876
 23
56.0
 33
0.0
 14
56.0
 24
65.0
 34
0.0
 50
90.0
100
AcDbRotatedDimension
1001
ACAD
1000
DSTYLE
1002
{
1070
144
1040
1.0
1070
40
1040
1.0
1002
}
  0
DIMENSION
  5
149
100
AcDbEntity
  8
Zusatztextfeld Verma\U+00dfung
 62
256
370
-1
 48
1.0
  6
BYLAYER
100
AcDbDimension
 10
42.5700240523726876
 20
69.5
 30
0.0
 11
40.6950240523726876
 21
69.5
 31
0.0
 70
0
 71
8
 72
2
 41
1.0
 42
0.0
  1

  3
Standard
100
AcDbAlignedDimension
 13
42.5700240523726876
 23
65.0
 33
0.0
 14
56.0
 24
74.0
 34
0.0
 50
90.0
100
AcDbRotatedDimension
1001
ACAD
1000
DSTYLE
1002
{
1070
144
1040
1.0
1070
40
1040
1.0
1002
}
  0
DIMENSION
  5
14A
100
AcDbEntity
  8
Zusatztextfeld Verma\U+00dfung
 62
256
370
-1
 48
1.0
  6
BYLAYER
100
AcDbDimension
 10
56.0
 20
85.9680256031178089
 30
0.0
 11
63.0
 21
87.8430256031178089
 31
0.0
 70
0
 71
8
 72
2
 41
1.0
 42
0.0
  1

  3
Standard
100
AcDbAlignedDimension
 13
56.0
 23
74.0
 33
0.0
 14
70.0
 24
74.0
 34
0.0
 50
0.0
100
AcDbRotatedDimension
1001
ACAD
1000
DSTYLE
1002
{
1070
144
1040
1.0
1070
40
1040
1.0
1002
}
  0
DIMENSION
  5
14B
100
AcDbEntity
  8
Zusatztextfeld Verma\U+00dfung
 62
256
370
-1
 48
1.0
  6
BYLAYER
100
AcDbDimension
 10
79.0
 20
85.9680256031178089
 30
0.0
 11
79.0
 21
87.8430256031178089
 31
0.0
 70
0
 71
8
 72
2
 41
1.0
 42
0.0
  1

  3
Standard
100
AcDbAlignedDimension
 13
70.0
 23
85.9680256031178089
 33
0.0
 14
88.0
 24
74.0
 34
0.0
 50
0.0
100
AcDbRotatedDimension
1001
ACAD
1000
DSTYLE
1002
{
1070
144
1040
1.0
1070
40
1040
1.0
1002
}
  0
DIMENSION
  5
14C
100
AcDbEntity
  8
Zusatztextfeld Verma\U+00dfung
 62
256
370
-1
 48
1.0
  6
BYLAYER
100
AcDbDimension
 10
145.0
 20
85.9680256031178089
 30
0.0
 11
145.0
 21
87.8430256031178089
 31
0.0
 70
0
 71
8
 72
2
 41
1.0
 42
0.0
  1

  3
Standard
100
AcDbAlignedDimension
 13
88.0
 23
85.9680256031178089
 33
0.0
 14
202.0
 24
74.0
 34
0.0
 50
0.0
100
AcDbRotatedDimension
1001
ACAD
1000
DSTYLE
1002
{
1070
144
1040
1.0
1070
40
1040
1.0
1002
}
  0
DIMENSION
  5
14D
100
AcDbEntity
  8
Zusatztextfeld Verma\U+00dfung
 62
256
370
-1
 48
1.0
  6
BYLAYER
100
AcDbDimension
 10
211.0
 20
85.9680256031178089
 30
0.0
 11
211.0
 21
87.8430256031178089
 31
0.0
 70
0
 71
8
 72
2
 41
1.0
 42
0.0
  1

  3
Standard
100
AcDbAlignedDimension
 13
202.0
 23
85.9680256031178089
 33
0.0
 14
220.0
 24
74.0
 34
0.0
 50
0.0
100
AcDbRotatedDimension
1001
ACAD
1000
DSTYLE
1002
{
1070
144
1040
1.0
1070
40
1040
1.0
1002
}
  0
MTEXT
  5
14E
100
AcDbEntity
100
AcDbMText
  8
Zeichnung
 62
256
370
-1
 48
1.0
  6
BYLAYER
 10
60.0
 20
110.0
 30
0.0
 40
3.0
 41
0.0
 71
4
 72
1
  1
Der gelbe Plankopf  wird bei Bedarf \U+00fcber
  7
textstyle0
 50
0.0
 73
2
 44
1.0
  0
MTEXT
  5
14F
100
AcDbEntity
100
AcDbMText
  8
Zeichnung
 62
256
370
-1
 48
1.0
  6
BYLAYER
 10
60.0
 20
100.0
 30
0.0
 40
3.0
 41
0.0
 71
4
 72
1
  1
\U+00fcber dem Blauen mit 1mm Versatz eingef\U+00fcgt
  7
textstyle1
 50
0.0
 73
2
 44
1.0
  0
LINE
  5
150
100
AcDbEntity
100
AcDbLine
  8
Zeichnung
 62
256
370
-1
 48
1.0
  6
BYLAYER
 10
50.0060568961975989
 20
95.6151572441139592
 30
0.0
 11
157.5273058702480284
 21
95.6115800394443056
 31
0.0
  0
LINE
  5
151
100
AcDbEntity
100
AcDbLine
  8
Zeichnung
 62
256
370
-1
 48
1.0
  6
BYLAYER
 10
157.5273058702480284
 20
95.6115800394443056
 30
0.0
 11
157.5273058702480284
 21
115.3221679059566469
 31
0.0
  0
LINE
  5
152
100
AcDbEntity
100
AcDbLine
  8
Zeichnung
 62
256
370
-1
 48
1.0
  6
BYLAYER
 10
157.5273058702480284
 20
115.3221679059566469
 30
0.0
 11
50.0150084165442976
 21
115.3221679059566469
 31
0.0
  0
LINE
  5
153
100
AcDbEntity
100
AcDbLine
  8
Zeichnung
 62
256
370
-1
 48
1.0
  6
BYLAYER
 10
50.0026341444704912
 20
95.6054778290719867
 30
0.0
 11
50.0150084165442976
 21
115.3221679059566469
 31
0.0
  0
ENDSEC
  0
SECTION
  2
OBJECTS
  0
DICTIONARY
  5
C
100
AcDbDictionary
280
0
281
1
  3
ACAD_GROUP
350
D
  3
ACAD_LAYOUT
350
1A
  3
ACAD_MLINESTYLE
350
17
  3
ACAD_PLOTSETTINGS
350
19
  3
ACAD_PLOTSTYLENAME
350
E
  3
AcDbVariableDictionary
350
154
  3
QCAD_OBJECTS
350
155
  0
DICTIONARY
  5
D
100
AcDbDictionary
280
0
281
1
  0
ACDBDICTIONARYWDFLT
  5
E
100
AcDbDictionary
281
1
  3
Normal
350
F
100
AcDbDictionaryWithDefault
340
F
  0
ACDBPLACEHOLDER
  5
F
  0
DICTIONARY
  5
17
100
AcDbDictionary
280
0
281
1
  3
Standard
350
18
  0
MLINESTYLE
  5
18
100
AcDbMlineStyle
  2
STANDARD
 70
0
  3

 62
256
 51
90.0
 52
90.0
 71
2
 49
0.5
 62
256
  6
BYLAYER
 49
-0.5
 62
256
  6
BYLAYER
  0
DICTIONARY
  5
19
100
AcDbDictionary
280
0
281
1
  0
DICTIONARY
  5
1A
100
AcDbDictionary
281
1
  3
Layout1
350
1E
  3
Layout2
350
26
  3
Model
350
22
  0
LAYOUT
  5
1E
100
AcDbPlotSettings
  1

  2
none_device
  4

  6

 40
0.0
 41
0.0
 42
0.0
 43
0.0
 44
0.0
 45
0.0
 46
0.0
 47
0.0
 48
0.0
 49
0.0
140
0.0
141
0.0
142
1.0
143
1.0
 70
688
 72
0
 73
0
 74
5
  7

 75
16
147
1.0
148
0.0
149
0.0
100
AcDbLayout
  1
Layout1
 70
1
 71
1
 10
0.0
 20
0.0
 11
420.0
 21
297.0
 12
0.0
 22
0.0
 32
0.0
 14
100000000000000000000.0
 24
100000000000000000000.0
 34
100000000000000000000.0
 15
-100000000000000000000.0
 25
-100000000000000000000.0
 35
-100000000000000000000.0
146
0.0
 13
0.0
 23
0.0
 33
0.0
 16
1.0
 26
0.0
 36
0.0
 17
0.0
 27
1.0
 37
0.0
 76
0
330
1B
  0
LAYOUT
  5
22
100
AcDbPlotSettings
  1

  2
none_device
  4

  6

 40
0.0
 41
0.0
 42
0.0
 43
0.0
 44
0.0
 45
0.0
 46
0.0
 47
0.0
 48
0.0
 49
0.0
140
0.0
141
0.0
142
1.0
143
1.0
 70
1712
 72
0
 73
0
 74
0
  7

 75
0
147
1.0
148
0.0
149
0.0
100
AcDbLayout
  1
Model
 70
1
 71
0
 10
0.0
 20
0.0
 11
12.0
 21
9.0
 12
0.0
 22
0.0
 32
0.0
 14
0.0
 24
0.0
 34
0.0
 15
0.0
 25
0.0
 35
0.0
146
0.0
 13
0.0
 23
0.0
 33
0.0
 16
1.0
 26
0.0
 36
0.0
 17
0.0
 27
1.0
 37
0.0
 76
0
330
1F
  0
LAYOUT
  5
26
100
AcDbPlotSettings
  1

  2
none_device
  4

  6

 40
0.0
 41
0.0
 42
0.0
 43
0.0
 44
0.0
 45
0.0
 46
0.0
 47
0.0
 48
0.0
 49
0.0
140
0.0
141
0.0
142
1.0
143
1.0
 70
688
 72
0
 73
0
 74
5
  7

 75
16
147
1.0
148
0.0
149
0.0
100
AcDbLayout
  1
Layout2
 70
1
 71
2
 10
0.0
 20
0.0
 11
12.0
 21
9.0
 12
0.0
 22
0.0
 32
0.0
 14
0.0
 24
0.0
 34
0.0
 15
0.0
 25
0.0
 35
0.0
146
0.0
 13
0.0
 23
0.0
 33
0.0
 16
1.0
 26
0.0
 36
0.0
 17
0.0
 27
1.0
 37
0.0
 76
0
330
23
  0
DICTIONARY
  5
154
100
AcDbDictionary
281
1
  3
DIMASSOC
350
157
  3
HIDETEXT
350
156
  0
DICTIONARYVAR
  5
156
100
DictionaryVariables
280
0
  1
2
  0
DICTIONARYVAR
  5
157
100
DictionaryVariables
280
0
  1
1
  0
DICTIONARY
  5
155
100
AcDbDictionary
281
1
  3
ColorSettings/BackgroundColor
350
158
  3
ColorSettings/ColorMode
350
159
  3
Grid/DisplayGrid00
350
15A
  3
Grid/DisplayGrid01
350
15B
  3
Grid/DisplayGrid02
350
15C
  3
Grid/DisplayGrid03
350
15D
  3
Grid/GridSpacingX00
350
15E
  3
Grid/GridSpacingX01
350
15F
  3
Grid/GridSpacingX02
350
160
  3
Grid/GridSpacingX03
350
161
  3
Grid/GridSpacingY00
350
162
  3
Grid/GridSpacingY01
350
163
  3
Grid/GridSpacingY02
350
164
  3
Grid/GridSpacingY03
350
165
  3
Grid/IsometricGrid00
350
166
  3
Grid/IsometricGrid01
350
167
  3
Grid/IsometricGrid02
350
168
  3
Grid/IsometricGrid03
350
169
  3
Grid/IsometricProjection00
350
16A
  3
Grid/IsometricProjection01
350
16B
  3
Grid/IsometricProjection02
350
16C
  3
Grid/IsometricProjection03
350
16D
  3
Grid/MetaGridSpacingX00
350
16E
  3
Grid/MetaGridSpacingX01
350
16F
  3
Grid/MetaGridSpacingX02
350
170
  3
Grid/MetaGridSpacingX03
350
171
  3
Grid/MetaGridSpacingY00
350
172
  3
Grid/MetaGridSpacingY01
350
173
  3
Grid/MetaGridSpacingY02
350
174
  3
Grid/MetaGridSpacingY03
350
175
  3
MultiPageSettings/Columns
350
176
  3
MultiPageSettings/GlueMarginsBottom
350
177
  3
MultiPageSettings/GlueMarginsLeft
350
178
  3
MultiPageSettings/GlueMarginsRight
350
179
  3
MultiPageSettings/GlueMarginsTop
350
17A
  3
MultiPageSettings/PrintCropMarks
350
17B
  3
MultiPageSettings/Rows
350
17C
  3
PageSettings/OffsetX
350
17D
  3
PageSettings/OffsetY
350
17E
  3
PageSettings/PageOrientation
350
17F
  3
PageSettings/PaperHeight
350
180
  3
PageSettings/PaperSizeName
350
181
  3
PageSettings/PaperWidth
350
182
  3
PageSettings/Scale
350
183
  3
PageSettings/ShowPaperBorders
350
184
  3
QCADVersion
350
185
  3
UnitSettings/PaperUnit
350
186
  3
ViewportCenter
350
187
  3
ViewportHeight
350
188
  3
ViewportWidth
350
189
  0
XRECORD
  5
158
330
155
100
AcDbXrecord
280
1
1000
Weiss
  0
XRECORD
  5
159
330
155
100
AcDbXrecord
280
1
1000
FullColor
  0
XRECORD
  5
15A
330
155
100
AcDbXrecord
280
1
290
1
  0
XRECORD
  5
15B
330
155
100
AcDbXrecord
280
1
290
1
  0
XRECORD
  5
15C
330
155
100
AcDbXrecord
280
1
290
1
  0
XRECORD
  5
15D
330
155
100
AcDbXrecord
280
1
290
1
  0
XRECORD
  5
15E
330
155
100
AcDbXrecord
280
1
1000
auto
  0
XRECORD
  5
15F
330
155
100
AcDbXrecord
280
1
1000
auto
  0
XRECORD
  5
160
330
155
100
AcDbXrecord
280
1
1000
auto
  0
XRECORD
  5
161
330
155
100
AcDbXrecord
280
1
1000
auto
  0
XRECORD
  5
162
330
155
100
AcDbXrecord
280
1
1000
auto
  0
XRECORD
  5
163
330
155
100
AcDbXrecord
280
1
1000
auto
  0
XRECORD
  5
164
330
155
100
AcDbXrecord
280
1
1000
auto
  0
XRECORD
  5
165
330
155
100
AcDbXrecord
280
1
1000
auto
  0
XRECORD
  5
166
330
155
100
AcDbXrecord
280
1
290
0
  0
XRECORD
  5
167
330
155
100
AcDbXrecord
280
1
290
0
  0
XRECORD
  5
168
330
155
100
AcDbXrecord
280
1
290
0
  0
XRECORD
  5
169
330
155
100
AcDbXrecord
280
1
290
0
  0
XRECORD
  5
16A
330
155
100
AcDbXrecord
280
1
 90
0
  0
XRECORD
  5
16B
330
155
100
AcDbXrecord
280
1
 90
0
  0
XRECORD
  5
16C
330
155
100
AcDbXrecord
280
1
 90
0
  0
XRECORD
  5
16D
330
155
100
AcDbXrecord
280
1
 90
0
  0
XRECORD
  5
16E
330
155
100
AcDbXrecord
280
1
1000
auto
  0
XRECORD
  5
16F
330
155
100
AcDbXrecord
280
1
1000
auto
  0
XRECORD
  5
170
330
155
100
AcDbXrecord
280
1
1000
auto
  0
XRECORD
  5
171
330
155
100
AcDbXrecord
280
1
1000
auto
  0
XRECORD
  5
172
330
155
100
AcDbXrecord
280
1
1000
auto
  0
XRECORD
  5
173
330
155
100
AcDbXrecord
280
1
1000
auto
  0
XRECORD
  5
174
330
155
100
AcDbXrecord
280
1
1000
auto
  0
XRECORD
  5
175
330
155
100
AcDbXrecord
280
1
1000
auto
  0
XRECORD
  5
176
330
155
100
AcDbXrecord
280
1
 90
1
  0
XRECORD
  5
177
330
155
100
AcDbXrecord
280
1
 40
10.0
  0
XRECORD
  5
178
330
155
100
AcDbXrecord
280
1
 40
10.0
  0
XRECORD
  5
179
330
155
100
AcDbXrecord
280
1
 40
10.0
  0
XRECORD
  5
17A
330
155
100
AcDbXrecord
280
1
 40
10.0
  0
XRECORD
  5
17B
330
155
100
AcDbXrecord
280
1
290
0
  0
XRECORD
  5
17C
330
155
100
AcDbXrecord
280
1
 90
1
  0
XRECORD
  5
17D
330
155
100
AcDbXrecord
280
1
 40
0.0
  0
XRECORD
  5
17E
330
155
100
AcDbXrecord
280
1
 40
0.0
  0
XRECORD
  5
17F
330
155
100
AcDbXrecord
280
1
1000
Landscape
  0
XRECORD
  5
180
330
155
100
AcDbXrecord
280
1
1000
420
  0
XRECORD
  5
181
330
155
100
AcDbXrecord
280
1
1000
ISO A3
  0
XRECORD
  5
182
330
155
100
AcDbXrecord
280
1
1000
297
  0
XRECORD
  5
183
330
155
100
AcDbXrecord
280
1
1000
1:1
  0
XRECORD
  5
184
330
155
100
AcDbXrecord
280
1
290
1
  0
XRECORD
  5
185
330
155
100
AcDbXrecord
280
1
1000
3.14.2
  0
XRECORD
  5
186
330
155
100
AcDbXrecord
280
1
 90
4
  0
XRECORD
  5
188
330
155
100
AcDbXrecord
280
1
 40
318.0367132867132796
  0
XRECORD
  5
189
330
155
100
AcDbXrecord
280
1
 40
609.4664335664334658
  0
ENDSEC
  0
EOF
