999
dxflib 3.12.2.0
  0
SECTION
  2
HEADER
  9
$ACADVER
  1
AC1015
  9
$HANDSEED
  5
FFFF
  9
$DIMADEC
 70
0
  9
$DIMASZ
 40
4.0
  9
$DIMAUNIT
 70
0
  9
$DIMAZIN
 70
2
  9
$DIMDEC
 70
1
  9
$DIMEXE
 40
2.0
  9
$DIMEXO
 40
1.0
  9
$DIMGAP
 40
1.0
  9
$DIMLUNIT
 70
2
  9
$DIMSCALE
 40
1.0
  9
$DIMTSZ
 40
0.0
  9
$DIMTXT
 40
4.0
  9
$DIMZIN
 70
8
  9
$DWGCODEPAGE
  3
ANSI_1252
  9
$INSUNITS
 70
4
  9
$LTSCALE
 40
1.0
  9
$MEASUREMENT
 70
1
  9
$PDMODE
 70
0
  9
$PDSIZE
 40
0
  0
ENDSEC
  0
SECTION
  2
TABLES
  0
TABLE
  2
VPORT
  5
8
100
AcDbSymbolTable
 70
1
  0
VPORT
  5
30
100
AcDbSymbolTableRecord
100
AcDbViewportTableRecord
  2
*Active
 70
0
 10
0.0
 20
0.0
 11
1.0
 21
1.0
 12
286.3055555555554861
 22
148.5
 13
0.0
 23
0.0
 14
10.0
 24
10.0
 15
10.0
 25
10.0
 16
0.0
 26
0.0
 36
1.0
 17
0.0
 27
0.0
 37
0.0
 40
297.0
 41
1.92798353909465
 42
50.0
 43
0.0
 44
0.0
 50
0.0
 51
0.0
 71
0
 72
100
 73
1
 74
3
 75
1
 76
1
 77
0
 78
0
281
0
 65
1
110
0.0
120
0.0
130
0.0
111
1.0
121
0.0
131
0.0
112
0.0
122
1.0
132
0.0
 79
0
146
0.0
  0
ENDTAB
  0
TABLE
  2
LTYPE
  5
5
100
AcDbSymbolTable
 70
41
  0
LTYPE
  5
16
100
AcDbSymbolTableRecord
100
AcDbLinetypeTableRecord
  2
Continuous
 70
0
  3
Solid line
 72
65
 73
0
 40
0.0
  0
LTYPE
  5
31
100
AcDbSymbolTableRecord
100
AcDbLinetypeTableRecord
  2
ACAD_ISO15W100
 70
0
  3
ISO double-dash triple-dot __ __ . . . __ __ . .
 72
65
 73
10
 40
39.0000000000000071
 49
12.0
 74
0
 49
-3.0
 74
0
 49
12.0
 74
0
 49
-2.9500000000000002
 74
0
 49
0.1
 74
0
 49
-2.9000000000000004
 74
0
 49
0.1
 74
0
 49
-2.9000000000000004
 74
0
 49
0.1
 74
0
 49
-2.9500000000000002
 74
0
  0
LTYPE
  5
32
100
AcDbSymbolTableRecord
100
AcDbLinetypeTableRecord
  2
DIVIDE
 70
0
  3
Divide ____ . . ____ . . ____ . . ____ . . ____
 72
65
 73
6
 40
31.7500000000000036
 49
12.6999999999999993
 74
0
 49
-6.2999999999999998
 74
0
 49
0.1
 74
0
 49
-6.25
 74
0
 49
0.1
 74
0
 49
-6.2999999999999998
 74
0
  0
LTYPE
  5
33
100
AcDbSymbolTableRecord
100
AcDbLinetypeTableRecord
  2
ACAD_ISO10W100
 70
0
  3
ISO dash dot __ . __ . __ . __ . __ . __ . __ . 
 72
65
 73
4
 40
18.0
 49
12.0
 74
0
 49
-2.9500000000000002
 74
0
 49
0.1
 74
0
 49
-2.9500000000000002
 74
0
  0
LTYPE
  5
34
100
AcDbSymbolTableRecord
100
AcDbLinetypeTableRecord
  2
ACAD_ISO04W100
 70
0
  3
ISO long-dash dot ____ . ____ . ____ . ____ . _
 72
65
 73
4
 40
30.0
 49
24.0
 74
0
 49
-2.9500000000000002
 74
0
 49
0.1
 74
0
 49
-2.9500000000000002
 74
0
  0
LTYPE
  5
35
100
AcDbSymbolTableRecord
100
AcDbLinetypeTableRecord
  2
CENTER2
 70
0
  3
Center (.5x) ___ _ ___ _ ___ _ ___ _ ___ _ ___
 72
65
 73
4
 40
28.5750000000000028
 49
19.0500000000000007
 74
0
 49
-3.1749999999999998
 74
0
 49
3.1749999999999998
 74
0
 49
-3.1749999999999998
 74
0
  0
LTYPE
  5
36
100
AcDbSymbolTableRecord
100
AcDbLinetypeTableRecord
  2
ACAD_ISO11W100
 70
0
  3
ISO double-dash dot __ __ . __ __ . __ __ . __ _
 72
65
 73
6
 40
33.0
 49
12.0
 74
0
 49
-3.0
 74
0
 49
12.0
 74
0
 49
-2.9500000000000002
 74
0
 49
0.1
 74
0
 49
-2.9500000000000002
 74
0
  0
LTYPE
  5
37
100
AcDbSymbolTableRecord
100
AcDbLinetypeTableRecord
  2
HIDDEN2
 70
0
  3
Hidden (.5x) _ _ _ _ _ _ _ _ _ _ _ _ _ _ _ _ _ 
 72
65
 73
2
 40
4.7624999999999993
 49
3.1749999999999998
 74
0
 49
-1.5874999999999999
 74
0
  0
LTYPE
  5
38
100
AcDbSymbolTableRecord
100
AcDbLinetypeTableRecord
  2
BORDERX2
 70
0
  3
Border (2x) ____  ____  .  ____  ____  .  ___
 72
65
 73
6
 40
88.8999999999999773
 49
25.3999999999999986
 74
0
 49
-12.6999999999999993
 74
0
 49
25.3999999999999986
 74
0
 49
-12.6499999999999986
 74
0
 49
0.1
 74
0
 49
-12.6499999999999986
 74
0
  0
LTYPE
  5
39
100
AcDbSymbolTableRecord
100
AcDbLinetypeTableRecord
  2
ACAD_ISO05W100
 70
0
  3
ISO long-dash double-dot ____ .. ____ .. ____ . 
 72
65
 73
6
 40
33.0000000000000071
 49
24.0
 74
0
 49
-2.9500000000000002
 74
0
 49
0.1
 74
0
 49
-2.9000000000000004
 74
0
 49
0.1
 74
0
 49
-2.9500000000000002
 74
0
  0
LTYPE
  5
3A
100
AcDbSymbolTableRecord
100
AcDbLinetypeTableRecord
  2
DASHDOTX2
 70
0
  3
Dash dot (2x) ____  .  ____  .  ____  .  ___
 72
65
 73
4
 40
50.7999999999999972
 49
25.3999999999999986
 74
0
 49
-12.6499999999999986
 74
0
 49
0.1
 74
0
 49
-12.6499999999999986
 74
0
  0
LTYPE
  5
3B
100
AcDbSymbolTableRecord
100
AcDbLinetypeTableRecord
  2
HIDDENX2
 70
0
  3
Hidden (2x) ____ ____ ____ ____ ____ ____ ____ 
 72
65
 73
2
 40
19.0499999999999972
 49
12.6999999999999993
 74
0
 49
-6.3499999999999996
 74
0
  0
LTYPE
  5
3C
100
AcDbSymbolTableRecord
100
AcDbLinetypeTableRecord
  2
CENTERX2
 70
0
  3
Center (2x) ________  __  ________  __  _____
 72
65
 73
4
 40
101.6000000000000085
 49
63.5
 74
0
 49
-12.6999999999999993
 74
0
 49
12.6999999999999993
 74
0
 49
-12.6999999999999993
 74
0
  0
LTYPE
  5
3D
100
AcDbSymbolTableRecord
100
AcDbLinetypeTableRecord
  2
BORDER2
 70
0
  3
Border (.5x) __.__.__.__.__.__.__.__.__.__.__.
 72
65
 73
6
 40
22.2250000000000014
 49
6.3499999999999996
 74
0
 49
-3.1749999999999998
 74
0
 49
6.3499999999999996
 74
0
 49
-3.125
 74
0
 49
0.1
 74
0
 49
-3.125
 74
0
  0
LTYPE
  5
3E
100
AcDbSymbolTableRecord
100
AcDbLinetypeTableRecord
  2
DASHDOT2
 70
0
  3
Dash dot (.5x) _._._._._._._._._._._._._._._.
 72
65
 73
4
 40
12.6999999999999993
 49
6.3499999999999996
 74
0
 49
-3.125
 74
0
 49
0.1
 74
0
 49
-3.125
 74
0
  0
LTYPE
  5
3F
100
AcDbSymbolTableRecord
100
AcDbLinetypeTableRecord
  2
ACAD_ISO12W100
 70
0
  3
ISO dash double-dot __ . . __ . . __ . . __ . . 
 72
65
 73
6
 40
21.0
 49
12.0
 74
0
 49
-2.9500000000000002
 74
0
 49
0.1
 74
0
 49
-2.9000000000000004
 74
0
 49
0.1
 74
0
 49
-2.9500000000000002
 74
0
  0
LTYPE
  5
40
100
AcDbSymbolTableRecord
100
AcDbLinetypeTableRecord
  2
ACAD_ISO07W100
 70
0
  3
ISO dot . . . . . . . . . . . . . . . . . . . . 
 72
65
 73
2
 40
3.0
 49
0.1
 74
0
 49
-2.8999999999999999
 74
0
  0
LTYPE
  5
41
100
AcDbSymbolTableRecord
100
AcDbLinetypeTableRecord
  2
HIDDEN
 70
0
  3
Hidden __ __ __ __ __ __ __ __ __ __ __ __ __ __
 72
65
 73
2
 40
9.5249999999999986
 49
6.3499999999999996
 74
0
 49
-3.1749999999999998
 74
0
  0
LTYPE
  5
42
100
AcDbSymbolTableRecord
100
AcDbLinetypeTableRecord
  2
ACAD_ISO06W100
 70
0
  3
ISO long-dash triple-dot ____ ... ____ ... ____
 72
65
 73
8
 40
36.0000000000000071
 49
24.0
 74
0
 49
-2.9500000000000002
 74
0
 49
0.1
 74
0
 49
-2.9000000000000004
 74
0
 49
0.1
 74
0
 49
-2.9000000000000004
 74
0
 49
0.1
 74
0
 49
-2.9500000000000002
 74
0
  0
LTYPE
  5
43
100
AcDbSymbolTableRecord
100
AcDbLinetypeTableRecord
  2
CENTER
 70
0
  3
Center ____ _ ____ _ ____ _ ____ _ ____ _ ____
 72
65
 73
4
 40
50.8000000000000043
 49
31.75
 74
0
 49
-6.3499999999999996
 74
0
 49
6.3499999999999996
 74
0
 49
-6.3499999999999996
 74
0
  0
LTYPE
  5
44
100
AcDbSymbolTableRecord
100
AcDbLinetypeTableRecord
  2
DOTX2
 70
0
  3
Dot (2x) .  .  .  .  .  .  .  .  .  .  .  .  .  .
 72
65
 73
2
 40
12.6999999999999993
 49
0.1
 74
0
 49
-12.5999999999999996
 74
0
  0
LTYPE
  5
45
100
AcDbSymbolTableRecord
100
AcDbLinetypeTableRecord
  2
PHANTOM
 70
0
  3
Phantom ______  __  __  ______  __  __  ______ 
 72
65
 73
6
 40
63.5000000000000071
 49
31.75
 74
0
 49
-6.3499999999999996
 74
0
 49
6.3499999999999996
 74
0
 49
-6.3499999999999996
 74
0
 49
6.3499999999999996
 74
0
 49
-6.3499999999999996
 74
0
  0
LTYPE
  5
46
100
AcDbSymbolTableRecord
100
AcDbLinetypeTableRecord
  2
ACAD_ISO08W100
 70
0
  3
ISO long-dash short-dash ____ __ ____ __ ____ _
 72
65
 73
4
 40
36.0
 49
24.0
 74
0
 49
-3.0
 74
0
 49
6.0
 74
0
 49
-3.0
 74
0
  0
LTYPE
  5
47
100
AcDbSymbolTableRecord
100
AcDbLinetypeTableRecord
  2
DASHEDX2
 70
0
  3
Dashed (2x) ____  ____  ____  ____  ____  ___
 72
65
 73
2
 40
38.0999999999999943
 49
25.3999999999999986
 74
0
 49
-12.6999999999999993
 74
0
  0
LTYPE
  5
48
100
AcDbSymbolTableRecord
100
AcDbLinetypeTableRecord
  2
ACAD_ISO02W100
 70
0
  3
ISO dash __ __ __ __ __ __ __ __ __ __ __ __ __
 72
65
 73
2
 40
15.0
 49
12.0
 74
0
 49
-3.0
 74
0
  0
LTYPE
  5
49
100
AcDbSymbolTableRecord
100
AcDbLinetypeTableRecord
  2
PHANTOM2
 70
0
  3
Phantom (.5x) ___ _ _ ___ _ _ ___ _ _ ___ _ _
 72
65
 73
6
 40
31.7500000000000036
 49
15.875
 74
0
 49
-3.1749999999999998
 74
0
 49
3.1749999999999998
 74
0
 49
-3.1749999999999998
 74
0
 49
3.1749999999999998
 74
0
 49
-3.1749999999999998
 74
0
  0
LTYPE
  5
4A
100
AcDbSymbolTableRecord
100
AcDbLinetypeTableRecord
  2
DASHED2
 70
0
  3
Dashed (.5x) _ _ _ _ _ _ _ _ _ _ _ _ _ _ _ _ _ 
 72
65
 73
2
 40
9.5249999999999986
 49
6.3499999999999996
 74
0
 49
-3.1749999999999998
 74
0
  0
LTYPE
  5
4B
100
AcDbSymbolTableRecord
100
AcDbLinetypeTableRecord
  2
ACAD_ISO09W100
 70
0
  3
ISO long-dash double-short-dash ____ __ __ ____
 72
65
 73
6
 40
45.0
 49
24.0
 74
0
 49
-3.0
 74
0
 49
6.0
 74
0
 49
-3.0
 74
0
 49
6.0
 74
0
 49
-3.0
 74
0
  0
LTYPE
  5
4C
100
AcDbSymbolTableRecord
100
AcDbLinetypeTableRecord
  2
ACAD_ISO13W100
 70
0
  3
ISO double-dash double-dot __ __ . . __ __ . . _
 72
65
 73
8
 40
36.0000000000000071
 49
12.0
 74
0
 49
-3.0
 74
0
 49
12.0
 74
0
 49
-2.9500000000000002
 74
0
 49
0.1
 74
0
 49
-2.9000000000000004
 74
0
 49
0.1
 74
0
 49
-2.9500000000000002
 74
0
  0
LTYPE
  5
4D
100
AcDbSymbolTableRecord
100
AcDbLinetypeTableRecord
  2
DOT2
 70
0
  3
Dot (.5x) ........................................
 72
65
 73
2
 40
3.1749999999999998
 49
0.1
 74
0
 49
-3.0749999999999997
 74
0
  0
LTYPE
  5
4E
100
AcDbSymbolTableRecord
100
AcDbLinetypeTableRecord
  2
DASHED
 70
0
  3
Dashed __ __ __ __ __ __ __ __ __ __ __ __ __ _
 72
65
 73
2
 40
19.0499999999999972
 49
12.6999999999999993
 74
0
 49
-6.3499999999999996
 74
0
  0
LTYPE
  5
4F
100
AcDbSymbolTableRecord
100
AcDbLinetypeTableRecord
  2
ACAD_ISO14W100
 70
0
  3
ISO dash triple-dot __ . . . __ . . . __ . . . _
 72
65
 73
8
 40
24.0000000000000036
 49
12.0
 74
0
 49
-2.9500000000000002
 74
0
 49
0.1
 74
0
 49
-2.9000000000000004
 74
0
 49
0.1
 74
0
 49
-2.9000000000000004
 74
0
 49
0.1
 74
0
 49
-2.9500000000000002
 74
0
  0
LTYPE
  5
15
100
AcDbSymbolTableRecord
100
AcDbLinetypeTableRecord
  2
BYLAYER
 70
0
  3

 72
65
 73
0
 40
0.0
  0
LTYPE
  5
50
100
AcDbSymbolTableRecord
100
AcDbLinetypeTableRecord
  2
PHANTOMX2
 70
0
  3
Phantom (2x) ____________    ____    ____   _
 72
65
 73
6
 40
127.0000000000000142
 49
63.5
 74
0
 49
-12.6999999999999993
 74
0
 49
12.6999999999999993
 74
0
 49
-12.6999999999999993
 74
0
 49
12.6999999999999993
 74
0
 49
-12.6999999999999993
 74
0
  0
LTYPE
  5
14
100
AcDbSymbolTableRecord
100
AcDbLinetypeTableRecord
  2
BYBLOCK
 70
0
  3

 72
65
 73
0
 40
0.0
  0
LTYPE
  5
51
100
AcDbSymbolTableRecord
100
AcDbLinetypeTableRecord
  2
DIVIDEX2
 70
0
  3
Divide (2x) ________  .  .  ________  .  .  _
 72
65
 73
6
 40
63.5
 49
25.3999999999999986
 74
0
 49
-12.6499999999999986
 74
0
 49
0.1
 74
0
 49
-12.5999999999999979
 74
0
 49
0.1
 74
0
 49
-12.6499999999999986
 74
0
  0
LTYPE
  5
52
100
AcDbSymbolTableRecord
100
AcDbLinetypeTableRecord
  2
BORDER
 70
0
  3
Border __ __ . __ __ . __ __ . __ __ . __ __ .
 72
65
 73
6
 40
44.4499999999999957
 49
12.6999999999999993
 74
0
 49
-6.3499999999999996
 74
0
 49
12.6999999999999993
 74
0
 49
-6.2999999999999998
 74
0
 49
0.1
 74
0
 49
-6.2999999999999998
 74
0
  0
LTYPE
  5
53
100
AcDbSymbolTableRecord
100
AcDbLinetypeTableRecord
  2
DIVIDE2
 70
0
  3
Divide (.5x) __..__..__..__..__..__..__..__.._
 72
65
 73
6
 40
15.8749999999999982
 49
6.3499999999999996
 74
0
 49
-3.125
 74
0
 49
0.1
 74
0
 49
-3.0750000000000002
 74
0
 49
0.1
 74
0
 49
-3.125
 74
0
  0
LTYPE
  5
54
100
AcDbSymbolTableRecord
100
AcDbLinetypeTableRecord
  2
DOT
 70
0
  3
Dot . . . . . . . . . . . . . . . . . . . . . . . .
 72
65
 73
2
 40
6.3499999999999996
 49
0.1
 74
0
 49
-6.25
 74
0
  0
LTYPE
  5
55
100
AcDbSymbolTableRecord
100
AcDbLinetypeTableRecord
  2
DASHDOT
 70
0
  3
Dash dot __ . __ . __ . __ . __ . __ . __ . __
 72
65
 73
4
 40
25.4000000000000021
 49
12.6999999999999993
 74
0
 49
-6.2999999999999998
 74
0
 49
0.1
 74
0
 49
-6.2999999999999998
 74
0
  0
LTYPE
  5
56
100
AcDbSymbolTableRecord
100
AcDbLinetypeTableRecord
  2
ACAD_ISO03W100
 70
0
  3
ISO dash space __    __    __    __    __    __
 72
65
 73
2
 40
30.0
 49
12.0
 74
0
 49
-18.0
 74
0
  0
ENDTAB
  0
TABLE
  2
LAYER
  5
2
100
AcDbSymbolTable
 70
8
  0
LAYER
  5
57
100
AcDbSymbolTableRecord
100
AcDbLayerTableRecord
  2
Faltung Lochung
 70
4
 62
3
420
65280
  6
Continuous
370
-3
390
F
  0
LAYER
  5
58
100
AcDbSymbolTableRecord
100
AcDbLayerTableRecord
  2
Plankopf Rahmen 0.5
 70
4
 62
1
420
16711680
  6
Continuous
370
50
390
F
  0
LAYER
  5
59
100
AcDbSymbolTableRecord
100
AcDbLayerTableRecord
  2
Hilfslinien
 70
4
 62
3
420
65280
  6
Continuous
370
-3
390
F
  0
LAYER
  5
10
100
AcDbSymbolTableRecord
100
AcDbLayerTableRecord
  2
0
 70
4
 62
7
420
16777215
  6
Continuous
370
25
390
F
  0
LAYER
  5
5A
100
AcDbSymbolTableRecord
100
AcDbLayerTableRecord
  2
Plankopf Rahmen
 70
4
 62
1
420
16711680
  6
Continuous
370
-3
390
F
  0
LAYER
  5
5B
100
AcDbSymbolTableRecord
100
AcDbLayerTableRecord
  2
Blattrahmen Din A1
 70
4
 62
5
420
255
  6
Continuous
370
-3
390
F
  0
LAYER
  5
5C
100
AcDbSymbolTableRecord
100
AcDbLayerTableRecord
  2
Plankopf Text Vorgabe
 70
4
 62
5
420
255
  6
Continuous
370
-3
390
F
  0
LAYER
  5
5D
100
AcDbSymbolTableRecord
100
AcDbLayerTableRecord
  2
Plankopf ausgef\U+00fcllt
 70
4
 62
94
420
32768
  6
Continuous
370
-3
390
F
  0
ENDTAB
  0
TABLE
  2
STYLE
  5
3
100
AcDbSymbolTable
 70
38
  0
STYLE
  5
5E
100
AcDbSymbolTableRecord
100
AcDbTextStyleTableRecord
  2
Standard
 70
0
 40
0.0
 41
1.0
 50
0.0
 71
0
 42
2.5
  3

  4

1001
ACAD
1000
txt
1071
0
  0
STYLE
  5
5F
100
AcDbSymbolTableRecord
100
AcDbTextStyleTableRecord
  2
textstyle0
 70
0
 40
0.0
 41
1.0
 50
0.0
 71
0
 42
1.6640000000000001
  3

  4

1001
ACAD
1000
Liberation Sans
1071
0
  0
STYLE
  5
60
100
AcDbSymbolTableRecord
100
AcDbTextStyleTableRecord
  2
textstyle1
 70
0
 40
0.0
 41
1.0
 50
0.0
 71
0
 42
1.6640000000000001
  3

  4

1001
ACAD
1000
Liberation Sans
1071
0
  0
STYLE
  5
61
100
AcDbSymbolTableRecord
100
AcDbTextStyleTableRecord
  2
textstyle2
 70
0
 40
0.0
 41
1.0
 50
0.0
 71
0
 42
1.6640000000000001
  3

  4

1001
ACAD
1000
Liberation Sans
1071
0
  0
STYLE
  5
62
100
AcDbSymbolTableRecord
100
AcDbTextStyleTableRecord
  2
textstyle3
 70
0
 40
0.0
 41
1.0
 50
0.0
 71
0
 42
1.6640000000000001
  3

  4

1001
ACAD
1000
Liberation Sans
1071
0
  0
STYLE
  5
63
100
AcDbSymbolTableRecord
100
AcDbTextStyleTableRecord
  2
textstyle4
 70
0
 40
0.0
 41
1.0
 50
0.0
 71
0
 42
1.6640000000000001
  3

  4

1001
ACAD
1000
Liberation Sans
1071
0
  0
STYLE
  5
64
100
AcDbSymbolTableRecord
100
AcDbTextStyleTableRecord
  2
textstyle5
 70
0
 40
0.0
 41
1.0
 50
0.0
 71
0
 42
1.6640000000000001
  3

  4

1001
ACAD
1000
Liberation Sans
1071
0
  0
STYLE
  5
65
100
AcDbSymbolTableRecord
100
AcDbTextStyleTableRecord
  2
textstyle6
 70
0
 40
0.0
 41
1.0
 50
0.0
 71
0
 42
14.5600000000000005
  3

  4

1001
ACAD
1000
Liberation Sans
1071
33554432
  0
STYLE
  5
66
100
AcDbSymbolTableRecord
100
AcDbTextStyleTableRecord
  2
textstyle7
 70
0
 40
0.0
 41
1.0
 50
0.0
 71
0
 42
3.1200000000000001
  3

  4

1001
ACAD
1000
Liberation Sans
1071
33554432
  0
STYLE
  5
67
100
AcDbSymbolTableRecord
100
AcDbTextStyleTableRecord
  2
textstyle8
 70
0
 40
0.0
 41
1.0
 50
0.0
 71
0
 42
3.1200000000000001
  3

  4

1001
ACAD
1000
Liberation Sans
1071
33554432
  0
STYLE
  5
68
100
AcDbSymbolTableRecord
100
AcDbTextStyleTableRecord
  2
textstyle9
 70
0
 40
0.0
 41
1.0
 50
0.0
 71
0
 42
3.1200000000000001
  3

  4

1001
ACAD
1000
Liberation Sans
1071
33554432
  0
STYLE
  5
69
100
AcDbSymbolTableRecord
100
AcDbTextStyleTableRecord
  2
textstyle10
 70
0
 40
0.0
 41
1.0
 50
0.0
 71
0
 42
2.6000000000000001
  3

  4

1001
ACAD
1000
Liberation Sans
1071
33554432
  0
STYLE
  5
6A
100
AcDbSymbolTableRecord
100
AcDbTextStyleTableRecord
  2
textstyle11
 70
0
 40
0.0
 41
1.0
 50
0.0
 71
0
 42
2.6000000000000001
  3

  4

1001
ACAD
1000
Liberation Sans
1071
33554432
  0
STYLE
  5
6B
100
AcDbSymbolTableRecord
100
AcDbTextStyleTableRecord
  2
textstyle12
 70
0
 40
0.0
 41
1.0
 50
0.0
 71
0
 42
2.6000000000000001
  3

  4

1001
ACAD
1000
Liberation Sans
1071
33554432
  0
STYLE
  5
6C
100
AcDbSymbolTableRecord
100
AcDbTextStyleTableRecord
  2
textstyle13
 70
0
 40
0.0
 41
1.0
 50
0.0
 71
0
 42
5.2000000000000002
  3

  4

1001
ACAD
1000
Liberation Sans
1071
33554432
  0
STYLE
  5
6D
100
AcDbSymbolTableRecord
100
AcDbTextStyleTableRecord
  2
textstyle14
 70
0
 40
0.0
 41
1.0
 50
0.0
 71
0
 42
5.2000000000000002
  3

  4

1001
ACAD
1000
Liberation Sans
1071
33554432
  0
STYLE
  5
6E
100
AcDbSymbolTableRecord
100
AcDbTextStyleTableRecord
  2
textstyle15
 70
0
 40
0.0
 41
1.0
 50
0.0
 71
0
 42
3.6400000000000001
  3

  4

1001
ACAD
1000
Liberation Sans
1071
33554432
  0
STYLE
  5
6F
100
AcDbSymbolTableRecord
100
AcDbTextStyleTableRecord
  2
textstyle16
 70
0
 40
0.0
 41
1.0
 50
0.0
 71
0
 42
3.6400000000000001
  3

  4

1001
ACAD
1000
Liberation Sans
1071
33554432
  0
STYLE
  5
70
100
AcDbSymbolTableRecord
100
AcDbTextStyleTableRecord
  2
textstyle17
 70
0
 40
0.0
 41
1.0
 50
0.0
 71
0
 42
5.2000000000000002
  3

  4

1001
ACAD
1000
Liberation Sans
1071
33554432
  0
STYLE
  5
71
100
AcDbSymbolTableRecord
100
AcDbTextStyleTableRecord
  2
textstyle18
 70
0
 40
0.0
 41
1.0
 50
0.0
 71
0
 42
2.0800000000000001
  3

  4

1001
ACAD
1000
Liberation Sans
1071
0
  0
STYLE
  5
72
100
AcDbSymbolTableRecord
100
AcDbTextStyleTableRecord
  2
textstyle19
 70
0
 40
0.0
 41
1.0
 50
0.0
 71
0
 42
2.0800000000000001
  3

  4

1001
ACAD
1000
Liberation Sans
1071
0
  0
STYLE
  5
73
100
AcDbSymbolTableRecord
100
AcDbTextStyleTableRecord
  2
textstyle20
 70
0
 40
0.0
 41
1.0
 50
0.0
 71
0
 42
2.0800000000000001
  3

  4

1001
ACAD
1000
Liberation Sans
1071
0
  0
STYLE
  5
74
100
AcDbSymbolTableRecord
100
AcDbTextStyleTableRecord
  2
textstyle21
 70
0
 40
0.0
 41
1.0
 50
0.0
 71
0
 42
1.6640000000000001
  3

  4

1001
ACAD
1000
Liberation Sans
1071
0
  0
STYLE
  5
75
100
AcDbSymbolTableRecord
100
AcDbTextStyleTableRecord
  2
textstyle22
 70
0
 40
0.0
 41
1.0
 50
0.0
 71
0
 42
1.6640000000000001
  3

  4

1001
ACAD
1000
Liberation Sans
1071
0
  0
STYLE
  5
76
100
AcDbSymbolTableRecord
100
AcDbTextStyleTableRecord
  2
textstyle23
 70
0
 40
0.0
 41
1.0
 50
0.0
 71
0
 42
1.6640000000000001
  3

  4

1001
ACAD
1000
Liberation Sans
1071
0
  0
STYLE
  5
77
100
AcDbSymbolTableRecord
100
AcDbTextStyleTableRecord
  2
textstyle24
 70
0
 40
0.0
 41
1.0
 50
0.0
 71
0
 42
1.6640000000000001
  3

  4

1001
ACAD
1000
Liberation Sans
1071
0
  0
STYLE
  5
78
100
AcDbSymbolTableRecord
100
AcDbTextStyleTableRecord
  2
textstyle25
 70
0
 40
0.0
 41
1.0
 50
0.0
 71
0
 42
1.6640000000000001
  3

  4

1001
ACAD
1000
Liberation Sans
1071
0
  0
STYLE
  5
79
100
AcDbSymbolTableRecord
100
AcDbTextStyleTableRecord
  2
textstyle26
 70
0
 40
0.0
 41
1.0
 50
0.0
 71
0
 42
1.6640000000000001
  3

  4

1001
ACAD
1000
Liberation Sans
1071
0
  0
STYLE
  5
7A
100
AcDbSymbolTableRecord
100
AcDbTextStyleTableRecord
  2
textstyle27
 70
0
 40
0.0
 41
1.0
 50
0.0
 71
0
 42
1.6640000000000001
  3

  4

1001
ACAD
1000
Liberation Sans
1071
0
  0
STYLE
  5
7B
100
AcDbSymbolTableRecord
100
AcDbTextStyleTableRecord
  2
textstyle28
 70
0
 40
0.0
 41
1.0
 50
0.0
 71
0
 42
1.6640000000000001
  3

  4

1001
ACAD
1000
Liberation Sans
1071
0
  0
STYLE
  5
7C
100
AcDbSymbolTableRecord
100
AcDbTextStyleTableRecord
  2
textstyle29
 70
0
 40
0.0
 41
1.0
 50
0.0
 71
0
 42
1.6640000000000001
  3

  4

1001
ACAD
1000
Liberation Sans
1071
0
  0
STYLE
  5
7D
100
AcDbSymbolTableRecord
100
AcDbTextStyleTableRecord
  2
textstyle30
 70
0
 40
0.0
 41
1.0
 50
0.0
 71
0
 42
1.6640000000000001
  3

  4

1001
ACAD
1000
Liberation Sans
1071
0
  0
STYLE
  5
7E
100
AcDbSymbolTableRecord
100
AcDbTextStyleTableRecord
  2
textstyle31
 70
0
 40
0.0
 41
1.0
 50
0.0
 71
0
 42
1.6640000000000001
  3

  4

1001
ACAD
1000
Liberation Sans
1071
0
  0
STYLE
  5
7F
100
AcDbSymbolTableRecord
100
AcDbTextStyleTableRecord
  2
textstyle32
 70
0
 40
0.0
 41
1.0
 50
0.0
 71
0
 42
1.6640000000000001
  3

  4

1001
ACAD
1000
Liberation Sans
1071
0
  0
STYLE
  5
80
100
AcDbSymbolTableRecord
100
AcDbTextStyleTableRecord
  2
textstyle33
 70
0
 40
0.0
 41
1.0
 50
0.0
 71
0
 42
2.0800000000000001
  3

  4

1001
ACAD
1000
Liberation Sans
1071
0
  0
STYLE
  5
81
100
AcDbSymbolTableRecord
100
AcDbTextStyleTableRecord
  2
textstyle34
 70
0
 40
0.0
 41
1.0
 50
0.0
 71
0
 42
2.0800000000000001
  3

  4

1001
ACAD
1000
Liberation Sans
1071
0
  0
STYLE
  5
82
100
AcDbSymbolTableRecord
100
AcDbTextStyleTableRecord
  2
textstyle35
 70
0
 40
0.0
 41
1.0
 50
0.0
 71
0
 42
2.0800000000000001
  3

  4

1001
ACAD
1000
Liberation Sans
1071
0
  0
STYLE
  5
83
100
AcDbSymbolTableRecord
100
AcDbTextStyleTableRecord
  2
textstyle36
 70
0
 40
0.0
 41
1.0
 50
0.0
 71
0
 42
2.0800000000000001
  3

  4

1001
ACAD
1000
Liberation Sans
1071
0
  0
ENDTAB
  0
TABLE
  2
VIEW
  5
6
100
AcDbSymbolTable
 70
0
  0
ENDTAB
  0
TABLE
  2
UCS
  5
7
100
AcDbSymbolTable
 70
0
  0
ENDTAB
  0
TABLE
  2
APPID
  5
9
100
AcDbSymbolTable
 70
1
  0
APPID
  5
12
100
AcDbSymbolTableRecord
100
AcDbRegAppTableRecord
  2
ACAD
 70
0
  0
APPID
  5
84
100
AcDbSymbolTableRecord
100
AcDbRegAppTableRecord
  2
QCAD
 70
0
  0
ENDTAB
  0
TABLE
  2
DIMSTYLE
  5
A
100
AcDbSymbolTable
 70
1
100
AcDbDimStyleTable
 71
0
  0
DIMSTYLE
105
27
100
AcDbSymbolTableRecord
100
AcDbDimStyleTableRecord
  2
Standard
 41
4.0
 42
1.0
 43
3.75
 44
2.0
 70
0
 73
0
 74
0
 77
1
 78
8
140
4.0
141
2.5
143
0.03937007874016
147
1.0
171
3
172
1
271
2
272
2
274
3
278
44
283
0
284
8
340
5E
  0
ENDTAB
  0
TABLE
  2
BLOCK_RECORD
  5
1
100
AcDbSymbolTable
 70
1
  0
BLOCK_RECORD
  5
1F
100
AcDbSymbolTableRecord
100
AcDbBlockTableRecord
  2
*Model_Space
340
22
  0
BLOCK_RECORD
  5
1B
100
AcDbSymbolTableRecord
100
AcDbBlockTableRecord
  2
*Paper_Space
340
1E
  0
BLOCK_RECORD
  5
23
100
AcDbSymbolTableRecord
100
AcDbBlockTableRecord
  2
*Paper_Space0
340
26
  0
ENDTAB
  0
ENDSEC
  0
SECTION
  2
BLOCKS
  0
BLOCK
  5
20
100
AcDbEntity
  8
0
100
AcDbBlockBegin
  2
*Model_Space
 70
0
 10
0.0
 20
0.0
 30
0.0
  3
*Model_Space
  1

  0
ENDBLK
  5
21
100
AcDbEntity
  8
0
100
AcDbBlockEnd
  0
BLOCK
  5
1C
100
AcDbEntity
 67
1
  8
0
100
AcDbBlockBegin
  2
*Paper_Space
 70
0
 10
0.0
 20
0.0
 30
0.0
  3
*Paper_Space
  1

  0
ENDBLK
  5
1D
100
AcDbEntity
 67
1
  8
0
100
AcDbBlockEnd
  0
BLOCK
  5
24
100
AcDbEntity
  8
0
100
AcDbBlockBegin
  2
*Paper_Space0
 70
0
 10
0.0
 20
0.0
 30
0.0
  3
*Paper_Space0
  1

  0
ENDBLK
  5
25
100
AcDbEntity
  8
0
100
AcDbBlockEnd
  0
ENDSEC
  0
SECTION
  2
ENTITIES
  0
LINE
  5
85
100
AcDbEntity
100
AcDbLine
  8
Blattrahmen Din A1
 62
256
370
-1
 48
1.0
  6
BYLAYER
 10
0.0
 20
0.0
 30
0.0
 11
841.0
 21
0.0
 31
0.0
  0
LINE
  5
86
100
AcDbEntity
100
AcDbLine
  8
Blattrahmen Din A1
 62
256
370
-1
 48
1.0
  6
BYLAYER
 10
841.0
 20
0.0
 30
0.0
 11
841.0
 21
594.0
 31
0.0
  0
LINE
  5
87
100
AcDbEntity
100
AcDbLine
  8
Blattrahmen Din A1
 62
256
370
-1
 48
1.0
  6
BYLAYER
 10
841.0
 20
594.0
 30
0.0
 11
0.0
 21
594.0000000000001137
 31
0.0
  0
LINE
  5
88
100
AcDbEntity
100
AcDbLine
  8
Blattrahmen Din A1
 62
256
370
-1
 48
1.0
  6
BYLAYER
 10
0.0
 20
594.0000000000001137
 30
0.0
 11
-0.0000000000001091
 21
0.0000000000001137
 31
0.0
  0
LINE
  5
89
100
AcDbEntity
100
AcDbLine
  8
Blattrahmen Din A1
 62
256
370
-1
 48
1.0
  6
BYLAYER
 10
20.0
 20
589.0000000000001137
 30
0.0
 11
836.0
 21
589.0
 31
0.0
  0
LINE
  5
8A
100
AcDbEntity
100
AcDbLine
  8
Blattrahmen Din A1
 62
256
370
-1
 48
1.0
  6
BYLAYER
 10
836.0
 20
589.0
 30
0.0
 11
836.0
 21
5.0000000000000009
 31
0.0
  0
LINE
  5
8B
100
AcDbEntity
100
AcDbLine
  8
Blattrahmen Din A1
 62
256
370
-1
 48
1.0
  6
BYLAYER
 10
836.0
 20
5.0000000000000009
 30
0.0
 11
19.9999999999998899
 21
5.0
 31
0.0
  0
LINE
  5
8C
100
AcDbEntity
100
AcDbLine
  8
Blattrahmen Din A1
 62
256
370
-1
 48
1.0
  6
BYLAYER
 10
19.9999999999998899
 20
5.0
 30
0.0
 11
20.0
 21
589.0000000000001137
 31
0.0
  0
LINE
  5
8D
100
AcDbEntity
100
AcDbLine
  8
Plankopf Rahmen
 62
256
370
-1
 48
1.0
  6
BYLAYER
 10
826.0
 20
15.0000000000000071
 30
0.0
 11
659.6000000000000227
 21
15.0000000000000071
 31
0.0
  0
LINE
  5
8E
100
AcDbEntity
100
AcDbLine
  8
Plankopf Rahmen
 62
256
370
-1
 48
1.0
  6
BYLAYER
 10
659.6000000000000227
 20
15.0000000000000071
 30
0.0
 11
659.6000000000000227
 21
243.8000000000000398
 31
0.0
  0
LINE
  5
8F
100
AcDbEntity
100
AcDbLine
  8
Plankopf Rahmen
 62
256
370
-1
 48
1.0
  6
BYLAYER
 10
826.0
 20
15.0000000000000071
 30
0.0
 11
826.0
 21
243.8000000000000114
 31
0.0
  0
LINE
  5
90
100
AcDbEntity
100
AcDbLine
  8
Plankopf Rahmen
 62
256
370
-1
 48
1.0
  6
BYLAYER
 10
659.6000000000000227
 20
243.8000000000000398
 30
0.0
 11
826.0
 21
243.8000000000000398
 31
0.0
  0
LINE
  5
91
100
AcDbEntity
100
AcDbLine
  8
Plankopf Rahmen
 62
256
370
-1
 48
1.0
  6
BYLAYER
 10
807.2799999999999727
 20
15.0000000000000071
 30
0.0
 11
807.2799999999999727
 21
24.3600000000000065
 31
0.0
  0
LINE
  5
92
100
AcDbEntity
100
AcDbLine
  8
Plankopf Rahmen
 62
256
370
-1
 48
1.0
  6
BYLAYER
 10
826.0
 20
24.3600000000000065
 30
0.0
 11
659.6000000000000227
 21
24.3600000000000279
 31
0.0
  0
LINE
  5
93
100
AcDbEntity
100
AcDbLine
  8
Faltung Lochung
 62
256
370
-1
 48
1.0
  6
BYLAYER
 10
14.9999999999999432
 20
297.0000000000000568
 30
0.0
 11
19.9999999999999432
 21
297.0000000000000568
 31
0.0
  0
LINE
  5
94
100
AcDbEntity
100
AcDbLine
  8
Plankopf Rahmen
 62
256
370
-1
 48
1.0
  6
BYLAYER
 10
826.0
 20
33.720000000000006
 30
0.0
 11
742.7999999999999545
 21
33.7200000000000131
 31
0.0
  0
LINE
  5
95
100
AcDbEntity
100
AcDbLine
  8
Faltung Lochung
 62
256
370
-1
 48
1.0
  6
BYLAYER
 10
210.0
 20
589.0000000000001137
 30
0.0
 11
210.0
 21
594.0000000000001137
 31
0.0
  0
LINE
  5
96
100
AcDbEntity
100
AcDbLine
  8
Plankopf Rahmen
 62
256
370
-1
 48
1.0
  6
BYLAYER
 10
826.0
 20
43.0800000000000125
 30
0.0
 11
742.7999999999999545
 21
43.0800000000000125
 31
0.0
  0
LINE
  5
97
100
AcDbEntity
100
AcDbLine
  8
Faltung Lochung
 62
256
370
-1
 48
1.0
  6
BYLAYER
 10
400.0
 20
589.0000000000001137
 30
0.0
 11
400.0
 21
594.0000000000001137
 31
0.0
  0
LINE
  5
98
100
AcDbEntity
100
AcDbLine
  8
Plankopf Rahmen
 62
256
370
-1
 48
1.0
  6
BYLAYER
 10
742.7999999999999545
 20
43.0800000000000125
 30
0.0
 11
742.7999999999999545
 21
24.3600000000000136
 31
0.0
  0
LINE
  5
99
100
AcDbEntity
100
AcDbLine
  8
Faltung Lochung
 62
256
370
-1
 48
1.0
  6
BYLAYER
 10
525.5
 20
589.0
 30
0.0
 11
525.5
 21
594.0
 31
0.0
  0
LINE
  5
9A
100
AcDbEntity
100
AcDbLine
  8
Plankopf Rahmen
 62
256
370
-1
 48
1.0
  6
BYLAYER
 10
742.7999999999999545
 20
33.720000000000006
 30
0.0
 11
659.6000000000000227
 21
33.7200000000000131
 31
0.0
  0
LINE
  5
9B
100
AcDbEntity
100
AcDbLine
  8
Faltung Lochung
 62
256
370
-1
 48
1.0
  6
BYLAYER
 10
651.0
 20
589.0
 30
0.0
 11
651.0
 21
594.0
 31
0.0
  0
LINE
  5
9C
100
AcDbEntity
100
AcDbLine
  8
Plankopf Rahmen
 62
256
370
-1
 48
1.0
  6
BYLAYER
 10
742.7999999999999545
 20
43.0800000000000125
 30
0.0
 11
659.6000000000000227
 21
43.0800000000000125
 31
0.0
  0
LINE
  5
9D
100
AcDbEntity
100
AcDbLine
  8
Faltung Lochung
 62
256
370
-1
 48
1.0
  6
BYLAYER
 10
209.9999999999998863
 20
0.0
 30
0.0
 11
209.9999999999998863
 21
5.0
 31
0.0
  0
LINE
  5
9E
100
AcDbEntity
100
AcDbLine
  8
Plankopf Rahmen
 62
256
370
-1
 48
1.0
  6
BYLAYER
 10
826.0
 20
79.4799999999999898
 30
0.0
 11
659.6000000000000227
 21
79.4800000000000182
 31
0.0
  0
LINE
  5
9F
100
AcDbEntity
100
AcDbLine
  8
Faltung Lochung
 62
256
370
-1
 48
1.0
  6
BYLAYER
 10
399.9999999999998863
 20
0.0
 30
0.0
 11
399.9999999999998863
 21
5.0
 31
0.0
  0
LINE
  5
A0
100
AcDbEntity
100
AcDbLine
  8
Plankopf Rahmen
 62
256
370
-1
 48
1.0
  6
BYLAYER
 10
826.0
 20
102.3600000000000136
 30
0.0
 11
659.6000000000000227
 21
102.3600000000000136
 31
0.0
  0
LINE
  5
A1
100
AcDbEntity
100
AcDbLine
  8
Faltung Lochung
 62
256
370
-1
 48
1.0
  6
BYLAYER
 10
525.5
 20
0.0
 30
0.0
 11
525.5
 21
5.0
 31
0.0
  0
LINE
  5
A2
100
AcDbEntity
100
AcDbLine
  8
Plankopf Rahmen
 62
256
370
-1
 48
1.0
  6
BYLAYER
 10
826.0
 20
111.7199999999999989
 30
0.0
 11
807.2799999999999727
 21
111.7199999999999989
 31
0.0
  0
LINE
  5
A3
100
AcDbEntity
100
AcDbLine
  8
Faltung Lochung
 62
256
370
-1
 48
1.0
  6
BYLAYER
 10
651.0
 20
0.0
 30
0.0
 11
651.0
 21
5.0
 31
0.0
  0
LINE
  5
A4
100
AcDbEntity
100
AcDbLine
  8
Plankopf Rahmen
 62
256
370
-1
 48
1.0
  6
BYLAYER
 10
826.0
 20
121.0800000000000125
 30
0.0
 11
807.2799999999999727
 21
121.0800000000000125
 31
0.0
  0
LINE
  5
A5
100
AcDbEntity
100
AcDbLine
  8
Faltung Lochung
 62
256
370
-1
 48
1.0
  6
BYLAYER
 10
841.0
 20
297.0
 30
0.0
 11
836.0
 21
297.0
 31
0.0
  0
LINE
  5
A6
100
AcDbEntity
100
AcDbLine
  8
Plankopf Rahmen
 62
256
370
-1
 48
1.0
  6
BYLAYER
 10
826.0
 20
130.4399999999999977
 30
0.0
 11
807.2799999999999727
 21
130.4399999999999977
 31
0.0
  0
LINE
  5
A7
100
AcDbEntity
100
AcDbLine
  8
Plankopf Rahmen
 62
256
370
-1
 48
1.0
  6
BYLAYER
 10
807.2799999999999727
 20
130.4399999999999977
 30
0.0
 11
807.2799999999999727
 21
102.3600000000000136
 31
0.0
  0
LINE
  5
A8
100
AcDbEntity
100
AcDbLine
  8
Plankopf Rahmen
 62
256
370
-1
 48
1.0
  6
BYLAYER
 10
807.2799999999999727
 20
130.4399999999999977
 30
0.0
 11
742.7999999999999545
 21
130.4399999999999977
 31
0.0
  0
LINE
  5
A9
100
AcDbEntity
100
AcDbLine
  8
Faltung Lochung
 62
256
370
-1
 48
1.0
  6
BYLAYER
 10
-0.0000000000001
 20
148.5
 30
0.0
 11
11.9999999999999005
 21
148.5
 31
0.0
  0
LINE
  5
AA
100
AcDbEntity
100
AcDbLine
  8
Plankopf Rahmen
 62
256
370
-1
 48
1.0
  6
BYLAYER
 10
807.2799999999999727
 20
121.0800000000000125
 30
0.0
 11
742.7999999999999545
 21
121.0800000000000125
 31
0.0
  0
LINE
  5
AB
100
AcDbEntity
100
AcDbLine
  8
Plankopf Rahmen
 62
256
370
-1
 48
1.0
  6
BYLAYER
 10
807.2799999999999727
 20
111.7199999999999989
 30
0.0
 11
742.7999999999999545
 21
111.7199999999999989
 31
0.0
  0
LINE
  5
AC
100
AcDbEntity
100
AcDbLine
  8
Plankopf Rahmen
 62
256
370
-1
 48
1.0
  6
BYLAYER
 10
724.0800000000000409
 20
130.4399999999999977
 30
0.0
 11
659.6000000000000227
 21
130.4400000000000546
 31
0.0
  0
LINE
  5
AD
100
AcDbEntity
100
AcDbLine
  8
Plankopf Rahmen
 62
256
370
-1
 48
1.0
  6
BYLAYER
 10
724.0800000000000409
 20
121.0800000000000125
 30
0.0
 11
659.6000000000000227
 21
121.0800000000000409
 31
0.0
  0
LINE
  5
AE
100
AcDbEntity
100
AcDbLine
  8
Plankopf Rahmen
 62
256
370
-1
 48
1.0
  6
BYLAYER
 10
724.0800000000000409
 20
111.7199999999999989
 30
0.0
 11
659.6000000000000227
 21
111.7200000000000273
 31
0.0
  0
LINE
  5
AF
100
AcDbEntity
100
AcDbLine
  8
Plankopf Rahmen
 62
256
370
-1
 48
1.0
  6
BYLAYER
 10
724.0800000000000409
 20
130.4399999999999977
 30
0.0
 11
724.0800000000000409
 21
102.3600000000000136
 31
0.0
  0
LINE
  5
B0
100
AcDbEntity
100
AcDbLine
  8
Plankopf Rahmen
 62
256
370
-1
 48
1.0
  6
BYLAYER
 10
742.7999999999999545
 20
130.4399999999999977
 30
0.0
 11
742.7999999999999545
 21
102.3600000000000136
 31
0.0
  0
LINE
  5
B1
100
AcDbEntity
100
AcDbLine
  8
Plankopf Rahmen
 62
256
370
-1
 48
1.0
  6
BYLAYER
 10
724.0800000000000409
 20
130.4399999999999977
 30
0.0
 11
742.7999999999999545
 21
130.4399999999999977
 31
0.0
  0
LINE
  5
B2
100
AcDbEntity
100
AcDbLine
  8
Plankopf Rahmen
 62
256
370
-1
 48
1.0
  6
BYLAYER
 10
724.0800000000000409
 20
121.0800000000000125
 30
0.0
 11
742.7999999999999545
 21
121.0800000000000125
 31
0.0
  0
LINE
  5
B3
100
AcDbEntity
100
AcDbLine
  8
Plankopf Rahmen
 62
256
370
-1
 48
1.0
  6
BYLAYER
 10
724.0800000000000409
 20
111.7199999999999989
 30
0.0
 11
742.7999999999999545
 21
111.7199999999999989
 31
0.0
  0
LINE
  5
B4
100
AcDbEntity
100
AcDbLine
  8
Plankopf Rahmen
 62
256
370
-1
 48
1.0
  6
BYLAYER
 10
659.6000000000000227
 20
195.960000000000008
 30
0.0
 11
826.0
 21
195.960000000000008
 31
0.0
  0
LINE
  5
B5
100
AcDbEntity
100
AcDbLine
  8
Plankopf Rahmen
 62
256
370
-1
 48
1.0
  6
BYLAYER
 10
742.7999999999999545
 20
219.8799999999999955
 30
0.0
 11
826.0
 21
219.8799999999999955
 31
0.0
  0
LINE
  5
B6
100
AcDbEntity
100
AcDbLine
  8
Plankopf Rahmen
 62
256
370
-1
 48
1.0
  6
BYLAYER
 10
742.7999999999999545
 20
219.8799999999999955
 30
0.0
 11
742.7999999999999545
 21
243.8000000000000114
 31
0.0
  0
LINE
  5
B7
100
AcDbEntity
100
AcDbLine
  8
Plankopf Rahmen
 62
256
370
-1
 48
1.0
  6
BYLAYER
 10
742.7999999999999545
 20
219.8799999999999955
 30
0.0
 11
659.6000000000000227
 21
219.8799999999999955
 31
0.0
  0
LINE
  5
B8
100
AcDbEntity
100
AcDbLine
  8
Plankopf Rahmen 0.5
 62
256
370
-1
 48
1.0
  6
BYLAYER
 10
826.0
 20
243.8000000000000682
 30
0.0
 11
659.6000000000000227
 21
243.8000000000000682
 31
0.0
  0
LINE
  5
B9
100
AcDbEntity
100
AcDbLine
  8
Plankopf Rahmen 0.5
 62
256
370
-1
 48
1.0
  6
BYLAYER
 10
659.6000000000000227
 20
243.8000000000000682
 30
0.0
 11
659.6000000000000227
 21
15.0000000000000071
 31
0.0
  0
LINE
  5
BA
100
AcDbEntity
100
AcDbLine
  8
Plankopf Rahmen 0.5
 62
256
370
-1
 48
1.0
  6
BYLAYER
 10
659.6000000000000227
 20
15.0000000000000071
 30
0.0
 11
659.6000000000000227
 21
15.0000000000000071
 31
0.0
  0
LINE
  5
BB
100
AcDbEntity
100
AcDbLine
  8
Plankopf Rahmen 0.5
 62
256
370
-1
 48
1.0
  6
BYLAYER
 10
659.6000000000000227
 20
15.0000000000000071
 30
0.0
 11
826.0
 21
15.0000000000000071
 31
0.0
  0
LINE
  5
BC
100
AcDbEntity
100
AcDbLine
  8
Plankopf Rahmen 0.5
 62
256
370
-1
 48
1.0
  6
BYLAYER
 10
826.0
 20
15.0000000000000018
 30
0.0
 11
826.0
 21
15.0000000000000302
 31
0.0
  0
LINE
  5
BD
100
AcDbEntity
100
AcDbLine
  8
Plankopf Rahmen 0.5
 62
256
370
-1
 48
1.0
  6
BYLAYER
 10
826.0
 20
15.0000000000000071
 30
0.0
 11
826.0
 21
243.8000000000000682
 31
0.0
  0
MTEXT
  5
BE
100
AcDbEntity
100
AcDbMText
  8
Plankopf Text Vorgabe
 62
256
370
-1
 48
1.0
  6
BYLAYER
 10
661.67999999999995
 20
217.800000000000324
 30
0.0
 40
2.0800000000000001
 41
0.0
 71
1
 72
1
  1
Planverfasser:
  7
textstyle18
 50
0.0
 73
2
 44
1.0
  0
MTEXT
  5
BF
100
AcDbEntity
100
AcDbMText
  8
Plankopf Text Vorgabe
 62
256
370
-1
 48
1.0
  6
BYLAYER
 10
661.67999999999995
 20
193.8800000000005639
 30
0.0
 40
2.0800000000000001
 41
0.0
 71
1
 72
1
  1
\U+00dcbersichtsplan:
  7
textstyle19
 50
0.0
 73
2
 44
1.0
  0
MTEXT
  5
C0
100
AcDbEntity
100
AcDbMText
  8
Plankopf Text Vorgabe
 62
256
370
-1
 48
1.0
  6
BYLAYER
 10
744.8799999999999955
 20
241.7200000000000557
 30
0.0
 40
2.0800000000000001
 41
0.0
 71
1
 72
1
  1
Auftraggeber:
  7
textstyle20
 50
0.0
 73
2
 44
1.0
  0
MTEXT
  5
C1
100
AcDbEntity
100
AcDbMText
  8
Plankopf Text Vorgabe
 62
256
370
-1
 48
1.0
  6
BYLAYER
 10
660.6399999999999864
 20
128.3600000000004968
 30
0.0
 40
1.6640000000000001
 41
0.0
 71
1
 72
1
  1
Gezeichnet:
  7
textstyle21
 50
0.0
 73
2
 44
1.0
  0
MTEXT
  5
C2
100
AcDbEntity
100
AcDbMText
  8
Plankopf Text Vorgabe
 62
256
370
-1
 48
1.0
  6
BYLAYER
 10
660.6399999999999864
 20
118.9999999999999716
 30
0.0
 40
1.6640000000000001
 41
0.0
 71
1
 72
1
  1
Bearbeitet:
  7
textstyle22
 50
0.0
 73
2
 44
1.0
  0
MTEXT
  5
C3
100
AcDbEntity
100
AcDbMText
  8
Plankopf Text Vorgabe
 62
256
370
-1
 48
1.0
  6
BYLAYER
 10
660.6399999999999864
 20
109.6399999999997874
 30
0.0
 40
1.6640000000000001
 41
0.0
 71
1
 72
1
  1
Datentechnisch gepr\U+00fcft:
  7
textstyle23
 50
0.0
 73
2
 44
1.0
  0
MTEXT
  5
C4
100
AcDbEntity
100
AcDbMText
  8
Plankopf Text Vorgabe
 62
256
370
-1
 48
1.0
  6
BYLAYER
 10
725.1200000000000045
 20
128.3600000000006105
 30
0.0
 40
1.6640000000000001
 41
0.0
 71
1
 72
1
  1
Datum:
  7
textstyle24
 50
0.0
 73
2
 44
1.0
  0
MTEXT
  5
C5
100
AcDbEntity
100
AcDbMText
  8
Plankopf Text Vorgabe
 62
256
370
-1
 48
1.0
  6
BYLAYER
 10
725.1200000000000045
 20
119.0000000000006253
 30
0.0
 40
1.6640000000000001
 41
0.0
 71
1
 72
1
  1
Datum:
  7
textstyle25
 50
0.0
 73
2
 44
1.0
  0
MTEXT
  5
C6
100
AcDbEntity
100
AcDbMText
  8
Plankopf Text Vorgabe
 62
256
370
-1
 48
1.0
  6
BYLAYER
 10
725.1200000000000045
 20
109.6399999999985653
 30
0.0
 40
1.6640000000000001
 41
0.0
 71
1
 72
1
  1
Datum:
  7
textstyle26
 50
0.0
 73
2
 44
1.0
  0
MTEXT
  5
C7
100
AcDbEntity
100
AcDbMText
  8
Plankopf Text Vorgabe
 62
256
370
-1
 48
1.0
  6
BYLAYER
 10
743.8400000000000318
 20
128.3600000000003547
 30
0.0
 40
1.6640000000000001
 41
0.0
 71
1
 72
1
  1
Fachtechnisch gepr\U+00fcft:
  7
textstyle27
 50
0.0
 73
2
 44
1.0
  0
MTEXT
  5
C8
100
AcDbEntity
100
AcDbMText
  8
Plankopf Text Vorgabe
 62
256
370
-1
 48
1.0
  6
BYLAYER
 10
743.8400000000000318
 20
118.9999999999988631
 30
0.0
 40
1.6640000000000001
 41
0.0
 71
1
 72
1
  1
Genehmigt:
  7
textstyle28
 50
0.0
 73
2
 44
1.0
  0
MTEXT
  5
C9
100
AcDbEntity
100
AcDbMText
  8
Plankopf Text Vorgabe
 62
256
370
-1
 48
1.0
  6
BYLAYER
 10
743.8400000000000318
 20
109.6399999999998727
 30
0.0
 40
1.6640000000000001
 41
0.0
 71
1
 72
1
  1
Leistung abgenommen:
  7
textstyle29
 50
0.0
 73
2
 44
1.0
  0
MTEXT
  5
CA
100
AcDbEntity
100
AcDbMText
  8
Plankopf Text Vorgabe
 62
256
370
-1
 48
1.0
  6
BYLAYER
 10
808.32000000000005
 20
128.3600000000007526
 30
0.0
 40
1.6640000000000001
 41
0.0
 71
1
 72
1
  1
Datum:
  7
textstyle30
 50
0.0
 73
2
 44
1.0
  0
MTEXT
  5
CB
100
AcDbEntity
100
AcDbMText
  8
Plankopf Text Vorgabe
 62
256
370
-1
 48
1.0
  6
BYLAYER
 10
808.32000000000005
 20
119.0000000000002274
 30
0.0
 40
1.6640000000000001
 41
0.0
 71
1
 72
1
  1
Datum:
  7
textstyle31
 50
0.0
 73
2
 44
1.0
  0
MTEXT
  5
CC
100
AcDbEntity
100
AcDbMText
  8
Plankopf Text Vorgabe
 62
256
370
-1
 48
1.0
  6
BYLAYER
 10
808.32000000000005
 20
109.6399999999994179
 30
0.0
 40
1.6640000000000001
 41
0.0
 71
1
 72
1
  1
Datum:
  7
textstyle32
 50
0.0
 73
2
 44
1.0
  0
MTEXT
  5
CD
100
AcDbEntity
100
AcDbMText
  8
Plankopf Text Vorgabe
 62
256
370
-1
 48
1.0
  6
BYLAYER
 10
661.67999999999995
 20
100.2800000000006548
 30
0.0
 40
2.0800000000000001
 41
0.0
 71
1
 72
1
  1
Projektbezeichnung:
  7
textstyle33
 50
0.0
 73
2
 44
1.0
  0
MTEXT
  5
CE
100
AcDbEntity
100
AcDbMText
  8
Plankopf Text Vorgabe
 62
256
370
-1
 48
1.0
  6
BYLAYER
 10
661.6800000000000637
 20
89.8800000000010186
 30
0.0
 40
2.0800000000000001
 41
0.0
 71
1
 72
1
  1
Unterbezeichung/Zusatz:
  7
textstyle34
 50
0.0
 73
2
 44
1.0
  0
MTEXT
  5
CF
100
AcDbEntity
100
AcDbMText
  8
Plankopf Text Vorgabe
 62
256
370
-1
 48
1.0
  6
BYLAYER
 10
661.6800000000000637
 20
77.3999999999998636
 30
0.0
 40
2.0800000000000001
 41
0.0
 71
1
 72
1
  1
Planinhalt:
  7
textstyle35
 50
0.0
 73
2
 44
1.0
  0
MTEXT
  5
D0
100
AcDbEntity
100
AcDbMText
  8
Plankopf Text Vorgabe
 62
256
370
-1
 48
1.0
  6
BYLAYER
 10
661.6800000000000637
 20
53.4800000000012616
 30
0.0
 40
2.0800000000000001
 41
0.0
 71
1
 72
1
  1
Ma\U+00dfstab:
  7
textstyle36
 50
0.0
 73
2
 44
1.0
  0
MTEXT
  5
D1
100
AcDbEntity
100
AcDbMText
  8
Plankopf Text Vorgabe
 62
256
370
-1
 48
1.0
  6
BYLAYER
 10
660.6399999999999864
 20
40.9999999999993179
 30
0.0
 40
1.6640000000000001
 41
0.0
 71
1
 72
1
  1
Projektnummer:
  7
textstyle0
 50
0.0
 73
2
 44
1.0
  0
MTEXT
  5
D2
100
AcDbEntity
100
AcDbMText
  8
Plankopf Text Vorgabe
 62
256
370
-1
 48
1.0
  6
BYLAYER
 10
660.6399999999999864
 20
31.6400000000018657
 30
0.0
 40
1.6640000000000001
 41
0.0
 71
1
 72
1
  1
Plannummer:
  7
textstyle1
 50
0.0
 73
2
 44
1.0
  0
MTEXT
  5
D3
100
AcDbEntity
100
AcDbMText
  8
Plankopf Text Vorgabe
 62
256
370
-1
 48
1.0
  6
BYLAYER
 10
660.6399999999999864
 20
22.2800000000018379
 30
0.0
 40
1.6640000000000001
 41
0.0
 71
1
 72
1
  1
Planungsstand:
  7
textstyle2
 50
0.0
 73
2
 44
1.0
  0
MTEXT
  5
D4
100
AcDbEntity
100
AcDbMText
  8
Plankopf Text Vorgabe
 62
256
370
-1
 48
1.0
  6
BYLAYER
 10
743.8400000000000318
 20
40.9999999999975131
 30
0.0
 40
1.6640000000000001
 41
0.0
 71
1
 72
1
  1
Register:
  7
textstyle3
 50
0.0
 73
2
 44
1.0
  0
MTEXT
  5
D5
100
AcDbEntity
100
AcDbMText
  8
Plankopf Text Vorgabe
 62
256
370
-1
 48
1.0
  6
BYLAYER
 10
743.8400000000000318
 20
31.6399999999992261
 30
0.0
 40
1.6640000000000001
 41
0.0
 71
1
 72
1
  1
Anla\U+00df:
  7
textstyle4
 50
0.0
 73
2
 44
1.0
  0
MTEXT
  5
D6
100
AcDbEntity
100
AcDbMText
  8
Plankopf Text Vorgabe
 62
256
370
-1
 48
1.0
  6
BYLAYER
 10
808.32000000000005
 20
22.2799999999945761
 30
0.0
 40
1.6640000000000001
 41
0.0
 71
1
 72
1
  1
Blatt:
  7
textstyle5
 50
0.0
 73
2
 44
1.0
  0
MTEXT
  5
D7
100
AcDbEntity
100
AcDbMText
  8
Plankopf ausgef\U+00fcllt
 62
256
370
-1
 48
1.0
  6
BYLAYER
 10
710.0814502902139793
 20
215.0544161109197887
 30
0.0
 40
14.5600000000000005
 41
0.0
 71
1
 72
1
  1
\fLiberation Sans|b1|i1|c0|p0;DL 3 DL
  7
textstyle6
 50
0.0
 73
2
 44
1.0
  0
MTEXT
  5
D8
100
AcDbEntity
100
AcDbMText
  8
Plankopf ausgef\U+00fcllt
 62
256
370
-1
 48
1.0
  6
BYLAYER
 10
660.6399999999999864
 20
125.2400000000000944
 30
0.0
 40
3.1200000000000001
 41
0.0
 71
1
 72
1
  1
\fLiberation Sans|b1|i1|c0|p0;DL 3 DL
  7
textstyle7
 50
0.0
 73
2
 44
1.0
  0
MTEXT
  5
D9
100
AcDbEntity
100
AcDbMText
  8
Plankopf ausgef\U+00fcllt
 62
256
370
-1
 48
1.0
  6
BYLAYER
 10
660.6399999999999864
 20
115.8799999999995975
 30
0.0
 40
3.1200000000000001
 41
0.0
 71
1
 72
1
  1
\fLiberation Sans|b1|i1|c0|p0;DL 3 DL
  7
textstyle8
 50
0.0
 73
2
 44
1.0
  0
MTEXT
  5
DA
100
AcDbEntity
100
AcDbMText
  8
Plankopf ausgef\U+00fcllt
 62
256
370
-1
 48
1.0
  6
BYLAYER
 10
660.6399999999999864
 20
106.5200000000001239
 30
0.0
 40
3.1200000000000001
 41
0.0
 71
1
 72
1
  1
\fLiberation Sans|b1|i1|c0|p0;DL 3 DL
  7
textstyle9
 50
0.0
 73
2
 44
1.0
  0
MTEXT
  5
DB
100
AcDbEntity
100
AcDbMText
  8
Plankopf ausgef\U+00fcllt
 62
256
370
-1
 48
1.0
  6
BYLAYER
 10
725.4303569417394328
 20
125.269932087457363
 30
0.0
 40
2.6000000000000001
 41
0.0
 71
1
 72
1
  1
\fLiberation Sans|b1|i1|c0|p0;28.04.16
  7
textstyle10
 50
0.0
 73
2
 44
1.0
  0
MTEXT
  5
DC
100
AcDbEntity
100
AcDbMText
  8
Plankopf ausgef\U+00fcllt
 62
256
370
-1
 48
1.0
  6
BYLAYER
 10
725.48398066727475
 20
115.8195953413052735
 30
0.0
 40
2.6000000000000001
 41
0.0
 71
1
 72
1
  1
\fLiberation Sans|b1|i1|c0|p0;28.04.16
  7
textstyle11
 50
0.0
 73
2
 44
1.0
  0
MTEXT
  5
DD
100
AcDbEntity
100
AcDbMText
  8
Plankopf ausgef\U+00fcllt
 62
256
370
-1
 48
1.0
  6
BYLAYER
 10
725.4361664471044833
 20
106.4928162565973935
 30
0.0
 40
2.6000000000000001
 41
0.0
 71
1
 72
1
  1
\fLiberation Sans|b1|i1|c0|p0;28.04.16
  7
textstyle12
 50
0.0
 73
2
 44
1.0
  0
MTEXT
  5
DE
100
AcDbEntity
100
AcDbMText
  8
Plankopf ausgef\U+00fcllt
 62
256
370
-1
 48
1.0
  6
BYLAYER
 10
661.6800000000000637
 20
97.159999999999684
 30
0.0
 40
5.2000000000000002
 41
0.0
 71
1
 72
1
  1
\fLiberation Sans|b1|i1|c0|p0;Qcad Vorlage
  7
textstyle13
 50
0.0
 73
2
 44
1.0
  0
MTEXT
  5
DF
100
AcDbEntity
100
AcDbMText
  8
Plankopf ausgef\U+00fcllt
 62
256
370
-1
 48
1.0
  6
BYLAYER
 10
661.6800000000000637
 20
86.7600000000004457
 30
0.0
 40
5.2000000000000002
 41
0.0
 71
1
 72
1
  1
\fLiberation Sans|b1|i1|c0|p0;Format DIN A1-quer
  7
textstyle14
 50
0.0
 73
2
 44
1.0
  0
MTEXT
  5
E0
100
AcDbEntity
100
AcDbMText
  8
Plankopf ausgef\U+00fcllt
 62
256
370
-1
 48
1.0
  6
BYLAYER
 10
661.5293431894092464
 20
48.6286563465628632
 30
0.0
 40
3.6400000000000001
 41
0.0
 71
1
 72
1
  1
\fLiberation Sans|b1|i1|c0|p0;M 1:1
  7
textstyle15
 50
0.0
 73
2
 44
1.0
  0
MTEXT
  5
E1
100
AcDbEntity
100
AcDbMText
  8
Plankopf ausgef\U+00fcllt
 62
256
370
-1
 48
1.0
  6
BYLAYER
 10
661.9554645861476274
 20
72.4914545639088601
 30
0.0
 40
3.6400000000000001
 41
0.0
 71
1
 72
1
  1
\fLiberation Sans|b1|i1|c0|p0;Zeichnungsvorlage
  7
textstyle16
 50
0.0
 73
2
 44
1.0
  0
MTEXT
  5
E2
100
AcDbEntity
100
AcDbMText
  8
Plankopf ausgef\U+00fcllt
 62
256
370
-1
 48
1.0
  6
BYLAYER
 10
690.7999999999999545
 20
22.2800000000020155
 30
0.0
 40
5.2000000000000002
 41
0.0
 71
1
 72
1
  1
\fLiberation Sans|b1|i1|c0|p0;ENTWURF
  7
textstyle17
 50
0.0
 73
2
 44
1.0
  0
ENDSEC
  0
SECTION
  2
OBJECTS
  0
DICTIONARY
  5
C
100
AcDbDictionary
280
0
281
1
  3
ACAD_GROUP
350
D
  3
ACAD_LAYOUT
350
1A
  3
ACAD_MLINESTYLE
350
17
  3
ACAD_PLOTSETTINGS
350
19
  3
ACAD_PLOTSTYLENAME
350
E
  3
AcDbVariableDictionary
350
E3
  3
QCAD_OBJECTS
350
E4
  0
DICTIONARY
  5
D
100
AcDbDictionary
280
0
281
1
  0
ACDBDICTIONARYWDFLT
  5
E
100
AcDbDictionary
281
1
  3
Normal
350
F
100
AcDbDictionaryWithDefault
340
F
  0
ACDBPLACEHOLDER
  5
F
  0
DICTIONARY
  5
17
100
AcDbDictionary
280
0
281
1
  3
Standard
350
18
  0
MLINESTYLE
  5
18
100
AcDbMlineStyle
  2
STANDARD
 70
0
  3

 62
256
 51
90.0
 52
90.0
 71
2
 49
0.5
 62
256
  6
BYLAYER
 49
-0.5
 62
256
  6
BYLAYER
  0
DICTIONARY
  5
19
100
AcDbDictionary
280
0
281
1
  0
DICTIONARY
  5
1A
100
AcDbDictionary
281
1
  3
Layout1
350
1E
  3
Layout2
350
26
  3
Model
350
22
  0
LAYOUT
  5
1E
100
AcDbPlotSettings
  1

  2
none_device
  4

  6

 40
0.0
 41
0.0
 42
0.0
 43
0.0
 44
0.0
 45
0.0
 46
0.0
 47
0.0
 48
0.0
 49
0.0
140
0.0
141
0.0
142
1.0
143
1.0
 70
688
 72
0
 73
0
 74
5
  7

 75
16
147
1.0
148
0.0
149
0.0
100
AcDbLayout
  1
Layout1
 70
1
 71
1
 10
0.0
 20
0.0
 11
420.0
 21
297.0
 12
0.0
 22
0.0
 32
0.0
 14
100000000000000000000.0
 24
100000000000000000000.0
 34
100000000000000000000.0
 15
-100000000000000000000.0
 25
-100000000000000000000.0
 35
-100000000000000000000.0
146
0.0
 13
0.0
 23
0.0
 33
0.0
 16
1.0
 26
0.0
 36
0.0
 17
0.0
 27
1.0
 37
0.0
 76
0
330
1B
  0
LAYOUT
  5
22
100
AcDbPlotSettings
  1

  2
none_device
  4

  6

 40
0.0
 41
0.0
 42
0.0
 43
0.0
 44
0.0
 45
0.0
 46
0.0
 47
0.0
 48
0.0
 49
0.0
140
0.0
141
0.0
142
1.0
143
1.0
 70
1712
 72
0
 73
0
 74
0
  7

 75
0
147
1.0
148
0.0
149
0.0
100
AcDbLayout
  1
Model
 70
1
 71
0
 10
0.0
 20
0.0
 11
12.0
 21
9.0
 12
0.0
 22
0.0
 32
0.0
 14
0.0
 24
0.0
 34
0.0
 15
0.0
 25
0.0
 35
0.0
146
0.0
 13
0.0
 23
0.0
 33
0.0
 16
1.0
 26
0.0
 36
0.0
 17
0.0
 27
1.0
 37
0.0
 76
0
330
1F
  0
LAYOUT
  5
26
100
AcDbPlotSettings
  1

  2
none_device
  4

  6

 40
0.0
 41
0.0
 42
0.0
 43
0.0
 44
0.0
 45
0.0
 46
0.0
 47
0.0
 48
0.0
 49
0.0
140
0.0
141
0.0
142
1.0
143
1.0
 70
688
 72
0
 73
0
 74
5
  7

 75
16
147
1.0
148
0.0
149
0.0
100
AcDbLayout
  1
Layout2
 70
1
 71
2
 10
0.0
 20
0.0
 11
12.0
 21
9.0
 12
0.0
 22
0.0
 32
0.0
 14
0.0
 24
0.0
 34
0.0
 15
0.0
 25
0.0
 35
0.0
146
0.0
 13
0.0
 23
0.0
 33
0.0
 16
1.0
 26
0.0
 36
0.0
 17
0.0
 27
1.0
 37
0.0
 76
0
330
23
  0
DICTIONARY
  5
E3
100
AcDbDictionary
281
1
  3
DIMASSOC
350
E6
  3
HIDETEXT
350
E5
  0
DICTIONARYVAR
  5
E5
100
DictionaryVariables
280
0
  1
2
  0
DICTIONARYVAR
  5
E6
100
DictionaryVariables
280
0
  1
1
  0
DICTIONARY
  5
E4
100
AcDbDictionary
281
1
  3
ColorSettings/BackgroundColor
350
E7
  3
ColorSettings/ColorMode
350
E8
  3
DimensionSettings/AngularFormat
350
E9
  3
DimensionSettings/AngularPrecision
350
EA
  3
DimensionSettings/DimensionFont
350
EB
  3
DimensionSettings/KeepProportions
350
EC
  3
DimensionSettings/LinearFormat
350
ED
  3
DimensionSettings/LinearPrecision
350
EE
  3
Grid/DisplayGrid00
350
EF
  3
Grid/DisplayGrid01
350
F0
  3
Grid/DisplayGrid02
350
F1
  3
Grid/DisplayGrid03
350
F2
  3
Grid/GridSpacingX00
350
F3
  3
Grid/GridSpacingX01
350
F4
  3
Grid/GridSpacingX02
350
F5
  3
Grid/GridSpacingX03
350
F6
  3
Grid/GridSpacingY00
350
F7
  3
Grid/GridSpacingY01
350
F8
  3
Grid/GridSpacingY02
350
F9
  3
Grid/GridSpacingY03
350
FA
  3
Grid/IsometricGrid00
350
FB
  3
Grid/IsometricGrid01
350
FC
  3
Grid/IsometricGrid02
350
FD
  3
Grid/IsometricGrid03
350
FE
  3
Grid/IsometricProjection00
350
FF
  3
Grid/IsometricProjection01
350
100
  3
Grid/IsometricProjection02
350
101
  3
Grid/IsometricProjection03
350
102
  3
Grid/MetaGridSpacingX00
350
103
  3
Grid/MetaGridSpacingX01
350
104
  3
Grid/MetaGridSpacingX02
350
105
  3
Grid/MetaGridSpacingX03
350
106
  3
Grid/MetaGridSpacingY00
350
107
  3
Grid/MetaGridSpacingY01
350
108
  3
Grid/MetaGridSpacingY02
350
109
  3
Grid/MetaGridSpacingY03
350
10A
  3
MultiPageSettings/Columns
350
10B
  3
MultiPageSettings/GlueMarginsBottom
350
10C
  3
MultiPageSettings/GlueMarginsLeft
350
10D
  3
MultiPageSettings/GlueMarginsRight
350
10E
  3
MultiPageSettings/GlueMarginsTop
350
10F
  3
MultiPageSettings/PrintCropMarks
350
110
  3
MultiPageSettings/Rows
350
111
  3
PageSettings/OffsetX
350
112
  3
PageSettings/OffsetY
350
113
  3
PageSettings/PageOrientation
350
114
  3
PageSettings/PaperHeight
350
115
  3
PageSettings/PaperWidth
350
116
  3
PageSettings/Scale
350
117
  3
PageSettings/ShowPaperBorders
350
118
  3
QCADVersion
350
119
  3
UnitSettings/PaperUnit
350
11A
  3
ViewportCenter
350
11B
  3
ViewportHeight
350
11C
  3
ViewportWidth
350
11D
  0
XRECORD
  5
E7
330
E4
100
AcDbXrecord
280
1
1000
Weiss
  0
XRECORD
  5
E8
330
E4
100
AcDbXrecord
280
1
1000
FullColor
  0
XRECORD
  5
E9
330
E4
100
AcDbXrecord
280
1
 90
0
  0
XRECORD
  5
EA
330
E4
100
AcDbXrecord
280
1
 90
0
  0
XRECORD
  5
EB
330
E4
100
AcDbXrecord
280
1
1000
DejaVu Sans
  0
XRECORD
  5
EC
330
E4
100
AcDbXrecord
280
1
290
1
  0
XRECORD
  5
ED
330
E4
100
AcDbXrecord
280
1
 90
2
  0
XRECORD
  5
EE
330
E4
100
AcDbXrecord
280
1
 90
1
  0
XRECORD
  5
EF
330
E4
100
AcDbXrecord
280
1
290
1
  0
XRECORD
  5
F0
330
E4
100
AcDbXrecord
280
1
290
1
  0
XRECORD
  5
F1
330
E4
100
AcDbXrecord
280
1
290
1
  0
XRECORD
  5
F2
330
E4
100
AcDbXrecord
280
1
290
1
  0
XRECORD
  5
F3
330
E4
100
AcDbXrecord
280
1
1000
auto
  0
XRECORD
  5
F4
330
E4
100
AcDbXrecord
280
1
1000
auto
  0
XRECORD
  5
F5
330
E4
100
AcDbXrecord
280
1
1000
auto
  0
XRECORD
  5
F6
330
E4
100
AcDbXrecord
280
1
1000
auto
  0
XRECORD
  5
F7
330
E4
100
AcDbXrecord
280
1
1000
auto
  0
XRECORD
  5
F8
330
E4
100
AcDbXrecord
280
1
1000
auto
  0
XRECORD
  5
F9
330
E4
100
AcDbXrecord
280
1
1000
auto
  0
XRECORD
  5
FA
330
E4
100
AcDbXrecord
280
1
1000
auto
  0
XRECORD
  5
FB
330
E4
100
AcDbXrecord
280
1
290
0
  0
XRECORD
  5
FC
330
E4
100
AcDbXrecord
280
1
290
0
  0
XRECORD
  5
FD
330
E4
100
AcDbXrecord
280
1
290
0
  0
XRECORD
  5
FE
330
E4
100
AcDbXrecord
280
1
290
0
  0
XRECORD
  5
FF
330
E4
100
AcDbXrecord
280
1
 90
0
  0
XRECORD
  5
100
330
E4
100
AcDbXrecord
280
1
 90
0
  0
XRECORD
  5
101
330
E4
100
AcDbXrecord
280
1
 90
0
  0
XRECORD
  5
102
330
E4
100
AcDbXrecord
280
1
 90
0
  0
XRECORD
  5
103
330
E4
100
AcDbXrecord
280
1
1000
auto
  0
XRECORD
  5
104
330
E4
100
AcDbXrecord
280
1
1000
auto
  0
XRECORD
  5
105
330
E4
100
AcDbXrecord
280
1
1000
auto
  0
XRECORD
  5
106
330
E4
100
AcDbXrecord
280
1
1000
auto
  0
XRECORD
  5
107
330
E4
100
AcDbXrecord
280
1
1000
auto
  0
XRECORD
  5
108
330
E4
100
AcDbXrecord
280
1
1000
auto
  0
XRECORD
  5
109
330
E4
100
AcDbXrecord
280
1
1000
auto
  0
XRECORD
  5
10A
330
E4
100
AcDbXrecord
280
1
1000
auto
  0
XRECORD
  5
10B
330
E4
100
AcDbXrecord
280
1
 90
1
  0
XRECORD
  5
10C
330
E4
100
AcDbXrecord
280
1
 40
10.0
  0
XRECORD
  5
10D
330
E4
100
AcDbXrecord
280
1
 40
10.0
  0
XRECORD
  5
10E
330
E4
100
AcDbXrecord
280
1
 40
10.0
  0
XRECORD
  5
10F
330
E4
100
AcDbXrecord
280
1
 40
10.0
  0
XRECORD
  5
110
330
E4
100
AcDbXrecord
280
1
290
0
  0
XRECORD
  5
111
330
E4
100
AcDbXrecord
280
1
 90
1
  0
XRECORD
  5
112
330
E4
100
AcDbXrecord
280
1
 40
0.0
  0
XRECORD
  5
113
330
E4
100
AcDbXrecord
280
1
 40
0.0
  0
XRECORD
  5
114
330
E4
100
AcDbXrecord
280
1
1000
Portrait
  0
XRECORD
  5
115
330
E4
100
AcDbXrecord
280
1
 40
297.0
  0
XRECORD
  5
116
330
E4
100
AcDbXrecord
280
1
 40
210.0
  0
XRECORD
  5
117
330
E4
100
AcDbXrecord
280
1
1000
1:1
  0
XRECORD
  5
118
330
E4
100
AcDbXrecord
280
1
290
1
  0
XRECORD
  5
119
330
E4
100
AcDbXrecord
280
1
1000
3.14.2
  0
XRECORD
  5
11A
330
E4
100
AcDbXrecord
280
1
 90
4
  0
XRECORD
  5
11C
330
E4
100
AcDbXrecord
280
1
 40
639.3340874811464118
  0
XRECORD
  5
11D
330
E4
100
AcDbXrecord
280
1
 40
1224.8672699849171295
  0
ENDSEC
  0
EOF
