<?xml version="1.0" encoding="UTF-8" standalone="no"?>
<!-- Created with Inkscape (http://www.inkscape.org/) -->

<svg
   xmlns:dc="http://purl.org/dc/elements/1.1/"
   xmlns:cc="http://creativecommons.org/ns#"
   xmlns:rdf="http://www.w3.org/1999/02/22-rdf-syntax-ns#"
   xmlns:svg="http://www.w3.org/2000/svg"
   xmlns="http://www.w3.org/2000/svg"
   xmlns:sodipodi="http://sodipodi.sourceforge.net/DTD/sodipodi-0.dtd"
   xmlns:inkscape="http://www.inkscape.org/namespaces/inkscape"
   width="512"
   height="512"
   id="svg2985"
   version="1.1"
   inkscape:version="0.48.5 r10040"
   sodipodi:docname="DisplayDistanceAngle.svg">
  <defs
     id="defs2987" />
  <sodipodi:namedview
     id="base"
     pagecolor="#ffffff"
     bordercolor="#666666"
     borderopacity="1.0"
     inkscape:pageopacity="0.0"
     inkscape:pageshadow="2"
     inkscape:zoom="0.49497475"
     inkscape:cx="375"
     inkscape:cy="228.57143"
     inkscape:document-units="px"
     inkscape:current-layer="layer1"
     showgrid="false"
     inkscape:window-width="1024"
     inkscape:window-height="692"
     inkscape:window-x="0"
     inkscape:window-y="24"
     inkscape:window-maximized="1" />
  <metadata
     id="metadata2990">
    <rdf:RDF>
      <cc:Work
         rdf:about="">
        <dc:format>image/svg+xml</dc:format>
        <dc:type
           rdf:resource="http://purl.org/dc/dcmitype/StillImage" />
        <dc:title />
      </cc:Work>
    </rdf:RDF>
  </metadata>
  <g
     inkscape:label="Layer 1"
     inkscape:groupmode="layer"
     id="layer1"
     transform="translate(0,-540.36218)">
    <g
       id="g3777">
      <path
         inkscape:connector-curvature="0"
         id="path2993"
         d="m 85.325602,859.51224 0,-99.99999"
         style="fill:#ff0000;stroke:#ff0000;stroke-width:8;stroke-linecap:butt;stroke-linejoin:miter;stroke-miterlimit:4;stroke-opacity:1;stroke-dasharray:none" />
      <path
         inkscape:connector-curvature="0"
         id="path2995"
         d="m 32.468459,810.94082 102.857151,0"
         style="fill:none;stroke:#ff0000;stroke-width:8;stroke-linecap:butt;stroke-linejoin:miter;stroke-miterlimit:4;stroke-opacity:1;stroke-dasharray:none" />
      <g
         id="flowRoot3043"
         style="font-size:40px;font-style:normal;font-weight:normal;line-height:125%;letter-spacing:0px;word-spacing:0px;fill:#00b400;fill-opacity:1;stroke:#00b400;font-family:Sans;stroke-opacity:1;stroke-width:2.56226032999999997;stroke-miterlimit:4;stroke-dasharray:none"
         transform="matrix(1.5384515,0,0,1.5841258,-19.763125,213.77603)">
        <path
           style="stroke:#00b400;stroke-opacity:1;stroke-width:2.56226032999999997;stroke-miterlimit:4;stroke-dasharray:none;fill:#00b400;fill-opacity:1"
           id="path3822"
           d="m 95.558594,331.36997 c -2.031261,2e-5 -3.561207,1.00263 -4.589844,3.00781 -1.015632,1.99221 -1.523444,4.99351 -1.523438,9.00391 -6e-6,3.9974 0.507806,6.9987 1.523438,9.0039 1.028637,1.99219 2.558583,2.98829 4.589844,2.98828 2.044256,10e-6 3.574202,-0.99609 4.589846,-2.98828 1.02863,-2.0052 1.54295,-5.0065 1.54297,-9.0039 -2e-5,-4.0104 -0.51434,-7.0117 -1.54297,-9.00391 -1.015644,-2.00518 -2.54559,-3.00779 -4.589846,-3.00781 m 0,-3.125 c 3.268213,3e-5 5.761696,1.2956 7.480466,3.88672 1.73175,2.57814 2.59764,6.32814 2.59766,11.25 -2e-5,4.90886 -0.86591,8.65886 -2.59766,11.25 -1.71877,2.57812 -4.212253,3.86718 -7.480466,3.86718 -3.268239,0 -5.768236,-1.28906 -7.5,-3.86718 -1.718754,-2.59114 -2.578128,-6.34114 -2.578125,-11.25 -3e-6,-4.92186 0.859371,-8.67186 2.578125,-11.25 1.731764,-2.59112 4.231761,-3.88669 7.5,-3.88672"
           inkscape:connector-curvature="0" />
        <path
           style="stroke:#00b400;stroke-opacity:1;stroke-width:2.56226032999999997;stroke-miterlimit:4;stroke-dasharray:none;fill:#00b400;fill-opacity:1"
           id="path3824"
           d="m 112.58984,352.97153 4.1211,0 0,4.96094 -4.1211,0 0,-4.96094"
           inkscape:connector-curvature="0" />
        <path
           style="stroke:#00b400;stroke-opacity:1;stroke-width:2.56226032999999997;stroke-miterlimit:4;stroke-dasharray:none;fill:#00b400;fill-opacity:1"
           id="path3826"
           d="m 126.00781,354.61215 6.44531,0 0,-22.24609 -7.01171,1.40625 0,-3.59375 6.97265,-1.40625 3.94531,0 0,25.83984 6.44532,0 0,3.32032 -16.79688,0 0,-3.32032"
           inkscape:connector-curvature="0" />
        <path
           style="stroke:#00b400;stroke-opacity:1;stroke-width:2.56226032999999997;stroke-miterlimit:4;stroke-dasharray:none;fill:#00b400;fill-opacity:1"
           id="path3828"
           d="m 154.19141,354.61215 13.76953,0 0,3.32032 -18.51563,0 0,-3.32032 c 1.49739,-1.54947 3.53515,-3.62629 6.11328,-6.23046 2.59114,-2.61718 4.21874,-4.30338 4.88282,-5.0586 1.263,-1.41925 2.14191,-2.61717 2.63671,-3.59375 0.5078,-0.98956 0.76171,-1.95961 0.76172,-2.91015 -1e-5,-1.54946 -0.54689,-2.81248 -1.64062,-3.78907 -1.08075,-0.97653 -2.4935,-1.46481 -4.23828,-1.46484 -1.23699,3e-5 -2.54558,0.21487 -3.92578,0.64453 -1.3672,0.42971 -2.83204,1.08075 -4.39454,1.95313 l 0,-3.98438 c 1.58854,-0.63799 3.07292,-1.11976 4.45313,-1.44531 1.3802,-0.32549 2.64322,-0.48825 3.78906,-0.48828 3.02082,3e-5 5.42967,0.75523 7.22656,2.26562 1.79686,1.51044 2.6953,3.52867 2.69532,6.05469 -2e-5,1.19794 -0.22789,2.33726 -0.6836,3.41797 -0.44272,1.06772 -1.25653,2.33074 -2.4414,3.78906 -0.32554,0.37762 -1.3607,1.47137 -3.10547,3.28125 -1.74481,1.79688 -4.20574,4.31641 -7.38281,7.55859"
           inkscape:connector-curvature="0" />
        <path
           style="stroke:#00b400;stroke-opacity:1;stroke-width:2.56226032999999997;stroke-miterlimit:4;stroke-dasharray:none;fill:#00b400;fill-opacity:1"
           id="path3830"
           d="m 188.21484,342.20981 c 1.88801,0.40366 3.35936,1.2435 4.41407,2.51953 1.06768,1.27606 1.60154,2.85157 1.60156,4.72656 -2e-5,2.87761 -0.98961,5.10417 -2.96875,6.67969 -1.97919,1.57552 -4.79168,2.36328 -8.4375,2.36328 -1.22397,0 -2.48699,-0.1237 -3.78906,-0.37109 -1.28907,-0.23438 -2.62371,-0.59245 -4.00391,-1.07422 l 0,-3.80859 c 1.09375,0.63802 2.29166,1.11979 3.59375,1.44531 1.30208,0.32552 2.66275,0.48828 4.08203,0.48828 2.47395,0 4.35545,-0.48828 5.64453,-1.46484 1.30207,-0.97656 1.95311,-2.39583 1.95313,-4.25782 -2e-5,-1.71874 -0.60549,-3.05988 -1.81641,-4.02343 -1.19793,-0.97655 -2.87111,-1.46483 -5.01953,-1.46485 l -3.39844,0 0,-3.24218 3.55469,0 c 1.94009,1e-5 3.42446,-0.3841 4.45312,-1.15235 1.02863,-0.78123 1.54296,-1.90102 1.54297,-3.35937 -1e-5,-1.49738 -0.53387,-2.64321 -1.60156,-3.4375 -1.0547,-0.80727 -2.57163,-1.21091 -4.55078,-1.21094 -1.08074,3e-5 -2.23959,0.11721 -3.47656,0.35156 -1.23699,0.2344 -2.59766,0.59899 -4.08203,1.09375 l 0,-3.51562 c 1.49739,-0.41664 2.89712,-0.72914 4.19921,-0.9375 1.3151,-0.20831 2.55208,-0.31247 3.71094,-0.3125 2.99478,3e-5 5.36457,0.68362 7.10938,2.05078 1.74477,1.35419 2.61716,3.19013 2.61718,5.50781 -2e-5,1.6146 -0.46226,2.98179 -1.38671,4.10156 -0.9245,1.10679 -2.23961,1.87502 -3.94532,2.30469"
           inkscape:connector-curvature="0" />
        <path
           style="stroke:#00b400;stroke-opacity:1;stroke-width:2.56226032999999997;stroke-miterlimit:4;stroke-dasharray:none;fill:#00b400;fill-opacity:1"
           id="path3832"
           d="m 212.57031,332.20981 -9.96094,15.56641 9.96094,0 0,-15.56641 m -1.03515,-3.4375 4.96093,0 0,19.00391 4.16016,0 0,3.28125 -4.16016,0 0,6.875 -3.92578,0 0,-6.875 -13.16406,0 0,-3.8086 12.12891,-18.47656"
           inkscape:connector-curvature="0" />
        <path
           style="stroke:#00b400;stroke-opacity:1;stroke-width:2.56226032999999997;stroke-miterlimit:4;stroke-dasharray:none;fill:#00b400;fill-opacity:1"
           id="path3834"
           d="m 252.19922,338.24497 -20.15625,7.16797 20.15625,7.1289 0,3.55469 -25.03906,-9.08203 0,-3.24219 25.03906,-9.08203 0,3.55469"
           inkscape:connector-curvature="0" />
        <path
           style="stroke:#00b400;stroke-opacity:1;stroke-width:2.56226032999999997;stroke-miterlimit:4;stroke-dasharray:none;fill:#00b400;fill-opacity:1"
           id="path3836"
           d="m 260.75391,328.77231 15.48828,0 0,3.32031 -11.875,0 0,7.14844 c 0.57291,-0.19529 1.14582,-0.33852 1.71875,-0.42969 0.5729,-0.10414 1.14582,-0.15623 1.71875,-0.15625 3.25519,2e-5 5.83331,0.89195 7.73437,2.67578 1.90102,1.78387 2.85154,4.19924 2.85156,7.2461 -2e-5,3.13802 -0.97658,5.57943 -2.92968,7.32422 -1.95314,1.73177 -4.70705,2.59765 -8.26172,2.59765 -1.22397,0 -2.47397,-0.10416 -3.75,-0.3125 -1.26303,-0.20833 -2.57162,-0.52083 -3.92578,-0.9375 l 0,-3.96484 c 1.17187,0.63802 2.3828,1.11328 3.63281,1.42578 1.24999,0.3125 2.57161,0.46875 3.96484,0.46875 2.25259,0 4.03645,-0.59244 5.35157,-1.77734 1.31508,-1.18489 1.97263,-2.79296 1.97265,-4.82422 -2e-5,-2.03124 -0.65757,-3.63931 -1.97265,-4.82422 -1.31512,-1.18488 -3.09898,-1.77733 -5.35157,-1.77734 -1.05469,1e-5 -2.10938,0.1172 -3.16406,0.35156 -1.04167,0.23439 -2.10938,0.59897 -3.20312,1.09375 l 0,-14.64844"
           inkscape:connector-curvature="0" />
        <path
           style="stroke:#00b400;stroke-opacity:1;stroke-width:2.56226032999999997;stroke-miterlimit:4;stroke-dasharray:none;fill:#00b400;fill-opacity:1"
           id="path3838"
           d="m 295.10937,341.78012 c -1.77084,2e-5 -3.17709,0.60549 -4.21875,1.81641 -1.02865,1.21095 -1.54297,2.8711 -1.54296,4.98047 -1e-5,2.09636 0.51431,3.75651 1.54296,4.98047 1.04166,1.21094 2.44791,1.81641 4.21875,1.8164 1.77082,10e-6 3.17056,-0.60546 4.19922,-1.8164 1.04165,-1.22396 1.56248,-2.88411 1.5625,-4.98047 -2e-5,-2.10937 -0.52085,-3.76952 -1.5625,-4.98047 -1.02866,-1.21092 -2.4284,-1.81639 -4.19922,-1.81641 m 7.83204,-12.36328 0,3.59375 c -0.98961,-0.46872 -1.99221,-0.8268 -3.00782,-1.07422 -1.00262,-0.24737 -1.99871,-0.37106 -2.98828,-0.37109 -2.60418,3e-5 -4.59636,0.87893 -5.97656,2.63672 -1.3672,1.75783 -2.14844,4.41408 -2.34375,7.96875 0.76822,-1.1328 1.73176,-1.99868 2.89062,-2.59766 1.15885,-0.61196 2.43489,-0.91795 3.82813,-0.91797 2.92967,2e-5 5.24087,0.89195 6.93359,2.67578 1.70571,1.77085 2.55857,4.18621 2.5586,7.2461 -3e-5,2.9948 -0.88544,5.39714 -2.65625,7.20703 -1.77085,1.8099 -4.12762,2.71484 -7.07032,2.71484 -3.3724,0 -5.95052,-1.28906 -7.73437,-3.86718 -1.78386,-2.59114 -2.67578,-6.34114 -2.67578,-11.25 0,-4.60936 1.09374,-8.28123 3.28125,-11.01563 2.18749,-2.74737 5.12369,-4.12106 8.80859,-4.12109 0.98957,3e-5 1.98566,0.0977 2.98828,0.29297 1.01561,0.19534 2.0703,0.48831 3.16407,0.8789"
           inkscape:connector-curvature="0" />
        <path
           id="path3840"
           style="font-size:65.00091553000000033%;baseline-shift:super;fill:#00b400;stroke:#00b400;stroke-opacity:1;stroke-width:2.56226032999999997;stroke-miterlimit:4;stroke-dasharray:none;fill-opacity:1"
           d="m 315.33507,329.35123 c -1.25263,2e-5 -2.24287,0.49091 -2.97074,1.47268 -0.72788,0.97333 -1.09182,2.31059 -1.09181,4.01178 -10e-6,1.7012 0.3597,3.04269 1.07911,4.02447 0.72787,0.97332 1.72235,1.45998 2.98344,1.45998 1.24415,0 2.23017,-0.49089 2.95805,-1.47268 0.72787,-0.98178 1.0918,-2.31904 1.09181,-4.01177 -10e-6,-1.68426 -0.36394,-3.01729 -1.09181,-3.99908 -0.72788,-0.99024 -1.7139,-1.48536 -2.95805,-1.48538 m 0,-1.98049 c 2.03127,10e-6 3.62667,0.66018 4.7862,1.98049 1.15951,1.32035 1.73927,3.1485 1.73929,5.48446 -2e-5,2.32751 -0.57978,4.15566 -1.73929,5.48445 -1.15953,1.32033 -2.75493,1.9805 -4.7862,1.9805 -2.03975,0 -3.63938,-0.66017 -4.79889,-1.9805 -1.15106,-1.32879 -1.72659,-3.15694 -1.72659,-5.48445 0,-2.33596 0.57553,-4.16411 1.72659,-5.48446 1.15951,-1.32031 2.75914,-1.98048 4.79889,-1.98049"
           inkscape:connector-curvature="0" />
      </g>
    </g>
  </g>
</svg>
