<svg xmlns="http://www.w3.org/2000/svg" viewBox="0 0 512 512" xmlns:xlink="http://www.w3.org/1999/xlink">
<defs>
<linearGradient id="linearGradient269-1">
<stop offset="0" stop-color="#a3a3a3"/>
<stop offset="1" stop-color="#4c4c4c"/>
</linearGradient>
<linearGradient id="linearGradient15662-3">
<stop offset="0" stop-color="#fff"/>
<stop offset="1" stop-color="#f8f8f8"/>
</linearGradient>
<linearGradient id="linearGradient259-7">
<stop offset="0" stop-color="#fafafa"/>
<stop offset="1" stop-color="#bbb"/>
</linearGradient>
<radialGradient cx="8.144" cy="7.268" gradientTransform="matrix(5.09631 0 0 5.43576 52.27213 -440.91296)" xlink:href="#linearGradient15662-3" id="radialGradient4581" r="38.159" gradientUnits="userSpaceOnUse"/>
<radialGradient cx="33.967" cy="35.737" gradientTransform="matrix(5.05536 0 0 5.47978 34.62139 -444.3154)" xlink:href="#linearGradient259-7" id="radialGradient4584" r="86.708" gradientUnits="userSpaceOnUse"/>
<radialGradient cx="20.892" cy="64.568" r="5.257" id="aigrd3-0" gradientUnits="userSpaceOnUse">
<stop offset="0" stop-color="#f0f0f0"/>
<stop offset="1" stop-color="#9a9a9a"/>
</radialGradient>
<radialGradient cx="20.892" cy="64.568" gradientTransform="matrix(.2297 0 0 .2297 4.61353 3.97981)" xlink:href="#aigrd3-0" id="radialGradient2285" r="5.257" gradientUnits="userSpaceOnUse"/>
<radialGradient cx="20.892" cy="114.568" r="5.256" id="aigrd2-47" gradientUnits="userSpaceOnUse">
<stop offset="0" stop-color="#f0f0f0"/>
<stop offset="1" stop-color="#9a9a9a"/>
</radialGradient>
<radialGradient cx="20.892" cy="114.568" gradientTransform="matrix(.2297 0 0 .2297 4.61353 3.97981)" xlink:href="#aigrd2-47" id="radialGradient2283" r="5.256" gradientUnits="userSpaceOnUse"/>
<radialGradient cx="8.824" cy="3.756" gradientTransform="matrix(5.09631 0 0 5.43576 52.27213 -440.91296)" xlink:href="#linearGradient269-1" id="radialGradient4586" r="37.752" gradientUnits="userSpaceOnUse"/>
</defs>
<g display="block" stroke-linejoin="round" stroke-linecap="round" color="#000" transform="matrix(1.97552 0 0 1.97552 -62.36868 883.10016)">
<path fill="url(#radialGradient4584)" stroke="url(#radialGradient4586)" stroke-width="10" d="m75.4256-425.123h171.4614a6.0478,6.0478 0 0,1 6.048,6.048v203.281a6.0478,6.0478 0 0,1 -6.048,6.048h-171.4614a6.0478,6.0478 0 0,1 -6.0478-6.048v-203.281a6.0478,6.0478 0 0,1 6.0478-6.048"/>
<path fill="none" stroke="url(#radialGradient4581)" stroke-width="5.263" d="m75.7546-420.189h170.9404a.7845,.7845 0 0,1 .784,.785v203.417a.7845,.7845 0 0,1 -.784,.785h-170.9404a.7845,.7845 0 0,1 -.7845-.785v-203.417a.7845,.7845 0 0,1 .7845-.785"/>
</g>
<g fill="#fff" stroke="none" transform="matrix(2.3884 0 0 2.3884 64.39488 49.08743)">
<path d="m23.428,113.07c0,1.973-1.6,3.572-3.573,3.572-1.974,0-3.573-1.6-3.573-3.572 0-1.974 1.6-3.573 3.573-3.573 1.973,0 3.573,1.6 3.573,3.573z"/>
<path d="m23.428,63.07c0,1.973-1.6,3.573-3.573,3.573-1.974,0-3.573-1.6-3.573-3.573 0-1.974 1.6-3.573 3.573-3.573 1.973,0 3.573,1.6 3.573,3.573z"/>
</g>
<g transform="matrix(10.39777 0 0 10.39777 12.74833 4.9492)">
<path fill="url(#radialGradient2283)" d="m9.995,29.9523c0,.4532-.3675,.8205-.8207,.8205-.4534,0-.8207-.3675-.8207-.8205 0-.4534 .3675-.8207 .8207-.8207 .4532,0 .8207,.3675 .8207,.8207z"/>
<path fill="url(#radialGradient2285)" d="m9.995,18.4672c0,.4532-.3675,.8207-.8207,.8207-.4534,0-.8207-.3675-.8207-.8207 0-.4534 .3675-.8207 .8207-.8207 .4532,0 .8207,.3675 .8207,.8207z"/>
</g>
<g fill="none" transform="matrix(1.97552 0 0 1.97552 -62.36868 883.10016)">
<path stroke-opacity=".018" stroke="#000" stroke-width="5.203" d="m95.1794-415.3974 0,199.5136"/>
<path stroke-opacity=".205" stroke="#fff" stroke-width="5.263" d="m100.4126-417.8909 0,200.0984"/>
</g>
<g transform="translate(0 464)">
<path fill="none" stroke="#f00" stroke-linecap="square" color="#000" stroke-width="16" d="m142.451-342.84h227.098v269.6797h-227.098z"/>
</g>
</svg>
