<svg xmlns="http://www.w3.org/2000/svg" xmlns:xlink="http://www.w3.org/1999/xlink" viewBox="0 0 512 512"><defs><path id="G" d="m75.43-425.12h171.46a6.0478 6.0478 0 0 1 6.048 6.048v203.28a6.0478 6.0478 0 0 1 -6.048 6.048h-171.46a6.0478 6.0478 0 0 1 -6.0478 -6.048v-203.28a6.0478 6.0478 0 0 1 6.0478 -6.048"/><path id="H" d="m23.428 113.07c0 1.973-1.6 3.572-3.573 3.572-1.974 0-3.573-1.6-3.573-3.572 0-1.974 1.6-3.573 3.573-3.573 1.973 0 3.573 1.6 3.573 3.573"/><path id="I" d="m9.995 29.952c0 .453-.367.82-.821.82-.453 0-.821-.367-.821-.82 0-.453.367-.821.821-.821.453 0 .821.367.821.821"/><path id="J" d="m95.18-415.4v199.51" style="stroke-opacity:.018;stroke:#fff;stroke-width:5.203"/><path id="K" d="m75.75-420.19h170.94a.7845 .7845 0 0 1 .784 .785v203.42a.7845 .7845 0 0 1 -.784 .785h-170.94a.7845 .7845 0 0 1 -.7845 -.785v-203.42a.7845 .7845 0 0 1 .7845 -.785"/><path id="L" d="m9.995 18.467c0 .453-.367.821-.821.821-.453 0-.821-.367-.821-.821 0-.453.367-.821.821-.821.453 0 .821.367.821.821"/><radialGradient cx="9.412" cy="18.811" xlink:href="#3" id="9" r="1.208" gradientUnits="userSpaceOnUse"/><radialGradient cx="8.144" cy="7.268" gradientTransform="matrix(5.09631 0 0 5.43576 52.27-440.91)" id="A" r="38.16" gradientUnits="userSpaceOnUse" xlink:href="#2"/><radialGradient cx="9.412" cy="30.3" xlink:href="#1" id="F" r="1.207" gradientUnits="userSpaceOnUse"/><radialGradient cx="9.412" cy="30.3" xlink:href="#1" id="B" r="1.207" gradientUnits="userSpaceOnUse"/><radialGradient cx="33.967" cy="35.737" gradientTransform="matrix(5.05536 0 0 5.47978 34.621-444.32)" id="D" r="86.71" gradientUnits="userSpaceOnUse" xlink:href="#6"/><radialGradient cx="8.824" cy="3.756" gradientTransform="matrix(5.09631 0 0 5.43576 52.27-440.91)" id="E" r="37.752" gradientUnits="userSpaceOnUse" xlink:href="#4"/><radialGradient cx="9.412" cy="18.811" xlink:href="#3" id="C" r="1.208" gradientUnits="userSpaceOnUse"/><radialGradient cx="9.412" cy="30.3" xlink:href="#1" id="8" r="1.207" gradientUnits="userSpaceOnUse"/><radialGradient cx="9.412" cy="18.811" xlink:href="#3" id="0" r="1.208" gradientUnits="userSpaceOnUse"/><radialGradient cx="20.892" cy="114.57" r="5.256" id="1" gradientUnits="userSpaceOnUse"><stop style="stop-color:#f0f0f0"/><stop offset="1" style="stop-color:#9a9a9a"/></radialGradient><radialGradient cx="9.412" cy="18.811" xlink:href="#3" id="7" r="1.208" gradientUnits="userSpaceOnUse"/><radialGradient cx="8.144" cy="7.268" gradientTransform="matrix(5.09631 0 0 5.43576 52.27-440.91)" id="2" r="38.16" gradientUnits="userSpaceOnUse"><stop style="stop-color:#fff"/><stop offset="1" style="stop-color:#f8f8f8"/></radialGradient><radialGradient cx="20.892" cy="64.57" r="5.257" id="3" gradientUnits="userSpaceOnUse" xlink:href="#1"/><radialGradient cx="33.967" cy="35.737" gradientTransform="matrix(5.05536 0 0 5.47978 34.621-444.32)" id="6" r="86.71" gradientUnits="userSpaceOnUse"><stop style="stop-color:#fafafa"/><stop offset="1" style="stop-color:#bbb"/></radialGradient><radialGradient cx="8.824" cy="3.756" gradientTransform="matrix(5.09631 0 0 5.43576 52.27-440.91)" id="4" r="37.752" gradientUnits="userSpaceOnUse"><stop style="stop-color:#a3a3a3"/><stop offset="1" style="stop-color:#4c4c4c"/></radialGradient><radialGradient cx="9.412" cy="30.3" xlink:href="#1" id="5" r="1.207" gradientUnits="userSpaceOnUse"/></defs><g transform="translate(0 464)" style="display:block;color:#000;stroke-linecap:round;stroke-linejoin:round"><use xlink:href="#G" style="fill:url(#D);stroke:url(#E);stroke-width:10"/><path d="m75.75-420.19h170.94a.7845 .7845 0 0 1 .784 .785v203.42a.7845 .7845 0 0 1 -.784 .785h-170.94a.7845 .7845 0 0 1 -.7845 -.785v-203.42a.7845 .7845 0 0 1 .7845 -.785" style="fill:none;stroke:url(#A);stroke-width:5.263"/></g><g transform="matrix(1.20899 0 0 1.20899 64.17 41.827)" style="fill:#fff"><use xlink:href="#H"/><path d="m23.428 63.07c0 1.973-1.6 3.573-3.573 3.573-1.974 0-3.573-1.6-3.573-3.573 0-1.974 1.6-3.573 3.573-3.573 1.973 0 3.573 1.6 3.573 3.573"/></g><g transform="matrix(5.26329 0 0 5.26329 38.02 19.485)"><use xlink:href="#I" style="fill:url(#B)"/><path d="m9.995 18.467c0 .453-.367.821-.821.821-.453 0-.821-.367-.821-.821 0-.453.367-.821.821-.821.453 0 .821.367.821.821" style="fill:url(#C)"/></g><g transform="translate(0 464)" style="fill:none"><use xlink:href="#J"/><path d="m100.41-417.89v200.1" style="stroke-opacity:.205;stroke:#fff;stroke-width:5.263"/></g><g transform="translate(192.82 463.4)" style="display:block;color:#000;stroke-linecap:round;stroke-linejoin:round"><use xlink:href="#G" style="fill:url(#6);stroke:url(#4);stroke-width:10"/><use xlink:href="#K" style="fill:none;stroke:url(#2);stroke-width:5.263"/></g><g transform="matrix(1.20899 0 0 1.20899 256.99 41.22)" style="fill:#fff"><use xlink:href="#H"/><path d="m23.428 63.07c0 1.973-1.6 3.573-3.573 3.573-1.974 0-3.573-1.6-3.573-3.573 0-1.974 1.6-3.573 3.573-3.573 1.973 0 3.573 1.6 3.573 3.573"/></g><g transform="matrix(5.26329 0 0 5.26329 230.84 18.882)"><use xlink:href="#I" style="fill:url(#F)"/><use xlink:href="#L" style="fill:url(#9)"/></g><g transform="translate(192.82 463.4)" style="fill:none"><use xlink:href="#J"/><path d="m100.41-417.89v200.1" style="stroke-opacity:.205;stroke:#fff;stroke-width:5.263"/></g><g transform="translate(.821 687.4)" style="display:block;color:#000;stroke-linecap:round;stroke-linejoin:round"><use xlink:href="#G" style="fill:url(#6);stroke:url(#4);stroke-width:10"/><use xlink:href="#K" style="fill:none;stroke:url(#2);stroke-width:5.263"/></g><g transform="matrix(1.20899 0 0 1.20899 64.988 265.22)" style="fill:#fff"><use xlink:href="#H"/><path d="m23.428 63.07c0 1.973-1.6 3.573-3.573 3.573-1.974 0-3.573-1.6-3.573-3.573 0-1.974 1.6-3.573 3.573-3.573 1.973 0 3.573 1.6 3.573 3.573" id="M"/></g><g transform="matrix(5.26329 0 0 5.26329 38.844 242.88)"><use xlink:href="#I" style="fill:url(#8)"/><use xlink:href="#L" style="fill:url(#7)"/></g><g transform="translate(.821 687.4)" style="fill:none"><use xlink:href="#J"/><path d="m100.41-417.89v200.1" id="N" style="stroke-opacity:.205;stroke:#fff;stroke-width:5.263"/></g><g transform="translate(193.64 686.79)" style="display:block;color:#000;stroke-linecap:round;stroke-linejoin:round"><use xlink:href="#G" style="fill:url(#6);stroke:url(#4);stroke-width:10"/><use xlink:href="#K" style="fill:none;stroke:url(#2);stroke-width:5.263"/></g><g transform="matrix(1.20899 0 0 1.20899 257.81 264.62)" style="fill:#fff"><use xlink:href="#H"/><use xlink:href="#M"/></g><g transform="matrix(5.26329 0 0 5.26329 231.67 242.28)"><use xlink:href="#I" style="fill:url(#5)"/><use xlink:href="#L" style="fill:url(#0)"/></g><g transform="translate(193.64 686.79)" style="fill:none"><use xlink:href="#J"/><use xlink:href="#N"/></g><g transform="translate(0 464)"><path d="m192-304h128v192h-128z" style="fill:none;stroke:#00ccff;color:#000;stroke-linecap:square;stroke-width:16"/><g style="fill:#f00"><path d="m128-240l48 32-48 32v-64"/><path d="m384-240l-48 32 48 32v-64"/><path d="m224-368l32 48 32-48h-64"/><path d="m224-48l32-48 32 48h-64"/></g></g></svg>
