<svg xmlns="http://www.w3.org/2000/svg" xmlns:xlink="http://www.w3.org/1999/xlink" viewBox="0 0 512 512"><defs><radialGradient cx="9.412" cy="30.3" xlink:href="#4" id="5" r="1.207" gradientUnits="userSpaceOnUse"/><radialGradient cx="20.892" cy="114.57" r="5.256" id="4" gradientUnits="userSpaceOnUse" xlink:href="#2"/><radialGradient cx="8.824" cy="3.756" gradientTransform="matrix(5.09631 0 0 5.43576 52.27-440.91)" id="6" r="37.752" gradientUnits="userSpaceOnUse"><stop style="stop-color:#a3a3a3"/><stop offset="1" style="stop-color:#4c4c4c"/></radialGradient><radialGradient cx="9.412" cy="18.811" xlink:href="#2" id="3" r="1.208" gradientUnits="userSpaceOnUse"/><radialGradient cx="33.967" cy="35.737" gradientTransform="matrix(5.05536 0 0 5.47978 34.621-444.32)" id="1" r="86.71" gradientUnits="userSpaceOnUse"><stop style="stop-color:#fafafa"/><stop offset="1" style="stop-color:#bbb"/></radialGradient><radialGradient cx="8.144" cy="7.268" gradientTransform="matrix(5.09631 0 0 5.43576 52.27-440.91)" id="0" r="38.16" gradientUnits="userSpaceOnUse"><stop style="stop-color:#fff"/><stop offset="1" style="stop-color:#f8f8f8"/></radialGradient><radialGradient cx="20.892" cy="64.57" r="5.257" id="2" gradientUnits="userSpaceOnUse"><stop style="stop-color:#f0f0f0"/><stop offset="1" style="stop-color:#9a9a9a"/></radialGradient></defs><g transform="matrix(1.97552 0 0 1.97552-62.37 883.1)" style="display:block;color:#000;stroke-linecap:round;stroke-linejoin:round"><path d="m75.43-425.12h171.46a6.0478 6.0478 0 0 1 6.048 6.048v203.28a6.0478 6.0478 0 0 1 -6.048 6.048h-171.46a6.0478 6.0478 0 0 1 -6.0478 -6.048v-203.28a6.0478 6.0478 0 0 1 6.0478 -6.048" style="fill:url(#1);stroke:url(#6);stroke-width:10"/><path d="m75.75-420.19h170.94a.7845 .7845 0 0 1 .784 .785v203.42a.7845 .7845 0 0 1 -.784 .785h-170.94a.7845 .7845 0 0 1 -.7845 -.785v-203.42a.7845 .7845 0 0 1 .7845 -.785" style="fill:none;stroke:url(#0);stroke-width:5.263"/></g><g transform="matrix(2.3884 0 0 2.3884 64.39 49.09)" style="fill:#fff"><path d="m23.428 113.07c0 1.973-1.6 3.572-3.573 3.572-1.974 0-3.573-1.6-3.573-3.572 0-1.974 1.6-3.573 3.573-3.573 1.973 0 3.573 1.6 3.573 3.573"/><path d="m23.428 63.07c0 1.973-1.6 3.573-3.573 3.573-1.974 0-3.573-1.6-3.573-3.573 0-1.974 1.6-3.573 3.573-3.573 1.973 0 3.573 1.6 3.573 3.573"/></g><g transform="matrix(10.39777 0 0 10.39777 12.748 4.949)"><path d="m9.995 29.952c0 .453-.367.82-.821.82-.453 0-.821-.367-.821-.82 0-.453.367-.821.821-.821.453 0 .821.367.821.821" style="fill:url(#5)"/><path d="m9.995 18.467c0 .453-.367.821-.821.821-.453 0-.821-.367-.821-.821 0-.453.367-.821.821-.821.453 0 .821.367.821.821" style="fill:url(#3)"/></g><g transform="matrix(1.97552 0 0 1.97552-62.37 883.1)" style="fill:none"><path d="m95.18-415.4v199.51" style="stroke-opacity:.018;stroke:#fff;stroke-width:5.203"/><path d="m100.41-417.89v200.1" style="stroke-opacity:.205;stroke:#fff;stroke-width:5.263"/></g></svg>
