<svg xmlns="http://www.w3.org/2000/svg" xmlns:xlink="http://www.w3.org/1999/xlink" viewBox="0 0 512 512"><defs><filter width="1.177" x="-.089" y="-.384" height="1.767" id="0"><feGaussianBlur stdDeviation="1.59836"/></filter><linearGradient id="4" y1="35.743" x1="3.5" y2="45.743" x2="46.779" gradientUnits="userSpaceOnUse"><stop style="stop-opacity:0"/><stop offset=".081" style="stop-opacity:0"/><stop offset=".615" style="stop-opacity:.247"/><stop offset=".749" style="stop-opacity:.498"/><stop offset="1"/></linearGradient><linearGradient id="5" y1="373.05" x1="363.75" y2="398.63" gradientUnits="userSpaceOnUse" x2="389.33"><stop/><stop offset="1" style="stop-opacity:0"/></linearGradient><linearGradient id="7" y1="12.847" x1="54.11" y2="-3.881" x2="50.08" gradientUnits="userSpaceOnUse"><stop style="stop-color:#babdb6"/><stop offset="1" style="stop-color:#888a85"/></linearGradient><linearGradient id="6" y1="444.05" x1="413.42" y2="423.71" gradientUnits="userSpaceOnUse" x2="435.72"><stop style="stop-color:#888a85"/><stop offset="1" style="stop-color:#d3d7cf"/></linearGradient><linearGradient id="1" y1="57.15" x1="81.1" y2="54.615" gradientUnits="userSpaceOnUse" x2="83.63"><stop style="stop-color:#2e3436"/><stop offset="1" style="stop-color:#555753"/></linearGradient><linearGradient id="3" y1="388.15" x1="315.59" y2="150.98" x2="268.72" gradientUnits="userSpaceOnUse"><stop style="stop-color:#888a85"/><stop offset="1" style="stop-color:#babdb6"/></linearGradient><linearGradient id="2" y1="55.11" x1="81.33" y2="53.51" gradientUnits="userSpaceOnUse" x2="82.92"><stop style="stop-color:#555753"/><stop offset=".702" style="stop-color:#a3a5a2"/><stop offset="1" style="stop-color:#888a85"/></linearGradient><radialGradient cx="20.892" cy="64.57" r="5.257" id="D" gradientUnits="userSpaceOnUse"><stop style="stop-color:#f0f0f0"/><stop offset="1"/></radialGradient><radialGradient cx=".734" cy="18.17" gradientTransform="matrix(2.23744 2.23744-2.24101 2.24101 228.58 191.87)" id="E" r="86.71" gradientUnits="userSpaceOnUse"><stop style="stop-color:#fff"/><stop offset="1" style="stop-color:#d5d5d5"/></radialGradient><radialGradient cx="45.09" cy="-2.694" gradientTransform="matrix(0 14.95927-16.31699 0 127.89-491.16)" id="F" r="10.498" gradientUnits="userSpaceOnUse"><stop style="stop-color:#fff"/><stop offset="1" style="stop-color:#eeeeec"/></radialGradient><radialGradient cx="17.06" cy="28.851" gradientTransform="matrix(13.71571 0 0 12.4126 34.702 9.311)" id="C" r="13.5" gradientUnits="userSpaceOnUse"><stop style="stop-color:#429eff"/><stop offset="1" style="stop-color:#0044a7"/></radialGradient><radialGradient cx="16.83" cy="24.744" gradientTransform="matrix(17.69168-4.74047 4.20433 15.69141-141.59-11.848)" id="8" r="16.925" gradientUnits="userSpaceOnUse"><stop style="stop-color:#fff"/><stop offset="1" style="stop-color:#fff;stop-opacity:0"/></radialGradient><radialGradient cx="59.787" cy="10.902" gradientTransform="matrix(0-21.39676 21.1018 0 131.13 1638.01)" id="B" r="10.556" gradientUnits="userSpaceOnUse"><stop style="stop-color:#fbfbfa"/><stop offset="1" style="stop-color:#d3d7cf"/></radialGradient><radialGradient cx="223.63" cy="241.65" id="G" r="97.59" gradientUnits="userSpaceOnUse" xlink:href="#8"/><radialGradient cx="66.906" cy="228.19" xlink:href="#D" id="A" r="12.855" gradientUnits="userSpaceOnUse"/><radialGradient cx="66.906" cy="140.89" xlink:href="#D" id="9" r="12.855" gradientUnits="userSpaceOnUse"/></defs><path d="m41.775 45.847h208.17a7.4688 7.4688 0 0 1 7.469 7.4688v251.05a7.4688 7.4688 0 0 1 -7.469 7.469h-208.17a7.4688 7.4688 0 0 1 -7.4688 -7.469v-251.05a7.4688 7.4688 0 0 1 7.4688 -7.4688" style="fill:url(#E);stroke:#3c3c3c;display:block;color:#000;stroke-linecap:round;stroke-linejoin:round;stroke-width:11.426"/><path d="m73.11 137.23c0 4.825-3.912 8.737-8.737 8.737-4.827 0-8.737-3.912-8.737-8.737 0-4.827 3.913-8.737 8.737-8.737 4.825 0 8.737 3.912 8.737 8.737" style="fill:url(#9)"/><path d="m73.11 224.53c0 4.825-3.912 8.737-8.737 8.737-4.827 0-8.737-3.912-8.737-8.737 0-4.827 3.913-8.737 8.737-8.737 4.825 0 8.737 3.912 8.737 8.737" style="fill:url(#A)"/><g transform="matrix(.98487 0 0 .98487-16.727-3.115)"><path d="m21 35.743c-9.66 0-17.5 1.813-17.5 4.047 0 2.234 7.84 4.047 17.5 4.047 4.496 0 8.587-.395 11.688-1.041l.813.947c.025.021.087.043.156.058l7.969 1.857c.357.083.883.101 1.531.072.649-.029 1.412-.124 2.219-.311.8-.185 1.206-.35 1.344-.499.138-.149.039-.28-.313-.361l-8.03-1.843c-.079-.018-.172-.032-.281-.036l-4.094-.188c2.79-.717 4.5-1.663 4.5-2.703 0-2.234-7.84-4.047-17.5-4.047" transform="matrix(7.92891 0 0 7.13601 114.11 161.23)" style="fill:url(#4);opacity:.6;filter:url(#0)"/><g style="color:#000"><path d="m395.58 277.54c0 70.06-56.799 126.86-126.86 126.86-70.06 0-126.86-56.798-126.86-126.86 0-70.06 56.799-126.86 126.86-126.86 70.06 0 126.86 56.798 126.86 126.86" style="fill:url(#C);opacity:.6;stroke-width:9.397"/><path d="m264.21 146.71c-67.52 2.569-121.54 58.27-121.54 126.42 0 19.16 11.125 37.439 19.753 53.22-3.743-43.04 14.8-52.44 27.11-48.613 37.36 11.598 102.18 22.14 168.78-12.635 23.348-12.19 36.964 17.677 36.03-9.168-7.449-61.803-61.29-109.22-125.26-109.22-1.636 0-3.26-.062-4.88 0" style="fill:url(#8);opacity:.5"/><path d="m395.58 277.54c0 70.06-56.799 126.86-126.86 126.86-70.06 0-126.86-56.799-126.86-126.86 0-70.06 56.799-126.86 126.86-126.86 70.06 0 126.86 56.799 126.86 126.86z" style="fill:none;stroke:url(#B);stroke-linecap:round;stroke-width:23.787"/></g></g><g style="color:#000"><g transform="matrix(12.0574 0 0 11.99463-584.33-233.02)"><path d="m76.8 49.769l.648 3.255 5.181 5.213c.192.194.972.32 1.943-.656.972-.977.896-1.704.648-1.953l-5.181-5.208-3.238-.651z" style="fill:url(#2);stroke:url(#1);stroke-linecap:round;stroke-linejoin:round;stroke-width:.677"/><path d="m79.57 51.32c-.003.011.294.324-.245.865-.539.541-1.01.374-.993.36l-.269-1.522 1.508.296" style="fill:#fff;opacity:.192"/></g><g transform="matrix(.98487 0 0 .98487-16.727-3.115)"><path d="m374.05 382.82l4.936 25.382 59.46 59.854c2.925 2.944 7.404 1.728 14.809-5.677 7.404-7.404 9.313-11.11 5.637-14.809l-59.46-59.814-25.382-4.936z" style="fill:none;stroke:url(#6);stroke-linecap:round;stroke-width:7.929"/><path d="m362.54 368.65c-2.06.694-3.23 2.855-2.678 4.948l8.03 39.582c.2.727.597 1.385 1.148 1.903l63.13 63.56c2.829 2.832 7.1 3.66 12.243 2.664 5.143-.995 11.199-4.257 17.599-10.657 6.347-6.347 9.618-12.03 10.712-17.13 1.094-5.101.111-9.77-2.678-12.56l-63.51-63.18c-.624-.613-1.428-1.013-2.296-1.142l-39.41-7.992c-.75-.215-1.546-.215-2.296 0" style="fill:url(#5);opacity:.153"/><g style="fill:none;stroke-linecap:round"><path d="m399.55 277.54c0 72.25-58.57 130.83-130.83 130.83-72.25 0-130.83-58.57-130.83-130.83 0-72.25 58.57-130.83 130.83-130.83 72.25 0 130.83 58.57 130.83 130.83z" style="stroke:url(#F);stroke-width:7.928"/><path d="m407.48 277.54c0 76.63-62.12 138.76-138.76 138.76-76.63 0-138.76-62.12-138.76-138.76 0-76.63 62.12-138.76 138.76-138.76 76.63 0 138.76 62.12 138.76 138.76z" style="stroke:url(#3);stroke-width:7.923"/><path d="m62.5 4.5c0 5.523-4.477 10-10 10-5.523 0-10-4.477-10-10 0-5.523 4.477-10 10-10 5.523 0 10 4.477 10 10z" transform="matrix(11.52206 0 0 11.52209-336.19 225.69)" style="stroke:url(#7);stroke-width:.688"/></g><path d="m371.8 277.54c0 56.927-46.15 103.08-103.08 103.08-56.927 0-103.08-46.15-103.08-103.08 0-56.927 46.15-103.08 103.08-103.08 56.927 0 103.08 46.15 103.08 103.08" style="fill:url(#G);opacity:.161;stroke-width:10.505"/></g></g></svg>