<svg xmlns="http://www.w3.org/2000/svg" xmlns:xlink="http://www.w3.org/1999/xlink" viewBox="0 0 512 512"><defs><radialGradient cx="20.892" cy="64.57" r="5.257" id="3" gradientUnits="userSpaceOnUse"><stop style="stop-color:#f0f0f0"/><stop offset="1"/></radialGradient><radialGradient cx="20.892" cy="64.57" gradientTransform="matrix(0 3.76083-3.76083 0 422.93-385.62)" xlink:href="#3" id="2" r="5.257" gradientUnits="userSpaceOnUse"/><radialGradient cx="20.892" cy="64.57" gradientTransform="matrix(0 3.76083-3.76083 0 557.2-385.62)" xlink:href="#3" id="0" r="5.257" gradientUnits="userSpaceOnUse"/><radialGradient cx=".734" cy="18.17" gradientTransform="matrix(-3.44114 2.9923-3.44664-2.99708 235.95-97.37)" id="1" r="86.71" gradientUnits="userSpaceOnUse"><stop style="stop-color:#fff"/><stop offset="1" style="stop-color:#d5d5d5"/></radialGradient></defs><g transform="translate(0 464)"><path d="m320-297.51c-7.42 0-13.437-6.02-13.437-13.438 0-7.424 6.02-13.438 13.437-13.438 7.424 0 13.438 6.02 13.438 13.438 0 7.42-6.02 13.438-13.438 13.438" style="fill:url(#0)"/><path d="m185.73-297.51c-7.42 0-13.437-6.02-13.437-13.438 0-7.424 6.02-13.438 13.437-13.438 7.424 0 13.438 6.02 13.438 13.438 0 7.42-6.02 13.438-13.438 13.438" style="fill:url(#2)"/></g></svg>