<svg width="512" xmlns="http://www.w3.org/2000/svg" height="512" xmlns:xlink="http://www.w3.org/1999/xlink">
<defs>
<linearGradient id="linearGradient259">
<stop offset="0" stop-color="#fff"/>
<stop offset="1" stop-color="#d5d5d5"/>
</linearGradient>
<radialGradient cx="20.892" cy="64.568" gradientTransform="matrix(0 3.76083 -3.76083 0 557.19555 -385.62153)" xlink:href="#aigrd3" id="radialGradient3634" r="5.257" gradientUnits="userSpaceOnUse"/>
<radialGradient cx=".734" cy="18.167" gradientTransform="matrix(2.9923 3.44114 -2.99708 3.44664 -97.3719 -235.95462)" xlink:href="#linearGradient259" id="radialGradient3637" r="86.708" gradientUnits="userSpaceOnUse"/>
<radialGradient cx="20.892" cy="64.568" gradientTransform="matrix(0 3.76083 -3.76083 0 422.92635 -385.62153)" xlink:href="#aigrd3-7" id="radialGradient3631" r="5.257" gradientUnits="userSpaceOnUse"/>
<radialGradient cx="20.892" cy="64.568" r="5.257" id="aigrd3" gradientUnits="userSpaceOnUse">
<stop offset="0" stop-color="#f0f0f0"/>
<stop offset="1"/>
</radialGradient>
<radialGradient cx="20.892" cy="64.568" r="5.257" id="aigrd3-7" gradientUnits="userSpaceOnUse">
<stop offset="0" stop-color="#f0f0f0"/>
<stop offset="1"/>
</radialGradient>
</defs>
<g transform="translate(0 464)">
<path fill="url(#radialGradient3637)" display="block" stroke="#4d4d4d" stroke-linejoin="round" stroke-linecap="round" color="#000" stroke-width="16" d="m-345.701-460.538h275.4021a11.4869,11.4869 0 0,1 11.4869,11.486v386.1035a11.4869,11.4869 0 0,1 -11.4869,11.4869h-275.4021a11.4869,11.4869 0 0,1 -11.487-11.4869v-386.1035a11.4869,11.4869 0 0,1 11.487-11.486" transform="rotate(90)"/>
<path fill="url(#radialGradient3634)" d="m320-297.5128c-7.4201,0-13.4374-6.0173-13.4374-13.4375 0-7.4239 6.0173-13.4375 13.4374-13.4375 7.4239,0 13.4375,6.0173 13.4375,13.4375 0,7.4201-6.0173,13.4375-13.4375,13.4375z"/>
<path fill="url(#radialGradient3631)" d="m185.7308-297.5128c-7.4201,0-13.4374-6.0173-13.4374-13.4375 0-7.4239 6.0173-13.4375 13.4374-13.4375 7.4239,0 13.4375,6.0173 13.4375,13.4375 0,7.4201-6.0173,13.4375-13.4375,13.4375z"/>
</g>
</svg>
