<svg width="512" xmlns="http://www.w3.org/2000/svg" height="512" xmlns:xlink="http://www.w3.org/1999/xlink">
<defs>
<linearGradient id="linearGradient259">
<stop offset="0" stop-color="#fff"/>
<stop offset="1" stop-color="#d5d5d5"/>
</linearGradient>
<radialGradient cx="20.892" cy="64.568" gradientTransform="matrix(3.76083 0 0 3.76083 78.37846 -509.19553)" xlink:href="#aigrd3" id="radialGradient3654" r="5.257" gradientUnits="userSpaceOnUse"/>
<radialGradient cx=".734" cy="18.167" gradientTransform="matrix(2.9923 3.44114 -2.99708 3.44664 366.62809 -187.9546)" xlink:href="#linearGradient259" id="radialGradient3657" r="86.708" gradientUnits="userSpaceOnUse"/>
<radialGradient cx="20.892" cy="64.568" gradientTransform="matrix(3.76083 0 0 3.76083 78.37846 -374.92633)" xlink:href="#aigrd3-7" id="radialGradient3651" r="5.257" gradientUnits="userSpaceOnUse"/>
<radialGradient cx="20.892" cy="64.568" r="5.257" id="aigrd3" gradientUnits="userSpaceOnUse">
<stop offset="0" stop-color="#f0f0f0"/>
<stop offset="1"/>
</radialGradient>
<radialGradient cx="20.892" cy="64.568" r="5.257" id="aigrd3-7" gradientUnits="userSpaceOnUse">
<stop offset="0" stop-color="#f0f0f0"/>
<stop offset="1"/>
</radialGradient>
</defs>
<g transform="translate(0 464)">
<path fill="url(#radialGradient3657)" display="block" stroke="#4d4d4d" stroke-linejoin="round" stroke-linecap="round" color="#000" stroke-width="16" d="m118.299-412.538h275.402a11.4869,11.4869 0 0,1 11.487,11.486v386.1035a11.4869,11.4869 0 0,1 -11.487,11.4869h-275.402a11.4869,11.4869 0 0,1 -11.487-11.4869v-386.1035a11.4869,11.4869 0 0,1 11.487-11.486"/>
<path fill="url(#radialGradient3654)" d="m166.4872-272c0,7.4201-6.0173,13.4374-13.4375,13.4374-7.4239,0-13.4375-6.0173-13.4375-13.4374 0-7.4239 6.0173-13.4375 13.4375-13.4375 7.4201,0 13.4375,6.0173 13.4375,13.4375z"/>
<path fill="url(#radialGradient3651)" d="m166.4872-137.7308c0,7.4201-6.0173,13.4374-13.4375,13.4374-7.4239,0-13.4375-6.0173-13.4375-13.4374 0-7.4239 6.0173-13.4375 13.4375-13.4375 7.4201,0 13.4375,6.0173 13.4375,13.4375z"/>
</g>
</svg>
