<svg xmlns="http://www.w3.org/2000/svg" xmlns:xlink="http://www.w3.org/1999/xlink" viewBox="0 0 512 512"><defs><radialGradient cx="20.892" cy="64.57" r="5.257" id="3" gradientUnits="userSpaceOnUse"><stop style="stop-color:#f0f0f0"/><stop offset="1"/></radialGradient><radialGradient cx="156.95" cy="-132.1" xlink:href="#3" id="2" r="19.771" gradientUnits="userSpaceOnUse"/><radialGradient cx="156.95" cy="-266.37" xlink:href="#3" id="0" r="19.771" gradientUnits="userSpaceOnUse"/><radialGradient cx=".734" cy="18.17" gradientTransform="matrix(2.9923 3.44114-2.99708 3.44664 366.63-187.95)" id="1" r="86.71" gradientUnits="userSpaceOnUse"><stop style="stop-color:#fff"/><stop offset="1" style="stop-color:#d5d5d5"/></radialGradient></defs><g transform="translate(0 464)"><path d="m118.3-412.54h275.4a11.4869 11.4869 0 0 1 11.487 11.486v386.1a11.4869 11.4869 0 0 1 -11.487 11.4869h-275.4a11.4869 11.4869 0 0 1 -11.487 -11.4869v-386.1a11.4869 11.4869 0 0 1 11.487 -11.486" style="fill:url(#1);stroke:#4d4d4d;display:block;color:#000;stroke-linecap:round;stroke-linejoin:round;stroke-width:16"/><path d="m166.49-272c0 7.42-6.02 13.437-13.438 13.437-7.424 0-13.438-6.02-13.438-13.437 0-7.424 6.02-13.438 13.438-13.438 7.42 0 13.438 6.02 13.438 13.438" style="fill:url(#0)"/><path d="m166.49-137.73c0 7.42-6.02 13.437-13.438 13.437-7.424 0-13.438-6.02-13.438-13.437 0-7.424 6.02-13.438 13.438-13.438 7.42 0 13.438 6.02 13.438 13.438" style="fill:url(#2)"/></g></svg>