<svg xmlns="http://www.w3.org/2000/svg" viewBox="0 0 512 512"><defs><linearGradient y2="62.28" x2="9.705" y1="70.72" x1="9.732" gradientTransform="matrix(25.27828 0 0 4.501-.276-454.13)" gradientUnits="userSpaceOnUse" id="9"><stop style="stop-color:#666"/><stop offset="1" style="stop-color:#000;stop-opacity:0"/></linearGradient><linearGradient y2="54.14" x2="0" y1="64.65" gradientTransform="matrix(25.27828 0 0 4.501-.276-454.13)" gradientUnits="userSpaceOnUse" id="8"><stop style="stop-color:#f7f6f5"/><stop offset="1" style="stop-color:#f7f6f5;stop-opacity:0"/></linearGradient><linearGradient y2="19.337" x2="20.718" y1="25.14" x1="20.771" gradientTransform="matrix(12.82517 0 0 9.11847-3.501-454.13)" gradientUnits="userSpaceOnUse" id="A"><stop style="stop-color:#fff;stop-opacity:0"/><stop offset="1" style="stop-color:#f8f8f8"/></linearGradient><linearGradient y2="58.831" x2="15.488" y1="32.539" x1="15.388" gradientTransform="matrix(15.95039 0 0 7.13323-.276-454.13)" gradientUnits="userSpaceOnUse" id="C"><stop style="stop-color:#fff;stop-opacity:.124"/><stop offset=".103" style="stop-color:#fff"/><stop offset="1" style="stop-color:#fff;stop-opacity:0"/></linearGradient><linearGradient x2="18.972" x1="1.846" gradientTransform="matrix(24.56233 0 0 4.6322-.276-454.13)" gradientUnits="userSpaceOnUse" id="D"><stop style="stop-color:#dcdcda"/><stop offset="1" style="stop-color:#bab9b7"/></linearGradient><linearGradient y2="25.25" x2="24.79" y1="3.679" x1="25.06" gradientTransform="matrix(10.12213 0 0 11.53045-1.261-432.8)" gradientUnits="userSpaceOnUse" id="B"><stop style="stop-color:#e0e0e0"/><stop offset=".405" style="stop-color:#fff"/><stop offset=".534" style="stop-color:#cdcdcd"/><stop offset="1" style="stop-color:#494949"/></linearGradient><linearGradient y2="72.06" x2="9.913" y1="57.23" x1="9.87" gradientTransform="matrix(29.56894 0 0 3.84788 6.324-444.7)" gradientUnits="userSpaceOnUse" id="7"><stop style="stop-color:#000;stop-opacity:.237"/><stop offset="1" style="stop-color:#000;stop-opacity:0"/></linearGradient><linearGradient id="3" gradientUnits="userSpaceOnUse" gradientTransform="matrix(1.33459 0 0 1.29129-6.974-7.461)" x1="30.656" y1="34" x2="33.22" y2="31.06"><stop style="stop-color:#7d7d7d"/><stop offset=".5" style="stop-color:#b1b1b1"/><stop offset="1" style="stop-color:#686868"/></linearGradient><linearGradient id="4" gradientUnits="userSpaceOnUse" x1="27.366" y1="26.58" x2="31.34" y2="30.558"><stop style="stop-color:#8a8a8a"/><stop offset="1" style="stop-color:#484848"/></linearGradient><linearGradient x2="18.972" x1="1.846" gradientTransform="matrix(24.56233 0 0 4.6322-.276-466.13)" gradientUnits="userSpaceOnUse" id="E"><stop style="stop-color:#8e8d87"/><stop offset=".276" style="stop-color:#cbc9c1"/><stop offset="1" style="stop-color:#8e8d87"/></linearGradient><linearGradient gradientUnits="userSpaceOnUse" y2="25.893" x2="18.376" y1="10.768" x1="19.363" id="2"><stop style="stop-color:#fff"/><stop offset=".5" style="stop-color:#fff;stop-opacity:.219"/><stop offset="1" style="stop-color:#fff"/></linearGradient><radialGradient id="1" cx="19.288" cy="22.22" r="11.62" gradientUnits="userSpaceOnUse"><stop style="stop-color:#729fcf;stop-opacity:.208"/><stop offset="1" style="stop-color:#729fcf;stop-opacity:.676"/></radialGradient><radialGradient id="0" gradientUnits="userSpaceOnUse" gradientTransform="matrix(2.59296 0 0 2.2521-25.06-18.941)" cx="15.414" cy="13.08" r="6.656"><stop style="stop-color:#fff"/><stop offset="1" style="stop-color:#fff;stop-opacity:.248"/></radialGradient><radialGradient id="5" cx="24" cy="41.875" r="19.13" gradientTransform="matrix(1 0 0 .33333 0 27.917)" gradientUnits="userSpaceOnUse"><stop style="stop-color:#000"/><stop offset="1" style="stop-color:#000;stop-opacity:0"/></radialGradient><radialGradient r="2.123" cy="26.926" cx="9.13" gradientUnits="userSpaceOnUse" id="6"><stop style="stop-color:#fffffd"/><stop offset=".5" style="stop-color:#bbbbb9"/><stop offset="1" style="stop-color:#000"/></radialGradient></defs><g transform="translate(0 464)"><path d="m43.125 41.875a19.125 6.375 0 1 1 -38.25 0 19.125 6.375 0 1 1 38.25 0" transform="matrix(10.66666 0 0 10.66666-3.603-496.87)" style="fill:url(#5);color:#000"/><g style="stroke-width:10.667"><rect rx="18.257" y="-91.47" x="50.39" height="68.67" width="410" style="fill:url(#E);stroke:#595959"/><path d="m75.2-246.13h361.6c4.127 0 9.399 3.074 12.651 7.722 3.252 4.648 18.61 27.84 22.06 32.79 3.45 4.95 4.211 9.641 4.211 15.745v128.82c0 9.745-7.845 17.59-17.59 17.59h-404.27c-9.745 0-17.59-7.845-17.59-17.59v-128.82c0-5.27 1.084-12.826 4.784-17.636 4.669-6.069 17.194-27.18 20.498-31.654 3.304-4.476 9.37-6.967 13.641-6.967z" style="fill:url(#D);stroke:#676767;color:#000"/></g><path d="m78.92-241.06c-5.362 0-12.258 1.406-15.08 5.714l-19.799 30.17c-3.187 4.857.362 16.304 9.953 16.304h401.53c12.973 0 13.01-10.774 9.953-15.361l-18.856-28.28c-3.419-5.129-4.66-8.542-13.199-8.542h-354.5" style="fill:#fbfbfb;fill-rule:evenodd"/><g style="color:#000"><path d="m80.12-236.04h350.81c3.908 0 8.901 2.911 11.98 7.312 3.079 4.402 13.852 21.65 17.12 26.337 3.267 4.687 4.655 9.13 4.655 14.91v120.33c0 9.228-1.429 13.324-10.657 13.324h-396.06c-9.228 0-11.324-4.096-11.324-13.324v-120.33c0-4.99 2.36-12.145 5.864-16.7 4.421-5.748 11.568-21.02 14.697-25.26 3.129-4.239 8.873-6.597 12.917-6.597z" style="fill:none;stroke:url(#C);stroke-width:10.1"/><g style="display:block;stroke-linecap:round;stroke-width:10.667"><path d="m123.14-428.46h263.86c6.965 0 12.573 5.466 12.573 12.257v200.43h-289v-200.43c0-6.79 5.607-12.257 12.573-12.257z" style="fill:url(#B);stroke:#898989"/><rect width="267.47" height="201.23" x="121.05" y="-417.12" rx="1.886" style="fill:none;stroke:url(#A);stroke-linejoin:round"/></g></g><rect rx="18.257" y="-183.46" x="73.06" height="55.33" width="360" style="fill:url(#8);stroke:url(#9);stroke-width:10.667"/><path transform="matrix(10.66666 0 0 10.66666-.276-454.13)" d="m10.871767 27.626486a1.281631 1.281631 0 1 1 -2.563262 0 1.281631 1.281631 0 1 1 2.563262 0" style="fill:url(#6)"/><path d="m124.99-204.36l272.67.667c7.333.018 10.537-3.957 10-10.667l-1.333-16.667h19.905c8.667 0 10.562 2.054 12.667 6l5.333 10c5.619 10.536 19.319 21.06 5.314 21.06-48.03 0-300.55-3.724-324.55-10.391" style="fill:url(#7);opacity:.366;fill-rule:evenodd"/><path d="m457.72-190.13h-406.67" style="fill:none;stroke:#fff;stroke-linecap:round;stroke-linejoin:round;stroke-width:10.667"/><g transform="matrix(10.66666 0 0 10.66666-.276-454.13)" style="opacity:.436;fill-opacity:.292;color:#000"><path d="m14 5h19v1h-19z"/><path d="m14 7h19v1h-19z"/><path d="m14 9h19v1h-19z"/><path d="m14 11h19v1h-19z"/><path d="m14 13h11v1h-11z"/><path d="m14 17h19v1h-19z"/><path d="m14 19h19v1h-19z"/></g><g transform="matrix(7.63389 0 0 7.63389 43.22-425.18)" style="color:#000"><g style="fill-rule:evenodd"><g style="fill:#dcdcdc"><path d="m18.628 3.144c-8.139 0-14.745 6.606-14.745 14.745 0 8.139 6.606 14.745 14.745 14.745 3.48 0 6.551-1.384 9.07-3.403-.205 1.01-.078 2.035.756 2.76l10.964 9.527c1.233 1.071 3.087.931 4.159-.302 1.071-1.233.931-3.087-.302-4.159l-10.964-9.527c-.672-.583-1.493-.756-2.306-.643 1.987-2.512 3.365-5.549 3.365-8.998 0-8.139-6.606-14.745-14.745-14.745zm-.076 1.226c7.639 0 13.292 4.789 13.292 13.292 0 8.675-5.817 13.292-13.292 13.292-7.303 0-13.292-5.478-13.292-13.292 0-7.984 5.825-13.292 13.292-13.292z" style="stroke-miterlimit:10;stroke:url(#4);stroke-linecap:round;stroke-width:2.795"/><path d="m18.603 3.08c-8.165 0-14.792 6.627-14.792 14.792 0 8.165 6.627 14.792 14.792 14.792 3.491 0 6.572-1.389 9.103-3.414-.206 1.01-.078 2.042.759 2.769l11 9.558c1.237 1.075 3.097.934 4.172-.303 1.075-1.237.934-3.097-.303-4.172l-11-9.558c-.674-.585-1.498-.758-2.314-.645 1.993-2.521 3.376-5.567 3.376-9.03 0-8.165-6.627-14.792-14.792-14.792m-.076 3.186c6.281 0 11.379 5.098 11.379 11.379 0 6.281-5.098 11.379-11.379 11.379-6.281 0-11.379-5.098-11.379-11.379 0-6.281 5.098-11.379 11.379-11.379"/></g><path d="m39.507 41.578c-.479-2.273 1.397-4.811 3.584-4.788 0 0-10.76-9.258-10.76-9.258-2.945-.057-4.27 2.273-3.777 4.6l10.953 9.447" style="fill:url(#3)"/></g><g style="stroke-miterlimit:10;stroke-linecap:round"><g style="fill:none"><path d="m32.14 17.393c0 7.601-6.162 13.764-13.764 13.764-7.601 0-13.764-6.162-13.764-13.764 0-7.601 6.162-13.764 13.764-13.764 7.601 0 13.764 6.162 13.764 13.764z" style="stroke:url(#2);stroke-width:1.398"/><rect width="19.05" height="4.44" x="40.37" y=".141" rx="2.986" ry="2.22" transform="matrix(.75299.65804-.6489.76087 0 0)" style="opacity:.433;stroke:#fff;stroke-width:1.397"/></g><path d="m29.997 17.545c0 6.418-5.203 11.62-11.62 11.62-6.418 0-11.62-5.203-11.62-11.62 0-6.418 5.203-11.62 11.62-11.62 6.418 0 11.62 5.203 11.62 11.62z" style="fill:url(#1);stroke:#3063a3;fill-rule:evenodd;stroke-width:1.397"/></g><path d="m18.16 7.397c-5.208 0-9.425 4.217-9.425 9.425 0 1.504.42 2.888 1.047 4.15 1.252.462 2.583.776 3.995.776 6.171 0 11.1-4.862 11.48-10.937-1.731-2.046-4.21-3.413-7.097-3.413" style="fill:url(#0);opacity:.834;fill-rule:evenodd"/></g></g></svg>
