<svg xmlns="http://www.w3.org/2000/svg" viewBox="0 0 512 512" xmlns:xlink="http://www.w3.org/1999/xlink">
<defs>
<linearGradient gradientTransform="matrix(29.56894 0 0 3.84788 6.32367 -444.7034)" id="linearGradient1447" xlink:href="#linearGradient4733" y1="57.228" y2="72.064" x1="9.87" x2="9.913" gradientUnits="userSpaceOnUse"/>
<linearGradient id="linearGradient4688">
<stop offset="0" stop-color="#666"/>
<stop offset="1" stop-color="#000" stop-opacity="0"/>
</linearGradient>
<linearGradient id="linearGradient15662">
<stop offset="0" stop-color="#fff" stop-opacity="0"/>
<stop offset="1" stop-color="#f8f8f8"/>
</linearGradient>
<linearGradient id="linearGradient4668">
<stop offset="0" stop-color="#8e8d87"/>
<stop offset=".276" stop-color="#cbc9c1"/>
<stop offset="1" stop-color="#8e8d87"/>
</linearGradient>
<linearGradient id="linearGradient259">
<stop offset="0" stop-color="#e0e0e0"/>
<stop offset=".405" stop-color="#fff"/>
<stop offset=".534" stop-color="#cdcdcd"/>
<stop offset="1" stop-color="#494949"/>
</linearGradient>
<linearGradient gradientTransform="matrix(25.27828 0 0 4.501 -.27598 -454.13145)" id="linearGradient1451" xlink:href="#linearGradient4680" y1="64.652" y2="54.136" x2="0" gradientUnits="userSpaceOnUse"/>
<linearGradient gradientTransform="matrix(24.56233 0 0 4.6322 -.27598 -454.13145)" id="linearGradient1468" xlink:href="#linearGradient4741" x1="1.846" x2="18.972" gradientUnits="userSpaceOnUse"/>
<linearGradient gradientTransform="matrix(25.27828 0 0 4.501 -.27598 -454.13145)" id="linearGradient1453" xlink:href="#linearGradient4688" y1="70.725" y2="62.282" x1="9.732" x2="9.705" gradientUnits="userSpaceOnUse"/>
<linearGradient gradientTransform="matrix(15.95039 0 0 7.13323 -.27598 -454.13145)" id="linearGradient1464" xlink:href="#linearGradient4762" y1="32.539" y2="58.831" x1="15.388" x2="15.488" gradientUnits="userSpaceOnUse"/>
<linearGradient gradientTransform="matrix(12.82517 0 0 9.11847 -3.50136 -454.13145)" id="linearGradient1456" xlink:href="#linearGradient15662" y1="25.14" y2="19.337" x1="20.771" x2="20.718" gradientUnits="userSpaceOnUse"/>
<linearGradient gradientTransform="matrix(10.12213 0 0 11.53045 -1.26111 -432.79813)" id="linearGradient1459" xlink:href="#linearGradient259" y1="3.679" y2="25.247" x1="25.057" x2="24.79" gradientUnits="userSpaceOnUse"/>
<linearGradient id="linearGradient4680">
<stop offset="0" stop-color="#f7f6f5"/>
<stop offset="1" stop-color="#f7f6f5" stop-opacity="0"/>
</linearGradient>
<linearGradient id="linearGradient4733">
<stop offset="0" stop-color="#000" stop-opacity=".237"/>
<stop offset="1" stop-color="#000" stop-opacity="0"/>
</linearGradient>
<linearGradient id="linearGradient2846">
<stop offset="0" stop-color="#8a8a8a"/>
<stop offset="1" stop-color="#484848"/>
</linearGradient>
<linearGradient id="linearGradient4440">
<stop offset="0" stop-color="#7d7d7d"/>
<stop offset=".5" stop-color="#b1b1b1"/>
<stop offset="1" stop-color="#686868"/>
</linearGradient>
<linearGradient id="linearGradient2366">
<stop offset="0" stop-color="#fff"/>
<stop offset=".5" stop-color="#fff" stop-opacity=".219"/>
<stop offset="1" stop-color="#fff"/>
</linearGradient>
<linearGradient gradientTransform="matrix(24.56233 0 0 4.6322 -.27598 -466.13144)" id="linearGradient1471" xlink:href="#linearGradient4668" x1="1.846" x2="18.972" gradientUnits="userSpaceOnUse"/>
<linearGradient id="linearGradient2372" xlink:href="#linearGradient2366" y1="13.602" y2="25.743" x1="18.293" gradientUnits="userSpaceOnUse" x2="17.501"/>
<linearGradient gradientTransform="matrix(1.33459 0 0 1.29129 -6.97384 -7.46066)" xlink:href="#linearGradient4440" id="linearGradient1883" y1="34" x1="30.656" y2="31.062" gradientUnits="userSpaceOnUse" x2="33.219"/>
<linearGradient id="linearGradient4741">
<stop offset="0" stop-color="#dcdcda"/>
<stop offset="1" stop-color="#bab9b7"/>
</linearGradient>
<linearGradient id="linearGradient4762">
<stop offset="0" stop-color="#fff" stop-opacity=".124"/>
<stop offset=".103" stop-color="#fff"/>
<stop offset="1" stop-color="#fff" stop-opacity="0"/>
</linearGradient>
<linearGradient xlink:href="#linearGradient2846" id="linearGradient1887" y1="26.58" x1="27.366" y2="30.558" gradientUnits="userSpaceOnUse" x2="31.336"/>
<radialGradient cx="18.241" cy="21.818" id="radialGradient4460" r="8.309" gradientUnits="userSpaceOnUse">
<stop offset="0" stop-color="#729fcf" stop-opacity=".208"/>
<stop offset="1" stop-color="#729fcf" stop-opacity=".676"/>
</radialGradient>
<radialGradient cx="15.414" cy="13.078" gradientTransform="matrix(2.59296 0 0 2.2521 -25.0597 -18.941)" id="radialGradient1876" r="6.656" gradientUnits="userSpaceOnUse">
<stop offset="0" stop-color="#fff"/>
<stop offset="1" stop-color="#fff" stop-opacity=".248"/>
</radialGradient>
<radialGradient cx="24" cy="41.875" gradientTransform="matrix(1 0 0 .33333 0 27.9167)" id="radialGradient7618" r="19.125" gradientUnits="userSpaceOnUse">
<stop offset="0" stop-color="#000"/>
<stop offset="1" stop-color="#000" stop-opacity="0"/>
</radialGradient>
<radialGradient cx="9.13" cy="26.926" r="2.123" id="radialGradient1433" gradientUnits="userSpaceOnUse">
<stop offset="0" stop-color="#fffffd"/>
<stop offset=".5" stop-color="#bbbbb9"/>
<stop offset="1" stop-color="#000"/>
</radialGradient>
</defs>
<g transform="translate(0 464)">
<path fill="url(#radialGradient7618)" color="#000" d="m43.125,41.875a19.125,6.375 0 1,1 -38.25,0 19.125,6.375 0 1,1 38.25,0z" transform="matrix(10.66666 0 0 10.66666 -3.60312 -496.86987)"/>
<g stroke-width="10.667">
<path fill="url(#linearGradient1471)" stroke="#595959" d="m68.6471-91.465h373.4869a18.2565,18.2565 0 0,1 18.256,18.2565v32.1536a18.2565,18.2565 0 0,1 -18.256,18.2565h-373.4869a18.2565,18.2565 0 0,1 -18.2565-18.2565v-32.1536a18.2565,18.2565 0 0,1 18.2565-18.2565"/>
<path fill="url(#linearGradient1468)" stroke="#676767" color="#000" d="m75.1994-246.1316 361.6011,0c4.1267,0 9.3995,3.0737 12.6511,7.7218 3.2517,4.6482 18.6104,27.8402 22.0606,32.7898 3.4502,4.9496 4.2114,9.6415 4.2114,15.7449v128.8202c0,9.7448-7.8451,17.5898-17.5899,17.5898h-404.2677c-9.7448,0-17.5898-7.8451-17.5898-17.5898v-128.8202c0-5.2695 1.0842-12.8257 4.7843-17.6355 4.669-6.0694 17.1944-27.1781 20.4981-31.6544 3.3037-4.4763 9.3704-6.9666 13.6407-6.9666z"/>
</g>
<path fill="#fbfbfb" fill-rule="evenodd" d="m78.9199-241.0592c-5.3624,0-12.2575,1.4056-15.0849,5.714l-19.799,30.1699c-3.1872,4.8567 .3621,16.3039 9.9526,16.3039h401.5301c12.9728,0 13.0106-10.774 9.9526-15.3611l-18.8562-28.2843c-3.419-5.1285-4.66-8.5425-13.1993-8.5425h-354.496z"/>
<g color="#000">
<path fill="none" stroke="url(#linearGradient1464)" stroke-width="10.101" d="m80.1238-236.0435 350.8096,0c3.9078,0 8.901,2.9107 11.9802,7.3123 3.0792,4.4016 13.8522,21.6497 17.1195,26.3368 3.2673,4.6871 4.6547,9.1302 4.6547,14.9099v120.3316c0,9.228-1.429,13.3237-10.657,13.3237h-396.0616c-9.228,0-11.3237-4.0957-11.3237-13.3237v-120.3316c0-4.9901 2.3601-12.1455 5.8639-16.7003 4.4214-5.7475 11.5685-21.0227 14.697-25.2616 3.1285-4.2389 8.8735-6.5971 12.9173-6.5971z"/>
<g stroke-width="10.667">
<g display="block" stroke-linecap="round">
<path fill="url(#linearGradient1459)" stroke="#898989" d="m123.1401-428.4631 263.8571,0c6.9653,0 12.5727,5.4664 12.5727,12.2565v200.4312h-289.0025v-200.4312c0-6.7901 5.6074-12.2565 12.5727-12.2565z"/>
<path fill="none" stroke="url(#linearGradient1456)" stroke-linejoin="round" d="m122.933-417.118h263.699a1.8856,1.8856 0 0,1 1.886,1.885v197.454a1.8856,1.8856 0 0,1 -1.886,1.886h-263.699a1.8856,1.8856 0 0,1 -1.886-1.886v-197.454a1.8856,1.8856 0 0,1 1.886-1.885"/>
</g>
<path fill="url(#linearGradient1451)" stroke="url(#linearGradient1453)" d="m91.3138-183.465h323.4872a18.2565,18.2565 0 0,1 18.256,18.257v18.82a18.2565,18.2565 0 0,1 -18.256,18.256h-323.4872a18.2565,18.2565 0 0,1 -18.2565-18.256v-18.82a18.2565,18.2565 0 0,1 18.2565-18.257"/>
</g>
</g>
<path fill="url(#radialGradient1433)" d="m10.8718,27.6265a1.2816,1.2816 0 1,1 -2.5633,0 1.2816,1.2816 0 1,1 2.5633,0z" transform="matrix(10.66666 0 0 10.66666 -.27598 -454.13145)"/>
<path opacity=".366" fill="url(#linearGradient1447)" fill-rule="evenodd" d="m124.9903-204.3604 272.6665,.6667c7.3333,.0181 10.5367-3.9573 10-10.6667l-1.3333-16.6667h19.9052c8.6667,0 10.5621,2.054 12.6667,6l5.3333,10c5.6191,10.5359 19.3192,21.0572 5.3137,21.0572-48.0289,0-300.5521-3.7239-324.5521-10.3905z"/>
<path fill="none" stroke="#fff" stroke-linejoin="round" stroke-linecap="round" stroke-width="10.667" d="m457.7237-190.1316-406.6664,0"/>
<g opacity=".436" fill-opacity=".292" color="#000" transform="matrix(10.66666 0 0 10.66666 -.27598 -454.13145)">
<path d="m14,5h19v1h-19z"/>
<path d="m14,7h19v1h-19z"/>
<path d="m14,9h19v1h-19z"/>
<path d="m14,11h19v1h-19z"/>
<path d="m14,13h11v1h-11z"/>
<path d="m14,17h19v1h-19z"/>
<path d="m14,19h19v1h-19z"/>
</g>
</g>
<g color="#000" transform="matrix(7.63389 0 0 7.63389 43.21764 38.81669)">
<g fill-rule="evenodd">
<g fill="#dcdcdc">
<path stroke="url(#linearGradient1887)" stroke-linecap="round" stroke-width="2.795" d="m18.6276,3.1436c-8.1391,0-14.7448,6.6057-14.7448,14.7448 0,8.1391 6.6057,14.7448 14.7448,14.7448 3.4796,0 6.551-1.3844 9.0737-3.4026-.2054,1.0069-.078,2.0354 .7561,2.7599l10.9641,9.5274c1.2334,1.0713 3.0875,.931 4.1588-.3025 1.0713-1.2334 .931-3.0875-.3025-4.1588l-10.9641-9.5274c-.6715-.5833-1.4929-.756-2.3062-.6427 1.9867-2.5124 3.3648-5.5488 3.3648-8.9981 0-8.1391-6.6057-14.7448-14.7448-14.7448zm-.0756,1.2262c7.6395,0 13.2918,4.789 13.2918,13.2918 0,8.6751-5.8167,13.2918-13.2918,13.2918-7.3029,0-13.2918-5.4781-13.2918-13.2918 0-7.9841 5.8246-13.2918 13.2918-13.2918z" stroke-miterlimit="10"/>
<path d="m18.6029,3.0804c-8.1654,0-14.7925,6.627-14.7925,14.7925 0,8.1654 6.627,14.7925 14.7925,14.7925 3.4908,0 6.5722-1.3889 9.1031-3.4136-.206,1.0101-.0783,2.0419 .7586,2.7688l10.9995,9.5582c1.2374,1.0748 3.0974,.934 4.1722-.3034 1.0748-1.2374 .934-3.0974-.3034-4.1722l-10.9995-9.5582c-.6737-.5852-1.4977-.7584-2.3137-.6448 1.9931-2.5205 3.3757-5.5667 3.3757-9.0272 0-8.1654-6.627-14.7925-14.7925-14.7925zm-.0759,3.1861c6.2811,0 11.3788,5.0977 11.3788,11.3788 0,6.2811-5.0977,11.3788-11.3788,11.3788-6.2811,0-11.3788-5.0977-11.3788-11.3788 0-6.2811 5.0977-11.3788 11.3788-11.3788z"/>
</g>
<path fill="url(#linearGradient1883)" d="m39.507,41.5777c-.4787-2.2732 1.3973-4.8114 3.5841-4.7884 0,0-10.7604-9.2581-10.7604-9.2581-2.9448-.0567-4.2695,2.2726-3.7768,4.5999l10.9531,9.4466z"/>
</g>
<g fill="none" stroke-linecap="round" stroke-miterlimit="10">
<path stroke="url(#linearGradient2372)" stroke-width="1.122" d="m28.5494,18.9202c0,6.1019-4.9466,11.0485-11.0485,11.0485-6.1019,0-11.0485-4.9466-11.0485-11.0485 0-6.1019 4.9466-11.0485 11.0485-11.0485 6.1019,0 11.0485,4.9466 11.0485,11.0485z" transform="matrix(1.24574 0 0 1.24574 -3.42535 -6.17703)"/>
<path opacity=".433" stroke="#fff" stroke-width="1.397" d="m43.3589,.1409h13.0774a2.9855,2.2202 0 0,1 2.9855,2.2202v.0001a2.9855,2.2202 0 0,1 -2.9855,2.2202h-13.0774a2.9855,2.2202 0 0,1 -2.9856-2.2202v-.0001a2.9855,2.2202 0 0,1 2.9856-2.2202" transform="matrix(.75299 .65804 -.6489 .76087 0 0)"/>
</g>
<g fill-rule="evenodd">
<path fill="url(#radialGradient4460)" stroke="#3063a3" stroke-linecap="round" stroke-width=".999" d="m25.8978,18.4783c0,4.5887-3.7198,8.3085-8.3085,8.3085-4.5887,0-8.3085-3.7198-8.3085-8.3085 0-4.5887 3.7198-8.3085 8.3085-8.3085 4.5887,0 8.3085,3.7198 8.3085,8.3085z" transform="matrix(1.39861 0 0 1.39861 -6.22434 -8.29896)" stroke-miterlimit="10"/>
<path opacity=".834" fill="url(#radialGradient1876)" d="m18.1569,7.3967c-5.2076,0-9.4245,4.217-9.4245,9.4245 0,1.504 .4203,2.8878 1.0472,4.1499 1.2524,.4616 2.5828,.7757 3.9948,.7757 6.171,0 11.0993-4.8616 11.4801-10.9371-1.731-2.0455-4.21-3.413-7.0975-3.413z"/>
</g>
</g>
</svg>
