<svg width="512" xmlns="http://www.w3.org/2000/svg" height="512" xmlns:xlink="http://www.w3.org/1999/xlink">
<defs>
<linearGradient id="linearGradient259-7">
<stop offset="0" stop-color="#fff"/>
<stop offset="1" stop-color="#d5d5d5"/>
</linearGradient>
<linearGradient id="linearGradient259">
<stop offset="0" stop-color="#fff"/>
<stop offset="1" stop-color="#d5d5d5"/>
</linearGradient>
<radialGradient cx=".734" cy="18.167" gradientTransform="matrix(3.32155 3.32155 -3.32685 3.32685 396.90464 -183.22148)" xlink:href="#linearGradient259-7" id="radialGradient3666" r="86.708" gradientUnits="userSpaceOnUse"/>
<radialGradient cx=".734" cy="18.167" gradientTransform="matrix(3.32155 3.32155 -3.32685 3.32685 357.01635 -189.27277)" xlink:href="#linearGradient259" id="radialGradient3668" r="86.708" gradientUnits="userSpaceOnUse"/>
<radialGradient cx="20.892" cy="64.568" gradientTransform="matrix(3.63013 0 0 3.63013 41.16665 -369.74645)" r="5.257" id="radialGradient3678" xlink:href="#aigrd3-7" gradientUnits="userSpaceOnUse"/>
<radialGradient cx="20.892" cy="64.568" gradientTransform="matrix(3.63013 0 0 3.63013 41.16664 -499.34923)" xlink:href="#aigrd3" id="radialGradient3647" r="5.257" gradientUnits="userSpaceOnUse"/>
<radialGradient cx="20.892" cy="64.568" r="5.257" id="aigrd3" gradientUnits="userSpaceOnUse">
<stop offset="0" stop-color="#f0f0f0"/>
<stop offset="1"/>
</radialGradient>
<radialGradient cx="20.892" cy="64.568" r="5.257" id="aigrd3-7" gradientUnits="userSpaceOnUse">
<stop offset="0" stop-color="#f0f0f0"/>
<stop offset="1"/>
</radialGradient>
</defs>
<g transform="translate(0 464)">
<path fill="url(#radialGradient3668)" display="block" stroke="#4d4d4d" stroke-linejoin="round" stroke-linecap="round" color="#000" stroke-width="16" d="m79.6997-406.0513 294.6315,0c6.1426,0 11.0877,4.9451 11.0877,11.0877l-305.7191,383.772c-6.1426,0-11.0877-4.9451-11.0877-11.0877v-372.6843c0-6.1426 4.9451-11.0877 11.0877-11.0877z"/>
<path fill="url(#radialGradient3647)" d="m126.2132-270.3972c0,7.1622-5.8082,12.9704-12.9704,12.9704-7.1659,0-12.9704-5.8082-12.9704-12.9704 0-7.1659 5.8082-12.9704 12.9704-12.9704 7.1622,0 12.9704,5.8082 12.9704,12.9705z"/>
<path fill="url(#radialGradient3678)" d="m126.2132-140.7944c0,7.1622-5.8082,12.9704-12.9704,12.9704-7.1659,0-12.9704-5.8082-12.9704-12.9704 0-7.1659 5.8082-12.9704 12.9704-12.9704 7.1622,0 12.9704,5.8082 12.9704,12.9704z"/>
<path stroke-dasharray="96,96" fill="url(#radialGradient3666)" display="block" stroke="#4d4d4d" stroke-linejoin="round" stroke-linecap="round" color="#000" stroke-width="16" d="m428.6197-400c6.1426,0 11.0877,4.9451 11.0877,11.0877v372.6843c0,6.1426-4.9451,11.0877-11.0877,11.0877h-309.0318l309.0318-394.8597z" stroke-dashoffset="67.2"/>
</g>
</svg>
