<svg xmlns="http://www.w3.org/2000/svg" xmlns:xlink="http://www.w3.org/1999/xlink" viewBox="0 0 512 512"><defs><linearGradient id="0"><stop style="stop-color:#fff"/><stop offset="1" style="stop-color:#d5d5d5"/></linearGradient><radialGradient cx="117.01" cy="-264.96" xlink:href="#5" id="4" r="19.08" gradientUnits="userSpaceOnUse"/><radialGradient cx="20.892" cy="64.57" r="5.257" id="5" gradientUnits="userSpaceOnUse"><stop style="stop-color:#f0f0f0"/><stop offset="1"/></radialGradient><radialGradient cx="117.01" cy="-135.36" r="19.08" id="3" xlink:href="#5" gradientUnits="userSpaceOnUse"/><radialGradient cx=".734" cy="18.17" gradientTransform="matrix(3.32155 3.32155-3.32685 3.32685 396.9-183.22)" xlink:href="#0" id="1" r="86.71" gradientUnits="userSpaceOnUse"/><radialGradient cx=".734" cy="18.17" gradientTransform="matrix(3.32155 3.32155-3.32685 3.32685 357.02-189.27)" xlink:href="#0" id="2" r="86.71" gradientUnits="userSpaceOnUse"/></defs><g transform="translate(0 464)"><path d="m79.7-406.05h294.63c6.143 0 11.09 4.945 11.09 11.09l-305.72 383.77c-6.143 0-11.09-4.945-11.09-11.09v-372.68c0-6.143 4.945-11.09 11.09-11.09z" style="fill:url(#2);stroke:#4d4d4d;display:block;color:#000;stroke-linecap:round;stroke-linejoin:round;stroke-width:16"/><path d="m126.21-270.4c0 7.162-5.808 12.97-12.97 12.97-7.166 0-12.97-5.808-12.97-12.97 0-7.166 5.808-12.97 12.97-12.97 7.162 0 12.97 5.808 12.97 12.971" style="fill:url(#4)"/><path d="m126.21-140.79c0 7.162-5.808 12.97-12.97 12.97-7.166 0-12.97-5.808-12.97-12.97 0-7.166 5.808-12.97 12.97-12.97 7.162 0 12.97 5.808 12.97 12.97" style="fill:url(#3)"/><path d="m428.62-400c6.143 0 11.09 4.945 11.09 11.09v372.68c0 6.143-4.945 11.09-11.09 11.09h-309.03l309.03-394.86z" style="stroke-dasharray:96 96;fill:url(#1);stroke:#4d4d4d;display:block;color:#000;stroke-linecap:round;stroke-linejoin:round;stroke-width:16;stroke-dashoffset:67.2"/></g></svg>