<?xml version="1.0" encoding="UTF-8" standalone="no"?>
<!-- 2013-09-24 20:39:19 Generated by QCAD SVG Exporter -->

<svg
   xmlns:dc="http://purl.org/dc/elements/1.1/"
   xmlns:cc="http://creativecommons.org/ns#"
   xmlns:rdf="http://www.w3.org/1999/02/22-rdf-syntax-ns#"
   xmlns:svg="http://www.w3.org/2000/svg"
   xmlns="http://www.w3.org/2000/svg"
   xmlns:sodipodi="http://sodipodi.sourceforge.net/DTD/sodipodi-0.dtd"
   xmlns:inkscape="http://www.inkscape.org/namespaces/inkscape"
   width="64"
   height="64"
   viewBox="9.875 -30.125 18.062223 18.062223"
   version="1.1"
   style="fill:none;stroke-linecap:round;stroke-linejoin:round"
   id="svg2"
   inkscape:version="0.48.2 r9819"
   sodipodi:docname="mouse.svg">
  <metadata
     id="metadata18">
    <rdf:RDF>
      <cc:Work
         rdf:about="">
        <dc:format>image/svg+xml</dc:format>
        <dc:type
           rdf:resource="http://purl.org/dc/dcmitype/StillImage" />
      </cc:Work>
    </rdf:RDF>
  </metadata>
  <defs
     id="defs16" />
  <sodipodi:namedview
     pagecolor="#ffffff"
     bordercolor="#666666"
     borderopacity="1"
     objecttolerance="10"
     gridtolerance="10"
     guidetolerance="10"
     inkscape:pageopacity="0"
     inkscape:pageshadow="2"
     inkscape:window-width="1739"
     inkscape:window-height="1112"
     id="namedview14"
     showgrid="false"
     inkscape:zoom="9.3607864"
     inkscape:cx="19.621013"
     inkscape:cy="39.046805"
     inkscape:window-x="0"
     inkscape:window-y="0"
     inkscape:window-maximized="0"
     inkscape:current-layer="svg2" />
  <path
     inkscape:connector-curvature="0"
     id="path6"
     style="fill:#ffffff;stroke:#000000;stroke-width:0.90311116;stroke-miterlimit:4;stroke-dasharray:none"
     d="m 20.906112,-23.093888 0,-6 c 1.047198,0 2.087947,0.431092 2.828426,1.171573 0.740482,0.74048 1.171574,1.781229 1.171574,2.828427 l 0,2 z"
     sodipodi:nodetypes="ccsccc" />
  <path
     inkscape:connector-curvature="0"
     id="path8"
     style="fill:#ff0000;stroke:#000000;stroke-width:0.90311116;stroke-miterlimit:4;stroke-dasharray:none"
     d="m 12.906112,-23.093888 4,0 0,-6 c -1.047199,0 -2.087947,0.431092 -2.828428,1.171573 -0.740481,0.74048 -1.171572,1.781229 -1.171572,2.828427 z"
     sodipodi:nodetypes="cccscc" />
  <path
     inkscape:connector-curvature="0"
     id="path10"
     style="fill:#ffffff;stroke:#000000;stroke-width:0.90311116;stroke-miterlimit:4;stroke-dasharray:none"
     d="m 16.906112,-29.093888 4,0 0,6 -4,0 z"
     sodipodi:nodetypes="ccccc" />
  <path
     inkscape:connector-curvature="0"
     id="path12"
     style="fill:#ffffff;stroke:#000000;stroke-width:0.90311116;stroke-miterlimit:4;stroke-dasharray:none"
     d="m 24.906112,-17.093888 c 0,1.047198 -0.431092,2.087946 -1.171574,2.828427 -0.740479,0.74048 -1.781228,1.171572 -2.828426,1.171572 l -4,0 c -1.047199,0 -2.087947,-0.431092 -2.828428,-1.171572 -0.740481,-0.740481 -1.171572,-1.781229 -1.171572,-2.828427 l 0,-6 12,0 z"
     sodipodi:nodetypes="csccscccc" />
</svg>
