<svg width="512" xmlns="http://www.w3.org/2000/svg" height="512">
<defs/>
<g transform="translate(0 464)">
<path fill="none" stroke="#00f" stroke-linecap="round" stroke-width="8" d="m328.3006-8 127.6994-319.2484m-239.4363-79.8121 111.7369,399.0605m-271.3611-399.0605h159.6242m-159.6242,399.0605l0-399.0605"/>
<g fill="#f00">
<path d="m16.5,4.5a1,1 0 1,1 -2,0 1,1 0 1,1 2,0z" transform="matrix(-32 0 0 -32 552 -264)"/>
<path d="m16.5,4.5a1,1 0 1,1 -2,0 1,1 0 1,1 2,0z" transform="matrix(-32 0 0 -32 712 -264)"/>
<path d="m16.5,4.5a1,1 0 1,1 -2,0 1,1 0 1,1 2,0z" transform="matrix(-32 0 0 -32 824 136)"/>
</g>
<path fill="none" stroke="#000" stroke-linecap="round" stroke-width="16" d="m436.909-282.1426 19.091-45.1058m-37.1156,82.5257 18.0246-37.4199m-35.0515,67.6557 17.0269-30.2358m-33.125,53.7864 16.0981-23.5505m-31.3322,40.9187 15.2341-17.3681m-29.6751,29.0516 14.441-11.6835m-28.1557,18.1852 13.7147-6.5017m-26.77,8.3204 13.0553-1.8187m-25.5189-.5437 12.4637,2.3624m-24.4055-8.4062 11.9419,6.0438m-23.4278-15.2681 11.486,9.2243m-22.5848-21.1293 11.0989,11.905m-21.8775-25.9898 10.7786,14.0848m-21.3058-29.8477 10.5272,15.7629m-20.8699-32.705 10.3426,16.9421m-20.5696-34.5626 10.2269,17.6205m-20.405-35.4186 10.178,17.7981m-20.375-35.2729 10.197,17.4749m-20.4818-34.1267 10.2848,16.6518m-20.7222-31.9847 10.4374,15.3329m-21.0225-28.9758 10.5851,13.6429m-21.249-25.3483 10.6639,11.7054m-21.3298-21.232 10.6659,9.5266m-21.2609-16.6309 10.5951,7.1043m-21.0454-11.5438 10.4504,4.4395m-20.6813-5.9739 10.2309,1.5344m-20.1675,.0808 9.9366-1.6152m-19.5051,6.6204 9.5685-5.0052m-18.694,13.6429 9.1255-8.6377m-17.735,21.1502 8.6095-12.5125m-16.628,29.1434 8.0185-16.6308m-15.3717,37.6194 7.3532-20.9886m-13.967,46.5803 6.6138-25.5917m-12.4139,56.0261 5.8-30.4343m-10.7122,65.9547 4.9121-35.5204m-8.8618,76.3692 3.9497-40.8488m-6.8629,87.2675 2.9132-46.4187m-4.7156,98.6497 1.8024-52.231m-2.4197,110.5168 .6173-58.2858"/>
<g fill="#f00">
<path d="m16.5,4.5a1,1 0 1,1 -2,0 1,1 0 1,1 2,0z" transform="matrix(-32 0 0 -32 952 -184)"/>
<path d="m16.5,4.5a1,1 0 1,1 -2,0 1,1 0 1,1 2,0z" transform="matrix(-32 0 0 -32 552 136)"/>
</g>
</g>
</svg>
