<?xml version="1.0" encoding="UTF-8" standalone="no"?>
<!-- Created with Inkscape (http://www.inkscape.org/) -->

<svg
   xmlns:dc="http://purl.org/dc/elements/1.1/"
   xmlns:cc="http://creativecommons.org/ns#"
   xmlns:rdf="http://www.w3.org/1999/02/22-rdf-syntax-ns#"
   xmlns:svg="http://www.w3.org/2000/svg"
   xmlns="http://www.w3.org/2000/svg"
   xmlns:sodipodi="http://sodipodi.sourceforge.net/DTD/sodipodi-0.dtd"
   xmlns:inkscape="http://www.inkscape.org/namespaces/inkscape"
   width="512"
   height="512"
   id="svg2"
   sodipodi:version="0.32"
   inkscape:version="0.47 r22583"
   version="1.0"
   sodipodi:docname="SplineControlPoints.svg"
   inkscape:output_extension="org.inkscape.output.svg.inkscape">
  <defs
     id="defs4">
    <marker
       inkscape:stockid="Arrow1Mend"
       orient="auto"
       refY="0"
       refX="0"
       id="Arrow1Mend"
       style="overflow:visible">
      <path
         id="path3720"
         d="M 0,0 5,-5 -12.5,0 5,5 0,0 z"
         style="fill-rule:evenodd;stroke:#000000;stroke-width:1pt;marker-start:none"
         transform="matrix(-0.4,0,0,-0.4,-4,0)" />
    </marker>
    <marker
       inkscape:stockid="TriangleOutL"
       orient="auto"
       refY="0"
       refX="0"
       id="TriangleOutL"
       style="overflow:visible">
      <path
         id="path3854"
         d="m 5.77,0 -8.65,5 0,-10 8.65,5 z"
         style="fill-rule:evenodd;stroke:#000000;stroke-width:1pt;marker-start:none"
         transform="scale(0.8,0.8)" />
    </marker>
    <marker
       inkscape:stockid="Arrow2Send"
       orient="auto"
       refY="0"
       refX="0"
       id="Arrow2Send"
       style="overflow:visible">
      <path
         id="path3295"
         style="font-size:12px;fill-rule:evenodd;stroke-width:0.625;stroke-linejoin:round"
         d="M 8.7185878,4.0337352 -2.2072895,0.01601326 8.7185884,-4.0017078 c -1.7454984,2.3720609 -1.7354408,5.6174519 -6e-7,8.035443 z"
         transform="matrix(-0.3,0,0,-0.3,0.69,0)" />
    </marker>
    <marker
       inkscape:stockid="Arrow1Lend"
       orient="auto"
       refY="0"
       refX="0"
       id="Arrow1Lend"
       style="overflow:visible">
      <path
         id="path3265"
         d="M 0,0 5,-5 -12.5,0 5,5 0,0 z"
         style="fill-rule:evenodd;stroke:#000000;stroke-width:1pt;marker-start:none"
         transform="matrix(-0.8,0,0,-0.8,-10,0)" />
    </marker>
    <marker
       inkscape:stockid="Arrow1Lstart"
       orient="auto"
       refY="0"
       refX="0"
       id="Arrow1Lstart"
       style="overflow:visible">
      <path
         id="path3262"
         d="M 0,0 5,-5 -12.5,0 5,5 0,0 z"
         style="fill-rule:evenodd;stroke:#000000;stroke-width:1pt;marker-start:none"
         transform="matrix(0.8,0,0,0.8,10,0)" />
    </marker>
    <inkscape:perspective
       sodipodi:type="inkscape:persp3d"
       inkscape:vp_x="0 : 526.18109 : 1"
       inkscape:vp_y="0 : 1000 : 0"
       inkscape:vp_z="744.09448 : 526.18109 : 1"
       inkscape:persp3d-origin="372.04724 : 350.78739 : 1"
       id="perspective10" />
    <inkscape:perspective
       id="perspective2477"
       inkscape:persp3d-origin="372.04724 : 350.78739 : 1"
       inkscape:vp_z="744.09448 : 526.18109 : 1"
       inkscape:vp_y="0 : 1000 : 0"
       inkscape:vp_x="0 : 526.18109 : 1"
       sodipodi:type="inkscape:persp3d" />
    <marker
       style="overflow:visible"
       id="Arrow1Lstart-0"
       orient="auto"
       refY="0"
       refX="0">
      <path
         style="fill-rule:evenodd;stroke:#000000;stroke-width:1pt;marker-start:none"
         id="path3262-5"
         transform="matrix(0.8,0,0,0.8,10,0)"
         d="M 0,0 5,-5 -12.5,0 5,5 0,0 z" />
    </marker>
    <marker
       style="overflow:visible"
       id="Arrow1Lend-3"
       orient="auto"
       refY="0"
       refX="0">
      <path
         style="fill-rule:evenodd;stroke:#000000;stroke-width:1pt;marker-start:none"
         id="path3265-9"
         transform="matrix(-0.8,0,0,-0.8,-10,0)"
         d="M 0,0 5,-5 -12.5,0 5,5 0,0 z" />
    </marker>
    <marker
       style="overflow:visible"
       id="Arrow2Send-4"
       orient="auto"
       refY="0"
       refX="0">
      <path
         style="font-size:12px;fill-rule:evenodd;stroke-width:0.625;stroke-linejoin:round"
         id="path3295-8"
         transform="matrix(-0.3,0,0,-0.3,0.69,0)"
         d="M 8.7185878,4.0337352 -2.2072895,0.01601326 8.7185884,-4.0017078 c -1.7454984,2.3720609 -1.7354408,5.6174519 -6e-7,8.035443 z" />
    </marker>
    <marker
       style="overflow:visible"
       id="TriangleOutL-0"
       orient="auto"
       refY="0"
       refX="0">
      <path
         style="fill-rule:evenodd;stroke:#000000;stroke-width:1pt;marker-start:none"
         id="path3854-2"
         transform="scale(0.8,0.8)"
         d="m 5.77,0 -8.65,5 0,-10 8.65,5 z" />
    </marker>
    <marker
       style="overflow:visible"
       id="Arrow1Mend-3"
       orient="auto"
       refY="0"
       refX="0">
      <path
         style="fill-rule:evenodd;stroke:#000000;stroke-width:1pt;marker-start:none"
         id="path3720-8"
         transform="matrix(-0.4,0,0,-0.4,-4,0)"
         d="M 0,0 5,-5 -12.5,0 5,5 0,0 z" />
    </marker>
    <inkscape:perspective
       id="perspective2961"
       inkscape:persp3d-origin="24 : 16 : 1"
       inkscape:vp_z="48 : 24 : 1"
       inkscape:vp_y="0 : 1000 : 0"
       inkscape:vp_x="0 : 24 : 1"
       sodipodi:type="inkscape:persp3d" />
    <inkscape:perspective
       id="perspective3248"
       inkscape:persp3d-origin="910.62994 : 608.2677 : 1"
       inkscape:vp_z="1821.2599 : 912.40155 : 1"
       inkscape:vp_y="0 : 1000 : 0"
       inkscape:vp_x="0 : 912.40155 : 1"
       sodipodi:type="inkscape:persp3d" />
  </defs>
  <sodipodi:namedview
     id="base"
     pagecolor="#ffffff"
     bordercolor="#666666"
     borderopacity="1.0"
     gridtolerance="10000"
     guidetolerance="10"
     objecttolerance="10"
     inkscape:pageopacity="0.0"
     inkscape:pageshadow="2"
     inkscape:zoom="0.50000001"
     inkscape:cx="204.04595"
     inkscape:cy="225.98637"
     inkscape:document-units="px"
     inkscape:current-layer="layer1"
     showgrid="true"
     inkscape:snap-global="true"
     inkscape:window-width="2560"
     inkscape:window-height="1323"
     inkscape:window-x="0"
     inkscape:window-y="0"
     inkscape:window-maximized="0">
    <inkscape:grid
       type="xygrid"
       id="grid2485"
       visible="true"
       enabled="true"
       dotted="false"
       empspacing="10"
       originx="-8px"
       originy="-8px"
       spacingx="16px"
       spacingy="16px"
       snapvisiblegridlinesonly="true" />
  </sodipodi:namedview>
  <metadata
     id="metadata7">
    <rdf:RDF>
      <cc:Work
         rdf:about="">
        <dc:format>image/svg+xml</dc:format>
        <dc:type
           rdf:resource="http://purl.org/dc/dcmitype/StillImage" />
      </cc:Work>
    </rdf:RDF>
  </metadata>
  <g
     inkscape:label="Layer 1"
     inkscape:groupmode="layer"
     id="layer1"
     transform="translate(0,464)">
    <path
       id="path3240"
       style="fill:none;stroke:#0000ff;stroke-width:8;stroke-linecap:round;stroke-miterlimit:4;stroke-dasharray:none"
       d="M 328.30064,-8.0000016 456,-327.24839 M 216.56371,-407.06048 328.30064,-8.0000016 M 56.939519,-407.06048 l 159.624191,0 M 56.939519,-8.0000016 l 0,-399.0604784" />
    <path
       sodipodi:type="arc"
       style="fill:#ff0000;fill-opacity:1;fill-rule:nonzero;stroke:none;stroke-width:1;marker:none;visibility:visible;display:inline;overflow:visible;enable-background:accumulate"
       id="path2394"
       sodipodi:cx="15.5"
       sodipodi:cy="4.5"
       sodipodi:rx="1"
       sodipodi:ry="1"
       d="m 16.5,4.5 a 1,1 0 1 1 -2,0 1,1 0 1 1 2,0 z"
       transform="matrix(-32,0,0,-32,552,-264)" />
    <path
       transform="matrix(-32,0,0,-32,712,-264)"
       d="m 16.5,4.5 a 1,1 0 1 1 -2,0 1,1 0 1 1 2,0 z"
       sodipodi:ry="1"
       sodipodi:rx="1"
       sodipodi:cy="4.5"
       sodipodi:cx="15.5"
       id="path2946"
       style="fill:#ff0000;fill-opacity:1;fill-rule:nonzero;stroke:none;stroke-width:0;marker:none;visibility:visible;display:inline;overflow:visible;enable-background:accumulate"
       sodipodi:type="arc" />
    <path
       sodipodi:type="arc"
       style="fill:#ff0000;fill-opacity:1;fill-rule:nonzero;stroke:none;stroke-width:0;marker:none;visibility:visible;display:inline;overflow:visible;enable-background:accumulate"
       id="path2948"
       sodipodi:cx="15.5"
       sodipodi:cy="4.5"
       sodipodi:rx="1"
       sodipodi:ry="1"
       d="m 16.5,4.5 a 1,1 0 1 1 -2,0 1,1 0 1 1 2,0 z"
       transform="matrix(-32,0,0,-32,824,136)" />
    <path
       id="path3232"
       style="fill:none;stroke:#000000;stroke-width:16;stroke-linecap:round;stroke-miterlimit:4;stroke-dasharray:none"
       d="M 436.90895,-282.14258 456,-327.24839 m -37.11562,82.52571 18.02457,-37.4199 m -35.05148,67.65572 17.02691,-30.23582 m -33.12501,53.78637 16.0981,-23.55055 m -31.33224,40.91866 15.23414,-17.36811 m -29.67514,29.0516 14.441,-11.68349 m -28.15571,18.18519 13.71471,-6.5017 m -26.76997,8.32041 13.05526,-1.81871 m -25.51892,-0.54372 12.46366,2.36243 m -24.40554,-8.4062 11.94188,6.04377 m -23.42784,-15.26806 11.48596,9.22429 m -22.58483,-21.12926 11.09887,11.90497 m -21.87749,-25.98981 10.77862,14.08484 m -21.30584,-29.84773 10.52722,15.76289 m -20.86987,-32.705 10.34265,16.94211 m -20.56957,-34.56263 10.22692,17.62052 m -20.40496,-35.41861 10.17804,17.79809 m -20.37503,-35.27295 10.19699,17.47486 m -20.48178,-34.12666 10.28479,16.6518 m -20.72222,-31.9847 10.43743,15.3329 m -21.0225,-28.97578 10.58507,13.64288 m -21.24897,-25.34832 10.6639,11.70544 m -21.32979,-21.23201 10.66589,9.52657 m -21.26094,-16.63085 10.59505,7.10428 m -21.04545,-11.54382 10.4504,4.43954 m -20.68131,-5.97393 10.23091,1.53439 m -20.16752,0.0808 9.93661,-1.6152 m -19.50508,6.62041 9.56847,-5.00521 m -18.69399,13.64288 9.12552,-8.63767 m -17.735047,21.15021 8.609527,-12.51254 m -16.628049,29.14338 8.018522,-16.63084 m -15.37171,37.61943 7.353188,-20.98859 m -13.967017,46.58034 6.613829,-25.59175 m -12.413874,56.02609 5.800045,-30.43434 m -10.71218,65.95472 4.912135,-35.52038 m -8.861836,76.36921 3.949701,-40.84883 m -6.862942,87.26754 2.913241,-46.41871 m -4.715598,98.649742 1.802357,-52.231032 M 56.939519,-8.0000016 57.556865,-66.285778" />
    <path
       transform="matrix(-32,0,0,-32,952,-184)"
       d="m 16.5,4.5 a 1,1 0 1 1 -2,0 1,1 0 1 1 2,0 z"
       sodipodi:ry="1"
       sodipodi:rx="1"
       sodipodi:cy="4.5"
       sodipodi:cx="15.5"
       id="path3351"
       style="fill:#ff0000;fill-opacity:1;fill-rule:nonzero;stroke:none;stroke-width:0;marker:none;visibility:visible;display:inline;overflow:visible;enable-background:accumulate"
       sodipodi:type="arc" />
    <path
       sodipodi:type="arc"
       style="fill:#ff0000;fill-opacity:1;fill-rule:nonzero;stroke:none;stroke-width:0;marker:none;visibility:visible;display:inline;overflow:visible;enable-background:accumulate"
       id="path3277"
       sodipodi:cx="15.5"
       sodipodi:cy="4.5"
       sodipodi:rx="1"
       sodipodi:ry="1"
       d="m 16.5,4.5 a 1,1 0 1 1 -2,0 1,1 0 1 1 2,0 z"
       transform="matrix(-32,0,0,-32,552,136)" />
  </g>
</svg>
