<svg xmlns="http://www.w3.org/2000/svg" viewBox="0 0 512 512"><g style="fill:none;stroke-linecap:round;stroke-linejoin:round"><g style="stroke:#f00;stroke-width:16"><path d="m97.96 455.28c10.649-17.18 19.03-36.17 24.632-56.66 26.17-95.78-16.783-194.13-98.56-241.99"/><path d="m55.48 78.32l118.83 365.27"/></g><circle cx="40" cy="40" r="10" transform="matrix(15.22871 4.16295 4.16178-15.23302-505.85 669.47)" style="stroke:#fff;stroke-width:1.013"/></g><g style="fill:#f00"><path d="m291.12 78.22c0-17.674 14.326-32 32-32 17.674 0 32 14.326 32 32 0 17.674-14.326 32-32 32-17.674 0-32-14.326-32-32"/><path d="M375.97267 296.01367A32 32 0 1 1 439.97267 296.01367 32 32 0 0 1 375.97267 296.01367"/></g></svg>
