<?xml version="1.0" encoding="UTF-8" standalone="no"?>
<svg
   xmlns:dc="http://purl.org/dc/elements/1.1/"
   xmlns:cc="http://creativecommons.org/ns#"
   xmlns:rdf="http://www.w3.org/1999/02/22-rdf-syntax-ns#"
   xmlns:svg="http://www.w3.org/2000/svg"
   xmlns="http://www.w3.org/2000/svg"
   xmlns:sodipodi="http://sodipodi.sourceforge.net/DTD/sodipodi-0.dtd"
   xmlns:inkscape="http://www.inkscape.org/namespaces/inkscape"
   viewBox="0 0 512 512"
   id="svg2"
   version="1.1"
   inkscape:version="0.48.2 r9819"
   width="100%"
   height="100%"
   sodipodi:docname="CircleT2P.svg">
  <metadata
     id="metadata26">
    <rdf:RDF>
      <cc:Work
         rdf:about="">
        <dc:format>image/svg+xml</dc:format>
        <dc:type
           rdf:resource="http://purl.org/dc/dcmitype/StillImage" />
      </cc:Work>
    </rdf:RDF>
  </metadata>
  <sodipodi:namedview
     pagecolor="#ffffff"
     bordercolor="#666666"
     borderopacity="1"
     objecttolerance="10"
     gridtolerance="10"
     guidetolerance="10"
     inkscape:pageopacity="0"
     inkscape:pageshadow="2"
     inkscape:window-width="1702"
     inkscape:window-height="1095"
     id="namedview24"
     showgrid="false"
     inkscape:zoom="0.921875"
     inkscape:cx="64"
     inkscape:cy="256"
     inkscape:window-x="0"
     inkscape:window-y="0"
     inkscape:window-maximized="0"
     inkscape:current-layer="svg2" />
  <defs
     id="defs4" />
  <g
     transform="translate(0 464)"
     id="g6">
    <g
       fill="none"
       stroke-linejoin="round"
       stroke-linecap="round"
       id="g8">
      <g
         stroke="#f00"
         stroke-width="14.242"
         id="g10"
         style="stroke-width:16;stroke-miterlimit:4;stroke-dasharray:none">
        <path
           d="m97.9554-8.7229c10.6487-17.1806 19.0326-36.1661 24.6316-56.6598 26.1666-95.7755-16.7833-194.1324-98.5603-241.9855"
           id="path12"
           style="stroke-width:16;stroke-miterlimit:4;stroke-dasharray:none" />
        <path
           d="m55.4834-385.6817 118.8319,365.2713"
           id="path14"
           style="stroke-width:16;stroke-miterlimit:4;stroke-dasharray:none" />
      </g>
      <circle
         cx="40"
         cy="40"
         stroke="#000"
         r="10"
         stroke-width=".902"
         d="m 50,40 c 0,5.522847 -4.477153,10 -10,10 -5.522847,0 -10,-4.477153 -10,-10 0,-5.522847 4.477153,-10 10,-10 5.522847,0 10,4.477153 10,10 z"
         transform="matrix(15.22871 4.16295 4.16178 -15.23302 -505.85369 205.47157)"
         id="circle16"
         style="stroke-width:1.01333934;stroke-miterlimit:4;stroke-dasharray:none" />
    </g>
    <g
       fill="#f00"
       id="g18">
      <path
         d="m16.5,4.5c0,.5523-.4477,1-1,1-.5523,0-1-.4477-1-1 0-.5523 .4477-1 1-1 .5523,0 1,.4477 1,1z"
         transform="matrix(-32 0 0 -32 819.11985 -241.77521)"
         id="path20" />
      <path
         d="m16.5,4.5a1,1 0 1,1 -2,0 1,1 0 1,1 2,0z"
         transform="matrix(-32 0 0 -32 903.97267 -23.98633)"
         id="path22" />
    </g>
  </g>
</svg>
