<svg width="512" xmlns="http://www.w3.org/2000/svg" height="512">
<defs/>
<g transform="translate(0 464)">
<g fill="none" stroke-linejoin="round" stroke-linecap="round">
<g stroke="#f00" stroke-width="14.242">
<path d="m97.9554-8.7229c10.6487-17.1806 19.0326-36.1661 24.6316-56.6598 26.1666-95.7755-16.7833-194.1324-98.5603-241.9855"/>
<path d="m55.4834-385.6817 118.8319,365.2713"/>
</g>
<circle cx="40" cy="40" stroke="#fff" r="10" stroke-width=".902" d="m 50,40 c 0,5.522847 -4.477153,10 -10,10 -5.522847,0 -10,-4.477153 -10,-10 0,-5.522847 4.477153,-10 10,-10 5.522847,0 10,4.477153 10,10 z" transform="matrix(15.22871 4.16295 4.16178 -15.23302 -505.85369 205.47157)"/>
</g>
<g fill="#f00">
<path d="m16.5,4.5c0,.5523-.4477,1-1,1-.5523,0-1-.4477-1-1 0-.5523 .4477-1 1-1 .5523,0 1,.4477 1,1z" transform="matrix(-32 0 0 -32 819.11985 -241.77521)"/>
<path d="m16.5,4.5a1,1 0 1,1 -2,0 1,1 0 1,1 2,0z" transform="matrix(-32 0 0 -32 903.97267 -23.98633)"/>
</g>
</g>
</svg>
