<svg xmlns="http://www.w3.org/2000/svg" viewBox="0 0 512 512" xmlns:xlink="http://www.w3.org/1999/xlink"><defs><path id="0" d="m16.5 4.5a1 1 0 1 1 -2 0 1 1 0 1 1 2 0"/></defs><g transform="translate(0 492)" style="fill:#f00"><use transform="matrix(32 0 0 32-432-572)" xlink:href="#0"/><use transform="matrix(32 0 0 32-304-572)" xlink:href="#0"/><use transform="matrix(32 0 0 32-176-572)" xlink:href="#0"/><use transform="matrix(32 0 0 32-48-572)" xlink:href="#0"/><use transform="matrix(32 0 0 32-432-444)" xlink:href="#0"/><use transform="matrix(32 0 0 32-304-444)" xlink:href="#0"/><use transform="matrix(32 0 0 32-176-444)" xlink:href="#0"/><use transform="matrix(32 0 0 32-48-444)" xlink:href="#0"/><use transform="matrix(32 0 0 32-432-316)" xlink:href="#0"/><use transform="matrix(32 0 0 32-304-316)" xlink:href="#0"/><use transform="matrix(32 0 0 32-176-316)" xlink:href="#0"/><use transform="matrix(32 0 0 32-48-316)" xlink:href="#0"/><use transform="matrix(32 0 0 32-432-188)" xlink:href="#0"/><use transform="matrix(32 0 0 32-304-188)" xlink:href="#0"/><use transform="matrix(32 0 0 32-176-188)" xlink:href="#0"/><use transform="matrix(32 0 0 32-48-188)" xlink:href="#0"/></g></svg>
