<svg xmlns="http://www.w3.org/2000/svg" viewBox="0 0 512 512"><path d="m239.08 51.2v409.6" style="fill:none;stroke:#000;stroke-width:25.6"/><path d="m122.76 318.11c-24.16 0-40.896 2.763-50.21 8.288-9.317 5.525-13.975 14.95-13.975 28.27 0 10.617 3.467 19.07 10.4 25.35 7.04 6.175 16.575 9.263 28.6 9.262 16.575 0 29.846-5.85 39.813-17.55 10.07-11.808 15.11-27.462 15.11-46.962v-6.663h-29.737m59.64-12.35v103.84h-29.9v-27.625c-6.825 11.05-15.329 19.229-25.512 24.538-10.183 5.2-22.642 7.8-37.38 7.8-18.633 0-33.475-5.2-44.525-15.6-10.942-10.508-16.413-24.537-16.412-42.09 0-20.475 6.825-35.912 20.475-46.31 13.758-10.4 34.23-15.6 61.43-15.6h41.925v-2.925c0-13.758-4.55-24.375-13.65-31.85-8.992-7.583-21.667-11.375-38.02-11.375-10.4 0-20.529 1.246-30.388 3.737-9.858 2.492-19.338 6.229-28.437 11.213v-27.625c10.942-4.225 21.558-7.366 31.85-9.425 10.292-2.166 20.312-3.25 30.06-3.25 26.325 0 45.987 6.825 58.987 20.475 13 13.65 19.5 34.34 19.5 62.08"/><path d="m452.29 318.76c0-21.992-4.55-39.22-13.65-51.675-8.992-12.567-21.396-18.85-37.21-18.85-15.817 0-28.28 6.283-37.37 18.85-8.992 12.458-13.488 29.683-13.488 51.675 0 21.992 4.496 39.27 13.488 51.837 9.1 12.458 21.558 18.688 37.38 18.688 15.817 0 28.22-6.229 37.21-18.688 9.1-12.567 13.65-29.846 13.65-51.837m-101.73-63.54c6.283-10.833 14.192-18.85 23.725-24.05 9.642-5.308 21.12-7.962 34.45-7.962 22.1 0 40.03 8.775 53.788 26.325 13.866 17.55 20.8 40.625 20.8 69.23 0 28.6-6.934 51.675-20.8 69.22-13.758 17.55-31.688 26.325-53.788 26.325-13.325 0-24.808-2.6-34.45-7.8-9.533-5.308-17.442-13.379-23.725-24.21v27.3h-30.06v-252.85h30.06v98.47"/></svg>