<svg xmlns="http://www.w3.org/2000/svg" viewBox="0 0 1536 1024"><g stroke-width="8"><g fill="#fff" stroke="#00f" color="#000"><path d="m1312,152-672,669.2"/><path d="m128 293.2l512 528"/></g><g fill="none" stroke="#f00"><path d="m640 101.2v800"/><path d="m1360 821.2h-800"/></g></g><g fill="#e6e6e6" fill-opacity=".471" stroke-linecap="square" color="#000" stroke-width="6.4"><path stroke="#000" d="m1136 718.8h128v204.8h-128z"/><path stroke="#808080" d="m362.44 930.06h128v204.8h-128z" transform="matrix(.70711-.70711.70711.70711 0 0)"/></g><path fill="none" stroke="#00f" stroke-width="8" d="m1408 431.78h-377.9"/><g color="#000"><g stroke-linecap="square"><g fill="#e6e6e6" stroke="#000" fill-opacity=".471" stroke-width="6.4"><path d="m576 158.8h128v204.8h-128z"/><path d="m-312.48 319.13h128v204.8h-128z" transform="scale(-1 1)"/></g><path fill="none" stroke="#00f" stroke-width="8" d="m888.9 572.3c63.7 63.7 103.1 151.7 103.1 248.9"/></g><path fill="#00f" stroke="#00f" stroke-width="6.365" d="m892.35 575.16l12.739 62.36 44.795-35.14-57.53-27.23z"/></g><path d="m896.64 759.61c-4.883 4.15-9.595 7.08-14.14 8.789-4.492 1.709-9.326 2.563-14.502 2.563-8.545 0-15.11-2.075-19.702-6.226-4.59-4.199-6.885-9.546-6.885-16.04 0-3.809.854-7.275 2.563-10.4 1.758-3.174 4.03-5.713 6.812-7.617 2.832-1.904 6.01-3.345 9.521-4.321 2.588-.684 6.494-1.343 11.719-1.978 10.644-1.269 18.481-2.783 23.511-4.541.049-1.807.073-2.954.073-3.442 0-5.371-1.245-9.155-3.735-11.353-3.369-2.978-8.374-4.468-15.01-4.468-6.201 0-10.791 1.099-13.77 3.296-2.93 2.149-5.103 5.982-6.519 11.499l-12.891-1.758c1.172-5.518 3.101-9.961 5.786-13.33 2.686-3.418 6.567-6.03 11.646-7.837 5.078-1.855 10.962-2.783 17.651-2.783 6.641 0 12.04.781 16.187 2.344 4.15 1.563 7.202 3.54 9.155 5.933 1.953 2.344 3.32 5.322 4.102 8.936.439 2.246.659 6.299.659 12.158v17.578c0 12.256.268 20.02.806 23.291.586 3.223 1.709 6.323 3.369 9.302h-13.77c-1.367-2.734-2.246-5.933-2.637-9.595m-1.099-29.443c-4.785 1.953-11.963 3.613-21.533 4.98-5.42.781-9.253 1.66-11.499 2.637-2.246.977-3.98 2.417-5.2 4.321-1.221 1.856-1.831 3.931-1.831 6.226 0 3.516 1.318 6.445 3.955 8.789 2.686 2.344 6.592 3.516 11.719 3.516 5.078 0 9.595-1.099 13.55-3.296 3.955-2.246 6.86-5.298 8.716-9.155 1.416-2.978 2.124-7.373 2.124-13.184v-4.834"/><g color="#000"><path fill="#e6e6e6" stroke="#000" fill-opacity=".471" stroke-linecap="square" stroke-width="6.4" d="m-1095.6-530.92h128v204.8h-128z" transform="scale(-1-1)"/><g stroke="#00f"><path fill="none" stroke-linecap="square" stroke-width="8" d="m1285 180c63.699 63.7 103.1 151.7 103.1 248.9"/><path fill="#00f" stroke-width="6.365" d="m1388.04 427.95l19.557-60.57-56.28 8.583 36.723 51.988z"/></g></g><path d="m1254.05 376h-12.231v-107.37h13.184v38.31c5.566-6.982 12.671-10.474 21.313-10.474 4.785 0 9.302.977 13.55 2.93 4.297 1.904 7.813 4.614 10.547 8.13 2.783 3.467 4.956 7.666 6.519 12.598 1.562 4.932 2.344 10.205 2.344 15.82 0 13.33-3.296 23.633-9.888 30.908-6.592 7.275-14.502 10.913-23.731 10.913-9.18 0-16.382-3.833-21.606-11.499v9.741m-.147-39.478c0 9.326 1.269 16.06 3.809 20.21 4.15 6.787 9.766 10.181 16.846 10.181 5.762 0 10.742-2.49 14.941-7.471 4.199-5.03 6.299-12.5 6.299-22.412 0-10.156-2.026-17.651-6.079-22.485-4-4.834-8.862-7.251-14.575-7.251-5.762 0-10.742 2.515-14.941 7.544-4.199 4.981-6.299 12.207-6.299 21.68"/></svg>