<svg width="1536" xmlns="http://www.w3.org/2000/svg" height="1024" xmlns:xlink="http://www.w3.org/1999/xlink">
<defs/>
<g stroke-width="8">
<g fill="#fff" stroke="#00f" color="#000">
<path d="m1312,152-672,669.2"/>
<path d="m128,293.2 512,528"/>
</g>
<g fill="none" stroke="#f00">
<path d="m640,101.2 0,800"/>
<path d="m1360,821.2-800,0"/>
</g>
</g>
<g fill="#e6e6e6" fill-opacity=".471" stroke-linecap="square" color="#000" stroke-width="6.4">
<path stroke="#000" d="m1136,718.8h128v204.8h-128z"/>
<path stroke="#808080" d="m362.44,930.06h128v204.8h-128z" transform="matrix(.70711 -.70711 .70711 .70711 0 0)"/>
</g>
<path fill="none" stroke="#00f" stroke-width="8" d="m1408,431.7782-377.8995,0"/>
<g color="#000">
<g stroke-linecap="square">
<g fill="#e6e6e6" stroke="#000" fill-opacity=".471" stroke-width="6.4">
<path d="m576,158.8h128v204.8h-128z"/>
<path d="m-312.484,319.133h128v204.8h-128z" transform="scale(-1 1)"/>
</g>
<path fill="none" stroke="#00f" stroke-width="8" d="m888.9016,572.2984c63.6995,63.6995 103.0984,151.6995 103.0984,248.9016"/>
</g>
<path fill="#00f" stroke="#00f" stroke-width="6.365" d="m892.3534,575.1626 12.7386,62.3625 44.7946-35.1359-57.5332-27.2266z"/>
</g>
<text x="836" y="769.2" font-family="Sans" text-align="start" word-spacing="0" line-height="125%" xml:space="preserve" letter-spacing="0" font-size="140px"><tspan x="836" y="769.2" font-family="Arial" font-size="150px">a</tspan>
</text>
<g color="#000">
<path fill="#e6e6e6" stroke="#000" fill-opacity=".471" stroke-linecap="square" stroke-width="6.4" d="m-1095.6-530.921h128.002v204.8h-128.002z" transform="scale(-1)"/>
<g stroke="#00f">
<path fill="none" stroke-linecap="square" stroke-width="8" d="m1285,180c63.6995,63.6995 103.0984,151.6995 103.0984,248.9016"/>
<path fill="#00f" stroke-width="6.365" d="m1388.0356,427.9513 19.5567-60.5714-56.2799,8.5832 36.7232,51.9882z"/>
</g>
</g>
<text x="1232" y="376" font-family="Sans" text-align="start" word-spacing="0" line-height="125%" xml:space="preserve" letter-spacing="0" font-size="140px"><tspan x="1232" y="376" font-family="Arial" font-size="150px">b</tspan>
</text>
</svg>
