<svg xmlns="http://www.w3.org/2000/svg" viewBox="0 0 512 512"><g transform="translate(0 492)"><path transform="translate(0-492)" d="m440 472v-240" fill="none" stroke="#000" stroke-width="8"/><g transform="matrix(1.5 0 0 1.5-214 219.91)"><path d="m310.44-388l24.25-34.5-22.438-31.875h14.06l10.188 15.563c1.917 2.958 3.458 5.438 4.625 7.438 1.833-2.75 3.521-5.187 5.063-7.313l11.188-15.688h13.438l-22.938 31.25 24.688 35.13h-13.813l-13.625-20.625-3.625-5.563-17.438 26.19h-13.625"/><path d="m383.88-388v-12.813h12.813v12.813c0 4.708-.833 8.5-2.5 11.375-1.667 2.917-4.313 5.167-7.938 6.75l-3.125-4.813c2.375-1.042 4.125-2.583 5.25-4.625 1.125-2 1.75-4.896 1.875-8.688h-6.375"/><path d="m415.94-362.44l-1.25-10.563c2.458.667 4.604 1 6.438 1 2.5 0 4.5-.417 6-1.25 1.5-.833 2.729-2 3.688-3.5.708-1.125 1.854-3.917 3.438-8.375.208-.625.542-1.542 1-2.75l-25.19-66.5h12.13l13.813 38.438c1.792 4.875 3.396 10 4.813 15.375 1.292-5.167 2.833-10.208 4.625-15.12l14.188-38.688h11.25l-25.25 67.5c-2.708 7.292-4.813 12.312-6.313 15.06-2 3.708-4.292 6.417-6.875 8.125-2.583 1.75-5.667 2.625-9.25 2.625-2.167 0-4.583-.458-7.25-1.375"/></g><path d="m40-260h400" fill="none" stroke="#000" stroke-width="8"/><path d="m408-260a32 32 0 1 1 64 0 32 32 0 0 1 -64 0" fill="#f00"/></g></svg>