<?xml version="1.0" encoding="UTF-8" standalone="no"?>
<svg
   xmlns:dc="http://purl.org/dc/elements/1.1/"
   xmlns:cc="http://creativecommons.org/ns#"
   xmlns:rdf="http://www.w3.org/1999/02/22-rdf-syntax-ns#"
   xmlns:svg="http://www.w3.org/2000/svg"
   xmlns="http://www.w3.org/2000/svg"
   xmlns:sodipodi="http://sodipodi.sourceforge.net/DTD/sodipodi-0.dtd"
   xmlns:inkscape="http://www.inkscape.org/namespaces/inkscape"
   viewBox="0 0 512 512"
   id="svg2"
   version="1.1"
   inkscape:version="0.48.5 r10040"
   width="100%"
   height="100%"
   sodipodi:docname="Image.svg">
  <metadata
     id="metadata36">
    <rdf:RDF>
      <cc:Work
         rdf:about="">
        <dc:format>image/svg+xml</dc:format>
        <dc:type
           rdf:resource="http://purl.org/dc/dcmitype/StillImage" />
      </cc:Work>
    </rdf:RDF>
  </metadata>
  <defs
     id="defs34" />
  <sodipodi:namedview
     pagecolor="#ffffff"
     bordercolor="#666666"
     borderopacity="1"
     objecttolerance="10"
     gridtolerance="10"
     guidetolerance="10"
     inkscape:pageopacity="0"
     inkscape:pageshadow="2"
     inkscape:window-width="640"
     inkscape:window-height="480"
     id="namedview32"
     showgrid="false"
     inkscape:zoom="0.4609375"
     inkscape:cx="256"
     inkscape:cy="256"
     inkscape:window-x="0"
     inkscape:window-y="0"
     inkscape:window-maximized="0"
     inkscape:current-layer="g4" />
  <g
     transform="translate(0 464)"
     id="g4">
    <path
       d="m56-208v-152h200 200v152 152h-200-200v-152"
       style="fill:#9acef9"
       id="path8" />
    <path
       d="m56.02-208l.016-152 199.98.018 199.98.018v151.99 151.99h-200-200l.016-152m309.67 12.704l5.313-2.444v-1.057-1.057l-15.938-1.539c-8.766-.846-17.625-1.498-19.688-1.449l-3.75.09 4.375 1.706c23.18 9.04 22.731 8.95 29.688 5.75m-194.06-37.981v-6.878l-3.905-2.311-3.905-2.311-5.645 2.452c-3.105 1.349-5.964 2.976-6.355 3.617l-.711 1.165 1.949 2.82 1.949 2.82 2.27-2.082 2.27-2.082 2.916.418 2.916.418-.424 3.655-.424 3.655 1.674 1.093c.921.601 2.518.944 3.549.761l1.875-.332v-6.878m197.99-8.812l1.745-1.119-.768-2.028-.768-2.028h-1.914-1.914v-1.131c0-1.461 2.516-2.476 12.62-5.091l8.245-2.134 1.756 1.122 1.756 1.122 12.499-4.227 12.499-4.228.398-3.512.398-3.512-5.086.824-5.086.824v-1.012c0-.557.931-2.055 2.069-3.329l2.069-2.316-1.756.007c-.966.004-3.917.615-6.557 1.358l-4.801 1.351-1.96-.762-1.96-.762 3.399-3.595 3.399-3.595-2.776-.736-2.776-.736-5.319 3.159c-2.925 1.737-6.03 4.03-6.909 5.1-.875 1.068-4.366 3.367-7.758 5.109l-6.168 3.167-1.361-1.379-1.361-1.379 6.201-5.595c6.771-6.109 9.439-7.728 14.604-8.862l3.403-.747 2.222-2.366c1.222-1.301 5.03-3.837 8.472-5.636l6.25-3.27 2.245-3.214 2.245-3.214-.821-4.435-.821-4.435h-.884c-.486 0-3.907.91-7.601 2.02l-6.717 2.02-3.822 2.879-3.822 2.879-3.666.882-3.666.882-3.617 3.084-3.617 3.084h-2.063-2.063l3.097-3.071c1.703-1.689 6.19-4.78 9.972-6.869l6.875-3.799.43-2.132.43-2.132-1.219-1.235-1.219-1.235-5.298 2.739-5.298 2.739-1.247-1.264-1.247-1.264 4.479-4.539 4.479-4.539h2.399c2.829 0 21.588-6.164 23.1-7.592l1.044-.983-5.644-2.184-5.644-2.184-15.201 1.977-15.201 1.977-2.073-1.173c-1.14-.645-4.19-2.02-6.778-3.048l-4.705-1.875-.762-2.01-.762-2.01.661-.67.661-.67 5.836 2.01 5.836 2.01 1.158-.725c.637-.399 1.158-1.613 1.158-2.698v-1.973l3.155.611 3.155.611.703-1.152.703-1.152-1.421-1.735c-.781-.954-1.685-3.209-2.01-5.01l-.586-3.276h.732c.402 0 1.82.59 3.149 1.311l2.418 1.311v1.641 1.641l3.01 1.63 3.01 1.63 1.669-1.045 1.669-1.045-3.09-.739-3.09-.739-.275-3.624c-.409-5.394-3.644-6.67-15.08-5.95l-2.813.177v2.533 2.533h-1.771-1.771l-.573 1.583-.573 1.583-1.656-1.583-1.656-1.583h2.212 2.212l-.399-2.85-.399-2.85-5.938-.386-5.938-.386v2.349 2.349l1.374 1.392 1.373 1.392-3.561.669c-4.229.794-1.771.666-30.436 1.58l-23.12.737-1.085 1.065-1.085 1.065 2.647 1.675 2.647 1.675v1.595 1.595h-3.676-3.676l-.743 1.218-.743 1.218-2.834-1.092-2.834-1.092-2.271 1.288-2.271 1.288-1.082-1.731c-1.421-2.274-1.39-3.312.13-4.264.688-.431 1.25-1.311 1.25-1.957v-1.175l-7.813.47c-4.297.258-12.521 1.132-18.275 1.941l-10.463 1.472-2.35-2.155-2.35-2.155v1.903 1.903l2.813 1.499 2.813 1.499-2.096-.597-2.096-.597-1.494 1.825-1.494 1.825h-3.523-3.523l-.773-1.267-.773-1.267h-5.502-5.502l-2.236 2.422-2.236 2.422-4.738.896-4.738.896-2.45-2.247c-1.347-1.236-2.52-1.873-2.606-1.417-.086.456-.297 1.4-.469 2.096-.172.697-.383 2.359-.469 3.695l-.156 2.428-6.325 1.375-6.325 1.375-5.117-.829-5.117-.829.819 1.343c.451.739 5.177 4.286 10.504 7.883l9.685 6.54 6.875 2.309 6.875 2.309 3.807-.604 3.807-.604 10.604 3.115 10.604 3.115 8.996 4.591c4.948 2.525 9.843 4.591 10.878 4.591 1.035 0 9.06 3.515 17.844 7.811l15.962 7.811 7.04 7.07c19.546 19.634 25.778 22.57 36.417 17.16l6.32-3.217 8.419 4.483 8.419 4.483h2.391 2.391l2.426 1.86c2.781 2.131 5.413 2.391 7.921.782m-241.69-91.11l1.31-3.976 2.44-1.87c3-2.3 4.221-2.09-14.435-2.496l-15.625-.34-7.813 2.577-7.813 2.577v1.832 1.832l4.298-.707 4.298-.707 1.591 1.943 1.591 1.943 6.118-.596 6.118-.596 5.765 2.217 5.765 2.217 2.541-.938 2.541-.938 1.31-3.976"
       style="fill:#8cb7e3"
       id="path10" />
    <path
       d="m56.02-208l.016-152h140.19c77.11 0 139.94.257 139.63.571-2.931 2.97-78.943 5.887-104.85 4.02l-9.375-.674-4.642 1.243-4.642 1.243-4.667-1.976c-2.567-1.087-6.524-2.217-8.793-2.511l-4.126-.535-3.44 3.239-3.44 3.239v2.684 2.684l-6.687 1.511-6.687 1.511-15.813.298-15.813.298-6.25-1.14-6.25-1.14-14.375.301-14.375.301-8.438 2.708-8.438 2.708v3.01 3.01h5.551 5.551l.772 1.267.772 1.267h6.759 6.759l4.105 1.789c2.258.984 7.48 2.433 11.605 3.219 4.125.786 9.75 2.02 12.5 2.736 2.75.718 6.547 1.615 8.438 1.992l3.438.686v-2.602-2.602l1.259-.788 1.259-.788.728 1.923.728 1.923 8.325 5.76c4.579 3.168 9.04 5.759 9.912 5.757l1.586-.003-.784-3.167-.784-3.167h.843c1.641 0 6.384 2.913 12.801 7.862l6.497 5.01 7.108 1.881 7.108 1.881 1.333-1.351 1.333-1.35h2.932 2.932l5.87 3.167c3.229 1.742 6.803 3.167 7.943 3.167 1.14 0 6.966 2.28 12.947 5.067l10.874 5.067h2.275 2.275l14.384 6.954 14.384 6.954 11.03 10.902 11.03 10.903 7.8 3.695 7.8 3.695 6.825-3.903 6.825-3.903 3.816 2.859 3.816 2.859 2.496 5.226c1.373 2.874 2.496 6.186 2.496 7.359v2.133h21.681 21.681l2.069-2.316 2.069-2.316v-3.297-3.297l3.817-2.754 3.817-2.754 2.258 2.071 2.258 2.071 3.145-1.212 3.145-1.212.616-4.208.616-4.208-.913-2.522-.913-2.522 1.01-3.564 1.01-3.564-2.12-2.186c-1.166-1.202-2.875-3.656-3.798-5.451l-1.679-3.265 2.616-5.196 2.616-5.196v-10.849-10.849l-3.318-1.278-3.318-1.278 3.415-3.612 3.415-3.612-.409-3.523-.409-3.523-4.375-1.592-4.375-1.592 2.5-.246c1.375-.135 3.251-.143 4.169-.016l1.669.231-.419-2.206-.419-2.206-3.692-1-3.692-1-3.183.713c-1.751.392-5.433 1.477-8.183 2.41-2.75.933-9.565 2.395-15.14 3.247l-10.145 1.55-2.122-.825-2.122-.825.778-1.276.778-1.276h2.488c1.369 0 4.148-.87 6.176-1.933l3.688-1.933v-1.234-1.234h3.165c3.807 0 11.181-2.97 12.421-5l.891-1.461-3.118-2.928c-1.715-1.61-4.03-4.716-5.146-6.902l-2.028-3.974h35.03 35.03v152 152h-200-200l.016-152m309.67 12.701l5.313-2.444v-1.057-1.057l-15.938-1.539c-8.766-.846-17.625-1.498-19.688-1.449l-3.75.09 4.375 1.706c23.18 9.04 22.731 8.95 29.688 5.75m-194.06-37.963v-6.896l-4.079-2.414-4.079-2.414-5.865 2.976-5.865 2.976-.424 1.436-.424 1.436 2.079 2.107 2.079 2.107 2.137-1.96 2.137-1.96h2.714 2.714v4.222c0 2.322.399 4.626.886 5.12l.886.898 2.551-.37 2.551-.37v-6.896"
       style="fill:#77abe0"
       id="path12" />
    <path
       d="m56.02-203.52l.019-147.52 2.17.794c1.194.437 5.306 3.333 9.138 6.437l6.968 5.643 4.907 1.906c2.699 1.048 7.438 2.176 10.532 2.506l5.625.6 1.188 1.144 1.188 1.144h6.583 6.583l4.105 1.789c2.258.984 7.48 2.433 11.605 3.219 4.125.786 9.75 2.02 12.5 2.738 2.75.72 8.094 1.777 11.875 2.35 8.157 1.235 10.664 2.132 15.528 5.552l3.653 2.569 5.571.332 5.571.332 4.834 3.395 4.834 3.395 5.317 1.09c2.924.6 8.458 1.378 12.297 1.729 3.839.351 11.151 1.732 16.25 3.069l9.27 2.431 9.757 4.538c5.366 2.496 10.277 4.538 10.913 4.538.636 0 8.19 3.455 16.786 7.677l15.629 7.677 3.457 3.708c4.671 5.01 4.968 5.292 12.848 12.234l6.89 6.07 6.621 3.101 6.621 3.101 7.526-4.192 7.525-4.192 3.471 3.37 3.471 3.37 1.655 5.321c.91 2.926 2.185 6.03 2.833 6.904l1.178 1.583h21.528 21.528l2.069-2.316 2.069-2.316v-3.297-3.297l3.817-2.754 3.817-2.754 2.258 2.071 2.258 2.071 3.145-1.212 3.145-1.212.616-4.208.616-4.208-.913-2.522-.913-2.522 1.01-3.564 1.01-3.564-2.12-2.186c-1.166-1.202-2.875-3.656-3.798-5.451l-1.679-3.265 2.616-5.196 2.616-5.196v-10.564-10.564l-1.501-1.521-1.501-1.521 1.338-4.116 1.338-4.116-.358-13.933c-.197-7.663-.405-14.299-.462-14.746-.058-.447-1.446-1.154-3.086-1.571l-2.981-.758-.552-3.812-.552-3.812h.96c.528 0 1.307.57 1.732 1.267.425.697 1.616 1.267 2.647 1.267h1.875l-.772-1.267-.772-1.267h2.324 2.324l1.366 1.384 1.366 1.384 2.552-1.384 2.552-1.384h6.957 6.957v1.267 1.267h1.875 1.875v-1.267-1.267h6.25 6.25v25.333 25.333h-1.5-1.5l1.5 1.52 1.5 1.52v125.15 125.15h-200-200l.019-147.52m309.67 8.221l5.313-2.444v-1.057-1.057l-15.938-1.539c-8.766-.846-17.625-1.498-19.688-1.449l-3.75.09 4.375 1.706c23.18 9.04 22.731 8.95 29.688 5.75m-194.06-37.963v-6.896l-4.079-2.414-4.079-2.414-5.865 2.976-5.865 2.976-.424 1.436-.424 1.436 2.079 2.107 2.079 2.107 2.137-1.96 2.137-1.96h2.714 2.714v4.222c0 2.322.399 4.626.886 5.12l.886.898 2.551-.37 2.551-.37v-6.896"
       style="fill:#a19f9b"
       id="path14" />
    <path
       d="m56.03-203.52l.031-147.52 2.159.781c1.187.43 5.531 3.542 9.653 6.916l7.495 6.135h2.024 2.024l3.377 2.692 3.377 2.692 3.354-.019 3.354-.019 1.731 1.424 1.731 1.424 8.894.785 8.894.785 7.423 3.498 7.423 3.498h6.322 6.322l2.471 1.754 2.471 1.754h2.713 2.713l.753-1.987.753-1.987 2.819.868c1.55.477 4.506 2.142 6.569 3.7 2.063 1.558 5.619 3.807 7.902 4.999l4.152 2.167 1.769-1.488 1.769-1.488 2.829.776c1.556.427 4.775 2.426 7.153 4.442l4.324 3.666-1.491 1.82-1.491 1.82 8.883 6.714 8.883 6.714 6.677-2.804 6.677-2.804 1.407.881 1.407.881-.794 4.288-.794 4.288 1.619.154c.891.085 3.869.227 6.619.317l5 .162-.22 3.37-.22 3.37 3.345.969c1.84.533 5.723 1.027 8.63 1.099l5.285.13.681-1.8c.814-2.15 1.35-1.747-5.965-4.494l-5.963-2.239-2.33-4.887-2.33-4.887.689-.698c.379-.384 1.779-.698 3.112-.698h2.423l6.222 3.167 6.222 3.167h2.838 2.838l13.214 6.316 13.214 6.316 3.533 3.885c1.943 2.137 4.612 4.852 5.931 6.03 1.319 1.182 4.694 4.215 7.5 6.74l5.102 4.591 7.907 4.03 7.907 4.03 6.674-3.817 6.674-3.817 3.256 2.595c3.877 3.09 6.324 7.667 7.438 13.914l.817 4.576 2.163 1.856c1.19 1.021 4.307 3.096 6.927 4.61l4.764 2.754 2.341-1.27c1.288-.698 3.784-1.27 5.548-1.27h3.207v1.927 1.927l-3.125 1.443-3.125 1.443v1.697 1.697h2.043c1.123 0 4.235-.666 6.915-1.479l4.873-1.479 1.46 1.479c1.927 1.953 4.798 1.811 7.649-.378l2.314-1.776-4.814-1.223c-2.648-.673-6.361-1.576-8.251-2.01l-3.438-.785v-.954c0-.525 1.95-2.02 4.333-3.319l4.333-2.365 5.568 1.58 5.568 1.58 1.349-.845 1.349-.845v-2.463-2.463l2.5-4.727c1.375-2.6 2.5-5.733 2.5-6.962v-2.235h1.851 1.851l.779 3.483c.428 1.916 1.175 5.193 1.66 7.283l.882 3.8 2.654.393 2.654.393 1.342-2.541 1.342-2.541.266-8.949.266-8.949 1.289.446 1.289.446-.421 7-.421 7 2.609 5.182 2.609 5.182v3.157c0 1.737-.625 4.547-1.389 6.245l-1.389 3.088 1.137 2.058 1.137 2.058-1.157 10.43c-.636 5.737-1.112 11.95-1.057 13.808l.1 3.377-1.741 1.464-1.741 1.464-3.421-.408-3.421-.408-2.242-3.8c-1.233-2.09-3.099-5.331-4.146-7.203l-1.904-3.403.703-1.855.703-1.855 2.726-.741c1.499-.407 3.394-.749 4.211-.758l1.485-.017-.235 3.483-.235 3.483h2.5 2.5l.375-2.663.375-2.663-3.132-2.079c-1.722-1.144-4.263-3.31-5.646-4.814l-2.514-2.735-1.261 3.36-1.261 3.36h-1.415-1.415l.674-1.781.674-1.781-2.202-2.02c-3.084-2.828-4.407-2.557-8.688 1.781l-3.75 3.8h-2.388c-1.313 0-2.73.346-3.148.77l-.76.77 1.383 2.244 1.383 2.244-3.209 5.549-3.209 5.549-6.06 5.739c-3.333 3.156-13.935 14.22-23.56 24.585-9.625 10.366-21.43 22.83-26.23 27.698-4.803 4.868-9.303 9.827-10 11.02-.697 1.192-2.274 3.969-3.505 6.17l-2.239 4 .838 1.374.838 1.374 4.913-.668 4.913-.668-.8 3.69-.8 3.69h1.11c.611 0 2.202-.837 3.537-1.86 1.334-1.023 3.27-1.869 4.301-1.881l1.875-.021-1.865 1.195-1.865 1.195 1.291 1.308 1.291 1.308 7.449-1.403c4.097-.771 9-2.228 10.901-3.236l3.452-1.833 2.505.806 2.505.805 4.294-1.436 4.294-1.436 2.561 1.389c1.409.764 2.561 1.964 2.561 2.667v1.278l-9.06-.283-9.06-.283-2.813 1.538c-1.547.846-2.813 2.05-2.813 2.675v1.137l2.5.804 2.5.804v1.815 1.815l-3.438.011c-1.891.006-6.391.371-10 .81l-6.563.799v-2.076-2.076l-1.563.008c-.859.004-3.672.601-6.25 1.326l-4.688 1.319v1.119 1.119l2.813.405 2.813.405.399 2.85.399 2.85h4.288 4.288v1.996 1.996l-9.688-.644c-5.328-.354-12.04-1.024-14.922-1.489l-5.234-.844-4.984 2.838-4.984 2.838-5.05-.686-5.05-.686-1.452 1.773-1.452 1.773h-2.303-2.303l-1.395 2.642c-1.821 3.447-1.851 3.43 8.257 4.858l8.675 1.225 7.5-1.81c4.125-.995 9.05-1.818 10.938-1.829l3.438-.021v1.131c0 1.62-2.962 2.556-11.04 3.49l-7.081.818-2.466 1.713-2.466 1.713h-5.097-5.097l-1.308-1.326-1.308-1.326-8 1.316-8 1.316-102.81.01-102.81.009.031-147.52zm232.41 50.28c.378-.512 2.598-1.625 4.933-2.474l4.246-1.543 1.146.718 1.146.718 2.109-1.869 2.109-1.869 6.25-.86c3.438-.473 7.234-1.151 8.438-1.507l2.188-.647v-1.815-1.815h-1.875-1.875v-1.322-1.322l-1.724.372-1.724.372-2.488-3.1-2.488-3.1-4.996 1.517c-2.748.834-6.445 1.517-8.215 1.517h-3.219l-.75 1.23-.75 1.23 3.086.785 3.086.785 2.59-.833 2.59-.833 2.5.804c1.375.442 2.5 1.228 2.5 1.746v.942l-6.225 1.617-6.225 1.617-7.525 4.928c-4.139 2.711-7.525 5.297-7.525 5.748v.819l4-.811c2.2-.446 4.31-1.23 4.688-1.742m66.888-28.08c.398-.653 2.468-2.068 4.601-3.146l3.877-1.96 1.177.737 1.177.737 2.421-2.22 2.421-2.22v-1.957-1.957l1.355 1.374 1.355 1.374 2.465-.653 2.465-.653-.757-1.998-.757-1.998 2.726-2.084 2.726-2.084-1.199-3.644-1.199-3.644-4.574-1.096-4.574-1.096-5.608 2.751-5.608 2.751-2.846-.885c-1.566-.487-3.508-1.42-4.316-2.073l-1.47-1.189-1.664.387c-.915.213-5.04-.747-9.155-2.134l-7.491-2.521-1-1.589-1-1.589h-1.751-1.751l-1.158 2.098-1.158 2.098-11.322-.743-11.322-.743-1.484 1.812-1.484 1.812h-2.097c-1.153 0-2.772-.684-3.597-1.52l-1.5-1.52.04 1.203c.022.662.843 2.279 1.826 3.594l1.786 2.39 5.987.297c8.856.44 28.635 4.188 37.501 7.107l7.764 2.556 2.861 3.058 2.861 3.058 2.114.022c1.163.013 2.391.477 2.73 1.032l.616 1.01-.855 1.299c-.47.714-1.839 1.667-3.043 2.116l-2.188.818v1.306c0 1.631 2.104 1.714 3.076.12m-182.05-46.63l1.334-3.483-.87-4.883-.87-4.883-4.433-2.604-4.433-2.604-5.938 2.298-5.938 2.298-1.235 2.338-1.235 2.338 1.293 2.448 1.293 2.447 2.627.845 2.627.845 1.374-1.393c.756-.766 1.806-1.393 2.335-1.393h.961l-.616 1.628-.616 1.628 2.579 2.805 2.579 2.805h2.925 2.925l1.334-3.483m261.47 170.41v-.997h1.842 1.842l-.499-6.02c-.274-3.309-.849-10.577-1.276-16.15l-.778-10.133-1.898-7.6c-1.044-4.18-2.742-10.253-3.773-13.495-1.031-3.242-1.742-6.662-1.58-7.6.604-3.494-1.819-14.774-5.944-27.672-2.34-7.315-4.602-15.765-5.03-18.777l-.774-5.477 4.119.411 4.119.411 1.345 2.533c.74 1.393 2.625 4.559 4.189 7.03 1.564 2.476 2.844 5.435 2.844 6.575v2.074l1.305.817 1.305.817 1.82-1.531 1.82-1.531v3.797c0 2.088.352 5.578.781 7.755l.781 3.958h1.155 1.155l2.343-5.302 2.343-5.302-.703-10.996-.703-10.996 2.02-4.105 2.02-4.105-1.222-2.313-1.222-2.313v-3.78c0-2.079.34-4.678.756-5.776l.756-1.996 1.046.655 1.046.655.87 8.947.87 8.947.958-1.57.958-1.57-.192 3.239-.192 3.239-.938-.587-.938-.587v3.95 3.95l1.563-.951 1.563-.951-1.51 1.892-1.51 1.892.77 2.982.77 2.982-1.447-.906-1.447-.906-.033 9.891c-.018 5.44-.353 14.244-.745 19.564l-.712 9.673 1.649 2.994 1.649 2.994.807-4.433.807-4.433.165 33.914.165 33.914-10.625-.301-10.625-.301v-.997m.859-201.95l-.859-.871v-6.111-6.111l-2.5-1.582c-3.184-2.01-3.16-3.036.094-3.898l2.594-.687-1.347-2.55-1.347-2.55 1.308-.819 1.308-.819 1.851 1.556 1.851 1.556.773-.783.773-.783-1.308-1.614c-.72-.888-1.505-3.039-1.745-4.781l-.436-3.167-2.851.309-2.851.309-.751-1.984-.751-1.984 2.696-3.695 2.696-3.695-.813-3.497-.813-3.497-2.856-3.167-2.856-3.167-.348-2.533c-.191-1.393.097-3.873.641-5.511l.989-2.978-1.374-1.392c-.756-.766-1.374-2.134-1.374-3.039v-1.647h2.583 2.583l-.396-3.483-.396-3.483-1.25.443-1.25.443.345 1.239.345 1.239-2.22-.439-2.22-.439-.064-3.203-.064-3.203-2.024-2.928-2.024-2.928-1.374.861-1.374.861-4.216-1.41-4.216-1.41-.543-3.747c-.621-4.286-.174-4.55 2.91-1.723l2.207 2.024 1.349-.845 1.349-.845-.719-1.179-.719-1.179h1.699c.934 0 2.313.623 3.065 1.384l1.366 1.384 2.692-1.46 2.692-1.46 3.045 2.926 3.045 2.926.022 4.75.022 4.75h2.58 2.58l-.392-4.065-.392-4.065 6.875-3.454 6.875-3.454 2.813-.08 2.813-.08v24.775 24.775l-1.25-.783-1.25-.783v1.9c0 1.045.563 2.252 1.25 2.683.688.431 1.25 1.353 1.25 2.05v1.267l-1.25-.783-1.25-.783v1.341 1.341h1.25 1.25v1.794 1.794l-1.563.739-1.563.739 1.563.739 1.563.739v4.961 4.961h-2.069-2.069l2.332 2.611 2.332 2.611-1.825 1.17c-1 .644-2.528 1.179-3.388 1.189l-1.563.019v2.474c0 1.361-.639 3.895-1.42 5.632l-1.42 3.159-3.261.384-3.261.384-.631 3.695-.631 3.695-1.328.447c-.731.246-1.715.056-2.188-.423"
       style="fill:#9c8b6e"
       id="path16" />
    <path
       d="m56.03-203.49l.031-147.54 2.159.781c1.187.43 5.531 3.542 9.653 6.916l7.495 6.135h2.024 2.024l3.377 2.692 3.377 2.692h3.324 3.324l2.843 1.888 2.843 1.888 6.562-.004 6.562-.004 5 1.955c2.75 1.075 5.844 2.677 6.875 3.56 1.031.883 4.254 2.434 7.163 3.447l5.288 1.841 1.428-1.743c1.986-2.425 4.096-2.177 6.747.79l2.262 2.533h2.931 2.931v1.787 1.787l5.395 2.646c9.353 4.588 10.622 3.549 3.668-3l-4.688-4.416-2.292-.034-2.292-.034.554-1.583.554-1.583 2.903.343 2.903.343 3.834 2.953c2.109 1.624 5.703 3.928 7.987 5.12l4.152 2.167 1.769-1.488 1.769-1.488 2.829.776c1.556.427 4.775 2.426 7.153 4.442l4.324 3.666-1.481 1.808-1.481 1.808 8.781 6.765 8.781 6.765 6.769-2.843 6.769-2.843 1.407.881 1.407.881-.794 4.288-.794 4.288 1.619.198c.891.109 3.869.252 6.619.317l5 .118-.222 3.383-.222 3.383 2.097.86c1.153.473 5.01 1.041 8.565 1.263l6.468.403.749-1.978c.891-2.352 1.442-1.915-5.898-4.671l-5.963-2.239-2.33-4.887-2.33-4.887.689-.698c.379-.384 1.779-.698 3.112-.698h2.423l6.222 3.167 6.222 3.167h2.838 2.838l13.214 6.316 13.214 6.316 3.533 3.885c1.943 2.137 4.612 4.852 5.931 6.03 1.319 1.182 4.694 4.215 7.5 6.74l5.102 4.591 7.907 4.03 7.907 4.03 6.674-3.817 6.674-3.817 3.256 2.595c3.909 3.116 6.324 7.672 7.472 14.09l.85 4.755 3.695 2.768 3.695 2.768-1.154.722c-.635.397-1.54 2.284-2.01 4.193l-.86 3.471h5.31 5.31l1.605 2.217 1.605 2.217-1.973 2.217-1.973 2.217h-3.403-3.403l-1.602-1.956-1.602-1.956-3.238.647-3.238.647-3.75-1.755-3.75-1.755 2.114-.103c1.163-.057 2.477-.698 2.92-1.425l.806-1.322-1.483-1.811-1.483-1.811-3.636 1.905-3.636 1.905-2.355-1.277-2.355-1.277-3.24 2.583-3.24 2.583-4.623-.394-4.623-.394-.976-3.725-.976-3.725 1.347-1.645 1.347-1.645.991.621.991.621-.686 2.66-.686 2.66 2.352-.459 2.352-.459.419-2.206.419-2.206-3.746-3.796-3.746-3.796h-6.912-6.912l-3.218-1.486-3.218-1.486-1.466 1.486-1.466 1.486 1.266 1.283 1.266 1.282 7.422.997 7.422.997-.355 1.65c-.195.908-.426 3.544-.512 5.858l-.156 4.208-2.613.814c-1.437.447-6.784 1.065-11.881 1.371l-9.267.558-2.849-1.892-2.849-1.892-6.01-.768c-3.305-.422-7.837-.756-10.07-.742l-4.063.027.044-.86c.024-.473.848-2.285 1.831-4.03.983-1.742 1.799-3.737 1.815-4.433l.029-1.267-4.072-2.671-4.072-2.671-2.697 1.815-2.697 1.815-2.413-1.309-2.413-1.309-13.615-.785-13.615-.785 1.835 1.296 1.835 1.296 8.165.818 8.165.818 8.427 2.47 8.427 2.47 2.386-1.294 2.386-1.294.711 1.877.711 1.877h-3.502c-1.926 0-3.879.381-4.339.847l-.836.847 2.029 2.272 2.029 2.272-.736 1.945-.736 1.945-15.668-.558c-8.617-.307-16.229-.909-16.915-1.339l-1.248-.781v1.241 1.241l3.438.724c4.925 1.037 43.854 3.251 57.41 3.265l11.473.013 2.123 2.151 2.123 2.151 7.03.906c3.866.498 12.935 1.786 20.15 2.861l13.13 1.955 5.625 2c3.094 1.102 6.619 2.764 7.834 3.693l2.209 1.69-.716 1.889-.716 1.889-3.115 1.438c-1.713.791-4.495 1.438-6.181 1.438h-3.066v2.28 2.28l-1.5 1.52-1.5 1.52h-3.099c-1.704 0-4.899.66-7.099 1.466l-4 1.466-5.172-2.097-5.172-2.097-2.167 1.117c-4.552 2.346-8.561 3.827-12.448 4.599l-4.03.801-4.475-1.64-4.475-1.64-1.045 1.713-1.045 1.713-4.567-.868-4.567-.868-2.445.786c-1.345.433-2.445 1.262-2.445 1.844v1.057l3.75 1.325 3.75 1.325v1.416c0 .779-.611 2.573-1.358 3.986l-1.358 2.571-4.435-.843-4.435-.843.698 1.844.698 1.844-1.901 2.751-1.901 2.751-2.692-.389-2.692-.389-.379-2.693-.379-2.693-2.972-2.829-2.972-2.829-5.52 2.136-5.52 2.136.58 3.076.58 3.076-1.446 1.766-1.446 1.766-4.638-.073-4.638-.073-2.164-1.875-2.164-1.875-1.898 1.597-1.898 1.597v2.937 2.937l-1.305.817-1.305.817-1.78-1.497-1.78-1.497.273-1.304.273-1.304-1.497-.558-1.497-.558.247 3.567.247 3.567-4.375-.477c-2.406-.262-6.344-.547-8.75-.633l-4.375-.156v2.533 2.533l2.813.405 2.813.405v3 3l-1.44.902-1.44.902-1.511-2.094c-.831-1.151-2.152-2.094-2.935-2.094h-1.425v1.182 1.182l-3.75-.108-3.75-.108-5.225 5.893-5.225 5.893h-1.796-1.796l.754 2.85c.415 1.567.761 3.278.771 3.8l.017.95h2.347 2.347l1.556-1.9c.856-1.045 1.99-1.9 2.521-1.9h.965l-.18 3.483-.18 3.483-3.104 2.722-3.104 2.722-3.785-.622-3.785-.622-2.367 2.65-2.367 2.65h-3.482-3.482l-.773 1.267-.773 1.267h-2.898-2.898l-1.392 1.7-1.392 1.7.822.834c1.371 1.389 6.1.94 10.727-1.019l4.376-1.853.737-1.947.737-1.947h10.53 10.53l.711-1.879.711-1.879 2.02.784 2.02.784 5.22-1.57c2.871-.864 6.584-2.114 8.251-2.779l3.03-1.209 3.575 2.678 3.575 2.678 2.34-.753 2.34-.753.648-1.712.648-1.712-3.741-.758-3.741-.758.868-1.423.868-1.423 6.354.854 6.354.854-2.36-2.642-2.36-2.642 1.158-.99c.637-.544 3.303-2.583 5.926-4.53l4.768-3.54 2.732.856c1.503.471 4.975 1.14 7.715 1.486 2.741.347 5.603 1.152 6.361 1.789l1.378 1.159 7.938-3.153c4.366-1.734 8.445-3.153 9.06-3.153.619 0 2.181-1.282 3.471-2.85l2.346-2.85.042-2.129.042-2.129-2.715-.405-2.715-.405-.474-1.459-.474-1.459 4.01-2.025 4.01-2.025h5.515 5.515l2.418-1.311 2.418-1.311 2.205 1.196 2.205 1.196 5.608-1.041 5.608-1.041 1.599 1.342 1.599 1.342 3.147-1.453 3.147-1.453h3.691 3.691v3.167c0 3.88.336 3.905 4.223.317 1.697-1.567 4.781-4.417 6.852-6.333l3.766-3.483h1.994 1.994l.805-2.217c.443-1.219 2.216-3.569 3.94-5.222l3.135-3.01 3.653-1.062 3.653-1.062-.741 2.8c-.408 1.54-.749 3.242-.758 3.782-.01.54-1.283 1.536-2.83 2.214-1.547.678-3.797 1.804-5 2.502-1.203.698-3.172 1.74-4.375 2.315l-2.188 1.045-1.788 4.02-1.788 4.02h-1.456c-.801 0-2.395 1.052-3.544 2.338l-2.088 2.338.332 3.041.332 3.041-2.813.409-2.813.409v1.657c0 .911-.844 2.366-1.875 3.234l-1.875 1.577v-1.39-1.39l-4.063.775-4.063.775-2.188 1.922c-1.203 1.057-2.188 2.471-2.188 3.141v1.218l3.224-.624 3.224-.624.698 1.843.698 1.843-3.887 5.588-3.887 5.588.724 1.912.724 1.912h-1.377c-1.49 0-12.641 10.694-12.641 12.12v.869l5.156-.836c2.836-.46 6.247-1.427 7.581-2.15l2.424-1.315-1.411-1.723-1.411-1.723 2.867-1.555c1.577-.855 3.622-2.32 4.545-3.255.923-.935 2.481-1.7 3.463-1.7h1.786v1.192c0 .656-.563 1.544-1.25 1.975-.688.431-1.25 1.514-1.25 2.408v1.625l10.37-.199 10.37-.199 1.516-.949 1.516-.949 2.615.841 2.615.841-1.376 1.394c-.757.767-1.376 1.85-1.376 2.407v1.013h2.426 2.426l.885 1.451.885 1.451-3.152-.802-3.152-.802-3.957 2-3.957 2-1.827-.71-1.827-.71v-1.94-1.94h-2.475c-1.361 0-4.736.917-7.5 2.037l-5.03 2.037v1.041 1.041l2.813.405 2.813.405.399 2.85.399 2.85h3.589 3.589l.717 1.175.717 1.175-2.518.81-2.518.81-2.813-.961c-1.547-.529-3.765-.822-4.928-.651l-2.116.31-9.403-3.382-9.403-3.382-3.169.806-3.169.806v1.243 1.243h2.292c1.26 0 2.662.375 3.114.834l.822.834-1.392 1.7-1.392 1.7h-4.261-4.261l-.719-1.9c-1.084-2.862-2.221-2.391-8.472 3.508l-5.73 5.408v2.101 2.101l7.188.809 7.188.809 2.908 1.449 2.908 1.449-2.283.912c-1.256.501-3.83.952-5.721 1l-3.438.089v-1.379-1.379l-7.813.868-7.813.868-104.69.532-104.69.532.031-147.54zm60.41 111.22l6.378-4.256h2.688 2.688l1.556-1.9 1.556-1.9h2.273 2.273l.787-1.291.787-1.291 5.224.045c2.873.025 6.768.013 8.656-.028l3.432-.072 1.903-3.729 1.903-3.73-1.519-2.464-1.519-2.464 3.059-2.58 3.059-2.58 2.227-.042 2.227-.042.699-2.217c.833-2.641 2.899-7.797 4.193-10.466l.929-1.916-1.035-2.834-1.035-2.834h-1.915-1.915v-1.185-1.185l7.5.489 7.5.489v-1.13c0-2.06-3.03-3.165-12.5-4.565l-9.375-1.385-1.563.571c-.859.314-1.563 1.018-1.563 1.564v.994l3.125.795 3.125.795v3.052 3.052l1.875 1.9c2.507 2.54 2.376 2.933-.938 2.815l-2.813-.101.346 3.392.346 3.392-3.667 2.195-3.667 2.195.611 1.612.611 1.612-7.01 3.251-7.01 3.251h-2.494-2.494l-1.188-3.167-1.188-3.167-2.218.019c-1.22.01-2.998.519-3.95 1.13l-1.731 1.111 2.815 1.526 2.815 1.526-1.939 1.965-1.939 1.965-3.902-1.638-3.902-1.638-1.389 1.408-1.389 1.408 2.397.878c2.892 1.059 6.772 4.928 6.772 6.752v1.32h-2.347-2.347l-1.494 1.825-1.495 1.825-1.594-.62-1.594-.62-4.677 4.179c-2.572 2.298-5.218 5.194-5.88 6.436l-1.203 2.257 3.347-.851c1.841-.468 6.217-2.766 9.725-5.108m57.44-136.27l.668-2.883-.847-5-.847-5-4.03-2.386-4.03-2.386-3.508.781c-1.929.429-5.313 1.893-7.52 3.253l-4.01 2.472v2.48 2.48l2.778 1.972 2.778 1.972h2.546 2.546l1.597 2.592 1.597 2.592 2.766 1.059 2.766 1.059 2.044-1.084 2.044-1.084.668-2.883m269.16 169.7c-.415-1.568-.761-5.486-.771-8.707l-.017-5.857-1.839-5.283c-1.012-2.906-2.212-8.25-2.668-11.876-.455-3.626-1.356-7.631-2-8.9-1.689-3.319-5.04-16.04-5.397-20.493-.582-7.235-3.321-22.811-4.454-25.333-2.361-5.255-6.079-17.847-6.109-20.689l-.031-2.956 1.563.508c.859.28 3.396 3.32 5.637 6.756l4.074 6.247-.542 1.436-.542 1.436 4.28 3.84 4.28 3.84v3.935 3.935l2.82 1.302 2.82 1.302 2.805 4.938c1.543 2.716 2.805 5.796 2.805 6.844 0 5.437 4.326 10.404 5.349 6.142.293-1.219.63 11.891.749 29.13l.217 31.35h-6.137-6.137l-.754-2.85m-120.73-93.35l-1.817-1.164 1.408-2.932c.774-1.613 1.743-4.5 2.154-6.416l.746-3.483h1.851 1.851v-1.234-1.234l3.75-1.965c2.063-1.081 3.75-1.645 3.75-1.255 0 .391 1.047.142 2.327-.552l2.327-1.262 2.58 2.801 2.58 2.801-2.972 3.483-2.972 3.483h-3.185-3.185v1.179 1.179l-2.761.405-2.761.405-.711 3.073-.711 3.073-1.216.39c-.668.214-2.033-.134-3.03-.774m99.26-52.32l-1.194-4.11-3.125-.432-3.125-.432-2.161-1.957-2.161-1.957-.785 2.072-.785 2.072h-1.608-1.608l-.719-1.9-.719-1.9h-2.265-2.265l-1.416-3.802-1.416-3.802-2 .779-2 .779-6.855-.868-6.855-.868.007-.859c.004-.472 1.66-1.811 3.68-2.976l3.672-2.117 2.883.742c1.586.408 4.163 1.578 5.728 2.6l2.844 1.859 2.347-2.153 2.347-2.153 2.308 4.059 2.308 4.059 6.226 2.954 6.226 2.954 1.068-1.082 1.068-1.082-.418-2.983-.418-2.983-2.5-.362c-1.375-.199-4.609-1.01-7.188-1.799l-4.688-1.437-.014-3.914c-.007-2.153-.309-5.909-.67-8.347l-.657-4.433 1.295-1.9 1.295-1.9 1.231 1.9 1.231 1.9.019 4.497.019 4.497 1.5 1.52 1.5 1.52h2.906 2.906l1.219-3.249c.671-1.787 1.277-4.78 1.347-6.65l.128-3.401.991 4.248c.545 2.337 1.995 6.504 3.221 9.261l2.231 5.01-2.179 3.738-2.179 3.738.931 2.835c1.065 3.243.698 9.978-.621 11.378l-.888.943-1.194-4.11m14.613-61.932l-.147-6.622 3.87-3.274 3.87-3.274-2.687-4.847-2.687-4.847 1.386-1.692 1.386-1.692-1.381-2.614-1.381-2.614h-1.685-1.685l-.688 2.667-.688 2.667-1.645-.555-1.645-.555-.36-1.88-.36-1.88 2.698-3.476 2.698-3.476 1.901.739 1.901.739 2.39-.769 2.39-.769-1.218-1.487c-1.774-2.167-5.125-12.399-5.146-15.717l-.018-2.85h-1.729-1.729l-.674 2.613-.674 2.613 1.779 4.313c.978 2.372 1.779 5.187 1.779 6.254v1.941h-1.25-1.25v-2.147-2.147l-3.02-3.236-3.02-3.236-.252-2.533c-.139-1.393-.188-3.279-.108-4.191l.144-1.658 1.25.783 1.25.783v-1.82-1.82l-1.875-1.577-1.875-1.577v-1.745-1.745h1.482c.815 0 2.86 1.283 4.545 2.85l3.063 2.85-.819-6.505-.819-6.505 1.899-.738 1.899-.738v-5.01-5.01l7.03-3.26c3.864-1.793 8.08-3.26 9.375-3.26h2.349v24.775 24.775l-1.25-.783-1.25-.783v1.9c0 1.045.563 2.252 1.25 2.683.688.431 1.25 1.353 1.25 2.05v1.267l-1.25-.783-1.25-.783v1.341 1.341h1.25 1.25v1.794 1.794l-1.563.642-1.563.642 1.296 1.046 1.296 1.046.363 4.75.363 4.75h-1.096c-.603 0-1.771-.684-2.596-1.52l-1.5-1.52v1.737c0 .955.87 2.711 1.933 3.901l1.933 2.164-3.183.81-3.183.81v4.254 4.254l-1.82 1.531-1.82 1.531-1.138-.712-1.138-.712-2.125 2.379-2.125 2.379.395 2.209.395 2.209-1.398.498-1.398.498-.147-6.622m-12.23-73.911l-.719-1.9.615-1.625.615-1.625-2.322-2.905-2.322-2.905-1.309.82-1.309.82-4.216-1.41-4.216-1.41-.543-3.747c-.621-4.286-.174-4.55 2.91-1.723l2.207 2.024 1.349-.845 1.349-.845-.719-1.179-.719-1.179h1.699c.934 0 2.313.623 3.065 1.384l1.366 1.384 2.72-1.475 2.72-1.475 3.039 3.323 3.039 3.323v5.149 5.149l-2.63-.697-2.63-.697.582 3.082.582 3.082h-1.741-1.741l-.719-1.9"
       style="fill:#8a7661"
       id="path18" />
    <path
       d="m56.21-64.17l.298-8.173 2.558.256 2.558.256v-1.9-1.9l-2.852.309-2.852.309.131-102.11.131-102.11 1.471-1.696 1.471-1.696 11.875-4.01c6.531-2.205 12.438-4.569 13.13-5.255l1.25-1.246-12.1.882-12.1.882-2.583-.831-2.583-.831v-29.01-29.01l2.188.792c1.203.436 5.56 3.553 9.682 6.927l7.495 6.135h2.024 2.024l3.377 2.692 3.377 2.692h3.324 3.324l2.843 1.888 2.843 1.888 6.562-.004 6.562-.004 5 1.955c2.75 1.075 5.872 2.706 6.937 3.625 1.065.919 4.263 2.502 7.105 3.518l5.168 1.848 1.486-1.814c2.043-2.494 4.132-2.273 6.805.719l2.262 2.533h2.345 2.345l.692 1.828.692 1.828 4.932 2.605c9.08 4.797 10.813 3.453 3.917-3.044l-4.688-4.416-2.292-.034-2.292-.034.554-1.583.554-1.583 2.903.343 2.903.343 3.834 2.953c2.109 1.624 5.703 3.928 7.987 5.12l4.152 2.167 1.769-1.488 1.769-1.488 2.829.776c1.556.427 4.775 2.426 7.153 4.442l4.324 3.666-1.481 1.808-1.481 1.808 8.781 6.765 8.781 6.765 6.769-2.843 6.769-2.843 1.407.881 1.407.881-.794 4.288-.794 4.288 1.619.198c.891.109 3.869.252 6.619.317l5 .118-.222 3.383-.222 3.383 2.097.86c1.153.473 5.01 1.041 8.565 1.263l6.468.403.749-1.978c.891-2.352 1.442-1.915-5.898-4.671l-5.963-2.239-2.33-4.887-2.33-4.887.689-.698c.379-.384 1.779-.698 3.112-.698h2.423l6.222 3.167 6.222 3.167h2.838 2.838l13.214 6.316 13.214 6.316 3.533 3.885c1.943 2.137 4.612 4.852 5.931 6.03 1.319 1.182 4.694 4.215 7.5 6.74l5.102 4.591 7.907 4.03 7.907 4.03 6.674-3.817 6.674-3.817 3.256 2.595c3.898 3.107 6.324 7.67 7.461 14.03l.839 4.695 4.02 3.208 4.02 3.208-1.875.207c-1.031.114-2.719.265-3.75.336l-1.875.129v4.31 4.31l-1.452.502-1.452.502-3.111-5.287-3.111-5.287-1.418 2.686-1.418 2.686h-1.688c-.928 0-3.299-.852-5.269-1.894l-3.58-1.894-.362 2.241-.362 2.241-3.772 1.692-3.772 1.692-.855-.867-.855-.867 2.177-1.235 2.177-1.235v-2.01-2.01l2.05-1.519 2.05-1.519-1.254-2.27-1.254-2.27-12.263-.54-12.263-.54-2.33-1.264-2.331-1.264-2.453.789-2.453.789.019 1.498c.01.824.51 2.284 1.11 3.244l1.091 1.746 1.498-.938 1.498-.938 4.818 2.202 4.818 2.202.534 1.425.534 1.425-1.046 2.85-1.046 2.85-1.603.157c-.882.087-5.54.308-10.353.493l-8.75.335-2.813-1.788-2.813-1.788v-3.02-3.02l-2.626.696-2.626.696.439-2.262.439-2.262 1.875-.994c1.031-.547 2.946-1.336 4.254-1.754l2.379-.76-1.826-1.548c-1-.852-3.2-3.682-4.879-6.29-3.188-4.952-4.256-5.618-5.565-3.473-.431.707-2.714 2.103-5.074 3.102l-4.289 1.816v1.965 1.965h-1.722-1.722l-1.591-1.942-1.591-1.942-2.743 2.611-2.743 2.611-2.101-.817-2.101-.817 1.46-1.783 1.46-1.783-.705-.714-.705-.714-3.863 2.894-3.863 2.894-4.258-1.56-4.258-1.56-8.838-.271-8.838-.271-1.162-3.377-1.162-3.377.835-.943.835-.943-2.237.815-2.237.815-2.381-1.507-2.381-1.507-2.497 2.29-2.497 2.29-6.636.93-6.636.93 1.875.733c1.031.403 7.219 1.957 13.75 3.452 6.531 1.495 13 3.02 14.375 3.382 1.375.364 6.819.925 12.1 1.246l9.597.583 6.638 2.16 6.638 2.16.456 2.533c.251 1.393 1.305 3.504 2.343 4.69l1.886 2.157-2.953.596c-5.24 1.057-16.441.539-27.18-1.257-5.762-.964-11.809-1.752-13.438-1.752h-2.961l.019.95c.01.523.457 1.648.991 2.501l.972 1.551 8.696 1.235c4.783.679 18.944 1.845 31.468 2.59 12.525.745 23.648 1.696 24.719 2.113l1.947.757-1.369 1.671-1.369 1.671 1.433 2.713 1.433 2.713 1.881-.732c1.035-.402 2.679-.732 3.654-.732h1.773v-2.28-2.28l-1.5-1.52-1.5-1.52h6.25 6.25l1.497 1.517 1.497 1.517 8.44 1.015c4.642.558 13.221 1.57 19.07 2.248 24.02 2.788 32.698 7.148 25.12 12.616l-3.63 2.62h-3.099-3.099l-.61 2.364-.61 2.364-6.879 2.193-6.879 2.193-2.344-.486-2.344-.486.184-4.071c.101-2.239.066-4.071-.078-4.071-.144 0-2.591 1.14-5.436 2.533l-5.174 2.533h-3.417-3.417l-2.85 2.713-2.85 2.713-3.996-1.961-3.996-1.961-1.655.644-1.655.644-1.153-3.074-1.153-3.074-3.172-2.106-3.172-2.106 2.023 3.572 2.023 3.572-.859 2.268-.859 2.268-3.925-.796-3.925-.795-3.48 3.95c-3.395 3.853-8.916 7.465-11.41 7.465h-1.243l.784-3.167.784-3.167h-4.438-4.438l-.72-1.9-.72-1.9h-3.127-3.127l.857 3.46c.999 4.03 1.01 4.09.812 6.99l-.148 2.217h-1.786c-.982 0-2.668.895-3.748 1.988l-1.962 1.988 1.349 2.554 1.349 2.554-.637.645-.637.645-3.924-.873-3.924-.873-.678-1.79-.678-1.79 2.01-3.112 2.01-3.112v-2.503-2.503l-1.343-.841-1.343-.841-3.089 2.94-3.089 2.94-2.131-1.362c-1.172-.749-2.131-1.965-2.131-2.702 0-.737-.422-1.767-.938-2.29l-.938-.95v3.223 3.223l-1.655 1.392-1.655 1.392-1.47-1.49-1.47-1.49v-3.064-3.064l-4.336 3.351-4.336 3.351-2.999-.763-2.999-.763-3.291 3.09-3.291 3.09v1.997c0 1.098-.524 2.325-1.164 2.725l-1.164.729-.736-1.207c-.895-1.468-8.186-5.262-8.186-4.26 0 .392.9 1.38 1.999 2.195l1.999 1.481-3.139 4.687-3.139 4.687-3.837-3.272-3.837-3.272-2.836.911c-1.56.501-4.982 2.284-7.606 3.962l-4.771 3.051 2.541 4.364 2.541 4.364h-1.95-1.95l-.654-2.533-.654-2.533h-2.28-2.28l-.89 1.459-.89 1.459 1.831 1.391c1.01.765 2.226 2.456 2.709 3.758l.878 2.367-4.482 4.283c-2.465 2.356-5 4.283-5.643 4.283h-1.161v-1.794-1.794l1.563-.659 1.563-.659-2.426-1.98-2.426-1.98h-2.968c-1.633 0-4.099.613-5.48 1.362l-2.512 1.362.829 4.971.829 4.971h-5.02-5.02l-2.024-2.051-2.024-2.051-.667.676-.667.676 1.351 2.558c.743 1.407 1.351 3.385 1.351 4.394v1.835l-2.594.687-2.594.687 1.371 2.596 1.371 2.596-3.465.77c-1.906.424-4.204 1-5.107 1.289l-1.642.519.866 1.42.866 1.42 4.838-.658 4.838-.658v.807c0 .444-3.21 3.809-7.132 7.48l-7.132 6.673-1.93.008-1.93.008-2.224 3.959-2.224 3.959-5.469-.76-5.469-.76-1.589 1.941-1.589 1.941-2.814-.716-2.814-.716-2.647 3.41-2.647 3.41 2.868 1.613 2.868 1.613 4.639.045 4.639.045 2.236-2.37 2.236-2.37 5-1.585c2.75-.872 5.844-2.079 6.875-2.684 1.031-.604 3.962-2.245 6.513-3.645l4.638-2.546h3.904 3.904l-.493 1.5-.493 1.5-6.101 2.068-6.101 2.068-2.489 3.378-2.489 3.378.803.814.803.814 10.363-3.593c10.864-3.767 15.405-6.303 16.593-9.267l.711-1.775-2.637-2.49-2.637-2.49-1.396 1.414c-.768.777-2.127 1.414-3.02 1.414h-1.625v-1.612-1.612l4.247-2.318 4.247-2.318 2.94 2.963c1.617 1.629 3.649 4.33 4.516 6l1.576 3.038-1.3 1.588-1.3 1.588 1.488 3.308c.818 1.82 1.953 3.308 2.522 3.308h1.035l-.298-2.798-.298-2.798 2.291-.482 2.291-.482-1.484 2.81-1.484 2.81 3.568-.652c3.611-.659 10.13-2.861 14.957-5.05l2.639-1.198 2.673 1.692 2.673 1.692 2.483-1.571 2.483-1.571h4.258 4.258l.769-2.031.769-2.031 1.878.73 1.878.73 3.736-.757 3.736-.757v-1.587c0-2.367-2.572-3.999-7.813-4.956l-4.688-.856v1.883 1.883l-1.432.897-1.432.897.782-3.156.782-3.156-2.951-1.6-2.951-1.6-3.779.841-3.779.841-.869-1.425-.869-1.425.713-.722.713-.722 9.419.221 9.419.221 5.931-2.161 5.931-2.161 10.657-.268 10.657-.268 6.03-3.874 6.03-3.874 2.69 1.019 2.69 1.019 7.955-.355 7.955-.355 1.358-1.376c1.912-1.938 4.672-1.71 7.183.593l2.147 1.969 10.622-2.602c5.842-1.431 11.188-2.602 11.88-2.602h1.258l.78 2.061.78 2.061-1.425 1.74-1.425 1.74h2.028 2.028v-1.331-1.331l4.644-1.966c2.554-1.082 5.241-2.793 5.971-3.804l1.326-1.838 4.832-.455 4.832-.455 2.947 1.361c3.736 1.725 3.705 2.897-.178 6.543l-3.125 2.935v1.997 1.997l-1.563 1.025-1.563 1.025h-5.625-5.625l-.288 1.233-.288 1.233 4.351-.38 4.351-.38v1.143c0 .629-1.406 2.482-3.125 4.118-1.719 1.636-3.125 3.456-3.125 4.045v1.07l3.438-.784c1.891-.431 5.572-1.326 8.18-1.988l4.742-1.203 1.063-2.786c.584-1.532 2.526-4.166 4.315-5.852l3.253-3.066.895.907.895.907-1.515 2.459c-.833 1.352-1.515 2.682-1.515 2.954 0 .273 4.959.379 11.02.236l11.02-.26 1.492-.934 1.492-.934 2.615.841 2.615.841-1.376 1.394c-.757.767-1.376 1.85-1.376 2.407v1.013h2.5 2.5v1.291 1.291l-2.989-.76-2.989-.76-.835 1.369-.835 1.369h-4.301-4.301v-1.9-1.9h-3.083-3.083l-4.417 2.135c-2.43 1.174-4.417 2.559-4.417 3.079v.944l2.813.405 2.813.405.399 2.85.399 2.85h3.767 3.767l-.539 1.583-.539 1.583-3.628-.32c-1.995-.176-4.897-.325-6.448-.33-1.551-.005-6.581-1.445-11.179-3.198l-8.359-3.188-7.571.811-7.571.811-3.03 1.933c-4.715 3.01-8.71 7.879-11.276 13.757l-2.348 5.379-3.547 1.836-3.547 1.836-31.402.184-31.402.184.152-2.855.152-2.855-2.026-.402-2.026-.402-.654 2.534-.654 2.534 1.43.617 1.43.617-17.12-.04-17.12-.04-.691-1.466-.691-1.466-.729 1.583-.729 1.583h-51.814-51.814l.298-8.173m172.29 5.601v-1.228h4.479 4.479l-.573-1.583-.573-1.583 3.106-3.38 3.106-3.38-.886-1.452-.886-1.452-2.063 1.884-2.063 1.884-7.5 1.06-7.5 1.06-.002 2.505-.002 2.505-2.155.42-2.155.42 1.492 1.618 1.492 1.618 4.102.156 4.102.156v-1.228m-54.846-168.79c.085-.846.34-4.271.567-7.61l.412-6.071-4-2.474-4-2.474-3.878-.005-3.878-.005-4.239 2.895-4.239 2.894-.431 2.266-.431 2.266 2.178 2.439c1.198 1.341 2.892 2.439 3.764 2.439.872 0 3.175 1.356 5.119 3.01 1.943 1.657 4.658 3.267 6.03 3.578l2.5.566 2.188-1.09 2.188-1.09.155-1.539m272.36 169.48l-1.543-1.884.613-1.62.613-1.62-1.807-8.213c-.994-4.517-2.37-10.778-3.058-13.913-1.435-6.538-2.422-14.317-2.439-19.2l-.011-3.371-1.69-.657-1.69-.657-1.511-4.639-1.511-4.639 1.308-1.325 1.308-1.325 5.27-.301 5.27-.301 2.892 3.327c1.591 1.83 2.91 3.754 2.932 4.277l.039.951h-4.222-4.222l-1.635 1.996-1.635 1.996 1.662 1.041 1.662 1.041 4.908-.256 4.908-.256.989-1.621.989-1.621.841 2.222.841 2.222-1.605 1.148-1.605 1.148 1.55.638 1.55.638-.038 23.332-.038 23.332h-4.172-4.172l-1.543-1.884m-2.127-226.43l-1.011-1.583-.122-5.067c-.067-2.787-.554-6.348-1.083-7.915l-.961-2.848 2.958.017c1.627.009 3.801-.09 4.833-.221l1.875-.238.546-6.431c.3-3.537.576-9.188.613-12.558l.067-6.128-2.175-1.612-2.175-1.612-.019-3.66-.019-3.66-1.212 1.9-1.212 1.9-.019 5.862-.019 5.862-1.815 1.526-1.815 1.526-1.935-4.693-1.935-4.693.019-3.962.019-3.962 1.159-1.858 1.159-1.858-1.255-1.532-1.255-1.532.389-5.279.389-5.279 6.875-2.939c8.197-3.504 7.772-3.729 5.789 3.075l-1.602 5.498-3.344 1.775c-1.839.976-3.344 2.062-3.344 2.413 0 1.039 5.403-2.097 8.438-4.897l2.813-2.596v-1.604c0-.882.537-1.941 1.194-2.352l1.194-.748-.009 22.873-.009 22.873-1.184-.742-1.185-.742v1.9c0 1.045.563 2.252 1.25 2.683.688.431 1.25 1.353 1.25 2.05v1.267l-1.25-.783-1.25-.783v1.341 1.341h1.25 1.25v1.9 1.9h-1.396-1.396l.599 3.178.599 3.178-1.69-1.421-1.69-1.421.742-1.217.742-1.217-2.318 1.465-2.318 1.465.433 6.228.433 6.228h-1.922-1.922l-1.011-1.583m-19.934-56.05l-.719-1.9.615-1.625.615-1.625-2.322-2.905-2.322-2.905-1.309.82-1.309.82-4.216-1.41-4.216-1.41-.543-3.747c-.621-4.286-.174-4.55 2.91-1.723l2.207 2.024 1.349-.845 1.349-.845-.719-1.179-.719-1.179h1.699c.934 0 2.313.623 3.065 1.384l1.366 1.384 2.72-1.475 2.72-1.475 3.039 3.323 3.039 3.323v5.087 5.087l-2.672-.859-2.672-.86.624 3.307.624 3.307h-1.741-1.741l-.719-1.9"
       style="fill:#5a6f88"
       id="path20" />
    <path
       d="m56.21-64.17l.298-8.173 2.558.256 2.558.256v-1.9-1.9l-2.813.302-2.813.302v-13.813-13.813l1.563-.639 1.563-.639-1.563-.1-1.563-.1v-77.94-77.94l1.875-.729c1.031-.401 1.875-1.272 1.875-1.935v-1.206l-1.149.72-1.149.72-.861-8.151-.861-8.151 1.698-1.943 1.698-1.943 11.875-4.01c6.531-2.205 12.438-4.569 13.13-5.255l1.25-1.246-12.1.882-12.1.882-2.583-.831-2.583-.831v-22.629-22.629l2.538-.816 2.538-.816 6.843 4.603 6.843 4.603 6.373.439 6.373.439 1.371 1.389 1.371 1.389h3.5 3.5v1.9 1.9h5.386 5.386l2.394 1.774 2.394 1.774 3.973-.653 3.973-.653 1.415 2.679 1.415 2.679h2.375c1.306 0 3.958.616 5.894 1.368l3.519 1.368-3.521 1.883-3.521 1.883 1.487 1.815c.818.998 2.224 1.815 3.124 1.815h1.638l.83-2.649.83-2.649 2.692.861c1.481.474 6.067 1.384 10.192 2.023 4.125.639 8.23 1.436 9.122 1.771l1.622.61-.824 4.45-.824 4.45h2.639c2.962 0 3.148-.469 1.457-3.672l-1.183-2.239 7.745-1.471 7.745-1.471 3.125 2.324 3.125 2.324 1.631 3.369 1.631 3.369h3 3l7.138 5.067 7.138 5.067h3.279 3.279l4.327 2.262c2.38 1.244 5.889 3.747 7.799 5.562l3.473 3.3 5.902 2.136 5.902 2.136 6.25.332c3.438.183 8.359.772 10.937 1.31l4.688.978v-1.248-1.248l4.055.84 4.055.84.455 2.483c.549 2.998 2.536 5.65 4.234 5.65h1.243l-.654-2.533-.654-2.533.82.027c.451.015 2.389 2.274 4.307 5.02l3.486 4.994 3.389 1.641 3.389 1.641.387 2.746.387 2.746 1.8 1.514c.99.833 1.8 2.042 1.8 2.689v1.175l-5.855-.38-5.855-.38-.742 3.073-.742 3.073-1.528.516-1.528.516v-4.539-4.539h-1.875-1.875v-1.745c0-.96-.722-2.352-1.604-3.094l-1.604-1.349-1.705 1.068-1.705 1.068-.128 3.61-.128 3.61-1.25.045c-.688.025-2.516.757-4.063 1.628l-2.813 1.583v1.855 1.855h-1.722-1.722l-1.591-1.942-1.591-1.942-2.743 2.611-2.743 2.611-2.101-.817-2.101-.817 1.46-1.783 1.46-1.783-.705-.714-.705-.714-3.863 2.894-3.863 2.894-4.258-1.56-4.258-1.56-8.838-.271-8.838-.271-1.162-3.377-1.162-3.377.835-.943.835-.943-2.237.815-2.237.815-2.381-1.507-2.381-1.507-2.497 2.29-2.497 2.29-6.636.93-6.636.93 1.875.733c1.031.403 7.219 1.957 13.75 3.452 6.531 1.495 13 3.01 14.375 3.374 1.375.36 6.156.889 10.625 1.175 8.621.551 19.19 2.662 22.813 4.559l2.188 1.144v2.072 2.072l2.02 2.257 2.02 2.257-2.953.596c-5.24 1.057-16.441.539-27.18-1.257-5.762-.964-11.809-1.752-13.438-1.752h-2.961l.019.95c.01.523.457 1.648.991 2.501l.972 1.551 8.696 1.235c4.783.679 18.944 1.845 31.468 2.59 12.525.745 23.648 1.696 24.719 2.113l1.947.757-1.369 1.671-1.369 1.671 1.433 2.713 1.433 2.713 1.881-.732c1.035-.402 2.679-.732 3.654-.732h1.773v-2.28-2.28l-1.5-1.52-1.5-1.52h6.25 6.25l1.497 1.517 1.497 1.517 8.44 1.015c4.642.558 13.221 1.53 19.07 2.16l10.625 1.145 5.313 2.16c5.849 2.378 5.826 2.347 4.108 5.599l-1.205 2.281-5 .811c-2.753.446-6.429 1.469-8.17 2.273l-3.166 1.462v2.285 2.285l-2.418 1.311c-1.33.721-3.02 1.311-3.75 1.311h-1.332v-1.764-1.764l1.875-.729 1.875-.729v-1.94c0-2.493.062-2.503-7.266 1.227l-6.222 3.167h-3.273-3.273l-2.483 1.571-2.483 1.571-2.5-1.582-2.5-1.582v1.193 1.193l-3.854-.111-3.854-.111-1.032-2.75-1.032-2.75-3.172-2.106-3.172-2.106 2.023 3.572 2.023 3.572-.859 2.268-.859 2.268-3.925-.796-3.925-.796-3.48 3.95c-3.395 3.853-8.916 7.466-11.41 7.466h-1.243l.784-3.167.784-3.167h-4.438-4.438l-.72-1.9-.72-1.9h-3.127-3.127l.857 3.46c.999 4.03 1.01 4.09.812 6.99l-.148 2.217h-1.786c-.982 0-2.668.895-3.748 1.988l-1.962 1.988 1.349 2.554 1.349 2.554-.637.645-.637.645-3.924-.873-3.924-.873-.678-1.79-.678-1.79 2.01-3.112 2.01-3.112v-2.503-2.503l-1.343-.841-1.343-.841-3.089 2.94-3.089 2.94-2.131-1.362c-1.172-.749-2.131-1.965-2.131-2.702 0-.737-.422-1.767-.938-2.29l-.938-.95v3.223 3.223l-1.655 1.392-1.655 1.392-1.47-1.49-1.47-1.49v-3.064-3.064l-4.336 3.351-4.336 3.351-2.999-.763-2.999-.763-3.291 3.09-3.291 3.09v1.997c0 1.098-.524 2.325-1.164 2.725l-1.164.729-.736-1.207c-.895-1.468-8.186-5.262-8.186-4.26 0 .392.9 1.38 1.999 2.195l1.999 1.481-3.139 4.687-3.139 4.687-3.728-3.179c-4.317-3.681-12.148-2.061-18.835 3.897-.257.229.708 2.436 2.145 4.904l2.613 4.487h-1.95-1.95l-.654-2.533-.654-2.533h-2.28-2.28l-.89 1.459-.89 1.459 1.831 1.391c1.01.765 2.226 2.456 2.709 3.758l.878 2.367-4.482 4.283c-2.465 2.356-5 4.283-5.643 4.283h-1.161v-1.794-1.794l1.563-.659 1.563-.659-2.426-1.98-2.426-1.98h-2.968c-1.633 0-4.099.613-5.48 1.362l-2.512 1.362.829 4.971.829 4.971h-5.02-5.02l-2.024-2.051-2.024-2.051-.667.676-.667.676 1.351 2.558c.743 1.407 1.351 3.385 1.351 4.394v1.835l-2.594.687-2.594.687 1.371 2.596 1.371 2.596-3.465.77c-1.906.424-4.204 1-5.107 1.289l-1.642.519.866 1.42.866 1.42 4.838-.658 4.838-.658v.807c0 .444-3.21 3.809-7.132 7.48l-7.132 6.673-1.93.008-1.93.008-2.224 3.959-2.224 3.959-5.469-.76-5.469-.76-1.589 1.941-1.589 1.941-2.814-.716-2.814-.716-2.647 3.41-2.647 3.41 2.868 1.613 2.868 1.613 4.639.045 4.639.045 2.236-2.37 2.236-2.37 5-1.585c2.75-.872 5.844-2.079 6.875-2.684 1.031-.604 3.962-2.245 6.513-3.645l4.638-2.546h3.904 3.904l-.493 1.5-.493 1.5-6.101 2.068-6.101 2.068-2.489 3.378-2.489 3.378.803.814.803.814 10.363-3.593c10.864-3.767 15.405-6.303 16.593-9.267l.711-1.775-2.637-2.49-2.637-2.49-1.396 1.414c-.768.778-2.127 1.414-3.02 1.414h-1.625v-1.612-1.612l4.247-2.318 4.247-2.318 2.94 2.963c1.617 1.629 3.649 4.33 4.516 6l1.576 3.038-1.3 1.588-1.3 1.588 1.488 3.308c.818 1.82 1.953 3.308 2.522 3.308h1.035l-.298-2.798-.298-2.798 2.291-.482 2.291-.482-1.484 2.81-1.484 2.81 3.568-.652c3.611-.659 10.13-2.861 14.957-5.05l2.639-1.198 2.673 1.692 2.673 1.692 2.483-1.571 2.483-1.571h4.258 4.258l.769-2.031.769-2.031 1.878.73 1.878.73 3.736-.757 3.736-.757v-1.587c0-2.367-2.572-3.999-7.813-4.956l-4.688-.856v1.883 1.883l-1.432.897-1.432.897.782-3.156.782-3.156-2.951-1.6-2.951-1.6-3.779.841-3.779.841-.869-1.425-.869-1.425.713-.722.713-.722 9.419.221 9.419.221 5.931-2.161 5.931-2.161 10.657-.268 10.657-.268 6.03-3.874 6.03-3.874 2.69 1.019 2.69 1.019 7.955-.355 7.955-.355 1.358-1.376c1.912-1.938 4.672-1.71 7.183.593l2.147 1.969 10.622-2.602c5.842-1.431 11.188-2.602 11.88-2.602h1.258l.78 2.061.78 2.061-1.425 1.74-1.425 1.74h2.028 2.028v-1.331-1.331l4.644-1.966c2.554-1.082 5.241-2.793 5.971-3.804l1.326-1.838 4.832-.455 4.832-.455 2.947 1.361c3.736 1.725 3.705 2.897-.178 6.543l-3.125 2.935v1.997 1.997l-1.563 1.025-1.563 1.025h-5.625-5.625l-.288 1.233-.288 1.233 4.351-.38 4.351-.38v1.143c0 .629-1.411 2.487-3.137 4.129l-3.137 2.986.703 2.246.703 2.246-6.165 3.165-6.165 3.165-3.874 3.925-3.874 3.925-2.419 5.542-2.419 5.542-3.547 1.836-3.547 1.836-31.402.184-31.402.184.152-2.855.152-2.855-2.026-.402-2.026-.402-.654 2.534-.654 2.534 1.43.617 1.43.617-17.12-.04-17.12-.04-.691-1.466-.691-1.466-.729 1.583-.729 1.583h-51.814-51.814l.298-8.173m172.29 5.6v-1.228h4.479 4.479l-.573-1.583-.573-1.583 3.106-3.38 3.106-3.38-.886-1.452-.886-1.452-2.063 1.884-2.063 1.884-7.5 1.06-7.5 1.06-.002 2.505-.002 2.505-2.155.42-2.155.42 1.492 1.618 1.492 1.618 4.102.156 4.102.156v-1.228m-55.07-167.62l1.123-2.994 1.971-.766 1.971-.766v-1.306-1.306h-1.875-1.875v-3.819-3.819l-4.063-2.51-4.063-2.51-3.487-.005-3.487-.005-4.95 2.559-4.95 2.559v3.05 3.05l1.964 1.99c1.08 1.095 2.69 1.99 3.578 1.99.888 0 3.737 1.71 6.333 3.8l4.719 3.8h2.984 2.984l1.123-2.994m-59.936-22.394v-5.122l-1.563.309c-.859.17-3.531-.077-5.938-.549-2.406-.472-9.438-1.17-15.625-1.549-6.188-.38-15.469-1.169-20.625-1.755-10.508-1.192-10.711-1.148-9.288 2.02.561 1.249 1.053 3.126 1.092 4.171l.071 1.9 3.75.414c2.063.228 4.284.94 4.938 1.583l1.188 1.169h6.214 6.214l2.093-1.919 2.093-1.919 3.203 2.553 3.203 2.553h2.99 2.99l1.42-1.439 1.42-1.439 2.045 2.072 2.045 2.072h3.036 3.036v-5.122m-12.694-19.666c.237-.199-1.876-1.838-4.694-3.641l-5.125-3.278-7.181-.676-7.181-.676-2.985 1.646c-1.642.905-3.048 2.216-3.125 2.913l-.14 1.267 9.689 1.374c5.329.756 10.02 1.709 10.424 2.119l.735.744 4.576-.715c2.517-.393 4.77-.878 5.01-1.077m345.21 210.37l-1.543-1.884.613-1.62.613-1.62-1.807-8.213c-.994-4.517-2.37-10.778-3.058-13.913-1.435-6.538-2.422-14.317-2.439-19.2l-.011-3.371-1.69-.657-1.69-.657-1.511-4.639-1.511-4.639 1.308-1.325 1.308-1.325 5.27-.301 5.27-.301 2.892 3.327c1.591 1.83 2.91 3.754 2.932 4.277l.039.95h-4.222-4.222l-1.635 1.996-1.635 1.996 1.662 1.041 1.662 1.041 4.908-.256 4.908-.256.989-1.621.989-1.621.841 2.222.841 2.222-1.605 1.148-1.605 1.148 1.55.638 1.55.638-.038 23.332-.038 23.332h-4.172-4.172l-1.543-1.884m-166.14-157.26l-2.627-1.865v-2.976-2.976l-2.626.696-2.626.696.439-2.262.439-2.262 1.875-.983c2.86-1.5 13.659-6.255 14.205-6.255.265 0 .828 1.75 1.25 3.89l.768 3.89 2.451-.788 2.451-.788 4.125 2.142c2.269 1.178 4.478 2.696 4.909 3.372l.784 1.23-.623 2.413c-.914 3.542-2.185 3.972-12.867 4.349l-9.7.343-2.627-1.865m64.48-3.072l-3.111-5.287-1.418 2.686-1.418 2.686h-1.688c-.928 0-3.299-.852-5.269-1.894l-3.58-1.894-.362 2.241-.362 2.241-3.772 1.692-3.772 1.692-.855-.867-.855-.867 2.177-1.235 2.177-1.235v-2.01-2.01l2.033-1.507 2.033-1.507-1.484-2.811-1.484-2.811-2.531.814-2.531.814 1.357-2.57c.747-1.413 1.357-3.698 1.357-5.077v-2.508l8.02-4.542c4.409-2.498 8.847-4.542 9.862-4.542h1.847l2.638 5.686c1.451 3.127 2.638 6.285 2.638 7.02 0 .732 1.049 3.446 2.332 6.03l2.332 4.7-.144 5.595-.144 5.595-1.452.49-1.452.49-3.111-5.287m106.64-108.22l-1.188-3.167h-1.281-1.281l-.101-4.117-.101-4.117-1.461 3.299c-.803 1.814-2.233 4.237-3.176 5.383l-1.716 2.084h-1.722-1.722v-4.555-4.555l2.146-3.68 2.145-3.68 2.236-.719c1.23-.396 3.921-2.156 5.98-3.911l3.743-3.192v-1.713c0-.942.422-1.977.938-2.3l.938-.587.289 14.13c.159 7.771-.02 15.13-.397 16.345l-.685 2.217h-1.197-1.197l-1.188-3.167"
       style="fill:#615e57"
       id="path22" />
    <path
       d="m56-60.804v-4.804l5.572-1.51 5.572-1.51 1.788.695 1.788.695.734 3.719.734 3.719h1.917 1.917l3.651-3.296 3.651-3.296-.501-1.454-.501-1.454 1.527-2.02 1.527-2.02 4.983-.945 4.983-.945-2.17 2.43c-4.258 4.768-2.563 6.676 6.714 7.559l6.124.582-.316-2.955-.316-2.955 2.5-.128c4.9-.25 10.07-2.112 14.781-5.323l4.781-3.259 1.048 1.718 1.048 1.718-1.834 2.836-1.834 2.836 1.378.863 1.378.863 1.974-.767 1.974-.767 1.404 1.114c.772.613 2.917 1.48 4.765 1.927l3.361.813.728-1.194.728-1.194-2.116-1.2-2.116-1.2 3.806-1.994 3.806-1.994.676.685.676.685 2.92-1.622 2.92-1.622 5.625-.277c3.094-.153 7.453-.673 9.688-1.158l4.063-.88v2 2l-3.304 1.754-3.304 1.754 1.714 1.073 1.714 1.073 6.277.179 6.277.179 2.282-1.568 2.282-1.568-4.469-3.614c-2.458-1.987-4.469-4.04-4.469-4.564v-.95h4.136 4.136l2.426-1.802 2.426-1.802 3.266.659 3.266.659 2.757-3.924 2.757-3.924 2.727-.017c1.5-.01 3.993-.361 5.54-.781l2.813-.764v-1.118-1.118l-4.063-.066c-2.234-.037-6.58-.086-9.657-.11l-5.594-.044-2.686 3.413-2.686 3.413-.834-1.367-.834-1.367 1.949-3.819 1.949-3.819 2.79-.578c1.534-.318 6.638-.835 11.343-1.148l8.553-.571 1.385-1.403c.762-.772 2.337-1.403 3.501-1.403h2.116l.774-2.045.774-2.045 3.422.866c1.882.477 7.781.821 13.11.765l9.688-.102v1.28 1.28h1.875 1.875v-1.055-1.056l3.438-.248c1.891-.136 5.406-.374 7.813-.528l4.375-.28-.115 3-.115 3 6.846-.815 6.846-.815 3.677-3.135c4.345-3.704 5.127-3.814 7.395-1.029l1.716 2.106-1.371.468c-.754.257-3.84 2.302-6.858 4.544l-5.486 4.076 6.04.633 6.04.633-3.241 3.071-3.241 3.071v1.573 1.573l-4.867 3.906c-2.677 2.149-5.449 3.906-6.159 3.906h-1.292l-3.228 6.915c-1.776 3.803-4.578 8.391-6.227 10.194l-2.999 3.279-4.348.715-4.348.715-2.235-1.267-2.234-1.267 6.781-3.269 6.781-3.269 3.618-3.427 3.618-3.427-2.544-2.087-2.544-2.087 3.614-1.382 3.614-1.382v-1.377-1.377h-3.862-3.862l-2.387 2.85-2.387 2.85-1.823-2.386-1.824-2.386-4.558 2.192-4.558 2.192-3.236-.627-3.236-.627-3.195 3.449-3.195 3.449-2.813.737-2.813.737v-2.415-2.415h-3.884-3.884l.73 1.929.73 1.929-2.782 2.821-2.782 2.821-6.204 2.217c-7.721 2.759-7.838 2.755-8.778-.249l-.772-2.465-5.672-.862-5.672-.862-1.889 1.914-1.889 1.914 2.142 3.313 2.142 3.313h-10.695-10.695l-.654-1.073-.654-1.073-3.795-.109-3.795-.109v1.135 1.135l-42.19-.036-42.19-.036 2.5-1.095 2.5-1.095-2.813-.089-2.813-.089v1.267 1.267h-9.375-9.375v-4.804m221.83-23.582l4.956-1.748.46-1.4.46-1.4h-1.979-1.979v-2.38-2.38l-3.709-1.557c-2.04-.856-4.316-2.298-5.059-3.205l-1.35-1.648-6.195 2.211c-3.407 1.216-6.568 2.589-7.02 3.051l-.829.841 4.896.009 4.896.009-3.75 2.519-3.75 2.519-1.25-1.656c-.688-.911-2.258-2.039-3.49-2.508l-2.24-.852-1.535-3.699-1.535-3.699-2.402 1.78-2.402 1.78h-4.062-4.062l-.692 1.134-.692 1.134 2 .778 2 .778-.781 3.155-.781 3.155.961-.04c.529-.022 2.023-.855 3.321-1.851l2.36-1.811 2.302 1.248 2.302 1.248 3.132-.796 3.132-.796 1.275 3.398 1.275 3.398 4.056-.889 4.056-.889 3.782-4.277c2.08-2.353 4.189-4.277 4.688-4.277h.906v3.061 3.061l-1.475.498-1.475.498.811 2.141c.963 2.543.36 2.51 6.47.355zm-220.27-4.227l-1.563-.533.008-5.911.008-5.911 3.843-2.217c2.114-1.219 4.89-2.217 6.168-2.217h2.325l.778-1.276.778-1.276-2.068-.804-2.068-.804-4.304 2.08c-2.367 1.144-4.566 2.08-4.886 2.08-.32 0-.583-34.77-.583-77.27v-77.27h1.25 1.25l.168 2.85c.093 1.567.233 4.56.313 6.65l.144 3.8 4.375.208c2.406.114 5.078.257 5.938.317l1.563.109v1.9 1.9h1.176c.647 0 1.534-.588 1.972-1.305l.796-1.305 4.328.823 4.328.823 2.427-2.225 2.427-2.225 1.586 1.298c2.122 1.737 11.853 3.477 16.893 3.02l4.057-.367 1.277 3.403 1.277 3.403 1.585-1.333 1.585-1.333-.083-10.43-.083-10.43-1.522-.514-1.522-.514v1.764c0 .97-.757 2.813-1.683 4.095l-1.683 2.332-3.682-1.861-3.682-1.861-3.605 1.218-3.605 1.218-2.153-2.695-2.153-2.695-.771 2.036-.771 2.036-4.04-.95c-2.224-.523-5.197-1.058-6.606-1.19-1.41-.132-3.238-.662-4.063-1.179l-1.499-.939-.125-2.775-.125-2.775-.862 3.167-.862 3.167-4.172.409-4.172.409-.994-1.042c-.547-.573-1.367-3.1-1.822-5.615l-.829-4.573 1.951-.759 1.951-.759 4.718 2.059 4.718 2.059 8.02-.155 8.02-.155 1.354.864c1.258.803 5.03 1.286 13.572 1.735 1.907.1 3.833-.187 4.278-.639l.811-.821-5.409-4.742c-2.975-2.608-6.588-5.42-8.03-6.249l-2.62-1.507-2.794.689-2.794.689-1.307-3.484-1.307-3.484-2.969 2.826-2.969 2.826-2.305-1.24-2.305-1.24-6.638 2.715-6.638 2.715-1.471 5.526-1.471 5.526-.829-2.992c-.456-1.646-.885-5.069-.953-7.607l-.125-4.615 2.188-.886c1.203-.487 8.375-3.145 15.938-5.907 7.563-2.762 14.313-5.62 15-6.351l1.25-1.33-17.188.897-17.188.897v-22.93-22.93h3.328 3.328l6.182 4.02 6.182 4.02 6.174.22 6.174.22 1.441 1.46 1.441 1.46h3.5 3.5v1.9 1.9h5.386 5.386l2.394 1.774 2.394 1.774 3.973-.653 3.973-.653 1.415 2.679 1.415 2.679h2.538c1.396 0 3.718.64 5.16 1.422l2.622 1.422-2.884 2.204-2.884 2.204.879 1.44.879 1.44h2.465 2.465l.756-1.995.756-1.995 6.393.83c3.516.456 8.502 1.376 11.08 2.044l4.688 1.214v2.836 2.836l-1.993 2.883-1.993 2.883-2.861-1.899-2.861-1.899-2.135 1.582-2.135 1.582 2.18 1.833 2.18 1.833 7.999-.173c9.526-.206 9.691-.32 7.271-5.02-1.039-2.02-1.893-4.306-1.897-5.08l-.008-1.409 7.177-1.461 7.177-1.461 3.136 2.35 3.136 2.35 1.631 3.369 1.631 3.369h3 3l7.138 5.067 7.138 5.067h3.279 3.279l4.327 2.262c2.38 1.244 5.889 3.747 7.799 5.562l3.473 3.3 5.902 2.136 5.902 2.136 6.25.332c3.438.183 8.359.772 10.938 1.31l4.688.978v-1.248-1.248l4.055.84 4.055.84.455 2.483c.549 2.998 2.536 5.65 4.234 5.65h1.243l-.654-2.533-.654-2.533.82.027c.451.015 2.389 2.274 4.307 5.02l3.486 4.994 3.389 1.641 3.389 1.641.387 2.746.387 2.746 1.8 1.514c.99.833 1.8 2.042 1.8 2.689v1.175l-5.855-.38-5.855-.38-.708 2.925-.708 2.925-1.25.242-1.25.242-.392-4.117-.392-4.117h-1.796-1.796v-1.745c0-.96-.784-2.404-1.743-3.21l-1.743-1.465-2.01 2.034c-1.104 1.119-2.01 2.474-2.01 3.01 0 .537-1.931 2.03-4.291 3.318l-4.291 2.342-3.367-1.554-3.367-1.554-4.46 1.491c-2.453.82-5.582 2.551-6.953 3.846-2.634 2.487-4.317 2.84-7.545 1.585l-1.977-.769v-3.665-3.665h-1.864-1.864l-1.561 2.533-1.561 2.533h-1.418-1.418l-.739-3.745-.739-3.745-3.633-1.904-3.633-1.904-.784.794-.784.794v-1.829c0-1.01.842-3.047 1.871-4.536l1.871-2.707-3.325-6.495-3.325-6.495-1.983.398-1.983.398.431 8.931.431 8.931-3.344 2.22-3.344 2.22-1.789-.696-1.789-.696-3.071 1.418-3.071 1.418.719 1.179.719 1.179-3.571-.414-3.571-.414-.409-2.928-.41-2.927-1.746-.679-1.746-.679-1.907 1.933c-1.049 1.063-1.907 2.543-1.907 3.29v1.357h1.31c.72 0 2.615 1.427 4.211 3.172l2.901 3.172 12.977 3.173c7.137 1.745 14.664 3.663 16.727 4.262l3.75 1.088 8.658.141 8.658.141 6.655 1.96 6.655 1.96v3.131c0 1.722-.005 3.559-.01 4.081l-.01.95-8.427-.238c-10.818-.305-33.36-2.771-39.2-4.288-2.486-.646-5.652-1.174-7.03-1.174h-2.514l-1.468 1.793-1.468 1.793-3.591-1.044-3.591-1.043-.719.729c-.395.401-.719 1.385-.719 2.186v1.457l9.06 1.985c4.984 1.092 10.469 2.02 12.188 2.058 4.6.107 31.22 2.668 35.95 3.459l4.075.681-1.217 2.304-1.217 2.304 1.479 3.969c.813 2.183 1.918 3.969 2.454 3.969h.976v-2.956c0-1.626.345-3.305.766-3.732l.766-.776 3.343 2.504 3.343 2.504 5.403-1.932 5.403-1.932 4.89.792 4.89.792 3.098 3.731c1.704 2.052 3.098 4.243 3.098 4.869v1.138l-3.75-.76-3.75-.76v2.058 2.058h-2.426-2.426l-.772-1.267-.772-1.267h-4.301-4.301v1.179 1.179l2.813.405 2.813.405.399 2.85.399 2.85h2.413 2.413l-.042 1.583c-.023.871-1.202 2.996-2.62 4.724l-2.578 3.14-1.447-2.01c-.796-1.103-3.699-3.17-6.452-4.593l-5.01-2.588-2.883-5.197c-1.585-2.859-3.194-5.197-3.573-5.197h-.691l.618 2.393.618 2.393-1.019 1.671-1.019 1.671-4.308-.294-4.308-.294-.812 2.145-.812 2.145 1.475.923 1.475.923-.768 2.028-.768 2.028h-1.77-1.77l-2.02-3.122c-1.11-1.717-2.02-3.936-2.02-4.931v-1.809l-2.069-.805-2.069-.805-2.931 2.79c-1.612 1.535-2.931 3.479-2.931 4.321v1.531l-2.454.65-2.454.65-1.449-1.769c-.797-.973-1.943-1.769-2.546-1.769h-1.097v2.862 2.862l-2.622 1.659-2.622 1.659-5.588.461-5.588.461-1.736 1.46-1.736 1.46-1.163-.728-1.163-.728-.714 2.765-.713 2.765-2.63-2.412-2.63-2.412-1.269 1.85-1.269 1.85-.634-1.583-.634-1.583h-1.618c-.89 0-2.29.821-3.112 1.825l-1.494 1.825-2.096-.747c-1.153-.411-3.347-1.887-4.876-3.281l-2.78-2.534-.795 2.1-.795 2.1 2.041 3.157 2.041 3.157h-1.398c-.769 0-3.072-.998-5.118-2.217l-3.72-2.217-.692-3.483-.692-3.483h-1.719-1.719v1.745 1.745l1.875 1.577 1.875 1.577v2.967 2.967l2.5 1.356 2.5 1.356v1.781c0 .979-.616 2.166-1.369 2.638l-1.369.857-3.319-2.457-3.319-2.457-10.536.423c-12.44.5-12.395.475-8.29 4.634 1.76 1.784 3.26 3.982 3.333 4.884.281 3.479-.42 9.27-1.195 9.874-.447.348-1.435 1.773-2.196 3.167l-1.384 2.533-2.216.441-2.216.441-.992-1.627-.992-1.626-1.871 1.574-1.871 1.574-6.473-3.324c-6.492-3.333-9.194-3.643-5.63-.646l1.905 1.602v1.745 1.745h-1.729-1.729l-.674 2.612-.674 2.612 3.741-.833 3.742-.833-.4 4.237-.4 4.237-2.5-.437c-1.375-.24-4.817-.472-7.649-.516l-5.149-.079-2.351 1-2.351 1 6.25 1.446 6.25 1.446-.377 3.135c-.207 1.724-.325 5.558-.262 8.519l.114 5.383h-1.925-1.925v-3.01c0-1.655-.356-4.81-.79-7.01l-.79-4-2.442-1.324-2.442-1.324-.773.783c-.425.431-.799 2.329-.83 4.219l-.057 3.436-6.875.043-6.875.043-4.063 2.206-4.063 2.206v1.782 1.782l2.566.825 2.566.825-1.357 1.657c-1.592 1.944-4.998 3.01-7.212 2.252zm115.94-134.03v-1.971l3.878-3.589 3.878-3.589-.837-2.673-.837-2.673h-1.791-1.791v-1.309c0-.72-1.832-3.166-4.072-5.435l-4.072-4.126-4.365.212c-2.401.117-5.883.827-7.738 1.579l-3.372 1.366-2.078 3.214-2.078 3.214.725 2.928.725 2.928 4.1 2.067 4.1 2.067-2.034.081-2.034.081-1.6 1.954-1.6 1.954 1.416 1.435 1.416 1.435 4.643-1.444 4.643-1.444 1.325 1.101c.729.605 2.731 1.363 4.45 1.683 1.719.32 3.547.66 4.063.755l.938.173v-1.971m-40.689-28.323l.708-1.161h5.761 5.761l1.417-1.531 1.417-1.531-1.563-.581-1.563-.581v-1.72c0-.946.587-2.087 1.305-2.537l1.305-.817 1.883 1.584 1.883 1.584 1.73-1.791c.952-.985 2.075-3.221 2.497-4.968l.767-3.176-4.389-4.311-4.389-4.311-4.952 3.477-4.952 3.477-.744 1.966-.744 1.966-2.263-2.075-2.263-2.075-.836.847c-.46.466-.836 2.516-.836 4.555v3.707l-2.5.663c-2.915.772-2.955.939-1.081 4.487 2.855 5.407 5.241 7.149 6.641 4.852m155.97 67.4l-2.847-.554-3.11-2.92-3.11-2.92.864-2.37c.475-1.304 2.276-4.273 4-6.598l3.137-4.228 4.455.778c11.732 2.049 21.41 3.12 28.721 3.179l8.02.065 6.672 2.131 6.672 2.131v.942c0 .518-3.154 2.405-7.01 4.194l-7.01 3.251-1.117-.7-1.117-.7v-2.459-2.459h-1.801c-.991 0-2.154.579-2.586 1.287l-.785 1.287-1.172-.734-1.172-.734-3.429 2.358c-4.41 3.033-9.87 5.402-12.452 5.402h-2.03l-2.186-2.01-2.186-2.01-1.394 2.638c-.766 1.451-1.796 2.561-2.287 2.466-.491-.095-2.175-.422-3.74-.726"
       style="fill:#334a64"
       id="path24" />
    <path
       d="m56-60.804v-4.804l5.572-1.51 5.572-1.51 1.788.695 1.788.695.734 3.719.734 3.719h1.917 1.917l3.651-3.296 3.651-3.296-.501-1.454-.501-1.454 1.527-2.02 1.527-2.02 4.983-.945 4.983-.945-2.17 2.43c-4.258 4.768-2.563 6.676 6.714 7.559l6.124.582-.316-2.955-.316-2.955 2.5-.128c4.9-.25 10.07-2.112 14.781-5.323l4.781-3.259 1.048 1.718 1.048 1.718-1.834 2.836-1.834 2.836 1.378.863 1.378.863 1.974-.767 1.974-.767 1.404 1.114c.772.613 2.917 1.48 4.765 1.927l3.361.813.728-1.194.728-1.194-2.116-1.2-2.116-1.2 3.806-1.994 3.806-1.994.676.685.676.685 2.92-1.622 2.92-1.622 5.625-.277c3.094-.153 7.453-.673 9.688-1.158l4.063-.88v2 2l-3.304 1.754-3.304 1.754 1.714 1.073 1.714 1.073 6.277.179 6.277.179 2.282-1.568 2.282-1.568-4.469-3.614c-2.458-1.987-4.469-4.04-4.469-4.564v-.95h4.136 4.136l2.426-1.802 2.426-1.802 3.266.659 3.266.659 2.757-3.924 2.757-3.924 2.727-.017c1.5-.01 3.993-.361 5.54-.781l2.813-.764v-1.118-1.118l-4.063-.066c-2.234-.037-6.58-.086-9.657-.11l-5.594-.044-2.686 3.413-2.686 3.413-.834-1.367-.834-1.367 1.949-3.819 1.949-3.819 2.79-.578c1.534-.318 6.638-.835 11.343-1.148l8.553-.571 1.385-1.403c.762-.772 2.337-1.403 3.501-1.403h2.116l.774-2.045.774-2.045 3.422.866c1.882.477 7.781.821 13.11.765l9.688-.102v1.28 1.28h1.875 1.875v-1.055-1.056l3.438-.248c1.891-.136 5.406-.374 7.813-.528l4.375-.28-.115 3-.115 3 6.846-.815 6.846-.815 3.677-3.135c4.345-3.704 5.127-3.814 7.395-1.029l1.716 2.106-1.371.468c-.754.257-3.84 2.302-6.858 4.544l-5.486 4.076 6.04.633 6.04.633-3.241 3.071-3.241 3.071v1.573 1.573l-4.867 3.906c-2.677 2.149-5.449 3.906-6.159 3.906h-1.292l-3.228 6.915c-1.776 3.803-4.578 8.391-6.227 10.194l-2.999 3.279-4.348.715-4.348.715-2.235-1.267-2.234-1.267 6.781-3.269 6.781-3.269 3.618-3.427 3.618-3.427-2.544-2.087-2.544-2.087 3.614-1.382 3.614-1.382v-1.377-1.377h-3.862-3.862l-2.387 2.85-2.387 2.85-1.823-2.386-1.824-2.386-4.558 2.192-4.558 2.192-3.236-.627-3.236-.627-3.195 3.449-3.195 3.449-2.813.737-2.813.737v-2.415-2.415h-3.884-3.884l.73 1.929.73 1.929-2.782 2.821-2.782 2.821-6.204 2.217c-7.721 2.759-7.838 2.755-8.778-.249l-.772-2.465-5.672-.862-5.672-.862-1.889 1.914-1.889 1.914 2.142 3.313 2.142 3.313h-10.695-10.695l-.654-1.073-.654-1.073-3.795-.109-3.795-.109v1.135 1.135l-42.19-.036-42.19-.036 2.5-1.095 2.5-1.095-2.813-.089-2.813-.089v1.267 1.267h-9.375-9.375v-4.804m221.83-23.582l4.956-1.748.46-1.4.46-1.4h-1.979-1.979v-2.38-2.38l-3.709-1.557c-2.04-.856-4.316-2.298-5.059-3.205l-1.35-1.648-6.195 2.211c-3.407 1.216-6.568 2.589-7.02 3.051l-.829.841 4.896.009 4.896.009-3.75 2.519-3.75 2.519-1.25-1.656c-.688-.911-2.258-2.039-3.49-2.508l-2.24-.852-1.535-3.699-1.535-3.699-2.402 1.78-2.402 1.78h-4.062-4.062l-.692 1.134-.692 1.134 2 .778 2 .778-.781 3.155-.781 3.155.961-.04c.529-.022 2.023-.855 3.321-1.851l2.36-1.811 2.302 1.248 2.302 1.248 3.132-.796 3.132-.796 1.275 3.398 1.275 3.398 4.056-.889 4.056-.889 3.782-4.277c2.08-2.353 4.189-4.277 4.688-4.277h.906v3.061 3.061l-1.475.498-1.475.498.811 2.141c.963 2.543.36 2.51 6.47.355zm-220.27-4.227l-1.563-.533.008-5.911.008-5.911 3.843-2.217c2.114-1.219 4.89-2.217 6.168-2.217h2.325l.778-1.276.778-1.276-2.068-.804-2.068-.804-4.304 2.08c-2.367 1.144-4.566 2.08-4.886 2.08-.32 0-.583-34.77-.583-77.27v-77.27h1.259 1.259l-.359 6.305-.359 6.305 1.702.662c.936.364 3.419.662 5.519.662h3.817l2.956 3.232c1.626 1.778 2.956 3.773 2.956 4.433v1.201h1.902 1.902l1.424-3.167 1.424-3.167h1.263c.695 0 2.343-.99 3.662-2.2l2.399-2.2 1.587 2.2 1.587 2.2h2.449 2.449l1.788 4.117 1.788 4.117 3.452.402 3.452.402.779-3.946.779-3.946 2.769 2.636 2.769 2.636 1.188-1.625 1.188-1.625-.075-10.03-.075-10.03-1.543-.521-1.543-.521-1.255 3.346-1.255 3.346-1.34-.839c-.737-.461-1.796-2.063-2.355-3.56l-1.015-2.72 1.203-2.324 1.203-2.324-5.294-4.642c-6.716-5.89-9.831-7.708-13.301-7.764l-2.769-.045-1.394-2.638-1.394-2.638-2.223 2.039-2.223 2.039-3.637-.281-3.637-.281-5.987 2.464-5.986 2.464-1.475 5.526-1.475 5.526-.829-2.992c-.456-1.646-.885-5.069-.953-7.607l-.124-4.615 2.188-.886c1.203-.487 8.375-3.145 15.937-5.907 7.563-2.762 14.313-5.62 15-6.351l1.25-1.33-17.188.897-17.188.897v-19.854-19.854l1.786-1.81c2.48-2.514 3.296-2.314 7.724 1.892l3.885 3.69 11.09 4.653 11.09 4.653 7.522 5.977c7.479 5.943 14.783 10.252 17.402 10.265.754.004 3.531.615 6.171 1.358l4.8 1.351-.743 3-.743 3 2.783 1.976 2.783 1.976h3.944 3.944l1.556 1.9 1.556 1.9h2.446 2.446l-.841 4.117-.841 4.117-2.071 1.638c-1.139.901-2.071 2.183-2.071 2.85 0 1.493-1.301 1.603-6.745.568l-4.245-.807-1.028 1.675-1.028 1.675.757 4.823.757 4.823-2.671.708c-1.469.389-2.671.964-2.671 1.277 0 1.132 2.934 6.09 4.607 7.785l1.712 1.735 1.528-1.256 1.528-1.256 5.487-.06 5.487-.06 1.388-1.502 1.388-1.502-1.563-.581-1.563-.581v-1.72c0-.946.587-2.087 1.305-2.537l1.305-.817 1.82 1.531 1.82 1.531 1.752-1.474c.964-.81 2.113-2.93 2.554-4.71l.802-3.236-1.616-2.074-1.616-2.074 3.438 2.224 3.438 2.224v-1.929-1.929h-1.706c-.939 0-3.096-1.108-4.794-2.461l-3.088-2.461.563-3.884.563-3.884-1.435-1.752-1.435-1.752 6.668.208 6.668.208 3.448 2.545 3.448 2.545.073 5.344.073 5.344h3.5c1.925 0 4.39-.346 5.478-.769l1.977-.769v-3.03-3.03l.938.051c.516.028 2.885 1.738 5.265 3.8 2.38 2.062 4.911 3.761 5.625 3.777.714.015 2.689 1.112 4.39 2.436l3.093 2.408-2.157 2.415-2.157 2.415 1.149 6.231c1.373 7.448 1.238 7.677-2.911 4.921l-3.233-2.147v2.543 2.543l-2.067.804-2.067.804 2.379 1.825 2.379 1.825-3.364.04-3.364.04-.859-1.408-.859-1.408 1.561-.977 1.561-.977-4.413-4.88-4.413-4.88-2.743 2.516c-1.509 1.384-2.965 2.373-3.237 2.199-.272-.174-.916-.231-1.431-.126-.516.105 1.559.532 4.611.95l5.548.76-2.111 2.126c-1.161 1.169-2.111 2.737-2.111 3.483v1.357h1.31c.72 0 2.615 1.427 4.211 3.172l2.901 3.172 12.977 3.173c7.137 1.745 14.664 3.663 16.727 4.262l3.75 1.088 8.658.141 8.658.141 6.512 1.918 6.512 1.918.568 3.924.568 3.924-1.628.633-1.628.633-3.921-1.982-3.921-1.982-1.665 1.687-1.665 1.687-6.968-1.107c-3.832-.609-11.606-1.675-17.274-2.369-5.668-.694-12.306-1.59-14.751-1.991l-4.445-.73-1.558 1.903-1.558 1.903-3.447-1-3.447-1-2.269 1.682-2.269 1.682.743 1.961.743 1.961h-2.358c-1.297 0-3.263.352-4.368.781l-2.01.781 1.435 1.752 1.435 1.752h3.535 3.535l1-1.583 1-1.583 6.875-.141c3.781-.077 8.844-.267 11.25-.42 4.33-.276 29.337 1.852 37.2 3.166l4.075.681-1.217 2.304-1.217 2.304 1.479 3.969c.813 2.183 1.918 3.969 2.454 3.969h.976v-2.956c0-1.626.345-3.305.766-3.732l.766-.776 3.64 2.727 3.64 2.727 5.559-2.088 5.559-2.088 4.441.73 4.441.73 3.094 3.726c1.702 2.049 3.094 4.238 3.094 4.864v1.138l-3.75-.76-3.75-.76v2.058 2.058h-2.426-2.426l-.773-1.267-.772-1.267h-4.301-4.301v1.179 1.179l2.813.405 2.813.405.399 2.85.399 2.85h2.413 2.413v1.745c0 .96-.755 2.38-1.678 3.156l-1.678 1.411-.89-.902-.89-.902-1.163 1.863-1.163 1.863-.019-1.391-.019-1.391-5.08-2.321-5.08-2.321-3.164-5.471c-1.74-3.01-3.458-5.471-3.816-5.471h-.652l.618 2.393.618 2.393-1.019 1.671-1.019 1.671-4.308-.294-4.308-.294-.812 2.145-.812 2.145 1.475.923 1.475.923-.768 2.028-.768 2.028h-1.77-1.77l-2.02-3.122c-1.11-1.717-2.02-3.936-2.02-4.931v-1.809l-2.069-.805-2.069-.805-2.931 2.79c-1.612 1.535-2.931 3.479-2.931 4.321v1.531l-2.454.65-2.454.65-1.449-1.769c-.797-.973-1.943-1.769-2.546-1.769h-1.097v2.862 2.862l-2.622 1.659-2.622 1.659-5.588.461-5.588.461-1.736 1.46-1.736 1.46-1.163-.728-1.163-.728-.714 2.765-.713 2.765-2.63-2.412-2.63-2.412-1.269 1.85-1.269 1.85-.634-1.583-.634-1.583h-1.618c-.89 0-2.29.821-3.112 1.825l-1.494 1.825-2.096-.747c-1.153-.411-3.347-1.887-4.876-3.281l-2.78-2.534-.795 2.1-.795 2.1 2.041 3.157 2.041 3.157h-1.398c-.769 0-3.072-.998-5.118-2.217l-3.72-2.217-.692-3.483-.692-3.483h-1.719-1.719v1.745 1.745l1.875 1.577 1.875 1.577v2.967 2.967l2.5 1.356 2.5 1.356v1.855 1.855h-2.445-2.445l-4.267-2.934-4.267-2.934-4.226.292c-2.325.161-7.736.671-12.03 1.133l-7.799.842-.763 1.252-.763 1.252.647.656c.356.361 2.965.971 5.798 1.356l5.151.7 1.427 2.677 1.427 2.677-.282 4.395c-.155 2.417-.678 4.697-1.162 5.067-.484.37-1.503 1.812-2.264 3.205l-1.384 2.533-2.216.441-2.216.441-.992-1.627-.992-1.626-1.871 1.574-1.871 1.574-6.473-3.324c-6.492-3.333-9.194-3.643-5.63-.646l1.905 1.602v1.745 1.745h-1.729-1.729l-.674 2.612-.674 2.612 3.741-.833 3.742-.833-.4 4.237-.4 4.237-2.5-.437c-1.375-.24-4.817-.472-7.649-.516l-5.149-.079-2.351 1-2.351 1 6.25 1.446 6.25 1.446-.377 3.135c-.207 1.724-.325 5.558-.262 8.519l.114 5.383h-1.925-1.925v-3.01c0-1.655-.356-4.81-.79-7.01l-.79-4-2.442-1.324-2.442-1.324-.773.783c-.425.431-.799 2.329-.83 4.219l-.057 3.436-6.875.043-6.875.043-4.063 2.206-4.063 2.206v1.782 1.782l2.566.825 2.566.825-1.357 1.657c-1.592 1.944-4.998 3.01-7.212 2.252m115.94-134.03v-1.971l3.878-3.589 3.878-3.589-.837-2.673-.837-2.673h-1.791-1.791v-1.309c0-.72-1.832-3.166-4.072-5.435l-4.072-4.126-4.365.212c-2.401.117-5.883.827-7.738 1.579l-3.372 1.366-2.078 3.214-2.078 3.214.725 2.928.725 2.928 4.1 2.067 4.1 2.067-2.034.081-2.034.081-1.6 1.954-1.6 1.954 1.416 1.435 1.416 1.435 4.643-1.444 4.643-1.444 1.325 1.101c.729.605 2.731 1.363 4.45 1.683 1.719.32 3.547.66 4.063.755l.938.173v-1.971m115.28 39.07l-2.847-.554-3.11-2.92-3.11-2.92.864-2.37c.475-1.304 2.276-4.273 4-6.598l3.137-4.228 4.455.778c11.713 2.045 21.468 3.128 29.455 3.268l8.75.154 2.5 1.089 2.5 1.089-2.26.089c-1.243.049-4.705 1.473-7.695 3.164l-5.435 3.075-.671-.68-.671-.68-3.51 2.417c-4.626 3.185-9.954 5.46-12.79 5.46h-2.288l-1.587-1.938-1.587-1.938-2.364 2.572c-1.3 1.414-2.483 2.494-2.628 2.399-.145-.095-1.545-.422-3.111-.726"
       style="fill:#4e483a"
       id="path26" />
    <path
       d="m117.25-57.44c0-.784 1.211-2.489 2.691-3.79l2.691-2.365 3.871-.152c2.129-.084 8-.226 13.05-.317l9.182-.165.579.95.579.95h-3.199-3.199v1.267 1.267h-3.789-3.789l-.615 1.624-.615 1.624-8.721.266-8.721.266v-1.425m92.86-13.313l-1.518-.624.674-6.704.674-6.704-2.884-.764-2.884-.764 1.415-1.434 1.415-1.434 10.629-.191 10.629-.191-.577-.95-.577-.95h1.292 1.292l1.861 3.647 1.861 3.647 1.921.747 1.921.747v1.828 1.828l-5.313 1.031c-2.922.567-6.423.886-7.781.709l-2.469-.322-3.469 1.456-3.469 1.456v2.38 2.38l-1.563-.1c-.859-.055-2.246-.381-3.08-.724m-154.11-42.17v-1.341h1.25 1.25v-1.341-1.341l-1.25.783-1.25.783v-7.569-7.569l1.563-.639 1.563-.639-1.563-.1-1.563-.1.099-57.95.099-57.95.63 1.583.63 1.583 5.833.004 5.833.004 2.439 3.689 2.439 3.689 3.499.709 3.499.709 3.02-1.163 3.02-1.163.816-2.606.816-2.606h4.065 4.065l1.788 4.117 1.788 4.117 3.382.395 3.382.395 1.128-4.195 1.128-4.195 1.681 3.8c2.299 5.197 2.126 5.1 4.772 2.674l2.362-2.166 11.08-1.181c6.096-.65 12.63-1.192 14.521-1.204l3.438-.023v3.227 3.227l3.308 3.106 3.308 3.106h-1.137-1.137l-2.992 6.387-2.992 6.387 1.238 1.255 1.238 1.255 2.01-.782 2.01-.782.386-2.7.386-2.7 4.518-1.078 4.518-1.078 7.04 2.075 7.04 2.075v1.119 1.119l-4.063.666c-2.234.366-5.469.82-7.188 1.01l-3.125.342-.406 3.595-.406 3.595 1.706 2.105c.938 1.158 2.659 4.242 3.823 6.855l2.118 4.75h1.404 1.404l-.92-2.217c-.506-1.219-1.029-3.277-1.162-4.574l-.242-2.357-2.097-1.189-2.097-1.189v-1.837-1.837h1.132c.623 0 3.464 1.261 6.314 2.803l5.182 2.803 2.124-1.323c1.168-.728 2.679-2.559 3.358-4.07l1.234-2.746h8.351c4.593 0 9.241.346 10.329.769l1.977.769v3.494 3.494l-2.579 3.323-2.579 3.323 2.041 3.501 2.041 3.501-1.306 3.48-1.306 3.48h-1.197-1.197l-.698 2.228-.698 2.228-8.137-.215-8.137-.215v1.154 1.154h-1.906-1.906l-.75-3.8c-.812-4.112-1.639-4.609-3.885-2.334l-1.447 1.466-1.928-1.621-1.928-1.621v-2.378-2.378h-1.875-1.875v2.533 2.533h1.324 1.324l-.815 1.335-.815 1.335-2.884-1.915-2.884-1.915-5.125 2.509-5.125 2.509v1.237 1.237h-1.992-1.992l-.654-2.533-.654-2.533h-1.645-1.645l-.793-2.533c-.436-1.393-1.277-2.533-1.868-2.533-.591 0-1.256-.84-1.478-1.867l-.404-1.867-1.533.973-1.533.973 2.371 5.01 2.371 5.01.867 6.839.867 6.839-4.518-.743-4.518-.743v1.82 1.82h1.786c.982 0 2.675.901 3.762 2l1.976 2-.608.997-.608.997-6.591.234c-3.625.128-8.795.633-11.488 1.122l-4.897.888-.484 1.472-.484 1.472 2.257.593 2.257.593-6.25.26c-15.482.645-35.38 2.397-39.37 3.466l-4.375 1.172.335 2.976.335 2.976-2.629 2.836-2.629 2.836 2.56.823 2.56.823 2.654-1.44c1.46-.792 2.747-1.251 2.86-1.02.113.231.985 1.818 1.938 3.528l1.733 3.109-1.42.48-1.42.48v1.647 1.647l2.5.662 2.5.662v1.873 1.873l-3.152 2.093-3.152 2.093-6.691.413c-3.68.227-7.324.81-8.098 1.295l-1.408.881v-1.341m175.98-104.64c-.377-.382-5.955-1.229-12.396-1.883-6.441-.653-13.82-1.531-16.398-1.95l-4.688-.762.01-1.472.01-1.472 3.364-1.583c4.438-2.089 8.04-1.999 12.411.309 4.512 2.385 6.01 2.386 7.955.008l1.556-1.9h2.91c3.889 0 14.485 2.349 16.6 3.68l1.692 1.065-1.482 2.806-1.482 2.806-2.946-.749-2.946-.749-.775 1.271c-.854 1.401-2.335 1.652-3.397.577m-51.15-33.868l-4.539-5.337-2.78 2.533c-1.529 1.393-2.996 2.406-3.26 2.251-.264-.155-1.351.056-2.415.47l-1.935.752-2.413-2.213-2.413-2.213 1.299-2.459 1.299-2.459-1.964-3.037-1.964-3.037v-2.578-2.578h-1.706c-.939 0-3.096-1.108-4.794-2.461l-3.088-2.461.563-3.884.563-3.884-1.435-1.752-1.435-1.752 6.668.208 6.668.208 3.448 2.545 3.448 2.545.073 5.344.073 5.344h3.5c1.925 0 4.39-.346 5.478-.769l1.977-.769v-3.03-3.03l.938.051c.516.028 2.885 1.738 5.265 3.8 2.38 2.062 4.911 3.761 5.625 3.777.714.015 2.689 1.112 4.39 2.436l3.093 2.408-2.157 2.415-2.157 2.415 1.149 6.231c1.373 7.448 1.238 7.677-2.911 4.921l-3.233-2.147v2.543 2.543l-1.977.769c-2.493.97-1.69 1.509-6.937-4.66m-67.15-13.36c-1.823-1.974-4.71-4.345-6.415-5.268-1.706-.923-4.137-3.01-5.403-4.644l-2.302-2.966h-1.72-1.72l-3.502-3.333c-1.926-1.833-5.151-4.048-7.168-4.923l-3.666-1.59 5.272-2.726 5.272-2.726-.841-1.38-.841-1.38-15.626.902c-8.594.496-16.392 1.2-17.328 1.564l-1.702.661v-19.859-19.859l1.786-1.81c2.48-2.514 3.296-2.314 7.724 1.892l3.885 3.69 11.09 4.653 11.09 4.653 7.522 5.977c7.479 5.943 14.783 10.252 17.402 10.265.754.004 3.531.615 6.171 1.358l4.8 1.351-.743 3-.743 3 2.783 1.976 2.783 1.976h3.944 3.944l1.556 1.9 1.556 1.9h2.446 2.446l-.861 4.117-.861 4.117-3.301 2.853-3.301 2.853-4.245-.729-4.245-.729-1.048 1.675c-.577.921-1.057 3.129-1.067 4.905l-.019 3.23-1.5 1.52-1.5 1.52h-4.249-4.249l-3.314-3.589"
       style="fill:#25364d"
       id="path28" />
    <path
       d="m117.25-57.43c0-.789 1.211-2.499 2.691-3.8l2.691-2.365 3.871-.152c2.129-.084 8-.226 13.05-.317l9.182-.165.579.95.579.95h-3.199-3.199v1.414 1.414l-3.17-.614-3.17-.614-1.518 2.076-1.518 2.076-5.953.194-5.953.194.823-1.487.823-1.487-1.683 1.583c-.926.871-2.415 1.583-3.308 1.583h-1.625v-1.435m92.86-13.322l-1.518-.624.674-6.704.674-6.704-2.884-.764-2.884-.764 1.415-1.434 1.415-1.434 10.629-.191 10.629-.191-.577-.95-.577-.95h1.292 1.292l1.861 3.647 1.861 3.647 1.921.747 1.921.747v1.828 1.828l-5.313 1.031c-2.922.567-6.423.886-7.781.709l-2.469-.322-3.469 1.456-3.469 1.456v2.38 2.38l-1.563-.1c-.859-.055-2.246-.381-3.08-.724m-146.14-45.4l-2.341-1.763-2.813.696-2.813.696v-6.998-6.998l1.563-.639 1.563-.639-1.563-.1-1.563-.1v-37.894-37.894l1.563-.739 1.563-.739-1.574-.743-1.574-.743.1-17.643.1-17.643 1.413.885 1.413.885 4.691-.28 4.691-.28 1.957 3.835c1.076 2.109 1.805 4.268 1.619 4.798l-.338.963 3.152.373 3.152.373 4.57-1.935 4.57-1.935.829-2.647.829-2.647 1.864.725c1.025.399 2.554.725 3.397.725h1.532l2.135 4.904 2.135 4.904 4.668.781 4.668.781 1.388-1.885c.763-1.037 1.844-1.885 2.402-1.885.558 0 1.977-.883 3.154-1.963l2.14-1.963 11.08-1.181c6.096-.65 12.63-1.192 14.521-1.204l3.438-.023v3.167 3.167l2.517 2.551 2.517 2.551-2.036 3.149-2.036 3.149h-7.981-7.981v3.076 3.076l-1.964 1.99c-2.267 2.297-2.971 2.394-5.519.761l-1.858-1.19 1.406-3.775 1.406-3.775-1.664-.647-1.664-.647-4.12 1.197-4.12 1.197-3.764-1.155-3.764-1.155-9.269.207-9.269.207-2.202 3.8-2.202 3.8-.091 3.348-.091 3.348 1.977.769c2.593 1.01 17.875.989 22.899-.029l3.939-.798-.742-2.368-.742-2.368h1.959 1.959v2.433 2.433l8.189.889 8.189.889 6.498-.853c3.574-.469 8.551-1.467 11.06-2.217l4.562-1.364 3.672 1.647 3.672 1.647 1.141 2.199c.628 1.209 2.375 4.817 3.884 8.02l2.742 5.816h1.454 1.454l-.92-2.217c-.506-1.219-1.029-3.277-1.162-4.574l-.242-2.357-2.097-1.189-2.097-1.189v-1.837-1.837h1.212c.667 0 3.215 1.14 5.663 2.533 5.112 2.91 7.03 3.132 9.08 1.054.803-.814 3.587-2.23 6.188-3.148l4.728-1.668 6.563-.019 6.563-.019v3.629 3.629l-2.579 3.323-2.579 3.323 2.041 3.501 2.041 3.501-1.306 3.48-1.306 3.48h-1.197-1.197l-.698 2.228-.698 2.228-8.137-.215-8.137-.215v1.154 1.154h-1.906-1.906l-.75-3.8c-.812-4.112-1.639-4.609-3.885-2.334l-1.447 1.466-1.928-1.621-1.928-1.621v-2.378-2.378h-1.875-1.875v2.533 2.533h1.324 1.324l-.815 1.335-.815 1.335-2.884-1.915-2.884-1.915-5.125 2.509-5.125 2.509v1.237 1.237h-1.992-1.992l-.654-2.533-.654-2.533h-1.645-1.645l-.793-2.533c-.436-1.393-1.277-2.533-1.868-2.533-.591 0-1.256-.84-1.478-1.867l-.404-1.867-1.533.973-1.533.973 2.371 5.01 2.371 5.01.867 6.839.867 6.839-4.518-.743-4.518-.743v1.673 1.673l2.5.662 2.5.662v1.254 1.254l-10.938 1.482c-6.02.815-12.625 1.893-14.688 2.395l-3.75.913v1.43c0 .787-.402 1.838-.894 2.336l-.894.905-14.11.974c-7.758.536-16.08 1.496-18.481 2.136l-4.375 1.162.337 2.986.337 2.986-3.229 3.415-3.229 3.415 3.425.663 3.425.663 1.744-1.767c.959-.972 2.205-1.767 2.769-1.767h1.025l.821 3.316c1 4.045 1.058 3.985-4.908 5.241l-4.834 1.018-.572 1.739-.572 1.739 4.275-.703 4.275-.703 3.393.657 3.393.657v1.708 1.708l-2.188 1.133c-1.203.623-3.946 1.47-6.096 1.882l-3.909.749-2.341-1.763m17.402-96.59l.66-3.483-1.247-1.528-1.247-1.528.691-1.133.691-1.133-4.646-1.552-4.646-1.552-5 .527-5 .527 2.726.961c3.309 1.166 4.094 2.964 3.249 7.441l-.642 3.403-2.042.019c-1.123.011-2.886.572-3.917 1.247l-1.875 1.228 10.792.019 10.792.019.66-3.483m130.88-7.35c-1.031-.223-4.547-.762-7.813-1.197l-5.938-.791.01-1.506.01-1.506 3.364-1.583 3.364-1.583h3.427 3.427l.687 1.126c.378.619 2.165 1.502 3.971 1.962l3.284.835 2.33-2.137 2.33-2.137 5.335.781c7.317 1.071 14.71 3.294 14.71 4.424v.935l-11.563 1.555c-11.04 1.485-16.826 1.712-20.938.822m-98.86-45.47c-2.304-2.475-4.747-4.5-5.429-4.5-.682 0-2.668-1.471-4.412-3.269-3.97-4.091-10.463-8.654-16.792-11.802l-4.87-2.422 5.133-2.654c2.823-1.459 5.858-2.65 6.745-2.646l1.612.008 15.625 13.221 15.625 13.221v2.288 2.288l-4.524.383-4.524.383-4.189-4.5"
       style="fill:#262828"
       id="path30" />
  </g>
</svg>
