<svg width="512" xmlns="http://www.w3.org/2000/svg" height="512">
<defs/>
<g transform="translate(0 464)">
<path fill="#808080" stroke="#808080" stroke-width="8" d="m34-382h464v368h-464z"/>
<path fill="#fff" stroke="#4d4d4d" stroke-width="4" d="m24,72h464v368h-464z" transform="translate(0 -464)"/>
</g>
<g transform="translate(0 464)">
<path fill="#9acef9" d="m56-208 0-152 200,0 200,0 0,152 0,152-200,0-200,0 0-152z"/>
<path fill="#8cb7e3" d="m56.0154-208.0031 .0164-152.0031 199.9841,.0179 199.9841,.0179 0,151.9852 0,151.9852-200.0005,0-200.0005,0 .0164-152.0031zm309.6721,12.7039 5.3125-2.4436 0-1.0574 0-1.0574-15.9375-1.5388c-8.7656-.8463-17.625-1.4982-19.6875-1.4486l-3.75,.0902 4.375,1.7055c23.1849,9.038 22.7307,8.95 29.6875,5.7501zm-194.0625-37.9805 0-6.8783-3.905-2.311-3.905-2.3111-5.6448,2.4519c-3.1046,1.3485-5.9645,2.9762-6.3554,3.617l-.7106,1.1651 1.9493,2.8201 1.9493,2.8201 2.2705-2.0822 2.2705-2.0822 2.9156,.4185 2.9156,.4185-.4242,3.6553-.4242,3.6553 1.6742,1.0931c.9208,.6012 2.518,.9435 3.5492,.7607l1.875-.3324v-6.8783zm197.9946-8.8119 1.7446-1.1194-.7679-2.0278-.7679-2.0278-1.9142,0-1.9142,0 0-1.1311c0-1.461 2.5164-2.4763 12.6197-5.0913l8.2447-2.134 1.756,1.1224 1.756,1.1224 12.4993-4.2275 12.4993-4.2275 .3983-3.5122 .3983-3.5122-5.0858,.8241-5.0858,.8241v-1.0122c0-.5567 .9309-2.0545 2.0687-3.3286l2.0687-2.3164-1.7562,.007c-.9659,.004-3.9167,.615-6.5574,1.358l-4.8011,1.3509-1.9599-.7621-1.9599-.7621 3.3988-3.5949 3.3988-3.5949-2.7756-.7355-2.7756-.7355-5.3187,3.1585c-2.9253,1.7372-6.0342,4.0322-6.9087,5.1-.8745,1.0678-4.3656,3.3667-7.758,5.1087l-6.168,3.1672-1.3613-1.3794-1.3613-1.3794 6.2007-5.5946c6.7707-6.1088 9.4389-7.728 14.6036-8.8621l3.4029-.7472 2.2221-2.366c1.2222-1.3013 5.0346-3.8375 8.4721-5.6359l6.25-3.2699 2.2445-3.2136 2.2445-3.2136-.8211-4.4352-.8211-4.4352h-.884c-.4862,0-3.9069,.9096-7.6014,2.0215l-6.7174,2.0215-3.822,2.8789-3.822,2.8789-3.666,.8819-3.666,.8819-3.6174,3.0844-3.6174,3.0844h-2.0632-2.0632l3.0966-3.0706c1.7031-1.6888 6.1903-4.78 9.9716-6.8693l6.875-3.7988 .4297-2.1319 .4297-2.1319-1.2185-1.2348-1.2185-1.2348-5.2975,2.7386-5.2975,2.7386-1.2471-1.2637-1.2471-1.2637 4.4792-4.5389 4.4792-4.5389h2.3995c2.8286,0 21.5877-6.1644 23.1025-7.5917l1.0436-.9833-5.6445-2.1844-5.6445-2.1844-15.2014,1.9767-15.2013,1.9767-2.0727-1.1728c-1.14-.645-4.19-2.0164-6.7778-3.0476l-4.7051-1.8748-.7618-2.0118-.7618-2.0118 .6609-.6697 .6609-.6697 5.8361,2.0078 5.8361,2.0078 1.1575-.7249c.6366-.3987 1.1575-1.6127 1.1575-2.6978v-1.9729l3.1548,.6111 3.1548,.6111 .7028-1.1523 .7028-1.1523-1.4207-1.7347c-.7814-.9541-1.6846-3.2091-2.0071-5.0112l-.5863-3.2765h.7316c.4024,0 1.8197,.5901 3.1495,1.3112l2.4178,1.3112v1.6414 1.6414l3.0058,1.6301 3.0058,1.6301 1.6691-1.0453 1.6691-1.0453-3.0897-.7391-3.0897-.7391-.2749-3.6239c-.4091-5.394-3.6438-6.6699-15.083-5.9498l-2.8125,.1771v2.5333 2.5333h-1.7708-1.7708l-.5729,1.5833-.5729,1.5833-1.6562-1.5833-1.6562-1.5833h2.2119 2.2119l-.3994-2.85-.3994-2.85-5.9375-.3861-5.9375-.3861v2.3494 2.3494l1.3736,1.3919 1.3735,1.3919-3.561,.6686c-4.2286,.7939-1.7706,.6664-30.4361,1.58l-23.125,.7371-1.0849,1.0646-1.0849,1.0647 2.6474,1.6754 2.6474,1.6754v1.5953 1.5953h-3.6762-3.6762l-.743,1.2183-.743,1.2183-2.834-1.0919-2.834-1.0919-2.2706,1.2876-2.2706,1.2876-1.082-1.7307c-1.4214-2.2736-1.3899-3.3124 .1297-4.264 .6875-.4306 1.25-1.3114 1.25-1.9574v-1.1746l-7.8125,.4696c-4.2969,.2583-12.5207,1.1318-18.2752,1.9412l-10.4627,1.4716-2.3498-2.1549-2.3498-2.1549v1.9028 1.9028l2.8125,1.4994 2.8125,1.4994-2.0961-.5972-2.0961-.5972-1.4945,1.8247-1.4945,1.8247h-3.5232-3.5232l-.7725-1.2667-.7725-1.2667h-5.5025-5.5025l-2.2362,2.4216-2.2362,2.4216-4.7375,.8955-4.7375,.8955-2.45-2.2468c-1.3475-1.2357-2.5203-1.8734-2.6063-1.4171-.0859,.4563-.2969,1.3997-.4688,2.0963-.1719,.6967-.3828,2.3594-.4688,3.695l-.1562,2.4284-6.3247,1.3745-6.3247,1.3745-5.1167-.8291-5.1167-.8291 .8191,1.3429c.4505,.7386 5.1772,4.2859 10.5039,7.8829l9.6849,6.54 6.875,2.3086 6.875,2.3086 3.8068-.6043 3.8068-.6043 10.6036,3.1151 10.6036,3.1151 8.9959,4.5907c4.9478,2.5249 9.8428,4.5907 10.8779,4.5907 1.0351,0 9.0648,3.5151 17.8437,7.8114l15.9617,7.8114 7.0402,7.072c19.5459,19.6342 25.7781,22.5701 36.4167,17.1553l6.3199-3.2166 8.4194,4.4833 8.4194,4.4833h2.3908 2.3908l2.4264,1.8597c2.781,2.1315 5.413,2.3913 7.9211,.7821zm-241.6848-91.1123 1.3099-3.9759 2.4401-1.8699c3.002-2.3004 4.2209-2.0897-14.4349-2.4956l-15.625-.3399-7.8125,2.5768-7.8125,2.5768v1.8315 1.8315l4.2976-.7067 4.2976-.7067 1.5914,1.9431 1.5914,1.9431 6.1178-.5957 6.1178-.5957 5.765,2.2175 5.765,2.2175 2.5407-.9379 2.5407-.9379 1.3099-3.9759z"/>
<path fill="#77abe0" d="m56.0154-208 .0164-152 140.1924,0c77.1058,0 139.939,.2568 139.6293,.5707-2.9307,2.9698-78.9434,5.8869-104.8535,4.024l-9.375-.6741-4.6418,1.2427-4.6418,1.2427-4.6672-1.9761c-2.567-1.0869-6.524-2.217-8.7934-2.5114l-4.1261-.5353-3.4399,3.2386-3.4399,3.2386v2.6839 2.6839l-6.6869,1.511-6.6869,1.511-15.8131,.2982-15.8131,.2982-6.25-1.14-6.25-1.14-14.375,.301-14.375,.301-8.4375,2.7078-8.4375,2.7078v3.0078 3.0078h5.5512 5.5512l.7725,1.2667 .7725,1.2667h6.7588 6.7588l4.1049,1.7892c2.2577,.9841 7.4799,2.4325 11.6049,3.2187 4.125,.7862 9.75,2.0172 12.5,2.7356 2.75,.7183 6.5469,1.6146 8.4375,1.9917l3.4375,.6857v-2.6024-2.6023l1.2588-.7884 1.2588-.7884 .7283,1.9232 .7283,1.9232 8.3254,5.76c4.579,3.168 9.0392,5.7587 9.9117,5.7571l1.5863-.003-.7843-3.1667-.7843-3.1667h.8427c1.6407,0 6.3844,2.9134 12.8005,7.8617l6.4972,5.0108 7.1077,1.8808 7.1077,1.8808 1.3327-1.3505 1.3327-1.3504h2.9323 2.9323l5.8703,3.1667c3.2287,1.7417 6.8031,3.1667 7.9433,3.1667 1.1401,0 6.9663,2.28 12.9469,5.0667l10.8739,5.0667h2.2752 2.2752l14.3835,6.9539 14.3835,6.9539 11.0288,10.9025 11.0288,10.9025 7.7998,3.6953 7.7998,3.6953 6.8254-3.9034 6.8254-3.9034 3.8164,2.8592 3.8164,2.8592 2.4964,5.2257c1.373,2.8741 2.4964,6.1857 2.4964,7.3591v2.1334h21.6813 21.6813l2.0687-2.3164 2.0687-2.3164v-3.2973-3.2973l3.8172-2.7543 3.8172-2.7543 2.258,2.0707 2.258,2.0707 3.1447-1.2116 3.1447-1.2116 .6164-4.2078 .6164-4.2078-.9128-2.5216-.9128-2.5217 1.0086-3.5637 1.0086-3.5637-2.1197-2.1864c-1.1658-1.2025-2.875-3.6556-3.7983-5.4512l-1.6786-3.2647 2.6161-5.1963 2.6161-5.1963v-10.8485-10.8485l-3.3182-1.2784-3.3182-1.2784 3.415-3.612 3.415-3.612-.4093-3.5232-.4093-3.5232-4.375-1.592-4.375-1.592 2.5-.2464c1.375-.1355 3.2513-.1427 4.1694-.016l1.6694,.2305-.4194-2.206-.4194-2.206-3.692-1.0005-3.692-1.0005-3.183,.713c-1.7507,.3922-5.433,1.4768-8.183,2.4103-2.75,.9335-9.5652,2.3947-15.145,3.2471l-10.145,1.5498-2.1217-.825-2.1217-.825 .778-1.2756 .778-1.2756h2.4883c1.3686,0 4.1479-.8696 6.1762-1.9325l3.6879-1.9325v-1.2341-1.2341h3.1651c3.8068,0 11.1811-2.9699 12.4206-5.0024l.891-1.4608-3.1175-2.9277c-1.7146-1.6102-4.0301-4.716-5.1455-6.9017l-2.028-3.9739h35.0321 35.0321v152 152h-200.0005-200.0005l.0164-152zm309.6721,12.7008 5.3125-2.4436 0-1.0574 0-1.0574-15.9375-1.5388c-8.7656-.8463-17.625-1.4982-19.6875-1.4486l-3.75,.0902 4.375,1.7055c23.1849,9.038 22.7307,8.95 29.6875,5.7501zm-194.0625-37.9631 0-6.8957-4.079-2.414-4.079-2.414-5.8649,2.9763-5.8649,2.9763-.4244,1.4363-.4244,1.4363 2.0794,2.1071 2.0794,2.1071 2.1373-1.9601 2.1374-1.9601 2.7141,0 2.7141,0 0,4.2222c0,2.3222 .3987,4.6263 .8861,5.1201l.8861,.8979 2.5514-.3701 2.5514-.3701v-6.8957z"/>
<path fill="#a19f9b" d="m56.0158-203.5202 .0188-147.5202 2.1702,.7937c1.1936,.4366 5.3058,3.3332 9.1383,6.437l6.9681,5.6433 4.9069,1.9058c2.6988,1.0482 7.4381,2.1759 10.5319,2.5059l5.625,.6001 1.1875,1.1439 1.1875,1.1439h6.5826 6.5826l4.1049,1.7892c2.2577,.9841 7.4799,2.4325 11.6049,3.2187 4.125,.7862 9.75,2.0184 12.5,2.7383 2.75,.7198 8.0938,1.7773 11.875,2.3498 8.1575,1.2353 10.6644,2.1316 15.5282,5.552l3.6532,2.5691 5.5707,.3325 5.5707,.3325 4.8343,3.3949 4.8343,3.3949 5.3167,1.0903c2.9242,.5997 8.4577,1.3776 12.2967,1.7287 3.839,.3512 11.1515,1.7323 16.25,3.0693l9.27,2.4309 9.7568,4.5378c5.3662,2.4958 10.2772,4.5378 10.9133,4.5378 .6361,0 8.1898,3.4548 16.7859,7.6773l15.6294,7.6773 3.4573,3.708c4.671,5.0098 4.9679,5.2924 12.8475,12.234l6.8901,6.0699 6.6209,3.1014 6.6209,3.1014 7.5255-4.1923 7.5254-4.1923 3.4713,3.37 3.4713,3.3701 1.6549,5.3208c.9102,2.9264 2.1849,6.0333 2.8328,6.9042l1.1779,1.5833h21.5282 21.5282l2.0687-2.3164 2.0687-2.3164v-3.2973-3.2973l3.8172-2.7543 3.8172-2.7543 2.258,2.0707 2.258,2.0707 3.1447-1.2116 3.1447-1.2116 .6164-4.2078 .6164-4.2078-.9128-2.5217-.9128-2.5217 1.0086-3.5637 1.0086-3.5637-2.1197-2.1864c-1.1658-1.2025-2.875-3.6556-3.7983-5.4512l-1.6786-3.2647 2.6161-5.1963 2.6161-5.1963v-10.5638-10.5638l-1.5008-1.5208-1.5008-1.5208 1.338-4.1158 1.338-4.1158-.3576-13.9333c-.1967-7.6633-.4047-14.299-.4622-14.746-.0575-.447-1.4462-1.1539-3.0859-1.5709l-2.9813-.7582-.5522-3.8124-.5522-3.8124h.9597c.5279,0 1.3074,.57 1.7323,1.2667 .4249,.6967 1.6163,1.2667 2.6475,1.2667h1.875l-.7725-1.2667-.7725-1.2667h2.3238 2.3238l1.3658,1.384 1.3658,1.384 2.552-1.384 2.552-1.384h6.9572 6.9572v1.2667 1.2667h1.875 1.875v-1.2667-1.2667h6.25 6.25v25.3333 25.3333h-1.5-1.5l1.5,1.52 1.5,1.52v125.1467 125.1467h-200.0015-200.0015l.0188-147.5202zm309.6717,8.221 5.3125-2.4436 0-1.0574 0-1.0574-15.9375-1.5388c-8.7656-.8463-17.625-1.4982-19.6875-1.4486l-3.75,.0902 4.375,1.7055c23.1849,9.038 22.7307,8.95 29.6875,5.7501zm-194.0625-37.9631 0-6.8957-4.079-2.414-4.079-2.414-5.8649,2.9763-5.8649,2.9763-.4244,1.4363-.4244,1.4363 2.0794,2.1071 2.0794,2.1071 2.1373-1.9601 2.1374-1.9601 2.7141,0 2.7141,0 0,4.2222c0,2.3222 .3987,4.6263 .8861,5.1201l.8861,.8979 2.5514-.3701 2.5514-.3701v-6.8957z"/>
<path fill="#9c8b6e" d="m56.0264-203.5157 .0313-147.5157 2.1587,.781c1.1873,.4296 5.5313,3.5416 9.6534,6.9157l7.4947,6.1347h2.0242 2.0242l3.3769,2.6917 3.3769,2.6917 3.3542-.0188 3.3542-.0188 1.731,1.424 1.731,1.424 8.894,.7849 8.894,.7849 7.4227,3.4978 7.4227,3.4978h6.3219 6.3219l2.471,1.7538 2.471,1.7538h2.7131 2.7131l.7526-1.9873 .7526-1.9873 2.8186,.8677c1.5503,.4772 4.5062,2.142 6.5687,3.6996 2.0625,1.5575 5.6185,3.8072 7.9023,4.9992l4.1523,2.1673 1.769-1.4877 1.769-1.4877 2.8287,.7764c1.5558,.427 4.7747,2.4259 7.153,4.442l4.3243,3.6656-1.4906,1.82-1.4906,1.82 8.8829,6.7145 8.8829,6.7145 6.6766-2.8042 6.6766-2.8042 1.4066,.8809 1.4066,.8809-.7939,4.2883-.7939,4.2883 1.6191,.1545c.8905,.0849 3.8691,.2274 6.6191,.3167l5,.1622-.22,3.3696-.22,3.3696 3.345,.9687c1.8397,.5328 5.7234,1.0273 8.6303,1.0989l5.2854,.1302 .6815-1.7997c.8142-2.1501 1.35-1.7465-5.9653-4.4937l-5.963-2.2394-2.3302-4.8872-2.3302-4.8872 .689-.6982c.3789-.384 1.7792-.6982 3.1116-.6982h2.4226l6.2217,3.1667 6.2217,3.1667h2.8379 2.8379l13.2141,6.3162 13.2141,6.3162 3.5327,3.885c1.943,2.1367 4.6118,4.8519 5.9307,6.0338 1.3189,1.1819 4.6939,4.2149 7.5,6.74l5.102,4.5911 7.9073,4.0256 7.9073,4.0256 6.6742-3.8169 6.6742-3.8169 3.256,2.5953c3.8771,3.0904 6.3238,7.6672 7.4385,13.9144l.8165,4.5761 2.163,1.8563c1.1897,1.021 4.3069,3.0956 6.9271,4.6103l4.764,2.754 2.3413-1.2697c1.2877-.6984 3.7845-1.2697 5.5484-1.2697h3.2072v1.9272 1.9272l-3.125,1.4428-3.125,1.4428v1.6967 1.6967h2.0425c1.1234,0 4.2352-.6657 6.9151-1.4793l4.8726-1.4794 1.4599,1.4794c1.9271,1.9528 4.7979,1.811 7.6488-.3776l2.314-1.7764-4.814-1.223c-2.6477-.6726-6.3608-1.576-8.2514-2.0075l-3.4375-.7845v-.9545c0-.525 1.9499-2.0186 4.333-3.3191l4.333-2.3646 5.5683,1.5798 5.5683,1.5798 1.3487-.8447 1.3487-.8447v-2.4632-2.4632l2.5-4.7267c1.375-2.5997 2.5-5.7326 2.5-6.9621v-2.2354h1.8512 1.8512l.7786,3.4833c.4282,1.9158 1.1753,5.1933 1.6602,7.2833l.8816,3.8 2.654,.3935 2.654,.3935 1.3422-2.5413 1.3422-2.5413 .2662-8.9486 .2662-8.9486 1.2887,.4464 1.2887,.4464-.4215,7.0006-.4215,7.0006 2.609,5.1822 2.609,5.1822v3.1575c0,1.7366-.6248,4.5471-1.3885,6.2455l-1.3885,3.088 1.1367,2.0583 1.1367,2.0582-1.1569,10.43c-.6363,5.7365-1.1118,11.9499-1.0568,13.8075l.1001,3.3775-1.7409,1.4641-1.7409,1.4641-3.4205-.4082-3.4205-.4082-2.2421-3.8c-1.2332-2.09-3.099-5.3314-4.1463-7.2031l-1.9042-3.4031 .7026-1.8554 .7026-1.8554 2.726-.7408c1.4993-.4075 3.3944-.7486 4.2114-.7582l1.4853-.0172-.2353,3.4833-.2353,3.4833h2.5 2.5l.3752-2.6627 .3752-2.6627-3.1316-2.0793c-1.7224-1.1436-4.2631-3.31-5.6461-4.8142l-2.5144-2.7349-1.2607,3.3602-1.2607,3.3602h-1.4147-1.4147l.6744-1.781 .6744-1.781-2.2016-2.019c-3.0839-2.8281-4.4066-2.557-8.6875,1.781l-3.75,3.8h-2.3878c-1.3133,0-2.7297,.3465-3.1476,.7699l-.7598,.7699 1.3833,2.2445 1.3833,2.2445-3.2092,5.5491-3.2092,5.5491-6.0601,5.7389c-3.333,3.1563-13.9351,14.2198-23.5601,24.5854-9.625,10.3656-21.43,22.8296-26.2333,27.6979-4.8033,4.8682-9.3033,9.8268-10,11.019-.6967,1.1922-2.2741,3.9688-3.5053,6.1702l-2.2386,4.0026 .8381,1.3742 .8381,1.3742 4.9134-.6678 4.9134-.6678-.7997,3.6897-.7997,3.6897h1.1104c.6107,0 2.2023-.8369 3.5368-1.8597 1.3345-1.0228 3.2702-1.8691 4.3014-1.8806l1.875-.0209-1.8646,1.1945-1.8646,1.1945 1.2908,1.308 1.2908,1.3081 7.4487-1.4026c4.0968-.7714 9.0023-2.2276 10.9011-3.2359l3.4524-1.8332 2.5047,.8056 2.5047,.8055 4.2942-1.4361 4.2942-1.4361 2.5612,1.389c1.4087,.764 2.5612,1.9642 2.5612,2.6673v1.2783l-9.0625-.2831-9.0625-.2831-2.8125,1.5382c-1.5469,.8459-2.8125,2.0496-2.8125,2.6749v1.1367l2.5,.8041 2.5,.8041v1.8146 1.8146l-3.4375,.0114c-1.8906,.0063-6.3906,.3705-10,.8098l-6.5625,.7988v-2.0764-2.0764l-1.5625,.0076c-.8594,.0038-3.6719,.6007-6.25,1.3262l-4.6875,1.3191v1.119 1.119l2.8125,.4048 2.8125,.4048 .3994,2.85 .3994,2.85h4.2881 4.2881v1.9965 1.9964l-9.6875-.6441c-5.3281-.3543-12.043-1.0242-14.9219-1.4886l-5.2344-.8445-4.9838,2.8384-4.9838,2.8384-5.0453-.6857-5.0453-.6857-1.452,1.7728-1.452,1.7728h-2.303-2.303l-1.3953,2.6418c-1.8208,3.4475-1.8507,3.43 8.2573,4.8579l8.675,1.2255 7.5-1.8095c4.125-.9952 9.0469-1.8184 10.9375-1.8293l3.4375-.0207v1.1311c0,1.6202-2.9623,2.5564-11.0439,3.4905l-7.0811,.8184-2.4656,1.7133-2.4656,1.7133h-5.0969-5.0969l-1.3082-1.3256-1.3082-1.3256-8.0043,1.3161-8.0043,1.3161-102.815,.0101-102.815,.009 .0313-147.5157zm232.4115,50.28c.3779-.512 2.5977-1.6254 4.9328-2.4743l4.2457-1.5434 1.1456,.7175 1.1456,.7175 2.1087-1.8691 2.1087-1.8691 6.25-.8604c3.4375-.4732 7.2344-1.1514 8.4375-1.507l2.1875-.6465v-1.8146-1.8146h-1.875-1.875v-1.3222-1.3222l-1.7238,.3722-1.7238,.3722-2.4876-3.1002-2.4876-3.1002-4.9961,1.5168c-2.7479,.8343-6.4445,1.5168-8.2148,1.5168h-3.2187l-.7499,1.2295-.7499,1.2295 3.0859,.7848 3.0859,.7848 2.5902-.8331 2.5902-.8331 2.5,.804c1.375,.4422 2.5,1.2279 2.5,1.7459v.9418l-6.225,1.6167-6.225,1.6167-7.525,4.9285c-4.1387,2.7107-7.525,5.2972-7.525,5.7478v.8193l4.0004-.8108c2.2002-.4459 4.3096-1.2296 4.6875-1.7417zm66.8882-28.084c.398-.6525 2.4683-2.0684 4.6006-3.1463l3.877-1.9599 1.1769,.7371 1.1769,.7371 2.4212-2.2204 2.4212-2.2204v-1.957-1.957l1.3554,1.3735 1.3554,1.3735 2.4653-.6533 2.4653-.6533-.7567-1.9982-.7567-1.9981 2.726-2.0837 2.726-2.0837-1.1986-3.6439-1.1987-3.6439-4.5738-1.0961-4.5738-1.0961-5.6085,2.7512-5.6085,2.7513-2.8465-.8847c-1.5656-.4866-3.5079-1.4196-4.3163-2.0734l-1.4698-1.1888-1.6644,.3873c-.9154,.213-5.0353-.7473-9.1552-2.134l-7.4908-2.5213-.9996-1.5889-.9996-1.5889h-1.7508-1.7508l-1.1584,2.0976-1.1584,2.0976-11.3224-.7433-11.3224-.7433-1.4844,1.8124-1.4844,1.8124h-2.0969c-1.1533,0-2.772-.684-3.5969-1.52l-1.5-1.52 .0398,1.2033c.0219,.6618 .8434,2.279 1.8256,3.5937l1.7859,2.3903 5.9869,.2973c8.8565,.4398 28.6345,4.1878 37.5007,7.1066l7.7638,2.5558 2.8612,3.0579 2.8612,3.058 2.1137,.0219c1.1626,.0127 2.3911,.4766 2.73,1.0324l.6163,1.0105-.855,1.2986c-.4703,.7142-1.8394,1.6666-3.0425,2.1164l-2.1875,.8178v1.3064c0,1.6315 2.1041,1.7136 3.0761,.1199zm-182.0452-46.6302l1.3342-3.4833-.8701-4.8828-.8701-4.8828-4.4334-2.6037-4.4334-2.6036-5.9381,2.298-5.9381,2.298-1.235,2.3384-1.235,2.3384 1.2927,2.4476 1.2927,2.4475 2.6272,.845 2.6272,.8449 1.3742-1.3925c.7558-.7659 1.8065-1.3925 2.3349-1.3925h.9608l-.6164,1.6278-.6164,1.6278 2.5794,2.8055 2.5794,2.8055h2.9247 2.9247l1.3342-3.4833zm261.4691,170.4132v-.9966h1.8417 1.8417l-.4986-6.0167c-.2742-3.3092-.8486-10.5767-1.2763-16.15l-.7778-10.1333-1.898-7.6c-1.0439-4.18-2.7417-10.2528-3.7728-13.495-1.0311-3.2423-1.7421-6.6623-1.58-7.6 .6041-3.4941-1.8189-14.774-5.9441-27.6717-2.3396-7.315-4.602-15.7648-5.0276-18.7774l-.7737-5.4774 4.1191,.4107 4.1191,.4107 1.345,2.5333c.7398,1.3933 2.6246,4.559 4.1886,7.0348 1.564,2.4758 2.8436,5.4347 2.8436,6.5752v2.0738l1.3048,.8171 1.3048,.8171 1.8202-1.5308 1.8202-1.5308v3.7968c0,2.0882 .3516,5.578 .7812,7.7551l.7812,3.9583h1.1549 1.1549l2.3427-5.3023 2.3426-5.3022-.7031-10.9964-.7031-10.9964 2.0209-4.105 2.0209-4.105-1.2216-2.3131-1.2216-2.3131v-3.7797c0-2.0788 .3402-4.678 .756-5.776l.756-1.9963 1.0462,.6552 1.0462,.6552 .87,8.9467 .87,8.9467 .9576-1.57 .9576-1.57-.1922,3.2393-.1922,3.2393-.9375-.5865-.9375-.5865v3.9495 3.9495l1.5625-.9512 1.5625-.9512-1.5102,1.8924-1.5102,1.8924 .7696,2.9822 .7696,2.9821-1.4469-.9062-1.4469-.9061-.0329,9.8914c-.0181,5.4403-.3533,14.2442-.745,19.5642l-.712,9.6728 1.6486,2.9938 1.6486,2.9938 .8068-4.4333 .8068-4.4333 .1646,33.9143 .1646,33.9143-10.625-.301-10.625-.301v-.9966zm.8594-201.9479-.8594-.8708 0-6.1115 0-6.1115-2.5-1.5821c-3.1841-2.015-3.1596-3.0358 .0935-3.8978l2.5935-.6873-1.3469-2.5503-1.3469-2.5503 1.3081-.8193 1.3081-.8193 1.8505,1.5562 1.8505,1.5562 .7729-.7832 .7729-.7832-1.3084-1.6139c-.7196-.8877-1.5047-3.0389-1.7447-4.7806l-.4363-3.1667-2.8505,.3093-2.8505,.3093-.7513-1.9841-.7513-1.9841 2.6956-3.6946 2.6956-3.6946-.8133-3.4973-.8133-3.4973-2.8555-3.1667-2.8555-3.1667-.348-2.5333c-.1914-1.3933 .0969-3.8732 .6407-5.5108l.9887-2.9775-1.3742-1.3925c-.7558-.7659-1.3742-2.1335-1.3742-3.0392v-1.6467h2.583 2.583l-.3955-3.4833-.3955-3.4833-1.25,.4433-1.25,.4433 .3451,1.2393 .3451,1.2393-2.2201-.4392-2.2201-.4392-.064-3.2032-.064-3.2032-2.0236-2.9275-2.0236-2.9275-1.3743,.8607-1.3743,.8607-4.2164-1.4101-4.2164-1.4101-.5426-3.7466c-.6207-4.2856-.1737-4.5502 2.9097-1.7226l2.207,2.0241 1.3492-.8449 1.3491-.8449-.7192-1.1791-.7192-1.1791h1.6988c.9343,0 2.3134,.6228 3.0646,1.384l1.3658,1.384 2.6924-1.4602 2.6924-1.4602 3.0452,2.9262 3.0452,2.9262 .0216,4.75 .0216,4.75h2.58 2.58l-.3925-4.0654-.3925-4.0654 6.875-3.4544 6.875-3.4544 2.8125-.0803 2.8125-.0803v24.7747 24.7748l-1.25-.7828-1.25-.7828v1.9c0,1.045 .5625,2.2523 1.25,2.6828 .6875,.4306 1.25,1.3528 1.25,2.0495v1.2667l-1.25-.7828-1.25-.7828v1.3414 1.3414h1.25 1.25v1.7944 1.7944l-1.5625,.7389-1.5625,.7389 1.5625,.7389 1.5625,.7389v4.9611 4.9611h-2.0687-2.0687l2.3315,2.6107 2.3315,2.6107-1.8253,1.1699c-1.0039,.6435-2.5284,1.1787-3.3878,1.1893l-1.5625,.0194v2.4737c0,1.3605-.6391,3.8952-1.4203,5.6325l-1.4203,3.1588-3.2613,.3841-3.2613,.3841-.6309,3.6955-.6309,3.6955-1.3281,.4475c-.7305,.2462-1.7148,.0557-2.1875-.4233z"/>
<path fill="#8a7661" d="m56.0264-203.4945 .0313-147.5369 2.1587,.781c1.1873,.4296 5.5313,3.5416 9.6534,6.9157l7.4947,6.1347h2.0242 2.0242l3.3769,2.6917 3.3769,2.6917h3.3241 3.3241l2.8433,1.8878 2.8433,1.8878 6.5618-.004 6.5618-.004 5,1.9546c2.75,1.075 5.8438,2.677 6.875,3.56 1.0312,.883 4.2545,2.434 7.1628,3.4467l5.2878,1.8413 1.4277-1.7432c1.9858-2.4245 4.0963-2.1774 6.7466,.7902l2.2625,2.5333h2.9313 2.9313v1.787 1.787l5.3947,2.6463c9.3529,4.5881 10.6221,3.5492 3.6678-3.0023l-4.6875-4.4161-2.2917-.0343-2.2917-.0343 .5545-1.5833 .5545-1.5833 2.9029,.3427 2.9029,.3427 3.8343,2.9529c2.1089,1.6241 5.7028,3.9282 7.9866,5.1202l4.1523,2.1673 1.769-1.4877 1.769-1.4877 2.8287,.7764c1.5558,.427 4.7747,2.4259 7.153,4.442l4.3243,3.6656-1.481,1.8082-1.4809,1.8082 8.7813,6.7649 8.7813,6.7649 6.7686-2.8428 6.7686-2.8428 1.4066,.8809 1.4066,.8809-.7939,4.2883-.7939,4.2883 1.6191,.1984c.8905,.1091 3.8691,.2516 6.6191,.3167l5,.1182-.2218,3.3831-.2218,3.3831 2.0968,.8599c1.1532,.473 5.0074,1.0414 8.5649,1.2631l6.4681,.4032 .7489-1.9775c.8906-2.3518 1.4423-1.9149-5.898-4.6715l-5.963-2.2394-2.3302-4.8872-2.3302-4.8872 .689-.6982c.3789-.384 1.7792-.6982 3.1116-.6982h2.4226l6.2217,3.1667 6.2217,3.1667h2.8379 2.8379l13.2141,6.3162 13.2141,6.3162 3.5327,3.885c1.943,2.1367 4.6118,4.8519 5.9307,6.0338 1.3189,1.1819 4.6939,4.2149 7.5,6.74l5.102,4.5911 7.9073,4.0256 7.9073,4.0256 6.6742-3.8169 6.6742-3.8169 3.256,2.5953c3.9088,3.1156 6.3242,7.6718 7.4716,14.0936l.8497,4.7552 3.6951,2.7683 3.6951,2.7683-1.1536,.7225c-.6345,.3973-1.5404,2.2843-2.0132,4.1931l-.8596,3.4706h5.3102 5.3102l1.6049,2.2167 1.6049,2.2167-1.9733,2.2167-1.9733,2.2167h-3.4032-3.4032l-1.6022-1.9563-1.6022-1.9563-3.2383,.6474-3.2383,.6474-3.75-1.7549-3.75-1.7549 2.1137-.1028c1.1626-.0566 2.4766-.6978 2.9201-1.425l.8064-1.3222-1.4833-1.8111-1.4833-1.8112-3.6356,1.9051-3.6356,1.9051-2.3551-1.2772-2.3551-1.2772-3.2405,2.583-3.2405,2.583-4.6228-.3942-4.6228-.3942-.9758-3.7245-.9758-3.7245 1.3472-1.6449 1.3472-1.6449 .991,.6207 .991,.6207-.6864,2.6598-.6864,2.6598 2.3519-.459 2.3519-.459 .4192-2.2059 .4192-2.206-3.7462-3.7962-3.7462-3.7962h-6.9123-6.9123l-3.2177-1.4856-3.2177-1.4856-1.4661,1.4856-1.4661,1.4856 1.2657,1.2826 1.2657,1.2825 7.4218,.9974 7.4218,.9974-.3554,1.6505c-.1955,.9078-.4257,3.5441-.5115,5.8584l-.1561,4.2079-2.6135,.8137c-1.4374,.4475-6.7837,1.0647-11.8807,1.3714l-9.2672,.5577-2.849-1.8916-2.849-1.8916-6.0088-.768c-3.3048-.4224-7.8369-.7561-10.0713-.7415l-4.0625,.0266 .0442-.86c.0244-.473 .8482-2.285 1.8307-4.0266 .9825-1.7417 1.7994-3.7367 1.8152-4.4333l.0289-1.2667-4.0723-2.6708-4.0723-2.6708-2.6968,1.8145-2.6968,1.8145-2.4132-1.3087-2.4132-1.3087-13.6148-.7854-13.6148-.7854 1.835,1.2959 1.835,1.2959 8.165,.8182 8.165,.8182 8.4267,2.4701 8.4268,2.4701 2.3858-1.2939 2.3858-1.2939 .7107,1.8768 .7107,1.8768h-3.5024c-1.9263,0-3.8787,.3812-4.3385,.8472l-.8361,.8472 2.0293,2.2723 2.0293,2.2723-.7364,1.9447-.7364,1.9447-15.6677-.5576c-8.6172-.3067-16.2291-.9093-16.9152-1.339l-1.2475-.7813v1.2408 1.2408l3.4375,.7236c4.925,1.0367 43.8537,3.2509 57.4107,3.2654l11.4732,.0127 2.1231,2.1515 2.1232,2.1515 7.0286,.9061c3.8657,.4984 12.9349,1.7858 20.1536,2.861l13.125,1.9549 5.625,2.0037c3.0938,1.102 6.6191,2.764 7.8342,3.6933l2.2092,1.6896-.7155,1.8894-.7155,1.8894-3.115,1.4382c-1.7133,.7906-4.4948,1.4378-6.1812,1.4378h-3.0662v2.28 2.28l-1.5,1.52-1.5,1.52h-3.0987c-1.7043,0-4.8986,.6595-7.0985,1.4656l-3.9998,1.4656-5.1717-2.0969-5.1717-2.0969-2.1673,1.1168c-4.552,2.3457-8.5607,3.8267-12.4481,4.5989l-4.0308,.8007-4.4749-1.6397-4.4749-1.6397-1.0448,1.7131-1.0448,1.7131-4.5665-.8681-4.5665-.8681-2.4454,.7865c-1.3449,.4326-2.4454,1.2623-2.4454,1.8439v1.0574l3.75,1.3247 3.75,1.3247v1.4158c0,.7787-.6109,2.5726-1.3576,3.9864l-1.3576,2.5706-4.4349-.8431-4.4349-.8431 .6982,1.8438 .6982,1.8438-1.9014,2.7508-1.9014,2.7508-2.6918-.3887-2.6918-.3887-.3791-2.6926-.3791-2.6926-2.9718-2.829-2.9717-2.829-5.5199,2.1362-5.5199,2.1362 .5803,3.0761 .5803,3.0761-1.4463,1.7659-1.4463,1.7659-4.6383-.073-4.6383-.073-2.1641-1.875-2.1641-1.875-1.8984,1.5966-1.8984,1.5966v2.9368 2.9368l-1.3048,.8171-1.3048,.8171-1.7803-1.4972-1.7803-1.4972 .2725-1.3035 .2725-1.3035-1.4966-.5583-1.4966-.5583 .2466,3.5666 .2466,3.5666-4.375-.4772c-2.4062-.2624-6.3438-.5474-8.75-.6333l-4.375-.1561v2.5333 2.5333l2.8125,.4048 2.8125,.4048v3.0038 3.0038l-1.4396,.9016-1.4396,.9016-1.5107-2.0935c-.8309-1.1514-2.1518-2.0935-2.9354-2.0935h-1.4247v1.182 1.1819l-3.7496-.108-3.7496-.108-5.2254,5.8928-5.2254,5.8928h-1.7958-1.7958l.7537,2.85c.4145,1.5675 .7614,3.2775 .7708,3.8l.0171,.9495h2.3469 2.3469l1.5561-1.9c.8559-1.045 1.9902-1.9 2.5208-1.9h.9647l-.1803,3.4833-.1803,3.4833-3.1044,2.7224-3.1044,2.7224-3.7851-.6224-3.7851-.6224-2.3667,2.6501-2.3667,2.6501h-3.4825-3.4825l-.7725,1.2667-.7725,1.2667h-2.8982-2.8982l-1.3922,1.6999-1.3922,1.6999 .8225,.8335c1.3708,1.389 6.0997,.9396 10.7266-1.0194l4.376-1.8528 .7374-1.9472 .7374-1.9472h10.5305 10.5305l.7114-1.8786 .7114-1.8786 2.0153,.7836 2.0153,.7836 5.2195-1.5702c2.8708-.8636 6.5838-2.1142 8.2512-2.779l3.0316-1.2088 3.5752,2.6785 3.5752,2.6785 2.3402-.7527 2.3402-.7527 .6483-1.7121 .6484-1.7121-3.7407-.7581-3.7407-.7581 .868-1.4232 .868-1.4232 6.3543,.8542 6.3543,.8542-2.3599-2.6424-2.3599-2.6424 1.158-.9899c.6369-.5445 3.3034-2.5829 5.9257-4.5299l4.7677-3.5399 2.7323,.8564c1.5027,.471 4.9745,1.1399 7.7151,1.4864 2.7406,.3465 5.6031,1.1517 6.3612,1.7892l1.3784,1.1592 7.9383-3.1525c4.3661-1.7339 8.4446-3.1525 9.0634-3.1525 .6188,0 2.1809-1.2825 3.4714-2.85l2.3463-2.85 .0416-2.1286 .0416-2.1286-2.7146-.4048-2.7146-.4048-.4736-1.4587-.4736-1.4586 4.0052-2.0247 4.0052-2.0247h5.5151 5.5151l2.4178-1.3112 2.4178-1.3112 2.205,1.1958 2.205,1.1958 5.6075-1.0408 5.6075-1.0408 1.5995,1.3424 1.5995,1.3424 3.1468-1.4529 3.1468-1.4529h3.6912 3.6912v3.1667c0,3.8802 .3363,3.9054 4.2227,.3167 1.6975-1.5675 4.7809-4.4175 6.8521-6.3333l3.7658-3.4833h1.9939 1.9939l.8051-2.2167c.4428-1.2192 2.216-3.569 3.9404-5.2218l3.1352-3.0051 3.6533-1.0617 3.6533-1.0617-.7409,2.8002c-.4075,1.5401-.7486,3.2418-.7579,3.7816-.01,.5397-1.2827,1.5359-2.8296,2.2136-1.5469,.6778-3.7969,1.8037-5,2.502-1.2031,.6983-3.1719,1.7401-4.375,2.3151l-2.1875,1.0454-1.7881,4.0212-1.7881,4.0212h-1.4557c-.8006,0-2.3953,1.0522-3.5438,2.3381l-2.0881,2.3381 .3319,3.0411 .3319,3.0411-2.8125,.4089-2.8125,.4089v1.6568c0,.9112-.8438,2.3664-1.875,3.2337l-1.875,1.5769v-1.3901-1.3901l-4.0625,.7755-4.0625,.7755-2.1875,1.9224c-1.2031,1.0573-2.1875,2.4706-2.1875,3.1405v1.218l3.2235-.6244 3.2235-.6244 .6979,1.8429 .6979,1.8429-3.8869,5.588-3.8869,5.588 .7242,1.9125 .7243,1.9125h-1.3765c-1.4895,0-12.6411,10.6935-12.6411,12.1218v.8687l5.1565-.8356c2.8361-.4596 6.2474-1.4272 7.5807-2.1502l2.4241-1.3147-1.4114-1.7233-1.4114-1.7233 2.8674-1.5551c1.5771-.8553 3.6223-2.32 4.545-3.255 .9227-.935 2.4812-1.7 3.4633-1.7h1.7857v1.1919c0,.6556-.5625,1.5442-1.25,1.9748-.6875,.4306-1.25,1.5143-1.25,2.4082v1.6254l10.3702-.1992 10.3702-.1992 1.516-.9494 1.516-.9494 2.6146,.8409 2.6146,.8409-1.3758,1.3942c-.7567,.7668-1.3758,1.8502-1.3758,2.4075v1.0133h2.4262 2.4262l.8852,1.4514 .8852,1.4514-3.1519-.8016-3.1519-.8016-3.9573,2.0005-3.9573,2.0005-1.8272-.7105-1.8272-.7105v-1.9398-1.9397h-2.4747c-1.3611,0-4.7361,.9169-7.5,2.0375l-5.0253,2.0375v1.041 1.041l2.8125,.4048 2.8125,.4048 .3994,2.85 .3994,2.85h3.5893 3.5893l.7169,1.1755 .7169,1.1755-2.5181,.8099-2.5181,.8099-2.8125-.9614c-1.5469-.5288-3.7647-.8219-4.9285-.6513l-2.1161,.3101-9.4026-3.3825-9.4026-3.3825-3.1689,.8059-3.1689,.8059v1.2425 1.2425h2.2917c1.2604,0 2.6618,.3751 3.1142,.8335l.8225,.8335-1.3922,1.6999-1.3922,1.6999h-4.2612-4.2612l-.7195-1.9c-1.0838-2.862-2.2215-2.3909-8.4719,3.5076l-5.7302,5.4076v2.1012 2.1012l7.1875,.8085 7.1875,.8085 2.9083,1.4487 2.9083,1.4487-2.2833,.9116c-1.2558,.5014-3.8302,.9517-5.7208,1.0006l-3.4375,.089v-1.3792-1.3792l-7.8125,.8682-7.8125,.8682-104.69,.5322-104.69,.5322 .0313-147.5369zm60.4138,111.2174 6.3778-4.2563 2.688,0 2.6879,0 1.5561-1.9 1.5561-1.9 2.2732,0 2.2732,0 .7872-1.2907 .7872-1.2907 5.2241,.0447c2.8733,.0246 6.7683,.0127 8.6558-.0275l3.4317-.0722 1.9032-3.7294 1.9032-3.7295-1.5186-2.464-1.5186-2.464 3.0587-2.5796 3.0587-2.5796 2.2267-.0422 2.2267-.0422 .6991-2.2167c.8329-2.6409 2.8988-7.7969 4.1933-10.4656l.9292-1.9155-1.0347-2.8345-1.0347-2.8343h-1.9153-1.9153v-1.1846-1.1846l7.5,.4895 7.5,.4895v-1.1302c0-2.0601-3.0255-3.165-12.5-4.5647l-9.375-1.385-1.5625,.5705c-.8594,.3138-1.5625,1.0178-1.5625,1.5644v.9938l3.125,.7948 3.125,.7948v3.0521 3.0521l1.875,1.9c2.507,2.5404 2.3761,2.9334-.9375,2.8149l-2.8125-.1006 .3457,3.3919 .3457,3.3919-3.6669,2.195-3.6669,2.195 .6105,1.6122 .6105,1.6122-7.0138,3.251-7.0138,3.251h-2.4939-2.4939l-1.1881-3.1667-1.1881-3.1667-2.2184,.0194c-1.2201,.0101-2.9976,.5194-3.9498,1.1305l-1.7314,1.1111 2.8147,1.5265 2.8147,1.5265-1.9387,1.9645-1.9387,1.9645-3.9017-1.6377-3.9017-1.6377-1.3895,1.408-1.3895,1.408 2.3965,.8777c2.8922,1.0592 6.7715,4.9276 6.7715,6.7524v1.3196h-2.3469-2.347l-1.4944,1.8247-1.4945,1.8247-1.5942-.6199-1.5942-.6199-4.6768,4.1785c-2.5723,2.2982-5.2182,5.1944-5.88,6.436l-1.2031,2.2575 3.3467-.8512c1.8407-.4681 6.2167-2.7665 9.7245-5.1075zm57.44-136.2729 .6677-2.8834-.8473-5.0021-.8473-5.0021-4.0321-2.3862-4.0321-2.3862-3.5076,.7807c-1.9292,.4294-5.313,1.8932-7.5196,3.2531l-4.012,2.4724v2.4801 2.4801l2.7781,1.9718 2.7781,1.9718h2.5462 2.5462l1.5972,2.5916 1.5972,2.5916 2.766,1.0588 2.766,1.0587 2.0437-1.0836 2.0437-1.0836 .6677-2.8834zm269.1577,169.7c-.4146-1.5675-.7614-5.4858-.7708-8.7074l-.0171-5.8574-1.8394-5.283c-1.0117-2.9056-2.212-8.2498-2.6675-11.8759-.4554-3.6261-1.3564-7.631-2.0021-8.8997-1.6893-3.3192-5.0381-16.0353-5.3968-20.4932-.5822-7.2346-3.321-22.8108-4.4545-25.3333-2.3611-5.2545-6.0793-17.847-6.1089-20.6889l-.0307-2.9556 1.5625,.5083c.8594,.2796 3.396,3.3195 5.6368,6.7555l4.0743,6.2473-.5417,1.4356-.5417,1.4356 4.2798,3.8396 4.2798,3.8396v3.9352 3.9353l2.8202,1.3021 2.8202,1.3021 2.8048,4.9383c1.5426,2.7161 2.8048,5.7961 2.8048,6.8444 0,5.4367 4.3259,10.4044 5.3485,6.142 .2925-1.2192 .6297,11.8908 .7493,29.1333l.2175,31.35h-6.1369-6.1369l-.7537-2.85zm-120.7301-93.3549-1.8172-1.1637 1.4075-2.9324c.7741-1.6128 1.7432-4.4999 2.1535-6.4157l.746-3.4833h1.8512 1.8512v-1.2341-1.2341l3.75-1.965c2.0625-1.0808 3.75-1.6454 3.75-1.2546 0,.3907 1.0474,.1424 2.3275-.5518l2.3275-1.2623 2.5799,2.801 2.5799,2.801-2.9724,3.4833-2.9724,3.4833h-3.185-3.185v1.1786 1.1786l-2.7613,.4048-2.7613,.4048-.7107,3.0728-.7107,3.0728-1.2155,.39c-.6685,.2145-2.0333-.1337-3.0328-.7737zm99.2614-52.3185-1.1941-4.1099-3.125-.4322-3.125-.4322-2.1614-1.9569-2.1614-1.9569-.7848,2.0724-.7848,2.0724-1.6075,0-1.6075,0-.7195-1.9-.7195-1.9-2.2652,0-2.2652,0-1.4163-3.8022-1.4163-3.8022-2.003,.7789-2.003,.7789-6.8548-.8679-6.8548-.8679 .007-.8589c.004-.4724 1.6601-1.8114 3.6795-2.9756l3.6716-2.1167 2.883,.7416c1.5856,.4079 4.163,1.5781 5.7275,2.6004l2.8445,1.8588 2.3473-2.1526 2.3474-2.1526 2.3081,4.0593 2.3081,4.0593 6.2258,2.9543 6.2258,2.9543 1.0676-1.0818 1.0676-1.0818-.4183-2.9831-.4183-2.9832-2.5-.3616c-1.375-.1989-4.6094-1.0085-7.1875-1.799l-4.6875-1.4374-.0137-3.9139c-.007-2.1527-.3088-5.9089-.6699-8.3473l-.6566-4.4333 1.2953-1.9 1.2953-1.9 1.2309,1.9 1.2308,1.9 .0191,4.4967 .0191,4.4967 1.5,1.52 1.5,1.52h2.9059 2.9059l1.2191-3.2491c.6705-1.787 1.2766-4.7795 1.347-6.65l.1279-3.4009 .9907,4.2481c.5449,2.3365 1.9945,6.5038 3.2214,9.2608l2.2307,5.0127-2.1788,3.7376-2.1788,3.7376 .9312,2.8349c1.0652,3.2429 .6977,9.9776-.6209,11.3782l-.888,.9433-1.1941-4.1099zm14.6125-61.9322-.1472-6.6223 3.8704-3.2742 3.8704-3.2742-2.6866-4.8471-2.6866-4.8471 1.3858-1.692 1.3858-1.692-1.3807-2.6143-1.3807-2.6143-1.6852,0-1.6852,0-.6882,2.6668-.6882,2.6668-1.6451-.5551-1.6451-.5551-.3601-1.8796-.3601-1.8796 2.6981-3.4757 2.698-3.4757 1.9006,.7391 1.9006,.7391 2.3897-.7686 2.3897-.7686-1.2177-1.4868c-1.7745-2.1666-5.1245-12.3989-5.1457-15.7168l-.0182-2.85h-1.7292-1.7292l-.6742,2.6128-.6743,2.6128 1.7785,4.3132c.9782,2.3723 1.7785,5.1865 1.7785,6.2539v1.9407h-1.25-1.25v-2.1474-2.1474l-3.0165-3.236-3.0165-3.236-.2524-2.5333c-.1388-1.3933-.1877-3.2795-.1085-4.1914l.144-1.6581 1.25,.7828 1.25,.7828v-1.8197-1.8197l-1.875-1.5769-1.875-1.5769v-1.7449-1.7449h1.4819c.8151,0 2.8601,1.2825 4.5446,2.85l3.0627,2.85-.8187-6.5051-.8187-6.5051 1.8991-.7385 1.8991-.7385v-5.0136-5.0136l7.026-3.2595c3.8643-1.7927 8.0831-3.2595 9.375-3.2595h2.349v24.7747 24.7748l-1.25-.7828-1.25-.7828v1.9c0,1.045 .5625,2.2523 1.25,2.6828 .6875,.4306 1.25,1.3528 1.25,2.0495v1.2667l-1.25-.7828-1.25-.7828v1.3414 1.3414h1.25 1.25v1.7944 1.7944l-1.5625,.6425-1.5625,.6424 1.2955,1.0464 1.2955,1.0464 .3628,4.75 .3628,4.75h-1.0958c-.6027,0-1.7708-.684-2.5958-1.52l-1.5-1.52v1.7369c0,.9553 .8698,2.7109 1.9329,3.9013l1.9329,2.1644-3.1829,.8095-3.1829,.8095v4.2541 4.2541l-1.8202,1.5308-1.8202,1.5308-1.1377-.7125-1.1377-.7125-2.125,2.3794-2.125,2.3794 .3954,2.2093 .3954,2.2093-1.3981,.4981-1.3981,.4981-.1472-6.6223zm-12.2296-73.9111-.7195-1.9 .6153-1.6247 .6153-1.6247-2.3216-2.9053-2.3216-2.9053-1.3093,.82-1.3094,.82-4.2164-1.4101-4.2164-1.4101-.5426-3.7466c-.6207-4.2856-.1737-4.5502 2.9097-1.7226l2.2072,2.0241 1.3492-.8449 1.3491-.8449-.7192-1.1791-.7192-1.1791h1.6988c.9343,0 2.3134,.6228 3.0646,1.384l1.3658,1.384 2.72-1.4751 2.72-1.4751 3.0392,3.323 3.0392,3.3231v5.1491 5.1491l-2.6298-.6969-2.6298-.6969 .5815,3.0825 .5815,3.0825h-1.7409-1.7409l-.7195-1.9z"/>
<path fill="#5a6f88" d="m56.212-64.1726 .2978-8.1726 2.5576,.256 2.5576,.256 0-1.9 0-1.9-2.852,.3088-2.852,.3088 .1313-102.1118 .1313-102.1118 1.4708-1.696 1.4708-1.696 11.875-4.0086c6.5312-2.2047 12.4375-4.5694 13.125-5.2549l1.25-1.2463-12.1049,.8825-12.1049,.8825-2.5826-.8306-2.5826-.8306v-29.0082-29.0082l2.1875,.7922c1.2031,.4357 5.5601,3.5528 9.6822,6.9269l7.4947,6.1347h2.0242 2.0242l3.3769,2.6917 3.3769,2.6917h3.3241 3.3241l2.8433,1.8878 2.8433,1.8878 6.5618-.004 6.5618-.004 5,1.9546c2.75,1.075 5.8717,2.7062 6.9371,3.6248 1.0654,.9186 4.2625,2.5016 7.1047,3.5177l5.1677,1.8476 1.4858-1.8142c2.0426-2.4939 4.1324-2.273 6.8047,.7192l2.2625,2.5333h2.3455 2.3455l.6924,1.8284 .6924,1.8284 4.9318,2.6049c9.0827,4.7973 10.8131,3.4527 3.9174-3.0438l-4.6875-4.4161-2.2917-.0343-2.2917-.0343 .5545-1.5833 .5545-1.5833 2.9029,.3427 2.9029,.3427 3.8343,2.9529c2.1089,1.6241 5.7028,3.9282 7.9866,5.1202l4.1523,2.1673 1.769-1.4877 1.769-1.4877 2.8287,.7764c1.5558,.427 4.7747,2.4259 7.153,4.442l4.3243,3.6656-1.481,1.8082-1.4809,1.8082 8.7813,6.7649 8.7813,6.7649 6.7686-2.8428 6.7686-2.8428 1.4066,.8809 1.4066,.8809-.7939,4.2883-.7939,4.2883 1.6191,.1984c.8905,.1091 3.8691,.2516 6.6191,.3167l5,.1182-.2218,3.3831-.2218,3.3831 2.0968,.8599c1.1532,.473 5.0074,1.0414 8.5649,1.2631l6.4681,.4032 .7489-1.9775c.8906-2.3518 1.4423-1.9149-5.898-4.6715l-5.963-2.2394-2.3302-4.8872-2.3302-4.8872 .689-.6982c.3789-.384 1.7792-.6982 3.1116-.6982h2.4226l6.2217,3.1667 6.2217,3.1667h2.8379 2.8379l13.2141,6.3162 13.2141,6.3162 3.5327,3.885c1.943,2.1367 4.6118,4.8519 5.9307,6.0338 1.3189,1.1819 4.6939,4.2149 7.5,6.74l5.102,4.5911 7.9073,4.0256 7.9073,4.0256 6.6742-3.8169 6.6742-3.8169 3.256,2.5953c3.8983,3.1072 6.324,7.6702 7.4605,14.0334l.8385,4.6951 4.016,3.2076 4.016,3.2076-1.875,.207c-1.0312,.1139-2.7188,.265-3.75,.336l-1.875,.129v4.3103 4.3103l-1.4516,.5025-1.4516,.5025-3.1114-5.2872-3.1114-5.2872-1.4185,2.6858-1.4185,2.6858h-1.6881c-.9285,0-3.2993-.8524-5.2685-1.8943l-3.5804-1.8943-.3623,2.2408-.3623,2.2408-3.7719,1.6919-3.772,1.6919-.8553-.8667-.8553-.8667 2.1771-1.2346 2.1771-1.2346v-2.0141-2.0141l2.0498-1.5189 2.0498-1.5189-1.2538-2.2702-1.2538-2.2702-12.2627-.5402-12.2627-.5402-2.3305-1.2639-2.3306-1.2639-2.4528,.7889-2.4528,.7889 .0191,1.498c.01,.8239 .5101,2.2835 1.1102,3.2436l1.0911,1.7456 1.4983-.9384 1.4983-.9384 4.8178,2.2015 4.8178,2.2015 .5344,1.4246 .5344,1.4246-1.0455,2.85-1.0455,2.85-1.6028,.1572c-.8815,.0865-5.5403,.3081-10.3528,.4926l-8.75,.3354-2.8125-1.7885-2.8125-1.7885v-3.0189-3.0189l-2.6261,.6959-2.6261,.6959 .4386-2.262 .4386-2.262 1.875-.9944c1.0312-.5469 2.9457-1.3362 4.2544-1.754l2.3794-.7596-1.8264-1.5485c-1.0045-.8517-3.2003-3.6821-4.8794-6.2898-3.1884-4.9517-4.2562-5.6181-5.5646-3.4728-.4313,.7072-2.7145,2.1031-5.0738,3.102l-4.2895,1.8162v1.9646 1.9646h-1.7219-1.7219l-1.5907-1.9422-1.5907-1.9422-2.7431,2.6113-2.7431,2.6113-2.1012-.8171-2.1012-.8171 1.46-1.7827 1.46-1.7827-.7049-.7143-.7049-.7143-3.8628,2.894-3.8628,2.894-4.2584-1.5604-4.2583-1.5604-8.8383-.2708-8.8383-.2708-1.1617-3.3769-1.1617-3.3769 .8354-.9428 .8354-.9428-2.2369,.8146-2.2369,.8146-2.3807-1.5066-2.3807-1.5066-2.4969,2.2898-2.4969,2.2898-6.6355,.93-6.6355,.93 1.875,.7331c1.0312,.4032 7.2188,1.9566 13.75,3.452 6.5312,1.4954 13,3.0171 14.375,3.3816 1.375,.3645 6.8186,.9251 12.097,1.2458l9.597,.5832 6.6382,2.1595 6.6382,2.1595 .4564,2.5333c.251,1.3933 1.3052,3.5039 2.3426,4.6902l1.8863,2.1568-2.9528,.5957c-5.2405,1.0572-16.441,.5392-27.179-1.257-5.7619-.9638-11.8088-1.7524-13.4375-1.7524h-2.9613l.0191,.95c.01,.5225 .4567,1.6478 .9914,2.5007l.9723,1.5507 8.6961,1.2346c4.7829,.679 18.9435,1.8445 31.4681,2.5899 12.5246,.7455 23.6483,1.6961 24.7194,2.1126l1.9474,.7572-1.3687,1.6711-1.3687,1.6711 1.4326,2.7125 1.4326,2.7125 1.8814-.7316c1.0348-.4024 2.6791-.7316 3.6542-.7316h1.7728v-2.28-2.28l-1.5-1.52-1.5-1.52h6.25 6.25l1.4973,1.5173 1.4973,1.5173 8.4402,1.0149c4.6421,.5582 13.2214,1.57 19.0652,2.2483 24.0169,2.788 32.6977,7.1478 25.1195,12.6159l-3.6305,2.6196h-3.0988-3.0987l-.6101,2.3642-.6101,2.3642-6.879,2.1926-6.879,2.1926-2.3442-.486-2.3442-.486 .1843-4.0708c.1014-2.2389 .0664-4.0708-.0777-4.0708-.1441,0-2.5905,1.14-5.4364,2.5333l-5.1744,2.5333h-3.4173-3.4173l-2.8497,2.7128-2.8497,2.7128-3.9958-1.961-3.9958-1.961-1.6552,.6436-1.6552,.6436-1.1534-3.0741-1.1534-3.0741-3.1723-2.1063-3.1723-2.1063 2.0229,3.5716 2.0229,3.5716-.8588,2.2678-.8588,2.2678-3.925-.7955-3.925-.7954-3.4801,3.9499c-3.3949,3.8533-8.9157,7.4655-11.4099,7.4655h-1.2426l.7843-3.1667 .7843-3.1667h-4.438-4.4381l-.7195-1.9-.7195-1.9h-3.1268-3.1268l.8569,3.4597c.9994,4.0349 1.0058,4.0902 .8121,6.9903l-.148,2.2167h-1.7857c-.9821,0-2.6685,.8946-3.7475,1.988l-1.9618,1.988 1.3488,2.5539 1.3488,2.5539-.6369,.6454-.6369,.6454-3.9238-.8733-3.9238-.8733-.678-1.7903-.678-1.7903 2.0124-3.1123 2.0124-3.1123v-2.5032-2.5032l-1.3425-.8408-1.3425-.8408-3.0886,2.9403-3.0887,2.9403-2.1313-1.3623c-1.1722-.7493-2.1313-1.9652-2.1313-2.702 0-.7369-.4219-1.7672-.9375-2.2897l-.9375-.95v3.2227 3.2227l-1.6547,1.3916-1.6548,1.3916-1.4702-1.4898-1.4703-1.4899v-3.0637-3.0637l-4.3357,3.3511-4.3357,3.3511-2.9985-.7626-2.9985-.7626-3.2907,3.0904-3.2907,3.0904v1.9967c0,1.0982-.5236,2.3246-1.1636,2.7254l-1.1636,.7287-.7362-1.2071c-.8954-1.4681-8.1865-5.2622-8.1865-4.2601 0,.3923 .8996,1.3799 1.9992,2.1946l1.9992,1.4813-3.139,4.6872-3.139,4.6872-3.837-3.2717-3.837-3.2717-2.8357,.9112c-1.5596,.5012-4.9825,2.284-7.6064,3.9619l-4.7707,3.0508 2.5411,4.3642 2.5411,4.3642h-1.9499-1.9499l-.6538-2.5333-.6538-2.5333h-2.2804-2.2804l-.8897,1.4588-.8897,1.4588 1.8309,1.3912c1.007,.7652 2.2259,2.4563 2.7086,3.7581l.8777,2.3669-4.4817,4.2831c-2.4649,2.3557-5.0041,4.2831-5.6427,4.2831h-1.161v-1.7944-1.7944l1.5625-.6593 1.5625-.6593-2.4264-1.9796-2.4264-1.9796h-2.9683c-1.6326,0-4.0986,.613-5.48,1.3622l-2.5118,1.3622 .8288,4.9712 .8288,4.9711h-5.0206-5.0206l-2.0238-2.0508-2.0238-2.0508-.6667,.6757-.6667,.6756 1.3513,2.5585c.7432,1.4072 1.3513,3.3846 1.3513,4.3941v1.8355l-2.5935,.6873-2.5935,.6873 1.3711,2.596 1.371,2.596-3.465,.7703c-1.9058,.4236-4.2038,1.0036-5.1068,1.2889l-1.6417,.5186 .8663,1.4204 .8663,1.4204 4.8379-.6576 4.8379-.6576v.8066c0,.4436-3.2096,3.8094-7.1324,7.4795l-7.1324,6.6729-1.9301,.0076-1.9301,.0076-2.224,3.9591-2.224,3.9591-5.4689-.7596-5.4689-.7596-1.5894,1.9406-1.5893,1.9406-2.8138-.7156-2.8138-.7157-2.6467,3.4097-2.6467,3.4097 2.8678,1.613 2.8678,1.613 4.6388,.0448 4.6388,.0448 2.2362-2.3697 2.2362-2.3697 5-1.5849c2.75-.8717 5.8438-2.0793 6.875-2.6837 1.0312-.6044 3.962-2.2448 6.5127-3.6454l4.6377-2.5457h3.904 3.904l-.4934,1.5-.4934,1.5-6.1008,2.0681-6.1008,2.0681-2.4887,3.3778-2.4887,3.3778 .8029,.8136 .8029,.8136 10.3634-3.5933c10.8639-3.7668 15.4054-6.3031 16.5934-9.267l.7113-1.7745-2.6374-2.4899-2.6374-2.4899-1.3958,1.4144c-.7677,.7774-2.127,1.4138-3.0208,1.4138h-1.625v-1.612-1.6119l4.2471-2.3177 4.2471-2.3177 2.9404,2.9626c1.6172,1.6295 3.6495,4.3296 4.5162,6.0003l1.5758,3.0377-1.3002,1.5875-1.3002,1.5875 1.4876,3.3084c.8182,1.8196 1.9532,3.3084 2.5222,3.3084h1.0346l-.2978-2.7981-.2978-2.7981 2.2912-.4817 2.2912-.4817-1.4838,2.8096-1.4838,2.8096 3.5676-.6516c3.6109-.6595 10.1298-2.8609 14.9571-5.0509l2.6395-1.1975 2.673,1.6916 2.673,1.6916 2.483-1.5713 2.483-1.5714h4.2582 4.2582l.7693-2.0314 .7693-2.0314 1.8781,.7303 1.8781,.7303 3.7363-.7572 3.7363-.7572v-1.5866c0-2.3674-2.5719-3.9988-7.8125-4.9557l-4.6875-.8559v1.8826 1.8826l-1.4323,.897-1.4323,.897 .7816-3.1555 .7816-3.1555-2.951-1.6004-2.951-1.6004-3.7793,.8411-3.7792,.8411-.8692-1.4251-.8692-1.4251 .7128-.7223 .7128-.7223 9.4187,.2213 9.4187,.2213 5.9312-2.1612 5.9312-2.1612 10.6568-.2677 10.6568-.2677 6.0282-3.8739 6.0282-3.8739 2.69,1.0189 2.69,1.0189 7.9546-.3547 7.9546-.3547 1.3579-1.376c1.912-1.9375 4.6721-1.7098 7.1829,.5927l2.1468,1.9688 10.6224-2.6021c5.8423-1.4312 11.1885-2.6021 11.8803-2.6021h1.2579l.7803,2.0606 .7803,2.0606-1.4246,1.7395-1.4246,1.7395h2.0281 2.0281v-1.3313-1.3313l4.6442-1.9663c2.5543-1.0815 5.241-2.7934 5.9705-3.8043l1.3262-1.8379 4.8325-.4551 4.8325-.4551 2.9471,1.3607c3.7365,1.7251 3.7046,2.8969-.1779,6.5431l-3.125,2.9348v1.9967 1.9967l-1.5625,1.0247-1.5625,1.0248h-5.625-5.625l-.2885,1.2328-.2885,1.2328 4.351-.3798 4.351-.3799v1.1429c0,.6286-1.4062,2.4816-3.125,4.1178-1.7188,1.6362-3.125,3.4564-3.125,4.0449v1.07l3.4375-.7845c1.8906-.4315 5.5716-1.326 8.1799-1.9879l4.7424-1.2034 1.0625-2.7862c.5844-1.5324 2.5262-4.1659 4.3152-5.8523l3.2527-3.0661 .8951,.907 .8951,.907-1.5152,2.4585c-.8333,1.3522-1.5152,2.6816-1.5152,2.9543 0,.2727 4.9588,.379 11.0196,.2363l11.0196-.2595 1.4916-.9342 1.4916-.9342 2.6146,.8409 2.6146,.8409-1.3758,1.3942c-.7567,.7668-1.3758,1.8502-1.3758,2.4075v1.0133h2.5 2.5v1.2908 1.2908l-2.9886-.7601-2.9886-.7601-.8351,1.3693-.8351,1.3693h-4.3012-4.3012v-1.9-1.9h-3.0826-3.0826l-4.4174,2.1346c-2.4296,1.174-4.4174,2.5594-4.4174,3.0786v.944l2.8125,.4048 2.8125,.4048 .3994,2.85 .3994,2.85h3.7672 3.7672l-.5387,1.5833-.5387,1.5833-3.628-.3205c-1.9954-.1763-4.8968-.3249-6.4476-.3303-1.5508-.0051-6.5812-1.4445-11.1787-3.198l-8.3591-3.1883-7.5713,.8109-7.5713,.8109-3.0325,1.9329c-4.7148,3.0052-8.7097,7.8793-11.2756,13.7573l-2.3479,5.3786-3.547,1.8357-3.5471,1.8357-31.4021,.184-31.4021,.184 .1521-2.8554 .1521-2.8554-2.0259-.4024-2.0259-.4024-.6539,2.5339-.6539,2.5339 1.4298,.6172 1.4298,.6172-17.1218-.0401-17.1218-.0401-.6907-1.4663-.6907-1.4663-.7292,1.5833-.7292,1.5833h-51.8137-51.8137l.2978-8.1726zm172.288,5.6007v-1.2281h4.4792 4.4792l-.5732-1.5833-.5732-1.5833 3.1056-3.3804 3.1056-3.3804-.8856-1.4521-.8856-1.4521-2.0634,1.8837-2.0634,1.8837-7.5,1.0599-7.5,1.0599-.002,2.5053-.002,2.5053-2.1545,.4204-2.1545,.4204 1.4918,1.6183 1.4918,1.6183 4.1024,.1563 4.1024,.1563v-1.2281zm-54.8457-168.7893c.0851-.8463 .3403-4.2707 .5671-7.6097l.4123-6.071-4.0046-2.4743-4.0046-2.4743-3.8776-.005-3.8776-.005-4.2387,2.8946-4.2387,2.8945-.4307,2.2664-.4307,2.2664 2.1783,2.4391c1.1981,1.3415 2.8917,2.4391 3.7637,2.4391 .8719,0 3.1754,1.3558 5.1188,3.0128 1.9434,1.657 4.6584,3.2674 6.0334,3.5785l2.5,.5657 2.1875-1.0898 2.1875-1.0898 .1548-1.5388zm272.3584,169.4774-1.5429-1.8839 .6133-1.6196 .6133-1.6196-1.8073-8.2132c-.994-4.5173-2.37-10.7782-3.0578-13.9132-1.4345-6.5384-2.4222-14.3165-2.4386-19.2041l-.0113-3.3708-1.6901-.6572-1.6901-.6572-1.5107-4.6386-1.5107-4.6386 1.3079-1.3253 1.3079-1.3253 5.27-.3013 5.27-.3013 2.8925,3.3266c1.5909,1.8296 2.9103,3.7541 2.932,4.2766l.0395,.9505h-4.2219-4.2219l-1.6352,1.9965-1.6352,1.9965 1.6617,1.0407 1.6617,1.0406 4.9078-.2556 4.9078-.2556 .9887-1.6211 .9887-1.6211 .8413,2.2216 .8413,2.2216-1.6048,1.1477-1.6048,1.1477 1.5504,.6384 1.5504,.6384-.038,23.3319-.038,23.3319h-4.1718-4.1718l-1.5429-1.8839zm-2.127-226.4328-1.0113-1.5833l-.1219-5.0667c-.067-2.7867-.5543-6.3483-1.0828-7.9147l-.9609-2.848 2.9578,.0167c1.6268,.009 3.8015-.0904 4.8328-.2212l1.875-.2379 .5461-6.4308c.3004-3.5369 .5762-9.1883 .6129-12.5585l.0668-6.1277-2.1754-1.6119-2.1754-1.6119-.0191-3.6604-.0192-3.6604-1.2117,1.9-1.2117,1.9-.0191,5.8616-.0191,5.8616-1.8151,1.5265-1.8151,1.5265-1.9349-4.6927-1.935-4.6927 .0191-3.962 .0191-3.962 1.1594-1.8575 1.1594-1.8575-1.2549-1.5322-1.2549-1.5322 .3889-5.2789 .3889-5.2789 6.875-2.9391c8.1965-3.5041 7.7722-3.7295 5.7894,3.0754l-1.602,5.498-3.3437,1.7753c-1.839,.9764-3.3437,2.0621-3.3437,2.4127 0,1.0394 5.4032-2.0969 8.4375-4.8974l2.8125-2.5958v-1.6044c0-.8824 .5372-1.9409 1.1937-2.352l1.1937-.7476-.009,22.8732-.009,22.8732-1.1844-.7417-1.1855-.7417v1.9c0,1.045 .5625,2.2523 1.25,2.6828 .6875,.4306 1.25,1.3528 1.25,2.0495v1.2667l-1.25-.7828-1.25-.7828v1.3414 1.3414h1.25 1.25v1.9 1.9h-1.3957-1.3957l.5995,3.1777 .5995,3.1778-1.69-1.4213-1.69-1.4213 .742-1.2167 .7421-1.2167-2.3183,1.4654-2.3183,1.4654 .4331,6.2282 .4332,6.2282h-1.9219-1.9219l-1.0113-1.5833zm-19.9342-56.05-.7195-1.9 .6153-1.6247 .6153-1.6247-2.3216-2.9053-2.3216-2.9053-1.3093,.82-1.3094,.82-4.2164-1.4101-4.2164-1.4101-.5426-3.7466c-.6207-4.2856-.1737-4.5502 2.9097-1.7226l2.2072,2.0241 1.3492-.8449 1.3491-.8449-.7192-1.1791-.7192-1.1791h1.6988c.9343,0 2.3134,.6228 3.0646,1.384l1.3658,1.384 2.72-1.4751 2.72-1.4751 3.0392,3.323 3.0392,3.3231v5.0868 5.0868l-2.6723-.8594-2.6723-.8595 .6239,3.3074 .6239,3.3074h-1.7409-1.7409l-.7195-1.9z"/>
<path fill="#615e57" d="m56.212-64.1726 .2978-8.1726 2.5576,.256 2.5576,.256 0-1.9 0-1.9-2.8125,.3017-2.8125,.3017 0-13.8128 0-13.8128 1.5625-.6389 1.5625-.6389-1.5625-.1-1.5625-.1 0-77.9398 0-77.9398 1.875-.7291c1.0312-.401 1.875-1.2717 1.875-1.935v-1.2059l-1.1493,.7198-1.1493,.7198-.8614-8.1513-.8614-8.1513 1.6982-1.9427 1.6982-1.9427 11.875-4.0086c6.5312-2.2047 12.4375-4.5694 13.125-5.2549l1.25-1.2463-12.1049,.8825-12.1049,.8825-2.5826-.8306-2.5826-.8306v-22.6293-22.6293l2.538-.8163 2.538-.8163 6.8431,4.6028 6.8431,4.6028 6.3733,.4393 6.3733,.4393 1.3706,1.3889 1.3706,1.3888h3.5 3.5v1.9 1.9h5.3861 5.3861l2.3945,1.7742 2.3945,1.7742 3.9734-.6534 3.9734-.6534 1.415,2.6792 1.415,2.6792h2.3746c1.3061,0 3.9581,.6157 5.8935,1.3682l3.5189,1.3682-3.5211,1.8833-3.5211,1.8833 1.4866,1.8152c.8176,.9983 2.2236,1.8152 3.1243,1.8152h1.6377l.8297-2.6491 .8297-2.6491 2.692,.8612c1.4806,.4736 6.067,1.3839 10.192,2.0228 4.125,.6389 8.23,1.4361 9.1222,1.7714l1.6222,.6098-.8238,4.4499-.8238,4.4499h2.6391c2.9621,0 3.1482-.4693 1.4565-3.6724l-1.1826-2.2392 7.7451-1.4711 7.7451-1.4711 3.125,2.3241 3.125,2.3241 1.6307,3.3694 1.6307,3.3694h3.0013 3.0013l7.1377,5.0667 7.1377,5.0667h3.2785 3.2785l4.3268,2.2616c2.3797,1.2439 5.8895,3.7466 7.7994,5.5616l3.4726,3.3 5.9024,2.1362 5.9024,2.1362 6.25,.332c3.4375,.1826 8.3594,.772 10.9375,1.3099l4.6875,.9779v-1.2477-1.2477l4.055,.8404 4.055,.8404 .4546,2.483c.5489,2.9985 2.536,5.6496 4.2344,5.6496h1.2427l-.6538-2.5333-.6538-2.5333 .8205,.027c.4513,.0149 2.3894,2.2745 4.3068,5.0213l3.4864,4.9942 3.3886,1.6406 3.3886,1.6406 .3875,2.7462 .3875,2.7462 1.8,1.5137c.99,.8326 1.8,2.0425 1.8,2.6888v1.175l-5.8548-.3801-5.8548-.3801-.7422,3.0728-.7422,3.0728-1.528,.5161-1.528,.5161v-4.5389-4.5389h-1.875-1.875v-1.7449c0-.9597-.722-2.3521-1.6044-3.0942l-1.6044-1.3493-1.7052,1.0679-1.7052,1.0679-.1279,3.6096-.1279,3.6096-1.25,.0449c-.6875,.0247-2.5156,.7572-4.0625,1.6279l-2.8125,1.583v1.8554 1.8554h-1.7219-1.7219l-1.5907-1.9422-1.5907-1.9422-2.7431,2.6113-2.7431,2.6113-2.1012-.8171-2.1012-.8171 1.46-1.7827 1.46-1.7827-.7049-.7143-.7049-.7143-3.8628,2.894-3.8628,2.894-4.2584-1.5604-4.2583-1.5604-8.8383-.2708-8.8383-.2708-1.1617-3.3769-1.1617-3.3769 .8354-.9428 .8354-.9428-2.2369,.8146-2.2369,.8146-2.3807-1.5066-2.3807-1.5066-2.4969,2.2898-2.4969,2.2898-6.6355,.93-6.6355,.93 1.875,.7331c1.0312,.4032 7.2188,1.9566 13.75,3.452 6.5312,1.4954 13,3.0138 14.375,3.3742 1.375,.3604 6.1562,.889 10.625,1.1747 8.621,.5511 19.185,2.6624 22.8125,4.5592l2.1875,1.1438v2.0724 2.0724l2.0153,2.2566 2.0153,2.2566-2.9528,.5957c-5.2405,1.0572-16.441,.5392-27.179-1.257-5.7619-.9638-11.8088-1.7524-13.4375-1.7524h-2.9613l.0191,.95c.01,.5225 .4567,1.6478 .9914,2.5007l.9723,1.5507 8.6961,1.2346c4.7829,.679 18.9435,1.8445 31.4681,2.5899 12.5246,.7455 23.6483,1.6961 24.7194,2.1126l1.9474,.7572-1.3687,1.6711-1.3687,1.6711 1.4326,2.7125 1.4326,2.7125 1.8814-.7316c1.0348-.4024 2.6791-.7316 3.6542-.7316h1.7728v-2.28-2.28l-1.5-1.52-1.5-1.52h6.25 6.25l1.4973,1.5173 1.4973,1.5173 8.4402,1.0149c4.6421,.5582 13.2214,1.5302 19.0652,2.1599l10.625,1.1449 5.3125,2.1604c5.8485,2.3783 5.8256,2.3471 4.1079,5.5993l-1.2046,2.2808-5.0047,.811c-2.7526,.446-6.4293,1.4687-8.1704,2.2726l-3.1657,1.4616v2.2854 2.2854l-2.4178,1.3112c-1.3298,.7212-3.0173,1.3112-3.75,1.3112h-1.3322v-1.7645-1.7645l1.875-.7291 1.875-.7291v-1.9398c0-2.4925 .062-2.503-7.2663,1.2269l-6.2217,3.1667h-3.2729-3.2729l-2.483,1.5714-2.483,1.5713-2.5-1.5821-2.5-1.5821v1.1927 1.1927l-3.8544-.1111-3.8544-.1111-1.0316-2.7495-1.0316-2.7495-3.1723-2.1063-3.1723-2.1063 2.0229,3.5716 2.0229,3.5716-.8588,2.2678-.8588,2.2678-3.925-.7955-3.925-.7955-3.4801,3.9499c-3.3949,3.8533-8.9157,7.4656-11.4099,7.4656h-1.2426l.7843-3.1667 .7843-3.1667h-4.438-4.4381l-.7195-1.9-.7195-1.9h-3.1268-3.1268l.8569,3.4597c.9994,4.0349 1.0058,4.0902 .8121,6.9903l-.148,2.2167h-1.7857c-.9821,0-2.6685,.8946-3.7475,1.988l-1.9618,1.988 1.3488,2.5539 1.3488,2.5539-.6369,.6454-.6369,.6454-3.9238-.8733-3.9238-.8733-.678-1.7903-.678-1.7903 2.0124-3.1123 2.0124-3.1123v-2.5032-2.5032l-1.3425-.8408-1.3425-.8408-3.0886,2.9403-3.0887,2.9403-2.1313-1.3623c-1.1722-.7493-2.1313-1.9652-2.1313-2.702 0-.7369-.4219-1.7672-.9375-2.2897l-.9375-.95v3.2227 3.2227l-1.6547,1.3916-1.6548,1.3916-1.4702-1.4898-1.4703-1.4899v-3.0637-3.0637l-4.3357,3.3511-4.3357,3.3511-2.9985-.7626-2.9985-.7626-3.2907,3.0904-3.2907,3.0904v1.9967c0,1.0982-.5236,2.3246-1.1636,2.7254l-1.1636,.7287-.7362-1.2071c-.8954-1.4681-8.1865-5.2622-8.1865-4.2601 0,.3923 .8996,1.3799 1.9992,2.1946l1.9992,1.4813-3.139,4.6872-3.139,4.6872-3.7281-3.1789c-4.3172-3.6811-12.1481-2.061-18.8347,3.8965-.2571,.2291 .7083,2.4358 2.1453,4.9039l2.6128,4.4874h-1.9499-1.9499l-.6538-2.5333-.6538-2.5333h-2.2804-2.2804l-.8897,1.4588-.8897,1.4588 1.8309,1.3912c1.007,.7652 2.2259,2.4563 2.7086,3.7581l.8777,2.3669-4.4817,4.2831c-2.4649,2.3557-5.0041,4.2831-5.6427,4.2831h-1.161v-1.7944-1.7944l1.5625-.6593 1.5625-.6593-2.4264-1.9796-2.4264-1.9796h-2.9683c-1.6326,0-4.0986,.613-5.48,1.3622l-2.5118,1.3622 .8288,4.9712 .8288,4.9711h-5.0206-5.0206l-2.0238-2.0508-2.0238-2.0508-.6667,.6757-.6667,.6756 1.3513,2.5585c.7432,1.4072 1.3513,3.3846 1.3513,4.3941v1.8355l-2.5935,.6873-2.5935,.6873 1.3711,2.596 1.371,2.596-3.465,.7703c-1.9058,.4236-4.2038,1.0036-5.1068,1.2889l-1.6417,.5186 .8663,1.4204 .8663,1.4204 4.8379-.6576 4.8379-.6576v.8066c0,.4436-3.2096,3.8094-7.1324,7.4795l-7.1324,6.6729-1.9301,.0076-1.9301,.0076-2.224,3.9591-2.224,3.9591-5.4689-.7596-5.4689-.7596-1.5894,1.9406-1.5893,1.9406-2.8138-.7156-2.8138-.7157-2.6467,3.4097-2.6467,3.4097 2.8678,1.613 2.8678,1.613 4.6388,.0448 4.6388,.0448 2.2362-2.3697 2.2362-2.3697 5-1.5849c2.75-.8717 5.8438-2.0793 6.875-2.6837 1.0312-.6044 3.962-2.2448 6.5127-3.6454l4.6377-2.5457h3.904 3.904l-.4934,1.5-.4934,1.5-6.1008,2.0681-6.1008,2.0681-2.4887,3.3778-2.4887,3.3778 .8029,.8136 .8029,.8136 10.3634-3.5933c10.8639-3.7668 15.4054-6.3031 16.5934-9.267l.7113-1.7745-2.6374-2.4899-2.6374-2.4899-1.3958,1.4144c-.7677,.778-2.127,1.4144-3.0208,1.4144h-1.625v-1.612-1.6119l4.2471-2.3177 4.2471-2.3177 2.9404,2.9626c1.6172,1.6295 3.6495,4.3296 4.5162,6.0003l1.5758,3.0377-1.3002,1.5875-1.3002,1.5875 1.4876,3.3084c.8182,1.8196 1.9532,3.3084 2.5222,3.3084h1.0346l-.2978-2.7981-.2978-2.7981 2.2912-.4817 2.2912-.4817-1.4838,2.8096-1.4838,2.8096 3.5676-.6516c3.6109-.6595 10.1298-2.8609 14.9571-5.0509l2.6395-1.1975 2.673,1.6916 2.673,1.6916 2.483-1.5713 2.483-1.5714h4.2582 4.2582l.7693-2.0314 .7693-2.0314 1.8781,.7303 1.8781,.7303 3.7363-.7572 3.7363-.7572v-1.5866c0-2.3674-2.5719-3.9988-7.8125-4.9557l-4.6875-.8559v1.8826 1.8826l-1.4323,.897-1.4323,.897 .7816-3.1555 .7816-3.1555-2.951-1.6004-2.951-1.6004-3.7793,.8411-3.7792,.8411-.8692-1.4251-.8692-1.4251 .7128-.7223 .7128-.7223 9.4187,.2213 9.4187,.2213 5.9312-2.1612 5.9312-2.1612 10.6568-.2677 10.6568-.2677 6.0282-3.8739 6.0282-3.8739 2.69,1.0189 2.69,1.0189 7.9546-.3547 7.9546-.3547 1.3579-1.376c1.912-1.9375 4.6721-1.7098 7.1829,.5927l2.1468,1.9688 10.6224-2.6021c5.8423-1.4312 11.1885-2.6021 11.8803-2.6021h1.2579l.7803,2.0606 .7803,2.0606-1.4246,1.7395-1.4246,1.7395h2.0281 2.0281v-1.3313-1.3313l4.6442-1.9663c2.5543-1.0815 5.241-2.7934 5.9705-3.8043l1.3262-1.8379 4.8325-.4551 4.8325-.4551 2.9471,1.3607c3.7365,1.7251 3.7046,2.8969-.1779,6.5431l-3.125,2.9348v1.9967 1.9967l-1.5625,1.0247-1.5625,1.0248h-5.625-5.625l-.2885,1.2328-.2885,1.2328 4.351-.3798 4.351-.3799v1.1429c0,.6286-1.4115,2.4866-3.1366,4.1289l-3.1366,2.986 .7034,2.2458 .7034,2.2458-6.1646,3.1655-6.1646,3.1655-3.8736,3.9253-3.8736,3.9253-2.4191,5.5416-2.4191,5.5416-3.547,1.8357-3.5471,1.8357-31.4021,.184-31.4021,.184 .1521-2.8554 .1521-2.8554-2.0259-.4024-2.0259-.4024-.6539,2.5339-.6539,2.5339 1.4298,.6172 1.4298,.6172-17.1218-.0401-17.1218-.0401-.6907-1.4663-.6907-1.4663-.7292,1.5833-.7292,1.5833h-51.8137-51.8137l.2978-8.1726zm172.288,5.6007v-1.2281h4.4792 4.4792l-.5732-1.5833-.5732-1.5833 3.1056-3.3804 3.1056-3.3804-.8856-1.4521-.8856-1.4521-2.0634,1.8837-2.0634,1.8837-7.5,1.0599-7.5,1.0599-.002,2.5053-.002,2.5053-2.1545,.4204-2.1545,.4204 1.4918,1.6183 1.4918,1.6183 4.1024,.1563 4.1024,.1563v-1.2281zm-55.0648-167.622 1.1233-2.9939 1.9708-.7663 1.9708-.7663 0-1.3064 0-1.3064-1.875,0-1.875,0 0-3.8186 0-3.8186-4.0625-2.51-4.0625-2.51-3.4873-.005-3.4873-.005-4.9502,2.5591-4.9502,2.5591 0,3.0505 0,3.0505 1.9643,1.9905c1.0804,1.0948 2.6905,1.9905 3.5781,1.9905 .8876,0 3.7373,1.71 6.3326,3.8l4.7188,3.8h2.9841 2.9841l1.1233-2.9939zm-59.9357-22.3944v-5.1222l-1.5625,.3093c-.8594,.1701-3.5312-.0772-5.9375-.5495-2.4062-.4724-9.4375-1.1696-15.625-1.5494-6.1875-.3798-15.4688-1.1694-20.625-1.7545-10.5078-1.1925-10.7107-1.1484-9.2884,2.0173 .5613,1.2492 1.0526,3.1263 1.0919,4.1713l.0714,1.9 3.75,.4141c2.0625,.2278 4.2844,.9403 4.9375,1.5833l1.1875,1.1692h6.2141 6.2141l2.093-1.9194 2.093-1.9194 3.2026,2.5527 3.2026,2.5527h2.9903 2.9903l1.4196-1.4386 1.4197-1.4386 2.0446,2.0719 2.0446,2.0719h3.0357 3.0357v-5.1222zm-12.6944-19.6657c.2368-.1994-1.8755-1.8378-4.6941-3.6408l-5.1247-3.2782-7.1809-.6758-7.1809-.6759-2.9848,1.646c-1.6416,.9053-3.0479,2.216-3.125,2.9126l-.1402,1.2667 9.6895,1.3742c5.3292,.7558 10.0201,1.7092 10.4241,2.1187l.7346,.7444 4.5759-.7146c2.5167-.393 4.7696-.8778 5.0065-1.0772zm345.2076,210.3706-1.5429-1.8839 .6133-1.6196 .6133-1.6196-1.8073-8.2132c-.994-4.5173-2.37-10.7782-3.0578-13.9132-1.4345-6.5384-2.4222-14.3165-2.4386-19.2041l-.0113-3.3708-1.6901-.6572-1.6901-.6572-1.5107-4.6386-1.5107-4.6386 1.3079-1.3253 1.3079-1.3253 5.27-.3013 5.27-.3013 2.8925,3.3266c1.5909,1.8296 2.9103,3.7541 2.932,4.2766l.0395,.95h-4.2219-4.2219l-1.6352,1.9965-1.6352,1.9965 1.6617,1.0407 1.6617,1.0406 4.9078-.2556 4.9078-.2556 .9887-1.6211 .9887-1.6211 .8413,2.2216 .8413,2.2216-1.6048,1.1477-1.6048,1.1477 1.5504,.6384 1.5504,.6384-.038,23.3319-.038,23.3319h-4.1718-4.1718l-1.5429-1.8839zm-166.1361-157.2618-2.6271-1.8647 0-2.9762 0-2.9763-2.6261,.6959-2.6261,.6959 .4386-2.262 .4386-2.262 1.875-.9834c2.86-1.4999 13.6587-6.2549 14.2051-6.2549 .2653,0 .8278,1.7504 1.2501,3.8897l.7677,3.8897 2.4511-.7883 2.4511-.7883 4.125,2.142c2.2687,1.1781 4.4779,2.6956 4.9093,3.3721l.7843,1.2302-.6227,2.4128c-.9141,3.5421-2.185,3.9717-12.8669,4.3494l-9.6997,.343-2.6271-1.8647zm64.4833-3.072-3.1114-5.2872-1.4185,2.6858-1.4185,2.6858-1.6881,0c-.9285,0-3.2993-.8524-5.2685-1.8943l-3.5804-1.8943-.3623,2.2408-.3623,2.2408-3.7719,1.6919-3.772,1.6919-.8553-.8667-.8553-.8667 2.1771-1.2346 2.1771-1.2346v-2.0141-2.0141l2.0333-1.5066 2.0333-1.5066-1.4844-2.8106-1.4844-2.8106-2.5312,.8141-2.5312,.8141 1.3573-2.5699c.7465-1.4135 1.3573-3.6983 1.3573-5.0775v-2.5076l8.0156-4.5423c4.4086-2.4983 8.8466-4.5423 9.8623-4.5423h1.8467l2.6377,5.6862c1.4507,3.1274 2.6377,6.2851 2.6377,7.0171 0,.732 1.0492,3.4457 2.3316,6.0305l2.3316,4.6995-.1441,5.5949-.1441,5.5949-1.4516,.4898-1.4516,.4899-3.1114-5.2872zm106.6395-108.2156-1.1881-3.1667h-1.2809-1.2809l-.1015-4.1167-.1015-4.1167-1.461,3.2989c-.8035,1.8144-2.233,4.2369-3.1765,5.3833l-1.7156,2.0844h-1.7219-1.7219v-4.5546-4.5546l2.1455-3.6804 2.1454-3.6804 2.2363-.7192c1.23-.3956 3.9207-2.1555 5.9796-3.911l3.7432-3.1917v-1.7126c0-.942 .4219-1.9767 .9375-2.2995l.9375-.5868 .2886,14.1287c.1587,7.7708-.0198,15.1262-.3967,16.3454l-.6853,2.2167h-1.1967-1.1967l-1.1881-3.1667z"/>
<path fill="#334a64" d="m56-60.804 0-4.8039 5.5721-1.5102 5.5721-1.5102 1.7876,.6951 1.7876,.6951 .734,3.719 .734,3.719 1.9171,0 1.9171,0 3.6509-3.2963 3.6509-3.2963-.5015-1.4537-.5015-1.4537 1.5273-2.0188 1.5273-2.0188 4.9826-.9447 4.9826-.9447-2.1701,2.4299c-4.258,4.7678-2.5629,6.6763 6.7137,7.5587l6.1236,.5825-.3162-2.9554-.3162-2.9554 2.5-.1277c4.9004-.2502 10.07-2.1119 14.7811-5.3229l4.7811-3.2588 1.0476,1.7176 1.0476,1.7176-1.8341,2.8364-1.8341,2.8364 1.3778,.8629 1.3778,.8629 1.9736-.7674 1.9736-.7674 1.4041,1.1139c.7722,.6126 2.9165,1.4796 4.765,1.9265l3.3609,.8126 .7279-1.1935 .7279-1.1935-2.1156-1.1997-2.1156-1.1997 3.8058-1.9943 3.8058-1.9943 .6764,.6854 .6764,.6854 2.9196-1.6221 2.9196-1.6221 5.625-.2772c3.0938-.1525 7.4531-.6734 9.6875-1.1576l4.0625-.8804v2.0033 2.0033l-3.3035,1.7539-3.3035,1.7539 1.7138,1.0733 1.7138,1.0733 6.2772,.1787 6.2772,.1787 2.2819-1.5684 2.2819-1.5684-4.4694-3.6137c-2.4582-1.9875-4.4694-4.0412-4.4694-4.5637l-0-.95h4.1361 4.1361l2.4264-1.8021 2.4264-1.8021 3.2656,.659 3.2656,.659 2.757-3.9235 2.757-3.9235 2.7274-.0173c1.5001-.0101 3.993-.361 5.5399-.7811l2.8125-.7638v-1.1182-1.1182l-4.0625-.0662c-2.2344-.0365-6.5799-.0859-9.6568-.1099l-5.5943-.0437-2.6857,3.4131-2.6857,3.4131-.8336-1.3668-.8336-1.3668 1.9488-3.8189 1.9488-3.8188 2.7898-.5777c1.5344-.3177 6.6385-.8346 11.3426-1.1485l8.5528-.5708 1.3847-1.4031c.7616-.7716 2.337-1.403 3.5009-1.403h2.1163l.7743-2.0447 .7743-2.0447 3.422,.8664c1.8821,.4765 7.7813,.8207 13.1095,.7649l9.6875-.1015v1.2797 1.2797h1.875 1.875v-1.0555-1.0556l3.4375-.2478c1.8906-.1363 5.4062-.3738 7.8125-.5278l4.375-.2799-.1153,3.0009-.1153,3.0009 6.8463-.8154 6.8463-.8154 3.6773-3.1355c4.3447-3.7045 5.1271-3.8135 7.395-1.0295l1.7156,2.106-1.3712,.4683c-.7541,.2575-3.8401,2.3024-6.8577,4.544l-5.4865,4.0757 6.036,.6333 6.036,.6333-3.2407,3.0708-3.2407,3.0708v1.5728 1.5728l-4.8674,3.9064c-2.6771,2.1486-5.4487,3.9065-6.1592,3.9065h-1.2919l-3.2283,6.9152c-1.7756,3.8033-4.5779,8.3908-6.2274,10.1943l-2.9991,3.2792-4.3479,.715-4.3479,.715-2.2346-1.2672-2.2345-1.2672 6.7815-3.2691 6.7815-3.2691 3.6176-3.4268 3.6176-3.4268-2.5437-2.0873-2.5438-2.0873 3.6136-1.3822 3.6136-1.3822v-1.3767-1.3767h-3.8621-3.8621l-2.387,2.85-2.387,2.85-1.8234-2.3862-1.8235-2.3862-4.5582,2.1918-4.5582,2.1918-3.2364-.6269-3.2364-.6269-3.1953,3.4492-3.1953,3.4492-2.8125,.7368-2.8125,.7368v-2.4147-2.4147h-3.8837-3.8837l.7304,1.9287 .7304,1.9287-2.7824,2.8213-2.7824,2.8213-6.2038,2.2167c-7.7208,2.7587-7.8375,2.7554-8.7784-.2486l-.7722-2.4653-5.6716-.8619-5.6716-.8618-1.8889,1.9141-1.8889,1.9141 2.1422,3.313 2.1422,3.313h-10.695-10.695l-.6542-1.0726-.6542-1.0726-3.7946-.1093-3.7946-.1093v1.1352 1.1352l-42.1875-.036-42.1875-.036 2.5-1.0949 2.5-1.0949-2.8125-.0891-2.8125-.089v1.2667 1.2667h-9.375-9.375v-4.804zm221.8313-23.5821 4.9563-1.7479 .4604-1.3997 .4604-1.3997-1.9792,0-1.9792,0 0-2.3797 0-2.3797-3.7086-1.5566c-2.0397-.8561-4.3161-2.2984-5.0586-3.205l-1.3501-1.6484-6.1952,2.2108c-3.4074,1.2159-6.5685,2.5891-7.0247,3.0513l-.8295,.8405 4.8958,.0089 4.8958,.0089-3.75,2.5192-3.75,2.5192-1.25-1.656c-.6875-.9108-2.2579-2.0394-3.4898-2.5081l-2.2398-.8521-1.5349-3.699-1.5349-3.6991-2.4018,1.7796-2.4018,1.7796h-4.0623-4.0623l-.6916,1.1339-.6916,1.1339 2.0004,.7779 2.0004,.7779-.7814,3.1549-.7814,3.1549 .9613-.0403c.5287-.0222 2.0234-.8551 3.3215-1.8509l2.3602-1.8106 2.3017,1.2482 2.3017,1.2482 3.1319-.7965 3.1319-.7965 1.2751,3.3984 1.2751,3.3985 4.0562-.8887 4.0562-.8887 3.7817-4.2772c2.08-2.3525 4.1893-4.2772 4.6875-4.2772h.9058v3.0611 3.0611l-1.4749,.4982-1.4749,.4982 .8107,2.1407c.9629,2.5427 .3599,2.5096 6.4704,.3546zm-220.2688-4.2268-1.5625-.5327l.0079-5.9111 .0079-5.9111 3.8434-2.2167c2.1139-1.2192 4.8896-2.2167 6.1683-2.2167h2.3249l.778-1.2756 .778-1.2756-2.0678-.8041-2.0678-.8041-4.3038,2.0797c-2.3671,1.1438-4.566,2.0797-4.8864,2.0797-.3204-0-.5826-34.77-.5826-77.2667v-77.2667h1.25 1.25l.1684,2.85c.0926,1.5675 .2332,4.56 .3125,6.65l.1441,3.8 4.375,.2075c2.4062,.1141 5.0781,.2567 5.9375,.3167l1.5625,.1091v1.9 1.9h1.1762c.6469,0 1.5345-.5875 1.9725-1.3055l.7962-1.3055 4.3275,.8227 4.3275,.8227 2.4266-2.2253 2.4266-2.2253 1.5859,1.2983c2.1217,1.7369 11.8525,3.4774 16.8925,3.0215l4.0565-.3669 1.2767,3.4027 1.2767,3.4027 1.5847-1.3327 1.5847-1.3327-.083-10.4296-.083-10.4296-1.5224-.5142-1.5224-.5142v1.7635c0,.9699-.7572,2.8129-1.6828,4.0955l-1.6828,2.332-3.6818-1.8612-3.6818-1.8612-3.6052,1.2177-3.6052,1.2178-2.1534-2.6948-2.1534-2.6948-.771,2.0361-.771,2.0361-4.0432-.9504c-2.2238-.5227-5.1967-1.0583-6.6064-1.1902-1.4097-.1319-3.2378-.6624-4.0625-1.1788l-1.4994-.939-.1246-2.7753-.1246-2.7752-.862,3.1667-.862,3.1667-4.1723,.4089-4.1723,.4089-.9938-1.0423c-.5466-.5732-1.3667-3.1002-1.8224-5.6154l-.8286-4.5731 1.9507-.7586 1.9507-.7585 4.7181,2.0589 4.7181,2.0589 8.0211-.1547 8.0211-.1547 1.3539,.8643c1.2581,.8031 5.032,1.2856 13.5719,1.7352 1.9074,.1004 3.8327-.187 4.2785-.6388l.8106-.8213-5.409-4.7422c-2.9749-2.6082-6.5878-5.4202-8.0285-6.2488l-2.6195-1.5066-2.7937,.6891-2.7937,.6891-1.307-3.4836-1.307-3.4836-2.9688,2.8263-2.9688,2.8263-2.3054-1.24-2.3054-1.24-6.6379,2.7148-6.6379,2.7147-1.4714,5.5255-1.4714,5.5255-.8286-2.9922c-.4557-1.6457-.8847-5.0687-.9532-7.6067l-.1246-4.6145 2.1875-.8856c1.2031-.4871 8.375-3.1451 15.9375-5.9068 7.5625-2.7616 14.3125-5.6195 15-6.3508l1.25-1.3296-17.1875,.8973-17.1875,.8973v-22.9298-22.9298h3.3281 3.3281l6.1816,4.0196 6.1816,4.0196 6.1743,.2201 6.1743,.2201 1.441,1.4603 1.441,1.4603h3.5 3.5v1.9 1.9h5.3861 5.3861l2.3945,1.7742 2.3945,1.7742 3.9734-.6534 3.9734-.6534 1.415,2.6792 1.415,2.6792h2.5382c1.396,0 3.718,.6399 5.1601,1.4219l2.6219,1.4219-2.8838,2.2043-2.8838,2.2043 .8785,1.4405 .8785,1.4405h2.4655 2.4655l.7556-1.9952 .7555-1.9952 6.3927,.8296c3.516,.4563 8.5021,1.3761 11.0802,2.044l4.6875,1.2144v2.836 2.836l-1.9926,2.8828-1.9926,2.8828-2.8606-1.8993-2.8606-1.8993-2.1347,1.5817-2.1347,1.5817 2.1803,1.8334 2.1803,1.8333 7.9993-.1732c9.5256-.2062 9.6906-.3201 7.2709-5.0217-1.0393-2.0195-1.8931-4.3056-1.8974-5.0803l-.008-1.4085 7.1768-1.4605 7.1768-1.4605 3.1357,2.3496 3.1357,2.3496 1.6307,3.3694 1.6307,3.3694h3.0013 3.0013l7.1377,5.0667 7.1377,5.0667h3.2785 3.2785l4.3268,2.2616c2.3797,1.2439 5.8895,3.7466 7.7994,5.5616l3.4726,3.3 5.9024,2.1362 5.9024,2.1362 6.25,.332c3.4375,.1826 8.3594,.772 10.9375,1.3099l4.6875,.9779v-1.2477-1.2477l4.055,.8404 4.055,.8404 .4546,2.483c.5489,2.9985 2.536,5.6496 4.2344,5.6496h1.2427l-.6538-2.5333-.6538-2.5333 .8205,.027c.4513,.0149 2.3894,2.2745 4.3068,5.0213l3.4864,4.9942 3.3886,1.6406 3.3886,1.6406 .3875,2.7462 .3875,2.7462 1.8,1.5137c.99,.8326 1.8,2.0425 1.8,2.6888v1.175l-5.8548-.3801-5.8548-.3801-.7077,2.9247-.7077,2.9248-1.25,.2419-1.25,.2419-.3917-4.1167-.3917-4.1167h-1.7958-1.7958v-1.7449c0-.9597-.7842-2.4044-1.7426-3.2104l-1.7426-1.4655-2.0074,2.0342c-1.1041,1.1188-2.0074,2.4737-2.0074,3.0109 0,.5372-1.9309,2.0305-4.2909,3.3183l-4.2909,2.3416-3.3666-1.5544-3.3666-1.5544-4.4596,1.4914c-2.4528,.8203-5.5817,2.5508-6.9532,3.8456-2.6342,2.4869-4.3171,2.8405-7.545,1.5853l-1.9769-.7688v-3.6645-3.6645h-1.8644-1.8644l-1.5613,2.5333-1.5613,2.5333h-1.4181-1.4181l-.7392-3.7455-.7392-3.7455-3.6335-1.904-3.6335-1.904-.7835,.7939-.7835,.7939v-1.8293c0-1.0061 .8418-3.0472 1.8708-4.5358l1.8708-2.7065-3.3254-6.4949-3.3253-6.4949-1.9829,.398-1.9829,.398 .4308,8.9307 .4308,8.9307-3.3443,2.2205-3.3443,2.2205-1.7888-.6956-1.7888-.6956-3.071,1.4179-3.071,1.4179 .7188,1.1786 .7188,1.1786-3.5705-.4138-3.5705-.4138-.4094-2.9275-.4095-2.9274-1.7459-.6789-1.7459-.6789-1.9071,1.9326c-1.0489,1.0629-1.9071,2.5433-1.9071,3.2897v1.3571h1.3097c.7203,0 2.6151,1.4274 4.2106,3.1719l2.9009,3.1719 12.9769,3.1733c7.1373,1.7453 14.6644,3.663 16.7269,4.2616l3.75,1.0884 8.6576,.1414 8.6576,.1414 6.6549,1.9604 6.6549,1.9604v3.1313c0,1.7222-.005,3.5588-.01,4.0813l-.01,.95-8.4274-.2378c-10.818-.3053-33.3556-2.7709-39.1974-4.2882-2.4862-.6457-5.6517-1.174-7.0346-1.174h-2.5144l-1.4682,1.7927-1.4682,1.7927-3.5908-1.0436-3.5908-1.0435-.7191,.7287c-.3955,.4008-.7191,1.3845-.7191,2.186v1.4573l9.0625,1.9852c4.9844,1.0919 10.4688,2.0179 12.1875,2.0579 4.5997,.107 31.2166,2.6677 35.9499,3.4587l4.0749,.6809-1.2169,2.3042-1.2169,2.3042 1.4786,3.9694c.8132,2.1832 1.9177,3.9694 2.4545,3.9694h.976v-2.9555c0-1.6256 .3448-3.305 .7663-3.7321l.7663-.7765 3.3427,2.5043 3.3427,2.5043 5.403-1.9317 5.403-1.9317 4.89,.7924 4.89,.7924 3.0981,3.7309c1.7039,2.052 3.0981,4.2429 3.0981,4.8688v1.1378l-3.75-.76-3.75-.76v2.0583 2.0583h-2.4262-2.4262l-.7725-1.2667-.7725-1.2667h-4.3012-4.3012v1.1786 1.1786l2.8125,.4048 2.8125,.4048 .3994,2.85 .3994,2.85h2.4131 2.4131l-.0416,1.5833c-.0229,.8708-1.2018,2.9965-2.6198,4.7236l-2.5782,3.1403-1.4469-2.0052c-.7958-1.1028-3.6994-3.1696-6.4525-4.5928l-5.0056-2.5877-2.8827-5.1974c-1.5854-2.8586-3.1935-5.1974-3.5734-5.1974h-.6908l.6176,2.3931 .6176,2.3931-1.0192,1.6711-1.0192,1.6711-4.3076-.294-4.3076-.294-.8124,2.1452-.8123,2.1452 1.4745,.9234 1.4745,.9234-.7679,2.0279-.7679,2.0278h-1.7705-1.7705l-2.0188-3.1221c-1.1103-1.7172-2.0188-3.9362-2.0188-4.9311v-1.809l-2.0693-.8047-2.0693-.8047-2.9307,2.7899c-1.6119,1.5345-2.9307,3.4791-2.9307,4.3214v1.5315l-2.454,.6503-2.454,.6503-1.449-1.7692c-.797-.9731-1.9426-1.7692-2.546-1.7692h-1.0969v2.862 2.862l-2.6221,1.6594-2.6221,1.6594-5.5875,.4614-5.5875,.4614-1.7356,1.4596-1.7356,1.4597-1.1627-.7281-1.1626-.7281-.7135,2.7646-.7134,2.7646-2.63-2.4118-2.63-2.4118-1.2689,1.8496-1.2688,1.8496-.634-1.5833-.634-1.5833h-1.6178c-.8898,0-2.2903,.8211-3.1122,1.8247l-1.4944,1.8247-2.0961-.7468c-1.1529-.4107-3.3471-1.8872-4.876-3.2811l-2.7799-2.5343-.7951,2.0995-.7951,2.0995 2.0413,3.1569 2.0412,3.1569h-1.3984c-.7691,0-3.0723-.9975-5.1181-2.2167l-3.7197-2.2167-.6919-3.4833-.6919-3.4833h-1.7188-1.7188v1.7449 1.7449l1.875,1.5769 1.875,1.5769v2.967 2.967l2.5,1.3558 2.5,1.3558v1.7807c0,.9794-.616,2.1664-1.3688,2.6379l-1.3688,.8573-3.3187-2.4571-3.3187-2.4571-10.5359,.4232c-12.4397,.4997-12.3948,.4745-8.2899,4.6341 1.7604,1.7839 3.2604,3.9819 3.3332,4.8844 .2808,3.4787-.4202,9.2698-1.1953,9.8742-.4467,.3483-1.435,1.7733-2.1962,3.1667l-1.384,2.5333-2.2162,.4413-2.2162,.4413-.992-1.6265-.992-1.6265-1.8715,1.5739-1.8715,1.5739-6.473-3.3239c-6.4916-3.3334-9.1942-3.6433-5.6297-.6456l1.9052,1.6023v1.7449 1.7449h-1.7292-1.7292l-.6742,2.6125-.6742,2.6125 3.7414-.8327 3.7415-.8327-.4005,4.2369-.4005,4.2369-2.5-.4367c-1.375-.2402-4.817-.4723-7.6489-.5158l-5.1489-.079-2.3511,1.0016-2.3511,1.0016 6.25,1.4456 6.25,1.4456-.3768,3.1353c-.2073,1.7244-.3253,5.5578-.2624,8.5186l.1144,5.3833h-1.9251l-1.9251-.0001v-3.0083c0-1.6546-.3556-4.8098-.7901-7.0117l-.7901-4.0033-2.4419-1.3243-2.4419-1.3243-.773,.7833c-.4252,.4308-.7989,2.3295-.8304,4.2193l-.0574,3.436-6.875,.0433-6.875,.0433-4.0625,2.2059-4.0625,2.2059v1.7821 1.7821l2.5658,.8252 2.5658,.8252-1.3568,1.6566c-1.5918,1.9436-4.9977,3.0071-7.2124,2.252zm115.9375-134.0263v-1.9714l3.8779-3.5891 3.8779-3.5891-.8372-2.6728-.8372-2.6728h-1.7908-1.7908v-1.3089c0-.7199-1.8324-3.1657-4.072-5.4352l-4.072-4.1263-4.3655,.2123c-2.401,.1168-5.883,.8272-7.7376,1.5787l-3.3721,1.3663-2.0782,3.214-2.0782,3.214 .7252,2.9281 .7252,2.9281 4.1001,2.0668 4.1001,2.0668-2.0344,.0811-2.0344,.0811-1.6001,1.9537-1.6001,1.9537 1.4162,1.4351 1.4162,1.4351 4.6434-1.4441 4.6434-1.4441 1.325,1.1006c.7287,.6052 2.7312,1.3625 4.45,1.6827 1.7188,.3202 3.5469,.6598 4.0625,.7547l.9375,.1725v-1.9714zm-40.6894-28.323 .7082-1.1611 5.7614,0 5.7614,0 1.4167-1.5306 1.4167-1.5306-1.5625-.5806-1.5625-.5805 0-1.7197c0-.9458 .5871-2.0874 1.3048-2.5368l1.3048-.8171 1.883,1.5836 1.883,1.5836 1.73-1.7912c.9515-.9852 2.0751-3.2206 2.4968-4.9676l.7668-3.1764-4.3893-4.3109-4.3893-4.3109-4.9519,3.4774-4.9519,3.4774-.7444,1.9657-.7444,1.9657-2.2629-2.0752-2.2629-2.0752-.8361,.8472c-.4598,.466-.8361,2.5156-.8361,4.5547v3.7075l-2.5,.6625c-2.9148,.7724-2.9549,.9389-1.0809,4.4872 2.8554,5.4066 5.2406,7.1491 6.6415,4.8521zm155.9676,67.396-2.8467-.5535-3.1097-2.9204-3.1097-2.9204 .8644-2.3703c.4754-1.3037 2.2759-4.2728 4.0009-6.5981l3.1365-4.2278 4.4555,.778c11.7321,2.0486 21.4103,3.1199 28.7206,3.1792l8.0151,.065 6.6724,2.1313 6.6724,2.1313v.9425c0,.5184-3.1535,2.4055-7.0079,4.1936l-7.0079,3.2511-1.1171-.6996-1.1171-.6996v-2.4586-2.4586h-1.8012c-.9907,0-2.1545,.5793-2.5864,1.2873l-.7851,1.2873-1.1721-.7341-1.1722-.7341-3.429,2.3585c-4.4101,3.0334-9.8695,5.4017-12.4519,5.4017h-2.0303l-2.1864-2.0051-2.1864-2.0051-1.3935,2.6384c-.7664,1.4511-1.7955,2.5608-2.287,2.4659-.4914-.0949-2.1746-.4216-3.7403-.726z"/>
<path fill="#4e483a" d="m56-60.804 0-4.8039 5.5721-1.5102 5.5721-1.5102 1.7876,.6951 1.7876,.6951 .734,3.719 .734,3.719 1.9171,0 1.9171,0 3.6509-3.2963 3.6509-3.2963-.5015-1.4537-.5015-1.4537 1.5273-2.0188 1.5273-2.0188 4.9826-.9447 4.9826-.9447-2.1701,2.4299c-4.258,4.7678-2.5629,6.6763 6.7137,7.5587l6.1236,.5825-.3162-2.9554-.3162-2.9554 2.5-.1277c4.9004-.2502 10.07-2.1119 14.7811-5.3229l4.7811-3.2588 1.0476,1.7176 1.0476,1.7176-1.8341,2.8364-1.8341,2.8364 1.3778,.8629 1.3778,.8629 1.9736-.7674 1.9736-.7674 1.4041,1.1139c.7722,.6126 2.9165,1.4796 4.765,1.9265l3.3609,.8126 .7279-1.1935 .7279-1.1935-2.1156-1.1997-2.1156-1.1997 3.8058-1.9943 3.8058-1.9943 .6764,.6854 .6764,.6854 2.9196-1.6221 2.9196-1.6221 5.625-.2772c3.0938-.1525 7.4531-.6734 9.6875-1.1576l4.0625-.8804v2.0033 2.0033l-3.3035,1.7539-3.3035,1.7539 1.7138,1.0733 1.7138,1.0733 6.2772,.1787 6.2772,.1787 2.2819-1.5684 2.2819-1.5684-4.4694-3.6137c-2.4582-1.9875-4.4694-4.0412-4.4694-4.5637l-0-.95h4.1361 4.1361l2.4264-1.8021 2.4264-1.8021 3.2656,.659 3.2656,.659 2.757-3.9235 2.757-3.9235 2.7274-.0173c1.5001-.0101 3.993-.361 5.5399-.7811l2.8125-.7638v-1.1182-1.1182l-4.0625-.0662c-2.2344-.0365-6.5799-.0859-9.6568-.1099l-5.5943-.0437-2.6857,3.4131-2.6857,3.4131-.8336-1.3668-.8336-1.3668 1.9488-3.8189 1.9488-3.8188 2.7898-.5777c1.5344-.3177 6.6385-.8346 11.3426-1.1485l8.5528-.5708 1.3847-1.4031c.7616-.7716 2.337-1.403 3.5009-1.403h2.1163l.7743-2.0447 .7743-2.0447 3.422,.8664c1.8821,.4765 7.7813,.8207 13.1095,.7649l9.6875-.1015v1.2797 1.2797h1.875 1.875v-1.0555-1.0556l3.4375-.2478c1.8906-.1363 5.4062-.3738 7.8125-.5278l4.375-.2799-.1153,3.0009-.1153,3.0009 6.8463-.8154 6.8463-.8154 3.6773-3.1355c4.3447-3.7045 5.1271-3.8135 7.395-1.0295l1.7156,2.106-1.3712,.4683c-.7541,.2575-3.8401,2.3024-6.8577,4.544l-5.4865,4.0757 6.036,.6333 6.036,.6333-3.2407,3.0708-3.2407,3.0708v1.5728 1.5728l-4.8674,3.9064c-2.6771,2.1486-5.4487,3.9065-6.1592,3.9065h-1.2919l-3.2283,6.9152c-1.7756,3.8033-4.5779,8.3908-6.2274,10.1943l-2.9991,3.2792-4.3479,.715-4.3479,.715-2.2346-1.2672-2.2345-1.2672 6.7815-3.2691 6.7815-3.2691 3.6176-3.4268 3.6176-3.4268-2.5437-2.0873-2.5438-2.0873 3.6136-1.3822 3.6136-1.3822v-1.3767-1.3767h-3.8621-3.8621l-2.387,2.85-2.387,2.85-1.8234-2.3862-1.8235-2.3862-4.5582,2.1918-4.5582,2.1918-3.2364-.6269-3.2364-.6269-3.1953,3.4492-3.1953,3.4492-2.8125,.7368-2.8125,.7368v-2.4147-2.4147h-3.8837-3.8837l.7304,1.9287 .7304,1.9287-2.7824,2.8213-2.7824,2.8213-6.2038,2.2167c-7.7208,2.7587-7.8375,2.7554-8.7784-.2486l-.7722-2.4653-5.6716-.8619-5.6716-.8618-1.8889,1.9141-1.8889,1.9141 2.1422,3.313 2.1422,3.313h-10.695-10.695l-.6542-1.0726-.6542-1.0726-3.7946-.1093-3.7946-.1093v1.1352 1.1352l-42.1875-.036-42.1875-.036 2.5-1.0949 2.5-1.0949-2.8125-.0891-2.8125-.089v1.2667 1.2667h-9.375-9.375v-4.804zm221.8313-23.5821 4.9563-1.7479 .4604-1.3997 .4604-1.3997-1.9792,0-1.9792,0 0-2.3797 0-2.3797-3.7086-1.5566c-2.0397-.8561-4.3161-2.2984-5.0586-3.205l-1.3501-1.6484-6.1952,2.2108c-3.4074,1.2159-6.5685,2.5891-7.0247,3.0513l-.8295,.8405 4.8958,.0089 4.8958,.0089-3.75,2.5192-3.75,2.5192-1.25-1.656c-.6875-.9108-2.2579-2.0394-3.4898-2.5081l-2.2398-.8521-1.5349-3.699-1.5349-3.6991-2.4018,1.7796-2.4018,1.7796h-4.0623-4.0623l-.6916,1.1339-.6916,1.1339 2.0004,.7779 2.0004,.7779-.7814,3.1549-.7814,3.1549 .9613-.0403c.5287-.0222 2.0234-.8551 3.3215-1.8509l2.3602-1.8106 2.3017,1.2482 2.3017,1.2482 3.1319-.7965 3.1319-.7965 1.2751,3.3984 1.2751,3.3985 4.0562-.8887 4.0562-.8887 3.7817-4.2772c2.08-2.3525 4.1893-4.2772 4.6875-4.2772h.9058v3.0611 3.0611l-1.4749,.4982-1.4749,.4982 .8107,2.1407c.9629,2.5427 .3599,2.5096 6.4704,.3546zm-220.2688-4.2268-1.5625-.5327l.0079-5.9111 .0079-5.9111 3.8434-2.2167c2.1139-1.2192 4.8896-2.2167 6.1683-2.2167h2.3249l.778-1.2756 .778-1.2756-2.0678-.8041-2.0678-.8041-4.3038,2.0797c-2.3671,1.1438-4.566,2.0797-4.8864,2.0797-.3204-0-.5826-34.77-.5826-77.2667v-77.2667h1.2593 1.2593l-.3587,6.305-.3587,6.305 1.7016,.6617c.9359,.3639 3.4192,.6617 5.5185,.6617h3.8169l2.9558,3.2319c1.6257,1.7776 2.9558,3.7726 2.9558,4.4333v1.2014h1.9018 1.9018l1.4238-3.1667 1.4238-3.1667h1.2634c.6949,0 2.3429-.9899 3.6623-2.1998l2.3988-2.1998 1.5874,2.1998 1.5874,2.1998h2.4491 2.4491l1.7881,4.1167 1.7881,4.1167 3.4519,.4022 3.4519,.4022 .7789-3.9462 .7789-3.9462 2.7692,2.6362 2.7692,2.6362 1.1882-1.6255 1.1882-1.6255-.0749-10.0317-.0749-10.0318-1.543-.5212-1.543-.5212-1.2553,3.3458-1.2553,3.3459-1.3399-.8392c-.737-.4615-1.7965-2.0634-2.3546-3.5596l-1.0147-2.7204 1.2031-2.3243 1.2031-2.3243-5.2938-4.6423c-6.7164-5.8898-9.831-7.7078-13.3014-7.7641l-2.7685-.0449-1.3935-2.6384-1.3935-2.6384-2.2233,2.0389-2.2233,2.0389-3.6372-.2808-3.6372-.2808-5.9865,2.4637-5.9865,2.4637-1.4753,5.5255-1.4753,5.5255-.8286-2.9922c-.4557-1.6457-.8847-5.0687-.9532-7.6067l-.1245-4.6145 2.1875-.8856c1.2031-.4871 8.375-3.1451 15.9375-5.9068 7.5625-2.7616 14.3125-5.6195 15-6.3508l1.25-1.3296-17.1875,.8973-17.1875,.8973v-19.8536-19.8536l1.7857-1.8095c2.4804-2.5135 3.2962-2.3136 7.7238,1.892l3.8845,3.6898 11.0935,4.6534 11.0935,4.6534 7.522,5.977c7.4793,5.9431 14.7834,10.2518 17.4015,10.2653 .7537,.004 3.5306,.6149 6.1709,1.3578l4.8004,1.3507-.7431,3.0001-.7431,3.0001 2.7833,1.9755 2.7833,1.9755h3.9438 3.9438l1.5561,1.9 1.5561,1.9h2.4463 2.4463l-.8412,4.1167-.8412,4.1167-2.0706,1.6379c-1.1388,.9008-2.0706,2.1833-2.0706,2.85 0,1.4935-1.3012,1.6032-6.7451,.5683l-4.245-.807-1.0278,1.6754-1.0278,1.6754 .7567,4.8232 .7567,4.8232-2.6713,.7079c-1.4692,.3893-2.6713,.9639-2.6713,1.2767 0,1.1318 2.9341,6.0898 4.6073,7.7853l1.7124,1.7353 1.5276-1.2559 1.5276-1.2559 5.4865-.0596 5.4865-.0596 1.3885-1.502 1.3885-1.502-1.5625-.5806-1.5625-.5806v-1.7197c0-.9458 .5871-2.0874 1.3048-2.5368l1.3048-.8171 1.8202,1.5308 1.8202,1.5308 1.7524-1.4737c.9638-.8105 2.113-2.9299 2.5538-4.7096l.8015-3.2359-1.6163-2.0736-1.6163-2.0736 3.4375,2.224 3.4375,2.224v-1.9292-1.9292h-1.7064c-.9385,0-3.0958-1.1075-4.794-2.4611l-3.0875-2.4611 .5625-3.8839 .5625-3.8839-1.4349-1.752-1.4349-1.752 6.6679,.2079 6.6679,.2079 3.448,2.5452 3.448,2.5452 .0728,5.3438 .0728,5.3438h3.5004c1.9252,0 4.3902-.346 5.4777-.7689l1.9772-.7688v-3.0312-3.0311l.9375,.0515c.5156,.0283 2.885,1.7383 5.2653,3.8 2.3803,2.0617 4.9115,3.7612 5.625,3.7767 .7135,.0155 2.689,1.1119 4.39,2.4364l3.0928,2.4082-2.1572,2.4154-2.1572,2.4154 1.1487,6.2305c1.3731,7.4481 1.238,7.6765-2.9115,4.9214l-3.2335-2.1469v2.5435 2.5435l-2.0669,.8037-2.0669,.8037 2.3794,1.8249 2.3794,1.8249-3.3637,.0403-3.3637,.0403-.8589-1.4083-.8589-1.4083 1.5606-.9773 1.5606-.9773-4.4134-4.8801-4.4134-4.8801-2.7432,2.5157c-1.5088,1.3836-2.9654,2.3732-3.237,2.199-.2716-.1742-.9156-.2311-1.4313-.1264-.5156,.1046 1.5592,.5321 4.6107,.95l5.5482,.7598-2.1107,2.1262c-1.1609,1.1694-2.1107,2.7369-2.1107,3.4833v1.3571h1.3097c.7203,0 2.6151,1.4274 4.2106,3.1719l2.9009,3.1719 12.9769,3.1733c7.1373,1.7453 14.6644,3.663 16.7269,4.2616l3.75,1.0884 8.6576,.1414 8.6576,.1414 6.512,1.9183 6.512,1.9183 .5684,3.924 .5683,3.924-1.6277,.6329-1.6277,.6329-3.9213-1.9823-3.9213-1.9823-1.6651,1.6873-1.6651,1.6873-6.9677-1.1072c-3.8322-.609-11.6055-1.675-17.2739-2.3689-5.6684-.6939-12.3062-1.59-14.7507-1.9913l-4.4445-.7296-1.5582,1.9025-1.5581,1.9025-3.4471-1.0018-3.4471-1.0018-2.2695,1.6816-2.2695,1.6816 .7425,1.9609 .7425,1.9608h-2.3585c-1.2972,0-3.2626,.3516-4.3677,.7813l-2.0091,.7813 1.435,1.7521 1.435,1.7521h3.5348 3.5348l.9996-1.5833 .9996-1.5833 6.875-.1409c3.7812-.0775 8.8438-.2665 11.25-.4199 4.3303-.2762 29.3371,1.8522 37.1999,3.1661l4.0749,.6809-1.2169,2.3042-1.2169,2.3042 1.4786,3.9694c.8132,2.1832 1.9178,3.9694 2.4545,3.9694h.976v-2.9555c0-1.6256 .3448-3.305 .7663-3.7321l.7663-.7765 3.6398,2.7269 3.6398,2.7269 5.5587-2.0877 5.5587-2.0877 4.4409,.7303 4.4409,.7303 3.0943,3.7264c1.7019,2.0495 3.0943,4.2384 3.0943,4.8642v1.1378l-3.75-.76-3.75-.76v2.0583 2.0583h-2.4262-2.4262l-.7726-1.2668-.7725-1.2667h-4.3012-4.3012v1.1786 1.1786l2.8125,.4048 2.8125,.4048 .3994,2.85 .3994,2.85h2.4131 2.4131v1.7449c0,.9597-.7549,2.3798-1.6775,3.1557l-1.6775,1.4108-.8904-.9023-.8905-.9023-1.1629,1.8633-1.1629,1.8633-.0191-1.391-.0191-1.391-5.0796-2.3211-5.0796-2.3211-3.1642-5.4712c-1.7403-3.0092-3.4576-5.4712-3.8162-5.4712h-.652l.6176,2.3931 .6176,2.3931-1.0192,1.6711-1.0192,1.6711-4.3076-.294-4.3076-.294-.8124,2.1452-.8123,2.1452 1.4745,.9234 1.4745,.9234-.7679,2.0279-.7679,2.0278h-1.7705-1.7705l-2.0188-3.1221c-1.1103-1.7172-2.0188-3.9362-2.0188-4.9311v-1.809l-2.0693-.8047-2.0693-.8047-2.9307,2.7899c-1.6119,1.5345-2.9307,3.4791-2.9307,4.3214v1.5315l-2.454,.6503-2.454,.6503-1.449-1.7692c-.797-.9731-1.9426-1.7692-2.546-1.7692h-1.0969v2.862 2.862l-2.6221,1.6594-2.6221,1.6594-5.5875,.4614-5.5875,.4614-1.7356,1.4596-1.7356,1.4597-1.1627-.7281-1.1626-.7281-.7135,2.7646-.7134,2.7646-2.63-2.4118-2.63-2.4118-1.2689,1.8496-1.2688,1.8496-.634-1.5833-.634-1.5833h-1.6178c-.8898,0-2.2903,.8211-3.1122,1.8247l-1.4944,1.8247-2.0961-.7468c-1.1529-.4107-3.3471-1.8872-4.876-3.2811l-2.7799-2.5343-.7951,2.0995-.7951,2.0995 2.0413,3.1569 2.0412,3.1569h-1.3984c-.7691,0-3.0723-.9975-5.1181-2.2167l-3.7197-2.2167-.6919-3.4833-.6919-3.4833h-1.7188-1.7188v1.7449 1.7449l1.875,1.5769 1.875,1.5769v2.967 2.967l2.5,1.3558 2.5,1.3558v1.8554 1.8554h-2.4445-2.4445l-4.2667-2.9341-4.2667-2.9341-4.2263,.2918c-2.3245,.1605-7.736,.6706-12.0256,1.1335l-7.7994,.8417-.7633,1.2516-.7633,1.2516 .6469,.6556c.3558,.3606 2.9648,.9706 5.7977,1.3556l5.1508,.7001 1.4267,2.6768 1.4267,2.6768-.2819,4.3947c-.155,2.4171-.6778,4.6971-1.1618,5.0667-.4839,.3696-1.5027,1.812-2.2639,3.2053l-1.384,2.5333-2.2162,.4413-2.2162,.4413-.992-1.6265-.992-1.6265-1.8715,1.5739-1.8715,1.5739-6.473-3.3239c-6.4916-3.3334-9.1942-3.6433-5.6297-.6456l1.9052,1.6023v1.7449 1.7449h-1.7292-1.7292l-.6742,2.6125-.6742,2.6125 3.7414-.8327 3.7415-.8327-.4005,4.2369-.4005,4.2369-2.5-.4367c-1.375-.2402-4.817-.4723-7.6489-.5158l-5.1489-.079-2.3511,1.0016-2.3511,1.0016 6.25,1.4456 6.25,1.4456-.3768,3.1353c-.2073,1.7244-.3253,5.5578-.2624,8.5186l.1144,5.3833h-1.9251l-1.9251-.0001v-3.0083c0-1.6546-.3556-4.8098-.7901-7.0117l-.7901-4.0033-2.4419-1.3243-2.4419-1.3243-.773,.7833c-.4252,.4308-.7989,2.3295-.8304,4.2193l-.0574,3.436-6.875,.0433-6.875,.0433-4.0625,2.2059-4.0625,2.2059v1.7821 1.7821l2.5658,.8252 2.5658,.8252-1.3568,1.6566c-1.5918,1.9436-4.9977,3.0071-7.2124,2.252zm115.9375-134.0263v-1.9714l3.8779-3.5891 3.8779-3.5891-.8372-2.6728-.8372-2.6728h-1.7908-1.7908v-1.3089c0-.7199-1.8324-3.1657-4.072-5.4352l-4.072-4.1263-4.3655,.2123c-2.401,.1168-5.883,.8272-7.7376,1.5787l-3.3721,1.3663-2.0782,3.214-2.0782,3.214 .7252,2.9281 .7252,2.9281 4.1001,2.0668 4.1001,2.0668-2.0344,.0811-2.0344,.0811-1.6001,1.9537-1.6001,1.9537 1.4162,1.4351 1.4162,1.4351 4.6434-1.4441 4.6434-1.4441 1.325,1.1006c.7287,.6052 2.7312,1.3625 4.45,1.6827 1.7188,.3202 3.5469,.6598 4.0625,.7547l.9375,.1725v-1.9714zm115.2783,39.0729-2.8467-.5535-3.1097-2.9204-3.1097-2.9204 .8644-2.3703c.4754-1.3037 2.2759-4.2728 4.0009-6.5981l3.1365-4.2278 4.4555,.778c11.7127,2.0452 21.4681,3.1276 29.4555,3.2682l8.75,.1541 2.5,1.0886 2.5,1.0886-2.2595,.0891c-1.2427,.049-4.7053,1.4727-7.6947,3.164l-5.4353,3.0749-.6708-.6798-.6708-.6798-3.5095,2.4166c-4.6259,3.1854-9.9539,5.4597-12.7902,5.4597h-2.2881l-1.5875-1.9383-1.5874-1.9383-2.3643,2.5716c-1.3004,1.4144-2.483,2.494-2.6281,2.3991-.1451-.0949-1.5448-.4216-3.1105-.726z"/>
<path fill="#25364d" d="m117.25-57.4445c0-.7837 1.2111-2.4893 2.6913-3.7902l2.6913-2.3652 3.8712-.1521c2.1292-.0836 8.0031-.2262 13.0531-.3167l9.1818-.1646 .5794,.95 .5794,.95h-3.1988-3.1988v1.2667 1.2667h-3.7892-3.7892l-.6149,1.6239-.6149,1.6239-8.7208,.2664-8.7208,.2664v-1.425zm92.8571-13.3126-1.5179-.6238 .6738-6.7037 .6738-6.7037-2.8843-.7643-2.8844-.7643 1.4153-1.4341 1.4153-1.4341 10.6292-.1907 10.6292-.1907-.5773-.95-.5773-.95 1.2917,0 1.2917,0 1.8609,3.6465 1.8609,3.6465 1.9212,.7471 1.9212,.7471 0,1.8284 0,1.8284-5.3125,1.0308c-2.9219,.5669-6.4235,.886-7.7814,.7091l-2.4688-.3217-3.4687,1.4559-3.4686,1.4559v2.3797 2.3797l-1.5625-.0999c-.8594-.055-2.2456-.3807-3.0804-.7238zm-154.1071-42.1681v-1.3414h1.25 1.25v-1.3414-1.3414l-1.25,.7828-1.25,.7828v-7.5692-7.5692l1.5625-.6389 1.5625-.6389-1.5625-.0999-1.5625-.1001 .0987-57.95 .0987-57.95 .6305,1.5833 .6305,1.5833 5.8333,.004 5.8333,.004 2.439,3.689 2.439,3.689 3.4991,.7091 3.4991,.7091 3.0175-1.1626 3.0175-1.1626 .8162-2.6059 .8162-2.606h4.0652 4.0652l1.7881,4.1167 1.7881,4.1167 3.3816,.3953 3.3816,.3953 1.1279-4.1953 1.1279-4.1953 1.681,3.8c2.2991,5.1972 2.1259,5.1001 4.7715,2.674l2.3619-2.166 11.0832-1.1815c6.0958-.6498 12.6301-1.1916 14.5207-1.204l3.4375-.0225v3.2271 3.2271l3.3075,3.1062 3.3075,3.1062h-1.1374-1.1374l-2.9923,6.3868-2.9923,6.3868 1.2382,1.2547 1.2382,1.2548 2.0109-.782 2.0109-.7819 .3856-2.7004 .3856-2.7004 4.5182-1.0778 4.5182-1.0778 7.0443,2.0751 7.0443,2.0751v1.1194 1.1194l-4.0625,.6658c-2.2344,.3662-5.4688,.8195-7.1875,1.0074l-3.125,.3416-.4062,3.5953-.4062,3.5954 1.7056,2.1046c.9381,1.1576 2.6586,4.2422 3.8235,6.8547l2.1179,4.75h1.404 1.404l-.92-2.2167c-.506-1.2192-1.0289-3.2774-1.162-4.5739l-.242-2.3572-2.0967-1.189-2.0967-1.189v-1.8371-1.8371h1.1319c.6225,0 3.4637,1.2613 6.3137,2.8028l5.1818,2.8028 2.1238-1.3231c1.1681-.7277 2.679-2.5589 3.3577-4.0695l1.2339-2.7464h8.3513c4.5933,0 9.2411,.346 10.3286,.7688l1.9772,.7688v3.4937 3.4937l-2.5793,3.3227-2.5793,3.3227 2.041,3.5012 2.041,3.5012-1.3058,3.4803-1.3058,3.4802h-1.1967-1.1967l-.6977,2.2276-.6977,2.2276-8.1365-.2147-8.1365-.2147v1.1537 1.1537h-1.9062-1.9062l-.75-3.8c-.8116-4.1121-1.639-4.6092-3.8845-2.3337l-1.447,1.4663-1.928-1.6214-1.928-1.6214v-2.3782-2.3782h-1.875-1.875v2.5333 2.5333h1.3238 1.3238l-.8145,1.3355-.8145,1.3355-2.8843-1.9151-2.8843-1.9151-5.125,2.5091-5.125,2.5091v1.2371 1.2371h-1.992-1.992l-.6538-2.5333-.6538-2.5333h-1.645-1.645l-.7935-2.5333c-.4364-1.3933-1.2768-2.5333-1.8676-2.5333-.5908,0-1.256-.84-1.4783-1.8666l-.4041-1.8666-1.5328,.9728-1.5329,.9728 2.3714,5.0105 2.3714,5.0105 .8669,6.8392 .8669,6.8392-4.518-.7429-4.518-.743v1.8204 1.8204h1.7857c.9821,0 2.6748,.9009 3.7615,2.0021l1.9758,2.0021-.6082,.9973-.6082,.9973-6.5907,.2336c-3.6249,.1284-8.7946,.6333-11.4881,1.1218l-4.8973,.8883-.4843,1.4724-.4843,1.4724 2.2567,.5928 2.2567,.5928-6.25,.2603c-15.4824,.6449-35.3805,2.3966-39.375,3.4664l-4.375,1.1717 .3347,2.9755 .3347,2.9755-2.6291,2.8358-2.6291,2.8358 2.5597,.8232 2.5597,.8233 2.6543-1.4395c1.4599-.7917 2.7467-1.2508 2.8597-1.0202 .113,.2306 .9852,1.8184 1.9382,3.5284l1.7328,3.1091-1.4203,.4797-1.4203,.4797v1.6467 1.6467l2.5,.6625 2.5,.6625v1.8729 1.8729l-3.1516,2.0925-3.1516,2.0925-6.6907,.413c-3.6799,.2271-7.3242,.8097-8.0984,1.2946l-1.4077,.8809v-1.3414zm175.9811-104.6362c-.3771-.3821-5.9552-1.2293-12.3958-1.8826-6.4406-.6533-13.8196-1.5308-16.3977-1.9499l-4.6875-.762 .01-1.472 .01-1.472 3.3645-1.5833c4.4379-2.0885 8.0442-1.9988 12.4107,.3089 4.5122,2.3847 6.0075,2.3861 7.9554,.008l1.5561-1.9h2.9104c3.8893,0 14.4852,2.3489 16.6,3.6799l1.6916,1.0646-1.4818,2.8056-1.4818,2.8056-2.9457-.7492-2.9457-.7492-.7754,1.2713c-.8542,1.4006-2.3355,1.652-3.3968,.5766zm-51.1452-33.8679-4.5391-5.3374-2.7796,2.5333c-1.5288,1.3933-2.9959,2.4064-3.2602,2.2513-.2644-.1551-1.3512,.0565-2.4153,.4703l-1.9347,.7523-2.4132-2.2131-2.4132-2.2131 1.2986-2.4588 1.2986-2.4588-1.9638-3.0372-1.9638-3.0372v-2.5779-2.5779h-1.7064c-.9385,0-3.0958-1.1075-4.794-2.4611l-3.0875-2.4611 .5625-3.8839 .5625-3.8839-1.4349-1.752-1.4349-1.752 6.6679,.2079 6.6679,.2079 3.448,2.5452 3.448,2.5452 .0728,5.3438 .0728,5.3438h3.5004c1.9252,0 4.3902-.346 5.4777-.7689l1.9772-.7688v-3.0312-3.0311l.9375,.0515c.5156,.0283 2.885,1.7383 5.2653,3.8 2.3803,2.0617 4.9115,3.7612 5.625,3.7767 .7135,.0155 2.689,1.1119 4.39,2.4364l3.0928,2.4082-2.1572,2.4154-2.1572,2.4154 1.1487,6.2305c1.3731,7.4481 1.238,7.6765-2.9115,4.9214l-3.2335-2.1469v2.5435 2.5435l-1.9772,.7689c-2.4932,.9695-1.6901,1.5091-6.9369-4.6604zm-67.1469-13.36c-1.8227-1.9741-4.7096-4.3447-6.4153-5.2678-1.7057-.9232-4.1371-3.013-5.4032-4.644l-2.302-2.9655h-1.7199-1.7199l-3.5019-3.333c-1.926-1.8331-5.1515-4.0484-7.1677-4.9229l-3.6658-1.5899 5.2725-2.7257 5.2725-2.7257-.8415-1.3797-.8415-1.3797-15.626,.9021c-8.5943,.4962-16.3918,1.1999-17.3277,1.5638l-1.7022,.6615v-19.8593-19.8593l1.7857-1.8095c2.4804-2.5135 3.2962-2.3136 7.7238,1.892l3.8845,3.6898 11.0935,4.6534 11.0935,4.6534 7.522,5.977c7.4793,5.9431 14.7834,10.2518 17.4015,10.2653 .7537,.004 3.5306,.6149 6.1709,1.3578l4.8004,1.3507-.7431,3.0001-.7431,3.0001 2.7833,1.9755 2.7833,1.9755h3.9438 3.9438l1.5561,1.9 1.5561,1.9h2.4463 2.4463l-.8607,4.1167-.8607,4.1167-3.3011,2.8534-3.3011,2.8534-4.2451-.7289-4.245-.7289-1.0483,1.6754c-.5766,.9215-1.0569,3.1289-1.0675,4.9054l-.0191,3.23-1.5,1.52-1.5,1.52h-4.2485-4.2485l-3.314-3.5893z"/>
<path fill="#262828" d="m117.25-57.4348c0-.7891 1.2111-2.4991 2.6913-3.8l2.6913-2.3652 3.8712-.1521c2.1292-.0836 8.0031-.2262 13.0531-.3167l9.1818-.1646 .5794,.95 .5794,.95h-3.1988-3.1988v1.4143 1.4143l-3.1696-.614-3.1696-.614-1.5179,2.0762-1.5179,2.0762-5.9526,.194-5.9526,.194 .8235-1.4872 .8235-1.4872-1.6834,1.5833c-.9259,.8708-2.4146,1.5833-3.3084,1.5833h-1.625v-1.4348zm92.8571-13.3224-1.5179-.6238 .6738-6.7037 .6738-6.7037-2.8843-.7643-2.8844-.7643 1.4153-1.4341 1.4153-1.4341 10.6292-.1907 10.6292-.1907-.5773-.95-.5773-.95 1.2917,0 1.2917,0 1.8609,3.6465 1.8609,3.6465 1.9212,.7471 1.9212,.7471 0,1.8284 0,1.8284-5.3125,1.0308c-2.9219,.5669-6.4235,.886-7.7814,.7091l-2.4688-.3217-3.4687,1.4559-3.4686,1.4559v2.3797 2.3797l-1.5625-.0999c-.8594-.055-2.2456-.3807-3.0804-.7238zm-146.1405-45.398-2.3415-1.7626l-2.8125,.6962-2.8125,.6962v-6.9984-6.9984l1.5625-.6389 1.5625-.6389-1.5625-.1-1.5625-.1v-37.8945-37.8944l1.5625-.7389 1.5625-.7389-1.5736-.7426-1.5736-.7426 .1005-17.6428 .1005-17.6428 1.4126,.8847 1.4126,.8847 4.6914-.2805 4.6914-.2805 1.9569,3.8347c1.0763,2.1091 1.8049,4.2681 1.6191,4.7979l-.3378,.9633 3.1521,.3729 3.1521,.3729 4.5695-1.9347 4.5695-1.9347 .8289-2.6465 .8289-2.6465 1.8643,.7249c1.0254,.3987 2.5538,.7249 3.3965,.7249h1.5322l2.1352,4.9042 2.1352,4.9042 4.6678,.7811 4.6678,.7811 1.3878-1.8853c.7633-1.0369 1.844-1.8853 2.4016-1.8853 .5576,0 1.9769-.8832 3.154-1.9627l2.1402-1.9627 11.0832-1.1815c6.0958-.6498 12.6301-1.1916 14.5207-1.204l3.4375-.0225v3.1667 3.1667l2.5174,2.551 2.5174,2.551-2.0362,3.149-2.0362,3.149h-7.9812-7.9812v3.0762 3.0762l-1.9643,1.9905c-2.2665,2.2967-2.9706,2.3939-5.5185,.7614l-1.8578-1.1903 1.4063-3.7755 1.4063-3.7755-1.6644-.6472-1.6644-.6472-4.1202,1.1974-4.1202,1.1974-3.7639-1.1551-3.7639-1.1551-9.2692,.2068-9.2692,.2068-2.2019,3.8-2.2019,3.8-.0914,3.3478-.0914,3.3478 1.9772,.7689c2.5933,1.0084 17.8752,.9888 22.8991-.0294l3.9388-.7983-.7418-2.3684-.7418-2.3684h1.9592 1.9592v2.4325 2.4325l8.1893,.8887 8.1893,.8887 6.4982-.8534c3.574-.4694 8.5511-1.467 11.0603-2.217l4.5621-1.3636 3.6715,1.6469 3.6715,1.6468 1.1414,2.1991c.6278,1.2095 2.3754,4.8166 3.8836,8.0156l2.7422,5.8164h1.454 1.454l-.92-2.2167c-.506-1.2192-1.0289-3.2774-1.162-4.5739l-.242-2.3572-2.0967-1.189-2.0967-1.189v-1.8371-1.8371h1.212c.6666,0 3.2149,1.14 5.663,2.5333 5.1121,2.9096 7.0337,3.1325 9.0848,1.054 .8029-.8136 3.5873-2.23 6.1875-3.1476l4.7277-1.6683 6.5625-.019 6.5625-.0191v3.6292 3.6292l-2.5793,3.3227-2.5793,3.3227 2.041,3.5012 2.041,3.5012-1.3058,3.4803-1.3058,3.4802h-1.1967-1.1967l-.6977,2.2276-.6977,2.2276-8.1365-.2147-8.1365-.2147v1.1537 1.1537h-1.9062-1.9062l-.75-3.8c-.8116-4.1121-1.639-4.6092-3.8845-2.3337l-1.447,1.4663-1.928-1.6214-1.928-1.6214v-2.3782-2.3782h-1.875-1.875v2.5333 2.5333h1.3238 1.3238l-.8145,1.3355-.8145,1.3355-2.8843-1.9151-2.8843-1.9151-5.125,2.5091-5.125,2.5091v1.2371 1.2371h-1.992-1.992l-.6538-2.5333-.6538-2.5333h-1.645-1.645l-.7935-2.5333c-.4364-1.3933-1.2768-2.5333-1.8676-2.5333-.5908,0-1.256-.84-1.4783-1.8666l-.4041-1.8666-1.5328,.9728-1.5329,.9728 2.3714,5.0105 2.3714,5.0105 .8669,6.8392 .8669,6.8392-4.518-.7429-4.518-.743v1.6726 1.6726l2.5,.6625 2.5,.6625v1.2541 1.2541l-10.9375,1.4821c-6.0156,.8151-12.625,1.893-14.6875,2.3953l-3.75,.9132v1.4304c0,.7867-.4021,1.8379-.8936,2.3359l-.8936,.9055-14.1064,.9736c-7.7585,.5355-16.0752,1.4965-18.4814,2.1356l-4.375,1.162 .3366,2.9863 .3366,2.9863-3.2287,3.415-3.2287,3.415 3.4251,.6635 3.4251,.6635 1.7438-1.7671c.9591-.9719 2.2052-1.7671 2.769-1.7671h1.0252l.8213,3.3161c1.0018,4.0448 1.0579,3.9849-4.9076,5.2408l-4.8339,1.0177-.5721,1.7393-.5721,1.7393 4.2747-.7029 4.2747-.7029 3.3931,.6573 3.3931,.6573v1.7078 1.7078l-2.1875,1.1328c-1.2031,.6231-3.9463,1.4698-6.096,1.8817l-3.9085,.7489-2.3415-1.7626zm17.4019-96.5949 .6599-3.4833-1.2468-1.5279-1.2468-1.5278 .6912-1.1333 .6912-1.1333-4.6461-1.5523-4.6461-1.5523-5,.5274-5,.5274 2.726,.9608c3.3088,1.1662 4.0941,2.9644 3.2495,7.4415l-.642,3.4031-2.0418,.0194c-1.123,.0107-2.8855,.5719-3.9168,1.2473l-1.875,1.2279 10.7918,.0194 10.7918,.0194 .6599-3.4833zm130.8815-7.3498c-1.0312-.2232-4.5469-.762-7.8125-1.1973l-5.9375-.7914 .01-1.5057 .01-1.5057 3.3645-1.5833 3.3645-1.5833h3.427 3.427l.6869,1.1264c.3778,.6195 2.1647,1.5022 3.9708,1.9615l3.2838,.8352 2.3301-2.1369 2.3301-2.1369 5.3354,.7811c7.3172,1.0713 14.7099,3.2944 14.7099,4.4237v.935l-11.5625,1.5555c-11.0388,1.485-16.8262,1.7123-20.9375,.8223zm-98.8615-45.467c-2.3037-2.4749-4.7468-4.4999-5.429-4.4999-.6822,0-2.6678-1.471-4.4124-3.2689-3.9699-4.0911-10.4627-8.6544-16.7922-11.8022l-4.8701-2.422 5.1328-2.6535c2.823-1.4594 5.8583-2.65 6.7451-2.6458l1.6123,.008 15.625,13.2211 15.625,13.2211v2.2879 2.2879l-4.524,.3832-4.524,.3832-4.1886-4.4999z"/>
</g>
</svg>
