<svg width="512" fill="none" xmlns="http://www.w3.org/2000/svg" height="512" viewBox="-2.125 -7.125 144.49778 144.49778" xmlns:xlink="http://www.w3.org/1999/xlink" stroke-linecap="round">
<defs/>
<g fill="#e6e6e6" stroke="#000" stroke-width="5.644">
<path d="m22.8407,115.9096-3.5025-3.5025c-3.6678-3.6678-3.6678-10.3421 0-14.0098l21.0148-21.0148c3.6678-3.6678 10.3421-3.6678 14.0098,0l3.5025,3.5025c3.6678,3.6678 3.6678,10.3421 0,14.0098l-21.0148,21.0148c-3.6678,3.6678-10.3421,3.6678-14.0098,0zm-10.5074,3.5025 3.5025,3.5025c7.3355,7.3355 20.6842,7.3355 28.0197,0l21.0148-21.0148c7.3355-7.3355 7.3355-20.6842 0-28.0197l-3.5025-3.5025c-7.3355-7.3355-20.6842-7.3355-28.0197,0l-21.0148,21.0148c-7.3355,7.3355-7.3355,20.6842 0,28.0197z"/>
<path d="m85.885,52.8653-3.5025-3.5025c-3.6678-3.6678-3.6678-10.3421 0-14.0098l21.0148-21.0148c3.6678-3.6678 10.3421-3.6678 14.0099,0l3.5025,3.5025c3.6678,3.6678 3.6678,10.3421 0,14.0098l-21.0148,21.0148c-3.6678,3.6678-10.3421,3.6678-14.0098,0zm-10.5074,3.5025 3.5025,3.5025c7.3355,7.3355 20.6842,7.3355 28.0197,0l21.0148-21.0148c7.3355-7.3355 7.3355-20.6842 0-28.0197l-3.5025-3.5025c-7.3355-7.3355-20.6842-7.3355-28.0197,0l-21.0148,21.0148c-7.3355,7.3355-7.3355,20.6842 0,28.0197z"/>
<path d="m94.6411,47.6116c1.8339-1.8339 1.8339-5.171 0-7.0049-1.8339-1.8339-5.171-1.8339-7.0049,0l-42.0295,42.0295c-1.8339,1.8339-1.8339,5.1711 0,7.0049 1.8339,1.8339 5.171,1.8339 7.0049,0l42.0295-42.0295z"/>
</g>
</svg>
