<svg width="512" xmlns="http://www.w3.org/2000/svg" height="512" viewBox="-2.125 -7.125 144.49778 144.49778" style="fill:none;stroke-linecap:round"><g style="fill:#e6e6e6;stroke:#000;stroke-width:5.644"><path d="m22.841 115.91l-3.503-3.502c-3.668-3.668-3.668-10.342 0-14.01l21.01-21.01c3.668-3.668 10.342-3.668 14.01 0l3.502 3.502c3.668 3.668 3.668 10.342 0 14.01l-21.01 21.01c-3.668 3.668-10.342 3.668-14.01 0zm-10.507 3.502l3.502 3.502c7.335 7.336 20.684 7.336 28.02 0l21.01-21.01c7.335-7.335 7.335-20.684 0-28.02l-3.502-3.502c-7.335-7.335-20.684-7.335-28.02 0l-21.01 21.01c-7.336 7.335-7.336 20.684 0 28.02z"/><path d="m85.89 52.865l-3.502-3.502c-3.668-3.668-3.668-10.342 0-14.01l21.01-21.01c3.668-3.668 10.342-3.668 14.01 0l3.502 3.503c3.668 3.668 3.668 10.342 0 14.01l-21.01 21.01c-3.668 3.668-10.342 3.668-14.01 0zm-10.507 3.502l3.502 3.502c7.335 7.336 20.684 7.336 28.02 0l21.01-21.01c7.335-7.336 7.335-20.684 0-28.02l-3.502-3.502c-7.335-7.336-20.684-7.336-28.02 0l-21.01 21.01c-7.335 7.336-7.335 20.684 0 28.02z"/><path d="m94.64 47.612c1.834-1.834 1.834-5.171 0-7-1.834-1.834-5.171-1.834-7 0l-42.03 42.03c-1.834 1.834-1.834 5.171 0 7 1.834 1.834 5.171 1.834 7 0l42.03-42.03z"/></g></svg>