<svg xmlns="http://www.w3.org/2000/svg" viewBox="0 0 512 512"><g transform="translate(0 492)"><path d="m95.62-291.28l-26.951 73.08h54l-27.05-73.08m-11.213-19.574h22.525l55.967 146.85h-20.656l-13.377-37.672h-66.2l-13.377 37.672h-20.951l56.07-146.85"/><path d="m181.59-207.48v-66.69h18.1v66c0 10.426 2.033 18.262 6.098 23.508 4.066 5.18 10.164 7.771 18.295 7.77 9.77 0 17.475-3.115 23.11-9.344 5.705-6.229 8.557-14.721 8.557-25.475v-62.46h18.1v110.16h-18.1v-16.918c-4.394 6.689-9.508 11.672-15.344 14.951-5.771 3.213-12.492 4.82-20.16 4.82-12.656 0-22.262-3.934-28.82-11.803-6.557-7.869-9.836-19.377-9.836-34.525"/><path d="m329.23-305.44v31.28h37.28v14.07h-37.28v59.803c0 8.984 1.213 14.754 3.639 17.311 2.492 2.557 7.508 3.836 15.05 3.836h18.59v15.15h-18.59c-13.967 0-23.607-2.59-28.918-7.77-5.311-5.246-7.967-14.754-7.967-28.525v-59.803h-13.279v-14.07h13.279v-31.28h18.2"/><path d="m433.1-261.48c-9.705 0-17.377 3.803-23.02 11.41-5.639 7.541-8.459 17.902-8.459 31.08 0 13.18 2.787 23.574 8.361 31.18 5.639 7.541 13.344 11.311 23.11 11.311 9.639 0 17.279-3.803 22.918-11.41 5.639-7.607 8.459-17.967 8.459-31.08 0-13.05-2.82-23.377-8.459-30.984-5.639-7.672-13.279-11.508-22.918-11.508m0-15.344c15.738 0 28.1 5.115 37.08 15.344 8.983 10.23 13.475 24.394 13.475 42.492 0 18.03-4.492 32.2-13.475 42.492-8.984 10.23-21.344 15.344-37.08 15.344-15.803 0-28.2-5.115-37.18-15.344-8.918-10.295-13.377-24.459-13.377-42.492 0-18.1 4.459-32.26 13.377-42.492 8.984-10.229 21.377-15.344 37.18-15.344"/></g></svg>