<?xml version="1.0" encoding="UTF-8" standalone="no"?>
<svg
   xmlns:dc="http://purl.org/dc/elements/1.1/"
   xmlns:cc="http://creativecommons.org/ns#"
   xmlns:rdf="http://www.w3.org/1999/02/22-rdf-syntax-ns#"
   xmlns:svg="http://www.w3.org/2000/svg"
   xmlns="http://www.w3.org/2000/svg"
   xmlns:sodipodi="http://sodipodi.sourceforge.net/DTD/sodipodi-0.dtd"
   xmlns:inkscape="http://www.inkscape.org/namespaces/inkscape"
   width="512"
   height="512"
   id="svg4646"
   version="1.1"
   inkscape:version="0.48.2 r9819"
   sodipodi:docname="SnapAuto.svg">
  <metadata
     id="metadata4658">
    <rdf:RDF>
      <cc:Work
         rdf:about="">
        <dc:format>image/svg+xml</dc:format>
        <dc:type
           rdf:resource="http://purl.org/dc/dcmitype/StillImage" />
      </cc:Work>
    </rdf:RDF>
  </metadata>
  <sodipodi:namedview
     pagecolor="#ffffff"
     bordercolor="#666666"
     borderopacity="1"
     objecttolerance="10"
     gridtolerance="10"
     guidetolerance="10"
     inkscape:pageopacity="0"
     inkscape:pageshadow="2"
     inkscape:window-width="640"
     inkscape:window-height="480"
     id="namedview4656"
     showgrid="false"
     inkscape:zoom="0.4609375"
     inkscape:cx="256"
     inkscape:cy="256"
     inkscape:window-x="0"
     inkscape:window-y="0"
     inkscape:window-maximized="0"
     inkscape:current-layer="svg4646" />
  <defs
     id="defs4648" />
  <g
     transform="translate(0 492)"
     id="g4650">
    <g
       style="font-size:201.44264221px;font-family:Bitstream Vera Sans"
       id="text4652">
      <path
         d="M 95.622466,-291.2787 68.671644,-218.19673 122.67165,-218.19673 95.622466,-291.2787 M 84.40935,-310.85247 106.93394,-310.85247 162.90116,-164 142.24542,-164 128.86837,-201.67213 62.671643,-201.67213 49.294593,-164 28.343771,-164 84.40935,-310.85247"
         style=""
         id="path4961" />
      <path
         d="M 181.58968,-207.47541 181.58968,-274.16394 199.68804,-274.16394 199.68804,-208.16394 C 199.68801,-197.73767 201.72079,-189.90162 205.78641,-184.65574 209.85193,-179.4754 215.95029,-176.88523 224.08149,-176.88525 233.85191,-176.88523 241.55682,-179.99999 247.19625,-186.22951 252.90108,-192.45899 255.75353,-200.95079 255.75362,-211.70492 L 255.75362,-274.16394 273.85199,-274.16394 273.85199,-164 255.75362,-164 255.75362,-180.91803 C 251.36009,-174.2295 246.24534,-169.2459 240.40936,-165.96721 234.6388,-162.7541 227.91749,-161.14754 220.24542,-161.14754 207.58964,-161.14754 197.98309,-165.08197 191.42575,-172.95082 184.86835,-180.81966 181.58966,-192.32784 181.58968,-207.47541"
         style=""
         id="path4963" />
      <path
         d="M 329.22904,-305.44264 329.22904,-274.16394 366.50773,-274.16394 366.50773,-260.09837 329.22904,-260.09837 329.22904,-200.29509 C 329.229,-191.31145 330.44212,-185.54096 332.86839,-182.98361 335.36015,-180.42621 340.37654,-179.14753 347.91757,-179.14754 L 366.50773,-179.14754 366.50773,-164 347.91757,-164 C 333.95031,-164 324.31098,-166.59016 318.99953,-171.77049 313.68803,-177.01638 311.0323,-186.52457 311.03232,-200.29509 L 311.03232,-260.09837 297.75363,-260.09837 297.75363,-274.16394 311.03232,-274.16394 311.03232,-305.44264 329.22904,-305.44264"
         style=""
         id="path4965" />
      <path
         d="M 433.0979,-261.47542 C 423.39293,-261.47532 415.7208,-257.67205 410.0815,-250.06558 404.44213,-242.52452 401.62246,-232.16387 401.62249,-218.98361 401.62246,-205.80324 404.40934,-195.40981 409.98314,-187.80328 415.62244,-180.26228 423.32735,-176.49179 433.0979,-176.4918 442.73717,-176.49179 450.37651,-180.29507 456.01593,-187.90164 461.65519,-195.50817 464.47486,-205.86881 464.47495,-218.98361 464.47486,-232.03273 461.65519,-242.36058 456.01593,-249.96722 450.37651,-257.63926 442.73717,-261.47532 433.0979,-261.47542 M 433.0979,-276.81968 C 448.83553,-276.81957 461.19617,-271.70482 470.17987,-261.47542 479.16337,-251.24582 483.65517,-237.0819 483.65528,-218.98361 483.65517,-200.95079 479.16337,-186.78686 470.17987,-176.4918 461.19617,-166.26229 448.83553,-161.14754 433.0979,-161.14754 417.29457,-161.14754 404.90114,-166.26229 395.91757,-176.4918 386.99952,-186.78686 382.54051,-200.95079 382.54052,-218.98361 382.54051,-237.0819 386.99952,-251.24582 395.91757,-261.47542 404.90114,-271.70482 417.29457,-276.81957 433.0979,-276.81968"
         style=""
         id="path4967" />
    </g>
  </g>
</svg>
