<?xml version="1.0" encoding="UTF-8" standalone="no"?>
<svg
   xmlns:dc="http://purl.org/dc/elements/1.1/"
   xmlns:cc="http://web.resource.org/cc/"
   xmlns:rdf="http://www.w3.org/1999/02/22-rdf-syntax-ns#"
   xmlns:svg="http://www.w3.org/2000/svg"
   xmlns="http://www.w3.org/2000/svg"
   xmlns:xlink="http://www.w3.org/1999/xlink"
   xmlns:sodipodi="http://sodipodi.sourceforge.net/DTD/sodipodi-0.dtd"
   xmlns:inkscape="http://www.inkscape.org/namespaces/inkscape"
   width="512"
   height="512"
   id="svg2"
   sodipodi:version="0.32"
   inkscape:version="0.45.1"
   sodipodi:docname="ExDivide.svg"
   inkscape:output_extension="org.inkscape.output.svg.inkscape"
   sodipodi:docbase="E:\Programme\QCAD\scripts\Modify\ExDivide">
  <metadata
     id="metadata94">
    <rdf:RDF>
      <cc:Work
         rdf:about="">
        <dc:format>image/svg+xml</dc:format>
        <dc:type
           rdf:resource="http://purl.org/dc/dcmitype/StillImage" />
      </cc:Work>
    </rdf:RDF>
  </metadata>
  <sodipodi:namedview
     inkscape:window-height="579"
     inkscape:window-width="801"
     inkscape:pageshadow="2"
     inkscape:pageopacity="0.0"
     guidetolerance="10.0"
     gridtolerance="10.0"
     objecttolerance="10.0"
     borderopacity="1.0"
     bordercolor="#666666"
     pagecolor="#ffffff"
     id="base"
     showguides="true"
     inkscape:guide-bbox="true"
     inkscape:zoom="0.18457031"
     inkscape:cx="235.08297"
     inkscape:cy="572.89399"
     inkscape:window-x="2310"
     inkscape:window-y="188"
     inkscape:current-layer="svg2" />
  <defs
     id="defs4">
    <linearGradient
       gradientTransform="matrix(7.19821 -4.51627 3.85788 6.14884 319.54494 -491.99528)"
       xlink:href="#XMLID_52_"
       id="linearGradient3853"
       y1="40.069"
       x1="13.825"
       y2="2.326"
       gradientUnits="userSpaceOnUse"
       x2="7.67" />
    <linearGradient
       xlink:href="#linearGradient2259"
       id="linearGradient3822"
       y1="13.6"
       x1="298.479"
       y2="13.803"
       gradientUnits="userSpaceOnUse"
       x2="298.869" />
    <linearGradient
       gradientTransform="matrix(25.11228 -15.75583 16.07914 25.62757 -6693.2722 4272.8385)"
       xlink:href="#XMLID_897_"
       id="linearGradient3806"
       y1="4.759"
       x1="292.972"
       y2="10.711"
       gradientUnits="userSpaceOnUse"
       x2="296.94" />
    <linearGradient
       xlink:href="#linearGradient2251"
       id="linearGradient3820"
       y1="13.6"
       x1="298.479"
       y2="13.803"
       gradientUnits="userSpaceOnUse"
       x2="298.869" />
    <linearGradient
       xlink:href="#XMLID_45_"
       id="linearGradient3824"
       y1="23.843"
       x1="22.225"
       y2="22.861"
       gradientUnits="userSpaceOnUse"
       x2="24.19" />
    <linearGradient
       gradientTransform="matrix(22.53791 -14.14064 13.48949 21.50009 -6269.3794 3491.2374)"
       xlink:href="#XMLID_52_"
       id="linearGradient3851"
       y1="15.507"
       x1="296.486"
       y2="9.877"
       gradientUnits="userSpaceOnUse"
       x2="296.529" />
    <linearGradient
       gradientTransform="matrix(-25.5728 16.04477 16.07914 25.62757 7999.4031 -5433.7992)"
       xlink:href="#XMLID_897_"
       id="linearGradient3843"
       y1="4.759"
       x1="292.972"
       y2="10.711"
       gradientUnits="userSpaceOnUse"
       x2="296.94" />
    <linearGradient
       gradientTransform="matrix(7.19821 -4.51627 3.85788 6.14884 321.79243 -491.6634)"
       xlink:href="#XMLID_52_"
       id="linearGradient3849"
       y1="31.057"
       x1="7.185"
       y2="50.775"
       gradientUnits="userSpaceOnUse"
       x2="25.152" />
    <linearGradient
       gradientTransform="matrix(6.19532 -3.88704 3.88704 6.19532 335.81886 -522.75842)"
       xlink:href="#linearGradient2229"
       id="linearGradient3845"
       y1="6.46"
       x1="20.288"
       y2="23.943"
       gradientUnits="userSpaceOnUse"
       x2="24.326" />
    <linearGradient
       xlink:href="#XMLID_52_"
       id="linearGradient3847"
       y1="12.188"
       x1="294.595"
       y2="13.34"
       gradientUnits="userSpaceOnUse"
       x2="297.185" />
    <linearGradient
       gradientTransform="matrix(6.19532 -3.88704 3.88704 6.19532 635.81886 -222.75842)"
       xlink:href="#linearGradient2229"
       id="linearGradient3803"
       y1="6.46"
       x1="20.288"
       y2="23.943"
       gradientUnits="userSpaceOnUse"
       x2="24.326" />
    <linearGradient
       id="XMLID_45_"
       y1="21.425"
       y2="27.837"
       x1="68.175"
       x2="74.587"
       gradientUnits="userSpaceOnUse">
      <stop
         offset="0"
         stop-color="#babdb6"
         id="stop18" />
      <stop
         offset="1"
         stop-color="#eeeeec"
         id="stop20" />
    </linearGradient>
    <linearGradient
       id="linearGradient2229">
      <stop
         offset="0"
         stop-color="#e2e2e2"
         id="stop23" />
      <stop
         offset="1"
         stop-color="#d8d8d8"
         id="stop25" />
    </linearGradient>
    <linearGradient
       id="XMLID_897_"
       y1="4.759"
       y2="10.711"
       x1="292.972"
       x2="296.94"
       gradientUnits="userSpaceOnUse">
      <stop
         offset="0"
         stop-color="#eeeeec"
         id="stop28" />
      <stop
         offset="1"
         stop-color="#fff"
         id="stop30" />
    </linearGradient>
    <linearGradient
       id="linearGradient2251">
      <stop
         offset="0"
         stop-color="#df2a2a"
         id="stop33" />
      <stop
         offset="1"
         stop-color="#df2a2a"
         stop-opacity="0"
         id="stop35" />
    </linearGradient>
    <linearGradient
       gradientTransform="matrix(7.19821 -4.51627 3.85788 6.14884 604.39649 -202.4909)"
       xlink:href="#radialGradient16850"
       id="linearGradient3786"
       y1="44.541"
       x1="39.62"
       y2="-11.889"
       gradientUnits="userSpaceOnUse"
       x2="-3.533" />
    <linearGradient
       gradientTransform="matrix(22.45455 -14.08834 14.08834 22.45455 -5954.4487 3766.6173)"
       xlink:href="#XMLID_52_"
       id="linearGradient3789"
       y1="12.012"
       x1="296.762"
       y2="10.947"
       gradientUnits="userSpaceOnUse"
       x2="297.798" />
    <linearGradient
       id="linearGradient2259">
      <stop
         offset="0"
         stop-color="#9a0c00"
         id="stop40" />
      <stop
         offset="1"
         stop-color="#9a0c00"
         stop-opacity="0"
         id="stop42" />
    </linearGradient>
    <radialGradient
       cx="165.061"
       cy="23.333"
       gradientTransform="matrix(1 0 0 1.0103 0 -.1598)"
       id="radialGradient16850"
       r="7.285"
       gradientUnits="userSpaceOnUse">
      <stop
         offset="0"
         stop-color="#ef3535"
         id="stop45" />
      <stop
         offset="1"
         stop-color="#a40000"
         stop-opacity="0"
         id="stop47" />
    </radialGradient>
    <radialGradient
       cx="34.376"
       cy="37.5"
       gradientTransform="matrix(6.19532 -3.88704 4.12174 6.5694 626.88057 -237.00465)"
       xlink:href="#XMLID_52_"
       id="radialGradient3793"
       r="8.389"
       gradientUnits="userSpaceOnUse" />
    <radialGradient
       cx="165.061"
       cy="23.333"
       gradientTransform="matrix(1 0 0 1.0103 0 -.1598)"
       r="7.285"
       id="XMLID_52_"
       gradientUnits="userSpaceOnUse">
      <stop
         offset="0"
         stop-color="#ef3535"
         id="stop51" />
      <stop
         offset="0"
         stop-color="#c91a1a"
         id="stop53" />
      <stop
         offset="1"
         stop-color="#ff4c4c"
         id="stop55" />
    </radialGradient>
  </defs>
  <g
     transform="matrix(1.05597 -.34559 .34559 1.05597 -177.01246 940.62146)"
     id="g57">
    <path
       fill="url(#linearGradient3843)"
       stroke="#282828"
       stroke-linejoin="round"
       stroke-linecap="round"
       stroke-width="7.314"
       d="m553.8561-645.528c1.5795-.3993 3.1473-.7257 4.7112-1.078 12.5756,11.0791 39.9218,13.1042 41.3114,31.1229 1.0985,54.3998 2.6955,109.2177 4.1667,163.8181-4.0491,3.8089-8.3987,7.2287-12.9993,10.2686-9.6719,6.4155-20.6735,11.2916-32.0988,13.8012-1.9474-72.6108-3.9549-145.3468-5.0913-217.9329z"
       id="path59" />
    <path
       fill="url(#linearGradient3845)"
       d="m564.769-629.7104c-.2368,2.8031 .5999,7.1434 .2442,9.83 1.1766,57.5656 1.8858,115.3262 2.8606,172.7761 .6087,1.8035-1.1077,9.4352 3.5907,5.8888 7.6556-3.0947 15.437-6.6583 21.1608-12.7842-.8784-53.1289-2.3901-106.275-3.3302-159.3842 .6164-3.7305-1.0619-7.3225-4.794-8.32-6.4578-2.999-13.1197-6.2282-19.5171-8.9509l-.1623,.7124-.0528,.2321z"
       id="path61" />
    <path
       fill="url(#linearGradient3847)"
       stroke="#9a0c00"
       stroke-linejoin="round"
       stroke-linecap="round"
       stroke-width=".281"
       d="m295.1328,14.7188-.4004-1.0459 1.0142-1.7125 1.2978,.3399-.645,1.0845z"
       transform="matrix(22.53791 -14.14064 13.48949 21.50009 -6269.3794 3491.2374)"
       id="path63" />
    <path
       fill="url(#linearGradient3849)"
       stroke="#a40000"
       stroke-width="7.314"
       d="m563.205-383.9233c26.7535-1.8775 47.3625,27.3807 46.0051,65.3714-1.3474,38.0063-24.1125,70.3453-50.8455,72.2755-26.7627,1.8832-47.3527-27.365-45.9952-65.3557 1.348-37.9848 24.1223-70.3296 50.8356-72.2911zm-.8343,24.1994c-11.868,.8529-25.8241,20.8694-26.7129,46.4098-.9137,25.5561 11.6926,43.7218 23.5433,42.8599 11.8773-.819 25.8323-20.8745 26.7211-46.415 .9221-25.5614-11.6837-43.7075-23.5515-42.8548z"
       id="path65" />
    <path
       fill="url(#linearGradient3851)"
       d="m567.0708-426.9983c-5.6809,7.7667 .3896,17.3275-.4046,25.8455 .6615,5.7652-.6142,12.0088 .7224,17.6653 1.9434,3.2306 8.0625,6.6858 9.9116,1.606 4.1245-12.4853 6.0191-25.6957 5.2967-38.9551-.4652-3.9391 1.4543-8.6327-.0796-12.0756-5.5554-1.4429-11.4443,2.5781-15.4465,5.9139z"
       id="path67" />
    <path
       fill="url(#linearGradient3853)"
       d="m543.4484-368.969c-10.4216,9.882-16.8648,23.1354-21.6225,34.9896-1.9563,7.2273-2.0684,13.8165-3.1059,21.4117-1.4411,21.2122 6.1399,43.1469 24.7206,54.1644 9.486,6.5946 24.3305,2.4125 33.5894-6.5767 8.0293-7.183 12.0985-17.6156 16.6267-25.9638 2.6315-8.4787 3.3053-16.1173 4.3806-25.1218 1.5915-22.3628-5.0486-46.4672-25.0462-57.7816-8.9231-4.2628-20.6342-2.1358-29.5427,4.8781zm6.6616,4.122c13.466-6.2872 28.6992-.4548 33.8122,10.9207 9.0181,14.0876 10.1744,31.9872 7.3615,49.2074-3.3305,14.1944-10.1408,29.9187-24.8438,38.3496-8.4297,5.2641-18.6167,3.8035-25.0653-1.2005-13.662-13.2892-19.2598-33.3766-16.3419-53.1039 2.4936-14.7169 8.5708-30.305 21.2724-41.3358 1.2769-.933 2.5043-1.9381 3.8048-2.8375z"
       id="path69" />
  </g>
  <g
     transform="translate(0,464)"
     id="g2246">
    <path
       d="M 73.862437,-127.11111 L 24,-56"
       id="path2248"
       style="fill:none;stroke:#000000;stroke-width:16;stroke-linecap:square"
       sodipodi:nodetypes="cc" />
    <path
       d="M 58.218466,-148.43031 C 58.218466,-166.10342 72.545346,-180.43031 90.218466,-180.43031 C 107.89159,-180.43031 122.21846,-166.10342 122.21846,-148.43031 C 122.21846,-130.7572 107.89159,-116.43031 90.218466,-116.43031 C 72.545346,-116.43031 58.218466,-130.7572 58.218466,-148.43031 z "
       id="path2252"
       style="fill:#ff0000" />
    <path
       d="M 295.99998,-440 L 258.32802,-386.49735"
       id="path2254"
       style="fill:none;stroke:#000000;stroke-width:16;stroke-linecap:square"
       sodipodi:nodetypes="cc" />
    <path
       d="M 221.291,-382.73016 C 221.291,-400.40327 235.61788,-414.73016 253.291,-414.73016 C 270.96412,-414.73016 285.291,-400.40327 285.291,-382.73016 C 285.291,-365.05705 270.96412,-350.73016 253.291,-350.73016 C 235.61788,-350.73016 221.291,-365.05705 221.291,-382.73016 z "
       id="path2256"
       style="fill:#ff0000" />
    <path
       d="M 152,-286 C 152,-303.67311 166.32688,-318.00001 184,-318.00001 C 201.67312,-318.00001 216,-303.67311 216,-286 C 216,-268.32689 201.67312,-254 184,-254 C 166.32688,-254 152,-268.32689 152,-286 z "
       id="path2258"
       style="fill:#ff0000" />
  </g>
  <g
     transform="matrix(1.05597 -.34559 .34559 1.05597 -595.41949 730.90346)"
     id="g77">
    <path
       fill="url(#linearGradient3806)"
       stroke="#282828"
       stroke-linejoin="round"
       stroke-linecap="round"
       stroke-width="7.314"
       d="m722.4273-263.0675c-1.0231,1.2336-1.9762,2.4889-2.9507,3.7293 4.5768,16.0976-5.1607,41.3896 10.3306,50.5608 48.0763,24.9252 96.3153,50.4792 144.4133,75.8252 5.108-1.9364 9.9956-4.3122 14.6503-7.0791 9.8075-5.8062 18.8029-13.4765 25.8654-22.5664-63.9674-33.6985-128.0211-67.5057-192.3088-100.4697z"
       id="path79" />
    <path
       fill="url(#linearGradient3803)"
       d="m731.1412-245.8702c2.0064,8.469-1.3782,17.7527 1.6447,26.2195 47.8296,25.1984 95.919,50.069 143.7056,75.234 8.4283-3.0579 15.4071-8.8623 21.7785-15.0133-4.0476-3.8535-9.7468-5.3761-14.27-8.5701-49.6682-25.568-99.522-50.9572-149.0032-76.7817-.6801-.8823-3.2244-2.157-3.8556-1.0885z"
       id="path81" />
    <path
       fill="url(#linearGradient3824)"
       d="m24.1904,23.8434c0,.5426-.4399,.9825-.9825,.9825-.5426,0-.9825-.4399-.9825-.9825 0-.5426 .4399-.9825 .9825-.9825 .5426,0 .9825,.4399 .9825,.9825z"
       transform="matrix(6.07075 -3.80888 3.88704 6.19532 638.4245 -222.89053)"
       id="path83" />
    <path
       fill="url(#radialGradient3793)"
       stroke="#a40000"
       stroke-width="7.314"
       d="m941.4604-153.022c-13.3304,23.2718 4.0469,54.5576 38.844,69.8644 34.8067,15.3226 73.8292,8.8952 87.1981-14.3352 13.3396-23.2776-4.037-54.5419-38.8341-69.8487-34.7877-15.3127-73.8194-8.8795-87.208,14.3195zm22.1519,9.7775c5.9315-10.3148 30.0262-14.172 53.4093-3.86 23.408,10.2963 34.2795,29.5504 28.3475,39.8457-5.9051,10.3379-30.0344,14.1771-53.4175,3.8652-23.4164-10.291-34.2705-29.5362-28.3393-39.8509z"
       id="path85" />
    <path
       fill="url(#linearGradient3820)"
       stroke="url(#linearGradient3822)"
       stroke-linejoin="round"
       stroke-linecap="round"
       stroke-width=".276"
       d="m298.8672,14.7188 .4009-1.0459-1.0142-1.7125-1.2978,.3399 .644,1.0845z"
       transform="matrix(22.45455 -14.08834 14.08834 22.45455 -5954.4487 3766.6173)"
       id="path87" />
    <path
       fill="url(#linearGradient3789)"
       d="m906.4594-151.347c-1.871,2.8905-5.5163,5.2006-6.3814,8.3209 11.3329,4.9893 23.038,10.7111 34.0366,15.0168 7.0748,2.0759 14.2311,4.0243 21.5263,5.1647-.8533-11.4784-11.0617-19.4905-21.3107-22.7847-7.2302-3.2315-13.3542-9.8649-21.5046-8.9024-2.3439,.4483-4.7222,1.427-6.3661,3.1848z"
       id="path89" />
    <path
       fill="url(#linearGradient3786)"
       d="m954.1612-159.5905c-8.5262,7.3332-13.7151,17.9788-10.7935,27.3899 2.3034,19.2374 18.5452,32.5151 36.0197,39.7981 12.0556,4.0507 23.4081,10.6106 37.218,9.2337 12.7013,.0057 28.0482-1.2744 37.3815-12.2218 7.6907-8.5677 8.1547-19.6265 5.0529-28.8295-5.2346-16.6608-20.0076-27.8197-36.3715-34.4801-7.6323-3.1004-15.5784-6.4857-23.5669-8.4796-10.9125-.9539-22.7623,.0219-34.0089,2.0634-3.7381,1.392-7.8139,2.893-10.9312,5.5259zm7.4011,5.8003c10.6275-7.2444 22.9131-7.9915 33.9891-6.0518 10.1625,1.9915 19.5417,3.3256 28.1519,8.2297 13.7501,7.0919 24.0685,19.2624 28.3852,33.6805 1.8749,10.2596-6.1264,20.8705-17.204,24.7506-13.1679,6.286-26.4278,2.1535-38.9598,.1963-14.8925-3.015-28.642-12.0644-36.8641-24.2063-3.8683-6.3596-8.6316-13.3931-7.4664-21.5077 .4429-4.9675 4.4514-11.896 9.9681-15.0913z"
       id="path91" />
  </g>
</svg>
