<svg xmlns="http://www.w3.org/2000/svg" viewBox="0 0 512 512" xmlns:xlink="http://www.w3.org/1999/xlink"><defs><linearGradient id="5" y1="137.88" y2="26.744" gradientUnits="userSpaceOnUse" x2="0" xlink:href="#0"/><linearGradient gradientTransform="matrix(.9877.1254-.1391.9774-134.82 29.01)" id="7" x1="180.75" gradientUnits="userSpaceOnUse" x2="198.91"><stop style="stop-color:#fff;stop-opacity:0"/><stop offset="1" style="stop-color:#0d2d7d"/></linearGradient><linearGradient gradientTransform="matrix(.7497-.3145.4116.9811 352.55-86.82)" id="9" x1="-406.6" gradientUnits="userSpaceOnUse" x2="-390.65" xlink:href="#7"/><linearGradient gradientTransform="matrix(2.9239-1.22658 1.60528 3.82638 1381.36-332.19)" id="8" y1="-10.799" y2="3.03" gradientUnits="userSpaceOnUse" x2="0" xlink:href="#6"/><linearGradient id="6" y1="80.48" x1="71.13" y2="102.07" gradientUnits="userSpaceOnUse" x2="84.983"><stop style="stop-color:#fff"/><stop offset="1" style="stop-color:#fff;stop-opacity:0"/></linearGradient><linearGradient id="0" y1="-185.31" y2="-200.28" gradientUnits="userSpaceOnUse" x2="457.64" x1="465.38"><stop style="stop-color:#9e9e9e"/><stop offset="1" style="stop-color:#616161"/></linearGradient><linearGradient id="4" y1="62.687" x1="60.84" y2="102.87" gradientUnits="userSpaceOnUse" x2="99.16"><stop offset=".017" style="stop-color:#fff"/><stop offset="1" style="stop-color:#b3b3b3"/></linearGradient><linearGradient id="1" y1="21.364" x1="43.757" y2="11.678" gradientUnits="userSpaceOnUse" x2="40.09" xlink:href="#0"/><linearGradient id="2" y1="14.1" x1="32.608" y2="60.958" gradientUnits="userSpaceOnUse" x2="79.47"><stop offset=".034" style="stop-color:#fff"/><stop offset="1" style="stop-color:#b3b3b3"/></linearGradient><linearGradient id="3" y1="51.33" x1="46.01" y2="99.66" gradientUnits="userSpaceOnUse" x2="79.53"><stop offset=".343" style="stop-color:#fff"/><stop offset="1" style="stop-color:#b3b3b3"/></linearGradient><radialGradient cx="-476.05" cy="293.56" gradientTransform="matrix(.3283-.1377.3239.7722 124.32-231.03)" id="A" r="38.1" gradientUnits="userSpaceOnUse"><stop style="stop-color:#b8d9ff"/><stop offset="1" style="stop-color:#0d2dbb"/></radialGradient><radialGradient cx="-475.17" cy="285.73" gradientTransform="matrix(.3283-.1377.3239.7722 124.32-231.03)" id="B" r="44.2" gradientUnits="userSpaceOnUse"><stop style="stop-color:#2d58a4"/><stop offset="1" style="stop-color:#0d2d60"/></radialGradient></defs><g transform="matrix(3.90009 0 0 3.90009 6.394 6.394)"><path d="m48.832 22.706l-7.241.143-9.832-21.12 7.241-.143 9.832 21.12" style="fill:url(#1)"/><path d="m71.39 14.326c-16.33-9.111-53.955 2.89-56.843 11.561-2.892 8.671-13.768 115.15 65.52 97.31 77.07-17.341 7.66-99.75-8.673-108.87" style="fill:url(#3)"/><path d="m71.53 14.522c-14.481-7.746-47.833 2.458-50.4 9.83-2.562 7.368-12.202 97.87 58.08 82.71 68.33-14.744 6.792-84.8-7.683-92.54" style="fill:url(#4)"/><path d="m60.987 54.27c19.2-4.141 24.883-14.04 23.885-25.15-6.61-7.676-13-13.341-16.562-15.243-14.478-7.746-47.828 2.458-50.39 9.829-.159.457-.349 1.242-.54 2.305 3.965 17.742 15.16 34.401 43.608 28.26" style="fill:url(#2)"/><path d="m49.17 28.05l-.988.51-8.104-15.669.985-.51 8.107 15.669" style="fill:url(#0)"/><path d="m50.3 28.05l-.988.51-8.104-15.669.988-.51 8.104 15.669" style="fill:#fff"/><path d="m27.826 15.339c-3.818 1.481-12.865 5.436-14.44 10.163-1.427 4.278-9.03 59.21 15.756 86.61 11.862 13.12 29.08 17.245 51.19 12.274 21.769-4.9 33.962-15.345 36.23-31.04 4.62-31.905-33.818-74.09-44.578-80.1-10.931-6.098-30.556-3.195-44.16 2.084m3.134 95.14c-22.528-24.911-17.588-77.19-15.253-84.2.854-2.557 5.836-5.873 13-8.653 13.507-5.24 32.3-7.689 42.09-2.228 5.7 3.182 17.832 15.519 27.488 29.903 12.08 17.985 17.709 34.926 15.858 47.704-2.111 14.587-13.667 24.342-34.35 28.996-21.18 4.764-37.605.892-48.83-11.524" style="fill:url(#5)"/><path d="m48.552 26.288c-3.298 1.382-3.334 8.818-.082 16.573 3.253 7.756 8.584 12.941 11.88 11.557 3.301-1.384 3.337-8.819.083-16.576-3.253-7.753-8.583-12.94-11.881-11.554m11.531 27.491c-3.153 1.324-8.229-3.616-11.341-11.03-3.108-7.415-3.076-14.498.077-15.821 3.152-1.322 8.231 3.616 11.341 11.03 3.111 7.417 3.077 14.5-.077 15.821" style="fill:url(#9)"/><path d="m49.09 27.565c-2.998 1.259-3.03 8.02-.073 15.07 2.958 7.05 7.804 11.764 10.803 10.508 2.996-1.259 3.03-8.02.072-15.07-2.958-7.05-7.804-11.764-10.802-10.507" style="fill:url(#A)"/><path d="m48.819 26.926c-3.153 1.323-3.186 8.406-.077 15.821 3.111 7.416 8.188 12.356 11.341 11.03 3.154-1.321 3.188-8.403.077-15.821-3.109-7.416-8.188-12.354-11.341-11.03m10.997 26.21c-2.999 1.256-7.845-3.455-10.803-10.508-2.957-7.05-2.925-13.808.073-15.07 2.998-1.257 7.844 3.456 10.802 10.506 2.959 7.05 2.924 13.81-.072 15.07" style="fill:url(#B)"/><path d="m48.819 26.926c-3.153 1.323-3.186 8.406-.077 15.821 3.111 7.416 8.188 12.356 11.341 11.03 3.154-1.321 3.188-8.403.077-15.821-3.109-7.416-8.188-12.354-11.341-11.03m10.997 26.21c-2.999 1.256-7.845-3.455-10.803-10.508-2.957-7.05-2.925-13.808.073-15.07 2.998-1.257 7.844 3.456 10.802 10.506 2.959 7.05 2.924 13.81-.072 15.07" style="fill:url(#7)"/></g><path d="m219.18 165.58c2.18-18.424 7.976-26.801 10.776-29.855-10.909-16.638-23.728-26.06-32.507-22.375-11.872 4.98-11.833 32.07.086 60.5 1.88 4.466 3.931 8.693 6.111 12.636 4.13.078 13.299-1.942 15.534-20.908" style="fill:url(#8);stroke-width:3.9"/><path d="m101.9 57.636c.235 1.634-4.355-6.656-6.076-7.086-24.658-6.153-7.081 28.476-26.356 39.657-19.647 11.396-32.33 4.603-39.824-3.887 5.458 13.411 20.277 23.03 37.716 23.03 22.07 0 39.961-15.408 39.961-34.416-.001-6.309-1.981-12.214-5.421-17.3" transform="matrix(3.90009 0 0 3.90009 6.394 6.394)" style="fill:url(#6)"/></svg>
