<svg xmlns="http://www.w3.org/2000/svg" viewBox="4 9.989 135.467 135.467" height="512" width="512"><path d="M34.99 70.81l34.294 -55.138 h 4.899 l 34.294 55.139 v 5.193 H 34.99z" fill="#4d4d4d" stroke="#000" stroke-width=".265"/><path d="M74.183 49.367V31.059c0-3.266-4.9-3.266-4.9 0v18.308c0 3.266 4.9 3.266 4.9 0z" fill="#fff" stroke="#fff" stroke-width="2.646"/><path d="m 69.284,24.131 a 7.349,7.349 0 0 0 -4.9,6.928 v 18.308 a 7.349,7.349 0 0 0 4.9,6.928 v 8.418 A 113.284,113.284 0 0 0 34.99,70.811 V 52.439 C 34.956,33.072 49.96,17.005 69.284,15.672 Z m 39.193,28.308 V 70.81 A 113.293,113.293 0 0 0 74.183,64.712 v -8.418 a 7.349,7.349 0 0 0 4.899,-6.928 V 31.059 a 7.349,7.349 0 0 0 -4.9,-6.928 v -8.459 c 19.324002,1.333 34.328,17.4 34.295,36.767 z m -36.744,87.334 c 20.293002,0 36.744,-16.45 36.744,-36.743 V 76.004 a 108.393,108.393 0 0 0 -73.487,0 v 27.058 c 0,20.26 16.45,36.711 36.743,36.711 z" fill="#fff" stroke="#4d4d4d" stroke-width="2.646"/></svg>