<?xml version="1.0" encoding="UTF-8" standalone="no"?>
<svg
   xmlns:dc="http://purl.org/dc/elements/1.1/"
   xmlns:cc="http://creativecommons.org/ns#"
   xmlns:rdf="http://www.w3.org/1999/02/22-rdf-syntax-ns#"
   xmlns:svg="http://www.w3.org/2000/svg"
   xmlns="http://www.w3.org/2000/svg"
   xmlns:sodipodi="http://sodipodi.sourceforge.net/DTD/sodipodi-0.dtd"
   xmlns:inkscape="http://www.inkscape.org/namespaces/inkscape"
   width="512"
   height="512"
   id="svg2"
   version="1.1"
   inkscape:version="0.48.5 r10040"
   sodipodi:docname="Mouse.svg">
  <metadata
     id="metadata106">
    <rdf:RDF>
      <cc:Work
         rdf:about="">
        <dc:format>image/svg+xml</dc:format>
        <dc:type
           rdf:resource="http://purl.org/dc/dcmitype/StillImage" />
      </cc:Work>
    </rdf:RDF>
  </metadata>
  <sodipodi:namedview
     pagecolor="#ffffff"
     bordercolor="#666666"
     borderopacity="1"
     objecttolerance="10"
     gridtolerance="10"
     guidetolerance="10"
     inkscape:pageopacity="0"
     inkscape:pageshadow="2"
     inkscape:window-width="1625"
     inkscape:window-height="1183"
     id="namedview104"
     showgrid="false"
     inkscape:zoom="1.7383042"
     inkscape:cx="196.86963"
     inkscape:cy="243.17913"
     inkscape:window-x="0"
     inkscape:window-y="0"
     inkscape:window-maximized="0"
     inkscape:current-layer="svg2" />
  <defs
     id="defs4">
    <linearGradient
       gradientTransform="matrix(0.8882,-0.4595,0.4595,0.8882,435.5,-243.072)"
       id="XMLID_5_"
       y1="65.028"
       y2="48.182999"
       gradientUnits="userSpaceOnUse"
       x2="0">
      <stop
         offset="0"
         stop-color="#9e9e9e"
         id="stop7" />
      <stop
         offset="1"
         stop-color="#616161"
         id="stop9" />
    </linearGradient>
    <linearGradient
       id="XMLID_1_"
       y1="21.364"
       x1="43.757"
       y2="11.678"
       gradientUnits="userSpaceOnUse"
       x2="40.091999">
      <stop
         offset="0"
         stop-color="#9e9e9e"
         id="stop12" />
      <stop
         offset="1"
         stop-color="#616161"
         id="stop14" />
    </linearGradient>
    <linearGradient
       id="XMLID_4_"
       y1="14.095"
       x1="32.608002"
       y2="60.958"
       gradientUnits="userSpaceOnUse"
       x2="79.472">
      <stop
         offset=".034"
         stop-color="#fff"
         id="stop17" />
      <stop
         offset="1"
         stop-color="#b3b3b3"
         id="stop19" />
    </linearGradient>
    <linearGradient
       id="XMLID_2_"
       y1="51.327999"
       x1="46.009998"
       y2="99.661003"
       gradientUnits="userSpaceOnUse"
       x2="79.530998">
      <stop
         offset=".343"
         stop-color="#fff"
         id="stop22" />
      <stop
         offset="1"
         stop-color="#b3b3b3"
         id="stop24" />
    </linearGradient>
    <linearGradient
       id="XMLID_3_"
       y1="62.687"
       x1="60.84"
       y2="102.873"
       gradientUnits="userSpaceOnUse"
       x2="99.155998">
      <stop
         offset=".017"
         stop-color="#fff"
         id="stop27" />
      <stop
         offset="1"
         stop-color="#b3b3b3"
         id="stop29" />
    </linearGradient>
    <linearGradient
       id="XMLID_6_"
       y1="137.88"
       y2="26.743999"
       gradientUnits="userSpaceOnUse"
       x2="0">
      <stop
         offset="0"
         stop-color="#9e9e9e"
         id="stop32" />
      <stop
         offset="1"
         stop-color="#616161"
         id="stop34" />
    </linearGradient>
    <linearGradient
       id="XMLID_12_"
       y1="80.475998"
       x1="71.125999"
       y2="102.066"
       gradientUnits="userSpaceOnUse"
       x2="84.983002">
      <stop
         offset="0"
         stop-color="#fff"
         id="stop37" />
      <stop
         offset="1"
         stop-color="#fff"
         stop-opacity="0"
         id="stop39" />
    </linearGradient>
    <linearGradient
       gradientTransform="matrix(0.9877,0.1254,-0.1391,0.9774,-134.817,29.0061)"
       id="XMLID_10_"
       x1="180.75101"
       gradientUnits="userSpaceOnUse"
       x2="198.91">
      <stop
         offset="0"
         stop-color="#fff"
         stop-opacity="0"
         id="stop42" />
      <stop
         offset="1"
         stop-color="#0d2d7d"
         id="stop44" />
    </linearGradient>
    <linearGradient
       gradientTransform="matrix(0.7497,-0.3145,0.4116,0.9811,352.546,-86.8152)"
       id="XMLID_11_"
       y1="-10.799"
       y2="3.026"
       gradientUnits="userSpaceOnUse"
       x2="0">
      <stop
         offset="0"
         stop-color="#fff"
         id="stop47" />
      <stop
         offset="1"
         stop-color="#fff"
         stop-opacity="0"
         id="stop49" />
    </linearGradient>
    <linearGradient
       gradientTransform="matrix(0.7497,-0.3145,0.4116,0.9811,352.546,-86.8152)"
       id="XMLID_7_"
       x1="-406.603"
       gradientUnits="userSpaceOnUse"
       x2="-390.646">
      <stop
         offset="0"
         stop-color="#fff"
         stop-opacity="0"
         id="stop52" />
      <stop
         offset="1"
         stop-color="#0d2d7d"
         id="stop54" />
    </linearGradient>
    <radialGradient
       cx="-476.04999"
       cy="293.565"
       gradientTransform="matrix(0.3283,-0.1377,0.3239,0.7722,124.323,-231.029)"
       id="XMLID_8_"
       r="38.104"
       gradientUnits="userSpaceOnUse">
      <stop
         offset="0"
         stop-color="#b8d9ff"
         id="stop57" />
      <stop
         offset="1"
         stop-color="#0d2dbb"
         id="stop59" />
    </radialGradient>
    <radialGradient
       cx="-475.17099"
       cy="285.72699"
       gradientTransform="matrix(0.3283,-0.1377,0.3239,0.7722,124.323,-231.029)"
       id="XMLID_9_"
       r="44.195999"
       gradientUnits="userSpaceOnUse">
      <stop
         offset="0"
         stop-color="#2d58a4"
         id="stop62" />
      <stop
         offset="1"
         stop-color="#0d2d60"
         id="stop64" />
    </radialGradient>
  </defs>
  <g
     transform="matrix(3.9000907,0,0,3.9000907,6.3941952,6.3941952)"
     id="g66">
    <path
       d="M 48.832,22.706 41.591,22.849 31.759,1.727 39,1.584 48.832,22.706 z"
       id="path68"
       inkscape:connector-curvature="0"
       style="fill:url(#XMLID_1_)" />
    <path
       d="M 71.392,14.326 C 55.062,5.215 17.437,17.216 14.549,25.887 11.657,34.558 0.781,141.032 80.065,123.194 157.138,105.853 87.725,23.439 71.392,14.326 z"
       id="path70"
       inkscape:connector-curvature="0"
       style="fill:url(#XMLID_2_)" />
    <path
       d="M 71.525,14.522 C 57.044,6.776 23.692,16.98 21.13,24.352 18.568,31.72 8.928,122.221 79.208,107.064 147.536,92.32 86,22.267 71.525,14.522 z"
       id="path72"
       inkscape:connector-curvature="0"
       style="fill:url(#XMLID_3_)" />
    <path
       d="M 60.987,54.27 C 80.185,50.129 85.87,40.235 84.872,29.116 78.262,21.44 71.867,15.775 68.31,13.873 53.832,6.127 20.482,16.331 17.919,23.702 c -0.159,0.457 -0.349,1.242 -0.54,2.305 3.965,17.742 15.165,34.401 43.608,28.263 z"
       id="path74"
       inkscape:connector-curvature="0"
       style="fill:url(#XMLID_4_)" />
    <path
       d="m 49.174,28.05 -0.988,0.51 -8.104,-15.669 0.985,-0.51 8.107,15.669 z"
       id="path76"
       inkscape:connector-curvature="0"
       style="fill:url(#XMLID_5_)" />
    <path
       d="m 50.298,28.05 -0.988,0.51 -8.104,-15.669 0.988,-0.51 8.104,15.669 z"
       id="path78"
       inkscape:connector-curvature="0"
       style="fill:#ffffff" />
    <path
       d="m 27.826,15.339 c -3.818,1.481 -12.865,5.436 -14.44,10.163 -1.427,4.278 -9.03,59.207 15.756,86.615 11.862,13.117 29.084,17.245 51.19,12.274 21.769,-4.9 33.962,-15.345 36.234,-31.036 C 121.186,61.45 82.748,19.26 71.988,13.255 61.057,7.157 41.432,10.06 27.826,15.339 z m 3.134,95.136 C 8.432,85.564 13.372,33.29 15.707,26.277 c 0.854,-2.557 5.836,-5.873 13.002,-8.653 13.507,-5.24 32.299,-7.689 42.086,-2.228 5.7,3.182 17.832,15.519 27.488,29.903 12.077,17.985 17.709,34.926 15.858,47.704 -2.111,14.587 -13.667,24.342 -34.351,28.996 -21.176,4.764 -37.605,0.892 -48.83,-11.524 z"
       id="path80"
       inkscape:connector-curvature="0"
       style="fill:url(#XMLID_6_)" />
  </g>
  <g
     transform="matrix(3.9000907,0,0,3.9000907,6.3941952,6.3941952)"
     id="g82">
    <path
       d="m 48.552,26.288 c -3.298,1.382 -3.334,8.818 -0.082,16.573 3.253,7.756 8.584,12.941 11.88,11.557 3.301,-1.384 3.337,-8.819 0.083,-16.576 C 57.18,30.089 51.85,24.902 48.552,26.288 z M 60.083,53.779 C 56.93,55.103 51.854,50.163 48.742,42.747 45.634,35.332 45.666,28.249 48.819,26.926 c 3.152,-1.322 8.231,3.616 11.341,11.032 3.111,7.417 3.077,14.5 -0.077,15.821 z"
       id="path84"
       inkscape:connector-curvature="0"
       style="fill:url(#XMLID_7_)" />
    <path
       d="m 49.087,27.565 c -2.998,1.259 -3.03,8.019 -0.073,15.067 2.958,7.053 7.804,11.764 10.803,10.508 2.996,-1.259 3.03,-8.016 0.072,-15.068 C 56.931,31.021 52.085,26.308 49.087,27.565 z"
       id="path86"
       inkscape:connector-curvature="0"
       style="fill:url(#XMLID_8_)" />
    <path
       d="m 48.819,26.926 c -3.153,1.323 -3.186,8.406 -0.077,15.821 3.111,7.416 8.188,12.356 11.341,11.032 3.154,-1.321 3.188,-8.403 0.077,-15.821 C 57.051,30.542 51.972,25.604 48.819,26.926 z M 59.816,53.14 c -2.999,1.256 -7.845,-3.455 -10.803,-10.508 -2.957,-7.048 -2.925,-13.808 0.073,-15.067 2.998,-1.257 7.844,3.456 10.802,10.506 2.959,7.054 2.924,13.81 -0.072,15.069 z"
       id="path88"
       inkscape:connector-curvature="0"
       style="fill:url(#XMLID_9_)" />
    <path
       d="m 48.819,26.926 c -3.153,1.323 -3.186,8.406 -0.077,15.821 3.111,7.416 8.188,12.356 11.341,11.032 3.154,-1.321 3.188,-8.403 0.077,-15.821 C 57.051,30.542 51.972,25.604 48.819,26.926 z M 59.816,53.14 c -2.999,1.256 -7.845,-3.455 -10.803,-10.508 -2.957,-7.048 -2.925,-13.808 0.073,-15.067 2.998,-1.257 7.844,3.456 10.802,10.506 2.959,7.054 2.924,13.81 -0.072,15.069 z"
       id="path90"
       inkscape:connector-curvature="0"
       style="fill:url(#XMLID_10_)" />
  </g>
  <g
     transform="matrix(3.9000907,0,0,3.9000907,6.3941952,6.3941952)"
     id="g92">
    <path
       a:adobe-blending-mode="screen"
       d="m 54.56,40.817 c 0.559,-4.724 2.045,-6.872 2.763,-7.655 -2.797,-4.266 -6.084,-6.681 -8.335,-5.737 -3.044,1.277 -3.034,8.224 0.022,15.513 0.482,1.145 1.008,2.229 1.567,3.24 1.059,0.02 3.41,-0.498 3.983,-5.361 z"
       id="path94"
       inkscape:connector-curvature="0"
       style="fill:url(#XMLID_11_)" />
  </g>
  <g
     transform="matrix(3.9000907,0,0,3.9000907,6.3941952,6.3941952)"
     id="g96">
    <path
       a:adobe-blending-mode="screen"
       d="M 101.899,57.636 C 102.134,59.27 97.544,50.98 95.823,50.55 71.165,44.397 88.742,79.026 69.467,90.207 49.82,101.603 37.139,94.81 29.643,86.32 c 5.458,13.411 20.277,23.032 37.716,23.032 22.071,0 39.961,-15.408 39.961,-34.416 -10e-4,-6.309 -1.981,-12.214 -5.421,-17.3 z"
       id="path98"
       inkscape:connector-curvature="0"
       style="fill:url(#XMLID_12_)" />
  </g>
  <g
     transform="matrix(3.9000907,0,0,3.9000907,6.3941952,6.3941952)"
     id="g100">
    <path
       d="M 128,128 H 0 V 0 h 128 v 128 z"
       id="path102"
       inkscape:connector-curvature="0"
       style="fill:none" />
  </g>
</svg>
