<svg xmlns="http://www.w3.org/2000/svg" viewBox="4 9.989 135.467 135.467" height="512" width="512"><path d="M34.99 70.81l34.294-55.138h4.899l34.294 55.139v5.193H34.99z" fill="#4d4d4d" stroke="#000" stroke-width=".265"/><path d="M74.183 49.367V31.059c0-3.266-4.9-3.266-4.9 0v18.308c0 3.266 4.9 3.266 4.9 0z" fill="#fff" stroke="#fff" stroke-width="2.646"/><path d="M69.284 24.131a7.349 7.349 0 00-4.9 6.928v18.308a7.349 7.349 0 004.9 6.928v8.418a113.284 113.284 0 00-34.294 6.098V52.439c-.034-19.367 14.97-35.434 34.294-36.767zM108.477 52.439V70.81a113.293 113.293 0 00-34.294-6.098v-8.418a7.349 7.349 0 004.899-6.928V31.059a7.349 7.349 0 00-4.9-6.928v-8.459c19.324 1.333 34.328 17.4 34.295 36.767zM71.733 139.773c20.293 0 36.744-16.45 36.744-36.743V76.004a108.393 108.393 0 00-73.487 0v27.058c0 20.26 16.45 36.711 36.743 36.711z" fill="#fff" stroke="#4d4d4d" stroke-width="2.646"/></svg>