<svg width="48" xmlns="http://www.w3.org/2000/svg" height="48">
<defs>
<linearGradient gradientTransform="matrix(.8882 -.4595 .4595 .8882 435.5 -243.072)" id="XMLID_5_" y1="65.028" y2="48.183" gradientUnits="userSpaceOnUse" x2="0">
<stop offset="0" stop-color="#9e9e9e"/>
<stop offset="1" stop-color="#616161"/>
</linearGradient>
<linearGradient id="XMLID_1_" y1="21.364" x1="43.757" y2="11.678" gradientUnits="userSpaceOnUse" x2="40.092">
<stop offset="0" stop-color="#9e9e9e"/>
<stop offset="1" stop-color="#616161"/>
</linearGradient>
<linearGradient id="XMLID_4_" y1="14.095" x1="32.608" y2="60.958" gradientUnits="userSpaceOnUse" x2="79.472">
<stop offset=".034" stop-color="#fff"/>
<stop offset="1" stop-color="#b3b3b3"/>
</linearGradient>
<linearGradient id="XMLID_2_" y1="51.328" x1="46.01" y2="99.661" gradientUnits="userSpaceOnUse" x2="79.531">
<stop offset=".343" stop-color="#fff"/>
<stop offset="1" stop-color="#b3b3b3"/>
</linearGradient>
<linearGradient id="XMLID_3_" y1="62.687" x1="60.84" y2="102.873" gradientUnits="userSpaceOnUse" x2="99.156">
<stop offset=".017" stop-color="#fff"/>
<stop offset="1" stop-color="#b3b3b3"/>
</linearGradient>
<linearGradient id="XMLID_6_" y1="137.88" y2="26.744" gradientUnits="userSpaceOnUse" x2="0">
<stop offset="0" stop-color="#9e9e9e"/>
<stop offset="1" stop-color="#616161"/>
</linearGradient>
<linearGradient id="XMLID_12_" y1="80.476" x1="71.126" y2="102.066" gradientUnits="userSpaceOnUse" x2="84.983">
<stop offset="0" stop-color="#fff"/>
<stop offset="1" stop-color="#fff" stop-opacity="0"/>
</linearGradient>
<linearGradient gradientTransform="matrix(.9877 .1254 -.1391 .9774 -134.817 29.0061)" id="XMLID_10_" x1="180.751" gradientUnits="userSpaceOnUse" x2="198.91">
<stop offset="0" stop-color="#fff" stop-opacity="0"/>
<stop offset="1" stop-color="#0d2d7d"/>
</linearGradient>
<linearGradient gradientTransform="matrix(.7497 -.3145 .4116 .9811 352.546 -86.8152)" id="XMLID_11_" y1="-10.799" y2="3.026" gradientUnits="userSpaceOnUse" x2="0">
<stop offset="0" stop-color="#fff"/>
<stop offset="1" stop-color="#fff" stop-opacity="0"/>
</linearGradient>
<linearGradient gradientTransform="matrix(.7497 -.3145 .4116 .9811 352.546 -86.8152)" id="XMLID_7_" x1="-406.603" gradientUnits="userSpaceOnUse" x2="-390.646">
<stop offset="0" stop-color="#fff" stop-opacity="0"/>
<stop offset="1" stop-color="#0d2d7d"/>
</linearGradient>
<radialGradient cx="-476.05" cy="293.565" gradientTransform="matrix(.3283 -.1377 .3239 .7722 124.323 -231.029)" id="XMLID_8_" r="38.104" gradientUnits="userSpaceOnUse">
<stop offset="0" stop-color="#b8d9ff"/>
<stop offset="1" stop-color="#0d2dbb"/>
</radialGradient>
<radialGradient cx="-475.171" cy="285.727" gradientTransform="matrix(.3283 -.1377 .3239 .7722 124.323 -231.029)" id="XMLID_9_" r="44.196" gradientUnits="userSpaceOnUse">
<stop offset="0" stop-color="#2d58a4"/>
<stop offset="1" stop-color="#0d2d60"/>
</radialGradient>
</defs>
<g transform="matrix(.35407 0 0 .35407 1.33928 1.33928)">
<path fill="url(#XMLID_1_)" d="m48.832,22.706l-7.241,.143-9.832-21.122 7.241-.143 9.832,21.122z"/>
<path fill="url(#XMLID_2_)" d="m71.392,14.326c-16.33-9.111-53.955,2.89-56.843,11.561-2.892,8.671-13.768,115.145 65.516,97.307 77.073-17.341 7.66-99.755-8.673-108.868z"/>
<path fill="url(#XMLID_3_)" d="m71.525,14.522c-14.481-7.746-47.833,2.458-50.395,9.83-2.562,7.368-12.202,97.869 58.078,82.712 68.328-14.744 6.792-84.797-7.683-92.542z"/>
<path fill="url(#XMLID_4_)" d="m60.987,54.27c19.198-4.141 24.883-14.035 23.885-25.154-6.61-7.676-13.005-13.341-16.562-15.243-14.478-7.746-47.828,2.458-50.391,9.829-.159,.457-.349,1.242-.54,2.305 3.965,17.742 15.165,34.401 43.608,28.263z"/>
<path fill="url(#XMLID_5_)" d="m49.174,28.05l-.988,.51-8.104-15.669 .985-.51 8.107,15.669z"/>
<path fill="#fff" d="m50.298,28.05l-.988,.51-8.104-15.669 .988-.51 8.104,15.669z"/>
<path fill="url(#XMLID_6_)" d="m27.826,15.339c-3.818,1.481-12.865,5.436-14.44,10.163-1.427,4.278-9.03,59.207 15.756,86.615 11.862,13.117 29.084,17.245 51.19,12.274 21.769-4.9 33.962-15.345 36.234-31.036 4.62-31.905-33.818-74.095-44.578-80.1-10.931-6.098-30.556-3.195-44.162,2.084zm3.134,95.136c-22.528-24.911-17.588-77.185-15.253-84.198 .854-2.557 5.836-5.873 13.002-8.653 13.507-5.24 32.299-7.689 42.086-2.228 5.7,3.182 17.832,15.519 27.488,29.903 12.077,17.985 17.709,34.926 15.858,47.704-2.111,14.587-13.667,24.342-34.351,28.996-21.176,4.764-37.605,.892-48.83-11.524z"/>
</g>
<g transform="matrix(.35407 0 0 .35407 1.33928 1.33928)">
<path fill="url(#XMLID_7_)" d="m48.552,26.288c-3.298,1.382-3.334,8.818-.082,16.573 3.253,7.756 8.584,12.941 11.88,11.557 3.301-1.384 3.337-8.819 .083-16.576-3.253-7.753-8.583-12.94-11.881-11.554zm11.531,27.491c-3.153,1.324-8.229-3.616-11.341-11.032-3.108-7.415-3.076-14.498 .077-15.821 3.152-1.322 8.231,3.616 11.341,11.032 3.111,7.417 3.077,14.5-.077,15.821z"/>
<path fill="url(#XMLID_8_)" d="m49.087,27.565c-2.998,1.259-3.03,8.019-.073,15.067 2.958,7.053 7.804,11.764 10.803,10.508 2.996-1.259 3.03-8.016 .072-15.068-2.958-7.051-7.804-11.764-10.802-10.507z"/>
<path fill="url(#XMLID_9_)" d="m48.819,26.926c-3.153,1.323-3.186,8.406-.077,15.821 3.111,7.416 8.188,12.356 11.341,11.032 3.154-1.321 3.188-8.403 .077-15.821-3.109-7.416-8.188-12.354-11.341-11.032zm10.997,26.214c-2.999,1.256-7.845-3.455-10.803-10.508-2.957-7.048-2.925-13.808 .073-15.067 2.998-1.257 7.844,3.456 10.802,10.506 2.959,7.054 2.924,13.81-.072,15.069z"/>
<path fill="url(#XMLID_10_)" d="m48.819,26.926c-3.153,1.323-3.186,8.406-.077,15.821 3.111,7.416 8.188,12.356 11.341,11.032 3.154-1.321 3.188-8.403 .077-15.821-3.109-7.416-8.188-12.354-11.341-11.032zm10.997,26.214c-2.999,1.256-7.845-3.455-10.803-10.508-2.957-7.048-2.925-13.808 .073-15.067 2.998-1.257 7.844,3.456 10.802,10.506 2.959,7.054 2.924,13.81-.072,15.069z"/>
</g>
<g transform="matrix(.35407 0 0 .35407 1.33928 1.33928)">
<path fill="url(#XMLID_11_)" a:adobe-blending-mode="screen" d="m54.56,40.817c.559-4.724 2.045-6.872 2.763-7.655-2.797-4.266-6.084-6.681-8.335-5.737-3.044,1.277-3.034,8.224 .022,15.513 .482,1.145 1.008,2.229 1.567,3.24 1.059,.02 3.41-.498 3.983-5.361z"/>
</g>
<g transform="matrix(.35407 0 0 .35407 1.33928 1.33928)">
<path fill="url(#XMLID_12_)" a:adobe-blending-mode="screen" d="m101.899,57.636c.235,1.634-4.355-6.656-6.076-7.086-24.658-6.153-7.081,28.476-26.356,39.657-19.647,11.396-32.328,4.603-39.824-3.887 5.458,13.411 20.277,23.032 37.716,23.032 22.071,0 39.961-15.408 39.961-34.416-.001-6.309-1.981-12.214-5.421-17.3z"/>
</g>
<g transform="matrix(.35407 0 0 .35407 1.33928 1.33928)">
<path fill="none" d="m128,128h-128v-128h128v128z"/>
</g>
</svg>
