<svg enable-background="new 0 0 512 512" viewBox="0 0 512 512" xmlns="http://www.w3.org/2000/svg"><path d="m197.2 13.3c-59.4 0-107.2 47.8-107.2 107.2v58.5c20.4 4.5 44.5 18 64.3 30.8 22.8 14.7 51.1 29 93.4 30.4v-78.3c-8.7-3.4-12.3-12.2-15.2-19.3-3.6-10.7-5.5-25.1-5.5-41s1.9-30.5 5.5-41.2c2.8-9.2 7.8-15.2 15.2-19.5v-27.6zm63.1 0v27.6c8.1 3.4 12.2 12.3 15.2 19.5 3.6 10.7 5.5 25.3 5.5 41.2s-1.9 30.3-5.5 41c-2.8 9.2-7.7 15.2-15.2 19.3v78.3c42.5-1.2 70.7-15.6 93.6-30.4 19.7-12.7 43.7-26.3 64.1-30.8v-58.5c0-59.4-47.8-107.2-107.2-107.2h-50.5zm-6.3 38c-12.6-.3-10.8 35.2-10.8 50.3.7 18-1.8 50.4 10.8 50.3 12.6.1 10.8-35.2 10.8-50.3-.6-18 1.8-50.5-10.8-50.3zm-164 140.8v92.5c0 113.6 82 208.2 164.4 208.2 81.6 0 163.6-94.6 163.6-208.2v-92.5c-16.1 4.5-38 15.8-57.2 28.2-24.8 16-57.8 32.7-106.4 32.7-48.9 0-82.1-16.7-107-32.7-19.3-12.5-41.3-23.7-57.4-28.2z" fill="#777"/></svg>