<svg width="512" xmlns="http://www.w3.org/2000/svg" height="512" xmlns:xlink="http://www.w3.org/1999/xlink">
<defs>
<clipPath clipPathUnits="userSpaceOnUse">
<path fill="none" stroke="#0f0" color="#000" stroke-width="2.399" d="m-1232.6874,355.1505c29.2402,0 52.96,23.6823 52.96,52.9226 0,29.2402-23.7198,52.9599-52.96,52.9599-29.2403,0-52.96-23.7197-52.96-52.9599 0-29.2403 23.7197-52.9226 52.96-52.9226z"/>
</clipPath>
<clipPath clipPathUnits="userSpaceOnUse">
<path fill="none" stroke="#0f0" color="#000" stroke-width="2.399" d="m-1232.6874,355.1505c29.2402,0 52.96,23.6823 52.96,52.9226 0,29.2402-23.7198,52.9599-52.96,52.9599-29.2403,0-52.96-23.7197-52.96-52.9599 0-29.2403 23.7197-52.9226 52.96-52.9226z"/>
</clipPath>
<clipPath clipPathUnits="userSpaceOnUse">
<path fill="#0f0" stroke="#0f0" color="#000" stroke-width="2.033" d="m141.1284,537.5701c-33.6977-14.7314-74.1905-1.9343-90.4551,28.587-16.2646,30.5213-2.1355,67.1971 31.5621,81.9285 33.6977,14.7314 74.1905,1.9343 90.4551-28.587 16.2646-30.5213 2.1355-67.1971-31.5621-81.9285zm-8.9572,16.8087c23.4461,10.2498 33.3001,35.7639 21.9836,56.9999-11.3165,21.236-39.516,30.148-62.962,19.8982-23.4461-10.2498-33.2856-35.7911-21.9691-57.0271 11.3165-21.236 39.5015-30.1208 62.9476-19.871zm8.9572-16.8087c-33.6977-14.7314-74.1905-1.9343-90.4551,28.587-16.2646,30.5213-2.1355,67.1971 31.5621,81.9285 33.6977,14.7314 74.1905,1.9343 90.4551-28.587 16.2646-30.5213 2.1355-67.1971-31.5621-81.9285zm-8.9645,16.8223c23.4461,10.2498 33.3001,35.7639 21.9836,56.9999-11.3165,21.236-39.516,30.1481-62.9621,19.8983-23.4461-10.2498-33.2856-35.7912-21.9691-57.0272 11.3165-21.236 39.5015-30.1208 62.9476-19.871z"/>
</clipPath>
<clipPath clipPathUnits="userSpaceOnUse">
<path fill="#0f0" stroke="#0f0" color="#000" stroke-width="2.033" d="m141.1284,537.5701c-33.6977-14.7314-74.1905-1.9343-90.4551,28.587-16.2646,30.5213-2.1355,67.1971 31.5621,81.9285 33.6977,14.7314 74.1905,1.9343 90.4551-28.587 16.2646-30.5213 2.1355-67.1971-31.5621-81.9285zm-8.9572,16.8087c23.4461,10.2498 33.3001,35.7639 21.9836,56.9999-11.3165,21.236-39.516,30.148-62.962,19.8982-23.4461-10.2498-33.2856-35.7911-21.9691-57.0271 11.3165-21.236 39.5015-30.1208 62.9476-19.871zm8.9572-16.8087c-33.6977-14.7314-74.1905-1.9343-90.4551,28.587-16.2646,30.5213-2.1355,67.1971 31.5621,81.9285 33.6977,14.7314 74.1905,1.9343 90.4551-28.587 16.2646-30.5213 2.1355-67.1971-31.5621-81.9285zm-8.9645,16.8223c23.4461,10.2498 33.3001,35.7639 21.9836,56.9999-11.3165,21.236-39.516,30.1481-62.9621,19.8983-23.4461-10.2498-33.2856-35.7912-21.9691-57.0272 11.3165-21.236 39.5015-30.1208 62.9476-19.871z"/>
</clipPath>
<clipPath clipPathUnits="userSpaceOnUse">
<path fill="#0f0" stroke="#0f0" color="#000" stroke-width="2.033" d="m141.1284,537.5701c-33.6977-14.7314-74.1905-1.9343-90.4551,28.587-16.2646,30.5213-2.1355,67.1971 31.5621,81.9285 33.6977,14.7314 74.1905,1.9343 90.4551-28.587 16.2646-30.5213 2.1355-67.1971-31.5621-81.9285zm-8.9572,16.8087c23.4461,10.2498 33.3001,35.7639 21.9836,56.9999-11.3165,21.236-39.516,30.148-62.962,19.8982-23.4461-10.2498-33.2856-35.7911-21.9691-57.0271 11.3165-21.236 39.5015-30.1208 62.9476-19.871zm8.9572-16.8087c-33.6977-14.7314-74.1905-1.9343-90.4551,28.587-16.2646,30.5213-2.1355,67.1971 31.5621,81.9285 33.6977,14.7314 74.1905,1.9343 90.4551-28.587 16.2646-30.5213 2.1355-67.1971-31.5621-81.9285zm-8.9645,16.8223c23.4461,10.2498 33.3001,35.7639 21.9836,56.9999-11.3165,21.236-39.516,30.1481-62.9621,19.8983-23.4461-10.2498-33.2856-35.7912-21.9691-57.0272 11.3165-21.236 39.5015-30.1208 62.9476-19.871z"/>
</clipPath>
<clipPath clipPathUnits="userSpaceOnUse">
<path fill="#0f0" stroke="#0f0" color="#000" stroke-width="2.033" d="m141.1284,537.5701c-33.6977-14.7314-74.1905-1.9343-90.4551,28.587-16.2646,30.5213-2.1355,67.1971 31.5621,81.9285 33.6977,14.7314 74.1905,1.9343 90.4551-28.587 16.2646-30.5213 2.1355-67.1971-31.5621-81.9285zm-8.9572,16.8087c23.4461,10.2498 33.3001,35.7639 21.9836,56.9999-11.3165,21.236-39.516,30.148-62.962,19.8982-23.4461-10.2498-33.2856-35.7911-21.9691-57.0271 11.3165-21.236 39.5015-30.1208 62.9476-19.871zm8.9572-16.8087c-33.6977-14.7314-74.1905-1.9343-90.4551,28.587-16.2646,30.5213-2.1355,67.1971 31.5621,81.9285 33.6977,14.7314 74.1905,1.9343 90.4551-28.587 16.2646-30.5213 2.1355-67.1971-31.5621-81.9285zm-8.9645,16.8223c23.4461,10.2498 33.3001,35.7639 21.9836,56.9999-11.3165,21.236-39.516,30.1481-62.9621,19.8983-23.4461-10.2498-33.2856-35.7912-21.9691-57.0272 11.3165-21.236 39.5015-30.1208 62.9476-19.871z"/>
</clipPath>
<clipPath clipPathUnits="userSpaceOnUse">
<path fill="none" stroke="#0f0" color="#000" stroke-width="2.399" d="m-1232.6874,355.1505c29.2402,0 52.96,23.6823 52.96,52.9226 0,29.2402-23.7198,52.9599-52.96,52.9599-29.2403,0-52.96-23.7197-52.96-52.9599 0-29.2403 23.7197-52.9226 52.96-52.9226z"/>
</clipPath>
<clipPath clipPathUnits="userSpaceOnUse">
<path fill="none" stroke="#0f0" color="#000" stroke-width="2.399" d="m-1232.6874,355.1505c29.2402,0 52.96,23.6823 52.96,52.9226 0,29.2402-23.7198,52.9599-52.96,52.9599-29.2403,0-52.96-23.7197-52.96-52.9599 0-29.2403 23.7197-52.9226 52.96-52.9226z"/>
</clipPath>
</defs>
<g transform="translate(0 -540.3622)">
<g stroke="#000" stroke-linecap="square" stroke-width="8" stroke-dashoffset="354.331">
<path fill="#fff" d="m40.0271,644.362h431.9459a.0271,.0097 0 0,1 .027,.01v367.978a.0271,.0097 0 0,1 -.027,.01h-431.9459a.0271,.0097 0 0,1 -.0271-.01v-367.978a.0271,.0097 0 0,1 .0271-.01"/>
<path d="m40.0271,40h431.9459a.0271,.0114 0 0,1 .027,.0114v63.9776a.0271,.0114 0 0,1 -.027,.011h-431.9459a.0271,.0114 0 0,1 -.0271-.011v-63.9776a.0271,.0114 0 0,1 .0271-.0114" transform="translate(0 540.3622)"/>
<path fill="#fff" d="m40.004,580.362h63.992a.004,.0017 0 0,1 .004,.002v63.996a.004,.0017 0 0,1 -.004,.002h-63.992a.004,.0017 0 0,1 -.004-.002v-63.996a.004,.0017 0 0,1 .004-.002"/>
</g>
<g font-family="Al-seana" word-spacing="0" line-height="125%" letter-spacing="0" font-size="40px">
<text x="72" y="996.362" xml:space="preserve"><tspan x="72" y="996.362" font-family="Arial" font-size="56px">c:</tspan>
</text>
<text x="184" y="996.362" xml:space="preserve"><tspan x="184" y="996.362" font-family="Arial" font-size="56px">command</tspan>
</text>
</g>
<path fill="#fdffff" stroke="#000" stroke-linecap="square" stroke-width="8" d="m40.0271,644.362h431.9459a.0271,.0097 0 0,1 .027,.01v287.98a.0271,.0097 0 0,1 -.027,.01h-431.9459a.0271,.0097 0 0,1 -.0271-.01v-287.98a.0271,.0097 0 0,1 .0271-.01" stroke-dashoffset="354.331"/>
<g font-family="Al-seana" word-spacing="0" line-height="125%" letter-spacing="0" font-size="40px">
<text x="72" y="777.696" xml:space="preserve"><tspan x="72" y="777.696" font-family="Arial" font-size="32px">Command: line</tspan>
</text>
<text x="72" y="724.362" xml:space="preserve"><tspan x="72" y="724.362" font-family="Arial" font-size="32px">Command: new</tspan>
</text>
<text x="72" y="884.362" xml:space="preserve"><tspan x="72" y="884.362" font-family="Arial" font-size="32px">Coordinate: 50,100</tspan><tspan x="72" y="924.362" font-family="Arial" font-size="32px"/>
</text>
<text x="72" y="831.029" xml:space="preserve"><tspan x="72" y="831.029" font-family="Arial" font-size="32px">Coordinate: 10,40</tspan>
</text>
</g>
</g>
</svg>
