<svg xmlns="http://www.w3.org/2000/svg" viewBox="0 0 512 512" xmlns:xlink="http://www.w3.org/1999/xlink">
<defs/>
<g stroke="#000" transform="matrix(.67503 0 0 .67503 81.55131 76.62822)">
<path fill="none" stroke-linejoin="round" stroke-linecap="round" stroke-width="23.703" d="m-49.6263,52.4003h616.1143a.0771,.0353 0 0,1 .077,.0353v426.5774a.0771,.0353 0 0,1 -.077,.035h-616.1143a.0771,.0353 0 0,1 -.0771-.035v-426.5774a.0771,.0353 0 0,1 .0771-.0353"/>
<g stroke-width="16">
<path stroke-linejoin="round" stroke-linecap="round" d="m47.0771,115h416.8459a.0771,.0353 0 0,1 .077,.035v76.93a.0771,.0353 0 0,1 -.077,.035h-416.8459a.0771,.0353 0 0,1 -.0771-.035v-76.93a.0771,.0353 0 0,1 .0771-.035" transform="matrix(1.48142 0 0 1.48142 -120.8114 -113.51825)"/>
<path fill="#fff" d="m384,112h80v80h-80z" transform="matrix(1.48142 0 0 1.48142 -120.8114 -113.51825)"/>
</g>
</g>
</svg>
