<svg width="512" xmlns="http://www.w3.org/2000/svg" height="512">
<defs/>
<g transform="translate(0 464)">
<g fill="none" stroke-linecap="round">
<ellipse cx="190" cy="43" rx="15" ry="15" stroke="#f00" stroke-width="2.308" d="m 205,43 c 0,8.284271 -6.71573,15 -15,15 -8.28427,0 -15,-6.715729 -15,-15 0,-8.284271 6.71573,-15 15,-15 8.28427,0 15,6.715729 15,15 z" transform="matrix(6.93333 0 0 6.93333 -1061.3333 -506.13333)"/>
<ellipse cx="190" cy="43" rx="20" ry="20" stroke="#000" stroke-width="1.6" d="m 210,43 c 0,11.045695 -8.95431,20 -20,20 -11.04569,0 -20,-8.954305 -20,-20 0,-11.045695 8.95431,-20 20,-20 11.04569,0 20,8.954305 20,20 z" transform="matrix(10 0 0 10 -1644 -638)"/>
</g>
<path fill="#f00" d="m16.5,4.5a1,1 0 1,1 -2,0 1,1 0 1,1 2,0z" transform="matrix(-32 0 0 -32 648 -232)"/>
</g>
</svg>
