<?xml version="1.0" encoding="UTF-8" standalone="no"?>
<svg
   xmlns:dc="http://purl.org/dc/elements/1.1/"
   xmlns:cc="http://creativecommons.org/ns#"
   xmlns:rdf="http://www.w3.org/1999/02/22-rdf-syntax-ns#"
   xmlns:svg="http://www.w3.org/2000/svg"
   xmlns="http://www.w3.org/2000/svg"
   xmlns:xlink="http://www.w3.org/1999/xlink"
   xmlns:sodipodi="http://sodipodi.sourceforge.net/DTD/sodipodi-0.dtd"
   xmlns:inkscape="http://www.inkscape.org/namespaces/inkscape"
   width="512"
   height="512"
   id="svg2"
   version="1.1"
   inkscape:version="0.48.2 r9819"
   sodipodi:docname="View.svg">
  <metadata
     id="metadata173">
    <rdf:RDF>
      <cc:Work
         rdf:about="">
        <dc:format>image/svg+xml</dc:format>
        <dc:type
           rdf:resource="http://purl.org/dc/dcmitype/StillImage" />
      </cc:Work>
    </rdf:RDF>
  </metadata>
  <sodipodi:namedview
     pagecolor="#ffffff"
     bordercolor="#666666"
     borderopacity="1"
     objecttolerance="10"
     gridtolerance="10"
     guidetolerance="10"
     inkscape:pageopacity="0"
     inkscape:pageshadow="2"
     inkscape:window-width="2090"
     inkscape:window-height="1195"
     id="namedview171"
     showgrid="false"
     inkscape:zoom="1.3037281"
     inkscape:cx="159.7376"
     inkscape:cy="256"
     inkscape:window-x="0"
     inkscape:window-y="0"
     inkscape:window-maximized="0"
     inkscape:current-layer="svg2" />
  <defs
     id="defs4">
    <linearGradient
       id="linearGradient148">
      <stop
         offset="0"
         stop-color="#fff"
         stop-opacity=".134"
         id="stop7" />
      <stop
         offset="1"
         stop-color="#fff"
         stop-opacity=".052"
         id="stop9" />
    </linearGradient>
    <linearGradient
       id="linearGradient335">
      <stop
         offset="0"
         stop-color="#fff"
         id="stop12" />
      <stop
         offset="1"
         stop-color="#fff"
         stop-opacity="0"
         id="stop14" />
    </linearGradient>
    <linearGradient
       id="linearGradient13842">
      <stop
         offset="0"
         id="stop17" />
      <stop
         offset="1"
         stop-opacity="0"
         id="stop19" />
    </linearGradient>
    <linearGradient
       id="linearGradient137">
      <stop
         offset="0"
         stop-color="#fff"
         stop-opacity=".701"
         id="stop22" />
      <stop
         offset="1"
         stop-color="#fff"
         stop-opacity="0"
         id="stop24" />
    </linearGradient>
    <linearGradient
       gradientTransform="matrix(15.60208 0 .73684 7.29246 -3.81826 -448.88654)"
       xlink:href="#linearGradient137"
       id="linearGradient158"
       y1="18.726"
       x1="5.266"
       y2="52.626"
       gradientUnits="userSpaceOnUse"
       x2="8.212" />
    <linearGradient
       id="linearGradient9766">
      <stop
         offset="0"
         stop-color="#6194cb"
         id="stop31" />
      <stop
         offset="1"
         stop-color="#729fcf"
         id="stop33" />
    </linearGradient>
    <linearGradient
       id="linearGradient5048">
      <stop
         offset="0"
         stop-opacity="0"
         id="stop36" />
      <stop
         offset=".5"
         id="stop38" />
      <stop
         offset="1"
         stop-opacity="0"
         id="stop40" />
    </linearGradient>
    <linearGradient
       id="linearGradient5060">
      <stop
         offset="0"
         id="stop43" />
      <stop
         offset="1"
         stop-opacity="0"
         id="stop45" />
    </linearGradient>
    <linearGradient
       gradientTransform="matrix(2.77439 0 0 1.96971 -1892.179 -872.8854)"
       xlink:href="#linearGradient5048"
       id="linearGradient5027"
       y1="366.648"
       y2="609.505"
       gradientUnits="userSpaceOnUse"
       x2="0" />
    <radialGradient
       cx="26.107"
       cy="38.195"
       gradientTransform="matrix(10.83343 0 1.09979 10.67212 -3.81826 -449.77928)"
       id="radialGradient159"
       r="32.26"
       gradientUnits="userSpaceOnUse">
      <stop
         offset="0"
         stop-color="#a0a0a0"
         id="stop58" />
      <stop
         offset="1"
         stop-color="#a8a8a8"
         id="stop60" />
    </radialGradient>
    <radialGradient
       cx="605.714"
       cy="486.648"
       gradientTransform="matrix(2.77439 0 0 1.96971 -1891.633 -872.8854)"
       xlink:href="#linearGradient5060"
       id="radialGradient5029"
       r="117.143"
       gradientUnits="userSpaceOnUse" />
    <radialGradient
       cx="605.714"
       cy="486.648"
       gradientTransform="matrix(-2.77439 0 0 1.96971 112.7623 -872.8854)"
       xlink:href="#linearGradient5060"
       id="radialGradient5031"
       r="117.143"
       gradientUnits="userSpaceOnUse" />
  </defs>
  <path
     id="path3126"
     d="M 350.77688,87.284977 C 391.99208,103.90678 429.70598,135.38807 468.20098,162.75737 475.46648,204.98277 422.27708,152.09507 435.64498,189.22067 453.20168,214.84097 481.44538,223.09347 493.70678,256.20917 499.14168,298.11137 469.01578,304.60257 450.10078,310.50097 431.09078,322.69067 416.31368,346.96607 396.69418,357.23327 387.25768,388.41017 363.58938,392.10007 346.27628,411.48467 331.17018,414.84617 317.66158,420.47587 303.47338,427.59887 302.10998,407.76907 289.34378,384.80557 276.60488,406.79847 270.97858,426.65897 244.67028,452.68317 239.05978,422.72107 242.29728,422.18897 256.76528,426.85167 255.67648,406.90797 250.62868,367.91497 232.01398,426.19237 219.16718,428.38127 209.70148,424.79477 236.88438,402.82997 218.59588,396.63627 210.54588,403.26077 198.53458,436.17317 189.60408,419.57257 208.83028,382.08667 167.45468,373.44787 152.24038,388.86087 139.95378,371.61677 112.98958,416.32647 112.16708,388.13967 115.84498,379.86957 142.60068,376.26107 131.12478,370.48737 118.74358,382.75837 99.649485,370.03607 96.856085,359.21897 79.440189,366.05437 110.85988,325.97277 90.992985,339.23207 68.971489,345.69607 52.964189,313.37427 60.317889,283.70937 48.804789,265.40207 22.781589,321.90797 26.562289,279.40467 17.501789,271.85737 12.499089,261.92097 25.731089,258.02587 45.502589,244.68247 49.058789,199.04197 27.274689,194.77857 28.180289,159.97737 52.160189,145.33227 69.191589,131.63117 128.79348,85.088877 197.15868,82.174977 262.43188,75.861277 292.01858,74.864277 321.78508,77.697777 350.77688,87.284677 z M 366.93628,184.68477 C 343.42768,191.13637 345.36078,235.51027 334.68468,260.38787 309.61698,321.38407 252.00988,344.20667 212.25248,304.53347 192.31238,287.32027 171.01248,259.48177 171.30268,220.88137 163.02068,180.05287 132.08718,202.16397 117.38438,220.55707 95.692585,239.47607 99.895585,283.58897 120.81758,299.28577 143.45808,326.08807 170.41128,343.46227 197.55788,355.74467 257.73008,375.80787 321.42108,347.67077 371.73758,295.40047 385.38478,278.36987 406.53238,258.25137 401.18198,226.44127 395.61048,204.31397 380.36538,192.70857 366.93628,184.68467 z M 219.40958,188.21417 C 195.66918,205.08047 208.50228,268.51817 233.19718,267.12947 253.81078,259.21957 246.24128,217.74957 233.93828,201.94897 229.88418,195.72547 225.03168,190.33987 219.40958,188.21417 z M 382.44308,349.46397 C 373.04228,352.23387 390.18718,358.18877 382.44308,349.46397 z M 322.39828,387.82327 C 310.57598,387.26327 327.72218,404.50077 322.39828,387.82327 z M 281.26468,406.35087 C 294.58598,426.40687 266.75268,414.14767 281.26468,406.35087 z M 86.564085,340.19807 C 84.765189,364.24507 70.197389,340.00237 86.564085,340.19807 z M 168.54838,388.90947 C 169.76128,410.51327 151.90988,384.03547 168.54838,388.90947 z M 204.80708,401.99817 C 188.33808,406.56357 205.23948,428.81227 204.80708,401.99817 z M 186.66928,404.33347 C 181.18928,410.72167 157.07558,443.81727 168.29658,415.51427 173.51138,409.00667 180.05738,405.40197 186.66928,404.33347 z M 151.89588,404.09767 C 147.13788,426.43147 136.30688,400.45987 151.89588,404.09767 z"
     inkscape:connector-curvature="0" />
</svg>
