<?xml version="1.0" encoding="UTF-8" standalone="no"?>
<svg
   xmlns:dc="http://purl.org/dc/elements/1.1/"
   xmlns:cc="http://creativecommons.org/ns#"
   xmlns:rdf="http://www.w3.org/1999/02/22-rdf-syntax-ns#"
   xmlns:svg="http://www.w3.org/2000/svg"
   xmlns="http://www.w3.org/2000/svg"
   xmlns:sodipodi="http://sodipodi.sourceforge.net/DTD/sodipodi-0.dtd"
   xmlns:inkscape="http://www.inkscape.org/namespaces/inkscape"
   width="512"
   height="512"
   id="svg2"
   version="1.1"
   inkscape:version="0.48.2 r9819"
   sodipodi:docname="InfoPositionPolRel.svg">
  <metadata
     id="metadata16">
    <rdf:RDF>
      <cc:Work
         rdf:about="">
        <dc:format>image/svg+xml</dc:format>
        <dc:type
           rdf:resource="http://purl.org/dc/dcmitype/StillImage" />
        <dc:title />
      </cc:Work>
    </rdf:RDF>
  </metadata>
  <sodipodi:namedview
     pagecolor="#ffffff"
     bordercolor="#666666"
     borderopacity="1"
     objecttolerance="10"
     gridtolerance="10"
     guidetolerance="10"
     inkscape:pageopacity="0"
     inkscape:pageshadow="2"
     inkscape:window-width="1864"
     inkscape:window-height="1013"
     id="namedview14"
     showgrid="true"
     inkscape:zoom="0.921875"
     inkscape:cx="220.75117"
     inkscape:cy="219.1909"
     inkscape:window-x="386"
     inkscape:window-y="34"
     inkscape:window-maximized="0"
     inkscape:current-layer="g6">
    <inkscape:grid
       type="xygrid"
       id="grid2993"
       empspacing="8"
       visible="true"
       enabled="true"
       snapvisiblegridlinesonly="true"
       spacingx="16px"
       spacingy="16px"
       originx="8px"
       originy="8px" />
  </sodipodi:namedview>
  <defs
     id="defs4" />
  <g
     transform="translate(0 492)"
     id="g6">
    <g
       style="font-size:134.77600098px;line-height:125%;letter-spacing:0;word-spacing:0;font-family:Al-seana"
       id="text10"
       transform="matrix(1.5,0,0,1.5,-201.3125,244.6875)">
      <path
         d="m 219.5625,-398.1875 c -2.7084,3.12501 -5.75007,5.64584 -9.125,7.5625 -3.33339,1.875 -6.68756,2.8125 -10.0625,2.8125 -3.70838,0 -7.31255,-1.08333 -10.8125,-3.25 -3.50004,-2.16666 -6.3542,-5.49999 -8.5625,-10 -2.1667,-4.49998 -3.25003,-9.43748 -3.25,-14.8125 -3e-5,-6.62497 1.68747,-13.24996 5.0625,-19.875 3.41663,-6.66661 7.64579,-11.66661 12.6875,-15 5.04161,-3.33327 9.93744,-4.99993 14.6875,-5 3.62493,7e-5 7.08326,0.9584 10.375,2.875 3.29159,1.87506 6.12492,4.75006 8.5,8.625 l 2.125,-9.6875 11.1875,0 -9,41.9375 c -1.25009,5.83335 -1.87508,9.06251 -1.875,9.6875 -8e-5,1.12501 0.41658,2.10418 1.25,2.9375 0.87491,0.79168 1.91658,1.18751 3.125,1.1875 2.20824,10e-6 5.10407,-1.27082 8.6875,-3.8125 4.7499,-3.33332 8.49989,-7.79164 11.25,-13.375 2.79156,-5.62497 4.18739,-11.41663 4.1875,-17.375 -1.1e-4,-6.95828 -1.79178,-13.45828 -5.375,-19.5 -3.54177,-6.0416 -8.85427,-10.87492 -15.9375,-14.5 -7.04175,-3.62492 -14.83341,-5.43742 -23.375,-5.4375 -9.75006,8e-5 -18.66672,2.29175 -26.75,6.875 -8.0417,4.54174 -14.29169,11.0834 -18.75,19.625 -4.41669,8.50005 -6.62502,17.62504 -6.625,27.375 -2e-5,10.20835 2.20831,19.00001 6.625,26.375 4.45831,7.375 10.87497,12.81249 19.25,16.3125 8.41662,3.54165 17.72911,5.31248 27.9375,5.3125 10.91659,-2e-5 20.06241,-1.83335 27.4375,-5.5 7.3749,-3.66668 12.89572,-8.125 16.5625,-13.375 l 11.3125,0 c -2.12512,4.375 -5.77095,8.83333 -10.9375,13.375 -5.16678,4.54165 -11.3126,8.12498 -18.4375,10.75 -7.12509,2.66664 -15.70841,3.99997 -25.75,4 -9.25006,-3e-5 -17.79172,-1.18753 -25.625,-3.5625 -7.7917,-2.37502 -14.43753,-5.95835 -19.9375,-10.75 -5.50002,-4.75001 -9.64585,-10.22917 -12.4375,-16.4375 -3.50001,-7.87499 -5.25001,-16.37498 -5.25,-25.5 -1e-5,-10.16663 2.08332,-19.85412 6.25,-29.0625 5.08332,-11.2916 12.29164,-19.93742 21.625,-25.9375 9.37496,-5.99991 20.72911,-8.99991 34.0625,-9 10.33325,9e-5 19.60408,2.12509 27.8125,6.375 8.2499,4.20842 14.74989,10.50008 19.5,18.875 4.04155,7.20839 6.06238,15.04172 6.0625,23.5 -1.2e-4,12.08337 -4.25012,22.81252 -12.75,32.1875 -7.58344,8.41667 -15.87509,12.625 -24.875,12.625 -2.87508,0 -5.20841,-0.4375 -7,-1.3125 -1.75008,-0.875 -3.04174,-2.125 -3.875,-3.75 -0.54174,-1.04166 -0.93757,-2.83333 -1.1875,-5.375 m -30.25,-16.9375 c -4e-5,5.70835 1.35412,10.14585 4.0625,13.3125 2.70828,3.16668 5.81245,4.75001 9.3125,4.75 2.33328,10e-6 4.79161,-0.68749 7.375,-2.0625 2.58327,-1.41665 5.0416,-3.49999 7.375,-6.25 2.37493,-2.74998 4.31243,-6.22914 5.8125,-10.4375 1.49992,-4.24997 2.24992,-8.49996 2.25,-12.75 -8e-5,-5.66662 -1.41674,-10.06245 -4.25,-13.1875 -2.79174,-3.12494 -6.2084,-4.68744 -10.25,-4.6875 -2.66673,6e-5 -5.18756,0.68756 -7.5625,2.0625 -2.33339,1.33339 -4.60422,3.50005 -6.8125,6.5 -2.20838,3.00005 -3.97921,6.64588 -5.3125,10.9375 -1.33338,4.2917 -2.00004,8.2292 -2,11.8125"
         style="font-size:128px;text-align:end;text-anchor:end;font-family:Arial"
         id="path3053"
         inkscape:connector-curvature="0" />
      <path
         d="m 285.3125,-388 0,-66.375 10.125,0 0,10.0625 c 2.58331,-4.70827 4.95831,-7.81244 7.125,-9.3125 2.20831,-1.49993 4.62497,-2.24993 7.25,-2.25 3.79163,7e-5 7.64579,1.2084 11.5625,3.625 l -3.875,10.4375 c -2.75004,-1.62494 -5.50004,-2.43744 -8.25,-2.4375 -2.45836,6e-5 -4.66669,0.75006 -6.625,2.25 -1.95836,1.45839 -3.35419,3.50005 -4.1875,6.125 -1.25002,4.00004 -1.87502,8.37504 -1.875,13.125 l 0,34.75 -11.25,0"
         style="font-size:128px;text-align:end;text-anchor:end;font-family:Arial"
         id="path3055"
         inkscape:connector-curvature="0" />
      <path
         d="m 326.75,-428.0625 0,-10.5 60.6875,-25.625 0,11.1875 -48.125,19.75 48.125,19.9375 0,11.1875 -60.6875,-25.9375"
         style="font-size:128px;text-align:end;text-anchor:end;font-family:Arial"
         id="path3057"
         inkscape:connector-curvature="0" />
      <path
         d="m 452.1875,-454.375 11.5,0 c -2.91673,9.16672 -5.60423,20.22921 -8.0625,33.1875 2.9166,16.08335 5.6041,27.14584 8.0625,33.1875 l -11.1875,0 c -1.79172,-4.16666 -3.14589,-8.20833 -4.0625,-12.125 -3.45838,9.08334 -10.68754,13.625 -21.6875,13.625 -8.33336,0 -15.04168,-3.125 -20.125,-9.375 -5.08334,-6.24999 -7.625,-14.72914 -7.625,-25.4375 0,-10.99996 2.54166,-19.49995 7.625,-25.5 5.12498,-6.0416 11.89581,-9.06243 20.3125,-9.0625 5.2083,7e-5 9.45829,1.06257 12.75,3.1875 3.29162,2.0834 6.35412,5.27089 9.1875,9.5625 0.29161,-1.45828 1.39578,-5.20827 3.3125,-11.25 m -23.375,7.8125 c -5.37503,6e-5 -9.62502,2.16672 -12.75,6.5 -3.12502,4.33338 -4.68752,10.58337 -4.6875,18.75 -2e-5,7.95836 1.47915,14.20835 4.4375,18.75 2.95831,4.54168 7.0833,6.81251 12.375,6.8125 5.16663,10e-6 9.47912,-2.22916 12.9375,-6.6875 3.45828,-4.49998 5.18745,-10.95831 5.1875,-19.375 -5e-5,-8.16662 -1.62505,-14.33329 -4.875,-18.5 -3.20838,-4.16661 -7.41671,-6.24994 -12.625,-6.25"
         style="font-size:128px;text-align:end;text-anchor:end;font-family:Arial"
         id="path3059"
         inkscape:connector-curvature="0" />
    </g>
    <path
       style="fill:none;stroke:#000000;stroke-width:8;stroke-linecap:butt;stroke-linejoin:miter;stroke-miterlimit:4;stroke-opacity:1;stroke-dasharray:none"
       d="M 40,472 440,232"
       id="path2995"
       inkscape:connector-curvature="0"
       transform="translate(0,-492)"
       sodipodi:nodetypes="cc" />
    <path
       d="m 408,-260 a 32,32 0 1 1 64,0 32,32 0 0 1 -64,0 z"
       id="path8"
       inkscape:connector-curvature="0"
       style="fill:#ff0000" />
    <path
       style="fill:none;stroke:#000000;stroke-width:8;stroke-linecap:round;stroke-linejoin:round;stroke-miterlimit:4;stroke-opacity:1;stroke-dashoffset:0"
       d="M 342.19646,-199.81439 C 373.56952,-147.20216 391.59323,-85.705915 391.59323,-20"
       id="path3831"
       inkscape:connector-curvature="0"
       sodipodi:nodetypes="cc" />
  </g>
</svg>
