999
dxflib 2.0.0.0
  0
SECTION
  2
HEADER
  9
$ACADVER
  1
AC1015
  9
$HANDSEED
  5
FFFF
  0
ENDSEC
  9
$DIMASZ
 40
2.5
  9
$DIMADEC
 70
2
  9
$GRIDUNIT
 10
0.01
 20
20.0
 30
0.0
  9
$DIMGAP
 40
0.625
  9
$DIMALT
 70
0
  9
$DIMRND
 40
0.01
  9
$INSUNITS
 70
0
  9
$DIMEXO
 40
0.625
  9
$DIMTXT
 40
2.5
  9
$DIMSTYLE
  2
Standard
  9
$PLIMMIN
 10
0.0
 20
0.0
 30
0.0
  9
$PLIMMAX
 10
210.0
 20
297.0
 30
0.0
  9
$DIMEXE
 40
1.25
  9
$DIMAUNIT
 70
0
  0
ENDSEC
  0
SECTION
  2
TABLES
  0
TABLE
  2
VPORT
  5
8
100
AcDbSymbolTable
 70
1
  0
VPORT
  5
30
100
AcDbSymbolTableRecord
100
AcDbViewportTableRecord
  2
*Active
 70
0
 10
0.0
 20
0.0
 11
1.0
 21
1.0
 12
286.3055555555554861
 22
148.5
 13
0.0
 23
0.0
 14
10.0
 24
10.0
 15
10.0
 25
10.0
 16
0.0
 26
0.0
 36
1.0
 17
0.0
 27
0.0
 37
0.0
 40
297.0
 41
1.92798353909465
 42
50.0
 43
0.0
 44
0.0
 50
0.0
 51
0.0
 71
0
 72
100
 73
1
 74
3
 75
1
 76
1
 77
0
 78
0
281
0
 65
1
110
0.0
120
0.0
130
0.0
111
1.0
121
0.0
131
0.0
112
0.0
122
1.0
132
0.0
 79
0
146
0.0
  0
ENDTAB
  0
TABLE
  2
LTYPE
  5
5
100
AcDbSymbolTable
 70
3
  0
LTYPE
  5
14
100
AcDbSymbolTableRecord
100
AcDbLinetypeTableRecord
  2
ByBlock
 70
0
  3

 72
65
 73
0
 40
0.0
  0
LTYPE
  5
15
100
AcDbSymbolTableRecord
100
AcDbLinetypeTableRecord
  2
ByLayer
 70
0
  3

 72
65
 73
0
 40
0.0
  0
LTYPE
  5
16
100
AcDbSymbolTableRecord
100
AcDbLinetypeTableRecord
  2
CONTINUOUS
 70
0
  3
Solid line
 72
65
 73
0
 40
0.0
  0
LTYPE
  5
31
100
AcDbSymbolTableRecord
100
AcDbLinetypeTableRecord
  2
DOT
 70
0
  0
LTYPE
  5
32
100
AcDbSymbolTableRecord
100
AcDbLinetypeTableRecord
  2
DOT2
 70
0
  0
LTYPE
  5
33
100
AcDbSymbolTableRecord
100
AcDbLinetypeTableRecord
  2
DOTX2
 70
0
  0
LTYPE
  5
34
100
AcDbSymbolTableRecord
100
AcDbLinetypeTableRecord
  2
DASHED
 70
0
  0
LTYPE
  5
35
100
AcDbSymbolTableRecord
100
AcDbLinetypeTableRecord
  2
DASHED2
 70
0
  0
LTYPE
  5
36
100
AcDbSymbolTableRecord
100
AcDbLinetypeTableRecord
  2
DASHEDX2
 70
0
  0
LTYPE
  5
37
100
AcDbSymbolTableRecord
100
AcDbLinetypeTableRecord
  2
DASHDOT
 70
0
  0
LTYPE
  5
38
100
AcDbSymbolTableRecord
100
AcDbLinetypeTableRecord
  2
DASHDOT2
 70
0
  0
LTYPE
  5
39
100
AcDbSymbolTableRecord
100
AcDbLinetypeTableRecord
  2
DASHDOTX2
 70
0
  0
LTYPE
  5
3A
100
AcDbSymbolTableRecord
100
AcDbLinetypeTableRecord
  2
DIVIDE
 70
0
  0
LTYPE
  5
3B
100
AcDbSymbolTableRecord
100
AcDbLinetypeTableRecord
  2
DIVIDE2
 70
0
  0
LTYPE
  5
3C
100
AcDbSymbolTableRecord
100
AcDbLinetypeTableRecord
  2
DIVIDEX2
 70
0
  0
LTYPE
  5
3D
100
AcDbSymbolTableRecord
100
AcDbLinetypeTableRecord
  2
CENTER
 70
0
  0
LTYPE
  5
3E
100
AcDbSymbolTableRecord
100
AcDbLinetypeTableRecord
  2
CENTER2
 70
0
  0
LTYPE
  5
3F
100
AcDbSymbolTableRecord
100
AcDbLinetypeTableRecord
  2
CENTERX2
 70
0
  0
LTYPE
  5
40
100
AcDbSymbolTableRecord
100
AcDbLinetypeTableRecord
  2
BORDER
 70
0
  0
LTYPE
  5
41
100
AcDbSymbolTableRecord
100
AcDbLinetypeTableRecord
  2
BORDER2
 70
0
  0
LTYPE
  5
42
100
AcDbSymbolTableRecord
100
AcDbLinetypeTableRecord
  2
BORDERX2
 70
0
  0
ENDTAB
  0
TABLE
  2
LAYER
  5
2
100
AcDbSymbolTable
 70
9
  0
LAYER
  5
10
100
AcDbSymbolTableRecord
100
AcDbLayerTableRecord
  2
0
 70
0
 62
7
  6
CONTINUOUS
370
0
390
F
  0
LAYER
  5
43
100
AcDbSymbolTableRecord
100
AcDbLayerTableRecord
  2
FRAME025
 70
0
 62
7
  6
CONTINUOUS
370
0
390
F
  0
LAYER
  5
44
100
AcDbSymbolTableRecord
100
AcDbLayerTableRecord
  2
FRAME035
 70
0
 62
2
  6
CONTINUOUS
370
0
390
F
  0
LAYER
  5
45
100
AcDbSymbolTableRecord
100
AcDbLayerTableRecord
  2
FRAME050
 70
0
 62
6
  6
CONTINUOUS
370
0
390
F
  0
LAYER
  5
46
100
AcDbSymbolTableRecord
100
AcDbLayerTableRecord
  2
FRAME070
 70
0
 62
5
  6
CONTINUOUS
370
0
390
F
  0
LAYER
  5
47
100
AcDbSymbolTableRecord
100
AcDbLayerTableRecord
  2
FRAME100
 70
0
 62
1
  6
CONTINUOUS
370
0
390
F
  0
LAYER
  5
48
100
AcDbSymbolTableRecord
100
AcDbLayerTableRecord
  2
FRAME140
 70
0
 62
3
  6
CONTINUOUS
370
0
390
F
  0
LAYER
  5
49
100
AcDbSymbolTableRecord
100
AcDbLayerTableRecord
  2
FRAME200
 70
0
 62
8
  6
CONTINUOUS
370
0
390
F
  0
LAYER
  5
4A
100
AcDbSymbolTableRecord
100
AcDbLayerTableRecord
  2
TB
 70
0
 62
7
  6
CONTINUOUS
370
0
390
F
  0
ENDTAB
  0
TABLE
  2
STYLE
  5
3
100
AcDbSymbolTable
 70
1
  0
STYLE
  5
11
100
AcDbSymbolTableRecord
100
AcDbTextStyleTableRecord
  2
Standard
 70
0
 40
0.0
 41
1.0
 50
0.0
 71
0
 42
2.5
  3
txt
  4

  0
ENDTAB
  0
TABLE
  2
VIEW
  5
6
100
AcDbSymbolTable
 70
0
  0
ENDTAB
  0
TABLE
  2
UCS
  5
7
100
AcDbSymbolTable
 70
0
  0
ENDTAB
  0
TABLE
  2
APPID
  5
9
100
AcDbSymbolTable
 70
1
  0
APPID
  5
12
100
AcDbSymbolTableRecord
100
AcDbRegAppTableRecord
  2
ACAD
 70
0
  0
ENDTAB
  0
TABLE
  2
DIMSTYLE
  5
A
100
AcDbSymbolTable
 70
1
100
AcDbDimStyleTable
 71
0
  0
DIMSTYLE
105
27
100
AcDbSymbolTableRecord
100
AcDbDimStyleTableRecord
  2
Standard
 70
0
  0
ENDTAB
  0
TABLE
  2
BLOCK_RECORD
  5
1
100
AcDbSymbolTable
 70
1
  0
BLOCK_RECORD
  5
1F
100
AcDbSymbolTableRecord
100
AcDbBlockTableRecord
  2
*Model_Space
340
22
  0
BLOCK_RECORD
  5
1B
100
AcDbSymbolTableRecord
100
AcDbBlockTableRecord
  2
*Paper_Space
340
1E
  0
BLOCK_RECORD
  5
23
100
AcDbSymbolTableRecord
100
AcDbBlockTableRecord
  2
*Paper_Space0
340
26
  0
ENDTAB
  0
ENDSEC
  0
SECTION
  2
BLOCKS
  0
BLOCK
  5
20
100
AcDbEntity
  8
0
100
AcDbBlockBegin
  2
*Model_Space
 70
0
 10
0.0
 20
0.0
 30
0.0
  3
*Model_Space
  1

  0
ENDBLK
  5
21
100
AcDbEntity
  8
0
100
AcDbBlockEnd
  0
BLOCK
  5
1C
100
AcDbEntity
 67
1
  8
0
100
AcDbBlockBegin
  2
*Paper_Space
 70
0
 10
0.0
 20
0.0
 30
0.0
  3
*Paper_Space
  1

  0
ENDBLK
  5
1D
100
AcDbEntity
 67
1
  8
0
100
AcDbBlockEnd
  0
BLOCK
  5
24
100
AcDbEntity
  8
0
100
AcDbBlockBegin
  2
*Paper_Space0
 70
0
 10
0.0
 20
0.0
 30
0.0
  3
*Paper_Space0
  1

  0
ENDBLK
  5
25
100
AcDbEntity
  8
0
100
AcDbBlockEnd
  0
ENDSEC
  0
SECTION
  2
ENTITIES
  0
LINE
  5
4B
100
AcDbEntity
100
AcDbLine
  8
FRAME200
 62
0
370
0
  6
CONTINUOUS
 10
0.0
 20
0.0
 30
0.0
 11
10.0
 21
0.0
 31
0.0
  0
LINE
  5
4C
100
AcDbEntity
100
AcDbLine
  8
FRAME200
 62
0
370
0
  6
CONTINUOUS
 10
0.0
 20
0.0
 30
0.0
 11
0.0
 21
10.0
 31
0.0
  0
LINE
  5
4D
100
AcDbEntity
100
AcDbLine
  8
FRAME200
 62
0
370
0
  6
CONTINUOUS
 10
840.0
 20
0.0
 30
0.0
 11
830.0
 21
0.0
 31
0.0
  0
LINE
  5
4E
100
AcDbEntity
100
AcDbLine
  8
FRAME200
 62
0
370
0
  6
CONTINUOUS
 10
840.0
 20
0.0
 30
0.0
 11
840.0
 21
10.0
 31
0.0
  0
LINE
  5
4F
100
AcDbEntity
100
AcDbLine
  8
FRAME200
 62
0
370
0
  6
CONTINUOUS
 10
840.0
 20
584.0
 30
0.0
 11
840.0
 21
594.0
 31
0.0
  0
LINE
  5
50
100
AcDbEntity
100
AcDbLine
  8
FRAME200
 62
0
370
0
  6
CONTINUOUS
 10
840.0
 20
594.0
 30
0.0
 11
830.0
 21
594.0
 31
0.0
  0
LINE
  5
51
100
AcDbEntity
100
AcDbLine
  8
FRAME200
 62
0
370
0
  6
CONTINUOUS
 10
10.0
 20
594.0
 30
0.0
 11
0.0
 21
594.0
 31
0.0
  0
LINE
  5
52
100
AcDbEntity
100
AcDbLine
  8
FRAME200
 62
0
370
0
  6
CONTINUOUS
 10
0.0
 20
594.0
 30
0.0
 11
0.0
 21
584.0
 31
0.0
  0
LINE
  5
53
100
AcDbEntity
100
AcDbLine
  8
FRAME070
 62
0
370
0
  6
CONTINUOUS
 10
20.0
 20
20.0
 30
0.0
 11
820.0
 21
20.0
 31
0.0
  0
LINE
  5
54
100
AcDbEntity
100
AcDbLine
  8
FRAME070
 62
0
370
0
  6
CONTINUOUS
 10
820.0
 20
20.0
 30
0.0
 11
820.0
 21
574.0
 31
0.0
  0
LINE
  5
55
100
AcDbEntity
100
AcDbLine
  8
FRAME070
 62
0
370
0
  6
CONTINUOUS
 10
820.0
 20
574.0
 30
0.0
 11
20.0
 21
574.0
 31
0.0
  0
LINE
  5
56
100
AcDbEntity
100
AcDbLine
  8
FRAME070
 62
0
370
0
  6
CONTINUOUS
 10
20.0
 20
574.0
 30
0.0
 11
20.0
 21
20.0
 31
0.0
  0
LINE
  5
57
100
AcDbEntity
100
AcDbLine
  8
FRAME050
 62
0
370
0
  6
CONTINUOUS
 10
420.0
 20
20.0
 30
0.0
 11
420.0
 21
15.0
 31
0.0
  0
LINE
  5
58
100
AcDbEntity
100
AcDbLine
  8
FRAME050
 62
0
370
0
  6
CONTINUOUS
 10
370.0
 20
15.0
 30
0.0
 11
470.0
 21
15.0
 31
0.0
  0
LINE
  5
59
100
AcDbEntity
100
AcDbLine
  8
FRAME050
 62
0
370
0
  6
CONTINUOUS
 10
370.0
 20
15.0
 30
0.0
 11
370.0
 21
20.0
 31
0.0
  0
LINE
  5
5A
100
AcDbEntity
100
AcDbLine
  8
FRAME050
 62
0
370
0
  6
CONTINUOUS
 10
470.0
 20
15.0
 30
0.0
 11
470.0
 21
20.0
 31
0.0
  0
LINE
  5
5B
100
AcDbEntity
100
AcDbLine
  8
FRAME050
 62
0
370
0
  6
CONTINUOUS
 10
380.0
 20
15.0
 30
0.0
 11
380.0
 21
20.0
 31
0.0
  0
LINE
  5
5C
100
AcDbEntity
100
AcDbLine
  8
FRAME050
 62
0
370
0
  6
CONTINUOUS
 10
390.0
 20
15.0
 30
0.0
 11
390.0
 21
20.0
 31
0.0
  0
LINE
  5
5D
100
AcDbEntity
100
AcDbLine
  8
FRAME050
 62
0
370
0
  6
CONTINUOUS
 10
400.0
 20
15.0
 30
0.0
 11
400.0
 21
20.0
 31
0.0
  0
LINE
  5
5E
100
AcDbEntity
100
AcDbLine
  8
FRAME050
 62
0
370
0
  6
CONTINUOUS
 10
410.0
 20
15.0
 30
0.0
 11
410.0
 21
20.0
 31
0.0
  0
LINE
  5
5F
100
AcDbEntity
100
AcDbLine
  8
FRAME050
 62
0
370
0
  6
CONTINUOUS
 10
430.0
 20
15.0
 30
0.0
 11
430.0
 21
20.0
 31
0.0
  0
LINE
  5
60
100
AcDbEntity
100
AcDbLine
  8
FRAME050
 62
0
370
0
  6
CONTINUOUS
 10
440.0
 20
15.0
 30
0.0
 11
440.0
 21
20.0
 31
0.0
  0
LINE
  5
61
100
AcDbEntity
100
AcDbLine
  8
FRAME050
 62
0
370
0
  6
CONTINUOUS
 10
450.0
 20
15.0
 30
0.0
 11
450.0
 21
20.0
 31
0.0
  0
LINE
  5
62
100
AcDbEntity
100
AcDbLine
  8
FRAME050
 62
0
370
0
  6
CONTINUOUS
 10
460.0
 20
15.0
 30
0.0
 11
460.0
 21
20.0
 31
0.0
  0
LINE
  5
63
100
AcDbEntity
100
AcDbLine
  8
FRAME050
 62
0
370
0
  6
CONTINUOUS
 10
15.0
 20
297.0
 30
0.0
 11
25.0
 21
297.0
 31
0.0
  0
LINE
  5
64
100
AcDbEntity
100
AcDbLine
  8
FRAME050
 62
0
370
0
  6
CONTINUOUS
 10
815.0
 20
297.0
 30
0.0
 11
825.0
 21
297.0
 31
0.0
  0
LINE
  5
65
100
AcDbEntity
100
AcDbLine
  8
FRAME050
 62
0
370
0
  6
CONTINUOUS
 10
420.0
 20
569.0
 30
0.0
 11
420.0
 21
579.0
 31
0.0
  0
LINE
  5
66
100
AcDbEntity
100
AcDbLine
  8
FRAME050
 62
0
370
0
  6
CONTINUOUS
 10
420.0
 20
20.0
 30
0.0
 11
420.0
 21
25.0
 31
0.0
  0
LINE
  5
67
100
AcDbEntity
100
AcDbLine
  8
FRAME050
 62
0
370
0
  6
CONTINUOUS
 10
22.5
 20
299.5
 30
0.0
 11
22.5
 21
294.5
 31
0.0
  0
LINE
  5
68
100
AcDbEntity
100
AcDbLine
  8
FRAME050
 62
0
370
0
  6
CONTINUOUS
 10
22.5
 20
294.5
 30
0.0
 11
17.5
 21
297.0
 31
0.0
  0
LINE
  5
69
100
AcDbEntity
100
AcDbLine
  8
FRAME050
 62
0
370
0
  6
CONTINUOUS
 10
17.5
 20
297.0
 30
0.0
 11
22.5
 21
299.5
 31
0.0
  0
LINE
  5
6A
100
AcDbEntity
100
AcDbLine
  8
FRAME050
 62
0
370
0
  6
CONTINUOUS
 10
420.0
 20
17.5
 30
0.0
 11
417.5
 21
22.5
 31
0.0
  0
LINE
  5
6B
100
AcDbEntity
100
AcDbLine
  8
FRAME050
 62
0
370
0
  6
CONTINUOUS
 10
417.5
 20
22.5
 30
0.0
 11
422.5
 21
22.5
 31
0.0
  0
LINE
  5
6C
100
AcDbEntity
100
AcDbLine
  8
FRAME050
 62
0
370
0
  6
CONTINUOUS
 10
422.5
 20
22.5
 30
0.0
 11
420.0
 21
17.5
 31
0.0
  0
LINE
  5
6D
100
AcDbEntity
100
AcDbLine
  8
FRAME070
 62
0
370
0
  6
CONTINUOUS
 10
725.0
 20
30.0
 30
0.0
 11
820.0
 21
30.0
 31
0.0
  0
LINE
  5
6E
100
AcDbEntity
100
AcDbLine
  8
FRAME070
 62
0
370
0
  6
CONTINUOUS
 10
650.0
 20
40.0
 30
0.0
 11
820.0
 21
40.0
 31
0.0
  0
LINE
  5
6F
100
AcDbEntity
100
AcDbLine
  8
FRAME070
 62
0
370
0
  6
CONTINUOUS
 10
650.0
 20
50.0
 30
0.0
 11
820.0
 21
50.0
 31
0.0
  0
LINE
  5
70
100
AcDbEntity
100
AcDbLine
  8
FRAME070
 62
0
370
0
  6
CONTINUOUS
 10
650.0
 20
20.0
 30
0.0
 11
650.0
 21
50.0
 31
0.0
  0
LINE
  5
71
100
AcDbEntity
100
AcDbLine
  8
FRAME070
 62
0
370
0
  6
CONTINUOUS
 10
725.0
 20
20.0
 30
0.0
 11
725.0
 21
40.0
 31
0.0
  0
LINE
  5
72
100
AcDbEntity
100
AcDbLine
  8
FRAME070
 62
0
370
0
  6
CONTINUOUS
 10
800.0
 20
20.0
 30
0.0
 11
800.0
 21
30.0
 31
0.0
  0
LINE
  5
73
100
AcDbEntity
100
AcDbLine
  8
FRAME070
 62
0
370
0
  6
CONTINUOUS
 10
785.0
 20
20.0
 30
0.0
 11
785.0
 21
30.0
 31
0.0
  0
LINE
  5
74
100
AcDbEntity
100
AcDbLine
  8
FRAME070
 62
0
370
0
  6
CONTINUOUS
 10
800.0
 20
40.0
 30
0.0
 11
800.0
 21
50.0
 31
0.0
  0
LINE
  5
75
100
AcDbEntity
100
AcDbLine
  8
FRAME070
 62
0
370
0
  6
CONTINUOUS
 10
770.0
 20
40.0
 30
0.0
 11
770.0
 21
50.0
 31
0.0
  0
LINE
  5
76
100
AcDbEntity
100
AcDbLine
  8
FRAME070
 62
0
370
0
  6
CONTINUOUS
 10
745.0
 20
40.0
 30
0.0
 11
745.0
 21
50.0
 31
0.0
  0
LINE
  5
77
100
AcDbEntity
100
AcDbLine
  8
FRAME070
 62
0
370
0
  6
CONTINUOUS
 10
707.0
 20
40.0
 30
0.0
 11
707.0
 21
50.0
 31
0.0
  0
LINE
  5
78
100
AcDbEntity
100
AcDbLine
  8
FRAME070
 62
0
370
0
  6
CONTINUOUS
 10
682.0
 20
40.0
 30
0.0
 11
682.0
 21
50.0
 31
0.0
  0
LINE
  5
79
100
AcDbEntity
100
AcDbLine
  8
FRAME070
 62
0
370
0
  6
CONTINUOUS
 10
650.0
 20
56.0
 30
0.0
 11
820.0
 21
56.0
 31
0.0
  0
LINE
  5
7A
100
AcDbEntity
100
AcDbLine
  8
FRAME070
 62
0
370
0
  6
CONTINUOUS
 10
665.0
 20
50.0
 30
0.0
 11
665.0
 21
56.0
 31
0.0
  0
LINE
  5
7B
100
AcDbEntity
100
AcDbLine
  8
FRAME070
 62
0
370
0
  6
CONTINUOUS
 10
650.0
 20
50.0
 30
0.0
 11
650.0
 21
56.0
 31
0.0
  0
LINE
  5
7C
100
AcDbEntity
100
AcDbLine
  8
FRAME070
 62
0
370
0
  6
CONTINUOUS
 10
682.0
 20
50.0
 30
0.0
 11
682.0
 21
56.0
 31
0.0
  0
LINE
  5
7D
100
AcDbEntity
100
AcDbLine
  8
FRAME070
 62
0
370
0
  6
CONTINUOUS
 10
770.0
 20
50.0
 30
0.0
 11
770.0
 21
56.0
 31
0.0
  0
LINE
  5
7E
100
AcDbEntity
100
AcDbLine
  8
FRAME070
 62
0
370
0
  6
CONTINUOUS
 10
650.0
 20
568.0
 30
0.0
 11
650.0
 21
574.0
 31
0.0
  0
LINE
  5
7F
100
AcDbEntity
100
AcDbLine
  8
FRAME070
 62
0
370
0
  6
CONTINUOUS
 10
650.0
 20
568.0
 30
0.0
 11
820.0
 21
568.0
 31
0.0
  0
LINE
  5
80
100
AcDbEntity
100
AcDbLine
  8
FRAME070
 62
0
370
0
  6
CONTINUOUS
 10
662.0
 20
568.0
 30
0.0
 11
662.0
 21
574.0
 31
0.0
  0
LINE
  5
81
100
AcDbEntity
100
AcDbLine
  8
FRAME070
 62
0
370
0
  6
CONTINUOUS
 10
771.0
 20
568.0
 30
0.0
 11
771.0
 21
574.0
 31
0.0
  0
LINE
  5
82
100
AcDbEntity
100
AcDbLine
  8
FRAME070
 62
0
370
0
  6
CONTINUOUS
 10
791.0
 20
568.0
 30
0.0
 11
791.0
 21
574.0
 31
0.0
  0
LINE
  5
83
100
AcDbEntity
100
AcDbLine
  8
FRAME070
 62
0
370
0
  6
CONTINUOUS
 10
806.0
 20
568.0
 30
0.0
 11
806.0
 21
574.0
 31
0.0
  0
LINE
  5
84
100
AcDbEntity
100
AcDbLine
  8
FRAME050
 62
0
370
0
  6
CONTINUOUS
 10
220.0
 20
574.0
 30
0.0
 11
220.0
 21
579.0
 31
0.0
  0
LINE
  5
85
100
AcDbEntity
100
AcDbLine
  8
FRAME050
 62
0
370
0
  6
CONTINUOUS
 10
320.0
 20
574.0
 30
0.0
 11
320.0
 21
579.0
 31
0.0
  0
LINE
  5
86
100
AcDbEntity
100
AcDbLine
  8
FRAME050
 62
0
370
0
  6
CONTINUOUS
 10
270.0
 20
574.0
 30
0.0
 11
270.0
 21
579.0
 31
0.0
  0
LINE
  5
87
100
AcDbEntity
100
AcDbLine
  8
FRAME050
 62
0
370
0
  6
CONTINUOUS
 10
370.0
 20
574.0
 30
0.0
 11
370.0
 21
579.0
 31
0.0
  0
LINE
  5
88
100
AcDbEntity
100
AcDbLine
  8
FRAME050
 62
0
370
0
  6
CONTINUOUS
 10
170.0
 20
574.0
 30
0.0
 11
170.0
 21
579.0
 31
0.0
  0
LINE
  5
89
100
AcDbEntity
100
AcDbLine
  8
FRAME050
 62
0
370
0
  6
CONTINUOUS
 10
120.0
 20
574.0
 30
0.0
 11
120.0
 21
579.0
 31
0.0
  0
LINE
  5
8A
100
AcDbEntity
100
AcDbLine
  8
FRAME050
 62
0
370
0
  6
CONTINUOUS
 10
70.0
 20
574.0
 30
0.0
 11
70.0
 21
579.0
 31
0.0
  0
LINE
  5
8B
100
AcDbEntity
100
AcDbLine
  8
FRAME050
 62
0
370
0
  6
CONTINUOUS
 10
470.0
 20
574.0
 30
0.0
 11
470.0
 21
579.0
 31
0.0
  0
LINE
  5
8C
100
AcDbEntity
100
AcDbLine
  8
FRAME050
 62
0
370
0
  6
CONTINUOUS
 10
520.0
 20
574.0
 30
0.0
 11
520.0
 21
579.0
 31
0.0
  0
LINE
  5
8D
100
AcDbEntity
100
AcDbLine
  8
FRAME050
 62
0
370
0
  6
CONTINUOUS
 10
570.0
 20
574.0
 30
0.0
 11
570.0
 21
579.0
 31
0.0
  0
LINE
  5
8E
100
AcDbEntity
100
AcDbLine
  8
FRAME050
 62
0
370
0
  6
CONTINUOUS
 10
670.0
 20
574.0
 30
0.0
 11
670.0
 21
579.0
 31
0.0
  0
LINE
  5
8F
100
AcDbEntity
100
AcDbLine
  8
FRAME050
 62
0
370
0
  6
CONTINUOUS
 10
620.0
 20
574.0
 30
0.0
 11
620.0
 21
579.0
 31
0.0
  0
LINE
  5
90
100
AcDbEntity
100
AcDbLine
  8
FRAME050
 62
0
370
0
  6
CONTINUOUS
 10
770.0
 20
574.0
 30
0.0
 11
770.0
 21
579.0
 31
0.0
  0
LINE
  5
91
100
AcDbEntity
100
AcDbLine
  8
FRAME050
 62
0
370
0
  6
CONTINUOUS
 10
720.0
 20
574.0
 30
0.0
 11
720.0
 21
579.0
 31
0.0
  0
MTEXT
  5
92
100
AcDbEntity
100
AcDbMText
  8
FRAME050
 62
0
370
0
  6
CONTINUOUS
 10
93.5306690000000032
 20
574.3996059999999488
 30
0.0
 40
4.0
 41
100.0
 71
7
 72
2
  1
2
  7
Courier
 50
0.0
 73
0
 44
1.0
  0
MTEXT
  5
93
100
AcDbEntity
100
AcDbMText
  8
FRAME050
 62
0
370
0
  6
CONTINUOUS
 10
44.0
 20
574.5
 30
0.0
 40
4.0
 41
100.0
 71
7
 72
2
  1
1
  7
Courier
 50
0.0
 73
0
 44
1.0
  0
MTEXT
  5
94
100
AcDbEntity
100
AcDbMText
  8
FRAME050
 62
0
370
0
  6
CONTINUOUS
 10
143.5171569999999974
 20
574.5828430000000253
 30
0.0
 40
4.0
 41
100.0
 71
7
 72
2
  1
3
  7
Courier
 50
0.0
 73
0
 44
1.0
  0
MTEXT
  5
95
100
AcDbEntity
100
AcDbMText
  8
FRAME050
 62
0
370
0
  6
CONTINUOUS
 10
193.4000000000000057
 20
574.5
 30
0.0
 40
4.0
 41
100.0
 71
7
 72
2
  1
4
  7
Courier
 50
0.0
 73
0
 44
1.0
  0
MTEXT
  5
96
100
AcDbEntity
100
AcDbMText
  8
FRAME050
 62
0
370
0
  6
CONTINUOUS
 10
243.5171569999999974
 20
574.5828430000000253
 30
0.0
 40
4.0
 41
100.0
 71
7
 72
2
  1
5
  7
Courier
 50
0.0
 73
0
 44
1.0
  0
MTEXT
  5
97
100
AcDbEntity
100
AcDbMText
  8
FRAME050
 62
0
370
0
  6
CONTINUOUS
 10
293.6204720000000066
 20
574.4102360000000544
 30
0.0
 40
4.0
 41
100.0
 71
7
 72
2
  1
6
  7
Courier
 50
0.0
 73
0
 44
1.0
  0
MTEXT
  5
98
100
AcDbEntity
100
AcDbMText
  8
FRAME050
 62
0
370
0
  6
CONTINUOUS
 10
343.6000000000000227
 20
574.5
 30
0.0
 40
4.0
 41
100.0
 71
7
 72
2
  1
7
  7
Courier
 50
0.0
 73
0
 44
1.0
  0
MTEXT
  5
99
100
AcDbEntity
100
AcDbMText
  8
FRAME050
 62
0
370
0
  6
CONTINUOUS
 10
393.6000000000000227
 20
574.5
 30
0.0
 40
4.0
 41
100.0
 71
7
 72
2
  1
8
  7
Courier
 50
0.0
 73
0
 44
1.0
  0
MTEXT
  5
9A
100
AcDbEntity
100
AcDbMText
  8
FRAME050
 62
0
370
0
  6
CONTINUOUS
 10
443.5326670000000036
 20
574.5961829999999964
 30
0.0
 40
4.0
 41
100.0
 71
7
 72
2
  1
9
  7
Courier
 50
0.0
 73
0
 44
1.0
  0
MTEXT
  5
9B
100
AcDbEntity
100
AcDbMText
  8
FRAME050
 62
0
370
0
  6
CONTINUOUS
 10
492.5984250000000202
 20
574.5
 30
0.0
 40
4.0
 41
100.0
 71
7
 72
2
  1
10
  7
Courier
 50
0.0
 73
0
 44
1.0
  0
MTEXT
  5
9C
100
AcDbEntity
100
AcDbMText
  8
FRAME050
 62
0
370
0
  6
CONTINUOUS
 10
543.0
 20
574.5
 30
0.0
 40
4.0
 41
100.0
 71
7
 72
2
  1
11
  7
Courier
 50
0.0
 73
0
 44
1.0
  0
MTEXT
  5
9D
100
AcDbEntity
100
AcDbMText
  8
FRAME050
 62
0
370
0
  6
CONTINUOUS
 10
592.4798819999999751
 20
574.3996059999999488
 30
0.0
 40
4.0
 41
100.0
 71
7
 72
2
  1
12
  7
Courier
 50
0.0
 73
0
 44
1.0
  0
MTEXT
  5
9E
100
AcDbEntity
100
AcDbMText
  8
FRAME050
 62
0
370
0
  6
CONTINUOUS
 10
692.3999999999999773
 20
574.5
 30
0.0
 40
4.0
 41
100.0
 71
7
 72
2
  1
14
  7
Courier
 50
0.0
 73
0
 44
1.0
  0
MTEXT
  5
9F
100
AcDbEntity
100
AcDbMText
  8
FRAME050
 62
0
370
0
  6
CONTINUOUS
 10
792.5007869999999457
 20
574.4102360000000544
 30
0.0
 40
4.0
 41
100.0
 71
7
 72
2
  1
16
  7
Courier
 50
0.0
 73
0
 44
1.0
  0
MTEXT
  5
A0
100
AcDbEntity
100
AcDbMText
  8
FRAME050
 62
0
370
0
  6
CONTINUOUS
 10
742.5171569999999974
 20
574.5828430000000253
 30
0.0
 40
4.0
 41
100.0
 71
7
 72
2
  1
15
  7
Courier
 50
0.0
 73
0
 44
1.0
  0
MTEXT
  5
A1
100
AcDbEntity
100
AcDbMText
  8
FRAME050
 62
0
370
0
  6
CONTINUOUS
 10
642.5171569999999974
 20
574.5828430000000253
 30
0.0
 40
4.0
 41
100.0
 71
7
 72
2
  1
13
  7
Courier
 50
0.0
 73
0
 44
1.0
  0
MTEXT
  5
A2
100
AcDbEntity
100
AcDbMText
  8
FRAME050
 62
0
370
0
  6
CONTINUOUS
 10
93.5306690000000032
 20
15.3996060000000003
 30
0.0
 40
4.0
 41
100.0
 71
7
 72
2
  1
2
  7
Courier
 50
0.0
 73
0
 44
1.0
  0
MTEXT
  5
A3
100
AcDbEntity
100
AcDbMText
  8
FRAME050
 62
0
370
0
  6
CONTINUOUS
 10
44.0
 20
15.5
 30
0.0
 40
4.0
 41
100.0
 71
7
 72
2
  1
1
  7
Courier
 50
0.0
 73
0
 44
1.0
  0
MTEXT
  5
A4
100
AcDbEntity
100
AcDbMText
  8
FRAME050
 62
0
370
0
  6
CONTINUOUS
 10
143.5171569999999974
 20
15.5828430000000004
 30
0.0
 40
4.0
 41
100.0
 71
7
 72
2
  1
3
  7
Courier
 50
0.0
 73
0
 44
1.0
  0
LINE
  5
A5
100
AcDbEntity
100
AcDbLine
  8
FRAME050
 62
0
370
0
  6
CONTINUOUS
 10
70.0
 20
15.0
 30
0.0
 11
70.0
 21
20.0
 31
0.0
  0
LINE
  5
A6
100
AcDbEntity
100
AcDbLine
  8
FRAME050
 62
0
370
0
  6
CONTINUOUS
 10
120.0
 20
15.0
 30
0.0
 11
120.0
 21
20.0
 31
0.0
  0
MTEXT
  5
A7
100
AcDbEntity
100
AcDbMText
  8
FRAME050
 62
0
370
0
  6
CONTINUOUS
 10
243.5171569999999974
 20
15.5828430000000004
 30
0.0
 40
4.0
 41
100.0
 71
7
 72
2
  1
5
  7
Courier
 50
0.0
 73
0
 44
1.0
  0
MTEXT
  5
A8
100
AcDbEntity
100
AcDbMText
  8
FRAME050
 62
0
370
0
  6
CONTINUOUS
 10
193.4000000000000057
 20
15.5
 30
0.0
 40
4.0
 41
100.0
 71
7
 72
2
  1
4
  7
Courier
 50
0.0
 73
0
 44
1.0
  0
LINE
  5
A9
100
AcDbEntity
100
AcDbLine
  8
FRAME050
 62
0
370
0
  6
CONTINUOUS
 10
170.0
 20
15.0
 30
0.0
 11
170.0
 21
20.0
 31
0.0
  0
LINE
  5
AA
100
AcDbEntity
100
AcDbLine
  8
FRAME050
 62
0
370
0
  6
CONTINUOUS
 10
270.0
 20
15.0
 30
0.0
 11
270.0
 21
20.0
 31
0.0
  0
LINE
  5
AB
100
AcDbEntity
100
AcDbLine
  8
FRAME050
 62
0
370
0
  6
CONTINUOUS
 10
220.0
 20
15.0
 30
0.0
 11
220.0
 21
20.0
 31
0.0
  0
MTEXT
  5
AC
100
AcDbEntity
100
AcDbMText
  8
FRAME050
 62
0
370
0
  6
CONTINUOUS
 10
343.6000000000000227
 20
15.5
 30
0.0
 40
4.0
 41
100.0
 71
7
 72
2
  1
7
  7
Courier
 50
0.0
 73
0
 44
1.0
  0
MTEXT
  5
AD
100
AcDbEntity
100
AcDbMText
  8
FRAME050
 62
0
370
0
  6
CONTINUOUS
 10
293.6204720000000066
 20
15.4102359999999994
 30
0.0
 40
4.0
 41
100.0
 71
7
 72
2
  1
6
  7
Courier
 50
0.0
 73
0
 44
1.0
  0
LINE
  5
AE
100
AcDbEntity
100
AcDbLine
  8
FRAME050
 62
0
370
0
  6
CONTINUOUS
 10
320.0
 20
15.0
 30
0.0
 11
320.0
 21
20.0
 31
0.0
  0
MTEXT
  5
AF
100
AcDbEntity
100
AcDbMText
  8
FRAME050
 62
0
370
0
  6
CONTINUOUS
 10
492.5984250000000202
 20
15.5
 30
0.0
 40
4.0
 41
100.0
 71
7
 72
2
  1
10
  7
Courier
 50
0.0
 73
0
 44
1.0
  0
MTEXT
  5
B0
100
AcDbEntity
100
AcDbMText
  8
FRAME050
 62
0
370
0
  6
CONTINUOUS
 10
543.0
 20
15.5
 30
0.0
 40
4.0
 41
100.0
 71
7
 72
2
  1
11
  7
Courier
 50
0.0
 73
0
 44
1.0
  0
LINE
  5
B1
100
AcDbEntity
100
AcDbLine
  8
FRAME050
 62
0
370
0
  6
CONTINUOUS
 10
520.0
 20
15.0
 30
0.0
 11
520.0
 21
20.0
 31
0.0
  0
MTEXT
  5
B2
100
AcDbEntity
100
AcDbMText
  8
FRAME050
 62
0
370
0
  6
CONTINUOUS
 10
592.4798819999999751
 20
15.3996060000000003
 30
0.0
 40
4.0
 41
100.0
 71
7
 72
2
  1
12
  7
Courier
 50
0.0
 73
0
 44
1.0
  0
MTEXT
  5
B3
100
AcDbEntity
100
AcDbMText
  8
FRAME050
 62
0
370
0
  6
CONTINUOUS
 10
642.5171569999999974
 20
15.5828430000000004
 30
0.0
 40
4.0
 41
100.0
 71
7
 72
2
  1
13
  7
Courier
 50
0.0
 73
0
 44
1.0
  0
LINE
  5
B4
100
AcDbEntity
100
AcDbLine
  8
FRAME050
 62
0
370
0
  6
CONTINUOUS
 10
620.0
 20
15.0
 30
0.0
 11
620.0
 21
20.0
 31
0.0
  0
LINE
  5
B5
100
AcDbEntity
100
AcDbLine
  8
FRAME050
 62
0
370
0
  6
CONTINUOUS
 10
570.0
 20
15.0
 30
0.0
 11
570.0
 21
20.0
 31
0.0
  0
LINE
  5
B6
100
AcDbEntity
100
AcDbLine
  8
FRAME050
 62
0
370
0
  6
CONTINUOUS
 10
670.0
 20
15.0
 30
0.0
 11
670.0
 21
20.0
 31
0.0
  0
MTEXT
  5
B7
100
AcDbEntity
100
AcDbMText
  8
FRAME050
 62
0
370
0
  6
CONTINUOUS
 10
692.3999999999999773
 20
15.5
 30
0.0
 40
4.0
 41
100.0
 71
7
 72
2
  1
14
  7
Courier
 50
0.0
 73
0
 44
1.0
  0
LINE
  5
B8
100
AcDbEntity
100
AcDbLine
  8
FRAME050
 62
0
370
0
  6
CONTINUOUS
 10
720.0
 20
15.0
 30
0.0
 11
720.0
 21
20.0
 31
0.0
  0
MTEXT
  5
B9
100
AcDbEntity
100
AcDbMText
  8
FRAME050
 62
0
370
0
  6
CONTINUOUS
 10
742.5171569999999974
 20
15.5828430000000004
 30
0.0
 40
4.0
 41
100.0
 71
7
 72
2
  1
15
  7
Courier
 50
0.0
 73
0
 44
1.0
  0
LINE
  5
BA
100
AcDbEntity
100
AcDbLine
  8
FRAME050
 62
0
370
0
  6
CONTINUOUS
 10
770.0
 20
15.0
 30
0.0
 11
770.0
 21
20.0
 31
0.0
  0
MTEXT
  5
BB
100
AcDbEntity
100
AcDbMText
  8
FRAME050
 62
0
370
0
  6
CONTINUOUS
 10
792.5007869999999457
 20
15.4102359999999994
 30
0.0
 40
4.0
 41
100.0
 71
7
 72
2
  1
16
  7
Courier
 50
0.0
 73
0
 44
1.0
  0
LINE
  5
BC
100
AcDbEntity
100
AcDbLine
  8
FRAME050
 62
0
370
0
  6
CONTINUOUS
 10
820.0
 20
158.5
 30
0.0
 11
825.0
 21
158.5
 31
0.0
  0
LINE
  5
BD
100
AcDbEntity
100
AcDbLine
  8
FRAME050
 62
0
370
0
  6
CONTINUOUS
 10
820.0
 20
227.75
 30
0.0
 11
825.0
 21
227.75
 31
0.0
  0
LINE
  5
BE
100
AcDbEntity
100
AcDbLine
  8
FRAME050
 62
0
370
0
  6
CONTINUOUS
 10
820.0
 20
89.25
 30
0.0
 11
825.0
 21
89.25
 31
0.0
  0
MTEXT
  5
BF
100
AcDbEntity
100
AcDbMText
  8
FRAME050
 62
0
370
0
  6
CONTINUOUS
 10
821.1000000000000227
 20
191.125
 30
0.0
 40
4.0
 41
100.0
 71
7
 72
2
  1
F
  7
Courier
 50
0.0
 73
0
 44
1.0
  0
MTEXT
  5
C0
100
AcDbEntity
100
AcDbMText
  8
FRAME050
 62
0
370
0
  6
CONTINUOUS
 10
821.1000000000000227
 20
260.375
 30
0.0
 40
4.0
 41
100.0
 71
7
 72
2
  1
E
  7
Courier
 50
0.0
 73
0
 44
1.0
  0
MTEXT
  5
C1
100
AcDbEntity
100
AcDbMText
  8
FRAME050
 62
0
370
0
  6
CONTINUOUS
 10
821.0035530000000108
 20
121.875
 30
0.0
 40
4.0
 41
100.0
 71
7
 72
2
  1
G
  7
Courier
 50
0.0
 73
0
 44
1.0
  0
MTEXT
  5
C2
100
AcDbEntity
100
AcDbMText
  8
FRAME050
 62
0
370
0
  6
CONTINUOUS
 10
820.8999999999999773
 20
52.625
 30
0.0
 40
4.0
 41
100.0
 71
7
 72
2
  1
H
  7
Courier
 50
0.0
 73
0
 44
1.0
  0
LINE
  5
C3
100
AcDbEntity
100
AcDbLine
  8
FRAME050
 62
0
370
0
  6
CONTINUOUS
 10
820.0
 20
366.25
 30
0.0
 11
825.0
 21
366.25
 31
0.0
  0
MTEXT
  5
C4
100
AcDbEntity
100
AcDbMText
  8
FRAME050
 62
0
370
0
  6
CONTINUOUS
 10
821.1931980000000522
 20
398.875
 30
0.0
 40
4.0
 41
100.0
 71
7
 72
2
  1
C
  7
Courier
 50
0.0
 73
0
 44
1.0
  0
LINE
  5
C5
100
AcDbEntity
100
AcDbLine
  8
FRAME050
 62
0
370
0
  6
CONTINUOUS
 10
820.0
 20
435.5
 30
0.0
 11
825.0
 21
435.5
 31
0.0
  0
MTEXT
  5
C6
100
AcDbEntity
100
AcDbMText
  8
FRAME050
 62
0
370
0
  6
CONTINUOUS
 10
820.8999999999999773
 20
468.125
 30
0.0
 40
4.0
 41
100.0
 71
7
 72
2
  1
B
  7
Courier
 50
0.0
 73
0
 44
1.0
  0
LINE
  5
C7
100
AcDbEntity
100
AcDbLine
  8
FRAME050
 62
0
370
0
  6
CONTINUOUS
 10
820.0
 20
504.75
 30
0.0
 11
825.0
 21
504.75
 31
0.0
  0
MTEXT
  5
C8
100
AcDbEntity
100
AcDbMText
  8
FRAME050
 62
0
370
0
  6
CONTINUOUS
 10
820.7000000000000455
 20
537.375
 30
0.0
 40
4.0
 41
100.0
 71
7
 72
2
  1
A
  7
Courier
 50
0.0
 73
0
 44
1.0
  0
MTEXT
  5
C9
100
AcDbEntity
100
AcDbMText
  8
FRAME050
 62
0
370
0
  6
CONTINUOUS
 10
820.7860910000000558
 20
329.625
 30
0.0
 40
4.0
 41
100.0
 71
7
 72
2
  1
D
  7
Courier
 50
0.0
 73
0
 44
1.0
  0
LINE
  5
CA
100
AcDbEntity
100
AcDbLine
  8
FRAME050
 62
0
370
0
  6
CONTINUOUS
 10
15.0
 20
89.25
 30
0.0
 11
20.0
 21
89.25
 31
0.0
  0
MTEXT
  5
CB
100
AcDbEntity
100
AcDbMText
  8
FRAME050
 62
0
370
0
  6
CONTINUOUS
 10
16.0035530000000001
 20
121.875
 30
0.0
 40
4.0
 41
100.0
 71
7
 72
2
  1
G
  7
Courier
 50
0.0
 73
0
 44
1.0
  0
LINE
  5
CC
100
AcDbEntity
100
AcDbLine
  8
FRAME050
 62
0
370
0
  6
CONTINUOUS
 10
15.0
 20
158.5
 30
0.0
 11
20.0
 21
158.5
 31
0.0
  0
MTEXT
  5
CD
100
AcDbEntity
100
AcDbMText
  8
FRAME050
 62
0
370
0
  6
CONTINUOUS
 10
16.1000000000000014
 20
191.125
 30
0.0
 40
4.0
 41
100.0
 71
7
 72
2
  1
F
  7
Courier
 50
0.0
 73
0
 44
1.0
  0
LINE
  5
CE
100
AcDbEntity
100
AcDbLine
  8
FRAME050
 62
0
370
0
  6
CONTINUOUS
 10
15.0
 20
227.75
 30
0.0
 11
20.0
 21
227.75
 31
0.0
  0
MTEXT
  5
CF
100
AcDbEntity
100
AcDbMText
  8
FRAME050
 62
0
370
0
  6
CONTINUOUS
 10
16.1000000000000014
 20
260.375
 30
0.0
 40
4.0
 41
100.0
 71
7
 72
2
  1
E
  7
Courier
 50
0.0
 73
0
 44
1.0
  0
MTEXT
  5
D0
100
AcDbEntity
100
AcDbMText
  8
FRAME050
 62
0
370
0
  6
CONTINUOUS
 10
15.7860910000000008
 20
329.625
 30
0.0
 40
4.0
 41
100.0
 71
7
 72
2
  1
D
  7
Courier
 50
0.0
 73
0
 44
1.0
  0
LINE
  5
D1
100
AcDbEntity
100
AcDbLine
  8
FRAME050
 62
0
370
0
  6
CONTINUOUS
 10
15.0
 20
366.25
 30
0.0
 11
20.0
 21
366.25
 31
0.0
  0
MTEXT
  5
D2
100
AcDbEntity
100
AcDbMText
  8
FRAME050
 62
0
370
0
  6
CONTINUOUS
 10
16.1931979999999989
 20
398.875
 30
0.0
 40
4.0
 41
100.0
 71
7
 72
2
  1
C
  7
Courier
 50
0.0
 73
0
 44
1.0
  0
LINE
  5
D3
100
AcDbEntity
100
AcDbLine
  8
FRAME050
 62
0
370
0
  6
CONTINUOUS
 10
15.0
 20
435.5
 30
0.0
 11
20.0
 21
435.5
 31
0.0
  0
MTEXT
  5
D4
100
AcDbEntity
100
AcDbMText
  8
FRAME050
 62
0
370
0
  6
CONTINUOUS
 10
15.9000000000000004
 20
468.125
 30
0.0
 40
4.0
 41
100.0
 71
7
 72
2
  1
B
  7
Courier
 50
0.0
 73
0
 44
1.0
  0
LINE
  5
D5
100
AcDbEntity
100
AcDbLine
  8
FRAME050
 62
0
370
0
  6
CONTINUOUS
 10
15.0
 20
504.75
 30
0.0
 11
20.0
 21
504.75
 31
0.0
  0
MTEXT
  5
D6
100
AcDbEntity
100
AcDbMText
  8
FRAME050
 62
0
370
0
  6
CONTINUOUS
 10
15.6999999999999993
 20
537.375
 30
0.0
 40
4.0
 41
100.0
 71
7
 72
2
  1
A
  7
Courier
 50
0.0
 73
0
 44
1.0
  0
MTEXT
  5
D7
100
AcDbEntity
100
AcDbMText
  8
FRAME050
 62
0
370
0
  6
CONTINUOUS
 10
15.9000000000000004
 20
52.625
 30
0.0
 40
4.0
 41
100.0
 71
7
 72
2
  1
H
  7
Courier
 50
0.0
 73
0
 44
1.0
  0
MTEXT
  5
D8
100
AcDbEntity
100
AcDbMText
  8
0
 62
0
370
0
  6
CONTINUOUS
 10
650.7128510000000006
 20
571.7726629999999659
 30
0.0
 40
1.8
 41
100.0
 71
7
 72
2
  1
RevNo
  7
Courier
 50
0.0
 73
0
 44
1.0
  0
MTEXT
  5
D9
100
AcDbEntity
100
AcDbMText
  8
0
 62
0
370
0
  6
CONTINUOUS
 10
662.7128510000000006
 20
571.7726629999999659
 30
0.0
 40
1.8
 41
100.0
 71
7
 72
2
  1
Revision\~note
  7
Courier
 50
0.0
 73
0
 44
1.0
  0
MTEXT
  5
DA
100
AcDbEntity
100
AcDbMText
  8
0
 62
0
370
0
  6
CONTINUOUS
 10
771.7128510000000006
 20
571.7726629999999659
 30
0.0
 40
1.8
 41
100.0
 71
7
 72
2
  1
Date
  7
Courier
 50
0.0
 73
0
 44
1.0
  0
MTEXT
  5
DB
100
AcDbEntity
100
AcDbMText
  8
0
 62
0
370
0
  6
CONTINUOUS
 10
790.9059770000000071
 20
572.0153669999999693
 30
0.0
 40
1.6000000000000001
 41
100.0
 71
7
 72
2
  1
Signature
  7
Courier
 50
0.0
 73
0
 44
1.0
  0
MTEXT
  5
DC
100
AcDbEntity
100
AcDbMText
  8
0
 62
0
370
0
  6
CONTINUOUS
 10
806.3159249999999929
 20
571.7726629999999659
 30
0.0
 40
1.8
 41
100.0
 71
7
 72
2
  1
Checked
  7
Courier
 50
0.0
 73
0
 44
1.0
  0
MTEXT
  5
DD
100
AcDbEntity
100
AcDbMText
  8
0
 62
0
370
0
  6
CONTINUOUS
 10
650.3412289999999985
 20
47.9616949999999989
 30
0.0
 40
1.8
 41
100.0
 71
7
 72
2
  1
Designed\~by
  7
Courier
 50
0.0
 73
0
 44
1.0
  0
MTEXT
  5
DE
100
AcDbEntity
100
AcDbMText
  8
0
 62
0
370
0
  6
CONTINUOUS
 10
682.3412289999999985
 20
47.9616949999999989
 30
0.0
 40
1.8
 41
100.0
 71
7
 72
2
  1
Checked\~by
  7
Courier
 50
0.0
 73
0
 44
1.0
  0
MTEXT
  5
DF
100
AcDbEntity
100
AcDbMText
  8
0
 62
0
370
0
  6
CONTINUOUS
 10
707.3412289999999985
 20
47.9616949999999989
 30
0.0
 40
1.8
 41
100.0
 71
7
 72
2
  1
Approved\~by\~-\~date
  7
Courier
 50
0.0
 73
0
 44
1.0
  0
MTEXT
  5
E0
100
AcDbEntity
100
AcDbMText
  8
0
 62
0
370
0
  6
CONTINUOUS
 10
745.3412289999999985
 20
47.9616949999999989
 30
0.0
 40
1.8
 41
100.0
 71
7
 72
2
  1
Filename
  7
Courier
 50
0.0
 73
0
 44
1.0
  0
MTEXT
  5
E1
100
AcDbEntity
100
AcDbMText
  8
0
 62
0
370
0
  6
CONTINUOUS
 10
770.3412289999999985
 20
47.9616949999999989
 30
0.0
 40
1.8
 41
100.0
 71
7
 72
2
  1
Date
  7
Courier
 50
0.0
 73
0
 44
1.0
  0
MTEXT
  5
E2
100
AcDbEntity
100
AcDbMText
  8
0
 62
0
370
0
  6
CONTINUOUS
 10
800.3412289999999985
 20
47.9616949999999989
 30
0.0
 40
1.8
 41
100.0
 71
7
 72
2
  1
Scale
  7
Courier
 50
0.0
 73
0
 44
1.0
  0
MTEXT
  5
E3
100
AcDbEntity
100
AcDbMText
  8
0
 62
0
370
0
  6
CONTINUOUS
 10
785.3412289999999985
 20
27.9616949999999989
 30
0.0
 40
1.8
 41
100.0
 71
7
 72
2
  1
Edition
  7
Courier
 50
0.0
 73
0
 44
1.0
  0
MTEXT
  5
E4
100
AcDbEntity
100
AcDbMText
  8
0
 62
0
370
0
  6
CONTINUOUS
 10
800.3412289999999985
 20
27.9616949999999989
 30
0.0
 40
1.8
 41
100.0
 71
7
 72
2
  1
Sheet
  7
Courier
 50
0.0
 73
0
 44
1.0
  0
MTEXT
  5
E5
100
AcDbEntity
100
AcDbMText
  8
0
 62
0
370
0
  6
CONTINUOUS
 10
650.709844999999973
 20
53.4087710000000015
 30
0.0
 40
1.8
 41
100.0
 71
7
 72
2
  1
Itemref
  7
Courier
 50
0.0
 73
0
 44
1.0
  0
MTEXT
  5
E6
100
AcDbEntity
100
AcDbMText
  8
0
 62
0
370
0
  6
CONTINUOUS
 10
665.709844999999973
 20
53.4087710000000015
 30
0.0
 40
1.8
 41
100.0
 71
7
 72
2
  1
Quantity
  7
Courier
 50
0.0
 73
0
 44
1.0
  0
MTEXT
  5
E7
100
AcDbEntity
100
AcDbMText
  8
0
 62
0
370
0
  6
CONTINUOUS
 10
682.709844999999973
 20
53.4087710000000015
 30
0.0
 40
1.8
 41
100.0
 71
7
 72
2
  1
Title/Name,\~designation,\~material,\~dimension\~etc
  7
Courier
 50
0.0
 73
0
 44
1.0
  0
MTEXT
  5
E8
100
AcDbEntity
100
AcDbMText
  8
0
 62
0
370
0
  6
CONTINUOUS
 10
770.709844999999973
 20
53.4087710000000015
 30
0.0
 40
1.8
 41
100.0
 71
7
 72
2
  1
Article\~No./Reference
  7
Courier
 50
0.0
 73
0
 44
1.0
  0
ENDSEC
  0
SECTION
  2
OBJECTS
  0
DICTIONARY
  5
C
100
AcDbDictionary
280
0
281
1
  3
ACAD_GROUP
350
D
  3
ACAD_LAYOUT
350
1A
  3
ACAD_MLINESTYLE
350
17
  3
ACAD_PLOTSETTINGS
350
19
  3
ACAD_PLOTSTYLENAME
350
E
  3
AcDbVariableDictionary
350
E9
  0
DICTIONARY
  5
D
100
AcDbDictionary
280
0
281
1
  0
ACDBDICTIONARYWDFLT
  5
E
100
AcDbDictionary
281
1
  3
Normal
350
F
100
AcDbDictionaryWithDefault
340
F
  0
ACDBPLACEHOLDER
  5
F
  0
DICTIONARY
  5
17
100
AcDbDictionary
280
0
281
1
  3
Standard
350
18
  0
MLINESTYLE
  5
18
100
AcDbMlineStyle
  2
STANDARD
 70
0
  3

 62
256
 51
90.0
 52
90.0
 71
2
 49
0.5
 62
256
  6
BYLAYER
 49
-0.5
 62
256
  6
BYLAYER
  0
DICTIONARY
  5
19
100
AcDbDictionary
280
0
281
1
  0
DICTIONARY
  5
1A
100
AcDbDictionary
281
1
  3
Layout1
350
1E
  3
Layout2
350
26
  3
Model
350
22
  0
LAYOUT
  5
1E
100
AcDbPlotSettings
  1

  2
C:\Program Files\AutoCAD 2002\plotters\DWF ePlot (optimized for plotting).pc3
  4

  6

 40
0.0
 41
0.0
 42
0.0
 43
0.0
 44
0.0
 45
0.0
 46
0.0
 47
0.0
 48
0.0
 49
0.0
140
0.0
141
0.0
142
1.0
143
1.0
 70
688
 72
0
 73
0
 74
5
  7

 75
16
147
1.0
148
0.0
149
0.0
100
AcDbLayout
  1
Layout1
 70
1
 71
1
 10
0.0
 20
0.0
 11
420.0
 21
297.0
 12
0.0
 22
0.0
 32
0.0
 14
100000000000000000000.0
 24
100000000000000000000.0
 34
100000000000000000000.0
 15
-100000000000000000000.0
 25
-100000000000000000000.0
 35
-100000000000000000000.0
146
0.0
 13
0.0
 23
0.0
 33
0.0
 16
1.0
 26
0.0
 36
0.0
 17
0.0
 27
1.0
 37
0.0
 76
0
330
1B
  0
LAYOUT
  5
22
100
AcDbPlotSettings
  1

  2
C:\Program Files\AutoCAD 2002\plotters\DWF ePlot (optimized for plotting).pc3
  4

  6

 40
0.0
 41
0.0
 42
0.0
 43
0.0
 44
0.0
 45
0.0
 46
0.0
 47
0.0
 48
0.0
 49
0.0
140
0.0
141
0.0
142
1.0
143
1.0
 70
1712
 72
0
 73
0
 74
0
  7

 75
0
147
1.0
148
0.0
149
0.0
100
AcDbLayout
  1
Model
 70
1
 71
0
 10
0.0
 20
0.0
 11
12.0
 21
9.0
 12
0.0
 22
0.0
 32
0.0
 14
0.0
 24
0.0
 34
0.0
 15
0.0
 25
0.0
 35
0.0
146
0.0
 13
0.0
 23
0.0
 33
0.0
 16
1.0
 26
0.0
 36
0.0
 17
0.0
 27
1.0
 37
0.0
 76
0
330
1F
  0
LAYOUT
  5
26
100
AcDbPlotSettings
  1

  2
C:\Program Files\AutoCAD 2002\plotters\DWF ePlot (optimized for plotting).pc3
  4

  6

 40
0.0
 41
0.0
 42
0.0
 43
0.0
 44
0.0
 45
0.0
 46
0.0
 47
0.0
 48
0.0
 49
0.0
140
0.0
141
0.0
142
1.0
143
1.0
 70
688
 72
0
 73
0
 74
5
  7

 75
16
147
1.0
148
0.0
149
0.0
100
AcDbLayout
  1
Layout2
 70
1
 71
2
 10
0.0
 20
0.0
 11
12.0
 21
9.0
 12
0.0
 22
0.0
 32
0.0
 14
0.0
 24
0.0
 34
0.0
 15
0.0
 25
0.0
 35
0.0
146
0.0
 13
0.0
 23
0.0
 33
0.0
 16
1.0
 26
0.0
 36
0.0
 17
0.0
 27
1.0
 37
0.0
 76
0
330
23
  0
DICTIONARY
  5
E9
100
AcDbDictionary
281
1
  3
DIMASSOC
350
EB
  3
HIDETEXT
350
EA
  0
DICTIONARYVAR
  5
EA
100
DictionaryVariables
280
0
  1
2
  0
DICTIONARYVAR
  5
EB
100
DictionaryVariables
280
0
  1
1
  0
ENDSEC
  0
EOF
