  0
SECTION
  2
HEADER
  9
$ACADVER
  1
AC1024
  9
$ACADMAINTVER
 70
     6
  9
$DWGCODEPAGE
  3
ASCII
  9
$INSBASE
 10
0.0
 20
0.0
 30
0.0
  9
$EXTMIN
 10
1.000000000000000E+20
 20
1.000000000000000E+20
 30
1.000000000000000E+20
  9
$EXTMAX
 10
-1.000000000000000E+20
 20
-1.000000000000000E+20
 30
-1.000000000000000E+20
  9
$LIMMIN
 10
0.0
 20
0.0
  9
$LIMMAX
 10
12.0
 20
9.0
  9
$ORTHOMODE
 70
     0
  9
$REGENMODE
 70
     1
  9
$FILLMODE
 70
     1
  9
$QTEXTMODE
 70
     0
  9
$MIRRTEXT
 70
     1
  9
$LTSCALE
 40
1.0
  9
$ATTMODE
 70
     1
  9
$TEXTSIZE
 40
0.2
  9
$TRACEWID
 40
0.05
  9
$TEXTSTYLE
  7
Standard
  9
$CLAYER
  8
0
  9
$CELTYPE
  6
ByLayer
  9
$CECOLOR
 62
    18
  9
$CELTSCALE
 40
1.0
  9
$DISPSILH
 70
     0
  9
$DIMSCALE
 40
1.0
  9
$DIMASZ
 40
2.5
  9
$DIMEXO
 40
0.625
  9
$DIMDLI
 40
0.38
  9
$DIMRND
 40
0.0
  9
$DIMDLE
 40
0.0
  9
$DIMEXE
 40
1.25
  9
$DIMTP
 40
0.0
  9
$DIMTM
 40
0.0
  9
$DIMTXT
 40
4.0
  9
$DIMCEN
 40
0.09
  9
$DIMTSZ
 40
0.0
  9
$DIMTOL
 70
     0
  9
$DIMLIM
 70
     0
  9
$DIMTIH
 70
     1
  9
$DIMTOH
 70
     1
  9
$DIMSE1
 70
     0
  9
$DIMSE2
 70
     0
  9
$DIMTAD
 70
     0
  9
$DIMZIN
 70
     8
  9
$DIMBLK
  1

  9
$DIMASO
 70
     1
  9
$DIMSHO
 70
     1
  9
$DIMPOST
  1

  9
$DIMAPOST
  1

  9
$DIMALT
 70
     0
  9
$DIMALTD
 70
     2
  9
$DIMALTF
 40
25.4
  9
$DIMLFAC
 40
1.0
  9
$DIMTOFL
 70
     0
  9
$DIMTVP
 40
0.0
  9
$DIMTIX
 70
     0
  9
$DIMSOXD
 70
     0
  9
$DIMSAH
 70
     0
  9
$DIMBLK1
  1

  9
$DIMBLK2
  1

  9
$DIMSTYLE
  2
Standard
  9
$DIMCLRD
 70
    18
  9
$DIMCLRE
 70
    18
  9
$DIMCLRT
 70
    18
  9
$DIMTFAC
 40
1.0
  9
$DIMGAP
 40
0.625
  9
$DIMJUST
 70
     0
  9
$DIMSD1
 70
     0
  9
$DIMSD2
 70
     0
  9
$DIMTOLJ
 70
     1
  9
$DIMTZIN
 70
     0
  9
$DIMALTZ
 70
     0
  9
$DIMALTTZ
 70
     0
  9
$DIMUPT
 70
     0
  9
$DIMDEC
 70
     4
  9
$DIMTDEC
 70
     4
  9
$DIMALTU
 70
     2
  9
$DIMALTTD
 70
     2
  9
$DIMTXSTY
  7
Standard
  9
$DIMAUNIT
 70
     0
  9
$DIMADEC
 70
     0
  9
$DIMALTRND
 40
0.0
  9
$DIMAZIN
 70
     2
  9
$DIMDSEP
 70
    46
  9
$DIMATFIT
 70
     3
  9
$DIMFRAC
 70
     0
  9
$DIMLDRBLK
  1

  9
$DIMLUNIT
 70
     2
  9
$DIMLWD
 70
    -2
  9
$DIMLWE
 70
    -2
  9
$DIMTMOVE
 70
     0
  9
$DIMFXL
 40
1.0
  9
$DIMFXLON
 70
     0
  9
$DIMJOGANG
 40
0.7853981633974483
  9
$DIMTFILL
 70
     0
  9
$DIMTFILLCLR
 70
     0
  9
$DIMARCSYM
 70
     0
  9
$DIMLTYPE
  6

  9
$DIMLTEX1
  6

  9
$DIMLTEX2
  6

  9
$DIMTXTDIRECTION
 70
     0
  9
$LUNITS
 70
     2
  9
$LUPREC
 70
     4
  9
$SKETCHINC
 40
0.1
  9
$FILLETRAD
 40
0.5
  9
$AUNITS
 70
     0
  9
$AUPREC
 70
     0
  9
$MENU
  1
.
  9
$ELEVATION
 40
0.0
  9
$PELEVATION
 40
0.0
  9
$THICKNESS
 40
0.0
  9
$LIMCHECK
 70
     0
  9
$CHAMFERA
 40
0.5
  9
$CHAMFERB
 40
0.5
  9
$CHAMFERC
 40
1.0
  9
$CHAMFERD
 40
0.0
  9
$SKPOLY
 70
     0
  9
$TDCREATE
 40
2456089.541992431
  9
$TDUCREATE
 40
2456089.500325764
  9
$TDUPDATE
 40
2456089.541992974
  9
$TDUUPDATE
 40
2456089.500326308
  9
$TDINDWG
 40
0.0000000116
  9
$TDUSRTIMER
 40
0.0000000116
  9
$USRTIMER
 70
     1
  9
$ANGBASE
 50
0.0
  9
$ANGDIR
 70
     0
  9
$PDMODE
 70
     0
  9
$PDSIZE
 40
0.0
  9
$PLINEWID
 40
0.0
  9
$SPLFRAME
 70
     0
  9
$SPLINETYPE
 70
     6
  9
$SPLINESEGS
 70
     8
  9
$HANDSEED
  5
229
  9
$SURFTAB1
 70
     6
  9
$SURFTAB2
 70
     6
  9
$SURFTYPE
 70
     6
  9
$SURFU
 70
     6
  9
$SURFV
 70
     6
  9
$UCSBASE
  2

  9
$UCSNAME
  2

  9
$UCSORG
 10
0.0
 20
0.0
 30
0.0
  9
$UCSXDIR
 10
1.0
 20
0.0
 30
0.0
  9
$UCSYDIR
 10
0.0
 20
1.0
 30
0.0
  9
$UCSORTHOREF
  2

  9
$UCSORTHOVIEW
 70
     0
  9
$UCSORGTOP
 10
0.0
 20
0.0
 30
0.0
  9
$UCSORGBOTTOM
 10
0.0
 20
0.0
 30
0.0
  9
$UCSORGLEFT
 10
0.0
 20
0.0
 30
0.0
  9
$UCSORGRIGHT
 10
0.0
 20
0.0
 30
0.0
  9
$UCSORGFRONT
 10
0.0
 20
0.0
 30
0.0
  9
$UCSORGBACK
 10
0.0
 20
0.0
 30
0.0
  9
$PUCSBASE
  2

  9
$PUCSNAME
  2

  9
$PUCSORG
 10
0.0
 20
0.0
 30
0.0
  9
$PUCSXDIR
 10
1.0
 20
0.0
 30
0.0
  9
$PUCSYDIR
 10
0.0
 20
1.0
 30
0.0
  9
$PUCSORTHOREF
  2

  9
$PUCSORTHOVIEW
 70
     0
  9
$PUCSORGTOP
 10
0.0
 20
0.0
 30
0.0
  9
$PUCSORGBOTTOM
 10
0.0
 20
0.0
 30
0.0
  9
$PUCSORGLEFT
 10
0.0
 20
0.0
 30
0.0
  9
$PUCSORGRIGHT
 10
0.0
 20
0.0
 30
0.0
  9
$PUCSORGFRONT
 10
0.0
 20
0.0
 30
0.0
  9
$PUCSORGBACK
 10
0.0
 20
0.0
 30
0.0
  9
$USERI1
 70
     0
  9
$USERI2
 70
     0
  9
$USERI3
 70
     0
  9
$USERI4
 70
     0
  9
$USERI5
 70
     0
  9
$USERR1
 40
0.0
  9
$USERR2
 40
0.0
  9
$USERR3
 40
0.0
  9
$USERR4
 40
0.0
  9
$USERR5
 40
0.0
  9
$WORLDVIEW
 70
     1
  9
$SHADEDGE
 70
     3
  9
$SHADEDIF
 70
    70
  9
$TILEMODE
 70
     1
  9
$MAXACTVP
 70
    64
  9
$PINSBASE
 10
0.0
 20
0.0
 30
0.0
  9
$PLIMCHECK
 70
     0
  9
$PEXTMIN
 10
1.000000000000000E+20
 20
1.000000000000000E+20
 30
1.000000000000000E+20
  9
$PEXTMAX
 10
-1.000000000000000E+20
 20
-1.000000000000000E+20
 30
-1.000000000000000E+20
  9
$PLIMMIN
 10
0.0
 20
0.0
  9
$PLIMMAX
 10
12.0
 20
9.0
  9
$UNITMODE
 70
     0
  9
$VISRETAIN
 70
     1
  9
$PLINEGEN
 70
     0
  9
$PSLTSCALE
 70
     1
  9
$TREEDEPTH
 70
  3020
  9
$CMLSTYLE
  2
Standard
  9
$CMLJUST
 70
     0
  9
$CMLSCALE
 40
1.0
  9
$PROXYGRAPHICS
 70
     1
  9
$MEASUREMENT
 70
     1
  9
$CELWEIGHT
370
    -1
  9
$ENDCAPS
280
     0
  9
$JOINSTYLE
280
     0
  9
$LWDISPLAY
290
     0
  9
$INSUNITS
 70
     4
  9
$HYPERLINKBASE
  1

  9
$STYLESHEET
  1

  9
$XEDIT
290
     1
  9
$CEPSNTYPE
380
     0
  9
$PSTYLEMODE
290
     1
  9
$FINGERPRINTGUID
  2
{51FC5662-DFBF-480F-AB81-0334153AAE7E}
  9
$VERSIONGUID
  2
{FAEB1C32-E019-11D5-929B-00C0DF256EC4}
  9
$EXTNAMES
290
     1
  9
$PSVPSCALE
 40
0.0
  9
$OLESTARTUP
290
     0
  9
$SORTENTS
280
   127
  9
$INDEXCTL
280
     0
  9
$HIDETEXT
280
     1
  9
$XCLIPFRAME
280
     2
  9
$HALOGAP
280
     0
  9
$OBSCOLOR
 70
   257
  9
$OBSLTYPE
280
     0
  9
$INTERSECTIONDISPLAY
280
     0
  9
$INTERSECTIONCOLOR
 70
   257
  9
$DIMASSOC
280
     2
  9
$PROJECTNAME
  1

  9
$CAMERADISPLAY
290
     0
  9
$LENSLENGTH
 40
50.0
  9
$CAMERAHEIGHT
 40
0.0
  9
$STEPSPERSEC
 40
2.0
  9
$STEPSIZE
 40
6.0
  9
$3DDWFPREC
 40
2.0
  9
$PSOLWIDTH
 40
0.25
  9
$PSOLHEIGHT
 40
4.0
  9
$LOFTANG1
 40
1.570796326794897
  9
$LOFTANG2
 40
1.570796326794897
  9
$LOFTMAG1
 40
0.0
  9
$LOFTMAG2
 40
0.0
  9
$LOFTPARAM
 70
     7
  9
$LOFTNORMALS
280
     1
  9
$LATITUDE
 40
37.795
  9
$LONGITUDE
 40
-122.394
  9
$NORTHDIRECTION
 40
0.0
  9
$TIMEZONE
 70
 -8000
  9
$LIGHTGLYPHDISPLAY
280
     1
  9
$TILEMODELIGHTSYNCH
280
     1
  9
$SOLIDHIST
280
     1
  9
$SHOWHIST
280
     1
  9
$DWFFRAME
280
     2
  9
$DGNFRAME
280
     2
  9
$REALWORLDSCALE
290
     1
  9
$INTERFERECOLOR
 62
   256
  9
$CSHADOW
280
     0
  9
$SHADOWPLANELOCATION
 40
0.0
  0
ENDSEC
  0
SECTION
  2
CLASSES
  0
CLASS
  1
ACDBDICTIONARYWDFLT
  2
AcDbDictionaryWithDefault
  3
ObjectDBX Classes
 90
        0
 91
        4
280
     0
281
     0
  0
CLASS
  1
VISUALSTYLE
  2
AcDbVisualStyle
  3
ObjectDBX Classes
 90
     4095
 91
        4
280
     0
281
     0
  0
CLASS
  1
MATERIAL
  2
AcDbMaterial
  3
ObjectDBX Classes
 90
     1153
 91
        4
280
     0
281
     0
  0
ENDSEC
  0
SECTION
  2
TABLES
  0
TABLE
  2
VPORT
  5
17A
330
0
100
AcDbSymbolTable
 70
     1
  0
VPORT
  5
19A
330
17A
100
AcDbSymbolTableRecord
100
AcDbViewportTableRecord
  2
*Active
 70
     0
 10
0.0
 20
0.0
 11
1.0
 21
1.0
 12
10.42990654205607
 22
4.5
 13
0.0
 23
0.0
 14
0.5
 24
0.5
 15
0.5
 25
0.5
 16
0.0
 26
0.0
 36
1.0
 17
0.0
 27
0.0
 37
0.0
 40
9.0
 41
1.972972972850329
 42
50.0
 43
0.0
 44
0.0
 50
0.0
 51
0.0
 71
     0
 72
   100
 73
     1
 74
     3
 75
     0
 76
     0
 77
     0
 78
     0
281
     0
 65
     1
110
0.0
120
0.0
130
0.0
111
1.0
121
0.0
131
0.0
112
0.0
122
1.0
132
0.0
 79
     0
146
0.0
 60
     3
 61
     5
292
     1
282
     1
141
0.0
142
0.0
 63
   250
  0
ENDTAB
  0
TABLE
  2
LTYPE
  5
177
330
0
100
AcDbSymbolTable
 70
    19
  0
LTYPE
  5
185
330
177
100
AcDbSymbolTableRecord
100
AcDbLinetypeTableRecord
  2
ByBlock
 70
     0
  3

 72
    65
 73
     0
 40
0.0
  0
LTYPE
  5
186
330
177
100
AcDbSymbolTableRecord
100
AcDbLinetypeTableRecord
  2
ByLayer
 70
     0
  3

 72
    65
 73
     0
 40
0.0
  0
LTYPE
  5
187
330
177
100
AcDbSymbolTableRecord
100
AcDbLinetypeTableRecord
  2
Continuous
 70
     0
  3
Solid line
 72
    65
 73
     0
 40
0.0
  0
LTYPE
  5
1CD
330
177
100
AcDbSymbolTableRecord
100
AcDbLinetypeTableRecord
  2
BORDER
 70
     0
  3

 72
    65
 73
     6
 40
42.00000000000001
 49
12.0
 74
     0
 49
-6.0
 74
     0
 49
12.0
 74
     0
 49
-5.95
 74
     0
 49
0.1
 74
     0
 49
-5.95
 74
     0
  0
LTYPE
  5
1CE
330
177
100
AcDbSymbolTableRecord
100
AcDbLinetypeTableRecord
  2
BORDER2
 70
     0
  3

 72
    65
 73
     6
 40
21.0
 49
6.0
 74
     0
 49
-3.0
 74
     0
 49
6.0
 74
     0
 49
-2.95
 74
     0
 49
0.1
 74
     0
 49
-2.95
 74
     0
  0
LTYPE
  5
1CF
330
177
100
AcDbSymbolTableRecord
100
AcDbLinetypeTableRecord
  2
BORDERX2
 70
     0
  3

 72
    65
 73
     6
 40
84.0
 49
24.0
 74
     0
 49
-12.0
 74
     0
 49
24.0
 74
     0
 49
-11.95
 74
     0
 49
0.1
 74
     0
 49
-11.95
 74
     0
  0
LTYPE
  5
1D0
330
177
100
AcDbSymbolTableRecord
100
AcDbLinetypeTableRecord
  2
CENTER
 70
     0
  3

 72
    65
 73
     4
 40
50.0
 49
32.0
 74
     0
 49
-6.0
 74
     0
 49
6.0
 74
     0
 49
-6.0
 74
     0
  0
LTYPE
  5
1D1
330
177
100
AcDbSymbolTableRecord
100
AcDbLinetypeTableRecord
  2
CENTER2
 70
     0
  3

 72
    65
 73
     4
 40
25.0
 49
16.0
 74
     0
 49
-3.0
 74
     0
 49
3.0
 74
     0
 49
-3.0
 74
     0
  0
LTYPE
  5
1D2
330
177
100
AcDbSymbolTableRecord
100
AcDbLinetypeTableRecord
  2
CENTERX2
 70
     0
  3

 72
    65
 73
     4
 40
100.0
 49
64.0
 74
     0
 49
-12.0
 74
     0
 49
12.0
 74
     0
 49
-12.0
 74
     0
  0
LTYPE
  5
1D3
330
177
100
AcDbSymbolTableRecord
100
AcDbLinetypeTableRecord
  2
DASHDOT
 70
     0
  3

 72
    65
 73
     4
 40
24.0
 49
12.0
 74
     0
 49
-5.95
 74
     0
 49
0.1
 74
     0
 49
-5.95
 74
     0
  0
LTYPE
  5
1D4
330
177
100
AcDbSymbolTableRecord
100
AcDbLinetypeTableRecord
  2
DASHDOT2
 70
     0
  3

 72
    65
 73
     4
 40
12.0
 49
6.0
 74
     0
 49
-2.95
 74
     0
 49
0.1
 74
     0
 49
-2.95
 74
     0
  0
LTYPE
  5
1D5
330
177
100
AcDbSymbolTableRecord
100
AcDbLinetypeTableRecord
  2
DASHDOTX2
 70
     0
  3

 72
    65
 73
     4
 40
48.0
 49
24.0
 74
     0
 49
-11.95
 74
     0
 49
0.1
 74
     0
 49
-11.95
 74
     0
  0
LTYPE
  5
1D6
330
177
100
AcDbSymbolTableRecord
100
AcDbLinetypeTableRecord
  2
DASHED
 70
     0
  3

 72
    65
 73
     2
 40
18.0
 49
12.0
 74
     0
 49
-6.0
 74
     0
  0
LTYPE
  5
1D7
330
177
100
AcDbSymbolTableRecord
100
AcDbLinetypeTableRecord
  2
DASHED2
 70
     0
  3

 72
    65
 73
     2
 40
9.0
 49
6.0
 74
     0
 49
-3.0
 74
     0
  0
LTYPE
  5
1D8
330
177
100
AcDbSymbolTableRecord
100
AcDbLinetypeTableRecord
  2
DASHEDX2
 70
     0
  3

 72
    65
 73
     2
 40
36.0
 49
24.0
 74
     0
 49
-12.0
 74
     0
  0
LTYPE
  5
1D9
330
177
100
AcDbSymbolTableRecord
100
AcDbLinetypeTableRecord
  2
DIVIDE
 70
     0
  3

 72
    65
 73
     6
 40
29.99999999999999
 49
12.0
 74
     0
 49
-5.9
 74
     0
 49
0.15
 74
     0
 49
-5.9
 74
     0
 49
0.15
 74
     0
 49
-5.9
 74
     0
  0
LTYPE
  5
1DA
330
177
100
AcDbSymbolTableRecord
100
AcDbLinetypeTableRecord
  2
DIVIDE2
 70
     0
  3

 72
    65
 73
     6
 40
15.0
 49
6.0
 74
     0
 49
-2.9
 74
     0
 49
0.15
 74
     0
 49
-2.9
 74
     0
 49
0.15
 74
     0
 49
-2.9
 74
     0
  0
LTYPE
  5
1DB
330
177
100
AcDbSymbolTableRecord
100
AcDbLinetypeTableRecord
  2
DIVIDEX2
 70
     0
  3

 72
    65
 73
     6
 40
59.99999999999999
 49
24.0
 74
     0
 49
-11.9
 74
     0
 49
0.15
 74
     0
 49
-11.9
 74
     0
 49
0.15
 74
     0
 49
-11.9
 74
     0
  0
LTYPE
  5
1DC
330
177
100
AcDbSymbolTableRecord
100
AcDbLinetypeTableRecord
  2
DOT
 70
     0
  3

 72
    65
 73
     2
 40
6.3
 49
0.1
 74
     0
 49
-6.2
 74
     0
  0
LTYPE
  5
1DD
330
177
100
AcDbSymbolTableRecord
100
AcDbLinetypeTableRecord
  2
DOT2
 70
     0
  3

 72
    65
 73
     2
 40
3.2
 49
0.1
 74
     0
 49
-3.1
 74
     0
  0
LTYPE
  5
1DE
330
177
100
AcDbSymbolTableRecord
100
AcDbLinetypeTableRecord
  2
DOTX2
 70
     0
  3

 72
    65
 73
     2
 40
12.5
 49
0.1
 74
     0
 49
-12.4
 74
     0
  0
ENDTAB
  0
TABLE
  2
LAYER
  5
174
330
0
100
AcDbSymbolTable
 70
    14
  0
LAYER
  5
182
330
174
100
AcDbSymbolTableRecord
100
AcDbLayerTableRecord
  2
0
 70
     0
 62
     7
420
 16777215
  6
Continuous
370
    25
390
181
347
1AF
  0
LAYER
  5
1DF
330
174
100
AcDbSymbolTableRecord
100
AcDbLayerTableRecord
  2
8.Dimension line
 70
     0
 62
   253
420
 10526884
  6
Continuous
370
     0
390
181
347
1AF
  0
LAYER
  5
1E0
330
174
100
AcDbSymbolTableRecord
100
AcDbLayerTableRecord
  2
9.Text
 70
     0
 62
     3
420
    65280
  6
Continuous
370
    18
390
181
347
1AF
  0
LAYER
  5
1E1
330
174
100
AcDbSymbolTableRecord
100
AcDbLayerTableRecord
  2
Title
 70
     0
 62
     7
420
 16777215
  6
Continuous
370
    25
390
181
347
1AF
  0
LAYER
  5
1E2
330
174
100
AcDbSymbolTableRecord
100
AcDbLayerTableRecord
  2
Border
 70
     0
 62
     7
420
 16777215
  6
Continuous
370
    25
390
181
347
1AF
  0
LAYER
  5
1E3
330
174
100
AcDbSymbolTableRecord
100
AcDbLayerTableRecord
  2
1.Outline
 70
     0
 62
     7
420
 16777215
  6
Continuous
370
    25
390
181
347
1AF
  0
LAYER
  5
1E4
330
174
100
AcDbSymbolTableRecord
100
AcDbLayerTableRecord
  2
Revision
 70
     0
 62
     7
420
 16777215
  6
Continuous
370
    25
390
181
347
1AF
  0
LAYER
  5
1E5
330
174
100
AcDbSymbolTableRecord
100
AcDbLayerTableRecord
  2
Title block 2 (handy)
 70
     1
 62
     7
420
 16777215
  6
Continuous
370
    25
390
181
347
1AF
  0
LAYER
  5
1E6
330
174
100
AcDbSymbolTableRecord
100
AcDbLayerTableRecord
  2
2.Hidden
 70
     0
 62
     5
420
      255
  6
DASHED
370
     0
390
181
347
1AF
  0
LAYER
  5
1E7
330
174
100
AcDbSymbolTableRecord
100
AcDbLayerTableRecord
  2
3.Center
 70
     0
 62
     1
420
 16711680
  6
CENTER
370
    13
390
181
347
1AF
  0
LAYER
  5
1E8
330
174
100
AcDbSymbolTableRecord
100
AcDbLayerTableRecord
  2
4.Note
 70
     0
 62
     4
420
    65535
  6
Continuous
370
    18
390
181
347
1AF
  0
LAYER
  5
1E9
330
174
100
AcDbSymbolTableRecord
100
AcDbLayerTableRecord
  2
5.Thin line
 70
     0
 62
     9
420
 12632256
  6
Continuous
370
     0
390
181
347
1AF
  0
LAYER
  5
1EA
330
174
100
AcDbSymbolTableRecord
100
AcDbLayerTableRecord
  2
6.Construction line
 70
     0
 62
     6
420
 16711935
  6
Continuous
370
     0
390
181
347
1AF
  0
LAYER
  5
1EB
330
174
100
AcDbSymbolTableRecord
100
AcDbLayerTableRecord
  2
7.Hatch
 70
     0
 62
   253
420
 10526884
  6
Continuous
370
     0
390
181
347
1AF
  0
ENDTAB
  0
TABLE
  2
STYLE
  5
175
330
0
100
AcDbSymbolTable
 70
    51
  0
STYLE
  5
183
330
175
100
AcDbSymbolTableRecord
100
AcDbTextStyleTableRecord
  2
Standard
 70
     0
 40
0.0
 41
1.0
 50
0.0
 71
     0
 42
0.2
  3
txt
  4

  0
STYLE
  5
1F5
330
175
100
AcDbSymbolTableRecord
100
AcDbTextStyleTableRecord
  2
textstyle0
 70
     0
 40
0.0
 41
1.0
 50
0.0
 71
     0
 42
0.2
  3

  4

1001
ACAD
1000
Arial
1071
        0
  0
STYLE
  5
1F6
330
175
100
AcDbSymbolTableRecord
100
AcDbTextStyleTableRecord
  2
textstyle1
 70
     0
 40
0.0
 41
1.0
 50
0.0
 71
     0
 42
0.2
  3

  4

1001
ACAD
1000
Arial
1071
        0
  0
STYLE
  5
1F7
330
175
100
AcDbSymbolTableRecord
100
AcDbTextStyleTableRecord
  2
textstyle2
 70
     0
 40
0.0
 41
1.0
 50
0.0
 71
     0
 42
0.2
  3

  4

1001
ACAD
1000
Arial
1071
        0
  0
STYLE
  5
1F8
330
175
100
AcDbSymbolTableRecord
100
AcDbTextStyleTableRecord
  2
textstyle3
 70
     0
 40
0.0
 41
1.0
 50
0.0
 71
     0
 42
0.2
  3

  4

1001
ACAD
1000
Arial
1071
        0
  0
STYLE
  5
1F9
330
175
100
AcDbSymbolTableRecord
100
AcDbTextStyleTableRecord
  2
textstyle4
 70
     0
 40
0.0
 41
1.0
 50
0.0
 71
     0
 42
0.2
  3

  4

1001
ACAD
1000
Arial
1071
        0
  0
STYLE
  5
1FA
330
175
100
AcDbSymbolTableRecord
100
AcDbTextStyleTableRecord
  2
textstyle5
 70
     0
 40
0.0
 41
1.0
 50
0.0
 71
     0
 42
0.2
  3

  4

1001
ACAD
1000
Arial
1071
        0
  0
STYLE
  5
1FB
330
175
100
AcDbSymbolTableRecord
100
AcDbTextStyleTableRecord
  2
textstyle6
 70
     0
 40
0.0
 41
1.0
 50
0.0
 71
     0
 42
0.2
  3

  4

1001
ACAD
1000
Arial
1071
        0
  0
STYLE
  5
1FC
330
175
100
AcDbSymbolTableRecord
100
AcDbTextStyleTableRecord
  2
textstyle7
 70
     0
 40
0.0
 41
1.0
 50
0.0
 71
     0
 42
0.2
  3

  4

1001
ACAD
1000
Arial
1071
        0
  0
STYLE
  5
1FD
330
175
100
AcDbSymbolTableRecord
100
AcDbTextStyleTableRecord
  2
textstyle8
 70
     0
 40
0.0
 41
1.0
 50
0.0
 71
     0
 42
0.2
  3

  4

1001
ACAD
1000
Arial
1071
        0
  0
STYLE
  5
1FE
330
175
100
AcDbSymbolTableRecord
100
AcDbTextStyleTableRecord
  2
textstyle9
 70
     0
 40
0.0
 41
1.0
 50
0.0
 71
     0
 42
0.2
  3

  4

1001
ACAD
1000
Arial
1071
        0
  0
STYLE
  5
1FF
330
175
100
AcDbSymbolTableRecord
100
AcDbTextStyleTableRecord
  2
textstyle10
 70
     0
 40
0.0
 41
1.0
 50
0.0
 71
     0
 42
0.2
  3

  4

1001
ACAD
1000
Arial
1071
        0
  0
STYLE
  5
200
330
175
100
AcDbSymbolTableRecord
100
AcDbTextStyleTableRecord
  2
textstyle11
 70
     0
 40
0.0
 41
1.0
 50
0.0
 71
     0
 42
0.2
  3

  4

1001
ACAD
1000
Arial
1071
        0
  0
STYLE
  5
201
330
175
100
AcDbSymbolTableRecord
100
AcDbTextStyleTableRecord
  2
textstyle12
 70
     0
 40
0.0
 41
1.0
 50
0.0
 71
     0
 42
0.2
  3

  4

1001
ACAD
1000
Arial
1071
        0
  0
STYLE
  5
202
330
175
100
AcDbSymbolTableRecord
100
AcDbTextStyleTableRecord
  2
textstyle13
 70
     0
 40
0.0
 41
1.0
 50
0.0
 71
     0
 42
0.2
  3

  4

1001
ACAD
1000
Arial
1071
        0
  0
STYLE
  5
203
330
175
100
AcDbSymbolTableRecord
100
AcDbTextStyleTableRecord
  2
textstyle14
 70
     0
 40
0.0
 41
1.0
 50
0.0
 71
     0
 42
0.2
  3

  4

1001
ACAD
1000
Arial
1071
        0
  0
STYLE
  5
204
330
175
100
AcDbSymbolTableRecord
100
AcDbTextStyleTableRecord
  2
textstyle15
 70
     0
 40
0.0
 41
1.0
 50
0.0
 71
     0
 42
0.2
  3

  4

1001
ACAD
1000
Arial
1071
        0
  0
STYLE
  5
205
330
175
100
AcDbSymbolTableRecord
100
AcDbTextStyleTableRecord
  2
textstyle16
 70
     0
 40
0.0
 41
1.0
 50
0.0
 71
     0
 42
0.2
  3

  4

1001
ACAD
1000
Arial
1071
        0
  0
STYLE
  5
206
330
175
100
AcDbSymbolTableRecord
100
AcDbTextStyleTableRecord
  2
textstyle17
 70
     0
 40
0.0
 41
1.0
 50
0.0
 71
     0
 42
0.2
  3

  4

1001
ACAD
1000
Arial
1071
        0
  0
STYLE
  5
207
330
175
100
AcDbSymbolTableRecord
100
AcDbTextStyleTableRecord
  2
textstyle18
 70
     0
 40
0.0
 41
1.0
 50
0.0
 71
     0
 42
0.2
  3

  4

1001
ACAD
1000
Arial
1071
        0
  0
STYLE
  5
208
330
175
100
AcDbSymbolTableRecord
100
AcDbTextStyleTableRecord
  2
textstyle19
 70
     0
 40
0.0
 41
1.0
 50
0.0
 71
     0
 42
0.2
  3

  4

1001
ACAD
1000
Arial
1071
        0
  0
STYLE
  5
209
330
175
100
AcDbSymbolTableRecord
100
AcDbTextStyleTableRecord
  2
textstyle20
 70
     0
 40
0.0
 41
1.0
 50
0.0
 71
     0
 42
0.2
  3

  4

1001
ACAD
1000
Arial
1071
        0
  0
STYLE
  5
20A
330
175
100
AcDbSymbolTableRecord
100
AcDbTextStyleTableRecord
  2
textstyle21
 70
     0
 40
0.0
 41
1.0
 50
0.0
 71
     0
 42
0.2
  3

  4

1001
ACAD
1000
Arial
1071
        0
  0
STYLE
  5
20B
330
175
100
AcDbSymbolTableRecord
100
AcDbTextStyleTableRecord
  2
textstyle22
 70
     0
 40
0.0
 41
1.0
 50
0.0
 71
     0
 42
0.2
  3

  4

1001
ACAD
1000
Arial
1071
        0
  0
STYLE
  5
20C
330
175
100
AcDbSymbolTableRecord
100
AcDbTextStyleTableRecord
  2
textstyle23
 70
     0
 40
0.0
 41
1.0
 50
0.0
 71
     0
 42
0.2
  3

  4

1001
ACAD
1000
Arial
1071
        0
  0
STYLE
  5
20D
330
175
100
AcDbSymbolTableRecord
100
AcDbTextStyleTableRecord
  2
textstyle24
 70
     0
 40
0.0
 41
1.0
 50
0.0
 71
     0
 42
0.2
  3

  4

1001
ACAD
1000
Arial
1071
        0
  0
STYLE
  5
20E
330
175
100
AcDbSymbolTableRecord
100
AcDbTextStyleTableRecord
  2
textstyle25
 70
     0
 40
0.0
 41
1.0
 50
0.0
 71
     0
 42
0.2
  3

  4

1001
ACAD
1000
Arial
1071
        0
  0
STYLE
  5
20F
330
175
100
AcDbSymbolTableRecord
100
AcDbTextStyleTableRecord
  2
textstyle26
 70
     0
 40
0.0
 41
1.0
 50
0.0
 71
     0
 42
0.2
  3

  4

1001
ACAD
1000
Arial
1071
        0
  0
STYLE
  5
210
330
175
100
AcDbSymbolTableRecord
100
AcDbTextStyleTableRecord
  2
textstyle27
 70
     0
 40
0.0
 41
1.0
 50
0.0
 71
     0
 42
0.2
  3

  4

1001
ACAD
1000
Arial
1071
        0
  0
STYLE
  5
211
330
175
100
AcDbSymbolTableRecord
100
AcDbTextStyleTableRecord
  2
textstyle28
 70
     0
 40
0.0
 41
1.0
 50
0.0
 71
     0
 42
0.2
  3

  4

1001
ACAD
1000
Arial
1071
        0
  0
STYLE
  5
212
330
175
100
AcDbSymbolTableRecord
100
AcDbTextStyleTableRecord
  2
textstyle29
 70
     0
 40
0.0
 41
1.0
 50
0.0
 71
     0
 42
0.2
  3

  4

1001
ACAD
1000
Arial
1071
        0
  0
STYLE
  5
213
330
175
100
AcDbSymbolTableRecord
100
AcDbTextStyleTableRecord
  2
textstyle30
 70
     0
 40
0.0
 41
1.0
 50
0.0
 71
     0
 42
0.2
  3

  4

1001
ACAD
1000
Arial
1071
        0
  0
STYLE
  5
214
330
175
100
AcDbSymbolTableRecord
100
AcDbTextStyleTableRecord
  2
textstyle31
 70
     0
 40
0.0
 41
1.0
 50
0.0
 71
     0
 42
0.2
  3

  4

1001
ACAD
1000
Arial
1071
        0
  0
STYLE
  5
215
330
175
100
AcDbSymbolTableRecord
100
AcDbTextStyleTableRecord
  2
textstyle32
 70
     0
 40
0.0
 41
1.0
 50
0.0
 71
     0
 42
0.2
  3

  4

1001
ACAD
1000
Arial
1071
        0
  0
STYLE
  5
216
330
175
100
AcDbSymbolTableRecord
100
AcDbTextStyleTableRecord
  2
textstyle33
 70
     0
 40
0.0
 41
1.0
 50
0.0
 71
     0
 42
0.2
  3

  4

1001
ACAD
1000
Arial
1071
        0
  0
STYLE
  5
217
330
175
100
AcDbSymbolTableRecord
100
AcDbTextStyleTableRecord
  2
textstyle34
 70
     0
 40
0.0
 41
1.0
 50
0.0
 71
     0
 42
0.2
  3

  4

1001
ACAD
1000
Arial
1071
        0
  0
STYLE
  5
218
330
175
100
AcDbSymbolTableRecord
100
AcDbTextStyleTableRecord
  2
textstyle35
 70
     0
 40
0.0
 41
1.0
 50
0.0
 71
     0
 42
0.2
  3

  4

1001
ACAD
1000
Arial
1071
        0
  0
STYLE
  5
219
330
175
100
AcDbSymbolTableRecord
100
AcDbTextStyleTableRecord
  2
textstyle36
 70
     0
 40
0.0
 41
1.0
 50
0.0
 71
     0
 42
0.2
  3

  4

1001
ACAD
1000
Century Gothic
1071
        0
  0
STYLE
  5
21A
330
175
100
AcDbSymbolTableRecord
100
AcDbTextStyleTableRecord
  2
textstyle37
 70
     0
 40
0.0
 41
1.0
 50
0.0
 71
     0
 42
0.2
  3

  4

1001
ACAD
1000
Century Gothic
1071
        0
  0
STYLE
  5
21B
330
175
100
AcDbSymbolTableRecord
100
AcDbTextStyleTableRecord
  2
textstyle38
 70
     0
 40
0.0
 41
1.0
 50
0.0
 71
     0
 42
0.2
  3

  4

1001
ACAD
1000
Century Gothic
1071
        0
  0
STYLE
  5
21C
330
175
100
AcDbSymbolTableRecord
100
AcDbTextStyleTableRecord
  2
textstyle39
 70
     0
 40
0.0
 41
1.0
 50
0.0
 71
     0
 42
0.2
  3

  4

1001
ACAD
1000
Century Gothic
1071
        0
  0
STYLE
  5
21D
330
175
100
AcDbSymbolTableRecord
100
AcDbTextStyleTableRecord
  2
textstyle40
 70
     0
 40
0.0
 41
1.0
 50
0.0
 71
     0
 42
0.2
  3

  4

1001
ACAD
1000
Century Gothic
1071
        0
  0
STYLE
  5
21E
330
175
100
AcDbSymbolTableRecord
100
AcDbTextStyleTableRecord
  2
textstyle41
 70
     0
 40
0.0
 41
1.0
 50
0.0
 71
     0
 42
0.2
  3

  4

1001
ACAD
1000
Century Gothic
1071
        0
  0
STYLE
  5
21F
330
175
100
AcDbSymbolTableRecord
100
AcDbTextStyleTableRecord
  2
textstyle42
 70
     0
 40
0.0
 41
1.0
 50
0.0
 71
     0
 42
0.2
  3

  4

1001
ACAD
1000
Century Gothic
1071
        0
  0
STYLE
  5
220
330
175
100
AcDbSymbolTableRecord
100
AcDbTextStyleTableRecord
  2
textstyle43
 70
     0
 40
0.0
 41
1.0
 50
0.0
 71
     0
 42
0.2
  3

  4

1001
ACAD
1000
Century Gothic
1071
        0
  0
STYLE
  5
221
330
175
100
AcDbSymbolTableRecord
100
AcDbTextStyleTableRecord
  2
textstyle44
 70
     0
 40
0.0
 41
1.0
 50
0.0
 71
     0
 42
0.2
  3

  4

1001
ACAD
1000
Century Gothic
1071
        0
  0
STYLE
  5
222
330
175
100
AcDbSymbolTableRecord
100
AcDbTextStyleTableRecord
  2
textstyle45
 70
     0
 40
0.0
 41
1.0
 50
0.0
 71
     0
 42
0.2
  3

  4

1001
ACAD
1000
Century Gothic
1071
        0
  0
STYLE
  5
223
330
175
100
AcDbSymbolTableRecord
100
AcDbTextStyleTableRecord
  2
textstyle46
 70
     0
 40
0.0
 41
1.0
 50
0.0
 71
     0
 42
0.2
  3

  4

1001
ACAD
1000
Century Gothic
1071
        0
  0
STYLE
  5
224
330
175
100
AcDbSymbolTableRecord
100
AcDbTextStyleTableRecord
  2
textstyle47
 70
     0
 40
0.0
 41
1.0
 50
0.0
 71
     0
 42
0.2
  3

  4

1001
ACAD
1000
Century Gothic
1071
        0
  0
STYLE
  5
225
330
175
100
AcDbSymbolTableRecord
100
AcDbTextStyleTableRecord
  2
textstyle48
 70
     0
 40
0.0
 41
1.0
 50
0.0
 71
     0
 42
0.2
  3

  4

1001
ACAD
1000
Century Gothic
1071
        0
  0
STYLE
  5
226
330
175
100
AcDbSymbolTableRecord
100
AcDbTextStyleTableRecord
  2
textstyle49
 70
     0
 40
0.0
 41
1.0
 50
0.0
 71
     0
 42
0.2
  3

  4

1001
ACAD
1000
Century Gothic
1071
        0
  0
ENDTAB
  0
TABLE
  2
VIEW
  5
178
330
0
100
AcDbSymbolTable
 70
     0
  0
ENDTAB
  0
TABLE
  2
UCS
  5
179
330
0
100
AcDbSymbolTable
 70
     0
  0
ENDTAB
  0
TABLE
  2
APPID
  5
17B
330
0
100
AcDbSymbolTable
 70
     2
  0
APPID
  5
184
330
17B
100
AcDbSymbolTableRecord
100
AcDbRegAppTableRecord
  2
ACAD
 70
     0
  0
APPID
  5
1B0
330
17B
100
AcDbSymbolTableRecord
100
AcDbRegAppTableRecord
  2
QCAD
 70
     0
  0
ENDTAB
  0
TABLE
  2
DIMSTYLE
  5
17C
330
0
100
AcDbSymbolTable
 70
     2
100
AcDbDimStyleTable
  0
DIMSTYLE
105
198
330
17C
100
AcDbSymbolTableRecord
100
AcDbDimStyleTableRecord
  2
Standard
 70
     0
178
     0
340
183
  0
DIMSTYLE
105
1CC
330
17C
100
AcDbSymbolTableRecord
100
AcDbDimStyleTableRecord
  2
QCADDimStyle
 70
     0
 41
2.5
 42
0.625
 44
1.25
 73
     0
 77
     1
140
4.0
147
0.625
178
     0
340
183
  0
ENDTAB
  0
TABLE
  2
BLOCK_RECORD
  5
173
330
0
100
AcDbSymbolTable
 70
     4
  0
BLOCK_RECORD
  5
190
330
173
100
AcDbSymbolTableRecord
100
AcDbBlockTableRecord
  2
*Model_Space
340
193
 70
     0
280
     1
281
     0
  0
BLOCK_RECORD
  5
18C
330
173
100
AcDbSymbolTableRecord
100
AcDbBlockTableRecord
  2
*Paper_Space
340
18F
 70
     0
280
     1
281
     0
  0
BLOCK_RECORD
  5
194
330
173
100
AcDbSymbolTableRecord
100
AcDbBlockTableRecord
  2
*Paper_Space0
340
197
 70
     0
280
     1
281
     0
  0
BLOCK_RECORD
  5
1EC
330
173
100
AcDbSymbolTableRecord
100
AcDbBlockTableRecord
  2
Revision
340
0
102
{BLKREFS
331
122
102
}
 70
     0
280
     1
281
     0
  0
BLOCK_RECORD
  5
1EF
330
173
100
AcDbSymbolTableRecord
100
AcDbBlockTableRecord
  2
Title
340
0
102
{BLKREFS
331
124
102
}
 70
     0
280
     1
281
     0
  0
BLOCK_RECORD
  5
1F2
330
173
100
AcDbSymbolTableRecord
100
AcDbBlockTableRecord
  2
Title block 2 (handy)
340
0
102
{BLKREFS
331
167
102
}
 70
     0
280
     1
281
     0
  0
ENDTAB
  0
ENDSEC
  0
SECTION
  2
BLOCKS
  0
BLOCK
  5
191
330
190
100
AcDbEntity
  8
0
100
AcDbBlockBegin
  2
*Model_Space
 70
     0
 10
0.0
 20
0.0
 30
0.0
  3
*Model_Space
  1

  0
ENDBLK
  5
192
330
190
100
AcDbEntity
  8
0
100
AcDbBlockEnd
  0
BLOCK
  5
18D
330
18C
100
AcDbEntity
 67
     1
  8
0
100
AcDbBlockBegin
  2
*Paper_Space
 70
     0
 10
0.0
 20
0.0
 30
0.0
  3
*Paper_Space
  1

  0
ENDBLK
  5
18E
330
18C
100
AcDbEntity
 67
     1
  8
0
100
AcDbBlockEnd
  0
BLOCK
  5
195
330
194
100
AcDbEntity
  8
0
100
AcDbBlockBegin
  2
*Paper_Space0
 70
     0
 10
0.0
 20
0.0
 30
0.0
  3
*Paper_Space0
  1

  0
ENDBLK
  5
196
330
194
100
AcDbEntity
  8
0
100
AcDbBlockEnd
  0
BLOCK
  5
1ED
330
1EC
100
AcDbEntity
  8
0
100
AcDbBlockBegin
  2
Revision
 70
     0
 10
0.0
 20
0.0
 30
0.0
  3
Revision
  1

  0
MTEXT
  5
E4
330
1EC
100
AcDbEntity
  8
Revision
100
AcDbMText
 10
-146.5429576580047
 20
-3.000000000000568
 30
0.0
 40
1.8
 41
0.0
 46
0.0
 71
     5
 72
     1
  1
Revision note
  7
textstyle0
 73
     1
 44
1.0
  0
MTEXT
  5
E5
330
1EC
100
AcDbEntity
  8
Revision
100
AcDbMText
 10
-43.55038933388607
 20
-2.999999999999943
 30
0.0
 40
1.8
 41
0.0
 46
0.0
 71
     5
 72
     1
  1
Date
  7
textstyle1
 73
     1
 44
1.0
  0
MTEXT
  5
E6
330
1EC
100
AcDbEntity
  8
Revision
100
AcDbMText
 10
-21.49999999999989
 20
-2.999999999999943
 30
0.0
 40
1.8
 41
0.0
 46
0.0
 71
     5
 72
     1
  1
Signature
  7
textstyle2
 73
     1
 44
1.0
  0
MTEXT
  5
E7
330
1EC
100
AcDbEntity
  8
Revision
100
AcDbMText
 10
-7.837882783136308
 20
-2.999999999999943
 30
0.0
 40
1.8
 41
0.0
 46
0.0
 71
     5
 72
     1
  1
Checked
  7
textstyle3
 73
     1
 44
1.0
  0
LINE
  5
E8
330
1EC
100
AcDbEntity
  8
Revision
100
AcDbLine
 10
-170.0
 20
-11.99999999999994
 30
0.0
 11
0.0
 21
-11.99999999999994
 31
0.0
  0
LINE
  5
E9
330
1EC
100
AcDbEntity
  8
Revision
100
AcDbLine
 10
0.0
 20
-5.999999999999943
 30
0.0
 11
-170.0
 21
-5.999999999999943
 31
0.0
  0
LINE
  5
EA
330
1EC
100
AcDbEntity
  8
Revision
100
AcDbLine
 10
-170.0
 20
-5.999999999999943
 30
0.0
 11
-170.0
 21
-11.99999999999994
 31
0.0
  0
LINE
  5
EB
330
1EC
100
AcDbEntity
  8
Revision
100
AcDbLine
 10
-158.0000000000001
 20
-5.999999999999943
 30
0.0
 11
-158.0000000000001
 21
-11.99999999999994
 31
0.0
  0
LINE
  5
EC
330
1EC
100
AcDbEntity
  8
Revision
100
AcDbLine
 10
-48.99999999999997
 20
-5.999999999999886
 30
0.0
 11
-48.99999999999997
 21
-11.99999999999994
 31
0.0
  0
LINE
  5
ED
330
1EC
100
AcDbEntity
  8
Revision
100
AcDbLine
 10
-28.99999999999977
 20
-5.999999999999943
 30
0.0
 11
-28.99999999999977
 21
-11.99999999999994
 31
0.0
  0
LINE
  5
EE
330
1EC
100
AcDbEntity
  8
Revision
100
AcDbLine
 10
-14.0
 20
-6.000000000000284
 30
0.0
 11
-14.0
 21
-11.99999999999994
 31
0.0
  0
LINE
  5
EF
330
1EC
100
AcDbEntity
  8
Revision
100
AcDbLine
 10
-169.9999999999999
 20
0.0000000000000568
 30
0.0
 11
-14.0
 21
0.0000000000000568
 31
0.0
  0
LINE
  5
F0
330
1EC
100
AcDbEntity
  8
Revision
100
AcDbLine
 10
0.0
 20
-11.99999999999994
 30
0.0
 11
0.0
 21
-5.999999999999943
 31
0.0
  0
LINE
  5
F1
330
1EC
100
AcDbEntity
  8
Revision
100
AcDbLine
 10
0.0
 20
-6.000000000000057
 30
0.0
 11
0.0
 21
-0.0000000000000568
 31
0.0
  0
LINE
  5
F2
330
1EC
100
AcDbEntity
  8
Revision
100
AcDbLine
 10
0.0
 20
-0.0000000000000568
 30
0.0
 11
-14.0
 21
0.0000000000000568
 31
0.0
  0
LINE
  5
F3
330
1EC
100
AcDbEntity
  8
Revision
100
AcDbLine
 10
-170.0
 20
-5.999999999999943
 30
0.0
 11
-169.9999999999999
 21
0.0000000000000568
 31
0.0
  0
LINE
  5
F4
330
1EC
100
AcDbEntity
  8
Revision
100
AcDbLine
 10
-170.0
 20
-5.999999999999943
 30
0.0
 11
-169.9999999999999
 21
-5.999999999999943
 31
0.0
  0
LINE
  5
F5
330
1EC
100
AcDbEntity
  8
Revision
100
AcDbLine
 10
-158.0000000000001
 20
-5.999999999999886
 30
0.0
 11
-157.9999999999999
 21
0.0000000000000568
 31
0.0
  0
LINE
  5
F6
330
1EC
100
AcDbEntity
  8
Revision
100
AcDbLine
 10
-48.99999999999997
 20
-5.999999999999886
 30
0.0
 11
-48.99999999999989
 21
0.0000000000000568
 31
0.0
  0
LINE
  5
F7
330
1EC
100
AcDbEntity
  8
Revision
100
AcDbLine
 10
-28.99999999999977
 20
-6.000000000000284
 30
0.0
 11
-28.99999999999989
 21
0.0000000000000568
 31
0.0
  0
LINE
  5
F8
330
1EC
100
AcDbEntity
  8
Revision
100
AcDbLine
 10
-14.0
 20
-5.999999999999943
 30
0.0
 11
-14.0
 21
0.0000000000000568
 31
0.0
  0
LINE
  5
F9
330
1EC
100
AcDbEntity
  8
Revision
100
AcDbLine
 10
-48.99999999999997
 20
-6.000000000000284
 30
0.0
 11
-28.99999999999989
 21
-6.000000000000284
 31
0.0
  0
LINE
  5
FA
330
1EC
100
AcDbEntity
  8
Revision
100
AcDbLine
 10
-28.99999999999989
 20
-6.000000000000284
 30
0.0
 11
-14.0
 21
-6.000000000000284
 31
0.0
  0
LINE
  5
FB
330
1EC
100
AcDbEntity
  8
Revision
100
AcDbLine
 10
-14.0
 20
-6.000000000000284
 30
0.0
 11
0.0000000000002274
 21
-6.000000000000284
 31
0.0
  0
LINE
  5
FC
330
1EC
100
AcDbEntity
  8
Revision
100
AcDbLine
 10
-158.0000000000001
 20
-5.999999999999943
 30
0.0
 11
-48.99999999999997
 21
-6.000000000000284
 31
0.0
  0
LINE
  5
FD
330
1EC
100
AcDbEntity
  8
Revision
100
AcDbLine
 10
-169.9999999999999
 20
-5.999999999999943
 30
0.0
 11
-158.0000000000001
 21
-5.999999999999943
 31
0.0
  0
MTEXT
  5
FE
330
1EC
100
AcDbEntity
  8
Revision
100
AcDbMText
 10
-164.0
 20
-3.000000000000682
 30
0.0
 40
1.8
 41
0.0
 46
0.0
 71
     5
 72
     1
  1
Rev No
  7
textstyle4
 73
     1
 44
1.0
  0
ENDBLK
  5
1EE
330
1EC
100
AcDbEntity
  8
0
100
AcDbBlockEnd
  0
BLOCK
  5
1F0
330
1EF
100
AcDbEntity
  8
0
100
AcDbBlockBegin
  2
Title
 70
     0
 10
0.0
 20
0.0
 30
0.0
  3
Title
  1

  0
LINE
  5
100
330
1EF
100
AcDbEntity
  8
Title
100
AcDbLine
 10
-155.0
 20
29.99999999999897
 30
0.0
 11
-155.0
 21
35.99999999999887
 31
0.0
  0
LINE
  5
101
330
1EF
100
AcDbEntity
  8
Title
100
AcDbLine
 10
-170.0
 20
29.99999999999873
 30
0.0
 11
-170.0
 21
35.99999999999881
 31
0.0
  0
LINE
  5
102
330
1EF
100
AcDbEntity
  8
Title
100
AcDbLine
 10
-137.9999999999999
 20
29.99999999999864
 30
0.0
 11
-138.0
 21
35.99999999999938
 31
0.0
  0
LINE
  5
103
330
1EF
100
AcDbEntity
  8
Title
100
AcDbLine
 10
-50.0
 20
29.99999999999931
 30
0.0
 11
-50.0
 21
35.99999999999864
 31
0.0
  0
MTEXT
  5
104
330
1EF
100
AcDbEntity
  8
Title
100
AcDbMText
 10
-148.6949180353247
 20
32.99999999999884
 30
0.0
 40
1.8
 41
0.0
 46
0.0
 71
     5
 72
     1
  1
Quantitiy
  7
textstyle5
 73
     1
 44
1.0
  0
MTEXT
  5
105
330
1EF
100
AcDbEntity
  8
Title
100
AcDbMText
 10
-164.0480687203525
 20
32.99999999999876
 30
0.0
 40
1.8
 41
0.0
 46
0.0
 71
     5
 72
     1
  1
Item ref
  7
textstyle6
 73
     1
 44
1.0
  0
MTEXT
  5
106
330
1EF
100
AcDbEntity
  8
Title
100
AcDbMText
 10
-109.9853785422227
 20
32.99999999999884
 30
0.0
 40
1.8
 41
0.0
 46
0.0
 71
     5
 72
     1
  1
Title/Name, destination, material, dimension etc
  7
textstyle7
 73
     1
 44
1.0
  0
MTEXT
  5
107
330
1EF
100
AcDbEntity
  8
Title
100
AcDbMText
 10
-36.19225641992972
 20
32.9999999999989
 30
0.0
 40
1.8
 41
0.0
 46
0.0
 71
     5
 72
     1
  1
Article No./Reference
  7
textstyle8
 73
     1
 44
1.0
  0
MTEXT
  5
108
330
1EF
100
AcDbEntity
  8
Title
100
AcDbMText
 10
-161.238768807773
 20
27.49999999999874
 30
0.0
 40
1.8
 41
0.0
 46
0.0
 71
     5
 72
     1
  1
Designed by
  7
textstyle9
 73
     1
 44
1.0
  0
MTEXT
  5
109
330
1EF
100
AcDbEntity
  8
Title
100
AcDbMText
 10
-129.8791418766524
 20
27.49999999999873
 30
0.0
 40
1.8
 41
0.0
 46
0.0
 71
     5
 72
     1
  1
Checked by
  7
textstyle10
 73
     1
 44
1.0
  0
MTEXT
  5
10A
330
1EF
100
AcDbEntity
  8
Title
100
AcDbMText
 10
-96.1675429256978
 20
27.49999999999867
 30
0.0
 40
1.8
 41
0.0
 46
0.0
 71
     5
 72
     1
  1
Approved by - date
  7
textstyle11
 73
     1
 44
1.0
  0
MTEXT
  5
10B
330
1EF
100
AcDbEntity
  8
Title
100
AcDbMText
 10
-66.7678926777722
 20
27.49999999999864
 30
0.0
 40
1.8
 41
0.0
 46
0.0
 71
     5
 72
     1
  1
Filename
  7
textstyle12
 73
     1
 44
1.0
  0
MTEXT
  5
10C
330
1EF
100
AcDbEntity
  8
Title
100
AcDbMText
 10
-45.79614216758539
 20
27.49999999999859
 30
0.0
 40
1.8
 41
0.0
 46
0.0
 71
     5
 72
     1
  1
Date
  7
textstyle13
 73
     1
 44
1.0
  0
MTEXT
  5
10D
330
1EF
100
AcDbEntity
  8
Title
100
AcDbMText
 10
-15.02450824142329
 20
27.4999999999985
 30
0.0
 40
1.8
 41
0.0
 46
0.0
 71
     5
 72
     1
  1
Scale
  7
textstyle14
 73
     1
 44
1.0
  0
MTEXT
  5
10E
330
1EF
100
AcDbEntity
  8
Title
100
AcDbMText
 10
-29.33233802874713
 20
7.499999999999808
 30
0.0
 40
1.8
 41
0.0
 46
0.0
 71
     5
 72
     1
  1
Edition
  7
textstyle15
 73
     1
 44
1.0
  0
MTEXT
  5
10F
330
1EF
100
AcDbEntity
  8
Title
100
AcDbMText
 10
-14.24051756814532
 20
7.499999999999915
 30
0.0
 40
1.8
 41
0.0
 46
0.0
 71
     5
 72
     1
  1
Sheet
  7
textstyle16
 73
     1
 44
1.0
  0
MTEXT
  5
110
330
1EF
100
AcDbEntity
  8
Title
100
AcDbMText
 10
-155.7508340948269
 20
14.99999999999881
 30
0.0
 40
1.8
 41
0.0
 46
0.0
 71
     5
 72
     1
  1
Logo etc
  7
textstyle17
 73
     1
 44
1.0
  0
LINE
  5
111
330
1EF
100
AcDbEntity
  8
Title
100
AcDbLine
 10
0.0
 20
0.0
 30
0.0
 11
0.0
 21
10.0
 31
0.0
  0
LINE
  5
112
330
1EF
100
AcDbEntity
  8
Title
100
AcDbLine
 10
-170.0
 20
0.0000000000003695
 30
0.0
 11
0.0
 21
0.0
 31
0.0
  0
LINE
  5
113
330
1EF
100
AcDbEntity
  8
Title
100
AcDbLine
 10
0.0
 20
0.0
 30
0.0
 11
0.0
 21
35.9999999999989
 31
0.0
  0
LINE
  5
114
330
1EF
100
AcDbEntity
  8
Title
100
AcDbLine
 10
-95.0
 20
9.99999999999924
 30
0.0
 11
0.0
 21
10.0
 31
0.0
  0
LINE
  5
115
330
1EF
100
AcDbEntity
  8
Title
100
AcDbLine
 10
-170.0
 20
19.999999999999
 30
0.0
 11
0.0
 21
19.99999999999866
 31
0.0
  0
LINE
  5
116
330
1EF
100
AcDbEntity
  8
Title
100
AcDbLine
 10
-170.0
 20
29.99999999999873
 30
0.0
 11
0.0
 21
29.99999999999847
 31
0.0
  0
LINE
  5
117
330
1EF
100
AcDbEntity
  8
Title
100
AcDbLine
 10
-170.0
 20
0.0000000000003695
 30
0.0
 11
-170.0
 21
29.99999999999873
 31
0.0
  0
LINE
  5
118
330
1EF
100
AcDbEntity
  8
Title
100
AcDbLine
 10
-95.0
 20
-0.0000000000012506
 30
0.0
 11
-95.0
 21
19.99999999999876
 31
0.0
  0
LINE
  5
119
330
1EF
100
AcDbEntity
  8
Title
100
AcDbLine
 10
-20.0
 20
-0.0000000000022453
 30
0.0
 11
-20.0
 21
9.999999999999197
 31
0.0
  0
LINE
  5
11A
330
1EF
100
AcDbEntity
  8
Title
100
AcDbLine
 10
-35.0
 20
-0.0000000000026859
 30
0.0
 11
-35.0
 21
9.99999999999924
 31
0.0
  0
LINE
  5
11B
330
1EF
100
AcDbEntity
  8
Title
100
AcDbLine
 10
-19.99999999999994
 20
19.99999999999849
 30
0.0
 11
-20.0
 21
29.99999999999853
 31
0.0
  0
LINE
  5
11C
330
1EF
100
AcDbEntity
  8
Title
100
AcDbLine
 10
-50.0
 20
19.9999999999986
 30
0.0
 11
-50.0
 21
29.99999999999931
 31
0.0
  0
LINE
  5
11D
330
1EF
100
AcDbEntity
  8
Title
100
AcDbLine
 10
-75.0
 20
19.99999999999902
 30
0.0
 11
-74.9999999999999
 21
29.99999999999826
 31
0.0
  0
LINE
  5
11E
330
1EF
100
AcDbEntity
  8
Title
100
AcDbLine
 10
-113.0
 20
19.99999999999865
 30
0.0
 11
-112.9999999999999
 21
29.99999999999856
 31
0.0
  0
LINE
  5
11F
330
1EF
100
AcDbEntity
  8
Title
100
AcDbLine
 10
-138.0
 20
19.99999999999907
 30
0.0
 11
-137.9999999999999
 21
29.99999999999864
 31
0.0
  0
LINE
  5
120
330
1EF
100
AcDbEntity
  8
Title
100
AcDbLine
 10
-170.0
 20
35.99999999999881
 30
0.0
 11
0.0
 21
35.9999999999989
 31
0.0
  0
ENDBLK
  5
1F1
330
1EF
100
AcDbEntity
  8
0
100
AcDbBlockEnd
  0
BLOCK
  5
1F3
330
1F2
100
AcDbEntity
  8
0
100
AcDbBlockBegin
  2
Title block 2 (handy)
 70
     0
 10
0.0
 20
0.0
 30
0.0
  3
Title block 2 (handy)
  1

  0
MTEXT
  5
14C
330
1F2
100
AcDbEntity
  8
Title block 2 (handy)
370
    25
100
AcDbMText
 10
-76.18862741464152
 20
29.6019112074619
 30
0.0
 40
3.0
 41
0.0
 46
0.0
 71
     1
 72
     1
  1
project no:
  7
textstyle36
 73
     1
 44
1.0
  0
MTEXT
  5
14D
330
1F2
100
AcDbEntity
  8
Title block 2 (handy)
370
    25
100
AcDbMText
 10
-66.81813804215334
 20
24.26205619613683
 30
0.0
 40
3.0
 41
0.0
 46
0.0
 71
     1
 72
     1
  1
Scale:
  7
textstyle37
 73
     1
 44
1.0
  0
MTEXT
  5
14E
330
1F2
100
AcDbEntity
  8
Title block 2 (handy)
370
    25
100
AcDbMText
 10
-70.24934913800543
 20
19.46860107665951
 30
0.0
 40
3.0
 41
0.0
 46
0.0
 71
     1
 72
     1
  1
revision:
  7
textstyle38
 73
     1
 44
1.0
  0
MTEXT
  5
14F
330
1F2
100
AcDbEntity
  8
Title block 2 (handy)
370
    25
100
AcDbMText
 10
-65.18088112114711
 20
14.40013305980096
 30
0.0
 40
3.0
 41
0.0
 46
0.0
 71
     1
 72
     1
  1
date:
  7
textstyle39
 73
     1
 44
1.0
  0
MTEXT
  5
150
330
1F2
100
AcDbEntity
  8
Title block 2 (handy)
370
    25
100
AcDbMText
 10
-19.42379961027671
 20
29.02815085458413
 30
0.0
 40
3.0
 41
0.0
 46
0.0
 71
     1
 72
     1
  1
xxx
  7
textstyle40
 73
     1
 44
1.0
  0
MTEXT
  5
151
330
1F2
100
AcDbEntity
  8
Title block 2 (handy)
370
    25
100
AcDbMText
 10
-19.34194450664526
 20
24.11684463669881
 30
0.0
 40
3.0
 41
0.0
 46
0.0
 71
     1
 72
     1
  1
xxx
  7
textstyle41
 73
     1
 44
1.0
  0
MTEXT
  5
152
330
1F2
100
AcDbEntity
  8
Title block 2 (handy)
370
    25
100
AcDbMText
 10
-19.26008940301381
 20
19.20553841881366
 30
0.0
 40
3.0
 41
0.0
 46
0.0
 71
     1
 72
     1
  1
xxx
  7
textstyle42
 73
     1
 44
1.0
  0
MTEXT
  5
153
330
1F2
100
AcDbEntity
  8
Title block 2 (handy)
370
    25
100
AcDbMText
 10
-19.17823429938244
 20
14.13052199366302
 30
0.0
 40
3.0
 41
0.0
 46
0.0
 71
     1
 72
     1
  1
xxx
  7
textstyle43
 73
     1
 44
1.0
  0
LINE
  5
154
330
1F2
100
AcDbEntity
  8
Title block 2 (handy)
370
    25
100
AcDbLine
 10
-80.0
 20
10.0
 30
0.0
 11
0.0
 21
10.0
 31
0.0
  0
LINE
  5
155
330
1F2
100
AcDbEntity
  8
Title block 2 (handy)
370
    25
100
AcDbLine
 10
-80.0
 20
15.0
 30
0.0
 11
0.0
 21
15.0
 31
0.0
  0
LINE
  5
156
330
1F2
100
AcDbEntity
  8
Title block 2 (handy)
370
    25
100
AcDbLine
 10
-80.0
 20
0.0
 30
0.0
 11
0.0
 21
0.0
 31
0.0
  0
LINE
  5
157
330
1F2
100
AcDbEntity
  8
Title block 2 (handy)
370
    25
100
AcDbLine
 10
-80.0
 20
20.0
 30
0.0
 11
0.0
 21
20.0
 31
0.0
  0
LINE
  5
158
330
1F2
100
AcDbEntity
  8
Title block 2 (handy)
370
    25
100
AcDbLine
 10
-80.0
 20
25.0
 30
0.0
 11
0.0
 21
25.0
 31
0.0
  0
LINE
  5
159
330
1F2
100
AcDbEntity
  8
Title block 2 (handy)
370
    25
100
AcDbLine
 10
0.0
 20
0.0
 30
0.0
 11
0.0
 21
82.0
 31
0.0
  0
LINE
  5
15A
330
1F2
100
AcDbEntity
  8
Title block 2 (handy)
370
    25
100
AcDbLine
 10
-80.0
 20
30.0
 30
0.0
 11
0.0
 21
30.0
 31
0.0
  0
LINE
  5
15B
330
1F2
100
AcDbEntity
  8
Title block 2 (handy)
370
    25
100
AcDbLine
 10
-80.0
 20
0.0
 30
0.0
 11
-80.0
 21
71.99999999999999
 31
0.0
  0
LINE
  5
15C
330
1F2
100
AcDbEntity
  8
Title block 2 (handy)
370
    25
100
AcDbLine
 10
-32.0
 20
30.0
 30
0.0
 11
-32.0
 21
10.0
 31
0.0
  0
LINE
  5
15D
330
1F2
100
AcDbEntity
  8
Title block 2 (handy)
370
    25
100
AcDbLine
 10
-70.0
 20
82.0
 30
0.0
 11
0.0
 21
82.0
 31
0.0
  0
LINE
  5
15E
330
1F2
100
AcDbEntity
  8
Title block 2 (handy)
370
    25
100
AcDbLine
 10
-80.0
 20
47.0
 30
0.0
 11
0.0
 21
47.0
 31
0.0
  0
LINE
  5
15F
330
1F2
100
AcDbEntity
  8
Title block 2 (handy)
370
    25
100
AcDbLine
 10
-80.0
 20
63.0
 30
0.0
 11
0.0
 21
63.0
 31
0.0
  0
ARC
  5
160
330
1F2
100
AcDbEntity
  8
Title block 2 (handy)
370
    25
100
AcDbCircle
 10
-70.0
 20
71.99999999999999
 30
0.0
 40
10.0
100
AcDbArc
 50
90.0
 51
180.0
  0
MTEXT
  5
161
330
1F2
100
AcDbEntity
  8
Title block 2 (handy)
370
    25
100
AcDbMText
 10
-55.64338844933545
 20
72.5099764777862
 30
0.0
 40
3.0
 41
0.0
 46
0.0
 71
     1
 72
     1
  1
Insert Logo here
  7
textstyle44
 73
     1
 44
1.0
  0
MTEXT
  5
162
330
1F2
100
AcDbEntity
  8
Title block 2 (handy)
370
    25
100
AcDbMText
 10
-77.15217506837377
 20
61.02232907898191
 30
0.0
 40
3.0
 41
0.0
 46
0.0
 71
     1
 72
     1
  1
project 
  7
textstyle45
 73
     1
 44
1.0
  0
MTEXT
  5
163
330
1F2
100
AcDbEntity
  8
Title block 2 (handy)
370
    25
100
AcDbMText
 10
-76.90775703861203
 20
44.64632108494131
 30
0.0
 40
3.0
 41
0.0
 46
0.0
 71
     1
 72
     1
  1
Title
  7
textstyle46
 73
     1
 44
1.0
  0
MTEXT
  5
164
330
1F2
100
AcDbEntity
  8
Title block 2 (handy)
370
    25
100
AcDbMText
 10
-52.95479012195565
 20
39.26912443018129
 30
0.0
 40
3.0
 41
0.0
 46
0.0
 71
     1
 72
     1
  1
Drawing Title
  7
textstyle47
 73
     1
 44
1.0
  0
MTEXT
  5
165
330
1F2
100
AcDbEntity
  8
Title block 2 (handy)
370
    25
100
AcDbMText
 10
-57.10989662790615
 20
58.57814878136372
 30
0.0
 40
3.0
 41
0.0
 46
0.0
 71
     1
 72
     1
  1
Customer name\pProject information
  7
textstyle48
 73
     1
 44
1.0
  0
MTEXT
  5
166
330
1F2
100
AcDbEntity
  8
Title block 2 (handy)
370
    25
100
AcDbMText
 10
-48.33855080122757
 20
6.919691732577471
 30
0.0
 40
3.0
 41
0.0
 46
0.0
 71
     1
 72
     1
  1
Drawing:
  7
textstyle49
 73
     1
 44
1.0
  0
ENDBLK
  5
1F4
330
1F2
100
AcDbEntity
  8
0
100
AcDbBlockEnd
  0
ENDSEC
  0
SECTION
  2
ENTITIES
  0
LINE
  5
2F
330
190
100
AcDbEntity
  8
Border
  6
Continuous
 62
     0
370
     0
100
AcDbLine
 10
286.9999999999999
 20
9.999999999999972
 30
0.0
 11
286.9999999999999
 21
9.999999999999972
 31
0.0
  0
LINE
  5
30
330
190
100
AcDbEntity
  8
Border
  6
Continuous
 62
     0
370
     0
100
AcDbLine
 10
287.0000000000001
 20
200.0
 30
0.0
 11
287.0000000000001
 21
200.0
 31
0.0
  0
LINE
  5
31
330
190
100
AcDbEntity
  8
Border
  6
Continuous
 62
     0
370
     0
100
AcDbLine
 10
10.00000000000006
 20
200.0
 30
0.0
 11
10.00000000000006
 21
200.0
 31
0.0
  0
LINE
  5
32
330
190
100
AcDbEntity
  8
Border
  6
Continuous
 62
     0
370
     0
100
AcDbLine
 10
10.00000000000006
 20
10.0
 30
0.0
 11
10.00000000000006
 21
10.0
 31
0.0
  0
LINE
  5
33
330
190
100
AcDbEntity
  8
Border
  6
Continuous
 62
     0
370
     0
100
AcDbLine
 10
148.5
 20
10.00000000000003
 30
0.0
 11
148.5
 21
5.0
 31
0.0
  0
LINE
  5
34
330
190
100
AcDbEntity
  8
Border
  6
Continuous
 62
     0
370
     0
100
AcDbLine
 10
98.49999999999997
 20
5.000000000000369
 30
0.0
 11
198.5
 21
5.000000000000085
 31
0.0
  0
LINE
  5
36
330
190
100
AcDbEntity
  8
Border
  6
Continuous
 62
     0
370
     0
100
AcDbLine
 10
198.5
 20
5.000000000000085
 30
0.0
 11
198.5
 21
10.00000000000009
 31
0.0
  0
LINE
  5
37
330
190
100
AcDbEntity
  8
Border
  6
Continuous
 62
     0
370
     0
100
AcDbLine
 10
108.5
 20
4.999999999999915
 30
0.0
 11
108.5
 21
9.999999999999886
 31
0.0
  0
LINE
  5
38
330
190
100
AcDbEntity
  8
Border
  6
Continuous
 62
     0
370
     0
100
AcDbLine
 10
118.5
 20
4.999999999999943
 30
0.0
 11
118.5
 21
10.00000000000003
 31
0.0
  0
LINE
  5
39
330
190
100
AcDbEntity
  8
Border
  6
Continuous
 62
     0
370
     0
100
AcDbLine
 10
128.5
 20
5.000000000000199
 30
0.0
 11
128.5
 21
9.999999999999972
 31
0.0
  0
LINE
  5
3A
330
190
100
AcDbEntity
  8
Border
  6
Continuous
 62
     0
370
     0
100
AcDbLine
 10
138.5
 20
5.000000000000341
 30
0.0
 11
138.5
 21
9.999999999999972
 31
0.0
  0
LINE
  5
3B
330
190
100
AcDbEntity
  8
Border
  6
Continuous
 62
     0
370
     0
100
AcDbLine
 10
158.5
 20
4.999999999999943
 30
0.0
 11
158.5
 21
10.00000000000006
 31
0.0
  0
LINE
  5
3C
330
190
100
AcDbEntity
  8
Border
  6
Continuous
 62
     0
370
     0
100
AcDbLine
 10
168.5
 20
5.000000000000057
 30
0.0
 11
168.5
 21
9.999999999999972
 31
0.0
  0
LINE
  5
3D
330
190
100
AcDbEntity
  8
Border
  6
Continuous
 62
     0
370
     0
100
AcDbLine
 10
178.5
 20
4.999999999999943
 30
0.0
 11
178.5
 21
10.00000000000009
 31
0.0
  0
LINE
  5
3E
330
190
100
AcDbEntity
  8
Border
  6
Continuous
 62
     0
370
     0
100
AcDbLine
 10
188.5
 20
4.999999999999972
 30
0.0
 11
188.5
 21
10.00000000000003
 31
0.0
  0
LINE
  5
3F
330
190
100
AcDbEntity
  8
Border
  6
Continuous
 62
     0
370
     0
100
AcDbLine
 10
5.000000000000085
 20
105.0000000000001
 30
0.0
 11
15.00000000000003
 21
105.0
 31
0.0
  0
LINE
  5
40
330
190
100
AcDbEntity
  8
Border
  6
Continuous
 62
     0
370
     0
100
AcDbLine
 10
148.5000000000001
 20
195.0
 30
0.0
 11
148.5000000000001
 21
205.0
 31
0.0
  0
LINE
  5
42
330
190
100
AcDbEntity
  8
Border
  6
Continuous
 62
     0
370
     0
100
AcDbLine
 10
148.5
 20
10.00000000000003
 30
0.0
 11
148.5
 21
15.00000000000014
 31
0.0
  0
LINE
  5
43
330
190
100
AcDbEntity
  8
Border
  6
Continuous
 62
     0
370
     0
100
AcDbLine
 10
12.50000000000011
 20
107.5000000000002
 30
0.0
 11
12.50000000000003
 21
102.5
 31
0.0
  0
LINE
  5
44
330
190
100
AcDbEntity
  8
Border
  6
Continuous
 62
     0
370
     0
100
AcDbLine
 10
12.50000000000003
 20
102.5
 30
0.0
 11
7.5
 21
105.0
 31
0.0
  0
LINE
  5
45
330
190
100
AcDbEntity
  8
Border
  6
Continuous
 62
     0
370
     0
100
AcDbLine
 10
7.5
 20
105.0
 30
0.0
 11
12.50000000000011
 21
107.5000000000002
 31
0.0
  0
LINE
  5
46
330
190
100
AcDbEntity
  8
Border
  6
Continuous
 62
     0
370
     0
100
AcDbLine
 10
148.5
 20
7.500000000000028
 30
0.0
 11
146.0
 21
12.50000000000006
 31
0.0
  0
LINE
  5
47
330
190
100
AcDbEntity
  8
Border
  6
Continuous
 62
     0
370
     0
100
AcDbLine
 10
146.0
 20
12.50000000000006
 30
0.0
 11
151.0
 21
12.50000000000006
 31
0.0
  0
LINE
  5
48
330
190
100
AcDbEntity
  8
Border
  6
Continuous
 62
     0
370
     0
100
AcDbLine
 10
151.0
 20
12.50000000000006
 30
0.0
 11
148.5
 21
7.500000000000028
 31
0.0
  0
LINE
  5
49
330
190
100
AcDbEntity
  8
Border
  6
Continuous
 62
     0
370
     0
100
AcDbLine
 10
10.00000000000006
 20
57.49999999999994
 30
0.0
 11
5.000000000000114
 21
57.49999999999994
 31
0.0
  0
LINE
  5
4A
330
190
100
AcDbEntity
  8
Border
  6
Continuous
 62
     0
370
     0
100
AcDbLine
 10
10.00000000000006
 20
152.5
 30
0.0
 11
5.000000000000057
 21
152.5
 31
0.0
  0
LINE
  5
4F
330
190
100
AcDbEntity
  8
Border
  6
Continuous
 62
     0
370
     0
100
AcDbLine
 10
102.5
 20
10.00000000000003
 30
0.0
 11
102.5
 21
4.999999999999972
 31
0.0
  0
LINE
  5
50
330
190
100
AcDbEntity
  8
Border
  6
Continuous
 62
     0
370
     0
100
AcDbLine
 10
56.50000000000003
 20
10.0
 30
0.0
 11
56.50000000000006
 21
4.999999999999972
 31
0.0
  0
LINE
  5
51
330
190
100
AcDbEntity
  8
Border
  6
Continuous
 62
     0
370
     0
100
AcDbLine
 10
194.5
 20
10.0
 30
0.0
 11
194.5
 21
5.0
 31
0.0
  0
LINE
  5
52
330
190
100
AcDbEntity
  8
Border
  6
Continuous
 62
     0
370
     0
100
AcDbLine
 10
240.5
 20
10.0
 30
0.0
 11
240.5
 21
5.0
 31
0.0
  0
LINE
  5
5A
330
190
100
AcDbEntity
  8
Border
  6
Continuous
 62
     0
370
     0
100
AcDbLine
 10
56.50000000000006
 20
205.0
 30
0.0
 11
56.50000000000006
 21
200.0
 31
0.0
  0
LINE
  5
5C
330
190
100
AcDbEntity
  8
Border
  6
Continuous
 62
     0
370
     0
100
AcDbLine
 10
102.5000000000001
 20
205.0
 30
0.0
 11
102.5000000000001
 21
199.9999999999999
 31
0.0
  0
LINE
  5
5F
330
190
100
AcDbEntity
  8
Border
  6
Continuous
 62
     0
370
     0
100
AcDbLine
 10
194.5000000000001
 20
205.0
 30
0.0
 11
194.5000000000001
 21
200.0
 31
0.0
  0
LINE
  5
61
330
190
100
AcDbEntity
  8
Border
  6
Continuous
 62
     0
370
     0
100
AcDbLine
 10
240.5000000000001
 20
205.0
 30
0.0
 11
240.5000000000001
 21
200.0
 31
0.0
  0
LINE
  5
95
330
190
100
AcDbEntity
  8
Border
  6
Continuous
 62
     0
370
     0
100
AcDbLine
 10
56.50000000000003
 20
10.0
 30
0.0
 11
56.50000000000003
 21
10.0
 31
0.0
  0
LINE
  5
96
330
190
100
AcDbEntity
  8
Border
  6
Continuous
 62
     0
370
     0
100
AcDbLine
 10
56.50000000000006
 20
200.0
 30
0.0
 11
56.50000000000006
 21
200.0
 31
0.0
  0
LINE
  5
97
330
190
100
AcDbEntity
  8
Border
  6
Continuous
 62
     0
370
     0
100
AcDbLine
 10
10.00000000000006
 20
57.49999999999994
 30
0.0
 11
10.00000000000006
 21
10.0
 31
0.0
  0
LINE
  5
98
330
190
100
AcDbEntity
  8
Border
  6
Continuous
 62
     0
370
     0
100
AcDbLine
 10
10.00000000000006
 20
105.0
 30
0.0
 11
10.00000000000006
 21
57.49999999999994
 31
0.0
  0
LINE
  5
99
330
190
100
AcDbEntity
  8
Border
  6
Continuous
 62
     0
370
     0
100
AcDbLine
 10
10.00000000000006
 20
152.5
 30
0.0
 11
10.00000000000006
 21
105.0
 31
0.0
  0
LINE
  5
9B
330
190
100
AcDbEntity
  8
Border
  6
Continuous
 62
     0
370
     0
100
AcDbLine
 10
98.49999999999997
 20
10.00000000000003
 30
0.0
 11
198.5
 21
10.00000000000009
 31
0.0
  0
LINE
  5
9C
330
190
100
AcDbEntity
  8
Border
  6
Continuous
 62
     0
370
     0
100
AcDbLine
 10
287.0
 20
155.0
 30
0.0
 11
287.0000000000001
 21
200.0
 31
0.0
  0
LINE
  5
9D
330
190
100
AcDbEntity
  8
Border
  6
Continuous
 62
     0
370
     0
100
AcDbLine
 10
287.0000000000001
 20
200.0
 30
0.0
 11
287.0000000000001
 21
200.0
 31
0.0
  0
LINE
  5
9E
330
190
100
AcDbEntity
  8
Border
  6
Continuous
 62
     0
370
     0
100
AcDbLine
 10
286.9999999999999
 20
9.999999999999972
 30
0.0
 11
287.0000000000001
 21
54.99999999999997
 31
0.0
  0
LINE
  5
9F
330
190
100
AcDbEntity
  8
Border
  6
Continuous
 62
     0
370
     0
100
AcDbLine
 10
240.5
 20
10.0
 30
0.0
 11
286.9999999999999
 21
9.999999999999972
 31
0.0
  0
LINE
  5
A0
330
190
100
AcDbEntity
  8
Border
  6
Continuous
 62
     0
370
     0
100
AcDbLine
 10
194.5
 20
10.0
 30
0.0
 11
240.5
 21
10.0
 31
0.0
  0
LINE
  5
A1
330
190
100
AcDbEntity
  8
Border
  6
Continuous
 62
     0
370
     0
100
AcDbLine
 10
148.5
 20
10.00000000000006
 30
0.0
 11
194.5
 21
10.0
 31
0.0
  0
LINE
  5
A2
330
190
100
AcDbEntity
  8
Border
  6
Continuous
 62
     0
370
     0
100
AcDbLine
 10
102.5
 20
10.00000000000003
 30
0.0
 11
148.5
 21
10.00000000000006
 31
0.0
  0
LINE
  5
A3
330
190
100
AcDbEntity
  8
Border
  6
Continuous
 62
     0
370
     0
100
AcDbLine
 10
56.50000000000003
 20
10.0
 30
0.0
 11
102.5
 21
10.00000000000003
 31
0.0
  0
LINE
  5
A4
330
190
100
AcDbEntity
  8
Border
  6
Continuous
 62
     0
370
     0
100
AcDbLine
 10
10.00000000000006
 20
10.0
 30
0.0
 11
56.50000000000003
 21
10.0
 31
0.0
  0
LINE
  5
A5
330
190
100
AcDbEntity
  8
Border
  6
Continuous
 62
     0
370
     0
100
AcDbLine
 10
10.00000000000006
 20
200.0
 30
0.0
 11
10.00000000000006
 21
200.0
 31
0.0
  0
LINE
  5
A6
330
190
100
AcDbEntity
  8
Border
  6
Continuous
 62
     0
370
     0
100
AcDbLine
 10
56.50000000000006
 20
200.0
 30
0.0
 11
10.00000000000006
 21
200.0
 31
0.0
  0
LINE
  5
A7
330
190
100
AcDbEntity
  8
Border
  6
Continuous
 62
     0
370
     0
100
AcDbLine
 10
102.5000000000001
 20
199.9999999999999
 30
0.0
 11
56.50000000000006
 21
200.0
 31
0.0
  0
LINE
  5
A8
330
190
100
AcDbEntity
  8
Border
  6
Continuous
 62
     0
370
     0
100
AcDbLine
 10
148.5000000000001
 20
200.0
 30
0.0
 11
102.5000000000001
 21
199.9999999999999
 31
0.0
  0
LINE
  5
A9
330
190
100
AcDbEntity
  8
Border
  6
Continuous
 62
     0
370
     0
100
AcDbLine
 10
194.5000000000001
 20
200.0
 30
0.0
 11
148.5000000000001
 21
200.0
 31
0.0
  0
LINE
  5
AA
330
190
100
AcDbEntity
  8
Border
  6
Continuous
 62
     0
370
     0
100
AcDbLine
 10
240.5000000000001
 20
199.9999999999999
 30
0.0
 11
194.5000000000001
 21
200.0
 31
0.0
  0
LINE
  5
AB
330
190
100
AcDbEntity
  8
Border
  6
Continuous
 62
     0
370
     0
100
AcDbLine
 10
287.0000000000001
 20
200.0
 30
0.0
 11
240.5000000000001
 21
199.9999999999999
 31
0.0
  0
LINE
  5
BC
330
190
100
AcDbEntity
  8
Border
100
AcDbLine
 10
0.0
 20
0.0
 30
0.0
 11
0.0000000000000568
 21
210.0
 31
0.0
  0
LINE
  5
BD
330
190
100
AcDbEntity
  8
Border
100
AcDbLine
 10
0.0000000000000568
 20
210.0
 30
0.0
 11
297.0000000000001
 21
210.0
 31
0.0
  0
LINE
  5
BE
330
190
100
AcDbEntity
  8
Border
100
AcDbLine
 10
297.0000000000001
 20
210.0
 30
0.0
 11
297.0
 21
-0.0000000000000284
 31
0.0
  0
LINE
  5
BF
330
190
100
AcDbEntity
  8
Border
100
AcDbLine
 10
297.0
 20
-0.0000000000000284
 30
0.0
 11
0.0
 21
0.0
 31
0.0
  0
INSERT
  5
122
330
190
100
AcDbEntity
  8
0
100
AcDbBlockReference
  2
Revision
 10
287.0000000000001
 20
200.0
 30
0.0
  0
INSERT
  5
124
330
190
100
AcDbEntity
  8
0
100
AcDbBlockReference
  2
Title
 10
286.9999999999998
 20
9.999999999999972
 30
0.0
  0
LINE
  5
12C
330
190
100
AcDbEntity
  8
Border
100
AcDbLine
 10
98.49999999999997
 20
10.00000000000003
 30
0.0
 11
98.49999999999997
 21
5.000000000000369
 31
0.0
  0
LINE
  5
12D
330
190
100
AcDbEntity
  8
Border
100
AcDbLine
 10
10.00000000000006
 20
200.0
 30
0.0
 11
10.00000000000006
 21
152.5
 31
0.0
  0
LINE
  5
12E
330
190
100
AcDbEntity
  8
Border
100
AcDbLine
 10
287.0
 20
155.0
 30
0.0
 11
287.0000000000001
 21
54.99999999999997
 31
0.0
  0
LINE
  5
12F
330
190
100
AcDbEntity
  8
Border
100
AcDbLine
 10
282.0
 20
105.0
 30
0.0
 11
292.0
 21
105.0
 31
0.0
  0
LINE
  5
133
330
190
100
AcDbEntity
  8
Border
100
AcDbLine
 10
287.0000000000001
 20
57.49999999999996
 30
0.0
 11
292.0000000000001
 21
57.49999999999996
 31
0.0
  0
LINE
  5
134
330
190
100
AcDbEntity
  8
Border
100
AcDbLine
 10
287.0
 20
152.5
 30
0.0
 11
292.0
 21
152.5
 31
0.0
  0
MTEXT
  5
135
330
190
100
AcDbEntity
  8
Border
100
AcDbMText
 10
7.000000000000065
 20
176.25
 30
0.0
 40
4.0
 41
0.0
 46
0.0
 71
     5
 72
     1
  1
A
  7
textstyle18
 73
     1
 44
1.0
  0
MTEXT
  5
136
330
190
100
AcDbEntity
  8
Border
100
AcDbMText
 10
290.0000000000001
 20
176.25
 30
0.0
 40
4.0
 41
0.0
 46
0.0
 71
     5
 72
     1
  1
A
  7
textstyle19
 73
     1
 44
1.0
  0
MTEXT
  5
137
330
190
100
AcDbEntity
  8
Border
100
AcDbMText
 10
7.000000000000107
 20
33.74999999999994
 30
0.0
 40
4.0
 41
0.0
 46
0.0
 71
     5
 72
     1
  1
D
  7
textstyle20
 73
     1
 44
1.0
  0
MTEXT
  5
138
330
190
100
AcDbEntity
  8
Border
100
AcDbMText
 10
290.0000000000002
 20
33.74999999999996
 30
0.0
 40
4.0
 41
0.0
 46
0.0
 71
     5
 72
     1
  1
D
  7
textstyle21
 73
     1
 44
1.0
  0
MTEXT
  5
139
330
190
100
AcDbEntity
  8
Border
100
AcDbMText
 10
7.000000000000093
 20
81.24999999999991
 30
0.0
 40
4.0
 41
0.0
 46
0.0
 71
     5
 72
     1
  1
C
  7
textstyle22
 73
     1
 44
1.0
  0
MTEXT
  5
13A
330
190
100
AcDbEntity
  8
Border
100
AcDbMText
 10
290.0000000000001
 20
81.24999999999996
 30
0.0
 40
4.0
 41
0.0
 46
0.0
 71
     5
 72
     1
  1
C
  7
textstyle23
 73
     1
 44
1.0
  0
MTEXT
  5
13E
330
190
100
AcDbEntity
  8
Border
100
AcDbMText
 10
7.000000000000078
 20
128.75
 30
0.0
 40
4.0
 41
0.0
 46
0.0
 71
     5
 72
     1
  1
B
  7
textstyle24
 73
     1
 44
1.0
  0
MTEXT
  5
13F
330
190
100
AcDbEntity
  8
Border
100
AcDbMText
 10
290.0000000000001
 20
128.75
 30
0.0
 40
4.0
 41
0.0
 46
0.0
 71
     5
 72
     1
  1
B
  7
textstyle25
 73
     1
 44
1.0
  0
MTEXT
  5
140
330
190
100
AcDbEntity
  8
Border
100
AcDbMText
 10
33.25000000000006
 20
203.0
 30
0.0
 40
4.0
 41
0.0
 46
0.0
 71
     5
 72
     1
  1
1
  7
textstyle26
 73
     1
 44
1.0
  0
MTEXT
  5
141
330
190
100
AcDbEntity
  8
Border
100
AcDbMText
 10
33.25000000000006
 20
6.999999999999972
 30
0.0
 40
4.0
 41
0.0
 46
0.0
 71
     5
 72
     1
  1
1
  7
textstyle27
 73
     1
 44
1.0
  0
MTEXT
  5
142
330
190
100
AcDbEntity
  8
Border
100
AcDbMText
 10
79.50000000000006
 20
203.0
 30
0.0
 40
4.0
 41
0.0
 46
0.0
 71
     5
 72
     1
  1
2
  7
textstyle28
 73
     1
 44
1.0
  0
MTEXT
  5
143
330
190
100
AcDbEntity
  8
Border
100
AcDbMText
 10
79.50000000000006
 20
6.999999999999972
 30
0.0
 40
4.0
 41
0.0
 46
0.0
 71
     5
 72
     1
  1
2
  7
textstyle29
 73
     1
 44
1.0
  0
MTEXT
  5
144
330
190
100
AcDbEntity
  8
Border
100
AcDbMText
 10
125.5000000000001
 20
203.0
 30
0.0
 40
4.0
 41
0.0
 46
0.0
 71
     5
 72
     1
  1
3
  7
textstyle30
 73
     1
 44
1.0
  0
MTEXT
  5
145
330
190
100
AcDbEntity
  8
Border
100
AcDbMText
 10
171.5
 20
203.0
 30
0.0
 40
4.0
 41
0.0
 46
0.0
 71
     5
 72
     1
  1
4
  7
textstyle31
 73
     1
 44
1.0
  0
MTEXT
  5
146
330
190
100
AcDbEntity
  8
Border
100
AcDbMText
 10
217.5000000000001
 20
203.0
 30
0.0
 40
4.0
 41
0.0
 46
0.0
 71
     5
 72
     1
  1
5
  7
textstyle32
 73
     1
 44
1.0
  0
MTEXT
  5
147
330
190
100
AcDbEntity
  8
Border
100
AcDbMText
 10
217.4999999999999
 20
6.999999999999971
 30
0.0
 40
4.0
 41
0.0
 46
0.0
 71
     5
 72
     1
  1
5
  7
textstyle33
 73
     1
 44
1.0
  0
MTEXT
  5
148
330
190
100
AcDbEntity
  8
Border
100
AcDbMText
 10
263.7500000000001
 20
203.0
 30
0.0
 40
4.0
 41
0.0
 46
0.0
 71
     5
 72
     1
  1
6
  7
textstyle34
 73
     1
 44
1.0
  0
MTEXT
  5
149
330
190
100
AcDbEntity
  8
Border
100
AcDbMText
 10
263.7499999999998
 20
6.999999999999971
 30
0.0
 40
4.0
 41
0.0
 46
0.0
 71
     5
 72
     1
  1
6
  7
textstyle35
 73
     1
 44
1.0
  0
INSERT
  5
167
330
190
100
AcDbEntity
  8
Title block 2 (handy)
100
AcDbBlockReference
  2
Title block 2 (handy)
 10
286.9999999999998
 20
9.999999999999972
 30
0.0
  0
ENDSEC
  0
SECTION
  2
OBJECTS
  0
DICTIONARY
  5
17E
330
0
100
AcDbDictionary
281
     1
  3
ACAD_GROUP
350
17F
  3
ACAD_LAYOUT
350
18B
  3
ACAD_MATERIAL
350
1AC
  3
ACAD_MLEADERSTYLE
350
228
  3
ACAD_MLINESTYLE
350
188
  3
ACAD_PLOTSETTINGS
350
18A
  3
ACAD_PLOTSTYLENAME
350
180
  3
ACAD_TABLESTYLE
350
227
  3
ACAD_VISUALSTYLE
350
19B
  3
QCAD_OBJECTS
350
1B1
  0
DICTIONARY
  5
17F
102
{ACAD_REACTORS
330
17E
102
}
330
17E
100
AcDbDictionary
281
     1
  0
DICTIONARY
  5
18B
102
{ACAD_REACTORS
330
17E
102
}
330
17E
100
AcDbDictionary
281
     1
  3
Layout1
350
18F
  3
Layout2
350
197
  3
Model
350
193
  0
DICTIONARY
  5
1AC
102
{ACAD_REACTORS
330
17E
102
}
330
17E
100
AcDbDictionary
281
     1
  3
ByBlock
350
1AE
  3
ByLayer
350
1AD
  3
Global
350
1AF
  0
DICTIONARY
  5
228
102
{ACAD_REACTORS
330
17E
102
}
330
17E
100
AcDbDictionary
281
     1
  0
DICTIONARY
  5
188
102
{ACAD_REACTORS
330
17E
102
}
330
17E
100
AcDbDictionary
281
     1
  3
Standard
350
189
  0
DICTIONARY
  5
18A
102
{ACAD_REACTORS
330
17E
102
}
330
17E
100
AcDbDictionary
281
     1
  0
ACDBDICTIONARYWDFLT
  5
180
102
{ACAD_REACTORS
330
17E
102
}
330
17E
100
AcDbDictionary
281
     1
  3
Normal
350
181
100
AcDbDictionaryWithDefault
340
181
  0
DICTIONARY
  5
227
102
{ACAD_REACTORS
330
17E
102
}
330
17E
100
AcDbDictionary
281
     1
  0
DICTIONARY
  5
19B
102
{ACAD_REACTORS
330
17E
102
}
330
17E
100
AcDbDictionary
281
     1
  3
2dWireframe
350
1A0
  3
3D Hidden
350
1A2
  3
3dWireframe
350
1A1
  3
Basic
350
1A3
  3
Brighten
350
1A7
  3
ColorChange
350
1AB
  3
Conceptual
350
1A5
  3
Dim
350
1A6
  3
Facepattern
350
1AA
  3
Flat
350
19C
  3
FlatWithEdges
350
19D
  3
Gouraud
350
19E
  3
GouraudWithEdges
350
19F
  3
Linepattern
350
1A9
  3
Realistic
350
1A4
  3
Thicken
350
1A8
  0
DICTIONARY
  5
1B1
102
{ACAD_REACTORS
330
17E
102
}
330
17E
100
AcDbDictionary
281
     1
  3
DimensionSettings/AngularFormat
350
1BC
  3
DimensionSettings/AngularPrecision
350
1BB
  3
DimensionSettings/KeepProportions
350
1BE
  3
DimensionSettings/LinearFormat
350
1C9
  3
DimensionSettings/LinearPrecision
350
1C5
  3
Grid/DisplayGrid
350
1C6
  3
Grid/GridSpacingX
350
1BD
  3
Grid/GridSpacingY
350
1C0
  3
Grid/MetaGridSpacingX
350
1B5
  3
Grid/MetaGridSpacingY
350
1B9
  3
MultiPageSettings/Columns
350
1BA
  3
MultiPageSettings/GlueMarginBottom
350
1B6
  3
MultiPageSettings/GlueMarginsLeft
350
1C1
  3
MultiPageSettings/GlueMarginsRight
350
1B2
  3
MultiPageSettings/GlueMarginsTop
350
1CB
  3
MultiPageSettings/PrintCropMarks
350
1B4
  3
MultiPageSettings/Rows
350
1C2
  3
PageSettings/OffsetX
350
1C8
  3
PageSettings/OffsetY
350
1CA
  3
PageSettings/PageOrientation
350
1B3
  3
PageSettings/PaperHeight
350
1B7
  3
PageSettings/PaperWidth
350
1C3
  3
PageSettings/Scale
350
1B8
  3
PageSettings/ShowBoundingBox
350
1BF
  3
PageSettings/ShowPageBorders
350
1C7
  3
UnitSettings/PaperUnit
350
1C4
  0
LAYOUT
  5
18F
102
{ACAD_REACTORS
330
18B
102
}
330
18B
100
AcDbPlotSettings
  1

  2
none_device
  4

  6

 40
0.0
 41
0.0
 42
0.0
 43
0.0
 44
0.0
 45
0.0
 46
0.0
 47
0.0
 48
0.0
 49
0.0
140
0.0
141
0.0
142
1.0
143
1.0
 70
   688
 72
     0
 73
     0
 74
     5
  7

 75
    16
 76
     0
 77
     2
 78
   300
147
1.0
148
0.0
149
0.0
100
AcDbLayout
  1
Layout1
 70
     1
 71
     1
 10
0.0
 20
0.0
 11
12.0
 21
9.0
 12
0.0
 22
0.0
 32
0.0
 14
1.000000000000000E+20
 24
1.000000000000000E+20
 34
1.000000000000000E+20
 15
-1.000000000000000E+20
 25
-1.000000000000000E+20
 35
-1.000000000000000E+20
146
0.0
 13
0.0
 23
0.0
 33
0.0
 16
1.0
 26
0.0
 36
0.0
 17
0.0
 27
1.0
 37
0.0
 76
     0
330
18C
  0
LAYOUT
  5
197
102
{ACAD_REACTORS
330
18B
102
}
330
18B
100
AcDbPlotSettings
  1

  2
none_device
  4

  6

 40
0.0
 41
0.0
 42
0.0
 43
0.0
 44
0.0
 45
0.0
 46
0.0
 47
0.0
 48
0.0
 49
0.0
140
0.0
141
0.0
142
1.0
143
1.0
 70
   688
 72
     0
 73
     0
 74
     5
  7

 75
    16
 76
     0
 77
     2
 78
   300
147
1.0
148
0.0
149
0.0
100
AcDbLayout
  1
Layout2
 70
     1
 71
     2
 10
0.0
 20
0.0
 11
0.0
 21
0.0
 12
0.0
 22
0.0
 32
0.0
 14
0.0
 24
0.0
 34
0.0
 15
0.0
 25
0.0
 35
0.0
146
0.0
 13
0.0
 23
0.0
 33
0.0
 16
1.0
 26
0.0
 36
0.0
 17
0.0
 27
1.0
 37
0.0
 76
     0
330
194
  0
LAYOUT
  5
193
102
{ACAD_REACTORS
330
18B
102
}
330
18B
100
AcDbPlotSettings
  1

  2
none_device
  4

  6

 40
0.0
 41
0.0
 42
0.0
 43
0.0
 44
0.0
 45
0.0
 46
0.0
 47
0.0
 48
0.0
 49
0.0
140
0.0
141
0.0
142
1.0
143
1.0
 70
  1712
 72
     0
 73
     0
 74
     0
  7

 75
     0
 76
     0
 77
     2
 78
   300
147
1.0
148
0.0
149
0.0
100
AcDbLayout
  1
Model
 70
     1
 71
     0
 10
0.0
 20
0.0
 11
12.0
 21
9.0
 12
0.0
 22
0.0
 32
0.0
 14
1.000000000000000E+20
 24
1.000000000000000E+20
 34
1.000000000000000E+20
 15
-1.000000000000000E+20
 25
-1.000000000000000E+20
 35
-1.000000000000000E+20
146
0.0
 13
0.0
 23
0.0
 33
0.0
 16
1.0
 26
0.0
 36
0.0
 17
0.0
 27
1.0
 37
0.0
 76
     0
330
190
331
19A
  0
MATERIAL
  5
1AE
102
{ACAD_REACTORS
330
1AC
102
}
330
1AC
100
AcDbMaterial
  1
ByBlock
 72
     1
 94
      127
  0
MATERIAL
  5
1AD
102
{ACAD_REACTORS
330
1AC
102
}
330
1AC
100
AcDbMaterial
  1
ByLayer
 72
     1
 94
      127
  0
MATERIAL
  5
1AF
102
{ACAD_REACTORS
330
1AC
102
}
330
1AC
100
AcDbMaterial
  1
Global
 72
     1
 94
      127
  0
MLINESTYLE
  5
189
102
{ACAD_REACTORS
330
188
102
}
330
188
100
AcDbMlineStyle
  2
Standard
 70
     0
  3

 62
   256
 51
90.0
 52
90.0
 71
     2
 49
0.5
 62
   256
  6
BYLAYER
 49
-0.5
 62
   256
  6
BYLAYER
  0
ACDBPLACEHOLDER
  5
181
102
{ACAD_REACTORS
330
180
102
}
330
180
  0
VISUALSTYLE
  5
1A0
102
{ACAD_REACTORS
330
19B
102
}
330
19B
100
AcDbVisualStyle
  2
2dWireframe
 70
     4
177
     2
291
     0
 71
     0
176
     1
 72
     2
176
     1
 73
     0
176
     1
 90
        0
176
     1
 40
-0.6
176
     1
 41
-30.0
176
     1
 62
     5
 63
     7
421
 16777215
176
     1
 74
     1
176
     1
 91
        4
176
     1
 64
     7
176
     1
 65
   257
176
     1
 75
     1
176
     1
175
     1
176
     1
 42
1.0
176
     1
 92
        0
176
     1
 66
   257
176
     1
 43
1.0
176
     1
 76
     1
176
     1
 77
     6
176
     1
 78
     2
176
     1
 67
     7
176
     1
 79
     5
176
     1
170
     0
176
     1
171
     0
176
     1
290
     0
176
     1
 93
        1
176
     1
 44
0.0
176
     1
173
     0
176
     1
  0
VISUALSTYLE
  5
1A2
102
{ACAD_REACTORS
330
19B
102
}
330
19B
100
AcDbVisualStyle
  2
3D Hidden
 70
     6
177
     2
291
     0
 71
     1
176
     1
 72
     2
176
     1
 73
     2
176
     1
 90
        0
176
     1
 40
-0.6
176
     1
 41
-30.0
176
     1
 62
     5
 63
     7
421
 16777215
176
     1
 74
     2
176
     1
 91
        2
176
     1
 64
     7
176
     1
 65
   257
176
     1
 75
     2
176
     1
175
     1
176
     1
 42
40.0
176
     1
 92
        0
176
     1
 66
   257
176
     1
 43
1.0
176
     1
 76
     1
176
     1
 77
     6
176
     1
 78
     2
176
     1
 67
     7
176
     1
 79
     3
176
     1
170
     0
176
     1
171
     0
176
     1
290
     0
176
     1
 93
        1
176
     1
 44
0.0
176
     1
173
     0
176
     1
  0
VISUALSTYLE
  5
1A1
102
{ACAD_REACTORS
330
19B
102
}
330
19B
100
AcDbVisualStyle
  2
3dWireframe
 70
     5
177
     2
291
     0
 71
     0
176
     1
 72
     2
176
     1
 73
     0
176
     1
 90
        0
176
     1
 40
-0.6
176
     1
 41
-30.0
176
     1
 62
     5
 63
     7
421
 16777215
176
     1
 74
     1
176
     1
 91
        4
176
     1
 64
     7
176
     1
 65
   257
176
     1
 75
     1
176
     1
175
     1
176
     1
 42
1.0
176
     1
 92
        0
176
     1
 66
   257
176
     1
 43
1.0
176
     1
 76
     1
176
     1
 77
     6
176
     1
 78
     2
176
     1
 67
     7
176
     1
 79
     5
176
     1
170
     0
176
     1
171
     0
176
     1
290
     0
176
     1
 93
        1
176
     1
 44
0.0
176
     1
173
     0
176
     1
  0
VISUALSTYLE
  5
1A3
102
{ACAD_REACTORS
330
19B
102
}
330
19B
100
AcDbVisualStyle
  2
Basic
 70
     7
177
     2
291
     1
 71
     1
176
     1
 72
     0
176
     1
 73
     1
176
     1
 90
        0
176
     1
 40
-0.6
176
     1
 41
-30.0
176
     1
 62
     5
 63
     7
421
 16777215
176
     1
 74
     0
176
     1
 91
        4
176
     1
 64
     7
176
     1
 65
   257
176
     1
 75
     1
176
     1
175
     1
176
     1
 42
1.0
176
     1
 92
        8
176
     1
 66
     7
176
     1
 43
1.0
176
     1
 76
     1
176
     1
 77
     6
176
     1
 78
     2
176
     1
 67
     7
176
     1
 79
     5
176
     1
170
     0
176
     1
171
     0
176
     1
290
     0
176
     1
 93
        1
176
     1
 44
0.0
176
     1
173
     0
176
     1
  0
VISUALSTYLE
  5
1A7
102
{ACAD_REACTORS
330
19B
102
}
330
19B
100
AcDbVisualStyle
  2
Brighten
 70
    12
177
     2
291
     1
 71
     2
176
     1
 72
     2
176
     1
 73
     0
176
     1
 90
        0
176
     1
 40
-0.6
176
     1
 41
-30.0
176
     1
 62
     5
 63
     7
421
 16777215
176
     1
 74
     1
176
     1
 91
        4
176
     1
 64
     7
176
     1
 65
   257
176
     1
 75
     1
176
     1
175
     1
176
     1
 42
1.0
176
     1
 92
        8
176
     1
 66
     7
176
     1
 43
1.0
176
     1
 76
     1
176
     1
 77
     6
176
     1
 78
     2
176
     1
 67
     7
176
     1
 79
     5
176
     1
170
     0
176
     1
171
     0
176
     1
290
     0
176
     1
 93
        1
176
     1
 44
50.0
176
     1
173
     0
176
     1
  0
VISUALSTYLE
  5
1AB
102
{ACAD_REACTORS
330
19B
102
}
330
19B
100
AcDbVisualStyle
  2
ColorChange
 70
    16
177
     2
291
     1
 71
     2
176
     1
 72
     2
176
     1
 73
     3
176
     1
 90
        0
176
     1
 40
-0.6
176
     1
 41
-30.0
176
     1
 62
     5
 63
     8
421
  8421504
176
     1
 74
     1
176
     1
 91
        4
176
     1
 64
     7
176
     1
 65
   257
176
     1
 75
     1
176
     1
175
     1
176
     1
 42
1.0
176
     1
 92
        8
176
     1
 66
     8
424
  8421504
176
     1
 43
1.0
176
     1
 76
     1
176
     1
 77
     6
176
     1
 78
     2
176
     1
 67
     7
176
     1
 79
     5
176
     1
170
     0
176
     1
171
     0
176
     1
290
     0
176
     1
 93
        1
176
     1
 44
0.0
176
     1
173
     0
176
     1
  0
VISUALSTYLE
  5
1A5
102
{ACAD_REACTORS
330
19B
102
}
330
19B
100
AcDbVisualStyle
  2
Conceptual
 70
     9
177
     2
291
     0
 71
     3
176
     1
 72
     2
176
     1
 73
     0
176
     1
 90
        0
176
     1
 40
-0.6
176
     1
 41
-30.0
176
     1
 62
     5
 63
     7
421
 16777215
176
     1
 74
     2
176
     1
 91
        2
176
     1
 64
     7
176
     1
 65
   257
176
     1
 75
     1
176
     1
175
     1
176
     1
 42
40.0
176
     1
 92
        8
176
     1
 66
     7
176
     1
 43
1.0
176
     1
 76
     1
176
     1
 77
     6
176
     1
 78
     2
176
     1
 67
     7
176
     1
 79
     3
176
     1
170
     0
176
     1
171
     0
176
     1
290
     0
176
     1
 93
        1
176
     1
 44
0.0
176
     1
173
     0
176
     1
  0
VISUALSTYLE
  5
1A6
102
{ACAD_REACTORS
330
19B
102
}
330
19B
100
AcDbVisualStyle
  2
Dim
 70
    11
177
     2
291
     1
 71
     2
176
     1
 72
     2
176
     1
 73
     0
176
     1
 90
        0
176
     1
 40
-0.6
176
     1
 41
-30.0
176
     1
 62
     5
 63
     7
421
 16777215
176
     1
 74
     1
176
     1
 91
        4
176
     1
 64
     7
176
     1
 65
   257
176
     1
 75
     1
176
     1
175
     1
176
     1
 42
1.0
176
     1
 92
        8
176
     1
 66
     7
176
     1
 43
1.0
176
     1
 76
     1
176
     1
 77
     6
176
     1
 78
     2
176
     1
 67
     7
176
     1
 79
     5
176
     1
170
     0
176
     1
171
     0
176
     1
290
     0
176
     1
 93
        1
176
     1
 44
-50.0
176
     1
173
     0
176
     1
  0
VISUALSTYLE
  5
1AA
102
{ACAD_REACTORS
330
19B
102
}
330
19B
100
AcDbVisualStyle
  2
Facepattern
 70
    15
177
     2
291
     1
 71
     2
176
     1
 72
     2
176
     1
 73
     0
176
     1
 90
        0
176
     1
 40
-0.6
176
     1
 41
-30.0
176
     1
 62
     5
 63
     7
421
 16777215
176
     1
 74
     1
176
     1
 91
        4
176
     1
 64
     7
176
     1
 65
   257
176
     1
 75
     1
176
     1
175
     1
176
     1
 42
1.0
176
     1
 92
        8
176
     1
 66
     7
176
     1
 43
1.0
176
     1
 76
     1
176
     1
 77
     6
176
     1
 78
     2
176
     1
 67
     7
176
     1
 79
     5
176
     1
170
     0
176
     1
171
     0
176
     1
290
     0
176
     1
 93
        1
176
     1
 44
0.0
176
     1
173
     0
176
     1
  0
VISUALSTYLE
  5
19C
102
{ACAD_REACTORS
330
19B
102
}
330
19B
100
AcDbVisualStyle
  2
Flat
 70
     0
177
     2
291
     1
 71
     2
176
     1
 72
     1
176
     1
 73
     1
176
     1
 90
        2
176
     1
 40
-0.6
176
     1
 41
30.0
176
     1
 62
     5
 63
     7
421
 16777215
176
     1
 74
     0
176
     1
 91
        4
176
     1
 64
     7
176
     1
 65
   257
176
     1
 75
     1
176
     1
175
     1
176
     1
 42
1.0
176
     1
 92
        8
176
     1
 66
     7
176
     1
 43
1.0
176
     1
 76
     1
176
     1
 77
     6
176
     1
 78
     2
176
     1
 67
     7
176
     1
 79
     5
176
     1
170
     0
176
     1
171
     0
176
     1
290
     0
176
     1
 93
       13
176
     1
 44
0.0
176
     1
173
     0
176
     1
  0
VISUALSTYLE
  5
19D
102
{ACAD_REACTORS
330
19B
102
}
330
19B
100
AcDbVisualStyle
  2
FlatWithEdges
 70
     1
177
     2
291
     1
 71
     2
176
     1
 72
     1
176
     1
 73
     1
176
     1
 90
        2
176
     1
 40
-0.6
176
     1
 41
30.0
176
     1
 62
     5
 63
     7
421
 16777215
176
     1
 74
     1
176
     1
 91
        4
176
     1
 64
     7
176
     1
 65
   257
176
     1
 75
     1
176
     1
175
     1
176
     1
 42
1.0
176
     1
 92
        0
176
     1
 66
   257
176
     1
 43
1.0
176
     1
 76
     1
176
     1
 77
     6
176
     1
 78
     2
176
     1
 67
     7
176
     1
 79
     5
176
     1
170
     0
176
     1
171
     0
176
     1
290
     0
176
     1
 93
       13
176
     1
 44
0.0
176
     1
173
     0
176
     1
  0
VISUALSTYLE
  5
19E
102
{ACAD_REACTORS
330
19B
102
}
330
19B
100
AcDbVisualStyle
  2
Gouraud
 70
     2
177
     2
291
     1
 71
     2
176
     1
 72
     2
176
     1
 73
     1
176
     1
 90
        2
176
     1
 40
-0.6
176
     1
 41
30.0
176
     1
 62
     5
 63
     7
421
 16777215
176
     1
 74
     0
176
     1
 91
        4
176
     1
 64
     7
176
     1
 65
   257
176
     1
 75
     1
176
     1
175
     1
176
     1
 42
1.0
176
     1
 92
        0
176
     1
 66
     7
176
     1
 43
1.0
176
     1
 76
     1
176
     1
 77
     6
176
     1
 78
     2
176
     1
 67
     7
176
     1
 79
     5
176
     1
170
     0
176
     1
171
     0
176
     1
290
     0
176
     1
 93
       13
176
     1
 44
0.0
176
     1
173
     0
176
     1
  0
VISUALSTYLE
  5
19F
102
{ACAD_REACTORS
330
19B
102
}
330
19B
100
AcDbVisualStyle
  2
GouraudWithEdges
 70
     3
177
     2
291
     1
 71
     2
176
     1
 72
     2
176
     1
 73
     1
176
     1
 90
        2
176
     1
 40
-0.6
176
     1
 41
30.0
176
     1
 62
     5
 63
     7
421
 16777215
176
     1
 74
     1
176
     1
 91
        4
176
     1
 64
     7
176
     1
 65
   257
176
     1
 75
     1
176
     1
175
     1
176
     1
 42
1.0
176
     1
 92
        0
176
     1
 66
   257
176
     1
 43
1.0
176
     1
 76
     1
176
     1
 77
     6
176
     1
 78
     2
176
     1
 67
     7
176
     1
 79
     5
176
     1
170
     0
176
     1
171
     0
176
     1
290
     0
176
     1
 93
       13
176
     1
 44
0.0
176
     1
173
     0
176
     1
  0
VISUALSTYLE
  5
1A9
102
{ACAD_REACTORS
330
19B
102
}
330
19B
100
AcDbVisualStyle
  2
Linepattern
 70
    14
177
     2
291
     1
 71
     2
176
     1
 72
     2
176
     1
 73
     0
176
     1
 90
        0
176
     1
 40
-0.6
176
     1
 41
-30.0
176
     1
 62
     5
 63
     7
421
 16777215
176
     1
 74
     1
176
     1
 91
        4
176
     1
 64
     7
176
     1
 65
   257
176
     1
 75
     7
176
     1
175
     7
176
     1
 42
1.0
176
     1
 92
        8
176
     1
 66
     7
176
     1
 43
1.0
176
     1
 76
     1
176
     1
 77
     6
176
     1
 78
     2
176
     1
 67
     7
176
     1
 79
     5
176
     1
170
     0
176
     1
171
     0
176
     1
290
     0
176
     1
 93
        1
176
     1
 44
0.0
176
     1
173
     0
176
     1
  0
VISUALSTYLE
  5
1A4
102
{ACAD_REACTORS
330
19B
102
}
330
19B
100
AcDbVisualStyle
  2
Realistic
 70
     8
177
     2
291
     0
 71
     2
176
     1
 72
     2
176
     1
 73
     0
176
     1
 90
        0
176
     1
 40
-0.6
176
     1
 41
-30.0
176
     1
 62
     5
 63
     7
421
 16777215
176
     1
 74
     1
176
     1
 91
        0
176
     1
 64
     7
176
     1
 65
   257
176
     1
 75
     1
176
     1
175
     1
176
     1
 42
1.0
176
     1
 92
        8
176
     1
 66
     8
424
  7895160
176
     1
 43
1.0
176
     1
 76
     1
176
     1
 77
     6
176
     1
 78
     2
176
     1
 67
     7
176
     1
 79
     5
176
     1
170
     0
176
     1
171
     0
176
     1
290
     0
176
     1
 93
       13
176
     1
 44
0.0
176
     1
173
     0
176
     1
  0
VISUALSTYLE
  5
1A8
102
{ACAD_REACTORS
330
19B
102
}
330
19B
100
AcDbVisualStyle
  2
Thicken
 70
    13
177
     2
291
     1
 71
     2
176
     1
 72
     2
176
     1
 73
     0
176
     1
 90
        0
176
     1
 40
-0.6
176
     1
 41
-30.0
176
     1
 62
     5
 63
     7
421
 16777215
176
     1
 74
     1
176
     1
 91
        4
176
     1
 64
     7
176
     1
 65
   257
176
     1
 75
     1
176
     1
175
     1
176
     1
 42
1.0
176
     1
 92
       12
176
     1
 66
     7
176
     1
 43
1.0
176
     1
 76
     1
176
     1
 77
     6
176
     1
 78
     2
176
     1
 67
     7
176
     1
 79
     5
176
     1
170
     0
176
     1
171
     0
176
     1
290
     0
176
     1
 93
        1
176
     1
 44
0.0
176
     1
173
     0
176
     1
  0
XRECORD
  5
1BC
102
{ACAD_REACTORS
330
1B1
102
}
330
1B1
100
AcDbXrecord
280
     1
 40
0.0
  0
XRECORD
  5
1BB
102
{ACAD_REACTORS
330
1B1
102
}
330
1B1
100
AcDbXrecord
280
     1
 40
0.0
  0
XRECORD
  5
1BE
102
{ACAD_REACTORS
330
1B1
102
}
330
1B1
100
AcDbXrecord
280
     1
290
     0
  0
XRECORD
  5
1C9
102
{ACAD_REACTORS
330
1B1
102
}
330
1B1
100
AcDbXrecord
280
     1
 40
2.0
  0
XRECORD
  5
1C5
102
{ACAD_REACTORS
330
1B1
102
}
330
1B1
100
AcDbXrecord
280
     1
 40
4.0
  0
XRECORD
  5
1C6
102
{ACAD_REACTORS
330
1B1
102
}
330
1B1
100
AcDbXrecord
280
     1
290
     0
  0
XRECORD
  5
1BD
102
{ACAD_REACTORS
330
1B1
102
}
330
1B1
100
AcDbXrecord
280
     1
1000
auto
  0
XRECORD
  5
1C0
102
{ACAD_REACTORS
330
1B1
102
}
330
1B1
100
AcDbXrecord
280
     1
1000
auto
  0
XRECORD
  5
1B5
102
{ACAD_REACTORS
330
1B1
102
}
330
1B1
100
AcDbXrecord
280
     1
1000
auto
  0
XRECORD
  5
1B9
102
{ACAD_REACTORS
330
1B1
102
}
330
1B1
100
AcDbXrecord
280
     1
1000
auto
  0
XRECORD
  5
1BA
102
{ACAD_REACTORS
330
1B1
102
}
330
1B1
100
AcDbXrecord
280
     1
 90
        1
  0
XRECORD
  5
1B6
102
{ACAD_REACTORS
330
1B1
102
}
330
1B1
100
AcDbXrecord
280
     1
 40
10.0
  0
XRECORD
  5
1C1
102
{ACAD_REACTORS
330
1B1
102
}
330
1B1
100
AcDbXrecord
280
     1
 40
10.0
  0
XRECORD
  5
1B2
102
{ACAD_REACTORS
330
1B1
102
}
330
1B1
100
AcDbXrecord
280
     1
 40
10.0
  0
XRECORD
  5
1CB
102
{ACAD_REACTORS
330
1B1
102
}
330
1B1
100
AcDbXrecord
280
     1
 40
10.0
  0
XRECORD
  5
1B4
102
{ACAD_REACTORS
330
1B1
102
}
330
1B1
100
AcDbXrecord
280
     1
290
     0
  0
XRECORD
  5
1C2
102
{ACAD_REACTORS
330
1B1
102
}
330
1B1
100
AcDbXrecord
280
     1
 90
        1
  0
XRECORD
  5
1C8
102
{ACAD_REACTORS
330
1B1
102
}
330
1B1
100
AcDbXrecord
280
     1
 40
0.0
  0
XRECORD
  5
1CA
102
{ACAD_REACTORS
330
1B1
102
}
330
1B1
100
AcDbXrecord
280
     1
 40
0.0
  0
XRECORD
  5
1B3
102
{ACAD_REACTORS
330
1B1
102
}
330
1B1
100
AcDbXrecord
280
     1
1000
Portrait
  0
XRECORD
  5
1B7
102
{ACAD_REACTORS
330
1B1
102
}
330
1B1
100
AcDbXrecord
280
     1
 40
297.0
  0
XRECORD
  5
1C3
102
{ACAD_REACTORS
330
1B1
102
}
330
1B1
100
AcDbXrecord
280
     1
 40
210.0
  0
XRECORD
  5
1B8
102
{ACAD_REACTORS
330
1B1
102
}
330
1B1
100
AcDbXrecord
280
     1
1000
1:1
  0
XRECORD
  5
1BF
102
{ACAD_REACTORS
330
1B1
102
}
330
1B1
100
AcDbXrecord
280
     1
290
     0
  0
XRECORD
  5
1C7
102
{ACAD_REACTORS
330
1B1
102
}
330
1B1
100
AcDbXrecord
280
     1
290
     1
  0
XRECORD
  5
1C4
102
{ACAD_REACTORS
330
1B1
102
}
330
1B1
100
AcDbXrecord
280
     1
 90
        4
  0
ENDSEC
  0
EOF
