999
dxflib 2.0.0.0
  0
SECTION
  2
HEADER
  9
$ACADVER
  1
AC1015
  9
$HANDSEED
  5
FFFF
  0
ENDSEC
  9
$DIMASZ
 40
2.5
  9
$DIMADEC
 70
2
  9
$GRIDUNIT
 10
0.01
 20
20.0
 30
0.0
  9
$DIMGAP
 40
0.625
  9
$DIMALT
 70
0
  9
$DIMRND
 40
0.01
  9
$INSUNITS
 70
0
  9
$DIMEXO
 40
0.625
  9
$DIMTXT
 40
2.5
  9
$DIMSTYLE
  2
Standard
  9
$PLIMMIN
 10
0.0
 20
0.0
 30
0.0
  9
$PLIMMAX
 10
210.0
 20
297.0
 30
0.0
  9
$DIMEXE
 40
1.25
  9
$DIMAUNIT
 70
0
  0
ENDSEC
  0
SECTION
  2
TABLES
  0
TABLE
  2
VPORT
  5
8
100
AcDbSymbolTable
 70
1
  0
VPORT
  5
30
100
AcDbSymbolTableRecord
100
AcDbViewportTableRecord
  2
*Active
 70
0
 10
0.0
 20
0.0
 11
1.0
 21
1.0
 12
286.3055555555554861
 22
148.5
 13
0.0
 23
0.0
 14
10.0
 24
10.0
 15
10.0
 25
10.0
 16
0.0
 26
0.0
 36
1.0
 17
0.0
 27
0.0
 37
0.0
 40
297.0
 41
1.92798353909465
 42
50.0
 43
0.0
 44
0.0
 50
0.0
 51
0.0
 71
0
 72
100
 73
1
 74
3
 75
1
 76
1
 77
0
 78
0
281
0
 65
1
110
0.0
120
0.0
130
0.0
111
1.0
121
0.0
131
0.0
112
0.0
122
1.0
132
0.0
 79
0
146
0.0
  0
ENDTAB
  0
TABLE
  2
LTYPE
  5
5
100
AcDbSymbolTable
 70
3
  0
LTYPE
  5
14
100
AcDbSymbolTableRecord
100
AcDbLinetypeTableRecord
  2
ByBlock
 70
0
  3

 72
65
 73
0
 40
0.0
  0
LTYPE
  5
15
100
AcDbSymbolTableRecord
100
AcDbLinetypeTableRecord
  2
ByLayer
 70
0
  3

 72
65
 73
0
 40
0.0
  0
LTYPE
  5
16
100
AcDbSymbolTableRecord
100
AcDbLinetypeTableRecord
  2
CONTINUOUS
 70
0
  3
Solid line
 72
65
 73
0
 40
0.0
  0
LTYPE
  5
31
100
AcDbSymbolTableRecord
100
AcDbLinetypeTableRecord
  2
DOT
 70
0
  0
LTYPE
  5
32
100
AcDbSymbolTableRecord
100
AcDbLinetypeTableRecord
  2
DOT2
 70
0
  0
LTYPE
  5
33
100
AcDbSymbolTableRecord
100
AcDbLinetypeTableRecord
  2
DOTX2
 70
0
  0
LTYPE
  5
34
100
AcDbSymbolTableRecord
100
AcDbLinetypeTableRecord
  2
DASHED
 70
0
  0
LTYPE
  5
35
100
AcDbSymbolTableRecord
100
AcDbLinetypeTableRecord
  2
DASHED2
 70
0
  0
LTYPE
  5
36
100
AcDbSymbolTableRecord
100
AcDbLinetypeTableRecord
  2
DASHEDX2
 70
0
  0
LTYPE
  5
37
100
AcDbSymbolTableRecord
100
AcDbLinetypeTableRecord
  2
DASHDOT
 70
0
  0
LTYPE
  5
38
100
AcDbSymbolTableRecord
100
AcDbLinetypeTableRecord
  2
DASHDOT2
 70
0
  0
LTYPE
  5
39
100
AcDbSymbolTableRecord
100
AcDbLinetypeTableRecord
  2
DASHDOTX2
 70
0
  0
LTYPE
  5
3A
100
AcDbSymbolTableRecord
100
AcDbLinetypeTableRecord
  2
DIVIDE
 70
0
  0
LTYPE
  5
3B
100
AcDbSymbolTableRecord
100
AcDbLinetypeTableRecord
  2
DIVIDE2
 70
0
  0
LTYPE
  5
3C
100
AcDbSymbolTableRecord
100
AcDbLinetypeTableRecord
  2
DIVIDEX2
 70
0
  0
LTYPE
  5
3D
100
AcDbSymbolTableRecord
100
AcDbLinetypeTableRecord
  2
CENTER
 70
0
  0
LTYPE
  5
3E
100
AcDbSymbolTableRecord
100
AcDbLinetypeTableRecord
  2
CENTER2
 70
0
  0
LTYPE
  5
3F
100
AcDbSymbolTableRecord
100
AcDbLinetypeTableRecord
  2
CENTERX2
 70
0
  0
LTYPE
  5
40
100
AcDbSymbolTableRecord
100
AcDbLinetypeTableRecord
  2
BORDER
 70
0
  0
LTYPE
  5
41
100
AcDbSymbolTableRecord
100
AcDbLinetypeTableRecord
  2
BORDER2
 70
0
  0
LTYPE
  5
42
100
AcDbSymbolTableRecord
100
AcDbLinetypeTableRecord
  2
BORDERX2
 70
0
  0
ENDTAB
  0
TABLE
  2
LAYER
  5
2
100
AcDbSymbolTable
 70
9
  0
LAYER
  5
10
100
AcDbSymbolTableRecord
100
AcDbLayerTableRecord
  2
0
 70
0
 62
7
  6
CONTINUOUS
370
0
390
F
  0
LAYER
  5
43
100
AcDbSymbolTableRecord
100
AcDbLayerTableRecord
  2
FRAME025
 70
0
 62
7
  6
CONTINUOUS
370
0
390
F
  0
LAYER
  5
44
100
AcDbSymbolTableRecord
100
AcDbLayerTableRecord
  2
FRAME035
 70
0
 62
2
  6
CONTINUOUS
370
0
390
F
  0
LAYER
  5
45
100
AcDbSymbolTableRecord
100
AcDbLayerTableRecord
  2
FRAME050
 70
0
 62
6
  6
CONTINUOUS
370
0
390
F
  0
LAYER
  5
46
100
AcDbSymbolTableRecord
100
AcDbLayerTableRecord
  2
FRAME070
 70
0
 62
5
  6
CONTINUOUS
370
0
390
F
  0
LAYER
  5
47
100
AcDbSymbolTableRecord
100
AcDbLayerTableRecord
  2
FRAME100
 70
0
 62
1
  6
CONTINUOUS
370
0
390
F
  0
LAYER
  5
48
100
AcDbSymbolTableRecord
100
AcDbLayerTableRecord
  2
FRAME140
 70
0
 62
3
  6
CONTINUOUS
370
0
390
F
  0
LAYER
  5
49
100
AcDbSymbolTableRecord
100
AcDbLayerTableRecord
  2
FRAME200
 70
0
 62
8
  6
CONTINUOUS
370
0
390
F
  0
LAYER
  5
4A
100
AcDbSymbolTableRecord
100
AcDbLayerTableRecord
  2
TB
 70
0
 62
7
  6
CONTINUOUS
370
0
390
F
  0
ENDTAB
  0
TABLE
  2
STYLE
  5
3
100
AcDbSymbolTable
 70
1
  0
STYLE
  5
11
100
AcDbSymbolTableRecord
100
AcDbTextStyleTableRecord
  2
Standard
 70
0
 40
0.0
 41
1.0
 50
0.0
 71
0
 42
2.5
  3
txt
  4

  0
ENDTAB
  0
TABLE
  2
VIEW
  5
6
100
AcDbSymbolTable
 70
0
  0
ENDTAB
  0
TABLE
  2
UCS
  5
7
100
AcDbSymbolTable
 70
0
  0
ENDTAB
  0
TABLE
  2
APPID
  5
9
100
AcDbSymbolTable
 70
1
  0
APPID
  5
12
100
AcDbSymbolTableRecord
100
AcDbRegAppTableRecord
  2
ACAD
 70
0
  0
ENDTAB
  0
TABLE
  2
DIMSTYLE
  5
A
100
AcDbSymbolTable
 70
1
100
AcDbDimStyleTable
 71
0
  0
DIMSTYLE
105
27
100
AcDbSymbolTableRecord
100
AcDbDimStyleTableRecord
  2
Standard
 70
0
  0
ENDTAB
  0
TABLE
  2
BLOCK_RECORD
  5
1
100
AcDbSymbolTable
 70
1
  0
BLOCK_RECORD
  5
1F
100
AcDbSymbolTableRecord
100
AcDbBlockTableRecord
  2
*Model_Space
340
22
  0
BLOCK_RECORD
  5
1B
100
AcDbSymbolTableRecord
100
AcDbBlockTableRecord
  2
*Paper_Space
340
1E
  0
BLOCK_RECORD
  5
23
100
AcDbSymbolTableRecord
100
AcDbBlockTableRecord
  2
*Paper_Space0
340
26
  0
ENDTAB
  0
ENDSEC
  0
SECTION
  2
BLOCKS
  0
BLOCK
  5
20
100
AcDbEntity
  8
0
100
AcDbBlockBegin
  2
*Model_Space
 70
0
 10
0.0
 20
0.0
 30
0.0
  3
*Model_Space
  1

  0
ENDBLK
  5
21
100
AcDbEntity
  8
0
100
AcDbBlockEnd
  0
BLOCK
  5
1C
100
AcDbEntity
 67
1
  8
0
100
AcDbBlockBegin
  2
*Paper_Space
 70
0
 10
0.0
 20
0.0
 30
0.0
  3
*Paper_Space
  1

  0
ENDBLK
  5
1D
100
AcDbEntity
 67
1
  8
0
100
AcDbBlockEnd
  0
BLOCK
  5
24
100
AcDbEntity
  8
0
100
AcDbBlockBegin
  2
*Paper_Space0
 70
0
 10
0.0
 20
0.0
 30
0.0
  3
*Paper_Space0
  1

  0
ENDBLK
  5
25
100
AcDbEntity
  8
0
100
AcDbBlockEnd
  0
ENDSEC
  0
SECTION
  2
ENTITIES
  0
LINE
  5
4B
100
AcDbEntity
100
AcDbLine
  8
FRAME200
 62
0
370
0
  6
CONTINUOUS
 10
0.0
 20
0.0
 30
0.0
 11
10.0
 21
0.0
 31
0.0
  0
LINE
  5
4C
100
AcDbEntity
100
AcDbLine
  8
FRAME200
 62
0
370
0
  6
CONTINUOUS
 10
0.0
 20
0.0
 30
0.0
 11
0.0
 21
10.0
 31
0.0
  0
LINE
  5
4D
100
AcDbEntity
100
AcDbLine
  8
FRAME200
 62
0
370
0
  6
CONTINUOUS
 10
594.0
 20
0.0
 30
0.0
 11
584.0
 21
0.0
 31
0.0
  0
LINE
  5
4E
100
AcDbEntity
100
AcDbLine
  8
FRAME200
 62
0
370
0
  6
CONTINUOUS
 10
594.0
 20
0.0
 30
0.0
 11
594.0
 21
10.0
 31
0.0
  0
LINE
  5
4F
100
AcDbEntity
100
AcDbLine
  8
FRAME200
 62
0
370
0
  6
CONTINUOUS
 10
594.0
 20
410.0
 30
0.0
 11
594.0
 21
420.0
 31
0.0
  0
LINE
  5
50
100
AcDbEntity
100
AcDbLine
  8
FRAME200
 62
0
370
0
  6
CONTINUOUS
 10
594.0
 20
420.0
 30
0.0
 11
584.0
 21
420.0
 31
0.0
  0
LINE
  5
51
100
AcDbEntity
100
AcDbLine
  8
FRAME200
 62
0
370
0
  6
CONTINUOUS
 10
10.0
 20
420.0
 30
0.0
 11
0.0
 21
420.0
 31
0.0
  0
LINE
  5
52
100
AcDbEntity
100
AcDbLine
  8
FRAME200
 62
0
370
0
  6
CONTINUOUS
 10
0.0
 20
420.0
 30
0.0
 11
0.0
 21
410.0
 31
0.0
  0
LINE
  5
53
100
AcDbEntity
100
AcDbLine
  8
FRAME070
 62
0
370
0
  6
CONTINUOUS
 10
10.0
 20
10.0
 30
0.0
 11
584.0
 21
10.0
 31
0.0
  0
LINE
  5
54
100
AcDbEntity
100
AcDbLine
  8
FRAME070
 62
0
370
0
  6
CONTINUOUS
 10
584.0
 20
10.0
 30
0.0
 11
584.0
 21
410.0
 31
0.0
  0
LINE
  5
55
100
AcDbEntity
100
AcDbLine
  8
FRAME070
 62
0
370
0
  6
CONTINUOUS
 10
584.0
 20
410.0
 30
0.0
 11
10.0
 21
410.0
 31
0.0
  0
LINE
  5
56
100
AcDbEntity
100
AcDbLine
  8
FRAME070
 62
0
370
0
  6
CONTINUOUS
 10
10.0
 20
410.0
 30
0.0
 11
10.0
 21
10.0
 31
0.0
  0
LINE
  5
57
100
AcDbEntity
100
AcDbLine
  8
FRAME050
 62
0
370
0
  6
CONTINUOUS
 10
297.0
 20
10.0
 30
0.0
 11
297.0
 21
5.0
 31
0.0
  0
LINE
  5
58
100
AcDbEntity
100
AcDbLine
  8
FRAME050
 62
0
370
0
  6
CONTINUOUS
 10
247.0
 20
5.0
 30
0.0
 11
347.0
 21
5.0
 31
0.0
  0
LINE
  5
59
100
AcDbEntity
100
AcDbLine
  8
FRAME050
 62
0
370
0
  6
CONTINUOUS
 10
247.0
 20
5.0
 30
0.0
 11
247.0
 21
10.0
 31
0.0
  0
LINE
  5
5A
100
AcDbEntity
100
AcDbLine
  8
FRAME050
 62
0
370
0
  6
CONTINUOUS
 10
347.0
 20
5.0
 30
0.0
 11
347.0
 21
10.0
 31
0.0
  0
LINE
  5
5B
100
AcDbEntity
100
AcDbLine
  8
FRAME050
 62
0
370
0
  6
CONTINUOUS
 10
257.0
 20
5.0
 30
0.0
 11
257.0
 21
10.0
 31
0.0
  0
LINE
  5
5C
100
AcDbEntity
100
AcDbLine
  8
FRAME050
 62
0
370
0
  6
CONTINUOUS
 10
267.0
 20
5.0
 30
0.0
 11
267.0
 21
10.0
 31
0.0
  0
LINE
  5
5D
100
AcDbEntity
100
AcDbLine
  8
FRAME050
 62
0
370
0
  6
CONTINUOUS
 10
277.0
 20
5.0
 30
0.0
 11
277.0
 21
10.0
 31
0.0
  0
LINE
  5
5E
100
AcDbEntity
100
AcDbLine
  8
FRAME050
 62
0
370
0
  6
CONTINUOUS
 10
287.0
 20
5.0
 30
0.0
 11
287.0
 21
10.0
 31
0.0
  0
LINE
  5
5F
100
AcDbEntity
100
AcDbLine
  8
FRAME050
 62
0
370
0
  6
CONTINUOUS
 10
307.0
 20
5.0
 30
0.0
 11
307.0
 21
10.0
 31
0.0
  0
LINE
  5
60
100
AcDbEntity
100
AcDbLine
  8
FRAME050
 62
0
370
0
  6
CONTINUOUS
 10
317.0
 20
5.0
 30
0.0
 11
317.0
 21
10.0
 31
0.0
  0
LINE
  5
61
100
AcDbEntity
100
AcDbLine
  8
FRAME050
 62
0
370
0
  6
CONTINUOUS
 10
327.0
 20
5.0
 30
0.0
 11
327.0
 21
10.0
 31
0.0
  0
LINE
  5
62
100
AcDbEntity
100
AcDbLine
  8
FRAME050
 62
0
370
0
  6
CONTINUOUS
 10
337.0
 20
5.0
 30
0.0
 11
337.0
 21
10.0
 31
0.0
  0
LINE
  5
63
100
AcDbEntity
100
AcDbLine
  8
FRAME050
 62
0
370
0
  6
CONTINUOUS
 10
5.0
 20
210.0
 30
0.0
 11
15.0
 21
210.0
 31
0.0
  0
LINE
  5
64
100
AcDbEntity
100
AcDbLine
  8
FRAME050
 62
0
370
0
  6
CONTINUOUS
 10
579.0
 20
210.0
 30
0.0
 11
589.0
 21
210.0
 31
0.0
  0
LINE
  5
65
100
AcDbEntity
100
AcDbLine
  8
FRAME050
 62
0
370
0
  6
CONTINUOUS
 10
297.0
 20
405.0
 30
0.0
 11
297.0
 21
415.0
 31
0.0
  0
LINE
  5
66
100
AcDbEntity
100
AcDbLine
  8
FRAME050
 62
0
370
0
  6
CONTINUOUS
 10
297.0
 20
10.0
 30
0.0
 11
297.0
 21
15.0
 31
0.0
  0
LINE
  5
67
100
AcDbEntity
100
AcDbLine
  8
FRAME050
 62
0
370
0
  6
CONTINUOUS
 10
12.5
 20
212.5
 30
0.0
 11
12.5
 21
207.5
 31
0.0
  0
LINE
  5
68
100
AcDbEntity
100
AcDbLine
  8
FRAME050
 62
0
370
0
  6
CONTINUOUS
 10
12.5
 20
207.5
 30
0.0
 11
7.5
 21
210.0
 31
0.0
  0
LINE
  5
69
100
AcDbEntity
100
AcDbLine
  8
FRAME050
 62
0
370
0
  6
CONTINUOUS
 10
7.5
 20
210.0
 30
0.0
 11
12.5
 21
212.5
 31
0.0
  0
LINE
  5
6A
100
AcDbEntity
100
AcDbLine
  8
FRAME050
 62
0
370
0
  6
CONTINUOUS
 10
297.0
 20
7.5
 30
0.0
 11
294.5
 21
12.5
 31
0.0
  0
LINE
  5
6B
100
AcDbEntity
100
AcDbLine
  8
FRAME050
 62
0
370
0
  6
CONTINUOUS
 10
294.5
 20
12.5
 30
0.0
 11
299.5
 21
12.5
 31
0.0
  0
LINE
  5
6C
100
AcDbEntity
100
AcDbLine
  8
FRAME050
 62
0
370
0
  6
CONTINUOUS
 10
299.5
 20
12.5
 30
0.0
 11
297.0
 21
7.5
 31
0.0
  0
LINE
  5
6D
100
AcDbEntity
100
AcDbLine
  8
FRAME070
 62
0
370
0
  6
CONTINUOUS
 10
489.0
 20
20.0
 30
0.0
 11
584.0
 21
20.0
 31
0.0
  0
LINE
  5
6E
100
AcDbEntity
100
AcDbLine
  8
FRAME070
 62
0
370
0
  6
CONTINUOUS
 10
414.0
 20
30.0
 30
0.0
 11
584.0
 21
30.0
 31
0.0
  0
LINE
  5
6F
100
AcDbEntity
100
AcDbLine
  8
FRAME070
 62
0
370
0
  6
CONTINUOUS
 10
414.0
 20
40.0
 30
0.0
 11
584.0
 21
40.0
 31
0.0
  0
LINE
  5
70
100
AcDbEntity
100
AcDbLine
  8
FRAME070
 62
0
370
0
  6
CONTINUOUS
 10
414.0
 20
10.0
 30
0.0
 11
414.0
 21
40.0
 31
0.0
  0
LINE
  5
71
100
AcDbEntity
100
AcDbLine
  8
FRAME070
 62
0
370
0
  6
CONTINUOUS
 10
489.0
 20
10.0
 30
0.0
 11
489.0
 21
30.0
 31
0.0
  0
LINE
  5
72
100
AcDbEntity
100
AcDbLine
  8
FRAME070
 62
0
370
0
  6
CONTINUOUS
 10
564.0
 20
10.0
 30
0.0
 11
564.0
 21
20.0
 31
0.0
  0
LINE
  5
73
100
AcDbEntity
100
AcDbLine
  8
FRAME070
 62
0
370
0
  6
CONTINUOUS
 10
549.0
 20
10.0
 30
0.0
 11
549.0
 21
20.0
 31
0.0
  0
LINE
  5
74
100
AcDbEntity
100
AcDbLine
  8
FRAME070
 62
0
370
0
  6
CONTINUOUS
 10
564.0
 20
30.0
 30
0.0
 11
564.0
 21
40.0
 31
0.0
  0
LINE
  5
75
100
AcDbEntity
100
AcDbLine
  8
FRAME070
 62
0
370
0
  6
CONTINUOUS
 10
534.0
 20
30.0
 30
0.0
 11
534.0
 21
40.0
 31
0.0
  0
LINE
  5
76
100
AcDbEntity
100
AcDbLine
  8
FRAME070
 62
0
370
0
  6
CONTINUOUS
 10
509.0
 20
30.0
 30
0.0
 11
509.0
 21
40.0
 31
0.0
  0
LINE
  5
77
100
AcDbEntity
100
AcDbLine
  8
FRAME070
 62
0
370
0
  6
CONTINUOUS
 10
471.0
 20
30.0
 30
0.0
 11
471.0
 21
40.0
 31
0.0
  0
LINE
  5
78
100
AcDbEntity
100
AcDbLine
  8
FRAME070
 62
0
370
0
  6
CONTINUOUS
 10
446.0
 20
30.0
 30
0.0
 11
446.0
 21
40.0
 31
0.0
  0
LINE
  5
79
100
AcDbEntity
100
AcDbLine
  8
FRAME070
 62
0
370
0
  6
CONTINUOUS
 10
414.0
 20
46.0
 30
0.0
 11
584.0
 21
46.0
 31
0.0
  0
LINE
  5
7A
100
AcDbEntity
100
AcDbLine
  8
FRAME070
 62
0
370
0
  6
CONTINUOUS
 10
429.0
 20
40.0
 30
0.0
 11
429.0
 21
46.0
 31
0.0
  0
LINE
  5
7B
100
AcDbEntity
100
AcDbLine
  8
FRAME070
 62
0
370
0
  6
CONTINUOUS
 10
414.0
 20
40.0
 30
0.0
 11
414.0
 21
46.0
 31
0.0
  0
LINE
  5
7C
100
AcDbEntity
100
AcDbLine
  8
FRAME070
 62
0
370
0
  6
CONTINUOUS
 10
446.0
 20
40.0
 30
0.0
 11
446.0
 21
46.0
 31
0.0
  0
LINE
  5
7D
100
AcDbEntity
100
AcDbLine
  8
FRAME070
 62
0
370
0
  6
CONTINUOUS
 10
534.0
 20
40.0
 30
0.0
 11
534.0
 21
46.0
 31
0.0
  0
LINE
  5
7E
100
AcDbEntity
100
AcDbLine
  8
FRAME070
 62
0
370
0
  6
CONTINUOUS
 10
414.0
 20
404.0
 30
0.0
 11
414.0
 21
410.0
 31
0.0
  0
LINE
  5
7F
100
AcDbEntity
100
AcDbLine
  8
FRAME070
 62
0
370
0
  6
CONTINUOUS
 10
414.0
 20
404.0
 30
0.0
 11
584.0
 21
404.0
 31
0.0
  0
LINE
  5
80
100
AcDbEntity
100
AcDbLine
  8
FRAME070
 62
0
370
0
  6
CONTINUOUS
 10
426.0
 20
404.0
 30
0.0
 11
426.0
 21
410.0
 31
0.0
  0
LINE
  5
81
100
AcDbEntity
100
AcDbLine
  8
FRAME070
 62
0
370
0
  6
CONTINUOUS
 10
535.0
 20
404.0
 30
0.0
 11
535.0
 21
410.0
 31
0.0
  0
LINE
  5
82
100
AcDbEntity
100
AcDbLine
  8
FRAME070
 62
0
370
0
  6
CONTINUOUS
 10
555.0
 20
404.0
 30
0.0
 11
555.0
 21
410.0
 31
0.0
  0
LINE
  5
83
100
AcDbEntity
100
AcDbLine
  8
FRAME070
 62
0
370
0
  6
CONTINUOUS
 10
570.0
 20
404.0
 30
0.0
 11
570.0
 21
410.0
 31
0.0
  0
LINE
  5
84
100
AcDbEntity
100
AcDbLine
  8
FRAME050
 62
0
370
0
  6
CONTINUOUS
 10
10.0
 20
110.0
 30
0.0
 11
5.0
 21
110.0
 31
0.0
  0
LINE
  5
85
100
AcDbEntity
100
AcDbLine
  8
FRAME050
 62
0
370
0
  6
CONTINUOUS
 10
10.0
 20
160.0
 30
0.0
 11
5.0
 21
160.0
 31
0.0
  0
LINE
  5
86
100
AcDbEntity
100
AcDbLine
  8
FRAME050
 62
0
370
0
  6
CONTINUOUS
 10
10.0
 20
60.0
 30
0.0
 11
5.0
 21
60.0
 31
0.0
  0
LINE
  5
87
100
AcDbEntity
100
AcDbLine
  8
FRAME050
 62
0
370
0
  6
CONTINUOUS
 10
10.0
 20
260.0
 30
0.0
 11
5.0
 21
260.0
 31
0.0
  0
LINE
  5
88
100
AcDbEntity
100
AcDbLine
  8
FRAME050
 62
0
370
0
  6
CONTINUOUS
 10
10.0
 20
360.0
 30
0.0
 11
5.0
 21
360.0
 31
0.0
  0
LINE
  5
89
100
AcDbEntity
100
AcDbLine
  8
FRAME050
 62
0
370
0
  6
CONTINUOUS
 10
10.0
 20
310.0
 30
0.0
 11
5.0
 21
310.0
 31
0.0
  0
MTEXT
  5
8A
100
AcDbEntity
100
AcDbMText
  8
FRAME050
 62
0
370
0
  6
CONTINUOUS
 10
6.0999999999999996
 20
135.0
 30
0.0
 40
4.0
 41
100.0
 71
7
 72
2
  1
F
  7
Courier
 50
0.0
 73
0
 44
1.0
  0
MTEXT
  5
8B
100
AcDbEntity
100
AcDbMText
  8
FRAME050
 62
0
370
0
  6
CONTINUOUS
 10
6.0035530000000001
 20
85.0
 30
0.0
 40
4.0
 41
100.0
 71
7
 72
2
  1
G
  7
Courier
 50
0.0
 73
0
 44
1.0
  0
MTEXT
  5
8C
100
AcDbEntity
100
AcDbMText
  8
FRAME050
 62
0
370
0
  6
CONTINUOUS
 10
5.9000000000000004
 20
35.0
 30
0.0
 40
4.0
 41
100.0
 71
7
 72
2
  1
H
  7
Courier
 50
0.0
 73
0
 44
1.0
  0
MTEXT
  5
8D
100
AcDbEntity
100
AcDbMText
  8
FRAME050
 62
0
370
0
  6
CONTINUOUS
 10
5.7860909999999999
 20
235.0
 30
0.0
 40
4.0
 41
100.0
 71
7
 72
2
  1
D
  7
Courier
 50
0.0
 73
0
 44
1.0
  0
MTEXT
  5
8E
100
AcDbEntity
100
AcDbMText
  8
FRAME050
 62
0
370
0
  6
CONTINUOUS
 10
6.1931979999999998
 20
285.0
 30
0.0
 40
4.0
 41
100.0
 71
7
 72
2
  1
C
  7
Courier
 50
0.0
 73
0
 44
1.0
  0
MTEXT
  5
8F
100
AcDbEntity
100
AcDbMText
  8
FRAME050
 62
0
370
0
  6
CONTINUOUS
 10
5.9000000000000004
 20
335.0
 30
0.0
 40
4.0
 41
100.0
 71
7
 72
2
  1
B
  7
Courier
 50
0.0
 73
0
 44
1.0
  0
MTEXT
  5
90
100
AcDbEntity
100
AcDbMText
  8
FRAME050
 62
0
370
0
  6
CONTINUOUS
 10
6.0999999999999996
 20
185.0
 30
0.0
 40
4.0
 41
100.0
 71
7
 72
2
  1
E
  7
Courier
 50
0.0
 73
0
 44
1.0
  0
MTEXT
  5
91
100
AcDbEntity
100
AcDbMText
  8
FRAME050
 62
0
370
0
  6
CONTINUOUS
 10
5.7000000000000002
 20
385.0
 30
0.0
 40
4.0
 41
100.0
 71
7
 72
2
  1
A
  7
Courier
 50
0.0
 73
0
 44
1.0
  0
MTEXT
  5
92
100
AcDbEntity
100
AcDbMText
  8
FRAME050
 62
0
370
0
  6
CONTINUOUS
 10
584.7860910000000558
 20
235.0
 30
0.0
 40
4.0
 41
100.0
 71
7
 72
2
  1
D
  7
Courier
 50
0.0
 73
0
 44
1.0
  0
LINE
  5
93
100
AcDbEntity
100
AcDbLine
  8
FRAME050
 62
0
370
0
  6
CONTINUOUS
 10
589.0
 20
260.0
 30
0.0
 11
584.0
 21
260.0
 31
0.0
  0
MTEXT
  5
94
100
AcDbEntity
100
AcDbMText
  8
FRAME050
 62
0
370
0
  6
CONTINUOUS
 10
585.1931980000000522
 20
285.0
 30
0.0
 40
4.0
 41
100.0
 71
7
 72
2
  1
C
  7
Courier
 50
0.0
 73
0
 44
1.0
  0
LINE
  5
95
100
AcDbEntity
100
AcDbLine
  8
FRAME050
 62
0
370
0
  6
CONTINUOUS
 10
589.0
 20
310.0
 30
0.0
 11
584.0
 21
310.0
 31
0.0
  0
MTEXT
  5
96
100
AcDbEntity
100
AcDbMText
  8
FRAME050
 62
0
370
0
  6
CONTINUOUS
 10
584.8999999999999773
 20
335.0
 30
0.0
 40
4.0
 41
100.0
 71
7
 72
2
  1
B
  7
Courier
 50
0.0
 73
0
 44
1.0
  0
LINE
  5
97
100
AcDbEntity
100
AcDbLine
  8
FRAME050
 62
0
370
0
  6
CONTINUOUS
 10
589.0
 20
360.0
 30
0.0
 11
584.0
 21
360.0
 31
0.0
  0
MTEXT
  5
98
100
AcDbEntity
100
AcDbMText
  8
FRAME050
 62
0
370
0
  6
CONTINUOUS
 10
584.7000000000000455
 20
385.0
 30
0.0
 40
4.0
 41
100.0
 71
7
 72
2
  1
A
  7
Courier
 50
0.0
 73
0
 44
1.0
  0
MTEXT
  5
99
100
AcDbEntity
100
AcDbMText
  8
FRAME050
 62
0
370
0
  6
CONTINUOUS
 10
584.8999999999999773
 20
35.0
 30
0.0
 40
4.0
 41
100.0
 71
7
 72
2
  1
H
  7
Courier
 50
0.0
 73
0
 44
1.0
  0
LINE
  5
9A
100
AcDbEntity
100
AcDbLine
  8
FRAME050
 62
0
370
0
  6
CONTINUOUS
 10
589.0
 20
60.0
 30
0.0
 11
584.0
 21
60.0
 31
0.0
  0
MTEXT
  5
9B
100
AcDbEntity
100
AcDbMText
  8
FRAME050
 62
0
370
0
  6
CONTINUOUS
 10
585.0035530000000108
 20
85.0
 30
0.0
 40
4.0
 41
100.0
 71
7
 72
2
  1
G
  7
Courier
 50
0.0
 73
0
 44
1.0
  0
LINE
  5
9C
100
AcDbEntity
100
AcDbLine
  8
FRAME050
 62
0
370
0
  6
CONTINUOUS
 10
589.0
 20
110.0
 30
0.0
 11
584.0
 21
110.0
 31
0.0
  0
MTEXT
  5
9D
100
AcDbEntity
100
AcDbMText
  8
FRAME050
 62
0
370
0
  6
CONTINUOUS
 10
585.1000000000000227
 20
135.0
 30
0.0
 40
4.0
 41
100.0
 71
7
 72
2
  1
F
  7
Courier
 50
0.0
 73
0
 44
1.0
  0
LINE
  5
9E
100
AcDbEntity
100
AcDbLine
  8
FRAME050
 62
0
370
0
  6
CONTINUOUS
 10
589.0
 20
160.0
 30
0.0
 11
584.0
 21
160.0
 31
0.0
  0
MTEXT
  5
9F
100
AcDbEntity
100
AcDbMText
  8
FRAME050
 62
0
370
0
  6
CONTINUOUS
 10
585.1000000000000227
 20
185.0
 30
0.0
 40
4.0
 41
100.0
 71
7
 72
2
  1
E
  7
Courier
 50
0.0
 73
0
 44
1.0
  0
LINE
  5
A0
100
AcDbEntity
100
AcDbLine
  8
FRAME050
 62
0
370
0
  6
CONTINUOUS
 10
153.5
 20
410.0
 30
0.0
 11
153.5
 21
415.0
 31
0.0
  0
LINE
  5
A1
100
AcDbEntity
100
AcDbLine
  8
FRAME050
 62
0
370
0
  6
CONTINUOUS
 10
225.25
 20
410.0
 30
0.0
 11
225.25
 21
415.0
 31
0.0
  0
LINE
  5
A2
100
AcDbEntity
100
AcDbLine
  8
FRAME050
 62
0
370
0
  6
CONTINUOUS
 10
81.75
 20
410.0
 30
0.0
 11
81.75
 21
415.0
 31
0.0
  0
LINE
  5
A3
100
AcDbEntity
100
AcDbLine
  8
FRAME050
 62
0
370
0
  6
CONTINUOUS
 10
368.75
 20
410.0
 30
0.0
 11
368.75
 21
415.0
 31
0.0
  0
LINE
  5
A4
100
AcDbEntity
100
AcDbLine
  8
FRAME050
 62
0
370
0
  6
CONTINUOUS
 10
440.5
 20
410.0
 30
0.0
 11
440.5
 21
415.0
 31
0.0
  0
LINE
  5
A5
100
AcDbEntity
100
AcDbLine
  8
FRAME050
 62
0
370
0
  6
CONTINUOUS
 10
512.25
 20
410.0
 30
0.0
 11
512.25
 21
415.0
 31
0.0
  0
MTEXT
  5
A6
100
AcDbEntity
100
AcDbMText
  8
FRAME050
 62
0
370
0
  6
CONTINUOUS
 10
116.1556690000000032
 20
410.3996060000000057
 30
0.0
 40
4.0
 41
100.0
 71
7
 72
2
  1
2
  7
Courier
 50
0.0
 73
0
 44
1.0
  0
MTEXT
  5
A7
100
AcDbEntity
100
AcDbMText
  8
FRAME050
 62
0
370
0
  6
CONTINUOUS
 10
44.875
 20
410.5
 30
0.0
 40
4.0
 41
100.0
 71
7
 72
2
  1
1
  7
Courier
 50
0.0
 73
0
 44
1.0
  0
MTEXT
  5
A8
100
AcDbEntity
100
AcDbMText
  8
FRAME050
 62
0
370
0
  6
CONTINUOUS
 10
187.8921569999999974
 20
410.5828430000000253
 30
0.0
 40
4.0
 41
100.0
 71
7
 72
2
  1
3
  7
Courier
 50
0.0
 73
0
 44
1.0
  0
MTEXT
  5
A9
100
AcDbEntity
100
AcDbMText
  8
FRAME050
 62
0
370
0
  6
CONTINUOUS
 10
259.5249999999999773
 20
410.5
 30
0.0
 40
4.0
 41
100.0
 71
7
 72
2
  1
4
  7
Courier
 50
0.0
 73
0
 44
1.0
  0
MTEXT
  5
AA
100
AcDbEntity
100
AcDbMText
  8
FRAME050
 62
0
370
0
  6
CONTINUOUS
 10
403.2454720000000066
 20
410.4102359999999976
 30
0.0
 40
4.0
 41
100.0
 71
7
 72
2
  1
6
  7
Courier
 50
0.0
 73
0
 44
1.0
  0
MTEXT
  5
AB
100
AcDbEntity
100
AcDbMText
  8
FRAME050
 62
0
370
0
  6
CONTINUOUS
 10
474.9750000000000227
 20
410.5
 30
0.0
 40
4.0
 41
100.0
 71
7
 72
2
  1
7
  7
Courier
 50
0.0
 73
0
 44
1.0
  0
MTEXT
  5
AC
100
AcDbEntity
100
AcDbMText
  8
FRAME050
 62
0
370
0
  6
CONTINUOUS
 10
546.7250000000000227
 20
410.5
 30
0.0
 40
4.0
 41
100.0
 71
7
 72
2
  1
8
  7
Courier
 50
0.0
 73
0
 44
1.0
  0
MTEXT
  5
AD
100
AcDbEntity
100
AcDbMText
  8
FRAME050
 62
0
370
0
  6
CONTINUOUS
 10
331.3921569999999974
 20
410.5828430000000253
 30
0.0
 40
4.0
 41
100.0
 71
7
 72
2
  1
5
  7
Courier
 50
0.0
 73
0
 44
1.0
  0
MTEXT
  5
AE
100
AcDbEntity
100
AcDbMText
  8
FRAME050
 62
0
370
0
  6
CONTINUOUS
 10
44.875
 20
5.5
 30
0.0
 40
4.0
 41
100.0
 71
7
 72
2
  1
1
  7
Courier
 50
0.0
 73
0
 44
1.0
  0
LINE
  5
AF
100
AcDbEntity
100
AcDbLine
  8
FRAME050
 62
0
370
0
  6
CONTINUOUS
 10
81.75
 20
5.0
 30
0.0
 11
81.75
 21
10.0
 31
0.0
  0
MTEXT
  5
B0
100
AcDbEntity
100
AcDbMText
  8
FRAME050
 62
0
370
0
  6
CONTINUOUS
 10
116.1556690000000032
 20
5.3996060000000003
 30
0.0
 40
4.0
 41
100.0
 71
7
 72
2
  1
2
  7
Courier
 50
0.0
 73
0
 44
1.0
  0
LINE
  5
B1
100
AcDbEntity
100
AcDbLine
  8
FRAME050
 62
0
370
0
  6
CONTINUOUS
 10
153.5
 20
5.0
 30
0.0
 11
153.5
 21
10.0
 31
0.0
  0
MTEXT
  5
B2
100
AcDbEntity
100
AcDbMText
  8
FRAME050
 62
0
370
0
  6
CONTINUOUS
 10
187.8921569999999974
 20
5.5828430000000004
 30
0.0
 40
4.0
 41
100.0
 71
7
 72
2
  1
3
  7
Courier
 50
0.0
 73
0
 44
1.0
  0
LINE
  5
B3
100
AcDbEntity
100
AcDbLine
  8
FRAME050
 62
0
370
0
  6
CONTINUOUS
 10
225.25
 20
5.0
 30
0.0
 11
225.25
 21
10.0
 31
0.0
  0
LINE
  5
B4
100
AcDbEntity
100
AcDbLine
  8
FRAME050
 62
0
370
0
  6
CONTINUOUS
 10
368.75
 20
5.0
 30
0.0
 11
368.75
 21
10.0
 31
0.0
  0
MTEXT
  5
B5
100
AcDbEntity
100
AcDbMText
  8
FRAME050
 62
0
370
0
  6
CONTINUOUS
 10
403.2454720000000066
 20
5.4102360000000003
 30
0.0
 40
4.0
 41
100.0
 71
7
 72
2
  1
6
  7
Courier
 50
0.0
 73
0
 44
1.0
  0
LINE
  5
B6
100
AcDbEntity
100
AcDbLine
  8
FRAME050
 62
0
370
0
  6
CONTINUOUS
 10
440.5
 20
5.0
 30
0.0
 11
440.5
 21
10.0
 31
0.0
  0
MTEXT
  5
B7
100
AcDbEntity
100
AcDbMText
  8
FRAME050
 62
0
370
0
  6
CONTINUOUS
 10
474.9750000000000227
 20
5.5
 30
0.0
 40
4.0
 41
100.0
 71
7
 72
2
  1
7
  7
Courier
 50
0.0
 73
0
 44
1.0
  0
LINE
  5
B8
100
AcDbEntity
100
AcDbLine
  8
FRAME050
 62
0
370
0
  6
CONTINUOUS
 10
512.25
 20
5.0
 30
0.0
 11
512.25
 21
10.0
 31
0.0
  0
MTEXT
  5
B9
100
AcDbEntity
100
AcDbMText
  8
FRAME050
 62
0
370
0
  6
CONTINUOUS
 10
546.7250000000000227
 20
5.5
 30
0.0
 40
4.0
 41
100.0
 71
7
 72
2
  1
8
  7
Courier
 50
0.0
 73
0
 44
1.0
  0
MTEXT
  5
BA
100
AcDbEntity
100
AcDbMText
  8
0
 62
0
370
0
  6
CONTINUOUS
 10
414.3360890000000154
 20
407.9130840000000262
 30
0.0
 40
1.8
 41
100.0
 71
7
 72
2
  1
RevNo
  7
Courier
 50
0.0
 73
0
 44
1.0
  0
MTEXT
  5
BB
100
AcDbEntity
100
AcDbMText
  8
0
 62
0
370
0
  6
CONTINUOUS
 10
426.3360890000000154
 20
407.9130840000000262
 30
0.0
 40
1.8
 41
100.0
 71
7
 72
2
  1
Revision\~note
  7
Courier
 50
0.0
 73
0
 44
1.0
  0
MTEXT
  5
BC
100
AcDbEntity
100
AcDbMText
  8
0
 62
0
370
0
  6
CONTINUOUS
 10
555.1114109999999755
 20
408.0794750000000022
 30
0.0
 40
1.6000000000000001
 41
100.0
 71
7
 72
2
  1
Signature
  7
Courier
 50
0.0
 73
0
 44
1.0
  0
MTEXT
  5
BD
100
AcDbEntity
100
AcDbMText
  8
0
 62
0
370
0
  6
CONTINUOUS
 10
570.8334069999999656
 20
408.0794750000000022
 30
0.0
 40
1.8
 41
100.0
 71
7
 72
2
  1
Checked
  7
Courier
 50
0.0
 73
0
 44
1.0
  0
MTEXT
  5
BE
100
AcDbEntity
100
AcDbMText
  8
0
 62
0
370
0
  6
CONTINUOUS
 10
535.5024799999999914
 20
407.9962790000000155
 30
0.0
 40
1.8
 41
100.0
 71
7
 72
2
  1
Date
  7
Courier
 50
0.0
 73
0
 44
1.0
  0
MTEXT
  5
BF
100
AcDbEntity
100
AcDbMText
  8
0
 62
0
370
0
  6
CONTINUOUS
 10
414.5446610000000192
 20
43.5691739999999967
 30
0.0
 40
1.8
 41
100.0
 71
7
 72
2
  1
Itemref
  7
Courier
 50
0.0
 73
0
 44
1.0
  0
MTEXT
  5
C0
100
AcDbEntity
100
AcDbMText
  8
0
 62
0
370
0
  6
CONTINUOUS
 10
429.5446610000000192
 20
43.5691739999999967
 30
0.0
 40
1.8
 41
100.0
 71
7
 72
2
  1
Quantity
  7
Courier
 50
0.0
 73
0
 44
1.0
  0
MTEXT
  5
C1
100
AcDbEntity
100
AcDbMText
  8
0
 62
0
370
0
  6
CONTINUOUS
 10
446.5446610000000192
 20
43.5691739999999967
 30
0.0
 40
1.8
 41
100.0
 71
7
 72
2
  1
Title/Name,\~designation,\~material,\~dimension\~etc
  7
Courier
 50
0.0
 73
0
 44
1.0
  0
MTEXT
  5
C2
100
AcDbEntity
100
AcDbMText
  8
0
 62
0
370
0
  6
CONTINUOUS
 10
534.5446610000000192
 20
43.5691739999999967
 30
0.0
 40
1.8
 41
100.0
 71
7
 72
2
  1
Article\~No./Reference
  7
Courier
 50
0.0
 73
0
 44
1.0
  0
MTEXT
  5
C3
100
AcDbEntity
100
AcDbMText
  8
0
 62
0
370
0
  6
CONTINUOUS
 10
414.5446610000000192
 20
37.5691739999999967
 30
0.0
 40
1.8
 41
100.0
 71
7
 72
2
  1
Designed\~by
  7
Courier
 50
0.0
 73
0
 44
1.0
  0
MTEXT
  5
C4
100
AcDbEntity
100
AcDbMText
  8
0
 62
0
370
0
  6
CONTINUOUS
 10
446.5446610000000192
 20
37.5691739999999967
 30
0.0
 40
1.8
 41
100.0
 71
7
 72
2
  1
Checked\~by
  7
Courier
 50
0.0
 73
0
 44
1.0
  0
MTEXT
  5
C5
100
AcDbEntity
100
AcDbMText
  8
0
 62
0
370
0
  6
CONTINUOUS
 10
471.5446610000000192
 20
37.5691739999999967
 30
0.0
 40
1.8
 41
100.0
 71
7
 72
2
  1
Approved\~by\~-\~date
  7
Courier
 50
0.0
 73
0
 44
1.0
  0
MTEXT
  5
C6
100
AcDbEntity
100
AcDbMText
  8
0
 62
0
370
0
  6
CONTINUOUS
 10
509.5446610000000192
 20
37.5691739999999967
 30
0.0
 40
1.8
 41
100.0
 71
7
 72
2
  1
Filename
  7
Courier
 50
0.0
 73
0
 44
1.0
  0
MTEXT
  5
C7
100
AcDbEntity
100
AcDbMText
  8
0
 62
0
370
0
  6
CONTINUOUS
 10
534.5446610000000192
 20
37.5691739999999967
 30
0.0
 40
1.8
 41
100.0
 71
7
 72
2
  1
Date
  7
Courier
 50
0.0
 73
0
 44
1.0
  0
MTEXT
  5
C8
100
AcDbEntity
100
AcDbMText
  8
0
 62
0
370
0
  6
CONTINUOUS
 10
564.5446610000000192
 20
37.5691739999999967
 30
0.0
 40
1.8
 41
100.0
 71
7
 72
2
  1
Scale
  7
Courier
 50
0.0
 73
0
 44
1.0
  0
MTEXT
  5
C9
100
AcDbEntity
100
AcDbMText
  8
0
 62
0
370
0
  6
CONTINUOUS
 10
549.5446610000000192
 20
17.5691740000000003
 30
0.0
 40
1.8
 41
100.0
 71
7
 72
2
  1
Edition
  7
Courier
 50
0.0
 73
0
 44
1.0
  0
MTEXT
  5
CA
100
AcDbEntity
100
AcDbMText
  8
0
 62
0
370
0
  6
CONTINUOUS
 10
564.5446610000000192
 20
17.5691740000000003
 30
0.0
 40
1.8
 41
100.0
 71
7
 72
2
  1
Sheet
  7
Courier
 50
0.0
 73
0
 44
1.0
  0
ENDSEC
  0
SECTION
  2
OBJECTS
  0
DICTIONARY
  5
C
100
AcDbDictionary
280
0
281
1
  3
ACAD_GROUP
350
D
  3
ACAD_LAYOUT
350
1A
  3
ACAD_MLINESTYLE
350
17
  3
ACAD_PLOTSETTINGS
350
19
  3
ACAD_PLOTSTYLENAME
350
E
  3
AcDbVariableDictionary
350
CB
  0
DICTIONARY
  5
D
100
AcDbDictionary
280
0
281
1
  0
ACDBDICTIONARYWDFLT
  5
E
100
AcDbDictionary
281
1
  3
Normal
350
F
100
AcDbDictionaryWithDefault
340
F
  0
ACDBPLACEHOLDER
  5
F
  0
DICTIONARY
  5
17
100
AcDbDictionary
280
0
281
1
  3
Standard
350
18
  0
MLINESTYLE
  5
18
100
AcDbMlineStyle
  2
STANDARD
 70
0
  3

 62
256
 51
90.0
 52
90.0
 71
2
 49
0.5
 62
256
  6
BYLAYER
 49
-0.5
 62
256
  6
BYLAYER
  0
DICTIONARY
  5
19
100
AcDbDictionary
280
0
281
1
  0
DICTIONARY
  5
1A
100
AcDbDictionary
281
1
  3
Layout1
350
1E
  3
Layout2
350
26
  3
Model
350
22
  0
LAYOUT
  5
1E
100
AcDbPlotSettings
  1

  2
C:\Program Files\AutoCAD 2002\plotters\DWF ePlot (optimized for plotting).pc3
  4

  6

 40
0.0
 41
0.0
 42
0.0
 43
0.0
 44
0.0
 45
0.0
 46
0.0
 47
0.0
 48
0.0
 49
0.0
140
0.0
141
0.0
142
1.0
143
1.0
 70
688
 72
0
 73
0
 74
5
  7

 75
16
147
1.0
148
0.0
149
0.0
100
AcDbLayout
  1
Layout1
 70
1
 71
1
 10
0.0
 20
0.0
 11
420.0
 21
297.0
 12
0.0
 22
0.0
 32
0.0
 14
100000000000000000000.0
 24
100000000000000000000.0
 34
100000000000000000000.0
 15
-100000000000000000000.0
 25
-100000000000000000000.0
 35
-100000000000000000000.0
146
0.0
 13
0.0
 23
0.0
 33
0.0
 16
1.0
 26
0.0
 36
0.0
 17
0.0
 27
1.0
 37
0.0
 76
0
330
1B
  0
LAYOUT
  5
22
100
AcDbPlotSettings
  1

  2
C:\Program Files\AutoCAD 2002\plotters\DWF ePlot (optimized for plotting).pc3
  4

  6

 40
0.0
 41
0.0
 42
0.0
 43
0.0
 44
0.0
 45
0.0
 46
0.0
 47
0.0
 48
0.0
 49
0.0
140
0.0
141
0.0
142
1.0
143
1.0
 70
1712
 72
0
 73
0
 74
0
  7

 75
0
147
1.0
148
0.0
149
0.0
100
AcDbLayout
  1
Model
 70
1
 71
0
 10
0.0
 20
0.0
 11
12.0
 21
9.0
 12
0.0
 22
0.0
 32
0.0
 14
0.0
 24
0.0
 34
0.0
 15
0.0
 25
0.0
 35
0.0
146
0.0
 13
0.0
 23
0.0
 33
0.0
 16
1.0
 26
0.0
 36
0.0
 17
0.0
 27
1.0
 37
0.0
 76
0
330
1F
  0
LAYOUT
  5
26
100
AcDbPlotSettings
  1

  2
C:\Program Files\AutoCAD 2002\plotters\DWF ePlot (optimized for plotting).pc3
  4

  6

 40
0.0
 41
0.0
 42
0.0
 43
0.0
 44
0.0
 45
0.0
 46
0.0
 47
0.0
 48
0.0
 49
0.0
140
0.0
141
0.0
142
1.0
143
1.0
 70
688
 72
0
 73
0
 74
5
  7

 75
16
147
1.0
148
0.0
149
0.0
100
AcDbLayout
  1
Layout2
 70
1
 71
2
 10
0.0
 20
0.0
 11
12.0
 21
9.0
 12
0.0
 22
0.0
 32
0.0
 14
0.0
 24
0.0
 34
0.0
 15
0.0
 25
0.0
 35
0.0
146
0.0
 13
0.0
 23
0.0
 33
0.0
 16
1.0
 26
0.0
 36
0.0
 17
0.0
 27
1.0
 37
0.0
 76
0
330
23
  0
DICTIONARY
  5
CB
100
AcDbDictionary
281
1
  3
DIMASSOC
350
CD
  3
HIDETEXT
350
CC
  0
DICTIONARYVAR
  5
CC
100
DictionaryVariables
280
0
  1
2
  0
DICTIONARYVAR
  5
CD
100
DictionaryVariables
280
0
  1
1
  0
ENDSEC
  0
EOF
