<?xml version="1.0" encoding="UTF-8" standalone="no"?>
<svg
   viewBox="0 0 512 512"
   version="1.1"
   id="svg6"
   sodipodi:docname="SnapSelection-inverse.svg"
   inkscape:version="1.4.3 (0d15f75, 2025-12-25)"
   xmlns:inkscape="http://www.inkscape.org/namespaces/inkscape"
   xmlns:sodipodi="http://sodipodi.sourceforge.net/DTD/sodipodi-0.dtd"
   xmlns="http://www.w3.org/2000/svg"
   xmlns:svg="http://www.w3.org/2000/svg">
  <defs
     id="defs6" />
  <sodipodi:namedview
     id="namedview6"
     pagecolor="#ffffff"
     bordercolor="#000000"
     borderopacity="0.25"
     inkscape:showpageshadow="2"
     inkscape:pageopacity="0.0"
     inkscape:pagecheckerboard="0"
     inkscape:deskcolor="#d1d1d1"
     inkscape:zoom="1.2153398"
     inkscape:cx="257.12974"
     inkscape:cy="257.95255"
     inkscape:window-width="1387"
     inkscape:window-height="1186"
     inkscape:window-x="1153"
     inkscape:window-y="96"
     inkscape:window-maximized="0"
     inkscape:current-layer="svg6" />
  <path
     d="m 288,256 a 32,32 0 1 0 -64,0 32,32 0 0 0 64,0"
     style="fill:#ff0000"
     id="path1" />
  <g
     transform="translate(0,16)"
     style="color:#000000;opacity:0.5;fill:none;stroke:#ff0000;stroke-linecap:square"
     id="g5">
    <path
       transform="matrix(0.8,0,0,0.8,113.6,91.2)"
       d="m 168,136 a 80,80 0 1 1 -160,0 80,80 0 1 1 160,0 z"
       style="stroke-width:20"
       id="path2" />
    <g
       style="stroke-width:16"
       id="g4">
      <path
         d="M 376,184 248,328 h 128 z"
         id="path3" />
      <path
         d="M 56,184 C 56,121.95 81.952,72 152,72 H 456 V 408 H 184 V 328 H 56 Z"
         id="path4" />
    </g>
  </g>
  <path
     d="m 288,86 a 32,32 0 1 0 -64,0 32,32 0 0 0 64,0"
     style="fill:#ff0000"
     id="path6" />
  <path
     d="m 488,86 a 32,32 0 1 0 -64,0 32,32 0 0 0 64,0"
     style="fill:#ff0000"
     id="path7" />
  <path
     d="m 88,86 a 32,32 0 1 0 -64,0 32,32 0 0 0 64,0"
     style="fill:#ff0000"
     id="path8" />
  <path
     d="m 288,426 a 32,32 0 1 0 -64,0 32,32 0 0 0 64,0"
     style="fill:#ff0000"
     id="path9" />
  <path
     d="m 488,426 a 32,32 0 1 0 -64,0 32,32 0 0 0 64,0"
     style="fill:#ff0000"
     id="path10" />
  <path
     d="m 88,426 a 32,32 0 1 0 -64,0 32,32 0 0 0 64,0"
     style="fill:#ff0000"
     id="path11" />
  <path
     d="m 488,256 a 32,32 0 1 0 -64,0 32,32 0 0 0 64,0"
     style="fill:#ff0000"
     id="path12" />
  <path
     d="m 88,256 a 32,32 0 1 0 -64,0 32,32 0 0 0 64,0"
     style="fill:#ff0000"
     id="path13" />
</svg>
